<meta message time_signature numerator=4 denominator=4 clocks_per_click=24 notated_32nd_notes_per_beat=8 time=0>@<meta message key_signature key='Cb' time=0>@<meta message set_tempo tempo=731707 time=0>@<meta message midi_port port=0 time=0>@<meta message track_name name='Right hand' time=0>@program_change channel=0 program=0 time=0@control_change channel=0 control=7 value=100 time=0@control_change channel=0 control=10 value=72 time=0@<meta message midi_port port=0 time=0>@<meta message track_name name='Left hand' time=0>@program_change channel=1 program=0 time=0@control_change channel=1 control=7 value=90 time=0@control_change channel=1 control=10 value=56 time=0@control_change channel=0 control=1 value=8 time=2.195121@control_change channel=0 control=91 value=127 time=0@control_change channel=0 control=93 value=32 time=0@note_on channel=0 note=63 velocity=100 time=0@control_change channel=1 control=1 value=8 time=0@control_change channel=1 control=91 value=127 time=0@control_change channel=1 control=93 value=32 time=0@note_on channel=1 note=51 velocity=100 time=0@note_on channel=0 note=63 velocity=0 time=0.54878025@note_on channel=0 note=63 velocity=100 time=0@note_on channel=1 note=51 velocity=0 time=0@note_on channel=1 note=51 velocity=100 time=0@note_on channel=0 note=63 velocity=0 time=0.18292675@note_on channel=0 note=63 velocity=100 time=0@note_on channel=1 note=51 velocity=0 time=0@note_on channel=1 note=32 velocity=100 time=0@note_on channel=1 note=44 velocity=100 time=0@note_on channel=1 note=51 velocity=100 time=0@note_on channel=1 note=56 velocity=100 time=0@note_on channel=1 note=59 velocity=100 time=0@note_on channel=0 note=63 velocity=0 time=0.731707@note_on channel=0 note=63 velocity=100 time=0@note_on channel=1 note=59 velocity=0 time=0@note_on channel=1 note=51 velocity=0 time=0@note_on channel=1 note=56 velocity=0 time=0@note_on channel=1 note=51 velocity=100 time=0@note_on channel=1 note=56 velocity=100 time=0@note_on channel=1 note=59 velocity=100 time=0@note_on channel=0 note=63 velocity=0 time=0.54878025@note_on channel=0 note=63 velocity=100 time=0@note_on channel=1 note=59 velocity=0 time=0@note_on channel=1 note=51 velocity=0 time=0@note_on channel=1 note=56 velocity=0 time=0@note_on channel=1 note=59 velocity=100 time=0@note_on channel=1 note=56 velocity=100 time=0@note_on channel=1 note=51 velocity=100 time=0@note_on channel=0 note=63 velocity=0 time=0.18292675@note_on channel=0 note=63 velocity=100 time=0@note_on channel=1 note=51 velocity=0 time=0@note_on channel=1 note=59 velocity=0 time=0@note_on channel=1 note=56 velocity=0 time=0@note_on channel=1 note=32 velocity=0 time=0@note_on channel=1 note=32 velocity=100 time=0@note_on channel=1 note=59 velocity=100 time=0@note_on channel=1 note=56 velocity=100 time=0@note_on channel=1 note=51 velocity=100 time=0@note_on channel=0 note=63 velocity=0 time=0.54878025@note_on channel=0 note=63 velocity=100 time=0@note_on channel=1 note=51 velocity=0 time=0@note_on channel=1 note=59 velocity=0 time=0@note_on channel=1 note=56 velocity=0 time=0@note_on channel=1 note=59 velocity=100 time=0@note_on channel=1 note=56 velocity=100 time=0@note_on channel=1 note=51 velocity=100 time=0@note_on channel=0 note=63 velocity=0 time=0.18292675@note_on channel=0 note=63 velocity=100 time=0@note_on channel=1 note=51 velocity=0 time=0@note_on channel=1 note=59 velocity=0 time=0@note_on channel=1 note=56 velocity=0 time=0@note_on channel=1 note=59 velocity=100 time=0@note_on channel=1 note=56 velocity=100 time=0@note_on channel=1 note=51 velocity=100 time=0@note_on channel=0 note=63 velocity=0 time=0.54878025@note_on channel=0 note=63 velocity=100 time=0@note_on channel=1 note=51 velocity=0 time=0@note_on channel=1 note=59 velocity=0 time=0@note_on channel=1 note=56 velocity=0 time=0@note_on channel=1 note=59 velocity=100 time=0@note_on channel=1 note=56 velocity=100 time=0@note_on channel=1 note=51 velocity=100 time=0@note_on channel=0 note=63 velocity=0 time=0.18292675@note_on channel=0 note=63 velocity=100 time=0@note_on channel=1 note=51 velocity=0 time=0@note_on channel=1 note=59 velocity=0 time=0@note_on channel=1 note=44 velocity=0 time=0@note_on channel=1 note=32 velocity=0 time=0@note_on channel=1 note=56 velocity=0 time=0@note_on channel=1 note=61 velocity=100 time=0@note_on channel=1 note=58 velocity=100 time=0@note_on channel=1 note=51 velocity=100 time=0@note_on channel=1 note=39 velocity=100 time=0@note_on channel=1 note=39 velocity=0 time=0.54878025@note_on channel=1 note=39 velocity=100 time=0@note_on channel=1 note=39 velocity=0 time=0.18292675@note_on channel=1 note=43 velocity=100 time=0@note_on channel=1 note=43 velocity=0 time=0.54878025@note_on channel=1 note=46 velocity=100 time=0@note_on channel=1 note=46 velocity=0 time=0.18292675@note_on channel=1 note=51 velocity=100 time=0@note_on channel=0 note=63 velocity=0 time=0.731707@note_on channel=0 note=63 velocity=100 time=0@note_on channel=1 note=51 velocity=0 time=0@note_on channel=1 note=61 velocity=0 time=0@note_on channel=1 note=58 velocity=0 time=0@note_on channel=1 note=51 velocity=0 time=0@note_on channel=1 note=49 velocity=100 time=0@note_on channel=1 note=51 velocity=100 time=0@note_on channel=1 note=55 velocity=100 time=0@note_on channel=1 note=58 velocity=100 time=0@note_on channel=0 note=63 velocity=0 time=0.54878025@note_on channel=0 note=63 velocity=100 time=0@note_on channel=1 note=58 velocity=0 time=0@note_on channel=1 note=49 velocity=0 time=0@note_on channel=1 note=51 velocity=0 time=0@note_on channel=1 note=55 velocity=0 time=0@note_on channel=1 note=58 velocity=100 time=0@note_on channel=1 note=55 velocity=100 time=0@note_on channel=1 note=51 velocity=100 time=0@note_on channel=1 note=49 velocity=100 time=0@note_on channel=0 note=63 velocity=0 time=0.18292675@note_on channel=0 note=63 velocity=100 time=0@note_on channel=1 note=49 velocity=0 time=0@note_on channel=1 note=58 velocity=0 time=0@note_on channel=1 note=55 velocity=0 time=0@note_on channel=1 note=51 velocity=0 time=0@note_on channel=1 note=51 velocity=100 time=0@note_on channel=1 note=47 velocity=100 time=0@note_on channel=1 note=56 velocity=100 time=0@note_on channel=1 note=59 velocity=100 time=0@note_on channel=0 note=63 velocity=0 time=0.731707@note_on channel=0 note=63 velocity=100 time=0@note_on channel=1 note=59 velocity=0 time=0@note_on channel=1 note=51 velocity=0 time=0@note_on channel=1 note=47 velocity=0 time=0@note_on channel=1 note=56 velocity=0 time=0@note_on channel=1 note=44 velocity=100 time=0@note_on channel=1 note=51 velocity=100 time=0@note_on channel=1 note=56 velocity=100 time=0@note_on channel=1 note=59 velocity=100 time=0@note_on channel=0 note=63 velocity=0 time=0.54878025@note_on channel=0 note=63 velocity=100 time=0@note_on channel=1 note=59 velocity=0 time=0@note_on channel=1 note=44 velocity=0 time=0@note_on channel=1 note=51 velocity=0 time=0@note_on channel=1 note=56 velocity=0 time=0@note_on channel=1 note=59 velocity=100 time=0@note_on channel=1 note=56 velocity=100 time=0@note_on channel=1 note=51 velocity=100 time=0@note_on channel=1 note=44 velocity=100 time=0@note_on channel=0 note=63 velocity=0 time=0.18292675@note_on channel=0 note=63 velocity=100 time=0@note_on channel=1 note=44 velocity=0 time=0@note_on channel=1 note=59 velocity=0 time=0@note_on channel=1 note=56 velocity=0 time=0@note_on channel=1 note=51 velocity=0 time=0@note_on channel=1 note=61 velocity=100 time=0@note_on channel=1 note=58 velocity=100 time=0@note_on channel=1 note=51 velocity=100 time=0@note_on channel=1 note=43 velocity=100 time=0@note_on channel=0 note=63 velocity=0 time=0.731707@note_on channel=0 note=63 velocity=100 time=0@note_on channel=1 note=43 velocity=0 time=0@note_on channel=1 note=61 velocity=0 time=0@note_on channel=1 note=58 velocity=0 time=0@note_on channel=1 note=51 velocity=0 time=0@note_on channel=1 note=59 velocity=100 time=0@note_on channel=1 note=56 velocity=100 time=0@note_on channel=1 note=51 velocity=100 time=0@note_on channel=1 note=44 velocity=100 time=0@note_on channel=0 note=63 velocity=0 time=0.54878025@note_on channel=0 note=63 velocity=100 time=0@note_on channel=1 note=44 velocity=0 time=0@note_on channel=1 note=59 velocity=0 time=0@note_on channel=1 note=56 velocity=0 time=0@note_on channel=1 note=51 velocity=0 time=0@note_on channel=1 note=59 velocity=100 time=0@note_on channel=1 note=56 velocity=100 time=0@note_on channel=1 note=51 velocity=100 time=0@note_on channel=1 note=44 velocity=100 time=0@note_on channel=0 note=63 velocity=0 time=0.18292675@note_on channel=0 note=63 velocity=100 time=0@note_on channel=1 note=44 velocity=0 time=0@note_on channel=1 note=59 velocity=0 time=0@note_on channel=1 note=56 velocity=0 time=0@note_on channel=1 note=51 velocity=0 time=0@note_on channel=1 note=39 velocity=100 time=0@note_on channel=1 note=51 velocity=100 time=0@note_on channel=1 note=55 velocity=100 time=0@note_on channel=1 note=58 velocity=100 time=0@note_on channel=0 note=63 velocity=0 time=0.731707@note_on channel=0 note=63 velocity=100 time=0@note_on channel=1 note=58 velocity=0 time=0@note_on channel=1 note=39 velocity=0 time=0@note_on channel=1 note=51 velocity=0 time=0@note_on channel=1 note=55 velocity=0 time=0@note_on channel=1 note=39 velocity=100 time=0@note_on channel=1 note=51 velocity=100 time=0@note_on channel=1 note=55 velocity=100 time=0@note_on channel=1 note=58 velocity=100 time=0@note_on channel=0 note=63 velocity=0 time=0.731707@note_on channel=0 note=63 velocity=100 time=0@note_on channel=1 note=58 velocity=0 time=0@note_on channel=1 note=39 velocity=0 time=0@note_on channel=1 note=51 velocity=0 time=0@note_on channel=1 note=55 velocity=0 time=0@note_on channel=1 note=39 velocity=100 time=0@note_on channel=1 note=51 velocity=100 time=0@note_on channel=1 note=55 velocity=100 time=0@note_on channel=1 note=58 velocity=100 time=0@note_on channel=0 note=63 velocity=0 time=0.731707@note_on channel=0 note=63 velocity=100 time=0@note_on channel=1 note=58 velocity=0 time=0@note_on channel=1 note=39 velocity=0 time=0@note_on channel=1 note=51 velocity=0 time=0@note_on channel=1 note=55 velocity=0 time=0@note_on channel=1 note=51 velocity=100 time=0@note_on channel=0 note=63 velocity=0 time=0.54878025@note_on channel=0 note=63 velocity=100 time=0@note_on channel=1 note=51 velocity=0 time=0@note_on channel=1 note=51 velocity=100 time=0@note_on channel=0 note=63 velocity=0 time=0.18292675@note_on channel=0 note=63 velocity=100 time=0@note_on channel=1 note=51 velocity=0 time=0@note_on channel=1 note=32 velocity=100 time=0@note_on channel=1 note=44 velocity=100 time=0@note_on channel=1 note=51 velocity=100 time=0@note_on channel=1 note=56 velocity=100 time=0@note_on channel=1 note=59 velocity=100 time=0@note_on channel=0 note=63 velocity=0 time=0.731707@note_on channel=0 note=63 velocity=100 time=0@note_on channel=1 note=59 velocity=0 time=0@note_on channel=1 note=51 velocity=0 time=0@note_on channel=1 note=56 velocity=0 time=0@note_on channel=1 note=51 velocity=100 time=0@note_on channel=1 note=56 velocity=100 time=0@note_on channel=1 note=59 velocity=100 time=0@note_on channel=0 note=63 velocity=0 time=0.54878025@note_on channel=0 note=63 velocity=100 time=0@note_on channel=1 note=59 velocity=0 time=0@note_on channel=1 note=51 velocity=0 time=0@note_on channel=1 note=56 velocity=0 time=0@note_on channel=1 note=59 velocity=100 time=0@note_on channel=1 note=56 velocity=100 time=0@note_on channel=1 note=51 velocity=100 time=0@note_on channel=0 note=63 velocity=0 time=0.18292675@note_on channel=0 note=63 velocity=100 time=0@note_on channel=1 note=51 velocity=0 time=0@note_on channel=1 note=59 velocity=0 time=0@note_on channel=1 note=56 velocity=0 time=0@note_on channel=1 note=32 velocity=0 time=0@note_on channel=1 note=32 velocity=100 time=0@note_on channel=1 note=59 velocity=100 time=0@note_on channel=1 note=56 velocity=100 time=0@note_on channel=1 note=51 velocity=100 time=0@note_on channel=0 note=63 velocity=0 time=0.54878025@note_on channel=0 note=63 velocity=100 time=0@note_on channel=1 note=51 velocity=0 time=0@note_on channel=1 note=59 velocity=0 time=0@note_on channel=1 note=56 velocity=0 time=0@note_on channel=1 note=59 velocity=100 time=0@note_on channel=1 note=56 velocity=100 time=0@note_on channel=1 note=51 velocity=100 time=0@note_on channel=0 note=63 velocity=0 time=0.18292675@note_on channel=0 note=63 velocity=100 time=0@note_on channel=1 note=51 velocity=0 time=0@note_on channel=1 note=59 velocity=0 time=0@note_on channel=1 note=56 velocity=0 time=0@note_on channel=1 note=58 velocity=100 time=0@note_on channel=1 note=54 velocity=100 time=0@note_on channel=1 note=51 velocity=100 time=0@note_on channel=0 note=63 velocity=0 time=0.54878025@note_on channel=0 note=63 velocity=100 time=0@note_on channel=1 note=51 velocity=0 time=0@note_on channel=1 note=58 velocity=0 time=0@note_on channel=1 note=54 velocity=0 time=0@note_on channel=1 note=56 velocity=100 time=0@note_on channel=1 note=53 velocity=100 time=0@note_on channel=1 note=51 velocity=100 time=0@note_on channel=0 note=63 velocity=0 time=0.18292675@note_on channel=0 note=63 velocity=100 time=0@note_on channel=1 note=51 velocity=0 time=0@note_on channel=1 note=56 velocity=0 time=0@note_on channel=1 note=44 velocity=0 time=0@note_on channel=1 note=32 velocity=0 time=0@note_on channel=1 note=53 velocity=0 time=0@note_on channel=1 note=39 velocity=100 time=0@note_on channel=1 note=51 velocity=100 time=0@note_on channel=1 note=54 velocity=100 time=0@note_on channel=1 note=58 velocity=100 time=0@note_on channel=1 note=39 velocity=0 time=0.54878025@note_on channel=1 note=39 velocity=100 time=0@note_on channel=1 note=39 velocity=0 time=0.18292675@note_on channel=1 note=42 velocity=100 time=0@note_on channel=1 note=42 velocity=0 time=0.54878025@note_on channel=1 note=46 velocity=100 time=0@note_on channel=1 note=46 velocity=0 time=0.18292675@note_on channel=1 note=51 velocity=100 time=0@note_on channel=0 note=63 velocity=0 time=0.731707@note_on channel=0 note=63 velocity=100 time=0@note_on channel=1 note=51 velocity=0 time=0@note_on channel=1 note=51 velocity=0 time=0@note_on channel=1 note=54 velocity=0 time=0@note_on channel=1 note=58 velocity=0 time=0@note_on channel=1 note=59 velocity=100 time=0@note_on channel=1 note=54 velocity=100 time=0@note_on channel=1 note=47 velocity=100 time=0@note_on channel=0 note=63 velocity=0 time=0.54878025@note_on channel=0 note=63 velocity=100 time=0@note_on channel=1 note=47 velocity=0 time=0@note_on channel=1 note=54 velocity=0 time=0@note_on channel=1 note=59 velocity=0 time=0@note_on channel=1 note=47 velocity=100 time=0@note_on channel=1 note=54 velocity=100 time=0@note_on channel=1 note=59 velocity=100 time=0@note_on channel=0 note=63 velocity=0 time=0.18292675@note_on channel=0 note=63 velocity=100 time=0@note_on channel=1 note=59 velocity=0 time=0@note_on channel=1 note=54 velocity=0 time=0@note_on channel=1 note=47 velocity=0 time=0@note_on channel=1 note=44 velocity=100 time=0@note_on channel=1 note=56 velocity=100 time=0@note_on channel=1 note=59 velocity=100 time=0@note_on channel=0 note=63 velocity=0 time=0.731707@note_on channel=0 note=61 velocity=100 time=0@note_on channel=1 note=59 velocity=0 time=0@note_on channel=1 note=56 velocity=0 time=0@note_on channel=1 note=44 velocity=0 time=0@note_on channel=1 note=40 velocity=100 time=0@note_on channel=1 note=56 velocity=100 time=0@note_on channel=1 note=59 velocity=100 time=0@note_on channel=0 note=61 velocity=0 time=0.54878025@note_on channel=0 note=61 velocity=100 time=0@note_on channel=1 note=59 velocity=0 time=0@note_on channel=1 note=56 velocity=0 time=0@note_on channel=1 note=40 velocity=0 time=0@note_on channel=1 note=40 velocity=100 time=0@note_on channel=1 note=56 velocity=100 time=0@note_on channel=1 note=59 velocity=100 time=0@note_on channel=0 note=61 velocity=0 time=0.18292675@note_on channel=0 note=61 velocity=100 time=0@note_on channel=1 note=59 velocity=0 time=0@note_on channel=1 note=56 velocity=0 time=0@note_on channel=1 note=40 velocity=0 time=0@note_on channel=1 note=59 velocity=100 time=0@note_on channel=1 note=54 velocity=100 time=0@note_on channel=1 note=42 velocity=100 time=0@note_on channel=0 note=61 velocity=0 time=0.731707@note_on channel=0 note=61 velocity=100 time=0@note_on channel=1 note=42 velocity=0 time=0@note_on channel=1 note=54 velocity=0 time=0@note_on channel=1 note=59 velocity=0 time=0@note_on channel=1 note=30 velocity=100 time=0@note_on channel=1 note=42 velocity=100 time=0@note_on channel=1 note=52 velocity=100 time=0@note_on channel=1 note=54 velocity=100 time=0@note_on channel=1 note=58 velocity=100 time=0@note_on channel=0 note=61 velocity=0 time=0.54878025@note_on channel=0 note=61 velocity=100 time=0@note_on channel=1 note=58 velocity=0 time=0@note_on channel=1 note=52 velocity=0 time=0@note_on channel=1 note=30 velocity=0 time=0@note_on channel=1 note=42 velocity=0 time=0@note_on channel=1 note=54 velocity=0 time=0@note_on channel=1 note=54 velocity=100 time=0@note_on channel=1 note=30 velocity=100 time=0@note_on channel=1 note=42 velocity=100 time=0@note_on channel=1 note=52 velocity=100 time=0@note_on channel=1 note=58 velocity=100 time=0@note_on channel=0 note=61 velocity=0 time=0.18292675@note_on channel=0 note=59 velocity=100 time=0@note_on channel=1 note=58 velocity=0 time=0@note_on channel=1 note=42 velocity=0 time=0@note_on channel=1 note=54 velocity=0 time=0@note_on channel=1 note=30 velocity=0 time=0@note_on channel=1 note=52 velocity=0 time=0@note_on channel=1 note=35 velocity=100 time=0@note_on channel=1 note=47 velocity=100 time=0@note_on channel=1 note=51 velocity=100 time=0@note_on channel=1 note=54 velocity=100 time=0@note_on channel=0 note=59 velocity=0 time=0.731707@note_on channel=0 note=59 velocity=100 time=0@note_on channel=1 note=54 velocity=0 time=0@note_on channel=1 note=35 velocity=0 time=0@note_on channel=1 note=47 velocity=0 time=0@note_on channel=1 note=51 velocity=0 time=0@note_on channel=1 note=35 velocity=100 time=0@note_on channel=1 note=47 velocity=100 time=0@note_on channel=1 note=51 velocity=100 time=0@note_on channel=1 note=54 velocity=100 time=0@note_on channel=0 note=59 velocity=0 time=0.731707@note_on channel=0 note=59 velocity=100 time=0@note_on channel=1 note=54 velocity=0 time=0@note_on channel=1 note=35 velocity=0 time=0@note_on channel=1 note=47 velocity=0 time=0@note_on channel=1 note=51 velocity=0 time=0@note_on channel=1 note=35 velocity=100 time=0@note_on channel=1 note=47 velocity=100 time=0@note_on channel=1 note=51 velocity=100 time=0@note_on channel=1 note=54 velocity=100 time=0@note_on channel=0 note=59 velocity=0 time=0.731707@note_on channel=0 note=66 velocity=100 time=0@note_on channel=1 note=54 velocity=0 time=0@note_on channel=1 note=35 velocity=0 time=0@note_on channel=1 note=47 velocity=0 time=0@note_on channel=1 note=51 velocity=0 time=0@note_on channel=1 note=46 velocity=100 time=0@note_on channel=0 note=66 velocity=0 time=0.54878025@note_on channel=0 note=66 velocity=100 time=0@note_on channel=1 note=46 velocity=0 time=0@note_on channel=1 note=46 velocity=100 time=0@note_on channel=0 note=66 velocity=0 time=0.18292675@note_on channel=0 note=62 velocity=100 time=0@note_on channel=0 note=66 velocity=100 time=0@note_on channel=1 note=46 velocity=0 time=0@note_on channel=1 note=35 velocity=100 time=0@note_on channel=1 note=47 velocity=100 time=0@note_on channel=1 note=54 velocity=100 time=0@note_on channel=1 note=59 velocity=100 time=0@note_on channel=0 note=66 velocity=0 time=0.731707@note_on channel=0 note=62 velocity=0 time=0@note_on channel=0 note=66 velocity=100 time=0@note_on channel=0 note=62 velocity=100 time=0@note_on channel=1 note=59 velocity=0 time=0@note_on channel=1 note=54 velocity=0 time=0@note_on channel=1 note=59 velocity=100 time=0@note_on channel=1 note=54 velocity=100 time=0@note_on channel=0 note=62 velocity=0 time=0.54878025@note_on channel=0 note=66 velocity=0 time=0@note_on channel=0 note=66 velocity=100 time=0@note_on channel=0 note=62 velocity=100 time=0@note_on channel=1 note=54 velocity=0 time=0@note_on channel=1 note=59 velocity=0 time=0@note_on channel=1 note=59 velocity=100 time=0@note_on channel=1 note=54 velocity=100 time=0@note_on channel=0 note=62 velocity=0 time=0.18292675@note_on channel=0 note=66 velocity=0 time=0@note_on channel=0 note=66 velocity=100 time=0@note_on channel=0 note=62 velocity=100 time=0@note_on channel=1 note=54 velocity=0 time=0@note_on channel=1 note=59 velocity=0 time=0@note_on channel=1 note=35 velocity=0 time=0@note_on channel=1 note=59 velocity=100 time=0@note_on channel=1 note=54 velocity=100 time=0@note_on channel=1 note=35 velocity=100 time=0@note_on channel=0 note=62 velocity=0 time=0.54878025@note_on channel=0 note=66 velocity=0 time=0@note_on channel=0 note=66 velocity=100 time=0@note_on channel=0 note=62 velocity=100 time=0@note_on channel=1 note=54 velocity=0 time=0@note_on channel=1 note=59 velocity=0 time=0@note_on channel=1 note=59 velocity=100 time=0@note_on channel=1 note=54 velocity=100 time=0@note_on channel=0 note=62 velocity=0 time=0.18292675@note_on channel=0 note=66 velocity=0 time=0@note_on channel=0 note=66 velocity=100 time=0@note_on channel=0 note=61 velocity=100 time=0@note_on channel=1 note=54 velocity=0 time=0@note_on channel=1 note=59 velocity=0 time=0@note_on channel=1 note=54 velocity=100 time=0@note_on channel=1 note=58 velocity=100 time=0@note_on channel=0 note=61 velocity=0 time=0.54878025@note_on channel=0 note=66 velocity=0 time=0@note_on channel=0 note=66 velocity=100 time=0@note_on channel=0 note=62 velocity=100 time=0@note_on channel=1 note=58 velocity=0 time=0@note_on channel=1 note=54 velocity=0 time=0@note_on channel=1 note=59 velocity=100 time=0@note_on channel=1 note=54 velocity=100 time=0@note_on channel=0 note=62 velocity=0 time=0.18292675@note_on channel=0 note=66 velocity=0 time=0@note_on channel=0 note=64 velocity=100 time=0@note_on channel=0 note=66 velocity=100 time=0@note_on channel=1 note=54 velocity=0 time=0@note_on channel=1 note=35 velocity=0 time=0@note_on channel=1 note=47 velocity=0 time=0@note_on channel=1 note=59 velocity=0 time=0@note_on channel=1 note=30 velocity=100 time=0@note_on channel=1 note=42 velocity=100 time=0@note_on channel=1 note=54 velocity=100 time=0@note_on channel=1 note=61 velocity=100 time=0@note_on channel=1 note=42 velocity=0 time=0.54878025@note_on channel=1 note=30 velocity=0 time=0@note_on channel=1 note=42 velocity=100 time=0@note_on channel=1 note=30 velocity=100 time=0@note_on channel=1 note=30 velocity=0 time=0.18292675@note_on channel=1 note=42 velocity=0 time=0@note_on channel=1 note=46 velocity=100 time=0@note_on channel=1 note=34 velocity=100 time=0@note_on channel=1 note=34 velocity=0 time=0.54878025@note_on channel=1 note=46 velocity=0 time=0@note_on channel=1 note=49 velocity=100 time=0@note_on channel=1 note=37 velocity=100 time=0@note_on channel=1 note=37 velocity=0 time=0.18292675@note_on channel=1 note=49 velocity=0 time=0@note_on channel=1 note=54 velocity=100 time=0@note_on channel=1 note=42 velocity=100 time=0@note_on channel=0 note=66 velocity=0 time=0.731707@note_on channel=0 note=64 velocity=0 time=0@note_on channel=0 note=61 velocity=100 time=0@note_on channel=0 note=66 velocity=100 time=0@note_on channel=1 note=42 velocity=0 time=0@note_on channel=1 note=61 velocity=0 time=0@note_on channel=1 note=54 velocity=0 time=0@note_on channel=1 note=54 velocity=0 time=0@note_on channel=1 note=40 velocity=100 time=0@note_on channel=1 note=52 velocity=100 time=0@note_on channel=1 note=54 velocity=100 time=0@note_on channel=1 note=58 velocity=100 time=0@note_on channel=0 note=66 velocity=0 time=0.54878025@note_on channel=0 note=61 velocity=0 time=0@note_on channel=0 note=66 velocity=100 time=0@note_on channel=0 note=61 velocity=100 time=0@note_on channel=1 note=58 velocity=0 time=0@note_on channel=1 note=40 velocity=0 time=0@note_on channel=1 note=52 velocity=0 time=0@note_on channel=1 note=54 velocity=0 time=0@note_on channel=1 note=58 velocity=100 time=0@note_on channel=1 note=54 velocity=100 time=0@note_on channel=1 note=52 velocity=100 time=0@note_on channel=1 note=40 velocity=100 time=0@note_on channel=0 note=61 velocity=0 time=0.18292675@note_on channel=0 note=66 velocity=0 time=0@note_on channel=0 note=62 velocity=100 time=0@note_on channel=0 note=66 velocity=100 time=0@note_on channel=1 note=40 velocity=0 time=0@note_on channel=1 note=58 velocity=0 time=0@note_on channel=1 note=54 velocity=0 time=0@note_on channel=1 note=52 velocity=0 time=0@note_on channel=1 note=38 velocity=100 time=0@note_on channel=1 note=50 velocity=100 time=0@note_on channel=1 note=54 velocity=100 time=0@note_on channel=1 note=59 velocity=100 time=0@note_on channel=0 note=66 velocity=0 time=0.731707@note_on channel=0 note=62 velocity=0 time=0@note_on channel=0 note=62 velocity=100 time=0@note_on channel=0 note=66 velocity=100 time=0@note_on channel=1 note=59 velocity=0 time=0@note_on channel=1 note=38 velocity=0 time=0@note_on channel=1 note=50 velocity=0 time=0@note_on channel=1 note=54 velocity=0 time=0@note_on channel=1 note=35 velocity=100 time=0@note_on channel=1 note=47 velocity=100 time=0@note_on channel=1 note=54 velocity=100 time=0@note_on channel=1 note=59 velocity=100 time=0@note_on channel=0 note=66 velocity=0 time=0.54878025@note_on channel=0 note=62 velocity=0 time=0@note_on channel=0 note=62 velocity=100 time=0@note_on channel=0 note=66 velocity=100 time=0@note_on channel=1 note=59 velocity=0 time=0@note_on channel=1 note=35 velocity=0 time=0@note_on channel=1 note=47 velocity=0 time=0@note_on channel=1 note=54 velocity=0 time=0@note_on channel=1 note=35 velocity=100 time=0@note_on channel=1 note=47 velocity=100 time=0@note_on channel=1 note=54 velocity=100 time=0@note_on channel=1 note=59 velocity=100 time=0@note_on channel=0 note=66 velocity=0 time=0.18292675@note_on channel=0 note=62 velocity=0 time=0@note_on channel=0 note=66 velocity=100 time=0@note_on channel=0 note=64 velocity=100 time=0@note_on channel=0 note=61 velocity=100 time=0@note_on channel=1 note=59 velocity=0 time=0@note_on channel=1 note=35 velocity=0 time=0@note_on channel=1 note=47 velocity=0 time=0@note_on channel=1 note=54 velocity=0 time=0@note_on channel=1 note=34 velocity=100 time=0@note_on channel=1 note=46 velocity=100 time=0@note_on channel=1 note=52 velocity=100 time=0@note_on channel=0 note=61 velocity=0 time=0.731707@note_on channel=0 note=64 velocity=0 time=0@note_on channel=0 note=66 velocity=0 time=0@note_on channel=0 note=62 velocity=100 time=0@note_on channel=0 note=66 velocity=100 time=0@note_on channel=1 note=52 velocity=0 time=0@note_on channel=1 note=46 velocity=0 time=0@note_on channel=1 note=34 velocity=0 time=0@note_on channel=1 note=35 velocity=100 time=0@note_on channel=1 note=47 velocity=100 time=0@note_on channel=1 note=54 velocity=100 time=0@note_on channel=1 note=59 velocity=100 time=0@note_on channel=0 note=66 velocity=0 time=0.54878025@note_on channel=0 note=62 velocity=0 time=0@note_on channel=0 note=62 velocity=100 time=0@note_on channel=0 note=66 velocity=100 time=0@note_on channel=1 note=59 velocity=0 time=0@note_on channel=1 note=35 velocity=0 time=0@note_on channel=1 note=47 velocity=0 time=0@note_on channel=1 note=54 velocity=0 time=0@note_on channel=1 note=35 velocity=100 time=0@note_on channel=1 note=47 velocity=100 time=0@note_on channel=1 note=54 velocity=100 time=0@note_on channel=1 note=59 velocity=100 time=0@note_on channel=0 note=66 velocity=0 time=0.18292675@note_on channel=0 note=62 velocity=0 time=0@note_on channel=0 note=61 velocity=100 time=0@note_on channel=0 note=66 velocity=100 time=0@note_on channel=1 note=59 velocity=0 time=0@note_on channel=1 note=35 velocity=0 time=0@note_on channel=1 note=47 velocity=0 time=0@note_on channel=1 note=54 velocity=0 time=0@note_on channel=1 note=30 velocity=100 time=0@note_on channel=1 note=42 velocity=100 time=0@note_on channel=1 note=54 velocity=100 time=0@note_on channel=1 note=58 velocity=100 time=0@note_on channel=0 note=66 velocity=0 time=0.731707@note_on channel=0 note=61 velocity=0 time=0@note_on channel=0 note=61 velocity=100 time=0@note_on channel=0 note=66 velocity=100 time=0@note_on channel=1 note=58 velocity=0 time=0@note_on channel=1 note=30 velocity=0 time=0@note_on channel=1 note=42 velocity=0 time=0@note_on channel=1 note=54 velocity=0 time=0@note_on channel=1 note=30 velocity=100 time=0@note_on channel=1 note=42 velocity=100 time=0@note_on channel=1 note=54 velocity=100 time=0@note_on channel=1 note=58 velocity=100 time=0@note_on channel=0 note=66 velocity=0 time=0.731707@note_on channel=0 note=61 velocity=0 time=0@note_on channel=0 note=61 velocity=100 time=0@note_on channel=0 note=66 velocity=100 time=0@note_on channel=1 note=58 velocity=0 time=0@note_on channel=1 note=30 velocity=0 time=0@note_on channel=1 note=42 velocity=0 time=0@note_on channel=1 note=54 velocity=0 time=0@note_on channel=1 note=30 velocity=100 time=0@note_on channel=1 note=42 velocity=100 time=0@note_on channel=1 note=54 velocity=100 time=0@note_on channel=1 note=58 velocity=100 time=0@note_on channel=0 note=66 velocity=0 time=0.731707@note_on channel=0 note=61 velocity=0 time=0@note_on channel=0 note=66 velocity=100 time=0@note_on channel=1 note=58 velocity=0 time=0@note_on channel=1 note=30 velocity=0 time=0@note_on channel=1 note=42 velocity=0 time=0@note_on channel=1 note=54 velocity=0 time=0@note_on channel=1 note=54 velocity=100 time=0@note_on channel=0 note=66 velocity=0 time=0.54878025@note_on channel=0 note=66 velocity=100 time=0@note_on channel=1 note=54 velocity=0 time=0@note_on channel=1 note=54 velocity=100 time=0@note_on channel=0 note=66 velocity=0 time=0.18292675@note_on channel=0 note=62 velocity=100 time=0@note_on channel=0 note=66 velocity=100 time=0@note_on channel=1 note=54 velocity=0 time=0@note_on channel=1 note=35 velocity=100 time=0@note_on channel=1 note=47 velocity=100 time=0@note_on channel=1 note=54 velocity=100 time=0@note_on channel=1 note=59 velocity=100 time=0@note_on channel=0 note=66 velocity=0 time=0.731707@note_on channel=0 note=62 velocity=0 time=0@note_on channel=0 note=66 velocity=100 time=0@note_on channel=0 note=62 velocity=100 time=0@note_on channel=1 note=59 velocity=0 time=0@note_on channel=1 note=54 velocity=0 time=0@note_on channel=1 note=59 velocity=100 time=0@note_on channel=1 note=54 velocity=100 time=0@note_on channel=0 note=62 velocity=0 time=0.54878025@note_on channel=0 note=66 velocity=0 time=0@note_on channel=0 note=66 velocity=100 time=0@note_on channel=0 note=62 velocity=100 time=0@note_on channel=1 note=54 velocity=0 time=0@note_on channel=1 note=59 velocity=0 time=0@note_on channel=1 note=59 velocity=100 time=0@note_on channel=1 note=54 velocity=100 time=0@note_on channel=0 note=62 velocity=0 time=0.18292675@note_on channel=0 note=66 velocity=0 time=0@note_on channel=0 note=66 velocity=100 time=0@note_on channel=0 note=62 velocity=100 time=0@note_on channel=1 note=54 velocity=0 time=0@note_on channel=1 note=59 velocity=0 time=0@note_on channel=1 note=35 velocity=0 time=0@note_on channel=1 note=59 velocity=100 time=0@note_on channel=1 note=54 velocity=100 time=0@note_on channel=1 note=35 velocity=100 time=0@note_on channel=0 note=62 velocity=0 time=0.54878025@note_on channel=0 note=66 velocity=0 time=0@note_on channel=0 note=66 velocity=100 time=0@note_on channel=0 note=62 velocity=100 time=0@note_on channel=1 note=54 velocity=0 time=0@note_on channel=1 note=59 velocity=0 time=0@note_on channel=1 note=59 velocity=100 time=0@note_on channel=1 note=54 velocity=100 time=0@note_on channel=0 note=62 velocity=0 time=0.18292675@note_on channel=0 note=66 velocity=0 time=0@note_on channel=0 note=64 velocity=100 time=0@note_on channel=0 note=61 velocity=100 time=0@note_on channel=1 note=54 velocity=0 time=0@note_on channel=1 note=59 velocity=0 time=0@note_on channel=1 note=52 velocity=100 time=0@note_on channel=1 note=59 velocity=100 time=0@note_on channel=0 note=61 velocity=0 time=0.54878025@note_on channel=0 note=64 velocity=0 time=0@note_on channel=0 note=66 velocity=100 time=0@note_on channel=0 note=62 velocity=100 time=0@note_on channel=1 note=59 velocity=0 time=0@note_on channel=1 note=52 velocity=0 time=0@note_on channel=1 note=59 velocity=100 time=0@note_on channel=1 note=54 velocity=100 time=0@note_on channel=0 note=62 velocity=0 time=0.18292675@note_on channel=0 note=66 velocity=0 time=0@note_on channel=0 note=64 velocity=100 time=0@note_on channel=0 note=67 velocity=100 time=0@note_on channel=1 note=54 velocity=0 time=0@note_on channel=1 note=35 velocity=0 time=0@note_on channel=1 note=47 velocity=0 time=0@note_on channel=1 note=59 velocity=0 time=0@note_on channel=1 note=40 velocity=100 time=0@note_on channel=1 note=55 velocity=100 time=0@note_on channel=1 note=59 velocity=100 time=0@note_on channel=1 note=40 velocity=0 time=0.54878025@note_on channel=1 note=40 velocity=100 time=0@note_on channel=1 note=40 velocity=0 time=0.18292675@note_on channel=1 note=43 velocity=100 time=0@note_on channel=1 note=43 velocity=0 time=0.54878025@note_on channel=1 note=47 velocity=100 time=0@note_on channel=1 note=47 velocity=0 time=0.18292675@note_on channel=1 note=52 velocity=100 time=0@note_on channel=0 note=67 velocity=0 time=0.731707@note_on channel=0 note=64 velocity=0 time=0@note_on channel=0 note=64 velocity=100 time=0@note_on channel=0 note=67 velocity=100 time=0@note_on channel=1 note=52 velocity=0 time=0@note_on channel=1 note=59 velocity=0 time=0@note_on channel=1 note=55 velocity=0 time=0@note_on channel=1 note=43 velocity=100 time=0@note_on channel=1 note=52 velocity=100 time=0@note_on channel=1 note=55 velocity=100 time=0@note_on channel=1 note=59 velocity=100 time=0@note_on channel=0 note=67 velocity=0 time=0.54878025@note_on channel=0 note=64 velocity=0 time=0@note_on channel=0 note=67 velocity=100 time=0@note_on channel=0 note=64 velocity=100 time=0@note_on channel=1 note=59 velocity=0 time=0@note_on channel=1 note=43 velocity=0 time=0@note_on channel=1 note=52 velocity=0 time=0@note_on channel=1 note=55 velocity=0 time=0@note_on channel=1 note=59 velocity=100 time=0@note_on channel=1 note=55 velocity=100 time=0@note_on channel=1 note=52 velocity=100 time=0@note_on channel=1 note=43 velocity=100 time=0@note_on channel=0 note=64 velocity=0 time=0.18292675@note_on channel=0 note=67 velocity=0 time=0@note_on channel=0 note=57 velocity=100 time=0@note_on channel=0 note=62 velocity=100 time=0@note_on channel=0 note=66 velocity=100 time=0@note_on channel=1 note=43 velocity=0 time=0@note_on channel=1 note=59 velocity=0 time=0@note_on channel=1 note=55 velocity=0 time=0@note_on channel=1 note=52 velocity=0 time=0@note_on channel=1 note=45 velocity=100 time=0@note_on channel=1 note=50 velocity=100 time=0@note_on channel=1 note=54 velocity=100 time=0@note_on channel=0 note=66 velocity=0 time=0.731707@note_on channel=0 note=62 velocity=0 time=0@note_on channel=0 note=57 velocity=0 time=0@note_on channel=0 note=57 velocity=100 time=0@note_on channel=0 note=62 velocity=100 time=0@note_on channel=0 note=66 velocity=100 time=0@note_on channel=1 note=54 velocity=0 time=0@note_on channel=1 note=50 velocity=0 time=0@note_on channel=1 note=45 velocity=0 time=0@note_on channel=1 note=45 velocity=100 time=0@note_on channel=1 note=50 velocity=100 time=0@note_on channel=1 note=54 velocity=100 time=0@note_on channel=0 note=66 velocity=0 time=0.54878025@note_on channel=0 note=62 velocity=0 time=0@note_on channel=0 note=57 velocity=0 time=0@note_on channel=0 note=57 velocity=100 time=0@note_on channel=0 note=62 velocity=100 time=0@note_on channel=0 note=66 velocity=100 time=0@note_on channel=1 note=54 velocity=0 time=0@note_on channel=1 note=50 velocity=0 time=0@note_on channel=1 note=45 velocity=0 time=0@note_on channel=1 note=45 velocity=100 time=0@note_on channel=1 note=50 velocity=100 time=0@note_on channel=1 note=54 velocity=100 time=0@note_on channel=0 note=66 velocity=0 time=0.18292675@note_on channel=0 note=62 velocity=0 time=0@note_on channel=0 note=57 velocity=0 time=0@note_on channel=0 note=57 velocity=100 time=0@note_on channel=0 note=61 velocity=100 time=0@note_on channel=0 note=64 velocity=100 time=0@note_on channel=1 note=54 velocity=0 time=0@note_on channel=1 note=50 velocity=0 time=0@note_on channel=1 note=45 velocity=0 time=0@note_on channel=1 note=45 velocity=100 time=0@note_on channel=1 note=49 velocity=100 time=0@note_on channel=1 note=52 velocity=100 time=0@note_on channel=0 note=64 velocity=0 time=0.731707@note_on channel=0 note=61 velocity=0 time=0@note_on channel=0 note=57 velocity=0 time=0@note_on channel=0 note=69 velocity=100 time=0@note_on channel=0 note=57 velocity=100 time=0@note_on channel=0 note=61 velocity=100 time=0@note_on channel=0 note=64 velocity=100 time=0@note_on channel=1 note=52 velocity=0 time=0@note_on channel=1 note=49 velocity=0 time=0@note_on channel=1 note=45 velocity=0 time=0@note_on channel=1 note=45 velocity=100 time=0@note_on channel=1 note=49 velocity=100 time=0@note_on channel=1 note=52 velocity=100 time=0@note_on channel=0 note=64 velocity=0 time=0.54878025@note_on channel=0 note=69 velocity=0 time=0@note_on channel=0 note=57 velocity=0 time=0@note_on channel=0 note=61 velocity=0 time=0@note_on channel=0 note=57 velocity=100 time=0@note_on channel=0 note=61 velocity=100 time=0@note_on channel=0 note=64 velocity=100 time=0@note_on channel=0 note=69 velocity=100 time=0@note_on channel=1 note=52 velocity=0 time=0@note_on channel=1 note=49 velocity=0 time=0@note_on channel=1 note=45 velocity=0 time=0@note_on channel=1 note=45 velocity=100 time=0@note_on channel=1 note=49 velocity=100 time=0@note_on channel=1 note=52 velocity=100 time=0@note_on channel=0 note=69 velocity=0 time=0.18292675@note_on channel=0 note=57 velocity=0 time=0@note_on channel=0 note=61 velocity=0 time=0@note_on channel=0 note=64 velocity=0 time=0@note_on channel=0 note=62 velocity=100 time=0@note_on channel=1 note=52 velocity=0 time=0@note_on channel=1 note=49 velocity=0 time=0@note_on channel=1 note=45 velocity=0 time=0@note_on channel=1 note=38 velocity=100 time=0@note_on channel=1 note=50 velocity=100 time=0@note_on channel=0 note=62 velocity=0 time=0.731707@note_on channel=0 note=62 velocity=100 time=0@note_on channel=1 note=50 velocity=0 time=0@note_on channel=1 note=38 velocity=0 time=0@note_on channel=1 note=38 velocity=100 time=0@note_on channel=1 note=50 velocity=100 time=0@note_on channel=0 note=62 velocity=0 time=0.731707@note_on channel=0 note=62 velocity=100 time=0@note_on channel=1 note=50 velocity=0 time=0@note_on channel=1 note=38 velocity=0 time=0@note_on channel=1 note=38 velocity=100 time=0@note_on channel=1 note=50 velocity=100 time=0@note_on channel=0 note=62 velocity=0 time=0.731707@note_on channel=0 note=71 velocity=100 time=0@note_on channel=0 note=65 velocity=100 time=0@note_on channel=1 note=50 velocity=0 time=0@note_on channel=1 note=38 velocity=0 time=0@note_on channel=1 note=56 velocity=100 time=0@note_on channel=1 note=50 velocity=100 time=0@note_on channel=0 note=65 velocity=0 time=0.54878025@note_on channel=0 note=71 velocity=0 time=0@note_on channel=0 note=65 velocity=100 time=0@note_on channel=0 note=71 velocity=100 time=0@note_on channel=1 note=50 velocity=0 time=0@note_on channel=1 note=56 velocity=0 time=0@note_on channel=1 note=50 velocity=100 time=0@note_on channel=1 note=56 velocity=100 time=0@note_on channel=0 note=71 velocity=0 time=0.18292675@note_on channel=0 note=65 velocity=0 time=0@note_on channel=0 note=65 velocity=100 time=0@note_on channel=0 note=71 velocity=100 time=0@note_on channel=1 note=56 velocity=0 time=0@note_on channel=1 note=50 velocity=0 time=0@note_on channel=1 note=50 velocity=100 time=0@note_on channel=1 note=56 velocity=100 time=0@note_on channel=1 note=50 velocity=0 time=0.731707@note_on channel=1 note=50 velocity=100 time=0@note_on channel=0 note=71 velocity=0 time=0.731707@note_on channel=0 note=65 velocity=0 time=0@note_on channel=0 note=70 velocity=100 time=0@note_on channel=0 note=65 velocity=100 time=0@note_on channel=1 note=50 velocity=0 time=0@note_on channel=1 note=56 velocity=0 time=0@note_on channel=1 note=58 velocity=100 time=0@note_on channel=1 note=50 velocity=100 time=0@note_on channel=0 note=65 velocity=0 time=0.731707@note_on channel=0 note=70 velocity=0 time=0@note_on channel=0 note=68 velocity=100 time=0@note_on channel=0 note=65 velocity=100 time=0@note_on channel=1 note=50 velocity=0 time=0@note_on channel=1 note=58 velocity=0 time=0@note_on channel=1 note=59 velocity=100 time=0@note_on channel=1 note=50 velocity=100 time=0@note_on channel=0 note=65 velocity=0 time=0.731707@note_on channel=0 note=68 velocity=0 time=0@note_on channel=0 note=67 velocity=100 time=0@note_on channel=0 note=63 velocity=100 time=0@note_on channel=1 note=50 velocity=0 time=0@note_on channel=1 note=59 velocity=0 time=0@note_on channel=1 note=51 velocity=100 time=0@note_on channel=1 note=58 velocity=100 time=0@note_on channel=0 note=63 velocity=0 time=0.54878025@note_on channel=0 note=67 velocity=0 time=0@note_on channel=0 note=65 velocity=100 time=0@note_on channel=0 note=71 velocity=100 time=0@note_on channel=1 note=58 velocity=0 time=0@note_on channel=1 note=51 velocity=0 time=0@note_on channel=1 note=50 velocity=100 time=0@note_on channel=1 note=56 velocity=100 time=0@note_on channel=0 note=71 velocity=0 time=0.18292675@note_on channel=0 note=65 velocity=0 time=0@note_on channel=0 note=65 velocity=100 time=0@note_on channel=0 note=71 velocity=100 time=0@note_on channel=1 note=56 velocity=0 time=0@note_on channel=1 note=50 velocity=0 time=0@note_on channel=1 note=50 velocity=100 time=0@note_on channel=1 note=56 velocity=100 time=0@note_on channel=1 note=50 velocity=0 time=0.731707@note_on channel=1 note=50 velocity=100 time=0@note_on channel=0 note=71 velocity=0 time=0.731707@note_on channel=0 note=65 velocity=0 time=0@note_on channel=0 note=65 velocity=100 time=0@note_on channel=0 note=70 velocity=100 time=0@note_on channel=1 note=50 velocity=0 time=0@note_on channel=1 note=56 velocity=0 time=0@note_on channel=1 note=50 velocity=100 time=0@note_on channel=1 note=58 velocity=100 time=0@note_on channel=0 note=70 velocity=0 time=0.54878025@note_on channel=0 note=65 velocity=0 time=0@note_on channel=0 note=65 velocity=100 time=0@note_on channel=0 note=70 velocity=100 time=0@note_on channel=1 note=58 velocity=0 time=0@note_on channel=1 note=50 velocity=0 time=0@note_on channel=1 note=58 velocity=100 time=0@note_on channel=1 note=50 velocity=100 time=0@note_on channel=0 note=70 velocity=0 time=0.18292675@note_on channel=0 note=65 velocity=0 time=0@note_on channel=0 note=63 velocity=100 time=0@note_on channel=0 note=67 velocity=100 time=0@note_on channel=1 note=50 velocity=0 time=0@note_on channel=1 note=58 velocity=0 time=0@note_on channel=1 note=51 velocity=100 time=0@note_on channel=1 note=58 velocity=100 time=0@note_on channel=0 note=67 velocity=0 time=0.54878025@note_on channel=0 note=63 velocity=0 time=0@note_on channel=0 note=65 velocity=100 time=0@note_on channel=0 note=71 velocity=100 time=0@note_on channel=1 note=58 velocity=0 time=0@note_on channel=1 note=51 velocity=0 time=0@note_on channel=1 note=50 velocity=100 time=0@note_on channel=1 note=56 velocity=100 time=0@note_on channel=0 note=71 velocity=0 time=0.18292675@note_on channel=0 note=65 velocity=0 time=0@note_on channel=0 note=65 velocity=100 time=0@note_on channel=0 note=71 velocity=100 time=0@note_on channel=1 note=56 velocity=0 time=0@note_on channel=1 note=50 velocity=0 time=0@note_on channel=1 note=50 velocity=100 time=0@note_on channel=1 note=56 velocity=100 time=0@note_on channel=0 note=71 velocity=0 time=0.54878025@note_on channel=0 note=65 velocity=0 time=0@note_on channel=0 note=65 velocity=100 time=0@note_on channel=0 note=71 velocity=100 time=0@note_on channel=1 note=56 velocity=0 time=0@note_on channel=1 note=50 velocity=0 time=0@note_on channel=1 note=50 velocity=100 time=0@note_on channel=1 note=56 velocity=100 time=0@note_on channel=0 note=71 velocity=0 time=0.18292675@note_on channel=0 note=65 velocity=0 time=0@note_on channel=0 note=65 velocity=100 time=0@note_on channel=0 note=71 velocity=100 time=0@note_on channel=1 note=56 velocity=0 time=0@note_on channel=1 note=50 velocity=0 time=0@note_on channel=1 note=50 velocity=100 time=0@note_on channel=1 note=56 velocity=100 time=0@note_on channel=0 note=71 velocity=0 time=0.54878025@note_on channel=0 note=65 velocity=0 time=0@note_on channel=0 note=65 velocity=100 time=0@note_on channel=0 note=71 velocity=100 time=0@note_on channel=1 note=56 velocity=0 time=0@note_on channel=1 note=50 velocity=0 time=0@note_on channel=1 note=50 velocity=100 time=0@note_on channel=1 note=56 velocity=100 time=0@note_on channel=0 note=71 velocity=0 time=0.18292675@note_on channel=0 note=65 velocity=0 time=0@note_on channel=0 note=65 velocity=100 time=0@note_on channel=0 note=70 velocity=100 time=0@note_on channel=1 note=56 velocity=0 time=0@note_on channel=1 note=50 velocity=0 time=0@note_on channel=1 note=50 velocity=100 time=0@note_on channel=1 note=58 velocity=100 time=0@note_on channel=0 note=70 velocity=0 time=0.54878025@note_on channel=0 note=65 velocity=0 time=0@note_on channel=0 note=65 velocity=100 time=0@note_on channel=0 note=68 velocity=100 time=0@note_on channel=1 note=58 velocity=0 time=0@note_on channel=1 note=50 velocity=0 time=0@note_on channel=1 note=50 velocity=100 time=0@note_on channel=1 note=59 velocity=100 time=0@note_on channel=0 note=68 velocity=0 time=0.18292675@note_on channel=0 note=65 velocity=0 time=0@note_on channel=0 note=63 velocity=100 time=0@note_on channel=0 note=67 velocity=100 time=0@note_on channel=1 note=59 velocity=0 time=0@note_on channel=1 note=50 velocity=0 time=0@note_on channel=1 note=51 velocity=100 time=0@note_on channel=1 note=58 velocity=100 time=0@note_on channel=0 note=67 velocity=0 time=0.731707@note_on channel=0 note=63 velocity=0 time=0@note_on channel=0 note=64 velocity=100 time=0@note_on channel=1 note=58 velocity=0 time=0@note_on channel=1 note=51 velocity=0 time=0@note_on channel=1 note=52 velocity=100 time=0@note_on channel=0 note=64 velocity=0 time=1.463414@note_on channel=0 note=63 velocity=100 time=0@note_on channel=1 note=52 velocity=0 time=0@note_on channel=1 note=51 velocity=100 time=0@note_on channel=0 note=63 velocity=0 time=0.18292675@note_on channel=0 note=61 velocity=100 time=0@note_on channel=1 note=51 velocity=0 time=0@note_on channel=1 note=49 velocity=100 time=0@note_on channel=0 note=61 velocity=0 time=0.18292675@note_on channel=0 note=59 velocity=100 time=0@note_on channel=1 note=49 velocity=0 time=0@note_on channel=1 note=47 velocity=100 time=0@note_on channel=0 note=59 velocity=0 time=0.18292675@note_on channel=0 note=58 velocity=100 time=0@note_on channel=1 note=47 velocity=0 time=0@note_on channel=1 note=46 velocity=100 time=0@note_on channel=0 note=58 velocity=0 time=0.18292675@note_on channel=0 note=63 velocity=100 time=0@note_on channel=1 note=46 velocity=0 time=0@note_on channel=1 note=32 velocity=100 time=0@note_on channel=1 note=44 velocity=100 time=0@note_on channel=1 note=51 velocity=100 time=0@note_on channel=1 note=56 velocity=100 time=0@note_on channel=1 note=59 velocity=100 time=0@note_on channel=0 note=63 velocity=0 time=0.731707@note_on channel=0 note=63 velocity=100 time=0@note_on channel=1 note=59 velocity=0 time=0@note_on channel=1 note=51 velocity=0 time=0@note_on channel=1 note=56 velocity=0 time=0@note_on channel=1 note=51 velocity=100 time=0@note_on channel=1 note=56 velocity=100 time=0@note_on channel=1 note=59 velocity=100 time=0@note_on channel=0 note=63 velocity=0 time=0.54878025@note_on channel=0 note=63 velocity=100 time=0@note_on channel=1 note=59 velocity=0 time=0@note_on channel=1 note=51 velocity=0 time=0@note_on channel=1 note=56 velocity=0 time=0@note_on channel=1 note=59 velocity=100 time=0@note_on channel=1 note=56 velocity=100 time=0@note_on channel=1 note=51 velocity=100 time=0@note_on channel=0 note=63 velocity=0 time=0.18292675@note_on channel=0 note=63 velocity=100 time=0@note_on channel=1 note=51 velocity=0 time=0@note_on channel=1 note=59 velocity=0 time=0@note_on channel=1 note=56 velocity=0 time=0@note_on channel=1 note=32 velocity=0 time=0@note_on channel=1 note=32 velocity=100 time=0@note_on channel=1 note=59 velocity=100 time=0@note_on channel=1 note=56 velocity=100 time=0@note_on channel=1 note=51 velocity=100 time=0@note_on channel=0 note=63 velocity=0 time=0.54878025@note_on channel=0 note=63 velocity=100 time=0@note_on channel=1 note=51 velocity=0 time=0@note_on channel=1 note=59 velocity=0 time=0@note_on channel=1 note=56 velocity=0 time=0@note_on channel=1 note=59 velocity=100 time=0@note_on channel=1 note=56 velocity=100 time=0@note_on channel=1 note=51 velocity=100 time=0@note_on channel=0 note=63 velocity=0 time=0.18292675@note_on channel=0 note=63 velocity=100 time=0@note_on channel=1 note=51 velocity=0 time=0@note_on channel=1 note=59 velocity=0 time=0@note_on channel=1 note=56 velocity=0 time=0@note_on channel=1 note=59 velocity=100 time=0@note_on channel=1 note=56 velocity=100 time=0@note_on channel=1 note=51 velocity=100 time=0@note_on channel=0 note=63 velocity=0 time=0.54878025@note_on channel=0 note=63 velocity=100 time=0@note_on channel=1 note=51 velocity=0 time=0@note_on channel=1 note=59 velocity=0 time=0@note_on channel=1 note=56 velocity=0 time=0@note_on channel=1 note=59 velocity=100 time=0@note_on channel=1 note=56 velocity=100 time=0@note_on channel=1 note=51 velocity=100 time=0@note_on channel=0 note=63 velocity=0 time=0.18292675@note_on channel=0 note=63 velocity=100 time=0@note_on channel=1 note=51 velocity=0 time=0@note_on channel=1 note=59 velocity=0 time=0@note_on channel=1 note=44 velocity=0 time=0@note_on channel=1 note=32 velocity=0 time=0@note_on channel=1 note=56 velocity=0 time=0@note_on channel=1 note=61 velocity=100 time=0@note_on channel=1 note=58 velocity=100 time=0@note_on channel=1 note=51 velocity=100 time=0@note_on channel=1 note=39 velocity=100 time=0@note_on channel=1 note=39 velocity=0 time=0.54878025@note_on channel=1 note=39 velocity=100 time=0@note_on channel=1 note=39 velocity=0 time=0.18292675@note_on channel=1 note=43 velocity=100 time=0@note_on channel=1 note=43 velocity=0 time=0.54878025@note_on channel=1 note=46 velocity=100 time=0@note_on channel=1 note=46 velocity=0 time=0.18292675@note_on channel=1 note=51 velocity=100 time=0@note_on channel=0 note=63 velocity=0 time=0.731707@note_on channel=0 note=63 velocity=100 time=0@note_on channel=1 note=51 velocity=0 time=0@note_on channel=1 note=61 velocity=0 time=0@note_on channel=1 note=58 velocity=0 time=0@note_on channel=1 note=51 velocity=0 time=0@note_on channel=1 note=49 velocity=100 time=0@note_on channel=1 note=51 velocity=100 time=0@note_on channel=1 note=55 velocity=100 time=0@note_on channel=1 note=58 velocity=100 time=0@note_on channel=0 note=63 velocity=0 time=0.54878025@note_on channel=0 note=63 velocity=100 time=0@note_on channel=1 note=58 velocity=0 time=0@note_on channel=1 note=49 velocity=0 time=0@note_on channel=1 note=51 velocity=0 time=0@note_on channel=1 note=55 velocity=0 time=0@note_on channel=1 note=58 velocity=100 time=0@note_on channel=1 note=55 velocity=100 time=0@note_on channel=1 note=51 velocity=100 time=0@note_on channel=1 note=49 velocity=100 time=0@note_on channel=0 note=63 velocity=0 time=0.18292675@note_on channel=0 note=63 velocity=100 time=0@note_on channel=1 note=49 velocity=0 time=0@note_on channel=1 note=58 velocity=0 time=0@note_on channel=1 note=55 velocity=0 time=0@note_on channel=1 note=51 velocity=0 time=0@note_on channel=1 note=47 velocity=100 time=0@note_on channel=1 note=51 velocity=100 time=0@note_on channel=1 note=56 velocity=100 time=0@note_on channel=1 note=59 velocity=100 time=0@note_on channel=0 note=63 velocity=0 time=0.731707@note_on channel=0 note=63 velocity=100 time=0@note_on channel=1 note=59 velocity=0 time=0@note_on channel=1 note=47 velocity=0 time=0@note_on channel=1 note=51 velocity=0 time=0@note_on channel=1 note=56 velocity=0 time=0@note_on channel=1 note=51 velocity=100 time=0@note_on channel=1 note=56 velocity=100 time=0@note_on channel=1 note=59 velocity=100 time=0@note_on channel=1 note=46 velocity=100 time=0.3658535@note_on channel=0 note=63 velocity=0 time=0.18292675@note_on channel=0 note=63 velocity=100 time=0@note_on channel=1 note=46 velocity=0 time=0@note_on channel=1 note=51 velocity=0 time=0@note_on channel=1 note=56 velocity=0 time=0@note_on channel=1 note=59 velocity=0 time=0@note_on channel=1 note=44 velocity=100 time=0@note_on channel=1 note=51 velocity=100 time=0@note_on channel=1 note=56 velocity=100 time=0@note_on channel=1 note=59 velocity=100 time=0@note_on channel=0 note=63 velocity=0 time=0.18292675@note_on channel=0 note=63 velocity=100 time=0@note_on channel=1 note=59 velocity=0 time=0@note_on channel=1 note=44 velocity=0 time=0@note_on channel=1 note=51 velocity=0 time=0@note_on channel=1 note=56 velocity=0 time=0@note_on channel=1 note=43 velocity=100 time=0@note_on channel=1 note=51 velocity=100 time=0@note_on channel=1 note=58 velocity=100 time=0@note_on channel=1 note=61 velocity=100 time=0@note_on channel=0 note=63 velocity=0 time=0.731707@note_on channel=0 note=63 velocity=100 time=0@note_on channel=1 note=61 velocity=0 time=0@note_on channel=1 note=43 velocity=0 time=0@note_on channel=1 note=51 velocity=0 time=0@note_on channel=1 note=58 velocity=0 time=0@note_on channel=1 note=44 velocity=100 time=0@note_on channel=1 note=51 velocity=100 time=0@note_on channel=1 note=56 velocity=100 time=0@note_on channel=1 note=59 velocity=100 time=0@note_on channel=0 note=63 velocity=0 time=0.54878025@note_on channel=0 note=63 velocity=100 time=0@note_on channel=1 note=59 velocity=0 time=0@note_on channel=1 note=44 velocity=0 time=0@note_on channel=1 note=51 velocity=0 time=0@note_on channel=1 note=56 velocity=0 time=0@note_on channel=1 note=44 velocity=100 time=0@note_on channel=1 note=51 velocity=100 time=0@note_on channel=1 note=56 velocity=100 time=0@note_on channel=1 note=59 velocity=100 time=0@note_on channel=0 note=63 velocity=0 time=0.18292675@note_on channel=0 note=63 velocity=100 time=0@note_on channel=1 note=59 velocity=0 time=0@note_on channel=1 note=44 velocity=0 time=0@note_on channel=1 note=51 velocity=0 time=0@note_on channel=1 note=56 velocity=0 time=0@note_on channel=1 note=39 velocity=100 time=0@note_on channel=1 note=51 velocity=100 time=0@note_on channel=1 note=55 velocity=100 time=0@note_on channel=1 note=58 velocity=100 time=0@note_on channel=0 note=63 velocity=0 time=0.731707@note_on channel=0 note=63 velocity=100 time=0@note_on channel=1 note=58 velocity=0 time=0@note_on channel=1 note=39 velocity=0 time=0@note_on channel=1 note=51 velocity=0 time=0@note_on channel=1 note=55 velocity=0 time=0@note_on channel=1 note=39 velocity=100 time=0@note_on channel=1 note=51 velocity=100 time=0@note_on channel=1 note=55 velocity=100 time=0@note_on channel=1 note=58 velocity=100 time=0@note_on channel=0 note=63 velocity=0 time=0.731707@note_on channel=0 note=63 velocity=100 time=0@note_on channel=1 note=58 velocity=0 time=0@note_on channel=1 note=39 velocity=0 time=0@note_on channel=1 note=51 velocity=0 time=0@note_on channel=1 note=55 velocity=0 time=0@note_on channel=1 note=39 velocity=100 time=0@note_on channel=1 note=51 velocity=100 time=0@note_on channel=1 note=55 velocity=100 time=0@note_on channel=1 note=58 velocity=100 time=0@note_on channel=0 note=63 velocity=0 time=0.731707@note_on channel=0 note=63 velocity=100 time=0@note_on channel=1 note=58 velocity=0 time=0@note_on channel=1 note=39 velocity=0 time=0@note_on channel=1 note=51 velocity=0 time=0@note_on channel=1 note=55 velocity=0 time=0@note_on channel=1 note=51 velocity=100 time=0@note_on channel=0 note=63 velocity=0 time=0.54878025@note_on channel=0 note=63 velocity=100 time=0@note_on channel=1 note=51 velocity=0 time=0@note_on channel=1 note=51 velocity=100 time=0@note_on channel=0 note=63 velocity=0 time=0.18292675@note_on channel=0 note=63 velocity=100 time=0@note_on channel=1 note=51 velocity=0 time=0@note_on channel=1 note=32 velocity=100 time=0@note_on channel=1 note=44 velocity=100 time=0@note_on channel=1 note=51 velocity=100 time=0@note_on channel=1 note=56 velocity=100 time=0@note_on channel=1 note=60 velocity=100 time=0@note_on channel=0 note=63 velocity=0 time=0.731707@note_on channel=0 note=63 velocity=100 time=0@note_on channel=1 note=60 velocity=0 time=0@note_on channel=1 note=51 velocity=0 time=0@note_on channel=1 note=56 velocity=0 time=0@note_on channel=1 note=51 velocity=100 time=0@note_on channel=1 note=56 velocity=100 time=0@note_on channel=1 note=60 velocity=100 time=0@note_on channel=0 note=63 velocity=0 time=0.54878025@note_on channel=0 note=63 velocity=100 time=0@note_on channel=1 note=60 velocity=0 time=0@note_on channel=1 note=51 velocity=0 time=0@note_on channel=1 note=56 velocity=0 time=0@note_on channel=1 note=51 velocity=100 time=0@note_on channel=1 note=56 velocity=100 time=0@note_on channel=1 note=60 velocity=100 time=0@note_on channel=0 note=63 velocity=0 time=0.18292675@note_on channel=0 note=63 velocity=100 time=0@note_on channel=1 note=60 velocity=0 time=0@note_on channel=1 note=51 velocity=0 time=0@note_on channel=1 note=56 velocity=0 time=0@note_on channel=1 note=32 velocity=0 time=0@note_on channel=1 note=32 velocity=100 time=0@note_on channel=1 note=51 velocity=100 time=0@note_on channel=1 note=56 velocity=100 time=0@note_on channel=1 note=60 velocity=100 time=0@note_on channel=0 note=63 velocity=0 time=0.54878025@note_on channel=0 note=63 velocity=100 time=0@note_on channel=1 note=60 velocity=0 time=0@note_on channel=1 note=51 velocity=0 time=0@note_on channel=1 note=56 velocity=0 time=0@note_on channel=1 note=51 velocity=100 time=0@note_on channel=1 note=56 velocity=100 time=0@note_on channel=1 note=60 velocity=100 time=0@note_on channel=0 note=63 velocity=0 time=0.18292675@note_on channel=0 note=61 velocity=100 time=0@note_on channel=1 note=60 velocity=0 time=0@note_on channel=1 note=51 velocity=0 time=0@note_on channel=1 note=56 velocity=0 time=0@note_on channel=1 note=49 velocity=100 time=0@note_on channel=1 note=56 velocity=100 time=0@note_on channel=1 note=58 velocity=100 time=0@note_on channel=0 note=61 velocity=0 time=0.54878025@note_on channel=0 note=63 velocity=100 time=0@note_on channel=1 note=58 velocity=0 time=0@note_on channel=1 note=49 velocity=0 time=0@note_on channel=1 note=56 velocity=0 time=0@note_on channel=1 note=51 velocity=100 time=0@note_on channel=1 note=56 velocity=100 time=0@note_on channel=1 note=60 velocity=100 time=0@note_on channel=0 note=63 velocity=0 time=0.18292675@note_on channel=0 note=64 velocity=100 time=0@note_on channel=1 note=60 velocity=0 time=0@note_on channel=1 note=51 velocity=0 time=0@note_on channel=1 note=44 velocity=0 time=0@note_on channel=1 note=32 velocity=0 time=0@note_on channel=1 note=56 velocity=0 time=0@note_on channel=1 note=37 velocity=100 time=0@note_on channel=1 note=52 velocity=100 time=0@note_on channel=1 note=56 velocity=100 time=0@note_on channel=1 note=61 velocity=100 time=0@note_on channel=1 note=37 velocity=0 time=0.54878025@note_on channel=1 note=37 velocity=100 time=0@note_on channel=1 note=37 velocity=0 time=0.18292675@note_on channel=1 note=40 velocity=100 time=0@note_on channel=1 note=40 velocity=0 time=0.54878025@note_on channel=1 note=44 velocity=100 time=0@note_on channel=1 note=44 velocity=0 time=0.18292675@note_on channel=1 note=49 velocity=100 time=0@note_on channel=0 note=64 velocity=0 time=0.731707@note_on channel=0 note=64 velocity=100 time=0@note_on channel=1 note=49 velocity=0 time=0@note_on channel=1 note=52 velocity=0 time=0@note_on channel=1 note=56 velocity=0 time=0@note_on channel=1 note=61 velocity=0 time=0@note_on channel=1 note=52 velocity=100 time=0@note_on channel=1 note=56 velocity=100 time=0@note_on channel=1 note=61 velocity=100 time=0@note_on channel=0 note=64 velocity=0 time=0.731707@note_on channel=0 note=61 velocity=100 time=0@note_on channel=0 note=64 velocity=100 time=0@note_on channel=0 note=69 velocity=100 time=0@note_on channel=0 note=73 velocity=100 time=0@note_on channel=1 note=61 velocity=0 time=0@note_on channel=1 note=56 velocity=0 time=0@note_on channel=1 note=52 velocity=0 time=0@note_on channel=1 note=33 velocity=100 time=0.54878025@note_on channel=1 note=45 velocity=100 time=0@note_on channel=1 note=45 velocity=0 time=0.18292675@note_on channel=1 note=33 velocity=0 time=0@note_on channel=1 note=37 velocity=100 time=0@note_on channel=1 note=49 velocity=100 time=0@note_on channel=1 note=49 velocity=0 time=0.54878025@note_on channel=1 note=37 velocity=0 time=0@note_on channel=1 note=40 velocity=100 time=0@note_on channel=1 note=52 velocity=100 time=0@note_on channel=1 note=52 velocity=0 time=0.18292675@note_on channel=1 note=40 velocity=0 time=0@note_on channel=1 note=45 velocity=100 time=0@note_on channel=1 note=57 velocity=100 time=0@note_on channel=0 note=73 velocity=0 time=0.731707@note_on channel=0 note=61 velocity=0 time=0@note_on channel=0 note=64 velocity=0 time=0@note_on channel=0 note=69 velocity=0 time=0@note_on channel=0 note=61 velocity=100 time=0@note_on channel=0 note=64 velocity=100 time=0@note_on channel=0 note=69 velocity=100 time=0@note_on channel=0 note=73 velocity=100 time=0@note_on channel=1 note=57 velocity=0 time=0@note_on channel=1 note=45 velocity=0 time=0@note_on channel=0 note=73 velocity=0 time=0.731707@note_on channel=0 note=61 velocity=0 time=0@note_on channel=0 note=64 velocity=0 time=0@note_on channel=0 note=69 velocity=0 time=0@note_on channel=0 note=70 velocity=100 time=0@note_on channel=0 note=73 velocity=100 time=0@note_on channel=0 note=75 velocity=100 time=0@note_on channel=0 note=82 velocity=100 time=0@note_on channel=1 note=55 velocity=100 time=0.54878025@note_on channel=1 note=43 velocity=100 time=0@note_on channel=1 note=43 velocity=0 time=0.18292675@note_on channel=1 note=55 velocity=0 time=0@note_on channel=1 note=58 velocity=100 time=0@note_on channel=1 note=46 velocity=100 time=0@note_on channel=1 note=46 velocity=0 time=0.54878025@note_on channel=1 note=58 velocity=0 time=0@note_on channel=1 note=63 velocity=100 time=0@note_on channel=1 note=51 velocity=100 time=0@note_on channel=1 note=51 velocity=0 time=0.18292675@note_on channel=1 note=63 velocity=0 time=0@note_on channel=1 note=67 velocity=100 time=0@note_on channel=1 note=55 velocity=100 time=0@note_on channel=0 note=82 velocity=0 time=0.731707@note_on channel=0 note=70 velocity=0 time=0@note_on channel=0 note=73 velocity=0 time=0@note_on channel=0 note=75 velocity=0 time=0@note_on channel=0 note=82 velocity=100 time=0@note_on channel=0 note=75 velocity=100 time=0@note_on channel=0 note=73 velocity=100 time=0@note_on channel=0 note=70 velocity=100 time=0@note_on channel=1 note=55 velocity=0 time=0@note_on channel=1 note=67 velocity=0 time=0@note_on channel=1 note=43 velocity=100 time=0@note_on channel=1 note=55 velocity=100 time=0@note_on channel=0 note=70 velocity=0 time=0.731707@note_on channel=0 note=82 velocity=0 time=0@note_on channel=0 note=75 velocity=0 time=0@note_on channel=0 note=73 velocity=0 time=0@note_on channel=0 note=71 velocity=100 time=0@note_on channel=0 note=75 velocity=100 time=0@note_on channel=0 note=83 velocity=100 time=0@note_on channel=1 note=55 velocity=0 time=0@note_on channel=1 note=43 velocity=0 time=0@note_on channel=1 note=44 velocity=100 time=0@note_on channel=1 note=56 velocity=100 time=0@note_on channel=0 note=83 velocity=0 time=0.731707@note_on channel=0 note=75 velocity=0 time=0@note_on channel=0 note=71 velocity=0 time=0@note_on channel=1 note=56 velocity=0 time=0@note_on channel=1 note=44 velocity=0 time=0@note_on channel=0 note=70 velocity=100 time=0.731707@note_on channel=0 note=73 velocity=100 time=0@note_on channel=0 note=76 velocity=100 time=0@note_on channel=0 note=82 velocity=100 time=0@note_on channel=1 note=37 velocity=100 time=0@note_on channel=1 note=49 velocity=100 time=0@note_on channel=0 note=82 velocity=0 time=0.731707@note_on channel=0 note=70 velocity=0 time=0@note_on channel=0 note=73 velocity=0 time=0@note_on channel=0 note=76 velocity=0 time=0@note_on channel=0 note=67 velocity=100 time=0@note_on channel=0 note=70 velocity=100 time=0@note_on channel=0 note=73 velocity=100 time=0@note_on channel=0 note=79 velocity=100 time=0@note_on channel=1 note=49 velocity=0 time=0@note_on channel=1 note=37 velocity=0 time=0@note_on channel=1 note=39 velocity=100 time=0@note_on channel=1 note=51 velocity=100 time=0@note_on channel=0 note=79 velocity=0 time=0.731707@note_on channel=0 note=67 velocity=0 time=0@note_on channel=0 note=70 velocity=0 time=0@note_on channel=0 note=73 velocity=0 time=0@note_on channel=0 note=68 velocity=100 time=0@note_on channel=0 note=71 velocity=100 time=0@note_on channel=0 note=80 velocity=100 time=0@note_on channel=1 note=51 velocity=0 time=0@note_on channel=1 note=39 velocity=0 time=0@note_on channel=1 note=32 velocity=100 time=0@note_on channel=1 note=44 velocity=100 time=0@note_on channel=0 note=80 velocity=0 time=0.731707@note_on channel=0 note=71 velocity=0 time=0@note_on channel=0 note=68 velocity=0 time=0@note_on channel=1 note=44 velocity=0 time=0@note_on channel=1 note=32 velocity=0 time=0@note_on channel=1 note=32 velocity=100 time=0@note_on channel=1 note=44 velocity=100 time=0@note_on channel=1 note=51 velocity=100 time=0@note_on channel=1 note=47 velocity=100 time=0@note_on channel=1 note=56 velocity=100 time=0@note_on channel=1 note=56 velocity=0 time=0.731707@note_on channel=1 note=51 velocity=0 time=0@note_on channel=1 note=32 velocity=0 time=0@note_on channel=1 note=44 velocity=0 time=0@note_on channel=1 note=47 velocity=0 time=0@note_on channel=1 note=32 velocity=100 time=0@note_on channel=1 note=44 velocity=100 time=0@note_on channel=1 note=44 velocity=0 time=0.731707@note_on channel=1 note=32 velocity=0 time=0@<meta message key_signature key='Ab' time=0.731707>@control_change channel=1 control=64 value=127 time=0@note_on channel=1 note=32 velocity=100 time=0@note_on channel=1 note=60 velocity=100 time=0@note_on channel=1 note=60 velocity=0 time=0.091463375@note_on channel=1 note=32 velocity=0 time=0@note_on channel=1 note=51 velocity=100 time=0@note_on channel=1 note=44 velocity=100 time=0@note_on channel=1 note=44 velocity=0 time=0.091463375@note_on channel=1 note=51 velocity=0 time=0@note_on channel=1 note=60 velocity=100 time=0@note_on channel=1 note=32 velocity=100 time=0@note_on channel=1 note=32 velocity=0 time=0.091463375@note_on channel=1 note=60 velocity=0 time=0@note_on channel=1 note=44 velocity=100 time=0@note_on channel=1 note=51 velocity=100 time=0@note_on channel=1 note=51 velocity=0 time=0.091463375@note_on channel=1 note=44 velocity=0 time=0@note_on channel=1 note=60 velocity=100 time=0@note_on channel=1 note=32 velocity=100 time=0@note_on channel=1 note=32 velocity=0 time=0.091463375@note_on channel=1 note=60 velocity=0 time=0@note_on channel=1 note=44 velocity=100 time=0@note_on channel=1 note=51 velocity=100 time=0@note_on channel=1 note=51 velocity=0 time=0.091463375@note_on channel=1 note=44 velocity=0 time=0@note_on channel=1 note=60 velocity=100 time=0@note_on channel=1 note=32 velocity=100 time=0@note_on channel=1 note=32 velocity=0 time=0.091463375@note_on channel=1 note=60 velocity=0 time=0@note_on channel=1 note=44 velocity=100 time=0@note_on channel=1 note=51 velocity=100 time=0@note_on channel=1 note=51 velocity=0 time=0.091463375@note_on channel=1 note=44 velocity=0 time=0@note_on channel=1 note=60 velocity=100 time=0@note_on channel=1 note=32 velocity=100 time=0@note_on channel=1 note=32 velocity=0 time=0.091463375@note_on channel=1 note=60 velocity=0 time=0@note_on channel=1 note=44 velocity=100 time=0@note_on channel=1 note=51 velocity=100 time=0@note_on channel=1 note=51 velocity=0 time=0.091463375@note_on channel=1 note=44 velocity=0 time=0@note_on channel=1 note=60 velocity=100 time=0@note_on channel=1 note=32 velocity=100 time=0@note_on channel=1 note=32 velocity=0 time=0.091463375@note_on channel=1 note=60 velocity=0 time=0@note_on channel=1 note=44 velocity=100 time=0@note_on channel=1 note=51 velocity=100 time=0@note_on channel=1 note=51 velocity=0 time=0.091463375@note_on channel=1 note=44 velocity=0 time=0@note_on channel=1 note=60 velocity=100 time=0@note_on channel=1 note=32 velocity=100 time=0@note_on channel=1 note=32 velocity=0 time=0.091463375@note_on channel=1 note=60 velocity=0 time=0@note_on channel=1 note=44 velocity=100 time=0@note_on channel=1 note=51 velocity=100 time=0@note_on channel=1 note=51 velocity=0 time=0.091463375@note_on channel=1 note=44 velocity=0 time=0@note_on channel=1 note=60 velocity=100 time=0@note_on channel=1 note=32 velocity=100 time=0@note_on channel=1 note=32 velocity=0 time=0.091463375@note_on channel=1 note=60 velocity=0 time=0@note_on channel=1 note=44 velocity=100 time=0@note_on channel=1 note=51 velocity=100 time=0@note_on channel=1 note=51 velocity=0 time=0.091463375@note_on channel=1 note=44 velocity=0 time=0@note_on channel=1 note=48 velocity=100 time=0@note_on channel=1 note=56 velocity=100 time=0@note_on channel=1 note=32 velocity=100 time=0@note_on channel=1 note=32 velocity=0 time=0.3658535@note_on channel=1 note=56 velocity=0 time=0@note_on channel=1 note=48 velocity=0 time=0@note_on channel=0 note=72 velocity=100 time=0.18292675@note_on channel=0 note=68 velocity=100 time=0@control_change channel=1 control=64 value=0 time=0@note_on channel=1 note=60 velocity=100 time=0@note_on channel=1 note=56 velocity=100 time=0@note_on channel=0 note=68 velocity=0 time=0.18292675@note_on channel=0 note=72 velocity=0 time=0@note_on channel=0 note=72 velocity=100 time=0@note_on channel=0 note=75 velocity=100 time=0@note_on channel=1 note=56 velocity=0 time=0@note_on channel=1 note=60 velocity=0 time=0@note_on channel=1 note=60 velocity=100 time=0@note_on channel=1 note=63 velocity=100 time=0@note_on channel=0 note=75 velocity=0 time=0.3658535@note_on channel=0 note=72 velocity=0 time=0@note_on channel=1 note=63 velocity=0 time=0@note_on channel=1 note=60 velocity=0 time=0@control_change channel=1 control=64 value=127 time=0.3658535@note_on channel=1 note=32 velocity=100 time=0@note_on channel=1 note=60 velocity=100 time=0@note_on channel=1 note=60 velocity=0 time=0.091463375@note_on channel=1 note=32 velocity=0 time=0@note_on channel=1 note=51 velocity=100 time=0@note_on channel=1 note=44 velocity=100 time=0@note_on channel=1 note=44 velocity=0 time=0.091463375@note_on channel=1 note=51 velocity=0 time=0@note_on channel=1 note=60 velocity=100 time=0@note_on channel=1 note=32 velocity=100 time=0@note_on channel=1 note=32 velocity=0 time=0.091463375@note_on channel=1 note=60 velocity=0 time=0@note_on channel=1 note=44 velocity=100 time=0@note_on channel=1 note=51 velocity=100 time=0@note_on channel=1 note=51 velocity=0 time=0.091463375@note_on channel=1 note=44 velocity=0 time=0@note_on channel=1 note=60 velocity=100 time=0@note_on channel=1 note=32 velocity=100 time=0@note_on channel=1 note=32 velocity=0 time=0.091463375@note_on channel=1 note=60 velocity=0 time=0@note_on channel=1 note=44 velocity=100 time=0@note_on channel=1 note=51 velocity=100 time=0@note_on channel=1 note=51 velocity=0 time=0.091463375@note_on channel=1 note=44 velocity=0 time=0@note_on channel=1 note=60 velocity=100 time=0@note_on channel=1 note=32 velocity=100 time=0@note_on channel=1 note=32 velocity=0 time=0.091463375@note_on channel=1 note=60 velocity=0 time=0@note_on channel=1 note=44 velocity=100 time=0@note_on channel=1 note=51 velocity=100 time=0@note_on channel=1 note=51 velocity=0 time=0.091463375@note_on channel=1 note=44 velocity=0 time=0@note_on channel=1 note=60 velocity=100 time=0@note_on channel=1 note=32 velocity=100 time=0@note_on channel=1 note=32 velocity=0 time=0.091463375@note_on channel=1 note=60 velocity=0 time=0@note_on channel=1 note=44 velocity=100 time=0@note_on channel=1 note=51 velocity=100 time=0@note_on channel=1 note=51 velocity=0 time=0.091463375@note_on channel=1 note=44 velocity=0 time=0@note_on channel=1 note=60 velocity=100 time=0@note_on channel=1 note=32 velocity=100 time=0@note_on channel=1 note=32 velocity=0 time=0.091463375@note_on channel=1 note=60 velocity=0 time=0@note_on channel=1 note=44 velocity=100 time=0@note_on channel=1 note=51 velocity=100 time=0@note_on channel=1 note=51 velocity=0 time=0.091463375@note_on channel=1 note=44 velocity=0 time=0@note_on channel=1 note=60 velocity=100 time=0@note_on channel=1 note=32 velocity=100 time=0@note_on channel=1 note=32 velocity=0 time=0.091463375@note_on channel=1 note=60 velocity=0 time=0@note_on channel=1 note=44 velocity=100 time=0@note_on channel=1 note=51 velocity=100 time=0@note_on channel=1 note=51 velocity=0 time=0.091463375@note_on channel=1 note=44 velocity=0 time=0@note_on channel=1 note=60 velocity=100 time=0@note_on channel=1 note=32 velocity=100 time=0@note_on channel=1 note=32 velocity=0 time=0.091463375@note_on channel=1 note=60 velocity=0 time=0@note_on channel=1 note=44 velocity=100 time=0@note_on channel=1 note=51 velocity=100 time=0@note_on channel=1 note=51 velocity=0 time=0.091463375@note_on channel=1 note=44 velocity=0 time=0@note_on channel=1 note=48 velocity=100 time=0@note_on channel=1 note=56 velocity=100 time=0@note_on channel=1 note=32 velocity=100 time=0@note_on channel=1 note=32 velocity=0 time=0.3658535@note_on channel=1 note=56 velocity=0 time=0@note_on channel=1 note=48 velocity=0 time=0@note_on channel=0 note=84 velocity=100 time=0.18292675@note_on channel=0 note=80 velocity=100 time=0@control_change channel=1 control=64 value=0 time=0@note_on channel=1 note=72 velocity=100 time=0@note_on channel=1 note=68 velocity=100 time=0@note_on channel=0 note=80 velocity=0 time=0.18292675@note_on channel=0 note=84 velocity=0 time=0@note_on channel=0 note=84 velocity=100 time=0@note_on channel=0 note=87 velocity=100 time=0@note_on channel=1 note=68 velocity=0 time=0@note_on channel=1 note=72 velocity=0 time=0@note_on channel=1 note=72 velocity=100 time=0@note_on channel=1 note=75 velocity=100 time=0@note_on channel=0 note=87 velocity=0 time=0.3658535@note_on channel=0 note=84 velocity=0 time=0@note_on channel=1 note=75 velocity=0 time=0@note_on channel=1 note=72 velocity=0 time=0@note_on channel=0 note=58 velocity=100 time=0.3658535@note_on channel=1 note=46 velocity=100 time=0@note_on channel=0 note=58 velocity=0 time=0.3658535@note_on channel=1 note=46 velocity=0 time=0@note_on channel=0 note=79 velocity=100 time=0.18292675@note_on channel=0 note=75 velocity=100 time=0@note_on channel=1 note=67 velocity=100 time=0@note_on channel=1 note=63 velocity=100 time=0@note_on channel=0 note=75 velocity=0 time=0.18292675@note_on channel=0 note=79 velocity=0 time=0@note_on channel=0 note=82 velocity=100 time=0@note_on channel=1 note=63 velocity=0 time=0@note_on channel=1 note=67 velocity=0 time=0@note_on channel=1 note=70 velocity=100 time=0@note_on channel=0 note=82 velocity=0 time=0.3658535@note_on channel=1 note=70 velocity=0 time=0@note_on channel=0 note=58 velocity=100 time=0.3658535@note_on channel=1 note=46 velocity=100 time=0@note_on channel=0 note=58 velocity=0 time=0.3658535@note_on channel=1 note=46 velocity=0 time=0@note_on channel=0 note=77 velocity=100 time=0.18292675@note_on channel=0 note=74 velocity=100 time=0@note_on channel=1 note=65 velocity=100 time=0@note_on channel=1 note=62 velocity=100 time=0@note_on channel=0 note=74 velocity=0 time=0.18292675@note_on channel=0 note=77 velocity=0 time=0@note_on channel=0 note=82 velocity=100 time=0@note_on channel=1 note=62 velocity=0 time=0@note_on channel=1 note=65 velocity=0 time=0@note_on channel=1 note=70 velocity=100 time=0@note_on channel=0 note=82 velocity=0 time=0.3658535@note_on channel=1 note=70 velocity=0 time=0@note_on channel=0 note=70 velocity=100 time=0.18292675@note_on channel=1 note=58 velocity=100 time=0@note_on channel=1 note=46 velocity=100 time=0@note_on channel=0 note=70 velocity=0 time=0.18292675@note_on channel=0 note=75 velocity=100 time=0@note_on channel=1 note=46 velocity=0 time=0@note_on channel=1 note=58 velocity=0 time=0@note_on channel=1 note=51 velocity=100 time=0@note_on channel=1 note=63 velocity=100 time=0@note_on channel=0 note=75 velocity=0 time=0.3658535@note_on channel=1 note=63 velocity=0 time=0@note_on channel=1 note=51 velocity=0 time=0@note_on channel=0 note=58 velocity=100 time=0.18292675@note_on channel=0 note=58 velocity=0 time=0.18292675@note_on channel=0 note=63 velocity=100 time=0@note_on channel=1 note=43 velocity=100 time=0@note_on channel=1 note=39 velocity=100 time=0@note_on channel=1 note=46 velocity=100 time=0@note_on channel=1 note=51 velocity=100 time=0@note_on channel=0 note=63 velocity=0 time=0.3658535@note_on channel=1 note=51 velocity=0 time=0@note_on channel=1 note=43 velocity=0 time=0@note_on channel=1 note=39 velocity=0 time=0@note_on channel=1 note=46 velocity=0 time=0@note_on channel=1 note=46 velocity=100 time=0.18292675@note_on channel=1 note=46 velocity=0 time=0.18292675@note_on channel=1 note=43 velocity=100 time=0@note_on channel=1 note=39 velocity=100 time=0@note_on channel=1 note=51 velocity=100 time=0@note_on channel=1 note=51 velocity=0 time=0.3658535@note_on channel=1 note=39 velocity=0 time=0@note_on channel=1 note=43 velocity=0 time=0@control_change channel=1 control=64 value=127 time=1.0975605@note_on channel=1 note=60 velocity=100 time=0@note_on channel=1 note=32 velocity=100 time=0@note_on channel=1 note=32 velocity=0 time=0.091463375@note_on channel=1 note=60 velocity=0 time=0@note_on channel=1 note=44 velocity=100 time=0@note_on channel=1 note=51 velocity=100 time=0@note_on channel=1 note=51 velocity=0 time=0.091463375@note_on channel=1 note=44 velocity=0 time=0@note_on channel=1 note=60 velocity=100 time=0@note_on channel=1 note=32 velocity=100 time=0@note_on channel=1 note=32 velocity=0 time=0.091463375@note_on channel=1 note=60 velocity=0 time=0@note_on channel=1 note=44 velocity=100 time=0@note_on channel=1 note=51 velocity=100 time=0@note_on channel=1 note=51 velocity=0 time=0.091463375@note_on channel=1 note=44 velocity=0 time=0@note_on channel=1 note=60 velocity=100 time=0@note_on channel=1 note=32 velocity=100 time=0@note_on channel=1 note=32 velocity=0 time=0.091463375@note_on channel=1 note=60 velocity=0 time=0@note_on channel=1 note=44 velocity=100 time=0@note_on channel=1 note=51 velocity=100 time=0@note_on channel=1 note=51 velocity=0 time=0.091463375@note_on channel=1 note=44 velocity=0 time=0@note_on channel=1 note=60 velocity=100 time=0@note_on channel=1 note=32 velocity=100 time=0@note_on channel=1 note=32 velocity=0 time=0.091463375@note_on channel=1 note=60 velocity=0 time=0@note_on channel=1 note=44 velocity=100 time=0@note_on channel=1 note=51 velocity=100 time=0@note_on channel=1 note=51 velocity=0 time=0.091463375@note_on channel=1 note=44 velocity=0 time=0@note_on channel=1 note=60 velocity=100 time=0@note_on channel=1 note=32 velocity=100 time=0@note_on channel=1 note=32 velocity=0 time=0.091463375@note_on channel=1 note=60 velocity=0 time=0@note_on channel=1 note=44 velocity=100 time=0@note_on channel=1 note=51 velocity=100 time=0@note_on channel=1 note=51 velocity=0 time=0.091463375@note_on channel=1 note=44 velocity=0 time=0@note_on channel=1 note=60 velocity=100 time=0@note_on channel=1 note=32 velocity=100 time=0@note_on channel=1 note=32 velocity=0 time=0.091463375@note_on channel=1 note=60 velocity=0 time=0@note_on channel=1 note=44 velocity=100 time=0@note_on channel=1 note=51 velocity=100 time=0@note_on channel=1 note=51 velocity=0 time=0.091463375@note_on channel=1 note=44 velocity=0 time=0@note_on channel=1 note=60 velocity=100 time=0@note_on channel=1 note=32 velocity=100 time=0@note_on channel=1 note=32 velocity=0 time=0.091463375@note_on channel=1 note=60 velocity=0 time=0@note_on channel=1 note=44 velocity=100 time=0@note_on channel=1 note=51 velocity=100 time=0@note_on channel=1 note=51 velocity=0 time=0.091463375@note_on channel=1 note=44 velocity=0 time=0@note_on channel=1 note=60 velocity=100 time=0@note_on channel=1 note=32 velocity=100 time=0@note_on channel=1 note=32 velocity=0 time=0.091463375@note_on channel=1 note=60 velocity=0 time=0@note_on channel=1 note=44 velocity=100 time=0@note_on channel=1 note=51 velocity=100 time=0@note_on channel=1 note=51 velocity=0 time=0.091463375@note_on channel=1 note=44 velocity=0 time=0@note_on channel=1 note=48 velocity=100 time=0@note_on channel=1 note=56 velocity=100 time=0@note_on channel=1 note=32 velocity=100 time=0@note_on channel=1 note=32 velocity=0 time=0.3658535@note_on channel=1 note=56 velocity=0 time=0@note_on channel=1 note=48 velocity=0 time=0@note_on channel=0 note=72 velocity=100 time=0.18292675@note_on channel=0 note=68 velocity=100 time=0@control_change channel=1 control=64 value=0 time=0@note_on channel=1 note=60 velocity=100 time=0@note_on channel=1 note=56 velocity=100 time=0@note_on channel=0 note=68 velocity=0 time=0.18292675@note_on channel=0 note=72 velocity=0 time=0@note_on channel=0 note=72 velocity=100 time=0@note_on channel=0 note=75 velocity=100 time=0@note_on channel=1 note=56 velocity=0 time=0@note_on channel=1 note=60 velocity=0 time=0@note_on channel=1 note=60 velocity=100 time=0@note_on channel=1 note=63 velocity=100 time=0@note_on channel=0 note=75 velocity=0 time=0.3658535@note_on channel=0 note=72 velocity=0 time=0@note_on channel=1 note=63 velocity=0 time=0@note_on channel=1 note=60 velocity=0 time=0@control_change channel=1 control=64 value=127 time=0.3658535@note_on channel=1 note=60 velocity=100 time=0@note_on channel=1 note=32 velocity=100 time=0@note_on channel=1 note=32 velocity=0 time=0.091463375@note_on channel=1 note=60 velocity=0 time=0@note_on channel=1 note=44 velocity=100 time=0@note_on channel=1 note=51 velocity=100 time=0@note_on channel=1 note=51 velocity=0 time=0.091463375@note_on channel=1 note=44 velocity=0 time=0@note_on channel=1 note=60 velocity=100 time=0@note_on channel=1 note=32 velocity=100 time=0@note_on channel=1 note=32 velocity=0 time=0.091463375@note_on channel=1 note=60 velocity=0 time=0@note_on channel=1 note=44 velocity=100 time=0@note_on channel=1 note=51 velocity=100 time=0@note_on channel=1 note=51 velocity=0 time=0.091463375@note_on channel=1 note=44 velocity=0 time=0@note_on channel=1 note=60 velocity=100 time=0@note_on channel=1 note=32 velocity=100 time=0@note_on channel=1 note=32 velocity=0 time=0.091463375@note_on channel=1 note=60 velocity=0 time=0@note_on channel=1 note=44 velocity=100 time=0@note_on channel=1 note=51 velocity=100 time=0@note_on channel=1 note=51 velocity=0 time=0.091463375@note_on channel=1 note=44 velocity=0 time=0@note_on channel=1 note=60 velocity=100 time=0@note_on channel=1 note=32 velocity=100 time=0@note_on channel=1 note=32 velocity=0 time=0.091463375@note_on channel=1 note=60 velocity=0 time=0@note_on channel=1 note=44 velocity=100 time=0@note_on channel=1 note=51 velocity=100 time=0@note_on channel=1 note=51 velocity=0 time=0.091463375@note_on channel=1 note=44 velocity=0 time=0@note_on channel=1 note=60 velocity=100 time=0@note_on channel=1 note=32 velocity=100 time=0@note_on channel=1 note=32 velocity=0 time=0.091463375@note_on channel=1 note=60 velocity=0 time=0@note_on channel=1 note=44 velocity=100 time=0@note_on channel=1 note=51 velocity=100 time=0@note_on channel=1 note=51 velocity=0 time=0.091463375@note_on channel=1 note=44 velocity=0 time=0@note_on channel=1 note=60 velocity=100 time=0@note_on channel=1 note=32 velocity=100 time=0@note_on channel=1 note=32 velocity=0 time=0.091463375@note_on channel=1 note=60 velocity=0 time=0@note_on channel=1 note=44 velocity=100 time=0@note_on channel=1 note=51 velocity=100 time=0@note_on channel=1 note=51 velocity=0 time=0.091463375@note_on channel=1 note=44 velocity=0 time=0@note_on channel=1 note=60 velocity=100 time=0@note_on channel=1 note=32 velocity=100 time=0@note_on channel=1 note=32 velocity=0 time=0.091463375@note_on channel=1 note=60 velocity=0 time=0@note_on channel=1 note=44 velocity=100 time=0@note_on channel=1 note=51 velocity=100 time=0@note_on channel=1 note=51 velocity=0 time=0.091463375@note_on channel=1 note=44 velocity=0 time=0@note_on channel=1 note=60 velocity=100 time=0@note_on channel=1 note=32 velocity=100 time=0@note_on channel=1 note=32 velocity=0 time=0.091463375@note_on channel=1 note=60 velocity=0 time=0@note_on channel=1 note=44 velocity=100 time=0@note_on channel=1 note=51 velocity=100 time=0@note_on channel=1 note=51 velocity=0 time=0.091463375@note_on channel=1 note=44 velocity=0 time=0@note_on channel=1 note=48 velocity=100 time=0@note_on channel=1 note=56 velocity=100 time=0@note_on channel=1 note=32 velocity=100 time=0@note_on channel=1 note=32 velocity=0 time=0.3658535@note_on channel=1 note=56 velocity=0 time=0@note_on channel=1 note=48 velocity=0 time=0@note_on channel=0 note=84 velocity=100 time=0.18292675@note_on channel=0 note=80 velocity=100 time=0@control_change channel=1 control=64 value=0 time=0@note_on channel=1 note=72 velocity=100 time=0@note_on channel=1 note=68 velocity=100 time=0@note_on channel=0 note=80 velocity=0 time=0.18292675@note_on channel=0 note=84 velocity=0 time=0@note_on channel=0 note=84 velocity=100 time=0@note_on channel=0 note=87 velocity=100 time=0@note_on channel=1 note=68 velocity=0 time=0@note_on channel=1 note=72 velocity=0 time=0@note_on channel=1 note=72 velocity=100 time=0@note_on channel=1 note=75 velocity=100 time=0@note_on channel=0 note=87 velocity=0 time=0.3658535@note_on channel=0 note=84 velocity=0 time=0@note_on channel=1 note=75 velocity=0 time=0@note_on channel=1 note=72 velocity=0 time=0@note_on channel=0 note=58 velocity=100 time=0.3658535@note_on channel=1 note=46 velocity=100 time=0@note_on channel=0 note=58 velocity=0 time=0.3658535@note_on channel=1 note=46 velocity=0 time=0@note_on channel=0 note=79 velocity=100 time=0.18292675@note_on channel=0 note=75 velocity=100 time=0@note_on channel=1 note=67 velocity=100 time=0@note_on channel=1 note=63 velocity=100 time=0@note_on channel=0 note=75 velocity=0 time=0.18292675@note_on channel=0 note=79 velocity=0 time=0@note_on channel=0 note=82 velocity=100 time=0@note_on channel=1 note=63 velocity=0 time=0@note_on channel=1 note=67 velocity=0 time=0@note_on channel=1 note=70 velocity=100 time=0@note_on channel=0 note=82 velocity=0 time=0.3658535@note_on channel=1 note=70 velocity=0 time=0@note_on channel=0 note=58 velocity=100 time=0.3658535@note_on channel=1 note=46 velocity=100 time=0@note_on channel=0 note=58 velocity=0 time=0.3658535@note_on channel=1 note=46 velocity=0 time=0@note_on channel=0 note=77 velocity=100 time=0.18292675@note_on channel=0 note=74 velocity=100 time=0@note_on channel=1 note=65 velocity=100 time=0@note_on channel=1 note=62 velocity=100 time=0@note_on channel=0 note=74 velocity=0 time=0.18292675@note_on channel=0 note=77 velocity=0 time=0@note_on channel=0 note=82 velocity=100 time=0@note_on channel=1 note=62 velocity=0 time=0@note_on channel=1 note=65 velocity=0 time=0@note_on channel=1 note=70 velocity=100 time=0@note_on channel=0 note=82 velocity=0 time=0.3658535@note_on channel=1 note=70 velocity=0 time=0@note_on channel=0 note=70 velocity=100 time=0.18292675@note_on channel=1 note=58 velocity=100 time=0@note_on channel=1 note=46 velocity=100 time=0@note_on channel=0 note=70 velocity=0 time=0.18292675@note_on channel=0 note=75 velocity=100 time=0@note_on channel=1 note=46 velocity=0 time=0@note_on channel=1 note=58 velocity=0 time=0@note_on channel=1 note=51 velocity=100 time=0@note_on channel=1 note=63 velocity=100 time=0@note_on channel=0 note=75 velocity=0 time=0.3658535@note_on channel=1 note=63 velocity=0 time=0@note_on channel=1 note=51 velocity=0 time=0@note_on channel=0 note=58 velocity=100 time=0.18292675@note_on channel=0 note=58 velocity=0 time=0.18292675@note_on channel=0 note=63 velocity=100 time=0@note_on channel=1 note=43 velocity=100 time=0@note_on channel=1 note=39 velocity=100 time=0@note_on channel=1 note=46 velocity=100 time=0@note_on channel=1 note=51 velocity=100 time=0@note_on channel=0 note=63 velocity=0 time=0.3658535@note_on channel=1 note=51 velocity=0 time=0@note_on channel=1 note=43 velocity=0 time=0@note_on channel=1 note=39 velocity=0 time=0@note_on channel=1 note=46 velocity=0 time=0@note_on channel=1 note=46 velocity=100 time=0.18292675@note_on channel=1 note=46 velocity=0 time=0.18292675@note_on channel=1 note=43 velocity=100 time=0@note_on channel=1 note=39 velocity=100 time=0@note_on channel=1 note=51 velocity=100 time=0@note_on channel=1 note=51 velocity=0 time=0.3658535@note_on channel=1 note=39 velocity=0 time=0@note_on channel=1 note=43 velocity=0 time=0@control_change channel=0 control=64 value=127 time=1.0975605@note_on channel=0 note=61 velocity=100 time=0@control_change channel=1 control=64 value=127 time=0@note_on channel=1 note=39 velocity=100 time=0@note_on channel=0 note=61 velocity=0 time=0.091463375@note_on channel=0 note=58 velocity=100 time=0@note_on channel=1 note=39 velocity=0 time=0@note_on channel=1 note=51 velocity=100 time=0@note_on channel=0 note=58 velocity=0 time=0.091463375@note_on channel=0 note=61 velocity=100 time=0@note_on channel=1 note=51 velocity=0 time=0@note_on channel=1 note=39 velocity=100 time=0@note_on channel=0 note=61 velocity=0 time=0.091463375@note_on channel=0 note=58 velocity=100 time=0@note_on channel=1 note=39 velocity=0 time=0@note_on channel=1 note=51 velocity=100 time=0@note_on channel=0 note=58 velocity=0 time=0.091463375@note_on channel=0 note=61 velocity=100 time=0@note_on channel=1 note=51 velocity=0 time=0@note_on channel=1 note=39 velocity=100 time=0@note_on channel=0 note=61 velocity=0 time=0.091463375@note_on channel=0 note=58 velocity=100 time=0@note_on channel=1 note=39 velocity=0 time=0@note_on channel=1 note=51 velocity=100 time=0@note_on channel=0 note=58 velocity=0 time=0.091463375@note_on channel=0 note=61 velocity=100 time=0@note_on channel=1 note=51 velocity=0 time=0@note_on channel=1 note=39 velocity=100 time=0@note_on channel=0 note=61 velocity=0 time=0.091463375@note_on channel=0 note=58 velocity=100 time=0@note_on channel=1 note=39 velocity=0 time=0@note_on channel=1 note=51 velocity=100 time=0@note_on channel=0 note=58 velocity=0 time=0.091463375@note_on channel=0 note=61 velocity=100 time=0@note_on channel=1 note=51 velocity=0 time=0@note_on channel=1 note=39 velocity=100 time=0@note_on channel=0 note=61 velocity=0 time=0.091463375@note_on channel=0 note=58 velocity=100 time=0@note_on channel=1 note=39 velocity=0 time=0@note_on channel=1 note=51 velocity=100 time=0@note_on channel=0 note=58 velocity=0 time=0.091463375@note_on channel=0 note=61 velocity=100 time=0@note_on channel=1 note=51 velocity=0 time=0@note_on channel=1 note=39 velocity=100 time=0@note_on channel=0 note=61 velocity=0 time=0.091463375@note_on channel=0 note=58 velocity=100 time=0@note_on channel=1 note=39 velocity=0 time=0@note_on channel=1 note=51 velocity=100 time=0@note_on channel=0 note=58 velocity=0 time=0.091463375@note_on channel=0 note=61 velocity=100 time=0@note_on channel=1 note=51 velocity=0 time=0@note_on channel=1 note=39 velocity=100 time=0@note_on channel=0 note=61 velocity=0 time=0.091463375@note_on channel=0 note=58 velocity=100 time=0@note_on channel=1 note=39 velocity=0 time=0@note_on channel=1 note=51 velocity=100 time=0@note_on channel=0 note=58 velocity=0 time=0.091463375@note_on channel=0 note=61 velocity=100 time=0@note_on channel=1 note=51 velocity=0 time=0@note_on channel=1 note=39 velocity=100 time=0@note_on channel=0 note=61 velocity=0 time=0.091463375@note_on channel=0 note=58 velocity=100 time=0@note_on channel=1 note=39 velocity=0 time=0@note_on channel=1 note=51 velocity=100 time=0@note_on channel=0 note=58 velocity=0 time=0.091463375@note_on channel=0 note=55 velocity=100 time=0@note_on channel=0 note=58 velocity=100 time=0@note_on channel=1 note=51 velocity=0 time=0@note_on channel=1 note=39 velocity=100 time=0@note_on channel=0 note=58 velocity=0 time=0.3658535@note_on channel=0 note=55 velocity=0 time=0@note_on channel=1 note=39 velocity=0 time=0@control_change channel=0 control=64 value=0 time=0.18292675@note_on channel=0 note=70 velocity=100 time=0@note_on channel=0 note=67 velocity=100 time=0@control_change channel=1 control=64 value=0 time=0@note_on channel=1 note=58 velocity=100 time=0@note_on channel=1 note=55 velocity=100 time=0@note_on channel=0 note=67 velocity=0 time=0.18292675@note_on channel=0 note=70 velocity=0 time=0@note_on channel=0 note=73 velocity=100 time=0@note_on channel=0 note=70 velocity=100 time=0@note_on channel=1 note=55 velocity=0 time=0@note_on channel=1 note=58 velocity=0 time=0@note_on channel=1 note=61 velocity=100 time=0@note_on channel=1 note=58 velocity=100 time=0@note_on channel=0 note=70 velocity=0 time=0.3658535@note_on channel=0 note=73 velocity=0 time=0@note_on channel=1 note=58 velocity=0 time=0@note_on channel=1 note=61 velocity=0 time=0@control_change channel=0 control=64 value=127 time=0.3658535@note_on channel=0 note=61 velocity=100 time=0@control_change channel=1 control=64 value=127 time=0@note_on channel=1 note=39 velocity=100 time=0@note_on channel=0 note=61 velocity=0 time=0.091463375@note_on channel=0 note=58 velocity=100 time=0@note_on channel=1 note=39 velocity=0 time=0@note_on channel=1 note=51 velocity=100 time=0@note_on channel=0 note=58 velocity=0 time=0.091463375@note_on channel=0 note=61 velocity=100 time=0@note_on channel=1 note=51 velocity=0 time=0@note_on channel=1 note=39 velocity=100 time=0@note_on channel=0 note=61 velocity=0 time=0.091463375@note_on channel=0 note=58 velocity=100 time=0@note_on channel=1 note=39 velocity=0 time=0@note_on channel=1 note=51 velocity=100 time=0@note_on channel=0 note=58 velocity=0 time=0.091463375@note_on channel=0 note=61 velocity=100 time=0@note_on channel=1 note=51 velocity=0 time=0@note_on channel=1 note=39 velocity=100 time=0@note_on channel=0 note=61 velocity=0 time=0.091463375@note_on channel=0 note=58 velocity=100 time=0@note_on channel=1 note=39 velocity=0 time=0@note_on channel=1 note=51 velocity=100 time=0@note_on channel=0 note=58 velocity=0 time=0.091463375@note_on channel=0 note=61 velocity=100 time=0@note_on channel=1 note=51 velocity=0 time=0@note_on channel=1 note=39 velocity=100 time=0@note_on channel=0 note=61 velocity=0 time=0.091463375@note_on channel=0 note=58 velocity=100 time=0@note_on channel=1 note=39 velocity=0 time=0@note_on channel=1 note=51 velocity=100 time=0@note_on channel=0 note=58 velocity=0 time=0.091463375@note_on channel=0 note=61 velocity=100 time=0@note_on channel=1 note=51 velocity=0 time=0@note_on channel=1 note=39 velocity=100 time=0@note_on channel=0 note=61 velocity=0 time=0.091463375@note_on channel=0 note=58 velocity=100 time=0@note_on channel=1 note=39 velocity=0 time=0@note_on channel=1 note=51 velocity=100 time=0@note_on channel=0 note=58 velocity=0 time=0.091463375@note_on channel=0 note=61 velocity=100 time=0@note_on channel=1 note=51 velocity=0 time=0@note_on channel=1 note=39 velocity=100 time=0@note_on channel=0 note=61 velocity=0 time=0.091463375@note_on channel=0 note=58 velocity=100 time=0@note_on channel=1 note=39 velocity=0 time=0@note_on channel=1 note=51 velocity=100 time=0@note_on channel=0 note=58 velocity=0 time=0.091463375@note_on channel=0 note=61 velocity=100 time=0@note_on channel=1 note=51 velocity=0 time=0@note_on channel=1 note=39 velocity=100 time=0@note_on channel=0 note=61 velocity=0 time=0.091463375@note_on channel=0 note=58 velocity=100 time=0@note_on channel=1 note=39 velocity=0 time=0@note_on channel=1 note=51 velocity=100 time=0@note_on channel=0 note=58 velocity=0 time=0.091463375@note_on channel=0 note=61 velocity=100 time=0@note_on channel=1 note=51 velocity=0 time=0@note_on channel=1 note=39 velocity=100 time=0@note_on channel=0 note=61 velocity=0 time=0.091463375@note_on channel=0 note=58 velocity=100 time=0@note_on channel=1 note=39 velocity=0 time=0@note_on channel=1 note=51 velocity=100 time=0@note_on channel=0 note=58 velocity=0 time=0.091463375@note_on channel=0 note=55 velocity=100 time=0@note_on channel=0 note=58 velocity=100 time=0@note_on channel=1 note=51 velocity=0 time=0@note_on channel=1 note=39 velocity=100 time=0@note_on channel=0 note=58 velocity=0 time=0.3658535@note_on channel=0 note=55 velocity=0 time=0@note_on channel=1 note=39 velocity=0 time=0@control_change channel=0 control=64 value=0 time=0.18292675@note_on channel=0 note=82 velocity=100 time=0@note_on channel=0 note=79 velocity=100 time=0@control_change channel=1 control=64 value=0 time=0@note_on channel=1 note=70 velocity=100 time=0@note_on channel=1 note=67 velocity=100 time=0@note_on channel=0 note=79 velocity=0 time=0.18292675@note_on channel=0 note=82 velocity=0 time=0@note_on channel=0 note=85 velocity=100 time=0@note_on channel=0 note=82 velocity=100 time=0@note_on channel=1 note=67 velocity=0 time=0@note_on channel=1 note=70 velocity=0 time=0@note_on channel=1 note=73 velocity=100 time=0@note_on channel=1 note=70 velocity=100 time=0@note_on channel=0 note=82 velocity=0 time=0.3658535@note_on channel=0 note=85 velocity=0 time=0@note_on channel=1 note=70 velocity=0 time=0@note_on channel=1 note=73 velocity=0 time=0@note_on channel=0 note=68 velocity=100 time=0.3658535@note_on channel=1 note=44 velocity=100 time=0@note_on channel=1 note=56 velocity=100 time=0@note_on channel=0 note=68 velocity=0 time=0.3658535@note_on channel=1 note=56 velocity=0 time=0@note_on channel=1 note=44 velocity=0 time=0@note_on channel=0 note=84 velocity=100 time=0.18292675@note_on channel=0 note=80 velocity=100 time=0@note_on channel=1 note=72 velocity=100 time=0@note_on channel=1 note=68 velocity=100 time=0@note_on channel=0 note=80 velocity=0 time=0.18292675@note_on channel=0 note=84 velocity=0 time=0@note_on channel=0 note=87 velocity=100 time=0@note_on channel=1 note=68 velocity=0 time=0@note_on channel=1 note=72 velocity=0 time=0@note_on channel=1 note=75 velocity=100 time=0@note_on channel=0 note=87 velocity=0 time=0.3658535@note_on channel=1 note=75 velocity=0 time=0@note_on channel=0 note=63 velocity=100 time=0.3658535@note_on channel=1 note=39 velocity=100 time=0@note_on channel=1 note=51 velocity=100 time=0@note_on channel=0 note=63 velocity=0 time=0.3658535@note_on channel=1 note=51 velocity=0 time=0@note_on channel=1 note=39 velocity=0 time=0@note_on channel=0 note=82 velocity=100 time=0.18292675@note_on channel=0 note=79 velocity=100 time=0@note_on channel=1 note=70 velocity=100 time=0@note_on channel=1 note=67 velocity=100 time=0@note_on channel=0 note=79 velocity=0 time=0.18292675@note_on channel=0 note=82 velocity=0 time=0@note_on channel=0 note=87 velocity=100 time=0@note_on channel=1 note=67 velocity=0 time=0@note_on channel=1 note=70 velocity=0 time=0@note_on channel=1 note=75 velocity=100 time=0@note_on channel=0 note=87 velocity=0 time=0.3658535@note_on channel=1 note=75 velocity=0 time=0@note_on channel=0 note=75 velocity=100 time=0.18292675@note_on channel=1 note=63 velocity=100 time=0@note_on channel=1 note=51 velocity=100 time=0@note_on channel=0 note=75 velocity=0 time=0.18292675@note_on channel=0 note=80 velocity=100 time=0@note_on channel=1 note=51 velocity=0 time=0@note_on channel=1 note=63 velocity=0 time=0@note_on channel=1 note=68 velocity=100 time=0@note_on channel=1 note=56 velocity=100 time=0@note_on channel=0 note=80 velocity=0 time=0.3658535@note_on channel=1 note=56 velocity=0 time=0@note_on channel=1 note=68 velocity=0 time=0@note_on channel=0 note=63 velocity=100 time=0.18292675@note_on channel=0 note=63 velocity=0 time=0.18292675@note_on channel=0 note=68 velocity=100 time=0@note_on channel=1 note=56 velocity=100 time=0@note_on channel=1 note=51 velocity=100 time=0@note_on channel=1 note=48 velocity=100 time=0@note_on channel=1 note=44 velocity=100 time=0@note_on channel=0 note=68 velocity=0 time=0.3658535@note_on channel=1 note=44 velocity=0 time=0@note_on channel=1 note=56 velocity=0 time=0@note_on channel=1 note=51 velocity=0 time=0@note_on channel=1 note=48 velocity=0 time=0@note_on channel=1 note=51 velocity=100 time=0.18292675@note_on channel=1 note=51 velocity=0 time=0.18292675@note_on channel=1 note=32 velocity=100 time=0@note_on channel=1 note=36 velocity=100 time=0@note_on channel=1 note=39 velocity=100 time=0@note_on channel=1 note=44 velocity=100 time=0@note_on channel=1 note=56 velocity=100 time=0@note_on channel=1 note=56 velocity=0 time=0.3658535@note_on channel=1 note=39 velocity=0 time=0@note_on channel=1 note=32 velocity=0 time=0@note_on channel=1 note=36 velocity=0 time=0@note_on channel=1 note=44 velocity=0 time=0@control_change channel=0 control=64 value=127 time=1.0975605@note_on channel=0 note=61 velocity=100 time=0@control_change channel=1 control=64 value=127 time=0@note_on channel=1 note=39 velocity=100 time=0@note_on channel=0 note=61 velocity=0 time=0.091463375@note_on channel=0 note=58 velocity=100 time=0@note_on channel=1 note=39 velocity=0 time=0@note_on channel=1 note=51 velocity=100 time=0@note_on channel=0 note=58 velocity=0 time=0.091463375@note_on channel=0 note=61 velocity=100 time=0@note_on channel=1 note=51 velocity=0 time=0@note_on channel=1 note=39 velocity=100 time=0@note_on channel=0 note=61 velocity=0 time=0.091463375@note_on channel=0 note=58 velocity=100 time=0@note_on channel=1 note=39 velocity=0 time=0@note_on channel=1 note=51 velocity=100 time=0@note_on channel=0 note=58 velocity=0 time=0.091463375@note_on channel=0 note=61 velocity=100 time=0@note_on channel=1 note=51 velocity=0 time=0@note_on channel=1 note=39 velocity=100 time=0@note_on channel=0 note=61 velocity=0 time=0.091463375@note_on channel=0 note=58 velocity=100 time=0@note_on channel=1 note=39 velocity=0 time=0@note_on channel=1 note=51 velocity=100 time=0@note_on channel=0 note=58 velocity=0 time=0.091463375@note_on channel=0 note=61 velocity=100 time=0@note_on channel=1 note=51 velocity=0 time=0@note_on channel=1 note=39 velocity=100 time=0@note_on channel=0 note=61 velocity=0 time=0.091463375@note_on channel=0 note=58 velocity=100 time=0@note_on channel=1 note=39 velocity=0 time=0@note_on channel=1 note=51 velocity=100 time=0@note_on channel=0 note=58 velocity=0 time=0.091463375@note_on channel=0 note=61 velocity=100 time=0@note_on channel=1 note=51 velocity=0 time=0@note_on channel=1 note=39 velocity=100 time=0@note_on channel=0 note=61 velocity=0 time=0.091463375@note_on channel=0 note=58 velocity=100 time=0@note_on channel=1 note=39 velocity=0 time=0@note_on channel=1 note=51 velocity=100 time=0@note_on channel=0 note=58 velocity=0 time=0.091463375@note_on channel=0 note=61 velocity=100 time=0@note_on channel=1 note=51 velocity=0 time=0@note_on channel=1 note=39 velocity=100 time=0@note_on channel=0 note=61 velocity=0 time=0.091463375@note_on channel=0 note=58 velocity=100 time=0@note_on channel=1 note=39 velocity=0 time=0@note_on channel=1 note=51 velocity=100 time=0@note_on channel=0 note=58 velocity=0 time=0.091463375@note_on channel=0 note=61 velocity=100 time=0@note_on channel=1 note=51 velocity=0 time=0@note_on channel=1 note=39 velocity=100 time=0@note_on channel=0 note=61 velocity=0 time=0.091463375@note_on channel=0 note=58 velocity=100 time=0@note_on channel=1 note=39 velocity=0 time=0@note_on channel=1 note=51 velocity=100 time=0@note_on channel=0 note=58 velocity=0 time=0.091463375@note_on channel=0 note=61 velocity=100 time=0@note_on channel=1 note=51 velocity=0 time=0@note_on channel=1 note=39 velocity=100 time=0@note_on channel=0 note=61 velocity=0 time=0.091463375@note_on channel=0 note=58 velocity=100 time=0@note_on channel=1 note=39 velocity=0 time=0@note_on channel=1 note=51 velocity=100 time=0@note_on channel=0 note=58 velocity=0 time=0.091463375@note_on channel=0 note=55 velocity=100 time=0@note_on channel=0 note=58 velocity=100 time=0@note_on channel=1 note=51 velocity=0 time=0@note_on channel=1 note=39 velocity=100 time=0@note_on channel=0 note=58 velocity=0 time=0.3658535@note_on channel=0 note=55 velocity=0 time=0@note_on channel=1 note=39 velocity=0 time=0@control_change channel=0 control=64 value=0 time=0.18292675@note_on channel=0 note=70 velocity=100 time=0@note_on channel=0 note=67 velocity=100 time=0@control_change channel=1 control=64 value=0 time=0@note_on channel=1 note=58 velocity=100 time=0@note_on channel=1 note=55 velocity=100 time=0@note_on channel=0 note=67 velocity=0 time=0.18292675@note_on channel=0 note=70 velocity=0 time=0@note_on channel=0 note=73 velocity=100 time=0@note_on channel=0 note=70 velocity=100 time=0@note_on channel=1 note=55 velocity=0 time=0@note_on channel=1 note=58 velocity=0 time=0@note_on channel=1 note=61 velocity=100 time=0@note_on channel=1 note=58 velocity=100 time=0@note_on channel=0 note=70 velocity=0 time=0.3658535@note_on channel=0 note=73 velocity=0 time=0@note_on channel=1 note=58 velocity=0 time=0@note_on channel=1 note=61 velocity=0 time=0@control_change channel=0 control=64 value=127 time=0.3658535@note_on channel=0 note=61 velocity=100 time=0@control_change channel=1 control=64 value=127 time=0@note_on channel=1 note=39 velocity=100 time=0@note_on channel=0 note=61 velocity=0 time=0.091463375@note_on channel=0 note=58 velocity=100 time=0@note_on channel=1 note=39 velocity=0 time=0@note_on channel=1 note=51 velocity=100 time=0@note_on channel=0 note=58 velocity=0 time=0.091463375@note_on channel=0 note=61 velocity=100 time=0@note_on channel=1 note=51 velocity=0 time=0@note_on channel=1 note=39 velocity=100 time=0@note_on channel=0 note=61 velocity=0 time=0.091463375@note_on channel=0 note=58 velocity=100 time=0@note_on channel=1 note=39 velocity=0 time=0@note_on channel=1 note=51 velocity=100 time=0@note_on channel=0 note=58 velocity=0 time=0.091463375@note_on channel=0 note=61 velocity=100 time=0@note_on channel=1 note=51 velocity=0 time=0@note_on channel=1 note=39 velocity=100 time=0@note_on channel=0 note=61 velocity=0 time=0.091463375@note_on channel=0 note=58 velocity=100 time=0@note_on channel=1 note=39 velocity=0 time=0@note_on channel=1 note=51 velocity=100 time=0@note_on channel=0 note=58 velocity=0 time=0.091463375@note_on channel=0 note=61 velocity=100 time=0@note_on channel=1 note=51 velocity=0 time=0@note_on channel=1 note=39 velocity=100 time=0@note_on channel=0 note=61 velocity=0 time=0.091463375@note_on channel=0 note=58 velocity=100 time=0@note_on channel=1 note=39 velocity=0 time=0@note_on channel=1 note=51 velocity=100 time=0@note_on channel=0 note=58 velocity=0 time=0.091463375@note_on channel=0 note=61 velocity=100 time=0@note_on channel=1 note=51 velocity=0 time=0@note_on channel=1 note=39 velocity=100 time=0@note_on channel=0 note=61 velocity=0 time=0.091463375@note_on channel=0 note=58 velocity=100 time=0@note_on channel=1 note=39 velocity=0 time=0@note_on channel=1 note=51 velocity=100 time=0@note_on channel=0 note=58 velocity=0 time=0.091463375@note_on channel=0 note=61 velocity=100 time=0@note_on channel=1 note=51 velocity=0 time=0@note_on channel=1 note=39 velocity=100 time=0@note_on channel=0 note=61 velocity=0 time=0.091463375@note_on channel=0 note=58 velocity=100 time=0@note_on channel=1 note=39 velocity=0 time=0@note_on channel=1 note=51 velocity=100 time=0@note_on channel=0 note=58 velocity=0 time=0.091463375@note_on channel=0 note=61 velocity=100 time=0@note_on channel=1 note=51 velocity=0 time=0@note_on channel=1 note=39 velocity=100 time=0@note_on channel=0 note=61 velocity=0 time=0.091463375@note_on channel=0 note=58 velocity=100 time=0@note_on channel=1 note=39 velocity=0 time=0@note_on channel=1 note=51 velocity=100 time=0@note_on channel=0 note=58 velocity=0 time=0.091463375@note_on channel=0 note=61 velocity=100 time=0@note_on channel=1 note=51 velocity=0 time=0@note_on channel=1 note=39 velocity=100 time=0@note_on channel=0 note=61 velocity=0 time=0.091463375@note_on channel=0 note=58 velocity=100 time=0@note_on channel=1 note=39 velocity=0 time=0@note_on channel=1 note=51 velocity=100 time=0@note_on channel=0 note=58 velocity=0 time=0.091463375@note_on channel=0 note=55 velocity=100 time=0@note_on channel=0 note=58 velocity=100 time=0@note_on channel=1 note=51 velocity=0 time=0@note_on channel=1 note=39 velocity=100 time=0@note_on channel=0 note=58 velocity=0 time=0.3658535@note_on channel=0 note=55 velocity=0 time=0@note_on channel=1 note=39 velocity=0 time=0@control_change channel=0 control=64 value=0 time=0.18292675@note_on channel=0 note=82 velocity=100 time=0@note_on channel=0 note=79 velocity=100 time=0@control_change channel=1 control=64 value=0 time=0@note_on channel=1 note=70 velocity=100 time=0@note_on channel=1 note=67 velocity=100 time=0@note_on channel=0 note=79 velocity=0 time=0.18292675@note_on channel=0 note=82 velocity=0 time=0@note_on channel=0 note=85 velocity=100 time=0@note_on channel=0 note=82 velocity=100 time=0@note_on channel=1 note=67 velocity=0 time=0@note_on channel=1 note=70 velocity=0 time=0@note_on channel=1 note=73 velocity=100 time=0@note_on channel=1 note=70 velocity=100 time=0@note_on channel=0 note=82 velocity=0 time=0.3658535@note_on channel=0 note=85 velocity=0 time=0@note_on channel=1 note=70 velocity=0 time=0@note_on channel=1 note=73 velocity=0 time=0@note_on channel=0 note=68 velocity=100 time=0.3658535@note_on channel=1 note=44 velocity=100 time=0@note_on channel=1 note=56 velocity=100 time=0@note_on channel=0 note=68 velocity=0 time=0.3658535@note_on channel=1 note=56 velocity=0 time=0@note_on channel=1 note=44 velocity=0 time=0@note_on channel=0 note=84 velocity=100 time=0.18292675@note_on channel=0 note=80 velocity=100 time=0@note_on channel=1 note=72 velocity=100 time=0@note_on channel=1 note=68 velocity=100 time=0@note_on channel=0 note=80 velocity=0 time=0.18292675@note_on channel=0 note=84 velocity=0 time=0@note_on channel=0 note=87 velocity=100 time=0@note_on channel=1 note=68 velocity=0 time=0@note_on channel=1 note=72 velocity=0 time=0@note_on channel=1 note=75 velocity=100 time=0@note_on channel=0 note=87 velocity=0 time=0.3658535@note_on channel=1 note=75 velocity=0 time=0@note_on channel=0 note=63 velocity=100 time=0.3658535@note_on channel=1 note=39 velocity=100 time=0@note_on channel=1 note=51 velocity=100 time=0@note_on channel=0 note=63 velocity=0 time=0.3658535@note_on channel=1 note=51 velocity=0 time=0@note_on channel=1 note=39 velocity=0 time=0@note_on channel=0 note=82 velocity=100 time=0.18292675@note_on channel=0 note=79 velocity=100 time=0@note_on channel=1 note=70 velocity=100 time=0@note_on channel=1 note=67 velocity=100 time=0@note_on channel=0 note=79 velocity=0 time=0.18292675@note_on channel=0 note=82 velocity=0 time=0@note_on channel=0 note=87 velocity=100 time=0@note_on channel=1 note=67 velocity=0 time=0@note_on channel=1 note=70 velocity=0 time=0@note_on channel=1 note=75 velocity=100 time=0@note_on channel=0 note=87 velocity=0 time=0.3658535@note_on channel=1 note=75 velocity=0 time=0@note_on channel=0 note=75 velocity=100 time=0.18292675@note_on channel=1 note=63 velocity=100 time=0@note_on channel=1 note=51 velocity=100 time=0@note_on channel=0 note=75 velocity=0 time=0.18292675@note_on channel=0 note=80 velocity=100 time=0@note_on channel=1 note=51 velocity=0 time=0@note_on channel=1 note=63 velocity=0 time=0@note_on channel=1 note=68 velocity=100 time=0@note_on channel=1 note=56 velocity=100 time=0@note_on channel=0 note=80 velocity=0 time=0.3658535@note_on channel=1 note=56 velocity=0 time=0@note_on channel=1 note=68 velocity=0 time=0@note_on channel=0 note=63 velocity=100 time=0.18292675@note_on channel=0 note=63 velocity=0 time=0.18292675@note_on channel=0 note=68 velocity=100 time=0@note_on channel=1 note=56 velocity=100 time=0@note_on channel=1 note=51 velocity=100 time=0@note_on channel=1 note=48 velocity=100 time=0@note_on channel=1 note=44 velocity=100 time=0@note_on channel=0 note=68 velocity=0 time=0.3658535@note_on channel=1 note=44 velocity=0 time=0@note_on channel=1 note=56 velocity=0 time=0@note_on channel=1 note=51 velocity=0 time=0@note_on channel=1 note=48 velocity=0 time=0@note_on channel=1 note=51 velocity=100 time=0.18292675@note_on channel=1 note=51 velocity=0 time=0.18292675@note_on channel=1 note=32 velocity=100 time=0@note_on channel=1 note=36 velocity=100 time=0@note_on channel=1 note=39 velocity=100 time=0@note_on channel=1 note=44 velocity=100 time=0@note_on channel=1 note=56 velocity=100 time=0@note_on channel=1 note=56 velocity=0 time=0.3658535@note_on channel=1 note=39 velocity=0 time=0@note_on channel=1 note=32 velocity=0 time=0@note_on channel=1 note=36 velocity=0 time=0@note_on channel=1 note=44 velocity=0 time=0@note_on channel=0 note=63 velocity=100 time=0.3658535@note_on channel=1 note=51 velocity=100 time=0@note_on channel=0 note=63 velocity=0 time=0.54878025@note_on channel=0 note=63 velocity=100 time=0@note_on channel=1 note=51 velocity=0 time=0@note_on channel=1 note=51 velocity=100 time=0@<meta message key_signature key='Cb' time=0.18292675>@note_on channel=0 note=63 velocity=0 time=0@note_on channel=0 note=63 velocity=100 time=0@note_on channel=1 note=51 velocity=0 time=0@note_on channel=1 note=32 velocity=100 time=0@note_on channel=1 note=44 velocity=100 time=0@note_on channel=1 note=51 velocity=100 time=0@note_on channel=1 note=56 velocity=100 time=0@note_on channel=1 note=59 velocity=100 time=0@note_on channel=0 note=63 velocity=0 time=0.731707@note_on channel=0 note=63 velocity=100 time=0@note_on channel=1 note=59 velocity=0 time=0@note_on channel=1 note=51 velocity=0 time=0@note_on channel=1 note=56 velocity=0 time=0@note_on channel=1 note=51 velocity=100 time=0@note_on channel=1 note=56 velocity=100 time=0@note_on channel=1 note=59 velocity=100 time=0@note_on channel=0 note=63 velocity=0 time=0.54878025@note_on channel=0 note=63 velocity=100 time=0@note_on channel=1 note=59 velocity=0 time=0@note_on channel=1 note=51 velocity=0 time=0@note_on channel=1 note=56 velocity=0 time=0@note_on channel=1 note=59 velocity=100 time=0@note_on channel=1 note=56 velocity=100 time=0@note_on channel=1 note=51 velocity=100 time=0@note_on channel=0 note=63 velocity=0 time=0.18292675@note_on channel=0 note=63 velocity=100 time=0@note_on channel=1 note=51 velocity=0 time=0@note_on channel=1 note=59 velocity=0 time=0@note_on channel=1 note=56 velocity=0 time=0@note_on channel=1 note=32 velocity=0 time=0@note_on channel=1 note=32 velocity=100 time=0@note_on channel=1 note=59 velocity=100 time=0@note_on channel=1 note=56 velocity=100 time=0@note_on channel=1 note=51 velocity=100 time=0@note_on channel=0 note=63 velocity=0 time=0.54878025@note_on channel=0 note=63 velocity=100 time=0@note_on channel=1 note=51 velocity=0 time=0@note_on channel=1 note=59 velocity=0 time=0@note_on channel=1 note=56 velocity=0 time=0@note_on channel=1 note=59 velocity=100 time=0@note_on channel=1 note=56 velocity=100 time=0@note_on channel=1 note=51 velocity=100 time=0@note_on channel=0 note=63 velocity=0 time=0.18292675@note_on channel=0 note=63 velocity=100 time=0@note_on channel=1 note=51 velocity=0 time=0@note_on channel=1 note=59 velocity=0 time=0@note_on channel=1 note=56 velocity=0 time=0@note_on channel=1 note=59 velocity=100 time=0@note_on channel=1 note=56 velocity=100 time=0@note_on channel=1 note=51 velocity=100 time=0@note_on channel=0 note=63 velocity=0 time=0.54878025@note_on channel=0 note=63 velocity=100 time=0@note_on channel=1 note=51 velocity=0 time=0@note_on channel=1 note=59 velocity=0 time=0@note_on channel=1 note=56 velocity=0 time=0@note_on channel=1 note=59 velocity=100 time=0@note_on channel=1 note=56 velocity=100 time=0@note_on channel=1 note=51 velocity=100 time=0@note_on channel=0 note=63 velocity=0 time=0.18292675@note_on channel=0 note=63 velocity=100 time=0@note_on channel=1 note=51 velocity=0 time=0@note_on channel=1 note=59 velocity=0 time=0@note_on channel=1 note=44 velocity=0 time=0@note_on channel=1 note=32 velocity=0 time=0@note_on channel=1 note=56 velocity=0 time=0@note_on channel=1 note=61 velocity=100 time=0@note_on channel=1 note=58 velocity=100 time=0@note_on channel=1 note=51 velocity=100 time=0@note_on channel=1 note=39 velocity=100 time=0@note_on channel=1 note=39 velocity=0 time=0.54878025@note_on channel=1 note=39 velocity=100 time=0@note_on channel=1 note=39 velocity=0 time=0.18292675@note_on channel=1 note=43 velocity=100 time=0@note_on channel=1 note=43 velocity=0 time=0.54878025@note_on channel=1 note=46 velocity=100 time=0@note_on channel=1 note=46 velocity=0 time=0.18292675@note_on channel=1 note=51 velocity=100 time=0@note_on channel=0 note=63 velocity=0 time=0.731707@note_on channel=0 note=63 velocity=100 time=0@note_on channel=1 note=51 velocity=0 time=0@note_on channel=1 note=61 velocity=0 time=0@note_on channel=1 note=58 velocity=0 time=0@note_on channel=1 note=51 velocity=0 time=0@note_on channel=1 note=49 velocity=100 time=0@note_on channel=1 note=51 velocity=100 time=0@note_on channel=1 note=55 velocity=100 time=0@note_on channel=1 note=58 velocity=100 time=0@note_on channel=0 note=63 velocity=0 time=0.54878025@note_on channel=0 note=63 velocity=100 time=0@note_on channel=1 note=58 velocity=0 time=0@note_on channel=1 note=49 velocity=0 time=0@note_on channel=1 note=51 velocity=0 time=0@note_on channel=1 note=55 velocity=0 time=0@note_on channel=1 note=58 velocity=100 time=0@note_on channel=1 note=55 velocity=100 time=0@note_on channel=1 note=51 velocity=100 time=0@note_on channel=1 note=49 velocity=100 time=0@note_on channel=0 note=63 velocity=0 time=0.18292675@note_on channel=0 note=63 velocity=100 time=0@note_on channel=1 note=49 velocity=0 time=0@note_on channel=1 note=58 velocity=0 time=0@note_on channel=1 note=55 velocity=0 time=0@note_on channel=1 note=51 velocity=0 time=0@note_on channel=1 note=51 velocity=100 time=0@note_on channel=1 note=47 velocity=100 time=0@note_on channel=1 note=56 velocity=100 time=0@note_on channel=1 note=59 velocity=100 time=0@note_on channel=0 note=63 velocity=0 time=0.731707@note_on channel=0 note=63 velocity=100 time=0@note_on channel=1 note=59 velocity=0 time=0@note_on channel=1 note=51 velocity=0 time=0@note_on channel=1 note=47 velocity=0 time=0@note_on channel=1 note=56 velocity=0 time=0@note_on channel=1 note=44 velocity=100 time=0@note_on channel=1 note=51 velocity=100 time=0@note_on channel=1 note=56 velocity=100 time=0@note_on channel=1 note=59 velocity=100 time=0@note_on channel=0 note=63 velocity=0 time=0.54878025@note_on channel=0 note=63 velocity=100 time=0@note_on channel=1 note=59 velocity=0 time=0@note_on channel=1 note=44 velocity=0 time=0@note_on channel=1 note=51 velocity=0 time=0@note_on channel=1 note=56 velocity=0 time=0@note_on channel=1 note=59 velocity=100 time=0@note_on channel=1 note=56 velocity=100 time=0@note_on channel=1 note=51 velocity=100 time=0@note_on channel=1 note=44 velocity=100 time=0@note_on channel=0 note=63 velocity=0 time=0.18292675@note_on channel=0 note=63 velocity=100 time=0@note_on channel=1 note=44 velocity=0 time=0@note_on channel=1 note=59 velocity=0 time=0@note_on channel=1 note=56 velocity=0 time=0@note_on channel=1 note=51 velocity=0 time=0@note_on channel=1 note=61 velocity=100 time=0@note_on channel=1 note=58 velocity=100 time=0@note_on channel=1 note=51 velocity=100 time=0@note_on channel=1 note=43 velocity=100 time=0@note_on channel=0 note=63 velocity=0 time=0.731707@note_on channel=0 note=63 velocity=100 time=0@note_on channel=1 note=43 velocity=0 time=0@note_on channel=1 note=61 velocity=0 time=0@note_on channel=1 note=58 velocity=0 time=0@note_on channel=1 note=51 velocity=0 time=0@note_on channel=1 note=59 velocity=100 time=0@note_on channel=1 note=56 velocity=100 time=0@note_on channel=1 note=51 velocity=100 time=0@note_on channel=1 note=44 velocity=100 time=0@note_on channel=0 note=63 velocity=0 time=0.54878025@note_on channel=0 note=63 velocity=100 time=0@note_on channel=1 note=44 velocity=0 time=0@note_on channel=1 note=59 velocity=0 time=0@note_on channel=1 note=56 velocity=0 time=0@note_on channel=1 note=51 velocity=0 time=0@note_on channel=1 note=59 velocity=100 time=0@note_on channel=1 note=56 velocity=100 time=0@note_on channel=1 note=51 velocity=100 time=0@note_on channel=1 note=44 velocity=100 time=0@note_on channel=0 note=63 velocity=0 time=0.18292675@note_on channel=0 note=63 velocity=100 time=0@note_on channel=1 note=44 velocity=0 time=0@note_on channel=1 note=59 velocity=0 time=0@note_on channel=1 note=56 velocity=0 time=0@note_on channel=1 note=51 velocity=0 time=0@note_on channel=1 note=39 velocity=100 time=0@note_on channel=1 note=51 velocity=100 time=0@note_on channel=1 note=55 velocity=100 time=0@note_on channel=1 note=58 velocity=100 time=0@note_on channel=0 note=63 velocity=0 time=0.731707@note_on channel=0 note=63 velocity=100 time=0@note_on channel=1 note=58 velocity=0 time=0@note_on channel=1 note=39 velocity=0 time=0@note_on channel=1 note=51 velocity=0 time=0@note_on channel=1 note=55 velocity=0 time=0@note_on channel=1 note=39 velocity=100 time=0@note_on channel=1 note=51 velocity=100 time=0@note_on channel=1 note=55 velocity=100 time=0@note_on channel=1 note=58 velocity=100 time=0@note_on channel=0 note=63 velocity=0 time=0.731707@note_on channel=0 note=63 velocity=100 time=0@note_on channel=1 note=58 velocity=0 time=0@note_on channel=1 note=39 velocity=0 time=0@note_on channel=1 note=51 velocity=0 time=0@note_on channel=1 note=55 velocity=0 time=0@note_on channel=1 note=39 velocity=100 time=0@note_on channel=1 note=51 velocity=100 time=0@note_on channel=1 note=55 velocity=100 time=0@note_on channel=1 note=58 velocity=100 time=0@note_on channel=0 note=63 velocity=0 time=0.731707@note_on channel=0 note=63 velocity=100 time=0@note_on channel=1 note=58 velocity=0 time=0@note_on channel=1 note=39 velocity=0 time=0@note_on channel=1 note=51 velocity=0 time=0@note_on channel=1 note=55 velocity=0 time=0@note_on channel=1 note=51 velocity=100 time=0@note_on channel=0 note=63 velocity=0 time=0.54878025@note_on channel=0 note=63 velocity=100 time=0@note_on channel=1 note=51 velocity=0 time=0@note_on channel=1 note=51 velocity=100 time=0@note_on channel=0 note=63 velocity=0 time=0.18292675@note_on channel=0 note=63 velocity=100 time=0@note_on channel=1 note=51 velocity=0 time=0@note_on channel=1 note=32 velocity=100 time=0@note_on channel=1 note=44 velocity=100 time=0@note_on channel=1 note=51 velocity=100 time=0@note_on channel=1 note=56 velocity=100 time=0@note_on channel=1 note=59 velocity=100 time=0@note_on channel=0 note=63 velocity=0 time=0.731707@note_on channel=0 note=63 velocity=100 time=0@note_on channel=1 note=59 velocity=0 time=0@note_on channel=1 note=51 velocity=0 time=0@note_on channel=1 note=56 velocity=0 time=0@note_on channel=1 note=51 velocity=100 time=0@note_on channel=1 note=56 velocity=100 time=0@note_on channel=1 note=59 velocity=100 time=0@note_on channel=0 note=63 velocity=0 time=0.54878025@note_on channel=0 note=63 velocity=100 time=0@note_on channel=1 note=59 velocity=0 time=0@note_on channel=1 note=51 velocity=0 time=0@note_on channel=1 note=56 velocity=0 time=0@note_on channel=1 note=59 velocity=100 time=0@note_on channel=1 note=56 velocity=100 time=0@note_on channel=1 note=51 velocity=100 time=0@note_on channel=0 note=63 velocity=0 time=0.18292675@note_on channel=0 note=63 velocity=100 time=0@note_on channel=1 note=51 velocity=0 time=0@note_on channel=1 note=59 velocity=0 time=0@note_on channel=1 note=56 velocity=0 time=0@note_on channel=1 note=32 velocity=0 time=0@note_on channel=1 note=32 velocity=100 time=0@note_on channel=1 note=59 velocity=100 time=0@note_on channel=1 note=56 velocity=100 time=0@note_on channel=1 note=51 velocity=100 time=0@note_on channel=0 note=63 velocity=0 time=0.54878025@note_on channel=0 note=63 velocity=100 time=0@note_on channel=1 note=51 velocity=0 time=0@note_on channel=1 note=59 velocity=0 time=0@note_on channel=1 note=56 velocity=0 time=0@note_on channel=1 note=59 velocity=100 time=0@note_on channel=1 note=56 velocity=100 time=0@note_on channel=1 note=51 velocity=100 time=0@note_on channel=0 note=63 velocity=0 time=0.18292675@note_on channel=0 note=63 velocity=100 time=0@note_on channel=1 note=51 velocity=0 time=0@note_on channel=1 note=59 velocity=0 time=0@note_on channel=1 note=56 velocity=0 time=0@note_on channel=1 note=58 velocity=100 time=0@note_on channel=1 note=54 velocity=100 time=0@note_on channel=1 note=51 velocity=100 time=0@note_on channel=0 note=63 velocity=0 time=0.54878025@note_on channel=0 note=63 velocity=100 time=0@note_on channel=1 note=51 velocity=0 time=0@note_on channel=1 note=58 velocity=0 time=0@note_on channel=1 note=54 velocity=0 time=0@note_on channel=1 note=56 velocity=100 time=0@note_on channel=1 note=53 velocity=100 time=0@note_on channel=1 note=51 velocity=100 time=0@note_on channel=0 note=63 velocity=0 time=0.18292675@note_on channel=0 note=63 velocity=100 time=0@note_on channel=1 note=51 velocity=0 time=0@note_on channel=1 note=56 velocity=0 time=0@note_on channel=1 note=44 velocity=0 time=0@note_on channel=1 note=32 velocity=0 time=0@note_on channel=1 note=53 velocity=0 time=0@note_on channel=1 note=39 velocity=100 time=0@note_on channel=1 note=51 velocity=100 time=0@note_on channel=1 note=54 velocity=100 time=0@note_on channel=1 note=58 velocity=100 time=0@note_on channel=1 note=39 velocity=0 time=0.54878025@note_on channel=1 note=39 velocity=100 time=0@note_on channel=1 note=39 velocity=0 time=0.18292675@note_on channel=1 note=42 velocity=100 time=0@note_on channel=1 note=42 velocity=0 time=0.54878025@note_on channel=1 note=46 velocity=100 time=0@note_on channel=1 note=46 velocity=0 time=0.18292675@note_on channel=1 note=51 velocity=100 time=0@note_on channel=0 note=63 velocity=0 time=0.731707@note_on channel=0 note=63 velocity=100 time=0@note_on channel=1 note=51 velocity=0 time=0@note_on channel=1 note=51 velocity=0 time=0@note_on channel=1 note=54 velocity=0 time=0@note_on channel=1 note=58 velocity=0 time=0@note_on channel=1 note=59 velocity=100 time=0@note_on channel=1 note=54 velocity=100 time=0@note_on channel=1 note=47 velocity=100 time=0@note_on channel=0 note=63 velocity=0 time=0.54878025@note_on channel=0 note=63 velocity=100 time=0@note_on channel=1 note=47 velocity=0 time=0@note_on channel=1 note=54 velocity=0 time=0@note_on channel=1 note=59 velocity=0 time=0@note_on channel=1 note=47 velocity=100 time=0@note_on channel=1 note=54 velocity=100 time=0@note_on channel=1 note=59 velocity=100 time=0@note_on channel=0 note=63 velocity=0 time=0.18292675@note_on channel=0 note=63 velocity=100 time=0@note_on channel=1 note=59 velocity=0 time=0@note_on channel=1 note=54 velocity=0 time=0@note_on channel=1 note=47 velocity=0 time=0@note_on channel=1 note=44 velocity=100 time=0@note_on channel=1 note=56 velocity=100 time=0@note_on channel=1 note=59 velocity=100 time=0@note_on channel=0 note=63 velocity=0 time=0.731707@note_on channel=0 note=61 velocity=100 time=0@note_on channel=1 note=59 velocity=0 time=0@note_on channel=1 note=56 velocity=0 time=0@note_on channel=1 note=44 velocity=0 time=0@note_on channel=1 note=40 velocity=100 time=0@note_on channel=1 note=56 velocity=100 time=0@note_on channel=1 note=59 velocity=100 time=0@note_on channel=0 note=61 velocity=0 time=0.54878025@note_on channel=0 note=61 velocity=100 time=0@note_on channel=1 note=59 velocity=0 time=0@note_on channel=1 note=56 velocity=0 time=0@note_on channel=1 note=40 velocity=0 time=0@note_on channel=1 note=40 velocity=100 time=0@note_on channel=1 note=56 velocity=100 time=0@note_on channel=1 note=59 velocity=100 time=0@note_on channel=0 note=61 velocity=0 time=0.18292675@note_on channel=0 note=61 velocity=100 time=0@note_on channel=1 note=59 velocity=0 time=0@note_on channel=1 note=56 velocity=0 time=0@note_on channel=1 note=40 velocity=0 time=0@note_on channel=1 note=59 velocity=100 time=0@note_on channel=1 note=54 velocity=100 time=0@note_on channel=1 note=42 velocity=100 time=0@note_on channel=0 note=61 velocity=0 time=0.731707@note_on channel=0 note=61 velocity=100 time=0@note_on channel=1 note=42 velocity=0 time=0@note_on channel=1 note=54 velocity=0 time=0@note_on channel=1 note=59 velocity=0 time=0@note_on channel=1 note=30 velocity=100 time=0@note_on channel=1 note=42 velocity=100 time=0@note_on channel=1 note=52 velocity=100 time=0@note_on channel=1 note=54 velocity=100 time=0@note_on channel=1 note=58 velocity=100 time=0@note_on channel=0 note=61 velocity=0 time=0.54878025@note_on channel=0 note=61 velocity=100 time=0@note_on channel=1 note=58 velocity=0 time=0@note_on channel=1 note=52 velocity=0 time=0@note_on channel=1 note=30 velocity=0 time=0@note_on channel=1 note=42 velocity=0 time=0@note_on channel=1 note=54 velocity=0 time=0@note_on channel=1 note=54 velocity=100 time=0@note_on channel=1 note=30 velocity=100 time=0@note_on channel=1 note=42 velocity=100 time=0@note_on channel=1 note=52 velocity=100 time=0@note_on channel=1 note=58 velocity=100 time=0@note_on channel=0 note=61 velocity=0 time=0.18292675@note_on channel=0 note=59 velocity=100 time=0@note_on channel=1 note=58 velocity=0 time=0@note_on channel=1 note=42 velocity=0 time=0@note_on channel=1 note=54 velocity=0 time=0@note_on channel=1 note=30 velocity=0 time=0@note_on channel=1 note=52 velocity=0 time=0@note_on channel=1 note=35 velocity=100 time=0@note_on channel=1 note=47 velocity=100 time=0@note_on channel=1 note=51 velocity=100 time=0@note_on channel=1 note=54 velocity=100 time=0@note_on channel=0 note=59 velocity=0 time=0.731707@note_on channel=0 note=59 velocity=100 time=0@note_on channel=1 note=54 velocity=0 time=0@note_on channel=1 note=35 velocity=0 time=0@note_on channel=1 note=47 velocity=0 time=0@note_on channel=1 note=51 velocity=0 time=0@note_on channel=1 note=35 velocity=100 time=0@note_on channel=1 note=47 velocity=100 time=0@note_on channel=1 note=51 velocity=100 time=0@note_on channel=1 note=54 velocity=100 time=0@note_on channel=0 note=59 velocity=0 time=0.731707@note_on channel=0 note=59 velocity=100 time=0@note_on channel=1 note=54 velocity=0 time=0@note_on channel=1 note=35 velocity=0 time=0@note_on channel=1 note=47 velocity=0 time=0@note_on channel=1 note=51 velocity=0 time=0@note_on channel=1 note=35 velocity=100 time=0@note_on channel=1 note=47 velocity=100 time=0@note_on channel=1 note=51 velocity=100 time=0@note_on channel=1 note=54 velocity=100 time=0@note_on channel=0 note=59 velocity=0 time=0.731707@note_on channel=0 note=66 velocity=100 time=0@note_on channel=1 note=54 velocity=0 time=0@note_on channel=1 note=35 velocity=0 time=0@note_on channel=1 note=47 velocity=0 time=0@note_on channel=1 note=51 velocity=0 time=0@note_on channel=1 note=46 velocity=100 time=0@note_on channel=0 note=66 velocity=0 time=0.54878025@note_on channel=0 note=66 velocity=100 time=0@note_on channel=1 note=46 velocity=0 time=0@note_on channel=1 note=46 velocity=100 time=0@note_on channel=0 note=66 velocity=0 time=0.18292675@note_on channel=0 note=62 velocity=100 time=0@note_on channel=0 note=66 velocity=100 time=0@note_on channel=1 note=46 velocity=0 time=0@note_on channel=1 note=35 velocity=100 time=0@note_on channel=1 note=47 velocity=100 time=0@note_on channel=1 note=54 velocity=100 time=0@note_on channel=1 note=59 velocity=100 time=0@note_on channel=0 note=66 velocity=0 time=0.731707@note_on channel=0 note=62 velocity=0 time=0@note_on channel=0 note=66 velocity=100 time=0@note_on channel=0 note=62 velocity=100 time=0@note_on channel=1 note=59 velocity=0 time=0@note_on channel=1 note=54 velocity=0 time=0@note_on channel=1 note=59 velocity=100 time=0@note_on channel=1 note=54 velocity=100 time=0@note_on channel=0 note=62 velocity=0 time=0.54878025@note_on channel=0 note=66 velocity=0 time=0@note_on channel=0 note=66 velocity=100 time=0@note_on channel=0 note=62 velocity=100 time=0@note_on channel=1 note=54 velocity=0 time=0@note_on channel=1 note=59 velocity=0 time=0@note_on channel=1 note=59 velocity=100 time=0@note_on channel=1 note=54 velocity=100 time=0@note_on channel=0 note=62 velocity=0 time=0.18292675@note_on channel=0 note=66 velocity=0 time=0@note_on channel=0 note=66 velocity=100 time=0@note_on channel=0 note=62 velocity=100 time=0@note_on channel=1 note=54 velocity=0 time=0@note_on channel=1 note=59 velocity=0 time=0@note_on channel=1 note=35 velocity=0 time=0@note_on channel=1 note=59 velocity=100 time=0@note_on channel=1 note=54 velocity=100 time=0@note_on channel=1 note=35 velocity=100 time=0@note_on channel=0 note=62 velocity=0 time=0.54878025@note_on channel=0 note=66 velocity=0 time=0@note_on channel=0 note=66 velocity=100 time=0@note_on channel=0 note=62 velocity=100 time=0@note_on channel=1 note=54 velocity=0 time=0@note_on channel=1 note=59 velocity=0 time=0@note_on channel=1 note=59 velocity=100 time=0@note_on channel=1 note=54 velocity=100 time=0@note_on channel=0 note=62 velocity=0 time=0.18292675@note_on channel=0 note=66 velocity=0 time=0@note_on channel=0 note=66 velocity=100 time=0@note_on channel=0 note=61 velocity=100 time=0@note_on channel=1 note=54 velocity=0 time=0@note_on channel=1 note=59 velocity=0 time=0@note_on channel=1 note=54 velocity=100 time=0@note_on channel=1 note=58 velocity=100 time=0@note_on channel=0 note=61 velocity=0 time=0.54878025@note_on channel=0 note=66 velocity=0 time=0@note_on channel=0 note=66 velocity=100 time=0@note_on channel=0 note=62 velocity=100 time=0@note_on channel=1 note=58 velocity=0 time=0@note_on channel=1 note=54 velocity=0 time=0@note_on channel=1 note=59 velocity=100 time=0@note_on channel=1 note=54 velocity=100 time=0@note_on channel=0 note=62 velocity=0 time=0.18292675@note_on channel=0 note=66 velocity=0 time=0@note_on channel=0 note=64 velocity=100 time=0@note_on channel=0 note=66 velocity=100 time=0@note_on channel=1 note=54 velocity=0 time=0@note_on channel=1 note=35 velocity=0 time=0@note_on channel=1 note=47 velocity=0 time=0@note_on channel=1 note=59 velocity=0 time=0@note_on channel=1 note=30 velocity=100 time=0@note_on channel=1 note=42 velocity=100 time=0@note_on channel=1 note=54 velocity=100 time=0@note_on channel=1 note=61 velocity=100 time=0@note_on channel=1 note=42 velocity=0 time=0.54878025@note_on channel=1 note=30 velocity=0 time=0@note_on channel=1 note=42 velocity=100 time=0@note_on channel=1 note=30 velocity=100 time=0@note_on channel=1 note=30 velocity=0 time=0.18292675@note_on channel=1 note=42 velocity=0 time=0@note_on channel=1 note=46 velocity=100 time=0@note_on channel=1 note=34 velocity=100 time=0@note_on channel=1 note=34 velocity=0 time=0.54878025@note_on channel=1 note=46 velocity=0 time=0@note_on channel=1 note=49 velocity=100 time=0@note_on channel=1 note=37 velocity=100 time=0@note_on channel=1 note=37 velocity=0 time=0.18292675@note_on channel=1 note=49 velocity=0 time=0@note_on channel=1 note=54 velocity=100 time=0@note_on channel=1 note=42 velocity=100 time=0@note_on channel=0 note=66 velocity=0 time=0.731707@note_on channel=0 note=64 velocity=0 time=0@note_on channel=0 note=61 velocity=100 time=0@note_on channel=0 note=66 velocity=100 time=0@note_on channel=1 note=42 velocity=0 time=0@note_on channel=1 note=61 velocity=0 time=0@note_on channel=1 note=54 velocity=0 time=0@note_on channel=1 note=54 velocity=0 time=0@note_on channel=1 note=40 velocity=100 time=0@note_on channel=1 note=52 velocity=100 time=0@note_on channel=1 note=54 velocity=100 time=0@note_on channel=1 note=58 velocity=100 time=0@note_on channel=0 note=66 velocity=0 time=0.54878025@note_on channel=0 note=61 velocity=0 time=0@note_on channel=0 note=66 velocity=100 time=0@note_on channel=0 note=61 velocity=100 time=0@note_on channel=1 note=58 velocity=0 time=0@note_on channel=1 note=40 velocity=0 time=0@note_on channel=1 note=52 velocity=0 time=0@note_on channel=1 note=54 velocity=0 time=0@note_on channel=1 note=58 velocity=100 time=0@note_on channel=1 note=54 velocity=100 time=0@note_on channel=1 note=52 velocity=100 time=0@note_on channel=1 note=40 velocity=100 time=0@note_on channel=0 note=61 velocity=0 time=0.18292675@note_on channel=0 note=66 velocity=0 time=0@note_on channel=0 note=62 velocity=100 time=0@note_on channel=0 note=66 velocity=100 time=0@note_on channel=1 note=40 velocity=0 time=0@note_on channel=1 note=58 velocity=0 time=0@note_on channel=1 note=54 velocity=0 time=0@note_on channel=1 note=52 velocity=0 time=0@note_on channel=1 note=38 velocity=100 time=0@note_on channel=1 note=50 velocity=100 time=0@note_on channel=1 note=54 velocity=100 time=0@note_on channel=1 note=59 velocity=100 time=0@note_on channel=0 note=66 velocity=0 time=0.731707@note_on channel=0 note=62 velocity=0 time=0@note_on channel=0 note=62 velocity=100 time=0@note_on channel=0 note=66 velocity=100 time=0@note_on channel=1 note=59 velocity=0 time=0@note_on channel=1 note=38 velocity=0 time=0@note_on channel=1 note=50 velocity=0 time=0@note_on channel=1 note=54 velocity=0 time=0@note_on channel=1 note=35 velocity=100 time=0@note_on channel=1 note=47 velocity=100 time=0@note_on channel=1 note=54 velocity=100 time=0@note_on channel=1 note=59 velocity=100 time=0@note_on channel=0 note=66 velocity=0 time=0.54878025@note_on channel=0 note=62 velocity=0 time=0@note_on channel=0 note=62 velocity=100 time=0@note_on channel=0 note=66 velocity=100 time=0@note_on channel=1 note=59 velocity=0 time=0@note_on channel=1 note=35 velocity=0 time=0@note_on channel=1 note=47 velocity=0 time=0@note_on channel=1 note=54 velocity=0 time=0@note_on channel=1 note=35 velocity=100 time=0@note_on channel=1 note=47 velocity=100 time=0@note_on channel=1 note=54 velocity=100 time=0@note_on channel=1 note=59 velocity=100 time=0@note_on channel=0 note=66 velocity=0 time=0.18292675@note_on channel=0 note=62 velocity=0 time=0@note_on channel=0 note=66 velocity=100 time=0@note_on channel=0 note=64 velocity=100 time=0@note_on channel=0 note=61 velocity=100 time=0@note_on channel=1 note=59 velocity=0 time=0@note_on channel=1 note=35 velocity=0 time=0@note_on channel=1 note=47 velocity=0 time=0@note_on channel=1 note=54 velocity=0 time=0@note_on channel=1 note=34 velocity=100 time=0@note_on channel=1 note=46 velocity=100 time=0@note_on channel=1 note=52 velocity=100 time=0@note_on channel=0 note=61 velocity=0 time=0.731707@note_on channel=0 note=64 velocity=0 time=0@note_on channel=0 note=66 velocity=0 time=0@note_on channel=0 note=62 velocity=100 time=0@note_on channel=0 note=66 velocity=100 time=0@note_on channel=1 note=52 velocity=0 time=0@note_on channel=1 note=46 velocity=0 time=0@note_on channel=1 note=34 velocity=0 time=0@note_on channel=1 note=35 velocity=100 time=0@note_on channel=1 note=47 velocity=100 time=0@note_on channel=1 note=54 velocity=100 time=0@note_on channel=1 note=59 velocity=100 time=0@note_on channel=0 note=66 velocity=0 time=0.54878025@note_on channel=0 note=62 velocity=0 time=0@note_on channel=0 note=62 velocity=100 time=0@note_on channel=0 note=66 velocity=100 time=0@note_on channel=1 note=59 velocity=0 time=0@note_on channel=1 note=35 velocity=0 time=0@note_on channel=1 note=47 velocity=0 time=0@note_on channel=1 note=54 velocity=0 time=0@note_on channel=1 note=35 velocity=100 time=0@note_on channel=1 note=47 velocity=100 time=0@note_on channel=1 note=54 velocity=100 time=0@note_on channel=1 note=59 velocity=100 time=0@note_on channel=0 note=66 velocity=0 time=0.18292675@note_on channel=0 note=62 velocity=0 time=0@note_on channel=0 note=61 velocity=100 time=0@note_on channel=0 note=66 velocity=100 time=0@note_on channel=1 note=59 velocity=0 time=0@note_on channel=1 note=35 velocity=0 time=0@note_on channel=1 note=47 velocity=0 time=0@note_on channel=1 note=54 velocity=0 time=0@note_on channel=1 note=30 velocity=100 time=0@note_on channel=1 note=42 velocity=100 time=0@note_on channel=1 note=54 velocity=100 time=0@note_on channel=1 note=58 velocity=100 time=0@note_on channel=0 note=66 velocity=0 time=0.731707@note_on channel=0 note=61 velocity=0 time=0@note_on channel=0 note=61 velocity=100 time=0@note_on channel=0 note=66 velocity=100 time=0@note_on channel=1 note=58 velocity=0 time=0@note_on channel=1 note=30 velocity=0 time=0@note_on channel=1 note=42 velocity=0 time=0@note_on channel=1 note=54 velocity=0 time=0@note_on channel=1 note=30 velocity=100 time=0@note_on channel=1 note=42 velocity=100 time=0@note_on channel=1 note=54 velocity=100 time=0@note_on channel=1 note=58 velocity=100 time=0@note_on channel=0 note=66 velocity=0 time=0.731707@note_on channel=0 note=61 velocity=0 time=0@note_on channel=0 note=61 velocity=100 time=0@note_on channel=0 note=66 velocity=100 time=0@note_on channel=1 note=58 velocity=0 time=0@note_on channel=1 note=30 velocity=0 time=0@note_on channel=1 note=42 velocity=0 time=0@note_on channel=1 note=54 velocity=0 time=0@note_on channel=1 note=30 velocity=100 time=0@note_on channel=1 note=42 velocity=100 time=0@note_on channel=1 note=54 velocity=100 time=0@note_on channel=1 note=58 velocity=100 time=0@note_on channel=0 note=66 velocity=0 time=0.731707@note_on channel=0 note=61 velocity=0 time=0@note_on channel=0 note=66 velocity=100 time=0@note_on channel=1 note=58 velocity=0 time=0@note_on channel=1 note=30 velocity=0 time=0@note_on channel=1 note=42 velocity=0 time=0@note_on channel=1 note=54 velocity=0 time=0@note_on channel=1 note=54 velocity=100 time=0@note_on channel=0 note=66 velocity=0 time=0.54878025@note_on channel=0 note=66 velocity=100 time=0@note_on channel=1 note=54 velocity=0 time=0@note_on channel=1 note=54 velocity=100 time=0@note_on channel=0 note=66 velocity=0 time=0.18292675@note_on channel=0 note=62 velocity=100 time=0@note_on channel=0 note=66 velocity=100 time=0@note_on channel=1 note=54 velocity=0 time=0@note_on channel=1 note=35 velocity=100 time=0@note_on channel=1 note=47 velocity=100 time=0@note_on channel=1 note=54 velocity=100 time=0@note_on channel=1 note=59 velocity=100 time=0@note_on channel=0 note=66 velocity=0 time=0.731707@note_on channel=0 note=62 velocity=0 time=0@note_on channel=0 note=66 velocity=100 time=0@note_on channel=0 note=62 velocity=100 time=0@note_on channel=1 note=59 velocity=0 time=0@note_on channel=1 note=54 velocity=0 time=0@note_on channel=1 note=59 velocity=100 time=0@note_on channel=1 note=54 velocity=100 time=0@note_on channel=0 note=62 velocity=0 time=0.54878025@note_on channel=0 note=66 velocity=0 time=0@note_on channel=0 note=66 velocity=100 time=0@note_on channel=0 note=62 velocity=100 time=0@note_on channel=1 note=54 velocity=0 time=0@note_on channel=1 note=59 velocity=0 time=0@note_on channel=1 note=59 velocity=100 time=0@note_on channel=1 note=54 velocity=100 time=0@note_on channel=0 note=62 velocity=0 time=0.18292675@note_on channel=0 note=66 velocity=0 time=0@note_on channel=0 note=66 velocity=100 time=0@note_on channel=0 note=62 velocity=100 time=0@note_on channel=1 note=54 velocity=0 time=0@note_on channel=1 note=59 velocity=0 time=0@note_on channel=1 note=35 velocity=0 time=0@note_on channel=1 note=59 velocity=100 time=0@note_on channel=1 note=54 velocity=100 time=0@note_on channel=1 note=35 velocity=100 time=0@note_on channel=0 note=62 velocity=0 time=0.54878025@note_on channel=0 note=66 velocity=0 time=0@note_on channel=0 note=66 velocity=100 time=0@note_on channel=0 note=62 velocity=100 time=0@note_on channel=1 note=54 velocity=0 time=0@note_on channel=1 note=59 velocity=0 time=0@note_on channel=1 note=59 velocity=100 time=0@note_on channel=1 note=54 velocity=100 time=0@note_on channel=0 note=62 velocity=0 time=0.18292675@note_on channel=0 note=66 velocity=0 time=0@note_on channel=0 note=64 velocity=100 time=0@note_on channel=0 note=61 velocity=100 time=0@note_on channel=1 note=54 velocity=0 time=0@note_on channel=1 note=59 velocity=0 time=0@note_on channel=1 note=52 velocity=100 time=0@note_on channel=1 note=59 velocity=100 time=0@note_on channel=0 note=61 velocity=0 time=0.54878025@note_on channel=0 note=64 velocity=0 time=0@note_on channel=0 note=66 velocity=100 time=0@note_on channel=0 note=62 velocity=100 time=0@note_on channel=1 note=59 velocity=0 time=0@note_on channel=1 note=52 velocity=0 time=0@note_on channel=1 note=59 velocity=100 time=0@note_on channel=1 note=54 velocity=100 time=0@note_on channel=0 note=62 velocity=0 time=0.18292675@note_on channel=0 note=66 velocity=0 time=0@note_on channel=0 note=64 velocity=100 time=0@note_on channel=0 note=67 velocity=100 time=0@note_on channel=1 note=54 velocity=0 time=0@note_on channel=1 note=35 velocity=0 time=0@note_on channel=1 note=47 velocity=0 time=0@note_on channel=1 note=59 velocity=0 time=0@note_on channel=1 note=40 velocity=100 time=0@note_on channel=1 note=55 velocity=100 time=0@note_on channel=1 note=59 velocity=100 time=0@note_on channel=1 note=40 velocity=0 time=0.54878025@note_on channel=1 note=40 velocity=100 time=0@note_on channel=1 note=40 velocity=0 time=0.18292675@note_on channel=1 note=43 velocity=100 time=0@note_on channel=1 note=43 velocity=0 time=0.54878025@note_on channel=1 note=47 velocity=100 time=0@note_on channel=1 note=47 velocity=0 time=0.18292675@note_on channel=1 note=52 velocity=100 time=0@note_on channel=0 note=67 velocity=0 time=0.731707@note_on channel=0 note=64 velocity=0 time=0@note_on channel=0 note=64 velocity=100 time=0@note_on channel=0 note=67 velocity=100 time=0@note_on channel=1 note=52 velocity=0 time=0@note_on channel=1 note=59 velocity=0 time=0@note_on channel=1 note=55 velocity=0 time=0@note_on channel=1 note=43 velocity=100 time=0@note_on channel=1 note=52 velocity=100 time=0@note_on channel=1 note=55 velocity=100 time=0@note_on channel=1 note=59 velocity=100 time=0@note_on channel=0 note=67 velocity=0 time=0.54878025@note_on channel=0 note=64 velocity=0 time=0@note_on channel=0 note=67 velocity=100 time=0@note_on channel=0 note=64 velocity=100 time=0@note_on channel=1 note=59 velocity=0 time=0@note_on channel=1 note=43 velocity=0 time=0@note_on channel=1 note=52 velocity=0 time=0@note_on channel=1 note=55 velocity=0 time=0@note_on channel=1 note=59 velocity=100 time=0@note_on channel=1 note=55 velocity=100 time=0@note_on channel=1 note=52 velocity=100 time=0@note_on channel=1 note=43 velocity=100 time=0@note_on channel=0 note=64 velocity=0 time=0.18292675@note_on channel=0 note=67 velocity=0 time=0@note_on channel=0 note=57 velocity=100 time=0@note_on channel=0 note=62 velocity=100 time=0@note_on channel=0 note=66 velocity=100 time=0@note_on channel=1 note=43 velocity=0 time=0@note_on channel=1 note=59 velocity=0 time=0@note_on channel=1 note=55 velocity=0 time=0@note_on channel=1 note=52 velocity=0 time=0@note_on channel=1 note=45 velocity=100 time=0@note_on channel=1 note=50 velocity=100 time=0@note_on channel=1 note=54 velocity=100 time=0@note_on channel=0 note=66 velocity=0 time=0.731707@note_on channel=0 note=62 velocity=0 time=0@note_on channel=0 note=57 velocity=0 time=0@note_on channel=0 note=57 velocity=100 time=0@note_on channel=0 note=62 velocity=100 time=0@note_on channel=0 note=66 velocity=100 time=0@note_on channel=1 note=54 velocity=0 time=0@note_on channel=1 note=50 velocity=0 time=0@note_on channel=1 note=45 velocity=0 time=0@note_on channel=1 note=45 velocity=100 time=0@note_on channel=1 note=50 velocity=100 time=0@note_on channel=1 note=54 velocity=100 time=0@note_on channel=0 note=66 velocity=0 time=0.54878025@note_on channel=0 note=62 velocity=0 time=0@note_on channel=0 note=57 velocity=0 time=0@note_on channel=0 note=57 velocity=100 time=0@note_on channel=0 note=62 velocity=100 time=0@note_on channel=0 note=66 velocity=100 time=0@note_on channel=1 note=54 velocity=0 time=0@note_on channel=1 note=50 velocity=0 time=0@note_on channel=1 note=45 velocity=0 time=0@note_on channel=1 note=45 velocity=100 time=0@note_on channel=1 note=50 velocity=100 time=0@note_on channel=1 note=54 velocity=100 time=0@note_on channel=0 note=66 velocity=0 time=0.18292675@note_on channel=0 note=62 velocity=0 time=0@note_on channel=0 note=57 velocity=0 time=0@note_on channel=0 note=57 velocity=100 time=0@note_on channel=0 note=61 velocity=100 time=0@note_on channel=0 note=64 velocity=100 time=0@note_on channel=1 note=54 velocity=0 time=0@note_on channel=1 note=50 velocity=0 time=0@note_on channel=1 note=45 velocity=0 time=0@note_on channel=1 note=45 velocity=100 time=0@note_on channel=1 note=49 velocity=100 time=0@note_on channel=1 note=52 velocity=100 time=0@note_on channel=0 note=64 velocity=0 time=0.731707@note_on channel=0 note=61 velocity=0 time=0@note_on channel=0 note=57 velocity=0 time=0@note_on channel=0 note=69 velocity=100 time=0@note_on channel=0 note=57 velocity=100 time=0@note_on channel=0 note=61 velocity=100 time=0@note_on channel=0 note=64 velocity=100 time=0@note_on channel=1 note=52 velocity=0 time=0@note_on channel=1 note=49 velocity=0 time=0@note_on channel=1 note=45 velocity=0 time=0@note_on channel=1 note=45 velocity=100 time=0@note_on channel=1 note=49 velocity=100 time=0@note_on channel=1 note=52 velocity=100 time=0@note_on channel=0 note=64 velocity=0 time=0.54878025@note_on channel=0 note=69 velocity=0 time=0@note_on channel=0 note=57 velocity=0 time=0@note_on channel=0 note=61 velocity=0 time=0@note_on channel=0 note=57 velocity=100 time=0@note_on channel=0 note=61 velocity=100 time=0@note_on channel=0 note=64 velocity=100 time=0@note_on channel=0 note=69 velocity=100 time=0@note_on channel=1 note=52 velocity=0 time=0@note_on channel=1 note=49 velocity=0 time=0@note_on channel=1 note=45 velocity=0 time=0@note_on channel=1 note=45 velocity=100 time=0@note_on channel=1 note=49 velocity=100 time=0@note_on channel=1 note=52 velocity=100 time=0@note_on channel=0 note=69 velocity=0 time=0.18292675@note_on channel=0 note=57 velocity=0 time=0@note_on channel=0 note=61 velocity=0 time=0@note_on channel=0 note=64 velocity=0 time=0@note_on channel=0 note=62 velocity=100 time=0@note_on channel=1 note=52 velocity=0 time=0@note_on channel=1 note=49 velocity=0 time=0@note_on channel=1 note=45 velocity=0 time=0@note_on channel=1 note=38 velocity=100 time=0@note_on channel=1 note=50 velocity=100 time=0@note_on channel=0 note=62 velocity=0 time=0.731707@note_on channel=0 note=62 velocity=100 time=0@note_on channel=1 note=50 velocity=0 time=0@note_on channel=1 note=38 velocity=0 time=0@note_on channel=1 note=38 velocity=100 time=0@note_on channel=1 note=50 velocity=100 time=0@note_on channel=0 note=62 velocity=0 time=0.731707@note_on channel=0 note=62 velocity=100 time=0@note_on channel=1 note=50 velocity=0 time=0@note_on channel=1 note=38 velocity=0 time=0@note_on channel=1 note=38 velocity=100 time=0@note_on channel=1 note=50 velocity=100 time=0@note_on channel=0 note=62 velocity=0 time=0.731707@note_on channel=0 note=71 velocity=100 time=0@note_on channel=0 note=65 velocity=100 time=0@note_on channel=1 note=50 velocity=0 time=0@note_on channel=1 note=38 velocity=0 time=0@note_on channel=1 note=56 velocity=100 time=0@note_on channel=1 note=50 velocity=100 time=0@note_on channel=0 note=65 velocity=0 time=0.54878025@note_on channel=0 note=71 velocity=0 time=0@note_on channel=0 note=65 velocity=100 time=0@note_on channel=0 note=71 velocity=100 time=0@note_on channel=1 note=50 velocity=0 time=0@note_on channel=1 note=56 velocity=0 time=0@note_on channel=1 note=50 velocity=100 time=0@note_on channel=1 note=56 velocity=100 time=0@note_on channel=0 note=71 velocity=0 time=0.18292675@note_on channel=0 note=65 velocity=0 time=0@note_on channel=0 note=65 velocity=100 time=0@note_on channel=0 note=71 velocity=100 time=0@note_on channel=1 note=56 velocity=0 time=0@note_on channel=1 note=50 velocity=0 time=0@note_on channel=1 note=50 velocity=100 time=0@note_on channel=1 note=56 velocity=100 time=0@note_on channel=1 note=50 velocity=0 time=0.731707@note_on channel=1 note=50 velocity=100 time=0@note_on channel=0 note=71 velocity=0 time=0.731707@note_on channel=0 note=65 velocity=0 time=0@note_on channel=0 note=70 velocity=100 time=0@note_on channel=0 note=65 velocity=100 time=0@note_on channel=1 note=50 velocity=0 time=0@note_on channel=1 note=56 velocity=0 time=0@note_on channel=1 note=58 velocity=100 time=0@note_on channel=1 note=50 velocity=100 time=0@note_on channel=0 note=65 velocity=0 time=0.731707@note_on channel=0 note=70 velocity=0 time=0@note_on channel=0 note=68 velocity=100 time=0@note_on channel=0 note=65 velocity=100 time=0@note_on channel=1 note=50 velocity=0 time=0@note_on channel=1 note=58 velocity=0 time=0@note_on channel=1 note=59 velocity=100 time=0@note_on channel=1 note=50 velocity=100 time=0@note_on channel=0 note=65 velocity=0 time=0.731707@note_on channel=0 note=68 velocity=0 time=0@note_on channel=0 note=67 velocity=100 time=0@note_on channel=0 note=63 velocity=100 time=0@note_on channel=1 note=50 velocity=0 time=0@note_on channel=1 note=59 velocity=0 time=0@note_on channel=1 note=51 velocity=100 time=0@note_on channel=1 note=58 velocity=100 time=0@note_on channel=0 note=63 velocity=0 time=0.54878025@note_on channel=0 note=67 velocity=0 time=0@note_on channel=0 note=65 velocity=100 time=0@note_on channel=0 note=71 velocity=100 time=0@note_on channel=1 note=58 velocity=0 time=0@note_on channel=1 note=51 velocity=0 time=0@note_on channel=1 note=50 velocity=100 time=0@note_on channel=1 note=56 velocity=100 time=0@note_on channel=0 note=71 velocity=0 time=0.18292675@note_on channel=0 note=65 velocity=0 time=0@note_on channel=0 note=65 velocity=100 time=0@note_on channel=0 note=71 velocity=100 time=0@note_on channel=1 note=56 velocity=0 time=0@note_on channel=1 note=50 velocity=0 time=0@note_on channel=1 note=50 velocity=100 time=0@note_on channel=1 note=56 velocity=100 time=0@note_on channel=1 note=50 velocity=0 time=0.731707@note_on channel=1 note=50 velocity=100 time=0@note_on channel=0 note=71 velocity=0 time=0.731707@note_on channel=0 note=65 velocity=0 time=0@note_on channel=0 note=65 velocity=100 time=0@note_on channel=0 note=70 velocity=100 time=0@note_on channel=1 note=50 velocity=0 time=0@note_on channel=1 note=56 velocity=0 time=0@note_on channel=1 note=50 velocity=100 time=0@note_on channel=1 note=58 velocity=100 time=0@note_on channel=0 note=70 velocity=0 time=0.54878025@note_on channel=0 note=65 velocity=0 time=0@note_on channel=0 note=65 velocity=100 time=0@note_on channel=0 note=70 velocity=100 time=0@note_on channel=1 note=58 velocity=0 time=0@note_on channel=1 note=50 velocity=0 time=0@note_on channel=1 note=58 velocity=100 time=0@note_on channel=1 note=50 velocity=100 time=0@note_on channel=0 note=70 velocity=0 time=0.18292675@note_on channel=0 note=65 velocity=0 time=0@note_on channel=0 note=63 velocity=100 time=0@note_on channel=0 note=67 velocity=100 time=0@note_on channel=1 note=50 velocity=0 time=0@note_on channel=1 note=58 velocity=0 time=0@note_on channel=1 note=51 velocity=100 time=0@note_on channel=1 note=58 velocity=100 time=0@note_on channel=0 note=67 velocity=0 time=0.54878025@note_on channel=0 note=63 velocity=0 time=0@note_on channel=0 note=65 velocity=100 time=0@note_on channel=0 note=71 velocity=100 time=0@note_on channel=1 note=58 velocity=0 time=0@note_on channel=1 note=51 velocity=0 time=0@note_on channel=1 note=50 velocity=100 time=0@note_on channel=1 note=56 velocity=100 time=0@note_on channel=0 note=71 velocity=0 time=0.18292675@note_on channel=0 note=65 velocity=0 time=0@note_on channel=0 note=65 velocity=100 time=0@note_on channel=0 note=71 velocity=100 time=0@note_on channel=1 note=56 velocity=0 time=0@note_on channel=1 note=50 velocity=0 time=0@note_on channel=1 note=50 velocity=100 time=0@note_on channel=1 note=56 velocity=100 time=0@note_on channel=0 note=71 velocity=0 time=0.54878025@note_on channel=0 note=65 velocity=0 time=0@note_on channel=0 note=65 velocity=100 time=0@note_on channel=0 note=71 velocity=100 time=0@note_on channel=1 note=56 velocity=0 time=0@note_on channel=1 note=50 velocity=0 time=0@note_on channel=1 note=50 velocity=100 time=0@note_on channel=1 note=56 velocity=100 time=0@note_on channel=0 note=71 velocity=0 time=0.18292675@note_on channel=0 note=65 velocity=0 time=0@note_on channel=0 note=65 velocity=100 time=0@note_on channel=0 note=71 velocity=100 time=0@note_on channel=1 note=56 velocity=0 time=0@note_on channel=1 note=50 velocity=0 time=0@note_on channel=1 note=50 velocity=100 time=0@note_on channel=1 note=56 velocity=100 time=0@note_on channel=0 note=71 velocity=0 time=0.54878025@note_on channel=0 note=65 velocity=0 time=0@note_on channel=0 note=65 velocity=100 time=0@note_on channel=0 note=71 velocity=100 time=0@note_on channel=1 note=56 velocity=0 time=0@note_on channel=1 note=50 velocity=0 time=0@note_on channel=1 note=50 velocity=100 time=0@note_on channel=1 note=56 velocity=100 time=0@note_on channel=0 note=71 velocity=0 time=0.18292675@note_on channel=0 note=65 velocity=0 time=0@note_on channel=0 note=65 velocity=100 time=0@note_on channel=0 note=70 velocity=100 time=0@note_on channel=1 note=56 velocity=0 time=0@note_on channel=1 note=50 velocity=0 time=0@note_on channel=1 note=50 velocity=100 time=0@note_on channel=1 note=58 velocity=100 time=0@note_on channel=0 note=70 velocity=0 time=0.54878025@note_on channel=0 note=65 velocity=0 time=0@note_on channel=0 note=65 velocity=100 time=0@note_on channel=0 note=68 velocity=100 time=0@note_on channel=1 note=58 velocity=0 time=0@note_on channel=1 note=50 velocity=0 time=0@note_on channel=1 note=50 velocity=100 time=0@note_on channel=1 note=59 velocity=100 time=0@note_on channel=0 note=68 velocity=0 time=0.18292675@note_on channel=0 note=65 velocity=0 time=0@note_on channel=0 note=63 velocity=100 time=0@note_on channel=0 note=67 velocity=100 time=0@note_on channel=1 note=59 velocity=0 time=0@note_on channel=1 note=50 velocity=0 time=0@note_on channel=1 note=51 velocity=100 time=0@note_on channel=1 note=58 velocity=100 time=0@note_on channel=0 note=67 velocity=0 time=0.731707@note_on channel=0 note=63 velocity=0 time=0@note_on channel=0 note=64 velocity=100 time=0@note_on channel=1 note=58 velocity=0 time=0@note_on channel=1 note=51 velocity=0 time=0@note_on channel=1 note=52 velocity=100 time=0@note_on channel=0 note=64 velocity=0 time=1.463414@note_on channel=0 note=63 velocity=100 time=0@note_on channel=1 note=52 velocity=0 time=0@note_on channel=1 note=51 velocity=100 time=0@note_on channel=0 note=63 velocity=0 time=0.18292675@note_on channel=0 note=61 velocity=100 time=0@note_on channel=1 note=51 velocity=0 time=0@note_on channel=1 note=49 velocity=100 time=0@note_on channel=0 note=61 velocity=0 time=0.18292675@note_on channel=0 note=59 velocity=100 time=0@note_on channel=1 note=49 velocity=0 time=0@note_on channel=1 note=47 velocity=100 time=0@note_on channel=0 note=59 velocity=0 time=0.18292675@note_on channel=0 note=58 velocity=100 time=0@note_on channel=1 note=47 velocity=0 time=0@note_on channel=1 note=46 velocity=100 time=0@note_on channel=0 note=58 velocity=0 time=0.18292675@note_on channel=0 note=63 velocity=100 time=0@note_on channel=1 note=46 velocity=0 time=0@note_on channel=1 note=32 velocity=100 time=0@note_on channel=1 note=44 velocity=100 time=0@note_on channel=1 note=51 velocity=100 time=0@note_on channel=1 note=56 velocity=100 time=0@note_on channel=1 note=59 velocity=100 time=0@note_on channel=0 note=63 velocity=0 time=0.731707@note_on channel=0 note=63 velocity=100 time=0@note_on channel=1 note=59 velocity=0 time=0@note_on channel=1 note=51 velocity=0 time=0@note_on channel=1 note=56 velocity=0 time=0@note_on channel=1 note=51 velocity=100 time=0@note_on channel=1 note=56 velocity=100 time=0@note_on channel=1 note=59 velocity=100 time=0@note_on channel=0 note=63 velocity=0 time=0.54878025@note_on channel=0 note=63 velocity=100 time=0@note_on channel=1 note=59 velocity=0 time=0@note_on channel=1 note=51 velocity=0 time=0@note_on channel=1 note=56 velocity=0 time=0@note_on channel=1 note=59 velocity=100 time=0@note_on channel=1 note=56 velocity=100 time=0@note_on channel=1 note=51 velocity=100 time=0@note_on channel=0 note=63 velocity=0 time=0.18292675@note_on channel=0 note=63 velocity=100 time=0@note_on channel=1 note=51 velocity=0 time=0@note_on channel=1 note=59 velocity=0 time=0@note_on channel=1 note=56 velocity=0 time=0@note_on channel=1 note=32 velocity=0 time=0@note_on channel=1 note=32 velocity=100 time=0@note_on channel=1 note=59 velocity=100 time=0@note_on channel=1 note=56 velocity=100 time=0@note_on channel=1 note=51 velocity=100 time=0@note_on channel=0 note=63 velocity=0 time=0.54878025@note_on channel=0 note=63 velocity=100 time=0@note_on channel=1 note=51 velocity=0 time=0@note_on channel=1 note=59 velocity=0 time=0@note_on channel=1 note=56 velocity=0 time=0@note_on channel=1 note=59 velocity=100 time=0@note_on channel=1 note=56 velocity=100 time=0@note_on channel=1 note=51 velocity=100 time=0@note_on channel=0 note=63 velocity=0 time=0.18292675@note_on channel=0 note=63 velocity=100 time=0@note_on channel=1 note=51 velocity=0 time=0@note_on channel=1 note=59 velocity=0 time=0@note_on channel=1 note=56 velocity=0 time=0@note_on channel=1 note=59 velocity=100 time=0@note_on channel=1 note=56 velocity=100 time=0@note_on channel=1 note=51 velocity=100 time=0@note_on channel=0 note=63 velocity=0 time=0.54878025@note_on channel=0 note=63 velocity=100 time=0@note_on channel=1 note=51 velocity=0 time=0@note_on channel=1 note=59 velocity=0 time=0@note_on channel=1 note=56 velocity=0 time=0@note_on channel=1 note=59 velocity=100 time=0@note_on channel=1 note=56 velocity=100 time=0@note_on channel=1 note=51 velocity=100 time=0@note_on channel=0 note=63 velocity=0 time=0.18292675@note_on channel=0 note=63 velocity=100 time=0@note_on channel=1 note=51 velocity=0 time=0@note_on channel=1 note=59 velocity=0 time=0@note_on channel=1 note=44 velocity=0 time=0@note_on channel=1 note=32 velocity=0 time=0@note_on channel=1 note=56 velocity=0 time=0@note_on channel=1 note=61 velocity=100 time=0@note_on channel=1 note=58 velocity=100 time=0@note_on channel=1 note=51 velocity=100 time=0@note_on channel=1 note=39 velocity=100 time=0@note_on channel=1 note=39 velocity=0 time=0.54878025@note_on channel=1 note=39 velocity=100 time=0@note_on channel=1 note=39 velocity=0 time=0.18292675@note_on channel=1 note=43 velocity=100 time=0@note_on channel=1 note=43 velocity=0 time=0.54878025@note_on channel=1 note=46 velocity=100 time=0@note_on channel=1 note=46 velocity=0 time=0.18292675@note_on channel=1 note=51 velocity=100 time=0@note_on channel=0 note=63 velocity=0 time=0.731707@note_on channel=0 note=63 velocity=100 time=0@note_on channel=1 note=51 velocity=0 time=0@note_on channel=1 note=61 velocity=0 time=0@note_on channel=1 note=58 velocity=0 time=0@note_on channel=1 note=51 velocity=0 time=0@note_on channel=1 note=49 velocity=100 time=0@note_on channel=1 note=51 velocity=100 time=0@note_on channel=1 note=55 velocity=100 time=0@note_on channel=1 note=58 velocity=100 time=0@note_on channel=0 note=63 velocity=0 time=0.54878025@note_on channel=0 note=63 velocity=100 time=0@note_on channel=1 note=58 velocity=0 time=0@note_on channel=1 note=49 velocity=0 time=0@note_on channel=1 note=51 velocity=0 time=0@note_on channel=1 note=55 velocity=0 time=0@note_on channel=1 note=58 velocity=100 time=0@note_on channel=1 note=55 velocity=100 time=0@note_on channel=1 note=51 velocity=100 time=0@note_on channel=1 note=49 velocity=100 time=0@note_on channel=0 note=63 velocity=0 time=0.18292675@note_on channel=0 note=63 velocity=100 time=0@note_on channel=1 note=49 velocity=0 time=0@note_on channel=1 note=58 velocity=0 time=0@note_on channel=1 note=55 velocity=0 time=0@note_on channel=1 note=51 velocity=0 time=0@note_on channel=1 note=47 velocity=100 time=0@note_on channel=1 note=51 velocity=100 time=0@note_on channel=1 note=56 velocity=100 time=0@note_on channel=1 note=59 velocity=100 time=0@note_on channel=0 note=63 velocity=0 time=0.731707@note_on channel=0 note=63 velocity=100 time=0@note_on channel=1 note=59 velocity=0 time=0@note_on channel=1 note=47 velocity=0 time=0@note_on channel=1 note=51 velocity=0 time=0@note_on channel=1 note=56 velocity=0 time=0@note_on channel=1 note=51 velocity=100 time=0@note_on channel=1 note=56 velocity=100 time=0@note_on channel=1 note=59 velocity=100 time=0@note_on channel=1 note=46 velocity=100 time=0.3658535@note_on channel=0 note=63 velocity=0 time=0.18292675@note_on channel=0 note=63 velocity=100 time=0@note_on channel=1 note=46 velocity=0 time=0@note_on channel=1 note=51 velocity=0 time=0@note_on channel=1 note=56 velocity=0 time=0@note_on channel=1 note=59 velocity=0 time=0@note_on channel=1 note=44 velocity=100 time=0@note_on channel=1 note=51 velocity=100 time=0@note_on channel=1 note=56 velocity=100 time=0@note_on channel=1 note=59 velocity=100 time=0@note_on channel=0 note=63 velocity=0 time=0.18292675@note_on channel=0 note=63 velocity=100 time=0@note_on channel=1 note=59 velocity=0 time=0@note_on channel=1 note=44 velocity=0 time=0@note_on channel=1 note=51 velocity=0 time=0@note_on channel=1 note=56 velocity=0 time=0@note_on channel=1 note=43 velocity=100 time=0@note_on channel=1 note=51 velocity=100 time=0@note_on channel=1 note=58 velocity=100 time=0@note_on channel=1 note=61 velocity=100 time=0@note_on channel=0 note=63 velocity=0 time=0.731707@note_on channel=0 note=63 velocity=100 time=0@note_on channel=1 note=61 velocity=0 time=0@note_on channel=1 note=43 velocity=0 time=0@note_on channel=1 note=51 velocity=0 time=0@note_on channel=1 note=58 velocity=0 time=0@note_on channel=1 note=44 velocity=100 time=0@note_on channel=1 note=51 velocity=100 time=0@note_on channel=1 note=56 velocity=100 time=0@note_on channel=1 note=59 velocity=100 time=0@note_on channel=0 note=63 velocity=0 time=0.54878025@note_on channel=0 note=63 velocity=100 time=0@note_on channel=1 note=59 velocity=0 time=0@note_on channel=1 note=44 velocity=0 time=0@note_on channel=1 note=51 velocity=0 time=0@note_on channel=1 note=56 velocity=0 time=0@note_on channel=1 note=44 velocity=100 time=0@note_on channel=1 note=51 velocity=100 time=0@note_on channel=1 note=56 velocity=100 time=0@note_on channel=1 note=59 velocity=100 time=0@note_on channel=0 note=63 velocity=0 time=0.18292675@note_on channel=0 note=63 velocity=100 time=0@note_on channel=1 note=59 velocity=0 time=0@note_on channel=1 note=44 velocity=0 time=0@note_on channel=1 note=51 velocity=0 time=0@note_on channel=1 note=56 velocity=0 time=0@note_on channel=1 note=39 velocity=100 time=0@note_on channel=1 note=51 velocity=100 time=0@note_on channel=1 note=55 velocity=100 time=0@note_on channel=1 note=58 velocity=100 time=0@note_on channel=0 note=63 velocity=0 time=0.731707@note_on channel=0 note=63 velocity=100 time=0@note_on channel=1 note=58 velocity=0 time=0@note_on channel=1 note=39 velocity=0 time=0@note_on channel=1 note=51 velocity=0 time=0@note_on channel=1 note=55 velocity=0 time=0@note_on channel=1 note=39 velocity=100 time=0@note_on channel=1 note=51 velocity=100 time=0@note_on channel=1 note=55 velocity=100 time=0@note_on channel=1 note=58 velocity=100 time=0@note_on channel=0 note=63 velocity=0 time=0.731707@note_on channel=0 note=63 velocity=100 time=0@note_on channel=1 note=58 velocity=0 time=0@note_on channel=1 note=39 velocity=0 time=0@note_on channel=1 note=51 velocity=0 time=0@note_on channel=1 note=55 velocity=0 time=0@note_on channel=1 note=39 velocity=100 time=0@note_on channel=1 note=51 velocity=100 time=0@note_on channel=1 note=55 velocity=100 time=0@note_on channel=1 note=58 velocity=100 time=0@note_on channel=0 note=63 velocity=0 time=0.731707@note_on channel=0 note=63 velocity=100 time=0@note_on channel=1 note=58 velocity=0 time=0@note_on channel=1 note=39 velocity=0 time=0@note_on channel=1 note=51 velocity=0 time=0@note_on channel=1 note=55 velocity=0 time=0@note_on channel=1 note=51 velocity=100 time=0@note_on channel=0 note=63 velocity=0 time=0.54878025@note_on channel=0 note=63 velocity=100 time=0@note_on channel=1 note=51 velocity=0 time=0@note_on channel=1 note=51 velocity=100 time=0@note_on channel=0 note=63 velocity=0 time=0.18292675@note_on channel=0 note=63 velocity=100 time=0@note_on channel=1 note=51 velocity=0 time=0@note_on channel=1 note=32 velocity=100 time=0@note_on channel=1 note=44 velocity=100 time=0@note_on channel=1 note=51 velocity=100 time=0@note_on channel=1 note=56 velocity=100 time=0@note_on channel=1 note=60 velocity=100 time=0@note_on channel=0 note=63 velocity=0 time=0.731707@note_on channel=0 note=63 velocity=100 time=0@note_on channel=1 note=60 velocity=0 time=0@note_on channel=1 note=51 velocity=0 time=0@note_on channel=1 note=56 velocity=0 time=0@note_on channel=1 note=51 velocity=100 time=0@note_on channel=1 note=56 velocity=100 time=0@note_on channel=1 note=60 velocity=100 time=0@note_on channel=0 note=63 velocity=0 time=0.54878025@note_on channel=0 note=63 velocity=100 time=0@note_on channel=1 note=60 velocity=0 time=0@note_on channel=1 note=51 velocity=0 time=0@note_on channel=1 note=56 velocity=0 time=0@note_on channel=1 note=51 velocity=100 time=0@note_on channel=1 note=56 velocity=100 time=0@note_on channel=1 note=60 velocity=100 time=0@note_on channel=0 note=63 velocity=0 time=0.18292675@note_on channel=0 note=63 velocity=100 time=0@note_on channel=1 note=60 velocity=0 time=0@note_on channel=1 note=51 velocity=0 time=0@note_on channel=1 note=56 velocity=0 time=0@note_on channel=1 note=32 velocity=0 time=0@note_on channel=1 note=32 velocity=100 time=0@note_on channel=1 note=51 velocity=100 time=0@note_on channel=1 note=56 velocity=100 time=0@note_on channel=1 note=60 velocity=100 time=0@note_on channel=0 note=63 velocity=0 time=0.54878025@note_on channel=0 note=63 velocity=100 time=0@note_on channel=1 note=60 velocity=0 time=0@note_on channel=1 note=51 velocity=0 time=0@note_on channel=1 note=56 velocity=0 time=0@note_on channel=1 note=51 velocity=100 time=0@note_on channel=1 note=56 velocity=100 time=0@note_on channel=1 note=60 velocity=100 time=0@note_on channel=0 note=63 velocity=0 time=0.18292675@note_on channel=0 note=61 velocity=100 time=0@note_on channel=1 note=60 velocity=0 time=0@note_on channel=1 note=51 velocity=0 time=0@note_on channel=1 note=56 velocity=0 time=0@note_on channel=1 note=49 velocity=100 time=0@note_on channel=1 note=56 velocity=100 time=0@note_on channel=1 note=58 velocity=100 time=0@note_on channel=0 note=61 velocity=0 time=0.54878025@note_on channel=0 note=63 velocity=100 time=0@note_on channel=1 note=58 velocity=0 time=0@note_on channel=1 note=49 velocity=0 time=0@note_on channel=1 note=56 velocity=0 time=0@note_on channel=1 note=51 velocity=100 time=0@note_on channel=1 note=56 velocity=100 time=0@note_on channel=1 note=60 velocity=100 time=0@note_on channel=0 note=63 velocity=0 time=0.18292675@note_on channel=0 note=64 velocity=100 time=0@note_on channel=1 note=60 velocity=0 time=0@note_on channel=1 note=51 velocity=0 time=0@note_on channel=1 note=44 velocity=0 time=0@note_on channel=1 note=32 velocity=0 time=0@note_on channel=1 note=56 velocity=0 time=0@note_on channel=1 note=37 velocity=100 time=0@note_on channel=1 note=52 velocity=100 time=0@note_on channel=1 note=56 velocity=100 time=0@note_on channel=1 note=61 velocity=100 time=0@note_on channel=1 note=37 velocity=0 time=0.54878025@note_on channel=1 note=37 velocity=100 time=0@note_on channel=1 note=37 velocity=0 time=0.18292675@note_on channel=1 note=40 velocity=100 time=0@note_on channel=1 note=40 velocity=0 time=0.54878025@note_on channel=1 note=44 velocity=100 time=0@note_on channel=1 note=44 velocity=0 time=0.18292675@note_on channel=1 note=49 velocity=100 time=0@note_on channel=0 note=64 velocity=0 time=0.731707@note_on channel=0 note=64 velocity=100 time=0@note_on channel=1 note=49 velocity=0 time=0@note_on channel=1 note=52 velocity=0 time=0@note_on channel=1 note=56 velocity=0 time=0@note_on channel=1 note=61 velocity=0 time=0@note_on channel=1 note=52 velocity=100 time=0@note_on channel=1 note=56 velocity=100 time=0@note_on channel=1 note=61 velocity=100 time=0@note_on channel=0 note=64 velocity=0 time=0.731707@note_on channel=0 note=61 velocity=100 time=0@note_on channel=0 note=64 velocity=100 time=0@note_on channel=0 note=69 velocity=100 time=0@note_on channel=0 note=73 velocity=100 time=0@note_on channel=1 note=61 velocity=0 time=0@note_on channel=1 note=56 velocity=0 time=0@note_on channel=1 note=52 velocity=0 time=0@note_on channel=1 note=33 velocity=100 time=0.54878025@note_on channel=1 note=45 velocity=100 time=0@note_on channel=1 note=45 velocity=0 time=0.18292675@note_on channel=1 note=33 velocity=0 time=0@note_on channel=1 note=37 velocity=100 time=0@note_on channel=1 note=49 velocity=100 time=0@note_on channel=1 note=49 velocity=0 time=0.54878025@note_on channel=1 note=37 velocity=0 time=0@note_on channel=1 note=40 velocity=100 time=0@note_on channel=1 note=52 velocity=100 time=0@note_on channel=1 note=52 velocity=0 time=0.18292675@note_on channel=1 note=40 velocity=0 time=0@note_on channel=1 note=45 velocity=100 time=0@note_on channel=1 note=57 velocity=100 time=0@note_on channel=0 note=73 velocity=0 time=0.731707@note_on channel=0 note=61 velocity=0 time=0@note_on channel=0 note=64 velocity=0 time=0@note_on channel=0 note=69 velocity=0 time=0@note_on channel=0 note=61 velocity=100 time=0@note_on channel=0 note=64 velocity=100 time=0@note_on channel=0 note=69 velocity=100 time=0@note_on channel=0 note=73 velocity=100 time=0@note_on channel=1 note=57 velocity=0 time=0@note_on channel=1 note=45 velocity=0 time=0@note_on channel=0 note=73 velocity=0 time=0.731707@note_on channel=0 note=61 velocity=0 time=0@note_on channel=0 note=64 velocity=0 time=0@note_on channel=0 note=69 velocity=0 time=0@note_on channel=0 note=70 velocity=100 time=0@note_on channel=0 note=73 velocity=100 time=0@note_on channel=0 note=75 velocity=100 time=0@note_on channel=0 note=82 velocity=100 time=0@note_on channel=1 note=55 velocity=100 time=0.54878025@note_on channel=1 note=43 velocity=100 time=0@note_on channel=1 note=43 velocity=0 time=0.18292675@note_on channel=1 note=55 velocity=0 time=0@note_on channel=1 note=58 velocity=100 time=0@note_on channel=1 note=46 velocity=100 time=0@note_on channel=1 note=46 velocity=0 time=0.54878025@note_on channel=1 note=58 velocity=0 time=0@note_on channel=1 note=63 velocity=100 time=0@note_on channel=1 note=51 velocity=100 time=0@note_on channel=1 note=51 velocity=0 time=0.18292675@note_on channel=1 note=63 velocity=0 time=0@note_on channel=1 note=67 velocity=100 time=0@note_on channel=1 note=55 velocity=100 time=0@note_on channel=0 note=82 velocity=0 time=0.731707@note_on channel=0 note=70 velocity=0 time=0@note_on channel=0 note=73 velocity=0 time=0@note_on channel=0 note=75 velocity=0 time=0@note_on channel=0 note=82 velocity=100 time=0@note_on channel=0 note=75 velocity=100 time=0@note_on channel=0 note=73 velocity=100 time=0@note_on channel=0 note=70 velocity=100 time=0@note_on channel=1 note=55 velocity=0 time=0@note_on channel=1 note=67 velocity=0 time=0@note_on channel=1 note=43 velocity=100 time=0@note_on channel=1 note=55 velocity=100 time=0@note_on channel=0 note=70 velocity=0 time=0.731707@note_on channel=0 note=82 velocity=0 time=0@note_on channel=0 note=75 velocity=0 time=0@note_on channel=0 note=73 velocity=0 time=0@note_on channel=0 note=71 velocity=100 time=0@note_on channel=0 note=75 velocity=100 time=0@note_on channel=0 note=83 velocity=100 time=0@note_on channel=1 note=55 velocity=0 time=0@note_on channel=1 note=43 velocity=0 time=0@note_on channel=1 note=44 velocity=100 time=0@note_on channel=1 note=56 velocity=100 time=0@note_on channel=0 note=83 velocity=0 time=0.731707@note_on channel=0 note=75 velocity=0 time=0@note_on channel=0 note=71 velocity=0 time=0@note_on channel=1 note=56 velocity=0 time=0@note_on channel=1 note=44 velocity=0 time=0@note_on channel=0 note=70 velocity=100 time=0.731707@note_on channel=0 note=73 velocity=100 time=0@note_on channel=0 note=76 velocity=100 time=0@note_on channel=0 note=82 velocity=100 time=0@note_on channel=1 note=37 velocity=100 time=0@note_on channel=1 note=49 velocity=100 time=0@note_on channel=0 note=82 velocity=0 time=0.731707@note_on channel=0 note=70 velocity=0 time=0@note_on channel=0 note=73 velocity=0 time=0@note_on channel=0 note=76 velocity=0 time=0@note_on channel=0 note=67 velocity=100 time=0@note_on channel=0 note=70 velocity=100 time=0@note_on channel=0 note=73 velocity=100 time=0@note_on channel=0 note=79 velocity=100 time=0@note_on channel=1 note=49 velocity=0 time=0@note_on channel=1 note=37 velocity=0 time=0@note_on channel=1 note=39 velocity=100 time=0@note_on channel=1 note=51 velocity=100 time=0@note_on channel=0 note=79 velocity=0 time=0.731707@note_on channel=0 note=67 velocity=0 time=0@note_on channel=0 note=70 velocity=0 time=0@note_on channel=0 note=73 velocity=0 time=0@note_on channel=0 note=68 velocity=100 time=0@note_on channel=0 note=71 velocity=100 time=0@note_on channel=0 note=80 velocity=100 time=0@note_on channel=1 note=51 velocity=0 time=0@note_on channel=1 note=39 velocity=0 time=0@note_on channel=1 note=32 velocity=100 time=0@note_on channel=1 note=44 velocity=100 time=0@note_on channel=0 note=80 velocity=0 time=0.731707@note_on channel=0 note=71 velocity=0 time=0@note_on channel=0 note=68 velocity=0 time=0@note_on channel=1 note=44 velocity=0 time=0@note_on channel=1 note=32 velocity=0 time=0@note_on channel=1 note=44 velocity=100 time=0@note_on channel=1 note=44 velocity=0 time=0.54878025@note_on channel=1 note=44 velocity=100 time=0@note_on channel=1 note=44 velocity=0 time=0.18292675@note_on channel=1 note=44 velocity=100 time=0@note_on channel=0 note=69 velocity=100 time=0.731707@note_on channel=0 note=66 velocity=100 time=0@note_on channel=1 note=44 velocity=0 time=0@note_on channel=1 note=48 velocity=100 time=0@note_on channel=1 note=44 velocity=100 time=0@note_on channel=0 note=66 velocity=0 time=0.54878025@note_on channel=0 note=69 velocity=0 time=0@note_on channel=0 note=68 velocity=100 time=0@note_on channel=0 note=64 velocity=100 time=0@note_on channel=1 note=48 velocity=0 time=0@note_on channel=1 note=49 velocity=100 time=0@note_on channel=0 note=64 velocity=0 time=0.18292675@note_on channel=0 note=68 velocity=0 time=0@note_on channel=0 note=66 velocity=100 time=0@note_on channel=0 note=63 velocity=100 time=0@note_on channel=1 note=49 velocity=0 time=0@note_on channel=1 note=44 velocity=0 time=0@note_on channel=1 note=44 velocity=100 time=0@note_on channel=1 note=51 velocity=100 time=0@note_on channel=1 note=44 velocity=0 time=0.731707@note_on channel=1 note=44 velocity=100 time=0@note_on channel=0 note=63 velocity=0 time=0.54878025@note_on channel=0 note=66 velocity=0 time=0@note_on channel=0 note=61 velocity=100 time=0@note_on channel=0 note=64 velocity=100 time=0@note_on channel=1 note=51 velocity=0 time=0@note_on channel=1 note=52 velocity=100 time=0@note_on channel=0 note=64 velocity=0 time=0.18292675@note_on channel=0 note=61 velocity=0 time=0@note_on channel=0 note=63 velocity=100 time=0@note_on channel=0 note=61 velocity=100 time=0@note_on channel=1 note=52 velocity=0 time=0@note_on channel=1 note=44 velocity=0 time=0@note_on channel=1 note=54 velocity=100 time=0@note_on channel=1 note=44 velocity=100 time=0@note_on channel=0 note=61 velocity=0 time=0.731707@note_on channel=0 note=63 velocity=0 time=0@note_on channel=0 note=63 velocity=100 time=0@note_on channel=0 note=61 velocity=100 time=0@note_on channel=1 note=44 velocity=0 time=0@note_on channel=1 note=54 velocity=0 time=0@note_on channel=1 note=55 velocity=100 time=0@note_on channel=1 note=44 velocity=100 time=0@note_on channel=0 note=61 velocity=0 time=0.731707@note_on channel=0 note=63 velocity=0 time=0@note_on channel=0 note=63 velocity=100 time=0@note_on channel=0 note=60 velocity=100 time=0@note_on channel=1 note=44 velocity=0 time=0@note_on channel=1 note=55 velocity=0 time=0@note_on channel=1 note=44 velocity=100 time=0@note_on channel=1 note=56 velocity=100 time=0@note_on channel=0 note=60 velocity=0 time=0.731707@note_on channel=0 note=63 velocity=0 time=0@note_on channel=1 note=56 velocity=0 time=0@note_on channel=1 note=44 velocity=0 time=0@note_on channel=1 note=44 velocity=100 time=0@note_on channel=1 note=44 velocity=0 time=0.54878025@note_on channel=1 note=44 velocity=100 time=0@note_on channel=1 note=44 velocity=0 time=0.18292675@note_on channel=1 note=44 velocity=100 time=0@note_on channel=0 note=72 velocity=100 time=0.731707@note_on channel=0 note=66 velocity=100 time=0@note_on channel=0 note=63 velocity=100 time=0@note_on channel=1 note=44 velocity=0 time=0@note_on channel=1 note=57 velocity=100 time=0@note_on channel=1 note=44 velocity=100 time=0@note_on channel=0 note=63 velocity=0 time=0.640243625@note_on channel=0 note=66 velocity=0 time=0@note_on channel=0 note=72 velocity=0 time=0@note_on channel=0 note=64 velocity=100 time=0@note_on channel=0 note=68 velocity=100 time=0@note_on channel=0 note=73 velocity=100 time=0@note_on channel=1 note=57 velocity=0 time=0@note_on channel=1 note=56 velocity=100 time=0@note_on channel=0 note=73 velocity=0 time=0.091463375@note_on channel=0 note=68 velocity=0 time=0@note_on channel=0 note=64 velocity=0 time=0@note_on channel=0 note=75 velocity=100 time=0@note_on channel=0 note=69 velocity=100 time=0@note_on channel=0 note=66 velocity=100 time=0@note_on channel=1 note=56 velocity=0 time=0@note_on channel=1 note=44 velocity=0 time=0@note_on channel=1 note=44 velocity=100 time=0@note_on channel=1 note=54 velocity=100 time=0@note_on channel=1 note=44 velocity=0 time=0.731707@note_on channel=1 note=44 velocity=100 time=0@note_on channel=0 note=66 velocity=0 time=0.54878025@note_on channel=0 note=69 velocity=0 time=0@note_on channel=0 note=75 velocity=0 time=0@note_on channel=0 note=76 velocity=100 time=0@note_on channel=0 note=73 velocity=100 time=0@note_on channel=0 note=68 velocity=100 time=0@note_on channel=1 note=54 velocity=0 time=0@note_on channel=1 note=52 velocity=100 time=0@note_on channel=0 note=68 velocity=0 time=0.18292675@note_on channel=0 note=73 velocity=0 time=0@note_on channel=0 note=76 velocity=0 time=0@note_on channel=0 note=69 velocity=100 time=0@note_on channel=0 note=78 velocity=100 time=0@note_on channel=0 note=72 velocity=100 time=0@note_on channel=1 note=52 velocity=0 time=0@note_on channel=1 note=44 velocity=0 time=0@note_on channel=1 note=51 velocity=100 time=0@note_on channel=1 note=44 velocity=100 time=0@note_on channel=0 note=72 velocity=0 time=0.731707@note_on channel=0 note=78 velocity=0 time=0@note_on channel=0 note=69 velocity=0 time=0@note_on channel=0 note=79 velocity=100 time=0@note_on channel=0 note=76 velocity=100 time=0@note_on channel=0 note=70 velocity=100 time=0@note_on channel=1 note=44 velocity=0 time=0@note_on channel=1 note=51 velocity=0 time=0@note_on channel=1 note=49 velocity=100 time=0@note_on channel=1 note=44 velocity=100 time=0@note_on channel=0 note=70 velocity=0 time=0.731707@note_on channel=0 note=76 velocity=0 time=0@note_on channel=0 note=79 velocity=0 time=0@note_on channel=0 note=80 velocity=100 time=0@note_on channel=0 note=75 velocity=100 time=0@note_on channel=0 note=72 velocity=100 time=0@note_on channel=1 note=44 velocity=0 time=0@note_on channel=1 note=49 velocity=0 time=0@note_on channel=1 note=44 velocity=100 time=0@note_on channel=1 note=48 velocity=100 time=0@note_on channel=1 note=44 velocity=0 time=0.731707@note_on channel=1 note=44 velocity=100 time=0@note_on channel=1 note=44 velocity=0 time=0.54878025@note_on channel=1 note=44 velocity=100 time=0@note_on channel=0 note=72 velocity=0 time=0.18292675@note_on channel=0 note=75 velocity=0 time=0@note_on channel=0 note=80 velocity=0 time=0@note_on channel=0 note=69 velocity=100 time=0@note_on channel=0 note=81 velocity=100 time=0@note_on channel=1 note=44 velocity=0 time=0@note_on channel=1 note=48 velocity=0 time=0@note_on channel=1 note=52 velocity=100 time=0@note_on channel=1 note=49 velocity=100 time=0@note_on channel=1 note=44 velocity=100 time=0@note_on channel=1 note=44 velocity=0 time=0.731707@note_on channel=1 note=44 velocity=100 time=0@note_on channel=0 note=81 velocity=0 time=0.54878025@note_on channel=0 note=69 velocity=0 time=0@note_on channel=0 note=79 velocity=100 time=0@note_on channel=0 note=67 velocity=100 time=0@note_on channel=1 note=44 velocity=0 time=0@note_on channel=1 note=44 velocity=100 time=0@note_on channel=0 note=67 velocity=0 time=0.18292675@note_on channel=0 note=79 velocity=0 time=0@note_on channel=0 note=80 velocity=100 time=0@note_on channel=0 note=68 velocity=100 time=0@note_on channel=1 note=44 velocity=0 time=0@note_on channel=1 note=49 velocity=0 time=0@note_on channel=1 note=52 velocity=0 time=0@note_on channel=1 note=44 velocity=100 time=0@note_on channel=1 note=51 velocity=100 time=0@note_on channel=1 note=48 velocity=100 time=0@note_on channel=1 note=44 velocity=100 time=0@note_on channel=0 note=68 velocity=0 time=0.731707@note_on channel=0 note=80 velocity=0 time=0@note_on channel=1 note=44 velocity=0 time=0@note_on channel=1 note=48 velocity=0 time=0@note_on channel=1 note=51 velocity=0 time=0@note_on channel=1 note=32 velocity=100 time=0@note_on channel=1 note=32 velocity=0 time=0.54878025@note_on channel=1 note=32 velocity=100 time=0@note_on channel=0 note=69 velocity=100 time=0.18292675@note_on channel=0 note=64 velocity=100 time=0@note_on channel=0 note=61 velocity=100 time=0@note_on channel=1 note=32 velocity=0 time=0@note_on channel=1 note=32 velocity=100 time=0@note_on channel=1 note=32 velocity=0 time=0.731707@note_on channel=1 note=32 velocity=100 time=0@note_on channel=0 note=69 velocity=0 time=0.54878025@note_on channel=0 note=67 velocity=100 time=0@note_on channel=1 note=32 velocity=0 time=0@note_on channel=1 note=32 velocity=100 time=0@note_on channel=0 note=67 velocity=0 time=0.18292675@note_on channel=0 note=61 velocity=0 time=0@note_on channel=0 note=64 velocity=0 time=0@control_change channel=0 control=64 value=127 time=0@note_on channel=0 note=68 velocity=100 time=0@note_on channel=0 note=63 velocity=100 time=0@note_on channel=0 note=60 velocity=100 time=0@note_on channel=1 note=32 velocity=0 time=0@note_on channel=1 note=44 velocity=0 time=0@control_change channel=1 control=64 value=127 time=0@note_on channel=1 note=32 velocity=100 time=0@note_on channel=1 note=44 velocity=100 time=0@note_on channel=0 note=60 velocity=0 time=0.731707@note_on channel=0 note=63 velocity=0 time=0@note_on channel=0 note=68 velocity=0 time=0@note_on channel=1 note=32 velocity=0 time=0@note_on channel=1 note=32 velocity=100 time=0@note_on channel=1 note=32 velocity=0 time=0.54878025@note_on channel=1 note=32 velocity=100 time=0@note_on channel=0 note=60 velocity=100 time=0.18292675@note_on channel=0 note=63 velocity=100 time=0@note_on channel=1 note=32 velocity=0 time=0@note_on channel=1 note=32 velocity=100 time=0@note_on channel=0 note=63 velocity=0 time=0.731707@note_on channel=0 note=60 velocity=0 time=0@note_on channel=0 note=60 velocity=100 time=0@note_on channel=0 note=63 velocity=100 time=0@note_on channel=1 note=32 velocity=0 time=0@note_on channel=1 note=32 velocity=100 time=0@note_on channel=1 note=32 velocity=0 time=0.54878025@note_on channel=1 note=32 velocity=100 time=0@note_on channel=0 note=63 velocity=0 time=0.18292675@note_on channel=0 note=60 velocity=0 time=0@note_on channel=0 note=63 velocity=100 time=0@note_on channel=0 note=60 velocity=100 time=0@note_on channel=0 note=56 velocity=100 time=0@note_on channel=1 note=32 velocity=0 time=0@note_on channel=1 note=44 velocity=0 time=0@note_on channel=1 note=44 velocity=100 time=0@note_on channel=1 note=34 velocity=100 time=0@control_change channel=1 control=64 value=0 time=1.463414@note_on channel=0 note=56 velocity=0 time=0.731707@note_on channel=0 note=60 velocity=0 time=0@note_on channel=0 note=63 velocity=0 time=0@control_change channel=0 control=64 value=0 time=0@note_on channel=1 note=34 velocity=0 time=0@note_on channel=1 note=44 velocity=0 time=0@<meta message end_of_track time=0>@