<meta message track_name name='Blues.mid' time=0>@<meta message smpte_offset frame_rate=25 hours=32 minutes=0 seconds=0 frames=0 sub_frames=0 time=0>@<meta message set_tempo tempo=428571 time=0>@<meta message time_signature numerator=4 denominator=4 clocks_per_click=24 notated_32nd_notes_per_beat=8 time=0>@<meta message instrument_name name='QuickTime Music' time=0>@<meta message track_name name='F/PK   8 #2' time=0>@note_on channel=0 note=48 velocity=43 time=0@note_on channel=0 note=48 velocity=36 time=0@note_on channel=0 note=55 velocity=75 time=0@program_change channel=0 program=26 time=0@note_on channel=0 note=55 velocity=75 time=0@note_on channel=0 note=64 velocity=68 time=0@note_on channel=0 note=64 velocity=77 time=0@note_on channel=0 note=55 velocity=71 time=0@note_on channel=0 note=64 velocity=80 time=0@<meta message instrument_name name='QuickTime Music' time=0>@<meta message track_name name='Track 1 #2' time=0>@program_change channel=9 program=0 time=0@<meta message instrument_name name='QuickTime Music' time=0>@<meta message track_name name='Track 2 #2' time=0>@note_on channel=2 note=43 velocity=92 time=0@note_on channel=2 note=48 velocity=68 time=0@program_change channel=2 program=33 time=0@<meta message instrument_name name='QuickTime Music' time=0>@<meta message track_name name='R/LICK 2 #2' time=0>@program_change channel=3 program=24 time=0@note_on channel=0 note=55 velocity=0 time=0.00267856875@note_on channel=9 note=36 velocity=94 time=0@note_on channel=9 note=42 velocity=62 time=0@note_on channel=2 note=50 velocity=18 time=0.00714285@note_on channel=3 note=63 velocity=104 time=0@note_on channel=0 note=53 velocity=75 time=0.01696426875@note_on channel=0 note=55 velocity=74 time=0@note_on channel=3 note=65 velocity=127 time=0.010714275@note_on channel=0 note=53 velocity=0 time=0.00089285625@note_on channel=3 note=65 velocity=127 time=0.00803570625@note_on channel=2 note=43 velocity=0 time=0.00267856875@pitchwheel channel=3 pitch=-693 time=0@note_on channel=3 note=63 velocity=0 time=0.003571425@pitchwheel channel=3 pitch=-147 time=0.02946425625@note_on channel=2 note=50 velocity=0 time=0.015178556250000001@pitchwheel channel=3 pitch=-124 time=0.00982141875@pitchwheel channel=3 pitch=0 time=0.0196428375@note_on channel=9 note=36 velocity=0 time=0.04553566875@note_on channel=9 note=42 velocity=0 time=0.03303568125@note_on channel=0 note=72 velocity=64 time=0.03571425@note_on channel=0 note=72 velocity=60 time=0.0089285625@control_change channel=3 control=1 value=2 time=0.0089285625@note_on channel=0 note=67 velocity=59 time=0.0089285625@note_on channel=9 note=42 velocity=79 time=0.02053569375@note_on channel=9 note=36 velocity=73 time=0.00267856875@note_on channel=0 note=55 velocity=0 time=0.05089280625@note_on channel=0 note=55 velocity=0 time=0.046428525@note_on channel=0 note=55 velocity=0 time=0.00267856875@note_on channel=0 note=72 velocity=0 time=0.0017857125@note_on channel=0 note=64 velocity=0 time=0.00714285@note_on channel=0 note=65 velocity=77 time=0.0017857125@note_on channel=0 note=72 velocity=0 time=0.00714285@note_on channel=0 note=65 velocity=78 time=0.017857125@note_on channel=0 note=57 velocity=63 time=0.0017857125@note_on channel=0 note=65 velocity=87 time=0@note_on channel=0 note=57 velocity=83 time=0@note_on channel=9 note=42 velocity=64 time=0.003571425@note_on channel=0 note=57 velocity=86 time=0.00089285625@note_on channel=0 note=64 velocity=0 time=0.00446428125@note_on channel=9 note=42 velocity=0 time=0.00803570625@note_on channel=9 note=42 velocity=0 time=0@note_on channel=9 note=36 velocity=0 time=0.01696426875@note_on channel=0 note=67 velocity=0 time=0.00624999375@note_on channel=0 note=64 velocity=0 time=0.0428571@note_on channel=0 note=48 velocity=0 time=0.03303568125@note_on channel=0 note=48 velocity=0 time=0.00714285@note_on channel=0 note=57 velocity=0 time=0.00446428125@note_on channel=0 note=57 velocity=0 time=0.00446428125@note_on channel=0 note=65 velocity=0 time=0.0017857125@note_on channel=0 note=57 velocity=0 time=0.02053569375@note_on channel=0 note=65 velocity=0 time=0.00267856875@note_on channel=0 note=65 velocity=0 time=0.00803570625@note_on channel=9 note=42 velocity=68 time=0.1232141625@note_on channel=0 note=48 velocity=36 time=0.00624999375@note_on channel=0 note=48 velocity=29 time=0@note_on channel=0 note=48 velocity=39 time=0@note_on channel=0 note=58 velocity=87 time=0.12767844375@note_on channel=0 note=67 velocity=87 time=0.0017857125@note_on channel=0 note=58 velocity=87 time=0.00446428125@note_on channel=0 note=67 velocity=87 time=0@note_on channel=0 note=58 velocity=87 time=0@note_on channel=0 note=66 velocity=87 time=0@note_on channel=0 note=67 velocity=87 time=0@note_on channel=9 note=36 velocity=88 time=0.003571425@note_on channel=9 note=42 velocity=73 time=0@note_on channel=0 note=66 velocity=0 time=0.00089285625@note_on channel=9 note=42 velocity=0 time=0@note_on channel=9 note=42 velocity=0 time=0@note_on channel=0 note=58 velocity=0 time=0.11160703125@note_on channel=0 note=48 velocity=0 time=0.01160713125@note_on channel=0 note=67 velocity=0 time=0.00446428125@note_on channel=0 note=67 velocity=0 time=0.0017857125@note_on channel=0 note=58 velocity=0 time=0.00714285@note_on channel=0 note=67 velocity=0 time=0@note_on channel=0 note=58 velocity=0 time=0.00446428125@note_on channel=0 note=48 velocity=0 time=0.01339284375@note_on channel=0 note=48 velocity=0 time=0.00446428125@note_on channel=9 note=36 velocity=0 time=0.0803570625@note_on channel=0 note=48 velocity=43 time=0.02410711875@note_on channel=9 note=42 velocity=75 time=0.02142855@note_on channel=0 note=48 velocity=29 time=0.0053571375@note_on channel=0 note=48 velocity=30 time=0@note_on channel=0 note=57 velocity=87 time=0.10714275@note_on channel=0 note=65 velocity=87 time=0@note_on channel=0 note=57 velocity=82 time=0.0267856875@note_on channel=0 note=65 velocity=80 time=0@note_on channel=0 note=57 velocity=87 time=0@note_on channel=0 note=65 velocity=87 time=0@note_on channel=9 note=42 velocity=57 time=0.003571425@note_on channel=9 note=42 velocity=0 time=0.01160713125@note_on channel=9 note=42 velocity=0 time=0@note_on channel=3 note=65 velocity=0 time=0.017857125@note_on channel=3 note=65 velocity=0 time=0@note_on channel=0 note=65 velocity=0 time=0.0696427875@note_on channel=0 note=48 velocity=0 time=0.00446428125@note_on channel=0 note=57 velocity=0 time=0.0160714125@note_on channel=0 note=48 velocity=0 time=0.00446428125@note_on channel=0 note=57 velocity=0 time=0@note_on channel=0 note=65 velocity=0 time=0@note_on channel=0 note=65 velocity=0 time=0.01339284375@note_on channel=2 note=48 velocity=0 time=0.00267856875@note_on channel=0 note=57 velocity=0 time=0.003571425@note_on channel=0 note=53 velocity=77 time=0.09374990625@note_on channel=0 note=63 velocity=75 time=0@note_on channel=0 note=53 velocity=80 time=0.0267856875@note_on channel=0 note=63 velocity=78 time=0@note_on channel=0 note=53 velocity=77 time=0@note_on channel=0 note=63 velocity=71 time=0@note_on channel=2 note=43 velocity=85 time=0.0053571375@note_on channel=9 note=46 velocity=67 time=0.003571425@note_on channel=0 note=48 velocity=36 time=0.017857125@note_on channel=9 note=38 velocity=42 time=0.02053569375@note_on channel=9 note=46 velocity=0 time=0.046428525@note_on channel=9 note=38 velocity=0 time=0.00714285@note_on channel=0 note=53 velocity=0 time=0.00624999375@note_on channel=0 note=53 velocity=0 time=0@note_on channel=3 note=63 velocity=104 time=0.00089285625@note_on channel=0 note=55 velocity=75 time=0.02589283125@note_on channel=3 note=65 velocity=127 time=0.0017857125@note_on channel=3 note=65 velocity=127 time=0.0089285625@pitchwheel channel=3 pitch=-693 time=0.00267856875@note_on channel=0 note=63 velocity=0 time=0.00267856875@note_on channel=3 note=63 velocity=0 time=0.00089285625@note_on channel=0 note=53 velocity=0 time=0.00089285625@note_on channel=0 note=63 velocity=0 time=0.00714285@note_on channel=0 note=53 velocity=72 time=0.0017857125@note_on channel=0 note=55 velocity=71 time=0@note_on channel=0 note=64 velocity=66 time=0@note_on channel=0 note=55 velocity=75 time=0@note_on channel=0 note=64 velocity=68 time=0@note_on channel=0 note=64 velocity=77 time=0@note_on channel=0 note=55 velocity=71 time=0@note_on channel=0 note=64 velocity=80 time=0@note_on channel=9 note=40 velocity=20 time=0@note_on channel=0 note=55 velocity=0 time=0.00267856875@note_on channel=9 note=42 velocity=62 time=0@note_on channel=2 note=48 velocity=93 time=0@note_on channel=9 note=36 velocity=94 time=0.0017857125@note_on channel=0 note=63 velocity=0 time=0.00714285@note_on channel=0 note=53 velocity=0 time=0@pitchwheel channel=3 pitch=-147 time=0.00803570625@note_on channel=0 note=53 velocity=75 time=0.00714285@note_on channel=0 note=55 velocity=74 time=0@note_on channel=2 note=43 velocity=0 time=0.010714275@note_on channel=0 note=53 velocity=0 time=0.00089285625@pitchwheel channel=3 pitch=-124 time=0.00624999375@pitchwheel channel=3 pitch=0 time=0.0196428375@note_on channel=9 note=40 velocity=0 time=0.07857135@note_on channel=9 note=40 velocity=28 time=0.00714285@note_on channel=9 note=36 velocity=0 time=0.02410711875@control_change channel=3 control=1 value=2 time=0.022321406250000002@note_on channel=9 note=42 velocity=0 time=0.0089285625@note_on channel=0 note=72 velocity=64 time=0.03571425@note_on channel=0 note=72 velocity=60 time=0.0089285625@note_on channel=0 note=67 velocity=87 time=0.017857125@note_on channel=0 note=67 velocity=59 time=0@note_on channel=9 note=42 velocity=79 time=0.02053569375@note_on channel=9 note=40 velocity=36 time=0.003571425@note_on channel=9 note=36 velocity=73 time=0.00089285625@note_on channel=9 note=40 velocity=0 time=0.00982141875@note_on channel=9 note=40 velocity=0 time=0@note_on channel=0 note=55 velocity=0 time=0.030357112500000002@note_on channel=0 note=55 velocity=0 time=0.0089285625@note_on channel=2 note=48 velocity=0 time=0.02053569375@note_on channel=0 note=55 velocity=0 time=0.02589283125@note_on channel=0 note=64 velocity=0 time=0.00267856875@note_on channel=0 note=55 velocity=0 time=0@note_on channel=0 note=72 velocity=0 time=0.0017857125@note_on channel=0 note=64 velocity=0 time=0.00714285@note_on channel=0 note=65 velocity=77 time=0.0017857125@note_on channel=0 note=72 velocity=0 time=0.00714285@note_on channel=0 note=65 velocity=78 time=0.017857125@note_on channel=0 note=65 velocity=87 time=0.0017857125@note_on channel=0 note=57 velocity=63 time=0@note_on channel=0 note=65 velocity=87 time=0@note_on channel=0 note=57 velocity=83 time=0@note_on channel=9 note=42 velocity=64 time=0.003571425@note_on channel=0 note=57 velocity=86 time=0.00089285625@note_on channel=9 note=40 velocity=46 time=0.00267856875@note_on channel=0 note=64 velocity=0 time=0.0017857125@note_on channel=2 note=48 velocity=93 time=0.0053571375@note_on channel=9 note=42 velocity=0 time=0.00267856875@note_on channel=9 note=42 velocity=0 time=0@note_on channel=9 note=40 velocity=0 time=0.00089285625@note_on channel=0 note=48 velocity=59 time=0.0089285625@note_on channel=0 note=57 velocity=13 time=0@note_on channel=0 note=57 velocity=0 time=0.00267856875@note_on channel=9 note=36 velocity=0 time=0.00624999375@note_on channel=0 note=67 velocity=0 time=0.00446428125@note_on channel=0 note=65 velocity=42 time=0.01339284375@note_on channel=0 note=67 velocity=0 time=0.00267856875@note_on channel=0 note=64 velocity=0 time=0.0267856875@note_on channel=0 note=65 velocity=0 time=0.00446428125@note_on channel=0 note=65 velocity=0 time=0@note_on channel=0 note=48 velocity=0 time=0.0285714@note_on channel=0 note=48 velocity=0 time=0.00714285@note_on channel=0 note=57 velocity=0 time=0.00446428125@note_on channel=0 note=57 velocity=0 time=0.00446428125@note_on channel=0 note=65 velocity=0 time=0.0017857125@note_on channel=0 note=57 velocity=39 time=0@note_on channel=0 note=57 velocity=0 time=0.0160714125@note_on channel=9 note=40 velocity=54 time=0@note_on channel=0 note=57 velocity=0 time=0.00446428125@note_on channel=0 note=65 velocity=0 time=0.00267856875@note_on channel=9 note=40 velocity=0 time=0.00089285625@note_on channel=0 note=65 velocity=0 time=0.00714285@note_on channel=0 note=48 velocity=0 time=0.060714225000000004@note_on channel=3 note=65 velocity=0 time=0.02142855@note_on channel=9 note=42 velocity=68 time=0.0410713875@note_on channel=9 note=40 velocity=63 time=0.00446428125@note_on channel=0 note=48 velocity=58 time=0.0017857125@note_on channel=0 note=48 velocity=36 time=0@note_on channel=0 note=48 velocity=29 time=0@note_on channel=0 note=48 velocity=39 time=0@note_on channel=9 note=40 velocity=0 time=0.003571425@note_on channel=2 note=48 velocity=0 time=0.04374995625@note_on channel=3 note=65 velocity=0 time=0.01696426875@note_on channel=3 note=65 velocity=127 time=0.04374995625@note_on channel=0 note=58 velocity=87 time=0.0196428375@note_on channel=0 note=67 velocity=87 time=0.0017857125@note_on channel=0 note=58 velocity=87 time=0.00446428125@note_on channel=0 note=67 velocity=87 time=0@note_on channel=0 note=58 velocity=87 time=0@note_on channel=0 note=67 velocity=87 time=0@note_on channel=0 note=58 velocity=87 time=0@note_on channel=0 note=66 velocity=87 time=0@note_on channel=0 note=67 velocity=87 time=0@note_on channel=9 note=42 velocity=73 time=0.003571425@note_on channel=0 note=66 velocity=0 time=0.00089285625@note_on channel=9 note=42 velocity=0 time=0@note_on channel=9 note=42 velocity=0 time=0@note_on channel=9 note=36 velocity=88 time=0.00089285625@note_on channel=9 note=40 velocity=72 time=0.0017857125@note_on channel=2 note=46 velocity=93 time=0.00803570625@note_on channel=9 note=40 velocity=0 time=0.00446428125@note_on channel=0 note=48 velocity=0 time=0.0339285375@note_on channel=0 note=58 velocity=0 time=0.0624999375@note_on channel=0 note=48 velocity=0 time=0.01160713125@note_on channel=0 note=67 velocity=0 time=0.00446428125@note_on channel=0 note=67 velocity=0 time=0.0017857125@note_on channel=0 note=58 velocity=0 time=0.00714285@note_on channel=0 note=67 velocity=0 time=0@note_on channel=0 note=67 velocity=0 time=0.00446428125@note_on channel=0 note=58 velocity=0 time=0@note_on channel=0 note=58 velocity=0 time=0.0017857125@note_on channel=9 note=40 velocity=81 time=0.00089285625@note_on channel=0 note=48 velocity=0 time=0.010714275@note_on channel=9 note=40 velocity=0 time=0.00089285625@note_on channel=0 note=48 velocity=0 time=0.003571425@note_on channel=9 note=36 velocity=0 time=0.082142775@note_on channel=0 note=43 velocity=43 time=0.022321406250000002@note_on channel=9 note=42 velocity=75 time=0.02142855@note_on channel=9 note=40 velocity=89 time=0@note_on channel=0 note=43 velocity=36 time=0.0053571375@note_on channel=0 note=43 velocity=29 time=0@note_on channel=0 note=43 velocity=30 time=0@note_on channel=2 note=46 velocity=0 time=0.0053571375@note_on channel=9 note=40 velocity=0 time=0.0017857125@note_on channel=3 note=65 velocity=0 time=0.0767856375@note_on channel=0 note=57 velocity=87 time=0.0232142625@note_on channel=0 note=65 velocity=87 time=0@note_on channel=3 note=65 velocity=127 time=0.00089285625@note_on channel=0 note=57 velocity=82 time=0.02589283125@note_on channel=0 note=65 velocity=87 time=0@note_on channel=0 note=57 velocity=82 time=0@note_on channel=0 note=65 velocity=80 time=0@note_on channel=0 note=57 velocity=87 time=0@note_on channel=0 note=65 velocity=87 time=0@note_on channel=9 note=46 velocity=101 time=0.003571425@note_on channel=9 note=42 velocity=57 time=0@note_on channel=2 note=45 velocity=67 time=0@note_on channel=9 note=40 velocity=99 time=0.0053571375@note_on channel=9 note=40 velocity=0 time=0.003571425@note_on channel=9 note=42 velocity=0 time=0.00267856875@note_on channel=9 note=42 velocity=0 time=0@note_on channel=9 note=40 velocity=101 time=0.0267856875@note_on channel=9 note=46 velocity=0 time=0.046428525@note_on channel=0 note=65 velocity=0 time=0.0142857@note_on channel=0 note=43 velocity=0 time=0.00446428125@note_on channel=0 note=43 velocity=0 time=0.00714285@note_on channel=0 note=57 velocity=0 time=0.0089285625@note_on channel=0 note=43 velocity=0 time=0.00446428125@note_on channel=0 note=57 velocity=0 time=0@note_on channel=0 note=65 velocity=0 time=0@note_on channel=0 note=65 velocity=0 time=0.0017857125@note_on channel=0 note=65 velocity=0 time=0.01160713125@note_on channel=0 note=57 velocity=0 time=0.00446428125@note_on channel=0 note=57 velocity=0 time=0.0017857125@note_on channel=9 note=40 velocity=0 time=0.015178556250000001@note_on channel=0 note=43 velocity=77 time=0.07857135@note_on channel=0 note=58 velocity=75 time=0@note_on channel=3 note=65 velocity=0 time=0.02589283125@note_on channel=0 note=48 velocity=84 time=0.00089285625@note_on channel=0 note=58 velocity=87 time=0@note_on channel=0 note=48 velocity=80 time=0@note_on channel=0 note=58 velocity=78 time=0@note_on channel=0 note=48 velocity=77 time=0@note_on channel=0 note=58 velocity=71 time=0@note_on channel=3 note=63 velocity=127 time=0.0160714125@note_on channel=0 note=48 velocity=36 time=0.010714275@note_on channel=2 note=45 velocity=0 time=0.00624999375@pitchwheel channel=3 pitch=896 time=0.07053564375@pitchwheel channel=3 pitch=0 time=0.0017857125@note_on channel=0 note=48 velocity=0 time=0.0017857125@note_on channel=0 note=48 velocity=0 time=0@pitchwheel channel=3 pitch=18 time=0.003571425@pitchwheel channel=3 pitch=58 time=0.00446428125@pitchwheel channel=3 pitch=135 time=0.0053571375@note_on channel=3 note=63 velocity=0 time=0.003571425@pitchwheel channel=3 pitch=244 time=0.0017857125@note_on channel=3 note=65 velocity=127 time=0.00089285625@pitchwheel channel=3 pitch=359 time=0.003571425@note_on channel=0 note=55 velocity=75 time=0.003571425@pitchwheel channel=3 pitch=526 time=0.0017857125@pitchwheel channel=3 pitch=690 time=0.00446428125@pitchwheel channel=3 pitch=916 time=0.0053571375@note_on channel=0 note=58 velocity=0 time=0.00446428125@pitchwheel channel=3 pitch=1174 time=0.00089285625@note_on channel=0 note=43 velocity=0 time=0.00089285625@pitchwheel channel=3 pitch=1413 time=0.003571425@note_on channel=0 note=48 velocity=0 time=0.00089285625@note_on channel=0 note=58 velocity=0 time=0.00267856875@note_on channel=0 note=43 velocity=0 time=0.0017857125@note_on channel=0 note=58 velocity=0 time=0@note_on channel=0 note=58 velocity=0 time=0@note_on channel=0 note=48 velocity=0 time=0@note_on channel=0 note=55 velocity=0 time=0@note_on channel=0 note=50 velocity=71 time=0@note_on channel=0 note=59 velocity=80 time=0@note_on channel=9 note=46 velocity=80 time=0@pitchwheel channel=3 pitch=1729 time=0@note_on channel=9 note=42 velocity=56 time=0.003571425@note_on channel=9 note=36 velocity=84 time=0.00089285625@pitchwheel channel=3 pitch=2017 time=0@note_on channel=9 note=49 velocity=82 time=0.003571425@pitchwheel channel=3 pitch=2392 time=0.0017857125@pitchwheel channel=3 pitch=2798 time=0.0053571375@pitchwheel channel=3 pitch=3161 time=0.00446428125@pitchwheel channel=3 pitch=3626 time=0.0053571375@note_on channel=2 note=43 velocity=68 time=0.00267856875@pitchwheel channel=3 pitch=4123 time=0.00267856875@note_on channel=9 note=49 velocity=0 time=0.00089285625@note_on channel=9 note=46 velocity=0 time=0.00267856875@pitchwheel channel=3 pitch=4562 time=0.00089285625@pitchwheel channel=3 pitch=5117 time=0.0053571375@pitchwheel channel=3 pitch=5604 time=0.00446428125@pitchwheel channel=3 pitch=6218 time=0.0053571375@pitchwheel channel=3 pitch=6864 time=0.0053571375@pitchwheel channel=3 pitch=7426 time=0.00446428125@pitchwheel channel=3 pitch=8130 time=0.0053571375@pitchwheel channel=3 pitch=8191 time=0.00089285625@note_on channel=9 note=36 velocity=0 time=0.14999985@note_on channel=0 note=67 velocity=60 time=0.0339285375@note_on channel=9 note=42 velocity=78 time=0.039285675@note_on channel=9 note=42 velocity=0 time=0.0267856875@note_on channel=9 note=42 velocity=0 time=0@note_on channel=2 note=43 velocity=0 time=0.05089280625@note_on channel=0 note=50 velocity=0 time=0.02410711875@note_on channel=0 note=60 velocity=77 time=0.010714275@note_on channel=0 note=67 velocity=0 time=0.00714285@note_on channel=0 note=52 velocity=83 time=0.0196428375@note_on channel=9 note=42 velocity=57 time=0@note_on channel=9 note=36 velocity=95 time=0.00267856875@note_on channel=9 note=38 velocity=93 time=0.0017857125@note_on channel=9 note=42 velocity=0 time=0.00982141875@note_on channel=2 note=43 velocity=63 time=0.032142825@note_on channel=0 note=59 velocity=0 time=0.03660710625@note_on channel=0 note=52 velocity=0 time=0.0714285@note_on channel=0 note=60 velocity=0 time=0.010714275@note_on channel=9 note=36 velocity=0 time=0.0339285375@note_on channel=9 note=38 velocity=0 time=0.022321406250000002@note_on channel=9 note=42 velocity=53 time=0.067857075@note_on channel=0 note=43 velocity=39 time=0.0053571375@note_on channel=2 note=43 velocity=0 time=0.00803570625@note_on channel=2 note=38 velocity=68 time=0.0160714125@note_on channel=0 note=53 velocity=87 time=0.103571325@note_on channel=0 note=62 velocity=87 time=0.0017857125@note_on channel=9 note=36 velocity=94 time=0.00803570625@note_on channel=9 note=42 velocity=47 time=0@note_on channel=9 note=42 velocity=0 time=0.0053571375@note_on channel=9 note=42 velocity=0 time=0@note_on channel=2 note=38 velocity=0 time=0.03303568125@note_on channel=2 note=43 velocity=93 time=0.00714285@note_on channel=0 note=53 velocity=0 time=0.09196419375@note_on channel=0 note=62 velocity=0 time=0@note_on channel=0 note=43 velocity=0 time=0.017857125@note_on channel=2 note=43 velocity=0 time=0.0482142375@note_on channel=9 note=36 velocity=0 time=0.024999975@note_on channel=0 note=43 velocity=43 time=0.03571425@note_on channel=9 note=42 velocity=73 time=0.02142855@note_on channel=2 note=43 velocity=93 time=0.0089285625@note_on channel=0 note=52 velocity=87 time=0.103571325@note_on channel=0 note=60 velocity=87 time=0@note_on channel=2 note=38 velocity=61 time=0.010714275@note_on channel=9 note=36 velocity=99 time=0.0160714125@note_on channel=9 note=38 velocity=102 time=0.00089285625@note_on channel=9 note=42 velocity=69 time=0@note_on channel=9 note=42 velocity=0 time=0.0124999875@note_on channel=9 note=42 velocity=0 time=0@note_on channel=2 note=43 velocity=0 time=0.03124996875@note_on channel=0 note=60 velocity=0 time=0.05803565625@note_on channel=0 note=52 velocity=0 time=0.02053569375@note_on channel=9 note=36 velocity=0 time=0.0946427625@note_on channel=0 note=48 velocity=77 time=0.0232142625@note_on channel=0 note=58 velocity=75 time=0@note_on channel=9 note=38 velocity=0 time=0.003571425@pitchwheel channel=3 pitch=6912 time=0.0142857@pitchwheel channel=3 pitch=5120 time=0.0089285625@note_on channel=2 note=40 velocity=93 time=0.0017857125@note_on channel=2 note=38 velocity=0 time=0.00267856875@pitchwheel channel=3 pitch=3328 time=0.00982141875@note_on channel=9 note=42 velocity=73 time=0.0053571375@pitchwheel channel=3 pitch=1152 time=0.00089285625@pitchwheel channel=3 pitch=0 time=0.00982141875@note_on channel=3 note=65 velocity=0 time=0.010714275@note_on channel=0 note=50 velocity=75 time=0.09285705@note_on channel=0 note=58 velocity=0 time=0.0160714125@note_on channel=0 note=48 velocity=0 time=0.0017857125@note_on channel=0 note=59 velocity=77 time=0.0089285625@note_on channel=0 note=50 velocity=71 time=0@note_on channel=0 note=59 velocity=80 time=0@note_on channel=9 note=42 velocity=0 time=0.00267856875@note_on channel=9 note=36 velocity=99 time=0@note_on channel=9 note=42 velocity=71 time=0.00089285625@note_on channel=2 note=43 velocity=93 time=0.00803570625@note_on channel=2 note=40 velocity=0 time=0.05089280625@note_on channel=0 note=67 velocity=64 time=0.17857125000000001@note_on channel=9 note=36 velocity=0 time=0@note_on channel=0 note=67 velocity=60 time=0.0089285625@note_on channel=9 note=42 velocity=0 time=0.003571425@note_on channel=9 note=42 velocity=49 time=0.03303568125@note_on channel=0 note=50 velocity=0 time=0.0553570875@note_on channel=2 note=43 velocity=0 time=0.0160714125@note_on channel=0 note=50 velocity=0 time=0.03303568125@note_on channel=0 note=67 velocity=0 time=0.0017857125@note_on channel=0 note=60 velocity=77 time=0.0089285625@note_on channel=0 note=67 velocity=0 time=0.00714285@note_on channel=0 note=60 velocity=78 time=0.017857125@note_on channel=0 note=52 velocity=83 time=0.0017857125@note_on channel=9 note=36 velocity=91 time=0.00267856875@note_on channel=9 note=42 velocity=60 time=0.00089285625@note_on channel=0 note=52 velocity=86 time=0.00089285625@note_on channel=0 note=59 velocity=0 time=0.00446428125@note_on channel=9 note=38 velocity=96 time=0.00089285625@note_on channel=9 note=42 velocity=0 time=0.00089285625@note_on channel=9 note=42 velocity=0 time=0@note_on channel=2 note=43 velocity=93 time=0.00982141875@note_on channel=0 note=59 velocity=0 time=0.0624999375@note_on channel=0 note=43 velocity=0 time=0.03303568125@note_on channel=0 note=52 velocity=0 time=0.0160714125@note_on channel=0 note=52 velocity=0 time=0.022321406250000002@note_on channel=0 note=60 velocity=0 time=0.00267856875@note_on channel=0 note=60 velocity=0 time=0.00803570625@note_on channel=9 note=36 velocity=0 time=0.0571428@note_on channel=9 note=38 velocity=0 time=0.01874998125@note_on channel=2 note=43 velocity=0 time=0.02410711875@note_on channel=2 note=38 velocity=90 time=0.01339284375@note_on channel=9 note=42 velocity=67 time=0.010714275@note_on channel=0 note=43 velocity=29 time=0.0053571375@note_on channel=0 note=43 velocity=39 time=0@note_on channel=0 note=53 velocity=87 time=0.12767844375@note_on channel=0 note=62 velocity=87 time=0.0017857125@note_on channel=0 note=53 velocity=87 time=0.00446428125@note_on channel=0 note=61 velocity=87 time=0@note_on channel=0 note=62 velocity=87 time=0@note_on channel=9 note=36 velocity=93 time=0.003571425@note_on channel=9 note=42 velocity=63 time=0@note_on channel=0 note=61 velocity=0 time=0.00089285625@note_on channel=2 note=38 velocity=0 time=0.0124999875@note_on channel=2 note=43 velocity=93 time=0.0053571375@note_on channel=9 note=42 velocity=0 time=0.00446428125@note_on channel=9 note=42 velocity=0 time=0@note_on channel=0 note=53 velocity=0 time=0.08928562500000001@note_on channel=0 note=62 velocity=0 time=0.017857125@note_on channel=0 note=53 velocity=0 time=0.00714285@note_on channel=0 note=62 velocity=0 time=0@note_on channel=0 note=43 velocity=0 time=0.017857125@note_on channel=0 note=43 velocity=0 time=0.00446428125@note_on channel=2 note=43 velocity=0 time=0.04017853125@note_on channel=9 note=36 velocity=0 time=0.024999975@note_on channel=0 note=43 velocity=43 time=0.039285675@note_on channel=9 note=42 velocity=74 time=0.02053569375@note_on channel=2 note=43 velocity=93 time=0.003571425@note_on channel=0 note=43 velocity=30 time=0.00267856875@note_on channel=0 note=52 velocity=87 time=0.10714275@note_on channel=0 note=60 velocity=87 time=0@note_on channel=0 note=52 velocity=87 time=0.0267856875@note_on channel=0 note=60 velocity=87 time=0@note_on channel=9 note=36 velocity=82 time=0.00267856875@note_on channel=9 note=42 velocity=67 time=0@note_on channel=2 note=38 velocity=90 time=0.00267856875@note_on channel=9 note=42 velocity=0 time=0.00267856875@note_on channel=9 note=42 velocity=0 time=0@note_on channel=9 note=38 velocity=87 time=0@note_on channel=2 note=43 velocity=0 time=0.02410711875@note_on channel=0 note=60 velocity=0 time=0.07053564375@note_on channel=0 note=43 velocity=0 time=0.00446428125@note_on channel=0 note=52 velocity=0 time=0.0160714125@note_on channel=0 note=52 velocity=0 time=0.00446428125@note_on channel=0 note=60 velocity=0 time=0@note_on channel=9 note=36 velocity=0 time=0.0910713375@note_on channel=9 note=38 velocity=0 time=0.003571425@note_on channel=0 note=48 velocity=77 time=0.01874998125@note_on channel=0 note=58 velocity=75 time=0@note_on channel=0 note=48 velocity=77 time=0.0267856875@note_on channel=0 note=58 velocity=71 time=0@note_on channel=9 note=42 velocity=83 time=0.02053569375@note_on channel=0 note=43 velocity=36 time=0.00624999375@note_on channel=2 note=40 velocity=93 time=0.00089285625@note_on channel=2 note=38 velocity=0 time=0.022321406250000002@note_on channel=0 note=48 velocity=0 time=0.0571428@note_on channel=0 note=50 velocity=75 time=0.0267856875@note_on channel=0 note=58 velocity=0 time=0.0160714125@note_on channel=0 note=48 velocity=0 time=0.0017857125@note_on channel=0 note=58 velocity=0 time=0.00714285@note_on channel=0 note=50 velocity=75 time=0.0017857125@note_on channel=0 note=59 velocity=68 time=0@note_on channel=0 note=59 velocity=77 time=0@note_on channel=0 note=50 velocity=71 time=0@note_on channel=0 note=59 velocity=80 time=0@note_on channel=0 note=50 velocity=0 time=0.00267856875@note_on channel=9 note=42 velocity=56 time=0.00089285625@note_on channel=9 note=36 velocity=84 time=0.00089285625@note_on channel=2 note=43 velocity=93 time=0.02142855@note_on channel=0 note=48 velocity=75 time=0.00089285625@note_on channel=0 note=50 velocity=74 time=0@note_on channel=0 note=48 velocity=0 time=0.01160713125@note_on channel=9 note=42 velocity=0 time=0.024999975@note_on channel=9 note=42 velocity=0 time=0@note_on channel=2 note=40 velocity=0 time=0.00089285625@note_on channel=9 note=36 velocity=0 time=0.1517855625@note_on channel=0 note=67 velocity=64 time=0.024999975@note_on channel=0 note=67 velocity=60 time=0.0089285625@note_on channel=0 note=62 velocity=59 time=0.017857125@note_on channel=9 note=42 velocity=78 time=0.02142855@note_on channel=9 note=42 velocity=0 time=0.0267856875@note_on channel=2 note=43 velocity=0 time=0.01160713125@note_on channel=0 note=50 velocity=0 time=0.0142857@note_on channel=0 note=50 velocity=0 time=0.046428525@note_on channel=0 note=50 velocity=0 time=0.00267856875@note_on channel=0 note=67 velocity=0 time=0.0017857125@note_on channel=0 note=59 velocity=0 time=0.00714285@note_on channel=0 note=60 velocity=77 time=0.0017857125@note_on channel=0 note=67 velocity=0 time=0.00714285@note_on channel=0 note=60 velocity=78 time=0.017857125@note_on channel=0 note=52 velocity=63 time=0.0017857125@note_on channel=0 note=60 velocity=87 time=0@note_on channel=0 note=52 velocity=83 time=0@note_on channel=9 note=42 velocity=57 time=0@note_on channel=9 note=36 velocity=95 time=0.00267856875@note_on channel=2 note=43 velocity=93 time=0.00089285625@note_on channel=0 note=52 velocity=86 time=0.00089285625@note_on channel=9 note=38 velocity=93 time=0@note_on channel=0 note=59 velocity=0 time=0.00446428125@note_on channel=9 note=42 velocity=0 time=0.0053571375@note_on channel=0 note=62 velocity=0 time=0.02589283125@note_on channel=0 note=59 velocity=0 time=0.0428571@note_on channel=0 note=43 velocity=0 time=0.03303568125@note_on channel=0 note=43 velocity=0 time=0.00714285@note_on channel=0 note=52 velocity=0 time=0.00446428125@note_on channel=0 note=52 velocity=0 time=0.00446428125@note_on channel=0 note=60 velocity=0 time=0.0017857125@note_on channel=0 note=52 velocity=0 time=0.02053569375@note_on channel=0 note=60 velocity=0 time=0.00267856875@note_on channel=0 note=60 velocity=0 time=0.00803570625@note_on channel=9 note=36 velocity=0 time=0.0339285375@note_on channel=9 note=38 velocity=0 time=0.022321406250000002@note_on channel=2 note=43 velocity=0 time=0.05446423125@note_on channel=2 note=38 velocity=92 time=0.00624999375@note_on channel=9 note=42 velocity=53 time=0.00714285@note_on channel=0 note=43 velocity=36 time=0.0053571375@note_on channel=0 note=43 velocity=29 time=0@note_on channel=0 note=43 velocity=39 time=0@note_on channel=0 note=53 velocity=87 time=0.12767844375@note_on channel=0 note=62 velocity=87 time=0.0017857125@note_on channel=0 note=53 velocity=87 time=0.00446428125@note_on channel=0 note=62 velocity=87 time=0@note_on channel=0 note=53 velocity=87 time=0@note_on channel=0 note=61 velocity=87 time=0@note_on channel=0 note=62 velocity=87 time=0@note_on channel=9 note=36 velocity=94 time=0.003571425@note_on channel=9 note=42 velocity=47 time=0@note_on channel=0 note=61 velocity=0 time=0.00089285625@note_on channel=9 note=42 velocity=0 time=0.00446428125@note_on channel=9 note=42 velocity=0 time=0@note_on channel=2 note=43 velocity=93 time=0.0017857125@note_on channel=2 note=38 velocity=0 time=0.00714285@note_on channel=0 note=53 velocity=0 time=0.0982141875@note_on channel=0 note=43 velocity=0 time=0.01160713125@note_on channel=0 note=62 velocity=0 time=0.00446428125@note_on channel=0 note=62 velocity=0 time=0.0017857125@note_on channel=0 note=53 velocity=0 time=0.00714285@note_on channel=0 note=62 velocity=0 time=0@note_on channel=0 note=53 velocity=0 time=0.00446428125@note_on channel=0 note=43 velocity=0 time=0.01339284375@note_on channel=0 note=43 velocity=0 time=0.00446428125@note_on channel=2 note=43 velocity=0 time=0.024999975@note_on channel=9 note=36 velocity=0 time=0.04374995625@note_on channel=0 note=43 velocity=43 time=0.03571425@note_on channel=2 note=43 velocity=68 time=0.01339284375@note_on channel=9 note=42 velocity=73 time=0.00803570625@note_on channel=0 note=43 velocity=29 time=0.0053571375@note_on channel=0 note=43 velocity=30 time=0@note_on channel=0 note=52 velocity=87 time=0.10714275@note_on channel=0 note=60 velocity=87 time=0@note_on channel=0 note=52 velocity=82 time=0.0267856875@note_on channel=0 note=60 velocity=80 time=0@note_on channel=0 note=52 velocity=87 time=0@note_on channel=0 note=60 velocity=87 time=0@note_on channel=9 note=36 velocity=99 time=0@note_on channel=9 note=38 velocity=102 time=0.00089285625@note_on channel=9 note=42 velocity=69 time=0@note_on channel=2 note=38 velocity=88 time=0.010714275@note_on channel=9 note=42 velocity=0 time=0.0017857125@note_on channel=9 note=42 velocity=0 time=0@note_on channel=2 note=43 velocity=0 time=0.030357112500000002@note_on channel=0 note=60 velocity=0 time=0.0589285125@note_on channel=0 note=43 velocity=0 time=0.00446428125@note_on channel=0 note=52 velocity=0 time=0.0160714125@note_on channel=0 note=43 velocity=0 time=0.00446428125@note_on channel=0 note=52 velocity=0 time=0@note_on channel=0 note=60 velocity=0 time=0@note_on channel=0 note=60 velocity=0 time=0.01339284375@note_on channel=0 note=52 velocity=0 time=0.00624999375@note_on channel=9 note=36 velocity=0 time=0.07053564375@note_on channel=0 note=48 velocity=77 time=0.0232142625@note_on channel=0 note=58 velocity=75 time=0@note_on channel=9 note=38 velocity=0 time=0.003571425@note_on channel=0 note=48 velocity=80 time=0.0232142625@note_on channel=0 note=58 velocity=78 time=0@note_on channel=0 note=48 velocity=77 time=0@note_on channel=0 note=58 velocity=71 time=0@note_on channel=2 note=40 velocity=79 time=0.0142857@note_on channel=9 note=42 velocity=73 time=0.0053571375@note_on channel=0 note=43 velocity=36 time=0.00714285@note_on channel=2 note=38 velocity=0 time=0.02410711875@note_on channel=0 note=48 velocity=0 time=0.05624994375@note_on channel=0 note=48 velocity=0 time=0@note_on channel=0 note=50 velocity=75 time=0.0267856875@note_on channel=0 note=58 velocity=0 time=0.0160714125@note_on channel=0 note=48 velocity=0 time=0.0017857125@note_on channel=0 note=58 velocity=0 time=0.00714285@note_on channel=0 note=48 velocity=72 time=0.0017857125@note_on channel=0 note=50 velocity=71 time=0@note_on channel=0 note=59 velocity=66 time=0@note_on channel=0 note=50 velocity=75 time=0@note_on channel=0 note=59 velocity=68 time=0@note_on channel=0 note=59 velocity=77 time=0@note_on channel=0 note=50 velocity=71 time=0@note_on channel=0 note=59 velocity=80 time=0@note_on channel=0 note=50 velocity=0 time=0.00267856875@note_on channel=9 note=42 velocity=0 time=0@note_on channel=9 note=36 velocity=99 time=0@note_on channel=9 note=42 velocity=71 time=0.00089285625@note_on channel=0 note=58 velocity=0 time=0.00803570625@note_on channel=0 note=48 velocity=0 time=0@note_on channel=0 note=48 velocity=75 time=0.015178556250000001@note_on channel=0 note=50 velocity=74 time=0@note_on channel=0 note=48 velocity=0 time=0.01160713125@note_on channel=2 note=43 velocity=93 time=0@note_on channel=2 note=40 velocity=0 time=0.0428571@note_on channel=0 note=67 velocity=64 time=0.15982126875@note_on channel=9 note=36 velocity=0 time=0@note_on channel=0 note=67 velocity=60 time=0.0089285625@note_on channel=9 note=42 velocity=0 time=0.003571425@note_on channel=2 note=43 velocity=0 time=0.010714275@note_on channel=0 note=62 velocity=87 time=0.003571425@note_on channel=0 note=62 velocity=59 time=0@note_on channel=9 note=42 velocity=49 time=0.01874998125@note_on channel=2 note=43 velocity=93 time=0.0374999625@note_on channel=0 note=50 velocity=0 time=0.0089285625@note_on channel=0 note=50 velocity=0 time=0.0089285625@note_on channel=0 note=50 velocity=0 time=0.046428525@note_on channel=0 note=59 velocity=0 time=0.00267856875@note_on channel=0 note=50 velocity=0 time=0@note_on channel=0 note=67 velocity=0 time=0.0017857125@note_on channel=0 note=59 velocity=0 time=0.00714285@note_on channel=0 note=60 velocity=77 time=0.0017857125@note_on channel=0 note=67 velocity=0 time=0.00714285@note_on channel=2 note=43 velocity=0 time=0.00624999375@note_on channel=0 note=60 velocity=78 time=0.01160713125@note_on channel=0 note=60 velocity=87 time=0.0017857125@note_on channel=0 note=52 velocity=63 time=0@note_on channel=0 note=60 velocity=87 time=0@note_on channel=0 note=52 velocity=83 time=0@note_on channel=9 note=36 velocity=91 time=0.00267856875@note_on channel=9 note=42 velocity=60 time=0.00089285625@note_on channel=0 note=52 velocity=86 time=0.00089285625@note_on channel=0 note=59 velocity=0 time=0.00446428125@note_on channel=9 note=38 velocity=96 time=0.00089285625@note_on channel=9 note=42 velocity=0 time=0.00089285625@note_on channel=9 note=42 velocity=0 time=0@note_on channel=0 note=43 velocity=59 time=0.0160714125@note_on channel=0 note=52 velocity=13 time=0@note_on channel=0 note=52 velocity=0 time=0.00267856875@note_on channel=0 note=62 velocity=0 time=0.010714275@note_on channel=2 note=45 velocity=93 time=0.00803570625@note_on channel=0 note=60 velocity=42 time=0.0053571375@note_on channel=0 note=62 velocity=0 time=0.00267856875@note_on channel=0 note=59 velocity=0 time=0.0267856875@note_on channel=0 note=60 velocity=0 time=0.00446428125@note_on channel=0 note=60 velocity=0 time=0@note_on channel=0 note=43 velocity=0 time=0.0285714@note_on channel=0 note=43 velocity=0 time=0.00714285@note_on channel=0 note=52 velocity=0 time=0.00446428125@note_on channel=0 note=52 velocity=0 time=0.00446428125@note_on channel=0 note=60 velocity=0 time=0.0017857125@note_on channel=0 note=52 velocity=39 time=0@note_on channel=0 note=52 velocity=0 time=0.0160714125@note_on channel=0 note=52 velocity=0 time=0.00446428125@note_on channel=0 note=60 velocity=0 time=0.00267856875@note_on channel=0 note=60 velocity=0 time=0.00803570625@note_on channel=9 note=36 velocity=0 time=0.0571428@note_on channel=0 note=43 velocity=0 time=0.003571425@note_on channel=9 note=38 velocity=0 time=0.015178556250000001@note_on channel=9 note=42 velocity=67 time=0.0482142375@note_on channel=0 note=43 velocity=58 time=0.0053571375@note_on channel=0 note=43 velocity=36 time=0@note_on channel=0 note=43 velocity=29 time=0@note_on channel=0 note=43 velocity=39 time=0@note_on channel=2 note=45 velocity=0 time=0.07232135625@note_on channel=0 note=53 velocity=87 time=0.0553570875@note_on channel=0 note=62 velocity=87 time=0.0017857125@note_on channel=0 note=53 velocity=87 time=0.00446428125@note_on channel=0 note=62 velocity=87 time=0@note_on channel=0 note=53 velocity=87 time=0@note_on channel=0 note=62 velocity=87 time=0@note_on channel=0 note=53 velocity=87 time=0@note_on channel=0 note=61 velocity=87 time=0@note_on channel=0 note=62 velocity=87 time=0@note_on channel=9 note=36 velocity=93 time=0.003571425@note_on channel=9 note=42 velocity=63 time=0@note_on channel=0 note=61 velocity=0 time=0.00089285625@note_on channel=9 note=42 velocity=0 time=0.022321406250000002@note_on channel=9 note=42 velocity=0 time=0@note_on channel=2 note=46 velocity=73 time=0.022321406250000002@note_on channel=0 note=43 velocity=0 time=0.00446428125@note_on channel=0 note=53 velocity=0 time=0.0624999375@note_on channel=0 note=43 velocity=0 time=0.01160713125@note_on channel=0 note=62 velocity=0 time=0.00446428125@note_on channel=0 note=62 velocity=0 time=0.0017857125@note_on channel=0 note=53 velocity=0 time=0.00714285@note_on channel=0 note=62 velocity=0 time=0@note_on channel=0 note=62 velocity=0 time=0.00446428125@note_on channel=0 note=53 velocity=0 time=0@note_on channel=0 note=53 velocity=0 time=0.0017857125@note_on channel=0 note=43 velocity=0 time=0.01160713125@note_on channel=0 note=43 velocity=0 time=0.00446428125@note_on channel=9 note=36 velocity=0 time=0.06517850625@note_on channel=0 note=47 velocity=43 time=0.039285675@note_on channel=9 note=42 velocity=74 time=0.02053569375@note_on channel=0 note=47 velocity=36 time=0.00624999375@note_on channel=0 note=47 velocity=29 time=0@note_on channel=0 note=47 velocity=30 time=0@note_on channel=2 note=46 velocity=0 time=0.0767856375@note_on channel=0 note=52 velocity=87 time=0.030357112500000002@note_on channel=0 note=60 velocity=87 time=0@note_on channel=0 note=47 velocity=0 time=0.0267856875@note_on channel=9 note=36 velocity=82 time=0.00267856875@note_on channel=9 note=42 velocity=67 time=0@note_on channel=9 note=42 velocity=0 time=0.0053571375@note_on channel=9 note=42 velocity=0 time=0@note_on channel=9 note=38 velocity=87 time=0@note_on channel=2 note=47 velocity=74 time=0.0124999875@note_on channel=0 note=60 velocity=0 time=0.082142775@note_on channel=0 note=47 velocity=0 time=0.00446428125@note_on channel=0 note=47 velocity=0 time=0.00714285@note_on channel=0 note=52 velocity=0 time=0.0089285625@note_on channel=0 note=47 velocity=0 time=0.00446428125@note_on channel=9 note=36 velocity=0 time=0.0910713375@note_on channel=9 note=38 velocity=0 time=0.003571425@note_on channel=0 note=53 velocity=77 time=0.01874998125@note_on channel=0 note=63 velocity=75 time=0@note_on channel=9 note=42 velocity=83 time=0.04732138125@note_on channel=2 note=47 velocity=0 time=0.0910713375@note_on channel=0 note=55 velocity=75 time=0.022321406250000002@note_on channel=0 note=63 velocity=0 time=0.0160714125@note_on channel=0 note=53 velocity=0 time=0.0017857125@note_on channel=0 note=55 velocity=71 time=0.0089285625@note_on channel=0 note=64 velocity=80 time=0@note_on channel=9 note=36 velocity=78 time=0.00446428125@note_on channel=9 note=49 velocity=82 time=0.003571425@note_on channel=2 note=48 velocity=93 time=0.01160713125@note_on channel=9 note=49 velocity=0 time=0.01160713125@note_on channel=9 note=42 velocity=0 time=0.032142825@note_on channel=9 note=36 velocity=0 time=0.0946427625@note_on channel=0 note=72 velocity=60 time=0.09196419375@note_on channel=9 note=42 velocity=82 time=0.03660710625@note_on channel=9 note=36 velocity=73 time=0.0053571375@note_on channel=0 note=55 velocity=0 time=0.04999995@note_on channel=2 note=48 velocity=0 time=0.02410711875@note_on channel=0 note=55 velocity=0 time=0.024999975@note_on channel=0 note=65 velocity=77 time=0.010714275@note_on channel=0 note=72 velocity=0 time=0.00714285@note_on channel=0 note=57 velocity=83 time=0.0196428375@note_on channel=9 note=42 velocity=53 time=0.00267856875@note_on channel=9 note=38 velocity=94 time=0.0017857125@note_on channel=9 note=42 velocity=0 time=0.010714275@note_on channel=9 note=42 velocity=0 time=0@note_on channel=2 note=48 velocity=57 time=0@note_on channel=2 note=50 velocity=21 time=0.0124999875@note_on channel=9 note=36 velocity=0 time=0.00267856875@note_on channel=0 note=64 velocity=0 time=0.05267851875@note_on channel=3 note=62 velocity=127 time=0.022321406250000002@note_on channel=0 note=57 velocity=0 time=0.04910709375@note_on channel=2 note=50 velocity=0 time=0.0053571375@note_on channel=0 note=65 velocity=0 time=0.0053571375@note_on channel=3 note=62 velocity=0 time=0.0339285375@note_on channel=9 note=38 velocity=0 time=0.039285675@note_on channel=3 note=63 velocity=121 time=0.00089285625@note_on channel=2 note=48 velocity=0 time=0.0428571@note_on channel=9 note=42 velocity=47 time=0.00624999375@note_on channel=2 note=43 velocity=73 time=0.003571425@note_on channel=0 note=48 velocity=39 time=0.00267856875@note_on channel=3 note=63 velocity=0 time=0.0517856625@note_on channel=3 note=64 velocity=127 time=0.03571425@note_on channel=0 note=58 velocity=87 time=0.04017853125@note_on channel=0 note=67 velocity=87 time=0.0017857125@note_on channel=9 note=36 velocity=89 time=0.00803570625@note_on channel=9 note=42 velocity=57 time=0@note_on channel=2 note=43 velocity=0 time=0.0053571375@note_on channel=9 note=42 velocity=0 time=0.00446428125@note_on channel=9 note=42 velocity=0 time=0@note_on channel=2 note=48 velocity=79 time=0.010714275@note_on channel=0 note=58 velocity=0 time=0.11696416875@note_on channel=0 note=67 velocity=0 time=0@note_on channel=0 note=48 velocity=0 time=0.017857125@note_on channel=3 note=64 velocity=0 time=0.017857125@note_on channel=2 note=48 velocity=0 time=0.0053571375@note_on channel=3 note=67 velocity=127 time=0.04374995625@note_on channel=0 note=48 velocity=43 time=0.04196424375@note_on channel=2 note=48 velocity=93 time=0.0053571375@note_on channel=9 note=36 velocity=0 time=0.00714285@note_on channel=9 note=42 velocity=76 time=0.0089285625@note_on channel=3 note=67 velocity=0 time=0.04374995625@note_on channel=3 note=69 velocity=124 time=0.03571425@note_on channel=0 note=57 velocity=87 time=0.03303568125@note_on channel=0 note=65 velocity=87 time=0@note_on channel=2 note=43 velocity=93 time=0.01696426875@note_on channel=9 note=38 velocity=101 time=0.010714275@note_on channel=9 note=42 velocity=88 time=0.0017857125@note_on channel=9 note=42 velocity=0 time=0.00803570625@note_on channel=9 note=42 velocity=0 time=0@note_on channel=2 note=48 velocity=0 time=0.030357112500000002@note_on channel=0 note=65 velocity=0 time=0.06160708125@note_on channel=0 note=57 velocity=0 time=0.02053569375@note_on channel=3 note=69 velocity=0 time=0.044642812500000004@note_on channel=3 note=67 velocity=127 time=0.06517850625@note_on channel=0 note=53 velocity=77 time=0.00803570625@note_on channel=0 note=63 velocity=75 time=0@note_on channel=9 note=42 velocity=68 time=0.04732138125@note_on channel=2 note=45 velocity=92 time=0.00267856875@note_on channel=2 note=43 velocity=0 time=0.02142855@note_on channel=3 note=67 velocity=0 time=0.01696426875@note_on channel=9 note=38 velocity=0 time=0.017857125@note_on channel=0 note=55 velocity=75 time=0.05446423125@note_on channel=0 note=63 velocity=0 time=0.0160714125@note_on channel=0 note=53 velocity=0 time=0.0017857125@note_on channel=0 note=64 velocity=77 time=0.0089285625@note_on channel=0 note=55 velocity=71 time=0@note_on channel=0 note=64 velocity=80 time=0@note_on channel=9 note=42 velocity=68 time=0.003571425@note_on channel=9 note=36 velocity=78 time=0.00089285625@note_on channel=9 note=42 velocity=0 time=0.00624999375@note_on channel=9 note=42 velocity=0 time=0@note_on channel=2 note=48 velocity=92 time=0.00803570625@note_on channel=2 note=45 velocity=0 time=0.0410713875@note_on channel=9 note=36 velocity=0 time=0.0982141875@note_on channel=0 note=72 velocity=64 time=0.08303563125@note_on channel=0 note=72 velocity=60 time=0.0089285625@note_on channel=9 note=42 velocity=63 time=0.039285675@note_on channel=9 note=36 velocity=73 time=0.00267856875@note_on channel=0 note=55 velocity=0 time=0.04999995@note_on channel=2 note=48 velocity=0 time=0.00624999375@note_on channel=0 note=55 velocity=0 time=0.0428571@note_on channel=0 note=72 velocity=0 time=0.0017857125@note_on channel=0 note=65 velocity=77 time=0.0089285625@note_on channel=0 note=72 velocity=0 time=0.00714285@note_on channel=0 note=65 velocity=78 time=0.017857125@note_on channel=0 note=57 velocity=83 time=0.0017857125@note_on channel=2 note=48 velocity=90 time=0.00267856875@note_on channel=9 note=42 velocity=55 time=0.00089285625@note_on channel=0 note=57 velocity=86 time=0.00089285625@note_on channel=9 note=38 velocity=94 time=0@note_on channel=0 note=64 velocity=0 time=0.00446428125@note_on channel=9 note=42 velocity=0 time=0.00624999375@note_on channel=9 note=42 velocity=0 time=0@note_on channel=9 note=36 velocity=0 time=0.015178556250000001@note_on channel=0 note=64 velocity=0 time=0.05267851875@note_on channel=3 note=62 velocity=127 time=0.022321406250000002@note_on channel=0 note=48 velocity=0 time=0.010714275@note_on channel=0 note=57 velocity=0 time=0.0160714125@note_on channel=0 note=57 velocity=0 time=0.022321406250000002@note_on channel=0 note=65 velocity=0 time=0.00267856875@note_on channel=0 note=65 velocity=0 time=0.00803570625@note_on channel=3 note=62 velocity=0 time=0.0339285375@note_on channel=9 note=38 velocity=0 time=0.039285675@note_on channel=3 note=63 velocity=121 time=0.00089285625@note_on channel=9 note=42 velocity=63 time=0.04910709375@note_on channel=2 note=43 velocity=93 time=0.003571425@note_on channel=0 note=48 velocity=29 time=0.00267856875@note_on channel=0 note=48 velocity=39 time=0@note_on channel=2 note=48 velocity=0 time=0.00267856875@note_on channel=3 note=63 velocity=0 time=0.04910709375@note_on channel=3 note=64 velocity=127 time=0.03571425@note_on channel=0 note=58 velocity=87 time=0.04017853125@note_on channel=0 note=67 velocity=87 time=0.0017857125@note_on channel=2 note=48 velocity=93 time=0.00267856875@note_on channel=0 note=58 velocity=87 time=0.0017857125@note_on channel=0 note=66 velocity=87 time=0@note_on channel=0 note=67 velocity=87 time=0@note_on channel=9 note=36 velocity=89 time=0.003571425@note_on channel=9 note=42 velocity=65 time=0@note_on channel=0 note=66 velocity=0 time=0.00089285625@note_on channel=9 note=42 velocity=0 time=0.010714275@note_on channel=9 note=42 velocity=0 time=0@note_on channel=2 note=43 velocity=0 time=0.0160714125@note_on channel=0 note=58 velocity=0 time=0.08482134375@note_on channel=0 note=67 velocity=0 time=0.017857125@note_on channel=0 note=58 velocity=0 time=0.00714285@note_on channel=0 note=67 velocity=0 time=0@note_on channel=0 note=48 velocity=0 time=0.017857125@note_on channel=0 note=48 velocity=0 time=0.00446428125@note_on channel=3 note=64 velocity=0 time=0.01339284375@note_on channel=2 note=48 velocity=0 time=0.04732138125@note_on channel=3 note=67 velocity=127 time=0.0017857125@note_on channel=0 note=48 velocity=43 time=0.04196424375@note_on channel=9 note=36 velocity=0 time=0.0124999875@note_on channel=9 note=42 velocity=57 time=0.0089285625@note_on channel=0 note=48 velocity=30 time=0.0053571375@note_on channel=2 note=48 velocity=84 time=0.00089285625@note_on channel=3 note=67 velocity=0 time=0.0374999625@note_on channel=3 note=69 velocity=124 time=0.03571425@note_on channel=0 note=57 velocity=87 time=0.03303568125@note_on channel=0 note=65 velocity=87 time=0@note_on channel=2 note=43 velocity=93 time=0.0160714125@note_on channel=0 note=57 velocity=87 time=0.010714275@note_on channel=0 note=65 velocity=87 time=0@note_on channel=9 note=38 velocity=101 time=0.00089285625@note_on channel=9 note=42 velocity=51 time=0.00267856875@note_on channel=9 note=42 velocity=0 time=0.010714275@note_on channel=9 note=42 velocity=0 time=0@note_on channel=2 note=48 velocity=0 time=0.030357112500000002@note_on channel=0 note=65 velocity=0 time=0.05803565625@note_on channel=0 note=48 velocity=0 time=0.00446428125@note_on channel=0 note=57 velocity=0 time=0.0160714125@note_on channel=0 note=57 velocity=0 time=0.00446428125@note_on channel=0 note=65 velocity=0 time=0@note_on channel=3 note=69 velocity=0 time=0.04017853125@note_on channel=3 note=72 velocity=127 time=0.06517850625@note_on channel=9 note=38 velocity=0 time=0.00089285625@note_on channel=0 note=53 velocity=77 time=0.00714285@note_on channel=0 note=63 velocity=75 time=0@note_on channel=0 note=53 velocity=77 time=0.0267856875@note_on channel=0 note=63 velocity=71 time=0@note_on channel=9 note=42 velocity=66 time=0.02142855@note_on channel=2 note=45 velocity=92 time=0.00267856875@note_on channel=0 note=48 velocity=36 time=0.00267856875@note_on channel=3 note=72 velocity=0 time=0.03482139375@note_on channel=2 note=43 velocity=0 time=0.003571425@note_on channel=0 note=53 velocity=0 time=0.04196424375@note_on channel=0 note=55 velocity=75 time=0.0267856875@note_on channel=0 note=63 velocity=0 time=0.0160714125@note_on channel=0 note=53 velocity=0 time=0.0017857125@note_on channel=0 note=63 velocity=0 time=0.00714285@note_on channel=0 note=55 velocity=75 time=0.0017857125@note_on channel=0 note=64 velocity=68 time=0@note_on channel=0 note=64 velocity=77 time=0@note_on channel=0 note=55 velocity=71 time=0@note_on channel=0 note=64 velocity=80 time=0@note_on channel=0 note=55 velocity=0 time=0.00267856875@note_on channel=9 note=36 velocity=78 time=0.0017857125@note_on channel=9 note=42 velocity=0 time=0.00714285@note_on channel=0 note=53 velocity=75 time=0.015178556250000001@note_on channel=0 note=55 velocity=74 time=0@note_on channel=2 note=48 velocity=93 time=0@note_on channel=0 note=53 velocity=0 time=0.01160713125@note_on channel=2 note=45 velocity=0 time=0.03839281875@note_on channel=9 note=36 velocity=0 time=0.08124991875@note_on channel=0 note=72 velocity=64 time=0.08303563125@note_on channel=0 note=72 velocity=60 time=0.0089285625@note_on channel=0 note=67 velocity=59 time=0.017857125@note_on channel=9 note=42 velocity=82 time=0.01874998125@note_on channel=9 note=36 velocity=73 time=0.0053571375@note_on channel=2 note=48 velocity=0 time=0.0410713875@note_on channel=0 note=55 velocity=0 time=0.0089285625@note_on channel=0 note=55 velocity=0 time=0.046428525@note_on channel=0 note=55 velocity=0 time=0.00267856875@note_on channel=0 note=72 velocity=0 time=0.0017857125@note_on channel=0 note=64 velocity=0 time=0.00714285@note_on channel=0 note=65 velocity=60 time=0.0017857125@note_on channel=0 note=72 velocity=0 time=0.00714285@note_on channel=2 note=48 velocity=70 time=0.00446428125@note_on channel=0 note=65 velocity=62 time=0.01339284375@note_on channel=0 note=57 velocity=50 time=0.0017857125@note_on channel=0 note=65 velocity=69 time=0@note_on channel=0 note=57 velocity=66 time=0@note_on channel=9 note=42 velocity=53 time=0.00267856875@note_on channel=0 note=57 velocity=68 time=0.0017857125@note_on channel=9 note=38 velocity=94 time=0@note_on channel=0 note=64 velocity=0 time=0.00446428125@note_on channel=9 note=42 velocity=0 time=0.00624999375@note_on channel=9 note=42 velocity=0 time=0@note_on channel=9 note=36 velocity=0 time=0.015178556250000001@note_on channel=0 note=67 velocity=0 time=0.00982141875@note_on channel=0 note=64 velocity=0 time=0.0428571@note_on channel=3 note=62 velocity=127 time=0.022321406250000002@note_on channel=0 note=48 velocity=0 time=0.010714275@note_on channel=0 note=48 velocity=0 time=0.00714285@note_on channel=0 note=57 velocity=0 time=0.00446428125@note_on channel=0 note=57 velocity=0 time=0.00446428125@note_on channel=0 note=65 velocity=0 time=0.0017857125@note_on channel=0 note=57 velocity=0 time=0.02053569375@note_on channel=0 note=65 velocity=0 time=0.00267856875@note_on channel=0 note=65 velocity=0 time=0.00803570625@note_on channel=3 note=62 velocity=0 time=0.0339285375@note_on channel=9 note=38 velocity=0 time=0.039285675@note_on channel=3 note=63 velocity=121 time=0.00089285625@note_on channel=2 note=48 velocity=0 time=0.04196424375@note_on channel=2 note=43 velocity=93 time=0.00624999375@note_on channel=9 note=42 velocity=47 time=0.00089285625@note_on channel=0 note=48 velocity=36 time=0.00624999375@note_on channel=0 note=48 velocity=27 time=0@note_on channel=0 note=48 velocity=36 time=0@note_on channel=3 note=63 velocity=0 time=0.0517856625@note_on channel=3 note=64 velocity=127 time=0.03571425@note_on channel=2 note=43 velocity=0 time=0.0339285375@note_on channel=2 note=48 velocity=79 time=0.00446428125@note_on channel=0 note=58 velocity=83 time=0.0017857125@note_on channel=0 note=67 velocity=83 time=0.0017857125@note_on channel=0 note=58 velocity=83 time=0.00446428125@note_on channel=0 note=67 velocity=83 time=0@note_on channel=0 note=58 velocity=83 time=0@note_on channel=0 note=66 velocity=83 time=0@note_on channel=0 note=67 velocity=83 time=0@note_on channel=9 note=36 velocity=89 time=0.003571425@note_on channel=9 note=42 velocity=57 time=0@note_on channel=0 note=66 velocity=0 time=0.00089285625@note_on channel=9 note=42 velocity=0 time=0.0089285625@note_on channel=9 note=42 velocity=0 time=0@note_on channel=0 note=58 velocity=0 time=0.10267846875@note_on channel=0 note=48 velocity=0 time=0.01160713125@note_on channel=0 note=67 velocity=0 time=0.00446428125@note_on channel=0 note=67 velocity=0 time=0.0017857125@note_on channel=0 note=58 velocity=0 time=0.00714285@note_on channel=0 note=67 velocity=0 time=0@note_on channel=0 note=58 velocity=0 time=0.00446428125@note_on channel=0 note=48 velocity=0 time=0.01339284375@note_on channel=0 note=48 velocity=0 time=0.00446428125@note_on channel=2 note=48 velocity=0 time=0.00982141875@note_on channel=3 note=64 velocity=0 time=0.003571425@note_on channel=3 note=67 velocity=127 time=0.04910709375@note_on channel=0 note=48 velocity=41 time=0.04196424375@note_on channel=2 note=48 velocity=93 time=0.00803570625@note_on channel=9 note=36 velocity=0 time=0.00446428125@note_on channel=9 note=42 velocity=76 time=0.0089285625@note_on channel=0 note=48 velocity=27 time=0.0053571375@note_on channel=0 note=48 velocity=28 time=0@note_on channel=3 note=67 velocity=0 time=0.03839281875@note_on channel=3 note=69 velocity=124 time=0.03571425@note_on channel=0 note=57 velocity=83 time=0.03303568125@note_on channel=0 note=65 velocity=83 time=0@note_on channel=2 note=43 velocity=93 time=0.0142857@note_on channel=0 note=57 velocity=78 time=0.0124999875@note_on channel=0 note=65 velocity=77 time=0@note_on channel=0 note=57 velocity=83 time=0@note_on channel=0 note=65 velocity=83 time=0@note_on channel=9 note=38 velocity=101 time=0.00089285625@note_on channel=9 note=42 velocity=88 time=0.0017857125@note_on channel=9 note=42 velocity=0 time=0.00803570625@note_on channel=9 note=42 velocity=0 time=0@note_on channel=2 note=48 velocity=0 time=0.0232142625@note_on channel=0 note=65 velocity=0 time=0.06874993125000001@note_on channel=0 note=48 velocity=0 time=0.00446428125@note_on channel=0 note=57 velocity=0 time=0.0160714125@note_on channel=0 note=48 velocity=0 time=0.00446428125@note_on channel=0 note=57 velocity=0 time=0@note_on channel=0 note=65 velocity=0 time=0@note_on channel=0 note=65 velocity=0 time=0.01339284375@note_on channel=0 note=57 velocity=0 time=0.00624999375@note_on channel=3 note=69 velocity=0 time=0.02053569375@note_on channel=3 note=67 velocity=127 time=0.06517850625@note_on channel=0 note=53 velocity=73 time=0.00803570625@note_on channel=0 note=63 velocity=73 time=0@note_on channel=2 note=45 velocity=91 time=0.024999975@note_on channel=0 note=53 velocity=77 time=0.0017857125@note_on channel=0 note=63 velocity=73 time=0@note_on channel=0 note=53 velocity=73 time=0@note_on channel=0 note=63 velocity=68 time=0@note_on channel=9 note=42 velocity=68 time=0.02053569375@note_on channel=0 note=48 velocity=34 time=0.00624999375@note_on channel=3 note=67 velocity=0 time=0.03482139375@note_on channel=2 note=43 velocity=0 time=0.00089285625@note_on channel=9 note=38 velocity=0 time=0.01696426875@note_on channel=0 note=53 velocity=0 time=0.02767854375@note_on channel=0 note=53 velocity=0 time=0@note_on channel=0 note=55 velocity=73 time=0.0267856875@note_on channel=0 note=63 velocity=0 time=0.0160714125@note_on channel=0 note=53 velocity=0 time=0.0017857125@note_on channel=0 note=63 velocity=0 time=0.00714285@note_on channel=0 note=53 velocity=68 time=0.0017857125@note_on channel=0 note=55 velocity=68 time=0@note_on channel=0 note=64 velocity=64 time=0@note_on channel=0 note=55 velocity=73 time=0@note_on channel=0 note=64 velocity=66 time=0@note_on channel=0 note=64 velocity=73 time=0@note_on channel=0 note=55 velocity=68 time=0@note_on channel=0 note=64 velocity=77 time=0@note_on channel=0 note=55 velocity=0 time=0.00267856875@note_on channel=9 note=42 velocity=68 time=0.00089285625@note_on channel=9 note=36 velocity=78 time=0.00089285625@note_on channel=9 note=42 velocity=0 time=0.00624999375@note_on channel=9 note=42 velocity=0 time=0@note_on channel=0 note=63 velocity=0 time=0.00089285625@note_on channel=0 note=53 velocity=0 time=0@note_on channel=2 note=48 velocity=93 time=0.00446428125@note_on channel=0 note=53 velocity=73 time=0.010714275@note_on channel=0 note=55 velocity=72 time=0@note_on channel=0 note=53 velocity=0 time=0.01160713125@note_on channel=2 note=45 velocity=0 time=0.02053569375@note_on channel=9 note=36 velocity=0 time=0.09910704375@note_on channel=0 note=72 velocity=62 time=0.08303563125@note_on channel=0 note=72 velocity=58 time=0.0089285625@note_on channel=0 note=67 velocity=83 time=0.017857125@note_on channel=0 note=67 velocity=56 time=0@note_on channel=9 note=42 velocity=63 time=0.02142855@note_on channel=9 note=36 velocity=73 time=0.00267856875@note_on channel=2 note=48 velocity=0 time=0.032142825@note_on channel=0 note=55 velocity=0 time=0.0089285625@note_on channel=0 note=55 velocity=0 time=0.0089285625@note_on channel=0 note=55 velocity=0 time=0.046428525@note_on channel=0 note=64 velocity=0 time=0.00267856875@note_on channel=0 note=55 velocity=0 time=0@note_on channel=0 note=72 velocity=0 time=0.0017857125@note_on channel=0 note=64 velocity=0 time=0.00714285@note_on channel=0 note=65 velocity=73 time=0.0017857125@note_on channel=0 note=72 velocity=0 time=0.00714285@note_on channel=0 note=65 velocity=73 time=0.017857125@note_on channel=0 note=65 velocity=83 time=0.0017857125@note_on channel=0 note=57 velocity=59 time=0@note_on channel=0 note=65 velocity=83 time=0@note_on channel=0 note=57 velocity=80 time=0@note_on channel=2 note=48 velocity=93 time=0.0017857125@note_on channel=9 note=42 velocity=55 time=0.0017857125@note_on channel=0 note=57 velocity=82 time=0.00089285625@note_on channel=9 note=38 velocity=94 time=0@note_on channel=0 note=64 velocity=0 time=0.00446428125@note_on channel=9 note=42 velocity=0 time=0.00624999375@note_on channel=9 note=42 velocity=0 time=0@note_on channel=0 note=48 velocity=56 time=0.01160713125@note_on channel=0 note=57 velocity=12 time=0@note_on channel=0 note=57 velocity=0 time=0.00267856875@note_on channel=9 note=36 velocity=0 time=0.00089285625@note_on channel=0 note=67 velocity=0 time=0.00982141875@note_on channel=0 note=65 velocity=40 time=0.01339284375@note_on channel=0 note=67 velocity=0 time=0.00267856875@note_on channel=0 note=64 velocity=0 time=0.0267856875@note_on channel=0 note=65 velocity=0 time=0.00446428125@note_on channel=0 note=65 velocity=0 time=0@note_on channel=3 note=62 velocity=127 time=0.017857125@note_on channel=0 note=48 velocity=0 time=0.010714275@note_on channel=0 note=48 velocity=0 time=0.00714285@note_on channel=0 note=57 velocity=0 time=0.00446428125@note_on channel=0 note=57 velocity=0 time=0.00446428125@note_on channel=0 note=65 velocity=0 time=0.0017857125@note_on channel=0 note=57 velocity=36 time=0@note_on channel=0 note=57 velocity=0 time=0.0160714125@note_on channel=0 note=57 velocity=0 time=0.00446428125@note_on channel=0 note=65 velocity=0 time=0.00267856875@note_on channel=0 note=65 velocity=0 time=0.00803570625@note_on channel=3 note=62 velocity=0 time=0.0339285375@note_on channel=0 note=48 velocity=0 time=0.0267856875@note_on channel=9 note=38 velocity=0 time=0.0124999875@note_on channel=3 note=63 velocity=121 time=0.00089285625@note_on channel=9 note=42 velocity=63 time=0.04910709375@note_on channel=0 note=48 velocity=55 time=0.00624999375@note_on channel=0 note=48 velocity=36 time=0@note_on channel=0 note=48 velocity=27 time=0@note_on channel=0 note=48 velocity=36 time=0@note_on channel=3 note=63 velocity=0 time=0.0517856625@note_on channel=3 note=64 velocity=127 time=0.03571425@note_on channel=2 note=48 velocity=0 time=0.00089285625@note_on channel=0 note=58 velocity=83 time=0.039285675@note_on channel=0 note=67 velocity=83 time=0.0017857125@note_on channel=0 note=58 velocity=83 time=0.00446428125@note_on channel=0 note=67 velocity=83 time=0@note_on channel=0 note=58 velocity=83 time=0@note_on channel=0 note=67 velocity=83 time=0@note_on channel=0 note=58 velocity=83 time=0@note_on channel=0 note=66 velocity=83 time=0@note_on channel=0 note=67 velocity=83 time=0@note_on channel=9 note=36 velocity=89 time=0.003571425@note_on channel=9 note=42 velocity=65 time=0@note_on channel=0 note=66 velocity=0 time=0.00089285625@note_on channel=2 note=46 velocity=93 time=0.00089285625@note_on channel=9 note=42 velocity=0 time=0.00982141875@note_on channel=9 note=42 velocity=0 time=0@note_on channel=0 note=48 velocity=0 time=0.03839281875@note_on channel=0 note=58 velocity=0 time=0.0624999375@note_on channel=0 note=48 velocity=0 time=0.01160713125@note_on channel=0 note=67 velocity=0 time=0.00446428125@note_on channel=0 note=67 velocity=0 time=0.0017857125@note_on channel=0 note=58 velocity=0 time=0.00714285@note_on channel=0 note=67 velocity=0 time=0@note_on channel=0 note=67 velocity=0 time=0.00446428125@note_on channel=0 note=58 velocity=0 time=0@note_on channel=0 note=58 velocity=0 time=0.0017857125@note_on channel=0 note=48 velocity=0 time=0.01160713125@note_on channel=0 note=48 velocity=0 time=0.00446428125@note_on channel=3 note=64 velocity=0 time=0.01339284375@note_on channel=3 note=67 velocity=127 time=0.04910709375@note_on channel=9 note=36 velocity=0 time=0.05446423125@note_on channel=9 note=42 velocity=57 time=0.0089285625@note_on channel=0 note=48 velocity=34 time=0.0053571375@note_on channel=0 note=48 velocity=27 time=0@note_on channel=0 note=48 velocity=28 time=0@note_on channel=3 note=67 velocity=0 time=0.03839281875@note_on channel=2 note=46 velocity=0 time=0.00982141875@note_on channel=3 note=69 velocity=124 time=0.02589283125@note_on channel=0 note=57 velocity=83 time=0.03303568125@note_on channel=0 note=65 velocity=83 time=0@note_on channel=9 note=38 velocity=101 time=0.02767854375@note_on channel=9 note=42 velocity=51 time=0.00267856875@note_on channel=2 note=45 velocity=74 time=0.0017857125@note_on channel=9 note=42 velocity=0 time=0.0089285625@note_on channel=9 note=42 velocity=0 time=0@note_on channel=0 note=65 velocity=0 time=0.08839276875@note_on channel=0 note=48 velocity=0 time=0.00446428125@note_on channel=0 note=48 velocity=0 time=0.00714285@note_on channel=0 note=57 velocity=0 time=0.0089285625@note_on channel=0 note=48 velocity=0 time=0.00446428125@note_on channel=0 note=43 velocity=41 time=0.0053571375@note_on channel=3 note=69 velocity=0 time=0.03482139375@note_on channel=3 note=72 velocity=127 time=0.06517850625@note_on channel=9 note=38 velocity=0 time=0.00089285625@note_on channel=0 note=48 velocity=73 time=0.00714285@note_on channel=0 note=58 velocity=73 time=0@note_on channel=9 note=42 velocity=66 time=0.0482142375@note_on channel=2 note=45 velocity=0 time=0.0267856875@note_on channel=3 note=65 velocity=124 time=0.04732138125@note_on channel=3 note=67 velocity=127 time=0.02767854375@note_on channel=3 note=72 velocity=0 time=0.00089285625@note_on channel=3 note=67 velocity=127 time=0.00803570625@note_on channel=0 note=50 velocity=73 time=0.0017857125@note_on channel=3 note=65 velocity=0 time=0.00446428125@note_on channel=0 note=58 velocity=0 time=0.01160713125@note_on channel=0 note=48 velocity=0 time=0.0017857125@note_on channel=0 note=43 velocity=0 time=0.00267856875@note_on channel=0 note=50 velocity=68 time=0.00624999375@note_on channel=0 note=59 velocity=77 time=0@note_on channel=9 note=36 velocity=78 time=0.00446428125@note_on channel=2 note=43 velocity=93 time=0.00624999375@note_on channel=9 note=42 velocity=0 time=0.00089285625@note_on channel=9 note=36 velocity=0 time=0.146428425@note_on channel=0 note=67 velocity=58 time=0.09196419375@note_on channel=9 note=42 velocity=82 time=0.03660710625@note_on channel=9 note=36 velocity=73 time=0.0053571375@note_on channel=2 note=43 velocity=0 time=0.039285675@note_on channel=0 note=50 velocity=0 time=0.010714275@note_on channel=0 note=50 velocity=0 time=0.04910709375@note_on channel=0 note=60 velocity=73 time=0.010714275@note_on channel=0 note=67 velocity=0 time=0.00714285@note_on channel=0 note=52 velocity=80 time=0.0196428375@note_on channel=9 note=42 velocity=53 time=0.00267856875@note_on channel=9 note=38 velocity=94 time=0.0017857125@note_on channel=9 note=42 velocity=0 time=0.010714275@note_on channel=9 note=42 velocity=0 time=0@note_on channel=2 note=43 velocity=93 time=0.00089285625@note_on channel=9 note=36 velocity=0 time=0.0142857@note_on channel=0 note=59 velocity=0 time=0.05267851875@note_on channel=0 note=52 velocity=0 time=0.0714285@note_on channel=0 note=60 velocity=0 time=0.010714275@note_on channel=9 note=38 velocity=0 time=0.0732142125@note_on channel=2 note=43 velocity=0 time=0.0339285375@note_on channel=9 note=42 velocity=47 time=0.0160714125@note_on channel=2 note=38 velocity=92 time=0.00089285625@note_on channel=0 note=43 velocity=36 time=0.0053571375@note_on channel=0 note=53 velocity=83 time=0.12767844375@note_on channel=0 note=62 velocity=83 time=0.0017857125@note_on channel=2 note=38 velocity=0 time=0.00089285625@note_on channel=9 note=36 velocity=89 time=0.00714285@note_on channel=9 note=42 velocity=57 time=0@note_on channel=2 note=43 velocity=93 time=0.00714285@note_on channel=9 note=42 velocity=0 time=0.00267856875@note_on channel=9 note=42 velocity=0 time=0@note_on channel=2 note=41 velocity=79 time=0.00267856875@note_on channel=0 note=53 velocity=0 time=0.124999875@note_on channel=0 note=62 velocity=0 time=0@note_on channel=2 note=41 velocity=0 time=0.01339284375@note_on channel=0 note=43 velocity=0 time=0.00446428125@note_on channel=2 note=43 velocity=0 time=0.010714275@note_on channel=0 note=43 velocity=41 time=0.0982141875@note_on channel=2 note=43 velocity=79 time=0.00982141875@note_on channel=9 note=36 velocity=0 time=0.00267856875@note_on channel=9 note=42 velocity=76 time=0.0089285625@note_on channel=3 note=67 velocity=0 time=0.09732133125@note_on channel=3 note=67 velocity=0 time=0@note_on channel=0 note=52 velocity=83 time=0.015178556250000001@note_on channel=0 note=60 velocity=83 time=0@note_on channel=2 note=38 velocity=91 time=0.022321406250000002@note_on channel=9 note=38 velocity=101 time=0.0053571375@note_on channel=9 note=42 velocity=88 time=0.0017857125@note_on channel=9 note=42 velocity=0 time=0.00803570625@note_on channel=9 note=42 velocity=0 time=0@note_on channel=2 note=43 velocity=0 time=0.032142825@note_on channel=0 note=60 velocity=0 time=0.05982136875@note_on channel=0 note=52 velocity=0 time=0.02053569375@note_on channel=0 note=48 velocity=73 time=0.117857025@note_on channel=0 note=58 velocity=73 time=0@note_on channel=9 note=42 velocity=68 time=0.04732138125@note_on channel=2 note=40 velocity=93 time=0.00267856875@note_on channel=2 note=38 velocity=0 time=0.032142825@note_on channel=9 note=38 velocity=0 time=0.02410711875@note_on channel=0 note=50 velocity=73 time=0.05446423125@note_on channel=0 note=58 velocity=0 time=0.0160714125@note_on channel=0 note=48 velocity=0 time=0.0017857125@note_on channel=0 note=59 velocity=73 time=0.0089285625@note_on channel=0 note=50 velocity=68 time=0@note_on channel=0 note=59 velocity=77 time=0@note_on channel=9 note=42 velocity=68 time=0.003571425@note_on channel=9 note=36 velocity=78 time=0.00089285625@note_on channel=9 note=42 velocity=0 time=0.00624999375@note_on channel=9 note=42 velocity=0 time=0@note_on channel=2 note=43 velocity=93 time=0.02410711875@note_on channel=2 note=40 velocity=0 time=0.03660710625@note_on channel=9 note=36 velocity=0 time=0.08660705625@note_on channel=0 note=67 velocity=62 time=0.08303563125@note_on channel=0 note=67 velocity=58 time=0.0089285625@note_on channel=9 note=42 velocity=63 time=0.039285675@note_on channel=9 note=36 velocity=73 time=0.00267856875@note_on channel=0 note=50 velocity=0 time=0.04999995@note_on channel=2 note=43 velocity=0 time=0.02053569375@note_on channel=0 note=50 velocity=0 time=0.0285714@note_on channel=0 note=67 velocity=0 time=0.0017857125@note_on channel=0 note=60 velocity=73 time=0.0089285625@note_on channel=0 note=67 velocity=0 time=0.00714285@note_on channel=0 note=60 velocity=73 time=0.017857125@note_on channel=0 note=52 velocity=80 time=0.0017857125@note_on channel=9 note=42 velocity=55 time=0.003571425@note_on channel=0 note=52 velocity=82 time=0.00089285625@note_on channel=9 note=38 velocity=94 time=0@note_on channel=0 note=59 velocity=0 time=0.00446428125@note_on channel=9 note=42 velocity=0 time=0.00624999375@note_on channel=9 note=42 velocity=0 time=0@note_on channel=2 note=43 velocity=93 time=0.01160713125@note_on channel=9 note=36 velocity=0 time=0.003571425@note_on channel=0 note=59 velocity=0 time=0.05267851875@note_on channel=0 note=43 velocity=0 time=0.03303568125@note_on channel=0 note=52 velocity=0 time=0.0160714125@note_on channel=0 note=52 velocity=0 time=0.022321406250000002@note_on channel=0 note=60 velocity=0 time=0.00267856875@note_on channel=0 note=60 velocity=0 time=0.00803570625@note_on channel=9 note=38 velocity=0 time=0.0732142125@note_on channel=2 note=43 velocity=0 time=0.0410713875@note_on channel=2 note=38 velocity=93 time=0.00803570625@note_on channel=9 note=42 velocity=63 time=0.00089285625@note_on channel=0 note=43 velocity=27 time=0.00624999375@note_on channel=0 note=43 velocity=36 time=0@note_on channel=0 note=53 velocity=83 time=0.12767844375@note_on channel=0 note=62 velocity=83 time=0.0017857125@note_on channel=0 note=53 velocity=83 time=0.00446428125@note_on channel=0 note=61 velocity=83 time=0@note_on channel=0 note=62 velocity=83 time=0@note_on channel=9 note=36 velocity=89 time=0.003571425@note_on channel=9 note=42 velocity=65 time=0@note_on channel=2 note=38 velocity=0 time=0@note_on channel=0 note=61 velocity=0 time=0.00089285625@note_on channel=2 note=43 velocity=84 time=0.00803570625@note_on channel=9 note=42 velocity=0 time=0.00267856875@note_on channel=9 note=42 velocity=0 time=0@note_on channel=0 note=53 velocity=0 time=0.10089275625@note_on channel=0 note=62 velocity=0 time=0.017857125@note_on channel=0 note=53 velocity=0 time=0.00714285@note_on channel=0 note=62 velocity=0 time=0@note_on channel=0 note=43 velocity=0 time=0.017857125@note_on channel=0 note=43 velocity=0 time=0.00446428125@note_on channel=2 note=43 velocity=0 time=0.0053571375@note_on channel=0 note=43 velocity=41 time=0.09910704375@note_on channel=9 note=36 velocity=0 time=0.0124999875@note_on channel=2 note=43 velocity=81 time=0.00089285625@note_on channel=9 note=42 velocity=57 time=0.00803570625@note_on channel=0 note=43 velocity=28 time=0.0053571375@note_on channel=0 note=52 velocity=83 time=0.10714275@note_on channel=0 note=60 velocity=83 time=0@note_on channel=0 note=52 velocity=83 time=0.0267856875@note_on channel=0 note=60 velocity=83 time=0@note_on channel=9 note=38 velocity=101 time=0.00089285625@note_on channel=9 note=42 velocity=51 time=0.00267856875@note_on channel=2 note=38 velocity=93 time=0@note_on channel=9 note=42 velocity=0 time=0.010714275@note_on channel=9 note=42 velocity=0 time=0@note_on channel=2 note=43 velocity=0 time=0.032142825@note_on channel=0 note=60 velocity=0 time=0.05624994375@note_on channel=0 note=43 velocity=0 time=0.00446428125@note_on channel=0 note=52 velocity=0 time=0.0160714125@note_on channel=0 note=52 velocity=0 time=0.00446428125@note_on channel=0 note=60 velocity=0 time=0@note_on channel=9 note=38 velocity=0 time=0.10624989375@note_on channel=0 note=48 velocity=73 time=0.00714285@note_on channel=0 note=58 velocity=73 time=0@note_on channel=0 note=48 velocity=73 time=0.0267856875@note_on channel=0 note=58 velocity=68 time=0@note_on channel=2 note=40 velocity=93 time=0.01874998125@note_on channel=9 note=42 velocity=66 time=0.00267856875@note_on channel=0 note=43 velocity=34 time=0.0053571375@note_on channel=2 note=38 velocity=0 time=0.0232142625@note_on channel=3 note=65 velocity=124 time=0.04553566875@note_on channel=0 note=48 velocity=0 time=0.01160713125@note_on channel=3 note=67 velocity=127 time=0.0160714125@note_on channel=3 note=67 velocity=127 time=0.0089285625@note_on channel=0 note=50 velocity=73 time=0.0017857125@pitchwheel channel=3 pitch=-693 time=0.00089285625@note_on channel=3 note=65 velocity=0 time=0.003571425@note_on channel=0 note=58 velocity=0 time=0.01160713125@note_on channel=0 note=48 velocity=0 time=0.0017857125@note_on channel=0 note=58 velocity=0 time=0.00714285@note_on channel=0 note=50 velocity=73 time=0.0017857125@note_on channel=0 note=59 velocity=66 time=0@note_on channel=0 note=59 velocity=73 time=0@note_on channel=0 note=50 velocity=68 time=0@note_on channel=0 note=59 velocity=77 time=0@note_on channel=0 note=50 velocity=0 time=0.00267856875@note_on channel=9 note=42 velocity=73 time=0.00089285625@note_on channel=9 note=36 velocity=84 time=0.00089285625@pitchwheel channel=3 pitch=-147 time=0.00267856875@note_on channel=9 note=42 velocity=0 time=0.00446428125@note_on channel=9 note=42 velocity=0 time=0@note_on channel=2 note=43 velocity=93 time=0.00803570625@note_on channel=0 note=48 velocity=73 time=0.00714285@note_on channel=0 note=50 velocity=72 time=0@note_on channel=2 note=40 velocity=0 time=0.00089285625@pitchwheel channel=3 pitch=-124 time=0.00446428125@note_on channel=0 note=48 velocity=0 time=0.00624999375@pitchwheel channel=3 pitch=0 time=0.01339284375@note_on channel=9 note=36 velocity=0 time=0.1142856@control_change channel=3 control=1 value=2 time=0.017857125@note_on channel=0 note=67 velocity=62 time=0.0571428@note_on channel=0 note=67 velocity=58 time=0.0089285625@control_change channel=3 control=1 value=21 time=0.0053571375@note_on channel=0 note=62 velocity=56 time=0.0124999875@note_on channel=2 note=43 velocity=0 time=0.01696426875@note_on channel=9 note=38 velocity=101 time=0.00446428125@note_on channel=9 note=42 velocity=60 time=0@control_change channel=3 control=1 value=37 time=0.01696426875@note_on channel=0 note=50 velocity=0 time=0.03571425@control_change channel=3 control=1 value=58 time=0.00446428125@pitchwheel channel=3 pitch=7 time=0.0339285375@control_change channel=3 control=1 value=74 time=0.00624999375@note_on channel=0 note=50 velocity=0 time=0.0017857125@note_on channel=0 note=50 velocity=0 time=0.00267856875@note_on channel=0 note=67 velocity=0 time=0.0017857125@note_on channel=0 note=59 velocity=0 time=0.00714285@note_on channel=0 note=60 velocity=73 time=0.0017857125@note_on channel=0 note=67 velocity=0 time=0.00714285@control_change channel=3 control=1 value=88 time=0.01339284375@note_on channel=0 note=60 velocity=73 time=0.00446428125@note_on channel=0 note=52 velocity=59 time=0.0017857125@note_on channel=0 note=60 velocity=83 time=0@note_on channel=0 note=52 velocity=80 time=0@note_on channel=9 note=42 velocity=57 time=0.0017857125@note_on channel=0 note=52 velocity=82 time=0.00267856875@note_on channel=0 note=59 velocity=0 time=0.00446428125@note_on channel=2 note=43 velocity=93 time=0.0017857125@note_on channel=9 note=42 velocity=0 time=0.00803570625@note_on channel=9 note=42 velocity=0 time=0@pitchwheel channel=3 pitch=0 time=0.0089285625@note_on channel=0 note=62 velocity=0 time=0.0124999875@control_change channel=3 control=1 value=100 time=0.0053571375@note_on channel=9 note=38 velocity=0 time=0.00982141875@note_on channel=0 note=59 velocity=0 time=0.02767854375@pitchwheel channel=3 pitch=167 time=0.017857125@control_change channel=3 control=1 value=105 time=0.01339284375@note_on channel=0 note=43 velocity=0 time=0.0017857125@note_on channel=0 note=43 velocity=0 time=0.00714285@pitchwheel channel=3 pitch=62 time=0@note_on channel=0 note=52 velocity=0 time=0.00446428125@note_on channel=0 note=52 velocity=0 time=0.00446428125@note_on channel=0 note=60 velocity=0 time=0.0017857125@note_on channel=0 note=52 velocity=0 time=0.02053569375@note_on channel=0 note=60 velocity=0 time=0.00267856875@pitchwheel channel=3 pitch=382 time=0.00446428125@note_on channel=0 note=60 velocity=0 time=0.003571425@pitchwheel channel=3 pitch=0 time=0.02053569375@control_change channel=3 control=1 value=98 time=0.022321406250000002@pitchwheel channel=3 pitch=142 time=0.04017853125@control_change channel=3 control=1 value=71 time=0.00714285@pitchwheel channel=3 pitch=246 time=0.01339284375@note_on channel=9 note=42 velocity=63 time=0.0196428375@note_on channel=2 note=43 velocity=0 time=0.00089285625@control_change channel=3 control=1 value=63 time=0.0017857125@note_on channel=0 note=43 velocity=36 time=0.003571425@note_on channel=0 note=43 velocity=27 time=0@note_on channel=0 note=43 velocity=36 time=0@note_on channel=2 note=38 velocity=90 time=0.00714285@pitchwheel channel=3 pitch=0 time=0.0267856875@pitchwheel channel=3 pitch=119 time=0.044642812500000004@pitchwheel channel=3 pitch=182 time=0.0160714125@control_change channel=3 control=1 value=53 time=0.00624999375@pitchwheel channel=3 pitch=150 time=0.0160714125@note_on channel=0 note=53 velocity=83 time=0.010714275@note_on channel=0 note=62 velocity=83 time=0.0017857125@note_on channel=0 note=53 velocity=83 time=0.00446428125@note_on channel=0 note=62 velocity=83 time=0@note_on channel=0 note=53 velocity=83 time=0@note_on channel=0 note=61 velocity=83 time=0@note_on channel=0 note=62 velocity=83 time=0@note_on channel=9 note=38 velocity=70 time=0.00089285625@note_on channel=9 note=42 velocity=86 time=0.0017857125@note_on channel=9 note=36 velocity=78 time=0.00089285625@note_on channel=0 note=61 velocity=0 time=0.00089285625@note_on channel=9 note=42 velocity=0 time=0@note_on channel=9 note=42 velocity=0 time=0@note_on channel=2 note=43 velocity=93 time=0.0124999875@pitchwheel channel=3 pitch=142 time=0.003571425@note_on channel=9 note=38 velocity=101 time=0.0142857@note_on channel=2 note=38 velocity=0 time=0.00982141875@pitchwheel channel=3 pitch=0 time=0.0053571375@control_change channel=3 control=1 value=59 time=0.0285714@pitchwheel channel=3 pitch=230 time=0.02946425625@note_on channel=0 note=53 velocity=0 time=0.00803570625@pitchwheel channel=3 pitch=278 time=0.00714285@control_change channel=3 control=1 value=84 time=0.00267856875@note_on channel=0 note=43 velocity=0 time=0.0017857125@note_on channel=0 note=62 velocity=0 time=0.00446428125@note_on channel=0 note=62 velocity=0 time=0.0017857125@note_on channel=0 note=53 velocity=0 time=0.00714285@note_on channel=0 note=62 velocity=0 time=0@note_on channel=0 note=53 velocity=0 time=0.00446428125@note_on channel=0 note=43 velocity=0 time=0.01339284375@pitchwheel channel=3 pitch=190 time=0@control_change channel=3 control=1 value=110 time=0@note_on channel=0 note=43 velocity=0 time=0.00446428125@note_on channel=9 note=36 velocity=0 time=0.01874998125@pitchwheel channel=3 pitch=0 time=0.003571425@note_on channel=2 note=43 velocity=0 time=0.00267856875@control_change channel=3 control=1 value=127 time=0.01339284375@note_on channel=9 note=38 velocity=0 time=0.04374995625@note_on channel=9 note=38 velocity=0 time=0@pitchwheel channel=3 pitch=285 time=0.00089285625@pitchwheel channel=3 pitch=420 time=0.015178556250000001@note_on channel=0 note=43 velocity=41 time=0.00624999375@control_change channel=3 control=1 value=76 time=0.00982141875@note_on channel=9 note=42 velocity=59 time=0.010714275@note_on channel=2 note=43 velocity=93 time=0.00446428125@note_on channel=0 note=43 velocity=27 time=0.0017857125@note_on channel=0 note=43 velocity=28 time=0@pitchwheel channel=3 pitch=1582 time=0.01160713125@control_change channel=3 control=1 value=0 time=0.00714285@pitchwheel channel=3 pitch=0 time=0.0196428375@note_on channel=3 note=67 velocity=0 time=0.053571375@note_on channel=3 note=67 velocity=0 time=0@note_on channel=0 note=52 velocity=83 time=0.015178556250000001@note_on channel=0 note=60 velocity=83 time=0@note_on channel=3 note=65 velocity=124 time=0.00089285625@note_on channel=3 note=65 velocity=110 time=0.0089285625@note_on channel=0 note=52 velocity=78 time=0.01696426875@note_on channel=0 note=60 velocity=77 time=0@note_on channel=0 note=52 velocity=83 time=0@note_on channel=0 note=60 velocity=83 time=0@note_on channel=9 note=42 velocity=65 time=0.00267856875@note_on channel=9 note=38 velocity=100 time=0.0053571375@note_on channel=9 note=42 velocity=0 time=0.00714285@note_on channel=9 note=42 velocity=0 time=0@note_on channel=3 note=65 velocity=0 time=0.0017857125@note_on channel=3 note=65 velocity=0 time=0@note_on channel=2 note=38 velocity=93 time=0.010714275@note_on channel=3 note=62 velocity=115 time=0.00624999375@note_on channel=3 note=62 velocity=76 time=0.0089285625@note_on channel=2 note=43 velocity=0 time=0.024999975@note_on channel=3 note=62 velocity=0 time=0.02410711875@note_on channel=3 note=62 velocity=0 time=0@note_on channel=0 note=60 velocity=0 time=0.010714275@note_on channel=3 note=60 velocity=127 time=0.00089285625@note_on channel=0 note=43 velocity=0 time=0.003571425@note_on channel=3 note=60 velocity=127 time=0.0053571375@note_on channel=0 note=52 velocity=0 time=0.010714275@note_on channel=0 note=43 velocity=0 time=0.00446428125@note_on channel=0 note=52 velocity=0 time=0@note_on channel=0 note=60 velocity=0 time=0@note_on channel=0 note=60 velocity=0 time=0.01339284375@note_on channel=0 note=52 velocity=0 time=0.00624999375@note_on channel=3 note=60 velocity=0 time=0.003571425@note_on channel=3 note=60 velocity=0 time=0@note_on channel=3 note=58 velocity=124 time=0.02410711875@note_on channel=3 note=58 velocity=127 time=0.0089285625@note_on channel=0 note=48 velocity=73 time=0.0571428@note_on channel=0 note=58 velocity=73 time=0@note_on channel=9 note=38 velocity=0 time=0.02589283125@note_on channel=0 note=48 velocity=77 time=0.00089285625@note_on channel=0 note=58 velocity=73 time=0@note_on channel=0 note=48 velocity=73 time=0@note_on channel=0 note=58 velocity=68 time=0@note_on channel=9 note=42 velocity=41 time=0.02053569375@note_on channel=9 note=36 velocity=94 time=0.00089285625@note_on channel=9 note=46 velocity=89 time=0.00089285625@note_on channel=0 note=43 velocity=34 time=0.00446428125@note_on channel=2 note=40 velocity=93 time=0@note_on channel=2 note=38 velocity=0 time=0.05624994375@note_on channel=0 note=48 velocity=0 time=0.02410711875@note_on channel=0 note=48 velocity=0 time=0@note_on channel=0 note=50 velocity=73 time=0.0267856875@note_on channel=0 note=58 velocity=0 time=0.0160714125@note_on channel=0 note=48 velocity=0 time=0.0017857125@note_on channel=9 note=42 velocity=0 time=0.003571425@note_on channel=0 note=58 velocity=0 time=0.003571425@note_on channel=0 note=48 velocity=68 time=0.0017857125@note_on channel=0 note=50 velocity=68 time=0@note_on channel=0 note=59 velocity=64 time=0@note_on channel=0 note=50 velocity=73 time=0@note_on channel=0 note=59 velocity=66 time=0@note_on channel=0 note=59 velocity=73 time=0@note_on channel=0 note=50 velocity=68 time=0@note_on channel=0 note=59 velocity=77 time=0@note_on channel=0 note=50 velocity=0 time=0.00267856875@note_on channel=9 note=42 velocity=73 time=0.00089285625@note_on channel=9 note=36 velocity=84 time=0.00089285625@note_on channel=0 note=58 velocity=0 time=0.00714285@note_on channel=0 note=48 velocity=0 time=0@pitchwheel channel=3 pitch=191 time=0.00267856875@note_on channel=9 note=46 velocity=0 time=0.00446428125@note_on channel=0 note=48 velocity=73 time=0.00803570625@note_on channel=0 note=50 velocity=72 time=0@note_on channel=0 note=48 velocity=0 time=0.01160713125@pitchwheel channel=3 pitch=350 time=0.00267856875@note_on channel=2 note=43 velocity=93 time=0.00267856875@pitchwheel channel=3 pitch=459 time=0.01696426875@pitchwheel channel=3 pitch=635 time=0.0160714125@note_on channel=3 note=58 velocity=0 time=0.0089285625@note_on channel=2 note=40 velocity=0 time=0.00089285625@pitchwheel channel=3 pitch=419 time=0.0124999875@pitchwheel channel=3 pitch=214 time=0.0267856875@pitchwheel channel=3 pitch=0 time=0.017857125@note_on channel=9 note=36 velocity=0 time=0.00624999375@note_on channel=9 note=36 velocity=0 time=0@note_on channel=2 note=43 velocity=0 time=0.08124991875@note_on channel=0 note=67 velocity=62 time=0.00982141875@note_on channel=9 note=42 velocity=0 time=0@note_on channel=0 note=67 velocity=58 time=0.0089285625@note_on channel=0 note=62 velocity=83 time=0.017857125@note_on channel=0 note=62 velocity=56 time=0@note_on channel=9 note=43 velocity=53 time=0.0124999875@note_on channel=9 note=38 velocity=53 time=0.0089285625@note_on channel=9 note=42 velocity=60 time=0@note_on channel=9 note=38 velocity=100 time=0.00982141875@note_on channel=9 note=43 velocity=101 time=0.01160713125@note_on channel=2 note=43 velocity=93 time=0.00089285625@pitchwheel channel=3 pitch=128 time=0.02053569375@note_on channel=0 note=50 velocity=0 time=0.00089285625@note_on channel=0 note=50 velocity=0 time=0.0089285625@pitchwheel channel=3 pitch=256 time=0.039285675@note_on channel=0 note=50 velocity=0 time=0.00714285@note_on channel=0 note=59 velocity=0 time=0.00267856875@note_on channel=0 note=50 velocity=0 time=0@note_on channel=0 note=67 velocity=0 time=0.0017857125@note_on channel=0 note=59 velocity=0 time=0.00714285@note_on channel=0 note=60 velocity=73 time=0.0017857125@note_on channel=0 note=67 velocity=0 time=0.00714285@note_on channel=0 note=60 velocity=73 time=0.017857125@note_on channel=0 note=60 velocity=83 time=0.0017857125@note_on channel=0 note=52 velocity=59 time=0@note_on channel=0 note=60 velocity=83 time=0@note_on channel=0 note=52 velocity=80 time=0@note_on channel=9 note=42 velocity=57 time=0.0017857125@note_on channel=0 note=52 velocity=82 time=0.00267856875@note_on channel=0 note=59 velocity=0 time=0.00446428125@note_on channel=9 note=42 velocity=0 time=0.00982141875@note_on channel=9 note=42 velocity=0 time=0@pitchwheel channel=3 pitch=640 time=0.00446428125@note_on channel=0 note=43 velocity=56 time=0.003571425@note_on channel=0 note=52 velocity=12 time=0@note_on channel=0 note=52 velocity=0 time=0.00267856875@note_on channel=2 note=41 velocity=93 time=0.00446428125@note_on channel=0 note=62 velocity=0 time=0.00624999375@note_on channel=0 note=60 velocity=40 time=0.01339284375@note_on channel=9 note=38 velocity=0 time=0.0017857125@note_on channel=9 note=38 velocity=0 time=0@note_on channel=0 note=62 velocity=0 time=0.00089285625@note_on channel=9 note=43 velocity=0 time=0.0124999875@note_on channel=9 note=43 velocity=0 time=0@pitchwheel channel=3 pitch=768 time=0.00446428125@note_on channel=0 note=59 velocity=0 time=0.00982141875@pitchwheel channel=3 pitch=896 time=0@note_on channel=0 note=60 velocity=0 time=0.00446428125@note_on channel=0 note=60 velocity=0 time=0@pitchwheel channel=3 pitch=1024 time=0.02767854375@note_on channel=0 note=43 velocity=0 time=0.00089285625@pitchwheel channel=3 pitch=1152 time=0.00624999375@note_on channel=0 note=43 velocity=0 time=0.00089285625@note_on channel=0 note=52 velocity=0 time=0.00446428125@note_on channel=0 note=52 velocity=0 time=0.00446428125@note_on channel=0 note=60 velocity=0 time=0.0017857125@note_on channel=0 note=52 velocity=36 time=0@note_on channel=2 note=43 velocity=0 time=0.003571425@note_on channel=0 note=52 velocity=0 time=0.0124999875@pitchwheel channel=3 pitch=1408 time=0.00267856875@note_on channel=0 note=52 velocity=0 time=0.0017857125@note_on channel=0 note=60 velocity=0 time=0.00267856875@pitchwheel channel=3 pitch=1536 time=0.0053571375@note_on channel=0 note=60 velocity=0 time=0.00267856875@pitchwheel channel=3 pitch=1792 time=0.017857125@pitchwheel channel=3 pitch=1920 time=0.0089285625@pitchwheel channel=3 pitch=2176 time=0.0196428375@pitchwheel channel=3 pitch=2304 time=0.01160713125@note_on channel=0 note=43 velocity=0 time=0.00267856875@pitchwheel channel=3 pitch=2560 time=0.0160714125@pitchwheel channel=3 pitch=2816 time=0.0410713875@note_on channel=9 note=42 velocity=63 time=0.0053571375@pitchwheel channel=3 pitch=3072 time=0.003571425@note_on channel=0 note=43 velocity=55 time=0.00267856875@note_on channel=0 note=43 velocity=36 time=0@note_on channel=0 note=43 velocity=27 time=0@note_on channel=0 note=43 velocity=36 time=0@pitchwheel channel=3 pitch=3200 time=0.00803570625@pitchwheel channel=3 pitch=3456 time=0.00982141875@pitchwheel channel=3 pitch=3840 time=0.010714275@pitchwheel channel=3 pitch=4352 time=0.0089285625@note_on channel=2 note=41 velocity=0 time=0.003571425@pitchwheel channel=3 pitch=4736 time=0.00624999375@pitchwheel channel=3 pitch=1152 time=0.0232142625@pitchwheel channel=3 pitch=0 time=0.00982141875@pitchwheel channel=3 pitch=256 time=0.02142855@pitchwheel channel=3 pitch=0 time=0.00803570625@note_on channel=0 note=53 velocity=83 time=0.017857125@note_on channel=0 note=62 velocity=83 time=0.0017857125@note_on channel=2 note=40 velocity=74 time=0.00089285625@note_on channel=0 note=53 velocity=83 time=0.003571425@note_on channel=0 note=62 velocity=83 time=0@note_on channel=0 note=53 velocity=83 time=0@note_on channel=0 note=62 velocity=83 time=0@note_on channel=0 note=53 velocity=83 time=0@note_on channel=0 note=61 velocity=83 time=0@note_on channel=0 note=62 velocity=83 time=0@note_on channel=9 note=38 velocity=70 time=0.00089285625@note_on channel=9 note=42 velocity=86 time=0.0017857125@note_on channel=9 note=36 velocity=78 time=0.00089285625@note_on channel=0 note=61 velocity=0 time=0.00089285625@note_on channel=9 note=42 velocity=0 time=0@note_on channel=9 note=42 velocity=0 time=0@note_on channel=9 note=38 velocity=101 time=0.030357112500000002@note_on channel=3 note=58 velocity=0 time=0.010714275@note_on channel=0 note=43 velocity=0 time=0.00803570625@note_on channel=0 note=53 velocity=0 time=0.0624999375@note_on channel=0 note=43 velocity=0 time=0.01160713125@note_on channel=0 note=62 velocity=0 time=0.00446428125@note_on channel=0 note=62 velocity=0 time=0.0017857125@note_on channel=0 note=53 velocity=0 time=0.00714285@note_on channel=0 note=62 velocity=0 time=0@note_on channel=0 note=62 velocity=0 time=0.00446428125@note_on channel=0 note=53 velocity=0 time=0@note_on channel=0 note=53 velocity=0 time=0.0017857125@note_on channel=0 note=43 velocity=0 time=0.01160713125@note_on channel=0 note=43 velocity=0 time=0.00446428125@note_on channel=9 note=36 velocity=0 time=0.01874998125@note_on channel=9 note=38 velocity=0 time=0.06339279375@note_on channel=9 note=38 velocity=0 time=0@note_on channel=0 note=43 velocity=41 time=0.022321406250000002@note_on channel=9 note=42 velocity=59 time=0.02053569375@note_on channel=9 note=50 velocity=105 time=0.00267856875@note_on channel=0 note=43 velocity=34 time=0.003571425@note_on channel=0 note=43 velocity=27 time=0@note_on channel=0 note=43 velocity=28 time=0@note_on channel=2 note=40 velocity=0 time=0.02053569375@note_on channel=9 note=50 velocity=0 time=0.044642812500000004@note_on channel=0 note=52 velocity=83 time=0.04196424375@note_on channel=0 note=60 velocity=83 time=0@note_on channel=0 note=52 velocity=78 time=0.0267856875@note_on channel=0 note=60 velocity=83 time=0@note_on channel=0 note=52 velocity=78 time=0@note_on channel=0 note=60 velocity=77 time=0@note_on channel=0 note=52 velocity=83 time=0@note_on channel=0 note=60 velocity=83 time=0@note_on channel=9 note=42 velocity=65 time=0.00267856875@note_on channel=2 note=39 velocity=77 time=0.0053571375@note_on channel=9 note=42 velocity=0 time=0.00714285@note_on channel=9 note=42 velocity=0 time=0@note_on channel=0 note=60 velocity=0 time=0.0874999125@note_on channel=0 note=43 velocity=0 time=0.00446428125@note_on channel=0 note=43 velocity=0 time=0.00714285@note_on channel=0 note=52 velocity=0 time=0.0089285625@note_on channel=0 note=43 velocity=0 time=0.00446428125@note_on channel=0 note=52 velocity=0 time=0@note_on channel=0 note=60 velocity=0 time=0@note_on channel=0 note=60 velocity=0 time=0.0017857125@note_on channel=0 note=60 velocity=0 time=0.01160713125@note_on channel=0 note=52 velocity=0 time=0.00446428125@note_on channel=0 note=52 velocity=0 time=0.0017857125@note_on channel=9 note=50 velocity=105 time=0.0017857125@note_on channel=9 note=50 velocity=0 time=0.0660713625@note_on channel=0 note=48 velocity=73 time=0.02589283125@note_on channel=0 note=58 velocity=73 time=0@note_on channel=0 note=48 velocity=81 time=0.0267856875@note_on channel=0 note=58 velocity=83 time=0@note_on channel=0 note=48 velocity=77 time=0@note_on channel=0 note=58 velocity=73 time=0@note_on channel=0 note=48 velocity=73 time=0@note_on channel=0 note=58 velocity=68 time=0@note_on channel=9 note=42 velocity=41 time=0.02053569375@note_on channel=9 note=36 velocity=94 time=0.00089285625@note_on channel=9 note=46 velocity=89 time=0.00089285625@note_on channel=9 note=47 velocity=83 time=0.00089285625@note_on channel=0 note=43 velocity=34 time=0.003571425@note_on channel=2 note=39 velocity=0 time=0@note_on channel=9 note=47 velocity=0 time=0.07767849375@note_on channel=0 note=48 velocity=0 time=0.00267856875@note_on channel=0 note=48 velocity=0 time=0@note_on channel=0 note=50 velocity=73 time=0.0267856875@note_on channel=0 note=58 velocity=0 time=0.0160714125@note_on channel=0 note=48 velocity=0 time=0.0017857125@note_on channel=9 note=42 velocity=0 time=0.003571425@note_on channel=0 note=48 velocity=0 time=0.00089285625@note_on channel=0 note=58 velocity=0 time=0.00267856875@note_on channel=2 note=38 velocity=84 time=0@note_on channel=0 note=43 velocity=0 time=0.0017857125@note_on channel=0 note=58 velocity=0 time=0@note_on channel=0 note=58 velocity=0 time=0@note_on channel=0 note=43 velocity=0 time=0@note_on channel=0 note=50 velocity=0 time=0@note_on channel=0 note=57 velocity=68 time=0@note_on channel=0 note=66 velocity=77 time=0@note_on channel=9 note=36 velocity=78 time=0.00446428125@note_on channel=9 note=49 velocity=82 time=0.003571425@note_on channel=9 note=46 velocity=0 time=0.010714275@note_on channel=9 note=49 velocity=0 time=0.0124999875@note_on channel=3 note=62 velocity=127 time=0.07410706875@note_on channel=9 note=36 velocity=0 time=0.044642812500000004@note_on channel=9 note=36 velocity=0 time=0.00803570625@note_on channel=3 note=62 velocity=0 time=0.0410713875@note_on channel=3 note=63 velocity=115 time=0.04017853125@note_on channel=0 note=74 velocity=58 time=0.010714275@note_on channel=9 note=42 velocity=82 time=0.03660710625@note_on channel=9 note=36 velocity=73 time=0.0053571375@note_on channel=3 note=63 velocity=0 time=0.05446423125@note_on channel=2 note=38 velocity=0 time=0.01160713125@note_on channel=3 note=64 velocity=127 time=0.02410711875@note_on channel=0 note=57 velocity=0 time=0.0089285625@note_on channel=0 note=67 velocity=73 time=0.010714275@note_on channel=0 note=74 velocity=0 time=0.00714285@note_on channel=0 note=59 velocity=80 time=0.0196428375@note_on channel=9 note=42 velocity=53 time=0.00267856875@note_on channel=9 note=38 velocity=94 time=0.0017857125@note_on channel=2 note=38 velocity=70 time=0.0053571375@note_on channel=9 note=42 velocity=0 time=0.0053571375@note_on channel=9 note=42 velocity=0 time=0@note_on channel=9 note=36 velocity=0 time=0.015178556250000001@note_on channel=0 note=66 velocity=0 time=0.05267851875@note_on channel=0 note=59 velocity=0 time=0.0714285@note_on channel=0 note=67 velocity=0 time=0.010714275@note_on channel=3 note=64 velocity=0 time=0.01160713125@note_on channel=3 note=62 velocity=127 time=0.030357112500000002@note_on channel=9 note=38 velocity=0 time=0.03124996875@note_on channel=9 note=42 velocity=47 time=0.04999995@note_on channel=0 note=50 velocity=36 time=0.00624999375@note_on channel=3 note=62 velocity=0 time=0.00624999375@note_on channel=2 note=38 velocity=0 time=0.0160714125@note_on channel=0 note=60 velocity=83 time=0.1053570375@note_on channel=0 note=69 velocity=83 time=0.0017857125@note_on channel=2 note=38 velocity=93 time=0.00714285@note_on channel=9 note=36 velocity=89 time=0.00089285625@note_on channel=9 note=42 velocity=57 time=0@note_on channel=9 note=42 velocity=0 time=0.00982141875@note_on channel=9 note=42 velocity=0 time=0@note_on channel=3 note=62 velocity=127 time=0.09196419375@note_on channel=0 note=60 velocity=0 time=0.03571425@note_on channel=0 note=69 velocity=0 time=0@note_on channel=0 note=50 velocity=0 time=0.017857125@note_on channel=3 note=62 velocity=0 time=0.04017853125@note_on channel=3 note=63 velocity=115 time=0.04017853125@note_on channel=0 note=50 velocity=41 time=0.0285714@note_on channel=9 note=36 velocity=0 time=0.0124999875@note_on channel=9 note=42 velocity=76 time=0.0089285625@note_on channel=2 note=38 velocity=0 time=0.0285714@note_on channel=3 note=63 velocity=0 time=0.0285714@note_on channel=3 note=64 velocity=127 time=0.03571425@note_on channel=0 note=59 velocity=83 time=0.0196428375@note_on channel=0 note=67 velocity=83 time=0@note_on channel=2 note=38 velocity=93 time=0.022321406250000002@note_on channel=9 note=38 velocity=101 time=0.0053571375@note_on channel=9 note=42 velocity=88 time=0.0017857125@note_on channel=9 note=42 velocity=0 time=0.00803570625@note_on channel=9 note=42 velocity=0 time=0@note_on channel=0 note=67 velocity=0 time=0.09196419375@note_on channel=0 note=59 velocity=0 time=0.02053569375@note_on channel=3 note=64 velocity=0 time=0.053571375@note_on channel=3 note=69 velocity=127 time=0.024999975@note_on channel=0 note=55 velocity=73 time=0.039285675@note_on channel=0 note=65 velocity=73 time=0@note_on channel=9 note=42 velocity=68 time=0.04732138125@note_on channel=3 note=69 velocity=0 time=0.00714285@note_on channel=2 note=38 velocity=0 time=0.00267856875@note_on channel=9 note=38 velocity=0 time=0.04910709375@note_on channel=0 note=57 velocity=73 time=0.05446423125@note_on channel=0 note=65 velocity=0 time=0.0160714125@note_on channel=0 note=55 velocity=0 time=0.0017857125@note_on channel=0 note=66 velocity=73 time=0.0089285625@note_on channel=0 note=57 velocity=68 time=0@note_on channel=0 note=66 velocity=77 time=0@note_on channel=2 note=38 velocity=93 time=0.00089285625@note_on channel=9 note=42 velocity=68 time=0.00267856875@note_on channel=9 note=36 velocity=78 time=0.00089285625@note_on channel=9 note=42 velocity=0 time=0.00624999375@note_on channel=9 note=42 velocity=0 time=0@note_on channel=3 note=62 velocity=127 time=0.0946427625@note_on channel=9 note=36 velocity=0 time=0.05267851875@note_on channel=3 note=62 velocity=0 time=0.0410713875@note_on channel=3 note=63 velocity=115 time=0.04017853125@note_on channel=0 note=74 velocity=62 time=0.0017857125@note_on channel=0 note=74 velocity=58 time=0.0089285625@note_on channel=9 note=42 velocity=63 time=0.039285675@note_on channel=9 note=36 velocity=73 time=0.00267856875@note_on channel=2 note=38 velocity=0 time=0.03660710625@note_on channel=0 note=57 velocity=0 time=0.01339284375@note_on channel=3 note=63 velocity=0 time=0.00446428125@note_on channel=3 note=64 velocity=127 time=0.03571425@note_on channel=0 note=57 velocity=0 time=0.0089285625@note_on channel=0 note=74 velocity=0 time=0.0017857125@note_on channel=0 note=67 velocity=73 time=0.0089285625@note_on channel=0 note=74 velocity=0 time=0.00714285@note_on channel=2 note=38 velocity=92 time=0.0142857@note_on channel=0 note=67 velocity=73 time=0.003571425@note_on channel=0 note=59 velocity=80 time=0.0017857125@note_on channel=9 note=42 velocity=55 time=0.003571425@note_on channel=0 note=59 velocity=82 time=0.00089285625@note_on channel=9 note=38 velocity=94 time=0@note_on channel=0 note=66 velocity=0 time=0.00446428125@note_on channel=9 note=42 velocity=0 time=0.00624999375@note_on channel=9 note=42 velocity=0 time=0@note_on channel=9 note=36 velocity=0 time=0.015178556250000001@note_on channel=0 note=66 velocity=0 time=0.05267851875@note_on channel=0 note=50 velocity=0 time=0.03303568125@note_on channel=0 note=59 velocity=0 time=0.0160714125@note_on channel=0 note=59 velocity=0 time=0.022321406250000002@note_on channel=0 note=67 velocity=0 time=0.00267856875@note_on channel=0 note=67 velocity=0 time=0.00803570625@note_on channel=3 note=64 velocity=0 time=0.01160713125@note_on channel=3 note=62 velocity=127 time=0.030357112500000002@note_on channel=9 note=38 velocity=0 time=0.03124996875@note_on channel=9 note=42 velocity=63 time=0.04999995@note_on channel=0 note=50 velocity=27 time=0.00624999375@note_on channel=0 note=50 velocity=36 time=0@note_on channel=3 note=62 velocity=0 time=0.00624999375@note_on channel=2 note=38 velocity=0 time=0.0053571375@note_on channel=0 note=60 velocity=83 time=0.1160713125@note_on channel=0 note=69 velocity=83 time=0.0017857125@note_on channel=2 note=38 velocity=93 time=0.00089285625@note_on channel=0 note=60 velocity=83 time=0.003571425@note_on channel=0 note=68 velocity=83 time=0@note_on channel=0 note=69 velocity=83 time=0@note_on channel=9 note=36 velocity=89 time=0.003571425@note_on channel=9 note=42 velocity=65 time=0@note_on channel=0 note=68 velocity=0 time=0.00089285625@note_on channel=9 note=42 velocity=0 time=0.010714275@note_on channel=9 note=42 velocity=0 time=0@note_on channel=3 note=62 velocity=127 time=0.09017848125@note_on channel=0 note=60 velocity=0 time=0.010714275@note_on channel=0 note=69 velocity=0 time=0.017857125@note_on channel=0 note=60 velocity=0 time=0.00714285@note_on channel=0 note=69 velocity=0 time=0@note_on channel=0 note=50 velocity=0 time=0.017857125@note_on channel=0 note=50 velocity=0 time=0.00446428125@note_on channel=3 note=62 velocity=0 time=0.03571425@note_on channel=3 note=63 velocity=115 time=0.04017853125@note_on channel=0 note=50 velocity=41 time=0.0285714@note_on channel=9 note=36 velocity=0 time=0.0124999875@note_on channel=9 note=42 velocity=57 time=0.0089285625@note_on channel=0 note=50 velocity=28 time=0.0053571375@note_on channel=2 note=38 velocity=0 time=0.02410711875@note_on channel=3 note=63 velocity=0 time=0.02767854375@note_on channel=3 note=64 velocity=127 time=0.03571425@note_on channel=0 note=59 velocity=83 time=0.0196428375@note_on channel=0 note=67 velocity=83 time=0@note_on channel=0 note=59 velocity=83 time=0.0267856875@note_on channel=0 note=67 velocity=83 time=0@note_on channel=9 note=38 velocity=101 time=0.00089285625@note_on channel=9 note=42 velocity=51 time=0.00267856875@note_on channel=2 note=38 velocity=74 time=0@note_on channel=9 note=42 velocity=0 time=0.010714275@note_on channel=9 note=42 velocity=0 time=0@note_on channel=0 note=67 velocity=0 time=0.08839276875@note_on channel=0 note=50 velocity=0 time=0.00446428125@note_on channel=0 note=59 velocity=0 time=0.0160714125@note_on channel=0 note=59 velocity=0 time=0.00446428125@note_on channel=0 note=67 velocity=0 time=0@note_on channel=3 note=64 velocity=0 time=0.04910709375@note_on channel=3 note=65 velocity=127 time=0.024999975@note_on channel=9 note=38 velocity=0 time=0.032142825@note_on channel=0 note=55 velocity=73 time=0.00714285@note_on channel=0 note=65 velocity=73 time=0@note_on channel=0 note=55 velocity=73 time=0.0267856875@note_on channel=0 note=65 velocity=68 time=0@note_on channel=9 note=42 velocity=66 time=0.02142855@note_on channel=0 note=50 velocity=34 time=0.0053571375@note_on channel=2 note=38 velocity=0 time=0.0285714@note_on channel=0 note=55 velocity=0 time=0.0517856625@note_on channel=3 note=65 velocity=0 time=0.00982141875@note_on channel=0 note=57 velocity=73 time=0.01696426875@note_on channel=0 note=65 velocity=0 time=0.0160714125@note_on channel=0 note=55 velocity=0 time=0.0017857125@note_on channel=0 note=65 velocity=0 time=0.00714285@note_on channel=0 note=50 velocity=0 time=0.0017857125@note_on channel=0 note=50 velocity=0 time=0@note_on channel=0 note=57 velocity=0 time=0@note_on channel=9 note=42 velocity=0 time=0@<meta message end_of_track time=0>@