<meta message time_signature numerator=4 denominator=4 clocks_per_click=24 notated_32nd_notes_per_beat=8 time=0>@<meta message key_signature key='D' time=0>@<meta message set_tempo tempo=909090 time=0>@<meta message midi_port port=0 time=0>@program_change channel=0 program=41 time=0@control_change channel=0 control=7 value=100 time=0@control_change channel=0 control=10 value=58 time=0@control_change channel=0 control=1 value=10 time=0@control_change channel=0 control=91 value=65 time=0@control_change channel=0 control=93 value=110 time=0@control_change channel=0 control=7 value=65 time=0@<meta message midi_port port=0 time=0>@program_change channel=1 program=41 time=0@control_change channel=1 control=7 value=100 time=0@control_change channel=1 control=10 value=64 time=0@control_change channel=1 control=7 value=65 time=0@control_change channel=1 control=1 value=10 time=0@control_change channel=1 control=91 value=65 time=0@control_change channel=1 control=93 value=110 time=0@<meta message midi_port port=0 time=0>@program_change channel=2 program=41 time=0@control_change channel=2 control=7 value=100 time=0@control_change channel=2 control=10 value=70 time=0@control_change channel=2 control=7 value=65 time=0@control_change channel=2 control=1 value=10 time=0@control_change channel=2 control=91 value=65 time=0@control_change channel=2 control=93 value=110 time=0@<meta message midi_port port=0 time=0>@program_change channel=3 program=42 time=0@control_change channel=3 control=7 value=100 time=0@control_change channel=3 control=10 value=64 time=0@control_change channel=3 control=7 value=65 time=0@control_change channel=3 control=1 value=10 time=0@control_change channel=3 control=91 value=65 time=0@control_change channel=3 control=93 value=110 time=0@<meta message midi_port port=0 time=0>@program_change channel=4 program=42 time=0@control_change channel=4 control=7 value=100 time=0@control_change channel=4 control=10 value=64 time=0@control_change channel=4 control=1 value=10 time=0@control_change channel=4 control=91 value=65 time=0@control_change channel=4 control=93 value=110 time=0@note_on channel=4 note=50 velocity=100 time=0@control_change channel=4 control=7 value=65 time=0@<meta message midi_port port=0 time=0>@program_change channel=5 program=48 time=0@control_change channel=5 control=7 value=100 time=0@control_change channel=5 control=10 value=64 time=0@control_change channel=5 control=1 value=10 time=0@control_change channel=5 control=91 value=65 time=0@control_change channel=5 control=93 value=110 time=0@control_change channel=5 control=7 value=65 time=0@<meta message midi_port port=0 time=0>@program_change channel=6 program=48 time=0@control_change channel=6 control=7 value=100 time=0@control_change channel=6 control=10 value=64 time=0@control_change channel=6 control=7 value=65 time=0@control_change channel=6 control=1 value=10 time=0@control_change channel=6 control=91 value=65 time=0@control_change channel=6 control=93 value=110 time=0@<meta message midi_port port=0 time=0>@program_change channel=7 program=48 time=0@control_change channel=7 control=7 value=100 time=0@control_change channel=7 control=10 value=64 time=0@control_change channel=7 control=7 value=65 time=0@control_change channel=7 control=1 value=10 time=0@control_change channel=7 control=91 value=65 time=0@control_change channel=7 control=93 value=110 time=0@<meta message midi_port port=0 time=0>@program_change channel=8 program=6 time=0@control_change channel=8 control=7 value=100 time=0@control_change channel=8 control=10 value=64 time=0@control_change channel=8 control=7 value=65 time=0@control_change channel=8 control=1 value=10 time=0@control_change channel=8 control=91 value=65 time=0@control_change channel=8 control=93 value=110 time=0@<meta message midi_port port=0 time=0>@program_change channel=10 program=6 time=0@control_change channel=10 control=7 value=100 time=0@control_change channel=10 control=10 value=64 time=0@control_change channel=10 control=1 value=10 time=0@control_change channel=10 control=91 value=65 time=0@control_change channel=10 control=93 value=110 time=0@note_on channel=10 note=50 velocity=100 time=0@control_change channel=10 control=7 value=65 time=0@note_on channel=3 note=57 velocity=100 time=0.454545@note_on channel=8 note=57 velocity=100 time=0@note_on channel=3 note=57 velocity=0 time=0.454545@note_on channel=3 note=62 velocity=100 time=0@note_on channel=8 note=57 velocity=0 time=0@note_on channel=8 note=62 velocity=100 time=0@note_on channel=3 note=62 velocity=0 time=0.454545@note_on channel=3 note=66 velocity=100 time=0@note_on channel=8 note=62 velocity=0 time=0@note_on channel=8 note=66 velocity=100 time=0@note_on channel=3 note=66 velocity=0 time=0.454545@note_on channel=4 note=50 velocity=0 time=0@note_on channel=4 note=45 velocity=100 time=0@note_on channel=8 note=66 velocity=0 time=0@note_on channel=10 note=50 velocity=0 time=0@note_on channel=10 note=45 velocity=100 time=0@note_on channel=3 note=52 velocity=100 time=0.454545@note_on channel=8 note=52 velocity=100 time=0@note_on channel=3 note=52 velocity=0 time=0.454545@note_on channel=3 note=57 velocity=100 time=0@note_on channel=8 note=52 velocity=0 time=0@note_on channel=8 note=57 velocity=100 time=0@note_on channel=3 note=57 velocity=0 time=0.454545@note_on channel=3 note=61 velocity=100 time=0@note_on channel=8 note=57 velocity=0 time=0@note_on channel=8 note=61 velocity=100 time=0@note_on channel=3 note=61 velocity=0 time=0.454545@note_on channel=4 note=45 velocity=0 time=0@note_on channel=4 note=47 velocity=100 time=0@note_on channel=8 note=61 velocity=0 time=0@note_on channel=10 note=45 velocity=0 time=0@note_on channel=10 note=47 velocity=100 time=0@note_on channel=3 note=50 velocity=100 time=0.454545@note_on channel=8 note=50 velocity=100 time=0@note_on channel=3 note=50 velocity=0 time=0.454545@note_on channel=3 note=54 velocity=100 time=0@note_on channel=8 note=50 velocity=0 time=0@note_on channel=8 note=54 velocity=100 time=0@note_on channel=3 note=54 velocity=0 time=0.454545@note_on channel=3 note=59 velocity=100 time=0@note_on channel=8 note=54 velocity=0 time=0@note_on channel=8 note=59 velocity=100 time=0@note_on channel=3 note=59 velocity=0 time=0.454545@note_on channel=4 note=47 velocity=0 time=0@note_on channel=4 note=42 velocity=100 time=0@note_on channel=8 note=59 velocity=0 time=0@note_on channel=10 note=47 velocity=0 time=0@note_on channel=10 note=42 velocity=100 time=0@note_on channel=3 note=49 velocity=100 time=0.454545@note_on channel=8 note=49 velocity=100 time=0@note_on channel=3 note=49 velocity=0 time=0.454545@note_on channel=3 note=54 velocity=100 time=0@note_on channel=8 note=49 velocity=0 time=0@note_on channel=8 note=54 velocity=100 time=0@note_on channel=3 note=54 velocity=0 time=0.454545@note_on channel=3 note=57 velocity=100 time=0@note_on channel=8 note=54 velocity=0 time=0@note_on channel=8 note=57 velocity=100 time=0@note_on channel=3 note=57 velocity=0 time=0.454545@note_on channel=4 note=42 velocity=0 time=0@note_on channel=4 note=43 velocity=100 time=0@note_on channel=8 note=57 velocity=0 time=0@note_on channel=10 note=42 velocity=0 time=0@note_on channel=10 note=43 velocity=100 time=0@note_on channel=3 note=47 velocity=100 time=0.454545@note_on channel=8 note=47 velocity=100 time=0@note_on channel=3 note=47 velocity=0 time=0.454545@note_on channel=3 note=50 velocity=100 time=0@note_on channel=8 note=47 velocity=0 time=0@note_on channel=8 note=50 velocity=100 time=0@note_on channel=3 note=50 velocity=0 time=0.454545@note_on channel=3 note=55 velocity=100 time=0@note_on channel=8 note=50 velocity=0 time=0@note_on channel=8 note=55 velocity=100 time=0@note_on channel=3 note=55 velocity=0 time=0.454545@note_on channel=4 note=43 velocity=0 time=0@note_on channel=4 note=38 velocity=100 time=0@note_on channel=8 note=55 velocity=0 time=0@note_on channel=10 note=43 velocity=0 time=0@note_on channel=10 note=38 velocity=100 time=0@note_on channel=3 note=54 velocity=100 time=0.454545@note_on channel=8 note=54 velocity=100 time=0@note_on channel=3 note=54 velocity=0 time=0.454545@note_on channel=3 note=57 velocity=100 time=0@note_on channel=8 note=54 velocity=0 time=0@note_on channel=8 note=57 velocity=100 time=0@note_on channel=3 note=57 velocity=0 time=0.454545@note_on channel=3 note=62 velocity=100 time=0@note_on channel=8 note=57 velocity=0 time=0@note_on channel=8 note=62 velocity=100 time=0@note_on channel=3 note=62 velocity=0 time=0.454545@note_on channel=4 note=38 velocity=0 time=0@note_on channel=4 note=43 velocity=100 time=0@note_on channel=8 note=62 velocity=0 time=0@note_on channel=10 note=38 velocity=0 time=0@note_on channel=10 note=43 velocity=100 time=0@note_on channel=3 note=52 velocity=100 time=0.454545@note_on channel=8 note=52 velocity=100 time=0@note_on channel=3 note=52 velocity=0 time=0.454545@note_on channel=3 note=59 velocity=100 time=0@note_on channel=8 note=52 velocity=0 time=0@note_on channel=8 note=59 velocity=100 time=0@note_on channel=3 note=59 velocity=0 time=0.454545@note_on channel=3 note=62 velocity=100 time=0@note_on channel=8 note=59 velocity=0 time=0@note_on channel=8 note=62 velocity=100 time=0@note_on channel=3 note=62 velocity=0 time=0.454545@note_on channel=4 note=43 velocity=0 time=0@note_on channel=4 note=45 velocity=100 time=0@note_on channel=8 note=62 velocity=0 time=0@note_on channel=10 note=43 velocity=0 time=0@note_on channel=10 note=45 velocity=100 time=0@note_on channel=3 note=52 velocity=100 time=0.454545@note_on channel=8 note=52 velocity=100 time=0@note_on channel=3 note=52 velocity=0 time=0.454545@note_on channel=3 note=57 velocity=100 time=0@note_on channel=8 note=52 velocity=0 time=0@note_on channel=8 note=57 velocity=100 time=0@note_on channel=3 note=57 velocity=0 time=0.454545@note_on channel=3 note=61 velocity=100 time=0@note_on channel=8 note=57 velocity=0 time=0@note_on channel=8 note=61 velocity=100 time=0@note_on channel=0 note=78 velocity=100 time=0.454545@control_change channel=0 control=7 value=60 time=0@control_change channel=1 control=7 value=60 time=0@control_change channel=2 control=7 value=60 time=0@note_on channel=3 note=61 velocity=0 time=0@control_change channel=3 control=7 value=60 time=0@note_on channel=4 note=45 velocity=0 time=0@note_on channel=4 note=50 velocity=100 time=0@control_change channel=4 control=7 value=60 time=0@note_on channel=5 note=78 velocity=100 time=0@control_change channel=5 control=7 value=60 time=0@control_change channel=6 control=7 value=60 time=0@control_change channel=7 control=7 value=60 time=0@note_on channel=8 note=61 velocity=0 time=0@control_change channel=8 control=7 value=60 time=0@note_on channel=10 note=45 velocity=0 time=0@note_on channel=10 note=50 velocity=100 time=0@control_change channel=10 control=7 value=60 time=0@note_on channel=3 note=57 velocity=100 time=0.454545@note_on channel=8 note=57 velocity=100 time=0@note_on channel=3 note=57 velocity=0 time=0.454545@note_on channel=3 note=62 velocity=100 time=0@note_on channel=8 note=57 velocity=0 time=0@note_on channel=8 note=62 velocity=100 time=0@note_on channel=3 note=62 velocity=0 time=0.454545@note_on channel=3 note=66 velocity=100 time=0@note_on channel=8 note=62 velocity=0 time=0@note_on channel=8 note=66 velocity=100 time=0@note_on channel=0 note=78 velocity=0 time=0.454545@note_on channel=0 note=76 velocity=100 time=0@note_on channel=3 note=66 velocity=0 time=0@note_on channel=4 note=50 velocity=0 time=0@note_on channel=4 note=45 velocity=100 time=0@note_on channel=5 note=78 velocity=0 time=0@note_on channel=5 note=76 velocity=100 time=0@note_on channel=8 note=66 velocity=0 time=0@note_on channel=10 note=50 velocity=0 time=0@note_on channel=10 note=45 velocity=100 time=0@note_on channel=3 note=52 velocity=100 time=0.454545@note_on channel=8 note=52 velocity=100 time=0@note_on channel=3 note=52 velocity=0 time=0.454545@note_on channel=3 note=57 velocity=100 time=0@note_on channel=8 note=52 velocity=0 time=0@note_on channel=8 note=57 velocity=100 time=0@note_on channel=3 note=57 velocity=0 time=0.454545@note_on channel=3 note=61 velocity=100 time=0@note_on channel=8 note=57 velocity=0 time=0@note_on channel=8 note=61 velocity=100 time=0@note_on channel=0 note=76 velocity=0 time=0.454545@note_on channel=0 note=74 velocity=100 time=0@note_on channel=3 note=61 velocity=0 time=0@note_on channel=4 note=45 velocity=0 time=0@note_on channel=4 note=47 velocity=100 time=0@note_on channel=5 note=76 velocity=0 time=0@note_on channel=5 note=74 velocity=100 time=0@note_on channel=8 note=61 velocity=0 time=0@note_on channel=10 note=45 velocity=0 time=0@note_on channel=10 note=47 velocity=100 time=0@note_on channel=3 note=50 velocity=100 time=0.454545@note_on channel=8 note=50 velocity=100 time=0@note_on channel=3 note=50 velocity=0 time=0.454545@note_on channel=3 note=54 velocity=100 time=0@note_on channel=8 note=50 velocity=0 time=0@note_on channel=8 note=54 velocity=100 time=0@note_on channel=3 note=54 velocity=0 time=0.454545@note_on channel=3 note=59 velocity=100 time=0@note_on channel=8 note=54 velocity=0 time=0@note_on channel=8 note=59 velocity=100 time=0@note_on channel=0 note=74 velocity=0 time=0.454545@note_on channel=0 note=73 velocity=100 time=0@note_on channel=3 note=59 velocity=0 time=0@note_on channel=4 note=47 velocity=0 time=0@note_on channel=4 note=42 velocity=100 time=0@note_on channel=5 note=74 velocity=0 time=0@note_on channel=5 note=73 velocity=100 time=0@note_on channel=8 note=59 velocity=0 time=0@note_on channel=10 note=47 velocity=0 time=0@note_on channel=10 note=42 velocity=100 time=0@note_on channel=3 note=49 velocity=100 time=0.454545@note_on channel=8 note=49 velocity=100 time=0@note_on channel=3 note=49 velocity=0 time=0.454545@note_on channel=3 note=54 velocity=100 time=0@note_on channel=8 note=49 velocity=0 time=0@note_on channel=8 note=54 velocity=100 time=0@note_on channel=3 note=54 velocity=0 time=0.454545@note_on channel=3 note=57 velocity=100 time=0@note_on channel=8 note=54 velocity=0 time=0@note_on channel=8 note=57 velocity=100 time=0@note_on channel=0 note=73 velocity=0 time=0.454545@note_on channel=0 note=71 velocity=100 time=0@note_on channel=3 note=57 velocity=0 time=0@note_on channel=4 note=42 velocity=0 time=0@note_on channel=4 note=43 velocity=100 time=0@note_on channel=5 note=73 velocity=0 time=0@note_on channel=5 note=71 velocity=100 time=0@note_on channel=8 note=57 velocity=0 time=0@note_on channel=10 note=42 velocity=0 time=0@note_on channel=10 note=43 velocity=100 time=0@note_on channel=3 note=47 velocity=100 time=0.454545@note_on channel=8 note=47 velocity=100 time=0@note_on channel=3 note=47 velocity=0 time=0.454545@note_on channel=3 note=50 velocity=100 time=0@note_on channel=8 note=47 velocity=0 time=0@note_on channel=8 note=50 velocity=100 time=0@note_on channel=3 note=50 velocity=0 time=0.454545@note_on channel=3 note=55 velocity=100 time=0@note_on channel=8 note=50 velocity=0 time=0@note_on channel=8 note=55 velocity=100 time=0@note_on channel=0 note=71 velocity=0 time=0.454545@note_on channel=0 note=69 velocity=100 time=0@note_on channel=3 note=55 velocity=0 time=0@note_on channel=4 note=43 velocity=0 time=0@note_on channel=4 note=38 velocity=100 time=0@note_on channel=5 note=71 velocity=0 time=0@note_on channel=5 note=69 velocity=100 time=0@note_on channel=8 note=55 velocity=0 time=0@note_on channel=10 note=43 velocity=0 time=0@note_on channel=10 note=38 velocity=100 time=0@note_on channel=3 note=54 velocity=100 time=0.454545@note_on channel=8 note=54 velocity=100 time=0@note_on channel=3 note=54 velocity=0 time=0.454545@note_on channel=3 note=57 velocity=100 time=0@note_on channel=8 note=54 velocity=0 time=0@note_on channel=8 note=57 velocity=100 time=0@note_on channel=3 note=57 velocity=0 time=0.454545@note_on channel=3 note=62 velocity=100 time=0@note_on channel=8 note=57 velocity=0 time=0@note_on channel=8 note=62 velocity=100 time=0@note_on channel=0 note=69 velocity=0 time=0.454545@note_on channel=0 note=71 velocity=100 time=0@note_on channel=3 note=62 velocity=0 time=0@note_on channel=4 note=38 velocity=0 time=0@note_on channel=4 note=43 velocity=100 time=0@note_on channel=5 note=69 velocity=0 time=0@note_on channel=5 note=71 velocity=100 time=0@note_on channel=8 note=62 velocity=0 time=0@note_on channel=10 note=38 velocity=0 time=0@note_on channel=10 note=43 velocity=100 time=0@note_on channel=3 note=52 velocity=100 time=0.454545@note_on channel=8 note=52 velocity=100 time=0@note_on channel=3 note=52 velocity=0 time=0.454545@note_on channel=3 note=59 velocity=100 time=0@note_on channel=8 note=52 velocity=0 time=0@note_on channel=8 note=59 velocity=100 time=0@note_on channel=3 note=59 velocity=0 time=0.454545@note_on channel=3 note=62 velocity=100 time=0@note_on channel=8 note=59 velocity=0 time=0@note_on channel=8 note=62 velocity=100 time=0@note_on channel=0 note=71 velocity=0 time=0.454545@note_on channel=0 note=73 velocity=100 time=0@note_on channel=3 note=62 velocity=0 time=0@note_on channel=4 note=43 velocity=0 time=0@note_on channel=4 note=45 velocity=100 time=0@note_on channel=5 note=71 velocity=0 time=0@note_on channel=5 note=73 velocity=100 time=0@note_on channel=8 note=62 velocity=0 time=0@note_on channel=10 note=43 velocity=0 time=0@note_on channel=10 note=45 velocity=100 time=0@note_on channel=3 note=52 velocity=100 time=0.454545@note_on channel=8 note=52 velocity=100 time=0@note_on channel=3 note=52 velocity=0 time=0.454545@note_on channel=3 note=57 velocity=100 time=0@note_on channel=8 note=52 velocity=0 time=0@note_on channel=8 note=57 velocity=100 time=0@note_on channel=3 note=57 velocity=0 time=0.454545@note_on channel=3 note=61 velocity=100 time=0@note_on channel=8 note=57 velocity=0 time=0@note_on channel=8 note=61 velocity=100 time=0@note_on channel=0 note=73 velocity=0 time=0.454545@note_on channel=0 note=74 velocity=100 time=0@note_on channel=1 note=78 velocity=100 time=0@note_on channel=3 note=61 velocity=0 time=0@note_on channel=4 note=45 velocity=0 time=0@note_on channel=4 note=50 velocity=100 time=0@note_on channel=5 note=73 velocity=0 time=0@note_on channel=5 note=74 velocity=100 time=0@note_on channel=6 note=78 velocity=100 time=0@note_on channel=8 note=61 velocity=0 time=0@note_on channel=10 note=45 velocity=0 time=0@note_on channel=10 note=50 velocity=100 time=0@note_on channel=3 note=57 velocity=100 time=0.454545@note_on channel=8 note=57 velocity=100 time=0@note_on channel=3 note=57 velocity=0 time=0.454545@note_on channel=3 note=62 velocity=100 time=0@note_on channel=8 note=57 velocity=0 time=0@note_on channel=8 note=62 velocity=100 time=0@note_on channel=3 note=62 velocity=0 time=0.454545@note_on channel=3 note=66 velocity=100 time=0@note_on channel=8 note=62 velocity=0 time=0@note_on channel=8 note=66 velocity=100 time=0@note_on channel=0 note=74 velocity=0 time=0.454545@note_on channel=0 note=73 velocity=100 time=0@note_on channel=1 note=78 velocity=0 time=0@note_on channel=1 note=76 velocity=100 time=0@note_on channel=3 note=66 velocity=0 time=0@note_on channel=4 note=50 velocity=0 time=0@note_on channel=4 note=45 velocity=100 time=0@note_on channel=5 note=74 velocity=0 time=0@note_on channel=5 note=73 velocity=100 time=0@note_on channel=6 note=78 velocity=0 time=0@note_on channel=6 note=76 velocity=100 time=0@note_on channel=8 note=66 velocity=0 time=0@note_on channel=10 note=50 velocity=0 time=0@note_on channel=10 note=45 velocity=100 time=0@note_on channel=3 note=52 velocity=100 time=0.454545@note_on channel=8 note=52 velocity=100 time=0@note_on channel=3 note=52 velocity=0 time=0.454545@note_on channel=3 note=57 velocity=100 time=0@note_on channel=8 note=52 velocity=0 time=0@note_on channel=8 note=57 velocity=100 time=0@note_on channel=3 note=57 velocity=0 time=0.454545@note_on channel=3 note=61 velocity=100 time=0@note_on channel=8 note=57 velocity=0 time=0@note_on channel=8 note=61 velocity=100 time=0@note_on channel=0 note=73 velocity=0 time=0.454545@note_on channel=0 note=71 velocity=100 time=0@note_on channel=1 note=76 velocity=0 time=0@note_on channel=1 note=74 velocity=100 time=0@note_on channel=3 note=61 velocity=0 time=0@note_on channel=4 note=45 velocity=0 time=0@note_on channel=4 note=47 velocity=100 time=0@note_on channel=5 note=73 velocity=0 time=0@note_on channel=5 note=71 velocity=100 time=0@note_on channel=6 note=76 velocity=0 time=0@note_on channel=6 note=74 velocity=100 time=0@note_on channel=8 note=61 velocity=0 time=0@note_on channel=10 note=45 velocity=0 time=0@note_on channel=10 note=47 velocity=100 time=0@note_on channel=3 note=50 velocity=100 time=0.454545@note_on channel=8 note=50 velocity=100 time=0@note_on channel=3 note=50 velocity=0 time=0.454545@note_on channel=3 note=54 velocity=100 time=0@note_on channel=8 note=50 velocity=0 time=0@note_on channel=8 note=54 velocity=100 time=0@note_on channel=3 note=54 velocity=0 time=0.454545@note_on channel=3 note=59 velocity=100 time=0@note_on channel=8 note=54 velocity=0 time=0@note_on channel=8 note=59 velocity=100 time=0@note_on channel=0 note=71 velocity=0 time=0.454545@note_on channel=0 note=69 velocity=100 time=0@note_on channel=1 note=74 velocity=0 time=0@note_on channel=1 note=73 velocity=100 time=0@note_on channel=3 note=59 velocity=0 time=0@note_on channel=4 note=47 velocity=0 time=0@note_on channel=4 note=42 velocity=100 time=0@note_on channel=5 note=71 velocity=0 time=0@note_on channel=5 note=69 velocity=100 time=0@note_on channel=6 note=74 velocity=0 time=0@note_on channel=6 note=73 velocity=100 time=0@note_on channel=8 note=59 velocity=0 time=0@note_on channel=10 note=47 velocity=0 time=0@note_on channel=10 note=42 velocity=100 time=0@note_on channel=3 note=49 velocity=100 time=0.454545@note_on channel=8 note=49 velocity=100 time=0@note_on channel=3 note=49 velocity=0 time=0.454545@note_on channel=3 note=54 velocity=100 time=0@note_on channel=8 note=49 velocity=0 time=0@note_on channel=8 note=54 velocity=100 time=0@note_on channel=3 note=54 velocity=0 time=0.454545@note_on channel=3 note=57 velocity=100 time=0@note_on channel=8 note=54 velocity=0 time=0@note_on channel=8 note=57 velocity=100 time=0@note_on channel=0 note=69 velocity=0 time=0.454545@note_on channel=0 note=67 velocity=100 time=0@note_on channel=1 note=73 velocity=0 time=0@note_on channel=1 note=71 velocity=100 time=0@note_on channel=3 note=57 velocity=0 time=0@note_on channel=4 note=42 velocity=0 time=0@note_on channel=4 note=43 velocity=100 time=0@note_on channel=5 note=69 velocity=0 time=0@note_on channel=5 note=67 velocity=100 time=0@note_on channel=6 note=73 velocity=0 time=0@note_on channel=6 note=71 velocity=100 time=0@note_on channel=8 note=57 velocity=0 time=0@note_on channel=10 note=42 velocity=0 time=0@note_on channel=10 note=43 velocity=100 time=0@note_on channel=3 note=47 velocity=100 time=0.454545@note_on channel=8 note=47 velocity=100 time=0@note_on channel=3 note=47 velocity=0 time=0.454545@note_on channel=3 note=50 velocity=100 time=0@note_on channel=8 note=47 velocity=0 time=0@note_on channel=8 note=50 velocity=100 time=0@note_on channel=3 note=50 velocity=0 time=0.454545@note_on channel=3 note=55 velocity=100 time=0@note_on channel=8 note=50 velocity=0 time=0@note_on channel=8 note=55 velocity=100 time=0@note_on channel=0 note=67 velocity=0 time=0.454545@note_on channel=0 note=66 velocity=100 time=0@note_on channel=1 note=71 velocity=0 time=0@note_on channel=1 note=69 velocity=100 time=0@note_on channel=3 note=55 velocity=0 time=0@note_on channel=4 note=43 velocity=0 time=0@note_on channel=4 note=38 velocity=100 time=0@note_on channel=5 note=67 velocity=0 time=0@note_on channel=5 note=66 velocity=100 time=0@note_on channel=6 note=71 velocity=0 time=0@note_on channel=6 note=69 velocity=100 time=0@note_on channel=8 note=55 velocity=0 time=0@note_on channel=10 note=43 velocity=0 time=0@note_on channel=10 note=38 velocity=100 time=0@note_on channel=3 note=54 velocity=100 time=0.454545@note_on channel=8 note=54 velocity=100 time=0@note_on channel=3 note=54 velocity=0 time=0.454545@note_on channel=3 note=57 velocity=100 time=0@note_on channel=8 note=54 velocity=0 time=0@note_on channel=8 note=57 velocity=100 time=0@note_on channel=3 note=57 velocity=0 time=0.454545@note_on channel=3 note=62 velocity=100 time=0@note_on channel=8 note=57 velocity=0 time=0@note_on channel=8 note=62 velocity=100 time=0@note_on channel=0 note=66 velocity=0 time=0.454545@note_on channel=0 note=67 velocity=100 time=0@note_on channel=1 note=69 velocity=0 time=0@note_on channel=1 note=71 velocity=100 time=0@note_on channel=3 note=62 velocity=0 time=0@note_on channel=4 note=38 velocity=0 time=0@note_on channel=4 note=43 velocity=100 time=0@note_on channel=5 note=66 velocity=0 time=0@note_on channel=5 note=67 velocity=100 time=0@note_on channel=6 note=69 velocity=0 time=0@note_on channel=6 note=71 velocity=100 time=0@note_on channel=8 note=62 velocity=0 time=0@note_on channel=10 note=38 velocity=0 time=0@note_on channel=10 note=43 velocity=100 time=0@note_on channel=3 note=52 velocity=100 time=0.454545@note_on channel=8 note=52 velocity=100 time=0@note_on channel=3 note=52 velocity=0 time=0.454545@note_on channel=3 note=59 velocity=100 time=0@note_on channel=8 note=52 velocity=0 time=0@note_on channel=8 note=59 velocity=100 time=0@note_on channel=3 note=59 velocity=0 time=0.454545@note_on channel=3 note=62 velocity=100 time=0@note_on channel=8 note=59 velocity=0 time=0@note_on channel=8 note=62 velocity=100 time=0@note_on channel=0 note=67 velocity=0 time=0.454545@note_on channel=0 note=64 velocity=100 time=0@note_on channel=1 note=71 velocity=0 time=0@note_on channel=1 note=73 velocity=100 time=0@note_on channel=3 note=62 velocity=0 time=0@note_on channel=4 note=43 velocity=0 time=0@note_on channel=4 note=45 velocity=100 time=0@note_on channel=5 note=67 velocity=0 time=0@note_on channel=5 note=64 velocity=100 time=0@note_on channel=6 note=71 velocity=0 time=0@note_on channel=6 note=73 velocity=100 time=0@note_on channel=8 note=62 velocity=0 time=0@note_on channel=10 note=43 velocity=0 time=0@note_on channel=10 note=45 velocity=100 time=0@note_on channel=3 note=52 velocity=100 time=0.454545@note_on channel=8 note=52 velocity=100 time=0@note_on channel=3 note=52 velocity=0 time=0.454545@note_on channel=3 note=57 velocity=100 time=0@note_on channel=8 note=52 velocity=0 time=0@note_on channel=8 note=57 velocity=100 time=0@note_on channel=3 note=57 velocity=0 time=0.454545@note_on channel=3 note=61 velocity=100 time=0@note_on channel=8 note=57 velocity=0 time=0@note_on channel=8 note=61 velocity=100 time=0@note_on channel=0 note=64 velocity=0 time=0.454545@note_on channel=0 note=62 velocity=100 time=0@note_on channel=1 note=73 velocity=0 time=0@note_on channel=1 note=74 velocity=100 time=0@note_on channel=2 note=78 velocity=100 time=0@note_on channel=3 note=61 velocity=0 time=0@note_on channel=4 note=45 velocity=0 time=0@note_on channel=4 note=50 velocity=100 time=0@note_on channel=5 note=64 velocity=0 time=0@note_on channel=5 note=62 velocity=100 time=0@note_on channel=6 note=73 velocity=0 time=0@note_on channel=6 note=74 velocity=100 time=0@note_on channel=7 note=78 velocity=100 time=0@note_on channel=8 note=61 velocity=0 time=0@note_on channel=10 note=45 velocity=0 time=0@note_on channel=10 note=50 velocity=100 time=0@note_on channel=3 note=57 velocity=100 time=0.454545@note_on channel=8 note=57 velocity=100 time=0@note_on channel=0 note=62 velocity=0 time=0.454545@note_on channel=0 note=66 velocity=100 time=0@note_on channel=3 note=57 velocity=0 time=0@note_on channel=3 note=62 velocity=100 time=0@note_on channel=5 note=62 velocity=0 time=0@note_on channel=5 note=66 velocity=100 time=0@note_on channel=8 note=57 velocity=0 time=0@note_on channel=8 note=62 velocity=100 time=0@note_on channel=3 note=62 velocity=0 time=0.454545@note_on channel=3 note=66 velocity=100 time=0@note_on channel=8 note=62 velocity=0 time=0@note_on channel=8 note=66 velocity=100 time=0@note_on channel=0 note=66 velocity=0 time=0.454545@note_on channel=0 note=69 velocity=100 time=0@note_on channel=1 note=74 velocity=0 time=0@note_on channel=1 note=73 velocity=100 time=0@note_on channel=2 note=78 velocity=0 time=0@note_on channel=2 note=76 velocity=100 time=0@note_on channel=3 note=66 velocity=0 time=0@note_on channel=4 note=50 velocity=0 time=0@note_on channel=4 note=45 velocity=100 time=0@note_on channel=5 note=66 velocity=0 time=0@note_on channel=5 note=69 velocity=100 time=0@note_on channel=6 note=74 velocity=0 time=0@note_on channel=6 note=73 velocity=100 time=0@note_on channel=7 note=78 velocity=0 time=0@note_on channel=7 note=76 velocity=100 time=0@note_on channel=8 note=66 velocity=0 time=0@note_on channel=10 note=50 velocity=0 time=0@note_on channel=10 note=45 velocity=100 time=0@note_on channel=3 note=52 velocity=100 time=0.454545@note_on channel=8 note=52 velocity=100 time=0@note_on channel=0 note=69 velocity=0 time=0.454545@note_on channel=0 note=67 velocity=100 time=0@note_on channel=3 note=52 velocity=0 time=0@note_on channel=3 note=57 velocity=100 time=0@note_on channel=5 note=69 velocity=0 time=0@note_on channel=5 note=67 velocity=100 time=0@note_on channel=8 note=52 velocity=0 time=0@note_on channel=8 note=57 velocity=100 time=0@note_on channel=3 note=57 velocity=0 time=0.454545@note_on channel=3 note=61 velocity=100 time=0@note_on channel=8 note=57 velocity=0 time=0@note_on channel=8 note=61 velocity=100 time=0@note_on channel=0 note=67 velocity=0 time=0.454545@note_on channel=0 note=66 velocity=100 time=0@note_on channel=1 note=73 velocity=0 time=0@note_on channel=1 note=71 velocity=100 time=0@note_on channel=2 note=76 velocity=0 time=0@note_on channel=2 note=74 velocity=100 time=0@note_on channel=3 note=61 velocity=0 time=0@note_on channel=4 note=45 velocity=0 time=0@note_on channel=4 note=47 velocity=100 time=0@note_on channel=5 note=67 velocity=0 time=0@note_on channel=5 note=66 velocity=100 time=0@note_on channel=6 note=73 velocity=0 time=0@note_on channel=6 note=71 velocity=100 time=0@note_on channel=7 note=76 velocity=0 time=0@note_on channel=7 note=74 velocity=100 time=0@note_on channel=8 note=61 velocity=0 time=0@note_on channel=10 note=45 velocity=0 time=0@note_on channel=10 note=47 velocity=100 time=0@note_on channel=3 note=50 velocity=100 time=0.454545@note_on channel=8 note=50 velocity=100 time=0@note_on channel=0 note=66 velocity=0 time=0.454545@note_on channel=0 note=62 velocity=100 time=0@note_on channel=3 note=50 velocity=0 time=0@note_on channel=3 note=54 velocity=100 time=0@note_on channel=5 note=66 velocity=0 time=0@note_on channel=5 note=62 velocity=100 time=0@note_on channel=8 note=50 velocity=0 time=0@note_on channel=8 note=54 velocity=100 time=0@note_on channel=3 note=54 velocity=0 time=0.454545@note_on channel=3 note=59 velocity=100 time=0@note_on channel=8 note=54 velocity=0 time=0@note_on channel=8 note=59 velocity=100 time=0@note_on channel=0 note=62 velocity=0 time=0.454545@note_on channel=0 note=66 velocity=100 time=0@note_on channel=1 note=71 velocity=0 time=0@note_on channel=1 note=69 velocity=100 time=0@note_on channel=2 note=74 velocity=0 time=0@note_on channel=2 note=73 velocity=100 time=0@note_on channel=3 note=59 velocity=0 time=0@note_on channel=4 note=47 velocity=0 time=0@note_on channel=4 note=42 velocity=100 time=0@note_on channel=5 note=62 velocity=0 time=0@note_on channel=5 note=66 velocity=100 time=0@note_on channel=6 note=71 velocity=0 time=0@note_on channel=6 note=69 velocity=100 time=0@note_on channel=7 note=74 velocity=0 time=0@note_on channel=7 note=73 velocity=100 time=0@note_on channel=8 note=59 velocity=0 time=0@note_on channel=10 note=47 velocity=0 time=0@note_on channel=10 note=42 velocity=100 time=0@note_on channel=3 note=49 velocity=100 time=0.454545@note_on channel=8 note=49 velocity=100 time=0@note_on channel=0 note=66 velocity=0 time=0.454545@note_on channel=0 note=64 velocity=100 time=0@note_on channel=3 note=49 velocity=0 time=0@note_on channel=3 note=54 velocity=100 time=0@note_on channel=5 note=66 velocity=0 time=0@note_on channel=5 note=64 velocity=100 time=0@note_on channel=8 note=49 velocity=0 time=0@note_on channel=8 note=54 velocity=100 time=0@note_on channel=3 note=54 velocity=0 time=0.454545@note_on channel=3 note=57 velocity=100 time=0@note_on channel=8 note=54 velocity=0 time=0@note_on channel=8 note=57 velocity=100 time=0@note_on channel=0 note=64 velocity=0 time=0.454545@note_on channel=0 note=62 velocity=100 time=0@note_on channel=1 note=69 velocity=0 time=0@note_on channel=1 note=67 velocity=100 time=0@note_on channel=2 note=73 velocity=0 time=0@note_on channel=2 note=71 velocity=100 time=0@note_on channel=3 note=57 velocity=0 time=0@note_on channel=4 note=42 velocity=0 time=0@note_on channel=4 note=43 velocity=100 time=0@note_on channel=5 note=64 velocity=0 time=0@note_on channel=5 note=62 velocity=100 time=0@note_on channel=6 note=69 velocity=0 time=0@note_on channel=6 note=67 velocity=100 time=0@note_on channel=7 note=73 velocity=0 time=0@note_on channel=7 note=71 velocity=100 time=0@note_on channel=8 note=57 velocity=0 time=0@note_on channel=10 note=42 velocity=0 time=0@note_on channel=10 note=43 velocity=100 time=0@note_on channel=3 note=47 velocity=100 time=0.454545@note_on channel=8 note=47 velocity=100 time=0@note_on channel=0 note=62 velocity=0 time=0.454545@note_on channel=0 note=59 velocity=100 time=0@note_on channel=3 note=47 velocity=0 time=0@note_on channel=3 note=50 velocity=100 time=0@note_on channel=5 note=62 velocity=0 time=0@note_on channel=5 note=59 velocity=100 time=0@note_on channel=8 note=47 velocity=0 time=0@note_on channel=8 note=50 velocity=100 time=0@note_on channel=3 note=50 velocity=0 time=0.454545@note_on channel=3 note=55 velocity=100 time=0@note_on channel=8 note=50 velocity=0 time=0@note_on channel=8 note=55 velocity=100 time=0@note_on channel=0 note=59 velocity=0 time=0.454545@note_on channel=0 note=62 velocity=100 time=0@note_on channel=1 note=67 velocity=0 time=0@note_on channel=1 note=66 velocity=100 time=0@note_on channel=2 note=71 velocity=0 time=0@note_on channel=2 note=69 velocity=100 time=0@note_on channel=3 note=55 velocity=0 time=0@note_on channel=4 note=43 velocity=0 time=0@note_on channel=4 note=38 velocity=100 time=0@note_on channel=5 note=59 velocity=0 time=0@note_on channel=5 note=62 velocity=100 time=0@note_on channel=6 note=67 velocity=0 time=0@note_on channel=6 note=66 velocity=100 time=0@note_on channel=7 note=71 velocity=0 time=0@note_on channel=7 note=69 velocity=100 time=0@note_on channel=8 note=55 velocity=0 time=0@note_on channel=10 note=43 velocity=0 time=0@note_on channel=10 note=38 velocity=100 time=0@note_on channel=3 note=54 velocity=100 time=0.454545@note_on channel=8 note=54 velocity=100 time=0@note_on channel=0 note=62 velocity=0 time=0.454545@note_on channel=0 note=69 velocity=100 time=0@note_on channel=2 note=69 velocity=0 time=0@note_on channel=2 note=69 velocity=100 time=0@note_on channel=3 note=54 velocity=0 time=0@note_on channel=3 note=57 velocity=100 time=0@note_on channel=5 note=62 velocity=0 time=0@note_on channel=5 note=69 velocity=100 time=0@note_on channel=7 note=69 velocity=0 time=0@note_on channel=7 note=69 velocity=100 time=0@note_on channel=8 note=54 velocity=0 time=0@note_on channel=8 note=57 velocity=100 time=0@note_on channel=3 note=57 velocity=0 time=0.454545@note_on channel=3 note=62 velocity=100 time=0@note_on channel=8 note=57 velocity=0 time=0@note_on channel=8 note=62 velocity=100 time=0@note_on channel=0 note=69 velocity=0 time=0.454545@note_on channel=0 note=67 velocity=100 time=0@note_on channel=1 note=66 velocity=0 time=0@note_on channel=1 note=67 velocity=100 time=0@note_on channel=2 note=69 velocity=0 time=0@note_on channel=2 note=71 velocity=100 time=0@note_on channel=3 note=62 velocity=0 time=0@note_on channel=4 note=38 velocity=0 time=0@note_on channel=4 note=43 velocity=100 time=0@note_on channel=5 note=69 velocity=0 time=0@note_on channel=5 note=67 velocity=100 time=0@note_on channel=6 note=66 velocity=0 time=0@note_on channel=6 note=67 velocity=100 time=0@note_on channel=7 note=69 velocity=0 time=0@note_on channel=7 note=71 velocity=100 time=0@note_on channel=8 note=62 velocity=0 time=0@note_on channel=10 note=38 velocity=0 time=0@note_on channel=10 note=43 velocity=100 time=0@note_on channel=3 note=52 velocity=100 time=0.454545@note_on channel=8 note=52 velocity=100 time=0@note_on channel=0 note=67 velocity=0 time=0.454545@note_on channel=0 note=71 velocity=100 time=0@note_on channel=2 note=71 velocity=0 time=0@note_on channel=2 note=71 velocity=100 time=0@note_on channel=3 note=52 velocity=0 time=0@note_on channel=3 note=59 velocity=100 time=0@note_on channel=5 note=67 velocity=0 time=0@note_on channel=5 note=71 velocity=100 time=0@note_on channel=7 note=71 velocity=0 time=0@note_on channel=7 note=71 velocity=100 time=0@note_on channel=8 note=52 velocity=0 time=0@note_on channel=8 note=59 velocity=100 time=0@note_on channel=3 note=59 velocity=0 time=0.454545@note_on channel=3 note=62 velocity=100 time=0@note_on channel=8 note=59 velocity=0 time=0@note_on channel=8 note=62 velocity=100 time=0@note_on channel=0 note=71 velocity=0 time=0.454545@note_on channel=0 note=69 velocity=100 time=0@note_on channel=1 note=67 velocity=0 time=0@note_on channel=1 note=64 velocity=100 time=0@note_on channel=2 note=71 velocity=0 time=0@note_on channel=2 note=73 velocity=100 time=0@note_on channel=3 note=62 velocity=0 time=0@note_on channel=4 note=43 velocity=0 time=0@note_on channel=4 note=45 velocity=100 time=0@note_on channel=5 note=71 velocity=0 time=0@note_on channel=5 note=69 velocity=100 time=0@note_on channel=6 note=67 velocity=0 time=0@note_on channel=6 note=64 velocity=100 time=0@note_on channel=7 note=71 velocity=0 time=0@note_on channel=7 note=73 velocity=100 time=0@note_on channel=8 note=62 velocity=0 time=0@note_on channel=10 note=43 velocity=0 time=0@note_on channel=10 note=45 velocity=100 time=0@note_on channel=3 note=52 velocity=100 time=0.454545@note_on channel=8 note=52 velocity=100 time=0@note_on channel=0 note=69 velocity=0 time=0.454545@note_on channel=0 note=67 velocity=100 time=0@note_on channel=3 note=52 velocity=0 time=0@note_on channel=3 note=57 velocity=100 time=0@note_on channel=5 note=69 velocity=0 time=0@note_on channel=5 note=67 velocity=100 time=0@note_on channel=8 note=52 velocity=0 time=0@note_on channel=8 note=57 velocity=100 time=0@note_on channel=3 note=57 velocity=0 time=0.454545@note_on channel=3 note=61 velocity=100 time=0@note_on channel=8 note=57 velocity=0 time=0@note_on channel=8 note=61 velocity=100 time=0@note_on channel=0 note=67 velocity=0 time=0.454545@note_on channel=0 note=66 velocity=100 time=0@note_on channel=1 note=64 velocity=0 time=0@note_on channel=1 note=62 velocity=100 time=0@note_on channel=2 note=73 velocity=0 time=0@note_on channel=2 note=74 velocity=100 time=0@note_on channel=3 note=61 velocity=0 time=0@note_on channel=4 note=45 velocity=0 time=0@note_on channel=4 note=50 velocity=100 time=0@note_on channel=5 note=67 velocity=0 time=0@note_on channel=5 note=66 velocity=100 time=0@note_on channel=6 note=64 velocity=0 time=0@note_on channel=6 note=62 velocity=100 time=0@note_on channel=7 note=73 velocity=0 time=0@note_on channel=7 note=74 velocity=100 time=0@note_on channel=8 note=61 velocity=0 time=0@note_on channel=10 note=45 velocity=0 time=0@note_on channel=10 note=50 velocity=100 time=0@note_on channel=3 note=57 velocity=100 time=0.454545@note_on channel=8 note=57 velocity=100 time=0@note_on channel=0 note=66 velocity=0 time=0.454545@note_on channel=1 note=62 velocity=0 time=0@note_on channel=1 note=66 velocity=100 time=0@note_on channel=3 note=57 velocity=0 time=0@note_on channel=3 note=62 velocity=100 time=0@note_on channel=5 note=66 velocity=0 time=0@note_on channel=6 note=62 velocity=0 time=0@note_on channel=6 note=66 velocity=100 time=0@note_on channel=8 note=57 velocity=0 time=0@note_on channel=8 note=62 velocity=100 time=0@note_on channel=3 note=62 velocity=0 time=0.454545@note_on channel=3 note=66 velocity=100 time=0@note_on channel=8 note=62 velocity=0 time=0@note_on channel=8 note=66 velocity=100 time=0@note_on channel=0 note=64 velocity=100 time=0.454545@note_on channel=1 note=66 velocity=0 time=0@note_on channel=1 note=69 velocity=100 time=0@note_on channel=2 note=74 velocity=0 time=0@note_on channel=2 note=73 velocity=100 time=0@note_on channel=3 note=66 velocity=0 time=0@note_on channel=4 note=50 velocity=0 time=0@note_on channel=4 note=45 velocity=100 time=0@note_on channel=5 note=64 velocity=100 time=0@note_on channel=6 note=66 velocity=0 time=0@note_on channel=6 note=69 velocity=100 time=0@note_on channel=7 note=74 velocity=0 time=0@note_on channel=7 note=73 velocity=100 time=0@note_on channel=8 note=66 velocity=0 time=0@note_on channel=10 note=50 velocity=0 time=0@note_on channel=10 note=45 velocity=100 time=0@note_on channel=3 note=52 velocity=100 time=0.454545@note_on channel=8 note=52 velocity=100 time=0@note_on channel=0 note=64 velocity=0 time=0.454545@note_on channel=0 note=73 velocity=100 time=0@control_change channel=0 control=7 value=65 time=0@note_on channel=1 note=69 velocity=0 time=0@note_on channel=1 note=67 velocity=100 time=0@control_change channel=1 control=7 value=65 time=0@note_on channel=2 note=73 velocity=0 time=0@note_on channel=2 note=73 velocity=100 time=0@control_change channel=2 control=7 value=65 time=0@note_on channel=3 note=52 velocity=0 time=0@note_on channel=3 note=57 velocity=100 time=0@control_change channel=3 control=7 value=65 time=0@control_change channel=4 control=7 value=65 time=0@note_on channel=5 note=64 velocity=0 time=0@note_on channel=5 note=73 velocity=100 time=0@control_change channel=5 control=7 value=65 time=0@note_on channel=6 note=69 velocity=0 time=0@note_on channel=6 note=67 velocity=100 time=0@control_change channel=6 control=7 value=65 time=0@note_on channel=7 note=73 velocity=0 time=0@note_on channel=7 note=73 velocity=100 time=0@control_change channel=7 control=7 value=65 time=0@note_on channel=8 note=52 velocity=0 time=0@note_on channel=8 note=57 velocity=100 time=0@control_change channel=8 control=7 value=65 time=0@control_change channel=10 control=7 value=65 time=0@note_on channel=3 note=57 velocity=0 time=0.454545@note_on channel=3 note=61 velocity=100 time=0@note_on channel=8 note=57 velocity=0 time=0@note_on channel=8 note=61 velocity=100 time=0@note_on channel=0 note=73 velocity=0 time=0.454545@note_on channel=0 note=74 velocity=100 time=0@note_on channel=1 note=67 velocity=0 time=0@note_on channel=1 note=66 velocity=100 time=0@note_on channel=2 note=73 velocity=0 time=0@note_on channel=2 note=71 velocity=100 time=0@note_on channel=3 note=61 velocity=0 time=0@note_on channel=4 note=45 velocity=0 time=0@note_on channel=4 note=47 velocity=100 time=0@note_on channel=5 note=73 velocity=0 time=0@note_on channel=5 note=74 velocity=100 time=0@note_on channel=6 note=67 velocity=0 time=0@note_on channel=6 note=66 velocity=100 time=0@note_on channel=7 note=73 velocity=0 time=0@note_on channel=7 note=71 velocity=100 time=0@note_on channel=8 note=61 velocity=0 time=0@note_on channel=10 note=45 velocity=0 time=0@note_on channel=10 note=47 velocity=100 time=0@note_on channel=3 note=50 velocity=100 time=0.454545@note_on channel=8 note=50 velocity=100 time=0@note_on channel=0 note=74 velocity=0 time=0.454545@note_on channel=0 note=78 velocity=100 time=0@note_on channel=1 note=66 velocity=0 time=0@note_on channel=1 note=62 velocity=100 time=0@note_on channel=3 note=50 velocity=0 time=0@note_on channel=3 note=54 velocity=100 time=0@note_on channel=5 note=74 velocity=0 time=0@note_on channel=5 note=78 velocity=100 time=0@note_on channel=6 note=66 velocity=0 time=0@note_on channel=6 note=62 velocity=100 time=0@note_on channel=8 note=50 velocity=0 time=0@note_on channel=8 note=54 velocity=100 time=0@note_on channel=3 note=54 velocity=0 time=0.454545@note_on channel=3 note=59 velocity=100 time=0@note_on channel=8 note=54 velocity=0 time=0@note_on channel=8 note=59 velocity=100 time=0@note_on channel=0 note=78 velocity=0 time=0.454545@note_on channel=0 note=81 velocity=100 time=0@note_on channel=1 note=62 velocity=0 time=0@note_on channel=1 note=54 velocity=100 time=0@note_on channel=2 note=71 velocity=0 time=0@note_on channel=2 note=69 velocity=100 time=0@note_on channel=3 note=59 velocity=0 time=0@note_on channel=4 note=47 velocity=0 time=0@note_on channel=4 note=42 velocity=100 time=0@note_on channel=5 note=78 velocity=0 time=0@note_on channel=5 note=81 velocity=100 time=0@note_on channel=6 note=62 velocity=0 time=0@note_on channel=6 note=54 velocity=100 time=0@note_on channel=7 note=71 velocity=0 time=0@note_on channel=7 note=69 velocity=100 time=0@note_on channel=8 note=59 velocity=0 time=0@note_on channel=10 note=47 velocity=0 time=0@note_on channel=10 note=42 velocity=100 time=0@note_on channel=1 note=54 velocity=0 time=0.454545@note_on channel=3 note=49 velocity=100 time=0@note_on channel=6 note=54 velocity=0 time=0@note_on channel=8 note=49 velocity=100 time=0@note_on channel=0 note=81 velocity=0 time=0.454545@note_on channel=0 note=69 velocity=100 time=0@note_on channel=1 note=64 velocity=100 time=0@note_on channel=2 note=69 velocity=0 time=0@note_on channel=2 note=69 velocity=100 time=0@note_on channel=3 note=49 velocity=0 time=0@note_on channel=3 note=54 velocity=100 time=0@note_on channel=5 note=81 velocity=0 time=0@note_on channel=5 note=69 velocity=100 time=0@note_on channel=6 note=64 velocity=100 time=0@note_on channel=7 note=69 velocity=0 time=0@note_on channel=7 note=69 velocity=100 time=0@note_on channel=8 note=49 velocity=0 time=0@note_on channel=8 note=54 velocity=100 time=0@note_on channel=3 note=54 velocity=0 time=0.454545@note_on channel=3 note=57 velocity=100 time=0@note_on channel=8 note=54 velocity=0 time=0@note_on channel=8 note=57 velocity=100 time=0@note_on channel=0 note=69 velocity=0 time=0.454545@note_on channel=0 note=71 velocity=100 time=0@note_on channel=1 note=64 velocity=0 time=0@note_on channel=1 note=62 velocity=100 time=0@note_on channel=2 note=69 velocity=0 time=0@note_on channel=2 note=67 velocity=100 time=0@note_on channel=3 note=57 velocity=0 time=0@note_on channel=4 note=42 velocity=0 time=0@note_on channel=4 note=43 velocity=100 time=0@note_on channel=5 note=69 velocity=0 time=0@note_on channel=5 note=71 velocity=100 time=0@note_on channel=6 note=64 velocity=0 time=0@note_on channel=6 note=62 velocity=100 time=0@note_on channel=7 note=69 velocity=0 time=0@note_on channel=7 note=67 velocity=100 time=0@note_on channel=8 note=57 velocity=0 time=0@note_on channel=10 note=42 velocity=0 time=0@note_on channel=10 note=43 velocity=100 time=0@note_on channel=3 note=47 velocity=100 time=0.454545@note_on channel=8 note=47 velocity=100 time=0@note_on channel=0 note=71 velocity=0 time=0.454545@note_on channel=0 note=67 velocity=100 time=0@note_on channel=1 note=62 velocity=0 time=0@note_on channel=1 note=59 velocity=100 time=0@note_on channel=2 note=67 velocity=0 time=0@note_on channel=2 note=67 velocity=100 time=0@note_on channel=3 note=47 velocity=0 time=0@note_on channel=3 note=50 velocity=100 time=0@note_on channel=5 note=71 velocity=0 time=0@note_on channel=5 note=67 velocity=100 time=0@note_on channel=6 note=62 velocity=0 time=0@note_on channel=6 note=59 velocity=100 time=0@note_on channel=7 note=67 velocity=0 time=0@note_on channel=7 note=67 velocity=100 time=0@note_on channel=8 note=47 velocity=0 time=0@note_on channel=8 note=50 velocity=100 time=0@note_on channel=3 note=50 velocity=0 time=0.454545@note_on channel=3 note=55 velocity=100 time=0@note_on channel=8 note=50 velocity=0 time=0@note_on channel=8 note=55 velocity=100 time=0@note_on channel=0 note=67 velocity=0 time=0.454545@note_on channel=0 note=69 velocity=100 time=0@note_on channel=1 note=59 velocity=0 time=0@note_on channel=1 note=62 velocity=100 time=0@note_on channel=2 note=67 velocity=0 time=0@note_on channel=2 note=66 velocity=100 time=0@note_on channel=3 note=55 velocity=0 time=0@note_on channel=4 note=43 velocity=0 time=0@note_on channel=4 note=38 velocity=100 time=0@note_on channel=5 note=67 velocity=0 time=0@note_on channel=5 note=69 velocity=100 time=0@note_on channel=6 note=59 velocity=0 time=0@note_on channel=6 note=62 velocity=100 time=0@note_on channel=7 note=67 velocity=0 time=0@note_on channel=7 note=66 velocity=100 time=0@note_on channel=8 note=55 velocity=0 time=0@note_on channel=10 note=43 velocity=0 time=0@note_on channel=10 note=38 velocity=100 time=0@note_on channel=3 note=54 velocity=100 time=0.454545@note_on channel=8 note=54 velocity=100 time=0@note_on channel=0 note=69 velocity=0 time=0.454545@note_on channel=0 note=66 velocity=100 time=0@note_on channel=1 note=62 velocity=0 time=0@note_on channel=1 note=69 velocity=100 time=0@note_on channel=2 note=66 velocity=0 time=0@note_on channel=2 note=66 velocity=100 time=0@note_on channel=3 note=54 velocity=0 time=0@note_on channel=3 note=57 velocity=100 time=0@note_on channel=5 note=69 velocity=0 time=0@note_on channel=5 note=66 velocity=100 time=0@note_on channel=6 note=62 velocity=0 time=0@note_on channel=6 note=69 velocity=100 time=0@note_on channel=7 note=66 velocity=0 time=0@note_on channel=7 note=66 velocity=100 time=0@note_on channel=8 note=54 velocity=0 time=0@note_on channel=8 note=57 velocity=100 time=0@note_on channel=3 note=57 velocity=0 time=0.454545@note_on channel=3 note=62 velocity=100 time=0@note_on channel=8 note=57 velocity=0 time=0@note_on channel=8 note=62 velocity=100 time=0@note_on channel=0 note=66 velocity=0 time=0.454545@note_on channel=0 note=62 velocity=100 time=0@note_on channel=1 note=69 velocity=0 time=0@note_on channel=1 note=67 velocity=100 time=0@note_on channel=2 note=66 velocity=0 time=0@note_on channel=2 note=67 velocity=100 time=0@note_on channel=3 note=62 velocity=0 time=0@note_on channel=4 note=38 velocity=0 time=0@note_on channel=4 note=43 velocity=100 time=0@note_on channel=5 note=66 velocity=0 time=0@note_on channel=5 note=62 velocity=100 time=0@note_on channel=6 note=69 velocity=0 time=0@note_on channel=6 note=67 velocity=100 time=0@note_on channel=7 note=66 velocity=0 time=0@note_on channel=7 note=67 velocity=100 time=0@note_on channel=8 note=62 velocity=0 time=0@note_on channel=10 note=38 velocity=0 time=0@note_on channel=10 note=43 velocity=100 time=0@note_on channel=3 note=52 velocity=100 time=0.454545@note_on channel=8 note=52 velocity=100 time=0@note_on channel=0 note=62 velocity=0 time=0.454545@note_on channel=0 note=74 velocity=100 time=0@note_on channel=1 note=67 velocity=0 time=0@note_on channel=1 note=71 velocity=100 time=0@note_on channel=3 note=52 velocity=0 time=0@note_on channel=3 note=59 velocity=100 time=0@note_on channel=5 note=62 velocity=0 time=0@note_on channel=5 note=74 velocity=100 time=0@note_on channel=6 note=67 velocity=0 time=0@note_on channel=6 note=71 velocity=100 time=0@note_on channel=8 note=52 velocity=0 time=0@note_on channel=8 note=59 velocity=100 time=0@note_on channel=0 note=74 velocity=0 time=0.454545@note_on channel=0 note=74 velocity=100 time=0@note_on channel=3 note=59 velocity=0 time=0@note_on channel=3 note=62 velocity=100 time=0@note_on channel=5 note=74 velocity=0 time=0@note_on channel=5 note=74 velocity=100 time=0@note_on channel=8 note=59 velocity=0 time=0@note_on channel=8 note=62 velocity=100 time=0@note_on channel=0 note=74 velocity=0 time=0.2272725@note_on channel=0 note=76 velocity=100 time=0@note_on channel=5 note=74 velocity=0 time=0@note_on channel=5 note=76 velocity=100 time=0@note_on channel=0 note=76 velocity=0 time=0.2272725@note_on channel=0 note=74 velocity=100 time=0@note_on channel=1 note=71 velocity=0 time=0@note_on channel=1 note=69 velocity=100 time=0@note_on channel=2 note=67 velocity=0 time=0@note_on channel=2 note=64 velocity=100 time=0@note_on channel=3 note=62 velocity=0 time=0@note_on channel=4 note=43 velocity=0 time=0@note_on channel=4 note=45 velocity=100 time=0@note_on channel=5 note=76 velocity=0 time=0@note_on channel=5 note=74 velocity=100 time=0@note_on channel=6 note=71 velocity=0 time=0@note_on channel=6 note=69 velocity=100 time=0@note_on channel=7 note=67 velocity=0 time=0@note_on channel=7 note=64 velocity=100 time=0@note_on channel=8 note=62 velocity=0 time=0@note_on channel=10 note=43 velocity=0 time=0@note_on channel=10 note=45 velocity=100 time=0@note_on channel=3 note=52 velocity=100 time=0.454545@note_on channel=8 note=52 velocity=100 time=0@note_on channel=0 note=74 velocity=0 time=0.454545@note_on channel=0 note=73 velocity=100 time=0@note_on channel=1 note=69 velocity=0 time=0@note_on channel=1 note=67 velocity=100 time=0@note_on channel=3 note=52 velocity=0 time=0@note_on channel=3 note=57 velocity=100 time=0@note_on channel=5 note=74 velocity=0 time=0@note_on channel=5 note=73 velocity=100 time=0@note_on channel=6 note=69 velocity=0 time=0@note_on channel=6 note=67 velocity=100 time=0@note_on channel=8 note=52 velocity=0 time=0@note_on channel=8 note=57 velocity=100 time=0@note_on channel=0 note=73 velocity=0 time=0.2272725@note_on channel=0 note=74 velocity=100 time=0@note_on channel=5 note=73 velocity=0 time=0@note_on channel=5 note=74 velocity=100 time=0@note_on channel=0 note=74 velocity=0 time=0.2272725@note_on channel=0 note=73 velocity=100 time=0@note_on channel=3 note=57 velocity=0 time=0@note_on channel=3 note=61 velocity=100 time=0@note_on channel=5 note=74 velocity=0 time=0@note_on channel=5 note=73 velocity=100 time=0@note_on channel=8 note=57 velocity=0 time=0@note_on channel=8 note=61 velocity=100 time=0@note_on channel=0 note=73 velocity=0 time=0.454545@note_on channel=0 note=74 velocity=100 time=0@control_change channel=0 control=7 value=80 time=0@note_on channel=1 note=67 velocity=0 time=0@note_on channel=1 note=66 velocity=100 time=0@control_change channel=1 control=7 value=80 time=0@note_on channel=2 note=64 velocity=0 time=0@note_on channel=2 note=62 velocity=100 time=0@control_change channel=2 control=7 value=80 time=0@note_on channel=3 note=61 velocity=0 time=0@control_change channel=3 control=7 value=80 time=0@note_on channel=4 note=45 velocity=0 time=0@note_on channel=4 note=50 velocity=100 time=0@control_change channel=4 control=7 value=80 time=0@note_on channel=5 note=73 velocity=0 time=0@note_on channel=5 note=74 velocity=100 time=0@control_change channel=5 control=7 value=80 time=0@note_on channel=6 note=67 velocity=0 time=0@note_on channel=6 note=66 velocity=100 time=0@control_change channel=6 control=7 value=80 time=0@note_on channel=7 note=64 velocity=0 time=0@note_on channel=7 note=62 velocity=100 time=0@control_change channel=7 control=7 value=80 time=0@note_on channel=8 note=61 velocity=0 time=0@control_change channel=8 control=7 value=80 time=0@note_on channel=10 note=45 velocity=0 time=0@note_on channel=10 note=50 velocity=100 time=0@control_change channel=10 control=7 value=80 time=0@note_on channel=0 note=74 velocity=0 time=0.454545@note_on channel=0 note=73 velocity=100 time=0@note_on channel=3 note=57 velocity=100 time=0@note_on channel=5 note=74 velocity=0 time=0@note_on channel=5 note=73 velocity=100 time=0@note_on channel=8 note=57 velocity=100 time=0@note_on channel=0 note=73 velocity=0 time=0.454545@note_on channel=0 note=74 velocity=100 time=0@note_on channel=1 note=66 velocity=0 time=0@note_on channel=2 note=62 velocity=0 time=0@note_on channel=2 note=66 velocity=100 time=0@note_on channel=3 note=57 velocity=0 time=0@note_on channel=3 note=62 velocity=100 time=0@note_on channel=5 note=73 velocity=0 time=0@note_on channel=5 note=74 velocity=100 time=0@note_on channel=6 note=66 velocity=0 time=0@note_on channel=7 note=62 velocity=0 time=0@note_on channel=7 note=66 velocity=100 time=0@note_on channel=8 note=57 velocity=0 time=0@note_on channel=8 note=62 velocity=100 time=0@note_on channel=0 note=74 velocity=0 time=0.454545@note_on channel=0 note=62 velocity=100 time=0@note_on channel=2 note=66 velocity=0 time=0@note_on channel=2 note=62 velocity=100 time=0@note_on channel=3 note=62 velocity=0 time=0@note_on channel=3 note=66 velocity=100 time=0@note_on channel=5 note=74 velocity=0 time=0@note_on channel=5 note=62 velocity=100 time=0@note_on channel=7 note=66 velocity=0 time=0@note_on channel=7 note=62 velocity=100 time=0@note_on channel=8 note=62 velocity=0 time=0@note_on channel=8 note=66 velocity=100 time=0@note_on channel=0 note=62 velocity=0 time=0.454545@note_on channel=0 note=61 velocity=100 time=0@note_on channel=1 note=64 velocity=100 time=0@note_on channel=2 note=62 velocity=0 time=0@note_on channel=2 note=69 velocity=100 time=0@note_on channel=3 note=66 velocity=0 time=0@note_on channel=4 note=50 velocity=0 time=0@note_on channel=4 note=45 velocity=100 time=0@note_on channel=5 note=62 velocity=0 time=0@note_on channel=5 note=61 velocity=100 time=0@note_on channel=6 note=64 velocity=100 time=0@note_on channel=7 note=62 velocity=0 time=0@note_on channel=7 note=69 velocity=100 time=0@note_on channel=8 note=66 velocity=0 time=0@note_on channel=10 note=50 velocity=0 time=0@note_on channel=10 note=45 velocity=100 time=0@note_on channel=0 note=61 velocity=0 time=0.454545@note_on channel=0 note=64 velocity=100 time=0@note_on channel=2 note=69 velocity=0 time=0@note_on channel=2 note=69 velocity=100 time=0@note_on channel=3 note=52 velocity=100 time=0@note_on channel=5 note=61 velocity=0 time=0@note_on channel=5 note=64 velocity=100 time=0@note_on channel=7 note=69 velocity=0 time=0@note_on channel=7 note=69 velocity=100 time=0@note_on channel=8 note=52 velocity=100 time=0@note_on channel=0 note=64 velocity=0 time=0.454545@note_on channel=0 note=64 velocity=100 time=0@note_on channel=1 note=64 velocity=0 time=0@note_on channel=1 note=73 velocity=100 time=0@note_on channel=2 note=69 velocity=0 time=0@note_on channel=2 note=67 velocity=100 time=0@note_on channel=3 note=52 velocity=0 time=0@note_on channel=3 note=57 velocity=100 time=0@note_on channel=5 note=64 velocity=0 time=0@note_on channel=5 note=64 velocity=100 time=0@note_on channel=6 note=64 velocity=0 time=0@note_on channel=6 note=73 velocity=100 time=0@note_on channel=7 note=69 velocity=0 time=0@note_on channel=7 note=67 velocity=100 time=0@note_on channel=8 note=52 velocity=0 time=0@note_on channel=8 note=57 velocity=100 time=0@note_on channel=0 note=64 velocity=0 time=0.454545@note_on channel=0 note=66 velocity=100 time=0@note_on channel=3 note=57 velocity=0 time=0@note_on channel=3 note=61 velocity=100 time=0@note_on channel=5 note=64 velocity=0 time=0@note_on channel=5 note=66 velocity=100 time=0@note_on channel=8 note=57 velocity=0 time=0@note_on channel=8 note=61 velocity=100 time=0@note_on channel=0 note=66 velocity=0 time=0.454545@note_on channel=0 note=62 velocity=100 time=0@note_on channel=1 note=73 velocity=0 time=0@note_on channel=1 note=74 velocity=100 time=0@note_on channel=2 note=67 velocity=0 time=0@note_on channel=2 note=66 velocity=100 time=0@note_on channel=3 note=61 velocity=0 time=0@note_on channel=4 note=45 velocity=0 time=0@note_on channel=4 note=47 velocity=100 time=0@note_on channel=5 note=66 velocity=0 time=0@note_on channel=5 note=62 velocity=100 time=0@note_on channel=6 note=73 velocity=0 time=0@note_on channel=6 note=74 velocity=100 time=0@note_on channel=7 note=67 velocity=0 time=0@note_on channel=7 note=66 velocity=100 time=0@note_on channel=8 note=61 velocity=0 time=0@note_on channel=10 note=45 velocity=0 time=0@note_on channel=10 note=47 velocity=100 time=0@note_on channel=1 note=74 velocity=0 time=0.454545@note_on channel=1 note=74 velocity=100 time=0@note_on channel=3 note=50 velocity=100 time=0@note_on channel=6 note=74 velocity=0 time=0@note_on channel=6 note=74 velocity=100 time=0@note_on channel=8 note=50 velocity=100 time=0@note_on channel=0 note=62 velocity=0 time=0.454545@note_on channel=0 note=73 velocity=100 time=0@control_change channel=0 control=7 value=85 time=0@note_on channel=1 note=74 velocity=0 time=0@note_on channel=1 note=78 velocity=100 time=0@control_change channel=1 control=7 value=85 time=0@note_on channel=2 note=66 velocity=0 time=0@note_on channel=2 note=62 velocity=100 time=0@control_change channel=2 control=7 value=85 time=0@note_on channel=3 note=50 velocity=0 time=0@note_on channel=3 note=54 velocity=100 time=0@control_change channel=3 control=7 value=85 time=0@control_change channel=4 control=7 value=85 time=0@note_on channel=5 note=62 velocity=0 time=0@note_on channel=5 note=73 velocity=100 time=0@control_change channel=5 control=7 value=85 time=0@note_on channel=6 note=74 velocity=0 time=0@note_on channel=6 note=78 velocity=100 time=0@control_change channel=6 control=7 value=85 time=0@note_on channel=7 note=66 velocity=0 time=0@note_on channel=7 note=62 velocity=100 time=0@control_change channel=7 control=7 value=85 time=0@note_on channel=8 note=50 velocity=0 time=0@note_on channel=8 note=54 velocity=100 time=0@control_change channel=8 control=7 value=85 time=0@control_change channel=10 control=7 value=85 time=0@note_on channel=0 note=73 velocity=0 time=0.454545@note_on channel=0 note=71 velocity=100 time=0@note_on channel=3 note=54 velocity=0 time=0@note_on channel=3 note=59 velocity=100 time=0@note_on channel=5 note=73 velocity=0 time=0@note_on channel=5 note=71 velocity=100 time=0@note_on channel=8 note=54 velocity=0 time=0@note_on channel=8 note=59 velocity=100 time=0@note_on channel=0 note=71 velocity=0 time=0.454545@control_change channel=0 control=7 value=90 time=0@note_on channel=1 note=78 velocity=0 time=0@control_change channel=1 control=7 value=90 time=0@note_on channel=2 note=62 velocity=0 time=0@note_on channel=2 note=66 velocity=100 time=0@control_change channel=2 control=7 value=90 time=0@note_on channel=3 note=59 velocity=0 time=0@control_change channel=3 control=7 value=90 time=0@note_on channel=4 note=47 velocity=0 time=0@note_on channel=4 note=42 velocity=100 time=0@control_change channel=4 control=7 value=90 time=0@note_on channel=5 note=71 velocity=0 time=0@control_change channel=5 control=7 value=90 time=0@note_on channel=6 note=78 velocity=0 time=0@control_change channel=6 control=7 value=90 time=0@note_on channel=7 note=62 velocity=0 time=0@note_on channel=7 note=66 velocity=100 time=0@control_change channel=7 control=7 value=90 time=0@note_on channel=8 note=59 velocity=0 time=0@control_change channel=8 control=7 value=90 time=0@note_on channel=10 note=47 velocity=0 time=0@note_on channel=10 note=42 velocity=100 time=0@control_change channel=10 control=7 value=90 time=0@note_on channel=0 note=73 velocity=100 time=0.03787875@note_on channel=5 note=73 velocity=100 time=0@note_on channel=1 note=81 velocity=100 time=0.03787875@note_on channel=6 note=81 velocity=100 time=0@note_on channel=0 note=73 velocity=0 time=0.3787875@note_on channel=0 note=78 velocity=100 time=0@note_on channel=3 note=49 velocity=100 time=0@note_on channel=5 note=73 velocity=0 time=0@note_on channel=5 note=78 velocity=100 time=0@note_on channel=8 note=49 velocity=100 time=0@note_on channel=0 note=78 velocity=0 time=0.454545@note_on channel=0 note=81 velocity=100 time=0@control_change channel=0 control=7 value=95 time=0@note_on channel=1 note=81 velocity=0 time=0@note_on channel=1 note=69 velocity=100 time=0@control_change channel=1 control=7 value=95 time=0@note_on channel=2 note=66 velocity=0 time=0@note_on channel=2 note=64 velocity=100 time=0@control_change channel=2 control=7 value=95 time=0@note_on channel=3 note=49 velocity=0 time=0@note_on channel=3 note=54 velocity=100 time=0@control_change channel=3 control=7 value=95 time=0@control_change channel=4 control=7 value=95 time=0@note_on channel=5 note=78 velocity=0 time=0@note_on channel=5 note=81 velocity=100 time=0@control_change channel=5 control=7 value=95 time=0@note_on channel=6 note=81 velocity=0 time=0@note_on channel=6 note=69 velocity=100 time=0@control_change channel=6 control=7 value=95 time=0@note_on channel=7 note=66 velocity=0 time=0@note_on channel=7 note=64 velocity=100 time=0@control_change channel=7 control=7 value=95 time=0@note_on channel=8 note=49 velocity=0 time=0@note_on channel=8 note=54 velocity=100 time=0@control_change channel=8 control=7 value=95 time=0@control_change channel=10 control=7 value=95 time=0@note_on channel=0 note=81 velocity=0 time=0.454545@note_on channel=0 note=83 velocity=100 time=0@note_on channel=3 note=54 velocity=0 time=0@note_on channel=3 note=57 velocity=100 time=0@note_on channel=5 note=81 velocity=0 time=0@note_on channel=5 note=83 velocity=100 time=0@note_on channel=8 note=54 velocity=0 time=0@note_on channel=8 note=57 velocity=100 time=0@note_on channel=0 note=83 velocity=0 time=0.454545@note_on channel=0 note=79 velocity=100 time=0@note_on channel=1 note=69 velocity=0 time=0@note_on channel=1 note=71 velocity=100 time=0@note_on channel=2 note=64 velocity=0 time=0@note_on channel=2 note=62 velocity=100 time=0@note_on channel=3 note=57 velocity=0 time=0@note_on channel=4 note=42 velocity=0 time=0@note_on channel=4 note=43 velocity=100 time=0@note_on channel=5 note=83 velocity=0 time=0@note_on channel=5 note=79 velocity=100 time=0@note_on channel=6 note=69 velocity=0 time=0@note_on channel=6 note=71 velocity=100 time=0@note_on channel=7 note=64 velocity=0 time=0@note_on channel=7 note=62 velocity=100 time=0@note_on channel=8 note=57 velocity=0 time=0@note_on channel=10 note=42 velocity=0 time=0@note_on channel=10 note=43 velocity=100 time=0@note_on channel=0 note=79 velocity=0 time=0.3787875@note_on channel=5 note=79 velocity=0 time=0@note_on channel=0 note=78 velocity=100 time=0.0757575@note_on channel=3 note=47 velocity=100 time=0@note_on channel=5 note=78 velocity=100 time=0@note_on channel=8 note=47 velocity=100 time=0@note_on channel=0 note=78 velocity=0 time=0.3787875@note_on channel=5 note=78 velocity=0 time=0@note_on channel=0 note=76 velocity=100 time=0.0757575@control_change channel=0 control=7 value=90 time=0@note_on channel=1 note=71 velocity=0 time=0@note_on channel=1 note=67 velocity=100 time=0@control_change channel=1 control=7 value=90 time=0@note_on channel=2 note=62 velocity=0 time=0@note_on channel=2 note=62 velocity=100 time=0@control_change channel=2 control=7 value=90 time=0@note_on channel=3 note=47 velocity=0 time=0@note_on channel=3 note=50 velocity=100 time=0@control_change channel=3 control=7 value=90 time=0@control_change channel=4 control=7 value=90 time=0@note_on channel=5 note=76 velocity=100 time=0@control_change channel=5 control=7 value=90 time=0@note_on channel=6 note=71 velocity=0 time=0@note_on channel=6 note=67 velocity=100 time=0@control_change channel=6 control=7 value=90 time=0@note_on channel=7 note=62 velocity=0 time=0@note_on channel=7 note=62 velocity=100 time=0@control_change channel=7 control=7 value=90 time=0@note_on channel=8 note=47 velocity=0 time=0@note_on channel=8 note=50 velocity=100 time=0@control_change channel=8 control=7 value=90 time=0@control_change channel=10 control=7 value=90 time=0@note_on channel=0 note=76 velocity=0 time=0.3787875@note_on channel=5 note=76 velocity=0 time=0@note_on channel=0 note=79 velocity=100 time=0.0757575@note_on channel=3 note=50 velocity=0 time=0@note_on channel=3 note=55 velocity=100 time=0@note_on channel=5 note=79 velocity=100 time=0@note_on channel=8 note=50 velocity=0 time=0@note_on channel=8 note=55 velocity=100 time=0@note_on channel=0 note=79 velocity=0 time=0.3787875@note_on channel=5 note=79 velocity=0 time=0@note_on channel=0 note=78 velocity=100 time=0.0757575@control_change channel=0 control=7 value=85 time=0@note_on channel=1 note=67 velocity=0 time=0@note_on channel=1 note=69 velocity=100 time=0@control_change channel=1 control=7 value=85 time=0@note_on channel=2 note=62 velocity=0 time=0@note_on channel=2 note=62 velocity=100 time=0@control_change channel=2 control=7 value=85 time=0@note_on channel=3 note=55 velocity=0 time=0@control_change channel=3 control=7 value=85 time=0@note_on channel=4 note=43 velocity=0 time=0@note_on channel=4 note=38 velocity=100 time=0@control_change channel=4 control=7 value=85 time=0@note_on channel=5 note=78 velocity=100 time=0@control_change channel=5 control=7 value=85 time=0@note_on channel=6 note=67 velocity=0 time=0@note_on channel=6 note=69 velocity=100 time=0@control_change channel=6 control=7 value=85 time=0@note_on channel=7 note=62 velocity=0 time=0@note_on channel=7 note=62 velocity=100 time=0@control_change channel=7 control=7 value=85 time=0@note_on channel=8 note=55 velocity=0 time=0@control_change channel=8 control=7 value=85 time=0@note_on channel=10 note=43 velocity=0 time=0@note_on channel=10 note=38 velocity=100 time=0@control_change channel=10 control=7 value=85 time=0@note_on channel=0 note=78 velocity=0 time=0.3787875@note_on channel=5 note=78 velocity=0 time=0@note_on channel=0 note=76 velocity=100 time=0.0757575@note_on channel=3 note=54 velocity=100 time=0@note_on channel=5 note=76 velocity=100 time=0@note_on channel=8 note=54 velocity=100 time=0@note_on channel=0 note=76 velocity=0 time=0.3787875@note_on channel=5 note=76 velocity=0 time=0@note_on channel=0 note=74 velocity=100 time=0.0757575@control_change channel=0 control=7 value=80 time=0@note_on channel=1 note=69 velocity=0 time=0@note_on channel=1 note=66 velocity=100 time=0@control_change channel=1 control=7 value=80 time=0@note_on channel=2 note=62 velocity=0 time=0@note_on channel=2 note=69 velocity=100 time=0@control_change channel=2 control=7 value=80 time=0@note_on channel=3 note=54 velocity=0 time=0@note_on channel=3 note=57 velocity=100 time=0@control_change channel=3 control=7 value=80 time=0@control_change channel=4 control=7 value=80 time=0@note_on channel=5 note=74 velocity=100 time=0@control_change channel=5 control=7 value=80 time=0@note_on channel=6 note=69 velocity=0 time=0@note_on channel=6 note=66 velocity=100 time=0@control_change channel=6 control=7 value=80 time=0@note_on channel=7 note=62 velocity=0 time=0@note_on channel=7 note=69 velocity=100 time=0@control_change channel=7 control=7 value=80 time=0@note_on channel=8 note=54 velocity=0 time=0@note_on channel=8 note=57 velocity=100 time=0@control_change channel=8 control=7 value=80 time=0@control_change channel=10 control=7 value=80 time=0@note_on channel=0 note=74 velocity=0 time=0.3787875@note_on channel=5 note=74 velocity=0 time=0@note_on channel=0 note=73 velocity=100 time=0.0757575@note_on channel=3 note=57 velocity=0 time=0@note_on channel=3 note=62 velocity=100 time=0@note_on channel=5 note=73 velocity=100 time=0@note_on channel=8 note=57 velocity=0 time=0@note_on channel=8 note=62 velocity=100 time=0@note_on channel=0 note=73 velocity=0 time=0.3787875@note_on channel=5 note=73 velocity=0 time=0@note_on channel=0 note=71 velocity=100 time=0.0757575@note_on channel=1 note=66 velocity=0 time=0@note_on channel=1 note=62 velocity=100 time=0@note_on channel=2 note=69 velocity=0 time=0@note_on channel=2 note=67 velocity=100 time=0@note_on channel=3 note=62 velocity=0 time=0@note_on channel=4 note=38 velocity=0 time=0@note_on channel=4 note=43 velocity=100 time=0@note_on channel=5 note=71 velocity=100 time=0@note_on channel=6 note=66 velocity=0 time=0@note_on channel=6 note=62 velocity=100 time=0@note_on channel=7 note=69 velocity=0 time=0@note_on channel=7 note=67 velocity=100 time=0@note_on channel=8 note=62 velocity=0 time=0@note_on channel=10 note=38 velocity=0 time=0@note_on channel=10 note=43 velocity=100 time=0@note_on channel=0 note=71 velocity=0 time=0.454545@note_on channel=0 note=69 velocity=100 time=0@note_on channel=3 note=52 velocity=100 time=0@note_on channel=5 note=71 velocity=0 time=0@note_on channel=5 note=69 velocity=100 time=0@note_on channel=8 note=52 velocity=100 time=0@note_on channel=0 note=69 velocity=0 time=0.454545@note_on channel=0 note=67 velocity=100 time=0@note_on channel=1 note=62 velocity=0 time=0@note_on channel=1 note=74 velocity=100 time=0@note_on channel=2 note=67 velocity=0 time=0@note_on channel=2 note=71 velocity=100 time=0@note_on channel=3 note=52 velocity=0 time=0@note_on channel=3 note=59 velocity=100 time=0@note_on channel=5 note=69 velocity=0 time=0@note_on channel=5 note=67 velocity=100 time=0@note_on channel=6 note=62 velocity=0 time=0@note_on channel=6 note=74 velocity=100 time=0@note_on channel=7 note=67 velocity=0 time=0@note_on channel=7 note=71 velocity=100 time=0@note_on channel=8 note=52 velocity=0 time=0@note_on channel=8 note=59 velocity=100 time=0@note_on channel=0 note=67 velocity=0 time=0.454545@note_on channel=0 note=66 velocity=100 time=0@note_on channel=1 note=74 velocity=0 time=0@note_on channel=1 note=74 velocity=100 time=0@note_on channel=3 note=59 velocity=0 time=0@note_on channel=3 note=62 velocity=100 time=0@note_on channel=5 note=67 velocity=0 time=0@note_on channel=5 note=66 velocity=100 time=0@note_on channel=6 note=74 velocity=0 time=0@note_on channel=6 note=74 velocity=100 time=0@note_on channel=8 note=59 velocity=0 time=0@note_on channel=8 note=62 velocity=100 time=0@note_on channel=1 note=74 velocity=0 time=0.2272725@note_on channel=1 note=76 velocity=100 time=0@note_on channel=6 note=74 velocity=0 time=0@note_on channel=6 note=76 velocity=100 time=0@note_on channel=0 note=66 velocity=0 time=0.2272725@note_on channel=0 note=64 velocity=100 time=0@note_on channel=1 note=76 velocity=0 time=0@note_on channel=1 note=74 velocity=100 time=0@note_on channel=2 note=71 velocity=0 time=0@note_on channel=2 note=69 velocity=100 time=0@note_on channel=3 note=62 velocity=0 time=0@note_on channel=4 note=43 velocity=0 time=0@note_on channel=4 note=45 velocity=100 time=0@note_on channel=5 note=66 velocity=0 time=0@note_on channel=5 note=64 velocity=100 time=0@note_on channel=6 note=76 velocity=0 time=0@note_on channel=6 note=74 velocity=100 time=0@note_on channel=7 note=71 velocity=0 time=0@note_on channel=7 note=69 velocity=100 time=0@note_on channel=8 note=62 velocity=0 time=0@note_on channel=10 note=43 velocity=0 time=0@note_on channel=10 note=45 velocity=100 time=0@note_on channel=0 note=64 velocity=0 time=0.454545@note_on channel=0 note=67 velocity=100 time=0@note_on channel=3 note=52 velocity=100 time=0@note_on channel=5 note=64 velocity=0 time=0@note_on channel=5 note=67 velocity=100 time=0@note_on channel=8 note=52 velocity=100 time=0@note_on channel=0 note=67 velocity=0 time=0.454545@note_on channel=0 note=66 velocity=100 time=0@note_on channel=1 note=74 velocity=0 time=0@note_on channel=1 note=73 velocity=100 time=0@note_on channel=2 note=69 velocity=0 time=0@note_on channel=2 note=67 velocity=100 time=0@note_on channel=3 note=52 velocity=0 time=0@note_on channel=3 note=57 velocity=100 time=0@note_on channel=5 note=67 velocity=0 time=0@note_on channel=5 note=66 velocity=100 time=0@note_on channel=6 note=74 velocity=0 time=0@note_on channel=6 note=73 velocity=100 time=0@note_on channel=7 note=69 velocity=0 time=0@note_on channel=7 note=67 velocity=100 time=0@note_on channel=8 note=52 velocity=0 time=0@note_on channel=8 note=57 velocity=100 time=0@note_on channel=1 note=73 velocity=0 time=0.2272725@note_on channel=1 note=74 velocity=100 time=0@note_on channel=6 note=73 velocity=0 time=0@note_on channel=6 note=74 velocity=100 time=0@note_on channel=0 note=66 velocity=0 time=0.2272725@note_on channel=0 note=64 velocity=100 time=0@note_on channel=1 note=74 velocity=0 time=0@note_on channel=1 note=73 velocity=100 time=0@note_on channel=3 note=57 velocity=0 time=0@note_on channel=3 note=61 velocity=100 time=0@note_on channel=5 note=66 velocity=0 time=0@note_on channel=5 note=64 velocity=100 time=0@note_on channel=6 note=74 velocity=0 time=0@note_on channel=6 note=73 velocity=100 time=0@note_on channel=8 note=57 velocity=0 time=0@note_on channel=8 note=61 velocity=100 time=0@note_on channel=0 note=64 velocity=0 time=0.454545@note_on channel=0 note=66 velocity=100 time=0@control_change channel=0 control=7 value=60 time=0@note_on channel=1 note=73 velocity=0 time=0@note_on channel=1 note=74 velocity=100 time=0@control_change channel=1 control=7 value=60 time=0@note_on channel=2 note=67 velocity=0 time=0@note_on channel=2 note=62 velocity=100 time=0@control_change channel=2 control=7 value=60 time=0@note_on channel=3 note=61 velocity=0 time=0@control_change channel=3 control=7 value=60 time=0@note_on channel=4 note=45 velocity=0 time=0@note_on channel=4 note=50 velocity=100 time=0@control_change channel=4 control=7 value=60 time=0@note_on channel=5 note=64 velocity=0 time=0@note_on channel=5 note=66 velocity=100 time=0@control_change channel=5 control=7 value=60 time=0@note_on channel=6 note=73 velocity=0 time=0@note_on channel=6 note=74 velocity=100 time=0@control_change channel=6 control=7 value=60 time=0@note_on channel=7 note=67 velocity=0 time=0@note_on channel=7 note=62 velocity=100 time=0@control_change channel=7 control=7 value=60 time=0@note_on channel=8 note=61 velocity=0 time=0@control_change channel=8 control=7 value=60 time=0@note_on channel=10 note=45 velocity=0 time=0@note_on channel=10 note=50 velocity=100 time=0@control_change channel=10 control=7 value=60 time=0@note_on channel=0 note=66 velocity=0 time=0.454545@note_on channel=0 note=64 velocity=100 time=0@note_on channel=1 note=74 velocity=0 time=0@note_on channel=1 note=73 velocity=100 time=0@note_on channel=3 note=57 velocity=100 time=0@note_on channel=5 note=66 velocity=0 time=0@note_on channel=5 note=64 velocity=100 time=0@note_on channel=6 note=74 velocity=0 time=0@note_on channel=6 note=73 velocity=100 time=0@note_on channel=8 note=57 velocity=100 time=0@note_on channel=0 note=64 velocity=0 time=0.454545@note_on channel=0 note=66 velocity=100 time=0@note_on channel=1 note=73 velocity=0 time=0@note_on channel=1 note=74 velocity=100 time=0@note_on channel=2 note=62 velocity=0 time=0@note_on channel=3 note=57 velocity=0 time=0@note_on channel=3 note=62 velocity=100 time=0@note_on channel=5 note=64 velocity=0 time=0@note_on channel=5 note=66 velocity=100 time=0@note_on channel=6 note=73 velocity=0 time=0@note_on channel=6 note=74 velocity=100 time=0@note_on channel=7 note=62 velocity=0 time=0@note_on channel=8 note=57 velocity=0 time=0@note_on channel=8 note=62 velocity=100 time=0@note_on channel=0 note=66 velocity=0 time=0.454545@note_on channel=0 note=67 velocity=100 time=0@note_on channel=1 note=74 velocity=0 time=0@note_on channel=1 note=62 velocity=100 time=0@note_on channel=3 note=62 velocity=0 time=0@note_on channel=3 note=66 velocity=100 time=0@note_on channel=5 note=66 velocity=0 time=0@note_on channel=5 note=67 velocity=100 time=0@note_on channel=6 note=74 velocity=0 time=0@note_on channel=6 note=62 velocity=100 time=0@note_on channel=8 note=62 velocity=0 time=0@note_on channel=8 note=66 velocity=100 time=0@note_on channel=0 note=67 velocity=0 time=0.454545@note_on channel=0 note=69 velocity=100 time=0@note_on channel=1 note=62 velocity=0 time=0@note_on channel=1 note=61 velocity=100 time=0@note_on channel=2 note=64 velocity=100 time=0@note_on channel=3 note=66 velocity=0 time=0@note_on channel=4 note=50 velocity=0 time=0@note_on channel=4 note=45 velocity=100 time=0@note_on channel=5 note=67 velocity=0 time=0@note_on channel=5 note=69 velocity=100 time=0@note_on channel=6 note=62 velocity=0 time=0@note_on channel=6 note=61 velocity=100 time=0@note_on channel=7 note=64 velocity=100 time=0@note_on channel=8 note=66 velocity=0 time=0@note_on channel=10 note=50 velocity=0 time=0@note_on channel=10 note=45 velocity=100 time=0@note_on channel=0 note=69 velocity=0 time=0.454545@note_on channel=0 note=69 velocity=100 time=0@note_on channel=1 note=61 velocity=0 time=0@note_on channel=1 note=64 velocity=100 time=0@note_on channel=2 note=64 velocity=0 time=0@note_on channel=2 note=64 velocity=100 time=0@note_on channel=3 note=52 velocity=100 time=0@note_on channel=5 note=69 velocity=0 time=0@note_on channel=5 note=69 velocity=100 time=0@note_on channel=6 note=61 velocity=0 time=0@note_on channel=6 note=64 velocity=100 time=0@note_on channel=7 note=64 velocity=0 time=0@note_on channel=7 note=64 velocity=100 time=0@note_on channel=8 note=52 velocity=100 time=0@note_on channel=0 note=69 velocity=0 time=0.454545@note_on channel=0 note=69 velocity=100 time=0@note_on channel=1 note=64 velocity=0 time=0@note_on channel=1 note=69 velocity=100 time=0@note_on channel=2 note=64 velocity=0 time=0@note_on channel=2 note=73 velocity=100 time=0@note_on channel=3 note=52 velocity=0 time=0@note_on channel=3 note=57 velocity=100 time=0@note_on channel=5 note=69 velocity=0 time=0@note_on channel=5 note=69 velocity=100 time=0@note_on channel=6 note=64 velocity=0 time=0@note_on channel=6 note=69 velocity=100 time=0@note_on channel=7 note=64 velocity=0 time=0@note_on channel=7 note=73 velocity=100 time=0@note_on channel=8 note=52 velocity=0 time=0@note_on channel=8 note=57 velocity=100 time=0@note_on channel=0 note=69 velocity=0 time=0.454545@note_on channel=0 note=67 velocity=100 time=0@note_on channel=1 note=69 velocity=0 time=0@note_on channel=1 note=66 velocity=100 time=0@note_on channel=3 note=57 velocity=0 time=0@note_on channel=3 note=61 velocity=100 time=0@note_on channel=5 note=69 velocity=0 time=0@note_on channel=5 note=67 velocity=100 time=0@note_on channel=6 note=69 velocity=0 time=0@note_on channel=6 note=66 velocity=100 time=0@note_on channel=8 note=57 velocity=0 time=0@note_on channel=8 note=61 velocity=100 time=0@note_on channel=0 note=67 velocity=0 time=0.454545@note_on channel=0 note=66 velocity=100 time=0@note_on channel=1 note=66 velocity=0 time=0@note_on channel=1 note=62 velocity=100 time=0@note_on channel=2 note=73 velocity=0 time=0@note_on channel=2 note=74 velocity=100 time=0@note_on channel=3 note=61 velocity=0 time=0@note_on channel=4 note=45 velocity=0 time=0@note_on channel=4 note=47 velocity=100 time=0@note_on channel=5 note=67 velocity=0 time=0@note_on channel=5 note=66 velocity=100 time=0@note_on channel=6 note=66 velocity=0 time=0@note_on channel=6 note=62 velocity=100 time=0@note_on channel=7 note=73 velocity=0 time=0@note_on channel=7 note=74 velocity=100 time=0@note_on channel=8 note=61 velocity=0 time=0@note_on channel=10 note=45 velocity=0 time=0@note_on channel=10 note=47 velocity=100 time=0@note_on channel=0 note=66 velocity=0 time=0.454545@note_on channel=0 note=71 velocity=100 time=0@note_on channel=1 note=62 velocity=0 time=0@note_on channel=1 note=74 velocity=100 time=0@note_on channel=2 note=74 velocity=0 time=0@note_on channel=2 note=74 velocity=100 time=0@note_on channel=3 note=50 velocity=100 time=0@note_on channel=5 note=66 velocity=0 time=0@note_on channel=5 note=71 velocity=100 time=0@note_on channel=6 note=62 velocity=0 time=0@note_on channel=6 note=74 velocity=100 time=0@note_on channel=7 note=74 velocity=0 time=0@note_on channel=7 note=74 velocity=100 time=0@note_on channel=8 note=50 velocity=100 time=0@note_on channel=0 note=71 velocity=0 time=0.454545@note_on channel=0 note=69 velocity=100 time=0@note_on channel=1 note=74 velocity=0 time=0@note_on channel=1 note=73 velocity=100 time=0@note_on channel=2 note=74 velocity=0 time=0@note_on channel=2 note=78 velocity=100 time=0@note_on channel=3 note=50 velocity=0 time=0@note_on channel=3 note=54 velocity=100 time=0@note_on channel=5 note=71 velocity=0 time=0@note_on channel=5 note=69 velocity=100 time=0@note_on channel=6 note=74 velocity=0 time=0@note_on channel=6 note=73 velocity=100 time=0@note_on channel=7 note=74 velocity=0 time=0@note_on channel=7 note=78 velocity=100 time=0@note_on channel=8 note=50 velocity=0 time=0@note_on channel=8 note=54 velocity=100 time=0@note_on channel=0 note=69 velocity=0 time=0.454545@note_on channel=0 note=67 velocity=100 time=0@note_on channel=1 note=73 velocity=0 time=0@note_on channel=1 note=71 velocity=100 time=0@note_on channel=3 note=54 velocity=0 time=0@note_on channel=3 note=59 velocity=100 time=0@note_on channel=5 note=69 velocity=0 time=0@note_on channel=5 note=67 velocity=100 time=0@note_on channel=6 note=73 velocity=0 time=0@note_on channel=6 note=71 velocity=100 time=0@note_on channel=8 note=54 velocity=0 time=0@note_on channel=8 note=59 velocity=100 time=0@note_on channel=0 note=67 velocity=0 time=0.454545@note_on channel=0 note=69 velocity=100 time=0@control_change channel=0 control=7 value=65 time=0@note_on channel=1 note=71 velocity=0 time=0@note_on channel=1 note=73 velocity=100 time=0@control_change channel=1 control=7 value=65 time=0@note_on channel=2 note=78 velocity=0 time=0@note_on channel=2 note=81 velocity=100 time=0@control_change channel=2 control=7 value=65 time=0@note_on channel=3 note=59 velocity=0 time=0@control_change channel=3 control=7 value=65 time=0@note_on channel=4 note=47 velocity=0 time=0@note_on channel=4 note=42 velocity=100 time=0@control_change channel=4 control=7 value=65 time=0@note_on channel=5 note=67 velocity=0 time=0@note_on channel=5 note=69 velocity=100 time=0@control_change channel=5 control=7 value=65 time=0@note_on channel=6 note=71 velocity=0 time=0@note_on channel=6 note=73 velocity=100 time=0@control_change channel=6 control=7 value=65 time=0@note_on channel=7 note=78 velocity=0 time=0@note_on channel=7 note=81 velocity=100 time=0@control_change channel=7 control=7 value=65 time=0@note_on channel=8 note=59 velocity=0 time=0@control_change channel=8 control=7 value=65 time=0@note_on channel=10 note=47 velocity=0 time=0@note_on channel=10 note=42 velocity=100 time=0@control_change channel=10 control=7 value=65 time=0@note_on channel=0 note=69 velocity=0 time=0.454545@note_on channel=0 note=67 velocity=100 time=0@note_on channel=1 note=73 velocity=0 time=0@note_on channel=1 note=78 velocity=100 time=0@note_on channel=3 note=49 velocity=100 time=0@note_on channel=5 note=69 velocity=0 time=0@note_on channel=5 note=67 velocity=100 time=0@note_on channel=6 note=73 velocity=0 time=0@note_on channel=6 note=78 velocity=100 time=0@note_on channel=8 note=49 velocity=100 time=0@note_on channel=0 note=67 velocity=0 time=0.454545@note_on channel=0 note=66 velocity=100 time=0@control_change channel=0 control=7 value=70 time=0@note_on channel=1 note=78 velocity=0 time=0@note_on channel=1 note=81 velocity=100 time=0@control_change channel=1 control=7 value=70 time=0@note_on channel=2 note=81 velocity=0 time=0@note_on channel=2 note=69 velocity=100 time=0@control_change channel=2 control=7 value=70 time=0@note_on channel=3 note=49 velocity=0 time=0@note_on channel=3 note=54 velocity=100 time=0@control_change channel=3 control=7 value=70 time=0@control_change channel=4 control=7 value=70 time=0@note_on channel=5 note=67 velocity=0 time=0@note_on channel=5 note=66 velocity=100 time=0@control_change channel=5 control=7 value=70 time=0@note_on channel=6 note=78 velocity=0 time=0@note_on channel=6 note=81 velocity=100 time=0@control_change channel=6 control=7 value=70 time=0@note_on channel=7 note=81 velocity=0 time=0@note_on channel=7 note=69 velocity=100 time=0@control_change channel=7 control=7 value=70 time=0@note_on channel=8 note=49 velocity=0 time=0@note_on channel=8 note=54 velocity=100 time=0@control_change channel=8 control=7 value=70 time=0@control_change channel=10 control=7 value=70 time=0@note_on channel=0 note=66 velocity=0 time=0.454545@note_on channel=0 note=64 velocity=100 time=0@note_on channel=1 note=81 velocity=0 time=0@note_on channel=1 note=83 velocity=100 time=0@note_on channel=3 note=54 velocity=0 time=0@note_on channel=3 note=57 velocity=100 time=0@note_on channel=5 note=66 velocity=0 time=0@note_on channel=5 note=64 velocity=100 time=0@note_on channel=6 note=81 velocity=0 time=0@note_on channel=6 note=83 velocity=100 time=0@note_on channel=8 note=54 velocity=0 time=0@note_on channel=8 note=57 velocity=100 time=0@note_on channel=0 note=64 velocity=0 time=0.454545@note_on channel=0 note=62 velocity=100 time=0@note_on channel=1 note=83 velocity=0 time=0@note_on channel=2 note=69 velocity=0 time=0@note_on channel=3 note=57 velocity=0 time=0@note_on channel=4 note=42 velocity=0 time=0@note_on channel=4 note=43 velocity=100 time=0@note_on channel=5 note=64 velocity=0 time=0@note_on channel=5 note=62 velocity=100 time=0@note_on channel=6 note=83 velocity=0 time=0@note_on channel=7 note=69 velocity=0 time=0@note_on channel=8 note=57 velocity=0 time=0@note_on channel=10 note=42 velocity=0 time=0@note_on channel=10 note=43 velocity=100 time=0@note_on channel=2 note=71 velocity=100 time=0.03787875@note_on channel=7 note=71 velocity=100 time=0@note_on channel=1 note=79 velocity=100 time=0.03787875@note_on channel=6 note=79 velocity=100 time=0@note_on channel=1 note=79 velocity=0 time=0.3787875@note_on channel=1 note=78 velocity=100 time=0@note_on channel=3 note=47 velocity=100 time=0@note_on channel=6 note=79 velocity=0 time=0@note_on channel=6 note=78 velocity=100 time=0@note_on channel=8 note=47 velocity=100 time=0@note_on channel=1 note=78 velocity=0 time=0.3787875@note_on channel=6 note=78 velocity=0 time=0@note_on channel=0 note=62 velocity=0 time=0.0757575@note_on channel=0 note=71 velocity=100 time=0@control_change channel=0 control=7 value=65 time=0@note_on channel=1 note=76 velocity=100 time=0@control_change channel=1 control=7 value=65 time=0@note_on channel=2 note=71 velocity=0 time=0@note_on channel=2 note=67 velocity=100 time=0@control_change channel=2 control=7 value=65 time=0@note_on channel=3 note=47 velocity=0 time=0@note_on channel=3 note=50 velocity=100 time=0@control_change channel=3 control=7 value=65 time=0@control_change channel=4 control=7 value=65 time=0@note_on channel=5 note=62 velocity=0 time=0@note_on channel=5 note=71 velocity=100 time=0@control_change channel=5 control=7 value=65 time=0@note_on channel=6 note=76 velocity=100 time=0@control_change channel=6 control=7 value=65 time=0@note_on channel=7 note=71 velocity=0 time=0@note_on channel=7 note=67 velocity=100 time=0@control_change channel=7 control=7 value=65 time=0@note_on channel=8 note=47 velocity=0 time=0@note_on channel=8 note=50 velocity=100 time=0@control_change channel=8 control=7 value=65 time=0@control_change channel=10 control=7 value=65 time=0@note_on channel=1 note=76 velocity=0 time=0.3787875@note_on channel=6 note=76 velocity=0 time=0@note_on channel=1 note=79 velocity=100 time=0.0757575@note_on channel=3 note=50 velocity=0 time=0@note_on channel=3 note=55 velocity=100 time=0@note_on channel=6 note=79 velocity=100 time=0@note_on channel=8 note=50 velocity=0 time=0@note_on channel=8 note=55 velocity=100 time=0@note_on channel=1 note=79 velocity=0 time=0.3787875@note_on channel=6 note=79 velocity=0 time=0@note_on channel=0 note=71 velocity=0 time=0.0757575@note_on channel=0 note=74 velocity=100 time=0@control_change channel=0 control=7 value=60 time=0@note_on channel=1 note=78 velocity=100 time=0@control_change channel=1 control=7 value=60 time=0@note_on channel=2 note=67 velocity=0 time=0@note_on channel=2 note=69 velocity=100 time=0@control_change channel=2 control=7 value=60 time=0@note_on channel=3 note=55 velocity=0 time=0@control_change channel=3 control=7 value=60 time=0@note_on channel=4 note=43 velocity=0 time=0@note_on channel=4 note=38 velocity=100 time=0@control_change channel=4 control=7 value=60 time=0@note_on channel=5 note=71 velocity=0 time=0@note_on channel=5 note=74 velocity=100 time=0@control_change channel=5 control=7 value=60 time=0@note_on channel=6 note=78 velocity=100 time=0@control_change channel=6 control=7 value=60 time=0@note_on channel=7 note=67 velocity=0 time=0@note_on channel=7 note=69 velocity=100 time=0@control_change channel=7 control=7 value=60 time=0@note_on channel=8 note=55 velocity=0 time=0@control_change channel=8 control=7 value=60 time=0@note_on channel=10 note=43 velocity=0 time=0@note_on channel=10 note=38 velocity=100 time=0@control_change channel=10 control=7 value=60 time=0@note_on channel=1 note=78 velocity=0 time=0.3787875@note_on channel=6 note=78 velocity=0 time=0@note_on channel=0 note=74 velocity=0 time=0.03787875@note_on channel=5 note=74 velocity=0 time=0@note_on channel=0 note=73 velocity=100 time=0.03787875@note_on channel=1 note=76 velocity=100 time=0@note_on channel=3 note=54 velocity=100 time=0@note_on channel=5 note=73 velocity=100 time=0@note_on channel=6 note=76 velocity=100 time=0@note_on channel=8 note=54 velocity=100 time=0@note_on channel=1 note=76 velocity=0 time=0.3787875@note_on channel=6 note=76 velocity=0 time=0@note_on channel=0 note=73 velocity=0 time=0.03787875@note_on channel=5 note=73 velocity=0 time=0@note_on channel=0 note=71 velocity=100 time=0.03787875@note_on channel=1 note=74 velocity=100 time=0@note_on channel=2 note=69 velocity=0 time=0@note_on channel=2 note=66 velocity=100 time=0@note_on channel=3 note=54 velocity=0 time=0@note_on channel=3 note=57 velocity=100 time=0@note_on channel=5 note=71 velocity=100 time=0@note_on channel=6 note=74 velocity=100 time=0@note_on channel=7 note=69 velocity=0 time=0@note_on channel=7 note=66 velocity=100 time=0@note_on channel=8 note=54 velocity=0 time=0@note_on channel=8 note=57 velocity=100 time=0@note_on channel=1 note=74 velocity=0 time=0.3787875@note_on channel=6 note=74 velocity=0 time=0@note_on channel=0 note=71 velocity=0 time=0.03787875@note_on channel=5 note=71 velocity=0 time=0@note_on channel=0 note=69 velocity=100 time=0.03787875@note_on channel=1 note=73 velocity=100 time=0@note_on channel=3 note=57 velocity=0 time=0@note_on channel=3 note=62 velocity=100 time=0@note_on channel=5 note=69 velocity=100 time=0@note_on channel=6 note=73 velocity=100 time=0@note_on channel=8 note=57 velocity=0 time=0@note_on channel=8 note=62 velocity=100 time=0@note_on channel=1 note=73 velocity=0 time=0.3787875@note_on channel=6 note=73 velocity=0 time=0@note_on channel=0 note=69 velocity=0 time=0.03787875@note_on channel=5 note=69 velocity=0 time=0@note_on channel=0 note=67 velocity=100 time=0.03787875@note_on channel=1 note=71 velocity=100 time=0@note_on channel=2 note=66 velocity=0 time=0@note_on channel=2 note=62 velocity=100 time=0@note_on channel=3 note=62 velocity=0 time=0@note_on channel=4 note=38 velocity=0 time=0@note_on channel=4 note=43 velocity=100 time=0@note_on channel=5 note=67 velocity=100 time=0@note_on channel=6 note=71 velocity=100 time=0@note_on channel=7 note=66 velocity=0 time=0@note_on channel=7 note=62 velocity=100 time=0@note_on channel=8 note=62 velocity=0 time=0@note_on channel=10 note=38 velocity=0 time=0@note_on channel=10 note=43 velocity=100 time=0@note_on channel=0 note=67 velocity=0 time=0.454545@note_on channel=0 note=66 velocity=100 time=0@note_on channel=1 note=71 velocity=0 time=0@note_on channel=1 note=69 velocity=100 time=0@note_on channel=3 note=52 velocity=100 time=0@note_on channel=5 note=67 velocity=0 time=0@note_on channel=5 note=66 velocity=100 time=0@note_on channel=6 note=71 velocity=0 time=0@note_on channel=6 note=69 velocity=100 time=0@note_on channel=8 note=52 velocity=100 time=0@note_on channel=0 note=66 velocity=0 time=0.454545@note_on channel=0 note=64 velocity=100 time=0@note_on channel=1 note=69 velocity=0 time=0@note_on channel=1 note=67 velocity=100 time=0@note_on channel=2 note=62 velocity=0 time=0@note_on channel=2 note=74 velocity=100 time=0@note_on channel=3 note=52 velocity=0 time=0@note_on channel=3 note=59 velocity=100 time=0@note_on channel=5 note=66 velocity=0 time=0@note_on channel=5 note=64 velocity=100 time=0@note_on channel=6 note=69 velocity=0 time=0@note_on channel=6 note=67 velocity=100 time=0@note_on channel=7 note=62 velocity=0 time=0@note_on channel=7 note=74 velocity=100 time=0@note_on channel=8 note=52 velocity=0 time=0@note_on channel=8 note=59 velocity=100 time=0@note_on channel=0 note=64 velocity=0 time=0.454545@note_on channel=0 note=71 velocity=100 time=0@note_on channel=1 note=67 velocity=0 time=0@note_on channel=1 note=66 velocity=100 time=0@note_on channel=2 note=74 velocity=0 time=0@note_on channel=2 note=74 velocity=100 time=0@note_on channel=3 note=59 velocity=0 time=0@note_on channel=3 note=62 velocity=100 time=0@note_on channel=5 note=64 velocity=0 time=0@note_on channel=5 note=71 velocity=100 time=0@note_on channel=6 note=67 velocity=0 time=0@note_on channel=6 note=66 velocity=100 time=0@note_on channel=7 note=74 velocity=0 time=0@note_on channel=7 note=74 velocity=100 time=0@note_on channel=8 note=59 velocity=0 time=0@note_on channel=8 note=62 velocity=100 time=0@note_on channel=2 note=74 velocity=0 time=0.2272725@note_on channel=2 note=76 velocity=100 time=0@note_on channel=7 note=74 velocity=0 time=0@note_on channel=7 note=76 velocity=100 time=0@note_on channel=0 note=71 velocity=0 time=0.2272725@note_on channel=0 note=69 velocity=100 time=0@note_on channel=1 note=66 velocity=0 time=0@note_on channel=1 note=64 velocity=100 time=0@note_on channel=2 note=76 velocity=0 time=0@note_on channel=2 note=74 velocity=100 time=0@note_on channel=3 note=62 velocity=0 time=0@note_on channel=4 note=43 velocity=0 time=0@note_on channel=4 note=45 velocity=100 time=0@note_on channel=5 note=71 velocity=0 time=0@note_on channel=5 note=69 velocity=100 time=0@note_on channel=6 note=66 velocity=0 time=0@note_on channel=6 note=64 velocity=100 time=0@note_on channel=7 note=76 velocity=0 time=0@note_on channel=7 note=74 velocity=100 time=0@note_on channel=8 note=62 velocity=0 time=0@note_on channel=10 note=43 velocity=0 time=0@note_on channel=10 note=45 velocity=100 time=0@note_on channel=0 note=69 velocity=0 time=0.454545@note_on channel=0 note=71 velocity=100 time=0@note_on channel=1 note=64 velocity=0 time=0@note_on channel=1 note=67 velocity=100 time=0@note_on channel=3 note=52 velocity=100 time=0@note_on channel=5 note=69 velocity=0 time=0@note_on channel=5 note=71 velocity=100 time=0@note_on channel=6 note=64 velocity=0 time=0@note_on channel=6 note=67 velocity=100 time=0@note_on channel=8 note=52 velocity=100 time=0@note_on channel=0 note=71 velocity=0 time=0.454545@note_on channel=0 note=69 velocity=100 time=0@note_on channel=1 note=67 velocity=0 time=0@note_on channel=1 note=66 velocity=100 time=0@note_on channel=2 note=74 velocity=0 time=0@note_on channel=2 note=73 velocity=100 time=0@note_on channel=3 note=52 velocity=0 time=0@note_on channel=3 note=57 velocity=100 time=0@note_on channel=5 note=71 velocity=0 time=0@note_on channel=5 note=69 velocity=100 time=0@note_on channel=6 note=67 velocity=0 time=0@note_on channel=6 note=66 velocity=100 time=0@note_on channel=7 note=74 velocity=0 time=0@note_on channel=7 note=73 velocity=100 time=0@note_on channel=8 note=52 velocity=0 time=0@note_on channel=8 note=57 velocity=100 time=0@note_on channel=2 note=73 velocity=0 time=0.2272725@note_on channel=2 note=74 velocity=100 time=0@note_on channel=7 note=73 velocity=0 time=0@note_on channel=7 note=74 velocity=100 time=0@note_on channel=0 note=69 velocity=0 time=0.2272725@note_on channel=0 note=67 velocity=100 time=0@note_on channel=1 note=66 velocity=0 time=0@note_on channel=1 note=64 velocity=100 time=0@note_on channel=2 note=74 velocity=0 time=0@note_on channel=2 note=73 velocity=100 time=0@note_on channel=3 note=57 velocity=0 time=0@note_on channel=3 note=61 velocity=100 time=0@note_on channel=5 note=69 velocity=0 time=0@note_on channel=5 note=67 velocity=100 time=0@note_on channel=6 note=66 velocity=0 time=0@note_on channel=6 note=64 velocity=100 time=0@note_on channel=7 note=74 velocity=0 time=0@note_on channel=7 note=73 velocity=100 time=0@note_on channel=8 note=57 velocity=0 time=0@note_on channel=8 note=61 velocity=100 time=0@note_on channel=0 note=67 velocity=0 time=0.454545@note_on channel=0 note=66 velocity=100 time=0@note_on channel=1 note=64 velocity=0 time=0@note_on channel=1 note=62 velocity=100 time=0@note_on channel=2 note=73 velocity=0 time=0@note_on channel=2 note=74 velocity=100 time=0@note_on channel=3 note=61 velocity=0 time=0@note_on channel=4 note=45 velocity=0 time=0@note_on channel=4 note=50 velocity=100 time=0@note_on channel=5 note=67 velocity=0 time=0@note_on channel=5 note=66 velocity=100 time=0@note_on channel=6 note=64 velocity=0 time=0@note_on channel=6 note=62 velocity=100 time=0@note_on channel=7 note=73 velocity=0 time=0@note_on channel=7 note=74 velocity=100 time=0@note_on channel=8 note=61 velocity=0 time=0@note_on channel=10 note=45 velocity=0 time=0@note_on channel=10 note=50 velocity=100 time=0@note_on channel=1 note=62 velocity=0 time=0.454545@note_on channel=1 note=64 velocity=100 time=0@note_on channel=2 note=74 velocity=0 time=0@note_on channel=2 note=73 velocity=100 time=0@note_on channel=3 note=57 velocity=100 time=0@note_on channel=6 note=62 velocity=0 time=0@note_on channel=6 note=64 velocity=100 time=0@note_on channel=7 note=74 velocity=0 time=0@note_on channel=7 note=73 velocity=100 time=0@note_on channel=8 note=57 velocity=100 time=0@note_on channel=0 note=66 velocity=0 time=0.454545@note_on channel=0 note=78 velocity=100 time=0@note_on channel=1 note=64 velocity=0 time=0@note_on channel=1 note=66 velocity=100 time=0@note_on channel=2 note=73 velocity=0 time=0@note_on channel=2 note=74 velocity=100 time=0@note_on channel=3 note=57 velocity=0 time=0@note_on channel=3 note=62 velocity=100 time=0@note_on channel=5 note=66 velocity=0 time=0@note_on channel=5 note=78 velocity=100 time=0@note_on channel=6 note=64 velocity=0 time=0@note_on channel=6 note=66 velocity=100 time=0@note_on channel=7 note=73 velocity=0 time=0@note_on channel=7 note=74 velocity=100 time=0@note_on channel=8 note=57 velocity=0 time=0@note_on channel=8 note=62 velocity=100 time=0@note_on channel=1 note=66 velocity=0 time=0.454545@note_on channel=1 note=67 velocity=100 time=0@note_on channel=3 note=62 velocity=0 time=0@note_on channel=3 note=66 velocity=100 time=0@note_on channel=6 note=66 velocity=0 time=0@note_on channel=6 note=67 velocity=100 time=0@note_on channel=8 note=62 velocity=0 time=0@note_on channel=8 note=66 velocity=100 time=0@note_on channel=0 note=78 velocity=0 time=0.454545@note_on channel=0 note=76 velocity=100 time=0@note_on channel=1 note=67 velocity=0 time=0@note_on channel=1 note=69 velocity=100 time=0@note_on channel=2 note=74 velocity=0 time=0@note_on channel=2 note=61 velocity=100 time=0@note_on channel=3 note=66 velocity=0 time=0@note_on channel=4 note=50 velocity=0 time=0@note_on channel=4 note=45 velocity=100 time=0@note_on channel=5 note=78 velocity=0 time=0@note_on channel=5 note=76 velocity=100 time=0@note_on channel=6 note=67 velocity=0 time=0@note_on channel=6 note=69 velocity=100 time=0@note_on channel=7 note=74 velocity=0 time=0@note_on channel=7 note=61 velocity=100 time=0@note_on channel=8 note=66 velocity=0 time=0@note_on channel=10 note=50 velocity=0 time=0@note_on channel=10 note=45 velocity=100 time=0@note_on channel=1 note=69 velocity=0 time=0.454545@note_on channel=1 note=69 velocity=100 time=0@note_on channel=2 note=61 velocity=0 time=0@note_on channel=2 note=64 velocity=100 time=0@note_on channel=3 note=52 velocity=100 time=0@note_on channel=6 note=69 velocity=0 time=0@note_on channel=6 note=69 velocity=100 time=0@note_on channel=7 note=61 velocity=0 time=0@note_on channel=7 note=64 velocity=100 time=0@note_on channel=8 note=52 velocity=100 time=0@note_on channel=1 note=69 velocity=0 time=0.454545@note_on channel=1 note=69 velocity=100 time=0@note_on channel=2 note=64 velocity=0 time=0@note_on channel=2 note=64 velocity=100 time=0@note_on channel=3 note=52 velocity=0 time=0@note_on channel=3 note=57 velocity=100 time=0@note_on channel=6 note=69 velocity=0 time=0@note_on channel=6 note=69 velocity=100 time=0@note_on channel=7 note=64 velocity=0 time=0@note_on channel=7 note=64 velocity=100 time=0@note_on channel=8 note=52 velocity=0 time=0@note_on channel=8 note=57 velocity=100 time=0@note_on channel=1 note=69 velocity=0 time=0.454545@note_on channel=1 note=67 velocity=100 time=0@note_on channel=2 note=64 velocity=0 time=0@note_on channel=2 note=66 velocity=100 time=0@note_on channel=3 note=57 velocity=0 time=0@note_on channel=3 note=61 velocity=100 time=0@note_on channel=6 note=69 velocity=0 time=0@note_on channel=6 note=67 velocity=100 time=0@note_on channel=7 note=64 velocity=0 time=0@note_on channel=7 note=66 velocity=100 time=0@note_on channel=8 note=57 velocity=0 time=0@note_on channel=8 note=61 velocity=100 time=0@note_on channel=0 note=76 velocity=0 time=0.454545@note_on channel=1 note=67 velocity=0 time=0@note_on channel=1 note=66 velocity=100 time=0@note_on channel=2 note=66 velocity=0 time=0@note_on channel=2 note=62 velocity=100 time=0@note_on channel=3 note=61 velocity=0 time=0@note_on channel=4 note=45 velocity=0 time=0@note_on channel=4 note=47 velocity=100 time=0@note_on channel=5 note=76 velocity=0 time=0@note_on channel=6 note=67 velocity=0 time=0@note_on channel=6 note=66 velocity=100 time=0@note_on channel=7 note=66 velocity=0 time=0@note_on channel=7 note=62 velocity=100 time=0@note_on channel=8 note=61 velocity=0 time=0@note_on channel=10 note=45 velocity=0 time=0@note_on channel=10 note=47 velocity=100 time=0@note_on channel=1 note=66 velocity=0 time=0.454545@note_on channel=1 note=71 velocity=100 time=0@note_on channel=2 note=62 velocity=0 time=0@note_on channel=2 note=74 velocity=100 time=0@note_on channel=3 note=50 velocity=100 time=0@note_on channel=6 note=66 velocity=0 time=0@note_on channel=6 note=71 velocity=100 time=0@note_on channel=7 note=62 velocity=0 time=0@note_on channel=7 note=74 velocity=100 time=0@note_on channel=8 note=50 velocity=100 time=0@note_on channel=0 note=74 velocity=100 time=0.454545@control_change channel=0 control=7 value=65 time=0@note_on channel=1 note=71 velocity=0 time=0@note_on channel=1 note=69 velocity=100 time=0@control_change channel=1 control=7 value=65 time=0@note_on channel=2 note=74 velocity=0 time=0@note_on channel=2 note=73 velocity=100 time=0@control_change channel=2 control=7 value=65 time=0@note_on channel=3 note=50 velocity=0 time=0@note_on channel=3 note=54 velocity=100 time=0@control_change channel=3 control=7 value=65 time=0@control_change channel=4 control=7 value=65 time=0@note_on channel=5 note=74 velocity=100 time=0@control_change channel=5 control=7 value=65 time=0@note_on channel=6 note=71 velocity=0 time=0@note_on channel=6 note=69 velocity=100 time=0@control_change channel=6 control=7 value=65 time=0@note_on channel=7 note=74 velocity=0 time=0@note_on channel=7 note=73 velocity=100 time=0@control_change channel=7 control=7 value=65 time=0@note_on channel=8 note=50 velocity=0 time=0@note_on channel=8 note=54 velocity=100 time=0@control_change channel=8 control=7 value=65 time=0@control_change channel=10 control=7 value=65 time=0@note_on channel=1 note=69 velocity=0 time=0.454545@note_on channel=1 note=67 velocity=100 time=0@note_on channel=2 note=73 velocity=0 time=0@note_on channel=2 note=71 velocity=100 time=0@note_on channel=3 note=54 velocity=0 time=0@note_on channel=3 note=59 velocity=100 time=0@note_on channel=6 note=69 velocity=0 time=0@note_on channel=6 note=67 velocity=100 time=0@note_on channel=7 note=73 velocity=0 time=0@note_on channel=7 note=71 velocity=100 time=0@note_on channel=8 note=54 velocity=0 time=0@note_on channel=8 note=59 velocity=100 time=0@note_on channel=0 note=74 velocity=0 time=0.454545@note_on channel=0 note=78 velocity=100 time=0@control_change channel=0 control=7 value=70 time=0@note_on channel=1 note=67 velocity=0 time=0@note_on channel=1 note=69 velocity=100 time=0@control_change channel=1 control=7 value=70 time=0@note_on channel=2 note=71 velocity=0 time=0@note_on channel=2 note=73 velocity=100 time=0@control_change channel=2 control=7 value=70 time=0@note_on channel=3 note=59 velocity=0 time=0@control_change channel=3 control=7 value=70 time=0@note_on channel=4 note=47 velocity=0 time=0@note_on channel=4 note=42 velocity=100 time=0@control_change channel=4 control=7 value=70 time=0@note_on channel=5 note=74 velocity=0 time=0@note_on channel=5 note=78 velocity=100 time=0@control_change channel=5 control=7 value=70 time=0@note_on channel=6 note=67 velocity=0 time=0@note_on channel=6 note=69 velocity=100 time=0@control_change channel=6 control=7 value=70 time=0@note_on channel=7 note=71 velocity=0 time=0@note_on channel=7 note=73 velocity=100 time=0@control_change channel=7 control=7 value=70 time=0@note_on channel=8 note=59 velocity=0 time=0@control_change channel=8 control=7 value=70 time=0@note_on channel=10 note=47 velocity=0 time=0@note_on channel=10 note=42 velocity=100 time=0@control_change channel=10 control=7 value=70 time=0@note_on channel=0 note=78 velocity=0 time=0.454545@note_on channel=0 note=78 velocity=100 time=0@note_on channel=1 note=69 velocity=0 time=0@note_on channel=1 note=67 velocity=100 time=0@note_on channel=2 note=73 velocity=0 time=0@note_on channel=2 note=78 velocity=100 time=0@note_on channel=3 note=49 velocity=100 time=0@note_on channel=5 note=78 velocity=0 time=0@note_on channel=5 note=78 velocity=100 time=0@note_on channel=6 note=69 velocity=0 time=0@note_on channel=6 note=67 velocity=100 time=0@note_on channel=7 note=73 velocity=0 time=0@note_on channel=7 note=78 velocity=100 time=0@note_on channel=8 note=49 velocity=100 time=0@note_on channel=0 note=78 velocity=0 time=0.454545@note_on channel=0 note=78 velocity=100 time=0@control_change channel=0 control=7 value=75 time=0@note_on channel=1 note=67 velocity=0 time=0@note_on channel=1 note=66 velocity=100 time=0@control_change channel=1 control=7 value=75 time=0@note_on channel=2 note=78 velocity=0 time=0@note_on channel=2 note=81 velocity=100 time=0@control_change channel=2 control=7 value=75 time=0@note_on channel=3 note=49 velocity=0 time=0@note_on channel=3 note=54 velocity=100 time=0@control_change channel=3 control=7 value=75 time=0@control_change channel=4 control=7 value=75 time=0@note_on channel=5 note=78 velocity=0 time=0@note_on channel=5 note=78 velocity=100 time=0@control_change channel=5 control=7 value=75 time=0@note_on channel=6 note=67 velocity=0 time=0@note_on channel=6 note=66 velocity=100 time=0@control_change channel=6 control=7 value=75 time=0@note_on channel=7 note=78 velocity=0 time=0@note_on channel=7 note=81 velocity=100 time=0@control_change channel=7 control=7 value=75 time=0@note_on channel=8 note=49 velocity=0 time=0@note_on channel=8 note=54 velocity=100 time=0@control_change channel=8 control=7 value=75 time=0@control_change channel=10 control=7 value=75 time=0@note_on channel=1 note=66 velocity=0 time=0.454545@note_on channel=1 note=64 velocity=100 time=0@note_on channel=2 note=81 velocity=0 time=0@note_on channel=2 note=83 velocity=100 time=0@note_on channel=3 note=54 velocity=0 time=0@note_on channel=3 note=57 velocity=100 time=0@note_on channel=6 note=66 velocity=0 time=0@note_on channel=6 note=64 velocity=100 time=0@note_on channel=7 note=81 velocity=0 time=0@note_on channel=7 note=83 velocity=100 time=0@note_on channel=8 note=54 velocity=0 time=0@note_on channel=8 note=57 velocity=100 time=0@note_on channel=0 note=78 velocity=0 time=0.454545@note_on channel=0 note=83 velocity=100 time=0@control_change channel=0 control=7 value=80 time=0@note_on channel=1 note=64 velocity=0 time=0@note_on channel=1 note=62 velocity=100 time=0@control_change channel=1 control=7 value=80 time=0@note_on channel=2 note=83 velocity=0 time=0@note_on channel=2 note=79 velocity=100 time=0@control_change channel=2 control=7 value=80 time=0@note_on channel=3 note=57 velocity=0 time=0@control_change channel=3 control=7 value=80 time=0@note_on channel=4 note=42 velocity=0 time=0@note_on channel=4 note=43 velocity=100 time=0@control_change channel=4 control=7 value=80 time=0@note_on channel=5 note=78 velocity=0 time=0@note_on channel=5 note=83 velocity=100 time=0@control_change channel=5 control=7 value=80 time=0@note_on channel=6 note=64 velocity=0 time=0@note_on channel=6 note=62 velocity=100 time=0@control_change channel=6 control=7 value=80 time=0@note_on channel=7 note=83 velocity=0 time=0@note_on channel=7 note=79 velocity=100 time=0@control_change channel=7 control=7 value=80 time=0@note_on channel=8 note=57 velocity=0 time=0@control_change channel=8 control=7 value=80 time=0@note_on channel=10 note=42 velocity=0 time=0@note_on channel=10 note=43 velocity=100 time=0@control_change channel=10 control=7 value=80 time=0@note_on channel=1 note=62 velocity=0 time=0.454545@note_on channel=1 note=59 velocity=100 time=0@note_on channel=2 note=79 velocity=0 time=0@note_on channel=2 note=78 velocity=100 time=0@note_on channel=3 note=47 velocity=100 time=0@note_on channel=6 note=62 velocity=0 time=0@note_on channel=6 note=59 velocity=100 time=0@note_on channel=7 note=79 velocity=0 time=0@note_on channel=7 note=78 velocity=100 time=0@note_on channel=8 note=47 velocity=100 time=0@note_on channel=2 note=78 velocity=0 time=0.3787875@note_on channel=7 note=78 velocity=0 time=0@note_on channel=1 note=59 velocity=0 time=0.0757575@note_on channel=1 note=71 velocity=100 time=0@note_on channel=2 note=76 velocity=100 time=0@note_on channel=3 note=47 velocity=0 time=0@note_on channel=3 note=50 velocity=100 time=0@note_on channel=6 note=59 velocity=0 time=0@note_on channel=6 note=71 velocity=100 time=0@note_on channel=7 note=76 velocity=100 time=0@note_on channel=8 note=47 velocity=0 time=0@note_on channel=8 note=50 velocity=100 time=0@note_on channel=2 note=76 velocity=0 time=0.3787875@note_on channel=7 note=76 velocity=0 time=0@note_on channel=1 note=71 velocity=0 time=0.0757575@note_on channel=1 note=73 velocity=100 time=0@note_on channel=2 note=79 velocity=100 time=0@note_on channel=3 note=50 velocity=0 time=0@note_on channel=3 note=55 velocity=100 time=0@note_on channel=6 note=71 velocity=0 time=0@note_on channel=6 note=73 velocity=100 time=0@note_on channel=7 note=79 velocity=100 time=0@note_on channel=8 note=50 velocity=0 time=0@note_on channel=8 note=55 velocity=100 time=0@note_on channel=2 note=79 velocity=0 time=0.3787875@note_on channel=7 note=79 velocity=0 time=0@note_on channel=0 note=83 velocity=0 time=0.0757575@note_on channel=0 note=81 velocity=100 time=0@note_on channel=1 note=73 velocity=0 time=0@note_on channel=1 note=74 velocity=100 time=0@note_on channel=2 note=78 velocity=100 time=0@note_on channel=3 note=55 velocity=0 time=0@note_on channel=4 note=43 velocity=0 time=0@note_on channel=4 note=38 velocity=100 time=0@note_on channel=5 note=83 velocity=0 time=0@note_on channel=5 note=81 velocity=100 time=0@note_on channel=6 note=73 velocity=0 time=0@note_on channel=6 note=74 velocity=100 time=0@note_on channel=7 note=78 velocity=100 time=0@note_on channel=8 note=55 velocity=0 time=0@note_on channel=10 note=43 velocity=0 time=0@note_on channel=10 note=38 velocity=100 time=0@note_on channel=2 note=78 velocity=0 time=0.3787875@note_on channel=7 note=78 velocity=0 time=0@note_on channel=1 note=74 velocity=0 time=0.03787875@note_on channel=6 note=74 velocity=0 time=0@note_on channel=1 note=73 velocity=100 time=0.03787875@note_on channel=2 note=76 velocity=100 time=0@note_on channel=3 note=54 velocity=100 time=0@note_on channel=6 note=73 velocity=100 time=0@note_on channel=7 note=76 velocity=100 time=0@note_on channel=8 note=54 velocity=100 time=0@note_on channel=2 note=76 velocity=0 time=0.3787875@note_on channel=7 note=76 velocity=0 time=0@note_on channel=1 note=73 velocity=0 time=0.03787875@note_on channel=6 note=73 velocity=0 time=0@note_on channel=1 note=71 velocity=100 time=0.03787875@note_on channel=2 note=74 velocity=100 time=0@note_on channel=3 note=54 velocity=0 time=0@note_on channel=3 note=57 velocity=100 time=0@note_on channel=6 note=71 velocity=100 time=0@note_on channel=7 note=74 velocity=100 time=0@note_on channel=8 note=54 velocity=0 time=0@note_on channel=8 note=57 velocity=100 time=0@note_on channel=2 note=74 velocity=0 time=0.3787875@note_on channel=7 note=74 velocity=0 time=0@note_on channel=1 note=71 velocity=0 time=0.03787875@note_on channel=6 note=71 velocity=0 time=0@note_on channel=1 note=69 velocity=100 time=0.03787875@note_on channel=2 note=73 velocity=100 time=0@note_on channel=3 note=57 velocity=0 time=0@note_on channel=3 note=62 velocity=100 time=0@note_on channel=6 note=69 velocity=100 time=0@note_on channel=7 note=73 velocity=100 time=0@note_on channel=8 note=57 velocity=0 time=0@note_on channel=8 note=62 velocity=100 time=0@note_on channel=2 note=73 velocity=0 time=0.3787875@note_on channel=7 note=73 velocity=0 time=0@note_on channel=1 note=69 velocity=0 time=0.03787875@note_on channel=6 note=69 velocity=0 time=0@note_on channel=0 note=81 velocity=0 time=0.03787875@note_on channel=0 note=83 velocity=100 time=0@note_on channel=1 note=67 velocity=100 time=0@note_on channel=3 note=62 velocity=0 time=0@note_on channel=4 note=38 velocity=0 time=0@note_on channel=4 note=43 velocity=100 time=0@note_on channel=5 note=81 velocity=0 time=0@note_on channel=5 note=83 velocity=100 time=0@note_on channel=6 note=67 velocity=100 time=0@note_on channel=8 note=62 velocity=0 time=0@note_on channel=10 note=38 velocity=0 time=0@note_on channel=10 note=43 velocity=100 time=0@note_on channel=1 note=67 velocity=0 time=0.454545@note_on channel=1 note=66 velocity=100 time=0@note_on channel=2 note=69 velocity=100 time=0@note_on channel=3 note=52 velocity=100 time=0@note_on channel=6 note=67 velocity=0 time=0@note_on channel=6 note=66 velocity=100 time=0@note_on channel=7 note=69 velocity=100 time=0@note_on channel=8 note=52 velocity=100 time=0@note_on channel=1 note=66 velocity=0 time=0.454545@note_on channel=1 note=64 velocity=100 time=0@note_on channel=2 note=69 velocity=0 time=0@note_on channel=2 note=67 velocity=100 time=0@note_on channel=3 note=52 velocity=0 time=0@note_on channel=3 note=59 velocity=100 time=0@note_on channel=6 note=66 velocity=0 time=0@note_on channel=6 note=64 velocity=100 time=0@note_on channel=7 note=69 velocity=0 time=0@note_on channel=7 note=67 velocity=100 time=0@note_on channel=8 note=52 velocity=0 time=0@note_on channel=8 note=59 velocity=100 time=0@note_on channel=1 note=64 velocity=0 time=0.454545@note_on channel=1 note=71 velocity=100 time=0@note_on channel=2 note=67 velocity=0 time=0@note_on channel=2 note=62 velocity=100 time=0@note_on channel=3 note=59 velocity=0 time=0@note_on channel=3 note=62 velocity=100 time=0@note_on channel=6 note=64 velocity=0 time=0@note_on channel=6 note=71 velocity=100 time=0@note_on channel=7 note=67 velocity=0 time=0@note_on channel=7 note=62 velocity=100 time=0@note_on channel=8 note=59 velocity=0 time=0@note_on channel=8 note=62 velocity=100 time=0@note_on channel=0 note=83 velocity=0 time=0.454545@note_on channel=0 note=85 velocity=100 time=0@note_on channel=1 note=71 velocity=0 time=0@note_on channel=1 note=78 velocity=100 time=0@note_on channel=2 note=62 velocity=0 time=0@note_on channel=2 note=57 velocity=100 time=0@note_on channel=3 note=62 velocity=0 time=0@note_on channel=4 note=43 velocity=0 time=0@note_on channel=4 note=45 velocity=100 time=0@note_on channel=5 note=83 velocity=0 time=0@note_on channel=5 note=85 velocity=100 time=0@note_on channel=6 note=71 velocity=0 time=0@note_on channel=6 note=78 velocity=100 time=0@note_on channel=7 note=62 velocity=0 time=0@note_on channel=7 note=57 velocity=100 time=0@note_on channel=8 note=62 velocity=0 time=0@note_on channel=10 note=43 velocity=0 time=0@note_on channel=10 note=45 velocity=100 time=0@note_on channel=1 note=78 velocity=0 time=0.454545@note_on channel=1 note=71 velocity=100 time=0@note_on channel=2 note=57 velocity=0 time=0@note_on channel=2 note=67 velocity=100 time=0@note_on channel=3 note=52 velocity=100 time=0@note_on channel=6 note=78 velocity=0 time=0@note_on channel=6 note=71 velocity=100 time=0@note_on channel=7 note=57 velocity=0 time=0@note_on channel=7 note=67 velocity=100 time=0@note_on channel=8 note=52 velocity=100 time=0@control_change channel=0 control=7 value=85 time=0.454545@note_on channel=1 note=71 velocity=0 time=0@note_on channel=1 note=69 velocity=100 time=0@control_change channel=1 control=7 value=85 time=0@note_on channel=2 note=67 velocity=0 time=0@note_on channel=2 note=66 velocity=100 time=0@control_change channel=2 control=7 value=85 time=0@note_on channel=3 note=52 velocity=0 time=0@note_on channel=3 note=57 velocity=100 time=0@control_change channel=3 control=7 value=85 time=0@control_change channel=4 control=7 value=85 time=0@control_change channel=5 control=7 value=85 time=0@note_on channel=6 note=71 velocity=0 time=0@note_on channel=6 note=69 velocity=100 time=0@control_change channel=6 control=7 value=85 time=0@note_on channel=7 note=67 velocity=0 time=0@note_on channel=7 note=66 velocity=100 time=0@control_change channel=7 control=7 value=85 time=0@note_on channel=8 note=52 velocity=0 time=0@note_on channel=8 note=57 velocity=100 time=0@control_change channel=8 control=7 value=85 time=0@control_change channel=10 control=7 value=85 time=0@note_on channel=1 note=69 velocity=0 time=0.454545@note_on channel=1 note=67 velocity=100 time=0@note_on channel=2 note=66 velocity=0 time=0@note_on channel=2 note=64 velocity=100 time=0@note_on channel=3 note=57 velocity=0 time=0@note_on channel=3 note=61 velocity=100 time=0@note_on channel=6 note=69 velocity=0 time=0@note_on channel=6 note=67 velocity=100 time=0@note_on channel=7 note=66 velocity=0 time=0@note_on channel=7 note=64 velocity=100 time=0@note_on channel=8 note=57 velocity=0 time=0@note_on channel=8 note=61 velocity=100 time=0@note_on channel=0 note=85 velocity=0 time=0.454545@note_on channel=0 note=86 velocity=100 time=0@note_on channel=0 note=74 velocity=100 time=0@note_on channel=1 note=67 velocity=0 time=0@note_on channel=1 note=78 velocity=100 time=0@note_on channel=2 note=64 velocity=0 time=0@note_on channel=2 note=62 velocity=100 time=0@note_on channel=3 note=61 velocity=0 time=0@note_on channel=4 note=45 velocity=0 time=0@note_on channel=4 note=50 velocity=100 time=0@note_on channel=5 note=85 velocity=0 time=0@note_on channel=5 note=86 velocity=100 time=0@note_on channel=5 note=74 velocity=100 time=0@note_on channel=6 note=67 velocity=0 time=0@note_on channel=6 note=78 velocity=100 time=0@note_on channel=7 note=64 velocity=0 time=0@note_on channel=7 note=62 velocity=100 time=0@note_on channel=8 note=61 velocity=0 time=0@note_on channel=10 note=45 velocity=0 time=0@note_on channel=10 note=50 velocity=100 time=0@note_on channel=2 note=62 velocity=0 time=0.454545@note_on channel=2 note=64 velocity=100 time=0@note_on channel=3 note=57 velocity=100 time=0@note_on channel=7 note=62 velocity=0 time=0@note_on channel=7 note=64 velocity=100 time=0@note_on channel=8 note=57 velocity=100 time=0@note_on channel=0 note=74 velocity=0 time=0.454545@note_on channel=0 note=86 velocity=0 time=0@note_on channel=0 note=74 velocity=100 time=0@control_change channel=0 control=7 value=75 time=0@note_on channel=1 note=78 velocity=0 time=0@note_on channel=1 note=78 velocity=100 time=0@control_change channel=1 control=7 value=75 time=0@note_on channel=2 note=64 velocity=0 time=0@note_on channel=2 note=66 velocity=100 time=0@control_change channel=2 control=7 value=75 time=0@note_on channel=3 note=57 velocity=0 time=0@note_on channel=3 note=62 velocity=100 time=0@control_change channel=3 control=7 value=75 time=0@control_change channel=4 control=7 value=75 time=0@note_on channel=5 note=74 velocity=0 time=0@note_on channel=5 note=86 velocity=0 time=0@note_on channel=5 note=74 velocity=100 time=0@control_change channel=5 control=7 value=75 time=0@note_on channel=6 note=78 velocity=0 time=0@note_on channel=6 note=78 velocity=100 time=0@control_change channel=6 control=7 value=75 time=0@note_on channel=7 note=64 velocity=0 time=0@note_on channel=7 note=66 velocity=100 time=0@control_change channel=7 control=7 value=75 time=0@note_on channel=8 note=57 velocity=0 time=0@note_on channel=8 note=62 velocity=100 time=0@control_change channel=8 control=7 value=75 time=0@control_change channel=10 control=7 value=75 time=0@note_on channel=2 note=66 velocity=0 time=0.454545@note_on channel=2 note=67 velocity=100 time=0@note_on channel=3 note=62 velocity=0 time=0@note_on channel=3 note=66 velocity=100 time=0@note_on channel=7 note=66 velocity=0 time=0@note_on channel=7 note=67 velocity=100 time=0@note_on channel=8 note=62 velocity=0 time=0@note_on channel=8 note=66 velocity=100 time=0@note_on channel=0 note=74 velocity=0 time=0.454545@note_on channel=0 note=73 velocity=100 time=0@control_change channel=0 control=7 value=60 time=0@note_on channel=1 note=78 velocity=0 time=0@note_on channel=1 note=76 velocity=100 time=0@control_change channel=1 control=7 value=60 time=0@note_on channel=2 note=67 velocity=0 time=0@note_on channel=2 note=69 velocity=100 time=0@control_change channel=2 control=7 value=60 time=0@note_on channel=3 note=66 velocity=0 time=0@control_change channel=3 control=7 value=60 time=0@note_on channel=4 note=50 velocity=0 time=0@note_on channel=4 note=45 velocity=100 time=0@control_change channel=4 control=7 value=60 time=0@note_on channel=5 note=74 velocity=0 time=0@note_on channel=5 note=73 velocity=100 time=0@control_change channel=5 control=7 value=60 time=0@note_on channel=6 note=78 velocity=0 time=0@note_on channel=6 note=76 velocity=100 time=0@control_change channel=6 control=7 value=60 time=0@note_on channel=7 note=67 velocity=0 time=0@note_on channel=7 note=69 velocity=100 time=0@control_change channel=7 control=7 value=60 time=0@note_on channel=8 note=66 velocity=0 time=0@control_change channel=8 control=7 value=60 time=0@note_on channel=10 note=50 velocity=0 time=0@note_on channel=10 note=45 velocity=100 time=0@control_change channel=10 control=7 value=60 time=0@note_on channel=2 note=69 velocity=0 time=0.454545@note_on channel=2 note=64 velocity=100 time=0@note_on channel=3 note=52 velocity=100 time=0@note_on channel=7 note=69 velocity=0 time=0@note_on channel=7 note=64 velocity=100 time=0@note_on channel=8 note=52 velocity=100 time=0@note_on channel=2 note=64 velocity=0 time=0.454545@note_on channel=2 note=69 velocity=100 time=0@note_on channel=3 note=52 velocity=0 time=0@note_on channel=3 note=57 velocity=100 time=0@note_on channel=7 note=64 velocity=0 time=0@note_on channel=7 note=69 velocity=100 time=0@note_on channel=8 note=52 velocity=0 time=0@note_on channel=8 note=57 velocity=100 time=0@note_on channel=2 note=69 velocity=0 time=0.454545@note_on channel=2 note=67 velocity=100 time=0@note_on channel=3 note=57 velocity=0 time=0@note_on channel=3 note=61 velocity=100 time=0@note_on channel=7 note=69 velocity=0 time=0@note_on channel=7 note=67 velocity=100 time=0@note_on channel=8 note=57 velocity=0 time=0@note_on channel=8 note=61 velocity=100 time=0@note_on channel=0 note=73 velocity=0 time=0.454545@note_on channel=1 note=76 velocity=0 time=0@note_on channel=2 note=67 velocity=0 time=0@note_on channel=2 note=66 velocity=100 time=0@note_on channel=3 note=61 velocity=0 time=0@note_on channel=4 note=45 velocity=0 time=0@note_on channel=4 note=47 velocity=100 time=0@note_on channel=5 note=73 velocity=0 time=0@note_on channel=6 note=76 velocity=0 time=0@note_on channel=7 note=67 velocity=0 time=0@note_on channel=7 note=66 velocity=100 time=0@note_on channel=8 note=61 velocity=0 time=0@note_on channel=10 note=45 velocity=0 time=0@note_on channel=10 note=47 velocity=100 time=0@note_on channel=2 note=66 velocity=0 time=0.454545@note_on channel=2 note=71 velocity=100 time=0@note_on channel=3 note=50 velocity=100 time=0@note_on channel=7 note=66 velocity=0 time=0@note_on channel=7 note=71 velocity=100 time=0@note_on channel=8 note=50 velocity=100 time=0@note_on channel=0 note=71 velocity=100 time=0.454545@note_on channel=1 note=74 velocity=100 time=0@note_on channel=2 note=71 velocity=0 time=0@note_on channel=2 note=69 velocity=100 time=0@note_on channel=3 note=50 velocity=0 time=0@note_on channel=3 note=54 velocity=100 time=0@note_on channel=5 note=71 velocity=100 time=0@note_on channel=6 note=74 velocity=100 time=0@note_on channel=7 note=71 velocity=0 time=0@note_on channel=7 note=69 velocity=100 time=0@note_on channel=8 note=50 velocity=0 time=0@note_on channel=8 note=54 velocity=100 time=0@note_on channel=2 note=69 velocity=0 time=0.454545@note_on channel=2 note=67 velocity=100 time=0@note_on channel=3 note=54 velocity=0 time=0@note_on channel=3 note=59 velocity=100 time=0@note_on channel=7 note=69 velocity=0 time=0@note_on channel=7 note=67 velocity=100 time=0@note_on channel=8 note=54 velocity=0 time=0@note_on channel=8 note=59 velocity=100 time=0@note_on channel=0 note=71 velocity=0 time=0.454545@note_on channel=0 note=74 velocity=100 time=0@note_on channel=1 note=74 velocity=0 time=0@note_on channel=1 note=78 velocity=100 time=0@note_on channel=2 note=67 velocity=0 time=0@note_on channel=2 note=69 velocity=100 time=0@note_on channel=3 note=59 velocity=0 time=0@note_on channel=4 note=47 velocity=0 time=0@note_on channel=4 note=42 velocity=100 time=0@note_on channel=5 note=71 velocity=0 time=0@note_on channel=5 note=74 velocity=100 time=0@note_on channel=6 note=74 velocity=0 time=0@note_on channel=6 note=78 velocity=100 time=0@note_on channel=7 note=67 velocity=0 time=0@note_on channel=7 note=69 velocity=100 time=0@note_on channel=8 note=59 velocity=0 time=0@note_on channel=10 note=47 velocity=0 time=0@note_on channel=10 note=42 velocity=100 time=0@note_on channel=2 note=69 velocity=0 time=0.454545@note_on channel=2 note=67 velocity=100 time=0@note_on channel=3 note=49 velocity=100 time=0@note_on channel=7 note=69 velocity=0 time=0@note_on channel=7 note=67 velocity=100 time=0@note_on channel=8 note=49 velocity=100 time=0@note_on channel=2 note=67 velocity=0 time=0.454545@note_on channel=2 note=66 velocity=100 time=0@note_on channel=3 note=49 velocity=0 time=0@note_on channel=3 note=54 velocity=100 time=0@note_on channel=7 note=67 velocity=0 time=0@note_on channel=7 note=66 velocity=100 time=0@note_on channel=8 note=49 velocity=0 time=0@note_on channel=8 note=54 velocity=100 time=0@note_on channel=2 note=66 velocity=0 time=0.454545@note_on channel=2 note=64 velocity=100 time=0@note_on channel=3 note=54 velocity=0 time=0@note_on channel=3 note=57 velocity=100 time=0@note_on channel=7 note=66 velocity=0 time=0@note_on channel=7 note=64 velocity=100 time=0@note_on channel=8 note=54 velocity=0 time=0@note_on channel=8 note=57 velocity=100 time=0@note_on channel=0 note=74 velocity=0 time=0.454545@note_on channel=0 note=74 velocity=100 time=0@note_on channel=1 note=78 velocity=0 time=0@note_on channel=1 note=83 velocity=100 time=0@note_on channel=2 note=64 velocity=0 time=0@note_on channel=2 note=62 velocity=100 time=0@note_on channel=3 note=57 velocity=0 time=0@note_on channel=4 note=42 velocity=0 time=0@note_on channel=4 note=43 velocity=100 time=0@note_on channel=5 note=74 velocity=0 time=0@note_on channel=5 note=74 velocity=100 time=0@note_on channel=6 note=78 velocity=0 time=0@note_on channel=6 note=83 velocity=100 time=0@note_on channel=7 note=64 velocity=0 time=0@note_on channel=7 note=62 velocity=100 time=0@note_on channel=8 note=57 velocity=0 time=0@note_on channel=10 note=42 velocity=0 time=0@note_on channel=10 note=43 velocity=100 time=0@note_on channel=2 note=62 velocity=0 time=0.454545@note_on channel=2 note=59 velocity=100 time=0@note_on channel=3 note=47 velocity=100 time=0@note_on channel=7 note=62 velocity=0 time=0@note_on channel=7 note=59 velocity=100 time=0@note_on channel=8 note=47 velocity=100 time=0@note_on channel=2 note=59 velocity=0 time=0.454545@note_on channel=2 note=71 velocity=100 time=0@note_on channel=3 note=47 velocity=0 time=0@note_on channel=3 note=50 velocity=100 time=0@note_on channel=7 note=59 velocity=0 time=0@note_on channel=7 note=71 velocity=100 time=0@note_on channel=8 note=47 velocity=0 time=0@note_on channel=8 note=50 velocity=100 time=0@note_on channel=2 note=71 velocity=0 time=0.454545@note_on channel=2 note=73 velocity=100 time=0@note_on channel=3 note=50 velocity=0 time=0@note_on channel=3 note=55 velocity=100 time=0@note_on channel=7 note=71 velocity=0 time=0@note_on channel=7 note=73 velocity=100 time=0@note_on channel=8 note=50 velocity=0 time=0@note_on channel=8 note=55 velocity=100 time=0@note_on channel=0 note=74 velocity=0 time=0.454545@note_on channel=1 note=83 velocity=0 time=0@note_on channel=1 note=81 velocity=100 time=0@note_on channel=2 note=73 velocity=0 time=0@note_on channel=2 note=74 velocity=100 time=0@note_on channel=3 note=55 velocity=0 time=0@note_on channel=4 note=43 velocity=0 time=0@note_on channel=4 note=38 velocity=100 time=0@note_on channel=5 note=74 velocity=0 time=0@note_on channel=6 note=83 velocity=0 time=0@note_on channel=6 note=81 velocity=100 time=0@note_on channel=7 note=73 velocity=0 time=0@note_on channel=7 note=74 velocity=100 time=0@note_on channel=8 note=55 velocity=0 time=0@note_on channel=10 note=43 velocity=0 time=0@note_on channel=10 note=38 velocity=100 time=0@note_on channel=2 note=74 velocity=0 time=0.41666625@note_on channel=7 note=74 velocity=0 time=0@note_on channel=2 note=73 velocity=100 time=0.03787875@note_on channel=3 note=54 velocity=100 time=0@note_on channel=7 note=73 velocity=100 time=0@note_on channel=8 note=54 velocity=100 time=0@note_on channel=2 note=73 velocity=0 time=0.41666625@note_on channel=7 note=73 velocity=0 time=0@note_on channel=0 note=74 velocity=100 time=0.03787875@note_on channel=2 note=71 velocity=100 time=0@note_on channel=3 note=54 velocity=0 time=0@note_on channel=3 note=57 velocity=100 time=0@note_on channel=5 note=74 velocity=100 time=0@note_on channel=7 note=71 velocity=100 time=0@note_on channel=8 note=54 velocity=0 time=0@note_on channel=8 note=57 velocity=100 time=0@note_on channel=2 note=71 velocity=0 time=0.41666625@note_on channel=7 note=71 velocity=0 time=0@note_on channel=2 note=69 velocity=100 time=0.03787875@note_on channel=3 note=57 velocity=0 time=0@note_on channel=3 note=62 velocity=100 time=0@note_on channel=7 note=69 velocity=100 time=0@note_on channel=8 note=57 velocity=0 time=0@note_on channel=8 note=62 velocity=100 time=0@note_on channel=2 note=69 velocity=0 time=0.41666625@note_on channel=7 note=69 velocity=0 time=0@note_on channel=0 note=74 velocity=0 time=0.03787875@note_on channel=0 note=74 velocity=100 time=0@control_change channel=0 control=7 value=65 time=0@note_on channel=1 note=81 velocity=0 time=0@note_on channel=1 note=83 velocity=100 time=0@control_change channel=1 control=7 value=65 time=0@control_change channel=2 control=7 value=65 time=0@note_on channel=3 note=62 velocity=0 time=0@control_change channel=3 control=7 value=65 time=0@note_on channel=4 note=38 velocity=0 time=0@note_on channel=4 note=43 velocity=100 time=0@control_change channel=4 control=7 value=65 time=0@note_on channel=5 note=74 velocity=0 time=0@note_on channel=5 note=74 velocity=100 time=0@control_change channel=5 control=7 value=65 time=0@note_on channel=6 note=81 velocity=0 time=0@note_on channel=6 note=83 velocity=100 time=0@control_change channel=6 control=7 value=65 time=0@control_change channel=7 control=7 value=65 time=0@note_on channel=8 note=62 velocity=0 time=0@control_change channel=8 control=7 value=65 time=0@note_on channel=10 note=38 velocity=0 time=0@note_on channel=10 note=43 velocity=100 time=0@control_change channel=10 control=7 value=65 time=0@note_on channel=2 note=66 velocity=100 time=0.454545@note_on channel=3 note=52 velocity=100 time=0@note_on channel=7 note=66 velocity=100 time=0@note_on channel=8 note=52 velocity=100 time=0@note_on channel=0 note=74 velocity=0 time=0.454545@note_on channel=0 note=79 velocity=100 time=0@control_change channel=0 control=7 value=70 time=0@control_change channel=1 control=7 value=70 time=0@note_on channel=2 note=66 velocity=0 time=0@note_on channel=2 note=64 velocity=100 time=0@control_change channel=2 control=7 value=70 time=0@note_on channel=3 note=52 velocity=0 time=0@note_on channel=3 note=59 velocity=100 time=0@control_change channel=3 control=7 value=70 time=0@control_change channel=4 control=7 value=70 time=0@note_on channel=5 note=74 velocity=0 time=0@note_on channel=5 note=79 velocity=100 time=0@control_change channel=5 control=7 value=70 time=0@control_change channel=6 control=7 value=70 time=0@note_on channel=7 note=66 velocity=0 time=0@note_on channel=7 note=64 velocity=100 time=0@control_change channel=7 control=7 value=70 time=0@note_on channel=8 note=52 velocity=0 time=0@note_on channel=8 note=59 velocity=100 time=0@control_change channel=8 control=7 value=70 time=0@control_change channel=10 control=7 value=70 time=0@note_on channel=2 note=64 velocity=0 time=0.454545@note_on channel=2 note=71 velocity=100 time=0@note_on channel=3 note=59 velocity=0 time=0@note_on channel=3 note=62 velocity=100 time=0@note_on channel=7 note=64 velocity=0 time=0@note_on channel=7 note=71 velocity=100 time=0@note_on channel=8 note=59 velocity=0 time=0@note_on channel=8 note=62 velocity=100 time=0@note_on channel=0 note=79 velocity=0 time=0.454545@note_on channel=0 note=76 velocity=100 time=0@control_change channel=0 control=7 value=75 time=0@note_on channel=1 note=83 velocity=0 time=0@note_on channel=1 note=85 velocity=100 time=0@control_change channel=1 control=7 value=75 time=0@note_on channel=2 note=71 velocity=0 time=0@control_change channel=2 control=7 value=75 time=0@note_on channel=3 note=62 velocity=0 time=0@control_change channel=3 control=7 value=75 time=0@note_on channel=4 note=43 velocity=0 time=0@note_on channel=4 note=45 velocity=100 time=0@control_change channel=4 control=7 value=75 time=0@note_on channel=5 note=79 velocity=0 time=0@note_on channel=5 note=76 velocity=100 time=0@control_change channel=5 control=7 value=75 time=0@note_on channel=6 note=83 velocity=0 time=0@note_on channel=6 note=85 velocity=100 time=0@control_change channel=6 control=7 value=75 time=0@note_on channel=7 note=71 velocity=0 time=0@control_change channel=7 control=7 value=75 time=0@note_on channel=8 note=62 velocity=0 time=0@control_change channel=8 control=7 value=75 time=0@note_on channel=10 note=43 velocity=0 time=0@note_on channel=10 note=45 velocity=100 time=0@control_change channel=10 control=7 value=75 time=0@note_on channel=2 note=71 velocity=100 time=0.454545@note_on channel=3 note=52 velocity=100 time=0@note_on channel=7 note=71 velocity=100 time=0@note_on channel=8 note=52 velocity=100 time=0@note_on channel=0 note=76 velocity=0 time=0.454545@note_on channel=0 note=81 velocity=100 time=0@control_change channel=0 control=7 value=80 time=0@control_change channel=1 control=7 value=80 time=0@note_on channel=2 note=71 velocity=0 time=0@note_on channel=2 note=69 velocity=100 time=0@control_change channel=2 control=7 value=80 time=0@note_on channel=3 note=52 velocity=0 time=0@note_on channel=3 note=57 velocity=100 time=0@control_change channel=3 control=7 value=80 time=0@control_change channel=4 control=7 value=80 time=0@note_on channel=5 note=76 velocity=0 time=0@note_on channel=5 note=81 velocity=100 time=0@control_change channel=5 control=7 value=80 time=0@control_change channel=6 control=7 value=80 time=0@note_on channel=7 note=71 velocity=0 time=0@note_on channel=7 note=69 velocity=100 time=0@control_change channel=7 control=7 value=80 time=0@note_on channel=8 note=52 velocity=0 time=0@note_on channel=8 note=57 velocity=100 time=0@control_change channel=8 control=7 value=80 time=0@control_change channel=10 control=7 value=80 time=0@note_on channel=2 note=69 velocity=0 time=0.454545@note_on channel=2 note=67 velocity=100 time=0@note_on channel=3 note=57 velocity=0 time=0@note_on channel=3 note=61 velocity=100 time=0@note_on channel=7 note=69 velocity=0 time=0@note_on channel=7 note=67 velocity=100 time=0@note_on channel=8 note=57 velocity=0 time=0@note_on channel=8 note=61 velocity=100 time=0@note_on channel=0 note=81 velocity=0 time=0.454545@note_on channel=0 note=81 velocity=100 time=0@note_on channel=1 note=85 velocity=0 time=0@note_on channel=1 note=86 velocity=100 time=0@note_on channel=2 note=67 velocity=0 time=0@note_on channel=2 note=66 velocity=100 time=0@note_on channel=3 note=61 velocity=0 time=0@note_on channel=4 note=45 velocity=0 time=0@note_on channel=4 note=50 velocity=100 time=0@note_on channel=5 note=81 velocity=0 time=0@note_on channel=5 note=81 velocity=100 time=0@note_on channel=6 note=85 velocity=0 time=0@note_on channel=6 note=86 velocity=100 time=0@note_on channel=7 note=67 velocity=0 time=0@note_on channel=7 note=66 velocity=100 time=0@note_on channel=8 note=61 velocity=0 time=0@note_on channel=10 note=45 velocity=0 time=0@note_on channel=10 note=50 velocity=100 time=0@note_on channel=0 note=81 velocity=0 time=0.454545@note_on channel=0 note=78 velocity=100 time=0@note_on channel=1 note=86 velocity=0 time=0@note_on channel=3 note=57 velocity=100 time=0@note_on channel=5 note=81 velocity=0 time=0@note_on channel=5 note=78 velocity=100 time=0@note_on channel=6 note=86 velocity=0 time=0@note_on channel=8 note=57 velocity=100 time=0@note_on channel=0 note=78 velocity=0 time=0.2272725@note_on channel=0 note=79 velocity=100 time=0@note_on channel=5 note=78 velocity=0 time=0@note_on channel=5 note=79 velocity=100 time=0@note_on channel=0 note=79 velocity=0 time=0.2272725@note_on channel=0 note=81 velocity=100 time=0@note_on channel=1 note=74 velocity=100 time=0@note_on channel=2 note=66 velocity=0 time=0@note_on channel=2 note=78 velocity=100 time=0@note_on channel=3 note=57 velocity=0 time=0@note_on channel=3 note=62 velocity=100 time=0@note_on channel=5 note=79 velocity=0 time=0@note_on channel=5 note=81 velocity=100 time=0@note_on channel=6 note=74 velocity=100 time=0@note_on channel=7 note=66 velocity=0 time=0@note_on channel=7 note=78 velocity=100 time=0@note_on channel=8 note=57 velocity=0 time=0@note_on channel=8 note=62 velocity=100 time=0@note_on channel=0 note=81 velocity=0 time=0.454545@note_on channel=0 note=78 velocity=100 time=0@note_on channel=3 note=62 velocity=0 time=0@note_on channel=3 note=66 velocity=100 time=0@note_on channel=5 note=81 velocity=0 time=0@note_on channel=5 note=78 velocity=100 time=0@note_on channel=8 note=62 velocity=0 time=0@note_on channel=8 note=66 velocity=100 time=0@note_on channel=0 note=78 velocity=0 time=0.2272725@note_on channel=0 note=79 velocity=100 time=0@note_on channel=5 note=78 velocity=0 time=0@note_on channel=5 note=79 velocity=100 time=0@note_on channel=0 note=79 velocity=0 time=0.2272725@note_on channel=0 note=81 velocity=100 time=0@note_on channel=1 note=74 velocity=0 time=0@note_on channel=1 note=76 velocity=100 time=0@note_on channel=2 note=78 velocity=0 time=0@note_on channel=3 note=66 velocity=0 time=0@note_on channel=4 note=50 velocity=0 time=0@note_on channel=4 note=45 velocity=100 time=0@note_on channel=5 note=79 velocity=0 time=0@note_on channel=5 note=81 velocity=100 time=0@note_on channel=6 note=74 velocity=0 time=0@note_on channel=6 note=76 velocity=100 time=0@note_on channel=7 note=78 velocity=0 time=0@note_on channel=8 note=66 velocity=0 time=0@note_on channel=10 note=50 velocity=0 time=0@note_on channel=10 note=45 velocity=100 time=0@note_on channel=0 note=81 velocity=0 time=0.2272725@note_on channel=0 note=69 velocity=100 time=0@note_on channel=5 note=81 velocity=0 time=0@note_on channel=5 note=69 velocity=100 time=0@note_on channel=0 note=69 velocity=0 time=0.2272725@note_on channel=0 note=71 velocity=100 time=0@note_on channel=1 note=76 velocity=0 time=0@note_on channel=1 note=71 velocity=100 time=0@note_on channel=3 note=52 velocity=100 time=0@note_on channel=5 note=69 velocity=0 time=0@note_on channel=5 note=71 velocity=100 time=0@note_on channel=6 note=76 velocity=0 time=0@note_on channel=6 note=71 velocity=100 time=0@note_on channel=8 note=52 velocity=100 time=0@note_on channel=0 note=71 velocity=0 time=0.2272725@note_on channel=0 note=73 velocity=100 time=0@note_on channel=1 note=71 velocity=0 time=0@note_on channel=1 note=73 velocity=100 time=0@note_on channel=5 note=71 velocity=0 time=0@note_on channel=5 note=73 velocity=100 time=0@note_on channel=6 note=71 velocity=0 time=0@note_on channel=6 note=73 velocity=100 time=0@note_on channel=0 note=73 velocity=0 time=0.2272725@note_on channel=0 note=74 velocity=100 time=0@note_on channel=1 note=73 velocity=0 time=0@note_on channel=1 note=74 velocity=100 time=0@note_on channel=3 note=52 velocity=0 time=0@note_on channel=3 note=57 velocity=100 time=0@note_on channel=5 note=73 velocity=0 time=0@note_on channel=5 note=74 velocity=100 time=0@note_on channel=6 note=73 velocity=0 time=0@note_on channel=6 note=74 velocity=100 time=0@note_on channel=8 note=52 velocity=0 time=0@note_on channel=8 note=57 velocity=100 time=0@note_on channel=0 note=74 velocity=0 time=0.2272725@note_on channel=0 note=76 velocity=100 time=0@note_on channel=1 note=74 velocity=0 time=0@note_on channel=1 note=73 velocity=100 time=0@note_on channel=5 note=74 velocity=0 time=0@note_on channel=5 note=76 velocity=100 time=0@note_on channel=6 note=74 velocity=0 time=0@note_on channel=6 note=73 velocity=100 time=0@note_on channel=0 note=76 velocity=0 time=0.2272725@note_on channel=0 note=78 velocity=100 time=0@note_on channel=3 note=57 velocity=0 time=0@note_on channel=3 note=61 velocity=100 time=0@note_on channel=5 note=76 velocity=0 time=0@note_on channel=5 note=78 velocity=100 time=0@note_on channel=8 note=57 velocity=0 time=0@note_on channel=8 note=61 velocity=100 time=0@note_on channel=0 note=78 velocity=0 time=0.2272725@note_on channel=0 note=79 velocity=100 time=0@note_on channel=5 note=78 velocity=0 time=0@note_on channel=5 note=79 velocity=100 time=0@note_on channel=0 note=79 velocity=0 time=0.2272725@note_on channel=0 note=78 velocity=100 time=0@note_on channel=1 note=73 velocity=0 time=0@note_on channel=3 note=61 velocity=0 time=0@note_on channel=4 note=45 velocity=0 time=0@note_on channel=4 note=47 velocity=100 time=0@note_on channel=5 note=79 velocity=0 time=0@note_on channel=5 note=78 velocity=100 time=0@note_on channel=6 note=73 velocity=0 time=0@note_on channel=8 note=61 velocity=0 time=0@note_on channel=10 note=45 velocity=0 time=0@note_on channel=10 note=47 velocity=100 time=0@note_on channel=0 note=78 velocity=0 time=0.454545@note_on channel=0 note=74 velocity=100 time=0@note_on channel=3 note=50 velocity=100 time=0@note_on channel=5 note=78 velocity=0 time=0@note_on channel=5 note=74 velocity=100 time=0@note_on channel=8 note=50 velocity=100 time=0@note_on channel=0 note=74 velocity=0 time=0.2272725@note_on channel=0 note=76 velocity=100 time=0@note_on channel=5 note=74 velocity=0 time=0@note_on channel=5 note=76 velocity=100 time=0@note_on channel=0 note=76 velocity=0 time=0.2272725@note_on channel=0 note=78 velocity=100 time=0@note_on channel=1 note=71 velocity=100 time=0@note_on channel=2 note=74 velocity=100 time=0@note_on channel=3 note=50 velocity=0 time=0@note_on channel=3 note=54 velocity=100 time=0@note_on channel=5 note=76 velocity=0 time=0@note_on channel=5 note=78 velocity=100 time=0@note_on channel=6 note=71 velocity=100 time=0@note_on channel=7 note=74 velocity=100 time=0@note_on channel=8 note=50 velocity=0 time=0@note_on channel=8 note=54 velocity=100 time=0@note_on channel=0 note=78 velocity=0 time=0.454545@note_on channel=0 note=66 velocity=100 time=0@note_on channel=3 note=54 velocity=0 time=0@note_on channel=3 note=59 velocity=100 time=0@note_on channel=5 note=78 velocity=0 time=0@note_on channel=5 note=66 velocity=100 time=0@note_on channel=8 note=54 velocity=0 time=0@note_on channel=8 note=59 velocity=100 time=0@note_on channel=0 note=66 velocity=0 time=0.2272725@note_on channel=0 note=67 velocity=100 time=0@note_on channel=5 note=66 velocity=0 time=0@note_on channel=5 note=67 velocity=100 time=0@note_on channel=0 note=67 velocity=0 time=0.2272725@note_on channel=0 note=69 velocity=100 time=0@note_on channel=1 note=71 velocity=0 time=0@note_on channel=1 note=74 velocity=100 time=0@note_on channel=2 note=74 velocity=0 time=0@note_on channel=2 note=78 velocity=100 time=0@note_on channel=3 note=59 velocity=0 time=0@note_on channel=4 note=47 velocity=0 time=0@note_on channel=4 note=42 velocity=100 time=0@note_on channel=5 note=67 velocity=0 time=0@note_on channel=5 note=69 velocity=100 time=0@note_on channel=6 note=71 velocity=0 time=0@note_on channel=6 note=74 velocity=100 time=0@note_on channel=7 note=74 velocity=0 time=0@note_on channel=7 note=78 velocity=100 time=0@note_on channel=8 note=59 velocity=0 time=0@note_on channel=10 note=47 velocity=0 time=0@note_on channel=10 note=42 velocity=100 time=0@note_on channel=0 note=69 velocity=0 time=0.2272725@note_on channel=0 note=71 velocity=100 time=0@note_on channel=5 note=69 velocity=0 time=0@note_on channel=5 note=71 velocity=100 time=0@note_on channel=0 note=71 velocity=0 time=0.2272725@note_on channel=0 note=69 velocity=100 time=0@note_on channel=3 note=49 velocity=100 time=0@note_on channel=5 note=71 velocity=0 time=0@note_on channel=5 note=69 velocity=100 time=0@note_on channel=8 note=49 velocity=100 time=0@note_on channel=0 note=69 velocity=0 time=0.2272725@note_on channel=0 note=67 velocity=100 time=0@note_on channel=5 note=69 velocity=0 time=0@note_on channel=5 note=67 velocity=100 time=0@note_on channel=0 note=67 velocity=0 time=0.2272725@note_on channel=0 note=69 velocity=100 time=0@note_on channel=3 note=49 velocity=0 time=0@note_on channel=3 note=54 velocity=100 time=0@note_on channel=5 note=67 velocity=0 time=0@note_on channel=5 note=69 velocity=100 time=0@note_on channel=8 note=49 velocity=0 time=0@note_on channel=8 note=54 velocity=100 time=0@note_on channel=0 note=69 velocity=0 time=0.2272725@note_on channel=0 note=66 velocity=100 time=0@note_on channel=5 note=69 velocity=0 time=0@note_on channel=5 note=66 velocity=100 time=0@note_on channel=0 note=66 velocity=0 time=0.2272725@note_on channel=0 note=67 velocity=100 time=0@note_on channel=3 note=54 velocity=0 time=0@note_on channel=3 note=57 velocity=100 time=0@note_on channel=5 note=66 velocity=0 time=0@note_on channel=5 note=67 velocity=100 time=0@note_on channel=8 note=54 velocity=0 time=0@note_on channel=8 note=57 velocity=100 time=0@note_on channel=0 note=67 velocity=0 time=0.2272725@note_on channel=0 note=69 velocity=100 time=0@note_on channel=5 note=67 velocity=0 time=0@note_on channel=5 note=69 velocity=100 time=0@note_on channel=0 note=69 velocity=0 time=0.2272725@note_on channel=1 note=74 velocity=0 time=0@note_on channel=1 note=74 velocity=100 time=0@note_on channel=2 note=78 velocity=0 time=0@note_on channel=2 note=83 velocity=100 time=0@note_on channel=3 note=57 velocity=0 time=0@note_on channel=4 note=42 velocity=0 time=0@note_on channel=4 note=43 velocity=100 time=0@note_on channel=5 note=69 velocity=0 time=0@note_on channel=6 note=74 velocity=0 time=0@note_on channel=6 note=74 velocity=100 time=0@note_on channel=7 note=78 velocity=0 time=0@note_on channel=7 note=83 velocity=100 time=0@note_on channel=8 note=57 velocity=0 time=0@note_on channel=10 note=42 velocity=0 time=0@note_on channel=10 note=43 velocity=100 time=0@note_on channel=0 note=71 velocity=100 time=0.454545@note_on channel=3 note=47 velocity=100 time=0@note_on channel=5 note=71 velocity=100 time=0@note_on channel=8 note=47 velocity=100 time=0@note_on channel=0 note=71 velocity=0 time=0.2272725@note_on channel=0 note=69 velocity=100 time=0@note_on channel=5 note=71 velocity=0 time=0@note_on channel=5 note=69 velocity=100 time=0@note_on channel=0 note=69 velocity=0 time=0.2272725@note_on channel=0 note=67 velocity=100 time=0@note_on channel=3 note=47 velocity=0 time=0@note_on channel=3 note=50 velocity=100 time=0@note_on channel=5 note=69 velocity=0 time=0@note_on channel=5 note=67 velocity=100 time=0@note_on channel=8 note=47 velocity=0 time=0@note_on channel=8 note=50 velocity=100 time=0@note_on channel=0 note=67 velocity=0 time=0.454545@note_on channel=0 note=66 velocity=100 time=0@note_on channel=3 note=50 velocity=0 time=0@note_on channel=3 note=55 velocity=100 time=0@note_on channel=5 note=67 velocity=0 time=0@note_on channel=5 note=66 velocity=100 time=0@note_on channel=8 note=50 velocity=0 time=0@note_on channel=8 note=55 velocity=100 time=0@note_on channel=0 note=66 velocity=0 time=0.2272725@note_on channel=0 note=64 velocity=100 time=0@note_on channel=5 note=66 velocity=0 time=0@note_on channel=5 note=64 velocity=100 time=0@note_on channel=0 note=64 velocity=0 time=0.2272725@note_on channel=0 note=66 velocity=100 time=0@note_on channel=1 note=74 velocity=0 time=0@note_on channel=1 note=74 velocity=100 time=0@note_on channel=2 note=83 velocity=0 time=0@note_on channel=2 note=81 velocity=100 time=0@note_on channel=3 note=55 velocity=0 time=0@note_on channel=4 note=43 velocity=0 time=0@note_on channel=4 note=38 velocity=100 time=0@note_on channel=5 note=64 velocity=0 time=0@note_on channel=5 note=66 velocity=100 time=0@note_on channel=6 note=74 velocity=0 time=0@note_on channel=6 note=74 velocity=100 time=0@note_on channel=7 note=83 velocity=0 time=0@note_on channel=7 note=81 velocity=100 time=0@note_on channel=8 note=55 velocity=0 time=0@note_on channel=10 note=43 velocity=0 time=0@note_on channel=10 note=38 velocity=100 time=0@note_on channel=0 note=66 velocity=0 time=0.2272725@note_on channel=0 note=64 velocity=100 time=0@note_on channel=5 note=66 velocity=0 time=0@note_on channel=5 note=64 velocity=100 time=0@note_on channel=0 note=64 velocity=0 time=0.2272725@note_on channel=0 note=62 velocity=100 time=0@note_on channel=3 note=54 velocity=100 time=0@note_on channel=5 note=64 velocity=0 time=0@note_on channel=5 note=62 velocity=100 time=0@note_on channel=8 note=54 velocity=100 time=0@note_on channel=0 note=62 velocity=0 time=0.2272725@note_on channel=0 note=64 velocity=100 time=0@note_on channel=5 note=62 velocity=0 time=0@note_on channel=5 note=64 velocity=100 time=0@note_on channel=0 note=64 velocity=0 time=0.2272725@note_on channel=0 note=66 velocity=100 time=0@note_on channel=1 note=74 velocity=0 time=0@note_on channel=1 note=74 velocity=100 time=0@note_on channel=2 note=81 velocity=0 time=0@note_on channel=2 note=81 velocity=100 time=0@note_on channel=3 note=54 velocity=0 time=0@note_on channel=3 note=57 velocity=100 time=0@note_on channel=5 note=64 velocity=0 time=0@note_on channel=5 note=66 velocity=100 time=0@note_on channel=6 note=74 velocity=0 time=0@note_on channel=6 note=74 velocity=100 time=0@note_on channel=7 note=81 velocity=0 time=0@note_on channel=7 note=81 velocity=100 time=0@note_on channel=8 note=54 velocity=0 time=0@note_on channel=8 note=57 velocity=100 time=0@note_on channel=0 note=66 velocity=0 time=0.2272725@note_on channel=0 note=67 velocity=100 time=0@note_on channel=5 note=66 velocity=0 time=0@note_on channel=5 note=67 velocity=100 time=0@note_on channel=0 note=67 velocity=0 time=0.2272725@note_on channel=0 note=69 velocity=100 time=0@note_on channel=3 note=57 velocity=0 time=0@note_on channel=3 note=62 velocity=100 time=0@note_on channel=5 note=67 velocity=0 time=0@note_on channel=5 note=69 velocity=100 time=0@note_on channel=8 note=57 velocity=0 time=0@note_on channel=8 note=62 velocity=100 time=0@note_on channel=0 note=69 velocity=0 time=0.2272725@note_on channel=0 note=71 velocity=100 time=0@note_on channel=5 note=69 velocity=0 time=0@note_on channel=5 note=71 velocity=100 time=0@note_on channel=0 note=71 velocity=0 time=0.2272725@note_on channel=0 note=67 velocity=100 time=0@control_change channel=0 control=7 value=85 time=0@note_on channel=1 note=74 velocity=0 time=0@note_on channel=1 note=74 velocity=100 time=0@control_change channel=1 control=7 value=85 time=0@note_on channel=2 note=81 velocity=0 time=0@note_on channel=2 note=83 velocity=100 time=0@control_change channel=2 control=7 value=85 time=0@note_on channel=3 note=62 velocity=0 time=0@control_change channel=3 control=7 value=85 time=0@note_on channel=4 note=38 velocity=0 time=0@note_on channel=4 note=43 velocity=100 time=0@control_change channel=4 control=7 value=85 time=0@note_on channel=5 note=71 velocity=0 time=0@note_on channel=5 note=67 velocity=100 time=0@control_change channel=5 control=7 value=85 time=0@note_on channel=6 note=74 velocity=0 time=0@note_on channel=6 note=74 velocity=100 time=0@control_change channel=6 control=7 value=85 time=0@note_on channel=7 note=81 velocity=0 time=0@note_on channel=7 note=83 velocity=100 time=0@control_change channel=7 control=7 value=85 time=0@note_on channel=8 note=62 velocity=0 time=0@control_change channel=8 control=7 value=85 time=0@note_on channel=10 note=38 velocity=0 time=0@note_on channel=10 note=43 velocity=100 time=0@control_change channel=10 control=7 value=85 time=0@note_on channel=0 note=67 velocity=0 time=0.454545@note_on channel=0 note=71 velocity=100 time=0@note_on channel=3 note=52 velocity=100 time=0@note_on channel=5 note=67 velocity=0 time=0@note_on channel=5 note=71 velocity=100 time=0@note_on channel=8 note=52 velocity=100 time=0@note_on channel=0 note=71 velocity=0 time=0.2272725@note_on channel=0 note=69 velocity=100 time=0@note_on channel=5 note=71 velocity=0 time=0@note_on channel=5 note=69 velocity=100 time=0@note_on channel=0 note=69 velocity=0 time=0.2272725@note_on channel=0 note=71 velocity=100 time=0@control_change channel=0 control=7 value=90 time=0@note_on channel=1 note=74 velocity=0 time=0@note_on channel=1 note=79 velocity=100 time=0@control_change channel=1 control=7 value=90 time=0@control_change channel=2 control=7 value=90 time=0@note_on channel=3 note=52 velocity=0 time=0@note_on channel=3 note=59 velocity=100 time=0@control_change channel=3 control=7 value=90 time=0@control_change channel=4 control=7 value=90 time=0@note_on channel=5 note=69 velocity=0 time=0@note_on channel=5 note=71 velocity=100 time=0@control_change channel=5 control=7 value=90 time=0@note_on channel=6 note=74 velocity=0 time=0@note_on channel=6 note=79 velocity=100 time=0@control_change channel=6 control=7 value=90 time=0@control_change channel=7 control=7 value=90 time=0@note_on channel=8 note=52 velocity=0 time=0@note_on channel=8 note=59 velocity=100 time=0@control_change channel=8 control=7 value=90 time=0@control_change channel=10 control=7 value=90 time=0@note_on channel=0 note=71 velocity=0 time=0.454545@note_on channel=0 note=73 velocity=100 time=0@note_on channel=3 note=59 velocity=0 time=0@note_on channel=3 note=62 velocity=100 time=0@note_on channel=5 note=71 velocity=0 time=0@note_on channel=5 note=73 velocity=100 time=0@note_on channel=8 note=59 velocity=0 time=0@note_on channel=8 note=62 velocity=100 time=0@note_on channel=0 note=73 velocity=0 time=0.2272725@note_on channel=0 note=74 velocity=100 time=0@note_on channel=5 note=73 velocity=0 time=0@note_on channel=5 note=74 velocity=100 time=0@note_on channel=0 note=74 velocity=0 time=0.2272725@note_on channel=0 note=69 velocity=100 time=0@control_change channel=0 control=7 value=95 time=0@note_on channel=1 note=79 velocity=0 time=0@note_on channel=1 note=76 velocity=100 time=0@control_change channel=1 control=7 value=95 time=0@note_on channel=2 note=83 velocity=0 time=0@note_on channel=2 note=85 velocity=100 time=0@control_change channel=2 control=7 value=95 time=0@note_on channel=3 note=62 velocity=0 time=0@control_change channel=3 control=7 value=95 time=0@note_on channel=4 note=43 velocity=0 time=0@note_on channel=4 note=45 velocity=100 time=0@control_change channel=4 control=7 value=95 time=0@note_on channel=5 note=74 velocity=0 time=0@note_on channel=5 note=69 velocity=100 time=0@control_change channel=5 control=7 value=95 time=0@note_on channel=6 note=79 velocity=0 time=0@note_on channel=6 note=76 velocity=100 time=0@control_change channel=6 control=7 value=95 time=0@note_on channel=7 note=83 velocity=0 time=0@note_on channel=7 note=85 velocity=100 time=0@control_change channel=7 control=7 value=95 time=0@note_on channel=8 note=62 velocity=0 time=0@control_change channel=8 control=7 value=95 time=0@note_on channel=10 note=43 velocity=0 time=0@note_on channel=10 note=45 velocity=100 time=0@control_change channel=10 control=7 value=95 time=0@note_on channel=0 note=69 velocity=0 time=0.2272725@note_on channel=0 note=71 velocity=100 time=0@note_on channel=5 note=69 velocity=0 time=0@note_on channel=5 note=71 velocity=100 time=0@note_on channel=0 note=71 velocity=0 time=0.2272725@note_on channel=0 note=73 velocity=100 time=0@note_on channel=3 note=52 velocity=100 time=0@note_on channel=5 note=71 velocity=0 time=0@note_on channel=5 note=73 velocity=100 time=0@note_on channel=8 note=52 velocity=100 time=0@note_on channel=0 note=73 velocity=0 time=0.2272725@note_on channel=0 note=74 velocity=100 time=0@note_on channel=5 note=73 velocity=0 time=0@note_on channel=5 note=74 velocity=100 time=0@note_on channel=0 note=74 velocity=0 time=0.2272725@note_on channel=0 note=76 velocity=100 time=0@control_change channel=0 control=7 value=100 time=0@note_on channel=1 note=76 velocity=0 time=0@note_on channel=1 note=81 velocity=100 time=0@control_change channel=1 control=7 value=100 time=0@control_change channel=2 control=7 value=100 time=0@note_on channel=3 note=52 velocity=0 time=0@note_on channel=3 note=57 velocity=100 time=0@control_change channel=3 control=7 value=100 time=0@control_change channel=4 control=7 value=100 time=0@note_on channel=5 note=74 velocity=0 time=0@note_on channel=5 note=76 velocity=100 time=0@control_change channel=5 control=7 value=100 time=0@note_on channel=6 note=76 velocity=0 time=0@note_on channel=6 note=81 velocity=100 time=0@control_change channel=6 control=7 value=100 time=0@control_change channel=7 control=7 value=100 time=0@note_on channel=8 note=52 velocity=0 time=0@note_on channel=8 note=57 velocity=100 time=0@control_change channel=8 control=7 value=100 time=0@control_change channel=10 control=7 value=100 time=0@note_on channel=0 note=76 velocity=0 time=0.2272725@note_on channel=0 note=78 velocity=100 time=0@note_on channel=5 note=76 velocity=0 time=0@note_on channel=5 note=78 velocity=100 time=0@control_change channel=0 control=7 value=95 time=0.151515@control_change channel=1 control=7 value=95 time=0@control_change channel=2 control=7 value=95 time=0@control_change channel=3 control=7 value=95 time=0@control_change channel=4 control=7 value=95 time=0@control_change channel=5 control=7 value=95 time=0@control_change channel=6 control=7 value=95 time=0@control_change channel=7 control=7 value=95 time=0@control_change channel=8 control=7 value=95 time=0@control_change channel=10 control=7 value=95 time=0@note_on channel=0 note=78 velocity=0 time=0.0757575@note_on channel=0 note=79 velocity=100 time=0@note_on channel=3 note=57 velocity=0 time=0@note_on channel=3 note=61 velocity=100 time=0@note_on channel=5 note=78 velocity=0 time=0@note_on channel=5 note=79 velocity=100 time=0@note_on channel=8 note=57 velocity=0 time=0@note_on channel=8 note=61 velocity=100 time=0@note_on channel=0 note=79 velocity=0 time=0.2272725@note_on channel=0 note=81 velocity=100 time=0@note_on channel=5 note=79 velocity=0 time=0@note_on channel=5 note=81 velocity=100 time=0@note_on channel=0 note=81 velocity=0 time=0.2272725@note_on channel=0 note=78 velocity=100 time=0@control_change channel=0 control=7 value=100 time=0@note_on channel=1 note=81 velocity=0 time=0@note_on channel=1 note=81 velocity=100 time=0@control_change channel=1 control=7 value=100 time=0@note_on channel=2 note=85 velocity=0 time=0@note_on channel=2 note=86 velocity=100 time=0@control_change channel=2 control=7 value=100 time=0@note_on channel=3 note=61 velocity=0 time=0@control_change channel=3 control=7 value=100 time=0@note_on channel=4 note=45 velocity=0 time=0@note_on channel=4 note=50 velocity=100 time=0@control_change channel=4 control=7 value=100 time=0@note_on channel=5 note=81 velocity=0 time=0@note_on channel=5 note=78 velocity=100 time=0@control_change channel=5 control=7 value=100 time=0@note_on channel=6 note=81 velocity=0 time=0@note_on channel=6 note=81 velocity=100 time=0@control_change channel=6 control=7 value=100 time=0@note_on channel=7 note=85 velocity=0 time=0@note_on channel=7 note=86 velocity=100 time=0@control_change channel=7 control=7 value=100 time=0@note_on channel=8 note=61 velocity=0 time=0@control_change channel=8 control=7 value=100 time=0@note_on channel=10 note=45 velocity=0 time=0@note_on channel=10 note=50 velocity=100 time=0@control_change channel=10 control=7 value=100 time=0@note_on channel=0 note=78 velocity=0 time=0.454545@note_on channel=0 note=74 velocity=100 time=0@note_on channel=1 note=81 velocity=0 time=0@note_on channel=1 note=78 velocity=100 time=0@note_on channel=3 note=57 velocity=100 time=0@note_on channel=5 note=78 velocity=0 time=0@note_on channel=5 note=74 velocity=100 time=0@note_on channel=6 note=81 velocity=0 time=0@note_on channel=6 note=78 velocity=100 time=0@note_on channel=8 note=57 velocity=100 time=0@note_on channel=0 note=74 velocity=0 time=0.2272725@note_on channel=0 note=76 velocity=100 time=0@note_on channel=1 note=78 velocity=0 time=0@note_on channel=1 note=79 velocity=100 time=0@note_on channel=5 note=74 velocity=0 time=0@note_on channel=5 note=76 velocity=100 time=0@note_on channel=6 note=78 velocity=0 time=0@note_on channel=6 note=79 velocity=100 time=0@note_on channel=0 note=76 velocity=0 time=0.2272725@note_on channel=0 note=78 velocity=100 time=0@note_on channel=1 note=79 velocity=0 time=0@note_on channel=1 note=81 velocity=100 time=0@note_on channel=2 note=86 velocity=0 time=0@note_on channel=2 note=74 velocity=100 time=0@note_on channel=3 note=57 velocity=0 time=0@note_on channel=3 note=62 velocity=100 time=0@note_on channel=5 note=76 velocity=0 time=0@note_on channel=5 note=78 velocity=100 time=0@note_on channel=6 note=79 velocity=0 time=0@note_on channel=6 note=81 velocity=100 time=0@note_on channel=7 note=86 velocity=0 time=0@note_on channel=7 note=74 velocity=100 time=0@note_on channel=8 note=57 velocity=0 time=0@note_on channel=8 note=62 velocity=100 time=0@note_on channel=0 note=78 velocity=0 time=0.454545@note_on channel=0 note=76 velocity=100 time=0@note_on channel=1 note=81 velocity=0 time=0@note_on channel=1 note=78 velocity=100 time=0@note_on channel=3 note=62 velocity=0 time=0@note_on channel=3 note=66 velocity=100 time=0@note_on channel=5 note=78 velocity=0 time=0@note_on channel=5 note=76 velocity=100 time=0@note_on channel=6 note=81 velocity=0 time=0@note_on channel=6 note=78 velocity=100 time=0@note_on channel=8 note=62 velocity=0 time=0@note_on channel=8 note=66 velocity=100 time=0@note_on channel=0 note=76 velocity=0 time=0.2272725@note_on channel=0 note=74 velocity=100 time=0@note_on channel=1 note=78 velocity=0 time=0@note_on channel=1 note=79 velocity=100 time=0@note_on channel=2 note=74 velocity=0 time=0@note_on channel=2 note=74 velocity=100 time=0@note_on channel=5 note=76 velocity=0 time=0@note_on channel=5 note=74 velocity=100 time=0@note_on channel=6 note=78 velocity=0 time=0@note_on channel=6 note=79 velocity=100 time=0@note_on channel=7 note=74 velocity=0 time=0@note_on channel=7 note=74 velocity=100 time=0@note_on channel=0 note=74 velocity=0 time=0.2272725@note_on channel=0 note=76 velocity=100 time=0@note_on channel=1 note=79 velocity=0 time=0@note_on channel=1 note=81 velocity=100 time=0@note_on channel=2 note=74 velocity=0 time=0@note_on channel=2 note=73 velocity=100 time=0@note_on channel=3 note=66 velocity=0 time=0@note_on channel=4 note=50 velocity=0 time=0@note_on channel=4 note=45 velocity=100 time=0@note_on channel=5 note=74 velocity=0 time=0@note_on channel=5 note=76 velocity=100 time=0@note_on channel=6 note=79 velocity=0 time=0@note_on channel=6 note=81 velocity=100 time=0@note_on channel=7 note=74 velocity=0 time=0@note_on channel=7 note=73 velocity=100 time=0@note_on channel=8 note=66 velocity=0 time=0@note_on channel=10 note=50 velocity=0 time=0@note_on channel=10 note=45 velocity=100 time=0@note_on channel=0 note=76 velocity=0 time=0.2272725@note_on channel=0 note=73 velocity=100 time=0@note_on channel=1 note=81 velocity=0 time=0@note_on channel=1 note=69 velocity=100 time=0@note_on channel=2 note=73 velocity=0 time=0@note_on channel=5 note=76 velocity=0 time=0@note_on channel=5 note=73 velocity=100 time=0@note_on channel=6 note=81 velocity=0 time=0@note_on channel=6 note=69 velocity=100 time=0@note_on channel=7 note=73 velocity=0 time=0@note_on channel=0 note=73 velocity=0 time=0.2272725@note_on channel=0 note=74 velocity=100 time=0@note_on channel=1 note=69 velocity=0 time=0@note_on channel=1 note=71 velocity=100 time=0@note_on channel=3 note=52 velocity=100 time=0@note_on channel=5 note=73 velocity=0 time=0@note_on channel=5 note=74 velocity=100 time=0@note_on channel=6 note=69 velocity=0 time=0@note_on channel=6 note=71 velocity=100 time=0@note_on channel=8 note=52 velocity=100 time=0@note_on channel=0 note=74 velocity=0 time=0.2272725@note_on channel=0 note=76 velocity=100 time=0@note_on channel=1 note=71 velocity=0 time=0@note_on channel=1 note=73 velocity=100 time=0@note_on channel=5 note=74 velocity=0 time=0@note_on channel=5 note=76 velocity=100 time=0@note_on channel=6 note=71 velocity=0 time=0@note_on channel=6 note=73 velocity=100 time=0@note_on channel=0 note=76 velocity=0 time=0.2272725@note_on channel=0 note=78 velocity=100 time=0@note_on channel=1 note=73 velocity=0 time=0@note_on channel=1 note=74 velocity=100 time=0@note_on channel=2 note=73 velocity=100 time=0@note_on channel=3 note=52 velocity=0 time=0@note_on channel=3 note=57 velocity=100 time=0@note_on channel=5 note=76 velocity=0 time=0@note_on channel=5 note=78 velocity=100 time=0@note_on channel=6 note=73 velocity=0 time=0@note_on channel=6 note=74 velocity=100 time=0@note_on channel=7 note=73 velocity=100 time=0@note_on channel=8 note=52 velocity=0 time=0@note_on channel=8 note=57 velocity=100 time=0@note_on channel=0 note=78 velocity=0 time=0.2272725@note_on channel=0 note=76 velocity=100 time=0@note_on channel=1 note=74 velocity=0 time=0@note_on channel=1 note=76 velocity=100 time=0@note_on channel=5 note=78 velocity=0 time=0@note_on channel=5 note=76 velocity=100 time=0@note_on channel=6 note=74 velocity=0 time=0@note_on channel=6 note=76 velocity=100 time=0@note_on channel=0 note=76 velocity=0 time=0.2272725@note_on channel=0 note=74 velocity=100 time=0@note_on channel=1 note=76 velocity=0 time=0@note_on channel=1 note=78 velocity=100 time=0@note_on channel=2 note=73 velocity=0 time=0@note_on channel=2 note=74 velocity=100 time=0@note_on channel=3 note=57 velocity=0 time=0@note_on channel=3 note=61 velocity=100 time=0@note_on channel=5 note=76 velocity=0 time=0@note_on channel=5 note=74 velocity=100 time=0@note_on channel=6 note=76 velocity=0 time=0@note_on channel=6 note=78 velocity=100 time=0@note_on channel=7 note=73 velocity=0 time=0@note_on channel=7 note=74 velocity=100 time=0@note_on channel=8 note=57 velocity=0 time=0@note_on channel=8 note=61 velocity=100 time=0@note_on channel=0 note=74 velocity=0 time=0.2272725@note_on channel=0 note=73 velocity=100 time=0@note_on channel=1 note=78 velocity=0 time=0@note_on channel=1 note=79 velocity=100 time=0@note_on channel=2 note=74 velocity=0 time=0@note_on channel=2 note=73 velocity=100 time=0@note_on channel=5 note=74 velocity=0 time=0@note_on channel=5 note=73 velocity=100 time=0@note_on channel=6 note=78 velocity=0 time=0@note_on channel=6 note=79 velocity=100 time=0@note_on channel=7 note=74 velocity=0 time=0@note_on channel=7 note=73 velocity=100 time=0@note_on channel=0 note=73 velocity=0 time=0.2272725@note_on channel=0 note=74 velocity=100 time=0@note_on channel=1 note=79 velocity=0 time=0@note_on channel=1 note=78 velocity=100 time=0@note_on channel=2 note=73 velocity=0 time=0@note_on channel=3 note=61 velocity=0 time=0@note_on channel=4 note=45 velocity=0 time=0@note_on channel=4 note=47 velocity=100 time=0@note_on channel=5 note=73 velocity=0 time=0@note_on channel=5 note=74 velocity=100 time=0@note_on channel=6 note=79 velocity=0 time=0@note_on channel=6 note=78 velocity=100 time=0@note_on channel=7 note=73 velocity=0 time=0@note_on channel=8 note=61 velocity=0 time=0@note_on channel=10 note=45 velocity=0 time=0@note_on channel=10 note=47 velocity=100 time=0@note_on channel=0 note=74 velocity=0 time=0.454545@note_on channel=0 note=71 velocity=100 time=0@note_on channel=1 note=78 velocity=0 time=0@note_on channel=1 note=74 velocity=100 time=0@note_on channel=3 note=50 velocity=100 time=0@note_on channel=5 note=74 velocity=0 time=0@note_on channel=5 note=71 velocity=100 time=0@note_on channel=6 note=78 velocity=0 time=0@note_on channel=6 note=74 velocity=100 time=0@note_on channel=8 note=50 velocity=100 time=0@note_on channel=0 note=71 velocity=0 time=0.2272725@note_on channel=0 note=73 velocity=100 time=0@note_on channel=1 note=74 velocity=0 time=0@note_on channel=1 note=76 velocity=100 time=0@note_on channel=5 note=71 velocity=0 time=0@note_on channel=5 note=73 velocity=100 time=0@note_on channel=6 note=74 velocity=0 time=0@note_on channel=6 note=76 velocity=100 time=0@note_on channel=0 note=73 velocity=0 time=0.2272725@note_on channel=0 note=74 velocity=100 time=0@note_on channel=1 note=76 velocity=0 time=0@note_on channel=1 note=78 velocity=100 time=0@note_on channel=2 note=71 velocity=100 time=0@note_on channel=3 note=50 velocity=0 time=0@note_on channel=3 note=54 velocity=100 time=0@note_on channel=5 note=73 velocity=0 time=0@note_on channel=5 note=74 velocity=100 time=0@note_on channel=6 note=76 velocity=0 time=0@note_on channel=6 note=78 velocity=100 time=0@note_on channel=7 note=71 velocity=100 time=0@note_on channel=8 note=50 velocity=0 time=0@note_on channel=8 note=54 velocity=100 time=0@note_on channel=0 note=74 velocity=0 time=0.454545@note_on channel=0 note=62 velocity=100 time=0@note_on channel=1 note=78 velocity=0 time=0@note_on channel=1 note=66 velocity=100 time=0@note_on channel=3 note=54 velocity=0 time=0@note_on channel=3 note=59 velocity=100 time=0@note_on channel=5 note=74 velocity=0 time=0@note_on channel=5 note=62 velocity=100 time=0@note_on channel=6 note=78 velocity=0 time=0@note_on channel=6 note=66 velocity=100 time=0@note_on channel=8 note=54 velocity=0 time=0@note_on channel=8 note=59 velocity=100 time=0@note_on channel=0 note=62 velocity=0 time=0.2272725@note_on channel=0 note=64 velocity=100 time=0@note_on channel=1 note=66 velocity=0 time=0@note_on channel=1 note=67 velocity=100 time=0@note_on channel=5 note=62 velocity=0 time=0@note_on channel=5 note=64 velocity=100 time=0@note_on channel=6 note=66 velocity=0 time=0@note_on channel=6 note=67 velocity=100 time=0@note_on channel=0 note=64 velocity=0 time=0.2272725@note_on channel=0 note=66 velocity=100 time=0@note_on channel=1 note=67 velocity=0 time=0@note_on channel=1 note=69 velocity=100 time=0@note_on channel=2 note=71 velocity=0 time=0@note_on channel=2 note=74 velocity=100 time=0@note_on channel=3 note=59 velocity=0 time=0@note_on channel=4 note=47 velocity=0 time=0@note_on channel=4 note=42 velocity=100 time=0@note_on channel=5 note=64 velocity=0 time=0@note_on channel=5 note=66 velocity=100 time=0@note_on channel=6 note=67 velocity=0 time=0@note_on channel=6 note=69 velocity=100 time=0@note_on channel=7 note=71 velocity=0 time=0@note_on channel=7 note=74 velocity=100 time=0@note_on channel=8 note=59 velocity=0 time=0@note_on channel=10 note=47 velocity=0 time=0@note_on channel=10 note=42 velocity=100 time=0@note_on channel=0 note=66 velocity=0 time=0.2272725@note_on channel=0 note=67 velocity=100 time=0@note_on channel=1 note=69 velocity=0 time=0@note_on channel=1 note=71 velocity=100 time=0@note_on channel=5 note=66 velocity=0 time=0@note_on channel=5 note=67 velocity=100 time=0@note_on channel=6 note=69 velocity=0 time=0@note_on channel=6 note=71 velocity=100 time=0@note_on channel=0 note=67 velocity=0 time=0.2272725@note_on channel=0 note=66 velocity=100 time=0@note_on channel=1 note=71 velocity=0 time=0@note_on channel=1 note=69 velocity=100 time=0@note_on channel=3 note=49 velocity=100 time=0@note_on channel=5 note=67 velocity=0 time=0@note_on channel=5 note=66 velocity=100 time=0@note_on channel=6 note=71 velocity=0 time=0@note_on channel=6 note=69 velocity=100 time=0@note_on channel=8 note=49 velocity=100 time=0@note_on channel=0 note=66 velocity=0 time=0.2272725@note_on channel=0 note=64 velocity=100 time=0@note_on channel=1 note=69 velocity=0 time=0@note_on channel=1 note=67 velocity=100 time=0@note_on channel=5 note=66 velocity=0 time=0@note_on channel=5 note=64 velocity=100 time=0@note_on channel=6 note=69 velocity=0 time=0@note_on channel=6 note=67 velocity=100 time=0@note_on channel=0 note=64 velocity=0 time=0.2272725@note_on channel=0 note=66 velocity=100 time=0@note_on channel=1 note=67 velocity=0 time=0@note_on channel=1 note=69 velocity=100 time=0@note_on channel=3 note=49 velocity=0 time=0@note_on channel=3 note=54 velocity=100 time=0@note_on channel=5 note=64 velocity=0 time=0@note_on channel=5 note=66 velocity=100 time=0@note_on channel=6 note=67 velocity=0 time=0@note_on channel=6 note=69 velocity=100 time=0@note_on channel=8 note=49 velocity=0 time=0@note_on channel=8 note=54 velocity=100 time=0@note_on channel=0 note=66 velocity=0 time=0.2272725@note_on channel=0 note=66 velocity=100 time=0@note_on channel=1 note=69 velocity=0 time=0@note_on channel=1 note=66 velocity=100 time=0@note_on channel=2 note=74 velocity=0 time=0@note_on channel=2 note=74 velocity=100 time=0@note_on channel=5 note=66 velocity=0 time=0@note_on channel=5 note=66 velocity=100 time=0@note_on channel=6 note=69 velocity=0 time=0@note_on channel=6 note=66 velocity=100 time=0@note_on channel=7 note=74 velocity=0 time=0@note_on channel=7 note=74 velocity=100 time=0@note_on channel=0 note=66 velocity=0 time=0.2272725@note_on channel=0 note=67 velocity=100 time=0@note_on channel=1 note=66 velocity=0 time=0@note_on channel=1 note=67 velocity=100 time=0@note_on channel=2 note=74 velocity=0 time=0@note_on channel=2 note=73 velocity=100 time=0@note_on channel=3 note=54 velocity=0 time=0@note_on channel=3 note=57 velocity=100 time=0@note_on channel=5 note=66 velocity=0 time=0@note_on channel=5 note=67 velocity=100 time=0@note_on channel=6 note=66 velocity=0 time=0@note_on channel=6 note=67 velocity=100 time=0@note_on channel=7 note=74 velocity=0 time=0@note_on channel=7 note=73 velocity=100 time=0@note_on channel=8 note=54 velocity=0 time=0@note_on channel=8 note=57 velocity=100 time=0@note_on channel=0 note=67 velocity=0 time=0.2272725@note_on channel=0 note=69 velocity=100 time=0@note_on channel=1 note=67 velocity=0 time=0@note_on channel=1 note=69 velocity=100 time=0@note_on channel=2 note=73 velocity=0 time=0@note_on channel=2 note=74 velocity=100 time=0@note_on channel=5 note=67 velocity=0 time=0@note_on channel=5 note=69 velocity=100 time=0@note_on channel=6 note=67 velocity=0 time=0@note_on channel=6 note=69 velocity=100 time=0@note_on channel=7 note=73 velocity=0 time=0@note_on channel=7 note=74 velocity=100 time=0@note_on channel=0 note=69 velocity=0 time=0.2272725@note_on channel=0 note=71 velocity=100 time=0@note_on channel=1 note=69 velocity=0 time=0@note_on channel=1 note=67 velocity=100 time=0@note_on channel=2 note=74 velocity=0 time=0@note_on channel=2 note=74 velocity=100 time=0@note_on channel=3 note=57 velocity=0 time=0@note_on channel=4 note=42 velocity=0 time=0@note_on channel=4 note=43 velocity=100 time=0@note_on channel=5 note=69 velocity=0 time=0@note_on channel=5 note=71 velocity=100 time=0@note_on channel=6 note=69 velocity=0 time=0@note_on channel=6 note=67 velocity=100 time=0@note_on channel=7 note=74 velocity=0 time=0@note_on channel=7 note=74 velocity=100 time=0@note_on channel=8 note=57 velocity=0 time=0@note_on channel=10 note=42 velocity=0 time=0@note_on channel=10 note=43 velocity=100 time=0@note_on channel=0 note=71 velocity=0 time=0.2272725@note_on channel=0 note=71 velocity=100 time=0@note_on channel=1 note=67 velocity=0 time=0@note_on channel=1 note=67 velocity=100 time=0@note_on channel=5 note=71 velocity=0 time=0@note_on channel=5 note=71 velocity=100 time=0@note_on channel=6 note=67 velocity=0 time=0@note_on channel=6 note=67 velocity=100 time=0@note_on channel=0 note=71 velocity=0 time=0.2272725@note_on channel=0 note=74 velocity=100 time=0@note_on channel=1 note=67 velocity=0 time=0@note_on channel=1 note=71 velocity=100 time=0@note_on channel=2 note=74 velocity=0 time=0@note_on channel=2 note=74 velocity=100 time=0@note_on channel=3 note=47 velocity=100 time=0@note_on channel=5 note=71 velocity=0 time=0@note_on channel=5 note=74 velocity=100 time=0@note_on channel=6 note=67 velocity=0 time=0@note_on channel=6 note=71 velocity=100 time=0@note_on channel=7 note=74 velocity=0 time=0@note_on channel=7 note=74 velocity=100 time=0@note_on channel=8 note=47 velocity=100 time=0@note_on channel=0 note=74 velocity=0 time=0.2272725@note_on channel=0 note=73 velocity=100 time=0@note_on channel=1 note=71 velocity=0 time=0@note_on channel=1 note=69 velocity=100 time=0@note_on channel=2 note=74 velocity=0 time=0@note_on channel=2 note=73 velocity=100 time=0@note_on channel=5 note=74 velocity=0 time=0@note_on channel=5 note=73 velocity=100 time=0@note_on channel=6 note=71 velocity=0 time=0@note_on channel=6 note=69 velocity=100 time=0@note_on channel=7 note=74 velocity=0 time=0@note_on channel=7 note=73 velocity=100 time=0@note_on channel=0 note=73 velocity=0 time=0.2272725@note_on channel=0 note=71 velocity=100 time=0@note_on channel=1 note=69 velocity=0 time=0@note_on channel=1 note=67 velocity=100 time=0@note_on channel=2 note=73 velocity=0 time=0@note_on channel=2 note=74 velocity=100 time=0@note_on channel=3 note=47 velocity=0 time=0@note_on channel=3 note=50 velocity=100 time=0@note_on channel=5 note=73 velocity=0 time=0@note_on channel=5 note=71 velocity=100 time=0@note_on channel=6 note=69 velocity=0 time=0@note_on channel=6 note=67 velocity=100 time=0@note_on channel=7 note=73 velocity=0 time=0@note_on channel=7 note=74 velocity=100 time=0@note_on channel=8 note=47 velocity=0 time=0@note_on channel=8 note=50 velocity=100 time=0@note_on channel=0 note=71 velocity=0 time=0.2272725@note_on channel=0 note=71 velocity=100 time=0@note_on channel=1 note=67 velocity=0 time=0@note_on channel=1 note=67 velocity=100 time=0@note_on channel=5 note=71 velocity=0 time=0@note_on channel=5 note=71 velocity=100 time=0@note_on channel=6 note=67 velocity=0 time=0@note_on channel=6 note=67 velocity=100 time=0@note_on channel=0 note=71 velocity=0 time=0.2272725@note_on channel=0 note=69 velocity=100 time=0@note_on channel=1 note=67 velocity=0 time=0@note_on channel=1 note=66 velocity=100 time=0@note_on channel=3 note=50 velocity=0 time=0@note_on channel=3 note=55 velocity=100 time=0@note_on channel=5 note=71 velocity=0 time=0@note_on channel=5 note=69 velocity=100 time=0@note_on channel=6 note=67 velocity=0 time=0@note_on channel=6 note=66 velocity=100 time=0@note_on channel=8 note=50 velocity=0 time=0@note_on channel=8 note=55 velocity=100 time=0@note_on channel=0 note=69 velocity=0 time=0.2272725@note_on channel=0 note=67 velocity=100 time=0@note_on channel=1 note=66 velocity=0 time=0@note_on channel=1 note=64 velocity=100 time=0@note_on channel=5 note=69 velocity=0 time=0@note_on channel=5 note=67 velocity=100 time=0@note_on channel=6 note=66 velocity=0 time=0@note_on channel=6 note=64 velocity=100 time=0@note_on channel=0 note=67 velocity=0 time=0.2272725@note_on channel=0 note=69 velocity=100 time=0@note_on channel=1 note=64 velocity=0 time=0@note_on channel=1 note=66 velocity=100 time=0@note_on channel=3 note=55 velocity=0 time=0@note_on channel=4 note=43 velocity=0 time=0@note_on channel=4 note=38 velocity=100 time=0@note_on channel=5 note=67 velocity=0 time=0@note_on channel=5 note=69 velocity=100 time=0@note_on channel=6 note=64 velocity=0 time=0@note_on channel=6 note=66 velocity=100 time=0@note_on channel=8 note=55 velocity=0 time=0@note_on channel=10 note=43 velocity=0 time=0@note_on channel=10 note=38 velocity=100 time=0@note_on channel=0 note=69 velocity=0 time=0.2272725@note_on channel=0 note=67 velocity=100 time=0@note_on channel=1 note=66 velocity=0 time=0@note_on channel=1 note=64 velocity=100 time=0@note_on channel=5 note=69 velocity=0 time=0@note_on channel=5 note=67 velocity=100 time=0@note_on channel=6 note=66 velocity=0 time=0@note_on channel=6 note=64 velocity=100 time=0@note_on channel=0 note=67 velocity=0 time=0.2272725@note_on channel=0 note=66 velocity=100 time=0@note_on channel=1 note=64 velocity=0 time=0@note_on channel=1 note=62 velocity=100 time=0@note_on channel=3 note=54 velocity=100 time=0@note_on channel=5 note=67 velocity=0 time=0@note_on channel=5 note=66 velocity=100 time=0@note_on channel=6 note=64 velocity=0 time=0@note_on channel=6 note=62 velocity=100 time=0@note_on channel=8 note=54 velocity=100 time=0@note_on channel=0 note=66 velocity=0 time=0.2272725@note_on channel=0 note=67 velocity=100 time=0@note_on channel=1 note=62 velocity=0 time=0@note_on channel=1 note=64 velocity=100 time=0@note_on channel=5 note=66 velocity=0 time=0@note_on channel=5 note=67 velocity=100 time=0@note_on channel=6 note=62 velocity=0 time=0@note_on channel=6 note=64 velocity=100 time=0@note_on channel=0 note=67 velocity=0 time=0.2272725@note_on channel=0 note=69 velocity=100 time=0@note_on channel=1 note=64 velocity=0 time=0@note_on channel=1 note=66 velocity=100 time=0@note_on channel=2 note=74 velocity=0 time=0@note_on channel=2 note=74 velocity=100 time=0@note_on channel=3 note=54 velocity=0 time=0@note_on channel=3 note=57 velocity=100 time=0@note_on channel=5 note=67 velocity=0 time=0@note_on channel=5 note=69 velocity=100 time=0@note_on channel=6 note=64 velocity=0 time=0@note_on channel=6 note=66 velocity=100 time=0@note_on channel=7 note=74 velocity=0 time=0@note_on channel=7 note=74 velocity=100 time=0@note_on channel=8 note=54 velocity=0 time=0@note_on channel=8 note=57 velocity=100 time=0@note_on channel=0 note=69 velocity=0 time=0.2272725@note_on channel=0 note=71 velocity=100 time=0@note_on channel=1 note=66 velocity=0 time=0@note_on channel=1 note=67 velocity=100 time=0@note_on channel=5 note=69 velocity=0 time=0@note_on channel=5 note=71 velocity=100 time=0@note_on channel=6 note=66 velocity=0 time=0@note_on channel=6 note=67 velocity=100 time=0@note_on channel=0 note=71 velocity=0 time=0.2272725@note_on channel=0 note=73 velocity=100 time=0@note_on channel=1 note=67 velocity=0 time=0@note_on channel=1 note=69 velocity=100 time=0@note_on channel=2 note=74 velocity=0 time=0@note_on channel=2 note=73 velocity=100 time=0@note_on channel=3 note=57 velocity=0 time=0@note_on channel=3 note=62 velocity=100 time=0@note_on channel=5 note=71 velocity=0 time=0@note_on channel=5 note=73 velocity=100 time=0@note_on channel=6 note=67 velocity=0 time=0@note_on channel=6 note=69 velocity=100 time=0@note_on channel=7 note=74 velocity=0 time=0@note_on channel=7 note=73 velocity=100 time=0@note_on channel=8 note=57 velocity=0 time=0@note_on channel=8 note=62 velocity=100 time=0@note_on channel=0 note=73 velocity=0 time=0.2272725@note_on channel=0 note=74 velocity=100 time=0@note_on channel=1 note=69 velocity=0 time=0@note_on channel=1 note=71 velocity=100 time=0@note_on channel=2 note=73 velocity=0 time=0@note_on channel=2 note=74 velocity=100 time=0@note_on channel=5 note=73 velocity=0 time=0@note_on channel=5 note=74 velocity=100 time=0@note_on channel=6 note=69 velocity=0 time=0@note_on channel=6 note=71 velocity=100 time=0@note_on channel=7 note=73 velocity=0 time=0@note_on channel=7 note=74 velocity=100 time=0@note_on channel=0 note=74 velocity=0 time=0.2272725@note_on channel=0 note=71 velocity=100 time=0@note_on channel=1 note=71 velocity=0 time=0@note_on channel=1 note=67 velocity=100 time=0@note_on channel=2 note=74 velocity=0 time=0@note_on channel=2 note=74 velocity=100 time=0@note_on channel=3 note=62 velocity=0 time=0@note_on channel=4 note=38 velocity=0 time=0@note_on channel=4 note=43 velocity=100 time=0@note_on channel=5 note=74 velocity=0 time=0@note_on channel=5 note=71 velocity=100 time=0@note_on channel=6 note=71 velocity=0 time=0@note_on channel=6 note=67 velocity=100 time=0@note_on channel=7 note=74 velocity=0 time=0@note_on channel=7 note=74 velocity=100 time=0@note_on channel=8 note=62 velocity=0 time=0@note_on channel=10 note=38 velocity=0 time=0@note_on channel=10 note=43 velocity=100 time=0@note_on channel=1 note=67 velocity=0 time=0.2272725@note_on channel=1 note=67 velocity=100 time=0@note_on channel=6 note=67 velocity=0 time=0@note_on channel=6 note=67 velocity=100 time=0@note_on channel=0 note=71 velocity=0 time=0.2272725@note_on channel=0 note=74 velocity=100 time=0@note_on channel=1 note=67 velocity=0 time=0@note_on channel=1 note=71 velocity=100 time=0@note_on channel=2 note=74 velocity=0 time=0@note_on channel=2 note=74 velocity=100 time=0@note_on channel=3 note=52 velocity=100 time=0@note_on channel=5 note=71 velocity=0 time=0@note_on channel=5 note=74 velocity=100 time=0@note_on channel=6 note=67 velocity=0 time=0@note_on channel=6 note=71 velocity=100 time=0@note_on channel=7 note=74 velocity=0 time=0@note_on channel=7 note=74 velocity=100 time=0@note_on channel=8 note=52 velocity=100 time=0@note_on channel=0 note=74 velocity=0 time=0.2272725@note_on channel=0 note=73 velocity=100 time=0@note_on channel=1 note=71 velocity=0 time=0@note_on channel=1 note=69 velocity=100 time=0@note_on channel=2 note=74 velocity=0 time=0@note_on channel=2 note=73 velocity=100 time=0@note_on channel=5 note=74 velocity=0 time=0@note_on channel=5 note=73 velocity=100 time=0@note_on channel=6 note=71 velocity=0 time=0@note_on channel=6 note=69 velocity=100 time=0@note_on channel=7 note=74 velocity=0 time=0@note_on channel=7 note=73 velocity=100 time=0@note_on channel=0 note=73 velocity=0 time=0.2272725@note_on channel=0 note=71 velocity=100 time=0@note_on channel=1 note=69 velocity=0 time=0@note_on channel=1 note=71 velocity=100 time=0@note_on channel=2 note=73 velocity=0 time=0@note_on channel=2 note=79 velocity=100 time=0@note_on channel=3 note=52 velocity=0 time=0@note_on channel=3 note=59 velocity=100 time=0@note_on channel=5 note=73 velocity=0 time=0@note_on channel=5 note=71 velocity=100 time=0@note_on channel=6 note=69 velocity=0 time=0@note_on channel=6 note=71 velocity=100 time=0@note_on channel=7 note=73 velocity=0 time=0@note_on channel=7 note=79 velocity=100 time=0@note_on channel=8 note=52 velocity=0 time=0@note_on channel=8 note=59 velocity=100 time=0@note_on channel=0 note=71 velocity=0 time=0.454545@note_on channel=0 note=73 velocity=100 time=0@note_on channel=1 note=71 velocity=0 time=0@note_on channel=1 note=73 velocity=100 time=0@note_on channel=3 note=59 velocity=0 time=0@note_on channel=3 note=62 velocity=100 time=0@note_on channel=5 note=71 velocity=0 time=0@note_on channel=5 note=73 velocity=100 time=0@note_on channel=6 note=71 velocity=0 time=0@note_on channel=6 note=73 velocity=100 time=0@note_on channel=8 note=59 velocity=0 time=0@note_on channel=8 note=62 velocity=100 time=0@note_on channel=0 note=73 velocity=0 time=0.2272725@note_on channel=0 note=71 velocity=100 time=0@note_on channel=1 note=73 velocity=0 time=0@note_on channel=1 note=74 velocity=100 time=0@note_on channel=5 note=73 velocity=0 time=0@note_on channel=5 note=71 velocity=100 time=0@note_on channel=6 note=73 velocity=0 time=0@note_on channel=6 note=74 velocity=100 time=0@note_on channel=0 note=71 velocity=0 time=0.2272725@note_on channel=0 note=73 velocity=100 time=0@note_on channel=1 note=74 velocity=0 time=0@note_on channel=1 note=69 velocity=100 time=0@note_on channel=2 note=79 velocity=0 time=0@note_on channel=2 note=76 velocity=100 time=0@note_on channel=3 note=62 velocity=0 time=0@note_on channel=4 note=43 velocity=0 time=0@note_on channel=4 note=45 velocity=100 time=0@note_on channel=5 note=71 velocity=0 time=0@note_on channel=5 note=73 velocity=100 time=0@note_on channel=6 note=74 velocity=0 time=0@note_on channel=6 note=69 velocity=100 time=0@note_on channel=7 note=79 velocity=0 time=0@note_on channel=7 note=76 velocity=100 time=0@note_on channel=8 note=62 velocity=0 time=0@note_on channel=10 note=43 velocity=0 time=0@note_on channel=10 note=45 velocity=100 time=0@note_on channel=0 note=73 velocity=0 time=0.2272725@note_on channel=0 note=74 velocity=100 time=0@note_on channel=1 note=69 velocity=0 time=0@note_on channel=1 note=71 velocity=100 time=0@note_on channel=5 note=73 velocity=0 time=0@note_on channel=5 note=74 velocity=100 time=0@note_on channel=6 note=69 velocity=0 time=0@note_on channel=6 note=71 velocity=100 time=0@note_on channel=0 note=74 velocity=0 time=0.2272725@note_on channel=0 note=73 velocity=100 time=0@note_on channel=1 note=71 velocity=0 time=0@note_on channel=1 note=73 velocity=100 time=0@note_on channel=2 note=76 velocity=0 time=0@note_on channel=2 note=76 velocity=100 time=0@note_on channel=3 note=52 velocity=100 time=0@note_on channel=5 note=74 velocity=0 time=0@note_on channel=5 note=73 velocity=100 time=0@note_on channel=6 note=71 velocity=0 time=0@note_on channel=6 note=73 velocity=100 time=0@note_on channel=7 note=76 velocity=0 time=0@note_on channel=7 note=76 velocity=100 time=0@note_on channel=8 note=52 velocity=100 time=0@note_on channel=0 note=73 velocity=0 time=0.2272725@note_on channel=0 note=74 velocity=100 time=0@note_on channel=1 note=73 velocity=0 time=0@note_on channel=1 note=74 velocity=100 time=0@note_on channel=2 note=76 velocity=0 time=0@note_on channel=2 note=74 velocity=100 time=0@note_on channel=5 note=73 velocity=0 time=0@note_on channel=5 note=74 velocity=100 time=0@note_on channel=6 note=73 velocity=0 time=0@note_on channel=6 note=74 velocity=100 time=0@note_on channel=7 note=76 velocity=0 time=0@note_on channel=7 note=74 velocity=100 time=0@note_on channel=0 note=74 velocity=0 time=0.2272725@note_on channel=0 note=73 velocity=100 time=0@note_on channel=1 note=74 velocity=0 time=0@note_on channel=1 note=76 velocity=100 time=0@note_on channel=2 note=74 velocity=0 time=0@note_on channel=2 note=81 velocity=100 time=0@note_on channel=3 note=52 velocity=0 time=0@note_on channel=3 note=57 velocity=100 time=0@note_on channel=5 note=74 velocity=0 time=0@note_on channel=5 note=73 velocity=100 time=0@note_on channel=6 note=74 velocity=0 time=0@note_on channel=6 note=76 velocity=100 time=0@note_on channel=7 note=74 velocity=0 time=0@note_on channel=7 note=81 velocity=100 time=0@note_on channel=8 note=52 velocity=0 time=0@note_on channel=8 note=57 velocity=100 time=0@note_on channel=0 note=73 velocity=0 time=0.2272725@note_on channel=0 note=74 velocity=100 time=0@note_on channel=1 note=76 velocity=0 time=0@note_on channel=1 note=78 velocity=100 time=0@note_on channel=5 note=73 velocity=0 time=0@note_on channel=5 note=74 velocity=100 time=0@note_on channel=6 note=76 velocity=0 time=0@note_on channel=6 note=78 velocity=100 time=0@note_on channel=0 note=74 velocity=0 time=0.2272725@note_on channel=0 note=71 velocity=100 time=0@note_on channel=1 note=78 velocity=0 time=0@note_on channel=1 note=79 velocity=100 time=0@note_on channel=2 note=81 velocity=0 time=0@note_on channel=2 note=79 velocity=100 time=0@note_on channel=3 note=57 velocity=0 time=0@note_on channel=3 note=61 velocity=100 time=0@note_on channel=5 note=74 velocity=0 time=0@note_on channel=5 note=71 velocity=100 time=0@note_on channel=6 note=78 velocity=0 time=0@note_on channel=6 note=79 velocity=100 time=0@note_on channel=7 note=81 velocity=0 time=0@note_on channel=7 note=79 velocity=100 time=0@note_on channel=8 note=57 velocity=0 time=0@note_on channel=8 note=61 velocity=100 time=0@note_on channel=0 note=71 velocity=0 time=0.2272725@note_on channel=0 note=73 velocity=100 time=0@note_on channel=1 note=79 velocity=0 time=0@note_on channel=1 note=81 velocity=100 time=0@note_on channel=2 note=79 velocity=0 time=0@note_on channel=2 note=81 velocity=100 time=0@note_on channel=5 note=71 velocity=0 time=0@note_on channel=5 note=73 velocity=100 time=0@note_on channel=6 note=79 velocity=0 time=0@note_on channel=6 note=81 velocity=100 time=0@note_on channel=7 note=79 velocity=0 time=0@note_on channel=7 note=81 velocity=100 time=0@note_on channel=0 note=73 velocity=0 time=0.2272725@note_on channel=0 note=78 velocity=100 time=0@note_on channel=0 note=74 velocity=100 time=0@note_on channel=1 note=81 velocity=0 time=0@note_on channel=1 note=78 velocity=100 time=0@note_on channel=2 note=81 velocity=0 time=0@note_on channel=2 note=81 velocity=100 time=0@note_on channel=3 note=61 velocity=0 time=0@note_on channel=4 note=45 velocity=0 time=0@note_on channel=4 note=50 velocity=100 time=0@note_on channel=5 note=73 velocity=0 time=0@note_on channel=5 note=78 velocity=100 time=0@note_on channel=5 note=74 velocity=100 time=0@note_on channel=6 note=81 velocity=0 time=0@note_on channel=6 note=78 velocity=100 time=0@note_on channel=7 note=81 velocity=0 time=0@note_on channel=7 note=81 velocity=100 time=0@note_on channel=8 note=61 velocity=0 time=0@note_on channel=10 note=45 velocity=0 time=0@note_on channel=10 note=50 velocity=100 time=0@note_on channel=1 note=78 velocity=0 time=0.454545@note_on channel=1 note=74 velocity=100 time=0@note_on channel=2 note=81 velocity=0 time=0@note_on channel=2 note=78 velocity=100 time=0@note_on channel=3 note=57 velocity=100 time=0@note_on channel=6 note=78 velocity=0 time=0@note_on channel=6 note=74 velocity=100 time=0@note_on channel=7 note=81 velocity=0 time=0@note_on channel=7 note=78 velocity=100 time=0@note_on channel=8 note=57 velocity=100 time=0@note_on channel=1 note=74 velocity=0 time=0.2272725@note_on channel=1 note=76 velocity=100 time=0@note_on channel=2 note=78 velocity=0 time=0@note_on channel=2 note=79 velocity=100 time=0@note_on channel=6 note=74 velocity=0 time=0@note_on channel=6 note=76 velocity=100 time=0@note_on channel=7 note=78 velocity=0 time=0@note_on channel=7 note=79 velocity=100 time=0@note_on channel=0 note=74 velocity=0 time=0.2272725@note_on channel=0 note=78 velocity=0 time=0@note_on channel=1 note=76 velocity=0 time=0@note_on channel=1 note=78 velocity=100 time=0@note_on channel=2 note=79 velocity=0 time=0@note_on channel=2 note=81 velocity=100 time=0@note_on channel=3 note=57 velocity=0 time=0@note_on channel=3 note=62 velocity=100 time=0@note_on channel=5 note=74 velocity=0 time=0@note_on channel=5 note=78 velocity=0 time=0@note_on channel=6 note=76 velocity=0 time=0@note_on channel=6 note=78 velocity=100 time=0@note_on channel=7 note=79 velocity=0 time=0@note_on channel=7 note=81 velocity=100 time=0@note_on channel=8 note=57 velocity=0 time=0@note_on channel=8 note=62 velocity=100 time=0@note_on channel=1 note=78 velocity=0 time=0.454545@note_on channel=1 note=76 velocity=100 time=0@note_on channel=2 note=81 velocity=0 time=0@note_on channel=2 note=78 velocity=100 time=0@note_on channel=3 note=62 velocity=0 time=0@note_on channel=3 note=66 velocity=100 time=0@note_on channel=6 note=78 velocity=0 time=0@note_on channel=6 note=76 velocity=100 time=0@note_on channel=7 note=81 velocity=0 time=0@note_on channel=7 note=78 velocity=100 time=0@note_on channel=8 note=62 velocity=0 time=0@note_on channel=8 note=66 velocity=100 time=0@note_on channel=1 note=76 velocity=0 time=0.2272725@note_on channel=1 note=74 velocity=100 time=0@note_on channel=2 note=78 velocity=0 time=0@note_on channel=2 note=79 velocity=100 time=0@note_on channel=6 note=76 velocity=0 time=0@note_on channel=6 note=74 velocity=100 time=0@note_on channel=7 note=78 velocity=0 time=0@note_on channel=7 note=79 velocity=100 time=0@note_on channel=0 note=73 velocity=100 time=0.2272725@note_on channel=1 note=74 velocity=0 time=0@note_on channel=1 note=76 velocity=100 time=0@note_on channel=2 note=79 velocity=0 time=0@note_on channel=2 note=81 velocity=100 time=0@note_on channel=3 note=66 velocity=0 time=0@note_on channel=4 note=50 velocity=0 time=0@note_on channel=4 note=45 velocity=100 time=0@note_on channel=5 note=73 velocity=100 time=0@note_on channel=6 note=74 velocity=0 time=0@note_on channel=6 note=76 velocity=100 time=0@note_on channel=7 note=79 velocity=0 time=0@note_on channel=7 note=81 velocity=100 time=0@note_on channel=8 note=66 velocity=0 time=0@note_on channel=10 note=50 velocity=0 time=0@note_on channel=10 note=45 velocity=100 time=0@note_on channel=1 note=76 velocity=0 time=0.2272725@note_on channel=1 note=73 velocity=100 time=0@note_on channel=2 note=81 velocity=0 time=0@note_on channel=2 note=69 velocity=100 time=0@note_on channel=6 note=76 velocity=0 time=0@note_on channel=6 note=73 velocity=100 time=0@note_on channel=7 note=81 velocity=0 time=0@note_on channel=7 note=69 velocity=100 time=0@note_on channel=1 note=73 velocity=0 time=0.2272725@note_on channel=1 note=74 velocity=100 time=0@note_on channel=2 note=69 velocity=0 time=0@note_on channel=2 note=71 velocity=100 time=0@note_on channel=3 note=52 velocity=100 time=0@note_on channel=6 note=73 velocity=0 time=0@note_on channel=6 note=74 velocity=100 time=0@note_on channel=7 note=69 velocity=0 time=0@note_on channel=7 note=71 velocity=100 time=0@note_on channel=8 note=52 velocity=100 time=0@note_on channel=1 note=74 velocity=0 time=0.2272725@note_on channel=1 note=76 velocity=100 time=0@note_on channel=2 note=71 velocity=0 time=0@note_on channel=2 note=73 velocity=100 time=0@note_on channel=6 note=74 velocity=0 time=0@note_on channel=6 note=76 velocity=100 time=0@note_on channel=7 note=71 velocity=0 time=0@note_on channel=7 note=73 velocity=100 time=0@note_on channel=0 note=73 velocity=0 time=0.2272725@note_on channel=1 note=76 velocity=0 time=0@note_on channel=1 note=78 velocity=100 time=0@note_on channel=2 note=73 velocity=0 time=0@note_on channel=2 note=74 velocity=100 time=0@note_on channel=3 note=52 velocity=0 time=0@note_on channel=3 note=57 velocity=100 time=0@note_on channel=5 note=73 velocity=0 time=0@note_on channel=6 note=76 velocity=0 time=0@note_on channel=6 note=78 velocity=100 time=0@note_on channel=7 note=73 velocity=0 time=0@note_on channel=7 note=74 velocity=100 time=0@note_on channel=8 note=52 velocity=0 time=0@note_on channel=8 note=57 velocity=100 time=0@note_on channel=1 note=78 velocity=0 time=0.2272725@note_on channel=1 note=76 velocity=100 time=0@note_on channel=2 note=74 velocity=0 time=0@note_on channel=2 note=76 velocity=100 time=0@note_on channel=6 note=78 velocity=0 time=0@note_on channel=6 note=76 velocity=100 time=0@note_on channel=7 note=74 velocity=0 time=0@note_on channel=7 note=76 velocity=100 time=0@note_on channel=1 note=76 velocity=0 time=0.2272725@note_on channel=1 note=74 velocity=100 time=0@note_on channel=2 note=76 velocity=0 time=0@note_on channel=2 note=78 velocity=100 time=0@note_on channel=3 note=57 velocity=0 time=0@note_on channel=3 note=61 velocity=100 time=0@note_on channel=6 note=76 velocity=0 time=0@note_on channel=6 note=74 velocity=100 time=0@note_on channel=7 note=76 velocity=0 time=0@note_on channel=7 note=78 velocity=100 time=0@note_on channel=8 note=57 velocity=0 time=0@note_on channel=8 note=61 velocity=100 time=0@note_on channel=1 note=74 velocity=0 time=0.2272725@note_on channel=1 note=73 velocity=100 time=0@note_on channel=2 note=78 velocity=0 time=0@note_on channel=2 note=79 velocity=100 time=0@note_on channel=6 note=74 velocity=0 time=0@note_on channel=6 note=73 velocity=100 time=0@note_on channel=7 note=78 velocity=0 time=0@note_on channel=7 note=79 velocity=100 time=0@note_on channel=0 note=71 velocity=100 time=0.2272725@note_on channel=1 note=73 velocity=0 time=0@note_on channel=1 note=74 velocity=100 time=0@note_on channel=2 note=79 velocity=0 time=0@note_on channel=2 note=78 velocity=100 time=0@note_on channel=3 note=61 velocity=0 time=0@note_on channel=4 note=45 velocity=0 time=0@note_on channel=4 note=47 velocity=100 time=0@note_on channel=5 note=71 velocity=100 time=0@note_on channel=6 note=73 velocity=0 time=0@note_on channel=6 note=74 velocity=100 time=0@note_on channel=7 note=79 velocity=0 time=0@note_on channel=7 note=78 velocity=100 time=0@note_on channel=8 note=61 velocity=0 time=0@note_on channel=10 note=45 velocity=0 time=0@note_on channel=10 note=47 velocity=100 time=0@note_on channel=0 note=71 velocity=0 time=0.454545@note_on channel=0 note=71 velocity=100 time=0@note_on channel=1 note=74 velocity=0 time=0@note_on channel=1 note=71 velocity=100 time=0@note_on channel=2 note=78 velocity=0 time=0@note_on channel=2 note=74 velocity=100 time=0@note_on channel=3 note=50 velocity=100 time=0@note_on channel=5 note=71 velocity=0 time=0@note_on channel=5 note=71 velocity=100 time=0@note_on channel=6 note=74 velocity=0 time=0@note_on channel=6 note=71 velocity=100 time=0@note_on channel=7 note=78 velocity=0 time=0@note_on channel=7 note=74 velocity=100 time=0@note_on channel=8 note=50 velocity=100 time=0@note_on channel=1 note=71 velocity=0 time=0.2272725@note_on channel=1 note=73 velocity=100 time=0@note_on channel=2 note=74 velocity=0 time=0@note_on channel=2 note=76 velocity=100 time=0@note_on channel=6 note=71 velocity=0 time=0@note_on channel=6 note=73 velocity=100 time=0@note_on channel=7 note=74 velocity=0 time=0@note_on channel=7 note=76 velocity=100 time=0@note_on channel=0 note=71 velocity=0 time=0.2272725@note_on channel=1 note=73 velocity=0 time=0@note_on channel=1 note=74 velocity=100 time=0@note_on channel=2 note=76 velocity=0 time=0@note_on channel=2 note=78 velocity=100 time=0@note_on channel=3 note=50 velocity=0 time=0@note_on channel=3 note=54 velocity=100 time=0@note_on channel=5 note=71 velocity=0 time=0@note_on channel=6 note=73 velocity=0 time=0@note_on channel=6 note=74 velocity=100 time=0@note_on channel=7 note=76 velocity=0 time=0@note_on channel=7 note=78 velocity=100 time=0@note_on channel=8 note=50 velocity=0 time=0@note_on channel=8 note=54 velocity=100 time=0@note_on channel=1 note=74 velocity=0 time=0.454545@note_on channel=1 note=62 velocity=100 time=0@note_on channel=2 note=78 velocity=0 time=0@note_on channel=2 note=66 velocity=100 time=0@note_on channel=3 note=54 velocity=0 time=0@note_on channel=3 note=59 velocity=100 time=0@note_on channel=6 note=74 velocity=0 time=0@note_on channel=6 note=62 velocity=100 time=0@note_on channel=7 note=78 velocity=0 time=0@note_on channel=7 note=66 velocity=100 time=0@note_on channel=8 note=54 velocity=0 time=0@note_on channel=8 note=59 velocity=100 time=0@note_on channel=1 note=62 velocity=0 time=0.2272725@note_on channel=1 note=64 velocity=100 time=0@note_on channel=2 note=66 velocity=0 time=0@note_on channel=2 note=67 velocity=100 time=0@note_on channel=6 note=62 velocity=0 time=0@note_on channel=6 note=64 velocity=100 time=0@note_on channel=7 note=66 velocity=0 time=0@note_on channel=7 note=67 velocity=100 time=0@note_on channel=0 note=74 velocity=100 time=0.2272725@note_on channel=1 note=64 velocity=0 time=0@note_on channel=1 note=66 velocity=100 time=0@note_on channel=2 note=67 velocity=0 time=0@note_on channel=2 note=69 velocity=100 time=0@note_on channel=3 note=59 velocity=0 time=0@note_on channel=4 note=47 velocity=0 time=0@note_on channel=4 note=42 velocity=100 time=0@note_on channel=5 note=74 velocity=100 time=0@note_on channel=6 note=64 velocity=0 time=0@note_on channel=6 note=66 velocity=100 time=0@note_on channel=7 note=67 velocity=0 time=0@note_on channel=7 note=69 velocity=100 time=0@note_on channel=8 note=59 velocity=0 time=0@note_on channel=10 note=47 velocity=0 time=0@note_on channel=10 note=42 velocity=100 time=0@note_on channel=1 note=66 velocity=0 time=0.2272725@note_on channel=1 note=67 velocity=100 time=0@note_on channel=2 note=69 velocity=0 time=0@note_on channel=2 note=71 velocity=100 time=0@note_on channel=6 note=66 velocity=0 time=0@note_on channel=6 note=67 velocity=100 time=0@note_on channel=7 note=69 velocity=0 time=0@note_on channel=7 note=71 velocity=100 time=0@note_on channel=1 note=67 velocity=0 time=0.2272725@note_on channel=1 note=66 velocity=100 time=0@note_on channel=2 note=71 velocity=0 time=0@note_on channel=2 note=69 velocity=100 time=0@note_on channel=3 note=49 velocity=100 time=0@note_on channel=6 note=67 velocity=0 time=0@note_on channel=6 note=66 velocity=100 time=0@note_on channel=7 note=71 velocity=0 time=0@note_on channel=7 note=69 velocity=100 time=0@note_on channel=8 note=49 velocity=100 time=0@note_on channel=1 note=66 velocity=0 time=0.2272725@note_on channel=1 note=64 velocity=100 time=0@note_on channel=2 note=69 velocity=0 time=0@note_on channel=2 note=67 velocity=100 time=0@note_on channel=6 note=66 velocity=0 time=0@note_on channel=6 note=64 velocity=100 time=0@note_on channel=7 note=69 velocity=0 time=0@note_on channel=7 note=67 velocity=100 time=0@note_on channel=0 note=74 velocity=0 time=0.2272725@note_on channel=1 note=64 velocity=0 time=0@note_on channel=1 note=66 velocity=100 time=0@note_on channel=2 note=67 velocity=0 time=0@note_on channel=2 note=69 velocity=100 time=0@note_on channel=3 note=49 velocity=0 time=0@note_on channel=3 note=54 velocity=100 time=0@note_on channel=5 note=74 velocity=0 time=0@note_on channel=6 note=64 velocity=0 time=0@note_on channel=6 note=66 velocity=100 time=0@note_on channel=7 note=67 velocity=0 time=0@note_on channel=7 note=69 velocity=100 time=0@note_on channel=8 note=49 velocity=0 time=0@note_on channel=8 note=54 velocity=100 time=0@note_on channel=1 note=66 velocity=0 time=0.2272725@note_on channel=1 note=66 velocity=100 time=0@note_on channel=2 note=69 velocity=0 time=0@note_on channel=2 note=74 velocity=100 time=0@note_on channel=6 note=66 velocity=0 time=0@note_on channel=6 note=66 velocity=100 time=0@note_on channel=7 note=69 velocity=0 time=0@note_on channel=7 note=74 velocity=100 time=0@note_on channel=1 note=66 velocity=0 time=0.2272725@note_on channel=1 note=67 velocity=100 time=0@note_on channel=2 note=74 velocity=0 time=0@note_on channel=2 note=73 velocity=100 time=0@note_on channel=3 note=54 velocity=0 time=0@note_on channel=3 note=57 velocity=100 time=0@note_on channel=6 note=66 velocity=0 time=0@note_on channel=6 note=67 velocity=100 time=0@note_on channel=7 note=74 velocity=0 time=0@note_on channel=7 note=73 velocity=100 time=0@note_on channel=8 note=54 velocity=0 time=0@note_on channel=8 note=57 velocity=100 time=0@note_on channel=1 note=67 velocity=0 time=0.2272725@note_on channel=1 note=69 velocity=100 time=0@note_on channel=2 note=73 velocity=0 time=0@note_on channel=2 note=74 velocity=100 time=0@note_on channel=6 note=67 velocity=0 time=0@note_on channel=6 note=69 velocity=100 time=0@note_on channel=7 note=73 velocity=0 time=0@note_on channel=7 note=74 velocity=100 time=0@note_on channel=0 note=62 velocity=100 time=0.2272725@note_on channel=1 note=69 velocity=0 time=0@note_on channel=1 note=71 velocity=100 time=0@note_on channel=2 note=74 velocity=0 time=0@note_on channel=2 note=67 velocity=100 time=0@note_on channel=3 note=57 velocity=0 time=0@note_on channel=4 note=42 velocity=0 time=0@note_on channel=4 note=43 velocity=100 time=0@note_on channel=5 note=62 velocity=100 time=0@note_on channel=6 note=69 velocity=0 time=0@note_on channel=6 note=71 velocity=100 time=0@note_on channel=7 note=74 velocity=0 time=0@note_on channel=7 note=67 velocity=100 time=0@note_on channel=8 note=57 velocity=0 time=0@note_on channel=10 note=42 velocity=0 time=0@note_on channel=10 note=43 velocity=100 time=0@note_on channel=1 note=71 velocity=0 time=0.454545@note_on channel=1 note=74 velocity=100 time=0@note_on channel=2 note=67 velocity=0 time=0@note_on channel=2 note=71 velocity=100 time=0@note_on channel=3 note=47 velocity=100 time=0@note_on channel=6 note=71 velocity=0 time=0@note_on channel=6 note=74 velocity=100 time=0@note_on channel=7 note=67 velocity=0 time=0@note_on channel=7 note=71 velocity=100 time=0@note_on channel=8 note=47 velocity=100 time=0@note_on channel=1 note=74 velocity=0 time=0.2272725@note_on channel=1 note=73 velocity=100 time=0@note_on channel=2 note=71 velocity=0 time=0@note_on channel=2 note=69 velocity=100 time=0@note_on channel=6 note=74 velocity=0 time=0@note_on channel=6 note=73 velocity=100 time=0@note_on channel=7 note=71 velocity=0 time=0@note_on channel=7 note=69 velocity=100 time=0@note_on channel=0 note=62 velocity=0 time=0.2272725@note_on channel=1 note=73 velocity=0 time=0@note_on channel=1 note=71 velocity=100 time=0@note_on channel=2 note=69 velocity=0 time=0@note_on channel=2 note=67 velocity=100 time=0@note_on channel=3 note=47 velocity=0 time=0@note_on channel=3 note=50 velocity=100 time=0@note_on channel=5 note=62 velocity=0 time=0@note_on channel=6 note=73 velocity=0 time=0@note_on channel=6 note=71 velocity=100 time=0@note_on channel=7 note=69 velocity=0 time=0@note_on channel=7 note=67 velocity=100 time=0@note_on channel=8 note=47 velocity=0 time=0@note_on channel=8 note=50 velocity=100 time=0@note_on channel=1 note=71 velocity=0 time=0.454545@note_on channel=1 note=69 velocity=100 time=0@note_on channel=2 note=67 velocity=0 time=0@note_on channel=2 note=66 velocity=100 time=0@note_on channel=3 note=50 velocity=0 time=0@note_on channel=3 note=55 velocity=100 time=0@note_on channel=6 note=71 velocity=0 time=0@note_on channel=6 note=69 velocity=100 time=0@note_on channel=7 note=67 velocity=0 time=0@note_on channel=7 note=66 velocity=100 time=0@note_on channel=8 note=50 velocity=0 time=0@note_on channel=8 note=55 velocity=100 time=0@note_on channel=1 note=69 velocity=0 time=0.2272725@note_on channel=1 note=67 velocity=100 time=0@note_on channel=2 note=66 velocity=0 time=0@note_on channel=2 note=64 velocity=100 time=0@note_on channel=6 note=69 velocity=0 time=0@note_on channel=6 note=67 velocity=100 time=0@note_on channel=7 note=66 velocity=0 time=0@note_on channel=7 note=64 velocity=100 time=0@note_on channel=0 note=62 velocity=100 time=0.2272725@note_on channel=1 note=67 velocity=0 time=0@note_on channel=1 note=69 velocity=100 time=0@note_on channel=2 note=64 velocity=0 time=0@note_on channel=2 note=66 velocity=100 time=0@note_on channel=3 note=55 velocity=0 time=0@note_on channel=4 note=43 velocity=0 time=0@note_on channel=4 note=38 velocity=100 time=0@note_on channel=5 note=62 velocity=100 time=0@note_on channel=6 note=67 velocity=0 time=0@note_on channel=6 note=69 velocity=100 time=0@note_on channel=7 note=64 velocity=0 time=0@note_on channel=7 note=66 velocity=100 time=0@note_on channel=8 note=55 velocity=0 time=0@note_on channel=10 note=43 velocity=0 time=0@note_on channel=10 note=38 velocity=100 time=0@note_on channel=1 note=69 velocity=0 time=0.2272725@note_on channel=1 note=67 velocity=100 time=0@note_on channel=2 note=66 velocity=0 time=0@note_on channel=2 note=64 velocity=100 time=0@note_on channel=6 note=69 velocity=0 time=0@note_on channel=6 note=67 velocity=100 time=0@note_on channel=7 note=66 velocity=0 time=0@note_on channel=7 note=64 velocity=100 time=0@note_on channel=0 note=62 velocity=0 time=0.2272725@note_on channel=0 note=62 velocity=100 time=0@note_on channel=1 note=67 velocity=0 time=0@note_on channel=1 note=66 velocity=100 time=0@note_on channel=2 note=64 velocity=0 time=0@note_on channel=2 note=62 velocity=100 time=0@note_on channel=3 note=54 velocity=100 time=0@note_on channel=5 note=62 velocity=0 time=0@note_on channel=5 note=62 velocity=100 time=0@note_on channel=6 note=67 velocity=0 time=0@note_on channel=6 note=66 velocity=100 time=0@note_on channel=7 note=64 velocity=0 time=0@note_on channel=7 note=62 velocity=100 time=0@note_on channel=8 note=54 velocity=100 time=0@note_on channel=1 note=66 velocity=0 time=0.2272725@note_on channel=1 note=67 velocity=100 time=0@note_on channel=2 note=62 velocity=0 time=0@note_on channel=2 note=64 velocity=100 time=0@note_on channel=6 note=66 velocity=0 time=0@note_on channel=6 note=67 velocity=100 time=0@note_on channel=7 note=62 velocity=0 time=0@note_on channel=7 note=64 velocity=100 time=0@note_on channel=0 note=62 velocity=0 time=0.2272725@note_on channel=1 note=67 velocity=0 time=0@note_on channel=1 note=69 velocity=100 time=0@note_on channel=2 note=64 velocity=0 time=0@note_on channel=2 note=66 velocity=100 time=0@note_on channel=3 note=54 velocity=0 time=0@note_on channel=3 note=57 velocity=100 time=0@note_on channel=5 note=62 velocity=0 time=0@note_on channel=6 note=67 velocity=0 time=0@note_on channel=6 note=69 velocity=100 time=0@note_on channel=7 note=64 velocity=0 time=0@note_on channel=7 note=66 velocity=100 time=0@note_on channel=8 note=54 velocity=0 time=0@note_on channel=8 note=57 velocity=100 time=0@note_on channel=1 note=69 velocity=0 time=0.2272725@note_on channel=1 note=71 velocity=100 time=0@note_on channel=2 note=66 velocity=0 time=0@note_on channel=2 note=67 velocity=100 time=0@note_on channel=6 note=69 velocity=0 time=0@note_on channel=6 note=71 velocity=100 time=0@note_on channel=7 note=66 velocity=0 time=0@note_on channel=7 note=67 velocity=100 time=0@note_on channel=1 note=71 velocity=0 time=0.2272725@note_on channel=1 note=73 velocity=100 time=0@note_on channel=2 note=67 velocity=0 time=0@note_on channel=2 note=69 velocity=100 time=0@note_on channel=3 note=57 velocity=0 time=0@note_on channel=3 note=62 velocity=100 time=0@note_on channel=6 note=71 velocity=0 time=0@note_on channel=6 note=73 velocity=100 time=0@note_on channel=7 note=67 velocity=0 time=0@note_on channel=7 note=69 velocity=100 time=0@note_on channel=8 note=57 velocity=0 time=0@note_on channel=8 note=62 velocity=100 time=0@note_on channel=1 note=73 velocity=0 time=0.2272725@note_on channel=1 note=74 velocity=100 time=0@note_on channel=2 note=69 velocity=0 time=0@note_on channel=2 note=71 velocity=100 time=0@note_on channel=6 note=73 velocity=0 time=0@note_on channel=6 note=74 velocity=100 time=0@note_on channel=7 note=69 velocity=0 time=0@note_on channel=7 note=71 velocity=100 time=0@note_on channel=0 note=62 velocity=100 time=0.2272725@note_on channel=1 note=74 velocity=0 time=0@note_on channel=1 note=71 velocity=100 time=0@note_on channel=2 note=71 velocity=0 time=0@note_on channel=2 note=67 velocity=100 time=0@note_on channel=3 note=62 velocity=0 time=0@note_on channel=4 note=38 velocity=0 time=0@note_on channel=4 note=43 velocity=100 time=0@note_on channel=5 note=62 velocity=100 time=0@note_on channel=6 note=74 velocity=0 time=0@note_on channel=6 note=71 velocity=100 time=0@note_on channel=7 note=71 velocity=0 time=0@note_on channel=7 note=67 velocity=100 time=0@note_on channel=8 note=62 velocity=0 time=0@note_on channel=10 note=38 velocity=0 time=0@note_on channel=10 note=43 velocity=100 time=0@note_on channel=1 note=71 velocity=0 time=0.454545@note_on channel=1 note=74 velocity=100 time=0@note_on channel=2 note=67 velocity=0 time=0@note_on channel=2 note=71 velocity=100 time=0@note_on channel=3 note=52 velocity=100 time=0@note_on channel=6 note=71 velocity=0 time=0@note_on channel=6 note=74 velocity=100 time=0@note_on channel=7 note=67 velocity=0 time=0@note_on channel=7 note=71 velocity=100 time=0@note_on channel=8 note=52 velocity=100 time=0@note_on channel=1 note=74 velocity=0 time=0.2272725@note_on channel=1 note=73 velocity=100 time=0@note_on channel=2 note=71 velocity=0 time=0@note_on channel=2 note=69 velocity=100 time=0@note_on channel=6 note=74 velocity=0 time=0@note_on channel=6 note=73 velocity=100 time=0@note_on channel=7 note=71 velocity=0 time=0@note_on channel=7 note=69 velocity=100 time=0@note_on channel=0 note=62 velocity=0 time=0.2272725@note_on channel=1 note=73 velocity=0 time=0@note_on channel=1 note=74 velocity=100 time=0@note_on channel=2 note=69 velocity=0 time=0@note_on channel=2 note=71 velocity=100 time=0@note_on channel=3 note=52 velocity=0 time=0@note_on channel=3 note=59 velocity=100 time=0@note_on channel=5 note=62 velocity=0 time=0@note_on channel=6 note=73 velocity=0 time=0@note_on channel=6 note=74 velocity=100 time=0@note_on channel=7 note=69 velocity=0 time=0@note_on channel=7 note=71 velocity=100 time=0@note_on channel=8 note=52 velocity=0 time=0@note_on channel=8 note=59 velocity=100 time=0@note_on channel=1 note=74 velocity=0 time=0.454545@note_on channel=1 note=73 velocity=100 time=0@note_on channel=2 note=71 velocity=0 time=0@note_on channel=2 note=73 velocity=100 time=0@note_on channel=3 note=59 velocity=0 time=0@note_on channel=3 note=62 velocity=100 time=0@note_on channel=6 note=74 velocity=0 time=0@note_on channel=6 note=73 velocity=100 time=0@note_on channel=7 note=71 velocity=0 time=0@note_on channel=7 note=73 velocity=100 time=0@note_on channel=8 note=59 velocity=0 time=0@note_on channel=8 note=62 velocity=100 time=0@note_on channel=1 note=73 velocity=0 time=0.2272725@note_on channel=1 note=71 velocity=100 time=0@note_on channel=2 note=73 velocity=0 time=0@note_on channel=2 note=74 velocity=100 time=0@note_on channel=6 note=73 velocity=0 time=0@note_on channel=6 note=71 velocity=100 time=0@note_on channel=7 note=73 velocity=0 time=0@note_on channel=7 note=74 velocity=100 time=0@note_on channel=0 note=64 velocity=100 time=0.2272725@note_on channel=1 note=71 velocity=0 time=0@note_on channel=1 note=73 velocity=100 time=0@note_on channel=2 note=74 velocity=0 time=0@note_on channel=2 note=69 velocity=100 time=0@note_on channel=3 note=62 velocity=0 time=0@note_on channel=4 note=43 velocity=0 time=0@note_on channel=4 note=45 velocity=100 time=0@note_on channel=5 note=64 velocity=100 time=0@note_on channel=6 note=71 velocity=0 time=0@note_on channel=6 note=73 velocity=100 time=0@note_on channel=7 note=74 velocity=0 time=0@note_on channel=7 note=69 velocity=100 time=0@note_on channel=8 note=62 velocity=0 time=0@note_on channel=10 note=43 velocity=0 time=0@note_on channel=10 note=45 velocity=100 time=0@note_on channel=1 note=73 velocity=0 time=0.2272725@note_on channel=1 note=74 velocity=100 time=0@note_on channel=2 note=69 velocity=0 time=0@note_on channel=2 note=71 velocity=100 time=0@note_on channel=6 note=73 velocity=0 time=0@note_on channel=6 note=74 velocity=100 time=0@note_on channel=7 note=69 velocity=0 time=0@note_on channel=7 note=71 velocity=100 time=0@note_on channel=1 note=74 velocity=0 time=0.2272725@note_on channel=1 note=76 velocity=100 time=0@note_on channel=2 note=71 velocity=0 time=0@note_on channel=2 note=73 velocity=100 time=0@note_on channel=3 note=52 velocity=100 time=0@note_on channel=6 note=74 velocity=0 time=0@note_on channel=6 note=76 velocity=100 time=0@note_on channel=7 note=71 velocity=0 time=0@note_on channel=7 note=73 velocity=100 time=0@note_on channel=8 note=52 velocity=100 time=0@note_on channel=1 note=76 velocity=0 time=0.2272725@note_on channel=1 note=74 velocity=100 time=0@note_on channel=2 note=73 velocity=0 time=0@note_on channel=2 note=74 velocity=100 time=0@note_on channel=6 note=76 velocity=0 time=0@note_on channel=6 note=74 velocity=100 time=0@note_on channel=7 note=73 velocity=0 time=0@note_on channel=7 note=74 velocity=100 time=0@note_on channel=0 note=64 velocity=0 time=0.2272725@note_on channel=1 note=74 velocity=0 time=0@note_on channel=1 note=73 velocity=100 time=0@note_on channel=2 note=74 velocity=0 time=0@note_on channel=2 note=76 velocity=100 time=0@note_on channel=3 note=52 velocity=0 time=0@note_on channel=3 note=57 velocity=100 time=0@note_on channel=5 note=64 velocity=0 time=0@note_on channel=6 note=74 velocity=0 time=0@note_on channel=6 note=73 velocity=100 time=0@note_on channel=7 note=74 velocity=0 time=0@note_on channel=7 note=76 velocity=100 time=0@note_on channel=8 note=52 velocity=0 time=0@note_on channel=8 note=57 velocity=100 time=0@note_on channel=1 note=73 velocity=0 time=0.2272725@note_on channel=1 note=74 velocity=100 time=0@note_on channel=2 note=76 velocity=0 time=0@note_on channel=2 note=78 velocity=100 time=0@note_on channel=6 note=73 velocity=0 time=0@note_on channel=6 note=74 velocity=100 time=0@note_on channel=7 note=76 velocity=0 time=0@note_on channel=7 note=78 velocity=100 time=0@note_on channel=1 note=74 velocity=0 time=0.2272725@note_on channel=1 note=71 velocity=100 time=0@note_on channel=2 note=78 velocity=0 time=0@note_on channel=2 note=79 velocity=100 time=0@note_on channel=3 note=57 velocity=0 time=0@note_on channel=3 note=61 velocity=100 time=0@note_on channel=6 note=74 velocity=0 time=0@note_on channel=6 note=71 velocity=100 time=0@note_on channel=7 note=78 velocity=0 time=0@note_on channel=7 note=79 velocity=100 time=0@note_on channel=8 note=57 velocity=0 time=0@note_on channel=8 note=61 velocity=100 time=0@note_on channel=1 note=71 velocity=0 time=0.2272725@note_on channel=1 note=73 velocity=100 time=0@note_on channel=2 note=79 velocity=0 time=0@note_on channel=2 note=81 velocity=100 time=0@note_on channel=6 note=71 velocity=0 time=0@note_on channel=6 note=73 velocity=100 time=0@note_on channel=7 note=79 velocity=0 time=0@note_on channel=7 note=81 velocity=100 time=0@control_change channel=0 control=7 value=60 time=0.2272725@note_on channel=1 note=73 velocity=0 time=0@note_on channel=1 note=69 velocity=100 time=0@note_on channel=1 note=74 velocity=100 time=0@control_change channel=1 control=7 value=60 time=0@note_on channel=2 note=81 velocity=0 time=0@note_on channel=2 note=78 velocity=100 time=0@control_change channel=2 control=7 value=60 time=0@note_on channel=3 note=61 velocity=0 time=0@control_change channel=3 control=7 value=60 time=0@note_on channel=4 note=45 velocity=0 time=0@note_on channel=4 note=50 velocity=100 time=0@control_change channel=4 control=7 value=60 time=0@control_change channel=5 control=7 value=60 time=0@note_on channel=6 note=73 velocity=0 time=0@note_on channel=6 note=69 velocity=100 time=0@note_on channel=6 note=74 velocity=100 time=0@control_change channel=6 control=7 value=60 time=0@note_on channel=7 note=81 velocity=0 time=0@note_on channel=7 note=78 velocity=100 time=0@control_change channel=7 control=7 value=60 time=0@note_on channel=8 note=61 velocity=0 time=0@control_change channel=8 control=7 value=60 time=0@note_on channel=10 note=45 velocity=0 time=0@note_on channel=10 note=50 velocity=100 time=0@control_change channel=10 control=7 value=60 time=0@note_on channel=1 note=69 velocity=0 time=0.454545@note_on channel=1 note=74 velocity=100 time=0@note_on channel=2 note=78 velocity=0 time=0@note_on channel=2 note=74 velocity=100 time=0@note_on channel=3 note=57 velocity=100 time=0@note_on channel=6 note=69 velocity=0 time=0@note_on channel=6 note=74 velocity=100 time=0@note_on channel=7 note=78 velocity=0 time=0@note_on channel=7 note=74 velocity=100 time=0@note_on channel=8 note=57 velocity=100 time=0@note_on channel=2 note=74 velocity=0 time=0.2272725@note_on channel=2 note=76 velocity=100 time=0@note_on channel=7 note=74 velocity=0 time=0@note_on channel=7 note=76 velocity=100 time=0@note_on channel=0 note=69 velocity=100 time=0.2272725@note_on channel=1 note=74 velocity=0 time=0@note_on channel=1 note=74 velocity=0 time=0@note_on channel=2 note=76 velocity=0 time=0@note_on channel=2 note=78 velocity=100 time=0@note_on channel=3 note=57 velocity=0 time=0@note_on channel=3 note=62 velocity=100 time=0@note_on channel=5 note=69 velocity=100 time=0@note_on channel=6 note=74 velocity=0 time=0@note_on channel=6 note=74 velocity=0 time=0@note_on channel=7 note=76 velocity=0 time=0@note_on channel=7 note=78 velocity=100 time=0@note_on channel=8 note=57 velocity=0 time=0@note_on channel=8 note=62 velocity=100 time=0@note_on channel=2 note=78 velocity=0 time=0.454545@note_on channel=2 note=76 velocity=100 time=0@note_on channel=3 note=62 velocity=0 time=0@note_on channel=3 note=66 velocity=100 time=0@note_on channel=7 note=78 velocity=0 time=0@note_on channel=7 note=76 velocity=100 time=0@note_on channel=8 note=62 velocity=0 time=0@note_on channel=8 note=66 velocity=100 time=0@note_on channel=2 note=76 velocity=0 time=0.2272725@note_on channel=2 note=74 velocity=100 time=0@note_on channel=7 note=76 velocity=0 time=0@note_on channel=7 note=74 velocity=100 time=0@note_on channel=0 note=69 velocity=0 time=0.2272725@note_on channel=1 note=73 velocity=100 time=0@note_on channel=2 note=74 velocity=0 time=0@note_on channel=2 note=76 velocity=100 time=0@note_on channel=3 note=66 velocity=0 time=0@note_on channel=4 note=50 velocity=0 time=0@note_on channel=4 note=45 velocity=100 time=0@note_on channel=5 note=69 velocity=0 time=0@note_on channel=6 note=73 velocity=100 time=0@note_on channel=7 note=74 velocity=0 time=0@note_on channel=7 note=76 velocity=100 time=0@note_on channel=8 note=66 velocity=0 time=0@note_on channel=10 note=50 velocity=0 time=0@note_on channel=10 note=45 velocity=100 time=0@note_on channel=1 note=73 velocity=0 time=0.2272725@note_on channel=1 note=73 velocity=100 time=0@note_on channel=2 note=76 velocity=0 time=0@note_on channel=2 note=73 velocity=100 time=0@note_on channel=6 note=73 velocity=0 time=0@note_on channel=6 note=73 velocity=100 time=0@note_on channel=7 note=76 velocity=0 time=0@note_on channel=7 note=73 velocity=100 time=0@note_on channel=1 note=73 velocity=0 time=0.2272725@note_on channel=1 note=73 velocity=100 time=0@note_on channel=2 note=73 velocity=0 time=0@note_on channel=2 note=74 velocity=100 time=0@note_on channel=3 note=52 velocity=100 time=0@note_on channel=6 note=73 velocity=0 time=0@note_on channel=6 note=73 velocity=100 time=0@note_on channel=7 note=73 velocity=0 time=0@note_on channel=7 note=74 velocity=100 time=0@note_on channel=8 note=52 velocity=100 time=0@note_on channel=2 note=74 velocity=0 time=0.2272725@note_on channel=2 note=76 velocity=100 time=0@note_on channel=7 note=74 velocity=0 time=0@note_on channel=7 note=76 velocity=100 time=0@note_on channel=0 note=69 velocity=100 time=0.2272725@note_on channel=1 note=73 velocity=0 time=0@note_on channel=2 note=76 velocity=0 time=0@note_on channel=2 note=78 velocity=100 time=0@note_on channel=3 note=52 velocity=0 time=0@note_on channel=3 note=57 velocity=100 time=0@note_on channel=5 note=69 velocity=100 time=0@note_on channel=6 note=73 velocity=0 time=0@note_on channel=7 note=76 velocity=0 time=0@note_on channel=7 note=78 velocity=100 time=0@note_on channel=8 note=52 velocity=0 time=0@note_on channel=8 note=57 velocity=100 time=0@note_on channel=2 note=78 velocity=0 time=0.2272725@note_on channel=2 note=76 velocity=100 time=0@note_on channel=7 note=78 velocity=0 time=0@note_on channel=7 note=76 velocity=100 time=0@note_on channel=2 note=76 velocity=0 time=0.2272725@note_on channel=2 note=74 velocity=100 time=0@note_on channel=3 note=57 velocity=0 time=0@note_on channel=3 note=61 velocity=100 time=0@note_on channel=7 note=76 velocity=0 time=0@note_on channel=7 note=74 velocity=100 time=0@note_on channel=8 note=57 velocity=0 time=0@note_on channel=8 note=61 velocity=100 time=0@note_on channel=2 note=74 velocity=0 time=0.2272725@note_on channel=2 note=73 velocity=100 time=0@note_on channel=7 note=74 velocity=0 time=0@note_on channel=7 note=73 velocity=100 time=0@note_on channel=0 note=69 velocity=0 time=0.2272725@note_on channel=1 note=71 velocity=100 time=0@note_on channel=2 note=73 velocity=0 time=0@note_on channel=2 note=74 velocity=100 time=0@note_on channel=3 note=61 velocity=0 time=0@note_on channel=4 note=45 velocity=0 time=0@note_on channel=4 note=47 velocity=100 time=0@note_on channel=5 note=69 velocity=0 time=0@note_on channel=6 note=71 velocity=100 time=0@note_on channel=7 note=73 velocity=0 time=0@note_on channel=7 note=74 velocity=100 time=0@note_on channel=8 note=61 velocity=0 time=0@note_on channel=10 note=45 velocity=0 time=0@note_on channel=10 note=47 velocity=100 time=0@note_on channel=1 note=71 velocity=0 time=0.454545@note_on channel=1 note=71 velocity=100 time=0@note_on channel=2 note=74 velocity=0 time=0@note_on channel=2 note=71 velocity=100 time=0@note_on channel=3 note=50 velocity=100 time=0@note_on channel=6 note=71 velocity=0 time=0@note_on channel=6 note=71 velocity=100 time=0@note_on channel=7 note=74 velocity=0 time=0@note_on channel=7 note=71 velocity=100 time=0@note_on channel=8 note=50 velocity=100 time=0@note_on channel=2 note=71 velocity=0 time=0.2272725@note_on channel=2 note=73 velocity=100 time=0@note_on channel=7 note=71 velocity=0 time=0@note_on channel=7 note=73 velocity=100 time=0@note_on channel=0 note=74 velocity=100 time=0.2272725@note_on channel=1 note=71 velocity=0 time=0@note_on channel=2 note=73 velocity=0 time=0@note_on channel=2 note=74 velocity=100 time=0@note_on channel=3 note=50 velocity=0 time=0@note_on channel=3 note=54 velocity=100 time=0@note_on channel=5 note=74 velocity=100 time=0@note_on channel=6 note=71 velocity=0 time=0@note_on channel=7 note=73 velocity=0 time=0@note_on channel=7 note=74 velocity=100 time=0@note_on channel=8 note=50 velocity=0 time=0@note_on channel=8 note=54 velocity=100 time=0@note_on channel=0 note=74 velocity=0 time=0.454545@note_on channel=0 note=66 velocity=100 time=0@note_on channel=2 note=74 velocity=0 time=0@note_on channel=2 note=62 velocity=100 time=0@note_on channel=3 note=54 velocity=0 time=0@note_on channel=3 note=59 velocity=100 time=0@note_on channel=5 note=74 velocity=0 time=0@note_on channel=5 note=66 velocity=100 time=0@note_on channel=7 note=74 velocity=0 time=0@note_on channel=7 note=62 velocity=100 time=0@note_on channel=8 note=54 velocity=0 time=0@note_on channel=8 note=59 velocity=100 time=0@note_on channel=2 note=62 velocity=0 time=0.2272725@note_on channel=2 note=64 velocity=100 time=0@note_on channel=7 note=62 velocity=0 time=0@note_on channel=7 note=64 velocity=100 time=0@note_on channel=0 note=66 velocity=0 time=0.2272725@note_on channel=1 note=74 velocity=100 time=0@note_on channel=2 note=64 velocity=0 time=0@note_on channel=2 note=66 velocity=100 time=0@note_on channel=3 note=59 velocity=0 time=0@note_on channel=4 note=47 velocity=0 time=0@note_on channel=4 note=42 velocity=100 time=0@note_on channel=5 note=66 velocity=0 time=0@note_on channel=6 note=74 velocity=100 time=0@note_on channel=7 note=64 velocity=0 time=0@note_on channel=7 note=66 velocity=100 time=0@note_on channel=8 note=59 velocity=0 time=0@note_on channel=10 note=47 velocity=0 time=0@note_on channel=10 note=42 velocity=100 time=0@note_on channel=2 note=66 velocity=0 time=0.2272725@note_on channel=2 note=67 velocity=100 time=0@note_on channel=7 note=66 velocity=0 time=0@note_on channel=7 note=67 velocity=100 time=0@note_on channel=2 note=67 velocity=0 time=0.2272725@note_on channel=2 note=66 velocity=100 time=0@note_on channel=3 note=49 velocity=100 time=0@note_on channel=7 note=67 velocity=0 time=0@note_on channel=7 note=66 velocity=100 time=0@note_on channel=8 note=49 velocity=100 time=0@note_on channel=2 note=66 velocity=0 time=0.2272725@note_on channel=2 note=64 velocity=100 time=0@note_on channel=7 note=66 velocity=0 time=0@note_on channel=7 note=64 velocity=100 time=0@note_on channel=0 note=69 velocity=100 time=0.2272725@note_on channel=1 note=74 velocity=0 time=0@note_on channel=2 note=64 velocity=0 time=0@note_on channel=2 note=66 velocity=100 time=0@note_on channel=3 note=49 velocity=0 time=0@note_on channel=3 note=54 velocity=100 time=0@note_on channel=5 note=69 velocity=100 time=0@note_on channel=6 note=74 velocity=0 time=0@note_on channel=7 note=64 velocity=0 time=0@note_on channel=7 note=66 velocity=100 time=0@note_on channel=8 note=49 velocity=0 time=0@note_on channel=8 note=54 velocity=100 time=0@note_on channel=2 note=66 velocity=0 time=0.2272725@note_on channel=2 note=66 velocity=100 time=0@note_on channel=7 note=66 velocity=0 time=0@note_on channel=7 note=66 velocity=100 time=0@note_on channel=2 note=66 velocity=0 time=0.2272725@note_on channel=2 note=67 velocity=100 time=0@note_on channel=3 note=54 velocity=0 time=0@note_on channel=3 note=57 velocity=100 time=0@note_on channel=7 note=66 velocity=0 time=0@note_on channel=7 note=67 velocity=100 time=0@note_on channel=8 note=54 velocity=0 time=0@note_on channel=8 note=57 velocity=100 time=0@note_on channel=2 note=67 velocity=0 time=0.2272725@note_on channel=2 note=69 velocity=100 time=0@note_on channel=7 note=67 velocity=0 time=0@note_on channel=7 note=69 velocity=100 time=0@note_on channel=0 note=69 velocity=0 time=0.2272725@note_on channel=1 note=62 velocity=100 time=0@note_on channel=2 note=69 velocity=0 time=0@note_on channel=2 note=71 velocity=100 time=0@note_on channel=3 note=57 velocity=0 time=0@note_on channel=4 note=42 velocity=0 time=0@note_on channel=4 note=43 velocity=100 time=0@note_on channel=5 note=69 velocity=0 time=0@note_on channel=6 note=62 velocity=100 time=0@note_on channel=7 note=69 velocity=0 time=0@note_on channel=7 note=71 velocity=100 time=0@note_on channel=8 note=57 velocity=0 time=0@note_on channel=10 note=42 velocity=0 time=0@note_on channel=10 note=43 velocity=100 time=0@note_on channel=2 note=71 velocity=0 time=0.454545@note_on channel=2 note=74 velocity=100 time=0@note_on channel=3 note=47 velocity=100 time=0@note_on channel=7 note=71 velocity=0 time=0@note_on channel=7 note=74 velocity=100 time=0@note_on channel=8 note=47 velocity=100 time=0@note_on channel=2 note=74 velocity=0 time=0.2272725@note_on channel=2 note=73 velocity=100 time=0@note_on channel=7 note=74 velocity=0 time=0@note_on channel=7 note=73 velocity=100 time=0@note_on channel=0 note=67 velocity=100 time=0.2272725@note_on channel=1 note=62 velocity=0 time=0@note_on channel=2 note=73 velocity=0 time=0@note_on channel=2 note=71 velocity=100 time=0@note_on channel=3 note=47 velocity=0 time=0@note_on channel=3 note=50 velocity=100 time=0@note_on channel=5 note=67 velocity=100 time=0@note_on channel=6 note=62 velocity=0 time=0@note_on channel=7 note=73 velocity=0 time=0@note_on channel=7 note=71 velocity=100 time=0@note_on channel=8 note=47 velocity=0 time=0@note_on channel=8 note=50 velocity=100 time=0@note_on channel=2 note=71 velocity=0 time=0.454545@note_on channel=2 note=69 velocity=100 time=0@note_on channel=3 note=50 velocity=0 time=0@note_on channel=3 note=55 velocity=100 time=0@note_on channel=7 note=71 velocity=0 time=0@note_on channel=7 note=69 velocity=100 time=0@note_on channel=8 note=50 velocity=0 time=0@note_on channel=8 note=55 velocity=100 time=0@note_on channel=0 note=67 velocity=0 time=0.2272725@note_on channel=0 note=67 velocity=100 time=0@note_on channel=2 note=69 velocity=0 time=0@note_on channel=2 note=67 velocity=100 time=0@note_on channel=5 note=67 velocity=0 time=0@note_on channel=5 note=67 velocity=100 time=0@note_on channel=7 note=69 velocity=0 time=0@note_on channel=7 note=67 velocity=100 time=0@note_on channel=0 note=67 velocity=0 time=0.2272725@note_on channel=1 note=62 velocity=100 time=0@note_on channel=2 note=67 velocity=0 time=0@note_on channel=2 note=69 velocity=100 time=0@note_on channel=3 note=55 velocity=0 time=0@note_on channel=4 note=43 velocity=0 time=0@note_on channel=4 note=38 velocity=100 time=0@note_on channel=5 note=67 velocity=0 time=0@note_on channel=6 note=62 velocity=100 time=0@note_on channel=7 note=67 velocity=0 time=0@note_on channel=7 note=69 velocity=100 time=0@note_on channel=8 note=55 velocity=0 time=0@note_on channel=10 note=43 velocity=0 time=0@note_on channel=10 note=38 velocity=100 time=0@note_on channel=2 note=69 velocity=0 time=0.2272725@note_on channel=2 note=67 velocity=100 time=0@note_on channel=7 note=69 velocity=0 time=0@note_on channel=7 note=67 velocity=100 time=0@note_on channel=2 note=67 velocity=0 time=0.2272725@note_on channel=2 note=66 velocity=100 time=0@note_on channel=3 note=54 velocity=100 time=0@note_on channel=7 note=67 velocity=0 time=0@note_on channel=7 note=66 velocity=100 time=0@note_on channel=8 note=54 velocity=100 time=0@note_on channel=2 note=66 velocity=0 time=0.2272725@note_on channel=2 note=67 velocity=100 time=0@note_on channel=7 note=66 velocity=0 time=0@note_on channel=7 note=67 velocity=100 time=0@note_on channel=0 note=66 velocity=100 time=0.2272725@note_on channel=1 note=62 velocity=0 time=0@note_on channel=2 note=67 velocity=0 time=0@note_on channel=2 note=69 velocity=100 time=0@note_on channel=3 note=54 velocity=0 time=0@note_on channel=3 note=57 velocity=100 time=0@note_on channel=5 note=66 velocity=100 time=0@note_on channel=6 note=62 velocity=0 time=0@note_on channel=7 note=67 velocity=0 time=0@note_on channel=7 note=69 velocity=100 time=0@note_on channel=8 note=54 velocity=0 time=0@note_on channel=8 note=57 velocity=100 time=0@note_on channel=2 note=69 velocity=0 time=0.2272725@note_on channel=2 note=71 velocity=100 time=0@note_on channel=7 note=69 velocity=0 time=0@note_on channel=7 note=71 velocity=100 time=0@note_on channel=2 note=71 velocity=0 time=0.2272725@note_on channel=2 note=73 velocity=100 time=0@note_on channel=3 note=57 velocity=0 time=0@note_on channel=3 note=62 velocity=100 time=0@note_on channel=7 note=71 velocity=0 time=0@note_on channel=7 note=73 velocity=100 time=0@note_on channel=8 note=57 velocity=0 time=0@note_on channel=8 note=62 velocity=100 time=0@note_on channel=2 note=73 velocity=0 time=0.2272725@note_on channel=2 note=74 velocity=100 time=0@note_on channel=7 note=73 velocity=0 time=0@note_on channel=7 note=74 velocity=100 time=0@note_on channel=0 note=66 velocity=0 time=0.2272725@note_on channel=1 note=62 velocity=100 time=0@note_on channel=2 note=74 velocity=0 time=0@note_on channel=2 note=71 velocity=100 time=0@note_on channel=3 note=62 velocity=0 time=0@note_on channel=4 note=38 velocity=0 time=0@note_on channel=4 note=43 velocity=100 time=0@note_on channel=5 note=66 velocity=0 time=0@note_on channel=6 note=62 velocity=100 time=0@note_on channel=7 note=74 velocity=0 time=0@note_on channel=7 note=71 velocity=100 time=0@note_on channel=8 note=62 velocity=0 time=0@note_on channel=10 note=38 velocity=0 time=0@note_on channel=10 note=43 velocity=100 time=0@note_on channel=2 note=71 velocity=0 time=0.454545@note_on channel=2 note=74 velocity=100 time=0@note_on channel=3 note=52 velocity=100 time=0@note_on channel=7 note=71 velocity=0 time=0@note_on channel=7 note=74 velocity=100 time=0@note_on channel=8 note=52 velocity=100 time=0@note_on channel=2 note=74 velocity=0 time=0.2272725@note_on channel=2 note=73 velocity=100 time=0@note_on channel=7 note=74 velocity=0 time=0@note_on channel=7 note=73 velocity=100 time=0@note_on channel=0 note=67 velocity=100 time=0.2272725@note_on channel=1 note=62 velocity=0 time=0@note_on channel=2 note=73 velocity=0 time=0@note_on channel=2 note=74 velocity=100 time=0@note_on channel=3 note=52 velocity=0 time=0@note_on channel=3 note=59 velocity=100 time=0@note_on channel=5 note=67 velocity=100 time=0@note_on channel=6 note=62 velocity=0 time=0@note_on channel=7 note=73 velocity=0 time=0@note_on channel=7 note=74 velocity=100 time=0@note_on channel=8 note=52 velocity=0 time=0@note_on channel=8 note=59 velocity=100 time=0@note_on channel=2 note=74 velocity=0 time=0.454545@note_on channel=2 note=73 velocity=100 time=0@note_on channel=3 note=59 velocity=0 time=0@note_on channel=3 note=62 velocity=100 time=0@note_on channel=7 note=74 velocity=0 time=0@note_on channel=7 note=73 velocity=100 time=0@note_on channel=8 note=59 velocity=0 time=0@note_on channel=8 note=62 velocity=100 time=0@note_on channel=2 note=73 velocity=0 time=0.2272725@note_on channel=2 note=71 velocity=100 time=0@note_on channel=7 note=73 velocity=0 time=0@note_on channel=7 note=71 velocity=100 time=0@note_on channel=0 note=67 velocity=0 time=0.2272725@note_on channel=1 note=64 velocity=100 time=0@note_on channel=2 note=71 velocity=0 time=0@note_on channel=2 note=73 velocity=100 time=0@note_on channel=3 note=62 velocity=0 time=0@note_on channel=4 note=43 velocity=0 time=0@note_on channel=4 note=45 velocity=100 time=0@note_on channel=5 note=67 velocity=0 time=0@note_on channel=6 note=64 velocity=100 time=0@note_on channel=7 note=71 velocity=0 time=0@note_on channel=7 note=73 velocity=100 time=0@note_on channel=8 note=62 velocity=0 time=0@note_on channel=10 note=43 velocity=0 time=0@note_on channel=10 note=45 velocity=100 time=0@note_on channel=2 note=73 velocity=0 time=0.2272725@note_on channel=2 note=74 velocity=100 time=0@note_on channel=7 note=73 velocity=0 time=0@note_on channel=7 note=74 velocity=100 time=0@note_on channel=2 note=74 velocity=0 time=0.2272725@note_on channel=2 note=76 velocity=100 time=0@note_on channel=3 note=52 velocity=100 time=0@note_on channel=7 note=74 velocity=0 time=0@note_on channel=7 note=76 velocity=100 time=0@note_on channel=8 note=52 velocity=100 time=0@note_on channel=2 note=76 velocity=0 time=0.2272725@note_on channel=2 note=74 velocity=100 time=0@note_on channel=7 note=76 velocity=0 time=0@note_on channel=7 note=74 velocity=100 time=0@note_on channel=0 note=76 velocity=100 time=0.2272725@note_on channel=1 note=64 velocity=0 time=0@note_on channel=2 note=74 velocity=0 time=0@note_on channel=2 note=73 velocity=100 time=0@note_on channel=3 note=52 velocity=0 time=0@note_on channel=3 note=57 velocity=100 time=0@note_on channel=5 note=76 velocity=100 time=0@note_on channel=6 note=64 velocity=0 time=0@note_on channel=7 note=74 velocity=0 time=0@note_on channel=7 note=73 velocity=100 time=0@note_on channel=8 note=52 velocity=0 time=0@note_on channel=8 note=57 velocity=100 time=0@note_on channel=2 note=73 velocity=0 time=0.2272725@note_on channel=2 note=74 velocity=100 time=0@note_on channel=7 note=73 velocity=0 time=0@note_on channel=7 note=74 velocity=100 time=0@note_on channel=2 note=74 velocity=0 time=0.2272725@note_on channel=2 note=71 velocity=100 time=0@note_on channel=3 note=57 velocity=0 time=0@note_on channel=3 note=61 velocity=100 time=0@note_on channel=7 note=74 velocity=0 time=0@note_on channel=7 note=71 velocity=100 time=0@note_on channel=8 note=57 velocity=0 time=0@note_on channel=8 note=61 velocity=100 time=0@note_on channel=2 note=71 velocity=0 time=0.2272725@note_on channel=2 note=73 velocity=100 time=0@note_on channel=7 note=71 velocity=0 time=0@note_on channel=7 note=73 velocity=100 time=0@note_on channel=0 note=76 velocity=0 time=0.2272725@note_on channel=0 note=78 velocity=100 time=0@note_on channel=2 note=73 velocity=0 time=0@note_on channel=2 note=74 velocity=100 time=0@note_on channel=3 note=61 velocity=0 time=0@note_on channel=4 note=45 velocity=0 time=0@note_on channel=4 note=50 velocity=100 time=0@note_on channel=5 note=76 velocity=0 time=0@note_on channel=5 note=78 velocity=100 time=0@note_on channel=7 note=73 velocity=0 time=0@note_on channel=7 note=74 velocity=100 time=0@note_on channel=8 note=61 velocity=0 time=0@note_on channel=10 note=45 velocity=0 time=0@note_on channel=10 note=50 velocity=100 time=0@note_on channel=0 note=78 velocity=0 time=0.454545@note_on channel=0 note=66 velocity=100 time=0@note_on channel=3 note=57 velocity=100 time=0@note_on channel=5 note=78 velocity=0 time=0@note_on channel=5 note=66 velocity=100 time=0@note_on channel=8 note=57 velocity=100 time=0@note_on channel=0 note=66 velocity=0 time=0.454545@note_on channel=0 note=67 velocity=100 time=0@note_on channel=1 note=69 velocity=100 time=0@note_on channel=2 note=74 velocity=0 time=0@note_on channel=3 note=57 velocity=0 time=0@note_on channel=3 note=62 velocity=100 time=0@note_on channel=5 note=66 velocity=0 time=0@note_on channel=5 note=67 velocity=100 time=0@note_on channel=6 note=69 velocity=100 time=0@note_on channel=7 note=74 velocity=0 time=0@note_on channel=8 note=57 velocity=0 time=0@note_on channel=8 note=62 velocity=100 time=0@note_on channel=0 note=67 velocity=0 time=0.454545@note_on channel=0 note=66 velocity=100 time=0@note_on channel=3 note=62 velocity=0 time=0@note_on channel=3 note=66 velocity=100 time=0@note_on channel=5 note=67 velocity=0 time=0@note_on channel=5 note=66 velocity=100 time=0@note_on channel=8 note=62 velocity=0 time=0@note_on channel=8 note=66 velocity=100 time=0@note_on channel=0 note=66 velocity=0 time=0.454545@note_on channel=0 note=64 velocity=100 time=0@note_on channel=1 note=69 velocity=0 time=0@note_on channel=2 note=73 velocity=100 time=0@note_on channel=3 note=66 velocity=0 time=0@note_on channel=4 note=50 velocity=0 time=0@note_on channel=4 note=45 velocity=100 time=0@note_on channel=5 note=66 velocity=0 time=0@note_on channel=5 note=64 velocity=100 time=0@note_on channel=6 note=69 velocity=0 time=0@note_on channel=7 note=73 velocity=100 time=0@note_on channel=8 note=66 velocity=0 time=0@note_on channel=10 note=50 velocity=0 time=0@note_on channel=10 note=45 velocity=100 time=0@note_on channel=0 note=64 velocity=0 time=0.454545@note_on channel=0 note=76 velocity=100 time=0@note_on channel=3 note=52 velocity=100 time=0@note_on channel=5 note=64 velocity=0 time=0@note_on channel=5 note=76 velocity=100 time=0@note_on channel=8 note=52 velocity=100 time=0@note_on channel=0 note=76 velocity=0 time=0.454545@note_on channel=0 note=78 velocity=100 time=0@note_on channel=1 note=69 velocity=100 time=0@note_on channel=2 note=73 velocity=0 time=0@note_on channel=3 note=52 velocity=0 time=0@note_on channel=3 note=57 velocity=100 time=0@note_on channel=5 note=76 velocity=0 time=0@note_on channel=5 note=78 velocity=100 time=0@note_on channel=6 note=69 velocity=100 time=0@note_on channel=7 note=73 velocity=0 time=0@note_on channel=8 note=52 velocity=0 time=0@note_on channel=8 note=57 velocity=100 time=0@note_on channel=0 note=78 velocity=0 time=0.454545@note_on channel=0 note=76 velocity=100 time=0@note_on channel=3 note=57 velocity=0 time=0@note_on channel=3 note=61 velocity=100 time=0@note_on channel=5 note=78 velocity=0 time=0@note_on channel=5 note=76 velocity=100 time=0@note_on channel=8 note=57 velocity=0 time=0@note_on channel=8 note=61 velocity=100 time=0@note_on channel=0 note=76 velocity=0 time=0.454545@note_on channel=0 note=74 velocity=100 time=0@note_on channel=1 note=69 velocity=0 time=0@note_on channel=2 note=71 velocity=100 time=0@note_on channel=3 note=61 velocity=0 time=0@note_on channel=4 note=45 velocity=0 time=0@note_on channel=4 note=47 velocity=100 time=0@note_on channel=5 note=76 velocity=0 time=0@note_on channel=5 note=74 velocity=100 time=0@note_on channel=6 note=69 velocity=0 time=0@note_on channel=7 note=71 velocity=100 time=0@note_on channel=8 note=61 velocity=0 time=0@note_on channel=10 note=45 velocity=0 time=0@note_on channel=10 note=47 velocity=100 time=0@note_on channel=0 note=74 velocity=0 time=0.454545@note_on channel=0 note=66 velocity=100 time=0@note_on channel=3 note=50 velocity=100 time=0@note_on channel=5 note=74 velocity=0 time=0@note_on channel=5 note=66 velocity=100 time=0@note_on channel=8 note=50 velocity=100 time=0@note_on channel=0 note=66 velocity=0 time=0.454545@note_on channel=0 note=62 velocity=100 time=0@note_on channel=1 note=66 velocity=100 time=0@note_on channel=2 note=71 velocity=0 time=0@note_on channel=3 note=50 velocity=0 time=0@note_on channel=3 note=54 velocity=100 time=0@note_on channel=5 note=66 velocity=0 time=0@note_on channel=5 note=62 velocity=100 time=0@note_on channel=6 note=66 velocity=100 time=0@note_on channel=7 note=71 velocity=0 time=0@note_on channel=8 note=50 velocity=0 time=0@note_on channel=8 note=54 velocity=100 time=0@note_on channel=0 note=62 velocity=0 time=0.454545@note_on channel=0 note=71 velocity=100 time=0@note_on channel=3 note=54 velocity=0 time=0@note_on channel=3 note=59 velocity=100 time=0@note_on channel=5 note=62 velocity=0 time=0@note_on channel=5 note=71 velocity=100 time=0@note_on channel=8 note=54 velocity=0 time=0@note_on channel=8 note=59 velocity=100 time=0@note_on channel=0 note=71 velocity=0 time=0.454545@note_on channel=0 note=69 velocity=100 time=0@note_on channel=1 note=66 velocity=0 time=0@note_on channel=2 note=74 velocity=100 time=0@note_on channel=3 note=59 velocity=0 time=0@note_on channel=4 note=47 velocity=0 time=0@note_on channel=4 note=42 velocity=100 time=0@note_on channel=5 note=71 velocity=0 time=0@note_on channel=5 note=69 velocity=100 time=0@note_on channel=6 note=66 velocity=0 time=0@note_on channel=7 note=74 velocity=100 time=0@note_on channel=8 note=59 velocity=0 time=0@note_on channel=10 note=47 velocity=0 time=0@note_on channel=10 note=42 velocity=100 time=0@note_on channel=0 note=69 velocity=0 time=0.454545@note_on channel=0 note=57 velocity=100 time=0@note_on channel=3 note=49 velocity=100 time=0@note_on channel=5 note=69 velocity=0 time=0@note_on channel=5 note=57 velocity=100 time=0@note_on channel=8 note=49 velocity=100 time=0@note_on channel=0 note=57 velocity=0 time=0.454545@note_on channel=0 note=55 velocity=100 time=0@note_on channel=1 note=69 velocity=100 time=0@note_on channel=2 note=74 velocity=0 time=0@note_on channel=3 note=49 velocity=0 time=0@note_on channel=3 note=54 velocity=100 time=0@note_on channel=5 note=57 velocity=0 time=0@note_on channel=5 note=55 velocity=100 time=0@note_on channel=6 note=69 velocity=100 time=0@note_on channel=7 note=74 velocity=0 time=0@note_on channel=8 note=49 velocity=0 time=0@note_on channel=8 note=54 velocity=100 time=0@note_on channel=0 note=55 velocity=0 time=0.454545@note_on channel=0 note=57 velocity=100 time=0@note_on channel=3 note=54 velocity=0 time=0@note_on channel=3 note=57 velocity=100 time=0@note_on channel=5 note=55 velocity=0 time=0@note_on channel=5 note=57 velocity=100 time=0@note_on channel=8 note=54 velocity=0 time=0@note_on channel=8 note=57 velocity=100 time=0@note_on channel=0 note=57 velocity=0 time=0.454545@note_on channel=0 note=59 velocity=100 time=0@note_on channel=1 note=69 velocity=0 time=0@note_on channel=2 note=62 velocity=100 time=0@note_on channel=3 note=57 velocity=0 time=0@note_on channel=4 note=42 velocity=0 time=0@note_on channel=4 note=43 velocity=100 time=0@note_on channel=5 note=57 velocity=0 time=0@note_on channel=5 note=59 velocity=100 time=0@note_on channel=6 note=69 velocity=0 time=0@note_on channel=7 note=62 velocity=100 time=0@note_on channel=8 note=57 velocity=0 time=0@note_on channel=10 note=42 velocity=0 time=0@note_on channel=10 note=43 velocity=100 time=0@note_on channel=0 note=59 velocity=0 time=0.454545@note_on channel=0 note=71 velocity=100 time=0@note_on channel=3 note=47 velocity=100 time=0@note_on channel=5 note=59 velocity=0 time=0@note_on channel=5 note=71 velocity=100 time=0@note_on channel=8 note=47 velocity=100 time=0@note_on channel=0 note=71 velocity=0 time=0.454545@note_on channel=0 note=73 velocity=100 time=0@note_on channel=1 note=67 velocity=100 time=0@note_on channel=2 note=62 velocity=0 time=0@note_on channel=3 note=47 velocity=0 time=0@note_on channel=3 note=50 velocity=100 time=0@note_on channel=5 note=71 velocity=0 time=0@note_on channel=5 note=73 velocity=100 time=0@note_on channel=6 note=67 velocity=100 time=0@note_on channel=7 note=62 velocity=0 time=0@note_on channel=8 note=47 velocity=0 time=0@note_on channel=8 note=50 velocity=100 time=0@note_on channel=0 note=73 velocity=0 time=0.454545@note_on channel=0 note=71 velocity=100 time=0@note_on channel=3 note=50 velocity=0 time=0@note_on channel=3 note=55 velocity=100 time=0@note_on channel=5 note=73 velocity=0 time=0@note_on channel=5 note=71 velocity=100 time=0@note_on channel=8 note=50 velocity=0 time=0@note_on channel=8 note=55 velocity=100 time=0@note_on channel=0 note=71 velocity=0 time=0.454545@note_on channel=0 note=69 velocity=100 time=0@note_on channel=1 note=67 velocity=0 time=0@note_on channel=2 note=62 velocity=100 time=0@note_on channel=3 note=55 velocity=0 time=0@note_on channel=4 note=43 velocity=0 time=0@note_on channel=4 note=38 velocity=100 time=0@note_on channel=5 note=71 velocity=0 time=0@note_on channel=5 note=69 velocity=100 time=0@note_on channel=6 note=67 velocity=0 time=0@note_on channel=7 note=62 velocity=100 time=0@note_on channel=8 note=55 velocity=0 time=0@note_on channel=10 note=43 velocity=0 time=0@note_on channel=10 note=38 velocity=100 time=0@note_on channel=0 note=69 velocity=0 time=0.454545@note_on channel=0 note=57 velocity=100 time=0@note_on channel=3 note=54 velocity=100 time=0@note_on channel=5 note=69 velocity=0 time=0@note_on channel=5 note=57 velocity=100 time=0@note_on channel=8 note=54 velocity=100 time=0@note_on channel=0 note=57 velocity=0 time=0.454545@note_on channel=0 note=57 velocity=100 time=0@note_on channel=1 note=66 velocity=100 time=0@note_on channel=2 note=62 velocity=0 time=0@note_on channel=3 note=54 velocity=0 time=0@note_on channel=3 note=57 velocity=100 time=0@note_on channel=5 note=57 velocity=0 time=0@note_on channel=5 note=57 velocity=100 time=0@note_on channel=6 note=66 velocity=100 time=0@note_on channel=7 note=62 velocity=0 time=0@note_on channel=8 note=54 velocity=0 time=0@note_on channel=8 note=57 velocity=100 time=0@note_on channel=0 note=57 velocity=0 time=0.454545@note_on channel=0 note=57 velocity=100 time=0@note_on channel=3 note=57 velocity=0 time=0@note_on channel=3 note=62 velocity=100 time=0@note_on channel=5 note=57 velocity=0 time=0@note_on channel=5 note=57 velocity=100 time=0@note_on channel=8 note=57 velocity=0 time=0@note_on channel=8 note=62 velocity=100 time=0@note_on channel=0 note=57 velocity=0 time=0.454545@note_on channel=0 note=59 velocity=100 time=0@note_on channel=1 note=66 velocity=0 time=0@note_on channel=2 note=62 velocity=100 time=0@note_on channel=3 note=62 velocity=0 time=0@note_on channel=4 note=38 velocity=0 time=0@note_on channel=4 note=43 velocity=100 time=0@note_on channel=5 note=57 velocity=0 time=0@note_on channel=5 note=59 velocity=100 time=0@note_on channel=6 note=66 velocity=0 time=0@note_on channel=7 note=62 velocity=100 time=0@note_on channel=8 note=62 velocity=0 time=0@note_on channel=10 note=38 velocity=0 time=0@note_on channel=10 note=43 velocity=100 time=0@note_on channel=0 note=59 velocity=0 time=0.454545@note_on channel=0 note=71 velocity=100 time=0@note_on channel=3 note=52 velocity=100 time=0@note_on channel=5 note=59 velocity=0 time=0@note_on channel=5 note=71 velocity=100 time=0@note_on channel=8 note=52 velocity=100 time=0@note_on channel=0 note=71 velocity=0 time=0.454545@note_on channel=0 note=69 velocity=100 time=0@note_on channel=1 note=67 velocity=100 time=0@note_on channel=2 note=62 velocity=0 time=0@note_on channel=3 note=52 velocity=0 time=0@note_on channel=3 note=59 velocity=100 time=0@note_on channel=5 note=71 velocity=0 time=0@note_on channel=5 note=69 velocity=100 time=0@note_on channel=6 note=67 velocity=100 time=0@note_on channel=7 note=62 velocity=0 time=0@note_on channel=8 note=52 velocity=0 time=0@note_on channel=8 note=59 velocity=100 time=0@note_on channel=0 note=69 velocity=0 time=0.454545@note_on channel=0 note=71 velocity=100 time=0@note_on channel=3 note=59 velocity=0 time=0@note_on channel=3 note=62 velocity=100 time=0@note_on channel=5 note=69 velocity=0 time=0@note_on channel=5 note=71 velocity=100 time=0@note_on channel=8 note=59 velocity=0 time=0@note_on channel=8 note=62 velocity=100 time=0@note_on channel=0 note=71 velocity=0 time=0.454545@note_on channel=0 note=73 velocity=100 time=0@note_on channel=1 note=67 velocity=0 time=0@note_on channel=2 note=64 velocity=100 time=0@note_on channel=3 note=62 velocity=0 time=0@note_on channel=4 note=43 velocity=0 time=0@note_on channel=4 note=45 velocity=100 time=0@note_on channel=5 note=71 velocity=0 time=0@note_on channel=5 note=73 velocity=100 time=0@note_on channel=6 note=67 velocity=0 time=0@note_on channel=7 note=64 velocity=100 time=0@note_on channel=8 note=62 velocity=0 time=0@note_on channel=10 note=43 velocity=0 time=0@note_on channel=10 note=45 velocity=100 time=0@note_on channel=0 note=73 velocity=0 time=0.454545@note_on channel=0 note=61 velocity=100 time=0@note_on channel=3 note=52 velocity=100 time=0@note_on channel=5 note=73 velocity=0 time=0@note_on channel=5 note=61 velocity=100 time=0@note_on channel=8 note=52 velocity=100 time=0@note_on channel=0 note=61 velocity=0 time=0.454545@note_on channel=0 note=59 velocity=100 time=0@note_on channel=1 note=76 velocity=100 time=0@note_on channel=2 note=64 velocity=0 time=0@note_on channel=3 note=52 velocity=0 time=0@note_on channel=3 note=57 velocity=100 time=0@note_on channel=5 note=61 velocity=0 time=0@note_on channel=5 note=59 velocity=100 time=0@note_on channel=6 note=76 velocity=100 time=0@note_on channel=7 note=64 velocity=0 time=0@note_on channel=8 note=52 velocity=0 time=0@note_on channel=8 note=57 velocity=100 time=0@note_on channel=0 note=59 velocity=0 time=0.454545@note_on channel=0 note=61 velocity=100 time=0@note_on channel=3 note=57 velocity=0 time=0@note_on channel=3 note=61 velocity=100 time=0@note_on channel=5 note=59 velocity=0 time=0@note_on channel=5 note=61 velocity=100 time=0@note_on channel=8 note=57 velocity=0 time=0@note_on channel=8 note=61 velocity=100 time=0@note_on channel=0 note=61 velocity=0 time=0.454545@note_on channel=0 note=62 velocity=100 time=0@control_change channel=0 control=7 value=70 time=0@note_on channel=1 note=76 velocity=0 time=0@note_on channel=1 note=78 velocity=100 time=0@control_change channel=1 control=7 value=70 time=0@control_change channel=2 control=7 value=70 time=0@note_on channel=3 note=61 velocity=0 time=0@control_change channel=3 control=7 value=70 time=0@note_on channel=4 note=45 velocity=0 time=0@note_on channel=4 note=50 velocity=100 time=0@control_change channel=4 control=7 value=70 time=0@note_on channel=5 note=61 velocity=0 time=0@note_on channel=5 note=62 velocity=100 time=0@control_change channel=5 control=7 value=70 time=0@note_on channel=6 note=76 velocity=0 time=0@note_on channel=6 note=78 velocity=100 time=0@control_change channel=6 control=7 value=70 time=0@control_change channel=7 control=7 value=70 time=0@note_on channel=8 note=61 velocity=0 time=0@control_change channel=8 control=7 value=70 time=0@note_on channel=10 note=45 velocity=0 time=0@note_on channel=10 note=50 velocity=100 time=0@control_change channel=10 control=7 value=70 time=0@note_on channel=0 note=62 velocity=0 time=0.454545@note_on channel=0 note=74 velocity=100 time=0@note_on channel=1 note=78 velocity=0 time=0@note_on channel=1 note=66 velocity=100 time=0@note_on channel=3 note=57 velocity=100 time=0@note_on channel=5 note=62 velocity=0 time=0@note_on channel=5 note=74 velocity=100 time=0@note_on channel=6 note=78 velocity=0 time=0@note_on channel=6 note=66 velocity=100 time=0@note_on channel=8 note=57 velocity=100 time=0@note_on channel=0 note=74 velocity=0 time=0.454545@note_on channel=0 note=76 velocity=100 time=0@note_on channel=1 note=66 velocity=0 time=0@note_on channel=1 note=67 velocity=100 time=0@note_on channel=2 note=69 velocity=100 time=0@note_on channel=3 note=57 velocity=0 time=0@note_on channel=3 note=62 velocity=100 time=0@note_on channel=5 note=74 velocity=0 time=0@note_on channel=5 note=76 velocity=100 time=0@note_on channel=6 note=66 velocity=0 time=0@note_on channel=6 note=67 velocity=100 time=0@note_on channel=7 note=69 velocity=100 time=0@note_on channel=8 note=57 velocity=0 time=0@note_on channel=8 note=62 velocity=100 time=0@note_on channel=0 note=76 velocity=0 time=0.454545@note_on channel=0 note=74 velocity=100 time=0@note_on channel=1 note=67 velocity=0 time=0@note_on channel=1 note=66 velocity=100 time=0@note_on channel=3 note=62 velocity=0 time=0@note_on channel=3 note=66 velocity=100 time=0@note_on channel=5 note=76 velocity=0 time=0@note_on channel=5 note=74 velocity=100 time=0@note_on channel=6 note=67 velocity=0 time=0@note_on channel=6 note=66 velocity=100 time=0@note_on channel=8 note=62 velocity=0 time=0@note_on channel=8 note=66 velocity=100 time=0@note_on channel=0 note=74 velocity=0 time=0.454545@note_on channel=0 note=73 velocity=100 time=0@note_on channel=1 note=66 velocity=0 time=0@note_on channel=1 note=64 velocity=100 time=0@note_on channel=2 note=69 velocity=0 time=0@note_on channel=3 note=66 velocity=0 time=0@note_on channel=4 note=50 velocity=0 time=0@note_on channel=4 note=45 velocity=100 time=0@note_on channel=5 note=74 velocity=0 time=0@note_on channel=5 note=73 velocity=100 time=0@note_on channel=6 note=66 velocity=0 time=0@note_on channel=6 note=64 velocity=100 time=0@note_on channel=7 note=69 velocity=0 time=0@note_on channel=8 note=66 velocity=0 time=0@note_on channel=10 note=50 velocity=0 time=0@note_on channel=10 note=45 velocity=100 time=0@note_on channel=0 note=73 velocity=0 time=0.454545@note_on channel=0 note=61 velocity=100 time=0@note_on channel=1 note=64 velocity=0 time=0@note_on channel=1 note=76 velocity=100 time=0@note_on channel=3 note=52 velocity=100 time=0@note_on channel=5 note=73 velocity=0 time=0@note_on channel=5 note=61 velocity=100 time=0@note_on channel=6 note=64 velocity=0 time=0@note_on channel=6 note=76 velocity=100 time=0@note_on channel=8 note=52 velocity=100 time=0@note_on channel=0 note=61 velocity=0 time=0.454545@note_on channel=0 note=62 velocity=100 time=0@note_on channel=1 note=76 velocity=0 time=0@note_on channel=1 note=78 velocity=100 time=0@note_on channel=2 note=69 velocity=100 time=0@note_on channel=3 note=52 velocity=0 time=0@note_on channel=3 note=57 velocity=100 time=0@note_on channel=5 note=61 velocity=0 time=0@note_on channel=5 note=62 velocity=100 time=0@note_on channel=6 note=76 velocity=0 time=0@note_on channel=6 note=78 velocity=100 time=0@note_on channel=7 note=69 velocity=100 time=0@note_on channel=8 note=52 velocity=0 time=0@note_on channel=8 note=57 velocity=100 time=0@note_on channel=0 note=62 velocity=0 time=0.454545@note_on channel=0 note=61 velocity=100 time=0@note_on channel=1 note=78 velocity=0 time=0@note_on channel=1 note=76 velocity=100 time=0@note_on channel=3 note=57 velocity=0 time=0@note_on channel=3 note=61 velocity=100 time=0@note_on channel=5 note=62 velocity=0 time=0@note_on channel=5 note=61 velocity=100 time=0@note_on channel=6 note=78 velocity=0 time=0@note_on channel=6 note=76 velocity=100 time=0@note_on channel=8 note=57 velocity=0 time=0@note_on channel=8 note=61 velocity=100 time=0@note_on channel=0 note=61 velocity=0 time=0.454545@note_on channel=0 note=59 velocity=100 time=0@note_on channel=1 note=76 velocity=0 time=0@note_on channel=1 note=74 velocity=100 time=0@note_on channel=2 note=69 velocity=0 time=0@note_on channel=3 note=61 velocity=0 time=0@note_on channel=4 note=45 velocity=0 time=0@note_on channel=4 note=47 velocity=100 time=0@note_on channel=5 note=61 velocity=0 time=0@note_on channel=5 note=59 velocity=100 time=0@note_on channel=6 note=76 velocity=0 time=0@note_on channel=6 note=74 velocity=100 time=0@note_on channel=7 note=69 velocity=0 time=0@note_on channel=8 note=61 velocity=0 time=0@note_on channel=10 note=45 velocity=0 time=0@note_on channel=10 note=47 velocity=100 time=0@note_on channel=0 note=59 velocity=0 time=0.454545@note_on channel=0 note=71 velocity=100 time=0@note_on channel=1 note=74 velocity=0 time=0@note_on channel=1 note=66 velocity=100 time=0@note_on channel=3 note=50 velocity=100 time=0@note_on channel=5 note=59 velocity=0 time=0@note_on channel=5 note=71 velocity=100 time=0@note_on channel=6 note=74 velocity=0 time=0@note_on channel=6 note=66 velocity=100 time=0@note_on channel=8 note=50 velocity=100 time=0@note_on channel=0 note=71 velocity=0 time=0.454545@note_on channel=0 note=69 velocity=100 time=0@note_on channel=1 note=66 velocity=0 time=0@note_on channel=1 note=62 velocity=100 time=0@note_on channel=2 note=69 velocity=100 time=0@note_on channel=2 note=66 velocity=100 time=0@note_on channel=3 note=50 velocity=0 time=0@note_on channel=3 note=54 velocity=100 time=0@note_on channel=5 note=71 velocity=0 time=0@note_on channel=5 note=69 velocity=100 time=0@note_on channel=6 note=66 velocity=0 time=0@note_on channel=6 note=62 velocity=100 time=0@note_on channel=7 note=69 velocity=100 time=0@note_on channel=7 note=66 velocity=100 time=0@note_on channel=8 note=50 velocity=0 time=0@note_on channel=8 note=54 velocity=100 time=0@note_on channel=0 note=69 velocity=0 time=0.454545@note_on channel=0 note=71 velocity=100 time=0@note_on channel=1 note=62 velocity=0 time=0@note_on channel=1 note=71 velocity=100 time=0@note_on channel=3 note=54 velocity=0 time=0@note_on channel=3 note=59 velocity=100 time=0@note_on channel=5 note=69 velocity=0 time=0@note_on channel=5 note=71 velocity=100 time=0@note_on channel=6 note=62 velocity=0 time=0@note_on channel=6 note=71 velocity=100 time=0@note_on channel=8 note=54 velocity=0 time=0@note_on channel=8 note=59 velocity=100 time=0@note_on channel=0 note=71 velocity=0 time=0.454545@note_on channel=0 note=73 velocity=100 time=0@note_on channel=1 note=71 velocity=0 time=0@note_on channel=1 note=69 velocity=100 time=0@note_on channel=2 note=66 velocity=0 time=0@note_on channel=2 note=69 velocity=0 time=0@note_on channel=3 note=59 velocity=0 time=0@note_on channel=4 note=47 velocity=0 time=0@note_on channel=4 note=42 velocity=100 time=0@note_on channel=5 note=71 velocity=0 time=0@note_on channel=5 note=73 velocity=100 time=0@note_on channel=6 note=71 velocity=0 time=0@note_on channel=6 note=69 velocity=100 time=0@note_on channel=7 note=66 velocity=0 time=0@note_on channel=7 note=69 velocity=0 time=0@note_on channel=8 note=59 velocity=0 time=0@note_on channel=10 note=47 velocity=0 time=0@note_on channel=10 note=42 velocity=100 time=0@note_on channel=0 note=73 velocity=0 time=0.454545@note_on channel=0 note=61 velocity=100 time=0@note_on channel=1 note=69 velocity=0 time=0@note_on channel=1 note=57 velocity=100 time=0@note_on channel=3 note=49 velocity=100 time=0@note_on channel=5 note=73 velocity=0 time=0@note_on channel=5 note=61 velocity=100 time=0@note_on channel=6 note=69 velocity=0 time=0@note_on channel=6 note=57 velocity=100 time=0@note_on channel=8 note=49 velocity=100 time=0@note_on channel=0 note=61 velocity=0 time=0.454545@note_on channel=0 note=66 velocity=100 time=0@note_on channel=1 note=57 velocity=0 time=0@note_on channel=1 note=55 velocity=100 time=0@note_on channel=2 note=69 velocity=100 time=0@note_on channel=3 note=49 velocity=0 time=0@note_on channel=3 note=54 velocity=100 time=0@note_on channel=5 note=61 velocity=0 time=0@note_on channel=5 note=66 velocity=100 time=0@note_on channel=6 note=57 velocity=0 time=0@note_on channel=6 note=55 velocity=100 time=0@note_on channel=7 note=69 velocity=100 time=0@note_on channel=8 note=49 velocity=0 time=0@note_on channel=8 note=54 velocity=100 time=0@note_on channel=0 note=66 velocity=0 time=0.454545@note_on channel=0 note=64 velocity=100 time=0@note_on channel=1 note=55 velocity=0 time=0@note_on channel=1 note=64 velocity=100 time=0@note_on channel=3 note=54 velocity=0 time=0@note_on channel=3 note=57 velocity=100 time=0@note_on channel=5 note=66 velocity=0 time=0@note_on channel=5 note=64 velocity=100 time=0@note_on channel=6 note=55 velocity=0 time=0@note_on channel=6 note=64 velocity=100 time=0@note_on channel=8 note=54 velocity=0 time=0@note_on channel=8 note=57 velocity=100 time=0@note_on channel=0 note=64 velocity=0 time=0.454545@note_on channel=0 note=62 velocity=100 time=0@note_on channel=1 note=64 velocity=0 time=0@note_on channel=1 note=59 velocity=100 time=0@note_on channel=2 note=69 velocity=0 time=0@note_on channel=3 note=57 velocity=0 time=0@note_on channel=4 note=42 velocity=0 time=0@note_on channel=4 note=43 velocity=100 time=0@note_on channel=5 note=64 velocity=0 time=0@note_on channel=5 note=62 velocity=100 time=0@note_on channel=6 note=64 velocity=0 time=0@note_on channel=6 note=59 velocity=100 time=0@note_on channel=7 note=69 velocity=0 time=0@note_on channel=8 note=57 velocity=0 time=0@note_on channel=10 note=42 velocity=0 time=0@note_on channel=10 note=43 velocity=100 time=0@note_on channel=0 note=62 velocity=0 time=0.454545@note_on channel=0 note=74 velocity=100 time=0@note_on channel=1 note=59 velocity=0 time=0@note_on channel=1 note=71 velocity=100 time=0@note_on channel=3 note=47 velocity=100 time=0@note_on channel=5 note=62 velocity=0 time=0@note_on channel=5 note=74 velocity=100 time=0@note_on channel=6 note=59 velocity=0 time=0@note_on channel=6 note=71 velocity=100 time=0@note_on channel=8 note=47 velocity=100 time=0@note_on channel=0 note=74 velocity=0 time=0.454545@note_on channel=0 note=76 velocity=100 time=0@note_on channel=1 note=71 velocity=0 time=0@note_on channel=1 note=73 velocity=100 time=0@note_on channel=2 note=67 velocity=100 time=0@note_on channel=3 note=47 velocity=0 time=0@note_on channel=3 note=50 velocity=100 time=0@note_on channel=5 note=74 velocity=0 time=0@note_on channel=5 note=76 velocity=100 time=0@note_on channel=6 note=71 velocity=0 time=0@note_on channel=6 note=73 velocity=100 time=0@note_on channel=7 note=67 velocity=100 time=0@note_on channel=8 note=47 velocity=0 time=0@note_on channel=8 note=50 velocity=100 time=0@note_on channel=0 note=76 velocity=0 time=0.454545@note_on channel=0 note=79 velocity=100 time=0@note_on channel=1 note=73 velocity=0 time=0@note_on channel=1 note=71 velocity=100 time=0@note_on channel=3 note=50 velocity=0 time=0@note_on channel=3 note=55 velocity=100 time=0@note_on channel=5 note=76 velocity=0 time=0@note_on channel=5 note=79 velocity=100 time=0@note_on channel=6 note=73 velocity=0 time=0@note_on channel=6 note=71 velocity=100 time=0@note_on channel=8 note=50 velocity=0 time=0@note_on channel=8 note=55 velocity=100 time=0@note_on channel=0 note=79 velocity=0 time=0.454545@note_on channel=0 note=78 velocity=100 time=0@note_on channel=1 note=71 velocity=0 time=0@note_on channel=1 note=69 velocity=100 time=0@note_on channel=2 note=67 velocity=0 time=0@note_on channel=3 note=55 velocity=0 time=0@note_on channel=4 note=43 velocity=0 time=0@note_on channel=4 note=38 velocity=100 time=0@note_on channel=5 note=79 velocity=0 time=0@note_on channel=5 note=78 velocity=100 time=0@note_on channel=6 note=71 velocity=0 time=0@note_on channel=6 note=69 velocity=100 time=0@note_on channel=7 note=67 velocity=0 time=0@note_on channel=8 note=55 velocity=0 time=0@note_on channel=10 note=43 velocity=0 time=0@note_on channel=10 note=38 velocity=100 time=0@note_on channel=0 note=78 velocity=0 time=0.454545@note_on channel=0 note=66 velocity=100 time=0@note_on channel=1 note=69 velocity=0 time=0@note_on channel=1 note=57 velocity=100 time=0@note_on channel=3 note=54 velocity=100 time=0@note_on channel=5 note=78 velocity=0 time=0@note_on channel=5 note=66 velocity=100 time=0@note_on channel=6 note=69 velocity=0 time=0@note_on channel=6 note=57 velocity=100 time=0@note_on channel=8 note=54 velocity=100 time=0@note_on channel=0 note=66 velocity=0 time=0.454545@note_on channel=0 note=69 velocity=100 time=0@note_on channel=1 note=57 velocity=0 time=0@note_on channel=1 note=55 velocity=100 time=0@note_on channel=2 note=66 velocity=100 time=0@note_on channel=3 note=54 velocity=0 time=0@note_on channel=3 note=57 velocity=100 time=0@note_on channel=5 note=66 velocity=0 time=0@note_on channel=5 note=69 velocity=100 time=0@note_on channel=6 note=57 velocity=0 time=0@note_on channel=6 note=55 velocity=100 time=0@note_on channel=7 note=66 velocity=100 time=0@note_on channel=8 note=54 velocity=0 time=0@note_on channel=8 note=57 velocity=100 time=0@note_on channel=0 note=69 velocity=0 time=0.454545@note_on channel=0 note=78 velocity=100 time=0@note_on channel=1 note=55 velocity=0 time=0@note_on channel=1 note=57 velocity=100 time=0@note_on channel=3 note=57 velocity=0 time=0@note_on channel=3 note=62 velocity=100 time=0@note_on channel=5 note=69 velocity=0 time=0@note_on channel=5 note=78 velocity=100 time=0@note_on channel=6 note=55 velocity=0 time=0@note_on channel=6 note=57 velocity=100 time=0@note_on channel=8 note=57 velocity=0 time=0@note_on channel=8 note=62 velocity=100 time=0@note_on channel=0 note=78 velocity=0 time=0.454545@note_on channel=0 note=74 velocity=100 time=0@note_on channel=1 note=57 velocity=0 time=0@note_on channel=1 note=59 velocity=100 time=0@note_on channel=2 note=66 velocity=0 time=0@note_on channel=3 note=62 velocity=0 time=0@note_on channel=4 note=38 velocity=0 time=0@note_on channel=4 note=43 velocity=100 time=0@note_on channel=5 note=78 velocity=0 time=0@note_on channel=5 note=74 velocity=100 time=0@note_on channel=6 note=57 velocity=0 time=0@note_on channel=6 note=59 velocity=100 time=0@note_on channel=7 note=66 velocity=0 time=0@note_on channel=8 note=62 velocity=0 time=0@note_on channel=10 note=38 velocity=0 time=0@note_on channel=10 note=43 velocity=100 time=0@note_on channel=0 note=74 velocity=0 time=0.454545@note_on channel=0 note=79 velocity=100 time=0@note_on channel=1 note=59 velocity=0 time=0@note_on channel=1 note=71 velocity=100 time=0@note_on channel=3 note=52 velocity=100 time=0@note_on channel=5 note=74 velocity=0 time=0@note_on channel=5 note=79 velocity=100 time=0@note_on channel=6 note=59 velocity=0 time=0@note_on channel=6 note=71 velocity=100 time=0@note_on channel=8 note=52 velocity=100 time=0@note_on channel=0 note=79 velocity=0 time=0.454545@note_on channel=0 note=78 velocity=100 time=0@note_on channel=1 note=71 velocity=0 time=0@note_on channel=1 note=69 velocity=100 time=0@note_on channel=2 note=67 velocity=100 time=0@note_on channel=3 note=52 velocity=0 time=0@note_on channel=3 note=59 velocity=100 time=0@note_on channel=5 note=79 velocity=0 time=0@note_on channel=5 note=78 velocity=100 time=0@note_on channel=6 note=71 velocity=0 time=0@note_on channel=6 note=69 velocity=100 time=0@note_on channel=7 note=67 velocity=100 time=0@note_on channel=8 note=52 velocity=0 time=0@note_on channel=8 note=59 velocity=100 time=0@note_on channel=0 note=78 velocity=0 time=0.454545@note_on channel=0 note=79 velocity=100 time=0@note_on channel=1 note=69 velocity=0 time=0@note_on channel=1 note=71 velocity=100 time=0@note_on channel=3 note=59 velocity=0 time=0@note_on channel=3 note=62 velocity=100 time=0@note_on channel=5 note=78 velocity=0 time=0@note_on channel=5 note=79 velocity=100 time=0@note_on channel=6 note=69 velocity=0 time=0@note_on channel=6 note=71 velocity=100 time=0@note_on channel=8 note=59 velocity=0 time=0@note_on channel=8 note=62 velocity=100 time=0@note_on channel=0 note=79 velocity=0 time=0.454545@note_on channel=0 note=76 velocity=100 time=0@note_on channel=1 note=71 velocity=0 time=0@note_on channel=1 note=73 velocity=100 time=0@note_on channel=2 note=67 velocity=0 time=0@note_on channel=3 note=62 velocity=0 time=0@note_on channel=4 note=43 velocity=0 time=0@note_on channel=4 note=45 velocity=100 time=0@note_on channel=5 note=79 velocity=0 time=0@note_on channel=5 note=76 velocity=100 time=0@note_on channel=6 note=71 velocity=0 time=0@note_on channel=6 note=73 velocity=100 time=0@note_on channel=7 note=67 velocity=0 time=0@note_on channel=8 note=62 velocity=0 time=0@note_on channel=10 note=43 velocity=0 time=0@note_on channel=10 note=45 velocity=100 time=0@note_on channel=0 note=76 velocity=0 time=0.454545@note_on channel=0 note=73 velocity=100 time=0@note_on channel=1 note=73 velocity=0 time=0@note_on channel=1 note=61 velocity=100 time=0@note_on channel=3 note=52 velocity=100 time=0@note_on channel=5 note=76 velocity=0 time=0@note_on channel=5 note=73 velocity=100 time=0@note_on channel=6 note=73 velocity=0 time=0@note_on channel=6 note=61 velocity=100 time=0@note_on channel=8 note=52 velocity=100 time=0@note_on channel=0 note=73 velocity=0 time=0.454545@note_on channel=0 note=67 velocity=100 time=0@note_on channel=1 note=61 velocity=0 time=0@note_on channel=1 note=59 velocity=100 time=0@note_on channel=2 note=76 velocity=100 time=0@note_on channel=3 note=52 velocity=0 time=0@note_on channel=3 note=57 velocity=100 time=0@note_on channel=5 note=73 velocity=0 time=0@note_on channel=5 note=67 velocity=100 time=0@note_on channel=6 note=61 velocity=0 time=0@note_on channel=6 note=59 velocity=100 time=0@note_on channel=7 note=76 velocity=100 time=0@note_on channel=8 note=52 velocity=0 time=0@note_on channel=8 note=57 velocity=100 time=0@note_on channel=0 note=67 velocity=0 time=0.454545@note_on channel=0 note=69 velocity=100 time=0@note_on channel=1 note=59 velocity=0 time=0@note_on channel=1 note=61 velocity=100 time=0@note_on channel=3 note=57 velocity=0 time=0@note_on channel=3 note=61 velocity=100 time=0@note_on channel=5 note=67 velocity=0 time=0@note_on channel=5 note=69 velocity=100 time=0@note_on channel=6 note=59 velocity=0 time=0@note_on channel=6 note=61 velocity=100 time=0@note_on channel=8 note=57 velocity=0 time=0@note_on channel=8 note=61 velocity=100 time=0@note_on channel=0 note=69 velocity=0 time=0.454545@note_on channel=0 note=66 velocity=100 time=0@control_change channel=0 control=7 value=80 time=0@note_on channel=1 note=61 velocity=0 time=0@note_on channel=1 note=62 velocity=100 time=0@control_change channel=1 control=7 value=80 time=0@note_on channel=2 note=76 velocity=0 time=0@note_on channel=2 note=78 velocity=100 time=0@control_change channel=2 control=7 value=80 time=0@note_on channel=3 note=61 velocity=0 time=0@control_change channel=3 control=7 value=80 time=0@note_on channel=4 note=45 velocity=0 time=0@note_on channel=4 note=50 velocity=100 time=0@control_change channel=4 control=7 value=80 time=0@note_on channel=5 note=69 velocity=0 time=0@note_on channel=5 note=66 velocity=100 time=0@control_change channel=5 control=7 value=80 time=0@note_on channel=6 note=61 velocity=0 time=0@note_on channel=6 note=62 velocity=100 time=0@control_change channel=6 control=7 value=80 time=0@note_on channel=7 note=76 velocity=0 time=0@note_on channel=7 note=78 velocity=100 time=0@control_change channel=7 control=7 value=80 time=0@note_on channel=8 note=61 velocity=0 time=0@control_change channel=8 control=7 value=80 time=0@note_on channel=10 note=45 velocity=0 time=0@note_on channel=10 note=50 velocity=100 time=0@control_change channel=10 control=7 value=80 time=0@note_on channel=0 note=66 velocity=0 time=0.454545@note_on channel=0 note=69 velocity=100 time=0@note_on channel=1 note=62 velocity=0 time=0@note_on channel=1 note=74 velocity=100 time=0@note_on channel=2 note=78 velocity=0 time=0@note_on channel=2 note=66 velocity=100 time=0@note_on channel=3 note=57 velocity=100 time=0@note_on channel=5 note=66 velocity=0 time=0@note_on channel=5 note=69 velocity=100 time=0@note_on channel=6 note=62 velocity=0 time=0@note_on channel=6 note=74 velocity=100 time=0@note_on channel=7 note=78 velocity=0 time=0@note_on channel=7 note=66 velocity=100 time=0@note_on channel=8 note=57 velocity=100 time=0@note_on channel=0 note=69 velocity=0 time=0.454545@note_on channel=0 note=69 velocity=100 time=0@note_on channel=1 note=74 velocity=0 time=0@note_on channel=1 note=76 velocity=100 time=0@note_on channel=2 note=66 velocity=0 time=0@note_on channel=2 note=67 velocity=100 time=0@note_on channel=3 note=57 velocity=0 time=0@note_on channel=3 note=62 velocity=100 time=0@note_on channel=5 note=69 velocity=0 time=0@note_on channel=5 note=69 velocity=100 time=0@note_on channel=6 note=74 velocity=0 time=0@note_on channel=6 note=76 velocity=100 time=0@note_on channel=7 note=66 velocity=0 time=0@note_on channel=7 note=67 velocity=100 time=0@note_on channel=8 note=57 velocity=0 time=0@note_on channel=8 note=62 velocity=100 time=0@note_on channel=0 note=69 velocity=0 time=0.454545@note_on channel=0 note=69 velocity=100 time=0@note_on channel=1 note=76 velocity=0 time=0@note_on channel=1 note=74 velocity=100 time=0@note_on channel=2 note=67 velocity=0 time=0@note_on channel=2 note=66 velocity=100 time=0@note_on channel=3 note=62 velocity=0 time=0@note_on channel=3 note=66 velocity=100 time=0@note_on channel=5 note=69 velocity=0 time=0@note_on channel=5 note=69 velocity=100 time=0@note_on channel=6 note=76 velocity=0 time=0@note_on channel=6 note=74 velocity=100 time=0@note_on channel=7 note=67 velocity=0 time=0@note_on channel=7 note=66 velocity=100 time=0@note_on channel=8 note=62 velocity=0 time=0@note_on channel=8 note=66 velocity=100 time=0@note_on channel=0 note=69 velocity=0 time=0.454545@note_on channel=0 note=69 velocity=100 time=0@note_on channel=1 note=74 velocity=0 time=0@note_on channel=1 note=73 velocity=100 time=0@note_on channel=2 note=66 velocity=0 time=0@note_on channel=2 note=64 velocity=100 time=0@note_on channel=3 note=66 velocity=0 time=0@note_on channel=4 note=50 velocity=0 time=0@note_on channel=4 note=45 velocity=100 time=0@note_on channel=5 note=69 velocity=0 time=0@note_on channel=5 note=69 velocity=100 time=0@note_on channel=6 note=74 velocity=0 time=0@note_on channel=6 note=73 velocity=100 time=0@note_on channel=7 note=66 velocity=0 time=0@note_on channel=7 note=64 velocity=100 time=0@note_on channel=8 note=66 velocity=0 time=0@note_on channel=10 note=50 velocity=0 time=0@note_on channel=10 note=45 velocity=100 time=0@note_on channel=0 note=69 velocity=0 time=0.454545@note_on channel=0 note=69 velocity=100 time=0@note_on channel=1 note=73 velocity=0 time=0@note_on channel=1 note=61 velocity=100 time=0@note_on channel=2 note=64 velocity=0 time=0@note_on channel=2 note=76 velocity=100 time=0@note_on channel=3 note=52 velocity=100 time=0@note_on channel=5 note=69 velocity=0 time=0@note_on channel=5 note=69 velocity=100 time=0@note_on channel=6 note=73 velocity=0 time=0@note_on channel=6 note=61 velocity=100 time=0@note_on channel=7 note=64 velocity=0 time=0@note_on channel=7 note=76 velocity=100 time=0@note_on channel=8 note=52 velocity=100 time=0@note_on channel=0 note=69 velocity=0 time=0.454545@note_on channel=0 note=69 velocity=100 time=0@note_on channel=1 note=61 velocity=0 time=0@note_on channel=1 note=62 velocity=100 time=0@note_on channel=2 note=76 velocity=0 time=0@note_on channel=2 note=78 velocity=100 time=0@note_on channel=3 note=52 velocity=0 time=0@note_on channel=3 note=57 velocity=100 time=0@note_on channel=5 note=69 velocity=0 time=0@note_on channel=5 note=69 velocity=100 time=0@note_on channel=6 note=61 velocity=0 time=0@note_on channel=6 note=62 velocity=100 time=0@note_on channel=7 note=76 velocity=0 time=0@note_on channel=7 note=78 velocity=100 time=0@note_on channel=8 note=52 velocity=0 time=0@note_on channel=8 note=57 velocity=100 time=0@note_on channel=0 note=69 velocity=0 time=0.454545@note_on channel=0 note=69 velocity=100 time=0@note_on channel=1 note=62 velocity=0 time=0@note_on channel=1 note=61 velocity=100 time=0@note_on channel=2 note=78 velocity=0 time=0@note_on channel=2 note=76 velocity=100 time=0@note_on channel=3 note=57 velocity=0 time=0@note_on channel=3 note=61 velocity=100 time=0@note_on channel=5 note=69 velocity=0 time=0@note_on channel=5 note=69 velocity=100 time=0@note_on channel=6 note=62 velocity=0 time=0@note_on channel=6 note=61 velocity=100 time=0@note_on channel=7 note=78 velocity=0 time=0@note_on channel=7 note=76 velocity=100 time=0@note_on channel=8 note=57 velocity=0 time=0@note_on channel=8 note=61 velocity=100 time=0@note_on channel=0 note=69 velocity=0 time=0.454545@note_on channel=0 note=66 velocity=100 time=0@note_on channel=1 note=61 velocity=0 time=0@note_on channel=1 note=59 velocity=100 time=0@note_on channel=2 note=76 velocity=0 time=0@note_on channel=2 note=74 velocity=100 time=0@note_on channel=3 note=61 velocity=0 time=0@note_on channel=4 note=45 velocity=0 time=0@note_on channel=4 note=47 velocity=100 time=0@note_on channel=5 note=69 velocity=0 time=0@note_on channel=5 note=66 velocity=100 time=0@note_on channel=6 note=61 velocity=0 time=0@note_on channel=6 note=59 velocity=100 time=0@note_on channel=7 note=76 velocity=0 time=0@note_on channel=7 note=74 velocity=100 time=0@note_on channel=8 note=61 velocity=0 time=0@note_on channel=10 note=45 velocity=0 time=0@note_on channel=10 note=47 velocity=100 time=0@note_on channel=0 note=66 velocity=0 time=0.454545@note_on channel=0 note=66 velocity=100 time=0@note_on channel=1 note=59 velocity=0 time=0@note_on channel=1 note=71 velocity=100 time=0@note_on channel=2 note=74 velocity=0 time=0@note_on channel=2 note=66 velocity=100 time=0@note_on channel=3 note=50 velocity=100 time=0@note_on channel=5 note=66 velocity=0 time=0@note_on channel=5 note=66 velocity=100 time=0@note_on channel=6 note=59 velocity=0 time=0@note_on channel=6 note=71 velocity=100 time=0@note_on channel=7 note=74 velocity=0 time=0@note_on channel=7 note=66 velocity=100 time=0@note_on channel=8 note=50 velocity=100 time=0@note_on channel=0 note=66 velocity=0 time=0.454545@note_on channel=0 note=66 velocity=100 time=0@note_on channel=1 note=71 velocity=0 time=0@note_on channel=1 note=69 velocity=100 time=0@note_on channel=2 note=66 velocity=0 time=0@note_on channel=2 note=62 velocity=100 time=0@note_on channel=3 note=50 velocity=0 time=0@note_on channel=3 note=54 velocity=100 time=0@note_on channel=5 note=66 velocity=0 time=0@note_on channel=5 note=66 velocity=100 time=0@note_on channel=6 note=71 velocity=0 time=0@note_on channel=6 note=69 velocity=100 time=0@note_on channel=7 note=66 velocity=0 time=0@note_on channel=7 note=62 velocity=100 time=0@note_on channel=8 note=50 velocity=0 time=0@note_on channel=8 note=54 velocity=100 time=0@note_on channel=0 note=66 velocity=0 time=0.454545@note_on channel=0 note=66 velocity=100 time=0@note_on channel=1 note=69 velocity=0 time=0@note_on channel=1 note=71 velocity=100 time=0@note_on channel=2 note=62 velocity=0 time=0@note_on channel=2 note=71 velocity=100 time=0@note_on channel=3 note=54 velocity=0 time=0@note_on channel=3 note=59 velocity=100 time=0@note_on channel=5 note=66 velocity=0 time=0@note_on channel=5 note=66 velocity=100 time=0@note_on channel=6 note=69 velocity=0 time=0@note_on channel=6 note=71 velocity=100 time=0@note_on channel=7 note=62 velocity=0 time=0@note_on channel=7 note=71 velocity=100 time=0@note_on channel=8 note=54 velocity=0 time=0@note_on channel=8 note=59 velocity=100 time=0@note_on channel=0 note=66 velocity=0 time=0.454545@note_on channel=0 note=66 velocity=100 time=0@note_on channel=1 note=71 velocity=0 time=0@note_on channel=1 note=73 velocity=100 time=0@note_on channel=2 note=71 velocity=0 time=0@note_on channel=2 note=69 velocity=100 time=0@note_on channel=3 note=59 velocity=0 time=0@note_on channel=4 note=47 velocity=0 time=0@note_on channel=4 note=42 velocity=100 time=0@note_on channel=5 note=66 velocity=0 time=0@note_on channel=5 note=66 velocity=100 time=0@note_on channel=6 note=71 velocity=0 time=0@note_on channel=6 note=73 velocity=100 time=0@note_on channel=7 note=71 velocity=0 time=0@note_on channel=7 note=69 velocity=100 time=0@note_on channel=8 note=59 velocity=0 time=0@note_on channel=10 note=47 velocity=0 time=0@note_on channel=10 note=42 velocity=100 time=0@note_on channel=0 note=66 velocity=0 time=0.454545@note_on channel=0 note=66 velocity=100 time=0@note_on channel=1 note=73 velocity=0 time=0@note_on channel=1 note=61 velocity=100 time=0@note_on channel=2 note=69 velocity=0 time=0@note_on channel=2 note=57 velocity=100 time=0@note_on channel=3 note=49 velocity=100 time=0@note_on channel=5 note=66 velocity=0 time=0@note_on channel=5 note=66 velocity=100 time=0@note_on channel=6 note=73 velocity=0 time=0@note_on channel=6 note=61 velocity=100 time=0@note_on channel=7 note=69 velocity=0 time=0@note_on channel=7 note=57 velocity=100 time=0@note_on channel=8 note=49 velocity=100 time=0@note_on channel=0 note=66 velocity=0 time=0.454545@note_on channel=0 note=69 velocity=100 time=0@note_on channel=1 note=61 velocity=0 time=0@note_on channel=1 note=66 velocity=100 time=0@note_on channel=2 note=57 velocity=0 time=0@note_on channel=2 note=55 velocity=100 time=0@note_on channel=3 note=49 velocity=0 time=0@note_on channel=3 note=54 velocity=100 time=0@note_on channel=5 note=66 velocity=0 time=0@note_on channel=5 note=69 velocity=100 time=0@note_on channel=6 note=61 velocity=0 time=0@note_on channel=6 note=66 velocity=100 time=0@note_on channel=7 note=57 velocity=0 time=0@note_on channel=7 note=55 velocity=100 time=0@note_on channel=8 note=49 velocity=0 time=0@note_on channel=8 note=54 velocity=100 time=0@note_on channel=0 note=69 velocity=0 time=0.454545@note_on channel=0 note=69 velocity=100 time=0@note_on channel=1 note=66 velocity=0 time=0@note_on channel=1 note=64 velocity=100 time=0@note_on channel=2 note=55 velocity=0 time=0@note_on channel=2 note=64 velocity=100 time=0@note_on channel=3 note=54 velocity=0 time=0@note_on channel=3 note=57 velocity=100 time=0@note_on channel=5 note=69 velocity=0 time=0@note_on channel=5 note=69 velocity=100 time=0@note_on channel=6 note=66 velocity=0 time=0@note_on channel=6 note=64 velocity=100 time=0@note_on channel=7 note=55 velocity=0 time=0@note_on channel=7 note=64 velocity=100 time=0@note_on channel=8 note=54 velocity=0 time=0@note_on channel=8 note=57 velocity=100 time=0@note_on channel=0 note=69 velocity=0 time=0.454545@note_on channel=0 note=71 velocity=100 time=0@note_on channel=1 note=64 velocity=0 time=0@note_on channel=1 note=62 velocity=100 time=0@note_on channel=2 note=64 velocity=0 time=0@note_on channel=2 note=59 velocity=100 time=0@note_on channel=3 note=57 velocity=0 time=0@note_on channel=4 note=42 velocity=0 time=0@note_on channel=4 note=43 velocity=100 time=0@note_on channel=5 note=69 velocity=0 time=0@note_on channel=5 note=71 velocity=100 time=0@note_on channel=6 note=64 velocity=0 time=0@note_on channel=6 note=62 velocity=100 time=0@note_on channel=7 note=64 velocity=0 time=0@note_on channel=7 note=59 velocity=100 time=0@note_on channel=8 note=57 velocity=0 time=0@note_on channel=10 note=42 velocity=0 time=0@note_on channel=10 note=43 velocity=100 time=0@note_on channel=0 note=71 velocity=0 time=0.454545@note_on channel=0 note=67 velocity=100 time=0@note_on channel=1 note=62 velocity=0 time=0@note_on channel=1 note=74 velocity=100 time=0@note_on channel=2 note=59 velocity=0 time=0@note_on channel=2 note=71 velocity=100 time=0@note_on channel=3 note=47 velocity=100 time=0@note_on channel=5 note=71 velocity=0 time=0@note_on channel=5 note=67 velocity=100 time=0@note_on channel=6 note=62 velocity=0 time=0@note_on channel=6 note=74 velocity=100 time=0@note_on channel=7 note=59 velocity=0 time=0@note_on channel=7 note=71 velocity=100 time=0@note_on channel=8 note=47 velocity=100 time=0@note_on channel=0 note=67 velocity=0 time=0.454545@note_on channel=0 note=67 velocity=100 time=0@note_on channel=1 note=74 velocity=0 time=0@note_on channel=1 note=76 velocity=100 time=0@note_on channel=2 note=71 velocity=0 time=0@note_on channel=2 note=73 velocity=100 time=0@note_on channel=3 note=47 velocity=0 time=0@note_on channel=3 note=50 velocity=100 time=0@note_on channel=5 note=67 velocity=0 time=0@note_on channel=5 note=67 velocity=100 time=0@note_on channel=6 note=74 velocity=0 time=0@note_on channel=6 note=76 velocity=100 time=0@note_on channel=7 note=71 velocity=0 time=0@note_on channel=7 note=73 velocity=100 time=0@note_on channel=8 note=47 velocity=0 time=0@note_on channel=8 note=50 velocity=100 time=0@note_on channel=0 note=67 velocity=0 time=0.454545@note_on channel=0 note=74 velocity=100 time=0@note_on channel=1 note=76 velocity=0 time=0@note_on channel=1 note=79 velocity=100 time=0@note_on channel=2 note=73 velocity=0 time=0@note_on channel=2 note=71 velocity=100 time=0@note_on channel=3 note=50 velocity=0 time=0@note_on channel=3 note=55 velocity=100 time=0@note_on channel=5 note=67 velocity=0 time=0@note_on channel=5 note=74 velocity=100 time=0@note_on channel=6 note=76 velocity=0 time=0@note_on channel=6 note=79 velocity=100 time=0@note_on channel=7 note=73 velocity=0 time=0@note_on channel=7 note=71 velocity=100 time=0@note_on channel=8 note=50 velocity=0 time=0@note_on channel=8 note=55 velocity=100 time=0@note_on channel=0 note=74 velocity=0 time=0.454545@note_on channel=0 note=78 velocity=100 time=0@note_on channel=1 note=79 velocity=0 time=0@note_on channel=1 note=78 velocity=100 time=0@note_on channel=2 note=71 velocity=0 time=0@note_on channel=2 note=69 velocity=100 time=0@note_on channel=3 note=55 velocity=0 time=0@note_on channel=4 note=43 velocity=0 time=0@note_on channel=4 note=38 velocity=100 time=0@note_on channel=5 note=74 velocity=0 time=0@note_on channel=5 note=78 velocity=100 time=0@note_on channel=6 note=79 velocity=0 time=0@note_on channel=6 note=78 velocity=100 time=0@note_on channel=7 note=71 velocity=0 time=0@note_on channel=7 note=69 velocity=100 time=0@note_on channel=8 note=55 velocity=0 time=0@note_on channel=10 note=43 velocity=0 time=0@note_on channel=10 note=38 velocity=100 time=0@note_on channel=0 note=78 velocity=0 time=0.454545@note_on channel=0 note=74 velocity=100 time=0@note_on channel=1 note=78 velocity=0 time=0@note_on channel=1 note=66 velocity=100 time=0@note_on channel=2 note=69 velocity=0 time=0@note_on channel=2 note=57 velocity=100 time=0@note_on channel=3 note=54 velocity=100 time=0@note_on channel=5 note=78 velocity=0 time=0@note_on channel=5 note=74 velocity=100 time=0@note_on channel=6 note=78 velocity=0 time=0@note_on channel=6 note=66 velocity=100 time=0@note_on channel=7 note=69 velocity=0 time=0@note_on channel=7 note=57 velocity=100 time=0@note_on channel=8 note=54 velocity=100 time=0@note_on channel=0 note=74 velocity=0 time=0.454545@note_on channel=0 note=74 velocity=100 time=0@note_on channel=1 note=66 velocity=0 time=0@note_on channel=1 note=69 velocity=100 time=0@note_on channel=2 note=57 velocity=0 time=0@note_on channel=2 note=55 velocity=100 time=0@note_on channel=3 note=54 velocity=0 time=0@note_on channel=3 note=57 velocity=100 time=0@note_on channel=5 note=74 velocity=0 time=0@note_on channel=5 note=74 velocity=100 time=0@note_on channel=6 note=66 velocity=0 time=0@note_on channel=6 note=69 velocity=100 time=0@note_on channel=7 note=57 velocity=0 time=0@note_on channel=7 note=55 velocity=100 time=0@note_on channel=8 note=54 velocity=0 time=0@note_on channel=8 note=57 velocity=100 time=0@note_on channel=0 note=74 velocity=0 time=0.454545@note_on channel=0 note=74 velocity=100 time=0@note_on channel=1 note=69 velocity=0 time=0@note_on channel=1 note=78 velocity=100 time=0@note_on channel=2 note=55 velocity=0 time=0@note_on channel=2 note=57 velocity=100 time=0@note_on channel=3 note=57 velocity=0 time=0@note_on channel=3 note=62 velocity=100 time=0@note_on channel=5 note=74 velocity=0 time=0@note_on channel=5 note=74 velocity=100 time=0@note_on channel=6 note=69 velocity=0 time=0@note_on channel=6 note=78 velocity=100 time=0@note_on channel=7 note=55 velocity=0 time=0@note_on channel=7 note=57 velocity=100 time=0@note_on channel=8 note=57 velocity=0 time=0@note_on channel=8 note=62 velocity=100 time=0@note_on channel=0 note=74 velocity=0 time=0.454545@note_on channel=0 note=74 velocity=100 time=0@note_on channel=1 note=78 velocity=0 time=0@note_on channel=1 note=74 velocity=100 time=0@note_on channel=2 note=57 velocity=0 time=0@note_on channel=2 note=59 velocity=100 time=0@note_on channel=3 note=62 velocity=0 time=0@note_on channel=4 note=38 velocity=0 time=0@note_on channel=4 note=43 velocity=100 time=0@note_on channel=5 note=74 velocity=0 time=0@note_on channel=5 note=74 velocity=100 time=0@note_on channel=6 note=78 velocity=0 time=0@note_on channel=6 note=74 velocity=100 time=0@note_on channel=7 note=57 velocity=0 time=0@note_on channel=7 note=59 velocity=100 time=0@note_on channel=8 note=62 velocity=0 time=0@note_on channel=10 note=38 velocity=0 time=0@note_on channel=10 note=43 velocity=100 time=0@note_on channel=0 note=74 velocity=0 time=0.454545@note_on channel=0 note=74 velocity=100 time=0@note_on channel=1 note=74 velocity=0 time=0@note_on channel=1 note=79 velocity=100 time=0@note_on channel=2 note=59 velocity=0 time=0@note_on channel=2 note=71 velocity=100 time=0@note_on channel=3 note=52 velocity=100 time=0@note_on channel=5 note=74 velocity=0 time=0@note_on channel=5 note=74 velocity=100 time=0@note_on channel=6 note=74 velocity=0 time=0@note_on channel=6 note=79 velocity=100 time=0@note_on channel=7 note=59 velocity=0 time=0@note_on channel=7 note=71 velocity=100 time=0@note_on channel=8 note=52 velocity=100 time=0@note_on channel=0 note=74 velocity=0 time=0.454545@note_on channel=0 note=67 velocity=100 time=0@note_on channel=1 note=79 velocity=0 time=0@note_on channel=1 note=78 velocity=100 time=0@note_on channel=2 note=71 velocity=0 time=0@note_on channel=2 note=69 velocity=100 time=0@note_on channel=3 note=52 velocity=0 time=0@note_on channel=3 note=59 velocity=100 time=0@note_on channel=5 note=74 velocity=0 time=0@note_on channel=5 note=67 velocity=100 time=0@note_on channel=6 note=79 velocity=0 time=0@note_on channel=6 note=78 velocity=100 time=0@note_on channel=7 note=71 velocity=0 time=0@note_on channel=7 note=69 velocity=100 time=0@note_on channel=8 note=52 velocity=0 time=0@note_on channel=8 note=59 velocity=100 time=0@note_on channel=0 note=67 velocity=0 time=0.454545@note_on channel=0 note=71 velocity=100 time=0@note_on channel=1 note=78 velocity=0 time=0@note_on channel=1 note=79 velocity=100 time=0@note_on channel=2 note=69 velocity=0 time=0@note_on channel=2 note=71 velocity=100 time=0@note_on channel=3 note=59 velocity=0 time=0@note_on channel=3 note=62 velocity=100 time=0@note_on channel=5 note=67 velocity=0 time=0@note_on channel=5 note=71 velocity=100 time=0@note_on channel=6 note=78 velocity=0 time=0@note_on channel=6 note=79 velocity=100 time=0@note_on channel=7 note=69 velocity=0 time=0@note_on channel=7 note=71 velocity=100 time=0@note_on channel=8 note=59 velocity=0 time=0@note_on channel=8 note=62 velocity=100 time=0@note_on channel=0 note=71 velocity=0 time=0.454545@note_on channel=0 note=69 velocity=100 time=0@note_on channel=1 note=79 velocity=0 time=0@note_on channel=1 note=76 velocity=100 time=0@note_on channel=2 note=71 velocity=0 time=0@note_on channel=2 note=73 velocity=100 time=0@note_on channel=3 note=62 velocity=0 time=0@note_on channel=4 note=43 velocity=0 time=0@note_on channel=4 note=45 velocity=100 time=0@note_on channel=5 note=71 velocity=0 time=0@note_on channel=5 note=69 velocity=100 time=0@note_on channel=6 note=79 velocity=0 time=0@note_on channel=6 note=76 velocity=100 time=0@note_on channel=7 note=71 velocity=0 time=0@note_on channel=7 note=73 velocity=100 time=0@note_on channel=8 note=62 velocity=0 time=0@note_on channel=10 note=43 velocity=0 time=0@note_on channel=10 note=45 velocity=100 time=0@note_on channel=0 note=69 velocity=0 time=0.454545@note_on channel=0 note=69 velocity=100 time=0@note_on channel=1 note=76 velocity=0 time=0@note_on channel=1 note=73 velocity=100 time=0@note_on channel=2 note=73 velocity=0 time=0@note_on channel=2 note=61 velocity=100 time=0@note_on channel=3 note=52 velocity=100 time=0@note_on channel=5 note=69 velocity=0 time=0@note_on channel=5 note=69 velocity=100 time=0@note_on channel=6 note=76 velocity=0 time=0@note_on channel=6 note=73 velocity=100 time=0@note_on channel=7 note=73 velocity=0 time=0@note_on channel=7 note=61 velocity=100 time=0@note_on channel=8 note=52 velocity=100 time=0@note_on channel=0 note=69 velocity=0 time=0.454545@note_on channel=0 note=67 velocity=100 time=0@note_on channel=1 note=73 velocity=0 time=0@note_on channel=1 note=67 velocity=100 time=0@note_on channel=2 note=61 velocity=0 time=0@note_on channel=2 note=59 velocity=100 time=0@note_on channel=3 note=52 velocity=0 time=0@note_on channel=3 note=57 velocity=100 time=0@note_on channel=5 note=69 velocity=0 time=0@note_on channel=5 note=67 velocity=100 time=0@note_on channel=6 note=73 velocity=0 time=0@note_on channel=6 note=67 velocity=100 time=0@note_on channel=7 note=61 velocity=0 time=0@note_on channel=7 note=59 velocity=100 time=0@note_on channel=8 note=52 velocity=0 time=0@note_on channel=8 note=57 velocity=100 time=0@note_on channel=0 note=67 velocity=0 time=0.454545@note_on channel=0 note=69 velocity=100 time=0@note_on channel=1 note=67 velocity=0 time=0@note_on channel=1 note=69 velocity=100 time=0@note_on channel=2 note=59 velocity=0 time=0@note_on channel=2 note=61 velocity=100 time=0@note_on channel=3 note=57 velocity=0 time=0@note_on channel=3 note=61 velocity=100 time=0@note_on channel=5 note=67 velocity=0 time=0@note_on channel=5 note=69 velocity=100 time=0@note_on channel=6 note=67 velocity=0 time=0@note_on channel=6 note=69 velocity=100 time=0@note_on channel=7 note=59 velocity=0 time=0@note_on channel=7 note=61 velocity=100 time=0@note_on channel=8 note=57 velocity=0 time=0@note_on channel=8 note=61 velocity=100 time=0@note_on channel=0 note=69 velocity=0 time=0.454545@note_on channel=0 note=69 velocity=100 time=0@control_change channel=0 control=7 value=60 time=0@note_on channel=1 note=69 velocity=0 time=0@note_on channel=1 note=66 velocity=100 time=0@control_change channel=1 control=7 value=60 time=0@note_on channel=2 note=61 velocity=0 time=0@note_on channel=2 note=62 velocity=100 time=0@control_change channel=2 control=7 value=60 time=0@note_on channel=3 note=61 velocity=0 time=0@control_change channel=3 control=7 value=60 time=0@note_on channel=4 note=45 velocity=0 time=0@note_on channel=4 note=50 velocity=100 time=0@control_change channel=4 control=7 value=60 time=0@note_on channel=5 note=69 velocity=0 time=0@note_on channel=5 note=69 velocity=100 time=0@control_change channel=5 control=7 value=60 time=0@note_on channel=6 note=69 velocity=0 time=0@note_on channel=6 note=66 velocity=100 time=0@control_change channel=6 control=7 value=60 time=0@note_on channel=7 note=61 velocity=0 time=0@note_on channel=7 note=62 velocity=100 time=0@control_change channel=7 control=7 value=60 time=0@note_on channel=8 note=61 velocity=0 time=0@control_change channel=8 control=7 value=60 time=0@note_on channel=10 note=45 velocity=0 time=0@note_on channel=10 note=50 velocity=100 time=0@control_change channel=10 control=7 value=60 time=0@note_on channel=0 note=69 velocity=0 time=0.454545@note_on channel=0 note=78 velocity=100 time=0@note_on channel=1 note=66 velocity=0 time=0@note_on channel=1 note=69 velocity=100 time=0@note_on channel=2 note=62 velocity=0 time=0@note_on channel=2 note=74 velocity=100 time=0@note_on channel=3 note=57 velocity=100 time=0@note_on channel=5 note=69 velocity=0 time=0@note_on channel=5 note=78 velocity=100 time=0@note_on channel=6 note=66 velocity=0 time=0@note_on channel=6 note=69 velocity=100 time=0@note_on channel=7 note=62 velocity=0 time=0@note_on channel=7 note=74 velocity=100 time=0@note_on channel=8 note=57 velocity=100 time=0@note_on channel=0 note=78 velocity=0 time=0.454545@note_on channel=0 note=78 velocity=100 time=0@note_on channel=1 note=69 velocity=0 time=0@note_on channel=1 note=69 velocity=100 time=0@note_on channel=2 note=74 velocity=0 time=0@note_on channel=2 note=76 velocity=100 time=0@note_on channel=3 note=57 velocity=0 time=0@note_on channel=3 note=62 velocity=100 time=0@note_on channel=5 note=78 velocity=0 time=0@note_on channel=5 note=78 velocity=100 time=0@note_on channel=6 note=69 velocity=0 time=0@note_on channel=6 note=69 velocity=100 time=0@note_on channel=7 note=74 velocity=0 time=0@note_on channel=7 note=76 velocity=100 time=0@note_on channel=8 note=57 velocity=0 time=0@note_on channel=8 note=62 velocity=100 time=0@note_on channel=0 note=78 velocity=0 time=0.454545@note_on channel=0 note=78 velocity=100 time=0@note_on channel=1 note=69 velocity=0 time=0@note_on channel=1 note=69 velocity=100 time=0@note_on channel=2 note=76 velocity=0 time=0@note_on channel=2 note=74 velocity=100 time=0@note_on channel=3 note=62 velocity=0 time=0@note_on channel=3 note=66 velocity=100 time=0@note_on channel=5 note=78 velocity=0 time=0@note_on channel=5 note=78 velocity=100 time=0@note_on channel=6 note=69 velocity=0 time=0@note_on channel=6 note=69 velocity=100 time=0@note_on channel=7 note=76 velocity=0 time=0@note_on channel=7 note=74 velocity=100 time=0@note_on channel=8 note=62 velocity=0 time=0@note_on channel=8 note=66 velocity=100 time=0@note_on channel=0 note=78 velocity=0 time=0.454545@note_on channel=0 note=76 velocity=100 time=0@note_on channel=1 note=69 velocity=0 time=0@note_on channel=1 note=69 velocity=100 time=0@note_on channel=2 note=74 velocity=0 time=0@note_on channel=2 note=73 velocity=100 time=0@note_on channel=3 note=66 velocity=0 time=0@note_on channel=4 note=50 velocity=0 time=0@note_on channel=4 note=45 velocity=100 time=0@note_on channel=5 note=78 velocity=0 time=0@note_on channel=5 note=76 velocity=100 time=0@note_on channel=6 note=69 velocity=0 time=0@note_on channel=6 note=69 velocity=100 time=0@note_on channel=7 note=74 velocity=0 time=0@note_on channel=7 note=73 velocity=100 time=0@note_on channel=8 note=66 velocity=0 time=0@note_on channel=10 note=50 velocity=0 time=0@note_on channel=10 note=45 velocity=100 time=0@note_on channel=0 note=76 velocity=0 time=0.454545@note_on channel=0 note=76 velocity=100 time=0@note_on channel=1 note=69 velocity=0 time=0@note_on channel=1 note=69 velocity=100 time=0@note_on channel=2 note=73 velocity=0 time=0@note_on channel=2 note=61 velocity=100 time=0@note_on channel=3 note=52 velocity=100 time=0@note_on channel=5 note=76 velocity=0 time=0@note_on channel=5 note=76 velocity=100 time=0@note_on channel=6 note=69 velocity=0 time=0@note_on channel=6 note=69 velocity=100 time=0@note_on channel=7 note=73 velocity=0 time=0@note_on channel=7 note=61 velocity=100 time=0@note_on channel=8 note=52 velocity=100 time=0@note_on channel=0 note=76 velocity=0 time=0.454545@note_on channel=0 note=76 velocity=100 time=0@note_on channel=1 note=69 velocity=0 time=0@note_on channel=1 note=69 velocity=100 time=0@note_on channel=2 note=61 velocity=0 time=0@note_on channel=2 note=62 velocity=100 time=0@note_on channel=3 note=52 velocity=0 time=0@note_on channel=3 note=57 velocity=100 time=0@note_on channel=5 note=76 velocity=0 time=0@note_on channel=5 note=76 velocity=100 time=0@note_on channel=6 note=69 velocity=0 time=0@note_on channel=6 note=69 velocity=100 time=0@note_on channel=7 note=61 velocity=0 time=0@note_on channel=7 note=62 velocity=100 time=0@note_on channel=8 note=52 velocity=0 time=0@note_on channel=8 note=57 velocity=100 time=0@note_on channel=0 note=76 velocity=0 time=0.454545@note_on channel=0 note=76 velocity=100 time=0@note_on channel=1 note=69 velocity=0 time=0@note_on channel=1 note=69 velocity=100 time=0@note_on channel=2 note=62 velocity=0 time=0@note_on channel=2 note=61 velocity=100 time=0@note_on channel=3 note=57 velocity=0 time=0@note_on channel=3 note=61 velocity=100 time=0@note_on channel=5 note=76 velocity=0 time=0@note_on channel=5 note=76 velocity=100 time=0@note_on channel=6 note=69 velocity=0 time=0@note_on channel=6 note=69 velocity=100 time=0@note_on channel=7 note=62 velocity=0 time=0@note_on channel=7 note=61 velocity=100 time=0@note_on channel=8 note=57 velocity=0 time=0@note_on channel=8 note=61 velocity=100 time=0@note_on channel=0 note=76 velocity=0 time=0.454545@note_on channel=0 note=74 velocity=100 time=0@note_on channel=1 note=69 velocity=0 time=0@note_on channel=1 note=66 velocity=100 time=0@note_on channel=2 note=61 velocity=0 time=0@note_on channel=2 note=59 velocity=100 time=0@note_on channel=3 note=61 velocity=0 time=0@note_on channel=4 note=45 velocity=0 time=0@note_on channel=4 note=47 velocity=100 time=0@note_on channel=5 note=76 velocity=0 time=0@note_on channel=5 note=74 velocity=100 time=0@note_on channel=6 note=69 velocity=0 time=0@note_on channel=6 note=66 velocity=100 time=0@note_on channel=7 note=61 velocity=0 time=0@note_on channel=7 note=59 velocity=100 time=0@note_on channel=8 note=61 velocity=0 time=0@note_on channel=10 note=45 velocity=0 time=0@note_on channel=10 note=47 velocity=100 time=0@note_on channel=0 note=74 velocity=0 time=0.454545@note_on channel=0 note=74 velocity=100 time=0@note_on channel=1 note=66 velocity=0 time=0@note_on channel=1 note=66 velocity=100 time=0@note_on channel=2 note=59 velocity=0 time=0@note_on channel=2 note=71 velocity=100 time=0@note_on channel=3 note=50 velocity=100 time=0@note_on channel=5 note=74 velocity=0 time=0@note_on channel=5 note=74 velocity=100 time=0@note_on channel=6 note=66 velocity=0 time=0@note_on channel=6 note=66 velocity=100 time=0@note_on channel=7 note=59 velocity=0 time=0@note_on channel=7 note=71 velocity=100 time=0@note_on channel=8 note=50 velocity=100 time=0@note_on channel=0 note=74 velocity=0 time=0.454545@note_on channel=0 note=74 velocity=100 time=0@note_on channel=1 note=66 velocity=0 time=0@note_on channel=1 note=66 velocity=100 time=0@note_on channel=2 note=71 velocity=0 time=0@note_on channel=2 note=69 velocity=100 time=0@note_on channel=3 note=50 velocity=0 time=0@note_on channel=3 note=54 velocity=100 time=0@note_on channel=5 note=74 velocity=0 time=0@note_on channel=5 note=74 velocity=100 time=0@note_on channel=6 note=66 velocity=0 time=0@note_on channel=6 note=66 velocity=100 time=0@note_on channel=7 note=71 velocity=0 time=0@note_on channel=7 note=69 velocity=100 time=0@note_on channel=8 note=50 velocity=0 time=0@note_on channel=8 note=54 velocity=100 time=0@note_on channel=0 note=74 velocity=0 time=0.454545@note_on channel=0 note=74 velocity=100 time=0@note_on channel=1 note=66 velocity=0 time=0@note_on channel=1 note=66 velocity=100 time=0@note_on channel=2 note=69 velocity=0 time=0@note_on channel=2 note=71 velocity=100 time=0@note_on channel=3 note=54 velocity=0 time=0@note_on channel=3 note=59 velocity=100 time=0@note_on channel=5 note=74 velocity=0 time=0@note_on channel=5 note=74 velocity=100 time=0@note_on channel=6 note=66 velocity=0 time=0@note_on channel=6 note=66 velocity=100 time=0@note_on channel=7 note=69 velocity=0 time=0@note_on channel=7 note=71 velocity=100 time=0@note_on channel=8 note=54 velocity=0 time=0@note_on channel=8 note=59 velocity=100 time=0@note_on channel=0 note=74 velocity=0 time=0.454545@note_on channel=0 note=81 velocity=100 time=0@note_on channel=1 note=66 velocity=0 time=0@note_on channel=1 note=69 velocity=100 time=0@note_on channel=2 note=71 velocity=0 time=0@note_on channel=2 note=73 velocity=100 time=0@note_on channel=3 note=59 velocity=0 time=0@note_on channel=4 note=47 velocity=0 time=0@note_on channel=4 note=42 velocity=100 time=0@note_on channel=5 note=74 velocity=0 time=0@note_on channel=5 note=81 velocity=100 time=0@note_on channel=6 note=66 velocity=0 time=0@note_on channel=6 note=69 velocity=100 time=0@note_on channel=7 note=71 velocity=0 time=0@note_on channel=7 note=73 velocity=100 time=0@note_on channel=8 note=59 velocity=0 time=0@note_on channel=10 note=47 velocity=0 time=0@note_on channel=10 note=42 velocity=100 time=0@note_on channel=0 note=81 velocity=0 time=0.454545@note_on channel=0 note=78 velocity=100 time=0@note_on channel=0 note=81 velocity=100 time=0@note_on channel=1 note=69 velocity=0 time=0@note_on channel=1 note=69 velocity=100 time=0@note_on channel=2 note=73 velocity=0 time=0@note_on channel=2 note=61 velocity=100 time=0@note_on channel=3 note=49 velocity=100 time=0@note_on channel=5 note=81 velocity=0 time=0@note_on channel=5 note=78 velocity=100 time=0@note_on channel=5 note=81 velocity=100 time=0@note_on channel=6 note=69 velocity=0 time=0@note_on channel=6 note=69 velocity=100 time=0@note_on channel=7 note=73 velocity=0 time=0@note_on channel=7 note=61 velocity=100 time=0@note_on channel=8 note=49 velocity=100 time=0@note_on channel=0 note=81 velocity=0 time=0.454545@note_on channel=0 note=78 velocity=0 time=0@note_on channel=0 note=81 velocity=100 time=0@note_on channel=1 note=69 velocity=0 time=0@note_on channel=1 note=69 velocity=100 time=0@note_on channel=2 note=61 velocity=0 time=0@note_on channel=2 note=66 velocity=100 time=0@note_on channel=3 note=49 velocity=0 time=0@note_on channel=3 note=54 velocity=100 time=0@note_on channel=5 note=81 velocity=0 time=0@note_on channel=5 note=78 velocity=0 time=0@note_on channel=5 note=81 velocity=100 time=0@note_on channel=6 note=69 velocity=0 time=0@note_on channel=6 note=69 velocity=100 time=0@note_on channel=7 note=61 velocity=0 time=0@note_on channel=7 note=66 velocity=100 time=0@note_on channel=8 note=49 velocity=0 time=0@note_on channel=8 note=54 velocity=100 time=0@note_on channel=0 note=81 velocity=0 time=0.454545@note_on channel=0 note=81 velocity=100 time=0@note_on channel=1 note=69 velocity=0 time=0@note_on channel=1 note=69 velocity=100 time=0@note_on channel=2 note=66 velocity=0 time=0@note_on channel=2 note=64 velocity=100 time=0@note_on channel=3 note=54 velocity=0 time=0@note_on channel=3 note=57 velocity=100 time=0@note_on channel=5 note=81 velocity=0 time=0@note_on channel=5 note=81 velocity=100 time=0@note_on channel=6 note=69 velocity=0 time=0@note_on channel=6 note=69 velocity=100 time=0@note_on channel=7 note=66 velocity=0 time=0@note_on channel=7 note=64 velocity=100 time=0@note_on channel=8 note=54 velocity=0 time=0@note_on channel=8 note=57 velocity=100 time=0@note_on channel=0 note=81 velocity=0 time=0.454545@note_on channel=0 note=83 velocity=100 time=0@note_on channel=1 note=69 velocity=0 time=0@note_on channel=1 note=59 velocity=100 time=0@note_on channel=2 note=64 velocity=0 time=0@note_on channel=2 note=62 velocity=100 time=0@note_on channel=3 note=57 velocity=0 time=0@note_on channel=4 note=42 velocity=0 time=0@note_on channel=4 note=43 velocity=100 time=0@note_on channel=5 note=81 velocity=0 time=0@note_on channel=5 note=83 velocity=100 time=0@note_on channel=6 note=69 velocity=0 time=0@note_on channel=6 note=59 velocity=100 time=0@note_on channel=7 note=64 velocity=0 time=0@note_on channel=7 note=62 velocity=100 time=0@note_on channel=8 note=57 velocity=0 time=0@note_on channel=10 note=42 velocity=0 time=0@note_on channel=10 note=43 velocity=100 time=0@note_on channel=0 note=83 velocity=0 time=0.454545@note_on channel=0 note=83 velocity=100 time=0@note_on channel=1 note=59 velocity=0 time=0@note_on channel=1 note=59 velocity=100 time=0@note_on channel=2 note=62 velocity=0 time=0@note_on channel=2 note=74 velocity=100 time=0@note_on channel=3 note=47 velocity=100 time=0@note_on channel=5 note=83 velocity=0 time=0@note_on channel=5 note=83 velocity=100 time=0@note_on channel=6 note=59 velocity=0 time=0@note_on channel=6 note=59 velocity=100 time=0@note_on channel=7 note=62 velocity=0 time=0@note_on channel=7 note=74 velocity=100 time=0@note_on channel=8 note=47 velocity=100 time=0@note_on channel=0 note=83 velocity=0 time=0.454545@note_on channel=0 note=83 velocity=100 time=0@note_on channel=1 note=59 velocity=0 time=0@note_on channel=1 note=59 velocity=100 time=0@note_on channel=2 note=74 velocity=0 time=0@note_on channel=2 note=76 velocity=100 time=0@note_on channel=3 note=47 velocity=0 time=0@note_on channel=3 note=50 velocity=100 time=0@note_on channel=5 note=83 velocity=0 time=0@note_on channel=5 note=83 velocity=100 time=0@note_on channel=6 note=59 velocity=0 time=0@note_on channel=6 note=59 velocity=100 time=0@note_on channel=7 note=74 velocity=0 time=0@note_on channel=7 note=76 velocity=100 time=0@note_on channel=8 note=47 velocity=0 time=0@note_on channel=8 note=50 velocity=100 time=0@note_on channel=0 note=83 velocity=0 time=0.454545@note_on channel=0 note=83 velocity=100 time=0@note_on channel=1 note=59 velocity=0 time=0@note_on channel=1 note=74 velocity=100 time=0@note_on channel=2 note=76 velocity=0 time=0@note_on channel=2 note=79 velocity=100 time=0@note_on channel=3 note=50 velocity=0 time=0@note_on channel=3 note=55 velocity=100 time=0@note_on channel=5 note=83 velocity=0 time=0@note_on channel=5 note=83 velocity=100 time=0@note_on channel=6 note=59 velocity=0 time=0@note_on channel=6 note=74 velocity=100 time=0@note_on channel=7 note=76 velocity=0 time=0@note_on channel=7 note=79 velocity=100 time=0@note_on channel=8 note=50 velocity=0 time=0@note_on channel=8 note=55 velocity=100 time=0@note_on channel=0 note=83 velocity=0 time=0.454545@note_on channel=0 note=81 velocity=100 time=0@note_on channel=1 note=74 velocity=0 time=0@note_on channel=1 note=74 velocity=100 time=0@note_on channel=2 note=79 velocity=0 time=0@note_on channel=2 note=78 velocity=100 time=0@note_on channel=3 note=55 velocity=0 time=0@note_on channel=4 note=43 velocity=0 time=0@note_on channel=4 note=38 velocity=100 time=0@note_on channel=5 note=83 velocity=0 time=0@note_on channel=5 note=81 velocity=100 time=0@note_on channel=6 note=74 velocity=0 time=0@note_on channel=6 note=74 velocity=100 time=0@note_on channel=7 note=79 velocity=0 time=0@note_on channel=7 note=78 velocity=100 time=0@note_on channel=8 note=55 velocity=0 time=0@note_on channel=10 note=43 velocity=0 time=0@note_on channel=10 note=38 velocity=100 time=0@note_on channel=0 note=81 velocity=0 time=0.454545@note_on channel=0 note=81 velocity=100 time=0@note_on channel=1 note=74 velocity=0 time=0@note_on channel=1 note=74 velocity=100 time=0@note_on channel=2 note=78 velocity=0 time=0@note_on channel=2 note=66 velocity=100 time=0@note_on channel=3 note=54 velocity=100 time=0@note_on channel=5 note=81 velocity=0 time=0@note_on channel=5 note=81 velocity=100 time=0@note_on channel=6 note=74 velocity=0 time=0@note_on channel=6 note=74 velocity=100 time=0@note_on channel=7 note=78 velocity=0 time=0@note_on channel=7 note=66 velocity=100 time=0@note_on channel=8 note=54 velocity=100 time=0@note_on channel=0 note=81 velocity=0 time=0.454545@note_on channel=0 note=81 velocity=100 time=0@note_on channel=1 note=74 velocity=0 time=0@note_on channel=1 note=74 velocity=100 time=0@note_on channel=2 note=66 velocity=0 time=0@note_on channel=2 note=57 velocity=100 time=0@note_on channel=3 note=54 velocity=0 time=0@note_on channel=3 note=57 velocity=100 time=0@note_on channel=5 note=81 velocity=0 time=0@note_on channel=5 note=81 velocity=100 time=0@note_on channel=6 note=74 velocity=0 time=0@note_on channel=6 note=74 velocity=100 time=0@note_on channel=7 note=66 velocity=0 time=0@note_on channel=7 note=57 velocity=100 time=0@note_on channel=8 note=54 velocity=0 time=0@note_on channel=8 note=57 velocity=100 time=0@note_on channel=0 note=81 velocity=0 time=0.454545@note_on channel=0 note=81 velocity=100 time=0@note_on channel=1 note=74 velocity=0 time=0@note_on channel=1 note=74 velocity=100 time=0@note_on channel=2 note=57 velocity=0 time=0@note_on channel=2 note=78 velocity=100 time=0@note_on channel=2 note=62 velocity=100 time=0@note_on channel=3 note=57 velocity=0 time=0@note_on channel=3 note=62 velocity=100 time=0@note_on channel=5 note=81 velocity=0 time=0@note_on channel=5 note=81 velocity=100 time=0@note_on channel=6 note=74 velocity=0 time=0@note_on channel=6 note=74 velocity=100 time=0@note_on channel=7 note=57 velocity=0 time=0@note_on channel=7 note=78 velocity=100 time=0@note_on channel=7 note=62 velocity=100 time=0@note_on channel=8 note=57 velocity=0 time=0@note_on channel=8 note=62 velocity=100 time=0@note_on channel=0 note=81 velocity=0 time=0.454545@note_on channel=0 note=83 velocity=100 time=0@note_on channel=1 note=74 velocity=0 time=0@note_on channel=1 note=74 velocity=100 time=0@note_on channel=2 note=62 velocity=0 time=0@note_on channel=2 note=78 velocity=0 time=0@note_on channel=2 note=74 velocity=100 time=0@note_on channel=3 note=62 velocity=0 time=0@note_on channel=4 note=38 velocity=0 time=0@note_on channel=4 note=43 velocity=100 time=0@note_on channel=5 note=81 velocity=0 time=0@note_on channel=5 note=83 velocity=100 time=0@note_on channel=6 note=74 velocity=0 time=0@note_on channel=6 note=74 velocity=100 time=0@note_on channel=7 note=62 velocity=0 time=0@note_on channel=7 note=78 velocity=0 time=0@note_on channel=7 note=74 velocity=100 time=0@note_on channel=8 note=62 velocity=0 time=0@note_on channel=10 note=38 velocity=0 time=0@note_on channel=10 note=43 velocity=100 time=0@note_on channel=0 note=83 velocity=0 time=0.454545@note_on channel=0 note=83 velocity=100 time=0@note_on channel=1 note=74 velocity=0 time=0@note_on channel=1 note=74 velocity=100 time=0@note_on channel=2 note=74 velocity=0 time=0@note_on channel=2 note=79 velocity=100 time=0@note_on channel=3 note=52 velocity=100 time=0@note_on channel=5 note=83 velocity=0 time=0@note_on channel=5 note=83 velocity=100 time=0@note_on channel=6 note=74 velocity=0 time=0@note_on channel=6 note=74 velocity=100 time=0@note_on channel=7 note=74 velocity=0 time=0@note_on channel=7 note=79 velocity=100 time=0@note_on channel=8 note=52 velocity=100 time=0@note_on channel=0 note=83 velocity=0 time=0.454545@note_on channel=0 note=83 velocity=100 time=0@note_on channel=1 note=74 velocity=0 time=0@note_on channel=1 note=71 velocity=100 time=0@note_on channel=2 note=79 velocity=0 time=0@note_on channel=2 note=78 velocity=100 time=0@note_on channel=3 note=52 velocity=0 time=0@note_on channel=3 note=59 velocity=100 time=0@note_on channel=5 note=83 velocity=0 time=0@note_on channel=5 note=83 velocity=100 time=0@note_on channel=6 note=74 velocity=0 time=0@note_on channel=6 note=71 velocity=100 time=0@note_on channel=7 note=79 velocity=0 time=0@note_on channel=7 note=78 velocity=100 time=0@note_on channel=8 note=52 velocity=0 time=0@note_on channel=8 note=59 velocity=100 time=0@note_on channel=0 note=83 velocity=0 time=0.454545@note_on channel=0 note=83 velocity=100 time=0@note_on channel=1 note=71 velocity=0 time=0@note_on channel=1 note=71 velocity=100 time=0@note_on channel=2 note=78 velocity=0 time=0@note_on channel=2 note=79 velocity=100 time=0@note_on channel=3 note=59 velocity=0 time=0@note_on channel=3 note=62 velocity=100 time=0@note_on channel=5 note=83 velocity=0 time=0@note_on channel=5 note=83 velocity=100 time=0@note_on channel=6 note=71 velocity=0 time=0@note_on channel=6 note=71 velocity=100 time=0@note_on channel=7 note=78 velocity=0 time=0@note_on channel=7 note=79 velocity=100 time=0@note_on channel=8 note=59 velocity=0 time=0@note_on channel=8 note=62 velocity=100 time=0@note_on channel=0 note=83 velocity=0 time=0.454545@note_on channel=0 note=85 velocity=100 time=0@note_on channel=1 note=71 velocity=0 time=0@note_on channel=1 note=57 velocity=100 time=0@note_on channel=2 note=79 velocity=0 time=0@note_on channel=2 note=76 velocity=100 time=0@note_on channel=3 note=62 velocity=0 time=0@note_on channel=4 note=43 velocity=0 time=0@note_on channel=4 note=45 velocity=100 time=0@note_on channel=5 note=83 velocity=0 time=0@note_on channel=5 note=85 velocity=100 time=0@note_on channel=6 note=71 velocity=0 time=0@note_on channel=6 note=57 velocity=100 time=0@note_on channel=7 note=79 velocity=0 time=0@note_on channel=7 note=76 velocity=100 time=0@note_on channel=8 note=62 velocity=0 time=0@note_on channel=10 note=43 velocity=0 time=0@note_on channel=10 note=45 velocity=100 time=0@note_on channel=0 note=85 velocity=0 time=0.454545@note_on channel=0 note=73 velocity=100 time=0@note_on channel=1 note=57 velocity=0 time=0@note_on channel=1 note=69 velocity=100 time=0@note_on channel=2 note=76 velocity=0 time=0@note_on channel=2 note=73 velocity=100 time=0@note_on channel=3 note=52 velocity=100 time=0@note_on channel=5 note=85 velocity=0 time=0@note_on channel=5 note=73 velocity=100 time=0@note_on channel=6 note=57 velocity=0 time=0@note_on channel=6 note=69 velocity=100 time=0@note_on channel=7 note=76 velocity=0 time=0@note_on channel=7 note=73 velocity=100 time=0@note_on channel=8 note=52 velocity=100 time=0@note_on channel=0 note=73 velocity=0 time=0.454545@note_on channel=0 note=73 velocity=100 time=0@note_on channel=1 note=69 velocity=0 time=0@note_on channel=1 note=76 velocity=100 time=0@note_on channel=2 note=73 velocity=0 time=0@note_on channel=2 note=67 velocity=100 time=0@note_on channel=3 note=52 velocity=0 time=0@note_on channel=3 note=57 velocity=100 time=0@note_on channel=5 note=73 velocity=0 time=0@note_on channel=5 note=73 velocity=100 time=0@note_on channel=6 note=69 velocity=0 time=0@note_on channel=6 note=76 velocity=100 time=0@note_on channel=7 note=73 velocity=0 time=0@note_on channel=7 note=67 velocity=100 time=0@note_on channel=8 note=52 velocity=0 time=0@note_on channel=8 note=57 velocity=100 time=0@note_on channel=0 note=73 velocity=0 time=0.454545@note_on channel=0 note=73 velocity=100 time=0@note_on channel=1 note=76 velocity=0 time=0@note_on channel=1 note=69 velocity=100 time=0@note_on channel=2 note=67 velocity=0 time=0@note_on channel=2 note=69 velocity=100 time=0@note_on channel=3 note=57 velocity=0 time=0@note_on channel=3 note=61 velocity=100 time=0@note_on channel=5 note=73 velocity=0 time=0@note_on channel=5 note=73 velocity=100 time=0@note_on channel=6 note=76 velocity=0 time=0@note_on channel=6 note=69 velocity=100 time=0@note_on channel=7 note=67 velocity=0 time=0@note_on channel=7 note=69 velocity=100 time=0@note_on channel=8 note=57 velocity=0 time=0@note_on channel=8 note=61 velocity=100 time=0@note_on channel=0 note=73 velocity=0 time=0.454545@note_on channel=0 note=74 velocity=100 time=0@control_change channel=0 control=7 value=80 time=0@note_on channel=1 note=69 velocity=0 time=0@note_on channel=1 note=69 velocity=100 time=0@control_change channel=1 control=7 value=80 time=0@note_on channel=2 note=69 velocity=0 time=0@note_on channel=2 note=66 velocity=100 time=0@control_change channel=2 control=7 value=80 time=0@note_on channel=3 note=61 velocity=0 time=0@control_change channel=3 control=7 value=80 time=0@note_on channel=4 note=45 velocity=0 time=0@note_on channel=4 note=50 velocity=100 time=0@control_change channel=4 control=7 value=80 time=0@note_on channel=5 note=73 velocity=0 time=0@note_on channel=5 note=74 velocity=100 time=0@control_change channel=5 control=7 value=80 time=0@note_on channel=6 note=69 velocity=0 time=0@note_on channel=6 note=69 velocity=100 time=0@control_change channel=6 control=7 value=80 time=0@note_on channel=7 note=69 velocity=0 time=0@note_on channel=7 note=66 velocity=100 time=0@control_change channel=7 control=7 value=80 time=0@note_on channel=8 note=61 velocity=0 time=0@control_change channel=8 control=7 value=80 time=0@note_on channel=10 note=45 velocity=0 time=0@note_on channel=10 note=50 velocity=100 time=0@control_change channel=10 control=7 value=80 time=0@note_on channel=0 note=74 velocity=0 time=0.454545@note_on channel=0 note=62 velocity=100 time=0@note_on channel=1 note=69 velocity=0 time=0@note_on channel=1 note=78 velocity=100 time=0@note_on channel=2 note=66 velocity=0 time=0@note_on channel=2 note=69 velocity=100 time=0@note_on channel=3 note=57 velocity=100 time=0@note_on channel=5 note=74 velocity=0 time=0@note_on channel=5 note=62 velocity=100 time=0@note_on channel=6 note=69 velocity=0 time=0@note_on channel=6 note=78 velocity=100 time=0@note_on channel=7 note=66 velocity=0 time=0@note_on channel=7 note=69 velocity=100 time=0@note_on channel=8 note=57 velocity=100 time=0@note_on channel=0 note=62 velocity=0 time=0.2272725@note_on channel=0 note=64 velocity=100 time=0@note_on channel=5 note=62 velocity=0 time=0@note_on channel=5 note=64 velocity=100 time=0@note_on channel=0 note=64 velocity=0 time=0.2272725@note_on channel=0 note=66 velocity=100 time=0@note_on channel=1 note=78 velocity=0 time=0@note_on channel=1 note=78 velocity=100 time=0@note_on channel=2 note=69 velocity=0 time=0@note_on channel=2 note=69 velocity=100 time=0@note_on channel=3 note=57 velocity=0 time=0@note_on channel=3 note=62 velocity=100 time=0@note_on channel=5 note=64 velocity=0 time=0@note_on channel=5 note=66 velocity=100 time=0@note_on channel=6 note=78 velocity=0 time=0@note_on channel=6 note=78 velocity=100 time=0@note_on channel=7 note=69 velocity=0 time=0@note_on channel=7 note=69 velocity=100 time=0@note_on channel=8 note=57 velocity=0 time=0@note_on channel=8 note=62 velocity=100 time=0@note_on channel=0 note=66 velocity=0 time=0.454545@note_on channel=0 note=66 velocity=100 time=0@note_on channel=1 note=78 velocity=0 time=0@note_on channel=1 note=78 velocity=100 time=0@note_on channel=2 note=69 velocity=0 time=0@note_on channel=2 note=69 velocity=100 time=0@note_on channel=3 note=62 velocity=0 time=0@note_on channel=3 note=66 velocity=100 time=0@note_on channel=5 note=66 velocity=0 time=0@note_on channel=5 note=66 velocity=100 time=0@note_on channel=6 note=78 velocity=0 time=0@note_on channel=6 note=78 velocity=100 time=0@note_on channel=7 note=69 velocity=0 time=0@note_on channel=7 note=69 velocity=100 time=0@note_on channel=8 note=62 velocity=0 time=0@note_on channel=8 note=66 velocity=100 time=0@note_on channel=0 note=66 velocity=0 time=0.454545@note_on channel=0 note=61 velocity=100 time=0@note_on channel=1 note=78 velocity=0 time=0@note_on channel=2 note=69 velocity=0 time=0@note_on channel=3 note=66 velocity=0 time=0@note_on channel=4 note=50 velocity=0 time=0@note_on channel=4 note=45 velocity=100 time=0@note_on channel=5 note=66 velocity=0 time=0@note_on channel=5 note=61 velocity=100 time=0@note_on channel=6 note=78 velocity=0 time=0@note_on channel=7 note=69 velocity=0 time=0@note_on channel=8 note=66 velocity=0 time=0@note_on channel=10 note=50 velocity=0 time=0@note_on channel=10 note=45 velocity=100 time=0@note_on channel=2 note=69 velocity=100 time=0.03787875@note_on channel=7 note=69 velocity=100 time=0@note_on channel=1 note=76 velocity=100 time=0.03787875@note_on channel=6 note=76 velocity=100 time=0@note_on channel=0 note=61 velocity=0 time=0.3787875@note_on channel=0 note=73 velocity=100 time=0@note_on channel=1 note=76 velocity=0 time=0@note_on channel=1 note=76 velocity=100 time=0@note_on channel=2 note=69 velocity=0 time=0@note_on channel=2 note=69 velocity=100 time=0@note_on channel=3 note=52 velocity=100 time=0@note_on channel=5 note=61 velocity=0 time=0@note_on channel=5 note=73 velocity=100 time=0@note_on channel=6 note=76 velocity=0 time=0@note_on channel=6 note=76 velocity=100 time=0@note_on channel=7 note=69 velocity=0 time=0@note_on channel=7 note=69 velocity=100 time=0@note_on channel=8 note=52 velocity=100 time=0@note_on channel=0 note=73 velocity=0 time=0.2272725@note_on channel=0 note=74 velocity=100 time=0@note_on channel=5 note=73 velocity=0 time=0@note_on channel=5 note=74 velocity=100 time=0@note_on channel=0 note=74 velocity=0 time=0.2272725@note_on channel=0 note=76 velocity=100 time=0@note_on channel=1 note=76 velocity=0 time=0@note_on channel=1 note=76 velocity=100 time=0@note_on channel=2 note=69 velocity=0 time=0@note_on channel=2 note=69 velocity=100 time=0@note_on channel=3 note=52 velocity=0 time=0@note_on channel=3 note=57 velocity=100 time=0@note_on channel=5 note=74 velocity=0 time=0@note_on channel=5 note=76 velocity=100 time=0@note_on channel=6 note=76 velocity=0 time=0@note_on channel=6 note=76 velocity=100 time=0@note_on channel=7 note=69 velocity=0 time=0@note_on channel=7 note=69 velocity=100 time=0@note_on channel=8 note=52 velocity=0 time=0@note_on channel=8 note=57 velocity=100 time=0@note_on channel=0 note=76 velocity=0 time=0.454545@note_on channel=0 note=73 velocity=100 time=0@note_on channel=1 note=76 velocity=0 time=0@note_on channel=1 note=76 velocity=100 time=0@note_on channel=2 note=69 velocity=0 time=0@note_on channel=2 note=69 velocity=100 time=0@note_on channel=3 note=57 velocity=0 time=0@note_on channel=3 note=61 velocity=100 time=0@note_on channel=5 note=76 velocity=0 time=0@note_on channel=5 note=73 velocity=100 time=0@note_on channel=6 note=76 velocity=0 time=0@note_on channel=6 note=76 velocity=100 time=0@note_on channel=7 note=69 velocity=0 time=0@note_on channel=7 note=69 velocity=100 time=0@note_on channel=8 note=57 velocity=0 time=0@note_on channel=8 note=61 velocity=100 time=0@note_on channel=0 note=73 velocity=0 time=0.454545@note_on channel=0 note=71 velocity=100 time=0@note_on channel=1 note=76 velocity=0 time=0@note_on channel=1 note=74 velocity=100 time=0@note_on channel=2 note=69 velocity=0 time=0@note_on channel=2 note=66 velocity=100 time=0@note_on channel=3 note=61 velocity=0 time=0@note_on channel=4 note=45 velocity=0 time=0@note_on channel=4 note=47 velocity=100 time=0@note_on channel=5 note=73 velocity=0 time=0@note_on channel=5 note=71 velocity=100 time=0@note_on channel=6 note=76 velocity=0 time=0@note_on channel=6 note=74 velocity=100 time=0@note_on channel=7 note=69 velocity=0 time=0@note_on channel=7 note=66 velocity=100 time=0@note_on channel=8 note=61 velocity=0 time=0@note_on channel=10 note=45 velocity=0 time=0@note_on channel=10 note=47 velocity=100 time=0@note_on channel=0 note=71 velocity=0 time=0.454545@note_on channel=0 note=59 velocity=100 time=0@note_on channel=1 note=74 velocity=0 time=0@note_on channel=1 note=74 velocity=100 time=0@note_on channel=2 note=66 velocity=0 time=0@note_on channel=2 note=66 velocity=100 time=0@note_on channel=3 note=50 velocity=100 time=0@note_on channel=5 note=71 velocity=0 time=0@note_on channel=5 note=59 velocity=100 time=0@note_on channel=6 note=74 velocity=0 time=0@note_on channel=6 note=74 velocity=100 time=0@note_on channel=7 note=66 velocity=0 time=0@note_on channel=7 note=66 velocity=100 time=0@note_on channel=8 note=50 velocity=100 time=0@note_on channel=0 note=59 velocity=0 time=0.2272725@note_on channel=0 note=61 velocity=100 time=0@note_on channel=5 note=59 velocity=0 time=0@note_on channel=5 note=61 velocity=100 time=0@note_on channel=0 note=61 velocity=0 time=0.2272725@note_on channel=0 note=62 velocity=100 time=0@note_on channel=1 note=74 velocity=0 time=0@note_on channel=1 note=74 velocity=100 time=0@note_on channel=2 note=66 velocity=0 time=0@note_on channel=2 note=66 velocity=100 time=0@note_on channel=3 note=50 velocity=0 time=0@note_on channel=3 note=54 velocity=100 time=0@note_on channel=5 note=61 velocity=0 time=0@note_on channel=5 note=62 velocity=100 time=0@note_on channel=6 note=74 velocity=0 time=0@note_on channel=6 note=74 velocity=100 time=0@note_on channel=7 note=66 velocity=0 time=0@note_on channel=7 note=66 velocity=100 time=0@note_on channel=8 note=50 velocity=0 time=0@note_on channel=8 note=54 velocity=100 time=0@note_on channel=0 note=62 velocity=0 time=0.454545@note_on channel=0 note=62 velocity=100 time=0@note_on channel=1 note=74 velocity=0 time=0@note_on channel=1 note=74 velocity=100 time=0@note_on channel=2 note=66 velocity=0 time=0@note_on channel=2 note=66 velocity=100 time=0@note_on channel=3 note=54 velocity=0 time=0@note_on channel=3 note=59 velocity=100 time=0@note_on channel=5 note=62 velocity=0 time=0@note_on channel=5 note=62 velocity=100 time=0@note_on channel=6 note=74 velocity=0 time=0@note_on channel=6 note=74 velocity=100 time=0@note_on channel=7 note=66 velocity=0 time=0@note_on channel=7 note=66 velocity=100 time=0@note_on channel=8 note=54 velocity=0 time=0@note_on channel=8 note=59 velocity=100 time=0@note_on channel=0 note=62 velocity=0 time=0.454545@note_on channel=0 note=73 velocity=100 time=0@note_on channel=1 note=74 velocity=0 time=0@note_on channel=1 note=81 velocity=100 time=0@note_on channel=2 note=66 velocity=0 time=0@note_on channel=2 note=69 velocity=100 time=0@note_on channel=3 note=59 velocity=0 time=0@note_on channel=4 note=47 velocity=0 time=0@note_on channel=4 note=42 velocity=100 time=0@note_on channel=5 note=62 velocity=0 time=0@note_on channel=5 note=73 velocity=100 time=0@note_on channel=6 note=74 velocity=0 time=0@note_on channel=6 note=81 velocity=100 time=0@note_on channel=7 note=66 velocity=0 time=0@note_on channel=7 note=69 velocity=100 time=0@note_on channel=8 note=59 velocity=0 time=0@note_on channel=10 note=47 velocity=0 time=0@note_on channel=10 note=42 velocity=100 time=0@note_on channel=0 note=73 velocity=0 time=0.454545@note_on channel=0 note=69 velocity=100 time=0@note_on channel=1 note=81 velocity=0 time=0@note_on channel=1 note=81 velocity=100 time=0@note_on channel=2 note=69 velocity=0 time=0@note_on channel=2 note=69 velocity=100 time=0@note_on channel=3 note=49 velocity=100 time=0@note_on channel=5 note=73 velocity=0 time=0@note_on channel=5 note=69 velocity=100 time=0@note_on channel=6 note=81 velocity=0 time=0@note_on channel=6 note=81 velocity=100 time=0@note_on channel=7 note=69 velocity=0 time=0@note_on channel=7 note=69 velocity=100 time=0@note_on channel=8 note=49 velocity=100 time=0@note_on channel=0 note=69 velocity=0 time=0.2272725@note_on channel=0 note=67 velocity=100 time=0@note_on channel=5 note=69 velocity=0 time=0@note_on channel=5 note=67 velocity=100 time=0@note_on channel=0 note=67 velocity=0 time=0.2272725@note_on channel=0 note=66 velocity=100 time=0@note_on channel=1 note=81 velocity=0 time=0@note_on channel=1 note=81 velocity=100 time=0@note_on channel=2 note=69 velocity=0 time=0@note_on channel=2 note=69 velocity=100 time=0@note_on channel=3 note=49 velocity=0 time=0@note_on channel=3 note=54 velocity=100 time=0@note_on channel=5 note=67 velocity=0 time=0@note_on channel=5 note=66 velocity=100 time=0@note_on channel=6 note=81 velocity=0 time=0@note_on channel=6 note=81 velocity=100 time=0@note_on channel=7 note=69 velocity=0 time=0@note_on channel=7 note=69 velocity=100 time=0@note_on channel=8 note=49 velocity=0 time=0@note_on channel=8 note=54 velocity=100 time=0@note_on channel=0 note=66 velocity=0 time=0.454545@note_on channel=0 note=64 velocity=100 time=0@note_on channel=1 note=81 velocity=0 time=0@note_on channel=1 note=81 velocity=100 time=0@note_on channel=2 note=69 velocity=0 time=0@note_on channel=2 note=69 velocity=100 time=0@note_on channel=3 note=54 velocity=0 time=0@note_on channel=3 note=57 velocity=100 time=0@note_on channel=5 note=66 velocity=0 time=0@note_on channel=5 note=64 velocity=100 time=0@note_on channel=6 note=81 velocity=0 time=0@note_on channel=6 note=81 velocity=100 time=0@note_on channel=7 note=69 velocity=0 time=0@note_on channel=7 note=69 velocity=100 time=0@note_on channel=8 note=54 velocity=0 time=0@note_on channel=8 note=57 velocity=100 time=0@note_on channel=0 note=64 velocity=0 time=0.454545@note_on channel=1 note=81 velocity=0 time=0@note_on channel=2 note=69 velocity=0 time=0@note_on channel=2 note=55 velocity=100 time=0@note_on channel=2 note=67 velocity=100 time=0@note_on channel=3 note=57 velocity=0 time=0@note_on channel=4 note=42 velocity=0 time=0@note_on channel=4 note=43 velocity=100 time=0@note_on channel=5 note=64 velocity=0 time=0@note_on channel=6 note=81 velocity=0 time=0@note_on channel=7 note=69 velocity=0 time=0@note_on channel=7 note=55 velocity=100 time=0@note_on channel=7 note=67 velocity=100 time=0@note_on channel=8 note=57 velocity=0 time=0@note_on channel=10 note=42 velocity=0 time=0@note_on channel=10 note=43 velocity=100 time=0@note_on channel=0 note=74 velocity=100 time=0.03787875@note_on channel=5 note=74 velocity=100 time=0@note_on channel=1 note=83 velocity=100 time=0.03787875@note_on channel=6 note=83 velocity=100 time=0@note_on channel=0 note=74 velocity=0 time=0.3787875@note_on channel=0 note=67 velocity=100 time=0@note_on channel=1 note=83 velocity=0 time=0@note_on channel=1 note=83 velocity=100 time=0@note_on channel=2 note=67 velocity=0 time=0@note_on channel=2 note=55 velocity=0 time=0@note_on channel=2 note=59 velocity=100 time=0@note_on channel=3 note=47 velocity=100 time=0@note_on channel=5 note=74 velocity=0 time=0@note_on channel=5 note=67 velocity=100 time=0@note_on channel=6 note=83 velocity=0 time=0@note_on channel=6 note=83 velocity=100 time=0@note_on channel=7 note=67 velocity=0 time=0@note_on channel=7 note=55 velocity=0 time=0@note_on channel=7 note=59 velocity=100 time=0@note_on channel=8 note=47 velocity=100 time=0@note_on channel=0 note=67 velocity=0 time=0.2272725@note_on channel=0 note=66 velocity=100 time=0@note_on channel=5 note=67 velocity=0 time=0@note_on channel=5 note=66 velocity=100 time=0@note_on channel=0 note=66 velocity=0 time=0.2272725@note_on channel=0 note=64 velocity=100 time=0@note_on channel=1 note=83 velocity=0 time=0@note_on channel=1 note=83 velocity=100 time=0@note_on channel=2 note=59 velocity=0 time=0@note_on channel=2 note=62 velocity=100 time=0@note_on channel=3 note=47 velocity=0 time=0@note_on channel=3 note=50 velocity=100 time=0@note_on channel=5 note=66 velocity=0 time=0@note_on channel=5 note=64 velocity=100 time=0@note_on channel=6 note=83 velocity=0 time=0@note_on channel=6 note=83 velocity=100 time=0@note_on channel=7 note=59 velocity=0 time=0@note_on channel=7 note=62 velocity=100 time=0@note_on channel=8 note=47 velocity=0 time=0@note_on channel=8 note=50 velocity=100 time=0@note_on channel=0 note=64 velocity=0 time=0.454545@note_on channel=0 note=67 velocity=100 time=0@note_on channel=1 note=83 velocity=0 time=0@note_on channel=1 note=83 velocity=100 time=0@note_on channel=2 note=62 velocity=0 time=0@note_on channel=2 note=74 velocity=100 time=0@note_on channel=3 note=50 velocity=0 time=0@note_on channel=3 note=55 velocity=100 time=0@note_on channel=5 note=64 velocity=0 time=0@note_on channel=5 note=67 velocity=100 time=0@note_on channel=6 note=83 velocity=0 time=0@note_on channel=6 note=83 velocity=100 time=0@note_on channel=7 note=62 velocity=0 time=0@note_on channel=7 note=74 velocity=100 time=0@note_on channel=8 note=50 velocity=0 time=0@note_on channel=8 note=55 velocity=100 time=0@note_on channel=0 note=67 velocity=0 time=0.454545@note_on channel=0 note=66 velocity=100 time=0@note_on channel=1 note=83 velocity=0 time=0@note_on channel=1 note=81 velocity=100 time=0@note_on channel=2 note=74 velocity=0 time=0@note_on channel=2 note=74 velocity=100 time=0@note_on channel=3 note=55 velocity=0 time=0@note_on channel=4 note=43 velocity=0 time=0@note_on channel=4 note=38 velocity=100 time=0@note_on channel=5 note=67 velocity=0 time=0@note_on channel=5 note=66 velocity=100 time=0@note_on channel=6 note=83 velocity=0 time=0@note_on channel=6 note=81 velocity=100 time=0@note_on channel=7 note=74 velocity=0 time=0@note_on channel=7 note=74 velocity=100 time=0@note_on channel=8 note=55 velocity=0 time=0@note_on channel=10 note=43 velocity=0 time=0@note_on channel=10 note=38 velocity=100 time=0@note_on channel=0 note=66 velocity=0 time=0.454545@note_on channel=0 note=62 velocity=100 time=0@note_on channel=1 note=81 velocity=0 time=0@note_on channel=1 note=81 velocity=100 time=0@note_on channel=2 note=74 velocity=0 time=0@note_on channel=2 note=74 velocity=100 time=0@note_on channel=3 note=54 velocity=100 time=0@note_on channel=5 note=66 velocity=0 time=0@note_on channel=5 note=62 velocity=100 time=0@note_on channel=6 note=81 velocity=0 time=0@note_on channel=6 note=81 velocity=100 time=0@note_on channel=7 note=74 velocity=0 time=0@note_on channel=7 note=74 velocity=100 time=0@note_on channel=8 note=54 velocity=100 time=0@note_on channel=0 note=62 velocity=0 time=0.2272725@note_on channel=0 note=64 velocity=100 time=0@note_on channel=5 note=62 velocity=0 time=0@note_on channel=5 note=64 velocity=100 time=0@note_on channel=0 note=64 velocity=0 time=0.2272725@note_on channel=0 note=66 velocity=100 time=0@note_on channel=1 note=81 velocity=0 time=0@note_on channel=1 note=81 velocity=100 time=0@note_on channel=2 note=74 velocity=0 time=0@note_on channel=2 note=74 velocity=100 time=0@note_on channel=3 note=54 velocity=0 time=0@note_on channel=3 note=57 velocity=100 time=0@note_on channel=5 note=64 velocity=0 time=0@note_on channel=5 note=66 velocity=100 time=0@note_on channel=6 note=81 velocity=0 time=0@note_on channel=6 note=81 velocity=100 time=0@note_on channel=7 note=74 velocity=0 time=0@note_on channel=7 note=74 velocity=100 time=0@note_on channel=8 note=54 velocity=0 time=0@note_on channel=8 note=57 velocity=100 time=0@note_on channel=0 note=66 velocity=0 time=0.454545@note_on channel=0 note=69 velocity=100 time=0@note_on channel=1 note=81 velocity=0 time=0@note_on channel=1 note=81 velocity=100 time=0@note_on channel=2 note=74 velocity=0 time=0@note_on channel=2 note=74 velocity=100 time=0@note_on channel=3 note=57 velocity=0 time=0@note_on channel=3 note=62 velocity=100 time=0@note_on channel=5 note=66 velocity=0 time=0@note_on channel=5 note=69 velocity=100 time=0@note_on channel=6 note=81 velocity=0 time=0@note_on channel=6 note=81 velocity=100 time=0@note_on channel=7 note=74 velocity=0 time=0@note_on channel=7 note=74 velocity=100 time=0@note_on channel=8 note=57 velocity=0 time=0@note_on channel=8 note=62 velocity=100 time=0@note_on channel=0 note=69 velocity=0 time=0.454545@note_on channel=0 note=67 velocity=100 time=0@note_on channel=1 note=81 velocity=0 time=0@note_on channel=2 note=74 velocity=0 time=0@note_on channel=3 note=62 velocity=0 time=0@note_on channel=4 note=38 velocity=0 time=0@note_on channel=4 note=43 velocity=100 time=0@note_on channel=5 note=69 velocity=0 time=0@note_on channel=5 note=67 velocity=100 time=0@note_on channel=6 note=81 velocity=0 time=0@note_on channel=7 note=74 velocity=0 time=0@note_on channel=8 note=62 velocity=0 time=0@note_on channel=10 note=38 velocity=0 time=0@note_on channel=10 note=43 velocity=100 time=0@note_on channel=2 note=74 velocity=100 time=0.03787875@note_on channel=7 note=74 velocity=100 time=0@note_on channel=1 note=83 velocity=100 time=0.03787875@note_on channel=6 note=83 velocity=100 time=0@note_on channel=0 note=67 velocity=0 time=0.3787875@note_on channel=0 note=71 velocity=100 time=0@note_on channel=1 note=83 velocity=0 time=0@note_on channel=1 note=83 velocity=100 time=0@note_on channel=2 note=74 velocity=0 time=0@note_on channel=2 note=74 velocity=100 time=0@note_on channel=3 note=52 velocity=100 time=0@note_on channel=5 note=67 velocity=0 time=0@note_on channel=5 note=71 velocity=100 time=0@note_on channel=6 note=83 velocity=0 time=0@note_on channel=6 note=83 velocity=100 time=0@note_on channel=7 note=74 velocity=0 time=0@note_on channel=7 note=74 velocity=100 time=0@note_on channel=8 note=52 velocity=100 time=0@note_on channel=0 note=71 velocity=0 time=0.2272725@note_on channel=0 note=69 velocity=100 time=0@note_on channel=5 note=71 velocity=0 time=0@note_on channel=5 note=69 velocity=100 time=0@note_on channel=0 note=69 velocity=0 time=0.2272725@note_on channel=0 note=67 velocity=100 time=0@note_on channel=1 note=83 velocity=0 time=0@note_on channel=1 note=83 velocity=100 time=0@note_on channel=2 note=74 velocity=0 time=0@note_on channel=2 note=71 velocity=100 time=0@note_on channel=3 note=52 velocity=0 time=0@note_on channel=3 note=59 velocity=100 time=0@note_on channel=5 note=69 velocity=0 time=0@note_on channel=5 note=67 velocity=100 time=0@note_on channel=6 note=83 velocity=0 time=0@note_on channel=6 note=83 velocity=100 time=0@note_on channel=7 note=74 velocity=0 time=0@note_on channel=7 note=71 velocity=100 time=0@note_on channel=8 note=52 velocity=0 time=0@note_on channel=8 note=59 velocity=100 time=0@note_on channel=0 note=67 velocity=0 time=0.454545@note_on channel=0 note=66 velocity=100 time=0@note_on channel=1 note=83 velocity=0 time=0@note_on channel=1 note=83 velocity=100 time=0@note_on channel=2 note=71 velocity=0 time=0@note_on channel=2 note=71 velocity=100 time=0@note_on channel=3 note=59 velocity=0 time=0@note_on channel=3 note=62 velocity=100 time=0@note_on channel=5 note=67 velocity=0 time=0@note_on channel=5 note=66 velocity=100 time=0@note_on channel=6 note=83 velocity=0 time=0@note_on channel=6 note=83 velocity=100 time=0@note_on channel=7 note=71 velocity=0 time=0@note_on channel=7 note=71 velocity=100 time=0@note_on channel=8 note=59 velocity=0 time=0@note_on channel=8 note=62 velocity=100 time=0@note_on channel=0 note=66 velocity=0 time=0.454545@note_on channel=0 note=76 velocity=100 time=0@note_on channel=1 note=83 velocity=0 time=0@note_on channel=1 note=73 velocity=100 time=0@note_on channel=1 note=85 velocity=100 time=0@note_on channel=2 note=71 velocity=0 time=0@note_on channel=2 note=57 velocity=100 time=0@note_on channel=3 note=62 velocity=0 time=0@note_on channel=4 note=43 velocity=0 time=0@note_on channel=4 note=45 velocity=100 time=0@note_on channel=5 note=66 velocity=0 time=0@note_on channel=5 note=76 velocity=100 time=0@note_on channel=6 note=83 velocity=0 time=0@note_on channel=6 note=73 velocity=100 time=0@note_on channel=6 note=85 velocity=100 time=0@note_on channel=7 note=71 velocity=0 time=0@note_on channel=7 note=57 velocity=100 time=0@note_on channel=8 note=62 velocity=0 time=0@note_on channel=10 note=43 velocity=0 time=0@note_on channel=10 note=45 velocity=100 time=0@note_on channel=0 note=76 velocity=0 time=0.454545@note_on channel=0 note=69 velocity=100 time=0@note_on channel=1 note=85 velocity=0 time=0@note_on channel=1 note=73 velocity=0 time=0@note_on channel=1 note=73 velocity=100 time=0@note_on channel=2 note=57 velocity=0 time=0@note_on channel=2 note=69 velocity=100 time=0@note_on channel=3 note=52 velocity=100 time=0@note_on channel=5 note=76 velocity=0 time=0@note_on channel=5 note=69 velocity=100 time=0@note_on channel=6 note=85 velocity=0 time=0@note_on channel=6 note=73 velocity=0 time=0@note_on channel=6 note=73 velocity=100 time=0@note_on channel=7 note=57 velocity=0 time=0@note_on channel=7 note=69 velocity=100 time=0@note_on channel=8 note=52 velocity=100 time=0@note_on channel=0 note=69 velocity=0 time=0.2272725@note_on channel=0 note=67 velocity=100 time=0@note_on channel=5 note=69 velocity=0 time=0@note_on channel=5 note=67 velocity=100 time=0@note_on channel=0 note=67 velocity=0 time=0.2272725@note_on channel=0 note=66 velocity=100 time=0@note_on channel=1 note=73 velocity=0 time=0@note_on channel=1 note=73 velocity=100 time=0@note_on channel=2 note=69 velocity=0 time=0@note_on channel=2 note=76 velocity=100 time=0@note_on channel=3 note=52 velocity=0 time=0@note_on channel=3 note=57 velocity=100 time=0@note_on channel=5 note=67 velocity=0 time=0@note_on channel=5 note=66 velocity=100 time=0@note_on channel=6 note=73 velocity=0 time=0@note_on channel=6 note=73 velocity=100 time=0@note_on channel=7 note=69 velocity=0 time=0@note_on channel=7 note=76 velocity=100 time=0@note_on channel=8 note=52 velocity=0 time=0@note_on channel=8 note=57 velocity=100 time=0@note_on channel=0 note=66 velocity=0 time=0.454545@note_on channel=0 note=64 velocity=100 time=0@note_on channel=1 note=73 velocity=0 time=0@note_on channel=1 note=73 velocity=100 time=0@note_on channel=2 note=76 velocity=0 time=0@note_on channel=2 note=69 velocity=100 time=0@note_on channel=3 note=57 velocity=0 time=0@note_on channel=3 note=61 velocity=100 time=0@note_on channel=5 note=66 velocity=0 time=0@note_on channel=5 note=64 velocity=100 time=0@note_on channel=6 note=73 velocity=0 time=0@note_on channel=6 note=73 velocity=100 time=0@note_on channel=7 note=76 velocity=0 time=0@note_on channel=7 note=69 velocity=100 time=0@note_on channel=8 note=57 velocity=0 time=0@note_on channel=8 note=61 velocity=100 time=0@note_on channel=0 note=64 velocity=0 time=0.454545@note_on channel=0 note=66 velocity=100 time=0@note_on channel=0 note=62 velocity=100 time=0@control_change channel=0 control=7 value=100 time=0@note_on channel=1 note=73 velocity=0 time=0@note_on channel=1 note=74 velocity=100 time=0@control_change channel=1 control=7 value=100 time=0@note_on channel=2 note=69 velocity=0 time=0@note_on channel=2 note=69 velocity=100 time=0@control_change channel=2 control=7 value=100 time=0@note_on channel=3 note=61 velocity=0 time=0@control_change channel=3 control=7 value=100 time=0@note_on channel=4 note=45 velocity=0 time=0@note_on channel=4 note=50 velocity=100 time=0@control_change channel=4 control=7 value=100 time=0@note_on channel=5 note=64 velocity=0 time=0@note_on channel=5 note=66 velocity=100 time=0@note_on channel=5 note=62 velocity=100 time=0@control_change channel=5 control=7 value=100 time=0@note_on channel=6 note=73 velocity=0 time=0@note_on channel=6 note=74 velocity=100 time=0@control_change channel=6 control=7 value=100 time=0@note_on channel=7 note=69 velocity=0 time=0@note_on channel=7 note=69 velocity=100 time=0@control_change channel=7 control=7 value=100 time=0@note_on channel=8 note=61 velocity=0 time=0@control_change channel=8 control=7 value=100 time=0@note_on channel=10 note=45 velocity=0 time=0@note_on channel=10 note=50 velocity=100 time=0@control_change channel=10 control=7 value=100 time=0@note_on channel=0 note=62 velocity=0 time=0.454545@note_on channel=0 note=66 velocity=0 time=0@note_on channel=0 note=74 velocity=100 time=0@note_on channel=1 note=74 velocity=0 time=0@note_on channel=1 note=62 velocity=100 time=0@note_on channel=2 note=69 velocity=0 time=0@note_on channel=2 note=78 velocity=100 time=0@note_on channel=3 note=57 velocity=100 time=0@note_on channel=5 note=62 velocity=0 time=0@note_on channel=5 note=66 velocity=0 time=0@note_on channel=5 note=74 velocity=100 time=0@note_on channel=6 note=74 velocity=0 time=0@note_on channel=6 note=62 velocity=100 time=0@note_on channel=7 note=69 velocity=0 time=0@note_on channel=7 note=78 velocity=100 time=0@note_on channel=8 note=57 velocity=100 time=0@note_on channel=0 note=74 velocity=0 time=0.2272725@note_on channel=0 note=73 velocity=100 time=0@note_on channel=1 note=62 velocity=0 time=0@note_on channel=1 note=64 velocity=100 time=0@note_on channel=5 note=74 velocity=0 time=0@note_on channel=5 note=73 velocity=100 time=0@note_on channel=6 note=62 velocity=0 time=0@note_on channel=6 note=64 velocity=100 time=0@note_on channel=0 note=73 velocity=0 time=0.2272725@note_on channel=0 note=74 velocity=100 time=0@note_on channel=1 note=64 velocity=0 time=0@note_on channel=1 note=66 velocity=100 time=0@note_on channel=2 note=78 velocity=0 time=0@note_on channel=2 note=78 velocity=100 time=0@note_on channel=3 note=57 velocity=0 time=0@note_on channel=3 note=62 velocity=100 time=0@note_on channel=5 note=73 velocity=0 time=0@note_on channel=5 note=74 velocity=100 time=0@note_on channel=6 note=64 velocity=0 time=0@note_on channel=6 note=66 velocity=100 time=0@note_on channel=7 note=78 velocity=0 time=0@note_on channel=7 note=78 velocity=100 time=0@note_on channel=8 note=57 velocity=0 time=0@note_on channel=8 note=62 velocity=100 time=0@note_on channel=0 note=74 velocity=0 time=0.454545@note_on channel=0 note=62 velocity=100 time=0@note_on channel=1 note=66 velocity=0 time=0@note_on channel=1 note=62 velocity=100 time=0@note_on channel=2 note=78 velocity=0 time=0@note_on channel=2 note=78 velocity=100 time=0@note_on channel=3 note=62 velocity=0 time=0@note_on channel=3 note=66 velocity=100 time=0@note_on channel=5 note=74 velocity=0 time=0@note_on channel=5 note=62 velocity=100 time=0@note_on channel=6 note=66 velocity=0 time=0@note_on channel=6 note=62 velocity=100 time=0@note_on channel=7 note=78 velocity=0 time=0@note_on channel=7 note=78 velocity=100 time=0@note_on channel=8 note=62 velocity=0 time=0@note_on channel=8 note=66 velocity=100 time=0@note_on channel=0 note=62 velocity=0 time=0.454545@note_on channel=0 note=69 velocity=100 time=0@note_on channel=1 note=62 velocity=0 time=0@note_on channel=1 note=61 velocity=100 time=0@note_on channel=2 note=78 velocity=0 time=0@note_on channel=2 note=76 velocity=100 time=0@note_on channel=3 note=66 velocity=0 time=0@note_on channel=4 note=50 velocity=0 time=0@note_on channel=4 note=45 velocity=100 time=0@note_on channel=5 note=62 velocity=0 time=0@note_on channel=5 note=69 velocity=100 time=0@note_on channel=6 note=62 velocity=0 time=0@note_on channel=6 note=61 velocity=100 time=0@note_on channel=7 note=78 velocity=0 time=0@note_on channel=7 note=76 velocity=100 time=0@note_on channel=8 note=66 velocity=0 time=0@note_on channel=10 note=50 velocity=0 time=0@note_on channel=10 note=45 velocity=100 time=0@note_on channel=0 note=69 velocity=0 time=0.454545@note_on channel=0 note=69 velocity=100 time=0@note_on channel=1 note=61 velocity=0 time=0@note_on channel=1 note=73 velocity=100 time=0@note_on channel=2 note=76 velocity=0 time=0@note_on channel=2 note=76 velocity=100 time=0@note_on channel=3 note=52 velocity=100 time=0@note_on channel=5 note=69 velocity=0 time=0@note_on channel=5 note=69 velocity=100 time=0@note_on channel=6 note=61 velocity=0 time=0@note_on channel=6 note=73 velocity=100 time=0@note_on channel=7 note=76 velocity=0 time=0@note_on channel=7 note=76 velocity=100 time=0@note_on channel=8 note=52 velocity=100 time=0@note_on channel=0 note=69 velocity=0 time=0.2272725@note_on channel=0 note=71 velocity=100 time=0@note_on channel=1 note=73 velocity=0 time=0@note_on channel=1 note=74 velocity=100 time=0@note_on channel=5 note=69 velocity=0 time=0@note_on channel=5 note=71 velocity=100 time=0@note_on channel=6 note=73 velocity=0 time=0@note_on channel=6 note=74 velocity=100 time=0@note_on channel=0 note=71 velocity=0 time=0.2272725@note_on channel=0 note=73 velocity=100 time=0@note_on channel=1 note=74 velocity=0 time=0@note_on channel=1 note=76 velocity=100 time=0@note_on channel=2 note=76 velocity=0 time=0@note_on channel=2 note=76 velocity=100 time=0@note_on channel=3 note=52 velocity=0 time=0@note_on channel=3 note=57 velocity=100 time=0@note_on channel=5 note=71 velocity=0 time=0@note_on channel=5 note=73 velocity=100 time=0@note_on channel=6 note=74 velocity=0 time=0@note_on channel=6 note=76 velocity=100 time=0@note_on channel=7 note=76 velocity=0 time=0@note_on channel=7 note=76 velocity=100 time=0@note_on channel=8 note=52 velocity=0 time=0@note_on channel=8 note=57 velocity=100 time=0@note_on channel=0 note=73 velocity=0 time=0.454545@note_on channel=0 note=69 velocity=100 time=0@note_on channel=1 note=76 velocity=0 time=0@note_on channel=1 note=73 velocity=100 time=0@note_on channel=2 note=76 velocity=0 time=0@note_on channel=2 note=76 velocity=100 time=0@note_on channel=3 note=57 velocity=0 time=0@note_on channel=3 note=61 velocity=100 time=0@note_on channel=5 note=73 velocity=0 time=0@note_on channel=5 note=69 velocity=100 time=0@note_on channel=6 note=76 velocity=0 time=0@note_on channel=6 note=73 velocity=100 time=0@note_on channel=7 note=76 velocity=0 time=0@note_on channel=7 note=76 velocity=100 time=0@note_on channel=8 note=57 velocity=0 time=0@note_on channel=8 note=61 velocity=100 time=0@note_on channel=0 note=69 velocity=0 time=0.454545@note_on channel=0 note=66 velocity=100 time=0@note_on channel=1 note=73 velocity=0 time=0@note_on channel=1 note=71 velocity=100 time=0@note_on channel=2 note=76 velocity=0 time=0@note_on channel=2 note=74 velocity=100 time=0@note_on channel=3 note=61 velocity=0 time=0@note_on channel=4 note=45 velocity=0 time=0@note_on channel=4 note=47 velocity=100 time=0@note_on channel=5 note=69 velocity=0 time=0@note_on channel=5 note=66 velocity=100 time=0@note_on channel=6 note=73 velocity=0 time=0@note_on channel=6 note=71 velocity=100 time=0@note_on channel=7 note=76 velocity=0 time=0@note_on channel=7 note=74 velocity=100 time=0@note_on channel=8 note=61 velocity=0 time=0@note_on channel=10 note=45 velocity=0 time=0@note_on channel=10 note=47 velocity=100 time=0@note_on channel=0 note=66 velocity=0 time=0.454545@note_on channel=0 note=74 velocity=100 time=0@note_on channel=1 note=71 velocity=0 time=0@note_on channel=1 note=59 velocity=100 time=0@note_on channel=2 note=74 velocity=0 time=0@note_on channel=2 note=74 velocity=100 time=0@note_on channel=3 note=50 velocity=100 time=0@note_on channel=5 note=66 velocity=0 time=0@note_on channel=5 note=74 velocity=100 time=0@note_on channel=6 note=71 velocity=0 time=0@note_on channel=6 note=59 velocity=100 time=0@note_on channel=7 note=74 velocity=0 time=0@note_on channel=7 note=74 velocity=100 time=0@note_on channel=8 note=50 velocity=100 time=0@note_on channel=0 note=74 velocity=0 time=0.2272725@note_on channel=0 note=76 velocity=100 time=0@note_on channel=1 note=59 velocity=0 time=0@note_on channel=1 note=61 velocity=100 time=0@note_on channel=5 note=74 velocity=0 time=0@note_on channel=5 note=76 velocity=100 time=0@note_on channel=6 note=59 velocity=0 time=0@note_on channel=6 note=61 velocity=100 time=0@note_on channel=0 note=76 velocity=0 time=0.2272725@note_on channel=0 note=78 velocity=100 time=0@note_on channel=1 note=61 velocity=0 time=0@note_on channel=1 note=62 velocity=100 time=0@note_on channel=2 note=74 velocity=0 time=0@note_on channel=2 note=74 velocity=100 time=0@note_on channel=3 note=50 velocity=0 time=0@note_on channel=3 note=54 velocity=100 time=0@note_on channel=5 note=76 velocity=0 time=0@note_on channel=5 note=78 velocity=100 time=0@note_on channel=6 note=61 velocity=0 time=0@note_on channel=6 note=62 velocity=100 time=0@note_on channel=7 note=74 velocity=0 time=0@note_on channel=7 note=74 velocity=100 time=0@note_on channel=8 note=50 velocity=0 time=0@note_on channel=8 note=54 velocity=100 time=0@note_on channel=0 note=78 velocity=0 time=0.454545@note_on channel=0 note=74 velocity=100 time=0@note_on channel=1 note=62 velocity=0 time=0@note_on channel=1 note=66 velocity=100 time=0@note_on channel=2 note=74 velocity=0 time=0@note_on channel=2 note=74 velocity=100 time=0@note_on channel=3 note=54 velocity=0 time=0@note_on channel=3 note=59 velocity=100 time=0@note_on channel=5 note=78 velocity=0 time=0@note_on channel=5 note=74 velocity=100 time=0@note_on channel=6 note=62 velocity=0 time=0@note_on channel=6 note=66 velocity=100 time=0@note_on channel=7 note=74 velocity=0 time=0@note_on channel=7 note=74 velocity=100 time=0@note_on channel=8 note=54 velocity=0 time=0@note_on channel=8 note=59 velocity=100 time=0@note_on channel=0 note=74 velocity=0 time=0.454545@note_on channel=0 note=69 velocity=100 time=0@note_on channel=1 note=66 velocity=0 time=0@note_on channel=1 note=73 velocity=100 time=0@note_on channel=2 note=74 velocity=0 time=0@note_on channel=2 note=81 velocity=100 time=0@note_on channel=3 note=59 velocity=0 time=0@note_on channel=4 note=47 velocity=0 time=0@note_on channel=4 note=42 velocity=100 time=0@note_on channel=5 note=74 velocity=0 time=0@note_on channel=5 note=69 velocity=100 time=0@note_on channel=6 note=66 velocity=0 time=0@note_on channel=6 note=73 velocity=100 time=0@note_on channel=7 note=74 velocity=0 time=0@note_on channel=7 note=81 velocity=100 time=0@note_on channel=8 note=59 velocity=0 time=0@note_on channel=10 note=47 velocity=0 time=0@note_on channel=10 note=42 velocity=100 time=0@note_on channel=0 note=69 velocity=0 time=0.454545@note_on channel=0 note=78 velocity=100 time=0@note_on channel=1 note=73 velocity=0 time=0@note_on channel=1 note=69 velocity=100 time=0@note_on channel=2 note=81 velocity=0 time=0@note_on channel=2 note=81 velocity=100 time=0@note_on channel=3 note=49 velocity=100 time=0@note_on channel=5 note=69 velocity=0 time=0@note_on channel=5 note=78 velocity=100 time=0@note_on channel=6 note=73 velocity=0 time=0@note_on channel=6 note=69 velocity=100 time=0@note_on channel=7 note=81 velocity=0 time=0@note_on channel=7 note=81 velocity=100 time=0@note_on channel=8 note=49 velocity=100 time=0@note_on channel=0 note=78 velocity=0 time=0.2272725@note_on channel=0 note=76 velocity=100 time=0@note_on channel=1 note=69 velocity=0 time=0@note_on channel=1 note=67 velocity=100 time=0@note_on channel=5 note=78 velocity=0 time=0@note_on channel=5 note=76 velocity=100 time=0@note_on channel=6 note=69 velocity=0 time=0@note_on channel=6 note=67 velocity=100 time=0@note_on channel=0 note=76 velocity=0 time=0.2272725@note_on channel=0 note=74 velocity=100 time=0@note_on channel=1 note=67 velocity=0 time=0@note_on channel=1 note=66 velocity=100 time=0@note_on channel=2 note=81 velocity=0 time=0@note_on channel=2 note=81 velocity=100 time=0@note_on channel=3 note=49 velocity=0 time=0@note_on channel=3 note=54 velocity=100 time=0@note_on channel=5 note=76 velocity=0 time=0@note_on channel=5 note=74 velocity=100 time=0@note_on channel=6 note=67 velocity=0 time=0@note_on channel=6 note=66 velocity=100 time=0@note_on channel=7 note=81 velocity=0 time=0@note_on channel=7 note=81 velocity=100 time=0@note_on channel=8 note=49 velocity=0 time=0@note_on channel=8 note=54 velocity=100 time=0@note_on channel=0 note=74 velocity=0 time=0.454545@note_on channel=0 note=73 velocity=100 time=0@note_on channel=1 note=66 velocity=0 time=0@note_on channel=1 note=64 velocity=100 time=0@note_on channel=2 note=81 velocity=0 time=0@note_on channel=2 note=81 velocity=100 time=0@note_on channel=3 note=54 velocity=0 time=0@note_on channel=3 note=57 velocity=100 time=0@note_on channel=5 note=74 velocity=0 time=0@note_on channel=5 note=73 velocity=100 time=0@note_on channel=6 note=66 velocity=0 time=0@note_on channel=6 note=64 velocity=100 time=0@note_on channel=7 note=81 velocity=0 time=0@note_on channel=7 note=81 velocity=100 time=0@note_on channel=8 note=54 velocity=0 time=0@note_on channel=8 note=57 velocity=100 time=0@note_on channel=0 note=73 velocity=0 time=0.454545@note_on channel=0 note=71 velocity=100 time=0@control_change channel=0 control=7 value=105 time=0@note_on channel=1 note=64 velocity=0 time=0@note_on channel=1 note=74 velocity=100 time=0@control_change channel=1 control=7 value=105 time=0@note_on channel=2 note=81 velocity=0 time=0@note_on channel=2 note=83 velocity=100 time=0@control_change channel=2 control=7 value=105 time=0@note_on channel=3 note=57 velocity=0 time=0@control_change channel=3 control=7 value=105 time=0@note_on channel=4 note=42 velocity=0 time=0@note_on channel=4 note=43 velocity=100 time=0@control_change channel=4 control=7 value=105 time=0@note_on channel=5 note=73 velocity=0 time=0@note_on channel=5 note=71 velocity=100 time=0@control_change channel=5 control=7 value=105 time=0@note_on channel=6 note=64 velocity=0 time=0@note_on channel=6 note=74 velocity=100 time=0@control_change channel=6 control=7 value=105 time=0@note_on channel=7 note=81 velocity=0 time=0@note_on channel=7 note=83 velocity=100 time=0@control_change channel=7 control=7 value=105 time=0@note_on channel=8 note=57 velocity=0 time=0@control_change channel=8 control=7 value=105 time=0@note_on channel=10 note=42 velocity=0 time=0@note_on channel=10 note=43 velocity=100 time=0@control_change channel=10 control=7 value=105 time=0@note_on channel=0 note=71 velocity=0 time=0.454545@note_on channel=0 note=71 velocity=100 time=0@note_on channel=1 note=74 velocity=0 time=0@note_on channel=1 note=67 velocity=100 time=0@note_on channel=2 note=83 velocity=0 time=0@note_on channel=2 note=83 velocity=100 time=0@note_on channel=3 note=47 velocity=100 time=0@note_on channel=5 note=71 velocity=0 time=0@note_on channel=5 note=71 velocity=100 time=0@note_on channel=6 note=74 velocity=0 time=0@note_on channel=6 note=67 velocity=100 time=0@note_on channel=7 note=83 velocity=0 time=0@note_on channel=7 note=83 velocity=100 time=0@note_on channel=8 note=47 velocity=100 time=0@note_on channel=0 note=71 velocity=0 time=0.2272725@note_on channel=0 note=69 velocity=100 time=0@note_on channel=1 note=67 velocity=0 time=0@note_on channel=1 note=66 velocity=100 time=0@note_on channel=5 note=71 velocity=0 time=0@note_on channel=5 note=69 velocity=100 time=0@note_on channel=6 note=67 velocity=0 time=0@note_on channel=6 note=66 velocity=100 time=0@note_on channel=0 note=69 velocity=0 time=0.2272725@note_on channel=0 note=71 velocity=100 time=0@control_change channel=0 control=7 value=110 time=0@note_on channel=1 note=66 velocity=0 time=0@note_on channel=1 note=64 velocity=100 time=0@control_change channel=1 control=7 value=110 time=0@note_on channel=2 note=83 velocity=0 time=0@note_on channel=2 note=83 velocity=100 time=0@control_change channel=2 control=7 value=110 time=0@note_on channel=3 note=47 velocity=0 time=0@note_on channel=3 note=50 velocity=100 time=0@control_change channel=3 control=7 value=110 time=0@control_change channel=4 control=7 value=110 time=0@note_on channel=5 note=69 velocity=0 time=0@note_on channel=5 note=71 velocity=100 time=0@control_change channel=5 control=7 value=110 time=0@note_on channel=6 note=66 velocity=0 time=0@note_on channel=6 note=64 velocity=100 time=0@control_change channel=6 control=7 value=110 time=0@note_on channel=7 note=83 velocity=0 time=0@note_on channel=7 note=83 velocity=100 time=0@control_change channel=7 control=7 value=110 time=0@note_on channel=8 note=47 velocity=0 time=0@note_on channel=8 note=50 velocity=100 time=0@control_change channel=8 control=7 value=110 time=0@control_change channel=10 control=7 value=110 time=0@note_on channel=0 note=71 velocity=0 time=0.454545@note_on channel=0 note=73 velocity=100 time=0@note_on channel=1 note=64 velocity=0 time=0@note_on channel=1 note=67 velocity=100 time=0@note_on channel=2 note=83 velocity=0 time=0@note_on channel=2 note=83 velocity=100 time=0@note_on channel=3 note=50 velocity=0 time=0@note_on channel=3 note=55 velocity=100 time=0@note_on channel=5 note=71 velocity=0 time=0@note_on channel=5 note=73 velocity=100 time=0@note_on channel=6 note=64 velocity=0 time=0@note_on channel=6 note=67 velocity=100 time=0@note_on channel=7 note=83 velocity=0 time=0@note_on channel=7 note=83 velocity=100 time=0@note_on channel=8 note=50 velocity=0 time=0@note_on channel=8 note=55 velocity=100 time=0@note_on channel=0 note=73 velocity=0 time=0.454545@note_on channel=0 note=74 velocity=100 time=0@control_change channel=0 control=7 value=115 time=0@note_on channel=1 note=67 velocity=0 time=0@note_on channel=1 note=66 velocity=100 time=0@control_change channel=1 control=7 value=115 time=0@note_on channel=2 note=83 velocity=0 time=0@note_on channel=2 note=81 velocity=100 time=0@control_change channel=2 control=7 value=115 time=0@note_on channel=3 note=55 velocity=0 time=0@control_change channel=3 control=7 value=115 time=0@note_on channel=4 note=43 velocity=0 time=0@note_on channel=4 note=38 velocity=100 time=0@control_change channel=4 control=7 value=115 time=0@note_on channel=5 note=73 velocity=0 time=0@note_on channel=5 note=74 velocity=100 time=0@control_change channel=5 control=7 value=115 time=0@note_on channel=6 note=67 velocity=0 time=0@note_on channel=6 note=66 velocity=100 time=0@control_change channel=6 control=7 value=115 time=0@note_on channel=7 note=83 velocity=0 time=0@note_on channel=7 note=81 velocity=100 time=0@control_change channel=7 control=7 value=115 time=0@note_on channel=8 note=55 velocity=0 time=0@control_change channel=8 control=7 value=115 time=0@note_on channel=10 note=43 velocity=0 time=0@note_on channel=10 note=38 velocity=100 time=0@control_change channel=10 control=7 value=115 time=0@note_on channel=0 note=74 velocity=0 time=0.454545@note_on channel=0 note=78 velocity=100 time=0@note_on channel=1 note=66 velocity=0 time=0@note_on channel=1 note=62 velocity=100 time=0@note_on channel=2 note=81 velocity=0 time=0@note_on channel=2 note=81 velocity=100 time=0@note_on channel=3 note=54 velocity=100 time=0@note_on channel=5 note=74 velocity=0 time=0@note_on channel=5 note=78 velocity=100 time=0@note_on channel=6 note=66 velocity=0 time=0@note_on channel=6 note=62 velocity=100 time=0@note_on channel=7 note=81 velocity=0 time=0@note_on channel=7 note=81 velocity=100 time=0@note_on channel=8 note=54 velocity=100 time=0@note_on channel=0 note=78 velocity=0 time=0.2272725@note_on channel=0 note=76 velocity=100 time=0@note_on channel=1 note=62 velocity=0 time=0@note_on channel=1 note=64 velocity=100 time=0@note_on channel=5 note=78 velocity=0 time=0@note_on channel=5 note=76 velocity=100 time=0@note_on channel=6 note=62 velocity=0 time=0@note_on channel=6 note=64 velocity=100 time=0@note_on channel=0 note=76 velocity=0 time=0.2272725@note_on channel=0 note=74 velocity=100 time=0@note_on channel=1 note=64 velocity=0 time=0@note_on channel=1 note=66 velocity=100 time=0@note_on channel=2 note=81 velocity=0 time=0@note_on channel=2 note=81 velocity=100 time=0@note_on channel=3 note=54 velocity=0 time=0@note_on channel=3 note=57 velocity=100 time=0@note_on channel=5 note=76 velocity=0 time=0@note_on channel=5 note=74 velocity=100 time=0@note_on channel=6 note=64 velocity=0 time=0@note_on channel=6 note=66 velocity=100 time=0@note_on channel=7 note=81 velocity=0 time=0@note_on channel=7 note=81 velocity=100 time=0@note_on channel=8 note=54 velocity=0 time=0@note_on channel=8 note=57 velocity=100 time=0@note_on channel=0 note=74 velocity=0 time=0.454545@note_on channel=0 note=78 velocity=100 time=0@note_on channel=1 note=66 velocity=0 time=0@note_on channel=1 note=69 velocity=100 time=0@note_on channel=2 note=81 velocity=0 time=0@note_on channel=2 note=81 velocity=100 time=0@note_on channel=3 note=57 velocity=0 time=0@note_on channel=3 note=62 velocity=100 time=0@note_on channel=5 note=74 velocity=0 time=0@note_on channel=5 note=78 velocity=100 time=0@note_on channel=6 note=66 velocity=0 time=0@note_on channel=6 note=69 velocity=100 time=0@note_on channel=7 note=81 velocity=0 time=0@note_on channel=7 note=81 velocity=100 time=0@note_on channel=8 note=57 velocity=0 time=0@note_on channel=8 note=62 velocity=100 time=0@note_on channel=0 note=78 velocity=0 time=0.454545@note_on channel=0 note=79 velocity=100 time=0@note_on channel=1 note=69 velocity=0 time=0@note_on channel=1 note=71 velocity=100 time=0@note_on channel=2 note=81 velocity=0 time=0@note_on channel=2 note=83 velocity=100 time=0@note_on channel=3 note=62 velocity=0 time=0@note_on channel=4 note=38 velocity=0 time=0@note_on channel=4 note=43 velocity=100 time=0@note_on channel=5 note=78 velocity=0 time=0@note_on channel=5 note=79 velocity=100 time=0@note_on channel=6 note=69 velocity=0 time=0@note_on channel=6 note=71 velocity=100 time=0@note_on channel=7 note=81 velocity=0 time=0@note_on channel=7 note=83 velocity=100 time=0@note_on channel=8 note=62 velocity=0 time=0@note_on channel=10 note=38 velocity=0 time=0@note_on channel=10 note=43 velocity=100 time=0@note_on channel=0 note=79 velocity=0 time=0.454545@note_on channel=0 note=74 velocity=100 time=0@note_on channel=1 note=71 velocity=0 time=0@note_on channel=1 note=71 velocity=100 time=0@note_on channel=2 note=83 velocity=0 time=0@note_on channel=2 note=83 velocity=100 time=0@note_on channel=3 note=52 velocity=100 time=0@note_on channel=5 note=79 velocity=0 time=0@note_on channel=5 note=74 velocity=100 time=0@note_on channel=6 note=71 velocity=0 time=0@note_on channel=6 note=71 velocity=100 time=0@note_on channel=7 note=83 velocity=0 time=0@note_on channel=7 note=83 velocity=100 time=0@note_on channel=8 note=52 velocity=100 time=0@note_on channel=0 note=74 velocity=0 time=0.2272725@note_on channel=0 note=73 velocity=100 time=0@note_on channel=1 note=71 velocity=0 time=0@note_on channel=1 note=69 velocity=100 time=0@note_on channel=5 note=74 velocity=0 time=0@note_on channel=5 note=73 velocity=100 time=0@note_on channel=6 note=71 velocity=0 time=0@note_on channel=6 note=69 velocity=100 time=0@note_on channel=0 note=73 velocity=0 time=0.2272725@note_on channel=0 note=71 velocity=100 time=0@note_on channel=1 note=69 velocity=0 time=0@note_on channel=1 note=67 velocity=100 time=0@note_on channel=2 note=83 velocity=0 time=0@note_on channel=2 note=83 velocity=100 time=0@note_on channel=3 note=52 velocity=0 time=0@note_on channel=3 note=59 velocity=100 time=0@note_on channel=5 note=73 velocity=0 time=0@note_on channel=5 note=71 velocity=100 time=0@note_on channel=6 note=69 velocity=0 time=0@note_on channel=6 note=67 velocity=100 time=0@note_on channel=7 note=83 velocity=0 time=0@note_on channel=7 note=83 velocity=100 time=0@note_on channel=8 note=52 velocity=0 time=0@note_on channel=8 note=59 velocity=100 time=0@note_on channel=0 note=71 velocity=0 time=0.454545@note_on channel=0 note=71 velocity=100 time=0@note_on channel=1 note=67 velocity=0 time=0@note_on channel=1 note=66 velocity=100 time=0@note_on channel=2 note=83 velocity=0 time=0@note_on channel=2 note=83 velocity=100 time=0@note_on channel=3 note=59 velocity=0 time=0@note_on channel=3 note=62 velocity=100 time=0@note_on channel=5 note=71 velocity=0 time=0@note_on channel=5 note=71 velocity=100 time=0@note_on channel=6 note=67 velocity=0 time=0@note_on channel=6 note=66 velocity=100 time=0@note_on channel=7 note=83 velocity=0 time=0@note_on channel=7 note=83 velocity=100 time=0@note_on channel=8 note=59 velocity=0 time=0@note_on channel=8 note=62 velocity=100 time=0@note_on channel=0 note=71 velocity=0 time=0.454545@note_on channel=0 note=57 velocity=100 time=0@note_on channel=1 note=66 velocity=0 time=0@note_on channel=1 note=76 velocity=100 time=0@note_on channel=2 note=83 velocity=0 time=0@note_on channel=2 note=73 velocity=100 time=0@note_on channel=2 note=85 velocity=100 time=0@note_on channel=3 note=62 velocity=0 time=0@note_on channel=4 note=43 velocity=0 time=0@note_on channel=4 note=45 velocity=100 time=0@note_on channel=5 note=71 velocity=0 time=0@note_on channel=5 note=57 velocity=100 time=0@note_on channel=6 note=66 velocity=0 time=0@note_on channel=6 note=76 velocity=100 time=0@note_on channel=7 note=83 velocity=0 time=0@note_on channel=7 note=73 velocity=100 time=0@note_on channel=7 note=85 velocity=100 time=0@note_on channel=8 note=62 velocity=0 time=0@note_on channel=10 note=43 velocity=0 time=0@note_on channel=10 note=45 velocity=100 time=0@note_on channel=0 note=57 velocity=0 time=0.454545@note_on channel=0 note=69 velocity=100 time=0@note_on channel=1 note=76 velocity=0 time=0@note_on channel=1 note=69 velocity=100 time=0@note_on channel=2 note=85 velocity=0 time=0@note_on channel=2 note=73 velocity=0 time=0@note_on channel=2 note=64 velocity=100 time=0@note_on channel=2 note=73 velocity=100 time=0@note_on channel=3 note=52 velocity=100 time=0@note_on channel=5 note=57 velocity=0 time=0@note_on channel=5 note=69 velocity=100 time=0@note_on channel=6 note=76 velocity=0 time=0@note_on channel=6 note=69 velocity=100 time=0@note_on channel=7 note=85 velocity=0 time=0@note_on channel=7 note=73 velocity=0 time=0@note_on channel=7 note=64 velocity=100 time=0@note_on channel=7 note=73 velocity=100 time=0@note_on channel=8 note=52 velocity=100 time=0@note_on channel=0 note=69 velocity=0 time=0.2272725@note_on channel=0 note=67 velocity=100 time=0@note_on channel=1 note=69 velocity=0 time=0@note_on channel=1 note=67 velocity=100 time=0@note_on channel=5 note=69 velocity=0 time=0@note_on channel=5 note=67 velocity=100 time=0@note_on channel=6 note=69 velocity=0 time=0@note_on channel=6 note=67 velocity=100 time=0@note_on channel=0 note=67 velocity=0 time=0.2272725@note_on channel=0 note=69 velocity=100 time=0@note_on channel=1 note=67 velocity=0 time=0@note_on channel=1 note=66 velocity=100 time=0@note_on channel=2 note=73 velocity=0 time=0@note_on channel=2 note=64 velocity=0 time=0@note_on channel=2 note=73 velocity=100 time=0@note_on channel=3 note=52 velocity=0 time=0@note_on channel=3 note=57 velocity=100 time=0@note_on channel=5 note=67 velocity=0 time=0@note_on channel=5 note=69 velocity=100 time=0@note_on channel=6 note=67 velocity=0 time=0@note_on channel=6 note=66 velocity=100 time=0@note_on channel=7 note=73 velocity=0 time=0@note_on channel=7 note=64 velocity=0 time=0@note_on channel=7 note=73 velocity=100 time=0@note_on channel=8 note=52 velocity=0 time=0@note_on channel=8 note=57 velocity=100 time=0@note_on channel=0 note=69 velocity=0 time=0.454545@note_on channel=0 note=69 velocity=100 time=0@note_on channel=1 note=66 velocity=0 time=0@note_on channel=1 note=64 velocity=100 time=0@note_on channel=2 note=73 velocity=0 time=0@note_on channel=2 note=73 velocity=100 time=0@note_on channel=3 note=57 velocity=0 time=0@note_on channel=3 note=61 velocity=100 time=0@note_on channel=5 note=69 velocity=0 time=0@note_on channel=5 note=69 velocity=100 time=0@note_on channel=6 note=66 velocity=0 time=0@note_on channel=6 note=64 velocity=100 time=0@note_on channel=7 note=73 velocity=0 time=0@note_on channel=7 note=73 velocity=100 time=0@note_on channel=8 note=57 velocity=0 time=0@note_on channel=8 note=61 velocity=100 time=0@note_on channel=0 note=69 velocity=0 time=0.454545@note_on channel=0 note=69 velocity=100 time=0@control_change channel=0 control=7 value=112 time=0@note_on channel=1 note=64 velocity=0 time=0@note_on channel=1 note=66 velocity=100 time=0@control_change channel=1 control=7 value=112 time=0@note_on channel=2 note=73 velocity=0 time=0@note_on channel=2 note=74 velocity=100 time=0@control_change channel=2 control=7 value=112 time=0@note_on channel=3 note=61 velocity=0 time=0@control_change channel=3 control=7 value=112 time=0@note_on channel=4 note=45 velocity=0 time=0@note_on channel=4 note=50 velocity=100 time=0@control_change channel=4 control=7 value=112 time=0@note_on channel=5 note=69 velocity=0 time=0@note_on channel=5 note=69 velocity=100 time=0@control_change channel=5 control=7 value=112 time=0@note_on channel=6 note=64 velocity=0 time=0@note_on channel=6 note=66 velocity=100 time=0@control_change channel=6 control=7 value=112 time=0@note_on channel=7 note=73 velocity=0 time=0@note_on channel=7 note=74 velocity=100 time=0@control_change channel=7 control=7 value=112 time=0@note_on channel=8 note=61 velocity=0 time=0@control_change channel=8 control=7 value=112 time=0@note_on channel=10 note=45 velocity=0 time=0@note_on channel=10 note=50 velocity=100 time=0@control_change channel=10 control=7 value=112 time=0@note_on channel=1 note=66 velocity=0 time=0.454545@note_on channel=1 note=74 velocity=100 time=0@note_on channel=2 note=74 velocity=0 time=0@note_on channel=2 note=62 velocity=100 time=0@note_on channel=3 note=57 velocity=100 time=0@note_on channel=6 note=66 velocity=0 time=0@note_on channel=6 note=74 velocity=100 time=0@note_on channel=7 note=74 velocity=0 time=0@note_on channel=7 note=62 velocity=100 time=0@note_on channel=8 note=57 velocity=100 time=0@note_on channel=1 note=74 velocity=0 time=0.2272725@note_on channel=1 note=73 velocity=100 time=0@note_on channel=2 note=62 velocity=0 time=0@note_on channel=2 note=64 velocity=100 time=0@note_on channel=6 note=74 velocity=0 time=0@note_on channel=6 note=73 velocity=100 time=0@note_on channel=7 note=62 velocity=0 time=0@note_on channel=7 note=64 velocity=100 time=0@note_on channel=1 note=73 velocity=0 time=0.2272725@note_on channel=1 note=74 velocity=100 time=0@note_on channel=2 note=64 velocity=0 time=0@note_on channel=2 note=66 velocity=100 time=0@note_on channel=3 note=57 velocity=0 time=0@note_on channel=3 note=62 velocity=100 time=0@note_on channel=6 note=73 velocity=0 time=0@note_on channel=6 note=74 velocity=100 time=0@note_on channel=7 note=64 velocity=0 time=0@note_on channel=7 note=66 velocity=100 time=0@note_on channel=8 note=57 velocity=0 time=0@note_on channel=8 note=62 velocity=100 time=0@note_on channel=1 note=74 velocity=0 time=0.454545@note_on channel=1 note=62 velocity=100 time=0@note_on channel=2 note=66 velocity=0 time=0@note_on channel=2 note=62 velocity=100 time=0@note_on channel=3 note=62 velocity=0 time=0@note_on channel=3 note=66 velocity=100 time=0@note_on channel=6 note=74 velocity=0 time=0@note_on channel=6 note=62 velocity=100 time=0@note_on channel=7 note=66 velocity=0 time=0@note_on channel=7 note=62 velocity=100 time=0@note_on channel=8 note=62 velocity=0 time=0@note_on channel=8 note=66 velocity=100 time=0@note_on channel=0 note=69 velocity=0 time=0.454545@note_on channel=1 note=62 velocity=0 time=0@note_on channel=1 note=69 velocity=100 time=0@note_on channel=2 note=62 velocity=0 time=0@note_on channel=2 note=61 velocity=100 time=0@note_on channel=3 note=66 velocity=0 time=0@note_on channel=4 note=50 velocity=0 time=0@note_on channel=4 note=45 velocity=100 time=0@note_on channel=5 note=69 velocity=0 time=0@note_on channel=6 note=62 velocity=0 time=0@note_on channel=6 note=69 velocity=100 time=0@note_on channel=7 note=62 velocity=0 time=0@note_on channel=7 note=61 velocity=100 time=0@note_on channel=8 note=66 velocity=0 time=0@note_on channel=10 note=50 velocity=0 time=0@note_on channel=10 note=45 velocity=100 time=0@note_on channel=1 note=69 velocity=0 time=0.454545@note_on channel=1 note=69 velocity=100 time=0@note_on channel=2 note=61 velocity=0 time=0@note_on channel=2 note=73 velocity=100 time=0@note_on channel=3 note=52 velocity=100 time=0@note_on channel=6 note=69 velocity=0 time=0@note_on channel=6 note=69 velocity=100 time=0@note_on channel=7 note=61 velocity=0 time=0@note_on channel=7 note=73 velocity=100 time=0@note_on channel=8 note=52 velocity=100 time=0@note_on channel=1 note=69 velocity=0 time=0.2272725@note_on channel=1 note=71 velocity=100 time=0@note_on channel=2 note=73 velocity=0 time=0@note_on channel=2 note=74 velocity=100 time=0@note_on channel=6 note=69 velocity=0 time=0@note_on channel=6 note=71 velocity=100 time=0@note_on channel=7 note=73 velocity=0 time=0@note_on channel=7 note=74 velocity=100 time=0@note_on channel=1 note=71 velocity=0 time=0.2272725@note_on channel=1 note=73 velocity=100 time=0@note_on channel=2 note=74 velocity=0 time=0@note_on channel=2 note=76 velocity=100 time=0@note_on channel=3 note=52 velocity=0 time=0@note_on channel=3 note=57 velocity=100 time=0@note_on channel=6 note=71 velocity=0 time=0@note_on channel=6 note=73 velocity=100 time=0@note_on channel=7 note=74 velocity=0 time=0@note_on channel=7 note=76 velocity=100 time=0@note_on channel=8 note=52 velocity=0 time=0@note_on channel=8 note=57 velocity=100 time=0@note_on channel=1 note=73 velocity=0 time=0.454545@note_on channel=1 note=69 velocity=100 time=0@note_on channel=2 note=76 velocity=0 time=0@note_on channel=2 note=73 velocity=100 time=0@note_on channel=3 note=57 velocity=0 time=0@note_on channel=3 note=61 velocity=100 time=0@note_on channel=6 note=73 velocity=0 time=0@note_on channel=6 note=69 velocity=100 time=0@note_on channel=7 note=76 velocity=0 time=0@note_on channel=7 note=73 velocity=100 time=0@note_on channel=8 note=57 velocity=0 time=0@note_on channel=8 note=61 velocity=100 time=0@note_on channel=1 note=69 velocity=0 time=0.454545@note_on channel=1 note=66 velocity=100 time=0@note_on channel=2 note=73 velocity=0 time=0@note_on channel=2 note=71 velocity=100 time=0@note_on channel=3 note=61 velocity=0 time=0@note_on channel=4 note=45 velocity=0 time=0@note_on channel=4 note=47 velocity=100 time=0@note_on channel=6 note=69 velocity=0 time=0@note_on channel=6 note=66 velocity=100 time=0@note_on channel=7 note=73 velocity=0 time=0@note_on channel=7 note=71 velocity=100 time=0@note_on channel=8 note=61 velocity=0 time=0@note_on channel=10 note=45 velocity=0 time=0@note_on channel=10 note=47 velocity=100 time=0@note_on channel=1 note=66 velocity=0 time=0.454545@note_on channel=1 note=74 velocity=100 time=0@note_on channel=2 note=71 velocity=0 time=0@note_on channel=2 note=59 velocity=100 time=0@note_on channel=3 note=50 velocity=100 time=0@note_on channel=6 note=66 velocity=0 time=0@note_on channel=6 note=74 velocity=100 time=0@note_on channel=7 note=71 velocity=0 time=0@note_on channel=7 note=59 velocity=100 time=0@note_on channel=8 note=50 velocity=100 time=0@note_on channel=1 note=74 velocity=0 time=0.2272725@note_on channel=1 note=76 velocity=100 time=0@note_on channel=2 note=59 velocity=0 time=0@note_on channel=2 note=61 velocity=100 time=0@note_on channel=6 note=74 velocity=0 time=0@note_on channel=6 note=76 velocity=100 time=0@note_on channel=7 note=59 velocity=0 time=0@note_on channel=7 note=61 velocity=100 time=0@note_on channel=1 note=76 velocity=0 time=0.2272725@note_on channel=1 note=78 velocity=100 time=0@note_on channel=2 note=61 velocity=0 time=0@note_on channel=2 note=62 velocity=100 time=0@note_on channel=3 note=50 velocity=0 time=0@note_on channel=3 note=54 velocity=100 time=0@note_on channel=6 note=76 velocity=0 time=0@note_on channel=6 note=78 velocity=100 time=0@note_on channel=7 note=61 velocity=0 time=0@note_on channel=7 note=62 velocity=100 time=0@note_on channel=8 note=50 velocity=0 time=0@note_on channel=8 note=54 velocity=100 time=0@note_on channel=1 note=78 velocity=0 time=0.454545@note_on channel=1 note=74 velocity=100 time=0@note_on channel=2 note=62 velocity=0 time=0@note_on channel=2 note=59 velocity=100 time=0@note_on channel=3 note=54 velocity=0 time=0@note_on channel=3 note=59 velocity=100 time=0@note_on channel=6 note=78 velocity=0 time=0@note_on channel=6 note=74 velocity=100 time=0@note_on channel=7 note=62 velocity=0 time=0@note_on channel=7 note=59 velocity=100 time=0@note_on channel=8 note=54 velocity=0 time=0@note_on channel=8 note=59 velocity=100 time=0@note_on channel=1 note=74 velocity=0 time=0.454545@note_on channel=1 note=78 velocity=100 time=0@note_on channel=1 note=61 velocity=100 time=0@note_on channel=2 note=59 velocity=0 time=0@note_on channel=2 note=62 velocity=100 time=0@note_on channel=3 note=59 velocity=0 time=0@note_on channel=4 note=47 velocity=0 time=0@note_on channel=4 note=42 velocity=100 time=0@note_on channel=6 note=74 velocity=0 time=0@note_on channel=6 note=78 velocity=100 time=0@note_on channel=6 note=61 velocity=100 time=0@note_on channel=7 note=59 velocity=0 time=0@note_on channel=7 note=62 velocity=100 time=0@note_on channel=8 note=59 velocity=0 time=0@note_on channel=10 note=47 velocity=0 time=0@note_on channel=10 note=42 velocity=100 time=0@note_on channel=1 note=61 velocity=0 time=0.454545@note_on channel=1 note=78 velocity=0 time=0@note_on channel=1 note=78 velocity=100 time=0@note_on channel=2 note=62 velocity=0 time=0@note_on channel=2 note=69 velocity=100 time=0@note_on channel=3 note=49 velocity=100 time=0@note_on channel=6 note=61 velocity=0 time=0@note_on channel=6 note=78 velocity=0 time=0@note_on channel=6 note=78 velocity=100 time=0@note_on channel=7 note=62 velocity=0 time=0@note_on channel=7 note=69 velocity=100 time=0@note_on channel=8 note=49 velocity=100 time=0@note_on channel=1 note=78 velocity=0 time=0.2272725@note_on channel=1 note=76 velocity=100 time=0@note_on channel=2 note=69 velocity=0 time=0@note_on channel=2 note=67 velocity=100 time=0@note_on channel=6 note=78 velocity=0 time=0@note_on channel=6 note=76 velocity=100 time=0@note_on channel=7 note=69 velocity=0 time=0@note_on channel=7 note=67 velocity=100 time=0@note_on channel=0 note=69 velocity=100 time=0.2272725@note_on channel=1 note=76 velocity=0 time=0@note_on channel=1 note=74 velocity=100 time=0@note_on channel=2 note=67 velocity=0 time=0@note_on channel=2 note=66 velocity=100 time=0@note_on channel=3 note=49 velocity=0 time=0@note_on channel=3 note=54 velocity=100 time=0@note_on channel=5 note=69 velocity=100 time=0@note_on channel=6 note=76 velocity=0 time=0@note_on channel=6 note=74 velocity=100 time=0@note_on channel=7 note=67 velocity=0 time=0@note_on channel=7 note=66 velocity=100 time=0@note_on channel=8 note=49 velocity=0 time=0@note_on channel=8 note=54 velocity=100 time=0@note_on channel=1 note=74 velocity=0 time=0.454545@note_on channel=1 note=73 velocity=100 time=0@note_on channel=2 note=66 velocity=0 time=0@note_on channel=2 note=64 velocity=100 time=0@note_on channel=3 note=54 velocity=0 time=0@note_on channel=3 note=57 velocity=100 time=0@note_on channel=6 note=74 velocity=0 time=0@note_on channel=6 note=73 velocity=100 time=0@note_on channel=7 note=66 velocity=0 time=0@note_on channel=7 note=64 velocity=100 time=0@note_on channel=8 note=54 velocity=0 time=0@note_on channel=8 note=57 velocity=100 time=0@note_on channel=0 note=69 velocity=0 time=0.454545@note_on channel=1 note=73 velocity=0 time=0@note_on channel=1 note=71 velocity=100 time=0@note_on channel=2 note=64 velocity=0 time=0@note_on channel=2 note=62 velocity=100 time=0@note_on channel=2 note=67 velocity=100 time=0@note_on channel=3 note=57 velocity=0 time=0@note_on channel=4 note=42 velocity=0 time=0@note_on channel=4 note=43 velocity=100 time=0@note_on channel=5 note=69 velocity=0 time=0@note_on channel=6 note=73 velocity=0 time=0@note_on channel=6 note=71 velocity=100 time=0@note_on channel=7 note=64 velocity=0 time=0@note_on channel=7 note=62 velocity=100 time=0@note_on channel=7 note=67 velocity=100 time=0@note_on channel=8 note=57 velocity=0 time=0@note_on channel=10 note=42 velocity=0 time=0@note_on channel=10 note=43 velocity=100 time=0@note_on channel=1 note=71 velocity=0 time=0.454545@note_on channel=1 note=71 velocity=100 time=0@note_on channel=2 note=67 velocity=0 time=0@note_on channel=2 note=62 velocity=0 time=0@note_on channel=2 note=67 velocity=100 time=0@note_on channel=3 note=47 velocity=100 time=0@note_on channel=6 note=71 velocity=0 time=0@note_on channel=6 note=71 velocity=100 time=0@note_on channel=7 note=67 velocity=0 time=0@note_on channel=7 note=62 velocity=0 time=0@note_on channel=7 note=67 velocity=100 time=0@note_on channel=8 note=47 velocity=100 time=0@note_on channel=1 note=71 velocity=0 time=0.2272725@note_on channel=1 note=69 velocity=100 time=0@note_on channel=2 note=67 velocity=0 time=0@note_on channel=2 note=66 velocity=100 time=0@note_on channel=6 note=71 velocity=0 time=0@note_on channel=6 note=69 velocity=100 time=0@note_on channel=7 note=67 velocity=0 time=0@note_on channel=7 note=66 velocity=100 time=0@note_on channel=1 note=69 velocity=0 time=0.2272725@note_on channel=1 note=71 velocity=100 time=0@note_on channel=2 note=66 velocity=0 time=0@note_on channel=2 note=67 velocity=100 time=0@note_on channel=2 note=64 velocity=100 time=0@note_on channel=3 note=47 velocity=0 time=0@note_on channel=3 note=50 velocity=100 time=0@note_on channel=6 note=69 velocity=0 time=0@note_on channel=6 note=71 velocity=100 time=0@note_on channel=7 note=66 velocity=0 time=0@note_on channel=7 note=67 velocity=100 time=0@note_on channel=7 note=64 velocity=100 time=0@note_on channel=8 note=47 velocity=0 time=0@note_on channel=8 note=50 velocity=100 time=0@note_on channel=1 note=71 velocity=0 time=0.454545@note_on channel=1 note=73 velocity=100 time=0@note_on channel=2 note=64 velocity=0 time=0@note_on channel=2 note=67 velocity=0 time=0@note_on channel=2 note=67 velocity=100 time=0@note_on channel=3 note=50 velocity=0 time=0@note_on channel=3 note=55 velocity=100 time=0@note_on channel=6 note=71 velocity=0 time=0@note_on channel=6 note=73 velocity=100 time=0@note_on channel=7 note=64 velocity=0 time=0@note_on channel=7 note=67 velocity=0 time=0@note_on channel=7 note=67 velocity=100 time=0@note_on channel=8 note=50 velocity=0 time=0@note_on channel=8 note=55 velocity=100 time=0@note_on channel=0 note=69 velocity=100 time=0.454545@note_on channel=1 note=73 velocity=0 time=0@note_on channel=1 note=74 velocity=100 time=0@note_on channel=2 note=67 velocity=0 time=0@note_on channel=2 note=66 velocity=100 time=0@note_on channel=3 note=55 velocity=0 time=0@note_on channel=4 note=43 velocity=0 time=0@note_on channel=4 note=38 velocity=100 time=0@note_on channel=5 note=69 velocity=100 time=0@note_on channel=6 note=73 velocity=0 time=0@note_on channel=6 note=74 velocity=100 time=0@note_on channel=7 note=67 velocity=0 time=0@note_on channel=7 note=66 velocity=100 time=0@note_on channel=8 note=55 velocity=0 time=0@note_on channel=10 note=43 velocity=0 time=0@note_on channel=10 note=38 velocity=100 time=0@note_on channel=1 note=74 velocity=0 time=0.454545@note_on channel=1 note=78 velocity=100 time=0@note_on channel=2 note=66 velocity=0 time=0@note_on channel=2 note=62 velocity=100 time=0@note_on channel=3 note=54 velocity=100 time=0@note_on channel=6 note=74 velocity=0 time=0@note_on channel=6 note=78 velocity=100 time=0@note_on channel=7 note=66 velocity=0 time=0@note_on channel=7 note=62 velocity=100 time=0@note_on channel=8 note=54 velocity=100 time=0@note_on channel=1 note=78 velocity=0 time=0.2272725@note_on channel=1 note=76 velocity=100 time=0@note_on channel=2 note=62 velocity=0 time=0@note_on channel=2 note=64 velocity=100 time=0@note_on channel=6 note=78 velocity=0 time=0@note_on channel=6 note=76 velocity=100 time=0@note_on channel=7 note=62 velocity=0 time=0@note_on channel=7 note=64 velocity=100 time=0@note_on channel=1 note=76 velocity=0 time=0.2272725@note_on channel=1 note=74 velocity=100 time=0@note_on channel=2 note=64 velocity=0 time=0@note_on channel=2 note=66 velocity=100 time=0@note_on channel=3 note=54 velocity=0 time=0@note_on channel=3 note=57 velocity=100 time=0@note_on channel=6 note=76 velocity=0 time=0@note_on channel=6 note=74 velocity=100 time=0@note_on channel=7 note=64 velocity=0 time=0@note_on channel=7 note=66 velocity=100 time=0@note_on channel=8 note=54 velocity=0 time=0@note_on channel=8 note=57 velocity=100 time=0@note_on channel=0 note=69 velocity=0 time=0.454545@note_on channel=0 note=69 velocity=100 time=0@note_on channel=1 note=74 velocity=0 time=0@note_on channel=1 note=78 velocity=100 time=0@note_on channel=2 note=66 velocity=0 time=0@note_on channel=2 note=69 velocity=100 time=0@note_on channel=3 note=57 velocity=0 time=0@note_on channel=3 note=62 velocity=100 time=0@note_on channel=5 note=69 velocity=0 time=0@note_on channel=5 note=69 velocity=100 time=0@note_on channel=6 note=74 velocity=0 time=0@note_on channel=6 note=78 velocity=100 time=0@note_on channel=7 note=66 velocity=0 time=0@note_on channel=7 note=69 velocity=100 time=0@note_on channel=8 note=57 velocity=0 time=0@note_on channel=8 note=62 velocity=100 time=0@note_on channel=0 note=69 velocity=0 time=0.454545@note_on channel=0 note=67 velocity=100 time=0@note_on channel=1 note=78 velocity=0 time=0@note_on channel=1 note=79 velocity=100 time=0@note_on channel=2 note=69 velocity=0 time=0@note_on channel=2 note=79 velocity=100 time=0@note_on channel=3 note=62 velocity=0 time=0@note_on channel=4 note=38 velocity=0 time=0@note_on channel=4 note=43 velocity=100 time=0@note_on channel=5 note=69 velocity=0 time=0@note_on channel=5 note=67 velocity=100 time=0@note_on channel=6 note=78 velocity=0 time=0@note_on channel=6 note=79 velocity=100 time=0@note_on channel=7 note=69 velocity=0 time=0@note_on channel=7 note=79 velocity=100 time=0@note_on channel=8 note=62 velocity=0 time=0@note_on channel=10 note=38 velocity=0 time=0@note_on channel=10 note=43 velocity=100 time=0@note_on channel=1 note=79 velocity=0 time=0.454545@note_on channel=1 note=74 velocity=100 time=0@note_on channel=2 note=79 velocity=0 time=0@note_on channel=2 note=71 velocity=100 time=0@note_on channel=3 note=52 velocity=100 time=0@note_on channel=6 note=79 velocity=0 time=0@note_on channel=6 note=74 velocity=100 time=0@note_on channel=7 note=79 velocity=0 time=0@note_on channel=7 note=71 velocity=100 time=0@note_on channel=8 note=52 velocity=100 time=0@note_on channel=1 note=74 velocity=0 time=0.2272725@note_on channel=1 note=73 velocity=100 time=0@note_on channel=2 note=71 velocity=0 time=0@note_on channel=2 note=69 velocity=100 time=0@note_on channel=6 note=74 velocity=0 time=0@note_on channel=6 note=73 velocity=100 time=0@note_on channel=7 note=71 velocity=0 time=0@note_on channel=7 note=69 velocity=100 time=0@note_on channel=1 note=73 velocity=0 time=0.2272725@note_on channel=1 note=71 velocity=100 time=0@note_on channel=2 note=69 velocity=0 time=0@note_on channel=2 note=62 velocity=100 time=0@note_on channel=2 note=67 velocity=100 time=0@note_on channel=3 note=52 velocity=0 time=0@note_on channel=3 note=59 velocity=100 time=0@note_on channel=6 note=73 velocity=0 time=0@note_on channel=6 note=71 velocity=100 time=0@note_on channel=7 note=69 velocity=0 time=0@note_on channel=7 note=62 velocity=100 time=0@note_on channel=7 note=67 velocity=100 time=0@note_on channel=8 note=52 velocity=0 time=0@note_on channel=8 note=59 velocity=100 time=0@note_on channel=0 note=67 velocity=0 time=0.454545@note_on channel=0 note=62 velocity=100 time=0@note_on channel=1 note=71 velocity=0 time=0@note_on channel=1 note=71 velocity=100 time=0@note_on channel=2 note=67 velocity=0 time=0@note_on channel=2 note=62 velocity=0 time=0@note_on channel=2 note=66 velocity=100 time=0@note_on channel=3 note=59 velocity=0 time=0@note_on channel=3 note=62 velocity=100 time=0@note_on channel=5 note=67 velocity=0 time=0@note_on channel=5 note=62 velocity=100 time=0@note_on channel=6 note=71 velocity=0 time=0@note_on channel=6 note=71 velocity=100 time=0@note_on channel=7 note=67 velocity=0 time=0@note_on channel=7 note=62 velocity=0 time=0@note_on channel=7 note=66 velocity=100 time=0@note_on channel=8 note=59 velocity=0 time=0@note_on channel=8 note=62 velocity=100 time=0@note_on channel=0 note=62 velocity=0 time=0.2272725@note_on channel=0 note=64 velocity=100 time=0@note_on channel=5 note=62 velocity=0 time=0@note_on channel=5 note=64 velocity=100 time=0@note_on channel=0 note=64 velocity=0 time=0.2272725@note_on channel=0 note=62 velocity=100 time=0@note_on channel=1 note=71 velocity=0 time=0@note_on channel=1 note=57 velocity=100 time=0@note_on channel=2 note=66 velocity=0 time=0@note_on channel=2 note=76 velocity=100 time=0@note_on channel=3 note=62 velocity=0 time=0@note_on channel=4 note=43 velocity=0 time=0@note_on channel=4 note=45 velocity=100 time=0@note_on channel=5 note=64 velocity=0 time=0@note_on channel=5 note=62 velocity=100 time=0@note_on channel=6 note=71 velocity=0 time=0@note_on channel=6 note=57 velocity=100 time=0@note_on channel=7 note=66 velocity=0 time=0@note_on channel=7 note=76 velocity=100 time=0@note_on channel=8 note=62 velocity=0 time=0@note_on channel=10 note=43 velocity=0 time=0@note_on channel=10 note=45 velocity=100 time=0@note_on channel=1 note=57 velocity=0 time=0.454545@note_on channel=1 note=69 velocity=100 time=0@note_on channel=2 note=76 velocity=0 time=0@note_on channel=2 note=69 velocity=100 time=0@note_on channel=3 note=52 velocity=100 time=0@note_on channel=6 note=57 velocity=0 time=0@note_on channel=6 note=69 velocity=100 time=0@note_on channel=7 note=76 velocity=0 time=0@note_on channel=7 note=69 velocity=100 time=0@note_on channel=8 note=52 velocity=100 time=0@note_on channel=1 note=69 velocity=0 time=0.2272725@note_on channel=1 note=67 velocity=100 time=0@note_on channel=2 note=69 velocity=0 time=0@note_on channel=2 note=67 velocity=100 time=0@note_on channel=6 note=69 velocity=0 time=0@note_on channel=6 note=67 velocity=100 time=0@note_on channel=7 note=69 velocity=0 time=0@note_on channel=7 note=67 velocity=100 time=0@note_on channel=0 note=62 velocity=0 time=0.2272725@note_on channel=0 note=61 velocity=100 time=0@note_on channel=1 note=67 velocity=0 time=0@note_on channel=1 note=69 velocity=100 time=0@note_on channel=2 note=67 velocity=0 time=0@note_on channel=2 note=66 velocity=100 time=0@note_on channel=3 note=52 velocity=0 time=0@note_on channel=3 note=57 velocity=100 time=0@note_on channel=5 note=62 velocity=0 time=0@note_on channel=5 note=61 velocity=100 time=0@note_on channel=6 note=67 velocity=0 time=0@note_on channel=6 note=69 velocity=100 time=0@note_on channel=7 note=67 velocity=0 time=0@note_on channel=7 note=66 velocity=100 time=0@note_on channel=8 note=52 velocity=0 time=0@note_on channel=8 note=57 velocity=100 time=0@note_on channel=0 note=61 velocity=0 time=0.2272725@note_on channel=0 note=62 velocity=100 time=0@note_on channel=5 note=61 velocity=0 time=0@note_on channel=5 note=62 velocity=100 time=0@note_on channel=0 note=62 velocity=0 time=0.2272725@note_on channel=0 note=61 velocity=100 time=0@note_on channel=1 note=69 velocity=0 time=0@note_on channel=1 note=69 velocity=100 time=0@note_on channel=2 note=66 velocity=0 time=0@note_on channel=2 note=64 velocity=100 time=0@note_on channel=3 note=57 velocity=0 time=0@note_on channel=3 note=61 velocity=100 time=0@note_on channel=5 note=62 velocity=0 time=0@note_on channel=5 note=61 velocity=100 time=0@note_on channel=6 note=69 velocity=0 time=0@note_on channel=6 note=69 velocity=100 time=0@note_on channel=7 note=66 velocity=0 time=0@note_on channel=7 note=64 velocity=100 time=0@note_on channel=8 note=57 velocity=0 time=0@note_on channel=8 note=61 velocity=100 time=0@note_on channel=0 note=61 velocity=0 time=0.454545@note_on channel=0 note=62 velocity=100 time=0@note_on channel=1 note=69 velocity=0 time=0@note_on channel=1 note=69 velocity=100 time=0@note_on channel=2 note=64 velocity=0 time=0@note_on channel=2 note=66 velocity=100 time=0@note_on channel=3 note=61 velocity=0 time=0@note_on channel=4 note=45 velocity=0 time=0@note_on channel=4 note=50 velocity=100 time=0@note_on channel=5 note=61 velocity=0 time=0@note_on channel=5 note=62 velocity=100 time=0@note_on channel=6 note=69 velocity=0 time=0@note_on channel=6 note=69 velocity=100 time=0@note_on channel=7 note=64 velocity=0 time=0@note_on channel=7 note=66 velocity=100 time=0@note_on channel=8 note=61 velocity=0 time=0@note_on channel=10 note=45 velocity=0 time=0@note_on channel=10 note=50 velocity=100 time=0@control_change channel=0 control=7 value=80 time=0.454545@control_change channel=1 control=7 value=80 time=0@note_on channel=2 note=66 velocity=0 time=0@note_on channel=2 note=74 velocity=100 time=0@control_change channel=2 control=7 value=80 time=0@note_on channel=3 note=57 velocity=100 time=0@control_change channel=3 control=7 value=80 time=0@control_change channel=4 control=7 value=80 time=0@control_change channel=5 control=7 value=80 time=0@control_change channel=6 control=7 value=80 time=0@note_on channel=7 note=66 velocity=0 time=0@note_on channel=7 note=74 velocity=100 time=0@control_change channel=7 control=7 value=80 time=0@note_on channel=8 note=57 velocity=100 time=0@control_change channel=8 control=7 value=80 time=0@control_change channel=10 control=7 value=80 time=0@note_on channel=2 note=74 velocity=0 time=0.2272725@note_on channel=2 note=73 velocity=100 time=0@note_on channel=7 note=74 velocity=0 time=0@note_on channel=7 note=73 velocity=100 time=0@note_on channel=0 note=62 velocity=0 time=0.2272725@note_on channel=1 note=69 velocity=0 time=0@note_on channel=2 note=73 velocity=0 time=0@note_on channel=2 note=74 velocity=100 time=0@note_on channel=3 note=57 velocity=0 time=0@note_on channel=3 note=62 velocity=100 time=0@note_on channel=5 note=62 velocity=0 time=0@note_on channel=6 note=69 velocity=0 time=0@note_on channel=7 note=73 velocity=0 time=0@note_on channel=7 note=74 velocity=100 time=0@note_on channel=8 note=57 velocity=0 time=0@note_on channel=8 note=62 velocity=100 time=0@note_on channel=2 note=74 velocity=0 time=0.454545@note_on channel=2 note=62 velocity=100 time=0@note_on channel=3 note=62 velocity=0 time=0@note_on channel=3 note=66 velocity=100 time=0@note_on channel=7 note=74 velocity=0 time=0@note_on channel=7 note=62 velocity=100 time=0@note_on channel=8 note=62 velocity=0 time=0@note_on channel=8 note=66 velocity=100 time=0@note_on channel=2 note=62 velocity=0 time=0.454545@note_on channel=2 note=69 velocity=100 time=0@note_on channel=2 note=73 velocity=100 time=0@note_on channel=3 note=66 velocity=0 time=0@note_on channel=4 note=50 velocity=0 time=0@note_on channel=4 note=45 velocity=100 time=0@note_on channel=7 note=62 velocity=0 time=0@note_on channel=7 note=69 velocity=100 time=0@note_on channel=7 note=73 velocity=100 time=0@note_on channel=8 note=66 velocity=0 time=0@note_on channel=10 note=50 velocity=0 time=0@note_on channel=10 note=45 velocity=100 time=0@note_on channel=2 note=69 velocity=0 time=0.2272725@note_on channel=2 note=69 velocity=100 time=0@note_on channel=7 note=69 velocity=0 time=0@note_on channel=7 note=69 velocity=100 time=0@note_on channel=2 note=69 velocity=0 time=0.2272725@note_on channel=2 note=73 velocity=0 time=0@note_on channel=2 note=73 velocity=100 time=0@note_on channel=2 note=69 velocity=100 time=0@note_on channel=3 note=52 velocity=100 time=0@note_on channel=7 note=69 velocity=0 time=0@note_on channel=7 note=73 velocity=0 time=0@note_on channel=7 note=73 velocity=100 time=0@note_on channel=7 note=69 velocity=100 time=0@note_on channel=8 note=52 velocity=100 time=0@note_on channel=2 note=69 velocity=0 time=0.2272725@note_on channel=2 note=73 velocity=0 time=0@note_on channel=2 note=71 velocity=100 time=0@note_on channel=7 note=69 velocity=0 time=0@note_on channel=7 note=73 velocity=0 time=0@note_on channel=7 note=71 velocity=100 time=0@note_on channel=2 note=71 velocity=0 time=0.2272725@note_on channel=2 note=69 velocity=100 time=0@note_on channel=2 note=73 velocity=100 time=0@note_on channel=3 note=52 velocity=0 time=0@note_on channel=3 note=57 velocity=100 time=0@note_on channel=7 note=71 velocity=0 time=0@note_on channel=7 note=69 velocity=100 time=0@note_on channel=7 note=73 velocity=100 time=0@note_on channel=8 note=52 velocity=0 time=0@note_on channel=8 note=57 velocity=100 time=0@note_on channel=2 note=73 velocity=0 time=0.454545@note_on channel=2 note=69 velocity=0 time=0@note_on channel=2 note=69 velocity=100 time=0@note_on channel=3 note=57 velocity=0 time=0@note_on channel=3 note=61 velocity=100 time=0@note_on channel=7 note=73 velocity=0 time=0@note_on channel=7 note=69 velocity=0 time=0@note_on channel=7 note=69 velocity=100 time=0@note_on channel=8 note=57 velocity=0 time=0@note_on channel=8 note=61 velocity=100 time=0@note_on channel=0 note=71 velocity=100 time=0.454545@note_on channel=1 note=62 velocity=100 time=0@note_on channel=2 note=69 velocity=0 time=0@note_on channel=2 note=66 velocity=100 time=0@note_on channel=3 note=61 velocity=0 time=0@note_on channel=4 note=45 velocity=0 time=0@note_on channel=4 note=47 velocity=100 time=0@note_on channel=5 note=71 velocity=100 time=0@note_on channel=6 note=62 velocity=100 time=0@note_on channel=7 note=69 velocity=0 time=0@note_on channel=7 note=66 velocity=100 time=0@note_on channel=8 note=61 velocity=0 time=0@note_on channel=10 note=45 velocity=0 time=0@note_on channel=10 note=47 velocity=100 time=0@note_on channel=2 note=66 velocity=0 time=0.454545@note_on channel=2 note=74 velocity=100 time=0@note_on channel=3 note=50 velocity=100 time=0@note_on channel=7 note=66 velocity=0 time=0@note_on channel=7 note=74 velocity=100 time=0@note_on channel=8 note=50 velocity=100 time=0@note_on channel=2 note=74 velocity=0 time=0.2272725@note_on channel=2 note=76 velocity=100 time=0@note_on channel=7 note=74 velocity=0 time=0@note_on channel=7 note=76 velocity=100 time=0@note_on channel=2 note=76 velocity=0 time=0.2272725@note_on channel=2 note=78 velocity=100 time=0@note_on channel=3 note=50 velocity=0 time=0@note_on channel=3 note=54 velocity=100 time=0@note_on channel=7 note=76 velocity=0 time=0@note_on channel=7 note=78 velocity=100 time=0@note_on channel=8 note=50 velocity=0 time=0@note_on channel=8 note=54 velocity=100 time=0@note_on channel=2 note=78 velocity=0 time=0.454545@note_on channel=2 note=74 velocity=100 time=0@note_on channel=3 note=54 velocity=0 time=0@note_on channel=3 note=59 velocity=100 time=0@note_on channel=7 note=78 velocity=0 time=0@note_on channel=7 note=74 velocity=100 time=0@note_on channel=8 note=54 velocity=0 time=0@note_on channel=8 note=59 velocity=100 time=0@note_on channel=0 note=71 velocity=0 time=0.454545@note_on channel=0 note=69 velocity=100 time=0@note_on channel=2 note=74 velocity=0 time=0@note_on channel=2 note=78 velocity=100 time=0@note_on channel=2 note=61 velocity=100 time=0@note_on channel=3 note=59 velocity=0 time=0@note_on channel=4 note=47 velocity=0 time=0@note_on channel=4 note=42 velocity=100 time=0@note_on channel=5 note=71 velocity=0 time=0@note_on channel=5 note=69 velocity=100 time=0@note_on channel=7 note=74 velocity=0 time=0@note_on channel=7 note=78 velocity=100 time=0@note_on channel=7 note=61 velocity=100 time=0@note_on channel=8 note=59 velocity=0 time=0@note_on channel=10 note=47 velocity=0 time=0@note_on channel=10 note=42 velocity=100 time=0@note_on channel=2 note=61 velocity=0 time=0.454545@note_on channel=2 note=78 velocity=0 time=0@note_on channel=2 note=78 velocity=100 time=0@note_on channel=3 note=49 velocity=100 time=0@note_on channel=7 note=61 velocity=0 time=0@note_on channel=7 note=78 velocity=0 time=0@note_on channel=7 note=78 velocity=100 time=0@note_on channel=8 note=49 velocity=100 time=0@note_on channel=2 note=78 velocity=0 time=0.2272725@note_on channel=2 note=76 velocity=100 time=0@note_on channel=7 note=78 velocity=0 time=0@note_on channel=7 note=76 velocity=100 time=0@note_on channel=0 note=69 velocity=0 time=0.2272725@note_on channel=0 note=69 velocity=100 time=0@note_on channel=1 note=62 velocity=0 time=0@note_on channel=1 note=69 velocity=100 time=0@note_on channel=2 note=76 velocity=0 time=0@note_on channel=2 note=74 velocity=100 time=0@note_on channel=3 note=49 velocity=0 time=0@note_on channel=3 note=54 velocity=100 time=0@note_on channel=5 note=69 velocity=0 time=0@note_on channel=5 note=69 velocity=100 time=0@note_on channel=6 note=62 velocity=0 time=0@note_on channel=6 note=69 velocity=100 time=0@note_on channel=7 note=76 velocity=0 time=0@note_on channel=7 note=74 velocity=100 time=0@note_on channel=8 note=49 velocity=0 time=0@note_on channel=8 note=54 velocity=100 time=0@note_on channel=2 note=74 velocity=0 time=0.454545@note_on channel=2 note=73 velocity=100 time=0@note_on channel=3 note=54 velocity=0 time=0@note_on channel=3 note=57 velocity=100 time=0@note_on channel=7 note=74 velocity=0 time=0@note_on channel=7 note=73 velocity=100 time=0@note_on channel=8 note=54 velocity=0 time=0@note_on channel=8 note=57 velocity=100 time=0@note_on channel=0 note=69 velocity=0 time=0.454545@note_on channel=0 note=62 velocity=100 time=0@note_on channel=1 note=69 velocity=0 time=0@note_on channel=1 note=67 velocity=100 time=0@note_on channel=2 note=73 velocity=0 time=0@note_on channel=2 note=71 velocity=100 time=0@note_on channel=3 note=57 velocity=0 time=0@note_on channel=4 note=42 velocity=0 time=0@note_on channel=4 note=43 velocity=100 time=0@note_on channel=5 note=69 velocity=0 time=0@note_on channel=5 note=62 velocity=100 time=0@note_on channel=6 note=69 velocity=0 time=0@note_on channel=6 note=67 velocity=100 time=0@note_on channel=7 note=73 velocity=0 time=0@note_on channel=7 note=71 velocity=100 time=0@note_on channel=8 note=57 velocity=0 time=0@note_on channel=10 note=42 velocity=0 time=0@note_on channel=10 note=43 velocity=100 time=0@note_on channel=2 note=71 velocity=0 time=0.454545@note_on channel=2 note=71 velocity=100 time=0@note_on channel=3 note=47 velocity=100 time=0@note_on channel=7 note=71 velocity=0 time=0@note_on channel=7 note=71 velocity=100 time=0@note_on channel=8 note=47 velocity=100 time=0@note_on channel=2 note=71 velocity=0 time=0.2272725@note_on channel=2 note=69 velocity=100 time=0@note_on channel=7 note=71 velocity=0 time=0@note_on channel=7 note=69 velocity=100 time=0@note_on channel=2 note=69 velocity=0 time=0.2272725@note_on channel=2 note=71 velocity=100 time=0@note_on channel=3 note=47 velocity=0 time=0@note_on channel=3 note=50 velocity=100 time=0@note_on channel=7 note=69 velocity=0 time=0@note_on channel=7 note=71 velocity=100 time=0@note_on channel=8 note=47 velocity=0 time=0@note_on channel=8 note=50 velocity=100 time=0@note_on channel=0 note=62 velocity=0 time=0.454545@note_on channel=0 note=64 velocity=100 time=0@note_on channel=2 note=71 velocity=0 time=0@note_on channel=2 note=73 velocity=100 time=0@note_on channel=3 note=50 velocity=0 time=0@note_on channel=3 note=55 velocity=100 time=0@note_on channel=5 note=62 velocity=0 time=0@note_on channel=5 note=64 velocity=100 time=0@note_on channel=7 note=71 velocity=0 time=0@note_on channel=7 note=73 velocity=100 time=0@note_on channel=8 note=50 velocity=0 time=0@note_on channel=8 note=55 velocity=100 time=0@note_on channel=0 note=64 velocity=0 time=0.454545@note_on channel=0 note=66 velocity=100 time=0@note_on channel=1 note=67 velocity=0 time=0@note_on channel=1 note=69 velocity=100 time=0@note_on channel=2 note=73 velocity=0 time=0@note_on channel=2 note=74 velocity=100 time=0@note_on channel=3 note=55 velocity=0 time=0@note_on channel=4 note=43 velocity=0 time=0@note_on channel=4 note=38 velocity=100 time=0@note_on channel=5 note=64 velocity=0 time=0@note_on channel=5 note=66 velocity=100 time=0@note_on channel=6 note=67 velocity=0 time=0@note_on channel=6 note=69 velocity=100 time=0@note_on channel=7 note=73 velocity=0 time=0@note_on channel=7 note=74 velocity=100 time=0@note_on channel=8 note=55 velocity=0 time=0@note_on channel=10 note=43 velocity=0 time=0@note_on channel=10 note=38 velocity=100 time=0@note_on channel=2 note=74 velocity=0 time=0.454545@note_on channel=2 note=78 velocity=100 time=0@note_on channel=3 note=54 velocity=100 time=0@note_on channel=7 note=74 velocity=0 time=0@note_on channel=7 note=78 velocity=100 time=0@note_on channel=8 note=54 velocity=100 time=0@note_on channel=2 note=78 velocity=0 time=0.2272725@note_on channel=2 note=76 velocity=100 time=0@note_on channel=7 note=78 velocity=0 time=0@note_on channel=7 note=76 velocity=100 time=0@note_on channel=2 note=76 velocity=0 time=0.2272725@note_on channel=2 note=74 velocity=100 time=0@note_on channel=3 note=54 velocity=0 time=0@note_on channel=3 note=57 velocity=100 time=0@note_on channel=7 note=76 velocity=0 time=0@note_on channel=7 note=74 velocity=100 time=0@note_on channel=8 note=54 velocity=0 time=0@note_on channel=8 note=57 velocity=100 time=0@note_on channel=2 note=74 velocity=0 time=0.454545@note_on channel=2 note=78 velocity=100 time=0@note_on channel=3 note=57 velocity=0 time=0@note_on channel=3 note=62 velocity=100 time=0@note_on channel=7 note=74 velocity=0 time=0@note_on channel=7 note=78 velocity=100 time=0@note_on channel=8 note=57 velocity=0 time=0@note_on channel=8 note=62 velocity=100 time=0@note_on channel=0 note=66 velocity=0 time=0.454545@note_on channel=0 note=67 velocity=100 time=0@note_on channel=1 note=69 velocity=0 time=0@note_on channel=1 note=67 velocity=100 time=0@note_on channel=2 note=78 velocity=0 time=0@note_on channel=2 note=79 velocity=100 time=0@note_on channel=3 note=62 velocity=0 time=0@note_on channel=4 note=38 velocity=0 time=0@note_on channel=4 note=43 velocity=100 time=0@note_on channel=5 note=66 velocity=0 time=0@note_on channel=5 note=67 velocity=100 time=0@note_on channel=6 note=69 velocity=0 time=0@note_on channel=6 note=67 velocity=100 time=0@note_on channel=7 note=78 velocity=0 time=0@note_on channel=7 note=79 velocity=100 time=0@note_on channel=8 note=62 velocity=0 time=0@note_on channel=10 note=38 velocity=0 time=0@note_on channel=10 note=43 velocity=100 time=0@note_on channel=2 note=79 velocity=0 time=0.454545@note_on channel=2 note=74 velocity=100 time=0@note_on channel=3 note=52 velocity=100 time=0@note_on channel=7 note=79 velocity=0 time=0@note_on channel=7 note=74 velocity=100 time=0@note_on channel=8 note=52 velocity=100 time=0@note_on channel=2 note=74 velocity=0 time=0.2272725@note_on channel=2 note=73 velocity=100 time=0@note_on channel=7 note=74 velocity=0 time=0@note_on channel=7 note=73 velocity=100 time=0@note_on channel=0 note=67 velocity=0 time=0.2272725@note_on channel=0 note=71 velocity=100 time=0@note_on channel=1 note=67 velocity=0 time=0@note_on channel=1 note=62 velocity=100 time=0@note_on channel=2 note=73 velocity=0 time=0@note_on channel=2 note=71 velocity=100 time=0@note_on channel=3 note=52 velocity=0 time=0@note_on channel=3 note=59 velocity=100 time=0@note_on channel=5 note=67 velocity=0 time=0@note_on channel=5 note=71 velocity=100 time=0@note_on channel=6 note=67 velocity=0 time=0@note_on channel=6 note=62 velocity=100 time=0@note_on channel=7 note=73 velocity=0 time=0@note_on channel=7 note=71 velocity=100 time=0@note_on channel=8 note=52 velocity=0 time=0@note_on channel=8 note=59 velocity=100 time=0@control_change channel=0 control=7 value=60 time=0.454545@note_on channel=1 note=62 velocity=0 time=0@note_on channel=1 note=62 velocity=100 time=0@control_change channel=1 control=7 value=60 time=0@note_on channel=2 note=71 velocity=0 time=0@note_on channel=2 note=71 velocity=100 time=0@control_change channel=2 control=7 value=60 time=0@note_on channel=3 note=59 velocity=0 time=0@note_on channel=3 note=62 velocity=100 time=0@control_change channel=3 control=7 value=60 time=0@control_change channel=4 control=7 value=60 time=0@control_change channel=5 control=7 value=60 time=0@note_on channel=6 note=62 velocity=0 time=0@note_on channel=6 note=62 velocity=100 time=0@control_change channel=6 control=7 value=60 time=0@note_on channel=7 note=71 velocity=0 time=0@note_on channel=7 note=71 velocity=100 time=0@control_change channel=7 control=7 value=60 time=0@note_on channel=8 note=59 velocity=0 time=0@note_on channel=8 note=62 velocity=100 time=0@control_change channel=8 control=7 value=60 time=0@control_change channel=10 control=7 value=60 time=0@note_on channel=1 note=62 velocity=0 time=0.2272725@note_on channel=1 note=64 velocity=100 time=0@note_on channel=6 note=62 velocity=0 time=0@note_on channel=6 note=64 velocity=100 time=0@note_on channel=0 note=71 velocity=0 time=0.2272725@note_on channel=0 note=64 velocity=100 time=0@note_on channel=1 note=64 velocity=0 time=0@note_on channel=1 note=62 velocity=100 time=0@note_on channel=2 note=71 velocity=0 time=0@note_on channel=2 note=57 velocity=100 time=0@note_on channel=3 note=62 velocity=0 time=0@note_on channel=4 note=43 velocity=0 time=0@note_on channel=4 note=45 velocity=100 time=0@note_on channel=5 note=71 velocity=0 time=0@note_on channel=5 note=64 velocity=100 time=0@note_on channel=6 note=64 velocity=0 time=0@note_on channel=6 note=62 velocity=100 time=0@note_on channel=7 note=71 velocity=0 time=0@note_on channel=7 note=57 velocity=100 time=0@note_on channel=8 note=62 velocity=0 time=0@note_on channel=10 note=43 velocity=0 time=0@note_on channel=10 note=45 velocity=100 time=0@note_on channel=0 note=64 velocity=0 time=0.454545@note_on channel=0 note=64 velocity=100 time=0@note_on channel=2 note=57 velocity=0 time=0@note_on channel=2 note=69 velocity=100 time=0@note_on channel=3 note=52 velocity=100 time=0@note_on channel=5 note=64 velocity=0 time=0@note_on channel=5 note=64 velocity=100 time=0@note_on channel=7 note=57 velocity=0 time=0@note_on channel=7 note=69 velocity=100 time=0@note_on channel=8 note=52 velocity=100 time=0@note_on channel=2 note=69 velocity=0 time=0.2272725@note_on channel=2 note=67 velocity=100 time=0@note_on channel=7 note=69 velocity=0 time=0@note_on channel=7 note=67 velocity=100 time=0@note_on channel=0 note=64 velocity=0 time=0.2272725@note_on channel=0 note=64 velocity=100 time=0@note_on channel=1 note=62 velocity=0 time=0@note_on channel=1 note=61 velocity=100 time=0@note_on channel=2 note=67 velocity=0 time=0@note_on channel=2 note=69 velocity=100 time=0@note_on channel=3 note=52 velocity=0 time=0@note_on channel=3 note=57 velocity=100 time=0@note_on channel=5 note=64 velocity=0 time=0@note_on channel=5 note=64 velocity=100 time=0@note_on channel=6 note=62 velocity=0 time=0@note_on channel=6 note=61 velocity=100 time=0@note_on channel=7 note=67 velocity=0 time=0@note_on channel=7 note=69 velocity=100 time=0@note_on channel=8 note=52 velocity=0 time=0@note_on channel=8 note=57 velocity=100 time=0@note_on channel=1 note=61 velocity=0 time=0.2272725@note_on channel=1 note=62 velocity=100 time=0@note_on channel=6 note=61 velocity=0 time=0@note_on channel=6 note=62 velocity=100 time=0@note_on channel=1 note=62 velocity=0 time=0.2272725@note_on channel=1 note=61 velocity=100 time=0@note_on channel=2 note=69 velocity=0 time=0@note_on channel=2 note=69 velocity=100 time=0@note_on channel=3 note=57 velocity=0 time=0@note_on channel=3 note=61 velocity=100 time=0@note_on channel=6 note=62 velocity=0 time=0@note_on channel=6 note=61 velocity=100 time=0@note_on channel=7 note=69 velocity=0 time=0@note_on channel=7 note=69 velocity=100 time=0@note_on channel=8 note=57 velocity=0 time=0@note_on channel=8 note=61 velocity=100 time=0@note_on channel=0 note=64 velocity=0 time=0.454545@note_on channel=0 note=69 velocity=100 time=0@note_on channel=1 note=61 velocity=0 time=0@note_on channel=1 note=62 velocity=100 time=0@note_on channel=2 note=69 velocity=0 time=0@note_on channel=2 note=66 velocity=100 time=0@note_on channel=2 note=69 velocity=100 time=0@note_on channel=3 note=61 velocity=0 time=0@note_on channel=4 note=45 velocity=0 time=0@note_on channel=4 note=50 velocity=100 time=0@note_on channel=5 note=64 velocity=0 time=0@note_on channel=5 note=69 velocity=100 time=0@note_on channel=6 note=61 velocity=0 time=0@note_on channel=6 note=62 velocity=100 time=0@note_on channel=7 note=69 velocity=0 time=0@note_on channel=7 note=66 velocity=100 time=0@note_on channel=7 note=69 velocity=100 time=0@note_on channel=8 note=61 velocity=0 time=0@note_on channel=10 note=45 velocity=0 time=0@note_on channel=10 note=50 velocity=100 time=0@note_on channel=3 note=57 velocity=100 time=0.454545@note_on channel=8 note=57 velocity=100 time=0@note_on channel=0 note=69 velocity=0 time=0.454545@note_on channel=0 note=74 velocity=100 time=0@note_on channel=1 note=62 velocity=0 time=0@note_on channel=1 note=66 velocity=100 time=0@note_on channel=2 note=69 velocity=0 time=0@note_on channel=2 note=66 velocity=0 time=0@note_on channel=2 note=69 velocity=100 time=0@note_on channel=3 note=57 velocity=0 time=0@note_on channel=3 note=62 velocity=100 time=0@note_on channel=5 note=69 velocity=0 time=0@note_on channel=5 note=74 velocity=100 time=0@note_on channel=6 note=62 velocity=0 time=0@note_on channel=6 note=66 velocity=100 time=0@note_on channel=7 note=69 velocity=0 time=0@note_on channel=7 note=66 velocity=0 time=0@note_on channel=7 note=69 velocity=100 time=0@note_on channel=8 note=57 velocity=0 time=0@note_on channel=8 note=62 velocity=100 time=0@note_on channel=0 note=74 velocity=0 time=0.454545@note_on channel=0 note=78 velocity=100 time=0@note_on channel=3 note=62 velocity=0 time=0@note_on channel=3 note=66 velocity=100 time=0@note_on channel=5 note=74 velocity=0 time=0@note_on channel=5 note=78 velocity=100 time=0@note_on channel=8 note=62 velocity=0 time=0@note_on channel=8 note=66 velocity=100 time=0@note_on channel=0 note=78 velocity=0 time=0.454545@note_on channel=0 note=78 velocity=100 time=0@note_on channel=1 note=66 velocity=0 time=0@note_on channel=2 note=69 velocity=0 time=0@note_on channel=3 note=66 velocity=0 time=0@note_on channel=4 note=50 velocity=0 time=0@note_on channel=4 note=45 velocity=100 time=0@note_on channel=5 note=78 velocity=0 time=0@note_on channel=5 note=78 velocity=100 time=0@note_on channel=6 note=66 velocity=0 time=0@note_on channel=7 note=69 velocity=0 time=0@note_on channel=8 note=66 velocity=0 time=0@note_on channel=10 note=50 velocity=0 time=0@note_on channel=10 note=45 velocity=100 time=0@note_on channel=0 note=78 velocity=0 time=0.454545@note_on channel=0 note=79 velocity=100 time=0@note_on channel=3 note=52 velocity=100 time=0@note_on channel=5 note=78 velocity=0 time=0@note_on channel=5 note=79 velocity=100 time=0@note_on channel=8 note=52 velocity=100 time=0@note_on channel=0 note=79 velocity=0 time=0.454545@note_on channel=0 note=78 velocity=100 time=0@note_on channel=3 note=52 velocity=0 time=0@note_on channel=3 note=57 velocity=100 time=0@note_on channel=5 note=79 velocity=0 time=0@note_on channel=5 note=78 velocity=100 time=0@note_on channel=8 note=52 velocity=0 time=0@note_on channel=8 note=57 velocity=100 time=0@note_on channel=0 note=78 velocity=0 time=0.454545@note_on channel=0 note=76 velocity=100 time=0@note_on channel=3 note=57 velocity=0 time=0@note_on channel=3 note=61 velocity=100 time=0@note_on channel=5 note=78 velocity=0 time=0@note_on channel=5 note=76 velocity=100 time=0@note_on channel=8 note=57 velocity=0 time=0@note_on channel=8 note=61 velocity=100 time=0@note_on channel=0 note=76 velocity=0 time=0.454545@note_on channel=0 note=74 velocity=100 time=0@note_on channel=1 note=71 velocity=100 time=0@note_on channel=2 note=62 velocity=100 time=0@note_on channel=3 note=61 velocity=0 time=0@note_on channel=4 note=45 velocity=0 time=0@note_on channel=4 note=47 velocity=100 time=0@note_on channel=5 note=76 velocity=0 time=0@note_on channel=5 note=74 velocity=100 time=0@note_on channel=6 note=71 velocity=100 time=0@note_on channel=7 note=62 velocity=100 time=0@note_on channel=8 note=61 velocity=0 time=0@note_on channel=10 note=45 velocity=0 time=0@note_on channel=10 note=47 velocity=100 time=0@note_on channel=3 note=50 velocity=100 time=0.454545@note_on channel=8 note=50 velocity=100 time=0@note_on channel=3 note=50 velocity=0 time=0.454545@note_on channel=3 note=54 velocity=100 time=0@note_on channel=8 note=50 velocity=0 time=0@note_on channel=8 note=54 velocity=100 time=0@note_on channel=0 note=74 velocity=0 time=0.454545@note_on channel=0 note=74 velocity=100 time=0@note_on channel=3 note=54 velocity=0 time=0@note_on channel=3 note=59 velocity=100 time=0@note_on channel=5 note=74 velocity=0 time=0@note_on channel=5 note=74 velocity=100 time=0@note_on channel=8 note=54 velocity=0 time=0@note_on channel=8 note=59 velocity=100 time=0@note_on channel=0 note=74 velocity=0 time=0.454545@note_on channel=0 note=74 velocity=100 time=0@note_on channel=1 note=71 velocity=0 time=0@note_on channel=1 note=69 velocity=100 time=0@note_on channel=3 note=59 velocity=0 time=0@note_on channel=4 note=47 velocity=0 time=0@note_on channel=4 note=42 velocity=100 time=0@note_on channel=5 note=74 velocity=0 time=0@note_on channel=5 note=74 velocity=100 time=0@note_on channel=6 note=71 velocity=0 time=0@note_on channel=6 note=69 velocity=100 time=0@note_on channel=8 note=59 velocity=0 time=0@note_on channel=10 note=47 velocity=0 time=0@note_on channel=10 note=42 velocity=100 time=0@note_on channel=0 note=74 velocity=0 time=0.454545@note_on channel=0 note=76 velocity=100 time=0@note_on channel=3 note=49 velocity=100 time=0@note_on channel=5 note=74 velocity=0 time=0@note_on channel=5 note=76 velocity=100 time=0@note_on channel=8 note=49 velocity=100 time=0@note_on channel=0 note=76 velocity=0 time=0.454545@note_on channel=0 note=74 velocity=100 time=0@note_on channel=1 note=69 velocity=0 time=0@note_on channel=1 note=69 velocity=100 time=0@note_on channel=2 note=62 velocity=0 time=0@note_on channel=2 note=69 velocity=100 time=0@note_on channel=3 note=49 velocity=0 time=0@note_on channel=3 note=54 velocity=100 time=0@note_on channel=5 note=76 velocity=0 time=0@note_on channel=5 note=74 velocity=100 time=0@note_on channel=6 note=69 velocity=0 time=0@note_on channel=6 note=69 velocity=100 time=0@note_on channel=7 note=62 velocity=0 time=0@note_on channel=7 note=69 velocity=100 time=0@note_on channel=8 note=49 velocity=0 time=0@note_on channel=8 note=54 velocity=100 time=0@note_on channel=0 note=74 velocity=0 time=0.454545@note_on channel=0 note=73 velocity=100 time=0@note_on channel=3 note=54 velocity=0 time=0@note_on channel=3 note=57 velocity=100 time=0@note_on channel=5 note=74 velocity=0 time=0@note_on channel=5 note=73 velocity=100 time=0@note_on channel=8 note=54 velocity=0 time=0@note_on channel=8 note=57 velocity=100 time=0@note_on channel=0 note=73 velocity=0 time=0.454545@note_on channel=0 note=71 velocity=100 time=0@note_on channel=1 note=69 velocity=0 time=0@note_on channel=1 note=62 velocity=100 time=0@note_on channel=2 note=69 velocity=0 time=0@note_on channel=2 note=67 velocity=100 time=0@note_on channel=3 note=57 velocity=0 time=0@note_on channel=4 note=42 velocity=0 time=0@note_on channel=4 note=43 velocity=100 time=0@note_on channel=5 note=73 velocity=0 time=0@note_on channel=5 note=71 velocity=100 time=0@note_on channel=6 note=69 velocity=0 time=0@note_on channel=6 note=62 velocity=100 time=0@note_on channel=7 note=69 velocity=0 time=0@note_on channel=7 note=67 velocity=100 time=0@note_on channel=8 note=57 velocity=0 time=0@note_on channel=10 note=42 velocity=0 time=0@note_on channel=10 note=43 velocity=100 time=0@note_on channel=3 note=47 velocity=100 time=0.454545@note_on channel=8 note=47 velocity=100 time=0@note_on channel=3 note=47 velocity=0 time=0.454545@note_on channel=3 note=50 velocity=100 time=0@note_on channel=8 note=47 velocity=0 time=0@note_on channel=8 note=50 velocity=100 time=0@note_on channel=1 note=62 velocity=0 time=0.454545@note_on channel=1 note=64 velocity=100 time=0@note_on channel=3 note=50 velocity=0 time=0@note_on channel=3 note=55 velocity=100 time=0@note_on channel=6 note=62 velocity=0 time=0@note_on channel=6 note=64 velocity=100 time=0@note_on channel=8 note=50 velocity=0 time=0@note_on channel=8 note=55 velocity=100 time=0@note_on channel=0 note=71 velocity=0 time=0.454545@note_on channel=0 note=74 velocity=100 time=0@note_on channel=1 note=64 velocity=0 time=0@note_on channel=1 note=66 velocity=100 time=0@note_on channel=2 note=67 velocity=0 time=0@note_on channel=2 note=69 velocity=100 time=0@note_on channel=3 note=55 velocity=0 time=0@note_on channel=4 note=43 velocity=0 time=0@note_on channel=4 note=38 velocity=100 time=0@note_on channel=5 note=71 velocity=0 time=0@note_on channel=5 note=74 velocity=100 time=0@note_on channel=6 note=64 velocity=0 time=0@note_on channel=6 note=66 velocity=100 time=0@note_on channel=7 note=67 velocity=0 time=0@note_on channel=7 note=69 velocity=100 time=0@note_on channel=8 note=55 velocity=0 time=0@note_on channel=10 note=43 velocity=0 time=0@note_on channel=10 note=38 velocity=100 time=0@note_on channel=3 note=54 velocity=100 time=0.454545@note_on channel=8 note=54 velocity=100 time=0@note_on channel=3 note=54 velocity=0 time=0.454545@note_on channel=3 note=57 velocity=100 time=0@note_on channel=8 note=54 velocity=0 time=0@note_on channel=8 note=57 velocity=100 time=0@note_on channel=3 note=57 velocity=0 time=0.454545@note_on channel=3 note=62 velocity=100 time=0@note_on channel=8 note=57 velocity=0 time=0@note_on channel=8 note=62 velocity=100 time=0@note_on channel=0 note=74 velocity=0 time=0.454545@note_on channel=0 note=74 velocity=100 time=0@note_on channel=1 note=66 velocity=0 time=0@note_on channel=1 note=67 velocity=100 time=0@note_on channel=2 note=69 velocity=0 time=0@note_on channel=2 note=67 velocity=100 time=0@note_on channel=3 note=62 velocity=0 time=0@note_on channel=4 note=38 velocity=0 time=0@note_on channel=4 note=43 velocity=100 time=0@note_on channel=5 note=74 velocity=0 time=0@note_on channel=5 note=74 velocity=100 time=0@note_on channel=6 note=66 velocity=0 time=0@note_on channel=6 note=67 velocity=100 time=0@note_on channel=7 note=69 velocity=0 time=0@note_on channel=7 note=67 velocity=100 time=0@note_on channel=8 note=62 velocity=0 time=0@note_on channel=10 note=38 velocity=0 time=0@note_on channel=10 note=43 velocity=100 time=0@note_on channel=0 note=74 velocity=0 time=0.454545@note_on channel=0 note=72 velocity=100 time=0@note_on channel=3 note=52 velocity=100 time=0@note_on channel=5 note=74 velocity=0 time=0@note_on channel=5 note=72 velocity=100 time=0@note_on channel=8 note=52 velocity=100 time=0@note_on channel=0 note=72 velocity=0 time=0.454545@note_on channel=0 note=62 velocity=100 time=0@note_on channel=1 note=67 velocity=0 time=0@note_on channel=1 note=71 velocity=100 time=0@note_on channel=2 note=67 velocity=0 time=0@note_on channel=2 note=62 velocity=100 time=0@note_on channel=3 note=52 velocity=0 time=0@note_on channel=3 note=59 velocity=100 time=0@note_on channel=5 note=72 velocity=0 time=0@note_on channel=5 note=62 velocity=100 time=0@note_on channel=6 note=67 velocity=0 time=0@note_on channel=6 note=71 velocity=100 time=0@note_on channel=7 note=67 velocity=0 time=0@note_on channel=7 note=62 velocity=100 time=0@note_on channel=8 note=52 velocity=0 time=0@note_on channel=8 note=59 velocity=100 time=0@note_on channel=0 note=62 velocity=0 time=0.454545@note_on channel=0 note=72 velocity=100 time=0@note_on channel=2 note=62 velocity=0 time=0@note_on channel=2 note=62 velocity=100 time=0@note_on channel=3 note=59 velocity=0 time=0@note_on channel=3 note=62 velocity=100 time=0@note_on channel=5 note=62 velocity=0 time=0@note_on channel=5 note=72 velocity=100 time=0@note_on channel=7 note=62 velocity=0 time=0@note_on channel=7 note=62 velocity=100 time=0@note_on channel=8 note=59 velocity=0 time=0@note_on channel=8 note=62 velocity=100 time=0@note_on channel=2 note=62 velocity=0 time=0.2272725@note_on channel=2 note=64 velocity=100 time=0@note_on channel=7 note=62 velocity=0 time=0@note_on channel=7 note=64 velocity=100 time=0@note_on channel=0 note=72 velocity=0 time=0.2272725@note_on channel=0 note=69 velocity=100 time=0@note_on channel=1 note=71 velocity=0 time=0@note_on channel=1 note=64 velocity=100 time=0@note_on channel=2 note=64 velocity=0 time=0@note_on channel=2 note=62 velocity=100 time=0@note_on channel=3 note=62 velocity=0 time=0@note_on channel=4 note=43 velocity=0 time=0@note_on channel=4 note=45 velocity=100 time=0@note_on channel=5 note=72 velocity=0 time=0@note_on channel=5 note=69 velocity=100 time=0@note_on channel=6 note=71 velocity=0 time=0@note_on channel=6 note=64 velocity=100 time=0@note_on channel=7 note=64 velocity=0 time=0@note_on channel=7 note=62 velocity=100 time=0@note_on channel=8 note=62 velocity=0 time=0@note_on channel=10 note=43 velocity=0 time=0@note_on channel=10 note=45 velocity=100 time=0@note_on channel=3 note=52 velocity=100 time=0.454545@note_on channel=8 note=52 velocity=100 time=0@note_on channel=0 note=69 velocity=0 time=0.454545@note_on channel=0 note=69 velocity=100 time=0@note_on channel=1 note=64 velocity=0 time=0@note_on channel=1 note=64 velocity=100 time=0@note_on channel=2 note=62 velocity=0 time=0@note_on channel=2 note=61 velocity=100 time=0@note_on channel=3 note=52 velocity=0 time=0@note_on channel=3 note=57 velocity=100 time=0@note_on channel=5 note=69 velocity=0 time=0@note_on channel=5 note=69 velocity=100 time=0@note_on channel=6 note=64 velocity=0 time=0@note_on channel=6 note=64 velocity=100 time=0@note_on channel=7 note=62 velocity=0 time=0@note_on channel=7 note=61 velocity=100 time=0@note_on channel=8 note=52 velocity=0 time=0@note_on channel=8 note=57 velocity=100 time=0@note_on channel=2 note=61 velocity=0 time=0.2272725@note_on channel=2 note=62 velocity=100 time=0@note_on channel=7 note=61 velocity=0 time=0@note_on channel=7 note=62 velocity=100 time=0@note_on channel=0 note=69 velocity=0 time=0.2272725@note_on channel=0 note=69 velocity=100 time=0@note_on channel=1 note=64 velocity=0 time=0@note_on channel=1 note=64 velocity=100 time=0@note_on channel=2 note=62 velocity=0 time=0@note_on channel=2 note=61 velocity=100 time=0@note_on channel=3 note=57 velocity=0 time=0@note_on channel=3 note=61 velocity=100 time=0@note_on channel=5 note=69 velocity=0 time=0@note_on channel=5 note=69 velocity=100 time=0@note_on channel=6 note=64 velocity=0 time=0@note_on channel=6 note=64 velocity=100 time=0@note_on channel=7 note=62 velocity=0 time=0@note_on channel=7 note=61 velocity=100 time=0@note_on channel=8 note=57 velocity=0 time=0@note_on channel=8 note=61 velocity=100 time=0@note_on channel=0 note=69 velocity=0 time=0.454545@note_on channel=0 note=66 velocity=100 time=0@note_on channel=1 note=64 velocity=0 time=0@note_on channel=1 note=69 velocity=100 time=0@note_on channel=2 note=61 velocity=0 time=0@note_on channel=2 note=62 velocity=100 time=0@note_on channel=3 note=61 velocity=0 time=0@note_on channel=4 note=45 velocity=0 time=0@note_on channel=4 note=50 velocity=100 time=0@note_on channel=5 note=69 velocity=0 time=0@note_on channel=5 note=66 velocity=100 time=0@note_on channel=6 note=64 velocity=0 time=0@note_on channel=6 note=69 velocity=100 time=0@note_on channel=7 note=61 velocity=0 time=0@note_on channel=7 note=62 velocity=100 time=0@note_on channel=8 note=61 velocity=0 time=0@note_on channel=10 note=45 velocity=0 time=0@note_on channel=10 note=50 velocity=100 time=0@note_on channel=3 note=57 velocity=100 time=0.454545@note_on channel=8 note=57 velocity=100 time=0@note_on channel=1 note=69 velocity=0 time=0.454545@note_on channel=1 note=74 velocity=100 time=0@note_on channel=2 note=62 velocity=0 time=0@note_on channel=2 note=66 velocity=100 time=0@note_on channel=3 note=57 velocity=0 time=0@note_on channel=3 note=62 velocity=100 time=0@note_on channel=6 note=69 velocity=0 time=0@note_on channel=6 note=74 velocity=100 time=0@note_on channel=7 note=62 velocity=0 time=0@note_on channel=7 note=66 velocity=100 time=0@note_on channel=8 note=57 velocity=0 time=0@note_on channel=8 note=62 velocity=100 time=0@note_on channel=0 note=66 velocity=0 time=0.454545@note_on channel=0 note=81 velocity=100 time=0@control_change channel=0 control=7 value=80 time=0@note_on channel=1 note=74 velocity=0 time=0@note_on channel=1 note=78 velocity=100 time=0@control_change channel=1 control=7 value=80 time=0@note_on channel=2 note=66 velocity=0 time=0@control_change channel=2 control=7 value=80 time=0@note_on channel=3 note=62 velocity=0 time=0@note_on channel=3 note=66 velocity=100 time=0@control_change channel=3 control=7 value=80 time=0@control_change channel=4 control=7 value=80 time=0@note_on channel=5 note=66 velocity=0 time=0@note_on channel=5 note=81 velocity=100 time=0@control_change channel=5 control=7 value=80 time=0@note_on channel=6 note=74 velocity=0 time=0@note_on channel=6 note=78 velocity=100 time=0@control_change channel=6 control=7 value=80 time=0@note_on channel=7 note=66 velocity=0 time=0@control_change channel=7 control=7 value=80 time=0@note_on channel=8 note=62 velocity=0 time=0@note_on channel=8 note=66 velocity=100 time=0@control_change channel=8 control=7 value=80 time=0@control_change channel=10 control=7 value=80 time=0@note_on channel=1 note=78 velocity=0 time=0.454545@note_on channel=1 note=78 velocity=100 time=0@note_on channel=3 note=66 velocity=0 time=0@note_on channel=4 note=50 velocity=0 time=0@note_on channel=4 note=45 velocity=100 time=0@note_on channel=6 note=78 velocity=0 time=0@note_on channel=6 note=78 velocity=100 time=0@note_on channel=8 note=66 velocity=0 time=0@note_on channel=10 note=50 velocity=0 time=0@note_on channel=10 note=45 velocity=100 time=0@note_on channel=0 note=81 velocity=0 time=0.454545@note_on channel=0 note=83 velocity=100 time=0@note_on channel=1 note=78 velocity=0 time=0@note_on channel=1 note=79 velocity=100 time=0@note_on channel=3 note=52 velocity=100 time=0@note_on channel=5 note=81 velocity=0 time=0@note_on channel=5 note=83 velocity=100 time=0@note_on channel=6 note=78 velocity=0 time=0@note_on channel=6 note=79 velocity=100 time=0@note_on channel=8 note=52 velocity=100 time=0@note_on channel=0 note=83 velocity=0 time=0.454545@note_on channel=0 note=81 velocity=100 time=0@note_on channel=1 note=79 velocity=0 time=0@note_on channel=1 note=78 velocity=100 time=0@note_on channel=3 note=52 velocity=0 time=0@note_on channel=3 note=57 velocity=100 time=0@note_on channel=5 note=83 velocity=0 time=0@note_on channel=5 note=81 velocity=100 time=0@note_on channel=6 note=79 velocity=0 time=0@note_on channel=6 note=78 velocity=100 time=0@note_on channel=8 note=52 velocity=0 time=0@note_on channel=8 note=57 velocity=100 time=0@note_on channel=0 note=81 velocity=0 time=0.454545@note_on channel=0 note=79 velocity=100 time=0@note_on channel=1 note=78 velocity=0 time=0@note_on channel=1 note=76 velocity=100 time=0@note_on channel=3 note=57 velocity=0 time=0@note_on channel=3 note=61 velocity=100 time=0@note_on channel=5 note=81 velocity=0 time=0@note_on channel=5 note=79 velocity=100 time=0@note_on channel=6 note=78 velocity=0 time=0@note_on channel=6 note=76 velocity=100 time=0@note_on channel=8 note=57 velocity=0 time=0@note_on channel=8 note=61 velocity=100 time=0@note_on channel=0 note=79 velocity=0 time=0.454545@note_on channel=0 note=78 velocity=100 time=0@note_on channel=1 note=76 velocity=0 time=0@note_on channel=1 note=74 velocity=100 time=0@note_on channel=2 note=71 velocity=100 time=0@note_on channel=3 note=61 velocity=0 time=0@note_on channel=4 note=45 velocity=0 time=0@note_on channel=4 note=47 velocity=100 time=0@note_on channel=5 note=79 velocity=0 time=0@note_on channel=5 note=78 velocity=100 time=0@note_on channel=6 note=76 velocity=0 time=0@note_on channel=6 note=74 velocity=100 time=0@note_on channel=7 note=71 velocity=100 time=0@note_on channel=8 note=61 velocity=0 time=0@note_on channel=10 note=45 velocity=0 time=0@note_on channel=10 note=47 velocity=100 time=0@note_on channel=3 note=50 velocity=100 time=0.454545@note_on channel=8 note=50 velocity=100 time=0@note_on channel=3 note=50 velocity=0 time=0.454545@note_on channel=3 note=54 velocity=100 time=0@note_on channel=8 note=50 velocity=0 time=0@note_on channel=8 note=54 velocity=100 time=0@note_on channel=0 note=78 velocity=0 time=0.454545@note_on channel=0 note=78 velocity=100 time=0@note_on channel=1 note=74 velocity=0 time=0@note_on channel=1 note=74 velocity=100 time=0@note_on channel=3 note=54 velocity=0 time=0@note_on channel=3 note=59 velocity=100 time=0@note_on channel=5 note=78 velocity=0 time=0@note_on channel=5 note=78 velocity=100 time=0@note_on channel=6 note=74 velocity=0 time=0@note_on channel=6 note=74 velocity=100 time=0@note_on channel=8 note=54 velocity=0 time=0@note_on channel=8 note=59 velocity=100 time=0@note_on channel=0 note=78 velocity=0 time=0.454545@note_on channel=0 note=78 velocity=100 time=0@note_on channel=1 note=74 velocity=0 time=0@note_on channel=1 note=74 velocity=100 time=0@note_on channel=2 note=71 velocity=0 time=0@note_on channel=2 note=69 velocity=100 time=0@note_on channel=3 note=59 velocity=0 time=0@note_on channel=4 note=47 velocity=0 time=0@note_on channel=4 note=42 velocity=100 time=0@note_on channel=5 note=78 velocity=0 time=0@note_on channel=5 note=78 velocity=100 time=0@note_on channel=6 note=74 velocity=0 time=0@note_on channel=6 note=74 velocity=100 time=0@note_on channel=7 note=71 velocity=0 time=0@note_on channel=7 note=69 velocity=100 time=0@note_on channel=8 note=59 velocity=0 time=0@note_on channel=10 note=47 velocity=0 time=0@note_on channel=10 note=42 velocity=100 time=0@note_on channel=0 note=78 velocity=0 time=0.454545@note_on channel=0 note=79 velocity=100 time=0@note_on channel=1 note=74 velocity=0 time=0@note_on channel=1 note=76 velocity=100 time=0@note_on channel=3 note=49 velocity=100 time=0@note_on channel=5 note=78 velocity=0 time=0@note_on channel=5 note=79 velocity=100 time=0@note_on channel=6 note=74 velocity=0 time=0@note_on channel=6 note=76 velocity=100 time=0@note_on channel=8 note=49 velocity=100 time=0@note_on channel=0 note=79 velocity=0 time=0.454545@note_on channel=0 note=78 velocity=100 time=0@note_on channel=1 note=76 velocity=0 time=0@note_on channel=1 note=74 velocity=100 time=0@note_on channel=2 note=69 velocity=0 time=0@note_on channel=2 note=69 velocity=100 time=0@note_on channel=3 note=49 velocity=0 time=0@note_on channel=3 note=54 velocity=100 time=0@note_on channel=5 note=79 velocity=0 time=0@note_on channel=5 note=78 velocity=100 time=0@note_on channel=6 note=76 velocity=0 time=0@note_on channel=6 note=74 velocity=100 time=0@note_on channel=7 note=69 velocity=0 time=0@note_on channel=7 note=69 velocity=100 time=0@note_on channel=8 note=49 velocity=0 time=0@note_on channel=8 note=54 velocity=100 time=0@note_on channel=0 note=78 velocity=0 time=0.454545@note_on channel=0 note=76 velocity=100 time=0@note_on channel=1 note=74 velocity=0 time=0@note_on channel=1 note=73 velocity=100 time=0@note_on channel=3 note=54 velocity=0 time=0@note_on channel=3 note=57 velocity=100 time=0@note_on channel=5 note=78 velocity=0 time=0@note_on channel=5 note=76 velocity=100 time=0@note_on channel=6 note=74 velocity=0 time=0@note_on channel=6 note=73 velocity=100 time=0@note_on channel=8 note=54 velocity=0 time=0@note_on channel=8 note=57 velocity=100 time=0@note_on channel=0 note=76 velocity=0 time=0.454545@note_on channel=0 note=74 velocity=100 time=0@note_on channel=1 note=73 velocity=0 time=0@note_on channel=1 note=71 velocity=100 time=0@note_on channel=2 note=69 velocity=0 time=0@note_on channel=2 note=62 velocity=100 time=0@note_on channel=3 note=57 velocity=0 time=0@note_on channel=4 note=42 velocity=0 time=0@note_on channel=4 note=43 velocity=100 time=0@note_on channel=5 note=76 velocity=0 time=0@note_on channel=5 note=74 velocity=100 time=0@note_on channel=6 note=73 velocity=0 time=0@note_on channel=6 note=71 velocity=100 time=0@note_on channel=7 note=69 velocity=0 time=0@note_on channel=7 note=62 velocity=100 time=0@note_on channel=8 note=57 velocity=0 time=0@note_on channel=10 note=42 velocity=0 time=0@note_on channel=10 note=43 velocity=100 time=0@note_on channel=0 note=74 velocity=0 time=0.454545@note_on channel=0 note=72 velocity=100 time=0@note_on channel=3 note=47 velocity=100 time=0@note_on channel=5 note=74 velocity=0 time=0@note_on channel=5 note=72 velocity=100 time=0@note_on channel=8 note=47 velocity=100 time=0@note_on channel=0 note=72 velocity=0 time=0.454545@note_on channel=0 note=71 velocity=100 time=0@note_on channel=2 note=62 velocity=0 time=0@note_on channel=2 note=62 velocity=100 time=0@note_on channel=3 note=47 velocity=0 time=0@note_on channel=3 note=50 velocity=100 time=0@note_on channel=5 note=72 velocity=0 time=0@note_on channel=5 note=71 velocity=100 time=0@note_on channel=7 note=62 velocity=0 time=0@note_on channel=7 note=62 velocity=100 time=0@note_on channel=8 note=47 velocity=0 time=0@note_on channel=8 note=50 velocity=100 time=0@note_on channel=0 note=71 velocity=0 time=0.454545@note_on channel=0 note=72 velocity=100 time=0@note_on channel=2 note=62 velocity=0 time=0@note_on channel=2 note=64 velocity=100 time=0@note_on channel=3 note=50 velocity=0 time=0@note_on channel=3 note=55 velocity=100 time=0@note_on channel=5 note=71 velocity=0 time=0@note_on channel=5 note=72 velocity=100 time=0@note_on channel=7 note=62 velocity=0 time=0@note_on channel=7 note=64 velocity=100 time=0@note_on channel=8 note=50 velocity=0 time=0@note_on channel=8 note=55 velocity=100 time=0@note_on channel=0 note=72 velocity=0 time=0.454545@note_on channel=0 note=69 velocity=100 time=0@note_on channel=1 note=71 velocity=0 time=0@note_on channel=1 note=74 velocity=100 time=0@note_on channel=2 note=64 velocity=0 time=0@note_on channel=2 note=66 velocity=100 time=0@note_on channel=3 note=55 velocity=0 time=0@note_on channel=4 note=43 velocity=0 time=0@note_on channel=4 note=38 velocity=100 time=0@note_on channel=5 note=72 velocity=0 time=0@note_on channel=5 note=69 velocity=100 time=0@note_on channel=6 note=71 velocity=0 time=0@note_on channel=6 note=74 velocity=100 time=0@note_on channel=7 note=64 velocity=0 time=0@note_on channel=7 note=66 velocity=100 time=0@note_on channel=8 note=55 velocity=0 time=0@note_on channel=10 note=43 velocity=0 time=0@note_on channel=10 note=38 velocity=100 time=0@note_on channel=3 note=54 velocity=100 time=0.454545@note_on channel=8 note=54 velocity=100 time=0@note_on channel=3 note=54 velocity=0 time=0.454545@note_on channel=3 note=57 velocity=100 time=0@note_on channel=8 note=54 velocity=0 time=0@note_on channel=8 note=57 velocity=100 time=0@note_on channel=0 note=69 velocity=0 time=0.454545@note_on channel=0 note=69 velocity=100 time=0@note_on channel=3 note=57 velocity=0 time=0@note_on channel=3 note=62 velocity=100 time=0@note_on channel=5 note=69 velocity=0 time=0@note_on channel=5 note=69 velocity=100 time=0@note_on channel=8 note=57 velocity=0 time=0@note_on channel=8 note=62 velocity=100 time=0@note_on channel=0 note=69 velocity=0 time=0.454545@note_on channel=0 note=71 velocity=100 time=0@note_on channel=1 note=74 velocity=0 time=0@note_on channel=1 note=74 velocity=100 time=0@note_on channel=2 note=66 velocity=0 time=0@note_on channel=2 note=67 velocity=100 time=0@note_on channel=3 note=62 velocity=0 time=0@note_on channel=4 note=38 velocity=0 time=0@note_on channel=4 note=43 velocity=100 time=0@note_on channel=5 note=69 velocity=0 time=0@note_on channel=5 note=71 velocity=100 time=0@note_on channel=6 note=74 velocity=0 time=0@note_on channel=6 note=74 velocity=100 time=0@note_on channel=7 note=66 velocity=0 time=0@note_on channel=7 note=67 velocity=100 time=0@note_on channel=8 note=62 velocity=0 time=0@note_on channel=10 note=38 velocity=0 time=0@note_on channel=10 note=43 velocity=100 time=0@note_on channel=1 note=74 velocity=0 time=0.454545@note_on channel=1 note=72 velocity=100 time=0@note_on channel=3 note=52 velocity=100 time=0@note_on channel=6 note=74 velocity=0 time=0@note_on channel=6 note=72 velocity=100 time=0@note_on channel=8 note=52 velocity=100 time=0@note_on channel=0 note=71 velocity=0 time=0.454545@note_on channel=0 note=74 velocity=100 time=0@note_on channel=1 note=72 velocity=0 time=0@note_on channel=1 note=71 velocity=100 time=0@note_on channel=2 note=67 velocity=0 time=0@note_on channel=2 note=71 velocity=100 time=0@note_on channel=3 note=52 velocity=0 time=0@note_on channel=3 note=59 velocity=100 time=0@note_on channel=5 note=71 velocity=0 time=0@note_on channel=5 note=74 velocity=100 time=0@note_on channel=6 note=72 velocity=0 time=0@note_on channel=6 note=71 velocity=100 time=0@note_on channel=7 note=67 velocity=0 time=0@note_on channel=7 note=71 velocity=100 time=0@note_on channel=8 note=52 velocity=0 time=0@note_on channel=8 note=59 velocity=100 time=0@note_on channel=1 note=71 velocity=0 time=0.454545@note_on channel=1 note=72 velocity=100 time=0@note_on channel=3 note=59 velocity=0 time=0@note_on channel=3 note=62 velocity=100 time=0@note_on channel=6 note=71 velocity=0 time=0@note_on channel=6 note=72 velocity=100 time=0@note_on channel=8 note=59 velocity=0 time=0@note_on channel=8 note=62 velocity=100 time=0@note_on channel=0 note=74 velocity=0 time=0.454545@note_on channel=0 note=73 velocity=100 time=0@note_on channel=1 note=72 velocity=0 time=0@note_on channel=1 note=69 velocity=100 time=0@note_on channel=2 note=71 velocity=0 time=0@note_on channel=2 note=64 velocity=100 time=0@note_on channel=3 note=62 velocity=0 time=0@note_on channel=4 note=43 velocity=0 time=0@note_on channel=4 note=45 velocity=100 time=0@note_on channel=5 note=74 velocity=0 time=0@note_on channel=5 note=73 velocity=100 time=0@note_on channel=6 note=72 velocity=0 time=0@note_on channel=6 note=69 velocity=100 time=0@note_on channel=7 note=71 velocity=0 time=0@note_on channel=7 note=64 velocity=100 time=0@note_on channel=8 note=62 velocity=0 time=0@note_on channel=10 note=43 velocity=0 time=0@note_on channel=10 note=45 velocity=100 time=0@note_on channel=3 note=52 velocity=100 time=0.454545@note_on channel=8 note=52 velocity=100 time=0@note_on channel=0 note=73 velocity=0 time=0.454545@note_on channel=0 note=73 velocity=100 time=0@note_on channel=1 note=69 velocity=0 time=0@note_on channel=1 note=69 velocity=100 time=0@note_on channel=2 note=64 velocity=0 time=0@note_on channel=2 note=64 velocity=100 time=0@note_on channel=3 note=52 velocity=0 time=0@note_on channel=3 note=57 velocity=100 time=0@note_on channel=5 note=73 velocity=0 time=0@note_on channel=5 note=73 velocity=100 time=0@note_on channel=6 note=69 velocity=0 time=0@note_on channel=6 note=69 velocity=100 time=0@note_on channel=7 note=64 velocity=0 time=0@note_on channel=7 note=64 velocity=100 time=0@note_on channel=8 note=52 velocity=0 time=0@note_on channel=8 note=57 velocity=100 time=0@note_on channel=0 note=73 velocity=0 time=0.454545@note_on channel=0 note=73 velocity=100 time=0@note_on channel=1 note=69 velocity=0 time=0@note_on channel=1 note=69 velocity=100 time=0@note_on channel=2 note=64 velocity=0 time=0@note_on channel=2 note=64 velocity=100 time=0@note_on channel=3 note=57 velocity=0 time=0@note_on channel=3 note=61 velocity=100 time=0@note_on channel=5 note=73 velocity=0 time=0@note_on channel=5 note=73 velocity=100 time=0@note_on channel=6 note=69 velocity=0 time=0@note_on channel=6 note=69 velocity=100 time=0@note_on channel=7 note=64 velocity=0 time=0@note_on channel=7 note=64 velocity=100 time=0@note_on channel=8 note=57 velocity=0 time=0@note_on channel=8 note=61 velocity=100 time=0@note_on channel=0 note=73 velocity=0 time=0.454545@note_on channel=0 note=74 velocity=100 time=0@note_on channel=1 note=69 velocity=0 time=0@note_on channel=1 note=66 velocity=100 time=0@note_on channel=2 note=64 velocity=0 time=0@note_on channel=2 note=69 velocity=100 time=0@note_on channel=3 note=61 velocity=0 time=0@note_on channel=4 note=45 velocity=0 time=0@note_on channel=4 note=50 velocity=100 time=0@note_on channel=5 note=73 velocity=0 time=0@note_on channel=5 note=74 velocity=100 time=0@note_on channel=6 note=69 velocity=0 time=0@note_on channel=6 note=66 velocity=100 time=0@note_on channel=7 note=64 velocity=0 time=0@note_on channel=7 note=69 velocity=100 time=0@note_on channel=8 note=61 velocity=0 time=0@note_on channel=10 note=45 velocity=0 time=0@note_on channel=10 note=50 velocity=100 time=0@note_on channel=3 note=57 velocity=100 time=0.454545@note_on channel=8 note=57 velocity=100 time=0@note_on channel=0 note=74 velocity=0 time=0.454545@note_on channel=0 note=74 velocity=100 time=0@control_change channel=0 control=7 value=100 time=0@control_change channel=1 control=7 value=100 time=0@control_change channel=2 control=7 value=100 time=0@note_on channel=3 note=57 velocity=0 time=0@note_on channel=3 note=62 velocity=100 time=0@control_change channel=3 control=7 value=100 time=0@control_change channel=4 control=7 value=100 time=0@note_on channel=5 note=74 velocity=0 time=0@note_on channel=5 note=74 velocity=100 time=0@control_change channel=5 control=7 value=100 time=0@control_change channel=6 control=7 value=100 time=0@control_change channel=7 control=7 value=100 time=0@note_on channel=8 note=57 velocity=0 time=0@note_on channel=8 note=62 velocity=100 time=0@control_change channel=8 control=7 value=100 time=0@control_change channel=10 control=7 value=100 time=0@note_on channel=1 note=66 velocity=0 time=0.454545@note_on channel=1 note=81 velocity=100 time=0@note_on channel=2 note=69 velocity=0 time=0@note_on channel=2 note=78 velocity=100 time=0@note_on channel=3 note=62 velocity=0 time=0@note_on channel=3 note=66 velocity=100 time=0@note_on channel=6 note=66 velocity=0 time=0@note_on channel=6 note=81 velocity=100 time=0@note_on channel=7 note=69 velocity=0 time=0@note_on channel=7 note=78 velocity=100 time=0@note_on channel=8 note=62 velocity=0 time=0@note_on channel=8 note=66 velocity=100 time=0@note_on channel=2 note=78 velocity=0 time=0.454545@note_on channel=2 note=78 velocity=100 time=0@note_on channel=3 note=66 velocity=0 time=0@note_on channel=4 note=50 velocity=0 time=0@note_on channel=4 note=45 velocity=100 time=0@note_on channel=7 note=78 velocity=0 time=0@note_on channel=7 note=78 velocity=100 time=0@note_on channel=8 note=66 velocity=0 time=0@note_on channel=10 note=50 velocity=0 time=0@note_on channel=10 note=45 velocity=100 time=0@note_on channel=1 note=81 velocity=0 time=0.454545@note_on channel=1 note=83 velocity=100 time=0@note_on channel=2 note=78 velocity=0 time=0@note_on channel=2 note=79 velocity=100 time=0@note_on channel=3 note=52 velocity=100 time=0@note_on channel=6 note=81 velocity=0 time=0@note_on channel=6 note=83 velocity=100 time=0@note_on channel=7 note=78 velocity=0 time=0@note_on channel=7 note=79 velocity=100 time=0@note_on channel=8 note=52 velocity=100 time=0@note_on channel=0 note=74 velocity=0 time=0.454545@note_on channel=0 note=73 velocity=100 time=0@note_on channel=1 note=83 velocity=0 time=0@note_on channel=1 note=81 velocity=100 time=0@note_on channel=2 note=79 velocity=0 time=0@note_on channel=2 note=78 velocity=100 time=0@note_on channel=3 note=52 velocity=0 time=0@note_on channel=3 note=57 velocity=100 time=0@note_on channel=5 note=74 velocity=0 time=0@note_on channel=5 note=73 velocity=100 time=0@note_on channel=6 note=83 velocity=0 time=0@note_on channel=6 note=81 velocity=100 time=0@note_on channel=7 note=79 velocity=0 time=0@note_on channel=7 note=78 velocity=100 time=0@note_on channel=8 note=52 velocity=0 time=0@note_on channel=8 note=57 velocity=100 time=0@note_on channel=1 note=81 velocity=0 time=0.454545@note_on channel=1 note=79 velocity=100 time=0@note_on channel=2 note=78 velocity=0 time=0@note_on channel=2 note=76 velocity=100 time=0@note_on channel=3 note=57 velocity=0 time=0@note_on channel=3 note=61 velocity=100 time=0@note_on channel=6 note=81 velocity=0 time=0@note_on channel=6 note=79 velocity=100 time=0@note_on channel=7 note=78 velocity=0 time=0@note_on channel=7 note=76 velocity=100 time=0@note_on channel=8 note=57 velocity=0 time=0@note_on channel=8 note=61 velocity=100 time=0@note_on channel=0 note=73 velocity=0 time=0.454545@note_on channel=0 note=73 velocity=100 time=0@note_on channel=1 note=79 velocity=0 time=0@note_on channel=1 note=78 velocity=100 time=0@note_on channel=2 note=76 velocity=0 time=0@note_on channel=2 note=74 velocity=100 time=0@note_on channel=3 note=61 velocity=0 time=0@note_on channel=4 note=45 velocity=0 time=0@note_on channel=4 note=47 velocity=100 time=0@note_on channel=5 note=73 velocity=0 time=0@note_on channel=5 note=73 velocity=100 time=0@note_on channel=6 note=79 velocity=0 time=0@note_on channel=6 note=78 velocity=100 time=0@note_on channel=7 note=76 velocity=0 time=0@note_on channel=7 note=74 velocity=100 time=0@note_on channel=8 note=61 velocity=0 time=0@note_on channel=10 note=45 velocity=0 time=0@note_on channel=10 note=47 velocity=100 time=0@note_on channel=3 note=50 velocity=100 time=0.454545@note_on channel=8 note=50 velocity=100 time=0@note_on channel=0 note=73 velocity=0 time=0.454545@note_on channel=0 note=71 velocity=100 time=0@note_on channel=3 note=50 velocity=0 time=0@note_on channel=3 note=54 velocity=100 time=0@note_on channel=5 note=73 velocity=0 time=0@note_on channel=5 note=71 velocity=100 time=0@note_on channel=8 note=50 velocity=0 time=0@note_on channel=8 note=54 velocity=100 time=0@note_on channel=1 note=78 velocity=0 time=0.454545@note_on channel=1 note=78 velocity=100 time=0@note_on channel=2 note=74 velocity=0 time=0@note_on channel=2 note=74 velocity=100 time=0@note_on channel=3 note=54 velocity=0 time=0@note_on channel=3 note=59 velocity=100 time=0@note_on channel=6 note=78 velocity=0 time=0@note_on channel=6 note=78 velocity=100 time=0@note_on channel=7 note=74 velocity=0 time=0@note_on channel=7 note=74 velocity=100 time=0@note_on channel=8 note=54 velocity=0 time=0@note_on channel=8 note=59 velocity=100 time=0@note_on channel=1 note=78 velocity=0 time=0.454545@note_on channel=1 note=78 velocity=100 time=0@note_on channel=2 note=74 velocity=0 time=0@note_on channel=2 note=74 velocity=100 time=0@note_on channel=3 note=59 velocity=0 time=0@note_on channel=4 note=47 velocity=0 time=0@note_on channel=4 note=42 velocity=100 time=0@note_on channel=6 note=78 velocity=0 time=0@note_on channel=6 note=78 velocity=100 time=0@note_on channel=7 note=74 velocity=0 time=0@note_on channel=7 note=74 velocity=100 time=0@note_on channel=8 note=59 velocity=0 time=0@note_on channel=10 note=47 velocity=0 time=0@note_on channel=10 note=42 velocity=100 time=0@note_on channel=1 note=78 velocity=0 time=0.454545@note_on channel=1 note=79 velocity=100 time=0@note_on channel=2 note=74 velocity=0 time=0@note_on channel=2 note=76 velocity=100 time=0@note_on channel=3 note=49 velocity=100 time=0@note_on channel=6 note=78 velocity=0 time=0@note_on channel=6 note=79 velocity=100 time=0@note_on channel=7 note=74 velocity=0 time=0@note_on channel=7 note=76 velocity=100 time=0@note_on channel=8 note=49 velocity=100 time=0@note_on channel=0 note=71 velocity=0 time=0.454545@note_on channel=0 note=69 velocity=100 time=0@note_on channel=1 note=79 velocity=0 time=0@note_on channel=1 note=78 velocity=100 time=0@note_on channel=2 note=76 velocity=0 time=0@note_on channel=2 note=74 velocity=100 time=0@note_on channel=3 note=49 velocity=0 time=0@note_on channel=3 note=54 velocity=100 time=0@note_on channel=5 note=71 velocity=0 time=0@note_on channel=5 note=69 velocity=100 time=0@note_on channel=6 note=79 velocity=0 time=0@note_on channel=6 note=78 velocity=100 time=0@note_on channel=7 note=76 velocity=0 time=0@note_on channel=7 note=74 velocity=100 time=0@note_on channel=8 note=49 velocity=0 time=0@note_on channel=8 note=54 velocity=100 time=0@note_on channel=1 note=78 velocity=0 time=0.454545@note_on channel=1 note=76 velocity=100 time=0@note_on channel=2 note=74 velocity=0 time=0@note_on channel=2 note=73 velocity=100 time=0@note_on channel=3 note=54 velocity=0 time=0@note_on channel=3 note=57 velocity=100 time=0@note_on channel=6 note=78 velocity=0 time=0@note_on channel=6 note=76 velocity=100 time=0@note_on channel=7 note=74 velocity=0 time=0@note_on channel=7 note=73 velocity=100 time=0@note_on channel=8 note=54 velocity=0 time=0@note_on channel=8 note=57 velocity=100 time=0@note_on channel=0 note=69 velocity=0 time=0.454545@note_on channel=0 note=69 velocity=100 time=0@note_on channel=1 note=76 velocity=0 time=0@note_on channel=1 note=74 velocity=100 time=0@note_on channel=2 note=73 velocity=0 time=0@note_on channel=2 note=71 velocity=100 time=0@note_on channel=3 note=57 velocity=0 time=0@note_on channel=4 note=42 velocity=0 time=0@note_on channel=4 note=43 velocity=100 time=0@note_on channel=5 note=69 velocity=0 time=0@note_on channel=5 note=69 velocity=100 time=0@note_on channel=6 note=76 velocity=0 time=0@note_on channel=6 note=74 velocity=100 time=0@note_on channel=7 note=73 velocity=0 time=0@note_on channel=7 note=71 velocity=100 time=0@note_on channel=8 note=57 velocity=0 time=0@note_on channel=10 note=42 velocity=0 time=0@note_on channel=10 note=43 velocity=100 time=0@note_on channel=1 note=74 velocity=0 time=0.454545@note_on channel=1 note=72 velocity=100 time=0@note_on channel=3 note=47 velocity=100 time=0@note_on channel=6 note=74 velocity=0 time=0@note_on channel=6 note=72 velocity=100 time=0@note_on channel=8 note=47 velocity=100 time=0@note_on channel=0 note=69 velocity=0 time=0.454545@note_on channel=0 note=67 velocity=100 time=0@note_on channel=1 note=72 velocity=0 time=0@note_on channel=1 note=71 velocity=100 time=0@note_on channel=3 note=47 velocity=0 time=0@note_on channel=3 note=50 velocity=100 time=0@note_on channel=5 note=69 velocity=0 time=0@note_on channel=5 note=67 velocity=100 time=0@note_on channel=6 note=72 velocity=0 time=0@note_on channel=6 note=71 velocity=100 time=0@note_on channel=8 note=47 velocity=0 time=0@note_on channel=8 note=50 velocity=100 time=0@note_on channel=1 note=71 velocity=0 time=0.454545@note_on channel=1 note=72 velocity=100 time=0@note_on channel=3 note=50 velocity=0 time=0@note_on channel=3 note=55 velocity=100 time=0@note_on channel=6 note=71 velocity=0 time=0@note_on channel=6 note=72 velocity=100 time=0@note_on channel=8 note=50 velocity=0 time=0@note_on channel=8 note=55 velocity=100 time=0@note_on channel=0 note=67 velocity=0 time=0.454545@note_on channel=0 note=67 velocity=100 time=0@note_on channel=1 note=72 velocity=0 time=0@note_on channel=1 note=69 velocity=100 time=0@note_on channel=2 note=71 velocity=0 time=0@note_on channel=2 note=74 velocity=100 time=0@note_on channel=3 note=55 velocity=0 time=0@note_on channel=4 note=43 velocity=0 time=0@note_on channel=4 note=38 velocity=100 time=0@note_on channel=5 note=67 velocity=0 time=0@note_on channel=5 note=67 velocity=100 time=0@note_on channel=6 note=72 velocity=0 time=0@note_on channel=6 note=69 velocity=100 time=0@note_on channel=7 note=71 velocity=0 time=0@note_on channel=7 note=74 velocity=100 time=0@note_on channel=8 note=55 velocity=0 time=0@note_on channel=10 note=43 velocity=0 time=0@note_on channel=10 note=38 velocity=100 time=0@note_on channel=3 note=54 velocity=100 time=0.454545@note_on channel=8 note=54 velocity=100 time=0@note_on channel=0 note=67 velocity=0 time=0.454545@note_on channel=0 note=66 velocity=100 time=0@note_on channel=3 note=54 velocity=0 time=0@note_on channel=3 note=57 velocity=100 time=0@note_on channel=5 note=67 velocity=0 time=0@note_on channel=5 note=66 velocity=100 time=0@note_on channel=8 note=54 velocity=0 time=0@note_on channel=8 note=57 velocity=100 time=0@note_on channel=1 note=69 velocity=0 time=0.454545@note_on channel=1 note=69 velocity=100 time=0@note_on channel=3 note=57 velocity=0 time=0@note_on channel=3 note=62 velocity=100 time=0@note_on channel=6 note=69 velocity=0 time=0@note_on channel=6 note=69 velocity=100 time=0@note_on channel=8 note=57 velocity=0 time=0@note_on channel=8 note=62 velocity=100 time=0@note_on channel=1 note=69 velocity=0 time=0.454545@note_on channel=1 note=71 velocity=100 time=0@note_on channel=2 note=74 velocity=0 time=0@note_on channel=2 note=74 velocity=100 time=0@note_on channel=3 note=62 velocity=0 time=0@note_on channel=4 note=38 velocity=0 time=0@note_on channel=4 note=43 velocity=100 time=0@note_on channel=6 note=69 velocity=0 time=0@note_on channel=6 note=71 velocity=100 time=0@note_on channel=7 note=74 velocity=0 time=0@note_on channel=7 note=74 velocity=100 time=0@note_on channel=8 note=62 velocity=0 time=0@note_on channel=10 note=38 velocity=0 time=0@note_on channel=10 note=43 velocity=100 time=0@note_on channel=2 note=74 velocity=0 time=0.454545@note_on channel=2 note=72 velocity=100 time=0@note_on channel=3 note=52 velocity=100 time=0@note_on channel=7 note=74 velocity=0 time=0@note_on channel=7 note=72 velocity=100 time=0@note_on channel=8 note=52 velocity=100 time=0@note_on channel=0 note=66 velocity=0 time=0.454545@note_on channel=0 note=66 velocity=100 time=0@note_on channel=1 note=71 velocity=0 time=0@note_on channel=1 note=74 velocity=100 time=0@note_on channel=2 note=72 velocity=0 time=0@note_on channel=2 note=71 velocity=100 time=0@note_on channel=3 note=52 velocity=0 time=0@note_on channel=3 note=59 velocity=100 time=0@note_on channel=5 note=66 velocity=0 time=0@note_on channel=5 note=66 velocity=100 time=0@note_on channel=6 note=71 velocity=0 time=0@note_on channel=6 note=74 velocity=100 time=0@note_on channel=7 note=72 velocity=0 time=0@note_on channel=7 note=71 velocity=100 time=0@note_on channel=8 note=52 velocity=0 time=0@note_on channel=8 note=59 velocity=100 time=0@note_on channel=0 note=66 velocity=0 time=0.454545@note_on channel=0 note=64 velocity=100 time=0@note_on channel=2 note=71 velocity=0 time=0@note_on channel=2 note=72 velocity=100 time=0@note_on channel=3 note=59 velocity=0 time=0@note_on channel=3 note=62 velocity=100 time=0@note_on channel=5 note=66 velocity=0 time=0@note_on channel=5 note=64 velocity=100 time=0@note_on channel=7 note=71 velocity=0 time=0@note_on channel=7 note=72 velocity=100 time=0@note_on channel=8 note=59 velocity=0 time=0@note_on channel=8 note=62 velocity=100 time=0@note_on channel=0 note=64 velocity=0 time=0.454545@note_on channel=0 note=64 velocity=100 time=0@control_change channel=0 control=7 value=90 time=0@note_on channel=1 note=74 velocity=0 time=0@note_on channel=1 note=73 velocity=100 time=0@control_change channel=1 control=7 value=90 time=0@note_on channel=2 note=72 velocity=0 time=0@note_on channel=2 note=69 velocity=100 time=0@control_change channel=2 control=7 value=90 time=0@note_on channel=3 note=62 velocity=0 time=0@control_change channel=3 control=7 value=90 time=0@note_on channel=4 note=43 velocity=0 time=0@note_on channel=4 note=45 velocity=100 time=0@control_change channel=4 control=7 value=90 time=0@note_on channel=5 note=64 velocity=0 time=0@note_on channel=5 note=64 velocity=100 time=0@control_change channel=5 control=7 value=90 time=0@note_on channel=6 note=74 velocity=0 time=0@note_on channel=6 note=73 velocity=100 time=0@control_change channel=6 control=7 value=90 time=0@note_on channel=7 note=72 velocity=0 time=0@note_on channel=7 note=69 velocity=100 time=0@control_change channel=7 control=7 value=90 time=0@note_on channel=8 note=62 velocity=0 time=0@control_change channel=8 control=7 value=90 time=0@note_on channel=10 note=43 velocity=0 time=0@note_on channel=10 note=45 velocity=100 time=0@control_change channel=10 control=7 value=90 time=0@note_on channel=3 note=52 velocity=100 time=0.454545@note_on channel=8 note=52 velocity=100 time=0@control_change channel=0 control=7 value=80 time=0.454545@note_on channel=1 note=73 velocity=0 time=0@note_on channel=1 note=73 velocity=100 time=0@control_change channel=1 control=7 value=80 time=0@note_on channel=2 note=69 velocity=0 time=0@note_on channel=2 note=69 velocity=100 time=0@control_change channel=2 control=7 value=80 time=0@note_on channel=3 note=52 velocity=0 time=0@note_on channel=3 note=57 velocity=100 time=0@control_change channel=3 control=7 value=80 time=0@control_change channel=4 control=7 value=80 time=0@control_change channel=5 control=7 value=80 time=0@note_on channel=6 note=73 velocity=0 time=0@note_on channel=6 note=73 velocity=100 time=0@control_change channel=6 control=7 value=80 time=0@note_on channel=7 note=69 velocity=0 time=0@note_on channel=7 note=69 velocity=100 time=0@control_change channel=7 control=7 value=80 time=0@note_on channel=8 note=52 velocity=0 time=0@note_on channel=8 note=57 velocity=100 time=0@control_change channel=8 control=7 value=80 time=0@control_change channel=10 control=7 value=80 time=0@note_on channel=1 note=73 velocity=0 time=0.454545@note_on channel=1 note=73 velocity=100 time=0@note_on channel=2 note=69 velocity=0 time=0@note_on channel=2 note=69 velocity=100 time=0@note_on channel=3 note=57 velocity=0 time=0@note_on channel=3 note=61 velocity=100 time=0@note_on channel=6 note=73 velocity=0 time=0@note_on channel=6 note=73 velocity=100 time=0@note_on channel=7 note=69 velocity=0 time=0@note_on channel=7 note=69 velocity=100 time=0@note_on channel=8 note=57 velocity=0 time=0@note_on channel=8 note=61 velocity=100 time=0@note_on channel=0 note=64 velocity=0 time=0.454545@note_on channel=0 note=69 velocity=100 time=0@control_change channel=0 control=7 value=60 time=0@note_on channel=1 note=73 velocity=0 time=0@note_on channel=1 note=74 velocity=100 time=0@control_change channel=1 control=7 value=60 time=0@note_on channel=2 note=69 velocity=0 time=0@note_on channel=2 note=66 velocity=100 time=0@control_change channel=2 control=7 value=60 time=0@note_on channel=3 note=61 velocity=0 time=0@control_change channel=3 control=7 value=60 time=0@note_on channel=4 note=45 velocity=0 time=0@note_on channel=4 note=50 velocity=100 time=0@control_change channel=4 control=7 value=60 time=0@note_on channel=5 note=64 velocity=0 time=0@note_on channel=5 note=69 velocity=100 time=0@control_change channel=5 control=7 value=60 time=0@note_on channel=6 note=73 velocity=0 time=0@note_on channel=6 note=74 velocity=100 time=0@control_change channel=6 control=7 value=60 time=0@note_on channel=7 note=69 velocity=0 time=0@note_on channel=7 note=66 velocity=100 time=0@control_change channel=7 control=7 value=60 time=0@note_on channel=8 note=61 velocity=0 time=0@control_change channel=8 control=7 value=60 time=0@note_on channel=10 note=45 velocity=0 time=0@note_on channel=10 note=50 velocity=100 time=0@control_change channel=10 control=7 value=60 time=0@note_on channel=3 note=57 velocity=100 time=0.454545@note_on channel=8 note=57 velocity=100 time=0@note_on channel=0 note=69 velocity=0 time=0.454545@note_on channel=0 note=78 velocity=100 time=0@note_on channel=1 note=74 velocity=0 time=0@note_on channel=1 note=74 velocity=100 time=0@note_on channel=2 note=66 velocity=0 time=0@note_on channel=2 note=69 velocity=100 time=0@note_on channel=3 note=57 velocity=0 time=0@note_on channel=3 note=62 velocity=100 time=0@note_on channel=5 note=69 velocity=0 time=0@note_on channel=5 note=78 velocity=100 time=0@note_on channel=6 note=74 velocity=0 time=0@note_on channel=6 note=74 velocity=100 time=0@note_on channel=7 note=66 velocity=0 time=0@note_on channel=7 note=69 velocity=100 time=0@note_on channel=8 note=57 velocity=0 time=0@note_on channel=8 note=62 velocity=100 time=0@note_on channel=2 note=69 velocity=0 time=0.454545@note_on channel=2 note=81 velocity=100 time=0@note_on channel=3 note=62 velocity=0 time=0@note_on channel=3 note=66 velocity=100 time=0@note_on channel=7 note=69 velocity=0 time=0@note_on channel=7 note=81 velocity=100 time=0@note_on channel=8 note=62 velocity=0 time=0@note_on channel=8 note=66 velocity=100 time=0@note_on channel=0 note=78 velocity=0 time=0.454545@note_on channel=0 note=78 velocity=100 time=0@note_on channel=1 note=74 velocity=0 time=0@note_on channel=1 note=74 velocity=100 time=0@note_on channel=3 note=66 velocity=0 time=0@note_on channel=4 note=50 velocity=0 time=0@note_on channel=4 note=45 velocity=100 time=0@note_on channel=5 note=78 velocity=0 time=0@note_on channel=5 note=78 velocity=100 time=0@note_on channel=6 note=74 velocity=0 time=0@note_on channel=6 note=74 velocity=100 time=0@note_on channel=8 note=66 velocity=0 time=0@note_on channel=10 note=50 velocity=0 time=0@note_on channel=10 note=45 velocity=100 time=0@note_on channel=2 note=81 velocity=0 time=0.454545@note_on channel=2 note=83 velocity=100 time=0@note_on channel=3 note=52 velocity=100 time=0@note_on channel=7 note=81 velocity=0 time=0@note_on channel=7 note=83 velocity=100 time=0@note_on channel=8 note=52 velocity=100 time=0@note_on channel=0 note=78 velocity=0 time=0.454545@note_on channel=0 note=76 velocity=100 time=0@note_on channel=1 note=74 velocity=0 time=0@note_on channel=1 note=73 velocity=100 time=0@note_on channel=2 note=83 velocity=0 time=0@note_on channel=2 note=81 velocity=100 time=0@note_on channel=3 note=52 velocity=0 time=0@note_on channel=3 note=57 velocity=100 time=0@note_on channel=5 note=78 velocity=0 time=0@note_on channel=5 note=76 velocity=100 time=0@note_on channel=6 note=74 velocity=0 time=0@note_on channel=6 note=73 velocity=100 time=0@note_on channel=7 note=83 velocity=0 time=0@note_on channel=7 note=81 velocity=100 time=0@note_on channel=8 note=52 velocity=0 time=0@note_on channel=8 note=57 velocity=100 time=0@note_on channel=2 note=81 velocity=0 time=0.454545@note_on channel=2 note=79 velocity=100 time=0@note_on channel=3 note=57 velocity=0 time=0@note_on channel=3 note=61 velocity=100 time=0@note_on channel=7 note=81 velocity=0 time=0@note_on channel=7 note=79 velocity=100 time=0@note_on channel=8 note=57 velocity=0 time=0@note_on channel=8 note=61 velocity=100 time=0@note_on channel=0 note=76 velocity=0 time=0.454545@note_on channel=0 note=59 velocity=100 time=0@note_on channel=1 note=73 velocity=0 time=0@note_on channel=1 note=73 velocity=100 time=0@note_on channel=2 note=79 velocity=0 time=0@note_on channel=2 note=78 velocity=100 time=0@note_on channel=3 note=61 velocity=0 time=0@note_on channel=4 note=45 velocity=0 time=0@note_on channel=4 note=47 velocity=100 time=0@note_on channel=5 note=76 velocity=0 time=0@note_on channel=5 note=59 velocity=100 time=0@note_on channel=6 note=73 velocity=0 time=0@note_on channel=6 note=73 velocity=100 time=0@note_on channel=7 note=79 velocity=0 time=0@note_on channel=7 note=78 velocity=100 time=0@note_on channel=8 note=61 velocity=0 time=0@note_on channel=10 note=45 velocity=0 time=0@note_on channel=10 note=47 velocity=100 time=0@note_on channel=3 note=50 velocity=100 time=0.454545@note_on channel=8 note=50 velocity=100 time=0@note_on channel=0 note=86 velocity=100 time=0.454545@control_change channel=0 control=7 value=65 time=0@note_on channel=1 note=73 velocity=0 time=0@note_on channel=1 note=71 velocity=100 time=0@control_change channel=1 control=7 value=65 time=0@control_change channel=2 control=7 value=65 time=0@note_on channel=3 note=50 velocity=0 time=0@note_on channel=3 note=54 velocity=100 time=0@control_change channel=3 control=7 value=65 time=0@control_change channel=4 control=7 value=65 time=0@note_on channel=5 note=86 velocity=100 time=0@control_change channel=5 control=7 value=65 time=0@note_on channel=6 note=73 velocity=0 time=0@note_on channel=6 note=71 velocity=100 time=0@control_change channel=6 control=7 value=65 time=0@control_change channel=7 control=7 value=65 time=0@note_on channel=8 note=50 velocity=0 time=0@note_on channel=8 note=54 velocity=100 time=0@control_change channel=8 control=7 value=65 time=0@control_change channel=10 control=7 value=65 time=0@note_on channel=2 note=78 velocity=0 time=0.454545@note_on channel=2 note=78 velocity=100 time=0@note_on channel=3 note=54 velocity=0 time=0@note_on channel=3 note=59 velocity=100 time=0@note_on channel=7 note=78 velocity=0 time=0@note_on channel=7 note=78 velocity=100 time=0@note_on channel=8 note=54 velocity=0 time=0@note_on channel=8 note=59 velocity=100 time=0@note_on channel=0 note=86 velocity=0 time=0.454545@note_on channel=0 note=59 velocity=0 time=0@note_on channel=0 note=86 velocity=100 time=0@note_on channel=1 note=71 velocity=0 time=0@note_on channel=1 note=71 velocity=100 time=0@note_on channel=2 note=78 velocity=0 time=0@note_on channel=2 note=78 velocity=100 time=0@note_on channel=3 note=59 velocity=0 time=0@note_on channel=4 note=47 velocity=0 time=0@note_on channel=4 note=42 velocity=100 time=0@note_on channel=5 note=86 velocity=0 time=0@note_on channel=5 note=59 velocity=0 time=0@note_on channel=5 note=86 velocity=100 time=0@note_on channel=6 note=71 velocity=0 time=0@note_on channel=6 note=71 velocity=100 time=0@note_on channel=7 note=78 velocity=0 time=0@note_on channel=7 note=78 velocity=100 time=0@note_on channel=8 note=59 velocity=0 time=0@note_on channel=10 note=47 velocity=0 time=0@note_on channel=10 note=42 velocity=100 time=0@note_on channel=2 note=78 velocity=0 time=0.454545@note_on channel=2 note=79 velocity=100 time=0@note_on channel=3 note=48 velocity=100 time=0@note_on channel=7 note=78 velocity=0 time=0@note_on channel=7 note=79 velocity=100 time=0@note_on channel=8 note=48 velocity=100 time=0@note_on channel=0 note=86 velocity=0 time=0.454545@note_on channel=0 note=84 velocity=100 time=0@control_change channel=0 control=7 value=60 time=0@note_on channel=1 note=71 velocity=0 time=0@note_on channel=1 note=69 velocity=100 time=0@control_change channel=1 control=7 value=60 time=0@note_on channel=2 note=79 velocity=0 time=0@note_on channel=2 note=78 velocity=100 time=0@control_change channel=2 control=7 value=60 time=0@note_on channel=3 note=48 velocity=0 time=0@note_on channel=3 note=54 velocity=100 time=0@control_change channel=3 control=7 value=60 time=0@control_change channel=4 control=7 value=60 time=0@note_on channel=5 note=86 velocity=0 time=0@note_on channel=5 note=84 velocity=100 time=0@control_change channel=5 control=7 value=60 time=0@note_on channel=6 note=71 velocity=0 time=0@note_on channel=6 note=69 velocity=100 time=0@control_change channel=6 control=7 value=60 time=0@note_on channel=7 note=79 velocity=0 time=0@note_on channel=7 note=78 velocity=100 time=0@control_change channel=7 control=7 value=60 time=0@note_on channel=8 note=48 velocity=0 time=0@note_on channel=8 note=54 velocity=100 time=0@control_change channel=8 control=7 value=60 time=0@control_change channel=10 control=7 value=60 time=0@note_on channel=2 note=78 velocity=0 time=0.454545@note_on channel=2 note=76 velocity=100 time=0@note_on channel=3 note=54 velocity=0 time=0@note_on channel=3 note=57 velocity=100 time=0@note_on channel=7 note=78 velocity=0 time=0@note_on channel=7 note=76 velocity=100 time=0@note_on channel=8 note=54 velocity=0 time=0@note_on channel=8 note=57 velocity=100 time=0@note_on channel=0 note=84 velocity=0 time=0.454545@note_on channel=0 note=55 velocity=100 time=0@note_on channel=0 note=83 velocity=100 time=0@note_on channel=1 note=69 velocity=0 time=0@note_on channel=1 note=69 velocity=100 time=0@note_on channel=2 note=76 velocity=0 time=0@note_on channel=2 note=74 velocity=100 time=0@note_on channel=3 note=57 velocity=0 time=0@note_on channel=4 note=42 velocity=0 time=0@note_on channel=4 note=43 velocity=100 time=0@note_on channel=5 note=84 velocity=0 time=0@note_on channel=5 note=55 velocity=100 time=0@note_on channel=5 note=83 velocity=100 time=0@note_on channel=6 note=69 velocity=0 time=0@note_on channel=6 note=69 velocity=100 time=0@note_on channel=7 note=76 velocity=0 time=0@note_on channel=7 note=74 velocity=100 time=0@note_on channel=8 note=57 velocity=0 time=0@note_on channel=10 note=42 velocity=0 time=0@note_on channel=10 note=43 velocity=100 time=0@note_on channel=2 note=74 velocity=0 time=0.454545@note_on channel=2 note=72 velocity=100 time=0@note_on channel=3 note=47 velocity=100 time=0@note_on channel=7 note=74 velocity=0 time=0@note_on channel=7 note=72 velocity=100 time=0@note_on channel=8 note=47 velocity=100 time=0@control_change channel=0 control=7 value=55 time=0.454545@note_on channel=1 note=69 velocity=0 time=0@note_on channel=1 note=71 velocity=100 time=0@control_change channel=1 control=7 value=55 time=0@note_on channel=2 note=72 velocity=0 time=0@note_on channel=2 note=71 velocity=100 time=0@control_change channel=2 control=7 value=55 time=0@note_on channel=3 note=47 velocity=0 time=0@note_on channel=3 note=50 velocity=100 time=0@control_change channel=3 control=7 value=55 time=0@control_change channel=4 control=7 value=55 time=0@control_change channel=5 control=7 value=55 time=0@note_on channel=6 note=69 velocity=0 time=0@note_on channel=6 note=71 velocity=100 time=0@control_change channel=6 control=7 value=55 time=0@note_on channel=7 note=72 velocity=0 time=0@note_on channel=7 note=71 velocity=100 time=0@control_change channel=7 control=7 value=55 time=0@note_on channel=8 note=47 velocity=0 time=0@note_on channel=8 note=50 velocity=100 time=0@control_change channel=8 control=7 value=55 time=0@control_change channel=10 control=7 value=55 time=0@note_on channel=1 note=71 velocity=0 time=0.454545@note_on channel=1 note=73 velocity=100 time=0@note_on channel=2 note=71 velocity=0 time=0@note_on channel=2 note=72 velocity=100 time=0@note_on channel=3 note=50 velocity=0 time=0@note_on channel=3 note=55 velocity=100 time=0@note_on channel=6 note=71 velocity=0 time=0@note_on channel=6 note=73 velocity=100 time=0@note_on channel=7 note=71 velocity=0 time=0@note_on channel=7 note=72 velocity=100 time=0@note_on channel=8 note=50 velocity=0 time=0@note_on channel=8 note=55 velocity=100 time=0@note_on channel=0 note=83 velocity=0 time=0.454545@note_on channel=0 note=55 velocity=0 time=0@note_on channel=0 note=86 velocity=100 time=0@note_on channel=1 note=73 velocity=0 time=0@note_on channel=1 note=67 velocity=100 time=0@note_on channel=2 note=72 velocity=0 time=0@note_on channel=2 note=69 velocity=100 time=0@note_on channel=3 note=55 velocity=0 time=0@note_on channel=4 note=43 velocity=0 time=0@note_on channel=4 note=38 velocity=100 time=0@note_on channel=5 note=83 velocity=0 time=0@note_on channel=5 note=55 velocity=0 time=0@note_on channel=5 note=86 velocity=100 time=0@note_on channel=6 note=73 velocity=0 time=0@note_on channel=6 note=67 velocity=100 time=0@note_on channel=7 note=72 velocity=0 time=0@note_on channel=7 note=69 velocity=100 time=0@note_on channel=8 note=55 velocity=0 time=0@note_on channel=10 note=43 velocity=0 time=0@note_on channel=10 note=38 velocity=100 time=0@note_on channel=3 note=54 velocity=100 time=0.454545@note_on channel=8 note=54 velocity=100 time=0@note_on channel=0 note=86 velocity=0 time=0.454545@note_on channel=0 note=81 velocity=100 time=0@note_on channel=1 note=67 velocity=0 time=0@note_on channel=1 note=66 velocity=100 time=0@note_on channel=2 note=69 velocity=0 time=0@note_on channel=2 note=69 velocity=100 time=0@note_on channel=3 note=54 velocity=0 time=0@note_on channel=3 note=57 velocity=100 time=0@note_on channel=5 note=86 velocity=0 time=0@note_on channel=5 note=81 velocity=100 time=0@note_on channel=6 note=67 velocity=0 time=0@note_on channel=6 note=66 velocity=100 time=0@note_on channel=7 note=69 velocity=0 time=0@note_on channel=7 note=69 velocity=100 time=0@note_on channel=8 note=54 velocity=0 time=0@note_on channel=8 note=57 velocity=100 time=0@note_on channel=2 note=69 velocity=0 time=0.454545@note_on channel=2 note=69 velocity=100 time=0@note_on channel=3 note=57 velocity=0 time=0@note_on channel=3 note=62 velocity=100 time=0@note_on channel=7 note=69 velocity=0 time=0@note_on channel=7 note=69 velocity=100 time=0@note_on channel=8 note=57 velocity=0 time=0@note_on channel=8 note=62 velocity=100 time=0@note_on channel=0 note=81 velocity=0 time=0.454545@note_on channel=0 note=83 velocity=100 time=0@note_on channel=1 note=66 velocity=0 time=0@note_on channel=1 note=66 velocity=100 time=0@note_on channel=2 note=69 velocity=0 time=0@note_on channel=2 note=71 velocity=100 time=0@note_on channel=3 note=62 velocity=0 time=0@note_on channel=4 note=38 velocity=0 time=0@note_on channel=4 note=43 velocity=100 time=0@note_on channel=5 note=81 velocity=0 time=0@note_on channel=5 note=83 velocity=100 time=0@note_on channel=6 note=66 velocity=0 time=0@note_on channel=6 note=66 velocity=100 time=0@note_on channel=7 note=69 velocity=0 time=0@note_on channel=7 note=71 velocity=100 time=0@note_on channel=8 note=62 velocity=0 time=0@note_on channel=10 note=38 velocity=0 time=0@note_on channel=10 note=43 velocity=100 time=0@note_on channel=3 note=52 velocity=100 time=0.454545@note_on channel=8 note=52 velocity=100 time=0@note_on channel=1 note=66 velocity=0 time=0.454545@note_on channel=1 note=66 velocity=100 time=0@note_on channel=2 note=71 velocity=0 time=0@note_on channel=2 note=74 velocity=100 time=0@note_on channel=3 note=52 velocity=0 time=0@note_on channel=3 note=59 velocity=100 time=0@note_on channel=6 note=66 velocity=0 time=0@note_on channel=6 note=66 velocity=100 time=0@note_on channel=7 note=71 velocity=0 time=0@note_on channel=7 note=74 velocity=100 time=0@note_on channel=8 note=52 velocity=0 time=0@note_on channel=8 note=59 velocity=100 time=0@note_on channel=1 note=66 velocity=0 time=0.454545@note_on channel=1 note=64 velocity=100 time=0@note_on channel=3 note=59 velocity=0 time=0@note_on channel=3 note=62 velocity=100 time=0@note_on channel=6 note=66 velocity=0 time=0@note_on channel=6 note=64 velocity=100 time=0@note_on channel=8 note=59 velocity=0 time=0@note_on channel=8 note=62 velocity=100 time=0@note_on channel=0 note=83 velocity=0 time=0.454545@note_on channel=0 note=81 velocity=100 time=0@note_on channel=1 note=64 velocity=0 time=0@note_on channel=1 note=76 velocity=100 time=0@note_on channel=2 note=74 velocity=0 time=0@note_on channel=2 note=73 velocity=100 time=0@note_on channel=3 note=62 velocity=0 time=0@note_on channel=4 note=43 velocity=0 time=0@note_on channel=4 note=45 velocity=100 time=0@note_on channel=5 note=83 velocity=0 time=0@note_on channel=5 note=81 velocity=100 time=0@note_on channel=6 note=64 velocity=0 time=0@note_on channel=6 note=76 velocity=100 time=0@note_on channel=7 note=74 velocity=0 time=0@note_on channel=7 note=73 velocity=100 time=0@note_on channel=8 note=62 velocity=0 time=0@note_on channel=10 note=43 velocity=0 time=0@note_on channel=10 note=45 velocity=100 time=0@note_on channel=3 note=52 velocity=100 time=0.454545@note_on channel=8 note=52 velocity=100 time=0@control_change channel=0 control=7 value=90 time=0.454545@control_change channel=1 control=7 value=90 time=0@note_on channel=2 note=73 velocity=0 time=0@note_on channel=2 note=73 velocity=100 time=0@control_change channel=2 control=7 value=90 time=0@note_on channel=3 note=52 velocity=0 time=0@note_on channel=3 note=57 velocity=100 time=0@control_change channel=3 control=7 value=90 time=0@control_change channel=4 control=7 value=90 time=0@control_change channel=5 control=7 value=90 time=0@control_change channel=6 control=7 value=90 time=0@note_on channel=7 note=73 velocity=0 time=0@note_on channel=7 note=73 velocity=100 time=0@control_change channel=7 control=7 value=90 time=0@note_on channel=8 note=52 velocity=0 time=0@note_on channel=8 note=57 velocity=100 time=0@control_change channel=8 control=7 value=90 time=0@control_change channel=10 control=7 value=90 time=0@note_on channel=2 note=73 velocity=0 time=0.454545@note_on channel=2 note=73 velocity=100 time=0@note_on channel=3 note=57 velocity=0 time=0@note_on channel=3 note=61 velocity=100 time=0@note_on channel=7 note=73 velocity=0 time=0@note_on channel=7 note=73 velocity=100 time=0@note_on channel=8 note=57 velocity=0 time=0@note_on channel=8 note=61 velocity=100 time=0@note_on channel=0 note=81 velocity=0 time=0.454545@note_on channel=0 note=81 velocity=100 time=0@control_change channel=0 control=7 value=100 time=0@note_on channel=1 note=76 velocity=0 time=0@note_on channel=1 note=69 velocity=100 time=0@control_change channel=1 control=7 value=100 time=0@note_on channel=2 note=73 velocity=0 time=0@note_on channel=2 note=74 velocity=100 time=0@control_change channel=2 control=7 value=100 time=0@note_on channel=3 note=61 velocity=0 time=0@control_change channel=3 control=7 value=100 time=0@note_on channel=4 note=45 velocity=0 time=0@note_on channel=4 note=50 velocity=100 time=0@control_change channel=4 control=7 value=100 time=0@note_on channel=5 note=81 velocity=0 time=0@note_on channel=5 note=81 velocity=100 time=0@control_change channel=5 control=7 value=100 time=0@note_on channel=6 note=76 velocity=0 time=0@note_on channel=6 note=69 velocity=100 time=0@control_change channel=6 control=7 value=100 time=0@note_on channel=7 note=73 velocity=0 time=0@note_on channel=7 note=74 velocity=100 time=0@control_change channel=7 control=7 value=100 time=0@note_on channel=8 note=61 velocity=0 time=0@control_change channel=8 control=7 value=100 time=0@note_on channel=10 note=45 velocity=0 time=0@note_on channel=10 note=50 velocity=100 time=0@control_change channel=10 control=7 value=100 time=0@note_on channel=3 note=57 velocity=100 time=0.454545@note_on channel=8 note=57 velocity=100 time=0@note_on channel=1 note=69 velocity=0 time=0.454545@note_on channel=1 note=78 velocity=100 time=0@note_on channel=2 note=74 velocity=0 time=0@note_on channel=2 note=74 velocity=100 time=0@note_on channel=3 note=57 velocity=0 time=0@note_on channel=3 note=62 velocity=100 time=0@note_on channel=6 note=69 velocity=0 time=0@note_on channel=6 note=78 velocity=100 time=0@note_on channel=7 note=74 velocity=0 time=0@note_on channel=7 note=74 velocity=100 time=0@note_on channel=8 note=57 velocity=0 time=0@note_on channel=8 note=62 velocity=100 time=0@note_on channel=3 note=62 velocity=0 time=0.454545@note_on channel=3 note=66 velocity=100 time=0@note_on channel=8 note=62 velocity=0 time=0@note_on channel=8 note=66 velocity=100 time=0@note_on channel=0 note=81 velocity=0 time=0.454545@note_on channel=0 note=69 velocity=100 time=0@note_on channel=3 note=66 velocity=0 time=0@note_on channel=4 note=50 velocity=0 time=0@note_on channel=4 note=45 velocity=100 time=0@note_on channel=5 note=81 velocity=0 time=0@note_on channel=5 note=69 velocity=100 time=0@note_on channel=8 note=66 velocity=0 time=0@note_on channel=10 note=50 velocity=0 time=0@note_on channel=10 note=45 velocity=100 time=0@note_on channel=3 note=52 velocity=100 time=0.454545@note_on channel=8 note=52 velocity=100 time=0@note_on channel=0 note=69 velocity=0 time=0.454545@note_on channel=0 note=69 velocity=100 time=0@note_on channel=1 note=78 velocity=0 time=0@note_on channel=1 note=76 velocity=100 time=0@note_on channel=2 note=74 velocity=0 time=0@note_on channel=2 note=73 velocity=100 time=0@note_on channel=3 note=52 velocity=0 time=0@note_on channel=3 note=57 velocity=100 time=0@note_on channel=5 note=69 velocity=0 time=0@note_on channel=5 note=69 velocity=100 time=0@note_on channel=6 note=78 velocity=0 time=0@note_on channel=6 note=76 velocity=100 time=0@note_on channel=7 note=74 velocity=0 time=0@note_on channel=7 note=73 velocity=100 time=0@note_on channel=8 note=52 velocity=0 time=0@note_on channel=8 note=57 velocity=100 time=0@note_on channel=0 note=69 velocity=0 time=0.454545@note_on channel=0 note=67 velocity=100 time=0@note_on channel=3 note=57 velocity=0 time=0@note_on channel=3 note=61 velocity=100 time=0@note_on channel=5 note=69 velocity=0 time=0@note_on channel=5 note=67 velocity=100 time=0@note_on channel=8 note=57 velocity=0 time=0@note_on channel=8 note=61 velocity=100 time=0@note_on channel=0 note=67 velocity=0 time=0.454545@note_on channel=0 note=74 velocity=100 time=0@note_on channel=0 note=66 velocity=100 time=0@note_on channel=1 note=76 velocity=0 time=0@note_on channel=1 note=59 velocity=100 time=0@note_on channel=2 note=73 velocity=0 time=0@note_on channel=2 note=73 velocity=100 time=0@note_on channel=3 note=61 velocity=0 time=0@note_on channel=4 note=45 velocity=0 time=0@note_on channel=4 note=47 velocity=100 time=0@note_on channel=5 note=67 velocity=0 time=0@note_on channel=5 note=74 velocity=100 time=0@note_on channel=5 note=66 velocity=100 time=0@note_on channel=6 note=76 velocity=0 time=0@note_on channel=6 note=59 velocity=100 time=0@note_on channel=7 note=73 velocity=0 time=0@note_on channel=7 note=73 velocity=100 time=0@note_on channel=8 note=61 velocity=0 time=0@note_on channel=10 note=45 velocity=0 time=0@note_on channel=10 note=47 velocity=100 time=0@note_on channel=3 note=50 velocity=100 time=0.454545@note_on channel=8 note=50 velocity=100 time=0@note_on channel=0 note=66 velocity=0 time=0.454545@note_on channel=0 note=74 velocity=0 time=0@note_on channel=1 note=86 velocity=100 time=0@note_on channel=2 note=73 velocity=0 time=0@note_on channel=2 note=71 velocity=100 time=0@note_on channel=3 note=50 velocity=0 time=0@note_on channel=3 note=54 velocity=100 time=0@note_on channel=5 note=66 velocity=0 time=0@note_on channel=5 note=74 velocity=0 time=0@note_on channel=6 note=86 velocity=100 time=0@note_on channel=7 note=73 velocity=0 time=0@note_on channel=7 note=71 velocity=100 time=0@note_on channel=8 note=50 velocity=0 time=0@note_on channel=8 note=54 velocity=100 time=0@note_on channel=2 note=71 velocity=0 time=0.454545@note_on channel=2 note=71 velocity=100 time=0@note_on channel=3 note=54 velocity=0 time=0@note_on channel=3 note=59 velocity=100 time=0@note_on channel=7 note=71 velocity=0 time=0@note_on channel=7 note=71 velocity=100 time=0@note_on channel=8 note=54 velocity=0 time=0@note_on channel=8 note=59 velocity=100 time=0@note_on channel=0 note=78 velocity=100 time=0.454545@note_on channel=1 note=86 velocity=0 time=0@note_on channel=1 note=59 velocity=0 time=0@note_on channel=1 note=86 velocity=100 time=0@note_on channel=2 note=71 velocity=0 time=0@note_on channel=2 note=71 velocity=100 time=0@note_on channel=3 note=59 velocity=0 time=0@note_on channel=4 note=47 velocity=0 time=0@note_on channel=4 note=42 velocity=100 time=0@note_on channel=5 note=78 velocity=100 time=0@note_on channel=6 note=86 velocity=0 time=0@note_on channel=6 note=59 velocity=0 time=0@note_on channel=6 note=86 velocity=100 time=0@note_on channel=7 note=71 velocity=0 time=0@note_on channel=7 note=71 velocity=100 time=0@note_on channel=8 note=59 velocity=0 time=0@note_on channel=10 note=47 velocity=0 time=0@note_on channel=10 note=42 velocity=100 time=0@note_on channel=3 note=48 velocity=100 time=0.454545@note_on channel=8 note=48 velocity=100 time=0@note_on channel=0 note=78 velocity=0 time=0.454545@note_on channel=0 note=78 velocity=100 time=0@note_on channel=1 note=86 velocity=0 time=0@note_on channel=1 note=84 velocity=100 time=0@note_on channel=2 note=71 velocity=0 time=0@note_on channel=2 note=69 velocity=100 time=0@note_on channel=3 note=48 velocity=0 time=0@note_on channel=3 note=54 velocity=100 time=0@note_on channel=5 note=78 velocity=0 time=0@note_on channel=5 note=78 velocity=100 time=0@note_on channel=6 note=86 velocity=0 time=0@note_on channel=6 note=84 velocity=100 time=0@note_on channel=7 note=71 velocity=0 time=0@note_on channel=7 note=69 velocity=100 time=0@note_on channel=8 note=48 velocity=0 time=0@note_on channel=8 note=54 velocity=100 time=0@note_on channel=0 note=78 velocity=0 time=0.454545@note_on channel=0 note=76 velocity=100 time=0@note_on channel=1 note=84 velocity=0 time=0@note_on channel=1 note=84 velocity=100 time=0@note_on channel=3 note=54 velocity=0 time=0@note_on channel=3 note=57 velocity=100 time=0@note_on channel=5 note=78 velocity=0 time=0@note_on channel=5 note=76 velocity=100 time=0@note_on channel=6 note=84 velocity=0 time=0@note_on channel=6 note=84 velocity=100 time=0@note_on channel=8 note=54 velocity=0 time=0@note_on channel=8 note=57 velocity=100 time=0@note_on channel=0 note=76 velocity=0 time=0.454545@note_on channel=0 note=74 velocity=100 time=0@note_on channel=1 note=84 velocity=0 time=0@note_on channel=1 note=55 velocity=100 time=0@note_on channel=1 note=83 velocity=100 time=0@note_on channel=2 note=69 velocity=0 time=0@note_on channel=2 note=69 velocity=100 time=0@note_on channel=3 note=57 velocity=0 time=0@note_on channel=4 note=42 velocity=0 time=0@note_on channel=4 note=43 velocity=100 time=0@note_on channel=5 note=76 velocity=0 time=0@note_on channel=5 note=74 velocity=100 time=0@note_on channel=6 note=84 velocity=0 time=0@note_on channel=6 note=55 velocity=100 time=0@note_on channel=6 note=83 velocity=100 time=0@note_on channel=7 note=69 velocity=0 time=0@note_on channel=7 note=69 velocity=100 time=0@note_on channel=8 note=57 velocity=0 time=0@note_on channel=10 note=42 velocity=0 time=0@note_on channel=10 note=43 velocity=100 time=0@note_on channel=3 note=47 velocity=100 time=0.454545@note_on channel=8 note=47 velocity=100 time=0@note_on channel=2 note=69 velocity=0 time=0.454545@note_on channel=2 note=67 velocity=100 time=0@note_on channel=3 note=47 velocity=0 time=0@note_on channel=3 note=50 velocity=100 time=0@note_on channel=7 note=69 velocity=0 time=0@note_on channel=7 note=67 velocity=100 time=0@note_on channel=8 note=47 velocity=0 time=0@note_on channel=8 note=50 velocity=100 time=0@note_on channel=2 note=67 velocity=0 time=0.454545@note_on channel=2 note=67 velocity=100 time=0@note_on channel=3 note=50 velocity=0 time=0@note_on channel=3 note=55 velocity=100 time=0@note_on channel=7 note=67 velocity=0 time=0@note_on channel=7 note=67 velocity=100 time=0@note_on channel=8 note=50 velocity=0 time=0@note_on channel=8 note=55 velocity=100 time=0@note_on channel=0 note=74 velocity=0 time=0.454545@note_on channel=0 note=74 velocity=100 time=0@note_on channel=1 note=83 velocity=0 time=0@note_on channel=1 note=55 velocity=0 time=0@note_on channel=1 note=86 velocity=100 time=0@note_on channel=3 note=55 velocity=0 time=0@note_on channel=4 note=43 velocity=0 time=0@note_on channel=4 note=38 velocity=100 time=0@note_on channel=5 note=74 velocity=0 time=0@note_on channel=5 note=74 velocity=100 time=0@note_on channel=6 note=83 velocity=0 time=0@note_on channel=6 note=55 velocity=0 time=0@note_on channel=6 note=86 velocity=100 time=0@note_on channel=8 note=55 velocity=0 time=0@note_on channel=10 note=43 velocity=0 time=0@note_on channel=10 note=38 velocity=100 time=0@note_on channel=3 note=54 velocity=100 time=0.454545@note_on channel=8 note=54 velocity=100 time=0@note_on channel=0 note=74 velocity=0 time=0.454545@note_on channel=0 note=74 velocity=100 time=0@note_on channel=1 note=86 velocity=0 time=0@note_on channel=1 note=81 velocity=100 time=0@note_on channel=2 note=67 velocity=0 time=0@note_on channel=2 note=66 velocity=100 time=0@note_on channel=3 note=54 velocity=0 time=0@note_on channel=3 note=57 velocity=100 time=0@note_on channel=5 note=74 velocity=0 time=0@note_on channel=5 note=74 velocity=100 time=0@note_on channel=6 note=86 velocity=0 time=0@note_on channel=6 note=81 velocity=100 time=0@note_on channel=7 note=67 velocity=0 time=0@note_on channel=7 note=66 velocity=100 time=0@note_on channel=8 note=54 velocity=0 time=0@note_on channel=8 note=57 velocity=100 time=0@note_on channel=3 note=57 velocity=0 time=0.454545@note_on channel=3 note=62 velocity=100 time=0@note_on channel=8 note=57 velocity=0 time=0@note_on channel=8 note=62 velocity=100 time=0@note_on channel=0 note=74 velocity=0 time=0.454545@note_on channel=0 note=74 velocity=100 time=0@note_on channel=1 note=81 velocity=0 time=0@note_on channel=1 note=83 velocity=100 time=0@note_on channel=2 note=66 velocity=0 time=0@note_on channel=2 note=66 velocity=100 time=0@note_on channel=3 note=62 velocity=0 time=0@note_on channel=4 note=38 velocity=0 time=0@note_on channel=4 note=43 velocity=100 time=0@note_on channel=5 note=74 velocity=0 time=0@note_on channel=5 note=74 velocity=100 time=0@note_on channel=6 note=81 velocity=0 time=0@note_on channel=6 note=83 velocity=100 time=0@note_on channel=7 note=66 velocity=0 time=0@note_on channel=7 note=66 velocity=100 time=0@note_on channel=8 note=62 velocity=0 time=0@note_on channel=10 note=38 velocity=0 time=0@note_on channel=10 note=43 velocity=100 time=0@note_on channel=3 note=52 velocity=100 time=0.454545@note_on channel=8 note=52 velocity=100 time=0@note_on channel=2 note=66 velocity=0 time=0.454545@note_on channel=2 note=66 velocity=100 time=0@note_on channel=3 note=52 velocity=0 time=0@note_on channel=3 note=59 velocity=100 time=0@note_on channel=7 note=66 velocity=0 time=0@note_on channel=7 note=66 velocity=100 time=0@note_on channel=8 note=52 velocity=0 time=0@note_on channel=8 note=59 velocity=100 time=0@note_on channel=2 note=66 velocity=0 time=0.454545@note_on channel=2 note=64 velocity=100 time=0@note_on channel=3 note=59 velocity=0 time=0@note_on channel=3 note=62 velocity=100 time=0@note_on channel=7 note=66 velocity=0 time=0@note_on channel=7 note=64 velocity=100 time=0@note_on channel=8 note=59 velocity=0 time=0@note_on channel=8 note=62 velocity=100 time=0@note_on channel=0 note=74 velocity=0 time=0.454545@note_on channel=0 note=73 velocity=100 time=0@note_on channel=1 note=83 velocity=0 time=0@note_on channel=1 note=81 velocity=100 time=0@note_on channel=2 note=64 velocity=0 time=0@note_on channel=2 note=76 velocity=100 time=0@note_on channel=3 note=62 velocity=0 time=0@note_on channel=4 note=43 velocity=0 time=0@note_on channel=4 note=45 velocity=100 time=0@note_on channel=5 note=74 velocity=0 time=0@note_on channel=5 note=73 velocity=100 time=0@note_on channel=6 note=83 velocity=0 time=0@note_on channel=6 note=81 velocity=100 time=0@note_on channel=7 note=64 velocity=0 time=0@note_on channel=7 note=76 velocity=100 time=0@note_on channel=8 note=62 velocity=0 time=0@note_on channel=10 note=43 velocity=0 time=0@note_on channel=10 note=45 velocity=100 time=0@note_on channel=3 note=52 velocity=100 time=0.454545@note_on channel=8 note=52 velocity=100 time=0@note_on channel=3 note=52 velocity=0 time=0.454545@note_on channel=3 note=57 velocity=100 time=0@note_on channel=8 note=52 velocity=0 time=0@note_on channel=8 note=57 velocity=100 time=0@note_on channel=3 note=57 velocity=0 time=0.454545@note_on channel=3 note=61 velocity=100 time=0@note_on channel=8 note=57 velocity=0 time=0@note_on channel=8 note=61 velocity=100 time=0@note_on channel=0 note=73 velocity=0 time=0.454545@note_on channel=0 note=74 velocity=100 time=0@note_on channel=1 note=81 velocity=0 time=0@note_on channel=1 note=81 velocity=100 time=0@note_on channel=2 note=76 velocity=0 time=0@note_on channel=2 note=62 velocity=100 time=0@note_on channel=3 note=61 velocity=0 time=0@note_on channel=4 note=45 velocity=0 time=0@note_on channel=4 note=50 velocity=100 time=0@note_on channel=5 note=73 velocity=0 time=0@note_on channel=5 note=74 velocity=100 time=0@note_on channel=6 note=81 velocity=0 time=0@note_on channel=6 note=81 velocity=100 time=0@note_on channel=7 note=76 velocity=0 time=0@note_on channel=7 note=62 velocity=100 time=0@note_on channel=8 note=61 velocity=0 time=0@note_on channel=10 note=45 velocity=0 time=0@note_on channel=10 note=50 velocity=100 time=0@note_on channel=3 note=57 velocity=100 time=0.454545@note_on channel=8 note=57 velocity=100 time=0@note_on channel=0 note=74 velocity=0 time=0.454545@note_on channel=0 note=62 velocity=100 time=0@note_on channel=2 note=62 velocity=0 time=0@note_on channel=2 note=78 velocity=100 time=0@note_on channel=3 note=57 velocity=0 time=0@note_on channel=3 note=62 velocity=100 time=0@note_on channel=5 note=74 velocity=0 time=0@note_on channel=5 note=62 velocity=100 time=0@note_on channel=7 note=62 velocity=0 time=0@note_on channel=7 note=78 velocity=100 time=0@note_on channel=8 note=57 velocity=0 time=0@note_on channel=8 note=62 velocity=100 time=0@note_on channel=3 note=62 velocity=0 time=0.454545@note_on channel=3 note=66 velocity=100 time=0@note_on channel=8 note=62 velocity=0 time=0@note_on channel=8 note=66 velocity=100 time=0@note_on channel=0 note=62 velocity=0 time=0.454545@note_on channel=0 note=61 velocity=100 time=0@note_on channel=1 note=81 velocity=0 time=0@note_on channel=1 note=69 velocity=100 time=0@note_on channel=3 note=66 velocity=0 time=0@note_on channel=4 note=50 velocity=0 time=0@note_on channel=4 note=45 velocity=100 time=0@note_on channel=5 note=62 velocity=0 time=0@note_on channel=5 note=61 velocity=100 time=0@note_on channel=6 note=81 velocity=0 time=0@note_on channel=6 note=69 velocity=100 time=0@note_on channel=8 note=66 velocity=0 time=0@note_on channel=10 note=50 velocity=0 time=0@note_on channel=10 note=45 velocity=100 time=0@note_on channel=3 note=52 velocity=100 time=0.454545@note_on channel=8 note=52 velocity=100 time=0@note_on channel=0 note=61 velocity=0 time=0.454545@note_on channel=0 note=73 velocity=100 time=0@note_on channel=1 note=69 velocity=0 time=0@note_on channel=1 note=69 velocity=100 time=0@note_on channel=2 note=78 velocity=0 time=0@note_on channel=2 note=76 velocity=100 time=0@note_on channel=3 note=52 velocity=0 time=0@note_on channel=3 note=57 velocity=100 time=0@note_on channel=5 note=61 velocity=0 time=0@note_on channel=5 note=73 velocity=100 time=0@note_on channel=6 note=69 velocity=0 time=0@note_on channel=6 note=69 velocity=100 time=0@note_on channel=7 note=78 velocity=0 time=0@note_on channel=7 note=76 velocity=100 time=0@note_on channel=8 note=52 velocity=0 time=0@note_on channel=8 note=57 velocity=100 time=0@note_on channel=1 note=69 velocity=0 time=0.454545@note_on channel=1 note=67 velocity=100 time=0@note_on channel=3 note=57 velocity=0 time=0@note_on channel=3 note=61 velocity=100 time=0@note_on channel=6 note=69 velocity=0 time=0@note_on channel=6 note=67 velocity=100 time=0@note_on channel=8 note=57 velocity=0 time=0@note_on channel=8 note=61 velocity=100 time=0@note_on channel=0 note=73 velocity=0 time=0.454545@note_on channel=0 note=71 velocity=100 time=0@note_on channel=1 note=67 velocity=0 time=0@note_on channel=1 note=74 velocity=100 time=0@note_on channel=1 note=66 velocity=100 time=0@note_on channel=2 note=76 velocity=0 time=0@note_on channel=2 note=59 velocity=100 time=0@note_on channel=3 note=61 velocity=0 time=0@note_on channel=4 note=45 velocity=0 time=0@note_on channel=4 note=47 velocity=100 time=0@note_on channel=5 note=73 velocity=0 time=0@note_on channel=5 note=71 velocity=100 time=0@note_on channel=6 note=67 velocity=0 time=0@note_on channel=6 note=74 velocity=100 time=0@note_on channel=6 note=66 velocity=100 time=0@note_on channel=7 note=76 velocity=0 time=0@note_on channel=7 note=59 velocity=100 time=0@note_on channel=8 note=61 velocity=0 time=0@note_on channel=10 note=45 velocity=0 time=0@note_on channel=10 note=47 velocity=100 time=0@note_on channel=3 note=50 velocity=100 time=0.454545@note_on channel=8 note=50 velocity=100 time=0@note_on channel=0 note=71 velocity=0 time=0.454545@note_on channel=0 note=59 velocity=100 time=0@note_on channel=1 note=66 velocity=0 time=0@note_on channel=1 note=74 velocity=0 time=0@note_on channel=1 note=66 velocity=100 time=0@note_on channel=2 note=86 velocity=100 time=0@note_on channel=3 note=50 velocity=0 time=0@note_on channel=3 note=54 velocity=100 time=0@note_on channel=5 note=71 velocity=0 time=0@note_on channel=5 note=59 velocity=100 time=0@note_on channel=6 note=66 velocity=0 time=0@note_on channel=6 note=74 velocity=0 time=0@note_on channel=6 note=66 velocity=100 time=0@note_on channel=7 note=86 velocity=100 time=0@note_on channel=8 note=50 velocity=0 time=0@note_on channel=8 note=54 velocity=100 time=0@note_on channel=3 note=54 velocity=0 time=0.454545@note_on channel=3 note=59 velocity=100 time=0@note_on channel=8 note=54 velocity=0 time=0@note_on channel=8 note=59 velocity=100 time=0@note_on channel=0 note=59 velocity=0 time=0.454545@note_on channel=0 note=57 velocity=100 time=0@note_on channel=1 note=66 velocity=0 time=0@note_on channel=1 note=78 velocity=100 time=0@note_on channel=2 note=86 velocity=0 time=0@note_on channel=2 note=59 velocity=0 time=0@note_on channel=2 note=86 velocity=100 time=0@note_on channel=3 note=59 velocity=0 time=0@note_on channel=4 note=47 velocity=0 time=0@note_on channel=4 note=42 velocity=100 time=0@note_on channel=5 note=59 velocity=0 time=0@note_on channel=5 note=57 velocity=100 time=0@note_on channel=6 note=66 velocity=0 time=0@note_on channel=6 note=78 velocity=100 time=0@note_on channel=7 note=86 velocity=0 time=0@note_on channel=7 note=59 velocity=0 time=0@note_on channel=7 note=86 velocity=100 time=0@note_on channel=8 note=59 velocity=0 time=0@note_on channel=10 note=47 velocity=0 time=0@note_on channel=10 note=42 velocity=100 time=0@note_on channel=3 note=48 velocity=100 time=0.454545@note_on channel=8 note=48 velocity=100 time=0@note_on channel=0 note=57 velocity=0 time=0.454545@note_on channel=0 note=69 velocity=100 time=0@note_on channel=1 note=78 velocity=0 time=0@note_on channel=1 note=78 velocity=100 time=0@note_on channel=2 note=86 velocity=0 time=0@note_on channel=2 note=84 velocity=100 time=0@note_on channel=3 note=48 velocity=0 time=0@note_on channel=3 note=54 velocity=100 time=0@note_on channel=5 note=57 velocity=0 time=0@note_on channel=5 note=69 velocity=100 time=0@note_on channel=6 note=78 velocity=0 time=0@note_on channel=6 note=78 velocity=100 time=0@note_on channel=7 note=86 velocity=0 time=0@note_on channel=7 note=84 velocity=100 time=0@note_on channel=8 note=48 velocity=0 time=0@note_on channel=8 note=54 velocity=100 time=0@note_on channel=1 note=78 velocity=0 time=0.454545@note_on channel=1 note=76 velocity=100 time=0@note_on channel=2 note=84 velocity=0 time=0@note_on channel=2 note=84 velocity=100 time=0@note_on channel=3 note=54 velocity=0 time=0@note_on channel=3 note=57 velocity=100 time=0@note_on channel=6 note=78 velocity=0 time=0@note_on channel=6 note=76 velocity=100 time=0@note_on channel=7 note=84 velocity=0 time=0@note_on channel=7 note=84 velocity=100 time=0@note_on channel=8 note=54 velocity=0 time=0@note_on channel=8 note=57 velocity=100 time=0@note_on channel=0 note=69 velocity=0 time=0.454545@note_on channel=0 note=67 velocity=100 time=0@note_on channel=1 note=76 velocity=0 time=0@note_on channel=1 note=74 velocity=100 time=0@note_on channel=2 note=84 velocity=0 time=0@note_on channel=2 note=55 velocity=100 time=0@note_on channel=2 note=83 velocity=100 time=0@note_on channel=3 note=57 velocity=0 time=0@note_on channel=4 note=42 velocity=0 time=0@note_on channel=4 note=43 velocity=100 time=0@note_on channel=5 note=69 velocity=0 time=0@note_on channel=5 note=67 velocity=100 time=0@note_on channel=6 note=76 velocity=0 time=0@note_on channel=6 note=74 velocity=100 time=0@note_on channel=7 note=84 velocity=0 time=0@note_on channel=7 note=55 velocity=100 time=0@note_on channel=7 note=83 velocity=100 time=0@note_on channel=8 note=57 velocity=0 time=0@note_on channel=10 note=42 velocity=0 time=0@note_on channel=10 note=43 velocity=100 time=0@note_on channel=3 note=47 velocity=100 time=0.454545@note_on channel=8 note=47 velocity=100 time=0@note_on channel=0 note=67 velocity=0 time=0.454545@note_on channel=0 note=79 velocity=100 time=0@note_on channel=3 note=47 velocity=0 time=0@note_on channel=3 note=50 velocity=100 time=0@note_on channel=5 note=67 velocity=0 time=0@note_on channel=5 note=79 velocity=100 time=0@note_on channel=8 note=47 velocity=0 time=0@note_on channel=8 note=50 velocity=100 time=0@note_on channel=3 note=50 velocity=0 time=0.454545@note_on channel=3 note=55 velocity=100 time=0@note_on channel=8 note=50 velocity=0 time=0@note_on channel=8 note=55 velocity=100 time=0@note_on channel=0 note=79 velocity=0 time=0.454545@note_on channel=0 note=78 velocity=100 time=0@note_on channel=1 note=74 velocity=0 time=0@note_on channel=1 note=74 velocity=100 time=0@note_on channel=2 note=83 velocity=0 time=0@note_on channel=2 note=55 velocity=0 time=0@note_on channel=2 note=86 velocity=100 time=0@note_on channel=3 note=55 velocity=0 time=0@note_on channel=4 note=43 velocity=0 time=0@note_on channel=4 note=38 velocity=100 time=0@note_on channel=5 note=79 velocity=0 time=0@note_on channel=5 note=78 velocity=100 time=0@note_on channel=6 note=74 velocity=0 time=0@note_on channel=6 note=74 velocity=100 time=0@note_on channel=7 note=83 velocity=0 time=0@note_on channel=7 note=55 velocity=0 time=0@note_on channel=7 note=86 velocity=100 time=0@note_on channel=8 note=55 velocity=0 time=0@note_on channel=10 note=43 velocity=0 time=0@note_on channel=10 note=38 velocity=100 time=0@note_on channel=3 note=54 velocity=100 time=0.454545@note_on channel=8 note=54 velocity=100 time=0@note_on channel=0 note=78 velocity=0 time=0.454545@note_on channel=0 note=66 velocity=100 time=0@note_on channel=1 note=74 velocity=0 time=0@note_on channel=1 note=74 velocity=100 time=0@note_on channel=2 note=86 velocity=0 time=0@note_on channel=2 note=81 velocity=100 time=0@note_on channel=3 note=54 velocity=0 time=0@note_on channel=3 note=57 velocity=100 time=0@note_on channel=5 note=78 velocity=0 time=0@note_on channel=5 note=66 velocity=100 time=0@note_on channel=6 note=74 velocity=0 time=0@note_on channel=6 note=74 velocity=100 time=0@note_on channel=7 note=86 velocity=0 time=0@note_on channel=7 note=81 velocity=100 time=0@note_on channel=8 note=54 velocity=0 time=0@note_on channel=8 note=57 velocity=100 time=0@note_on channel=3 note=57 velocity=0 time=0.454545@note_on channel=3 note=62 velocity=100 time=0@note_on channel=8 note=57 velocity=0 time=0@note_on channel=8 note=62 velocity=100 time=0@note_on channel=0 note=66 velocity=0 time=0.454545@note_on channel=0 note=64 velocity=100 time=0@note_on channel=1 note=74 velocity=0 time=0@note_on channel=1 note=74 velocity=100 time=0@note_on channel=2 note=81 velocity=0 time=0@note_on channel=2 note=83 velocity=100 time=0@note_on channel=3 note=62 velocity=0 time=0@note_on channel=4 note=38 velocity=0 time=0@note_on channel=4 note=43 velocity=100 time=0@note_on channel=5 note=66 velocity=0 time=0@note_on channel=5 note=64 velocity=100 time=0@note_on channel=6 note=74 velocity=0 time=0@note_on channel=6 note=74 velocity=100 time=0@note_on channel=7 note=81 velocity=0 time=0@note_on channel=7 note=83 velocity=100 time=0@note_on channel=8 note=62 velocity=0 time=0@note_on channel=10 note=38 velocity=0 time=0@note_on channel=10 note=43 velocity=100 time=0@note_on channel=3 note=52 velocity=100 time=0.454545@note_on channel=8 note=52 velocity=100 time=0@note_on channel=0 note=64 velocity=0 time=0.454545@note_on channel=0 note=71 velocity=100 time=0@control_change channel=0 control=7 value=105 time=0@control_change channel=1 control=7 value=105 time=0@control_change channel=2 control=7 value=105 time=0@note_on channel=3 note=52 velocity=0 time=0@note_on channel=3 note=59 velocity=100 time=0@control_change channel=3 control=7 value=105 time=0@control_change channel=4 control=7 value=105 time=0@note_on channel=5 note=64 velocity=0 time=0@note_on channel=5 note=71 velocity=100 time=0@control_change channel=5 control=7 value=105 time=0@control_change channel=6 control=7 value=105 time=0@control_change channel=7 control=7 value=105 time=0@note_on channel=8 note=52 velocity=0 time=0@note_on channel=8 note=59 velocity=100 time=0@control_change channel=8 control=7 value=105 time=0@control_change channel=10 control=7 value=105 time=0@note_on channel=3 note=59 velocity=0 time=0.454545@note_on channel=3 note=62 velocity=100 time=0@note_on channel=8 note=59 velocity=0 time=0@note_on channel=8 note=62 velocity=100 time=0@note_on channel=0 note=71 velocity=0 time=0.454545@control_change channel=0 control=7 value=110 time=0@note_on channel=1 note=74 velocity=0 time=0@note_on channel=1 note=73 velocity=100 time=0@control_change channel=1 control=7 value=110 time=0@note_on channel=2 note=83 velocity=0 time=0@note_on channel=2 note=57 velocity=100 time=0@note_on channel=2 note=81 velocity=100 time=0@control_change channel=2 control=7 value=110 time=0@note_on channel=3 note=62 velocity=0 time=0@control_change channel=3 control=7 value=110 time=0@note_on channel=4 note=43 velocity=0 time=0@note_on channel=4 note=45 velocity=100 time=0@control_change channel=4 control=7 value=110 time=0@note_on channel=5 note=71 velocity=0 time=0@control_change channel=5 control=7 value=110 time=0@note_on channel=6 note=74 velocity=0 time=0@note_on channel=6 note=73 velocity=100 time=0@control_change channel=6 control=7 value=110 time=0@note_on channel=7 note=83 velocity=0 time=0@note_on channel=7 note=57 velocity=100 time=0@note_on channel=7 note=81 velocity=100 time=0@control_change channel=7 control=7 value=110 time=0@note_on channel=8 note=62 velocity=0 time=0@control_change channel=8 control=7 value=110 time=0@note_on channel=10 note=43 velocity=0 time=0@note_on channel=10 note=45 velocity=100 time=0@control_change channel=10 control=7 value=110 time=0@note_on channel=3 note=52 velocity=100 time=0.454545@note_on channel=8 note=52 velocity=100 time=0@note_on channel=0 note=76 velocity=100 time=0.454545@control_change channel=0 control=7 value=115 time=0@control_change channel=1 control=7 value=115 time=0@control_change channel=2 control=7 value=115 time=0@note_on channel=3 note=52 velocity=0 time=0@note_on channel=3 note=57 velocity=100 time=0@control_change channel=3 control=7 value=115 time=0@control_change channel=4 control=7 value=115 time=0@note_on channel=5 note=76 velocity=100 time=0@control_change channel=5 control=7 value=115 time=0@control_change channel=6 control=7 value=115 time=0@control_change channel=7 control=7 value=115 time=0@note_on channel=8 note=52 velocity=0 time=0@note_on channel=8 note=57 velocity=100 time=0@control_change channel=8 control=7 value=115 time=0@control_change channel=10 control=7 value=115 time=0@note_on channel=3 note=57 velocity=0 time=0.454545@note_on channel=3 note=61 velocity=100 time=0@note_on channel=8 note=57 velocity=0 time=0@note_on channel=8 note=61 velocity=100 time=0@note_on channel=0 note=76 velocity=0 time=0.454545@note_on channel=0 note=78 velocity=100 time=0@control_change channel=0 control=7 value=120 time=0@note_on channel=1 note=73 velocity=0 time=0@note_on channel=1 note=74 velocity=100 time=0@control_change channel=1 control=7 value=120 time=0@note_on channel=2 note=81 velocity=0 time=0@note_on channel=2 note=57 velocity=0 time=0@note_on channel=2 note=81 velocity=100 time=0@control_change channel=2 control=7 value=120 time=0@note_on channel=3 note=61 velocity=0 time=0@control_change channel=3 control=7 value=120 time=0@note_on channel=4 note=45 velocity=0 time=0@note_on channel=4 note=50 velocity=100 time=0@control_change channel=4 control=7 value=120 time=0@note_on channel=5 note=76 velocity=0 time=0@note_on channel=5 note=78 velocity=100 time=0@control_change channel=5 control=7 value=120 time=0@note_on channel=6 note=73 velocity=0 time=0@note_on channel=6 note=74 velocity=100 time=0@control_change channel=6 control=7 value=120 time=0@note_on channel=7 note=81 velocity=0 time=0@note_on channel=7 note=57 velocity=0 time=0@note_on channel=7 note=81 velocity=100 time=0@control_change channel=7 control=7 value=120 time=0@note_on channel=8 note=61 velocity=0 time=0@control_change channel=8 control=7 value=120 time=0@note_on channel=10 note=45 velocity=0 time=0@note_on channel=10 note=50 velocity=100 time=0@control_change channel=10 control=7 value=120 time=0@note_on channel=3 note=57 velocity=100 time=0.454545@note_on channel=8 note=57 velocity=100 time=0@note_on channel=0 note=78 velocity=0 time=0.454545@note_on channel=0 note=66 velocity=100 time=0@note_on channel=1 note=74 velocity=0 time=0@note_on channel=1 note=62 velocity=100 time=0@note_on channel=3 note=57 velocity=0 time=0@note_on channel=3 note=62 velocity=100 time=0@note_on channel=5 note=78 velocity=0 time=0@note_on channel=5 note=66 velocity=100 time=0@note_on channel=6 note=74 velocity=0 time=0@note_on channel=6 note=62 velocity=100 time=0@note_on channel=8 note=57 velocity=0 time=0@note_on channel=8 note=62 velocity=100 time=0@note_on channel=3 note=62 velocity=0 time=0.454545@note_on channel=3 note=66 velocity=100 time=0@note_on channel=8 note=62 velocity=0 time=0@note_on channel=8 note=66 velocity=100 time=0@note_on channel=0 note=66 velocity=0 time=0.454545@note_on channel=0 note=64 velocity=100 time=0@note_on channel=1 note=62 velocity=0 time=0@note_on channel=1 note=61 velocity=100 time=0@note_on channel=2 note=81 velocity=0 time=0@note_on channel=2 note=69 velocity=100 time=0@note_on channel=3 note=66 velocity=0 time=0@note_on channel=4 note=50 velocity=0 time=0@note_on channel=4 note=45 velocity=100 time=0@note_on channel=5 note=66 velocity=0 time=0@note_on channel=5 note=64 velocity=100 time=0@note_on channel=6 note=62 velocity=0 time=0@note_on channel=6 note=61 velocity=100 time=0@note_on channel=7 note=81 velocity=0 time=0@note_on channel=7 note=69 velocity=100 time=0@note_on channel=8 note=66 velocity=0 time=0@note_on channel=10 note=50 velocity=0 time=0@note_on channel=10 note=45 velocity=100 time=0@note_on channel=3 note=52 velocity=100 time=0.454545@note_on channel=8 note=52 velocity=100 time=0@note_on channel=0 note=64 velocity=0 time=0.454545@note_on channel=0 note=76 velocity=100 time=0@note_on channel=1 note=61 velocity=0 time=0@note_on channel=1 note=73 velocity=100 time=0@note_on channel=2 note=69 velocity=0 time=0@note_on channel=2 note=69 velocity=100 time=0@note_on channel=3 note=52 velocity=0 time=0@note_on channel=3 note=57 velocity=100 time=0@note_on channel=5 note=64 velocity=0 time=0@note_on channel=5 note=76 velocity=100 time=0@note_on channel=6 note=61 velocity=0 time=0@note_on channel=6 note=73 velocity=100 time=0@note_on channel=7 note=69 velocity=0 time=0@note_on channel=7 note=69 velocity=100 time=0@note_on channel=8 note=52 velocity=0 time=0@note_on channel=8 note=57 velocity=100 time=0@note_on channel=2 note=69 velocity=0 time=0.454545@note_on channel=2 note=67 velocity=100 time=0@note_on channel=3 note=57 velocity=0 time=0@note_on channel=3 note=61 velocity=100 time=0@note_on channel=7 note=69 velocity=0 time=0@note_on channel=7 note=67 velocity=100 time=0@note_on channel=8 note=57 velocity=0 time=0@note_on channel=8 note=61 velocity=100 time=0@note_on channel=0 note=76 velocity=0 time=0.454545@note_on channel=0 note=74 velocity=100 time=0@note_on channel=1 note=73 velocity=0 time=0@note_on channel=1 note=71 velocity=100 time=0@note_on channel=2 note=67 velocity=0 time=0@note_on channel=2 note=74 velocity=100 time=0@note_on channel=2 note=66 velocity=100 time=0@note_on channel=3 note=61 velocity=0 time=0@note_on channel=4 note=45 velocity=0 time=0@note_on channel=4 note=47 velocity=100 time=0@note_on channel=5 note=76 velocity=0 time=0@note_on channel=5 note=74 velocity=100 time=0@note_on channel=6 note=73 velocity=0 time=0@note_on channel=6 note=71 velocity=100 time=0@note_on channel=7 note=67 velocity=0 time=0@note_on channel=7 note=74 velocity=100 time=0@note_on channel=7 note=66 velocity=100 time=0@note_on channel=8 note=61 velocity=0 time=0@note_on channel=10 note=45 velocity=0 time=0@note_on channel=10 note=47 velocity=100 time=0@note_on channel=3 note=50 velocity=100 time=0.454545@note_on channel=8 note=50 velocity=100 time=0@note_on channel=0 note=74 velocity=0 time=0.454545@note_on channel=0 note=62 velocity=100 time=0@note_on channel=1 note=71 velocity=0 time=0@note_on channel=1 note=59 velocity=100 time=0@note_on channel=2 note=66 velocity=0 time=0@note_on channel=2 note=74 velocity=0 time=0@note_on channel=2 note=66 velocity=100 time=0@note_on channel=3 note=50 velocity=0 time=0@note_on channel=3 note=54 velocity=100 time=0@note_on channel=5 note=74 velocity=0 time=0@note_on channel=5 note=62 velocity=100 time=0@note_on channel=6 note=71 velocity=0 time=0@note_on channel=6 note=59 velocity=100 time=0@note_on channel=7 note=66 velocity=0 time=0@note_on channel=7 note=74 velocity=0 time=0@note_on channel=7 note=66 velocity=100 time=0@note_on channel=8 note=50 velocity=0 time=0@note_on channel=8 note=54 velocity=100 time=0@note_on channel=3 note=54 velocity=0 time=0.454545@note_on channel=3 note=59 velocity=100 time=0@note_on channel=8 note=54 velocity=0 time=0@note_on channel=8 note=59 velocity=100 time=0@note_on channel=0 note=62 velocity=0 time=0.454545@note_on channel=0 note=61 velocity=100 time=0@note_on channel=1 note=59 velocity=0 time=0@note_on channel=1 note=57 velocity=100 time=0@note_on channel=2 note=66 velocity=0 time=0@note_on channel=2 note=78 velocity=100 time=0@note_on channel=3 note=59 velocity=0 time=0@note_on channel=4 note=47 velocity=0 time=0@note_on channel=4 note=42 velocity=100 time=0@note_on channel=5 note=62 velocity=0 time=0@note_on channel=5 note=61 velocity=100 time=0@note_on channel=6 note=59 velocity=0 time=0@note_on channel=6 note=57 velocity=100 time=0@note_on channel=7 note=66 velocity=0 time=0@note_on channel=7 note=78 velocity=100 time=0@note_on channel=8 note=59 velocity=0 time=0@note_on channel=10 note=47 velocity=0 time=0@note_on channel=10 note=42 velocity=100 time=0@note_on channel=3 note=49 velocity=100 time=0.454545@note_on channel=8 note=49 velocity=100 time=0@note_on channel=0 note=61 velocity=0 time=0.454545@note_on channel=0 note=73 velocity=100 time=0@note_on channel=1 note=57 velocity=0 time=0@note_on channel=1 note=69 velocity=100 time=0@note_on channel=2 note=78 velocity=0 time=0@note_on channel=2 note=78 velocity=100 time=0@note_on channel=3 note=49 velocity=0 time=0@note_on channel=3 note=54 velocity=100 time=0@note_on channel=5 note=61 velocity=0 time=0@note_on channel=5 note=73 velocity=100 time=0@note_on channel=6 note=57 velocity=0 time=0@note_on channel=6 note=69 velocity=100 time=0@note_on channel=7 note=78 velocity=0 time=0@note_on channel=7 note=78 velocity=100 time=0@note_on channel=8 note=49 velocity=0 time=0@note_on channel=8 note=54 velocity=100 time=0@note_on channel=2 note=78 velocity=0 time=0.454545@note_on channel=2 note=76 velocity=100 time=0@note_on channel=3 note=54 velocity=0 time=0@note_on channel=3 note=57 velocity=100 time=0@note_on channel=7 note=78 velocity=0 time=0@note_on channel=7 note=76 velocity=100 time=0@note_on channel=8 note=54 velocity=0 time=0@note_on channel=8 note=57 velocity=100 time=0@note_on channel=0 note=73 velocity=0 time=0.454545@note_on channel=0 note=71 velocity=100 time=0@note_on channel=1 note=69 velocity=0 time=0@note_on channel=1 note=67 velocity=100 time=0@note_on channel=2 note=76 velocity=0 time=0@note_on channel=2 note=74 velocity=100 time=0@note_on channel=3 note=57 velocity=0 time=0@note_on channel=4 note=42 velocity=0 time=0@note_on channel=4 note=43 velocity=100 time=0@note_on channel=5 note=73 velocity=0 time=0@note_on channel=5 note=71 velocity=100 time=0@note_on channel=6 note=69 velocity=0 time=0@note_on channel=6 note=67 velocity=100 time=0@note_on channel=7 note=76 velocity=0 time=0@note_on channel=7 note=74 velocity=100 time=0@note_on channel=8 note=57 velocity=0 time=0@note_on channel=10 note=42 velocity=0 time=0@note_on channel=10 note=43 velocity=100 time=0@note_on channel=3 note=47 velocity=100 time=0.454545@note_on channel=8 note=47 velocity=100 time=0@note_on channel=0 note=71 velocity=0 time=0.454545@note_on channel=0 note=83 velocity=100 time=0@note_on channel=1 note=67 velocity=0 time=0@note_on channel=1 note=79 velocity=100 time=0@note_on channel=3 note=47 velocity=0 time=0@note_on channel=3 note=50 velocity=100 time=0@note_on channel=5 note=71 velocity=0 time=0@note_on channel=5 note=83 velocity=100 time=0@note_on channel=6 note=67 velocity=0 time=0@note_on channel=6 note=79 velocity=100 time=0@note_on channel=8 note=47 velocity=0 time=0@note_on channel=8 note=50 velocity=100 time=0@note_on channel=3 note=50 velocity=0 time=0.454545@note_on channel=3 note=55 velocity=100 time=0@note_on channel=8 note=50 velocity=0 time=0@note_on channel=8 note=55 velocity=100 time=0@<meta message set_tempo tempo=967741 time=0.454545>@note_on channel=0 note=83 velocity=0 time=0@note_on channel=0 note=81 velocity=100 time=0@note_on channel=1 note=79 velocity=0 time=0@note_on channel=1 note=78 velocity=100 time=0@note_on channel=3 note=55 velocity=0 time=0@note_on channel=4 note=43 velocity=0 time=0@note_on channel=4 note=38 velocity=100 time=0@note_on channel=5 note=83 velocity=0 time=0@note_on channel=5 note=81 velocity=100 time=0@note_on channel=6 note=79 velocity=0 time=0@note_on channel=6 note=78 velocity=100 time=0@note_on channel=8 note=55 velocity=0 time=0@note_on channel=10 note=43 velocity=0 time=0@note_on channel=10 note=38 velocity=100 time=0@note_on channel=3 note=54 velocity=100 time=0.4838705@note_on channel=8 note=54 velocity=100 time=0@<meta message set_tempo tempo=1052631 time=0.4838705>@note_on channel=0 note=81 velocity=0 time=0@control_change channel=0 control=91 value=110 time=0@control_change channel=0 control=93 value=120 time=0@note_on channel=0 note=69 velocity=100 time=0@note_on channel=1 note=78 velocity=0 time=0@note_on channel=1 note=66 velocity=100 time=0@control_change channel=1 control=91 value=110 time=0@control_change channel=1 control=93 value=120 time=0@note_on channel=2 note=74 velocity=0 time=0@note_on channel=2 note=74 velocity=100 time=0@control_change channel=2 control=91 value=110 time=0@control_change channel=2 control=93 value=120 time=0@note_on channel=3 note=54 velocity=0 time=0@note_on channel=3 note=57 velocity=100 time=0@control_change channel=3 control=91 value=110 time=0@control_change channel=3 control=93 value=120 time=0@control_change channel=4 control=91 value=110 time=0@control_change channel=4 control=93 value=120 time=0@note_on channel=5 note=81 velocity=0 time=0@control_change channel=5 control=91 value=110 time=0@control_change channel=5 control=93 value=120 time=0@note_on channel=5 note=69 velocity=100 time=0@note_on channel=6 note=78 velocity=0 time=0@note_on channel=6 note=66 velocity=100 time=0@control_change channel=6 control=91 value=110 time=0@control_change channel=6 control=93 value=120 time=0@note_on channel=7 note=74 velocity=0 time=0@note_on channel=7 note=74 velocity=100 time=0@control_change channel=7 control=91 value=110 time=0@control_change channel=7 control=93 value=120 time=0@note_on channel=8 note=54 velocity=0 time=0@note_on channel=8 note=57 velocity=100 time=0@control_change channel=8 control=91 value=110 time=0@control_change channel=8 control=93 value=120 time=0@control_change channel=10 control=91 value=110 time=0@control_change channel=10 control=93 value=120 time=0@note_on channel=3 note=57 velocity=0 time=0.5263154999999999@note_on channel=3 note=62 velocity=100 time=0@note_on channel=8 note=57 velocity=0 time=0@note_on channel=8 note=62 velocity=100 time=0@<meta message set_tempo tempo=1132075 time=0.5263154999999999>@note_on channel=0 note=69 velocity=0 time=0@note_on channel=0 note=67 velocity=100 time=0@note_on channel=1 note=66 velocity=0 time=0@note_on channel=1 note=64 velocity=100 time=0@note_on channel=2 note=74 velocity=0 time=0@note_on channel=2 note=74 velocity=100 time=0@note_on channel=3 note=62 velocity=0 time=0@note_on channel=4 note=38 velocity=0 time=0@note_on channel=4 note=43 velocity=100 time=0@note_on channel=5 note=69 velocity=0 time=0@note_on channel=5 note=67 velocity=100 time=0@note_on channel=6 note=66 velocity=0 time=0@note_on channel=6 note=64 velocity=100 time=0@note_on channel=7 note=74 velocity=0 time=0@note_on channel=7 note=74 velocity=100 time=0@note_on channel=8 note=62 velocity=0 time=0@note_on channel=10 note=38 velocity=0 time=0@note_on channel=10 note=43 velocity=100 time=0@note_on channel=3 note=52 velocity=100 time=0.5660375@note_on channel=8 note=52 velocity=100 time=0@note_on channel=1 note=64 velocity=0 time=0.5660375@note_on channel=1 note=71 velocity=100 time=0@note_on channel=3 note=52 velocity=0 time=0@note_on channel=3 note=59 velocity=100 time=0@note_on channel=6 note=64 velocity=0 time=0@note_on channel=6 note=71 velocity=100 time=0@note_on channel=8 note=52 velocity=0 time=0@note_on channel=8 note=59 velocity=100 time=0@note_on channel=2 note=76 velocity=100 time=0.5660375@note_on channel=3 note=59 velocity=0 time=0@note_on channel=3 note=62 velocity=100 time=0@note_on channel=7 note=76 velocity=100 time=0@note_on channel=8 note=59 velocity=0 time=0@note_on channel=8 note=62 velocity=100 time=0@note_on channel=0 note=67 velocity=0 time=0.5660375@note_on channel=0 note=64 velocity=100 time=0@note_on channel=1 note=71 velocity=0 time=0@note_on channel=1 note=69 velocity=100 time=0@note_on channel=2 note=76 velocity=0 time=0@note_on channel=2 note=74 velocity=0 time=0@note_on channel=2 note=73 velocity=100 time=0@note_on channel=3 note=62 velocity=0 time=0@note_on channel=4 note=43 velocity=0 time=0@note_on channel=4 note=45 velocity=100 time=0@note_on channel=5 note=67 velocity=0 time=0@note_on channel=5 note=64 velocity=100 time=0@note_on channel=6 note=71 velocity=0 time=0@note_on channel=6 note=69 velocity=100 time=0@note_on channel=7 note=76 velocity=0 time=0@note_on channel=7 note=74 velocity=0 time=0@note_on channel=7 note=73 velocity=100 time=0@note_on channel=8 note=62 velocity=0 time=0@note_on channel=10 note=43 velocity=0 time=0@note_on channel=10 note=45 velocity=100 time=0@note_on channel=3 note=52 velocity=100 time=0.5660375@note_on channel=8 note=52 velocity=100 time=0@note_on channel=0 note=64 velocity=0 time=0.5660375@note_on channel=0 note=69 velocity=100 time=0@note_on channel=1 note=69 velocity=0 time=0@note_on channel=1 note=76 velocity=100 time=0@note_on channel=3 note=52 velocity=0 time=0@note_on channel=3 note=57 velocity=100 time=0@note_on channel=5 note=64 velocity=0 time=0@note_on channel=5 note=69 velocity=100 time=0@note_on channel=6 note=69 velocity=0 time=0@note_on channel=6 note=76 velocity=100 time=0@note_on channel=8 note=52 velocity=0 time=0@note_on channel=8 note=57 velocity=100 time=0@note_on channel=3 note=57 velocity=0 time=0.5660375@note_on channel=3 note=61 velocity=100 time=0@note_on channel=8 note=57 velocity=0 time=0@note_on channel=8 note=61 velocity=100 time=0@note_on channel=4 note=45 velocity=0 time=0.28301875@note_on channel=4 note=26 velocity=100 time=0@note_on channel=4 note=38 velocity=100 time=0@note_on channel=10 note=45 velocity=0 time=0@note_on channel=10 note=26 velocity=100 time=0@note_on channel=10 note=38 velocity=100 time=0@note_on channel=0 note=69 velocity=0 time=0.28301875@note_on channel=1 note=76 velocity=0 time=0@note_on channel=2 note=73 velocity=0 time=0@note_on channel=3 note=61 velocity=0 time=0@note_on channel=4 note=38 velocity=0 time=0@note_on channel=4 note=26 velocity=0 time=0@note_on channel=4 note=38 velocity=100 time=0@note_on channel=4 note=26 velocity=100 time=0@note_on channel=5 note=69 velocity=0 time=0@note_on channel=6 note=76 velocity=0 time=0@note_on channel=7 note=73 velocity=0 time=0@note_on channel=8 note=61 velocity=0 time=0@note_on channel=10 note=38 velocity=0 time=0@note_on channel=10 note=26 velocity=0 time=0@note_on channel=10 note=38 velocity=100 time=0@note_on channel=10 note=26 velocity=100 time=0@note_on channel=4 note=50 velocity=100 time=0.04716979166666666@note_on channel=10 note=50 velocity=100 time=0@note_on channel=1 note=62 velocity=100 time=0.04716979166666666@note_on channel=6 note=62 velocity=100 time=0@note_on channel=0 note=69 velocity=100 time=0.04716979166666666@note_on channel=5 note=69 velocity=100 time=0@note_on channel=1 note=74 velocity=100 time=0.04716979166666666@note_on channel=6 note=74 velocity=100 time=0@note_on channel=0 note=78 velocity=100 time=0.04716979166666666@note_on channel=5 note=78 velocity=100 time=0@note_on channel=0 note=78 velocity=0 time=2.0283010416666665@note_on channel=0 note=69 velocity=0 time=0@note_on channel=1 note=74 velocity=0 time=0@note_on channel=1 note=62 velocity=0 time=0@note_on channel=4 note=50 velocity=0 time=0@note_on channel=4 note=26 velocity=0 time=0@note_on channel=4 note=38 velocity=0 time=0@note_on channel=5 note=78 velocity=0 time=0@note_on channel=5 note=69 velocity=0 time=0@note_on channel=6 note=74 velocity=0 time=0@note_on channel=6 note=62 velocity=0 time=0@note_on channel=10 note=50 velocity=0 time=0@note_on channel=10 note=26 velocity=0 time=0@note_on channel=10 note=38 velocity=0 time=0@<meta message end_of_track time=0>@