<meta message time_signature numerator=4 denominator=4 clocks_per_click=24 notated_32nd_notes_per_beat=8 time=0>@<meta message key_signature key='C' time=0>@<meta message key_signature key='C' time=0>@<meta message key_signature key='C' time=0>@<meta message set_tempo tempo=500000 time=0>@control_change channel=0 control=121 value=0 time=0@program_change channel=0 program=52 time=0@control_change channel=0 control=7 value=100 time=0@control_change channel=0 control=10 value=64 time=0@control_change channel=0 control=91 value=0 time=0@control_change channel=0 control=93 value=0 time=0@<meta message midi_port port=0 time=0>@note_on channel=0 note=62 velocity=127 time=0@<meta message key_signature key='C' time=0>@<meta message key_signature key='C' time=0>@<meta message key_signature key='C' time=0>@control_change channel=1 control=121 value=0 time=0@program_change channel=1 program=27 time=0@control_change channel=1 control=7 value=100 time=0@control_change channel=1 control=10 value=64 time=0@control_change channel=1 control=91 value=0 time=0@control_change channel=1 control=93 value=0 time=0@<meta message midi_port port=0 time=0>@note_on channel=1 note=62 velocity=58 time=0@<meta message key_signature key='C' time=0>@<meta message key_signature key='C' time=0>@<meta message key_signature key='C' time=0>@control_change channel=2 control=121 value=0 time=0@program_change channel=2 program=52 time=0@control_change channel=2 control=7 value=100 time=0@control_change channel=2 control=10 value=64 time=0@control_change channel=2 control=91 value=0 time=0@control_change channel=2 control=93 value=0 time=0@<meta message midi_port port=0 time=0>@note_on channel=2 note=38 velocity=112 time=0@note_on channel=2 note=45 velocity=112 time=0@note_on channel=2 note=50 velocity=112 time=0@<meta message key_signature key='C' time=0>@<meta message key_signature key='C' time=0>@<meta message key_signature key='C' time=0>@control_change channel=3 control=121 value=0 time=0@program_change channel=3 program=0 time=0@control_change channel=3 control=7 value=100 time=0@control_change channel=3 control=10 value=64 time=0@control_change channel=3 control=91 value=0 time=0@control_change channel=3 control=93 value=0 time=0@<meta message midi_port port=0 time=0>@note_on channel=3 note=62 velocity=58 time=0@<meta message key_signature key='C' time=0>@<meta message key_signature key='C' time=0>@<meta message key_signature key='C' time=0>@<meta message midi_port port=0 time=0>@note_on channel=3 note=38 velocity=49 time=0@note_on channel=3 note=45 velocity=49 time=0@note_on channel=3 note=50 velocity=49 time=0@<meta message key_signature key='C' time=0>@<meta message key_signature key='C' time=0>@<meta message key_signature key='C' time=0>@control_change channel=4 control=121 value=0 time=0@program_change channel=4 program=81 time=0@control_change channel=4 control=7 value=100 time=0@control_change channel=4 control=10 value=64 time=0@control_change channel=4 control=91 value=0 time=0@control_change channel=4 control=93 value=0 time=0@<meta message midi_port port=0 time=0>@<meta message key_signature key='C' time=0>@<meta message key_signature key='C' time=0>@<meta message key_signature key='C' time=0>@<meta message midi_port port=0 time=0>@<meta message key_signature key='C' time=0>@<meta message key_signature key='C' time=0>@<meta message key_signature key='C' time=0>@control_change channel=9 control=121 value=0 time=0@program_change channel=9 program=0 time=0@control_change channel=9 control=7 value=100 time=0@control_change channel=9 control=10 value=64 time=0@control_change channel=9 control=91 value=0 time=0@control_change channel=9 control=93 value=0 time=0@<meta message midi_port port=0 time=0>@note_on channel=9 note=41 velocity=112 time=0@<meta message key_signature key='C' time=0>@<meta message key_signature key='C' time=0>@<meta message key_signature key='C' time=0>@control_change channel=9 control=121 value=0 time=0@program_change channel=9 program=48 time=0@control_change channel=9 control=7 value=100 time=0@control_change channel=9 control=10 value=64 time=0@control_change channel=9 control=91 value=0 time=0@control_change channel=9 control=93 value=0 time=0@<meta message midi_port port=1 time=0>@note_on channel=0 note=62 velocity=0 time=0.37395833333333334@note_on channel=1 note=62 velocity=0 time=0@note_on channel=3 note=62 velocity=0 time=0@note_on channel=0 note=64 velocity=126 time=0.0010416666666666667@note_on channel=1 note=64 velocity=49 time=0@note_on channel=3 note=64 velocity=49 time=0@note_on channel=9 note=41 velocity=0 time=0.12395833333333334@note_on channel=9 note=41 velocity=112 time=0.0010416666666666667@note_on channel=3 note=64 velocity=0 time=0.23020833333333332@note_on channel=0 note=64 velocity=0 time=0.01875@note_on channel=1 note=64 velocity=0 time=0@note_on channel=0 note=65 velocity=126 time=0.0010416666666666667@note_on channel=1 note=65 velocity=49 time=0@note_on channel=3 note=65 velocity=49 time=0@note_on channel=3 note=65 velocity=0 time=0.23645833333333333@note_on channel=0 note=65 velocity=0 time=0.0125@note_on channel=1 note=65 velocity=0 time=0@note_on channel=9 note=41 velocity=0 time=0@note_on channel=0 note=67 velocity=126 time=0.0010416666666666667@note_on channel=1 note=67 velocity=49 time=0@note_on channel=3 note=67 velocity=49 time=0@note_on channel=9 note=41 velocity=112 time=0@note_on channel=3 note=67 velocity=0 time=0.23645833333333333@note_on channel=0 note=67 velocity=0 time=0.0125@note_on channel=1 note=67 velocity=0 time=0@note_on channel=0 note=70 velocity=126 time=0.0010416666666666667@note_on channel=1 note=70 velocity=49 time=0@note_on channel=3 note=70 velocity=49 time=0@note_on channel=3 note=70 velocity=0 time=0.23645833333333333@note_on channel=0 note=70 velocity=0 time=0.0125@note_on channel=1 note=70 velocity=0 time=0@note_on channel=9 note=41 velocity=0 time=0@note_on channel=0 note=69 velocity=126 time=0.0010416666666666667@note_on channel=1 note=69 velocity=49 time=0@note_on channel=3 note=69 velocity=49 time=0@note_on channel=9 note=41 velocity=112 time=0@note_on channel=3 note=38 velocity=0 time=0.3989583333333333@note_on channel=3 note=45 velocity=0 time=0@note_on channel=3 note=50 velocity=0 time=0@note_on channel=0 note=69 velocity=0 time=0.1@note_on channel=1 note=69 velocity=0 time=0@note_on channel=2 note=38 velocity=0 time=0@note_on channel=2 note=45 velocity=0 time=0@note_on channel=2 note=50 velocity=0 time=0@note_on channel=3 note=69 velocity=0 time=0@note_on channel=9 note=41 velocity=0 time=0@note_on channel=0 note=70 velocity=127 time=0.0010416666666666667@note_on channel=1 note=70 velocity=58 time=0@note_on channel=2 note=34 velocity=112 time=0@note_on channel=2 note=41 velocity=112 time=0@note_on channel=2 note=46 velocity=112 time=0@note_on channel=3 note=70 velocity=58 time=0@note_on channel=3 note=34 velocity=49 time=0@note_on channel=3 note=41 velocity=49 time=0@note_on channel=3 note=46 velocity=49 time=0@note_on channel=9 note=41 velocity=112 time=0@note_on channel=0 note=70 velocity=0 time=0.37395833333333334@note_on channel=1 note=70 velocity=0 time=0@note_on channel=3 note=70 velocity=0 time=0@note_on channel=0 note=69 velocity=126 time=0.0010416666666666667@note_on channel=1 note=69 velocity=49 time=0@note_on channel=3 note=69 velocity=49 time=0@note_on channel=9 note=41 velocity=0 time=0.12395833333333334@note_on channel=9 note=41 velocity=112 time=0.0010416666666666667@note_on channel=3 note=69 velocity=0 time=0.23020833333333332@note_on channel=0 note=69 velocity=0 time=0.01875@note_on channel=1 note=69 velocity=0 time=0@note_on channel=0 note=67 velocity=126 time=0.0010416666666666667@note_on channel=1 note=67 velocity=49 time=0@note_on channel=3 note=67 velocity=49 time=0@note_on channel=3 note=67 velocity=0 time=0.23645833333333333@note_on channel=0 note=67 velocity=0 time=0.0125@note_on channel=1 note=67 velocity=0 time=0@note_on channel=9 note=41 velocity=0 time=0@note_on channel=0 note=67 velocity=126 time=0.0010416666666666667@note_on channel=1 note=67 velocity=49 time=0@note_on channel=3 note=67 velocity=49 time=0@note_on channel=9 note=41 velocity=112 time=0@note_on channel=3 note=67 velocity=0 time=0.23645833333333333@note_on channel=0 note=67 velocity=0 time=0.0125@note_on channel=1 note=67 velocity=0 time=0@note_on channel=0 note=69 velocity=126 time=0.0010416666666666667@note_on channel=1 note=69 velocity=49 time=0@note_on channel=3 note=69 velocity=49 time=0@note_on channel=3 note=69 velocity=0 time=0.23645833333333333@note_on channel=0 note=69 velocity=0 time=0.0125@note_on channel=1 note=69 velocity=0 time=0@note_on channel=9 note=41 velocity=0 time=0@note_on channel=0 note=65 velocity=126 time=0.0010416666666666667@note_on channel=1 note=65 velocity=49 time=0@note_on channel=3 note=65 velocity=49 time=0@note_on channel=9 note=41 velocity=112 time=0@note_on channel=3 note=34 velocity=0 time=0.3989583333333333@note_on channel=3 note=41 velocity=0 time=0@note_on channel=3 note=46 velocity=0 time=0@note_on channel=0 note=65 velocity=0 time=0.1@note_on channel=1 note=65 velocity=0 time=0@note_on channel=2 note=34 velocity=0 time=0@note_on channel=2 note=41 velocity=0 time=0@note_on channel=2 note=46 velocity=0 time=0@note_on channel=3 note=65 velocity=0 time=0@note_on channel=9 note=41 velocity=0 time=0@note_on channel=0 note=69 velocity=127 time=0.0010416666666666667@note_on channel=1 note=69 velocity=58 time=0@note_on channel=2 note=33 velocity=112 time=0@note_on channel=2 note=40 velocity=112 time=0@note_on channel=2 note=45 velocity=112 time=0@note_on channel=3 note=69 velocity=58 time=0@note_on channel=3 note=33 velocity=49 time=0@note_on channel=3 note=40 velocity=49 time=0@note_on channel=3 note=45 velocity=49 time=0@note_on channel=9 note=41 velocity=112 time=0@note_on channel=0 note=69 velocity=0 time=0.37395833333333334@note_on channel=1 note=69 velocity=0 time=0@note_on channel=3 note=69 velocity=0 time=0@note_on channel=0 note=67 velocity=126 time=0.0010416666666666667@note_on channel=1 note=67 velocity=49 time=0@note_on channel=3 note=67 velocity=49 time=0@note_on channel=9 note=41 velocity=0 time=0.12395833333333334@note_on channel=9 note=41 velocity=112 time=0.0010416666666666667@note_on channel=3 note=67 velocity=0 time=0.23020833333333332@note_on channel=0 note=67 velocity=0 time=0.01875@note_on channel=1 note=67 velocity=0 time=0@note_on channel=0 note=65 velocity=126 time=0.0010416666666666667@note_on channel=1 note=65 velocity=49 time=0@note_on channel=3 note=65 velocity=49 time=0@note_on channel=3 note=65 velocity=0 time=0.23645833333333333@note_on channel=0 note=65 velocity=0 time=0.0125@note_on channel=1 note=65 velocity=0 time=0@note_on channel=9 note=41 velocity=0 time=0@note_on channel=0 note=65 velocity=126 time=0.0010416666666666667@note_on channel=1 note=65 velocity=49 time=0@note_on channel=3 note=65 velocity=49 time=0@note_on channel=9 note=41 velocity=112 time=0@note_on channel=3 note=65 velocity=0 time=0.23645833333333333@note_on channel=0 note=65 velocity=0 time=0.0125@note_on channel=1 note=65 velocity=0 time=0@note_on channel=0 note=67 velocity=126 time=0.0010416666666666667@note_on channel=1 note=67 velocity=49 time=0@note_on channel=3 note=67 velocity=49 time=0@note_on channel=3 note=67 velocity=0 time=0.23645833333333333@note_on channel=0 note=67 velocity=0 time=0.0125@note_on channel=1 note=67 velocity=0 time=0@note_on channel=9 note=41 velocity=0 time=0@note_on channel=0 note=64 velocity=126 time=0.0010416666666666667@note_on channel=1 note=64 velocity=49 time=0@note_on channel=3 note=64 velocity=49 time=0@note_on channel=9 note=41 velocity=112 time=0@note_on channel=3 note=33 velocity=0 time=0.3989583333333333@note_on channel=3 note=40 velocity=0 time=0@note_on channel=3 note=45 velocity=0 time=0@note_on channel=0 note=64 velocity=0 time=0.1@note_on channel=1 note=64 velocity=0 time=0@note_on channel=2 note=33 velocity=0 time=0@note_on channel=2 note=40 velocity=0 time=0@note_on channel=2 note=45 velocity=0 time=0@note_on channel=3 note=64 velocity=0 time=0@note_on channel=9 note=41 velocity=0 time=0@note_on channel=0 note=67 velocity=127 time=0.0010416666666666667@note_on channel=1 note=67 velocity=58 time=0@note_on channel=2 note=38 velocity=112 time=0@note_on channel=2 note=45 velocity=112 time=0@note_on channel=2 note=50 velocity=112 time=0@note_on channel=3 note=67 velocity=58 time=0@note_on channel=3 note=38 velocity=49 time=0@note_on channel=3 note=45 velocity=49 time=0@note_on channel=3 note=50 velocity=49 time=0@note_on channel=9 note=41 velocity=112 time=0@note_on channel=0 note=67 velocity=0 time=0.37395833333333334@note_on channel=1 note=67 velocity=0 time=0@note_on channel=3 note=67 velocity=0 time=0@note_on channel=0 note=65 velocity=126 time=0.0010416666666666667@note_on channel=1 note=65 velocity=49 time=0@note_on channel=3 note=65 velocity=49 time=0@note_on channel=9 note=41 velocity=0 time=0.12395833333333334@note_on channel=9 note=41 velocity=112 time=0.0010416666666666667@note_on channel=3 note=65 velocity=0 time=0.23020833333333332@note_on channel=0 note=65 velocity=0 time=0.01875@note_on channel=1 note=65 velocity=0 time=0@note_on channel=0 note=64 velocity=126 time=0.0010416666666666667@note_on channel=1 note=64 velocity=49 time=0@note_on channel=3 note=64 velocity=49 time=0@note_on channel=3 note=64 velocity=0 time=0.23645833333333333@note_on channel=0 note=64 velocity=0 time=0.0125@note_on channel=1 note=64 velocity=0 time=0@note_on channel=9 note=41 velocity=0 time=0@note_on channel=0 note=65 velocity=126 time=0.0010416666666666667@note_on channel=1 note=65 velocity=49 time=0@note_on channel=3 note=65 velocity=49 time=0@note_on channel=9 note=41 velocity=112 time=0@note_on channel=3 note=65 velocity=0 time=0.23645833333333333@note_on channel=0 note=65 velocity=0 time=0.0125@note_on channel=1 note=65 velocity=0 time=0@note_on channel=0 note=69 velocity=126 time=0.0010416666666666667@note_on channel=1 note=69 velocity=49 time=0@note_on channel=3 note=69 velocity=49 time=0@note_on channel=3 note=69 velocity=0 time=0.23645833333333333@note_on channel=0 note=69 velocity=0 time=0.0125@note_on channel=1 note=69 velocity=0 time=0@note_on channel=9 note=41 velocity=0 time=0@note_on channel=0 note=69 velocity=126 time=0.0010416666666666667@note_on channel=1 note=69 velocity=49 time=0@note_on channel=3 note=69 velocity=49 time=0@note_on channel=9 note=41 velocity=112 time=0@note_on channel=0 note=69 velocity=0 time=0.06145833333333333@note_on channel=1 note=69 velocity=0 time=0@note_on channel=3 note=69 velocity=0 time=0@note_on channel=0 note=67 velocity=126 time=0.06354166666666666@note_on channel=1 note=67 velocity=49 time=0@note_on channel=3 note=67 velocity=49 time=0@note_on channel=0 note=67 velocity=0 time=0.06145833333333333@note_on channel=1 note=67 velocity=0 time=0@note_on channel=3 note=67 velocity=0 time=0@note_on channel=0 note=65 velocity=126 time=0.06354166666666666@note_on channel=1 note=65 velocity=49 time=0@note_on channel=3 note=65 velocity=49 time=0@note_on channel=0 note=65 velocity=0 time=0.06145833333333333@note_on channel=1 note=65 velocity=0 time=0@note_on channel=3 note=65 velocity=0 time=0@note_on channel=0 note=64 velocity=126 time=0.06354166666666666@note_on channel=1 note=64 velocity=49 time=0@note_on channel=3 note=64 velocity=49 time=0@note_on channel=3 note=38 velocity=0 time=0.02395833333333333@note_on channel=3 note=45 velocity=0 time=0@note_on channel=3 note=50 velocity=0 time=0@note_on channel=0 note=64 velocity=0 time=0.0375@note_on channel=1 note=64 velocity=0 time=0@note_on channel=3 note=64 velocity=0 time=0@note_on channel=2 note=38 velocity=0 time=0.0625@note_on channel=2 note=45 velocity=0 time=0@note_on channel=2 note=50 velocity=0 time=0@note_on channel=9 note=41 velocity=0 time=0@note_on channel=0 note=62 velocity=127 time=0.0010416666666666667@note_on channel=1 note=62 velocity=58 time=0@note_on channel=2 note=38 velocity=112 time=0@note_on channel=2 note=45 velocity=112 time=0@note_on channel=2 note=50 velocity=112 time=0@note_on channel=3 note=62 velocity=58 time=0@note_on channel=3 note=38 velocity=49 time=0@note_on channel=3 note=45 velocity=49 time=0@note_on channel=3 note=50 velocity=49 time=0@note_on channel=9 note=41 velocity=112 time=0@note_on channel=0 note=62 velocity=0 time=0.37395833333333334@note_on channel=1 note=62 velocity=0 time=0@note_on channel=3 note=62 velocity=0 time=0@note_on channel=0 note=64 velocity=126 time=0.0010416666666666667@note_on channel=1 note=64 velocity=49 time=0@note_on channel=3 note=64 velocity=49 time=0@note_on channel=9 note=41 velocity=0 time=0.12395833333333334@note_on channel=9 note=41 velocity=112 time=0.0010416666666666667@note_on channel=3 note=64 velocity=0 time=0.23020833333333332@note_on channel=0 note=64 velocity=0 time=0.01875@note_on channel=1 note=64 velocity=0 time=0@note_on channel=0 note=65 velocity=126 time=0.0010416666666666667@note_on channel=1 note=65 velocity=49 time=0@note_on channel=3 note=65 velocity=49 time=0@note_on channel=3 note=65 velocity=0 time=0.23645833333333333@note_on channel=0 note=65 velocity=0 time=0.0125@note_on channel=1 note=65 velocity=0 time=0@note_on channel=9 note=41 velocity=0 time=0@note_on channel=0 note=67 velocity=126 time=0.0010416666666666667@note_on channel=1 note=67 velocity=49 time=0@note_on channel=3 note=67 velocity=49 time=0@note_on channel=9 note=41 velocity=112 time=0@note_on channel=3 note=67 velocity=0 time=0.23645833333333333@note_on channel=0 note=67 velocity=0 time=0.0125@note_on channel=1 note=67 velocity=0 time=0@note_on channel=0 note=70 velocity=126 time=0.0010416666666666667@note_on channel=1 note=70 velocity=49 time=0@note_on channel=3 note=70 velocity=49 time=0@note_on channel=3 note=70 velocity=0 time=0.23645833333333333@note_on channel=0 note=70 velocity=0 time=0.0125@note_on channel=1 note=70 velocity=0 time=0@note_on channel=9 note=41 velocity=0 time=0@note_on channel=0 note=69 velocity=126 time=0.0010416666666666667@note_on channel=1 note=69 velocity=49 time=0@note_on channel=3 note=69 velocity=49 time=0@note_on channel=9 note=41 velocity=112 time=0@note_on channel=3 note=38 velocity=0 time=0.3989583333333333@note_on channel=3 note=45 velocity=0 time=0@note_on channel=3 note=50 velocity=0 time=0@note_on channel=0 note=69 velocity=0 time=0.1@note_on channel=1 note=69 velocity=0 time=0@note_on channel=2 note=38 velocity=0 time=0@note_on channel=2 note=45 velocity=0 time=0@note_on channel=2 note=50 velocity=0 time=0@note_on channel=3 note=69 velocity=0 time=0@note_on channel=9 note=41 velocity=0 time=0@note_on channel=0 note=72 velocity=127 time=0.0010416666666666667@note_on channel=1 note=72 velocity=58 time=0@note_on channel=2 note=36 velocity=112 time=0@note_on channel=2 note=43 velocity=112 time=0@note_on channel=2 note=48 velocity=112 time=0@note_on channel=3 note=72 velocity=58 time=0@note_on channel=3 note=36 velocity=49 time=0@note_on channel=3 note=43 velocity=49 time=0@note_on channel=3 note=48 velocity=49 time=0@note_on channel=9 note=41 velocity=112 time=0@note_on channel=0 note=72 velocity=0 time=0.37395833333333334@note_on channel=1 note=72 velocity=0 time=0@note_on channel=3 note=72 velocity=0 time=0@note_on channel=0 note=70 velocity=126 time=0.0010416666666666667@note_on channel=1 note=70 velocity=49 time=0@note_on channel=3 note=70 velocity=49 time=0@note_on channel=9 note=41 velocity=0 time=0.12395833333333334@note_on channel=9 note=41 velocity=112 time=0.0010416666666666667@note_on channel=3 note=70 velocity=0 time=0.23020833333333332@note_on channel=0 note=70 velocity=0 time=0.01875@note_on channel=1 note=70 velocity=0 time=0@note_on channel=0 note=69 velocity=126 time=0.0010416666666666667@note_on channel=1 note=69 velocity=49 time=0@note_on channel=3 note=69 velocity=49 time=0@note_on channel=3 note=69 velocity=0 time=0.23645833333333333@note_on channel=0 note=69 velocity=0 time=0.0125@note_on channel=1 note=69 velocity=0 time=0@note_on channel=9 note=41 velocity=0 time=0@note_on channel=0 note=69 velocity=126 time=0.0010416666666666667@note_on channel=1 note=69 velocity=49 time=0@note_on channel=3 note=69 velocity=49 time=0@note_on channel=9 note=41 velocity=112 time=0@note_on channel=3 note=69 velocity=0 time=0.23645833333333333@note_on channel=0 note=69 velocity=0 time=0.0125@note_on channel=1 note=69 velocity=0 time=0@note_on channel=0 note=70 velocity=126 time=0.0010416666666666667@note_on channel=1 note=70 velocity=49 time=0@note_on channel=3 note=70 velocity=49 time=0@note_on channel=3 note=70 velocity=0 time=0.23645833333333333@note_on channel=0 note=70 velocity=0 time=0.0125@note_on channel=1 note=70 velocity=0 time=0@note_on channel=9 note=41 velocity=0 time=0@note_on channel=0 note=67 velocity=126 time=0.0010416666666666667@note_on channel=1 note=67 velocity=49 time=0@note_on channel=3 note=67 velocity=49 time=0@note_on channel=9 note=41 velocity=112 time=0@note_on channel=3 note=36 velocity=0 time=0.3989583333333333@note_on channel=3 note=43 velocity=0 time=0@note_on channel=3 note=48 velocity=0 time=0@note_on channel=0 note=67 velocity=0 time=0.1@note_on channel=1 note=67 velocity=0 time=0@note_on channel=2 note=36 velocity=0 time=0@note_on channel=2 note=43 velocity=0 time=0@note_on channel=2 note=48 velocity=0 time=0@note_on channel=3 note=67 velocity=0 time=0@note_on channel=9 note=41 velocity=0 time=0@note_on channel=0 note=70 velocity=127 time=0.0010416666666666667@note_on channel=1 note=70 velocity=58 time=0@note_on channel=2 note=34 velocity=112 time=0@note_on channel=2 note=41 velocity=112 time=0@note_on channel=2 note=46 velocity=112 time=0@note_on channel=3 note=70 velocity=58 time=0@note_on channel=3 note=34 velocity=49 time=0@note_on channel=3 note=41 velocity=49 time=0@note_on channel=3 note=46 velocity=49 time=0@note_on channel=9 note=41 velocity=112 time=0@note_on channel=0 note=70 velocity=0 time=0.37395833333333334@note_on channel=1 note=70 velocity=0 time=0@note_on channel=3 note=70 velocity=0 time=0@note_on channel=0 note=69 velocity=126 time=0.0010416666666666667@note_on channel=1 note=69 velocity=49 time=0@note_on channel=3 note=69 velocity=49 time=0@note_on channel=9 note=41 velocity=0 time=0.12395833333333334@note_on channel=9 note=41 velocity=112 time=0.0010416666666666667@note_on channel=3 note=69 velocity=0 time=0.23020833333333332@note_on channel=0 note=69 velocity=0 time=0.01875@note_on channel=1 note=69 velocity=0 time=0@note_on channel=0 note=67 velocity=126 time=0.0010416666666666667@note_on channel=1 note=67 velocity=49 time=0@note_on channel=3 note=67 velocity=49 time=0@note_on channel=3 note=67 velocity=0 time=0.23645833333333333@note_on channel=0 note=67 velocity=0 time=0.0125@note_on channel=1 note=67 velocity=0 time=0@note_on channel=9 note=41 velocity=0 time=0@note_on channel=0 note=67 velocity=126 time=0.0010416666666666667@note_on channel=1 note=67 velocity=49 time=0@note_on channel=3 note=67 velocity=49 time=0@note_on channel=9 note=41 velocity=112 time=0@note_on channel=3 note=67 velocity=0 time=0.23645833333333333@note_on channel=0 note=67 velocity=0 time=0.0125@note_on channel=1 note=67 velocity=0 time=0@note_on channel=0 note=69 velocity=126 time=0.0010416666666666667@note_on channel=1 note=69 velocity=49 time=0@note_on channel=3 note=69 velocity=49 time=0@note_on channel=3 note=69 velocity=0 time=0.23645833333333333@note_on channel=0 note=69 velocity=0 time=0.0125@note_on channel=1 note=69 velocity=0 time=0@note_on channel=9 note=41 velocity=0 time=0@note_on channel=0 note=65 velocity=126 time=0.0010416666666666667@note_on channel=1 note=65 velocity=49 time=0@note_on channel=3 note=65 velocity=49 time=0@note_on channel=9 note=41 velocity=112 time=0@note_on channel=3 note=34 velocity=0 time=0.3989583333333333@note_on channel=3 note=41 velocity=0 time=0@note_on channel=3 note=46 velocity=0 time=0@note_on channel=0 note=65 velocity=0 time=0.1@note_on channel=1 note=65 velocity=0 time=0@note_on channel=2 note=34 velocity=0 time=0@note_on channel=2 note=41 velocity=0 time=0@note_on channel=2 note=46 velocity=0 time=0@note_on channel=3 note=65 velocity=0 time=0@note_on channel=9 note=41 velocity=0 time=0@note_on channel=0 note=69 velocity=127 time=0.0010416666666666667@note_on channel=1 note=69 velocity=58 time=0@note_on channel=2 note=32 velocity=112 time=0@note_on channel=2 note=39 velocity=112 time=0@note_on channel=2 note=44 velocity=112 time=0@note_on channel=3 note=69 velocity=58 time=0@note_on channel=3 note=32 velocity=49 time=0@note_on channel=3 note=39 velocity=49 time=0@note_on channel=3 note=44 velocity=49 time=0@note_on channel=9 note=41 velocity=112 time=0@note_on channel=0 note=69 velocity=0 time=0.12395833333333334@note_on channel=1 note=69 velocity=0 time=0@note_on channel=3 note=69 velocity=0 time=0@note_on channel=0 note=67 velocity=126 time=0.0010416666666666667@note_on channel=1 note=67 velocity=49 time=0@note_on channel=3 note=67 velocity=49 time=0@note_on channel=3 note=67 velocity=0 time=0.11770833333333333@note_on channel=0 note=67 velocity=0 time=0.00625@note_on channel=1 note=67 velocity=0 time=0@note_on channel=0 note=65 velocity=126 time=0.0010416666666666667@note_on channel=1 note=65 velocity=49 time=0@note_on channel=3 note=65 velocity=49 time=0@note_on channel=3 note=65 velocity=0 time=0.11770833333333333@note_on channel=0 note=65 velocity=0 time=0.00625@note_on channel=1 note=65 velocity=0 time=0@note_on channel=0 note=69 velocity=126 time=0.0010416666666666667@note_on channel=1 note=69 velocity=49 time=0@note_on channel=3 note=69 velocity=49 time=0@note_on channel=3 note=69 velocity=0 time=0.11770833333333333@note_on channel=0 note=69 velocity=0 time=0.00625@note_on channel=1 note=69 velocity=0 time=0@note_on channel=9 note=41 velocity=0 time=0@note_on channel=0 note=67 velocity=126 time=0.0010416666666666667@note_on channel=1 note=67 velocity=49 time=0@note_on channel=3 note=67 velocity=49 time=0@note_on channel=9 note=41 velocity=112 time=0@note_on channel=3 note=67 velocity=0 time=0.11770833333333333@note_on channel=0 note=67 velocity=0 time=0.00625@note_on channel=1 note=67 velocity=0 time=0@note_on channel=0 note=62 velocity=126 time=0.0010416666666666667@note_on channel=1 note=62 velocity=49 time=0@note_on channel=3 note=62 velocity=49 time=0@note_on channel=3 note=62 velocity=0 time=0.11770833333333333@note_on channel=0 note=62 velocity=0 time=0.00625@note_on channel=1 note=62 velocity=0 time=0@note_on channel=0 note=64 velocity=126 time=0.0010416666666666667@note_on channel=1 note=64 velocity=49 time=0@note_on channel=3 note=64 velocity=49 time=0@note_on channel=3 note=32 velocity=0 time=0.19895833333333332@note_on channel=3 note=39 velocity=0 time=0@note_on channel=3 note=44 velocity=0 time=0@note_on channel=3 note=64 velocity=0 time=0.0375@note_on channel=0 note=64 velocity=0 time=0.0125@note_on channel=1 note=64 velocity=0 time=0@note_on channel=2 note=32 velocity=0 time=0@note_on channel=2 note=39 velocity=0 time=0@note_on channel=2 note=44 velocity=0 time=0@note_on channel=0 note=65 velocity=126 time=0.0010416666666666667@note_on channel=1 note=65 velocity=49 time=0@note_on channel=3 note=65 velocity=49 time=0@note_on channel=3 note=65 velocity=0 time=0.23645833333333333@note_on channel=0 note=65 velocity=0 time=0.0125@note_on channel=1 note=65 velocity=0 time=0@note_on channel=9 note=41 velocity=0 time=0@note_on channel=0 note=62 velocity=127 time=0.0010416666666666667@note_on channel=1 note=62 velocity=127 time=0@note_on channel=2 note=38 velocity=127 time=0@note_on channel=2 note=50 velocity=127 time=0@note_on channel=3 note=62 velocity=127 time=0@note_on channel=3 note=38 velocity=127 time=0@note_on channel=3 note=50 velocity=127 time=0@note_on channel=9 note=41 velocity=112 time=0@note_on channel=0 note=62 velocity=0 time=0.24895833333333334@note_on channel=1 note=62 velocity=0 time=0@note_on channel=2 note=38 velocity=0 time=0@note_on channel=2 note=50 velocity=0 time=0@note_on channel=3 note=62 velocity=0 time=0@note_on channel=3 note=38 velocity=0 time=0@note_on channel=3 note=50 velocity=0 time=0@note_on channel=9 note=41 velocity=0 time=0@note_on channel=0 note=64 velocity=127 time=0.0010416666666666667@note_on channel=1 note=64 velocity=127 time=0@note_on channel=2 note=40 velocity=127 time=0@note_on channel=2 note=52 velocity=127 time=0@note_on channel=3 note=64 velocity=127 time=0@note_on channel=3 note=40 velocity=127 time=0@note_on channel=3 note=52 velocity=127 time=0@note_on channel=9 note=41 velocity=112 time=0@note_on channel=0 note=64 velocity=0 time=0.24895833333333334@note_on channel=1 note=64 velocity=0 time=0@note_on channel=2 note=40 velocity=0 time=0@note_on channel=2 note=52 velocity=0 time=0@note_on channel=3 note=64 velocity=0 time=0@note_on channel=3 note=40 velocity=0 time=0@note_on channel=3 note=52 velocity=0 time=0@note_on channel=9 note=41 velocity=0 time=0@note_on channel=0 note=62 velocity=127 time=0.0010416666666666667@note_on channel=1 note=62 velocity=127 time=0@note_on channel=2 note=38 velocity=127 time=0@note_on channel=2 note=50 velocity=127 time=0@note_on channel=3 note=62 velocity=127 time=0@note_on channel=3 note=38 velocity=127 time=0@note_on channel=3 note=50 velocity=127 time=0@note_on channel=9 note=41 velocity=112 time=0@note_on channel=0 note=62 velocity=0 time=0.12395833333333334@note_on channel=1 note=62 velocity=0 time=0@note_on channel=2 note=38 velocity=0 time=0@note_on channel=2 note=50 velocity=0 time=0@note_on channel=3 note=62 velocity=0 time=0@note_on channel=3 note=38 velocity=0 time=0@note_on channel=3 note=50 velocity=0 time=0@note_on channel=9 note=41 velocity=0 time=0.125@note_on channel=0 note=62 velocity=80 time=0.0010416666666666667@note_on channel=1 note=62 velocity=80 time=0@note_on channel=2 note=38 velocity=80 time=0@note_on channel=2 note=45 velocity=80 time=0@note_on channel=2 note=50 velocity=80 time=0@note_on channel=3 note=62 velocity=80 time=0@note_on channel=3 note=38 velocity=80 time=0@note_on channel=3 note=45 velocity=80 time=0@note_on channel=3 note=50 velocity=80 time=0@note_on channel=9 note=41 velocity=112 time=0@note_on channel=9 note=37 velocity=112 time=0@note_on channel=9 note=41 velocity=0 time=0.12395833333333334@note_on channel=9 note=42 velocity=112 time=0.0010416666666666667@note_on channel=9 note=37 velocity=0 time=0.12395833333333334@note_on channel=9 note=37 velocity=112 time=0.0010416666666666667@note_on channel=3 note=62 velocity=0 time=0.10520833333333333@note_on channel=0 note=62 velocity=0 time=0.01875@note_on channel=1 note=62 velocity=0 time=0@note_on channel=9 note=42 velocity=0 time=0@note_on channel=9 note=37 velocity=0 time=0@note_on channel=0 note=64 velocity=80 time=0.0010416666666666667@note_on channel=1 note=64 velocity=80 time=0@note_on channel=3 note=64 velocity=80 time=0@note_on channel=9 note=36 velocity=112 time=0@note_on channel=9 note=37 velocity=112 time=0@note_on channel=9 note=37 velocity=0 time=0.12395833333333334@note_on channel=9 note=37 velocity=112 time=0.0010416666666666667@note_on channel=9 note=36 velocity=0 time=0.12395833333333334@note_on channel=9 note=37 velocity=0 time=0@note_on channel=9 note=42 velocity=112 time=0.0010416666666666667@note_on channel=9 note=37 velocity=112 time=0@note_on channel=3 note=64 velocity=0 time=0.10520833333333333@note_on channel=0 note=64 velocity=0 time=0.01875@note_on channel=1 note=64 velocity=0 time=0@note_on channel=9 note=42 velocity=0 time=0@note_on channel=9 note=37 velocity=0 time=0@note_on channel=0 note=65 velocity=80 time=0.0010416666666666667@note_on channel=1 note=65 velocity=80 time=0@note_on channel=3 note=65 velocity=80 time=0@note_on channel=9 note=41 velocity=112 time=0@note_on channel=9 note=37 velocity=112 time=0@note_on channel=3 note=65 velocity=0 time=0.23645833333333333@note_on channel=0 note=65 velocity=0 time=0.0125@note_on channel=1 note=65 velocity=0 time=0@note_on channel=9 note=41 velocity=0 time=0@note_on channel=9 note=37 velocity=0 time=0@note_on channel=0 note=67 velocity=80 time=0.0010416666666666667@note_on channel=1 note=67 velocity=80 time=0@note_on channel=3 note=67 velocity=80 time=0@note_on channel=9 note=42 velocity=112 time=0@note_on channel=9 note=37 velocity=112 time=0@note_on channel=9 note=42 velocity=0 time=0.24895833333333334@note_on channel=9 note=37 velocity=0 time=0@note_on channel=9 note=42 velocity=112 time=0.0010416666666666667@note_on channel=9 note=37 velocity=112 time=0@note_on channel=9 note=37 velocity=0 time=0.12395833333333334@note_on channel=9 note=37 velocity=112 time=0.0010416666666666667@note_on channel=3 note=67 velocity=0 time=0.09895833333333333@note_on channel=0 note=67 velocity=0 time=0.025@note_on channel=1 note=67 velocity=0 time=0@note_on channel=9 note=42 velocity=0 time=0@note_on channel=9 note=37 velocity=0 time=0@note_on channel=0 note=69 velocity=80 time=0.0010416666666666667@note_on channel=1 note=69 velocity=80 time=0@note_on channel=3 note=69 velocity=80 time=0@note_on channel=9 note=42 velocity=112 time=0@note_on channel=9 note=37 velocity=112 time=0@note_on channel=9 note=37 velocity=0 time=0.24895833333333334@note_on channel=9 note=37 velocity=112 time=0.0010416666666666667@note_on channel=3 note=38 velocity=0 time=0.14895833333333333@note_on channel=3 note=45 velocity=0 time=0@note_on channel=3 note=50 velocity=0 time=0@note_on channel=3 note=69 velocity=0 time=0.075@note_on channel=0 note=69 velocity=0 time=0.025@note_on channel=1 note=69 velocity=0 time=0@note_on channel=2 note=38 velocity=0 time=0@note_on channel=2 note=45 velocity=0 time=0@note_on channel=2 note=50 velocity=0 time=0@note_on channel=9 note=42 velocity=0 time=0@note_on channel=9 note=37 velocity=0 time=0@note_on channel=0 note=72 velocity=80 time=0.0010416666666666667@note_on channel=1 note=72 velocity=80 time=0@note_on channel=2 note=36 velocity=80 time=0@note_on channel=2 note=43 velocity=80 time=0@note_on channel=2 note=48 velocity=80 time=0@note_on channel=3 note=72 velocity=80 time=0@note_on channel=3 note=36 velocity=80 time=0@note_on channel=3 note=43 velocity=80 time=0@note_on channel=3 note=48 velocity=80 time=0@note_on channel=9 note=41 velocity=112 time=0@note_on channel=9 note=37 velocity=112 time=0@note_on channel=9 note=41 velocity=0 time=0.12395833333333334@note_on channel=9 note=42 velocity=112 time=0.0010416666666666667@note_on channel=3 note=72 velocity=0 time=0.23020833333333332@note_on channel=0 note=72 velocity=0 time=0.01875@note_on channel=1 note=72 velocity=0 time=0@note_on channel=9 note=42 velocity=0 time=0@note_on channel=9 note=37 velocity=0 time=0@note_on channel=0 note=70 velocity=80 time=0.0010416666666666667@note_on channel=1 note=70 velocity=80 time=0@note_on channel=3 note=70 velocity=80 time=0@note_on channel=9 note=36 velocity=112 time=0@note_on channel=9 note=37 velocity=112 time=0@note_on channel=9 note=36 velocity=0 time=0.24895833333333334@note_on channel=9 note=42 velocity=112 time=0.0010416666666666667@note_on channel=3 note=70 velocity=0 time=0.10520833333333333@note_on channel=0 note=70 velocity=0 time=0.01875@note_on channel=1 note=70 velocity=0 time=0@note_on channel=9 note=42 velocity=0 time=0@note_on channel=9 note=37 velocity=0 time=0@note_on channel=0 note=69 velocity=80 time=0.0010416666666666667@note_on channel=1 note=69 velocity=80 time=0@note_on channel=3 note=69 velocity=80 time=0@note_on channel=9 note=41 velocity=112 time=0@note_on channel=9 note=37 velocity=112 time=0@note_on channel=3 note=69 velocity=0 time=0.23645833333333333@note_on channel=0 note=69 velocity=0 time=0.0125@note_on channel=1 note=69 velocity=0 time=0@note_on channel=9 note=41 velocity=0 time=0@note_on channel=9 note=37 velocity=0 time=0@note_on channel=0 note=69 velocity=80 time=0.0010416666666666667@note_on channel=1 note=69 velocity=80 time=0@note_on channel=3 note=69 velocity=80 time=0@note_on channel=9 note=42 velocity=112 time=0@note_on channel=9 note=37 velocity=112 time=0@note_on channel=9 note=42 velocity=0 time=0.24895833333333334@note_on channel=9 note=37 velocity=0 time=0@note_on channel=9 note=43 velocity=112 time=0.0010416666666666667@note_on channel=9 note=37 velocity=112 time=0@note_on channel=3 note=69 velocity=0 time=0.22395833333333334@note_on channel=0 note=69 velocity=0 time=0.025@note_on channel=1 note=69 velocity=0 time=0@note_on channel=9 note=43 velocity=0 time=0@note_on channel=9 note=37 velocity=0 time=0@note_on channel=0 note=67 velocity=80 time=0.0010416666666666667@note_on channel=1 note=67 velocity=80 time=0@note_on channel=3 note=67 velocity=80 time=0@note_on channel=9 note=57 velocity=112 time=0@note_on channel=9 note=37 velocity=112 time=0@note_on channel=9 note=37 velocity=0 time=0.24895833333333334@note_on channel=9 note=37 velocity=112 time=0.0010416666666666667@note_on channel=3 note=36 velocity=0 time=0.14895833333333333@note_on channel=3 note=43 velocity=0 time=0@note_on channel=3 note=48 velocity=0 time=0@note_on channel=3 note=67 velocity=0 time=0.075@note_on channel=0 note=67 velocity=0 time=0.025@note_on channel=1 note=67 velocity=0 time=0@note_on channel=2 note=36 velocity=0 time=0@note_on channel=2 note=43 velocity=0 time=0@note_on channel=2 note=48 velocity=0 time=0@note_on channel=9 note=57 velocity=0 time=0@note_on channel=9 note=37 velocity=0 time=0@note_on channel=0 note=70 velocity=80 time=0.0010416666666666667@note_on channel=1 note=70 velocity=80 time=0@note_on channel=2 note=34 velocity=80 time=0@note_on channel=2 note=41 velocity=80 time=0@note_on channel=2 note=46 velocity=80 time=0@note_on channel=3 note=70 velocity=80 time=0@note_on channel=3 note=34 velocity=80 time=0@note_on channel=3 note=41 velocity=80 time=0@note_on channel=3 note=46 velocity=80 time=0@note_on channel=9 note=41 velocity=112 time=0@note_on channel=9 note=37 velocity=112 time=0@note_on channel=9 note=41 velocity=0 time=0.12395833333333334@note_on channel=9 note=42 velocity=112 time=0.0010416666666666667@note_on channel=3 note=70 velocity=0 time=0.23020833333333332@note_on channel=0 note=70 velocity=0 time=0.01875@note_on channel=1 note=70 velocity=0 time=0@note_on channel=9 note=42 velocity=0 time=0@note_on channel=9 note=37 velocity=0 time=0@note_on channel=0 note=69 velocity=80 time=0.0010416666666666667@note_on channel=1 note=69 velocity=80 time=0@note_on channel=3 note=69 velocity=80 time=0@note_on channel=9 note=36 velocity=112 time=0@note_on channel=9 note=37 velocity=112 time=0@note_on channel=9 note=36 velocity=0 time=0.24895833333333334@note_on channel=9 note=42 velocity=112 time=0.0010416666666666667@note_on channel=3 note=69 velocity=0 time=0.10520833333333333@note_on channel=0 note=69 velocity=0 time=0.01875@note_on channel=1 note=69 velocity=0 time=0@note_on channel=9 note=42 velocity=0 time=0@note_on channel=9 note=37 velocity=0 time=0@note_on channel=0 note=67 velocity=80 time=0.0010416666666666667@note_on channel=1 note=67 velocity=80 time=0@note_on channel=3 note=67 velocity=80 time=0@note_on channel=9 note=41 velocity=112 time=0@note_on channel=9 note=37 velocity=112 time=0@note_on channel=3 note=67 velocity=0 time=0.23645833333333333@note_on channel=0 note=67 velocity=0 time=0.0125@note_on channel=1 note=67 velocity=0 time=0@note_on channel=9 note=41 velocity=0 time=0@note_on channel=9 note=37 velocity=0 time=0@note_on channel=0 note=65 velocity=80 time=0.0010416666666666667@note_on channel=1 note=65 velocity=80 time=0@note_on channel=3 note=65 velocity=80 time=0@note_on channel=9 note=42 velocity=112 time=0@note_on channel=9 note=37 velocity=112 time=0@note_on channel=9 note=42 velocity=0 time=0.24895833333333334@note_on channel=9 note=37 velocity=0 time=0@note_on channel=9 note=42 velocity=112 time=0.0010416666666666667@note_on channel=9 note=37 velocity=112 time=0@note_on channel=3 note=65 velocity=0 time=0.22395833333333334@note_on channel=0 note=65 velocity=0 time=0.025@note_on channel=1 note=65 velocity=0 time=0@note_on channel=9 note=42 velocity=0 time=0@note_on channel=9 note=37 velocity=0 time=0@note_on channel=0 note=62 velocity=80 time=0.0010416666666666667@note_on channel=1 note=62 velocity=80 time=0@note_on channel=3 note=62 velocity=80 time=0@note_on channel=9 note=42 velocity=112 time=0@note_on channel=9 note=37 velocity=112 time=0@note_on channel=9 note=37 velocity=0 time=0.24895833333333334@note_on channel=9 note=37 velocity=112 time=0.0010416666666666667@note_on channel=3 note=34 velocity=0 time=0.14895833333333333@note_on channel=3 note=41 velocity=0 time=0@note_on channel=3 note=46 velocity=0 time=0@note_on channel=3 note=62 velocity=0 time=0.075@note_on channel=0 note=62 velocity=0 time=0.025@note_on channel=1 note=62 velocity=0 time=0@note_on channel=2 note=34 velocity=0 time=0@note_on channel=2 note=41 velocity=0 time=0@note_on channel=2 note=46 velocity=0 time=0@note_on channel=9 note=42 velocity=0 time=0@note_on channel=9 note=37 velocity=0 time=0@note_on channel=0 note=67 velocity=80 time=0.0010416666666666667@note_on channel=1 note=67 velocity=80 time=0@note_on channel=2 note=33 velocity=80 time=0@note_on channel=2 note=40 velocity=80 time=0@note_on channel=2 note=45 velocity=80 time=0@note_on channel=3 note=67 velocity=80 time=0@note_on channel=3 note=33 velocity=80 time=0@note_on channel=3 note=40 velocity=80 time=0@note_on channel=3 note=45 velocity=80 time=0@note_on channel=9 note=41 velocity=112 time=0@note_on channel=9 note=37 velocity=112 time=0@note_on channel=9 note=41 velocity=0 time=0.12395833333333334@note_on channel=9 note=42 velocity=112 time=0.0010416666666666667@note_on channel=3 note=67 velocity=0 time=0.23020833333333332@note_on channel=0 note=67 velocity=0 time=0.01875@note_on channel=1 note=67 velocity=0 time=0@note_on channel=9 note=42 velocity=0 time=0@note_on channel=9 note=37 velocity=0 time=0@note_on channel=0 note=67 velocity=80 time=0.0010416666666666667@note_on channel=1 note=67 velocity=80 time=0@note_on channel=3 note=67 velocity=83 time=0@note_on channel=9 note=36 velocity=112 time=0@note_on channel=9 note=37 velocity=112 time=0@note_on channel=9 note=36 velocity=0 time=0.24895833333333334@note_on channel=9 note=42 velocity=112 time=0.0010416666666666667@note_on channel=3 note=67 velocity=0 time=0.10520833333333333@note_on channel=0 note=67 velocity=0 time=0.01875@note_on channel=1 note=67 velocity=0 time=0@note_on channel=9 note=42 velocity=0 time=0@note_on channel=9 note=37 velocity=0 time=0@note_on channel=0 note=69 velocity=80 time=0.0010416666666666667@note_on channel=1 note=69 velocity=80 time=0@note_on channel=3 note=69 velocity=86 time=0@note_on channel=9 note=41 velocity=112 time=0@note_on channel=9 note=37 velocity=112 time=0@note_on channel=3 note=69 velocity=0 time=0.23645833333333333@note_on channel=0 note=69 velocity=0 time=0.0125@note_on channel=1 note=69 velocity=0 time=0@note_on channel=9 note=41 velocity=0 time=0@note_on channel=9 note=37 velocity=0 time=0@note_on channel=0 note=70 velocity=80 time=0.0010416666666666667@note_on channel=1 note=70 velocity=80 time=0@note_on channel=3 note=70 velocity=88 time=0@note_on channel=9 note=42 velocity=112 time=0@note_on channel=9 note=37 velocity=112 time=0@note_on channel=9 note=42 velocity=0 time=0.24895833333333334@note_on channel=9 note=37 velocity=0 time=0@note_on channel=9 note=43 velocity=112 time=0.0010416666666666667@note_on channel=9 note=37 velocity=112 time=0@note_on channel=3 note=70 velocity=0 time=0.22395833333333334@note_on channel=0 note=70 velocity=0 time=0.025@note_on channel=1 note=70 velocity=0 time=0@note_on channel=9 note=43 velocity=0 time=0@note_on channel=9 note=37 velocity=0 time=0@note_on channel=0 note=69 velocity=80 time=0.0010416666666666667@note_on channel=1 note=69 velocity=80 time=0@note_on channel=3 note=69 velocity=92 time=0@note_on channel=9 note=57 velocity=112 time=0@note_on channel=9 note=37 velocity=112 time=0@note_on channel=9 note=37 velocity=0 time=0.24895833333333334@note_on channel=9 note=37 velocity=112 time=0.0010416666666666667@note_on channel=3 note=33 velocity=0 time=0.14895833333333333@note_on channel=3 note=40 velocity=0 time=0@note_on channel=3 note=45 velocity=0 time=0@note_on channel=3 note=69 velocity=0 time=0.075@note_on channel=0 note=69 velocity=0 time=0.025@note_on channel=1 note=69 velocity=0 time=0@note_on channel=2 note=33 velocity=0 time=0@note_on channel=2 note=40 velocity=0 time=0@note_on channel=2 note=45 velocity=0 time=0@note_on channel=9 note=57 velocity=0 time=0@note_on channel=9 note=37 velocity=0 time=0@note_on channel=0 note=62 velocity=80 time=0.0010416666666666667@note_on channel=1 note=62 velocity=80 time=0@note_on channel=2 note=38 velocity=96 time=0@note_on channel=2 note=45 velocity=96 time=0@note_on channel=2 note=50 velocity=96 time=0@note_on channel=3 note=62 velocity=96 time=0@note_on channel=3 note=38 velocity=96 time=0@note_on channel=3 note=45 velocity=96 time=0@note_on channel=3 note=50 velocity=96 time=0@note_on channel=9 note=41 velocity=112 time=0@note_on channel=9 note=37 velocity=112 time=0@note_on channel=9 note=41 velocity=0 time=0.12395833333333334@note_on channel=9 note=42 velocity=112 time=0.0010416666666666667@note_on channel=3 note=62 velocity=0 time=0.23020833333333332@note_on channel=0 note=62 velocity=0 time=0.01875@note_on channel=1 note=62 velocity=0 time=0@note_on channel=9 note=42 velocity=0 time=0@note_on channel=9 note=37 velocity=0 time=0@note_on channel=0 note=64 velocity=80 time=0.0010416666666666667@note_on channel=1 note=64 velocity=80 time=0@note_on channel=3 note=64 velocity=96 time=0@note_on channel=9 note=36 velocity=112 time=0@note_on channel=9 note=37 velocity=112 time=0@note_on channel=9 note=36 velocity=0 time=0.24895833333333334@note_on channel=9 note=42 velocity=112 time=0.0010416666666666667@note_on channel=3 note=64 velocity=0 time=0.10520833333333333@note_on channel=0 note=64 velocity=0 time=0.01875@note_on channel=1 note=64 velocity=0 time=0@note_on channel=9 note=42 velocity=0 time=0@note_on channel=9 note=37 velocity=0 time=0@note_on channel=0 note=65 velocity=80 time=0.0010416666666666667@note_on channel=1 note=65 velocity=80 time=0@note_on channel=3 note=65 velocity=96 time=0@note_on channel=9 note=41 velocity=112 time=0@note_on channel=9 note=37 velocity=112 time=0@note_on channel=3 note=65 velocity=0 time=0.23645833333333333@note_on channel=0 note=65 velocity=0 time=0.0125@note_on channel=1 note=65 velocity=0 time=0@note_on channel=9 note=41 velocity=0 time=0@note_on channel=9 note=37 velocity=0 time=0@note_on channel=0 note=69 velocity=80 time=0.0010416666666666667@note_on channel=1 note=69 velocity=80 time=0@note_on channel=3 note=69 velocity=96 time=0@note_on channel=9 note=42 velocity=112 time=0@note_on channel=9 note=37 velocity=112 time=0@note_on channel=9 note=42 velocity=0 time=0.24895833333333334@note_on channel=9 note=37 velocity=0 time=0@note_on channel=9 note=42 velocity=112 time=0.0010416666666666667@note_on channel=9 note=37 velocity=112 time=0@note_on channel=3 note=69 velocity=0 time=0.22395833333333334@note_on channel=0 note=69 velocity=0 time=0.025@note_on channel=1 note=69 velocity=0 time=0@note_on channel=9 note=42 velocity=0 time=0@note_on channel=9 note=37 velocity=0 time=0@note_on channel=0 note=65 velocity=80 time=0.0010416666666666667@note_on channel=1 note=65 velocity=80 time=0@note_on channel=3 note=65 velocity=96 time=0@note_on channel=9 note=42 velocity=112 time=0@note_on channel=9 note=37 velocity=112 time=0@note_on channel=9 note=37 velocity=0 time=0.24895833333333334@note_on channel=9 note=37 velocity=112 time=0.0010416666666666667@note_on channel=3 note=38 velocity=0 time=0.14895833333333333@note_on channel=3 note=45 velocity=0 time=0@note_on channel=3 note=50 velocity=0 time=0@note_on channel=3 note=65 velocity=0 time=0.075@note_on channel=0 note=65 velocity=0 time=0.025@note_on channel=1 note=65 velocity=0 time=0@note_on channel=2 note=38 velocity=0 time=0@note_on channel=2 note=45 velocity=0 time=0@note_on channel=2 note=50 velocity=0 time=0@note_on channel=9 note=42 velocity=0 time=0@note_on channel=9 note=37 velocity=0 time=0@note_on channel=0 note=67 velocity=80 time=0.0010416666666666667@note_on channel=1 note=67 velocity=80 time=0@note_on channel=2 note=36 velocity=96 time=0@note_on channel=2 note=43 velocity=96 time=0@note_on channel=2 note=48 velocity=96 time=0@note_on channel=3 note=67 velocity=96 time=0@note_on channel=3 note=36 velocity=96 time=0@note_on channel=3 note=43 velocity=96 time=0@note_on channel=3 note=48 velocity=96 time=0@note_on channel=9 note=41 velocity=112 time=0@note_on channel=9 note=37 velocity=112 time=0@note_on channel=9 note=41 velocity=0 time=0.12395833333333334@note_on channel=9 note=42 velocity=112 time=0.0010416666666666667@note_on channel=3 note=67 velocity=0 time=0.23020833333333332@note_on channel=0 note=67 velocity=0 time=0.01875@note_on channel=1 note=67 velocity=0 time=0@note_on channel=9 note=42 velocity=0 time=0@note_on channel=9 note=37 velocity=0 time=0@note_on channel=0 note=69 velocity=80 time=0.0010416666666666667@note_on channel=1 note=69 velocity=80 time=0@note_on channel=3 note=69 velocity=96 time=0@note_on channel=9 note=36 velocity=112 time=0@note_on channel=9 note=37 velocity=112 time=0@note_on channel=9 note=36 velocity=0 time=0.24895833333333334@note_on channel=9 note=42 velocity=112 time=0.0010416666666666667@note_on channel=3 note=69 velocity=0 time=0.10520833333333333@note_on channel=0 note=69 velocity=0 time=0.01875@note_on channel=1 note=69 velocity=0 time=0@note_on channel=9 note=42 velocity=0 time=0@note_on channel=9 note=37 velocity=0 time=0@note_on channel=0 note=70 velocity=80 time=0.0010416666666666667@note_on channel=1 note=70 velocity=80 time=0@note_on channel=3 note=70 velocity=96 time=0@note_on channel=9 note=41 velocity=112 time=0@note_on channel=9 note=37 velocity=112 time=0@note_on channel=3 note=70 velocity=0 time=0.23645833333333333@note_on channel=0 note=70 velocity=0 time=0.0125@note_on channel=1 note=70 velocity=0 time=0@note_on channel=9 note=41 velocity=0 time=0@note_on channel=9 note=37 velocity=0 time=0@note_on channel=0 note=69 velocity=80 time=0.0010416666666666667@note_on channel=1 note=69 velocity=80 time=0@note_on channel=3 note=69 velocity=96 time=0@note_on channel=9 note=42 velocity=112 time=0@note_on channel=9 note=37 velocity=112 time=0@note_on channel=9 note=42 velocity=0 time=0.24895833333333334@note_on channel=9 note=37 velocity=0 time=0@note_on channel=9 note=43 velocity=112 time=0.0010416666666666667@note_on channel=9 note=37 velocity=112 time=0@note_on channel=3 note=36 velocity=0 time=0.17395833333333333@note_on channel=3 note=43 velocity=0 time=0@note_on channel=3 note=48 velocity=0 time=0@note_on channel=3 note=69 velocity=0 time=0.05@note_on channel=0 note=69 velocity=0 time=0.025@note_on channel=1 note=69 velocity=0 time=0@note_on channel=2 note=36 velocity=0 time=0@note_on channel=2 note=43 velocity=0 time=0@note_on channel=2 note=48 velocity=0 time=0@note_on channel=9 note=43 velocity=0 time=0@note_on channel=9 note=37 velocity=0 time=0@note_on channel=0 note=67 velocity=80 time=0.0010416666666666667@note_on channel=1 note=67 velocity=80 time=0@note_on channel=2 note=33 velocity=96 time=0@note_on channel=2 note=40 velocity=96 time=0@note_on channel=2 note=45 velocity=96 time=0@note_on channel=3 note=67 velocity=96 time=0@note_on channel=3 note=33 velocity=96 time=0@note_on channel=3 note=40 velocity=96 time=0@note_on channel=3 note=45 velocity=96 time=0@note_on channel=9 note=57 velocity=112 time=0@note_on channel=9 note=37 velocity=112 time=0@note_on channel=9 note=37 velocity=0 time=0.24895833333333334@note_on channel=9 note=37 velocity=112 time=0.0010416666666666667@note_on channel=3 note=67 velocity=0 time=0.22395833333333334@note_on channel=3 note=33 velocity=0 time=0@note_on channel=3 note=40 velocity=0 time=0@note_on channel=3 note=45 velocity=0 time=0@note_on channel=0 note=67 velocity=0 time=0.025@note_on channel=1 note=67 velocity=0 time=0@note_on channel=2 note=33 velocity=0 time=0@note_on channel=2 note=40 velocity=0 time=0@note_on channel=2 note=45 velocity=0 time=0@note_on channel=9 note=57 velocity=0 time=0@note_on channel=9 note=37 velocity=0 time=0@note_on channel=0 note=65 velocity=86 time=0.0010416666666666667@note_on channel=1 note=65 velocity=86 time=0@note_on channel=2 note=34 velocity=99 time=0@note_on channel=2 note=41 velocity=99 time=0@note_on channel=2 note=46 velocity=99 time=0@note_on channel=3 note=65 velocity=99 time=0@note_on channel=3 note=34 velocity=99 time=0@note_on channel=3 note=41 velocity=99 time=0@note_on channel=3 note=46 velocity=99 time=0@note_on channel=9 note=41 velocity=112 time=0@note_on channel=9 note=37 velocity=112 time=0@note_on channel=9 note=41 velocity=0 time=0.12395833333333334@note_on channel=9 note=42 velocity=112 time=0.0010416666666666667@note_on channel=3 note=65 velocity=0 time=0.23020833333333332@note_on channel=0 note=65 velocity=0 time=0.01875@note_on channel=1 note=65 velocity=0 time=0@note_on channel=9 note=42 velocity=0 time=0@note_on channel=9 note=37 velocity=0 time=0@note_on channel=0 note=67 velocity=91 time=0.0010416666666666667@note_on channel=1 note=67 velocity=91 time=0@note_on channel=3 note=67 velocity=101 time=0@note_on channel=9 note=36 velocity=112 time=0@note_on channel=9 note=37 velocity=112 time=0@note_on channel=9 note=36 velocity=0 time=0.24895833333333334@note_on channel=9 note=42 velocity=112 time=0.0010416666666666667@note_on channel=3 note=67 velocity=0 time=0.10520833333333333@note_on channel=0 note=67 velocity=0 time=0.01875@note_on channel=1 note=67 velocity=0 time=0@note_on channel=9 note=42 velocity=0 time=0@note_on channel=9 note=37 velocity=0 time=0@note_on channel=0 note=69 velocity=96 time=0.0010416666666666667@note_on channel=1 note=69 velocity=96 time=0@note_on channel=3 note=69 velocity=104 time=0@note_on channel=9 note=41 velocity=112 time=0@note_on channel=9 note=37 velocity=112 time=0@note_on channel=3 note=69 velocity=0 time=0.23645833333333333@note_on channel=0 note=69 velocity=0 time=0.0125@note_on channel=1 note=69 velocity=0 time=0@note_on channel=9 note=41 velocity=0 time=0@note_on channel=9 note=37 velocity=0 time=0@note_on channel=0 note=65 velocity=99 time=0.0010416666666666667@note_on channel=1 note=65 velocity=99 time=0@note_on channel=3 note=65 velocity=105 time=0@note_on channel=9 note=42 velocity=112 time=0@note_on channel=9 note=37 velocity=112 time=0@note_on channel=9 note=42 velocity=0 time=0.24895833333333334@note_on channel=9 note=37 velocity=0 time=0@note_on channel=9 note=42 velocity=112 time=0.0010416666666666667@note_on channel=9 note=37 velocity=112 time=0@note_on channel=3 note=65 velocity=0 time=0.22395833333333334@note_on channel=0 note=65 velocity=0 time=0.025@note_on channel=1 note=65 velocity=0 time=0@note_on channel=9 note=42 velocity=0 time=0@note_on channel=9 note=37 velocity=0 time=0@note_on channel=0 note=62 velocity=105 time=0.0010416666666666667@note_on channel=1 note=62 velocity=105 time=0@note_on channel=3 note=62 velocity=108 time=0@note_on channel=9 note=42 velocity=112 time=0@note_on channel=9 note=37 velocity=112 time=0@note_on channel=9 note=37 velocity=0 time=0.24895833333333334@note_on channel=9 note=37 velocity=112 time=0.0010416666666666667@note_on channel=3 note=34 velocity=0 time=0.14895833333333333@note_on channel=3 note=41 velocity=0 time=0@note_on channel=3 note=46 velocity=0 time=0@note_on channel=3 note=62 velocity=0 time=0.075@note_on channel=0 note=62 velocity=0 time=0.025@note_on channel=1 note=62 velocity=0 time=0@note_on channel=2 note=34 velocity=0 time=0@note_on channel=2 note=41 velocity=0 time=0@note_on channel=2 note=46 velocity=0 time=0@note_on channel=9 note=42 velocity=0 time=0@note_on channel=9 note=37 velocity=0 time=0@note_on channel=0 note=73 velocity=112 time=0.0010416666666666667@note_on channel=1 note=73 velocity=112 time=0@note_on channel=2 note=38 velocity=112 time=0@note_on channel=2 note=45 velocity=112 time=0@note_on channel=2 note=50 velocity=112 time=0@note_on channel=3 note=73 velocity=112 time=0@note_on channel=3 note=38 velocity=112 time=0@note_on channel=3 note=45 velocity=112 time=0@note_on channel=3 note=50 velocity=112 time=0@note_on channel=9 note=41 velocity=112 time=0@note_on channel=9 note=37 velocity=112 time=0@note_on channel=9 note=41 velocity=0 time=0.12395833333333334@note_on channel=9 note=42 velocity=112 time=0.0010416666666666667@note_on channel=9 note=42 velocity=0 time=0.24895833333333334@note_on channel=9 note=37 velocity=0 time=0@note_on channel=9 note=36 velocity=112 time=0.0010416666666666667@note_on channel=9 note=37 velocity=112 time=0@note_on channel=9 note=36 velocity=0 time=0.24895833333333334@note_on channel=9 note=42 velocity=112 time=0.0010416666666666667@note_on channel=9 note=42 velocity=0 time=0.12395833333333334@note_on channel=9 note=37 velocity=0 time=0@note_on channel=9 note=41 velocity=112 time=0.0010416666666666667@note_on channel=9 note=37 velocity=112 time=0@note_on channel=3 note=73 velocity=0 time=0.19895833333333332@note_on channel=0 note=73 velocity=0 time=0.05@note_on channel=1 note=73 velocity=0 time=0@note_on channel=9 note=41 velocity=0 time=0@note_on channel=9 note=37 velocity=0 time=0@note_on channel=0 note=62 velocity=126 time=0.0010416666666666667@note_on channel=0 note=74 velocity=126 time=0@note_on channel=1 note=62 velocity=126 time=0@note_on channel=1 note=74 velocity=126 time=0@note_on channel=3 note=62 velocity=126 time=0@note_on channel=3 note=74 velocity=126 time=0@note_on channel=9 note=42 velocity=112 time=0@note_on channel=9 note=37 velocity=112 time=0@note_on channel=9 note=42 velocity=0 time=0.24895833333333334@note_on channel=9 note=37 velocity=0 time=0@note_on channel=9 note=43 velocity=112 time=0.0010416666666666667@note_on channel=9 note=37 velocity=112 time=0@note_on channel=3 note=38 velocity=0 time=0.17395833333333333@note_on channel=3 note=45 velocity=0 time=0@note_on channel=3 note=50 velocity=0 time=0@note_on channel=3 note=62 velocity=0 time=0.05@note_on channel=3 note=74 velocity=0 time=0@note_on channel=0 note=62 velocity=0 time=0.025@note_on channel=0 note=74 velocity=0 time=0@note_on channel=1 note=62 velocity=0 time=0@note_on channel=1 note=74 velocity=0 time=0@note_on channel=2 note=38 velocity=0 time=0@note_on channel=2 note=45 velocity=0 time=0@note_on channel=2 note=50 velocity=0 time=0@note_on channel=9 note=43 velocity=0 time=0@note_on channel=9 note=37 velocity=0 time=0@note_on channel=0 note=69 velocity=126 time=0.0010416666666666667@note_on channel=1 note=69 velocity=126 time=0@note_on channel=2 note=45 velocity=112 time=0@note_on channel=2 note=57 velocity=112 time=0@note_on channel=3 note=69 velocity=126 time=0@note_on channel=3 note=45 velocity=126 time=0@note_on channel=3 note=57 velocity=126 time=0@note_on channel=9 note=57 velocity=112 time=0@note_on channel=9 note=37 velocity=112 time=0@note_on channel=3 note=69 velocity=0 time=0.11770833333333333@note_on channel=3 note=45 velocity=0 time=0@note_on channel=3 note=57 velocity=0 time=0@note_on channel=0 note=69 velocity=0 time=0.00625@note_on channel=1 note=69 velocity=0 time=0@note_on channel=2 note=45 velocity=0 time=0@note_on channel=2 note=57 velocity=0 time=0@note_on channel=0 note=67 velocity=112 time=0.0010416666666666667@note_on channel=1 note=67 velocity=112 time=0@note_on channel=2 note=43 velocity=112 time=0@note_on channel=2 note=55 velocity=112 time=0@note_on channel=3 note=67 velocity=112 time=0@note_on channel=3 note=43 velocity=112 time=0@note_on channel=3 note=55 velocity=112 time=0@note_on channel=3 note=67 velocity=0 time=0.11770833333333333@note_on channel=3 note=43 velocity=0 time=0@note_on channel=3 note=55 velocity=0 time=0@note_on channel=0 note=67 velocity=0 time=0.00625@note_on channel=1 note=67 velocity=0 time=0@note_on channel=2 note=43 velocity=0 time=0@note_on channel=2 note=55 velocity=0 time=0@note_on channel=9 note=37 velocity=0 time=0@note_on channel=0 note=65 velocity=112 time=0.0010416666666666667@note_on channel=1 note=65 velocity=112 time=0@note_on channel=2 note=41 velocity=112 time=0@note_on channel=2 note=53 velocity=112 time=0@note_on channel=3 note=65 velocity=112 time=0@note_on channel=3 note=41 velocity=112 time=0@note_on channel=3 note=53 velocity=112 time=0@note_on channel=9 note=37 velocity=112 time=0@note_on channel=3 note=65 velocity=0 time=0.11770833333333333@note_on channel=3 note=41 velocity=0 time=0@note_on channel=3 note=53 velocity=0 time=0@note_on channel=0 note=65 velocity=0 time=0.00625@note_on channel=1 note=65 velocity=0 time=0@note_on channel=2 note=41 velocity=0 time=0@note_on channel=2 note=53 velocity=0 time=0@note_on channel=0 note=64 velocity=112 time=0.0010416666666666667@note_on channel=1 note=64 velocity=112 time=0@note_on channel=2 note=40 velocity=112 time=0@note_on channel=2 note=52 velocity=112 time=0@note_on channel=3 note=64 velocity=112 time=0@note_on channel=3 note=40 velocity=112 time=0@note_on channel=3 note=52 velocity=112 time=0@note_on channel=3 note=64 velocity=0 time=0.11770833333333333@note_on channel=3 note=40 velocity=0 time=0@note_on channel=3 note=52 velocity=0 time=0@note_on channel=0 note=64 velocity=0 time=0.00625@note_on channel=1 note=64 velocity=0 time=0@note_on channel=2 note=40 velocity=0 time=0@note_on channel=2 note=52 velocity=0 time=0@note_on channel=9 note=57 velocity=0 time=0@note_on channel=9 note=37 velocity=0 time=0@note_on channel=0 note=62 velocity=112 time=0.0010416666666666667@note_on channel=1 note=62 velocity=112 time=0@note_on channel=2 note=38 velocity=112 time=0@note_on channel=2 note=45 velocity=112 time=0@note_on channel=2 note=50 velocity=112 time=0@note_on channel=3 note=62 velocity=112 time=0@note_on channel=3 note=38 velocity=112 time=0@note_on channel=3 note=45 velocity=112 time=0@note_on channel=3 note=50 velocity=112 time=0@note_on channel=4 note=62 velocity=112 time=0@note_on channel=9 note=41 velocity=112 time=0@note_on channel=9 note=37 velocity=112 time=0@note_on channel=9 note=41 velocity=0 time=0.12395833333333334@note_on channel=9 note=42 velocity=112 time=0.0010416666666666667@note_on channel=3 note=62 velocity=0 time=0.23020833333333332@note_on channel=0 note=62 velocity=0 time=0.01875@note_on channel=1 note=62 velocity=0 time=0@note_on channel=4 note=62 velocity=0 time=0@note_on channel=9 note=42 velocity=0 time=0@note_on channel=9 note=37 velocity=0 time=0@note_on channel=0 note=64 velocity=112 time=0.0010416666666666667@note_on channel=1 note=64 velocity=112 time=0@note_on channel=3 note=64 velocity=112 time=0@note_on channel=4 note=64 velocity=112 time=0@note_on channel=9 note=36 velocity=112 time=0@note_on channel=9 note=37 velocity=112 time=0@note_on channel=9 note=36 velocity=0 time=0.24895833333333334@note_on channel=9 note=42 velocity=112 time=0.0010416666666666667@note_on channel=3 note=64 velocity=0 time=0.10520833333333333@note_on channel=0 note=64 velocity=0 time=0.01875@note_on channel=1 note=64 velocity=0 time=0@note_on channel=4 note=64 velocity=0 time=0@note_on channel=9 note=42 velocity=0 time=0@note_on channel=9 note=37 velocity=0 time=0@note_on channel=0 note=65 velocity=112 time=0.0010416666666666667@note_on channel=1 note=65 velocity=112 time=0@note_on channel=3 note=65 velocity=112 time=0@note_on channel=4 note=65 velocity=112 time=0@note_on channel=9 note=41 velocity=112 time=0@note_on channel=9 note=37 velocity=112 time=0@note_on channel=3 note=65 velocity=0 time=0.23645833333333333@note_on channel=0 note=65 velocity=0 time=0.0125@note_on channel=1 note=65 velocity=0 time=0@note_on channel=4 note=65 velocity=0 time=0@note_on channel=9 note=41 velocity=0 time=0@note_on channel=9 note=37 velocity=0 time=0@note_on channel=0 note=67 velocity=112 time=0.0010416666666666667@note_on channel=1 note=67 velocity=112 time=0@note_on channel=3 note=67 velocity=112 time=0@note_on channel=4 note=67 velocity=112 time=0@note_on channel=9 note=42 velocity=112 time=0@note_on channel=9 note=37 velocity=112 time=0@note_on channel=9 note=42 velocity=0 time=0.24895833333333334@note_on channel=9 note=37 velocity=0 time=0@note_on channel=9 note=42 velocity=112 time=0.0010416666666666667@note_on channel=9 note=37 velocity=112 time=0@note_on channel=3 note=67 velocity=0 time=0.22395833333333334@note_on channel=0 note=67 velocity=0 time=0.025@note_on channel=1 note=67 velocity=0 time=0@note_on channel=4 note=67 velocity=0 time=0@note_on channel=9 note=42 velocity=0 time=0@note_on channel=9 note=37 velocity=0 time=0@note_on channel=0 note=69 velocity=112 time=0.0010416666666666667@note_on channel=1 note=69 velocity=112 time=0@note_on channel=3 note=69 velocity=112 time=0@note_on channel=4 note=69 velocity=112 time=0@note_on channel=9 note=42 velocity=112 time=0@note_on channel=9 note=37 velocity=112 time=0@note_on channel=9 note=37 velocity=0 time=0.24895833333333334@note_on channel=9 note=37 velocity=112 time=0.0010416666666666667@note_on channel=3 note=38 velocity=0 time=0.14895833333333333@note_on channel=3 note=45 velocity=0 time=0@note_on channel=3 note=50 velocity=0 time=0@note_on channel=3 note=69 velocity=0 time=0.075@note_on channel=0 note=69 velocity=0 time=0.025@note_on channel=1 note=69 velocity=0 time=0@note_on channel=2 note=38 velocity=0 time=0@note_on channel=2 note=45 velocity=0 time=0@note_on channel=2 note=50 velocity=0 time=0@note_on channel=4 note=69 velocity=0 time=0@note_on channel=9 note=42 velocity=0 time=0@note_on channel=9 note=37 velocity=0 time=0@note_on channel=0 note=72 velocity=112 time=0.0010416666666666667@note_on channel=1 note=72 velocity=112 time=0@note_on channel=2 note=36 velocity=112 time=0@note_on channel=2 note=43 velocity=112 time=0@note_on channel=2 note=48 velocity=112 time=0@note_on channel=3 note=72 velocity=112 time=0@note_on channel=3 note=36 velocity=112 time=0@note_on channel=3 note=43 velocity=112 time=0@note_on channel=3 note=48 velocity=112 time=0@note_on channel=4 note=72 velocity=112 time=0@note_on channel=9 note=41 velocity=112 time=0@note_on channel=9 note=37 velocity=112 time=0@note_on channel=9 note=41 velocity=0 time=0.12395833333333334@note_on channel=9 note=42 velocity=112 time=0.0010416666666666667@note_on channel=3 note=72 velocity=0 time=0.23020833333333332@note_on channel=0 note=72 velocity=0 time=0.01875@note_on channel=1 note=72 velocity=0 time=0@note_on channel=4 note=72 velocity=0 time=0@note_on channel=9 note=42 velocity=0 time=0@note_on channel=9 note=37 velocity=0 time=0@note_on channel=0 note=70 velocity=112 time=0.0010416666666666667@note_on channel=1 note=70 velocity=112 time=0@note_on channel=3 note=70 velocity=112 time=0@note_on channel=4 note=70 velocity=112 time=0@note_on channel=9 note=36 velocity=112 time=0@note_on channel=9 note=37 velocity=112 time=0@note_on channel=9 note=36 velocity=0 time=0.24895833333333334@note_on channel=9 note=42 velocity=112 time=0.0010416666666666667@note_on channel=3 note=70 velocity=0 time=0.10520833333333333@note_on channel=0 note=70 velocity=0 time=0.01875@note_on channel=1 note=70 velocity=0 time=0@note_on channel=4 note=70 velocity=0 time=0@note_on channel=9 note=42 velocity=0 time=0@note_on channel=9 note=37 velocity=0 time=0@note_on channel=0 note=69 velocity=112 time=0.0010416666666666667@note_on channel=1 note=69 velocity=112 time=0@note_on channel=3 note=69 velocity=112 time=0@note_on channel=4 note=69 velocity=112 time=0@note_on channel=9 note=41 velocity=112 time=0@note_on channel=9 note=37 velocity=112 time=0@note_on channel=3 note=69 velocity=0 time=0.23645833333333333@note_on channel=0 note=69 velocity=0 time=0.0125@note_on channel=1 note=69 velocity=0 time=0@note_on channel=4 note=69 velocity=0 time=0@note_on channel=9 note=41 velocity=0 time=0@note_on channel=9 note=37 velocity=0 time=0@note_on channel=0 note=69 velocity=112 time=0.0010416666666666667@note_on channel=1 note=69 velocity=112 time=0@note_on channel=3 note=69 velocity=112 time=0@note_on channel=4 note=69 velocity=112 time=0@note_on channel=9 note=42 velocity=112 time=0@note_on channel=9 note=37 velocity=112 time=0@note_on channel=9 note=42 velocity=0 time=0.24895833333333334@note_on channel=9 note=37 velocity=0 time=0@note_on channel=9 note=43 velocity=112 time=0.0010416666666666667@note_on channel=9 note=37 velocity=112 time=0@note_on channel=3 note=69 velocity=0 time=0.22395833333333334@note_on channel=0 note=69 velocity=0 time=0.025@note_on channel=1 note=69 velocity=0 time=0@note_on channel=4 note=69 velocity=0 time=0@note_on channel=9 note=43 velocity=0 time=0@note_on channel=9 note=37 velocity=0 time=0@note_on channel=0 note=67 velocity=112 time=0.0010416666666666667@note_on channel=1 note=67 velocity=112 time=0@note_on channel=3 note=67 velocity=112 time=0@note_on channel=4 note=67 velocity=112 time=0@note_on channel=9 note=57 velocity=112 time=0@note_on channel=9 note=37 velocity=112 time=0@note_on channel=9 note=37 velocity=0 time=0.24895833333333334@note_on channel=9 note=37 velocity=112 time=0.0010416666666666667@note_on channel=3 note=36 velocity=0 time=0.14895833333333333@note_on channel=3 note=43 velocity=0 time=0@note_on channel=3 note=48 velocity=0 time=0@note_on channel=3 note=67 velocity=0 time=0.075@note_on channel=0 note=67 velocity=0 time=0.025@note_on channel=1 note=67 velocity=0 time=0@note_on channel=2 note=36 velocity=0 time=0@note_on channel=2 note=43 velocity=0 time=0@note_on channel=2 note=48 velocity=0 time=0@note_on channel=4 note=67 velocity=0 time=0@note_on channel=9 note=57 velocity=0 time=0@note_on channel=9 note=37 velocity=0 time=0@note_on channel=0 note=70 velocity=112 time=0.0010416666666666667@note_on channel=1 note=70 velocity=112 time=0@note_on channel=2 note=34 velocity=112 time=0@note_on channel=2 note=41 velocity=112 time=0@note_on channel=2 note=46 velocity=112 time=0@note_on channel=3 note=70 velocity=112 time=0@note_on channel=3 note=34 velocity=112 time=0@note_on channel=3 note=41 velocity=112 time=0@note_on channel=3 note=46 velocity=112 time=0@note_on channel=4 note=70 velocity=112 time=0@note_on channel=9 note=41 velocity=112 time=0@note_on channel=9 note=37 velocity=112 time=0@note_on channel=9 note=41 velocity=0 time=0.12395833333333334@note_on channel=9 note=42 velocity=112 time=0.0010416666666666667@note_on channel=3 note=70 velocity=0 time=0.23020833333333332@note_on channel=0 note=70 velocity=0 time=0.01875@note_on channel=1 note=70 velocity=0 time=0@note_on channel=4 note=70 velocity=0 time=0@note_on channel=9 note=42 velocity=0 time=0@note_on channel=9 note=37 velocity=0 time=0@note_on channel=0 note=69 velocity=112 time=0.0010416666666666667@note_on channel=1 note=69 velocity=112 time=0@note_on channel=3 note=69 velocity=112 time=0@note_on channel=4 note=69 velocity=112 time=0@note_on channel=9 note=36 velocity=112 time=0@note_on channel=9 note=37 velocity=112 time=0@note_on channel=9 note=36 velocity=0 time=0.24895833333333334@note_on channel=9 note=42 velocity=112 time=0.0010416666666666667@note_on channel=3 note=69 velocity=0 time=0.10520833333333333@note_on channel=0 note=69 velocity=0 time=0.01875@note_on channel=1 note=69 velocity=0 time=0@note_on channel=4 note=69 velocity=0 time=0@note_on channel=9 note=42 velocity=0 time=0@note_on channel=9 note=37 velocity=0 time=0@note_on channel=0 note=67 velocity=112 time=0.0010416666666666667@note_on channel=1 note=67 velocity=112 time=0@note_on channel=3 note=67 velocity=112 time=0@note_on channel=4 note=67 velocity=112 time=0@note_on channel=9 note=41 velocity=112 time=0@note_on channel=9 note=37 velocity=112 time=0@note_on channel=3 note=67 velocity=0 time=0.23645833333333333@note_on channel=0 note=67 velocity=0 time=0.0125@note_on channel=1 note=67 velocity=0 time=0@note_on channel=4 note=67 velocity=0 time=0@note_on channel=9 note=41 velocity=0 time=0@note_on channel=9 note=37 velocity=0 time=0@note_on channel=0 note=65 velocity=112 time=0.0010416666666666667@note_on channel=1 note=65 velocity=112 time=0@note_on channel=3 note=65 velocity=112 time=0@note_on channel=4 note=65 velocity=112 time=0@note_on channel=9 note=42 velocity=112 time=0@note_on channel=9 note=37 velocity=112 time=0@note_on channel=9 note=42 velocity=0 time=0.24895833333333334@note_on channel=9 note=37 velocity=0 time=0@note_on channel=9 note=42 velocity=112 time=0.0010416666666666667@note_on channel=9 note=37 velocity=112 time=0@note_on channel=3 note=65 velocity=0 time=0.22395833333333334@note_on channel=0 note=65 velocity=0 time=0.025@note_on channel=1 note=65 velocity=0 time=0@note_on channel=4 note=65 velocity=0 time=0@note_on channel=9 note=42 velocity=0 time=0@note_on channel=9 note=37 velocity=0 time=0@note_on channel=0 note=62 velocity=112 time=0.0010416666666666667@note_on channel=1 note=62 velocity=112 time=0@note_on channel=3 note=62 velocity=112 time=0@note_on channel=4 note=62 velocity=112 time=0@note_on channel=9 note=42 velocity=112 time=0@note_on channel=9 note=37 velocity=112 time=0@note_on channel=9 note=37 velocity=0 time=0.24895833333333334@note_on channel=9 note=37 velocity=112 time=0.0010416666666666667@note_on channel=3 note=34 velocity=0 time=0.14895833333333333@note_on channel=3 note=41 velocity=0 time=0@note_on channel=3 note=46 velocity=0 time=0@note_on channel=3 note=62 velocity=0 time=0.075@note_on channel=0 note=62 velocity=0 time=0.025@note_on channel=1 note=62 velocity=0 time=0@note_on channel=2 note=34 velocity=0 time=0@note_on channel=2 note=41 velocity=0 time=0@note_on channel=2 note=46 velocity=0 time=0@note_on channel=4 note=62 velocity=0 time=0@note_on channel=9 note=42 velocity=0 time=0@note_on channel=9 note=37 velocity=0 time=0@note_on channel=0 note=67 velocity=112 time=0.0010416666666666667@note_on channel=1 note=67 velocity=112 time=0@note_on channel=2 note=33 velocity=112 time=0@note_on channel=2 note=40 velocity=112 time=0@note_on channel=2 note=45 velocity=112 time=0@note_on channel=3 note=67 velocity=112 time=0@note_on channel=3 note=33 velocity=112 time=0@note_on channel=3 note=40 velocity=112 time=0@note_on channel=3 note=45 velocity=112 time=0@note_on channel=4 note=67 velocity=112 time=0@note_on channel=9 note=41 velocity=112 time=0@note_on channel=9 note=37 velocity=112 time=0@note_on channel=9 note=41 velocity=0 time=0.12395833333333334@note_on channel=9 note=42 velocity=112 time=0.0010416666666666667@note_on channel=3 note=67 velocity=0 time=0.23020833333333332@note_on channel=0 note=67 velocity=0 time=0.01875@note_on channel=1 note=67 velocity=0 time=0@note_on channel=4 note=67 velocity=0 time=0@note_on channel=9 note=42 velocity=0 time=0@note_on channel=9 note=37 velocity=0 time=0@note_on channel=0 note=67 velocity=112 time=0.0010416666666666667@note_on channel=1 note=67 velocity=112 time=0@note_on channel=3 note=67 velocity=112 time=0@note_on channel=4 note=67 velocity=112 time=0@note_on channel=9 note=36 velocity=112 time=0@note_on channel=9 note=37 velocity=112 time=0@note_on channel=9 note=36 velocity=0 time=0.24895833333333334@note_on channel=9 note=42 velocity=112 time=0.0010416666666666667@note_on channel=3 note=67 velocity=0 time=0.10520833333333333@note_on channel=0 note=67 velocity=0 time=0.01875@note_on channel=1 note=67 velocity=0 time=0@note_on channel=4 note=67 velocity=0 time=0@note_on channel=9 note=42 velocity=0 time=0@note_on channel=9 note=37 velocity=0 time=0@note_on channel=0 note=69 velocity=112 time=0.0010416666666666667@note_on channel=1 note=69 velocity=112 time=0@note_on channel=3 note=69 velocity=112 time=0@note_on channel=4 note=69 velocity=112 time=0@note_on channel=9 note=41 velocity=112 time=0@note_on channel=9 note=37 velocity=112 time=0@note_on channel=3 note=69 velocity=0 time=0.23645833333333333@note_on channel=0 note=69 velocity=0 time=0.0125@note_on channel=1 note=69 velocity=0 time=0@note_on channel=4 note=69 velocity=0 time=0@note_on channel=9 note=41 velocity=0 time=0@note_on channel=9 note=37 velocity=0 time=0@note_on channel=0 note=70 velocity=112 time=0.0010416666666666667@note_on channel=1 note=70 velocity=112 time=0@note_on channel=3 note=70 velocity=112 time=0@note_on channel=4 note=70 velocity=112 time=0@note_on channel=9 note=42 velocity=112 time=0@note_on channel=9 note=37 velocity=112 time=0@note_on channel=9 note=42 velocity=0 time=0.24895833333333334@note_on channel=9 note=37 velocity=0 time=0@note_on channel=9 note=43 velocity=112 time=0.0010416666666666667@note_on channel=9 note=37 velocity=112 time=0@note_on channel=3 note=70 velocity=0 time=0.22395833333333334@note_on channel=0 note=70 velocity=0 time=0.025@note_on channel=1 note=70 velocity=0 time=0@note_on channel=4 note=70 velocity=0 time=0@note_on channel=9 note=43 velocity=0 time=0@note_on channel=9 note=37 velocity=0 time=0@note_on channel=0 note=69 velocity=112 time=0.0010416666666666667@note_on channel=1 note=69 velocity=112 time=0@note_on channel=3 note=69 velocity=112 time=0@note_on channel=4 note=69 velocity=112 time=0@note_on channel=9 note=57 velocity=112 time=0@note_on channel=9 note=37 velocity=112 time=0@note_on channel=9 note=37 velocity=0 time=0.24895833333333334@note_on channel=9 note=37 velocity=112 time=0.0010416666666666667@note_on channel=3 note=33 velocity=0 time=0.14895833333333333@note_on channel=3 note=40 velocity=0 time=0@note_on channel=3 note=45 velocity=0 time=0@note_on channel=3 note=69 velocity=0 time=0.075@note_on channel=0 note=69 velocity=0 time=0.025@note_on channel=1 note=69 velocity=0 time=0@note_on channel=2 note=33 velocity=0 time=0@note_on channel=2 note=40 velocity=0 time=0@note_on channel=2 note=45 velocity=0 time=0@note_on channel=4 note=69 velocity=0 time=0@note_on channel=9 note=57 velocity=0 time=0@note_on channel=9 note=37 velocity=0 time=0@note_on channel=0 note=62 velocity=112 time=0.0010416666666666667@note_on channel=1 note=62 velocity=112 time=0@note_on channel=2 note=38 velocity=112 time=0@note_on channel=2 note=45 velocity=112 time=0@note_on channel=2 note=50 velocity=112 time=0@note_on channel=3 note=62 velocity=112 time=0@note_on channel=3 note=38 velocity=112 time=0@note_on channel=3 note=45 velocity=112 time=0@note_on channel=3 note=50 velocity=112 time=0@note_on channel=4 note=62 velocity=126 time=0@note_on channel=4 note=38 velocity=126 time=0@note_on channel=4 note=45 velocity=126 time=0@note_on channel=4 note=50 velocity=126 time=0@note_on channel=9 note=41 velocity=112 time=0@note_on channel=9 note=37 velocity=112 time=0@note_on channel=9 note=37 velocity=0 time=0.12395833333333334@note_on channel=9 note=37 velocity=112 time=0.0010416666666666667@note_on channel=9 note=41 velocity=0 time=0.12395833333333334@note_on channel=9 note=37 velocity=0 time=0@note_on channel=9 note=42 velocity=112 time=0.0010416666666666667@note_on channel=9 note=37 velocity=112 time=0@note_on channel=3 note=62 velocity=0 time=0.10520833333333333@note_on channel=0 note=62 velocity=0 time=0.01875@note_on channel=1 note=62 velocity=0 time=0@note_on channel=4 note=62 velocity=0 time=0@note_on channel=9 note=42 velocity=0 time=0@note_on channel=0 note=64 velocity=112 time=0.0010416666666666667@note_on channel=1 note=64 velocity=112 time=0@note_on channel=3 note=64 velocity=114 time=0@note_on channel=4 note=64 velocity=126 time=0@note_on channel=9 note=41 velocity=112 time=0@note_on channel=4 note=38 velocity=0 time=0.12395833333333334@note_on channel=4 note=45 velocity=0 time=0@note_on channel=4 note=50 velocity=0 time=0@note_on channel=9 note=41 velocity=0 time=0@note_on channel=9 note=37 velocity=0 time=0@note_on channel=4 note=38 velocity=126 time=0.0010416666666666667@note_on channel=4 note=45 velocity=126 time=0@note_on channel=4 note=50 velocity=126 time=0@note_on channel=9 note=42 velocity=112 time=0@note_on channel=9 note=37 velocity=112 time=0@note_on channel=9 note=42 velocity=0 time=0.12395833333333334@note_on channel=9 note=37 velocity=0 time=0@note_on channel=9 note=42 velocity=112 time=0.0010416666666666667@note_on channel=9 note=37 velocity=112 time=0@note_on channel=3 note=64 velocity=0 time=0.10520833333333333@note_on channel=0 note=64 velocity=0 time=0.01875@note_on channel=1 note=64 velocity=0 time=0@note_on channel=4 note=64 velocity=0 time=0@note_on channel=9 note=42 velocity=0 time=0@note_on channel=0 note=65 velocity=112 time=0.0010416666666666667@note_on channel=1 note=65 velocity=112 time=0@note_on channel=3 note=65 velocity=117 time=0@note_on channel=4 note=65 velocity=126 time=0@note_on channel=9 note=36 velocity=112 time=0@note_on channel=9 note=37 velocity=0 time=0.12395833333333334@note_on channel=9 note=37 velocity=112 time=0.0010416666666666667@note_on channel=3 note=65 velocity=0 time=0.11145833333333333@note_on channel=0 note=65 velocity=0 time=0.0125@note_on channel=1 note=65 velocity=0 time=0@note_on channel=4 note=65 velocity=0 time=0@note_on channel=4 note=38 velocity=0 time=0@note_on channel=4 note=45 velocity=0 time=0@note_on channel=4 note=50 velocity=0 time=0@note_on channel=9 note=36 velocity=0 time=0@note_on channel=9 note=37 velocity=0 time=0@note_on channel=0 note=69 velocity=112 time=0.0010416666666666667@note_on channel=1 note=69 velocity=112 time=0@note_on channel=3 note=69 velocity=119 time=0@note_on channel=4 note=69 velocity=126 time=0@note_on channel=4 note=38 velocity=126 time=0@note_on channel=4 note=45 velocity=126 time=0@note_on channel=4 note=50 velocity=126 time=0@note_on channel=9 note=36 velocity=112 time=0@note_on channel=9 note=37 velocity=112 time=0@note_on channel=9 note=37 velocity=0 time=0.12395833333333334@note_on channel=9 note=37 velocity=112 time=0.0010416666666666667@note_on channel=9 note=36 velocity=0 time=0.12395833333333334@note_on channel=9 note=37 velocity=0 time=0@note_on channel=9 note=36 velocity=112 time=0.0010416666666666667@note_on channel=9 note=37 velocity=112 time=0@note_on channel=9 note=37 velocity=0 time=0.12395833333333334@note_on channel=9 note=37 velocity=112 time=0.0010416666666666667@note_on channel=3 note=69 velocity=0 time=0.09895833333333333@note_on channel=0 note=69 velocity=0 time=0.025@note_on channel=1 note=69 velocity=0 time=0@note_on channel=4 note=69 velocity=0 time=0@note_on channel=4 note=38 velocity=0 time=0@note_on channel=4 note=45 velocity=0 time=0@note_on channel=4 note=50 velocity=0 time=0@note_on channel=9 note=36 velocity=0 time=0@note_on channel=0 note=65 velocity=112 time=0.0010416666666666667@note_on channel=1 note=65 velocity=112 time=0@note_on channel=3 note=65 velocity=122 time=0@note_on channel=4 note=65 velocity=126 time=0@note_on channel=4 note=38 velocity=126 time=0@note_on channel=4 note=45 velocity=126 time=0@note_on channel=4 note=50 velocity=126 time=0@note_on channel=9 note=42 velocity=112 time=0@note_on channel=9 note=37 velocity=0 time=0.12395833333333334@note_on channel=9 note=37 velocity=112 time=0.0010416666666666667@note_on channel=9 note=42 velocity=0 time=0.12395833333333334@note_on channel=9 note=42 velocity=112 time=0.0010416666666666667@note_on channel=9 note=37 velocity=0 time=0.12395833333333334@note_on channel=9 note=37 velocity=112 time=0.0010416666666666667@note_on channel=3 note=38 velocity=0 time=0.02395833333333333@note_on channel=3 note=45 velocity=0 time=0@note_on channel=3 note=50 velocity=0 time=0@note_on channel=3 note=65 velocity=0 time=0.075@note_on channel=0 note=65 velocity=0 time=0.025@note_on channel=1 note=65 velocity=0 time=0@note_on channel=2 note=38 velocity=0 time=0@note_on channel=2 note=45 velocity=0 time=0@note_on channel=2 note=50 velocity=0 time=0@note_on channel=4 note=65 velocity=0 time=0@note_on channel=4 note=38 velocity=0 time=0@note_on channel=4 note=45 velocity=0 time=0@note_on channel=4 note=50 velocity=0 time=0@note_on channel=9 note=42 velocity=0 time=0@note_on channel=9 note=37 velocity=0 time=0@note_on channel=0 note=67 velocity=112 time=0.0010416666666666667@note_on channel=1 note=67 velocity=112 time=0@note_on channel=2 note=36 velocity=126 time=0@note_on channel=2 note=43 velocity=126 time=0@note_on channel=2 note=48 velocity=126 time=0@note_on channel=3 note=67 velocity=126 time=0@note_on channel=3 note=36 velocity=126 time=0@note_on channel=3 note=43 velocity=126 time=0@note_on channel=3 note=48 velocity=126 time=0@note_on channel=4 note=67 velocity=126 time=0@note_on channel=4 note=36 velocity=126 time=0@note_on channel=4 note=43 velocity=126 time=0@note_on channel=4 note=48 velocity=126 time=0@note_on channel=9 note=41 velocity=112 time=0@note_on channel=9 note=37 velocity=112 time=0@note_on channel=9 note=37 velocity=0 time=0.12395833333333334@note_on channel=9 note=37 velocity=112 time=0.0010416666666666667@note_on channel=2 note=36 velocity=0 time=0.06145833333333333@note_on channel=2 note=43 velocity=0 time=0@note_on channel=2 note=48 velocity=0 time=0@note_on channel=3 note=36 velocity=0 time=0@note_on channel=3 note=43 velocity=0 time=0@note_on channel=3 note=48 velocity=0 time=0@note_on channel=4 note=36 velocity=0 time=0@note_on channel=4 note=43 velocity=0 time=0@note_on channel=4 note=48 velocity=0 time=0@note_on channel=9 note=41 velocity=0 time=0.0625@note_on channel=9 note=37 velocity=0 time=0@note_on channel=9 note=42 velocity=112 time=0.0010416666666666667@note_on channel=9 note=37 velocity=112 time=0@note_on channel=3 note=67 velocity=0 time=0.10520833333333333@note_on channel=0 note=67 velocity=0 time=0.01875@note_on channel=1 note=67 velocity=0 time=0@note_on channel=4 note=67 velocity=0 time=0@note_on channel=9 note=42 velocity=0 time=0@note_on channel=0 note=69 velocity=112 time=0.0010416666666666667@note_on channel=1 note=69 velocity=112 time=0@note_on channel=2 note=36 velocity=126 time=0@note_on channel=2 note=43 velocity=126 time=0@note_on channel=2 note=48 velocity=126 time=0@note_on channel=3 note=69 velocity=126 time=0@note_on channel=3 note=36 velocity=126 time=0@note_on channel=3 note=43 velocity=126 time=0@note_on channel=3 note=48 velocity=126 time=0@note_on channel=4 note=69 velocity=126 time=0@note_on channel=4 note=36 velocity=126 time=0@note_on channel=4 note=43 velocity=126 time=0@note_on channel=4 note=48 velocity=126 time=0@note_on channel=9 note=41 velocity=112 time=0@note_on channel=9 note=41 velocity=0 time=0.12395833333333334@note_on channel=9 note=37 velocity=0 time=0@note_on channel=9 note=42 velocity=112 time=0.0010416666666666667@note_on channel=9 note=37 velocity=112 time=0@note_on channel=2 note=36 velocity=0 time=0.06145833333333333@note_on channel=2 note=43 velocity=0 time=0@note_on channel=2 note=48 velocity=0 time=0@note_on channel=3 note=36 velocity=0 time=0@note_on channel=3 note=43 velocity=0 time=0@note_on channel=3 note=48 velocity=0 time=0@note_on channel=4 note=36 velocity=0 time=0@note_on channel=4 note=43 velocity=0 time=0@note_on channel=4 note=48 velocity=0 time=0@note_on channel=9 note=42 velocity=0 time=0.0625@note_on channel=9 note=37 velocity=0 time=0@note_on channel=9 note=42 velocity=112 time=0.0010416666666666667@note_on channel=9 note=37 velocity=112 time=0@note_on channel=3 note=69 velocity=0 time=0.10520833333333333@note_on channel=0 note=69 velocity=0 time=0.01875@note_on channel=1 note=69 velocity=0 time=0@note_on channel=4 note=69 velocity=0 time=0@note_on channel=9 note=42 velocity=0 time=0@note_on channel=0 note=70 velocity=112 time=0.0010416666666666667@note_on channel=1 note=70 velocity=112 time=0@note_on channel=2 note=36 velocity=126 time=0@note_on channel=2 note=43 velocity=126 time=0@note_on channel=2 note=48 velocity=126 time=0@note_on channel=3 note=70 velocity=126 time=0@note_on channel=3 note=36 velocity=126 time=0@note_on channel=3 note=43 velocity=126 time=0@note_on channel=3 note=48 velocity=126 time=0@note_on channel=4 note=70 velocity=126 time=0@note_on channel=4 note=36 velocity=126 time=0@note_on channel=4 note=43 velocity=126 time=0@note_on channel=4 note=48 velocity=126 time=0@note_on channel=9 note=36 velocity=112 time=0@note_on channel=2 note=36 velocity=0 time=0.12395833333333334@note_on channel=2 note=43 velocity=0 time=0@note_on channel=2 note=48 velocity=0 time=0@note_on channel=3 note=36 velocity=0 time=0@note_on channel=3 note=43 velocity=0 time=0@note_on channel=3 note=48 velocity=0 time=0@note_on channel=4 note=36 velocity=0 time=0@note_on channel=4 note=43 velocity=0 time=0@note_on channel=4 note=48 velocity=0 time=0@note_on channel=9 note=37 velocity=0 time=0@note_on channel=9 note=37 velocity=112 time=0.0010416666666666667@note_on channel=3 note=70 velocity=0 time=0.11145833333333333@note_on channel=0 note=70 velocity=0 time=0.0125@note_on channel=1 note=70 velocity=0 time=0@note_on channel=4 note=70 velocity=0 time=0@note_on channel=9 note=36 velocity=0 time=0@note_on channel=9 note=37 velocity=0 time=0@note_on channel=0 note=69 velocity=112 time=0.0010416666666666667@note_on channel=1 note=69 velocity=112 time=0@note_on channel=2 note=36 velocity=126 time=0@note_on channel=2 note=43 velocity=126 time=0@note_on channel=2 note=48 velocity=126 time=0@note_on channel=3 note=69 velocity=126 time=0@note_on channel=3 note=36 velocity=126 time=0@note_on channel=3 note=43 velocity=126 time=0@note_on channel=3 note=48 velocity=126 time=0@note_on channel=4 note=69 velocity=126 time=0@note_on channel=4 note=36 velocity=126 time=0@note_on channel=4 note=43 velocity=126 time=0@note_on channel=4 note=48 velocity=126 time=0@note_on channel=9 note=36 velocity=112 time=0@note_on channel=9 note=37 velocity=112 time=0@note_on channel=9 note=37 velocity=0 time=0.12395833333333334@note_on channel=9 note=37 velocity=112 time=0.0010416666666666667@note_on channel=9 note=36 velocity=0 time=0.12395833333333334@note_on channel=9 note=42 velocity=112 time=0.0010416666666666667@note_on channel=9 note=37 velocity=0 time=0.12395833333333334@note_on channel=9 note=37 velocity=112 time=0.0010416666666666667@note_on channel=3 note=69 velocity=0 time=0.09895833333333333@note_on channel=3 note=36 velocity=0 time=0@note_on channel=3 note=43 velocity=0 time=0@note_on channel=3 note=48 velocity=0 time=0@note_on channel=0 note=69 velocity=0 time=0.025@note_on channel=1 note=69 velocity=0 time=0@note_on channel=2 note=36 velocity=0 time=0@note_on channel=2 note=43 velocity=0 time=0@note_on channel=2 note=48 velocity=0 time=0@note_on channel=4 note=69 velocity=0 time=0@note_on channel=4 note=36 velocity=0 time=0@note_on channel=4 note=43 velocity=0 time=0@note_on channel=4 note=48 velocity=0 time=0@note_on channel=9 note=42 velocity=0 time=0@note_on channel=0 note=67 velocity=112 time=0.0010416666666666667@note_on channel=1 note=67 velocity=112 time=0@note_on channel=2 note=33 velocity=126 time=0@note_on channel=2 note=40 velocity=126 time=0@note_on channel=2 note=45 velocity=126 time=0@note_on channel=3 note=67 velocity=126 time=0@note_on channel=3 note=33 velocity=126 time=0@note_on channel=3 note=40 velocity=126 time=0@note_on channel=3 note=45 velocity=126 time=0@note_on channel=4 note=67 velocity=126 time=0@note_on channel=4 note=33 velocity=126 time=0@note_on channel=4 note=40 velocity=126 time=0@note_on channel=4 note=45 velocity=126 time=0@note_on channel=9 note=43 velocity=112 time=0@note_on channel=9 note=43 velocity=0 time=0.24895833333333334@note_on channel=9 note=37 velocity=0 time=0@note_on channel=9 note=57 velocity=112 time=0.0010416666666666667@note_on channel=9 note=37 velocity=112 time=0@note_on channel=9 note=37 velocity=0 time=0.12395833333333334@note_on channel=9 note=37 velocity=112 time=0.0010416666666666667@note_on channel=3 note=67 velocity=0 time=0.09895833333333333@note_on channel=3 note=33 velocity=0 time=0@note_on channel=3 note=40 velocity=0 time=0@note_on channel=3 note=45 velocity=0 time=0@note_on channel=0 note=67 velocity=0 time=0.025@note_on channel=1 note=67 velocity=0 time=0@note_on channel=2 note=33 velocity=0 time=0@note_on channel=2 note=40 velocity=0 time=0@note_on channel=2 note=45 velocity=0 time=0@note_on channel=4 note=67 velocity=0 time=0@note_on channel=4 note=33 velocity=0 time=0@note_on channel=4 note=40 velocity=0 time=0@note_on channel=4 note=45 velocity=0 time=0@note_on channel=9 note=57 velocity=0 time=0@note_on channel=9 note=37 velocity=0 time=0@note_on channel=0 note=65 velocity=112 time=0.0010416666666666667@note_on channel=1 note=65 velocity=112 time=0@note_on channel=2 note=34 velocity=126 time=0@note_on channel=2 note=41 velocity=126 time=0@note_on channel=2 note=46 velocity=126 time=0@note_on channel=3 note=65 velocity=126 time=0@note_on channel=3 note=34 velocity=126 time=0@note_on channel=3 note=41 velocity=126 time=0@note_on channel=3 note=46 velocity=126 time=0@note_on channel=4 note=65 velocity=126 time=0@note_on channel=4 note=34 velocity=126 time=0@note_on channel=4 note=41 velocity=126 time=0@note_on channel=4 note=46 velocity=126 time=0@note_on channel=9 note=41 velocity=112 time=0@note_on channel=9 note=37 velocity=112 time=0@note_on channel=9 note=37 velocity=0 time=0.12395833333333334@note_on channel=9 note=37 velocity=112 time=0.0010416666666666667@note_on channel=9 note=41 velocity=0 time=0.12395833333333334@note_on channel=9 note=37 velocity=0 time=0@note_on channel=9 note=42 velocity=112 time=0.0010416666666666667@note_on channel=9 note=37 velocity=112 time=0@note_on channel=3 note=65 velocity=0 time=0.10520833333333333@note_on channel=0 note=65 velocity=0 time=0.01875@note_on channel=1 note=65 velocity=0 time=0@note_on channel=4 note=65 velocity=0 time=0@note_on channel=9 note=42 velocity=0 time=0@note_on channel=0 note=67 velocity=112 time=0.0010416666666666667@note_on channel=1 note=67 velocity=112 time=0@note_on channel=3 note=67 velocity=126 time=0@note_on channel=4 note=67 velocity=126 time=0@note_on channel=9 note=41 velocity=112 time=0@note_on channel=4 note=34 velocity=0 time=0.12395833333333334@note_on channel=4 note=41 velocity=0 time=0@note_on channel=4 note=46 velocity=0 time=0@note_on channel=9 note=41 velocity=0 time=0@note_on channel=9 note=37 velocity=0 time=0@note_on channel=4 note=34 velocity=126 time=0.0010416666666666667@note_on channel=4 note=41 velocity=126 time=0@note_on channel=4 note=46 velocity=126 time=0@note_on channel=9 note=42 velocity=112 time=0@note_on channel=9 note=37 velocity=112 time=0@note_on channel=9 note=42 velocity=0 time=0.12395833333333334@note_on channel=9 note=37 velocity=0 time=0@note_on channel=9 note=42 velocity=112 time=0.0010416666666666667@note_on channel=9 note=37 velocity=112 time=0@note_on channel=3 note=67 velocity=0 time=0.10520833333333333@note_on channel=0 note=67 velocity=0 time=0.01875@note_on channel=1 note=67 velocity=0 time=0@note_on channel=4 note=67 velocity=0 time=0@note_on channel=9 note=42 velocity=0 time=0@note_on channel=0 note=69 velocity=112 time=0.0010416666666666667@note_on channel=1 note=69 velocity=112 time=0@note_on channel=3 note=69 velocity=126 time=0@note_on channel=4 note=69 velocity=126 time=0@note_on channel=9 note=36 velocity=112 time=0@note_on channel=9 note=37 velocity=0 time=0.12395833333333334@note_on channel=9 note=37 velocity=112 time=0.0010416666666666667@note_on channel=3 note=69 velocity=0 time=0.11145833333333333@note_on channel=0 note=69 velocity=0 time=0.0125@note_on channel=1 note=69 velocity=0 time=0@note_on channel=4 note=69 velocity=0 time=0@note_on channel=4 note=34 velocity=0 time=0@note_on channel=4 note=41 velocity=0 time=0@note_on channel=4 note=46 velocity=0 time=0@note_on channel=9 note=36 velocity=0 time=0@note_on channel=9 note=37 velocity=0 time=0@note_on channel=0 note=65 velocity=112 time=0.0010416666666666667@note_on channel=1 note=65 velocity=112 time=0@note_on channel=3 note=65 velocity=126 time=0@note_on channel=4 note=65 velocity=126 time=0@note_on channel=4 note=34 velocity=126 time=0@note_on channel=4 note=41 velocity=126 time=0@note_on channel=4 note=46 velocity=126 time=0@note_on channel=9 note=36 velocity=112 time=0@note_on channel=9 note=37 velocity=112 time=0@note_on channel=9 note=37 velocity=0 time=0.12395833333333334@note_on channel=9 note=37 velocity=112 time=0.0010416666666666667@note_on channel=9 note=36 velocity=0 time=0.12395833333333334@note_on channel=9 note=37 velocity=0 time=0@note_on channel=9 note=36 velocity=112 time=0.0010416666666666667@note_on channel=9 note=37 velocity=112 time=0@note_on channel=9 note=37 velocity=0 time=0.12395833333333334@note_on channel=9 note=37 velocity=112 time=0.0010416666666666667@note_on channel=3 note=65 velocity=0 time=0.09895833333333333@note_on channel=0 note=65 velocity=0 time=0.025@note_on channel=1 note=65 velocity=0 time=0@note_on channel=4 note=65 velocity=0 time=0@note_on channel=4 note=34 velocity=0 time=0@note_on channel=4 note=41 velocity=0 time=0@note_on channel=4 note=46 velocity=0 time=0@note_on channel=9 note=36 velocity=0 time=0@note_on channel=0 note=62 velocity=112 time=0.0010416666666666667@note_on channel=1 note=62 velocity=112 time=0@note_on channel=3 note=62 velocity=126 time=0@note_on channel=4 note=62 velocity=126 time=0@note_on channel=4 note=34 velocity=126 time=0@note_on channel=4 note=41 velocity=126 time=0@note_on channel=4 note=46 velocity=126 time=0@note_on channel=9 note=42 velocity=112 time=0@note_on channel=9 note=37 velocity=0 time=0.12395833333333334@note_on channel=9 note=37 velocity=112 time=0.0010416666666666667@note_on channel=9 note=42 velocity=0 time=0.12395833333333334@note_on channel=9 note=42 velocity=112 time=0.0010416666666666667@note_on channel=9 note=37 velocity=0 time=0.12395833333333334@note_on channel=9 note=37 velocity=112 time=0.0010416666666666667@note_on channel=3 note=34 velocity=0 time=0.02395833333333333@note_on channel=3 note=41 velocity=0 time=0@note_on channel=3 note=46 velocity=0 time=0@note_on channel=3 note=62 velocity=0 time=0.075@note_on channel=0 note=62 velocity=0 time=0.025@note_on channel=1 note=62 velocity=0 time=0@note_on channel=2 note=34 velocity=0 time=0@note_on channel=2 note=41 velocity=0 time=0@note_on channel=2 note=46 velocity=0 time=0@note_on channel=4 note=62 velocity=0 time=0@note_on channel=4 note=34 velocity=0 time=0@note_on channel=4 note=41 velocity=0 time=0@note_on channel=4 note=46 velocity=0 time=0@note_on channel=9 note=42 velocity=0 time=0@note_on channel=9 note=37 velocity=0 time=0@note_on channel=0 note=73 velocity=112 time=0.0010416666666666667@note_on channel=1 note=73 velocity=112 time=0@note_on channel=2 note=38 velocity=126 time=0@note_on channel=2 note=45 velocity=126 time=0@note_on channel=2 note=50 velocity=126 time=0@note_on channel=3 note=73 velocity=126 time=0@note_on channel=3 note=38 velocity=126 time=0@note_on channel=3 note=45 velocity=126 time=0@note_on channel=3 note=50 velocity=126 time=0@note_on channel=4 note=73 velocity=126 time=0@note_on channel=4 note=38 velocity=126 time=0@note_on channel=4 note=45 velocity=126 time=0@note_on channel=4 note=50 velocity=126 time=0@note_on channel=9 note=41 velocity=112 time=0@note_on channel=9 note=37 velocity=112 time=0@note_on channel=9 note=37 velocity=0 time=0.12395833333333334@note_on channel=9 note=37 velocity=112 time=0.0010416666666666667@note_on channel=9 note=41 velocity=0 time=0.12395833333333334@note_on channel=9 note=37 velocity=0 time=0@note_on channel=9 note=42 velocity=112 time=0.0010416666666666667@note_on channel=9 note=37 velocity=112 time=0@note_on channel=9 note=42 velocity=0 time=0.12395833333333334@note_on channel=9 note=41 velocity=112 time=0.0010416666666666667@note_on channel=9 note=41 velocity=0 time=0.12395833333333334@note_on channel=9 note=37 velocity=0 time=0@note_on channel=9 note=42 velocity=112 time=0.0010416666666666667@note_on channel=9 note=37 velocity=112 time=0@note_on channel=9 note=42 velocity=0 time=0.12395833333333334@note_on channel=9 note=37 velocity=0 time=0@note_on channel=9 note=42 velocity=112 time=0.0010416666666666667@note_on channel=9 note=37 velocity=112 time=0@note_on channel=9 note=42 velocity=0 time=0.12395833333333334@note_on channel=9 note=36 velocity=112 time=0.0010416666666666667@note_on channel=9 note=37 velocity=0 time=0.12395833333333334@note_on channel=9 note=37 velocity=112 time=0.0010416666666666667@note_on channel=3 note=73 velocity=0 time=0.07395833333333333@note_on channel=0 note=73 velocity=0 time=0.05@note_on channel=1 note=73 velocity=0 time=0@note_on channel=4 note=73 velocity=0 time=0@note_on channel=9 note=36 velocity=0 time=0@note_on channel=9 note=37 velocity=0 time=0@note_on channel=0 note=62 velocity=112 time=0.0010416666666666667@note_on channel=0 note=74 velocity=112 time=0@note_on channel=1 note=62 velocity=112 time=0@note_on channel=1 note=74 velocity=112 time=0@note_on channel=3 note=62 velocity=126 time=0@note_on channel=3 note=74 velocity=126 time=0@note_on channel=4 note=62 velocity=126 time=0@note_on channel=4 note=74 velocity=126 time=0@note_on channel=9 note=36 velocity=112 time=0@note_on channel=9 note=37 velocity=112 time=0@note_on channel=9 note=37 velocity=0 time=0.12395833333333334@note_on channel=9 note=37 velocity=112 time=0.0010416666666666667@note_on channel=9 note=36 velocity=0 time=0.12395833333333334@note_on channel=9 note=49 velocity=112 time=0.0010416666666666667@note_on channel=9 note=37 velocity=0 time=0.12395833333333334@note_on channel=9 note=37 velocity=112 time=0.0010416666666666667@note_on channel=3 note=38 velocity=0 time=0.04895833333333333@note_on channel=3 note=45 velocity=0 time=0@note_on channel=3 note=50 velocity=0 time=0@note_on channel=3 note=62 velocity=0 time=0.05@note_on channel=3 note=74 velocity=0 time=0@note_on channel=0 note=62 velocity=0 time=0.025@note_on channel=0 note=74 velocity=0 time=0@note_on channel=1 note=62 velocity=0 time=0@note_on channel=1 note=74 velocity=0 time=0@note_on channel=2 note=38 velocity=0 time=0@note_on channel=2 note=45 velocity=0 time=0@note_on channel=2 note=50 velocity=0 time=0@note_on channel=4 note=62 velocity=0 time=0@note_on channel=4 note=74 velocity=0 time=0@note_on channel=4 note=38 velocity=0 time=0@note_on channel=4 note=45 velocity=0 time=0@note_on channel=4 note=50 velocity=0 time=0@note_on channel=0 note=69 velocity=112 time=0.0010416666666666667@note_on channel=1 note=69 velocity=112 time=0@note_on channel=2 note=45 velocity=126 time=0@note_on channel=2 note=57 velocity=126 time=0@note_on channel=3 note=69 velocity=126 time=0@note_on channel=3 note=45 velocity=126 time=0@note_on channel=3 note=57 velocity=126 time=0@note_on channel=4 note=69 velocity=126 time=0@note_on channel=4 note=45 velocity=126 time=0@note_on channel=4 note=57 velocity=126 time=0@note_on channel=3 note=69 velocity=0 time=0.11770833333333333@note_on channel=3 note=45 velocity=0 time=0@note_on channel=3 note=57 velocity=0 time=0@note_on channel=0 note=69 velocity=0 time=0.00625@note_on channel=1 note=69 velocity=0 time=0@note_on channel=2 note=45 velocity=0 time=0@note_on channel=2 note=57 velocity=0 time=0@note_on channel=4 note=69 velocity=0 time=0@note_on channel=4 note=45 velocity=0 time=0@note_on channel=4 note=57 velocity=0 time=0@note_on channel=0 note=67 velocity=112 time=0.0010416666666666667@note_on channel=1 note=67 velocity=112 time=0@note_on channel=2 note=43 velocity=126 time=0@note_on channel=2 note=55 velocity=126 time=0@note_on channel=3 note=67 velocity=126 time=0@note_on channel=3 note=43 velocity=126 time=0@note_on channel=3 note=55 velocity=126 time=0@note_on channel=4 note=67 velocity=126 time=0@note_on channel=4 note=43 velocity=126 time=0@note_on channel=4 note=55 velocity=126 time=0@note_on channel=3 note=67 velocity=0 time=0.11770833333333333@note_on channel=3 note=43 velocity=0 time=0@note_on channel=3 note=55 velocity=0 time=0@note_on channel=0 note=67 velocity=0 time=0.00625@note_on channel=1 note=67 velocity=0 time=0@note_on channel=2 note=43 velocity=0 time=0@note_on channel=2 note=55 velocity=0 time=0@note_on channel=4 note=67 velocity=0 time=0@note_on channel=4 note=43 velocity=0 time=0@note_on channel=4 note=55 velocity=0 time=0@note_on channel=9 note=37 velocity=0 time=0@note_on channel=0 note=65 velocity=112 time=0.0010416666666666667@note_on channel=1 note=65 velocity=112 time=0@note_on channel=2 note=41 velocity=126 time=0@note_on channel=2 note=53 velocity=126 time=0@note_on channel=3 note=65 velocity=126 time=0@note_on channel=3 note=41 velocity=126 time=0@note_on channel=3 note=53 velocity=126 time=0@note_on channel=4 note=65 velocity=126 time=0@note_on channel=4 note=41 velocity=126 time=0@note_on channel=4 note=53 velocity=126 time=0@note_on channel=9 note=37 velocity=112 time=0@note_on channel=3 note=65 velocity=0 time=0.11770833333333333@note_on channel=3 note=41 velocity=0 time=0@note_on channel=3 note=53 velocity=0 time=0@note_on channel=0 note=65 velocity=0 time=0.00625@note_on channel=1 note=65 velocity=0 time=0@note_on channel=2 note=41 velocity=0 time=0@note_on channel=2 note=53 velocity=0 time=0@note_on channel=4 note=65 velocity=0 time=0@note_on channel=4 note=41 velocity=0 time=0@note_on channel=4 note=53 velocity=0 time=0@note_on channel=9 note=37 velocity=0 time=0@note_on channel=0 note=64 velocity=112 time=0.0010416666666666667@note_on channel=1 note=64 velocity=112 time=0@note_on channel=2 note=40 velocity=126 time=0@note_on channel=2 note=52 velocity=126 time=0@note_on channel=3 note=64 velocity=126 time=0@note_on channel=3 note=40 velocity=126 time=0@note_on channel=3 note=52 velocity=126 time=0@note_on channel=4 note=64 velocity=126 time=0@note_on channel=4 note=40 velocity=126 time=0@note_on channel=4 note=52 velocity=126 time=0@note_on channel=9 note=37 velocity=112 time=0@note_on channel=3 note=64 velocity=0 time=0.11770833333333333@note_on channel=3 note=40 velocity=0 time=0@note_on channel=3 note=52 velocity=0 time=0@note_on channel=0 note=64 velocity=0 time=0.00625@note_on channel=1 note=64 velocity=0 time=0@note_on channel=2 note=40 velocity=0 time=0@note_on channel=2 note=52 velocity=0 time=0@note_on channel=4 note=64 velocity=0 time=0@note_on channel=4 note=40 velocity=0 time=0@note_on channel=4 note=52 velocity=0 time=0@note_on channel=9 note=49 velocity=0 time=0@note_on channel=9 note=37 velocity=0 time=0@<meta message time_signature numerator=4 denominator=4 clocks_per_click=24 notated_32nd_notes_per_beat=8 time=0.0010416666666666667>@<meta message set_tempo tempo=500000 time=0>@note_on channel=0 note=62 velocity=127 time=0@note_on channel=1 note=62 velocity=58 time=0@note_on channel=2 note=38 velocity=112 time=0@note_on channel=2 note=45 velocity=112 time=0@note_on channel=2 note=50 velocity=112 time=0@note_on channel=3 note=62 velocity=58 time=0@note_on channel=3 note=38 velocity=49 time=0@note_on channel=3 note=45 velocity=49 time=0@note_on channel=3 note=50 velocity=49 time=0@note_on channel=9 note=41 velocity=112 time=0@note_on channel=0 note=62 velocity=0 time=0.37395833333333334@note_on channel=1 note=62 velocity=0 time=0@note_on channel=3 note=62 velocity=0 time=0@note_on channel=0 note=64 velocity=126 time=0.0010416666666666667@note_on channel=1 note=64 velocity=49 time=0@note_on channel=3 note=64 velocity=49 time=0@note_on channel=9 note=41 velocity=0 time=0.12395833333333334@note_on channel=9 note=41 velocity=112 time=0.0010416666666666667@note_on channel=3 note=64 velocity=0 time=0.23020833333333332@note_on channel=0 note=64 velocity=0 time=0.01875@note_on channel=1 note=64 velocity=0 time=0@note_on channel=0 note=65 velocity=126 time=0.0010416666666666667@note_on channel=1 note=65 velocity=49 time=0@note_on channel=3 note=65 velocity=49 time=0@note_on channel=3 note=65 velocity=0 time=0.23645833333333333@note_on channel=0 note=65 velocity=0 time=0.0125@note_on channel=1 note=65 velocity=0 time=0@note_on channel=9 note=41 velocity=0 time=0@note_on channel=0 note=67 velocity=126 time=0.0010416666666666667@note_on channel=1 note=67 velocity=49 time=0@note_on channel=3 note=67 velocity=49 time=0@note_on channel=9 note=41 velocity=112 time=0@note_on channel=3 note=67 velocity=0 time=0.23645833333333333@note_on channel=0 note=67 velocity=0 time=0.0125@note_on channel=1 note=67 velocity=0 time=0@note_on channel=0 note=70 velocity=126 time=0.0010416666666666667@note_on channel=1 note=70 velocity=49 time=0@note_on channel=3 note=70 velocity=49 time=0@note_on channel=3 note=70 velocity=0 time=0.23645833333333333@note_on channel=0 note=70 velocity=0 time=0.0125@note_on channel=1 note=70 velocity=0 time=0@note_on channel=9 note=41 velocity=0 time=0@note_on channel=0 note=69 velocity=126 time=0.0010416666666666667@note_on channel=1 note=69 velocity=49 time=0@note_on channel=3 note=69 velocity=49 time=0@note_on channel=9 note=41 velocity=112 time=0@note_on channel=3 note=38 velocity=0 time=0.3989583333333333@note_on channel=3 note=45 velocity=0 time=0@note_on channel=3 note=50 velocity=0 time=0@note_on channel=0 note=69 velocity=0 time=0.1@note_on channel=1 note=69 velocity=0 time=0@note_on channel=2 note=38 velocity=0 time=0@note_on channel=2 note=45 velocity=0 time=0@note_on channel=2 note=50 velocity=0 time=0@note_on channel=3 note=69 velocity=0 time=0@note_on channel=9 note=41 velocity=0 time=0@note_on channel=0 note=70 velocity=127 time=0.0010416666666666667@note_on channel=1 note=70 velocity=58 time=0@note_on channel=2 note=34 velocity=112 time=0@note_on channel=2 note=41 velocity=112 time=0@note_on channel=2 note=46 velocity=112 time=0@note_on channel=3 note=70 velocity=58 time=0@note_on channel=3 note=34 velocity=49 time=0@note_on channel=3 note=41 velocity=49 time=0@note_on channel=3 note=46 velocity=49 time=0@note_on channel=9 note=41 velocity=112 time=0@note_on channel=0 note=70 velocity=0 time=0.37395833333333334@note_on channel=1 note=70 velocity=0 time=0@note_on channel=3 note=70 velocity=0 time=0@note_on channel=0 note=69 velocity=126 time=0.0010416666666666667@note_on channel=1 note=69 velocity=49 time=0@note_on channel=3 note=69 velocity=49 time=0@note_on channel=9 note=41 velocity=0 time=0.12395833333333334@note_on channel=9 note=41 velocity=112 time=0.0010416666666666667@note_on channel=3 note=69 velocity=0 time=0.23020833333333332@note_on channel=0 note=69 velocity=0 time=0.01875@note_on channel=1 note=69 velocity=0 time=0@note_on channel=0 note=67 velocity=126 time=0.0010416666666666667@note_on channel=1 note=67 velocity=49 time=0@note_on channel=3 note=67 velocity=49 time=0@note_on channel=3 note=67 velocity=0 time=0.23645833333333333@note_on channel=0 note=67 velocity=0 time=0.0125@note_on channel=1 note=67 velocity=0 time=0@note_on channel=9 note=41 velocity=0 time=0@note_on channel=0 note=67 velocity=126 time=0.0010416666666666667@note_on channel=1 note=67 velocity=49 time=0@note_on channel=3 note=67 velocity=49 time=0@note_on channel=9 note=41 velocity=112 time=0@note_on channel=3 note=67 velocity=0 time=0.23645833333333333@note_on channel=0 note=67 velocity=0 time=0.0125@note_on channel=1 note=67 velocity=0 time=0@note_on channel=0 note=69 velocity=126 time=0.0010416666666666667@note_on channel=1 note=69 velocity=49 time=0@note_on channel=3 note=69 velocity=49 time=0@note_on channel=3 note=69 velocity=0 time=0.23645833333333333@note_on channel=0 note=69 velocity=0 time=0.0125@note_on channel=1 note=69 velocity=0 time=0@note_on channel=9 note=41 velocity=0 time=0@note_on channel=0 note=65 velocity=126 time=0.0010416666666666667@note_on channel=1 note=65 velocity=49 time=0@note_on channel=3 note=65 velocity=49 time=0@note_on channel=9 note=41 velocity=112 time=0@note_on channel=3 note=34 velocity=0 time=0.3989583333333333@note_on channel=3 note=41 velocity=0 time=0@note_on channel=3 note=46 velocity=0 time=0@note_on channel=0 note=65 velocity=0 time=0.1@note_on channel=1 note=65 velocity=0 time=0@note_on channel=2 note=34 velocity=0 time=0@note_on channel=2 note=41 velocity=0 time=0@note_on channel=2 note=46 velocity=0 time=0@note_on channel=3 note=65 velocity=0 time=0@note_on channel=9 note=41 velocity=0 time=0@note_on channel=0 note=69 velocity=127 time=0.0010416666666666667@note_on channel=1 note=69 velocity=58 time=0@note_on channel=2 note=33 velocity=112 time=0@note_on channel=2 note=40 velocity=112 time=0@note_on channel=2 note=45 velocity=112 time=0@note_on channel=3 note=69 velocity=58 time=0@note_on channel=3 note=33 velocity=49 time=0@note_on channel=3 note=40 velocity=49 time=0@note_on channel=3 note=45 velocity=49 time=0@note_on channel=9 note=41 velocity=112 time=0@note_on channel=0 note=69 velocity=0 time=0.37395833333333334@note_on channel=1 note=69 velocity=0 time=0@note_on channel=3 note=69 velocity=0 time=0@note_on channel=0 note=67 velocity=126 time=0.0010416666666666667@note_on channel=1 note=67 velocity=49 time=0@note_on channel=3 note=67 velocity=49 time=0@note_on channel=9 note=41 velocity=0 time=0.12395833333333334@note_on channel=9 note=41 velocity=112 time=0.0010416666666666667@note_on channel=3 note=67 velocity=0 time=0.23020833333333332@note_on channel=0 note=67 velocity=0 time=0.01875@note_on channel=1 note=67 velocity=0 time=0@note_on channel=0 note=65 velocity=126 time=0.0010416666666666667@note_on channel=1 note=65 velocity=49 time=0@note_on channel=3 note=65 velocity=49 time=0@note_on channel=3 note=65 velocity=0 time=0.23645833333333333@note_on channel=0 note=65 velocity=0 time=0.0125@note_on channel=1 note=65 velocity=0 time=0@note_on channel=9 note=41 velocity=0 time=0@note_on channel=0 note=65 velocity=126 time=0.0010416666666666667@note_on channel=1 note=65 velocity=49 time=0@note_on channel=3 note=65 velocity=49 time=0@note_on channel=9 note=41 velocity=112 time=0@note_on channel=3 note=65 velocity=0 time=0.23645833333333333@note_on channel=0 note=65 velocity=0 time=0.0125@note_on channel=1 note=65 velocity=0 time=0@note_on channel=0 note=67 velocity=126 time=0.0010416666666666667@note_on channel=1 note=67 velocity=49 time=0@note_on channel=3 note=67 velocity=49 time=0@note_on channel=3 note=67 velocity=0 time=0.23645833333333333@note_on channel=0 note=67 velocity=0 time=0.0125@note_on channel=1 note=67 velocity=0 time=0@note_on channel=9 note=41 velocity=0 time=0@note_on channel=0 note=64 velocity=126 time=0.0010416666666666667@note_on channel=1 note=64 velocity=49 time=0@note_on channel=3 note=64 velocity=49 time=0@note_on channel=9 note=41 velocity=112 time=0@note_on channel=3 note=33 velocity=0 time=0.3989583333333333@note_on channel=3 note=40 velocity=0 time=0@note_on channel=3 note=45 velocity=0 time=0@note_on channel=0 note=64 velocity=0 time=0.1@note_on channel=1 note=64 velocity=0 time=0@note_on channel=2 note=33 velocity=0 time=0@note_on channel=2 note=40 velocity=0 time=0@note_on channel=2 note=45 velocity=0 time=0@note_on channel=3 note=64 velocity=0 time=0@note_on channel=9 note=41 velocity=0 time=0@note_on channel=0 note=67 velocity=127 time=0.0010416666666666667@note_on channel=1 note=67 velocity=58 time=0@note_on channel=2 note=38 velocity=112 time=0@note_on channel=2 note=45 velocity=112 time=0@note_on channel=2 note=50 velocity=112 time=0@note_on channel=3 note=67 velocity=58 time=0@note_on channel=3 note=38 velocity=49 time=0@note_on channel=3 note=45 velocity=49 time=0@note_on channel=3 note=50 velocity=49 time=0@note_on channel=9 note=41 velocity=112 time=0@note_on channel=0 note=67 velocity=0 time=0.37395833333333334@note_on channel=1 note=67 velocity=0 time=0@note_on channel=3 note=67 velocity=0 time=0@note_on channel=0 note=65 velocity=126 time=0.0010416666666666667@note_on channel=1 note=65 velocity=49 time=0@note_on channel=3 note=65 velocity=49 time=0@note_on channel=9 note=41 velocity=0 time=0.12395833333333334@note_on channel=9 note=41 velocity=112 time=0.0010416666666666667@note_on channel=3 note=65 velocity=0 time=0.23020833333333332@note_on channel=0 note=65 velocity=0 time=0.01875@note_on channel=1 note=65 velocity=0 time=0@note_on channel=0 note=64 velocity=126 time=0.0010416666666666667@note_on channel=1 note=64 velocity=49 time=0@note_on channel=3 note=64 velocity=49 time=0@note_on channel=3 note=64 velocity=0 time=0.23645833333333333@note_on channel=0 note=64 velocity=0 time=0.0125@note_on channel=1 note=64 velocity=0 time=0@note_on channel=9 note=41 velocity=0 time=0@note_on channel=0 note=65 velocity=126 time=0.0010416666666666667@note_on channel=1 note=65 velocity=49 time=0@note_on channel=3 note=65 velocity=49 time=0@note_on channel=9 note=41 velocity=112 time=0@note_on channel=3 note=65 velocity=0 time=0.23645833333333333@note_on channel=0 note=65 velocity=0 time=0.0125@note_on channel=1 note=65 velocity=0 time=0@note_on channel=0 note=69 velocity=126 time=0.0010416666666666667@note_on channel=1 note=69 velocity=49 time=0@note_on channel=3 note=69 velocity=49 time=0@note_on channel=3 note=69 velocity=0 time=0.23645833333333333@note_on channel=0 note=69 velocity=0 time=0.0125@note_on channel=1 note=69 velocity=0 time=0@note_on channel=9 note=41 velocity=0 time=0@note_on channel=0 note=69 velocity=126 time=0.0010416666666666667@note_on channel=1 note=69 velocity=49 time=0@note_on channel=3 note=69 velocity=49 time=0@note_on channel=9 note=41 velocity=112 time=0@note_on channel=0 note=69 velocity=0 time=0.06145833333333333@note_on channel=1 note=69 velocity=0 time=0@note_on channel=3 note=69 velocity=0 time=0@note_on channel=0 note=67 velocity=126 time=0.06354166666666666@note_on channel=1 note=67 velocity=49 time=0@note_on channel=3 note=67 velocity=49 time=0@note_on channel=0 note=67 velocity=0 time=0.06145833333333333@note_on channel=1 note=67 velocity=0 time=0@note_on channel=3 note=67 velocity=0 time=0@note_on channel=0 note=65 velocity=126 time=0.06354166666666666@note_on channel=1 note=65 velocity=49 time=0@note_on channel=3 note=65 velocity=49 time=0@note_on channel=0 note=65 velocity=0 time=0.06145833333333333@note_on channel=1 note=65 velocity=0 time=0@note_on channel=3 note=65 velocity=0 time=0@note_on channel=0 note=64 velocity=126 time=0.06354166666666666@note_on channel=1 note=64 velocity=49 time=0@note_on channel=3 note=64 velocity=49 time=0@note_on channel=3 note=38 velocity=0 time=0.02395833333333333@note_on channel=3 note=45 velocity=0 time=0@note_on channel=3 note=50 velocity=0 time=0@note_on channel=0 note=64 velocity=0 time=0.0375@note_on channel=1 note=64 velocity=0 time=0@note_on channel=3 note=64 velocity=0 time=0@note_on channel=2 note=38 velocity=0 time=0.0625@note_on channel=2 note=45 velocity=0 time=0@note_on channel=2 note=50 velocity=0 time=0@note_on channel=9 note=41 velocity=0 time=0@note_on channel=0 note=62 velocity=127 time=0.0010416666666666667@note_on channel=1 note=62 velocity=58 time=0@note_on channel=2 note=38 velocity=112 time=0@note_on channel=2 note=45 velocity=112 time=0@note_on channel=2 note=50 velocity=112 time=0@note_on channel=3 note=62 velocity=58 time=0@note_on channel=3 note=38 velocity=49 time=0@note_on channel=3 note=45 velocity=49 time=0@note_on channel=3 note=50 velocity=49 time=0@note_on channel=9 note=41 velocity=112 time=0@note_on channel=0 note=62 velocity=0 time=0.37395833333333334@note_on channel=1 note=62 velocity=0 time=0@note_on channel=3 note=62 velocity=0 time=0@note_on channel=0 note=64 velocity=126 time=0.0010416666666666667@note_on channel=1 note=64 velocity=49 time=0@note_on channel=3 note=64 velocity=49 time=0@note_on channel=9 note=41 velocity=0 time=0.12395833333333334@note_on channel=9 note=41 velocity=112 time=0.0010416666666666667@note_on channel=3 note=64 velocity=0 time=0.23020833333333332@note_on channel=0 note=64 velocity=0 time=0.01875@note_on channel=1 note=64 velocity=0 time=0@note_on channel=0 note=65 velocity=126 time=0.0010416666666666667@note_on channel=1 note=65 velocity=49 time=0@note_on channel=3 note=65 velocity=49 time=0@note_on channel=3 note=65 velocity=0 time=0.23645833333333333@note_on channel=0 note=65 velocity=0 time=0.0125@note_on channel=1 note=65 velocity=0 time=0@note_on channel=9 note=41 velocity=0 time=0@note_on channel=0 note=67 velocity=126 time=0.0010416666666666667@note_on channel=1 note=67 velocity=49 time=0@note_on channel=3 note=67 velocity=49 time=0@note_on channel=9 note=41 velocity=112 time=0@note_on channel=3 note=67 velocity=0 time=0.23645833333333333@note_on channel=0 note=67 velocity=0 time=0.0125@note_on channel=1 note=67 velocity=0 time=0@note_on channel=0 note=70 velocity=126 time=0.0010416666666666667@note_on channel=1 note=70 velocity=49 time=0@note_on channel=3 note=70 velocity=49 time=0@note_on channel=3 note=70 velocity=0 time=0.23645833333333333@note_on channel=0 note=70 velocity=0 time=0.0125@note_on channel=1 note=70 velocity=0 time=0@note_on channel=9 note=41 velocity=0 time=0@note_on channel=0 note=69 velocity=126 time=0.0010416666666666667@note_on channel=1 note=69 velocity=49 time=0@note_on channel=3 note=69 velocity=49 time=0@note_on channel=9 note=41 velocity=112 time=0@note_on channel=3 note=38 velocity=0 time=0.3989583333333333@note_on channel=3 note=45 velocity=0 time=0@note_on channel=3 note=50 velocity=0 time=0@note_on channel=0 note=69 velocity=0 time=0.1@note_on channel=1 note=69 velocity=0 time=0@note_on channel=2 note=38 velocity=0 time=0@note_on channel=2 note=45 velocity=0 time=0@note_on channel=2 note=50 velocity=0 time=0@note_on channel=3 note=69 velocity=0 time=0@note_on channel=9 note=41 velocity=0 time=0@note_on channel=0 note=72 velocity=127 time=0.0010416666666666667@note_on channel=1 note=72 velocity=58 time=0@note_on channel=2 note=36 velocity=112 time=0@note_on channel=2 note=43 velocity=112 time=0@note_on channel=2 note=48 velocity=112 time=0@note_on channel=3 note=72 velocity=58 time=0@note_on channel=3 note=36 velocity=49 time=0@note_on channel=3 note=43 velocity=49 time=0@note_on channel=3 note=48 velocity=49 time=0@note_on channel=9 note=41 velocity=112 time=0@note_on channel=0 note=72 velocity=0 time=0.37395833333333334@note_on channel=1 note=72 velocity=0 time=0@note_on channel=3 note=72 velocity=0 time=0@note_on channel=0 note=70 velocity=126 time=0.0010416666666666667@note_on channel=1 note=70 velocity=49 time=0@note_on channel=3 note=70 velocity=49 time=0@note_on channel=9 note=41 velocity=0 time=0.12395833333333334@note_on channel=9 note=41 velocity=112 time=0.0010416666666666667@note_on channel=3 note=70 velocity=0 time=0.23020833333333332@note_on channel=0 note=70 velocity=0 time=0.01875@note_on channel=1 note=70 velocity=0 time=0@note_on channel=0 note=69 velocity=126 time=0.0010416666666666667@note_on channel=1 note=69 velocity=49 time=0@note_on channel=3 note=69 velocity=49 time=0@note_on channel=3 note=69 velocity=0 time=0.23645833333333333@note_on channel=0 note=69 velocity=0 time=0.0125@note_on channel=1 note=69 velocity=0 time=0@note_on channel=9 note=41 velocity=0 time=0@note_on channel=0 note=69 velocity=126 time=0.0010416666666666667@note_on channel=1 note=69 velocity=49 time=0@note_on channel=3 note=69 velocity=49 time=0@note_on channel=9 note=41 velocity=112 time=0@note_on channel=3 note=69 velocity=0 time=0.23645833333333333@note_on channel=0 note=69 velocity=0 time=0.0125@note_on channel=1 note=69 velocity=0 time=0@note_on channel=0 note=70 velocity=126 time=0.0010416666666666667@note_on channel=1 note=70 velocity=49 time=0@note_on channel=3 note=70 velocity=49 time=0@note_on channel=3 note=70 velocity=0 time=0.23645833333333333@note_on channel=0 note=70 velocity=0 time=0.0125@note_on channel=1 note=70 velocity=0 time=0@note_on channel=9 note=41 velocity=0 time=0@note_on channel=0 note=67 velocity=126 time=0.0010416666666666667@note_on channel=1 note=67 velocity=49 time=0@note_on channel=3 note=67 velocity=49 time=0@note_on channel=9 note=41 velocity=112 time=0@note_on channel=3 note=36 velocity=0 time=0.3989583333333333@note_on channel=3 note=43 velocity=0 time=0@note_on channel=3 note=48 velocity=0 time=0@note_on channel=0 note=67 velocity=0 time=0.1@note_on channel=1 note=67 velocity=0 time=0@note_on channel=2 note=36 velocity=0 time=0@note_on channel=2 note=43 velocity=0 time=0@note_on channel=2 note=48 velocity=0 time=0@note_on channel=3 note=67 velocity=0 time=0@note_on channel=9 note=41 velocity=0 time=0@note_on channel=0 note=70 velocity=127 time=0.0010416666666666667@note_on channel=1 note=70 velocity=58 time=0@note_on channel=2 note=34 velocity=112 time=0@note_on channel=2 note=41 velocity=112 time=0@note_on channel=2 note=46 velocity=112 time=0@note_on channel=3 note=70 velocity=58 time=0@note_on channel=3 note=34 velocity=49 time=0@note_on channel=3 note=41 velocity=49 time=0@note_on channel=3 note=46 velocity=49 time=0@note_on channel=9 note=41 velocity=112 time=0@note_on channel=0 note=70 velocity=0 time=0.37395833333333334@note_on channel=1 note=70 velocity=0 time=0@note_on channel=3 note=70 velocity=0 time=0@note_on channel=0 note=69 velocity=126 time=0.0010416666666666667@note_on channel=1 note=69 velocity=49 time=0@note_on channel=3 note=69 velocity=49 time=0@note_on channel=9 note=41 velocity=0 time=0.12395833333333334@note_on channel=9 note=41 velocity=112 time=0.0010416666666666667@note_on channel=3 note=69 velocity=0 time=0.23020833333333332@note_on channel=0 note=69 velocity=0 time=0.01875@note_on channel=1 note=69 velocity=0 time=0@note_on channel=0 note=67 velocity=126 time=0.0010416666666666667@note_on channel=1 note=67 velocity=49 time=0@note_on channel=3 note=67 velocity=49 time=0@note_on channel=3 note=67 velocity=0 time=0.23645833333333333@note_on channel=0 note=67 velocity=0 time=0.0125@note_on channel=1 note=67 velocity=0 time=0@note_on channel=9 note=41 velocity=0 time=0@note_on channel=0 note=67 velocity=126 time=0.0010416666666666667@note_on channel=1 note=67 velocity=49 time=0@note_on channel=3 note=67 velocity=49 time=0@note_on channel=9 note=41 velocity=112 time=0@note_on channel=3 note=67 velocity=0 time=0.23645833333333333@note_on channel=0 note=67 velocity=0 time=0.0125@note_on channel=1 note=67 velocity=0 time=0@note_on channel=0 note=69 velocity=126 time=0.0010416666666666667@note_on channel=1 note=69 velocity=49 time=0@note_on channel=3 note=69 velocity=49 time=0@note_on channel=3 note=69 velocity=0 time=0.23645833333333333@note_on channel=0 note=69 velocity=0 time=0.0125@note_on channel=1 note=69 velocity=0 time=0@note_on channel=9 note=41 velocity=0 time=0@note_on channel=0 note=65 velocity=126 time=0.0010416666666666667@note_on channel=1 note=65 velocity=49 time=0@note_on channel=3 note=65 velocity=49 time=0@note_on channel=9 note=41 velocity=112 time=0@note_on channel=3 note=34 velocity=0 time=0.3989583333333333@note_on channel=3 note=41 velocity=0 time=0@note_on channel=3 note=46 velocity=0 time=0@note_on channel=0 note=65 velocity=0 time=0.1@note_on channel=1 note=65 velocity=0 time=0@note_on channel=2 note=34 velocity=0 time=0@note_on channel=2 note=41 velocity=0 time=0@note_on channel=2 note=46 velocity=0 time=0@note_on channel=3 note=65 velocity=0 time=0@note_on channel=9 note=41 velocity=0 time=0@note_on channel=0 note=69 velocity=127 time=0.0010416666666666667@note_on channel=1 note=69 velocity=58 time=0@note_on channel=2 note=32 velocity=112 time=0@note_on channel=2 note=39 velocity=112 time=0@note_on channel=2 note=44 velocity=112 time=0@note_on channel=3 note=69 velocity=58 time=0@note_on channel=3 note=32 velocity=49 time=0@note_on channel=3 note=39 velocity=49 time=0@note_on channel=3 note=44 velocity=49 time=0@note_on channel=9 note=41 velocity=112 time=0@note_on channel=0 note=69 velocity=0 time=0.12395833333333334@note_on channel=1 note=69 velocity=0 time=0@note_on channel=3 note=69 velocity=0 time=0@note_on channel=0 note=67 velocity=126 time=0.0010416666666666667@note_on channel=1 note=67 velocity=49 time=0@note_on channel=3 note=67 velocity=49 time=0@note_on channel=3 note=67 velocity=0 time=0.11770833333333333@note_on channel=0 note=67 velocity=0 time=0.00625@note_on channel=1 note=67 velocity=0 time=0@note_on channel=0 note=65 velocity=126 time=0.0010416666666666667@note_on channel=1 note=65 velocity=49 time=0@note_on channel=3 note=65 velocity=49 time=0@note_on channel=3 note=65 velocity=0 time=0.11770833333333333@note_on channel=0 note=65 velocity=0 time=0.00625@note_on channel=1 note=65 velocity=0 time=0@note_on channel=0 note=69 velocity=126 time=0.0010416666666666667@note_on channel=1 note=69 velocity=49 time=0@note_on channel=3 note=69 velocity=49 time=0@note_on channel=3 note=69 velocity=0 time=0.11770833333333333@note_on channel=0 note=69 velocity=0 time=0.00625@note_on channel=1 note=69 velocity=0 time=0@note_on channel=9 note=41 velocity=0 time=0@note_on channel=0 note=67 velocity=126 time=0.0010416666666666667@note_on channel=1 note=67 velocity=49 time=0@note_on channel=3 note=67 velocity=49 time=0@note_on channel=9 note=41 velocity=112 time=0@note_on channel=3 note=67 velocity=0 time=0.11770833333333333@note_on channel=0 note=67 velocity=0 time=0.00625@note_on channel=1 note=67 velocity=0 time=0@note_on channel=0 note=62 velocity=126 time=0.0010416666666666667@note_on channel=1 note=62 velocity=49 time=0@note_on channel=3 note=62 velocity=49 time=0@note_on channel=3 note=62 velocity=0 time=0.11770833333333333@note_on channel=0 note=62 velocity=0 time=0.00625@note_on channel=1 note=62 velocity=0 time=0@note_on channel=0 note=64 velocity=126 time=0.0010416666666666667@note_on channel=1 note=64 velocity=49 time=0@note_on channel=3 note=64 velocity=49 time=0@note_on channel=3 note=32 velocity=0 time=0.19895833333333332@note_on channel=3 note=39 velocity=0 time=0@note_on channel=3 note=44 velocity=0 time=0@note_on channel=3 note=64 velocity=0 time=0.0375@note_on channel=0 note=64 velocity=0 time=0.0125@note_on channel=1 note=64 velocity=0 time=0@note_on channel=2 note=32 velocity=0 time=0@note_on channel=2 note=39 velocity=0 time=0@note_on channel=2 note=44 velocity=0 time=0@note_on channel=0 note=65 velocity=126 time=0.0010416666666666667@note_on channel=1 note=65 velocity=49 time=0@note_on channel=3 note=65 velocity=49 time=0@note_on channel=3 note=65 velocity=0 time=0.23645833333333333@note_on channel=0 note=65 velocity=0 time=0.0125@note_on channel=1 note=65 velocity=0 time=0@note_on channel=9 note=41 velocity=0 time=0@note_on channel=0 note=62 velocity=127 time=0.0010416666666666667@note_on channel=1 note=62 velocity=127 time=0@note_on channel=2 note=38 velocity=127 time=0@note_on channel=2 note=50 velocity=127 time=0@note_on channel=3 note=62 velocity=127 time=0@note_on channel=3 note=38 velocity=127 time=0@note_on channel=3 note=50 velocity=127 time=0@note_on channel=9 note=41 velocity=112 time=0@note_on channel=0 note=62 velocity=0 time=0.24895833333333334@note_on channel=1 note=62 velocity=0 time=0@note_on channel=2 note=38 velocity=0 time=0@note_on channel=2 note=50 velocity=0 time=0@note_on channel=3 note=62 velocity=0 time=0@note_on channel=3 note=38 velocity=0 time=0@note_on channel=3 note=50 velocity=0 time=0@note_on channel=9 note=41 velocity=0 time=0@note_on channel=0 note=64 velocity=127 time=0.0010416666666666667@note_on channel=1 note=64 velocity=127 time=0@note_on channel=2 note=40 velocity=127 time=0@note_on channel=2 note=52 velocity=127 time=0@note_on channel=3 note=64 velocity=127 time=0@note_on channel=3 note=40 velocity=127 time=0@note_on channel=3 note=52 velocity=127 time=0@note_on channel=9 note=41 velocity=112 time=0@note_on channel=0 note=64 velocity=0 time=0.24895833333333334@note_on channel=1 note=64 velocity=0 time=0@note_on channel=2 note=40 velocity=0 time=0@note_on channel=2 note=52 velocity=0 time=0@note_on channel=3 note=64 velocity=0 time=0@note_on channel=3 note=40 velocity=0 time=0@note_on channel=3 note=52 velocity=0 time=0@note_on channel=9 note=41 velocity=0 time=0@note_on channel=0 note=62 velocity=127 time=0.0010416666666666667@note_on channel=1 note=62 velocity=127 time=0@note_on channel=2 note=38 velocity=127 time=0@note_on channel=2 note=50 velocity=127 time=0@note_on channel=3 note=62 velocity=127 time=0@note_on channel=3 note=38 velocity=127 time=0@note_on channel=3 note=50 velocity=127 time=0@note_on channel=9 note=41 velocity=112 time=0@note_on channel=0 note=62 velocity=0 time=0.12395833333333334@note_on channel=1 note=62 velocity=0 time=0@note_on channel=2 note=38 velocity=0 time=0@note_on channel=2 note=50 velocity=0 time=0@note_on channel=3 note=62 velocity=0 time=0@note_on channel=3 note=38 velocity=0 time=0@note_on channel=3 note=50 velocity=0 time=0@note_on channel=9 note=41 velocity=0 time=0.125@note_on channel=0 note=62 velocity=80 time=0.0010416666666666667@note_on channel=1 note=62 velocity=80 time=0@note_on channel=2 note=38 velocity=80 time=0@note_on channel=2 note=45 velocity=80 time=0@note_on channel=2 note=50 velocity=80 time=0@note_on channel=3 note=62 velocity=80 time=0@note_on channel=3 note=38 velocity=80 time=0@note_on channel=3 note=45 velocity=80 time=0@note_on channel=3 note=50 velocity=80 time=0@note_on channel=9 note=41 velocity=112 time=0@note_on channel=9 note=37 velocity=112 time=0@note_on channel=9 note=41 velocity=0 time=0.12395833333333334@note_on channel=9 note=42 velocity=112 time=0.0010416666666666667@note_on channel=9 note=37 velocity=0 time=0.12395833333333334@note_on channel=9 note=37 velocity=112 time=0.0010416666666666667@note_on channel=3 note=62 velocity=0 time=0.10520833333333333@note_on channel=0 note=62 velocity=0 time=0.01875@note_on channel=1 note=62 velocity=0 time=0@note_on channel=9 note=42 velocity=0 time=0@note_on channel=9 note=37 velocity=0 time=0@note_on channel=0 note=64 velocity=80 time=0.0010416666666666667@note_on channel=1 note=64 velocity=80 time=0@note_on channel=3 note=64 velocity=80 time=0@note_on channel=9 note=36 velocity=112 time=0@note_on channel=9 note=37 velocity=112 time=0@note_on channel=9 note=37 velocity=0 time=0.12395833333333334@note_on channel=9 note=37 velocity=112 time=0.0010416666666666667@note_on channel=9 note=36 velocity=0 time=0.12395833333333334@note_on channel=9 note=37 velocity=0 time=0@note_on channel=9 note=42 velocity=112 time=0.0010416666666666667@note_on channel=9 note=37 velocity=112 time=0@note_on channel=3 note=64 velocity=0 time=0.10520833333333333@note_on channel=0 note=64 velocity=0 time=0.01875@note_on channel=1 note=64 velocity=0 time=0@note_on channel=9 note=42 velocity=0 time=0@note_on channel=9 note=37 velocity=0 time=0@note_on channel=0 note=65 velocity=80 time=0.0010416666666666667@note_on channel=1 note=65 velocity=80 time=0@note_on channel=3 note=65 velocity=80 time=0@note_on channel=9 note=41 velocity=112 time=0@note_on channel=9 note=37 velocity=112 time=0@note_on channel=3 note=65 velocity=0 time=0.23645833333333333@note_on channel=0 note=65 velocity=0 time=0.0125@note_on channel=1 note=65 velocity=0 time=0@note_on channel=9 note=41 velocity=0 time=0@note_on channel=9 note=37 velocity=0 time=0@note_on channel=0 note=67 velocity=80 time=0.0010416666666666667@note_on channel=1 note=67 velocity=80 time=0@note_on channel=3 note=67 velocity=80 time=0@note_on channel=9 note=42 velocity=112 time=0@note_on channel=9 note=37 velocity=112 time=0@note_on channel=9 note=42 velocity=0 time=0.24895833333333334@note_on channel=9 note=37 velocity=0 time=0@note_on channel=9 note=42 velocity=112 time=0.0010416666666666667@note_on channel=9 note=37 velocity=112 time=0@note_on channel=9 note=37 velocity=0 time=0.12395833333333334@note_on channel=9 note=37 velocity=112 time=0.0010416666666666667@note_on channel=3 note=67 velocity=0 time=0.09895833333333333@note_on channel=0 note=67 velocity=0 time=0.025@note_on channel=1 note=67 velocity=0 time=0@note_on channel=9 note=42 velocity=0 time=0@note_on channel=9 note=37 velocity=0 time=0@note_on channel=0 note=69 velocity=80 time=0.0010416666666666667@note_on channel=1 note=69 velocity=80 time=0@note_on channel=3 note=69 velocity=80 time=0@note_on channel=9 note=42 velocity=112 time=0@note_on channel=9 note=37 velocity=112 time=0@note_on channel=9 note=37 velocity=0 time=0.24895833333333334@note_on channel=9 note=37 velocity=112 time=0.0010416666666666667@note_on channel=3 note=38 velocity=0 time=0.14895833333333333@note_on channel=3 note=45 velocity=0 time=0@note_on channel=3 note=50 velocity=0 time=0@note_on channel=3 note=69 velocity=0 time=0.075@note_on channel=0 note=69 velocity=0 time=0.025@note_on channel=1 note=69 velocity=0 time=0@note_on channel=2 note=38 velocity=0 time=0@note_on channel=2 note=45 velocity=0 time=0@note_on channel=2 note=50 velocity=0 time=0@note_on channel=9 note=42 velocity=0 time=0@note_on channel=9 note=37 velocity=0 time=0@note_on channel=0 note=72 velocity=80 time=0.0010416666666666667@note_on channel=1 note=72 velocity=80 time=0@note_on channel=2 note=36 velocity=80 time=0@note_on channel=2 note=43 velocity=80 time=0@note_on channel=2 note=48 velocity=80 time=0@note_on channel=3 note=72 velocity=80 time=0@note_on channel=3 note=36 velocity=80 time=0@note_on channel=3 note=43 velocity=80 time=0@note_on channel=3 note=48 velocity=80 time=0@note_on channel=9 note=41 velocity=112 time=0@note_on channel=9 note=37 velocity=112 time=0@note_on channel=9 note=41 velocity=0 time=0.12395833333333334@note_on channel=9 note=42 velocity=112 time=0.0010416666666666667@note_on channel=3 note=72 velocity=0 time=0.23020833333333332@note_on channel=0 note=72 velocity=0 time=0.01875@note_on channel=1 note=72 velocity=0 time=0@note_on channel=9 note=42 velocity=0 time=0@note_on channel=9 note=37 velocity=0 time=0@note_on channel=0 note=70 velocity=80 time=0.0010416666666666667@note_on channel=1 note=70 velocity=80 time=0@note_on channel=3 note=70 velocity=80 time=0@note_on channel=9 note=36 velocity=112 time=0@note_on channel=9 note=37 velocity=112 time=0@note_on channel=9 note=36 velocity=0 time=0.24895833333333334@note_on channel=9 note=42 velocity=112 time=0.0010416666666666667@note_on channel=3 note=70 velocity=0 time=0.10520833333333333@note_on channel=0 note=70 velocity=0 time=0.01875@note_on channel=1 note=70 velocity=0 time=0@note_on channel=9 note=42 velocity=0 time=0@note_on channel=9 note=37 velocity=0 time=0@note_on channel=0 note=69 velocity=80 time=0.0010416666666666667@note_on channel=1 note=69 velocity=80 time=0@note_on channel=3 note=69 velocity=80 time=0@note_on channel=9 note=41 velocity=112 time=0@note_on channel=9 note=37 velocity=112 time=0@note_on channel=3 note=69 velocity=0 time=0.23645833333333333@note_on channel=0 note=69 velocity=0 time=0.0125@note_on channel=1 note=69 velocity=0 time=0@note_on channel=9 note=41 velocity=0 time=0@note_on channel=9 note=37 velocity=0 time=0@note_on channel=0 note=69 velocity=80 time=0.0010416666666666667@note_on channel=1 note=69 velocity=80 time=0@note_on channel=3 note=69 velocity=80 time=0@note_on channel=9 note=42 velocity=112 time=0@note_on channel=9 note=37 velocity=112 time=0@note_on channel=9 note=42 velocity=0 time=0.24895833333333334@note_on channel=9 note=37 velocity=0 time=0@note_on channel=9 note=43 velocity=112 time=0.0010416666666666667@note_on channel=9 note=37 velocity=112 time=0@note_on channel=3 note=69 velocity=0 time=0.22395833333333334@note_on channel=0 note=69 velocity=0 time=0.025@note_on channel=1 note=69 velocity=0 time=0@note_on channel=9 note=43 velocity=0 time=0@note_on channel=9 note=37 velocity=0 time=0@note_on channel=0 note=67 velocity=80 time=0.0010416666666666667@note_on channel=1 note=67 velocity=80 time=0@note_on channel=3 note=67 velocity=80 time=0@note_on channel=9 note=57 velocity=112 time=0@note_on channel=9 note=37 velocity=112 time=0@note_on channel=9 note=37 velocity=0 time=0.24895833333333334@note_on channel=9 note=37 velocity=112 time=0.0010416666666666667@note_on channel=3 note=36 velocity=0 time=0.14895833333333333@note_on channel=3 note=43 velocity=0 time=0@note_on channel=3 note=48 velocity=0 time=0@note_on channel=3 note=67 velocity=0 time=0.075@note_on channel=0 note=67 velocity=0 time=0.025@note_on channel=1 note=67 velocity=0 time=0@note_on channel=2 note=36 velocity=0 time=0@note_on channel=2 note=43 velocity=0 time=0@note_on channel=2 note=48 velocity=0 time=0@note_on channel=9 note=57 velocity=0 time=0@note_on channel=9 note=37 velocity=0 time=0@note_on channel=0 note=70 velocity=80 time=0.0010416666666666667@note_on channel=1 note=70 velocity=80 time=0@note_on channel=2 note=34 velocity=80 time=0@note_on channel=2 note=41 velocity=80 time=0@note_on channel=2 note=46 velocity=80 time=0@note_on channel=3 note=70 velocity=80 time=0@note_on channel=3 note=34 velocity=80 time=0@note_on channel=3 note=41 velocity=80 time=0@note_on channel=3 note=46 velocity=80 time=0@note_on channel=9 note=41 velocity=112 time=0@note_on channel=9 note=37 velocity=112 time=0@note_on channel=9 note=41 velocity=0 time=0.12395833333333334@note_on channel=9 note=42 velocity=112 time=0.0010416666666666667@note_on channel=3 note=70 velocity=0 time=0.23020833333333332@note_on channel=0 note=70 velocity=0 time=0.01875@note_on channel=1 note=70 velocity=0 time=0@note_on channel=9 note=42 velocity=0 time=0@note_on channel=9 note=37 velocity=0 time=0@note_on channel=0 note=69 velocity=80 time=0.0010416666666666667@note_on channel=1 note=69 velocity=80 time=0@note_on channel=3 note=69 velocity=80 time=0@note_on channel=9 note=36 velocity=112 time=0@note_on channel=9 note=37 velocity=112 time=0@note_on channel=9 note=36 velocity=0 time=0.24895833333333334@note_on channel=9 note=42 velocity=112 time=0.0010416666666666667@note_on channel=3 note=69 velocity=0 time=0.10520833333333333@note_on channel=0 note=69 velocity=0 time=0.01875@note_on channel=1 note=69 velocity=0 time=0@note_on channel=9 note=42 velocity=0 time=0@note_on channel=9 note=37 velocity=0 time=0@note_on channel=0 note=67 velocity=80 time=0.0010416666666666667@note_on channel=1 note=67 velocity=80 time=0@note_on channel=3 note=67 velocity=80 time=0@note_on channel=9 note=41 velocity=112 time=0@note_on channel=9 note=37 velocity=112 time=0@note_on channel=3 note=67 velocity=0 time=0.23645833333333333@note_on channel=0 note=67 velocity=0 time=0.0125@note_on channel=1 note=67 velocity=0 time=0@note_on channel=9 note=41 velocity=0 time=0@note_on channel=9 note=37 velocity=0 time=0@note_on channel=0 note=65 velocity=80 time=0.0010416666666666667@note_on channel=1 note=65 velocity=80 time=0@note_on channel=3 note=65 velocity=80 time=0@note_on channel=9 note=42 velocity=112 time=0@note_on channel=9 note=37 velocity=112 time=0@note_on channel=9 note=42 velocity=0 time=0.24895833333333334@note_on channel=9 note=37 velocity=0 time=0@note_on channel=9 note=42 velocity=112 time=0.0010416666666666667@note_on channel=9 note=37 velocity=112 time=0@note_on channel=3 note=65 velocity=0 time=0.22395833333333334@note_on channel=0 note=65 velocity=0 time=0.025@note_on channel=1 note=65 velocity=0 time=0@note_on channel=9 note=42 velocity=0 time=0@note_on channel=9 note=37 velocity=0 time=0@note_on channel=0 note=62 velocity=80 time=0.0010416666666666667@note_on channel=1 note=62 velocity=80 time=0@note_on channel=3 note=62 velocity=80 time=0@note_on channel=9 note=42 velocity=112 time=0@note_on channel=9 note=37 velocity=112 time=0@note_on channel=9 note=37 velocity=0 time=0.24895833333333334@note_on channel=9 note=37 velocity=112 time=0.0010416666666666667@note_on channel=3 note=34 velocity=0 time=0.14895833333333333@note_on channel=3 note=41 velocity=0 time=0@note_on channel=3 note=46 velocity=0 time=0@note_on channel=3 note=62 velocity=0 time=0.075@note_on channel=0 note=62 velocity=0 time=0.025@note_on channel=1 note=62 velocity=0 time=0@note_on channel=2 note=34 velocity=0 time=0@note_on channel=2 note=41 velocity=0 time=0@note_on channel=2 note=46 velocity=0 time=0@note_on channel=9 note=42 velocity=0 time=0@note_on channel=9 note=37 velocity=0 time=0@note_on channel=0 note=67 velocity=80 time=0.0010416666666666667@note_on channel=1 note=67 velocity=80 time=0@note_on channel=2 note=33 velocity=80 time=0@note_on channel=2 note=40 velocity=80 time=0@note_on channel=2 note=45 velocity=80 time=0@note_on channel=3 note=67 velocity=80 time=0@note_on channel=3 note=33 velocity=80 time=0@note_on channel=3 note=40 velocity=80 time=0@note_on channel=3 note=45 velocity=80 time=0@note_on channel=9 note=41 velocity=112 time=0@note_on channel=9 note=37 velocity=112 time=0@note_on channel=9 note=41 velocity=0 time=0.12395833333333334@note_on channel=9 note=42 velocity=112 time=0.0010416666666666667@note_on channel=3 note=67 velocity=0 time=0.23020833333333332@note_on channel=0 note=67 velocity=0 time=0.01875@note_on channel=1 note=67 velocity=0 time=0@note_on channel=9 note=42 velocity=0 time=0@note_on channel=9 note=37 velocity=0 time=0@note_on channel=0 note=67 velocity=80 time=0.0010416666666666667@note_on channel=1 note=67 velocity=80 time=0@note_on channel=3 note=67 velocity=83 time=0@note_on channel=9 note=36 velocity=112 time=0@note_on channel=9 note=37 velocity=112 time=0@note_on channel=9 note=36 velocity=0 time=0.24895833333333334@note_on channel=9 note=42 velocity=112 time=0.0010416666666666667@note_on channel=3 note=67 velocity=0 time=0.10520833333333333@note_on channel=0 note=67 velocity=0 time=0.01875@note_on channel=1 note=67 velocity=0 time=0@note_on channel=9 note=42 velocity=0 time=0@note_on channel=9 note=37 velocity=0 time=0@note_on channel=0 note=69 velocity=80 time=0.0010416666666666667@note_on channel=1 note=69 velocity=80 time=0@note_on channel=3 note=69 velocity=86 time=0@note_on channel=9 note=41 velocity=112 time=0@note_on channel=9 note=37 velocity=112 time=0@note_on channel=3 note=69 velocity=0 time=0.23645833333333333@note_on channel=0 note=69 velocity=0 time=0.0125@note_on channel=1 note=69 velocity=0 time=0@note_on channel=9 note=41 velocity=0 time=0@note_on channel=9 note=37 velocity=0 time=0@note_on channel=0 note=70 velocity=80 time=0.0010416666666666667@note_on channel=1 note=70 velocity=80 time=0@note_on channel=3 note=70 velocity=88 time=0@note_on channel=9 note=42 velocity=112 time=0@note_on channel=9 note=37 velocity=112 time=0@note_on channel=9 note=42 velocity=0 time=0.24895833333333334@note_on channel=9 note=37 velocity=0 time=0@note_on channel=9 note=43 velocity=112 time=0.0010416666666666667@note_on channel=9 note=37 velocity=112 time=0@note_on channel=3 note=70 velocity=0 time=0.22395833333333334@note_on channel=0 note=70 velocity=0 time=0.025@note_on channel=1 note=70 velocity=0 time=0@note_on channel=9 note=43 velocity=0 time=0@note_on channel=9 note=37 velocity=0 time=0@note_on channel=0 note=69 velocity=80 time=0.0010416666666666667@note_on channel=1 note=69 velocity=80 time=0@note_on channel=3 note=69 velocity=92 time=0@note_on channel=9 note=57 velocity=112 time=0@note_on channel=9 note=37 velocity=112 time=0@note_on channel=9 note=37 velocity=0 time=0.24895833333333334@note_on channel=9 note=37 velocity=112 time=0.0010416666666666667@note_on channel=3 note=33 velocity=0 time=0.14895833333333333@note_on channel=3 note=40 velocity=0 time=0@note_on channel=3 note=45 velocity=0 time=0@note_on channel=3 note=69 velocity=0 time=0.075@note_on channel=0 note=69 velocity=0 time=0.025@note_on channel=1 note=69 velocity=0 time=0@note_on channel=2 note=33 velocity=0 time=0@note_on channel=2 note=40 velocity=0 time=0@note_on channel=2 note=45 velocity=0 time=0@note_on channel=9 note=57 velocity=0 time=0@note_on channel=9 note=37 velocity=0 time=0@note_on channel=0 note=62 velocity=80 time=0.0010416666666666667@note_on channel=1 note=62 velocity=80 time=0@note_on channel=2 note=38 velocity=96 time=0@note_on channel=2 note=45 velocity=96 time=0@note_on channel=2 note=50 velocity=96 time=0@note_on channel=3 note=62 velocity=96 time=0@note_on channel=3 note=38 velocity=96 time=0@note_on channel=3 note=45 velocity=96 time=0@note_on channel=3 note=50 velocity=96 time=0@note_on channel=9 note=41 velocity=112 time=0@note_on channel=9 note=37 velocity=112 time=0@note_on channel=9 note=41 velocity=0 time=0.12395833333333334@note_on channel=9 note=42 velocity=112 time=0.0010416666666666667@note_on channel=3 note=62 velocity=0 time=0.23020833333333332@note_on channel=0 note=62 velocity=0 time=0.01875@note_on channel=1 note=62 velocity=0 time=0@note_on channel=9 note=42 velocity=0 time=0@note_on channel=9 note=37 velocity=0 time=0@note_on channel=0 note=64 velocity=80 time=0.0010416666666666667@note_on channel=1 note=64 velocity=80 time=0@note_on channel=3 note=64 velocity=96 time=0@note_on channel=9 note=36 velocity=112 time=0@note_on channel=9 note=37 velocity=112 time=0@note_on channel=9 note=36 velocity=0 time=0.24895833333333334@note_on channel=9 note=42 velocity=112 time=0.0010416666666666667@note_on channel=3 note=64 velocity=0 time=0.10520833333333333@note_on channel=0 note=64 velocity=0 time=0.01875@note_on channel=1 note=64 velocity=0 time=0@note_on channel=9 note=42 velocity=0 time=0@note_on channel=9 note=37 velocity=0 time=0@note_on channel=0 note=65 velocity=80 time=0.0010416666666666667@note_on channel=1 note=65 velocity=80 time=0@note_on channel=3 note=65 velocity=96 time=0@note_on channel=9 note=41 velocity=112 time=0@note_on channel=9 note=37 velocity=112 time=0@note_on channel=3 note=65 velocity=0 time=0.23645833333333333@note_on channel=0 note=65 velocity=0 time=0.0125@note_on channel=1 note=65 velocity=0 time=0@note_on channel=9 note=41 velocity=0 time=0@note_on channel=9 note=37 velocity=0 time=0@note_on channel=0 note=69 velocity=80 time=0.0010416666666666667@note_on channel=1 note=69 velocity=80 time=0@note_on channel=3 note=69 velocity=96 time=0@note_on channel=9 note=42 velocity=112 time=0@note_on channel=9 note=37 velocity=112 time=0@note_on channel=9 note=42 velocity=0 time=0.24895833333333334@note_on channel=9 note=37 velocity=0 time=0@note_on channel=9 note=42 velocity=112 time=0.0010416666666666667@note_on channel=9 note=37 velocity=112 time=0@note_on channel=3 note=69 velocity=0 time=0.22395833333333334@note_on channel=0 note=69 velocity=0 time=0.025@note_on channel=1 note=69 velocity=0 time=0@note_on channel=9 note=42 velocity=0 time=0@note_on channel=9 note=37 velocity=0 time=0@note_on channel=0 note=65 velocity=80 time=0.0010416666666666667@note_on channel=1 note=65 velocity=80 time=0@note_on channel=3 note=65 velocity=96 time=0@note_on channel=9 note=42 velocity=112 time=0@note_on channel=9 note=37 velocity=112 time=0@note_on channel=9 note=37 velocity=0 time=0.24895833333333334@note_on channel=9 note=37 velocity=112 time=0.0010416666666666667@note_on channel=3 note=38 velocity=0 time=0.14895833333333333@note_on channel=3 note=45 velocity=0 time=0@note_on channel=3 note=50 velocity=0 time=0@note_on channel=3 note=65 velocity=0 time=0.075@note_on channel=0 note=65 velocity=0 time=0.025@note_on channel=1 note=65 velocity=0 time=0@note_on channel=2 note=38 velocity=0 time=0@note_on channel=2 note=45 velocity=0 time=0@note_on channel=2 note=50 velocity=0 time=0@note_on channel=9 note=42 velocity=0 time=0@note_on channel=9 note=37 velocity=0 time=0@note_on channel=0 note=67 velocity=80 time=0.0010416666666666667@note_on channel=1 note=67 velocity=80 time=0@note_on channel=2 note=36 velocity=96 time=0@note_on channel=2 note=43 velocity=96 time=0@note_on channel=2 note=48 velocity=96 time=0@note_on channel=3 note=67 velocity=96 time=0@note_on channel=3 note=36 velocity=96 time=0@note_on channel=3 note=43 velocity=96 time=0@note_on channel=3 note=48 velocity=96 time=0@note_on channel=9 note=41 velocity=112 time=0@note_on channel=9 note=37 velocity=112 time=0@note_on channel=9 note=41 velocity=0 time=0.12395833333333334@note_on channel=9 note=42 velocity=112 time=0.0010416666666666667@note_on channel=3 note=67 velocity=0 time=0.23020833333333332@note_on channel=0 note=67 velocity=0 time=0.01875@note_on channel=1 note=67 velocity=0 time=0@note_on channel=9 note=42 velocity=0 time=0@note_on channel=9 note=37 velocity=0 time=0@note_on channel=0 note=69 velocity=80 time=0.0010416666666666667@note_on channel=1 note=69 velocity=80 time=0@note_on channel=3 note=69 velocity=96 time=0@note_on channel=9 note=36 velocity=112 time=0@note_on channel=9 note=37 velocity=112 time=0@note_on channel=9 note=36 velocity=0 time=0.24895833333333334@note_on channel=9 note=42 velocity=112 time=0.0010416666666666667@note_on channel=3 note=69 velocity=0 time=0.10520833333333333@note_on channel=0 note=69 velocity=0 time=0.01875@note_on channel=1 note=69 velocity=0 time=0@note_on channel=9 note=42 velocity=0 time=0@note_on channel=9 note=37 velocity=0 time=0@note_on channel=0 note=70 velocity=80 time=0.0010416666666666667@note_on channel=1 note=70 velocity=80 time=0@note_on channel=3 note=70 velocity=96 time=0@note_on channel=9 note=41 velocity=112 time=0@note_on channel=9 note=37 velocity=112 time=0@note_on channel=3 note=70 velocity=0 time=0.23645833333333333@note_on channel=0 note=70 velocity=0 time=0.0125@note_on channel=1 note=70 velocity=0 time=0@note_on channel=9 note=41 velocity=0 time=0@note_on channel=9 note=37 velocity=0 time=0@note_on channel=0 note=69 velocity=80 time=0.0010416666666666667@note_on channel=1 note=69 velocity=80 time=0@note_on channel=3 note=69 velocity=96 time=0@note_on channel=9 note=42 velocity=112 time=0@note_on channel=9 note=37 velocity=112 time=0@note_on channel=9 note=42 velocity=0 time=0.24895833333333334@note_on channel=9 note=37 velocity=0 time=0@note_on channel=9 note=43 velocity=112 time=0.0010416666666666667@note_on channel=9 note=37 velocity=112 time=0@note_on channel=3 note=36 velocity=0 time=0.17395833333333333@note_on channel=3 note=43 velocity=0 time=0@note_on channel=3 note=48 velocity=0 time=0@note_on channel=3 note=69 velocity=0 time=0.05@note_on channel=0 note=69 velocity=0 time=0.025@note_on channel=1 note=69 velocity=0 time=0@note_on channel=2 note=36 velocity=0 time=0@note_on channel=2 note=43 velocity=0 time=0@note_on channel=2 note=48 velocity=0 time=0@note_on channel=9 note=43 velocity=0 time=0@note_on channel=9 note=37 velocity=0 time=0@note_on channel=0 note=67 velocity=80 time=0.0010416666666666667@note_on channel=1 note=67 velocity=80 time=0@note_on channel=2 note=33 velocity=96 time=0@note_on channel=2 note=40 velocity=96 time=0@note_on channel=2 note=45 velocity=96 time=0@note_on channel=3 note=67 velocity=96 time=0@note_on channel=3 note=33 velocity=96 time=0@note_on channel=3 note=40 velocity=96 time=0@note_on channel=3 note=45 velocity=96 time=0@note_on channel=9 note=57 velocity=112 time=0@note_on channel=9 note=37 velocity=112 time=0@note_on channel=9 note=37 velocity=0 time=0.24895833333333334@note_on channel=9 note=37 velocity=112 time=0.0010416666666666667@note_on channel=3 note=67 velocity=0 time=0.22395833333333334@note_on channel=3 note=33 velocity=0 time=0@note_on channel=3 note=40 velocity=0 time=0@note_on channel=3 note=45 velocity=0 time=0@note_on channel=0 note=67 velocity=0 time=0.025@note_on channel=1 note=67 velocity=0 time=0@note_on channel=2 note=33 velocity=0 time=0@note_on channel=2 note=40 velocity=0 time=0@note_on channel=2 note=45 velocity=0 time=0@note_on channel=9 note=57 velocity=0 time=0@note_on channel=9 note=37 velocity=0 time=0@note_on channel=0 note=65 velocity=86 time=0.0010416666666666667@note_on channel=1 note=65 velocity=86 time=0@note_on channel=2 note=34 velocity=99 time=0@note_on channel=2 note=41 velocity=99 time=0@note_on channel=2 note=46 velocity=99 time=0@note_on channel=3 note=65 velocity=99 time=0@note_on channel=3 note=34 velocity=99 time=0@note_on channel=3 note=41 velocity=99 time=0@note_on channel=3 note=46 velocity=99 time=0@note_on channel=9 note=41 velocity=112 time=0@note_on channel=9 note=37 velocity=112 time=0@note_on channel=9 note=41 velocity=0 time=0.12395833333333334@note_on channel=9 note=42 velocity=112 time=0.0010416666666666667@note_on channel=3 note=65 velocity=0 time=0.23020833333333332@note_on channel=0 note=65 velocity=0 time=0.01875@note_on channel=1 note=65 velocity=0 time=0@note_on channel=9 note=42 velocity=0 time=0@note_on channel=9 note=37 velocity=0 time=0@note_on channel=0 note=67 velocity=91 time=0.0010416666666666667@note_on channel=1 note=67 velocity=91 time=0@note_on channel=3 note=67 velocity=101 time=0@note_on channel=9 note=36 velocity=112 time=0@note_on channel=9 note=37 velocity=112 time=0@note_on channel=9 note=36 velocity=0 time=0.24895833333333334@note_on channel=9 note=42 velocity=112 time=0.0010416666666666667@note_on channel=3 note=67 velocity=0 time=0.10520833333333333@note_on channel=0 note=67 velocity=0 time=0.01875@note_on channel=1 note=67 velocity=0 time=0@note_on channel=9 note=42 velocity=0 time=0@note_on channel=9 note=37 velocity=0 time=0@note_on channel=0 note=69 velocity=96 time=0.0010416666666666667@note_on channel=1 note=69 velocity=96 time=0@note_on channel=3 note=69 velocity=104 time=0@note_on channel=9 note=41 velocity=112 time=0@note_on channel=9 note=37 velocity=112 time=0@note_on channel=3 note=69 velocity=0 time=0.23645833333333333@note_on channel=0 note=69 velocity=0 time=0.0125@note_on channel=1 note=69 velocity=0 time=0@note_on channel=9 note=41 velocity=0 time=0@note_on channel=9 note=37 velocity=0 time=0@note_on channel=0 note=65 velocity=99 time=0.0010416666666666667@note_on channel=1 note=65 velocity=99 time=0@note_on channel=3 note=65 velocity=105 time=0@note_on channel=9 note=42 velocity=112 time=0@note_on channel=9 note=37 velocity=112 time=0@note_on channel=9 note=42 velocity=0 time=0.24895833333333334@note_on channel=9 note=37 velocity=0 time=0@note_on channel=9 note=42 velocity=112 time=0.0010416666666666667@note_on channel=9 note=37 velocity=112 time=0@note_on channel=3 note=65 velocity=0 time=0.22395833333333334@note_on channel=0 note=65 velocity=0 time=0.025@note_on channel=1 note=65 velocity=0 time=0@note_on channel=9 note=42 velocity=0 time=0@note_on channel=9 note=37 velocity=0 time=0@note_on channel=0 note=62 velocity=105 time=0.0010416666666666667@note_on channel=1 note=62 velocity=105 time=0@note_on channel=3 note=62 velocity=108 time=0@note_on channel=9 note=42 velocity=112 time=0@note_on channel=9 note=37 velocity=112 time=0@note_on channel=9 note=37 velocity=0 time=0.24895833333333334@note_on channel=9 note=37 velocity=112 time=0.0010416666666666667@note_on channel=3 note=34 velocity=0 time=0.14895833333333333@note_on channel=3 note=41 velocity=0 time=0@note_on channel=3 note=46 velocity=0 time=0@note_on channel=3 note=62 velocity=0 time=0.075@note_on channel=0 note=62 velocity=0 time=0.025@note_on channel=1 note=62 velocity=0 time=0@note_on channel=2 note=34 velocity=0 time=0@note_on channel=2 note=41 velocity=0 time=0@note_on channel=2 note=46 velocity=0 time=0@note_on channel=9 note=42 velocity=0 time=0@note_on channel=9 note=37 velocity=0 time=0@note_on channel=0 note=73 velocity=112 time=0.0010416666666666667@note_on channel=1 note=73 velocity=112 time=0@note_on channel=2 note=38 velocity=112 time=0@note_on channel=2 note=45 velocity=112 time=0@note_on channel=2 note=50 velocity=112 time=0@note_on channel=3 note=73 velocity=112 time=0@note_on channel=3 note=38 velocity=112 time=0@note_on channel=3 note=45 velocity=112 time=0@note_on channel=3 note=50 velocity=112 time=0@note_on channel=9 note=41 velocity=112 time=0@note_on channel=9 note=37 velocity=112 time=0@note_on channel=9 note=41 velocity=0 time=0.12395833333333334@note_on channel=9 note=42 velocity=112 time=0.0010416666666666667@note_on channel=9 note=42 velocity=0 time=0.24895833333333334@note_on channel=9 note=37 velocity=0 time=0@note_on channel=9 note=36 velocity=112 time=0.0010416666666666667@note_on channel=9 note=37 velocity=112 time=0@note_on channel=9 note=36 velocity=0 time=0.24895833333333334@note_on channel=9 note=42 velocity=112 time=0.0010416666666666667@note_on channel=9 note=42 velocity=0 time=0.12395833333333334@note_on channel=9 note=37 velocity=0 time=0@note_on channel=9 note=41 velocity=112 time=0.0010416666666666667@note_on channel=9 note=37 velocity=112 time=0@note_on channel=3 note=73 velocity=0 time=0.19895833333333332@note_on channel=0 note=73 velocity=0 time=0.05@note_on channel=1 note=73 velocity=0 time=0@note_on channel=9 note=41 velocity=0 time=0@note_on channel=9 note=37 velocity=0 time=0@note_on channel=0 note=62 velocity=126 time=0.0010416666666666667@note_on channel=0 note=74 velocity=126 time=0@note_on channel=1 note=62 velocity=126 time=0@note_on channel=1 note=74 velocity=126 time=0@note_on channel=3 note=62 velocity=126 time=0@note_on channel=3 note=74 velocity=126 time=0@note_on channel=9 note=42 velocity=112 time=0@note_on channel=9 note=37 velocity=112 time=0@note_on channel=9 note=42 velocity=0 time=0.24895833333333334@note_on channel=9 note=37 velocity=0 time=0@note_on channel=9 note=43 velocity=112 time=0.0010416666666666667@note_on channel=9 note=37 velocity=112 time=0@note_on channel=3 note=38 velocity=0 time=0.17395833333333333@note_on channel=3 note=45 velocity=0 time=0@note_on channel=3 note=50 velocity=0 time=0@note_on channel=3 note=62 velocity=0 time=0.05@note_on channel=3 note=74 velocity=0 time=0@note_on channel=0 note=62 velocity=0 time=0.025@note_on channel=0 note=74 velocity=0 time=0@note_on channel=1 note=62 velocity=0 time=0@note_on channel=1 note=74 velocity=0 time=0@note_on channel=2 note=38 velocity=0 time=0@note_on channel=2 note=45 velocity=0 time=0@note_on channel=2 note=50 velocity=0 time=0@note_on channel=9 note=43 velocity=0 time=0@note_on channel=9 note=37 velocity=0 time=0@note_on channel=0 note=69 velocity=126 time=0.0010416666666666667@note_on channel=1 note=69 velocity=126 time=0@note_on channel=2 note=45 velocity=112 time=0@note_on channel=2 note=57 velocity=112 time=0@note_on channel=3 note=69 velocity=126 time=0@note_on channel=3 note=45 velocity=126 time=0@note_on channel=3 note=57 velocity=126 time=0@note_on channel=9 note=57 velocity=112 time=0@note_on channel=9 note=37 velocity=112 time=0@note_on channel=3 note=69 velocity=0 time=0.11770833333333333@note_on channel=3 note=45 velocity=0 time=0@note_on channel=3 note=57 velocity=0 time=0@note_on channel=0 note=69 velocity=0 time=0.00625@note_on channel=1 note=69 velocity=0 time=0@note_on channel=2 note=45 velocity=0 time=0@note_on channel=2 note=57 velocity=0 time=0@note_on channel=0 note=67 velocity=112 time=0.0010416666666666667@note_on channel=1 note=67 velocity=112 time=0@note_on channel=2 note=43 velocity=112 time=0@note_on channel=2 note=55 velocity=112 time=0@note_on channel=3 note=67 velocity=112 time=0@note_on channel=3 note=43 velocity=112 time=0@note_on channel=3 note=55 velocity=112 time=0@note_on channel=3 note=67 velocity=0 time=0.11770833333333333@note_on channel=3 note=43 velocity=0 time=0@note_on channel=3 note=55 velocity=0 time=0@note_on channel=0 note=67 velocity=0 time=0.00625@note_on channel=1 note=67 velocity=0 time=0@note_on channel=2 note=43 velocity=0 time=0@note_on channel=2 note=55 velocity=0 time=0@note_on channel=9 note=37 velocity=0 time=0@note_on channel=0 note=65 velocity=112 time=0.0010416666666666667@note_on channel=1 note=65 velocity=112 time=0@note_on channel=2 note=41 velocity=112 time=0@note_on channel=2 note=53 velocity=112 time=0@note_on channel=3 note=65 velocity=112 time=0@note_on channel=3 note=41 velocity=112 time=0@note_on channel=3 note=53 velocity=112 time=0@note_on channel=9 note=37 velocity=112 time=0@note_on channel=3 note=65 velocity=0 time=0.11770833333333333@note_on channel=3 note=41 velocity=0 time=0@note_on channel=3 note=53 velocity=0 time=0@note_on channel=0 note=65 velocity=0 time=0.00625@note_on channel=1 note=65 velocity=0 time=0@note_on channel=2 note=41 velocity=0 time=0@note_on channel=2 note=53 velocity=0 time=0@note_on channel=0 note=64 velocity=112 time=0.0010416666666666667@note_on channel=1 note=64 velocity=112 time=0@note_on channel=2 note=40 velocity=112 time=0@note_on channel=2 note=52 velocity=112 time=0@note_on channel=3 note=64 velocity=112 time=0@note_on channel=3 note=40 velocity=112 time=0@note_on channel=3 note=52 velocity=112 time=0@note_on channel=3 note=64 velocity=0 time=0.11770833333333333@note_on channel=3 note=40 velocity=0 time=0@note_on channel=3 note=52 velocity=0 time=0@note_on channel=0 note=64 velocity=0 time=0.00625@note_on channel=1 note=64 velocity=0 time=0@note_on channel=2 note=40 velocity=0 time=0@note_on channel=2 note=52 velocity=0 time=0@note_on channel=9 note=57 velocity=0 time=0@note_on channel=9 note=37 velocity=0 time=0@note_on channel=0 note=62 velocity=112 time=0.0010416666666666667@note_on channel=1 note=62 velocity=112 time=0@note_on channel=2 note=38 velocity=112 time=0@note_on channel=2 note=45 velocity=112 time=0@note_on channel=2 note=50 velocity=112 time=0@note_on channel=3 note=62 velocity=112 time=0@note_on channel=3 note=38 velocity=112 time=0@note_on channel=3 note=45 velocity=112 time=0@note_on channel=3 note=50 velocity=112 time=0@note_on channel=4 note=62 velocity=112 time=0@note_on channel=9 note=41 velocity=112 time=0@note_on channel=9 note=37 velocity=112 time=0@note_on channel=9 note=41 velocity=0 time=0.12395833333333334@note_on channel=9 note=42 velocity=112 time=0.0010416666666666667@note_on channel=3 note=62 velocity=0 time=0.23020833333333332@note_on channel=0 note=62 velocity=0 time=0.01875@note_on channel=1 note=62 velocity=0 time=0@note_on channel=4 note=62 velocity=0 time=0@note_on channel=9 note=42 velocity=0 time=0@note_on channel=9 note=37 velocity=0 time=0@note_on channel=0 note=64 velocity=112 time=0.0010416666666666667@note_on channel=1 note=64 velocity=112 time=0@note_on channel=3 note=64 velocity=112 time=0@note_on channel=4 note=64 velocity=112 time=0@note_on channel=9 note=36 velocity=112 time=0@note_on channel=9 note=37 velocity=112 time=0@note_on channel=9 note=36 velocity=0 time=0.24895833333333334@note_on channel=9 note=42 velocity=112 time=0.0010416666666666667@note_on channel=3 note=64 velocity=0 time=0.10520833333333333@note_on channel=0 note=64 velocity=0 time=0.01875@note_on channel=1 note=64 velocity=0 time=0@note_on channel=4 note=64 velocity=0 time=0@note_on channel=9 note=42 velocity=0 time=0@note_on channel=9 note=37 velocity=0 time=0@note_on channel=0 note=65 velocity=112 time=0.0010416666666666667@note_on channel=1 note=65 velocity=112 time=0@note_on channel=3 note=65 velocity=112 time=0@note_on channel=4 note=65 velocity=112 time=0@note_on channel=9 note=41 velocity=112 time=0@note_on channel=9 note=37 velocity=112 time=0@note_on channel=3 note=65 velocity=0 time=0.23645833333333333@note_on channel=0 note=65 velocity=0 time=0.0125@note_on channel=1 note=65 velocity=0 time=0@note_on channel=4 note=65 velocity=0 time=0@note_on channel=9 note=41 velocity=0 time=0@note_on channel=9 note=37 velocity=0 time=0@note_on channel=0 note=67 velocity=112 time=0.0010416666666666667@note_on channel=1 note=67 velocity=112 time=0@note_on channel=3 note=67 velocity=112 time=0@note_on channel=4 note=67 velocity=112 time=0@note_on channel=9 note=42 velocity=112 time=0@note_on channel=9 note=37 velocity=112 time=0@note_on channel=9 note=42 velocity=0 time=0.24895833333333334@note_on channel=9 note=37 velocity=0 time=0@note_on channel=9 note=42 velocity=112 time=0.0010416666666666667@note_on channel=9 note=37 velocity=112 time=0@note_on channel=3 note=67 velocity=0 time=0.22395833333333334@note_on channel=0 note=67 velocity=0 time=0.025@note_on channel=1 note=67 velocity=0 time=0@note_on channel=4 note=67 velocity=0 time=0@note_on channel=9 note=42 velocity=0 time=0@note_on channel=9 note=37 velocity=0 time=0@note_on channel=0 note=69 velocity=112 time=0.0010416666666666667@note_on channel=1 note=69 velocity=112 time=0@note_on channel=3 note=69 velocity=112 time=0@note_on channel=4 note=69 velocity=112 time=0@note_on channel=9 note=42 velocity=112 time=0@note_on channel=9 note=37 velocity=112 time=0@note_on channel=9 note=37 velocity=0 time=0.24895833333333334@note_on channel=9 note=37 velocity=112 time=0.0010416666666666667@note_on channel=3 note=38 velocity=0 time=0.14895833333333333@note_on channel=3 note=45 velocity=0 time=0@note_on channel=3 note=50 velocity=0 time=0@note_on channel=3 note=69 velocity=0 time=0.075@note_on channel=0 note=69 velocity=0 time=0.025@note_on channel=1 note=69 velocity=0 time=0@note_on channel=2 note=38 velocity=0 time=0@note_on channel=2 note=45 velocity=0 time=0@note_on channel=2 note=50 velocity=0 time=0@note_on channel=4 note=69 velocity=0 time=0@note_on channel=9 note=42 velocity=0 time=0@note_on channel=9 note=37 velocity=0 time=0@note_on channel=0 note=72 velocity=112 time=0.0010416666666666667@note_on channel=1 note=72 velocity=112 time=0@note_on channel=2 note=36 velocity=112 time=0@note_on channel=2 note=43 velocity=112 time=0@note_on channel=2 note=48 velocity=112 time=0@note_on channel=3 note=72 velocity=112 time=0@note_on channel=3 note=36 velocity=112 time=0@note_on channel=3 note=43 velocity=112 time=0@note_on channel=3 note=48 velocity=112 time=0@note_on channel=4 note=72 velocity=112 time=0@note_on channel=9 note=41 velocity=112 time=0@note_on channel=9 note=37 velocity=112 time=0@note_on channel=9 note=41 velocity=0 time=0.12395833333333334@note_on channel=9 note=42 velocity=112 time=0.0010416666666666667@note_on channel=3 note=72 velocity=0 time=0.23020833333333332@note_on channel=0 note=72 velocity=0 time=0.01875@note_on channel=1 note=72 velocity=0 time=0@note_on channel=4 note=72 velocity=0 time=0@note_on channel=9 note=42 velocity=0 time=0@note_on channel=9 note=37 velocity=0 time=0@note_on channel=0 note=70 velocity=112 time=0.0010416666666666667@note_on channel=1 note=70 velocity=112 time=0@note_on channel=3 note=70 velocity=112 time=0@note_on channel=4 note=70 velocity=112 time=0@note_on channel=9 note=36 velocity=112 time=0@note_on channel=9 note=37 velocity=112 time=0@note_on channel=9 note=36 velocity=0 time=0.24895833333333334@note_on channel=9 note=42 velocity=112 time=0.0010416666666666667@note_on channel=3 note=70 velocity=0 time=0.10520833333333333@note_on channel=0 note=70 velocity=0 time=0.01875@note_on channel=1 note=70 velocity=0 time=0@note_on channel=4 note=70 velocity=0 time=0@note_on channel=9 note=42 velocity=0 time=0@note_on channel=9 note=37 velocity=0 time=0@note_on channel=0 note=69 velocity=112 time=0.0010416666666666667@note_on channel=1 note=69 velocity=112 time=0@note_on channel=3 note=69 velocity=112 time=0@note_on channel=4 note=69 velocity=112 time=0@note_on channel=9 note=41 velocity=112 time=0@note_on channel=9 note=37 velocity=112 time=0@note_on channel=3 note=69 velocity=0 time=0.23645833333333333@note_on channel=0 note=69 velocity=0 time=0.0125@note_on channel=1 note=69 velocity=0 time=0@note_on channel=4 note=69 velocity=0 time=0@note_on channel=9 note=41 velocity=0 time=0@note_on channel=9 note=37 velocity=0 time=0@note_on channel=0 note=69 velocity=112 time=0.0010416666666666667@note_on channel=1 note=69 velocity=112 time=0@note_on channel=3 note=69 velocity=112 time=0@note_on channel=4 note=69 velocity=112 time=0@note_on channel=9 note=42 velocity=112 time=0@note_on channel=9 note=37 velocity=112 time=0@note_on channel=9 note=42 velocity=0 time=0.24895833333333334@note_on channel=9 note=37 velocity=0 time=0@note_on channel=9 note=43 velocity=112 time=0.0010416666666666667@note_on channel=9 note=37 velocity=112 time=0@note_on channel=3 note=69 velocity=0 time=0.22395833333333334@note_on channel=0 note=69 velocity=0 time=0.025@note_on channel=1 note=69 velocity=0 time=0@note_on channel=4 note=69 velocity=0 time=0@note_on channel=9 note=43 velocity=0 time=0@note_on channel=9 note=37 velocity=0 time=0@note_on channel=0 note=67 velocity=112 time=0.0010416666666666667@note_on channel=1 note=67 velocity=112 time=0@note_on channel=3 note=67 velocity=112 time=0@note_on channel=4 note=67 velocity=112 time=0@note_on channel=9 note=57 velocity=112 time=0@note_on channel=9 note=37 velocity=112 time=0@note_on channel=9 note=37 velocity=0 time=0.24895833333333334@note_on channel=9 note=37 velocity=112 time=0.0010416666666666667@note_on channel=3 note=36 velocity=0 time=0.14895833333333333@note_on channel=3 note=43 velocity=0 time=0@note_on channel=3 note=48 velocity=0 time=0@note_on channel=3 note=67 velocity=0 time=0.075@note_on channel=0 note=67 velocity=0 time=0.025@note_on channel=1 note=67 velocity=0 time=0@note_on channel=2 note=36 velocity=0 time=0@note_on channel=2 note=43 velocity=0 time=0@note_on channel=2 note=48 velocity=0 time=0@note_on channel=4 note=67 velocity=0 time=0@note_on channel=9 note=57 velocity=0 time=0@note_on channel=9 note=37 velocity=0 time=0@note_on channel=0 note=70 velocity=112 time=0.0010416666666666667@note_on channel=1 note=70 velocity=112 time=0@note_on channel=2 note=34 velocity=112 time=0@note_on channel=2 note=41 velocity=112 time=0@note_on channel=2 note=46 velocity=112 time=0@note_on channel=3 note=70 velocity=112 time=0@note_on channel=3 note=34 velocity=112 time=0@note_on channel=3 note=41 velocity=112 time=0@note_on channel=3 note=46 velocity=112 time=0@note_on channel=4 note=70 velocity=112 time=0@note_on channel=9 note=41 velocity=112 time=0@note_on channel=9 note=37 velocity=112 time=0@note_on channel=9 note=41 velocity=0 time=0.12395833333333334@note_on channel=9 note=42 velocity=112 time=0.0010416666666666667@note_on channel=3 note=70 velocity=0 time=0.23020833333333332@note_on channel=0 note=70 velocity=0 time=0.01875@note_on channel=1 note=70 velocity=0 time=0@note_on channel=4 note=70 velocity=0 time=0@note_on channel=9 note=42 velocity=0 time=0@note_on channel=9 note=37 velocity=0 time=0@note_on channel=0 note=69 velocity=112 time=0.0010416666666666667@note_on channel=1 note=69 velocity=112 time=0@note_on channel=3 note=69 velocity=112 time=0@note_on channel=4 note=69 velocity=112 time=0@note_on channel=9 note=36 velocity=112 time=0@note_on channel=9 note=37 velocity=112 time=0@note_on channel=9 note=36 velocity=0 time=0.24895833333333334@note_on channel=9 note=42 velocity=112 time=0.0010416666666666667@note_on channel=3 note=69 velocity=0 time=0.10520833333333333@note_on channel=0 note=69 velocity=0 time=0.01875@note_on channel=1 note=69 velocity=0 time=0@note_on channel=4 note=69 velocity=0 time=0@note_on channel=9 note=42 velocity=0 time=0@note_on channel=9 note=37 velocity=0 time=0@note_on channel=0 note=67 velocity=112 time=0.0010416666666666667@note_on channel=1 note=67 velocity=112 time=0@note_on channel=3 note=67 velocity=112 time=0@note_on channel=4 note=67 velocity=112 time=0@note_on channel=9 note=41 velocity=112 time=0@note_on channel=9 note=37 velocity=112 time=0@note_on channel=3 note=67 velocity=0 time=0.23645833333333333@note_on channel=0 note=67 velocity=0 time=0.0125@note_on channel=1 note=67 velocity=0 time=0@note_on channel=4 note=67 velocity=0 time=0@note_on channel=9 note=41 velocity=0 time=0@note_on channel=9 note=37 velocity=0 time=0@note_on channel=0 note=65 velocity=112 time=0.0010416666666666667@note_on channel=1 note=65 velocity=112 time=0@note_on channel=3 note=65 velocity=112 time=0@note_on channel=4 note=65 velocity=112 time=0@note_on channel=9 note=42 velocity=112 time=0@note_on channel=9 note=37 velocity=112 time=0@note_on channel=9 note=42 velocity=0 time=0.24895833333333334@note_on channel=9 note=37 velocity=0 time=0@note_on channel=9 note=42 velocity=112 time=0.0010416666666666667@note_on channel=9 note=37 velocity=112 time=0@note_on channel=3 note=65 velocity=0 time=0.22395833333333334@note_on channel=0 note=65 velocity=0 time=0.025@note_on channel=1 note=65 velocity=0 time=0@note_on channel=4 note=65 velocity=0 time=0@note_on channel=9 note=42 velocity=0 time=0@note_on channel=9 note=37 velocity=0 time=0@note_on channel=0 note=62 velocity=112 time=0.0010416666666666667@note_on channel=1 note=62 velocity=112 time=0@note_on channel=3 note=62 velocity=112 time=0@note_on channel=4 note=62 velocity=112 time=0@note_on channel=9 note=42 velocity=112 time=0@note_on channel=9 note=37 velocity=112 time=0@note_on channel=9 note=37 velocity=0 time=0.24895833333333334@note_on channel=9 note=37 velocity=112 time=0.0010416666666666667@note_on channel=3 note=34 velocity=0 time=0.14895833333333333@note_on channel=3 note=41 velocity=0 time=0@note_on channel=3 note=46 velocity=0 time=0@note_on channel=3 note=62 velocity=0 time=0.075@note_on channel=0 note=62 velocity=0 time=0.025@note_on channel=1 note=62 velocity=0 time=0@note_on channel=2 note=34 velocity=0 time=0@note_on channel=2 note=41 velocity=0 time=0@note_on channel=2 note=46 velocity=0 time=0@note_on channel=4 note=62 velocity=0 time=0@note_on channel=9 note=42 velocity=0 time=0@note_on channel=9 note=37 velocity=0 time=0@note_on channel=0 note=67 velocity=112 time=0.0010416666666666667@note_on channel=1 note=67 velocity=112 time=0@note_on channel=2 note=33 velocity=112 time=0@note_on channel=2 note=40 velocity=112 time=0@note_on channel=2 note=45 velocity=112 time=0@note_on channel=3 note=67 velocity=112 time=0@note_on channel=3 note=33 velocity=112 time=0@note_on channel=3 note=40 velocity=112 time=0@note_on channel=3 note=45 velocity=112 time=0@note_on channel=4 note=67 velocity=112 time=0@note_on channel=9 note=41 velocity=112 time=0@note_on channel=9 note=37 velocity=112 time=0@note_on channel=9 note=41 velocity=0 time=0.12395833333333334@note_on channel=9 note=42 velocity=112 time=0.0010416666666666667@note_on channel=3 note=67 velocity=0 time=0.23020833333333332@note_on channel=0 note=67 velocity=0 time=0.01875@note_on channel=1 note=67 velocity=0 time=0@note_on channel=4 note=67 velocity=0 time=0@note_on channel=9 note=42 velocity=0 time=0@note_on channel=9 note=37 velocity=0 time=0@note_on channel=0 note=67 velocity=112 time=0.0010416666666666667@note_on channel=1 note=67 velocity=112 time=0@note_on channel=3 note=67 velocity=112 time=0@note_on channel=4 note=67 velocity=112 time=0@note_on channel=9 note=36 velocity=112 time=0@note_on channel=9 note=37 velocity=112 time=0@note_on channel=9 note=36 velocity=0 time=0.24895833333333334@note_on channel=9 note=42 velocity=112 time=0.0010416666666666667@note_on channel=3 note=67 velocity=0 time=0.10520833333333333@note_on channel=0 note=67 velocity=0 time=0.01875@note_on channel=1 note=67 velocity=0 time=0@note_on channel=4 note=67 velocity=0 time=0@note_on channel=9 note=42 velocity=0 time=0@note_on channel=9 note=37 velocity=0 time=0@note_on channel=0 note=69 velocity=112 time=0.0010416666666666667@note_on channel=1 note=69 velocity=112 time=0@note_on channel=3 note=69 velocity=112 time=0@note_on channel=4 note=69 velocity=112 time=0@note_on channel=9 note=41 velocity=112 time=0@note_on channel=9 note=37 velocity=112 time=0@note_on channel=3 note=69 velocity=0 time=0.23645833333333333@note_on channel=0 note=69 velocity=0 time=0.0125@note_on channel=1 note=69 velocity=0 time=0@note_on channel=4 note=69 velocity=0 time=0@note_on channel=9 note=41 velocity=0 time=0@note_on channel=9 note=37 velocity=0 time=0@note_on channel=0 note=70 velocity=112 time=0.0010416666666666667@note_on channel=1 note=70 velocity=112 time=0@note_on channel=3 note=70 velocity=112 time=0@note_on channel=4 note=70 velocity=112 time=0@note_on channel=9 note=42 velocity=112 time=0@note_on channel=9 note=37 velocity=112 time=0@note_on channel=9 note=42 velocity=0 time=0.24895833333333334@note_on channel=9 note=37 velocity=0 time=0@note_on channel=9 note=43 velocity=112 time=0.0010416666666666667@note_on channel=9 note=37 velocity=112 time=0@note_on channel=3 note=70 velocity=0 time=0.22395833333333334@note_on channel=0 note=70 velocity=0 time=0.025@note_on channel=1 note=70 velocity=0 time=0@note_on channel=4 note=70 velocity=0 time=0@note_on channel=9 note=43 velocity=0 time=0@note_on channel=9 note=37 velocity=0 time=0@note_on channel=0 note=69 velocity=112 time=0.0010416666666666667@note_on channel=1 note=69 velocity=112 time=0@note_on channel=3 note=69 velocity=112 time=0@note_on channel=4 note=69 velocity=112 time=0@note_on channel=9 note=57 velocity=112 time=0@note_on channel=9 note=37 velocity=112 time=0@note_on channel=9 note=37 velocity=0 time=0.24895833333333334@note_on channel=9 note=37 velocity=112 time=0.0010416666666666667@note_on channel=3 note=33 velocity=0 time=0.14895833333333333@note_on channel=3 note=40 velocity=0 time=0@note_on channel=3 note=45 velocity=0 time=0@note_on channel=3 note=69 velocity=0 time=0.075@note_on channel=0 note=69 velocity=0 time=0.025@note_on channel=1 note=69 velocity=0 time=0@note_on channel=2 note=33 velocity=0 time=0@note_on channel=2 note=40 velocity=0 time=0@note_on channel=2 note=45 velocity=0 time=0@note_on channel=4 note=69 velocity=0 time=0@note_on channel=9 note=57 velocity=0 time=0@note_on channel=9 note=37 velocity=0 time=0@note_on channel=0 note=62 velocity=112 time=0.0010416666666666667@note_on channel=1 note=62 velocity=112 time=0@note_on channel=2 note=38 velocity=112 time=0@note_on channel=2 note=45 velocity=112 time=0@note_on channel=2 note=50 velocity=112 time=0@note_on channel=3 note=62 velocity=112 time=0@note_on channel=3 note=38 velocity=112 time=0@note_on channel=3 note=45 velocity=112 time=0@note_on channel=3 note=50 velocity=112 time=0@note_on channel=4 note=62 velocity=126 time=0@note_on channel=4 note=38 velocity=126 time=0@note_on channel=4 note=45 velocity=126 time=0@note_on channel=4 note=50 velocity=126 time=0@note_on channel=9 note=41 velocity=112 time=0@note_on channel=9 note=37 velocity=112 time=0@note_on channel=9 note=37 velocity=0 time=0.12395833333333334@note_on channel=9 note=37 velocity=112 time=0.0010416666666666667@note_on channel=9 note=41 velocity=0 time=0.12395833333333334@note_on channel=9 note=37 velocity=0 time=0@note_on channel=9 note=42 velocity=112 time=0.0010416666666666667@note_on channel=9 note=37 velocity=112 time=0@note_on channel=3 note=62 velocity=0 time=0.10520833333333333@note_on channel=0 note=62 velocity=0 time=0.01875@note_on channel=1 note=62 velocity=0 time=0@note_on channel=4 note=62 velocity=0 time=0@note_on channel=9 note=42 velocity=0 time=0@note_on channel=0 note=64 velocity=112 time=0.0010416666666666667@note_on channel=1 note=64 velocity=112 time=0@note_on channel=3 note=64 velocity=114 time=0@note_on channel=4 note=64 velocity=126 time=0@note_on channel=9 note=41 velocity=112 time=0@note_on channel=4 note=38 velocity=0 time=0.12395833333333334@note_on channel=4 note=45 velocity=0 time=0@note_on channel=4 note=50 velocity=0 time=0@note_on channel=9 note=41 velocity=0 time=0@note_on channel=9 note=37 velocity=0 time=0@note_on channel=4 note=38 velocity=126 time=0.0010416666666666667@note_on channel=4 note=45 velocity=126 time=0@note_on channel=4 note=50 velocity=126 time=0@note_on channel=9 note=42 velocity=112 time=0@note_on channel=9 note=37 velocity=112 time=0@note_on channel=9 note=42 velocity=0 time=0.12395833333333334@note_on channel=9 note=37 velocity=0 time=0@note_on channel=9 note=42 velocity=112 time=0.0010416666666666667@note_on channel=9 note=37 velocity=112 time=0@note_on channel=3 note=64 velocity=0 time=0.10520833333333333@note_on channel=0 note=64 velocity=0 time=0.01875@note_on channel=1 note=64 velocity=0 time=0@note_on channel=4 note=64 velocity=0 time=0@note_on channel=9 note=42 velocity=0 time=0@note_on channel=0 note=65 velocity=112 time=0.0010416666666666667@note_on channel=1 note=65 velocity=112 time=0@note_on channel=3 note=65 velocity=117 time=0@note_on channel=4 note=65 velocity=126 time=0@note_on channel=9 note=36 velocity=112 time=0@note_on channel=9 note=37 velocity=0 time=0.12395833333333334@note_on channel=9 note=37 velocity=112 time=0.0010416666666666667@note_on channel=3 note=65 velocity=0 time=0.11145833333333333@note_on channel=0 note=65 velocity=0 time=0.0125@note_on channel=1 note=65 velocity=0 time=0@note_on channel=4 note=65 velocity=0 time=0@note_on channel=4 note=38 velocity=0 time=0@note_on channel=4 note=45 velocity=0 time=0@note_on channel=4 note=50 velocity=0 time=0@note_on channel=9 note=36 velocity=0 time=0@note_on channel=9 note=37 velocity=0 time=0@note_on channel=0 note=69 velocity=112 time=0.0010416666666666667@note_on channel=1 note=69 velocity=112 time=0@note_on channel=3 note=69 velocity=119 time=0@note_on channel=4 note=69 velocity=126 time=0@note_on channel=4 note=38 velocity=126 time=0@note_on channel=4 note=45 velocity=126 time=0@note_on channel=4 note=50 velocity=126 time=0@note_on channel=9 note=36 velocity=112 time=0@note_on channel=9 note=37 velocity=112 time=0@note_on channel=9 note=37 velocity=0 time=0.12395833333333334@note_on channel=9 note=37 velocity=112 time=0.0010416666666666667@note_on channel=9 note=36 velocity=0 time=0.12395833333333334@note_on channel=9 note=37 velocity=0 time=0@note_on channel=9 note=36 velocity=112 time=0.0010416666666666667@note_on channel=9 note=37 velocity=112 time=0@note_on channel=9 note=37 velocity=0 time=0.12395833333333334@note_on channel=9 note=37 velocity=112 time=0.0010416666666666667@note_on channel=3 note=69 velocity=0 time=0.09895833333333333@note_on channel=0 note=69 velocity=0 time=0.025@note_on channel=1 note=69 velocity=0 time=0@note_on channel=4 note=69 velocity=0 time=0@note_on channel=4 note=38 velocity=0 time=0@note_on channel=4 note=45 velocity=0 time=0@note_on channel=4 note=50 velocity=0 time=0@note_on channel=9 note=36 velocity=0 time=0@note_on channel=0 note=65 velocity=112 time=0.0010416666666666667@note_on channel=1 note=65 velocity=112 time=0@note_on channel=3 note=65 velocity=122 time=0@note_on channel=4 note=65 velocity=126 time=0@note_on channel=4 note=38 velocity=126 time=0@note_on channel=4 note=45 velocity=126 time=0@note_on channel=4 note=50 velocity=126 time=0@note_on channel=9 note=42 velocity=112 time=0@note_on channel=9 note=37 velocity=0 time=0.12395833333333334@note_on channel=9 note=37 velocity=112 time=0.0010416666666666667@note_on channel=9 note=42 velocity=0 time=0.12395833333333334@note_on channel=9 note=42 velocity=112 time=0.0010416666666666667@note_on channel=9 note=37 velocity=0 time=0.12395833333333334@note_on channel=9 note=37 velocity=112 time=0.0010416666666666667@note_on channel=3 note=38 velocity=0 time=0.02395833333333333@note_on channel=3 note=45 velocity=0 time=0@note_on channel=3 note=50 velocity=0 time=0@note_on channel=3 note=65 velocity=0 time=0.075@note_on channel=0 note=65 velocity=0 time=0.025@note_on channel=1 note=65 velocity=0 time=0@note_on channel=2 note=38 velocity=0 time=0@note_on channel=2 note=45 velocity=0 time=0@note_on channel=2 note=50 velocity=0 time=0@note_on channel=4 note=65 velocity=0 time=0@note_on channel=4 note=38 velocity=0 time=0@note_on channel=4 note=45 velocity=0 time=0@note_on channel=4 note=50 velocity=0 time=0@note_on channel=9 note=42 velocity=0 time=0@note_on channel=9 note=37 velocity=0 time=0@note_on channel=0 note=67 velocity=112 time=0.0010416666666666667@note_on channel=1 note=67 velocity=112 time=0@note_on channel=2 note=36 velocity=126 time=0@note_on channel=2 note=43 velocity=126 time=0@note_on channel=2 note=48 velocity=126 time=0@note_on channel=3 note=67 velocity=126 time=0@note_on channel=3 note=36 velocity=126 time=0@note_on channel=3 note=43 velocity=126 time=0@note_on channel=3 note=48 velocity=126 time=0@note_on channel=4 note=67 velocity=126 time=0@note_on channel=4 note=36 velocity=126 time=0@note_on channel=4 note=43 velocity=126 time=0@note_on channel=4 note=48 velocity=126 time=0@note_on channel=9 note=41 velocity=112 time=0@note_on channel=9 note=37 velocity=112 time=0@note_on channel=9 note=37 velocity=0 time=0.12395833333333334@note_on channel=9 note=37 velocity=112 time=0.0010416666666666667@note_on channel=2 note=36 velocity=0 time=0.06145833333333333@note_on channel=2 note=43 velocity=0 time=0@note_on channel=2 note=48 velocity=0 time=0@note_on channel=3 note=36 velocity=0 time=0@note_on channel=3 note=43 velocity=0 time=0@note_on channel=3 note=48 velocity=0 time=0@note_on channel=4 note=36 velocity=0 time=0@note_on channel=4 note=43 velocity=0 time=0@note_on channel=4 note=48 velocity=0 time=0@note_on channel=9 note=41 velocity=0 time=0.0625@note_on channel=9 note=37 velocity=0 time=0@note_on channel=9 note=42 velocity=112 time=0.0010416666666666667@note_on channel=9 note=37 velocity=112 time=0@note_on channel=3 note=67 velocity=0 time=0.10520833333333333@note_on channel=0 note=67 velocity=0 time=0.01875@note_on channel=1 note=67 velocity=0 time=0@note_on channel=4 note=67 velocity=0 time=0@note_on channel=9 note=42 velocity=0 time=0@note_on channel=0 note=69 velocity=112 time=0.0010416666666666667@note_on channel=1 note=69 velocity=112 time=0@note_on channel=2 note=36 velocity=126 time=0@note_on channel=2 note=43 velocity=126 time=0@note_on channel=2 note=48 velocity=126 time=0@note_on channel=3 note=69 velocity=126 time=0@note_on channel=3 note=36 velocity=126 time=0@note_on channel=3 note=43 velocity=126 time=0@note_on channel=3 note=48 velocity=126 time=0@note_on channel=4 note=69 velocity=126 time=0@note_on channel=4 note=36 velocity=126 time=0@note_on channel=4 note=43 velocity=126 time=0@note_on channel=4 note=48 velocity=126 time=0@note_on channel=9 note=41 velocity=112 time=0@note_on channel=9 note=41 velocity=0 time=0.12395833333333334@note_on channel=9 note=37 velocity=0 time=0@note_on channel=9 note=42 velocity=112 time=0.0010416666666666667@note_on channel=9 note=37 velocity=112 time=0@note_on channel=2 note=36 velocity=0 time=0.06145833333333333@note_on channel=2 note=43 velocity=0 time=0@note_on channel=2 note=48 velocity=0 time=0@note_on channel=3 note=36 velocity=0 time=0@note_on channel=3 note=43 velocity=0 time=0@note_on channel=3 note=48 velocity=0 time=0@note_on channel=4 note=36 velocity=0 time=0@note_on channel=4 note=43 velocity=0 time=0@note_on channel=4 note=48 velocity=0 time=0@note_on channel=9 note=42 velocity=0 time=0.0625@note_on channel=9 note=37 velocity=0 time=0@note_on channel=9 note=42 velocity=112 time=0.0010416666666666667@note_on channel=9 note=37 velocity=112 time=0@note_on channel=3 note=69 velocity=0 time=0.10520833333333333@note_on channel=0 note=69 velocity=0 time=0.01875@note_on channel=1 note=69 velocity=0 time=0@note_on channel=4 note=69 velocity=0 time=0@note_on channel=9 note=42 velocity=0 time=0@note_on channel=0 note=70 velocity=112 time=0.0010416666666666667@note_on channel=1 note=70 velocity=112 time=0@note_on channel=2 note=36 velocity=126 time=0@note_on channel=2 note=43 velocity=126 time=0@note_on channel=2 note=48 velocity=126 time=0@note_on channel=3 note=70 velocity=126 time=0@note_on channel=3 note=36 velocity=126 time=0@note_on channel=3 note=43 velocity=126 time=0@note_on channel=3 note=48 velocity=126 time=0@note_on channel=4 note=70 velocity=126 time=0@note_on channel=4 note=36 velocity=126 time=0@note_on channel=4 note=43 velocity=126 time=0@note_on channel=4 note=48 velocity=126 time=0@note_on channel=9 note=36 velocity=112 time=0@note_on channel=2 note=36 velocity=0 time=0.12395833333333334@note_on channel=2 note=43 velocity=0 time=0@note_on channel=2 note=48 velocity=0 time=0@note_on channel=3 note=36 velocity=0 time=0@note_on channel=3 note=43 velocity=0 time=0@note_on channel=3 note=48 velocity=0 time=0@note_on channel=4 note=36 velocity=0 time=0@note_on channel=4 note=43 velocity=0 time=0@note_on channel=4 note=48 velocity=0 time=0@note_on channel=9 note=37 velocity=0 time=0@note_on channel=9 note=37 velocity=112 time=0.0010416666666666667@note_on channel=3 note=70 velocity=0 time=0.11145833333333333@note_on channel=0 note=70 velocity=0 time=0.0125@note_on channel=1 note=70 velocity=0 time=0@note_on channel=4 note=70 velocity=0 time=0@note_on channel=9 note=36 velocity=0 time=0@note_on channel=9 note=37 velocity=0 time=0@note_on channel=0 note=69 velocity=112 time=0.0010416666666666667@note_on channel=1 note=69 velocity=112 time=0@note_on channel=2 note=36 velocity=126 time=0@note_on channel=2 note=43 velocity=126 time=0@note_on channel=2 note=48 velocity=126 time=0@note_on channel=3 note=69 velocity=126 time=0@note_on channel=3 note=36 velocity=126 time=0@note_on channel=3 note=43 velocity=126 time=0@note_on channel=3 note=48 velocity=126 time=0@note_on channel=4 note=69 velocity=126 time=0@note_on channel=4 note=36 velocity=126 time=0@note_on channel=4 note=43 velocity=126 time=0@note_on channel=4 note=48 velocity=126 time=0@note_on channel=9 note=36 velocity=112 time=0@note_on channel=9 note=37 velocity=112 time=0@note_on channel=9 note=37 velocity=0 time=0.12395833333333334@note_on channel=9 note=37 velocity=112 time=0.0010416666666666667@note_on channel=9 note=36 velocity=0 time=0.12395833333333334@note_on channel=9 note=42 velocity=112 time=0.0010416666666666667@note_on channel=9 note=37 velocity=0 time=0.12395833333333334@note_on channel=9 note=37 velocity=112 time=0.0010416666666666667@note_on channel=3 note=69 velocity=0 time=0.09895833333333333@note_on channel=3 note=36 velocity=0 time=0@note_on channel=3 note=43 velocity=0 time=0@note_on channel=3 note=48 velocity=0 time=0@note_on channel=0 note=69 velocity=0 time=0.025@note_on channel=1 note=69 velocity=0 time=0@note_on channel=2 note=36 velocity=0 time=0@note_on channel=2 note=43 velocity=0 time=0@note_on channel=2 note=48 velocity=0 time=0@note_on channel=4 note=69 velocity=0 time=0@note_on channel=4 note=36 velocity=0 time=0@note_on channel=4 note=43 velocity=0 time=0@note_on channel=4 note=48 velocity=0 time=0@note_on channel=9 note=42 velocity=0 time=0@note_on channel=0 note=67 velocity=112 time=0.0010416666666666667@note_on channel=1 note=67 velocity=112 time=0@note_on channel=2 note=33 velocity=126 time=0@note_on channel=2 note=40 velocity=126 time=0@note_on channel=2 note=45 velocity=126 time=0@note_on channel=3 note=67 velocity=126 time=0@note_on channel=3 note=33 velocity=126 time=0@note_on channel=3 note=40 velocity=126 time=0@note_on channel=3 note=45 velocity=126 time=0@note_on channel=4 note=67 velocity=126 time=0@note_on channel=4 note=33 velocity=126 time=0@note_on channel=4 note=40 velocity=126 time=0@note_on channel=4 note=45 velocity=126 time=0@note_on channel=9 note=43 velocity=112 time=0@note_on channel=9 note=43 velocity=0 time=0.24895833333333334@note_on channel=9 note=37 velocity=0 time=0@note_on channel=9 note=57 velocity=112 time=0.0010416666666666667@note_on channel=9 note=37 velocity=112 time=0@note_on channel=9 note=37 velocity=0 time=0.12395833333333334@note_on channel=9 note=37 velocity=112 time=0.0010416666666666667@note_on channel=3 note=67 velocity=0 time=0.09895833333333333@note_on channel=3 note=33 velocity=0 time=0@note_on channel=3 note=40 velocity=0 time=0@note_on channel=3 note=45 velocity=0 time=0@note_on channel=0 note=67 velocity=0 time=0.025@note_on channel=1 note=67 velocity=0 time=0@note_on channel=2 note=33 velocity=0 time=0@note_on channel=2 note=40 velocity=0 time=0@note_on channel=2 note=45 velocity=0 time=0@note_on channel=4 note=67 velocity=0 time=0@note_on channel=4 note=33 velocity=0 time=0@note_on channel=4 note=40 velocity=0 time=0@note_on channel=4 note=45 velocity=0 time=0@note_on channel=9 note=57 velocity=0 time=0@note_on channel=9 note=37 velocity=0 time=0@note_on channel=0 note=65 velocity=112 time=0.0010416666666666667@note_on channel=1 note=65 velocity=112 time=0@note_on channel=2 note=34 velocity=126 time=0@note_on channel=2 note=41 velocity=126 time=0@note_on channel=2 note=46 velocity=126 time=0@note_on channel=3 note=65 velocity=126 time=0@note_on channel=3 note=34 velocity=126 time=0@note_on channel=3 note=41 velocity=126 time=0@note_on channel=3 note=46 velocity=126 time=0@note_on channel=4 note=65 velocity=126 time=0@note_on channel=4 note=34 velocity=126 time=0@note_on channel=4 note=41 velocity=126 time=0@note_on channel=4 note=46 velocity=126 time=0@note_on channel=9 note=41 velocity=112 time=0@note_on channel=9 note=37 velocity=112 time=0@note_on channel=9 note=37 velocity=0 time=0.12395833333333334@note_on channel=9 note=37 velocity=112 time=0.0010416666666666667@note_on channel=9 note=41 velocity=0 time=0.12395833333333334@note_on channel=9 note=37 velocity=0 time=0@note_on channel=9 note=42 velocity=112 time=0.0010416666666666667@note_on channel=9 note=37 velocity=112 time=0@note_on channel=3 note=65 velocity=0 time=0.10520833333333333@note_on channel=0 note=65 velocity=0 time=0.01875@note_on channel=1 note=65 velocity=0 time=0@note_on channel=4 note=65 velocity=0 time=0@note_on channel=9 note=42 velocity=0 time=0@note_on channel=0 note=67 velocity=112 time=0.0010416666666666667@note_on channel=1 note=67 velocity=112 time=0@note_on channel=3 note=67 velocity=126 time=0@note_on channel=4 note=67 velocity=126 time=0@note_on channel=9 note=41 velocity=112 time=0@note_on channel=4 note=34 velocity=0 time=0.12395833333333334@note_on channel=4 note=41 velocity=0 time=0@note_on channel=4 note=46 velocity=0 time=0@note_on channel=9 note=41 velocity=0 time=0@note_on channel=9 note=37 velocity=0 time=0@note_on channel=4 note=34 velocity=126 time=0.0010416666666666667@note_on channel=4 note=41 velocity=126 time=0@note_on channel=4 note=46 velocity=126 time=0@note_on channel=9 note=42 velocity=112 time=0@note_on channel=9 note=37 velocity=112 time=0@note_on channel=9 note=42 velocity=0 time=0.12395833333333334@note_on channel=9 note=37 velocity=0 time=0@note_on channel=9 note=42 velocity=112 time=0.0010416666666666667@note_on channel=9 note=37 velocity=112 time=0@note_on channel=3 note=67 velocity=0 time=0.10520833333333333@note_on channel=0 note=67 velocity=0 time=0.01875@note_on channel=1 note=67 velocity=0 time=0@note_on channel=4 note=67 velocity=0 time=0@note_on channel=9 note=42 velocity=0 time=0@note_on channel=0 note=69 velocity=112 time=0.0010416666666666667@note_on channel=1 note=69 velocity=112 time=0@note_on channel=3 note=69 velocity=126 time=0@note_on channel=4 note=69 velocity=126 time=0@note_on channel=9 note=36 velocity=112 time=0@note_on channel=9 note=37 velocity=0 time=0.12395833333333334@note_on channel=9 note=37 velocity=112 time=0.0010416666666666667@note_on channel=3 note=69 velocity=0 time=0.11145833333333333@note_on channel=0 note=69 velocity=0 time=0.0125@note_on channel=1 note=69 velocity=0 time=0@note_on channel=4 note=69 velocity=0 time=0@note_on channel=4 note=34 velocity=0 time=0@note_on channel=4 note=41 velocity=0 time=0@note_on channel=4 note=46 velocity=0 time=0@note_on channel=9 note=36 velocity=0 time=0@note_on channel=9 note=37 velocity=0 time=0@note_on channel=0 note=65 velocity=112 time=0.0010416666666666667@note_on channel=1 note=65 velocity=112 time=0@note_on channel=3 note=65 velocity=126 time=0@note_on channel=4 note=65 velocity=126 time=0@note_on channel=4 note=34 velocity=126 time=0@note_on channel=4 note=41 velocity=126 time=0@note_on channel=4 note=46 velocity=126 time=0@note_on channel=9 note=36 velocity=112 time=0@note_on channel=9 note=37 velocity=112 time=0@note_on channel=9 note=37 velocity=0 time=0.12395833333333334@note_on channel=9 note=37 velocity=112 time=0.0010416666666666667@note_on channel=9 note=36 velocity=0 time=0.12395833333333334@note_on channel=9 note=37 velocity=0 time=0@note_on channel=9 note=36 velocity=112 time=0.0010416666666666667@note_on channel=9 note=37 velocity=112 time=0@note_on channel=9 note=37 velocity=0 time=0.12395833333333334@note_on channel=9 note=37 velocity=112 time=0.0010416666666666667@note_on channel=3 note=65 velocity=0 time=0.09895833333333333@note_on channel=0 note=65 velocity=0 time=0.025@note_on channel=1 note=65 velocity=0 time=0@note_on channel=4 note=65 velocity=0 time=0@note_on channel=4 note=34 velocity=0 time=0@note_on channel=4 note=41 velocity=0 time=0@note_on channel=4 note=46 velocity=0 time=0@note_on channel=9 note=36 velocity=0 time=0@note_on channel=0 note=62 velocity=112 time=0.0010416666666666667@note_on channel=1 note=62 velocity=112 time=0@note_on channel=3 note=62 velocity=126 time=0@note_on channel=4 note=62 velocity=126 time=0@note_on channel=4 note=34 velocity=126 time=0@note_on channel=4 note=41 velocity=126 time=0@note_on channel=4 note=46 velocity=126 time=0@note_on channel=9 note=42 velocity=112 time=0@note_on channel=9 note=37 velocity=0 time=0.12395833333333334@note_on channel=9 note=37 velocity=112 time=0.0010416666666666667@note_on channel=9 note=42 velocity=0 time=0.12395833333333334@note_on channel=9 note=42 velocity=112 time=0.0010416666666666667@note_on channel=9 note=37 velocity=0 time=0.12395833333333334@note_on channel=9 note=37 velocity=112 time=0.0010416666666666667@note_on channel=3 note=34 velocity=0 time=0.02395833333333333@note_on channel=3 note=41 velocity=0 time=0@note_on channel=3 note=46 velocity=0 time=0@note_on channel=3 note=62 velocity=0 time=0.075@note_on channel=0 note=62 velocity=0 time=0.025@note_on channel=1 note=62 velocity=0 time=0@note_on channel=2 note=34 velocity=0 time=0@note_on channel=2 note=41 velocity=0 time=0@note_on channel=2 note=46 velocity=0 time=0@note_on channel=4 note=62 velocity=0 time=0@note_on channel=4 note=34 velocity=0 time=0@note_on channel=4 note=41 velocity=0 time=0@note_on channel=4 note=46 velocity=0 time=0@note_on channel=9 note=42 velocity=0 time=0@note_on channel=9 note=37 velocity=0 time=0@note_on channel=0 note=73 velocity=112 time=0.0010416666666666667@note_on channel=1 note=73 velocity=112 time=0@note_on channel=3 note=73 velocity=126 time=0@note_on channel=4 note=73 velocity=126 time=0@note_on channel=3 note=73 velocity=0 time=0.9489583333333333@note_on channel=0 note=73 velocity=0 time=0.05@note_on channel=1 note=73 velocity=0 time=0@note_on channel=4 note=73 velocity=0 time=0@note_on channel=0 note=74 velocity=112 time=0.0010416666666666667@note_on channel=1 note=74 velocity=112 time=0@note_on channel=3 note=74 velocity=126 time=0@note_on channel=3 note=74 velocity=0 time=0.9489583333333333@note_on channel=0 note=74 velocity=0 time=0.05@note_on channel=1 note=74 velocity=0 time=0@<meta message end_of_track time=0.0010416666666666667>@