<meta message time_signature numerator=4 denominator=4 clocks_per_click=24 notated_32nd_notes_per_beat=8 time=0>@<meta message key_signature key='Bb' time=0>@<meta message key_signature key='C' time=0>@<meta message key_signature key='C' time=0>@<meta message set_tempo tempo=500000 time=0>@control_change channel=0 control=121 value=0 time=0@program_change channel=0 program=0 time=0@control_change channel=0 control=7 value=100 time=0@control_change channel=0 control=10 value=64 time=0@control_change channel=0 control=91 value=0 time=0@control_change channel=0 control=93 value=0 time=0@<meta message midi_port port=0 time=0>@note_on channel=0 note=79 velocity=80 time=0@<meta message key_signature key='Bb' time=0>@<meta message key_signature key='C' time=0>@<meta message key_signature key='C' time=0>@<meta message midi_port port=0 time=0>@note_on channel=0 note=43 velocity=80 time=0@note_on channel=0 note=79 velocity=0 time=0.23645833333333333@note_on channel=0 note=50 velocity=80 time=0.013541666666666667@note_on channel=0 note=43 velocity=0 time=0.4614583333333333@note_on channel=0 note=38 velocity=80 time=0.03854166666666667@note_on channel=0 note=50 velocity=0 time=0.21145833333333333@note_on channel=0 note=74 velocity=80 time=0.03854166666666667@note_on channel=0 note=38 velocity=0 time=0.22395833333333334@note_on channel=0 note=74 velocity=0 time=0.0125@note_on channel=0 note=55 velocity=80 time=0.013541666666666667@note_on channel=0 note=41 velocity=80 time=0@note_on channel=0 note=41 velocity=0 time=0.35520833333333335@note_on channel=0 note=42 velocity=80 time=0.019791666666666666@note_on channel=0 note=55 velocity=0 time=0.3364583333333333@note_on channel=0 note=42 velocity=0 time=0.01875@note_on channel=0 note=72 velocity=80 time=0.019791666666666666@note_on channel=0 note=43 velocity=80 time=0@note_on channel=0 note=72 velocity=0 time=0.23645833333333333@note_on channel=0 note=60 velocity=80 time=0.013541666666666667@note_on channel=0 note=43 velocity=0 time=0.4614583333333333@note_on channel=0 note=38 velocity=80 time=0.03854166666666667@note_on channel=0 note=60 velocity=0 time=0.21145833333333333@note_on channel=0 note=70 velocity=80 time=0.03854166666666667@note_on channel=0 note=38 velocity=0 time=0.22395833333333334@note_on channel=0 note=70 velocity=0 time=0.0125@note_on channel=0 note=62 velocity=80 time=0.013541666666666667@note_on channel=0 note=41 velocity=80 time=0@note_on channel=0 note=41 velocity=0 time=0.35520833333333335@note_on channel=0 note=42 velocity=80 time=0.019791666666666666@note_on channel=0 note=62 velocity=0 time=0.3364583333333333@note_on channel=0 note=42 velocity=0 time=0.01875@note_on channel=0 note=67 velocity=80 time=0.019791666666666666@note_on channel=0 note=43 velocity=80 time=0@note_on channel=0 note=67 velocity=0 time=0.23645833333333333@note_on channel=0 note=55 velocity=80 time=0.013541666666666667@note_on channel=0 note=43 velocity=0 time=0.4614583333333333@note_on channel=0 note=38 velocity=80 time=0.03854166666666667@note_on channel=0 note=55 velocity=0 time=0.21145833333333333@note_on channel=0 note=62 velocity=80 time=0.03854166666666667@note_on channel=0 note=38 velocity=0 time=0.22395833333333334@note_on channel=0 note=62 velocity=0 time=0.0125@note_on channel=0 note=41 velocity=80 time=0.013541666666666667@note_on channel=0 note=50 velocity=80 time=0@note_on channel=0 note=41 velocity=0 time=0.35520833333333335@note_on channel=0 note=42 velocity=80 time=0.019791666666666666@note_on channel=0 note=50 velocity=0 time=0.3364583333333333@note_on channel=0 note=42 velocity=0 time=0.01875@note_on channel=0 note=60 velocity=80 time=0.019791666666666666@note_on channel=0 note=43 velocity=80 time=0@note_on channel=0 note=60 velocity=0 time=0.23645833333333333@note_on channel=0 note=53 velocity=80 time=0.013541666666666667@note_on channel=0 note=43 velocity=0 time=0.4614583333333333@note_on channel=0 note=38 velocity=80 time=0.03854166666666667@note_on channel=0 note=53 velocity=0 time=0.21145833333333333@note_on channel=0 note=58 velocity=80 time=0.03854166666666667@note_on channel=0 note=38 velocity=0 time=0.22395833333333334@note_on channel=0 note=58 velocity=0 time=0.0125@note_on channel=0 note=41 velocity=80 time=0.013541666666666667@note_on channel=0 note=52 velocity=80 time=0@note_on channel=0 note=41 velocity=0 time=0.35520833333333335@note_on channel=0 note=42 velocity=80 time=0.019791666666666666@note_on channel=0 note=52 velocity=0 time=0.3364583333333333@note_on channel=0 note=42 velocity=0 time=0.01875@note_on channel=0 note=62 velocity=80 time=0.019791666666666666@note_on channel=0 note=43 velocity=80 time=0@note_on channel=0 note=62 velocity=0 time=0.23645833333333333@note_on channel=0 note=67 velocity=80 time=0.013541666666666667@note_on channel=0 note=67 velocity=0 time=0.23645833333333333@note_on channel=0 note=70 velocity=80 time=0.013541666666666667@note_on channel=0 note=43 velocity=0 time=0.21145833333333333@note_on channel=0 note=70 velocity=0 time=0.025@note_on channel=0 note=67 velocity=80 time=0.013541666666666667@note_on channel=0 note=38 velocity=80 time=0@note_on channel=0 note=67 velocity=0 time=0.23645833333333333@note_on channel=0 note=62 velocity=80 time=0.013541666666666667@note_on channel=0 note=38 velocity=0 time=0.22395833333333334@note_on channel=0 note=62 velocity=0 time=0.0125@note_on channel=0 note=67 velocity=80 time=0.013541666666666667@note_on channel=0 note=41 velocity=80 time=0@note_on channel=0 note=67 velocity=0 time=0.23645833333333333@note_on channel=0 note=70 velocity=80 time=0.013541666666666667@note_on channel=0 note=41 velocity=0 time=0.10520833333333333@note_on channel=0 note=42 velocity=80 time=0.019791666666666666@note_on channel=0 note=70 velocity=0 time=0.11145833333333333@note_on channel=0 note=67 velocity=80 time=0.013541666666666667@note_on channel=0 note=42 velocity=0 time=0.23020833333333332@note_on channel=0 note=67 velocity=0 time=0.00625@note_on channel=0 note=62 velocity=80 time=0.013541666666666667@note_on channel=0 note=43 velocity=80 time=0@note_on channel=0 note=62 velocity=0 time=0.23645833333333333@note_on channel=0 note=67 velocity=80 time=0.013541666666666667@note_on channel=0 note=67 velocity=0 time=0.23645833333333333@note_on channel=0 note=69 velocity=80 time=0.013541666666666667@note_on channel=0 note=43 velocity=0 time=0.21145833333333333@note_on channel=0 note=69 velocity=0 time=0.025@note_on channel=0 note=67 velocity=80 time=0.013541666666666667@note_on channel=0 note=38 velocity=80 time=0@note_on channel=0 note=67 velocity=0 time=0.23645833333333333@note_on channel=0 note=62 velocity=80 time=0.013541666666666667@note_on channel=0 note=38 velocity=0 time=0.22395833333333334@note_on channel=0 note=62 velocity=0 time=0.0125@note_on channel=0 note=67 velocity=80 time=0.013541666666666667@note_on channel=0 note=41 velocity=80 time=0@note_on channel=0 note=67 velocity=0 time=0.23645833333333333@note_on channel=0 note=69 velocity=80 time=0.013541666666666667@note_on channel=0 note=41 velocity=0 time=0.10520833333333333@note_on channel=0 note=42 velocity=80 time=0.019791666666666666@note_on channel=0 note=69 velocity=0 time=0.11145833333333333@note_on channel=0 note=67 velocity=80 time=0.013541666666666667@note_on channel=0 note=42 velocity=0 time=0.23020833333333332@note_on channel=0 note=67 velocity=0 time=0.00625@note_on channel=0 note=58 velocity=80 time=0.013541666666666667@note_on channel=0 note=43 velocity=80 time=0@note_on channel=0 note=58 velocity=0 time=0.23645833333333333@note_on channel=0 note=62 velocity=80 time=0.013541666666666667@note_on channel=0 note=62 velocity=0 time=0.23645833333333333@note_on channel=0 note=67 velocity=80 time=0.013541666666666667@note_on channel=0 note=43 velocity=0 time=0.21145833333333333@note_on channel=0 note=67 velocity=0 time=0.025@note_on channel=0 note=62 velocity=80 time=0.013541666666666667@note_on channel=0 note=38 velocity=80 time=0@note_on channel=0 note=62 velocity=0 time=0.23645833333333333@note_on channel=0 note=58 velocity=80 time=0.013541666666666667@note_on channel=0 note=38 velocity=0 time=0.22395833333333334@note_on channel=0 note=58 velocity=0 time=0.0125@note_on channel=0 note=62 velocity=80 time=0.013541666666666667@note_on channel=0 note=41 velocity=80 time=0@note_on channel=0 note=62 velocity=0 time=0.23645833333333333@note_on channel=0 note=67 velocity=80 time=0.013541666666666667@note_on channel=0 note=41 velocity=0 time=0.10520833333333333@note_on channel=0 note=42 velocity=80 time=0.019791666666666666@note_on channel=0 note=67 velocity=0 time=0.11145833333333333@note_on channel=0 note=62 velocity=80 time=0.013541666666666667@note_on channel=0 note=42 velocity=0 time=0.23020833333333332@note_on channel=0 note=62 velocity=0 time=0.00625@note_on channel=0 note=55 velocity=80 time=0.013541666666666667@note_on channel=0 note=43 velocity=80 time=0@note_on channel=0 note=55 velocity=0 time=0.23645833333333333@note_on channel=0 note=62 velocity=80 time=0.013541666666666667@note_on channel=0 note=62 velocity=0 time=0.23645833333333333@note_on channel=0 note=65 velocity=80 time=0.013541666666666667@note_on channel=0 note=43 velocity=0 time=0.21145833333333333@note_on channel=0 note=65 velocity=0 time=0.025@note_on channel=0 note=62 velocity=80 time=0.013541666666666667@note_on channel=0 note=38 velocity=80 time=0@note_on channel=0 note=62 velocity=0 time=0.23645833333333333@note_on channel=0 note=55 velocity=80 time=0.013541666666666667@note_on channel=0 note=38 velocity=0 time=0.22395833333333334@note_on channel=0 note=55 velocity=0 time=0.0125@note_on channel=0 note=62 velocity=80 time=0.013541666666666667@note_on channel=0 note=41 velocity=80 time=0@note_on channel=0 note=62 velocity=0 time=0.23645833333333333@note_on channel=0 note=64 velocity=80 time=0.013541666666666667@note_on channel=0 note=41 velocity=0 time=0.10520833333333333@note_on channel=0 note=42 velocity=80 time=0.019791666666666666@note_on channel=0 note=64 velocity=0 time=0.11145833333333333@note_on channel=0 note=62 velocity=80 time=0.013541666666666667@note_on channel=0 note=42 velocity=0 time=0.23020833333333332@note_on channel=0 note=62 velocity=0 time=0.00625@note_on channel=0 note=43 velocity=80 time=0.013541666666666667@note_on channel=0 note=67 velocity=80 time=0.25@note_on channel=0 note=67 velocity=0 time=0.11770833333333333@note_on channel=0 note=67 velocity=80 time=0.007291666666666667@note_on channel=0 note=67 velocity=0 time=0.11770833333333333@note_on channel=0 note=67 velocity=80 time=0.007291666666666667@note_on channel=0 note=67 velocity=0 time=0.11770833333333333@note_on channel=0 note=67 velocity=80 time=0.007291666666666667@note_on channel=0 note=43 velocity=0 time=0.08645833333333333@note_on channel=0 note=67 velocity=0 time=0.03125@note_on channel=0 note=65 velocity=80 time=0.007291666666666667@note_on channel=0 note=38 velocity=80 time=0@note_on channel=0 note=65 velocity=0 time=0.11770833333333333@note_on channel=0 note=65 velocity=80 time=0.007291666666666667@note_on channel=0 note=65 velocity=0 time=0.11770833333333333@note_on channel=0 note=67 velocity=80 time=0.007291666666666667@note_on channel=0 note=67 velocity=0 time=0.12395833333333334@note_on channel=0 note=38 velocity=0 time=0.1@note_on channel=0 note=65 velocity=80 time=0.026041666666666668@note_on channel=0 note=41 velocity=80 time=0@note_on channel=0 note=65 velocity=0 time=0.12395833333333334@note_on channel=0 note=67 velocity=80 time=0.12604166666666666@note_on channel=0 note=41 velocity=0 time=0.10520833333333333@note_on channel=0 note=67 velocity=0 time=0.0125@note_on channel=0 note=65 velocity=80 time=0.007291666666666667@note_on channel=0 note=42 velocity=80 time=0@note_on channel=0 note=65 velocity=0 time=0.12395833333333334@note_on channel=0 note=67 velocity=80 time=0.12604166666666666@note_on channel=0 note=42 velocity=0 time=0.10520833333333333@note_on channel=0 note=67 velocity=0 time=0.0125@note_on channel=0 note=43 velocity=80 time=0.007291666666666667@note_on channel=0 note=70 velocity=80 time=0.125@note_on channel=0 note=70 velocity=0 time=0.11770833333333333@note_on channel=0 note=72 velocity=80 time=0.007291666666666667@note_on channel=0 note=72 velocity=0 time=0.11770833333333333@note_on channel=0 note=73 velocity=80 time=0.007291666666666667@note_on channel=0 note=73 velocity=0 time=0.11770833333333333@note_on channel=0 note=72 velocity=80 time=0.007291666666666667@note_on channel=0 note=72 velocity=0 time=0.11770833333333333@note_on channel=0 note=70 velocity=80 time=0.007291666666666667@note_on channel=0 note=43 velocity=0 time=0.08645833333333333@note_on channel=0 note=70 velocity=0 time=0.03125@note_on channel=0 note=65 velocity=80 time=0.007291666666666667@note_on channel=0 note=38 velocity=80 time=0@note_on channel=0 note=65 velocity=0 time=0.12395833333333334@note_on channel=0 note=67 velocity=80 time=0.12604166666666666@note_on channel=0 note=67 velocity=0 time=0.12395833333333334@note_on channel=0 note=38 velocity=0 time=0.1@note_on channel=0 note=65 velocity=80 time=0.026041666666666668@note_on channel=0 note=41 velocity=80 time=0@note_on channel=0 note=65 velocity=0 time=0.12395833333333334@note_on channel=0 note=67 velocity=80 time=0.12604166666666666@note_on channel=0 note=41 velocity=0 time=0.10520833333333333@note_on channel=0 note=67 velocity=0 time=0.0125@note_on channel=0 note=65 velocity=80 time=0.007291666666666667@note_on channel=0 note=42 velocity=80 time=0@note_on channel=0 note=65 velocity=0 time=0.12395833333333334@note_on channel=0 note=67 velocity=80 time=0.12604166666666666@note_on channel=0 note=42 velocity=0 time=0.10520833333333333@note_on channel=0 note=67 velocity=0 time=0.0125@note_on channel=0 note=43 velocity=80 time=0.007291666666666667@note_on channel=0 note=74 velocity=80 time=0.125@note_on channel=0 note=74 velocity=0 time=0.11770833333333333@note_on channel=0 note=77 velocity=80 time=0.007291666666666667@note_on channel=0 note=77 velocity=0 time=0.11770833333333333@note_on channel=0 note=78 velocity=80 time=0.007291666666666667@note_on channel=0 note=78 velocity=0 time=0.11770833333333333@note_on channel=0 note=79 velocity=80 time=0.007291666666666667@note_on channel=0 note=79 velocity=0 time=0.12395833333333334@note_on channel=0 note=43 velocity=0 time=0.0875@note_on channel=0 note=82 velocity=80 time=0.03854166666666667@note_on channel=0 note=38 velocity=80 time=0@note_on channel=0 note=82 velocity=0 time=0.12395833333333334@note_on channel=0 note=79 velocity=80 time=0.12604166666666666@note_on channel=0 note=79 velocity=0 time=0.11770833333333333@note_on channel=0 note=74 velocity=80 time=0.007291666666666667@note_on channel=0 note=38 velocity=0 time=0.09895833333333333@note_on channel=0 note=74 velocity=0 time=0.025@note_on channel=0 note=41 velocity=80 time=0.0010416666666666667@note_on channel=0 note=79 velocity=80 time=0.125@note_on channel=0 note=79 velocity=0 time=0.12395833333333334@note_on channel=0 note=41 velocity=0 time=0.10625@note_on channel=0 note=82 velocity=80 time=0.019791666666666666@note_on channel=0 note=42 velocity=80 time=0@note_on channel=0 note=82 velocity=0 time=0.11770833333333333@note_on channel=0 note=79 velocity=80 time=0.007291666666666667@note_on channel=0 note=79 velocity=0 time=0.11770833333333333@note_on channel=0 note=74 velocity=80 time=0.007291666666666667@note_on channel=0 note=42 velocity=0 time=0.10520833333333333@note_on channel=0 note=74 velocity=0 time=0.0125@note_on channel=0 note=43 velocity=80 time=0.007291666666666667@note_on channel=0 note=82 velocity=80 time=0.125@note_on channel=0 note=82 velocity=0 time=0.11770833333333333@note_on channel=0 note=81 velocity=80 time=0.007291666666666667@note_on channel=0 note=81 velocity=0 time=0.11770833333333333@note_on channel=0 note=79 velocity=80 time=0.007291666666666667@note_on channel=0 note=79 velocity=0 time=0.11770833333333333@note_on channel=0 note=74 velocity=80 time=0.007291666666666667@note_on channel=0 note=74 velocity=0 time=0.11770833333333333@note_on channel=0 note=72 velocity=80 time=0.007291666666666667@note_on channel=0 note=43 velocity=0 time=0.08645833333333333@note_on channel=0 note=72 velocity=0 time=0.03125@note_on channel=0 note=70 velocity=80 time=0.007291666666666667@note_on channel=0 note=38 velocity=80 time=0@note_on channel=0 note=70 velocity=0 time=0.11770833333333333@note_on channel=0 note=69 velocity=80 time=0.007291666666666667@note_on channel=0 note=69 velocity=0 time=0.11770833333333333@note_on channel=0 note=74 velocity=80 time=0.007291666666666667@note_on channel=0 note=74 velocity=0 time=0.12395833333333334@note_on channel=0 note=38 velocity=0 time=0.1@note_on channel=0 note=72 velocity=80 time=0.026041666666666668@note_on channel=0 note=41 velocity=80 time=0@note_on channel=0 note=72 velocity=0 time=0.12395833333333334@note_on channel=0 note=74 velocity=80 time=0.12604166666666666@note_on channel=0 note=41 velocity=0 time=0.10520833333333333@note_on channel=0 note=74 velocity=0 time=0.0125@note_on channel=0 note=75 velocity=80 time=0.007291666666666667@note_on channel=0 note=42 velocity=80 time=0@note_on channel=0 note=75 velocity=0 time=0.12395833333333334@note_on channel=0 note=74 velocity=80 time=0.12604166666666666@note_on channel=0 note=42 velocity=0 time=0.10520833333333333@note_on channel=0 note=74 velocity=0 time=0.0125@note_on channel=0 note=79 velocity=80 time=0.007291666666666667@note_on channel=0 note=31 velocity=80 time=0@note_on channel=0 note=43 velocity=80 time=0@note_on channel=0 note=79 velocity=0 time=0.23645833333333333@note_on channel=0 note=50 velocity=80 time=0.013541666666666667@note_on channel=0 note=31 velocity=0 time=0.4614583333333333@note_on channel=0 note=43 velocity=0 time=0@note_on channel=0 note=26 velocity=80 time=0.03854166666666667@note_on channel=0 note=38 velocity=80 time=0@note_on channel=0 note=50 velocity=0 time=0.21145833333333333@note_on channel=0 note=74 velocity=80 time=0.03854166666666667@note_on channel=0 note=26 velocity=0 time=0.22395833333333334@note_on channel=0 note=38 velocity=0 time=0@note_on channel=0 note=74 velocity=0 time=0.0125@note_on channel=0 note=55 velocity=80 time=0.013541666666666667@note_on channel=0 note=29 velocity=80 time=0@note_on channel=0 note=41 velocity=80 time=0@note_on channel=0 note=29 velocity=0 time=0.35520833333333335@note_on channel=0 note=41 velocity=0 time=0@note_on channel=0 note=30 velocity=80 time=0.019791666666666666@note_on channel=0 note=42 velocity=80 time=0@note_on channel=0 note=55 velocity=0 time=0.3364583333333333@note_on channel=0 note=30 velocity=0 time=0.01875@note_on channel=0 note=42 velocity=0 time=0@note_on channel=0 note=72 velocity=80 time=0.019791666666666666@note_on channel=0 note=31 velocity=80 time=0@note_on channel=0 note=43 velocity=80 time=0@note_on channel=0 note=72 velocity=0 time=0.23645833333333333@note_on channel=0 note=60 velocity=80 time=0.013541666666666667@note_on channel=0 note=31 velocity=0 time=0.4614583333333333@note_on channel=0 note=43 velocity=0 time=0@note_on channel=0 note=26 velocity=80 time=0.03854166666666667@note_on channel=0 note=38 velocity=80 time=0@note_on channel=0 note=60 velocity=0 time=0.21145833333333333@note_on channel=0 note=70 velocity=80 time=0.03854166666666667@note_on channel=0 note=26 velocity=0 time=0.22395833333333334@note_on channel=0 note=38 velocity=0 time=0@note_on channel=0 note=70 velocity=0 time=0.0125@note_on channel=0 note=62 velocity=80 time=0.013541666666666667@note_on channel=0 note=29 velocity=80 time=0@note_on channel=0 note=41 velocity=80 time=0@note_on channel=0 note=29 velocity=0 time=0.35520833333333335@note_on channel=0 note=41 velocity=0 time=0@note_on channel=0 note=30 velocity=80 time=0.019791666666666666@note_on channel=0 note=42 velocity=80 time=0@note_on channel=0 note=62 velocity=0 time=0.3364583333333333@note_on channel=0 note=30 velocity=0 time=0.01875@note_on channel=0 note=42 velocity=0 time=0@note_on channel=0 note=67 velocity=80 time=0.019791666666666666@note_on channel=0 note=31 velocity=80 time=0@note_on channel=0 note=43 velocity=80 time=0@note_on channel=0 note=67 velocity=0 time=0.23645833333333333@note_on channel=0 note=55 velocity=80 time=0.013541666666666667@note_on channel=0 note=31 velocity=0 time=0.4614583333333333@note_on channel=0 note=43 velocity=0 time=0@note_on channel=0 note=26 velocity=80 time=0.03854166666666667@note_on channel=0 note=38 velocity=80 time=0@note_on channel=0 note=55 velocity=0 time=0.21145833333333333@note_on channel=0 note=62 velocity=80 time=0.03854166666666667@note_on channel=0 note=26 velocity=0 time=0.22395833333333334@note_on channel=0 note=38 velocity=0 time=0@note_on channel=0 note=62 velocity=0 time=0.0125@note_on channel=0 note=29 velocity=80 time=0.013541666666666667@note_on channel=0 note=41 velocity=80 time=0@note_on channel=0 note=50 velocity=80 time=0@note_on channel=0 note=29 velocity=0 time=0.35520833333333335@note_on channel=0 note=41 velocity=0 time=0@note_on channel=0 note=30 velocity=80 time=0.019791666666666666@note_on channel=0 note=42 velocity=80 time=0@note_on channel=0 note=50 velocity=0 time=0.3364583333333333@note_on channel=0 note=30 velocity=0 time=0.01875@note_on channel=0 note=42 velocity=0 time=0@note_on channel=0 note=60 velocity=80 time=0.019791666666666666@note_on channel=0 note=31 velocity=80 time=0@note_on channel=0 note=43 velocity=80 time=0@note_on channel=0 note=60 velocity=0 time=0.23645833333333333@note_on channel=0 note=53 velocity=80 time=0.013541666666666667@note_on channel=0 note=31 velocity=0 time=0.4614583333333333@note_on channel=0 note=43 velocity=0 time=0@note_on channel=0 note=26 velocity=80 time=0.03854166666666667@note_on channel=0 note=38 velocity=80 time=0@note_on channel=0 note=53 velocity=0 time=0.21145833333333333@note_on channel=0 note=58 velocity=80 time=0.03854166666666667@note_on channel=0 note=26 velocity=0 time=0.22395833333333334@note_on channel=0 note=38 velocity=0 time=0@note_on channel=0 note=58 velocity=0 time=0.0125@note_on channel=0 note=29 velocity=80 time=0.013541666666666667@note_on channel=0 note=41 velocity=80 time=0@note_on channel=0 note=52 velocity=80 time=0@note_on channel=0 note=29 velocity=0 time=0.35520833333333335@note_on channel=0 note=41 velocity=0 time=0@note_on channel=0 note=30 velocity=80 time=0.019791666666666666@note_on channel=0 note=42 velocity=80 time=0@note_on channel=0 note=52 velocity=0 time=0.3364583333333333@note_on channel=0 note=30 velocity=0 time=0.01875@note_on channel=0 note=42 velocity=0 time=0@note_on channel=0 note=67 velocity=80 time=0.019791666666666666@note_on channel=0 note=31 velocity=80 time=0@note_on channel=0 note=43 velocity=80 time=0@note_on channel=0 note=67 velocity=0 time=0.11770833333333333@note_on channel=0 note=62 velocity=80 time=0.007291666666666667@note_on channel=0 note=62 velocity=0 time=0.11770833333333333@note_on channel=0 note=70 velocity=80 time=0.007291666666666667@note_on channel=0 note=70 velocity=0 time=0.11770833333333333@note_on channel=0 note=69 velocity=80 time=0.007291666666666667@note_on channel=0 note=69 velocity=0 time=0.11770833333333333@note_on channel=0 note=67 velocity=80 time=0.007291666666666667@note_on channel=0 note=67 velocity=0 time=0.11770833333333333@note_on channel=0 note=62 velocity=80 time=0.007291666666666667@note_on channel=0 note=31 velocity=0 time=0.08645833333333333@note_on channel=0 note=43 velocity=0 time=0@note_on channel=0 note=62 velocity=0 time=0.03125@note_on channel=0 note=70 velocity=80 time=0.007291666666666667@note_on channel=0 note=26 velocity=80 time=0@note_on channel=0 note=38 velocity=80 time=0@note_on channel=0 note=70 velocity=0 time=0.11770833333333333@note_on channel=0 note=69 velocity=80 time=0.007291666666666667@note_on channel=0 note=69 velocity=0 time=0.11770833333333333@note_on channel=0 note=67 velocity=80 time=0.007291666666666667@note_on channel=0 note=67 velocity=0 time=0.11770833333333333@note_on channel=0 note=62 velocity=80 time=0.007291666666666667@note_on channel=0 note=26 velocity=0 time=0.09895833333333333@note_on channel=0 note=38 velocity=0 time=0@note_on channel=0 note=62 velocity=0 time=0.01875@note_on channel=0 note=70 velocity=80 time=0.007291666666666667@note_on channel=0 note=29 velocity=80 time=0@note_on channel=0 note=41 velocity=80 time=0@note_on channel=0 note=70 velocity=0 time=0.11770833333333333@note_on channel=0 note=69 velocity=80 time=0.007291666666666667@note_on channel=0 note=69 velocity=0 time=0.11770833333333333@note_on channel=0 note=67 velocity=80 time=0.007291666666666667@note_on channel=0 note=29 velocity=0 time=0.10520833333333333@note_on channel=0 note=41 velocity=0 time=0@note_on channel=0 note=67 velocity=0 time=0.0125@note_on channel=0 note=62 velocity=80 time=0.007291666666666667@note_on channel=0 note=30 velocity=80 time=0@note_on channel=0 note=42 velocity=80 time=0@note_on channel=0 note=62 velocity=0 time=0.11770833333333333@note_on channel=0 note=70 velocity=80 time=0.007291666666666667@note_on channel=0 note=70 velocity=0 time=0.11770833333333333@note_on channel=0 note=69 velocity=80 time=0.007291666666666667@note_on channel=0 note=30 velocity=0 time=0.10520833333333333@note_on channel=0 note=42 velocity=0 time=0@note_on channel=0 note=69 velocity=0 time=0.0125@note_on channel=0 note=67 velocity=80 time=0.007291666666666667@note_on channel=0 note=31 velocity=80 time=0@note_on channel=0 note=43 velocity=80 time=0@note_on channel=0 note=67 velocity=0 time=0.11770833333333333@note_on channel=0 note=62 velocity=80 time=0.007291666666666667@note_on channel=0 note=62 velocity=0 time=0.11770833333333333@note_on channel=0 note=70 velocity=80 time=0.007291666666666667@note_on channel=0 note=70 velocity=0 time=0.11770833333333333@note_on channel=0 note=69 velocity=80 time=0.007291666666666667@note_on channel=0 note=69 velocity=0 time=0.11770833333333333@note_on channel=0 note=67 velocity=80 time=0.007291666666666667@note_on channel=0 note=67 velocity=0 time=0.11770833333333333@note_on channel=0 note=62 velocity=80 time=0.007291666666666667@note_on channel=0 note=31 velocity=0 time=0.08645833333333333@note_on channel=0 note=43 velocity=0 time=0@note_on channel=0 note=62 velocity=0 time=0.03125@note_on channel=0 note=70 velocity=80 time=0.007291666666666667@note_on channel=0 note=26 velocity=80 time=0@note_on channel=0 note=38 velocity=80 time=0@note_on channel=0 note=70 velocity=0 time=0.11770833333333333@note_on channel=0 note=69 velocity=80 time=0.007291666666666667@note_on channel=0 note=69 velocity=0 time=0.11770833333333333@note_on channel=0 note=67 velocity=80 time=0.007291666666666667@note_on channel=0 note=67 velocity=0 time=0.11770833333333333@note_on channel=0 note=62 velocity=80 time=0.007291666666666667@note_on channel=0 note=26 velocity=0 time=0.09895833333333333@note_on channel=0 note=38 velocity=0 time=0@note_on channel=0 note=62 velocity=0 time=0.01875@note_on channel=0 note=70 velocity=80 time=0.007291666666666667@note_on channel=0 note=29 velocity=80 time=0@note_on channel=0 note=41 velocity=80 time=0@note_on channel=0 note=70 velocity=0 time=0.11770833333333333@note_on channel=0 note=69 velocity=80 time=0.007291666666666667@note_on channel=0 note=69 velocity=0 time=0.11770833333333333@note_on channel=0 note=67 velocity=80 time=0.007291666666666667@note_on channel=0 note=29 velocity=0 time=0.10520833333333333@note_on channel=0 note=41 velocity=0 time=0@note_on channel=0 note=67 velocity=0 time=0.0125@note_on channel=0 note=62 velocity=80 time=0.007291666666666667@note_on channel=0 note=30 velocity=80 time=0@note_on channel=0 note=42 velocity=80 time=0@note_on channel=0 note=62 velocity=0 time=0.11770833333333333@note_on channel=0 note=70 velocity=80 time=0.007291666666666667@note_on channel=0 note=70 velocity=0 time=0.11770833333333333@note_on channel=0 note=69 velocity=80 time=0.007291666666666667@note_on channel=0 note=30 velocity=0 time=0.10520833333333333@note_on channel=0 note=42 velocity=0 time=0@note_on channel=0 note=69 velocity=0 time=0.0125@note_on channel=0 note=79 velocity=80 time=0.007291666666666667@note_on channel=0 note=31 velocity=80 time=0@note_on channel=0 note=43 velocity=80 time=0@note_on channel=0 note=79 velocity=0 time=0.11770833333333333@note_on channel=0 note=74 velocity=80 time=0.007291666666666667@note_on channel=0 note=74 velocity=0 time=0.11770833333333333@note_on channel=0 note=70 velocity=80 time=0.007291666666666667@note_on channel=0 note=70 velocity=0 time=0.11770833333333333@note_on channel=0 note=67 velocity=80 time=0.007291666666666667@note_on channel=0 note=67 velocity=0 time=0.11770833333333333@note_on channel=0 note=79 velocity=80 time=0.007291666666666667@note_on channel=0 note=79 velocity=0 time=0.11770833333333333@note_on channel=0 note=74 velocity=80 time=0.007291666666666667@note_on channel=0 note=31 velocity=0 time=0.08645833333333333@note_on channel=0 note=43 velocity=0 time=0@note_on channel=0 note=74 velocity=0 time=0.03125@note_on channel=0 note=70 velocity=80 time=0.007291666666666667@note_on channel=0 note=26 velocity=80 time=0@note_on channel=0 note=38 velocity=80 time=0@note_on channel=0 note=70 velocity=0 time=0.11770833333333333@note_on channel=0 note=67 velocity=80 time=0.007291666666666667@note_on channel=0 note=67 velocity=0 time=0.11770833333333333@note_on channel=0 note=79 velocity=80 time=0.007291666666666667@note_on channel=0 note=79 velocity=0 time=0.11770833333333333@note_on channel=0 note=74 velocity=80 time=0.007291666666666667@note_on channel=0 note=26 velocity=0 time=0.09895833333333333@note_on channel=0 note=38 velocity=0 time=0@note_on channel=0 note=74 velocity=0 time=0.01875@note_on channel=0 note=70 velocity=80 time=0.007291666666666667@note_on channel=0 note=29 velocity=80 time=0@note_on channel=0 note=41 velocity=80 time=0@note_on channel=0 note=70 velocity=0 time=0.11770833333333333@note_on channel=0 note=67 velocity=80 time=0.007291666666666667@note_on channel=0 note=67 velocity=0 time=0.11770833333333333@note_on channel=0 note=79 velocity=80 time=0.007291666666666667@note_on channel=0 note=29 velocity=0 time=0.10520833333333333@note_on channel=0 note=41 velocity=0 time=0@note_on channel=0 note=79 velocity=0 time=0.0125@note_on channel=0 note=74 velocity=80 time=0.007291666666666667@note_on channel=0 note=30 velocity=80 time=0@note_on channel=0 note=42 velocity=80 time=0@note_on channel=0 note=74 velocity=0 time=0.11770833333333333@note_on channel=0 note=70 velocity=80 time=0.007291666666666667@note_on channel=0 note=70 velocity=0 time=0.11770833333333333@note_on channel=0 note=67 velocity=80 time=0.007291666666666667@note_on channel=0 note=30 velocity=0 time=0.10520833333333333@note_on channel=0 note=42 velocity=0 time=0@note_on channel=0 note=67 velocity=0 time=0.0125@note_on channel=0 note=79 velocity=80 time=0.007291666666666667@note_on channel=0 note=31 velocity=80 time=0@note_on channel=0 note=43 velocity=80 time=0@note_on channel=0 note=79 velocity=0 time=0.11770833333333333@note_on channel=0 note=74 velocity=80 time=0.007291666666666667@note_on channel=0 note=74 velocity=0 time=0.11770833333333333@note_on channel=0 note=70 velocity=80 time=0.007291666666666667@note_on channel=0 note=70 velocity=0 time=0.11770833333333333@note_on channel=0 note=67 velocity=80 time=0.007291666666666667@note_on channel=0 note=67 velocity=0 time=0.11770833333333333@note_on channel=0 note=79 velocity=80 time=0.007291666666666667@note_on channel=0 note=79 velocity=0 time=0.11770833333333333@note_on channel=0 note=74 velocity=80 time=0.007291666666666667@note_on channel=0 note=31 velocity=0 time=0.08645833333333333@note_on channel=0 note=43 velocity=0 time=0@note_on channel=0 note=74 velocity=0 time=0.03125@note_on channel=0 note=70 velocity=80 time=0.007291666666666667@note_on channel=0 note=26 velocity=80 time=0@note_on channel=0 note=38 velocity=80 time=0@note_on channel=0 note=70 velocity=0 time=0.11770833333333333@note_on channel=0 note=67 velocity=80 time=0.007291666666666667@note_on channel=0 note=67 velocity=0 time=0.11770833333333333@note_on channel=0 note=67 velocity=80 time=0.007291666666666667@note_on channel=0 note=26 velocity=0 time=0.22395833333333334@note_on channel=0 note=38 velocity=0 time=0@note_on channel=0 note=67 velocity=0 time=0.0125@note_on channel=0 note=69 velocity=80 time=0.013541666666666667@note_on channel=0 note=29 velocity=80 time=0@note_on channel=0 note=41 velocity=80 time=0@note_on channel=0 note=69 velocity=0 time=0.23645833333333333@note_on channel=0 note=70 velocity=80 time=0.013541666666666667@note_on channel=0 note=29 velocity=0 time=0.10520833333333333@note_on channel=0 note=41 velocity=0 time=0@note_on channel=0 note=30 velocity=80 time=0.019791666666666666@note_on channel=0 note=42 velocity=80 time=0@note_on channel=0 note=70 velocity=0 time=0.11145833333333333@note_on channel=0 note=74 velocity=80 time=0.013541666666666667@note_on channel=0 note=30 velocity=0 time=0.23020833333333332@note_on channel=0 note=42 velocity=0 time=0@note_on channel=0 note=74 velocity=0 time=0.00625@note_on channel=0 note=58 velocity=80 time=0.013541666666666667@note_on channel=0 note=70 velocity=80 time=0@note_on channel=0 note=34 velocity=80 time=0@note_on channel=0 note=46 velocity=80 time=0@note_on channel=0 note=58 velocity=0 time=0.11770833333333333@note_on channel=0 note=70 velocity=0 time=0@note_on channel=0 note=34 velocity=0 time=0@note_on channel=0 note=46 velocity=0 time=0@note_on channel=0 note=58 velocity=80 time=0.007291666666666667@note_on channel=0 note=70 velocity=80 time=0@note_on channel=0 note=34 velocity=80 time=0@note_on channel=0 note=46 velocity=80 time=0@note_on channel=0 note=58 velocity=0 time=0.11770833333333333@note_on channel=0 note=70 velocity=0 time=0@note_on channel=0 note=34 velocity=0 time=0@note_on channel=0 note=46 velocity=0 time=0@note_on channel=0 note=58 velocity=80 time=0.007291666666666667@note_on channel=0 note=70 velocity=80 time=0@note_on channel=0 note=34 velocity=80 time=0@note_on channel=0 note=46 velocity=80 time=0@note_on channel=0 note=58 velocity=0 time=0.11770833333333333@note_on channel=0 note=70 velocity=0 time=0@note_on channel=0 note=34 velocity=0 time=0@note_on channel=0 note=46 velocity=0 time=0@note_on channel=0 note=58 velocity=80 time=0.007291666666666667@note_on channel=0 note=70 velocity=80 time=0@note_on channel=0 note=34 velocity=80 time=0@note_on channel=0 note=46 velocity=80 time=0@note_on channel=0 note=58 velocity=0 time=0.11770833333333333@note_on channel=0 note=70 velocity=0 time=0@note_on channel=0 note=34 velocity=0 time=0@note_on channel=0 note=46 velocity=0 time=0@note_on channel=0 note=58 velocity=80 time=0.007291666666666667@note_on channel=0 note=70 velocity=80 time=0@note_on channel=0 note=34 velocity=80 time=0@note_on channel=0 note=46 velocity=80 time=0@note_on channel=0 note=58 velocity=0 time=0.11770833333333333@note_on channel=0 note=70 velocity=0 time=0@note_on channel=0 note=34 velocity=0 time=0@note_on channel=0 note=46 velocity=0 time=0@note_on channel=0 note=58 velocity=80 time=0.007291666666666667@note_on channel=0 note=70 velocity=80 time=0@note_on channel=0 note=34 velocity=80 time=0@note_on channel=0 note=46 velocity=80 time=0@note_on channel=0 note=58 velocity=0 time=0.11770833333333333@note_on channel=0 note=70 velocity=0 time=0@note_on channel=0 note=34 velocity=0 time=0@note_on channel=0 note=46 velocity=0 time=0@note_on channel=0 note=58 velocity=80 time=0.007291666666666667@note_on channel=0 note=70 velocity=80 time=0@note_on channel=0 note=34 velocity=80 time=0@note_on channel=0 note=46 velocity=80 time=0@note_on channel=0 note=58 velocity=0 time=0.11770833333333333@note_on channel=0 note=70 velocity=0 time=0@note_on channel=0 note=34 velocity=0 time=0@note_on channel=0 note=46 velocity=0 time=0@note_on channel=0 note=58 velocity=80 time=0.007291666666666667@note_on channel=0 note=70 velocity=80 time=0@note_on channel=0 note=34 velocity=80 time=0@note_on channel=0 note=46 velocity=80 time=0@note_on channel=0 note=58 velocity=0 time=0.11770833333333333@note_on channel=0 note=70 velocity=0 time=0@note_on channel=0 note=34 velocity=0 time=0@note_on channel=0 note=46 velocity=0 time=0@note_on channel=0 note=58 velocity=80 time=0.007291666666666667@note_on channel=0 note=70 velocity=80 time=0@note_on channel=0 note=34 velocity=80 time=0@note_on channel=0 note=46 velocity=80 time=0@note_on channel=0 note=58 velocity=0 time=0.11770833333333333@note_on channel=0 note=70 velocity=0 time=0@note_on channel=0 note=34 velocity=0 time=0@note_on channel=0 note=46 velocity=0 time=0@note_on channel=0 note=58 velocity=80 time=0.007291666666666667@note_on channel=0 note=70 velocity=80 time=0@note_on channel=0 note=34 velocity=80 time=0@note_on channel=0 note=46 velocity=80 time=0@note_on channel=0 note=58 velocity=0 time=0.11770833333333333@note_on channel=0 note=70 velocity=0 time=0@note_on channel=0 note=34 velocity=0 time=0@note_on channel=0 note=46 velocity=0 time=0@note_on channel=0 note=58 velocity=80 time=0.007291666666666667@note_on channel=0 note=70 velocity=80 time=0@note_on channel=0 note=34 velocity=80 time=0@note_on channel=0 note=46 velocity=80 time=0@note_on channel=0 note=58 velocity=0 time=0.11770833333333333@note_on channel=0 note=70 velocity=0 time=0@note_on channel=0 note=34 velocity=0 time=0@note_on channel=0 note=46 velocity=0 time=0@note_on channel=0 note=58 velocity=80 time=0.007291666666666667@note_on channel=0 note=70 velocity=80 time=0@note_on channel=0 note=34 velocity=80 time=0@note_on channel=0 note=46 velocity=80 time=0@note_on channel=0 note=58 velocity=0 time=0.11770833333333333@note_on channel=0 note=70 velocity=0 time=0@note_on channel=0 note=34 velocity=0 time=0@note_on channel=0 note=46 velocity=0 time=0@note_on channel=0 note=58 velocity=80 time=0.007291666666666667@note_on channel=0 note=70 velocity=80 time=0@note_on channel=0 note=34 velocity=80 time=0@note_on channel=0 note=46 velocity=80 time=0@note_on channel=0 note=58 velocity=0 time=0.11770833333333333@note_on channel=0 note=70 velocity=0 time=0@note_on channel=0 note=34 velocity=0 time=0@note_on channel=0 note=46 velocity=0 time=0@note_on channel=0 note=58 velocity=80 time=0.007291666666666667@note_on channel=0 note=70 velocity=80 time=0@note_on channel=0 note=34 velocity=80 time=0@note_on channel=0 note=46 velocity=80 time=0@note_on channel=0 note=58 velocity=0 time=0.11770833333333333@note_on channel=0 note=70 velocity=0 time=0@note_on channel=0 note=34 velocity=0 time=0@note_on channel=0 note=46 velocity=0 time=0@note_on channel=0 note=58 velocity=80 time=0.007291666666666667@note_on channel=0 note=70 velocity=80 time=0@note_on channel=0 note=34 velocity=80 time=0@note_on channel=0 note=46 velocity=80 time=0@note_on channel=0 note=58 velocity=0 time=0.11770833333333333@note_on channel=0 note=70 velocity=0 time=0@note_on channel=0 note=34 velocity=0 time=0@note_on channel=0 note=46 velocity=0 time=0@note_on channel=0 note=58 velocity=80 time=0.007291666666666667@note_on channel=0 note=70 velocity=80 time=0@note_on channel=0 note=34 velocity=80 time=0@note_on channel=0 note=46 velocity=80 time=0@note_on channel=0 note=58 velocity=0 time=0.11770833333333333@note_on channel=0 note=70 velocity=0 time=0@note_on channel=0 note=34 velocity=0 time=0@note_on channel=0 note=46 velocity=0 time=0@note_on channel=0 note=60 velocity=80 time=0.007291666666666667@note_on channel=0 note=72 velocity=80 time=0@note_on channel=0 note=36 velocity=80 time=0@note_on channel=0 note=48 velocity=80 time=0@note_on channel=0 note=60 velocity=0 time=0.11770833333333333@note_on channel=0 note=72 velocity=0 time=0@note_on channel=0 note=36 velocity=0 time=0@note_on channel=0 note=48 velocity=0 time=0@note_on channel=0 note=60 velocity=80 time=0.007291666666666667@note_on channel=0 note=72 velocity=80 time=0@note_on channel=0 note=36 velocity=80 time=0@note_on channel=0 note=48 velocity=80 time=0@note_on channel=0 note=60 velocity=0 time=0.11770833333333333@note_on channel=0 note=72 velocity=0 time=0@note_on channel=0 note=36 velocity=0 time=0@note_on channel=0 note=48 velocity=0 time=0@note_on channel=0 note=60 velocity=80 time=0.007291666666666667@note_on channel=0 note=72 velocity=80 time=0@note_on channel=0 note=36 velocity=80 time=0@note_on channel=0 note=48 velocity=80 time=0@note_on channel=0 note=60 velocity=0 time=0.11770833333333333@note_on channel=0 note=72 velocity=0 time=0@note_on channel=0 note=36 velocity=0 time=0@note_on channel=0 note=48 velocity=0 time=0@note_on channel=0 note=60 velocity=80 time=0.007291666666666667@note_on channel=0 note=72 velocity=80 time=0@note_on channel=0 note=36 velocity=80 time=0@note_on channel=0 note=48 velocity=80 time=0@note_on channel=0 note=60 velocity=0 time=0.11770833333333333@note_on channel=0 note=72 velocity=0 time=0@note_on channel=0 note=36 velocity=0 time=0@note_on channel=0 note=48 velocity=0 time=0@note_on channel=0 note=60 velocity=80 time=0.007291666666666667@note_on channel=0 note=72 velocity=80 time=0@note_on channel=0 note=36 velocity=80 time=0@note_on channel=0 note=48 velocity=80 time=0@note_on channel=0 note=60 velocity=0 time=0.11770833333333333@note_on channel=0 note=72 velocity=0 time=0@note_on channel=0 note=36 velocity=0 time=0@note_on channel=0 note=48 velocity=0 time=0@note_on channel=0 note=60 velocity=80 time=0.007291666666666667@note_on channel=0 note=72 velocity=80 time=0@note_on channel=0 note=36 velocity=80 time=0@note_on channel=0 note=48 velocity=80 time=0@note_on channel=0 note=60 velocity=0 time=0.11770833333333333@note_on channel=0 note=72 velocity=0 time=0@note_on channel=0 note=36 velocity=0 time=0@note_on channel=0 note=48 velocity=0 time=0@note_on channel=0 note=60 velocity=80 time=0.007291666666666667@note_on channel=0 note=72 velocity=80 time=0@note_on channel=0 note=36 velocity=80 time=0@note_on channel=0 note=48 velocity=80 time=0@note_on channel=0 note=60 velocity=0 time=0.11770833333333333@note_on channel=0 note=72 velocity=0 time=0@note_on channel=0 note=36 velocity=0 time=0@note_on channel=0 note=48 velocity=0 time=0@note_on channel=0 note=60 velocity=80 time=0.007291666666666667@note_on channel=0 note=72 velocity=80 time=0@note_on channel=0 note=36 velocity=80 time=0@note_on channel=0 note=48 velocity=80 time=0@note_on channel=0 note=60 velocity=0 time=0.11770833333333333@note_on channel=0 note=72 velocity=0 time=0@note_on channel=0 note=36 velocity=0 time=0@note_on channel=0 note=48 velocity=0 time=0@note_on channel=0 note=61 velocity=80 time=0.007291666666666667@note_on channel=0 note=73 velocity=80 time=0@note_on channel=0 note=37 velocity=80 time=0@note_on channel=0 note=49 velocity=80 time=0@note_on channel=0 note=61 velocity=0 time=0.11770833333333333@note_on channel=0 note=73 velocity=0 time=0@note_on channel=0 note=37 velocity=0 time=0@note_on channel=0 note=49 velocity=0 time=0@note_on channel=0 note=61 velocity=80 time=0.007291666666666667@note_on channel=0 note=73 velocity=80 time=0@note_on channel=0 note=37 velocity=80 time=0@note_on channel=0 note=49 velocity=80 time=0@note_on channel=0 note=61 velocity=0 time=0.11770833333333333@note_on channel=0 note=73 velocity=0 time=0@note_on channel=0 note=37 velocity=0 time=0@note_on channel=0 note=49 velocity=0 time=0@note_on channel=0 note=61 velocity=80 time=0.007291666666666667@note_on channel=0 note=73 velocity=80 time=0@note_on channel=0 note=37 velocity=80 time=0@note_on channel=0 note=49 velocity=80 time=0@note_on channel=0 note=61 velocity=0 time=0.11770833333333333@note_on channel=0 note=73 velocity=0 time=0@note_on channel=0 note=37 velocity=0 time=0@note_on channel=0 note=49 velocity=0 time=0@note_on channel=0 note=61 velocity=80 time=0.007291666666666667@note_on channel=0 note=73 velocity=80 time=0@note_on channel=0 note=37 velocity=80 time=0@note_on channel=0 note=49 velocity=80 time=0@note_on channel=0 note=61 velocity=0 time=0.11770833333333333@note_on channel=0 note=73 velocity=0 time=0@note_on channel=0 note=37 velocity=0 time=0@note_on channel=0 note=49 velocity=0 time=0@note_on channel=0 note=63 velocity=80 time=0.007291666666666667@note_on channel=0 note=75 velocity=80 time=0@note_on channel=0 note=39 velocity=80 time=0@note_on channel=0 note=51 velocity=80 time=0@note_on channel=0 note=63 velocity=0 time=0.11770833333333333@note_on channel=0 note=75 velocity=0 time=0@note_on channel=0 note=39 velocity=0 time=0@note_on channel=0 note=51 velocity=0 time=0@note_on channel=0 note=63 velocity=80 time=0.007291666666666667@note_on channel=0 note=75 velocity=80 time=0@note_on channel=0 note=39 velocity=80 time=0@note_on channel=0 note=51 velocity=80 time=0@note_on channel=0 note=63 velocity=0 time=0.11770833333333333@note_on channel=0 note=75 velocity=0 time=0@note_on channel=0 note=39 velocity=0 time=0@note_on channel=0 note=51 velocity=0 time=0@note_on channel=0 note=65 velocity=80 time=0.007291666666666667@note_on channel=0 note=77 velocity=80 time=0@note_on channel=0 note=41 velocity=80 time=0@note_on channel=0 note=53 velocity=80 time=0@note_on channel=0 note=65 velocity=0 time=0.11770833333333333@note_on channel=0 note=77 velocity=0 time=0@note_on channel=0 note=41 velocity=0 time=0@note_on channel=0 note=53 velocity=0 time=0@note_on channel=0 note=65 velocity=80 time=0.007291666666666667@note_on channel=0 note=77 velocity=80 time=0@note_on channel=0 note=41 velocity=80 time=0@note_on channel=0 note=53 velocity=80 time=0@note_on channel=0 note=65 velocity=0 time=0.11770833333333333@note_on channel=0 note=77 velocity=0 time=0@note_on channel=0 note=41 velocity=0 time=0@note_on channel=0 note=53 velocity=0 time=0@note_on channel=0 note=58 velocity=80 time=0.007291666666666667@note_on channel=0 note=70 velocity=80 time=0@note_on channel=0 note=34 velocity=80 time=0@note_on channel=0 note=46 velocity=80 time=0@note_on channel=0 note=58 velocity=0 time=0.23645833333333333@note_on channel=0 note=70 velocity=0 time=0@note_on channel=0 note=34 velocity=0 time=0@note_on channel=0 note=46 velocity=0 time=0@note_on channel=0 note=63 velocity=80 time=0.3885416666666667@note_on channel=0 note=39 velocity=80 time=0@note_on channel=0 note=63 velocity=0 time=0.11770833333333333@note_on channel=0 note=39 velocity=0 time=0@note_on channel=0 note=61 velocity=80 time=0.007291666666666667@note_on channel=0 note=37 velocity=80 time=0@note_on channel=0 note=61 velocity=0 time=0.11770833333333333@note_on channel=0 note=37 velocity=0 time=0@note_on channel=0 note=60 velocity=80 time=0.007291666666666667@note_on channel=0 note=36 velocity=80 time=0@note_on channel=0 note=60 velocity=0 time=0.11770833333333333@note_on channel=0 note=36 velocity=0 time=0@note_on channel=0 note=58 velocity=80 time=0.007291666666666667@note_on channel=0 note=34 velocity=80 time=0@note_on channel=0 note=58 velocity=0 time=0.23645833333333333@note_on channel=0 note=34 velocity=0 time=0@note_on channel=0 note=58 velocity=80 time=0.013541666666666667@note_on channel=0 note=34 velocity=80 time=0@note_on channel=0 note=58 velocity=0 time=0.23645833333333333@note_on channel=0 note=34 velocity=0 time=0@note_on channel=0 note=60 velocity=80 time=0.013541666666666667@note_on channel=0 note=36 velocity=80 time=0@note_on channel=0 note=60 velocity=0 time=0.23645833333333333@note_on channel=0 note=36 velocity=0 time=0@note_on channel=0 note=61 velocity=80 time=0.013541666666666667@note_on channel=0 note=37 velocity=80 time=0@note_on channel=0 note=61 velocity=0 time=0.23645833333333333@note_on channel=0 note=37 velocity=0 time=0@note_on channel=0 note=58 velocity=80 time=0.013541666666666667@note_on channel=0 note=34 velocity=80 time=0@note_on channel=0 note=58 velocity=0 time=0.23645833333333333@note_on channel=0 note=34 velocity=0 time=0@note_on channel=0 note=63 velocity=80 time=0.3885416666666667@note_on channel=0 note=39 velocity=80 time=0@note_on channel=0 note=63 velocity=0 time=0.11770833333333333@note_on channel=0 note=39 velocity=0 time=0@note_on channel=0 note=61 velocity=80 time=0.007291666666666667@note_on channel=0 note=37 velocity=80 time=0@note_on channel=0 note=61 velocity=0 time=0.11770833333333333@note_on channel=0 note=37 velocity=0 time=0@note_on channel=0 note=60 velocity=80 time=0.007291666666666667@note_on channel=0 note=36 velocity=80 time=0@note_on channel=0 note=60 velocity=0 time=0.11770833333333333@note_on channel=0 note=36 velocity=0 time=0@note_on channel=0 note=58 velocity=80 time=0.007291666666666667@note_on channel=0 note=34 velocity=80 time=0@note_on channel=0 note=58 velocity=0 time=0.23645833333333333@note_on channel=0 note=34 velocity=0 time=0@note_on channel=0 note=53 velocity=80 time=0.013541666666666667@note_on channel=0 note=29 velocity=80 time=0@note_on channel=0 note=53 velocity=0 time=0.23645833333333333@note_on channel=0 note=29 velocity=0 time=0@note_on channel=0 note=54 velocity=80 time=0.013541666666666667@note_on channel=0 note=30 velocity=80 time=0@note_on channel=0 note=54 velocity=0 time=0.23645833333333333@note_on channel=0 note=30 velocity=0 time=0@note_on channel=0 note=56 velocity=80 time=0.013541666666666667@note_on channel=0 note=32 velocity=80 time=0@note_on channel=0 note=56 velocity=0 time=0.23645833333333333@note_on channel=0 note=32 velocity=0 time=0@note_on channel=0 note=43 velocity=80 time=0.013541666666666667@note_on channel=0 note=55 velocity=80 time=0@note_on channel=0 note=43 velocity=0 time=0.23645833333333333@note_on channel=0 note=55 velocity=0 time=0@note_on channel=0 note=43 velocity=80 time=0.013541666666666667@note_on channel=0 note=55 velocity=80 time=0@note_on channel=0 note=43 velocity=0 time=0.11770833333333333@note_on channel=0 note=55 velocity=0 time=0@note_on channel=0 note=43 velocity=80 time=0.007291666666666667@note_on channel=0 note=55 velocity=80 time=0@note_on channel=0 note=43 velocity=0 time=0.11770833333333333@note_on channel=0 note=55 velocity=0 time=0@note_on channel=0 note=78 velocity=80 time=0.007291666666666667@note_on channel=0 note=43 velocity=80 time=0@note_on channel=0 note=55 velocity=80 time=0@note_on channel=0 note=43 velocity=0 time=0.23645833333333333@note_on channel=0 note=55 velocity=0 time=0@note_on channel=0 note=39 velocity=80 time=0.013541666666666667@note_on channel=0 note=51 velocity=80 time=0@note_on channel=0 note=78 velocity=0 time=0.22395833333333334@note_on channel=0 note=39 velocity=0 time=0.0125@note_on channel=0 note=51 velocity=0 time=0@note_on channel=0 note=79 velocity=80 time=0.013541666666666667@note_on channel=0 note=39 velocity=80 time=0@note_on channel=0 note=51 velocity=80 time=0@note_on channel=0 note=39 velocity=0 time=0.11770833333333333@note_on channel=0 note=51 velocity=0 time=0@note_on channel=0 note=39 velocity=80 time=0.007291666666666667@note_on channel=0 note=51 velocity=80 time=0@note_on channel=0 note=39 velocity=0 time=0.11770833333333333@note_on channel=0 note=51 velocity=0 time=0@note_on channel=0 note=39 velocity=80 time=0.007291666666666667@note_on channel=0 note=51 velocity=80 time=0@note_on channel=0 note=79 velocity=0 time=0.22395833333333334@note_on channel=0 note=39 velocity=0 time=0.0125@note_on channel=0 note=51 velocity=0 time=0@note_on channel=0 note=39 velocity=80 time=0.013541666666666667@note_on channel=0 note=51 velocity=80 time=0@note_on channel=0 note=39 velocity=0 time=0.23645833333333333@note_on channel=0 note=51 velocity=0 time=0@note_on channel=0 note=36 velocity=80 time=0.013541666666666667@note_on channel=0 note=48 velocity=80 time=0@note_on channel=0 note=36 velocity=0 time=0.23645833333333333@note_on channel=0 note=48 velocity=0 time=0@note_on channel=0 note=81 velocity=80 time=0.013541666666666667@note_on channel=0 note=81 velocity=0 time=0.7114583333333333@note_on channel=0 note=82 velocity=80 time=0.03854166666666667@note_on channel=0 note=36 velocity=80 time=0@note_on channel=0 note=48 velocity=80 time=0@note_on channel=0 note=36 velocity=0 time=0.23645833333333333@note_on channel=0 note=48 velocity=0 time=0@note_on channel=0 note=36 velocity=80 time=0.013541666666666667@note_on channel=0 note=48 velocity=80 time=0@note_on channel=0 note=36 velocity=0 time=0.11770833333333333@note_on channel=0 note=48 velocity=0 time=0@note_on channel=0 note=36 velocity=80 time=0.007291666666666667@note_on channel=0 note=48 velocity=80 time=0@note_on channel=0 note=36 velocity=0 time=0.11770833333333333@note_on channel=0 note=48 velocity=0 time=0@note_on channel=0 note=36 velocity=80 time=0.007291666666666667@note_on channel=0 note=48 velocity=80 time=0@note_on channel=0 note=82 velocity=0 time=0.21145833333333333@note_on channel=0 note=36 velocity=0 time=0.025@note_on channel=0 note=48 velocity=0 time=0@note_on channel=0 note=84 velocity=80 time=0.013541666666666667@note_on channel=0 note=38 velocity=80 time=0@note_on channel=0 note=50 velocity=80 time=0@note_on channel=0 note=38 velocity=0 time=0.23645833333333333@note_on channel=0 note=50 velocity=0 time=0@note_on channel=0 note=36 velocity=80 time=0.013541666666666667@note_on channel=0 note=48 velocity=80 time=0@note_on channel=0 note=84 velocity=0 time=0.22395833333333334@note_on channel=0 note=36 velocity=0 time=0.0125@note_on channel=0 note=48 velocity=0 time=0@note_on channel=0 note=43 velocity=80 time=0.013541666666666667@note_on channel=0 note=55 velocity=80 time=0@note_on channel=0 note=43 velocity=0 time=0.23645833333333333@note_on channel=0 note=55 velocity=0 time=0@note_on channel=0 note=43 velocity=80 time=0.013541666666666667@note_on channel=0 note=55 velocity=80 time=0@note_on channel=0 note=43 velocity=0 time=0.11770833333333333@note_on channel=0 note=55 velocity=0 time=0@note_on channel=0 note=43 velocity=80 time=0.007291666666666667@note_on channel=0 note=55 velocity=80 time=0@note_on channel=0 note=43 velocity=0 time=0.11770833333333333@note_on channel=0 note=55 velocity=0 time=0@note_on channel=0 note=86 velocity=80 time=0.007291666666666667@note_on channel=0 note=43 velocity=80 time=0@note_on channel=0 note=55 velocity=80 time=0@note_on channel=0 note=43 velocity=0 time=0.23645833333333333@note_on channel=0 note=55 velocity=0 time=0@note_on channel=0 note=39 velocity=80 time=0.013541666666666667@note_on channel=0 note=51 velocity=80 time=0@note_on channel=0 note=86 velocity=0 time=0.22395833333333334@note_on channel=0 note=39 velocity=0 time=0.0125@note_on channel=0 note=51 velocity=0 time=0@note_on channel=0 note=79 velocity=80 time=0.013541666666666667@note_on channel=0 note=39 velocity=80 time=0@note_on channel=0 note=51 velocity=80 time=0@note_on channel=0 note=39 velocity=0 time=0.11770833333333333@note_on channel=0 note=51 velocity=0 time=0@note_on channel=0 note=39 velocity=80 time=0.007291666666666667@note_on channel=0 note=51 velocity=80 time=0@note_on channel=0 note=39 velocity=0 time=0.11770833333333333@note_on channel=0 note=51 velocity=0 time=0@note_on channel=0 note=39 velocity=80 time=0.007291666666666667@note_on channel=0 note=51 velocity=80 time=0@note_on channel=0 note=79 velocity=0 time=0.22395833333333334@note_on channel=0 note=39 velocity=0 time=0.0125@note_on channel=0 note=51 velocity=0 time=0@note_on channel=0 note=39 velocity=80 time=0.013541666666666667@note_on channel=0 note=51 velocity=80 time=0@note_on channel=0 note=39 velocity=0 time=0.23645833333333333@note_on channel=0 note=51 velocity=0 time=0@note_on channel=0 note=36 velocity=80 time=0.013541666666666667@note_on channel=0 note=48 velocity=80 time=0@note_on channel=0 note=36 velocity=0 time=0.23645833333333333@note_on channel=0 note=48 velocity=0 time=0@note_on channel=0 note=82 velocity=80 time=0.013541666666666667@note_on channel=0 note=82 velocity=0 time=0.7114583333333333@note_on channel=0 note=81 velocity=80 time=0.03854166666666667@note_on channel=0 note=36 velocity=80 time=0@note_on channel=0 note=48 velocity=80 time=0@note_on channel=0 note=36 velocity=0 time=0.23645833333333333@note_on channel=0 note=48 velocity=0 time=0@note_on channel=0 note=36 velocity=80 time=0.013541666666666667@note_on channel=0 note=48 velocity=80 time=0@note_on channel=0 note=36 velocity=0 time=0.11770833333333333@note_on channel=0 note=48 velocity=0 time=0@note_on channel=0 note=36 velocity=80 time=0.007291666666666667@note_on channel=0 note=48 velocity=80 time=0@note_on channel=0 note=36 velocity=0 time=0.11770833333333333@note_on channel=0 note=48 velocity=0 time=0@note_on channel=0 note=36 velocity=80 time=0.007291666666666667@note_on channel=0 note=48 velocity=80 time=0@note_on channel=0 note=81 velocity=0 time=0.21145833333333333@note_on channel=0 note=36 velocity=0 time=0.025@note_on channel=0 note=48 velocity=0 time=0@note_on channel=0 note=38 velocity=80 time=0.013541666666666667@note_on channel=0 note=50 velocity=80 time=0@note_on channel=0 note=38 velocity=0 time=0.23645833333333333@note_on channel=0 note=50 velocity=0 time=0@note_on channel=0 note=36 velocity=80 time=0.013541666666666667@note_on channel=0 note=48 velocity=80 time=0@note_on channel=0 note=36 velocity=0 time=0.23645833333333333@note_on channel=0 note=48 velocity=0 time=0@note_on channel=0 note=43 velocity=80 time=0.013541666666666667@note_on channel=0 note=55 velocity=80 time=0@note_on channel=0 note=43 velocity=0 time=0.23645833333333333@note_on channel=0 note=55 velocity=0 time=0@note_on channel=0 note=43 velocity=80 time=0.013541666666666667@note_on channel=0 note=55 velocity=80 time=0@note_on channel=0 note=43 velocity=0 time=0.11770833333333333@note_on channel=0 note=55 velocity=0 time=0@note_on channel=0 note=43 velocity=80 time=0.007291666666666667@note_on channel=0 note=55 velocity=80 time=0@note_on channel=0 note=43 velocity=0 time=0.11770833333333333@note_on channel=0 note=55 velocity=0 time=0@note_on channel=0 note=78 velocity=80 time=0.007291666666666667@note_on channel=0 note=43 velocity=80 time=0@note_on channel=0 note=55 velocity=80 time=0@note_on channel=0 note=43 velocity=0 time=0.23645833333333333@note_on channel=0 note=55 velocity=0 time=0@note_on channel=0 note=39 velocity=80 time=0.013541666666666667@note_on channel=0 note=51 velocity=80 time=0@note_on channel=0 note=78 velocity=0 time=0.22395833333333334@note_on channel=0 note=39 velocity=0 time=0.0125@note_on channel=0 note=51 velocity=0 time=0@note_on channel=0 note=79 velocity=80 time=0.013541666666666667@note_on channel=0 note=39 velocity=80 time=0@note_on channel=0 note=51 velocity=80 time=0@note_on channel=0 note=39 velocity=0 time=0.11770833333333333@note_on channel=0 note=51 velocity=0 time=0@note_on channel=0 note=39 velocity=80 time=0.007291666666666667@note_on channel=0 note=51 velocity=80 time=0@note_on channel=0 note=39 velocity=0 time=0.11770833333333333@note_on channel=0 note=51 velocity=0 time=0@note_on channel=0 note=39 velocity=80 time=0.007291666666666667@note_on channel=0 note=51 velocity=80 time=0@note_on channel=0 note=79 velocity=0 time=0.22395833333333334@note_on channel=0 note=39 velocity=0 time=0.0125@note_on channel=0 note=51 velocity=0 time=0@note_on channel=0 note=39 velocity=80 time=0.013541666666666667@note_on channel=0 note=51 velocity=80 time=0@note_on channel=0 note=39 velocity=0 time=0.23645833333333333@note_on channel=0 note=51 velocity=0 time=0@note_on channel=0 note=36 velocity=80 time=0.013541666666666667@note_on channel=0 note=48 velocity=80 time=0@note_on channel=0 note=36 velocity=0 time=0.23645833333333333@note_on channel=0 note=48 velocity=0 time=0@note_on channel=0 note=81 velocity=80 time=0.013541666666666667@note_on channel=0 note=81 velocity=0 time=0.7114583333333333@note_on channel=0 note=82 velocity=80 time=0.03854166666666667@note_on channel=0 note=36 velocity=80 time=0@note_on channel=0 note=48 velocity=80 time=0@note_on channel=0 note=36 velocity=0 time=0.23645833333333333@note_on channel=0 note=48 velocity=0 time=0@note_on channel=0 note=36 velocity=80 time=0.013541666666666667@note_on channel=0 note=48 velocity=80 time=0@note_on channel=0 note=36 velocity=0 time=0.11770833333333333@note_on channel=0 note=48 velocity=0 time=0@note_on channel=0 note=36 velocity=80 time=0.007291666666666667@note_on channel=0 note=48 velocity=80 time=0@note_on channel=0 note=36 velocity=0 time=0.11770833333333333@note_on channel=0 note=48 velocity=0 time=0@note_on channel=0 note=36 velocity=80 time=0.007291666666666667@note_on channel=0 note=48 velocity=80 time=0@note_on channel=0 note=82 velocity=0 time=0.21145833333333333@note_on channel=0 note=36 velocity=0 time=0.025@note_on channel=0 note=48 velocity=0 time=0@note_on channel=0 note=84 velocity=80 time=0.013541666666666667@note_on channel=0 note=38 velocity=80 time=0@note_on channel=0 note=50 velocity=80 time=0@note_on channel=0 note=38 velocity=0 time=0.23645833333333333@note_on channel=0 note=50 velocity=0 time=0@note_on channel=0 note=36 velocity=80 time=0.013541666666666667@note_on channel=0 note=48 velocity=80 time=0@note_on channel=0 note=84 velocity=0 time=0.22395833333333334@note_on channel=0 note=36 velocity=0 time=0.0125@note_on channel=0 note=48 velocity=0 time=0@note_on channel=0 note=43 velocity=80 time=0.013541666666666667@note_on channel=0 note=55 velocity=80 time=0@note_on channel=0 note=43 velocity=0 time=0.23645833333333333@note_on channel=0 note=55 velocity=0 time=0@note_on channel=0 note=43 velocity=80 time=0.013541666666666667@note_on channel=0 note=55 velocity=80 time=0@note_on channel=0 note=43 velocity=0 time=0.11770833333333333@note_on channel=0 note=55 velocity=0 time=0@note_on channel=0 note=43 velocity=80 time=0.007291666666666667@note_on channel=0 note=55 velocity=80 time=0@note_on channel=0 note=43 velocity=0 time=0.11770833333333333@note_on channel=0 note=55 velocity=0 time=0@note_on channel=0 note=91 velocity=80 time=0.007291666666666667@note_on channel=0 note=43 velocity=80 time=0@note_on channel=0 note=55 velocity=80 time=0@note_on channel=0 note=43 velocity=0 time=0.23645833333333333@note_on channel=0 note=55 velocity=0 time=0@note_on channel=0 note=39 velocity=80 time=0.013541666666666667@note_on channel=0 note=51 velocity=80 time=0@note_on channel=0 note=91 velocity=0 time=0.22395833333333334@note_on channel=0 note=39 velocity=0 time=0.0125@note_on channel=0 note=51 velocity=0 time=0@note_on channel=0 note=86 velocity=80 time=0.013541666666666667@note_on channel=0 note=39 velocity=80 time=0@note_on channel=0 note=51 velocity=80 time=0@note_on channel=0 note=39 velocity=0 time=0.11770833333333333@note_on channel=0 note=51 velocity=0 time=0@note_on channel=0 note=39 velocity=80 time=0.007291666666666667@note_on channel=0 note=51 velocity=80 time=0@note_on channel=0 note=39 velocity=0 time=0.11770833333333333@note_on channel=0 note=51 velocity=0 time=0@note_on channel=0 note=48 velocity=80 time=0.007291666666666667@note_on channel=0 note=60 velocity=80 time=0@note_on channel=0 note=86 velocity=0 time=0.22395833333333334@note_on channel=0 note=48 velocity=0 time=0.25@note_on channel=0 note=60 velocity=0 time=0@note_on channel=0 note=43 velocity=80 time=0.026041666666666668@note_on channel=0 note=55 velocity=80 time=0@note_on channel=0 note=89 velocity=80 time=0.25@note_on channel=0 note=43 velocity=0 time=0.22395833333333334@note_on channel=0 note=55 velocity=0 time=0@note_on channel=0 note=51 velocity=80 time=0.026041666666666668@note_on channel=0 note=63 velocity=80 time=0@note_on channel=0 note=89 velocity=0 time=0.4614583333333333@note_on channel=0 note=51 velocity=0 time=0.0125@note_on channel=0 note=63 velocity=0 time=0@note_on channel=0 note=88 velocity=80 time=0.026041666666666668@note_on channel=0 note=48 velocity=80 time=0@note_on channel=0 note=60 velocity=80 time=0@note_on channel=0 note=48 velocity=0 time=0.23645833333333333@note_on channel=0 note=60 velocity=0 time=0@note_on channel=0 note=46 velocity=80 time=0.013541666666666667@note_on channel=0 note=58 velocity=80 time=0@note_on channel=0 note=46 velocity=0 time=0.23645833333333333@note_on channel=0 note=58 velocity=0 time=0@note_on channel=0 note=48 velocity=80 time=0.013541666666666667@note_on channel=0 note=60 velocity=80 time=0@note_on channel=0 note=88 velocity=0 time=0.21145833333333333@note_on channel=0 note=48 velocity=0 time=0.025@note_on channel=0 note=60 velocity=0 time=0@note_on channel=0 note=84 velocity=80 time=0.013541666666666667@note_on channel=0 note=46 velocity=80 time=0@note_on channel=0 note=58 velocity=80 time=0@note_on channel=0 note=46 velocity=0 time=0.23645833333333333@note_on channel=0 note=58 velocity=0 time=0@note_on channel=0 note=45 velocity=80 time=0.013541666666666667@note_on channel=0 note=57 velocity=80 time=0@note_on channel=0 note=84 velocity=0 time=0.22395833333333334@note_on channel=0 note=45 velocity=0 time=0.0125@note_on channel=0 note=57 velocity=0 time=0@note_on channel=0 note=43 velocity=80 time=0.013541666666666667@note_on channel=0 note=55 velocity=80 time=0@note_on channel=0 note=43 velocity=0 time=0.23645833333333333@note_on channel=0 note=55 velocity=0 time=0@note_on channel=0 note=43 velocity=80 time=0.013541666666666667@note_on channel=0 note=55 velocity=80 time=0@note_on channel=0 note=43 velocity=0 time=0.11770833333333333@note_on channel=0 note=55 velocity=0 time=0@note_on channel=0 note=43 velocity=80 time=0.007291666666666667@note_on channel=0 note=55 velocity=80 time=0@note_on channel=0 note=43 velocity=0 time=0.11770833333333333@note_on channel=0 note=55 velocity=0 time=0@note_on channel=0 note=78 velocity=80 time=0.007291666666666667@note_on channel=0 note=43 velocity=80 time=0@note_on channel=0 note=55 velocity=80 time=0@note_on channel=0 note=43 velocity=0 time=0.23645833333333333@note_on channel=0 note=55 velocity=0 time=0@note_on channel=0 note=39 velocity=80 time=0.013541666666666667@note_on channel=0 note=51 velocity=80 time=0@note_on channel=0 note=78 velocity=0 time=0.22395833333333334@note_on channel=0 note=39 velocity=0 time=0.0125@note_on channel=0 note=51 velocity=0 time=0@note_on channel=0 note=79 velocity=80 time=0.013541666666666667@note_on channel=0 note=39 velocity=80 time=0@note_on channel=0 note=51 velocity=80 time=0@note_on channel=0 note=39 velocity=0 time=0.11770833333333333@note_on channel=0 note=51 velocity=0 time=0@note_on channel=0 note=39 velocity=80 time=0.007291666666666667@note_on channel=0 note=51 velocity=80 time=0@note_on channel=0 note=39 velocity=0 time=0.11770833333333333@note_on channel=0 note=51 velocity=0 time=0@note_on channel=0 note=39 velocity=80 time=0.007291666666666667@note_on channel=0 note=51 velocity=80 time=0@note_on channel=0 note=79 velocity=0 time=0.22395833333333334@note_on channel=0 note=39 velocity=0 time=0.0125@note_on channel=0 note=51 velocity=0 time=0@note_on channel=0 note=39 velocity=80 time=0.013541666666666667@note_on channel=0 note=51 velocity=80 time=0@note_on channel=0 note=39 velocity=0 time=0.23645833333333333@note_on channel=0 note=51 velocity=0 time=0@note_on channel=0 note=36 velocity=80 time=0.013541666666666667@note_on channel=0 note=48 velocity=80 time=0@note_on channel=0 note=36 velocity=0 time=0.23645833333333333@note_on channel=0 note=48 velocity=0 time=0@note_on channel=0 note=81 velocity=80 time=0.013541666666666667@note_on channel=0 note=81 velocity=0 time=0.7114583333333333@note_on channel=0 note=82 velocity=80 time=0.03854166666666667@note_on channel=0 note=36 velocity=80 time=0@note_on channel=0 note=48 velocity=80 time=0@note_on channel=0 note=36 velocity=0 time=0.23645833333333333@note_on channel=0 note=48 velocity=0 time=0@note_on channel=0 note=36 velocity=80 time=0.013541666666666667@note_on channel=0 note=48 velocity=80 time=0@note_on channel=0 note=36 velocity=0 time=0.11770833333333333@note_on channel=0 note=48 velocity=0 time=0@note_on channel=0 note=36 velocity=80 time=0.007291666666666667@note_on channel=0 note=48 velocity=80 time=0@note_on channel=0 note=36 velocity=0 time=0.11770833333333333@note_on channel=0 note=48 velocity=0 time=0@note_on channel=0 note=36 velocity=80 time=0.007291666666666667@note_on channel=0 note=48 velocity=80 time=0@note_on channel=0 note=82 velocity=0 time=0.21145833333333333@note_on channel=0 note=36 velocity=0 time=0.025@note_on channel=0 note=48 velocity=0 time=0@note_on channel=0 note=84 velocity=80 time=0.013541666666666667@note_on channel=0 note=38 velocity=80 time=0@note_on channel=0 note=50 velocity=80 time=0@note_on channel=0 note=38 velocity=0 time=0.23645833333333333@note_on channel=0 note=50 velocity=0 time=0@note_on channel=0 note=36 velocity=80 time=0.013541666666666667@note_on channel=0 note=48 velocity=80 time=0@note_on channel=0 note=84 velocity=0 time=0.22395833333333334@note_on channel=0 note=36 velocity=0 time=0.0125@note_on channel=0 note=48 velocity=0 time=0@note_on channel=0 note=43 velocity=80 time=0.013541666666666667@note_on channel=0 note=55 velocity=80 time=0@note_on channel=0 note=43 velocity=0 time=0.23645833333333333@note_on channel=0 note=55 velocity=0 time=0@note_on channel=0 note=43 velocity=80 time=0.013541666666666667@note_on channel=0 note=55 velocity=80 time=0@note_on channel=0 note=43 velocity=0 time=0.11770833333333333@note_on channel=0 note=55 velocity=0 time=0@note_on channel=0 note=43 velocity=80 time=0.007291666666666667@note_on channel=0 note=55 velocity=80 time=0@note_on channel=0 note=43 velocity=0 time=0.11770833333333333@note_on channel=0 note=55 velocity=0 time=0@note_on channel=0 note=86 velocity=80 time=0.007291666666666667@note_on channel=0 note=43 velocity=80 time=0@note_on channel=0 note=55 velocity=80 time=0@note_on channel=0 note=43 velocity=0 time=0.23645833333333333@note_on channel=0 note=55 velocity=0 time=0@note_on channel=0 note=39 velocity=80 time=0.013541666666666667@note_on channel=0 note=51 velocity=80 time=0@note_on channel=0 note=86 velocity=0 time=0.22395833333333334@note_on channel=0 note=39 velocity=0 time=0.0125@note_on channel=0 note=51 velocity=0 time=0@note_on channel=0 note=79 velocity=80 time=0.013541666666666667@note_on channel=0 note=39 velocity=80 time=0@note_on channel=0 note=51 velocity=80 time=0@note_on channel=0 note=39 velocity=0 time=0.11770833333333333@note_on channel=0 note=51 velocity=0 time=0@note_on channel=0 note=39 velocity=80 time=0.007291666666666667@note_on channel=0 note=51 velocity=80 time=0@note_on channel=0 note=39 velocity=0 time=0.11770833333333333@note_on channel=0 note=51 velocity=0 time=0@note_on channel=0 note=39 velocity=80 time=0.007291666666666667@note_on channel=0 note=51 velocity=80 time=0@note_on channel=0 note=79 velocity=0 time=0.22395833333333334@note_on channel=0 note=39 velocity=0 time=0.0125@note_on channel=0 note=51 velocity=0 time=0@note_on channel=0 note=39 velocity=80 time=0.013541666666666667@note_on channel=0 note=51 velocity=80 time=0@note_on channel=0 note=39 velocity=0 time=0.23645833333333333@note_on channel=0 note=51 velocity=0 time=0@note_on channel=0 note=36 velocity=80 time=0.013541666666666667@note_on channel=0 note=48 velocity=80 time=0@note_on channel=0 note=36 velocity=0 time=0.23645833333333333@note_on channel=0 note=48 velocity=0 time=0@note_on channel=0 note=82 velocity=80 time=0.013541666666666667@note_on channel=0 note=82 velocity=0 time=0.7114583333333333@note_on channel=0 note=81 velocity=80 time=0.03854166666666667@note_on channel=0 note=36 velocity=80 time=0@note_on channel=0 note=48 velocity=80 time=0@note_on channel=0 note=36 velocity=0 time=0.23645833333333333@note_on channel=0 note=48 velocity=0 time=0@note_on channel=0 note=36 velocity=80 time=0.013541666666666667@note_on channel=0 note=48 velocity=80 time=0@note_on channel=0 note=36 velocity=0 time=0.11770833333333333@note_on channel=0 note=48 velocity=0 time=0@note_on channel=0 note=36 velocity=80 time=0.007291666666666667@note_on channel=0 note=48 velocity=80 time=0@note_on channel=0 note=36 velocity=0 time=0.11770833333333333@note_on channel=0 note=48 velocity=0 time=0@note_on channel=0 note=36 velocity=80 time=0.007291666666666667@note_on channel=0 note=48 velocity=80 time=0@note_on channel=0 note=81 velocity=0 time=0.21145833333333333@note_on channel=0 note=36 velocity=0 time=0.025@note_on channel=0 note=48 velocity=0 time=0@note_on channel=0 note=38 velocity=80 time=0.013541666666666667@note_on channel=0 note=50 velocity=80 time=0@note_on channel=0 note=38 velocity=0 time=0.23645833333333333@note_on channel=0 note=50 velocity=0 time=0@note_on channel=0 note=36 velocity=80 time=0.013541666666666667@note_on channel=0 note=48 velocity=80 time=0@note_on channel=0 note=36 velocity=0 time=0.23645833333333333@note_on channel=0 note=48 velocity=0 time=0@note_on channel=0 note=43 velocity=80 time=0.013541666666666667@note_on channel=0 note=55 velocity=80 time=0@note_on channel=0 note=43 velocity=0 time=0.23645833333333333@note_on channel=0 note=55 velocity=0 time=0@note_on channel=0 note=43 velocity=80 time=0.013541666666666667@note_on channel=0 note=55 velocity=80 time=0@note_on channel=0 note=43 velocity=0 time=0.11770833333333333@note_on channel=0 note=55 velocity=0 time=0@note_on channel=0 note=43 velocity=80 time=0.007291666666666667@note_on channel=0 note=55 velocity=80 time=0@note_on channel=0 note=43 velocity=0 time=0.11770833333333333@note_on channel=0 note=55 velocity=0 time=0@note_on channel=0 note=78 velocity=80 time=0.007291666666666667@note_on channel=0 note=43 velocity=80 time=0@note_on channel=0 note=55 velocity=80 time=0@note_on channel=0 note=43 velocity=0 time=0.23645833333333333@note_on channel=0 note=55 velocity=0 time=0@note_on channel=0 note=39 velocity=80 time=0.013541666666666667@note_on channel=0 note=51 velocity=80 time=0@note_on channel=0 note=78 velocity=0 time=0.22395833333333334@note_on channel=0 note=39 velocity=0 time=0.0125@note_on channel=0 note=51 velocity=0 time=0@note_on channel=0 note=79 velocity=80 time=0.013541666666666667@note_on channel=0 note=39 velocity=80 time=0@note_on channel=0 note=51 velocity=80 time=0@note_on channel=0 note=39 velocity=0 time=0.11770833333333333@note_on channel=0 note=51 velocity=0 time=0@note_on channel=0 note=39 velocity=80 time=0.007291666666666667@note_on channel=0 note=51 velocity=80 time=0@note_on channel=0 note=39 velocity=0 time=0.11770833333333333@note_on channel=0 note=51 velocity=0 time=0@note_on channel=0 note=39 velocity=80 time=0.007291666666666667@note_on channel=0 note=51 velocity=80 time=0@note_on channel=0 note=79 velocity=0 time=0.22395833333333334@note_on channel=0 note=39 velocity=0 time=0.0125@note_on channel=0 note=51 velocity=0 time=0@note_on channel=0 note=39 velocity=80 time=0.013541666666666667@note_on channel=0 note=51 velocity=80 time=0@note_on channel=0 note=39 velocity=0 time=0.23645833333333333@note_on channel=0 note=51 velocity=0 time=0@note_on channel=0 note=36 velocity=80 time=0.013541666666666667@note_on channel=0 note=48 velocity=80 time=0@note_on channel=0 note=36 velocity=0 time=0.23645833333333333@note_on channel=0 note=48 velocity=0 time=0@note_on channel=0 note=81 velocity=80 time=0.013541666666666667@note_on channel=0 note=81 velocity=0 time=0.7114583333333333@note_on channel=0 note=82 velocity=80 time=0.03854166666666667@note_on channel=0 note=36 velocity=80 time=0@note_on channel=0 note=48 velocity=80 time=0@note_on channel=0 note=36 velocity=0 time=0.23645833333333333@note_on channel=0 note=48 velocity=0 time=0@note_on channel=0 note=36 velocity=80 time=0.013541666666666667@note_on channel=0 note=48 velocity=80 time=0@note_on channel=0 note=36 velocity=0 time=0.11770833333333333@note_on channel=0 note=48 velocity=0 time=0@note_on channel=0 note=36 velocity=80 time=0.007291666666666667@note_on channel=0 note=48 velocity=80 time=0@note_on channel=0 note=36 velocity=0 time=0.11770833333333333@note_on channel=0 note=48 velocity=0 time=0@note_on channel=0 note=36 velocity=80 time=0.007291666666666667@note_on channel=0 note=48 velocity=80 time=0@note_on channel=0 note=82 velocity=0 time=0.21145833333333333@note_on channel=0 note=36 velocity=0 time=0.025@note_on channel=0 note=48 velocity=0 time=0@note_on channel=0 note=84 velocity=80 time=0.013541666666666667@note_on channel=0 note=38 velocity=80 time=0@note_on channel=0 note=50 velocity=80 time=0@note_on channel=0 note=38 velocity=0 time=0.23645833333333333@note_on channel=0 note=50 velocity=0 time=0@note_on channel=0 note=36 velocity=80 time=0.013541666666666667@note_on channel=0 note=48 velocity=80 time=0@note_on channel=0 note=84 velocity=0 time=0.22395833333333334@note_on channel=0 note=36 velocity=0 time=0.0125@note_on channel=0 note=48 velocity=0 time=0@note_on channel=0 note=43 velocity=80 time=0.013541666666666667@note_on channel=0 note=55 velocity=80 time=0@note_on channel=0 note=43 velocity=0 time=0.23645833333333333@note_on channel=0 note=55 velocity=0 time=0@note_on channel=0 note=43 velocity=80 time=0.013541666666666667@note_on channel=0 note=55 velocity=80 time=0@note_on channel=0 note=43 velocity=0 time=0.11770833333333333@note_on channel=0 note=55 velocity=0 time=0@note_on channel=0 note=43 velocity=80 time=0.007291666666666667@note_on channel=0 note=55 velocity=80 time=0@note_on channel=0 note=43 velocity=0 time=0.11770833333333333@note_on channel=0 note=55 velocity=0 time=0@note_on channel=0 note=91 velocity=80 time=0.007291666666666667@note_on channel=0 note=43 velocity=80 time=0@note_on channel=0 note=55 velocity=80 time=0@note_on channel=0 note=43 velocity=0 time=0.23645833333333333@note_on channel=0 note=55 velocity=0 time=0@note_on channel=0 note=39 velocity=80 time=0.013541666666666667@note_on channel=0 note=51 velocity=80 time=0@note_on channel=0 note=91 velocity=0 time=0.22395833333333334@note_on channel=0 note=39 velocity=0 time=0.0125@note_on channel=0 note=51 velocity=0 time=0@note_on channel=0 note=86 velocity=80 time=0.013541666666666667@note_on channel=0 note=39 velocity=80 time=0@note_on channel=0 note=51 velocity=80 time=0@note_on channel=0 note=39 velocity=0 time=0.11770833333333333@note_on channel=0 note=51 velocity=0 time=0@note_on channel=0 note=39 velocity=80 time=0.007291666666666667@note_on channel=0 note=51 velocity=80 time=0@note_on channel=0 note=39 velocity=0 time=0.11770833333333333@note_on channel=0 note=51 velocity=0 time=0@note_on channel=0 note=48 velocity=80 time=0.007291666666666667@note_on channel=0 note=60 velocity=80 time=0@note_on channel=0 note=86 velocity=0 time=0.22395833333333334@note_on channel=0 note=48 velocity=0 time=0.25@note_on channel=0 note=60 velocity=0 time=0@note_on channel=0 note=43 velocity=80 time=0.026041666666666668@note_on channel=0 note=55 velocity=80 time=0@note_on channel=0 note=89 velocity=80 time=0.25@note_on channel=0 note=43 velocity=0 time=0.22395833333333334@note_on channel=0 note=55 velocity=0 time=0@note_on channel=0 note=51 velocity=80 time=0.026041666666666668@note_on channel=0 note=63 velocity=80 time=0@note_on channel=0 note=89 velocity=0 time=0.4614583333333333@note_on channel=0 note=51 velocity=0 time=0.0125@note_on channel=0 note=63 velocity=0 time=0@note_on channel=0 note=88 velocity=80 time=0.026041666666666668@note_on channel=0 note=48 velocity=80 time=0@note_on channel=0 note=60 velocity=80 time=0@note_on channel=0 note=48 velocity=0 time=0.23645833333333333@note_on channel=0 note=60 velocity=0 time=0@note_on channel=0 note=46 velocity=80 time=0.013541666666666667@note_on channel=0 note=58 velocity=80 time=0@note_on channel=0 note=46 velocity=0 time=0.23645833333333333@note_on channel=0 note=58 velocity=0 time=0@note_on channel=0 note=48 velocity=80 time=0.013541666666666667@note_on channel=0 note=60 velocity=80 time=0@note_on channel=0 note=88 velocity=0 time=0.21145833333333333@note_on channel=0 note=48 velocity=0 time=0.025@note_on channel=0 note=60 velocity=0 time=0@note_on channel=0 note=84 velocity=80 time=0.013541666666666667@note_on channel=0 note=46 velocity=80 time=0@note_on channel=0 note=58 velocity=80 time=0@note_on channel=0 note=46 velocity=0 time=0.23645833333333333@note_on channel=0 note=58 velocity=0 time=0@note_on channel=0 note=45 velocity=80 time=0.013541666666666667@note_on channel=0 note=57 velocity=80 time=0@note_on channel=0 note=84 velocity=0 time=0.22395833333333334@note_on channel=0 note=45 velocity=0 time=0.0125@note_on channel=0 note=57 velocity=0 time=0@<meta message time_signature numerator=4 denominator=4 clocks_per_click=24 notated_32nd_notes_per_beat=8 time=0.013541666666666667>@<meta message key_signature key='Bb' time=0>@<meta message set_tempo tempo=500000 time=0>@note_on channel=0 note=79 velocity=80 time=0@<meta message key_signature key='Bb' time=0>@note_on channel=0 note=43 velocity=80 time=0@note_on channel=0 note=79 velocity=0 time=0.23645833333333333@note_on channel=0 note=50 velocity=80 time=0.013541666666666667@note_on channel=0 note=43 velocity=0 time=0.4614583333333333@note_on channel=0 note=38 velocity=80 time=0.03854166666666667@note_on channel=0 note=50 velocity=0 time=0.21145833333333333@note_on channel=0 note=74 velocity=80 time=0.03854166666666667@note_on channel=0 note=38 velocity=0 time=0.22395833333333334@note_on channel=0 note=74 velocity=0 time=0.0125@note_on channel=0 note=55 velocity=80 time=0.013541666666666667@note_on channel=0 note=41 velocity=80 time=0@note_on channel=0 note=41 velocity=0 time=0.35520833333333335@note_on channel=0 note=42 velocity=80 time=0.019791666666666666@note_on channel=0 note=55 velocity=0 time=0.3364583333333333@note_on channel=0 note=42 velocity=0 time=0.01875@note_on channel=0 note=72 velocity=80 time=0.019791666666666666@note_on channel=0 note=43 velocity=80 time=0@note_on channel=0 note=72 velocity=0 time=0.23645833333333333@note_on channel=0 note=60 velocity=80 time=0.013541666666666667@note_on channel=0 note=43 velocity=0 time=0.4614583333333333@note_on channel=0 note=38 velocity=80 time=0.03854166666666667@note_on channel=0 note=60 velocity=0 time=0.21145833333333333@note_on channel=0 note=70 velocity=80 time=0.03854166666666667@note_on channel=0 note=38 velocity=0 time=0.22395833333333334@note_on channel=0 note=70 velocity=0 time=0.0125@note_on channel=0 note=62 velocity=80 time=0.013541666666666667@note_on channel=0 note=41 velocity=80 time=0@note_on channel=0 note=41 velocity=0 time=0.35520833333333335@note_on channel=0 note=42 velocity=80 time=0.019791666666666666@note_on channel=0 note=62 velocity=0 time=0.3364583333333333@note_on channel=0 note=42 velocity=0 time=0.01875@note_on channel=0 note=67 velocity=80 time=0.019791666666666666@note_on channel=0 note=43 velocity=80 time=0@note_on channel=0 note=67 velocity=0 time=0.23645833333333333@note_on channel=0 note=55 velocity=80 time=0.013541666666666667@note_on channel=0 note=43 velocity=0 time=0.4614583333333333@note_on channel=0 note=38 velocity=80 time=0.03854166666666667@note_on channel=0 note=55 velocity=0 time=0.21145833333333333@note_on channel=0 note=62 velocity=80 time=0.03854166666666667@note_on channel=0 note=38 velocity=0 time=0.22395833333333334@note_on channel=0 note=62 velocity=0 time=0.0125@note_on channel=0 note=41 velocity=80 time=0.013541666666666667@note_on channel=0 note=50 velocity=80 time=0@note_on channel=0 note=41 velocity=0 time=0.35520833333333335@note_on channel=0 note=42 velocity=80 time=0.019791666666666666@note_on channel=0 note=50 velocity=0 time=0.3364583333333333@note_on channel=0 note=42 velocity=0 time=0.01875@note_on channel=0 note=60 velocity=80 time=0.019791666666666666@note_on channel=0 note=43 velocity=80 time=0@note_on channel=0 note=60 velocity=0 time=0.23645833333333333@note_on channel=0 note=53 velocity=80 time=0.013541666666666667@note_on channel=0 note=43 velocity=0 time=0.4614583333333333@note_on channel=0 note=38 velocity=80 time=0.03854166666666667@note_on channel=0 note=53 velocity=0 time=0.21145833333333333@note_on channel=0 note=58 velocity=80 time=0.03854166666666667@note_on channel=0 note=38 velocity=0 time=0.22395833333333334@note_on channel=0 note=58 velocity=0 time=0.0125@note_on channel=0 note=41 velocity=80 time=0.013541666666666667@note_on channel=0 note=52 velocity=80 time=0@note_on channel=0 note=41 velocity=0 time=0.35520833333333335@note_on channel=0 note=42 velocity=80 time=0.019791666666666666@note_on channel=0 note=52 velocity=0 time=0.3364583333333333@note_on channel=0 note=42 velocity=0 time=0.01875@note_on channel=0 note=62 velocity=80 time=0.019791666666666666@note_on channel=0 note=43 velocity=80 time=0@note_on channel=0 note=62 velocity=0 time=0.23645833333333333@note_on channel=0 note=67 velocity=80 time=0.013541666666666667@note_on channel=0 note=67 velocity=0 time=0.23645833333333333@note_on channel=0 note=70 velocity=80 time=0.013541666666666667@note_on channel=0 note=43 velocity=0 time=0.21145833333333333@note_on channel=0 note=70 velocity=0 time=0.025@note_on channel=0 note=67 velocity=80 time=0.013541666666666667@note_on channel=0 note=38 velocity=80 time=0@note_on channel=0 note=67 velocity=0 time=0.23645833333333333@note_on channel=0 note=62 velocity=80 time=0.013541666666666667@note_on channel=0 note=38 velocity=0 time=0.22395833333333334@note_on channel=0 note=62 velocity=0 time=0.0125@note_on channel=0 note=67 velocity=80 time=0.013541666666666667@note_on channel=0 note=41 velocity=80 time=0@note_on channel=0 note=67 velocity=0 time=0.23645833333333333@note_on channel=0 note=70 velocity=80 time=0.013541666666666667@note_on channel=0 note=41 velocity=0 time=0.10520833333333333@note_on channel=0 note=42 velocity=80 time=0.019791666666666666@note_on channel=0 note=70 velocity=0 time=0.11145833333333333@note_on channel=0 note=67 velocity=80 time=0.013541666666666667@note_on channel=0 note=42 velocity=0 time=0.23020833333333332@note_on channel=0 note=67 velocity=0 time=0.00625@note_on channel=0 note=62 velocity=80 time=0.013541666666666667@note_on channel=0 note=43 velocity=80 time=0@note_on channel=0 note=62 velocity=0 time=0.23645833333333333@note_on channel=0 note=67 velocity=80 time=0.013541666666666667@note_on channel=0 note=67 velocity=0 time=0.23645833333333333@note_on channel=0 note=69 velocity=80 time=0.013541666666666667@note_on channel=0 note=43 velocity=0 time=0.21145833333333333@note_on channel=0 note=69 velocity=0 time=0.025@note_on channel=0 note=67 velocity=80 time=0.013541666666666667@note_on channel=0 note=38 velocity=80 time=0@note_on channel=0 note=67 velocity=0 time=0.23645833333333333@note_on channel=0 note=62 velocity=80 time=0.013541666666666667@note_on channel=0 note=38 velocity=0 time=0.22395833333333334@note_on channel=0 note=62 velocity=0 time=0.0125@note_on channel=0 note=67 velocity=80 time=0.013541666666666667@note_on channel=0 note=41 velocity=80 time=0@note_on channel=0 note=67 velocity=0 time=0.23645833333333333@note_on channel=0 note=69 velocity=80 time=0.013541666666666667@note_on channel=0 note=41 velocity=0 time=0.10520833333333333@note_on channel=0 note=42 velocity=80 time=0.019791666666666666@note_on channel=0 note=69 velocity=0 time=0.11145833333333333@note_on channel=0 note=67 velocity=80 time=0.013541666666666667@note_on channel=0 note=42 velocity=0 time=0.23020833333333332@note_on channel=0 note=67 velocity=0 time=0.00625@note_on channel=0 note=58 velocity=80 time=0.013541666666666667@note_on channel=0 note=43 velocity=80 time=0@note_on channel=0 note=58 velocity=0 time=0.23645833333333333@note_on channel=0 note=62 velocity=80 time=0.013541666666666667@note_on channel=0 note=62 velocity=0 time=0.23645833333333333@note_on channel=0 note=67 velocity=80 time=0.013541666666666667@note_on channel=0 note=43 velocity=0 time=0.21145833333333333@note_on channel=0 note=67 velocity=0 time=0.025@note_on channel=0 note=62 velocity=80 time=0.013541666666666667@note_on channel=0 note=38 velocity=80 time=0@note_on channel=0 note=62 velocity=0 time=0.23645833333333333@note_on channel=0 note=58 velocity=80 time=0.013541666666666667@note_on channel=0 note=38 velocity=0 time=0.22395833333333334@note_on channel=0 note=58 velocity=0 time=0.0125@note_on channel=0 note=62 velocity=80 time=0.013541666666666667@note_on channel=0 note=41 velocity=80 time=0@note_on channel=0 note=62 velocity=0 time=0.23645833333333333@note_on channel=0 note=67 velocity=80 time=0.013541666666666667@note_on channel=0 note=41 velocity=0 time=0.10520833333333333@note_on channel=0 note=42 velocity=80 time=0.019791666666666666@note_on channel=0 note=67 velocity=0 time=0.11145833333333333@note_on channel=0 note=62 velocity=80 time=0.013541666666666667@note_on channel=0 note=42 velocity=0 time=0.23020833333333332@note_on channel=0 note=62 velocity=0 time=0.00625@note_on channel=0 note=55 velocity=80 time=0.013541666666666667@note_on channel=0 note=43 velocity=80 time=0@note_on channel=0 note=55 velocity=0 time=0.23645833333333333@note_on channel=0 note=62 velocity=80 time=0.013541666666666667@note_on channel=0 note=62 velocity=0 time=0.23645833333333333@note_on channel=0 note=65 velocity=80 time=0.013541666666666667@note_on channel=0 note=43 velocity=0 time=0.21145833333333333@note_on channel=0 note=65 velocity=0 time=0.025@note_on channel=0 note=62 velocity=80 time=0.013541666666666667@note_on channel=0 note=38 velocity=80 time=0@note_on channel=0 note=62 velocity=0 time=0.23645833333333333@note_on channel=0 note=55 velocity=80 time=0.013541666666666667@note_on channel=0 note=38 velocity=0 time=0.22395833333333334@note_on channel=0 note=55 velocity=0 time=0.0125@note_on channel=0 note=62 velocity=80 time=0.013541666666666667@note_on channel=0 note=41 velocity=80 time=0@note_on channel=0 note=62 velocity=0 time=0.23645833333333333@note_on channel=0 note=64 velocity=80 time=0.013541666666666667@note_on channel=0 note=41 velocity=0 time=0.10520833333333333@note_on channel=0 note=42 velocity=80 time=0.019791666666666666@note_on channel=0 note=64 velocity=0 time=0.11145833333333333@note_on channel=0 note=62 velocity=80 time=0.013541666666666667@note_on channel=0 note=42 velocity=0 time=0.23020833333333332@note_on channel=0 note=62 velocity=0 time=0.00625@note_on channel=0 note=43 velocity=80 time=0.013541666666666667@note_on channel=0 note=67 velocity=80 time=0.25@note_on channel=0 note=67 velocity=0 time=0.11770833333333333@note_on channel=0 note=67 velocity=80 time=0.007291666666666667@note_on channel=0 note=67 velocity=0 time=0.11770833333333333@note_on channel=0 note=67 velocity=80 time=0.007291666666666667@note_on channel=0 note=67 velocity=0 time=0.11770833333333333@note_on channel=0 note=67 velocity=80 time=0.007291666666666667@note_on channel=0 note=43 velocity=0 time=0.08645833333333333@note_on channel=0 note=67 velocity=0 time=0.03125@note_on channel=0 note=65 velocity=80 time=0.007291666666666667@note_on channel=0 note=38 velocity=80 time=0@note_on channel=0 note=65 velocity=0 time=0.11770833333333333@note_on channel=0 note=65 velocity=80 time=0.007291666666666667@note_on channel=0 note=65 velocity=0 time=0.11770833333333333@note_on channel=0 note=67 velocity=80 time=0.007291666666666667@note_on channel=0 note=67 velocity=0 time=0.12395833333333334@note_on channel=0 note=38 velocity=0 time=0.1@note_on channel=0 note=65 velocity=80 time=0.026041666666666668@note_on channel=0 note=41 velocity=80 time=0@note_on channel=0 note=65 velocity=0 time=0.12395833333333334@note_on channel=0 note=67 velocity=80 time=0.12604166666666666@note_on channel=0 note=41 velocity=0 time=0.10520833333333333@note_on channel=0 note=67 velocity=0 time=0.0125@note_on channel=0 note=65 velocity=80 time=0.007291666666666667@note_on channel=0 note=42 velocity=80 time=0@note_on channel=0 note=65 velocity=0 time=0.12395833333333334@note_on channel=0 note=67 velocity=80 time=0.12604166666666666@note_on channel=0 note=42 velocity=0 time=0.10520833333333333@note_on channel=0 note=67 velocity=0 time=0.0125@note_on channel=0 note=43 velocity=80 time=0.007291666666666667@note_on channel=0 note=70 velocity=80 time=0.125@note_on channel=0 note=70 velocity=0 time=0.11770833333333333@note_on channel=0 note=72 velocity=80 time=0.007291666666666667@note_on channel=0 note=72 velocity=0 time=0.11770833333333333@note_on channel=0 note=73 velocity=80 time=0.007291666666666667@note_on channel=0 note=73 velocity=0 time=0.11770833333333333@note_on channel=0 note=72 velocity=80 time=0.007291666666666667@note_on channel=0 note=72 velocity=0 time=0.11770833333333333@note_on channel=0 note=70 velocity=80 time=0.007291666666666667@note_on channel=0 note=43 velocity=0 time=0.08645833333333333@note_on channel=0 note=70 velocity=0 time=0.03125@note_on channel=0 note=65 velocity=80 time=0.007291666666666667@note_on channel=0 note=38 velocity=80 time=0@note_on channel=0 note=65 velocity=0 time=0.12395833333333334@note_on channel=0 note=67 velocity=80 time=0.12604166666666666@note_on channel=0 note=67 velocity=0 time=0.12395833333333334@note_on channel=0 note=38 velocity=0 time=0.1@note_on channel=0 note=65 velocity=80 time=0.026041666666666668@note_on channel=0 note=41 velocity=80 time=0@note_on channel=0 note=65 velocity=0 time=0.12395833333333334@note_on channel=0 note=67 velocity=80 time=0.12604166666666666@note_on channel=0 note=41 velocity=0 time=0.10520833333333333@note_on channel=0 note=67 velocity=0 time=0.0125@note_on channel=0 note=65 velocity=80 time=0.007291666666666667@note_on channel=0 note=42 velocity=80 time=0@note_on channel=0 note=65 velocity=0 time=0.12395833333333334@note_on channel=0 note=67 velocity=80 time=0.12604166666666666@note_on channel=0 note=42 velocity=0 time=0.10520833333333333@note_on channel=0 note=67 velocity=0 time=0.0125@note_on channel=0 note=43 velocity=80 time=0.007291666666666667@note_on channel=0 note=74 velocity=80 time=0.125@note_on channel=0 note=74 velocity=0 time=0.11770833333333333@note_on channel=0 note=77 velocity=80 time=0.007291666666666667@note_on channel=0 note=77 velocity=0 time=0.11770833333333333@note_on channel=0 note=78 velocity=80 time=0.007291666666666667@note_on channel=0 note=78 velocity=0 time=0.11770833333333333@note_on channel=0 note=79 velocity=80 time=0.007291666666666667@note_on channel=0 note=79 velocity=0 time=0.12395833333333334@note_on channel=0 note=43 velocity=0 time=0.0875@note_on channel=0 note=82 velocity=80 time=0.03854166666666667@note_on channel=0 note=38 velocity=80 time=0@note_on channel=0 note=82 velocity=0 time=0.12395833333333334@note_on channel=0 note=79 velocity=80 time=0.12604166666666666@note_on channel=0 note=79 velocity=0 time=0.11770833333333333@note_on channel=0 note=74 velocity=80 time=0.007291666666666667@note_on channel=0 note=38 velocity=0 time=0.09895833333333333@note_on channel=0 note=74 velocity=0 time=0.025@note_on channel=0 note=41 velocity=80 time=0.0010416666666666667@note_on channel=0 note=79 velocity=80 time=0.125@note_on channel=0 note=79 velocity=0 time=0.12395833333333334@note_on channel=0 note=41 velocity=0 time=0.10625@note_on channel=0 note=82 velocity=80 time=0.019791666666666666@note_on channel=0 note=42 velocity=80 time=0@note_on channel=0 note=82 velocity=0 time=0.11770833333333333@note_on channel=0 note=79 velocity=80 time=0.007291666666666667@note_on channel=0 note=79 velocity=0 time=0.11770833333333333@note_on channel=0 note=74 velocity=80 time=0.007291666666666667@note_on channel=0 note=42 velocity=0 time=0.10520833333333333@note_on channel=0 note=74 velocity=0 time=0.0125@note_on channel=0 note=43 velocity=80 time=0.007291666666666667@note_on channel=0 note=82 velocity=80 time=0.125@note_on channel=0 note=82 velocity=0 time=0.11770833333333333@note_on channel=0 note=81 velocity=80 time=0.007291666666666667@note_on channel=0 note=81 velocity=0 time=0.11770833333333333@note_on channel=0 note=79 velocity=80 time=0.007291666666666667@note_on channel=0 note=79 velocity=0 time=0.11770833333333333@note_on channel=0 note=74 velocity=80 time=0.007291666666666667@note_on channel=0 note=74 velocity=0 time=0.11770833333333333@note_on channel=0 note=72 velocity=80 time=0.007291666666666667@note_on channel=0 note=43 velocity=0 time=0.08645833333333333@note_on channel=0 note=72 velocity=0 time=0.03125@note_on channel=0 note=70 velocity=80 time=0.007291666666666667@note_on channel=0 note=38 velocity=80 time=0@note_on channel=0 note=70 velocity=0 time=0.11770833333333333@note_on channel=0 note=69 velocity=80 time=0.007291666666666667@note_on channel=0 note=69 velocity=0 time=0.11770833333333333@note_on channel=0 note=74 velocity=80 time=0.007291666666666667@note_on channel=0 note=74 velocity=0 time=0.12395833333333334@note_on channel=0 note=38 velocity=0 time=0.1@note_on channel=0 note=72 velocity=80 time=0.026041666666666668@note_on channel=0 note=41 velocity=80 time=0@note_on channel=0 note=72 velocity=0 time=0.12395833333333334@note_on channel=0 note=74 velocity=80 time=0.12604166666666666@note_on channel=0 note=41 velocity=0 time=0.10520833333333333@note_on channel=0 note=74 velocity=0 time=0.0125@note_on channel=0 note=75 velocity=80 time=0.007291666666666667@note_on channel=0 note=42 velocity=80 time=0@note_on channel=0 note=75 velocity=0 time=0.12395833333333334@note_on channel=0 note=74 velocity=80 time=0.12604166666666666@note_on channel=0 note=42 velocity=0 time=0.10520833333333333@note_on channel=0 note=74 velocity=0 time=0.0125@note_on channel=0 note=79 velocity=80 time=0.007291666666666667@note_on channel=0 note=31 velocity=80 time=0@note_on channel=0 note=43 velocity=80 time=0@note_on channel=0 note=79 velocity=0 time=0.23645833333333333@note_on channel=0 note=50 velocity=80 time=0.013541666666666667@note_on channel=0 note=31 velocity=0 time=0.4614583333333333@note_on channel=0 note=43 velocity=0 time=0@note_on channel=0 note=26 velocity=80 time=0.03854166666666667@note_on channel=0 note=38 velocity=80 time=0@note_on channel=0 note=50 velocity=0 time=0.21145833333333333@note_on channel=0 note=74 velocity=80 time=0.03854166666666667@note_on channel=0 note=26 velocity=0 time=0.22395833333333334@note_on channel=0 note=38 velocity=0 time=0@note_on channel=0 note=74 velocity=0 time=0.0125@note_on channel=0 note=55 velocity=80 time=0.013541666666666667@note_on channel=0 note=29 velocity=80 time=0@note_on channel=0 note=41 velocity=80 time=0@note_on channel=0 note=29 velocity=0 time=0.35520833333333335@note_on channel=0 note=41 velocity=0 time=0@note_on channel=0 note=30 velocity=80 time=0.019791666666666666@note_on channel=0 note=42 velocity=80 time=0@note_on channel=0 note=55 velocity=0 time=0.3364583333333333@note_on channel=0 note=30 velocity=0 time=0.01875@note_on channel=0 note=42 velocity=0 time=0@note_on channel=0 note=72 velocity=80 time=0.019791666666666666@note_on channel=0 note=31 velocity=80 time=0@note_on channel=0 note=43 velocity=80 time=0@note_on channel=0 note=72 velocity=0 time=0.23645833333333333@note_on channel=0 note=60 velocity=80 time=0.013541666666666667@note_on channel=0 note=31 velocity=0 time=0.4614583333333333@note_on channel=0 note=43 velocity=0 time=0@note_on channel=0 note=26 velocity=80 time=0.03854166666666667@note_on channel=0 note=38 velocity=80 time=0@note_on channel=0 note=60 velocity=0 time=0.21145833333333333@note_on channel=0 note=70 velocity=80 time=0.03854166666666667@note_on channel=0 note=26 velocity=0 time=0.22395833333333334@note_on channel=0 note=38 velocity=0 time=0@note_on channel=0 note=70 velocity=0 time=0.0125@note_on channel=0 note=62 velocity=80 time=0.013541666666666667@note_on channel=0 note=29 velocity=80 time=0@note_on channel=0 note=41 velocity=80 time=0@note_on channel=0 note=29 velocity=0 time=0.35520833333333335@note_on channel=0 note=41 velocity=0 time=0@note_on channel=0 note=30 velocity=80 time=0.019791666666666666@note_on channel=0 note=42 velocity=80 time=0@note_on channel=0 note=62 velocity=0 time=0.3364583333333333@note_on channel=0 note=30 velocity=0 time=0.01875@note_on channel=0 note=42 velocity=0 time=0@note_on channel=0 note=67 velocity=80 time=0.019791666666666666@note_on channel=0 note=31 velocity=80 time=0@note_on channel=0 note=43 velocity=80 time=0@note_on channel=0 note=67 velocity=0 time=0.23645833333333333@note_on channel=0 note=55 velocity=80 time=0.013541666666666667@note_on channel=0 note=31 velocity=0 time=0.4614583333333333@note_on channel=0 note=43 velocity=0 time=0@note_on channel=0 note=26 velocity=80 time=0.03854166666666667@note_on channel=0 note=38 velocity=80 time=0@note_on channel=0 note=55 velocity=0 time=0.21145833333333333@note_on channel=0 note=62 velocity=80 time=0.03854166666666667@note_on channel=0 note=26 velocity=0 time=0.22395833333333334@note_on channel=0 note=38 velocity=0 time=0@note_on channel=0 note=62 velocity=0 time=0.0125@note_on channel=0 note=29 velocity=80 time=0.013541666666666667@note_on channel=0 note=41 velocity=80 time=0@note_on channel=0 note=50 velocity=80 time=0@note_on channel=0 note=29 velocity=0 time=0.35520833333333335@note_on channel=0 note=41 velocity=0 time=0@note_on channel=0 note=30 velocity=80 time=0.019791666666666666@note_on channel=0 note=42 velocity=80 time=0@note_on channel=0 note=50 velocity=0 time=0.3364583333333333@note_on channel=0 note=30 velocity=0 time=0.01875@note_on channel=0 note=42 velocity=0 time=0@note_on channel=0 note=60 velocity=80 time=0.019791666666666666@note_on channel=0 note=31 velocity=80 time=0@note_on channel=0 note=43 velocity=80 time=0@note_on channel=0 note=60 velocity=0 time=0.23645833333333333@note_on channel=0 note=53 velocity=80 time=0.013541666666666667@note_on channel=0 note=31 velocity=0 time=0.4614583333333333@note_on channel=0 note=43 velocity=0 time=0@note_on channel=0 note=26 velocity=80 time=0.03854166666666667@note_on channel=0 note=38 velocity=80 time=0@note_on channel=0 note=53 velocity=0 time=0.21145833333333333@note_on channel=0 note=58 velocity=80 time=0.03854166666666667@note_on channel=0 note=26 velocity=0 time=0.22395833333333334@note_on channel=0 note=38 velocity=0 time=0@note_on channel=0 note=58 velocity=0 time=0.0125@note_on channel=0 note=29 velocity=80 time=0.013541666666666667@note_on channel=0 note=41 velocity=80 time=0@note_on channel=0 note=52 velocity=80 time=0@note_on channel=0 note=29 velocity=0 time=0.35520833333333335@note_on channel=0 note=41 velocity=0 time=0@note_on channel=0 note=30 velocity=80 time=0.019791666666666666@note_on channel=0 note=42 velocity=80 time=0@note_on channel=0 note=52 velocity=0 time=0.3364583333333333@note_on channel=0 note=30 velocity=0 time=0.01875@note_on channel=0 note=42 velocity=0 time=0@note_on channel=0 note=67 velocity=80 time=0.019791666666666666@note_on channel=0 note=31 velocity=80 time=0@note_on channel=0 note=43 velocity=80 time=0@note_on channel=0 note=67 velocity=0 time=0.11770833333333333@note_on channel=0 note=62 velocity=80 time=0.007291666666666667@note_on channel=0 note=62 velocity=0 time=0.11770833333333333@note_on channel=0 note=70 velocity=80 time=0.007291666666666667@note_on channel=0 note=70 velocity=0 time=0.11770833333333333@note_on channel=0 note=69 velocity=80 time=0.007291666666666667@note_on channel=0 note=69 velocity=0 time=0.11770833333333333@note_on channel=0 note=67 velocity=80 time=0.007291666666666667@note_on channel=0 note=67 velocity=0 time=0.11770833333333333@note_on channel=0 note=62 velocity=80 time=0.007291666666666667@note_on channel=0 note=31 velocity=0 time=0.08645833333333333@note_on channel=0 note=43 velocity=0 time=0@note_on channel=0 note=62 velocity=0 time=0.03125@note_on channel=0 note=70 velocity=80 time=0.007291666666666667@note_on channel=0 note=26 velocity=80 time=0@note_on channel=0 note=38 velocity=80 time=0@note_on channel=0 note=70 velocity=0 time=0.11770833333333333@note_on channel=0 note=69 velocity=80 time=0.007291666666666667@note_on channel=0 note=69 velocity=0 time=0.11770833333333333@note_on channel=0 note=67 velocity=80 time=0.007291666666666667@note_on channel=0 note=67 velocity=0 time=0.11770833333333333@note_on channel=0 note=62 velocity=80 time=0.007291666666666667@note_on channel=0 note=26 velocity=0 time=0.09895833333333333@note_on channel=0 note=38 velocity=0 time=0@note_on channel=0 note=62 velocity=0 time=0.01875@note_on channel=0 note=70 velocity=80 time=0.007291666666666667@note_on channel=0 note=29 velocity=80 time=0@note_on channel=0 note=41 velocity=80 time=0@note_on channel=0 note=70 velocity=0 time=0.11770833333333333@note_on channel=0 note=69 velocity=80 time=0.007291666666666667@note_on channel=0 note=69 velocity=0 time=0.11770833333333333@note_on channel=0 note=67 velocity=80 time=0.007291666666666667@note_on channel=0 note=29 velocity=0 time=0.10520833333333333@note_on channel=0 note=41 velocity=0 time=0@note_on channel=0 note=67 velocity=0 time=0.0125@note_on channel=0 note=62 velocity=80 time=0.007291666666666667@note_on channel=0 note=30 velocity=80 time=0@note_on channel=0 note=42 velocity=80 time=0@note_on channel=0 note=62 velocity=0 time=0.11770833333333333@note_on channel=0 note=70 velocity=80 time=0.007291666666666667@note_on channel=0 note=70 velocity=0 time=0.11770833333333333@note_on channel=0 note=69 velocity=80 time=0.007291666666666667@note_on channel=0 note=30 velocity=0 time=0.10520833333333333@note_on channel=0 note=42 velocity=0 time=0@note_on channel=0 note=69 velocity=0 time=0.0125@note_on channel=0 note=67 velocity=80 time=0.007291666666666667@note_on channel=0 note=31 velocity=80 time=0@note_on channel=0 note=43 velocity=80 time=0@note_on channel=0 note=67 velocity=0 time=0.11770833333333333@note_on channel=0 note=62 velocity=80 time=0.007291666666666667@note_on channel=0 note=62 velocity=0 time=0.11770833333333333@note_on channel=0 note=70 velocity=80 time=0.007291666666666667@note_on channel=0 note=70 velocity=0 time=0.11770833333333333@note_on channel=0 note=69 velocity=80 time=0.007291666666666667@note_on channel=0 note=69 velocity=0 time=0.11770833333333333@note_on channel=0 note=67 velocity=80 time=0.007291666666666667@note_on channel=0 note=67 velocity=0 time=0.11770833333333333@note_on channel=0 note=62 velocity=80 time=0.007291666666666667@note_on channel=0 note=31 velocity=0 time=0.08645833333333333@note_on channel=0 note=43 velocity=0 time=0@note_on channel=0 note=62 velocity=0 time=0.03125@note_on channel=0 note=70 velocity=80 time=0.007291666666666667@note_on channel=0 note=26 velocity=80 time=0@note_on channel=0 note=38 velocity=80 time=0@note_on channel=0 note=70 velocity=0 time=0.11770833333333333@note_on channel=0 note=69 velocity=80 time=0.007291666666666667@note_on channel=0 note=69 velocity=0 time=0.11770833333333333@note_on channel=0 note=67 velocity=80 time=0.007291666666666667@note_on channel=0 note=67 velocity=0 time=0.11770833333333333@note_on channel=0 note=62 velocity=80 time=0.007291666666666667@note_on channel=0 note=26 velocity=0 time=0.09895833333333333@note_on channel=0 note=38 velocity=0 time=0@note_on channel=0 note=62 velocity=0 time=0.01875@note_on channel=0 note=70 velocity=80 time=0.007291666666666667@note_on channel=0 note=29 velocity=80 time=0@note_on channel=0 note=41 velocity=80 time=0@note_on channel=0 note=70 velocity=0 time=0.11770833333333333@note_on channel=0 note=69 velocity=80 time=0.007291666666666667@note_on channel=0 note=69 velocity=0 time=0.11770833333333333@note_on channel=0 note=67 velocity=80 time=0.007291666666666667@note_on channel=0 note=29 velocity=0 time=0.10520833333333333@note_on channel=0 note=41 velocity=0 time=0@note_on channel=0 note=67 velocity=0 time=0.0125@note_on channel=0 note=62 velocity=80 time=0.007291666666666667@note_on channel=0 note=30 velocity=80 time=0@note_on channel=0 note=42 velocity=80 time=0@note_on channel=0 note=62 velocity=0 time=0.11770833333333333@note_on channel=0 note=70 velocity=80 time=0.007291666666666667@note_on channel=0 note=70 velocity=0 time=0.11770833333333333@note_on channel=0 note=69 velocity=80 time=0.007291666666666667@note_on channel=0 note=30 velocity=0 time=0.10520833333333333@note_on channel=0 note=42 velocity=0 time=0@note_on channel=0 note=69 velocity=0 time=0.0125@note_on channel=0 note=79 velocity=80 time=0.007291666666666667@note_on channel=0 note=31 velocity=80 time=0@note_on channel=0 note=43 velocity=80 time=0@note_on channel=0 note=79 velocity=0 time=0.11770833333333333@note_on channel=0 note=74 velocity=80 time=0.007291666666666667@note_on channel=0 note=74 velocity=0 time=0.11770833333333333@note_on channel=0 note=70 velocity=80 time=0.007291666666666667@note_on channel=0 note=70 velocity=0 time=0.11770833333333333@note_on channel=0 note=67 velocity=80 time=0.007291666666666667@note_on channel=0 note=67 velocity=0 time=0.11770833333333333@note_on channel=0 note=79 velocity=80 time=0.007291666666666667@note_on channel=0 note=79 velocity=0 time=0.11770833333333333@note_on channel=0 note=74 velocity=80 time=0.007291666666666667@note_on channel=0 note=31 velocity=0 time=0.08645833333333333@note_on channel=0 note=43 velocity=0 time=0@note_on channel=0 note=74 velocity=0 time=0.03125@note_on channel=0 note=70 velocity=80 time=0.007291666666666667@note_on channel=0 note=26 velocity=80 time=0@note_on channel=0 note=38 velocity=80 time=0@note_on channel=0 note=70 velocity=0 time=0.11770833333333333@note_on channel=0 note=67 velocity=80 time=0.007291666666666667@note_on channel=0 note=67 velocity=0 time=0.11770833333333333@note_on channel=0 note=79 velocity=80 time=0.007291666666666667@note_on channel=0 note=79 velocity=0 time=0.11770833333333333@note_on channel=0 note=74 velocity=80 time=0.007291666666666667@note_on channel=0 note=26 velocity=0 time=0.09895833333333333@note_on channel=0 note=38 velocity=0 time=0@note_on channel=0 note=74 velocity=0 time=0.01875@note_on channel=0 note=70 velocity=80 time=0.007291666666666667@note_on channel=0 note=29 velocity=80 time=0@note_on channel=0 note=41 velocity=80 time=0@note_on channel=0 note=70 velocity=0 time=0.11770833333333333@note_on channel=0 note=67 velocity=80 time=0.007291666666666667@note_on channel=0 note=67 velocity=0 time=0.11770833333333333@note_on channel=0 note=79 velocity=80 time=0.007291666666666667@note_on channel=0 note=29 velocity=0 time=0.10520833333333333@note_on channel=0 note=41 velocity=0 time=0@note_on channel=0 note=79 velocity=0 time=0.0125@note_on channel=0 note=74 velocity=80 time=0.007291666666666667@note_on channel=0 note=30 velocity=80 time=0@note_on channel=0 note=42 velocity=80 time=0@note_on channel=0 note=74 velocity=0 time=0.11770833333333333@note_on channel=0 note=70 velocity=80 time=0.007291666666666667@note_on channel=0 note=70 velocity=0 time=0.11770833333333333@note_on channel=0 note=67 velocity=80 time=0.007291666666666667@note_on channel=0 note=30 velocity=0 time=0.10520833333333333@note_on channel=0 note=42 velocity=0 time=0@note_on channel=0 note=67 velocity=0 time=0.0125@note_on channel=0 note=79 velocity=80 time=0.007291666666666667@note_on channel=0 note=31 velocity=80 time=0@note_on channel=0 note=43 velocity=80 time=0@note_on channel=0 note=79 velocity=0 time=0.11770833333333333@note_on channel=0 note=74 velocity=80 time=0.007291666666666667@note_on channel=0 note=74 velocity=0 time=0.11770833333333333@note_on channel=0 note=70 velocity=80 time=0.007291666666666667@note_on channel=0 note=70 velocity=0 time=0.11770833333333333@note_on channel=0 note=67 velocity=80 time=0.007291666666666667@note_on channel=0 note=67 velocity=0 time=0.11770833333333333@note_on channel=0 note=79 velocity=80 time=0.007291666666666667@note_on channel=0 note=79 velocity=0 time=0.11770833333333333@note_on channel=0 note=74 velocity=80 time=0.007291666666666667@note_on channel=0 note=31 velocity=0 time=0.08645833333333333@note_on channel=0 note=43 velocity=0 time=0@note_on channel=0 note=74 velocity=0 time=0.03125@note_on channel=0 note=70 velocity=80 time=0.007291666666666667@note_on channel=0 note=26 velocity=80 time=0@note_on channel=0 note=38 velocity=80 time=0@note_on channel=0 note=70 velocity=0 time=0.11770833333333333@note_on channel=0 note=67 velocity=80 time=0.007291666666666667@note_on channel=0 note=67 velocity=0 time=0.11770833333333333@note_on channel=0 note=67 velocity=80 time=0.007291666666666667@note_on channel=0 note=26 velocity=0 time=0.22395833333333334@note_on channel=0 note=38 velocity=0 time=0@note_on channel=0 note=67 velocity=0 time=0.0125@note_on channel=0 note=69 velocity=80 time=0.013541666666666667@note_on channel=0 note=29 velocity=80 time=0@note_on channel=0 note=41 velocity=80 time=0@note_on channel=0 note=69 velocity=0 time=0.23645833333333333@note_on channel=0 note=70 velocity=80 time=0.013541666666666667@note_on channel=0 note=29 velocity=0 time=0.10520833333333333@note_on channel=0 note=41 velocity=0 time=0@note_on channel=0 note=30 velocity=80 time=0.019791666666666666@note_on channel=0 note=42 velocity=80 time=0@note_on channel=0 note=70 velocity=0 time=0.11145833333333333@note_on channel=0 note=74 velocity=80 time=0.013541666666666667@note_on channel=0 note=30 velocity=0 time=0.23020833333333332@note_on channel=0 note=42 velocity=0 time=0@note_on channel=0 note=74 velocity=0 time=0.00625@note_on channel=0 note=58 velocity=80 time=0.013541666666666667@note_on channel=0 note=70 velocity=80 time=0@note_on channel=0 note=34 velocity=80 time=0@note_on channel=0 note=46 velocity=80 time=0@note_on channel=0 note=58 velocity=0 time=0.11770833333333333@note_on channel=0 note=70 velocity=0 time=0@note_on channel=0 note=34 velocity=0 time=0@note_on channel=0 note=46 velocity=0 time=0@note_on channel=0 note=58 velocity=80 time=0.007291666666666667@note_on channel=0 note=70 velocity=80 time=0@note_on channel=0 note=34 velocity=80 time=0@note_on channel=0 note=46 velocity=80 time=0@note_on channel=0 note=58 velocity=0 time=0.11770833333333333@note_on channel=0 note=70 velocity=0 time=0@note_on channel=0 note=34 velocity=0 time=0@note_on channel=0 note=46 velocity=0 time=0@note_on channel=0 note=58 velocity=80 time=0.007291666666666667@note_on channel=0 note=70 velocity=80 time=0@note_on channel=0 note=34 velocity=80 time=0@note_on channel=0 note=46 velocity=80 time=0@note_on channel=0 note=58 velocity=0 time=0.11770833333333333@note_on channel=0 note=70 velocity=0 time=0@note_on channel=0 note=34 velocity=0 time=0@note_on channel=0 note=46 velocity=0 time=0@note_on channel=0 note=58 velocity=80 time=0.007291666666666667@note_on channel=0 note=70 velocity=80 time=0@note_on channel=0 note=34 velocity=80 time=0@note_on channel=0 note=46 velocity=80 time=0@note_on channel=0 note=58 velocity=0 time=0.11770833333333333@note_on channel=0 note=70 velocity=0 time=0@note_on channel=0 note=34 velocity=0 time=0@note_on channel=0 note=46 velocity=0 time=0@note_on channel=0 note=58 velocity=80 time=0.007291666666666667@note_on channel=0 note=70 velocity=80 time=0@note_on channel=0 note=34 velocity=80 time=0@note_on channel=0 note=46 velocity=80 time=0@note_on channel=0 note=58 velocity=0 time=0.11770833333333333@note_on channel=0 note=70 velocity=0 time=0@note_on channel=0 note=34 velocity=0 time=0@note_on channel=0 note=46 velocity=0 time=0@note_on channel=0 note=58 velocity=80 time=0.007291666666666667@note_on channel=0 note=70 velocity=80 time=0@note_on channel=0 note=34 velocity=80 time=0@note_on channel=0 note=46 velocity=80 time=0@note_on channel=0 note=58 velocity=0 time=0.11770833333333333@note_on channel=0 note=70 velocity=0 time=0@note_on channel=0 note=34 velocity=0 time=0@note_on channel=0 note=46 velocity=0 time=0@note_on channel=0 note=58 velocity=80 time=0.007291666666666667@note_on channel=0 note=70 velocity=80 time=0@note_on channel=0 note=34 velocity=80 time=0@note_on channel=0 note=46 velocity=80 time=0@note_on channel=0 note=58 velocity=0 time=0.11770833333333333@note_on channel=0 note=70 velocity=0 time=0@note_on channel=0 note=34 velocity=0 time=0@note_on channel=0 note=46 velocity=0 time=0@note_on channel=0 note=58 velocity=80 time=0.007291666666666667@note_on channel=0 note=70 velocity=80 time=0@note_on channel=0 note=34 velocity=80 time=0@note_on channel=0 note=46 velocity=80 time=0@note_on channel=0 note=58 velocity=0 time=0.11770833333333333@note_on channel=0 note=70 velocity=0 time=0@note_on channel=0 note=34 velocity=0 time=0@note_on channel=0 note=46 velocity=0 time=0@note_on channel=0 note=58 velocity=80 time=0.007291666666666667@note_on channel=0 note=70 velocity=80 time=0@note_on channel=0 note=34 velocity=80 time=0@note_on channel=0 note=46 velocity=80 time=0@note_on channel=0 note=58 velocity=0 time=0.11770833333333333@note_on channel=0 note=70 velocity=0 time=0@note_on channel=0 note=34 velocity=0 time=0@note_on channel=0 note=46 velocity=0 time=0@note_on channel=0 note=58 velocity=80 time=0.007291666666666667@note_on channel=0 note=70 velocity=80 time=0@note_on channel=0 note=34 velocity=80 time=0@note_on channel=0 note=46 velocity=80 time=0@note_on channel=0 note=58 velocity=0 time=0.11770833333333333@note_on channel=0 note=70 velocity=0 time=0@note_on channel=0 note=34 velocity=0 time=0@note_on channel=0 note=46 velocity=0 time=0@note_on channel=0 note=58 velocity=80 time=0.007291666666666667@note_on channel=0 note=70 velocity=80 time=0@note_on channel=0 note=34 velocity=80 time=0@note_on channel=0 note=46 velocity=80 time=0@note_on channel=0 note=58 velocity=0 time=0.11770833333333333@note_on channel=0 note=70 velocity=0 time=0@note_on channel=0 note=34 velocity=0 time=0@note_on channel=0 note=46 velocity=0 time=0@note_on channel=0 note=58 velocity=80 time=0.007291666666666667@note_on channel=0 note=70 velocity=80 time=0@note_on channel=0 note=34 velocity=80 time=0@note_on channel=0 note=46 velocity=80 time=0@note_on channel=0 note=58 velocity=0 time=0.11770833333333333@note_on channel=0 note=70 velocity=0 time=0@note_on channel=0 note=34 velocity=0 time=0@note_on channel=0 note=46 velocity=0 time=0@note_on channel=0 note=58 velocity=80 time=0.007291666666666667@note_on channel=0 note=70 velocity=80 time=0@note_on channel=0 note=34 velocity=80 time=0@note_on channel=0 note=46 velocity=80 time=0@note_on channel=0 note=58 velocity=0 time=0.11770833333333333@note_on channel=0 note=70 velocity=0 time=0@note_on channel=0 note=34 velocity=0 time=0@note_on channel=0 note=46 velocity=0 time=0@note_on channel=0 note=58 velocity=80 time=0.007291666666666667@note_on channel=0 note=70 velocity=80 time=0@note_on channel=0 note=34 velocity=80 time=0@note_on channel=0 note=46 velocity=80 time=0@note_on channel=0 note=58 velocity=0 time=0.11770833333333333@note_on channel=0 note=70 velocity=0 time=0@note_on channel=0 note=34 velocity=0 time=0@note_on channel=0 note=46 velocity=0 time=0@note_on channel=0 note=58 velocity=80 time=0.007291666666666667@note_on channel=0 note=70 velocity=80 time=0@note_on channel=0 note=34 velocity=80 time=0@note_on channel=0 note=46 velocity=80 time=0@note_on channel=0 note=58 velocity=0 time=0.11770833333333333@note_on channel=0 note=70 velocity=0 time=0@note_on channel=0 note=34 velocity=0 time=0@note_on channel=0 note=46 velocity=0 time=0@note_on channel=0 note=58 velocity=80 time=0.007291666666666667@note_on channel=0 note=70 velocity=80 time=0@note_on channel=0 note=34 velocity=80 time=0@note_on channel=0 note=46 velocity=80 time=0@note_on channel=0 note=58 velocity=0 time=0.11770833333333333@note_on channel=0 note=70 velocity=0 time=0@note_on channel=0 note=34 velocity=0 time=0@note_on channel=0 note=46 velocity=0 time=0@note_on channel=0 note=60 velocity=80 time=0.007291666666666667@note_on channel=0 note=72 velocity=80 time=0@note_on channel=0 note=36 velocity=80 time=0@note_on channel=0 note=48 velocity=80 time=0@note_on channel=0 note=60 velocity=0 time=0.11770833333333333@note_on channel=0 note=72 velocity=0 time=0@note_on channel=0 note=36 velocity=0 time=0@note_on channel=0 note=48 velocity=0 time=0@note_on channel=0 note=60 velocity=80 time=0.007291666666666667@note_on channel=0 note=72 velocity=80 time=0@note_on channel=0 note=36 velocity=80 time=0@note_on channel=0 note=48 velocity=80 time=0@note_on channel=0 note=60 velocity=0 time=0.11770833333333333@note_on channel=0 note=72 velocity=0 time=0@note_on channel=0 note=36 velocity=0 time=0@note_on channel=0 note=48 velocity=0 time=0@note_on channel=0 note=60 velocity=80 time=0.007291666666666667@note_on channel=0 note=72 velocity=80 time=0@note_on channel=0 note=36 velocity=80 time=0@note_on channel=0 note=48 velocity=80 time=0@note_on channel=0 note=60 velocity=0 time=0.11770833333333333@note_on channel=0 note=72 velocity=0 time=0@note_on channel=0 note=36 velocity=0 time=0@note_on channel=0 note=48 velocity=0 time=0@note_on channel=0 note=60 velocity=80 time=0.007291666666666667@note_on channel=0 note=72 velocity=80 time=0@note_on channel=0 note=36 velocity=80 time=0@note_on channel=0 note=48 velocity=80 time=0@note_on channel=0 note=60 velocity=0 time=0.11770833333333333@note_on channel=0 note=72 velocity=0 time=0@note_on channel=0 note=36 velocity=0 time=0@note_on channel=0 note=48 velocity=0 time=0@note_on channel=0 note=60 velocity=80 time=0.007291666666666667@note_on channel=0 note=72 velocity=80 time=0@note_on channel=0 note=36 velocity=80 time=0@note_on channel=0 note=48 velocity=80 time=0@note_on channel=0 note=60 velocity=0 time=0.11770833333333333@note_on channel=0 note=72 velocity=0 time=0@note_on channel=0 note=36 velocity=0 time=0@note_on channel=0 note=48 velocity=0 time=0@note_on channel=0 note=60 velocity=80 time=0.007291666666666667@note_on channel=0 note=72 velocity=80 time=0@note_on channel=0 note=36 velocity=80 time=0@note_on channel=0 note=48 velocity=80 time=0@note_on channel=0 note=60 velocity=0 time=0.11770833333333333@note_on channel=0 note=72 velocity=0 time=0@note_on channel=0 note=36 velocity=0 time=0@note_on channel=0 note=48 velocity=0 time=0@note_on channel=0 note=60 velocity=80 time=0.007291666666666667@note_on channel=0 note=72 velocity=80 time=0@note_on channel=0 note=36 velocity=80 time=0@note_on channel=0 note=48 velocity=80 time=0@note_on channel=0 note=60 velocity=0 time=0.11770833333333333@note_on channel=0 note=72 velocity=0 time=0@note_on channel=0 note=36 velocity=0 time=0@note_on channel=0 note=48 velocity=0 time=0@note_on channel=0 note=60 velocity=80 time=0.007291666666666667@note_on channel=0 note=72 velocity=80 time=0@note_on channel=0 note=36 velocity=80 time=0@note_on channel=0 note=48 velocity=80 time=0@note_on channel=0 note=60 velocity=0 time=0.11770833333333333@note_on channel=0 note=72 velocity=0 time=0@note_on channel=0 note=36 velocity=0 time=0@note_on channel=0 note=48 velocity=0 time=0@note_on channel=0 note=61 velocity=80 time=0.007291666666666667@note_on channel=0 note=73 velocity=80 time=0@note_on channel=0 note=37 velocity=80 time=0@note_on channel=0 note=49 velocity=80 time=0@note_on channel=0 note=61 velocity=0 time=0.11770833333333333@note_on channel=0 note=73 velocity=0 time=0@note_on channel=0 note=37 velocity=0 time=0@note_on channel=0 note=49 velocity=0 time=0@note_on channel=0 note=61 velocity=80 time=0.007291666666666667@note_on channel=0 note=73 velocity=80 time=0@note_on channel=0 note=37 velocity=80 time=0@note_on channel=0 note=49 velocity=80 time=0@note_on channel=0 note=61 velocity=0 time=0.11770833333333333@note_on channel=0 note=73 velocity=0 time=0@note_on channel=0 note=37 velocity=0 time=0@note_on channel=0 note=49 velocity=0 time=0@note_on channel=0 note=61 velocity=80 time=0.007291666666666667@note_on channel=0 note=73 velocity=80 time=0@note_on channel=0 note=37 velocity=80 time=0@note_on channel=0 note=49 velocity=80 time=0@note_on channel=0 note=61 velocity=0 time=0.11770833333333333@note_on channel=0 note=73 velocity=0 time=0@note_on channel=0 note=37 velocity=0 time=0@note_on channel=0 note=49 velocity=0 time=0@note_on channel=0 note=61 velocity=80 time=0.007291666666666667@note_on channel=0 note=73 velocity=80 time=0@note_on channel=0 note=37 velocity=80 time=0@note_on channel=0 note=49 velocity=80 time=0@note_on channel=0 note=61 velocity=0 time=0.11770833333333333@note_on channel=0 note=73 velocity=0 time=0@note_on channel=0 note=37 velocity=0 time=0@note_on channel=0 note=49 velocity=0 time=0@note_on channel=0 note=63 velocity=80 time=0.007291666666666667@note_on channel=0 note=75 velocity=80 time=0@note_on channel=0 note=39 velocity=80 time=0@note_on channel=0 note=51 velocity=80 time=0@note_on channel=0 note=63 velocity=0 time=0.11770833333333333@note_on channel=0 note=75 velocity=0 time=0@note_on channel=0 note=39 velocity=0 time=0@note_on channel=0 note=51 velocity=0 time=0@note_on channel=0 note=63 velocity=80 time=0.007291666666666667@note_on channel=0 note=75 velocity=80 time=0@note_on channel=0 note=39 velocity=80 time=0@note_on channel=0 note=51 velocity=80 time=0@note_on channel=0 note=63 velocity=0 time=0.11770833333333333@note_on channel=0 note=75 velocity=0 time=0@note_on channel=0 note=39 velocity=0 time=0@note_on channel=0 note=51 velocity=0 time=0@note_on channel=0 note=65 velocity=80 time=0.007291666666666667@note_on channel=0 note=77 velocity=80 time=0@note_on channel=0 note=41 velocity=80 time=0@note_on channel=0 note=53 velocity=80 time=0@note_on channel=0 note=65 velocity=0 time=0.11770833333333333@note_on channel=0 note=77 velocity=0 time=0@note_on channel=0 note=41 velocity=0 time=0@note_on channel=0 note=53 velocity=0 time=0@note_on channel=0 note=65 velocity=80 time=0.007291666666666667@note_on channel=0 note=77 velocity=80 time=0@note_on channel=0 note=41 velocity=80 time=0@note_on channel=0 note=53 velocity=80 time=0@note_on channel=0 note=65 velocity=0 time=0.11770833333333333@note_on channel=0 note=77 velocity=0 time=0@note_on channel=0 note=41 velocity=0 time=0@note_on channel=0 note=53 velocity=0 time=0@note_on channel=0 note=58 velocity=80 time=0.007291666666666667@note_on channel=0 note=70 velocity=80 time=0@note_on channel=0 note=34 velocity=80 time=0@note_on channel=0 note=46 velocity=80 time=0@note_on channel=0 note=58 velocity=0 time=0.23645833333333333@note_on channel=0 note=70 velocity=0 time=0@note_on channel=0 note=34 velocity=0 time=0@note_on channel=0 note=46 velocity=0 time=0@note_on channel=0 note=63 velocity=80 time=0.3885416666666667@note_on channel=0 note=39 velocity=80 time=0@note_on channel=0 note=63 velocity=0 time=0.11770833333333333@note_on channel=0 note=39 velocity=0 time=0@note_on channel=0 note=61 velocity=80 time=0.007291666666666667@note_on channel=0 note=37 velocity=80 time=0@note_on channel=0 note=61 velocity=0 time=0.11770833333333333@note_on channel=0 note=37 velocity=0 time=0@note_on channel=0 note=60 velocity=80 time=0.007291666666666667@note_on channel=0 note=36 velocity=80 time=0@note_on channel=0 note=60 velocity=0 time=0.11770833333333333@note_on channel=0 note=36 velocity=0 time=0@note_on channel=0 note=58 velocity=80 time=0.007291666666666667@note_on channel=0 note=34 velocity=80 time=0@note_on channel=0 note=58 velocity=0 time=0.23645833333333333@note_on channel=0 note=34 velocity=0 time=0@note_on channel=0 note=58 velocity=80 time=0.013541666666666667@note_on channel=0 note=34 velocity=80 time=0@note_on channel=0 note=58 velocity=0 time=0.23645833333333333@note_on channel=0 note=34 velocity=0 time=0@note_on channel=0 note=60 velocity=80 time=0.013541666666666667@note_on channel=0 note=36 velocity=80 time=0@note_on channel=0 note=60 velocity=0 time=0.23645833333333333@note_on channel=0 note=36 velocity=0 time=0@note_on channel=0 note=61 velocity=80 time=0.013541666666666667@note_on channel=0 note=37 velocity=80 time=0@note_on channel=0 note=61 velocity=0 time=0.23645833333333333@note_on channel=0 note=37 velocity=0 time=0@note_on channel=0 note=58 velocity=80 time=0.013541666666666667@note_on channel=0 note=34 velocity=80 time=0@note_on channel=0 note=58 velocity=0 time=0.23645833333333333@note_on channel=0 note=34 velocity=0 time=0@note_on channel=0 note=63 velocity=80 time=0.3885416666666667@note_on channel=0 note=39 velocity=80 time=0@note_on channel=0 note=63 velocity=0 time=0.11770833333333333@note_on channel=0 note=39 velocity=0 time=0@note_on channel=0 note=61 velocity=80 time=0.007291666666666667@note_on channel=0 note=37 velocity=80 time=0@note_on channel=0 note=61 velocity=0 time=0.11770833333333333@note_on channel=0 note=37 velocity=0 time=0@note_on channel=0 note=60 velocity=80 time=0.007291666666666667@note_on channel=0 note=36 velocity=80 time=0@note_on channel=0 note=60 velocity=0 time=0.11770833333333333@note_on channel=0 note=36 velocity=0 time=0@note_on channel=0 note=58 velocity=80 time=0.007291666666666667@note_on channel=0 note=34 velocity=80 time=0@note_on channel=0 note=58 velocity=0 time=0.23645833333333333@note_on channel=0 note=34 velocity=0 time=0@note_on channel=0 note=53 velocity=80 time=0.013541666666666667@note_on channel=0 note=29 velocity=80 time=0@note_on channel=0 note=53 velocity=0 time=0.23645833333333333@note_on channel=0 note=29 velocity=0 time=0@note_on channel=0 note=54 velocity=80 time=0.013541666666666667@note_on channel=0 note=30 velocity=80 time=0@note_on channel=0 note=54 velocity=0 time=0.23645833333333333@note_on channel=0 note=30 velocity=0 time=0@note_on channel=0 note=56 velocity=80 time=0.013541666666666667@note_on channel=0 note=32 velocity=80 time=0@note_on channel=0 note=56 velocity=0 time=0.23645833333333333@note_on channel=0 note=32 velocity=0 time=0@note_on channel=0 note=43 velocity=80 time=0.013541666666666667@note_on channel=0 note=55 velocity=80 time=0@note_on channel=0 note=43 velocity=0 time=0.23645833333333333@note_on channel=0 note=55 velocity=0 time=0@note_on channel=0 note=43 velocity=80 time=0.013541666666666667@note_on channel=0 note=55 velocity=80 time=0@note_on channel=0 note=43 velocity=0 time=0.11770833333333333@note_on channel=0 note=55 velocity=0 time=0@note_on channel=0 note=43 velocity=80 time=0.007291666666666667@note_on channel=0 note=55 velocity=80 time=0@note_on channel=0 note=43 velocity=0 time=0.11770833333333333@note_on channel=0 note=55 velocity=0 time=0@note_on channel=0 note=78 velocity=80 time=0.007291666666666667@note_on channel=0 note=43 velocity=80 time=0@note_on channel=0 note=55 velocity=80 time=0@note_on channel=0 note=43 velocity=0 time=0.23645833333333333@note_on channel=0 note=55 velocity=0 time=0@note_on channel=0 note=39 velocity=80 time=0.013541666666666667@note_on channel=0 note=51 velocity=80 time=0@note_on channel=0 note=78 velocity=0 time=0.22395833333333334@note_on channel=0 note=39 velocity=0 time=0.0125@note_on channel=0 note=51 velocity=0 time=0@note_on channel=0 note=79 velocity=80 time=0.013541666666666667@note_on channel=0 note=39 velocity=80 time=0@note_on channel=0 note=51 velocity=80 time=0@note_on channel=0 note=39 velocity=0 time=0.11770833333333333@note_on channel=0 note=51 velocity=0 time=0@note_on channel=0 note=39 velocity=80 time=0.007291666666666667@note_on channel=0 note=51 velocity=80 time=0@note_on channel=0 note=39 velocity=0 time=0.11770833333333333@note_on channel=0 note=51 velocity=0 time=0@note_on channel=0 note=39 velocity=80 time=0.007291666666666667@note_on channel=0 note=51 velocity=80 time=0@note_on channel=0 note=79 velocity=0 time=0.22395833333333334@note_on channel=0 note=39 velocity=0 time=0.0125@note_on channel=0 note=51 velocity=0 time=0@note_on channel=0 note=39 velocity=80 time=0.013541666666666667@note_on channel=0 note=51 velocity=80 time=0@note_on channel=0 note=39 velocity=0 time=0.23645833333333333@note_on channel=0 note=51 velocity=0 time=0@note_on channel=0 note=36 velocity=80 time=0.013541666666666667@note_on channel=0 note=48 velocity=80 time=0@note_on channel=0 note=36 velocity=0 time=0.23645833333333333@note_on channel=0 note=48 velocity=0 time=0@note_on channel=0 note=81 velocity=80 time=0.013541666666666667@note_on channel=0 note=81 velocity=0 time=0.7114583333333333@note_on channel=0 note=82 velocity=80 time=0.03854166666666667@note_on channel=0 note=36 velocity=80 time=0@note_on channel=0 note=48 velocity=80 time=0@note_on channel=0 note=36 velocity=0 time=0.23645833333333333@note_on channel=0 note=48 velocity=0 time=0@note_on channel=0 note=36 velocity=80 time=0.013541666666666667@note_on channel=0 note=48 velocity=80 time=0@note_on channel=0 note=36 velocity=0 time=0.11770833333333333@note_on channel=0 note=48 velocity=0 time=0@note_on channel=0 note=36 velocity=80 time=0.007291666666666667@note_on channel=0 note=48 velocity=80 time=0@note_on channel=0 note=36 velocity=0 time=0.11770833333333333@note_on channel=0 note=48 velocity=0 time=0@note_on channel=0 note=36 velocity=80 time=0.007291666666666667@note_on channel=0 note=48 velocity=80 time=0@note_on channel=0 note=82 velocity=0 time=0.21145833333333333@note_on channel=0 note=36 velocity=0 time=0.025@note_on channel=0 note=48 velocity=0 time=0@note_on channel=0 note=84 velocity=80 time=0.013541666666666667@note_on channel=0 note=38 velocity=80 time=0@note_on channel=0 note=50 velocity=80 time=0@note_on channel=0 note=38 velocity=0 time=0.23645833333333333@note_on channel=0 note=50 velocity=0 time=0@note_on channel=0 note=36 velocity=80 time=0.013541666666666667@note_on channel=0 note=48 velocity=80 time=0@note_on channel=0 note=84 velocity=0 time=0.22395833333333334@note_on channel=0 note=36 velocity=0 time=0.0125@note_on channel=0 note=48 velocity=0 time=0@note_on channel=0 note=43 velocity=80 time=0.013541666666666667@note_on channel=0 note=55 velocity=80 time=0@note_on channel=0 note=43 velocity=0 time=0.23645833333333333@note_on channel=0 note=55 velocity=0 time=0@note_on channel=0 note=43 velocity=80 time=0.013541666666666667@note_on channel=0 note=55 velocity=80 time=0@note_on channel=0 note=43 velocity=0 time=0.11770833333333333@note_on channel=0 note=55 velocity=0 time=0@note_on channel=0 note=43 velocity=80 time=0.007291666666666667@note_on channel=0 note=55 velocity=80 time=0@note_on channel=0 note=43 velocity=0 time=0.11770833333333333@note_on channel=0 note=55 velocity=0 time=0@note_on channel=0 note=86 velocity=80 time=0.007291666666666667@note_on channel=0 note=43 velocity=80 time=0@note_on channel=0 note=55 velocity=80 time=0@note_on channel=0 note=43 velocity=0 time=0.23645833333333333@note_on channel=0 note=55 velocity=0 time=0@note_on channel=0 note=39 velocity=80 time=0.013541666666666667@note_on channel=0 note=51 velocity=80 time=0@note_on channel=0 note=86 velocity=0 time=0.22395833333333334@note_on channel=0 note=39 velocity=0 time=0.0125@note_on channel=0 note=51 velocity=0 time=0@note_on channel=0 note=79 velocity=80 time=0.013541666666666667@note_on channel=0 note=39 velocity=80 time=0@note_on channel=0 note=51 velocity=80 time=0@note_on channel=0 note=39 velocity=0 time=0.11770833333333333@note_on channel=0 note=51 velocity=0 time=0@note_on channel=0 note=39 velocity=80 time=0.007291666666666667@note_on channel=0 note=51 velocity=80 time=0@note_on channel=0 note=39 velocity=0 time=0.11770833333333333@note_on channel=0 note=51 velocity=0 time=0@note_on channel=0 note=39 velocity=80 time=0.007291666666666667@note_on channel=0 note=51 velocity=80 time=0@note_on channel=0 note=79 velocity=0 time=0.22395833333333334@note_on channel=0 note=39 velocity=0 time=0.0125@note_on channel=0 note=51 velocity=0 time=0@note_on channel=0 note=39 velocity=80 time=0.013541666666666667@note_on channel=0 note=51 velocity=80 time=0@note_on channel=0 note=39 velocity=0 time=0.23645833333333333@note_on channel=0 note=51 velocity=0 time=0@note_on channel=0 note=36 velocity=80 time=0.013541666666666667@note_on channel=0 note=48 velocity=80 time=0@note_on channel=0 note=36 velocity=0 time=0.23645833333333333@note_on channel=0 note=48 velocity=0 time=0@note_on channel=0 note=82 velocity=80 time=0.013541666666666667@note_on channel=0 note=82 velocity=0 time=0.7114583333333333@note_on channel=0 note=81 velocity=80 time=0.03854166666666667@note_on channel=0 note=36 velocity=80 time=0@note_on channel=0 note=48 velocity=80 time=0@note_on channel=0 note=36 velocity=0 time=0.23645833333333333@note_on channel=0 note=48 velocity=0 time=0@note_on channel=0 note=36 velocity=80 time=0.013541666666666667@note_on channel=0 note=48 velocity=80 time=0@note_on channel=0 note=36 velocity=0 time=0.11770833333333333@note_on channel=0 note=48 velocity=0 time=0@note_on channel=0 note=36 velocity=80 time=0.007291666666666667@note_on channel=0 note=48 velocity=80 time=0@note_on channel=0 note=36 velocity=0 time=0.11770833333333333@note_on channel=0 note=48 velocity=0 time=0@note_on channel=0 note=36 velocity=80 time=0.007291666666666667@note_on channel=0 note=48 velocity=80 time=0@note_on channel=0 note=81 velocity=0 time=0.21145833333333333@note_on channel=0 note=36 velocity=0 time=0.025@note_on channel=0 note=48 velocity=0 time=0@note_on channel=0 note=38 velocity=80 time=0.013541666666666667@note_on channel=0 note=50 velocity=80 time=0@note_on channel=0 note=38 velocity=0 time=0.23645833333333333@note_on channel=0 note=50 velocity=0 time=0@note_on channel=0 note=36 velocity=80 time=0.013541666666666667@note_on channel=0 note=48 velocity=80 time=0@note_on channel=0 note=36 velocity=0 time=0.23645833333333333@note_on channel=0 note=48 velocity=0 time=0@note_on channel=0 note=43 velocity=80 time=0.013541666666666667@note_on channel=0 note=55 velocity=80 time=0@note_on channel=0 note=43 velocity=0 time=0.23645833333333333@note_on channel=0 note=55 velocity=0 time=0@note_on channel=0 note=43 velocity=80 time=0.013541666666666667@note_on channel=0 note=55 velocity=80 time=0@note_on channel=0 note=43 velocity=0 time=0.11770833333333333@note_on channel=0 note=55 velocity=0 time=0@note_on channel=0 note=43 velocity=80 time=0.007291666666666667@note_on channel=0 note=55 velocity=80 time=0@note_on channel=0 note=43 velocity=0 time=0.11770833333333333@note_on channel=0 note=55 velocity=0 time=0@note_on channel=0 note=78 velocity=80 time=0.007291666666666667@note_on channel=0 note=43 velocity=80 time=0@note_on channel=0 note=55 velocity=80 time=0@note_on channel=0 note=43 velocity=0 time=0.23645833333333333@note_on channel=0 note=55 velocity=0 time=0@note_on channel=0 note=39 velocity=80 time=0.013541666666666667@note_on channel=0 note=51 velocity=80 time=0@note_on channel=0 note=78 velocity=0 time=0.22395833333333334@note_on channel=0 note=39 velocity=0 time=0.0125@note_on channel=0 note=51 velocity=0 time=0@note_on channel=0 note=79 velocity=80 time=0.013541666666666667@note_on channel=0 note=39 velocity=80 time=0@note_on channel=0 note=51 velocity=80 time=0@note_on channel=0 note=39 velocity=0 time=0.11770833333333333@note_on channel=0 note=51 velocity=0 time=0@note_on channel=0 note=39 velocity=80 time=0.007291666666666667@note_on channel=0 note=51 velocity=80 time=0@note_on channel=0 note=39 velocity=0 time=0.11770833333333333@note_on channel=0 note=51 velocity=0 time=0@note_on channel=0 note=39 velocity=80 time=0.007291666666666667@note_on channel=0 note=51 velocity=80 time=0@note_on channel=0 note=79 velocity=0 time=0.22395833333333334@note_on channel=0 note=39 velocity=0 time=0.0125@note_on channel=0 note=51 velocity=0 time=0@note_on channel=0 note=39 velocity=80 time=0.013541666666666667@note_on channel=0 note=51 velocity=80 time=0@note_on channel=0 note=39 velocity=0 time=0.23645833333333333@note_on channel=0 note=51 velocity=0 time=0@note_on channel=0 note=36 velocity=80 time=0.013541666666666667@note_on channel=0 note=48 velocity=80 time=0@note_on channel=0 note=36 velocity=0 time=0.23645833333333333@note_on channel=0 note=48 velocity=0 time=0@note_on channel=0 note=81 velocity=80 time=0.013541666666666667@note_on channel=0 note=81 velocity=0 time=0.7114583333333333@note_on channel=0 note=82 velocity=80 time=0.03854166666666667@note_on channel=0 note=36 velocity=80 time=0@note_on channel=0 note=48 velocity=80 time=0@note_on channel=0 note=36 velocity=0 time=0.23645833333333333@note_on channel=0 note=48 velocity=0 time=0@note_on channel=0 note=36 velocity=80 time=0.013541666666666667@note_on channel=0 note=48 velocity=80 time=0@note_on channel=0 note=36 velocity=0 time=0.11770833333333333@note_on channel=0 note=48 velocity=0 time=0@note_on channel=0 note=36 velocity=80 time=0.007291666666666667@note_on channel=0 note=48 velocity=80 time=0@note_on channel=0 note=36 velocity=0 time=0.11770833333333333@note_on channel=0 note=48 velocity=0 time=0@note_on channel=0 note=36 velocity=80 time=0.007291666666666667@note_on channel=0 note=48 velocity=80 time=0@note_on channel=0 note=82 velocity=0 time=0.21145833333333333@note_on channel=0 note=36 velocity=0 time=0.025@note_on channel=0 note=48 velocity=0 time=0@note_on channel=0 note=84 velocity=80 time=0.013541666666666667@note_on channel=0 note=38 velocity=80 time=0@note_on channel=0 note=50 velocity=80 time=0@note_on channel=0 note=38 velocity=0 time=0.23645833333333333@note_on channel=0 note=50 velocity=0 time=0@note_on channel=0 note=36 velocity=80 time=0.013541666666666667@note_on channel=0 note=48 velocity=80 time=0@note_on channel=0 note=84 velocity=0 time=0.22395833333333334@note_on channel=0 note=36 velocity=0 time=0.0125@note_on channel=0 note=48 velocity=0 time=0@note_on channel=0 note=43 velocity=80 time=0.013541666666666667@note_on channel=0 note=55 velocity=80 time=0@note_on channel=0 note=43 velocity=0 time=0.23645833333333333@note_on channel=0 note=55 velocity=0 time=0@note_on channel=0 note=43 velocity=80 time=0.013541666666666667@note_on channel=0 note=55 velocity=80 time=0@note_on channel=0 note=43 velocity=0 time=0.11770833333333333@note_on channel=0 note=55 velocity=0 time=0@note_on channel=0 note=43 velocity=80 time=0.007291666666666667@note_on channel=0 note=55 velocity=80 time=0@note_on channel=0 note=43 velocity=0 time=0.11770833333333333@note_on channel=0 note=55 velocity=0 time=0@note_on channel=0 note=91 velocity=80 time=0.007291666666666667@note_on channel=0 note=43 velocity=80 time=0@note_on channel=0 note=55 velocity=80 time=0@note_on channel=0 note=43 velocity=0 time=0.23645833333333333@note_on channel=0 note=55 velocity=0 time=0@note_on channel=0 note=39 velocity=80 time=0.013541666666666667@note_on channel=0 note=51 velocity=80 time=0@note_on channel=0 note=91 velocity=0 time=0.22395833333333334@note_on channel=0 note=39 velocity=0 time=0.0125@note_on channel=0 note=51 velocity=0 time=0@note_on channel=0 note=86 velocity=80 time=0.013541666666666667@note_on channel=0 note=39 velocity=80 time=0@note_on channel=0 note=51 velocity=80 time=0@note_on channel=0 note=39 velocity=0 time=0.11770833333333333@note_on channel=0 note=51 velocity=0 time=0@note_on channel=0 note=39 velocity=80 time=0.007291666666666667@note_on channel=0 note=51 velocity=80 time=0@note_on channel=0 note=39 velocity=0 time=0.11770833333333333@note_on channel=0 note=51 velocity=0 time=0@note_on channel=0 note=48 velocity=80 time=0.007291666666666667@note_on channel=0 note=60 velocity=80 time=0@note_on channel=0 note=86 velocity=0 time=0.22395833333333334@note_on channel=0 note=48 velocity=0 time=0.25@note_on channel=0 note=60 velocity=0 time=0@note_on channel=0 note=43 velocity=80 time=0.026041666666666668@note_on channel=0 note=55 velocity=80 time=0@note_on channel=0 note=89 velocity=80 time=0.25@note_on channel=0 note=43 velocity=0 time=0.22395833333333334@note_on channel=0 note=55 velocity=0 time=0@note_on channel=0 note=51 velocity=80 time=0.026041666666666668@note_on channel=0 note=63 velocity=80 time=0@note_on channel=0 note=89 velocity=0 time=0.4614583333333333@note_on channel=0 note=51 velocity=0 time=0.0125@note_on channel=0 note=63 velocity=0 time=0@note_on channel=0 note=88 velocity=80 time=0.026041666666666668@note_on channel=0 note=48 velocity=80 time=0@note_on channel=0 note=60 velocity=80 time=0@note_on channel=0 note=48 velocity=0 time=0.23645833333333333@note_on channel=0 note=60 velocity=0 time=0@note_on channel=0 note=46 velocity=80 time=0.013541666666666667@note_on channel=0 note=58 velocity=80 time=0@note_on channel=0 note=46 velocity=0 time=0.23645833333333333@note_on channel=0 note=58 velocity=0 time=0@note_on channel=0 note=48 velocity=80 time=0.013541666666666667@note_on channel=0 note=60 velocity=80 time=0@note_on channel=0 note=88 velocity=0 time=0.21145833333333333@note_on channel=0 note=48 velocity=0 time=0.025@note_on channel=0 note=60 velocity=0 time=0@note_on channel=0 note=84 velocity=80 time=0.013541666666666667@note_on channel=0 note=46 velocity=80 time=0@note_on channel=0 note=58 velocity=80 time=0@note_on channel=0 note=46 velocity=0 time=0.23645833333333333@note_on channel=0 note=58 velocity=0 time=0@note_on channel=0 note=45 velocity=80 time=0.013541666666666667@note_on channel=0 note=57 velocity=80 time=0@note_on channel=0 note=84 velocity=0 time=0.22395833333333334@note_on channel=0 note=45 velocity=0 time=0.0125@note_on channel=0 note=57 velocity=0 time=0@note_on channel=0 note=43 velocity=80 time=0.013541666666666667@note_on channel=0 note=55 velocity=80 time=0@note_on channel=0 note=43 velocity=0 time=0.23645833333333333@note_on channel=0 note=55 velocity=0 time=0@note_on channel=0 note=43 velocity=80 time=0.013541666666666667@note_on channel=0 note=55 velocity=80 time=0@note_on channel=0 note=43 velocity=0 time=0.11770833333333333@note_on channel=0 note=55 velocity=0 time=0@note_on channel=0 note=43 velocity=80 time=0.007291666666666667@note_on channel=0 note=55 velocity=80 time=0@note_on channel=0 note=43 velocity=0 time=0.11770833333333333@note_on channel=0 note=55 velocity=0 time=0@note_on channel=0 note=78 velocity=80 time=0.007291666666666667@note_on channel=0 note=43 velocity=80 time=0@note_on channel=0 note=55 velocity=80 time=0@note_on channel=0 note=43 velocity=0 time=0.23645833333333333@note_on channel=0 note=55 velocity=0 time=0@note_on channel=0 note=39 velocity=80 time=0.013541666666666667@note_on channel=0 note=51 velocity=80 time=0@note_on channel=0 note=78 velocity=0 time=0.22395833333333334@note_on channel=0 note=39 velocity=0 time=0.0125@note_on channel=0 note=51 velocity=0 time=0@note_on channel=0 note=79 velocity=80 time=0.013541666666666667@note_on channel=0 note=39 velocity=80 time=0@note_on channel=0 note=51 velocity=80 time=0@note_on channel=0 note=39 velocity=0 time=0.11770833333333333@note_on channel=0 note=51 velocity=0 time=0@note_on channel=0 note=39 velocity=80 time=0.007291666666666667@note_on channel=0 note=51 velocity=80 time=0@note_on channel=0 note=39 velocity=0 time=0.11770833333333333@note_on channel=0 note=51 velocity=0 time=0@note_on channel=0 note=39 velocity=80 time=0.007291666666666667@note_on channel=0 note=51 velocity=80 time=0@note_on channel=0 note=79 velocity=0 time=0.22395833333333334@note_on channel=0 note=39 velocity=0 time=0.0125@note_on channel=0 note=51 velocity=0 time=0@note_on channel=0 note=39 velocity=80 time=0.013541666666666667@note_on channel=0 note=51 velocity=80 time=0@note_on channel=0 note=39 velocity=0 time=0.23645833333333333@note_on channel=0 note=51 velocity=0 time=0@note_on channel=0 note=36 velocity=80 time=0.013541666666666667@note_on channel=0 note=48 velocity=80 time=0@note_on channel=0 note=36 velocity=0 time=0.23645833333333333@note_on channel=0 note=48 velocity=0 time=0@note_on channel=0 note=81 velocity=80 time=0.013541666666666667@note_on channel=0 note=81 velocity=0 time=0.7114583333333333@note_on channel=0 note=82 velocity=80 time=0.03854166666666667@note_on channel=0 note=36 velocity=80 time=0@note_on channel=0 note=48 velocity=80 time=0@note_on channel=0 note=36 velocity=0 time=0.23645833333333333@note_on channel=0 note=48 velocity=0 time=0@note_on channel=0 note=36 velocity=80 time=0.013541666666666667@note_on channel=0 note=48 velocity=80 time=0@note_on channel=0 note=36 velocity=0 time=0.11770833333333333@note_on channel=0 note=48 velocity=0 time=0@note_on channel=0 note=36 velocity=80 time=0.007291666666666667@note_on channel=0 note=48 velocity=80 time=0@note_on channel=0 note=36 velocity=0 time=0.11770833333333333@note_on channel=0 note=48 velocity=0 time=0@note_on channel=0 note=36 velocity=80 time=0.007291666666666667@note_on channel=0 note=48 velocity=80 time=0@note_on channel=0 note=82 velocity=0 time=0.21145833333333333@note_on channel=0 note=36 velocity=0 time=0.025@note_on channel=0 note=48 velocity=0 time=0@note_on channel=0 note=84 velocity=80 time=0.013541666666666667@note_on channel=0 note=38 velocity=80 time=0@note_on channel=0 note=50 velocity=80 time=0@note_on channel=0 note=38 velocity=0 time=0.23645833333333333@note_on channel=0 note=50 velocity=0 time=0@note_on channel=0 note=36 velocity=80 time=0.013541666666666667@note_on channel=0 note=48 velocity=80 time=0@note_on channel=0 note=84 velocity=0 time=0.22395833333333334@note_on channel=0 note=36 velocity=0 time=0.0125@note_on channel=0 note=48 velocity=0 time=0@note_on channel=0 note=43 velocity=80 time=0.013541666666666667@note_on channel=0 note=55 velocity=80 time=0@note_on channel=0 note=43 velocity=0 time=0.23645833333333333@note_on channel=0 note=55 velocity=0 time=0@note_on channel=0 note=43 velocity=80 time=0.013541666666666667@note_on channel=0 note=55 velocity=80 time=0@note_on channel=0 note=43 velocity=0 time=0.11770833333333333@note_on channel=0 note=55 velocity=0 time=0@note_on channel=0 note=43 velocity=80 time=0.007291666666666667@note_on channel=0 note=55 velocity=80 time=0@note_on channel=0 note=43 velocity=0 time=0.11770833333333333@note_on channel=0 note=55 velocity=0 time=0@note_on channel=0 note=86 velocity=80 time=0.007291666666666667@note_on channel=0 note=43 velocity=80 time=0@note_on channel=0 note=55 velocity=80 time=0@note_on channel=0 note=43 velocity=0 time=0.23645833333333333@note_on channel=0 note=55 velocity=0 time=0@note_on channel=0 note=39 velocity=80 time=0.013541666666666667@note_on channel=0 note=51 velocity=80 time=0@note_on channel=0 note=86 velocity=0 time=0.22395833333333334@note_on channel=0 note=39 velocity=0 time=0.0125@note_on channel=0 note=51 velocity=0 time=0@note_on channel=0 note=79 velocity=80 time=0.013541666666666667@note_on channel=0 note=39 velocity=80 time=0@note_on channel=0 note=51 velocity=80 time=0@note_on channel=0 note=39 velocity=0 time=0.11770833333333333@note_on channel=0 note=51 velocity=0 time=0@note_on channel=0 note=39 velocity=80 time=0.007291666666666667@note_on channel=0 note=51 velocity=80 time=0@note_on channel=0 note=39 velocity=0 time=0.11770833333333333@note_on channel=0 note=51 velocity=0 time=0@note_on channel=0 note=39 velocity=80 time=0.007291666666666667@note_on channel=0 note=51 velocity=80 time=0@note_on channel=0 note=79 velocity=0 time=0.22395833333333334@note_on channel=0 note=39 velocity=0 time=0.0125@note_on channel=0 note=51 velocity=0 time=0@note_on channel=0 note=39 velocity=80 time=0.013541666666666667@note_on channel=0 note=51 velocity=80 time=0@note_on channel=0 note=39 velocity=0 time=0.23645833333333333@note_on channel=0 note=51 velocity=0 time=0@note_on channel=0 note=36 velocity=80 time=0.013541666666666667@note_on channel=0 note=48 velocity=80 time=0@note_on channel=0 note=36 velocity=0 time=0.23645833333333333@note_on channel=0 note=48 velocity=0 time=0@note_on channel=0 note=82 velocity=80 time=0.013541666666666667@note_on channel=0 note=82 velocity=0 time=0.7114583333333333@note_on channel=0 note=81 velocity=80 time=0.03854166666666667@note_on channel=0 note=36 velocity=80 time=0@note_on channel=0 note=48 velocity=80 time=0@note_on channel=0 note=36 velocity=0 time=0.23645833333333333@note_on channel=0 note=48 velocity=0 time=0@note_on channel=0 note=36 velocity=80 time=0.013541666666666667@note_on channel=0 note=48 velocity=80 time=0@note_on channel=0 note=36 velocity=0 time=0.11770833333333333@note_on channel=0 note=48 velocity=0 time=0@note_on channel=0 note=36 velocity=80 time=0.007291666666666667@note_on channel=0 note=48 velocity=80 time=0@note_on channel=0 note=36 velocity=0 time=0.11770833333333333@note_on channel=0 note=48 velocity=0 time=0@note_on channel=0 note=36 velocity=80 time=0.007291666666666667@note_on channel=0 note=48 velocity=80 time=0@note_on channel=0 note=81 velocity=0 time=0.21145833333333333@note_on channel=0 note=36 velocity=0 time=0.025@note_on channel=0 note=48 velocity=0 time=0@note_on channel=0 note=38 velocity=80 time=0.013541666666666667@note_on channel=0 note=50 velocity=80 time=0@note_on channel=0 note=38 velocity=0 time=0.23645833333333333@note_on channel=0 note=50 velocity=0 time=0@note_on channel=0 note=36 velocity=80 time=0.013541666666666667@note_on channel=0 note=48 velocity=80 time=0@note_on channel=0 note=36 velocity=0 time=0.23645833333333333@note_on channel=0 note=48 velocity=0 time=0@note_on channel=0 note=43 velocity=80 time=0.013541666666666667@note_on channel=0 note=55 velocity=80 time=0@note_on channel=0 note=43 velocity=0 time=0.23645833333333333@note_on channel=0 note=55 velocity=0 time=0@note_on channel=0 note=43 velocity=80 time=0.013541666666666667@note_on channel=0 note=55 velocity=80 time=0@note_on channel=0 note=43 velocity=0 time=0.11770833333333333@note_on channel=0 note=55 velocity=0 time=0@note_on channel=0 note=43 velocity=80 time=0.007291666666666667@note_on channel=0 note=55 velocity=80 time=0@note_on channel=0 note=43 velocity=0 time=0.11770833333333333@note_on channel=0 note=55 velocity=0 time=0@note_on channel=0 note=78 velocity=80 time=0.007291666666666667@note_on channel=0 note=43 velocity=80 time=0@note_on channel=0 note=55 velocity=80 time=0@note_on channel=0 note=43 velocity=0 time=0.23645833333333333@note_on channel=0 note=55 velocity=0 time=0@note_on channel=0 note=39 velocity=80 time=0.013541666666666667@note_on channel=0 note=51 velocity=80 time=0@note_on channel=0 note=78 velocity=0 time=0.22395833333333334@note_on channel=0 note=39 velocity=0 time=0.0125@note_on channel=0 note=51 velocity=0 time=0@note_on channel=0 note=79 velocity=80 time=0.013541666666666667@note_on channel=0 note=39 velocity=80 time=0@note_on channel=0 note=51 velocity=80 time=0@note_on channel=0 note=39 velocity=0 time=0.11770833333333333@note_on channel=0 note=51 velocity=0 time=0@note_on channel=0 note=39 velocity=80 time=0.007291666666666667@note_on channel=0 note=51 velocity=80 time=0@note_on channel=0 note=39 velocity=0 time=0.11770833333333333@note_on channel=0 note=51 velocity=0 time=0@note_on channel=0 note=39 velocity=80 time=0.007291666666666667@note_on channel=0 note=51 velocity=80 time=0@note_on channel=0 note=79 velocity=0 time=0.22395833333333334@note_on channel=0 note=39 velocity=0 time=0.0125@note_on channel=0 note=51 velocity=0 time=0@note_on channel=0 note=39 velocity=80 time=0.013541666666666667@note_on channel=0 note=51 velocity=80 time=0@note_on channel=0 note=39 velocity=0 time=0.23645833333333333@note_on channel=0 note=51 velocity=0 time=0@note_on channel=0 note=36 velocity=80 time=0.013541666666666667@note_on channel=0 note=48 velocity=80 time=0@note_on channel=0 note=36 velocity=0 time=0.23645833333333333@note_on channel=0 note=48 velocity=0 time=0@note_on channel=0 note=81 velocity=80 time=0.013541666666666667@note_on channel=0 note=81 velocity=0 time=0.7114583333333333@note_on channel=0 note=82 velocity=80 time=0.03854166666666667@note_on channel=0 note=36 velocity=80 time=0@note_on channel=0 note=48 velocity=80 time=0@note_on channel=0 note=36 velocity=0 time=0.23645833333333333@note_on channel=0 note=48 velocity=0 time=0@note_on channel=0 note=36 velocity=80 time=0.013541666666666667@note_on channel=0 note=48 velocity=80 time=0@note_on channel=0 note=36 velocity=0 time=0.11770833333333333@note_on channel=0 note=48 velocity=0 time=0@note_on channel=0 note=36 velocity=80 time=0.007291666666666667@note_on channel=0 note=48 velocity=80 time=0@note_on channel=0 note=36 velocity=0 time=0.11770833333333333@note_on channel=0 note=48 velocity=0 time=0@note_on channel=0 note=36 velocity=80 time=0.007291666666666667@note_on channel=0 note=48 velocity=80 time=0@note_on channel=0 note=82 velocity=0 time=0.21145833333333333@note_on channel=0 note=36 velocity=0 time=0.025@note_on channel=0 note=48 velocity=0 time=0@note_on channel=0 note=84 velocity=80 time=0.013541666666666667@note_on channel=0 note=38 velocity=80 time=0@note_on channel=0 note=50 velocity=80 time=0@note_on channel=0 note=38 velocity=0 time=0.23645833333333333@note_on channel=0 note=50 velocity=0 time=0@note_on channel=0 note=36 velocity=80 time=0.013541666666666667@note_on channel=0 note=48 velocity=80 time=0@note_on channel=0 note=84 velocity=0 time=0.22395833333333334@note_on channel=0 note=36 velocity=0 time=0.0125@note_on channel=0 note=48 velocity=0 time=0@note_on channel=0 note=43 velocity=80 time=0.013541666666666667@note_on channel=0 note=55 velocity=80 time=0@note_on channel=0 note=43 velocity=0 time=0.23645833333333333@note_on channel=0 note=55 velocity=0 time=0@note_on channel=0 note=43 velocity=80 time=0.013541666666666667@note_on channel=0 note=55 velocity=80 time=0@note_on channel=0 note=43 velocity=0 time=0.11770833333333333@note_on channel=0 note=55 velocity=0 time=0@note_on channel=0 note=43 velocity=80 time=0.007291666666666667@note_on channel=0 note=55 velocity=80 time=0@note_on channel=0 note=43 velocity=0 time=0.11770833333333333@note_on channel=0 note=55 velocity=0 time=0@note_on channel=0 note=91 velocity=80 time=0.007291666666666667@note_on channel=0 note=43 velocity=80 time=0@note_on channel=0 note=55 velocity=80 time=0@note_on channel=0 note=43 velocity=0 time=0.23645833333333333@note_on channel=0 note=55 velocity=0 time=0@note_on channel=0 note=39 velocity=80 time=0.013541666666666667@note_on channel=0 note=51 velocity=80 time=0@note_on channel=0 note=91 velocity=0 time=0.22395833333333334@note_on channel=0 note=39 velocity=0 time=0.0125@note_on channel=0 note=51 velocity=0 time=0@note_on channel=0 note=86 velocity=80 time=0.013541666666666667@note_on channel=0 note=39 velocity=80 time=0@note_on channel=0 note=51 velocity=80 time=0@note_on channel=0 note=39 velocity=0 time=0.11770833333333333@note_on channel=0 note=51 velocity=0 time=0@note_on channel=0 note=39 velocity=80 time=0.007291666666666667@note_on channel=0 note=51 velocity=80 time=0@note_on channel=0 note=39 velocity=0 time=0.11770833333333333@note_on channel=0 note=51 velocity=0 time=0@note_on channel=0 note=48 velocity=80 time=0.007291666666666667@note_on channel=0 note=60 velocity=80 time=0@note_on channel=0 note=86 velocity=0 time=0.22395833333333334@note_on channel=0 note=48 velocity=0 time=0.25@note_on channel=0 note=60 velocity=0 time=0@note_on channel=0 note=43 velocity=80 time=0.026041666666666668@note_on channel=0 note=55 velocity=80 time=0@note_on channel=0 note=89 velocity=80 time=0.25@note_on channel=0 note=43 velocity=0 time=0.22395833333333334@note_on channel=0 note=55 velocity=0 time=0@note_on channel=0 note=51 velocity=80 time=0.026041666666666668@note_on channel=0 note=63 velocity=80 time=0@note_on channel=0 note=89 velocity=0 time=0.4614583333333333@note_on channel=0 note=51 velocity=0 time=0.0125@note_on channel=0 note=63 velocity=0 time=0@note_on channel=0 note=88 velocity=80 time=0.026041666666666668@note_on channel=0 note=48 velocity=80 time=0@note_on channel=0 note=60 velocity=80 time=0@note_on channel=0 note=48 velocity=0 time=0.23645833333333333@note_on channel=0 note=60 velocity=0 time=0@note_on channel=0 note=46 velocity=80 time=0.013541666666666667@note_on channel=0 note=58 velocity=80 time=0@note_on channel=0 note=46 velocity=0 time=0.23645833333333333@note_on channel=0 note=58 velocity=0 time=0@note_on channel=0 note=48 velocity=80 time=0.013541666666666667@note_on channel=0 note=60 velocity=80 time=0@note_on channel=0 note=88 velocity=0 time=0.21145833333333333@note_on channel=0 note=48 velocity=0 time=0.025@note_on channel=0 note=60 velocity=0 time=0@note_on channel=0 note=84 velocity=80 time=0.013541666666666667@note_on channel=0 note=46 velocity=80 time=0@note_on channel=0 note=58 velocity=80 time=0@note_on channel=0 note=46 velocity=0 time=0.23645833333333333@note_on channel=0 note=58 velocity=0 time=0@note_on channel=0 note=45 velocity=80 time=0.013541666666666667@note_on channel=0 note=57 velocity=80 time=0@note_on channel=0 note=84 velocity=0 time=0.22395833333333334@note_on channel=0 note=45 velocity=0 time=0.0125@note_on channel=0 note=57 velocity=0 time=0@<meta message end_of_track time=0.0010416666666666667>@