control_change channel=0 control=121 value=0 time=0@program_change channel=0 program=0 time=0@control_change channel=0 control=7 value=100 time=0@control_change channel=0 control=10 value=64 time=0@control_change channel=0 control=91 value=0 time=0@control_change channel=0 control=93 value=0 time=0@note_on channel=0 note=60 velocity=96 time=0@control_change channel=1 control=121 value=0 time=0@program_change channel=1 program=0 time=0@control_change channel=1 control=7 value=100 time=0@control_change channel=1 control=10 value=64 time=0@control_change channel=1 control=91 value=0 time=0@control_change channel=1 control=93 value=0 time=0@note_on channel=1 note=48 velocity=96 time=0@note_on channel=0 note=60 velocity=0 time=0.23900049791666667@note_on channel=1 note=48 velocity=0 time=0@note_on channel=0 note=55 velocity=96 time=0.0010000020833333333@note_on channel=0 note=59 velocity=96 time=0@note_on channel=1 note=43 velocity=96 time=0@note_on channel=1 note=47 velocity=96 time=0@note_on channel=0 note=55 velocity=0 time=0.055000114583333336@note_on channel=0 note=59 velocity=0 time=0@note_on channel=1 note=43 velocity=0 time=0@note_on channel=1 note=47 velocity=0 time=0@note_on channel=0 note=60 velocity=96 time=0.0010000020833333333@note_on channel=1 note=48 velocity=96 time=0@note_on channel=0 note=60 velocity=0 time=0.23900049791666667@note_on channel=1 note=48 velocity=0 time=0@note_on channel=0 note=55 velocity=96 time=0.0010000020833333333@note_on channel=0 note=59 velocity=96 time=0@note_on channel=1 note=43 velocity=96 time=0@note_on channel=1 note=47 velocity=96 time=0@note_on channel=0 note=55 velocity=0 time=0.055000114583333336@note_on channel=0 note=59 velocity=0 time=0@note_on channel=1 note=43 velocity=0 time=0@note_on channel=1 note=47 velocity=0 time=0@note_on channel=0 note=56 velocity=96 time=0.0010000020833333333@note_on channel=1 note=44 velocity=96 time=0@note_on channel=0 note=56 velocity=0 time=0.23900049791666667@note_on channel=1 note=44 velocity=0 time=0@note_on channel=0 note=56 velocity=96 time=0.0010000020833333333@note_on channel=1 note=44 velocity=96 time=0@note_on channel=0 note=56 velocity=0 time=0.23900049791666667@note_on channel=1 note=44 velocity=0 time=0@note_on channel=0 note=53 velocity=96 time=0.0010000020833333333@note_on channel=1 note=41 velocity=96 time=0@note_on channel=0 note=53 velocity=0 time=0.23900049791666667@note_on channel=1 note=41 velocity=0 time=0@note_on channel=0 note=55 velocity=96 time=0.0010000020833333333@note_on channel=1 note=43 velocity=96 time=0@note_on channel=0 note=55 velocity=0 time=0.21500044791666667@note_on channel=1 note=43 velocity=0 time=0@note_on channel=0 note=67 velocity=80 time=0.0010000020833333333@note_on channel=0 note=71 velocity=80 time=0@note_on channel=0 note=67 velocity=0 time=0.007000014583333334@note_on channel=0 note=71 velocity=0 time=0@note_on channel=0 note=72 velocity=16 time=0.0010000020833333333@note_on channel=1 note=36 velocity=64 time=0@note_on channel=1 note=48 velocity=64 time=0@note_on channel=0 note=72 velocity=0 time=0.06700013958333334@note_on channel=0 note=74 velocity=24 time=0.0010000020833333333@note_on channel=0 note=74 velocity=0 time=0.06700013958333334@note_on channel=0 note=72 velocity=28 time=0.0010000020833333333@note_on channel=0 note=72 velocity=0 time=0.06700013958333334@note_on channel=0 note=75 velocity=32 time=0.0010000020833333333@note_on channel=0 note=75 velocity=0 time=0.06700013958333334@note_on channel=0 note=72 velocity=36 time=0.0010000020833333333@note_on channel=0 note=72 velocity=0 time=0.06700013958333334@note_on channel=0 note=74 velocity=40 time=0.0010000020833333333@note_on channel=0 note=74 velocity=0 time=0.06700013958333334@note_on channel=0 note=72 velocity=44 time=0.0010000020833333333@note_on channel=0 note=72 velocity=0 time=0.06700013958333334@note_on channel=0 note=72 velocity=48 time=0.0010000020833333333@note_on channel=0 note=72 velocity=0 time=0.06700013958333334@note_on channel=0 note=74 velocity=56 time=0.0010000020833333333@note_on channel=0 note=74 velocity=0 time=0.06700013958333334@note_on channel=0 note=72 velocity=60 time=0.0010000020833333333@note_on channel=0 note=72 velocity=0 time=0.0050000104166666665@note_on channel=0 note=75 velocity=64 time=0.0010000020833333333@note_on channel=0 note=75 velocity=0 time=0.06700013958333334@note_on channel=0 note=72 velocity=68 time=0.0010000020833333333@note_on channel=0 note=72 velocity=0 time=0.06700013958333334@note_on channel=0 note=74 velocity=72 time=0.0010000020833333333@note_on channel=0 note=74 velocity=0 time=0.06700013958333334@note_on channel=0 note=72 velocity=76 time=0.0010000020833333333@note_on channel=1 note=36 velocity=0 time=0.047000097916666664@note_on channel=1 note=48 velocity=0 time=0@note_on channel=0 note=72 velocity=0 time=0.06700013958333334@note_on channel=0 note=72 velocity=80 time=0.0010000020833333333@note_on channel=1 note=32 velocity=64 time=0@note_on channel=1 note=44 velocity=64 time=0@note_on channel=0 note=72 velocity=0 time=0.06700013958333334@note_on channel=0 note=74 velocity=80 time=0.0010000020833333333@note_on channel=0 note=74 velocity=0 time=0.06700013958333334@note_on channel=0 note=72 velocity=76 time=0.0010000020833333333@note_on channel=0 note=72 velocity=0 time=0.06700013958333334@note_on channel=0 note=75 velocity=71 time=0.0010000020833333333@note_on channel=0 note=75 velocity=0 time=0.06700013958333334@note_on channel=0 note=72 velocity=67 time=0.0010000020833333333@note_on channel=0 note=72 velocity=0 time=0.06700013958333334@note_on channel=0 note=74 velocity=62 time=0.0010000020833333333@note_on channel=0 note=74 velocity=0 time=0.06700013958333334@note_on channel=0 note=72 velocity=58 time=0.0010000020833333333@note_on channel=0 note=72 velocity=0 time=0.06700013958333334@note_on channel=0 note=72 velocity=53 time=0.0010000020833333333@note_on channel=0 note=72 velocity=0 time=0.06700013958333334@note_on channel=0 note=74 velocity=44 time=0.0010000020833333333@note_on channel=0 note=74 velocity=0 time=0.06700013958333334@note_on channel=0 note=72 velocity=39 time=0.0010000020833333333@note_on channel=0 note=72 velocity=0 time=0.06700013958333334@note_on channel=0 note=75 velocity=35 time=0.0010000020833333333@note_on channel=0 note=75 velocity=0 time=0.06700013958333334@note_on channel=0 note=72 velocity=30 time=0.0010000020833333333@note_on channel=0 note=72 velocity=0 time=0.047000097916666664@note_on channel=0 note=74 velocity=26 time=0.0010000020833333333@note_on channel=0 note=74 velocity=0 time=0.06700013958333334@note_on channel=0 note=72 velocity=21 time=0.0010000020833333333@note_on channel=1 note=32 velocity=0 time=0.047000097916666664@note_on channel=1 note=44 velocity=0 time=0@note_on channel=0 note=72 velocity=0 time=0.028000058333333334@note_on channel=0 note=72 velocity=16 time=0.0010000020833333333@note_on channel=1 note=29 velocity=64 time=0@note_on channel=1 note=41 velocity=64 time=0@note_on channel=0 note=72 velocity=0 time=0.06700013958333334@note_on channel=0 note=74 velocity=24 time=0.0010000020833333333@note_on channel=0 note=74 velocity=0 time=0.06700013958333334@note_on channel=0 note=72 velocity=28 time=0.0010000020833333333@note_on channel=0 note=72 velocity=0 time=0.06700013958333334@note_on channel=0 note=75 velocity=32 time=0.0010000020833333333@note_on channel=0 note=75 velocity=0 time=0.06700013958333334@note_on channel=0 note=72 velocity=36 time=0.0010000020833333333@note_on channel=0 note=72 velocity=0 time=0.06700013958333334@note_on channel=0 note=74 velocity=40 time=0.0010000020833333333@note_on channel=0 note=74 velocity=0 time=0.06700013958333334@note_on channel=0 note=72 velocity=44 time=0.0010000020833333333@note_on channel=0 note=72 velocity=0 time=0.06700013958333334@note_on channel=0 note=72 velocity=48 time=0.0010000020833333333@note_on channel=0 note=72 velocity=0 time=0.06700013958333334@note_on channel=0 note=74 velocity=56 time=0.0010000020833333333@note_on channel=0 note=74 velocity=0 time=0.06700013958333334@note_on channel=0 note=72 velocity=60 time=0.0010000020833333333@note_on channel=0 note=72 velocity=0 time=0.06700013958333334@note_on channel=0 note=75 velocity=64 time=0.0010000020833333333@note_on channel=0 note=75 velocity=0 time=0.06700013958333334@note_on channel=0 note=72 velocity=68 time=0.0010000020833333333@note_on channel=0 note=72 velocity=0 time=0.011000022916666666@note_on channel=0 note=74 velocity=72 time=0.0010000020833333333@note_on channel=0 note=74 velocity=0 time=0.06700013958333334@note_on channel=0 note=72 velocity=76 time=0.0010000020833333333@note_on channel=1 note=29 velocity=0 time=0.047000097916666664@note_on channel=1 note=41 velocity=0 time=0@note_on channel=0 note=72 velocity=0 time=0.047000097916666664@note_on channel=0 note=72 velocity=80 time=0.0010000020833333333@note_on channel=1 note=27 velocity=64 time=0@note_on channel=1 note=39 velocity=64 time=0@note_on channel=0 note=72 velocity=0 time=0.06700013958333334@note_on channel=0 note=74 velocity=80 time=0.0010000020833333333@note_on channel=0 note=74 velocity=0 time=0.06700013958333334@note_on channel=0 note=72 velocity=80 time=0.0010000020833333333@note_on channel=0 note=72 velocity=0 time=0.06700013958333334@note_on channel=0 note=75 velocity=80 time=0.0010000020833333333@note_on channel=0 note=75 velocity=0 time=0.06700013958333334@note_on channel=0 note=72 velocity=80 time=0.0010000020833333333@note_on channel=0 note=72 velocity=0 time=0.06700013958333334@note_on channel=0 note=74 velocity=80 time=0.0010000020833333333@note_on channel=0 note=74 velocity=0 time=0.06700013958333334@note_on channel=0 note=72 velocity=80 time=0.0010000020833333333@note_on channel=1 note=27 velocity=0 time=0.024000050000000002@note_on channel=1 note=39 velocity=0 time=0@note_on channel=0 note=72 velocity=0 time=0.06700013958333334@note_on channel=0 note=72 velocity=80 time=0.0010000020833333333@note_on channel=1 note=26 velocity=64 time=0@note_on channel=1 note=38 velocity=64 time=0@note_on channel=0 note=72 velocity=0 time=0.06700013958333334@note_on channel=0 note=74 velocity=80 time=0.0010000020833333333@note_on channel=0 note=74 velocity=0 time=0.06700013958333334@note_on channel=0 note=72 velocity=80 time=0.0010000020833333333@note_on channel=0 note=72 velocity=0 time=0.028000058333333334@note_on channel=0 note=75 velocity=80 time=0.0010000020833333333@note_on channel=0 note=75 velocity=0 time=0.004000008333333333@note_on channel=0 note=72 velocity=80 time=0.0010000020833333333@note_on channel=0 note=72 velocity=0 time=0.004000008333333333@note_on channel=0 note=74 velocity=80 time=0.0010000020833333333@note_on channel=0 note=74 velocity=0 time=0.004000008333333333@note_on channel=0 note=72 velocity=80 time=0.0010000020833333333@note_on channel=1 note=26 velocity=0 time=0.010000020833333333@note_on channel=1 note=38 velocity=0 time=0@note_on channel=0 note=72 velocity=0 time=0.004000008333333333@note_on channel=1 note=24 velocity=96 time=0.0010000020833333333@note_on channel=1 note=36 velocity=96 time=0@note_on channel=1 note=24 velocity=0 time=0.19100039791666668@note_on channel=1 note=36 velocity=0 time=0@note_on channel=1 note=36 velocity=96 time=0.0010000020833333333@note_on channel=1 note=48 velocity=96 time=0@note_on channel=1 note=36 velocity=0 time=0.15900033125@note_on channel=1 note=48 velocity=0 time=0@note_on channel=1 note=39 velocity=96 time=0.12100025208333333@note_on channel=1 note=51 velocity=96 time=0@note_on channel=1 note=39 velocity=0 time=0.03900008125@note_on channel=1 note=51 velocity=0 time=0@note_on channel=1 note=36 velocity=96 time=0.12100025208333333@note_on channel=1 note=48 velocity=96 time=0@note_on channel=1 note=36 velocity=0 time=0.23900049791666667@note_on channel=1 note=48 velocity=0 time=0@note_on channel=1 note=38 velocity=96 time=0.0010000020833333333@note_on channel=1 note=50 velocity=96 time=0@note_on channel=1 note=38 velocity=0 time=0.11900024791666666@note_on channel=1 note=50 velocity=0 time=0@note_on channel=1 note=39 velocity=96 time=0.0010000020833333333@note_on channel=1 note=51 velocity=96 time=0@note_on channel=1 note=39 velocity=0 time=0.11900024791666666@note_on channel=1 note=51 velocity=0 time=0@note_on channel=1 note=38 velocity=96 time=0.0010000020833333333@note_on channel=1 note=50 velocity=96 time=0@note_on channel=1 note=38 velocity=0 time=0.11900024791666666@note_on channel=1 note=50 velocity=0 time=0@note_on channel=1 note=36 velocity=96 time=0.0010000020833333333@note_on channel=1 note=48 velocity=96 time=0@note_on channel=1 note=36 velocity=0 time=0.11900024791666666@note_on channel=1 note=48 velocity=0 time=0@note_on channel=1 note=32 velocity=96 time=0.0010000020833333333@note_on channel=1 note=44 velocity=96 time=0@note_on channel=1 note=32 velocity=0 time=0.08000016666666666@note_on channel=1 note=44 velocity=0 time=0@note_on channel=1 note=29 velocity=96 time=0.0010000020833333333@note_on channel=1 note=41 velocity=96 time=0@note_on channel=1 note=29 velocity=0 time=0.0010000020833333333@note_on channel=1 note=41 velocity=0 time=0@note_on channel=1 note=31 velocity=96 time=0.0010000020833333333@note_on channel=1 note=43 velocity=96 time=0@note_on channel=1 note=31 velocity=0 time=0.0010000020833333333@note_on channel=1 note=43 velocity=0 time=0@note_on channel=1 note=32 velocity=96 time=0.048000100000000004@note_on channel=1 note=44 velocity=96 time=0@note_on channel=1 note=32 velocity=0 time=0.11900024791666666@note_on channel=1 note=44 velocity=0 time=0@note_on channel=1 note=29 velocity=96 time=0.047000097916666664@note_on channel=1 note=41 velocity=96 time=0@note_on channel=1 note=29 velocity=0 time=0.058000120833333335@note_on channel=1 note=41 velocity=0 time=0@note_on channel=1 note=27 velocity=96 time=0.0010000020833333333@note_on channel=1 note=39 velocity=96 time=0@note_on channel=1 note=27 velocity=0 time=0.0010000020833333333@note_on channel=1 note=39 velocity=0 time=0@note_on channel=1 note=29 velocity=96 time=0.0010000020833333333@note_on channel=1 note=41 velocity=96 time=0@note_on channel=1 note=29 velocity=0 time=0.0010000020833333333@note_on channel=1 note=41 velocity=0 time=0@note_on channel=1 note=31 velocity=96 time=0.048000100000000004@note_on channel=1 note=43 velocity=96 time=0@note_on channel=1 note=31 velocity=0 time=0.19100039791666668@note_on channel=1 note=43 velocity=0 time=0@note_on channel=1 note=23 velocity=96 time=0.0010000020833333333@note_on channel=1 note=35 velocity=96 time=0@note_on channel=1 note=23 velocity=0 time=0.11900024791666666@note_on channel=1 note=35 velocity=0 time=0@note_on channel=1 note=24 velocity=96 time=0.0010000020833333333@note_on channel=1 note=36 velocity=96 time=0@note_on channel=1 note=24 velocity=0 time=0.08000016666666666@note_on channel=1 note=36 velocity=0 time=0@note_on channel=0 note=68 velocity=96 time=0.0010000020833333333@note_on channel=0 note=75 velocity=96 time=0@note_on channel=0 note=82 velocity=96 time=0@note_on channel=1 note=34 velocity=96 time=0@note_on channel=1 note=41 velocity=96 time=0@note_on channel=1 note=34 velocity=0 time=0.08100016875@note_on channel=1 note=41 velocity=0 time=0@note_on channel=0 note=68 velocity=0 time=0.13500028125@note_on channel=0 note=75 velocity=0 time=0@note_on channel=0 note=82 velocity=0 time=0@note_on channel=1 note=27 velocity=96 time=0.0010000020833333333@note_on channel=1 note=39 velocity=96 time=0@note_on channel=1 note=27 velocity=0 time=0.23900049791666667@note_on channel=1 note=39 velocity=0 time=0@note_on channel=0 note=65 velocity=96 time=0.0010000020833333333@note_on channel=0 note=68 velocity=96 time=0@note_on channel=0 note=77 velocity=96 time=0@note_on channel=0 note=65 velocity=0 time=0.22700047291666667@note_on channel=0 note=68 velocity=0 time=0@note_on channel=0 note=77 velocity=0 time=0@note_on channel=1 note=24 velocity=64 time=0.0010000020833333333@note_on channel=1 note=36 velocity=64 time=0@note_on channel=0 note=65 velocity=96 time=0.16000033333333333@note_on channel=0 note=68 velocity=96 time=0@note_on channel=0 note=77 velocity=96 time=0@note_on channel=1 note=24 velocity=0 time=0.06700013958333334@note_on channel=1 note=36 velocity=0 time=0@note_on channel=0 note=65 velocity=0 time=0.007000014583333334@note_on channel=0 note=68 velocity=0 time=0@note_on channel=0 note=77 velocity=0 time=0@note_on channel=1 note=27 velocity=80 time=0.0020000041666666667@note_on channel=1 note=39 velocity=80 time=0@note_on channel=1 note=27 velocity=0 time=0.22700047291666667@note_on channel=1 note=39 velocity=0 time=0@note_on channel=0 note=63 velocity=96 time=0.0010000020833333333@note_on channel=0 note=66 velocity=96 time=0@note_on channel=0 note=75 velocity=96 time=0@note_on channel=0 note=63 velocity=0 time=0.22700047291666667@note_on channel=0 note=66 velocity=0 time=0@note_on channel=0 note=75 velocity=0 time=0@note_on channel=1 note=29 velocity=80 time=0.0010000020833333333@note_on channel=1 note=41 velocity=80 time=0@note_on channel=0 note=63 velocity=96 time=0.16000033333333333@note_on channel=0 note=66 velocity=96 time=0@note_on channel=0 note=75 velocity=96 time=0@note_on channel=1 note=29 velocity=0 time=0.06700013958333334@note_on channel=1 note=41 velocity=0 time=0@note_on channel=0 note=63 velocity=0 time=0.007000014583333334@note_on channel=0 note=66 velocity=0 time=0@note_on channel=0 note=75 velocity=0 time=0@note_on channel=0 note=55 velocity=80 time=0.0020000041666666667@note_on channel=1 note=30 velocity=96 time=0@note_on channel=1 note=42 velocity=96 time=0@note_on channel=0 note=55 velocity=0 time=0.07500015625@note_on channel=0 note=57 velocity=80 time=0.0050000104166666665@note_on channel=0 note=57 velocity=0 time=0.07500015625@note_on channel=0 note=59 velocity=80 time=0.0050000104166666665@note_on channel=1 note=30 velocity=0 time=0.06700013958333334@note_on channel=1 note=42 velocity=0 time=0@note_on channel=0 note=59 velocity=0 time=0.008000016666666667@note_on channel=0 note=61 velocity=80 time=0.0010000020833333333@note_on channel=0 note=61 velocity=0 time=0.07500015625@note_on channel=0 note=63 velocity=80 time=0.0050000104166666665@note_on channel=0 note=63 velocity=0 time=0.07500015625@note_on channel=0 note=65 velocity=80 time=0.0050000104166666665@note_on channel=0 note=65 velocity=0 time=0.07500015625@note_on channel=0 note=67 velocity=80 time=0.0010000020833333333@note_on channel=0 note=67 velocity=0 time=0.07500015625@note_on channel=0 note=69 velocity=80 time=0.0050000104166666665@note_on channel=0 note=69 velocity=0 time=0.18300038125@note_on channel=0 note=55 velocity=80 time=0.08000016666666666@note_on channel=0 note=55 velocity=0 time=0.07500015625@note_on channel=0 note=57 velocity=80 time=0.0050000104166666665@note_on channel=0 note=57 velocity=0 time=0.07500015625@note_on channel=0 note=59 velocity=80 time=0.0010000020833333333@note_on channel=0 note=59 velocity=0 time=0.07500015625@note_on channel=0 note=61 velocity=80 time=0.0050000104166666665@note_on channel=0 note=61 velocity=0 time=0.07500015625@note_on channel=0 note=63 velocity=80 time=0.0050000104166666665@note_on channel=0 note=63 velocity=0 time=0.07500015625@note_on channel=0 note=65 velocity=80 time=0.0010000020833333333@note_on channel=0 note=65 velocity=0 time=0.07500015625@note_on channel=0 note=67 velocity=80 time=0.0050000104166666665@note_on channel=0 note=67 velocity=0 time=0.18300038125@note_on channel=0 note=56 velocity=80 time=0.08000016666666666@note_on channel=0 note=56 velocity=0 time=0.07500015625@note_on channel=0 note=58 velocity=80 time=0.0050000104166666665@note_on channel=0 note=58 velocity=0 time=0.07500015625@note_on channel=0 note=59 velocity=80 time=0.0010000020833333333@note_on channel=0 note=59 velocity=0 time=0.07500015625@note_on channel=0 note=62 velocity=80 time=0.0050000104166666665@note_on channel=0 note=62 velocity=0 time=0.07500015625@note_on channel=0 note=64 velocity=80 time=0.0050000104166666665@note_on channel=0 note=64 velocity=0 time=0.07500015625@note_on channel=0 note=66 velocity=80 time=0.0010000020833333333@note_on channel=0 note=66 velocity=0 time=0.07500015625@note_on channel=0 note=68 velocity=80 time=0.0050000104166666665@note_on channel=0 note=68 velocity=0 time=0.06300013125@note_on channel=0 note=71 velocity=96 time=0.0010000020833333333@note_on channel=0 note=83 velocity=96 time=0@note_on channel=1 note=39 velocity=96 time=0@note_on channel=1 note=44 velocity=96 time=0@note_on channel=1 note=51 velocity=96 time=0@note_on channel=0 note=71 velocity=0 time=0.21600045@note_on channel=0 note=83 velocity=0 time=0@note_on channel=1 note=39 velocity=0 time=0@note_on channel=1 note=44 velocity=0 time=0@note_on channel=1 note=51 velocity=0 time=0@note_on channel=1 note=39 velocity=96 time=0.0010000020833333333@note_on channel=1 note=51 velocity=96 time=0@note_on channel=1 note=39 velocity=0 time=0.20300042291666667@note_on channel=1 note=51 velocity=0 time=0@note_on channel=0 note=72 velocity=96 time=0.0010000020833333333@note_on channel=0 note=75 velocity=96 time=0@note_on channel=0 note=84 velocity=96 time=0@note_on channel=0 note=72 velocity=0 time=0.22700047291666667@note_on channel=0 note=75 velocity=0 time=0@note_on channel=0 note=84 velocity=0 time=0@note_on channel=1 note=36 velocity=96 time=0.0010000020833333333@note_on channel=1 note=48 velocity=96 time=0@note_on channel=0 note=72 velocity=96 time=0.16000033333333333@note_on channel=0 note=75 velocity=96 time=0@note_on channel=0 note=84 velocity=96 time=0@note_on channel=0 note=72 velocity=0 time=0.07400015416666667@note_on channel=0 note=75 velocity=0 time=0@note_on channel=0 note=84 velocity=0 time=0@note_on channel=1 note=36 velocity=0 time=0.0050000104166666665@note_on channel=1 note=48 velocity=0 time=0@note_on channel=1 note=39 velocity=96 time=0.0020000041666666667@note_on channel=1 note=51 velocity=96 time=0@note_on channel=1 note=39 velocity=0 time=0.22700047291666667@note_on channel=1 note=51 velocity=0 time=0@note_on channel=0 note=70 velocity=96 time=0.0010000020833333333@note_on channel=0 note=72 velocity=96 time=0@note_on channel=0 note=82 velocity=96 time=0@note_on channel=0 note=70 velocity=0 time=0.22700047291666667@note_on channel=0 note=72 velocity=0 time=0@note_on channel=0 note=82 velocity=0 time=0@note_on channel=1 note=41 velocity=112 time=0.0010000020833333333@note_on channel=1 note=53 velocity=112 time=0@note_on channel=0 note=70 velocity=96 time=0.16000033333333333@note_on channel=0 note=72 velocity=96 time=0@note_on channel=0 note=82 velocity=96 time=0@note_on channel=1 note=41 velocity=0 time=0.06700013958333334@note_on channel=1 note=53 velocity=0 time=0@note_on channel=0 note=70 velocity=0 time=0.007000014583333334@note_on channel=0 note=72 velocity=0 time=0@note_on channel=0 note=82 velocity=0 time=0@note_on channel=1 note=42 velocity=126 time=0.0020000041666666667@note_on channel=1 note=54 velocity=126 time=0@note_on channel=1 note=42 velocity=0 time=0.22700047291666667@note_on channel=1 note=54 velocity=0 time=0@note_on channel=0 note=66 velocity=96 time=0.0010000020833333333@note_on channel=0 note=72 velocity=96 time=0@note_on channel=0 note=78 velocity=96 time=0@note_on channel=1 note=36 velocity=64 time=0@note_on channel=1 note=48 velocity=64 time=0@note_on channel=1 note=36 velocity=0 time=0.11900024791666666@note_on channel=1 note=48 velocity=0 time=0@note_on channel=1 note=39 velocity=64 time=0.0010000020833333333@note_on channel=1 note=51 velocity=64 time=0@note_on channel=1 note=39 velocity=0 time=0.11900024791666666@note_on channel=1 note=51 velocity=0 time=0@note_on channel=0 note=66 velocity=0 time=0.09600020000000001@note_on channel=0 note=72 velocity=0 time=0@note_on channel=0 note=78 velocity=0 time=0@note_on channel=1 note=38 velocity=63 time=0.0010000020833333333@note_on channel=1 note=50 velocity=63 time=0@note_on channel=1 note=38 velocity=0 time=0.11900024791666666@note_on channel=1 note=50 velocity=0 time=0@note_on channel=1 note=37 velocity=62 time=0.0020000041666666667@note_on channel=1 note=49 velocity=62 time=0@note_on channel=1 note=37 velocity=0 time=0.22700047291666667@note_on channel=1 note=49 velocity=0 time=0@note_on channel=1 note=36 velocity=60 time=0.0010000020833333333@note_on channel=1 note=48 velocity=60 time=0@note_on channel=1 note=36 velocity=0 time=0.05900012291666667@note_on channel=1 note=48 velocity=0 time=0@note_on channel=1 note=39 velocity=60 time=0.10100021041666667@note_on channel=1 note=51 velocity=60 time=0@note_on channel=1 note=39 velocity=0 time=0.0180000375@note_on channel=1 note=51 velocity=0 time=0@note_on channel=1 note=38 velocity=58 time=0.14200029583333335@note_on channel=1 note=50 velocity=58 time=0@note_on channel=1 note=38 velocity=0 time=0.038000079166666666@note_on channel=1 note=38 velocity=57 time=0.0010000020833333333@note_on channel=1 note=50 velocity=0 time=0.026000054166666668@note_on channel=1 note=38 velocity=0 time=0.041000085416666665@note_on channel=1 note=37 velocity=56 time=0.0020000041666666667@note_on channel=1 note=49 velocity=56 time=0@note_on channel=1 note=37 velocity=0 time=0.22700047291666667@note_on channel=1 note=49 velocity=0 time=0@note_on channel=1 note=36 velocity=55 time=0.0010000020833333333@note_on channel=1 note=48 velocity=55 time=0@note_on channel=1 note=36 velocity=0 time=0.11900024791666666@note_on channel=1 note=48 velocity=0 time=0@note_on channel=1 note=39 velocity=53 time=0.0010000020833333333@note_on channel=1 note=51 velocity=53 time=0@note_on channel=1 note=39 velocity=0 time=0.11900024791666666@note_on channel=1 note=51 velocity=0 time=0@note_on channel=1 note=38 velocity=52 time=0.0010000020833333333@note_on channel=1 note=50 velocity=52 time=0@note_on channel=1 note=38 velocity=0 time=0.11900024791666666@note_on channel=1 note=50 velocity=0 time=0@note_on channel=1 note=37 velocity=50 time=0.0020000041666666667@note_on channel=1 note=49 velocity=50 time=0@note_on channel=1 note=37 velocity=0 time=0.22700047291666667@note_on channel=1 note=49 velocity=0 time=0@note_on channel=1 note=36 velocity=49 time=0.0010000020833333333@note_on channel=1 note=48 velocity=49 time=0@note_on channel=1 note=36 velocity=0 time=0.05900012291666667@note_on channel=1 note=48 velocity=0 time=0@note_on channel=1 note=39 velocity=48 time=0.10100021041666667@note_on channel=1 note=51 velocity=48 time=0@note_on channel=1 note=39 velocity=0 time=0.0180000375@note_on channel=1 note=51 velocity=0 time=0@note_on channel=1 note=38 velocity=47 time=0.14200029583333335@note_on channel=1 note=50 velocity=47 time=0@note_on channel=1 note=38 velocity=0 time=0.038000079166666666@note_on channel=1 note=38 velocity=46 time=0.0010000020833333333@note_on channel=1 note=50 velocity=0 time=0.026000054166666668@note_on channel=1 note=38 velocity=0 time=0.041000085416666665@note_on channel=1 note=37 velocity=45 time=0.0020000041666666667@note_on channel=1 note=49 velocity=45 time=0@note_on channel=1 note=37 velocity=0 time=0.22700047291666667@note_on channel=1 note=49 velocity=0 time=0@note_on channel=1 note=36 velocity=43 time=0.0010000020833333333@note_on channel=1 note=48 velocity=43 time=0@note_on channel=1 note=36 velocity=0 time=0.11900024791666666@note_on channel=1 note=48 velocity=0 time=0@note_on channel=1 note=39 velocity=42 time=0.0010000020833333333@note_on channel=1 note=51 velocity=42 time=0@note_on channel=1 note=39 velocity=0 time=0.11900024791666666@note_on channel=1 note=51 velocity=0 time=0@note_on channel=1 note=38 velocity=41 time=0.0010000020833333333@note_on channel=1 note=50 velocity=41 time=0@note_on channel=1 note=38 velocity=0 time=0.11900024791666666@note_on channel=1 note=50 velocity=0 time=0@note_on channel=1 note=37 velocity=39 time=0.0020000041666666667@note_on channel=1 note=49 velocity=39 time=0@note_on channel=1 note=37 velocity=0 time=0.22700047291666667@note_on channel=1 note=49 velocity=0 time=0@note_on channel=1 note=36 velocity=38 time=0.0010000020833333333@note_on channel=1 note=48 velocity=38 time=0@note_on channel=1 note=36 velocity=0 time=0.05900012291666667@note_on channel=1 note=48 velocity=0 time=0@note_on channel=1 note=39 velocity=37 time=0.10100021041666667@note_on channel=1 note=51 velocity=37 time=0@note_on channel=1 note=39 velocity=0 time=0.0180000375@note_on channel=1 note=51 velocity=0 time=0@note_on channel=1 note=38 velocity=36 time=0.14200029583333335@note_on channel=1 note=50 velocity=36 time=0@note_on channel=1 note=38 velocity=0 time=0.038000079166666666@note_on channel=1 note=38 velocity=35 time=0.0010000020833333333@note_on channel=1 note=50 velocity=0 time=0.026000054166666668@note_on channel=1 note=38 velocity=0 time=0.041000085416666665@note_on channel=1 note=37 velocity=33 time=0.0020000041666666667@note_on channel=1 note=49 velocity=33 time=0@note_on channel=1 note=37 velocity=0 time=0.22700047291666667@note_on channel=1 note=49 velocity=0 time=0@note_on channel=0 note=65 velocity=96 time=0.0010000020833333333@note_on channel=0 note=72 velocity=96 time=0@note_on channel=0 note=79 velocity=96 time=0@note_on channel=1 note=41 velocity=80 time=0@note_on channel=1 note=53 velocity=80 time=0@note_on channel=1 note=41 velocity=0 time=0.15300031875@note_on channel=1 note=53 velocity=0 time=0@note_on channel=1 note=24 velocity=49 time=0.007000014583333334@note_on channel=1 note=36 velocity=49 time=0@note_on channel=1 note=24 velocity=0 time=0.07400015416666667@note_on channel=1 note=36 velocity=0 time=0@note_on channel=1 note=29 velocity=49 time=0.0010000020833333333@note_on channel=1 note=41 velocity=49 time=0@note_on channel=0 note=65 velocity=0 time=0.21500044791666667@note_on channel=0 note=72 velocity=0 time=0@note_on channel=0 note=79 velocity=0 time=0@note_on channel=1 note=29 velocity=0 time=0.012000025000000001@note_on channel=1 note=41 velocity=0 time=0@note_on channel=1 note=32 velocity=53 time=0.0010000020833333333@note_on channel=1 note=44 velocity=53 time=0@note_on channel=1 note=32 velocity=0 time=0.06700013958333334@note_on channel=1 note=44 velocity=0 time=0@note_on channel=1 note=33 velocity=57 time=0.0020000041666666667@note_on channel=1 note=45 velocity=57 time=0@note_on channel=1 note=33 velocity=0 time=0.22700047291666667@note_on channel=1 note=45 velocity=0 time=0@note_on channel=1 note=34 velocity=61 time=0.0010000020833333333@note_on channel=1 note=46 velocity=61 time=0@note_on channel=1 note=34 velocity=0 time=0.15300031875@note_on channel=1 note=46 velocity=0 time=0@note_on channel=1 note=31 velocity=63 time=0.007000014583333334@note_on channel=1 note=43 velocity=63 time=0@note_on channel=1 note=31 velocity=0 time=0.07400015416666667@note_on channel=1 note=43 velocity=0 time=0@note_on channel=1 note=35 velocity=65 time=0.0010000020833333333@note_on channel=1 note=47 velocity=65 time=0@note_on channel=1 note=35 velocity=0 time=0.22700047291666667@note_on channel=1 note=47 velocity=0 time=0@note_on channel=1 note=36 velocity=69 time=0.0010000020833333333@note_on channel=1 note=48 velocity=69 time=0@note_on channel=1 note=36 velocity=0 time=0.06700013958333334@note_on channel=1 note=48 velocity=0 time=0@note_on channel=1 note=37 velocity=73 time=0.0020000041666666667@note_on channel=1 note=49 velocity=73 time=0@note_on channel=1 note=37 velocity=0 time=0.22700047291666667@note_on channel=1 note=49 velocity=0 time=0@note_on channel=1 note=38 velocity=77 time=0.0010000020833333333@note_on channel=1 note=50 velocity=77 time=0@note_on channel=1 note=38 velocity=0 time=0.15300031875@note_on channel=1 note=50 velocity=0 time=0@note_on channel=1 note=31 velocity=79 time=0.007000014583333334@note_on channel=1 note=43 velocity=79 time=0@note_on channel=1 note=31 velocity=0 time=0.07400015416666667@note_on channel=1 note=43 velocity=0 time=0@note_on channel=1 note=39 velocity=81 time=0.0010000020833333333@note_on channel=1 note=51 velocity=81 time=0@note_on channel=1 note=39 velocity=0 time=0.22700047291666667@note_on channel=1 note=51 velocity=0 time=0@note_on channel=1 note=40 velocity=85 time=0.0010000020833333333@note_on channel=1 note=52 velocity=85 time=0@note_on channel=1 note=40 velocity=0 time=0.06700013958333334@note_on channel=1 note=52 velocity=0 time=0@note_on channel=1 note=41 velocity=89 time=0.0020000041666666667@note_on channel=1 note=53 velocity=89 time=0@note_on channel=1 note=41 velocity=0 time=0.22700047291666667@note_on channel=1 note=53 velocity=0 time=0@note_on channel=1 note=42 velocity=93 time=0.0010000020833333333@note_on channel=1 note=54 velocity=93 time=0@note_on channel=1 note=42 velocity=0 time=0.15300031875@note_on channel=1 note=54 velocity=0 time=0@note_on channel=1 note=43 velocity=96 time=0.007000014583333334@note_on channel=1 note=55 velocity=96 time=0@note_on channel=1 note=43 velocity=0 time=0.30200062916666665@note_on channel=1 note=55 velocity=0 time=0@note_on channel=0 note=67 velocity=112 time=0.0180000375@note_on channel=0 note=71 velocity=112 time=0@note_on channel=0 note=79 velocity=112 time=0@note_on channel=0 note=67 velocity=0 time=0.4550009479166667@note_on channel=0 note=71 velocity=0 time=0@note_on channel=0 note=79 velocity=0 time=0@note_on channel=1 note=24 velocity=64 time=0.0010000020833333333@note_on channel=1 note=36 velocity=64 time=0@note_on channel=1 note=24 velocity=0 time=0.031000064583333334@note_on channel=1 note=36 velocity=0 time=0@note_on channel=1 note=22 velocity=64 time=0.0010000020833333333@note_on channel=1 note=34 velocity=64 time=0@note_on channel=1 note=22 velocity=0 time=0.031000064583333334@note_on channel=1 note=34 velocity=0 time=0@note_on channel=1 note=32 velocity=64 time=0.0010000020833333333@note_on channel=1 note=44 velocity=64 time=0@note_on channel=1 note=32 velocity=0 time=0.031000064583333334@note_on channel=1 note=44 velocity=0 time=0@note_on channel=1 note=31 velocity=64 time=0.0010000020833333333@note_on channel=1 note=43 velocity=64 time=0@note_on channel=1 note=31 velocity=0 time=0.031000064583333334@note_on channel=1 note=43 velocity=0 time=0@note_on channel=1 note=24 velocity=64 time=0.0010000020833333333@note_on channel=1 note=36 velocity=64 time=0@note_on channel=1 note=24 velocity=0 time=0.031000064583333334@note_on channel=1 note=36 velocity=0 time=0@note_on channel=1 note=22 velocity=64 time=0.0010000020833333333@note_on channel=1 note=34 velocity=64 time=0@note_on channel=1 note=22 velocity=0 time=0.031000064583333334@note_on channel=1 note=34 velocity=0 time=0@note_on channel=1 note=26 velocity=64 time=0.0010000020833333333@note_on channel=1 note=31 velocity=64 time=0@note_on channel=1 note=26 velocity=0 time=0.031000064583333334@note_on channel=1 note=31 velocity=0 time=0@note_on channel=1 note=31 velocity=64 time=0.0010000020833333333@note_on channel=1 note=43 velocity=64 time=0@note_on channel=1 note=31 velocity=0 time=0.013000027083333334@note_on channel=1 note=43 velocity=0 time=0@note_on channel=0 note=60 velocity=96 time=0@note_on channel=1 note=48 velocity=96 time=0@note_on channel=0 note=60 velocity=0 time=0.23900049791666667@note_on channel=1 note=48 velocity=0 time=0@note_on channel=0 note=55 velocity=96 time=0.0010000020833333333@note_on channel=0 note=59 velocity=96 time=0@note_on channel=1 note=43 velocity=96 time=0@note_on channel=1 note=47 velocity=96 time=0@note_on channel=0 note=55 velocity=0 time=0.055000114583333336@note_on channel=0 note=59 velocity=0 time=0@note_on channel=1 note=43 velocity=0 time=0@note_on channel=1 note=47 velocity=0 time=0@note_on channel=0 note=60 velocity=96 time=0.0010000020833333333@note_on channel=1 note=48 velocity=96 time=0@note_on channel=0 note=60 velocity=0 time=0.23900049791666667@note_on channel=1 note=48 velocity=0 time=0@note_on channel=0 note=55 velocity=96 time=0.0010000020833333333@note_on channel=0 note=59 velocity=96 time=0@note_on channel=1 note=43 velocity=96 time=0@note_on channel=1 note=47 velocity=96 time=0@note_on channel=0 note=55 velocity=0 time=0.055000114583333336@note_on channel=0 note=59 velocity=0 time=0@note_on channel=1 note=43 velocity=0 time=0@note_on channel=1 note=47 velocity=0 time=0@note_on channel=0 note=56 velocity=96 time=0.0010000020833333333@note_on channel=1 note=44 velocity=96 time=0@note_on channel=0 note=56 velocity=0 time=0.23900049791666667@note_on channel=1 note=44 velocity=0 time=0@note_on channel=0 note=56 velocity=96 time=0.0010000020833333333@note_on channel=1 note=44 velocity=96 time=0@note_on channel=0 note=56 velocity=0 time=0.23900049791666667@note_on channel=1 note=44 velocity=0 time=0@note_on channel=0 note=53 velocity=96 time=0.0010000020833333333@note_on channel=1 note=41 velocity=96 time=0@note_on channel=0 note=53 velocity=0 time=0.23900049791666667@note_on channel=1 note=41 velocity=0 time=0@note_on channel=0 note=55 velocity=96 time=0.0010000020833333333@note_on channel=1 note=43 velocity=96 time=0@note_on channel=0 note=55 velocity=0 time=0.21500044791666667@note_on channel=1 note=43 velocity=0 time=0@note_on channel=0 note=67 velocity=80 time=0.0010000020833333333@note_on channel=0 note=71 velocity=80 time=0@note_on channel=0 note=67 velocity=0 time=0.007000014583333334@note_on channel=0 note=71 velocity=0 time=0@note_on channel=0 note=72 velocity=16 time=0.0010000020833333333@note_on channel=1 note=36 velocity=64 time=0@note_on channel=1 note=48 velocity=64 time=0@note_on channel=0 note=72 velocity=0 time=0.06700013958333334@note_on channel=0 note=74 velocity=24 time=0.0010000020833333333@note_on channel=0 note=74 velocity=0 time=0.06700013958333334@note_on channel=0 note=72 velocity=28 time=0.0010000020833333333@note_on channel=0 note=72 velocity=0 time=0.06700013958333334@note_on channel=0 note=75 velocity=32 time=0.0010000020833333333@note_on channel=0 note=75 velocity=0 time=0.06700013958333334@note_on channel=0 note=72 velocity=36 time=0.0010000020833333333@note_on channel=0 note=72 velocity=0 time=0.06700013958333334@note_on channel=0 note=74 velocity=40 time=0.0010000020833333333@note_on channel=0 note=74 velocity=0 time=0.06700013958333334@note_on channel=0 note=72 velocity=44 time=0.0010000020833333333@note_on channel=0 note=72 velocity=0 time=0.06700013958333334@note_on channel=0 note=72 velocity=48 time=0.0010000020833333333@note_on channel=0 note=72 velocity=0 time=0.06700013958333334@note_on channel=0 note=74 velocity=56 time=0.0010000020833333333@note_on channel=0 note=74 velocity=0 time=0.06700013958333334@note_on channel=0 note=72 velocity=60 time=0.0010000020833333333@note_on channel=0 note=72 velocity=0 time=0.0050000104166666665@note_on channel=0 note=75 velocity=64 time=0.0010000020833333333@note_on channel=0 note=75 velocity=0 time=0.06700013958333334@note_on channel=0 note=72 velocity=68 time=0.0010000020833333333@note_on channel=0 note=72 velocity=0 time=0.06700013958333334@note_on channel=0 note=74 velocity=72 time=0.0010000020833333333@note_on channel=0 note=74 velocity=0 time=0.06700013958333334@note_on channel=0 note=72 velocity=76 time=0.0010000020833333333@note_on channel=1 note=36 velocity=0 time=0.047000097916666664@note_on channel=1 note=48 velocity=0 time=0@note_on channel=0 note=72 velocity=0 time=0.06700013958333334@note_on channel=0 note=72 velocity=80 time=0.0010000020833333333@note_on channel=1 note=32 velocity=64 time=0@note_on channel=1 note=44 velocity=64 time=0@note_on channel=0 note=72 velocity=0 time=0.06700013958333334@note_on channel=0 note=74 velocity=80 time=0.0010000020833333333@note_on channel=0 note=74 velocity=0 time=0.06700013958333334@note_on channel=0 note=72 velocity=76 time=0.0010000020833333333@note_on channel=0 note=72 velocity=0 time=0.06700013958333334@note_on channel=0 note=75 velocity=71 time=0.0010000020833333333@note_on channel=0 note=75 velocity=0 time=0.06700013958333334@note_on channel=0 note=72 velocity=67 time=0.0010000020833333333@note_on channel=0 note=72 velocity=0 time=0.06700013958333334@note_on channel=0 note=74 velocity=62 time=0.0010000020833333333@note_on channel=0 note=74 velocity=0 time=0.06700013958333334@note_on channel=0 note=72 velocity=58 time=0.0010000020833333333@note_on channel=0 note=72 velocity=0 time=0.06700013958333334@note_on channel=0 note=72 velocity=53 time=0.0010000020833333333@note_on channel=0 note=72 velocity=0 time=0.06700013958333334@note_on channel=0 note=74 velocity=44 time=0.0010000020833333333@note_on channel=0 note=74 velocity=0 time=0.06700013958333334@note_on channel=0 note=72 velocity=39 time=0.0010000020833333333@note_on channel=0 note=72 velocity=0 time=0.06700013958333334@note_on channel=0 note=75 velocity=35 time=0.0010000020833333333@note_on channel=0 note=75 velocity=0 time=0.06700013958333334@note_on channel=0 note=72 velocity=30 time=0.0010000020833333333@note_on channel=0 note=72 velocity=0 time=0.047000097916666664@note_on channel=0 note=74 velocity=26 time=0.0010000020833333333@note_on channel=0 note=74 velocity=0 time=0.06700013958333334@note_on channel=0 note=72 velocity=21 time=0.0010000020833333333@note_on channel=1 note=32 velocity=0 time=0.047000097916666664@note_on channel=1 note=44 velocity=0 time=0@note_on channel=0 note=72 velocity=0 time=0.028000058333333334@note_on channel=0 note=72 velocity=16 time=0.0010000020833333333@note_on channel=1 note=29 velocity=64 time=0@note_on channel=1 note=41 velocity=64 time=0@note_on channel=0 note=72 velocity=0 time=0.06700013958333334@note_on channel=0 note=74 velocity=24 time=0.0010000020833333333@note_on channel=0 note=74 velocity=0 time=0.06700013958333334@note_on channel=0 note=72 velocity=28 time=0.0010000020833333333@note_on channel=0 note=72 velocity=0 time=0.06700013958333334@note_on channel=0 note=75 velocity=32 time=0.0010000020833333333@note_on channel=0 note=75 velocity=0 time=0.06700013958333334@note_on channel=0 note=72 velocity=36 time=0.0010000020833333333@note_on channel=0 note=72 velocity=0 time=0.06700013958333334@note_on channel=0 note=74 velocity=40 time=0.0010000020833333333@note_on channel=0 note=74 velocity=0 time=0.06700013958333334@note_on channel=0 note=72 velocity=44 time=0.0010000020833333333@note_on channel=0 note=72 velocity=0 time=0.06700013958333334@note_on channel=0 note=72 velocity=48 time=0.0010000020833333333@note_on channel=0 note=72 velocity=0 time=0.06700013958333334@note_on channel=0 note=74 velocity=56 time=0.0010000020833333333@note_on channel=0 note=74 velocity=0 time=0.06700013958333334@note_on channel=0 note=72 velocity=60 time=0.0010000020833333333@note_on channel=0 note=72 velocity=0 time=0.06700013958333334@note_on channel=0 note=75 velocity=64 time=0.0010000020833333333@note_on channel=0 note=75 velocity=0 time=0.06700013958333334@note_on channel=0 note=72 velocity=68 time=0.0010000020833333333@note_on channel=0 note=72 velocity=0 time=0.011000022916666666@note_on channel=0 note=74 velocity=72 time=0.0010000020833333333@note_on channel=0 note=74 velocity=0 time=0.06700013958333334@note_on channel=0 note=72 velocity=76 time=0.0010000020833333333@note_on channel=1 note=29 velocity=0 time=0.047000097916666664@note_on channel=1 note=41 velocity=0 time=0@note_on channel=0 note=72 velocity=0 time=0.047000097916666664@note_on channel=0 note=72 velocity=80 time=0.0010000020833333333@note_on channel=1 note=27 velocity=64 time=0@note_on channel=1 note=39 velocity=64 time=0@note_on channel=0 note=72 velocity=0 time=0.06700013958333334@note_on channel=0 note=74 velocity=80 time=0.0010000020833333333@note_on channel=0 note=74 velocity=0 time=0.06700013958333334@note_on channel=0 note=72 velocity=80 time=0.0010000020833333333@note_on channel=0 note=72 velocity=0 time=0.06700013958333334@note_on channel=0 note=75 velocity=80 time=0.0010000020833333333@note_on channel=0 note=75 velocity=0 time=0.06700013958333334@note_on channel=0 note=72 velocity=80 time=0.0010000020833333333@note_on channel=0 note=72 velocity=0 time=0.06700013958333334@note_on channel=0 note=74 velocity=80 time=0.0010000020833333333@note_on channel=0 note=74 velocity=0 time=0.06700013958333334@note_on channel=0 note=72 velocity=80 time=0.0010000020833333333@note_on channel=1 note=27 velocity=0 time=0.024000050000000002@note_on channel=1 note=39 velocity=0 time=0@note_on channel=0 note=72 velocity=0 time=0.06700013958333334@note_on channel=0 note=72 velocity=80 time=0.0010000020833333333@note_on channel=1 note=26 velocity=64 time=0@note_on channel=1 note=38 velocity=64 time=0@note_on channel=0 note=72 velocity=0 time=0.06700013958333334@note_on channel=0 note=74 velocity=80 time=0.0010000020833333333@note_on channel=0 note=74 velocity=0 time=0.06700013958333334@note_on channel=0 note=72 velocity=80 time=0.0010000020833333333@note_on channel=0 note=72 velocity=0 time=0.028000058333333334@note_on channel=0 note=75 velocity=80 time=0.0010000020833333333@note_on channel=0 note=75 velocity=0 time=0.004000008333333333@note_on channel=0 note=72 velocity=80 time=0.0010000020833333333@note_on channel=0 note=72 velocity=0 time=0.004000008333333333@note_on channel=0 note=74 velocity=80 time=0.0010000020833333333@note_on channel=0 note=74 velocity=0 time=0.004000008333333333@note_on channel=0 note=72 velocity=80 time=0.0010000020833333333@note_on channel=1 note=26 velocity=0 time=0.010000020833333333@note_on channel=1 note=38 velocity=0 time=0@note_on channel=0 note=72 velocity=0 time=0.004000008333333333@note_on channel=1 note=24 velocity=96 time=0.0010000020833333333@note_on channel=1 note=36 velocity=96 time=0@note_on channel=1 note=24 velocity=0 time=0.19100039791666668@note_on channel=1 note=36 velocity=0 time=0@note_on channel=1 note=36 velocity=96 time=0.0010000020833333333@note_on channel=1 note=48 velocity=96 time=0@note_on channel=1 note=36 velocity=0 time=0.15900033125@note_on channel=1 note=48 velocity=0 time=0@note_on channel=1 note=39 velocity=96 time=0.12100025208333333@note_on channel=1 note=51 velocity=96 time=0@note_on channel=1 note=39 velocity=0 time=0.03900008125@note_on channel=1 note=51 velocity=0 time=0@note_on channel=1 note=36 velocity=96 time=0.12100025208333333@note_on channel=1 note=48 velocity=96 time=0@note_on channel=1 note=36 velocity=0 time=0.23900049791666667@note_on channel=1 note=48 velocity=0 time=0@note_on channel=1 note=38 velocity=96 time=0.0010000020833333333@note_on channel=1 note=50 velocity=96 time=0@note_on channel=1 note=38 velocity=0 time=0.11900024791666666@note_on channel=1 note=50 velocity=0 time=0@note_on channel=1 note=39 velocity=96 time=0.0010000020833333333@note_on channel=1 note=51 velocity=96 time=0@note_on channel=1 note=39 velocity=0 time=0.11900024791666666@note_on channel=1 note=51 velocity=0 time=0@note_on channel=1 note=38 velocity=96 time=0.0010000020833333333@note_on channel=1 note=50 velocity=96 time=0@note_on channel=1 note=38 velocity=0 time=0.11900024791666666@note_on channel=1 note=50 velocity=0 time=0@note_on channel=1 note=36 velocity=96 time=0.0010000020833333333@note_on channel=1 note=48 velocity=96 time=0@note_on channel=1 note=36 velocity=0 time=0.11900024791666666@note_on channel=1 note=48 velocity=0 time=0@note_on channel=1 note=32 velocity=96 time=0.0010000020833333333@note_on channel=1 note=44 velocity=96 time=0@note_on channel=1 note=32 velocity=0 time=0.08000016666666666@note_on channel=1 note=44 velocity=0 time=0@note_on channel=1 note=29 velocity=96 time=0.0010000020833333333@note_on channel=1 note=41 velocity=96 time=0@note_on channel=1 note=29 velocity=0 time=0.0010000020833333333@note_on channel=1 note=41 velocity=0 time=0@note_on channel=1 note=31 velocity=96 time=0.0010000020833333333@note_on channel=1 note=43 velocity=96 time=0@note_on channel=1 note=31 velocity=0 time=0.0010000020833333333@note_on channel=1 note=43 velocity=0 time=0@note_on channel=1 note=32 velocity=96 time=0.048000100000000004@note_on channel=1 note=44 velocity=96 time=0@note_on channel=1 note=32 velocity=0 time=0.11900024791666666@note_on channel=1 note=44 velocity=0 time=0@note_on channel=1 note=29 velocity=96 time=0.047000097916666664@note_on channel=1 note=41 velocity=96 time=0@note_on channel=1 note=29 velocity=0 time=0.058000120833333335@note_on channel=1 note=41 velocity=0 time=0@note_on channel=1 note=27 velocity=96 time=0.0010000020833333333@note_on channel=1 note=39 velocity=96 time=0@note_on channel=1 note=27 velocity=0 time=0.0010000020833333333@note_on channel=1 note=39 velocity=0 time=0@note_on channel=1 note=29 velocity=96 time=0.0010000020833333333@note_on channel=1 note=41 velocity=96 time=0@note_on channel=1 note=29 velocity=0 time=0.0010000020833333333@note_on channel=1 note=41 velocity=0 time=0@note_on channel=1 note=31 velocity=96 time=0.048000100000000004@note_on channel=1 note=43 velocity=96 time=0@note_on channel=1 note=31 velocity=0 time=0.19100039791666668@note_on channel=1 note=43 velocity=0 time=0@note_on channel=1 note=23 velocity=96 time=0.0010000020833333333@note_on channel=1 note=35 velocity=96 time=0@note_on channel=1 note=23 velocity=0 time=0.11900024791666666@note_on channel=1 note=35 velocity=0 time=0@note_on channel=1 note=24 velocity=96 time=0.0010000020833333333@note_on channel=1 note=36 velocity=96 time=0@note_on channel=1 note=24 velocity=0 time=0.08000016666666666@note_on channel=1 note=36 velocity=0 time=0@note_on channel=0 note=68 velocity=96 time=0.0010000020833333333@note_on channel=0 note=75 velocity=96 time=0@note_on channel=0 note=82 velocity=96 time=0@note_on channel=1 note=34 velocity=96 time=0@note_on channel=1 note=41 velocity=96 time=0@note_on channel=1 note=34 velocity=0 time=0.08100016875@note_on channel=1 note=41 velocity=0 time=0@note_on channel=0 note=68 velocity=0 time=0.13500028125@note_on channel=0 note=75 velocity=0 time=0@note_on channel=0 note=82 velocity=0 time=0@note_on channel=1 note=27 velocity=96 time=0.0010000020833333333@note_on channel=1 note=39 velocity=96 time=0@note_on channel=1 note=27 velocity=0 time=0.23900049791666667@note_on channel=1 note=39 velocity=0 time=0@note_on channel=0 note=65 velocity=96 time=0.0010000020833333333@note_on channel=0 note=68 velocity=96 time=0@note_on channel=0 note=77 velocity=96 time=0@note_on channel=0 note=65 velocity=0 time=0.22700047291666667@note_on channel=0 note=68 velocity=0 time=0@note_on channel=0 note=77 velocity=0 time=0@note_on channel=1 note=24 velocity=64 time=0.0010000020833333333@note_on channel=1 note=36 velocity=64 time=0@note_on channel=0 note=65 velocity=96 time=0.16000033333333333@note_on channel=0 note=68 velocity=96 time=0@note_on channel=0 note=77 velocity=96 time=0@note_on channel=1 note=24 velocity=0 time=0.06700013958333334@note_on channel=1 note=36 velocity=0 time=0@note_on channel=0 note=65 velocity=0 time=0.007000014583333334@note_on channel=0 note=68 velocity=0 time=0@note_on channel=0 note=77 velocity=0 time=0@note_on channel=1 note=27 velocity=80 time=0.0020000041666666667@note_on channel=1 note=39 velocity=80 time=0@note_on channel=1 note=27 velocity=0 time=0.22700047291666667@note_on channel=1 note=39 velocity=0 time=0@note_on channel=0 note=63 velocity=96 time=0.0010000020833333333@note_on channel=0 note=66 velocity=96 time=0@note_on channel=0 note=75 velocity=96 time=0@note_on channel=0 note=63 velocity=0 time=0.22700047291666667@note_on channel=0 note=66 velocity=0 time=0@note_on channel=0 note=75 velocity=0 time=0@note_on channel=1 note=29 velocity=80 time=0.0010000020833333333@note_on channel=1 note=41 velocity=80 time=0@note_on channel=0 note=63 velocity=96 time=0.16000033333333333@note_on channel=0 note=66 velocity=96 time=0@note_on channel=0 note=75 velocity=96 time=0@note_on channel=1 note=29 velocity=0 time=0.06700013958333334@note_on channel=1 note=41 velocity=0 time=0@note_on channel=0 note=63 velocity=0 time=0.007000014583333334@note_on channel=0 note=66 velocity=0 time=0@note_on channel=0 note=75 velocity=0 time=0@note_on channel=0 note=55 velocity=80 time=0.0020000041666666667@note_on channel=1 note=30 velocity=96 time=0@note_on channel=1 note=42 velocity=96 time=0@note_on channel=0 note=55 velocity=0 time=0.07500015625@note_on channel=0 note=57 velocity=80 time=0.0050000104166666665@note_on channel=0 note=57 velocity=0 time=0.07500015625@note_on channel=0 note=59 velocity=80 time=0.0050000104166666665@note_on channel=1 note=30 velocity=0 time=0.06700013958333334@note_on channel=1 note=42 velocity=0 time=0@note_on channel=0 note=59 velocity=0 time=0.008000016666666667@note_on channel=0 note=61 velocity=80 time=0.0010000020833333333@note_on channel=0 note=61 velocity=0 time=0.07500015625@note_on channel=0 note=63 velocity=80 time=0.0050000104166666665@note_on channel=0 note=63 velocity=0 time=0.07500015625@note_on channel=0 note=65 velocity=80 time=0.0050000104166666665@note_on channel=0 note=65 velocity=0 time=0.07500015625@note_on channel=0 note=67 velocity=80 time=0.0010000020833333333@note_on channel=0 note=67 velocity=0 time=0.07500015625@note_on channel=0 note=69 velocity=80 time=0.0050000104166666665@note_on channel=0 note=69 velocity=0 time=0.18300038125@note_on channel=0 note=55 velocity=80 time=0.08000016666666666@note_on channel=0 note=55 velocity=0 time=0.07500015625@note_on channel=0 note=57 velocity=80 time=0.0050000104166666665@note_on channel=0 note=57 velocity=0 time=0.07500015625@note_on channel=0 note=59 velocity=80 time=0.0010000020833333333@note_on channel=0 note=59 velocity=0 time=0.07500015625@note_on channel=0 note=61 velocity=80 time=0.0050000104166666665@note_on channel=0 note=61 velocity=0 time=0.07500015625@note_on channel=0 note=63 velocity=80 time=0.0050000104166666665@note_on channel=0 note=63 velocity=0 time=0.07500015625@note_on channel=0 note=65 velocity=80 time=0.0010000020833333333@note_on channel=0 note=65 velocity=0 time=0.07500015625@note_on channel=0 note=67 velocity=80 time=0.0050000104166666665@note_on channel=0 note=67 velocity=0 time=0.18300038125@note_on channel=0 note=56 velocity=80 time=0.08000016666666666@note_on channel=0 note=56 velocity=0 time=0.07500015625@note_on channel=0 note=58 velocity=80 time=0.0050000104166666665@note_on channel=0 note=58 velocity=0 time=0.07500015625@note_on channel=0 note=59 velocity=80 time=0.0010000020833333333@note_on channel=0 note=59 velocity=0 time=0.07500015625@note_on channel=0 note=62 velocity=80 time=0.0050000104166666665@note_on channel=0 note=62 velocity=0 time=0.07500015625@note_on channel=0 note=64 velocity=80 time=0.0050000104166666665@note_on channel=0 note=64 velocity=0 time=0.07500015625@note_on channel=0 note=66 velocity=80 time=0.0010000020833333333@note_on channel=0 note=66 velocity=0 time=0.07500015625@note_on channel=0 note=68 velocity=80 time=0.0050000104166666665@note_on channel=0 note=68 velocity=0 time=0.06300013125@note_on channel=0 note=71 velocity=96 time=0.0010000020833333333@note_on channel=0 note=83 velocity=96 time=0@note_on channel=1 note=39 velocity=96 time=0@note_on channel=1 note=44 velocity=96 time=0@note_on channel=1 note=51 velocity=96 time=0@note_on channel=0 note=71 velocity=0 time=0.21600045@note_on channel=0 note=83 velocity=0 time=0@note_on channel=1 note=39 velocity=0 time=0@note_on channel=1 note=44 velocity=0 time=0@note_on channel=1 note=51 velocity=0 time=0@note_on channel=1 note=39 velocity=96 time=0.0010000020833333333@note_on channel=1 note=51 velocity=96 time=0@note_on channel=1 note=39 velocity=0 time=0.20300042291666667@note_on channel=1 note=51 velocity=0 time=0@note_on channel=0 note=72 velocity=96 time=0.0010000020833333333@note_on channel=0 note=75 velocity=96 time=0@note_on channel=0 note=84 velocity=96 time=0@note_on channel=0 note=72 velocity=0 time=0.22700047291666667@note_on channel=0 note=75 velocity=0 time=0@note_on channel=0 note=84 velocity=0 time=0@note_on channel=1 note=36 velocity=96 time=0.0010000020833333333@note_on channel=1 note=48 velocity=96 time=0@note_on channel=0 note=72 velocity=96 time=0.16000033333333333@note_on channel=0 note=75 velocity=96 time=0@note_on channel=0 note=84 velocity=96 time=0@note_on channel=0 note=72 velocity=0 time=0.07400015416666667@note_on channel=0 note=75 velocity=0 time=0@note_on channel=0 note=84 velocity=0 time=0@note_on channel=1 note=36 velocity=0 time=0.0050000104166666665@note_on channel=1 note=48 velocity=0 time=0@note_on channel=1 note=39 velocity=96 time=0.0020000041666666667@note_on channel=1 note=51 velocity=96 time=0@note_on channel=1 note=39 velocity=0 time=0.22700047291666667@note_on channel=1 note=51 velocity=0 time=0@note_on channel=0 note=70 velocity=96 time=0.0010000020833333333@note_on channel=0 note=72 velocity=96 time=0@note_on channel=0 note=82 velocity=96 time=0@note_on channel=0 note=70 velocity=0 time=0.22700047291666667@note_on channel=0 note=72 velocity=0 time=0@note_on channel=0 note=82 velocity=0 time=0@note_on channel=1 note=41 velocity=112 time=0.0010000020833333333@note_on channel=1 note=53 velocity=112 time=0@note_on channel=0 note=70 velocity=96 time=0.16000033333333333@note_on channel=0 note=72 velocity=96 time=0@note_on channel=0 note=82 velocity=96 time=0@note_on channel=1 note=41 velocity=0 time=0.06700013958333334@note_on channel=1 note=53 velocity=0 time=0@note_on channel=0 note=70 velocity=0 time=0.007000014583333334@note_on channel=0 note=72 velocity=0 time=0@note_on channel=0 note=82 velocity=0 time=0@note_on channel=1 note=42 velocity=126 time=0.0020000041666666667@note_on channel=1 note=54 velocity=126 time=0@note_on channel=1 note=42 velocity=0 time=0.22700047291666667@note_on channel=1 note=54 velocity=0 time=0@note_on channel=0 note=66 velocity=96 time=0.0010000020833333333@note_on channel=0 note=72 velocity=96 time=0@note_on channel=0 note=78 velocity=96 time=0@note_on channel=1 note=36 velocity=64 time=0@note_on channel=1 note=48 velocity=64 time=0@note_on channel=1 note=36 velocity=0 time=0.11900024791666666@note_on channel=1 note=48 velocity=0 time=0@note_on channel=1 note=39 velocity=64 time=0.0010000020833333333@note_on channel=1 note=51 velocity=64 time=0@note_on channel=1 note=39 velocity=0 time=0.11900024791666666@note_on channel=1 note=51 velocity=0 time=0@note_on channel=0 note=66 velocity=0 time=0.09600020000000001@note_on channel=0 note=72 velocity=0 time=0@note_on channel=0 note=78 velocity=0 time=0@note_on channel=1 note=38 velocity=63 time=0.0010000020833333333@note_on channel=1 note=50 velocity=63 time=0@note_on channel=1 note=38 velocity=0 time=0.11900024791666666@note_on channel=1 note=50 velocity=0 time=0@note_on channel=1 note=37 velocity=62 time=0.0020000041666666667@note_on channel=1 note=49 velocity=62 time=0@note_on channel=1 note=37 velocity=0 time=0.22700047291666667@note_on channel=1 note=49 velocity=0 time=0@note_on channel=1 note=36 velocity=60 time=0.0010000020833333333@note_on channel=1 note=48 velocity=60 time=0@note_on channel=1 note=36 velocity=0 time=0.05900012291666667@note_on channel=1 note=48 velocity=0 time=0@note_on channel=1 note=39 velocity=60 time=0.10100021041666667@note_on channel=1 note=51 velocity=60 time=0@note_on channel=1 note=39 velocity=0 time=0.0180000375@note_on channel=1 note=51 velocity=0 time=0@note_on channel=1 note=38 velocity=58 time=0.14200029583333335@note_on channel=1 note=50 velocity=58 time=0@note_on channel=1 note=38 velocity=0 time=0.038000079166666666@note_on channel=1 note=38 velocity=57 time=0.0010000020833333333@note_on channel=1 note=50 velocity=0 time=0.026000054166666668@note_on channel=1 note=38 velocity=0 time=0.041000085416666665@note_on channel=1 note=37 velocity=56 time=0.0020000041666666667@note_on channel=1 note=49 velocity=56 time=0@note_on channel=1 note=37 velocity=0 time=0.22700047291666667@note_on channel=1 note=49 velocity=0 time=0@note_on channel=1 note=36 velocity=55 time=0.0010000020833333333@note_on channel=1 note=48 velocity=55 time=0@note_on channel=1 note=36 velocity=0 time=0.11900024791666666@note_on channel=1 note=48 velocity=0 time=0@note_on channel=1 note=39 velocity=53 time=0.0010000020833333333@note_on channel=1 note=51 velocity=53 time=0@note_on channel=1 note=39 velocity=0 time=0.11900024791666666@note_on channel=1 note=51 velocity=0 time=0@note_on channel=1 note=38 velocity=52 time=0.0010000020833333333@note_on channel=1 note=50 velocity=52 time=0@note_on channel=1 note=38 velocity=0 time=0.11900024791666666@note_on channel=1 note=50 velocity=0 time=0@note_on channel=1 note=37 velocity=50 time=0.0020000041666666667@note_on channel=1 note=49 velocity=50 time=0@note_on channel=1 note=37 velocity=0 time=0.22700047291666667@note_on channel=1 note=49 velocity=0 time=0@note_on channel=1 note=36 velocity=49 time=0.0010000020833333333@note_on channel=1 note=48 velocity=49 time=0@note_on channel=1 note=36 velocity=0 time=0.05900012291666667@note_on channel=1 note=48 velocity=0 time=0@note_on channel=1 note=39 velocity=48 time=0.10100021041666667@note_on channel=1 note=51 velocity=48 time=0@note_on channel=1 note=39 velocity=0 time=0.0180000375@note_on channel=1 note=51 velocity=0 time=0@note_on channel=1 note=38 velocity=47 time=0.14200029583333335@note_on channel=1 note=50 velocity=47 time=0@note_on channel=1 note=38 velocity=0 time=0.038000079166666666@note_on channel=1 note=38 velocity=46 time=0.0010000020833333333@note_on channel=1 note=50 velocity=0 time=0.026000054166666668@note_on channel=1 note=38 velocity=0 time=0.041000085416666665@note_on channel=1 note=37 velocity=45 time=0.0020000041666666667@note_on channel=1 note=49 velocity=45 time=0@note_on channel=1 note=37 velocity=0 time=0.22700047291666667@note_on channel=1 note=49 velocity=0 time=0@note_on channel=1 note=36 velocity=43 time=0.0010000020833333333@note_on channel=1 note=48 velocity=43 time=0@note_on channel=1 note=36 velocity=0 time=0.11900024791666666@note_on channel=1 note=48 velocity=0 time=0@note_on channel=1 note=39 velocity=42 time=0.0010000020833333333@note_on channel=1 note=51 velocity=42 time=0@note_on channel=1 note=39 velocity=0 time=0.11900024791666666@note_on channel=1 note=51 velocity=0 time=0@note_on channel=1 note=38 velocity=41 time=0.0010000020833333333@note_on channel=1 note=50 velocity=41 time=0@note_on channel=1 note=38 velocity=0 time=0.11900024791666666@note_on channel=1 note=50 velocity=0 time=0@note_on channel=1 note=37 velocity=39 time=0.0020000041666666667@note_on channel=1 note=49 velocity=39 time=0@note_on channel=1 note=37 velocity=0 time=0.22700047291666667@note_on channel=1 note=49 velocity=0 time=0@note_on channel=1 note=36 velocity=38 time=0.0010000020833333333@note_on channel=1 note=48 velocity=38 time=0@note_on channel=1 note=36 velocity=0 time=0.05900012291666667@note_on channel=1 note=48 velocity=0 time=0@note_on channel=1 note=39 velocity=37 time=0.10100021041666667@note_on channel=1 note=51 velocity=37 time=0@note_on channel=1 note=39 velocity=0 time=0.0180000375@note_on channel=1 note=51 velocity=0 time=0@note_on channel=1 note=38 velocity=36 time=0.14200029583333335@note_on channel=1 note=50 velocity=36 time=0@note_on channel=1 note=38 velocity=0 time=0.038000079166666666@note_on channel=1 note=38 velocity=35 time=0.0010000020833333333@note_on channel=1 note=50 velocity=0 time=0.026000054166666668@note_on channel=1 note=38 velocity=0 time=0.041000085416666665@note_on channel=1 note=37 velocity=33 time=0.0020000041666666667@note_on channel=1 note=49 velocity=33 time=0@note_on channel=1 note=37 velocity=0 time=0.22700047291666667@note_on channel=1 note=49 velocity=0 time=0@note_on channel=0 note=65 velocity=96 time=0.0010000020833333333@note_on channel=0 note=72 velocity=96 time=0@note_on channel=0 note=79 velocity=96 time=0@note_on channel=1 note=41 velocity=80 time=0@note_on channel=1 note=53 velocity=80 time=0@note_on channel=1 note=41 velocity=0 time=0.15300031875@note_on channel=1 note=53 velocity=0 time=0@note_on channel=1 note=24 velocity=49 time=0.007000014583333334@note_on channel=1 note=36 velocity=49 time=0@note_on channel=1 note=24 velocity=0 time=0.07400015416666667@note_on channel=1 note=36 velocity=0 time=0@note_on channel=1 note=29 velocity=49 time=0.0010000020833333333@note_on channel=1 note=41 velocity=49 time=0@note_on channel=0 note=65 velocity=0 time=0.21500044791666667@note_on channel=0 note=72 velocity=0 time=0@note_on channel=0 note=79 velocity=0 time=0@note_on channel=1 note=29 velocity=0 time=0.012000025000000001@note_on channel=1 note=41 velocity=0 time=0@note_on channel=1 note=32 velocity=53 time=0.0010000020833333333@note_on channel=1 note=44 velocity=53 time=0@note_on channel=1 note=32 velocity=0 time=0.06700013958333334@note_on channel=1 note=44 velocity=0 time=0@note_on channel=1 note=33 velocity=57 time=0.0020000041666666667@note_on channel=1 note=45 velocity=57 time=0@note_on channel=1 note=33 velocity=0 time=0.22700047291666667@note_on channel=1 note=45 velocity=0 time=0@note_on channel=1 note=34 velocity=61 time=0.0010000020833333333@note_on channel=1 note=46 velocity=61 time=0@note_on channel=1 note=34 velocity=0 time=0.15300031875@note_on channel=1 note=46 velocity=0 time=0@note_on channel=1 note=31 velocity=63 time=0.007000014583333334@note_on channel=1 note=43 velocity=63 time=0@note_on channel=1 note=31 velocity=0 time=0.07400015416666667@note_on channel=1 note=43 velocity=0 time=0@note_on channel=1 note=35 velocity=65 time=0.0010000020833333333@note_on channel=1 note=47 velocity=65 time=0@note_on channel=1 note=35 velocity=0 time=0.22700047291666667@note_on channel=1 note=47 velocity=0 time=0@note_on channel=1 note=36 velocity=69 time=0.0010000020833333333@note_on channel=1 note=48 velocity=69 time=0@note_on channel=1 note=36 velocity=0 time=0.06700013958333334@note_on channel=1 note=48 velocity=0 time=0@note_on channel=1 note=37 velocity=73 time=0.0020000041666666667@note_on channel=1 note=49 velocity=73 time=0@note_on channel=1 note=37 velocity=0 time=0.22700047291666667@note_on channel=1 note=49 velocity=0 time=0@note_on channel=1 note=38 velocity=77 time=0.0010000020833333333@note_on channel=1 note=50 velocity=77 time=0@note_on channel=1 note=38 velocity=0 time=0.15300031875@note_on channel=1 note=50 velocity=0 time=0@note_on channel=1 note=31 velocity=79 time=0.007000014583333334@note_on channel=1 note=43 velocity=79 time=0@note_on channel=1 note=31 velocity=0 time=0.07400015416666667@note_on channel=1 note=43 velocity=0 time=0@note_on channel=1 note=39 velocity=81 time=0.0010000020833333333@note_on channel=1 note=51 velocity=81 time=0@note_on channel=1 note=39 velocity=0 time=0.22700047291666667@note_on channel=1 note=51 velocity=0 time=0@note_on channel=1 note=40 velocity=85 time=0.0010000020833333333@note_on channel=1 note=52 velocity=85 time=0@note_on channel=1 note=40 velocity=0 time=0.06700013958333334@note_on channel=1 note=52 velocity=0 time=0@note_on channel=1 note=41 velocity=89 time=0.0020000041666666667@note_on channel=1 note=53 velocity=89 time=0@note_on channel=1 note=41 velocity=0 time=0.22700047291666667@note_on channel=1 note=53 velocity=0 time=0@note_on channel=1 note=42 velocity=93 time=0.0010000020833333333@note_on channel=1 note=54 velocity=93 time=0@note_on channel=1 note=42 velocity=0 time=0.15300031875@note_on channel=1 note=54 velocity=0 time=0@note_on channel=1 note=43 velocity=96 time=0.007000014583333334@note_on channel=1 note=55 velocity=96 time=0@note_on channel=1 note=43 velocity=0 time=0.30200062916666665@note_on channel=1 note=55 velocity=0 time=0@note_on channel=0 note=67 velocity=112 time=0.0180000375@note_on channel=0 note=71 velocity=112 time=0@note_on channel=0 note=79 velocity=112 time=0@note_on channel=0 note=67 velocity=0 time=0.4550009479166667@note_on channel=0 note=71 velocity=0 time=0@note_on channel=0 note=79 velocity=0 time=0@note_on channel=1 note=24 velocity=64 time=0.0010000020833333333@note_on channel=1 note=36 velocity=64 time=0@note_on channel=1 note=24 velocity=0 time=0.031000064583333334@note_on channel=1 note=36 velocity=0 time=0@note_on channel=1 note=22 velocity=64 time=0.0010000020833333333@note_on channel=1 note=34 velocity=64 time=0@note_on channel=1 note=22 velocity=0 time=0.031000064583333334@note_on channel=1 note=34 velocity=0 time=0@note_on channel=1 note=32 velocity=64 time=0.0010000020833333333@note_on channel=1 note=44 velocity=64 time=0@note_on channel=1 note=32 velocity=0 time=0.031000064583333334@note_on channel=1 note=44 velocity=0 time=0@note_on channel=1 note=31 velocity=64 time=0.0010000020833333333@note_on channel=1 note=43 velocity=64 time=0@note_on channel=1 note=31 velocity=0 time=0.031000064583333334@note_on channel=1 note=43 velocity=0 time=0@note_on channel=1 note=24 velocity=64 time=0.0010000020833333333@note_on channel=1 note=36 velocity=64 time=0@note_on channel=1 note=24 velocity=0 time=0.031000064583333334@note_on channel=1 note=36 velocity=0 time=0@note_on channel=1 note=22 velocity=64 time=0.0010000020833333333@note_on channel=1 note=34 velocity=64 time=0@note_on channel=1 note=22 velocity=0 time=0.031000064583333334@note_on channel=1 note=34 velocity=0 time=0@note_on channel=1 note=26 velocity=64 time=0.0010000020833333333@note_on channel=1 note=31 velocity=64 time=0@note_on channel=1 note=26 velocity=0 time=0.031000064583333334@note_on channel=1 note=31 velocity=0 time=0@note_on channel=1 note=31 velocity=64 time=0.0010000020833333333@note_on channel=1 note=43 velocity=64 time=0@note_on channel=1 note=31 velocity=0 time=0.013000027083333334@note_on channel=1 note=43 velocity=0 time=0@