<meta message time_signature numerator=8 denominator=8 clocks_per_click=24 notated_32nd_notes_per_beat=8 time=0>@<meta message key_signature key='G' time=0>@<meta message set_tempo tempo=480001 time=0>@control_change channel=0 control=121 value=0 time=0@program_change channel=0 program=0 time=0@control_change channel=0 control=7 value=100 time=0@control_change channel=0 control=10 value=64 time=0@control_change channel=0 control=91 value=0 time=0@control_change channel=0 control=93 value=0 time=0@<meta message midi_port port=0 time=0>@<meta message key_signature key='G' time=0>@<meta message midi_port port=0 time=0>@note_on channel=0 note=59 velocity=96 time=0@note_on channel=0 note=52 velocity=96 time=0.2400005@note_on channel=0 note=59 velocity=0 time=0.21500044791666667@note_on channel=0 note=52 velocity=0 time=0.012000025000000001@note_on channel=0 note=55 velocity=96 time=0.013000027083333334@note_on channel=0 note=47 velocity=96 time=0.2400005@note_on channel=0 note=55 velocity=0 time=0.21500044791666667@note_on channel=0 note=47 velocity=0 time=0.012000025000000001@note_on channel=0 note=52 velocity=96 time=0.013000027083333334@note_on channel=0 note=43 velocity=96 time=0.2400005@note_on channel=0 note=43 velocity=0 time=0.22700047291666667@note_on channel=0 note=40 velocity=96 time=0.013000027083333334@note_on channel=0 note=52 velocity=0 time=0.20300042291666667@note_on channel=0 note=40 velocity=0 time=0.024000050000000002@note_on channel=0 note=59 velocity=96 time=0.013000027083333334@note_on channel=0 note=59 velocity=0 time=0.22700047291666667@note_on channel=0 note=57 velocity=96 time=0.013000027083333334@note_on channel=0 note=50 velocity=96 time=0.2400005@note_on channel=0 note=57 velocity=0 time=0.21500044791666667@note_on channel=0 note=50 velocity=0 time=0.012000025000000001@note_on channel=0 note=54 velocity=96 time=0.013000027083333334@note_on channel=0 note=45 velocity=96 time=0.2400005@note_on channel=0 note=54 velocity=0 time=0.21500044791666667@note_on channel=0 note=45 velocity=0 time=0.012000025000000001@note_on channel=0 note=50 velocity=96 time=0.013000027083333334@note_on channel=0 note=42 velocity=96 time=0.2400005@note_on channel=0 note=42 velocity=0 time=0.22700047291666667@note_on channel=0 note=38 velocity=96 time=0.013000027083333334@note_on channel=0 note=50 velocity=0 time=0.20300042291666667@note_on channel=0 note=38 velocity=0 time=0.024000050000000002@note_on channel=0 note=57 velocity=96 time=0.013000027083333334@note_on channel=0 note=57 velocity=0 time=0.22700047291666667@note_on channel=0 note=59 velocity=96 time=0.013000027083333334@note_on channel=0 note=54 velocity=96 time=0.2400005@note_on channel=0 note=59 velocity=0 time=0.21500044791666667@note_on channel=0 note=54 velocity=0 time=0.012000025000000001@note_on channel=0 note=55 velocity=96 time=0.013000027083333334@note_on channel=0 note=48 velocity=96 time=0.2400005@note_on channel=0 note=55 velocity=0 time=0.21500044791666667@note_on channel=0 note=48 velocity=0 time=0.012000025000000001@note_on channel=0 note=43 velocity=96 time=0.013000027083333334@note_on channel=0 note=48 velocity=96 time=0.2400005@note_on channel=0 note=43 velocity=0 time=0.21500044791666667@note_on channel=0 note=48 velocity=0 time=0.012000025000000001@note_on channel=0 note=43 velocity=96 time=0.013000027083333334@note_on channel=0 note=40 velocity=96 time=0.2400005@note_on channel=0 note=43 velocity=0 time=0.21500044791666667@note_on channel=0 note=40 velocity=0 time=0.012000025000000001@note_on channel=0 note=57 velocity=96 time=0.013000027083333334@note_on channel=0 note=45 velocity=96 time=0.2400005@note_on channel=0 note=45 velocity=0 time=0.22700047291666667@note_on channel=0 note=38 velocity=96 time=0.013000027083333334@note_on channel=0 note=57 velocity=0 time=0.20300042291666667@note_on channel=0 note=38 velocity=0 time=0.024000050000000002@note_on channel=0 note=50 velocity=96 time=0.013000027083333334@note_on channel=0 note=38 velocity=96 time=0.2400005@note_on channel=0 note=50 velocity=0 time=0.21500044791666667@note_on channel=0 note=38 velocity=0 time=0.012000025000000001@note_on channel=0 note=54 velocity=96 time=0.013000027083333334@note_on channel=0 note=54 velocity=0 time=0.22700047291666667@note_on channel=0 note=50 velocity=96 time=0.013000027083333334@note_on channel=0 note=50 velocity=0 time=0.22700047291666667@note_on channel=0 note=57 velocity=96 time=0.013000027083333334@note_on channel=0 note=57 velocity=0 time=0.22700047291666667@note_on channel=0 note=59 velocity=96 time=0.013000027083333334@note_on channel=0 note=52 velocity=96 time=0.2400005@note_on channel=0 note=59 velocity=0 time=0.21500044791666667@note_on channel=0 note=52 velocity=0 time=0.012000025000000001@note_on channel=0 note=55 velocity=96 time=0.013000027083333334@note_on channel=0 note=47 velocity=96 time=0.2400005@note_on channel=0 note=55 velocity=0 time=0.21500044791666667@note_on channel=0 note=47 velocity=0 time=0.012000025000000001@note_on channel=0 note=52 velocity=96 time=0.013000027083333334@note_on channel=0 note=43 velocity=96 time=0.2400005@note_on channel=0 note=43 velocity=0 time=0.22700047291666667@note_on channel=0 note=40 velocity=96 time=0.013000027083333334@note_on channel=0 note=52 velocity=0 time=0.20300042291666667@note_on channel=0 note=40 velocity=0 time=0.024000050000000002@note_on channel=0 note=59 velocity=96 time=0.013000027083333334@note_on channel=0 note=59 velocity=0 time=0.22700047291666667@note_on channel=0 note=57 velocity=96 time=0.013000027083333334@note_on channel=0 note=50 velocity=96 time=0.2400005@note_on channel=0 note=57 velocity=0 time=0.21500044791666667@note_on channel=0 note=50 velocity=0 time=0.012000025000000001@note_on channel=0 note=54 velocity=96 time=0.013000027083333334@note_on channel=0 note=45 velocity=96 time=0.2400005@note_on channel=0 note=54 velocity=0 time=0.21500044791666667@note_on channel=0 note=45 velocity=0 time=0.012000025000000001@note_on channel=0 note=50 velocity=96 time=0.013000027083333334@note_on channel=0 note=42 velocity=96 time=0.2400005@note_on channel=0 note=42 velocity=0 time=0.22700047291666667@note_on channel=0 note=38 velocity=96 time=0.013000027083333334@note_on channel=0 note=50 velocity=0 time=0.20300042291666667@note_on channel=0 note=38 velocity=0 time=0.024000050000000002@note_on channel=0 note=57 velocity=96 time=0.013000027083333334@note_on channel=0 note=57 velocity=0 time=0.22700047291666667@note_on channel=0 note=59 velocity=96 time=0.013000027083333334@note_on channel=0 note=54 velocity=96 time=0.2400005@note_on channel=0 note=59 velocity=0 time=0.21500044791666667@note_on channel=0 note=54 velocity=0 time=0.012000025000000001@note_on channel=0 note=55 velocity=96 time=0.013000027083333334@note_on channel=0 note=48 velocity=96 time=0.2400005@note_on channel=0 note=55 velocity=0 time=0.21500044791666667@note_on channel=0 note=48 velocity=0 time=0.012000025000000001@note_on channel=0 note=43 velocity=96 time=0.013000027083333334@note_on channel=0 note=48 velocity=96 time=0.2400005@note_on channel=0 note=43 velocity=0 time=0.21500044791666667@note_on channel=0 note=48 velocity=0 time=0.012000025000000001@note_on channel=0 note=43 velocity=96 time=0.013000027083333334@note_on channel=0 note=40 velocity=96 time=0.2400005@note_on channel=0 note=43 velocity=0 time=0.21500044791666667@note_on channel=0 note=40 velocity=0 time=0.012000025000000001@note_on channel=0 note=57 velocity=96 time=0.013000027083333334@note_on channel=0 note=45 velocity=96 time=0.2400005@note_on channel=0 note=45 velocity=0 time=0.22700047291666667@note_on channel=0 note=38 velocity=96 time=0.013000027083333334@note_on channel=0 note=57 velocity=0 time=0.20300042291666667@note_on channel=0 note=38 velocity=0 time=0.024000050000000002@note_on channel=0 note=50 velocity=96 time=0.013000027083333334@note_on channel=0 note=38 velocity=96 time=0.2400005@note_on channel=0 note=50 velocity=0 time=0.21500044791666667@note_on channel=0 note=38 velocity=0 time=0.012000025000000001@note_on channel=0 note=54 velocity=96 time=0.013000027083333334@note_on channel=0 note=54 velocity=0 time=0.22700047291666667@note_on channel=0 note=50 velocity=96 time=0.013000027083333334@note_on channel=0 note=50 velocity=0 time=0.22700047291666667@note_on channel=0 note=57 velocity=96 time=0.013000027083333334@note_on channel=0 note=57 velocity=0 time=0.22700047291666667@note_on channel=0 note=79 velocity=80 time=0.013000027083333334@note_on channel=0 note=59 velocity=80 time=0@note_on channel=0 note=52 velocity=80 time=0.2400005@note_on channel=0 note=59 velocity=0 time=0.21500044791666667@note_on channel=0 note=52 velocity=0 time=0.012000025000000001@note_on channel=0 note=55 velocity=80 time=0.013000027083333334@note_on channel=0 note=79 velocity=0 time=0.20300042291666667@note_on channel=0 note=76 velocity=80 time=0.03700007708333333@note_on channel=0 note=47 velocity=80 time=0@note_on channel=0 note=55 velocity=0 time=0.21500044791666667@note_on channel=0 note=47 velocity=0 time=0.012000025000000001@note_on channel=0 note=52 velocity=80 time=0.013000027083333334@note_on channel=0 note=43 velocity=80 time=0.2400005@note_on channel=0 note=76 velocity=0 time=0.20300042291666667@note_on channel=0 note=43 velocity=0 time=0.024000050000000002@note_on channel=0 note=79 velocity=80 time=0.013000027083333334@note_on channel=0 note=40 velocity=80 time=0@note_on channel=0 note=52 velocity=0 time=0.20300042291666667@note_on channel=0 note=40 velocity=0 time=0.024000050000000002@note_on channel=0 note=59 velocity=80 time=0.013000027083333334@note_on channel=0 note=79 velocity=0 time=0.21500044791666667@note_on channel=0 note=59 velocity=0 time=0.012000025000000001@note_on channel=0 note=78 velocity=80 time=0.013000027083333334@note_on channel=0 note=57 velocity=80 time=0@note_on channel=0 note=50 velocity=80 time=0.2400005@note_on channel=0 note=78 velocity=0 time=0.21500044791666667@note_on channel=0 note=57 velocity=0 time=0@note_on channel=0 note=50 velocity=0 time=0.012000025000000001@note_on channel=0 note=76 velocity=80 time=0.013000027083333334@note_on channel=0 note=54 velocity=80 time=0@note_on channel=0 note=45 velocity=80 time=0.2400005@note_on channel=0 note=76 velocity=0 time=0.21500044791666667@note_on channel=0 note=54 velocity=0 time=0@note_on channel=0 note=45 velocity=0 time=0.012000025000000001@note_on channel=0 note=74 velocity=80 time=0.013000027083333334@note_on channel=0 note=50 velocity=80 time=0@note_on channel=0 note=42 velocity=80 time=0.2400005@note_on channel=0 note=74 velocity=0 time=0.21500044791666667@note_on channel=0 note=42 velocity=0 time=0.012000025000000001@note_on channel=0 note=71 velocity=80 time=0.013000027083333334@note_on channel=0 note=38 velocity=80 time=0@note_on channel=0 note=50 velocity=0 time=0.20300042291666667@note_on channel=0 note=38 velocity=0 time=0.024000050000000002@note_on channel=0 note=57 velocity=80 time=0.013000027083333334@note_on channel=0 note=71 velocity=0 time=0.21500044791666667@note_on channel=0 note=57 velocity=0 time=0.012000025000000001@note_on channel=0 note=76 velocity=80 time=0.013000027083333334@note_on channel=0 note=59 velocity=80 time=0@note_on channel=0 note=54 velocity=80 time=0.2400005@note_on channel=0 note=59 velocity=0 time=0.21500044791666667@note_on channel=0 note=54 velocity=0 time=0.012000025000000001@note_on channel=0 note=55 velocity=80 time=0.013000027083333334@note_on channel=0 note=48 velocity=80 time=0.2400005@note_on channel=0 note=76 velocity=0 time=0.19100039791666668@note_on channel=0 note=55 velocity=0 time=0.024000050000000002@note_on channel=0 note=48 velocity=0 time=0.012000025000000001@note_on channel=0 note=71 velocity=80 time=0.013000027083333334@note_on channel=0 note=43 velocity=80 time=0@note_on channel=0 note=48 velocity=80 time=0.2400005@note_on channel=0 note=43 velocity=0 time=0.21500044791666667@note_on channel=0 note=48 velocity=0 time=0.012000025000000001@note_on channel=0 note=43 velocity=80 time=0.013000027083333334@note_on channel=0 note=40 velocity=80 time=0.2400005@note_on channel=0 note=71 velocity=0 time=0.19100039791666668@note_on channel=0 note=43 velocity=0 time=0.024000050000000002@note_on channel=0 note=40 velocity=0 time=0.012000025000000001@note_on channel=0 note=74 velocity=80 time=0.013000027083333334@note_on channel=0 note=57 velocity=80 time=0@note_on channel=0 note=45 velocity=80 time=0.2400005@note_on channel=0 note=45 velocity=0 time=0.22700047291666667@note_on channel=0 note=38 velocity=80 time=0.013000027083333334@note_on channel=0 note=57 velocity=0 time=0.20300042291666667@note_on channel=0 note=38 velocity=0 time=0.024000050000000002@note_on channel=0 note=50 velocity=80 time=0.013000027083333334@note_on channel=0 note=38 velocity=80 time=0.2400005@note_on channel=0 note=50 velocity=0 time=0.21500044791666667@note_on channel=0 note=38 velocity=0 time=0.012000025000000001@note_on channel=0 note=54 velocity=80 time=0.013000027083333334@note_on channel=0 note=54 velocity=0 time=0.22700047291666667@note_on channel=0 note=50 velocity=80 time=0.013000027083333334@note_on channel=0 note=50 velocity=0 time=0.22700047291666667@note_on channel=0 note=57 velocity=80 time=0.013000027083333334@note_on channel=0 note=74 velocity=0 time=0.14300029791666666@note_on channel=0 note=57 velocity=0 time=0.084000175@note_on channel=0 note=83 velocity=80 time=0.013000027083333334@note_on channel=0 note=59 velocity=80 time=0@note_on channel=0 note=52 velocity=80 time=0.2400005@note_on channel=0 note=59 velocity=0 time=0.21500044791666667@note_on channel=0 note=52 velocity=0 time=0.012000025000000001@note_on channel=0 note=55 velocity=80 time=0.013000027083333334@note_on channel=0 note=83 velocity=0 time=0.20300042291666667@note_on channel=0 note=76 velocity=80 time=0.03700007708333333@note_on channel=0 note=47 velocity=80 time=0@note_on channel=0 note=55 velocity=0 time=0.21500044791666667@note_on channel=0 note=47 velocity=0 time=0.012000025000000001@note_on channel=0 note=52 velocity=80 time=0.013000027083333334@note_on channel=0 note=43 velocity=80 time=0.2400005@note_on channel=0 note=76 velocity=0 time=0.20300042291666667@note_on channel=0 note=43 velocity=0 time=0.024000050000000002@note_on channel=0 note=83 velocity=80 time=0.013000027083333334@note_on channel=0 note=40 velocity=80 time=0@note_on channel=0 note=52 velocity=0 time=0.20300042291666667@note_on channel=0 note=40 velocity=0 time=0.024000050000000002@note_on channel=0 note=59 velocity=80 time=0.013000027083333334@note_on channel=0 note=83 velocity=0 time=0.21500044791666667@note_on channel=0 note=59 velocity=0 time=0.012000025000000001@note_on channel=0 note=81 velocity=80 time=0.013000027083333334@note_on channel=0 note=57 velocity=80 time=0@note_on channel=0 note=50 velocity=80 time=0.2400005@note_on channel=0 note=81 velocity=0 time=0.21500044791666667@note_on channel=0 note=57 velocity=0 time=0@note_on channel=0 note=50 velocity=0 time=0.012000025000000001@note_on channel=0 note=79 velocity=80 time=0.013000027083333334@note_on channel=0 note=54 velocity=80 time=0@note_on channel=0 note=45 velocity=80 time=0.2400005@note_on channel=0 note=79 velocity=0 time=0.21500044791666667@note_on channel=0 note=54 velocity=0 time=0@note_on channel=0 note=45 velocity=0 time=0.012000025000000001@note_on channel=0 note=78 velocity=80 time=0.013000027083333334@note_on channel=0 note=50 velocity=80 time=0@note_on channel=0 note=42 velocity=80 time=0.2400005@note_on channel=0 note=78 velocity=0 time=0.21500044791666667@note_on channel=0 note=42 velocity=0 time=0.012000025000000001@note_on channel=0 note=74 velocity=80 time=0.013000027083333334@note_on channel=0 note=38 velocity=80 time=0@note_on channel=0 note=50 velocity=0 time=0.20300042291666667@note_on channel=0 note=38 velocity=0 time=0.024000050000000002@note_on channel=0 note=57 velocity=80 time=0.013000027083333334@note_on channel=0 note=74 velocity=0 time=0.21500044791666667@note_on channel=0 note=57 velocity=0 time=0.012000025000000001@note_on channel=0 note=76 velocity=80 time=0.013000027083333334@note_on channel=0 note=59 velocity=80 time=0@note_on channel=0 note=54 velocity=80 time=0.2400005@note_on channel=0 note=59 velocity=0 time=0.21500044791666667@note_on channel=0 note=54 velocity=0 time=0.012000025000000001@note_on channel=0 note=55 velocity=80 time=0.013000027083333334@note_on channel=0 note=48 velocity=80 time=0.2400005@note_on channel=0 note=76 velocity=0 time=0.19100039791666668@note_on channel=0 note=55 velocity=0 time=0.024000050000000002@note_on channel=0 note=48 velocity=0 time=0.012000025000000001@note_on channel=0 note=79 velocity=80 time=0.013000027083333334@note_on channel=0 note=43 velocity=80 time=0@note_on channel=0 note=48 velocity=80 time=0.2400005@note_on channel=0 note=43 velocity=0 time=0.21500044791666667@note_on channel=0 note=48 velocity=0 time=0.012000025000000001@note_on channel=0 note=43 velocity=80 time=0.013000027083333334@note_on channel=0 note=40 velocity=80 time=0.2400005@note_on channel=0 note=79 velocity=0 time=0.19100039791666668@note_on channel=0 note=43 velocity=0 time=0.024000050000000002@note_on channel=0 note=40 velocity=0 time=0.012000025000000001@note_on channel=0 note=78 velocity=80 time=0.013000027083333334@note_on channel=0 note=57 velocity=80 time=0@note_on channel=0 note=45 velocity=80 time=0.2400005@note_on channel=0 note=45 velocity=0 time=0.22700047291666667@note_on channel=0 note=38 velocity=80 time=0.013000027083333334@note_on channel=0 note=57 velocity=0 time=0.20300042291666667@note_on channel=0 note=38 velocity=0 time=0.024000050000000002@note_on channel=0 note=50 velocity=80 time=0.013000027083333334@note_on channel=0 note=78 velocity=0 time=0.19100039791666668@note_on channel=0 note=81 velocity=80 time=0.04900010208333334@note_on channel=0 note=38 velocity=80 time=0@note_on channel=0 note=50 velocity=0 time=0.21500044791666667@note_on channel=0 note=38 velocity=0 time=0.012000025000000001@note_on channel=0 note=54 velocity=80 time=0.013000027083333334@note_on channel=0 note=54 velocity=0 time=0.22700047291666667@note_on channel=0 note=50 velocity=80 time=0.013000027083333334@note_on channel=0 note=50 velocity=0 time=0.22700047291666667@note_on channel=0 note=57 velocity=80 time=0.013000027083333334@note_on channel=0 note=81 velocity=0 time=0.19100039791666668@note_on channel=0 note=57 velocity=0 time=0.036000075@note_on channel=0 note=76 velocity=96 time=0.013000027083333334@note_on channel=0 note=59 velocity=96 time=0@note_on channel=0 note=52 velocity=96 time=0.2400005@note_on channel=0 note=59 velocity=0 time=0.21500044791666667@note_on channel=0 note=52 velocity=0 time=0.012000025000000001@note_on channel=0 note=55 velocity=96 time=0.013000027083333334@note_on channel=0 note=47 velocity=96 time=0.2400005@note_on channel=0 note=55 velocity=0 time=0.21500044791666667@note_on channel=0 note=47 velocity=0 time=0.012000025000000001@note_on channel=0 note=52 velocity=96 time=0.013000027083333334@note_on channel=0 note=43 velocity=96 time=0.2400005@note_on channel=0 note=43 velocity=0 time=0.22700047291666667@note_on channel=0 note=40 velocity=96 time=0.013000027083333334@note_on channel=0 note=52 velocity=0 time=0.20300042291666667@note_on channel=0 note=40 velocity=0 time=0.024000050000000002@note_on channel=0 note=59 velocity=96 time=0.013000027083333334@note_on channel=0 note=76 velocity=0 time=0.14300029791666666@note_on channel=0 note=59 velocity=0 time=0.084000175@note_on channel=0 note=74 velocity=96 time=0.013000027083333334@note_on channel=0 note=57 velocity=96 time=0@note_on channel=0 note=50 velocity=96 time=0.2400005@note_on channel=0 note=57 velocity=0 time=0.21500044791666667@note_on channel=0 note=50 velocity=0 time=0.012000025000000001@note_on channel=0 note=54 velocity=96 time=0.013000027083333334@note_on channel=0 note=45 velocity=96 time=0.2400005@note_on channel=0 note=74 velocity=0 time=0.19100039791666668@note_on channel=0 note=54 velocity=0 time=0.024000050000000002@note_on channel=0 note=45 velocity=0 time=0.012000025000000001@note_on channel=0 note=69 velocity=96 time=0.013000027083333334@note_on channel=0 note=50 velocity=96 time=0@note_on channel=0 note=42 velocity=96 time=0.2400005@note_on channel=0 note=42 velocity=0 time=0.22700047291666667@note_on channel=0 note=38 velocity=96 time=0.013000027083333334@note_on channel=0 note=50 velocity=0 time=0.20300042291666667@note_on channel=0 note=38 velocity=0 time=0.024000050000000002@note_on channel=0 note=57 velocity=96 time=0.013000027083333334@note_on channel=0 note=69 velocity=0 time=0.19100039791666668@note_on channel=0 note=57 velocity=0 time=0.036000075@note_on channel=0 note=76 velocity=96 time=0.013000027083333334@note_on channel=0 note=59 velocity=96 time=0@note_on channel=0 note=54 velocity=96 time=0.2400005@note_on channel=0 note=59 velocity=0 time=0.21500044791666667@note_on channel=0 note=54 velocity=0 time=0.012000025000000001@note_on channel=0 note=55 velocity=96 time=0.013000027083333334@note_on channel=0 note=48 velocity=96 time=0.2400005@note_on channel=0 note=55 velocity=0 time=0.21500044791666667@note_on channel=0 note=48 velocity=0 time=0.012000025000000001@note_on channel=0 note=43 velocity=96 time=0.013000027083333334@note_on channel=0 note=48 velocity=96 time=0.2400005@note_on channel=0 note=76 velocity=0 time=0.16700034791666668@note_on channel=0 note=43 velocity=0 time=0.048000100000000004@note_on channel=0 note=48 velocity=0 time=0.012000025000000001@note_on channel=0 note=79 velocity=96 time=0.013000027083333334@note_on channel=0 note=43 velocity=96 time=0@note_on channel=0 note=40 velocity=96 time=0.2400005@note_on channel=0 note=79 velocity=0 time=0.21500044791666667@note_on channel=0 note=43 velocity=0 time=0@note_on channel=0 note=40 velocity=0 time=0.012000025000000001@note_on channel=0 note=78 velocity=96 time=0.013000027083333334@note_on channel=0 note=57 velocity=96 time=0@note_on channel=0 note=45 velocity=96 time=0.2400005@note_on channel=0 note=45 velocity=0 time=0.22700047291666667@note_on channel=0 note=38 velocity=96 time=0.013000027083333334@note_on channel=0 note=57 velocity=0 time=0.20300042291666667@note_on channel=0 note=38 velocity=0 time=0.024000050000000002@note_on channel=0 note=50 velocity=96 time=0.013000027083333334@note_on channel=0 note=78 velocity=0 time=0.19100039791666668@note_on channel=0 note=81 velocity=96 time=0.04900010208333334@note_on channel=0 note=38 velocity=96 time=0@note_on channel=0 note=50 velocity=0 time=0.21500044791666667@note_on channel=0 note=38 velocity=0 time=0.012000025000000001@note_on channel=0 note=54 velocity=96 time=0.013000027083333334@note_on channel=0 note=54 velocity=0 time=0.22700047291666667@note_on channel=0 note=50 velocity=96 time=0.013000027083333334@note_on channel=0 note=50 velocity=0 time=0.22700047291666667@note_on channel=0 note=57 velocity=96 time=0.013000027083333334@note_on channel=0 note=81 velocity=0 time=0.19100039791666668@note_on channel=0 note=57 velocity=0 time=0.036000075@note_on channel=0 note=83 velocity=96 time=0.013000027083333334@note_on channel=0 note=59 velocity=96 time=0@note_on channel=0 note=52 velocity=96 time=0.2400005@note_on channel=0 note=59 velocity=0 time=0.21500044791666667@note_on channel=0 note=52 velocity=0 time=0.012000025000000001@note_on channel=0 note=55 velocity=96 time=0.013000027083333334@note_on channel=0 note=47 velocity=96 time=0.2400005@note_on channel=0 note=83 velocity=0 time=0.19100039791666668@note_on channel=0 note=55 velocity=0 time=0.024000050000000002@note_on channel=0 note=47 velocity=0 time=0.012000025000000001@note_on channel=0 note=76 velocity=96 time=0.013000027083333334@note_on channel=0 note=52 velocity=96 time=0@note_on channel=0 note=43 velocity=96 time=0.2400005@note_on channel=0 note=43 velocity=0 time=0.22700047291666667@note_on channel=0 note=40 velocity=96 time=0.013000027083333334@note_on channel=0 note=52 velocity=0 time=0.20300042291666667@note_on channel=0 note=40 velocity=0 time=0.024000050000000002@note_on channel=0 note=59 velocity=96 time=0.013000027083333334@note_on channel=0 note=76 velocity=0 time=0.19100039791666668@note_on channel=0 note=59 velocity=0 time=0.036000075@note_on channel=0 note=83 velocity=96 time=0.013000027083333334@note_on channel=0 note=57 velocity=96 time=0@note_on channel=0 note=50 velocity=96 time=0.2400005@note_on channel=0 note=83 velocity=0 time=0.21500044791666667@note_on channel=0 note=57 velocity=0 time=0@note_on channel=0 note=50 velocity=0 time=0.012000025000000001@note_on channel=0 note=81 velocity=96 time=0.013000027083333334@note_on channel=0 note=54 velocity=96 time=0@note_on channel=0 note=45 velocity=96 time=0.2400005@note_on channel=0 note=81 velocity=0 time=0.21500044791666667@note_on channel=0 note=54 velocity=0 time=0@note_on channel=0 note=45 velocity=0 time=0.012000025000000001@note_on channel=0 note=79 velocity=96 time=0.013000027083333334@note_on channel=0 note=50 velocity=96 time=0@note_on channel=0 note=42 velocity=96 time=0.2400005@note_on channel=0 note=79 velocity=0 time=0.21500044791666667@note_on channel=0 note=42 velocity=0 time=0.012000025000000001@note_on channel=0 note=78 velocity=96 time=0.013000027083333334@note_on channel=0 note=38 velocity=96 time=0@note_on channel=0 note=50 velocity=0 time=0.20300042291666667@note_on channel=0 note=38 velocity=0 time=0.024000050000000002@note_on channel=0 note=57 velocity=96 time=0.013000027083333334@note_on channel=0 note=78 velocity=0 time=0.21500044791666667@note_on channel=0 note=57 velocity=0 time=0.012000025000000001@note_on channel=0 note=76 velocity=96 time=0.013000027083333334@note_on channel=0 note=59 velocity=96 time=0@note_on channel=0 note=54 velocity=96 time=0.2400005@note_on channel=0 note=59 velocity=0 time=0.21500044791666667@note_on channel=0 note=54 velocity=0 time=0.012000025000000001@note_on channel=0 note=55 velocity=96 time=0.013000027083333334@note_on channel=0 note=48 velocity=96 time=0.2400005@note_on channel=0 note=55 velocity=0 time=0.21500044791666667@note_on channel=0 note=48 velocity=0 time=0.012000025000000001@note_on channel=0 note=43 velocity=96 time=0.013000027083333334@note_on channel=0 note=48 velocity=96 time=0.2400005@note_on channel=0 note=76 velocity=0 time=0.16700034791666668@note_on channel=0 note=43 velocity=0 time=0.048000100000000004@note_on channel=0 note=48 velocity=0 time=0.012000025000000001@note_on channel=0 note=78 velocity=96 time=0.013000027083333334@note_on channel=0 note=43 velocity=96 time=0@note_on channel=0 note=78 velocity=0 time=0.22700047291666667@note_on channel=0 note=76 velocity=96 time=0.013000027083333334@note_on channel=0 note=40 velocity=96 time=0@note_on channel=0 note=43 velocity=0 time=0.21500044791666667@note_on channel=0 note=76 velocity=0 time=0.012000025000000001@note_on channel=0 note=40 velocity=0 time=0@note_on channel=0 note=78 velocity=96 time=0.013000027083333334@note_on channel=0 note=57 velocity=96 time=0@note_on channel=0 note=45 velocity=96 time=0.2400005@note_on channel=0 note=45 velocity=0 time=0.22700047291666667@note_on channel=0 note=38 velocity=96 time=0.013000027083333334@note_on channel=0 note=57 velocity=0 time=0.20300042291666667@note_on channel=0 note=38 velocity=0 time=0.024000050000000002@note_on channel=0 note=50 velocity=96 time=0.013000027083333334@note_on channel=0 note=38 velocity=96 time=0.2400005@note_on channel=0 note=50 velocity=0 time=0.21500044791666667@note_on channel=0 note=38 velocity=0 time=0.012000025000000001@note_on channel=0 note=54 velocity=96 time=0.013000027083333334@note_on channel=0 note=54 velocity=0 time=0.22700047291666667@note_on channel=0 note=50 velocity=96 time=0.013000027083333334@note_on channel=0 note=50 velocity=0 time=0.22700047291666667@note_on channel=0 note=57 velocity=96 time=0.013000027083333334@note_on channel=0 note=78 velocity=0 time=0.14300029791666666@note_on channel=0 note=57 velocity=0 time=0.084000175@note_on channel=0 note=83 velocity=96 time=0.013000027083333334@note_on channel=0 note=59 velocity=96 time=0@note_on channel=0 note=52 velocity=96 time=0.2400005@note_on channel=0 note=83 velocity=0 time=0.21500044791666667@note_on channel=0 note=59 velocity=0 time=0@note_on channel=0 note=52 velocity=0 time=0.012000025000000001@note_on channel=0 note=79 velocity=96 time=0.013000027083333334@note_on channel=0 note=55 velocity=96 time=0@note_on channel=0 note=47 velocity=96 time=0.2400005@note_on channel=0 note=79 velocity=0 time=0.21500044791666667@note_on channel=0 note=55 velocity=0 time=0@note_on channel=0 note=47 velocity=0 time=0.012000025000000001@note_on channel=0 note=76 velocity=96 time=0.013000027083333334@note_on channel=0 note=52 velocity=96 time=0@note_on channel=0 note=43 velocity=96 time=0.2400005@note_on channel=0 note=43 velocity=0 time=0.22700047291666667@note_on channel=0 note=40 velocity=96 time=0.013000027083333334@note_on channel=0 note=76 velocity=0 time=0.20300042291666667@note_on channel=0 note=52 velocity=0 time=0@note_on channel=0 note=40 velocity=0 time=0.024000050000000002@note_on channel=0 note=83 velocity=96 time=0.013000027083333334@note_on channel=0 note=59 velocity=96 time=0@note_on channel=0 note=83 velocity=0 time=0.22700047291666667@note_on channel=0 note=59 velocity=0 time=0@note_on channel=0 note=81 velocity=96 time=0.013000027083333334@note_on channel=0 note=57 velocity=96 time=0@note_on channel=0 note=50 velocity=96 time=0.2400005@note_on channel=0 note=81 velocity=0 time=0.21500044791666667@note_on channel=0 note=57 velocity=0 time=0@note_on channel=0 note=50 velocity=0 time=0.012000025000000001@note_on channel=0 note=78 velocity=96 time=0.013000027083333334@note_on channel=0 note=54 velocity=96 time=0@note_on channel=0 note=45 velocity=96 time=0.2400005@note_on channel=0 note=78 velocity=0 time=0.21500044791666667@note_on channel=0 note=54 velocity=0 time=0@note_on channel=0 note=45 velocity=0 time=0.012000025000000001@note_on channel=0 note=74 velocity=96 time=0.013000027083333334@note_on channel=0 note=50 velocity=96 time=0@note_on channel=0 note=42 velocity=96 time=0.2400005@note_on channel=0 note=42 velocity=0 time=0.22700047291666667@note_on channel=0 note=38 velocity=96 time=0.013000027083333334@note_on channel=0 note=74 velocity=0 time=0.20300042291666667@note_on channel=0 note=50 velocity=0 time=0@note_on channel=0 note=38 velocity=0 time=0.024000050000000002@note_on channel=0 note=81 velocity=96 time=0.013000027083333334@note_on channel=0 note=57 velocity=96 time=0@note_on channel=0 note=81 velocity=0 time=0.22700047291666667@note_on channel=0 note=57 velocity=0 time=0@note_on channel=0 note=83 velocity=96 time=0.013000027083333334@note_on channel=0 note=59 velocity=96 time=0@note_on channel=0 note=54 velocity=96 time=0.2400005@note_on channel=0 note=83 velocity=0 time=0.21500044791666667@note_on channel=0 note=59 velocity=0 time=0@note_on channel=0 note=54 velocity=0 time=0.012000025000000001@note_on channel=0 note=79 velocity=96 time=0.013000027083333334@note_on channel=0 note=55 velocity=96 time=0@note_on channel=0 note=48 velocity=96 time=0.2400005@note_on channel=0 note=55 velocity=0 time=0.21500044791666667@note_on channel=0 note=48 velocity=0 time=0.012000025000000001@note_on channel=0 note=43 velocity=96 time=0.013000027083333334@note_on channel=0 note=48 velocity=96 time=0.2400005@note_on channel=0 note=79 velocity=0 time=0.19100039791666668@note_on channel=0 note=43 velocity=0 time=0.024000050000000002@note_on channel=0 note=48 velocity=0 time=0.012000025000000001@note_on channel=0 note=43 velocity=96 time=0.013000027083333334@note_on channel=0 note=40 velocity=96 time=0.2400005@note_on channel=0 note=43 velocity=0 time=0.21500044791666667@note_on channel=0 note=40 velocity=0 time=0.012000025000000001@note_on channel=0 note=81 velocity=96 time=0.013000027083333334@note_on channel=0 note=57 velocity=96 time=0@note_on channel=0 note=45 velocity=96 time=0.2400005@note_on channel=0 note=45 velocity=0 time=0.22700047291666667@note_on channel=0 note=38 velocity=96 time=0.013000027083333334@note_on channel=0 note=81 velocity=0 time=0.20300042291666667@note_on channel=0 note=57 velocity=0 time=0@note_on channel=0 note=38 velocity=0 time=0.024000050000000002@note_on channel=0 note=74 velocity=96 time=0.013000027083333334@note_on channel=0 note=50 velocity=96 time=0@note_on channel=0 note=38 velocity=96 time=0.2400005@note_on channel=0 note=74 velocity=0 time=0.21500044791666667@note_on channel=0 note=50 velocity=0 time=0@note_on channel=0 note=38 velocity=0 time=0.012000025000000001@note_on channel=0 note=78 velocity=96 time=0.013000027083333334@note_on channel=0 note=54 velocity=96 time=0@note_on channel=0 note=78 velocity=0 time=0.22700047291666667@note_on channel=0 note=54 velocity=0 time=0@note_on channel=0 note=74 velocity=96 time=0.013000027083333334@note_on channel=0 note=50 velocity=96 time=0@note_on channel=0 note=74 velocity=0 time=0.22700047291666667@note_on channel=0 note=50 velocity=0 time=0@note_on channel=0 note=81 velocity=96 time=0.013000027083333334@note_on channel=0 note=57 velocity=96 time=0@note_on channel=0 note=81 velocity=0 time=0.22700047291666667@note_on channel=0 note=57 velocity=0 time=0@note_on channel=0 note=83 velocity=96 time=0.013000027083333334@note_on channel=0 note=59 velocity=96 time=0@note_on channel=0 note=52 velocity=96 time=0.2400005@note_on channel=0 note=83 velocity=0 time=0.21500044791666667@note_on channel=0 note=59 velocity=0 time=0@note_on channel=0 note=52 velocity=0 time=0.012000025000000001@note_on channel=0 note=79 velocity=96 time=0.013000027083333334@note_on channel=0 note=55 velocity=96 time=0@note_on channel=0 note=47 velocity=96 time=0.2400005@note_on channel=0 note=79 velocity=0 time=0.21500044791666667@note_on channel=0 note=55 velocity=0 time=0@note_on channel=0 note=47 velocity=0 time=0.012000025000000001@note_on channel=0 note=76 velocity=96 time=0.013000027083333334@note_on channel=0 note=52 velocity=96 time=0@note_on channel=0 note=43 velocity=96 time=0.2400005@note_on channel=0 note=43 velocity=0 time=0.22700047291666667@note_on channel=0 note=40 velocity=96 time=0.013000027083333334@note_on channel=0 note=76 velocity=0 time=0.20300042291666667@note_on channel=0 note=52 velocity=0 time=0@note_on channel=0 note=40 velocity=0 time=0.024000050000000002@note_on channel=0 note=83 velocity=96 time=0.013000027083333334@note_on channel=0 note=59 velocity=96 time=0@note_on channel=0 note=83 velocity=0 time=0.22700047291666667@note_on channel=0 note=59 velocity=0 time=0@note_on channel=0 note=81 velocity=96 time=0.013000027083333334@note_on channel=0 note=57 velocity=96 time=0@note_on channel=0 note=50 velocity=96 time=0.2400005@note_on channel=0 note=81 velocity=0 time=0.21500044791666667@note_on channel=0 note=57 velocity=0 time=0@note_on channel=0 note=50 velocity=0 time=0.012000025000000001@note_on channel=0 note=78 velocity=96 time=0.013000027083333334@note_on channel=0 note=54 velocity=96 time=0@note_on channel=0 note=45 velocity=96 time=0.2400005@note_on channel=0 note=78 velocity=0 time=0.21500044791666667@note_on channel=0 note=54 velocity=0 time=0@note_on channel=0 note=45 velocity=0 time=0.012000025000000001@note_on channel=0 note=74 velocity=96 time=0.013000027083333334@note_on channel=0 note=50 velocity=96 time=0@note_on channel=0 note=42 velocity=96 time=0.2400005@note_on channel=0 note=42 velocity=0 time=0.22700047291666667@note_on channel=0 note=38 velocity=96 time=0.013000027083333334@note_on channel=0 note=74 velocity=0 time=0.20300042291666667@note_on channel=0 note=50 velocity=0 time=0@note_on channel=0 note=38 velocity=0 time=0.024000050000000002@note_on channel=0 note=81 velocity=96 time=0.013000027083333334@note_on channel=0 note=57 velocity=96 time=0@note_on channel=0 note=81 velocity=0 time=0.22700047291666667@note_on channel=0 note=57 velocity=0 time=0@note_on channel=0 note=83 velocity=96 time=0.013000027083333334@note_on channel=0 note=59 velocity=96 time=0@note_on channel=0 note=54 velocity=96 time=0.2400005@note_on channel=0 note=83 velocity=0 time=0.21500044791666667@note_on channel=0 note=59 velocity=0 time=0@note_on channel=0 note=54 velocity=0 time=0.012000025000000001@note_on channel=0 note=79 velocity=96 time=0.013000027083333334@note_on channel=0 note=55 velocity=96 time=0@note_on channel=0 note=48 velocity=96 time=0.2400005@note_on channel=0 note=55 velocity=0 time=0.21500044791666667@note_on channel=0 note=48 velocity=0 time=0.012000025000000001@note_on channel=0 note=43 velocity=96 time=0.013000027083333334@note_on channel=0 note=48 velocity=96 time=0.2400005@note_on channel=0 note=79 velocity=0 time=0.19100039791666668@note_on channel=0 note=43 velocity=0 time=0.024000050000000002@note_on channel=0 note=48 velocity=0 time=0.012000025000000001@note_on channel=0 note=43 velocity=96 time=0.013000027083333334@note_on channel=0 note=40 velocity=96 time=0.2400005@note_on channel=0 note=43 velocity=0 time=0.21500044791666667@note_on channel=0 note=40 velocity=0 time=0.012000025000000001@note_on channel=0 note=81 velocity=96 time=0.013000027083333334@note_on channel=0 note=57 velocity=96 time=0@note_on channel=0 note=45 velocity=96 time=0.2400005@note_on channel=0 note=45 velocity=0 time=0.22700047291666667@note_on channel=0 note=38 velocity=96 time=0.013000027083333334@note_on channel=0 note=81 velocity=0 time=0.20300042291666667@note_on channel=0 note=57 velocity=0 time=0@note_on channel=0 note=38 velocity=0 time=0.024000050000000002@note_on channel=0 note=74 velocity=96 time=0.013000027083333334@note_on channel=0 note=50 velocity=96 time=0@note_on channel=0 note=38 velocity=96 time=0.2400005@note_on channel=0 note=74 velocity=0 time=0.21500044791666667@note_on channel=0 note=50 velocity=0 time=0@note_on channel=0 note=38 velocity=0 time=0.012000025000000001@note_on channel=0 note=78 velocity=96 time=0.013000027083333334@note_on channel=0 note=54 velocity=96 time=0@note_on channel=0 note=78 velocity=0 time=0.22700047291666667@note_on channel=0 note=54 velocity=0 time=0@note_on channel=0 note=74 velocity=96 time=0.013000027083333334@note_on channel=0 note=50 velocity=96 time=0@note_on channel=0 note=74 velocity=0 time=0.22700047291666667@note_on channel=0 note=50 velocity=0 time=0@note_on channel=0 note=81 velocity=96 time=0.013000027083333334@note_on channel=0 note=57 velocity=96 time=0@note_on channel=0 note=81 velocity=0 time=0.22700047291666667@note_on channel=0 note=57 velocity=0 time=0@note_on channel=0 note=83 velocity=96 time=0.013000027083333334@note_on channel=0 note=59 velocity=96 time=0@note_on channel=0 note=76 velocity=96 time=0.2400005@note_on channel=0 note=52 velocity=96 time=0@note_on channel=0 note=83 velocity=0 time=0.10100021041666667@note_on channel=0 note=76 velocity=0 time=0.012000025000000001@note_on channel=0 note=83 velocity=96 time=0.007000014583333334@note_on channel=0 note=59 velocity=0 time=0.09500019791666667@note_on channel=0 note=52 velocity=0 time=0.012000025000000001@note_on channel=0 note=83 velocity=0 time=0.0060000125000000005@note_on channel=0 note=79 velocity=96 time=0.007000014583333334@note_on channel=0 note=55 velocity=96 time=0@note_on channel=0 note=71 velocity=96 time=0.2400005@note_on channel=0 note=47 velocity=96 time=0@note_on channel=0 note=79 velocity=0 time=0.10100021041666667@note_on channel=0 note=71 velocity=0 time=0.012000025000000001@note_on channel=0 note=79 velocity=96 time=0.007000014583333334@note_on channel=0 note=55 velocity=0 time=0.09500019791666667@note_on channel=0 note=47 velocity=0 time=0.012000025000000001@note_on channel=0 note=79 velocity=0 time=0.0060000125000000005@note_on channel=0 note=76 velocity=96 time=0.007000014583333334@note_on channel=0 note=52 velocity=96 time=0@note_on channel=0 note=43 velocity=96 time=0.2400005@note_on channel=0 note=43 velocity=0 time=0.22700047291666667@note_on channel=0 note=40 velocity=96 time=0.013000027083333334@note_on channel=0 note=76 velocity=0 time=0.20300042291666667@note_on channel=0 note=52 velocity=0 time=0@note_on channel=0 note=40 velocity=0 time=0.024000050000000002@note_on channel=0 note=83 velocity=96 time=0.013000027083333334@note_on channel=0 note=59 velocity=96 time=0@note_on channel=0 note=83 velocity=0 time=0.22700047291666667@note_on channel=0 note=59 velocity=0 time=0@note_on channel=0 note=81 velocity=96 time=0.013000027083333334@note_on channel=0 note=57 velocity=96 time=0@note_on channel=0 note=74 velocity=96 time=0.2400005@note_on channel=0 note=50 velocity=96 time=0@note_on channel=0 note=81 velocity=0 time=0.10100021041666667@note_on channel=0 note=74 velocity=0 time=0.012000025000000001@note_on channel=0 note=81 velocity=96 time=0.007000014583333334@note_on channel=0 note=57 velocity=0 time=0.09500019791666667@note_on channel=0 note=50 velocity=0 time=0.012000025000000001@note_on channel=0 note=81 velocity=0 time=0.0060000125000000005@note_on channel=0 note=78 velocity=96 time=0.007000014583333334@note_on channel=0 note=54 velocity=96 time=0@note_on channel=0 note=69 velocity=96 time=0.2400005@note_on channel=0 note=45 velocity=96 time=0@note_on channel=0 note=78 velocity=0 time=0.10100021041666667@note_on channel=0 note=69 velocity=0 time=0.012000025000000001@note_on channel=0 note=78 velocity=96 time=0.007000014583333334@note_on channel=0 note=54 velocity=0 time=0.09500019791666667@note_on channel=0 note=45 velocity=0 time=0.012000025000000001@note_on channel=0 note=78 velocity=0 time=0.0060000125000000005@note_on channel=0 note=74 velocity=96 time=0.007000014583333334@note_on channel=0 note=50 velocity=96 time=0@note_on channel=0 note=42 velocity=96 time=0.2400005@note_on channel=0 note=42 velocity=0 time=0.22700047291666667@note_on channel=0 note=38 velocity=96 time=0.013000027083333334@note_on channel=0 note=74 velocity=0 time=0.20300042291666667@note_on channel=0 note=50 velocity=0 time=0@note_on channel=0 note=38 velocity=0 time=0.024000050000000002@note_on channel=0 note=81 velocity=96 time=0.013000027083333334@note_on channel=0 note=57 velocity=96 time=0@note_on channel=0 note=81 velocity=0 time=0.22700047291666667@note_on channel=0 note=57 velocity=0 time=0@note_on channel=0 note=83 velocity=96 time=0.013000027083333334@note_on channel=0 note=59 velocity=96 time=0@note_on channel=0 note=78 velocity=96 time=0.2400005@note_on channel=0 note=54 velocity=96 time=0@note_on channel=0 note=83 velocity=0 time=0.10100021041666667@note_on channel=0 note=78 velocity=0 time=0.012000025000000001@note_on channel=0 note=83 velocity=96 time=0.007000014583333334@note_on channel=0 note=59 velocity=0 time=0.09500019791666667@note_on channel=0 note=54 velocity=0 time=0.012000025000000001@note_on channel=0 note=83 velocity=0 time=0.0060000125000000005@note_on channel=0 note=79 velocity=96 time=0.007000014583333334@note_on channel=0 note=55 velocity=96 time=0@note_on channel=0 note=72 velocity=96 time=0.2400005@note_on channel=0 note=48 velocity=96 time=0@note_on channel=0 note=79 velocity=0 time=0.10100021041666667@note_on channel=0 note=72 velocity=0 time=0.012000025000000001@note_on channel=0 note=79 velocity=96 time=0.007000014583333334@note_on channel=0 note=55 velocity=0 time=0.09500019791666667@note_on channel=0 note=48 velocity=0 time=0.012000025000000001@note_on channel=0 note=79 velocity=0 time=0.0060000125000000005@note_on channel=0 note=67 velocity=96 time=0.007000014583333334@note_on channel=0 note=43 velocity=96 time=0@note_on channel=0 note=67 velocity=0 time=0.22700047291666667@note_on channel=0 note=72 velocity=96 time=0.013000027083333334@note_on channel=0 note=48 velocity=96 time=0@note_on channel=0 note=43 velocity=0 time=0.21500044791666667@note_on channel=0 note=72 velocity=0 time=0.012000025000000001@note_on channel=0 note=48 velocity=0 time=0@note_on channel=0 note=67 velocity=96 time=0.013000027083333334@note_on channel=0 note=43 velocity=96 time=0@note_on channel=0 note=67 velocity=0 time=0.22700047291666667@note_on channel=0 note=64 velocity=96 time=0.013000027083333334@note_on channel=0 note=40 velocity=96 time=0@note_on channel=0 note=43 velocity=0 time=0.21500044791666667@note_on channel=0 note=64 velocity=0 time=0.012000025000000001@note_on channel=0 note=40 velocity=0 time=0@note_on channel=0 note=81 velocity=96 time=0.013000027083333334@note_on channel=0 note=57 velocity=96 time=0@note_on channel=0 note=45 velocity=96 time=0.2400005@note_on channel=0 note=45 velocity=0 time=0.22700047291666667@note_on channel=0 note=38 velocity=96 time=0.013000027083333334@note_on channel=0 note=81 velocity=0 time=0.20300042291666667@note_on channel=0 note=57 velocity=0 time=0@note_on channel=0 note=38 velocity=0 time=0.024000050000000002@note_on channel=0 note=74 velocity=96 time=0.013000027083333334@note_on channel=0 note=50 velocity=96 time=0@note_on channel=0 note=38 velocity=96 time=0.2400005@note_on channel=0 note=74 velocity=0 time=0.21500044791666667@note_on channel=0 note=50 velocity=0 time=0@note_on channel=0 note=38 velocity=0 time=0.012000025000000001@note_on channel=0 note=78 velocity=96 time=0.013000027083333334@note_on channel=0 note=54 velocity=96 time=0@note_on channel=0 note=78 velocity=0 time=0.22700047291666667@note_on channel=0 note=54 velocity=0 time=0@note_on channel=0 note=74 velocity=96 time=0.013000027083333334@note_on channel=0 note=50 velocity=96 time=0@note_on channel=0 note=74 velocity=0 time=0.22700047291666667@note_on channel=0 note=50 velocity=0 time=0@note_on channel=0 note=81 velocity=96 time=0.013000027083333334@note_on channel=0 note=57 velocity=96 time=0@note_on channel=0 note=81 velocity=0 time=0.22700047291666667@note_on channel=0 note=57 velocity=0 time=0@note_on channel=0 note=83 velocity=96 time=0.013000027083333334@note_on channel=0 note=59 velocity=96 time=0@note_on channel=0 note=76 velocity=96 time=0.2400005@note_on channel=0 note=52 velocity=96 time=0@note_on channel=0 note=83 velocity=0 time=0.10100021041666667@note_on channel=0 note=76 velocity=0 time=0.012000025000000001@note_on channel=0 note=83 velocity=96 time=0.007000014583333334@note_on channel=0 note=59 velocity=0 time=0.09500019791666667@note_on channel=0 note=52 velocity=0 time=0.012000025000000001@note_on channel=0 note=83 velocity=0 time=0.0060000125000000005@note_on channel=0 note=79 velocity=96 time=0.007000014583333334@note_on channel=0 note=55 velocity=96 time=0@note_on channel=0 note=71 velocity=96 time=0.2400005@note_on channel=0 note=47 velocity=96 time=0@note_on channel=0 note=79 velocity=0 time=0.10100021041666667@note_on channel=0 note=71 velocity=0 time=0.012000025000000001@note_on channel=0 note=79 velocity=96 time=0.007000014583333334@note_on channel=0 note=55 velocity=0 time=0.09500019791666667@note_on channel=0 note=47 velocity=0 time=0.012000025000000001@note_on channel=0 note=79 velocity=0 time=0.0060000125000000005@note_on channel=0 note=76 velocity=96 time=0.007000014583333334@note_on channel=0 note=52 velocity=96 time=0@note_on channel=0 note=43 velocity=96 time=0.2400005@note_on channel=0 note=43 velocity=0 time=0.22700047291666667@note_on channel=0 note=40 velocity=96 time=0.013000027083333334@note_on channel=0 note=76 velocity=0 time=0.20300042291666667@note_on channel=0 note=52 velocity=0 time=0@note_on channel=0 note=40 velocity=0 time=0.024000050000000002@note_on channel=0 note=83 velocity=96 time=0.013000027083333334@note_on channel=0 note=59 velocity=96 time=0@note_on channel=0 note=83 velocity=0 time=0.22700047291666667@note_on channel=0 note=59 velocity=0 time=0@note_on channel=0 note=81 velocity=96 time=0.013000027083333334@note_on channel=0 note=57 velocity=96 time=0@note_on channel=0 note=74 velocity=96 time=0.2400005@note_on channel=0 note=50 velocity=96 time=0@note_on channel=0 note=81 velocity=0 time=0.10100021041666667@note_on channel=0 note=74 velocity=0 time=0.012000025000000001@note_on channel=0 note=81 velocity=96 time=0.007000014583333334@note_on channel=0 note=57 velocity=0 time=0.09500019791666667@note_on channel=0 note=50 velocity=0 time=0.012000025000000001@note_on channel=0 note=81 velocity=0 time=0.0060000125000000005@note_on channel=0 note=78 velocity=96 time=0.007000014583333334@note_on channel=0 note=54 velocity=96 time=0@note_on channel=0 note=69 velocity=96 time=0.2400005@note_on channel=0 note=45 velocity=96 time=0@note_on channel=0 note=78 velocity=0 time=0.10100021041666667@note_on channel=0 note=69 velocity=0 time=0.012000025000000001@note_on channel=0 note=78 velocity=96 time=0.007000014583333334@note_on channel=0 note=54 velocity=0 time=0.09500019791666667@note_on channel=0 note=45 velocity=0 time=0.012000025000000001@note_on channel=0 note=78 velocity=0 time=0.0060000125000000005@note_on channel=0 note=74 velocity=96 time=0.007000014583333334@note_on channel=0 note=50 velocity=96 time=0@note_on channel=0 note=42 velocity=96 time=0.2400005@note_on channel=0 note=42 velocity=0 time=0.22700047291666667@note_on channel=0 note=38 velocity=96 time=0.013000027083333334@note_on channel=0 note=74 velocity=0 time=0.20300042291666667@note_on channel=0 note=50 velocity=0 time=0@note_on channel=0 note=38 velocity=0 time=0.024000050000000002@note_on channel=0 note=81 velocity=96 time=0.013000027083333334@note_on channel=0 note=57 velocity=96 time=0@note_on channel=0 note=81 velocity=0 time=0.22700047291666667@note_on channel=0 note=57 velocity=0 time=0@note_on channel=0 note=83 velocity=96 time=0.013000027083333334@note_on channel=0 note=59 velocity=96 time=0@note_on channel=0 note=78 velocity=96 time=0.2400005@note_on channel=0 note=54 velocity=96 time=0@note_on channel=0 note=83 velocity=0 time=0.10100021041666667@note_on channel=0 note=78 velocity=0 time=0.012000025000000001@note_on channel=0 note=83 velocity=96 time=0.007000014583333334@note_on channel=0 note=59 velocity=0 time=0.09500019791666667@note_on channel=0 note=54 velocity=0 time=0.012000025000000001@note_on channel=0 note=83 velocity=0 time=0.0060000125000000005@note_on channel=0 note=79 velocity=96 time=0.007000014583333334@note_on channel=0 note=55 velocity=96 time=0@note_on channel=0 note=72 velocity=96 time=0.2400005@note_on channel=0 note=48 velocity=96 time=0@note_on channel=0 note=79 velocity=0 time=0.10100021041666667@note_on channel=0 note=72 velocity=0 time=0.012000025000000001@note_on channel=0 note=79 velocity=96 time=0.007000014583333334@note_on channel=0 note=55 velocity=0 time=0.09500019791666667@note_on channel=0 note=48 velocity=0 time=0.012000025000000001@note_on channel=0 note=79 velocity=0 time=0.0060000125000000005@note_on channel=0 note=67 velocity=96 time=0.007000014583333334@note_on channel=0 note=43 velocity=96 time=0@note_on channel=0 note=67 velocity=0 time=0.22700047291666667@note_on channel=0 note=72 velocity=96 time=0.013000027083333334@note_on channel=0 note=48 velocity=96 time=0@note_on channel=0 note=43 velocity=0 time=0.21500044791666667@note_on channel=0 note=72 velocity=0 time=0.012000025000000001@note_on channel=0 note=48 velocity=0 time=0@note_on channel=0 note=67 velocity=96 time=0.013000027083333334@note_on channel=0 note=43 velocity=96 time=0@note_on channel=0 note=67 velocity=0 time=0.22700047291666667@note_on channel=0 note=64 velocity=96 time=0.013000027083333334@note_on channel=0 note=40 velocity=96 time=0@note_on channel=0 note=43 velocity=0 time=0.21500044791666667@note_on channel=0 note=64 velocity=0 time=0.012000025000000001@note_on channel=0 note=40 velocity=0 time=0@note_on channel=0 note=81 velocity=96 time=0.013000027083333334@note_on channel=0 note=57 velocity=96 time=0@note_on channel=0 note=45 velocity=96 time=0.2400005@note_on channel=0 note=45 velocity=0 time=0.22700047291666667@note_on channel=0 note=38 velocity=96 time=0.013000027083333334@note_on channel=0 note=81 velocity=0 time=0.20300042291666667@note_on channel=0 note=57 velocity=0 time=0@note_on channel=0 note=38 velocity=0 time=0.024000050000000002@note_on channel=0 note=74 velocity=96 time=0.013000027083333334@note_on channel=0 note=50 velocity=96 time=0@note_on channel=0 note=38 velocity=96 time=0.2400005@note_on channel=0 note=74 velocity=0 time=0.21500044791666667@note_on channel=0 note=50 velocity=0 time=0@note_on channel=0 note=38 velocity=0 time=0.012000025000000001@note_on channel=0 note=78 velocity=96 time=0.013000027083333334@note_on channel=0 note=54 velocity=96 time=0@note_on channel=0 note=78 velocity=0 time=0.22700047291666667@note_on channel=0 note=54 velocity=0 time=0@note_on channel=0 note=74 velocity=96 time=0.013000027083333334@note_on channel=0 note=86 velocity=96 time=0@note_on channel=0 note=50 velocity=96 time=0@note_on channel=0 note=74 velocity=0 time=0.22700047291666667@note_on channel=0 note=50 velocity=0 time=0@note_on channel=0 note=81 velocity=96 time=0.013000027083333334@note_on channel=0 note=57 velocity=96 time=0@note_on channel=0 note=86 velocity=0 time=0.21500044791666667@note_on channel=0 note=81 velocity=0 time=0.012000025000000001@note_on channel=0 note=57 velocity=0 time=0@note_on channel=0 note=88 velocity=96 time=0.013000027083333334@note_on channel=0 note=59 velocity=96 time=0@note_on channel=0 note=52 velocity=96 time=0.2400005@note_on channel=0 note=59 velocity=0 time=0.21500044791666667@note_on channel=0 note=52 velocity=0 time=0.012000025000000001@note_on channel=0 note=55 velocity=96 time=0.013000027083333334@note_on channel=0 note=47 velocity=96 time=0.2400005@note_on channel=0 note=55 velocity=0 time=0.21500044791666667@note_on channel=0 note=47 velocity=0 time=0.012000025000000001@note_on channel=0 note=52 velocity=96 time=0.013000027083333334@note_on channel=0 note=43 velocity=96 time=0.2400005@note_on channel=0 note=43 velocity=0 time=0.22700047291666667@note_on channel=0 note=40 velocity=96 time=0.013000027083333334@note_on channel=0 note=52 velocity=0 time=0.20300042291666667@note_on channel=0 note=40 velocity=0 time=0.024000050000000002@note_on channel=0 note=59 velocity=96 time=0.013000027083333334@note_on channel=0 note=88 velocity=0 time=0.14300029791666666@note_on channel=0 note=59 velocity=0 time=0.084000175@note_on channel=0 note=86 velocity=96 time=0.013000027083333334@note_on channel=0 note=57 velocity=96 time=0@note_on channel=0 note=50 velocity=96 time=0.2400005@note_on channel=0 note=57 velocity=0 time=0.21500044791666667@note_on channel=0 note=50 velocity=0 time=0.012000025000000001@note_on channel=0 note=54 velocity=96 time=0.013000027083333334@note_on channel=0 note=45 velocity=96 time=0.2400005@note_on channel=0 note=54 velocity=0 time=0.21500044791666667@note_on channel=0 note=45 velocity=0 time=0.012000025000000001@note_on channel=0 note=50 velocity=96 time=0.013000027083333334@note_on channel=0 note=42 velocity=96 time=0.2400005@note_on channel=0 note=42 velocity=0 time=0.22700047291666667@note_on channel=0 note=38 velocity=96 time=0.013000027083333334@note_on channel=0 note=50 velocity=0 time=0.20300042291666667@note_on channel=0 note=38 velocity=0 time=0.024000050000000002@note_on channel=0 note=57 velocity=96 time=0.013000027083333334@note_on channel=0 note=86 velocity=0 time=0.14300029791666666@note_on channel=0 note=57 velocity=0 time=0.084000175@note_on channel=0 note=83 velocity=96 time=0.013000027083333334@note_on channel=0 note=59 velocity=96 time=0@note_on channel=0 note=54 velocity=96 time=0.2400005@note_on channel=0 note=59 velocity=0 time=0.21500044791666667@note_on channel=0 note=54 velocity=0 time=0.012000025000000001@note_on channel=0 note=55 velocity=96 time=0.013000027083333334@note_on channel=0 note=48 velocity=96 time=0.2400005@note_on channel=0 note=55 velocity=0 time=0.21500044791666667@note_on channel=0 note=48 velocity=0 time=0.012000025000000001@note_on channel=0 note=43 velocity=96 time=0.013000027083333334@note_on channel=0 note=48 velocity=96 time=0.2400005@note_on channel=0 note=43 velocity=0 time=0.21500044791666667@note_on channel=0 note=48 velocity=0 time=0.012000025000000001@note_on channel=0 note=43 velocity=96 time=0.013000027083333334@note_on channel=0 note=40 velocity=96 time=0.2400005@note_on channel=0 note=83 velocity=0 time=0.14300029791666666@note_on channel=0 note=43 velocity=0 time=0.07200015@note_on channel=0 note=40 velocity=0 time=0.012000025000000001@note_on channel=0 note=86 velocity=96 time=0.013000027083333334@note_on channel=0 note=57 velocity=96 time=0@note_on channel=0 note=45 velocity=96 time=0.2400005@note_on channel=0 note=45 velocity=0 time=0.22700047291666667@note_on channel=0 note=38 velocity=96 time=0.013000027083333334@note_on channel=0 note=57 velocity=0 time=0.20300042291666667@note_on channel=0 note=38 velocity=0 time=0.024000050000000002@note_on channel=0 note=50 velocity=96 time=0.013000027083333334@note_on channel=0 note=38 velocity=96 time=0.2400005@note_on channel=0 note=50 velocity=0 time=0.21500044791666667@note_on channel=0 note=38 velocity=0 time=0.012000025000000001@note_on channel=0 note=54 velocity=96 time=0.013000027083333334@note_on channel=0 note=54 velocity=0 time=0.22700047291666667@note_on channel=0 note=50 velocity=96 time=0.013000027083333334@note_on channel=0 note=50 velocity=0 time=0.22700047291666667@note_on channel=0 note=57 velocity=96 time=0.013000027083333334@note_on channel=0 note=86 velocity=0 time=0.14300029791666666@note_on channel=0 note=57 velocity=0 time=0.084000175@note_on channel=0 note=88 velocity=96 time=0.013000027083333334@note_on channel=0 note=59 velocity=96 time=0@note_on channel=0 note=52 velocity=96 time=0.2400005@note_on channel=0 note=59 velocity=0 time=0.21500044791666667@note_on channel=0 note=52 velocity=0 time=0.012000025000000001@note_on channel=0 note=55 velocity=96 time=0.013000027083333334@note_on channel=0 note=47 velocity=96 time=0.2400005@note_on channel=0 note=55 velocity=0 time=0.21500044791666667@note_on channel=0 note=47 velocity=0 time=0.012000025000000001@note_on channel=0 note=52 velocity=96 time=0.013000027083333334@note_on channel=0 note=43 velocity=96 time=0.2400005@note_on channel=0 note=88 velocity=0 time=0.16700034791666668@note_on channel=0 note=43 velocity=0 time=0.060000125@note_on channel=0 note=95 velocity=96 time=0.013000027083333334@note_on channel=0 note=40 velocity=96 time=0@note_on channel=0 note=52 velocity=0 time=0.20300042291666667@note_on channel=0 note=95 velocity=0 time=0.024000050000000002@note_on channel=0 note=40 velocity=0 time=0@note_on channel=0 note=93 velocity=96 time=0.013000027083333334@note_on channel=0 note=59 velocity=96 time=0@note_on channel=0 note=93 velocity=0 time=0.22700047291666667@note_on channel=0 note=59 velocity=0 time=0@note_on channel=0 note=86 velocity=96 time=0.013000027083333334@note_on channel=0 note=57 velocity=96 time=0@note_on channel=0 note=50 velocity=96 time=0.2400005@note_on channel=0 note=57 velocity=0 time=0.21500044791666667@note_on channel=0 note=50 velocity=0 time=0.012000025000000001@note_on channel=0 note=54 velocity=96 time=0.013000027083333334@note_on channel=0 note=45 velocity=96 time=0.2400005@note_on channel=0 note=54 velocity=0 time=0.21500044791666667@note_on channel=0 note=45 velocity=0 time=0.012000025000000001@note_on channel=0 note=50 velocity=96 time=0.013000027083333334@note_on channel=0 note=86 velocity=0 time=0.17900037291666668@note_on channel=0 note=78 velocity=96 time=0.061000127083333334@note_on channel=0 note=42 velocity=96 time=0@note_on channel=0 note=78 velocity=0 time=0.22700047291666667@note_on channel=0 note=42 velocity=0 time=0@note_on channel=0 note=79 velocity=96 time=0.013000027083333334@note_on channel=0 note=38 velocity=96 time=0@note_on channel=0 note=50 velocity=0 time=0.20300042291666667@note_on channel=0 note=79 velocity=0 time=0.024000050000000002@note_on channel=0 note=38 velocity=0 time=0@note_on channel=0 note=78 velocity=96 time=0.013000027083333334@note_on channel=0 note=57 velocity=96 time=0@note_on channel=0 note=78 velocity=0 time=0.22700047291666667@note_on channel=0 note=57 velocity=0 time=0@note_on channel=0 note=83 velocity=96 time=0.013000027083333334@note_on channel=0 note=59 velocity=96 time=0@note_on channel=0 note=54 velocity=96 time=0.2400005@note_on channel=0 note=59 velocity=0 time=0.21500044791666667@note_on channel=0 note=54 velocity=0 time=0.012000025000000001@note_on channel=0 note=55 velocity=96 time=0.013000027083333334@note_on channel=0 note=48 velocity=96 time=0.2400005@note_on channel=0 note=55 velocity=0 time=0.21500044791666667@note_on channel=0 note=48 velocity=0 time=0.012000025000000001@note_on channel=0 note=43 velocity=96 time=0.013000027083333334@note_on channel=0 note=48 velocity=96 time=0.2400005@note_on channel=0 note=43 velocity=0 time=0.21500044791666667@note_on channel=0 note=48 velocity=0 time=0.012000025000000001@note_on channel=0 note=43 velocity=96 time=0.013000027083333334@note_on channel=0 note=40 velocity=96 time=0.2400005@note_on channel=0 note=83 velocity=0 time=0.14300029791666666@note_on channel=0 note=43 velocity=0 time=0.07200015@note_on channel=0 note=40 velocity=0 time=0.012000025000000001@note_on channel=0 note=86 velocity=96 time=0.013000027083333334@note_on channel=0 note=57 velocity=96 time=0@note_on channel=0 note=45 velocity=96 time=0.2400005@note_on channel=0 note=45 velocity=0 time=0.22700047291666667@note_on channel=0 note=38 velocity=96 time=0.013000027083333334@note_on channel=0 note=57 velocity=0 time=0.20300042291666667@note_on channel=0 note=38 velocity=0 time=0.024000050000000002@note_on channel=0 note=50 velocity=96 time=0.013000027083333334@note_on channel=0 note=38 velocity=96 time=0.2400005@note_on channel=0 note=50 velocity=0 time=0.21500044791666667@note_on channel=0 note=38 velocity=0 time=0.012000025000000001@note_on channel=0 note=54 velocity=96 time=0.013000027083333334@note_on channel=0 note=86 velocity=0 time=0.16700034791666668@note_on channel=0 note=54 velocity=0 time=0.060000125@note_on channel=0 note=90 velocity=96 time=0.013000027083333334@note_on channel=0 note=50 velocity=96 time=0@note_on channel=0 note=90 velocity=0 time=0.22700047291666667@note_on channel=0 note=50 velocity=0 time=0@note_on channel=0 note=91 velocity=96 time=0.013000027083333334@note_on channel=0 note=57 velocity=96 time=0@note_on channel=0 note=91 velocity=0 time=0.22700047291666667@note_on channel=0 note=57 velocity=0 time=0@note_on channel=0 note=88 velocity=96 time=0.013000027083333334@note_on channel=0 note=59 velocity=96 time=0@note_on channel=0 note=52 velocity=96 time=0.2400005@note_on channel=0 note=59 velocity=0 time=0.21500044791666667@note_on channel=0 note=52 velocity=0 time=0.012000025000000001@note_on channel=0 note=55 velocity=96 time=0.013000027083333334@note_on channel=0 note=47 velocity=96 time=0.2400005@note_on channel=0 note=55 velocity=0 time=0.21500044791666667@note_on channel=0 note=47 velocity=0 time=0.012000025000000001@note_on channel=0 note=52 velocity=96 time=0.013000027083333334@note_on channel=0 note=43 velocity=96 time=0.2400005@note_on channel=0 note=88 velocity=0 time=0.16700034791666668@note_on channel=0 note=43 velocity=0 time=0.060000125@note_on channel=0 note=91 velocity=96 time=0.013000027083333334@note_on channel=0 note=40 velocity=96 time=0@note_on channel=0 note=52 velocity=0 time=0.20300042291666667@note_on channel=0 note=91 velocity=0 time=0.024000050000000002@note_on channel=0 note=40 velocity=0 time=0@note_on channel=0 note=90 velocity=96 time=0.013000027083333334@note_on channel=0 note=59 velocity=96 time=0@note_on channel=0 note=90 velocity=0 time=0.22700047291666667@note_on channel=0 note=59 velocity=0 time=0@note_on channel=0 note=86 velocity=96 time=0.013000027083333334@note_on channel=0 note=57 velocity=96 time=0@note_on channel=0 note=50 velocity=96 time=0.2400005@note_on channel=0 note=57 velocity=0 time=0.21500044791666667@note_on channel=0 note=50 velocity=0 time=0.012000025000000001@note_on channel=0 note=54 velocity=96 time=0.013000027083333334@note_on channel=0 note=45 velocity=96 time=0.2400005@note_on channel=0 note=54 velocity=0 time=0.21500044791666667@note_on channel=0 note=45 velocity=0 time=0.012000025000000001@note_on channel=0 note=50 velocity=96 time=0.013000027083333334@note_on channel=0 note=86 velocity=0 time=0.17900037291666668@note_on channel=0 note=93 velocity=96 time=0.061000127083333334@note_on channel=0 note=42 velocity=96 time=0@note_on channel=0 note=93 velocity=0 time=0.22700047291666667@note_on channel=0 note=42 velocity=0 time=0@note_on channel=0 note=95 velocity=96 time=0.013000027083333334@note_on channel=0 note=38 velocity=96 time=0@note_on channel=0 note=50 velocity=0 time=0.20300042291666667@note_on channel=0 note=95 velocity=0 time=0.024000050000000002@note_on channel=0 note=38 velocity=0 time=0@note_on channel=0 note=93 velocity=96 time=0.013000027083333334@note_on channel=0 note=57 velocity=96 time=0@note_on channel=0 note=93 velocity=0 time=0.22700047291666667@note_on channel=0 note=57 velocity=0 time=0@note_on channel=0 note=95 velocity=96 time=0.013000027083333334@note_on channel=0 note=59 velocity=96 time=0@note_on channel=0 note=54 velocity=96 time=0.2400005@note_on channel=0 note=59 velocity=0 time=0.21500044791666667@note_on channel=0 note=54 velocity=0 time=0.012000025000000001@note_on channel=0 note=55 velocity=96 time=0.013000027083333334@note_on channel=0 note=48 velocity=96 time=0.2400005@note_on channel=0 note=55 velocity=0 time=0.21500044791666667@note_on channel=0 note=48 velocity=0 time=0.012000025000000001@note_on channel=0 note=43 velocity=96 time=0.013000027083333334@note_on channel=0 note=48 velocity=96 time=0.2400005@note_on channel=0 note=43 velocity=0 time=0.21500044791666667@note_on channel=0 note=48 velocity=0 time=0.012000025000000001@note_on channel=0 note=43 velocity=96 time=0.013000027083333334@note_on channel=0 note=40 velocity=96 time=0.2400005@note_on channel=0 note=95 velocity=0 time=0.14300029791666666@note_on channel=0 note=43 velocity=0 time=0.07200015@note_on channel=0 note=40 velocity=0 time=0.012000025000000001@note_on channel=0 note=93 velocity=96 time=0.013000027083333334@note_on channel=0 note=57 velocity=96 time=0@note_on channel=0 note=45 velocity=96 time=0.2400005@note_on channel=0 note=45 velocity=0 time=0.22700047291666667@note_on channel=0 note=38 velocity=96 time=0.013000027083333334@note_on channel=0 note=57 velocity=0 time=0.20300042291666667@note_on channel=0 note=38 velocity=0 time=0.024000050000000002@note_on channel=0 note=50 velocity=96 time=0.013000027083333334@note_on channel=0 note=38 velocity=96 time=0.2400005@note_on channel=0 note=50 velocity=0 time=0.21500044791666667@note_on channel=0 note=38 velocity=0 time=0.012000025000000001@note_on channel=0 note=54 velocity=96 time=0.013000027083333334@note_on channel=0 note=54 velocity=0 time=0.22700047291666667@note_on channel=0 note=50 velocity=96 time=0.013000027083333334@note_on channel=0 note=50 velocity=0 time=0.22700047291666667@note_on channel=0 note=57 velocity=96 time=0.013000027083333334@note_on channel=0 note=93 velocity=0 time=0.14300029791666666@note_on channel=0 note=57 velocity=0 time=0.084000175@note_on channel=0 note=72 velocity=80 time=0.013000027083333334@note_on channel=0 note=72 velocity=0 time=0.11300023541666666@note_on channel=0 note=64 velocity=80 time=0.007000014583333334@note_on channel=0 note=64 velocity=0 time=0.11300023541666666@note_on channel=0 note=69 velocity=80 time=0.007000014583333334@note_on channel=0 note=69 velocity=0 time=0.11300023541666666@note_on channel=0 note=72 velocity=80 time=0.007000014583333334@note_on channel=0 note=72 velocity=0 time=0.11300023541666666@note_on channel=0 note=64 velocity=80 time=0.007000014583333334@note_on channel=0 note=64 velocity=0 time=0.11300023541666666@note_on channel=0 note=69 velocity=80 time=0.007000014583333334@note_on channel=0 note=69 velocity=0 time=0.11300023541666666@note_on channel=0 note=72 velocity=80 time=0.007000014583333334@note_on channel=0 note=72 velocity=0 time=0.11300023541666666@note_on channel=0 note=64 velocity=80 time=0.007000014583333334@note_on channel=0 note=64 velocity=0 time=0.11300023541666666@note_on channel=0 note=69 velocity=80 time=0.007000014583333334@note_on channel=0 note=69 velocity=0 time=0.11300023541666666@note_on channel=0 note=72 velocity=80 time=0.007000014583333334@note_on channel=0 note=72 velocity=0 time=0.11300023541666666@note_on channel=0 note=64 velocity=80 time=0.007000014583333334@note_on channel=0 note=64 velocity=0 time=0.11300023541666666@note_on channel=0 note=69 velocity=80 time=0.007000014583333334@note_on channel=0 note=69 velocity=0 time=0.11300023541666666@note_on channel=0 note=72 velocity=80 time=0.007000014583333334@note_on channel=0 note=72 velocity=0 time=0.11300023541666666@note_on channel=0 note=64 velocity=80 time=0.007000014583333334@note_on channel=0 note=64 velocity=0 time=0.11300023541666666@note_on channel=0 note=69 velocity=80 time=0.007000014583333334@note_on channel=0 note=69 velocity=0 time=0.11300023541666666@note_on channel=0 note=72 velocity=80 time=0.007000014583333334@note_on channel=0 note=72 velocity=0 time=0.11300023541666666@note_on channel=0 note=71 velocity=80 time=0.007000014583333334@note_on channel=0 note=71 velocity=0 time=0.11300023541666666@note_on channel=0 note=64 velocity=80 time=0.007000014583333334@note_on channel=0 note=64 velocity=0 time=0.11300023541666666@note_on channel=0 note=67 velocity=80 time=0.007000014583333334@note_on channel=0 note=67 velocity=0 time=0.11300023541666666@note_on channel=0 note=71 velocity=80 time=0.007000014583333334@note_on channel=0 note=71 velocity=0 time=0.11300023541666666@note_on channel=0 note=64 velocity=80 time=0.007000014583333334@note_on channel=0 note=64 velocity=0 time=0.11300023541666666@note_on channel=0 note=67 velocity=80 time=0.007000014583333334@note_on channel=0 note=67 velocity=0 time=0.11300023541666666@note_on channel=0 note=71 velocity=80 time=0.007000014583333334@note_on channel=0 note=71 velocity=0 time=0.11300023541666666@note_on channel=0 note=64 velocity=80 time=0.007000014583333334@note_on channel=0 note=64 velocity=0 time=0.11300023541666666@note_on channel=0 note=67 velocity=80 time=0.007000014583333334@note_on channel=0 note=67 velocity=0 time=0.11300023541666666@note_on channel=0 note=71 velocity=80 time=0.007000014583333334@note_on channel=0 note=71 velocity=0 time=0.11300023541666666@note_on channel=0 note=64 velocity=80 time=0.007000014583333334@note_on channel=0 note=64 velocity=0 time=0.11300023541666666@note_on channel=0 note=67 velocity=80 time=0.007000014583333334@note_on channel=0 note=67 velocity=0 time=0.11300023541666666@note_on channel=0 note=71 velocity=80 time=0.007000014583333334@note_on channel=0 note=71 velocity=0 time=0.11300023541666666@note_on channel=0 note=64 velocity=80 time=0.007000014583333334@note_on channel=0 note=64 velocity=0 time=0.11300023541666666@note_on channel=0 note=67 velocity=80 time=0.007000014583333334@note_on channel=0 note=67 velocity=0 time=0.11300023541666666@note_on channel=0 note=71 velocity=80 time=0.007000014583333334@note_on channel=0 note=71 velocity=0 time=0.11300023541666666@note_on channel=0 note=74 velocity=80 time=0.007000014583333334@note_on channel=0 note=74 velocity=0 time=0.11300023541666666@note_on channel=0 note=66 velocity=80 time=0.007000014583333334@note_on channel=0 note=66 velocity=0 time=0.11300023541666666@note_on channel=0 note=71 velocity=80 time=0.007000014583333334@note_on channel=0 note=71 velocity=0 time=0.11300023541666666@note_on channel=0 note=74 velocity=80 time=0.007000014583333334@note_on channel=0 note=74 velocity=0 time=0.11300023541666666@note_on channel=0 note=66 velocity=80 time=0.007000014583333334@note_on channel=0 note=66 velocity=0 time=0.11300023541666666@note_on channel=0 note=71 velocity=80 time=0.007000014583333334@note_on channel=0 note=71 velocity=0 time=0.11300023541666666@note_on channel=0 note=74 velocity=80 time=0.007000014583333334@note_on channel=0 note=74 velocity=0 time=0.11300023541666666@note_on channel=0 note=66 velocity=80 time=0.007000014583333334@note_on channel=0 note=66 velocity=0 time=0.11300023541666666@note_on channel=0 note=71 velocity=80 time=0.007000014583333334@note_on channel=0 note=71 velocity=0 time=0.11300023541666666@note_on channel=0 note=74 velocity=80 time=0.007000014583333334@note_on channel=0 note=74 velocity=0 time=0.11300023541666666@note_on channel=0 note=66 velocity=80 time=0.007000014583333334@note_on channel=0 note=66 velocity=0 time=0.11300023541666666@note_on channel=0 note=71 velocity=80 time=0.007000014583333334@note_on channel=0 note=71 velocity=0 time=0.11300023541666666@note_on channel=0 note=74 velocity=80 time=0.007000014583333334@note_on channel=0 note=74 velocity=0 time=0.11300023541666666@note_on channel=0 note=66 velocity=80 time=0.007000014583333334@note_on channel=0 note=66 velocity=0 time=0.11300023541666666@note_on channel=0 note=71 velocity=80 time=0.007000014583333334@note_on channel=0 note=71 velocity=0 time=0.11300023541666666@note_on channel=0 note=74 velocity=80 time=0.007000014583333334@note_on channel=0 note=74 velocity=0 time=0.11300023541666666@note_on channel=0 note=76 velocity=80 time=0.007000014583333334@note_on channel=0 note=76 velocity=0 time=0.11300023541666666@note_on channel=0 note=67 velocity=80 time=0.007000014583333334@note_on channel=0 note=67 velocity=0 time=0.11300023541666666@note_on channel=0 note=72 velocity=80 time=0.007000014583333334@note_on channel=0 note=72 velocity=0 time=0.11300023541666666@note_on channel=0 note=76 velocity=80 time=0.007000014583333334@note_on channel=0 note=76 velocity=0 time=0.11300023541666666@note_on channel=0 note=67 velocity=80 time=0.007000014583333334@note_on channel=0 note=67 velocity=0 time=0.11300023541666666@note_on channel=0 note=72 velocity=80 time=0.007000014583333334@note_on channel=0 note=72 velocity=0 time=0.11300023541666666@note_on channel=0 note=76 velocity=80 time=0.007000014583333334@note_on channel=0 note=76 velocity=0 time=0.11300023541666666@note_on channel=0 note=67 velocity=80 time=0.007000014583333334@note_on channel=0 note=67 velocity=0 time=0.11300023541666666@note_on channel=0 note=72 velocity=80 time=0.007000014583333334@note_on channel=0 note=72 velocity=0 time=0.11300023541666666@note_on channel=0 note=76 velocity=80 time=0.007000014583333334@note_on channel=0 note=76 velocity=0 time=0.11300023541666666@note_on channel=0 note=67 velocity=80 time=0.007000014583333334@note_on channel=0 note=67 velocity=0 time=0.11300023541666666@note_on channel=0 note=72 velocity=80 time=0.007000014583333334@note_on channel=0 note=72 velocity=0 time=0.11300023541666666@note_on channel=0 note=76 velocity=80 time=0.007000014583333334@note_on channel=0 note=76 velocity=0 time=0.11300023541666666@note_on channel=0 note=67 velocity=80 time=0.007000014583333334@note_on channel=0 note=67 velocity=0 time=0.11300023541666666@note_on channel=0 note=72 velocity=80 time=0.007000014583333334@note_on channel=0 note=72 velocity=0 time=0.11300023541666666@note_on channel=0 note=76 velocity=80 time=0.007000014583333334@note_on channel=0 note=76 velocity=0 time=0.11300023541666666@note_on channel=0 note=76 velocity=80 time=0.007000014583333334@note_on channel=0 note=60 velocity=56 time=0@note_on channel=0 note=76 velocity=0 time=0.11300023541666666@note_on channel=0 note=64 velocity=80 time=0.007000014583333334@note_on channel=0 note=60 velocity=0 time=0.10700022291666667@note_on channel=0 note=64 velocity=0 time=0.0060000125000000005@note_on channel=0 note=72 velocity=80 time=0.007000014583333334@note_on channel=0 note=57 velocity=56 time=0@note_on channel=0 note=72 velocity=0 time=0.11300023541666666@note_on channel=0 note=76 velocity=80 time=0.007000014583333334@note_on channel=0 note=57 velocity=0 time=0.10700022291666667@note_on channel=0 note=76 velocity=0 time=0.0060000125000000005@note_on channel=0 note=64 velocity=80 time=0.007000014583333334@note_on channel=0 note=52 velocity=56 time=0@note_on channel=0 note=64 velocity=0 time=0.11300023541666666@note_on channel=0 note=72 velocity=80 time=0.007000014583333334@note_on channel=0 note=72 velocity=0 time=0.11300023541666666@note_on channel=0 note=76 velocity=80 time=0.007000014583333334@note_on channel=0 note=76 velocity=0 time=0.11300023541666666@note_on channel=0 note=64 velocity=80 time=0.007000014583333334@note_on channel=0 note=64 velocity=0 time=0.11300023541666666@note_on channel=0 note=72 velocity=80 time=0.007000014583333334@note_on channel=0 note=72 velocity=0 time=0.11300023541666666@note_on channel=0 note=76 velocity=80 time=0.007000014583333334@note_on channel=0 note=76 velocity=0 time=0.11300023541666666@note_on channel=0 note=64 velocity=80 time=0.007000014583333334@note_on channel=0 note=64 velocity=0 time=0.11300023541666666@note_on channel=0 note=72 velocity=80 time=0.007000014583333334@note_on channel=0 note=52 velocity=0 time=0.07100014791666667@note_on channel=0 note=72 velocity=0 time=0.0420000875@note_on channel=0 note=76 velocity=80 time=0.007000014583333334@note_on channel=0 note=76 velocity=0 time=0.11300023541666666@note_on channel=0 note=64 velocity=80 time=0.007000014583333334@note_on channel=0 note=64 velocity=0 time=0.11300023541666666@note_on channel=0 note=72 velocity=80 time=0.007000014583333334@note_on channel=0 note=72 velocity=0 time=0.11300023541666666@note_on channel=0 note=76 velocity=80 time=0.007000014583333334@note_on channel=0 note=76 velocity=0 time=0.11300023541666666@note_on channel=0 note=76 velocity=80 time=0.007000014583333334@note_on channel=0 note=59 velocity=56 time=0@note_on channel=0 note=76 velocity=0 time=0.11300023541666666@note_on channel=0 note=64 velocity=80 time=0.007000014583333334@note_on channel=0 note=59 velocity=0 time=0.10700022291666667@note_on channel=0 note=64 velocity=0 time=0.0060000125000000005@note_on channel=0 note=71 velocity=80 time=0.007000014583333334@note_on channel=0 note=55 velocity=56 time=0@note_on channel=0 note=71 velocity=0 time=0.11300023541666666@note_on channel=0 note=76 velocity=80 time=0.007000014583333334@note_on channel=0 note=55 velocity=0 time=0.10700022291666667@note_on channel=0 note=76 velocity=0 time=0.0060000125000000005@note_on channel=0 note=64 velocity=80 time=0.007000014583333334@note_on channel=0 note=52 velocity=56 time=0@note_on channel=0 note=64 velocity=0 time=0.11300023541666666@note_on channel=0 note=71 velocity=80 time=0.007000014583333334@note_on channel=0 note=71 velocity=0 time=0.11300023541666666@note_on channel=0 note=76 velocity=80 time=0.007000014583333334@note_on channel=0 note=76 velocity=0 time=0.11300023541666666@note_on channel=0 note=64 velocity=80 time=0.007000014583333334@note_on channel=0 note=64 velocity=0 time=0.11300023541666666@note_on channel=0 note=71 velocity=80 time=0.007000014583333334@note_on channel=0 note=71 velocity=0 time=0.11300023541666666@note_on channel=0 note=76 velocity=80 time=0.007000014583333334@note_on channel=0 note=76 velocity=0 time=0.11300023541666666@note_on channel=0 note=64 velocity=80 time=0.007000014583333334@note_on channel=0 note=64 velocity=0 time=0.11300023541666666@note_on channel=0 note=71 velocity=80 time=0.007000014583333334@note_on channel=0 note=52 velocity=0 time=0.07100014791666667@note_on channel=0 note=71 velocity=0 time=0.0420000875@note_on channel=0 note=71 velocity=80 time=0.007000014583333334@note_on channel=0 note=71 velocity=0 time=0.11300023541666666@note_on channel=0 note=64 velocity=80 time=0.007000014583333334@note_on channel=0 note=64 velocity=0 time=0.11300023541666666@note_on channel=0 note=71 velocity=80 time=0.007000014583333334@note_on channel=0 note=71 velocity=0 time=0.11300023541666666@note_on channel=0 note=71 velocity=80 time=0.007000014583333334@note_on channel=0 note=71 velocity=0 time=0.11300023541666666@note_on channel=0 note=71 velocity=80 time=0.007000014583333334@note_on channel=0 note=59 velocity=80 time=0@note_on channel=0 note=71 velocity=0 time=0.11300023541666666@note_on channel=0 note=67 velocity=80 time=0.007000014583333334@note_on channel=0 note=59 velocity=0 time=0.10700022291666667@note_on channel=0 note=67 velocity=0 time=0.0060000125000000005@note_on channel=0 note=74 velocity=80 time=0.007000014583333334@note_on channel=0 note=62 velocity=80 time=0@note_on channel=0 note=74 velocity=0 time=0.11300023541666666@note_on channel=0 note=71 velocity=80 time=0.007000014583333334@note_on channel=0 note=62 velocity=0 time=0.10700022291666667@note_on channel=0 note=71 velocity=0 time=0.0060000125000000005@note_on channel=0 note=78 velocity=80 time=0.007000014583333334@note_on channel=0 note=66 velocity=80 time=0@note_on channel=0 note=78 velocity=0 time=0.11300023541666666@note_on channel=0 note=74 velocity=80 time=0.007000014583333334@note_on channel=0 note=66 velocity=0 time=0.10700022291666667@note_on channel=0 note=74 velocity=0 time=0.0060000125000000005@note_on channel=0 note=74 velocity=80 time=0.007000014583333334@note_on channel=0 note=62 velocity=80 time=0@note_on channel=0 note=74 velocity=0 time=0.11300023541666666@note_on channel=0 note=78 velocity=80 time=0.007000014583333334@note_on channel=0 note=62 velocity=0 time=0.10700022291666667@note_on channel=0 note=78 velocity=0 time=0.0060000125000000005@note_on channel=0 note=78 velocity=80 time=0.007000014583333334@note_on channel=0 note=66 velocity=80 time=0@note_on channel=0 note=78 velocity=0 time=0.11300023541666666@note_on channel=0 note=74 velocity=80 time=0.007000014583333334@note_on channel=0 note=66 velocity=0 time=0.10700022291666667@note_on channel=0 note=74 velocity=0 time=0.0060000125000000005@note_on channel=0 note=83 velocity=80 time=0.007000014583333334@note_on channel=0 note=71 velocity=80 time=0@note_on channel=0 note=83 velocity=0 time=0.11300023541666666@note_on channel=0 note=78 velocity=80 time=0.007000014583333334@note_on channel=0 note=71 velocity=0 time=0.10700022291666667@note_on channel=0 note=78 velocity=0 time=0.0060000125000000005@note_on channel=0 note=78 velocity=80 time=0.007000014583333334@note_on channel=0 note=66 velocity=80 time=0@note_on channel=0 note=78 velocity=0 time=0.11300023541666666@note_on channel=0 note=83 velocity=80 time=0.007000014583333334@note_on channel=0 note=66 velocity=0 time=0.10700022291666667@note_on channel=0 note=83 velocity=0 time=0.0060000125000000005@note_on channel=0 note=74 velocity=80 time=0.007000014583333334@note_on channel=0 note=62 velocity=80 time=0@note_on channel=0 note=74 velocity=0 time=0.11300023541666666@note_on channel=0 note=78 velocity=80 time=0.007000014583333334@note_on channel=0 note=62 velocity=0 time=0.10700022291666667@note_on channel=0 note=78 velocity=0 time=0.0060000125000000005@note_on channel=0 note=84 velocity=80 time=0.007000014583333334@note_on channel=0 note=60 velocity=80 time=0@note_on channel=0 note=84 velocity=0 time=0.11300023541666666@note_on channel=0 note=71 velocity=80 time=0.007000014583333334@note_on channel=0 note=60 velocity=0 time=0.10700022291666667@note_on channel=0 note=71 velocity=0 time=0.0060000125000000005@note_on channel=0 note=79 velocity=80 time=0.007000014583333334@note_on channel=0 note=55 velocity=80 time=0@note_on channel=0 note=79 velocity=0 time=0.11300023541666666@note_on channel=0 note=84 velocity=80 time=0.007000014583333334@note_on channel=0 note=55 velocity=0 time=0.10700022291666667@note_on channel=0 note=84 velocity=0 time=0.0060000125000000005@note_on channel=0 note=76 velocity=80 time=0.007000014583333334@note_on channel=0 note=52 velocity=80 time=0@note_on channel=0 note=76 velocity=0 time=0.11300023541666666@note_on channel=0 note=79 velocity=80 time=0.007000014583333334@note_on channel=0 note=52 velocity=0 time=0.10700022291666667@note_on channel=0 note=79 velocity=0 time=0.0060000125000000005@note_on channel=0 note=79 velocity=80 time=0.007000014583333334@note_on channel=0 note=55 velocity=80 time=0@note_on channel=0 note=79 velocity=0 time=0.11300023541666666@note_on channel=0 note=76 velocity=80 time=0.007000014583333334@note_on channel=0 note=55 velocity=0 time=0.10700022291666667@note_on channel=0 note=76 velocity=0 time=0.0060000125000000005@note_on channel=0 note=76 velocity=80 time=0.007000014583333334@note_on channel=0 note=52 velocity=80 time=0@note_on channel=0 note=76 velocity=0 time=0.11300023541666666@note_on channel=0 note=79 velocity=80 time=0.007000014583333334@note_on channel=0 note=52 velocity=0 time=0.10700022291666667@note_on channel=0 note=79 velocity=0 time=0.0060000125000000005@note_on channel=0 note=79 velocity=80 time=0.007000014583333334@note_on channel=0 note=55 velocity=80 time=0@note_on channel=0 note=79 velocity=0 time=0.11300023541666666@note_on channel=0 note=76 velocity=80 time=0.007000014583333334@note_on channel=0 note=55 velocity=0 time=0.10700022291666667@note_on channel=0 note=76 velocity=0 time=0.0060000125000000005@note_on channel=0 note=76 velocity=80 time=0.007000014583333334@note_on channel=0 note=52 velocity=80 time=0@note_on channel=0 note=76 velocity=0 time=0.11300023541666666@note_on channel=0 note=79 velocity=80 time=0.007000014583333334@note_on channel=0 note=52 velocity=0 time=0.10700022291666667@note_on channel=0 note=79 velocity=0 time=0.0060000125000000005@note_on channel=0 note=72 velocity=80 time=0.007000014583333334@note_on channel=0 note=48 velocity=80 time=0@note_on channel=0 note=72 velocity=0 time=0.11300023541666666@note_on channel=0 note=76 velocity=80 time=0.007000014583333334@note_on channel=0 note=48 velocity=0 time=0.10700022291666667@note_on channel=0 note=76 velocity=0 time=0.0060000125000000005@note_on channel=0 note=81 velocity=96 time=0.007000014583333334@note_on channel=0 note=48 velocity=96 time=0@note_on channel=0 note=81 velocity=0 time=0.11300023541666666@note_on channel=0 note=72 velocity=96 time=0.007000014583333334@note_on channel=0 note=72 velocity=0 time=0.11300023541666666@note_on channel=0 note=76 velocity=96 time=0.007000014583333334@note_on channel=0 note=76 velocity=0 time=0.11300023541666666@note_on channel=0 note=81 velocity=96 time=0.007000014583333334@note_on channel=0 note=81 velocity=0 time=0.11300023541666666@note_on channel=0 note=72 velocity=96 time=0.007000014583333334@note_on channel=0 note=72 velocity=0 time=0.11300023541666666@note_on channel=0 note=76 velocity=96 time=0.007000014583333334@note_on channel=0 note=48 velocity=0 time=0.08300017291666667@note_on channel=0 note=76 velocity=0 time=0.0300000625@note_on channel=0 note=76 velocity=96 time=0.007000014583333334@note_on channel=0 note=40 velocity=96 time=0@note_on channel=0 note=76 velocity=0 time=0.11300023541666666@note_on channel=0 note=72 velocity=96 time=0.007000014583333334@note_on channel=0 note=72 velocity=0 time=0.11300023541666666@note_on channel=0 note=76 velocity=96 time=0.007000014583333334@note_on channel=0 note=76 velocity=0 time=0.11300023541666666@note_on channel=0 note=72 velocity=96 time=0.007000014583333334@note_on channel=0 note=72 velocity=0 time=0.11300023541666666@note_on channel=0 note=81 velocity=96 time=0.007000014583333334@note_on channel=0 note=81 velocity=0 time=0.11300023541666666@note_on channel=0 note=76 velocity=96 time=0.007000014583333334@note_on channel=0 note=40 velocity=0 time=0.08300017291666667@note_on channel=0 note=76 velocity=0 time=0.0300000625@note_on channel=0 note=76 velocity=96 time=0.007000014583333334@note_on channel=0 note=40 velocity=96 time=0@note_on channel=0 note=76 velocity=0 time=0.11300023541666666@note_on channel=0 note=81 velocity=96 time=0.007000014583333334@note_on channel=0 note=81 velocity=0 time=0.11300023541666666@note_on channel=0 note=72 velocity=96 time=0.007000014583333334@note_on channel=0 note=72 velocity=0 time=0.11300023541666666@note_on channel=0 note=76 velocity=96 time=0.007000014583333334@note_on channel=0 note=40 velocity=0 time=0.09500019791666667@note_on channel=0 note=76 velocity=0 time=0.0180000375@note_on channel=0 note=76 velocity=96 time=0.007000014583333334@note_on channel=0 note=47 velocity=96 time=0@note_on channel=0 note=76 velocity=0 time=0.11300023541666666@note_on channel=0 note=72 velocity=96 time=0.007000014583333334@note_on channel=0 note=72 velocity=0 time=0.11300023541666666@note_on channel=0 note=79 velocity=96 time=0.007000014583333334@note_on channel=0 note=79 velocity=0 time=0.11300023541666666@note_on channel=0 note=76 velocity=96 time=0.007000014583333334@note_on channel=0 note=76 velocity=0 time=0.11300023541666666@note_on channel=0 note=83 velocity=96 time=0.007000014583333334@note_on channel=0 note=83 velocity=0 time=0.11300023541666666@note_on channel=0 note=79 velocity=96 time=0.007000014583333334@note_on channel=0 note=47 velocity=0 time=0.08300017291666667@note_on channel=0 note=79 velocity=0 time=0.0300000625@note_on channel=0 note=88 velocity=96 time=0.007000014583333334@note_on channel=0 note=40 velocity=96 time=0@note_on channel=0 note=88 velocity=0 time=0.11300023541666666@note_on channel=0 note=83 velocity=96 time=0.007000014583333334@note_on channel=0 note=83 velocity=0 time=0.11300023541666666@note_on channel=0 note=83 velocity=96 time=0.007000014583333334@note_on channel=0 note=83 velocity=0 time=0.11300023541666666@note_on channel=0 note=88 velocity=96 time=0.007000014583333334@note_on channel=0 note=88 velocity=0 time=0.11300023541666666@note_on channel=0 note=79 velocity=96 time=0.007000014583333334@note_on channel=0 note=79 velocity=0 time=0.11300023541666666@note_on channel=0 note=83 velocity=96 time=0.007000014583333334@note_on channel=0 note=40 velocity=0 time=0.08300017291666667@note_on channel=0 note=83 velocity=0 time=0.0300000625@note_on channel=0 note=88 velocity=96 time=0.007000014583333334@note_on channel=0 note=40 velocity=96 time=0@note_on channel=0 note=88 velocity=0 time=0.11300023541666666@note_on channel=0 note=79 velocity=96 time=0.007000014583333334@note_on channel=0 note=79 velocity=0 time=0.11300023541666666@note_on channel=0 note=79 velocity=96 time=0.007000014583333334@note_on channel=0 note=79 velocity=0 time=0.11300023541666666@note_on channel=0 note=88 velocity=96 time=0.007000014583333334@note_on channel=0 note=40 velocity=0 time=0.09500019791666667@note_on channel=0 note=88 velocity=0 time=0.0180000375@note_on channel=0 note=71 velocity=96 time=0.007000014583333334@note_on channel=0 note=42 velocity=96 time=0@note_on channel=0 note=71 velocity=0 time=0.11300023541666666@note_on channel=0 note=79 velocity=96 time=0.007000014583333334@note_on channel=0 note=79 velocity=0 time=0.11300023541666666@note_on channel=0 note=74 velocity=96 time=0.007000014583333334@note_on channel=0 note=74 velocity=0 time=0.11300023541666666@note_on channel=0 note=71 velocity=96 time=0.007000014583333334@note_on channel=0 note=71 velocity=0 time=0.11300023541666666@note_on channel=0 note=78 velocity=96 time=0.007000014583333334@note_on channel=0 note=78 velocity=0 time=0.11300023541666666@note_on channel=0 note=74 velocity=96 time=0.007000014583333334@note_on channel=0 note=42 velocity=0 time=0.08300017291666667@note_on channel=0 note=74 velocity=0 time=0.0300000625@note_on channel=0 note=74 velocity=96 time=0.007000014583333334@note_on channel=0 note=50 velocity=96 time=0@note_on channel=0 note=74 velocity=0 time=0.11300023541666666@note_on channel=0 note=78 velocity=96 time=0.007000014583333334@note_on channel=0 note=78 velocity=0 time=0.11300023541666666@note_on channel=0 note=78 velocity=96 time=0.007000014583333334@note_on channel=0 note=78 velocity=0 time=0.11300023541666666@note_on channel=0 note=74 velocity=96 time=0.007000014583333334@note_on channel=0 note=74 velocity=0 time=0.11300023541666666@note_on channel=0 note=83 velocity=96 time=0.007000014583333334@note_on channel=0 note=83 velocity=0 time=0.11300023541666666@note_on channel=0 note=78 velocity=96 time=0.007000014583333334@note_on channel=0 note=50 velocity=0 time=0.08300017291666667@note_on channel=0 note=78 velocity=0 time=0.0300000625@note_on channel=0 note=78 velocity=96 time=0.007000014583333334@note_on channel=0 note=42 velocity=96 time=0@note_on channel=0 note=78 velocity=0 time=0.11300023541666666@note_on channel=0 note=83 velocity=96 time=0.007000014583333334@note_on channel=0 note=83 velocity=0 time=0.11300023541666666@note_on channel=0 note=74 velocity=96 time=0.007000014583333334@note_on channel=0 note=74 velocity=0 time=0.11300023541666666@note_on channel=0 note=78 velocity=96 time=0.007000014583333334@note_on channel=0 note=42 velocity=0 time=0.09500019791666667@note_on channel=0 note=78 velocity=0 time=0.0180000375@note_on channel=0 note=84 velocity=96 time=0.007000014583333334@note_on channel=0 note=43 velocity=96 time=0@note_on channel=0 note=84 velocity=0 time=0.11300023541666666@note_on channel=0 note=74 velocity=96 time=0.007000014583333334@note_on channel=0 note=74 velocity=0 time=0.11300023541666666@note_on channel=0 note=79 velocity=96 time=0.007000014583333334@note_on channel=0 note=79 velocity=0 time=0.11300023541666666@note_on channel=0 note=84 velocity=96 time=0.007000014583333334@note_on channel=0 note=84 velocity=0 time=0.11300023541666666@note_on channel=0 note=76 velocity=96 time=0.007000014583333334@note_on channel=0 note=76 velocity=0 time=0.11300023541666666@note_on channel=0 note=79 velocity=96 time=0.007000014583333334@note_on channel=0 note=43 velocity=0 time=0.08300017291666667@note_on channel=0 note=79 velocity=0 time=0.0300000625@note_on channel=0 note=91 velocity=96 time=0.007000014583333334@note_on channel=0 note=52 velocity=96 time=0@note_on channel=0 note=91 velocity=0 time=0.11300023541666666@note_on channel=0 note=76 velocity=96 time=0.007000014583333334@note_on channel=0 note=76 velocity=0 time=0.11300023541666666@note_on channel=0 note=88 velocity=96 time=0.007000014583333334@note_on channel=0 note=88 velocity=0 time=0.11300023541666666@note_on channel=0 note=91 velocity=96 time=0.007000014583333334@note_on channel=0 note=91 velocity=0 time=0.11300023541666666@note_on channel=0 note=84 velocity=96 time=0.007000014583333334@note_on channel=0 note=84 velocity=0 time=0.11300023541666666@note_on channel=0 note=88 velocity=96 time=0.007000014583333334@note_on channel=0 note=52 velocity=0 time=0.08300017291666667@note_on channel=0 note=88 velocity=0 time=0.0300000625@note_on channel=0 note=79 velocity=96 time=0.007000014583333334@note_on channel=0 note=43 velocity=96 time=0@note_on channel=0 note=79 velocity=0 time=0.11300023541666666@note_on channel=0 note=84 velocity=96 time=0.007000014583333334@note_on channel=0 note=84 velocity=0 time=0.11300023541666666@note_on channel=0 note=88 velocity=96 time=0.007000014583333334@note_on channel=0 note=88 velocity=0 time=0.11300023541666666@note_on channel=0 note=79 velocity=96 time=0.007000014583333334@note_on channel=0 note=43 velocity=0 time=0.09500019791666667@note_on channel=0 note=79 velocity=0 time=0.0180000375@note_on channel=0 note=93 velocity=96 time=0.007000014583333334@note_on channel=0 note=48 velocity=96 time=0@note_on channel=0 note=93 velocity=0 time=0.11300023541666666@note_on channel=0 note=88 velocity=96 time=0.007000014583333334@note_on channel=0 note=88 velocity=0 time=0.11300023541666666@note_on channel=0 note=88 velocity=96 time=0.007000014583333334@note_on channel=0 note=88 velocity=0 time=0.11300023541666666@note_on channel=0 note=93 velocity=96 time=0.007000014583333334@note_on channel=0 note=93 velocity=0 time=0.11300023541666666@note_on channel=0 note=84 velocity=96 time=0.007000014583333334@note_on channel=0 note=84 velocity=0 time=0.11300023541666666@note_on channel=0 note=88 velocity=96 time=0.007000014583333334@note_on channel=0 note=48 velocity=0 time=0.08300017291666667@note_on channel=0 note=88 velocity=0 time=0.0300000625@note_on channel=0 note=81 velocity=96 time=0.007000014583333334@note_on channel=0 note=40 velocity=96 time=0@note_on channel=0 note=81 velocity=0 time=0.11300023541666666@note_on channel=0 note=84 velocity=96 time=0.007000014583333334@note_on channel=0 note=84 velocity=0 time=0.11300023541666666@note_on channel=0 note=76 velocity=96 time=0.007000014583333334@note_on channel=0 note=76 velocity=0 time=0.11300023541666666@note_on channel=0 note=81 velocity=96 time=0.007000014583333334@note_on channel=0 note=81 velocity=0 time=0.11300023541666666@note_on channel=0 note=81 velocity=96 time=0.007000014583333334@note_on channel=0 note=81 velocity=0 time=0.11300023541666666@note_on channel=0 note=76 velocity=96 time=0.007000014583333334@note_on channel=0 note=40 velocity=0 time=0.08300017291666667@note_on channel=0 note=76 velocity=0 time=0.0300000625@note_on channel=0 note=76 velocity=96 time=0.007000014583333334@note_on channel=0 note=40 velocity=96 time=0@note_on channel=0 note=76 velocity=0 time=0.11300023541666666@note_on channel=0 note=81 velocity=96 time=0.007000014583333334@note_on channel=0 note=81 velocity=0 time=0.11300023541666666@note_on channel=0 note=72 velocity=96 time=0.007000014583333334@note_on channel=0 note=72 velocity=0 time=0.11300023541666666@note_on channel=0 note=76 velocity=96 time=0.007000014583333334@note_on channel=0 note=40 velocity=0 time=0.09500019791666667@note_on channel=0 note=76 velocity=0 time=0.0180000375@note_on channel=0 note=79 velocity=96 time=0.007000014583333334@note_on channel=0 note=47 velocity=96 time=0@note_on channel=0 note=79 velocity=0 time=0.11300023541666666@note_on channel=0 note=72 velocity=96 time=0.007000014583333334@note_on channel=0 note=72 velocity=0 time=0.11300023541666666@note_on channel=0 note=83 velocity=96 time=0.007000014583333334@note_on channel=0 note=83 velocity=0 time=0.11300023541666666@note_on channel=0 note=79 velocity=96 time=0.007000014583333334@note_on channel=0 note=79 velocity=0 time=0.11300023541666666@note_on channel=0 note=88 velocity=96 time=0.007000014583333334@note_on channel=0 note=88 velocity=0 time=0.11300023541666666@note_on channel=0 note=83 velocity=96 time=0.007000014583333334@note_on channel=0 note=47 velocity=0 time=0.08300017291666667@note_on channel=0 note=83 velocity=0 time=0.0300000625@note_on channel=0 note=91 velocity=96 time=0.007000014583333334@note_on channel=0 note=40 velocity=96 time=0@note_on channel=0 note=91 velocity=0 time=0.11300023541666666@note_on channel=0 note=88 velocity=96 time=0.007000014583333334@note_on channel=0 note=88 velocity=0 time=0.11300023541666666@note_on channel=0 note=95 velocity=96 time=0.007000014583333334@note_on channel=0 note=95 velocity=0 time=0.11300023541666666@note_on channel=0 note=91 velocity=96 time=0.007000014583333334@note_on channel=0 note=91 velocity=0 time=0.11300023541666666@note_on channel=0 note=88 velocity=96 time=0.007000014583333334@note_on channel=0 note=88 velocity=0 time=0.11300023541666666@note_on channel=0 note=95 velocity=96 time=0.007000014583333334@note_on channel=0 note=40 velocity=0 time=0.08300017291666667@note_on channel=0 note=95 velocity=0 time=0.0300000625@note_on channel=0 note=91 velocity=96 time=0.007000014583333334@note_on channel=0 note=40 velocity=96 time=0@note_on channel=0 note=91 velocity=0 time=0.11300023541666666@note_on channel=0 note=88 velocity=96 time=0.007000014583333334@note_on channel=0 note=88 velocity=0 time=0.11300023541666666@note_on channel=0 note=95 velocity=96 time=0.007000014583333334@note_on channel=0 note=95 velocity=0 time=0.11300023541666666@note_on channel=0 note=91 velocity=96 time=0.007000014583333334@note_on channel=0 note=40 velocity=0 time=0.09500019791666667@note_on channel=0 note=91 velocity=0 time=0.0180000375@note_on channel=0 note=71 velocity=96 time=0.007000014583333334@note_on channel=0 note=50 velocity=96 time=0@note_on channel=0 note=71 velocity=0 time=0.11300023541666666@note_on channel=0 note=79 velocity=96 time=0.007000014583333334@note_on channel=0 note=79 velocity=0 time=0.11300023541666666@note_on channel=0 note=74 velocity=96 time=0.007000014583333334@note_on channel=0 note=74 velocity=0 time=0.11300023541666666@note_on channel=0 note=71 velocity=96 time=0.007000014583333334@note_on channel=0 note=71 velocity=0 time=0.11300023541666666@note_on channel=0 note=78 velocity=96 time=0.007000014583333334@note_on channel=0 note=78 velocity=0 time=0.11300023541666666@note_on channel=0 note=74 velocity=96 time=0.007000014583333334@note_on channel=0 note=50 velocity=0 time=0.08300017291666667@note_on channel=0 note=74 velocity=0 time=0.0300000625@note_on channel=0 note=74 velocity=96 time=0.007000014583333334@note_on channel=0 note=42 velocity=96 time=0@note_on channel=0 note=74 velocity=0 time=0.11300023541666666@note_on channel=0 note=78 velocity=96 time=0.007000014583333334@note_on channel=0 note=78 velocity=0 time=0.11300023541666666@note_on channel=0 note=78 velocity=96 time=0.007000014583333334@note_on channel=0 note=78 velocity=0 time=0.11300023541666666@note_on channel=0 note=74 velocity=96 time=0.007000014583333334@note_on channel=0 note=74 velocity=0 time=0.11300023541666666@note_on channel=0 note=83 velocity=96 time=0.007000014583333334@note_on channel=0 note=83 velocity=0 time=0.11300023541666666@note_on channel=0 note=78 velocity=96 time=0.007000014583333334@note_on channel=0 note=42 velocity=0 time=0.08300017291666667@note_on channel=0 note=78 velocity=0 time=0.0300000625@note_on channel=0 note=78 velocity=96 time=0.007000014583333334@note_on channel=0 note=42 velocity=96 time=0@note_on channel=0 note=78 velocity=0 time=0.11300023541666666@note_on channel=0 note=83 velocity=96 time=0.007000014583333334@note_on channel=0 note=83 velocity=0 time=0.11300023541666666@note_on channel=0 note=74 velocity=96 time=0.007000014583333334@note_on channel=0 note=74 velocity=0 time=0.11300023541666666@note_on channel=0 note=78 velocity=96 time=0.007000014583333334@note_on channel=0 note=42 velocity=0 time=0.09500019791666667@note_on channel=0 note=78 velocity=0 time=0.0180000375@note_on channel=0 note=84 velocity=96 time=0.007000014583333334@note_on channel=0 note=43 velocity=96 time=0@note_on channel=0 note=84 velocity=0 time=0.11300023541666666@note_on channel=0 note=78 velocity=96 time=0.007000014583333334@note_on channel=0 note=78 velocity=0 time=0.11300023541666666@note_on channel=0 note=79 velocity=96 time=0.007000014583333334@note_on channel=0 note=79 velocity=0 time=0.11300023541666666@note_on channel=0 note=84 velocity=96 time=0.007000014583333334@note_on channel=0 note=84 velocity=0 time=0.11300023541666666@note_on channel=0 note=91 velocity=96 time=0.007000014583333334@note_on channel=0 note=91 velocity=0 time=0.11300023541666666@note_on channel=0 note=79 velocity=96 time=0.007000014583333334@note_on channel=0 note=43 velocity=0 time=0.08300017291666667@note_on channel=0 note=79 velocity=0 time=0.0300000625@note_on channel=0 note=88 velocity=96 time=0.007000014583333334@note_on channel=0 note=52 velocity=96 time=0@note_on channel=0 note=88 velocity=0 time=0.11300023541666666@note_on channel=0 note=91 velocity=96 time=0.007000014583333334@note_on channel=0 note=91 velocity=0 time=0.11300023541666666@note_on channel=0 note=79 velocity=96 time=0.007000014583333334@note_on channel=0 note=79 velocity=0 time=0.11300023541666666@note_on channel=0 note=88 velocity=96 time=0.007000014583333334@note_on channel=0 note=88 velocity=0 time=0.11300023541666666@note_on channel=0 note=91 velocity=96 time=0.007000014583333334@note_on channel=0 note=91 velocity=0 time=0.11300023541666666@note_on channel=0 note=79 velocity=96 time=0.007000014583333334@note_on channel=0 note=52 velocity=0 time=0.08300017291666667@note_on channel=0 note=79 velocity=0 time=0.0300000625@note_on channel=0 note=84 velocity=96 time=0.007000014583333334@note_on channel=0 note=43 velocity=96 time=0@note_on channel=0 note=84 velocity=0 time=0.11300023541666666@note_on channel=0 note=91 velocity=96 time=0.007000014583333334@note_on channel=0 note=91 velocity=0 time=0.11300023541666666@note_on channel=0 note=88 velocity=96 time=0.007000014583333334@note_on channel=0 note=88 velocity=0 time=0.11300023541666666@note_on channel=0 note=84 velocity=96 time=0.007000014583333334@note_on channel=0 note=43 velocity=0 time=0.09500019791666667@note_on channel=0 note=84 velocity=0 time=0.0180000375@note_on channel=0 note=93 velocity=96 time=0.007000014583333334@note_on channel=0 note=48 velocity=96 time=0@note_on channel=0 note=93 velocity=0 time=0.11300023541666666@note_on channel=0 note=88 velocity=96 time=0.007000014583333334@note_on channel=0 note=88 velocity=0 time=0.11300023541666666@note_on channel=0 note=88 velocity=96 time=0.007000014583333334@note_on channel=0 note=88 velocity=0 time=0.11300023541666666@note_on channel=0 note=93 velocity=96 time=0.007000014583333334@note_on channel=0 note=93 velocity=0 time=0.11300023541666666@note_on channel=0 note=84 velocity=96 time=0.007000014583333334@note_on channel=0 note=84 velocity=0 time=0.11300023541666666@note_on channel=0 note=88 velocity=96 time=0.007000014583333334@note_on channel=0 note=48 velocity=0 time=0.08300017291666667@note_on channel=0 note=88 velocity=0 time=0.0300000625@note_on channel=0 note=81 velocity=96 time=0.007000014583333334@note_on channel=0 note=40 velocity=96 time=0@note_on channel=0 note=81 velocity=0 time=0.11300023541666666@note_on channel=0 note=84 velocity=96 time=0.007000014583333334@note_on channel=0 note=84 velocity=0 time=0.11300023541666666@note_on channel=0 note=81 velocity=96 time=0.007000014583333334@note_on channel=0 note=81 velocity=0 time=0.11300023541666666@note_on channel=0 note=84 velocity=96 time=0.007000014583333334@note_on channel=0 note=84 velocity=0 time=0.11300023541666666@note_on channel=0 note=84 velocity=96 time=0.007000014583333334@note_on channel=0 note=84 velocity=0 time=0.11300023541666666@note_on channel=0 note=81 velocity=96 time=0.007000014583333334@note_on channel=0 note=40 velocity=0 time=0.08300017291666667@note_on channel=0 note=81 velocity=0 time=0.0300000625@note_on channel=0 note=81 velocity=96 time=0.007000014583333334@note_on channel=0 note=40 velocity=96 time=0@note_on channel=0 note=81 velocity=0 time=0.11300023541666666@note_on channel=0 note=84 velocity=96 time=0.007000014583333334@note_on channel=0 note=84 velocity=0 time=0.11300023541666666@note_on channel=0 note=76 velocity=96 time=0.007000014583333334@note_on channel=0 note=76 velocity=0 time=0.11300023541666666@note_on channel=0 note=81 velocity=96 time=0.007000014583333334@note_on channel=0 note=40 velocity=0 time=0.09500019791666667@note_on channel=0 note=81 velocity=0 time=0.0180000375@note_on channel=0 note=83 velocity=96 time=0.007000014583333334@note_on channel=0 note=47 velocity=96 time=0@note_on channel=0 note=83 velocity=0 time=0.11300023541666666@note_on channel=0 note=76 velocity=96 time=0.007000014583333334@note_on channel=0 note=76 velocity=0 time=0.11300023541666666@note_on channel=0 note=88 velocity=96 time=0.007000014583333334@note_on channel=0 note=88 velocity=0 time=0.11300023541666666@note_on channel=0 note=83 velocity=96 time=0.007000014583333334@note_on channel=0 note=83 velocity=0 time=0.11300023541666666@note_on channel=0 note=91 velocity=96 time=0.007000014583333334@note_on channel=0 note=91 velocity=0 time=0.11300023541666666@note_on channel=0 note=88 velocity=96 time=0.007000014583333334@note_on channel=0 note=47 velocity=0 time=0.08300017291666667@note_on channel=0 note=88 velocity=0 time=0.0300000625@note_on channel=0 note=95 velocity=96 time=0.007000014583333334@note_on channel=0 note=40 velocity=96 time=0@note_on channel=0 note=95 velocity=0 time=0.11300023541666666@note_on channel=0 note=91 velocity=96 time=0.007000014583333334@note_on channel=0 note=91 velocity=0 time=0.11300023541666666@note_on channel=0 note=100 velocity=96 time=0.007000014583333334@note_on channel=0 note=100 velocity=0 time=0.11300023541666666@note_on channel=0 note=95 velocity=96 time=0.007000014583333334@note_on channel=0 note=95 velocity=0 time=0.11300023541666666@note_on channel=0 note=91 velocity=96 time=0.007000014583333334@note_on channel=0 note=91 velocity=0 time=0.11300023541666666@note_on channel=0 note=100 velocity=96 time=0.007000014583333334@note_on channel=0 note=40 velocity=0 time=0.08300017291666667@note_on channel=0 note=100 velocity=0 time=0.0300000625@note_on channel=0 note=83 velocity=96 time=0.007000014583333334@note_on channel=0 note=40 velocity=96 time=0@note_on channel=0 note=83 velocity=0 time=0.11300023541666666@note_on channel=0 note=88 velocity=96 time=0.007000014583333334@note_on channel=0 note=88 velocity=0 time=0.11300023541666666@note_on channel=0 note=91 velocity=96 time=0.007000014583333334@note_on channel=0 note=91 velocity=0 time=0.11300023541666666@note_on channel=0 note=83 velocity=96 time=0.007000014583333334@note_on channel=0 note=40 velocity=0 time=0.09500019791666667@note_on channel=0 note=83 velocity=0 time=0.0180000375@note_on channel=0 note=71 velocity=96 time=0.007000014583333334@note_on channel=0 note=50 velocity=96 time=0@note_on channel=0 note=71 velocity=0 time=0.11300023541666666@note_on channel=0 note=79 velocity=96 time=0.007000014583333334@note_on channel=0 note=79 velocity=0 time=0.11300023541666666@note_on channel=0 note=74 velocity=96 time=0.007000014583333334@note_on channel=0 note=74 velocity=0 time=0.11300023541666666@note_on channel=0 note=71 velocity=96 time=0.007000014583333334@note_on channel=0 note=71 velocity=0 time=0.11300023541666666@note_on channel=0 note=78 velocity=96 time=0.007000014583333334@note_on channel=0 note=78 velocity=0 time=0.11300023541666666@note_on channel=0 note=74 velocity=96 time=0.007000014583333334@note_on channel=0 note=50 velocity=0 time=0.08300017291666667@note_on channel=0 note=74 velocity=0 time=0.0300000625@note_on channel=0 note=74 velocity=96 time=0.007000014583333334@note_on channel=0 note=42 velocity=96 time=0@note_on channel=0 note=74 velocity=0 time=0.11300023541666666@note_on channel=0 note=78 velocity=96 time=0.007000014583333334@note_on channel=0 note=78 velocity=0 time=0.11300023541666666@note_on channel=0 note=78 velocity=96 time=0.007000014583333334@note_on channel=0 note=78 velocity=0 time=0.11300023541666666@note_on channel=0 note=74 velocity=96 time=0.007000014583333334@note_on channel=0 note=74 velocity=0 time=0.11300023541666666@note_on channel=0 note=83 velocity=96 time=0.007000014583333334@note_on channel=0 note=83 velocity=0 time=0.11300023541666666@note_on channel=0 note=78 velocity=96 time=0.007000014583333334@note_on channel=0 note=42 velocity=0 time=0.08300017291666667@note_on channel=0 note=78 velocity=0 time=0.0300000625@note_on channel=0 note=78 velocity=96 time=0.007000014583333334@note_on channel=0 note=42 velocity=96 time=0@note_on channel=0 note=78 velocity=0 time=0.11300023541666666@note_on channel=0 note=83 velocity=96 time=0.007000014583333334@note_on channel=0 note=83 velocity=0 time=0.11300023541666666@note_on channel=0 note=74 velocity=96 time=0.007000014583333334@note_on channel=0 note=74 velocity=0 time=0.11300023541666666@note_on channel=0 note=78 velocity=96 time=0.007000014583333334@note_on channel=0 note=42 velocity=0 time=0.09500019791666667@note_on channel=0 note=78 velocity=0 time=0.0180000375@note_on channel=0 note=84 velocity=96 time=0.007000014583333334@note_on channel=0 note=43 velocity=96 time=0@note_on channel=0 note=84 velocity=0 time=0.11300023541666666@note_on channel=0 note=74 velocity=96 time=0.007000014583333334@note_on channel=0 note=74 velocity=0 time=0.11300023541666666@note_on channel=0 note=79 velocity=96 time=0.007000014583333334@note_on channel=0 note=79 velocity=0 time=0.11300023541666666@note_on channel=0 note=84 velocity=96 time=0.007000014583333334@note_on channel=0 note=84 velocity=0 time=0.11300023541666666@note_on channel=0 note=91 velocity=96 time=0.007000014583333334@note_on channel=0 note=91 velocity=0 time=0.11300023541666666@note_on channel=0 note=79 velocity=96 time=0.007000014583333334@note_on channel=0 note=43 velocity=0 time=0.08300017291666667@note_on channel=0 note=79 velocity=0 time=0.0300000625@note_on channel=0 note=88 velocity=96 time=0.007000014583333334@note_on channel=0 note=52 velocity=96 time=0@note_on channel=0 note=88 velocity=0 time=0.11300023541666666@note_on channel=0 note=91 velocity=96 time=0.007000014583333334@note_on channel=0 note=91 velocity=0 time=0.11300023541666666@note_on channel=0 note=84 velocity=96 time=0.007000014583333334@note_on channel=0 note=84 velocity=0 time=0.11300023541666666@note_on channel=0 note=88 velocity=96 time=0.007000014583333334@note_on channel=0 note=88 velocity=0 time=0.11300023541666666@note_on channel=0 note=91 velocity=96 time=0.007000014583333334@note_on channel=0 note=91 velocity=0 time=0.11300023541666666@note_on channel=0 note=84 velocity=96 time=0.007000014583333334@note_on channel=0 note=52 velocity=0 time=0.08300017291666667@note_on channel=0 note=84 velocity=0 time=0.0300000625@note_on channel=0 note=88 velocity=96 time=0.007000014583333334@note_on channel=0 note=43 velocity=96 time=0@note_on channel=0 note=88 velocity=0 time=0.11300023541666666@note_on channel=0 note=91 velocity=96 time=0.007000014583333334@note_on channel=0 note=91 velocity=0 time=0.11300023541666666@note_on channel=0 note=84 velocity=96 time=0.007000014583333334@note_on channel=0 note=84 velocity=0 time=0.11300023541666666@note_on channel=0 note=88 velocity=96 time=0.007000014583333334@note_on channel=0 note=43 velocity=0 time=0.09500019791666667@note_on channel=0 note=88 velocity=0 time=0.0180000375@note_on channel=0 note=81 velocity=96 time=0.007000014583333334@note_on channel=0 note=57 velocity=115 time=0@note_on channel=0 note=81 velocity=0 time=0.11300023541666666@note_on channel=0 note=72 velocity=96 time=0.007000014583333334@note_on channel=0 note=72 velocity=0 time=0.11300023541666666@note_on channel=0 note=76 velocity=96 time=0.007000014583333334@note_on channel=0 note=76 velocity=0 time=0.11300023541666666@note_on channel=0 note=81 velocity=96 time=0.007000014583333334@note_on channel=0 note=81 velocity=0 time=0.11300023541666666@note_on channel=0 note=72 velocity=96 time=0.007000014583333334@note_on channel=0 note=72 velocity=0 time=0.11300023541666666@note_on channel=0 note=76 velocity=96 time=0.007000014583333334@note_on channel=0 note=57 velocity=0 time=0.08300017291666667@note_on channel=0 note=76 velocity=0 time=0.0300000625@note_on channel=0 note=81 velocity=96 time=0.007000014583333334@note_on channel=0 note=52 velocity=115 time=0@note_on channel=0 note=81 velocity=0 time=0.11300023541666666@note_on channel=0 note=84 velocity=96 time=0.007000014583333334@note_on channel=0 note=84 velocity=0 time=0.11300023541666666@note_on channel=0 note=76 velocity=96 time=0.007000014583333334@note_on channel=0 note=76 velocity=0 time=0.11300023541666666@note_on channel=0 note=81 velocity=96 time=0.007000014583333334@note_on channel=0 note=81 velocity=0 time=0.11300023541666666@note_on channel=0 note=81 velocity=96 time=0.007000014583333334@note_on channel=0 note=81 velocity=0 time=0.11300023541666666@note_on channel=0 note=76 velocity=96 time=0.007000014583333334@note_on channel=0 note=76 velocity=0 time=0.11300023541666666@note_on channel=0 note=76 velocity=96 time=0.007000014583333334@note_on channel=0 note=76 velocity=0 time=0.11300023541666666@note_on channel=0 note=81 velocity=96 time=0.007000014583333334@note_on channel=0 note=81 velocity=0 time=0.11300023541666666@note_on channel=0 note=72 velocity=96 time=0.007000014583333334@note_on channel=0 note=72 velocity=0 time=0.11300023541666666@note_on channel=0 note=76 velocity=96 time=0.007000014583333334@note_on channel=0 note=52 velocity=0 time=0.05900012291666667@note_on channel=0 note=76 velocity=0 time=0.0540001125@note_on channel=0 note=76 velocity=96 time=0.007000014583333334@note_on channel=0 note=55 velocity=115 time=0@note_on channel=0 note=76 velocity=0 time=0.11300023541666666@note_on channel=0 note=72 velocity=96 time=0.007000014583333334@note_on channel=0 note=72 velocity=0 time=0.11300023541666666@note_on channel=0 note=79 velocity=96 time=0.007000014583333334@note_on channel=0 note=79 velocity=0 time=0.11300023541666666@note_on channel=0 note=76 velocity=96 time=0.007000014583333334@note_on channel=0 note=76 velocity=0 time=0.11300023541666666@note_on channel=0 note=83 velocity=96 time=0.007000014583333334@note_on channel=0 note=83 velocity=0 time=0.11300023541666666@note_on channel=0 note=79 velocity=96 time=0.007000014583333334@note_on channel=0 note=55 velocity=0 time=0.08300017291666667@note_on channel=0 note=79 velocity=0 time=0.0300000625@note_on channel=0 note=91 velocity=96 time=0.007000014583333334@note_on channel=0 note=52 velocity=115 time=0@note_on channel=0 note=91 velocity=0 time=0.11300023541666666@note_on channel=0 note=88 velocity=96 time=0.007000014583333334@note_on channel=0 note=88 velocity=0 time=0.11300023541666666@note_on channel=0 note=100 velocity=96 time=0.007000014583333334@note_on channel=0 note=100 velocity=0 time=0.11300023541666666@note_on channel=0 note=95 velocity=96 time=0.007000014583333334@note_on channel=0 note=95 velocity=0 time=0.11300023541666666@note_on channel=0 note=91 velocity=96 time=0.007000014583333334@note_on channel=0 note=91 velocity=0 time=0.11300023541666666@note_on channel=0 note=100 velocity=96 time=0.007000014583333334@note_on channel=0 note=52 velocity=0 time=0.08300017291666667@note_on channel=0 note=100 velocity=0 time=0.0300000625@note_on channel=0 note=95 velocity=96 time=0.007000014583333334@note_on channel=0 note=52 velocity=115 time=0@note_on channel=0 note=95 velocity=0 time=0.11300023541666666@note_on channel=0 note=91 velocity=96 time=0.007000014583333334@note_on channel=0 note=91 velocity=0 time=0.11300023541666666@note_on channel=0 note=88 velocity=96 time=0.007000014583333334@note_on channel=0 note=88 velocity=0 time=0.11300023541666666@note_on channel=0 note=83 velocity=96 time=0.007000014583333334@note_on channel=0 note=52 velocity=0 time=0.09500019791666667@note_on channel=0 note=83 velocity=0 time=0.0180000375@note_on channel=0 note=71 velocity=96 time=0.007000014583333334@note_on channel=0 note=54 velocity=115 time=0@note_on channel=0 note=71 velocity=0 time=0.11300023541666666@note_on channel=0 note=79 velocity=96 time=0.007000014583333334@note_on channel=0 note=79 velocity=0 time=0.11300023541666666@note_on channel=0 note=74 velocity=96 time=0.007000014583333334@note_on channel=0 note=74 velocity=0 time=0.11300023541666666@note_on channel=0 note=71 velocity=96 time=0.007000014583333334@note_on channel=0 note=71 velocity=0 time=0.11300023541666666@note_on channel=0 note=78 velocity=96 time=0.007000014583333334@note_on channel=0 note=78 velocity=0 time=0.11300023541666666@note_on channel=0 note=74 velocity=96 time=0.007000014583333334@note_on channel=0 note=54 velocity=0 time=0.08300017291666667@note_on channel=0 note=74 velocity=0 time=0.0300000625@note_on channel=0 note=74 velocity=96 time=0.007000014583333334@note_on channel=0 note=50 velocity=115 time=0@note_on channel=0 note=74 velocity=0 time=0.11300023541666666@note_on channel=0 note=78 velocity=96 time=0.007000014583333334@note_on channel=0 note=78 velocity=0 time=0.11300023541666666@note_on channel=0 note=78 velocity=96 time=0.007000014583333334@note_on channel=0 note=78 velocity=0 time=0.11300023541666666@note_on channel=0 note=74 velocity=96 time=0.007000014583333334@note_on channel=0 note=74 velocity=0 time=0.11300023541666666@note_on channel=0 note=83 velocity=96 time=0.007000014583333334@note_on channel=0 note=83 velocity=0 time=0.11300023541666666@note_on channel=0 note=78 velocity=96 time=0.007000014583333334@note_on channel=0 note=78 velocity=0 time=0.11300023541666666@note_on channel=0 note=78 velocity=96 time=0.007000014583333334@note_on channel=0 note=78 velocity=0 time=0.11300023541666666@note_on channel=0 note=83 velocity=96 time=0.007000014583333334@note_on channel=0 note=83 velocity=0 time=0.11300023541666666@note_on channel=0 note=74 velocity=96 time=0.007000014583333334@note_on channel=0 note=74 velocity=0 time=0.11300023541666666@note_on channel=0 note=78 velocity=96 time=0.007000014583333334@note_on channel=0 note=50 velocity=0 time=0.05900012291666667@note_on channel=0 note=78 velocity=0 time=0.0540001125@note_on channel=0 note=84 velocity=96 time=0.007000014583333334@note_on channel=0 note=52 velocity=115 time=0@note_on channel=0 note=84 velocity=0 time=0.11300023541666666@note_on channel=0 note=74 velocity=96 time=0.007000014583333334@note_on channel=0 note=74 velocity=0 time=0.11300023541666666@note_on channel=0 note=76 velocity=96 time=0.007000014583333334@note_on channel=0 note=76 velocity=0 time=0.11300023541666666@note_on channel=0 note=84 velocity=96 time=0.007000014583333334@note_on channel=0 note=84 velocity=0 time=0.11300023541666666@note_on channel=0 note=91 velocity=96 time=0.007000014583333334@note_on channel=0 note=91 velocity=0 time=0.11300023541666666@note_on channel=0 note=76 velocity=96 time=0.007000014583333334@note_on channel=0 note=52 velocity=0 time=0.08300017291666667@note_on channel=0 note=76 velocity=0 time=0.0300000625@note_on channel=0 note=84 velocity=96 time=0.007000014583333334@note_on channel=0 note=48 velocity=115 time=0@note_on channel=0 note=84 velocity=0 time=0.11300023541666666@note_on channel=0 note=91 velocity=96 time=0.007000014583333334@note_on channel=0 note=91 velocity=0 time=0.11300023541666666@note_on channel=0 note=79 velocity=96 time=0.007000014583333334@note_on channel=0 note=79 velocity=0 time=0.11300023541666666@note_on channel=0 note=84 velocity=96 time=0.007000014583333334@note_on channel=0 note=84 velocity=0 time=0.11300023541666666@note_on channel=0 note=91 velocity=96 time=0.007000014583333334@note_on channel=0 note=91 velocity=0 time=0.11300023541666666@note_on channel=0 note=79 velocity=96 time=0.007000014583333334@note_on channel=0 note=79 velocity=0 time=0.11300023541666666@note_on channel=0 note=84 velocity=96 time=0.007000014583333334@note_on channel=0 note=84 velocity=0 time=0.11300023541666666@note_on channel=0 note=91 velocity=96 time=0.007000014583333334@note_on channel=0 note=91 velocity=0 time=0.11300023541666666@note_on channel=0 note=84 velocity=96 time=0.007000014583333334@note_on channel=0 note=84 velocity=0 time=0.11300023541666666@note_on channel=0 note=84 velocity=96 time=0.007000014583333334@note_on channel=0 note=48 velocity=0 time=0.05900012291666667@note_on channel=0 note=84 velocity=0 time=0.0540001125@note_on channel=0 note=93 velocity=96 time=0.007000014583333334@note_on channel=0 note=57 velocity=115 time=0@note_on channel=0 note=93 velocity=0 time=0.11300023541666666@note_on channel=0 note=88 velocity=96 time=0.007000014583333334@note_on channel=0 note=88 velocity=0 time=0.11300023541666666@note_on channel=0 note=88 velocity=96 time=0.007000014583333334@note_on channel=0 note=88 velocity=0 time=0.11300023541666666@note_on channel=0 note=93 velocity=96 time=0.007000014583333334@note_on channel=0 note=93 velocity=0 time=0.11300023541666666@note_on channel=0 note=84 velocity=96 time=0.007000014583333334@note_on channel=0 note=84 velocity=0 time=0.11300023541666666@note_on channel=0 note=88 velocity=96 time=0.007000014583333334@note_on channel=0 note=57 velocity=0 time=0.08300017291666667@note_on channel=0 note=88 velocity=0 time=0.0300000625@note_on channel=0 note=81 velocity=96 time=0.007000014583333334@note_on channel=0 note=52 velocity=115 time=0@note_on channel=0 note=81 velocity=0 time=0.11300023541666666@note_on channel=0 note=84 velocity=96 time=0.007000014583333334@note_on channel=0 note=84 velocity=0 time=0.11300023541666666@note_on channel=0 note=76 velocity=96 time=0.007000014583333334@note_on channel=0 note=76 velocity=0 time=0.11300023541666666@note_on channel=0 note=81 velocity=96 time=0.007000014583333334@note_on channel=0 note=81 velocity=0 time=0.11300023541666666@note_on channel=0 note=81 velocity=96 time=0.007000014583333334@note_on channel=0 note=81 velocity=0 time=0.11300023541666666@note_on channel=0 note=76 velocity=96 time=0.007000014583333334@note_on channel=0 note=52 velocity=0 time=0.08300017291666667@note_on channel=0 note=76 velocity=0 time=0.0300000625@note_on channel=0 note=76 velocity=96 time=0.007000014583333334@note_on channel=0 note=52 velocity=115 time=0@note_on channel=0 note=76 velocity=0 time=0.11300023541666666@note_on channel=0 note=81 velocity=96 time=0.007000014583333334@note_on channel=0 note=52 velocity=0 time=0.10700022291666667@note_on channel=0 note=81 velocity=0 time=0.0060000125000000005@note_on channel=0 note=72 velocity=96 time=0.007000014583333334@note_on channel=0 note=60 velocity=115 time=0@note_on channel=0 note=72 velocity=0 time=0.11300023541666666@note_on channel=0 note=76 velocity=96 time=0.007000014583333334@note_on channel=0 note=60 velocity=0 time=0.10700022291666667@note_on channel=0 note=76 velocity=0 time=0.0060000125000000005@note_on channel=0 note=83 velocity=96 time=0.007000014583333334@note_on channel=0 note=59 velocity=115 time=0@note_on channel=0 note=83 velocity=0 time=0.11300023541666666@note_on channel=0 note=72 velocity=96 time=0.007000014583333334@note_on channel=0 note=72 velocity=0 time=0.11300023541666666@note_on channel=0 note=88 velocity=96 time=0.007000014583333334@note_on channel=0 note=88 velocity=0 time=0.11300023541666666@note_on channel=0 note=83 velocity=96 time=0.007000014583333334@note_on channel=0 note=83 velocity=0 time=0.11300023541666666@note_on channel=0 note=95 velocity=96 time=0.007000014583333334@note_on channel=0 note=95 velocity=0 time=0.11300023541666666@note_on channel=0 note=88 velocity=96 time=0.007000014583333334@note_on channel=0 note=59 velocity=0 time=0.08300017291666667@note_on channel=0 note=88 velocity=0 time=0.0300000625@note_on channel=0 note=95 velocity=96 time=0.007000014583333334@note_on channel=0 note=55 velocity=115 time=0@note_on channel=0 note=95 velocity=0 time=0.11300023541666666@note_on channel=0 note=91 velocity=96 time=0.007000014583333334@note_on channel=0 note=91 velocity=0 time=0.11300023541666666@note_on channel=0 note=100 velocity=96 time=0.007000014583333334@note_on channel=0 note=100 velocity=0 time=0.11300023541666666@note_on channel=0 note=95 velocity=96 time=0.007000014583333334@note_on channel=0 note=95 velocity=0 time=0.11300023541666666@note_on channel=0 note=91 velocity=96 time=0.007000014583333334@note_on channel=0 note=91 velocity=0 time=0.11300023541666666@note_on channel=0 note=100 velocity=96 time=0.007000014583333334@note_on channel=0 note=55 velocity=0 time=0.08300017291666667@note_on channel=0 note=100 velocity=0 time=0.0300000625@note_on channel=0 note=95 velocity=96 time=0.007000014583333334@note_on channel=0 note=55 velocity=115 time=0@note_on channel=0 note=95 velocity=0 time=0.11300023541666666@note_on channel=0 note=91 velocity=96 time=0.007000014583333334@note_on channel=0 note=55 velocity=0 time=0.10700022291666667@note_on channel=0 note=91 velocity=0 time=0.0060000125000000005@note_on channel=0 note=88 velocity=96 time=0.007000014583333334@note_on channel=0 note=57 velocity=115 time=0@note_on channel=0 note=88 velocity=0 time=0.11300023541666666@note_on channel=0 note=83 velocity=96 time=0.007000014583333334@note_on channel=0 note=57 velocity=0 time=0.10700022291666667@note_on channel=0 note=83 velocity=0 time=0.0060000125000000005@note_on channel=0 note=71 velocity=96 time=0.007000014583333334@note_on channel=0 note=59 velocity=115 time=0@note_on channel=0 note=71 velocity=0 time=0.11300023541666666@note_on channel=0 note=79 velocity=96 time=0.007000014583333334@note_on channel=0 note=79 velocity=0 time=0.11300023541666666@note_on channel=0 note=74 velocity=96 time=0.007000014583333334@note_on channel=0 note=74 velocity=0 time=0.11300023541666666@note_on channel=0 note=71 velocity=96 time=0.007000014583333334@note_on channel=0 note=71 velocity=0 time=0.11300023541666666@note_on channel=0 note=78 velocity=96 time=0.007000014583333334@note_on channel=0 note=78 velocity=0 time=0.11300023541666666@note_on channel=0 note=74 velocity=96 time=0.007000014583333334@note_on channel=0 note=59 velocity=0 time=0.08300017291666667@note_on channel=0 note=74 velocity=0 time=0.0300000625@note_on channel=0 note=74 velocity=96 time=0.007000014583333334@note_on channel=0 note=54 velocity=115 time=0@note_on channel=0 note=74 velocity=0 time=0.11300023541666666@note_on channel=0 note=78 velocity=96 time=0.007000014583333334@note_on channel=0 note=78 velocity=0 time=0.11300023541666666@note_on channel=0 note=78 velocity=96 time=0.007000014583333334@note_on channel=0 note=78 velocity=0 time=0.11300023541666666@note_on channel=0 note=74 velocity=96 time=0.007000014583333334@note_on channel=0 note=74 velocity=0 time=0.11300023541666666@note_on channel=0 note=83 velocity=96 time=0.007000014583333334@note_on channel=0 note=83 velocity=0 time=0.11300023541666666@note_on channel=0 note=78 velocity=96 time=0.007000014583333334@note_on channel=0 note=54 velocity=0 time=0.08300017291666667@note_on channel=0 note=78 velocity=0 time=0.0300000625@note_on channel=0 note=78 velocity=96 time=0.007000014583333334@note_on channel=0 note=62 velocity=115 time=0@note_on channel=0 note=78 velocity=0 time=0.11300023541666666@note_on channel=0 note=83 velocity=96 time=0.007000014583333334@note_on channel=0 note=83 velocity=0 time=0.11300023541666666@note_on channel=0 note=74 velocity=96 time=0.007000014583333334@note_on channel=0 note=74 velocity=0 time=0.11300023541666666@note_on channel=0 note=78 velocity=96 time=0.007000014583333334@note_on channel=0 note=62 velocity=0 time=0.09500019791666667@note_on channel=0 note=78 velocity=0 time=0.0180000375@note_on channel=0 note=84 velocity=96 time=0.007000014583333334@note_on channel=0 note=60 velocity=115 time=0@note_on channel=0 note=84 velocity=0 time=0.11300023541666666@note_on channel=0 note=74 velocity=96 time=0.007000014583333334@note_on channel=0 note=74 velocity=0 time=0.11300023541666666@note_on channel=0 note=79 velocity=96 time=0.007000014583333334@note_on channel=0 note=79 velocity=0 time=0.11300023541666666@note_on channel=0 note=84 velocity=96 time=0.007000014583333334@note_on channel=0 note=84 velocity=0 time=0.11300023541666666@note_on channel=0 note=91 velocity=96 time=0.007000014583333334@note_on channel=0 note=91 velocity=0 time=0.11300023541666666@note_on channel=0 note=79 velocity=96 time=0.007000014583333334@note_on channel=0 note=60 velocity=0 time=0.08300017291666667@note_on channel=0 note=79 velocity=0 time=0.0300000625@note_on channel=0 note=91 velocity=96 time=0.007000014583333334@note_on channel=0 note=55 velocity=115 time=0@note_on channel=0 note=91 velocity=0 time=0.11300023541666666@note_on channel=0 note=91 velocity=96 time=0.007000014583333334@note_on channel=0 note=91 velocity=0 time=0.11300023541666666@note_on channel=0 note=84 velocity=96 time=0.007000014583333334@note_on channel=0 note=84 velocity=0 time=0.11300023541666666@note_on channel=0 note=88 velocity=96 time=0.007000014583333334@note_on channel=0 note=88 velocity=0 time=0.11300023541666666@note_on channel=0 note=88 velocity=96 time=0.007000014583333334@note_on channel=0 note=88 velocity=0 time=0.11300023541666666@note_on channel=0 note=84 velocity=96 time=0.007000014583333334@note_on channel=0 note=84 velocity=0 time=0.11300023541666666@note_on channel=0 note=84 velocity=96 time=0.007000014583333334@note_on channel=0 note=84 velocity=0 time=0.11300023541666666@note_on channel=0 note=88 velocity=96 time=0.007000014583333334@note_on channel=0 note=88 velocity=0 time=0.11300023541666666@note_on channel=0 note=88 velocity=96 time=0.007000014583333334@note_on channel=0 note=88 velocity=0 time=0.11300023541666666@note_on channel=0 note=84 velocity=96 time=0.007000014583333334@note_on channel=0 note=55 velocity=0 time=0.05900012291666667@note_on channel=0 note=84 velocity=0 time=0.0540001125@note_on channel=0 note=52 velocity=115 time=0.007000014583333334@note_on channel=0 note=52 velocity=0 time=3.6470075979166667@<meta message end_of_track time=0.0010000020833333333>@