<meta message time_signature numerator=3 denominator=8 clocks_per_click=24 notated_32nd_notes_per_beat=8 time=0>@<meta message key_signature key='A' time=0>@<meta message set_tempo tempo=428572 time=0>@control_change channel=0 control=121 value=0 time=0@program_change channel=0 program=71 time=0@control_change channel=0 control=7 value=100 time=0@control_change channel=0 control=10 value=64 time=0@control_change channel=0 control=91 value=0 time=0@control_change channel=0 control=93 value=0 time=0@<meta message midi_port port=0 time=0>@<meta message key_signature key='A' time=0>@control_change channel=1 control=121 value=0 time=0@program_change channel=1 program=66 time=0@control_change channel=1 control=7 value=100 time=0@control_change channel=1 control=10 value=64 time=0@control_change channel=1 control=91 value=0 time=0@control_change channel=1 control=93 value=0 time=0@<meta message midi_port port=0 time=0>@<meta message key_signature key='A' time=0>@control_change channel=2 control=121 value=0 time=0@program_change channel=2 program=71 time=0@control_change channel=2 control=7 value=100 time=0@control_change channel=2 control=10 value=64 time=0@control_change channel=2 control=91 value=0 time=0@control_change channel=2 control=93 value=0 time=0@<meta message midi_port port=0 time=0>@<meta message key_signature key='A' time=0>@control_change channel=3 control=121 value=0 time=0@program_change channel=3 program=56 time=0@control_change channel=3 control=7 value=100 time=0@control_change channel=3 control=10 value=64 time=0@control_change channel=3 control=91 value=0 time=0@control_change channel=3 control=93 value=0 time=0@<meta message midi_port port=0 time=0>@control_change channel=4 control=121 value=0 time=0@program_change channel=4 program=59 time=0@control_change channel=4 control=7 value=100 time=0@control_change channel=4 control=10 value=64 time=0@control_change channel=4 control=91 value=0 time=0@control_change channel=4 control=93 value=0 time=0@<meta message midi_port port=0 time=0>@<meta message key_signature key='G' time=0>@control_change channel=5 control=121 value=0 time=0@program_change channel=5 program=33 time=0@control_change channel=5 control=7 value=100 time=0@control_change channel=5 control=10 value=64 time=0@control_change channel=5 control=91 value=0 time=0@control_change channel=5 control=93 value=0 time=0@<meta message midi_port port=0 time=0>@note_on channel=5 note=47 velocity=80 time=0@<meta message key_signature key='G' time=0>@control_change channel=6 control=121 value=0 time=0@program_change channel=6 program=34 time=0@control_change channel=6 control=7 value=100 time=0@control_change channel=6 control=10 value=64 time=0@control_change channel=6 control=91 value=0 time=0@control_change channel=6 control=93 value=0 time=0@<meta message midi_port port=0 time=0>@note_on channel=6 note=47 velocity=80 time=0@<meta message key_signature key='A' time=0>@control_change channel=7 control=121 value=0 time=0@program_change channel=7 program=64 time=0@control_change channel=7 control=7 value=100 time=0@control_change channel=7 control=10 value=64 time=0@control_change channel=7 control=91 value=0 time=0@control_change channel=7 control=93 value=0 time=0@<meta message midi_port port=0 time=0>@note_on channel=7 note=59 velocity=80 time=0@<meta message key_signature key='G' time=0>@control_change channel=8 control=121 value=0 time=0@program_change channel=8 program=32 time=0@control_change channel=8 control=7 value=100 time=0@control_change channel=8 control=10 value=64 time=0@control_change channel=8 control=91 value=0 time=0@control_change channel=8 control=93 value=0 time=0@<meta message midi_port port=0 time=0>@control_change channel=10 control=121 value=0 time=0@program_change channel=10 program=43 time=0@control_change channel=10 control=7 value=100 time=0@control_change channel=10 control=10 value=64 time=0@control_change channel=10 control=91 value=0 time=0@control_change channel=10 control=93 value=0 time=0@<meta message midi_port port=0 time=0>@control_change channel=11 control=121 value=0 time=0@program_change channel=11 program=44 time=0@control_change channel=11 control=7 value=100 time=0@control_change channel=11 control=10 value=64 time=0@control_change channel=11 control=91 value=0 time=0@control_change channel=11 control=93 value=0 time=0@<meta message midi_port port=0 time=0>@note_on channel=5 note=47 velocity=0 time=0.21339314166666665@note_on channel=6 note=47 velocity=0 time=0@note_on channel=7 note=59 velocity=0 time=0@note_on channel=5 note=52 velocity=80 time=0.0008928583333333332@note_on channel=6 note=52 velocity=80 time=0@note_on channel=7 note=64 velocity=80 time=0@note_on channel=5 note=52 velocity=0 time=0.10625014166666666@note_on channel=6 note=52 velocity=0 time=0@note_on channel=7 note=64 velocity=0 time=0@note_on channel=0 note=59 velocity=80 time=0.0008928583333333332@note_on channel=0 note=64 velocity=80 time=0@note_on channel=0 note=67 velocity=80 time=0@note_on channel=8 note=36 velocity=80 time=0@note_on channel=8 note=41 velocity=80 time=0@note_on channel=8 note=44 velocity=80 time=0@note_on channel=0 note=59 velocity=0 time=0.10625014166666666@note_on channel=0 note=64 velocity=0 time=0@note_on channel=0 note=67 velocity=0 time=0@note_on channel=8 note=36 velocity=0 time=0@note_on channel=8 note=41 velocity=0 time=0@note_on channel=8 note=44 velocity=0 time=0@note_on channel=5 note=47 velocity=80 time=0.10803585833333332@note_on channel=6 note=47 velocity=80 time=0@note_on channel=7 note=59 velocity=80 time=0@note_on channel=5 note=47 velocity=0 time=0.10625014166666666@note_on channel=6 note=47 velocity=0 time=0@note_on channel=7 note=59 velocity=0 time=0@note_on channel=5 note=55 velocity=80 time=0.0008928583333333332@note_on channel=6 note=55 velocity=80 time=0@note_on channel=7 note=67 velocity=80 time=0@note_on channel=5 note=55 velocity=0 time=0.3205361416666666@note_on channel=6 note=55 velocity=0 time=0@note_on channel=7 note=67 velocity=0 time=0@note_on channel=0 note=59 velocity=80 time=0.0008928583333333332@note_on channel=0 note=64 velocity=80 time=0@note_on channel=0 note=67 velocity=80 time=0@note_on channel=5 note=52 velocity=80 time=0@note_on channel=6 note=52 velocity=80 time=0@note_on channel=7 note=64 velocity=80 time=0@note_on channel=8 note=36 velocity=80 time=0@note_on channel=8 note=41 velocity=80 time=0@note_on channel=8 note=44 velocity=80 time=0@note_on channel=0 note=59 velocity=0 time=0.10625014166666666@note_on channel=0 note=64 velocity=0 time=0@note_on channel=0 note=67 velocity=0 time=0@note_on channel=8 note=36 velocity=0 time=0@note_on channel=8 note=41 velocity=0 time=0@note_on channel=8 note=44 velocity=0 time=0@note_on channel=5 note=52 velocity=0 time=0.21428599999999998@note_on channel=6 note=52 velocity=0 time=0@note_on channel=7 note=64 velocity=0 time=0@note_on channel=1 note=64 velocity=80 time=0.0008928583333333332@note_on channel=2 note=64 velocity=80 time=0@note_on channel=3 note=76 velocity=80 time=0@note_on channel=0 note=59 velocity=80 time=0.32142899999999996@note_on channel=0 note=64 velocity=80 time=0@note_on channel=0 note=67 velocity=80 time=0@note_on channel=8 note=36 velocity=80 time=0@note_on channel=8 note=41 velocity=80 time=0@note_on channel=8 note=44 velocity=80 time=0@note_on channel=0 note=59 velocity=0 time=0.10625014166666666@note_on channel=0 note=64 velocity=0 time=0@note_on channel=0 note=67 velocity=0 time=0@note_on channel=8 note=36 velocity=0 time=0@note_on channel=8 note=41 velocity=0 time=0@note_on channel=8 note=44 velocity=0 time=0@note_on channel=5 note=52 velocity=80 time=0.10803585833333332@note_on channel=6 note=52 velocity=80 time=0@note_on channel=7 note=64 velocity=80 time=0@note_on channel=5 note=52 velocity=0 time=0.10625014166666666@note_on channel=6 note=52 velocity=0 time=0@note_on channel=7 note=64 velocity=0 time=0@note_on channel=5 note=54 velocity=80 time=0.0008928583333333332@note_on channel=6 note=54 velocity=80 time=0@note_on channel=7 note=66 velocity=80 time=0@note_on channel=5 note=54 velocity=0 time=0.21339314166666665@note_on channel=6 note=54 velocity=0 time=0@note_on channel=7 note=66 velocity=0 time=0@note_on channel=5 note=55 velocity=80 time=0.0008928583333333332@note_on channel=6 note=55 velocity=80 time=0@note_on channel=7 note=67 velocity=80 time=0@note_on channel=5 note=55 velocity=0 time=0.10625014166666666@note_on channel=6 note=55 velocity=0 time=0@note_on channel=7 note=67 velocity=0 time=0@note_on channel=0 note=63 velocity=80 time=0.0008928583333333332@note_on channel=0 note=66 velocity=80 time=0@note_on channel=5 note=54 velocity=80 time=0@note_on channel=6 note=54 velocity=80 time=0@note_on channel=7 note=66 velocity=80 time=0@note_on channel=8 note=40 velocity=80 time=0@note_on channel=8 note=43 velocity=80 time=0@note_on channel=0 note=63 velocity=0 time=0.21339314166666665@note_on channel=0 note=66 velocity=0 time=0@note_on channel=5 note=54 velocity=0 time=0@note_on channel=6 note=54 velocity=0 time=0@note_on channel=7 note=66 velocity=0 time=0@note_on channel=8 note=40 velocity=0 time=0@note_on channel=8 note=43 velocity=0 time=0@note_on channel=0 note=69 velocity=80 time=0.0008928583333333332@note_on channel=5 note=51 velocity=80 time=0@note_on channel=6 note=51 velocity=80 time=0@note_on channel=7 note=63 velocity=80 time=0@note_on channel=8 note=46 velocity=80 time=0@note_on channel=0 note=69 velocity=0 time=0.10625014166666666@note_on channel=1 note=64 velocity=0 time=0@note_on channel=2 note=64 velocity=0 time=0@note_on channel=3 note=76 velocity=0 time=0@note_on channel=5 note=51 velocity=0 time=0@note_on channel=6 note=51 velocity=0 time=0@note_on channel=7 note=63 velocity=0 time=0@note_on channel=8 note=46 velocity=0 time=0@note_on channel=5 note=47 velocity=80 time=0.0008928583333333332@note_on channel=6 note=47 velocity=80 time=0@note_on channel=7 note=59 velocity=80 time=0@note_on channel=5 note=47 velocity=0 time=0.21339314166666665@note_on channel=6 note=47 velocity=0 time=0@note_on channel=7 note=59 velocity=0 time=0@note_on channel=5 note=52 velocity=80 time=0.0008928583333333332@note_on channel=6 note=52 velocity=80 time=0@note_on channel=7 note=64 velocity=80 time=0@note_on channel=5 note=52 velocity=0 time=0.10625014166666666@note_on channel=6 note=52 velocity=0 time=0@note_on channel=7 note=64 velocity=0 time=0@note_on channel=0 note=59 velocity=80 time=0.0008928583333333332@note_on channel=0 note=64 velocity=80 time=0@note_on channel=0 note=67 velocity=80 time=0@note_on channel=8 note=36 velocity=80 time=0@note_on channel=8 note=41 velocity=80 time=0@note_on channel=8 note=44 velocity=80 time=0@note_on channel=0 note=59 velocity=0 time=0.10625014166666666@note_on channel=0 note=64 velocity=0 time=0@note_on channel=0 note=67 velocity=0 time=0@note_on channel=8 note=36 velocity=0 time=0@note_on channel=8 note=41 velocity=0 time=0@note_on channel=8 note=44 velocity=0 time=0@note_on channel=5 note=47 velocity=80 time=0.10803585833333332@note_on channel=6 note=47 velocity=80 time=0@note_on channel=7 note=59 velocity=80 time=0@note_on channel=5 note=47 velocity=0 time=0.10625014166666666@note_on channel=6 note=47 velocity=0 time=0@note_on channel=7 note=59 velocity=0 time=0@note_on channel=5 note=55 velocity=80 time=0.0008928583333333332@note_on channel=6 note=55 velocity=80 time=0@note_on channel=7 note=67 velocity=80 time=0@note_on channel=5 note=55 velocity=0 time=0.3205361416666666@note_on channel=6 note=55 velocity=0 time=0@note_on channel=7 note=67 velocity=0 time=0@note_on channel=0 note=59 velocity=80 time=0.0008928583333333332@note_on channel=0 note=64 velocity=80 time=0@note_on channel=0 note=67 velocity=80 time=0@note_on channel=5 note=52 velocity=80 time=0@note_on channel=6 note=52 velocity=80 time=0@note_on channel=7 note=64 velocity=80 time=0@note_on channel=8 note=36 velocity=80 time=0@note_on channel=8 note=41 velocity=80 time=0@note_on channel=8 note=44 velocity=80 time=0@note_on channel=0 note=59 velocity=0 time=0.10625014166666666@note_on channel=0 note=64 velocity=0 time=0@note_on channel=0 note=67 velocity=0 time=0@note_on channel=8 note=36 velocity=0 time=0@note_on channel=8 note=41 velocity=0 time=0@note_on channel=8 note=44 velocity=0 time=0@note_on channel=5 note=52 velocity=0 time=0.21428599999999998@note_on channel=6 note=52 velocity=0 time=0@note_on channel=7 note=64 velocity=0 time=0@note_on channel=1 note=59 velocity=80 time=0.0008928583333333332@note_on channel=2 note=59 velocity=80 time=0@note_on channel=3 note=71 velocity=80 time=0@note_on channel=0 note=59 velocity=80 time=0.32142899999999996@note_on channel=0 note=64 velocity=80 time=0@note_on channel=0 note=67 velocity=80 time=0@note_on channel=8 note=36 velocity=80 time=0@note_on channel=8 note=41 velocity=80 time=0@note_on channel=8 note=44 velocity=80 time=0@note_on channel=0 note=59 velocity=0 time=0.10625014166666666@note_on channel=0 note=64 velocity=0 time=0@note_on channel=0 note=67 velocity=0 time=0@note_on channel=8 note=36 velocity=0 time=0@note_on channel=8 note=41 velocity=0 time=0@note_on channel=8 note=44 velocity=0 time=0@note_on channel=5 note=52 velocity=80 time=0.10803585833333332@note_on channel=6 note=52 velocity=80 time=0@note_on channel=7 note=64 velocity=80 time=0@note_on channel=5 note=52 velocity=0 time=0.10625014166666666@note_on channel=6 note=52 velocity=0 time=0@note_on channel=7 note=64 velocity=0 time=0@note_on channel=5 note=50 velocity=80 time=0.0008928583333333332@note_on channel=6 note=50 velocity=80 time=0@note_on channel=7 note=62 velocity=80 time=0@note_on channel=5 note=50 velocity=0 time=0.21339314166666665@note_on channel=6 note=50 velocity=0 time=0@note_on channel=7 note=62 velocity=0 time=0@note_on channel=5 note=52 velocity=80 time=0.0008928583333333332@note_on channel=6 note=52 velocity=80 time=0@note_on channel=7 note=64 velocity=80 time=0@note_on channel=5 note=52 velocity=0 time=0.10625014166666666@note_on channel=6 note=52 velocity=0 time=0@note_on channel=7 note=64 velocity=0 time=0@note_on channel=0 note=64 velocity=80 time=0.0008928583333333332@note_on channel=0 note=67 velocity=80 time=0@note_on channel=5 note=50 velocity=80 time=0@note_on channel=6 note=50 velocity=80 time=0@note_on channel=7 note=62 velocity=80 time=0@note_on channel=8 note=41 velocity=80 time=0@note_on channel=8 note=44 velocity=80 time=0@note_on channel=0 note=64 velocity=0 time=0.21339314166666665@note_on channel=0 note=67 velocity=0 time=0@note_on channel=5 note=50 velocity=0 time=0@note_on channel=6 note=50 velocity=0 time=0@note_on channel=7 note=62 velocity=0 time=0@note_on channel=8 note=41 velocity=0 time=0@note_on channel=8 note=44 velocity=0 time=0@note_on channel=0 note=66 velocity=80 time=0.0008928583333333332@note_on channel=5 note=50 velocity=80 time=0@note_on channel=6 note=50 velocity=80 time=0@note_on channel=7 note=62 velocity=80 time=0@note_on channel=8 note=43 velocity=80 time=0@note_on channel=0 note=66 velocity=0 time=0.10625014166666666@note_on channel=1 note=59 velocity=0 time=0@note_on channel=2 note=59 velocity=0 time=0@note_on channel=3 note=71 velocity=0 time=0@note_on channel=5 note=50 velocity=0 time=0@note_on channel=6 note=50 velocity=0 time=0@note_on channel=7 note=62 velocity=0 time=0@note_on channel=8 note=43 velocity=0 time=0@note_on channel=1 note=60 velocity=80 time=0.0008928583333333332@note_on channel=2 note=60 velocity=80 time=0@note_on channel=3 note=72 velocity=80 time=0@note_on channel=5 note=48 velocity=80 time=0@note_on channel=6 note=48 velocity=80 time=0@note_on channel=7 note=60 velocity=80 time=0@note_on channel=5 note=48 velocity=0 time=0.21339314166666665@note_on channel=6 note=48 velocity=0 time=0@note_on channel=7 note=60 velocity=0 time=0@note_on channel=5 note=52 velocity=80 time=0.0008928583333333332@note_on channel=6 note=52 velocity=80 time=0@note_on channel=7 note=64 velocity=80 time=0@note_on channel=5 note=52 velocity=0 time=0.10625014166666666@note_on channel=6 note=52 velocity=0 time=0@note_on channel=7 note=64 velocity=0 time=0@note_on channel=0 note=59 velocity=80 time=0.0008928583333333332@note_on channel=0 note=64 velocity=80 time=0@note_on channel=0 note=67 velocity=80 time=0@note_on channel=8 note=36 velocity=80 time=0@note_on channel=8 note=41 velocity=80 time=0@note_on channel=8 note=44 velocity=80 time=0@note_on channel=0 note=59 velocity=0 time=0.10625014166666666@note_on channel=0 note=64 velocity=0 time=0@note_on channel=0 note=67 velocity=0 time=0@note_on channel=8 note=36 velocity=0 time=0@note_on channel=8 note=41 velocity=0 time=0@note_on channel=8 note=44 velocity=0 time=0@note_on channel=5 note=48 velocity=80 time=0.10803585833333332@note_on channel=6 note=48 velocity=80 time=0@note_on channel=7 note=60 velocity=80 time=0@note_on channel=5 note=48 velocity=0 time=0.10625014166666666@note_on channel=6 note=48 velocity=0 time=0@note_on channel=7 note=60 velocity=0 time=0@note_on channel=5 note=60 velocity=80 time=0.0008928583333333332@note_on channel=6 note=60 velocity=80 time=0@note_on channel=7 note=72 velocity=80 time=0@note_on channel=5 note=60 velocity=0 time=0.3205361416666666@note_on channel=6 note=60 velocity=0 time=0@note_on channel=7 note=72 velocity=0 time=0@note_on channel=0 note=59 velocity=80 time=0.0008928583333333332@note_on channel=0 note=64 velocity=80 time=0@note_on channel=0 note=67 velocity=80 time=0@note_on channel=5 note=52 velocity=80 time=0@note_on channel=6 note=52 velocity=80 time=0@note_on channel=7 note=64 velocity=80 time=0@note_on channel=8 note=36 velocity=80 time=0@note_on channel=8 note=41 velocity=80 time=0@note_on channel=8 note=44 velocity=80 time=0@note_on channel=0 note=59 velocity=0 time=0.10625014166666666@note_on channel=0 note=64 velocity=0 time=0@note_on channel=0 note=67 velocity=0 time=0@note_on channel=8 note=36 velocity=0 time=0@note_on channel=8 note=41 velocity=0 time=0@note_on channel=8 note=44 velocity=0 time=0@note_on channel=5 note=52 velocity=0 time=0.21428599999999998@note_on channel=6 note=52 velocity=0 time=0@note_on channel=7 note=64 velocity=0 time=0@note_on channel=0 note=59 velocity=80 time=0.32232185833333327@note_on channel=0 note=64 velocity=80 time=0@note_on channel=0 note=67 velocity=80 time=0@note_on channel=8 note=36 velocity=80 time=0@note_on channel=8 note=41 velocity=80 time=0@note_on channel=8 note=44 velocity=80 time=0@note_on channel=0 note=59 velocity=0 time=0.10625014166666666@note_on channel=0 note=64 velocity=0 time=0@note_on channel=0 note=67 velocity=0 time=0@note_on channel=1 note=60 velocity=0 time=0@note_on channel=2 note=60 velocity=0 time=0@note_on channel=3 note=72 velocity=0 time=0@note_on channel=8 note=36 velocity=0 time=0@note_on channel=8 note=41 velocity=0 time=0@note_on channel=8 note=44 velocity=0 time=0@note_on channel=5 note=52 velocity=80 time=0.10803585833333332@note_on channel=6 note=52 velocity=80 time=0@note_on channel=7 note=64 velocity=80 time=0@note_on channel=5 note=52 velocity=0 time=0.10625014166666666@note_on channel=6 note=52 velocity=0 time=0@note_on channel=7 note=64 velocity=0 time=0@note_on channel=1 note=64 velocity=80 time=0.0008928583333333332@note_on channel=2 note=64 velocity=80 time=0@note_on channel=3 note=76 velocity=80 time=0@note_on channel=5 note=52 velocity=80 time=0@note_on channel=6 note=52 velocity=80 time=0@note_on channel=7 note=64 velocity=80 time=0@note_on channel=5 note=52 velocity=0 time=0.21339314166666665@note_on channel=6 note=52 velocity=0 time=0@note_on channel=7 note=64 velocity=0 time=0@note_on channel=5 note=54 velocity=80 time=0.0008928583333333332@note_on channel=6 note=54 velocity=80 time=0@note_on channel=7 note=66 velocity=80 time=0@note_on channel=5 note=54 velocity=0 time=0.10625014166666666@note_on channel=6 note=54 velocity=0 time=0@note_on channel=7 note=66 velocity=0 time=0@note_on channel=0 note=64 velocity=80 time=0.0008928583333333332@note_on channel=0 note=67 velocity=80 time=0@note_on channel=5 note=52 velocity=80 time=0@note_on channel=6 note=52 velocity=80 time=0@note_on channel=7 note=64 velocity=80 time=0@note_on channel=8 note=41 velocity=80 time=0@note_on channel=8 note=44 velocity=80 time=0@note_on channel=0 note=64 velocity=0 time=0.21339314166666665@note_on channel=0 note=67 velocity=0 time=0@note_on channel=5 note=52 velocity=0 time=0@note_on channel=6 note=52 velocity=0 time=0@note_on channel=7 note=64 velocity=0 time=0@note_on channel=8 note=41 velocity=0 time=0@note_on channel=8 note=44 velocity=0 time=0@note_on channel=0 note=69 velocity=80 time=0.0008928583333333332@note_on channel=5 note=51 velocity=80 time=0@note_on channel=6 note=51 velocity=80 time=0@note_on channel=7 note=63 velocity=80 time=0@note_on channel=8 note=46 velocity=80 time=0@note_on channel=0 note=69 velocity=0 time=0.10625014166666666@note_on channel=1 note=64 velocity=0 time=0@note_on channel=2 note=64 velocity=0 time=0@note_on channel=3 note=76 velocity=0 time=0@note_on channel=5 note=51 velocity=0 time=0@note_on channel=6 note=51 velocity=0 time=0@note_on channel=7 note=63 velocity=0 time=0@note_on channel=8 note=46 velocity=0 time=0@note_on channel=0 note=63 velocity=80 time=0.0008928583333333332@note_on channel=0 note=71 velocity=80 time=0@note_on channel=1 note=63 velocity=80 time=0@note_on channel=2 note=63 velocity=80 time=0@note_on channel=3 note=75 velocity=80 time=0@note_on channel=5 note=47 velocity=80 time=0@note_on channel=6 note=47 velocity=80 time=0@note_on channel=7 note=59 velocity=80 time=0@note_on channel=8 note=40 velocity=80 time=0@note_on channel=8 note=48 velocity=80 time=0@note_on channel=0 note=63 velocity=0 time=0.21339314166666665@note_on channel=0 note=71 velocity=0 time=0@note_on channel=5 note=47 velocity=0 time=0@note_on channel=6 note=47 velocity=0 time=0@note_on channel=7 note=59 velocity=0 time=0@note_on channel=8 note=40 velocity=0 time=0@note_on channel=8 note=48 velocity=0 time=0@note_on channel=0 note=69 velocity=80 time=0.0008928583333333332@note_on channel=5 note=54 velocity=80 time=0@note_on channel=6 note=54 velocity=80 time=0@note_on channel=7 note=66 velocity=80 time=0@note_on channel=8 note=46 velocity=80 time=0@note_on channel=0 note=69 velocity=0 time=0.10625014166666666@note_on channel=5 note=54 velocity=0 time=0@note_on channel=6 note=54 velocity=0 time=0@note_on channel=7 note=66 velocity=0 time=0@note_on channel=8 note=46 velocity=0 time=0@note_on channel=0 note=63 velocity=80 time=0.2151788583333333@note_on channel=0 note=69 velocity=80 time=0@note_on channel=5 note=47 velocity=80 time=0@note_on channel=6 note=47 velocity=80 time=0@note_on channel=7 note=59 velocity=80 time=0@note_on channel=8 note=40 velocity=80 time=0@note_on channel=8 note=46 velocity=80 time=0@note_on channel=0 note=63 velocity=0 time=0.10625014166666666@note_on channel=0 note=69 velocity=0 time=0@note_on channel=5 note=47 velocity=0 time=0@note_on channel=6 note=47 velocity=0 time=0@note_on channel=7 note=59 velocity=0 time=0@note_on channel=8 note=40 velocity=0 time=0@note_on channel=8 note=46 velocity=0 time=0@note_on channel=5 note=59 velocity=80 time=0.0008928583333333332@note_on channel=6 note=59 velocity=80 time=0@note_on channel=7 note=71 velocity=80 time=0@note_on channel=5 note=59 velocity=0 time=0.3205361416666666@note_on channel=6 note=59 velocity=0 time=0@note_on channel=7 note=71 velocity=0 time=0@note_on channel=0 note=63 velocity=80 time=0.0008928583333333332@note_on channel=0 note=69 velocity=80 time=0@note_on channel=5 note=54 velocity=80 time=0@note_on channel=6 note=54 velocity=80 time=0@note_on channel=7 note=66 velocity=80 time=0@note_on channel=8 note=40 velocity=80 time=0@note_on channel=8 note=46 velocity=80 time=0@note_on channel=0 note=63 velocity=0 time=0.10625014166666666@note_on channel=0 note=69 velocity=0 time=0@note_on channel=8 note=40 velocity=0 time=0@note_on channel=8 note=46 velocity=0 time=0@note_on channel=5 note=54 velocity=0 time=0.21428599999999998@note_on channel=6 note=54 velocity=0 time=0@note_on channel=7 note=66 velocity=0 time=0@note_on channel=0 note=63 velocity=80 time=0.32232185833333327@note_on channel=0 note=69 velocity=80 time=0@note_on channel=8 note=40 velocity=80 time=0@note_on channel=8 note=46 velocity=80 time=0@note_on channel=0 note=63 velocity=0 time=0.10625014166666666@note_on channel=0 note=69 velocity=0 time=0@note_on channel=8 note=40 velocity=0 time=0@note_on channel=8 note=46 velocity=0 time=0@note_on channel=5 note=57 velocity=80 time=0.10803585833333332@note_on channel=6 note=57 velocity=80 time=0@note_on channel=7 note=69 velocity=80 time=0@note_on channel=5 note=57 velocity=0 time=0.10625014166666666@note_on channel=6 note=57 velocity=0 time=0@note_on channel=7 note=69 velocity=0 time=0@note_on channel=0 note=63 velocity=80 time=0.0008928583333333332@note_on channel=0 note=69 velocity=80 time=0@note_on channel=5 note=57 velocity=80 time=0@note_on channel=6 note=57 velocity=80 time=0@note_on channel=7 note=69 velocity=80 time=0@note_on channel=8 note=40 velocity=80 time=0@note_on channel=8 note=46 velocity=80 time=0@note_on channel=5 note=57 velocity=0 time=0.10625014166666666@note_on channel=6 note=57 velocity=0 time=0@note_on channel=7 note=69 velocity=0 time=0@note_on channel=5 note=55 velocity=80 time=0.0008928583333333332@note_on channel=6 note=55 velocity=80 time=0@note_on channel=7 note=67 velocity=80 time=0@note_on channel=0 note=63 velocity=0 time=0.10625014166666666@note_on channel=0 note=69 velocity=0 time=0@note_on channel=5 note=55 velocity=0 time=0@note_on channel=6 note=55 velocity=0 time=0@note_on channel=7 note=67 velocity=0 time=0@note_on channel=8 note=40 velocity=0 time=0@note_on channel=8 note=46 velocity=0 time=0@note_on channel=0 note=67 velocity=80 time=0.0008928583333333332@note_on channel=5 note=54 velocity=80 time=0@note_on channel=6 note=54 velocity=80 time=0@note_on channel=7 note=66 velocity=80 time=0@note_on channel=8 note=44 velocity=80 time=0@note_on channel=0 note=67 velocity=0 time=0.10625014166666666@note_on channel=5 note=54 velocity=0 time=0@note_on channel=6 note=54 velocity=0 time=0@note_on channel=7 note=66 velocity=0 time=0@note_on channel=8 note=44 velocity=0 time=0@note_on channel=0 note=63 velocity=80 time=0.0008928583333333332@note_on channel=0 note=66 velocity=80 time=0@note_on channel=5 note=59 velocity=80 time=0@note_on channel=6 note=59 velocity=80 time=0@note_on channel=7 note=71 velocity=80 time=0@note_on channel=8 note=40 velocity=80 time=0@note_on channel=8 note=43 velocity=80 time=0@note_on channel=5 note=59 velocity=0 time=0.10625014166666666@note_on channel=6 note=59 velocity=0 time=0@note_on channel=7 note=71 velocity=0 time=0@note_on channel=5 note=63 velocity=80 time=0.0008928583333333332@note_on channel=6 note=63 velocity=80 time=0@note_on channel=7 note=75 velocity=80 time=0@note_on channel=0 note=63 velocity=0 time=0.10625014166666666@note_on channel=0 note=66 velocity=0 time=0@note_on channel=5 note=63 velocity=0 time=0@note_on channel=6 note=63 velocity=0 time=0@note_on channel=7 note=75 velocity=0 time=0@note_on channel=8 note=40 velocity=0 time=0@note_on channel=8 note=43 velocity=0 time=0@note_on channel=0 note=67 velocity=80 time=0.0008928583333333332@note_on channel=5 note=59 velocity=80 time=0@note_on channel=6 note=59 velocity=80 time=0@note_on channel=7 note=71 velocity=80 time=0@note_on channel=8 note=44 velocity=80 time=0@note_on channel=0 note=67 velocity=0 time=0.10625014166666666@note_on channel=1 note=63 velocity=0 time=0@note_on channel=2 note=63 velocity=0 time=0@note_on channel=3 note=75 velocity=0 time=0@note_on channel=5 note=59 velocity=0 time=0@note_on channel=6 note=59 velocity=0 time=0@note_on channel=7 note=71 velocity=0 time=0@note_on channel=8 note=44 velocity=0 time=0@note_on channel=1 note=64 velocity=80 time=0.0008928583333333332@note_on channel=2 note=64 velocity=80 time=0@note_on channel=3 note=76 velocity=80 time=0@note_on channel=5 note=47 velocity=80 time=0@note_on channel=6 note=47 velocity=80 time=0@note_on channel=7 note=59 velocity=80 time=0@note_on channel=5 note=47 velocity=0 time=0.21339314166666665@note_on channel=6 note=47 velocity=0 time=0@note_on channel=7 note=59 velocity=0 time=0@note_on channel=5 note=52 velocity=80 time=0.0008928583333333332@note_on channel=6 note=52 velocity=80 time=0@note_on channel=7 note=64 velocity=80 time=0@note_on channel=1 note=64 velocity=0 time=0.10625014166666666@note_on channel=2 note=64 velocity=0 time=0@note_on channel=3 note=76 velocity=0 time=0@note_on channel=5 note=52 velocity=0 time=0@note_on channel=6 note=52 velocity=0 time=0@note_on channel=7 note=64 velocity=0 time=0@note_on channel=0 note=59 velocity=80 time=0.0008928583333333332@note_on channel=0 note=64 velocity=80 time=0@note_on channel=0 note=67 velocity=80 time=0@note_on channel=1 note=59 velocity=80 time=0@note_on channel=2 note=59 velocity=80 time=0@note_on channel=3 note=71 velocity=80 time=0@note_on channel=8 note=36 velocity=80 time=0@note_on channel=8 note=41 velocity=80 time=0@note_on channel=8 note=44 velocity=80 time=0@note_on channel=0 note=59 velocity=0 time=0.10625014166666666@note_on channel=0 note=64 velocity=0 time=0@note_on channel=0 note=67 velocity=0 time=0@note_on channel=8 note=36 velocity=0 time=0@note_on channel=8 note=41 velocity=0 time=0@note_on channel=8 note=44 velocity=0 time=0@note_on channel=1 note=59 velocity=0 time=0.10714299999999999@note_on channel=2 note=59 velocity=0 time=0@note_on channel=3 note=71 velocity=0 time=0@note_on channel=1 note=57 velocity=80 time=0.0008928583333333332@note_on channel=2 note=57 velocity=80 time=0@note_on channel=3 note=69 velocity=80 time=0@note_on channel=5 note=47 velocity=80 time=0@note_on channel=6 note=47 velocity=80 time=0@note_on channel=7 note=59 velocity=80 time=0@note_on channel=1 note=57 velocity=0 time=0.10625014166666666@note_on channel=2 note=57 velocity=0 time=0@note_on channel=3 note=69 velocity=0 time=0@note_on channel=5 note=47 velocity=0 time=0@note_on channel=6 note=47 velocity=0 time=0@note_on channel=7 note=59 velocity=0 time=0@note_on channel=1 note=60 velocity=80 time=0.0008928583333333332@note_on channel=2 note=60 velocity=80 time=0@note_on channel=3 note=72 velocity=80 time=0@note_on channel=5 note=55 velocity=80 time=0@note_on channel=6 note=55 velocity=80 time=0@note_on channel=7 note=67 velocity=80 time=0@note_on channel=1 note=60 velocity=0 time=0.3205361416666666@note_on channel=2 note=60 velocity=0 time=0@note_on channel=3 note=72 velocity=0 time=0@note_on channel=5 note=55 velocity=0 time=0@note_on channel=6 note=55 velocity=0 time=0@note_on channel=7 note=67 velocity=0 time=0@note_on channel=0 note=59 velocity=80 time=0.0008928583333333332@note_on channel=0 note=64 velocity=80 time=0@note_on channel=0 note=67 velocity=80 time=0@note_on channel=1 note=59 velocity=80 time=0@note_on channel=2 note=59 velocity=80 time=0@note_on channel=3 note=71 velocity=80 time=0@note_on channel=5 note=52 velocity=80 time=0@note_on channel=6 note=52 velocity=80 time=0@note_on channel=7 note=64 velocity=80 time=0@note_on channel=8 note=36 velocity=80 time=0@note_on channel=8 note=41 velocity=80 time=0@note_on channel=8 note=44 velocity=80 time=0@note_on channel=0 note=59 velocity=0 time=0.10625014166666666@note_on channel=0 note=64 velocity=0 time=0@note_on channel=0 note=67 velocity=0 time=0@note_on channel=8 note=36 velocity=0 time=0@note_on channel=8 note=41 velocity=0 time=0@note_on channel=8 note=44 velocity=0 time=0@note_on channel=1 note=59 velocity=0 time=0.21428599999999998@note_on channel=2 note=59 velocity=0 time=0@note_on channel=3 note=71 velocity=0 time=0@note_on channel=5 note=52 velocity=0 time=0@note_on channel=6 note=52 velocity=0 time=0@note_on channel=7 note=64 velocity=0 time=0@note_on channel=1 note=59 velocity=80 time=0.2151788583333333@note_on channel=2 note=59 velocity=80 time=0@note_on channel=3 note=71 velocity=80 time=0@note_on channel=7 note=71 velocity=80 time=0@note_on channel=1 note=59 velocity=0 time=0.10625014166666666@note_on channel=2 note=59 velocity=0 time=0@note_on channel=3 note=71 velocity=0 time=0@note_on channel=7 note=71 velocity=0 time=0@note_on channel=0 note=59 velocity=80 time=0.0008928583333333332@note_on channel=0 note=64 velocity=80 time=0@note_on channel=0 note=67 velocity=80 time=0@note_on channel=1 note=64 velocity=80 time=0@note_on channel=2 note=64 velocity=80 time=0@note_on channel=3 note=76 velocity=80 time=0@note_on channel=7 note=76 velocity=80 time=0@note_on channel=8 note=36 velocity=80 time=0@note_on channel=8 note=41 velocity=80 time=0@note_on channel=8 note=44 velocity=80 time=0@note_on channel=0 note=59 velocity=0 time=0.10625014166666666@note_on channel=0 note=64 velocity=0 time=0@note_on channel=0 note=67 velocity=0 time=0@note_on channel=8 note=36 velocity=0 time=0@note_on channel=8 note=41 velocity=0 time=0@note_on channel=8 note=44 velocity=0 time=0@note_on channel=5 note=52 velocity=80 time=0.10803585833333332@note_on channel=6 note=52 velocity=80 time=0@note_on channel=1 note=64 velocity=0 time=0.10625014166666666@note_on channel=2 note=64 velocity=0 time=0@note_on channel=3 note=76 velocity=0 time=0@note_on channel=5 note=52 velocity=0 time=0@note_on channel=6 note=52 velocity=0 time=0@note_on channel=7 note=76 velocity=0 time=0@note_on channel=1 note=60 velocity=80 time=0.0008928583333333332@note_on channel=2 note=60 velocity=80 time=0@note_on channel=3 note=72 velocity=80 time=0@note_on channel=5 note=54 velocity=80 time=0@note_on channel=6 note=54 velocity=80 time=0@note_on channel=7 note=72 velocity=80 time=0@note_on channel=5 note=54 velocity=0 time=0.21339314166666665@note_on channel=6 note=54 velocity=0 time=0@note_on channel=5 note=55 velocity=80 time=0.0008928583333333332@note_on channel=6 note=55 velocity=80 time=0@note_on channel=1 note=60 velocity=0 time=0.10625014166666666@note_on channel=2 note=60 velocity=0 time=0@note_on channel=3 note=72 velocity=0 time=0@note_on channel=5 note=55 velocity=0 time=0@note_on channel=6 note=55 velocity=0 time=0@note_on channel=7 note=72 velocity=0 time=0@note_on channel=0 note=63 velocity=80 time=0.0008928583333333332@note_on channel=0 note=66 velocity=80 time=0@note_on channel=1 note=59 velocity=80 time=0@note_on channel=2 note=59 velocity=80 time=0@note_on channel=3 note=71 velocity=80 time=0@note_on channel=5 note=54 velocity=80 time=0@note_on channel=6 note=54 velocity=80 time=0@note_on channel=7 note=71 velocity=80 time=0@note_on channel=8 note=40 velocity=80 time=0@note_on channel=8 note=43 velocity=80 time=0@note_on channel=0 note=63 velocity=0 time=0.15982164166666665@note_on channel=0 note=66 velocity=0 time=0@note_on channel=8 note=40 velocity=0 time=0@note_on channel=8 note=43 velocity=0 time=0@note_on channel=5 note=54 velocity=0 time=0.053571499999999994@note_on channel=6 note=54 velocity=0 time=0@note_on channel=0 note=69 velocity=80 time=0.0008928583333333332@note_on channel=5 note=51 velocity=80 time=0@note_on channel=6 note=51 velocity=80 time=0@note_on channel=8 note=46 velocity=80 time=0@note_on channel=0 note=69 velocity=0 time=0.10625014166666666@note_on channel=1 note=59 velocity=0 time=0@note_on channel=2 note=59 velocity=0 time=0@note_on channel=3 note=71 velocity=0 time=0@note_on channel=5 note=51 velocity=0 time=0@note_on channel=6 note=51 velocity=0 time=0@note_on channel=7 note=71 velocity=0 time=0@note_on channel=8 note=46 velocity=0 time=0@note_on channel=1 note=64 velocity=80 time=0.0008928583333333332@note_on channel=2 note=64 velocity=80 time=0@note_on channel=3 note=76 velocity=80 time=0@note_on channel=5 note=47 velocity=80 time=0@note_on channel=6 note=47 velocity=80 time=0@note_on channel=7 note=76 velocity=80 time=0@note_on channel=5 note=47 velocity=0 time=0.21339314166666665@note_on channel=6 note=47 velocity=0 time=0@note_on channel=5 note=52 velocity=80 time=0.0008928583333333332@note_on channel=6 note=52 velocity=80 time=0@note_on channel=1 note=64 velocity=0 time=0.10625014166666666@note_on channel=2 note=64 velocity=0 time=0@note_on channel=3 note=76 velocity=0 time=0@note_on channel=5 note=52 velocity=0 time=0@note_on channel=6 note=52 velocity=0 time=0@note_on channel=7 note=76 velocity=0 time=0@note_on channel=0 note=59 velocity=80 time=0.0008928583333333332@note_on channel=0 note=64 velocity=80 time=0@note_on channel=0 note=67 velocity=80 time=0@note_on channel=1 note=59 velocity=80 time=0@note_on channel=2 note=59 velocity=80 time=0@note_on channel=3 note=71 velocity=80 time=0@note_on channel=7 note=71 velocity=80 time=0@note_on channel=8 note=36 velocity=80 time=0@note_on channel=8 note=41 velocity=80 time=0@note_on channel=8 note=44 velocity=80 time=0@note_on channel=0 note=59 velocity=0 time=0.10625014166666666@note_on channel=0 note=64 velocity=0 time=0@note_on channel=0 note=67 velocity=0 time=0@note_on channel=8 note=36 velocity=0 time=0@note_on channel=8 note=41 velocity=0 time=0@note_on channel=8 note=44 velocity=0 time=0@note_on channel=5 note=47 velocity=80 time=0.10803585833333332@note_on channel=6 note=47 velocity=80 time=0@note_on channel=1 note=59 velocity=0 time=0.10625014166666666@note_on channel=2 note=59 velocity=0 time=0@note_on channel=3 note=71 velocity=0 time=0@note_on channel=5 note=47 velocity=0 time=0@note_on channel=6 note=47 velocity=0 time=0@note_on channel=7 note=71 velocity=0 time=0@note_on channel=1 note=66 velocity=80 time=0.0008928583333333332@note_on channel=2 note=66 velocity=80 time=0@note_on channel=3 note=78 velocity=80 time=0@note_on channel=5 note=55 velocity=80 time=0@note_on channel=6 note=55 velocity=80 time=0@note_on channel=7 note=78 velocity=80 time=0@note_on channel=1 note=66 velocity=0 time=0.3205361416666666@note_on channel=2 note=66 velocity=0 time=0@note_on channel=3 note=78 velocity=0 time=0@note_on channel=5 note=55 velocity=0 time=0@note_on channel=6 note=55 velocity=0 time=0@note_on channel=7 note=78 velocity=0 time=0@note_on channel=0 note=59 velocity=80 time=0.0008928583333333332@note_on channel=0 note=64 velocity=80 time=0@note_on channel=0 note=67 velocity=80 time=0@note_on channel=1 note=64 velocity=80 time=0@note_on channel=2 note=64 velocity=80 time=0@note_on channel=3 note=76 velocity=80 time=0@note_on channel=5 note=52 velocity=80 time=0@note_on channel=6 note=52 velocity=80 time=0@note_on channel=7 note=76 velocity=80 time=0@note_on channel=8 note=36 velocity=80 time=0@note_on channel=8 note=41 velocity=80 time=0@note_on channel=8 note=44 velocity=80 time=0@note_on channel=0 note=59 velocity=0 time=0.10625014166666666@note_on channel=0 note=64 velocity=0 time=0@note_on channel=0 note=67 velocity=0 time=0@note_on channel=8 note=36 velocity=0 time=0@note_on channel=8 note=41 velocity=0 time=0@note_on channel=8 note=44 velocity=0 time=0@note_on channel=1 note=64 velocity=0 time=0.21428599999999998@note_on channel=2 note=64 velocity=0 time=0@note_on channel=3 note=76 velocity=0 time=0@note_on channel=5 note=52 velocity=0 time=0@note_on channel=6 note=52 velocity=0 time=0@note_on channel=7 note=76 velocity=0 time=0@note_on channel=0 note=59 velocity=80 time=0.32232185833333327@note_on channel=0 note=64 velocity=80 time=0@note_on channel=0 note=67 velocity=80 time=0@note_on channel=1 note=64 velocity=80 time=0@note_on channel=2 note=64 velocity=80 time=0@note_on channel=3 note=76 velocity=80 time=0@note_on channel=7 note=76 velocity=80 time=0@note_on channel=8 note=36 velocity=80 time=0@note_on channel=8 note=41 velocity=80 time=0@note_on channel=8 note=44 velocity=80 time=0@note_on channel=0 note=59 velocity=0 time=0.10625014166666666@note_on channel=0 note=64 velocity=0 time=0@note_on channel=0 note=67 velocity=0 time=0@note_on channel=8 note=36 velocity=0 time=0@note_on channel=8 note=41 velocity=0 time=0@note_on channel=8 note=44 velocity=0 time=0@note_on channel=5 note=52 velocity=80 time=0.10803585833333332@note_on channel=6 note=52 velocity=80 time=0@note_on channel=1 note=64 velocity=0 time=0.10625014166666666@note_on channel=2 note=64 velocity=0 time=0@note_on channel=3 note=76 velocity=0 time=0@note_on channel=5 note=52 velocity=0 time=0@note_on channel=6 note=52 velocity=0 time=0@note_on channel=7 note=76 velocity=0 time=0@note_on channel=1 note=66 velocity=80 time=0.0008928583333333332@note_on channel=2 note=66 velocity=80 time=0@note_on channel=3 note=78 velocity=80 time=0@note_on channel=5 note=50 velocity=80 time=0@note_on channel=6 note=50 velocity=80 time=0@note_on channel=7 note=78 velocity=80 time=0@note_on channel=1 note=66 velocity=0 time=0.21339314166666665@note_on channel=2 note=66 velocity=0 time=0@note_on channel=3 note=78 velocity=0 time=0@note_on channel=5 note=50 velocity=0 time=0@note_on channel=6 note=50 velocity=0 time=0@note_on channel=7 note=78 velocity=0 time=0@note_on channel=1 note=64 velocity=80 time=0.0008928583333333332@note_on channel=2 note=64 velocity=80 time=0@note_on channel=3 note=76 velocity=80 time=0@note_on channel=5 note=52 velocity=80 time=0@note_on channel=6 note=52 velocity=80 time=0@note_on channel=7 note=76 velocity=80 time=0@note_on channel=1 note=64 velocity=0 time=0.10625014166666666@note_on channel=2 note=64 velocity=0 time=0@note_on channel=3 note=76 velocity=0 time=0@note_on channel=5 note=52 velocity=0 time=0@note_on channel=6 note=52 velocity=0 time=0@note_on channel=7 note=76 velocity=0 time=0@note_on channel=0 note=64 velocity=80 time=0.0008928583333333332@note_on channel=0 note=67 velocity=80 time=0@note_on channel=1 note=63 velocity=80 time=0@note_on channel=2 note=63 velocity=80 time=0@note_on channel=3 note=75 velocity=80 time=0@note_on channel=5 note=50 velocity=80 time=0@note_on channel=6 note=50 velocity=80 time=0@note_on channel=7 note=75 velocity=80 time=0@note_on channel=8 note=41 velocity=80 time=0@note_on channel=8 note=44 velocity=80 time=0@note_on channel=0 note=64 velocity=0 time=0.15982164166666665@note_on channel=0 note=67 velocity=0 time=0@note_on channel=8 note=41 velocity=0 time=0@note_on channel=8 note=44 velocity=0 time=0@note_on channel=1 note=63 velocity=0 time=0.053571499999999994@note_on channel=2 note=63 velocity=0 time=0@note_on channel=3 note=75 velocity=0 time=0@note_on channel=5 note=50 velocity=0 time=0@note_on channel=6 note=50 velocity=0 time=0@note_on channel=7 note=75 velocity=0 time=0@note_on channel=0 note=66 velocity=80 time=0.0008928583333333332@note_on channel=1 note=64 velocity=80 time=0@note_on channel=2 note=64 velocity=80 time=0@note_on channel=3 note=76 velocity=80 time=0@note_on channel=5 note=50 velocity=80 time=0@note_on channel=6 note=50 velocity=80 time=0@note_on channel=7 note=76 velocity=80 time=0@note_on channel=8 note=43 velocity=80 time=0@note_on channel=0 note=66 velocity=0 time=0.10625014166666666@note_on channel=1 note=64 velocity=0 time=0@note_on channel=2 note=64 velocity=0 time=0@note_on channel=3 note=76 velocity=0 time=0@note_on channel=5 note=50 velocity=0 time=0@note_on channel=6 note=50 velocity=0 time=0@note_on channel=7 note=76 velocity=0 time=0@note_on channel=8 note=43 velocity=0 time=0@note_on channel=1 note=60 velocity=80 time=0.0008928583333333332@note_on channel=2 note=60 velocity=80 time=0@note_on channel=3 note=72 velocity=80 time=0@note_on channel=5 note=48 velocity=80 time=0@note_on channel=6 note=48 velocity=80 time=0@note_on channel=7 note=72 velocity=80 time=0@note_on channel=5 note=48 velocity=0 time=0.21339314166666665@note_on channel=6 note=48 velocity=0 time=0@note_on channel=5 note=52 velocity=80 time=0.0008928583333333332@note_on channel=6 note=52 velocity=80 time=0@note_on channel=1 note=60 velocity=0 time=0.10625014166666666@note_on channel=2 note=60 velocity=0 time=0@note_on channel=3 note=72 velocity=0 time=0@note_on channel=5 note=52 velocity=0 time=0@note_on channel=6 note=52 velocity=0 time=0@note_on channel=7 note=72 velocity=0 time=0@note_on channel=0 note=59 velocity=80 time=0.0008928583333333332@note_on channel=0 note=64 velocity=80 time=0@note_on channel=0 note=67 velocity=80 time=0@note_on channel=1 note=64 velocity=80 time=0@note_on channel=2 note=64 velocity=80 time=0@note_on channel=3 note=76 velocity=80 time=0@note_on channel=7 note=76 velocity=80 time=0@note_on channel=8 note=36 velocity=80 time=0@note_on channel=8 note=41 velocity=80 time=0@note_on channel=8 note=44 velocity=80 time=0@note_on channel=0 note=59 velocity=0 time=0.10625014166666666@note_on channel=0 note=64 velocity=0 time=0@note_on channel=0 note=67 velocity=0 time=0@note_on channel=8 note=36 velocity=0 time=0@note_on channel=8 note=41 velocity=0 time=0@note_on channel=8 note=44 velocity=0 time=0@note_on channel=1 note=64 velocity=0 time=0.10714299999999999@note_on channel=2 note=64 velocity=0 time=0@note_on channel=3 note=76 velocity=0 time=0@note_on channel=7 note=76 velocity=0 time=0@note_on channel=1 note=60 velocity=80 time=0.0008928583333333332@note_on channel=2 note=60 velocity=80 time=0@note_on channel=3 note=72 velocity=80 time=0@note_on channel=5 note=48 velocity=80 time=0@note_on channel=6 note=48 velocity=80 time=0@note_on channel=7 note=72 velocity=80 time=0@note_on channel=1 note=60 velocity=0 time=0.10625014166666666@note_on channel=2 note=60 velocity=0 time=0@note_on channel=3 note=72 velocity=0 time=0@note_on channel=5 note=48 velocity=0 time=0@note_on channel=6 note=48 velocity=0 time=0@note_on channel=7 note=72 velocity=0 time=0@note_on channel=1 note=67 velocity=80 time=0.0008928583333333332@note_on channel=2 note=67 velocity=80 time=0@note_on channel=3 note=79 velocity=80 time=0@note_on channel=5 note=60 velocity=80 time=0@note_on channel=6 note=60 velocity=80 time=0@note_on channel=7 note=79 velocity=80 time=0@note_on channel=1 note=67 velocity=0 time=0.3205361416666666@note_on channel=2 note=67 velocity=0 time=0@note_on channel=3 note=79 velocity=0 time=0@note_on channel=5 note=60 velocity=0 time=0@note_on channel=6 note=60 velocity=0 time=0@note_on channel=7 note=79 velocity=0 time=0@note_on channel=0 note=59 velocity=80 time=0.0008928583333333332@note_on channel=0 note=64 velocity=80 time=0@note_on channel=0 note=67 velocity=80 time=0@note_on channel=1 note=66 velocity=80 time=0@note_on channel=2 note=66 velocity=80 time=0@note_on channel=3 note=78 velocity=80 time=0@note_on channel=5 note=52 velocity=80 time=0@note_on channel=6 note=52 velocity=80 time=0@note_on channel=7 note=78 velocity=80 time=0@note_on channel=8 note=36 velocity=80 time=0@note_on channel=8 note=41 velocity=80 time=0@note_on channel=8 note=44 velocity=80 time=0@note_on channel=0 note=59 velocity=0 time=0.10625014166666666@note_on channel=0 note=64 velocity=0 time=0@note_on channel=0 note=67 velocity=0 time=0@note_on channel=8 note=36 velocity=0 time=0@note_on channel=8 note=41 velocity=0 time=0@note_on channel=8 note=44 velocity=0 time=0@note_on channel=1 note=66 velocity=0 time=0.10714299999999999@note_on channel=2 note=66 velocity=0 time=0@note_on channel=3 note=78 velocity=0 time=0@note_on channel=7 note=78 velocity=0 time=0@note_on channel=1 note=64 velocity=80 time=0.0008928583333333332@note_on channel=2 note=64 velocity=80 time=0@note_on channel=3 note=76 velocity=80 time=0@note_on channel=7 note=76 velocity=80 time=0@note_on channel=1 note=64 velocity=0 time=0.10625014166666666@note_on channel=2 note=64 velocity=0 time=0@note_on channel=3 note=76 velocity=0 time=0@note_on channel=5 note=52 velocity=0 time=0@note_on channel=6 note=52 velocity=0 time=0@note_on channel=7 note=76 velocity=0 time=0@note_on channel=1 note=60 velocity=80 time=0.2151788583333333@note_on channel=2 note=60 velocity=80 time=0@note_on channel=3 note=72 velocity=80 time=0@note_on channel=7 note=72 velocity=80 time=0@note_on channel=1 note=60 velocity=0 time=0.10625014166666666@note_on channel=2 note=60 velocity=0 time=0@note_on channel=3 note=72 velocity=0 time=0@note_on channel=7 note=72 velocity=0 time=0@note_on channel=0 note=59 velocity=80 time=0.0008928583333333332@note_on channel=0 note=64 velocity=80 time=0@note_on channel=0 note=67 velocity=80 time=0@note_on channel=1 note=64 velocity=80 time=0@note_on channel=2 note=64 velocity=80 time=0@note_on channel=3 note=76 velocity=80 time=0@note_on channel=7 note=76 velocity=80 time=0@note_on channel=8 note=36 velocity=80 time=0@note_on channel=8 note=41 velocity=80 time=0@note_on channel=8 note=44 velocity=80 time=0@note_on channel=0 note=59 velocity=0 time=0.10625014166666666@note_on channel=0 note=64 velocity=0 time=0@note_on channel=0 note=67 velocity=0 time=0@note_on channel=8 note=36 velocity=0 time=0@note_on channel=8 note=41 velocity=0 time=0@note_on channel=8 note=44 velocity=0 time=0@note_on channel=1 note=64 velocity=0 time=0.10714299999999999@note_on channel=2 note=64 velocity=0 time=0@note_on channel=3 note=76 velocity=0 time=0@note_on channel=7 note=76 velocity=0 time=0@note_on channel=1 note=60 velocity=80 time=0.0008928583333333332@note_on channel=2 note=60 velocity=80 time=0@note_on channel=3 note=72 velocity=80 time=0@note_on channel=5 note=52 velocity=80 time=0@note_on channel=6 note=52 velocity=80 time=0@note_on channel=7 note=72 velocity=80 time=0@note_on channel=1 note=60 velocity=0 time=0.10625014166666666@note_on channel=2 note=60 velocity=0 time=0@note_on channel=3 note=72 velocity=0 time=0@note_on channel=5 note=52 velocity=0 time=0@note_on channel=6 note=52 velocity=0 time=0@note_on channel=7 note=72 velocity=0 time=0@note_on channel=1 note=66 velocity=80 time=0.0008928583333333332@note_on channel=2 note=66 velocity=80 time=0@note_on channel=3 note=78 velocity=80 time=0@note_on channel=5 note=52 velocity=80 time=0@note_on channel=6 note=52 velocity=80 time=0@note_on channel=7 note=78 velocity=80 time=0@note_on channel=1 note=66 velocity=0 time=0.21339314166666665@note_on channel=2 note=66 velocity=0 time=0@note_on channel=3 note=78 velocity=0 time=0@note_on channel=5 note=52 velocity=0 time=0@note_on channel=6 note=52 velocity=0 time=0@note_on channel=7 note=78 velocity=0 time=0@note_on channel=1 note=64 velocity=80 time=0.0008928583333333332@note_on channel=2 note=64 velocity=80 time=0@note_on channel=3 note=76 velocity=80 time=0@note_on channel=5 note=54 velocity=80 time=0@note_on channel=6 note=54 velocity=80 time=0@note_on channel=7 note=76 velocity=80 time=0@note_on channel=1 note=64 velocity=0 time=0.10625014166666666@note_on channel=2 note=64 velocity=0 time=0@note_on channel=3 note=76 velocity=0 time=0@note_on channel=5 note=54 velocity=0 time=0@note_on channel=6 note=54 velocity=0 time=0@note_on channel=7 note=76 velocity=0 time=0@note_on channel=0 note=64 velocity=80 time=0.0008928583333333332@note_on channel=0 note=67 velocity=80 time=0@note_on channel=1 note=63 velocity=80 time=0@note_on channel=2 note=63 velocity=80 time=0@note_on channel=3 note=75 velocity=80 time=0@note_on channel=5 note=52 velocity=80 time=0@note_on channel=6 note=52 velocity=80 time=0@note_on channel=7 note=75 velocity=80 time=0@note_on channel=8 note=41 velocity=80 time=0@note_on channel=8 note=44 velocity=80 time=0@note_on channel=0 note=64 velocity=0 time=0.21339314166666665@note_on channel=0 note=67 velocity=0 time=0@note_on channel=1 note=63 velocity=0 time=0@note_on channel=2 note=63 velocity=0 time=0@note_on channel=3 note=75 velocity=0 time=0@note_on channel=5 note=52 velocity=0 time=0@note_on channel=6 note=52 velocity=0 time=0@note_on channel=7 note=75 velocity=0 time=0@note_on channel=8 note=41 velocity=0 time=0@note_on channel=8 note=44 velocity=0 time=0@note_on channel=0 note=69 velocity=80 time=0.0008928583333333332@note_on channel=1 note=64 velocity=80 time=0@note_on channel=2 note=64 velocity=80 time=0@note_on channel=3 note=76 velocity=80 time=0@note_on channel=5 note=51 velocity=80 time=0@note_on channel=6 note=51 velocity=80 time=0@note_on channel=7 note=76 velocity=80 time=0@note_on channel=8 note=46 velocity=80 time=0@note_on channel=0 note=69 velocity=0 time=0.10625014166666666@note_on channel=1 note=64 velocity=0 time=0@note_on channel=2 note=64 velocity=0 time=0@note_on channel=3 note=76 velocity=0 time=0@note_on channel=5 note=51 velocity=0 time=0@note_on channel=6 note=51 velocity=0 time=0@note_on channel=7 note=76 velocity=0 time=0@note_on channel=8 note=46 velocity=0 time=0@note_on channel=0 note=63 velocity=80 time=0.0008928583333333332@note_on channel=0 note=71 velocity=80 time=0@note_on channel=1 note=66 velocity=80 time=0@note_on channel=2 note=66 velocity=80 time=0@note_on channel=3 note=78 velocity=80 time=0@note_on channel=5 note=47 velocity=80 time=0@note_on channel=6 note=47 velocity=80 time=0@note_on channel=7 note=78 velocity=80 time=0@note_on channel=8 note=40 velocity=80 time=0@note_on channel=8 note=48 velocity=80 time=0@note_on channel=0 note=63 velocity=0 time=0.21339314166666665@note_on channel=0 note=71 velocity=0 time=0@note_on channel=5 note=47 velocity=0 time=0@note_on channel=6 note=47 velocity=0 time=0@note_on channel=8 note=40 velocity=0 time=0@note_on channel=8 note=48 velocity=0 time=0@note_on channel=0 note=69 velocity=80 time=0.0008928583333333332@note_on channel=5 note=54 velocity=80 time=0@note_on channel=6 note=54 velocity=80 time=0@note_on channel=8 note=46 velocity=80 time=0@note_on channel=0 note=69 velocity=0 time=0.10625014166666666@note_on channel=1 note=66 velocity=0 time=0@note_on channel=2 note=66 velocity=0 time=0@note_on channel=3 note=78 velocity=0 time=0@note_on channel=5 note=54 velocity=0 time=0@note_on channel=6 note=54 velocity=0 time=0@note_on channel=7 note=78 velocity=0 time=0@note_on channel=8 note=46 velocity=0 time=0@note_on channel=1 note=59 velocity=80 time=0.0008928583333333332@note_on channel=2 note=59 velocity=80 time=0@note_on channel=3 note=71 velocity=80 time=0@note_on channel=7 note=71 velocity=80 time=0@note_on channel=0 note=63 velocity=80 time=0.21428599999999998@note_on channel=0 note=69 velocity=80 time=0@note_on channel=5 note=47 velocity=80 time=0@note_on channel=6 note=47 velocity=80 time=0@note_on channel=8 note=40 velocity=80 time=0@note_on channel=8 note=46 velocity=80 time=0@note_on channel=0 note=63 velocity=0 time=0.10625014166666666@note_on channel=0 note=69 velocity=0 time=0@note_on channel=1 note=59 velocity=0 time=0@note_on channel=2 note=59 velocity=0 time=0@note_on channel=3 note=71 velocity=0 time=0@note_on channel=5 note=47 velocity=0 time=0@note_on channel=6 note=47 velocity=0 time=0@note_on channel=7 note=71 velocity=0 time=0@note_on channel=8 note=40 velocity=0 time=0@note_on channel=8 note=46 velocity=0 time=0@note_on channel=1 note=63 velocity=80 time=0.0008928583333333332@note_on channel=2 note=63 velocity=80 time=0@note_on channel=3 note=75 velocity=80 time=0@note_on channel=5 note=59 velocity=80 time=0@note_on channel=6 note=59 velocity=80 time=0@note_on channel=7 note=75 velocity=80 time=0@note_on channel=1 note=63 velocity=0 time=0.3205361416666666@note_on channel=2 note=63 velocity=0 time=0@note_on channel=3 note=75 velocity=0 time=0@note_on channel=5 note=59 velocity=0 time=0@note_on channel=6 note=59 velocity=0 time=0@note_on channel=7 note=75 velocity=0 time=0@note_on channel=0 note=63 velocity=80 time=0.0008928583333333332@note_on channel=0 note=69 velocity=80 time=0@note_on channel=1 note=59 velocity=80 time=0@note_on channel=2 note=59 velocity=80 time=0@note_on channel=3 note=71 velocity=80 time=0@note_on channel=5 note=54 velocity=80 time=0@note_on channel=6 note=54 velocity=80 time=0@note_on channel=7 note=71 velocity=80 time=0@note_on channel=8 note=40 velocity=80 time=0@note_on channel=8 note=46 velocity=80 time=0@note_on channel=0 note=63 velocity=0 time=0.10625014166666666@note_on channel=0 note=69 velocity=0 time=0@note_on channel=8 note=40 velocity=0 time=0@note_on channel=8 note=46 velocity=0 time=0@note_on channel=1 note=59 velocity=0 time=0.21428599999999998@note_on channel=2 note=59 velocity=0 time=0@note_on channel=3 note=71 velocity=0 time=0@note_on channel=5 note=54 velocity=0 time=0@note_on channel=6 note=54 velocity=0 time=0@note_on channel=7 note=71 velocity=0 time=0@note_on channel=1 note=66 velocity=80 time=0.0008928583333333332@note_on channel=2 note=66 velocity=80 time=0@note_on channel=3 note=78 velocity=80 time=0@note_on channel=7 note=78 velocity=80 time=0@note_on channel=1 note=66 velocity=0 time=0.3205361416666666@note_on channel=2 note=66 velocity=0 time=0@note_on channel=3 note=78 velocity=0 time=0@note_on channel=7 note=78 velocity=0 time=0@note_on channel=0 note=63 velocity=80 time=0.0008928583333333332@note_on channel=0 note=69 velocity=80 time=0@note_on channel=1 note=59 velocity=80 time=0@note_on channel=2 note=59 velocity=80 time=0@note_on channel=3 note=71 velocity=80 time=0@note_on channel=7 note=71 velocity=80 time=0@note_on channel=8 note=40 velocity=80 time=0@note_on channel=8 note=46 velocity=80 time=0@note_on channel=0 note=63 velocity=0 time=0.10625014166666666@note_on channel=0 note=69 velocity=0 time=0@note_on channel=8 note=40 velocity=0 time=0@note_on channel=8 note=46 velocity=0 time=0@note_on channel=5 note=57 velocity=80 time=0.10803585833333332@note_on channel=6 note=57 velocity=80 time=0@note_on channel=1 note=59 velocity=0 time=0.10625014166666666@note_on channel=2 note=59 velocity=0 time=0@note_on channel=3 note=71 velocity=0 time=0@note_on channel=5 note=57 velocity=0 time=0@note_on channel=6 note=57 velocity=0 time=0@note_on channel=7 note=71 velocity=0 time=0@note_on channel=0 note=63 velocity=80 time=0.0008928583333333332@note_on channel=0 note=69 velocity=80 time=0@note_on channel=1 note=69 velocity=80 time=0@note_on channel=2 note=69 velocity=80 time=0@note_on channel=3 note=81 velocity=80 time=0@note_on channel=5 note=57 velocity=80 time=0@note_on channel=6 note=57 velocity=80 time=0@note_on channel=7 note=81 velocity=80 time=0@note_on channel=8 note=40 velocity=80 time=0@note_on channel=8 note=46 velocity=80 time=0@note_on channel=5 note=57 velocity=0 time=0.10625014166666666@note_on channel=6 note=57 velocity=0 time=0@note_on channel=5 note=55 velocity=80 time=0.0008928583333333332@note_on channel=6 note=55 velocity=80 time=0@note_on channel=0 note=63 velocity=0 time=0.10625014166666666@note_on channel=0 note=69 velocity=0 time=0@note_on channel=5 note=55 velocity=0 time=0@note_on channel=6 note=55 velocity=0 time=0@note_on channel=8 note=40 velocity=0 time=0@note_on channel=8 note=46 velocity=0 time=0@note_on channel=0 note=67 velocity=80 time=0.0008928583333333332@note_on channel=5 note=54 velocity=80 time=0@note_on channel=6 note=54 velocity=80 time=0@note_on channel=8 note=44 velocity=80 time=0@note_on channel=0 note=67 velocity=0 time=0.10625014166666666@note_on channel=1 note=69 velocity=0 time=0@note_on channel=2 note=69 velocity=0 time=0@note_on channel=3 note=81 velocity=0 time=0@note_on channel=5 note=54 velocity=0 time=0@note_on channel=6 note=54 velocity=0 time=0@note_on channel=7 note=81 velocity=0 time=0@note_on channel=8 note=44 velocity=0 time=0@note_on channel=0 note=63 velocity=80 time=0.0008928583333333332@note_on channel=0 note=66 velocity=80 time=0@note_on channel=1 note=67 velocity=80 time=0@note_on channel=2 note=67 velocity=80 time=0@note_on channel=3 note=79 velocity=80 time=0@note_on channel=5 note=59 velocity=80 time=0@note_on channel=6 note=59 velocity=80 time=0@note_on channel=7 note=79 velocity=80 time=0@note_on channel=8 note=40 velocity=80 time=0@note_on channel=8 note=43 velocity=80 time=0@note_on channel=5 note=59 velocity=0 time=0.10625014166666666@note_on channel=6 note=59 velocity=0 time=0@note_on channel=5 note=63 velocity=80 time=0.0008928583333333332@note_on channel=6 note=63 velocity=80 time=0@note_on channel=0 note=63 velocity=0 time=0.10625014166666666@note_on channel=0 note=66 velocity=0 time=0@note_on channel=5 note=63 velocity=0 time=0@note_on channel=6 note=63 velocity=0 time=0@note_on channel=8 note=40 velocity=0 time=0@note_on channel=8 note=43 velocity=0 time=0@note_on channel=0 note=67 velocity=80 time=0.0008928583333333332@note_on channel=5 note=59 velocity=80 time=0@note_on channel=6 note=59 velocity=80 time=0@note_on channel=8 note=44 velocity=80 time=0@note_on channel=0 note=67 velocity=0 time=0.10625014166666666@note_on channel=1 note=67 velocity=0 time=0@note_on channel=2 note=67 velocity=0 time=0@note_on channel=3 note=79 velocity=0 time=0@note_on channel=5 note=59 velocity=0 time=0@note_on channel=6 note=59 velocity=0 time=0@note_on channel=7 note=79 velocity=0 time=0@note_on channel=8 note=44 velocity=0 time=0@note_on channel=5 note=52 velocity=80 time=0.0008928583333333332@note_on channel=6 note=52 velocity=80 time=0@note_on channel=5 note=52 velocity=0 time=0.21339314166666665@note_on channel=6 note=52 velocity=0 time=0@note_on channel=1 note=59 velocity=80 time=0.0008928583333333332@note_on channel=2 note=59 velocity=80 time=0@note_on channel=3 note=71 velocity=80 time=0@note_on channel=5 note=52 velocity=80 time=0@note_on channel=6 note=52 velocity=80 time=0@note_on channel=7 note=59 velocity=80 time=0@note_on channel=1 note=59 velocity=0 time=0.10625014166666666@note_on channel=2 note=59 velocity=0 time=0@note_on channel=3 note=71 velocity=0 time=0@note_on channel=5 note=52 velocity=0 time=0@note_on channel=6 note=52 velocity=0 time=0@note_on channel=7 note=59 velocity=0 time=0@note_on channel=0 note=64 velocity=80 time=0.0008928583333333332@note_on channel=1 note=71 velocity=80 time=0@note_on channel=2 note=71 velocity=80 time=0@note_on channel=3 note=83 velocity=80 time=0@note_on channel=5 note=55 velocity=80 time=0@note_on channel=6 note=55 velocity=80 time=0@note_on channel=7 note=71 velocity=80 time=0@note_on channel=8 note=41 velocity=80 time=0@note_on channel=5 note=55 velocity=0 time=0.21339314166666665@note_on channel=6 note=55 velocity=0 time=0@note_on channel=5 note=52 velocity=80 time=0.0008928583333333332@note_on channel=6 note=52 velocity=80 time=0@note_on channel=5 note=52 velocity=0 time=0.10625014166666666@note_on channel=6 note=52 velocity=0 time=0@note_on channel=5 note=57 velocity=80 time=0.0008928583333333332@note_on channel=6 note=57 velocity=80 time=0@note_on channel=5 note=57 velocity=0 time=0.21339314166666665@note_on channel=6 note=57 velocity=0 time=0@note_on channel=5 note=52 velocity=80 time=0.0008928583333333332@note_on channel=6 note=52 velocity=80 time=0@note_on channel=5 note=52 velocity=0 time=0.10625014166666666@note_on channel=6 note=52 velocity=0 time=0@note_on channel=5 note=58 velocity=80 time=0.0008928583333333332@note_on channel=6 note=58 velocity=80 time=0@note_on channel=5 note=58 velocity=0 time=0.21339314166666665@note_on channel=6 note=58 velocity=0 time=0@note_on channel=5 note=52 velocity=80 time=0.0008928583333333332@note_on channel=6 note=52 velocity=80 time=0@note_on channel=0 note=64 velocity=0 time=0.10625014166666666@note_on channel=1 note=71 velocity=0 time=0@note_on channel=2 note=71 velocity=0 time=0@note_on channel=3 note=83 velocity=0 time=0@note_on channel=5 note=52 velocity=0 time=0@note_on channel=6 note=52 velocity=0 time=0@note_on channel=7 note=71 velocity=0 time=0@note_on channel=8 note=41 velocity=0 time=0@note_on channel=5 note=52 velocity=80 time=0.0008928583333333332@note_on channel=6 note=52 velocity=80 time=0@note_on channel=8 note=40 velocity=80 time=0@note_on channel=1 note=71 velocity=80 time=0.10714299999999999@note_on channel=2 note=71 velocity=80 time=0@note_on channel=3 note=83 velocity=80 time=0@note_on channel=7 note=71 velocity=80 time=0@note_on channel=1 note=71 velocity=0 time=0.10625014166666666@note_on channel=2 note=71 velocity=0 time=0@note_on channel=3 note=83 velocity=0 time=0@note_on channel=5 note=52 velocity=0 time=0@note_on channel=6 note=52 velocity=0 time=0@note_on channel=8 note=40 velocity=0 time=0@note_on channel=1 note=71 velocity=80 time=0.0008928583333333332@note_on channel=2 note=71 velocity=80 time=0@note_on channel=3 note=83 velocity=80 time=0@note_on channel=5 note=52 velocity=80 time=0@note_on channel=6 note=52 velocity=80 time=0@note_on channel=8 note=40 velocity=80 time=0@note_on channel=1 note=71 velocity=0 time=0.05267864166666666@note_on channel=2 note=71 velocity=0 time=0@note_on channel=3 note=83 velocity=0 time=0@note_on channel=7 note=71 velocity=0 time=0@note_on channel=1 note=71 velocity=80 time=0.0008928583333333332@note_on channel=2 note=71 velocity=80 time=0@note_on channel=3 note=83 velocity=80 time=0@note_on channel=7 note=71 velocity=80 time=0@note_on channel=1 note=71 velocity=0 time=0.05267864166666666@note_on channel=2 note=71 velocity=0 time=0@note_on channel=3 note=83 velocity=0 time=0@note_on channel=5 note=52 velocity=0 time=0@note_on channel=6 note=52 velocity=0 time=0@note_on channel=8 note=40 velocity=0 time=0@note_on channel=1 note=71 velocity=80 time=0.0008928583333333332@note_on channel=2 note=71 velocity=80 time=0@note_on channel=3 note=83 velocity=80 time=0@note_on channel=5 note=55 velocity=80 time=0@note_on channel=6 note=55 velocity=80 time=0@note_on channel=8 note=43 velocity=80 time=0@note_on channel=1 note=71 velocity=0 time=0.10625014166666666@note_on channel=2 note=71 velocity=0 time=0@note_on channel=3 note=83 velocity=0 time=0@note_on channel=7 note=71 velocity=0 time=0@note_on channel=1 note=71 velocity=80 time=0.0008928583333333332@note_on channel=2 note=71 velocity=80 time=0@note_on channel=3 note=83 velocity=80 time=0@note_on channel=7 note=71 velocity=80 time=0@note_on channel=1 note=71 velocity=0 time=0.10625014166666666@note_on channel=2 note=71 velocity=0 time=0@note_on channel=3 note=83 velocity=0 time=0@note_on channel=5 note=55 velocity=0 time=0@note_on channel=6 note=55 velocity=0 time=0@note_on channel=8 note=43 velocity=0 time=0@note_on channel=1 note=71 velocity=80 time=0.0008928583333333332@note_on channel=2 note=71 velocity=80 time=0@note_on channel=3 note=83 velocity=80 time=0@note_on channel=5 note=52 velocity=80 time=0@note_on channel=6 note=52 velocity=80 time=0@note_on channel=8 note=40 velocity=80 time=0@note_on channel=1 note=71 velocity=0 time=0.05267864166666666@note_on channel=2 note=71 velocity=0 time=0@note_on channel=3 note=83 velocity=0 time=0@note_on channel=7 note=71 velocity=0 time=0@note_on channel=1 note=70 velocity=80 time=0.0008928583333333332@note_on channel=2 note=70 velocity=80 time=0@note_on channel=3 note=82 velocity=80 time=0@note_on channel=7 note=70 velocity=80 time=0@note_on channel=5 note=52 velocity=0 time=0.05267864166666666@note_on channel=6 note=52 velocity=0 time=0@note_on channel=8 note=40 velocity=0 time=0@note_on channel=5 note=57 velocity=80 time=0.0008928583333333332@note_on channel=6 note=57 velocity=80 time=0@note_on channel=8 note=45 velocity=80 time=0@note_on channel=1 note=70 velocity=0 time=0.05267864166666666@note_on channel=2 note=70 velocity=0 time=0@note_on channel=3 note=82 velocity=0 time=0@note_on channel=1 note=71 velocity=80 time=0.0008928583333333332@note_on channel=2 note=71 velocity=80 time=0@note_on channel=3 note=83 velocity=80 time=0@note_on channel=1 note=71 velocity=0 time=0.05267864166666666@note_on channel=2 note=71 velocity=0 time=0@note_on channel=3 note=83 velocity=0 time=0@note_on channel=7 note=70 velocity=0 time=0@note_on channel=1 note=70 velocity=80 time=0.0008928583333333332@note_on channel=2 note=70 velocity=80 time=0@note_on channel=3 note=82 velocity=80 time=0@note_on channel=7 note=70 velocity=80 time=0@note_on channel=5 note=57 velocity=0 time=0.10625014166666666@note_on channel=6 note=57 velocity=0 time=0@note_on channel=8 note=45 velocity=0 time=0@note_on channel=5 note=52 velocity=80 time=0.0008928583333333332@note_on channel=6 note=52 velocity=80 time=0@note_on channel=8 note=40 velocity=80 time=0@note_on channel=1 note=70 velocity=0 time=0.05267864166666666@note_on channel=2 note=70 velocity=0 time=0@note_on channel=3 note=82 velocity=0 time=0@note_on channel=7 note=70 velocity=0 time=0@note_on channel=1 note=69 velocity=80 time=0.0008928583333333332@note_on channel=2 note=69 velocity=80 time=0@note_on channel=3 note=81 velocity=80 time=0@note_on channel=7 note=71 velocity=80 time=0@note_on channel=5 note=52 velocity=0 time=0.05267864166666666@note_on channel=6 note=52 velocity=0 time=0@note_on channel=8 note=40 velocity=0 time=0@note_on channel=5 note=58 velocity=80 time=0.0008928583333333332@note_on channel=6 note=58 velocity=80 time=0@note_on channel=8 note=46 velocity=80 time=0@note_on channel=1 note=69 velocity=0 time=0.10625014166666666@note_on channel=2 note=69 velocity=0 time=0@note_on channel=3 note=81 velocity=0 time=0@note_on channel=7 note=71 velocity=0 time=0@note_on channel=0 note=55 velocity=80 time=0.0008928583333333332@note_on channel=1 note=67 velocity=80 time=0@note_on channel=2 note=67 velocity=80 time=0@note_on channel=3 note=79 velocity=80 time=0@note_on channel=7 note=67 velocity=80 time=0@note_on channel=0 note=55 velocity=0 time=0.10625014166666666@note_on channel=1 note=67 velocity=0 time=0@note_on channel=2 note=67 velocity=0 time=0@note_on channel=3 note=79 velocity=0 time=0@note_on channel=5 note=58 velocity=0 time=0@note_on channel=6 note=58 velocity=0 time=0@note_on channel=7 note=67 velocity=0 time=0@note_on channel=8 note=46 velocity=0 time=0@note_on channel=0 note=57 velocity=80 time=0.0008928583333333332@note_on channel=1 note=69 velocity=80 time=0@note_on channel=2 note=69 velocity=80 time=0@note_on channel=3 note=81 velocity=80 time=0@note_on channel=5 note=52 velocity=80 time=0@note_on channel=6 note=52 velocity=80 time=0@note_on channel=7 note=69 velocity=80 time=0@note_on channel=8 note=40 velocity=80 time=0@note_on channel=0 note=57 velocity=0 time=0.05267864166666666@note_on channel=1 note=69 velocity=0 time=0@note_on channel=2 note=69 velocity=0 time=0@note_on channel=3 note=81 velocity=0 time=0@note_on channel=7 note=69 velocity=0 time=0@note_on channel=0 note=59 velocity=80 time=0.0008928583333333332@note_on channel=1 note=67 velocity=80 time=0@note_on channel=2 note=67 velocity=80 time=0@note_on channel=3 note=79 velocity=80 time=0@note_on channel=7 note=67 velocity=80 time=0@note_on channel=0 note=59 velocity=0 time=0.05267864166666666@note_on channel=1 note=67 velocity=0 time=0@note_on channel=2 note=67 velocity=0 time=0@note_on channel=3 note=79 velocity=0 time=0@note_on channel=5 note=52 velocity=0 time=0@note_on channel=6 note=52 velocity=0 time=0@note_on channel=7 note=67 velocity=0 time=0@note_on channel=8 note=40 velocity=0 time=0@note_on channel=0 note=60 velocity=80 time=0.0008928583333333332@note_on channel=1 note=64 velocity=80 time=0@note_on channel=2 note=64 velocity=80 time=0@note_on channel=3 note=76 velocity=80 time=0@note_on channel=5 note=48 velocity=80 time=0@note_on channel=6 note=48 velocity=80 time=0@note_on channel=7 note=64 velocity=80 time=0@note_on channel=8 note=36 velocity=80 time=0@note_on channel=5 note=48 velocity=0 time=0.21339314166666665@note_on channel=6 note=48 velocity=0 time=0@note_on channel=8 note=36 velocity=0 time=0@note_on channel=5 note=48 velocity=80 time=0.0008928583333333332@note_on channel=6 note=48 velocity=80 time=0@note_on channel=8 note=36 velocity=80 time=0@note_on channel=0 note=60 velocity=0 time=0.10625014166666666@note_on channel=5 note=48 velocity=0 time=0@note_on channel=6 note=48 velocity=0 time=0@note_on channel=7 note=64 velocity=0 time=0@note_on channel=8 note=36 velocity=0 time=0@note_on channel=0 note=64 velocity=80 time=0.0008928583333333332@note_on channel=5 note=52 velocity=80 time=0@note_on channel=6 note=52 velocity=80 time=0@note_on channel=7 note=76 velocity=80 time=0@note_on channel=8 note=40 velocity=80 time=0@note_on channel=5 note=52 velocity=0 time=0.21339314166666665@note_on channel=6 note=52 velocity=0 time=0@note_on channel=8 note=40 velocity=0 time=0@note_on channel=5 note=48 velocity=80 time=0.0008928583333333332@note_on channel=6 note=48 velocity=80 time=0@note_on channel=8 note=36 velocity=80 time=0@note_on channel=0 note=64 velocity=0 time=0.10625014166666666@note_on channel=5 note=48 velocity=0 time=0@note_on channel=6 note=48 velocity=0 time=0@note_on channel=7 note=76 velocity=0 time=0@note_on channel=8 note=36 velocity=0 time=0@note_on channel=0 note=67 velocity=80 time=0.0008928583333333332@note_on channel=5 note=55 velocity=80 time=0@note_on channel=6 note=55 velocity=80 time=0@note_on channel=7 note=79 velocity=80 time=0@note_on channel=8 note=43 velocity=80 time=0@note_on channel=5 note=55 velocity=0 time=0.21339314166666665@note_on channel=6 note=55 velocity=0 time=0@note_on channel=8 note=43 velocity=0 time=0@note_on channel=5 note=48 velocity=80 time=0.0008928583333333332@note_on channel=6 note=48 velocity=80 time=0@note_on channel=8 note=36 velocity=80 time=0@note_on channel=0 note=67 velocity=0 time=0.10625014166666666@note_on channel=5 note=48 velocity=0 time=0@note_on channel=6 note=48 velocity=0 time=0@note_on channel=8 note=36 velocity=0 time=0@note_on channel=0 note=70 velocity=80 time=0.0008928583333333332@note_on channel=5 note=52 velocity=80 time=0@note_on channel=6 note=52 velocity=80 time=0@note_on channel=8 note=40 velocity=80 time=0@note_on channel=0 note=70 velocity=0 time=0.10625014166666666@note_on channel=1 note=64 velocity=0 time=0@note_on channel=2 note=64 velocity=0 time=0@note_on channel=3 note=76 velocity=0 time=0@note_on channel=7 note=79 velocity=0 time=0@note_on channel=0 note=64 velocity=80 time=0.0008928583333333332@note_on channel=1 note=64 velocity=80 time=0@note_on channel=2 note=64 velocity=80 time=0@note_on channel=3 note=76 velocity=80 time=0@note_on channel=7 note=76 velocity=80 time=0@note_on channel=0 note=64 velocity=0 time=0.10625014166666666@note_on channel=1 note=64 velocity=0 time=0@note_on channel=2 note=64 velocity=0 time=0@note_on channel=3 note=76 velocity=0 time=0@note_on channel=5 note=52 velocity=0 time=0@note_on channel=6 note=52 velocity=0 time=0@note_on channel=7 note=76 velocity=0 time=0@note_on channel=8 note=40 velocity=0 time=0@note_on channel=0 note=69 velocity=80 time=0.0008928583333333332@note_on channel=1 note=67 velocity=80 time=0@note_on channel=2 note=67 velocity=80 time=0@note_on channel=3 note=79 velocity=80 time=0@note_on channel=5 note=48 velocity=80 time=0@note_on channel=6 note=48 velocity=80 time=0@note_on channel=7 note=79 velocity=80 time=0@note_on channel=8 note=36 velocity=80 time=0@note_on channel=0 note=69 velocity=0 time=0.10625014166666666@note_on channel=1 note=67 velocity=0 time=0@note_on channel=2 note=67 velocity=0 time=0@note_on channel=3 note=79 velocity=0 time=0@note_on channel=5 note=48 velocity=0 time=0@note_on channel=6 note=48 velocity=0 time=0@note_on channel=7 note=79 velocity=0 time=0@note_on channel=8 note=36 velocity=0 time=0@note_on channel=0 note=64 velocity=80 time=0.0008928583333333332@note_on channel=1 note=70 velocity=80 time=0@note_on channel=2 note=70 velocity=80 time=0@note_on channel=3 note=82 velocity=80 time=0@note_on channel=5 note=48 velocity=80 time=0@note_on channel=6 note=48 velocity=80 time=0@note_on channel=7 note=82 velocity=80 time=0@note_on channel=8 note=36 velocity=80 time=0@note_on channel=0 note=64 velocity=0 time=0.21339314166666665@note_on channel=1 note=70 velocity=0 time=0@note_on channel=2 note=70 velocity=0 time=0@note_on channel=3 note=82 velocity=0 time=0@note_on channel=5 note=48 velocity=0 time=0@note_on channel=6 note=48 velocity=0 time=0@note_on channel=7 note=82 velocity=0 time=0@note_on channel=8 note=36 velocity=0 time=0@note_on channel=0 note=64 velocity=80 time=0.0008928583333333332@note_on channel=1 note=70 velocity=80 time=0@note_on channel=2 note=70 velocity=80 time=0@note_on channel=3 note=82 velocity=80 time=0@note_on channel=5 note=48 velocity=80 time=0@note_on channel=6 note=48 velocity=80 time=0@note_on channel=7 note=81 velocity=80 time=0@note_on channel=8 note=36 velocity=80 time=0@note_on channel=5 note=48 velocity=0 time=0.10625014166666666@note_on channel=6 note=48 velocity=0 time=0@note_on channel=8 note=36 velocity=0 time=0@note_on channel=5 note=52 velocity=80 time=0.0008928583333333332@note_on channel=6 note=52 velocity=80 time=0@note_on channel=8 note=40 velocity=80 time=0@note_on channel=0 note=64 velocity=0 time=0.10625014166666666@note_on channel=1 note=70 velocity=0 time=0@note_on channel=2 note=70 velocity=0 time=0@note_on channel=3 note=82 velocity=0 time=0@note_on channel=7 note=81 velocity=0 time=0@note_on channel=0 note=64 velocity=80 time=0.0008928583333333332@note_on channel=1 note=70 velocity=80 time=0@note_on channel=2 note=70 velocity=80 time=0@note_on channel=3 note=82 velocity=80 time=0@note_on channel=7 note=81 velocity=80 time=0@note_on channel=5 note=52 velocity=0 time=0.10625014166666666@note_on channel=6 note=52 velocity=0 time=0@note_on channel=8 note=40 velocity=0 time=0@note_on channel=5 note=48 velocity=80 time=0.0008928583333333332@note_on channel=6 note=48 velocity=80 time=0@note_on channel=8 note=36 velocity=80 time=0@note_on channel=0 note=64 velocity=0 time=0.10625014166666666@note_on channel=1 note=70 velocity=0 time=0@note_on channel=2 note=70 velocity=0 time=0@note_on channel=3 note=82 velocity=0 time=0@note_on channel=5 note=48 velocity=0 time=0@note_on channel=6 note=48 velocity=0 time=0@note_on channel=7 note=81 velocity=0 time=0@note_on channel=8 note=36 velocity=0 time=0@note_on channel=0 note=64 velocity=80 time=0.0008928583333333332@note_on channel=1 note=70 velocity=80 time=0@note_on channel=2 note=70 velocity=80 time=0@note_on channel=3 note=82 velocity=80 time=0@note_on channel=5 note=55 velocity=80 time=0@note_on channel=6 note=55 velocity=80 time=0@note_on channel=7 note=82 velocity=80 time=0@note_on channel=8 note=43 velocity=80 time=0@note_on channel=0 note=64 velocity=0 time=0.21339314166666665@note_on channel=1 note=70 velocity=0 time=0@note_on channel=2 note=70 velocity=0 time=0@note_on channel=3 note=82 velocity=0 time=0@note_on channel=5 note=55 velocity=0 time=0@note_on channel=6 note=55 velocity=0 time=0@note_on channel=7 note=82 velocity=0 time=0@note_on channel=8 note=43 velocity=0 time=0@note_on channel=0 note=62 velocity=80 time=0.0008928583333333332@note_on channel=1 note=69 velocity=80 time=0@note_on channel=2 note=69 velocity=80 time=0@note_on channel=3 note=81 velocity=80 time=0@note_on channel=5 note=48 velocity=80 time=0@note_on channel=6 note=48 velocity=80 time=0@note_on channel=7 note=81 velocity=80 time=0@note_on channel=8 note=36 velocity=80 time=0@note_on channel=5 note=48 velocity=0 time=0.10625014166666666@note_on channel=6 note=48 velocity=0 time=0@note_on channel=8 note=36 velocity=0 time=0@note_on channel=5 note=60 velocity=80 time=0.0008928583333333332@note_on channel=6 note=60 velocity=80 time=0@note_on channel=8 note=48 velocity=80 time=0@note_on channel=0 note=62 velocity=0 time=0.10625014166666666@note_on channel=1 note=69 velocity=0 time=0@note_on channel=2 note=69 velocity=0 time=0@note_on channel=3 note=81 velocity=0 time=0@note_on channel=7 note=81 velocity=0 time=0@note_on channel=0 note=60 velocity=80 time=0.0008928583333333332@note_on channel=1 note=67 velocity=80 time=0@note_on channel=2 note=67 velocity=80 time=0@note_on channel=3 note=79 velocity=80 time=0@note_on channel=7 note=79 velocity=80 time=0@note_on channel=1 note=67 velocity=0 time=0.10625014166666666@note_on channel=2 note=67 velocity=0 time=0@note_on channel=3 note=79 velocity=0 time=0@note_on channel=5 note=60 velocity=0 time=0@note_on channel=6 note=60 velocity=0 time=0@note_on channel=7 note=79 velocity=0 time=0@note_on channel=8 note=48 velocity=0 time=0@note_on channel=1 note=62 velocity=80 time=0.0008928583333333332@note_on channel=2 note=62 velocity=80 time=0@note_on channel=3 note=74 velocity=80 time=0@note_on channel=5 note=48 velocity=80 time=0@note_on channel=6 note=48 velocity=80 time=0@note_on channel=7 note=74 velocity=80 time=0@note_on channel=8 note=36 velocity=80 time=0@note_on channel=0 note=60 velocity=0 time=0.10625014166666666@note_on channel=1 note=62 velocity=0 time=0@note_on channel=2 note=62 velocity=0 time=0@note_on channel=3 note=74 velocity=0 time=0@note_on channel=5 note=48 velocity=0 time=0@note_on channel=6 note=48 velocity=0 time=0@note_on channel=7 note=74 velocity=0 time=0@note_on channel=8 note=36 velocity=0 time=0@note_on channel=0 note=62 velocity=80 time=0.0008928583333333332@note_on channel=1 note=69 velocity=80 time=0@note_on channel=2 note=69 velocity=80 time=0@note_on channel=3 note=81 velocity=80 time=0@note_on channel=5 note=50 velocity=80 time=0@note_on channel=6 note=50 velocity=80 time=0@note_on channel=7 note=81 velocity=80 time=0@note_on channel=8 note=38 velocity=80 time=0@note_on channel=5 note=50 velocity=0 time=0.21339314166666665@note_on channel=6 note=50 velocity=0 time=0@note_on channel=8 note=38 velocity=0 time=0@note_on channel=5 note=50 velocity=80 time=0.0008928583333333332@note_on channel=6 note=50 velocity=80 time=0@note_on channel=8 note=38 velocity=80 time=0@note_on channel=5 note=50 velocity=0 time=0.10625014166666666@note_on channel=6 note=50 velocity=0 time=0@note_on channel=8 note=38 velocity=0 time=0@note_on channel=5 note=54 velocity=80 time=0.0008928583333333332@note_on channel=6 note=54 velocity=80 time=0@note_on channel=8 note=42 velocity=80 time=0@note_on channel=5 note=54 velocity=0 time=0.21339314166666665@note_on channel=6 note=54 velocity=0 time=0@note_on channel=8 note=42 velocity=0 time=0@note_on channel=5 note=50 velocity=80 time=0.0008928583333333332@note_on channel=6 note=50 velocity=80 time=0@note_on channel=8 note=38 velocity=80 time=0@note_on channel=5 note=50 velocity=0 time=0.10625014166666666@note_on channel=6 note=50 velocity=0 time=0@note_on channel=8 note=38 velocity=0 time=0@note_on channel=5 note=55 velocity=80 time=0.0008928583333333332@note_on channel=6 note=55 velocity=80 time=0@note_on channel=8 note=43 velocity=80 time=0@note_on channel=5 note=55 velocity=0 time=0.21339314166666665@note_on channel=6 note=55 velocity=0 time=0@note_on channel=8 note=43 velocity=0 time=0@note_on channel=5 note=50 velocity=80 time=0.0008928583333333332@note_on channel=6 note=50 velocity=80 time=0@note_on channel=8 note=38 velocity=80 time=0@note_on channel=0 note=62 velocity=0 time=0.10625014166666666@note_on channel=1 note=69 velocity=0 time=0@note_on channel=2 note=69 velocity=0 time=0@note_on channel=3 note=81 velocity=0 time=0@note_on channel=5 note=50 velocity=0 time=0@note_on channel=6 note=50 velocity=0 time=0@note_on channel=7 note=81 velocity=0 time=0@note_on channel=8 note=38 velocity=0 time=0@note_on channel=0 note=57 velocity=80 time=0.0008928583333333332@note_on channel=1 note=67 velocity=80 time=0@note_on channel=2 note=67 velocity=80 time=0@note_on channel=3 note=79 velocity=80 time=0@note_on channel=5 note=57 velocity=80 time=0@note_on channel=6 note=57 velocity=80 time=0@note_on channel=7 note=79 velocity=80 time=0@note_on channel=8 note=45 velocity=80 time=0@note_on channel=0 note=57 velocity=0 time=0.10625014166666666@note_on channel=1 note=67 velocity=0 time=0@note_on channel=2 note=67 velocity=0 time=0@note_on channel=3 note=79 velocity=0 time=0@note_on channel=7 note=79 velocity=0 time=0@note_on channel=0 note=62 velocity=80 time=0.0008928583333333332@note_on channel=1 note=69 velocity=80 time=0@note_on channel=2 note=69 velocity=80 time=0@note_on channel=3 note=81 velocity=80 time=0@note_on channel=7 note=81 velocity=80 time=0@note_on channel=0 note=62 velocity=0 time=0.10625014166666666@note_on channel=1 note=69 velocity=0 time=0@note_on channel=2 note=69 velocity=0 time=0@note_on channel=3 note=81 velocity=0 time=0@note_on channel=5 note=57 velocity=0 time=0@note_on channel=6 note=57 velocity=0 time=0@note_on channel=7 note=81 velocity=0 time=0@note_on channel=8 note=45 velocity=0 time=0@note_on channel=0 note=67 velocity=80 time=0.0008928583333333332@note_on channel=1 note=67 velocity=80 time=0@note_on channel=2 note=67 velocity=80 time=0@note_on channel=3 note=79 velocity=80 time=0@note_on channel=5 note=50 velocity=80 time=0@note_on channel=6 note=50 velocity=80 time=0@note_on channel=7 note=79 velocity=80 time=0@note_on channel=8 note=38 velocity=80 time=0@note_on channel=0 note=67 velocity=0 time=0.10625014166666666@note_on channel=1 note=67 velocity=0 time=0@note_on channel=2 note=67 velocity=0 time=0@note_on channel=3 note=79 velocity=0 time=0@note_on channel=5 note=50 velocity=0 time=0@note_on channel=6 note=50 velocity=0 time=0@note_on channel=7 note=79 velocity=0 time=0@note_on channel=8 note=38 velocity=0 time=0@note_on channel=0 note=69 velocity=80 time=0.0008928583333333332@note_on channel=1 note=66 velocity=80 time=0@note_on channel=2 note=66 velocity=80 time=0@note_on channel=3 note=78 velocity=80 time=0@note_on channel=5 note=50 velocity=80 time=0@note_on channel=6 note=50 velocity=80 time=0@note_on channel=7 note=78 velocity=80 time=0@note_on channel=8 note=38 velocity=80 time=0@note_on channel=1 note=66 velocity=0 time=0.10625014166666666@note_on channel=2 note=66 velocity=0 time=0@note_on channel=3 note=78 velocity=0 time=0@note_on channel=1 note=62 velocity=80 time=0.0008928583333333332@note_on channel=2 note=62 velocity=80 time=0@note_on channel=3 note=74 velocity=80 time=0@note_on channel=0 note=69 velocity=0 time=0.10625014166666666@note_on channel=1 note=62 velocity=0 time=0@note_on channel=2 note=62 velocity=0 time=0@note_on channel=3 note=74 velocity=0 time=0@note_on channel=5 note=50 velocity=0 time=0@note_on channel=6 note=50 velocity=0 time=0@note_on channel=7 note=78 velocity=0 time=0@note_on channel=8 note=38 velocity=0 time=0@note_on channel=0 note=66 velocity=80 time=0.0008928583333333332@note_on channel=1 note=66 velocity=80 time=0@note_on channel=2 note=66 velocity=80 time=0@note_on channel=3 note=78 velocity=80 time=0@note_on channel=5 note=50 velocity=80 time=0@note_on channel=6 note=50 velocity=80 time=0@note_on channel=7 note=79 velocity=80 time=0@note_on channel=8 note=38 velocity=80 time=0@note_on channel=1 note=66 velocity=0 time=0.10625014166666666@note_on channel=2 note=66 velocity=0 time=0@note_on channel=3 note=78 velocity=0 time=0@note_on channel=5 note=50 velocity=0 time=0@note_on channel=6 note=50 velocity=0 time=0@note_on channel=8 note=38 velocity=0 time=0@note_on channel=1 note=62 velocity=80 time=0.0008928583333333332@note_on channel=2 note=62 velocity=80 time=0@note_on channel=3 note=74 velocity=80 time=0@note_on channel=5 note=54 velocity=80 time=0@note_on channel=6 note=54 velocity=80 time=0@note_on channel=8 note=42 velocity=80 time=0@note_on channel=0 note=66 velocity=0 time=0.10625014166666666@note_on channel=1 note=62 velocity=0 time=0@note_on channel=2 note=62 velocity=0 time=0@note_on channel=3 note=74 velocity=0 time=0@note_on channel=7 note=79 velocity=0 time=0@note_on channel=0 note=62 velocity=80 time=0.0008928583333333332@note_on channel=1 note=69 velocity=80 time=0@note_on channel=2 note=69 velocity=80 time=0@note_on channel=3 note=81 velocity=80 time=0@note_on channel=7 note=81 velocity=80 time=0@note_on channel=1 note=69 velocity=0 time=0.10625014166666666@note_on channel=2 note=69 velocity=0 time=0@note_on channel=3 note=81 velocity=0 time=0@note_on channel=5 note=54 velocity=0 time=0@note_on channel=6 note=54 velocity=0 time=0@note_on channel=8 note=42 velocity=0 time=0@note_on channel=1 note=62 velocity=80 time=0.0008928583333333332@note_on channel=2 note=62 velocity=80 time=0@note_on channel=3 note=74 velocity=80 time=0@note_on channel=5 note=50 velocity=80 time=0@note_on channel=6 note=50 velocity=80 time=0@note_on channel=8 note=38 velocity=80 time=0@note_on channel=0 note=62 velocity=0 time=0.10625014166666666@note_on channel=1 note=62 velocity=0 time=0@note_on channel=2 note=62 velocity=0 time=0@note_on channel=3 note=74 velocity=0 time=0@note_on channel=5 note=50 velocity=0 time=0@note_on channel=6 note=50 velocity=0 time=0@note_on channel=7 note=81 velocity=0 time=0@note_on channel=8 note=38 velocity=0 time=0@note_on channel=0 note=72 velocity=80 time=0.0008928583333333332@note_on channel=1 note=72 velocity=80 time=0@note_on channel=2 note=72 velocity=80 time=0@note_on channel=3 note=84 velocity=80 time=0@note_on channel=5 note=55 velocity=80 time=0@note_on channel=6 note=55 velocity=80 time=0@note_on channel=7 note=84 velocity=80 time=0@note_on channel=8 note=43 velocity=80 time=0@note_on channel=1 note=72 velocity=0 time=0.10625014166666666@note_on channel=2 note=72 velocity=0 time=0@note_on channel=3 note=84 velocity=0 time=0@note_on channel=1 note=62 velocity=80 time=0.0008928583333333332@note_on channel=2 note=62 velocity=80 time=0@note_on channel=3 note=74 velocity=80 time=0@note_on channel=0 note=72 velocity=0 time=0.10625014166666666@note_on channel=1 note=62 velocity=0 time=0@note_on channel=2 note=62 velocity=0 time=0@note_on channel=3 note=74 velocity=0 time=0@note_on channel=5 note=55 velocity=0 time=0@note_on channel=6 note=55 velocity=0 time=0@note_on channel=7 note=84 velocity=0 time=0@note_on channel=8 note=43 velocity=0 time=0@note_on channel=0 note=69 velocity=80 time=0.0008928583333333332@note_on channel=1 note=70 velocity=80 time=0@note_on channel=2 note=70 velocity=80 time=0@note_on channel=3 note=82 velocity=80 time=0@note_on channel=5 note=50 velocity=80 time=0@note_on channel=6 note=50 velocity=80 time=0@note_on channel=7 note=82 velocity=80 time=0@note_on channel=8 note=38 velocity=80 time=0@note_on channel=1 note=70 velocity=0 time=0.10625014166666666@note_on channel=2 note=70 velocity=0 time=0@note_on channel=3 note=82 velocity=0 time=0@note_on channel=5 note=50 velocity=0 time=0@note_on channel=6 note=50 velocity=0 time=0@note_on channel=8 note=38 velocity=0 time=0@note_on channel=1 note=62 velocity=80 time=0.0008928583333333332@note_on channel=2 note=62 velocity=80 time=0@note_on channel=3 note=74 velocity=80 time=0@note_on channel=5 note=57 velocity=80 time=0@note_on channel=6 note=57 velocity=80 time=0@note_on channel=8 note=45 velocity=80 time=0@note_on channel=0 note=69 velocity=0 time=0.10625014166666666@note_on channel=1 note=62 velocity=0 time=0@note_on channel=2 note=62 velocity=0 time=0@note_on channel=3 note=74 velocity=0 time=0@note_on channel=7 note=82 velocity=0 time=0@note_on channel=0 note=62 velocity=80 time=0.0008928583333333332@note_on channel=1 note=69 velocity=80 time=0@note_on channel=2 note=69 velocity=80 time=0@note_on channel=3 note=81 velocity=80 time=0@note_on channel=7 note=81 velocity=80 time=0@note_on channel=1 note=69 velocity=0 time=0.10625014166666666@note_on channel=2 note=69 velocity=0 time=0@note_on channel=3 note=81 velocity=0 time=0@note_on channel=5 note=57 velocity=0 time=0@note_on channel=6 note=57 velocity=0 time=0@note_on channel=8 note=45 velocity=0 time=0@note_on channel=1 note=62 velocity=80 time=0.0008928583333333332@note_on channel=2 note=62 velocity=80 time=0@note_on channel=3 note=74 velocity=80 time=0@note_on channel=5 note=50 velocity=80 time=0@note_on channel=6 note=50 velocity=80 time=0@note_on channel=8 note=38 velocity=80 time=0@note_on channel=0 note=62 velocity=0 time=0.10625014166666666@note_on channel=1 note=62 velocity=0 time=0@note_on channel=2 note=62 velocity=0 time=0@note_on channel=3 note=74 velocity=0 time=0@note_on channel=5 note=50 velocity=0 time=0@note_on channel=6 note=50 velocity=0 time=0@note_on channel=7 note=81 velocity=0 time=0@note_on channel=8 note=38 velocity=0 time=0@note_on channel=0 note=58 velocity=80 time=0.0008928583333333332@note_on channel=1 note=67 velocity=80 time=0@note_on channel=2 note=67 velocity=80 time=0@note_on channel=3 note=79 velocity=80 time=0@note_on channel=5 note=55 velocity=80 time=0@note_on channel=6 note=55 velocity=80 time=0@note_on channel=7 note=79 velocity=80 time=0@note_on channel=8 note=43 velocity=80 time=0@note_on channel=1 note=67 velocity=0 time=0.21339314166666665@note_on channel=2 note=67 velocity=0 time=0@note_on channel=3 note=79 velocity=0 time=0@note_on channel=7 note=79 velocity=0 time=0@note_on channel=1 note=58 velocity=80 time=0.0008928583333333332@note_on channel=2 note=58 velocity=80 time=0@note_on channel=3 note=70 velocity=80 time=0@note_on channel=7 note=67 velocity=80 time=0@note_on channel=0 note=58 velocity=0 time=0.10625014166666666@note_on channel=1 note=58 velocity=0 time=0@note_on channel=2 note=58 velocity=0 time=0@note_on channel=3 note=70 velocity=0 time=0@note_on channel=5 note=55 velocity=0 time=0@note_on channel=6 note=55 velocity=0 time=0@note_on channel=7 note=67 velocity=0 time=0@note_on channel=8 note=43 velocity=0 time=0@note_on channel=0 note=55 velocity=80 time=0.0008928583333333332@note_on channel=1 note=62 velocity=80 time=0@note_on channel=2 note=62 velocity=80 time=0@note_on channel=3 note=74 velocity=80 time=0@note_on channel=5 note=50 velocity=80 time=0@note_on channel=6 note=50 velocity=80 time=0@note_on channel=7 note=74 velocity=80 time=0@note_on channel=8 note=38 velocity=80 time=0@note_on channel=1 note=62 velocity=0 time=0.21339314166666665@note_on channel=2 note=62 velocity=0 time=0@note_on channel=3 note=74 velocity=0 time=0@note_on channel=1 note=58 velocity=80 time=0.0008928583333333332@note_on channel=2 note=58 velocity=80 time=0@note_on channel=3 note=70 velocity=80 time=0@note_on channel=0 note=55 velocity=0 time=0.10625014166666666@note_on channel=1 note=58 velocity=0 time=0@note_on channel=2 note=58 velocity=0 time=0@note_on channel=3 note=70 velocity=0 time=0@note_on channel=5 note=50 velocity=0 time=0@note_on channel=6 note=50 velocity=0 time=0@note_on channel=7 note=74 velocity=0 time=0@note_on channel=8 note=38 velocity=0 time=0@note_on channel=0 note=62 velocity=80 time=0.0008928583333333332@note_on channel=1 note=65 velocity=80 time=0@note_on channel=2 note=65 velocity=80 time=0@note_on channel=3 note=77 velocity=80 time=0@note_on channel=5 note=55 velocity=80 time=0@note_on channel=6 note=55 velocity=80 time=0@note_on channel=7 note=77 velocity=80 time=0@note_on channel=8 note=43 velocity=80 time=0@note_on channel=1 note=65 velocity=0 time=0.21339314166666665@note_on channel=2 note=65 velocity=0 time=0@note_on channel=3 note=77 velocity=0 time=0@note_on channel=5 note=55 velocity=0 time=0@note_on channel=6 note=55 velocity=0 time=0@note_on channel=7 note=77 velocity=0 time=0@note_on channel=8 note=43 velocity=0 time=0@note_on channel=1 note=58 velocity=80 time=0.0008928583333333332@note_on channel=2 note=58 velocity=80 time=0@note_on channel=3 note=70 velocity=80 time=0@note_on channel=5 note=60 velocity=80 time=0@note_on channel=6 note=60 velocity=80 time=0@note_on channel=7 note=70 velocity=80 time=0@note_on channel=8 note=48 velocity=80 time=0@note_on channel=0 note=62 velocity=0 time=0.10625014166666666@note_on channel=1 note=58 velocity=0 time=0@note_on channel=2 note=58 velocity=0 time=0@note_on channel=3 note=70 velocity=0 time=0@note_on channel=5 note=60 velocity=0 time=0@note_on channel=6 note=60 velocity=0 time=0@note_on channel=7 note=70 velocity=0 time=0@note_on channel=8 note=48 velocity=0 time=0@note_on channel=0 note=58 velocity=80 time=0.0008928583333333332@note_on channel=1 note=62 velocity=80 time=0@note_on channel=2 note=62 velocity=80 time=0@note_on channel=3 note=74 velocity=80 time=0@note_on channel=5 note=58 velocity=80 time=0@note_on channel=6 note=58 velocity=80 time=0@note_on channel=7 note=74 velocity=80 time=0@note_on channel=8 note=46 velocity=80 time=0@note_on channel=0 note=58 velocity=0 time=0.3205361416666666@note_on channel=1 note=62 velocity=0 time=0@note_on channel=2 note=62 velocity=0 time=0@note_on channel=3 note=74 velocity=0 time=0@note_on channel=5 note=58 velocity=0 time=0@note_on channel=6 note=58 velocity=0 time=0@note_on channel=7 note=74 velocity=0 time=0@note_on channel=8 note=46 velocity=0 time=0@note_on channel=0 note=60 velocity=80 time=0.0008928583333333332@note_on channel=1 note=63 velocity=80 time=0@note_on channel=2 note=63 velocity=80 time=0@note_on channel=3 note=75 velocity=80 time=0@note_on channel=5 note=47 velocity=80 time=0@note_on channel=6 note=47 velocity=80 time=0@note_on channel=7 note=75 velocity=80 time=0@note_on channel=8 note=35 velocity=80 time=0@note_on channel=1 note=63 velocity=0 time=0.21339314166666665@note_on channel=2 note=63 velocity=0 time=0@note_on channel=3 note=75 velocity=0 time=0@note_on channel=5 note=47 velocity=0 time=0@note_on channel=6 note=47 velocity=0 time=0@note_on channel=8 note=35 velocity=0 time=0@note_on channel=1 note=54 velocity=80 time=0.0008928583333333332@note_on channel=2 note=54 velocity=80 time=0@note_on channel=3 note=66 velocity=80 time=0@note_on channel=5 note=54 velocity=80 time=0@note_on channel=6 note=54 velocity=80 time=0@note_on channel=8 note=42 velocity=80 time=0@note_on channel=0 note=60 velocity=0 time=0.10625014166666666@note_on channel=1 note=54 velocity=0 time=0@note_on channel=2 note=54 velocity=0 time=0@note_on channel=3 note=66 velocity=0 time=0@note_on channel=5 note=54 velocity=0 time=0@note_on channel=6 note=54 velocity=0 time=0@note_on channel=7 note=75 velocity=0 time=0@note_on channel=8 note=42 velocity=0 time=0@note_on channel=0 note=66 velocity=80 time=0.0008928583333333332@note_on channel=1 note=59 velocity=80 time=0@note_on channel=2 note=59 velocity=80 time=0@note_on channel=3 note=71 velocity=80 time=0@note_on channel=5 note=59 velocity=80 time=0@note_on channel=6 note=59 velocity=80 time=0@note_on channel=7 note=71 velocity=80 time=0@note_on channel=8 note=47 velocity=80 time=0@note_on channel=1 note=59 velocity=0 time=0.21339314166666665@note_on channel=2 note=59 velocity=0 time=0@note_on channel=3 note=71 velocity=0 time=0@note_on channel=1 note=54 velocity=80 time=0.0008928583333333332@note_on channel=2 note=54 velocity=80 time=0@note_on channel=3 note=66 velocity=80 time=0@note_on channel=0 note=66 velocity=0 time=0.10625014166666666@note_on channel=1 note=54 velocity=0 time=0@note_on channel=2 note=54 velocity=0 time=0@note_on channel=3 note=66 velocity=0 time=0@note_on channel=5 note=59 velocity=0 time=0@note_on channel=6 note=59 velocity=0 time=0@note_on channel=7 note=71 velocity=0 time=0@note_on channel=8 note=47 velocity=0 time=0@note_on channel=0 note=69 velocity=80 time=0.0008928583333333332@note_on channel=1 note=64 velocity=80 time=0@note_on channel=2 note=64 velocity=80 time=0@note_on channel=3 note=76 velocity=80 time=0@note_on channel=5 note=60 velocity=80 time=0@note_on channel=6 note=60 velocity=80 time=0@note_on channel=7 note=69 velocity=80 time=0@note_on channel=8 note=48 velocity=80 time=0@note_on channel=1 note=64 velocity=0 time=0.21339314166666665@note_on channel=2 note=64 velocity=0 time=0@note_on channel=3 note=76 velocity=0 time=0@note_on channel=1 note=54 velocity=80 time=0.0008928583333333332@note_on channel=2 note=54 velocity=80 time=0@note_on channel=3 note=66 velocity=80 time=0@note_on channel=0 note=69 velocity=0 time=0.10625014166666666@note_on channel=1 note=54 velocity=0 time=0@note_on channel=2 note=54 velocity=0 time=0@note_on channel=3 note=66 velocity=0 time=0@note_on channel=5 note=60 velocity=0 time=0@note_on channel=6 note=60 velocity=0 time=0@note_on channel=7 note=69 velocity=0 time=0@note_on channel=8 note=48 velocity=0 time=0@note_on channel=0 note=71 velocity=80 time=0.0008928583333333332@note_on channel=1 note=63 velocity=80 time=0@note_on channel=2 note=63 velocity=80 time=0@note_on channel=3 note=75 velocity=80 time=0@note_on channel=5 note=59 velocity=80 time=0@note_on channel=6 note=59 velocity=80 time=0@note_on channel=7 note=71 velocity=80 time=0@note_on channel=8 note=47 velocity=80 time=0@note_on channel=0 note=71 velocity=0 time=0.3205361416666666@note_on channel=1 note=63 velocity=0 time=0@note_on channel=2 note=63 velocity=0 time=0@note_on channel=3 note=75 velocity=0 time=0@note_on channel=5 note=59 velocity=0 time=0@note_on channel=6 note=59 velocity=0 time=0@note_on channel=7 note=71 velocity=0 time=0@note_on channel=8 note=47 velocity=0 time=0@note_on channel=0 note=72 velocity=80 time=0.0008928583333333332@note_on channel=2 note=57 velocity=80 time=0@note_on channel=3 note=69 velocity=80 time=0@note_on channel=5 note=48 velocity=80 time=0@note_on channel=6 note=48 velocity=80 time=0@note_on channel=7 note=69 velocity=80 time=0@note_on channel=0 note=72 velocity=0 time=0.21339314166666665@note_on channel=2 note=57 velocity=0 time=0@note_on channel=3 note=69 velocity=0 time=0@note_on channel=7 note=69 velocity=0 time=0@note_on channel=0 note=60 velocity=80 time=0.0008928583333333332@note_on channel=2 note=52 velocity=80 time=0@note_on channel=3 note=64 velocity=80 time=0@note_on channel=7 note=64 velocity=80 time=0@note_on channel=0 note=60 velocity=0 time=0.10625014166666666@note_on channel=2 note=52 velocity=0 time=0@note_on channel=3 note=64 velocity=0 time=0@note_on channel=5 note=48 velocity=0 time=0@note_on channel=6 note=48 velocity=0 time=0@note_on channel=7 note=64 velocity=0 time=0@note_on channel=0 note=67 velocity=80 time=0.0008928583333333332@note_on channel=1 note=64 velocity=80 time=0@note_on channel=1 note=67 velocity=80 time=0@note_on channel=2 note=55 velocity=80 time=0@note_on channel=3 note=67 velocity=80 time=0@note_on channel=5 note=52 velocity=80 time=0@note_on channel=6 note=52 velocity=80 time=0@note_on channel=7 note=67 velocity=80 time=0@note_on channel=8 note=40 velocity=80 time=0@note_on channel=8 note=43 velocity=80 time=0@note_on channel=1 note=64 velocity=0 time=0.10625014166666666@note_on channel=1 note=67 velocity=0 time=0@note_on channel=8 note=40 velocity=0 time=0@note_on channel=8 note=43 velocity=0 time=0@note_on channel=0 note=67 velocity=0 time=0.10714299999999999@note_on channel=0 note=60 velocity=80 time=0.0008928583333333332@note_on channel=0 note=60 velocity=0 time=0.10625014166666666@note_on channel=2 note=55 velocity=0 time=0@note_on channel=3 note=67 velocity=0 time=0@note_on channel=5 note=52 velocity=0 time=0@note_on channel=6 note=52 velocity=0 time=0@note_on channel=7 note=67 velocity=0 time=0@note_on channel=0 note=67 velocity=80 time=0.0008928583333333332@note_on channel=2 note=57 velocity=80 time=0@note_on channel=3 note=69 velocity=80 time=0@note_on channel=5 note=55 velocity=80 time=0@note_on channel=6 note=55 velocity=80 time=0@note_on channel=7 note=69 velocity=80 time=0@note_on channel=0 note=67 velocity=0 time=0.21339314166666665@note_on channel=2 note=57 velocity=0 time=0@note_on channel=3 note=69 velocity=0 time=0@note_on channel=7 note=69 velocity=0 time=0@note_on channel=0 note=60 velocity=80 time=0.0008928583333333332@note_on channel=2 note=55 velocity=80 time=0@note_on channel=3 note=67 velocity=80 time=0@note_on channel=7 note=67 velocity=80 time=0@note_on channel=0 note=60 velocity=0 time=0.10625014166666666@note_on channel=5 note=55 velocity=0 time=0@note_on channel=6 note=55 velocity=0 time=0@note_on channel=0 note=67 velocity=80 time=0.0008928583333333332@note_on channel=1 note=64 velocity=80 time=0@note_on channel=1 note=67 velocity=80 time=0@note_on channel=5 note=60 velocity=80 time=0@note_on channel=6 note=60 velocity=80 time=0@note_on channel=8 note=40 velocity=80 time=0@note_on channel=8 note=43 velocity=80 time=0@note_on channel=1 note=64 velocity=0 time=0.10625014166666666@note_on channel=1 note=67 velocity=0 time=0@note_on channel=8 note=40 velocity=0 time=0@note_on channel=8 note=43 velocity=0 time=0@note_on channel=5 note=60 velocity=0 time=0.10714299999999999@note_on channel=6 note=60 velocity=0 time=0@note_on channel=5 note=55 velocity=80 time=0.0008928583333333332@note_on channel=6 note=55 velocity=80 time=0@note_on channel=2 note=55 velocity=0 time=0.10625014166666666@note_on channel=3 note=67 velocity=0 time=0@note_on channel=5 note=55 velocity=0 time=0@note_on channel=6 note=55 velocity=0 time=0@note_on channel=7 note=67 velocity=0 time=0@note_on channel=5 note=48 velocity=80 time=0.0008928583333333332@note_on channel=6 note=48 velocity=80 time=0@note_on channel=0 note=67 velocity=0 time=0.21339314166666665@note_on channel=0 note=60 velocity=80 time=0.0008928583333333332@note_on channel=2 note=60 velocity=80 time=0@note_on channel=3 note=72 velocity=80 time=0@note_on channel=7 note=72 velocity=80 time=0@note_on channel=0 note=60 velocity=0 time=0.10625014166666666@note_on channel=2 note=60 velocity=0 time=0@note_on channel=3 note=72 velocity=0 time=0@note_on channel=5 note=48 velocity=0 time=0@note_on channel=6 note=48 velocity=0 time=0@note_on channel=7 note=72 velocity=0 time=0@note_on channel=0 note=64 velocity=80 time=0.0008928583333333332@note_on channel=1 note=64 velocity=80 time=0@note_on channel=1 note=67 velocity=80 time=0@note_on channel=2 note=59 velocity=80 time=0@note_on channel=3 note=71 velocity=80 time=0@note_on channel=5 note=52 velocity=80 time=0@note_on channel=6 note=52 velocity=80 time=0@note_on channel=7 note=71 velocity=80 time=0@note_on channel=8 note=40 velocity=80 time=0@note_on channel=8 note=43 velocity=80 time=0@note_on channel=1 note=64 velocity=0 time=0.10625014166666666@note_on channel=1 note=67 velocity=0 time=0@note_on channel=8 note=40 velocity=0 time=0@note_on channel=8 note=43 velocity=0 time=0@note_on channel=0 note=64 velocity=0 time=0.10714299999999999@note_on channel=2 note=59 velocity=0 time=0@note_on channel=3 note=71 velocity=0 time=0@note_on channel=7 note=71 velocity=0 time=0@note_on channel=0 note=60 velocity=80 time=0.0008928583333333332@note_on channel=2 note=55 velocity=80 time=0@note_on channel=3 note=67 velocity=80 time=0@note_on channel=7 note=67 velocity=80 time=0@note_on channel=0 note=60 velocity=0 time=0.10625014166666666@note_on channel=2 note=55 velocity=0 time=0@note_on channel=3 note=67 velocity=0 time=0@note_on channel=5 note=52 velocity=0 time=0@note_on channel=6 note=52 velocity=0 time=0@note_on channel=7 note=67 velocity=0 time=0@note_on channel=0 note=67 velocity=80 time=0.0008928583333333332@note_on channel=2 note=57 velocity=80 time=0@note_on channel=3 note=69 velocity=80 time=0@note_on channel=5 note=55 velocity=80 time=0@note_on channel=6 note=55 velocity=80 time=0@note_on channel=7 note=69 velocity=80 time=0@note_on channel=0 note=67 velocity=0 time=0.21339314166666665@note_on channel=2 note=57 velocity=0 time=0@note_on channel=3 note=69 velocity=0 time=0@note_on channel=7 note=69 velocity=0 time=0@note_on channel=0 note=60 velocity=80 time=0.0008928583333333332@note_on channel=2 note=55 velocity=80 time=0@note_on channel=3 note=67 velocity=80 time=0@note_on channel=7 note=67 velocity=80 time=0@note_on channel=0 note=60 velocity=0 time=0.10625014166666666@note_on channel=2 note=55 velocity=0 time=0@note_on channel=3 note=67 velocity=0 time=0@note_on channel=5 note=55 velocity=0 time=0@note_on channel=6 note=55 velocity=0 time=0@note_on channel=7 note=67 velocity=0 time=0@note_on channel=0 note=64 velocity=80 time=0.0008928583333333332@note_on channel=1 note=64 velocity=80 time=0@note_on channel=1 note=67 velocity=80 time=0@note_on channel=2 note=52 velocity=80 time=0@note_on channel=3 note=64 velocity=80 time=0@note_on channel=5 note=60 velocity=80 time=0@note_on channel=6 note=60 velocity=80 time=0@note_on channel=7 note=64 velocity=80 time=0@note_on channel=8 note=40 velocity=80 time=0@note_on channel=8 note=43 velocity=80 time=0@note_on channel=1 note=64 velocity=0 time=0.10625014166666666@note_on channel=1 note=67 velocity=0 time=0@note_on channel=8 note=40 velocity=0 time=0@note_on channel=8 note=43 velocity=0 time=0@note_on channel=0 note=64 velocity=0 time=0.10714299999999999@note_on channel=2 note=52 velocity=0 time=0@note_on channel=3 note=64 velocity=0 time=0@note_on channel=5 note=60 velocity=0 time=0@note_on channel=6 note=60 velocity=0 time=0@note_on channel=7 note=64 velocity=0 time=0@note_on channel=0 note=60 velocity=80 time=0.0008928583333333332@note_on channel=2 note=55 velocity=80 time=0@note_on channel=3 note=67 velocity=80 time=0@note_on channel=5 note=55 velocity=80 time=0@note_on channel=6 note=55 velocity=80 time=0@note_on channel=7 note=67 velocity=80 time=0@note_on channel=0 note=60 velocity=0 time=0.10625014166666666@note_on channel=2 note=55 velocity=0 time=0@note_on channel=3 note=67 velocity=0 time=0@note_on channel=5 note=55 velocity=0 time=0@note_on channel=6 note=55 velocity=0 time=0@note_on channel=7 note=67 velocity=0 time=0@note_on channel=0 note=63 velocity=80 time=0.0008928583333333332@note_on channel=2 note=59 velocity=80 time=0@note_on channel=3 note=71 velocity=80 time=0@note_on channel=5 note=51 velocity=80 time=0@note_on channel=6 note=51 velocity=80 time=0@note_on channel=7 note=71 velocity=80 time=0@note_on channel=0 note=63 velocity=0 time=0.21339314166666665@note_on channel=2 note=59 velocity=0 time=0@note_on channel=3 note=71 velocity=0 time=0@note_on channel=7 note=71 velocity=0 time=0@note_on channel=0 note=59 velocity=80 time=0.0008928583333333332@note_on channel=2 note=54 velocity=80 time=0@note_on channel=3 note=66 velocity=80 time=0@note_on channel=7 note=66 velocity=80 time=0@note_on channel=0 note=59 velocity=0 time=0.10625014166666666@note_on channel=2 note=54 velocity=0 time=0@note_on channel=3 note=66 velocity=0 time=0@note_on channel=5 note=51 velocity=0 time=0@note_on channel=6 note=51 velocity=0 time=0@note_on channel=7 note=66 velocity=0 time=0@note_on channel=0 note=64 velocity=80 time=0.0008928583333333332@note_on channel=1 note=63 velocity=80 time=0@note_on channel=1 note=66 velocity=80 time=0@note_on channel=2 note=57 velocity=80 time=0@note_on channel=3 note=69 velocity=80 time=0@note_on channel=5 note=52 velocity=80 time=0@note_on channel=6 note=52 velocity=80 time=0@note_on channel=7 note=69 velocity=80 time=0@note_on channel=8 note=39 velocity=80 time=0@note_on channel=8 note=42 velocity=80 time=0@note_on channel=1 note=63 velocity=0 time=0.10625014166666666@note_on channel=1 note=66 velocity=0 time=0@note_on channel=8 note=39 velocity=0 time=0@note_on channel=8 note=42 velocity=0 time=0@note_on channel=0 note=64 velocity=0 time=0.10714299999999999@note_on channel=0 note=59 velocity=80 time=0.0008928583333333332@note_on channel=0 note=59 velocity=0 time=0.10625014166666666@note_on channel=2 note=57 velocity=0 time=0@note_on channel=3 note=69 velocity=0 time=0@note_on channel=5 note=52 velocity=0 time=0@note_on channel=6 note=52 velocity=0 time=0@note_on channel=7 note=69 velocity=0 time=0@note_on channel=0 note=66 velocity=80 time=0.0008928583333333332@note_on channel=2 note=59 velocity=80 time=0@note_on channel=3 note=71 velocity=80 time=0@note_on channel=5 note=54 velocity=80 time=0@note_on channel=6 note=54 velocity=80 time=0@note_on channel=7 note=71 velocity=80 time=0@note_on channel=0 note=66 velocity=0 time=0.21339314166666665@note_on channel=2 note=59 velocity=0 time=0@note_on channel=3 note=71 velocity=0 time=0@note_on channel=7 note=71 velocity=0 time=0@note_on channel=0 note=59 velocity=80 time=0.0008928583333333332@note_on channel=2 note=57 velocity=80 time=0@note_on channel=3 note=69 velocity=80 time=0@note_on channel=7 note=69 velocity=80 time=0@note_on channel=0 note=59 velocity=0 time=0.10625014166666666@note_on channel=5 note=54 velocity=0 time=0@note_on channel=6 note=54 velocity=0 time=0@note_on channel=0 note=63 velocity=80 time=0.0008928583333333332@note_on channel=1 note=63 velocity=80 time=0@note_on channel=1 note=66 velocity=80 time=0@note_on channel=5 note=59 velocity=80 time=0@note_on channel=6 note=59 velocity=80 time=0@note_on channel=8 note=39 velocity=80 time=0@note_on channel=8 note=42 velocity=80 time=0@note_on channel=1 note=63 velocity=0 time=0.10625014166666666@note_on channel=1 note=66 velocity=0 time=0@note_on channel=8 note=39 velocity=0 time=0@note_on channel=8 note=42 velocity=0 time=0@note_on channel=5 note=59 velocity=0 time=0.10714299999999999@note_on channel=6 note=59 velocity=0 time=0@note_on channel=5 note=54 velocity=80 time=0.0008928583333333332@note_on channel=6 note=54 velocity=80 time=0@note_on channel=2 note=57 velocity=0 time=0.10625014166666666@note_on channel=3 note=69 velocity=0 time=0@note_on channel=5 note=54 velocity=0 time=0@note_on channel=6 note=54 velocity=0 time=0@note_on channel=7 note=69 velocity=0 time=0@note_on channel=5 note=51 velocity=80 time=0.0008928583333333332@note_on channel=6 note=51 velocity=80 time=0@note_on channel=0 note=63 velocity=0 time=0.21339314166666665@note_on channel=0 note=59 velocity=80 time=0.0008928583333333332@note_on channel=2 note=59 velocity=80 time=0@note_on channel=3 note=71 velocity=80 time=0@note_on channel=7 note=71 velocity=80 time=0@note_on channel=0 note=59 velocity=0 time=0.10625014166666666@note_on channel=2 note=59 velocity=0 time=0@note_on channel=3 note=71 velocity=0 time=0@note_on channel=5 note=51 velocity=0 time=0@note_on channel=6 note=51 velocity=0 time=0@note_on channel=7 note=71 velocity=0 time=0@note_on channel=0 note=63 velocity=80 time=0.0008928583333333332@note_on channel=1 note=63 velocity=80 time=0@note_on channel=1 note=66 velocity=80 time=0@note_on channel=2 note=57 velocity=80 time=0@note_on channel=3 note=69 velocity=80 time=0@note_on channel=5 note=52 velocity=80 time=0@note_on channel=6 note=52 velocity=80 time=0@note_on channel=7 note=69 velocity=80 time=0@note_on channel=8 note=39 velocity=80 time=0@note_on channel=8 note=42 velocity=80 time=0@note_on channel=1 note=63 velocity=0 time=0.10625014166666666@note_on channel=1 note=66 velocity=0 time=0@note_on channel=8 note=39 velocity=0 time=0@note_on channel=8 note=42 velocity=0 time=0@note_on channel=0 note=63 velocity=0 time=0.10714299999999999@note_on channel=2 note=57 velocity=0 time=0@note_on channel=3 note=69 velocity=0 time=0@note_on channel=7 note=69 velocity=0 time=0@note_on channel=0 note=59 velocity=80 time=0.0008928583333333332@note_on channel=2 note=55 velocity=80 time=0@note_on channel=3 note=67 velocity=80 time=0@note_on channel=7 note=67 velocity=80 time=0@note_on channel=0 note=59 velocity=0 time=0.10625014166666666@note_on channel=2 note=55 velocity=0 time=0@note_on channel=3 note=67 velocity=0 time=0@note_on channel=5 note=52 velocity=0 time=0@note_on channel=6 note=52 velocity=0 time=0@note_on channel=7 note=67 velocity=0 time=0@note_on channel=0 note=66 velocity=80 time=0.0008928583333333332@note_on channel=2 note=54 velocity=80 time=0@note_on channel=3 note=66 velocity=80 time=0@note_on channel=5 note=54 velocity=80 time=0@note_on channel=6 note=54 velocity=80 time=0@note_on channel=7 note=66 velocity=80 time=0@note_on channel=0 note=66 velocity=0 time=0.21339314166666665@note_on channel=2 note=54 velocity=0 time=0@note_on channel=3 note=66 velocity=0 time=0@note_on channel=7 note=66 velocity=0 time=0@note_on channel=0 note=59 velocity=80 time=0.0008928583333333332@note_on channel=2 note=55 velocity=80 time=0@note_on channel=3 note=67 velocity=80 time=0@note_on channel=7 note=67 velocity=80 time=0@note_on channel=0 note=59 velocity=0 time=0.10625014166666666@note_on channel=2 note=55 velocity=0 time=0@note_on channel=3 note=67 velocity=0 time=0@note_on channel=5 note=54 velocity=0 time=0@note_on channel=6 note=54 velocity=0 time=0@note_on channel=7 note=67 velocity=0 time=0@note_on channel=0 note=63 velocity=80 time=0.0008928583333333332@note_on channel=1 note=63 velocity=80 time=0@note_on channel=1 note=66 velocity=80 time=0@note_on channel=2 note=54 velocity=80 time=0@note_on channel=3 note=66 velocity=80 time=0@note_on channel=5 note=59 velocity=80 time=0@note_on channel=6 note=59 velocity=80 time=0@note_on channel=7 note=66 velocity=80 time=0@note_on channel=8 note=39 velocity=80 time=0@note_on channel=8 note=42 velocity=80 time=0@note_on channel=1 note=63 velocity=0 time=0.10625014166666666@note_on channel=1 note=66 velocity=0 time=0@note_on channel=8 note=39 velocity=0 time=0@note_on channel=8 note=42 velocity=0 time=0@note_on channel=0 note=63 velocity=0 time=0.10714299999999999@note_on channel=2 note=54 velocity=0 time=0@note_on channel=3 note=66 velocity=0 time=0@note_on channel=5 note=59 velocity=0 time=0@note_on channel=6 note=59 velocity=0 time=0@note_on channel=7 note=66 velocity=0 time=0@note_on channel=0 note=59 velocity=80 time=0.0008928583333333332@note_on channel=2 note=51 velocity=80 time=0@note_on channel=3 note=63 velocity=80 time=0@note_on channel=5 note=54 velocity=80 time=0@note_on channel=6 note=54 velocity=80 time=0@note_on channel=7 note=63 velocity=80 time=0@note_on channel=0 note=59 velocity=0 time=0.10625014166666666@note_on channel=2 note=51 velocity=0 time=0@note_on channel=3 note=63 velocity=0 time=0@note_on channel=5 note=54 velocity=0 time=0@note_on channel=6 note=54 velocity=0 time=0@note_on channel=7 note=63 velocity=0 time=0@note_on channel=0 note=60 velocity=80 time=0.0008928583333333332@note_on channel=2 note=52 velocity=80 time=0@note_on channel=3 note=64 velocity=80 time=0@note_on channel=5 note=55 velocity=80 time=0@note_on channel=6 note=55 velocity=80 time=0@note_on channel=7 note=64 velocity=80 time=0@note_on channel=0 note=60 velocity=0 time=0.21339314166666665@note_on channel=2 note=52 velocity=0 time=0@note_on channel=3 note=64 velocity=0 time=0@note_on channel=7 note=64 velocity=0 time=0@note_on channel=0 note=55 velocity=80 time=0.0008928583333333332@note_on channel=2 note=48 velocity=80 time=0@note_on channel=3 note=60 velocity=80 time=0@note_on channel=7 note=60 velocity=80 time=0@note_on channel=0 note=55 velocity=0 time=0.10625014166666666@note_on channel=2 note=48 velocity=0 time=0@note_on channel=3 note=60 velocity=0 time=0@note_on channel=5 note=55 velocity=0 time=0@note_on channel=6 note=55 velocity=0 time=0@note_on channel=7 note=60 velocity=0 time=0@note_on channel=0 note=64 velocity=80 time=0.0008928583333333332@note_on channel=1 note=64 velocity=80 time=0@note_on channel=1 note=67 velocity=80 time=0@note_on channel=2 note=55 velocity=80 time=0@note_on channel=3 note=67 velocity=80 time=0@note_on channel=5 note=57 velocity=80 time=0@note_on channel=6 note=57 velocity=80 time=0@note_on channel=7 note=67 velocity=80 time=0@note_on channel=8 note=40 velocity=80 time=0@note_on channel=8 note=43 velocity=80 time=0@note_on channel=1 note=64 velocity=0 time=0.10625014166666666@note_on channel=1 note=67 velocity=0 time=0@note_on channel=8 note=40 velocity=0 time=0@note_on channel=8 note=43 velocity=0 time=0@note_on channel=0 note=64 velocity=0 time=0.10714299999999999@note_on channel=0 note=55 velocity=80 time=0.0008928583333333332@note_on channel=0 note=55 velocity=0 time=0.10625014166666666@note_on channel=2 note=55 velocity=0 time=0@note_on channel=3 note=67 velocity=0 time=0@note_on channel=5 note=57 velocity=0 time=0@note_on channel=6 note=57 velocity=0 time=0@note_on channel=7 note=67 velocity=0 time=0@note_on channel=0 note=69 velocity=80 time=0.0008928583333333332@note_on channel=2 note=57 velocity=80 time=0@note_on channel=3 note=69 velocity=80 time=0@note_on channel=5 note=59 velocity=80 time=0@note_on channel=6 note=59 velocity=80 time=0@note_on channel=7 note=69 velocity=80 time=0@note_on channel=0 note=69 velocity=0 time=0.21339314166666665@note_on channel=2 note=57 velocity=0 time=0@note_on channel=3 note=69 velocity=0 time=0@note_on channel=7 note=69 velocity=0 time=0@note_on channel=0 note=67 velocity=80 time=0.0008928583333333332@note_on channel=2 note=55 velocity=80 time=0@note_on channel=3 note=67 velocity=80 time=0@note_on channel=7 note=67 velocity=80 time=0@note_on channel=5 note=59 velocity=0 time=0.10625014166666666@note_on channel=6 note=59 velocity=0 time=0@note_on channel=1 note=64 velocity=80 time=0.0008928583333333332@note_on channel=1 note=67 velocity=80 time=0@note_on channel=5 note=64 velocity=80 time=0@note_on channel=6 note=64 velocity=80 time=0@note_on channel=8 note=40 velocity=80 time=0@note_on channel=8 note=43 velocity=80 time=0@note_on channel=1 note=64 velocity=0 time=0.10625014166666666@note_on channel=1 note=67 velocity=0 time=0@note_on channel=8 note=40 velocity=0 time=0@note_on channel=8 note=43 velocity=0 time=0@note_on channel=2 note=55 velocity=0 time=0.10714299999999999@note_on channel=3 note=67 velocity=0 time=0@note_on channel=5 note=64 velocity=0 time=0@note_on channel=6 note=64 velocity=0 time=0@note_on channel=7 note=67 velocity=0 time=0@note_on channel=2 note=52 velocity=80 time=0.0008928583333333332@note_on channel=3 note=64 velocity=80 time=0@note_on channel=5 note=60 velocity=80 time=0@note_on channel=6 note=60 velocity=80 time=0@note_on channel=7 note=64 velocity=80 time=0@note_on channel=0 note=67 velocity=0 time=0.10625014166666666@note_on channel=5 note=60 velocity=0 time=0@note_on channel=6 note=60 velocity=0 time=0@note_on channel=0 note=60 velocity=80 time=0.0008928583333333332@note_on channel=5 note=48 velocity=80 time=0@note_on channel=6 note=48 velocity=80 time=0@note_on channel=0 note=60 velocity=0 time=0.21339314166666665@note_on channel=2 note=52 velocity=0 time=0@note_on channel=3 note=64 velocity=0 time=0@note_on channel=7 note=64 velocity=0 time=0@note_on channel=0 note=55 velocity=80 time=0.0008928583333333332@note_on channel=2 note=48 velocity=80 time=0@note_on channel=3 note=60 velocity=80 time=0@note_on channel=7 note=60 velocity=80 time=0@note_on channel=0 note=55 velocity=0 time=0.10625014166666666@note_on channel=2 note=48 velocity=0 time=0@note_on channel=3 note=60 velocity=0 time=0@note_on channel=5 note=48 velocity=0 time=0@note_on channel=6 note=48 velocity=0 time=0@note_on channel=7 note=60 velocity=0 time=0@note_on channel=0 note=64 velocity=80 time=0.0008928583333333332@note_on channel=1 note=64 velocity=80 time=0@note_on channel=1 note=67 velocity=80 time=0@note_on channel=2 note=60 velocity=80 time=0@note_on channel=3 note=72 velocity=80 time=0@note_on channel=5 note=52 velocity=80 time=0@note_on channel=6 note=52 velocity=80 time=0@note_on channel=7 note=72 velocity=80 time=0@note_on channel=8 note=40 velocity=80 time=0@note_on channel=8 note=43 velocity=80 time=0@note_on channel=1 note=64 velocity=0 time=0.10625014166666666@note_on channel=1 note=67 velocity=0 time=0@note_on channel=8 note=40 velocity=0 time=0@note_on channel=8 note=43 velocity=0 time=0@note_on channel=0 note=64 velocity=0 time=0.10714299999999999@note_on channel=0 note=55 velocity=80 time=0.0008928583333333332@note_on channel=0 note=55 velocity=0 time=0.10625014166666666@note_on channel=2 note=60 velocity=0 time=0@note_on channel=3 note=72 velocity=0 time=0@note_on channel=5 note=52 velocity=0 time=0@note_on channel=6 note=52 velocity=0 time=0@note_on channel=7 note=72 velocity=0 time=0@note_on channel=0 note=69 velocity=80 time=0.0008928583333333332@note_on channel=2 note=64 velocity=80 time=0@note_on channel=3 note=76 velocity=80 time=0@note_on channel=5 note=55 velocity=80 time=0@note_on channel=6 note=55 velocity=80 time=0@note_on channel=7 note=76 velocity=80 time=0@note_on channel=2 note=64 velocity=0 time=0.21339314166666665@note_on channel=3 note=76 velocity=0 time=0@note_on channel=7 note=76 velocity=0 time=0@note_on channel=2 note=60 velocity=80 time=0.0008928583333333332@note_on channel=3 note=72 velocity=80 time=0@note_on channel=7 note=72 velocity=80 time=0@note_on channel=5 note=55 velocity=0 time=0.10625014166666666@note_on channel=6 note=55 velocity=0 time=0@note_on channel=1 note=64 velocity=80 time=0.0008928583333333332@note_on channel=1 note=67 velocity=80 time=0@note_on channel=5 note=60 velocity=80 time=0@note_on channel=6 note=60 velocity=80 time=0@note_on channel=8 note=40 velocity=80 time=0@note_on channel=8 note=43 velocity=80 time=0@note_on channel=1 note=64 velocity=0 time=0.10625014166666666@note_on channel=1 note=67 velocity=0 time=0@note_on channel=8 note=40 velocity=0 time=0@note_on channel=8 note=43 velocity=0 time=0@note_on channel=0 note=69 velocity=0 time=0.10714299999999999@note_on channel=2 note=60 velocity=0 time=0@note_on channel=3 note=72 velocity=0 time=0@note_on channel=5 note=60 velocity=0 time=0@note_on channel=6 note=60 velocity=0 time=0@note_on channel=7 note=72 velocity=0 time=0@note_on channel=0 note=72 velocity=80 time=0.0008928583333333332@note_on channel=2 note=63 velocity=80 time=0@note_on channel=3 note=75 velocity=80 time=0@note_on channel=5 note=48 velocity=80 time=0@note_on channel=6 note=48 velocity=80 time=0@note_on channel=7 note=75 velocity=80 time=0@note_on channel=0 note=72 velocity=0 time=0.10625014166666666@note_on channel=5 note=48 velocity=0 time=0@note_on channel=6 note=48 velocity=0 time=0@note_on channel=0 note=71 velocity=80 time=0.0008928583333333332@note_on channel=1 note=59 velocity=80 time=0@note_on channel=1 note=63 velocity=80 time=0@note_on channel=1 note=66 velocity=80 time=0@note_on channel=5 note=47 velocity=80 time=0@note_on channel=6 note=47 velocity=80 time=0@note_on channel=8 note=35 velocity=80 time=0@note_on channel=8 note=39 velocity=80 time=0@note_on channel=8 note=42 velocity=80 time=0@note_on channel=0 note=71 velocity=0 time=0.21339314166666665@note_on channel=2 note=63 velocity=0 time=0@note_on channel=3 note=75 velocity=0 time=0@note_on channel=7 note=75 velocity=0 time=0@note_on channel=0 note=59 velocity=80 time=0.0008928583333333332@note_on channel=2 note=59 velocity=80 time=0@note_on channel=3 note=71 velocity=80 time=0@note_on channel=7 note=71 velocity=80 time=0@note_on channel=0 note=59 velocity=0 time=0.10625014166666666@note_on channel=2 note=59 velocity=0 time=0@note_on channel=3 note=71 velocity=0 time=0@note_on channel=5 note=47 velocity=0 time=0@note_on channel=6 note=47 velocity=0 time=0@note_on channel=7 note=71 velocity=0 time=0@note_on channel=0 note=64 velocity=80 time=0.0008928583333333332@note_on channel=2 note=63 velocity=80 time=0@note_on channel=3 note=75 velocity=80 time=0@note_on channel=5 note=51 velocity=80 time=0@note_on channel=6 note=51 velocity=80 time=0@note_on channel=7 note=75 velocity=80 time=0@note_on channel=0 note=64 velocity=0 time=0.21339314166666665@note_on channel=2 note=63 velocity=0 time=0@note_on channel=3 note=75 velocity=0 time=0@note_on channel=7 note=75 velocity=0 time=0@note_on channel=0 note=59 velocity=80 time=0.0008928583333333332@note_on channel=2 note=64 velocity=80 time=0@note_on channel=3 note=76 velocity=80 time=0@note_on channel=7 note=76 velocity=80 time=0@note_on channel=0 note=59 velocity=0 time=0.10625014166666666@note_on channel=2 note=64 velocity=0 time=0@note_on channel=3 note=76 velocity=0 time=0@note_on channel=5 note=51 velocity=0 time=0@note_on channel=6 note=51 velocity=0 time=0@note_on channel=7 note=76 velocity=0 time=0@note_on channel=0 note=66 velocity=80 time=0.0008928583333333332@note_on channel=2 note=66 velocity=80 time=0@note_on channel=3 note=78 velocity=80 time=0@note_on channel=5 note=54 velocity=80 time=0@note_on channel=6 note=54 velocity=80 time=0@note_on channel=7 note=78 velocity=80 time=0@note_on channel=0 note=66 velocity=0 time=0.21339314166666665@note_on channel=1 note=59 velocity=0 time=0@note_on channel=1 note=63 velocity=0 time=0@note_on channel=1 note=66 velocity=0 time=0@note_on channel=2 note=66 velocity=0 time=0@note_on channel=3 note=78 velocity=0 time=0@note_on channel=7 note=78 velocity=0 time=0@note_on channel=8 note=35 velocity=0 time=0@note_on channel=8 note=39 velocity=0 time=0@note_on channel=8 note=42 velocity=0 time=0@note_on channel=0 note=59 velocity=80 time=0.0008928583333333332@note_on channel=2 note=67 velocity=80 time=0@note_on channel=3 note=79 velocity=80 time=0@note_on channel=7 note=79 velocity=80 time=0@note_on channel=0 note=59 velocity=0 time=0.10625014166666666@note_on channel=2 note=67 velocity=0 time=0@note_on channel=3 note=79 velocity=0 time=0@note_on channel=5 note=54 velocity=0 time=0@note_on channel=6 note=54 velocity=0 time=0@note_on channel=7 note=79 velocity=0 time=0@note_on channel=0 note=66 velocity=80 time=0.0008928583333333332@note_on channel=1 note=59 velocity=80 time=0@note_on channel=1 note=63 velocity=80 time=0@note_on channel=1 note=66 velocity=80 time=0@note_on channel=2 note=66 velocity=80 time=0@note_on channel=3 note=78 velocity=80 time=0@note_on channel=5 note=59 velocity=80 time=0@note_on channel=6 note=59 velocity=80 time=0@note_on channel=7 note=78 velocity=80 time=0@note_on channel=8 note=35 velocity=80 time=0@note_on channel=8 note=39 velocity=80 time=0@note_on channel=8 note=42 velocity=80 time=0@note_on channel=1 note=59 velocity=0 time=0.21339314166666665@note_on channel=1 note=63 velocity=0 time=0@note_on channel=1 note=66 velocity=0 time=0@note_on channel=2 note=66 velocity=0 time=0@note_on channel=3 note=78 velocity=0 time=0@note_on channel=5 note=59 velocity=0 time=0@note_on channel=6 note=59 velocity=0 time=0@note_on channel=7 note=78 velocity=0 time=0@note_on channel=8 note=35 velocity=0 time=0@note_on channel=8 note=39 velocity=0 time=0@note_on channel=8 note=42 velocity=0 time=0@note_on channel=2 note=63 velocity=80 time=0.0008928583333333332@note_on channel=3 note=75 velocity=80 time=0@note_on channel=5 note=47 velocity=80 time=0@note_on channel=6 note=47 velocity=80 time=0@note_on channel=7 note=75 velocity=80 time=0@note_on channel=0 note=66 velocity=0 time=0.10625014166666666@note_on channel=2 note=63 velocity=0 time=0@note_on channel=3 note=75 velocity=0 time=0@note_on channel=5 note=47 velocity=0 time=0@note_on channel=6 note=47 velocity=0 time=0@note_on channel=7 note=75 velocity=0 time=0@note_on channel=0 note=64 velocity=80 time=0.0008928583333333332@note_on channel=2 note=66 velocity=80 time=0@note_on channel=3 note=78 velocity=80 time=0@note_on channel=5 note=45 velocity=80 time=0@note_on channel=6 note=45 velocity=80 time=0@note_on channel=7 note=76 velocity=80 time=0@note_on channel=0 note=64 velocity=0 time=0.21339314166666665@note_on channel=2 note=66 velocity=0 time=0@note_on channel=3 note=78 velocity=0 time=0@note_on channel=7 note=76 velocity=0 time=0@note_on channel=0 note=57 velocity=80 time=0.0008928583333333332@note_on channel=2 note=60 velocity=80 time=0@note_on channel=3 note=72 velocity=80 time=0@note_on channel=7 note=72 velocity=80 time=0@note_on channel=0 note=57 velocity=0 time=0.10625014166666666@note_on channel=2 note=60 velocity=0 time=0@note_on channel=3 note=72 velocity=0 time=0@note_on channel=5 note=45 velocity=0 time=0@note_on channel=6 note=45 velocity=0 time=0@note_on channel=7 note=72 velocity=0 time=0@note_on channel=0 note=60 velocity=80 time=0.0008928583333333332@note_on channel=1 note=64 velocity=80 time=0@note_on channel=1 note=67 velocity=80 time=0@note_on channel=2 note=67 velocity=80 time=0@note_on channel=3 note=79 velocity=80 time=0@note_on channel=5 note=48 velocity=80 time=0@note_on channel=6 note=48 velocity=80 time=0@note_on channel=7 note=79 velocity=80 time=0@note_on channel=8 note=40 velocity=80 time=0@note_on channel=8 note=43 velocity=80 time=0@note_on channel=0 note=60 velocity=0 time=0.21339314166666665@note_on channel=1 note=64 velocity=0 time=0@note_on channel=1 note=67 velocity=0 time=0@note_on channel=8 note=40 velocity=0 time=0@note_on channel=8 note=43 velocity=0 time=0@note_on channel=0 note=57 velocity=80 time=0.0008928583333333332@note_on channel=0 note=57 velocity=0 time=0.10625014166666666@note_on channel=2 note=67 velocity=0 time=0@note_on channel=3 note=79 velocity=0 time=0@note_on channel=5 note=48 velocity=0 time=0@note_on channel=6 note=48 velocity=0 time=0@note_on channel=7 note=79 velocity=0 time=0@note_on channel=0 note=64 velocity=80 time=0.0008928583333333332@note_on channel=2 note=67 velocity=80 time=0@note_on channel=3 note=79 velocity=80 time=0@note_on channel=5 note=52 velocity=80 time=0@note_on channel=6 note=52 velocity=80 time=0@note_on channel=7 note=79 velocity=80 time=0@note_on channel=2 note=67 velocity=0 time=0.21339314166666665@note_on channel=3 note=79 velocity=0 time=0@note_on channel=7 note=79 velocity=0 time=0@note_on channel=2 note=69 velocity=80 time=0.0008928583333333332@note_on channel=3 note=81 velocity=80 time=0@note_on channel=7 note=81 velocity=80 time=0@note_on channel=0 note=64 velocity=0 time=0.10625014166666666@note_on channel=2 note=69 velocity=0 time=0@note_on channel=3 note=81 velocity=0 time=0@note_on channel=5 note=52 velocity=0 time=0@note_on channel=6 note=52 velocity=0 time=0@note_on channel=7 note=81 velocity=0 time=0@note_on channel=0 note=67 velocity=80 time=0.0008928583333333332@note_on channel=1 note=64 velocity=80 time=0@note_on channel=1 note=67 velocity=80 time=0@note_on channel=2 note=67 velocity=80 time=0@note_on channel=3 note=79 velocity=80 time=0@note_on channel=5 note=55 velocity=80 time=0@note_on channel=6 note=55 velocity=80 time=0@note_on channel=7 note=79 velocity=80 time=0@note_on channel=8 note=40 velocity=80 time=0@note_on channel=8 note=43 velocity=80 time=0@note_on channel=0 note=67 velocity=0 time=0.21339314166666665@note_on channel=1 note=64 velocity=0 time=0@note_on channel=1 note=67 velocity=0 time=0@note_on channel=2 note=67 velocity=0 time=0@note_on channel=3 note=79 velocity=0 time=0@note_on channel=5 note=55 velocity=0 time=0@note_on channel=6 note=55 velocity=0 time=0@note_on channel=7 note=79 velocity=0 time=0@note_on channel=8 note=40 velocity=0 time=0@note_on channel=8 note=43 velocity=0 time=0@note_on channel=0 note=57 velocity=80 time=0.0008928583333333332@note_on channel=2 note=66 velocity=80 time=0@note_on channel=3 note=78 velocity=80 time=0@note_on channel=5 note=54 velocity=80 time=0@note_on channel=6 note=54 velocity=80 time=0@note_on channel=7 note=78 velocity=80 time=0@note_on channel=0 note=57 velocity=0 time=0.10625014166666666@note_on channel=0 note=66 velocity=80 time=0.0008928583333333332@note_on channel=0 note=66 velocity=0 time=0.21339314166666665@note_on channel=2 note=66 velocity=0 time=0@note_on channel=3 note=78 velocity=0 time=0@note_on channel=7 note=78 velocity=0 time=0@note_on channel=0 note=54 velocity=80 time=0.0008928583333333332@note_on channel=2 note=59 velocity=80 time=0@note_on channel=3 note=71 velocity=80 time=0@note_on channel=7 note=71 velocity=80 time=0@note_on channel=0 note=54 velocity=0 time=0.10625014166666666@note_on channel=2 note=59 velocity=0 time=0@note_on channel=3 note=71 velocity=0 time=0@note_on channel=5 note=54 velocity=0 time=0@note_on channel=6 note=54 velocity=0 time=0@note_on channel=7 note=71 velocity=0 time=0@note_on channel=0 note=59 velocity=80 time=0.0008928583333333332@note_on channel=1 note=63 velocity=80 time=0@note_on channel=1 note=66 velocity=80 time=0@note_on channel=2 note=63 velocity=80 time=0@note_on channel=3 note=75 velocity=80 time=0@note_on channel=5 note=47 velocity=80 time=0@note_on channel=6 note=47 velocity=80 time=0@note_on channel=7 note=75 velocity=80 time=0@note_on channel=8 note=39 velocity=80 time=0@note_on channel=8 note=42 velocity=80 time=0@note_on channel=0 note=59 velocity=0 time=0.21339314166666665@note_on channel=1 note=63 velocity=0 time=0@note_on channel=1 note=66 velocity=0 time=0@note_on channel=2 note=63 velocity=0 time=0@note_on channel=3 note=75 velocity=0 time=0@note_on channel=7 note=75 velocity=0 time=0@note_on channel=8 note=39 velocity=0 time=0@note_on channel=8 note=42 velocity=0 time=0@note_on channel=0 note=54 velocity=80 time=0.0008928583333333332@note_on channel=2 note=59 velocity=80 time=0@note_on channel=3 note=71 velocity=80 time=0@note_on channel=7 note=71 velocity=80 time=0@note_on channel=0 note=54 velocity=0 time=0.10625014166666666@note_on channel=2 note=59 velocity=0 time=0@note_on channel=3 note=71 velocity=0 time=0@note_on channel=5 note=47 velocity=0 time=0@note_on channel=6 note=47 velocity=0 time=0@note_on channel=7 note=71 velocity=0 time=0@note_on channel=0 note=63 velocity=80 time=0.0008928583333333332@note_on channel=2 note=67 velocity=80 time=0@note_on channel=3 note=79 velocity=80 time=0@note_on channel=5 note=51 velocity=80 time=0@note_on channel=6 note=51 velocity=80 time=0@note_on channel=7 note=79 velocity=80 time=0@note_on channel=0 note=63 velocity=0 time=0.21339314166666665@note_on channel=2 note=67 velocity=0 time=0@note_on channel=3 note=79 velocity=0 time=0@note_on channel=7 note=79 velocity=0 time=0@note_on channel=0 note=54 velocity=80 time=0.0008928583333333332@note_on channel=2 note=59 velocity=80 time=0@note_on channel=3 note=71 velocity=80 time=0@note_on channel=7 note=71 velocity=80 time=0@note_on channel=0 note=54 velocity=0 time=0.10625014166666666@note_on channel=2 note=59 velocity=0 time=0@note_on channel=3 note=71 velocity=0 time=0@note_on channel=5 note=51 velocity=0 time=0@note_on channel=6 note=51 velocity=0 time=0@note_on channel=7 note=71 velocity=0 time=0@note_on channel=0 note=66 velocity=80 time=0.0008928583333333332@note_on channel=1 note=63 velocity=80 time=0@note_on channel=1 note=66 velocity=80 time=0@note_on channel=2 note=66 velocity=80 time=0@note_on channel=3 note=78 velocity=80 time=0@note_on channel=5 note=54 velocity=80 time=0@note_on channel=6 note=54 velocity=80 time=0@note_on channel=7 note=78 velocity=80 time=0@note_on channel=8 note=39 velocity=80 time=0@note_on channel=8 note=42 velocity=80 time=0@note_on channel=1 note=63 velocity=0 time=0.21339314166666665@note_on channel=1 note=66 velocity=0 time=0@note_on channel=2 note=66 velocity=0 time=0@note_on channel=3 note=78 velocity=0 time=0@note_on channel=7 note=78 velocity=0 time=0@note_on channel=8 note=39 velocity=0 time=0@note_on channel=8 note=42 velocity=0 time=0@note_on channel=2 note=59 velocity=80 time=0.0008928583333333332@note_on channel=3 note=71 velocity=80 time=0@note_on channel=7 note=71 velocity=80 time=0@note_on channel=0 note=66 velocity=0 time=0.10625014166666666@note_on channel=2 note=59 velocity=0 time=0@note_on channel=3 note=71 velocity=0 time=0@note_on channel=5 note=54 velocity=0 time=0@note_on channel=6 note=54 velocity=0 time=0@note_on channel=7 note=71 velocity=0 time=0@note_on channel=0 note=71 velocity=80 time=0.0008928583333333332@note_on channel=2 note=64 velocity=80 time=0@note_on channel=3 note=76 velocity=80 time=0@note_on channel=5 note=55 velocity=80 time=0@note_on channel=6 note=55 velocity=80 time=0@note_on channel=7 note=76 velocity=80 time=0@note_on channel=2 note=64 velocity=0 time=0.21339314166666665@note_on channel=3 note=76 velocity=0 time=0@note_on channel=7 note=76 velocity=0 time=0@note_on channel=2 note=59 velocity=80 time=0.0008928583333333332@note_on channel=3 note=71 velocity=80 time=0@note_on channel=7 note=71 velocity=80 time=0@note_on channel=0 note=71 velocity=0 time=0.10625014166666666@note_on channel=2 note=59 velocity=0 time=0@note_on channel=3 note=71 velocity=0 time=0@note_on channel=5 note=55 velocity=0 time=0@note_on channel=6 note=55 velocity=0 time=0@note_on channel=7 note=71 velocity=0 time=0@note_on channel=0 note=66 velocity=80 time=0.0008928583333333332@note_on channel=1 note=63 velocity=80 time=0@note_on channel=1 note=66 velocity=80 time=0@note_on channel=2 note=63 velocity=80 time=0@note_on channel=3 note=75 velocity=80 time=0@note_on channel=5 note=54 velocity=80 time=0@note_on channel=6 note=54 velocity=80 time=0@note_on channel=7 note=75 velocity=80 time=0@note_on channel=8 note=39 velocity=80 time=0@note_on channel=8 note=42 velocity=80 time=0@note_on channel=1 note=63 velocity=0 time=0.21339314166666665@note_on channel=1 note=66 velocity=0 time=0@note_on channel=2 note=63 velocity=0 time=0@note_on channel=3 note=75 velocity=0 time=0@note_on channel=7 note=75 velocity=0 time=0@note_on channel=8 note=39 velocity=0 time=0@note_on channel=8 note=42 velocity=0 time=0@note_on channel=2 note=59 velocity=80 time=0.0008928583333333332@note_on channel=3 note=71 velocity=80 time=0@note_on channel=7 note=71 velocity=80 time=0@note_on channel=0 note=66 velocity=0 time=0.10625014166666666@note_on channel=2 note=59 velocity=0 time=0@note_on channel=3 note=71 velocity=0 time=0@note_on channel=5 note=54 velocity=0 time=0@note_on channel=6 note=54 velocity=0 time=0@note_on channel=7 note=71 velocity=0 time=0@note_on channel=0 note=71 velocity=80 time=0.0008928583333333332@note_on channel=2 note=64 velocity=80 time=0@note_on channel=3 note=76 velocity=80 time=0@note_on channel=5 note=52 velocity=80 time=0@note_on channel=6 note=52 velocity=80 time=0@note_on channel=7 note=76 velocity=80 time=0@note_on channel=2 note=64 velocity=0 time=0.21339314166666665@note_on channel=3 note=76 velocity=0 time=0@note_on channel=7 note=76 velocity=0 time=0@note_on channel=2 note=59 velocity=80 time=0.0008928583333333332@note_on channel=3 note=71 velocity=80 time=0@note_on channel=7 note=71 velocity=80 time=0@note_on channel=2 note=59 velocity=0 time=0.10625014166666666@note_on channel=3 note=71 velocity=0 time=0@note_on channel=5 note=52 velocity=0 time=0@note_on channel=6 note=52 velocity=0 time=0@note_on channel=7 note=71 velocity=0 time=0@note_on channel=1 note=63 velocity=80 time=0.0008928583333333332@note_on channel=1 note=66 velocity=80 time=0@note_on channel=2 note=66 velocity=80 time=0@note_on channel=3 note=78 velocity=80 time=0@note_on channel=5 note=51 velocity=80 time=0@note_on channel=6 note=51 velocity=80 time=0@note_on channel=7 note=78 velocity=80 time=0@note_on channel=8 note=39 velocity=80 time=0@note_on channel=8 note=42 velocity=80 time=0@note_on channel=2 note=66 velocity=0 time=0.21339314166666665@note_on channel=3 note=78 velocity=0 time=0@note_on channel=7 note=78 velocity=0 time=0@note_on channel=2 note=59 velocity=80 time=0.0008928583333333332@note_on channel=3 note=71 velocity=80 time=0@note_on channel=7 note=71 velocity=80 time=0@note_on channel=0 note=71 velocity=0 time=0.10625014166666666@note_on channel=1 note=63 velocity=0 time=0@note_on channel=1 note=66 velocity=0 time=0@note_on channel=2 note=59 velocity=0 time=0@note_on channel=3 note=71 velocity=0 time=0@note_on channel=5 note=51 velocity=0 time=0@note_on channel=6 note=51 velocity=0 time=0@note_on channel=7 note=71 velocity=0 time=0@note_on channel=8 note=39 velocity=0 time=0@note_on channel=8 note=42 velocity=0 time=0@note_on channel=0 note=59 velocity=80 time=0.0008928583333333332@note_on channel=2 note=59 velocity=80 time=0@note_on channel=3 note=71 velocity=80 time=0@note_on channel=5 note=52 velocity=80 time=0@note_on channel=6 note=52 velocity=80 time=0@note_on channel=8 note=40 velocity=80 time=0@note_on channel=0 note=59 velocity=0 time=0.21339314166666665@note_on channel=2 note=59 velocity=0 time=0@note_on channel=3 note=71 velocity=0 time=0@note_on channel=5 note=52 velocity=0 time=0@note_on channel=6 note=52 velocity=0 time=0@note_on channel=0 note=57 velocity=80 time=0.0008928583333333332@note_on channel=2 note=57 velocity=80 time=0@note_on channel=3 note=69 velocity=80 time=0@note_on channel=5 note=52 velocity=80 time=0@note_on channel=6 note=52 velocity=80 time=0@note_on channel=0 note=57 velocity=0 time=0.10625014166666666@note_on channel=2 note=57 velocity=0 time=0@note_on channel=3 note=69 velocity=0 time=0@note_on channel=5 note=52 velocity=0 time=0@note_on channel=6 note=52 velocity=0 time=0@note_on channel=0 note=61 velocity=80 time=0.0008928583333333332@note_on channel=1 note=64 velocity=80 time=0@note_on channel=2 note=61 velocity=80 time=0@note_on channel=3 note=73 velocity=80 time=0@note_on channel=1 note=64 velocity=0 time=0.10625014166666666@note_on channel=0 note=61 velocity=0 time=0.5357149999999999@note_on channel=2 note=61 velocity=0 time=0@note_on channel=3 note=73 velocity=0 time=0@note_on channel=0 note=62 velocity=80 time=0.0008928583333333332@note_on channel=1 note=64 velocity=80 time=0@note_on channel=2 note=62 velocity=80 time=0@note_on channel=3 note=74 velocity=80 time=0@note_on channel=5 note=52 velocity=80 time=0@note_on channel=6 note=52 velocity=80 time=0@note_on channel=1 note=64 velocity=0 time=0.10625014166666666@note_on channel=0 note=62 velocity=0 time=0.10714299999999999@note_on channel=2 note=62 velocity=0 time=0@note_on channel=3 note=74 velocity=0 time=0@note_on channel=5 note=52 velocity=0 time=0@note_on channel=6 note=52 velocity=0 time=0@note_on channel=0 note=55 velocity=80 time=0.0008928583333333332@note_on channel=2 note=55 velocity=80 time=0@note_on channel=3 note=67 velocity=80 time=0@note_on channel=0 note=55 velocity=0 time=0.10625014166666666@note_on channel=2 note=55 velocity=0 time=0@note_on channel=3 note=67 velocity=0 time=0@note_on channel=0 note=61 velocity=80 time=0.0008928583333333332@note_on channel=2 note=61 velocity=80 time=0@note_on channel=3 note=73 velocity=80 time=0@note_on channel=5 note=52 velocity=80 time=0@note_on channel=6 note=52 velocity=80 time=0@note_on channel=5 note=52 velocity=0 time=0.21339314166666665@note_on channel=6 note=52 velocity=0 time=0@note_on channel=5 note=52 velocity=80 time=0.0008928583333333332@note_on channel=6 note=52 velocity=80 time=0@note_on channel=0 note=61 velocity=0 time=0.10625014166666666@note_on channel=2 note=61 velocity=0 time=0@note_on channel=3 note=73 velocity=0 time=0@note_on channel=5 note=52 velocity=0 time=0@note_on channel=6 note=52 velocity=0 time=0@note_on channel=0 note=59 velocity=80 time=0.0008928583333333332@note_on channel=1 note=64 velocity=80 time=0@note_on channel=2 note=59 velocity=80 time=0@note_on channel=3 note=71 velocity=80 time=0@note_on channel=1 note=64 velocity=0 time=0.10625014166666666@note_on channel=0 note=59 velocity=0 time=0.21428599999999998@note_on channel=2 note=59 velocity=0 time=0@note_on channel=3 note=71 velocity=0 time=0@note_on channel=0 note=57 velocity=80 time=0.0008928583333333332@note_on channel=2 note=57 velocity=80 time=0@note_on channel=3 note=69 velocity=80 time=0@note_on channel=5 note=52 velocity=80 time=0@note_on channel=6 note=52 velocity=80 time=0@note_on channel=0 note=57 velocity=0 time=0.21339314166666665@note_on channel=2 note=57 velocity=0 time=0@note_on channel=3 note=69 velocity=0 time=0@note_on channel=5 note=52 velocity=0 time=0@note_on channel=6 note=52 velocity=0 time=0@note_on channel=0 note=59 velocity=80 time=0.0008928583333333332@note_on channel=2 note=59 velocity=80 time=0@note_on channel=3 note=71 velocity=80 time=0@note_on channel=5 note=52 velocity=80 time=0@note_on channel=6 note=52 velocity=80 time=0@note_on channel=0 note=59 velocity=0 time=0.10625014166666666@note_on channel=2 note=59 velocity=0 time=0@note_on channel=3 note=71 velocity=0 time=0@note_on channel=5 note=52 velocity=0 time=0@note_on channel=6 note=52 velocity=0 time=0@note_on channel=0 note=55 velocity=80 time=0.0008928583333333332@note_on channel=1 note=64 velocity=80 time=0@note_on channel=2 note=55 velocity=80 time=0@note_on channel=3 note=67 velocity=80 time=0@note_on channel=5 note=47 velocity=80 time=0@note_on channel=6 note=47 velocity=80 time=0@note_on channel=1 note=64 velocity=0 time=0.10625014166666666@note_on channel=5 note=47 velocity=0 time=0.10714299999999999@note_on channel=6 note=47 velocity=0 time=0@note_on channel=5 note=47 velocity=80 time=0.0008928583333333332@note_on channel=6 note=47 velocity=80 time=0@note_on channel=0 note=55 velocity=0 time=0.10625014166666666@note_on channel=2 note=55 velocity=0 time=0@note_on channel=3 note=67 velocity=0 time=0@note_on channel=5 note=47 velocity=0 time=0@note_on channel=6 note=47 velocity=0 time=0@note_on channel=8 note=40 velocity=0 time=0@note_on channel=0 note=55 velocity=80 time=0.0008928583333333332@note_on channel=2 note=55 velocity=80 time=0@note_on channel=3 note=67 velocity=80 time=0@note_on channel=5 note=52 velocity=80 time=0@note_on channel=6 note=52 velocity=80 time=0@note_on channel=8 note=40 velocity=80 time=0@note_on channel=0 note=55 velocity=0 time=0.21339314166666665@note_on channel=2 note=55 velocity=0 time=0@note_on channel=3 note=67 velocity=0 time=0@note_on channel=5 note=52 velocity=0 time=0@note_on channel=6 note=52 velocity=0 time=0@note_on channel=0 note=52 velocity=80 time=0.0008928583333333332@note_on channel=2 note=52 velocity=80 time=0@note_on channel=3 note=64 velocity=80 time=0@note_on channel=5 note=52 velocity=80 time=0@note_on channel=6 note=52 velocity=80 time=0@note_on channel=0 note=52 velocity=0 time=0.10625014166666666@note_on channel=2 note=52 velocity=0 time=0@note_on channel=3 note=64 velocity=0 time=0@note_on channel=5 note=52 velocity=0 time=0@note_on channel=6 note=52 velocity=0 time=0@note_on channel=0 note=57 velocity=80 time=0.0008928583333333332@note_on channel=1 note=64 velocity=80 time=0@note_on channel=2 note=57 velocity=80 time=0@note_on channel=3 note=69 velocity=80 time=0@note_on channel=1 note=64 velocity=0 time=0.10625014166666666@note_on channel=0 note=57 velocity=0 time=0.5357149999999999@note_on channel=2 note=57 velocity=0 time=0@note_on channel=3 note=69 velocity=0 time=0@note_on channel=0 note=59 velocity=80 time=0.0008928583333333332@note_on channel=1 note=64 velocity=80 time=0@note_on channel=2 note=59 velocity=80 time=0@note_on channel=3 note=71 velocity=80 time=0@note_on channel=5 note=52 velocity=80 time=0@note_on channel=6 note=52 velocity=80 time=0@note_on channel=1 note=64 velocity=0 time=0.10625014166666666@note_on channel=0 note=59 velocity=0 time=0.10714299999999999@note_on channel=2 note=59 velocity=0 time=0@note_on channel=3 note=71 velocity=0 time=0@note_on channel=5 note=52 velocity=0 time=0@note_on channel=6 note=52 velocity=0 time=0@note_on channel=0 note=55 velocity=80 time=0.0008928583333333332@note_on channel=2 note=55 velocity=80 time=0@note_on channel=3 note=67 velocity=80 time=0@note_on channel=0 note=55 velocity=0 time=0.10625014166666666@note_on channel=2 note=55 velocity=0 time=0@note_on channel=3 note=67 velocity=0 time=0@note_on channel=0 note=57 velocity=80 time=0.0008928583333333332@note_on channel=2 note=57 velocity=80 time=0@note_on channel=3 note=69 velocity=80 time=0@note_on channel=5 note=52 velocity=80 time=0@note_on channel=6 note=52 velocity=80 time=0@note_on channel=0 note=57 velocity=0 time=0.21339314166666665@note_on channel=2 note=57 velocity=0 time=0@note_on channel=3 note=69 velocity=0 time=0@note_on channel=5 note=52 velocity=0 time=0@note_on channel=6 note=52 velocity=0 time=0@note_on channel=0 note=59 velocity=80 time=0.0008928583333333332@note_on channel=2 note=59 velocity=80 time=0@note_on channel=3 note=71 velocity=80 time=0@note_on channel=5 note=52 velocity=80 time=0@note_on channel=6 note=52 velocity=80 time=0@note_on channel=5 note=52 velocity=0 time=0.10625014166666666@note_on channel=6 note=52 velocity=0 time=0@note_on channel=1 note=64 velocity=80 time=0.0008928583333333332@note_on channel=1 note=64 velocity=0 time=0.10625014166666666@note_on channel=0 note=59 velocity=0 time=0.10714299999999999@note_on channel=2 note=59 velocity=0 time=0@note_on channel=3 note=71 velocity=0 time=0@note_on channel=0 note=57 velocity=80 time=0.0008928583333333332@note_on channel=2 note=57 velocity=80 time=0@note_on channel=3 note=69 velocity=80 time=0@note_on channel=5 note=52 velocity=80 time=0.10714299999999999@note_on channel=6 note=52 velocity=80 time=0@note_on channel=0 note=57 velocity=0 time=0.21339314166666665@note_on channel=2 note=57 velocity=0 time=0@note_on channel=3 note=69 velocity=0 time=0@note_on channel=5 note=52 velocity=0 time=0@note_on channel=6 note=52 velocity=0 time=0@note_on channel=0 note=55 velocity=80 time=0.0008928583333333332@note_on channel=2 note=55 velocity=80 time=0@note_on channel=3 note=67 velocity=80 time=0@note_on channel=5 note=52 velocity=80 time=0@note_on channel=6 note=52 velocity=80 time=0@note_on channel=0 note=55 velocity=0 time=0.10625014166666666@note_on channel=2 note=55 velocity=0 time=0@note_on channel=3 note=67 velocity=0 time=0@note_on channel=5 note=52 velocity=0 time=0@note_on channel=6 note=52 velocity=0 time=0@note_on channel=0 note=52 velocity=80 time=0.0008928583333333332@note_on channel=1 note=64 velocity=80 time=0@note_on channel=2 note=52 velocity=80 time=0@note_on channel=3 note=64 velocity=80 time=0@note_on channel=5 note=47 velocity=80 time=0@note_on channel=6 note=47 velocity=80 time=0@note_on channel=1 note=64 velocity=0 time=0.10625014166666666@note_on channel=0 note=52 velocity=0 time=0.10714299999999999@note_on channel=2 note=52 velocity=0 time=0@note_on channel=3 note=64 velocity=0 time=0@note_on channel=5 note=47 velocity=0 time=0@note_on channel=6 note=47 velocity=0 time=0@note_on channel=0 note=55 velocity=80 time=0.0008928583333333332@note_on channel=2 note=55 velocity=80 time=0@note_on channel=3 note=67 velocity=80 time=0@note_on channel=5 note=47 velocity=80 time=0@note_on channel=6 note=47 velocity=80 time=0@note_on channel=0 note=55 velocity=0 time=0.10625014166666666@note_on channel=2 note=55 velocity=0 time=0@note_on channel=3 note=67 velocity=0 time=0@note_on channel=5 note=47 velocity=0 time=0@note_on channel=6 note=47 velocity=0 time=0@note_on channel=8 note=40 velocity=0 time=0@note_on channel=0 note=63 velocity=80 time=0.0008928583333333332@note_on channel=2 note=57 velocity=80 time=0@note_on channel=3 note=69 velocity=80 time=0@note_on channel=5 note=51 velocity=80 time=0@note_on channel=6 note=51 velocity=80 time=0@note_on channel=7 note=75 velocity=80 time=0@note_on channel=8 note=39 velocity=80 time=0@note_on channel=0 note=63 velocity=0 time=0.21339314166666665@note_on channel=2 note=57 velocity=0 time=0@note_on channel=3 note=69 velocity=0 time=0@note_on channel=5 note=51 velocity=0 time=0@note_on channel=6 note=51 velocity=0 time=0@note_on channel=7 note=75 velocity=0 time=0@note_on channel=0 note=64 velocity=80 time=0.0008928583333333332@note_on channel=2 note=55 velocity=80 time=0@note_on channel=3 note=67 velocity=80 time=0@note_on channel=5 note=51 velocity=80 time=0@note_on channel=6 note=51 velocity=80 time=0@note_on channel=7 note=76 velocity=80 time=0@note_on channel=2 note=55 velocity=0 time=0.10625014166666666@note_on channel=3 note=67 velocity=0 time=0@note_on channel=5 note=51 velocity=0 time=0@note_on channel=6 note=51 velocity=0 time=0@note_on channel=1 note=63 velocity=80 time=0.0008928583333333332@note_on channel=2 note=59 velocity=80 time=0@note_on channel=3 note=71 velocity=80 time=0@note_on channel=0 note=64 velocity=0 time=0.10625014166666666@note_on channel=1 note=63 velocity=0 time=0@note_on channel=7 note=76 velocity=0 time=0@note_on channel=0 note=64 velocity=80 time=0.10803585833333332@note_on channel=7 note=78 velocity=80 time=0@note_on channel=0 note=64 velocity=0 time=0.05267864166666666@note_on channel=0 note=66 velocity=80 time=0.0008928583333333332@note_on channel=7 note=78 velocity=0 time=0.15982164166666665@note_on channel=0 note=66 velocity=0 time=0.10714299999999999@note_on channel=0 note=59 velocity=80 time=0.0008928583333333332@note_on channel=7 note=71 velocity=80 time=0@note_on channel=2 note=59 velocity=0 time=0.10625014166666666@note_on channel=3 note=71 velocity=0 time=0@note_on channel=1 note=63 velocity=80 time=0.0008928583333333332@note_on channel=2 note=59 velocity=80 time=0@note_on channel=3 note=71 velocity=80 time=0@note_on channel=5 note=51 velocity=80 time=0@note_on channel=6 note=51 velocity=80 time=0@note_on channel=1 note=63 velocity=0 time=0.10625014166666666@note_on channel=7 note=71 velocity=0 time=0@note_on channel=2 note=59 velocity=0 time=0.10714299999999999@note_on channel=3 note=71 velocity=0 time=0@note_on channel=5 note=51 velocity=0 time=0@note_on channel=6 note=51 velocity=0 time=0@note_on channel=2 note=55 velocity=80 time=0.0008928583333333332@note_on channel=3 note=67 velocity=80 time=0@note_on channel=0 note=59 velocity=0 time=0.10625014166666666@note_on channel=2 note=55 velocity=0 time=0@note_on channel=3 note=67 velocity=0 time=0@note_on channel=0 note=71 velocity=80 time=0.0008928583333333332@note_on channel=2 note=57 velocity=80 time=0@note_on channel=3 note=69 velocity=80 time=0@note_on channel=5 note=51 velocity=80 time=0@note_on channel=6 note=51 velocity=80 time=0@note_on channel=7 note=83 velocity=96 time=0@note_on channel=5 note=51 velocity=0 time=0.21339314166666665@note_on channel=6 note=51 velocity=0 time=0@note_on channel=5 note=51 velocity=80 time=0.0008928583333333332@note_on channel=6 note=51 velocity=80 time=0@note_on channel=2 note=57 velocity=0 time=0.10625014166666666@note_on channel=3 note=69 velocity=0 time=0@note_on channel=5 note=51 velocity=0 time=0@note_on channel=6 note=51 velocity=0 time=0@note_on channel=1 note=63 velocity=80 time=0.0008928583333333332@note_on channel=2 note=63 velocity=80 time=0@note_on channel=3 note=75 velocity=80 time=0@note_on channel=1 note=63 velocity=0 time=0.10625014166666666@note_on channel=2 note=63 velocity=0 time=0.10714299999999999@note_on channel=3 note=75 velocity=0 time=0@note_on channel=2 note=57 velocity=80 time=0.0008928583333333332@note_on channel=3 note=69 velocity=80 time=0@note_on channel=0 note=71 velocity=0 time=0.10625014166666666@note_on channel=2 note=57 velocity=0 time=0@note_on channel=3 note=69 velocity=0 time=0@note_on channel=7 note=83 velocity=0 time=0@note_on channel=0 note=69 velocity=80 time=0.0008928583333333332@note_on channel=2 note=59 velocity=80 time=0@note_on channel=3 note=71 velocity=80 time=0@note_on channel=5 note=51 velocity=80 time=0@note_on channel=6 note=51 velocity=80 time=0@note_on channel=7 note=81 velocity=80 time=0@note_on channel=5 note=51 velocity=0 time=0.21339314166666665@note_on channel=6 note=51 velocity=0 time=0@note_on channel=5 note=51 velocity=80 time=0.0008928583333333332@note_on channel=6 note=51 velocity=80 time=0@note_on channel=0 note=69 velocity=0 time=0.10625014166666666@note_on channel=2 note=59 velocity=0 time=0@note_on channel=3 note=71 velocity=0 time=0@note_on channel=5 note=51 velocity=0 time=0@note_on channel=6 note=51 velocity=0 time=0@note_on channel=7 note=81 velocity=0 time=0@note_on channel=0 note=67 velocity=80 time=0.0008928583333333332@note_on channel=1 note=63 velocity=80 time=0@note_on channel=2 note=57 velocity=80 time=0@note_on channel=3 note=69 velocity=80 time=0@note_on channel=5 note=47 velocity=80 time=0@note_on channel=6 note=47 velocity=80 time=0@note_on channel=7 note=79 velocity=80 time=0@note_on channel=1 note=63 velocity=0 time=0.10625014166666666@note_on channel=2 note=57 velocity=0 time=0.10714299999999999@note_on channel=3 note=69 velocity=0 time=0@note_on channel=5 note=47 velocity=0 time=0@note_on channel=6 note=47 velocity=0 time=0@note_on channel=2 note=55 velocity=80 time=0.0008928583333333332@note_on channel=3 note=67 velocity=80 time=0@note_on channel=5 note=47 velocity=80 time=0@note_on channel=6 note=47 velocity=80 time=0@note_on channel=0 note=67 velocity=0 time=0.10625014166666666@note_on channel=2 note=55 velocity=0 time=0@note_on channel=3 note=67 velocity=0 time=0@note_on channel=5 note=47 velocity=0 time=0@note_on channel=6 note=47 velocity=0 time=0@note_on channel=7 note=79 velocity=0 time=0@note_on channel=8 note=39 velocity=0 time=0@note_on channel=0 note=66 velocity=80 time=0.0008928583333333332@note_on channel=2 note=54 velocity=80 time=0@note_on channel=3 note=66 velocity=80 time=0@note_on channel=5 note=50 velocity=80 time=0@note_on channel=6 note=50 velocity=80 time=0@note_on channel=7 note=78 velocity=80 time=0@note_on channel=8 note=38 velocity=80 time=0@note_on channel=2 note=54 velocity=0 time=0.21339314166666665@note_on channel=3 note=66 velocity=0 time=0@note_on channel=5 note=50 velocity=0 time=0@note_on channel=6 note=50 velocity=0 time=0@note_on channel=2 note=55 velocity=80 time=0.0008928583333333332@note_on channel=3 note=67 velocity=80 time=0@note_on channel=5 note=50 velocity=80 time=0@note_on channel=6 note=50 velocity=80 time=0@note_on channel=2 note=55 velocity=0 time=0.10625014166666666@note_on channel=3 note=67 velocity=0 time=0@note_on channel=5 note=50 velocity=0 time=0@note_on channel=6 note=50 velocity=0 time=0@note_on channel=1 note=62 velocity=80 time=0.0008928583333333332@note_on channel=2 note=57 velocity=80 time=0@note_on channel=3 note=69 velocity=80 time=0@note_on channel=1 note=62 velocity=0 time=0.10625014166666666@note_on channel=7 note=78 velocity=0 time=0.21428599999999998@note_on channel=2 note=57 velocity=0 time=0.21428599999999998@note_on channel=3 note=69 velocity=0 time=0@note_on channel=2 note=50 velocity=80 time=0.0008928583333333332@note_on channel=3 note=62 velocity=80 time=0@note_on channel=2 note=50 velocity=0 time=0.10625014166666666@note_on channel=3 note=62 velocity=0 time=0@note_on channel=1 note=62 velocity=80 time=0.0008928583333333332@note_on channel=2 note=59 velocity=80 time=0@note_on channel=3 note=71 velocity=80 time=0@note_on channel=5 note=50 velocity=80 time=0@note_on channel=6 note=50 velocity=80 time=0@note_on channel=0 note=66 velocity=0 time=0.10625014166666666@note_on channel=1 note=62 velocity=0 time=0@note_on channel=5 note=50 velocity=0 time=0.10714299999999999@note_on channel=6 note=50 velocity=0 time=0@note_on channel=0 note=64 velocity=80 time=0.0008928583333333332@note_on channel=7 note=76 velocity=80 time=0@note_on channel=0 note=64 velocity=0 time=0.10625014166666666@note_on channel=7 note=76 velocity=0 time=0@note_on channel=0 note=66 velocity=80 time=0.0008928583333333332@note_on channel=5 note=50 velocity=80 time=0@note_on channel=6 note=50 velocity=80 time=0@note_on channel=7 note=78 velocity=80 time=0@note_on channel=0 note=66 velocity=0 time=0.21339314166666665@note_on channel=5 note=50 velocity=0 time=0@note_on channel=6 note=50 velocity=0 time=0@note_on channel=7 note=78 velocity=0 time=0@note_on channel=0 note=67 velocity=80 time=0.0008928583333333332@note_on channel=5 note=50 velocity=80 time=0@note_on channel=6 note=50 velocity=80 time=0@note_on channel=7 note=79 velocity=80 time=0@note_on channel=5 note=50 velocity=0 time=0.10625014166666666@note_on channel=6 note=50 velocity=0 time=0@note_on channel=7 note=79 velocity=0 time=0@note_on channel=1 note=62 velocity=80 time=0.0008928583333333332@note_on channel=1 note=62 velocity=0 time=0.10625014166666666@note_on channel=0 note=67 velocity=0 time=0.10714299999999999@note_on channel=2 note=59 velocity=0 time=0@note_on channel=3 note=71 velocity=0 time=0@note_on channel=0 note=66 velocity=80 time=0.0008928583333333332@note_on channel=2 note=54 velocity=80 time=0@note_on channel=3 note=66 velocity=80 time=0@note_on channel=7 note=78 velocity=80 time=0@note_on channel=2 note=54 velocity=0 time=0.10625014166666666@note_on channel=3 note=66 velocity=0 time=0@note_on channel=7 note=78 velocity=0 time=0@note_on channel=2 note=56 velocity=80 time=0.0008928583333333332@note_on channel=3 note=68 velocity=80 time=0@note_on channel=5 note=50 velocity=80 time=0@note_on channel=6 note=50 velocity=80 time=0@note_on channel=0 note=66 velocity=0 time=0.21339314166666665@note_on channel=2 note=56 velocity=0 time=0@note_on channel=3 note=68 velocity=0 time=0@note_on channel=5 note=50 velocity=0 time=0@note_on channel=6 note=50 velocity=0 time=0@note_on channel=0 note=64 velocity=80 time=0.0008928583333333332@note_on channel=2 note=57 velocity=80 time=0@note_on channel=3 note=69 velocity=80 time=0@note_on channel=5 note=50 velocity=80 time=0@note_on channel=6 note=50 velocity=80 time=0@note_on channel=7 note=76 velocity=80 time=0@note_on channel=2 note=57 velocity=0 time=0.10625014166666666@note_on channel=3 note=69 velocity=0 time=0@note_on channel=5 note=50 velocity=0 time=0@note_on channel=6 note=50 velocity=0 time=0@note_on channel=1 note=62 velocity=80 time=0.0008928583333333332@note_on channel=2 note=56 velocity=80 time=0@note_on channel=3 note=68 velocity=80 time=0@note_on channel=5 note=47 velocity=80 time=0@note_on channel=6 note=47 velocity=80 time=0@note_on channel=1 note=62 velocity=0 time=0.10625014166666666@note_on channel=7 note=76 velocity=0 time=0@note_on channel=2 note=56 velocity=0 time=0.10714299999999999@note_on channel=3 note=68 velocity=0 time=0@note_on channel=5 note=47 velocity=0 time=0@note_on channel=6 note=47 velocity=0 time=0@note_on channel=2 note=54 velocity=80 time=0.0008928583333333332@note_on channel=3 note=66 velocity=80 time=0@note_on channel=5 note=47 velocity=80 time=0@note_on channel=6 note=47 velocity=80 time=0@note_on channel=0 note=64 velocity=0 time=0.10625014166666666@note_on channel=2 note=54 velocity=0 time=0@note_on channel=3 note=66 velocity=0 time=0@note_on channel=5 note=47 velocity=0 time=0@note_on channel=6 note=47 velocity=0 time=0@note_on channel=8 note=38 velocity=0 time=0@note_on channel=0 note=63 velocity=80 time=0.0008928583333333332@note_on channel=2 note=53 velocity=80 time=0@note_on channel=3 note=65 velocity=80 time=0@note_on channel=5 note=49 velocity=80 time=0@note_on channel=6 note=49 velocity=80 time=0@note_on channel=7 note=75 velocity=80 time=0@note_on channel=8 note=37 velocity=80 time=0@note_on channel=0 note=63 velocity=0 time=0.21339314166666665@note_on channel=2 note=53 velocity=0 time=0@note_on channel=3 note=65 velocity=0 time=0@note_on channel=5 note=49 velocity=0 time=0@note_on channel=6 note=49 velocity=0 time=0@note_on channel=7 note=75 velocity=0 time=0@note_on channel=0 note=65 velocity=80 time=0.0008928583333333332@note_on channel=2 note=54 velocity=80 time=0@note_on channel=3 note=66 velocity=80 time=0@note_on channel=5 note=49 velocity=80 time=0@note_on channel=6 note=49 velocity=80 time=0@note_on channel=7 note=77 velocity=80 time=0@note_on channel=2 note=54 velocity=0 time=0.10625014166666666@note_on channel=3 note=66 velocity=0 time=0@note_on channel=5 note=49 velocity=0 time=0@note_on channel=6 note=49 velocity=0 time=0@note_on channel=1 note=61 velocity=80 time=0.0008928583333333332@note_on channel=2 note=56 velocity=80 time=0@note_on channel=3 note=68 velocity=80 time=0@note_on channel=1 note=61 velocity=0 time=0.10625014166666666@note_on channel=7 note=77 velocity=0 time=0@note_on channel=0 note=65 velocity=0 time=0.10714299999999999@note_on channel=0 note=66 velocity=80 time=0.0008928583333333332@note_on channel=5 note=47 velocity=80 time=0@note_on channel=6 note=47 velocity=80 time=0@note_on channel=7 note=78 velocity=80 time=0@note_on channel=5 note=47 velocity=0 time=0.10625014166666666@note_on channel=6 note=47 velocity=0 time=0@note_on channel=5 note=49 velocity=80 time=0.0008928583333333332@note_on channel=6 note=49 velocity=80 time=0@note_on channel=5 note=49 velocity=0 time=0.21339314166666665@note_on channel=6 note=49 velocity=0 time=0@note_on channel=7 note=78 velocity=0 time=0@note_on channel=5 note=49 velocity=80 time=0.0008928583333333332@note_on channel=6 note=49 velocity=80 time=0@note_on channel=5 note=49 velocity=0 time=0.10625014166666666@note_on channel=6 note=49 velocity=0 time=0@note_on channel=1 note=61 velocity=80 time=0.0008928583333333332@note_on channel=5 note=44 velocity=80 time=0@note_on channel=6 note=44 velocity=80 time=0@note_on channel=1 note=61 velocity=0 time=0.10625014166666666@note_on channel=0 note=66 velocity=0 time=0.10714299999999999@note_on channel=2 note=56 velocity=0 time=0@note_on channel=3 note=68 velocity=0 time=0@note_on channel=5 note=44 velocity=0 time=0@note_on channel=6 note=44 velocity=0 time=0@note_on channel=0 note=65 velocity=80 time=0.0008928583333333332@note_on channel=2 note=56 velocity=80 time=0@note_on channel=3 note=68 velocity=80 time=0@note_on channel=5 note=44 velocity=80 time=0@note_on channel=6 note=44 velocity=80 time=0@note_on channel=7 note=77 velocity=80 time=0@note_on channel=0 note=65 velocity=0 time=0.05267864166666666@note_on channel=2 note=56 velocity=0 time=0@note_on channel=3 note=68 velocity=0 time=0@note_on channel=7 note=77 velocity=0 time=0@note_on channel=0 note=63 velocity=80 time=0.0008928583333333332@note_on channel=2 note=54 velocity=80 time=0@note_on channel=3 note=66 velocity=80 time=0@note_on channel=7 note=75 velocity=80 time=0@note_on channel=0 note=63 velocity=0 time=0.05267864166666666@note_on channel=2 note=54 velocity=0 time=0@note_on channel=3 note=66 velocity=0 time=0@note_on channel=5 note=44 velocity=0 time=0@note_on channel=6 note=44 velocity=0 time=0@note_on channel=7 note=75 velocity=0 time=0@note_on channel=0 note=65 velocity=80 time=0.0008928583333333332@note_on channel=2 note=56 velocity=80 time=0@note_on channel=3 note=68 velocity=80 time=0@note_on channel=5 note=49 velocity=80 time=0@note_on channel=6 note=49 velocity=80 time=0@note_on channel=7 note=77 velocity=80 time=0@note_on channel=5 note=49 velocity=0 time=0.21339314166666665@note_on channel=6 note=49 velocity=0 time=0@note_on channel=5 note=49 velocity=80 time=0.0008928583333333332@note_on channel=6 note=49 velocity=80 time=0@note_on channel=2 note=56 velocity=0 time=0.10625014166666666@note_on channel=3 note=68 velocity=0 time=0@note_on channel=5 note=49 velocity=0 time=0@note_on channel=6 note=49 velocity=0 time=0@note_on channel=7 note=77 velocity=0 time=0@note_on channel=1 note=61 velocity=80 time=0.0008928583333333332@note_on channel=2 note=53 velocity=80 time=0@note_on channel=3 note=65 velocity=80 time=0@note_on channel=7 note=73 velocity=80 time=0@note_on channel=1 note=61 velocity=0 time=0.10625014166666666@note_on channel=0 note=65 velocity=0 time=0.21428599999999998@note_on channel=2 note=53 velocity=0 time=0@note_on channel=3 note=65 velocity=0 time=0@note_on channel=7 note=73 velocity=0 time=0@note_on channel=0 note=61 velocity=80 time=0.0008928583333333332@note_on channel=2 note=56 velocity=80 time=0@note_on channel=3 note=68 velocity=80 time=0@note_on channel=7 note=68 velocity=80 time=0@note_on channel=2 note=56 velocity=0 time=0.21339314166666665@note_on channel=3 note=68 velocity=0 time=0@note_on channel=2 note=61 velocity=80 time=0.0008928583333333332@note_on channel=3 note=73 velocity=80 time=0@note_on channel=0 note=61 velocity=0 time=0.10625014166666666@note_on channel=7 note=68 velocity=0 time=0@note_on channel=0 note=56 velocity=80 time=0.0008928583333333332@note_on channel=1 note=61 velocity=80 time=0@note_on channel=5 note=44 velocity=80 time=0@note_on channel=6 note=44 velocity=80 time=0@note_on channel=7 note=65 velocity=80 time=0@note_on channel=1 note=61 velocity=0 time=0.10625014166666666@note_on channel=2 note=61 velocity=0 time=0@note_on channel=3 note=73 velocity=0 time=0@note_on channel=2 note=65 velocity=80 time=0.0008928583333333332@note_on channel=3 note=77 velocity=80 time=0@note_on channel=5 note=44 velocity=0 time=0.10625014166666666@note_on channel=6 note=44 velocity=0 time=0@note_on channel=5 note=44 velocity=80 time=0.0008928583333333332@note_on channel=6 note=44 velocity=80 time=0@note_on channel=0 note=56 velocity=0 time=0.10625014166666666@note_on channel=2 note=65 velocity=0 time=0@note_on channel=3 note=77 velocity=0 time=0@note_on channel=5 note=44 velocity=0 time=0@note_on channel=6 note=44 velocity=0 time=0@note_on channel=7 note=65 velocity=0 time=0@note_on channel=8 note=37 velocity=0 time=0@note_on channel=0 note=68 velocity=80 time=0.0008928583333333332@note_on channel=2 note=66 velocity=80 time=0@note_on channel=3 note=78 velocity=80 time=0@note_on channel=5 note=50 velocity=80 time=0@note_on channel=6 note=50 velocity=80 time=0@note_on channel=7 note=81 velocity=80 time=0@note_on channel=8 note=38 velocity=80 time=0@note_on channel=0 note=68 velocity=0 time=0.10625014166666666@note_on channel=0 note=69 velocity=80 time=0.0008928583333333332@note_on channel=0 note=69 velocity=0 time=0.10625014166666666@note_on channel=2 note=66 velocity=0 time=0@note_on channel=3 note=78 velocity=0 time=0@note_on channel=5 note=50 velocity=0 time=0@note_on channel=6 note=50 velocity=0 time=0@note_on channel=7 note=81 velocity=0 time=0@note_on channel=0 note=66 velocity=80 time=0.0008928583333333332@note_on channel=2 note=62 velocity=80 time=0@note_on channel=3 note=74 velocity=80 time=0@note_on channel=5 note=54 velocity=80 time=0@note_on channel=6 note=54 velocity=80 time=0@note_on channel=7 note=78 velocity=80 time=0@note_on channel=0 note=66 velocity=0 time=0.10625014166666666@note_on channel=2 note=62 velocity=0 time=0@note_on channel=3 note=74 velocity=0 time=0@note_on channel=5 note=54 velocity=0 time=0@note_on channel=6 note=54 velocity=0 time=0@note_on channel=7 note=78 velocity=0 time=0@note_on channel=0 note=71 velocity=80 time=0.0008928583333333332@note_on channel=1 note=62 velocity=80 time=0@note_on channel=2 note=68 velocity=80 time=0@note_on channel=3 note=80 velocity=80 time=0@note_on channel=7 note=83 velocity=80 time=0@note_on channel=1 note=62 velocity=0 time=0.10625014166666666@note_on channel=7 note=83 velocity=0 time=0.21428599999999998@note_on channel=0 note=71 velocity=0 time=0.32142899999999996@note_on channel=2 note=68 velocity=0 time=0@note_on channel=3 note=80 velocity=0 time=0@note_on channel=0 note=69 velocity=80 time=0.0008928583333333332@note_on channel=1 note=62 velocity=80 time=0@note_on channel=2 note=66 velocity=80 time=0@note_on channel=3 note=78 velocity=80 time=0@note_on channel=5 note=54 velocity=80 time=0@note_on channel=6 note=54 velocity=80 time=0@note_on channel=7 note=81 velocity=80 time=0@note_on channel=1 note=62 velocity=0 time=0.10625014166666666@note_on channel=0 note=69 velocity=0 time=0.10714299999999999@note_on channel=2 note=66 velocity=0 time=0@note_on channel=3 note=78 velocity=0 time=0@note_on channel=5 note=54 velocity=0 time=0@note_on channel=6 note=54 velocity=0 time=0@note_on channel=7 note=81 velocity=0 time=0@note_on channel=0 note=66 velocity=80 time=0.0008928583333333332@note_on channel=2 note=62 velocity=80 time=0@note_on channel=3 note=74 velocity=80 time=0@note_on channel=5 note=57 velocity=80 time=0@note_on channel=6 note=57 velocity=80 time=0@note_on channel=7 note=78 velocity=80 time=0@note_on channel=0 note=66 velocity=0 time=0.10625014166666666@note_on channel=2 note=62 velocity=0 time=0@note_on channel=3 note=74 velocity=0 time=0@note_on channel=7 note=78 velocity=0 time=0@note_on channel=0 note=71 velocity=80 time=0.0008928583333333332@note_on channel=2 note=68 velocity=80 time=0@note_on channel=3 note=80 velocity=80 time=0@note_on channel=7 note=83 velocity=80 time=0@note_on channel=0 note=71 velocity=0 time=0.21339314166666665@note_on channel=2 note=68 velocity=0 time=0@note_on channel=3 note=80 velocity=0 time=0@note_on channel=7 note=83 velocity=0 time=0@note_on channel=0 note=73 velocity=80 time=0.0008928583333333332@note_on channel=2 note=69 velocity=80 time=0@note_on channel=3 note=81 velocity=80 time=0@note_on channel=7 note=85 velocity=80 time=0@note_on channel=1 note=62 velocity=80 time=0.10714299999999999@note_on channel=1 note=62 velocity=0 time=0.10625014166666666@note_on channel=7 note=85 velocity=0 time=0.10714299999999999@note_on channel=0 note=73 velocity=0 time=0.10714299999999999@note_on channel=2 note=69 velocity=0 time=0@note_on channel=3 note=81 velocity=0 time=0@note_on channel=5 note=57 velocity=0 time=0@note_on channel=6 note=57 velocity=0 time=0@note_on channel=0 note=71 velocity=80 time=0.0008928583333333332@note_on channel=2 note=68 velocity=80 time=0@note_on channel=3 note=80 velocity=80 time=0@note_on channel=5 note=56 velocity=80 time=0@note_on channel=6 note=56 velocity=80 time=0@note_on channel=7 note=83 velocity=80 time=0@note_on channel=0 note=71 velocity=0 time=0.21339314166666665@note_on channel=2 note=68 velocity=0 time=0@note_on channel=3 note=80 velocity=0 time=0@note_on channel=5 note=56 velocity=0 time=0@note_on channel=6 note=56 velocity=0 time=0@note_on channel=7 note=83 velocity=0 time=0@note_on channel=0 note=69 velocity=80 time=0.0008928583333333332@note_on channel=2 note=66 velocity=80 time=0@note_on channel=3 note=78 velocity=80 time=0@note_on channel=5 note=57 velocity=80 time=0@note_on channel=6 note=57 velocity=80 time=0@note_on channel=7 note=81 velocity=80 time=0@note_on channel=0 note=69 velocity=0 time=0.10625014166666666@note_on channel=2 note=66 velocity=0 time=0@note_on channel=3 note=78 velocity=0 time=0@note_on channel=5 note=57 velocity=0 time=0@note_on channel=6 note=57 velocity=0 time=0@note_on channel=7 note=81 velocity=0 time=0@note_on channel=0 note=68 velocity=80 time=0.0008928583333333332@note_on channel=1 note=62 velocity=80 time=0@note_on channel=2 note=65 velocity=80 time=0@note_on channel=3 note=77 velocity=80 time=0@note_on channel=5 note=56 velocity=80 time=0@note_on channel=6 note=56 velocity=80 time=0@note_on channel=7 note=80 velocity=80 time=0@note_on channel=1 note=62 velocity=0 time=0.10625014166666666@note_on channel=0 note=68 velocity=0 time=0.10714299999999999@note_on channel=2 note=65 velocity=0 time=0@note_on channel=3 note=77 velocity=0 time=0@note_on channel=5 note=56 velocity=0 time=0@note_on channel=6 note=56 velocity=0 time=0@note_on channel=7 note=80 velocity=0 time=0@note_on channel=0 note=61 velocity=80 time=0.0008928583333333332@note_on channel=2 note=66 velocity=80 time=0@note_on channel=3 note=78 velocity=80 time=0@note_on channel=5 note=54 velocity=80 time=0@note_on channel=6 note=54 velocity=80 time=0@note_on channel=7 note=81 velocity=80 time=0@note_on channel=0 note=61 velocity=0 time=0.10625014166666666@note_on channel=2 note=66 velocity=0 time=0@note_on channel=3 note=78 velocity=0 time=0@note_on channel=5 note=54 velocity=0 time=0@note_on channel=6 note=54 velocity=0 time=0@note_on channel=7 note=81 velocity=0 time=0@note_on channel=8 note=38 velocity=0 time=0@note_on channel=0 note=68 velocity=80 time=0.0008928583333333332@note_on channel=2 note=66 velocity=80 time=0@note_on channel=3 note=78 velocity=80 time=0@note_on channel=5 note=49 velocity=80 time=0@note_on channel=6 note=49 velocity=80 time=0@note_on channel=7 note=83 velocity=80 time=0@note_on channel=8 note=37 velocity=80 time=0@note_on channel=0 note=68 velocity=0 time=0.10625014166666666@note_on channel=2 note=66 velocity=0 time=0@note_on channel=3 note=78 velocity=0 time=0@note_on channel=0 note=69 velocity=80 time=0.0008928583333333332@note_on channel=2 note=68 velocity=80 time=0@note_on channel=3 note=80 velocity=80 time=0@note_on channel=0 note=69 velocity=0 time=0.10625014166666666@note_on channel=2 note=68 velocity=0 time=0@note_on channel=3 note=80 velocity=0 time=0@note_on channel=5 note=49 velocity=0 time=0@note_on channel=6 note=49 velocity=0 time=0@note_on channel=7 note=83 velocity=0 time=0@note_on channel=0 note=68 velocity=80 time=0.0008928583333333332@note_on channel=2 note=61 velocity=80 time=0@note_on channel=3 note=73 velocity=80 time=0@note_on channel=5 note=53 velocity=80 time=0@note_on channel=6 note=53 velocity=80 time=0@note_on channel=7 note=81 velocity=80 time=0@note_on channel=2 note=61 velocity=0 time=0.10625014166666666@note_on channel=3 note=73 velocity=0 time=0@note_on channel=1 note=61 velocity=80 time=0.0008928583333333332@note_on channel=2 note=65 velocity=80 time=0@note_on channel=3 note=77 velocity=80 time=0@note_on channel=1 note=61 velocity=0 time=0.10625014166666666@note_on channel=7 note=81 velocity=0 time=0@note_on channel=0 note=68 velocity=0 time=0.10714299999999999@note_on channel=2 note=65 velocity=0 time=0@note_on channel=3 note=77 velocity=0 time=0@note_on channel=5 note=53 velocity=0 time=0@note_on channel=6 note=53 velocity=0 time=0@note_on channel=0 note=68 velocity=80 time=0.0008928583333333332@note_on channel=2 note=61 velocity=80 time=0@note_on channel=3 note=73 velocity=80 time=0@note_on channel=5 note=49 velocity=80 time=0@note_on channel=6 note=49 velocity=80 time=0@note_on channel=7 note=80 velocity=80 time=0@note_on channel=2 note=61 velocity=0 time=0.10625014166666666@note_on channel=3 note=73 velocity=0 time=0@note_on channel=5 note=49 velocity=0 time=0@note_on channel=6 note=49 velocity=0 time=0@note_on channel=2 note=68 velocity=80 time=0.0008928583333333332@note_on channel=3 note=80 velocity=80 time=0@note_on channel=5 note=56 velocity=80 time=0@note_on channel=6 note=56 velocity=80 time=0@note_on channel=0 note=68 velocity=0 time=0.21339314166666665@note_on channel=2 note=68 velocity=0 time=0@note_on channel=3 note=80 velocity=0 time=0@note_on channel=5 note=56 velocity=0 time=0@note_on channel=6 note=56 velocity=0 time=0@note_on channel=7 note=80 velocity=0 time=0@note_on channel=0 note=66 velocity=80 time=0.0008928583333333332@note_on channel=2 note=61 velocity=80 time=0@note_on channel=3 note=73 velocity=80 time=0@note_on channel=5 note=49 velocity=80 time=0@note_on channel=6 note=49 velocity=80 time=0@note_on channel=7 note=78 velocity=80 time=0@note_on channel=1 note=61 velocity=80 time=0.10714299999999999@note_on channel=1 note=61 velocity=0 time=0.10625014166666666@note_on channel=0 note=66 velocity=0 time=0.21428599999999998@note_on channel=2 note=61 velocity=0 time=0@note_on channel=3 note=73 velocity=0 time=0@note_on channel=5 note=49 velocity=0 time=0@note_on channel=6 note=49 velocity=0 time=0@note_on channel=7 note=78 velocity=0 time=0@note_on channel=0 note=65 velocity=80 time=0.0008928583333333332@note_on channel=2 note=69 velocity=80 time=0@note_on channel=3 note=81 velocity=80 time=0@note_on channel=5 note=53 velocity=80 time=0@note_on channel=6 note=53 velocity=80 time=0@note_on channel=7 note=77 velocity=80 time=0@note_on channel=5 note=53 velocity=0 time=0.21339314166666665@note_on channel=6 note=53 velocity=0 time=0@note_on channel=5 note=49 velocity=80 time=0.0008928583333333332@note_on channel=6 note=49 velocity=80 time=0@note_on channel=2 note=69 velocity=0 time=0.10625014166666666@note_on channel=3 note=81 velocity=0 time=0@note_on channel=5 note=49 velocity=0 time=0@note_on channel=6 note=49 velocity=0 time=0@note_on channel=7 note=77 velocity=0 time=0@note_on channel=1 note=61 velocity=80 time=0.0008928583333333332@note_on channel=2 note=68 velocity=80 time=0@note_on channel=3 note=80 velocity=80 time=0@note_on channel=5 note=54 velocity=80 time=0@note_on channel=6 note=54 velocity=80 time=0@note_on channel=1 note=61 velocity=0 time=0.10625014166666666@note_on channel=0 note=65 velocity=0 time=0.10714299999999999@note_on channel=5 note=54 velocity=0 time=0@note_on channel=6 note=54 velocity=0 time=0@note_on channel=0 note=65 velocity=80 time=0.0008928583333333332@note_on channel=5 note=49 velocity=80 time=0@note_on channel=6 note=49 velocity=80 time=0@note_on channel=7 note=77 velocity=80 time=0@note_on channel=2 note=68 velocity=0 time=0.10625014166666666@note_on channel=3 note=80 velocity=0 time=0@note_on channel=5 note=49 velocity=0 time=0@note_on channel=6 note=49 velocity=0 time=0@note_on channel=7 note=77 velocity=0 time=0@note_on channel=2 note=66 velocity=80 time=0.0008928583333333332@note_on channel=3 note=78 velocity=80 time=0@note_on channel=5 note=53 velocity=80 time=0@note_on channel=6 note=53 velocity=80 time=0@note_on channel=0 note=65 velocity=0 time=0.21339314166666665@note_on channel=5 note=53 velocity=0 time=0@note_on channel=6 note=53 velocity=0 time=0@note_on channel=0 note=66 velocity=80 time=0.0008928583333333332@note_on channel=5 note=47 velocity=80 time=0@note_on channel=6 note=47 velocity=80 time=0@note_on channel=7 note=78 velocity=80 time=0@note_on channel=0 note=66 velocity=0 time=0.10625014166666666@note_on channel=2 note=66 velocity=0 time=0@note_on channel=3 note=78 velocity=0 time=0@note_on channel=5 note=47 velocity=0 time=0@note_on channel=6 note=47 velocity=0 time=0@note_on channel=7 note=78 velocity=0 time=0@note_on channel=0 note=67 velocity=80 time=0.0008928583333333332@note_on channel=1 note=61 velocity=80 time=0@note_on channel=2 note=65 velocity=80 time=0@note_on channel=3 note=77 velocity=80 time=0@note_on channel=5 note=49 velocity=80 time=0@note_on channel=6 note=49 velocity=80 time=0@note_on channel=7 note=80 velocity=80 time=0@note_on channel=1 note=61 velocity=0 time=0.10625014166666666@note_on channel=0 note=67 velocity=0 time=0.21428599999999998@note_on channel=2 note=65 velocity=0 time=0@note_on channel=3 note=77 velocity=0 time=0@note_on channel=5 note=49 velocity=0 time=0@note_on channel=6 note=49 velocity=0 time=0@note_on channel=7 note=80 velocity=0 time=0@note_on channel=8 note=37 velocity=0 time=0@note_on channel=0 note=71 velocity=80 time=0.0008928583333333332@note_on channel=2 note=59 velocity=80 time=0@note_on channel=3 note=71 velocity=80 time=0@note_on channel=5 note=52 velocity=80 time=0@note_on channel=6 note=52 velocity=80 time=0@note_on channel=7 note=83 velocity=80 time=0@note_on channel=8 note=47 velocity=80 time=0@note_on channel=0 note=71 velocity=0 time=0.21339314166666665@note_on channel=2 note=59 velocity=0 time=0@note_on channel=3 note=71 velocity=0 time=0@note_on channel=5 note=52 velocity=0 time=0@note_on channel=6 note=52 velocity=0 time=0@note_on channel=0 note=67 velocity=80 time=0.0008928583333333332@note_on channel=2 note=55 velocity=80 time=0@note_on channel=3 note=67 velocity=80 time=0@note_on channel=5 note=52 velocity=80 time=0@note_on channel=6 note=52 velocity=80 time=0@note_on channel=0 note=67 velocity=0 time=0.10625014166666666@note_on channel=2 note=55 velocity=0 time=0@note_on channel=3 note=67 velocity=0 time=0@note_on channel=0 note=73 velocity=80 time=0.0008928583333333332@note_on channel=1 note=64 velocity=80 time=0@note_on channel=2 note=61 velocity=80 time=0@note_on channel=3 note=73 velocity=80 time=0@note_on channel=1 note=64 velocity=0 time=0.10625014166666666@note_on channel=5 note=52 velocity=0 time=0@note_on channel=6 note=52 velocity=0 time=0@note_on channel=0 note=73 velocity=0 time=0.42857199999999995@note_on channel=0 note=71 velocity=80 time=0.0008928583333333332@note_on channel=0 note=71 velocity=0 time=0.10625014166666666@note_on channel=2 note=61 velocity=0 time=0@note_on channel=3 note=73 velocity=0 time=0@note_on channel=7 note=83 velocity=0 time=0@note_on channel=0 note=74 velocity=80 time=0.0008928583333333332@note_on channel=1 note=64 velocity=80 time=0@note_on channel=2 note=62 velocity=80 time=0@note_on channel=3 note=74 velocity=80 time=0@note_on channel=5 note=47 velocity=80 time=0@note_on channel=6 note=47 velocity=80 time=0@note_on channel=1 note=64 velocity=0 time=0.10625014166666666@note_on channel=2 note=62 velocity=0 time=0.10714299999999999@note_on channel=3 note=74 velocity=0 time=0@note_on channel=2 note=67 velocity=80 time=0.0008928583333333332@note_on channel=3 note=79 velocity=80 time=0@note_on channel=0 note=74 velocity=0 time=0.10625014166666666@note_on channel=2 note=67 velocity=0 time=0@note_on channel=3 note=79 velocity=0 time=0@note_on channel=5 note=47 velocity=0 time=0@note_on channel=6 note=47 velocity=0 time=0@note_on channel=0 note=74 velocity=80 time=0.0008928583333333332@note_on channel=2 note=59 velocity=80 time=0@note_on channel=3 note=71 velocity=80 time=0@note_on channel=5 note=52 velocity=80 time=0@note_on channel=6 note=52 velocity=80 time=0@note_on channel=0 note=74 velocity=0 time=0.21339314166666665@note_on channel=2 note=59 velocity=0 time=0@note_on channel=3 note=71 velocity=0 time=0@note_on channel=5 note=52 velocity=0 time=0@note_on channel=6 note=52 velocity=0 time=0@note_on channel=0 note=76 velocity=80 time=0.0008928583333333332@note_on channel=2 note=61 velocity=80 time=0@note_on channel=3 note=73 velocity=80 time=0@note_on channel=5 note=52 velocity=80 time=0@note_on channel=6 note=52 velocity=80 time=0@note_on channel=0 note=76 velocity=0 time=0.10535728333333332@note_on channel=2 note=61 velocity=0 time=0@note_on channel=3 note=73 velocity=0 time=0@note_on channel=0 note=74 velocity=80 time=0.0017857166666666664@note_on channel=1 note=64 velocity=80 time=0@note_on channel=2 note=59 velocity=80 time=0@note_on channel=3 note=71 velocity=80 time=0@note_on channel=1 note=64 velocity=0 time=0.10625014166666666@note_on channel=5 note=52 velocity=0 time=0@note_on channel=6 note=52 velocity=0 time=0@note_on channel=0 note=74 velocity=0 time=0.21428599999999998@note_on channel=2 note=59 velocity=0 time=0@note_on channel=3 note=71 velocity=0 time=0@note_on channel=0 note=73 velocity=80 time=0.0008928583333333332@note_on channel=2 note=57 velocity=80 time=0@note_on channel=3 note=69 velocity=80 time=0@note_on channel=5 note=52 velocity=80 time=0@note_on channel=6 note=52 velocity=80 time=0@note_on channel=0 note=73 velocity=0 time=0.21339314166666665@note_on channel=2 note=57 velocity=0 time=0@note_on channel=3 note=69 velocity=0 time=0@note_on channel=5 note=52 velocity=0 time=0@note_on channel=6 note=52 velocity=0 time=0@note_on channel=0 note=74 velocity=80 time=0.0008928583333333332@note_on channel=2 note=59 velocity=80 time=0@note_on channel=3 note=71 velocity=80 time=0@note_on channel=5 note=52 velocity=80 time=0@note_on channel=6 note=52 velocity=80 time=0@note_on channel=0 note=74 velocity=0 time=0.10625014166666666@note_on channel=2 note=59 velocity=0 time=0@note_on channel=3 note=71 velocity=0 time=0@note_on channel=0 note=71 velocity=80 time=0.0008928583333333332@note_on channel=1 note=64 velocity=80 time=0@note_on channel=2 note=55 velocity=80 time=0@note_on channel=3 note=67 velocity=80 time=0@note_on channel=1 note=64 velocity=0 time=0.10625014166666666@note_on channel=5 note=52 velocity=0 time=0@note_on channel=6 note=52 velocity=0 time=0@note_on channel=8 note=47 velocity=0 time=0.10714299999999999@note_on channel=7 note=79 velocity=80 time=0.0008928583333333332@note_on channel=8 note=43 velocity=80 time=0@note_on channel=0 note=71 velocity=0 time=0.10625014166666666@note_on channel=2 note=55 velocity=0 time=0@note_on channel=3 note=67 velocity=0 time=0@note_on channel=7 note=79 velocity=0 time=0@note_on channel=8 note=43 velocity=0 time=0@note_on channel=0 note=69 velocity=80 time=0.0008928583333333332@note_on channel=2 note=55 velocity=80 time=0@note_on channel=3 note=67 velocity=80 time=0@note_on channel=5 note=52 velocity=80 time=0@note_on channel=6 note=52 velocity=80 time=0@note_on channel=7 note=83 velocity=80 time=0@note_on channel=8 note=47 velocity=80 time=0@note_on channel=2 note=55 velocity=0 time=0.21339314166666665@note_on channel=3 note=67 velocity=0 time=0@note_on channel=5 note=52 velocity=0 time=0@note_on channel=6 note=52 velocity=0 time=0@note_on channel=2 note=52 velocity=80 time=0.0008928583333333332@note_on channel=3 note=64 velocity=80 time=0@note_on channel=5 note=52 velocity=80 time=0@note_on channel=6 note=52 velocity=80 time=0@note_on channel=0 note=69 velocity=0 time=0.10625014166666666@note_on channel=2 note=52 velocity=0 time=0@note_on channel=3 note=64 velocity=0 time=0@note_on channel=0 note=71 velocity=80 time=0.0008928583333333332@note_on channel=1 note=61 velocity=80 time=0@note_on channel=2 note=57 velocity=80 time=0@note_on channel=3 note=69 velocity=80 time=0@note_on channel=1 note=61 velocity=0 time=0.10625014166666666@note_on channel=5 note=52 velocity=0 time=0@note_on channel=6 note=52 velocity=0 time=0@note_on channel=0 note=71 velocity=0 time=0.21428599999999998@note_on channel=7 note=83 velocity=0 time=0@note_on channel=0 note=69 velocity=80 time=0.2151788583333333@note_on channel=0 note=69 velocity=0 time=0.10625014166666666@note_on channel=2 note=57 velocity=0 time=0@note_on channel=3 note=69 velocity=0 time=0@note_on channel=0 note=71 velocity=80 time=0.0008928583333333332@note_on channel=1 note=61 velocity=80 time=0@note_on channel=2 note=57 velocity=80 time=0@note_on channel=3 note=69 velocity=80 time=0@note_on channel=5 note=47 velocity=80 time=0@note_on channel=6 note=47 velocity=80 time=0@note_on channel=1 note=61 velocity=0 time=0.10625014166666666@note_on channel=0 note=71 velocity=0 time=0.10714299999999999@note_on channel=2 note=57 velocity=0 time=0@note_on channel=3 note=69 velocity=0 time=0@note_on channel=0 note=69 velocity=80 time=0.0008928583333333332@note_on channel=2 note=55 velocity=80 time=0@note_on channel=3 note=67 velocity=80 time=0@note_on channel=0 note=69 velocity=0 time=0.10625014166666666@note_on channel=2 note=55 velocity=0 time=0@note_on channel=3 note=67 velocity=0 time=0@note_on channel=5 note=47 velocity=0 time=0@note_on channel=6 note=47 velocity=0 time=0@note_on channel=8 note=47 velocity=0 time=0@note_on channel=0 note=73 velocity=80 time=0.0008928583333333332@note_on channel=2 note=55 velocity=80 time=0@note_on channel=3 note=67 velocity=80 time=0@note_on channel=5 note=52 velocity=80 time=0@note_on channel=6 note=52 velocity=80 time=0@note_on channel=7 note=81 velocity=80 time=0@note_on channel=8 note=45 velocity=80 time=0@note_on channel=2 note=55 velocity=0 time=0.21339314166666665@note_on channel=3 note=67 velocity=0 time=0@note_on channel=5 note=52 velocity=0 time=0@note_on channel=6 note=52 velocity=0 time=0@note_on channel=2 note=57 velocity=80 time=0.0008928583333333332@note_on channel=3 note=69 velocity=80 time=0@note_on channel=5 note=52 velocity=80 time=0@note_on channel=6 note=52 velocity=80 time=0@note_on channel=0 note=73 velocity=0 time=0.10625014166666666@note_on channel=0 note=71 velocity=80 time=0.0008928583333333332@note_on channel=1 note=61 velocity=80 time=0@note_on channel=1 note=61 velocity=0 time=0.10625014166666666@note_on channel=5 note=52 velocity=0 time=0@note_on channel=6 note=52 velocity=0 time=0@note_on channel=2 note=57 velocity=0 time=0.10714299999999999@note_on channel=3 note=69 velocity=0 time=0@note_on channel=2 note=55 velocity=80 time=0.0008928583333333332@note_on channel=3 note=67 velocity=80 time=0@note_on channel=0 note=71 velocity=0 time=0.10625014166666666@note_on channel=7 note=81 velocity=0 time=0@note_on channel=0 note=69 velocity=80 time=0.0008928583333333332@note_on channel=7 note=79 velocity=80 time=0@note_on channel=0 note=69 velocity=0 time=0.21339314166666665@note_on channel=2 note=55 velocity=0 time=0@note_on channel=3 note=67 velocity=0 time=0@note_on channel=0 note=71 velocity=80 time=0.0008928583333333332@note_on channel=2 note=57 velocity=80 time=0@note_on channel=3 note=69 velocity=80 time=0@note_on channel=0 note=71 velocity=0 time=0.10625014166666666@note_on channel=2 note=57 velocity=0 time=0@note_on channel=3 note=69 velocity=0 time=0@note_on channel=7 note=79 velocity=0 time=0@note_on channel=0 note=73 velocity=80 time=0.0008928583333333332@note_on channel=1 note=61 velocity=80 time=0@note_on channel=2 note=55 velocity=80 time=0@note_on channel=3 note=67 velocity=80 time=0@note_on channel=7 note=76 velocity=80 time=0@note_on channel=1 note=61 velocity=0 time=0.10625014166666666@note_on channel=2 note=55 velocity=0 time=0.10714299999999999@note_on channel=3 note=67 velocity=0 time=0@note_on channel=2 note=54 velocity=80 time=0.0008928583333333332@note_on channel=3 note=66 velocity=80 time=0@note_on channel=0 note=73 velocity=0 time=0.10625014166666666@note_on channel=2 note=54 velocity=0 time=0@note_on channel=3 note=66 velocity=0 time=0@note_on channel=7 note=76 velocity=0 time=0@note_on channel=8 note=45 velocity=0 time=0@note_on channel=0 note=64 velocity=80 time=0.0008928583333333332@note_on channel=1 note=64 velocity=80 time=0@note_on channel=5 note=52 velocity=80 time=0@note_on channel=6 note=52 velocity=80 time=0@note_on channel=7 note=88 velocity=80 time=0@note_on channel=8 note=52 velocity=80 time=0@note_on channel=5 note=52 velocity=0 time=0.21339314166666665@note_on channel=6 note=52 velocity=0 time=0@note_on channel=8 note=52 velocity=0 time=0@note_on channel=5 note=40 velocity=80 time=0.0008928583333333332@note_on channel=5 note=52 velocity=80 time=0@note_on channel=6 note=40 velocity=80 time=0@note_on channel=6 note=52 velocity=80 time=0@note_on channel=8 note=40 velocity=80 time=0@note_on channel=8 note=52 velocity=80 time=0@note_on channel=5 note=40 velocity=0 time=0.3205361416666666@note_on channel=5 note=52 velocity=0 time=0@note_on channel=6 note=40 velocity=0 time=0@note_on channel=6 note=52 velocity=0 time=0@note_on channel=8 note=40 velocity=0 time=0@note_on channel=8 note=52 velocity=0 time=0@note_on channel=5 note=40 velocity=80 time=0.0008928583333333332@note_on channel=5 note=52 velocity=80 time=0@note_on channel=6 note=40 velocity=80 time=0@note_on channel=6 note=52 velocity=80 time=0@note_on channel=8 note=40 velocity=80 time=0@note_on channel=8 note=52 velocity=80 time=0@note_on channel=0 note=64 velocity=0 time=0.10625014166666666@note_on channel=1 note=64 velocity=0 time=0@note_on channel=7 note=88 velocity=0 time=0@note_on channel=0 note=67 velocity=80 time=0.0008928583333333332@note_on channel=1 note=67 velocity=80 time=0@note_on channel=5 note=40 velocity=0 time=0.21339314166666665@note_on channel=5 note=52 velocity=0 time=0@note_on channel=6 note=40 velocity=0 time=0@note_on channel=6 note=52 velocity=0 time=0@note_on channel=8 note=40 velocity=0 time=0@note_on channel=8 note=52 velocity=0 time=0@note_on channel=5 note=40 velocity=80 time=0.0008928583333333332@note_on channel=5 note=52 velocity=80 time=0@note_on channel=6 note=40 velocity=80 time=0@note_on channel=6 note=52 velocity=80 time=0@note_on channel=8 note=40 velocity=80 time=0@note_on channel=8 note=52 velocity=80 time=0@note_on channel=5 note=40 velocity=0 time=0.3205361416666666@note_on channel=5 note=52 velocity=0 time=0@note_on channel=6 note=40 velocity=0 time=0@note_on channel=6 note=52 velocity=0 time=0@note_on channel=8 note=40 velocity=0 time=0@note_on channel=8 note=52 velocity=0 time=0@note_on channel=5 note=40 velocity=80 time=0.0008928583333333332@note_on channel=5 note=52 velocity=80 time=0@note_on channel=6 note=40 velocity=80 time=0@note_on channel=6 note=52 velocity=80 time=0@note_on channel=8 note=40 velocity=80 time=0@note_on channel=8 note=52 velocity=80 time=0@note_on channel=0 note=67 velocity=0 time=0.10625014166666666@note_on channel=1 note=67 velocity=0 time=0@note_on channel=5 note=40 velocity=0 time=0@note_on channel=5 note=52 velocity=0 time=0@note_on channel=6 note=40 velocity=0 time=0@note_on channel=6 note=52 velocity=0 time=0@note_on channel=8 note=40 velocity=0 time=0@note_on channel=8 note=52 velocity=0 time=0@note_on channel=0 note=66 velocity=80 time=0.0008928583333333332@note_on channel=1 note=66 velocity=80 time=0@note_on channel=5 note=52 velocity=80 time=0@note_on channel=6 note=52 velocity=80 time=0@note_on channel=8 note=52 velocity=80 time=0@note_on channel=5 note=52 velocity=0 time=0.21339314166666665@note_on channel=6 note=52 velocity=0 time=0@note_on channel=8 note=52 velocity=0 time=0@note_on channel=5 note=40 velocity=80 time=0.0008928583333333332@note_on channel=5 note=52 velocity=80 time=0@note_on channel=6 note=40 velocity=80 time=0@note_on channel=6 note=52 velocity=80 time=0@note_on channel=8 note=40 velocity=80 time=0@note_on channel=8 note=52 velocity=80 time=0@note_on channel=5 note=40 velocity=0 time=0.3205361416666666@note_on channel=5 note=52 velocity=0 time=0@note_on channel=6 note=40 velocity=0 time=0@note_on channel=6 note=52 velocity=0 time=0@note_on channel=8 note=40 velocity=0 time=0@note_on channel=8 note=52 velocity=0 time=0@note_on channel=5 note=40 velocity=80 time=0.0008928583333333332@note_on channel=5 note=52 velocity=80 time=0@note_on channel=6 note=40 velocity=80 time=0@note_on channel=6 note=52 velocity=80 time=0@note_on channel=8 note=40 velocity=80 time=0@note_on channel=8 note=52 velocity=80 time=0@note_on channel=0 note=66 velocity=0 time=0.10625014166666666@note_on channel=1 note=66 velocity=0 time=0@note_on channel=0 note=65 velocity=80 time=0.0008928583333333332@note_on channel=1 note=65 velocity=80 time=0@note_on channel=0 note=65 velocity=0 time=0.21339314166666665@note_on channel=1 note=65 velocity=0 time=0@note_on channel=5 note=40 velocity=0 time=0@note_on channel=5 note=52 velocity=0 time=0@note_on channel=6 note=40 velocity=0 time=0@note_on channel=6 note=52 velocity=0 time=0@note_on channel=8 note=40 velocity=0 time=0@note_on channel=8 note=52 velocity=0 time=0@note_on channel=0 note=65 velocity=80 time=0.0008928583333333332@note_on channel=1 note=65 velocity=80 time=0@note_on channel=5 note=40 velocity=80 time=0@note_on channel=5 note=52 velocity=80 time=0@note_on channel=6 note=40 velocity=80 time=0@note_on channel=6 note=52 velocity=80 time=0@note_on channel=8 note=40 velocity=80 time=0@note_on channel=8 note=52 velocity=80 time=0@note_on channel=5 note=40 velocity=0 time=0.10625014166666666@note_on channel=5 note=52 velocity=0 time=0@note_on channel=6 note=40 velocity=0 time=0@note_on channel=6 note=52 velocity=0 time=0@note_on channel=8 note=40 velocity=0 time=0@note_on channel=8 note=52 velocity=0 time=0@note_on channel=5 note=47 velocity=80 time=0.0008928583333333332@note_on channel=6 note=47 velocity=80 time=0@note_on channel=8 note=47 velocity=80 time=0@note_on channel=0 note=65 velocity=0 time=0.10625014166666666@note_on channel=1 note=65 velocity=0 time=0@note_on channel=5 note=47 velocity=0 time=0@note_on channel=6 note=47 velocity=0 time=0@note_on channel=8 note=47 velocity=0 time=0@note_on channel=0 note=65 velocity=80 time=0.0008928583333333332@note_on channel=1 note=65 velocity=80 time=0@note_on channel=5 note=52 velocity=80 time=0@note_on channel=6 note=52 velocity=80 time=0@note_on channel=8 note=52 velocity=80 time=0@note_on channel=5 note=52 velocity=0 time=0.10625014166666666@note_on channel=6 note=52 velocity=0 time=0@note_on channel=8 note=52 velocity=0 time=0@note_on channel=5 note=40 velocity=80 time=0.0008928583333333332@note_on channel=6 note=40 velocity=80 time=0@note_on channel=8 note=40 velocity=80 time=0@note_on channel=0 note=65 velocity=0 time=0.10625014166666666@note_on channel=1 note=65 velocity=0 time=0@note_on channel=5 note=40 velocity=0 time=0@note_on channel=6 note=40 velocity=0 time=0@note_on channel=8 note=40 velocity=0 time=0@note_on channel=0 note=64 velocity=80 time=0.0008928583333333332@note_on channel=1 note=64 velocity=80 time=0@note_on channel=5 note=47 velocity=80 time=0@note_on channel=6 note=47 velocity=80 time=0@note_on channel=8 note=47 velocity=80 time=0@note_on channel=5 note=47 velocity=0 time=0.10625014166666666@note_on channel=6 note=47 velocity=0 time=0@note_on channel=8 note=47 velocity=0 time=0@note_on channel=5 note=52 velocity=80 time=0.0008928583333333332@note_on channel=6 note=52 velocity=80 time=0@note_on channel=8 note=52 velocity=80 time=0@note_on channel=5 note=52 velocity=0 time=0.10625014166666666@note_on channel=6 note=52 velocity=0 time=0@note_on channel=8 note=52 velocity=0 time=0@note_on channel=5 note=40 velocity=80 time=0.0008928583333333332@note_on channel=6 note=40 velocity=80 time=0@note_on channel=8 note=40 velocity=80 time=0@note_on channel=0 note=64 velocity=0 time=0.10625014166666666@note_on channel=1 note=64 velocity=0 time=0@note_on channel=0 note=59 velocity=80 time=0.0008928583333333332@note_on channel=1 note=59 velocity=80 time=0@note_on channel=5 note=40 velocity=0 time=0.21339314166666665@note_on channel=6 note=40 velocity=0 time=0@note_on channel=8 note=40 velocity=0 time=0@note_on channel=5 note=40 velocity=80 time=0.0008928583333333332@note_on channel=5 note=52 velocity=80 time=0@note_on channel=6 note=40 velocity=80 time=0@note_on channel=6 note=52 velocity=80 time=0@note_on channel=8 note=40 velocity=80 time=0@note_on channel=8 note=52 velocity=80 time=0@note_on channel=0 note=59 velocity=0 time=0.10625014166666666@note_on channel=1 note=59 velocity=0 time=0@note_on channel=0 note=62 velocity=80 time=0.0008928583333333332@note_on channel=1 note=64 velocity=80 time=0@note_on channel=5 note=40 velocity=0 time=0.21339314166666665@note_on channel=5 note=52 velocity=0 time=0@note_on channel=6 note=40 velocity=0 time=0@note_on channel=6 note=52 velocity=0 time=0@note_on channel=8 note=40 velocity=0 time=0@note_on channel=8 note=52 velocity=0 time=0@note_on channel=5 note=40 velocity=80 time=0.0008928583333333332@note_on channel=5 note=52 velocity=80 time=0@note_on channel=6 note=40 velocity=80 time=0@note_on channel=6 note=52 velocity=80 time=0@note_on channel=8 note=40 velocity=80 time=0@note_on channel=8 note=52 velocity=80 time=0@note_on channel=0 note=62 velocity=0 time=0.10625014166666666@note_on channel=1 note=64 velocity=0 time=0@note_on channel=0 note=57 velocity=80 time=0.0008928583333333332@note_on channel=1 note=57 velocity=80 time=0@note_on channel=5 note=40 velocity=0 time=0.21339314166666665@note_on channel=5 note=52 velocity=0 time=0@note_on channel=6 note=40 velocity=0 time=0@note_on channel=6 note=52 velocity=0 time=0@note_on channel=8 note=40 velocity=0 time=0@note_on channel=8 note=52 velocity=0 time=0@note_on channel=5 note=40 velocity=80 time=0.0008928583333333332@note_on channel=5 note=52 velocity=80 time=0@note_on channel=6 note=40 velocity=80 time=0@note_on channel=6 note=52 velocity=80 time=0@note_on channel=8 note=40 velocity=80 time=0@note_on channel=8 note=52 velocity=80 time=0@note_on channel=0 note=57 velocity=0 time=0.10625014166666666@note_on channel=1 note=57 velocity=0 time=0@note_on channel=5 note=40 velocity=0 time=0@note_on channel=5 note=52 velocity=0 time=0@note_on channel=6 note=40 velocity=0 time=0@note_on channel=6 note=52 velocity=0 time=0@note_on channel=8 note=40 velocity=0 time=0@note_on channel=8 note=52 velocity=0 time=0@note_on channel=0 note=60 velocity=80 time=0.0008928583333333332@note_on channel=1 note=60 velocity=80 time=0@note_on channel=5 note=38 velocity=80 time=0@note_on channel=6 note=38 velocity=80 time=0@note_on channel=8 note=38 velocity=80 time=0@note_on channel=0 note=60 velocity=0 time=0.10625014166666666@note_on channel=5 note=38 velocity=0 time=0@note_on channel=6 note=38 velocity=0 time=0@note_on channel=8 note=38 velocity=0 time=0@note_on channel=0 note=62 velocity=80 time=0.0008928583333333332@note_on channel=5 note=50 velocity=80 time=0@note_on channel=6 note=50 velocity=80 time=0@note_on channel=8 note=50 velocity=80 time=0@note_on channel=0 note=62 velocity=0 time=0.10625014166666666@note_on channel=5 note=50 velocity=0 time=0@note_on channel=6 note=50 velocity=0 time=0@note_on channel=8 note=50 velocity=0 time=0@note_on channel=0 note=64 velocity=80 time=0.0008928583333333332@note_on channel=5 note=38 velocity=80 time=0@note_on channel=6 note=38 velocity=80 time=0@note_on channel=8 note=38 velocity=80 time=0@note_on channel=1 note=60 velocity=0 time=0.10625014166666666@note_on channel=5 note=38 velocity=0 time=0@note_on channel=6 note=38 velocity=0 time=0@note_on channel=8 note=38 velocity=0 time=0@note_on channel=1 note=64 velocity=80 time=0.0008928583333333332@note_on channel=5 note=51 velocity=80 time=0@note_on channel=6 note=51 velocity=80 time=0@note_on channel=8 note=51 velocity=80 time=0@note_on channel=0 note=64 velocity=0 time=0.10625014166666666@note_on channel=5 note=51 velocity=0 time=0@note_on channel=6 note=51 velocity=0 time=0@note_on channel=8 note=51 velocity=0 time=0@note_on channel=0 note=64 velocity=80 time=0.0008928583333333332@note_on channel=5 note=39 velocity=80 time=0@note_on channel=6 note=39 velocity=80 time=0@note_on channel=8 note=39 velocity=80 time=0@note_on channel=0 note=64 velocity=0 time=0.10625014166666666@note_on channel=5 note=39 velocity=0 time=0@note_on channel=6 note=39 velocity=0 time=0@note_on channel=8 note=39 velocity=0 time=0@note_on channel=0 note=64 velocity=80 time=0.0008928583333333332@note_on channel=5 note=50 velocity=80 time=0@note_on channel=6 note=50 velocity=80 time=0@note_on channel=8 note=50 velocity=80 time=0@note_on channel=0 note=64 velocity=0 time=0.10625014166666666@note_on channel=1 note=64 velocity=0 time=0@note_on channel=5 note=50 velocity=0 time=0@note_on channel=6 note=50 velocity=0 time=0@note_on channel=8 note=50 velocity=0 time=0@note_on channel=0 note=63 velocity=80 time=0.0008928583333333332@note_on channel=1 note=63 velocity=80 time=0@note_on channel=5 note=37 velocity=80 time=0@note_on channel=6 note=37 velocity=80 time=0@note_on channel=8 note=37 velocity=80 time=0@note_on channel=0 note=63 velocity=0 time=0.10625014166666666@note_on channel=5 note=37 velocity=0 time=0@note_on channel=6 note=37 velocity=0 time=0@note_on channel=8 note=37 velocity=0 time=0@note_on channel=0 note=64 velocity=80 time=0.0008928583333333332@note_on channel=5 note=49 velocity=80 time=0@note_on channel=6 note=49 velocity=80 time=0@note_on channel=8 note=49 velocity=80 time=0@note_on channel=0 note=64 velocity=0 time=0.10625014166666666@note_on channel=5 note=49 velocity=0 time=0@note_on channel=6 note=49 velocity=0 time=0@note_on channel=8 note=49 velocity=0 time=0@note_on channel=0 note=66 velocity=80 time=0.0008928583333333332@note_on channel=5 note=37 velocity=80 time=0@note_on channel=6 note=37 velocity=80 time=0@note_on channel=8 note=37 velocity=80 time=0@note_on channel=1 note=63 velocity=0 time=0.10625014166666666@note_on channel=5 note=37 velocity=0 time=0@note_on channel=6 note=37 velocity=0 time=0@note_on channel=8 note=37 velocity=0 time=0@note_on channel=1 note=66 velocity=80 time=0.0008928583333333332@note_on channel=5 note=49 velocity=80 time=0@note_on channel=6 note=49 velocity=80 time=0@note_on channel=8 note=49 velocity=80 time=0@note_on channel=0 note=66 velocity=0 time=0.10625014166666666@note_on channel=5 note=49 velocity=0 time=0@note_on channel=6 note=49 velocity=0 time=0@note_on channel=8 note=49 velocity=0 time=0@note_on channel=0 note=66 velocity=80 time=0.0008928583333333332@note_on channel=5 note=37 velocity=80 time=0@note_on channel=6 note=37 velocity=80 time=0@note_on channel=8 note=37 velocity=80 time=0@note_on channel=0 note=66 velocity=0 time=0.07053580833333332@note_on channel=0 note=66 velocity=80 time=0.0008928583333333332@note_on channel=5 note=37 velocity=0 time=0.034821475@note_on channel=6 note=37 velocity=0 time=0@note_on channel=8 note=37 velocity=0 time=0@note_on channel=5 note=49 velocity=80 time=0.0008928583333333332@note_on channel=6 note=49 velocity=80 time=0@note_on channel=8 note=49 velocity=80 time=0@note_on channel=0 note=66 velocity=0 time=0.034821475@note_on channel=0 note=66 velocity=80 time=0.0008928583333333332@note_on channel=0 note=66 velocity=0 time=0.07053580833333332@note_on channel=1 note=66 velocity=0 time=0@note_on channel=5 note=49 velocity=0 time=0@note_on channel=6 note=49 velocity=0 time=0@note_on channel=8 note=49 velocity=0 time=0@note_on channel=0 note=64 velocity=80 time=0.0008928583333333332@note_on channel=1 note=64 velocity=80 time=0@note_on channel=5 note=52 velocity=80 time=0@note_on channel=6 note=52 velocity=80 time=0@note_on channel=8 note=52 velocity=80 time=0@note_on channel=5 note=52 velocity=0 time=0.21339314166666665@note_on channel=6 note=52 velocity=0 time=0@note_on channel=8 note=52 velocity=0 time=0@note_on channel=5 note=40 velocity=80 time=0.0008928583333333332@note_on channel=5 note=52 velocity=80 time=0@note_on channel=6 note=40 velocity=80 time=0@note_on channel=6 note=52 velocity=80 time=0@note_on channel=8 note=40 velocity=80 time=0@note_on channel=8 note=52 velocity=80 time=0@note_on channel=0 note=64 velocity=0 time=0.10625014166666666@note_on channel=1 note=64 velocity=0 time=0@note_on channel=0 note=59 velocity=80 time=0.0008928583333333332@note_on channel=1 note=59 velocity=80 time=0@note_on channel=5 note=40 velocity=0 time=0.21339314166666665@note_on channel=5 note=52 velocity=0 time=0@note_on channel=6 note=40 velocity=0 time=0@note_on channel=6 note=52 velocity=0 time=0@note_on channel=8 note=40 velocity=0 time=0@note_on channel=8 note=52 velocity=0 time=0@note_on channel=5 note=40 velocity=80 time=0.0008928583333333332@note_on channel=5 note=52 velocity=80 time=0@note_on channel=6 note=40 velocity=80 time=0@note_on channel=6 note=52 velocity=80 time=0@note_on channel=8 note=40 velocity=80 time=0@note_on channel=8 note=52 velocity=80 time=0@note_on channel=0 note=59 velocity=0 time=0.10625014166666666@note_on channel=1 note=59 velocity=0 time=0@note_on channel=0 note=57 velocity=80 time=0.0008928583333333332@note_on channel=1 note=58 velocity=80 time=0@note_on channel=5 note=40 velocity=0 time=0.21339314166666665@note_on channel=5 note=52 velocity=0 time=0@note_on channel=6 note=40 velocity=0 time=0@note_on channel=6 note=52 velocity=0 time=0@note_on channel=8 note=40 velocity=0 time=0@note_on channel=8 note=52 velocity=0 time=0@note_on channel=5 note=40 velocity=80 time=0.0008928583333333332@note_on channel=5 note=52 velocity=80 time=0@note_on channel=6 note=40 velocity=80 time=0@note_on channel=6 note=52 velocity=80 time=0@note_on channel=8 note=40 velocity=80 time=0@note_on channel=8 note=52 velocity=80 time=0@note_on channel=0 note=57 velocity=0 time=0.10625014166666666@note_on channel=1 note=58 velocity=0 time=0@note_on channel=0 note=52 velocity=80 time=0.0008928583333333332@note_on channel=1 note=52 velocity=80 time=0@note_on channel=0 note=52 velocity=0 time=0.10625014166666666@note_on channel=0 note=55 velocity=80 time=0.0008928583333333332@note_on channel=0 note=55 velocity=0 time=0.10625014166666666@note_on channel=5 note=40 velocity=0 time=0@note_on channel=5 note=52 velocity=0 time=0@note_on channel=6 note=40 velocity=0 time=0@note_on channel=6 note=52 velocity=0 time=0@note_on channel=8 note=40 velocity=0 time=0@note_on channel=8 note=52 velocity=0 time=0@note_on channel=0 note=52 velocity=80 time=0.0008928583333333332@note_on channel=5 note=40 velocity=80 time=0@note_on channel=5 note=52 velocity=80 time=0@note_on channel=6 note=40 velocity=80 time=0@note_on channel=6 note=52 velocity=80 time=0@note_on channel=8 note=40 velocity=80 time=0@note_on channel=8 note=52 velocity=80 time=0@note_on channel=0 note=52 velocity=0 time=0.10625014166666666@note_on channel=1 note=52 velocity=0 time=0@note_on channel=5 note=40 velocity=0 time=0@note_on channel=5 note=52 velocity=0 time=0@note_on channel=6 note=40 velocity=0 time=0@note_on channel=6 note=52 velocity=0 time=0@note_on channel=8 note=40 velocity=0 time=0@note_on channel=8 note=52 velocity=0 time=0@note_on channel=5 note=52 velocity=80 time=0.0008928583333333332@note_on channel=6 note=52 velocity=80 time=0@note_on channel=7 note=88 velocity=80 time=0@note_on channel=8 note=52 velocity=80 time=0@note_on channel=5 note=52 velocity=0 time=0.21339314166666665@note_on channel=6 note=52 velocity=0 time=0@note_on channel=8 note=52 velocity=0 time=0@note_on channel=5 note=40 velocity=80 time=0.0008928583333333332@note_on channel=5 note=52 velocity=80 time=0@note_on channel=6 note=40 velocity=80 time=0@note_on channel=6 note=52 velocity=80 time=0@note_on channel=8 note=40 velocity=80 time=0@note_on channel=8 note=52 velocity=80 time=0@note_on channel=7 note=88 velocity=0 time=0.10625014166666666@note_on channel=7 note=83 velocity=80 time=0.0008928583333333332@note_on channel=5 note=40 velocity=0 time=0.21339314166666665@note_on channel=5 note=52 velocity=0 time=0@note_on channel=6 note=40 velocity=0 time=0@note_on channel=6 note=52 velocity=0 time=0@note_on channel=8 note=40 velocity=0 time=0@note_on channel=8 note=52 velocity=0 time=0@note_on channel=5 note=40 velocity=80 time=0.0008928583333333332@note_on channel=5 note=52 velocity=80 time=0@note_on channel=6 note=40 velocity=80 time=0@note_on channel=6 note=52 velocity=80 time=0@note_on channel=8 note=40 velocity=80 time=0@note_on channel=8 note=52 velocity=80 time=0@note_on channel=7 note=83 velocity=0 time=0.10625014166666666@note_on channel=7 note=82 velocity=80 time=0.0008928583333333332@note_on channel=5 note=40 velocity=0 time=0.21339314166666665@note_on channel=5 note=52 velocity=0 time=0@note_on channel=6 note=40 velocity=0 time=0@note_on channel=6 note=52 velocity=0 time=0@note_on channel=8 note=40 velocity=0 time=0@note_on channel=8 note=52 velocity=0 time=0@note_on channel=5 note=40 velocity=80 time=0.0008928583333333332@note_on channel=5 note=52 velocity=80 time=0@note_on channel=6 note=40 velocity=80 time=0@note_on channel=6 note=52 velocity=80 time=0@note_on channel=8 note=40 velocity=80 time=0@note_on channel=8 note=52 velocity=80 time=0@note_on channel=5 note=40 velocity=0 time=0.10625014166666666@note_on channel=5 note=52 velocity=0 time=0@note_on channel=6 note=40 velocity=0 time=0@note_on channel=6 note=52 velocity=0 time=0@note_on channel=7 note=82 velocity=0 time=0@note_on channel=8 note=40 velocity=0 time=0@note_on channel=8 note=52 velocity=0 time=0@note_on channel=5 note=48 velocity=80 time=0.0008928583333333332@note_on channel=6 note=48 velocity=80 time=0@note_on channel=7 note=76 velocity=80 time=0@note_on channel=8 note=48 velocity=80 time=0@note_on channel=5 note=48 velocity=0 time=0.10625014166666666@note_on channel=6 note=48 velocity=0 time=0@note_on channel=8 note=48 velocity=0 time=0@note_on channel=5 note=52 velocity=80 time=0.0008928583333333332@note_on channel=6 note=52 velocity=80 time=0@note_on channel=8 note=52 velocity=80 time=0@note_on channel=5 note=52 velocity=0 time=0.10625014166666666@note_on channel=6 note=52 velocity=0 time=0@note_on channel=8 note=52 velocity=0 time=0@note_on channel=5 note=40 velocity=80 time=0.0008928583333333332@note_on channel=6 note=40 velocity=80 time=0@note_on channel=8 note=40 velocity=80 time=0@note_on channel=5 note=40 velocity=0 time=0.10625014166666666@note_on channel=6 note=40 velocity=0 time=0@note_on channel=7 note=76 velocity=0 time=0@note_on channel=8 note=40 velocity=0 time=0@note_on channel=0 note=60 velocity=80 time=0.0008928583333333332@note_on channel=1 note=60 velocity=80 time=0@note_on channel=5 note=43 velocity=80 time=0@note_on channel=6 note=43 velocity=80 time=0@note_on channel=8 note=43 velocity=80 time=0@note_on channel=0 note=60 velocity=0 time=0.10625014166666666@note_on channel=5 note=43 velocity=0 time=0@note_on channel=6 note=43 velocity=0 time=0@note_on channel=8 note=43 velocity=0 time=0@note_on channel=0 note=62 velocity=80 time=0.0008928583333333332@note_on channel=5 note=48 velocity=80 time=0@note_on channel=6 note=48 velocity=80 time=0@note_on channel=8 note=48 velocity=80 time=0@note_on channel=0 note=62 velocity=0 time=0.10625014166666666@note_on channel=1 note=60 velocity=0 time=0@note_on channel=5 note=48 velocity=0 time=0@note_on channel=6 note=48 velocity=0 time=0@note_on channel=8 note=48 velocity=0 time=0@note_on channel=0 note=64 velocity=80 time=0.0008928583333333332@note_on channel=1 note=64 velocity=80 time=0@note_on channel=5 note=36 velocity=80 time=0@note_on channel=6 note=36 velocity=80 time=0@note_on channel=8 note=36 velocity=80 time=0@note_on channel=0 note=64 velocity=0 time=0.3205361416666666@note_on channel=1 note=64 velocity=0 time=0@note_on channel=5 note=36 velocity=0 time=0@note_on channel=6 note=36 velocity=0 time=0@note_on channel=8 note=36 velocity=0 time=0@note_on channel=0 note=64 velocity=80 time=0.0008928583333333332@note_on channel=1 note=64 velocity=80 time=0@note_on channel=5 note=36 velocity=80 time=0@note_on channel=5 note=48 velocity=80 time=0@note_on channel=6 note=36 velocity=80 time=0@note_on channel=6 note=48 velocity=80 time=0@note_on channel=8 note=36 velocity=80 time=0@note_on channel=8 note=48 velocity=80 time=0@note_on channel=0 note=64 velocity=0 time=0.21339314166666665@note_on channel=1 note=64 velocity=0 time=0@note_on channel=0 note=64 velocity=80 time=0.0008928583333333332@note_on channel=1 note=64 velocity=80 time=0@note_on channel=0 note=64 velocity=0 time=0.10625014166666666@note_on channel=1 note=64 velocity=0 time=0@note_on channel=5 note=36 velocity=0 time=0@note_on channel=5 note=48 velocity=0 time=0@note_on channel=6 note=36 velocity=0 time=0@note_on channel=6 note=48 velocity=0 time=0@note_on channel=8 note=36 velocity=0 time=0@note_on channel=8 note=48 velocity=0 time=0@note_on channel=0 note=64 velocity=80 time=0.0008928583333333332@note_on channel=1 note=64 velocity=80 time=0@note_on channel=5 note=36 velocity=80 time=0@note_on channel=5 note=48 velocity=80 time=0@note_on channel=6 note=36 velocity=80 time=0@note_on channel=6 note=48 velocity=80 time=0@note_on channel=8 note=36 velocity=80 time=0@note_on channel=8 note=48 velocity=80 time=0@note_on channel=0 note=64 velocity=0 time=0.10625014166666666@note_on channel=1 note=64 velocity=0 time=0@note_on channel=0 note=64 velocity=80 time=0.0008928583333333332@note_on channel=1 note=64 velocity=80 time=0@note_on channel=0 note=64 velocity=0 time=0.10625014166666666@note_on channel=1 note=64 velocity=0 time=0@note_on channel=0 note=64 velocity=80 time=0.0008928583333333332@note_on channel=1 note=64 velocity=80 time=0@note_on channel=0 note=64 velocity=0 time=0.10625014166666666@note_on channel=1 note=64 velocity=0 time=0@note_on channel=5 note=36 velocity=0 time=0@note_on channel=5 note=48 velocity=0 time=0@note_on channel=6 note=36 velocity=0 time=0@note_on channel=6 note=48 velocity=0 time=0@note_on channel=8 note=36 velocity=0 time=0@note_on channel=8 note=48 velocity=0 time=0@note_on channel=0 note=64 velocity=80 time=0.0008928583333333332@note_on channel=1 note=64 velocity=80 time=0@note_on channel=5 note=36 velocity=80 time=0@note_on channel=5 note=48 velocity=80 time=0@note_on channel=6 note=36 velocity=80 time=0@note_on channel=6 note=48 velocity=80 time=0@note_on channel=8 note=36 velocity=80 time=0@note_on channel=8 note=48 velocity=80 time=0@note_on channel=0 note=64 velocity=0 time=0.10625014166666666@note_on channel=1 note=64 velocity=0 time=0@note_on channel=5 note=36 velocity=0 time=0@note_on channel=5 note=48 velocity=0 time=0@note_on channel=6 note=36 velocity=0 time=0@note_on channel=6 note=48 velocity=0 time=0@note_on channel=8 note=36 velocity=0 time=0@note_on channel=8 note=48 velocity=0 time=0@note_on channel=0 note=63 velocity=80 time=0.0008928583333333332@note_on channel=1 note=63 velocity=80 time=0@note_on channel=5 note=45 velocity=80 time=0@note_on channel=6 note=45 velocity=80 time=0@note_on channel=8 note=45 velocity=80 time=0@note_on channel=0 note=63 velocity=0 time=0.10625014166666666@note_on channel=5 note=45 velocity=0 time=0@note_on channel=6 note=45 velocity=0 time=0@note_on channel=8 note=45 velocity=0 time=0@note_on channel=0 note=64 velocity=80 time=0.0008928583333333332@note_on channel=5 note=57 velocity=80 time=0@note_on channel=6 note=57 velocity=80 time=0@note_on channel=8 note=57 velocity=80 time=0@note_on channel=0 note=64 velocity=0 time=0.10625014166666666@note_on channel=1 note=63 velocity=0 time=0@note_on channel=5 note=57 velocity=0 time=0@note_on channel=6 note=57 velocity=0 time=0@note_on channel=8 note=57 velocity=0 time=0@note_on channel=0 note=66 velocity=80 time=0.0008928583333333332@note_on channel=1 note=66 velocity=80 time=0@note_on channel=5 note=45 velocity=80 time=0@note_on channel=6 note=45 velocity=80 time=0@note_on channel=8 note=45 velocity=80 time=0@note_on channel=0 note=66 velocity=0 time=0.10625014166666666@note_on channel=5 note=45 velocity=0 time=0@note_on channel=6 note=45 velocity=0 time=0@note_on channel=8 note=45 velocity=0 time=0@note_on channel=0 note=66 velocity=80 time=0.0008928583333333332@note_on channel=5 note=57 velocity=80 time=0@note_on channel=6 note=57 velocity=80 time=0@note_on channel=8 note=57 velocity=80 time=0@note_on channel=0 note=66 velocity=0 time=0.10625014166666666@note_on channel=5 note=57 velocity=0 time=0@note_on channel=6 note=57 velocity=0 time=0@note_on channel=8 note=57 velocity=0 time=0@note_on channel=0 note=59 velocity=80 time=0.0008928583333333332@note_on channel=5 note=45 velocity=80 time=0@note_on channel=6 note=45 velocity=80 time=0@note_on channel=8 note=45 velocity=80 time=0@note_on channel=0 note=59 velocity=0 time=0.10625014166666666@note_on channel=1 note=66 velocity=0 time=0@note_on channel=5 note=45 velocity=0 time=0@note_on channel=6 note=45 velocity=0 time=0@note_on channel=8 note=45 velocity=0 time=0@note_on channel=0 note=66 velocity=80 time=0.0008928583333333332@note_on channel=1 note=66 velocity=80 time=0@note_on channel=5 note=57 velocity=80 time=0@note_on channel=6 note=57 velocity=80 time=0@note_on channel=8 note=57 velocity=80 time=0@note_on channel=0 note=66 velocity=0 time=0.10625014166666666@note_on channel=1 note=66 velocity=0 time=0@note_on channel=5 note=57 velocity=0 time=0@note_on channel=6 note=57 velocity=0 time=0@note_on channel=8 note=57 velocity=0 time=0@note_on channel=0 note=63 velocity=80 time=0.0008928583333333332@note_on channel=1 note=63 velocity=80 time=0@note_on channel=5 note=47 velocity=80 time=0@note_on channel=6 note=47 velocity=80 time=0@note_on channel=8 note=47 velocity=80 time=0@note_on channel=0 note=63 velocity=0 time=0.10625014166666666@note_on channel=5 note=47 velocity=0 time=0@note_on channel=6 note=47 velocity=0 time=0@note_on channel=8 note=47 velocity=0 time=0@note_on channel=0 note=59 velocity=80 time=0.0008928583333333332@note_on channel=5 note=59 velocity=80 time=0@note_on channel=6 note=59 velocity=80 time=0@note_on channel=8 note=59 velocity=80 time=0@note_on channel=0 note=59 velocity=0 time=0.10625014166666666@note_on channel=5 note=59 velocity=0 time=0@note_on channel=6 note=59 velocity=0 time=0@note_on channel=8 note=59 velocity=0 time=0@note_on channel=0 note=63 velocity=80 time=0.0008928583333333332@note_on channel=5 note=47 velocity=80 time=0@note_on channel=6 note=47 velocity=80 time=0@note_on channel=8 note=47 velocity=80 time=0@note_on channel=0 note=63 velocity=0 time=0.10625014166666666@note_on channel=1 note=63 velocity=0 time=0@note_on channel=5 note=47 velocity=0 time=0@note_on channel=6 note=47 velocity=0 time=0@note_on channel=8 note=47 velocity=0 time=0@note_on channel=0 note=71 velocity=80 time=0.0008928583333333332@note_on channel=1 note=66 velocity=80 time=0@note_on channel=5 note=59 velocity=80 time=0@note_on channel=6 note=59 velocity=80 time=0@note_on channel=8 note=59 velocity=80 time=0@note_on channel=0 note=71 velocity=0 time=0.10625014166666666@note_on channel=5 note=59 velocity=0 time=0@note_on channel=6 note=59 velocity=0 time=0@note_on channel=8 note=59 velocity=0 time=0@note_on channel=0 note=69 velocity=80 time=0.0008928583333333332@note_on channel=5 note=47 velocity=80 time=0@note_on channel=6 note=47 velocity=80 time=0@note_on channel=8 note=47 velocity=80 time=0@note_on channel=0 note=69 velocity=0 time=0.10625014166666666@note_on channel=5 note=47 velocity=0 time=0@note_on channel=6 note=47 velocity=0 time=0@note_on channel=8 note=47 velocity=0 time=0@note_on channel=0 note=66 velocity=80 time=0.0008928583333333332@note_on channel=5 note=59 velocity=80 time=0@note_on channel=6 note=59 velocity=80 time=0@note_on channel=8 note=59 velocity=80 time=0@note_on channel=0 note=66 velocity=0 time=0.10625014166666666@note_on channel=1 note=66 velocity=0 time=0@note_on channel=5 note=59 velocity=0 time=0@note_on channel=6 note=59 velocity=0 time=0@note_on channel=8 note=59 velocity=0 time=0@note_on channel=0 note=67 velocity=80 time=0.0008928583333333332@note_on channel=1 note=69 velocity=80 time=0@note_on channel=2 note=52 velocity=80 time=0@note_on channel=3 note=64 velocity=80 time=0@note_on channel=5 note=40 velocity=80 time=0@note_on channel=5 note=52 velocity=80 time=0@note_on channel=6 note=40 velocity=80 time=0@note_on channel=6 note=52 velocity=80 time=0@note_on channel=7 note=81 velocity=80 time=0@note_on channel=8 note=40 velocity=80 time=0@note_on channel=8 note=52 velocity=80 time=0@note_on channel=2 note=52 velocity=0 time=0.10625014166666666@note_on channel=3 note=64 velocity=0 time=0@note_on channel=2 note=47 velocity=80 time=0.0008928583333333332@note_on channel=3 note=59 velocity=80 time=0@note_on channel=1 note=69 velocity=0 time=0.10625014166666666@note_on channel=2 note=47 velocity=0 time=0@note_on channel=3 note=59 velocity=0 time=0@note_on channel=5 note=40 velocity=0 time=0@note_on channel=5 note=52 velocity=0 time=0@note_on channel=6 note=40 velocity=0 time=0@note_on channel=6 note=52 velocity=0 time=0@note_on channel=7 note=81 velocity=0 time=0@note_on channel=8 note=40 velocity=0 time=0@note_on channel=8 note=52 velocity=0 time=0@note_on channel=1 note=64 velocity=80 time=0.0008928583333333332@note_on channel=2 note=52 velocity=80 time=0@note_on channel=3 note=64 velocity=80 time=0@note_on channel=5 note=40 velocity=80 time=0@note_on channel=5 note=52 velocity=80 time=0@note_on channel=6 note=40 velocity=80 time=0@note_on channel=6 note=52 velocity=80 time=0@note_on channel=7 note=76 velocity=80 time=0@note_on channel=8 note=40 velocity=80 time=0@note_on channel=8 note=52 velocity=80 time=0@note_on channel=1 note=64 velocity=0 time=0.10625014166666666@note_on channel=2 note=52 velocity=0 time=0@note_on channel=3 note=64 velocity=0 time=0@note_on channel=7 note=76 velocity=0 time=0@note_on channel=1 note=67 velocity=80 time=0.0008928583333333332@note_on channel=2 note=55 velocity=80 time=0@note_on channel=3 note=67 velocity=80 time=0@note_on channel=7 note=79 velocity=80 time=0@note_on channel=2 note=55 velocity=0 time=0.10625014166666666@note_on channel=3 note=67 velocity=0 time=0@note_on channel=5 note=40 velocity=0 time=0@note_on channel=5 note=52 velocity=0 time=0@note_on channel=6 note=40 velocity=0 time=0@note_on channel=6 note=52 velocity=0 time=0@note_on channel=8 note=40 velocity=0 time=0@note_on channel=8 note=52 velocity=0 time=0@note_on channel=2 note=54 velocity=80 time=0.0008928583333333332@note_on channel=3 note=66 velocity=80 time=0@note_on channel=5 note=40 velocity=80 time=0@note_on channel=5 note=52 velocity=80 time=0@note_on channel=6 note=40 velocity=80 time=0@note_on channel=6 note=52 velocity=80 time=0@note_on channel=8 note=40 velocity=80 time=0@note_on channel=8 note=52 velocity=80 time=0@note_on channel=2 note=54 velocity=0 time=0.10625014166666666@note_on channel=3 note=66 velocity=0 time=0@note_on channel=2 note=52 velocity=80 time=0.0008928583333333332@note_on channel=3 note=64 velocity=80 time=0@note_on channel=0 note=67 velocity=0 time=0.10625014166666666@note_on channel=1 note=67 velocity=0 time=0@note_on channel=2 note=52 velocity=0 time=0@note_on channel=3 note=64 velocity=0 time=0@note_on channel=5 note=40 velocity=0 time=0@note_on channel=5 note=52 velocity=0 time=0@note_on channel=6 note=40 velocity=0 time=0@note_on channel=6 note=52 velocity=0 time=0@note_on channel=7 note=79 velocity=0 time=0@note_on channel=8 note=40 velocity=0 time=0@note_on channel=8 note=52 velocity=0 time=0@note_on channel=0 note=66 velocity=80 time=0.0008928583333333332@note_on channel=1 note=69 velocity=80 time=0@note_on channel=2 note=52 velocity=80 time=0@note_on channel=3 note=64 velocity=80 time=0@note_on channel=5 note=40 velocity=80 time=0@note_on channel=5 note=52 velocity=80 time=0@note_on channel=6 note=40 velocity=80 time=0@note_on channel=6 note=52 velocity=80 time=0@note_on channel=7 note=81 velocity=80 time=0@note_on channel=8 note=40 velocity=80 time=0@note_on channel=8 note=52 velocity=80 time=0@note_on channel=2 note=52 velocity=0 time=0.10625014166666666@note_on channel=3 note=64 velocity=0 time=0@note_on channel=2 note=47 velocity=80 time=0.0008928583333333332@note_on channel=3 note=59 velocity=80 time=0@note_on channel=1 note=69 velocity=0 time=0.10625014166666666@note_on channel=2 note=47 velocity=0 time=0@note_on channel=3 note=59 velocity=0 time=0@note_on channel=7 note=81 velocity=0 time=0@note_on channel=1 note=67 velocity=80 time=0.0008928583333333332@note_on channel=2 note=52 velocity=80 time=0@note_on channel=3 note=64 velocity=80 time=0@note_on channel=7 note=79 velocity=80 time=0@note_on channel=2 note=52 velocity=0 time=0.10625014166666666@note_on channel=3 note=64 velocity=0 time=0@note_on channel=5 note=40 velocity=0 time=0@note_on channel=5 note=52 velocity=0 time=0@note_on channel=6 note=40 velocity=0 time=0@note_on channel=6 note=52 velocity=0 time=0@note_on channel=8 note=40 velocity=0 time=0@note_on channel=8 note=52 velocity=0 time=0@note_on channel=2 note=55 velocity=80 time=0.0008928583333333332@note_on channel=3 note=67 velocity=80 time=0@note_on channel=5 note=40 velocity=80 time=0@note_on channel=5 note=52 velocity=80 time=0@note_on channel=6 note=40 velocity=80 time=0@note_on channel=6 note=52 velocity=80 time=0@note_on channel=8 note=40 velocity=80 time=0@note_on channel=8 note=52 velocity=80 time=0@note_on channel=2 note=55 velocity=0 time=0.10625014166666666@note_on channel=3 note=67 velocity=0 time=0@note_on channel=2 note=54 velocity=80 time=0.0008928583333333332@note_on channel=3 note=66 velocity=80 time=0@note_on channel=2 note=54 velocity=0 time=0.10625014166666666@note_on channel=3 note=66 velocity=0 time=0@note_on channel=2 note=52 velocity=80 time=0.0008928583333333332@note_on channel=3 note=64 velocity=80 time=0@note_on channel=0 note=66 velocity=0 time=0.10625014166666666@note_on channel=1 note=67 velocity=0 time=0@note_on channel=2 note=52 velocity=0 time=0@note_on channel=3 note=64 velocity=0 time=0@note_on channel=5 note=40 velocity=0 time=0@note_on channel=5 note=52 velocity=0 time=0@note_on channel=6 note=40 velocity=0 time=0@note_on channel=6 note=52 velocity=0 time=0@note_on channel=7 note=79 velocity=0 time=0@note_on channel=8 note=40 velocity=0 time=0@note_on channel=8 note=52 velocity=0 time=0@note_on channel=0 note=64 velocity=80 time=0.0008928583333333332@note_on channel=2 note=52 velocity=80 time=0@note_on channel=3 note=64 velocity=80 time=0@note_on channel=5 note=38 velocity=80 time=0@note_on channel=5 note=50 velocity=80 time=0@note_on channel=6 note=38 velocity=80 time=0@note_on channel=6 note=50 velocity=80 time=0@note_on channel=8 note=38 velocity=80 time=0@note_on channel=8 note=50 velocity=80 time=0@note_on channel=2 note=52 velocity=0 time=0.10625014166666666@note_on channel=3 note=64 velocity=0 time=0@note_on channel=2 note=47 velocity=80 time=0.0008928583333333332@note_on channel=3 note=59 velocity=80 time=0@note_on channel=2 note=47 velocity=0 time=0.10625014166666666@note_on channel=3 note=59 velocity=0 time=0@note_on channel=5 note=38 velocity=0 time=0@note_on channel=5 note=50 velocity=0 time=0@note_on channel=6 note=38 velocity=0 time=0@note_on channel=6 note=50 velocity=0 time=0@note_on channel=8 note=38 velocity=0 time=0@note_on channel=8 note=50 velocity=0 time=0@note_on channel=1 note=72 velocity=80 time=0.0008928583333333332@note_on channel=2 note=52 velocity=80 time=0@note_on channel=3 note=64 velocity=80 time=0@note_on channel=5 note=38 velocity=80 time=0@note_on channel=5 note=50 velocity=80 time=0@note_on channel=6 note=38 velocity=80 time=0@note_on channel=6 note=50 velocity=80 time=0@note_on channel=7 note=84 velocity=80 time=0@note_on channel=8 note=38 velocity=80 time=0@note_on channel=8 note=50 velocity=80 time=0@note_on channel=1 note=72 velocity=0 time=0.10625014166666666@note_on channel=2 note=52 velocity=0 time=0@note_on channel=3 note=64 velocity=0 time=0@note_on channel=7 note=84 velocity=0 time=0@note_on channel=1 note=71 velocity=80 time=0.0008928583333333332@note_on channel=2 note=55 velocity=80 time=0@note_on channel=3 note=67 velocity=80 time=0@note_on channel=7 note=83 velocity=80 time=0@note_on channel=2 note=55 velocity=0 time=0.10625014166666666@note_on channel=3 note=67 velocity=0 time=0@note_on channel=5 note=38 velocity=0 time=0@note_on channel=5 note=50 velocity=0 time=0@note_on channel=6 note=38 velocity=0 time=0@note_on channel=6 note=50 velocity=0 time=0@note_on channel=8 note=38 velocity=0 time=0@note_on channel=8 note=50 velocity=0 time=0@note_on channel=2 note=54 velocity=80 time=0.0008928583333333332@note_on channel=3 note=66 velocity=80 time=0@note_on channel=5 note=38 velocity=80 time=0@note_on channel=5 note=50 velocity=80 time=0@note_on channel=6 note=38 velocity=80 time=0@note_on channel=6 note=50 velocity=80 time=0@note_on channel=8 note=38 velocity=80 time=0@note_on channel=8 note=50 velocity=80 time=0@note_on channel=1 note=71 velocity=0 time=0.10625014166666666@note_on channel=2 note=54 velocity=0 time=0@note_on channel=3 note=66 velocity=0 time=0@note_on channel=7 note=83 velocity=0 time=0@note_on channel=1 note=67 velocity=80 time=0.0008928583333333332@note_on channel=2 note=52 velocity=80 time=0@note_on channel=3 note=64 velocity=80 time=0@note_on channel=7 note=79 velocity=80 time=0@note_on channel=0 note=64 velocity=0 time=0.10625014166666666@note_on channel=1 note=67 velocity=0 time=0@note_on channel=2 note=52 velocity=0 time=0@note_on channel=3 note=64 velocity=0 time=0@note_on channel=5 note=38 velocity=0 time=0@note_on channel=5 note=50 velocity=0 time=0@note_on channel=6 note=38 velocity=0 time=0@note_on channel=6 note=50 velocity=0 time=0@note_on channel=7 note=79 velocity=0 time=0@note_on channel=8 note=38 velocity=0 time=0@note_on channel=8 note=50 velocity=0 time=0@note_on channel=0 note=63 velocity=80 time=0.0008928583333333332@note_on channel=1 note=69 velocity=80 time=0@note_on channel=2 note=52 velocity=80 time=0@note_on channel=3 note=64 velocity=80 time=0@note_on channel=5 note=38 velocity=80 time=0@note_on channel=5 note=50 velocity=80 time=0@note_on channel=6 note=38 velocity=80 time=0@note_on channel=6 note=50 velocity=80 time=0@note_on channel=7 note=81 velocity=80 time=0@note_on channel=8 note=38 velocity=80 time=0@note_on channel=8 note=50 velocity=80 time=0@note_on channel=2 note=52 velocity=0 time=0.10625014166666666@note_on channel=3 note=64 velocity=0 time=0@note_on channel=2 note=47 velocity=80 time=0.0008928583333333332@note_on channel=3 note=59 velocity=80 time=0@note_on channel=1 note=69 velocity=0 time=0.10625014166666666@note_on channel=2 note=47 velocity=0 time=0@note_on channel=3 note=59 velocity=0 time=0@note_on channel=7 note=81 velocity=0 time=0@note_on channel=1 note=67 velocity=80 time=0.0008928583333333332@note_on channel=2 note=52 velocity=80 time=0@note_on channel=3 note=64 velocity=80 time=0@note_on channel=7 note=79 velocity=80 time=0@note_on channel=0 note=63 velocity=0 time=0.10625014166666666@note_on channel=1 note=67 velocity=0 time=0@note_on channel=2 note=52 velocity=0 time=0@note_on channel=3 note=64 velocity=0 time=0@note_on channel=5 note=38 velocity=0 time=0@note_on channel=5 note=50 velocity=0 time=0@note_on channel=6 note=38 velocity=0 time=0@note_on channel=6 note=50 velocity=0 time=0@note_on channel=7 note=79 velocity=0 time=0@note_on channel=8 note=38 velocity=0 time=0@note_on channel=8 note=50 velocity=0 time=0@note_on channel=0 note=66 velocity=80 time=0.0008928583333333332@note_on channel=1 note=64 velocity=80 time=0@note_on channel=2 note=55 velocity=80 time=0@note_on channel=3 note=67 velocity=80 time=0@note_on channel=5 note=38 velocity=80 time=0@note_on channel=5 note=50 velocity=80 time=0@note_on channel=6 note=38 velocity=80 time=0@note_on channel=6 note=50 velocity=80 time=0@note_on channel=7 note=76 velocity=80 time=0@note_on channel=8 note=38 velocity=80 time=0@note_on channel=8 note=50 velocity=80 time=0@note_on channel=2 note=55 velocity=0 time=0.10625014166666666@note_on channel=3 note=67 velocity=0 time=0@note_on channel=2 note=54 velocity=80 time=0.0008928583333333332@note_on channel=3 note=66 velocity=80 time=0@note_on channel=1 note=64 velocity=0 time=0.10625014166666666@note_on channel=2 note=54 velocity=0 time=0@note_on channel=3 note=66 velocity=0 time=0@note_on channel=7 note=76 velocity=0 time=0@note_on channel=1 note=67 velocity=80 time=0.0008928583333333332@note_on channel=2 note=52 velocity=80 time=0@note_on channel=3 note=64 velocity=80 time=0@note_on channel=7 note=79 velocity=80 time=0@note_on channel=0 note=66 velocity=0 time=0.10625014166666666@note_on channel=1 note=67 velocity=0 time=0@note_on channel=2 note=52 velocity=0 time=0@note_on channel=3 note=64 velocity=0 time=0@note_on channel=5 note=38 velocity=0 time=0@note_on channel=5 note=50 velocity=0 time=0@note_on channel=6 note=38 velocity=0 time=0@note_on channel=6 note=50 velocity=0 time=0@note_on channel=7 note=79 velocity=0 time=0@note_on channel=8 note=38 velocity=0 time=0@note_on channel=8 note=50 velocity=0 time=0@note_on channel=0 note=67 velocity=80 time=0.0008928583333333332@note_on channel=1 note=69 velocity=80 time=0@note_on channel=2 note=52 velocity=80 time=0@note_on channel=3 note=64 velocity=80 time=0@note_on channel=5 note=36 velocity=80 time=0@note_on channel=5 note=48 velocity=80 time=0@note_on channel=6 note=36 velocity=80 time=0@note_on channel=6 note=48 velocity=80 time=0@note_on channel=7 note=81 velocity=80 time=0@note_on channel=8 note=36 velocity=80 time=0@note_on channel=8 note=48 velocity=80 time=0@note_on channel=2 note=52 velocity=0 time=0.10625014166666666@note_on channel=3 note=64 velocity=0 time=0@note_on channel=2 note=47 velocity=80 time=0.0008928583333333332@note_on channel=3 note=59 velocity=80 time=0@note_on channel=1 note=69 velocity=0 time=0.10625014166666666@note_on channel=2 note=47 velocity=0 time=0@note_on channel=3 note=59 velocity=0 time=0@note_on channel=5 note=36 velocity=0 time=0@note_on channel=5 note=48 velocity=0 time=0@note_on channel=6 note=36 velocity=0 time=0@note_on channel=6 note=48 velocity=0 time=0@note_on channel=7 note=81 velocity=0 time=0@note_on channel=8 note=36 velocity=0 time=0@note_on channel=8 note=48 velocity=0 time=0@note_on channel=1 note=64 velocity=80 time=0.0008928583333333332@note_on channel=2 note=52 velocity=80 time=0@note_on channel=3 note=64 velocity=80 time=0@note_on channel=5 note=36 velocity=80 time=0@note_on channel=5 note=48 velocity=80 time=0@note_on channel=6 note=36 velocity=80 time=0@note_on channel=6 note=48 velocity=80 time=0@note_on channel=7 note=76 velocity=80 time=0@note_on channel=8 note=36 velocity=80 time=0@note_on channel=8 note=48 velocity=80 time=0@note_on channel=1 note=64 velocity=0 time=0.10625014166666666@note_on channel=2 note=52 velocity=0 time=0@note_on channel=3 note=64 velocity=0 time=0@note_on channel=7 note=76 velocity=0 time=0@note_on channel=1 note=67 velocity=80 time=0.0008928583333333332@note_on channel=2 note=55 velocity=80 time=0@note_on channel=3 note=67 velocity=80 time=0@note_on channel=7 note=79 velocity=80 time=0@note_on channel=2 note=55 velocity=0 time=0.10625014166666666@note_on channel=3 note=67 velocity=0 time=0@note_on channel=5 note=36 velocity=0 time=0@note_on channel=5 note=48 velocity=0 time=0@note_on channel=6 note=36 velocity=0 time=0@note_on channel=6 note=48 velocity=0 time=0@note_on channel=8 note=36 velocity=0 time=0@note_on channel=8 note=48 velocity=0 time=0@note_on channel=2 note=54 velocity=80 time=0.0008928583333333332@note_on channel=3 note=66 velocity=80 time=0@note_on channel=5 note=36 velocity=80 time=0@note_on channel=5 note=48 velocity=80 time=0@note_on channel=6 note=36 velocity=80 time=0@note_on channel=6 note=48 velocity=80 time=0@note_on channel=8 note=36 velocity=80 time=0@note_on channel=8 note=48 velocity=80 time=0@note_on channel=2 note=54 velocity=0 time=0.10625014166666666@note_on channel=3 note=66 velocity=0 time=0@note_on channel=2 note=52 velocity=80 time=0.0008928583333333332@note_on channel=3 note=64 velocity=80 time=0@note_on channel=0 note=67 velocity=0 time=0.10625014166666666@note_on channel=1 note=67 velocity=0 time=0@note_on channel=2 note=52 velocity=0 time=0@note_on channel=3 note=64 velocity=0 time=0@note_on channel=5 note=36 velocity=0 time=0@note_on channel=5 note=48 velocity=0 time=0@note_on channel=6 note=36 velocity=0 time=0@note_on channel=6 note=48 velocity=0 time=0@note_on channel=7 note=79 velocity=0 time=0@note_on channel=8 note=36 velocity=0 time=0@note_on channel=8 note=48 velocity=0 time=0@note_on channel=0 note=66 velocity=80 time=0.0008928583333333332@note_on channel=1 note=69 velocity=80 time=0@note_on channel=2 note=52 velocity=80 time=0@note_on channel=3 note=64 velocity=80 time=0@note_on channel=5 note=36 velocity=80 time=0@note_on channel=5 note=48 velocity=80 time=0@note_on channel=6 note=36 velocity=80 time=0@note_on channel=6 note=48 velocity=80 time=0@note_on channel=7 note=81 velocity=80 time=0@note_on channel=8 note=36 velocity=80 time=0@note_on channel=8 note=48 velocity=80 time=0@note_on channel=2 note=52 velocity=0 time=0.10625014166666666@note_on channel=3 note=64 velocity=0 time=0@note_on channel=2 note=47 velocity=80 time=0.0008928583333333332@note_on channel=3 note=59 velocity=80 time=0@note_on channel=1 note=69 velocity=0 time=0.10625014166666666@note_on channel=2 note=47 velocity=0 time=0@note_on channel=3 note=59 velocity=0 time=0@note_on channel=7 note=81 velocity=0 time=0@note_on channel=1 note=67 velocity=80 time=0.0008928583333333332@note_on channel=2 note=52 velocity=80 time=0@note_on channel=3 note=64 velocity=80 time=0@note_on channel=7 note=79 velocity=80 time=0@note_on channel=0 note=66 velocity=0 time=0.10625014166666666@note_on channel=2 note=52 velocity=0 time=0@note_on channel=3 note=64 velocity=0 time=0@note_on channel=5 note=36 velocity=0 time=0@note_on channel=5 note=48 velocity=0 time=0@note_on channel=6 note=36 velocity=0 time=0@note_on channel=6 note=48 velocity=0 time=0@note_on channel=8 note=36 velocity=0 time=0@note_on channel=8 note=48 velocity=0 time=0@note_on channel=0 note=64 velocity=80 time=0.0008928583333333332@note_on channel=2 note=55 velocity=80 time=0@note_on channel=3 note=67 velocity=80 time=0@note_on channel=5 note=36 velocity=80 time=0@note_on channel=5 note=48 velocity=80 time=0@note_on channel=6 note=36 velocity=80 time=0@note_on channel=6 note=48 velocity=80 time=0@note_on channel=8 note=36 velocity=80 time=0@note_on channel=8 note=48 velocity=80 time=0@note_on channel=2 note=55 velocity=0 time=0.10625014166666666@note_on channel=3 note=67 velocity=0 time=0@note_on channel=2 note=54 velocity=80 time=0.0008928583333333332@note_on channel=3 note=66 velocity=80 time=0@note_on channel=2 note=54 velocity=0 time=0.10625014166666666@note_on channel=3 note=66 velocity=0 time=0@note_on channel=2 note=52 velocity=80 time=0.0008928583333333332@note_on channel=3 note=64 velocity=80 time=0@note_on channel=0 note=64 velocity=0 time=0.10625014166666666@note_on channel=1 note=67 velocity=0 time=0@note_on channel=2 note=52 velocity=0 time=0@note_on channel=3 note=64 velocity=0 time=0@note_on channel=5 note=36 velocity=0 time=0@note_on channel=5 note=48 velocity=0 time=0@note_on channel=6 note=36 velocity=0 time=0@note_on channel=6 note=48 velocity=0 time=0@note_on channel=7 note=79 velocity=0 time=0@note_on channel=8 note=36 velocity=0 time=0@note_on channel=8 note=48 velocity=0 time=0@note_on channel=0 note=66 velocity=80 time=0.0008928583333333332@note_on channel=2 note=51 velocity=80 time=0@note_on channel=3 note=63 velocity=80 time=0@note_on channel=5 note=42 velocity=80 time=0@note_on channel=5 note=54 velocity=80 time=0@note_on channel=6 note=42 velocity=80 time=0@note_on channel=6 note=54 velocity=80 time=0@note_on channel=8 note=42 velocity=80 time=0@note_on channel=8 note=54 velocity=80 time=0@note_on channel=2 note=51 velocity=0 time=0.10625014166666666@note_on channel=3 note=63 velocity=0 time=0@note_on channel=2 note=47 velocity=80 time=0.0008928583333333332@note_on channel=3 note=59 velocity=80 time=0@note_on channel=2 note=47 velocity=0 time=0.10625014166666666@note_on channel=3 note=59 velocity=0 time=0@note_on channel=5 note=42 velocity=0 time=0@note_on channel=5 note=54 velocity=0 time=0@note_on channel=6 note=42 velocity=0 time=0@note_on channel=6 note=54 velocity=0 time=0@note_on channel=8 note=42 velocity=0 time=0@note_on channel=8 note=54 velocity=0 time=0@note_on channel=1 note=71 velocity=80 time=0.0008928583333333332@note_on channel=2 note=51 velocity=80 time=0@note_on channel=3 note=63 velocity=80 time=0@note_on channel=5 note=42 velocity=80 time=0@note_on channel=5 note=54 velocity=80 time=0@note_on channel=6 note=42 velocity=80 time=0@note_on channel=6 note=54 velocity=80 time=0@note_on channel=7 note=83 velocity=80 time=0@note_on channel=8 note=42 velocity=80 time=0@note_on channel=8 note=54 velocity=80 time=0@note_on channel=1 note=71 velocity=0 time=0.10625014166666666@note_on channel=2 note=51 velocity=0 time=0@note_on channel=3 note=63 velocity=0 time=0@note_on channel=7 note=83 velocity=0 time=0@note_on channel=1 note=69 velocity=80 time=0.0008928583333333332@note_on channel=2 note=55 velocity=80 time=0@note_on channel=3 note=67 velocity=80 time=0@note_on channel=7 note=81 velocity=80 time=0@note_on channel=2 note=55 velocity=0 time=0.10625014166666666@note_on channel=3 note=67 velocity=0 time=0@note_on channel=5 note=42 velocity=0 time=0@note_on channel=5 note=54 velocity=0 time=0@note_on channel=6 note=42 velocity=0 time=0@note_on channel=6 note=54 velocity=0 time=0@note_on channel=8 note=42 velocity=0 time=0@note_on channel=8 note=54 velocity=0 time=0@note_on channel=2 note=54 velocity=80 time=0.0008928583333333332@note_on channel=3 note=66 velocity=80 time=0@note_on channel=5 note=42 velocity=80 time=0@note_on channel=5 note=54 velocity=80 time=0@note_on channel=6 note=42 velocity=80 time=0@note_on channel=6 note=54 velocity=80 time=0@note_on channel=8 note=42 velocity=80 time=0@note_on channel=8 note=54 velocity=80 time=0@note_on channel=1 note=69 velocity=0 time=0.10625014166666666@note_on channel=2 note=54 velocity=0 time=0@note_on channel=3 note=66 velocity=0 time=0@note_on channel=7 note=81 velocity=0 time=0@note_on channel=1 note=67 velocity=80 time=0.0008928583333333332@note_on channel=2 note=51 velocity=80 time=0@note_on channel=3 note=63 velocity=80 time=0@note_on channel=7 note=79 velocity=80 time=0@note_on channel=0 note=66 velocity=0 time=0.10625014166666666@note_on channel=1 note=67 velocity=0 time=0@note_on channel=2 note=51 velocity=0 time=0@note_on channel=3 note=63 velocity=0 time=0@note_on channel=5 note=42 velocity=0 time=0@note_on channel=5 note=54 velocity=0 time=0@note_on channel=6 note=42 velocity=0 time=0@note_on channel=6 note=54 velocity=0 time=0@note_on channel=7 note=79 velocity=0 time=0@note_on channel=8 note=42 velocity=0 time=0@note_on channel=8 note=54 velocity=0 time=0@note_on channel=0 note=63 velocity=80 time=0.0008928583333333332@note_on channel=1 note=66 velocity=80 time=0@note_on channel=2 note=51 velocity=80 time=0@note_on channel=3 note=63 velocity=80 time=0@note_on channel=5 note=39 velocity=80 time=0@note_on channel=5 note=51 velocity=80 time=0@note_on channel=6 note=39 velocity=80 time=0@note_on channel=6 note=51 velocity=80 time=0@note_on channel=7 note=78 velocity=80 time=0@note_on channel=8 note=39 velocity=80 time=0@note_on channel=8 note=51 velocity=80 time=0@note_on channel=2 note=51 velocity=0 time=0.10625014166666666@note_on channel=3 note=63 velocity=0 time=0@note_on channel=2 note=47 velocity=80 time=0.0008928583333333332@note_on channel=3 note=59 velocity=80 time=0@note_on channel=1 note=66 velocity=0 time=0.10625014166666666@note_on channel=2 note=47 velocity=0 time=0@note_on channel=3 note=59 velocity=0 time=0@note_on channel=5 note=39 velocity=0 time=0@note_on channel=5 note=51 velocity=0 time=0@note_on channel=6 note=39 velocity=0 time=0@note_on channel=6 note=51 velocity=0 time=0@note_on channel=7 note=78 velocity=0 time=0@note_on channel=8 note=39 velocity=0 time=0@note_on channel=8 note=51 velocity=0 time=0@note_on channel=1 note=67 velocity=80 time=0.0008928583333333332@note_on channel=2 note=51 velocity=80 time=0@note_on channel=3 note=63 velocity=80 time=0@note_on channel=5 note=39 velocity=80 time=0@note_on channel=5 note=51 velocity=80 time=0@note_on channel=6 note=39 velocity=80 time=0@note_on channel=6 note=51 velocity=80 time=0@note_on channel=7 note=79 velocity=80 time=0@note_on channel=8 note=39 velocity=80 time=0@note_on channel=8 note=51 velocity=80 time=0@note_on channel=0 note=63 velocity=0 time=0.10625014166666666@note_on channel=1 note=67 velocity=0 time=0@note_on channel=2 note=51 velocity=0 time=0@note_on channel=3 note=63 velocity=0 time=0@note_on channel=7 note=79 velocity=0 time=0@note_on channel=0 note=67 velocity=80 time=0.0008928583333333332@note_on channel=1 note=66 velocity=80 time=0@note_on channel=2 note=55 velocity=80 time=0@note_on channel=3 note=67 velocity=80 time=0@note_on channel=7 note=78 velocity=80 time=0@note_on channel=2 note=55 velocity=0 time=0.10625014166666666@note_on channel=3 note=67 velocity=0 time=0@note_on channel=5 note=39 velocity=0 time=0@note_on channel=5 note=51 velocity=0 time=0@note_on channel=6 note=39 velocity=0 time=0@note_on channel=6 note=51 velocity=0 time=0@note_on channel=8 note=39 velocity=0 time=0@note_on channel=8 note=51 velocity=0 time=0@note_on channel=2 note=54 velocity=80 time=0.0008928583333333332@note_on channel=3 note=66 velocity=80 time=0@note_on channel=5 note=39 velocity=80 time=0@note_on channel=5 note=51 velocity=80 time=0@note_on channel=6 note=39 velocity=80 time=0@note_on channel=6 note=51 velocity=80 time=0@note_on channel=8 note=39 velocity=80 time=0@note_on channel=8 note=51 velocity=80 time=0@note_on channel=1 note=66 velocity=0 time=0.10625014166666666@note_on channel=2 note=54 velocity=0 time=0@note_on channel=3 note=66 velocity=0 time=0@note_on channel=7 note=78 velocity=0 time=0@note_on channel=1 note=63 velocity=80 time=0.0008928583333333332@note_on channel=2 note=51 velocity=80 time=0@note_on channel=3 note=63 velocity=80 time=0@note_on channel=7 note=75 velocity=80 time=0@note_on channel=0 note=67 velocity=0 time=0.10625014166666666@note_on channel=1 note=63 velocity=0 time=0@note_on channel=2 note=51 velocity=0 time=0@note_on channel=3 note=63 velocity=0 time=0@note_on channel=5 note=39 velocity=0 time=0@note_on channel=5 note=51 velocity=0 time=0@note_on channel=6 note=39 velocity=0 time=0@note_on channel=6 note=51 velocity=0 time=0@note_on channel=7 note=75 velocity=0 time=0@note_on channel=8 note=39 velocity=0 time=0@note_on channel=8 note=51 velocity=0 time=0@note_on channel=0 note=64 velocity=80 time=0.0008928583333333332@note_on channel=1 note=64 velocity=80 time=0@note_on channel=2 note=52 velocity=80 time=0@note_on channel=3 note=64 velocity=80 time=0@note_on channel=5 note=40 velocity=80 time=0@note_on channel=5 note=52 velocity=80 time=0@note_on channel=6 note=40 velocity=80 time=0@note_on channel=6 note=52 velocity=80 time=0@note_on channel=7 note=76 velocity=80 time=0@note_on channel=8 note=40 velocity=80 time=0@note_on channel=8 note=52 velocity=80 time=0@note_on channel=2 note=52 velocity=0 time=0.10625014166666666@note_on channel=3 note=64 velocity=0 time=0@note_on channel=2 note=47 velocity=80 time=0.0008928583333333332@note_on channel=3 note=59 velocity=80 time=0@note_on channel=1 note=64 velocity=0 time=0.10625014166666666@note_on channel=2 note=47 velocity=0 time=0@note_on channel=3 note=59 velocity=0 time=0@note_on channel=5 note=40 velocity=0 time=0@note_on channel=5 note=52 velocity=0 time=0@note_on channel=6 note=40 velocity=0 time=0@note_on channel=6 note=52 velocity=0 time=0@note_on channel=8 note=40 velocity=0 time=0@note_on channel=8 note=52 velocity=0 time=0@note_on channel=1 note=59 velocity=80 time=0.0008928583333333332@note_on channel=2 note=52 velocity=80 time=0@note_on channel=3 note=64 velocity=80 time=0@note_on channel=5 note=40 velocity=80 time=0@note_on channel=5 note=52 velocity=80 time=0@note_on channel=6 note=40 velocity=80 time=0@note_on channel=6 note=52 velocity=80 time=0@note_on channel=8 note=40 velocity=80 time=0@note_on channel=8 note=52 velocity=80 time=0@note_on channel=0 note=64 velocity=0 time=0.10625014166666666@note_on channel=1 note=59 velocity=0 time=0@note_on channel=2 note=52 velocity=0 time=0@note_on channel=3 note=64 velocity=0 time=0@note_on channel=7 note=76 velocity=0 time=0@note_on channel=0 note=59 velocity=80 time=0.0008928583333333332@note_on channel=1 note=67 velocity=80 time=0@note_on channel=2 note=55 velocity=80 time=0@note_on channel=3 note=67 velocity=80 time=0@note_on channel=7 note=71 velocity=80 time=0@note_on channel=2 note=55 velocity=0 time=0.10625014166666666@note_on channel=3 note=67 velocity=0 time=0@note_on channel=5 note=40 velocity=0 time=0@note_on channel=5 note=52 velocity=0 time=0@note_on channel=6 note=40 velocity=0 time=0@note_on channel=6 note=52 velocity=0 time=0@note_on channel=8 note=40 velocity=0 time=0@note_on channel=8 note=52 velocity=0 time=0@note_on channel=2 note=54 velocity=80 time=0.0008928583333333332@note_on channel=3 note=66 velocity=80 time=0@note_on channel=5 note=40 velocity=80 time=0@note_on channel=5 note=52 velocity=80 time=0@note_on channel=6 note=40 velocity=80 time=0@note_on channel=6 note=52 velocity=80 time=0@note_on channel=8 note=40 velocity=80 time=0@note_on channel=8 note=52 velocity=80 time=0@note_on channel=2 note=54 velocity=0 time=0.10625014166666666@note_on channel=3 note=66 velocity=0 time=0@note_on channel=2 note=52 velocity=80 time=0.0008928583333333332@note_on channel=3 note=64 velocity=80 time=0@note_on channel=0 note=59 velocity=0 time=0.10625014166666666@note_on channel=1 note=67 velocity=0 time=0@note_on channel=2 note=52 velocity=0 time=0@note_on channel=3 note=64 velocity=0 time=0@note_on channel=5 note=40 velocity=0 time=0@note_on channel=5 note=52 velocity=0 time=0@note_on channel=6 note=40 velocity=0 time=0@note_on channel=6 note=52 velocity=0 time=0@note_on channel=7 note=71 velocity=0 time=0@note_on channel=8 note=40 velocity=0 time=0@note_on channel=8 note=52 velocity=0 time=0@note_on channel=0 note=64 velocity=80 time=0.0008928583333333332@note_on channel=1 note=69 velocity=80 time=0@note_on channel=2 note=52 velocity=80 time=0@note_on channel=3 note=64 velocity=80 time=0@note_on channel=5 note=40 velocity=80 time=0@note_on channel=5 note=52 velocity=80 time=0@note_on channel=6 note=40 velocity=80 time=0@note_on channel=6 note=52 velocity=80 time=0@note_on channel=7 note=76 velocity=80 time=0@note_on channel=8 note=40 velocity=80 time=0@note_on channel=8 note=52 velocity=80 time=0@note_on channel=2 note=52 velocity=0 time=0.10625014166666666@note_on channel=3 note=64 velocity=0 time=0@note_on channel=2 note=47 velocity=80 time=0.0008928583333333332@note_on channel=3 note=59 velocity=80 time=0@note_on channel=1 note=69 velocity=0 time=0.10625014166666666@note_on channel=2 note=47 velocity=0 time=0@note_on channel=3 note=59 velocity=0 time=0@note_on channel=1 note=67 velocity=80 time=0.0008928583333333332@note_on channel=2 note=52 velocity=80 time=0@note_on channel=3 note=64 velocity=80 time=0@note_on channel=0 note=64 velocity=0 time=0.10625014166666666@note_on channel=2 note=52 velocity=0 time=0@note_on channel=3 note=64 velocity=0 time=0@note_on channel=5 note=40 velocity=0 time=0@note_on channel=5 note=52 velocity=0 time=0@note_on channel=6 note=40 velocity=0 time=0@note_on channel=6 note=52 velocity=0 time=0@note_on channel=7 note=76 velocity=0 time=0@note_on channel=8 note=40 velocity=0 time=0@note_on channel=8 note=52 velocity=0 time=0@note_on channel=0 note=71 velocity=80 time=0.0008928583333333332@note_on channel=2 note=55 velocity=80 time=0@note_on channel=3 note=67 velocity=80 time=0@note_on channel=5 note=40 velocity=80 time=0@note_on channel=5 note=52 velocity=80 time=0@note_on channel=6 note=40 velocity=80 time=0@note_on channel=6 note=52 velocity=80 time=0@note_on channel=7 note=84 velocity=80 time=0@note_on channel=8 note=40 velocity=80 time=0@note_on channel=8 note=52 velocity=80 time=0@note_on channel=2 note=55 velocity=0 time=0.10625014166666666@note_on channel=3 note=67 velocity=0 time=0@note_on channel=2 note=54 velocity=80 time=0.0008928583333333332@note_on channel=3 note=66 velocity=80 time=0@note_on channel=1 note=67 velocity=0 time=0.10625014166666666@note_on channel=2 note=54 velocity=0 time=0@note_on channel=3 note=66 velocity=0 time=0@note_on channel=1 note=67 velocity=80 time=0.0008928583333333332@note_on channel=2 note=52 velocity=80 time=0@note_on channel=3 note=64 velocity=80 time=0@note_on channel=0 note=71 velocity=0 time=0.10625014166666666@note_on channel=1 note=67 velocity=0 time=0@note_on channel=2 note=52 velocity=0 time=0@note_on channel=3 note=64 velocity=0 time=0@note_on channel=5 note=40 velocity=0 time=0@note_on channel=5 note=52 velocity=0 time=0@note_on channel=6 note=40 velocity=0 time=0@note_on channel=6 note=52 velocity=0 time=0@note_on channel=7 note=84 velocity=0 time=0@note_on channel=8 note=40 velocity=0 time=0@note_on channel=8 note=52 velocity=0 time=0@note_on channel=0 note=69 velocity=80 time=0.0008928583333333332@note_on channel=1 note=64 velocity=80 time=0@note_on channel=2 note=52 velocity=80 time=0@note_on channel=3 note=64 velocity=80 time=0@note_on channel=5 note=42 velocity=80 time=0@note_on channel=5 note=54 velocity=80 time=0@note_on channel=6 note=42 velocity=80 time=0@note_on channel=6 note=54 velocity=80 time=0@note_on channel=7 note=83 velocity=80 time=0@note_on channel=8 note=42 velocity=80 time=0@note_on channel=8 note=54 velocity=80 time=0@note_on channel=2 note=52 velocity=0 time=0.10625014166666666@note_on channel=3 note=64 velocity=0 time=0@note_on channel=2 note=47 velocity=80 time=0.0008928583333333332@note_on channel=3 note=59 velocity=80 time=0@note_on channel=1 note=64 velocity=0 time=0.10625014166666666@note_on channel=2 note=47 velocity=0 time=0@note_on channel=3 note=59 velocity=0 time=0@note_on channel=5 note=42 velocity=0 time=0@note_on channel=5 note=54 velocity=0 time=0@note_on channel=6 note=42 velocity=0 time=0@note_on channel=6 note=54 velocity=0 time=0@note_on channel=8 note=42 velocity=0 time=0@note_on channel=8 note=54 velocity=0 time=0@note_on channel=1 note=59 velocity=80 time=0.0008928583333333332@note_on channel=2 note=52 velocity=80 time=0@note_on channel=3 note=64 velocity=80 time=0@note_on channel=5 note=42 velocity=80 time=0@note_on channel=5 note=54 velocity=80 time=0@note_on channel=6 note=42 velocity=80 time=0@note_on channel=6 note=54 velocity=80 time=0@note_on channel=8 note=42 velocity=80 time=0@note_on channel=8 note=54 velocity=80 time=0@note_on channel=1 note=59 velocity=0 time=0.10625014166666666@note_on channel=2 note=52 velocity=0 time=0@note_on channel=3 note=64 velocity=0 time=0@note_on channel=1 note=67 velocity=80 time=0.0008928583333333332@note_on channel=2 note=55 velocity=80 time=0@note_on channel=3 note=67 velocity=80 time=0@note_on channel=2 note=55 velocity=0 time=0.10625014166666666@note_on channel=3 note=67 velocity=0 time=0@note_on channel=5 note=42 velocity=0 time=0@note_on channel=5 note=54 velocity=0 time=0@note_on channel=6 note=42 velocity=0 time=0@note_on channel=6 note=54 velocity=0 time=0@note_on channel=8 note=42 velocity=0 time=0@note_on channel=8 note=54 velocity=0 time=0@note_on channel=2 note=54 velocity=80 time=0.0008928583333333332@note_on channel=3 note=66 velocity=80 time=0@note_on channel=5 note=42 velocity=80 time=0@note_on channel=5 note=54 velocity=80 time=0@note_on channel=6 note=42 velocity=80 time=0@note_on channel=6 note=54 velocity=80 time=0@note_on channel=8 note=42 velocity=80 time=0@note_on channel=8 note=54 velocity=80 time=0@note_on channel=2 note=54 velocity=0 time=0.10625014166666666@note_on channel=3 note=66 velocity=0 time=0@note_on channel=2 note=52 velocity=80 time=0.0008928583333333332@note_on channel=3 note=64 velocity=80 time=0@note_on channel=0 note=69 velocity=0 time=0.10625014166666666@note_on channel=1 note=67 velocity=0 time=0@note_on channel=2 note=52 velocity=0 time=0@note_on channel=3 note=64 velocity=0 time=0@note_on channel=5 note=42 velocity=0 time=0@note_on channel=5 note=54 velocity=0 time=0@note_on channel=6 note=42 velocity=0 time=0@note_on channel=6 note=54 velocity=0 time=0@note_on channel=7 note=83 velocity=0 time=0@note_on channel=8 note=42 velocity=0 time=0@note_on channel=8 note=54 velocity=0 time=0@note_on channel=0 note=64 velocity=80 time=0.0008928583333333332@note_on channel=1 note=69 velocity=80 time=0@note_on channel=2 note=52 velocity=80 time=0@note_on channel=3 note=64 velocity=80 time=0@note_on channel=5 note=43 velocity=80 time=0@note_on channel=5 note=55 velocity=80 time=0@note_on channel=6 note=43 velocity=80 time=0@note_on channel=6 note=55 velocity=80 time=0@note_on channel=7 note=76 velocity=80 time=0@note_on channel=8 note=43 velocity=80 time=0@note_on channel=8 note=55 velocity=80 time=0@note_on channel=2 note=52 velocity=0 time=0.10625014166666666@note_on channel=3 note=64 velocity=0 time=0@note_on channel=2 note=47 velocity=80 time=0.0008928583333333332@note_on channel=3 note=59 velocity=80 time=0@note_on channel=1 note=69 velocity=0 time=0.10625014166666666@note_on channel=2 note=47 velocity=0 time=0@note_on channel=3 note=59 velocity=0 time=0@note_on channel=1 note=67 velocity=80 time=0.0008928583333333332@note_on channel=2 note=52 velocity=80 time=0@note_on channel=3 note=64 velocity=80 time=0@note_on channel=0 note=64 velocity=0 time=0.10625014166666666@note_on channel=1 note=67 velocity=0 time=0@note_on channel=2 note=52 velocity=0 time=0@note_on channel=3 note=64 velocity=0 time=0@note_on channel=5 note=43 velocity=0 time=0@note_on channel=5 note=55 velocity=0 time=0@note_on channel=6 note=43 velocity=0 time=0@note_on channel=6 note=55 velocity=0 time=0@note_on channel=7 note=76 velocity=0 time=0@note_on channel=8 note=43 velocity=0 time=0@note_on channel=8 note=55 velocity=0 time=0@note_on channel=0 note=66 velocity=80 time=0.0008928583333333332@note_on channel=1 note=71 velocity=80 time=0@note_on channel=2 note=55 velocity=80 time=0@note_on channel=3 note=67 velocity=80 time=0@note_on channel=5 note=45 velocity=80 time=0@note_on channel=5 note=57 velocity=80 time=0@note_on channel=6 note=45 velocity=80 time=0@note_on channel=6 note=57 velocity=80 time=0@note_on channel=7 note=78 velocity=80 time=0@note_on channel=8 note=45 velocity=80 time=0@note_on channel=8 note=57 velocity=80 time=0@note_on channel=2 note=55 velocity=0 time=0.10625014166666666@note_on channel=3 note=67 velocity=0 time=0@note_on channel=2 note=54 velocity=80 time=0.0008928583333333332@note_on channel=3 note=66 velocity=80 time=0@note_on channel=1 note=71 velocity=0 time=0.10625014166666666@note_on channel=2 note=54 velocity=0 time=0@note_on channel=3 note=66 velocity=0 time=0@note_on channel=1 note=72 velocity=80 time=0.0008928583333333332@note_on channel=2 note=52 velocity=80 time=0@note_on channel=3 note=64 velocity=80 time=0@note_on channel=0 note=66 velocity=0 time=0.10625014166666666@note_on channel=2 note=52 velocity=0 time=0@note_on channel=3 note=64 velocity=0 time=0@note_on channel=5 note=45 velocity=0 time=0@note_on channel=5 note=57 velocity=0 time=0@note_on channel=6 note=45 velocity=0 time=0@note_on channel=6 note=57 velocity=0 time=0@note_on channel=7 note=78 velocity=0 time=0@note_on channel=8 note=45 velocity=0 time=0@note_on channel=8 note=57 velocity=0 time=0@note_on channel=0 note=67 velocity=80 time=0.0008928583333333332@note_on channel=2 note=48 velocity=80 time=0@note_on channel=3 note=60 velocity=80 time=0@note_on channel=5 note=36 velocity=80 time=0@note_on channel=5 note=48 velocity=80 time=0@note_on channel=6 note=36 velocity=80 time=0@note_on channel=6 note=48 velocity=80 time=0@note_on channel=7 note=79 velocity=80 time=0@note_on channel=8 note=36 velocity=80 time=0@note_on channel=8 note=48 velocity=80 time=0@note_on channel=2 note=48 velocity=0 time=0.10625014166666666@note_on channel=3 note=60 velocity=0 time=0@note_on channel=2 note=43 velocity=80 time=0.0008928583333333332@note_on channel=3 note=55 velocity=80 time=0@note_on channel=1 note=72 velocity=0 time=0.10625014166666666@note_on channel=2 note=43 velocity=0 time=0@note_on channel=3 note=55 velocity=0 time=0@note_on channel=5 note=36 velocity=0 time=0@note_on channel=5 note=48 velocity=0 time=0@note_on channel=6 note=36 velocity=0 time=0@note_on channel=6 note=48 velocity=0 time=0@note_on channel=8 note=36 velocity=0 time=0@note_on channel=8 note=48 velocity=0 time=0@note_on channel=1 note=67 velocity=80 time=0.0008928583333333332@note_on channel=2 note=48 velocity=80 time=0@note_on channel=3 note=60 velocity=80 time=0@note_on channel=5 note=36 velocity=80 time=0@note_on channel=5 note=48 velocity=80 time=0@note_on channel=6 note=36 velocity=80 time=0@note_on channel=6 note=48 velocity=80 time=0@note_on channel=8 note=36 velocity=80 time=0@note_on channel=8 note=48 velocity=80 time=0@note_on channel=1 note=67 velocity=0 time=0.10625014166666666@note_on channel=2 note=48 velocity=0 time=0@note_on channel=3 note=60 velocity=0 time=0@note_on channel=1 note=72 velocity=80 time=0.0008928583333333332@note_on channel=2 note=52 velocity=80 time=0@note_on channel=3 note=64 velocity=80 time=0@note_on channel=2 note=52 velocity=0 time=0.10625014166666666@note_on channel=3 note=64 velocity=0 time=0@note_on channel=5 note=36 velocity=0 time=0@note_on channel=5 note=48 velocity=0 time=0@note_on channel=6 note=36 velocity=0 time=0@note_on channel=6 note=48 velocity=0 time=0@note_on channel=8 note=36 velocity=0 time=0@note_on channel=8 note=48 velocity=0 time=0@note_on channel=2 note=50 velocity=80 time=0.0008928583333333332@note_on channel=3 note=62 velocity=80 time=0@note_on channel=5 note=36 velocity=80 time=0@note_on channel=5 note=48 velocity=80 time=0@note_on channel=6 note=36 velocity=80 time=0@note_on channel=6 note=48 velocity=80 time=0@note_on channel=8 note=36 velocity=80 time=0@note_on channel=8 note=48 velocity=80 time=0@note_on channel=1 note=72 velocity=0 time=0.10625014166666666@note_on channel=2 note=50 velocity=0 time=0@note_on channel=3 note=62 velocity=0 time=0@note_on channel=1 note=74 velocity=80 time=0.0008928583333333332@note_on channel=2 note=48 velocity=80 time=0@note_on channel=3 note=60 velocity=80 time=0@note_on channel=0 note=67 velocity=0 time=0.10625014166666666@note_on channel=1 note=74 velocity=0 time=0@note_on channel=2 note=48 velocity=0 time=0@note_on channel=3 note=60 velocity=0 time=0@note_on channel=5 note=36 velocity=0 time=0@note_on channel=5 note=48 velocity=0 time=0@note_on channel=6 note=36 velocity=0 time=0@note_on channel=6 note=48 velocity=0 time=0@note_on channel=7 note=79 velocity=0 time=0@note_on channel=8 note=36 velocity=0 time=0@note_on channel=8 note=48 velocity=0 time=0@note_on channel=0 note=64 velocity=80 time=0.0008928583333333332@note_on channel=1 note=76 velocity=80 time=0@note_on channel=2 note=48 velocity=80 time=0@note_on channel=3 note=60 velocity=80 time=0@note_on channel=5 note=36 velocity=80 time=0@note_on channel=5 note=48 velocity=80 time=0@note_on channel=6 note=36 velocity=80 time=0@note_on channel=6 note=48 velocity=80 time=0@note_on channel=7 note=76 velocity=80 time=0@note_on channel=8 note=36 velocity=80 time=0@note_on channel=8 note=48 velocity=80 time=0@note_on channel=2 note=48 velocity=0 time=0.10625014166666666@note_on channel=3 note=60 velocity=0 time=0@note_on channel=2 note=43 velocity=80 time=0.0008928583333333332@note_on channel=3 note=55 velocity=80 time=0@note_on channel=2 note=43 velocity=0 time=0.10625014166666666@note_on channel=3 note=55 velocity=0 time=0@note_on channel=2 note=48 velocity=80 time=0.0008928583333333332@note_on channel=3 note=60 velocity=80 time=0@note_on channel=1 note=76 velocity=0 time=0.10625014166666666@note_on channel=2 note=48 velocity=0 time=0@note_on channel=3 note=60 velocity=0 time=0@note_on channel=5 note=36 velocity=0 time=0@note_on channel=5 note=48 velocity=0 time=0@note_on channel=6 note=36 velocity=0 time=0@note_on channel=6 note=48 velocity=0 time=0@note_on channel=8 note=36 velocity=0 time=0@note_on channel=8 note=48 velocity=0 time=0@note_on channel=1 note=76 velocity=80 time=0.0008928583333333332@note_on channel=2 note=52 velocity=80 time=0@note_on channel=3 note=64 velocity=80 time=0@note_on channel=5 note=36 velocity=80 time=0@note_on channel=5 note=48 velocity=80 time=0@note_on channel=6 note=36 velocity=80 time=0@note_on channel=6 note=48 velocity=80 time=0@note_on channel=8 note=36 velocity=80 time=0@note_on channel=8 note=48 velocity=80 time=0@note_on channel=2 note=52 velocity=0 time=0.10625014166666666@note_on channel=3 note=64 velocity=0 time=0@note_on channel=2 note=50 velocity=80 time=0.0008928583333333332@note_on channel=3 note=62 velocity=80 time=0@note_on channel=0 note=64 velocity=0 time=0.10625014166666666@note_on channel=2 note=50 velocity=0 time=0@note_on channel=3 note=62 velocity=0 time=0@note_on channel=7 note=76 velocity=0 time=0@note_on channel=0 note=67 velocity=80 time=0.0008928583333333332@note_on channel=2 note=48 velocity=80 time=0@note_on channel=3 note=60 velocity=80 time=0@note_on channel=7 note=79 velocity=80 time=0@note_on channel=0 note=67 velocity=0 time=0.10625014166666666@note_on channel=1 note=76 velocity=0 time=0@note_on channel=2 note=48 velocity=0 time=0@note_on channel=3 note=60 velocity=0 time=0@note_on channel=5 note=36 velocity=0 time=0@note_on channel=5 note=48 velocity=0 time=0@note_on channel=6 note=36 velocity=0 time=0@note_on channel=6 note=48 velocity=0 time=0@note_on channel=7 note=79 velocity=0 time=0@note_on channel=8 note=36 velocity=0 time=0@note_on channel=8 note=48 velocity=0 time=0@note_on channel=0 note=66 velocity=80 time=0.0008928583333333332@note_on channel=1 note=75 velocity=80 time=0@note_on channel=2 note=47 velocity=80 time=0@note_on channel=3 note=59 velocity=80 time=0@note_on channel=5 note=35 velocity=80 time=0@note_on channel=5 note=47 velocity=80 time=0@note_on channel=6 note=35 velocity=80 time=0@note_on channel=6 note=47 velocity=80 time=0@note_on channel=7 note=78 velocity=80 time=0@note_on channel=8 note=35 velocity=80 time=0@note_on channel=8 note=47 velocity=80 time=0@note_on channel=2 note=47 velocity=0 time=0.10625014166666666@note_on channel=3 note=59 velocity=0 time=0@note_on channel=2 note=42 velocity=80 time=0.0008928583333333332@note_on channel=3 note=54 velocity=80 time=0@note_on channel=1 note=75 velocity=0 time=0.10625014166666666@note_on channel=2 note=42 velocity=0 time=0@note_on channel=3 note=54 velocity=0 time=0@note_on channel=5 note=35 velocity=0 time=0@note_on channel=5 note=47 velocity=0 time=0@note_on channel=6 note=35 velocity=0 time=0@note_on channel=6 note=47 velocity=0 time=0@note_on channel=8 note=35 velocity=0 time=0@note_on channel=8 note=47 velocity=0 time=0@note_on channel=1 note=71 velocity=80 time=0.0008928583333333332@note_on channel=2 note=47 velocity=80 time=0@note_on channel=3 note=59 velocity=80 time=0@note_on channel=5 note=35 velocity=80 time=0@note_on channel=5 note=47 velocity=80 time=0@note_on channel=6 note=35 velocity=80 time=0@note_on channel=6 note=47 velocity=80 time=0@note_on channel=8 note=35 velocity=80 time=0@note_on channel=8 note=47 velocity=80 time=0@note_on channel=1 note=71 velocity=0 time=0.10625014166666666@note_on channel=2 note=47 velocity=0 time=0@note_on channel=3 note=59 velocity=0 time=0@note_on channel=1 note=76 velocity=80 time=0.0008928583333333332@note_on channel=2 note=52 velocity=80 time=0@note_on channel=3 note=64 velocity=80 time=0@note_on channel=2 note=52 velocity=0 time=0.10625014166666666@note_on channel=3 note=64 velocity=0 time=0@note_on channel=5 note=35 velocity=0 time=0@note_on channel=5 note=47 velocity=0 time=0@note_on channel=6 note=35 velocity=0 time=0@note_on channel=6 note=47 velocity=0 time=0@note_on channel=8 note=35 velocity=0 time=0@note_on channel=8 note=47 velocity=0 time=0@note_on channel=2 note=51 velocity=80 time=0.0008928583333333332@note_on channel=3 note=63 velocity=80 time=0@note_on channel=5 note=35 velocity=80 time=0@note_on channel=5 note=47 velocity=80 time=0@note_on channel=6 note=35 velocity=80 time=0@note_on channel=6 note=47 velocity=80 time=0@note_on channel=8 note=35 velocity=80 time=0@note_on channel=8 note=47 velocity=80 time=0@note_on channel=0 note=66 velocity=0 time=0.10625014166666666@note_on channel=1 note=76 velocity=0 time=0@note_on channel=2 note=51 velocity=0 time=0@note_on channel=3 note=63 velocity=0 time=0@note_on channel=7 note=78 velocity=0 time=0@note_on channel=0 note=64 velocity=80 time=0.0008928583333333332@note_on channel=1 note=71 velocity=80 time=0@note_on channel=2 note=47 velocity=80 time=0@note_on channel=3 note=59 velocity=80 time=0@note_on channel=7 note=76 velocity=80 time=0@note_on channel=0 note=64 velocity=0 time=0.10625014166666666@note_on channel=1 note=71 velocity=0 time=0@note_on channel=2 note=47 velocity=0 time=0@note_on channel=3 note=59 velocity=0 time=0@note_on channel=5 note=35 velocity=0 time=0@note_on channel=5 note=47 velocity=0 time=0@note_on channel=6 note=35 velocity=0 time=0@note_on channel=6 note=47 velocity=0 time=0@note_on channel=7 note=76 velocity=0 time=0@note_on channel=8 note=35 velocity=0 time=0@note_on channel=8 note=47 velocity=0 time=0@note_on channel=0 note=63 velocity=80 time=0.0008928583333333332@note_on channel=1 note=78 velocity=80 time=0@note_on channel=2 note=47 velocity=80 time=0@note_on channel=3 note=59 velocity=80 time=0@note_on channel=5 note=39 velocity=80 time=0@note_on channel=5 note=51 velocity=80 time=0@note_on channel=6 note=39 velocity=80 time=0@note_on channel=6 note=51 velocity=80 time=0@note_on channel=7 note=75 velocity=80 time=0@note_on channel=8 note=39 velocity=80 time=0@note_on channel=8 note=51 velocity=80 time=0@note_on channel=2 note=47 velocity=0 time=0.10625014166666666@note_on channel=3 note=59 velocity=0 time=0@note_on channel=2 note=42 velocity=80 time=0.0008928583333333332@note_on channel=3 note=54 velocity=80 time=0@note_on channel=1 note=78 velocity=0 time=0.10625014166666666@note_on channel=2 note=42 velocity=0 time=0@note_on channel=3 note=54 velocity=0 time=0@note_on channel=5 note=39 velocity=0 time=0@note_on channel=5 note=51 velocity=0 time=0@note_on channel=6 note=39 velocity=0 time=0@note_on channel=6 note=51 velocity=0 time=0@note_on channel=8 note=39 velocity=0 time=0@note_on channel=8 note=51 velocity=0 time=0@note_on channel=1 note=71 velocity=80 time=0.0008928583333333332@note_on channel=2 note=47 velocity=80 time=0@note_on channel=3 note=59 velocity=80 time=0@note_on channel=5 note=39 velocity=80 time=0@note_on channel=5 note=51 velocity=80 time=0@note_on channel=6 note=39 velocity=80 time=0@note_on channel=6 note=51 velocity=80 time=0@note_on channel=8 note=39 velocity=80 time=0@note_on channel=8 note=51 velocity=80 time=0@note_on channel=1 note=71 velocity=0 time=0.10625014166666666@note_on channel=2 note=47 velocity=0 time=0@note_on channel=3 note=59 velocity=0 time=0@note_on channel=1 note=75 velocity=80 time=0.0008928583333333332@note_on channel=2 note=52 velocity=80 time=0@note_on channel=3 note=64 velocity=80 time=0@note_on channel=2 note=52 velocity=0 time=0.10625014166666666@note_on channel=3 note=64 velocity=0 time=0@note_on channel=5 note=39 velocity=0 time=0@note_on channel=5 note=51 velocity=0 time=0@note_on channel=6 note=39 velocity=0 time=0@note_on channel=6 note=51 velocity=0 time=0@note_on channel=8 note=39 velocity=0 time=0@note_on channel=8 note=51 velocity=0 time=0@note_on channel=2 note=51 velocity=80 time=0.0008928583333333332@note_on channel=3 note=63 velocity=80 time=0@note_on channel=5 note=39 velocity=80 time=0@note_on channel=5 note=51 velocity=80 time=0@note_on channel=6 note=39 velocity=80 time=0@note_on channel=6 note=51 velocity=80 time=0@note_on channel=8 note=39 velocity=80 time=0@note_on channel=8 note=51 velocity=80 time=0@note_on channel=1 note=75 velocity=0 time=0.10625014166666666@note_on channel=2 note=51 velocity=0 time=0@note_on channel=3 note=63 velocity=0 time=0@note_on channel=1 note=71 velocity=80 time=0.0008928583333333332@note_on channel=2 note=47 velocity=80 time=0@note_on channel=3 note=59 velocity=80 time=0@note_on channel=0 note=63 velocity=0 time=0.10625014166666666@note_on channel=1 note=71 velocity=0 time=0@note_on channel=2 note=47 velocity=0 time=0@note_on channel=3 note=59 velocity=0 time=0@note_on channel=5 note=39 velocity=0 time=0@note_on channel=5 note=51 velocity=0 time=0@note_on channel=6 note=39 velocity=0 time=0@note_on channel=6 note=51 velocity=0 time=0@note_on channel=7 note=75 velocity=0 time=0@note_on channel=8 note=39 velocity=0 time=0@note_on channel=8 note=51 velocity=0 time=0@note_on channel=5 note=47 velocity=80 time=0.0008928583333333332@note_on channel=6 note=47 velocity=80 time=0@note_on channel=7 note=76 velocity=80 time=0@note_on channel=8 note=47 velocity=80 time=0@note_on channel=5 note=47 velocity=0 time=0.21339314166666665@note_on channel=6 note=47 velocity=0 time=0@note_on channel=8 note=47 velocity=0 time=0@note_on channel=5 note=52 velocity=80 time=0.0008928583333333332@note_on channel=6 note=52 velocity=80 time=0@note_on channel=8 note=52 velocity=80 time=0@note_on channel=5 note=52 velocity=0 time=0.10625014166666666@note_on channel=6 note=52 velocity=0 time=0@note_on channel=8 note=52 velocity=0 time=0@note_on channel=0 note=59 velocity=80 time=0.0008928583333333332@note_on channel=0 note=64 velocity=80 time=0@note_on channel=0 note=67 velocity=80 time=0@note_on channel=1 note=59 velocity=80 time=0@note_on channel=1 note=64 velocity=80 time=0@note_on channel=1 note=67 velocity=80 time=0@note_on channel=0 note=59 velocity=0 time=0.10625014166666666@note_on channel=0 note=64 velocity=0 time=0@note_on channel=0 note=67 velocity=0 time=0@note_on channel=1 note=59 velocity=0 time=0@note_on channel=1 note=64 velocity=0 time=0@note_on channel=1 note=67 velocity=0 time=0@note_on channel=5 note=47 velocity=80 time=0.10803585833333332@note_on channel=6 note=47 velocity=80 time=0@note_on channel=8 note=47 velocity=80 time=0@note_on channel=5 note=47 velocity=0 time=0.10625014166666666@note_on channel=6 note=47 velocity=0 time=0@note_on channel=8 note=47 velocity=0 time=0@note_on channel=5 note=55 velocity=80 time=0.0008928583333333332@note_on channel=6 note=55 velocity=80 time=0@note_on channel=8 note=55 velocity=80 time=0@note_on channel=5 note=55 velocity=0 time=0.3205361416666666@note_on channel=6 note=55 velocity=0 time=0@note_on channel=8 note=55 velocity=0 time=0@note_on channel=0 note=59 velocity=80 time=0.0008928583333333332@note_on channel=0 note=64 velocity=80 time=0@note_on channel=0 note=67 velocity=80 time=0@note_on channel=1 note=59 velocity=80 time=0@note_on channel=1 note=64 velocity=80 time=0@note_on channel=1 note=67 velocity=80 time=0@note_on channel=5 note=52 velocity=80 time=0@note_on channel=6 note=52 velocity=80 time=0@note_on channel=8 note=52 velocity=80 time=0@note_on channel=0 note=59 velocity=0 time=0.10625014166666666@note_on channel=0 note=64 velocity=0 time=0@note_on channel=0 note=67 velocity=0 time=0@note_on channel=1 note=59 velocity=0 time=0@note_on channel=1 note=64 velocity=0 time=0@note_on channel=1 note=67 velocity=0 time=0@note_on channel=5 note=52 velocity=0 time=0.21428599999999998@note_on channel=6 note=52 velocity=0 time=0@note_on channel=7 note=76 velocity=0 time=0@note_on channel=8 note=52 velocity=0 time=0@note_on channel=2 note=64 velocity=80 time=0.0008928583333333332@note_on channel=3 note=76 velocity=80 time=0@note_on channel=7 note=76 velocity=80 time=0@note_on channel=0 note=59 velocity=80 time=0.32142899999999996@note_on channel=0 note=64 velocity=80 time=0@note_on channel=0 note=67 velocity=80 time=0@note_on channel=1 note=59 velocity=80 time=0@note_on channel=1 note=64 velocity=80 time=0@note_on channel=1 note=67 velocity=80 time=0@note_on channel=8 note=35 velocity=80 time=0@note_on channel=8 note=40 velocity=80 time=0@note_on channel=8 note=43 velocity=80 time=0@note_on channel=0 note=59 velocity=0 time=0.10625014166666666@note_on channel=0 note=64 velocity=0 time=0@note_on channel=0 note=67 velocity=0 time=0@note_on channel=1 note=59 velocity=0 time=0@note_on channel=1 note=64 velocity=0 time=0@note_on channel=1 note=67 velocity=0 time=0@note_on channel=8 note=35 velocity=0 time=0@note_on channel=8 note=40 velocity=0 time=0@note_on channel=8 note=43 velocity=0 time=0@note_on channel=5 note=52 velocity=80 time=0.10803585833333332@note_on channel=6 note=52 velocity=80 time=0@note_on channel=5 note=52 velocity=0 time=0.10625014166666666@note_on channel=6 note=52 velocity=0 time=0@note_on channel=5 note=54 velocity=80 time=0.0008928583333333332@note_on channel=6 note=54 velocity=80 time=0@note_on channel=5 note=54 velocity=0 time=0.21339314166666665@note_on channel=6 note=54 velocity=0 time=0@note_on channel=5 note=55 velocity=80 time=0.0008928583333333332@note_on channel=6 note=55 velocity=80 time=0@note_on channel=5 note=55 velocity=0 time=0.10625014166666666@note_on channel=6 note=55 velocity=0 time=0@note_on channel=0 note=63 velocity=80 time=0.0008928583333333332@note_on channel=0 note=66 velocity=80 time=0@note_on channel=1 note=63 velocity=80 time=0@note_on channel=1 note=66 velocity=80 time=0@note_on channel=5 note=54 velocity=80 time=0@note_on channel=6 note=54 velocity=80 time=0@note_on channel=8 note=39 velocity=80 time=0@note_on channel=8 note=42 velocity=80 time=0@note_on channel=0 note=63 velocity=0 time=0.21339314166666665@note_on channel=0 note=66 velocity=0 time=0@note_on channel=1 note=63 velocity=0 time=0@note_on channel=1 note=66 velocity=0 time=0@note_on channel=5 note=54 velocity=0 time=0@note_on channel=6 note=54 velocity=0 time=0@note_on channel=8 note=39 velocity=0 time=0@note_on channel=8 note=42 velocity=0 time=0@note_on channel=0 note=69 velocity=80 time=0.0008928583333333332@note_on channel=1 note=69 velocity=80 time=0@note_on channel=5 note=51 velocity=80 time=0@note_on channel=6 note=51 velocity=80 time=0@note_on channel=8 note=45 velocity=80 time=0@note_on channel=0 note=69 velocity=0 time=0.10625014166666666@note_on channel=1 note=69 velocity=0 time=0@note_on channel=2 note=64 velocity=0 time=0@note_on channel=3 note=76 velocity=0 time=0@note_on channel=5 note=51 velocity=0 time=0@note_on channel=6 note=51 velocity=0 time=0@note_on channel=7 note=76 velocity=0 time=0@note_on channel=8 note=45 velocity=0 time=0@note_on channel=5 note=47 velocity=80 time=0.0008928583333333332@note_on channel=6 note=47 velocity=80 time=0@note_on channel=5 note=47 velocity=0 time=0.21339314166666665@note_on channel=6 note=47 velocity=0 time=0@note_on channel=5 note=52 velocity=80 time=0.0008928583333333332@note_on channel=6 note=52 velocity=80 time=0@note_on channel=5 note=52 velocity=0 time=0.10625014166666666@note_on channel=6 note=52 velocity=0 time=0@note_on channel=0 note=59 velocity=80 time=0.0008928583333333332@note_on channel=0 note=64 velocity=80 time=0@note_on channel=0 note=67 velocity=80 time=0@note_on channel=1 note=59 velocity=80 time=0@note_on channel=1 note=64 velocity=80 time=0@note_on channel=1 note=67 velocity=80 time=0@note_on channel=8 note=35 velocity=80 time=0@note_on channel=8 note=40 velocity=80 time=0@note_on channel=8 note=43 velocity=80 time=0@note_on channel=0 note=59 velocity=0 time=0.10625014166666666@note_on channel=0 note=64 velocity=0 time=0@note_on channel=0 note=67 velocity=0 time=0@note_on channel=1 note=59 velocity=0 time=0@note_on channel=1 note=64 velocity=0 time=0@note_on channel=1 note=67 velocity=0 time=0@note_on channel=8 note=35 velocity=0 time=0@note_on channel=8 note=40 velocity=0 time=0@note_on channel=8 note=43 velocity=0 time=0@note_on channel=5 note=47 velocity=80 time=0.10803585833333332@note_on channel=6 note=47 velocity=80 time=0@note_on channel=5 note=47 velocity=0 time=0.10625014166666666@note_on channel=6 note=47 velocity=0 time=0@note_on channel=5 note=55 velocity=80 time=0.0008928583333333332@note_on channel=6 note=55 velocity=80 time=0@note_on channel=5 note=55 velocity=0 time=0.3205361416666666@note_on channel=6 note=55 velocity=0 time=0@note_on channel=0 note=59 velocity=80 time=0.0008928583333333332@note_on channel=0 note=64 velocity=80 time=0@note_on channel=0 note=67 velocity=80 time=0@note_on channel=1 note=59 velocity=80 time=0@note_on channel=1 note=64 velocity=80 time=0@note_on channel=1 note=67 velocity=80 time=0@note_on channel=5 note=52 velocity=80 time=0@note_on channel=6 note=52 velocity=80 time=0@note_on channel=8 note=35 velocity=80 time=0@note_on channel=8 note=40 velocity=80 time=0@note_on channel=8 note=43 velocity=80 time=0@note_on channel=0 note=59 velocity=0 time=0.10625014166666666@note_on channel=0 note=64 velocity=0 time=0@note_on channel=0 note=67 velocity=0 time=0@note_on channel=1 note=59 velocity=0 time=0@note_on channel=1 note=64 velocity=0 time=0@note_on channel=1 note=67 velocity=0 time=0@note_on channel=8 note=35 velocity=0 time=0@note_on channel=8 note=40 velocity=0 time=0@note_on channel=8 note=43 velocity=0 time=0@note_on channel=5 note=52 velocity=0 time=0.21428599999999998@note_on channel=6 note=52 velocity=0 time=0@note_on channel=2 note=62 velocity=80 time=0.0008928583333333332@note_on channel=3 note=74 velocity=80 time=0@note_on channel=7 note=74 velocity=80 time=0@note_on channel=0 note=59 velocity=80 time=0.32142899999999996@note_on channel=0 note=64 velocity=80 time=0@note_on channel=0 note=67 velocity=80 time=0@note_on channel=1 note=59 velocity=80 time=0@note_on channel=1 note=64 velocity=80 time=0@note_on channel=1 note=67 velocity=80 time=0@note_on channel=8 note=35 velocity=80 time=0@note_on channel=8 note=40 velocity=80 time=0@note_on channel=8 note=43 velocity=80 time=0@note_on channel=0 note=59 velocity=0 time=0.10625014166666666@note_on channel=0 note=64 velocity=0 time=0@note_on channel=0 note=67 velocity=0 time=0@note_on channel=1 note=59 velocity=0 time=0@note_on channel=1 note=64 velocity=0 time=0@note_on channel=1 note=67 velocity=0 time=0@note_on channel=8 note=35 velocity=0 time=0@note_on channel=8 note=40 velocity=0 time=0@note_on channel=8 note=43 velocity=0 time=0@note_on channel=5 note=52 velocity=80 time=0.10803585833333332@note_on channel=6 note=52 velocity=80 time=0@note_on channel=5 note=52 velocity=0 time=0.10625014166666666@note_on channel=6 note=52 velocity=0 time=0@note_on channel=5 note=50 velocity=80 time=0.0008928583333333332@note_on channel=6 note=50 velocity=80 time=0@note_on channel=5 note=50 velocity=0 time=0.21339314166666665@note_on channel=6 note=50 velocity=0 time=0@note_on channel=5 note=52 velocity=80 time=0.0008928583333333332@note_on channel=6 note=52 velocity=80 time=0@note_on channel=5 note=52 velocity=0 time=0.10625014166666666@note_on channel=6 note=52 velocity=0 time=0@note_on channel=0 note=64 velocity=80 time=0.0008928583333333332@note_on channel=0 note=67 velocity=80 time=0@note_on channel=1 note=64 velocity=80 time=0@note_on channel=1 note=67 velocity=80 time=0@note_on channel=5 note=50 velocity=80 time=0@note_on channel=6 note=50 velocity=80 time=0@note_on channel=8 note=40 velocity=80 time=0@note_on channel=8 note=43 velocity=80 time=0@note_on channel=0 note=64 velocity=0 time=0.21339314166666665@note_on channel=0 note=67 velocity=0 time=0@note_on channel=1 note=64 velocity=0 time=0@note_on channel=1 note=67 velocity=0 time=0@note_on channel=5 note=50 velocity=0 time=0@note_on channel=6 note=50 velocity=0 time=0@note_on channel=8 note=40 velocity=0 time=0@note_on channel=8 note=43 velocity=0 time=0@note_on channel=0 note=66 velocity=80 time=0.0008928583333333332@note_on channel=1 note=66 velocity=80 time=0@note_on channel=5 note=50 velocity=80 time=0@note_on channel=6 note=50 velocity=80 time=0@note_on channel=8 note=42 velocity=80 time=0@note_on channel=0 note=66 velocity=0 time=0.10625014166666666@note_on channel=1 note=66 velocity=0 time=0@note_on channel=2 note=62 velocity=0 time=0@note_on channel=3 note=74 velocity=0 time=0@note_on channel=5 note=50 velocity=0 time=0@note_on channel=6 note=50 velocity=0 time=0@note_on channel=7 note=74 velocity=0 time=0@note_on channel=8 note=42 velocity=0 time=0@note_on channel=2 note=60 velocity=80 time=0.0008928583333333332@note_on channel=3 note=72 velocity=80 time=0@note_on channel=5 note=48 velocity=80 time=0@note_on channel=6 note=48 velocity=80 time=0@note_on channel=7 note=72 velocity=80 time=0@note_on channel=5 note=48 velocity=0 time=0.21339314166666665@note_on channel=6 note=48 velocity=0 time=0@note_on channel=5 note=52 velocity=80 time=0.0008928583333333332@note_on channel=6 note=52 velocity=80 time=0@note_on channel=5 note=52 velocity=0 time=0.10625014166666666@note_on channel=6 note=52 velocity=0 time=0@note_on channel=0 note=59 velocity=80 time=0.0008928583333333332@note_on channel=0 note=64 velocity=80 time=0@note_on channel=0 note=67 velocity=80 time=0@note_on channel=1 note=59 velocity=80 time=0@note_on channel=1 note=64 velocity=80 time=0@note_on channel=1 note=67 velocity=80 time=0@note_on channel=8 note=35 velocity=80 time=0@note_on channel=8 note=40 velocity=80 time=0@note_on channel=8 note=43 velocity=80 time=0@note_on channel=0 note=59 velocity=0 time=0.10625014166666666@note_on channel=0 note=64 velocity=0 time=0@note_on channel=0 note=67 velocity=0 time=0@note_on channel=1 note=59 velocity=0 time=0@note_on channel=1 note=64 velocity=0 time=0@note_on channel=1 note=67 velocity=0 time=0@note_on channel=8 note=35 velocity=0 time=0@note_on channel=8 note=40 velocity=0 time=0@note_on channel=8 note=43 velocity=0 time=0@note_on channel=5 note=48 velocity=80 time=0.10803585833333332@note_on channel=6 note=48 velocity=80 time=0@note_on channel=5 note=48 velocity=0 time=0.10625014166666666@note_on channel=6 note=48 velocity=0 time=0@note_on channel=5 note=60 velocity=80 time=0.0008928583333333332@note_on channel=6 note=60 velocity=80 time=0@note_on channel=5 note=60 velocity=0 time=0.3205361416666666@note_on channel=6 note=60 velocity=0 time=0@note_on channel=0 note=59 velocity=80 time=0.0008928583333333332@note_on channel=0 note=64 velocity=80 time=0@note_on channel=0 note=67 velocity=80 time=0@note_on channel=1 note=59 velocity=80 time=0@note_on channel=1 note=64 velocity=80 time=0@note_on channel=1 note=67 velocity=80 time=0@note_on channel=5 note=52 velocity=80 time=0@note_on channel=6 note=52 velocity=80 time=0@note_on channel=8 note=35 velocity=80 time=0@note_on channel=8 note=40 velocity=80 time=0@note_on channel=8 note=43 velocity=80 time=0@note_on channel=0 note=59 velocity=0 time=0.10625014166666666@note_on channel=0 note=64 velocity=0 time=0@note_on channel=0 note=67 velocity=0 time=0@note_on channel=1 note=59 velocity=0 time=0@note_on channel=1 note=64 velocity=0 time=0@note_on channel=1 note=67 velocity=0 time=0@note_on channel=8 note=35 velocity=0 time=0@note_on channel=8 note=40 velocity=0 time=0@note_on channel=8 note=43 velocity=0 time=0@note_on channel=5 note=52 velocity=0 time=0.21428599999999998@note_on channel=6 note=52 velocity=0 time=0@note_on channel=0 note=59 velocity=80 time=0.32232185833333327@note_on channel=0 note=64 velocity=80 time=0@note_on channel=0 note=67 velocity=80 time=0@note_on channel=1 note=59 velocity=80 time=0@note_on channel=1 note=64 velocity=80 time=0@note_on channel=1 note=67 velocity=80 time=0@note_on channel=8 note=35 velocity=80 time=0@note_on channel=8 note=40 velocity=80 time=0@note_on channel=8 note=43 velocity=80 time=0@note_on channel=0 note=59 velocity=0 time=0.10625014166666666@note_on channel=0 note=64 velocity=0 time=0@note_on channel=0 note=67 velocity=0 time=0@note_on channel=1 note=59 velocity=0 time=0@note_on channel=1 note=64 velocity=0 time=0@note_on channel=1 note=67 velocity=0 time=0@note_on channel=2 note=60 velocity=0 time=0@note_on channel=3 note=72 velocity=0 time=0@note_on channel=7 note=72 velocity=0 time=0@note_on channel=8 note=35 velocity=0 time=0@note_on channel=8 note=40 velocity=0 time=0@note_on channel=8 note=43 velocity=0 time=0@note_on channel=5 note=52 velocity=80 time=0.10803585833333332@note_on channel=6 note=52 velocity=80 time=0@note_on channel=5 note=52 velocity=0 time=0.10625014166666666@note_on channel=6 note=52 velocity=0 time=0@note_on channel=2 note=64 velocity=80 time=0.0008928583333333332@note_on channel=3 note=76 velocity=80 time=0@note_on channel=5 note=52 velocity=80 time=0@note_on channel=6 note=52 velocity=80 time=0@note_on channel=7 note=76 velocity=80 time=0@note_on channel=5 note=52 velocity=0 time=0.21339314166666665@note_on channel=6 note=52 velocity=0 time=0@note_on channel=5 note=54 velocity=80 time=0.0008928583333333332@note_on channel=6 note=54 velocity=80 time=0@note_on channel=5 note=54 velocity=0 time=0.10625014166666666@note_on channel=6 note=54 velocity=0 time=0@note_on channel=0 note=64 velocity=80 time=0.0008928583333333332@note_on channel=0 note=67 velocity=80 time=0@note_on channel=1 note=64 velocity=80 time=0@note_on channel=1 note=67 velocity=80 time=0@note_on channel=5 note=52 velocity=80 time=0@note_on channel=6 note=52 velocity=80 time=0@note_on channel=8 note=40 velocity=80 time=0@note_on channel=8 note=43 velocity=80 time=0@note_on channel=0 note=64 velocity=0 time=0.21339314166666665@note_on channel=0 note=67 velocity=0 time=0@note_on channel=1 note=64 velocity=0 time=0@note_on channel=1 note=67 velocity=0 time=0@note_on channel=5 note=52 velocity=0 time=0@note_on channel=6 note=52 velocity=0 time=0@note_on channel=8 note=40 velocity=0 time=0@note_on channel=8 note=43 velocity=0 time=0@note_on channel=0 note=69 velocity=80 time=0.0008928583333333332@note_on channel=1 note=69 velocity=80 time=0@note_on channel=5 note=51 velocity=80 time=0@note_on channel=6 note=51 velocity=80 time=0@note_on channel=8 note=45 velocity=80 time=0@note_on channel=0 note=69 velocity=0 time=0.10625014166666666@note_on channel=1 note=69 velocity=0 time=0@note_on channel=2 note=64 velocity=0 time=0@note_on channel=3 note=76 velocity=0 time=0@note_on channel=5 note=51 velocity=0 time=0@note_on channel=6 note=51 velocity=0 time=0@note_on channel=7 note=76 velocity=0 time=0@note_on channel=8 note=45 velocity=0 time=0@note_on channel=0 note=63 velocity=80 time=0.0008928583333333332@note_on channel=0 note=71 velocity=80 time=0@note_on channel=1 note=63 velocity=80 time=0@note_on channel=1 note=71 velocity=80 time=0@note_on channel=2 note=63 velocity=80 time=0@note_on channel=3 note=75 velocity=80 time=0@note_on channel=5 note=47 velocity=80 time=0@note_on channel=6 note=47 velocity=80 time=0@note_on channel=7 note=75 velocity=80 time=0@note_on channel=8 note=39 velocity=80 time=0@note_on channel=8 note=47 velocity=80 time=0@note_on channel=0 note=63 velocity=0 time=0.21339314166666665@note_on channel=0 note=71 velocity=0 time=0@note_on channel=1 note=63 velocity=0 time=0@note_on channel=1 note=71 velocity=0 time=0@note_on channel=5 note=47 velocity=0 time=0@note_on channel=6 note=47 velocity=0 time=0@note_on channel=8 note=39 velocity=0 time=0@note_on channel=8 note=47 velocity=0 time=0@note_on channel=0 note=69 velocity=80 time=0.0008928583333333332@note_on channel=1 note=69 velocity=80 time=0@note_on channel=5 note=52 velocity=80 time=0@note_on channel=6 note=52 velocity=80 time=0@note_on channel=8 note=45 velocity=80 time=0@note_on channel=0 note=69 velocity=0 time=0.10625014166666666@note_on channel=1 note=69 velocity=0 time=0@note_on channel=5 note=52 velocity=0 time=0@note_on channel=6 note=52 velocity=0 time=0@note_on channel=8 note=45 velocity=0 time=0@note_on channel=0 note=63 velocity=80 time=0.2151788583333333@note_on channel=0 note=69 velocity=80 time=0@note_on channel=1 note=63 velocity=80 time=0@note_on channel=1 note=69 velocity=80 time=0@note_on channel=5 note=47 velocity=80 time=0@note_on channel=6 note=47 velocity=80 time=0@note_on channel=8 note=39 velocity=80 time=0@note_on channel=8 note=45 velocity=80 time=0@note_on channel=0 note=63 velocity=0 time=0.10625014166666666@note_on channel=0 note=69 velocity=0 time=0@note_on channel=1 note=63 velocity=0 time=0@note_on channel=1 note=69 velocity=0 time=0@note_on channel=5 note=47 velocity=0 time=0@note_on channel=6 note=47 velocity=0 time=0@note_on channel=8 note=39 velocity=0 time=0@note_on channel=8 note=45 velocity=0 time=0@note_on channel=5 note=59 velocity=80 time=0.0008928583333333332@note_on channel=6 note=59 velocity=80 time=0@note_on channel=5 note=59 velocity=0 time=0.3205361416666666@note_on channel=6 note=59 velocity=0 time=0@note_on channel=0 note=63 velocity=80 time=0.0008928583333333332@note_on channel=0 note=69 velocity=80 time=0@note_on channel=1 note=63 velocity=80 time=0@note_on channel=1 note=69 velocity=80 time=0@note_on channel=5 note=52 velocity=80 time=0@note_on channel=6 note=52 velocity=80 time=0@note_on channel=8 note=39 velocity=80 time=0@note_on channel=8 note=45 velocity=80 time=0@note_on channel=0 note=63 velocity=0 time=0.3205361416666666@note_on channel=0 note=69 velocity=0 time=0@note_on channel=1 note=63 velocity=0 time=0@note_on channel=1 note=69 velocity=0 time=0@note_on channel=5 note=52 velocity=0 time=0@note_on channel=6 note=52 velocity=0 time=0@note_on channel=8 note=39 velocity=0 time=0@note_on channel=8 note=45 velocity=0 time=0@note_on channel=0 note=63 velocity=80 time=0.32232185833333327@note_on channel=0 note=69 velocity=80 time=0@note_on channel=1 note=63 velocity=80 time=0@note_on channel=1 note=69 velocity=80 time=0@note_on channel=8 note=39 velocity=80 time=0@note_on channel=8 note=45 velocity=80 time=0@note_on channel=5 note=57 velocity=80 time=0.21428599999999998@note_on channel=6 note=57 velocity=80 time=0@note_on channel=0 note=63 velocity=0 time=0.10625014166666666@note_on channel=0 note=69 velocity=0 time=0@note_on channel=1 note=63 velocity=0 time=0@note_on channel=1 note=69 velocity=0 time=0@note_on channel=5 note=57 velocity=0 time=0@note_on channel=6 note=57 velocity=0 time=0@note_on channel=8 note=39 velocity=0 time=0@note_on channel=8 note=45 velocity=0 time=0@note_on channel=0 note=63 velocity=80 time=0.0008928583333333332@note_on channel=0 note=69 velocity=80 time=0@note_on channel=1 note=63 velocity=80 time=0@note_on channel=1 note=69 velocity=80 time=0@note_on channel=5 note=57 velocity=80 time=0@note_on channel=6 note=57 velocity=80 time=0@note_on channel=8 note=39 velocity=80 time=0@note_on channel=8 note=45 velocity=80 time=0@note_on channel=5 note=57 velocity=0 time=0.10625014166666666@note_on channel=6 note=57 velocity=0 time=0@note_on channel=5 note=55 velocity=80 time=0.0008928583333333332@note_on channel=6 note=55 velocity=80 time=0@note_on channel=0 note=63 velocity=0 time=0.10625014166666666@note_on channel=0 note=69 velocity=0 time=0@note_on channel=1 note=63 velocity=0 time=0@note_on channel=1 note=69 velocity=0 time=0@note_on channel=5 note=55 velocity=0 time=0@note_on channel=6 note=55 velocity=0 time=0@note_on channel=8 note=39 velocity=0 time=0@note_on channel=8 note=45 velocity=0 time=0@note_on channel=0 note=67 velocity=80 time=0.0008928583333333332@note_on channel=1 note=67 velocity=80 time=0@note_on channel=5 note=54 velocity=80 time=0@note_on channel=6 note=54 velocity=80 time=0@note_on channel=8 note=43 velocity=80 time=0@note_on channel=0 note=67 velocity=0 time=0.10625014166666666@note_on channel=1 note=67 velocity=0 time=0@note_on channel=5 note=54 velocity=0 time=0@note_on channel=6 note=54 velocity=0 time=0@note_on channel=8 note=43 velocity=0 time=0@note_on channel=0 note=63 velocity=80 time=0.0008928583333333332@note_on channel=0 note=66 velocity=80 time=0@note_on channel=1 note=63 velocity=80 time=0@note_on channel=1 note=66 velocity=80 time=0@note_on channel=5 note=59 velocity=80 time=0@note_on channel=6 note=59 velocity=80 time=0@note_on channel=8 note=39 velocity=80 time=0@note_on channel=8 note=42 velocity=80 time=0@note_on channel=5 note=59 velocity=0 time=0.10625014166666666@note_on channel=6 note=59 velocity=0 time=0@note_on channel=5 note=63 velocity=80 time=0.0008928583333333332@note_on channel=6 note=63 velocity=80 time=0@note_on channel=0 note=63 velocity=0 time=0.10625014166666666@note_on channel=0 note=66 velocity=0 time=0@note_on channel=1 note=63 velocity=0 time=0@note_on channel=1 note=66 velocity=0 time=0@note_on channel=5 note=63 velocity=0 time=0@note_on channel=6 note=63 velocity=0 time=0@note_on channel=8 note=39 velocity=0 time=0@note_on channel=8 note=42 velocity=0 time=0@note_on channel=0 note=67 velocity=80 time=0.0008928583333333332@note_on channel=1 note=67 velocity=80 time=0@note_on channel=5 note=59 velocity=80 time=0@note_on channel=6 note=59 velocity=80 time=0@note_on channel=8 note=43 velocity=80 time=0@note_on channel=0 note=67 velocity=0 time=0.10625014166666666@note_on channel=1 note=67 velocity=0 time=0@note_on channel=2 note=63 velocity=0 time=0@note_on channel=3 note=75 velocity=0 time=0@note_on channel=5 note=59 velocity=0 time=0@note_on channel=6 note=59 velocity=0 time=0@note_on channel=7 note=75 velocity=0 time=0@note_on channel=8 note=43 velocity=0 time=0@note_on channel=5 note=47 velocity=80 time=0.0008928583333333332@note_on channel=6 note=47 velocity=80 time=0@note_on channel=5 note=47 velocity=0 time=0.21339314166666665@note_on channel=6 note=47 velocity=0 time=0@note_on channel=5 note=52 velocity=80 time=0.0008928583333333332@note_on channel=6 note=52 velocity=80 time=0@note_on channel=5 note=52 velocity=0 time=0.10625014166666666@note_on channel=6 note=52 velocity=0 time=0@note_on channel=0 note=59 velocity=80 time=0.0008928583333333332@note_on channel=0 note=64 velocity=80 time=0@note_on channel=0 note=67 velocity=80 time=0@note_on channel=1 note=59 velocity=80 time=0@note_on channel=1 note=64 velocity=80 time=0@note_on channel=1 note=67 velocity=80 time=0@note_on channel=8 note=35 velocity=80 time=0@note_on channel=8 note=40 velocity=80 time=0@note_on channel=8 note=43 velocity=80 time=0@note_on channel=0 note=59 velocity=0 time=0.10625014166666666@note_on channel=0 note=64 velocity=0 time=0@note_on channel=0 note=67 velocity=0 time=0@note_on channel=1 note=59 velocity=0 time=0@note_on channel=1 note=64 velocity=0 time=0@note_on channel=1 note=67 velocity=0 time=0@note_on channel=8 note=35 velocity=0 time=0@note_on channel=8 note=40 velocity=0 time=0@note_on channel=8 note=43 velocity=0 time=0@note_on channel=5 note=47 velocity=80 time=0.10803585833333332@note_on channel=6 note=47 velocity=80 time=0@note_on channel=5 note=47 velocity=0 time=0.10625014166666666@note_on channel=6 note=47 velocity=0 time=0@note_on channel=5 note=55 velocity=80 time=0.0008928583333333332@note_on channel=6 note=55 velocity=80 time=0@note_on channel=5 note=55 velocity=0 time=0.3205361416666666@note_on channel=6 note=55 velocity=0 time=0@note_on channel=0 note=59 velocity=80 time=0.0008928583333333332@note_on channel=0 note=64 velocity=80 time=0@note_on channel=0 note=67 velocity=80 time=0@note_on channel=1 note=59 velocity=80 time=0@note_on channel=1 note=64 velocity=80 time=0@note_on channel=1 note=67 velocity=80 time=0@note_on channel=5 note=52 velocity=80 time=0@note_on channel=6 note=52 velocity=80 time=0@note_on channel=8 note=35 velocity=80 time=0@note_on channel=8 note=40 velocity=80 time=0@note_on channel=8 note=43 velocity=80 time=0@note_on channel=0 note=59 velocity=0 time=0.10625014166666666@note_on channel=0 note=64 velocity=0 time=0@note_on channel=0 note=67 velocity=0 time=0@note_on channel=1 note=59 velocity=0 time=0@note_on channel=1 note=64 velocity=0 time=0@note_on channel=1 note=67 velocity=0 time=0@note_on channel=8 note=35 velocity=0 time=0@note_on channel=8 note=40 velocity=0 time=0@note_on channel=8 note=43 velocity=0 time=0@note_on channel=5 note=52 velocity=0 time=0.21428599999999998@note_on channel=6 note=52 velocity=0 time=0@note_on channel=0 note=59 velocity=80 time=0.32232185833333327@note_on channel=0 note=64 velocity=80 time=0@note_on channel=0 note=67 velocity=80 time=0@note_on channel=1 note=59 velocity=80 time=0@note_on channel=1 note=64 velocity=80 time=0@note_on channel=1 note=67 velocity=80 time=0@note_on channel=8 note=35 velocity=80 time=0@note_on channel=8 note=40 velocity=80 time=0@note_on channel=8 note=43 velocity=80 time=0@note_on channel=0 note=59 velocity=0 time=0.10625014166666666@note_on channel=0 note=64 velocity=0 time=0@note_on channel=0 note=67 velocity=0 time=0@note_on channel=1 note=59 velocity=0 time=0@note_on channel=1 note=64 velocity=0 time=0@note_on channel=1 note=67 velocity=0 time=0@note_on channel=8 note=35 velocity=0 time=0@note_on channel=8 note=40 velocity=0 time=0@note_on channel=8 note=43 velocity=0 time=0@note_on channel=5 note=52 velocity=80 time=0.10803585833333332@note_on channel=6 note=52 velocity=80 time=0@note_on channel=5 note=52 velocity=0 time=0.10625014166666666@note_on channel=6 note=52 velocity=0 time=0@note_on channel=5 note=54 velocity=80 time=0.0008928583333333332@note_on channel=6 note=54 velocity=80 time=0@note_on channel=5 note=54 velocity=0 time=0.21339314166666665@note_on channel=6 note=54 velocity=0 time=0@note_on channel=5 note=55 velocity=80 time=0.0008928583333333332@note_on channel=6 note=55 velocity=80 time=0@note_on channel=5 note=55 velocity=0 time=0.10625014166666666@note_on channel=6 note=55 velocity=0 time=0@note_on channel=0 note=63 velocity=80 time=0.0008928583333333332@note_on channel=0 note=66 velocity=80 time=0@note_on channel=1 note=63 velocity=80 time=0@note_on channel=1 note=66 velocity=80 time=0@note_on channel=5 note=54 velocity=80 time=0@note_on channel=6 note=54 velocity=80 time=0@note_on channel=8 note=39 velocity=80 time=0@note_on channel=8 note=42 velocity=80 time=0@note_on channel=0 note=63 velocity=0 time=0.21339314166666665@note_on channel=0 note=66 velocity=0 time=0@note_on channel=1 note=63 velocity=0 time=0@note_on channel=1 note=66 velocity=0 time=0@note_on channel=5 note=54 velocity=0 time=0@note_on channel=6 note=54 velocity=0 time=0@note_on channel=8 note=39 velocity=0 time=0@note_on channel=8 note=42 velocity=0 time=0@note_on channel=0 note=69 velocity=80 time=0.0008928583333333332@note_on channel=1 note=69 velocity=80 time=0@note_on channel=5 note=51 velocity=80 time=0@note_on channel=6 note=51 velocity=80 time=0@note_on channel=8 note=45 velocity=80 time=0@note_on channel=0 note=69 velocity=0 time=0.10625014166666666@note_on channel=1 note=69 velocity=0 time=0@note_on channel=5 note=51 velocity=0 time=0@note_on channel=6 note=51 velocity=0 time=0@note_on channel=8 note=45 velocity=0 time=0@note_on channel=5 note=47 velocity=80 time=0.0008928583333333332@note_on channel=6 note=47 velocity=80 time=0@note_on channel=5 note=47 velocity=0 time=0.21339314166666665@note_on channel=6 note=47 velocity=0 time=0@note_on channel=5 note=52 velocity=80 time=0.0008928583333333332@note_on channel=6 note=52 velocity=80 time=0@note_on channel=5 note=52 velocity=0 time=0.10625014166666666@note_on channel=6 note=52 velocity=0 time=0@note_on channel=0 note=59 velocity=80 time=0.0008928583333333332@note_on channel=0 note=64 velocity=80 time=0@note_on channel=0 note=67 velocity=80 time=0@note_on channel=1 note=59 velocity=80 time=0@note_on channel=1 note=64 velocity=80 time=0@note_on channel=1 note=67 velocity=80 time=0@note_on channel=8 note=35 velocity=80 time=0@note_on channel=8 note=40 velocity=80 time=0@note_on channel=8 note=43 velocity=80 time=0@note_on channel=0 note=59 velocity=0 time=0.21339314166666665@note_on channel=0 note=64 velocity=0 time=0@note_on channel=0 note=67 velocity=0 time=0@note_on channel=1 note=59 velocity=0 time=0@note_on channel=1 note=64 velocity=0 time=0@note_on channel=1 note=67 velocity=0 time=0@note_on channel=8 note=35 velocity=0 time=0@note_on channel=8 note=40 velocity=0 time=0@note_on channel=8 note=43 velocity=0 time=0@note_on channel=5 note=47 velocity=80 time=0.0008928583333333332@note_on channel=6 note=47 velocity=80 time=0@note_on channel=5 note=47 velocity=0 time=0.10625014166666666@note_on channel=6 note=47 velocity=0 time=0@note_on channel=5 note=55 velocity=80 time=0.0008928583333333332@note_on channel=6 note=55 velocity=80 time=0@note_on channel=5 note=55 velocity=0 time=0.3205361416666666@note_on channel=6 note=55 velocity=0 time=0@note_on channel=0 note=59 velocity=80 time=0.0008928583333333332@note_on channel=0 note=64 velocity=80 time=0@note_on channel=0 note=67 velocity=80 time=0@note_on channel=1 note=59 velocity=80 time=0@note_on channel=1 note=64 velocity=80 time=0@note_on channel=1 note=67 velocity=80 time=0@note_on channel=5 note=52 velocity=80 time=0@note_on channel=6 note=52 velocity=80 time=0@note_on channel=8 note=35 velocity=80 time=0@note_on channel=8 note=40 velocity=80 time=0@note_on channel=8 note=43 velocity=80 time=0@note_on channel=0 note=59 velocity=0 time=0.21339314166666665@note_on channel=0 note=64 velocity=0 time=0@note_on channel=0 note=67 velocity=0 time=0@note_on channel=1 note=59 velocity=0 time=0@note_on channel=1 note=64 velocity=0 time=0@note_on channel=1 note=67 velocity=0 time=0@note_on channel=8 note=35 velocity=0 time=0@note_on channel=8 note=40 velocity=0 time=0@note_on channel=8 note=43 velocity=0 time=0@note_on channel=5 note=52 velocity=0 time=0.10714299999999999@note_on channel=6 note=52 velocity=0 time=0@note_on channel=0 note=59 velocity=80 time=0.32232185833333327@note_on channel=0 note=64 velocity=80 time=0@note_on channel=0 note=67 velocity=80 time=0@note_on channel=1 note=59 velocity=80 time=0@note_on channel=1 note=64 velocity=80 time=0@note_on channel=1 note=67 velocity=80 time=0@note_on channel=8 note=35 velocity=80 time=0@note_on channel=8 note=40 velocity=80 time=0@note_on channel=8 note=43 velocity=80 time=0@note_on channel=0 note=59 velocity=0 time=0.21339314166666665@note_on channel=0 note=64 velocity=0 time=0@note_on channel=0 note=67 velocity=0 time=0@note_on channel=1 note=59 velocity=0 time=0@note_on channel=1 note=64 velocity=0 time=0@note_on channel=1 note=67 velocity=0 time=0@note_on channel=8 note=35 velocity=0 time=0@note_on channel=8 note=40 velocity=0 time=0@note_on channel=8 note=43 velocity=0 time=0@note_on channel=5 note=52 velocity=80 time=0.0008928583333333332@note_on channel=6 note=52 velocity=80 time=0@note_on channel=5 note=52 velocity=0 time=0.10625014166666666@note_on channel=6 note=52 velocity=0 time=0@note_on channel=5 note=50 velocity=80 time=0.0008928583333333332@note_on channel=6 note=50 velocity=80 time=0@note_on channel=5 note=50 velocity=0 time=0.21339314166666665@note_on channel=6 note=50 velocity=0 time=0@note_on channel=5 note=52 velocity=80 time=0.0008928583333333332@note_on channel=6 note=52 velocity=80 time=0@note_on channel=5 note=52 velocity=0 time=0.10625014166666666@note_on channel=6 note=52 velocity=0 time=0@note_on channel=0 note=64 velocity=80 time=0.0008928583333333332@note_on channel=0 note=67 velocity=80 time=0@note_on channel=1 note=64 velocity=80 time=0@note_on channel=1 note=67 velocity=80 time=0@note_on channel=5 note=50 velocity=80 time=0@note_on channel=6 note=50 velocity=80 time=0@note_on channel=8 note=40 velocity=80 time=0@note_on channel=8 note=43 velocity=80 time=0@note_on channel=0 note=64 velocity=0 time=0.21339314166666665@note_on channel=0 note=67 velocity=0 time=0@note_on channel=1 note=64 velocity=0 time=0@note_on channel=1 note=67 velocity=0 time=0@note_on channel=5 note=50 velocity=0 time=0@note_on channel=6 note=50 velocity=0 time=0@note_on channel=8 note=40 velocity=0 time=0@note_on channel=8 note=43 velocity=0 time=0@note_on channel=0 note=66 velocity=80 time=0.0008928583333333332@note_on channel=1 note=66 velocity=80 time=0@note_on channel=5 note=50 velocity=80 time=0@note_on channel=6 note=50 velocity=80 time=0@note_on channel=8 note=42 velocity=80 time=0@note_on channel=0 note=66 velocity=0 time=0.10625014166666666@note_on channel=1 note=66 velocity=0 time=0@note_on channel=5 note=50 velocity=0 time=0@note_on channel=6 note=50 velocity=0 time=0@note_on channel=8 note=42 velocity=0 time=0@note_on channel=5 note=48 velocity=80 time=0.0008928583333333332@note_on channel=6 note=48 velocity=80 time=0@note_on channel=5 note=48 velocity=0 time=0.21339314166666665@note_on channel=6 note=48 velocity=0 time=0@note_on channel=5 note=52 velocity=80 time=0.0008928583333333332@note_on channel=6 note=52 velocity=80 time=0@note_on channel=5 note=52 velocity=0 time=0.10625014166666666@note_on channel=6 note=52 velocity=0 time=0@note_on channel=0 note=60 velocity=80 time=0.0008928583333333332@note_on channel=0 note=64 velocity=80 time=0@note_on channel=0 note=67 velocity=80 time=0@note_on channel=1 note=60 velocity=80 time=0@note_on channel=1 note=64 velocity=80 time=0@note_on channel=1 note=67 velocity=80 time=0@note_on channel=8 note=36 velocity=80 time=0@note_on channel=8 note=40 velocity=80 time=0@note_on channel=8 note=43 velocity=80 time=0@note_on channel=0 note=60 velocity=0 time=0.21339314166666665@note_on channel=0 note=64 velocity=0 time=0@note_on channel=0 note=67 velocity=0 time=0@note_on channel=1 note=60 velocity=0 time=0@note_on channel=1 note=64 velocity=0 time=0@note_on channel=1 note=67 velocity=0 time=0@note_on channel=8 note=36 velocity=0 time=0@note_on channel=8 note=40 velocity=0 time=0@note_on channel=8 note=43 velocity=0 time=0@note_on channel=5 note=48 velocity=80 time=0.0008928583333333332@note_on channel=6 note=48 velocity=80 time=0@note_on channel=5 note=48 velocity=0 time=0.10625014166666666@note_on channel=6 note=48 velocity=0 time=0@note_on channel=5 note=60 velocity=80 time=0.0008928583333333332@note_on channel=6 note=60 velocity=80 time=0@note_on channel=5 note=60 velocity=0 time=0.3205361416666666@note_on channel=6 note=60 velocity=0 time=0@note_on channel=0 note=60 velocity=80 time=0.0008928583333333332@note_on channel=0 note=64 velocity=80 time=0@note_on channel=0 note=67 velocity=80 time=0@note_on channel=1 note=60 velocity=80 time=0@note_on channel=1 note=64 velocity=80 time=0@note_on channel=1 note=67 velocity=80 time=0@note_on channel=5 note=52 velocity=80 time=0@note_on channel=6 note=52 velocity=80 time=0@note_on channel=8 note=36 velocity=80 time=0@note_on channel=8 note=40 velocity=80 time=0@note_on channel=8 note=43 velocity=80 time=0@note_on channel=0 note=60 velocity=0 time=0.21339314166666665@note_on channel=0 note=64 velocity=0 time=0@note_on channel=0 note=67 velocity=0 time=0@note_on channel=1 note=60 velocity=0 time=0@note_on channel=1 note=64 velocity=0 time=0@note_on channel=1 note=67 velocity=0 time=0@note_on channel=8 note=36 velocity=0 time=0@note_on channel=8 note=40 velocity=0 time=0@note_on channel=8 note=43 velocity=0 time=0@note_on channel=5 note=52 velocity=0 time=0.10714299999999999@note_on channel=6 note=52 velocity=0 time=0@note_on channel=0 note=60 velocity=80 time=0.32232185833333327@note_on channel=0 note=64 velocity=80 time=0@note_on channel=0 note=67 velocity=80 time=0@note_on channel=1 note=60 velocity=80 time=0@note_on channel=1 note=64 velocity=80 time=0@note_on channel=1 note=67 velocity=80 time=0@note_on channel=8 note=36 velocity=80 time=0@note_on channel=8 note=40 velocity=80 time=0@note_on channel=8 note=43 velocity=80 time=0@note_on channel=0 note=60 velocity=0 time=0.21339314166666665@note_on channel=0 note=64 velocity=0 time=0@note_on channel=0 note=67 velocity=0 time=0@note_on channel=1 note=60 velocity=0 time=0@note_on channel=1 note=64 velocity=0 time=0@note_on channel=1 note=67 velocity=0 time=0@note_on channel=8 note=36 velocity=0 time=0@note_on channel=8 note=40 velocity=0 time=0@note_on channel=8 note=43 velocity=0 time=0@note_on channel=5 note=52 velocity=80 time=0.0008928583333333332@note_on channel=6 note=52 velocity=80 time=0@note_on channel=5 note=52 velocity=0 time=0.10625014166666666@note_on channel=6 note=52 velocity=0 time=0@note_on channel=5 note=52 velocity=80 time=0.0008928583333333332@note_on channel=6 note=52 velocity=80 time=0@note_on channel=5 note=52 velocity=0 time=0.21339314166666665@note_on channel=6 note=52 velocity=0 time=0@note_on channel=5 note=54 velocity=80 time=0.0008928583333333332@note_on channel=6 note=54 velocity=80 time=0@note_on channel=5 note=54 velocity=0 time=0.10625014166666666@note_on channel=6 note=54 velocity=0 time=0@note_on channel=0 note=64 velocity=80 time=0.0008928583333333332@note_on channel=0 note=67 velocity=80 time=0@note_on channel=1 note=64 velocity=80 time=0@note_on channel=1 note=67 velocity=80 time=0@note_on channel=5 note=52 velocity=80 time=0@note_on channel=6 note=52 velocity=80 time=0@note_on channel=8 note=40 velocity=80 time=0@note_on channel=8 note=43 velocity=80 time=0@note_on channel=0 note=64 velocity=0 time=0.21339314166666665@note_on channel=0 note=67 velocity=0 time=0@note_on channel=1 note=64 velocity=0 time=0@note_on channel=1 note=67 velocity=0 time=0@note_on channel=5 note=52 velocity=0 time=0@note_on channel=6 note=52 velocity=0 time=0@note_on channel=8 note=40 velocity=0 time=0@note_on channel=8 note=43 velocity=0 time=0@note_on channel=0 note=69 velocity=80 time=0.0008928583333333332@note_on channel=1 note=69 velocity=80 time=0@note_on channel=5 note=51 velocity=80 time=0@note_on channel=6 note=51 velocity=80 time=0@note_on channel=8 note=45 velocity=80 time=0@note_on channel=0 note=69 velocity=0 time=0.10625014166666666@note_on channel=1 note=69 velocity=0 time=0@note_on channel=5 note=51 velocity=0 time=0@note_on channel=6 note=51 velocity=0 time=0@note_on channel=8 note=45 velocity=0 time=0@note_on channel=0 note=63 velocity=80 time=0.0008928583333333332@note_on channel=0 note=71 velocity=80 time=0@note_on channel=1 note=63 velocity=80 time=0@note_on channel=1 note=71 velocity=80 time=0@note_on channel=5 note=47 velocity=80 time=0@note_on channel=6 note=47 velocity=80 time=0@note_on channel=8 note=39 velocity=80 time=0@note_on channel=8 note=47 velocity=80 time=0@note_on channel=0 note=63 velocity=0 time=0.21339314166666665@note_on channel=0 note=71 velocity=0 time=0@note_on channel=1 note=63 velocity=0 time=0@note_on channel=1 note=71 velocity=0 time=0@note_on channel=5 note=47 velocity=0 time=0@note_on channel=6 note=47 velocity=0 time=0@note_on channel=8 note=39 velocity=0 time=0@note_on channel=8 note=47 velocity=0 time=0@note_on channel=0 note=69 velocity=80 time=0.0008928583333333332@note_on channel=1 note=69 velocity=80 time=0@note_on channel=5 note=54 velocity=80 time=0@note_on channel=6 note=54 velocity=80 time=0@note_on channel=8 note=45 velocity=80 time=0@note_on channel=0 note=69 velocity=0 time=0.10625014166666666@note_on channel=1 note=69 velocity=0 time=0@note_on channel=5 note=54 velocity=0 time=0@note_on channel=6 note=54 velocity=0 time=0@note_on channel=8 note=45 velocity=0 time=0@note_on channel=0 note=63 velocity=80 time=0.2151788583333333@note_on channel=0 note=69 velocity=80 time=0@note_on channel=1 note=63 velocity=80 time=0@note_on channel=1 note=69 velocity=80 time=0@note_on channel=5 note=47 velocity=80 time=0@note_on channel=6 note=47 velocity=80 time=0@note_on channel=8 note=39 velocity=80 time=0@note_on channel=8 note=45 velocity=80 time=0@note_on channel=0 note=63 velocity=0 time=0.10625014166666666@note_on channel=0 note=69 velocity=0 time=0@note_on channel=1 note=63 velocity=0 time=0@note_on channel=1 note=69 velocity=0 time=0@note_on channel=5 note=47 velocity=0 time=0@note_on channel=6 note=47 velocity=0 time=0@note_on channel=8 note=39 velocity=0 time=0@note_on channel=8 note=45 velocity=0 time=0@note_on channel=5 note=59 velocity=80 time=0.0008928583333333332@note_on channel=6 note=59 velocity=80 time=0@note_on channel=5 note=59 velocity=0 time=0.3205361416666666@note_on channel=6 note=59 velocity=0 time=0@note_on channel=0 note=63 velocity=80 time=0.0008928583333333332@note_on channel=0 note=69 velocity=80 time=0@note_on channel=1 note=63 velocity=80 time=0@note_on channel=1 note=69 velocity=80 time=0@note_on channel=5 note=54 velocity=80 time=0@note_on channel=6 note=54 velocity=80 time=0@note_on channel=8 note=39 velocity=80 time=0@note_on channel=8 note=45 velocity=80 time=0@note_on channel=0 note=63 velocity=0 time=0.10625014166666666@note_on channel=0 note=69 velocity=0 time=0@note_on channel=1 note=63 velocity=0 time=0@note_on channel=1 note=69 velocity=0 time=0@note_on channel=8 note=39 velocity=0 time=0@note_on channel=8 note=45 velocity=0 time=0@note_on channel=5 note=54 velocity=0 time=0.21428599999999998@note_on channel=6 note=54 velocity=0 time=0@note_on channel=0 note=63 velocity=80 time=0.32232185833333327@note_on channel=0 note=69 velocity=80 time=0@note_on channel=1 note=63 velocity=80 time=0@note_on channel=1 note=69 velocity=80 time=0@note_on channel=8 note=39 velocity=80 time=0@note_on channel=8 note=45 velocity=80 time=0@note_on channel=5 note=57 velocity=80 time=0.21428599999999998@note_on channel=6 note=57 velocity=80 time=0@note_on channel=0 note=63 velocity=0 time=0.10625014166666666@note_on channel=0 note=69 velocity=0 time=0@note_on channel=1 note=63 velocity=0 time=0@note_on channel=1 note=69 velocity=0 time=0@note_on channel=5 note=57 velocity=0 time=0@note_on channel=6 note=57 velocity=0 time=0@note_on channel=8 note=39 velocity=0 time=0@note_on channel=8 note=45 velocity=0 time=0@note_on channel=0 note=63 velocity=80 time=0.0008928583333333332@note_on channel=0 note=69 velocity=80 time=0@note_on channel=1 note=63 velocity=80 time=0@note_on channel=1 note=69 velocity=80 time=0@note_on channel=5 note=57 velocity=80 time=0@note_on channel=6 note=57 velocity=80 time=0@note_on channel=8 note=39 velocity=80 time=0@note_on channel=8 note=45 velocity=80 time=0@note_on channel=5 note=57 velocity=0 time=0.10625014166666666@note_on channel=6 note=57 velocity=0 time=0@note_on channel=5 note=55 velocity=80 time=0.0008928583333333332@note_on channel=6 note=55 velocity=80 time=0@note_on channel=0 note=63 velocity=0 time=0.10625014166666666@note_on channel=0 note=69 velocity=0 time=0@note_on channel=1 note=63 velocity=0 time=0@note_on channel=1 note=69 velocity=0 time=0@note_on channel=5 note=55 velocity=0 time=0@note_on channel=6 note=55 velocity=0 time=0@note_on channel=8 note=39 velocity=0 time=0@note_on channel=8 note=45 velocity=0 time=0@note_on channel=0 note=67 velocity=80 time=0.0008928583333333332@note_on channel=1 note=67 velocity=80 time=0@note_on channel=5 note=54 velocity=80 time=0@note_on channel=6 note=54 velocity=80 time=0@note_on channel=8 note=43 velocity=80 time=0@note_on channel=0 note=67 velocity=0 time=0.10625014166666666@note_on channel=1 note=67 velocity=0 time=0@note_on channel=5 note=54 velocity=0 time=0@note_on channel=6 note=54 velocity=0 time=0@note_on channel=8 note=43 velocity=0 time=0@note_on channel=0 note=63 velocity=80 time=0.0008928583333333332@note_on channel=0 note=66 velocity=80 time=0@note_on channel=1 note=63 velocity=80 time=0@note_on channel=1 note=66 velocity=80 time=0@note_on channel=5 note=59 velocity=80 time=0@note_on channel=6 note=59 velocity=80 time=0@note_on channel=8 note=39 velocity=80 time=0@note_on channel=8 note=42 velocity=80 time=0@note_on channel=5 note=59 velocity=0 time=0.10625014166666666@note_on channel=6 note=59 velocity=0 time=0@note_on channel=5 note=63 velocity=80 time=0.0008928583333333332@note_on channel=6 note=63 velocity=80 time=0@note_on channel=0 note=63 velocity=0 time=0.10625014166666666@note_on channel=0 note=66 velocity=0 time=0@note_on channel=1 note=63 velocity=0 time=0@note_on channel=1 note=66 velocity=0 time=0@note_on channel=5 note=63 velocity=0 time=0@note_on channel=6 note=63 velocity=0 time=0@note_on channel=8 note=39 velocity=0 time=0@note_on channel=8 note=42 velocity=0 time=0@note_on channel=0 note=67 velocity=80 time=0.0008928583333333332@note_on channel=1 note=67 velocity=80 time=0@note_on channel=5 note=59 velocity=80 time=0@note_on channel=6 note=59 velocity=80 time=0@note_on channel=8 note=43 velocity=80 time=0@note_on channel=0 note=67 velocity=0 time=0.10625014166666666@note_on channel=1 note=67 velocity=0 time=0@note_on channel=5 note=59 velocity=0 time=0@note_on channel=6 note=59 velocity=0 time=0@note_on channel=8 note=43 velocity=0 time=0@note_on channel=0 note=64 velocity=80 time=0.0008928583333333332@note_on channel=1 note=64 velocity=80 time=0@note_on channel=5 note=52 velocity=80 time=0@note_on channel=6 note=52 velocity=80 time=0@note_on channel=8 note=40 velocity=80 time=0@note_on channel=0 note=64 velocity=0 time=0.6419651416666666@note_on channel=1 note=64 velocity=0 time=0@note_on channel=5 note=52 velocity=0 time=0@note_on channel=6 note=52 velocity=0 time=0@note_on channel=8 note=40 velocity=0 time=0@<meta message end_of_track time=0.0008928583333333332>@