<meta message time_signature numerator=4 denominator=4 clocks_per_click=24 notated_32nd_notes_per_beat=8 time=0>@<meta message key_signature key='Eb' time=0>@<meta message set_tempo tempo=322581 time=0>@control_change channel=0 control=121 value=0 time=0@program_change channel=0 program=73 time=0@control_change channel=0 control=7 value=100 time=0@control_change channel=0 control=10 value=64 time=0@control_change channel=0 control=91 value=0 time=0@control_change channel=0 control=93 value=0 time=0@<meta message midi_port port=0 time=0>@note_on channel=0 note=79 velocity=80 time=0@<meta message key_signature key='Eb' time=0>@control_change channel=1 control=121 value=0 time=0@program_change channel=1 program=74 time=0@control_change channel=1 control=7 value=100 time=0@control_change channel=1 control=10 value=64 time=0@control_change channel=1 control=91 value=0 time=0@control_change channel=1 control=93 value=0 time=0@<meta message midi_port port=0 time=0>@note_on channel=1 note=91 velocity=80 time=0@<meta message key_signature key='Eb' time=0>@control_change channel=2 control=121 value=0 time=0@program_change channel=2 program=57 time=0@control_change channel=2 control=7 value=100 time=0@control_change channel=2 control=10 value=64 time=0@control_change channel=2 control=91 value=0 time=0@control_change channel=2 control=93 value=0 time=0@<meta message midi_port port=0 time=0>@<meta message key_signature key='Eb' time=0>@control_change channel=3 control=121 value=0 time=0@program_change channel=3 program=58 time=0@control_change channel=3 control=7 value=100 time=0@control_change channel=3 control=10 value=64 time=0@control_change channel=3 control=91 value=0 time=0@control_change channel=3 control=93 value=0 time=0@<meta message midi_port port=0 time=0>@note_on channel=3 note=43 velocity=80 time=0@<meta message key_signature key='Eb' time=0>@control_change channel=4 control=121 value=0 time=0@program_change channel=4 program=57 time=0@control_change channel=4 control=7 value=100 time=0@control_change channel=4 control=10 value=64 time=0@control_change channel=4 control=91 value=0 time=0@control_change channel=4 control=93 value=0 time=0@<meta message midi_port port=0 time=0>@<meta message key_signature key='Eb' time=0>@control_change channel=5 control=121 value=0 time=0@program_change channel=5 program=58 time=0@control_change channel=5 control=7 value=100 time=0@control_change channel=5 control=10 value=64 time=0@control_change channel=5 control=91 value=0 time=0@control_change channel=5 control=93 value=0 time=0@<meta message midi_port port=0 time=0>@note_on channel=3 note=43 velocity=0 time=0.16061845625@note_on channel=2 note=55 velocity=80 time=0.00067204375@note_on channel=0 note=79 velocity=0 time=0.14448940625@note_on channel=1 note=91 velocity=0 time=0.01612905@note_on channel=2 note=55 velocity=0 time=0@note_on channel=0 note=77 velocity=80 time=0.00067204375@note_on channel=1 note=89 velocity=80 time=0@note_on channel=3 note=43 velocity=80 time=0@note_on channel=0 note=77 velocity=0 time=0.15255393125@note_on channel=1 note=89 velocity=0 time=0.008064525@note_on channel=3 note=43 velocity=0 time=0@note_on channel=0 note=75 velocity=81 time=0.00067204375@note_on channel=1 note=87 velocity=81 time=0@note_on channel=2 note=55 velocity=80 time=0@note_on channel=0 note=75 velocity=0 time=0.15255393125@note_on channel=1 note=87 velocity=0 time=0.008064525@note_on channel=2 note=55 velocity=0 time=0@note_on channel=0 note=74 velocity=82 time=0.00067204375@note_on channel=1 note=86 velocity=82 time=0@note_on channel=3 note=45 velocity=80 time=0@note_on channel=0 note=74 velocity=0 time=0.15255393125@note_on channel=1 note=86 velocity=0 time=0.008064525@note_on channel=3 note=45 velocity=0 time=0@note_on channel=0 note=70 velocity=83 time=0.00067204375@note_on channel=1 note=82 velocity=83 time=0@note_on channel=2 note=57 velocity=80 time=0@note_on channel=0 note=70 velocity=0 time=0.15255393125@note_on channel=1 note=82 velocity=0 time=0.008064525@note_on channel=2 note=57 velocity=0 time=0@note_on channel=0 note=67 velocity=84 time=0.00067204375@note_on channel=1 note=79 velocity=84 time=0@note_on channel=3 note=45 velocity=80 time=0@note_on channel=3 note=45 velocity=0 time=0.16061845625@note_on channel=2 note=57 velocity=80 time=0.00067204375@note_on channel=0 note=67 velocity=0 time=0.14448940625@note_on channel=1 note=79 velocity=0 time=0.01612905@note_on channel=2 note=57 velocity=0 time=0@note_on channel=0 note=72 velocity=86 time=0.00067204375@note_on channel=1 note=84 velocity=86 time=0@note_on channel=3 note=46 velocity=80 time=0@note_on channel=0 note=72 velocity=0 time=0.15255393125@note_on channel=1 note=84 velocity=0 time=0.008064525@note_on channel=3 note=46 velocity=0 time=0@note_on channel=0 note=74 velocity=88 time=0.00067204375@note_on channel=1 note=86 velocity=88 time=0@note_on channel=2 note=58 velocity=80 time=0@note_on channel=0 note=74 velocity=0 time=0.15255393125@note_on channel=1 note=86 velocity=0 time=0.008064525@note_on channel=2 note=58 velocity=0 time=0@note_on channel=0 note=75 velocity=89 time=0.00067204375@note_on channel=1 note=87 velocity=89 time=0@note_on channel=3 note=46 velocity=80 time=0@note_on channel=0 note=75 velocity=0 time=0.15255393125@note_on channel=1 note=87 velocity=0 time=0.008064525@note_on channel=3 note=46 velocity=0 time=0@note_on channel=0 note=77 velocity=90 time=0.00067204375@note_on channel=1 note=89 velocity=90 time=0@note_on channel=2 note=58 velocity=80 time=0@note_on channel=0 note=77 velocity=0 time=0.15255393125@note_on channel=1 note=89 velocity=0 time=0.008064525@note_on channel=2 note=58 velocity=0 time=0@note_on channel=0 note=74 velocity=91 time=0.00067204375@note_on channel=1 note=86 velocity=91 time=0@note_on channel=2 note=57 velocity=80 time=0@note_on channel=3 note=45 velocity=80 time=0@note_on channel=2 note=57 velocity=0 time=0.32190895625@note_on channel=3 note=45 velocity=0 time=0@note_on channel=2 note=57 velocity=80 time=0.00067204375@note_on channel=3 note=45 velocity=80 time=0@note_on channel=2 note=57 velocity=0 time=0.16061845625@note_on channel=3 note=45 velocity=0 time=0@note_on channel=2 note=57 velocity=80 time=0.00067204375@note_on channel=3 note=45 velocity=80 time=0@note_on channel=0 note=74 velocity=0 time=0.12836035625@note_on channel=1 note=86 velocity=0 time=0.0322581@note_on channel=2 note=57 velocity=0 time=0@note_on channel=3 note=45 velocity=0 time=0@note_on channel=0 note=84 velocity=96 time=0.00067204375@note_on channel=3 note=48 velocity=80 time=0@note_on channel=3 note=48 velocity=0 time=0.16061845625@note_on channel=2 note=55 velocity=80 time=0.00067204375@note_on channel=2 note=55 velocity=0 time=0.16061845625@note_on channel=3 note=43 velocity=80 time=0.00067204375@note_on channel=3 note=43 velocity=0 time=0.16061845625@note_on channel=2 note=55 velocity=80 time=0.00067204375@note_on channel=0 note=84 velocity=0 time=0.12836035625@note_on channel=2 note=55 velocity=0 time=0.0322581@note_on channel=0 note=79 velocity=96 time=0.00067204375@note_on channel=3 note=48 velocity=80 time=0@note_on channel=3 note=48 velocity=0 time=0.16061845625@note_on channel=2 note=55 velocity=80 time=0.00067204375@note_on channel=2 note=55 velocity=0 time=0.16061845625@note_on channel=3 note=43 velocity=80 time=0.00067204375@note_on channel=3 note=43 velocity=0 time=0.16061845625@note_on channel=2 note=55 velocity=80 time=0.00067204375@note_on channel=0 note=79 velocity=0 time=0.12836035625@note_on channel=2 note=55 velocity=0 time=0.0322581@note_on channel=0 note=75 velocity=96 time=0.00067204375@note_on channel=3 note=48 velocity=80 time=0@note_on channel=3 note=48 velocity=0 time=0.16061845625@note_on channel=2 note=55 velocity=80 time=0.00067204375@note_on channel=0 note=75 velocity=0 time=0.14448940625@note_on channel=2 note=55 velocity=0 time=0.01612905@note_on channel=0 note=74 velocity=96 time=0.00067204375@note_on channel=3 note=43 velocity=80 time=0@note_on channel=3 note=43 velocity=0 time=0.16061845625@note_on channel=2 note=55 velocity=80 time=0.00067204375@note_on channel=0 note=74 velocity=0 time=0.14448940625@note_on channel=2 note=55 velocity=0 time=0.01612905@note_on channel=0 note=72 velocity=96 time=0.00067204375@note_on channel=3 note=48 velocity=80 time=0@note_on channel=3 note=48 velocity=0 time=0.16061845625@note_on channel=2 note=55 velocity=80 time=0.00067204375@note_on channel=2 note=55 velocity=0 time=0.16061845625@note_on channel=3 note=43 velocity=80 time=0.00067204375@note_on channel=3 note=43 velocity=0 time=0.16061845625@note_on channel=2 note=55 velocity=80 time=0.00067204375@note_on channel=0 note=72 velocity=0 time=0.12836035625@note_on channel=2 note=55 velocity=0 time=0.0322581@note_on channel=0 note=72 velocity=96 time=0.00067204375@note_on channel=3 note=53 velocity=80 time=0@note_on channel=3 note=53 velocity=0 time=0.16061845625@note_on channel=2 note=60 velocity=80 time=0.00067204375@note_on channel=0 note=72 velocity=0 time=0.14448940625@note_on channel=2 note=60 velocity=0 time=0.01612905@note_on channel=0 note=74 velocity=96 time=0.00067204375@note_on channel=3 note=48 velocity=80 time=0@note_on channel=3 note=48 velocity=0 time=0.16061845625@note_on channel=2 note=60 velocity=80 time=0.00067204375@note_on channel=0 note=74 velocity=0 time=0.14448940625@note_on channel=2 note=60 velocity=0 time=0.01612905@note_on channel=0 note=75 velocity=96 time=0.00067204375@note_on channel=3 note=53 velocity=80 time=0@note_on channel=3 note=53 velocity=0 time=0.16061845625@note_on channel=2 note=60 velocity=80 time=0.00067204375@note_on channel=0 note=75 velocity=0 time=0.14448940625@note_on channel=2 note=60 velocity=0 time=0.01612905@note_on channel=0 note=72 velocity=96 time=0.00067204375@note_on channel=3 note=48 velocity=80 time=0@note_on channel=3 note=48 velocity=0 time=0.16061845625@note_on channel=2 note=60 velocity=80 time=0.00067204375@note_on channel=0 note=72 velocity=0 time=0.14448940625@note_on channel=2 note=60 velocity=0 time=0.01612905@note_on channel=0 note=70 velocity=96 time=0.00067204375@note_on channel=3 note=48 velocity=80 time=0@note_on channel=3 note=48 velocity=0 time=0.16061845625@note_on channel=2 note=55 velocity=80 time=0.00067204375@note_on channel=0 note=70 velocity=0 time=0.14448940625@note_on channel=2 note=55 velocity=0 time=0.01612905@note_on channel=0 note=72 velocity=96 time=0.00067204375@note_on channel=3 note=43 velocity=80 time=0@note_on channel=3 note=43 velocity=0 time=0.16061845625@note_on channel=2 note=55 velocity=80 time=0.00067204375@note_on channel=0 note=72 velocity=0 time=0.14448940625@note_on channel=2 note=55 velocity=0 time=0.01612905@note_on channel=0 note=67 velocity=96 time=0.00067204375@note_on channel=3 note=48 velocity=80 time=0@note_on channel=3 note=48 velocity=0 time=0.16061845625@note_on channel=2 note=55 velocity=80 time=0.00067204375@note_on channel=2 note=55 velocity=0 time=0.16061845625@note_on channel=3 note=43 velocity=80 time=0.00067204375@note_on channel=3 note=43 velocity=0 time=0.16061845625@note_on channel=2 note=55 velocity=80 time=0.00067204375@note_on channel=0 note=67 velocity=0 time=0.12836035625@note_on channel=2 note=55 velocity=0 time=0.0322581@note_on channel=0 note=84 velocity=96 time=0.00067204375@note_on channel=3 note=48 velocity=80 time=0@note_on channel=3 note=48 velocity=0 time=0.16061845625@note_on channel=2 note=55 velocity=80 time=0.00067204375@note_on channel=2 note=55 velocity=0 time=0.16061845625@note_on channel=3 note=43 velocity=80 time=0.00067204375@note_on channel=3 note=43 velocity=0 time=0.16061845625@note_on channel=2 note=55 velocity=80 time=0.00067204375@note_on channel=0 note=84 velocity=0 time=0.12836035625@note_on channel=2 note=55 velocity=0 time=0.0322581@note_on channel=0 note=79 velocity=96 time=0.00067204375@note_on channel=3 note=48 velocity=80 time=0@note_on channel=3 note=48 velocity=0 time=0.16061845625@note_on channel=2 note=55 velocity=80 time=0.00067204375@note_on channel=2 note=55 velocity=0 time=0.16061845625@note_on channel=3 note=43 velocity=80 time=0.00067204375@note_on channel=3 note=43 velocity=0 time=0.16061845625@note_on channel=2 note=55 velocity=80 time=0.00067204375@note_on channel=0 note=79 velocity=0 time=0.12836035625@note_on channel=2 note=55 velocity=0 time=0.0322581@note_on channel=0 note=75 velocity=96 time=0.00067204375@note_on channel=3 note=48 velocity=80 time=0@note_on channel=3 note=48 velocity=0 time=0.16061845625@note_on channel=2 note=55 velocity=80 time=0.00067204375@note_on channel=0 note=75 velocity=0 time=0.14448940625@note_on channel=2 note=55 velocity=0 time=0.01612905@note_on channel=0 note=74 velocity=96 time=0.00067204375@note_on channel=3 note=43 velocity=80 time=0@note_on channel=3 note=43 velocity=0 time=0.16061845625@note_on channel=2 note=55 velocity=80 time=0.00067204375@note_on channel=0 note=74 velocity=0 time=0.14448940625@note_on channel=2 note=55 velocity=0 time=0.01612905@note_on channel=0 note=72 velocity=96 time=0.00067204375@note_on channel=3 note=48 velocity=80 time=0@note_on channel=3 note=48 velocity=0 time=0.16061845625@note_on channel=2 note=55 velocity=80 time=0.00067204375@note_on channel=0 note=72 velocity=0 time=0.14448940625@note_on channel=2 note=55 velocity=0 time=0.01612905@note_on channel=0 note=72 velocity=96 time=0.00067204375@note_on channel=3 note=43 velocity=80 time=0@note_on channel=0 note=72 velocity=0 time=0.15255393125@note_on channel=3 note=43 velocity=0 time=0.008064525@note_on channel=0 note=74 velocity=96 time=0.00067204375@note_on channel=2 note=55 velocity=80 time=0@note_on channel=0 note=74 velocity=0 time=0.15255393125@note_on channel=2 note=55 velocity=0 time=0.008064525@note_on channel=0 note=75 velocity=96 time=0.00067204375@note_on channel=3 note=53 velocity=80 time=0@note_on channel=3 note=53 velocity=0 time=0.16061845625@note_on channel=2 note=60 velocity=80 time=0.00067204375@note_on channel=0 note=75 velocity=0 time=0.14448940625@note_on channel=2 note=60 velocity=0 time=0.01612905@note_on channel=0 note=77 velocity=96 time=0.00067204375@note_on channel=3 note=48 velocity=80 time=0@note_on channel=3 note=48 velocity=0 time=0.16061845625@note_on channel=2 note=60 velocity=80 time=0.00067204375@note_on channel=0 note=77 velocity=0 time=0.14448940625@note_on channel=2 note=60 velocity=0 time=0.01612905@note_on channel=0 note=74 velocity=96 time=0.00067204375@note_on channel=3 note=55 velocity=80 time=0@note_on channel=0 note=74 velocity=0 time=0.15255393125@note_on channel=3 note=55 velocity=0 time=0.008064525@note_on channel=0 note=72 velocity=96 time=0.00067204375@note_on channel=2 note=62 velocity=80 time=0@note_on channel=0 note=72 velocity=0 time=0.15255393125@note_on channel=2 note=62 velocity=0 time=0.008064525@note_on channel=0 note=70 velocity=96 time=0.00067204375@note_on channel=3 note=50 velocity=80 time=0@note_on channel=3 note=50 velocity=0 time=0.16061845625@note_on channel=2 note=62 velocity=80 time=0.00067204375@note_on channel=0 note=70 velocity=0 time=0.14448940625@note_on channel=2 note=62 velocity=0 time=0.01612905@note_on channel=0 note=72 velocity=96 time=0.00067204375@note_on channel=3 note=48 velocity=80 time=0@note_on channel=3 note=48 velocity=0 time=0.16061845625@note_on channel=2 note=55 velocity=80 time=0.00067204375@note_on channel=0 note=72 velocity=0 time=0.14448940625@note_on channel=2 note=55 velocity=0 time=0.01612905@note_on channel=0 note=67 velocity=96 time=0.00067204375@note_on channel=3 note=43 velocity=80 time=0@note_on channel=3 note=43 velocity=0 time=0.16061845625@note_on channel=2 note=55 velocity=80 time=0.00067204375@note_on channel=0 note=67 velocity=0 time=0.14448940625@note_on channel=2 note=55 velocity=0 time=0.01612905@note_on channel=0 note=72 velocity=96 time=0.00067204375@note_on channel=3 note=48 velocity=80 time=0@note_on channel=3 note=48 velocity=0 time=0.16061845625@note_on channel=2 note=55 velocity=80 time=0.00067204375@note_on channel=2 note=55 velocity=0 time=0.16061845625@note_on channel=3 note=43 velocity=80 time=0.00067204375@note_on channel=3 note=43 velocity=0 time=0.16061845625@note_on channel=2 note=55 velocity=80 time=0.00067204375@note_on channel=0 note=72 velocity=0 time=0.12836035625@note_on channel=2 note=55 velocity=0 time=0.0322581@note_on channel=1 note=96 velocity=96 time=0.00067204375@note_on channel=3 note=48 velocity=80 time=0@note_on channel=3 note=48 velocity=0 time=0.16061845625@note_on channel=2 note=55 velocity=80 time=0.00067204375@note_on channel=2 note=55 velocity=0 time=0.16061845625@note_on channel=3 note=43 velocity=80 time=0.00067204375@note_on channel=3 note=43 velocity=0 time=0.16061845625@note_on channel=2 note=55 velocity=80 time=0.00067204375@note_on channel=1 note=96 velocity=0 time=0.16061845625@note_on channel=2 note=55 velocity=0 time=0@note_on channel=1 note=91 velocity=96 time=0.00067204375@note_on channel=3 note=48 velocity=80 time=0@note_on channel=3 note=48 velocity=0 time=0.16061845625@note_on channel=2 note=55 velocity=80 time=0.00067204375@note_on channel=2 note=55 velocity=0 time=0.16061845625@note_on channel=3 note=43 velocity=80 time=0.00067204375@note_on channel=3 note=43 velocity=0 time=0.16061845625@note_on channel=2 note=55 velocity=80 time=0.00067204375@note_on channel=1 note=91 velocity=0 time=0.16061845625@note_on channel=2 note=55 velocity=0 time=0@note_on channel=1 note=87 velocity=96 time=0.00067204375@note_on channel=3 note=48 velocity=80 time=0@note_on channel=3 note=48 velocity=0 time=0.16061845625@note_on channel=2 note=55 velocity=80 time=0.00067204375@note_on channel=1 note=87 velocity=0 time=0.16061845625@note_on channel=2 note=55 velocity=0 time=0@note_on channel=1 note=86 velocity=96 time=0.00067204375@note_on channel=3 note=43 velocity=80 time=0@note_on channel=3 note=43 velocity=0 time=0.16061845625@note_on channel=2 note=55 velocity=80 time=0.00067204375@note_on channel=1 note=86 velocity=0 time=0.16061845625@note_on channel=2 note=55 velocity=0 time=0@note_on channel=1 note=84 velocity=96 time=0.00067204375@note_on channel=3 note=48 velocity=80 time=0@note_on channel=3 note=48 velocity=0 time=0.16061845625@note_on channel=2 note=55 velocity=80 time=0.00067204375@note_on channel=2 note=55 velocity=0 time=0.16061845625@note_on channel=3 note=43 velocity=80 time=0.00067204375@note_on channel=3 note=43 velocity=0 time=0.16061845625@note_on channel=2 note=55 velocity=80 time=0.00067204375@note_on channel=1 note=84 velocity=0 time=0.16061845625@note_on channel=2 note=55 velocity=0 time=0@note_on channel=1 note=84 velocity=96 time=0.00067204375@note_on channel=3 note=53 velocity=80 time=0@note_on channel=3 note=53 velocity=0 time=0.16061845625@note_on channel=2 note=60 velocity=80 time=0.00067204375@note_on channel=1 note=84 velocity=0 time=0.16061845625@note_on channel=2 note=60 velocity=0 time=0@note_on channel=1 note=86 velocity=96 time=0.00067204375@note_on channel=3 note=48 velocity=80 time=0@note_on channel=3 note=48 velocity=0 time=0.16061845625@note_on channel=2 note=60 velocity=80 time=0.00067204375@note_on channel=1 note=86 velocity=0 time=0.16061845625@note_on channel=2 note=60 velocity=0 time=0@note_on channel=1 note=87 velocity=96 time=0.00067204375@note_on channel=3 note=53 velocity=80 time=0@note_on channel=3 note=53 velocity=0 time=0.16061845625@note_on channel=2 note=60 velocity=80 time=0.00067204375@note_on channel=1 note=87 velocity=0 time=0.16061845625@note_on channel=2 note=60 velocity=0 time=0@note_on channel=1 note=84 velocity=96 time=0.00067204375@note_on channel=3 note=48 velocity=80 time=0@note_on channel=3 note=48 velocity=0 time=0.16061845625@note_on channel=2 note=60 velocity=80 time=0.00067204375@note_on channel=1 note=84 velocity=0 time=0.16061845625@note_on channel=2 note=60 velocity=0 time=0@note_on channel=1 note=82 velocity=96 time=0.00067204375@note_on channel=3 note=48 velocity=80 time=0@note_on channel=3 note=48 velocity=0 time=0.16061845625@note_on channel=2 note=55 velocity=80 time=0.00067204375@note_on channel=1 note=82 velocity=0 time=0.16061845625@note_on channel=2 note=55 velocity=0 time=0@note_on channel=1 note=84 velocity=96 time=0.00067204375@note_on channel=3 note=43 velocity=80 time=0@note_on channel=3 note=43 velocity=0 time=0.16061845625@note_on channel=2 note=55 velocity=80 time=0.00067204375@note_on channel=1 note=84 velocity=0 time=0.16061845625@note_on channel=2 note=55 velocity=0 time=0@note_on channel=1 note=79 velocity=96 time=0.00067204375@note_on channel=3 note=48 velocity=80 time=0@note_on channel=3 note=48 velocity=0 time=0.16061845625@note_on channel=2 note=55 velocity=80 time=0.00067204375@note_on channel=2 note=55 velocity=0 time=0.16061845625@note_on channel=3 note=43 velocity=80 time=0.00067204375@note_on channel=3 note=43 velocity=0 time=0.16061845625@note_on channel=2 note=55 velocity=80 time=0.00067204375@note_on channel=1 note=79 velocity=0 time=0.16061845625@note_on channel=2 note=55 velocity=0 time=0@note_on channel=1 note=96 velocity=96 time=0.00067204375@note_on channel=3 note=48 velocity=80 time=0@note_on channel=3 note=48 velocity=0 time=0.16061845625@note_on channel=2 note=55 velocity=80 time=0.00067204375@note_on channel=2 note=55 velocity=0 time=0.16061845625@note_on channel=3 note=43 velocity=80 time=0.00067204375@note_on channel=3 note=43 velocity=0 time=0.16061845625@note_on channel=2 note=55 velocity=80 time=0.00067204375@note_on channel=1 note=96 velocity=0 time=0.16061845625@note_on channel=2 note=55 velocity=0 time=0@note_on channel=1 note=91 velocity=96 time=0.00067204375@note_on channel=3 note=48 velocity=80 time=0@note_on channel=3 note=48 velocity=0 time=0.16061845625@note_on channel=2 note=55 velocity=80 time=0.00067204375@note_on channel=2 note=55 velocity=0 time=0.16061845625@note_on channel=3 note=43 velocity=80 time=0.00067204375@note_on channel=3 note=43 velocity=0 time=0.16061845625@note_on channel=2 note=55 velocity=80 time=0.00067204375@note_on channel=1 note=91 velocity=0 time=0.16061845625@note_on channel=2 note=55 velocity=0 time=0@note_on channel=1 note=87 velocity=96 time=0.00067204375@note_on channel=3 note=53 velocity=80 time=0@note_on channel=3 note=53 velocity=0 time=0.16061845625@note_on channel=2 note=60 velocity=80 time=0.00067204375@note_on channel=1 note=87 velocity=0 time=0.16061845625@note_on channel=2 note=60 velocity=0 time=0@note_on channel=1 note=89 velocity=96 time=0.00067204375@note_on channel=3 note=48 velocity=80 time=0@note_on channel=3 note=48 velocity=0 time=0.16061845625@note_on channel=2 note=60 velocity=80 time=0.00067204375@note_on channel=1 note=89 velocity=0 time=0.16061845625@note_on channel=2 note=60 velocity=0 time=0@note_on channel=1 note=91 velocity=96 time=0.00067204375@note_on channel=3 note=53 velocity=80 time=0@note_on channel=3 note=53 velocity=0 time=0.16061845625@note_on channel=2 note=60 velocity=80 time=0.00067204375@note_on channel=1 note=91 velocity=0 time=0.16061845625@note_on channel=2 note=60 velocity=0 time=0@note_on channel=1 note=84 velocity=96 time=0.00067204375@note_on channel=3 note=48 velocity=80 time=0@note_on channel=3 note=48 velocity=0 time=0.16061845625@note_on channel=2 note=60 velocity=80 time=0.00067204375@note_on channel=1 note=84 velocity=0 time=0.16061845625@note_on channel=2 note=60 velocity=0 time=0@note_on channel=1 note=86 velocity=96 time=0.00067204375@note_on channel=3 note=55 velocity=80 time=0@note_on channel=3 note=55 velocity=0 time=0.16061845625@note_on channel=2 note=62 velocity=80 time=0.00067204375@note_on channel=1 note=86 velocity=0 time=0.16061845625@note_on channel=2 note=62 velocity=0 time=0@note_on channel=1 note=89 velocity=96 time=0.00067204375@note_on channel=3 note=50 velocity=80 time=0@note_on channel=3 note=50 velocity=0 time=0.16061845625@note_on channel=2 note=62 velocity=80 time=0.00067204375@note_on channel=1 note=89 velocity=0 time=0.16061845625@note_on channel=2 note=62 velocity=0 time=0@note_on channel=1 note=86 velocity=96 time=0.00067204375@note_on channel=3 note=55 velocity=80 time=0@note_on channel=3 note=55 velocity=0 time=0.16061845625@note_on channel=2 note=62 velocity=80 time=0.00067204375@note_on channel=1 note=86 velocity=0 time=0.16061845625@note_on channel=2 note=62 velocity=0 time=0@note_on channel=1 note=82 velocity=96 time=0.00067204375@note_on channel=3 note=50 velocity=80 time=0@note_on channel=3 note=50 velocity=0 time=0.16061845625@note_on channel=2 note=62 velocity=80 time=0.00067204375@note_on channel=1 note=82 velocity=0 time=0.16061845625@note_on channel=2 note=62 velocity=0 time=0@note_on channel=1 note=84 velocity=96 time=0.00067204375@note_on channel=3 note=48 velocity=80 time=0@note_on channel=3 note=48 velocity=0 time=0.16061845625@note_on channel=2 note=55 velocity=80 time=0.00067204375@note_on channel=2 note=55 velocity=0 time=0.16061845625@note_on channel=3 note=43 velocity=80 time=0.00067204375@note_on channel=3 note=43 velocity=0 time=0.16061845625@note_on channel=2 note=55 velocity=80 time=0.00067204375@note_on channel=1 note=84 velocity=0 time=0.16061845625@note_on channel=2 note=55 velocity=0 time=0@note_on channel=2 note=60 velocity=80 time=0.00067204375@note_on channel=3 note=48 velocity=80 time=0@note_on channel=2 note=60 velocity=0 time=0.64448995625@note_on channel=3 note=48 velocity=0 time=0@note_on channel=3 note=53 velocity=80 time=0.00067204375@note_on channel=4 note=41 velocity=80 time=0@note_on channel=5 note=41 velocity=80 time=0@note_on channel=3 note=53 velocity=0 time=0.16061845625@note_on channel=2 note=60 velocity=80 time=0.00067204375@note_on channel=2 note=60 velocity=0 time=0.16061845625@note_on channel=4 note=41 velocity=0 time=0@note_on channel=5 note=41 velocity=0 time=0@note_on channel=3 note=48 velocity=80 time=0.00067204375@note_on channel=4 note=41 velocity=80 time=0@note_on channel=5 note=41 velocity=80 time=0@note_on channel=3 note=48 velocity=0 time=0.16061845625@note_on channel=2 note=60 velocity=80 time=0.00067204375@note_on channel=2 note=60 velocity=0 time=0.16061845625@note_on channel=4 note=41 velocity=0 time=0@note_on channel=5 note=41 velocity=0 time=0@note_on channel=3 note=53 velocity=80 time=0.00067204375@note_on channel=4 note=44 velocity=80 time=0@note_on channel=5 note=44 velocity=80 time=0@note_on channel=3 note=53 velocity=0 time=0.16061845625@note_on channel=2 note=60 velocity=80 time=0.00067204375@note_on channel=2 note=60 velocity=0 time=0.16061845625@note_on channel=4 note=44 velocity=0 time=0@note_on channel=5 note=44 velocity=0 time=0@note_on channel=3 note=48 velocity=80 time=0.00067204375@note_on channel=4 note=48 velocity=80 time=0@note_on channel=5 note=48 velocity=80 time=0@note_on channel=3 note=48 velocity=0 time=0.16061845625@note_on channel=2 note=60 velocity=80 time=0.00067204375@note_on channel=2 note=60 velocity=0 time=0.16061845625@note_on channel=4 note=48 velocity=0 time=0@note_on channel=5 note=48 velocity=0 time=0@note_on channel=3 note=48 velocity=80 time=0.00067204375@note_on channel=4 note=51 velocity=80 time=0@note_on channel=5 note=51 velocity=80 time=0@note_on channel=3 note=48 velocity=0 time=0.16061845625@note_on channel=2 note=55 velocity=80 time=0.00067204375@note_on channel=2 note=55 velocity=0 time=0.16061845625@note_on channel=4 note=51 velocity=0 time=0@note_on channel=5 note=51 velocity=0 time=0@note_on channel=3 note=43 velocity=80 time=0.00067204375@note_on channel=4 note=50 velocity=80 time=0@note_on channel=5 note=50 velocity=80 time=0@note_on channel=3 note=43 velocity=0 time=0.16061845625@note_on channel=2 note=55 velocity=80 time=0.00067204375@note_on channel=2 note=55 velocity=0 time=0.16061845625@note_on channel=4 note=50 velocity=0 time=0@note_on channel=5 note=50 velocity=0 time=0@note_on channel=3 note=48 velocity=80 time=0.00067204375@note_on channel=4 note=48 velocity=80 time=0@note_on channel=5 note=48 velocity=80 time=0@note_on channel=3 note=48 velocity=0 time=0.16061845625@note_on channel=2 note=55 velocity=80 time=0.00067204375@note_on channel=2 note=55 velocity=0 time=0.16061845625@note_on channel=4 note=48 velocity=0 time=0@note_on channel=5 note=48 velocity=0 time=0@note_on channel=3 note=43 velocity=80 time=0.00067204375@note_on channel=4 note=43 velocity=80 time=0@note_on channel=5 note=43 velocity=80 time=0@note_on channel=3 note=43 velocity=0 time=0.16061845625@note_on channel=2 note=55 velocity=80 time=0.00067204375@note_on channel=2 note=55 velocity=0 time=0.16061845625@note_on channel=4 note=43 velocity=0 time=0@note_on channel=5 note=43 velocity=0 time=0@note_on channel=3 note=53 velocity=80 time=0.00067204375@note_on channel=4 note=41 velocity=80 time=0@note_on channel=5 note=41 velocity=80 time=0@note_on channel=3 note=53 velocity=0 time=0.16061845625@note_on channel=2 note=60 velocity=80 time=0.00067204375@note_on channel=2 note=60 velocity=0 time=0.16061845625@note_on channel=4 note=41 velocity=0 time=0@note_on channel=5 note=41 velocity=0 time=0@note_on channel=3 note=48 velocity=80 time=0.00067204375@note_on channel=4 note=41 velocity=80 time=0@note_on channel=5 note=41 velocity=80 time=0@note_on channel=3 note=48 velocity=0 time=0.16061845625@note_on channel=2 note=60 velocity=80 time=0.00067204375@note_on channel=2 note=60 velocity=0 time=0.16061845625@note_on channel=4 note=41 velocity=0 time=0@note_on channel=5 note=41 velocity=0 time=0@note_on channel=3 note=53 velocity=80 time=0.00067204375@note_on channel=4 note=44 velocity=80 time=0@note_on channel=5 note=44 velocity=80 time=0@note_on channel=3 note=53 velocity=0 time=0.16061845625@note_on channel=2 note=60 velocity=80 time=0.00067204375@note_on channel=2 note=60 velocity=0 time=0.16061845625@note_on channel=4 note=44 velocity=0 time=0@note_on channel=5 note=44 velocity=0 time=0@note_on channel=3 note=48 velocity=80 time=0.00067204375@note_on channel=4 note=48 velocity=80 time=0@note_on channel=5 note=48 velocity=80 time=0@note_on channel=3 note=48 velocity=0 time=0.16061845625@note_on channel=2 note=60 velocity=80 time=0.00067204375@note_on channel=2 note=60 velocity=0 time=0.16061845625@note_on channel=4 note=48 velocity=0 time=0@note_on channel=5 note=48 velocity=0 time=0@note_on channel=3 note=48 velocity=80 time=0.00067204375@note_on channel=4 note=51 velocity=80 time=0@note_on channel=5 note=51 velocity=80 time=0@note_on channel=3 note=48 velocity=0 time=0.16061845625@note_on channel=2 note=55 velocity=80 time=0.00067204375@note_on channel=2 note=55 velocity=0 time=0.16061845625@note_on channel=4 note=51 velocity=0 time=0@note_on channel=5 note=51 velocity=0 time=0@note_on channel=3 note=43 velocity=80 time=0.00067204375@note_on channel=4 note=53 velocity=80 time=0@note_on channel=5 note=53 velocity=80 time=0@note_on channel=3 note=43 velocity=0 time=0.16061845625@note_on channel=2 note=55 velocity=80 time=0.00067204375@note_on channel=2 note=55 velocity=0 time=0.16061845625@note_on channel=4 note=53 velocity=0 time=0@note_on channel=5 note=53 velocity=0 time=0@note_on channel=3 note=48 velocity=80 time=0.00067204375@note_on channel=4 note=55 velocity=80 time=0@note_on channel=5 note=55 velocity=80 time=0@note_on channel=3 note=48 velocity=0 time=0.16061845625@note_on channel=2 note=55 velocity=80 time=0.00067204375@note_on channel=2 note=55 velocity=0 time=0.16061845625@note_on channel=3 note=43 velocity=80 time=0.00067204375@note_on channel=3 note=43 velocity=0 time=0.16061845625@note_on channel=2 note=55 velocity=80 time=0.00067204375@note_on channel=2 note=55 velocity=0 time=0.16061845625@note_on channel=4 note=55 velocity=0 time=0@note_on channel=5 note=55 velocity=0 time=0@note_on channel=0 note=80 velocity=64 time=0.00067204375@note_on channel=1 note=80 velocity=64 time=0@note_on channel=3 note=44 velocity=80 time=0@note_on channel=3 note=44 velocity=0 time=0.16061845625@note_on channel=2 note=48 velocity=80 time=0.00067204375@note_on channel=2 note=48 velocity=0 time=0.16061845625@note_on channel=3 note=41 velocity=80 time=0.00067204375@note_on channel=0 note=80 velocity=0 time=0.13642488125000002@note_on channel=1 note=80 velocity=0 time=0.024193575000000002@note_on channel=3 note=41 velocity=0 time=0@note_on channel=0 note=79 velocity=64 time=0.00067204375@note_on channel=1 note=79 velocity=64 time=0@note_on channel=2 note=48 velocity=80 time=0@note_on channel=0 note=79 velocity=0 time=0.15255393125@note_on channel=1 note=79 velocity=0 time=0.008064525@note_on channel=2 note=48 velocity=0 time=0@note_on channel=0 note=77 velocity=64 time=0.00067204375@note_on channel=1 note=77 velocity=64 time=0@note_on channel=3 note=44 velocity=80 time=0@note_on channel=3 note=44 velocity=0 time=0.16061845625@note_on channel=2 note=48 velocity=80 time=0.00067204375@note_on channel=0 note=77 velocity=0 time=0.14448940625@note_on channel=1 note=77 velocity=0 time=0.01612905@note_on channel=2 note=48 velocity=0 time=0@note_on channel=0 note=75 velocity=64 time=0.00067204375@note_on channel=1 note=75 velocity=64 time=0@note_on channel=3 note=41 velocity=80 time=0@note_on channel=0 note=75 velocity=0 time=0.15255393125@note_on channel=1 note=75 velocity=0 time=0.008064525@note_on channel=3 note=41 velocity=0 time=0@note_on channel=0 note=77 velocity=64 time=0.00067204375@note_on channel=1 note=77 velocity=64 time=0@note_on channel=2 note=48 velocity=80 time=0@note_on channel=0 note=77 velocity=0 time=0.15255393125@note_on channel=1 note=77 velocity=0 time=0.008064525@note_on channel=2 note=48 velocity=0 time=0@note_on channel=0 note=79 velocity=64 time=0.00067204375@note_on channel=1 note=79 velocity=64 time=0@note_on channel=3 note=51 velocity=80 time=0@note_on channel=3 note=51 velocity=0 time=0.16061845625@note_on channel=2 note=55 velocity=80 time=0.00067204375@note_on channel=0 note=79 velocity=0 time=0.14448940625@note_on channel=1 note=79 velocity=0 time=0.01612905@note_on channel=2 note=55 velocity=0 time=0@note_on channel=0 note=72 velocity=64 time=0.00067204375@note_on channel=1 note=72 velocity=64 time=0@note_on channel=3 note=48 velocity=80 time=0@note_on channel=3 note=48 velocity=0 time=0.16061845625@note_on channel=2 note=55 velocity=80 time=0.00067204375@note_on channel=0 note=72 velocity=0 time=0.14448940625@note_on channel=1 note=72 velocity=0 time=0.01612905@note_on channel=2 note=55 velocity=0 time=0@note_on channel=0 note=79 velocity=64 time=0.00067204375@note_on channel=1 note=79 velocity=64 time=0@note_on channel=3 note=51 velocity=80 time=0@note_on channel=3 note=51 velocity=0 time=0.16061845625@note_on channel=2 note=55 velocity=80 time=0.00067204375@note_on channel=2 note=55 velocity=0 time=0.16061845625@note_on channel=3 note=48 velocity=80 time=0.00067204375@note_on channel=3 note=48 velocity=0 time=0.16061845625@note_on channel=2 note=55 velocity=80 time=0.00067204375@note_on channel=0 note=79 velocity=0 time=0.12836035625@note_on channel=1 note=79 velocity=0 time=0.0322581@note_on channel=2 note=55 velocity=0 time=0@note_on channel=0 note=77 velocity=64 time=0.00067204375@note_on channel=1 note=77 velocity=64 time=0@note_on channel=3 note=50 velocity=80 time=0@note_on channel=0 note=77 velocity=0 time=0.15255393125@note_on channel=1 note=77 velocity=0 time=0.008064525@note_on channel=3 note=50 velocity=0 time=0@note_on channel=0 note=77 velocity=64 time=0.00067204375@note_on channel=1 note=77 velocity=64 time=0@note_on channel=2 note=53 velocity=80 time=0@note_on channel=0 note=77 velocity=0 time=0.07594094375@note_on channel=1 note=77 velocity=0 time=0.0040322625@note_on channel=0 note=77 velocity=64 time=0.00067204375@note_on channel=1 note=77 velocity=64 time=0@note_on channel=0 note=77 velocity=0 time=0.07594094375@note_on channel=1 note=77 velocity=0 time=0.0040322625@note_on channel=2 note=53 velocity=0 time=0@note_on channel=0 note=77 velocity=64 time=0.00067204375@note_on channel=1 note=77 velocity=64 time=0@note_on channel=3 note=46 velocity=80 time=0@note_on channel=0 note=77 velocity=0 time=0.15255393125@note_on channel=1 note=77 velocity=0 time=0.008064525@note_on channel=3 note=46 velocity=0 time=0@note_on channel=0 note=75 velocity=64 time=0.00067204375@note_on channel=1 note=75 velocity=64 time=0@note_on channel=2 note=53 velocity=80 time=0@note_on channel=0 note=75 velocity=0 time=0.15255393125@note_on channel=1 note=75 velocity=0 time=0.008064525@note_on channel=2 note=53 velocity=0 time=0@note_on channel=0 note=74 velocity=64 time=0.00067204375@note_on channel=1 note=74 velocity=64 time=0@note_on channel=3 note=50 velocity=80 time=0@note_on channel=3 note=50 velocity=0 time=0.16061845625@note_on channel=2 note=53 velocity=80 time=0.00067204375@note_on channel=0 note=74 velocity=0 time=0.14448940625@note_on channel=1 note=74 velocity=0 time=0.01612905@note_on channel=2 note=53 velocity=0 time=0@note_on channel=0 note=75 velocity=64 time=0.00067204375@note_on channel=1 note=75 velocity=64 time=0@note_on channel=3 note=46 velocity=80 time=0@note_on channel=0 note=75 velocity=0 time=0.15255393125@note_on channel=1 note=75 velocity=0 time=0.008064525@note_on channel=3 note=46 velocity=0 time=0@note_on channel=0 note=77 velocity=64 time=0.00067204375@note_on channel=1 note=77 velocity=64 time=0@note_on channel=2 note=53 velocity=80 time=0@note_on channel=0 note=77 velocity=0 time=0.15255393125@note_on channel=1 note=77 velocity=0 time=0.008064525@note_on channel=2 note=53 velocity=0 time=0@note_on channel=0 note=75 velocity=64 time=0.00067204375@note_on channel=1 note=75 velocity=64 time=0@note_on channel=3 note=51 velocity=80 time=0@note_on channel=3 note=51 velocity=0 time=0.16061845625@note_on channel=2 note=55 velocity=80 time=0.00067204375@note_on channel=0 note=75 velocity=0 time=0.14448940625@note_on channel=1 note=75 velocity=0 time=0.01612905@note_on channel=2 note=55 velocity=0 time=0@note_on channel=0 note=77 velocity=64 time=0.00067204375@note_on channel=1 note=77 velocity=64 time=0@note_on channel=3 note=48 velocity=80 time=0@note_on channel=3 note=48 velocity=0 time=0.16061845625@note_on channel=2 note=55 velocity=80 time=0.00067204375@note_on channel=0 note=77 velocity=0 time=0.14448940625@note_on channel=1 note=77 velocity=0 time=0.01612905@note_on channel=2 note=55 velocity=0 time=0@note_on channel=0 note=79 velocity=64 time=0.00067204375@note_on channel=1 note=79 velocity=64 time=0@note_on channel=3 note=51 velocity=80 time=0@note_on channel=3 note=51 velocity=0 time=0.16061845625@note_on channel=2 note=55 velocity=80 time=0.00067204375@note_on channel=0 note=79 velocity=0 time=0.14448940625@note_on channel=1 note=79 velocity=0 time=0.01612905@note_on channel=2 note=55 velocity=0 time=0@note_on channel=0 note=72 velocity=64 time=0.00067204375@note_on channel=1 note=72 velocity=64 time=0@note_on channel=3 note=48 velocity=80 time=0@note_on channel=3 note=48 velocity=0 time=0.16061845625@note_on channel=2 note=55 velocity=80 time=0.00067204375@note_on channel=0 note=72 velocity=0 time=0.14448940625@note_on channel=1 note=72 velocity=0 time=0.01612905@note_on channel=2 note=55 velocity=0 time=0@note_on channel=3 note=53 velocity=80 time=0.00067204375@note_on channel=4 note=41 velocity=80 time=0@note_on channel=5 note=41 velocity=80 time=0@note_on channel=3 note=53 velocity=0 time=0.16061845625@note_on channel=2 note=60 velocity=80 time=0.00067204375@note_on channel=2 note=60 velocity=0 time=0.16061845625@note_on channel=4 note=41 velocity=0 time=0@note_on channel=5 note=41 velocity=0 time=0@note_on channel=3 note=48 velocity=80 time=0.00067204375@note_on channel=4 note=41 velocity=80 time=0@note_on channel=5 note=41 velocity=80 time=0@note_on channel=3 note=48 velocity=0 time=0.16061845625@note_on channel=2 note=60 velocity=80 time=0.00067204375@note_on channel=2 note=60 velocity=0 time=0.16061845625@note_on channel=4 note=41 velocity=0 time=0@note_on channel=5 note=41 velocity=0 time=0@note_on channel=3 note=53 velocity=80 time=0.00067204375@note_on channel=4 note=44 velocity=80 time=0@note_on channel=5 note=44 velocity=80 time=0@note_on channel=3 note=53 velocity=0 time=0.16061845625@note_on channel=2 note=60 velocity=80 time=0.00067204375@note_on channel=2 note=60 velocity=0 time=0.16061845625@note_on channel=4 note=44 velocity=0 time=0@note_on channel=5 note=44 velocity=0 time=0@note_on channel=3 note=48 velocity=80 time=0.00067204375@note_on channel=4 note=48 velocity=80 time=0@note_on channel=5 note=48 velocity=80 time=0@note_on channel=3 note=48 velocity=0 time=0.16061845625@note_on channel=2 note=60 velocity=80 time=0.00067204375@note_on channel=2 note=60 velocity=0 time=0.16061845625@note_on channel=4 note=48 velocity=0 time=0@note_on channel=5 note=48 velocity=0 time=0@note_on channel=3 note=48 velocity=80 time=0.00067204375@note_on channel=4 note=51 velocity=80 time=0@note_on channel=5 note=51 velocity=80 time=0@note_on channel=3 note=48 velocity=0 time=0.16061845625@note_on channel=2 note=55 velocity=80 time=0.00067204375@note_on channel=2 note=55 velocity=0 time=0.16061845625@note_on channel=4 note=51 velocity=0 time=0@note_on channel=5 note=51 velocity=0 time=0@note_on channel=3 note=43 velocity=80 time=0.00067204375@note_on channel=4 note=50 velocity=80 time=0@note_on channel=5 note=50 velocity=80 time=0@note_on channel=3 note=43 velocity=0 time=0.16061845625@note_on channel=2 note=55 velocity=80 time=0.00067204375@note_on channel=2 note=55 velocity=0 time=0.16061845625@note_on channel=4 note=50 velocity=0 time=0@note_on channel=5 note=50 velocity=0 time=0@note_on channel=3 note=48 velocity=80 time=0.00067204375@note_on channel=4 note=48 velocity=80 time=0@note_on channel=5 note=48 velocity=80 time=0@note_on channel=3 note=48 velocity=0 time=0.16061845625@note_on channel=2 note=55 velocity=80 time=0.00067204375@note_on channel=2 note=55 velocity=0 time=0.16061845625@note_on channel=4 note=48 velocity=0 time=0@note_on channel=5 note=48 velocity=0 time=0@note_on channel=3 note=43 velocity=80 time=0.00067204375@note_on channel=4 note=43 velocity=80 time=0@note_on channel=5 note=43 velocity=80 time=0@note_on channel=3 note=43 velocity=0 time=0.16061845625@note_on channel=2 note=55 velocity=80 time=0.00067204375@note_on channel=2 note=55 velocity=0 time=0.16061845625@note_on channel=4 note=43 velocity=0 time=0@note_on channel=5 note=43 velocity=0 time=0@note_on channel=3 note=53 velocity=80 time=0.00067204375@note_on channel=4 note=41 velocity=80 time=0@note_on channel=5 note=41 velocity=80 time=0@note_on channel=3 note=53 velocity=0 time=0.16061845625@note_on channel=2 note=60 velocity=80 time=0.00067204375@note_on channel=2 note=60 velocity=0 time=0.16061845625@note_on channel=4 note=41 velocity=0 time=0@note_on channel=5 note=41 velocity=0 time=0@note_on channel=3 note=48 velocity=80 time=0.00067204375@note_on channel=4 note=41 velocity=80 time=0@note_on channel=5 note=41 velocity=80 time=0@note_on channel=3 note=48 velocity=0 time=0.16061845625@note_on channel=2 note=60 velocity=80 time=0.00067204375@note_on channel=2 note=60 velocity=0 time=0.16061845625@note_on channel=4 note=41 velocity=0 time=0@note_on channel=5 note=41 velocity=0 time=0@note_on channel=3 note=53 velocity=80 time=0.00067204375@note_on channel=4 note=44 velocity=80 time=0@note_on channel=5 note=44 velocity=80 time=0@note_on channel=3 note=53 velocity=0 time=0.16061845625@note_on channel=2 note=60 velocity=80 time=0.00067204375@note_on channel=2 note=60 velocity=0 time=0.16061845625@note_on channel=4 note=44 velocity=0 time=0@note_on channel=5 note=44 velocity=0 time=0@note_on channel=3 note=48 velocity=80 time=0.00067204375@note_on channel=4 note=48 velocity=80 time=0@note_on channel=5 note=48 velocity=80 time=0@note_on channel=3 note=48 velocity=0 time=0.16061845625@note_on channel=2 note=60 velocity=80 time=0.00067204375@note_on channel=2 note=60 velocity=0 time=0.16061845625@note_on channel=4 note=48 velocity=0 time=0@note_on channel=5 note=48 velocity=0 time=0@note_on channel=3 note=48 velocity=80 time=0.00067204375@note_on channel=4 note=51 velocity=80 time=0@note_on channel=5 note=51 velocity=80 time=0@note_on channel=3 note=48 velocity=0 time=0.16061845625@note_on channel=2 note=55 velocity=80 time=0.00067204375@note_on channel=2 note=55 velocity=0 time=0.16061845625@note_on channel=4 note=51 velocity=0 time=0@note_on channel=5 note=51 velocity=0 time=0@note_on channel=3 note=43 velocity=80 time=0.00067204375@note_on channel=4 note=53 velocity=80 time=0@note_on channel=5 note=53 velocity=80 time=0@note_on channel=3 note=43 velocity=0 time=0.16061845625@note_on channel=2 note=55 velocity=80 time=0.00067204375@note_on channel=2 note=55 velocity=0 time=0.16061845625@note_on channel=4 note=53 velocity=0 time=0@note_on channel=5 note=53 velocity=0 time=0@note_on channel=3 note=48 velocity=80 time=0.00067204375@note_on channel=4 note=55 velocity=80 time=0@note_on channel=5 note=55 velocity=80 time=0@note_on channel=3 note=48 velocity=0 time=0.16061845625@note_on channel=2 note=55 velocity=80 time=0.00067204375@note_on channel=2 note=55 velocity=0 time=0.16061845625@note_on channel=3 note=43 velocity=80 time=0.00067204375@note_on channel=3 note=43 velocity=0 time=0.16061845625@note_on channel=2 note=55 velocity=80 time=0.00067204375@note_on channel=2 note=55 velocity=0 time=0.16061845625@note_on channel=4 note=55 velocity=0 time=0@note_on channel=5 note=55 velocity=0 time=0@note_on channel=0 note=80 velocity=64 time=0.00067204375@note_on channel=1 note=92 velocity=64 time=0@note_on channel=3 note=44 velocity=80 time=0@note_on channel=3 note=44 velocity=0 time=0.16061845625@note_on channel=2 note=60 velocity=80 time=0.00067204375@note_on channel=2 note=60 velocity=0 time=0.16061845625@note_on channel=3 note=41 velocity=80 time=0.00067204375@note_on channel=0 note=80 velocity=0 time=0.13642488125000002@note_on channel=1 note=92 velocity=0 time=0.024193575000000002@note_on channel=3 note=41 velocity=0 time=0@note_on channel=0 note=79 velocity=64 time=0.00067204375@note_on channel=1 note=91 velocity=64 time=0@note_on channel=2 note=60 velocity=80 time=0@note_on channel=0 note=79 velocity=0 time=0.15255393125@note_on channel=1 note=91 velocity=0 time=0.008064525@note_on channel=2 note=60 velocity=0 time=0@note_on channel=0 note=77 velocity=64 time=0.00067204375@note_on channel=1 note=89 velocity=64 time=0@note_on channel=3 note=44 velocity=80 time=0@note_on channel=3 note=44 velocity=0 time=0.16061845625@note_on channel=2 note=60 velocity=80 time=0.00067204375@note_on channel=0 note=77 velocity=0 time=0.14448940625@note_on channel=1 note=89 velocity=0 time=0.01612905@note_on channel=2 note=60 velocity=0 time=0@note_on channel=0 note=80 velocity=64 time=0.00067204375@note_on channel=1 note=92 velocity=64 time=0@note_on channel=3 note=41 velocity=80 time=0@note_on channel=0 note=80 velocity=0 time=0.15255393125@note_on channel=1 note=92 velocity=0 time=0.008064525@note_on channel=3 note=41 velocity=0 time=0@note_on channel=0 note=82 velocity=64 time=0.00067204375@note_on channel=1 note=94 velocity=64 time=0@note_on channel=2 note=60 velocity=80 time=0@note_on channel=0 note=82 velocity=0 time=0.15255393125@note_on channel=1 note=94 velocity=0 time=0.008064525@note_on channel=2 note=60 velocity=0 time=0@note_on channel=0 note=84 velocity=64 time=0.00067204375@note_on channel=1 note=96 velocity=64 time=0@note_on channel=3 note=39 velocity=80 time=0@note_on channel=3 note=39 velocity=0 time=0.16061845625@note_on channel=2 note=55 velocity=80 time=0.00067204375@note_on channel=0 note=84 velocity=0 time=0.14448940625@note_on channel=1 note=96 velocity=0 time=0.01612905@note_on channel=2 note=55 velocity=0 time=0@note_on channel=0 note=79 velocity=64 time=0.00067204375@note_on channel=1 note=91 velocity=64 time=0@note_on channel=3 note=36 velocity=80 time=0@note_on channel=3 note=36 velocity=0 time=0.16061845625@note_on channel=2 note=55 velocity=80 time=0.00067204375@note_on channel=0 note=79 velocity=0 time=0.14448940625@note_on channel=1 note=91 velocity=0 time=0.01612905@note_on channel=2 note=55 velocity=0 time=0@note_on channel=0 note=75 velocity=64 time=0.00067204375@note_on channel=1 note=87 velocity=64 time=0@note_on channel=3 note=39 velocity=80 time=0@note_on channel=3 note=39 velocity=0 time=0.16061845625@note_on channel=2 note=55 velocity=80 time=0.00067204375@note_on channel=0 note=75 velocity=0 time=0.14448940625@note_on channel=1 note=87 velocity=0 time=0.01612905@note_on channel=2 note=55 velocity=0 time=0@note_on channel=0 note=72 velocity=64 time=0.00067204375@note_on channel=1 note=84 velocity=64 time=0@note_on channel=3 note=36 velocity=80 time=0@note_on channel=3 note=36 velocity=0 time=0.16061845625@note_on channel=2 note=55 velocity=80 time=0.00067204375@note_on channel=0 note=72 velocity=0 time=0.14448940625@note_on channel=1 note=84 velocity=0 time=0.01612905@note_on channel=2 note=55 velocity=0 time=0@note_on channel=0 note=74 velocity=64 time=0.00067204375@note_on channel=1 note=86 velocity=64 time=0@note_on channel=3 note=38 velocity=80 time=0@note_on channel=0 note=74 velocity=0 time=0.15255393125@note_on channel=1 note=86 velocity=0 time=0.008064525@note_on channel=3 note=38 velocity=0 time=0@note_on channel=0 note=74 velocity=64 time=0.00067204375@note_on channel=1 note=86 velocity=64 time=0@note_on channel=2 note=53 velocity=80 time=0@note_on channel=0 note=74 velocity=0 time=0.07594094375@note_on channel=1 note=86 velocity=0 time=0.0040322625@note_on channel=0 note=74 velocity=64 time=0.00067204375@note_on channel=1 note=86 velocity=64 time=0@note_on channel=0 note=74 velocity=0 time=0.07594094375@note_on channel=1 note=86 velocity=0 time=0.0040322625@note_on channel=2 note=53 velocity=0 time=0@note_on channel=0 note=74 velocity=64 time=0.00067204375@note_on channel=1 note=86 velocity=64 time=0@note_on channel=3 note=34 velocity=80 time=0@note_on channel=0 note=74 velocity=0 time=0.15255393125@note_on channel=1 note=86 velocity=0 time=0.008064525@note_on channel=3 note=34 velocity=0 time=0@note_on channel=0 note=77 velocity=64 time=0.00067204375@note_on channel=1 note=89 velocity=64 time=0@note_on channel=2 note=53 velocity=80 time=0@note_on channel=0 note=77 velocity=0 time=0.15255393125@note_on channel=1 note=89 velocity=0 time=0.008064525@note_on channel=2 note=53 velocity=0 time=0@note_on channel=0 note=74 velocity=64 time=0.00067204375@note_on channel=1 note=86 velocity=64 time=0@note_on channel=3 note=38 velocity=80 time=0@note_on channel=0 note=74 velocity=0 time=0.15255393125@note_on channel=1 note=86 velocity=0 time=0.008064525@note_on channel=3 note=38 velocity=0 time=0@note_on channel=0 note=70 velocity=64 time=0.00067204375@note_on channel=1 note=82 velocity=64 time=0@note_on channel=2 note=53 velocity=80 time=0@note_on channel=0 note=70 velocity=0 time=0.15255393125@note_on channel=1 note=82 velocity=0 time=0.008064525@note_on channel=2 note=53 velocity=0 time=0@note_on channel=0 note=67 velocity=64 time=0.00067204375@note_on channel=1 note=79 velocity=64 time=0@note_on channel=3 note=34 velocity=80 time=0@note_on channel=0 note=67 velocity=0 time=0.15255393125@note_on channel=1 note=79 velocity=0 time=0.008064525@note_on channel=3 note=34 velocity=0 time=0@note_on channel=0 note=70 velocity=64 time=0.00067204375@note_on channel=1 note=82 velocity=64 time=0@note_on channel=2 note=53 velocity=80 time=0@note_on channel=0 note=70 velocity=0 time=0.15255393125@note_on channel=1 note=82 velocity=0 time=0.008064525@note_on channel=2 note=53 velocity=0 time=0@note_on channel=0 note=72 velocity=64 time=0.00067204375@note_on channel=1 note=72 velocity=64 time=0@note_on channel=3 note=39 velocity=80 time=0@note_on channel=3 note=39 velocity=0 time=0.16061845625@note_on channel=2 note=55 velocity=80 time=0.00067204375@note_on channel=2 note=55 velocity=0 time=0.16061845625@note_on channel=3 note=36 velocity=80 time=0.00067204375@note_on channel=3 note=36 velocity=0 time=0.16061845625@note_on channel=2 note=55 velocity=80 time=0.00067204375@note_on channel=0 note=72 velocity=0 time=0.12836035625@note_on channel=1 note=72 velocity=0 time=0.0322581@note_on channel=2 note=55 velocity=0 time=0@note_on channel=2 note=51 velocity=80 time=0.00067204375@note_on channel=3 note=39 velocity=80 time=0@note_on channel=1 note=82 velocity=76 time=0.322581@note_on channel=1 note=82 velocity=0 time=0.32190895625@note_on channel=2 note=51 velocity=0 time=0@note_on channel=3 note=39 velocity=0 time=0@note_on channel=1 note=87 velocity=80 time=0.00067204375@note_on channel=2 note=63 velocity=80 time=0@note_on channel=3 note=51 velocity=80 time=0@note_on channel=1 note=87 velocity=0 time=0.16061845625@note_on channel=1 note=87 velocity=80 time=0.00067204375@note_on channel=1 note=87 velocity=0 time=0.07997320625@note_on channel=1 note=87 velocity=80 time=0.00067204375@note_on channel=1 note=87 velocity=0 time=0.07997320625@note_on channel=1 note=87 velocity=80 time=0.00067204375@note_on channel=1 note=87 velocity=0 time=0.16061845625@note_on channel=1 note=89 velocity=80 time=0.00067204375@note_on channel=1 note=89 velocity=0 time=0.16061845625@note_on channel=1 note=91 velocity=80 time=0.00067204375@note_on channel=1 note=91 velocity=0 time=0.16061845625@note_on channel=1 note=91 velocity=80 time=0.00067204375@note_on channel=1 note=91 velocity=0 time=0.07997320625@note_on channel=1 note=91 velocity=80 time=0.00067204375@note_on channel=1 note=91 velocity=0 time=0.07997320625@note_on channel=1 note=89 velocity=80 time=0.00067204375@note_on channel=1 note=89 velocity=0 time=0.16061845625@note_on channel=2 note=63 velocity=0 time=0@note_on channel=3 note=51 velocity=0 time=0@note_on channel=1 note=87 velocity=80 time=0.00067204375@note_on channel=2 note=63 velocity=80 time=0@note_on channel=3 note=51 velocity=80 time=0@note_on channel=1 note=87 velocity=0 time=0.16061845625@note_on channel=2 note=63 velocity=0 time=0@note_on channel=3 note=51 velocity=0 time=0@note_on channel=1 note=86 velocity=80 time=0.00067204375@note_on channel=2 note=58 velocity=80 time=0@note_on channel=3 note=46 velocity=80 time=0@note_on channel=1 note=86 velocity=0 time=0.16061845625@note_on channel=1 note=86 velocity=80 time=0.00067204375@note_on channel=1 note=86 velocity=0 time=0.07997320625@note_on channel=1 note=86 velocity=80 time=0.00067204375@note_on channel=1 note=86 velocity=0 time=0.07997320625@note_on channel=1 note=86 velocity=80 time=0.00067204375@note_on channel=1 note=86 velocity=0 time=0.16061845625@note_on channel=1 note=87 velocity=80 time=0.00067204375@note_on channel=1 note=87 velocity=0 time=0.16061845625@note_on channel=1 note=86 velocity=80 time=0.00067204375@note_on channel=1 note=86 velocity=0 time=0.32190895625@note_on channel=2 note=58 velocity=0 time=0.1612905@note_on channel=3 note=46 velocity=0 time=0@note_on channel=1 note=87 velocity=80 time=0.00067204375@note_on channel=2 note=58 velocity=80 time=0@note_on channel=3 note=46 velocity=80 time=0@note_on channel=1 note=87 velocity=0 time=0.07997320625@note_on channel=1 note=86 velocity=80 time=0.00067204375@note_on channel=1 note=86 velocity=0 time=0.07997320625@note_on channel=2 note=58 velocity=0 time=0@note_on channel=3 note=46 velocity=0 time=0@note_on channel=1 note=84 velocity=80 time=0.00067204375@note_on channel=2 note=56 velocity=80 time=0@note_on channel=3 note=44 velocity=80 time=0@note_on channel=1 note=84 velocity=0 time=0.16061845625@note_on channel=1 note=84 velocity=80 time=0.00067204375@note_on channel=1 note=84 velocity=0 time=0.07997320625@note_on channel=1 note=84 velocity=80 time=0.00067204375@note_on channel=1 note=84 velocity=0 time=0.07997320625@note_on channel=1 note=84 velocity=80 time=0.00067204375@note_on channel=1 note=84 velocity=0 time=0.16061845625@note_on channel=1 note=86 velocity=80 time=0.00067204375@note_on channel=1 note=86 velocity=0 time=0.16061845625@note_on channel=1 note=87 velocity=80 time=0.00067204375@note_on channel=1 note=87 velocity=0 time=0.16061845625@note_on channel=1 note=87 velocity=80 time=0.00067204375@note_on channel=1 note=87 velocity=0 time=0.07997320625@note_on channel=1 note=87 velocity=80 time=0.00067204375@note_on channel=1 note=87 velocity=0 time=0.07997320625@note_on channel=1 note=86 velocity=80 time=0.00067204375@note_on channel=1 note=86 velocity=0 time=0.16061845625@note_on channel=2 note=56 velocity=0 time=0@note_on channel=3 note=44 velocity=0 time=0@note_on channel=1 note=84 velocity=80 time=0.00067204375@note_on channel=2 note=56 velocity=80 time=0@note_on channel=3 note=44 velocity=80 time=0@note_on channel=1 note=84 velocity=0 time=0.16061845625@note_on channel=2 note=56 velocity=0 time=0@note_on channel=3 note=44 velocity=0 time=0@note_on channel=1 note=82 velocity=80 time=0.00067204375@note_on channel=2 note=55 velocity=80 time=0@note_on channel=3 note=43 velocity=80 time=0@note_on channel=1 note=82 velocity=0 time=0.16061845625@note_on channel=1 note=82 velocity=80 time=0.00067204375@note_on channel=1 note=82 velocity=0 time=0.07997320625@note_on channel=1 note=82 velocity=80 time=0.00067204375@note_on channel=1 note=82 velocity=0 time=0.07997320625@note_on channel=1 note=82 velocity=80 time=0.00067204375@note_on channel=1 note=82 velocity=0 time=0.16061845625@note_on channel=1 note=84 velocity=80 time=0.00067204375@note_on channel=1 note=84 velocity=0 time=0.16061845625@note_on channel=1 note=86 velocity=80 time=0.00067204375@note_on channel=1 note=86 velocity=0 time=0.32190895625@note_on channel=2 note=55 velocity=0 time=0.1612905@note_on channel=3 note=43 velocity=0 time=0@note_on channel=1 note=84 velocity=80 time=0.00067204375@note_on channel=2 note=55 velocity=80 time=0@note_on channel=3 note=43 velocity=80 time=0@note_on channel=1 note=84 velocity=0 time=0.07997320625@note_on channel=1 note=82 velocity=80 time=0.00067204375@note_on channel=1 note=82 velocity=0 time=0.07997320625@note_on channel=2 note=55 velocity=0 time=0@note_on channel=3 note=43 velocity=0 time=0@note_on channel=1 note=80 velocity=80 time=0.00067204375@note_on channel=2 note=53 velocity=80 time=0@note_on channel=3 note=41 velocity=80 time=0@note_on channel=1 note=80 velocity=0 time=0.16061845625@note_on channel=1 note=80 velocity=80 time=0.00067204375@note_on channel=1 note=80 velocity=0 time=0.07997320625@note_on channel=1 note=80 velocity=80 time=0.00067204375@note_on channel=1 note=80 velocity=0 time=0.07997320625@note_on channel=1 note=80 velocity=80 time=0.00067204375@note_on channel=1 note=80 velocity=0 time=0.16061845625@note_on channel=1 note=82 velocity=80 time=0.00067204375@note_on channel=1 note=82 velocity=0 time=0.16061845625@note_on channel=1 note=84 velocity=80 time=0.00067204375@note_on channel=1 note=84 velocity=0 time=0.16061845625@note_on channel=1 note=84 velocity=80 time=0.00067204375@note_on channel=1 note=84 velocity=0 time=0.07997320625@note_on channel=1 note=84 velocity=80 time=0.00067204375@note_on channel=1 note=84 velocity=0 time=0.07997320625@note_on channel=1 note=82 velocity=80 time=0.00067204375@note_on channel=1 note=82 velocity=0 time=0.16061845625@note_on channel=2 note=53 velocity=0 time=0@note_on channel=3 note=41 velocity=0 time=0@note_on channel=1 note=80 velocity=80 time=0.00067204375@note_on channel=2 note=53 velocity=80 time=0@note_on channel=3 note=41 velocity=80 time=0@note_on channel=1 note=80 velocity=0 time=0.16061845625@note_on channel=2 note=53 velocity=0 time=0@note_on channel=3 note=41 velocity=0 time=0@note_on channel=1 note=79 velocity=80 time=0.00067204375@note_on channel=2 note=51 velocity=80 time=0@note_on channel=3 note=39 velocity=80 time=0@note_on channel=1 note=79 velocity=0 time=0.16061845625@note_on channel=1 note=79 velocity=80 time=0.00067204375@note_on channel=1 note=79 velocity=0 time=0.07997320625@note_on channel=1 note=79 velocity=80 time=0.00067204375@note_on channel=1 note=79 velocity=0 time=0.07997320625@note_on channel=1 note=87 velocity=80 time=0.00067204375@note_on channel=1 note=87 velocity=0 time=0.16061845625@note_on channel=1 note=89 velocity=80 time=0.00067204375@note_on channel=1 note=89 velocity=0 time=0.16061845625@note_on channel=2 note=51 velocity=0 time=0@note_on channel=3 note=39 velocity=0 time=0@note_on channel=1 note=87 velocity=80 time=0.00067204375@note_on channel=2 note=51 velocity=80 time=0@note_on channel=3 note=39 velocity=80 time=0@note_on channel=1 note=87 velocity=0 time=0.32190895625@note_on channel=1 note=82 velocity=80 time=0.00067204375@note_on channel=1 note=82 velocity=0 time=0.32190895625@note_on channel=2 note=51 velocity=0 time=0@note_on channel=3 note=39 velocity=0 time=0@note_on channel=1 note=87 velocity=80 time=0.00067204375@note_on channel=2 note=56 velocity=80 time=0@note_on channel=3 note=44 velocity=80 time=0@note_on channel=1 note=87 velocity=0 time=0.16061845625@note_on channel=1 note=87 velocity=80 time=0.00067204375@note_on channel=1 note=87 velocity=0 time=0.07997320625@note_on channel=1 note=87 velocity=80 time=0.00067204375@note_on channel=1 note=87 velocity=0 time=0.07997320625@note_on channel=1 note=87 velocity=80 time=0.00067204375@note_on channel=1 note=87 velocity=0 time=0.16061845625@note_on channel=1 note=89 velocity=80 time=0.00067204375@note_on channel=1 note=89 velocity=0 time=0.16061845625@note_on channel=2 note=56 velocity=0 time=0@note_on channel=3 note=44 velocity=0 time=0@note_on channel=1 note=90 velocity=80 time=0.00067204375@note_on channel=2 note=59 velocity=80 time=0@note_on channel=3 note=47 velocity=80 time=0@note_on channel=1 note=90 velocity=0 time=0.16061845625@note_on channel=1 note=90 velocity=80 time=0.00067204375@note_on channel=1 note=90 velocity=0 time=0.07997320625@note_on channel=1 note=90 velocity=80 time=0.00067204375@note_on channel=1 note=90 velocity=0 time=0.07997320625@note_on channel=1 note=92 velocity=80 time=0.00067204375@note_on channel=1 note=92 velocity=0 time=0.16061845625@note_on channel=1 note=90 velocity=80 time=0.00067204375@note_on channel=1 note=90 velocity=0 time=0.16061845625@note_on channel=2 note=59 velocity=0 time=0@note_on channel=3 note=47 velocity=0 time=0@note_on channel=1 note=89 velocity=80 time=0.00067204375@note_on channel=2 note=58 velocity=80 time=0@note_on channel=3 note=46 velocity=80 time=0@note_on channel=1 note=89 velocity=0 time=0.16061845625@note_on channel=1 note=89 velocity=80 time=0.00067204375@note_on channel=1 note=89 velocity=0 time=0.07997320625@note_on channel=1 note=89 velocity=80 time=0.00067204375@note_on channel=1 note=89 velocity=0 time=0.07997320625@note_on channel=2 note=58 velocity=0 time=0@note_on channel=3 note=46 velocity=0 time=0@note_on channel=1 note=89 velocity=80 time=0.00067204375@note_on channel=2 note=58 velocity=80 time=0@note_on channel=3 note=46 velocity=80 time=0@note_on channel=1 note=89 velocity=0 time=0.16061845625@note_on channel=1 note=90 velocity=80 time=0.00067204375@note_on channel=1 note=90 velocity=0 time=0.16061845625@note_on channel=2 note=58 velocity=0 time=0@note_on channel=3 note=46 velocity=0 time=0@note_on channel=1 note=89 velocity=80 time=0.00067204375@note_on channel=2 note=58 velocity=80 time=0@note_on channel=3 note=46 velocity=80 time=0@note_on channel=1 note=89 velocity=0 time=0.48319945625000005@note_on channel=4 note=55 velocity=80 time=0.00067204375@note_on channel=4 note=55 velocity=0 time=0.07997320625@note_on channel=4 note=53 velocity=80 time=0.00067204375@note_on channel=2 note=58 velocity=0 time=0.07997320625@note_on channel=3 note=46 velocity=0 time=0@note_on channel=4 note=53 velocity=0 time=0@note_on channel=3 note=48 velocity=80 time=0.00067204375@note_on channel=4 note=51 velocity=96 time=0@note_on channel=3 note=48 velocity=0 time=0.16061845625@note_on channel=4 note=51 velocity=0 time=0@note_on channel=2 note=55 velocity=80 time=0.00067204375@note_on channel=4 note=51 velocity=96 time=0@note_on channel=4 note=51 velocity=0 time=0.07997320625@note_on channel=4 note=51 velocity=96 time=0.00067204375@note_on channel=2 note=55 velocity=0 time=0.07997320625@note_on channel=4 note=51 velocity=0 time=0@note_on channel=3 note=43 velocity=80 time=0.00067204375@note_on channel=4 note=51 velocity=96 time=0@note_on channel=3 note=43 velocity=0 time=0.16061845625@note_on channel=4 note=51 velocity=0 time=0@note_on channel=2 note=55 velocity=80 time=0.00067204375@note_on channel=4 note=53 velocity=96 time=0@note_on channel=2 note=55 velocity=0 time=0.16061845625@note_on channel=4 note=53 velocity=0 time=0@note_on channel=3 note=48 velocity=80 time=0.00067204375@note_on channel=4 note=55 velocity=96 time=0@note_on channel=3 note=48 velocity=0 time=0.16061845625@note_on channel=4 note=55 velocity=0 time=0@note_on channel=2 note=55 velocity=80 time=0.00067204375@note_on channel=4 note=55 velocity=96 time=0@note_on channel=4 note=55 velocity=0 time=0.07997320625@note_on channel=4 note=55 velocity=96 time=0.00067204375@note_on channel=2 note=55 velocity=0 time=0.07997320625@note_on channel=4 note=55 velocity=0 time=0@note_on channel=3 note=43 velocity=80 time=0.00067204375@note_on channel=4 note=53 velocity=96 time=0@note_on channel=3 note=43 velocity=0 time=0.16061845625@note_on channel=4 note=53 velocity=0 time=0@note_on channel=2 note=55 velocity=80 time=0.00067204375@note_on channel=4 note=51 velocity=96 time=0@note_on channel=2 note=55 velocity=0 time=0.16061845625@note_on channel=4 note=51 velocity=0 time=0@note_on channel=3 note=46 velocity=80 time=0.00067204375@note_on channel=4 note=50 velocity=96 time=0@note_on channel=3 note=46 velocity=0 time=0.16061845625@note_on channel=4 note=50 velocity=0 time=0@note_on channel=2 note=53 velocity=80 time=0.00067204375@note_on channel=4 note=50 velocity=96 time=0@note_on channel=4 note=50 velocity=0 time=0.07997320625@note_on channel=4 note=50 velocity=96 time=0.00067204375@note_on channel=2 note=53 velocity=0 time=0.07997320625@note_on channel=4 note=50 velocity=0 time=0@note_on channel=3 note=41 velocity=80 time=0.00067204375@note_on channel=4 note=50 velocity=96 time=0@note_on channel=3 note=41 velocity=0 time=0.16061845625@note_on channel=4 note=50 velocity=0 time=0@note_on channel=2 note=53 velocity=80 time=0.00067204375@note_on channel=4 note=51 velocity=96 time=0@note_on channel=2 note=53 velocity=0 time=0.16061845625@note_on channel=4 note=51 velocity=0 time=0@note_on channel=3 note=46 velocity=80 time=0.00067204375@note_on channel=4 note=50 velocity=96 time=0@note_on channel=3 note=46 velocity=0 time=0.16061845625@note_on channel=2 note=53 velocity=80 time=0.00067204375@note_on channel=2 note=53 velocity=0 time=0.16061845625@note_on channel=4 note=50 velocity=0 time=0@note_on channel=3 note=41 velocity=80 time=0.00067204375@note_on channel=3 note=41 velocity=0 time=0.16061845625@note_on channel=2 note=53 velocity=80 time=0.00067204375@note_on channel=4 note=51 velocity=96 time=0@note_on channel=4 note=51 velocity=0 time=0.07997320625@note_on channel=4 note=50 velocity=96 time=0.00067204375@note_on channel=2 note=53 velocity=0 time=0.07997320625@note_on channel=4 note=50 velocity=0 time=0@note_on channel=3 note=44 velocity=80 time=0.00067204375@note_on channel=4 note=48 velocity=96 time=0@note_on channel=3 note=44 velocity=0 time=0.16061845625@note_on channel=4 note=48 velocity=0 time=0@note_on channel=2 note=51 velocity=80 time=0.00067204375@note_on channel=4 note=48 velocity=96 time=0@note_on channel=4 note=48 velocity=0 time=0.07997320625@note_on channel=4 note=48 velocity=96 time=0.00067204375@note_on channel=2 note=51 velocity=0 time=0.07997320625@note_on channel=4 note=48 velocity=0 time=0@note_on channel=3 note=39 velocity=80 time=0.00067204375@note_on channel=4 note=48 velocity=96 time=0@note_on channel=3 note=39 velocity=0 time=0.16061845625@note_on channel=4 note=48 velocity=0 time=0@note_on channel=2 note=51 velocity=80 time=0.00067204375@note_on channel=4 note=50 velocity=96 time=0@note_on channel=2 note=51 velocity=0 time=0.16061845625@note_on channel=4 note=50 velocity=0 time=0@note_on channel=3 note=44 velocity=80 time=0.00067204375@note_on channel=4 note=51 velocity=96 time=0@note_on channel=3 note=44 velocity=0 time=0.16061845625@note_on channel=4 note=51 velocity=0 time=0@note_on channel=2 note=51 velocity=80 time=0.00067204375@note_on channel=4 note=51 velocity=96 time=0@note_on channel=4 note=51 velocity=0 time=0.07997320625@note_on channel=4 note=51 velocity=96 time=0.00067204375@note_on channel=2 note=51 velocity=0 time=0.07997320625@note_on channel=4 note=51 velocity=0 time=0@note_on channel=3 note=39 velocity=80 time=0.00067204375@note_on channel=4 note=50 velocity=96 time=0@note_on channel=3 note=39 velocity=0 time=0.16061845625@note_on channel=4 note=50 velocity=0 time=0@note_on channel=2 note=51 velocity=80 time=0.00067204375@note_on channel=4 note=48 velocity=96 time=0@note_on channel=2 note=51 velocity=0 time=0.16061845625@note_on channel=4 note=48 velocity=0 time=0@note_on channel=3 note=43 velocity=80 time=0.00067204375@note_on channel=4 note=46 velocity=96 time=0@note_on channel=3 note=43 velocity=0 time=0.16061845625@note_on channel=4 note=46 velocity=0 time=0@note_on channel=2 note=50 velocity=80 time=0.00067204375@note_on channel=4 note=46 velocity=96 time=0@note_on channel=4 note=46 velocity=0 time=0.07997320625@note_on channel=4 note=46 velocity=96 time=0.00067204375@note_on channel=2 note=50 velocity=0 time=0.07997320625@note_on channel=4 note=46 velocity=0 time=0@note_on channel=3 note=38 velocity=80 time=0.00067204375@note_on channel=4 note=46 velocity=96 time=0@note_on channel=3 note=38 velocity=0 time=0.16061845625@note_on channel=4 note=46 velocity=0 time=0@note_on channel=2 note=50 velocity=80 time=0.00067204375@note_on channel=4 note=48 velocity=96 time=0@note_on channel=2 note=50 velocity=0 time=0.16061845625@note_on channel=4 note=48 velocity=0 time=0@note_on channel=3 note=43 velocity=80 time=0.00067204375@note_on channel=4 note=50 velocity=96 time=0@note_on channel=3 note=43 velocity=0 time=0.16061845625@note_on channel=2 note=50 velocity=80 time=0.00067204375@note_on channel=2 note=50 velocity=0 time=0.16061845625@note_on channel=4 note=50 velocity=0 time=0@note_on channel=3 note=38 velocity=80 time=0.00067204375@note_on channel=3 note=38 velocity=0 time=0.16061845625@note_on channel=2 note=50 velocity=80 time=0.00067204375@note_on channel=4 note=48 velocity=96 time=0@note_on channel=4 note=48 velocity=0 time=0.07997320625@note_on channel=4 note=46 velocity=96 time=0.00067204375@note_on channel=2 note=50 velocity=0 time=0.07997320625@note_on channel=4 note=46 velocity=0 time=0@note_on channel=3 note=41 velocity=80 time=0.00067204375@note_on channel=4 note=44 velocity=96 time=0@note_on channel=3 note=41 velocity=0 time=0.16061845625@note_on channel=4 note=44 velocity=0 time=0@note_on channel=2 note=48 velocity=80 time=0.00067204375@note_on channel=4 note=44 velocity=96 time=0@note_on channel=4 note=44 velocity=0 time=0.07997320625@note_on channel=4 note=44 velocity=96 time=0.00067204375@note_on channel=2 note=48 velocity=0 time=0.07997320625@note_on channel=4 note=44 velocity=0 time=0@note_on channel=3 note=36 velocity=80 time=0.00067204375@note_on channel=4 note=44 velocity=96 time=0@note_on channel=3 note=36 velocity=0 time=0.16061845625@note_on channel=4 note=44 velocity=0 time=0@note_on channel=2 note=48 velocity=80 time=0.00067204375@note_on channel=4 note=46 velocity=96 time=0@note_on channel=2 note=48 velocity=0 time=0.16061845625@note_on channel=4 note=46 velocity=0 time=0@note_on channel=3 note=41 velocity=80 time=0.00067204375@note_on channel=4 note=48 velocity=96 time=0@note_on channel=3 note=41 velocity=0 time=0.16061845625@note_on channel=4 note=48 velocity=0 time=0@note_on channel=2 note=48 velocity=80 time=0.00067204375@note_on channel=4 note=48 velocity=96 time=0@note_on channel=4 note=48 velocity=0 time=0.07997320625@note_on channel=4 note=48 velocity=96 time=0.00067204375@note_on channel=2 note=48 velocity=0 time=0.07997320625@note_on channel=4 note=48 velocity=0 time=0@note_on channel=3 note=36 velocity=80 time=0.00067204375@note_on channel=4 note=50 velocity=96 time=0@note_on channel=3 note=36 velocity=0 time=0.16061845625@note_on channel=4 note=50 velocity=0 time=0@note_on channel=2 note=48 velocity=80 time=0.00067204375@note_on channel=4 note=50 velocity=96 time=0@note_on channel=2 note=48 velocity=0 time=0.16061845625@note_on channel=4 note=50 velocity=0 time=0@note_on channel=3 note=39 velocity=80 time=0.00067204375@note_on channel=4 note=55 velocity=96 time=0@note_on channel=3 note=39 velocity=0 time=0.16061845625@note_on channel=4 note=55 velocity=0 time=0@note_on channel=2 note=46 velocity=80 time=0.00067204375@note_on channel=4 note=55 velocity=96 time=0@note_on channel=4 note=55 velocity=0 time=0.07997320625@note_on channel=4 note=55 velocity=96 time=0.00067204375@note_on channel=2 note=46 velocity=0 time=0.07997320625@note_on channel=4 note=55 velocity=0 time=0@note_on channel=3 note=34 velocity=80 time=0.00067204375@note_on channel=4 note=55 velocity=96 time=0@note_on channel=3 note=34 velocity=0 time=0.16061845625@note_on channel=4 note=55 velocity=0 time=0@note_on channel=2 note=46 velocity=80 time=0.00067204375@note_on channel=4 note=58 velocity=96 time=0@note_on channel=2 note=46 velocity=0 time=0.16061845625@note_on channel=4 note=58 velocity=0 time=0@note_on channel=3 note=39 velocity=80 time=0.00067204375@note_on channel=4 note=55 velocity=96 time=0@note_on channel=3 note=39 velocity=0 time=0.16061845625@note_on channel=4 note=55 velocity=0 time=0@note_on channel=2 note=46 velocity=80 time=0.00067204375@note_on channel=4 note=55 velocity=96 time=0@note_on channel=2 note=46 velocity=0 time=0.16061845625@note_on channel=4 note=55 velocity=0 time=0@note_on channel=3 note=34 velocity=80 time=0.00067204375@note_on channel=4 note=53 velocity=96 time=0@note_on channel=3 note=34 velocity=0 time=0.16061845625@note_on channel=4 note=53 velocity=0 time=0@note_on channel=2 note=46 velocity=80 time=0.00067204375@note_on channel=4 note=51 velocity=96 time=0@note_on channel=2 note=46 velocity=0 time=0.16061845625@note_on channel=4 note=51 velocity=0 time=0@note_on channel=0 note=74 velocity=64 time=0.00067204375@note_on channel=1 note=74 velocity=80 time=0@note_on channel=2 note=50 velocity=80 time=0@note_on channel=3 note=38 velocity=80 time=0@note_on channel=0 note=74 velocity=0 time=0.15255393125@note_on channel=1 note=74 velocity=0 time=0.008064525@note_on channel=2 note=50 velocity=0 time=0@note_on channel=3 note=38 velocity=0 time=0@note_on channel=0 note=77 velocity=64 time=0.00067204375@note_on channel=1 note=77 velocity=80 time=0@note_on channel=2 note=53 velocity=80 time=0@note_on channel=3 note=41 velocity=80 time=0@note_on channel=0 note=77 velocity=0 time=0.15255393125@note_on channel=1 note=77 velocity=0 time=0.008064525@note_on channel=2 note=53 velocity=0 time=0@note_on channel=3 note=41 velocity=0 time=0@note_on channel=0 note=79 velocity=64 time=0.00067204375@note_on channel=1 note=79 velocity=80 time=0@note_on channel=2 note=55 velocity=80 time=0@note_on channel=3 note=43 velocity=80 time=0@note_on channel=0 note=79 velocity=0 time=0.15255393125@note_on channel=1 note=79 velocity=0 time=0.008064525@note_on channel=2 note=55 velocity=0 time=0@note_on channel=3 note=43 velocity=0 time=0@note_on channel=0 note=74 velocity=64 time=0.00067204375@note_on channel=1 note=74 velocity=80 time=0@note_on channel=2 note=50 velocity=80 time=0@note_on channel=3 note=38 velocity=80 time=0@note_on channel=0 note=74 velocity=0 time=0.15255393125@note_on channel=1 note=74 velocity=0 time=0.008064525@note_on channel=2 note=50 velocity=0 time=0@note_on channel=3 note=38 velocity=0 time=0@note_on channel=0 note=77 velocity=64 time=0.00067204375@note_on channel=1 note=77 velocity=80 time=0@note_on channel=2 note=53 velocity=80 time=0@note_on channel=3 note=41 velocity=80 time=0@note_on channel=0 note=77 velocity=0 time=0.15255393125@note_on channel=1 note=77 velocity=0 time=0.008064525@note_on channel=2 note=53 velocity=0 time=0@note_on channel=3 note=41 velocity=0 time=0@note_on channel=0 note=79 velocity=64 time=0.00067204375@note_on channel=1 note=79 velocity=80 time=0@note_on channel=2 note=55 velocity=80 time=0@note_on channel=3 note=43 velocity=80 time=0@note_on channel=0 note=79 velocity=0 time=0.15255393125@note_on channel=1 note=79 velocity=0 time=0.008064525@note_on channel=2 note=55 velocity=0 time=0@note_on channel=3 note=43 velocity=0 time=0@note_on channel=0 note=74 velocity=64 time=0.00067204375@note_on channel=1 note=74 velocity=80 time=0@note_on channel=2 note=50 velocity=80 time=0@note_on channel=3 note=38 velocity=80 time=0@note_on channel=0 note=74 velocity=0 time=0.15255393125@note_on channel=1 note=74 velocity=0 time=0.008064525@note_on channel=2 note=50 velocity=0 time=0@note_on channel=3 note=38 velocity=0 time=0@note_on channel=0 note=77 velocity=64 time=0.00067204375@note_on channel=1 note=77 velocity=80 time=0@note_on channel=2 note=53 velocity=80 time=0@note_on channel=3 note=41 velocity=80 time=0@note_on channel=0 note=77 velocity=0 time=0.15255393125@note_on channel=1 note=77 velocity=0 time=0.008064525@note_on channel=2 note=53 velocity=0 time=0@note_on channel=3 note=41 velocity=0 time=0@note_on channel=0 note=74 velocity=64 time=0.00067204375@note_on channel=1 note=74 velocity=80 time=0@note_on channel=2 note=50 velocity=80 time=0@note_on channel=3 note=38 velocity=80 time=0@note_on channel=0 note=74 velocity=0 time=0.15255393125@note_on channel=1 note=74 velocity=0 time=0.008064525@note_on channel=2 note=50 velocity=0 time=0@note_on channel=3 note=38 velocity=0 time=0@note_on channel=0 note=77 velocity=64 time=0.00067204375@note_on channel=1 note=77 velocity=80 time=0@note_on channel=2 note=53 velocity=80 time=0@note_on channel=3 note=41 velocity=80 time=0@note_on channel=0 note=77 velocity=0 time=0.15255393125@note_on channel=1 note=77 velocity=0 time=0.008064525@note_on channel=2 note=53 velocity=0 time=0@note_on channel=3 note=41 velocity=0 time=0@note_on channel=0 note=79 velocity=64 time=0.00067204375@note_on channel=1 note=79 velocity=80 time=0@note_on channel=2 note=55 velocity=80 time=0@note_on channel=3 note=43 velocity=80 time=0@note_on channel=0 note=79 velocity=0 time=0.15255393125@note_on channel=1 note=79 velocity=0 time=0.008064525@note_on channel=2 note=55 velocity=0 time=0@note_on channel=3 note=43 velocity=0 time=0@note_on channel=0 note=84 velocity=64 time=0.00067204375@note_on channel=1 note=84 velocity=80 time=0@note_on channel=2 note=60 velocity=80 time=0@note_on channel=3 note=48 velocity=80 time=0@note_on channel=0 note=84 velocity=0 time=0.15255393125@note_on channel=1 note=84 velocity=0 time=0.008064525@note_on channel=2 note=60 velocity=0 time=0@note_on channel=3 note=48 velocity=0 time=0@note_on channel=0 note=83 velocity=64 time=0.00067204375@note_on channel=1 note=83 velocity=80 time=0@note_on channel=2 note=59 velocity=80 time=0@note_on channel=3 note=47 velocity=80 time=0@note_on channel=0 note=83 velocity=0 time=0.30577990625@note_on channel=1 note=83 velocity=0 time=0.01612905@note_on channel=2 note=59 velocity=0 time=0@note_on channel=3 note=47 velocity=0 time=0@note_on channel=0 note=79 velocity=64 time=0.00067204375@note_on channel=1 note=79 velocity=80 time=0@note_on channel=2 note=55 velocity=80 time=0@note_on channel=3 note=43 velocity=80 time=0@note_on channel=0 note=79 velocity=0 time=0.30577990625@note_on channel=1 note=79 velocity=0 time=0.01612905@note_on channel=2 note=55 velocity=0 time=0@note_on channel=3 note=43 velocity=0 time=0@note_on channel=0 note=79 velocity=80 time=0.00067204375@note_on channel=1 note=91 velocity=80 time=0@note_on channel=3 note=43 velocity=80 time=0@note_on channel=3 note=43 velocity=0 time=0.16061845625@note_on channel=2 note=55 velocity=80 time=0.00067204375@note_on channel=0 note=79 velocity=0 time=0.14448940625@note_on channel=1 note=91 velocity=0 time=0.01612905@note_on channel=2 note=55 velocity=0 time=0@note_on channel=0 note=77 velocity=80 time=0.00067204375@note_on channel=1 note=89 velocity=80 time=0@note_on channel=3 note=43 velocity=80 time=0@note_on channel=0 note=77 velocity=0 time=0.15255393125@note_on channel=1 note=89 velocity=0 time=0.008064525@note_on channel=3 note=43 velocity=0 time=0@note_on channel=0 note=75 velocity=81 time=0.00067204375@note_on channel=1 note=87 velocity=81 time=0@note_on channel=2 note=55 velocity=80 time=0@note_on channel=0 note=75 velocity=0 time=0.15255393125@note_on channel=1 note=87 velocity=0 time=0.008064525@note_on channel=2 note=55 velocity=0 time=0@note_on channel=0 note=74 velocity=82 time=0.00067204375@note_on channel=1 note=86 velocity=82 time=0@note_on channel=3 note=45 velocity=80 time=0@note_on channel=0 note=74 velocity=0 time=0.15255393125@note_on channel=1 note=86 velocity=0 time=0.008064525@note_on channel=3 note=45 velocity=0 time=0@note_on channel=0 note=70 velocity=83 time=0.00067204375@note_on channel=1 note=82 velocity=83 time=0@note_on channel=2 note=57 velocity=80 time=0@note_on channel=0 note=70 velocity=0 time=0.15255393125@note_on channel=1 note=82 velocity=0 time=0.008064525@note_on channel=2 note=57 velocity=0 time=0@note_on channel=0 note=67 velocity=84 time=0.00067204375@note_on channel=1 note=79 velocity=84 time=0@note_on channel=3 note=45 velocity=80 time=0@note_on channel=3 note=45 velocity=0 time=0.16061845625@note_on channel=2 note=57 velocity=80 time=0.00067204375@note_on channel=0 note=67 velocity=0 time=0.14448940625@note_on channel=1 note=79 velocity=0 time=0.01612905@note_on channel=2 note=57 velocity=0 time=0@note_on channel=0 note=72 velocity=86 time=0.00067204375@note_on channel=1 note=84 velocity=86 time=0@note_on channel=3 note=46 velocity=80 time=0@note_on channel=0 note=72 velocity=0 time=0.15255393125@note_on channel=1 note=84 velocity=0 time=0.008064525@note_on channel=3 note=46 velocity=0 time=0@note_on channel=0 note=74 velocity=88 time=0.00067204375@note_on channel=1 note=86 velocity=88 time=0@note_on channel=2 note=58 velocity=80 time=0@note_on channel=0 note=74 velocity=0 time=0.15255393125@note_on channel=1 note=86 velocity=0 time=0.008064525@note_on channel=2 note=58 velocity=0 time=0@note_on channel=0 note=75 velocity=89 time=0.00067204375@note_on channel=1 note=87 velocity=89 time=0@note_on channel=3 note=46 velocity=80 time=0@note_on channel=0 note=75 velocity=0 time=0.15255393125@note_on channel=1 note=87 velocity=0 time=0.008064525@note_on channel=3 note=46 velocity=0 time=0@note_on channel=0 note=77 velocity=90 time=0.00067204375@note_on channel=1 note=89 velocity=90 time=0@note_on channel=2 note=58 velocity=80 time=0@note_on channel=0 note=77 velocity=0 time=0.15255393125@note_on channel=1 note=89 velocity=0 time=0.008064525@note_on channel=2 note=58 velocity=0 time=0@note_on channel=0 note=74 velocity=91 time=0.00067204375@note_on channel=1 note=86 velocity=91 time=0@note_on channel=2 note=57 velocity=80 time=0@note_on channel=3 note=45 velocity=80 time=0@note_on channel=2 note=57 velocity=0 time=0.32190895625@note_on channel=3 note=45 velocity=0 time=0@note_on channel=2 note=57 velocity=80 time=0.00067204375@note_on channel=3 note=45 velocity=80 time=0@note_on channel=2 note=57 velocity=0 time=0.16061845625@note_on channel=3 note=45 velocity=0 time=0@note_on channel=2 note=57 velocity=80 time=0.00067204375@note_on channel=3 note=45 velocity=80 time=0@note_on channel=0 note=74 velocity=0 time=0.12836035625@note_on channel=1 note=86 velocity=0 time=0.0322581@note_on channel=2 note=57 velocity=0 time=0@note_on channel=3 note=45 velocity=0 time=0@note_on channel=0 note=84 velocity=96 time=0.00067204375@note_on channel=3 note=48 velocity=80 time=0@note_on channel=3 note=48 velocity=0 time=0.16061845625@note_on channel=2 note=55 velocity=80 time=0.00067204375@note_on channel=2 note=55 velocity=0 time=0.16061845625@note_on channel=3 note=43 velocity=80 time=0.00067204375@note_on channel=3 note=43 velocity=0 time=0.16061845625@note_on channel=2 note=55 velocity=80 time=0.00067204375@note_on channel=0 note=84 velocity=0 time=0.12836035625@note_on channel=2 note=55 velocity=0 time=0.0322581@note_on channel=0 note=79 velocity=96 time=0.00067204375@note_on channel=3 note=48 velocity=80 time=0@note_on channel=3 note=48 velocity=0 time=0.16061845625@note_on channel=2 note=55 velocity=80 time=0.00067204375@note_on channel=2 note=55 velocity=0 time=0.16061845625@note_on channel=3 note=43 velocity=80 time=0.00067204375@note_on channel=3 note=43 velocity=0 time=0.16061845625@note_on channel=2 note=55 velocity=80 time=0.00067204375@note_on channel=0 note=79 velocity=0 time=0.12836035625@note_on channel=2 note=55 velocity=0 time=0.0322581@note_on channel=0 note=75 velocity=96 time=0.00067204375@note_on channel=3 note=48 velocity=80 time=0@note_on channel=3 note=48 velocity=0 time=0.16061845625@note_on channel=2 note=55 velocity=80 time=0.00067204375@note_on channel=0 note=75 velocity=0 time=0.14448940625@note_on channel=2 note=55 velocity=0 time=0.01612905@note_on channel=0 note=74 velocity=96 time=0.00067204375@note_on channel=3 note=43 velocity=80 time=0@note_on channel=3 note=43 velocity=0 time=0.16061845625@note_on channel=2 note=55 velocity=80 time=0.00067204375@note_on channel=0 note=74 velocity=0 time=0.14448940625@note_on channel=2 note=55 velocity=0 time=0.01612905@note_on channel=0 note=72 velocity=96 time=0.00067204375@note_on channel=3 note=48 velocity=80 time=0@note_on channel=3 note=48 velocity=0 time=0.16061845625@note_on channel=2 note=55 velocity=80 time=0.00067204375@note_on channel=2 note=55 velocity=0 time=0.16061845625@note_on channel=3 note=43 velocity=80 time=0.00067204375@note_on channel=3 note=43 velocity=0 time=0.16061845625@note_on channel=2 note=55 velocity=80 time=0.00067204375@note_on channel=0 note=72 velocity=0 time=0.12836035625@note_on channel=2 note=55 velocity=0 time=0.0322581@note_on channel=0 note=72 velocity=96 time=0.00067204375@note_on channel=3 note=53 velocity=80 time=0@note_on channel=3 note=53 velocity=0 time=0.16061845625@note_on channel=2 note=60 velocity=80 time=0.00067204375@note_on channel=0 note=72 velocity=0 time=0.14448940625@note_on channel=2 note=60 velocity=0 time=0.01612905@note_on channel=0 note=74 velocity=96 time=0.00067204375@note_on channel=3 note=48 velocity=80 time=0@note_on channel=3 note=48 velocity=0 time=0.16061845625@note_on channel=2 note=60 velocity=80 time=0.00067204375@note_on channel=0 note=74 velocity=0 time=0.14448940625@note_on channel=2 note=60 velocity=0 time=0.01612905@note_on channel=0 note=75 velocity=96 time=0.00067204375@note_on channel=3 note=53 velocity=80 time=0@note_on channel=3 note=53 velocity=0 time=0.16061845625@note_on channel=2 note=60 velocity=80 time=0.00067204375@note_on channel=0 note=75 velocity=0 time=0.14448940625@note_on channel=2 note=60 velocity=0 time=0.01612905@note_on channel=0 note=72 velocity=96 time=0.00067204375@note_on channel=3 note=48 velocity=80 time=0@note_on channel=3 note=48 velocity=0 time=0.16061845625@note_on channel=2 note=60 velocity=80 time=0.00067204375@note_on channel=0 note=72 velocity=0 time=0.14448940625@note_on channel=2 note=60 velocity=0 time=0.01612905@note_on channel=0 note=70 velocity=96 time=0.00067204375@note_on channel=3 note=48 velocity=80 time=0@note_on channel=3 note=48 velocity=0 time=0.16061845625@note_on channel=2 note=55 velocity=80 time=0.00067204375@note_on channel=0 note=70 velocity=0 time=0.14448940625@note_on channel=2 note=55 velocity=0 time=0.01612905@note_on channel=0 note=72 velocity=96 time=0.00067204375@note_on channel=3 note=43 velocity=80 time=0@note_on channel=3 note=43 velocity=0 time=0.16061845625@note_on channel=2 note=55 velocity=80 time=0.00067204375@note_on channel=0 note=72 velocity=0 time=0.14448940625@note_on channel=2 note=55 velocity=0 time=0.01612905@note_on channel=0 note=67 velocity=96 time=0.00067204375@note_on channel=3 note=48 velocity=80 time=0@note_on channel=3 note=48 velocity=0 time=0.16061845625@note_on channel=2 note=55 velocity=80 time=0.00067204375@note_on channel=2 note=55 velocity=0 time=0.16061845625@note_on channel=3 note=43 velocity=80 time=0.00067204375@note_on channel=3 note=43 velocity=0 time=0.16061845625@note_on channel=2 note=55 velocity=80 time=0.00067204375@note_on channel=0 note=67 velocity=0 time=0.12836035625@note_on channel=2 note=55 velocity=0 time=0.0322581@note_on channel=0 note=84 velocity=96 time=0.00067204375@note_on channel=3 note=48 velocity=80 time=0@note_on channel=3 note=48 velocity=0 time=0.16061845625@note_on channel=2 note=55 velocity=80 time=0.00067204375@note_on channel=2 note=55 velocity=0 time=0.16061845625@note_on channel=3 note=43 velocity=80 time=0.00067204375@note_on channel=3 note=43 velocity=0 time=0.16061845625@note_on channel=2 note=55 velocity=80 time=0.00067204375@note_on channel=0 note=84 velocity=0 time=0.12836035625@note_on channel=2 note=55 velocity=0 time=0.0322581@note_on channel=0 note=79 velocity=96 time=0.00067204375@note_on channel=3 note=48 velocity=80 time=0@note_on channel=3 note=48 velocity=0 time=0.16061845625@note_on channel=2 note=55 velocity=80 time=0.00067204375@note_on channel=2 note=55 velocity=0 time=0.16061845625@note_on channel=3 note=43 velocity=80 time=0.00067204375@note_on channel=3 note=43 velocity=0 time=0.16061845625@note_on channel=2 note=55 velocity=80 time=0.00067204375@note_on channel=0 note=79 velocity=0 time=0.12836035625@note_on channel=2 note=55 velocity=0 time=0.0322581@note_on channel=0 note=75 velocity=96 time=0.00067204375@note_on channel=3 note=48 velocity=80 time=0@note_on channel=3 note=48 velocity=0 time=0.16061845625@note_on channel=2 note=55 velocity=80 time=0.00067204375@note_on channel=0 note=75 velocity=0 time=0.14448940625@note_on channel=2 note=55 velocity=0 time=0.01612905@note_on channel=0 note=74 velocity=96 time=0.00067204375@note_on channel=3 note=43 velocity=80 time=0@note_on channel=3 note=43 velocity=0 time=0.16061845625@note_on channel=2 note=55 velocity=80 time=0.00067204375@note_on channel=0 note=74 velocity=0 time=0.14448940625@note_on channel=2 note=55 velocity=0 time=0.01612905@note_on channel=0 note=72 velocity=96 time=0.00067204375@note_on channel=3 note=48 velocity=80 time=0@note_on channel=3 note=48 velocity=0 time=0.16061845625@note_on channel=2 note=55 velocity=80 time=0.00067204375@note_on channel=0 note=72 velocity=0 time=0.14448940625@note_on channel=2 note=55 velocity=0 time=0.01612905@note_on channel=0 note=72 velocity=96 time=0.00067204375@note_on channel=3 note=43 velocity=80 time=0@note_on channel=0 note=72 velocity=0 time=0.15255393125@note_on channel=3 note=43 velocity=0 time=0.008064525@note_on channel=0 note=74 velocity=96 time=0.00067204375@note_on channel=2 note=55 velocity=80 time=0@note_on channel=0 note=74 velocity=0 time=0.15255393125@note_on channel=2 note=55 velocity=0 time=0.008064525@note_on channel=0 note=75 velocity=96 time=0.00067204375@note_on channel=3 note=53 velocity=80 time=0@note_on channel=3 note=53 velocity=0 time=0.16061845625@note_on channel=2 note=60 velocity=80 time=0.00067204375@note_on channel=0 note=75 velocity=0 time=0.14448940625@note_on channel=2 note=60 velocity=0 time=0.01612905@note_on channel=0 note=77 velocity=96 time=0.00067204375@note_on channel=3 note=48 velocity=80 time=0@note_on channel=3 note=48 velocity=0 time=0.16061845625@note_on channel=2 note=60 velocity=80 time=0.00067204375@note_on channel=0 note=77 velocity=0 time=0.14448940625@note_on channel=2 note=60 velocity=0 time=0.01612905@note_on channel=0 note=74 velocity=96 time=0.00067204375@note_on channel=3 note=55 velocity=80 time=0@note_on channel=0 note=74 velocity=0 time=0.15255393125@note_on channel=3 note=55 velocity=0 time=0.008064525@note_on channel=0 note=72 velocity=96 time=0.00067204375@note_on channel=2 note=62 velocity=80 time=0@note_on channel=0 note=72 velocity=0 time=0.15255393125@note_on channel=2 note=62 velocity=0 time=0.008064525@note_on channel=0 note=70 velocity=96 time=0.00067204375@note_on channel=3 note=50 velocity=80 time=0@note_on channel=3 note=50 velocity=0 time=0.16061845625@note_on channel=2 note=62 velocity=80 time=0.00067204375@note_on channel=0 note=70 velocity=0 time=0.14448940625@note_on channel=2 note=62 velocity=0 time=0.01612905@note_on channel=0 note=72 velocity=96 time=0.00067204375@note_on channel=3 note=48 velocity=80 time=0@note_on channel=3 note=48 velocity=0 time=0.16061845625@note_on channel=2 note=55 velocity=80 time=0.00067204375@note_on channel=0 note=72 velocity=0 time=0.14448940625@note_on channel=2 note=55 velocity=0 time=0.01612905@note_on channel=0 note=67 velocity=96 time=0.00067204375@note_on channel=3 note=43 velocity=80 time=0@note_on channel=3 note=43 velocity=0 time=0.16061845625@note_on channel=2 note=55 velocity=80 time=0.00067204375@note_on channel=0 note=67 velocity=0 time=0.14448940625@note_on channel=2 note=55 velocity=0 time=0.01612905@note_on channel=0 note=72 velocity=96 time=0.00067204375@note_on channel=3 note=48 velocity=80 time=0@note_on channel=3 note=48 velocity=0 time=0.16061845625@note_on channel=2 note=55 velocity=80 time=0.00067204375@note_on channel=2 note=55 velocity=0 time=0.16061845625@note_on channel=3 note=43 velocity=80 time=0.00067204375@note_on channel=3 note=43 velocity=0 time=0.16061845625@note_on channel=2 note=55 velocity=80 time=0.00067204375@note_on channel=0 note=72 velocity=0 time=0.12836035625@note_on channel=2 note=55 velocity=0 time=0.0322581@note_on channel=1 note=96 velocity=96 time=0.00067204375@note_on channel=3 note=48 velocity=80 time=0@note_on channel=3 note=48 velocity=0 time=0.16061845625@note_on channel=2 note=55 velocity=80 time=0.00067204375@note_on channel=2 note=55 velocity=0 time=0.16061845625@note_on channel=3 note=43 velocity=80 time=0.00067204375@note_on channel=3 note=43 velocity=0 time=0.16061845625@note_on channel=2 note=55 velocity=80 time=0.00067204375@note_on channel=1 note=96 velocity=0 time=0.16061845625@note_on channel=2 note=55 velocity=0 time=0@note_on channel=1 note=91 velocity=96 time=0.00067204375@note_on channel=3 note=48 velocity=80 time=0@note_on channel=3 note=48 velocity=0 time=0.16061845625@note_on channel=2 note=55 velocity=80 time=0.00067204375@note_on channel=2 note=55 velocity=0 time=0.16061845625@note_on channel=3 note=43 velocity=80 time=0.00067204375@note_on channel=3 note=43 velocity=0 time=0.16061845625@note_on channel=2 note=55 velocity=80 time=0.00067204375@note_on channel=1 note=91 velocity=0 time=0.16061845625@note_on channel=2 note=55 velocity=0 time=0@note_on channel=1 note=87 velocity=96 time=0.00067204375@note_on channel=3 note=48 velocity=80 time=0@note_on channel=3 note=48 velocity=0 time=0.16061845625@note_on channel=2 note=55 velocity=80 time=0.00067204375@note_on channel=1 note=87 velocity=0 time=0.16061845625@note_on channel=2 note=55 velocity=0 time=0@note_on channel=1 note=86 velocity=96 time=0.00067204375@note_on channel=3 note=43 velocity=80 time=0@note_on channel=3 note=43 velocity=0 time=0.16061845625@note_on channel=2 note=55 velocity=80 time=0.00067204375@note_on channel=1 note=86 velocity=0 time=0.16061845625@note_on channel=2 note=55 velocity=0 time=0@note_on channel=1 note=84 velocity=96 time=0.00067204375@note_on channel=3 note=48 velocity=80 time=0@note_on channel=3 note=48 velocity=0 time=0.16061845625@note_on channel=2 note=55 velocity=80 time=0.00067204375@note_on channel=2 note=55 velocity=0 time=0.16061845625@note_on channel=3 note=43 velocity=80 time=0.00067204375@note_on channel=3 note=43 velocity=0 time=0.16061845625@note_on channel=2 note=55 velocity=80 time=0.00067204375@note_on channel=1 note=84 velocity=0 time=0.16061845625@note_on channel=2 note=55 velocity=0 time=0@note_on channel=1 note=84 velocity=96 time=0.00067204375@note_on channel=3 note=53 velocity=80 time=0@note_on channel=3 note=53 velocity=0 time=0.16061845625@note_on channel=2 note=60 velocity=80 time=0.00067204375@note_on channel=1 note=84 velocity=0 time=0.16061845625@note_on channel=2 note=60 velocity=0 time=0@note_on channel=1 note=86 velocity=96 time=0.00067204375@note_on channel=3 note=48 velocity=80 time=0@note_on channel=3 note=48 velocity=0 time=0.16061845625@note_on channel=2 note=60 velocity=80 time=0.00067204375@note_on channel=1 note=86 velocity=0 time=0.16061845625@note_on channel=2 note=60 velocity=0 time=0@note_on channel=1 note=87 velocity=96 time=0.00067204375@note_on channel=3 note=53 velocity=80 time=0@note_on channel=3 note=53 velocity=0 time=0.16061845625@note_on channel=2 note=60 velocity=80 time=0.00067204375@note_on channel=1 note=87 velocity=0 time=0.16061845625@note_on channel=2 note=60 velocity=0 time=0@note_on channel=1 note=84 velocity=96 time=0.00067204375@note_on channel=3 note=48 velocity=80 time=0@note_on channel=3 note=48 velocity=0 time=0.16061845625@note_on channel=2 note=60 velocity=80 time=0.00067204375@note_on channel=1 note=84 velocity=0 time=0.16061845625@note_on channel=2 note=60 velocity=0 time=0@note_on channel=1 note=82 velocity=96 time=0.00067204375@note_on channel=3 note=48 velocity=80 time=0@note_on channel=3 note=48 velocity=0 time=0.16061845625@note_on channel=2 note=55 velocity=80 time=0.00067204375@note_on channel=1 note=82 velocity=0 time=0.16061845625@note_on channel=2 note=55 velocity=0 time=0@note_on channel=1 note=84 velocity=96 time=0.00067204375@note_on channel=3 note=43 velocity=80 time=0@note_on channel=3 note=43 velocity=0 time=0.16061845625@note_on channel=2 note=55 velocity=80 time=0.00067204375@note_on channel=1 note=84 velocity=0 time=0.16061845625@note_on channel=2 note=55 velocity=0 time=0@note_on channel=1 note=79 velocity=96 time=0.00067204375@note_on channel=3 note=48 velocity=80 time=0@note_on channel=3 note=48 velocity=0 time=0.16061845625@note_on channel=2 note=55 velocity=80 time=0.00067204375@note_on channel=2 note=55 velocity=0 time=0.16061845625@note_on channel=3 note=43 velocity=80 time=0.00067204375@note_on channel=3 note=43 velocity=0 time=0.16061845625@note_on channel=2 note=55 velocity=80 time=0.00067204375@note_on channel=1 note=79 velocity=0 time=0.16061845625@note_on channel=2 note=55 velocity=0 time=0@note_on channel=1 note=96 velocity=96 time=0.00067204375@note_on channel=3 note=48 velocity=80 time=0@note_on channel=3 note=48 velocity=0 time=0.16061845625@note_on channel=2 note=55 velocity=80 time=0.00067204375@note_on channel=2 note=55 velocity=0 time=0.16061845625@note_on channel=3 note=43 velocity=80 time=0.00067204375@note_on channel=3 note=43 velocity=0 time=0.16061845625@note_on channel=2 note=55 velocity=80 time=0.00067204375@note_on channel=1 note=96 velocity=0 time=0.16061845625@note_on channel=2 note=55 velocity=0 time=0@note_on channel=1 note=91 velocity=96 time=0.00067204375@note_on channel=3 note=48 velocity=80 time=0@note_on channel=3 note=48 velocity=0 time=0.16061845625@note_on channel=2 note=55 velocity=80 time=0.00067204375@note_on channel=2 note=55 velocity=0 time=0.16061845625@note_on channel=3 note=43 velocity=80 time=0.00067204375@note_on channel=3 note=43 velocity=0 time=0.16061845625@note_on channel=2 note=55 velocity=80 time=0.00067204375@note_on channel=1 note=91 velocity=0 time=0.16061845625@note_on channel=2 note=55 velocity=0 time=0@note_on channel=1 note=87 velocity=96 time=0.00067204375@note_on channel=3 note=53 velocity=80 time=0@note_on channel=3 note=53 velocity=0 time=0.16061845625@note_on channel=2 note=60 velocity=80 time=0.00067204375@note_on channel=1 note=87 velocity=0 time=0.16061845625@note_on channel=2 note=60 velocity=0 time=0@note_on channel=1 note=89 velocity=96 time=0.00067204375@note_on channel=3 note=48 velocity=80 time=0@note_on channel=3 note=48 velocity=0 time=0.16061845625@note_on channel=2 note=60 velocity=80 time=0.00067204375@note_on channel=1 note=89 velocity=0 time=0.16061845625@note_on channel=2 note=60 velocity=0 time=0@note_on channel=1 note=91 velocity=96 time=0.00067204375@note_on channel=3 note=53 velocity=80 time=0@note_on channel=3 note=53 velocity=0 time=0.16061845625@note_on channel=2 note=60 velocity=80 time=0.00067204375@note_on channel=1 note=91 velocity=0 time=0.16061845625@note_on channel=2 note=60 velocity=0 time=0@note_on channel=1 note=84 velocity=96 time=0.00067204375@note_on channel=3 note=48 velocity=80 time=0@note_on channel=3 note=48 velocity=0 time=0.16061845625@note_on channel=2 note=60 velocity=80 time=0.00067204375@note_on channel=1 note=84 velocity=0 time=0.16061845625@note_on channel=2 note=60 velocity=0 time=0@note_on channel=1 note=86 velocity=96 time=0.00067204375@note_on channel=3 note=55 velocity=80 time=0@note_on channel=3 note=55 velocity=0 time=0.16061845625@note_on channel=2 note=62 velocity=80 time=0.00067204375@note_on channel=1 note=86 velocity=0 time=0.16061845625@note_on channel=2 note=62 velocity=0 time=0@note_on channel=1 note=89 velocity=96 time=0.00067204375@note_on channel=3 note=50 velocity=80 time=0@note_on channel=3 note=50 velocity=0 time=0.16061845625@note_on channel=2 note=62 velocity=80 time=0.00067204375@note_on channel=1 note=89 velocity=0 time=0.16061845625@note_on channel=2 note=62 velocity=0 time=0@note_on channel=1 note=86 velocity=96 time=0.00067204375@note_on channel=3 note=55 velocity=80 time=0@note_on channel=3 note=55 velocity=0 time=0.16061845625@note_on channel=2 note=62 velocity=80 time=0.00067204375@note_on channel=1 note=86 velocity=0 time=0.16061845625@note_on channel=2 note=62 velocity=0 time=0@note_on channel=1 note=82 velocity=96 time=0.00067204375@note_on channel=3 note=50 velocity=80 time=0@note_on channel=3 note=50 velocity=0 time=0.16061845625@note_on channel=2 note=62 velocity=80 time=0.00067204375@note_on channel=1 note=82 velocity=0 time=0.16061845625@note_on channel=2 note=62 velocity=0 time=0@note_on channel=1 note=84 velocity=96 time=0.00067204375@note_on channel=3 note=48 velocity=80 time=0@note_on channel=3 note=48 velocity=0 time=0.16061845625@note_on channel=2 note=55 velocity=80 time=0.00067204375@note_on channel=2 note=55 velocity=0 time=0.16061845625@note_on channel=3 note=43 velocity=80 time=0.00067204375@note_on channel=3 note=43 velocity=0 time=0.16061845625@note_on channel=2 note=55 velocity=80 time=0.00067204375@note_on channel=1 note=84 velocity=0 time=0.16061845625@note_on channel=2 note=55 velocity=0 time=0@note_on channel=2 note=60 velocity=80 time=0.00067204375@note_on channel=3 note=48 velocity=80 time=0@note_on channel=2 note=60 velocity=0 time=0.64448995625@note_on channel=3 note=48 velocity=0 time=0@note_on channel=3 note=53 velocity=80 time=0.00067204375@note_on channel=4 note=41 velocity=80 time=0@note_on channel=5 note=41 velocity=80 time=0@note_on channel=3 note=53 velocity=0 time=0.16061845625@note_on channel=2 note=60 velocity=80 time=0.00067204375@note_on channel=2 note=60 velocity=0 time=0.16061845625@note_on channel=4 note=41 velocity=0 time=0@note_on channel=5 note=41 velocity=0 time=0@note_on channel=3 note=48 velocity=80 time=0.00067204375@note_on channel=4 note=41 velocity=80 time=0@note_on channel=5 note=41 velocity=80 time=0@note_on channel=3 note=48 velocity=0 time=0.16061845625@note_on channel=2 note=60 velocity=80 time=0.00067204375@note_on channel=2 note=60 velocity=0 time=0.16061845625@note_on channel=4 note=41 velocity=0 time=0@note_on channel=5 note=41 velocity=0 time=0@note_on channel=3 note=53 velocity=80 time=0.00067204375@note_on channel=4 note=44 velocity=80 time=0@note_on channel=5 note=44 velocity=80 time=0@note_on channel=3 note=53 velocity=0 time=0.16061845625@note_on channel=2 note=60 velocity=80 time=0.00067204375@note_on channel=2 note=60 velocity=0 time=0.16061845625@note_on channel=4 note=44 velocity=0 time=0@note_on channel=5 note=44 velocity=0 time=0@note_on channel=3 note=48 velocity=80 time=0.00067204375@note_on channel=4 note=48 velocity=80 time=0@note_on channel=5 note=48 velocity=80 time=0@note_on channel=3 note=48 velocity=0 time=0.16061845625@note_on channel=2 note=60 velocity=80 time=0.00067204375@note_on channel=2 note=60 velocity=0 time=0.16061845625@note_on channel=4 note=48 velocity=0 time=0@note_on channel=5 note=48 velocity=0 time=0@note_on channel=3 note=48 velocity=80 time=0.00067204375@note_on channel=4 note=51 velocity=80 time=0@note_on channel=5 note=51 velocity=80 time=0@note_on channel=3 note=48 velocity=0 time=0.16061845625@note_on channel=2 note=55 velocity=80 time=0.00067204375@note_on channel=2 note=55 velocity=0 time=0.16061845625@note_on channel=4 note=51 velocity=0 time=0@note_on channel=5 note=51 velocity=0 time=0@note_on channel=3 note=43 velocity=80 time=0.00067204375@note_on channel=4 note=50 velocity=80 time=0@note_on channel=5 note=50 velocity=80 time=0@note_on channel=3 note=43 velocity=0 time=0.16061845625@note_on channel=2 note=55 velocity=80 time=0.00067204375@note_on channel=2 note=55 velocity=0 time=0.16061845625@note_on channel=4 note=50 velocity=0 time=0@note_on channel=5 note=50 velocity=0 time=0@note_on channel=3 note=48 velocity=80 time=0.00067204375@note_on channel=4 note=48 velocity=80 time=0@note_on channel=5 note=48 velocity=80 time=0@note_on channel=3 note=48 velocity=0 time=0.16061845625@note_on channel=2 note=55 velocity=80 time=0.00067204375@note_on channel=2 note=55 velocity=0 time=0.16061845625@note_on channel=4 note=48 velocity=0 time=0@note_on channel=5 note=48 velocity=0 time=0@note_on channel=3 note=43 velocity=80 time=0.00067204375@note_on channel=4 note=43 velocity=80 time=0@note_on channel=5 note=43 velocity=80 time=0@note_on channel=3 note=43 velocity=0 time=0.16061845625@note_on channel=2 note=55 velocity=80 time=0.00067204375@note_on channel=2 note=55 velocity=0 time=0.16061845625@note_on channel=4 note=43 velocity=0 time=0@note_on channel=5 note=43 velocity=0 time=0@note_on channel=3 note=53 velocity=80 time=0.00067204375@note_on channel=4 note=41 velocity=80 time=0@note_on channel=5 note=41 velocity=80 time=0@note_on channel=3 note=53 velocity=0 time=0.16061845625@note_on channel=2 note=60 velocity=80 time=0.00067204375@note_on channel=2 note=60 velocity=0 time=0.16061845625@note_on channel=4 note=41 velocity=0 time=0@note_on channel=5 note=41 velocity=0 time=0@note_on channel=3 note=48 velocity=80 time=0.00067204375@note_on channel=4 note=41 velocity=80 time=0@note_on channel=5 note=41 velocity=80 time=0@note_on channel=3 note=48 velocity=0 time=0.16061845625@note_on channel=2 note=60 velocity=80 time=0.00067204375@note_on channel=2 note=60 velocity=0 time=0.16061845625@note_on channel=4 note=41 velocity=0 time=0@note_on channel=5 note=41 velocity=0 time=0@note_on channel=3 note=53 velocity=80 time=0.00067204375@note_on channel=4 note=44 velocity=80 time=0@note_on channel=5 note=44 velocity=80 time=0@note_on channel=3 note=53 velocity=0 time=0.16061845625@note_on channel=2 note=60 velocity=80 time=0.00067204375@note_on channel=2 note=60 velocity=0 time=0.16061845625@note_on channel=4 note=44 velocity=0 time=0@note_on channel=5 note=44 velocity=0 time=0@note_on channel=3 note=48 velocity=80 time=0.00067204375@note_on channel=4 note=48 velocity=80 time=0@note_on channel=5 note=48 velocity=80 time=0@note_on channel=3 note=48 velocity=0 time=0.16061845625@note_on channel=2 note=60 velocity=80 time=0.00067204375@note_on channel=2 note=60 velocity=0 time=0.16061845625@note_on channel=4 note=48 velocity=0 time=0@note_on channel=5 note=48 velocity=0 time=0@note_on channel=3 note=48 velocity=80 time=0.00067204375@note_on channel=4 note=51 velocity=80 time=0@note_on channel=5 note=51 velocity=80 time=0@note_on channel=3 note=48 velocity=0 time=0.16061845625@note_on channel=2 note=55 velocity=80 time=0.00067204375@note_on channel=2 note=55 velocity=0 time=0.16061845625@note_on channel=4 note=51 velocity=0 time=0@note_on channel=5 note=51 velocity=0 time=0@note_on channel=3 note=43 velocity=80 time=0.00067204375@note_on channel=4 note=53 velocity=80 time=0@note_on channel=5 note=53 velocity=80 time=0@note_on channel=3 note=43 velocity=0 time=0.16061845625@note_on channel=2 note=55 velocity=80 time=0.00067204375@note_on channel=2 note=55 velocity=0 time=0.16061845625@note_on channel=4 note=53 velocity=0 time=0@note_on channel=5 note=53 velocity=0 time=0@note_on channel=3 note=48 velocity=80 time=0.00067204375@note_on channel=4 note=55 velocity=80 time=0@note_on channel=5 note=55 velocity=80 time=0@note_on channel=3 note=48 velocity=0 time=0.16061845625@note_on channel=2 note=55 velocity=80 time=0.00067204375@note_on channel=2 note=55 velocity=0 time=0.16061845625@note_on channel=3 note=43 velocity=80 time=0.00067204375@note_on channel=3 note=43 velocity=0 time=0.16061845625@note_on channel=2 note=55 velocity=80 time=0.00067204375@note_on channel=2 note=55 velocity=0 time=0.16061845625@note_on channel=4 note=55 velocity=0 time=0@note_on channel=5 note=55 velocity=0 time=0@note_on channel=0 note=80 velocity=64 time=0.00067204375@note_on channel=1 note=80 velocity=64 time=0@note_on channel=3 note=44 velocity=80 time=0@note_on channel=3 note=44 velocity=0 time=0.16061845625@note_on channel=2 note=48 velocity=80 time=0.00067204375@note_on channel=2 note=48 velocity=0 time=0.16061845625@note_on channel=3 note=41 velocity=80 time=0.00067204375@note_on channel=0 note=80 velocity=0 time=0.13642488125000002@note_on channel=1 note=80 velocity=0 time=0.024193575000000002@note_on channel=3 note=41 velocity=0 time=0@note_on channel=0 note=79 velocity=64 time=0.00067204375@note_on channel=1 note=79 velocity=64 time=0@note_on channel=2 note=48 velocity=80 time=0@note_on channel=0 note=79 velocity=0 time=0.15255393125@note_on channel=1 note=79 velocity=0 time=0.008064525@note_on channel=2 note=48 velocity=0 time=0@note_on channel=0 note=77 velocity=64 time=0.00067204375@note_on channel=1 note=77 velocity=64 time=0@note_on channel=3 note=44 velocity=80 time=0@note_on channel=3 note=44 velocity=0 time=0.16061845625@note_on channel=2 note=48 velocity=80 time=0.00067204375@note_on channel=0 note=77 velocity=0 time=0.14448940625@note_on channel=1 note=77 velocity=0 time=0.01612905@note_on channel=2 note=48 velocity=0 time=0@note_on channel=0 note=75 velocity=64 time=0.00067204375@note_on channel=1 note=75 velocity=64 time=0@note_on channel=3 note=41 velocity=80 time=0@note_on channel=0 note=75 velocity=0 time=0.15255393125@note_on channel=1 note=75 velocity=0 time=0.008064525@note_on channel=3 note=41 velocity=0 time=0@note_on channel=0 note=77 velocity=64 time=0.00067204375@note_on channel=1 note=77 velocity=64 time=0@note_on channel=2 note=48 velocity=80 time=0@note_on channel=0 note=77 velocity=0 time=0.15255393125@note_on channel=1 note=77 velocity=0 time=0.008064525@note_on channel=2 note=48 velocity=0 time=0@note_on channel=0 note=79 velocity=64 time=0.00067204375@note_on channel=1 note=79 velocity=64 time=0@note_on channel=3 note=51 velocity=80 time=0@note_on channel=3 note=51 velocity=0 time=0.16061845625@note_on channel=2 note=55 velocity=80 time=0.00067204375@note_on channel=0 note=79 velocity=0 time=0.14448940625@note_on channel=1 note=79 velocity=0 time=0.01612905@note_on channel=2 note=55 velocity=0 time=0@note_on channel=0 note=72 velocity=64 time=0.00067204375@note_on channel=1 note=72 velocity=64 time=0@note_on channel=3 note=48 velocity=80 time=0@note_on channel=3 note=48 velocity=0 time=0.16061845625@note_on channel=2 note=55 velocity=80 time=0.00067204375@note_on channel=0 note=72 velocity=0 time=0.14448940625@note_on channel=1 note=72 velocity=0 time=0.01612905@note_on channel=2 note=55 velocity=0 time=0@note_on channel=0 note=79 velocity=64 time=0.00067204375@note_on channel=1 note=79 velocity=64 time=0@note_on channel=3 note=51 velocity=80 time=0@note_on channel=3 note=51 velocity=0 time=0.16061845625@note_on channel=2 note=55 velocity=80 time=0.00067204375@note_on channel=2 note=55 velocity=0 time=0.16061845625@note_on channel=3 note=48 velocity=80 time=0.00067204375@note_on channel=3 note=48 velocity=0 time=0.16061845625@note_on channel=2 note=55 velocity=80 time=0.00067204375@note_on channel=0 note=79 velocity=0 time=0.12836035625@note_on channel=1 note=79 velocity=0 time=0.0322581@note_on channel=2 note=55 velocity=0 time=0@note_on channel=0 note=77 velocity=64 time=0.00067204375@note_on channel=1 note=77 velocity=64 time=0@note_on channel=3 note=50 velocity=80 time=0@note_on channel=0 note=77 velocity=0 time=0.15255393125@note_on channel=1 note=77 velocity=0 time=0.008064525@note_on channel=3 note=50 velocity=0 time=0@note_on channel=0 note=77 velocity=64 time=0.00067204375@note_on channel=1 note=77 velocity=64 time=0@note_on channel=2 note=53 velocity=80 time=0@note_on channel=0 note=77 velocity=0 time=0.07594094375@note_on channel=1 note=77 velocity=0 time=0.0040322625@note_on channel=0 note=77 velocity=64 time=0.00067204375@note_on channel=1 note=77 velocity=64 time=0@note_on channel=0 note=77 velocity=0 time=0.07594094375@note_on channel=1 note=77 velocity=0 time=0.0040322625@note_on channel=2 note=53 velocity=0 time=0@note_on channel=0 note=77 velocity=64 time=0.00067204375@note_on channel=1 note=77 velocity=64 time=0@note_on channel=3 note=46 velocity=80 time=0@note_on channel=0 note=77 velocity=0 time=0.15255393125@note_on channel=1 note=77 velocity=0 time=0.008064525@note_on channel=3 note=46 velocity=0 time=0@note_on channel=0 note=75 velocity=64 time=0.00067204375@note_on channel=1 note=75 velocity=64 time=0@note_on channel=2 note=53 velocity=80 time=0@note_on channel=0 note=75 velocity=0 time=0.15255393125@note_on channel=1 note=75 velocity=0 time=0.008064525@note_on channel=2 note=53 velocity=0 time=0@note_on channel=0 note=74 velocity=64 time=0.00067204375@note_on channel=1 note=74 velocity=64 time=0@note_on channel=3 note=50 velocity=80 time=0@note_on channel=3 note=50 velocity=0 time=0.16061845625@note_on channel=2 note=53 velocity=80 time=0.00067204375@note_on channel=0 note=74 velocity=0 time=0.14448940625@note_on channel=1 note=74 velocity=0 time=0.01612905@note_on channel=2 note=53 velocity=0 time=0@note_on channel=0 note=75 velocity=64 time=0.00067204375@note_on channel=1 note=75 velocity=64 time=0@note_on channel=3 note=46 velocity=80 time=0@note_on channel=0 note=75 velocity=0 time=0.15255393125@note_on channel=1 note=75 velocity=0 time=0.008064525@note_on channel=3 note=46 velocity=0 time=0@note_on channel=0 note=77 velocity=64 time=0.00067204375@note_on channel=1 note=77 velocity=64 time=0@note_on channel=2 note=53 velocity=80 time=0@note_on channel=0 note=77 velocity=0 time=0.15255393125@note_on channel=1 note=77 velocity=0 time=0.008064525@note_on channel=2 note=53 velocity=0 time=0@note_on channel=0 note=75 velocity=64 time=0.00067204375@note_on channel=1 note=75 velocity=64 time=0@note_on channel=3 note=51 velocity=80 time=0@note_on channel=3 note=51 velocity=0 time=0.16061845625@note_on channel=2 note=55 velocity=80 time=0.00067204375@note_on channel=0 note=75 velocity=0 time=0.14448940625@note_on channel=1 note=75 velocity=0 time=0.01612905@note_on channel=2 note=55 velocity=0 time=0@note_on channel=0 note=77 velocity=64 time=0.00067204375@note_on channel=1 note=77 velocity=64 time=0@note_on channel=3 note=48 velocity=80 time=0@note_on channel=3 note=48 velocity=0 time=0.16061845625@note_on channel=2 note=55 velocity=80 time=0.00067204375@note_on channel=0 note=77 velocity=0 time=0.14448940625@note_on channel=1 note=77 velocity=0 time=0.01612905@note_on channel=2 note=55 velocity=0 time=0@note_on channel=0 note=79 velocity=64 time=0.00067204375@note_on channel=1 note=79 velocity=64 time=0@note_on channel=3 note=51 velocity=80 time=0@note_on channel=3 note=51 velocity=0 time=0.16061845625@note_on channel=2 note=55 velocity=80 time=0.00067204375@note_on channel=0 note=79 velocity=0 time=0.14448940625@note_on channel=1 note=79 velocity=0 time=0.01612905@note_on channel=2 note=55 velocity=0 time=0@note_on channel=0 note=72 velocity=64 time=0.00067204375@note_on channel=1 note=72 velocity=64 time=0@note_on channel=3 note=48 velocity=80 time=0@note_on channel=3 note=48 velocity=0 time=0.16061845625@note_on channel=2 note=55 velocity=80 time=0.00067204375@note_on channel=0 note=72 velocity=0 time=0.14448940625@note_on channel=1 note=72 velocity=0 time=0.01612905@note_on channel=2 note=55 velocity=0 time=0@note_on channel=3 note=53 velocity=80 time=0.00067204375@note_on channel=4 note=41 velocity=80 time=0@note_on channel=5 note=41 velocity=80 time=0@note_on channel=3 note=53 velocity=0 time=0.16061845625@note_on channel=2 note=60 velocity=80 time=0.00067204375@note_on channel=2 note=60 velocity=0 time=0.16061845625@note_on channel=4 note=41 velocity=0 time=0@note_on channel=5 note=41 velocity=0 time=0@note_on channel=3 note=48 velocity=80 time=0.00067204375@note_on channel=4 note=41 velocity=80 time=0@note_on channel=5 note=41 velocity=80 time=0@note_on channel=3 note=48 velocity=0 time=0.16061845625@note_on channel=2 note=60 velocity=80 time=0.00067204375@note_on channel=2 note=60 velocity=0 time=0.16061845625@note_on channel=4 note=41 velocity=0 time=0@note_on channel=5 note=41 velocity=0 time=0@note_on channel=3 note=53 velocity=80 time=0.00067204375@note_on channel=4 note=44 velocity=80 time=0@note_on channel=5 note=44 velocity=80 time=0@note_on channel=3 note=53 velocity=0 time=0.16061845625@note_on channel=2 note=60 velocity=80 time=0.00067204375@note_on channel=2 note=60 velocity=0 time=0.16061845625@note_on channel=4 note=44 velocity=0 time=0@note_on channel=5 note=44 velocity=0 time=0@note_on channel=3 note=48 velocity=80 time=0.00067204375@note_on channel=4 note=48 velocity=80 time=0@note_on channel=5 note=48 velocity=80 time=0@note_on channel=3 note=48 velocity=0 time=0.16061845625@note_on channel=2 note=60 velocity=80 time=0.00067204375@note_on channel=2 note=60 velocity=0 time=0.16061845625@note_on channel=4 note=48 velocity=0 time=0@note_on channel=5 note=48 velocity=0 time=0@note_on channel=3 note=48 velocity=80 time=0.00067204375@note_on channel=4 note=51 velocity=80 time=0@note_on channel=5 note=51 velocity=80 time=0@note_on channel=3 note=48 velocity=0 time=0.16061845625@note_on channel=2 note=55 velocity=80 time=0.00067204375@note_on channel=2 note=55 velocity=0 time=0.16061845625@note_on channel=4 note=51 velocity=0 time=0@note_on channel=5 note=51 velocity=0 time=0@note_on channel=3 note=43 velocity=80 time=0.00067204375@note_on channel=4 note=50 velocity=80 time=0@note_on channel=5 note=50 velocity=80 time=0@note_on channel=3 note=43 velocity=0 time=0.16061845625@note_on channel=2 note=55 velocity=80 time=0.00067204375@note_on channel=2 note=55 velocity=0 time=0.16061845625@note_on channel=4 note=50 velocity=0 time=0@note_on channel=5 note=50 velocity=0 time=0@note_on channel=3 note=48 velocity=80 time=0.00067204375@note_on channel=4 note=48 velocity=80 time=0@note_on channel=5 note=48 velocity=80 time=0@note_on channel=3 note=48 velocity=0 time=0.16061845625@note_on channel=2 note=55 velocity=80 time=0.00067204375@note_on channel=2 note=55 velocity=0 time=0.16061845625@note_on channel=4 note=48 velocity=0 time=0@note_on channel=5 note=48 velocity=0 time=0@note_on channel=3 note=43 velocity=80 time=0.00067204375@note_on channel=4 note=43 velocity=80 time=0@note_on channel=5 note=43 velocity=80 time=0@note_on channel=3 note=43 velocity=0 time=0.16061845625@note_on channel=2 note=55 velocity=80 time=0.00067204375@note_on channel=2 note=55 velocity=0 time=0.16061845625@note_on channel=4 note=43 velocity=0 time=0@note_on channel=5 note=43 velocity=0 time=0@note_on channel=3 note=53 velocity=80 time=0.00067204375@note_on channel=4 note=41 velocity=80 time=0@note_on channel=5 note=41 velocity=80 time=0@note_on channel=3 note=53 velocity=0 time=0.16061845625@note_on channel=2 note=60 velocity=80 time=0.00067204375@note_on channel=2 note=60 velocity=0 time=0.16061845625@note_on channel=4 note=41 velocity=0 time=0@note_on channel=5 note=41 velocity=0 time=0@note_on channel=3 note=48 velocity=80 time=0.00067204375@note_on channel=4 note=41 velocity=80 time=0@note_on channel=5 note=41 velocity=80 time=0@note_on channel=3 note=48 velocity=0 time=0.16061845625@note_on channel=2 note=60 velocity=80 time=0.00067204375@note_on channel=2 note=60 velocity=0 time=0.16061845625@note_on channel=4 note=41 velocity=0 time=0@note_on channel=5 note=41 velocity=0 time=0@note_on channel=3 note=53 velocity=80 time=0.00067204375@note_on channel=4 note=44 velocity=80 time=0@note_on channel=5 note=44 velocity=80 time=0@note_on channel=3 note=53 velocity=0 time=0.16061845625@note_on channel=2 note=60 velocity=80 time=0.00067204375@note_on channel=2 note=60 velocity=0 time=0.16061845625@note_on channel=4 note=44 velocity=0 time=0@note_on channel=5 note=44 velocity=0 time=0@note_on channel=3 note=48 velocity=80 time=0.00067204375@note_on channel=4 note=48 velocity=80 time=0@note_on channel=5 note=48 velocity=80 time=0@note_on channel=3 note=48 velocity=0 time=0.16061845625@note_on channel=2 note=60 velocity=80 time=0.00067204375@note_on channel=2 note=60 velocity=0 time=0.16061845625@note_on channel=4 note=48 velocity=0 time=0@note_on channel=5 note=48 velocity=0 time=0@note_on channel=3 note=48 velocity=80 time=0.00067204375@note_on channel=4 note=51 velocity=80 time=0@note_on channel=5 note=51 velocity=80 time=0@note_on channel=3 note=48 velocity=0 time=0.16061845625@note_on channel=2 note=55 velocity=80 time=0.00067204375@note_on channel=2 note=55 velocity=0 time=0.16061845625@note_on channel=4 note=51 velocity=0 time=0@note_on channel=5 note=51 velocity=0 time=0@note_on channel=3 note=43 velocity=80 time=0.00067204375@note_on channel=4 note=53 velocity=80 time=0@note_on channel=5 note=53 velocity=80 time=0@note_on channel=3 note=43 velocity=0 time=0.16061845625@note_on channel=2 note=55 velocity=80 time=0.00067204375@note_on channel=2 note=55 velocity=0 time=0.16061845625@note_on channel=4 note=53 velocity=0 time=0@note_on channel=5 note=53 velocity=0 time=0@note_on channel=3 note=48 velocity=80 time=0.00067204375@note_on channel=4 note=55 velocity=80 time=0@note_on channel=5 note=55 velocity=80 time=0@note_on channel=3 note=48 velocity=0 time=0.16061845625@note_on channel=2 note=55 velocity=80 time=0.00067204375@note_on channel=2 note=55 velocity=0 time=0.16061845625@note_on channel=3 note=43 velocity=80 time=0.00067204375@note_on channel=3 note=43 velocity=0 time=0.16061845625@note_on channel=2 note=55 velocity=80 time=0.00067204375@note_on channel=2 note=55 velocity=0 time=0.16061845625@note_on channel=4 note=55 velocity=0 time=0@note_on channel=5 note=55 velocity=0 time=0@note_on channel=0 note=80 velocity=64 time=0.00067204375@note_on channel=1 note=92 velocity=64 time=0@note_on channel=3 note=44 velocity=80 time=0@note_on channel=3 note=44 velocity=0 time=0.16061845625@note_on channel=2 note=60 velocity=80 time=0.00067204375@note_on channel=2 note=60 velocity=0 time=0.16061845625@note_on channel=3 note=41 velocity=80 time=0.00067204375@note_on channel=0 note=80 velocity=0 time=0.13642488125000002@note_on channel=1 note=92 velocity=0 time=0.024193575000000002@note_on channel=3 note=41 velocity=0 time=0@note_on channel=0 note=79 velocity=64 time=0.00067204375@note_on channel=1 note=91 velocity=64 time=0@note_on channel=2 note=60 velocity=80 time=0@note_on channel=0 note=79 velocity=0 time=0.15255393125@note_on channel=1 note=91 velocity=0 time=0.008064525@note_on channel=2 note=60 velocity=0 time=0@note_on channel=0 note=77 velocity=64 time=0.00067204375@note_on channel=1 note=89 velocity=64 time=0@note_on channel=3 note=44 velocity=80 time=0@note_on channel=3 note=44 velocity=0 time=0.16061845625@note_on channel=2 note=60 velocity=80 time=0.00067204375@note_on channel=0 note=77 velocity=0 time=0.14448940625@note_on channel=1 note=89 velocity=0 time=0.01612905@note_on channel=2 note=60 velocity=0 time=0@note_on channel=0 note=80 velocity=64 time=0.00067204375@note_on channel=1 note=92 velocity=64 time=0@note_on channel=3 note=41 velocity=80 time=0@note_on channel=0 note=80 velocity=0 time=0.15255393125@note_on channel=1 note=92 velocity=0 time=0.008064525@note_on channel=3 note=41 velocity=0 time=0@note_on channel=0 note=82 velocity=64 time=0.00067204375@note_on channel=1 note=94 velocity=64 time=0@note_on channel=2 note=60 velocity=80 time=0@note_on channel=0 note=82 velocity=0 time=0.15255393125@note_on channel=1 note=94 velocity=0 time=0.008064525@note_on channel=2 note=60 velocity=0 time=0@note_on channel=0 note=84 velocity=64 time=0.00067204375@note_on channel=1 note=96 velocity=64 time=0@note_on channel=3 note=39 velocity=80 time=0@note_on channel=3 note=39 velocity=0 time=0.16061845625@note_on channel=2 note=55 velocity=80 time=0.00067204375@note_on channel=0 note=84 velocity=0 time=0.14448940625@note_on channel=1 note=96 velocity=0 time=0.01612905@note_on channel=2 note=55 velocity=0 time=0@note_on channel=0 note=79 velocity=64 time=0.00067204375@note_on channel=1 note=91 velocity=64 time=0@note_on channel=3 note=36 velocity=80 time=0@note_on channel=3 note=36 velocity=0 time=0.16061845625@note_on channel=2 note=55 velocity=80 time=0.00067204375@note_on channel=0 note=79 velocity=0 time=0.14448940625@note_on channel=1 note=91 velocity=0 time=0.01612905@note_on channel=2 note=55 velocity=0 time=0@note_on channel=0 note=75 velocity=64 time=0.00067204375@note_on channel=1 note=87 velocity=64 time=0@note_on channel=3 note=39 velocity=80 time=0@note_on channel=3 note=39 velocity=0 time=0.16061845625@note_on channel=2 note=55 velocity=80 time=0.00067204375@note_on channel=0 note=75 velocity=0 time=0.14448940625@note_on channel=1 note=87 velocity=0 time=0.01612905@note_on channel=2 note=55 velocity=0 time=0@note_on channel=0 note=72 velocity=64 time=0.00067204375@note_on channel=1 note=84 velocity=64 time=0@note_on channel=3 note=36 velocity=80 time=0@note_on channel=3 note=36 velocity=0 time=0.16061845625@note_on channel=2 note=55 velocity=80 time=0.00067204375@note_on channel=0 note=72 velocity=0 time=0.14448940625@note_on channel=1 note=84 velocity=0 time=0.01612905@note_on channel=2 note=55 velocity=0 time=0@note_on channel=0 note=74 velocity=64 time=0.00067204375@note_on channel=1 note=86 velocity=64 time=0@note_on channel=3 note=38 velocity=80 time=0@note_on channel=0 note=74 velocity=0 time=0.15255393125@note_on channel=1 note=86 velocity=0 time=0.008064525@note_on channel=3 note=38 velocity=0 time=0@note_on channel=0 note=74 velocity=64 time=0.00067204375@note_on channel=1 note=86 velocity=64 time=0@note_on channel=2 note=53 velocity=80 time=0@note_on channel=0 note=74 velocity=0 time=0.07594094375@note_on channel=1 note=86 velocity=0 time=0.0040322625@note_on channel=0 note=74 velocity=64 time=0.00067204375@note_on channel=1 note=86 velocity=64 time=0@note_on channel=0 note=74 velocity=0 time=0.07594094375@note_on channel=1 note=86 velocity=0 time=0.0040322625@note_on channel=2 note=53 velocity=0 time=0@note_on channel=0 note=74 velocity=64 time=0.00067204375@note_on channel=1 note=86 velocity=64 time=0@note_on channel=3 note=34 velocity=80 time=0@note_on channel=0 note=74 velocity=0 time=0.15255393125@note_on channel=1 note=86 velocity=0 time=0.008064525@note_on channel=3 note=34 velocity=0 time=0@note_on channel=0 note=77 velocity=64 time=0.00067204375@note_on channel=1 note=89 velocity=64 time=0@note_on channel=2 note=53 velocity=80 time=0@note_on channel=0 note=77 velocity=0 time=0.15255393125@note_on channel=1 note=89 velocity=0 time=0.008064525@note_on channel=2 note=53 velocity=0 time=0@note_on channel=0 note=74 velocity=64 time=0.00067204375@note_on channel=1 note=86 velocity=64 time=0@note_on channel=3 note=38 velocity=80 time=0@note_on channel=0 note=74 velocity=0 time=0.15255393125@note_on channel=1 note=86 velocity=0 time=0.008064525@note_on channel=3 note=38 velocity=0 time=0@note_on channel=0 note=70 velocity=64 time=0.00067204375@note_on channel=1 note=82 velocity=64 time=0@note_on channel=2 note=53 velocity=80 time=0@note_on channel=0 note=70 velocity=0 time=0.15255393125@note_on channel=1 note=82 velocity=0 time=0.008064525@note_on channel=2 note=53 velocity=0 time=0@note_on channel=0 note=67 velocity=64 time=0.00067204375@note_on channel=1 note=79 velocity=64 time=0@note_on channel=3 note=34 velocity=80 time=0@note_on channel=0 note=67 velocity=0 time=0.15255393125@note_on channel=1 note=79 velocity=0 time=0.008064525@note_on channel=3 note=34 velocity=0 time=0@note_on channel=0 note=70 velocity=64 time=0.00067204375@note_on channel=1 note=82 velocity=64 time=0@note_on channel=2 note=53 velocity=80 time=0@note_on channel=0 note=70 velocity=0 time=0.15255393125@note_on channel=1 note=82 velocity=0 time=0.008064525@note_on channel=2 note=53 velocity=0 time=0@note_on channel=0 note=72 velocity=64 time=0.00067204375@note_on channel=1 note=72 velocity=64 time=0@note_on channel=3 note=39 velocity=80 time=0@note_on channel=3 note=39 velocity=0 time=0.16061845625@note_on channel=2 note=55 velocity=80 time=0.00067204375@note_on channel=2 note=55 velocity=0 time=0.16061845625@note_on channel=3 note=36 velocity=80 time=0.00067204375@note_on channel=3 note=36 velocity=0 time=0.16061845625@note_on channel=2 note=55 velocity=80 time=0.00067204375@note_on channel=0 note=72 velocity=0 time=0.12836035625@note_on channel=1 note=72 velocity=0 time=0.0322581@note_on channel=2 note=55 velocity=0 time=0@note_on channel=2 note=51 velocity=80 time=0.00067204375@note_on channel=3 note=39 velocity=80 time=0@note_on channel=4 note=46 velocity=80 time=0.322581@note_on channel=2 note=51 velocity=0 time=0.32190895625@note_on channel=3 note=39 velocity=0 time=0@note_on channel=4 note=46 velocity=0 time=0@note_on channel=3 note=48 velocity=80 time=0.00067204375@note_on channel=4 note=51 velocity=96 time=0@note_on channel=3 note=48 velocity=0 time=0.16061845625@note_on channel=4 note=51 velocity=0 time=0@note_on channel=2 note=55 velocity=80 time=0.00067204375@note_on channel=4 note=51 velocity=96 time=0@note_on channel=4 note=51 velocity=0 time=0.07997320625@note_on channel=4 note=51 velocity=96 time=0.00067204375@note_on channel=2 note=55 velocity=0 time=0.07997320625@note_on channel=4 note=51 velocity=0 time=0@note_on channel=3 note=43 velocity=80 time=0.00067204375@note_on channel=4 note=51 velocity=96 time=0@note_on channel=3 note=43 velocity=0 time=0.16061845625@note_on channel=4 note=51 velocity=0 time=0@note_on channel=2 note=55 velocity=80 time=0.00067204375@note_on channel=4 note=53 velocity=96 time=0@note_on channel=2 note=55 velocity=0 time=0.16061845625@note_on channel=4 note=53 velocity=0 time=0@note_on channel=3 note=48 velocity=80 time=0.00067204375@note_on channel=4 note=55 velocity=96 time=0@note_on channel=3 note=48 velocity=0 time=0.16061845625@note_on channel=4 note=55 velocity=0 time=0@note_on channel=2 note=55 velocity=80 time=0.00067204375@note_on channel=4 note=55 velocity=96 time=0@note_on channel=4 note=55 velocity=0 time=0.07997320625@note_on channel=4 note=55 velocity=96 time=0.00067204375@note_on channel=2 note=55 velocity=0 time=0.07997320625@note_on channel=4 note=55 velocity=0 time=0@note_on channel=3 note=43 velocity=80 time=0.00067204375@note_on channel=4 note=53 velocity=96 time=0@note_on channel=3 note=43 velocity=0 time=0.16061845625@note_on channel=4 note=53 velocity=0 time=0@note_on channel=2 note=55 velocity=80 time=0.00067204375@note_on channel=4 note=51 velocity=96 time=0@note_on channel=2 note=55 velocity=0 time=0.16061845625@note_on channel=4 note=51 velocity=0 time=0@note_on channel=3 note=46 velocity=80 time=0.00067204375@note_on channel=4 note=50 velocity=96 time=0@note_on channel=3 note=46 velocity=0 time=0.16061845625@note_on channel=4 note=50 velocity=0 time=0@note_on channel=2 note=53 velocity=80 time=0.00067204375@note_on channel=4 note=50 velocity=96 time=0@note_on channel=4 note=50 velocity=0 time=0.07997320625@note_on channel=4 note=50 velocity=96 time=0.00067204375@note_on channel=2 note=53 velocity=0 time=0.07997320625@note_on channel=4 note=50 velocity=0 time=0@note_on channel=3 note=41 velocity=80 time=0.00067204375@note_on channel=4 note=50 velocity=96 time=0@note_on channel=3 note=41 velocity=0 time=0.16061845625@note_on channel=4 note=50 velocity=0 time=0@note_on channel=2 note=53 velocity=80 time=0.00067204375@note_on channel=4 note=51 velocity=96 time=0@note_on channel=2 note=53 velocity=0 time=0.16061845625@note_on channel=4 note=51 velocity=0 time=0@note_on channel=3 note=46 velocity=80 time=0.00067204375@note_on channel=4 note=50 velocity=96 time=0@note_on channel=3 note=46 velocity=0 time=0.16061845625@note_on channel=2 note=53 velocity=80 time=0.00067204375@note_on channel=2 note=53 velocity=0 time=0.16061845625@note_on channel=4 note=50 velocity=0 time=0@note_on channel=3 note=41 velocity=80 time=0.00067204375@note_on channel=3 note=41 velocity=0 time=0.16061845625@note_on channel=2 note=53 velocity=80 time=0.00067204375@note_on channel=4 note=51 velocity=96 time=0@note_on channel=4 note=51 velocity=0 time=0.07997320625@note_on channel=4 note=50 velocity=96 time=0.00067204375@note_on channel=2 note=53 velocity=0 time=0.07997320625@note_on channel=4 note=50 velocity=0 time=0@note_on channel=3 note=44 velocity=80 time=0.00067204375@note_on channel=4 note=48 velocity=96 time=0@note_on channel=3 note=44 velocity=0 time=0.16061845625@note_on channel=4 note=48 velocity=0 time=0@note_on channel=2 note=51 velocity=80 time=0.00067204375@note_on channel=4 note=48 velocity=96 time=0@note_on channel=4 note=48 velocity=0 time=0.07997320625@note_on channel=4 note=48 velocity=96 time=0.00067204375@note_on channel=2 note=51 velocity=0 time=0.07997320625@note_on channel=4 note=48 velocity=0 time=0@note_on channel=3 note=39 velocity=80 time=0.00067204375@note_on channel=4 note=48 velocity=96 time=0@note_on channel=3 note=39 velocity=0 time=0.16061845625@note_on channel=4 note=48 velocity=0 time=0@note_on channel=2 note=51 velocity=80 time=0.00067204375@note_on channel=4 note=50 velocity=96 time=0@note_on channel=2 note=51 velocity=0 time=0.16061845625@note_on channel=4 note=50 velocity=0 time=0@note_on channel=3 note=44 velocity=80 time=0.00067204375@note_on channel=4 note=51 velocity=96 time=0@note_on channel=3 note=44 velocity=0 time=0.16061845625@note_on channel=4 note=51 velocity=0 time=0@note_on channel=2 note=51 velocity=80 time=0.00067204375@note_on channel=4 note=51 velocity=96 time=0@note_on channel=4 note=51 velocity=0 time=0.07997320625@note_on channel=4 note=51 velocity=96 time=0.00067204375@note_on channel=2 note=51 velocity=0 time=0.07997320625@note_on channel=4 note=51 velocity=0 time=0@note_on channel=3 note=39 velocity=80 time=0.00067204375@note_on channel=4 note=50 velocity=96 time=0@note_on channel=3 note=39 velocity=0 time=0.16061845625@note_on channel=4 note=50 velocity=0 time=0@note_on channel=2 note=51 velocity=80 time=0.00067204375@note_on channel=4 note=48 velocity=96 time=0@note_on channel=2 note=51 velocity=0 time=0.16061845625@note_on channel=4 note=48 velocity=0 time=0@note_on channel=3 note=43 velocity=80 time=0.00067204375@note_on channel=4 note=46 velocity=96 time=0@note_on channel=3 note=43 velocity=0 time=0.16061845625@note_on channel=4 note=46 velocity=0 time=0@note_on channel=2 note=50 velocity=80 time=0.00067204375@note_on channel=4 note=46 velocity=96 time=0@note_on channel=4 note=46 velocity=0 time=0.07997320625@note_on channel=4 note=46 velocity=96 time=0.00067204375@note_on channel=2 note=50 velocity=0 time=0.07997320625@note_on channel=4 note=46 velocity=0 time=0@note_on channel=3 note=38 velocity=80 time=0.00067204375@note_on channel=4 note=46 velocity=96 time=0@note_on channel=3 note=38 velocity=0 time=0.16061845625@note_on channel=4 note=46 velocity=0 time=0@note_on channel=2 note=50 velocity=80 time=0.00067204375@note_on channel=4 note=48 velocity=96 time=0@note_on channel=2 note=50 velocity=0 time=0.16061845625@note_on channel=4 note=48 velocity=0 time=0@note_on channel=3 note=43 velocity=80 time=0.00067204375@note_on channel=4 note=50 velocity=96 time=0@note_on channel=3 note=43 velocity=0 time=0.16061845625@note_on channel=2 note=50 velocity=80 time=0.00067204375@note_on channel=2 note=50 velocity=0 time=0.16061845625@note_on channel=4 note=50 velocity=0 time=0@note_on channel=3 note=38 velocity=80 time=0.00067204375@note_on channel=3 note=38 velocity=0 time=0.16061845625@note_on channel=2 note=50 velocity=80 time=0.00067204375@note_on channel=4 note=48 velocity=96 time=0@note_on channel=4 note=48 velocity=0 time=0.07997320625@note_on channel=4 note=46 velocity=96 time=0.00067204375@note_on channel=2 note=50 velocity=0 time=0.07997320625@note_on channel=4 note=46 velocity=0 time=0@note_on channel=3 note=41 velocity=80 time=0.00067204375@note_on channel=4 note=44 velocity=96 time=0@note_on channel=3 note=41 velocity=0 time=0.16061845625@note_on channel=4 note=44 velocity=0 time=0@note_on channel=2 note=48 velocity=80 time=0.00067204375@note_on channel=4 note=44 velocity=96 time=0@note_on channel=4 note=44 velocity=0 time=0.07997320625@note_on channel=4 note=44 velocity=96 time=0.00067204375@note_on channel=2 note=48 velocity=0 time=0.07997320625@note_on channel=4 note=44 velocity=0 time=0@note_on channel=3 note=36 velocity=80 time=0.00067204375@note_on channel=4 note=44 velocity=96 time=0@note_on channel=3 note=36 velocity=0 time=0.16061845625@note_on channel=4 note=44 velocity=0 time=0@note_on channel=2 note=48 velocity=80 time=0.00067204375@note_on channel=4 note=46 velocity=96 time=0@note_on channel=2 note=48 velocity=0 time=0.16061845625@note_on channel=4 note=46 velocity=0 time=0@note_on channel=3 note=41 velocity=80 time=0.00067204375@note_on channel=4 note=48 velocity=96 time=0@note_on channel=3 note=41 velocity=0 time=0.16061845625@note_on channel=4 note=48 velocity=0 time=0@note_on channel=2 note=48 velocity=80 time=0.00067204375@note_on channel=4 note=48 velocity=96 time=0@note_on channel=4 note=48 velocity=0 time=0.07997320625@note_on channel=4 note=48 velocity=96 time=0.00067204375@note_on channel=2 note=48 velocity=0 time=0.07997320625@note_on channel=4 note=48 velocity=0 time=0@note_on channel=3 note=36 velocity=80 time=0.00067204375@note_on channel=4 note=46 velocity=96 time=0@note_on channel=3 note=36 velocity=0 time=0.16061845625@note_on channel=4 note=46 velocity=0 time=0@note_on channel=2 note=48 velocity=80 time=0.00067204375@note_on channel=4 note=44 velocity=96 time=0@note_on channel=2 note=48 velocity=0 time=0.16061845625@note_on channel=4 note=44 velocity=0 time=0@note_on channel=3 note=39 velocity=80 time=0.00067204375@note_on channel=4 note=43 velocity=96 time=0@note_on channel=3 note=39 velocity=0 time=0.16061845625@note_on channel=4 note=43 velocity=0 time=0@note_on channel=2 note=46 velocity=80 time=0.00067204375@note_on channel=4 note=43 velocity=96 time=0@note_on channel=4 note=43 velocity=0 time=0.07997320625@note_on channel=4 note=43 velocity=96 time=0.00067204375@note_on channel=2 note=46 velocity=0 time=0.07997320625@note_on channel=4 note=43 velocity=0 time=0@note_on channel=3 note=34 velocity=80 time=0.00067204375@note_on channel=4 note=51 velocity=96 time=0@note_on channel=3 note=34 velocity=0 time=0.16061845625@note_on channel=4 note=51 velocity=0 time=0@note_on channel=2 note=46 velocity=80 time=0.00067204375@note_on channel=4 note=53 velocity=96 time=0@note_on channel=2 note=46 velocity=0 time=0.16061845625@note_on channel=4 note=53 velocity=0 time=0@note_on channel=3 note=39 velocity=80 time=0.00067204375@note_on channel=4 note=51 velocity=96 time=0@note_on channel=3 note=39 velocity=0 time=0.16061845625@note_on channel=2 note=46 velocity=80 time=0.00067204375@note_on channel=2 note=46 velocity=0 time=0.16061845625@note_on channel=4 note=51 velocity=0 time=0@note_on channel=3 note=34 velocity=80 time=0.00067204375@note_on channel=4 note=46 velocity=96 time=0@note_on channel=3 note=34 velocity=0 time=0.16061845625@note_on channel=2 note=46 velocity=80 time=0.00067204375@note_on channel=2 note=46 velocity=0 time=0.16061845625@note_on channel=4 note=46 velocity=0 time=0@note_on channel=3 note=44 velocity=80 time=0.00067204375@note_on channel=4 note=51 velocity=96 time=0@note_on channel=3 note=44 velocity=0 time=0.16061845625@note_on channel=4 note=51 velocity=0 time=0@note_on channel=2 note=51 velocity=80 time=0.00067204375@note_on channel=4 note=51 velocity=96 time=0@note_on channel=4 note=51 velocity=0 time=0.07997320625@note_on channel=4 note=51 velocity=96 time=0.00067204375@note_on channel=2 note=51 velocity=0 time=0.07997320625@note_on channel=4 note=51 velocity=0 time=0@note_on channel=3 note=39 velocity=80 time=0.00067204375@note_on channel=4 note=51 velocity=96 time=0@note_on channel=3 note=39 velocity=0 time=0.16061845625@note_on channel=4 note=51 velocity=0 time=0@note_on channel=2 note=51 velocity=80 time=0.00067204375@note_on channel=4 note=53 velocity=96 time=0@note_on channel=2 note=51 velocity=0 time=0.16061845625@note_on channel=4 note=53 velocity=0 time=0@note_on channel=3 note=44 velocity=80 time=0.00067204375@note_on channel=4 note=54 velocity=96 time=0@note_on channel=3 note=44 velocity=0 time=0.16061845625@note_on channel=4 note=54 velocity=0 time=0@note_on channel=2 note=51 velocity=80 time=0.00067204375@note_on channel=4 note=54 velocity=96 time=0@note_on channel=4 note=54 velocity=0 time=0.07997320625@note_on channel=4 note=54 velocity=96 time=0.00067204375@note_on channel=2 note=51 velocity=0 time=0.07997320625@note_on channel=4 note=54 velocity=0 time=0@note_on channel=3 note=39 velocity=80 time=0.00067204375@note_on channel=4 note=56 velocity=96 time=0@note_on channel=3 note=39 velocity=0 time=0.16061845625@note_on channel=4 note=56 velocity=0 time=0@note_on channel=2 note=51 velocity=80 time=0.00067204375@note_on channel=4 note=54 velocity=96 time=0@note_on channel=2 note=51 velocity=0 time=0.16061845625@note_on channel=4 note=54 velocity=0 time=0@note_on channel=3 note=46 velocity=80 time=0.00067204375@note_on channel=4 note=53 velocity=96 time=0@note_on channel=3 note=46 velocity=0 time=0.16061845625@note_on channel=4 note=53 velocity=0 time=0@note_on channel=2 note=53 velocity=80 time=0.00067204375@note_on channel=4 note=53 velocity=96 time=0@note_on channel=4 note=53 velocity=0 time=0.07997320625@note_on channel=4 note=53 velocity=96 time=0.00067204375@note_on channel=2 note=53 velocity=0 time=0.07997320625@note_on channel=4 note=53 velocity=0 time=0@note_on channel=3 note=41 velocity=80 time=0.00067204375@note_on channel=4 note=53 velocity=96 time=0@note_on channel=3 note=41 velocity=0 time=0.16061845625@note_on channel=4 note=53 velocity=0 time=0@note_on channel=2 note=53 velocity=80 time=0.00067204375@note_on channel=4 note=54 velocity=96 time=0@note_on channel=2 note=53 velocity=0 time=0.16061845625@note_on channel=4 note=54 velocity=0 time=0@note_on channel=3 note=46 velocity=80 time=0.00067204375@note_on channel=4 note=53 velocity=96 time=0@note_on channel=3 note=46 velocity=0 time=0.16061845625@note_on channel=2 note=53 velocity=80 time=0.00067204375@note_on channel=2 note=53 velocity=0 time=0.16061845625@note_on channel=4 note=53 velocity=0 time=0@note_on channel=3 note=41 velocity=80 time=0.00067204375@note_on channel=3 note=41 velocity=0 time=0.16061845625@note_on channel=1 note=91 velocity=112 time=0.00067204375@note_on channel=2 note=53 velocity=80 time=0@note_on channel=1 note=91 velocity=0 time=0.07997320625@note_on channel=1 note=89 velocity=112 time=0.00067204375@note_on channel=1 note=89 velocity=0 time=0.07997320625@note_on channel=2 note=53 velocity=0 time=0@note_on channel=1 note=87 velocity=112 time=0.00067204375@note_on channel=3 note=48 velocity=80 time=0@note_on channel=1 note=87 velocity=0 time=0.16061845625@note_on channel=3 note=48 velocity=0 time=0@note_on channel=1 note=87 velocity=112 time=0.00067204375@note_on channel=2 note=55 velocity=80 time=0@note_on channel=1 note=87 velocity=0 time=0.07997320625@note_on channel=1 note=87 velocity=112 time=0.00067204375@note_on channel=1 note=87 velocity=0 time=0.07997320625@note_on channel=2 note=55 velocity=0 time=0@note_on channel=1 note=87 velocity=112 time=0.00067204375@note_on channel=3 note=43 velocity=80 time=0@note_on channel=1 note=87 velocity=0 time=0.16061845625@note_on channel=3 note=43 velocity=0 time=0@note_on channel=1 note=89 velocity=112 time=0.00067204375@note_on channel=2 note=55 velocity=80 time=0@note_on channel=1 note=89 velocity=0 time=0.16061845625@note_on channel=2 note=55 velocity=0 time=0@note_on channel=1 note=91 velocity=112 time=0.00067204375@note_on channel=3 note=48 velocity=80 time=0@note_on channel=1 note=91 velocity=0 time=0.16061845625@note_on channel=3 note=48 velocity=0 time=0@note_on channel=1 note=91 velocity=112 time=0.00067204375@note_on channel=2 note=55 velocity=80 time=0@note_on channel=1 note=91 velocity=0 time=0.07997320625@note_on channel=1 note=91 velocity=112 time=0.00067204375@note_on channel=1 note=91 velocity=0 time=0.07997320625@note_on channel=2 note=55 velocity=0 time=0@note_on channel=1 note=89 velocity=112 time=0.00067204375@note_on channel=3 note=43 velocity=80 time=0@note_on channel=1 note=89 velocity=0 time=0.16061845625@note_on channel=3 note=43 velocity=0 time=0@note_on channel=1 note=87 velocity=112 time=0.00067204375@note_on channel=2 note=55 velocity=80 time=0@note_on channel=1 note=87 velocity=0 time=0.16061845625@note_on channel=2 note=55 velocity=0 time=0@note_on channel=1 note=86 velocity=112 time=0.00067204375@note_on channel=3 note=46 velocity=80 time=0@note_on channel=1 note=86 velocity=0 time=0.16061845625@note_on channel=3 note=46 velocity=0 time=0@note_on channel=1 note=86 velocity=112 time=0.00067204375@note_on channel=2 note=53 velocity=80 time=0@note_on channel=1 note=86 velocity=0 time=0.07997320625@note_on channel=1 note=86 velocity=112 time=0.00067204375@note_on channel=1 note=86 velocity=0 time=0.07997320625@note_on channel=2 note=53 velocity=0 time=0@note_on channel=1 note=86 velocity=112 time=0.00067204375@note_on channel=3 note=41 velocity=80 time=0@note_on channel=1 note=86 velocity=0 time=0.16061845625@note_on channel=3 note=41 velocity=0 time=0@note_on channel=1 note=87 velocity=112 time=0.00067204375@note_on channel=2 note=53 velocity=80 time=0@note_on channel=1 note=87 velocity=0 time=0.16061845625@note_on channel=2 note=53 velocity=0 time=0@note_on channel=1 note=86 velocity=112 time=0.00067204375@note_on channel=3 note=46 velocity=80 time=0@note_on channel=3 note=46 velocity=0 time=0.16061845625@note_on channel=2 note=53 velocity=80 time=0.00067204375@note_on channel=1 note=86 velocity=0 time=0.16061845625@note_on channel=2 note=53 velocity=0 time=0@note_on channel=3 note=41 velocity=80 time=0.00067204375@note_on channel=3 note=41 velocity=0 time=0.16061845625@note_on channel=1 note=87 velocity=112 time=0.00067204375@note_on channel=2 note=53 velocity=80 time=0@note_on channel=1 note=87 velocity=0 time=0.07997320625@note_on channel=1 note=86 velocity=112 time=0.00067204375@note_on channel=1 note=86 velocity=0 time=0.07997320625@note_on channel=2 note=53 velocity=0 time=0@note_on channel=1 note=84 velocity=112 time=0.00067204375@note_on channel=3 note=44 velocity=80 time=0@note_on channel=1 note=84 velocity=0 time=0.16061845625@note_on channel=3 note=44 velocity=0 time=0@note_on channel=1 note=84 velocity=112 time=0.00067204375@note_on channel=2 note=51 velocity=80 time=0@note_on channel=1 note=84 velocity=0 time=0.07997320625@note_on channel=1 note=84 velocity=112 time=0.00067204375@note_on channel=1 note=84 velocity=0 time=0.07997320625@note_on channel=2 note=51 velocity=0 time=0@note_on channel=1 note=84 velocity=112 time=0.00067204375@note_on channel=3 note=39 velocity=80 time=0@note_on channel=1 note=84 velocity=0 time=0.16061845625@note_on channel=3 note=39 velocity=0 time=0@note_on channel=1 note=86 velocity=112 time=0.00067204375@note_on channel=2 note=51 velocity=80 time=0@note_on channel=1 note=86 velocity=0 time=0.16061845625@note_on channel=2 note=51 velocity=0 time=0@note_on channel=1 note=87 velocity=112 time=0.00067204375@note_on channel=3 note=44 velocity=80 time=0@note_on channel=1 note=87 velocity=0 time=0.16061845625@note_on channel=3 note=44 velocity=0 time=0@note_on channel=1 note=87 velocity=112 time=0.00067204375@note_on channel=2 note=51 velocity=80 time=0@note_on channel=1 note=87 velocity=0 time=0.07997320625@note_on channel=1 note=87 velocity=112 time=0.00067204375@note_on channel=1 note=87 velocity=0 time=0.07997320625@note_on channel=2 note=51 velocity=0 time=0@note_on channel=1 note=86 velocity=112 time=0.00067204375@note_on channel=3 note=39 velocity=80 time=0@note_on channel=1 note=86 velocity=0 time=0.16061845625@note_on channel=3 note=39 velocity=0 time=0@note_on channel=1 note=84 velocity=112 time=0.00067204375@note_on channel=2 note=51 velocity=80 time=0@note_on channel=1 note=84 velocity=0 time=0.16061845625@note_on channel=2 note=51 velocity=0 time=0@note_on channel=1 note=82 velocity=112 time=0.00067204375@note_on channel=3 note=43 velocity=80 time=0@note_on channel=1 note=82 velocity=0 time=0.16061845625@note_on channel=3 note=43 velocity=0 time=0@note_on channel=1 note=82 velocity=112 time=0.00067204375@note_on channel=2 note=50 velocity=80 time=0@note_on channel=1 note=82 velocity=0 time=0.07997320625@note_on channel=1 note=82 velocity=112 time=0.00067204375@note_on channel=1 note=82 velocity=0 time=0.07997320625@note_on channel=2 note=50 velocity=0 time=0@note_on channel=1 note=82 velocity=112 time=0.00067204375@note_on channel=3 note=38 velocity=80 time=0@note_on channel=1 note=82 velocity=0 time=0.16061845625@note_on channel=3 note=38 velocity=0 time=0@note_on channel=1 note=84 velocity=112 time=0.00067204375@note_on channel=2 note=50 velocity=80 time=0@note_on channel=1 note=84 velocity=0 time=0.16061845625@note_on channel=2 note=50 velocity=0 time=0@note_on channel=1 note=86 velocity=112 time=0.00067204375@note_on channel=3 note=43 velocity=80 time=0@note_on channel=3 note=43 velocity=0 time=0.16061845625@note_on channel=2 note=50 velocity=80 time=0.00067204375@note_on channel=1 note=86 velocity=0 time=0.16061845625@note_on channel=2 note=50 velocity=0 time=0@note_on channel=3 note=38 velocity=80 time=0.00067204375@note_on channel=3 note=38 velocity=0 time=0.16061845625@note_on channel=1 note=84 velocity=112 time=0.00067204375@note_on channel=2 note=50 velocity=80 time=0@note_on channel=1 note=84 velocity=0 time=0.07997320625@note_on channel=1 note=82 velocity=112 time=0.00067204375@note_on channel=1 note=82 velocity=0 time=0.07997320625@note_on channel=2 note=50 velocity=0 time=0@note_on channel=1 note=80 velocity=112 time=0.00067204375@note_on channel=3 note=41 velocity=80 time=0@note_on channel=1 note=80 velocity=0 time=0.16061845625@note_on channel=3 note=41 velocity=0 time=0@note_on channel=1 note=80 velocity=113 time=0.00067204375@note_on channel=2 note=48 velocity=80 time=0@note_on channel=1 note=80 velocity=0 time=0.07997320625@note_on channel=1 note=80 velocity=114 time=0.00067204375@note_on channel=1 note=80 velocity=0 time=0.07997320625@note_on channel=2 note=48 velocity=0 time=0@note_on channel=1 note=80 velocity=115 time=0.00067204375@note_on channel=3 note=36 velocity=80 time=0@note_on channel=1 note=80 velocity=0 time=0.16061845625@note_on channel=3 note=36 velocity=0 time=0@note_on channel=1 note=82 velocity=117 time=0.00067204375@note_on channel=2 note=48 velocity=80 time=0@note_on channel=1 note=82 velocity=0 time=0.16061845625@note_on channel=2 note=48 velocity=0 time=0@note_on channel=1 note=84 velocity=119 time=0.00067204375@note_on channel=3 note=41 velocity=80 time=0@note_on channel=1 note=84 velocity=0 time=0.16061845625@note_on channel=3 note=41 velocity=0 time=0@note_on channel=1 note=84 velocity=120 time=0.00067204375@note_on channel=2 note=48 velocity=80 time=0@note_on channel=1 note=84 velocity=0 time=0.07997320625@note_on channel=1 note=84 velocity=121 time=0.00067204375@note_on channel=1 note=84 velocity=0 time=0.07997320625@note_on channel=2 note=48 velocity=0 time=0@note_on channel=1 note=86 velocity=122 time=0.00067204375@note_on channel=3 note=36 velocity=80 time=0@note_on channel=1 note=86 velocity=0 time=0.16061845625@note_on channel=3 note=36 velocity=0 time=0@note_on channel=1 note=86 velocity=124 time=0.00067204375@note_on channel=2 note=48 velocity=80 time=0@note_on channel=1 note=86 velocity=0 time=0.16061845625@note_on channel=2 note=48 velocity=0 time=0@note_on channel=1 note=91 velocity=126 time=0.00067204375@note_on channel=3 note=39 velocity=80 time=0@note_on channel=1 note=91 velocity=0 time=0.16061845625@note_on channel=3 note=39 velocity=0 time=0@note_on channel=1 note=91 velocity=126 time=0.00067204375@note_on channel=2 note=46 velocity=80 time=0@note_on channel=1 note=91 velocity=0 time=0.07997320625@note_on channel=1 note=91 velocity=126 time=0.00067204375@note_on channel=1 note=91 velocity=0 time=0.07997320625@note_on channel=2 note=46 velocity=0 time=0@note_on channel=1 note=91 velocity=126 time=0.00067204375@note_on channel=3 note=34 velocity=80 time=0@note_on channel=1 note=91 velocity=0 time=0.16061845625@note_on channel=3 note=34 velocity=0 time=0@note_on channel=1 note=94 velocity=126 time=0.00067204375@note_on channel=2 note=46 velocity=80 time=0@note_on channel=1 note=94 velocity=0 time=0.16061845625@note_on channel=2 note=46 velocity=0 time=0@note_on channel=1 note=91 velocity=126 time=0.00067204375@note_on channel=3 note=39 velocity=80 time=0@note_on channel=1 note=91 velocity=0 time=0.16061845625@note_on channel=3 note=39 velocity=0 time=0@note_on channel=1 note=91 velocity=126 time=0.00067204375@note_on channel=2 note=46 velocity=80 time=0@note_on channel=1 note=91 velocity=0 time=0.16061845625@note_on channel=2 note=46 velocity=0 time=0@note_on channel=1 note=89 velocity=126 time=0.00067204375@note_on channel=3 note=34 velocity=80 time=0@note_on channel=1 note=89 velocity=0 time=0.16061845625@note_on channel=3 note=34 velocity=0 time=0@note_on channel=1 note=87 velocity=126 time=0.00067204375@note_on channel=2 note=46 velocity=80 time=0@note_on channel=1 note=87 velocity=0 time=0.16061845625@note_on channel=2 note=46 velocity=0 time=0@note_on channel=1 note=74 velocity=126 time=0.00067204375@note_on channel=2 note=50 velocity=80 time=0@note_on channel=3 note=38 velocity=80 time=0@note_on channel=1 note=74 velocity=0 time=0.16061845625@note_on channel=2 note=50 velocity=0 time=0@note_on channel=3 note=38 velocity=0 time=0@note_on channel=1 note=77 velocity=126 time=0.00067204375@note_on channel=2 note=53 velocity=80 time=0@note_on channel=3 note=41 velocity=80 time=0@note_on channel=1 note=77 velocity=0 time=0.16061845625@note_on channel=2 note=53 velocity=0 time=0@note_on channel=3 note=41 velocity=0 time=0@note_on channel=1 note=79 velocity=126 time=0.00067204375@note_on channel=2 note=55 velocity=80 time=0@note_on channel=3 note=43 velocity=80 time=0@note_on channel=1 note=79 velocity=0 time=0.16061845625@note_on channel=2 note=55 velocity=0 time=0@note_on channel=3 note=43 velocity=0 time=0@note_on channel=1 note=74 velocity=126 time=0.00067204375@note_on channel=2 note=50 velocity=80 time=0@note_on channel=3 note=38 velocity=80 time=0@note_on channel=1 note=74 velocity=0 time=0.16061845625@note_on channel=2 note=50 velocity=0 time=0@note_on channel=3 note=38 velocity=0 time=0@note_on channel=1 note=77 velocity=126 time=0.00067204375@note_on channel=2 note=53 velocity=80 time=0@note_on channel=3 note=41 velocity=80 time=0@note_on channel=1 note=77 velocity=0 time=0.16061845625@note_on channel=2 note=53 velocity=0 time=0@note_on channel=3 note=41 velocity=0 time=0@note_on channel=1 note=79 velocity=126 time=0.00067204375@note_on channel=2 note=55 velocity=80 time=0@note_on channel=3 note=43 velocity=80 time=0@note_on channel=1 note=79 velocity=0 time=0.16061845625@note_on channel=2 note=55 velocity=0 time=0@note_on channel=3 note=43 velocity=0 time=0@note_on channel=1 note=74 velocity=126 time=0.00067204375@note_on channel=2 note=50 velocity=80 time=0@note_on channel=3 note=38 velocity=80 time=0@note_on channel=1 note=74 velocity=0 time=0.16061845625@note_on channel=2 note=50 velocity=0 time=0@note_on channel=3 note=38 velocity=0 time=0@note_on channel=1 note=77 velocity=126 time=0.00067204375@note_on channel=2 note=53 velocity=80 time=0@note_on channel=3 note=41 velocity=80 time=0@note_on channel=1 note=77 velocity=0 time=0.16061845625@note_on channel=2 note=53 velocity=0 time=0@note_on channel=3 note=41 velocity=0 time=0@note_on channel=1 note=74 velocity=126 time=0.00067204375@note_on channel=2 note=50 velocity=80 time=0@note_on channel=3 note=38 velocity=80 time=0@note_on channel=1 note=74 velocity=0 time=0.16061845625@note_on channel=2 note=50 velocity=0 time=0@note_on channel=3 note=38 velocity=0 time=0@note_on channel=1 note=77 velocity=126 time=0.00067204375@note_on channel=2 note=53 velocity=80 time=0@note_on channel=3 note=41 velocity=80 time=0@note_on channel=1 note=77 velocity=0 time=0.16061845625@note_on channel=2 note=53 velocity=0 time=0@note_on channel=3 note=41 velocity=0 time=0@note_on channel=1 note=79 velocity=126 time=0.00067204375@note_on channel=2 note=55 velocity=80 time=0@note_on channel=3 note=43 velocity=80 time=0@note_on channel=1 note=79 velocity=0 time=0.16061845625@note_on channel=2 note=55 velocity=0 time=0@note_on channel=3 note=43 velocity=0 time=0@note_on channel=1 note=84 velocity=126 time=0.00067204375@note_on channel=2 note=60 velocity=80 time=0@note_on channel=3 note=48 velocity=80 time=0@note_on channel=1 note=84 velocity=0 time=0.16061845625@note_on channel=2 note=60 velocity=0 time=0@note_on channel=3 note=48 velocity=0 time=0@note_on channel=1 note=83 velocity=126 time=0.00067204375@note_on channel=2 note=59 velocity=80 time=0@note_on channel=3 note=47 velocity=80 time=0@note_on channel=1 note=83 velocity=0 time=0.32190895625@note_on channel=2 note=59 velocity=0 time=0@note_on channel=3 note=47 velocity=0 time=0@note_on channel=1 note=86 velocity=126 time=0.00067204375@note_on channel=2 note=55 velocity=80 time=0@note_on channel=3 note=43 velocity=80 time=0@note_on channel=1 note=86 velocity=0 time=0.052419412500000005@note_on channel=1 note=87 velocity=126 time=0.00067204375@note_on channel=1 note=87 velocity=0 time=0.052419412500000005@note_on channel=1 note=89 velocity=126 time=0.0013440875@note_on channel=1 note=89 velocity=0 time=0.052419412500000005@note_on channel=1 note=91 velocity=126 time=0.00201613125@note_on channel=1 note=91 velocity=0 time=0.16061845625@note_on channel=2 note=55 velocity=0 time=0@note_on channel=3 note=43 velocity=0 time=0@<meta message end_of_track time=0.00067204375>@