<meta message time_signature numerator=4 denominator=4 clocks_per_click=24 notated_32nd_notes_per_beat=8 time=0>@<meta message key_signature key='Bb' time=0>@<meta message set_tempo tempo=1200000 time=0>@control_change channel=0 control=121 value=0 time=0@program_change channel=0 program=68 time=0@control_change channel=0 control=7 value=100 time=0@control_change channel=0 control=10 value=64 time=0@control_change channel=0 control=91 value=0 time=0@control_change channel=0 control=93 value=0 time=0@<meta message midi_port port=0 time=0>@note_on channel=0 note=79 velocity=126 time=0@<meta message key_signature key='F' time=0>@control_change channel=1 control=121 value=0 time=0@program_change channel=1 program=69 time=0@control_change channel=1 control=7 value=100 time=0@control_change channel=1 control=10 value=64 time=0@control_change channel=1 control=91 value=0 time=0@control_change channel=1 control=93 value=0 time=0@<meta message midi_port port=0 time=0>@note_on channel=1 note=70 velocity=127 time=0@<meta message key_signature key='Bb' time=0>@control_change channel=2 control=121 value=0 time=0@program_change channel=2 program=68 time=0@control_change channel=2 control=7 value=100 time=0@control_change channel=2 control=10 value=64 time=0@control_change channel=2 control=91 value=0 time=0@control_change channel=2 control=93 value=0 time=0@<meta message midi_port port=0 time=0>@note_on channel=2 note=67 velocity=127 time=0@<meta message key_signature key='Bb' time=0>@control_change channel=3 control=121 value=0 time=0@program_change channel=3 program=70 time=0@control_change channel=3 control=7 value=100 time=0@control_change channel=3 control=10 value=64 time=0@control_change channel=3 control=91 value=0 time=0@control_change channel=3 control=93 value=0 time=0@<meta message midi_port port=0 time=0>@note_on channel=3 note=62 velocity=127 time=0@<meta message key_signature key='Bb' time=0>@control_change channel=4 control=121 value=0 time=0@program_change channel=4 program=70 time=0@control_change channel=4 control=7 value=100 time=0@control_change channel=4 control=10 value=64 time=0@control_change channel=4 control=91 value=0 time=0@control_change channel=4 control=93 value=0 time=0@<meta message midi_port port=0 time=0>@note_on channel=4 note=31 velocity=127 time=0@note_on channel=0 note=79 velocity=0 time=0.0725@note_on channel=0 note=77 velocity=126 time=0.0025@note_on channel=0 note=77 velocity=0 time=0.0725@note_on channel=0 note=79 velocity=126 time=0.0025@note_on channel=0 note=79 velocity=0 time=0.5975@note_on channel=0 note=82 velocity=126 time=0.0025@note_on channel=0 note=82 velocity=0 time=0.1475@note_on channel=0 note=81 velocity=126 time=0.0025@note_on channel=0 note=81 velocity=0 time=0.1475@note_on channel=0 note=79 velocity=126 time=0.0025@note_on channel=0 note=79 velocity=0 time=0.1475@note_on channel=1 note=70 velocity=0 time=0@note_on channel=2 note=67 velocity=0 time=0@note_on channel=3 note=62 velocity=0 time=0@note_on channel=4 note=31 velocity=0 time=0@note_on channel=0 note=78 velocity=126 time=0.0025@note_on channel=0 note=78 velocity=0 time=0.1475@note_on channel=0 note=79 velocity=126 time=0.0025@note_on channel=0 note=79 velocity=0 time=0.1475@note_on channel=0 note=78 velocity=126 time=0.0025@note_on channel=0 note=78 velocity=0 time=0.1475@note_on channel=0 note=79 velocity=126 time=0.0025@note_on channel=0 note=79 velocity=0 time=0.1475@note_on channel=0 note=79 velocity=126 time=0.0025@note_on channel=0 note=79 velocity=0 time=0.0725@note_on channel=0 note=81 velocity=126 time=0.0025@note_on channel=0 note=81 velocity=0 time=0.0725@note_on channel=0 note=79 velocity=126 time=0.0025@note_on channel=0 note=79 velocity=0 time=0.0725@note_on channel=0 note=81 velocity=126 time=0.0025@note_on channel=0 note=81 velocity=0 time=0.0725@note_on channel=0 note=79 velocity=126 time=0.0025@note_on channel=0 note=79 velocity=0 time=0.0725@note_on channel=0 note=78 velocity=126 time=0.0025@note_on channel=0 note=78 velocity=0 time=0.0725@note_on channel=0 note=79 velocity=126 time=0.0025@note_on channel=0 note=79 velocity=0 time=0.0725@note_on channel=0 note=81 velocity=126 time=0.0025@note_on channel=0 note=81 velocity=0 time=0.0725@note_on channel=0 note=75 velocity=126 time=0.0025@note_on channel=1 note=69 velocity=127 time=0@note_on channel=2 note=66 velocity=127 time=0@note_on channel=3 note=60 velocity=127 time=0@note_on channel=4 note=31 velocity=127 time=0@note_on channel=0 note=75 velocity=0 time=0.7475@note_on channel=0 note=77 velocity=126 time=0.0025@note_on channel=0 note=77 velocity=0 time=0.1475@note_on channel=0 note=75 velocity=126 time=0.0025@note_on channel=0 note=75 velocity=0 time=0.1475@note_on channel=0 note=74 velocity=126 time=0.0025@note_on channel=0 note=74 velocity=0 time=0.1475@note_on channel=1 note=69 velocity=0 time=0@note_on channel=2 note=66 velocity=0 time=0@note_on channel=3 note=60 velocity=0 time=0@note_on channel=4 note=31 velocity=0 time=0@note_on channel=0 note=72 velocity=126 time=0.0025@note_on channel=0 note=72 velocity=0 time=0.1475@note_on channel=0 note=74 velocity=126 time=0.0025@note_on channel=0 note=74 velocity=0 time=0.1475@note_on channel=0 note=72 velocity=126 time=0.0025@note_on channel=0 note=72 velocity=0 time=0.1475@note_on channel=0 note=74 velocity=126 time=0.0025@note_on channel=0 note=74 velocity=0 time=0.1475@note_on channel=0 note=74 velocity=126 time=0.0025@note_on channel=0 note=74 velocity=0 time=0.0725@note_on channel=0 note=75 velocity=126 time=0.0025@note_on channel=0 note=75 velocity=0 time=0.0725@note_on channel=0 note=74 velocity=126 time=0.0025@note_on channel=0 note=74 velocity=0 time=0.0725@note_on channel=0 note=75 velocity=126 time=0.0025@note_on channel=0 note=75 velocity=0 time=0.0725@note_on channel=0 note=74 velocity=126 time=0.0025@note_on channel=0 note=74 velocity=0 time=0.0725@note_on channel=0 note=72 velocity=126 time=0.0025@note_on channel=0 note=72 velocity=0 time=0.0725@note_on channel=0 note=74 velocity=126 time=0.0025@note_on channel=0 note=74 velocity=0 time=0.0725@note_on channel=0 note=75 velocity=126 time=0.0025@note_on channel=0 note=75 velocity=0 time=0.0725@note_on channel=0 note=71 velocity=126 time=0.0025@note_on channel=1 note=68 velocity=127 time=0@note_on channel=2 note=65 velocity=127 time=0@note_on channel=3 note=62 velocity=127 time=0@note_on channel=4 note=31 velocity=127 time=0@note_on channel=0 note=71 velocity=0 time=0.5975@note_on channel=0 note=67 velocity=126 time=0.0025@note_on channel=0 note=67 velocity=0 time=0.1475@note_on channel=0 note=71 velocity=126 time=0.0025@note_on channel=0 note=71 velocity=0 time=0.1475@note_on channel=0 note=69 velocity=126 time=0.0025@note_on channel=0 note=69 velocity=0 time=0.1475@note_on channel=0 note=67 velocity=126 time=0.0025@note_on channel=0 note=67 velocity=0 time=0.1475@note_on channel=1 note=68 velocity=0 time=0@note_on channel=2 note=65 velocity=0 time=0@note_on channel=3 note=62 velocity=0 time=0@note_on channel=4 note=31 velocity=0 time=0@note_on channel=0 note=74 velocity=126 time=0.0025@note_on channel=0 note=74 velocity=0 time=0.1475@note_on channel=0 note=72 velocity=126 time=0.0025@note_on channel=0 note=72 velocity=0 time=0.1475@note_on channel=0 note=71 velocity=126 time=0.0025@note_on channel=0 note=71 velocity=0 time=0.1475@note_on channel=0 note=77 velocity=126 time=0.0025@note_on channel=0 note=77 velocity=0 time=0.1475@note_on channel=0 note=75 velocity=126 time=0.0025@note_on channel=0 note=75 velocity=0 time=0.1475@note_on channel=0 note=74 velocity=126 time=0.0025@note_on channel=0 note=74 velocity=0 time=0.1475@note_on channel=0 note=80 velocity=126 time=0.0025@note_on channel=0 note=80 velocity=0 time=0.1475@note_on channel=0 note=79 velocity=126 time=0.0025@note_on channel=0 note=79 velocity=0 time=0.1475@note_on channel=0 note=77 velocity=126 time=0.0025@note_on channel=1 note=72 velocity=127 time=0@note_on channel=2 note=67 velocity=127 time=0@note_on channel=3 note=60 velocity=127 time=0@note_on channel=4 note=31 velocity=127 time=0@note_on channel=0 note=77 velocity=0 time=0.5975@note_on channel=0 note=75 velocity=126 time=0.0025@note_on channel=0 note=75 velocity=0 time=0.1475@note_on channel=0 note=74 velocity=126 time=0.0025@note_on channel=0 note=74 velocity=0 time=0.1475@note_on channel=0 note=72 velocity=126 time=0.0025@note_on channel=0 note=72 velocity=0 time=0.1475@note_on channel=0 note=71 velocity=126 time=0.0025@note_on channel=0 note=71 velocity=0 time=0.1475@note_on channel=1 note=72 velocity=0 time=0@note_on channel=2 note=67 velocity=0 time=0@note_on channel=3 note=60 velocity=0 time=0@note_on channel=4 note=31 velocity=0 time=0@note_on channel=0 note=72 velocity=126 time=0.0025@note_on channel=0 note=72 velocity=0 time=0.1475@note_on channel=0 note=67 velocity=126 time=0.0025@note_on channel=0 note=67 velocity=0 time=0.1475@note_on channel=0 note=72 velocity=126 time=0.0025@note_on channel=0 note=72 velocity=0 time=0.1475@note_on channel=0 note=74 velocity=126 time=0.0025@note_on channel=0 note=74 velocity=0 time=0.1475@note_on channel=0 note=75 velocity=126 time=0.0025@note_on channel=0 note=75 velocity=0 time=0.1475@note_on channel=0 note=72 velocity=126 time=0.0025@note_on channel=0 note=72 velocity=0 time=0.1475@note_on channel=0 note=74 velocity=126 time=0.0025@note_on channel=0 note=74 velocity=0 time=0.1475@note_on channel=0 note=75 velocity=126 time=0.0025@note_on channel=0 note=75 velocity=0 time=0.1475@note_on channel=0 note=67 velocity=126 time=0.0025@note_on channel=1 note=63 velocity=127 time=0@note_on channel=2 note=60 velocity=127 time=0@note_on channel=3 note=57 velocity=127 time=0@note_on channel=4 note=31 velocity=127 time=0@note_on channel=0 note=67 velocity=0 time=0.5975@note_on channel=0 note=66 velocity=126 time=0.0025@note_on channel=0 note=66 velocity=0 time=0.1475@note_on channel=0 note=69 velocity=126 time=0.0025@note_on channel=0 note=69 velocity=0 time=0.1475@note_on channel=0 note=72 velocity=126 time=0.0025@note_on channel=0 note=72 velocity=0 time=0.1475@note_on channel=0 note=75 velocity=126 time=0.0025@note_on channel=0 note=75 velocity=0 time=0.1475@note_on channel=1 note=63 velocity=0 time=0@note_on channel=2 note=60 velocity=0 time=0@note_on channel=3 note=57 velocity=0 time=0@note_on channel=4 note=31 velocity=0 time=0@note_on channel=0 note=74 velocity=126 time=0.0025@note_on channel=0 note=74 velocity=0 time=0.1475@note_on channel=0 note=72 velocity=126 time=0.0025@note_on channel=0 note=72 velocity=0 time=0.1475@note_on channel=0 note=84 velocity=126 time=0.0025@note_on channel=0 note=84 velocity=0 time=0.4475@note_on channel=0 note=82 velocity=126 time=0.0025@note_on channel=0 note=82 velocity=0 time=0.1475@note_on channel=0 note=81 velocity=126 time=0.0025@note_on channel=0 note=81 velocity=0 time=0.1475@note_on channel=0 note=79 velocity=126 time=0.0025@note_on channel=0 note=79 velocity=0 time=0.1475@note_on channel=0 note=78 velocity=126 time=0.0025@note_on channel=1 note=63 velocity=127 time=0@note_on channel=2 note=60 velocity=127 time=0@note_on channel=3 note=57 velocity=127 time=0@note_on channel=4 note=31 velocity=127 time=0@note_on channel=0 note=78 velocity=0 time=0.1475@note_on channel=0 note=79 velocity=126 time=0.0025@note_on channel=0 note=79 velocity=0 time=0.1475@note_on channel=0 note=81 velocity=126 time=0.0025@note_on channel=0 note=81 velocity=0 time=0.1475@note_on channel=0 note=72 velocity=126 time=0.0025@note_on channel=0 note=72 velocity=0 time=0.1475@note_on channel=0 note=74 velocity=126 time=0.0025@note_on channel=0 note=74 velocity=0 time=0.1475@note_on channel=0 note=75 velocity=126 time=0.0025@note_on channel=0 note=75 velocity=0 time=0.1475@note_on channel=0 note=69 velocity=126 time=0.0025@note_on channel=0 note=69 velocity=0 time=0.1475@note_on channel=0 note=70 velocity=126 time=0.0025@note_on channel=0 note=70 velocity=0 time=0.1475@note_on channel=1 note=63 velocity=0 time=0@note_on channel=2 note=60 velocity=0 time=0@note_on channel=3 note=57 velocity=0 time=0@note_on channel=4 note=31 velocity=0 time=0@note_on channel=0 note=72 velocity=126 time=0.0025@note_on channel=0 note=72 velocity=0 time=0.1475@note_on channel=0 note=66 velocity=121 time=0.0025@note_on channel=0 note=66 velocity=0 time=0.1475@note_on channel=0 note=67 velocity=115 time=0.0025@note_on channel=0 note=67 velocity=0 time=0.1475@note_on channel=0 note=69 velocity=109 time=0.0025@note_on channel=0 note=69 velocity=0 time=0.1475@note_on channel=0 note=60 velocity=103 time=0.0025@note_on channel=0 note=60 velocity=0 time=0.1475@note_on channel=0 note=63 velocity=98 time=0.0025@note_on channel=0 note=63 velocity=0 time=0.1475@note_on channel=0 note=62 velocity=92 time=0.0025@note_on channel=0 note=62 velocity=0 time=0.1475@note_on channel=0 note=60 velocity=86 time=0.0025@note_on channel=0 note=60 velocity=0 time=0.1475@note_on channel=0 note=58 velocity=80 time=0.0025@note_on channel=4 note=31 velocity=80 time=0@note_on channel=0 note=58 velocity=0 time=0.1475@note_on channel=2 note=55 velocity=80 time=0.0025@note_on channel=2 note=55 velocity=0 time=0.1475@note_on channel=2 note=54 velocity=80 time=0.0025@note_on channel=2 note=54 velocity=0 time=0.1475@note_on channel=2 note=55 velocity=80 time=0.0025@note_on channel=2 note=55 velocity=0 time=0.1475@note_on channel=2 note=57 velocity=80 time=0.0025@note_on channel=2 note=57 velocity=0 time=0.1475@note_on channel=2 note=58 velocity=81 time=0.0025@note_on channel=2 note=58 velocity=0 time=0.1475@note_on channel=0 note=60 velocity=82 time=0.0025@note_on channel=0 note=60 velocity=0 time=0.1475@note_on channel=0 note=62 velocity=82 time=0.0025@note_on channel=0 note=62 velocity=0 time=0.1475@note_on channel=0 note=63 velocity=82 time=0.0025@note_on channel=0 note=63 velocity=0 time=0.1475@note_on channel=0 note=60 velocity=83 time=0.0025@note_on channel=0 note=60 velocity=0 time=0.1475@note_on channel=2 note=55 velocity=82 time=0.0025@note_on channel=3 note=55 velocity=80 time=0@note_on channel=2 note=55 velocity=0 time=0.1475@note_on channel=3 note=55 velocity=0 time=0@note_on channel=2 note=57 velocity=83 time=0.0025@note_on channel=3 note=57 velocity=80 time=0@note_on channel=2 note=57 velocity=0 time=0.1475@note_on channel=3 note=57 velocity=0 time=0@note_on channel=2 note=59 velocity=83 time=0.0025@note_on channel=3 note=59 velocity=80 time=0@note_on channel=2 note=59 velocity=0 time=0.1475@note_on channel=3 note=59 velocity=0 time=0@note_on channel=2 note=60 velocity=84 time=0.0025@note_on channel=3 note=60 velocity=80 time=0@note_on channel=2 note=60 velocity=0 time=0.1475@note_on channel=3 note=60 velocity=0 time=0@note_on channel=0 note=62 velocity=85 time=0.0025@note_on channel=1 note=62 velocity=96 time=0@note_on channel=0 note=62 velocity=0 time=0.1475@note_on channel=1 note=62 velocity=0 time=0@note_on channel=0 note=63 velocity=85 time=0.0025@note_on channel=1 note=63 velocity=96 time=0@note_on channel=0 note=63 velocity=0 time=0.1475@note_on channel=1 note=63 velocity=0 time=0@note_on channel=0 note=65 velocity=85 time=0.0025@note_on channel=1 note=65 velocity=96 time=0@note_on channel=0 note=65 velocity=0 time=0.1475@note_on channel=1 note=65 velocity=0 time=0@note_on channel=0 note=62 velocity=86 time=0.0025@note_on channel=1 note=62 velocity=96 time=0@note_on channel=0 note=62 velocity=0 time=0.1475@note_on channel=1 note=62 velocity=0 time=0@note_on channel=2 note=55 velocity=85 time=0.0025@note_on channel=3 note=55 velocity=82 time=0@note_on channel=2 note=55 velocity=0 time=0.1475@note_on channel=3 note=55 velocity=0 time=0@note_on channel=2 note=59 velocity=86 time=0.0025@note_on channel=3 note=59 velocity=83 time=0@note_on channel=2 note=59 velocity=0 time=0.1475@note_on channel=3 note=59 velocity=0 time=0@note_on channel=2 note=60 velocity=86 time=0.0025@note_on channel=3 note=60 velocity=83 time=0@note_on channel=2 note=60 velocity=0 time=0.1475@note_on channel=3 note=60 velocity=0 time=0@note_on channel=2 note=62 velocity=86 time=0.0025@note_on channel=3 note=62 velocity=83 time=0@note_on channel=2 note=62 velocity=0 time=0.1475@note_on channel=3 note=62 velocity=0 time=0@note_on channel=0 note=63 velocity=87 time=0.0025@note_on channel=1 note=63 velocity=98 time=0@note_on channel=0 note=63 velocity=0 time=0.1475@note_on channel=1 note=63 velocity=0 time=0@note_on channel=0 note=65 velocity=88 time=0.0025@note_on channel=1 note=65 velocity=98 time=0@note_on channel=0 note=65 velocity=0 time=0.1475@note_on channel=1 note=65 velocity=0 time=0@note_on channel=0 note=67 velocity=88 time=0.0025@note_on channel=1 note=67 velocity=98 time=0@note_on channel=0 note=67 velocity=0 time=0.1475@note_on channel=1 note=67 velocity=0 time=0@note_on channel=0 note=63 velocity=88 time=0.0025@note_on channel=1 note=63 velocity=98 time=0@note_on channel=0 note=63 velocity=0 time=0.1475@note_on channel=1 note=63 velocity=0 time=0@note_on channel=2 note=60 velocity=88 time=0.0025@note_on channel=3 note=60 velocity=85 time=0@note_on channel=2 note=60 velocity=0 time=0.1475@note_on channel=3 note=60 velocity=0 time=0@note_on channel=2 note=59 velocity=89 time=0.0025@note_on channel=3 note=59 velocity=86 time=0@note_on channel=2 note=59 velocity=0 time=0.1475@note_on channel=3 note=59 velocity=0 time=0@note_on channel=2 note=60 velocity=89 time=0.0025@note_on channel=3 note=60 velocity=86 time=0@note_on channel=2 note=60 velocity=0 time=0.1475@note_on channel=3 note=60 velocity=0 time=0@note_on channel=0 note=63 velocity=90 time=0.0025@note_on channel=1 note=63 velocity=99 time=0@note_on channel=0 note=63 velocity=0 time=0.1475@note_on channel=1 note=63 velocity=0 time=0@note_on channel=0 note=65 velocity=90 time=0.0025@note_on channel=1 note=65 velocity=100 time=0@note_on channel=0 note=65 velocity=0 time=0.1475@note_on channel=1 note=65 velocity=0 time=0@note_on channel=0 note=67 velocity=91 time=0.0025@note_on channel=1 note=67 velocity=100 time=0@note_on channel=0 note=67 velocity=0 time=0.1475@note_on channel=1 note=67 velocity=0 time=0@note_on channel=0 note=68 velocity=91 time=0.0025@note_on channel=1 note=68 velocity=100 time=0@note_on channel=0 note=68 velocity=0 time=0.1475@note_on channel=1 note=68 velocity=0 time=0@note_on channel=0 note=67 velocity=91 time=0.0025@note_on channel=1 note=67 velocity=101 time=0@note_on channel=0 note=67 velocity=0 time=0.1475@note_on channel=1 note=67 velocity=0 time=0@note_on channel=0 note=65 velocity=92 time=0.0025@note_on channel=1 note=65 velocity=101 time=0@note_on channel=0 note=65 velocity=0 time=0.1475@note_on channel=1 note=65 velocity=0 time=0@note_on channel=2 note=60 velocity=92 time=0.0025@note_on channel=3 note=60 velocity=89 time=0@note_on channel=2 note=60 velocity=0 time=0.1475@note_on channel=3 note=60 velocity=0 time=0@note_on channel=2 note=59 velocity=92 time=0.0025@note_on channel=3 note=59 velocity=89 time=0@note_on channel=2 note=59 velocity=0 time=0.1475@note_on channel=3 note=59 velocity=0 time=0@note_on channel=0 note=74 velocity=93 time=0.0025@note_on channel=1 note=74 velocity=102 time=0@note_on channel=0 note=74 velocity=0 time=0.1475@note_on channel=1 note=74 velocity=0 time=0@note_on channel=0 note=68 velocity=93 time=0.0025@note_on channel=1 note=68 velocity=102 time=0@note_on channel=0 note=68 velocity=0 time=0.1475@note_on channel=1 note=68 velocity=0 time=0@note_on channel=0 note=67 velocity=94 time=0.0025@note_on channel=1 note=67 velocity=102 time=0@note_on channel=0 note=67 velocity=0 time=0.1475@note_on channel=1 note=67 velocity=0 time=0@note_on channel=0 note=65 velocity=94 time=0.0025@note_on channel=1 note=65 velocity=102 time=0@note_on channel=0 note=65 velocity=0 time=0.1475@note_on channel=1 note=65 velocity=0 time=0@note_on channel=0 note=74 velocity=94 time=0.0025@note_on channel=1 note=74 velocity=103 time=0@note_on channel=0 note=74 velocity=0 time=0.1475@note_on channel=1 note=74 velocity=0 time=0@note_on channel=0 note=67 velocity=95 time=0.0025@note_on channel=1 note=67 velocity=103 time=0@note_on channel=0 note=67 velocity=0 time=0.1475@note_on channel=1 note=67 velocity=0 time=0@note_on channel=0 note=65 velocity=95 time=0.0025@note_on channel=1 note=65 velocity=103 time=0@note_on channel=0 note=65 velocity=0 time=0.1475@note_on channel=1 note=65 velocity=0 time=0@note_on channel=0 note=63 velocity=95 time=0.0025@note_on channel=1 note=63 velocity=103 time=0@note_on channel=0 note=63 velocity=0 time=0.1475@note_on channel=1 note=63 velocity=0 time=0@note_on channel=2 note=62 velocity=95 time=0.0025@note_on channel=3 note=62 velocity=93 time=0@note_on channel=2 note=62 velocity=0 time=0.1475@note_on channel=3 note=62 velocity=0 time=0@note_on channel=2 note=60 velocity=96 time=0.0025@note_on channel=3 note=60 velocity=93 time=0@note_on channel=2 note=60 velocity=0 time=0.1475@note_on channel=3 note=60 velocity=0 time=0@note_on channel=2 note=59 velocity=96 time=0.0025@note_on channel=3 note=59 velocity=94 time=0@note_on channel=2 note=59 velocity=0 time=0.1475@note_on channel=3 note=59 velocity=0 time=0@note_on channel=2 note=60 velocity=96 time=0.0025@note_on channel=3 note=60 velocity=94 time=0@note_on channel=2 note=60 velocity=0 time=0.1475@note_on channel=3 note=60 velocity=0 time=0@note_on channel=1 note=66 velocity=105 time=0.0025@note_on channel=1 note=66 velocity=0 time=0.1475@note_on channel=1 note=60 velocity=105 time=0.0025@note_on channel=1 note=60 velocity=0 time=0.1475@note_on channel=1 note=58 velocity=105 time=0.0025@note_on channel=1 note=58 velocity=0 time=0.1475@note_on channel=1 note=57 velocity=106 time=0.0025@note_on channel=1 note=57 velocity=0 time=0.1475@note_on channel=3 note=55 velocity=96 time=0.0025@note_on channel=3 note=55 velocity=0 time=0.1475@note_on channel=3 note=54 velocity=96 time=0.0025@note_on channel=3 note=54 velocity=0 time=0.1475@note_on channel=3 note=52 velocity=97 time=0.0025@note_on channel=3 note=52 velocity=0 time=0.1475@note_on channel=3 note=54 velocity=97 time=0.0025@note_on channel=3 note=54 velocity=0 time=0.1475@note_on channel=2 note=57 velocity=100 time=0.0025@note_on channel=2 note=57 velocity=0 time=0.1475@note_on channel=2 note=50 velocity=100 time=0.0025@note_on channel=2 note=50 velocity=0 time=0.1475@note_on channel=2 note=48 velocity=100 time=0.0025@note_on channel=2 note=48 velocity=0 time=0.1475@note_on channel=3 note=46 velocity=99 time=0.0025@note_on channel=3 note=46 velocity=0 time=0.1475@note_on channel=3 note=45 velocity=99 time=0.0025@note_on channel=3 note=45 velocity=0 time=0.1475@note_on channel=3 note=43 velocity=100 time=0.0025@note_on channel=3 note=43 velocity=0 time=0.1475@note_on channel=3 note=42 velocity=100 time=0.0025@note_on channel=3 note=42 velocity=0 time=0.1475@note_on channel=3 note=43 velocity=100 time=0.0025@note_on channel=3 note=43 velocity=0 time=0.1475@note_on channel=3 note=38 velocity=101 time=0.0025@note_on channel=3 note=38 velocity=0 time=0.1475@note_on channel=3 note=40 velocity=101 time=0.0025@note_on channel=3 note=40 velocity=0 time=0.1475@note_on channel=3 note=42 velocity=102 time=0.0025@note_on channel=3 note=42 velocity=0 time=0.1475@note_on channel=3 note=43 velocity=102 time=0.0025@note_on channel=3 note=43 velocity=0 time=0.1475@note_on channel=3 note=45 velocity=102 time=0.0025@note_on channel=3 note=45 velocity=0 time=0.1475@note_on channel=3 note=46 velocity=103 time=0.0025@note_on channel=3 note=46 velocity=0 time=0.1475@note_on channel=3 note=48 velocity=103 time=0.0025@note_on channel=3 note=48 velocity=0 time=0.1475@note_on channel=3 note=46 velocity=103 time=0.0025@note_on channel=3 note=46 velocity=0 time=0.1475@note_on channel=3 note=43 velocity=104 time=0.0025@note_on channel=3 note=43 velocity=0 time=0.1475@note_on channel=3 note=46 velocity=104 time=0.0025@note_on channel=3 note=46 velocity=0 time=0.1475@note_on channel=3 note=50 velocity=105 time=0.0025@note_on channel=3 note=50 velocity=0 time=0.1475@note_on channel=2 note=55 velocity=107 time=0.0025@note_on channel=2 note=55 velocity=0 time=0.1475@note_on channel=2 note=58 velocity=107 time=0.0025@note_on channel=2 note=58 velocity=0 time=0.1475@note_on channel=2 note=57 velocity=107 time=0.0025@note_on channel=2 note=57 velocity=0 time=0.1475@note_on channel=2 note=55 velocity=108 time=0.0025@note_on channel=2 note=55 velocity=0 time=0.1475@note_on channel=1 note=63 velocity=113 time=0.0025@note_on channel=1 note=63 velocity=0 time=0.1475@note_on channel=1 note=55 velocity=113 time=0.0025@note_on channel=1 note=55 velocity=0 time=0.1475@note_on channel=1 note=57 velocity=113 time=0.0025@note_on channel=1 note=57 velocity=0 time=0.1475@note_on channel=1 note=59 velocity=114 time=0.0025@note_on channel=1 note=59 velocity=0 time=0.1475@note_on channel=1 note=60 velocity=114 time=0.0025@note_on channel=1 note=60 velocity=0 time=0.1475@note_on channel=1 note=62 velocity=114 time=0.0025@note_on channel=1 note=62 velocity=0 time=0.1475@note_on channel=1 note=63 velocity=114 time=0.0025@note_on channel=1 note=63 velocity=0 time=0.1475@note_on channel=1 note=65 velocity=115 time=0.0025@note_on channel=1 note=65 velocity=0 time=0.1475@note_on channel=1 note=63 velocity=115 time=0.0025@note_on channel=1 note=63 velocity=0 time=0.1475@note_on channel=1 note=60 velocity=115 time=0.0025@note_on channel=1 note=60 velocity=0 time=0.1475@note_on channel=1 note=63 velocity=116 time=0.0025@note_on channel=1 note=63 velocity=0 time=0.1475@note_on channel=1 note=67 velocity=116 time=0.0025@note_on channel=1 note=67 velocity=0 time=0.1475@note_on channel=0 note=72 velocity=113 time=0.0025@note_on channel=0 note=72 velocity=0 time=0.1475@note_on channel=0 note=75 velocity=113 time=0.0025@note_on channel=0 note=75 velocity=0 time=0.1475@note_on channel=0 note=74 velocity=113 time=0.0025@note_on channel=0 note=74 velocity=0 time=0.1475@note_on channel=0 note=72 velocity=114 time=0.0025@note_on channel=0 note=72 velocity=0 time=0.1475@note_on channel=0 note=81 velocity=114 time=0.0025@note_on channel=0 note=81 velocity=0 time=0.1475@note_on channel=2 note=60 velocity=114 time=0.0025@note_on channel=2 note=60 velocity=0 time=0.1475@note_on channel=2 note=62 velocity=115 time=0.0025@note_on channel=2 note=62 velocity=0 time=0.1475@note_on channel=2 note=64 velocity=115 time=0.0025@note_on channel=2 note=64 velocity=0 time=0.1475@note_on channel=2 note=66 velocity=115 time=0.0025@note_on channel=2 note=66 velocity=0 time=0.1475@note_on channel=1 note=67 velocity=118 time=0.0025@note_on channel=1 note=67 velocity=0 time=0.1475@note_on channel=1 note=69 velocity=119 time=0.0025@note_on channel=1 note=69 velocity=0 time=0.1475@note_on channel=1 note=70 velocity=119 time=0.0025@note_on channel=1 note=70 velocity=0 time=0.1475@note_on channel=1 note=69 velocity=119 time=0.0025@note_on channel=1 note=69 velocity=0 time=0.1475@note_on channel=2 note=66 velocity=117 time=0.0025@note_on channel=2 note=66 velocity=0 time=0.1475@note_on channel=2 note=69 velocity=117 time=0.0025@note_on channel=2 note=69 velocity=0 time=0.1475@note_on channel=2 note=72 velocity=118 time=0.0025@note_on channel=2 note=72 velocity=0 time=0.1475@note_on channel=2 note=75 velocity=118 time=0.0025@note_on channel=2 note=75 velocity=0 time=0.1475@note_on channel=0 note=78 velocity=119 time=0.0025@note_on channel=0 note=78 velocity=0 time=0.1475@note_on channel=0 note=79 velocity=119 time=0.0025@note_on channel=0 note=79 velocity=0 time=0.1475@note_on channel=0 note=81 velocity=119 time=0.0025@note_on channel=0 note=81 velocity=0 time=0.1475@note_on channel=0 note=82 velocity=120 time=0.0025@note_on channel=0 note=82 velocity=0 time=0.1475@note_on channel=0 note=81 velocity=120 time=0.0025@note_on channel=0 note=81 velocity=0 time=0.1475@note_on channel=0 note=79 velocity=120 time=0.0025@note_on channel=0 note=79 velocity=0 time=0.1475@note_on channel=0 note=77 velocity=121 time=0.0025@note_on channel=0 note=77 velocity=0 time=0.1475@note_on channel=0 note=75 velocity=121 time=0.0025@note_on channel=0 note=75 velocity=0 time=0.1475@note_on channel=0 note=74 velocity=122 time=0.0025@note_on channel=0 note=74 velocity=0 time=0.1475@note_on channel=0 note=73 velocity=122 time=0.0025@note_on channel=0 note=73 velocity=0 time=0.1475@note_on channel=0 note=74 velocity=122 time=0.0025@note_on channel=0 note=74 velocity=0 time=0.1475@note_on channel=0 note=73 velocity=123 time=0.0025@note_on channel=0 note=73 velocity=0 time=0.1475@note_on channel=0 note=76 velocity=123 time=0.0025@note_on channel=0 note=76 velocity=0 time=0.1475@note_on channel=0 note=79 velocity=123 time=0.0025@note_on channel=0 note=79 velocity=0 time=0.1475@note_on channel=0 note=82 velocity=124 time=0.0025@note_on channel=0 note=82 velocity=0 time=0.1475@note_on channel=0 note=81 velocity=124 time=0.0025@note_on channel=0 note=81 velocity=0 time=0.1475@note_on channel=0 note=79 velocity=124 time=0.0025@note_on channel=0 note=79 velocity=0 time=0.1475@note_on channel=0 note=78 velocity=125 time=0.0025@note_on channel=0 note=78 velocity=0 time=0.1475@note_on channel=0 note=76 velocity=125 time=0.0025@note_on channel=0 note=76 velocity=0 time=0.1475@note_on channel=4 note=31 velocity=0 time=0@note_on channel=0 note=78 velocity=126 time=0.0025@note_on channel=4 note=38 velocity=126 time=0@note_on channel=0 note=78 velocity=0 time=0.1475@note_on channel=0 note=75 velocity=126 time=0.0025@note_on channel=0 note=75 velocity=0 time=0.1475@note_on channel=0 note=74 velocity=126 time=0.0025@note_on channel=0 note=74 velocity=0 time=0.1475@note_on channel=0 note=72 velocity=126 time=0.0025@note_on channel=0 note=72 velocity=0 time=0.1475@note_on channel=0 note=81 velocity=126 time=0.0025@note_on channel=2 note=72 velocity=126 time=0.15@note_on channel=2 note=72 velocity=0 time=0.1475@note_on channel=2 note=70 velocity=126 time=0.0025@note_on channel=2 note=70 velocity=0 time=0.1475@note_on channel=2 note=69 velocity=126 time=0.0025@note_on channel=2 note=69 velocity=0 time=0.1475@note_on channel=2 note=70 velocity=126 time=0.0025@note_on channel=2 note=70 velocity=0 time=0.1475@note_on channel=1 note=74 velocity=126 time=0.0025@note_on channel=2 note=74 velocity=126 time=0@note_on channel=2 note=74 velocity=0 time=0.1475@note_on channel=2 note=72 velocity=126 time=0.0025@note_on channel=2 note=72 velocity=0 time=0.1475@note_on channel=2 note=70 velocity=126 time=0.0025@note_on channel=0 note=81 velocity=0 time=0.1475@note_on channel=0 note=79 velocity=126 time=0.0025@note_on channel=3 note=65 velocity=126 time=0.15@note_on channel=3 note=65 velocity=0 time=0.1475@note_on channel=3 note=63 velocity=126 time=0.0025@note_on channel=3 note=63 velocity=0 time=0.1475@note_on channel=3 note=62 velocity=126 time=0.0025@note_on channel=1 note=74 velocity=0 time=0.1475@note_on channel=3 note=62 velocity=0 time=0@note_on channel=1 note=76 velocity=126 time=0.0025@note_on channel=3 note=61 velocity=126 time=0@note_on channel=3 note=61 velocity=0 time=0.1475@note_on channel=3 note=58 velocity=126 time=0.0025@note_on channel=3 note=58 velocity=0 time=0.1475@note_on channel=3 note=57 velocity=126 time=0.0025@note_on channel=3 note=57 velocity=0 time=0.1475@note_on channel=3 note=55 velocity=126 time=0.0025@note_on channel=3 note=55 velocity=0 time=0.1475@note_on channel=3 note=64 velocity=126 time=0.0025@note_on channel=3 note=64 velocity=0 time=0.1475@note_on channel=3 note=61 velocity=126 time=0.0025@note_on channel=3 note=61 velocity=0 time=0.1475@note_on channel=3 note=58 velocity=126 time=0.0025@note_on channel=3 note=58 velocity=0 time=0.1475@note_on channel=3 note=57 velocity=126 time=0.0025@note_on channel=3 note=57 velocity=0 time=0.1475@note_on channel=3 note=55 velocity=126 time=0.0025@note_on channel=3 note=55 velocity=0 time=0.1475@note_on channel=3 note=58 velocity=126 time=0.0025@note_on channel=3 note=58 velocity=0 time=0.1475@note_on channel=3 note=57 velocity=126 time=0.0025@note_on channel=3 note=57 velocity=0 time=0.1475@note_on channel=3 note=55 velocity=126 time=0.0025@note_on channel=3 note=55 velocity=0 time=0.1475@note_on channel=3 note=61 velocity=126 time=0.0025@note_on channel=3 note=61 velocity=0 time=0.1475@note_on channel=3 note=64 velocity=126 time=0.0025@note_on channel=3 note=64 velocity=0 time=0.1475@note_on channel=3 note=62 velocity=126 time=0.0025@note_on channel=3 note=62 velocity=0 time=0.1475@note_on channel=3 note=61 velocity=126 time=0.0025@note_on channel=3 note=61 velocity=0 time=0.1475@note_on channel=3 note=62 velocity=126 time=0.0025@note_on channel=0 note=79 velocity=0 time=0.5975@note_on channel=1 note=76 velocity=0 time=0@note_on channel=2 note=70 velocity=0 time=0@<meta message set_tempo tempo=3000003 time=0.0025>@note_on channel=0 note=78 velocity=126 time=0@note_on channel=1 note=74 velocity=126 time=0@note_on channel=2 note=69 velocity=126 time=0@note_on channel=0 note=78 velocity=0 time=1.4937514937499998@note_on channel=1 note=74 velocity=0 time=0@note_on channel=2 note=69 velocity=0 time=0@note_on channel=3 note=62 velocity=0 time=0@note_on channel=4 note=38 velocity=0 time=0@<meta message set_tempo tempo=1499999 time=0.00625000625>@note_on channel=4 note=50 velocity=49 time=0@note_on channel=0 note=77 velocity=49 time=0.7499994999999999@note_on channel=0 note=77 velocity=0 time=0.37187475208333326@note_on channel=0 note=74 velocity=49 time=0.003124997916666666@note_on channel=0 note=74 velocity=0 time=0.37187475208333326@note_on channel=0 note=71 velocity=49 time=0.003124997916666666@note_on channel=0 note=71 velocity=0 time=0.37187475208333326@note_on channel=0 note=72 velocity=49 time=0.003124997916666666@note_on channel=0 note=72 velocity=0 time=0.37187475208333326@note_on channel=4 note=50 velocity=0 time=0@note_on channel=0 note=74 velocity=49 time=0.003124997916666666@note_on channel=1 note=68 velocity=49 time=0@note_on channel=2 note=65 velocity=49 time=0@note_on channel=3 note=65 velocity=49 time=0@note_on channel=4 note=47 velocity=49 time=0@note_on channel=2 note=65 velocity=0 time=0.37187475208333326@note_on channel=3 note=65 velocity=0 time=0@note_on channel=2 note=62 velocity=49 time=0.003124997916666666@note_on channel=3 note=62 velocity=49 time=0@note_on channel=2 note=62 velocity=0 time=0.37187475208333326@note_on channel=3 note=62 velocity=0 time=0@note_on channel=4 note=47 velocity=0 time=0@note_on channel=2 note=59 velocity=49 time=0.003124997916666666@note_on channel=3 note=59 velocity=49 time=0@note_on channel=4 note=43 velocity=49 time=0@note_on channel=2 note=59 velocity=0 time=0.37187475208333326@note_on channel=3 note=59 velocity=0 time=0@note_on channel=2 note=60 velocity=49 time=0.003124997916666666@note_on channel=3 note=60 velocity=49 time=0@note_on channel=1 note=68 velocity=0 time=0.37187475208333326@note_on channel=2 note=60 velocity=0 time=0@note_on channel=3 note=60 velocity=0 time=0@note_on channel=4 note=43 velocity=0 time=0@note_on channel=1 note=67 velocity=49 time=0.003124997916666666@note_on channel=2 note=62 velocity=49 time=0@note_on channel=3 note=62 velocity=49 time=0@note_on channel=4 note=47 velocity=49 time=0@note_on channel=1 note=67 velocity=0 time=0.37187475208333326@note_on channel=1 note=65 velocity=49 time=0.003124997916666666@note_on channel=2 note=62 velocity=0 time=0.37187475208333326@note_on channel=3 note=62 velocity=0 time=0@note_on channel=4 note=47 velocity=0 time=0@note_on channel=2 note=55 velocity=49 time=0.003124997916666666@note_on channel=3 note=55 velocity=49 time=0@note_on channel=4 note=39 velocity=49 time=0@note_on channel=2 note=55 velocity=0 time=0.37187475208333326@note_on channel=3 note=55 velocity=0 time=0@note_on channel=2 note=59 velocity=49 time=0.003124997916666666@note_on channel=3 note=59 velocity=49 time=0@note_on channel=0 note=74 velocity=0 time=0.37187475208333326@note_on channel=1 note=65 velocity=0 time=0@note_on channel=2 note=59 velocity=0 time=0@note_on channel=3 note=59 velocity=0 time=0@note_on channel=4 note=39 velocity=0 time=0@note_on channel=0 note=72 velocity=49 time=0.003124997916666666@note_on channel=1 note=63 velocity=49 time=0@note_on channel=2 note=60 velocity=49 time=0@note_on channel=3 note=60 velocity=49 time=0@note_on channel=4 note=43 velocity=49 time=0@note_on channel=0 note=72 velocity=0 time=0.37187475208333326@note_on channel=1 note=63 velocity=0 time=0@note_on channel=0 note=71 velocity=49 time=0.003124997916666666@note_on channel=1 note=62 velocity=49 time=0@note_on channel=0 note=71 velocity=0 time=0.37187475208333326@note_on channel=1 note=62 velocity=0 time=0@note_on channel=4 note=43 velocity=0 time=0@note_on channel=0 note=72 velocity=49 time=0.003124997916666666@note_on channel=1 note=63 velocity=49 time=0@note_on channel=4 note=39 velocity=49 time=0@note_on channel=0 note=72 velocity=0 time=0.37187475208333326@note_on channel=0 note=74 velocity=49 time=0.003124997916666666@note_on channel=0 note=74 velocity=0 time=0.37187475208333326@note_on channel=1 note=63 velocity=0 time=0@note_on channel=2 note=60 velocity=0 time=0@note_on channel=3 note=60 velocity=0 time=0@note_on channel=4 note=39 velocity=0 time=0@note_on channel=0 note=75 velocity=49 time=0.003124997916666666@note_on channel=2 note=60 velocity=49 time=0@note_on channel=3 note=60 velocity=49 time=0@note_on channel=4 note=36 velocity=49 time=0@note_on channel=2 note=60 velocity=0 time=0.37187475208333326@note_on channel=3 note=60 velocity=0 time=0@note_on channel=2 note=59 velocity=49 time=0.003124997916666666@note_on channel=3 note=59 velocity=49 time=0@note_on channel=2 note=59 velocity=0 time=0.37187475208333326@note_on channel=3 note=59 velocity=0 time=0@note_on channel=4 note=36 velocity=0 time=0@note_on channel=2 note=54 velocity=49 time=0.003124997916666666@note_on channel=3 note=54 velocity=49 time=0@note_on channel=4 note=33 velocity=49 time=0@note_on channel=2 note=54 velocity=0 time=0.37187475208333326@note_on channel=3 note=54 velocity=0 time=0@note_on channel=2 note=55 velocity=49 time=0.003124997916666666@note_on channel=3 note=55 velocity=49 time=0@note_on channel=2 note=55 velocity=0 time=0.37187475208333326@note_on channel=3 note=55 velocity=0 time=0@note_on channel=4 note=33 velocity=0 time=0@note_on channel=1 note=72 velocity=49 time=0.003124997916666666@note_on channel=2 note=57 velocity=49 time=0@note_on channel=3 note=57 velocity=49 time=0@note_on channel=4 note=42 velocity=49 time=0@note_on channel=1 note=72 velocity=0 time=0.37187475208333326@note_on channel=1 note=69 velocity=49 time=0.003124997916666666@note_on channel=1 note=69 velocity=0 time=0.37187475208333326@note_on channel=4 note=42 velocity=0 time=0@note_on channel=1 note=66 velocity=49 time=0.003124997916666666@note_on channel=4 note=38 velocity=49 time=0@note_on channel=1 note=66 velocity=0 time=0.37187475208333326@note_on channel=1 note=67 velocity=49 time=0.003124997916666666@note_on channel=0 note=75 velocity=0 time=0.37187475208333326@note_on channel=1 note=67 velocity=0 time=0@note_on channel=4 note=38 velocity=0 time=0@note_on channel=0 note=74 velocity=49 time=0.003124997916666666@note_on channel=1 note=69 velocity=49 time=0@note_on channel=4 note=42 velocity=49 time=0@note_on channel=0 note=74 velocity=0 time=0.37187475208333326@note_on channel=0 note=72 velocity=49 time=0.003124997916666666@note_on channel=0 note=72 velocity=0 time=0.37187475208333326@note_on channel=1 note=69 velocity=0 time=0@note_on channel=2 note=57 velocity=0 time=0@note_on channel=3 note=57 velocity=0 time=0@note_on channel=4 note=42 velocity=0 time=0@note_on channel=0 note=72 velocity=49 time=0.003124997916666666@note_on channel=1 note=62 velocity=49 time=0@note_on channel=2 note=57 velocity=49 time=0@note_on channel=3 note=57 velocity=49 time=0@note_on channel=4 note=34 velocity=49 time=0@note_on channel=1 note=62 velocity=0 time=0.37187475208333326@note_on channel=1 note=66 velocity=49 time=0.003124997916666666@note_on channel=0 note=72 velocity=0 time=0.37187475208333326@note_on channel=1 note=66 velocity=0 time=0@note_on channel=2 note=57 velocity=0 time=0@note_on channel=3 note=57 velocity=0 time=0@note_on channel=4 note=34 velocity=0 time=0@note_on channel=0 note=70 velocity=49 time=0.003124997916666666@note_on channel=1 note=67 velocity=49 time=0@note_on channel=2 note=55 velocity=49 time=0@note_on channel=3 note=55 velocity=49 time=0@note_on channel=4 note=38 velocity=49 time=0@note_on channel=0 note=70 velocity=0 time=0.37187475208333326@note_on channel=2 note=55 velocity=0 time=0@note_on channel=3 note=55 velocity=0 time=0@note_on channel=0 note=69 velocity=49 time=0.003124997916666666@note_on channel=2 note=54 velocity=49 time=0@note_on channel=3 note=54 velocity=49 time=0@note_on channel=0 note=69 velocity=0 time=0.37187475208333326@note_on channel=2 note=54 velocity=0 time=0@note_on channel=3 note=54 velocity=0 time=0@note_on channel=4 note=38 velocity=0 time=0@note_on channel=0 note=70 velocity=49 time=0.003124997916666666@note_on channel=2 note=55 velocity=49 time=0@note_on channel=3 note=55 velocity=49 time=0@note_on channel=4 note=34 velocity=49 time=0@note_on channel=2 note=55 velocity=0 time=0.37187475208333326@note_on channel=3 note=55 velocity=0 time=0@note_on channel=2 note=57 velocity=49 time=0.003124997916666666@note_on channel=3 note=57 velocity=49 time=0@note_on channel=0 note=70 velocity=0 time=0.37187475208333326@note_on channel=1 note=67 velocity=0 time=0@note_on channel=2 note=57 velocity=0 time=0@note_on channel=3 note=57 velocity=0 time=0@note_on channel=4 note=34 velocity=0 time=0@note_on channel=0 note=79 velocity=49 time=0.003124997916666666@note_on channel=2 note=58 velocity=49 time=0@note_on channel=3 note=58 velocity=49 time=0@note_on channel=4 note=31 velocity=49 time=0@note_on channel=0 note=79 velocity=0 time=0.37187475208333326@note_on channel=0 note=75 velocity=49 time=0.003124997916666666@note_on channel=0 note=75 velocity=0 time=0.37187475208333326@note_on channel=4 note=31 velocity=0 time=0@note_on channel=0 note=73 velocity=49 time=0.003124997916666666@note_on channel=4 note=28 velocity=49 time=0@note_on channel=0 note=73 velocity=0 time=0.37187475208333326@note_on channel=0 note=74 velocity=49 time=0.003124997916666666@note_on channel=0 note=74 velocity=0 time=0.37187475208333326@note_on channel=2 note=58 velocity=0 time=0@note_on channel=4 note=28 velocity=0 time=0@note_on channel=0 note=76 velocity=49 time=0.003124997916666666@note_on channel=2 note=67 velocity=49 time=0@note_on channel=4 note=37 velocity=49 time=0@note_on channel=2 note=67 velocity=0 time=0.37187475208333326@note_on channel=2 note=64 velocity=49 time=0.003124997916666666@note_on channel=2 note=64 velocity=0 time=0.37187475208333326@note_on channel=4 note=37 velocity=0 time=0@note_on channel=2 note=61 velocity=49 time=0.003124997916666666@note_on channel=4 note=33 velocity=49 time=0@note_on channel=2 note=61 velocity=0 time=0.37187475208333326@note_on channel=2 note=62 velocity=49 time=0.003124997916666666@note_on channel=2 note=62 velocity=0 time=0.37187475208333326@note_on channel=3 note=58 velocity=0 time=0@note_on channel=4 note=33 velocity=0 time=0@note_on channel=2 note=64 velocity=49 time=0.003124997916666666@note_on channel=3 note=57 velocity=49 time=0@note_on channel=4 note=37 velocity=49 time=0@note_on channel=3 note=57 velocity=0 time=0.37187475208333326@note_on channel=3 note=55 velocity=49 time=0.003124997916666666@note_on channel=2 note=64 velocity=0 time=0.37187475208333326@note_on channel=4 note=37 velocity=0 time=0@note_on channel=2 note=57 velocity=49 time=0.003124997916666666@note_on channel=4 note=29 velocity=49 time=0@note_on channel=2 note=57 velocity=0 time=0.37187475208333326@note_on channel=2 note=61 velocity=49 time=0.003124997916666666@note_on channel=0 note=76 velocity=0 time=0.37187475208333326@note_on channel=2 note=61 velocity=0 time=0@note_on channel=3 note=55 velocity=0 time=0@note_on channel=4 note=29 velocity=0 time=0@note_on channel=0 note=74 velocity=49 time=0.003124997916666666@note_on channel=2 note=62 velocity=49 time=0@note_on channel=3 note=53 velocity=49 time=0@note_on channel=4 note=33 velocity=49 time=0@note_on channel=0 note=74 velocity=0 time=0.37187475208333326@note_on channel=3 note=53 velocity=0 time=0@note_on channel=0 note=73 velocity=49 time=0.003124997916666666@note_on channel=3 note=52 velocity=49 time=0@note_on channel=0 note=73 velocity=0 time=0.37187475208333326@note_on channel=2 note=62 velocity=0 time=0@note_on channel=3 note=52 velocity=0 time=0@note_on channel=4 note=33 velocity=0 time=0@note_on channel=0 note=74 velocity=49 time=0.003124997916666666@note_on channel=3 note=53 velocity=49 time=0@note_on channel=4 note=29 velocity=49 time=0@note_on channel=0 note=74 velocity=0 time=0.37187475208333326@note_on channel=3 note=53 velocity=0 time=0@note_on channel=0 note=76 velocity=49 time=0.003124997916666666@note_on channel=3 note=55 velocity=49 time=0@note_on channel=0 note=76 velocity=0 time=0.37187475208333326@note_on channel=3 note=55 velocity=0 time=0@note_on channel=4 note=29 velocity=0 time=0@note_on channel=0 note=77 velocity=49 time=0.003124997916666666@note_on channel=1 note=69 velocity=49 time=0@note_on channel=3 note=57 velocity=49 time=0@note_on channel=4 note=26 velocity=49 time=0@note_on channel=3 note=57 velocity=0 time=0.37187475208333326@note_on channel=3 note=55 velocity=49 time=0.003124997916666666@note_on channel=3 note=55 velocity=0 time=0.37187475208333326@note_on channel=4 note=26 velocity=0 time=0@note_on channel=3 note=50 velocity=49 time=0.003124997916666666@note_on channel=4 note=34 velocity=49 time=0@note_on channel=3 note=50 velocity=0 time=0.37187475208333326@note_on channel=3 note=53 velocity=49 time=0.003124997916666666@note_on channel=0 note=77 velocity=0 time=0.37187475208333326@note_on channel=1 note=69 velocity=0 time=0@note_on channel=3 note=53 velocity=0 time=0@note_on channel=0 note=76 velocity=49 time=0.003124997916666666@note_on channel=1 note=67 velocity=49 time=0@note_on channel=3 note=55 velocity=49 time=0@note_on channel=0 note=76 velocity=0 time=0.37187475208333326@note_on channel=0 note=74 velocity=49 time=0.003124997916666666@note_on channel=0 note=74 velocity=0 time=0.37187475208333326@note_on channel=0 note=76 velocity=49 time=0.003124997916666666@note_on channel=0 note=76 velocity=0 time=0.37187475208333326@note_on channel=3 note=55 velocity=0 time=0@note_on channel=0 note=73 velocity=49 time=0.003124997916666666@note_on channel=3 note=57 velocity=49 time=0@note_on channel=0 note=73 velocity=0 time=0.37187475208333326@note_on channel=3 note=57 velocity=0 time=0@note_on channel=0 note=74 velocity=49 time=0.003124997916666666@note_on channel=3 note=58 velocity=49 time=0@note_on channel=3 note=58 velocity=0 time=0.37187475208333326@note_on channel=3 note=55 velocity=49 time=0.003124997916666666@note_on channel=0 note=74 velocity=0 time=0.37187475208333326@note_on channel=1 note=67 velocity=0 time=0@note_on channel=3 note=55 velocity=0 time=0@note_on channel=4 note=34 velocity=0 time=0@note_on channel=0 note=74 velocity=49 time=0.003124997916666666@note_on channel=1 note=67 velocity=49 time=0@note_on channel=3 note=52 velocity=49 time=0@note_on channel=4 note=33 velocity=49 time=0@note_on channel=0 note=74 velocity=0 time=0.37187475208333326@note_on channel=0 note=71 velocity=49 time=0.003124997916666666@note_on channel=0 note=71 velocity=0 time=0.37187475208333326@note_on channel=3 note=52 velocity=0 time=0@note_on channel=0 note=73 velocity=49 time=0.003124997916666666@note_on channel=3 note=57 velocity=49 time=0@note_on channel=0 note=73 velocity=0 time=0.37187475208333326@note_on channel=3 note=57 velocity=0 time=0@note_on channel=0 note=76 velocity=49 time=0.003124997916666666@note_on channel=3 note=55 velocity=49 time=0@note_on channel=0 note=76 velocity=0 time=0.37187475208333326@note_on channel=3 note=55 velocity=0 time=0@note_on channel=0 note=69 velocity=49 time=0.003124997916666666@note_on channel=3 note=53 velocity=49 time=0@note_on channel=1 note=67 velocity=0 time=0.37187475208333326@note_on channel=3 note=53 velocity=0 time=0@note_on channel=1 note=67 velocity=49 time=0.003124997916666666@note_on channel=3 note=52 velocity=49 time=0@note_on channel=1 note=67 velocity=0 time=0.37187475208333326@note_on channel=3 note=52 velocity=0 time=0@note_on channel=1 note=65 velocity=49 time=0.003124997916666666@note_on channel=3 note=50 velocity=49 time=0@note_on channel=1 note=65 velocity=0 time=0.37187475208333326@note_on channel=3 note=50 velocity=0 time=0@note_on channel=1 note=64 velocity=49 time=0.003124997916666666@note_on channel=3 note=49 velocity=49 time=0@note_on channel=1 note=64 velocity=0 time=0.37187475208333326@note_on channel=3 note=49 velocity=0 time=0@note_on channel=1 note=65 velocity=49 time=0.003124997916666666@note_on channel=3 note=50 velocity=49 time=0@note_on channel=1 note=65 velocity=0 time=0.37187475208333326@note_on channel=3 note=50 velocity=0 time=0@note_on channel=1 note=61 velocity=49 time=0.003124997916666666@note_on channel=3 note=52 velocity=49 time=0@note_on channel=1 note=61 velocity=0 time=0.37187475208333326@note_on channel=3 note=52 velocity=0 time=0@note_on channel=1 note=62 velocity=49 time=0.003124997916666666@note_on channel=3 note=53 velocity=49 time=0@note_on channel=1 note=62 velocity=0 time=0.37187475208333326@note_on channel=3 note=53 velocity=0 time=0@note_on channel=1 note=65 velocity=49 time=0.003124997916666666@note_on channel=2 note=50 velocity=49 time=0@note_on channel=3 note=50 velocity=49 time=0@note_on channel=0 note=69 velocity=0 time=0.37187475208333326@note_on channel=1 note=65 velocity=0 time=0@note_on channel=2 note=50 velocity=0 time=0@note_on channel=1 note=59 velocity=49 time=0.003124997916666666@note_on channel=2 note=56 velocity=49 time=0@note_on channel=0 note=65 velocity=49 time=0.37499974999999997@note_on channel=0 note=65 velocity=0 time=0.37187475208333326@note_on channel=0 note=64 velocity=49 time=0.003124997916666666@note_on channel=0 note=64 velocity=0 time=0.37187475208333326@note_on channel=0 note=62 velocity=49 time=0.003124997916666666@note_on channel=0 note=62 velocity=0 time=0.37187475208333326@note_on channel=1 note=59 velocity=0 time=0@note_on channel=2 note=56 velocity=0 time=0@note_on channel=3 note=50 velocity=0 time=0@note_on channel=0 note=62 velocity=49 time=0.003124997916666666@note_on channel=1 note=57 velocity=49 time=0@note_on channel=2 note=57 velocity=49 time=0@note_on channel=3 note=52 velocity=49 time=0@note_on channel=0 note=62 velocity=0 time=0.7468745020833332@<meta message set_tempo tempo=3000003 time=0.003124997916666666>@note_on channel=0 note=61 velocity=49 time=0@note_on channel=0 note=61 velocity=0 time=1.4937514937499998@note_on channel=1 note=57 velocity=0 time=0@note_on channel=2 note=57 velocity=0 time=0@note_on channel=3 note=52 velocity=0 time=0@note_on channel=4 note=33 velocity=0 time=0@<meta message set_tempo tempo=1000000 time=0.00625000625>@note_on channel=1 note=57 velocity=126 time=0.625@note_on channel=1 note=57 velocity=0 time=0.12291666666666666@note_on channel=1 note=59 velocity=126 time=0.0020833333333333333@note_on channel=1 note=59 velocity=0 time=0.12291666666666666@note_on channel=1 note=61 velocity=126 time=0.0020833333333333333@note_on channel=1 note=61 velocity=0 time=0.12291666666666666@note_on channel=1 note=62 velocity=126 time=0.0020833333333333333@note_on channel=1 note=62 velocity=0 time=0.12291666666666666@note_on channel=1 note=64 velocity=126 time=0.0020833333333333333@note_on channel=1 note=64 velocity=0 time=0.12291666666666666@note_on channel=1 note=65 velocity=126 time=0.0020833333333333333@note_on channel=1 note=65 velocity=0 time=0.12291666666666666@note_on channel=1 note=67 velocity=126 time=0.0020833333333333333@note_on channel=1 note=67 velocity=0 time=0.12291666666666666@note_on channel=1 note=69 velocity=126 time=0.0020833333333333333@note_on channel=1 note=69 velocity=0 time=0.12291666666666666@note_on channel=1 note=70 velocity=126 time=0.0020833333333333333@note_on channel=1 note=70 velocity=0 time=0.12291666666666666@note_on channel=1 note=69 velocity=126 time=0.0020833333333333333@note_on channel=1 note=69 velocity=0 time=0.12291666666666666@note_on channel=1 note=67 velocity=126 time=0.0020833333333333333@note_on channel=1 note=67 velocity=0 time=0.12291666666666666@<meta message set_tempo tempo=1499999 time=0.0020833333333333333>@note_on channel=0 note=76 velocity=126 time=0@note_on channel=1 note=73 velocity=126 time=0.7499994999999999@note_on channel=2 note=55 velocity=126 time=0@note_on channel=3 note=52 velocity=126 time=0@note_on channel=4 note=34 velocity=126 time=0@note_on channel=4 note=34 velocity=0 time=0.7468745020833332@note_on channel=4 note=26 velocity=126 time=0.003124997916666666@note_on channel=0 note=76 velocity=0 time=0.7468745020833332@note_on channel=1 note=73 velocity=0 time=0@note_on channel=2 note=55 velocity=0 time=0@note_on channel=3 note=52 velocity=0 time=0@note_on channel=0 note=74 velocity=126 time=0.003124997916666666@note_on channel=1 note=71 velocity=126 time=0@note_on channel=2 note=59 velocity=126 time=0@note_on channel=3 note=54 velocity=126 time=0@note_on channel=0 note=74 velocity=0 time=0.7468745020833332@note_on channel=1 note=71 velocity=0 time=0@note_on channel=2 note=59 velocity=0 time=0@note_on channel=3 note=54 velocity=0 time=0@note_on channel=4 note=26 velocity=0 time=0@<meta message set_tempo tempo=1200000 time=0.003124997916666666>@note_on channel=1 note=71 velocity=126 time=0.15@note_on channel=1 note=71 velocity=0 time=0.1475@note_on channel=1 note=70 velocity=126 time=0.0025@note_on channel=1 note=70 velocity=0 time=0.1475@note_on channel=1 note=71 velocity=126 time=0.0025@note_on channel=1 note=71 velocity=0 time=0.1475@note_on channel=1 note=71 velocity=126 time=0.0025@note_on channel=1 note=71 velocity=0 time=0.1475@note_on channel=1 note=71 velocity=126 time=0.0025@note_on channel=1 note=71 velocity=0 time=0.0725@note_on channel=1 note=72 velocity=126 time=0.0025@note_on channel=1 note=72 velocity=0 time=0.0725@note_on channel=1 note=71 velocity=126 time=0.0025@note_on channel=1 note=71 velocity=0 time=0.0725@note_on channel=1 note=72 velocity=126 time=0.0025@note_on channel=1 note=72 velocity=0 time=0.0725@note_on channel=1 note=70 velocity=126 time=0.0025@note_on channel=1 note=70 velocity=0 time=0.0725@note_on channel=1 note=71 velocity=126 time=0.0025@note_on channel=1 note=71 velocity=0 time=0.0725@note_on channel=1 note=74 velocity=126 time=0.0025@note_on channel=1 note=74 velocity=0 time=0.1475@note_on channel=1 note=71 velocity=126 time=0.0025@note_on channel=1 note=71 velocity=0 time=0.1475@note_on channel=1 note=70 velocity=126 time=0.0025@note_on channel=1 note=70 velocity=0 time=0.1475@note_on channel=1 note=71 velocity=126 time=0.0025@note_on channel=1 note=71 velocity=0 time=0.1475@note_on channel=1 note=71 velocity=126 time=0.0025@note_on channel=1 note=71 velocity=0 time=0.1475@note_on channel=1 note=71 velocity=126 time=0.0025@note_on channel=1 note=71 velocity=0 time=0.0725@note_on channel=1 note=72 velocity=126 time=0.0025@note_on channel=1 note=72 velocity=0 time=0.0725@note_on channel=1 note=71 velocity=126 time=0.0025@note_on channel=1 note=71 velocity=0 time=0.0725@note_on channel=1 note=72 velocity=126 time=0.0025@note_on channel=1 note=72 velocity=0 time=0.0725@note_on channel=1 note=70 velocity=126 time=0.0025@note_on channel=1 note=70 velocity=0 time=0.0725@note_on channel=1 note=71 velocity=126 time=0.0025@note_on channel=1 note=71 velocity=0 time=0.0725@<meta message set_tempo tempo=1499999 time=0.0025>@note_on channel=0 note=80 velocity=126 time=0@note_on channel=1 note=77 velocity=126 time=0.7499994999999999@note_on channel=2 note=71 velocity=126 time=0@note_on channel=3 note=62 velocity=126 time=0@note_on channel=4 note=38 velocity=126 time=0@note_on channel=4 note=38 velocity=0 time=0.7468745020833332@note_on channel=4 note=39 velocity=126 time=0.003124997916666666@note_on channel=0 note=80 velocity=0 time=0.7468745020833332@note_on channel=1 note=77 velocity=0 time=0@note_on channel=2 note=71 velocity=0 time=0@note_on channel=3 note=62 velocity=0 time=0@note_on channel=0 note=79 velocity=126 time=0.003124997916666666@note_on channel=1 note=75 velocity=126 time=0@note_on channel=2 note=72 velocity=126 time=0@note_on channel=3 note=60 velocity=126 time=0@note_on channel=1 note=75 velocity=0 time=0.7468745020833332@note_on channel=2 note=72 velocity=0 time=0@note_on channel=3 note=60 velocity=0 time=0@note_on channel=4 note=39 velocity=0 time=0@note_on channel=0 note=79 velocity=0 time=0.18749987499999998@note_on channel=0 note=77 velocity=126 time=0.003124997916666666@note_on channel=0 note=77 velocity=0 time=0.1843748770833333@note_on channel=0 note=75 velocity=126 time=0.003124997916666666@note_on channel=0 note=75 velocity=0 time=0.1843748770833333@note_on channel=0 note=74 velocity=126 time=0.003124997916666666@note_on channel=0 note=74 velocity=0 time=0.1843748770833333@note_on channel=0 note=75 velocity=126 time=0.003124997916666666@note_on channel=0 note=75 velocity=0 time=0.1843748770833333@note_on channel=0 note=79 velocity=126 time=0.003124997916666666@note_on channel=0 note=79 velocity=0 time=0.1843748770833333@note_on channel=0 note=71 velocity=126 time=0.003124997916666666@note_on channel=0 note=71 velocity=0 time=0.37187475208333326@note_on channel=0 note=72 velocity=126 time=0.003124997916666666@note_on channel=0 note=72 velocity=0 time=0.1843748770833333@note_on channel=0 note=74 velocity=126 time=0.003124997916666666@note_on channel=0 note=74 velocity=0 time=0.1843748770833333@note_on channel=0 note=72 velocity=126 time=0.003124997916666666@note_on channel=0 note=72 velocity=0 time=0.1843748770833333@note_on channel=0 note=71 velocity=126 time=0.003124997916666666@note_on channel=0 note=71 velocity=0 time=0.1843748770833333@note_on channel=0 note=72 velocity=126 time=0.003124997916666666@note_on channel=0 note=72 velocity=0 time=0.1843748770833333@note_on channel=0 note=75 velocity=126 time=0.003124997916666666@note_on channel=0 note=75 velocity=0 time=0.1843748770833333@note_on channel=0 note=67 velocity=126 time=0.003124997916666666@note_on channel=0 note=67 velocity=0 time=0.37187475208333326@note_on channel=0 note=68 velocity=126 time=0.003124997916666666@note_on channel=0 note=68 velocity=0 time=0.1843748770833333@note_on channel=0 note=71 velocity=126 time=0.003124997916666666@note_on channel=0 note=71 velocity=0 time=0.1843748770833333@note_on channel=0 note=68 velocity=126 time=0.003124997916666666@note_on channel=0 note=68 velocity=0 time=0.1843748770833333@note_on channel=0 note=67 velocity=126 time=0.003124997916666666@note_on channel=0 note=67 velocity=0 time=0.1843748770833333@note_on channel=0 note=68 velocity=126 time=0.003124997916666666@note_on channel=0 note=68 velocity=0 time=0.1843748770833333@note_on channel=0 note=72 velocity=126 time=0.003124997916666666@note_on channel=0 note=72 velocity=0 time=0.1843748770833333@note_on channel=0 note=75 velocity=126 time=0.003124997916666666@note_on channel=0 note=75 velocity=0 time=0.37187475208333326@note_on channel=2 note=67 velocity=126 time=0.003124997916666666@note_on channel=2 note=67 velocity=0 time=0.37187475208333326@note_on channel=2 note=66 velocity=126 time=0.003124997916666666@note_on channel=0 note=75 velocity=126 time=0.37499974999999997@note_on channel=1 note=72 velocity=126 time=0@note_on channel=3 note=60 velocity=126 time=0@note_on channel=4 note=45 velocity=126 time=0@note_on channel=0 note=75 velocity=0 time=0.7468745020833332@note_on channel=1 note=72 velocity=0 time=0@note_on channel=2 note=66 velocity=0 time=0@note_on channel=3 note=60 velocity=0 time=0@note_on channel=4 note=45 velocity=0 time=0@note_on channel=0 note=74 velocity=126 time=0.003124997916666666@note_on channel=1 note=70 velocity=126 time=0@note_on channel=2 note=67 velocity=126 time=0@note_on channel=3 note=62 velocity=126 time=0@note_on channel=4 note=46 velocity=126 time=0@note_on channel=1 note=70 velocity=0 time=0.7468745020833332@note_on channel=2 note=67 velocity=0 time=0@note_on channel=3 note=62 velocity=0 time=0@note_on channel=4 note=46 velocity=0 time=0@note_on channel=1 note=72 velocity=126 time=0.003124997916666666@note_on channel=2 note=69 velocity=126 time=0@note_on channel=3 note=57 velocity=126 time=0@note_on channel=4 note=42 velocity=126 time=0@note_on channel=1 note=72 velocity=0 time=0.7468745020833332@note_on channel=2 note=69 velocity=0 time=0@note_on channel=3 note=57 velocity=0 time=0@note_on channel=4 note=42 velocity=0 time=0@note_on channel=1 note=70 velocity=126 time=0.003124997916666666@note_on channel=2 note=67 velocity=126 time=0@note_on channel=3 note=58 velocity=126 time=0@note_on channel=4 note=43 velocity=126 time=0@note_on channel=2 note=67 velocity=0 time=0.7468745020833332@note_on channel=3 note=58 velocity=0 time=0@note_on channel=4 note=43 velocity=0 time=0@note_on channel=2 note=66 velocity=126 time=0.003124997916666666@note_on channel=3 note=62 velocity=126 time=0@note_on channel=4 note=38 velocity=126 time=0@note_on channel=3 note=62 velocity=0 time=0.37187475208333326@note_on channel=3 note=60 velocity=126 time=0.003124997916666666@note_on channel=2 note=66 velocity=0 time=0.37187475208333326@note_on channel=3 note=60 velocity=0 time=0@note_on channel=4 note=38 velocity=0 time=0@note_on channel=2 note=67 velocity=126 time=0.003124997916666666@note_on channel=3 note=58 velocity=126 time=0@note_on channel=4 note=39 velocity=126 time=0@note_on channel=3 note=58 velocity=0 time=0.37187475208333326@note_on channel=3 note=55 velocity=126 time=0.003124997916666666@note_on channel=0 note=74 velocity=0 time=0.37187475208333326@note_on channel=1 note=70 velocity=0 time=0@note_on channel=3 note=55 velocity=0 time=0@note_on channel=0 note=72 velocity=126 time=0.003124997916666666@note_on channel=1 note=69 velocity=126 time=0@note_on channel=3 note=60 velocity=126 time=0@note_on channel=3 note=60 velocity=0 time=0.37187475208333326@note_on channel=3 note=62 velocity=126 time=0.003124997916666666@note_on channel=3 note=62 velocity=0 time=0.1843748770833333@note_on channel=3 note=63 velocity=126 time=0.003124997916666666@note_on channel=2 note=67 velocity=0 time=0.1843748770833333@note_on channel=3 note=63 velocity=0 time=0@note_on channel=4 note=39 velocity=0 time=0@note_on channel=2 note=66 velocity=126 time=0.003124997916666666@note_on channel=3 note=57 velocity=126 time=0@note_on channel=4 note=38 velocity=126 time=0@note_on channel=1 note=69 velocity=0 time=1.496874002083333@note_on channel=2 note=66 velocity=0 time=0@note_on channel=3 note=57 velocity=0 time=0@note_on channel=0 note=72 velocity=0 time=0.37499974999999997@note_on channel=0 note=84 velocity=126 time=0.003124997916666666@note_on channel=0 note=84 velocity=0 time=0.37187475208333326@note_on channel=0 note=82 velocity=126 time=0.003124997916666666@note_on channel=0 note=82 velocity=0 time=0.1843748770833333@note_on channel=0 note=81 velocity=126 time=0.003124997916666666@note_on channel=0 note=81 velocity=0 time=0.1843748770833333@note_on channel=0 note=82 velocity=126 time=0.003124997916666666@note_on channel=0 note=82 velocity=0 time=0.1843748770833333@note_on channel=0 note=84 velocity=126 time=0.003124997916666666@note_on channel=0 note=84 velocity=0 time=0.1843748770833333@note_on channel=0 note=78 velocity=126 time=0.003124997916666666@note_on channel=0 note=78 velocity=0 time=0.37187475208333326@note_on channel=0 note=75 velocity=126 time=0.003124997916666666@note_on channel=1 note=66 velocity=126 time=0.37499974999999997@note_on channel=2 note=66 velocity=126 time=0@note_on channel=3 note=50 velocity=126 time=0@note_on channel=0 note=75 velocity=0 time=0.37187475208333326@note_on channel=0 note=74 velocity=126 time=0.003124997916666666@note_on channel=0 note=74 velocity=0 time=0.37187475208333326@note_on channel=1 note=66 velocity=0 time=0@note_on channel=2 note=66 velocity=0 time=0@note_on channel=3 note=50 velocity=0 time=0@note_on channel=0 note=73 velocity=126 time=0.003124997916666666@note_on channel=1 note=67 velocity=126 time=0@note_on channel=2 note=67 velocity=126 time=0@note_on channel=3 note=52 velocity=126 time=0@note_on channel=0 note=73 velocity=0 time=0.37187475208333326@note_on channel=0 note=82 velocity=126 time=0.003124997916666666@note_on channel=0 note=82 velocity=0 time=0.37187475208333326@note_on channel=1 note=67 velocity=0 time=0@note_on channel=2 note=67 velocity=0 time=0@note_on channel=3 note=52 velocity=0 time=0@note_on channel=0 note=81 velocity=126 time=0.003124997916666666@note_on channel=0 note=81 velocity=0 time=0.1843748770833333@note_on channel=0 note=79 velocity=126 time=0.003124997916666666@note_on channel=0 note=79 velocity=0 time=0.1843748770833333@note_on channel=0 note=81 velocity=126 time=0.003124997916666666@note_on channel=0 note=81 velocity=0 time=0.1843748770833333@note_on channel=0 note=82 velocity=126 time=0.003124997916666666@note_on channel=0 note=82 velocity=0 time=0.1843748770833333@note_on channel=0 note=75 velocity=126 time=0.003124997916666666@note_on channel=0 note=75 velocity=0 time=0.37187475208333326@note_on channel=0 note=74 velocity=126 time=0.003124997916666666@note_on channel=2 note=69 velocity=126 time=0.37499974999999997@note_on channel=3 note=50 velocity=126 time=0@note_on channel=0 note=74 velocity=0 time=0.37187475208333326@note_on channel=0 note=72 velocity=126 time=0.003124997916666666@note_on channel=0 note=72 velocity=0 time=0.37187475208333326@note_on channel=2 note=69 velocity=0 time=0@note_on channel=3 note=50 velocity=0 time=0@note_on channel=0 note=70 velocity=126 time=0.003124997916666666@note_on channel=2 note=70 velocity=126 time=0@note_on channel=3 note=52 velocity=126 time=0@note_on channel=1 note=69 velocity=126 time=0.18749987499999998@note_on channel=1 note=69 velocity=0 time=0.1843748770833333@note_on channel=1 note=67 velocity=126 time=0.003124997916666666@note_on channel=1 note=67 velocity=0 time=0.1843748770833333@note_on channel=1 note=66 velocity=126 time=0.003124997916666666@note_on channel=0 note=70 velocity=0 time=0.1843748770833333@note_on channel=1 note=66 velocity=0 time=0@note_on channel=2 note=70 velocity=0 time=0@note_on channel=3 note=52 velocity=0 time=0@note_on channel=1 note=67 velocity=126 time=0.003124997916666666@note_on channel=0 note=70 velocity=126 time=0.18749987499999998@note_on channel=0 note=70 velocity=0 time=0.1843748770833333@note_on channel=0 note=69 velocity=126 time=0.003124997916666666@note_on channel=0 note=69 velocity=0 time=0.1843748770833333@note_on channel=0 note=67 velocity=126 time=0.003124997916666666@note_on channel=0 note=67 velocity=0 time=0.1843748770833333@note_on channel=1 note=67 velocity=0 time=0@note_on channel=0 note=73 velocity=126 time=0.003124997916666666@note_on channel=1 note=70 velocity=126 time=0.18749987499999998@note_on channel=1 note=70 velocity=0 time=0.1843748770833333@note_on channel=1 note=69 velocity=126 time=0.003124997916666666@note_on channel=1 note=69 velocity=0 time=0.1843748770833333@note_on channel=1 note=67 velocity=126 time=0.003124997916666666@note_on channel=0 note=73 velocity=0 time=0.1843748770833333@note_on channel=1 note=67 velocity=0 time=0@note_on channel=0 note=74 velocity=126 time=0.003124997916666666@note_on channel=1 note=70 velocity=126 time=0.18749987499999998@note_on channel=1 note=70 velocity=0 time=0.1843748770833333@note_on channel=1 note=69 velocity=126 time=0.003124997916666666@note_on channel=1 note=69 velocity=0 time=0.1843748770833333@note_on channel=1 note=67 velocity=126 time=0.003124997916666666@note_on channel=0 note=74 velocity=0 time=0.1843748770833333@note_on channel=1 note=67 velocity=0 time=0@note_on channel=0 note=76 velocity=126 time=0.003124997916666666@note_on channel=0 note=76 velocity=0 time=0.7468745020833332@note_on channel=0 note=67 velocity=126 time=0.003124997916666666@note_on channel=1 note=63 velocity=126 time=0@note_on channel=2 note=61 velocity=126 time=0@note_on channel=3 note=58 velocity=126 time=0@note_on channel=0 note=67 velocity=0 time=1.496874002083333@note_on channel=1 note=63 velocity=0 time=0@note_on channel=2 note=61 velocity=0 time=0@note_on channel=3 note=58 velocity=0 time=0@note_on channel=0 note=66 velocity=126 time=0.003124997916666666@note_on channel=1 note=62 velocity=126 time=0@note_on channel=2 note=62 velocity=126 time=0@note_on channel=3 note=57 velocity=126 time=0@note_on channel=0 note=66 velocity=0 time=0.7468745020833332@note_on channel=1 note=62 velocity=0 time=0@note_on channel=2 note=62 velocity=0 time=0@note_on channel=3 note=57 velocity=0 time=0@note_on channel=4 note=38 velocity=0 time=0@note_on channel=0 note=62 velocity=126 time=0.3781247479166666@note_on channel=0 note=62 velocity=0 time=0.1843748770833333@note_on channel=0 note=64 velocity=126 time=0.003124997916666666@note_on channel=0 note=64 velocity=0 time=0.1843748770833333@note_on channel=0 note=66 velocity=126 time=0.003124997916666666@note_on channel=0 note=66 velocity=0 time=0.37187475208333326@note_on channel=0 note=66 velocity=126 time=0.003124997916666666@note_on channel=0 note=66 velocity=0 time=0.1843748770833333@note_on channel=0 note=67 velocity=126 time=0.003124997916666666@note_on channel=0 note=67 velocity=0 time=0.1843748770833333@note_on channel=0 note=69 velocity=126 time=0.003124997916666666@note_on channel=0 note=69 velocity=0 time=0.37187475208333326@note_on channel=0 note=69 velocity=126 time=0.003124997916666666@note_on channel=0 note=69 velocity=0 time=0.1843748770833333@note_on channel=0 note=70 velocity=126 time=0.003124997916666666@note_on channel=0 note=70 velocity=0 time=0.1843748770833333@note_on channel=0 note=72 velocity=126 time=0.003124997916666666@note_on channel=0 note=72 velocity=0 time=0.37187475208333326@note_on channel=0 note=72 velocity=126 time=0.003124997916666666@note_on channel=0 note=72 velocity=0 time=0.1843748770833333@note_on channel=0 note=74 velocity=126 time=0.003124997916666666@note_on channel=0 note=74 velocity=0 time=0.1843748770833333@note_on channel=2 note=75 velocity=126 time=0.003124997916666666@note_on channel=2 note=75 velocity=0 time=0.37187475208333326@note_on channel=2 note=74 velocity=126 time=0.003124997916666666@note_on channel=2 note=74 velocity=0 time=0.37187475208333326@note_on channel=0 note=78 velocity=126 time=0.003124997916666666@note_on channel=1 note=75 velocity=126 time=0@note_on channel=2 note=72 velocity=126 time=0@note_on channel=4 note=33 velocity=126 time=0@note_on channel=1 note=75 velocity=0 time=0.37187475208333326@note_on channel=1 note=74 velocity=126 time=0.003124997916666666@note_on channel=1 note=74 velocity=0 time=0.37187475208333326@note_on channel=2 note=72 velocity=0 time=0@note_on channel=4 note=33 velocity=0 time=0@note_on channel=1 note=75 velocity=126 time=0.003124997916666666@note_on channel=2 note=70 velocity=126 time=0@note_on channel=4 note=34 velocity=126 time=0@note_on channel=3 note=63 velocity=126 time=0.37499974999999997@note_on channel=3 note=63 velocity=0 time=0.1843748770833333@note_on channel=3 note=65 velocity=126 time=0.003124997916666666@note_on channel=3 note=65 velocity=0 time=0.1843748770833333@note_on channel=3 note=66 velocity=126 time=0.003124997916666666@note_on channel=3 note=66 velocity=0 time=0.1843748770833333@note_on channel=3 note=65 velocity=126 time=0.003124997916666666@note_on channel=3 note=65 velocity=0 time=0.1843748770833333@note_on channel=3 note=63 velocity=126 time=0.003124997916666666@note_on channel=2 note=70 velocity=0 time=0.37187475208333326@note_on channel=3 note=63 velocity=0 time=0@note_on channel=2 note=71 velocity=126 time=0.003124997916666666@note_on channel=3 note=68 velocity=126 time=0@note_on channel=0 note=78 velocity=0 time=0.7468745020833332@note_on channel=1 note=75 velocity=0 time=0@note_on channel=0 note=77 velocity=126 time=0.003124997916666666@note_on channel=1 note=74 velocity=126 time=0@note_on channel=2 note=71 velocity=0 time=0.7468745020833332@note_on channel=3 note=68 velocity=0 time=0@note_on channel=2 note=70 velocity=126 time=0.003124997916666666@note_on channel=3 note=66 velocity=126 time=0@note_on channel=0 note=77 velocity=0 time=0.7468745020833332@note_on channel=1 note=74 velocity=0 time=0@note_on channel=0 note=75 velocity=126 time=0.003124997916666666@note_on channel=1 note=75 velocity=126 time=0@note_on channel=0 note=75 velocity=0 time=0.7468745020833332@note_on channel=2 note=70 velocity=0 time=0@note_on channel=3 note=66 velocity=0 time=0@note_on channel=0 note=80 velocity=126 time=0.003124997916666666@note_on channel=2 note=68 velocity=126 time=0@note_on channel=3 note=65 velocity=126 time=0@note_on channel=1 note=75 velocity=0 time=0.7468745020833332@note_on channel=1 note=74 velocity=126 time=0.003124997916666666@note_on channel=0 note=80 velocity=0 time=0.7468745020833332@note_on channel=1 note=74 velocity=0 time=0@note_on channel=2 note=68 velocity=0 time=0@note_on channel=3 note=65 velocity=0 time=0@note_on channel=0 note=82 velocity=126 time=0.003124997916666666@note_on channel=1 note=75 velocity=126 time=0@note_on channel=2 note=66 velocity=126 time=0@note_on channel=3 note=65 velocity=126 time=0@note_on channel=3 note=65 velocity=0 time=0.7468745020833332@note_on channel=3 note=63 velocity=126 time=0.003124997916666666@note_on channel=0 note=82 velocity=0 time=0.7468745020833332@note_on channel=1 note=75 velocity=0 time=0@note_on channel=2 note=66 velocity=0 time=0@note_on channel=0 note=80 velocity=126 time=0.003124997916666666@note_on channel=1 note=77 velocity=126 time=0@note_on channel=2 note=65 velocity=126 time=0@note_on channel=3 note=63 velocity=0 time=0.7468745020833332@note_on channel=3 note=62 velocity=126 time=0.003124997916666666@note_on channel=3 note=62 velocity=0 time=0.1843748770833333@note_on channel=3 note=63 velocity=126 time=0.003124997916666666@note_on channel=3 note=63 velocity=0 time=0.1843748770833333@note_on channel=3 note=60 velocity=126 time=0.003124997916666666@note_on channel=3 note=60 velocity=0 time=0.37187475208333326@note_on channel=4 note=34 velocity=0 time=0@note_on channel=3 note=62 velocity=126 time=0.003124997916666666@note_on channel=4 note=35 velocity=126 time=0@note_on channel=0 note=80 velocity=0 time=0.7468745020833332@note_on channel=1 note=77 velocity=0 time=0@note_on channel=2 note=65 velocity=0 time=0@note_on channel=3 note=62 velocity=0 time=0@note_on channel=0 note=78 velocity=126 time=0.003124997916666666@note_on channel=1 note=75 velocity=126 time=0@note_on channel=2 note=66 velocity=126 time=0@note_on channel=3 note=63 velocity=126 time=0@note_on channel=0 note=78 velocity=0 time=0.37187475208333326@note_on channel=1 note=75 velocity=0 time=0@note_on channel=0 note=77 velocity=126 time=0.003124997916666666@note_on channel=1 note=74 velocity=126 time=0@note_on channel=0 note=77 velocity=0 time=0.37187475208333326@note_on channel=1 note=74 velocity=0 time=0@note_on channel=2 note=66 velocity=0 time=0@note_on channel=3 note=63 velocity=0 time=0@note_on channel=4 note=35 velocity=0 time=0@note_on channel=0 note=78 velocity=126 time=0.003124997916666666@note_on channel=1 note=75 velocity=126 time=0@note_on channel=4 note=36 velocity=126 time=0@note_on channel=2 note=69 velocity=126 time=0.7499994999999999@note_on channel=3 note=63 velocity=126 time=0@note_on channel=2 note=69 velocity=0 time=0.7468745020833332@note_on channel=3 note=63 velocity=0 time=0@note_on channel=4 note=36 velocity=0 time=0@note_on channel=2 note=70 velocity=126 time=0.003124997916666666@note_on channel=3 note=65 velocity=126 time=0@note_on channel=4 note=37 velocity=126 time=0@note_on channel=0 note=78 velocity=0 time=0.7468745020833332@note_on channel=1 note=75 velocity=0 time=0@note_on channel=0 note=77 velocity=126 time=0.003124997916666666@note_on channel=1 note=73 velocity=126 time=0@note_on channel=1 note=73 velocity=0 time=0.37187475208333326@note_on channel=1 note=72 velocity=126 time=0.003124997916666666@note_on channel=1 note=72 velocity=0 time=0.37187475208333326@note_on channel=2 note=70 velocity=0 time=0@note_on channel=4 note=37 velocity=0 time=0@note_on channel=1 note=71 velocity=126 time=0.003124997916666666@note_on channel=4 note=38 velocity=126 time=0@note_on channel=2 note=68 velocity=126 time=0.37499974999999997@note_on channel=2 note=68 velocity=0 time=0.37187475208333326@note_on channel=2 note=67 velocity=126 time=0.003124997916666666@note_on channel=2 note=67 velocity=0 time=0.37187475208333326@note_on channel=2 note=65 velocity=126 time=0.003124997916666666@note_on channel=0 note=77 velocity=0 time=0.37187475208333326@note_on channel=2 note=65 velocity=0 time=0@note_on channel=3 note=65 velocity=0 time=0@note_on channel=4 note=38 velocity=0 time=0@note_on channel=0 note=77 velocity=126 time=0.003124997916666666@note_on channel=2 note=67 velocity=126 time=0@note_on channel=4 note=39 velocity=126 time=0@note_on channel=1 note=71 velocity=0 time=0.37187475208333326@note_on channel=1 note=71 velocity=126 time=0.003124997916666666@note_on channel=1 note=71 velocity=0 time=0.37187475208333326@note_on channel=1 note=72 velocity=126 time=0.003124997916666666@note_on channel=3 note=55 velocity=126 time=0@note_on channel=0 note=77 velocity=0 time=0.37187475208333326@note_on channel=0 note=75 velocity=126 time=0.003124997916666666@note_on channel=0 note=75 velocity=0 time=0.37187475208333326@note_on channel=2 note=67 velocity=0 time=0@note_on channel=4 note=39 velocity=0 time=0@note_on channel=0 note=79 velocity=126 time=0.003124997916666666@note_on channel=4 note=40 velocity=126 time=0@note_on channel=3 note=55 velocity=0 time=0.37187475208333326@note_on channel=3 note=56 velocity=126 time=0.003124997916666666@note_on channel=1 note=72 velocity=0 time=0.37187475208333326@note_on channel=3 note=56 velocity=0 time=0@note_on channel=1 note=73 velocity=126 time=0.003124997916666666@note_on channel=2 note=64 velocity=126 time=0@note_on channel=3 note=58 velocity=126 time=0@note_on channel=4 note=40 velocity=0 time=0.7468745020833332@note_on channel=4 note=32 velocity=126 time=0.003124997916666666@note_on channel=0 note=79 velocity=0 time=0.7468745020833332@note_on channel=1 note=73 velocity=0 time=0@note_on channel=2 note=64 velocity=0 time=0@note_on channel=3 note=58 velocity=0 time=0@note_on channel=0 note=77 velocity=126 time=0.003124997916666666@note_on channel=1 note=72 velocity=126 time=0@note_on channel=2 note=65 velocity=126 time=0@note_on channel=3 note=56 velocity=126 time=0@note_on channel=0 note=77 velocity=0 time=0.7468745020833332@note_on channel=1 note=72 velocity=0 time=0@note_on channel=2 note=65 velocity=0 time=0@note_on channel=3 note=56 velocity=0 time=0@note_on channel=4 note=32 velocity=0 time=0@note_on channel=0 note=65 velocity=126 time=0.3781247479166666@note_on channel=0 note=65 velocity=0 time=0.1843748770833333@note_on channel=0 note=67 velocity=126 time=0.003124997916666666@note_on channel=0 note=67 velocity=0 time=0.1843748770833333@note_on channel=0 note=68 velocity=126 time=0.003124997916666666@note_on channel=0 note=68 velocity=0 time=0.1843748770833333@note_on channel=0 note=70 velocity=126 time=0.003124997916666666@note_on channel=0 note=70 velocity=0 time=0.1843748770833333@note_on channel=0 note=72 velocity=126 time=0.003124997916666666@note_on channel=0 note=72 velocity=0 time=0.1843748770833333@note_on channel=0 note=74 velocity=126 time=0.003124997916666666@note_on channel=0 note=74 velocity=0 time=0.1843748770833333@note_on channel=0 note=75 velocity=126 time=0.003124997916666666@note_on channel=0 note=75 velocity=0 time=0.1843748770833333@note_on channel=0 note=74 velocity=126 time=0.003124997916666666@note_on channel=0 note=74 velocity=0 time=0.1843748770833333@note_on channel=0 note=72 velocity=126 time=0.003124997916666666@note_on channel=0 note=72 velocity=0 time=0.1843748770833333@note_on channel=0 note=71 velocity=126 time=0.003124997916666666@note_on channel=0 note=71 velocity=0 time=0.1843748770833333@note_on channel=0 note=72 velocity=126 time=0.003124997916666666@note_on channel=0 note=72 velocity=0 time=0.1843748770833333@note_on channel=0 note=78 velocity=126 time=0.003124997916666666@note_on channel=0 note=78 velocity=0 time=0.1843748770833333@note_on channel=0 note=79 velocity=126 time=0.003124997916666666@note_on channel=0 note=79 velocity=0 time=0.1843748770833333@note_on channel=0 note=81 velocity=126 time=0.003124997916666666@note_on channel=0 note=81 velocity=0 time=0.1843748770833333@note_on channel=0 note=79 velocity=126 time=0.003124997916666666@note_on channel=0 note=79 velocity=0 time=0.1843748770833333@note_on channel=0 note=78 velocity=126 time=0.003124997916666666@note_on channel=0 note=78 velocity=0 time=0.1843748770833333@note_on channel=0 note=76 velocity=126 time=0.003124997916666666@note_on channel=0 note=76 velocity=0 time=0.1843748770833333@note_on channel=0 note=74 velocity=126 time=0.003124997916666666@note_on channel=0 note=74 velocity=0 time=0.1843748770833333@note_on channel=0 note=86 velocity=126 time=0.003124997916666666@note_on channel=2 note=62 velocity=126 time=0@note_on channel=3 note=57 velocity=126 time=0@note_on channel=4 note=26 velocity=126 time=0@note_on channel=0 note=86 velocity=0 time=0.37187475208333326@note_on channel=0 note=78 velocity=126 time=0.003124997916666666@note_on channel=1 note=72 velocity=126 time=0@note_on channel=0 note=78 velocity=0 time=0.37187475208333326@note_on channel=1 note=72 velocity=0 time=0@note_on channel=2 note=62 velocity=0 time=0@note_on channel=3 note=57 velocity=0 time=0@note_on channel=4 note=26 velocity=0 time=0@note_on channel=0 note=78 velocity=126 time=0.003124997916666666@note_on channel=1 note=72 velocity=126 time=0@note_on channel=2 note=62 velocity=126 time=0@note_on channel=3 note=55 velocity=126 time=0@note_on channel=4 note=31 velocity=126 time=0@note_on channel=0 note=78 velocity=0 time=0.7468745020833332@note_on channel=1 note=72 velocity=0 time=0@<meta message set_tempo tempo=3000003 time=0.003124997916666666>@note_on channel=0 note=79 velocity=126 time=0@note_on channel=1 note=71 velocity=126 time=0@note_on channel=0 note=79 velocity=0 time=1.4937514937499998@note_on channel=1 note=71 velocity=0 time=0@note_on channel=2 note=62 velocity=0 time=0@note_on channel=3 note=55 velocity=0 time=0@note_on channel=4 note=31 velocity=0 time=0@<meta message set_tempo tempo=1499999 time=0.00625000625>@note_on channel=4 note=43 velocity=49 time=0@note_on channel=2 note=70 velocity=49 time=0.7499994999999999@note_on channel=2 note=70 velocity=0 time=0.37187475208333326@note_on channel=2 note=67 velocity=49 time=0.003124997916666666@note_on channel=2 note=67 velocity=0 time=0.37187475208333326@note_on channel=2 note=64 velocity=49 time=0.003124997916666666@note_on channel=2 note=64 velocity=0 time=0.37187475208333326@note_on channel=2 note=65 velocity=49 time=0.003124997916666666@note_on channel=2 note=65 velocity=0 time=0.37187475208333326@note_on channel=4 note=43 velocity=0 time=0@note_on channel=0 note=82 velocity=49 time=0.003124997916666666@note_on channel=1 note=73 velocity=49 time=0@note_on channel=2 note=67 velocity=49 time=0@note_on channel=3 note=52 velocity=49 time=0@note_on channel=4 note=40 velocity=49 time=0@note_on channel=0 note=82 velocity=0 time=0.37187475208333326@note_on channel=0 note=79 velocity=49 time=0.003124997916666666@note_on channel=0 note=79 velocity=0 time=0.37187475208333326@note_on channel=3 note=52 velocity=0 time=0@note_on channel=4 note=40 velocity=0 time=0@note_on channel=0 note=76 velocity=49 time=0.003124997916666666@note_on channel=3 note=48 velocity=49 time=0@note_on channel=4 note=36 velocity=49 time=0@note_on channel=0 note=76 velocity=0 time=0.37187475208333326@note_on channel=0 note=78 velocity=49 time=0.003124997916666666@note_on channel=0 note=78 velocity=0 time=0.37187475208333326@note_on channel=1 note=73 velocity=0 time=0@note_on channel=3 note=48 velocity=0 time=0@note_on channel=4 note=36 velocity=0 time=0@note_on channel=0 note=79 velocity=49 time=0.003124997916666666@note_on channel=1 note=72 velocity=49 time=0@note_on channel=3 note=52 velocity=49 time=0@note_on channel=4 note=40 velocity=49 time=0@note_on channel=1 note=72 velocity=0 time=0.37187475208333326@note_on channel=1 note=70 velocity=49 time=0.003124997916666666@note_on channel=0 note=79 velocity=0 time=0.37187475208333326@note_on channel=1 note=70 velocity=0 time=0@note_on channel=2 note=67 velocity=0 time=0@note_on channel=3 note=52 velocity=0 time=0@note_on channel=4 note=40 velocity=0 time=0@note_on channel=0 note=72 velocity=49 time=0.003124997916666666@note_on channel=1 note=70 velocity=49 time=0@note_on channel=2 note=67 velocity=49 time=0@note_on channel=3 note=44 velocity=49 time=0@note_on channel=4 note=32 velocity=49 time=0@note_on channel=0 note=72 velocity=0 time=0.37187475208333326@note_on channel=0 note=76 velocity=49 time=0.003124997916666666@note_on channel=0 note=76 velocity=0 time=0.37187475208333326@note_on channel=1 note=70 velocity=0 time=0@note_on channel=2 note=67 velocity=0 time=0@note_on channel=3 note=44 velocity=0 time=0@note_on channel=4 note=32 velocity=0 time=0@note_on channel=0 note=77 velocity=49 time=0.003124997916666666@note_on channel=1 note=68 velocity=49 time=0@note_on channel=2 note=65 velocity=49 time=0@note_on channel=3 note=48 velocity=49 time=0@note_on channel=4 note=36 velocity=49 time=0@note_on channel=1 note=68 velocity=0 time=0.37187475208333326@note_on channel=2 note=65 velocity=0 time=0@note_on channel=1 note=67 velocity=49 time=0.003124997916666666@note_on channel=2 note=64 velocity=49 time=0@note_on channel=0 note=77 velocity=0 time=0.37187475208333326@note_on channel=1 note=67 velocity=0 time=0@note_on channel=2 note=64 velocity=0 time=0@note_on channel=3 note=48 velocity=0 time=0@note_on channel=4 note=36 velocity=0 time=0@note_on channel=0 note=77 velocity=49 time=0.003124997916666666@note_on channel=1 note=68 velocity=49 time=0@note_on channel=2 note=65 velocity=49 time=0@note_on channel=3 note=44 velocity=49 time=0@note_on channel=4 note=32 velocity=49 time=0@note_on channel=0 note=77 velocity=0 time=0.37187475208333326@note_on channel=0 note=79 velocity=49 time=0.003124997916666666@note_on channel=0 note=79 velocity=0 time=0.37187475208333326@note_on channel=1 note=68 velocity=0 time=0@note_on channel=2 note=65 velocity=0 time=0@note_on channel=3 note=44 velocity=0 time=0@note_on channel=4 note=32 velocity=0 time=0@note_on channel=0 note=80 velocity=49 time=0.003124997916666666@note_on channel=1 note=77 velocity=49 time=0@note_on channel=3 note=41 velocity=49 time=0@note_on channel=4 note=29 velocity=49 time=0@note_on channel=1 note=77 velocity=0 time=0.37187475208333326@note_on channel=1 note=74 velocity=49 time=0.003124997916666666@note_on channel=1 note=74 velocity=0 time=0.37187475208333326@note_on channel=3 note=41 velocity=0 time=0@note_on channel=4 note=29 velocity=0 time=0@note_on channel=1 note=71 velocity=49 time=0.003124997916666666@note_on channel=3 note=50 velocity=49 time=0@note_on channel=4 note=38 velocity=49 time=0@note_on channel=1 note=71 velocity=0 time=0.37187475208333326@note_on channel=1 note=72 velocity=49 time=0.003124997916666666@note_on channel=1 note=72 velocity=0 time=0.37187475208333326@note_on channel=3 note=50 velocity=0 time=0@note_on channel=4 note=38 velocity=0 time=0@note_on channel=1 note=74 velocity=49 time=0.003124997916666666@note_on channel=2 note=65 velocity=49 time=0@note_on channel=3 note=47 velocity=49 time=0@note_on channel=4 note=35 velocity=49 time=0@note_on channel=2 note=65 velocity=0 time=0.37187475208333326@note_on channel=2 note=62 velocity=49 time=0.003124997916666666@note_on channel=2 note=62 velocity=0 time=0.37187475208333326@note_on channel=3 note=47 velocity=0 time=0@note_on channel=4 note=35 velocity=0 time=0@note_on channel=2 note=59 velocity=49 time=0.003124997916666666@note_on channel=3 note=43 velocity=49 time=0@note_on channel=4 note=31 velocity=49 time=0@note_on channel=2 note=59 velocity=0 time=0.37187475208333326@note_on channel=2 note=60 velocity=49 time=0.003124997916666666@note_on channel=0 note=80 velocity=0 time=0.37187475208333326@note_on channel=2 note=60 velocity=0 time=0@note_on channel=3 note=43 velocity=0 time=0@note_on channel=4 note=31 velocity=0 time=0@note_on channel=0 note=79 velocity=49 time=0.003124997916666666@note_on channel=2 note=62 velocity=49 time=0@note_on channel=3 note=47 velocity=49 time=0@note_on channel=4 note=35 velocity=49 time=0@note_on channel=0 note=79 velocity=0 time=0.37187475208333326@note_on channel=0 note=77 velocity=49 time=0.003124997916666666@note_on channel=0 note=77 velocity=0 time=0.37187475208333326@note_on channel=1 note=74 velocity=0 time=0@note_on channel=2 note=62 velocity=0 time=0@note_on channel=3 note=47 velocity=0 time=0@note_on channel=4 note=35 velocity=0 time=0@note_on channel=0 note=77 velocity=49 time=0.003124997916666666@note_on channel=1 note=74 velocity=49 time=0@note_on channel=2 note=55 velocity=49 time=0@note_on channel=3 note=39 velocity=49 time=0@note_on channel=4 note=27 velocity=49 time=0@note_on channel=2 note=55 velocity=0 time=0.37187475208333326@note_on channel=2 note=59 velocity=49 time=0.003124997916666666@note_on channel=0 note=77 velocity=0 time=0.37187475208333326@note_on channel=1 note=74 velocity=0 time=0@note_on channel=2 note=59 velocity=0 time=0@note_on channel=3 note=39 velocity=0 time=0@note_on channel=4 note=27 velocity=0 time=0@note_on channel=0 note=75 velocity=49 time=0.003124997916666666@note_on channel=1 note=72 velocity=49 time=0@note_on channel=2 note=60 velocity=49 time=0@note_on channel=3 note=43 velocity=49 time=0@note_on channel=4 note=31 velocity=49 time=0@note_on channel=0 note=75 velocity=0 time=0.37187475208333326@note_on channel=1 note=72 velocity=0 time=0@note_on channel=0 note=74 velocity=49 time=0.003124997916666666@note_on channel=1 note=71 velocity=49 time=0@note_on channel=0 note=74 velocity=0 time=0.37187475208333326@note_on channel=1 note=71 velocity=0 time=0@note_on channel=3 note=43 velocity=0 time=0@note_on channel=4 note=31 velocity=0 time=0@note_on channel=0 note=75 velocity=49 time=0.003124997916666666@note_on channel=1 note=72 velocity=49 time=0@note_on channel=3 note=39 velocity=49 time=0@note_on channel=4 note=27 velocity=49 time=0@note_on channel=1 note=72 velocity=0 time=0.37187475208333326@note_on channel=1 note=74 velocity=49 time=0.003124997916666666@note_on channel=0 note=75 velocity=0 time=0.37187475208333326@note_on channel=1 note=74 velocity=0 time=0@note_on channel=2 note=60 velocity=0 time=0@note_on channel=3 note=39 velocity=0 time=0@note_on channel=4 note=27 velocity=0 time=0@note_on channel=1 note=75 velocity=49 time=0.003124997916666666@note_on channel=2 note=55 velocity=49 time=0@note_on channel=3 note=36 velocity=49 time=0@note_on channel=4 note=24 velocity=49 time=0@note_on channel=1 note=75 velocity=0 time=0.37187475208333326@note_on channel=1 note=72 velocity=49 time=0.003124997916666666@note_on channel=1 note=72 velocity=0 time=0.37187475208333326@note_on channel=2 note=55 velocity=0 time=0@note_on channel=3 note=36 velocity=0 time=0@note_on channel=4 note=24 velocity=0 time=0@note_on channel=1 note=66 velocity=49 time=0.003124997916666666@note_on channel=2 note=60 velocity=49 time=0@note_on channel=3 note=45 velocity=49 time=0@note_on channel=4 note=33 velocity=49 time=0@note_on channel=1 note=66 velocity=0 time=0.37187475208333326@note_on channel=1 note=67 velocity=49 time=0.003124997916666666@note_on channel=1 note=67 velocity=0 time=0.37187475208333326@note_on channel=2 note=60 velocity=0 time=0@note_on channel=3 note=45 velocity=0 time=0@note_on channel=4 note=33 velocity=0 time=0@note_on channel=0 note=84 velocity=49 time=0.003124997916666666@note_on channel=1 note=69 velocity=49 time=0@note_on channel=2 note=63 velocity=49 time=0@note_on channel=3 note=42 velocity=49 time=0@note_on channel=4 note=30 velocity=49 time=0@note_on channel=0 note=84 velocity=0 time=0.37187475208333326@note_on channel=0 note=81 velocity=49 time=0.003124997916666666@note_on channel=0 note=81 velocity=0 time=0.37187475208333326@note_on channel=3 note=42 velocity=0 time=0@note_on channel=4 note=30 velocity=0 time=0@note_on channel=0 note=78 velocity=49 time=0.003124997916666666@note_on channel=3 note=38 velocity=49 time=0@note_on channel=4 note=26 velocity=49 time=0@note_on channel=0 note=78 velocity=0 time=0.37187475208333326@note_on channel=0 note=79 velocity=49 time=0.003124997916666666@note_on channel=0 note=79 velocity=0 time=0.37187475208333326@note_on channel=2 note=63 velocity=0 time=0@note_on channel=3 note=38 velocity=0 time=0@note_on channel=4 note=26 velocity=0 time=0@note_on channel=0 note=81 velocity=49 time=0.003124997916666666@note_on channel=2 note=62 velocity=49 time=0@note_on channel=3 note=42 velocity=49 time=0@note_on channel=4 note=30 velocity=49 time=0@note_on channel=2 note=62 velocity=0 time=0.37187475208333326@note_on channel=2 note=60 velocity=49 time=0.003124997916666666@note_on channel=0 note=81 velocity=0 time=0.37187475208333326@note_on channel=1 note=69 velocity=0 time=0@note_on channel=2 note=60 velocity=0 time=0@note_on channel=3 note=42 velocity=0 time=0@note_on channel=4 note=30 velocity=0 time=0@note_on channel=0 note=74 velocity=49 time=0.003124997916666666@note_on channel=1 note=69 velocity=49 time=0@note_on channel=2 note=62 velocity=49 time=0@note_on channel=3 note=46 velocity=49 time=0@note_on channel=4 note=34 velocity=49 time=0@note_on channel=0 note=74 velocity=0 time=0.7468745020833332@note_on channel=1 note=69 velocity=0 time=0@note_on channel=3 note=46 velocity=0 time=0@note_on channel=4 note=34 velocity=0 time=0@note_on channel=0 note=82 velocity=49 time=0.003124997916666666@note_on channel=1 note=74 velocity=49 time=0@note_on channel=3 note=43 velocity=49 time=0@note_on channel=4 note=31 velocity=49 time=0@note_on channel=1 note=74 velocity=0 time=0.37187475208333326@note_on channel=1 note=70 velocity=49 time=0.003124997916666666@note_on channel=1 note=70 velocity=0 time=0.37187475208333326@note_on channel=3 note=43 velocity=0 time=0@note_on channel=4 note=31 velocity=0 time=0@note_on channel=1 note=67 velocity=49 time=0.003124997916666666@note_on channel=3 note=40 velocity=49 time=0@note_on channel=4 note=28 velocity=49 time=0@note_on channel=0 note=82 velocity=0 time=0.37187475208333326@note_on channel=1 note=67 velocity=0 time=0@note_on channel=0 note=81 velocity=49 time=0.003124997916666666@note_on channel=1 note=69 velocity=49 time=0@note_on channel=0 note=81 velocity=0 time=0.37187475208333326@note_on channel=1 note=69 velocity=0 time=0@note_on channel=3 note=40 velocity=0 time=0@note_on channel=4 note=28 velocity=0 time=0@note_on channel=0 note=79 velocity=49 time=0.003124997916666666@note_on channel=1 note=70 velocity=49 time=0@note_on channel=3 note=43 velocity=49 time=0@note_on channel=4 note=31 velocity=49 time=0@note_on channel=0 note=79 velocity=0 time=0.37187475208333326@note_on channel=0 note=77 velocity=49 time=0.003124997916666666@note_on channel=0 note=77 velocity=0 time=0.37187475208333326@note_on channel=3 note=43 velocity=0 time=0@note_on channel=4 note=31 velocity=0 time=0@note_on channel=0 note=75 velocity=49 time=0.003124997916666666@note_on channel=3 note=48 velocity=49 time=0@note_on channel=4 note=36 velocity=49 time=0@note_on channel=1 note=70 velocity=0 time=0.7468745020833332@note_on channel=2 note=62 velocity=0 time=0@note_on channel=3 note=48 velocity=0 time=0@note_on channel=4 note=36 velocity=0 time=0@note_on channel=1 note=67 velocity=49 time=0.003124997916666666@note_on channel=2 note=63 velocity=49 time=0@note_on channel=3 note=45 velocity=49 time=0@note_on channel=4 note=33 velocity=49 time=0@note_on channel=1 note=67 velocity=0 time=0.37187475208333326@note_on channel=2 note=63 velocity=0 time=0@note_on channel=1 note=72 velocity=49 time=0.003124997916666666@note_on channel=2 note=60 velocity=49 time=0@note_on channel=2 note=60 velocity=0 time=0.37187475208333326@note_on channel=3 note=45 velocity=0 time=0@note_on channel=4 note=33 velocity=0 time=0@note_on channel=2 note=57 velocity=49 time=0.003124997916666666@note_on channel=3 note=42 velocity=49 time=0@note_on channel=4 note=30 velocity=49 time=0@note_on channel=1 note=72 velocity=0 time=0.37187475208333326@note_on channel=2 note=57 velocity=0 time=0@note_on channel=1 note=70 velocity=49 time=0.003124997916666666@note_on channel=2 note=58 velocity=49 time=0@note_on channel=1 note=70 velocity=0 time=0.37187475208333326@note_on channel=2 note=58 velocity=0 time=0@note_on channel=3 note=42 velocity=0 time=0@note_on channel=4 note=30 velocity=0 time=0@note_on channel=1 note=69 velocity=49 time=0.003124997916666666@note_on channel=2 note=60 velocity=49 time=0@note_on channel=3 note=45 velocity=49 time=0@note_on channel=4 note=33 velocity=49 time=0@note_on channel=1 note=69 velocity=0 time=0.37187475208333326@note_on channel=1 note=67 velocity=49 time=0.003124997916666666@note_on channel=1 note=67 velocity=0 time=0.37187475208333326@note_on channel=3 note=45 velocity=0 time=0@note_on channel=4 note=33 velocity=0 time=0@note_on channel=1 note=66 velocity=49 time=0.003124997916666666@note_on channel=3 note=50 velocity=49 time=0@note_on channel=4 note=38 velocity=49 time=0@note_on channel=2 note=60 velocity=0 time=0.37187475208333326@note_on channel=2 note=57 velocity=49 time=0.003124997916666666@note_on channel=0 note=75 velocity=0 time=0.37187475208333326@note_on channel=1 note=66 velocity=0 time=0@note_on channel=2 note=57 velocity=0 time=0@note_on channel=3 note=50 velocity=0 time=0@note_on channel=4 note=38 velocity=0 time=0@note_on channel=0 note=74 velocity=49 time=0.003124997916666666@note_on channel=1 note=67 velocity=49 time=0@note_on channel=2 note=62 velocity=49 time=0@note_on channel=3 note=46 velocity=49 time=0@note_on channel=4 note=34 velocity=49 time=0@note_on channel=0 note=74 velocity=0 time=0.37187475208333326@note_on channel=1 note=67 velocity=0 time=0@note_on channel=0 note=72 velocity=49 time=0.003124997916666666@note_on channel=1 note=69 velocity=49 time=0@note_on channel=0 note=72 velocity=0 time=0.37187475208333326@note_on channel=1 note=69 velocity=0 time=0@note_on channel=3 note=46 velocity=0 time=0@note_on channel=4 note=34 velocity=0 time=0@note_on channel=0 note=70 velocity=49 time=0.003124997916666666@note_on channel=1 note=70 velocity=49 time=0@note_on channel=3 note=43 velocity=49 time=0@note_on channel=4 note=31 velocity=49 time=0@note_on channel=0 note=70 velocity=0 time=0.37187475208333326@note_on channel=2 note=62 velocity=0 time=0@note_on channel=0 note=72 velocity=49 time=0.003124997916666666@note_on channel=2 note=60 velocity=49 time=0@note_on channel=0 note=72 velocity=0 time=0.37187475208333326@note_on channel=2 note=60 velocity=0 time=0@note_on channel=3 note=43 velocity=0 time=0@note_on channel=4 note=31 velocity=0 time=0@note_on channel=0 note=74 velocity=49 time=0.003124997916666666@note_on channel=2 note=58 velocity=49 time=0@note_on channel=3 note=46 velocity=49 time=0@note_on channel=4 note=34 velocity=49 time=0@note_on channel=2 note=58 velocity=0 time=0.37187475208333326@note_on channel=2 note=57 velocity=49 time=0.003124997916666666@note_on channel=2 note=57 velocity=0 time=0.37187475208333326@note_on channel=3 note=46 velocity=0 time=0@note_on channel=4 note=34 velocity=0 time=0@note_on channel=2 note=55 velocity=49 time=0.003124997916666666@note_on channel=3 note=39 velocity=49 time=0@note_on channel=4 note=27 velocity=49 time=0@note_on channel=2 note=55 velocity=0 time=0.37187475208333326@note_on channel=2 note=58 velocity=49 time=0.003124997916666666@note_on channel=0 note=74 velocity=0 time=0.37187475208333326@note_on channel=1 note=70 velocity=0 time=0@note_on channel=2 note=58 velocity=0 time=0@note_on channel=0 note=72 velocity=49 time=0.003124997916666666@note_on channel=1 note=69 velocity=49 time=0@note_on channel=2 note=60 velocity=49 time=0@note_on channel=1 note=69 velocity=0 time=0.37187475208333326@note_on channel=1 note=67 velocity=49 time=0.003124997916666666@note_on channel=1 note=67 velocity=0 time=0.37187475208333326@note_on channel=1 note=69 velocity=49 time=0.003124997916666666@note_on channel=1 note=69 velocity=0 time=0.37187475208333326@note_on channel=2 note=60 velocity=0 time=0@note_on channel=1 note=66 velocity=49 time=0.003124997916666666@note_on channel=2 note=62 velocity=49 time=0@note_on channel=1 note=66 velocity=0 time=0.37187475208333326@note_on channel=2 note=62 velocity=0 time=0@note_on channel=1 note=67 velocity=49 time=0.003124997916666666@note_on channel=2 note=63 velocity=49 time=0@note_on channel=2 note=63 velocity=0 time=0.37187475208333326@note_on channel=2 note=60 velocity=49 time=0.003124997916666666@note_on channel=0 note=72 velocity=0 time=0.37187475208333326@note_on channel=1 note=67 velocity=0 time=0@note_on channel=2 note=60 velocity=0 time=0@note_on channel=3 note=39 velocity=0 time=0@note_on channel=4 note=27 velocity=0 time=0@note_on channel=0 note=72 velocity=49 time=0.003124997916666666@note_on channel=1 note=67 velocity=49 time=0@note_on channel=2 note=55 velocity=49 time=0@note_on channel=4 note=26 velocity=49 time=0@note_on channel=1 note=67 velocity=0 time=0.37187475208333326@note_on channel=1 note=64 velocity=49 time=0.003124997916666666@note_on channel=1 note=64 velocity=0 time=0.37187475208333326@note_on channel=2 note=55 velocity=0 time=0@note_on channel=1 note=66 velocity=49 time=0.003124997916666666@note_on channel=2 note=62 velocity=49 time=0@note_on channel=1 note=66 velocity=0 time=0.37187475208333326@note_on channel=2 note=62 velocity=0 time=0@note_on channel=1 note=69 velocity=49 time=0.003124997916666666@note_on channel=2 note=60 velocity=49 time=0@note_on channel=1 note=69 velocity=0 time=0.37187475208333326@note_on channel=2 note=60 velocity=0 time=0@note_on channel=1 note=62 velocity=49 time=0.003124997916666666@note_on channel=2 note=58 velocity=49 time=0@note_on channel=0 note=72 velocity=0 time=0.37187475208333326@note_on channel=2 note=58 velocity=0 time=0@note_on channel=0 note=72 velocity=49 time=0.003124997916666666@note_on channel=2 note=57 velocity=49 time=0@note_on channel=0 note=72 velocity=0 time=0.37187475208333326@note_on channel=2 note=57 velocity=0 time=0@note_on channel=0 note=70 velocity=49 time=0.003124997916666666@note_on channel=2 note=55 velocity=49 time=0@note_on channel=0 note=70 velocity=0 time=0.37187475208333326@note_on channel=2 note=55 velocity=0 time=0@note_on channel=0 note=69 velocity=49 time=0.003124997916666666@note_on channel=2 note=54 velocity=49 time=0@note_on channel=0 note=69 velocity=0 time=0.37187475208333326@note_on channel=2 note=54 velocity=0 time=0@note_on channel=0 note=70 velocity=49 time=0.003124997916666666@note_on channel=2 note=55 velocity=49 time=0@note_on channel=3 note=55 velocity=49 time=0@note_on channel=0 note=70 velocity=0 time=0.37187475208333326@note_on channel=3 note=55 velocity=0 time=0@note_on channel=0 note=66 velocity=49 time=0.003124997916666666@note_on channel=3 note=57 velocity=49 time=0@note_on channel=0 note=66 velocity=0 time=0.37187475208333326@note_on channel=3 note=57 velocity=0 time=0@note_on channel=0 note=67 velocity=49 time=0.003124997916666666@note_on channel=3 note=58 velocity=49 time=0@note_on channel=0 note=67 velocity=0 time=0.37187475208333326@note_on channel=3 note=58 velocity=0 time=0@note_on channel=0 note=70 velocity=49 time=0.003124997916666666@note_on channel=3 note=55 velocity=49 time=0@note_on channel=0 note=70 velocity=0 time=0.37187475208333326@note_on channel=1 note=62 velocity=0 time=0@note_on channel=3 note=55 velocity=0 time=0@note_on channel=0 note=73 velocity=49 time=0.003124997916666666@note_on channel=3 note=64 velocity=49 time=0@note_on channel=2 note=55 velocity=0 time=0.37187475208333326@note_on channel=1 note=70 velocity=49 time=0.003124997916666666@note_on channel=2 note=55 velocity=49 time=0@note_on channel=1 note=70 velocity=0 time=0.37187475208333326@note_on channel=2 note=55 velocity=0 time=0@note_on channel=1 note=69 velocity=49 time=0.003124997916666666@note_on channel=2 note=54 velocity=49 time=0@note_on channel=1 note=69 velocity=0 time=0.37187475208333326@note_on channel=2 note=54 velocity=0 time=0@note_on channel=1 note=67 velocity=49 time=0.003124997916666666@note_on channel=2 note=55 velocity=49 time=0@note_on channel=0 note=73 velocity=0 time=0.37187475208333326@note_on channel=2 note=55 velocity=0 time=0@note_on channel=3 note=64 velocity=0 time=0@note_on channel=0 note=74 velocity=49 time=0.003124997916666666@note_on channel=2 note=57 velocity=49 time=0@note_on channel=3 note=62 velocity=49 time=0@note_on channel=1 note=67 velocity=0 time=0.37187475208333326@note_on channel=1 note=64 velocity=49 time=0.003124997916666666@note_on channel=1 note=64 velocity=0 time=0.37187475208333326@note_on channel=1 note=66 velocity=49 time=0.003124997916666666@note_on channel=0 note=74 velocity=0 time=0.7468745020833332@note_on channel=1 note=66 velocity=0 time=0@note_on channel=2 note=57 velocity=0 time=0@note_on channel=3 note=62 velocity=0 time=0@note_on channel=4 note=26 velocity=0 time=0@note_on channel=0 note=69 velocity=49 time=0.003124997916666666@note_on channel=1 note=66 velocity=49 time=0@note_on channel=4 note=50 velocity=49 time=0@note_on channel=4 note=50 velocity=0 time=0.7468745020833332@note_on channel=4 note=48 velocity=51 time=0.003124997916666666@note_on channel=0 note=69 velocity=0 time=0.7468745020833332@note_on channel=1 note=66 velocity=0 time=0@note_on channel=4 note=48 velocity=0 time=0@note_on channel=0 note=70 velocity=53 time=0.003124997916666666@note_on channel=1 note=67 velocity=53 time=0@note_on channel=4 note=46 velocity=53 time=0@note_on channel=4 note=46 velocity=0 time=0.7468745020833332@note_on channel=4 note=45 velocity=55 time=0.003124997916666666@note_on channel=0 note=70 velocity=0 time=0.7468745020833332@note_on channel=4 note=45 velocity=0 time=0@note_on channel=0 note=71 velocity=57 time=0.003124997916666666@note_on channel=2 note=62 velocity=49 time=0@note_on channel=4 note=43 velocity=57 time=0@note_on channel=4 note=43 velocity=0 time=0.7468745020833332@note_on channel=4 note=41 velocity=59 time=0.003124997916666666@note_on channel=0 note=71 velocity=0 time=0.7468745020833332@note_on channel=2 note=62 velocity=0 time=0@note_on channel=4 note=41 velocity=0 time=0@note_on channel=0 note=72 velocity=61 time=0.003124997916666666@note_on channel=2 note=63 velocity=53 time=0@note_on channel=4 note=39 velocity=61 time=0@note_on channel=4 note=39 velocity=0 time=0.7468745020833332@note_on channel=4 note=38 velocity=63 time=0.003124997916666666@note_on channel=1 note=67 velocity=0 time=0.7468745020833332@note_on channel=2 note=63 velocity=0 time=0@note_on channel=4 note=38 velocity=0 time=0@note_on channel=1 note=67 velocity=65 time=0.003124997916666666@note_on channel=2 note=64 velocity=58 time=0@note_on channel=4 note=48 velocity=65 time=0@note_on channel=4 note=48 velocity=0 time=0.7468745020833332@note_on channel=4 note=46 velocity=67 time=0.003124997916666666@note_on channel=1 note=67 velocity=0 time=0.7468745020833332@note_on channel=2 note=64 velocity=0 time=0@note_on channel=4 note=46 velocity=0 time=0@note_on channel=1 note=68 velocity=70 time=0.003124997916666666@note_on channel=2 note=65 velocity=63 time=0@note_on channel=4 note=44 velocity=70 time=0@note_on channel=4 note=44 velocity=0 time=0.7468745020833332@note_on channel=4 note=43 velocity=72 time=0.003124997916666666@note_on channel=0 note=72 velocity=0 time=0.7468745020833332@note_on channel=1 note=68 velocity=0 time=0@note_on channel=4 note=43 velocity=0 time=0@note_on channel=0 note=72 velocity=74 time=0.003124997916666666@note_on channel=1 note=69 velocity=74 time=0@note_on channel=4 note=41 velocity=74 time=0@note_on channel=4 note=41 velocity=0 time=0.7468745020833332@note_on channel=4 note=39 velocity=76 time=0.003124997916666666@note_on channel=0 note=72 velocity=0 time=0.7468745020833332@note_on channel=1 note=69 velocity=0 time=0@note_on channel=4 note=39 velocity=0 time=0@note_on channel=0 note=73 velocity=78 time=0.003124997916666666@note_on channel=1 note=70 velocity=78 time=0@note_on channel=4 note=37 velocity=78 time=0@note_on channel=4 note=37 velocity=0 time=0.7468745020833332@note_on channel=4 note=36 velocity=80 time=0.003124997916666666@note_on channel=0 note=73 velocity=0 time=0.7468745020833332@note_on channel=2 note=65 velocity=0 time=0@note_on channel=4 note=36 velocity=0 time=0@note_on channel=0 note=74 velocity=82 time=0.003124997916666666@note_on channel=2 note=65 velocity=78 time=0@note_on channel=3 note=53 velocity=80 time=0@note_on channel=4 note=46 velocity=82 time=0@note_on channel=4 note=46 velocity=0 time=0.7468745020833332@note_on channel=4 note=44 velocity=84 time=0.003124997916666666@note_on channel=0 note=74 velocity=0 time=0.7468745020833332@note_on channel=2 note=65 velocity=0 time=0@note_on channel=3 note=53 velocity=0 time=0@note_on channel=4 note=44 velocity=0 time=0@note_on channel=0 note=75 velocity=86 time=0.003124997916666666@note_on channel=2 note=63 velocity=82 time=0@note_on channel=3 note=54 velocity=84 time=0@note_on channel=4 note=42 velocity=86 time=0@note_on channel=4 note=42 velocity=0 time=0.7468745020833332@note_on channel=4 note=41 velocity=88 time=0.003124997916666666@note_on channel=2 note=63 velocity=0 time=0.7468745020833332@note_on channel=3 note=54 velocity=0 time=0@note_on channel=4 note=41 velocity=0 time=0@note_on channel=2 note=58 velocity=87 time=0.003124997916666666@note_on channel=3 note=55 velocity=89 time=0@note_on channel=4 note=39 velocity=91 time=0@note_on channel=4 note=39 velocity=0 time=0.7468745020833332@note_on channel=4 note=37 velocity=93 time=0.003124997916666666@note_on channel=1 note=70 velocity=0 time=0.7468745020833332@note_on channel=2 note=58 velocity=0 time=0@note_on channel=3 note=55 velocity=0 time=0@note_on channel=4 note=37 velocity=0 time=0@note_on channel=1 note=68 velocity=95 time=0.003124997916666666@note_on channel=3 note=59 velocity=93 time=0@note_on channel=4 note=35 velocity=95 time=0@note_on channel=4 note=35 velocity=0 time=0.7468745020833332@note_on channel=4 note=34 velocity=97 time=0.003124997916666666@note_on channel=3 note=59 velocity=0 time=0.7468745020833332@note_on channel=4 note=34 velocity=0 time=0@note_on channel=2 note=63 velocity=97 time=0.003124997916666666@note_on channel=3 note=60 velocity=98 time=0@note_on channel=4 note=44 velocity=99 time=0@note_on channel=4 note=44 velocity=0 time=0.7468745020833332@note_on channel=4 note=42 velocity=101 time=0.003124997916666666@note_on channel=0 note=75 velocity=0 time=0.7468745020833332@note_on channel=2 note=63 velocity=0 time=0@note_on channel=3 note=60 velocity=0 time=0@note_on channel=4 note=42 velocity=0 time=0@note_on channel=0 note=73 velocity=103 time=0.003124997916666666@note_on channel=2 note=64 velocity=102 time=0@note_on channel=3 note=61 velocity=102 time=0@note_on channel=4 note=40 velocity=103 time=0@note_on channel=4 note=40 velocity=0 time=0.7468745020833332@note_on channel=4 note=39 velocity=105 time=0.003124997916666666@note_on channel=2 note=64 velocity=0 time=0.7468745020833332@note_on channel=4 note=39 velocity=0 time=0@note_on channel=2 note=65 velocity=107 time=0.003124997916666666@note_on channel=4 note=37 velocity=107 time=0@note_on channel=4 note=37 velocity=0 time=0.7468745020833332@note_on channel=4 note=35 velocity=109 time=0.003124997916666666@note_on channel=0 note=73 velocity=0 time=0.7468745020833332@note_on channel=1 note=68 velocity=0 time=0@note_on channel=2 note=65 velocity=0 time=0@note_on channel=4 note=35 velocity=0 time=0@note_on channel=0 note=76 velocity=112 time=0.003124997916666666@note_on channel=1 note=73 velocity=112 time=0@note_on channel=2 note=67 velocity=112 time=0@note_on channel=4 note=34 velocity=112 time=0@note_on channel=0 note=76 velocity=0 time=1.496874002083333@note_on channel=1 note=73 velocity=0 time=0@note_on channel=2 note=67 velocity=0 time=0@note_on channel=3 note=61 velocity=0 time=0@note_on channel=4 note=34 velocity=0 time=0@note_on channel=0 note=76 velocity=112 time=0.7531244979166666@note_on channel=1 note=73 velocity=112 time=0@note_on channel=2 note=67 velocity=112 time=0@note_on channel=4 note=34 velocity=112 time=0@note_on channel=0 note=76 velocity=0 time=0.7468745020833332@note_on channel=1 note=73 velocity=0 time=0@note_on channel=2 note=67 velocity=0 time=0@note_on channel=4 note=34 velocity=0 time=0@note_on channel=0 note=75 velocity=114 time=0.003124997916666666@note_on channel=1 note=69 velocity=114 time=0@note_on channel=2 note=66 velocity=114 time=0@note_on channel=4 note=36 velocity=114 time=0@note_on channel=0 note=75 velocity=0 time=1.496874002083333@note_on channel=1 note=69 velocity=0 time=0@note_on channel=2 note=66 velocity=0 time=0@note_on channel=4 note=36 velocity=0 time=0@note_on channel=0 note=76 velocity=120 time=0.003124997916666666@note_on channel=1 note=70 velocity=120 time=0@note_on channel=2 note=64 velocity=120 time=0@note_on channel=4 note=37 velocity=120 time=0@note_on channel=2 note=64 velocity=0 time=0.7468745020833332@note_on channel=2 note=66 velocity=123 time=0.003124997916666666@note_on channel=1 note=70 velocity=0 time=0.7468745020833332@note_on channel=2 note=66 velocity=0 time=0@note_on channel=4 note=37 velocity=0 time=0@note_on channel=1 note=71 velocity=126 time=0.003124997916666666@note_on channel=2 note=67 velocity=126 time=0@note_on channel=4 note=35 velocity=126 time=0@note_on channel=3 note=52 velocity=126 time=0.37499974999999997@note_on channel=3 note=52 velocity=0 time=0.1843748770833333@note_on channel=3 note=54 velocity=126 time=0.003124997916666666@note_on channel=3 note=54 velocity=0 time=0.1843748770833333@note_on channel=3 note=55 velocity=126 time=0.003124997916666666@note_on channel=3 note=55 velocity=0 time=0.1843748770833333@note_on channel=3 note=54 velocity=126 time=0.003124997916666666@note_on channel=3 note=54 velocity=0 time=0.1843748770833333@note_on channel=3 note=52 velocity=126 time=0.003124997916666666@note_on channel=1 note=71 velocity=0 time=0.37187475208333326@note_on channel=3 note=52 velocity=0 time=0@note_on channel=1 note=69 velocity=126 time=0.003124997916666666@note_on channel=3 note=60 velocity=126 time=0@note_on channel=0 note=76 velocity=0 time=0.7468745020833332@note_on channel=2 note=67 velocity=0 time=0@note_on channel=0 note=75 velocity=126 time=0.003124997916666666@note_on channel=2 note=66 velocity=126 time=0@note_on channel=1 note=69 velocity=0 time=0.7468745020833332@note_on channel=2 note=66 velocity=0 time=0@note_on channel=3 note=60 velocity=0 time=0@note_on channel=1 note=67 velocity=126 time=0.003124997916666666@note_on channel=2 note=64 velocity=126 time=0@note_on channel=3 note=59 velocity=126 time=0@note_on channel=0 note=75 velocity=0 time=0.7468745020833332@note_on channel=0 note=76 velocity=126 time=0.003124997916666666@note_on channel=1 note=67 velocity=0 time=0.7468745020833332@note_on channel=2 note=64 velocity=0 time=0@note_on channel=3 note=59 velocity=0 time=0@note_on channel=1 note=72 velocity=126 time=0.003124997916666666@note_on channel=2 note=66 velocity=126 time=0@note_on channel=3 note=57 velocity=126 time=0@note_on channel=0 note=76 velocity=0 time=0.7468745020833332@note_on channel=0 note=75 velocity=126 time=0.003124997916666666@note_on channel=0 note=75 velocity=0 time=0.7468745020833332@note_on channel=1 note=72 velocity=0 time=0@note_on channel=0 note=76 velocity=126 time=0.003124997916666666@note_on channel=1 note=67 velocity=126 time=0@note_on channel=2 note=66 velocity=0 time=0.7468745020833332@note_on channel=3 note=57 velocity=0 time=0@note_on channel=2 note=64 velocity=126 time=0.003124997916666666@note_on channel=3 note=55 velocity=126 time=0@note_on channel=0 note=76 velocity=0 time=0.7468745020833332@note_on channel=1 note=67 velocity=0 time=0@note_on channel=2 note=64 velocity=0 time=0@note_on channel=3 note=55 velocity=0 time=0@note_on channel=0 note=78 velocity=126 time=0.003124997916666666@note_on channel=1 note=72 velocity=126 time=0@note_on channel=2 note=63 velocity=126 time=0@note_on channel=3 note=69 velocity=126 time=0@note_on channel=2 note=63 velocity=0 time=0.7468745020833332@note_on channel=2 note=57 velocity=126 time=0.003124997916666666@note_on channel=2 note=57 velocity=0 time=0.37187475208333326@note_on channel=2 note=60 velocity=126 time=0.003124997916666666@note_on channel=0 note=78 velocity=0 time=0.37187475208333326@note_on channel=1 note=72 velocity=0 time=0@note_on channel=2 note=60 velocity=0 time=0@note_on channel=4 note=35 velocity=0 time=0@note_on channel=0 note=78 velocity=126 time=0.003124997916666666@note_on channel=1 note=72 velocity=126 time=0@note_on channel=2 note=63 velocity=126 time=0@note_on channel=4 note=36 velocity=126 time=0@note_on channel=0 note=78 velocity=0 time=0.7468745020833332@note_on channel=1 note=72 velocity=0 time=0@note_on channel=2 note=63 velocity=0 time=0@note_on channel=3 note=69 velocity=0 time=0@note_on channel=0 note=76 velocity=126 time=0.003124997916666666@note_on channel=1 note=71 velocity=126 time=0@note_on channel=2 note=64 velocity=126 time=0@note_on channel=3 note=67 velocity=126 time=0@note_on channel=0 note=76 velocity=0 time=0.37187475208333326@note_on channel=3 note=67 velocity=0 time=0@note_on channel=0 note=75 velocity=126 time=0.003124997916666666@note_on channel=3 note=66 velocity=126 time=0@note_on channel=0 note=75 velocity=0 time=0.37187475208333326@note_on channel=1 note=71 velocity=0 time=0@note_on channel=2 note=64 velocity=0 time=0@note_on channel=3 note=66 velocity=0 time=0@note_on channel=4 note=36 velocity=0 time=0@note_on channel=0 note=76 velocity=126 time=0.003124997916666666@note_on channel=1 note=70 velocity=126 time=0@note_on channel=2 note=67 velocity=126 time=0@note_on channel=3 note=64 velocity=126 time=0@note_on channel=4 note=37 velocity=126 time=0@note_on channel=2 note=67 velocity=0 time=0.7468745020833332@note_on channel=3 note=64 velocity=0 time=0@note_on channel=2 note=61 velocity=126 time=0.003124997916666666@note_on channel=3 note=52 velocity=126 time=0@note_on channel=3 note=52 velocity=0 time=0.7468745020833332@note_on channel=4 note=37 velocity=0 time=0@note_on channel=3 note=54 velocity=126 time=0.003124997916666666@note_on channel=4 note=38 velocity=126 time=0@note_on channel=0 note=76 velocity=0 time=0.7468745020833332@note_on channel=1 note=70 velocity=0 time=0@note_on channel=2 note=61 velocity=0 time=0@note_on channel=0 note=74 velocity=126 time=0.003124997916666666@note_on channel=1 note=66 velocity=126 time=0@note_on channel=2 note=59 velocity=126 time=0@note_on channel=0 note=74 velocity=0 time=0.7468745020833332@note_on channel=1 note=66 velocity=0 time=0@note_on channel=2 note=59 velocity=0 time=0@note_on channel=3 note=54 velocity=0 time=0@note_on channel=4 note=38 velocity=0 time=0@note_on channel=0 note=78 velocity=126 time=0.003124997916666666@note_on channel=4 note=39 velocity=126 time=0@note_on channel=1 note=72 velocity=126 time=0.7499994999999999@note_on channel=2 note=69 velocity=126 time=0@note_on channel=3 note=54 velocity=126 time=0@note_on channel=1 note=72 velocity=0 time=0.7468745020833332@note_on channel=2 note=69 velocity=0 time=0@note_on channel=3 note=54 velocity=0 time=0@note_on channel=4 note=39 velocity=0 time=0@note_on channel=1 note=70 velocity=126 time=0.003124997916666666@note_on channel=2 note=59 velocity=126 time=0@note_on channel=3 note=56 velocity=126 time=0@note_on channel=4 note=40 velocity=126 time=0@note_on channel=0 note=78 velocity=0 time=0.7468745020833332@note_on channel=2 note=59 velocity=0 time=0@note_on channel=0 note=76 velocity=126 time=0.003124997916666666@note_on channel=2 note=64 velocity=126 time=0@note_on channel=0 note=76 velocity=0 time=0.37187475208333326@note_on channel=0 note=78 velocity=126 time=0.003124997916666666@note_on channel=0 note=78 velocity=0 time=0.37187475208333326@note_on channel=2 note=64 velocity=0 time=0@note_on channel=4 note=40 velocity=0 time=0@note_on channel=0 note=80 velocity=126 time=0.003124997916666666@note_on channel=2 note=62 velocity=126 time=0@note_on channel=4 note=41 velocity=126 time=0@note_on channel=3 note=56 velocity=0 time=0.37187475208333326@note_on channel=3 note=55 velocity=126 time=0.003124997916666666@note_on channel=1 note=70 velocity=0 time=0.37187475208333326@note_on channel=3 note=55 velocity=0 time=0@note_on channel=4 note=41 velocity=0 time=0@note_on channel=1 note=74 velocity=126 time=0.003124997916666666@note_on channel=3 note=53 velocity=126 time=0@note_on channel=4 note=41 velocity=126 time=0@note_on channel=3 note=53 velocity=0 time=0.37187475208333326@note_on channel=3 note=51 velocity=126 time=0.003124997916666666@note_on channel=3 note=51 velocity=0 time=0.37187475208333326@note_on channel=4 note=41 velocity=0 time=0@note_on channel=3 note=50 velocity=126 time=0.003124997916666666@note_on channel=4 note=35 velocity=126 time=0@note_on channel=0 note=80 velocity=0 time=0.37187475208333326@note_on channel=0 note=79 velocity=126 time=0.003124997916666666@note_on channel=0 note=79 velocity=0 time=0.37187475208333326@note_on channel=4 note=35 velocity=0 time=0@note_on channel=0 note=77 velocity=126 time=0.003124997916666666@note_on channel=4 note=38 velocity=126 time=0@note_on channel=0 note=77 velocity=0 time=0.37187475208333326@note_on channel=0 note=80 velocity=126 time=0.003124997916666666@note_on channel=0 note=80 velocity=0 time=0.37187475208333326@note_on channel=2 note=62 velocity=0 time=0@note_on channel=3 note=50 velocity=0 time=0@note_on channel=4 note=38 velocity=0 time=0@note_on channel=0 note=79 velocity=126 time=0.003124997916666666@note_on channel=4 note=35 velocity=126 time=0@note_on channel=0 note=79 velocity=0 time=0.37187475208333326@note_on channel=0 note=77 velocity=126 time=0.003124997916666666@note_on channel=0 note=77 velocity=0 time=0.37187475208333326@note_on channel=4 note=35 velocity=0 time=0@note_on channel=0 note=75 velocity=126 time=0.003124997916666666@note_on channel=4 note=31 velocity=126 time=0@note_on channel=0 note=75 velocity=0 time=0.37187475208333326@note_on channel=0 note=74 velocity=126 time=0.003124997916666666@note_on channel=0 note=74 velocity=0 time=0.37187475208333326@note_on channel=4 note=31 velocity=0 time=0@note_on channel=0 note=75 velocity=126 time=0.003124997916666666@note_on channel=4 note=36 velocity=126 time=0@note_on channel=1 note=74 velocity=0 time=0.37187475208333326@note_on channel=1 note=72 velocity=126 time=0.003124997916666666@note_on channel=1 note=72 velocity=0 time=0.37187475208333326@note_on channel=4 note=36 velocity=0 time=0@note_on channel=1 note=70 velocity=126 time=0.003124997916666666@note_on channel=4 note=38 velocity=126 time=0@note_on channel=1 note=70 velocity=0 time=0.37187475208333326@note_on channel=1 note=74 velocity=126 time=0.003124997916666666@note_on channel=1 note=74 velocity=0 time=0.37187475208333326@note_on channel=4 note=38 velocity=0 time=0@note_on channel=1 note=72 velocity=126 time=0.003124997916666666@note_on channel=2 note=60 velocity=126 time=0@note_on channel=4 note=39 velocity=126 time=0@note_on channel=1 note=72 velocity=0 time=0.37187475208333326@note_on channel=1 note=70 velocity=126 time=0.003124997916666666@note_on channel=1 note=70 velocity=0 time=0.37187475208333326@note_on channel=4 note=39 velocity=0 time=0@note_on channel=1 note=69 velocity=126 time=0.003124997916666666@note_on channel=4 note=36 velocity=126 time=0@note_on channel=1 note=69 velocity=0 time=0.37187475208333326@note_on channel=1 note=67 velocity=126 time=0.003124997916666666@note_on channel=1 note=67 velocity=0 time=0.37187475208333326@note_on channel=4 note=36 velocity=0 time=0@note_on channel=1 note=66 velocity=126 time=0.003124997916666666@note_on channel=4 note=38 velocity=126 time=0@note_on channel=2 note=60 velocity=0 time=0.37187475208333326@note_on channel=2 note=58 velocity=126 time=0.003124997916666666@note_on channel=1 note=66 velocity=0 time=0.37187475208333326@note_on channel=2 note=58 velocity=0 time=0@note_on channel=4 note=38 velocity=0 time=0@note_on channel=1 note=69 velocity=126 time=0.003124997916666666@note_on channel=2 note=57 velocity=126 time=0@note_on channel=4 note=42 velocity=126 time=0@note_on channel=2 note=57 velocity=0 time=0.37187475208333326@note_on channel=2 note=60 velocity=126 time=0.003124997916666666@note_on channel=0 note=75 velocity=0 time=0.37187475208333326@note_on channel=1 note=69 velocity=0 time=0@note_on channel=2 note=60 velocity=0 time=0@note_on channel=4 note=42 velocity=0 time=0@note_on channel=0 note=74 velocity=126 time=0.003124997916666666@note_on channel=1 note=69 velocity=126 time=0@note_on channel=2 note=58 velocity=126 time=0@note_on channel=4 note=43 velocity=126 time=0@note_on channel=1 note=69 velocity=0 time=0.37187475208333326@note_on channel=2 note=58 velocity=0 time=0@note_on channel=1 note=72 velocity=126 time=0.003124997916666666@note_on channel=2 note=57 velocity=126 time=0@note_on channel=1 note=72 velocity=0 time=0.37187475208333326@note_on channel=2 note=57 velocity=0 time=0@note_on channel=4 note=43 velocity=0 time=0@note_on channel=1 note=70 velocity=126 time=0.003124997916666666@note_on channel=2 note=55 velocity=126 time=0@note_on channel=4 note=34 velocity=126 time=0@note_on channel=1 note=70 velocity=0 time=0.37187475208333326@note_on channel=2 note=55 velocity=0 time=0@note_on channel=1 note=69 velocity=126 time=0.003124997916666666@note_on channel=2 note=54 velocity=126 time=0@note_on channel=1 note=69 velocity=0 time=0.37187475208333326@note_on channel=2 note=54 velocity=0 time=0@note_on channel=4 note=34 velocity=0 time=0@note_on channel=1 note=67 velocity=126 time=0.003124997916666666@note_on channel=2 note=55 velocity=126 time=0@note_on channel=4 note=39 velocity=126 time=0@note_on channel=0 note=74 velocity=0 time=0.37187475208333326@note_on channel=0 note=72 velocity=126 time=0.003124997916666666@note_on channel=0 note=72 velocity=0 time=0.37187475208333326@note_on channel=1 note=67 velocity=0 time=0@note_on channel=0 note=70 velocity=126 time=0.003124997916666666@note_on channel=1 note=66 velocity=126 time=0@note_on channel=0 note=70 velocity=0 time=0.37187475208333326@note_on channel=0 note=74 velocity=126 time=0.003124997916666666@note_on channel=0 note=74 velocity=0 time=0.37187475208333326@note_on channel=1 note=66 velocity=0 time=0@note_on channel=0 note=72 velocity=126 time=0.003124997916666666@note_on channel=1 note=67 velocity=126 time=0@note_on channel=0 note=72 velocity=0 time=0.37187475208333326@note_on channel=0 note=70 velocity=126 time=0.003124997916666666@note_on channel=0 note=70 velocity=0 time=0.37187475208333326@note_on channel=1 note=67 velocity=0 time=0@note_on channel=2 note=55 velocity=0 time=0@note_on channel=4 note=39 velocity=0 time=0@note_on channel=0 note=69 velocity=126 time=0.003124997916666666@note_on channel=1 note=63 velocity=126 time=0@note_on channel=2 note=60 velocity=126 time=0@note_on channel=4 note=36 velocity=126 time=0@note_on channel=0 note=69 velocity=0 time=0.37187475208333326@note_on channel=0 note=67 velocity=126 time=0.003124997916666666@note_on channel=0 note=67 velocity=0 time=0.37187475208333326@note_on channel=1 note=63 velocity=0 time=0@note_on channel=4 note=36 velocity=0 time=0@note_on channel=0 note=66 velocity=126 time=0.003124997916666666@note_on channel=1 note=62 velocity=126 time=0@note_on channel=4 note=38 velocity=126 time=0@note_on channel=2 note=60 velocity=0 time=0.37187475208333326@note_on channel=2 note=58 velocity=126 time=0.003124997916666666@note_on channel=0 note=66 velocity=0 time=0.37187475208333326@note_on channel=2 note=58 velocity=0 time=0@note_on channel=0 note=69 velocity=126 time=0.003124997916666666@note_on channel=2 note=57 velocity=126 time=0@note_on channel=2 note=57 velocity=0 time=0.37187475208333326@note_on channel=2 note=60 velocity=126 time=0.003124997916666666@note_on channel=0 note=69 velocity=0 time=0.37187475208333326@note_on channel=2 note=60 velocity=0 time=0@note_on channel=4 note=38 velocity=0 time=0@note_on channel=0 note=67 velocity=126 time=0.003124997916666666@note_on channel=2 note=58 velocity=126 time=0@note_on channel=2 note=58 velocity=0 time=0.37187475208333326@note_on channel=2 note=57 velocity=126 time=0.003124997916666666@note_on channel=0 note=67 velocity=0 time=0.37187475208333326@note_on channel=2 note=57 velocity=0 time=0@note_on channel=0 note=69 velocity=126 time=0.003124997916666666@note_on channel=2 note=55 velocity=126 time=0@note_on channel=3 note=43 velocity=126 time=0@note_on channel=4 note=31 velocity=126 time=0@note_on channel=2 note=55 velocity=0 time=0.37187475208333326@note_on channel=2 note=54 velocity=126 time=0.003124997916666666@note_on channel=1 note=62 velocity=0 time=0.37187475208333326@note_on channel=2 note=54 velocity=0 time=0@note_on channel=3 note=43 velocity=0 time=0@note_on channel=4 note=31 velocity=0 time=0@note_on channel=1 note=63 velocity=126 time=0.003124997916666666@note_on channel=2 note=55 velocity=126 time=0@note_on channel=3 note=48 velocity=126 time=0@note_on channel=4 note=36 velocity=126 time=0@note_on channel=0 note=69 velocity=0 time=0.37187475208333326@note_on channel=0 note=75 velocity=126 time=0.003124997916666666@note_on channel=0 note=75 velocity=0 time=0.5593746270833333@note_on channel=0 note=74 velocity=126 time=0.003124997916666666@note_on channel=0 note=74 velocity=0 time=0.1843748770833333@note_on channel=0 note=72 velocity=126 time=0.003124997916666666@note_on channel=0 note=72 velocity=0 time=0.1843748770833333@note_on channel=0 note=71 velocity=126 time=0.003124997916666666@note_on channel=0 note=71 velocity=0 time=0.1843748770833333@note_on channel=1 note=63 velocity=0 time=0@note_on channel=2 note=55 velocity=0 time=0@note_on channel=0 note=72 velocity=126 time=0.003124997916666666@note_on channel=0 note=72 velocity=0 time=0.1843748770833333@note_on channel=0 note=70 velocity=126 time=0.003124997916666666@note_on channel=0 note=70 velocity=0 time=0.1843748770833333@note_on channel=0 note=68 velocity=126 time=0.003124997916666666@note_on channel=0 note=68 velocity=0 time=0.1843748770833333@note_on channel=0 note=67 velocity=126 time=0.003124997916666666@note_on channel=0 note=67 velocity=0 time=0.1843748770833333@note_on channel=0 note=68 velocity=126 time=0.003124997916666666@note_on channel=1 note=63 velocity=126 time=0@note_on channel=2 note=60 velocity=126 time=0@note_on channel=0 note=68 velocity=0 time=0.1843748770833333@note_on channel=0 note=72 velocity=126 time=0.003124997916666666@note_on channel=0 note=72 velocity=0 time=0.1843748770833333@note_on channel=0 note=70 velocity=126 time=0.003124997916666666@note_on channel=0 note=70 velocity=0 time=0.1843748770833333@note_on channel=0 note=68 velocity=126 time=0.003124997916666666@note_on channel=0 note=68 velocity=0 time=0.1843748770833333@note_on channel=1 note=63 velocity=0 time=0@note_on channel=2 note=60 velocity=0 time=0@note_on channel=0 note=67 velocity=126 time=0.003124997916666666@note_on channel=1 note=62 velocity=126 time=0@note_on channel=2 note=57 velocity=126 time=0@note_on channel=0 note=67 velocity=0 time=0.1843748770833333@note_on channel=0 note=66 velocity=126 time=0.003124997916666666@note_on channel=0 note=66 velocity=0 time=0.1843748770833333@note_on channel=0 note=75 velocity=126 time=0.003124997916666666@note_on channel=1 note=62 velocity=0 time=0.37187475208333326@note_on channel=2 note=57 velocity=0 time=0@note_on channel=1 note=57 velocity=126 time=0.003124997916666666@note_on channel=2 note=54 velocity=126 time=0@note_on channel=0 note=75 velocity=0 time=0.37187475208333326@note_on channel=0 note=74 velocity=126 time=0.003124997916666666@note_on channel=0 note=74 velocity=0 time=0.1843748770833333@note_on channel=0 note=73 velocity=126 time=0.003124997916666666@note_on channel=0 note=73 velocity=0 time=0.1843748770833333@note_on channel=1 note=57 velocity=0 time=0@note_on channel=2 note=54 velocity=0 time=0@note_on channel=3 note=48 velocity=0 time=0@note_on channel=4 note=36 velocity=0 time=0@note_on channel=0 note=82 velocity=126 time=0.003124997916666666@note_on channel=0 note=82 velocity=0 time=0.1843748770833333@note_on channel=0 note=80 velocity=126 time=0.003124997916666666@note_on channel=0 note=80 velocity=0 time=0.1843748770833333@note_on channel=0 note=79 velocity=126 time=0.003124997916666666@note_on channel=0 note=79 velocity=0 time=0.1843748770833333@note_on channel=0 note=78 velocity=126 time=0.003124997916666666@note_on channel=0 note=78 velocity=0 time=0.1843748770833333@note_on channel=0 note=79 velocity=126 time=0.003124997916666666@note_on channel=1 note=62 velocity=126 time=0@note_on channel=2 note=58 velocity=126 time=0@note_on channel=3 note=46 velocity=126 time=0@note_on channel=4 note=34 velocity=126 time=0@note_on channel=0 note=79 velocity=0 time=0.1843748770833333@note_on channel=0 note=81 velocity=126 time=0.003124997916666666@note_on channel=0 note=81 velocity=0 time=0.1843748770833333@note_on channel=0 note=78 velocity=126 time=0.003124997916666666@note_on channel=0 note=78 velocity=0 time=0.1843748770833333@note_on channel=0 note=79 velocity=126 time=0.003124997916666666@note_on channel=1 note=62 velocity=0 time=0.1843748770833333@note_on channel=2 note=58 velocity=0 time=0@note_on channel=3 note=46 velocity=0 time=0@note_on channel=4 note=34 velocity=0 time=0@note_on channel=1 note=61 velocity=126 time=0.003124997916666666@note_on channel=2 note=52 velocity=126 time=0@note_on channel=3 note=45 velocity=126 time=0@note_on channel=4 note=33 velocity=126 time=0@note_on channel=0 note=79 velocity=0 time=0.1843748770833333@note_on channel=0 note=81 velocity=126 time=0.003124997916666666@note_on channel=0 note=81 velocity=0 time=0.1843748770833333@note_on channel=0 note=82 velocity=126 time=0.003124997916666666@note_on channel=1 note=61 velocity=0 time=0.37187475208333326@note_on channel=2 note=52 velocity=0 time=0@note_on channel=3 note=45 velocity=0 time=0@note_on channel=4 note=33 velocity=0 time=0@note_on channel=1 note=64 velocity=126 time=0.003124997916666666@note_on channel=2 note=55 velocity=126 time=0@note_on channel=3 note=37 velocity=126 time=0@note_on channel=4 note=25 velocity=126 time=0@note_on channel=0 note=82 velocity=0 time=0.1843748770833333@note_on channel=0 note=81 velocity=126 time=0.003124997916666666@note_on channel=0 note=81 velocity=0 time=0.1843748770833333@note_on channel=0 note=79 velocity=126 time=0.003124997916666666@note_on channel=0 note=79 velocity=0 time=0.1843748770833333@note_on channel=0 note=78 velocity=126 time=0.003124997916666666@note_on channel=0 note=78 velocity=0 time=0.1843748770833333@note_on channel=1 note=64 velocity=0 time=0@note_on channel=2 note=55 velocity=0 time=0@note_on channel=3 note=37 velocity=0 time=0@note_on channel=4 note=25 velocity=0 time=0@note_on channel=0 note=79 velocity=126 time=0.003124997916666666@note_on channel=3 note=40 velocity=126 time=0@note_on channel=4 note=28 velocity=126 time=0@note_on channel=0 note=79 velocity=0 time=0.1843748770833333@note_on channel=0 note=77 velocity=126 time=0.003124997916666666@note_on channel=0 note=77 velocity=0 time=0.1843748770833333@note_on channel=0 note=76 velocity=126 time=0.003124997916666666@note_on channel=0 note=76 velocity=0 time=0.1843748770833333@note_on channel=0 note=77 velocity=126 time=0.003124997916666666@note_on channel=0 note=77 velocity=0 time=0.1843748770833333@note_on channel=3 note=40 velocity=0 time=0@note_on channel=4 note=28 velocity=0 time=0@note_on channel=0 note=75 velocity=126 time=0.003124997916666666@note_on channel=1 note=67 velocity=126 time=0@note_on channel=2 note=58 velocity=126 time=0@note_on channel=3 note=43 velocity=126 time=0@note_on channel=4 note=31 velocity=126 time=0@note_on channel=0 note=75 velocity=0 time=0.1843748770833333@note_on channel=0 note=74 velocity=126 time=0.003124997916666666@note_on channel=0 note=74 velocity=0 time=0.1843748770833333@note_on channel=0 note=73 velocity=126 time=0.003124997916666666@note_on channel=0 note=73 velocity=0 time=0.1843748770833333@note_on channel=0 note=74 velocity=126 time=0.003124997916666666@note_on channel=1 note=67 velocity=0 time=0.1843748770833333@note_on channel=2 note=58 velocity=0 time=0@note_on channel=3 note=43 velocity=0 time=0@note_on channel=4 note=31 velocity=0 time=0@note_on channel=1 note=69 velocity=126 time=0.003124997916666666@note_on channel=2 note=57 velocity=126 time=0@note_on channel=3 note=42 velocity=126 time=0@note_on channel=4 note=30 velocity=126 time=0@note_on channel=0 note=74 velocity=0 time=0.37187475208333326@note_on channel=0 note=72 velocity=126 time=0.003124997916666666@note_on channel=0 note=72 velocity=0 time=0.1843748770833333@note_on channel=0 note=71 velocity=126 time=0.003124997916666666@note_on channel=0 note=71 velocity=0 time=0.1843748770833333@note_on channel=1 note=69 velocity=0 time=0@note_on channel=3 note=42 velocity=0 time=0@note_on channel=4 note=30 velocity=0 time=0@note_on channel=0 note=72 velocity=126 time=0.003124997916666666@note_on channel=1 note=66 velocity=126 time=0@note_on channel=3 note=38 velocity=126 time=0@note_on channel=4 note=26 velocity=126 time=0@note_on channel=1 note=66 velocity=0 time=0.7468745020833332@note_on channel=3 note=38 velocity=0 time=0@note_on channel=4 note=26 velocity=0 time=0@note_on channel=1 note=62 velocity=126 time=0.003124997916666666@note_on channel=3 note=43 velocity=126 time=0@note_on channel=4 note=31 velocity=126 time=0@note_on channel=0 note=72 velocity=0 time=0.1843748770833333@note_on channel=0 note=70 velocity=126 time=0.003124997916666666@note_on channel=0 note=70 velocity=0 time=0.1843748770833333@note_on channel=0 note=69 velocity=126 time=0.003124997916666666@note_on channel=0 note=69 velocity=0 time=0.37187475208333326@note_on channel=1 note=62 velocity=0 time=0@note_on channel=2 note=57 velocity=0 time=0@note_on channel=3 note=43 velocity=0 time=0@note_on channel=4 note=31 velocity=0 time=0@note_on channel=0 note=70 velocity=126 time=0.003124997916666666@note_on channel=1 note=64 velocity=126 time=0@note_on channel=2 note=55 velocity=126 time=0@note_on channel=3 note=37 velocity=126 time=0@note_on channel=4 note=25 velocity=126 time=0@note_on channel=0 note=70 velocity=0 time=0.1843748770833333@note_on channel=0 note=69 velocity=126 time=0.003124997916666666@note_on channel=0 note=69 velocity=0 time=0.1843748770833333@note_on channel=2 note=55 velocity=0 time=0@note_on channel=0 note=67 velocity=126 time=0.003124997916666666@note_on channel=2 note=57 velocity=126 time=0@note_on channel=1 note=64 velocity=0 time=0.37187475208333326@note_on channel=2 note=57 velocity=0 time=0@note_on channel=3 note=37 velocity=0 time=0@note_on channel=4 note=25 velocity=0 time=0@note_on channel=1 note=62 velocity=126 time=0.003124997916666666@note_on channel=2 note=58 velocity=126 time=0@note_on channel=3 note=38 velocity=126 time=0@note_on channel=4 note=26 velocity=126 time=0@note_on channel=0 note=67 velocity=0 time=0.1843748770833333@note_on channel=0 note=66 velocity=126 time=0.003124997916666666@note_on channel=0 note=66 velocity=0 time=0.1843748770833333@note_on channel=0 note=64 velocity=126 time=0.003124997916666666@note_on channel=0 note=64 velocity=0 time=0.1843748770833333@note_on channel=0 note=66 velocity=126 time=0.003124997916666666@note_on channel=0 note=66 velocity=0 time=0.1843748770833333@note_on channel=2 note=58 velocity=0 time=0@note_on channel=0 note=67 velocity=126 time=0.003124997916666666@note_on channel=2 note=57 velocity=126 time=0@note_on channel=0 note=67 velocity=0 time=0.1843748770833333@note_on channel=0 note=72 velocity=126 time=0.003124997916666666@note_on channel=0 note=72 velocity=0 time=0.1843748770833333@note_on channel=2 note=57 velocity=0 time=0@note_on channel=0 note=69 velocity=126 time=0.003124997916666666@note_on channel=2 note=55 velocity=126 time=0@note_on channel=0 note=69 velocity=0 time=0.37187475208333326@note_on channel=2 note=55 velocity=0 time=0@note_on channel=0 note=67 velocity=126 time=0.003124997916666666@note_on channel=2 note=57 velocity=126 time=0@note_on channel=2 note=57 velocity=0 time=0.37187475208333326@note_on channel=2 note=58 velocity=126 time=0.003124997916666666@note_on channel=0 note=67 velocity=0 time=0.37187475208333326@note_on channel=2 note=58 velocity=0 time=0@note_on channel=0 note=66 velocity=126 time=0.003124997916666666@note_on channel=2 note=60 velocity=126 time=0@note_on channel=1 note=62 velocity=0 time=0.37187475208333326@note_on channel=1 note=63 velocity=126 time=0.003124997916666666@note_on channel=0 note=66 velocity=0 time=0.1843748770833333@note_on channel=0 note=67 velocity=126 time=0.003124997916666666@note_on channel=0 note=67 velocity=0 time=0.1843748770833333@note_on channel=1 note=63 velocity=0 time=0@note_on channel=2 note=60 velocity=0 time=0@note_on channel=3 note=38 velocity=0 time=0@note_on channel=4 note=26 velocity=0 time=0@note_on channel=0 note=67 velocity=126 time=0.003124997916666666@note_on channel=1 note=65 velocity=126 time=0@note_on channel=2 note=62 velocity=126 time=0@note_on channel=3 note=59 velocity=126 time=0@note_on channel=4 note=31 velocity=126 time=0@note_on channel=1 note=65 velocity=0 time=0.7468745020833332@note_on channel=2 note=62 velocity=0 time=0@note_on channel=3 note=59 velocity=0 time=0@note_on channel=1 note=64 velocity=126 time=0.003124997916666666@note_on channel=2 note=61 velocity=126 time=0@note_on channel=3 note=58 velocity=126 time=0@note_on channel=0 note=67 velocity=0 time=0.7468745020833332@note_on channel=1 note=64 velocity=0 time=0@note_on channel=2 note=61 velocity=0 time=0@note_on channel=3 note=58 velocity=0 time=0@note_on channel=4 note=31 velocity=0 time=0@note_on channel=1 note=64 velocity=126 time=0.19062487291666663@note_on channel=1 note=64 velocity=0 time=0.1843748770833333@note_on channel=1 note=63 velocity=126 time=0.003124997916666666@note_on channel=1 note=63 velocity=0 time=0.1843748770833333@note_on channel=1 note=64 velocity=126 time=0.003124997916666666@note_on channel=1 note=64 velocity=0 time=0.1843748770833333@note_on channel=1 note=64 velocity=126 time=0.003124997916666666@note_on channel=1 note=64 velocity=0 time=0.1843748770833333@note_on channel=1 note=65 velocity=126 time=0.003124997916666666@note_on channel=1 note=65 velocity=0 time=0.09062493958333331@note_on channel=1 note=64 velocity=126 time=0.003124997916666666@note_on channel=1 note=64 velocity=0 time=0.09062493958333331@note_on channel=1 note=65 velocity=126 time=0.003124997916666666@note_on channel=1 note=65 velocity=0 time=0.09062493958333331@note_on channel=1 note=64 velocity=126 time=0.003124997916666666@note_on channel=1 note=64 velocity=0 time=0.09062493958333331@note_on channel=1 note=63 velocity=126 time=0.003124997916666666@note_on channel=1 note=63 velocity=0 time=0.09062493958333331@note_on channel=1 note=64 velocity=126 time=0.003124997916666666@note_on channel=1 note=64 velocity=0 time=0.09062493958333331@note_on channel=1 note=70 velocity=126 time=0.003124997916666666@note_on channel=1 note=70 velocity=0 time=0.1843748770833333@note_on channel=1 note=64 velocity=126 time=0.003124997916666666@note_on channel=1 note=64 velocity=0 time=0.1843748770833333@note_on channel=1 note=63 velocity=126 time=0.003124997916666666@note_on channel=1 note=63 velocity=0 time=0.1843748770833333@note_on channel=1 note=64 velocity=126 time=0.003124997916666666@note_on channel=1 note=64 velocity=0 time=0.1843748770833333@note_on channel=1 note=64 velocity=126 time=0.003124997916666666@note_on channel=1 note=64 velocity=0 time=0.1843748770833333@note_on channel=1 note=65 velocity=126 time=0.003124997916666666@note_on channel=1 note=65 velocity=0 time=0.09062493958333331@note_on channel=1 note=64 velocity=126 time=0.003124997916666666@note_on channel=1 note=64 velocity=0 time=0.09062493958333331@note_on channel=1 note=65 velocity=126 time=0.003124997916666666@note_on channel=1 note=65 velocity=0 time=0.09062493958333331@note_on channel=1 note=64 velocity=126 time=0.003124997916666666@note_on channel=1 note=64 velocity=0 time=0.09062493958333331@note_on channel=1 note=63 velocity=126 time=0.003124997916666666@note_on channel=1 note=63 velocity=0 time=0.09062493958333331@note_on channel=1 note=64 velocity=126 time=0.003124997916666666@note_on channel=1 note=64 velocity=0 time=0.09062493958333331@note_on channel=0 note=73 velocity=126 time=0.003124997916666666@note_on channel=1 note=70 velocity=126 time=0.7499994999999999@note_on channel=2 note=64 velocity=126 time=0@note_on channel=3 note=55 velocity=126 time=0@note_on channel=4 note=31 velocity=126 time=0@note_on channel=4 note=31 velocity=0 time=0.7468745020833332@note_on channel=4 note=24 velocity=126 time=0.003124997916666666@note_on channel=0 note=73 velocity=0 time=0.7468745020833332@note_on channel=1 note=70 velocity=0 time=0@note_on channel=2 note=64 velocity=0 time=0@note_on channel=3 note=55 velocity=0 time=0@note_on channel=0 note=72 velocity=126 time=0.003124997916666666@note_on channel=1 note=68 velocity=126 time=0@note_on channel=2 note=65 velocity=126 time=0@note_on channel=3 note=56 velocity=126 time=0@note_on channel=1 note=68 velocity=0 time=0.7468745020833332@note_on channel=2 note=65 velocity=0 time=0@note_on channel=3 note=56 velocity=0 time=0@note_on channel=4 note=24 velocity=0 time=0@note_on channel=0 note=72 velocity=0 time=0.18749987499999998@note_on channel=0 note=70 velocity=126 time=0.003124997916666666@note_on channel=0 note=70 velocity=0 time=0.1843748770833333@note_on channel=0 note=68 velocity=126 time=0.003124997916666666@note_on channel=0 note=68 velocity=0 time=0.1843748770833333@note_on channel=0 note=67 velocity=126 time=0.003124997916666666@note_on channel=0 note=67 velocity=0 time=0.1843748770833333@note_on channel=0 note=68 velocity=126 time=0.003124997916666666@note_on channel=0 note=68 velocity=0 time=0.1843748770833333@note_on channel=0 note=72 velocity=126 time=0.003124997916666666@note_on channel=0 note=72 velocity=0 time=0.1843748770833333@note_on channel=0 note=64 velocity=126 time=0.003124997916666666@note_on channel=0 note=64 velocity=0 time=0.37187475208333326@note_on channel=0 note=65 velocity=126 time=0.003124997916666666@note_on channel=0 note=65 velocity=0 time=0.1843748770833333@note_on channel=0 note=67 velocity=126 time=0.003124997916666666@note_on channel=0 note=67 velocity=0 time=0.1843748770833333@note_on channel=0 note=65 velocity=126 time=0.003124997916666666@note_on channel=0 note=65 velocity=0 time=0.1843748770833333@note_on channel=0 note=64 velocity=126 time=0.003124997916666666@note_on channel=0 note=64 velocity=0 time=0.1843748770833333@note_on channel=0 note=65 velocity=126 time=0.003124997916666666@note_on channel=0 note=65 velocity=0 time=0.1843748770833333@note_on channel=0 note=68 velocity=126 time=0.003124997916666666@note_on channel=0 note=68 velocity=0 time=0.1843748770833333@note_on channel=0 note=60 velocity=126 time=0.003124997916666666@note_on channel=0 note=60 velocity=0 time=0.37187475208333326@note_on channel=0 note=61 velocity=126 time=0.003124997916666666@note_on channel=0 note=61 velocity=0 time=0.1843748770833333@note_on channel=0 note=63 velocity=126 time=0.003124997916666666@note_on channel=0 note=63 velocity=0 time=0.1843748770833333@note_on channel=0 note=61 velocity=126 time=0.003124997916666666@note_on channel=0 note=61 velocity=0 time=0.1843748770833333@note_on channel=0 note=60 velocity=126 time=0.003124997916666666@note_on channel=0 note=60 velocity=0 time=0.1843748770833333@note_on channel=0 note=61 velocity=126 time=0.003124997916666666@note_on channel=0 note=61 velocity=0 time=0.1843748770833333@note_on channel=0 note=65 velocity=126 time=0.003124997916666666@note_on channel=0 note=65 velocity=0 time=0.1843748770833333@note_on channel=0 note=68 velocity=126 time=0.003124997916666666@note_on channel=0 note=68 velocity=0 time=0.37187475208333326@note_on channel=2 note=60 velocity=126 time=0.003124997916666666@note_on channel=2 note=60 velocity=0 time=0.37187475208333326@note_on channel=2 note=59 velocity=126 time=0.003124997916666666@note_on channel=0 note=68 velocity=126 time=0.37499974999999997@note_on channel=1 note=65 velocity=126 time=0@note_on channel=3 note=53 velocity=126 time=0@note_on channel=4 note=38 velocity=126 time=0@note_on channel=0 note=68 velocity=0 time=0.7468745020833332@note_on channel=1 note=65 velocity=0 time=0@note_on channel=2 note=59 velocity=0 time=0@note_on channel=3 note=53 velocity=0 time=0@note_on channel=4 note=38 velocity=0 time=0@note_on channel=0 note=67 velocity=126 time=0.003124997916666666@note_on channel=1 note=63 velocity=126 time=0@note_on channel=2 note=60 velocity=126 time=0@note_on channel=3 note=55 velocity=126 time=0@note_on channel=4 note=39 velocity=126 time=0@note_on channel=1 note=63 velocity=0 time=0.7468745020833332@note_on channel=2 note=60 velocity=0 time=0@note_on channel=3 note=55 velocity=0 time=0@note_on channel=4 note=39 velocity=0 time=0@note_on channel=1 note=65 velocity=126 time=0.003124997916666666@note_on channel=2 note=62 velocity=126 time=0@note_on channel=3 note=50 velocity=126 time=0@note_on channel=4 note=35 velocity=126 time=0@note_on channel=1 note=65 velocity=0 time=0.7468745020833332@note_on channel=2 note=62 velocity=0 time=0@note_on channel=3 note=50 velocity=0 time=0@note_on channel=4 note=35 velocity=0 time=0@note_on channel=1 note=63 velocity=126 time=0.003124997916666666@note_on channel=2 note=60 velocity=126 time=0@note_on channel=3 note=51 velocity=126 time=0@note_on channel=4 note=36 velocity=126 time=0@note_on channel=0 note=67 velocity=0 time=0.1843748770833333@note_on channel=0 note=77 velocity=126 time=0.003124997916666666@note_on channel=0 note=77 velocity=0 time=0.1843748770833333@note_on channel=0 note=75 velocity=126 time=0.003124997916666666@note_on channel=0 note=75 velocity=0 time=0.1843748770833333@note_on channel=0 note=74 velocity=126 time=0.003124997916666666@note_on channel=0 note=74 velocity=0 time=0.1843748770833333@note_on channel=1 note=63 velocity=0 time=0@note_on channel=2 note=60 velocity=0 time=0@note_on channel=3 note=51 velocity=0 time=0@note_on channel=4 note=36 velocity=0 time=0@note_on channel=0 note=75 velocity=126 time=0.003124997916666666@note_on channel=4 note=31 velocity=126 time=0@note_on channel=0 note=75 velocity=0 time=0.1843748770833333@note_on channel=0 note=79 velocity=126 time=0.003124997916666666@note_on channel=0 note=79 velocity=0 time=0.1843748770833333@note_on channel=0 note=71 velocity=126 time=0.003124997916666666@note_on channel=0 note=71 velocity=0 time=0.37187475208333326@note_on channel=4 note=31 velocity=0 time=0@note_on channel=0 note=72 velocity=126 time=0.003124997916666666@note_on channel=4 note=32 velocity=126 time=0@note_on channel=1 note=65 velocity=126 time=0.18749987499999998@note_on channel=1 note=65 velocity=0 time=0.1843748770833333@note_on channel=1 note=63 velocity=126 time=0.003124997916666666@note_on channel=1 note=63 velocity=0 time=0.1843748770833333@note_on channel=1 note=62 velocity=126 time=0.003124997916666666@note_on channel=1 note=62 velocity=0 time=0.1843748770833333@note_on channel=4 note=32 velocity=0 time=0@note_on channel=1 note=63 velocity=126 time=0.003124997916666666@note_on channel=4 note=36 velocity=126 time=0@note_on channel=1 note=63 velocity=0 time=0.1843748770833333@note_on channel=1 note=67 velocity=126 time=0.003124997916666666@note_on channel=1 note=67 velocity=0 time=0.1843748770833333@note_on channel=1 note=60 velocity=126 time=0.003124997916666666@note_on channel=1 note=60 velocity=0 time=0.37187475208333326@note_on channel=4 note=36 velocity=0 time=0@note_on channel=1 note=62 velocity=126 time=0.003124997916666666@note_on channel=4 note=30 velocity=126 time=0@note_on channel=0 note=72 velocity=0 time=0.1843748770833333@note_on channel=0 note=70 velocity=126 time=0.003124997916666666@note_on channel=0 note=70 velocity=0 time=0.1843748770833333@note_on channel=0 note=72 velocity=126 time=0.003124997916666666@note_on channel=0 note=72 velocity=0 time=0.1843748770833333@note_on channel=0 note=74 velocity=126 time=0.003124997916666666@note_on channel=0 note=74 velocity=0 time=0.1843748770833333@note_on channel=4 note=30 velocity=0 time=0@note_on channel=0 note=72 velocity=126 time=0.003124997916666666@note_on channel=4 note=45 velocity=126 time=0@note_on channel=0 note=72 velocity=0 time=0.1843748770833333@note_on channel=0 note=75 velocity=126 time=0.003124997916666666@note_on channel=0 note=75 velocity=0 time=0.1843748770833333@note_on channel=0 note=66 velocity=126 time=0.003124997916666666@note_on channel=0 note=66 velocity=0 time=0.37187475208333326@note_on channel=4 note=45 velocity=0 time=0@note_on channel=0 note=67 velocity=126 time=0.003124997916666666@note_on channel=4 note=46 velocity=126 time=0@note_on channel=0 note=67 velocity=0 time=0.1843748770833333@note_on channel=0 note=70 velocity=126 time=0.003124997916666666@note_on channel=0 note=70 velocity=0 time=0.1843748770833333@note_on channel=0 note=69 velocity=126 time=0.003124997916666666@note_on channel=0 note=69 velocity=0 time=0.1843748770833333@note_on channel=0 note=67 velocity=126 time=0.003124997916666666@note_on channel=0 note=67 velocity=0 time=0.1843748770833333@note_on channel=1 note=62 velocity=0 time=0@note_on channel=4 note=46 velocity=0 time=0@note_on channel=0 note=69 velocity=126 time=0.003124997916666666@note_on channel=1 note=62 velocity=126 time=0@note_on channel=2 note=57 velocity=126 time=0@note_on channel=4 note=42 velocity=126 time=0@note_on channel=0 note=69 velocity=0 time=0.1843748770833333@note_on channel=0 note=72 velocity=126 time=0.003124997916666666@note_on channel=0 note=72 velocity=0 time=0.1843748770833333@note_on channel=0 note=70 velocity=126 time=0.003124997916666666@note_on channel=0 note=70 velocity=0 time=0.1843748770833333@note_on channel=0 note=69 velocity=126 time=0.003124997916666666@note_on channel=0 note=69 velocity=0 time=0.1843748770833333@note_on channel=1 note=62 velocity=0 time=0@note_on channel=2 note=57 velocity=0 time=0@note_on channel=4 note=42 velocity=0 time=0@note_on channel=0 note=70 velocity=126 time=0.003124997916666666@note_on channel=1 note=62 velocity=126 time=0@note_on channel=2 note=55 velocity=126 time=0@note_on channel=4 note=43 velocity=126 time=0@note_on channel=0 note=70 velocity=0 time=0.1843748770833333@note_on channel=0 note=67 velocity=126 time=0.003124997916666666@note_on channel=0 note=67 velocity=0 time=0.1843748770833333@note_on channel=0 note=69 velocity=126 time=0.003124997916666666@note_on channel=0 note=69 velocity=0 time=0.1843748770833333@note_on channel=0 note=70 velocity=126 time=0.003124997916666666@note_on channel=0 note=70 velocity=0 time=0.1843748770833333@note_on channel=1 note=62 velocity=0 time=0@note_on channel=2 note=55 velocity=0 time=0@note_on channel=4 note=43 velocity=0 time=0@note_on channel=0 note=72 velocity=126 time=0.003124997916666666@note_on channel=1 note=66 velocity=126 time=0@note_on channel=2 note=57 velocity=126 time=0@note_on channel=4 note=38 velocity=126 time=0@note_on channel=0 note=72 velocity=0 time=0.1843748770833333@note_on channel=0 note=74 velocity=126 time=0.003124997916666666@note_on channel=0 note=74 velocity=0 time=0.1843748770833333@note_on channel=0 note=76 velocity=126 time=0.003124997916666666@note_on channel=0 note=76 velocity=0 time=0.1843748770833333@note_on channel=0 note=78 velocity=126 time=0.003124997916666666@note_on channel=0 note=78 velocity=0 time=0.1843748770833333@note_on channel=1 note=66 velocity=0 time=0@note_on channel=2 note=57 velocity=0 time=0@note_on channel=4 note=38 velocity=0 time=0@note_on channel=0 note=79 velocity=126 time=0.003124997916666666@note_on channel=4 note=39 velocity=126 time=0@note_on channel=4 note=39 velocity=0 time=0.7468745020833332@note_on channel=1 note=75 velocity=126 time=0.003124997916666666@note_on channel=2 note=58 velocity=126 time=0@note_on channel=3 note=67 velocity=126 time=0@note_on channel=4 note=43 velocity=126 time=0@note_on channel=1 note=75 velocity=0 time=0.37187475208333326@note_on channel=3 note=67 velocity=0 time=0@note_on channel=1 note=74 velocity=126 time=0.003124997916666666@note_on channel=3 note=65 velocity=126 time=0@note_on channel=1 note=74 velocity=0 time=0.37187475208333326@note_on channel=3 note=65 velocity=0 time=0@note_on channel=4 note=43 velocity=0 time=0@note_on channel=1 note=76 velocity=126 time=0.003124997916666666@note_on channel=3 note=55 velocity=126 time=0@note_on channel=4 note=37 velocity=126 time=0@note_on channel=2 note=58 velocity=0 time=0.37187475208333326@note_on channel=3 note=55 velocity=0 time=0@note_on channel=2 note=57 velocity=126 time=0.003124997916666666@note_on channel=3 note=54 velocity=126 time=0@note_on channel=2 note=57 velocity=0 time=0.37187475208333326@note_on channel=3 note=54 velocity=0 time=0@note_on channel=2 note=58 velocity=126 time=0.003124997916666666@note_on channel=3 note=55 velocity=126 time=0@note_on channel=2 note=58 velocity=0 time=0.37187475208333326@note_on channel=3 note=55 velocity=0 time=0@note_on channel=2 note=57 velocity=126 time=0.003124997916666666@note_on channel=3 note=54 velocity=126 time=0@note_on channel=2 note=57 velocity=0 time=0.37187475208333326@note_on channel=3 note=54 velocity=0 time=0@note_on channel=2 note=58 velocity=126 time=0.003124997916666666@note_on channel=3 note=55 velocity=126 time=0@note_on channel=4 note=37 velocity=0 time=0.37187475208333326@note_on channel=4 note=38 velocity=126 time=0.003124997916666666@note_on channel=0 note=79 velocity=0 time=0.37187475208333326@note_on channel=1 note=76 velocity=0 time=0@note_on channel=2 note=58 velocity=0 time=0@note_on channel=3 note=55 velocity=0 time=0@note_on channel=4 note=38 velocity=0 time=0@note_on channel=4 note=39 velocity=126 time=0.003124997916666666@note_on channel=4 note=39 velocity=0 time=0.37187475208333326@note_on channel=4 note=40 velocity=126 time=0.003124997916666666@note_on channel=4 note=40 velocity=0 time=0.37187475208333326@note_on channel=4 note=41 velocity=126 time=0.003124997916666666@note_on channel=4 note=41 velocity=0 time=0.37187475208333326@note_on channel=4 note=42 velocity=126 time=0.003124997916666666@note_on channel=4 note=42 velocity=0 time=0.37187475208333326@note_on channel=4 note=43 velocity=126 time=0.003124997916666666@note_on channel=4 note=43 velocity=0 time=0.37187475208333326@note_on channel=4 note=37 velocity=126 time=0.003124997916666666@note_on channel=4 note=37 velocity=0 time=0.37187475208333326@note_on channel=4 note=38 velocity=126 time=0.003124997916666666@note_on channel=4 note=38 velocity=0 time=0.7468745020833332@note_on channel=0 note=78 velocity=126 time=0.003124997916666666@note_on channel=1 note=74 velocity=126 time=0@note_on channel=2 note=72 velocity=126 time=0@note_on channel=3 note=57 velocity=126 time=0@note_on channel=4 note=26 velocity=126 time=0@note_on channel=0 note=78 velocity=0 time=0.7468745020833332@note_on channel=1 note=74 velocity=0 time=0@note_on channel=2 note=72 velocity=0 time=0@note_on channel=3 note=57 velocity=0 time=0@note_on channel=4 note=26 velocity=0 time=0@note_on channel=0 note=79 velocity=126 time=0.003124997916666666@note_on channel=1 note=74 velocity=126 time=0@note_on channel=2 note=70 velocity=126 time=0@note_on channel=3 note=55 velocity=126 time=0@note_on channel=4 note=31 velocity=126 time=0@note_on channel=0 note=79 velocity=0 time=5.996871002083332@note_on channel=1 note=74 velocity=0 time=0@note_on channel=2 note=70 velocity=0 time=0@note_on channel=3 note=55 velocity=0 time=0@note_on channel=4 note=31 velocity=0 time=0@<meta message set_tempo tempo=666667 time=0.003124997916666666>@note_on channel=0 note=74 velocity=64 time=1.0000005@note_on channel=0 note=74 velocity=0 time=0.3319446104166667@note_on channel=0 note=70 velocity=64 time=0.0013888895833333334@note_on channel=0 note=70 velocity=0 time=0.16527786041666667@note_on channel=0 note=72 velocity=64 time=0.0013888895833333334@note_on channel=0 note=72 velocity=0 time=0.16527786041666667@note_on channel=0 note=69 velocity=64 time=0.0013888895833333334@note_on channel=0 note=69 velocity=0 time=0.16527786041666667@note_on channel=0 note=70 velocity=64 time=0.0013888895833333334@note_on channel=0 note=70 velocity=0 time=0.16527786041666667@note_on channel=0 note=67 velocity=64 time=0.0013888895833333334@note_on channel=0 note=67 velocity=0 time=0.3319446104166667@note_on channel=0 note=79 velocity=64 time=0.0013888895833333334@note_on channel=0 note=79 velocity=0 time=0.3319446104166667@note_on channel=0 note=78 velocity=64 time=0.0013888895833333334@note_on channel=0 note=78 velocity=0 time=0.16527786041666667@note_on channel=0 note=79 velocity=64 time=0.0013888895833333334@note_on channel=0 note=79 velocity=0 time=0.16527786041666667@note_on channel=0 note=76 velocity=64 time=0.0013888895833333334@note_on channel=0 note=76 velocity=0 time=0.16527786041666667@note_on channel=0 note=78 velocity=64 time=0.0013888895833333334@note_on channel=0 note=78 velocity=0 time=0.16527786041666667@note_on channel=0 note=74 velocity=64 time=0.0013888895833333334@note_on channel=0 note=74 velocity=0 time=0.3319446104166667@note_on channel=0 note=79 velocity=64 time=0.0013888895833333334@note_on channel=0 note=79 velocity=0 time=0.16527786041666667@note_on channel=0 note=74 velocity=64 time=0.0013888895833333334@note_on channel=0 note=74 velocity=0 time=0.16527786041666667@note_on channel=0 note=75 velocity=64 time=0.0013888895833333334@note_on channel=0 note=75 velocity=0 time=0.3319446104166667@note_on channel=0 note=72 velocity=64 time=0.0013888895833333334@note_on channel=0 note=72 velocity=0 time=0.3319446104166667@note_on channel=0 note=65 velocity=64 time=0.0013888895833333334@note_on channel=0 note=65 velocity=0 time=0.3319446104166667@note_on channel=0 note=77 velocity=64 time=0.0013888895833333334@note_on channel=0 note=77 velocity=0 time=0.3319446104166667@note_on channel=0 note=74 velocity=64 time=0.0013888895833333334@note_on channel=0 note=74 velocity=0 time=0.16527786041666667@note_on channel=0 note=75 velocity=64 time=0.0013888895833333334@note_on channel=0 note=75 velocity=0 time=0.16527786041666667@note_on channel=0 note=72 velocity=64 time=0.0013888895833333334@note_on channel=0 note=72 velocity=0 time=0.16527786041666667@note_on channel=0 note=74 velocity=64 time=0.0013888895833333334@note_on channel=0 note=74 velocity=0 time=0.16527786041666667@note_on channel=0 note=70 velocity=64 time=0.0013888895833333334@note_on channel=0 note=70 velocity=0 time=0.3319446104166667@note_on channel=0 note=75 velocity=64 time=0.0013888895833333334@note_on channel=0 note=75 velocity=0 time=0.16527786041666667@note_on channel=0 note=70 velocity=64 time=0.0013888895833333334@note_on channel=0 note=70 velocity=0 time=0.16527786041666667@note_on channel=0 note=72 velocity=64 time=0.0013888895833333334@note_on channel=0 note=72 velocity=0 time=0.3319446104166667@note_on channel=0 note=69 velocity=64 time=0.0013888895833333334@note_on channel=0 note=69 velocity=0 time=0.3319446104166667@note_on channel=0 note=62 velocity=64 time=0.0013888895833333334@note_on channel=0 note=62 velocity=0 time=0.3319446104166667@note_on channel=0 note=74 velocity=64 time=0.0013888895833333334@note_on channel=0 note=74 velocity=0 time=0.3319446104166667@note_on channel=0 note=70 velocity=64 time=0.0013888895833333334@note_on channel=0 note=70 velocity=0 time=0.16527786041666667@note_on channel=0 note=72 velocity=64 time=0.0013888895833333334@note_on channel=0 note=72 velocity=0 time=0.16527786041666667@note_on channel=0 note=69 velocity=64 time=0.0013888895833333334@note_on channel=0 note=69 velocity=0 time=0.16527786041666667@note_on channel=0 note=70 velocity=64 time=0.0013888895833333334@note_on channel=0 note=70 velocity=0 time=0.16527786041666667@note_on channel=0 note=67 velocity=64 time=0.0013888895833333334@note_on channel=0 note=67 velocity=0 time=0.16527786041666667@note_on channel=0 note=69 velocity=64 time=0.0013888895833333334@note_on channel=0 note=69 velocity=0 time=0.16527786041666667@note_on channel=0 note=70 velocity=64 time=0.0013888895833333334@note_on channel=1 note=67 velocity=80 time=0@note_on channel=0 note=70 velocity=0 time=0.16527786041666667@note_on channel=0 note=72 velocity=64 time=0.0013888895833333334@note_on channel=0 note=72 velocity=0 time=0.16527786041666667@note_on channel=1 note=67 velocity=0 time=0@note_on channel=0 note=74 velocity=64 time=0.0013888895833333334@note_on channel=1 note=65 velocity=80 time=0@note_on channel=1 note=65 velocity=0 time=0.16527786041666667@note_on channel=1 note=67 velocity=80 time=0.0013888895833333334@note_on channel=0 note=74 velocity=0 time=0.16527786041666667@note_on channel=1 note=67 velocity=0 time=0@note_on channel=0 note=76 velocity=64 time=0.0013888895833333334@note_on channel=1 note=64 velocity=80 time=0@note_on channel=1 note=64 velocity=0 time=0.16527786041666667@note_on channel=1 note=65 velocity=80 time=0.0013888895833333334@note_on channel=0 note=76 velocity=0 time=0.16527786041666667@note_on channel=1 note=65 velocity=0 time=0@note_on channel=0 note=77 velocity=64 time=0.0013888895833333334@note_on channel=1 note=62 velocity=80 time=0@note_on channel=0 note=77 velocity=0 time=0.16527786041666667@note_on channel=0 note=79 velocity=64 time=0.0013888895833333334@note_on channel=0 note=79 velocity=0 time=0.16527786041666667@note_on channel=1 note=62 velocity=0 time=0@note_on channel=0 note=77 velocity=64 time=0.0013888895833333334@note_on channel=1 note=74 velocity=80 time=0@note_on channel=0 note=77 velocity=0 time=0.16527786041666667@note_on channel=0 note=79 velocity=64 time=0.0013888895833333334@note_on channel=0 note=79 velocity=0 time=0.16527786041666667@note_on channel=1 note=74 velocity=0 time=0@note_on channel=0 note=81 velocity=64 time=0.0013888895833333334@note_on channel=1 note=73 velocity=80 time=0@note_on channel=1 note=73 velocity=0 time=0.16527786041666667@note_on channel=1 note=74 velocity=80 time=0.0013888895833333334@note_on channel=0 note=81 velocity=0 time=0.16527786041666667@note_on channel=1 note=74 velocity=0 time=0@note_on channel=0 note=76 velocity=64 time=0.0013888895833333334@note_on channel=1 note=71 velocity=80 time=0@note_on channel=1 note=71 velocity=0 time=0.16527786041666667@note_on channel=1 note=73 velocity=80 time=0.0013888895833333334@note_on channel=0 note=76 velocity=0 time=0.16527786041666667@note_on channel=1 note=73 velocity=0 time=0@note_on channel=0 note=77 velocity=64 time=0.0013888895833333334@note_on channel=1 note=69 velocity=80 time=0@note_on channel=1 note=69 velocity=0 time=0.3319446104166667@note_on channel=1 note=74 velocity=80 time=0.0013888895833333334@note_on channel=1 note=74 velocity=0 time=0.16527786041666667@note_on channel=1 note=69 velocity=80 time=0.0013888895833333334@note_on channel=1 note=69 velocity=0 time=0.16527786041666667@note_on channel=1 note=70 velocity=80 time=0.0013888895833333334@note_on channel=1 note=70 velocity=0 time=0.3319446104166667@note_on channel=1 note=67 velocity=80 time=0.0013888895833333334@note_on channel=0 note=77 velocity=0 time=0.3319446104166667@note_on channel=1 note=67 velocity=0 time=0@note_on channel=0 note=76 velocity=64 time=0.0013888895833333334@note_on channel=1 note=60 velocity=80 time=0@note_on channel=1 note=60 velocity=0 time=0.3319446104166667@note_on channel=1 note=72 velocity=80 time=0.0013888895833333334@note_on channel=1 note=72 velocity=0 time=0.3319446104166667@note_on channel=1 note=69 velocity=80 time=0.0013888895833333334@note_on channel=1 note=69 velocity=0 time=0.16527786041666667@note_on channel=1 note=70 velocity=80 time=0.0013888895833333334@note_on channel=1 note=70 velocity=0 time=0.16527786041666667@note_on channel=1 note=67 velocity=80 time=0.0013888895833333334@note_on channel=1 note=67 velocity=0 time=0.16527786041666667@note_on channel=1 note=69 velocity=80 time=0.0013888895833333334@note_on channel=0 note=76 velocity=0 time=0.16527786041666667@note_on channel=1 note=69 velocity=0 time=0@note_on channel=0 note=74 velocity=64 time=0.0013888895833333334@note_on channel=1 note=65 velocity=80 time=0@note_on channel=1 note=65 velocity=0 time=0.3319446104166667@note_on channel=1 note=70 velocity=80 time=0.0013888895833333334@note_on channel=1 note=70 velocity=0 time=0.16527786041666667@note_on channel=1 note=65 velocity=80 time=0.0013888895833333334@note_on channel=1 note=65 velocity=0 time=0.16527786041666667@note_on channel=1 note=67 velocity=80 time=0.0013888895833333334@note_on channel=1 note=67 velocity=0 time=0.3319446104166667@note_on channel=1 note=64 velocity=80 time=0.0013888895833333334@note_on channel=0 note=74 velocity=0 time=0.3319446104166667@note_on channel=1 note=64 velocity=0 time=0@note_on channel=0 note=73 velocity=64 time=0.0013888895833333334@note_on channel=1 note=57 velocity=80 time=0@note_on channel=1 note=57 velocity=0 time=0.3319446104166667@note_on channel=1 note=69 velocity=80 time=0.0013888895833333334@note_on channel=0 note=73 velocity=0 time=0.3319446104166667@note_on channel=1 note=69 velocity=0 time=0@note_on channel=0 note=74 velocity=64 time=0.0013888895833333334@note_on channel=1 note=65 velocity=80 time=0@note_on channel=1 note=65 velocity=0 time=0.16527786041666667@note_on channel=1 note=67 velocity=80 time=0.0013888895833333334@note_on channel=1 note=67 velocity=0 time=0.16527786041666667@note_on channel=1 note=64 velocity=80 time=0.0013888895833333334@note_on channel=1 note=64 velocity=0 time=0.16527786041666667@note_on channel=1 note=65 velocity=80 time=0.0013888895833333334@note_on channel=0 note=74 velocity=0 time=0.16527786041666667@note_on channel=1 note=65 velocity=0 time=0@note_on channel=1 note=62 velocity=80 time=0.0013888895833333334@note_on channel=1 note=62 velocity=0 time=0.16527786041666667@note_on channel=1 note=64 velocity=80 time=0.0013888895833333334@note_on channel=1 note=64 velocity=0 time=0.16527786041666667@note_on channel=0 note=74 velocity=64 time=0.0013888895833333334@note_on channel=1 note=65 velocity=80 time=0@note_on channel=1 note=65 velocity=0 time=0.16527786041666667@note_on channel=1 note=67 velocity=80 time=0.0013888895833333334@note_on channel=0 note=74 velocity=0 time=0.16527786041666667@note_on channel=1 note=67 velocity=0 time=0@note_on channel=0 note=72 velocity=64 time=0.0013888895833333334@note_on channel=1 note=69 velocity=80 time=0@note_on channel=0 note=72 velocity=0 time=0.16527786041666667@note_on channel=0 note=74 velocity=64 time=0.0013888895833333334@note_on channel=0 note=74 velocity=0 time=0.16527786041666667@note_on channel=1 note=69 velocity=0 time=0@note_on channel=0 note=70 velocity=64 time=0.0013888895833333334@note_on channel=1 note=67 velocity=80 time=0@note_on channel=0 note=70 velocity=0 time=0.16527786041666667@note_on channel=0 note=72 velocity=64 time=0.0013888895833333334@note_on channel=0 note=72 velocity=0 time=0.16527786041666667@note_on channel=1 note=67 velocity=0 time=0@note_on channel=0 note=69 velocity=64 time=0.0013888895833333334@note_on channel=1 note=66 velocity=80 time=0@note_on channel=0 note=69 velocity=0 time=0.16527786041666667@note_on channel=0 note=70 velocity=64 time=0.0013888895833333334@note_on channel=0 note=70 velocity=0 time=0.16527786041666667@note_on channel=1 note=66 velocity=0 time=0@note_on channel=0 note=72 velocity=64 time=0.0013888895833333334@note_on channel=1 note=62 velocity=80 time=0@note_on channel=0 note=72 velocity=0 time=0.16527786041666667@note_on channel=0 note=74 velocity=64 time=0.0013888895833333334@note_on channel=0 note=74 velocity=0 time=0.16527786041666667@note_on channel=1 note=62 velocity=0 time=0@note_on channel=0 note=70 velocity=64 time=0.0013888895833333334@note_on channel=1 note=67 velocity=80 time=0@note_on channel=0 note=70 velocity=0 time=0.16527786041666667@note_on channel=0 note=72 velocity=64 time=0.0013888895833333334@note_on channel=0 note=72 velocity=0 time=0.16527786041666667@note_on channel=1 note=67 velocity=0 time=0@note_on channel=0 note=69 velocity=64 time=0.0013888895833333334@note_on channel=1 note=65 velocity=80 time=0@note_on channel=0 note=69 velocity=0 time=0.16527786041666667@note_on channel=0 note=70 velocity=64 time=0.0013888895833333334@note_on channel=0 note=70 velocity=0 time=0.16527786041666667@note_on channel=1 note=65 velocity=0 time=0@note_on channel=0 note=67 velocity=64 time=0.0013888895833333334@note_on channel=1 note=63 velocity=80 time=0@note_on channel=0 note=67 velocity=0 time=0.16527786041666667@note_on channel=0 note=69 velocity=64 time=0.0013888895833333334@note_on channel=0 note=69 velocity=0 time=0.16527786041666667@note_on channel=1 note=63 velocity=0 time=0@note_on channel=0 note=70 velocity=64 time=0.0013888895833333334@note_on channel=1 note=62 velocity=80 time=0@note_on channel=0 note=70 velocity=0 time=0.16527786041666667@note_on channel=0 note=72 velocity=64 time=0.0013888895833333334@note_on channel=0 note=72 velocity=0 time=0.16527786041666667@note_on channel=1 note=62 velocity=0 time=0@note_on channel=0 note=69 velocity=64 time=0.0013888895833333334@note_on channel=1 note=60 velocity=80 time=0@note_on channel=0 note=69 velocity=0 time=0.16527786041666667@note_on channel=0 note=70 velocity=64 time=0.0013888895833333334@note_on channel=0 note=70 velocity=0 time=0.16527786041666667@note_on channel=1 note=60 velocity=0 time=0@note_on channel=0 note=67 velocity=64 time=0.0013888895833333334@note_on channel=1 note=63 velocity=80 time=0@note_on channel=0 note=67 velocity=0 time=0.16527786041666667@note_on channel=0 note=69 velocity=64 time=0.0013888895833333334@note_on channel=0 note=69 velocity=0 time=0.16527786041666667@note_on channel=1 note=63 velocity=0 time=0@note_on channel=0 note=66 velocity=64 time=0.0013888895833333334@note_on channel=1 note=62 velocity=80 time=0@note_on channel=0 note=66 velocity=0 time=0.16527786041666667@note_on channel=0 note=69 velocity=64 time=0.0013888895833333334@note_on channel=0 note=69 velocity=0 time=0.16527786041666667@note_on channel=1 note=62 velocity=0 time=0@note_on channel=0 note=67 velocity=64 time=0.0013888895833333334@note_on channel=1 note=64 velocity=80 time=0@note_on channel=0 note=67 velocity=0 time=0.16527786041666667@note_on channel=0 note=70 velocity=64 time=0.0013888895833333334@note_on channel=0 note=70 velocity=0 time=0.16527786041666667@note_on channel=1 note=64 velocity=0 time=0@note_on channel=0 note=69 velocity=64 time=0.0013888895833333334@note_on channel=1 note=66 velocity=80 time=0@note_on channel=0 note=69 velocity=0 time=0.16527786041666667@note_on channel=0 note=72 velocity=64 time=0.0013888895833333334@note_on channel=0 note=72 velocity=0 time=0.16527786041666667@note_on channel=1 note=66 velocity=0 time=0@note_on channel=0 note=70 velocity=64 time=0.0013888895833333334@note_on channel=1 note=67 velocity=80 time=0@note_on channel=0 note=70 velocity=0 time=0.16527786041666667@note_on channel=0 note=74 velocity=64 time=0.0013888895833333334@note_on channel=0 note=74 velocity=0 time=0.16527786041666667@note_on channel=1 note=67 velocity=0 time=0@note_on channel=0 note=72 velocity=64 time=0.0013888895833333334@note_on channel=1 note=69 velocity=80 time=0@note_on channel=0 note=72 velocity=0 time=0.16527786041666667@note_on channel=0 note=75 velocity=64 time=0.0013888895833333334@note_on channel=0 note=75 velocity=0 time=0.16527786041666667@note_on channel=1 note=69 velocity=0 time=0@note_on channel=0 note=74 velocity=64 time=0.0013888895833333334@note_on channel=1 note=70 velocity=80 time=0@note_on channel=0 note=74 velocity=0 time=0.16527786041666667@note_on channel=0 note=77 velocity=64 time=0.0013888895833333334@note_on channel=0 note=77 velocity=0 time=0.16527786041666667@note_on channel=1 note=70 velocity=0 time=0@note_on channel=0 note=76 velocity=64 time=0.0013888895833333334@note_on channel=1 note=72 velocity=80 time=0@note_on channel=0 note=76 velocity=0 time=0.16527786041666667@note_on channel=0 note=78 velocity=68 time=0.0013888895833333334@note_on channel=0 note=78 velocity=0 time=0.16527786041666667@note_on channel=0 note=79 velocity=72 time=0.0013888895833333334@note_on channel=1 note=72 velocity=0 time=0.16527786041666667@note_on channel=1 note=70 velocity=86 time=0.0013888895833333334@note_on channel=1 note=70 velocity=0 time=0.16527786041666667@note_on channel=1 note=69 velocity=88 time=0.0013888895833333334@note_on channel=0 note=79 velocity=0 time=0.16527786041666667@note_on channel=0 note=79 velocity=84 time=0.0013888895833333334@note_on channel=0 note=79 velocity=0 time=0.16527786041666667@note_on channel=0 note=78 velocity=88 time=0.0013888895833333334@note_on channel=2 note=62 velocity=96 time=0@note_on channel=1 note=69 velocity=0 time=0.16527786041666667@note_on channel=1 note=69 velocity=94 time=0.0013888895833333334@note_on channel=0 note=78 velocity=0 time=0.16527786041666667@note_on channel=1 note=69 velocity=0 time=0@note_on channel=2 note=62 velocity=0 time=0@note_on channel=0 note=79 velocity=96 time=0.0013888895833333334@note_on channel=1 note=67 velocity=96 time=0@note_on channel=2 note=58 velocity=96 time=0@note_on channel=2 note=58 velocity=0 time=0.16527786041666667@note_on channel=2 note=60 velocity=96 time=0.0013888895833333334@note_on channel=1 note=67 velocity=0 time=0.16527786041666667@note_on channel=2 note=60 velocity=0 time=0@note_on channel=1 note=69 velocity=96 time=0.0013888895833333334@note_on channel=2 note=57 velocity=96 time=0@note_on channel=2 note=57 velocity=0 time=0.16527786041666667@note_on channel=2 note=58 velocity=96 time=0.0013888895833333334@note_on channel=0 note=79 velocity=0 time=0.16527786041666667@note_on channel=1 note=69 velocity=0 time=0@note_on channel=2 note=58 velocity=0 time=0@note_on channel=1 note=70 velocity=96 time=0.0013888895833333334@note_on channel=2 note=55 velocity=96 time=0@note_on channel=1 note=70 velocity=0 time=0.16527786041666667@note_on channel=1 note=72 velocity=96 time=0.0013888895833333334@note_on channel=1 note=72 velocity=0 time=0.16527786041666667@note_on channel=2 note=55 velocity=0 time=0@note_on channel=0 note=82 velocity=96 time=0.0013888895833333334@note_on channel=1 note=70 velocity=96 time=0@note_on channel=2 note=67 velocity=96 time=0@note_on channel=1 note=70 velocity=0 time=0.16527786041666667@note_on channel=1 note=72 velocity=96 time=0.0013888895833333334@note_on channel=0 note=82 velocity=0 time=0.16527786041666667@note_on channel=1 note=72 velocity=0 time=0@note_on channel=2 note=67 velocity=0 time=0@note_on channel=0 note=81 velocity=96 time=0.0013888895833333334@note_on channel=1 note=74 velocity=96 time=0@note_on channel=2 note=66 velocity=96 time=0@note_on channel=2 note=66 velocity=0 time=0.16527786041666667@note_on channel=2 note=67 velocity=96 time=0.0013888895833333334@note_on channel=0 note=81 velocity=0 time=0.16527786041666667@note_on channel=1 note=74 velocity=0 time=0@note_on channel=2 note=67 velocity=0 time=0@note_on channel=0 note=79 velocity=96 time=0.0013888895833333334@note_on channel=1 note=69 velocity=96 time=0@note_on channel=2 note=64 velocity=96 time=0@note_on channel=2 note=64 velocity=0 time=0.16527786041666667@note_on channel=2 note=66 velocity=96 time=0.0013888895833333334@note_on channel=0 note=79 velocity=0 time=0.16527786041666667@note_on channel=1 note=69 velocity=0 time=0@note_on channel=2 note=66 velocity=0 time=0@note_on channel=0 note=78 velocity=96 time=0.0013888895833333334@note_on channel=1 note=70 velocity=96 time=0@note_on channel=2 note=62 velocity=96 time=0@note_on channel=0 note=78 velocity=0 time=0.3319446104166667@note_on channel=2 note=62 velocity=0 time=0@note_on channel=0 note=79 velocity=96 time=0.0013888895833333334@note_on channel=2 note=67 velocity=96 time=0@note_on channel=2 note=67 velocity=0 time=0.16527786041666667@note_on channel=2 note=62 velocity=96 time=0.0013888895833333334@note_on channel=0 note=79 velocity=0 time=0.16527786041666667@note_on channel=2 note=62 velocity=0 time=0@note_on channel=0 note=72 velocity=96 time=0.0013888895833333334@note_on channel=2 note=63 velocity=96 time=0@note_on channel=0 note=72 velocity=0 time=0.16527786041666667@note_on channel=0 note=74 velocity=96 time=0.0013888895833333334@note_on channel=0 note=74 velocity=0 time=0.16527786041666667@note_on channel=2 note=63 velocity=0 time=0@note_on channel=0 note=75 velocity=96 time=0.0013888895833333334@note_on channel=2 note=60 velocity=96 time=0@note_on channel=1 note=70 velocity=0 time=0.3319446104166667@note_on channel=2 note=60 velocity=0 time=0@note_on channel=1 note=69 velocity=96 time=0.0013888895833333334@note_on channel=2 note=53 velocity=96 time=0@note_on channel=0 note=75 velocity=0 time=0.16527786041666667@note_on channel=0 note=75 velocity=96 time=0.0013888895833333334@note_on channel=0 note=75 velocity=0 time=0.16527786041666667@note_on channel=2 note=53 velocity=0 time=0@note_on channel=0 note=74 velocity=96 time=0.0013888895833333334@note_on channel=2 note=65 velocity=96 time=0@note_on channel=0 note=74 velocity=0 time=0.16527786041666667@note_on channel=0 note=72 velocity=96 time=0.0013888895833333334@note_on channel=0 note=72 velocity=0 time=0.16527786041666667@note_on channel=2 note=65 velocity=0 time=0@note_on channel=0 note=70 velocity=96 time=0.0013888895833333334@note_on channel=2 note=62 velocity=96 time=0@note_on channel=0 note=70 velocity=0 time=0.16527786041666667@note_on channel=2 note=62 velocity=0 time=0@note_on channel=0 note=72 velocity=96 time=0.0013888895833333334@note_on channel=2 note=63 velocity=96 time=0@note_on channel=0 note=72 velocity=0 time=0.16527786041666667@note_on channel=2 note=63 velocity=0 time=0@note_on channel=0 note=74 velocity=96 time=0.0013888895833333334@note_on channel=2 note=60 velocity=96 time=0@note_on channel=2 note=60 velocity=0 time=0.16527786041666667@note_on channel=2 note=62 velocity=96 time=0.0013888895833333334@note_on channel=1 note=69 velocity=0 time=0.16527786041666667@note_on channel=2 note=62 velocity=0 time=0@note_on channel=1 note=67 velocity=96 time=0.0013888895833333334@note_on channel=2 note=58 velocity=96 time=0@note_on channel=0 note=74 velocity=0 time=0.16527786041666667@note_on channel=0 note=74 velocity=96 time=0.0013888895833333334@note_on channel=0 note=74 velocity=0 time=0.16527786041666667@note_on channel=2 note=58 velocity=0 time=0@note_on channel=0 note=72 velocity=96 time=0.0013888895833333334@note_on channel=2 note=63 velocity=96 time=0@note_on channel=0 note=72 velocity=0 time=0.16527786041666667@note_on channel=2 note=63 velocity=0 time=0@note_on channel=0 note=70 velocity=96 time=0.0013888895833333334@note_on channel=2 note=58 velocity=96 time=0@note_on channel=0 note=70 velocity=0 time=0.16527786041666667@note_on channel=2 note=58 velocity=0 time=0@note_on channel=0 note=69 velocity=96 time=0.0013888895833333334@note_on channel=2 note=60 velocity=96 time=0@note_on channel=0 note=69 velocity=0 time=0.16527786041666667@note_on channel=0 note=70 velocity=96 time=0.0013888895833333334@note_on channel=0 note=70 velocity=0 time=0.16527786041666667@note_on channel=2 note=60 velocity=0 time=0@note_on channel=0 note=72 velocity=96 time=0.0013888895833333334@note_on channel=2 note=57 velocity=96 time=0@note_on channel=1 note=67 velocity=0 time=0.3319446104166667@note_on channel=2 note=57 velocity=0 time=0@note_on channel=1 note=66 velocity=96 time=0.0013888895833333334@note_on channel=2 note=50 velocity=96 time=0@note_on channel=0 note=72 velocity=0 time=0.16527786041666667@note_on channel=0 note=72 velocity=96 time=0.0013888895833333334@note_on channel=0 note=72 velocity=0 time=0.16527786041666667@note_on channel=2 note=50 velocity=0 time=0@note_on channel=0 note=70 velocity=96 time=0.0013888895833333334@note_on channel=2 note=62 velocity=96 time=0@note_on channel=0 note=70 velocity=0 time=0.16527786041666667@note_on channel=0 note=69 velocity=96 time=0.0013888895833333334@note_on channel=0 note=69 velocity=0 time=0.16527786041666667@note_on channel=1 note=66 velocity=0 time=0@note_on channel=2 note=62 velocity=0 time=0@note_on channel=0 note=67 velocity=96 time=0.0013888895833333334@note_on channel=1 note=67 velocity=96 time=0@note_on channel=2 note=58 velocity=96 time=0@note_on channel=2 note=58 velocity=0 time=0.16527786041666667@note_on channel=2 note=60 velocity=96 time=0.0013888895833333334@note_on channel=0 note=67 velocity=0 time=0.16527786041666667@note_on channel=2 note=60 velocity=0 time=0@note_on channel=0 note=74 velocity=96 time=0.0013888895833333334@note_on channel=2 note=57 velocity=96 time=0@note_on channel=2 note=57 velocity=0 time=0.16527786041666667@note_on channel=2 note=58 velocity=96 time=0.0013888895833333334@note_on channel=0 note=74 velocity=0 time=0.16527786041666667@note_on channel=1 note=67 velocity=0 time=0@note_on channel=2 note=58 velocity=0 time=0@note_on channel=0 note=79 velocity=96 time=0.0013888895833333334@note_on channel=2 note=55 velocity=96 time=0@note_on channel=2 note=55 velocity=0 time=0.16527786041666667@note_on channel=2 note=57 velocity=96 time=0.0013888895833333334@note_on channel=2 note=57 velocity=0 time=0.16527786041666667@note_on channel=1 note=74 velocity=96 time=0.0013888895833333334@note_on channel=2 note=58 velocity=96 time=0@note_on channel=2 note=58 velocity=0 time=0.16527786041666667@note_on channel=2 note=60 velocity=96 time=0.0013888895833333334@note_on channel=1 note=74 velocity=0 time=0.16527786041666667@note_on channel=2 note=60 velocity=0 time=0@note_on channel=1 note=69 velocity=96 time=0.0013888895833333334@note_on channel=2 note=62 velocity=96 time=0@note_on channel=2 note=62 velocity=0 time=0.16527786041666667@note_on channel=2 note=63 velocity=96 time=0.0013888895833333334@note_on channel=0 note=79 velocity=0 time=0.16527786041666667@note_on channel=2 note=63 velocity=0 time=0@note_on channel=0 note=77 velocity=96 time=0.0013888895833333334@note_on channel=2 note=60 velocity=96 time=0@note_on channel=2 note=60 velocity=0 time=0.16527786041666667@note_on channel=2 note=62 velocity=96 time=0.0013888895833333334@note_on channel=0 note=77 velocity=0 time=0.16527786041666667@note_on channel=1 note=69 velocity=0 time=0@note_on channel=2 note=62 velocity=0 time=0@note_on channel=0 note=82 velocity=96 time=0.0013888895833333334@note_on channel=2 note=58 velocity=96 time=0@note_on channel=2 note=58 velocity=0 time=0.16527786041666667@note_on channel=2 note=60 velocity=96 time=0.0013888895833333334@note_on channel=2 note=60 velocity=0 time=0.16527786041666667@note_on channel=1 note=77 velocity=96 time=0.0013888895833333334@note_on channel=2 note=62 velocity=96 time=0@note_on channel=2 note=62 velocity=0 time=0.16527786041666667@note_on channel=2 note=63 velocity=96 time=0.0013888895833333334@note_on channel=1 note=77 velocity=0 time=0.16527786041666667@note_on channel=2 note=63 velocity=0 time=0@note_on channel=1 note=72 velocity=96 time=0.0013888895833333334@note_on channel=2 note=65 velocity=96 time=0@note_on channel=2 note=65 velocity=0 time=0.16527786041666667@note_on channel=2 note=67 velocity=96 time=0.0013888895833333334@note_on channel=0 note=82 velocity=0 time=0.16527786041666667@note_on channel=2 note=67 velocity=0 time=0@note_on channel=0 note=81 velocity=96 time=0.0013888895833333334@note_on channel=2 note=63 velocity=96 time=0@note_on channel=2 note=63 velocity=0 time=0.16527786041666667@note_on channel=2 note=65 velocity=96 time=0.0013888895833333334@note_on channel=1 note=72 velocity=0 time=0.16527786041666667@note_on channel=2 note=65 velocity=0 time=0@note_on channel=1 note=70 velocity=96 time=0.0013888895833333334@note_on channel=2 note=62 velocity=96 time=0@note_on channel=2 note=62 velocity=0 time=0.16527786041666667@note_on channel=2 note=65 velocity=96 time=0.0013888895833333334@note_on channel=0 note=81 velocity=0 time=0.16527786041666667@note_on channel=2 note=65 velocity=0 time=0@note_on channel=0 note=79 velocity=96 time=0.0013888895833333334@note_on channel=2 note=63 velocity=96 time=0@note_on channel=2 note=63 velocity=0 time=0.16527786041666667@note_on channel=2 note=62 velocity=96 time=0.0013888895833333334@note_on channel=1 note=70 velocity=0 time=0.16527786041666667@note_on channel=2 note=62 velocity=0 time=0@note_on channel=1 note=69 velocity=96 time=0.0013888895833333334@note_on channel=2 note=60 velocity=96 time=0@note_on channel=2 note=60 velocity=0 time=0.16527786041666667@note_on channel=2 note=62 velocity=96 time=0.0013888895833333334@note_on channel=0 note=79 velocity=0 time=0.16527786041666667@note_on channel=2 note=62 velocity=0 time=0@note_on channel=0 note=79 velocity=96 time=0.0013888895833333334@note_on channel=2 note=58 velocity=96 time=0@note_on channel=2 note=58 velocity=0 time=0.16527786041666667@note_on channel=2 note=60 velocity=96 time=0.0013888895833333334@note_on channel=0 note=79 velocity=0 time=0.16527786041666667@note_on channel=2 note=60 velocity=0 time=0@note_on channel=0 note=78 velocity=96 time=0.0013888895833333334@note_on channel=2 note=57 velocity=96 time=0@note_on channel=2 note=57 velocity=0 time=0.16527786041666667@note_on channel=2 note=58 velocity=96 time=0.0013888895833333334@note_on channel=1 note=69 velocity=0 time=0.16527786041666667@note_on channel=2 note=58 velocity=0 time=0@note_on channel=1 note=69 velocity=96 time=0.0013888895833333334@note_on channel=2 note=60 velocity=96 time=0@note_on channel=2 note=60 velocity=0 time=0.16527786041666667@note_on channel=2 note=62 velocity=96 time=0.0013888895833333334@note_on channel=0 note=78 velocity=0 time=0.16527786041666667@note_on channel=1 note=69 velocity=0 time=0@note_on channel=2 note=62 velocity=0 time=0@note_on channel=0 note=79 velocity=96 time=0.0013888895833333334@note_on channel=1 note=67 velocity=96 time=0@note_on channel=2 note=58 velocity=96 time=0@note_on channel=2 note=58 velocity=0 time=0.16527786041666667@note_on channel=2 note=60 velocity=98 time=0.0013888895833333334@note_on channel=1 note=67 velocity=0 time=0.16527786041666667@note_on channel=2 note=60 velocity=0 time=0@note_on channel=1 note=69 velocity=100 time=0.0013888895833333334@note_on channel=2 note=57 velocity=100 time=0@note_on channel=2 note=57 velocity=0 time=0.16527786041666667@note_on channel=2 note=58 velocity=102 time=0.0013888895833333334@note_on channel=0 note=79 velocity=0 time=0.16527786041666667@note_on channel=1 note=69 velocity=0 time=0@note_on channel=2 note=58 velocity=0 time=0@note_on channel=1 note=70 velocity=104 time=0.0013888895833333334@note_on channel=2 note=55 velocity=104 time=0@note_on channel=2 note=55 velocity=0 time=0.16527786041666667@note_on channel=2 note=57 velocity=106 time=0.0013888895833333334@note_on channel=2 note=57 velocity=0 time=0.16527786041666667@note_on channel=0 note=74 velocity=108 time=0.0013888895833333334@note_on channel=2 note=58 velocity=108 time=0@note_on channel=3 note=55 velocity=112 time=0@note_on channel=4 note=43 velocity=112 time=0@note_on channel=0 note=74 velocity=0 time=0.16527786041666667@note_on channel=2 note=58 velocity=0 time=0@note_on channel=0 note=76 velocity=110 time=0.0013888895833333334@note_on channel=2 note=60 velocity=110 time=0@note_on channel=0 note=76 velocity=0 time=0.16527786041666667@note_on channel=1 note=70 velocity=0 time=0@note_on channel=2 note=60 velocity=0 time=0@note_on channel=3 note=55 velocity=0 time=0@note_on channel=4 note=43 velocity=0 time=0@note_on channel=0 note=77 velocity=112 time=0.0013888895833333334@note_on channel=1 note=69 velocity=112 time=0@note_on channel=2 note=62 velocity=112 time=0@note_on channel=3 note=53 velocity=112 time=0@note_on channel=4 note=41 velocity=112 time=0@note_on channel=3 note=53 velocity=0 time=0.16527786041666667@note_on channel=4 note=41 velocity=0 time=0@note_on channel=3 note=55 velocity=112 time=0.0013888895833333334@note_on channel=4 note=43 velocity=112 time=0@note_on channel=0 note=77 velocity=0 time=0.16527786041666667@note_on channel=1 note=69 velocity=0 time=0@note_on channel=2 note=62 velocity=0 time=0@note_on channel=3 note=55 velocity=0 time=0@note_on channel=4 note=43 velocity=0 time=0@note_on channel=0 note=79 velocity=112 time=0.0013888895833333334@note_on channel=1 note=73 velocity=112 time=0@note_on channel=2 note=64 velocity=112 time=0@note_on channel=3 note=52 velocity=112 time=0@note_on channel=4 note=40 velocity=112 time=0@note_on channel=3 note=52 velocity=0 time=0.16527786041666667@note_on channel=4 note=40 velocity=0 time=0@note_on channel=3 note=53 velocity=112 time=0.0013888895833333334@note_on channel=4 note=41 velocity=112 time=0@note_on channel=0 note=79 velocity=0 time=0.16527786041666667@note_on channel=1 note=73 velocity=0 time=0@note_on channel=2 note=64 velocity=0 time=0@note_on channel=3 note=53 velocity=0 time=0@note_on channel=4 note=41 velocity=0 time=0@note_on channel=0 note=81 velocity=112 time=0.0013888895833333334@note_on channel=1 note=74 velocity=112 time=0@note_on channel=2 note=65 velocity=112 time=0@note_on channel=3 note=50 velocity=112 time=0@note_on channel=4 note=38 velocity=112 time=0@note_on channel=2 note=65 velocity=0 time=0.16527786041666667@note_on channel=2 note=67 velocity=112 time=0.0013888895833333334@note_on channel=0 note=81 velocity=0 time=0.16527786041666667@note_on channel=1 note=74 velocity=0 time=0@note_on channel=2 note=67 velocity=0 time=0@note_on channel=3 note=50 velocity=0 time=0@note_on channel=4 note=38 velocity=0 time=0@note_on channel=0 note=82 velocity=112 time=0.0013888895833333334@note_on channel=1 note=77 velocity=112 time=0@note_on channel=2 note=65 velocity=112 time=0@note_on channel=3 note=62 velocity=112 time=0@note_on channel=4 note=50 velocity=112 time=0@note_on channel=2 note=65 velocity=0 time=0.16527786041666667@note_on channel=2 note=67 velocity=112 time=0.0013888895833333334@note_on channel=0 note=82 velocity=0 time=0.16527786041666667@note_on channel=1 note=77 velocity=0 time=0@note_on channel=2 note=67 velocity=0 time=0@note_on channel=3 note=62 velocity=0 time=0@note_on channel=4 note=50 velocity=0 time=0@note_on channel=0 note=81 velocity=112 time=0.0013888895833333334@note_on channel=1 note=76 velocity=112 time=0@note_on channel=2 note=69 velocity=112 time=0@note_on channel=3 note=61 velocity=112 time=0@note_on channel=4 note=49 velocity=112 time=0@note_on channel=3 note=61 velocity=0 time=0.16527786041666667@note_on channel=4 note=49 velocity=0 time=0@note_on channel=3 note=62 velocity=112 time=0.0013888895833333334@note_on channel=4 note=50 velocity=112 time=0@note_on channel=1 note=76 velocity=0 time=0.16527786041666667@note_on channel=2 note=69 velocity=0 time=0@note_on channel=3 note=62 velocity=0 time=0@note_on channel=4 note=50 velocity=0 time=0@note_on channel=1 note=74 velocity=112 time=0.0013888895833333334@note_on channel=2 note=64 velocity=112 time=0@note_on channel=3 note=59 velocity=112 time=0@note_on channel=4 note=47 velocity=112 time=0@note_on channel=3 note=59 velocity=0 time=0.16527786041666667@note_on channel=4 note=47 velocity=0 time=0@note_on channel=3 note=61 velocity=112 time=0.0013888895833333334@note_on channel=4 note=49 velocity=112 time=0@note_on channel=1 note=74 velocity=0 time=0.16527786041666667@note_on channel=2 note=64 velocity=0 time=0@note_on channel=3 note=61 velocity=0 time=0@note_on channel=4 note=49 velocity=0 time=0@note_on channel=1 note=73 velocity=112 time=0.0013888895833333334@note_on channel=2 note=65 velocity=112 time=0@note_on channel=3 note=57 velocity=112 time=0@note_on channel=4 note=45 velocity=112 time=0@note_on channel=0 note=81 velocity=0 time=0.16527786041666667@note_on channel=0 note=79 velocity=112 time=0.0013888895833333334@note_on channel=0 note=79 velocity=0 time=0.16527786041666667@note_on channel=1 note=73 velocity=0 time=0@note_on channel=3 note=57 velocity=0 time=0@note_on channel=4 note=45 velocity=0 time=0@note_on channel=0 note=77 velocity=112 time=0.0013888895833333334@note_on channel=1 note=74 velocity=112 time=0@note_on channel=3 note=62 velocity=112 time=0@note_on channel=4 note=50 velocity=112 time=0@note_on channel=0 note=77 velocity=0 time=0.16527786041666667@note_on channel=3 note=62 velocity=0 time=0@note_on channel=4 note=50 velocity=0 time=0@note_on channel=0 note=76 velocity=112 time=0.0013888895833333334@note_on channel=3 note=57 velocity=112 time=0@note_on channel=4 note=45 velocity=112 time=0@note_on channel=0 note=76 velocity=0 time=0.16527786041666667@note_on channel=1 note=74 velocity=0 time=0@note_on channel=3 note=57 velocity=0 time=0@note_on channel=4 note=45 velocity=0 time=0@note_on channel=0 note=74 velocity=112 time=0.0013888895833333334@note_on channel=1 note=67 velocity=112 time=0@note_on channel=3 note=58 velocity=112 time=0@note_on channel=4 note=46 velocity=112 time=0@note_on channel=1 note=67 velocity=0 time=0.16527786041666667@note_on channel=1 note=69 velocity=112 time=0.0013888895833333334@note_on channel=1 note=69 velocity=0 time=0.16527786041666667@note_on channel=3 note=58 velocity=0 time=0@note_on channel=4 note=46 velocity=0 time=0@note_on channel=1 note=70 velocity=112 time=0.0013888895833333334@note_on channel=3 note=55 velocity=112 time=0@note_on channel=4 note=43 velocity=112 time=0@note_on channel=0 note=74 velocity=0 time=0.3319446104166667@note_on channel=2 note=65 velocity=0 time=0@note_on channel=3 note=55 velocity=0 time=0@note_on channel=4 note=43 velocity=0 time=0@note_on channel=2 note=64 velocity=112 time=0.0013888895833333334@note_on channel=3 note=48 velocity=112 time=0@note_on channel=4 note=36 velocity=112 time=0@note_on channel=1 note=70 velocity=0 time=0.16527786041666667@note_on channel=1 note=70 velocity=112 time=0.0013888895833333334@note_on channel=1 note=70 velocity=0 time=0.16527786041666667@note_on channel=3 note=48 velocity=0 time=0@note_on channel=4 note=36 velocity=0 time=0@note_on channel=0 note=76 velocity=112 time=0.0013888895833333334@note_on channel=1 note=69 velocity=112 time=0@note_on channel=3 note=60 velocity=112 time=0@note_on channel=4 note=48 velocity=112 time=0@note_on channel=1 note=69 velocity=0 time=0.16527786041666667@note_on channel=1 note=67 velocity=112 time=0.0013888895833333334@note_on channel=0 note=76 velocity=0 time=0.16527786041666667@note_on channel=1 note=67 velocity=0 time=0@note_on channel=3 note=60 velocity=0 time=0@note_on channel=4 note=48 velocity=0 time=0@note_on channel=0 note=77 velocity=112 time=0.0013888895833333334@note_on channel=1 note=65 velocity=112 time=0@note_on channel=3 note=57 velocity=112 time=0@note_on channel=4 note=45 velocity=112 time=0@note_on channel=1 note=65 velocity=0 time=0.16527786041666667@note_on channel=3 note=57 velocity=0 time=0@note_on channel=4 note=45 velocity=0 time=0@note_on channel=1 note=67 velocity=112 time=0.0013888895833333334@note_on channel=3 note=58 velocity=112 time=0@note_on channel=4 note=46 velocity=112 time=0@note_on channel=1 note=67 velocity=0 time=0.16527786041666667@note_on channel=3 note=58 velocity=0 time=0@note_on channel=4 note=46 velocity=0 time=0@note_on channel=1 note=69 velocity=112 time=0.0013888895833333334@note_on channel=3 note=55 velocity=112 time=0@note_on channel=4 note=43 velocity=112 time=0@note_on channel=3 note=55 velocity=0 time=0.16527786041666667@note_on channel=4 note=43 velocity=0 time=0@note_on channel=3 note=57 velocity=112 time=0.0013888895833333334@note_on channel=4 note=45 velocity=112 time=0@note_on channel=2 note=64 velocity=0 time=0.16527786041666667@note_on channel=3 note=57 velocity=0 time=0@note_on channel=4 note=45 velocity=0 time=0@note_on channel=2 note=62 velocity=112 time=0.0013888895833333334@note_on channel=3 note=53 velocity=112 time=0@note_on channel=4 note=41 velocity=112 time=0@note_on channel=0 note=77 velocity=0 time=0.16527786041666667@note_on channel=1 note=69 velocity=0 time=0@note_on channel=0 note=77 velocity=112 time=0.0013888895833333334@note_on channel=1 note=69 velocity=112 time=0@note_on channel=0 note=77 velocity=0 time=0.16527786041666667@note_on channel=1 note=69 velocity=0 time=0@note_on channel=3 note=53 velocity=0 time=0@note_on channel=4 note=41 velocity=0 time=0@note_on channel=0 note=79 velocity=112 time=0.0013888895833333334@note_on channel=1 note=67 velocity=112 time=0@note_on channel=3 note=58 velocity=112 time=0@note_on channel=4 note=46 velocity=112 time=0@note_on channel=0 note=79 velocity=0 time=0.16527786041666667@note_on channel=1 note=67 velocity=0 time=0@note_on channel=3 note=58 velocity=0 time=0@note_on channel=4 note=46 velocity=0 time=0@note_on channel=0 note=81 velocity=112 time=0.0013888895833333334@note_on channel=1 note=65 velocity=112 time=0@note_on channel=3 note=53 velocity=112 time=0@note_on channel=4 note=41 velocity=112 time=0@note_on channel=0 note=81 velocity=0 time=0.16527786041666667@note_on channel=1 note=65 velocity=0 time=0@note_on channel=3 note=53 velocity=0 time=0@note_on channel=4 note=41 velocity=0 time=0@note_on channel=0 note=82 velocity=112 time=0.0013888895833333334@note_on channel=1 note=64 velocity=112 time=0@note_on channel=3 note=55 velocity=112 time=0@note_on channel=4 note=43 velocity=112 time=0@note_on channel=0 note=82 velocity=0 time=0.16527786041666667@note_on channel=1 note=64 velocity=0 time=0@note_on channel=0 note=81 velocity=112 time=0.0013888895833333334@note_on channel=1 note=65 velocity=112 time=0@note_on channel=0 note=81 velocity=0 time=0.16527786041666667@note_on channel=1 note=65 velocity=0 time=0@note_on channel=3 note=55 velocity=0 time=0@note_on channel=4 note=43 velocity=0 time=0@note_on channel=0 note=79 velocity=112 time=0.0013888895833333334@note_on channel=1 note=67 velocity=112 time=0@note_on channel=3 note=52 velocity=112 time=0@note_on channel=4 note=40 velocity=112 time=0@note_on channel=0 note=79 velocity=0 time=0.16527786041666667@note_on channel=0 note=77 velocity=112 time=0.0013888895833333334@note_on channel=0 note=77 velocity=0 time=0.16527786041666667@note_on channel=2 note=62 velocity=0 time=0@note_on channel=3 note=52 velocity=0 time=0@note_on channel=4 note=40 velocity=0 time=0@note_on channel=0 note=76 velocity=112 time=0.0013888895833333334@note_on channel=2 note=61 velocity=112 time=0@note_on channel=3 note=45 velocity=112 time=0@note_on channel=4 note=33 velocity=112 time=0@note_on channel=1 note=67 velocity=0 time=0.16527786041666667@note_on channel=1 note=67 velocity=112 time=0.0013888895833333334@note_on channel=1 note=67 velocity=0 time=0.16527786041666667@note_on channel=3 note=45 velocity=0 time=0@note_on channel=4 note=33 velocity=0 time=0@note_on channel=1 note=65 velocity=112 time=0.0013888895833333334@note_on channel=3 note=57 velocity=112 time=0@note_on channel=4 note=45 velocity=112 time=0@note_on channel=0 note=76 velocity=0 time=0.16527786041666667@note_on channel=1 note=65 velocity=0 time=0@note_on channel=0 note=74 velocity=112 time=0.0013888895833333334@note_on channel=1 note=64 velocity=112 time=0@note_on channel=0 note=74 velocity=0 time=0.16527786041666667@note_on channel=1 note=64 velocity=0 time=0@note_on channel=2 note=61 velocity=0 time=0@note_on channel=3 note=57 velocity=0 time=0@note_on channel=4 note=45 velocity=0 time=0@note_on channel=0 note=74 velocity=112 time=0.0013888895833333334@note_on channel=1 note=69 velocity=112 time=0@note_on channel=2 note=62 velocity=112 time=0@note_on channel=3 note=53 velocity=112 time=0@note_on channel=4 note=41 velocity=112 time=0@note_on channel=3 note=53 velocity=0 time=0.16527786041666667@note_on channel=4 note=41 velocity=0 time=0@note_on channel=3 note=55 velocity=112 time=0.0013888895833333334@note_on channel=4 note=43 velocity=112 time=0@note_on channel=3 note=55 velocity=0 time=0.16527786041666667@note_on channel=4 note=43 velocity=0 time=0@note_on channel=3 note=52 velocity=112 time=0.0013888895833333334@note_on channel=4 note=40 velocity=112 time=0@note_on channel=3 note=52 velocity=0 time=0.16527786041666667@note_on channel=4 note=40 velocity=0 time=0@note_on channel=3 note=53 velocity=112 time=0.0013888895833333334@note_on channel=4 note=41 velocity=112 time=0@note_on channel=0 note=74 velocity=0 time=0.16527786041666667@note_on channel=1 note=69 velocity=0 time=0@note_on channel=2 note=62 velocity=0 time=0@note_on channel=3 note=53 velocity=0 time=0@note_on channel=4 note=41 velocity=0 time=0@note_on channel=3 note=50 velocity=112 time=0.0013888895833333334@note_on channel=4 note=38 velocity=112 time=0@note_on channel=1 note=74 velocity=112 time=0.16666675@note_on channel=2 note=65 velocity=112 time=0@note_on channel=1 note=74 velocity=0 time=0.16527786041666667@note_on channel=2 note=65 velocity=0 time=0@note_on channel=3 note=50 velocity=0 time=0@note_on channel=4 note=38 velocity=0 time=0@note_on channel=1 note=72 velocity=102 time=0.0013888895833333334@note_on channel=2 note=63 velocity=102 time=0@note_on channel=3 note=53 velocity=112 time=0@note_on channel=1 note=72 velocity=0 time=0.16527786041666667@note_on channel=2 note=63 velocity=0 time=0@note_on channel=1 note=74 velocity=91 time=0.0013888895833333334@note_on channel=2 note=65 velocity=91 time=0@note_on channel=1 note=74 velocity=0 time=0.16527786041666667@note_on channel=2 note=65 velocity=0 time=0@note_on channel=3 note=53 velocity=0 time=0@note_on channel=1 note=70 velocity=80 time=0.0013888895833333334@note_on channel=2 note=62 velocity=80 time=0@note_on channel=3 note=55 velocity=80 time=0@note_on channel=1 note=70 velocity=0 time=0.16527786041666667@note_on channel=2 note=62 velocity=0 time=0@note_on channel=1 note=72 velocity=80 time=0.0013888895833333334@note_on channel=2 note=63 velocity=80 time=0@note_on channel=1 note=72 velocity=0 time=0.16527786041666667@note_on channel=2 note=63 velocity=0 time=0@note_on channel=1 note=69 velocity=80 time=0.0013888895833333334@note_on channel=2 note=60 velocity=80 time=0@note_on channel=1 note=69 velocity=0 time=0.16527786041666667@note_on channel=2 note=60 velocity=0 time=0@note_on channel=1 note=70 velocity=80 time=0.0013888895833333334@note_on channel=2 note=62 velocity=80 time=0@note_on channel=1 note=70 velocity=0 time=0.16527786041666667@note_on channel=2 note=62 velocity=0 time=0@note_on channel=3 note=55 velocity=0 time=0@note_on channel=1 note=67 velocity=80 time=0.0013888895833333334@note_on channel=2 note=58 velocity=80 time=0@note_on channel=3 note=55 velocity=80 time=0.16666675@note_on channel=1 note=67 velocity=0 time=0.16527786041666667@note_on channel=2 note=58 velocity=0 time=0@note_on channel=3 note=55 velocity=0 time=0@note_on channel=1 note=70 velocity=80 time=0.0013888895833333334@note_on channel=2 note=62 velocity=80 time=0@note_on channel=3 note=53 velocity=80 time=0@note_on channel=3 note=53 velocity=0 time=0.16527786041666667@note_on channel=3 note=55 velocity=80 time=0.0013888895833333334@note_on channel=1 note=70 velocity=0 time=0.16527786041666667@note_on channel=2 note=62 velocity=0 time=0@note_on channel=3 note=55 velocity=0 time=0@note_on channel=1 note=72 velocity=80 time=0.0013888895833333334@note_on channel=2 note=55 velocity=80 time=0@note_on channel=3 note=51 velocity=80 time=0@note_on channel=3 note=51 velocity=0 time=0.16527786041666667@note_on channel=3 note=53 velocity=80 time=0.0013888895833333334@note_on channel=3 note=53 velocity=0 time=0.16527786041666667@note_on channel=3 note=50 velocity=80 time=0.0013888895833333334@note_on channel=3 note=50 velocity=0 time=0.16527786041666667@note_on channel=3 note=51 velocity=80 time=0.0013888895833333334@note_on channel=1 note=72 velocity=0 time=0.16527786041666667@note_on channel=2 note=55 velocity=0 time=0@note_on channel=3 note=51 velocity=0 time=0@note_on channel=3 note=48 velocity=80 time=0.0013888895833333334@note_on channel=1 note=72 velocity=80 time=0.16666675@note_on channel=2 note=63 velocity=80 time=0@note_on channel=1 note=72 velocity=0 time=0.16527786041666667@note_on channel=2 note=63 velocity=0 time=0@note_on channel=3 note=48 velocity=0 time=0@note_on channel=1 note=70 velocity=80 time=0.0013888895833333334@note_on channel=2 note=62 velocity=80 time=0@note_on channel=3 note=51 velocity=80 time=0@note_on channel=1 note=70 velocity=0 time=0.16527786041666667@note_on channel=2 note=62 velocity=0 time=0@note_on channel=1 note=72 velocity=80 time=0.0013888895833333334@note_on channel=2 note=63 velocity=80 time=0@note_on channel=1 note=72 velocity=0 time=0.16527786041666667@note_on channel=2 note=63 velocity=0 time=0@note_on channel=3 note=51 velocity=0 time=0@note_on channel=1 note=69 velocity=80 time=0.0013888895833333334@note_on channel=2 note=60 velocity=80 time=0@note_on channel=3 note=53 velocity=80 time=0@note_on channel=1 note=69 velocity=0 time=0.16527786041666667@note_on channel=2 note=60 velocity=0 time=0@note_on channel=1 note=70 velocity=80 time=0.0013888895833333334@note_on channel=2 note=62 velocity=80 time=0@note_on channel=1 note=70 velocity=0 time=0.16527786041666667@note_on channel=2 note=62 velocity=0 time=0@note_on channel=1 note=67 velocity=80 time=0.0013888895833333334@note_on channel=2 note=58 velocity=80 time=0@note_on channel=1 note=67 velocity=0 time=0.16527786041666667@note_on channel=2 note=58 velocity=0 time=0@note_on channel=1 note=69 velocity=80 time=0.0013888895833333334@note_on channel=2 note=60 velocity=80 time=0@note_on channel=1 note=69 velocity=0 time=0.16527786041666667@note_on channel=2 note=60 velocity=0 time=0@note_on channel=3 note=53 velocity=0 time=0@note_on channel=1 note=65 velocity=80 time=0.0013888895833333334@note_on channel=2 note=57 velocity=80 time=0@note_on channel=3 note=53 velocity=80 time=0.16666675@note_on channel=1 note=65 velocity=0 time=0.16527786041666667@note_on channel=2 note=57 velocity=0 time=0@note_on channel=3 note=53 velocity=0 time=0@note_on channel=1 note=69 velocity=80 time=0.0013888895833333334@note_on channel=2 note=60 velocity=80 time=0@note_on channel=3 note=51 velocity=80 time=0@note_on channel=3 note=51 velocity=0 time=0.16527786041666667@note_on channel=3 note=53 velocity=80 time=0.0013888895833333334@note_on channel=1 note=69 velocity=0 time=0.16527786041666667@note_on channel=2 note=60 velocity=0 time=0@note_on channel=3 note=53 velocity=0 time=0@note_on channel=1 note=70 velocity=80 time=0.0013888895833333334@note_on channel=2 note=53 velocity=80 time=0@note_on channel=3 note=50 velocity=80 time=0@note_on channel=3 note=50 velocity=0 time=0.16527786041666667@note_on channel=3 note=51 velocity=80 time=0.0013888895833333334@note_on channel=3 note=51 velocity=0 time=0.16527786041666667@note_on channel=3 note=48 velocity=80 time=0.0013888895833333334@note_on channel=3 note=48 velocity=0 time=0.16527786041666667@note_on channel=3 note=50 velocity=80 time=0.0013888895833333334@note_on channel=1 note=70 velocity=0 time=0.16527786041666667@note_on channel=2 note=53 velocity=0 time=0@note_on channel=3 note=50 velocity=0 time=0@note_on channel=3 note=46 velocity=80 time=0.0013888895833333334@note_on channel=1 note=70 velocity=80 time=0.16666675@note_on channel=2 note=62 velocity=80 time=0@note_on channel=1 note=70 velocity=0 time=0.16527786041666667@note_on channel=2 note=62 velocity=0 time=0@note_on channel=3 note=46 velocity=0 time=0@note_on channel=1 note=69 velocity=80 time=0.0013888895833333334@note_on channel=2 note=60 velocity=80 time=0@note_on channel=3 note=50 velocity=80 time=0@note_on channel=1 note=69 velocity=0 time=0.16527786041666667@note_on channel=2 note=60 velocity=0 time=0@note_on channel=1 note=70 velocity=80 time=0.0013888895833333334@note_on channel=2 note=62 velocity=80 time=0@note_on channel=1 note=70 velocity=0 time=0.16527786041666667@note_on channel=2 note=62 velocity=0 time=0@note_on channel=3 note=50 velocity=0 time=0@note_on channel=1 note=67 velocity=80 time=0.0013888895833333334@note_on channel=2 note=58 velocity=80 time=0@note_on channel=3 note=51 velocity=80 time=0@note_on channel=2 note=58 velocity=0 time=0.16527786041666667@note_on channel=2 note=62 velocity=80 time=0.0013888895833333334@note_on channel=2 note=62 velocity=0 time=0.16527786041666667@note_on channel=3 note=51 velocity=0 time=0@note_on channel=2 note=60 velocity=80 time=0.0013888895833333334@note_on channel=3 note=50 velocity=80 time=0@note_on channel=2 note=60 velocity=0 time=0.16527786041666667@note_on channel=2 note=62 velocity=80 time=0.0013888895833333334@note_on channel=2 note=62 velocity=0 time=0.16527786041666667@note_on channel=3 note=50 velocity=0 time=0@note_on channel=2 note=63 velocity=80 time=0.0013888895833333334@note_on channel=3 note=48 velocity=80 time=0@note_on channel=1 note=67 velocity=0 time=0.16527786041666667@note_on channel=1 note=70 velocity=80 time=0.0013888895833333334@note_on channel=1 note=70 velocity=0 time=0.16527786041666667@note_on channel=3 note=48 velocity=0 time=0@note_on channel=1 note=69 velocity=80 time=0.0013888895833333334@note_on channel=3 note=46 velocity=80 time=0@note_on channel=1 note=69 velocity=0 time=0.16527786041666667@note_on channel=1 note=70 velocity=80 time=0.0013888895833333334@note_on channel=1 note=70 velocity=0 time=0.16527786041666667@note_on channel=2 note=63 velocity=0 time=0@note_on channel=3 note=46 velocity=0 time=0@note_on channel=1 note=72 velocity=80 time=0.0013888895833333334@note_on channel=2 note=63 velocity=80 time=0@note_on channel=3 note=45 velocity=80 time=0@note_on channel=2 note=63 velocity=0 time=0.16527786041666667@note_on channel=2 note=67 velocity=80 time=0.0013888895833333334@note_on channel=2 note=67 velocity=0 time=0.16527786041666667@note_on channel=3 note=45 velocity=0 time=0@note_on channel=2 note=66 velocity=80 time=0.0013888895833333334@note_on channel=3 note=43 velocity=80 time=0@note_on channel=2 note=66 velocity=0 time=0.16527786041666667@note_on channel=2 note=67 velocity=80 time=0.0013888895833333334@note_on channel=2 note=67 velocity=0 time=0.16527786041666667@note_on channel=3 note=43 velocity=0 time=0@note_on channel=2 note=69 velocity=80 time=0.0013888895833333334@note_on channel=3 note=42 velocity=80 time=0@note_on channel=1 note=72 velocity=0 time=0.16527786041666667@note_on channel=2 note=69 velocity=0 time=0@note_on channel=1 note=70 velocity=80 time=0.0013888895833333334@note_on channel=2 note=67 velocity=80 time=0@note_on channel=1 note=70 velocity=0 time=0.16527786041666667@note_on channel=2 note=67 velocity=0 time=0@note_on channel=3 note=42 velocity=0 time=0@note_on channel=1 note=72 velocity=80 time=0.0013888895833333334@note_on channel=2 note=69 velocity=80 time=0@note_on channel=3 note=38 velocity=80 time=0@note_on channel=1 note=72 velocity=0 time=0.16527786041666667@note_on channel=2 note=69 velocity=0 time=0@note_on channel=1 note=69 velocity=80 time=0.0013888895833333334@note_on channel=2 note=66 velocity=80 time=0@note_on channel=1 note=69 velocity=0 time=0.16527786041666667@note_on channel=2 note=66 velocity=0 time=0@note_on channel=3 note=38 velocity=0 time=0@note_on channel=1 note=70 velocity=80 time=0.0013888895833333334@note_on channel=2 note=67 velocity=80 time=0@note_on channel=3 note=43 velocity=80 time=0@note_on channel=1 note=70 velocity=0 time=0.16527786041666667@note_on channel=1 note=74 velocity=80 time=0.0013888895833333334@note_on channel=1 note=74 velocity=0 time=0.16527786041666667@note_on channel=2 note=67 velocity=0 time=0@note_on channel=3 note=43 velocity=0 time=0@note_on channel=1 note=67 velocity=80 time=0.0013888895833333334@note_on channel=2 note=62 velocity=80 time=0@note_on channel=3 note=46 velocity=80 time=0@note_on channel=1 note=67 velocity=0 time=0.16527786041666667@note_on channel=1 note=70 velocity=80 time=0.0013888895833333334@note_on channel=1 note=70 velocity=0 time=0.16527786041666667@note_on channel=2 note=62 velocity=0 time=0@note_on channel=3 note=46 velocity=0 time=0@note_on channel=1 note=69 velocity=80 time=0.0013888895833333334@note_on channel=2 note=60 velocity=80 time=0@note_on channel=3 note=48 velocity=80 time=0@note_on channel=1 note=69 velocity=0 time=0.16527786041666667@note_on channel=2 note=60 velocity=0 time=0@note_on channel=1 note=74 velocity=80 time=0.0013888895833333334@note_on channel=2 note=63 velocity=80 time=0@note_on channel=1 note=74 velocity=0 time=0.16527786041666667@note_on channel=2 note=63 velocity=0 time=0@note_on channel=3 note=48 velocity=0 time=0@note_on channel=1 note=66 velocity=80 time=0.0013888895833333334@note_on channel=2 note=57 velocity=80 time=0@note_on channel=3 note=50 velocity=80 time=0@note_on channel=1 note=66 velocity=0 time=0.16527786041666667@note_on channel=2 note=57 velocity=0 time=0@note_on channel=1 note=69 velocity=80 time=0.0013888895833333334@note_on channel=2 note=60 velocity=80 time=0@note_on channel=1 note=69 velocity=0 time=0.16527786041666667@note_on channel=2 note=60 velocity=0 time=0@note_on channel=3 note=50 velocity=0 time=0@note_on channel=1 note=67 velocity=80 time=0.0013888895833333334@note_on channel=2 note=58 velocity=80 time=0@note_on channel=3 note=43 velocity=80 time=0@note_on channel=2 note=58 velocity=0 time=0.16527786041666667@note_on channel=2 note=62 velocity=84 time=0.0013888895833333334@note_on channel=1 note=67 velocity=0 time=0.16527786041666667@note_on channel=2 note=62 velocity=0 time=0@note_on channel=1 note=70 velocity=88 time=0.0013888895833333334@note_on channel=2 note=55 velocity=88 time=0@note_on channel=2 note=55 velocity=0 time=0.16527786041666667@note_on channel=2 note=58 velocity=92 time=0.0013888895833333334@note_on channel=1 note=70 velocity=0 time=0.16527786041666667@note_on channel=2 note=58 velocity=0 time=0@note_on channel=3 note=43 velocity=0 time=0@note_on channel=1 note=60 velocity=96 time=0.0013888895833333334@note_on channel=2 note=57 velocity=96 time=0@note_on channel=2 note=57 velocity=0 time=0.16527786041666667@note_on channel=2 note=60 velocity=100 time=0.0013888895833333334@note_on channel=1 note=60 velocity=0 time=0.16527786041666667@note_on channel=2 note=60 velocity=0 time=0@note_on channel=0 note=74 velocity=112 time=0.0013888895833333334@note_on channel=1 note=69 velocity=104 time=0@note_on channel=2 note=54 velocity=104 time=0@note_on channel=3 note=38 velocity=112 time=0@note_on channel=4 note=26 velocity=112 time=0@note_on channel=2 note=54 velocity=0 time=0.16527786041666667@note_on channel=2 note=57 velocity=108 time=0.0013888895833333334@note_on channel=0 note=74 velocity=0 time=0.16527786041666667@note_on channel=1 note=69 velocity=0 time=0@note_on channel=2 note=57 velocity=0 time=0@note_on channel=3 note=38 velocity=0 time=0@note_on channel=4 note=26 velocity=0 time=0@note_on channel=0 note=70 velocity=112 time=0.0013888895833333334@note_on channel=1 note=58 velocity=112 time=0@note_on channel=2 note=55 velocity=112 time=0@note_on channel=3 note=43 velocity=112 time=0@note_on channel=4 note=31 velocity=112 time=0@note_on channel=0 note=70 velocity=0 time=0.16527786041666667@note_on channel=0 note=72 velocity=112 time=0.0013888895833333334@note_on channel=0 note=72 velocity=0 time=0.16527786041666667@note_on channel=1 note=58 velocity=0 time=0@note_on channel=3 note=43 velocity=0 time=0@note_on channel=4 note=31 velocity=0 time=0@note_on channel=0 note=69 velocity=112 time=0.0013888895833333334@note_on channel=1 note=60 velocity=112 time=0@note_on channel=3 note=45 velocity=112 time=0@note_on channel=4 note=33 velocity=112 time=0@note_on channel=0 note=69 velocity=0 time=0.16527786041666667@note_on channel=0 note=70 velocity=112 time=0.0013888895833333334@note_on channel=0 note=70 velocity=0 time=0.16527786041666667@note_on channel=1 note=60 velocity=0 time=0@note_on channel=3 note=45 velocity=0 time=0@note_on channel=4 note=33 velocity=0 time=0@note_on channel=0 note=67 velocity=112 time=0.0013888895833333334@note_on channel=1 note=62 velocity=112 time=0@note_on channel=3 note=46 velocity=112 time=0@note_on channel=4 note=34 velocity=112 time=0@note_on channel=1 note=62 velocity=0 time=0.16527786041666667@note_on channel=1 note=74 velocity=112 time=0.0013888895833333334@note_on channel=0 note=67 velocity=0 time=0.16527786041666667@note_on channel=1 note=74 velocity=0 time=0@note_on channel=2 note=55 velocity=0 time=0@note_on channel=3 note=46 velocity=0 time=0@note_on channel=4 note=34 velocity=0 time=0@note_on channel=0 note=79 velocity=112 time=0.0013888895833333334@note_on channel=1 note=72 velocity=112 time=0@note_on channel=2 note=63 velocity=112 time=0@note_on channel=3 note=48 velocity=112 time=0@note_on channel=4 note=36 velocity=112 time=0@note_on channel=1 note=72 velocity=0 time=0.16527786041666667@note_on channel=1 note=74 velocity=112 time=0.0013888895833333334@note_on channel=0 note=79 velocity=0 time=0.16527786041666667@note_on channel=1 note=74 velocity=0 time=0@note_on channel=2 note=63 velocity=0 time=0@note_on channel=3 note=48 velocity=0 time=0@note_on channel=4 note=36 velocity=0 time=0@note_on channel=0 note=78 velocity=112 time=0.0013888895833333334@note_on channel=1 note=69 velocity=112 time=0@note_on channel=2 note=62 velocity=112 time=0@note_on channel=3 note=50 velocity=112 time=0@note_on channel=4 note=38 velocity=112 time=0@note_on channel=0 note=78 velocity=0 time=0.16527786041666667@note_on channel=0 note=79 velocity=112 time=0.0013888895833333334@note_on channel=0 note=79 velocity=0 time=0.16527786041666667@note_on channel=1 note=69 velocity=0 time=0@note_on channel=2 note=62 velocity=0 time=0@note_on channel=3 note=50 velocity=0 time=0@note_on channel=4 note=38 velocity=0 time=0@note_on channel=0 note=76 velocity=112 time=0.0013888895833333334@note_on channel=1 note=66 velocity=112 time=0@note_on channel=2 note=60 velocity=112 time=0@note_on channel=3 note=45 velocity=112 time=0@note_on channel=4 note=33 velocity=112 time=0@note_on channel=0 note=76 velocity=0 time=0.16527786041666667@note_on channel=0 note=78 velocity=112 time=0.0013888895833333334@note_on channel=0 note=78 velocity=0 time=0.16527786041666667@note_on channel=1 note=66 velocity=0 time=0@note_on channel=2 note=60 velocity=0 time=0@note_on channel=3 note=45 velocity=0 time=0@note_on channel=4 note=33 velocity=0 time=0@note_on channel=0 note=74 velocity=112 time=0.0013888895833333334@note_on channel=1 note=67 velocity=112 time=0@note_on channel=2 note=58 velocity=112 time=0@note_on channel=3 note=46 velocity=112 time=0@note_on channel=4 note=34 velocity=112 time=0@note_on channel=0 note=74 velocity=0 time=0.3319446104166667@note_on channel=2 note=58 velocity=0 time=0@note_on channel=0 note=79 velocity=112 time=0.0013888895833333334@note_on channel=2 note=55 velocity=112 time=0@note_on channel=0 note=79 velocity=0 time=0.16527786041666667@note_on channel=0 note=74 velocity=112 time=0.0013888895833333334@note_on channel=0 note=74 velocity=0 time=0.16527786041666667@note_on channel=2 note=55 velocity=0 time=0@note_on channel=0 note=75 velocity=112 time=0.0013888895833333334@note_on channel=2 note=60 velocity=112 time=0@note_on channel=2 note=60 velocity=0 time=0.16527786041666667@note_on channel=2 note=62 velocity=112 time=0.0013888895833333334@note_on channel=0 note=75 velocity=0 time=0.16527786041666667@note_on channel=2 note=62 velocity=0 time=0@note_on channel=0 note=72 velocity=112 time=0.0013888895833333334@note_on channel=2 note=63 velocity=112 time=0@note_on channel=0 note=72 velocity=0 time=0.3319446104166667@note_on channel=1 note=67 velocity=0 time=0@note_on channel=3 note=46 velocity=0 time=0@note_on channel=4 note=34 velocity=0 time=0@note_on channel=0 note=65 velocity=112 time=0.0013888895833333334@note_on channel=3 note=45 velocity=112 time=0@note_on channel=4 note=33 velocity=112 time=0@note_on channel=2 note=63 velocity=0 time=0.16527786041666667@note_on channel=2 note=63 velocity=112 time=0.0013888895833333334@note_on channel=0 note=65 velocity=0 time=0.16527786041666667@note_on channel=2 note=63 velocity=0 time=0@note_on channel=0 note=77 velocity=112 time=0.0013888895833333334@note_on channel=1 note=69 velocity=112 time=0@note_on channel=2 note=62 velocity=112 time=0@note_on channel=2 note=62 velocity=0 time=0.16527786041666667@note_on channel=2 note=60 velocity=112 time=0.0013888895833333334@note_on channel=0 note=77 velocity=0 time=0.16527786041666667@note_on channel=1 note=69 velocity=0 time=0@note_on channel=2 note=60 velocity=0 time=0@note_on channel=0 note=74 velocity=112 time=0.0013888895833333334@note_on channel=1 note=70 velocity=112 time=0@note_on channel=2 note=58 velocity=112 time=0@note_on channel=0 note=74 velocity=0 time=0.16527786041666667@note_on channel=2 note=58 velocity=0 time=0@note_on channel=0 note=75 velocity=112 time=0.0013888895833333334@note_on channel=2 note=60 velocity=112 time=0@note_on channel=0 note=75 velocity=0 time=0.16527786041666667@note_on channel=2 note=60 velocity=0 time=0@note_on channel=0 note=72 velocity=112 time=0.0013888895833333334@note_on channel=2 note=62 velocity=112 time=0@note_on channel=0 note=72 velocity=0 time=0.16527786041666667@note_on channel=0 note=74 velocity=112 time=0.0013888895833333334@note_on channel=0 note=74 velocity=0 time=0.16527786041666667@note_on channel=1 note=70 velocity=0 time=0@note_on channel=3 note=45 velocity=0 time=0@note_on channel=4 note=33 velocity=0 time=0@note_on channel=0 note=70 velocity=112 time=0.0013888895833333334@note_on channel=3 note=43 velocity=112 time=0@note_on channel=4 note=31 velocity=112 time=0@note_on channel=2 note=62 velocity=0 time=0.16527786041666667@note_on channel=2 note=62 velocity=112 time=0.0013888895833333334@note_on channel=0 note=70 velocity=0 time=0.16527786041666667@note_on channel=2 note=62 velocity=0 time=0@note_on channel=0 note=75 velocity=112 time=0.0013888895833333334@note_on channel=2 note=60 velocity=112 time=0@note_on channel=0 note=75 velocity=0 time=0.16527786041666667@note_on channel=2 note=60 velocity=0 time=0@note_on channel=0 note=70 velocity=112 time=0.0013888895833333334@note_on channel=2 note=58 velocity=112 time=0@note_on channel=0 note=70 velocity=0 time=0.16527786041666667@note_on channel=2 note=58 velocity=0 time=0@note_on channel=0 note=72 velocity=112 time=0.0013888895833333334@note_on channel=2 note=57 velocity=112 time=0@note_on channel=2 note=57 velocity=0 time=0.16527786041666667@note_on channel=2 note=58 velocity=112 time=0.0013888895833333334@note_on channel=0 note=72 velocity=0 time=0.16527786041666667@note_on channel=2 note=58 velocity=0 time=0@note_on channel=0 note=69 velocity=112 time=0.0013888895833333334@note_on channel=2 note=60 velocity=112 time=0@note_on channel=0 note=69 velocity=0 time=0.3319446104166667@note_on channel=3 note=43 velocity=0 time=0@note_on channel=4 note=31 velocity=0 time=0@note_on channel=0 note=62 velocity=112 time=0.0013888895833333334@note_on channel=3 note=42 velocity=112 time=0@note_on channel=4 note=30 velocity=112 time=0@note_on channel=2 note=60 velocity=0 time=0.16527786041666667@note_on channel=2 note=60 velocity=112 time=0.0013888895833333334@note_on channel=0 note=62 velocity=0 time=0.16527786041666667@note_on channel=2 note=60 velocity=0 time=0@note_on channel=0 note=74 velocity=112 time=0.0013888895833333334@note_on channel=2 note=58 velocity=112 time=0@note_on channel=2 note=58 velocity=0 time=0.16527786041666667@note_on channel=2 note=57 velocity=112 time=0.0013888895833333334@note_on channel=0 note=74 velocity=0 time=0.16527786041666667@note_on channel=2 note=57 velocity=0 time=0@note_on channel=3 note=42 velocity=0 time=0@note_on channel=4 note=30 velocity=0 time=0@note_on channel=0 note=70 velocity=112 time=0.0013888895833333334@note_on channel=2 note=55 velocity=112 time=0@note_on channel=3 note=43 velocity=112 time=0@note_on channel=4 note=31 velocity=112 time=0@note_on channel=0 note=70 velocity=0 time=0.16527786041666667@note_on channel=0 note=72 velocity=112 time=0.0013888895833333334@note_on channel=0 note=72 velocity=0 time=0.16527786041666667@note_on channel=2 note=55 velocity=0 time=0@note_on channel=3 note=43 velocity=0 time=0@note_on channel=4 note=31 velocity=0 time=0@note_on channel=0 note=69 velocity=112 time=0.0013888895833333334@note_on channel=2 note=57 velocity=112 time=0@note_on channel=3 note=41 velocity=112 time=0@note_on channel=4 note=29 velocity=112 time=0@note_on channel=0 note=69 velocity=0 time=0.16527786041666667@note_on channel=0 note=70 velocity=112 time=0.0013888895833333334@note_on channel=0 note=70 velocity=0 time=0.16527786041666667@note_on channel=2 note=57 velocity=0 time=0@note_on channel=3 note=41 velocity=0 time=0@note_on channel=4 note=29 velocity=0 time=0@note_on channel=0 note=67 velocity=112 time=0.0013888895833333334@note_on channel=2 note=58 velocity=112 time=0@note_on channel=3 note=40 velocity=112 time=0@note_on channel=4 note=28 velocity=112 time=0@note_on channel=0 note=67 velocity=0 time=0.16527786041666667@note_on channel=0 note=69 velocity=112 time=0.0013888895833333334@note_on channel=0 note=69 velocity=0 time=0.16527786041666667@note_on channel=2 note=58 velocity=0 time=0@note_on channel=3 note=40 velocity=0 time=0@note_on channel=4 note=28 velocity=0 time=0@note_on channel=0 note=71 velocity=112 time=0.0013888895833333334@note_on channel=1 note=67 velocity=112 time=0@note_on channel=2 note=57 velocity=112 time=0@note_on channel=3 note=52 velocity=112 time=0@note_on channel=4 note=40 velocity=112 time=0@note_on channel=0 note=71 velocity=0 time=0.16527786041666667@note_on channel=2 note=57 velocity=0 time=0@note_on channel=0 note=73 velocity=112 time=0.0013888895833333334@note_on channel=2 note=55 velocity=112 time=0@note_on channel=0 note=73 velocity=0 time=0.16527786041666667@note_on channel=1 note=67 velocity=0 time=0@note_on channel=2 note=55 velocity=0 time=0@note_on channel=3 note=52 velocity=0 time=0@note_on channel=4 note=40 velocity=0 time=0@note_on channel=0 note=74 velocity=112 time=0.0013888895833333334@note_on channel=1 note=65 velocity=112 time=0@note_on channel=2 note=57 velocity=112 time=0@note_on channel=3 note=50 velocity=112 time=0@note_on channel=4 note=38 velocity=112 time=0@note_on channel=1 note=65 velocity=0 time=0.16527786041666667@note_on channel=1 note=67 velocity=112 time=0.0013888895833333334@note_on channel=0 note=74 velocity=0 time=0.16527786041666667@note_on channel=1 note=67 velocity=0 time=0@note_on channel=3 note=50 velocity=0 time=0@note_on channel=4 note=38 velocity=0 time=0@note_on channel=0 note=76 velocity=112 time=0.0013888895833333334@note_on channel=1 note=64 velocity=112 time=0@note_on channel=3 note=48 velocity=112 time=0@note_on channel=4 note=36 velocity=112 time=0@note_on channel=1 note=64 velocity=0 time=0.16527786041666667@note_on channel=1 note=65 velocity=112 time=0.0013888895833333334@note_on channel=0 note=76 velocity=0 time=0.16527786041666667@note_on channel=1 note=65 velocity=0 time=0@note_on channel=3 note=48 velocity=0 time=0@note_on channel=4 note=36 velocity=0 time=0@note_on channel=0 note=77 velocity=112 time=0.0013888895833333334@note_on channel=1 note=62 velocity=112 time=0@note_on channel=3 note=46 velocity=112 time=0@note_on channel=4 note=34 velocity=112 time=0@note_on channel=0 note=77 velocity=0 time=0.16527786041666667@note_on channel=0 note=79 velocity=112 time=0.0013888895833333334@note_on channel=0 note=79 velocity=0 time=0.16527786041666667@note_on channel=1 note=62 velocity=0 time=0@note_on channel=2 note=57 velocity=0 time=0@note_on channel=0 note=77 velocity=112 time=0.0013888895833333334@note_on channel=1 note=74 velocity=112 time=0@note_on channel=2 note=50 velocity=112 time=0@note_on channel=0 note=77 velocity=0 time=0.16527786041666667@note_on channel=0 note=79 velocity=112 time=0.0013888895833333334@note_on channel=0 note=79 velocity=0 time=0.16527786041666667@note_on channel=1 note=74 velocity=0 time=0@note_on channel=2 note=50 velocity=0 time=0@note_on channel=3 note=46 velocity=0 time=0@note_on channel=4 note=34 velocity=0 time=0@note_on channel=0 note=81 velocity=112 time=0.0013888895833333334@note_on channel=1 note=73 velocity=112 time=0@note_on channel=2 note=52 velocity=112 time=0@note_on channel=3 note=45 velocity=112 time=0@note_on channel=4 note=33 velocity=112 time=0@note_on channel=1 note=73 velocity=0 time=0.16527786041666667@note_on channel=1 note=74 velocity=112 time=0.0013888895833333334@note_on channel=0 note=81 velocity=0 time=0.16527786041666667@note_on channel=1 note=74 velocity=0 time=0@note_on channel=2 note=52 velocity=0 time=0@note_on channel=0 note=76 velocity=112 time=0.0013888895833333334@note_on channel=1 note=71 velocity=112 time=0@note_on channel=2 note=57 velocity=112 time=0@note_on channel=1 note=71 velocity=0 time=0.16527786041666667@note_on channel=1 note=73 velocity=112 time=0.0013888895833333334@note_on channel=0 note=76 velocity=0 time=0.16527786041666667@note_on channel=1 note=73 velocity=0 time=0@note_on channel=2 note=57 velocity=0 time=0@note_on channel=3 note=45 velocity=0 time=0@note_on channel=4 note=33 velocity=0 time=0@note_on channel=0 note=77 velocity=112 time=0.0013888895833333334@note_on channel=1 note=69 velocity=112 time=0@note_on channel=2 note=50 velocity=112 time=0@note_on channel=1 note=69 velocity=0 time=0.3319446104166667@note_on channel=2 note=50 velocity=0 time=0@note_on channel=1 note=74 velocity=112 time=0.0013888895833333334@note_on channel=2 note=53 velocity=112 time=0@note_on channel=3 note=41 velocity=112 time=0@note_on channel=1 note=74 velocity=0 time=0.16527786041666667@note_on channel=1 note=69 velocity=112 time=0.0013888895833333334@note_on channel=1 note=69 velocity=0 time=0.16527786041666667@note_on channel=2 note=53 velocity=0 time=0@note_on channel=3 note=41 velocity=0 time=0@note_on channel=1 note=70 velocity=112 time=0.0013888895833333334@note_on channel=2 note=55 velocity=112 time=0@note_on channel=3 note=43 velocity=112 time=0@note_on channel=2 note=55 velocity=0 time=0.16527786041666667@note_on channel=3 note=43 velocity=0 time=0@note_on channel=2 note=57 velocity=112 time=0.0013888895833333334@note_on channel=3 note=45 velocity=112 time=0@note_on channel=1 note=70 velocity=0 time=0.16527786041666667@note_on channel=2 note=57 velocity=0 time=0@note_on channel=3 note=45 velocity=0 time=0@note_on channel=1 note=67 velocity=112 time=0.0013888895833333334@note_on channel=2 note=58 velocity=112 time=0@note_on channel=3 note=46 velocity=112 time=0@note_on channel=0 note=77 velocity=0 time=0.3319446104166667@note_on channel=1 note=67 velocity=0 time=0@note_on channel=0 note=76 velocity=112 time=0.0013888895833333334@note_on channel=1 note=60 velocity=112 time=0@note_on channel=2 note=58 velocity=0 time=0.16527786041666667@note_on channel=3 note=46 velocity=0 time=0@note_on channel=2 note=58 velocity=112 time=0.0013888895833333334@note_on channel=3 note=46 velocity=112 time=0@note_on channel=1 note=60 velocity=0 time=0.16527786041666667@note_on channel=2 note=58 velocity=0 time=0@note_on channel=3 note=46 velocity=0 time=0@note_on channel=1 note=72 velocity=112 time=0.0013888895833333334@note_on channel=2 note=57 velocity=112 time=0@note_on channel=3 note=45 velocity=112 time=0@note_on channel=2 note=57 velocity=0 time=0.16527786041666667@note_on channel=3 note=45 velocity=0 time=0@note_on channel=2 note=55 velocity=112 time=0.0013888895833333334@note_on channel=3 note=43 velocity=112 time=0@note_on channel=1 note=72 velocity=0 time=0.16527786041666667@note_on channel=2 note=55 velocity=0 time=0@note_on channel=3 note=43 velocity=0 time=0@note_on channel=1 note=69 velocity=112 time=0.0013888895833333334@note_on channel=2 note=53 velocity=112 time=0@note_on channel=3 note=41 velocity=112 time=0@note_on channel=1 note=69 velocity=0 time=0.16527786041666667@note_on channel=2 note=53 velocity=0 time=0@note_on channel=3 note=41 velocity=0 time=0@note_on channel=1 note=70 velocity=112 time=0.0013888895833333334@note_on channel=2 note=55 velocity=112 time=0@note_on channel=3 note=43 velocity=112 time=0@note_on channel=1 note=70 velocity=0 time=0.16527786041666667@note_on channel=2 note=55 velocity=0 time=0@note_on channel=3 note=43 velocity=0 time=0@note_on channel=1 note=67 velocity=112 time=0.0013888895833333334@note_on channel=2 note=57 velocity=112 time=0@note_on channel=3 note=45 velocity=112 time=0@note_on channel=1 note=67 velocity=0 time=0.16527786041666667@note_on channel=1 note=69 velocity=112 time=0.0013888895833333334@note_on channel=0 note=76 velocity=0 time=0.16527786041666667@note_on channel=1 note=69 velocity=0 time=0@note_on channel=0 note=74 velocity=112 time=0.0013888895833333334@note_on channel=1 note=65 velocity=112 time=0@note_on channel=2 note=57 velocity=0 time=0.16527786041666667@note_on channel=3 note=45 velocity=0 time=0@note_on channel=2 note=57 velocity=112 time=0.0013888895833333334@note_on channel=3 note=45 velocity=112 time=0@note_on channel=1 note=65 velocity=0 time=0.16527786041666667@note_on channel=2 note=57 velocity=0 time=0@note_on channel=3 note=45 velocity=0 time=0@note_on channel=1 note=70 velocity=112 time=0.0013888895833333334@note_on channel=2 note=55 velocity=112 time=0@note_on channel=3 note=43 velocity=112 time=0@note_on channel=1 note=70 velocity=0 time=0.16527786041666667@note_on channel=2 note=55 velocity=0 time=0@note_on channel=3 note=43 velocity=0 time=0@note_on channel=1 note=65 velocity=112 time=0.0013888895833333334@note_on channel=2 note=53 velocity=112 time=0@note_on channel=3 note=41 velocity=112 time=0@note_on channel=1 note=65 velocity=0 time=0.16527786041666667@note_on channel=2 note=53 velocity=0 time=0@note_on channel=3 note=41 velocity=0 time=0@note_on channel=1 note=67 velocity=112 time=0.0013888895833333334@note_on channel=2 note=52 velocity=112 time=0@note_on channel=3 note=40 velocity=112 time=0@note_on channel=2 note=52 velocity=0 time=0.16527786041666667@note_on channel=3 note=40 velocity=0 time=0@note_on channel=2 note=53 velocity=112 time=0.0013888895833333334@note_on channel=3 note=41 velocity=112 time=0@note_on channel=1 note=67 velocity=0 time=0.16527786041666667@note_on channel=2 note=53 velocity=0 time=0@note_on channel=3 note=41 velocity=0 time=0@note_on channel=1 note=64 velocity=112 time=0.0013888895833333334@note_on channel=2 note=55 velocity=112 time=0@note_on channel=3 note=43 velocity=112 time=0@note_on channel=0 note=74 velocity=0 time=0.3319446104166667@note_on channel=1 note=64 velocity=0 time=0@note_on channel=0 note=73 velocity=112 time=0.0013888895833333334@note_on channel=1 note=57 velocity=112 time=0@note_on channel=2 note=55 velocity=0 time=0.16527786041666667@note_on channel=3 note=43 velocity=0 time=0@note_on channel=2 note=55 velocity=112 time=0.0013888895833333334@note_on channel=3 note=43 velocity=112 time=0@note_on channel=1 note=57 velocity=0 time=0.16527786041666667@note_on channel=2 note=55 velocity=0 time=0@note_on channel=3 note=43 velocity=0 time=0@note_on channel=1 note=69 velocity=112 time=0.0013888895833333334@note_on channel=2 note=53 velocity=112 time=0@note_on channel=3 note=41 velocity=112 time=0@note_on channel=2 note=53 velocity=0 time=0.16527786041666667@note_on channel=3 note=41 velocity=0 time=0@note_on channel=2 note=52 velocity=112 time=0.0013888895833333334@note_on channel=3 note=40 velocity=112 time=0@note_on channel=0 note=73 velocity=0 time=0.16527786041666667@note_on channel=1 note=69 velocity=0 time=0@note_on channel=2 note=52 velocity=0 time=0@note_on channel=3 note=40 velocity=0 time=0@note_on channel=0 note=74 velocity=112 time=0.0013888895833333334@note_on channel=1 note=65 velocity=112 time=0@note_on channel=2 note=50 velocity=112 time=0@note_on channel=3 note=38 velocity=112 time=0@note_on channel=1 note=65 velocity=0 time=0.16527786041666667@note_on channel=1 note=67 velocity=112 time=0.0013888895833333334@note_on channel=1 note=67 velocity=0 time=0.16527786041666667@note_on channel=2 note=50 velocity=0 time=0@note_on channel=3 note=38 velocity=0 time=0@note_on channel=1 note=64 velocity=112 time=0.0013888895833333334@note_on channel=2 note=53 velocity=112 time=0@note_on channel=1 note=64 velocity=0 time=0.16527786041666667@note_on channel=1 note=65 velocity=112 time=0.0013888895833333334@note_on channel=0 note=74 velocity=0 time=0.16527786041666667@note_on channel=1 note=65 velocity=0 time=0@note_on channel=2 note=53 velocity=0 time=0@note_on channel=1 note=62 velocity=112 time=0.0013888895833333334@note_on channel=2 note=58 velocity=112 time=0@note_on channel=1 note=62 velocity=0 time=0.16527786041666667@note_on channel=1 note=64 velocity=112 time=0.0013888895833333334@note_on channel=1 note=64 velocity=0 time=0.16527786041666667@note_on channel=0 note=74 velocity=112 time=0.0013888895833333334@note_on channel=1 note=65 velocity=112 time=0@note_on channel=1 note=65 velocity=0 time=0.16527786041666667@note_on channel=1 note=67 velocity=112 time=0.0013888895833333334@note_on channel=0 note=74 velocity=0 time=0.16527786041666667@note_on channel=1 note=67 velocity=0 time=0@note_on channel=0 note=72 velocity=112 time=0.0013888895833333334@note_on channel=1 note=63 velocity=112 time=0@note_on channel=1 note=63 velocity=0 time=0.16527786041666667@note_on channel=1 note=65 velocity=112 time=0.0013888895833333334@note_on channel=1 note=65 velocity=0 time=0.16527786041666667@note_on channel=1 note=62 velocity=112 time=0.0013888895833333334@note_on channel=1 note=62 velocity=0 time=0.16527786041666667@note_on channel=1 note=63 velocity=112 time=0.0013888895833333334@note_on channel=0 note=72 velocity=0 time=0.16527786041666667@note_on channel=1 note=63 velocity=0 time=0@note_on channel=2 note=58 velocity=0 time=0@note_on channel=0 note=77 velocity=112 time=0.0013888895833333334@note_on channel=1 note=60 velocity=112 time=0@note_on channel=2 note=57 velocity=112 time=0@note_on channel=1 note=60 velocity=0 time=0.16527786041666667@note_on channel=1 note=62 velocity=112 time=0.0013888895833333334@note_on channel=1 note=62 velocity=0 time=0.16527786041666667@note_on channel=1 note=63 velocity=112 time=0.0013888895833333334@note_on channel=1 note=63 velocity=0 time=0.16527786041666667@note_on channel=1 note=65 velocity=112 time=0.0013888895833333334@note_on channel=0 note=77 velocity=0 time=0.16527786041666667@note_on channel=1 note=65 velocity=0 time=0@note_on channel=0 note=70 velocity=112 time=0.0013888895833333334@note_on channel=1 note=62 velocity=112 time=0@note_on channel=1 note=62 velocity=0 time=0.16527786041666667@note_on channel=1 note=63 velocity=112 time=0.0013888895833333334@note_on channel=1 note=63 velocity=0 time=0.16527786041666667@note_on channel=1 note=60 velocity=112 time=0.0013888895833333334@note_on channel=1 note=60 velocity=0 time=0.16527786041666667@note_on channel=1 note=62 velocity=112 time=0.0013888895833333334@note_on channel=0 note=70 velocity=0 time=0.16527786041666667@note_on channel=1 note=62 velocity=0 time=0@note_on channel=2 note=57 velocity=0 time=0@note_on channel=1 note=58 velocity=112 time=0.0013888895833333334@note_on channel=2 note=55 velocity=112 time=0@note_on channel=1 note=58 velocity=0 time=0.16527786041666667@note_on channel=0 note=79 velocity=112 time=0.0013888895833333334@note_on channel=1 note=60 velocity=112 time=0@note_on channel=0 note=79 velocity=0 time=0.16527786041666667@note_on channel=1 note=60 velocity=0 time=0@note_on channel=0 note=78 velocity=112 time=0.0013888895833333334@note_on channel=1 note=62 velocity=112 time=0@note_on channel=0 note=78 velocity=0 time=0.16527786041666667@note_on channel=1 note=62 velocity=0 time=0@note_on channel=0 note=79 velocity=112 time=0.0013888895833333334@note_on channel=1 note=63 velocity=112 time=0@note_on channel=0 note=79 velocity=0 time=0.16527786041666667@note_on channel=1 note=63 velocity=0 time=0@note_on channel=0 note=69 velocity=112 time=0.0013888895833333334@note_on channel=1 note=60 velocity=112 time=0@note_on channel=1 note=60 velocity=0 time=0.16527786041666667@note_on channel=1 note=62 velocity=112 time=0.0013888895833333334@note_on channel=0 note=69 velocity=0 time=0.16527786041666667@note_on channel=1 note=62 velocity=0 time=0@note_on channel=0 note=75 velocity=112 time=0.0013888895833333334@note_on channel=1 note=58 velocity=112 time=0@note_on channel=1 note=58 velocity=0 time=0.16527786041666667@note_on channel=1 note=60 velocity=112 time=0.0013888895833333334@note_on channel=0 note=75 velocity=0 time=0.16527786041666667@note_on channel=1 note=60 velocity=0 time=0@note_on channel=2 note=55 velocity=0 time=0@note_on channel=0 note=74 velocity=112 time=0.0013888895833333334@note_on channel=1 note=57 velocity=112 time=0@note_on channel=2 note=54 velocity=112 time=0@note_on channel=0 note=74 velocity=0 time=0.16527786041666667@note_on channel=0 note=72 velocity=112 time=0.0013888895833333334@note_on channel=0 note=72 velocity=0 time=0.16527786041666667@note_on channel=1 note=57 velocity=0 time=0@note_on channel=0 note=70 velocity=112 time=0.0013888895833333334@note_on channel=1 note=62 velocity=112 time=0@note_on channel=3 note=50 velocity=112 time=0@note_on channel=0 note=70 velocity=0 time=0.16527786041666667@note_on channel=0 note=69 velocity=112 time=0.0013888895833333334@note_on channel=0 note=69 velocity=0 time=0.16527786041666667@note_on channel=2 note=54 velocity=0 time=0@note_on channel=3 note=50 velocity=0 time=0@note_on channel=0 note=67 velocity=112 time=0.0013888895833333334@note_on channel=2 note=55 velocity=112 time=0@note_on channel=3 note=46 velocity=112 time=0@note_on channel=1 note=62 velocity=0 time=0.16527786041666667@note_on channel=3 note=46 velocity=0 time=0@note_on channel=1 note=63 velocity=112 time=0.0013888895833333334@note_on channel=3 note=48 velocity=112 time=0@note_on channel=0 note=67 velocity=0 time=0.16527786041666667@note_on channel=1 note=63 velocity=0 time=0@note_on channel=3 note=48 velocity=0 time=0@note_on channel=0 note=69 velocity=112 time=0.0013888895833333334@note_on channel=1 note=60 velocity=112 time=0@note_on channel=3 note=45 velocity=112 time=0@note_on channel=1 note=60 velocity=0 time=0.16527786041666667@note_on channel=3 note=45 velocity=0 time=0@note_on channel=1 note=62 velocity=112 time=0.0013888895833333334@note_on channel=3 note=46 velocity=112 time=0@note_on channel=0 note=69 velocity=0 time=0.16527786041666667@note_on channel=1 note=62 velocity=0 time=0@note_on channel=2 note=55 velocity=0 time=0@note_on channel=3 note=46 velocity=0 time=0@note_on channel=0 note=70 velocity=112 time=0.0013888895833333334@note_on channel=1 note=58 velocity=112 time=0@note_on channel=3 note=43 velocity=112 time=0@note_on channel=0 note=70 velocity=0 time=0.16527786041666667@note_on channel=1 note=58 velocity=0 time=0@note_on channel=0 note=72 velocity=112 time=0.0013888895833333334@note_on channel=1 note=63 velocity=112 time=0@note_on channel=0 note=72 velocity=0 time=0.16527786041666667@note_on channel=1 note=63 velocity=0 time=0@note_on channel=3 note=43 velocity=0 time=0@note_on channel=0 note=70 velocity=112 time=0.0013888895833333334@note_on channel=1 note=62 velocity=112 time=0@note_on channel=3 note=55 velocity=112 time=0@note_on channel=0 note=70 velocity=0 time=0.16527786041666667@note_on channel=1 note=62 velocity=0 time=0@note_on channel=0 note=72 velocity=112 time=0.0013888895833333334@note_on channel=1 note=63 velocity=112 time=0@note_on channel=0 note=72 velocity=0 time=0.16527786041666667@note_on channel=1 note=63 velocity=0 time=0@note_on channel=3 note=55 velocity=0 time=0@note_on channel=0 note=74 velocity=112 time=0.0013888895833333334@note_on channel=1 note=57 velocity=112 time=0@note_on channel=3 note=54 velocity=112 time=0@note_on channel=1 note=57 velocity=0 time=0.16527786041666667@note_on channel=3 note=54 velocity=0 time=0@note_on channel=1 note=58 velocity=112 time=0.0013888895833333334@note_on channel=3 note=55 velocity=112 time=0@note_on channel=1 note=58 velocity=0 time=0.16527786041666667@note_on channel=3 note=55 velocity=0 time=0@note_on channel=1 note=55 velocity=112 time=0.0013888895833333334@note_on channel=3 note=52 velocity=112 time=0@note_on channel=1 note=55 velocity=0 time=0.16527786041666667@note_on channel=3 note=52 velocity=0 time=0@note_on channel=1 note=57 velocity=112 time=0.0013888895833333334@note_on channel=3 note=54 velocity=112 time=0@note_on channel=0 note=74 velocity=0 time=0.16527786041666667@note_on channel=1 note=57 velocity=0 time=0@note_on channel=3 note=54 velocity=0 time=0@note_on channel=1 note=58 velocity=112 time=0.0013888895833333334@note_on channel=3 note=50 velocity=112 time=0@note_on channel=0 note=74 velocity=112 time=0.16666675@note_on channel=0 note=74 velocity=0 time=0.16527786041666667@note_on channel=3 note=50 velocity=0 time=0@note_on channel=0 note=75 velocity=112 time=0.0013888895833333334@note_on channel=3 note=55 velocity=112 time=0@note_on channel=0 note=75 velocity=0 time=0.16527786041666667@note_on channel=3 note=55 velocity=0 time=0@note_on channel=0 note=74 velocity=112 time=0.0013888895833333334@note_on channel=3 note=50 velocity=112 time=0@note_on channel=0 note=74 velocity=0 time=0.16527786041666667@note_on channel=3 note=50 velocity=0 time=0@note_on channel=0 note=72 velocity=112 time=0.0013888895833333334@note_on channel=3 note=51 velocity=112 time=0@note_on channel=0 note=72 velocity=0 time=0.16527786041666667@note_on channel=0 note=74 velocity=112 time=0.0013888895833333334@note_on channel=0 note=74 velocity=0 time=0.16527786041666667@note_on channel=3 note=51 velocity=0 time=0@note_on channel=0 note=75 velocity=112 time=0.0013888895833333334@note_on channel=3 note=48 velocity=112 time=0@note_on channel=1 note=58 velocity=0 time=0.3319446104166667@note_on channel=3 note=48 velocity=0 time=0@note_on channel=1 note=57 velocity=112 time=0.0013888895833333334@note_on channel=3 note=41 velocity=112 time=0@note_on channel=0 note=75 velocity=0 time=0.16527786041666667@note_on channel=0 note=75 velocity=112 time=0.0013888895833333334@note_on channel=0 note=75 velocity=0 time=0.16527786041666667@note_on channel=3 note=41 velocity=0 time=0@note_on channel=0 note=74 velocity=112 time=0.0013888895833333334@note_on channel=3 note=53 velocity=112 time=0@note_on channel=0 note=74 velocity=0 time=0.16527786041666667@note_on channel=0 note=72 velocity=112 time=0.0013888895833333334@note_on channel=0 note=72 velocity=0 time=0.16527786041666667@note_on channel=3 note=53 velocity=0 time=0@note_on channel=0 note=70 velocity=112 time=0.0013888895833333334@note_on channel=3 note=50 velocity=112 time=0@note_on channel=0 note=70 velocity=0 time=0.16527786041666667@note_on channel=3 note=50 velocity=0 time=0@note_on channel=0 note=72 velocity=112 time=0.0013888895833333334@note_on channel=3 note=51 velocity=112 time=0@note_on channel=0 note=72 velocity=0 time=0.16527786041666667@note_on channel=3 note=51 velocity=0 time=0@note_on channel=0 note=74 velocity=112 time=0.0013888895833333334@note_on channel=3 note=48 velocity=112 time=0@note_on channel=3 note=48 velocity=0 time=0.16527786041666667@note_on channel=3 note=50 velocity=112 time=0.0013888895833333334@note_on channel=1 note=57 velocity=0 time=0.16527786041666667@note_on channel=3 note=50 velocity=0 time=0@note_on channel=1 note=55 velocity=112 time=0.0013888895833333334@note_on channel=3 note=46 velocity=112 time=0@note_on channel=0 note=74 velocity=0 time=0.16527786041666667@note_on channel=0 note=74 velocity=112 time=0.0013888895833333334@note_on channel=0 note=74 velocity=0 time=0.16527786041666667@note_on channel=3 note=46 velocity=0 time=0@note_on channel=0 note=72 velocity=112 time=0.0013888895833333334@note_on channel=3 note=51 velocity=112 time=0@note_on channel=0 note=72 velocity=0 time=0.16527786041666667@note_on channel=3 note=51 velocity=0 time=0@note_on channel=0 note=70 velocity=112 time=0.0013888895833333334@note_on channel=3 note=46 velocity=112 time=0@note_on channel=0 note=70 velocity=0 time=0.16527786041666667@note_on channel=3 note=46 velocity=0 time=0@note_on channel=0 note=69 velocity=112 time=0.0013888895833333334@note_on channel=3 note=48 velocity=112 time=0@note_on channel=0 note=69 velocity=0 time=0.16527786041666667@note_on channel=0 note=70 velocity=112 time=0.0013888895833333334@note_on channel=0 note=70 velocity=0 time=0.16527786041666667@note_on channel=3 note=48 velocity=0 time=0@note_on channel=0 note=72 velocity=112 time=0.0013888895833333334@note_on channel=3 note=45 velocity=112 time=0@note_on channel=1 note=55 velocity=0 time=0.3319446104166667@note_on channel=3 note=45 velocity=0 time=0@note_on channel=1 note=54 velocity=112 time=0.0013888895833333334@note_on channel=3 note=38 velocity=112 time=0@note_on channel=0 note=72 velocity=0 time=0.16527786041666667@note_on channel=0 note=72 velocity=112 time=0.0013888895833333334@note_on channel=0 note=72 velocity=0 time=0.16527786041666667@note_on channel=3 note=38 velocity=0 time=0@note_on channel=0 note=70 velocity=112 time=0.0013888895833333334@note_on channel=3 note=50 velocity=112 time=0@note_on channel=0 note=70 velocity=0 time=0.16527786041666667@note_on channel=0 note=69 velocity=112 time=0.0013888895833333334@note_on channel=0 note=69 velocity=0 time=0.16527786041666667@note_on channel=1 note=54 velocity=0 time=0@note_on channel=3 note=50 velocity=0 time=0@note_on channel=0 note=70 velocity=112 time=0.0013888895833333334@note_on channel=1 note=55 velocity=112 time=0@note_on channel=3 note=46 velocity=112 time=0@note_on channel=3 note=46 velocity=0 time=0.16527786041666667@note_on channel=3 note=48 velocity=112 time=0.0013888895833333334@note_on channel=0 note=70 velocity=0 time=0.16527786041666667@note_on channel=1 note=55 velocity=0 time=0@note_on channel=3 note=48 velocity=0 time=0@note_on channel=0 note=72 velocity=112 time=0.0013888895833333334@note_on channel=1 note=57 velocity=112 time=0@note_on channel=3 note=45 velocity=112 time=0@note_on channel=3 note=45 velocity=0 time=0.16527786041666667@note_on channel=3 note=46 velocity=112 time=0.0013888895833333334@note_on channel=0 note=72 velocity=0 time=0.16527786041666667@note_on channel=1 note=57 velocity=0 time=0@note_on channel=3 note=46 velocity=0 time=0@note_on channel=0 note=74 velocity=112 time=0.0013888895833333334@note_on channel=1 note=58 velocity=112 time=0@note_on channel=3 note=43 velocity=112 time=0@note_on channel=0 note=74 velocity=0 time=0.16527786041666667@note_on channel=1 note=58 velocity=0 time=0@note_on channel=0 note=76 velocity=112 time=0.0013888895833333334@note_on channel=1 note=60 velocity=112 time=0@note_on channel=0 note=76 velocity=0 time=0.16527786041666667@note_on channel=1 note=60 velocity=0 time=0@note_on channel=3 note=43 velocity=0 time=0@note_on channel=0 note=74 velocity=112 time=0.0013888895833333334@note_on channel=1 note=58 velocity=112 time=0@note_on channel=3 note=55 velocity=112 time=0@note_on channel=0 note=74 velocity=0 time=0.16527786041666667@note_on channel=1 note=58 velocity=0 time=0@note_on channel=0 note=76 velocity=112 time=0.0013888895833333334@note_on channel=1 note=60 velocity=112 time=0@note_on channel=0 note=76 velocity=0 time=0.16527786041666667@note_on channel=1 note=60 velocity=0 time=0@note_on channel=3 note=55 velocity=0 time=0@note_on channel=0 note=77 velocity=112 time=0.0013888895833333334@note_on channel=1 note=57 velocity=112 time=0@note_on channel=3 note=53 velocity=112 time=0@note_on channel=1 note=57 velocity=0 time=0.16527786041666667@note_on channel=3 note=53 velocity=0 time=0@note_on channel=1 note=58 velocity=112 time=0.0013888895833333334@note_on channel=3 note=55 velocity=112 time=0@note_on channel=1 note=58 velocity=0 time=0.16527786041666667@note_on channel=3 note=55 velocity=0 time=0@note_on channel=1 note=55 velocity=112 time=0.0013888895833333334@note_on channel=3 note=51 velocity=112 time=0@note_on channel=1 note=55 velocity=0 time=0.16527786041666667@note_on channel=3 note=51 velocity=0 time=0@note_on channel=1 note=57 velocity=112 time=0.0013888895833333334@note_on channel=3 note=53 velocity=112 time=0@note_on channel=1 note=57 velocity=0 time=0.16527786041666667@note_on channel=3 note=53 velocity=0 time=0@note_on channel=1 note=58 velocity=112 time=0.0013888895833333334@note_on channel=3 note=50 velocity=112 time=0@note_on channel=1 note=58 velocity=0 time=0.16527786041666667@note_on channel=1 note=60 velocity=112 time=0.0013888895833333334@note_on channel=1 note=60 velocity=0 time=0.16527786041666667@note_on channel=3 note=50 velocity=0 time=0@note_on channel=1 note=62 velocity=112 time=0.0013888895833333334@note_on channel=3 note=58 velocity=112 time=0@note_on channel=1 note=62 velocity=0 time=0.16527786041666667@note_on channel=1 note=63 velocity=112 time=0.0013888895833333334@note_on channel=1 note=63 velocity=0 time=0.16527786041666667@note_on channel=3 note=58 velocity=0 time=0@note_on channel=1 note=60 velocity=112 time=0.0013888895833333334@note_on channel=3 note=57 velocity=112 time=0@note_on channel=1 note=60 velocity=0 time=0.16527786041666667@note_on channel=3 note=57 velocity=0 time=0@note_on channel=1 note=62 velocity=112 time=0.0013888895833333334@note_on channel=3 note=58 velocity=112 time=0@note_on channel=1 note=62 velocity=0 time=0.16527786041666667@note_on channel=3 note=58 velocity=0 time=0@note_on channel=1 note=58 velocity=112 time=0.0013888895833333334@note_on channel=3 note=55 velocity=112 time=0@note_on channel=1 note=58 velocity=0 time=0.16527786041666667@note_on channel=3 note=55 velocity=0 time=0@note_on channel=1 note=60 velocity=112 time=0.0013888895833333334@note_on channel=3 note=57 velocity=112 time=0@note_on channel=1 note=60 velocity=0 time=0.16527786041666667@note_on channel=3 note=57 velocity=0 time=0@note_on channel=1 note=57 velocity=112 time=0.0013888895833333334@note_on channel=3 note=53 velocity=112 time=0@note_on channel=1 note=57 velocity=0 time=0.16527786041666667@note_on channel=3 note=53 velocity=0 time=0@note_on channel=1 note=58 velocity=112 time=0.0013888895833333334@note_on channel=3 note=55 velocity=112 time=0@note_on channel=1 note=58 velocity=0 time=0.16527786041666667@note_on channel=3 note=55 velocity=0 time=0@note_on channel=1 note=60 velocity=112 time=0.0013888895833333334@note_on channel=3 note=51 velocity=112 time=0@note_on channel=1 note=60 velocity=0 time=0.16527786041666667@note_on channel=3 note=51 velocity=0 time=0@note_on channel=1 note=62 velocity=112 time=0.0013888895833333334@note_on channel=3 note=53 velocity=112 time=0@note_on channel=1 note=62 velocity=0 time=0.16527786041666667@note_on channel=3 note=53 velocity=0 time=0@note_on channel=1 note=58 velocity=112 time=0.0013888895833333334@note_on channel=3 note=50 velocity=112 time=0@note_on channel=0 note=77 velocity=0 time=0.16527786041666667@note_on channel=3 note=50 velocity=0 time=0@note_on channel=0 note=79 velocity=112 time=0.0013888895833333334@note_on channel=3 note=51 velocity=112 time=0@note_on channel=0 note=79 velocity=0 time=0.16527786041666667@note_on channel=3 note=51 velocity=0 time=0@note_on channel=0 note=75 velocity=112 time=0.0013888895833333334@note_on channel=3 note=48 velocity=112 time=0@note_on channel=0 note=75 velocity=0 time=0.16527786041666667@note_on channel=3 note=48 velocity=0 time=0@note_on channel=0 note=77 velocity=112 time=0.0013888895833333334@note_on channel=3 note=50 velocity=112 time=0@note_on channel=0 note=77 velocity=0 time=0.16527786041666667@note_on channel=3 note=50 velocity=0 time=0@note_on channel=0 note=74 velocity=112 time=0.0013888895833333334@note_on channel=3 note=46 velocity=112 time=0@note_on channel=0 note=74 velocity=0 time=0.16527786041666667@note_on channel=3 note=46 velocity=0 time=0@note_on channel=0 note=75 velocity=112 time=0.0013888895833333334@note_on channel=3 note=58 velocity=112 time=0@note_on channel=0 note=75 velocity=0 time=0.16527786041666667@note_on channel=3 note=58 velocity=0 time=0@note_on channel=0 note=77 velocity=112 time=0.0013888895833333334@note_on channel=3 note=57 velocity=112 time=0@note_on channel=0 note=77 velocity=0 time=0.16527786041666667@note_on channel=3 note=57 velocity=0 time=0@note_on channel=0 note=79 velocity=112 time=0.0013888895833333334@note_on channel=3 note=58 velocity=112 time=0@note_on channel=0 note=79 velocity=0 time=0.16527786041666667@note_on channel=3 note=58 velocity=0 time=0@note_on channel=0 note=75 velocity=112 time=0.0013888895833333334@note_on channel=3 note=55 velocity=112 time=0@note_on channel=1 note=58 velocity=0 time=0.16527786041666667@note_on channel=3 note=55 velocity=0 time=0@note_on channel=1 note=60 velocity=112 time=0.0013888895833333334@note_on channel=3 note=57 velocity=112 time=0@note_on channel=1 note=60 velocity=0 time=0.16527786041666667@note_on channel=3 note=57 velocity=0 time=0@note_on channel=1 note=57 velocity=112 time=0.0013888895833333334@note_on channel=3 note=53 velocity=112 time=0@note_on channel=1 note=57 velocity=0 time=0.16527786041666667@note_on channel=3 note=53 velocity=0 time=0@note_on channel=1 note=58 velocity=112 time=0.0013888895833333334@note_on channel=3 note=55 velocity=112 time=0@note_on channel=1 note=58 velocity=0 time=0.16527786041666667@note_on channel=3 note=55 velocity=0 time=0@note_on channel=1 note=55 velocity=112 time=0.0013888895833333334@note_on channel=3 note=51 velocity=112 time=0@note_on channel=1 note=55 velocity=0 time=0.16527786041666667@note_on channel=3 note=51 velocity=0 time=0@note_on channel=1 note=57 velocity=112 time=0.0013888895833333334@note_on channel=3 note=53 velocity=112 time=0@note_on channel=1 note=57 velocity=0 time=0.16527786041666667@note_on channel=3 note=53 velocity=0 time=0@note_on channel=1 note=58 velocity=112 time=0.0013888895833333334@note_on channel=3 note=50 velocity=112 time=0@note_on channel=1 note=58 velocity=0 time=0.16527786041666667@note_on channel=3 note=50 velocity=0 time=0@note_on channel=1 note=60 velocity=112 time=0.0013888895833333334@note_on channel=3 note=51 velocity=112 time=0@note_on channel=1 note=60 velocity=0 time=0.16527786041666667@note_on channel=3 note=51 velocity=0 time=0@note_on channel=1 note=57 velocity=112 time=0.0013888895833333334@note_on channel=3 note=48 velocity=112 time=0@note_on channel=0 note=75 velocity=0 time=0.16527786041666667@note_on channel=3 note=48 velocity=0 time=0@note_on channel=0 note=77 velocity=112 time=0.0013888895833333334@note_on channel=3 note=50 velocity=112 time=0@note_on channel=0 note=77 velocity=0 time=0.16527786041666667@note_on channel=3 note=50 velocity=0 time=0@note_on channel=0 note=74 velocity=112 time=0.0013888895833333334@note_on channel=3 note=46 velocity=112 time=0@note_on channel=0 note=74 velocity=0 time=0.16527786041666667@note_on channel=3 note=46 velocity=0 time=0@note_on channel=0 note=75 velocity=112 time=0.0013888895833333334@note_on channel=3 note=48 velocity=112 time=0@note_on channel=0 note=75 velocity=0 time=0.16527786041666667@note_on channel=3 note=48 velocity=0 time=0@note_on channel=0 note=72 velocity=112 time=0.0013888895833333334@note_on channel=3 note=45 velocity=112 time=0@note_on channel=0 note=72 velocity=0 time=0.16527786041666667@note_on channel=3 note=45 velocity=0 time=0@note_on channel=0 note=74 velocity=112 time=0.0013888895833333334@note_on channel=3 note=57 velocity=112 time=0@note_on channel=0 note=74 velocity=0 time=0.16527786041666667@note_on channel=3 note=57 velocity=0 time=0@note_on channel=0 note=75 velocity=112 time=0.0013888895833333334@note_on channel=3 note=55 velocity=112 time=0@note_on channel=0 note=75 velocity=0 time=0.16527786041666667@note_on channel=3 note=55 velocity=0 time=0@note_on channel=0 note=77 velocity=112 time=0.0013888895833333334@note_on channel=3 note=57 velocity=112 time=0@note_on channel=0 note=77 velocity=0 time=0.16527786041666667@note_on channel=3 note=57 velocity=0 time=0@note_on channel=0 note=74 velocity=112 time=0.0013888895833333334@note_on channel=3 note=53 velocity=112 time=0@note_on channel=1 note=57 velocity=0 time=0.16527786041666667@note_on channel=3 note=53 velocity=0 time=0@note_on channel=1 note=58 velocity=112 time=0.0013888895833333334@note_on channel=3 note=55 velocity=112 time=0@note_on channel=1 note=58 velocity=0 time=0.16527786041666667@note_on channel=3 note=55 velocity=0 time=0@note_on channel=1 note=55 velocity=112 time=0.0013888895833333334@note_on channel=3 note=51 velocity=112 time=0@note_on channel=1 note=55 velocity=0 time=0.16527786041666667@note_on channel=3 note=51 velocity=0 time=0@note_on channel=1 note=57 velocity=112 time=0.0013888895833333334@note_on channel=3 note=53 velocity=112 time=0@note_on channel=1 note=57 velocity=0 time=0.16527786041666667@note_on channel=3 note=53 velocity=0 time=0@note_on channel=1 note=53 velocity=112 time=0.0013888895833333334@note_on channel=3 note=50 velocity=112 time=0@note_on channel=1 note=53 velocity=0 time=0.16527786041666667@note_on channel=3 note=50 velocity=0 time=0@note_on channel=1 note=55 velocity=112 time=0.0013888895833333334@note_on channel=3 note=51 velocity=112 time=0@note_on channel=1 note=55 velocity=0 time=0.16527786041666667@note_on channel=3 note=51 velocity=0 time=0@note_on channel=1 note=57 velocity=112 time=0.0013888895833333334@note_on channel=3 note=48 velocity=112 time=0@note_on channel=1 note=57 velocity=0 time=0.16527786041666667@note_on channel=3 note=48 velocity=0 time=0@note_on channel=1 note=53 velocity=112 time=0.0013888895833333334@note_on channel=3 note=50 velocity=112 time=0@note_on channel=1 note=53 velocity=0 time=0.16527786041666667@note_on channel=3 note=50 velocity=0 time=0@note_on channel=1 note=58 velocity=112 time=0.0013888895833333334@note_on channel=3 note=46 velocity=112 time=0@note_on channel=0 note=74 velocity=0 time=0.16527786041666667@note_on channel=3 note=46 velocity=0 time=0@note_on channel=0 note=75 velocity=112 time=0.0013888895833333334@note_on channel=3 note=48 velocity=112 time=0@note_on channel=0 note=75 velocity=0 time=0.16527786041666667@note_on channel=1 note=58 velocity=0 time=0@note_on channel=3 note=48 velocity=0 time=0@note_on channel=0 note=72 velocity=112 time=0.0013888895833333334@note_on channel=1 note=60 velocity=112 time=0@note_on channel=3 note=45 velocity=112 time=0@note_on channel=0 note=72 velocity=0 time=0.16527786041666667@note_on channel=3 note=45 velocity=0 time=0@note_on channel=0 note=74 velocity=112 time=0.0013888895833333334@note_on channel=3 note=46 velocity=112 time=0@note_on channel=0 note=74 velocity=0 time=0.16527786041666667@note_on channel=1 note=60 velocity=0 time=0@note_on channel=3 note=46 velocity=0 time=0@note_on channel=0 note=70 velocity=112 time=0.0013888895833333334@note_on channel=1 note=62 velocity=112 time=0@note_on channel=3 note=43 velocity=112 time=0@note_on channel=0 note=70 velocity=0 time=0.16527786041666667@note_on channel=3 note=43 velocity=0 time=0@note_on channel=0 note=69 velocity=112 time=0.0013888895833333334@note_on channel=3 note=48 velocity=112 time=0@note_on channel=0 note=69 velocity=0 time=0.16527786041666667@note_on channel=1 note=62 velocity=0 time=0@note_on channel=3 note=48 velocity=0 time=0@note_on channel=0 note=67 velocity=112 time=0.0013888895833333334@note_on channel=1 note=64 velocity=112 time=0@note_on channel=3 note=46 velocity=112 time=0@note_on channel=0 note=67 velocity=0 time=0.16527786041666667@note_on channel=3 note=46 velocity=0 time=0@note_on channel=0 note=70 velocity=112 time=0.0013888895833333334@note_on channel=3 note=48 velocity=112 time=0@note_on channel=0 note=70 velocity=0 time=0.16527786041666667@note_on channel=1 note=64 velocity=0 time=0@note_on channel=3 note=48 velocity=0 time=0@note_on channel=0 note=69 velocity=112 time=0.0013888895833333334@note_on channel=1 note=65 velocity=112 time=0@note_on channel=3 note=41 velocity=112 time=0@note_on channel=0 note=69 velocity=0 time=0.16527786041666667@note_on channel=0 note=70 velocity=112 time=0.0013888895833333334@note_on channel=0 note=70 velocity=0 time=0.16527786041666667@note_on channel=3 note=41 velocity=0 time=0@note_on channel=0 note=67 velocity=112 time=0.0013888895833333334@note_on channel=3 note=53 velocity=112 time=0@note_on channel=0 note=67 velocity=0 time=0.16527786041666667@note_on channel=0 note=69 velocity=112 time=0.0013888895833333334@note_on channel=0 note=69 velocity=0 time=0.16527786041666667@note_on channel=3 note=53 velocity=0 time=0@note_on channel=0 note=70 velocity=112 time=0.0013888895833333334@note_on channel=3 note=55 velocity=112 time=0@note_on channel=0 note=70 velocity=0 time=0.16527786041666667@note_on channel=0 note=74 velocity=112 time=0.0013888895833333334@note_on channel=0 note=74 velocity=0 time=0.16527786041666667@note_on channel=3 note=55 velocity=0 time=0@note_on channel=0 note=72 velocity=112 time=0.0013888895833333334@note_on channel=3 note=57 velocity=112 time=0@note_on channel=0 note=72 velocity=0 time=0.16527786041666667@note_on channel=0 note=75 velocity=112 time=0.0013888895833333334@note_on channel=0 note=75 velocity=0 time=0.16527786041666667@note_on channel=3 note=57 velocity=0 time=0@note_on channel=0 note=74 velocity=112 time=0.0013888895833333334@note_on channel=3 note=58 velocity=112 time=0@note_on channel=0 note=74 velocity=0 time=0.16527786041666667@note_on channel=1 note=65 velocity=0 time=0@note_on channel=0 note=72 velocity=112 time=0.0013888895833333334@note_on channel=1 note=63 velocity=112 time=0@note_on channel=0 note=72 velocity=0 time=0.16527786041666667@note_on channel=1 note=63 velocity=0 time=0@note_on channel=3 note=58 velocity=0 time=0@note_on channel=0 note=70 velocity=112 time=0.0013888895833333334@note_on channel=1 note=62 velocity=112 time=0@note_on channel=3 note=51 velocity=112 time=0@note_on channel=0 note=70 velocity=0 time=0.16527786041666667@note_on channel=1 note=62 velocity=0 time=0@note_on channel=0 note=72 velocity=112 time=0.0013888895833333334@note_on channel=1 note=63 velocity=112 time=0@note_on channel=0 note=72 velocity=0 time=0.16527786041666667@note_on channel=1 note=63 velocity=0 time=0@note_on channel=3 note=51 velocity=0 time=0@note_on channel=0 note=69 velocity=112 time=0.0013888895833333334@note_on channel=1 note=60 velocity=112 time=0@note_on channel=3 note=53 velocity=112 time=0@note_on channel=3 note=53 velocity=0 time=0.3319446104166667@note_on channel=2 note=65 velocity=112 time=0.0013888895833333334@note_on channel=3 note=41 velocity=112 time=0@note_on channel=4 note=29 velocity=112 time=0@note_on channel=0 note=69 velocity=0 time=0.16527786041666667@note_on channel=1 note=60 velocity=0 time=0@note_on channel=0 note=70 velocity=112 time=0.0013888895833333334@note_on channel=1 note=62 velocity=112 time=0@note_on channel=0 note=70 velocity=0 time=0.16527786041666667@note_on channel=1 note=62 velocity=0 time=0@note_on channel=2 note=65 velocity=0 time=0@note_on channel=3 note=41 velocity=0 time=0@note_on channel=4 note=29 velocity=0 time=0@note_on channel=0 note=70 velocity=112 time=0.0013888895833333334@note_on channel=1 note=62 velocity=112 time=0@note_on channel=2 note=62 velocity=112 time=0@note_on channel=3 note=46 velocity=112 time=0@note_on channel=4 note=34 velocity=112 time=0@note_on channel=2 note=62 velocity=0 time=0.16527786041666667@note_on channel=2 note=63 velocity=112 time=0.0013888895833333334@note_on channel=0 note=70 velocity=0 time=0.16527786041666667@note_on channel=1 note=62 velocity=0 time=0@note_on channel=2 note=63 velocity=0 time=0@note_on channel=0 note=72 velocity=112 time=0.0013888895833333334@note_on channel=1 note=63 velocity=112 time=0@note_on channel=2 note=60 velocity=112 time=0@note_on channel=2 note=60 velocity=0 time=0.16527786041666667@note_on channel=2 note=62 velocity=112 time=0.0013888895833333334@note_on channel=0 note=72 velocity=0 time=0.16527786041666667@note_on channel=1 note=63 velocity=0 time=0@note_on channel=2 note=62 velocity=0 time=0@note_on channel=3 note=46 velocity=0 time=0@note_on channel=4 note=34 velocity=0 time=0@note_on channel=0 note=74 velocity=112 time=0.0013888895833333334@note_on channel=1 note=65 velocity=112 time=0@note_on channel=2 note=58 velocity=112 time=0@note_on channel=0 note=74 velocity=0 time=0.16527786041666667@note_on channel=0 note=77 velocity=110 time=0.0013888895833333334@note_on channel=0 note=77 velocity=0 time=0.16527786041666667@note_on channel=2 note=58 velocity=0 time=0@note_on channel=0 note=75 velocity=107 time=0.0013888895833333334@note_on channel=2 note=70 velocity=107 time=0@note_on channel=0 note=75 velocity=0 time=0.16527786041666667@note_on channel=0 note=74 velocity=104 time=0.0013888895833333334@note_on channel=0 note=74 velocity=0 time=0.16527786041666667@note_on channel=2 note=70 velocity=0 time=0@note_on channel=0 note=72 velocity=102 time=0.0013888895833333334@note_on channel=2 note=69 velocity=102 time=0@note_on channel=0 note=72 velocity=0 time=0.16527786041666667@note_on channel=2 note=69 velocity=0 time=0@note_on channel=0 note=74 velocity=99 time=0.0013888895833333334@note_on channel=2 note=70 velocity=99 time=0@note_on channel=0 note=74 velocity=0 time=0.16527786041666667@note_on channel=2 note=70 velocity=0 time=0@note_on channel=0 note=70 velocity=96 time=0.0013888895833333334@note_on channel=2 note=67 velocity=96 time=0@note_on channel=0 note=70 velocity=0 time=0.16527786041666667@note_on channel=2 note=67 velocity=0 time=0@note_on channel=0 note=72 velocity=94 time=0.0013888895833333334@note_on channel=2 note=69 velocity=94 time=0@note_on channel=0 note=72 velocity=0 time=0.16527786041666667@note_on channel=1 note=65 velocity=0 time=0@note_on channel=2 note=69 velocity=0 time=0@note_on channel=0 note=69 velocity=91 time=0.0013888895833333334@note_on channel=2 note=65 velocity=91 time=0@note_on channel=0 note=69 velocity=0 time=0.3319446104166667@note_on channel=2 note=65 velocity=0 time=0@note_on channel=0 note=74 velocity=86 time=0.0013888895833333334@note_on channel=1 note=65 velocity=86 time=0@note_on channel=2 note=70 velocity=86 time=0@note_on channel=2 note=70 velocity=0 time=0.16527786041666667@note_on channel=2 note=65 velocity=83 time=0.0013888895833333334@note_on channel=1 note=65 velocity=0 time=0.16527786041666667@note_on channel=2 note=65 velocity=0 time=0@note_on channel=1 note=63 velocity=80 time=0.0013888895833333334@note_on channel=2 note=67 velocity=80 time=0@note_on channel=1 note=63 velocity=0 time=0.16527786041666667@note_on channel=1 note=65 velocity=80 time=0.0013888895833333334@note_on channel=1 note=65 velocity=0 time=0.16527786041666667@note_on channel=2 note=67 velocity=0 time=0@note_on channel=1 note=67 velocity=80 time=0.0013888895833333334@note_on channel=2 note=63 velocity=80 time=0@note_on channel=0 note=74 velocity=0 time=0.3319446104166667@note_on channel=2 note=63 velocity=0 time=0@note_on channel=0 note=72 velocity=80 time=0.0013888895833333334@note_on channel=2 note=57 velocity=80 time=0@note_on channel=1 note=67 velocity=0 time=0.16527786041666667@note_on channel=1 note=67 velocity=80 time=0.0013888895833333334@note_on channel=1 note=67 velocity=0 time=0.16527786041666667@note_on channel=2 note=57 velocity=0 time=0@note_on channel=1 note=65 velocity=80 time=0.0013888895833333334@note_on channel=2 note=69 velocity=80 time=0@note_on channel=1 note=65 velocity=0 time=0.16527786041666667@note_on channel=1 note=63 velocity=80 time=0.0013888895833333334@note_on channel=1 note=63 velocity=0 time=0.16527786041666667@note_on channel=2 note=69 velocity=0 time=0@note_on channel=1 note=62 velocity=80 time=0.0013888895833333334@note_on channel=2 note=65 velocity=80 time=0@note_on channel=1 note=62 velocity=0 time=0.16527786041666667@note_on channel=2 note=65 velocity=0 time=0@note_on channel=1 note=63 velocity=80 time=0.0013888895833333334@note_on channel=2 note=67 velocity=80 time=0@note_on channel=1 note=63 velocity=0 time=0.16527786041666667@note_on channel=2 note=67 velocity=0 time=0@note_on channel=1 note=65 velocity=80 time=0.0013888895833333334@note_on channel=2 note=63 velocity=80 time=0@note_on channel=2 note=63 velocity=0 time=0.16527786041666667@note_on channel=2 note=65 velocity=80 time=0.0013888895833333334@note_on channel=0 note=72 velocity=0 time=0.16527786041666667@note_on channel=2 note=65 velocity=0 time=0@note_on channel=0 note=70 velocity=80 time=0.0013888895833333334@note_on channel=2 note=62 velocity=80 time=0@note_on channel=1 note=65 velocity=0 time=0.16527786041666667@note_on channel=1 note=65 velocity=80 time=0.0013888895833333334@note_on channel=1 note=65 velocity=0 time=0.16527786041666667@note_on channel=2 note=62 velocity=0 time=0@note_on channel=1 note=63 velocity=80 time=0.0013888895833333334@note_on channel=2 note=65 velocity=80 time=0@note_on channel=1 note=63 velocity=0 time=0.16527786041666667@note_on channel=2 note=65 velocity=0 time=0@note_on channel=1 note=62 velocity=80 time=0.0013888895833333334@note_on channel=2 note=62 velocity=80 time=0@note_on channel=1 note=62 velocity=0 time=0.16527786041666667@note_on channel=2 note=62 velocity=0 time=0@note_on channel=1 note=60 velocity=80 time=0.0013888895833333334@note_on channel=2 note=63 velocity=80 time=0@note_on channel=1 note=60 velocity=0 time=0.16527786041666667@note_on channel=1 note=62 velocity=80 time=0.0013888895833333334@note_on channel=1 note=62 velocity=0 time=0.16527786041666667@note_on channel=2 note=63 velocity=0 time=0@note_on channel=1 note=63 velocity=80 time=0.0013888895833333334@note_on channel=2 note=60 velocity=80 time=0@note_on channel=0 note=70 velocity=0 time=0.3319446104166667@note_on channel=2 note=60 velocity=0 time=0@note_on channel=0 note=69 velocity=80 time=0.0013888895833333334@note_on channel=2 note=53 velocity=80 time=0@note_on channel=1 note=63 velocity=0 time=0.16527786041666667@note_on channel=1 note=63 velocity=80 time=0.0013888895833333334@note_on channel=1 note=63 velocity=0 time=0.16527786041666667@note_on channel=2 note=53 velocity=0 time=0@note_on channel=1 note=62 velocity=80 time=0.0013888895833333334@note_on channel=2 note=65 velocity=80 time=0@note_on channel=1 note=62 velocity=0 time=0.16527786041666667@note_on channel=1 note=60 velocity=80 time=0.0013888895833333334@note_on channel=0 note=69 velocity=0 time=0.16527786041666667@note_on channel=1 note=60 velocity=0 time=0@note_on channel=2 note=65 velocity=0 time=0@note_on channel=1 note=58 velocity=80 time=0.0013888895833333334@note_on channel=2 note=62 velocity=80 time=0@note_on channel=2 note=62 velocity=0 time=0.16527786041666667@note_on channel=2 note=63 velocity=80 time=0.0013888895833333334@note_on channel=2 note=63 velocity=0 time=0.16527786041666667@note_on channel=0 note=65 velocity=80 time=0.0013888895833333334@note_on channel=2 note=60 velocity=80 time=0@note_on channel=2 note=60 velocity=0 time=0.16527786041666667@note_on channel=2 note=62 velocity=80 time=0.0013888895833333334@note_on channel=0 note=65 velocity=0 time=0.16527786041666667@note_on channel=1 note=58 velocity=0 time=0@note_on channel=2 note=62 velocity=0 time=0@note_on channel=0 note=70 velocity=80 time=0.0013888895833333334@note_on channel=2 note=58 velocity=80 time=0@note_on channel=2 note=58 velocity=0 time=0.16527786041666667@note_on channel=2 note=60 velocity=80 time=0.0013888895833333334@note_on channel=0 note=70 velocity=0 time=0.16527786041666667@note_on channel=2 note=60 velocity=0 time=0@note_on channel=0 note=70 velocity=80 time=0.0013888895833333334@note_on channel=2 note=62 velocity=80 time=0@note_on channel=2 note=62 velocity=0 time=0.16527786041666667@note_on channel=2 note=63 velocity=80 time=0.0013888895833333334@note_on channel=0 note=70 velocity=0 time=0.16527786041666667@note_on channel=2 note=63 velocity=0 time=0@note_on channel=0 note=69 velocity=80 time=0.0013888895833333334@note_on channel=2 note=65 velocity=80 time=0@note_on channel=2 note=65 velocity=0 time=0.16527786041666667@note_on channel=2 note=67 velocity=80 time=0.0013888895833333334@note_on channel=2 note=67 velocity=0 time=0.16527786041666667@note_on channel=1 note=60 velocity=80 time=0.0013888895833333334@note_on channel=2 note=63 velocity=80 time=0@note_on channel=2 note=63 velocity=0 time=0.16527786041666667@note_on channel=2 note=65 velocity=80 time=0.0013888895833333334@note_on channel=0 note=69 velocity=0 time=0.16527786041666667@note_on channel=1 note=60 velocity=0 time=0@note_on channel=2 note=65 velocity=0 time=0@note_on channel=0 note=70 velocity=80 time=0.0013888895833333334@note_on channel=1 note=65 velocity=80 time=0@note_on channel=2 note=62 velocity=80 time=0@note_on channel=2 note=62 velocity=0 time=0.16527786041666667@note_on channel=2 note=63 velocity=80 time=0.0013888895833333334@note_on channel=0 note=70 velocity=0 time=0.16527786041666667@note_on channel=1 note=65 velocity=0 time=0@note_on channel=2 note=63 velocity=0 time=0@note_on channel=0 note=71 velocity=80 time=0.0013888895833333334@note_on channel=1 note=65 velocity=80 time=0@note_on channel=2 note=65 velocity=80 time=0@note_on channel=2 note=65 velocity=0 time=0.16527786041666667@note_on channel=2 note=67 velocity=80 time=0.0013888895833333334@note_on channel=0 note=71 velocity=0 time=0.16527786041666667@note_on channel=1 note=65 velocity=0 time=0@note_on channel=2 note=67 velocity=0 time=0@note_on channel=0 note=72 velocity=80 time=0.0013888895833333334@note_on channel=1 note=63 velocity=80 time=0@note_on channel=2 note=60 velocity=80 time=0@note_on channel=2 note=60 velocity=0 time=0.16527786041666667@note_on channel=2 note=62 velocity=80 time=0.0013888895833333334@note_on channel=0 note=72 velocity=0 time=0.16527786041666667@note_on channel=1 note=63 velocity=0 time=0@note_on channel=2 note=62 velocity=0 time=0@note_on channel=0 note=67 velocity=80 time=0.0013888895833333334@note_on channel=1 note=64 velocity=80 time=0@note_on channel=2 note=58 velocity=80 time=0@note_on channel=2 note=58 velocity=0 time=0.16527786041666667@note_on channel=2 note=60 velocity=80 time=0.0013888895833333334@note_on channel=0 note=67 velocity=0 time=0.16527786041666667@note_on channel=1 note=64 velocity=0 time=0@note_on channel=2 note=60 velocity=0 time=0@note_on channel=0 note=72 velocity=80 time=0.0013888895833333334@note_on channel=1 note=65 velocity=80 time=0@note_on channel=2 note=57 velocity=80 time=0@note_on channel=2 note=57 velocity=0 time=0.16527786041666667@note_on channel=2 note=58 velocity=80 time=0.0013888895833333334@note_on channel=0 note=72 velocity=0 time=0.16527786041666667@note_on channel=1 note=65 velocity=0 time=0@note_on channel=2 note=58 velocity=0 time=0@note_on channel=0 note=72 velocity=80 time=0.0013888895833333334@note_on channel=1 note=66 velocity=80 time=0@note_on channel=2 note=60 velocity=80 time=0@note_on channel=2 note=60 velocity=0 time=0.16527786041666667@note_on channel=2 note=62 velocity=80 time=0.0013888895833333334@note_on channel=0 note=72 velocity=0 time=0.16527786041666667@note_on channel=1 note=66 velocity=0 time=0@note_on channel=2 note=62 velocity=0 time=0@note_on channel=0 note=70 velocity=80 time=0.0013888895833333334@note_on channel=1 note=67 velocity=80 time=0@note_on channel=2 note=55 velocity=80 time=0@note_on channel=2 note=55 velocity=0 time=0.16527786041666667@note_on channel=2 note=57 velocity=80 time=0.0013888895833333334@note_on channel=0 note=70 velocity=0 time=0.16527786041666667@note_on channel=1 note=67 velocity=0 time=0@note_on channel=2 note=57 velocity=0 time=0@note_on channel=0 note=71 velocity=80 time=0.0013888895833333334@note_on channel=1 note=62 velocity=80 time=0@note_on channel=2 note=53 velocity=80 time=0@note_on channel=2 note=53 velocity=0 time=0.16527786041666667@note_on channel=2 note=55 velocity=80 time=0.0013888895833333334@note_on channel=0 note=71 velocity=0 time=0.16527786041666667@note_on channel=1 note=62 velocity=0 time=0@note_on channel=2 note=55 velocity=0 time=0@note_on channel=0 note=72 velocity=80 time=0.0013888895833333334@note_on channel=1 note=67 velocity=80 time=0@note_on channel=2 note=52 velocity=80 time=0@note_on channel=2 note=52 velocity=0 time=0.16527786041666667@note_on channel=2 note=53 velocity=80 time=0.0013888895833333334@note_on channel=0 note=72 velocity=0 time=0.16527786041666667@note_on channel=1 note=67 velocity=0 time=0@note_on channel=2 note=53 velocity=0 time=0@note_on channel=0 note=73 velocity=80 time=0.0013888895833333334@note_on channel=1 note=67 velocity=80 time=0@note_on channel=2 note=55 velocity=80 time=0@note_on channel=2 note=55 velocity=0 time=0.16527786041666667@note_on channel=2 note=57 velocity=80 time=0.0013888895833333334@note_on channel=0 note=73 velocity=0 time=0.16527786041666667@note_on channel=1 note=67 velocity=0 time=0@note_on channel=2 note=57 velocity=0 time=0@note_on channel=0 note=74 velocity=80 time=0.0013888895833333334@note_on channel=1 note=65 velocity=80 time=0@note_on channel=2 note=50 velocity=80 time=0@note_on channel=2 note=50 velocity=0 time=0.16527786041666667@note_on channel=2 note=62 velocity=80 time=0.0013888895833333334@note_on channel=0 note=74 velocity=0 time=0.16527786041666667@note_on channel=1 note=65 velocity=0 time=0@note_on channel=2 note=62 velocity=0 time=0@note_on channel=0 note=69 velocity=80 time=0.0013888895833333334@note_on channel=1 note=66 velocity=80 time=0@note_on channel=2 note=60 velocity=80 time=0@note_on channel=2 note=60 velocity=0 time=0.16527786041666667@note_on channel=2 note=62 velocity=80 time=0.0013888895833333334@note_on channel=0 note=69 velocity=0 time=0.16527786041666667@note_on channel=1 note=66 velocity=0 time=0@note_on channel=2 note=62 velocity=0 time=0@note_on channel=0 note=74 velocity=80 time=0.0013888895833333334@note_on channel=1 note=67 velocity=80 time=0@note_on channel=2 note=59 velocity=80 time=0@note_on channel=2 note=59 velocity=0 time=0.16527786041666667@note_on channel=2 note=60 velocity=80 time=0.0013888895833333334@note_on channel=0 note=74 velocity=0 time=0.16527786041666667@note_on channel=1 note=67 velocity=0 time=0@note_on channel=2 note=60 velocity=0 time=0@note_on channel=0 note=74 velocity=80 time=0.0013888895833333334@note_on channel=1 note=68 velocity=80 time=0@note_on channel=2 note=62 velocity=80 time=0@note_on channel=2 note=62 velocity=0 time=0.16527786041666667@note_on channel=2 note=64 velocity=80 time=0.0013888895833333334@note_on channel=0 note=74 velocity=0 time=0.16527786041666667@note_on channel=1 note=68 velocity=0 time=0@note_on channel=2 note=64 velocity=0 time=0@note_on channel=0 note=73 velocity=80 time=0.0013888895833333334@note_on channel=1 note=69 velocity=80 time=0@note_on channel=2 note=57 velocity=80 time=0@note_on channel=1 note=69 velocity=0 time=0.16527786041666667@note_on channel=1 note=70 velocity=80 time=0.0013888895833333334@note_on channel=1 note=70 velocity=0 time=0.16527786041666667@note_on channel=2 note=57 velocity=0 time=0@note_on channel=1 note=67 velocity=80 time=0.0013888895833333334@note_on channel=2 note=69 velocity=80 time=0@note_on channel=1 note=67 velocity=0 time=0.16527786041666667@note_on channel=1 note=69 velocity=80 time=0.0013888895833333334@note_on channel=0 note=73 velocity=0 time=0.16527786041666667@note_on channel=1 note=69 velocity=0 time=0@note_on channel=2 note=69 velocity=0 time=0@note_on channel=0 note=74 velocity=80 time=0.0013888895833333334@note_on channel=1 note=65 velocity=80 time=0@note_on channel=2 note=70 velocity=80 time=0@note_on channel=1 note=65 velocity=0 time=0.16527786041666667@note_on channel=1 note=67 velocity=82 time=0.0013888895833333334@note_on channel=1 note=67 velocity=0 time=0.16527786041666667@note_on channel=2 note=70 velocity=0 time=0@note_on channel=1 note=69 velocity=85 time=0.0013888895833333334@note_on channel=2 note=62 velocity=87 time=0@note_on channel=1 note=69 velocity=0 time=0.16527786041666667@note_on channel=1 note=70 velocity=88 time=0.0013888895833333334@note_on channel=1 note=70 velocity=0 time=0.16527786041666667@note_on channel=2 note=62 velocity=0 time=0@note_on channel=1 note=67 velocity=90 time=0.0013888895833333334@note_on channel=2 note=64 velocity=95 time=0@note_on channel=1 note=67 velocity=0 time=0.16527786041666667@note_on channel=1 note=69 velocity=93 time=0.0013888895833333334@note_on channel=1 note=69 velocity=0 time=0.16527786041666667@note_on channel=2 note=64 velocity=0 time=0@note_on channel=1 note=65 velocity=96 time=0.0013888895833333334@note_on channel=2 note=67 velocity=103 time=0@note_on channel=1 note=65 velocity=0 time=0.16527786041666667@note_on channel=1 note=67 velocity=98 time=0.0013888895833333334@note_on channel=0 note=74 velocity=0 time=0.16527786041666667@note_on channel=1 note=67 velocity=0 time=0@note_on channel=2 note=67 velocity=0 time=0@note_on channel=0 note=73 velocity=110 time=0.0013888895833333334@note_on channel=1 note=64 velocity=101 time=0@note_on channel=2 note=69 velocity=110 time=0@note_on channel=1 note=64 velocity=0 time=0.16527786041666667@note_on channel=1 note=65 velocity=104 time=0.0013888895833333334@note_on channel=1 note=65 velocity=0 time=0.16527786041666667@note_on channel=2 note=69 velocity=0 time=0@note_on channel=1 note=67 velocity=106 time=0.0013888895833333334@note_on channel=2 note=57 velocity=118 time=0@note_on channel=3 note=45 velocity=126 time=0@note_on channel=4 note=33 velocity=126 time=0@note_on channel=1 note=67 velocity=0 time=0.16527786041666667@note_on channel=1 note=69 velocity=109 time=0.0013888895833333334@note_on channel=0 note=73 velocity=0 time=0.16527786041666667@note_on channel=1 note=69 velocity=0 time=0@note_on channel=2 note=57 velocity=0 time=0@note_on channel=3 note=45 velocity=0 time=0@note_on channel=4 note=33 velocity=0 time=0@note_on channel=0 note=74 velocity=126 time=0.0013888895833333334@note_on channel=2 note=65 velocity=126 time=0@note_on channel=3 note=50 velocity=126 time=0@note_on channel=4 note=38 velocity=126 time=0@note_on channel=2 note=65 velocity=0 time=0.16527786041666667@note_on channel=2 note=69 velocity=126 time=0.0013888895833333334@note_on channel=0 note=74 velocity=0 time=0.16527786041666667@note_on channel=2 note=69 velocity=0 time=0@note_on channel=3 note=50 velocity=0 time=0@note_on channel=4 note=38 velocity=0 time=0@note_on channel=0 note=77 velocity=126 time=0.0013888895833333334@note_on channel=2 note=62 velocity=124 time=0@note_on channel=2 note=62 velocity=0 time=0.16527786041666667@note_on channel=2 note=65 velocity=122 time=0.0013888895833333334@note_on channel=0 note=77 velocity=0 time=0.16527786041666667@note_on channel=2 note=65 velocity=0 time=0@note_on channel=0 note=67 velocity=122 time=0.0013888895833333334@note_on channel=2 note=64 velocity=120 time=0@note_on channel=2 note=64 velocity=0 time=0.16527786041666667@note_on channel=2 note=67 velocity=118 time=0.0013888895833333334@note_on channel=0 note=67 velocity=0 time=0.16527786041666667@note_on channel=2 note=67 velocity=0 time=0@note_on channel=0 note=76 velocity=118 time=0.0013888895833333334@note_on channel=2 note=61 velocity=116 time=0@note_on channel=2 note=61 velocity=0 time=0.16527786041666667@note_on channel=2 note=64 velocity=114 time=0.0013888895833333334@note_on channel=0 note=76 velocity=0 time=0.16527786041666667@note_on channel=2 note=64 velocity=0 time=0@note_on channel=0 note=65 velocity=114 time=0.0013888895833333334@note_on channel=2 note=62 velocity=112 time=0@note_on channel=0 note=65 velocity=0 time=0.16527786041666667@note_on channel=2 note=62 velocity=0 time=0@note_on channel=0 note=69 velocity=112 time=0.0013888895833333334@note_on channel=2 note=65 velocity=110 time=0@note_on channel=0 note=69 velocity=0 time=0.16527786041666667@note_on channel=2 note=65 velocity=0 time=0@note_on channel=0 note=74 velocity=110 time=0.0013888895833333334@note_on channel=1 note=74 velocity=112 time=0@note_on channel=2 note=57 velocity=108 time=0@note_on channel=1 note=74 velocity=0 time=0.16527786041666667@note_on channel=2 note=57 velocity=0 time=0@note_on channel=1 note=71 velocity=112 time=0.0013888895833333334@note_on channel=2 note=62 velocity=106 time=0@note_on channel=0 note=74 velocity=0 time=0.16527786041666667@note_on channel=1 note=71 velocity=0 time=0@note_on channel=2 note=62 velocity=0 time=0@note_on channel=0 note=73 velocity=106 time=0.0013888895833333334@note_on channel=2 note=64 velocity=104 time=0@note_on channel=0 note=73 velocity=0 time=0.16527786041666667@note_on channel=2 note=64 velocity=0 time=0@note_on channel=0 note=76 velocity=103 time=0.0013888895833333334@note_on channel=2 note=67 velocity=102 time=0@note_on channel=0 note=76 velocity=0 time=0.16527786041666667@note_on channel=2 note=67 velocity=0 time=0@note_on channel=0 note=81 velocity=101 time=0.0013888895833333334@note_on channel=1 note=81 velocity=112 time=0@note_on channel=2 note=57 velocity=100 time=0@note_on channel=1 note=81 velocity=0 time=0.16527786041666667@note_on channel=2 note=57 velocity=0 time=0@note_on channel=1 note=79 velocity=112 time=0.0013888895833333334@note_on channel=2 note=61 velocity=98 time=0@note_on channel=0 note=81 velocity=0 time=0.16527786041666667@note_on channel=1 note=79 velocity=0 time=0@note_on channel=2 note=61 velocity=0 time=0@note_on channel=0 note=77 velocity=97 time=0.0013888895833333334@note_on channel=1 note=77 velocity=112 time=0@note_on channel=2 note=62 velocity=96 time=0@note_on channel=0 note=77 velocity=0 time=0.16527786041666667@note_on channel=1 note=77 velocity=0 time=0@note_on channel=2 note=62 velocity=0 time=0@note_on channel=0 note=79 velocity=95 time=0.0013888895833333334@note_on channel=2 note=65 velocity=94 time=0@note_on channel=0 note=79 velocity=0 time=0.16527786041666667@note_on channel=2 note=65 velocity=0 time=0@note_on channel=0 note=76 velocity=93 time=0.0013888895833333334@note_on channel=2 note=57 velocity=92 time=0@note_on channel=0 note=76 velocity=0 time=0.16527786041666667@note_on channel=2 note=57 velocity=0 time=0@note_on channel=0 note=77 velocity=91 time=0.0013888895833333334@note_on channel=2 note=62 velocity=90 time=0@note_on channel=0 note=77 velocity=0 time=0.16527786041666667@note_on channel=2 note=62 velocity=0 time=0@note_on channel=0 note=74 velocity=89 time=0.0013888895833333334@note_on channel=2 note=53 velocity=88 time=0@note_on channel=0 note=74 velocity=0 time=0.16527786041666667@note_on channel=2 note=53 velocity=0 time=0@note_on channel=0 note=77 velocity=87 time=0.0013888895833333334@note_on channel=2 note=57 velocity=86 time=0@note_on channel=0 note=77 velocity=0 time=0.16527786041666667@note_on channel=2 note=57 velocity=0 time=0@note_on channel=0 note=76 velocity=85 time=0.0013888895833333334@note_on channel=2 note=50 velocity=84 time=0@note_on channel=0 note=76 velocity=0 time=0.16527786041666667@note_on channel=2 note=50 velocity=0 time=0@note_on channel=0 note=74 velocity=83 time=0.0013888895833333334@note_on channel=2 note=53 velocity=82 time=0@note_on channel=0 note=74 velocity=0 time=0.16527786041666667@note_on channel=2 note=53 velocity=0 time=0@note_on channel=0 note=73 velocity=80 time=0.0013888895833333334@note_on channel=2 note=57 velocity=80 time=0@note_on channel=0 note=73 velocity=0 time=0.16527786041666667@note_on channel=2 note=57 velocity=0 time=0@note_on channel=0 note=74 velocity=85 time=0.0013888895833333334@note_on channel=2 note=49 velocity=85 time=0@note_on channel=0 note=74 velocity=0 time=0.16527786041666667@note_on channel=2 note=49 velocity=0 time=0@note_on channel=0 note=71 velocity=91 time=0.0013888895833333334@note_on channel=2 note=52 velocity=91 time=0@note_on channel=0 note=71 velocity=0 time=0.16527786041666667@note_on channel=2 note=52 velocity=0 time=0@note_on channel=0 note=73 velocity=97 time=0.0013888895833333334@note_on channel=2 note=55 velocity=97 time=0@note_on channel=0 note=73 velocity=0 time=0.16527786041666667@note_on channel=2 note=55 velocity=0 time=0@note_on channel=0 note=69 velocity=103 time=0.0013888895833333334@note_on channel=2 note=53 velocity=103 time=0@note_on channel=2 note=53 velocity=0 time=0.16527786041666667@note_on channel=2 note=57 velocity=108 time=0.0013888895833333334@note_on channel=0 note=69 velocity=0 time=0.16527786041666667@note_on channel=2 note=57 velocity=0 time=0@note_on channel=0 note=74 velocity=114 time=0.0013888895833333334@note_on channel=1 note=74 velocity=96 time=0@note_on channel=2 note=50 velocity=114 time=0@note_on channel=3 note=50 velocity=96 time=0@note_on channel=0 note=74 velocity=0 time=0.16527786041666667@note_on channel=1 note=74 velocity=0 time=0@note_on channel=2 note=50 velocity=0 time=0@note_on channel=3 note=50 velocity=0 time=0@note_on channel=0 note=69 velocity=120 time=0.0013888895833333334@note_on channel=1 note=69 velocity=96 time=0@note_on channel=2 note=53 velocity=120 time=0@note_on channel=3 note=53 velocity=96 time=0@note_on channel=0 note=69 velocity=0 time=0.16527786041666667@note_on channel=1 note=69 velocity=0 time=0@note_on channel=2 note=53 velocity=0 time=0@note_on channel=3 note=53 velocity=0 time=0@note_on channel=0 note=70 velocity=126 time=0.0013888895833333334@note_on channel=1 note=70 velocity=96 time=0@note_on channel=2 note=55 velocity=126 time=0@note_on channel=3 note=43 velocity=96 time=0@note_on channel=2 note=55 velocity=0 time=0.16527786041666667@note_on channel=3 note=43 velocity=0 time=0@note_on channel=3 note=46 velocity=96 time=0.0013888895833333334@note_on channel=0 note=70 velocity=0 time=0.16527786041666667@note_on channel=1 note=70 velocity=0 time=0@note_on channel=3 note=46 velocity=0 time=0@note_on channel=1 note=67 velocity=96 time=0.0013888895833333334@note_on channel=3 note=50 velocity=96 time=0@note_on channel=3 note=50 velocity=0 time=0.16527786041666667@note_on channel=3 note=53 velocity=96 time=0.0013888895833333334@note_on channel=1 note=67 velocity=0 time=0.16527786041666667@note_on channel=3 note=53 velocity=0 time=0@note_on channel=1 note=60 velocity=96 time=0.0013888895833333334@note_on channel=3 note=52 velocity=96 time=0@note_on channel=3 note=52 velocity=0 time=0.16527786041666667@note_on channel=3 note=55 velocity=96 time=0.0013888895833333334@note_on channel=1 note=60 velocity=0 time=0.16527786041666667@note_on channel=3 note=55 velocity=0 time=0@note_on channel=1 note=72 velocity=96 time=0.0013888895833333334@note_on channel=3 note=48 velocity=96 time=0@note_on channel=3 note=48 velocity=0 time=0.16527786041666667@note_on channel=3 note=52 velocity=96 time=0.0013888895833333334@note_on channel=1 note=72 velocity=0 time=0.16527786041666667@note_on channel=3 note=52 velocity=0 time=0@note_on channel=1 note=69 velocity=96 time=0.0013888895833333334@note_on channel=3 note=41 velocity=96 time=0@note_on channel=1 note=69 velocity=0 time=0.16527786041666667@note_on channel=3 note=41 velocity=0 time=0@note_on channel=1 note=70 velocity=96 time=0.0013888895833333334@note_on channel=3 note=45 velocity=96 time=0@note_on channel=1 note=70 velocity=0 time=0.16527786041666667@note_on channel=3 note=45 velocity=0 time=0@note_on channel=1 note=67 velocity=96 time=0.0013888895833333334@note_on channel=3 note=48 velocity=96 time=0@note_on channel=1 note=67 velocity=0 time=0.16527786041666667@note_on channel=3 note=48 velocity=0 time=0@note_on channel=1 note=69 velocity=96 time=0.0013888895833333334@note_on channel=3 note=52 velocity=96 time=0@note_on channel=1 note=69 velocity=0 time=0.16527786041666667@note_on channel=3 note=52 velocity=0 time=0@note_on channel=1 note=65 velocity=96 time=0.0013888895833333334@note_on channel=3 note=50 velocity=96 time=0@note_on channel=3 note=50 velocity=0 time=0.16527786041666667@note_on channel=3 note=53 velocity=96 time=0.0013888895833333334@note_on channel=1 note=65 velocity=0 time=0.16527786041666667@note_on channel=3 note=53 velocity=0 time=0@note_on channel=1 note=70 velocity=96 time=0.0013888895833333334@note_on channel=3 note=46 velocity=96 time=0@note_on channel=1 note=70 velocity=0 time=0.16527786041666667@note_on channel=3 note=46 velocity=0 time=0@note_on channel=1 note=65 velocity=96 time=0.0013888895833333334@note_on channel=3 note=50 velocity=96 time=0@note_on channel=1 note=65 velocity=0 time=0.16527786041666667@note_on channel=3 note=50 velocity=0 time=0@note_on channel=1 note=67 velocity=96 time=0.0013888895833333334@note_on channel=3 note=40 velocity=96 time=0@note_on channel=3 note=40 velocity=0 time=0.16527786041666667@note_on channel=3 note=43 velocity=99 time=0.0013888895833333334@note_on channel=1 note=67 velocity=0 time=0.16527786041666667@note_on channel=3 note=43 velocity=0 time=0@note_on channel=1 note=64 velocity=103 time=0.0013888895833333334@note_on channel=3 note=46 velocity=103 time=0@note_on channel=3 note=46 velocity=0 time=0.16527786041666667@note_on channel=3 note=50 velocity=107 time=0.0013888895833333334@note_on channel=1 note=64 velocity=0 time=0.16527786041666667@note_on channel=3 note=50 velocity=0 time=0@note_on channel=1 note=57 velocity=111 time=0.0013888895833333334@note_on channel=3 note=49 velocity=111 time=0@note_on channel=3 note=49 velocity=0 time=0.16527786041666667@note_on channel=3 note=52 velocity=114 time=0.0013888895833333334@note_on channel=1 note=57 velocity=0 time=0.16527786041666667@note_on channel=3 note=52 velocity=0 time=0@note_on channel=1 note=69 velocity=118 time=0.0013888895833333334@note_on channel=3 note=45 velocity=118 time=0@note_on channel=3 note=45 velocity=0 time=0.16527786041666667@note_on channel=3 note=49 velocity=122 time=0.0013888895833333334@note_on channel=1 note=69 velocity=0 time=0.16527786041666667@note_on channel=3 note=49 velocity=0 time=0@note_on channel=0 note=65 velocity=126 time=0.0013888895833333334@note_on channel=1 note=65 velocity=126 time=0@note_on channel=2 note=50 velocity=126 time=0@note_on channel=3 note=38 velocity=126 time=0@note_on channel=4 note=26 velocity=126 time=0@note_on channel=0 note=65 velocity=0 time=0.16527786041666667@note_on channel=1 note=65 velocity=0 time=0@note_on channel=0 note=67 velocity=126 time=0.0013888895833333334@note_on channel=1 note=67 velocity=126 time=0@note_on channel=0 note=67 velocity=0 time=0.16527786041666667@note_on channel=1 note=67 velocity=0 time=0@note_on channel=2 note=50 velocity=0 time=0@note_on channel=3 note=38 velocity=0 time=0@note_on channel=4 note=26 velocity=0 time=0@note_on channel=0 note=64 velocity=126 time=0.0013888895833333334@note_on channel=1 note=64 velocity=126 time=0@note_on channel=2 note=52 velocity=126 time=0@note_on channel=3 note=40 velocity=126 time=0@note_on channel=4 note=28 velocity=126 time=0@note_on channel=0 note=64 velocity=0 time=0.16527786041666667@note_on channel=1 note=64 velocity=0 time=0@note_on channel=0 note=65 velocity=126 time=0.0013888895833333334@note_on channel=1 note=65 velocity=126 time=0@note_on channel=0 note=65 velocity=0 time=0.16527786041666667@note_on channel=1 note=65 velocity=0 time=0@note_on channel=2 note=52 velocity=0 time=0@note_on channel=3 note=40 velocity=0 time=0@note_on channel=4 note=28 velocity=0 time=0@note_on channel=0 note=62 velocity=126 time=0.0013888895833333334@note_on channel=1 note=62 velocity=126 time=0@note_on channel=2 note=53 velocity=126 time=0@note_on channel=3 note=41 velocity=126 time=0@note_on channel=4 note=29 velocity=126 time=0@note_on channel=0 note=62 velocity=0 time=0.16527786041666667@note_on channel=1 note=62 velocity=0 time=0@note_on channel=0 note=65 velocity=126 time=0.0013888895833333334@note_on channel=1 note=65 velocity=126 time=0@note_on channel=0 note=65 velocity=0 time=0.16527786041666667@note_on channel=1 note=65 velocity=0 time=0@note_on channel=2 note=53 velocity=0 time=0@note_on channel=3 note=41 velocity=0 time=0@note_on channel=4 note=29 velocity=0 time=0@note_on channel=0 note=69 velocity=126 time=0.0013888895833333334@note_on channel=1 note=69 velocity=126 time=0@note_on channel=2 note=50 velocity=126 time=0@note_on channel=3 note=38 velocity=126 time=0@note_on channel=4 note=26 velocity=126 time=0@note_on channel=0 note=69 velocity=0 time=0.16527786041666667@note_on channel=1 note=69 velocity=0 time=0@note_on channel=0 note=74 velocity=126 time=0.0013888895833333334@note_on channel=1 note=74 velocity=126 time=0@note_on channel=0 note=74 velocity=0 time=0.16527786041666667@note_on channel=1 note=74 velocity=0 time=0@note_on channel=2 note=50 velocity=0 time=0@note_on channel=3 note=38 velocity=0 time=0@note_on channel=4 note=26 velocity=0 time=0@note_on channel=0 note=73 velocity=126 time=0.0013888895833333334@note_on channel=1 note=73 velocity=126 time=0@note_on channel=2 note=57 velocity=126 time=0@note_on channel=3 note=45 velocity=126 time=0@note_on channel=4 note=33 velocity=126 time=0@note_on channel=0 note=73 velocity=0 time=0.16527786041666667@note_on channel=1 note=73 velocity=0 time=0@note_on channel=0 note=74 velocity=80 time=0.0013888895833333334@note_on channel=0 note=74 velocity=0 time=0.16527786041666667@note_on channel=2 note=57 velocity=0 time=0@note_on channel=3 note=45 velocity=0 time=0@note_on channel=4 note=33 velocity=0 time=0@note_on channel=0 note=71 velocity=80 time=0.0013888895833333334@note_on channel=2 note=59 velocity=80 time=0@note_on channel=0 note=71 velocity=0 time=0.16527786041666667@note_on channel=0 note=73 velocity=80 time=0.0013888895833333334@note_on channel=0 note=73 velocity=0 time=0.16527786041666667@note_on channel=2 note=59 velocity=0 time=0@note_on channel=0 note=69 velocity=80 time=0.0013888895833333334@note_on channel=2 note=61 velocity=80 time=0@note_on channel=0 note=69 velocity=0 time=0.16527786041666667@note_on channel=0 note=73 velocity=80 time=0.0013888895833333334@note_on channel=0 note=73 velocity=0 time=0.16527786041666667@note_on channel=2 note=61 velocity=0 time=0@note_on channel=0 note=76 velocity=80 time=0.0013888895833333334@note_on channel=2 note=57 velocity=80 time=0@note_on channel=0 note=76 velocity=0 time=0.16527786041666667@note_on channel=0 note=79 velocity=80 time=0.0013888895833333334@note_on channel=0 note=79 velocity=0 time=0.16527786041666667@note_on channel=2 note=57 velocity=0 time=0@note_on channel=0 note=77 velocity=80 time=0.0013888895833333334@note_on channel=2 note=50 velocity=80 time=0@note_on channel=0 note=77 velocity=0 time=0.16527786041666667@note_on channel=0 note=79 velocity=80 time=0.0013888895833333334@note_on channel=0 note=79 velocity=0 time=0.16527786041666667@note_on channel=2 note=50 velocity=0 time=0@note_on channel=0 note=76 velocity=80 time=0.0013888895833333334@note_on channel=2 note=52 velocity=80 time=0@note_on channel=0 note=76 velocity=0 time=0.16527786041666667@note_on channel=0 note=77 velocity=80 time=0.0013888895833333334@note_on channel=0 note=77 velocity=0 time=0.16527786041666667@note_on channel=2 note=52 velocity=0 time=0@note_on channel=0 note=74 velocity=80 time=0.0013888895833333334@note_on channel=2 note=53 velocity=80 time=0@note_on channel=0 note=74 velocity=0 time=0.16527786041666667@note_on channel=0 note=77 velocity=80 time=0.0013888895833333334@note_on channel=0 note=77 velocity=0 time=0.16527786041666667@note_on channel=2 note=53 velocity=0 time=0@note_on channel=0 note=81 velocity=80 time=0.0013888895833333334@note_on channel=2 note=50 velocity=80 time=0@note_on channel=0 note=81 velocity=0 time=0.16527786041666667@note_on channel=0 note=84 velocity=80 time=0.0013888895833333334@note_on channel=0 note=84 velocity=0 time=0.16527786041666667@note_on channel=2 note=50 velocity=0 time=0@note_on channel=0 note=82 velocity=80 time=0.0013888895833333334@note_on channel=2 note=55 velocity=80 time=0@note_on channel=0 note=82 velocity=0 time=0.16527786041666667@note_on channel=0 note=84 velocity=80 time=0.0013888895833333334@note_on channel=0 note=84 velocity=0 time=0.16527786041666667@note_on channel=2 note=55 velocity=0 time=0@note_on channel=0 note=81 velocity=80 time=0.0013888895833333334@note_on channel=2 note=57 velocity=80 time=0@note_on channel=0 note=81 velocity=0 time=0.16527786041666667@note_on channel=0 note=82 velocity=80 time=0.0013888895833333334@note_on channel=0 note=82 velocity=0 time=0.16527786041666667@note_on channel=2 note=57 velocity=0 time=0@note_on channel=0 note=79 velocity=80 time=0.0013888895833333334@note_on channel=2 note=58 velocity=80 time=0@note_on channel=0 note=79 velocity=0 time=0.16527786041666667@note_on channel=0 note=81 velocity=80 time=0.0013888895833333334@note_on channel=0 note=81 velocity=0 time=0.16527786041666667@note_on channel=2 note=58 velocity=0 time=0@note_on channel=0 note=77 velocity=80 time=0.0013888895833333334@note_on channel=2 note=55 velocity=80 time=0@note_on channel=0 note=77 velocity=0 time=0.16527786041666667@note_on channel=0 note=79 velocity=80 time=0.0013888895833333334@note_on channel=0 note=79 velocity=0 time=0.16527786041666667@note_on channel=2 note=55 velocity=0 time=0@note_on channel=0 note=76 velocity=80 time=0.0013888895833333334@note_on channel=2 note=60 velocity=80 time=0@note_on channel=0 note=76 velocity=0 time=0.16527786041666667@note_on channel=0 note=77 velocity=80 time=0.0013888895833333334@note_on channel=0 note=77 velocity=0 time=0.16527786041666667@note_on channel=2 note=60 velocity=0 time=0@note_on channel=0 note=74 velocity=80 time=0.0013888895833333334@note_on channel=2 note=62 velocity=80 time=0@note_on channel=0 note=74 velocity=0 time=0.16527786041666667@note_on channel=0 note=76 velocity=80 time=0.0013888895833333334@note_on channel=0 note=76 velocity=0 time=0.16527786041666667@note_on channel=2 note=62 velocity=0 time=0@note_on channel=0 note=72 velocity=80 time=0.0013888895833333334@note_on channel=2 note=64 velocity=80 time=0@note_on channel=0 note=72 velocity=0 time=0.16527786041666667@note_on channel=0 note=76 velocity=80 time=0.0013888895833333334@note_on channel=0 note=76 velocity=0 time=0.16527786041666667@note_on channel=2 note=64 velocity=0 time=0@note_on channel=0 note=79 velocity=80 time=0.0013888895833333334@note_on channel=2 note=60 velocity=80 time=0@note_on channel=0 note=79 velocity=0 time=0.16527786041666667@note_on channel=0 note=82 velocity=80 time=0.0013888895833333334@note_on channel=0 note=82 velocity=0 time=0.16527786041666667@note_on channel=2 note=60 velocity=0 time=0@note_on channel=0 note=81 velocity=80 time=0.0013888895833333334@note_on channel=2 note=65 velocity=80 time=0@note_on channel=0 note=81 velocity=0 time=0.16527786041666667@note_on channel=0 note=82 velocity=80 time=0.0013888895833333334@note_on channel=0 note=82 velocity=0 time=0.16527786041666667@note_on channel=2 note=65 velocity=0 time=0@note_on channel=0 note=79 velocity=80 time=0.0013888895833333334@note_on channel=2 note=67 velocity=80 time=0@note_on channel=0 note=79 velocity=0 time=0.16527786041666667@note_on channel=0 note=81 velocity=80 time=0.0013888895833333334@note_on channel=0 note=81 velocity=0 time=0.16527786041666667@note_on channel=2 note=67 velocity=0 time=0@note_on channel=0 note=77 velocity=80 time=0.0013888895833333334@note_on channel=2 note=69 velocity=80 time=0@note_on channel=0 note=77 velocity=0 time=0.16527786041666667@note_on channel=0 note=79 velocity=80 time=0.0013888895833333334@note_on channel=0 note=79 velocity=0 time=0.16527786041666667@note_on channel=2 note=69 velocity=0 time=0@note_on channel=0 note=76 velocity=80 time=0.0013888895833333334@note_on channel=2 note=65 velocity=80 time=0@note_on channel=0 note=76 velocity=0 time=0.16527786041666667@note_on channel=0 note=77 velocity=80 time=0.0013888895833333334@note_on channel=0 note=77 velocity=0 time=0.16527786041666667@note_on channel=2 note=65 velocity=0 time=0@note_on channel=0 note=74 velocity=80 time=0.0013888895833333334@note_on channel=2 note=70 velocity=80 time=0@note_on channel=0 note=74 velocity=0 time=0.16527786041666667@note_on channel=2 note=70 velocity=0 time=0@note_on channel=0 note=76 velocity=80 time=0.0013888895833333334@note_on channel=2 note=72 velocity=80 time=0@note_on channel=0 note=76 velocity=0 time=0.16527786041666667@note_on channel=2 note=72 velocity=0 time=0@note_on channel=0 note=72 velocity=80 time=0.0013888895833333334@note_on channel=2 note=69 velocity=80 time=0@note_on channel=0 note=72 velocity=0 time=0.16527786041666667@note_on channel=2 note=69 velocity=0 time=0@note_on channel=0 note=74 velocity=80 time=0.0013888895833333334@note_on channel=2 note=70 velocity=80 time=0@note_on channel=0 note=74 velocity=0 time=0.16527786041666667@note_on channel=2 note=70 velocity=0 time=0@note_on channel=0 note=70 velocity=80 time=0.0013888895833333334@note_on channel=2 note=67 velocity=80 time=0@note_on channel=0 note=70 velocity=0 time=0.16527786041666667@note_on channel=2 note=67 velocity=0 time=0@note_on channel=0 note=74 velocity=80 time=0.0013888895833333334@note_on channel=2 note=69 velocity=80 time=0@note_on channel=0 note=74 velocity=0 time=0.16527786041666667@note_on channel=2 note=69 velocity=0 time=0@note_on channel=0 note=77 velocity=80 time=0.0013888895833333334@note_on channel=2 note=65 velocity=80 time=0@note_on channel=0 note=77 velocity=0 time=0.16527786041666667@note_on channel=2 note=65 velocity=0 time=0@note_on channel=0 note=81 velocity=80 time=0.0013888895833333334@note_on channel=2 note=67 velocity=80 time=0@note_on channel=0 note=81 velocity=0 time=0.16527786041666667@note_on channel=2 note=67 velocity=0 time=0@note_on channel=0 note=79 velocity=80 time=0.0013888895833333334@note_on channel=2 note=64 velocity=80 time=0@note_on channel=0 note=79 velocity=0 time=0.16527786041666667@note_on channel=2 note=64 velocity=0 time=0@note_on channel=0 note=81 velocity=80 time=0.0013888895833333334@note_on channel=2 note=65 velocity=80 time=0@note_on channel=0 note=81 velocity=0 time=0.16527786041666667@note_on channel=2 note=65 velocity=0 time=0@note_on channel=0 note=77 velocity=80 time=0.0013888895833333334@note_on channel=2 note=62 velocity=80 time=0@note_on channel=0 note=77 velocity=0 time=0.16527786041666667@note_on channel=2 note=62 velocity=0 time=0@note_on channel=0 note=79 velocity=80 time=0.0013888895833333334@note_on channel=2 note=64 velocity=80 time=0@note_on channel=0 note=79 velocity=0 time=0.16527786041666667@note_on channel=2 note=64 velocity=0 time=0@note_on channel=0 note=76 velocity=80 time=0.0013888895833333334@note_on channel=2 note=61 velocity=80 time=0@note_on channel=0 note=76 velocity=0 time=0.16527786041666667@note_on channel=2 note=61 velocity=0 time=0@note_on channel=0 note=77 velocity=80 time=0.0013888895833333334@note_on channel=2 note=62 velocity=80 time=0@note_on channel=0 note=77 velocity=0 time=0.16527786041666667@note_on channel=2 note=62 velocity=0 time=0@note_on channel=0 note=74 velocity=80 time=0.0013888895833333334@note_on channel=2 note=59 velocity=80 time=0@note_on channel=0 note=74 velocity=0 time=0.16527786041666667@note_on channel=2 note=59 velocity=0 time=0@note_on channel=0 note=76 velocity=80 time=0.0013888895833333334@note_on channel=2 note=61 velocity=80 time=0@note_on channel=0 note=76 velocity=0 time=0.16527786041666667@note_on channel=2 note=61 velocity=0 time=0@note_on channel=0 note=73 velocity=80 time=0.0013888895833333334@note_on channel=2 note=57 velocity=80 time=0@note_on channel=0 note=73 velocity=0 time=0.16527786041666667@note_on channel=2 note=57 velocity=0 time=0@note_on channel=0 note=74 velocity=80 time=0.0013888895833333334@note_on channel=2 note=58 velocity=80 time=0@note_on channel=0 note=74 velocity=0 time=0.16527786041666667@note_on channel=2 note=58 velocity=0 time=0@note_on channel=0 note=71 velocity=80 time=0.0013888895833333334@note_on channel=2 note=55 velocity=80 time=0@note_on channel=0 note=71 velocity=0 time=0.16527786041666667@note_on channel=2 note=55 velocity=0 time=0@note_on channel=0 note=73 velocity=80 time=0.0013888895833333334@note_on channel=2 note=57 velocity=80 time=0@note_on channel=0 note=73 velocity=0 time=0.16527786041666667@note_on channel=2 note=57 velocity=0 time=0@note_on channel=0 note=69 velocity=80 time=0.0013888895833333334@note_on channel=2 note=53 velocity=80 time=0@note_on channel=0 note=69 velocity=0 time=0.16527786041666667@note_on channel=2 note=53 velocity=0 time=0@note_on channel=0 note=73 velocity=80 time=0.0013888895833333334@note_on channel=2 note=55 velocity=80 time=0@note_on channel=0 note=73 velocity=0 time=0.16527786041666667@note_on channel=2 note=55 velocity=0 time=0@note_on channel=0 note=76 velocity=80 time=0.0013888895833333334@note_on channel=2 note=57 velocity=80 time=0@note_on channel=0 note=76 velocity=0 time=0.16527786041666667@note_on channel=0 note=79 velocity=80 time=0.0013888895833333334@note_on channel=0 note=79 velocity=0 time=0.16527786041666667@note_on channel=2 note=57 velocity=0 time=0@note_on channel=0 note=74 velocity=80 time=0.0013888895833333334@note_on channel=1 note=74 velocity=80 time=0@note_on channel=2 note=53 velocity=80 time=0@note_on channel=3 note=53 velocity=80 time=0@note_on channel=0 note=74 velocity=0 time=0.16527786041666667@note_on channel=1 note=74 velocity=0 time=0@note_on channel=2 note=53 velocity=0 time=0@note_on channel=3 note=53 velocity=0 time=0@note_on channel=1 note=77 velocity=80 time=0.0013888895833333334@note_on channel=3 note=55 velocity=80 time=0@note_on channel=1 note=77 velocity=0 time=0.16527786041666667@note_on channel=3 note=55 velocity=0 time=0@note_on channel=1 note=69 velocity=80 time=0.0013888895833333334@note_on channel=3 note=52 velocity=80 time=0@note_on channel=1 note=69 velocity=0 time=0.16527786041666667@note_on channel=3 note=52 velocity=0 time=0@note_on channel=1 note=74 velocity=80 time=0.0013888895833333334@note_on channel=3 note=53 velocity=80 time=0@note_on channel=1 note=74 velocity=0 time=0.16527786041666667@note_on channel=3 note=53 velocity=0 time=0@note_on channel=1 note=65 velocity=80 time=0.0013888895833333334@note_on channel=3 note=50 velocity=80 time=0@note_on channel=1 note=65 velocity=0 time=0.16527786041666667@note_on channel=1 note=69 velocity=80 time=0.0013888895833333334@note_on channel=1 note=69 velocity=0 time=0.16527786041666667@note_on channel=3 note=50 velocity=0 time=0@note_on channel=1 note=62 velocity=80 time=0.0013888895833333334@note_on channel=3 note=62 velocity=80 time=0@note_on channel=1 note=62 velocity=0 time=0.16527786041666667@note_on channel=1 note=74 velocity=80 time=0.0013888895833333334@note_on channel=1 note=74 velocity=0 time=0.16527786041666667@note_on channel=3 note=62 velocity=0 time=0@note_on channel=1 note=69 velocity=80 time=0.0013888895833333334@note_on channel=3 note=61 velocity=80 time=0@note_on channel=1 note=69 velocity=0 time=0.16527786041666667@note_on channel=3 note=61 velocity=0 time=0@note_on channel=1 note=73 velocity=80 time=0.0013888895833333334@note_on channel=3 note=62 velocity=80 time=0@note_on channel=1 note=73 velocity=0 time=0.16527786041666667@note_on channel=3 note=62 velocity=0 time=0@note_on channel=1 note=76 velocity=80 time=0.0013888895833333334@note_on channel=3 note=59 velocity=80 time=0@note_on channel=1 note=76 velocity=0 time=0.16527786041666667@note_on channel=3 note=59 velocity=0 time=0@note_on channel=1 note=79 velocity=80 time=0.0013888895833333334@note_on channel=3 note=61 velocity=80 time=0@note_on channel=1 note=79 velocity=0 time=0.16527786041666667@note_on channel=3 note=61 velocity=0 time=0@note_on channel=1 note=77 velocity=80 time=0.0013888895833333334@note_on channel=3 note=57 velocity=80 time=0@note_on channel=1 note=77 velocity=0 time=0.16527786041666667@note_on channel=1 note=81 velocity=80 time=0.0013888895833333334@note_on channel=1 note=81 velocity=0 time=0.16527786041666667@note_on channel=3 note=57 velocity=0 time=0@note_on channel=1 note=74 velocity=80 time=0.0013888895833333334@note_on channel=3 note=62 velocity=80 time=0@note_on channel=1 note=74 velocity=0 time=0.16527786041666667@note_on channel=3 note=62 velocity=0 time=0@note_on channel=1 note=77 velocity=80 time=0.0013888895833333334@note_on channel=3 note=57 velocity=80 time=0@note_on channel=1 note=77 velocity=0 time=0.16527786041666667@note_on channel=3 note=57 velocity=0 time=0@note_on channel=1 note=67 velocity=80 time=0.0013888895833333334@note_on channel=3 note=58 velocity=80 time=0@note_on channel=1 note=67 velocity=0 time=0.16527786041666667@note_on channel=1 note=70 velocity=80 time=0.0013888895833333334@note_on channel=1 note=70 velocity=0 time=0.16527786041666667@note_on channel=3 note=58 velocity=0 time=0@note_on channel=1 note=74 velocity=80 time=0.0013888895833333334@note_on channel=3 note=55 velocity=80 time=0@note_on channel=1 note=74 velocity=0 time=0.16527786041666667@note_on channel=1 note=77 velocity=80 time=0.0013888895833333334@note_on channel=1 note=77 velocity=0 time=0.16527786041666667@note_on channel=3 note=55 velocity=0 time=0@note_on channel=1 note=76 velocity=80 time=0.0013888895833333334@note_on channel=3 note=48 velocity=80 time=0@note_on channel=1 note=76 velocity=0 time=0.16527786041666667@note_on channel=1 note=79 velocity=80 time=0.0013888895833333334@note_on channel=1 note=79 velocity=0 time=0.16527786041666667@note_on channel=3 note=48 velocity=0 time=0@note_on channel=1 note=72 velocity=80 time=0.0013888895833333334@note_on channel=3 note=60 velocity=80 time=0@note_on channel=1 note=72 velocity=0 time=0.16527786041666667@note_on channel=1 note=76 velocity=80 time=0.0013888895833333334@note_on channel=1 note=76 velocity=0 time=0.16527786041666667@note_on channel=3 note=60 velocity=0 time=0@note_on channel=1 note=65 velocity=80 time=0.0013888895833333334@note_on channel=3 note=57 velocity=80 time=0@note_on channel=1 note=65 velocity=0 time=0.16527786041666667@note_on channel=3 note=57 velocity=0 time=0@note_on channel=1 note=69 velocity=80 time=0.0013888895833333334@note_on channel=3 note=58 velocity=80 time=0@note_on channel=1 note=69 velocity=0 time=0.16527786041666667@note_on channel=3 note=58 velocity=0 time=0@note_on channel=1 note=72 velocity=80 time=0.0013888895833333334@note_on channel=3 note=55 velocity=80 time=0@note_on channel=1 note=72 velocity=0 time=0.16527786041666667@note_on channel=3 note=55 velocity=0 time=0@note_on channel=1 note=76 velocity=80 time=0.0013888895833333334@note_on channel=3 note=57 velocity=80 time=0@note_on channel=1 note=76 velocity=0 time=0.16527786041666667@note_on channel=3 note=57 velocity=0 time=0@note_on channel=1 note=74 velocity=80 time=0.0013888895833333334@note_on channel=3 note=53 velocity=80 time=0@note_on channel=1 note=74 velocity=0 time=0.16527786041666667@note_on channel=1 note=77 velocity=80 time=0.0013888895833333334@note_on channel=1 note=77 velocity=0 time=0.16527786041666667@note_on channel=3 note=53 velocity=0 time=0@note_on channel=1 note=70 velocity=80 time=0.0013888895833333334@note_on channel=3 note=58 velocity=80 time=0@note_on channel=1 note=70 velocity=0 time=0.16527786041666667@note_on channel=3 note=58 velocity=0 time=0@note_on channel=1 note=74 velocity=80 time=0.0013888895833333334@note_on channel=3 note=53 velocity=80 time=0@note_on channel=1 note=74 velocity=0 time=0.16527786041666667@note_on channel=3 note=53 velocity=0 time=0@note_on channel=1 note=64 velocity=80 time=0.0013888895833333334@note_on channel=3 note=55 velocity=80 time=0@note_on channel=1 note=64 velocity=0 time=0.16527786041666667@note_on channel=1 note=67 velocity=80 time=0.0013888895833333334@note_on channel=1 note=67 velocity=0 time=0.16527786041666667@note_on channel=3 note=55 velocity=0 time=0@note_on channel=1 note=70 velocity=80 time=0.0013888895833333334@note_on channel=3 note=52 velocity=80 time=0@note_on channel=1 note=70 velocity=0 time=0.16527786041666667@note_on channel=1 note=74 velocity=80 time=0.0013888895833333334@note_on channel=1 note=74 velocity=0 time=0.16527786041666667@note_on channel=3 note=52 velocity=0 time=0@note_on channel=1 note=73 velocity=80 time=0.0013888895833333334@note_on channel=3 note=45 velocity=80 time=0@note_on channel=1 note=73 velocity=0 time=0.16527786041666667@note_on channel=1 note=76 velocity=80 time=0.0013888895833333334@note_on channel=1 note=76 velocity=0 time=0.16527786041666667@note_on channel=3 note=45 velocity=0 time=0@note_on channel=1 note=69 velocity=80 time=0.0013888895833333334@note_on channel=3 note=57 velocity=80 time=0@note_on channel=1 note=69 velocity=0 time=0.16527786041666667@note_on channel=1 note=73 velocity=80 time=0.0013888895833333334@note_on channel=1 note=73 velocity=0 time=0.16527786041666667@note_on channel=3 note=57 velocity=0 time=0@note_on channel=1 note=74 velocity=80 time=0.0013888895833333334@note_on channel=3 note=53 velocity=80 time=0@note_on channel=1 note=74 velocity=0 time=0.16527786041666667@note_on channel=3 note=53 velocity=0 time=0@note_on channel=1 note=77 velocity=80 time=0.0013888895833333334@note_on channel=3 note=55 velocity=80 time=0@note_on channel=1 note=77 velocity=0 time=0.16527786041666667@note_on channel=3 note=55 velocity=0 time=0@note_on channel=1 note=69 velocity=80 time=0.0013888895833333334@note_on channel=3 note=52 velocity=80 time=0@note_on channel=1 note=69 velocity=0 time=0.16527786041666667@note_on channel=3 note=52 velocity=0 time=0@note_on channel=1 note=74 velocity=80 time=0.0013888895833333334@note_on channel=3 note=53 velocity=80 time=0@note_on channel=1 note=74 velocity=0 time=0.16527786041666667@note_on channel=3 note=53 velocity=0 time=0@note_on channel=1 note=65 velocity=80 time=0.0013888895833333334@note_on channel=3 note=50 velocity=80 time=0@note_on channel=1 note=65 velocity=0 time=0.16527786041666667@note_on channel=1 note=69 velocity=80 time=0.0013888895833333334@note_on channel=1 note=69 velocity=0 time=0.16527786041666667@note_on channel=3 note=50 velocity=0 time=0@note_on channel=1 note=62 velocity=80 time=0.0013888895833333334@note_on channel=3 note=53 velocity=80 time=0@note_on channel=1 note=62 velocity=0 time=0.16527786041666667@note_on channel=1 note=69 velocity=80 time=0.0013888895833333334@note_on channel=1 note=69 velocity=0 time=0.16527786041666667@note_on channel=3 note=53 velocity=0 time=0@note_on channel=0 note=70 velocity=80 time=0.0013888895833333334@note_on channel=2 note=67 velocity=80 time=0@note_on channel=0 note=70 velocity=0 time=0.16527786041666667@note_on channel=2 note=67 velocity=0 time=0@note_on channel=0 note=72 velocity=80 time=0.0013888895833333334@note_on channel=2 note=70 velocity=80 time=0@note_on channel=0 note=72 velocity=0 time=0.16527786041666667@note_on channel=2 note=70 velocity=0 time=0@note_on channel=0 note=69 velocity=80 time=0.0013888895833333334@note_on channel=2 note=62 velocity=80 time=0@note_on channel=0 note=69 velocity=0 time=0.16527786041666667@note_on channel=2 note=62 velocity=0 time=0@note_on channel=0 note=70 velocity=80 time=0.0013888895833333334@note_on channel=2 note=67 velocity=80 time=0@note_on channel=0 note=70 velocity=0 time=0.16527786041666667@note_on channel=2 note=67 velocity=0 time=0@note_on channel=0 note=67 velocity=80 time=0.0013888895833333334@note_on channel=2 note=58 velocity=80 time=0@note_on channel=2 note=58 velocity=0 time=0.16527786041666667@note_on channel=2 note=62 velocity=80 time=0.0013888895833333334@note_on channel=0 note=67 velocity=0 time=0.16527786041666667@note_on channel=2 note=62 velocity=0 time=0@note_on channel=0 note=70 velocity=80 time=0.0013888895833333334@note_on channel=2 note=55 velocity=80 time=0@note_on channel=2 note=55 velocity=0 time=0.16527786041666667@note_on channel=2 note=62 velocity=80 time=0.0013888895833333334@note_on channel=0 note=70 velocity=0 time=0.16527786041666667@note_on channel=2 note=62 velocity=0 time=0@note_on channel=1 note=72 velocity=80 time=0.0013888895833333334@note_on channel=3 note=52 velocity=80 time=0@note_on channel=1 note=72 velocity=0 time=0.16527786041666667@note_on channel=3 note=52 velocity=0 time=0@note_on channel=1 note=76 velocity=91 time=0.0013888895833333334@note_on channel=3 note=53 velocity=91 time=0@note_on channel=1 note=76 velocity=0 time=0.16527786041666667@note_on channel=3 note=53 velocity=0 time=0@note_on channel=1 note=67 velocity=103 time=0.0013888895833333334@note_on channel=3 note=50 velocity=103 time=0@note_on channel=1 note=67 velocity=0 time=0.16527786041666667@note_on channel=3 note=50 velocity=0 time=0@note_on channel=1 note=72 velocity=114 time=0.0013888895833333334@note_on channel=3 note=52 velocity=114 time=0@note_on channel=1 note=72 velocity=0 time=0.16527786041666667@note_on channel=3 note=52 velocity=0 time=0@note_on channel=1 note=64 velocity=126 time=0.0013888895833333334@note_on channel=3 note=48 velocity=126 time=0@note_on channel=1 note=64 velocity=0 time=0.16527786041666667@note_on channel=1 note=67 velocity=126 time=0.0013888895833333334@note_on channel=1 note=67 velocity=0 time=0.16527786041666667@note_on channel=3 note=48 velocity=0 time=0@note_on channel=0 note=60 velocity=126 time=0.0013888895833333334@note_on channel=1 note=60 velocity=126 time=0@note_on channel=2 note=52 velocity=126 time=0@note_on channel=3 note=48 velocity=126 time=0@note_on channel=4 note=36 velocity=126 time=0@note_on channel=0 note=60 velocity=0 time=0.16527786041666667@note_on channel=1 note=60 velocity=0 time=0@note_on channel=0 note=67 velocity=126 time=0.0013888895833333334@note_on channel=1 note=67 velocity=126 time=0@note_on channel=0 note=67 velocity=0 time=0.16527786041666667@note_on channel=1 note=67 velocity=0 time=0@note_on channel=2 note=52 velocity=0 time=0@note_on channel=3 note=48 velocity=0 time=0@note_on channel=4 note=36 velocity=0 time=0@note_on channel=0 note=69 velocity=126 time=0.0013888895833333334@note_on channel=1 note=69 velocity=126 time=0@note_on channel=2 note=53 velocity=126 time=0@note_on channel=3 note=45 velocity=126 time=0@note_on channel=4 note=33 velocity=126 time=0@note_on channel=3 note=45 velocity=0 time=0.16527786041666667@note_on channel=4 note=33 velocity=0 time=0@note_on channel=3 note=46 velocity=126 time=0.0013888895833333334@note_on channel=4 note=34 velocity=126 time=0@note_on channel=0 note=69 velocity=0 time=0.16527786041666667@note_on channel=1 note=69 velocity=0 time=0@note_on channel=2 note=53 velocity=0 time=0@note_on channel=3 note=46 velocity=0 time=0@note_on channel=4 note=34 velocity=0 time=0@note_on channel=0 note=70 velocity=126 time=0.0013888895833333334@note_on channel=1 note=58 velocity=126 time=0@note_on channel=2 note=55 velocity=126 time=0@note_on channel=3 note=43 velocity=126 time=0@note_on channel=4 note=31 velocity=126 time=0@note_on channel=3 note=43 velocity=0 time=0.16527786041666667@note_on channel=4 note=31 velocity=0 time=0@note_on channel=3 note=45 velocity=126 time=0.0013888895833333334@note_on channel=4 note=33 velocity=126 time=0@note_on channel=0 note=70 velocity=0 time=0.16527786041666667@note_on channel=1 note=58 velocity=0 time=0@note_on channel=2 note=55 velocity=0 time=0@note_on channel=3 note=45 velocity=0 time=0@note_on channel=4 note=33 velocity=0 time=0@note_on channel=0 note=72 velocity=126 time=0.0013888895833333334@note_on channel=1 note=60 velocity=126 time=0@note_on channel=2 note=57 velocity=126 time=0@note_on channel=3 note=41 velocity=126 time=0@note_on channel=4 note=29 velocity=126 time=0@note_on channel=2 note=57 velocity=0 time=0.16527786041666667@note_on channel=2 note=58 velocity=126 time=0.0013888895833333334@note_on channel=0 note=72 velocity=0 time=0.16527786041666667@note_on channel=1 note=60 velocity=0 time=0@note_on channel=2 note=58 velocity=0 time=0@note_on channel=3 note=41 velocity=0 time=0@note_on channel=4 note=29 velocity=0 time=0@note_on channel=0 note=74 velocity=126 time=0.0013888895833333334@note_on channel=1 note=62 velocity=126 time=0@note_on channel=2 note=57 velocity=126 time=0@note_on channel=3 note=53 velocity=126 time=0@note_on channel=4 note=41 velocity=126 time=0@note_on channel=2 note=57 velocity=0 time=0.16527786041666667@note_on channel=2 note=58 velocity=126 time=0.0013888895833333334@note_on channel=0 note=74 velocity=0 time=0.16527786041666667@note_on channel=1 note=62 velocity=0 time=0@note_on channel=2 note=58 velocity=0 time=0@note_on channel=3 note=53 velocity=0 time=0@note_on channel=4 note=41 velocity=0 time=0@note_on channel=0 note=67 velocity=126 time=0.0013888895833333334@note_on channel=1 note=55 velocity=126 time=0@note_on channel=2 note=60 velocity=126 time=0@note_on channel=3 note=52 velocity=126 time=0@note_on channel=4 note=40 velocity=126 time=0@note_on channel=2 note=60 velocity=0 time=0.16527786041666667@note_on channel=3 note=52 velocity=0 time=0@note_on channel=4 note=40 velocity=0 time=0@note_on channel=2 note=62 velocity=126 time=0.0013888895833333334@note_on channel=3 note=53 velocity=126 time=0@note_on channel=4 note=41 velocity=126 time=0@note_on channel=0 note=67 velocity=0 time=0.16527786041666667@note_on channel=1 note=55 velocity=0 time=0@note_on channel=2 note=62 velocity=0 time=0@note_on channel=3 note=53 velocity=0 time=0@note_on channel=4 note=41 velocity=0 time=0@note_on channel=0 note=79 velocity=126 time=0.0013888895833333334@note_on channel=1 note=67 velocity=126 time=0@note_on channel=2 note=58 velocity=126 time=0@note_on channel=3 note=50 velocity=126 time=0@note_on channel=4 note=38 velocity=126 time=0@note_on channel=2 note=58 velocity=0 time=0.16527786041666667@note_on channel=3 note=50 velocity=0 time=0@note_on channel=4 note=38 velocity=0 time=0@note_on channel=2 note=60 velocity=126 time=0.0013888895833333334@note_on channel=3 note=52 velocity=126 time=0@note_on channel=4 note=40 velocity=126 time=0@note_on channel=2 note=60 velocity=0 time=0.16527786041666667@note_on channel=3 note=52 velocity=0 time=0@note_on channel=4 note=40 velocity=0 time=0@note_on channel=2 note=57 velocity=126 time=0.0013888895833333334@note_on channel=3 note=48 velocity=126 time=0@note_on channel=4 note=36 velocity=126 time=0@note_on channel=0 note=79 velocity=0 time=0.16527786041666667@note_on channel=1 note=67 velocity=0 time=0@note_on channel=0 note=76 velocity=126 time=0.0013888895833333334@note_on channel=1 note=64 velocity=126 time=0@note_on channel=0 note=76 velocity=0 time=0.16527786041666667@note_on channel=1 note=64 velocity=0 time=0@note_on channel=2 note=57 velocity=0 time=0@note_on channel=3 note=48 velocity=0 time=0@note_on channel=4 note=36 velocity=0 time=0@note_on channel=0 note=74 velocity=126 time=0.0013888895833333334@note_on channel=1 note=62 velocity=126 time=0@note_on channel=2 note=69 velocity=126 time=0@note_on channel=3 note=53 velocity=126 time=0@note_on channel=4 note=41 velocity=126 time=0@note_on channel=0 note=74 velocity=0 time=0.16527786041666667@note_on channel=1 note=62 velocity=0 time=0@note_on channel=3 note=53 velocity=0 time=0@note_on channel=4 note=41 velocity=0 time=0@note_on channel=0 note=72 velocity=126 time=0.0013888895833333334@note_on channel=1 note=60 velocity=126 time=0@note_on channel=3 note=48 velocity=126 time=0@note_on channel=4 note=36 velocity=126 time=0@note_on channel=0 note=72 velocity=0 time=0.16527786041666667@note_on channel=1 note=60 velocity=0 time=0@note_on channel=3 note=48 velocity=0 time=0@note_on channel=4 note=36 velocity=0 time=0@note_on channel=0 note=82 velocity=126 time=0.0013888895833333334@note_on channel=1 note=70 velocity=126 time=0@note_on channel=3 note=50 velocity=126 time=0@note_on channel=4 note=38 velocity=126 time=0@note_on channel=0 note=82 velocity=0 time=0.16527786041666667@note_on channel=1 note=70 velocity=0 time=0@note_on channel=0 note=72 velocity=126 time=0.0013888895833333334@note_on channel=1 note=60 velocity=126 time=0@note_on channel=0 note=72 velocity=0 time=0.16527786041666667@note_on channel=1 note=60 velocity=0 time=0@note_on channel=3 note=50 velocity=0 time=0@note_on channel=4 note=38 velocity=0 time=0@note_on channel=0 note=74 velocity=126 time=0.0013888895833333334@note_on channel=1 note=62 velocity=126 time=0@note_on channel=3 note=46 velocity=126 time=0@note_on channel=4 note=34 velocity=126 time=0@note_on channel=2 note=69 velocity=0 time=0.3319446104166667@note_on channel=3 note=46 velocity=0 time=0@note_on channel=4 note=34 velocity=0 time=0@note_on channel=2 note=67 velocity=126 time=0.0013888895833333334@note_on channel=3 note=40 velocity=126 time=0@note_on channel=4 note=28 velocity=126 time=0@note_on channel=0 note=74 velocity=0 time=0.16527786041666667@note_on channel=1 note=62 velocity=0 time=0@note_on channel=0 note=74 velocity=126 time=0.0013888895833333334@note_on channel=1 note=62 velocity=126 time=0@note_on channel=0 note=74 velocity=0 time=0.16527786041666667@note_on channel=1 note=62 velocity=0 time=0@note_on channel=3 note=40 velocity=0 time=0@note_on channel=4 note=28 velocity=0 time=0@note_on channel=0 note=72 velocity=126 time=0.0013888895833333334@note_on channel=1 note=60 velocity=126 time=0@note_on channel=3 note=52 velocity=126 time=0@note_on channel=4 note=40 velocity=126 time=0@note_on channel=0 note=72 velocity=0 time=0.16527786041666667@note_on channel=1 note=60 velocity=0 time=0@note_on channel=0 note=70 velocity=126 time=0.0013888895833333334@note_on channel=1 note=58 velocity=126 time=0@note_on channel=0 note=70 velocity=0 time=0.16527786041666667@note_on channel=1 note=58 velocity=0 time=0@note_on channel=3 note=52 velocity=0 time=0@note_on channel=4 note=40 velocity=0 time=0@note_on channel=0 note=81 velocity=126 time=0.0013888895833333334@note_on channel=1 note=69 velocity=126 time=0@note_on channel=3 note=48 velocity=126 time=0@note_on channel=4 note=36 velocity=126 time=0@note_on channel=0 note=81 velocity=0 time=0.16527786041666667@note_on channel=1 note=69 velocity=0 time=0@note_on channel=3 note=48 velocity=0 time=0@note_on channel=4 note=36 velocity=0 time=0@note_on channel=0 note=70 velocity=126 time=0.0013888895833333334@note_on channel=1 note=58 velocity=126 time=0@note_on channel=3 note=50 velocity=126 time=0@note_on channel=4 note=38 velocity=126 time=0@note_on channel=0 note=70 velocity=0 time=0.16527786041666667@note_on channel=1 note=58 velocity=0 time=0@note_on channel=3 note=50 velocity=0 time=0@note_on channel=4 note=38 velocity=0 time=0@note_on channel=0 note=72 velocity=126 time=0.0013888895833333334@note_on channel=1 note=60 velocity=126 time=0@note_on channel=3 note=46 velocity=126 time=0@note_on channel=4 note=34 velocity=126 time=0@note_on channel=3 note=46 velocity=0 time=0.16527786041666667@note_on channel=4 note=34 velocity=0 time=0@note_on channel=3 note=48 velocity=126 time=0.0013888895833333334@note_on channel=4 note=36 velocity=126 time=0@note_on channel=2 note=67 velocity=0 time=0.16527786041666667@note_on channel=3 note=48 velocity=0 time=0@note_on channel=4 note=36 velocity=0 time=0@note_on channel=2 note=65 velocity=126 time=0.0013888895833333334@note_on channel=3 note=45 velocity=126 time=0@note_on channel=4 note=33 velocity=126 time=0@note_on channel=0 note=72 velocity=0 time=0.16527786041666667@note_on channel=1 note=60 velocity=0 time=0@note_on channel=0 note=72 velocity=126 time=0.0013888895833333334@note_on channel=1 note=60 velocity=126 time=0@note_on channel=0 note=72 velocity=0 time=0.16527786041666667@note_on channel=1 note=60 velocity=0 time=0@note_on channel=3 note=45 velocity=0 time=0@note_on channel=4 note=33 velocity=0 time=0@note_on channel=0 note=70 velocity=126 time=0.0013888895833333334@note_on channel=1 note=58 velocity=126 time=0@note_on channel=3 note=50 velocity=126 time=0@note_on channel=4 note=38 velocity=126 time=0@note_on channel=0 note=70 velocity=0 time=0.16527786041666667@note_on channel=1 note=58 velocity=0 time=0@note_on channel=3 note=50 velocity=0 time=0@note_on channel=4 note=38 velocity=0 time=0@note_on channel=0 note=69 velocity=126 time=0.0013888895833333334@note_on channel=1 note=57 velocity=126 time=0@note_on channel=3 note=45 velocity=126 time=0@note_on channel=4 note=33 velocity=126 time=0@note_on channel=0 note=69 velocity=0 time=0.16527786041666667@note_on channel=1 note=57 velocity=0 time=0@note_on channel=3 note=45 velocity=0 time=0@note_on channel=4 note=33 velocity=0 time=0@note_on channel=0 note=79 velocity=126 time=0.0013888895833333334@note_on channel=1 note=67 velocity=126 time=0@note_on channel=3 note=46 velocity=126 time=0@note_on channel=4 note=34 velocity=126 time=0@note_on channel=0 note=79 velocity=0 time=0.16527786041666667@note_on channel=1 note=67 velocity=0 time=0@note_on channel=0 note=69 velocity=126 time=0.0013888895833333334@note_on channel=1 note=57 velocity=126 time=0@note_on channel=0 note=69 velocity=0 time=0.16527786041666667@note_on channel=1 note=57 velocity=0 time=0@note_on channel=3 note=46 velocity=0 time=0@note_on channel=4 note=34 velocity=0 time=0@note_on channel=0 note=70 velocity=126 time=0.0013888895833333334@note_on channel=1 note=58 velocity=126 time=0@note_on channel=3 note=43 velocity=126 time=0@note_on channel=4 note=31 velocity=126 time=0@note_on channel=2 note=65 velocity=0 time=0.3319446104166667@note_on channel=3 note=43 velocity=0 time=0@note_on channel=4 note=31 velocity=0 time=0@note_on channel=2 note=64 velocity=126 time=0.0013888895833333334@note_on channel=3 note=36 velocity=126 time=0@note_on channel=4 note=24 velocity=126 time=0@note_on channel=0 note=70 velocity=0 time=0.16527786041666667@note_on channel=1 note=58 velocity=0 time=0@note_on channel=0 note=70 velocity=126 time=0.0013888895833333334@note_on channel=1 note=58 velocity=126 time=0@note_on channel=0 note=70 velocity=0 time=0.16527786041666667@note_on channel=1 note=58 velocity=0 time=0@note_on channel=3 note=36 velocity=0 time=0@note_on channel=4 note=24 velocity=0 time=0@note_on channel=0 note=69 velocity=126 time=0.0013888895833333334@note_on channel=1 note=57 velocity=126 time=0@note_on channel=3 note=48 velocity=126 time=0@note_on channel=4 note=36 velocity=126 time=0@note_on channel=0 note=69 velocity=0 time=0.16527786041666667@note_on channel=1 note=57 velocity=0 time=0@note_on channel=0 note=67 velocity=126 time=0.0013888895833333334@note_on channel=1 note=55 velocity=126 time=0@note_on channel=0 note=67 velocity=0 time=0.16527786041666667@note_on channel=1 note=55 velocity=0 time=0@note_on channel=2 note=64 velocity=0 time=0@note_on channel=3 note=48 velocity=0 time=0@note_on channel=4 note=36 velocity=0 time=0@note_on channel=0 note=65 velocity=126 time=0.0013888895833333334@note_on channel=1 note=53 velocity=126 time=0@note_on channel=4 note=33 velocity=126 time=0@note_on channel=4 note=33 velocity=0 time=0.16527786041666667@note_on channel=4 note=34 velocity=126 time=0.0013888895833333334@note_on channel=4 note=34 velocity=0 time=0.16527786041666667@note_on channel=2 note=60 velocity=126 time=0.0013888895833333334@note_on channel=3 note=48 velocity=126 time=0@note_on channel=4 note=31 velocity=126 time=0@note_on channel=4 note=31 velocity=0 time=0.16527786041666667@note_on channel=4 note=33 velocity=126 time=0.0013888895833333334@note_on channel=0 note=65 velocity=0 time=0.16527786041666667@note_on channel=1 note=53 velocity=0 time=0@note_on channel=2 note=60 velocity=0 time=0@note_on channel=3 note=48 velocity=0 time=0@note_on channel=4 note=33 velocity=0 time=0@note_on channel=2 note=65 velocity=126 time=0.0013888895833333334@note_on channel=3 note=53 velocity=126 time=0@note_on channel=4 note=29 velocity=126 time=0@note_on channel=4 note=29 velocity=0 time=0.16527786041666667@note_on channel=4 note=33 velocity=126 time=0.0013888895833333334@note_on channel=2 note=65 velocity=0 time=0.16527786041666667@note_on channel=3 note=53 velocity=0 time=0@note_on channel=4 note=33 velocity=0 time=0@note_on channel=2 note=64 velocity=126 time=0.0013888895833333334@note_on channel=3 note=52 velocity=126 time=0@note_on channel=4 note=31 velocity=126 time=0@note_on channel=4 note=31 velocity=0 time=0.16527786041666667@note_on channel=4 note=34 velocity=126 time=0.0013888895833333334@note_on channel=2 note=64 velocity=0 time=0.16527786041666667@note_on channel=3 note=52 velocity=0 time=0@note_on channel=4 note=34 velocity=0 time=0@note_on channel=2 note=65 velocity=126 time=0.0013888895833333334@note_on channel=3 note=53 velocity=126 time=0@note_on channel=4 note=33 velocity=126 time=0@note_on channel=4 note=33 velocity=0 time=0.16527786041666667@note_on channel=4 note=34 velocity=126 time=0.0013888895833333334@note_on channel=4 note=34 velocity=0 time=0.16527786041666667@note_on channel=0 note=72 velocity=126 time=0.0013888895833333334@note_on channel=1 note=60 velocity=126 time=0@note_on channel=4 note=31 velocity=126 time=0@note_on channel=4 note=31 velocity=0 time=0.16527786041666667@note_on channel=4 note=33 velocity=126 time=0.0013888895833333334@note_on channel=0 note=72 velocity=0 time=0.16527786041666667@note_on channel=1 note=60 velocity=0 time=0@note_on channel=2 note=65 velocity=0 time=0@note_on channel=3 note=53 velocity=0 time=0@note_on channel=4 note=33 velocity=0 time=0@note_on channel=0 note=77 velocity=126 time=0.0013888895833333334@note_on channel=1 note=65 velocity=126 time=0@note_on channel=4 note=29 velocity=126 time=0@note_on channel=4 note=29 velocity=0 time=0.16527786041666667@note_on channel=4 note=33 velocity=126 time=0.0013888895833333334@note_on channel=0 note=77 velocity=0 time=0.16527786041666667@note_on channel=1 note=65 velocity=0 time=0@note_on channel=4 note=33 velocity=0 time=0@note_on channel=0 note=76 velocity=126 time=0.0013888895833333334@note_on channel=1 note=64 velocity=126 time=0@note_on channel=2 note=58 velocity=126 time=0@note_on channel=3 note=46 velocity=126 time=0@note_on channel=4 note=31 velocity=126 time=0@note_on channel=4 note=31 velocity=0 time=0.16527786041666667@note_on channel=4 note=34 velocity=126 time=0.0013888895833333334@note_on channel=0 note=76 velocity=0 time=0.16527786041666667@note_on channel=1 note=64 velocity=0 time=0@note_on channel=2 note=58 velocity=0 time=0@note_on channel=3 note=46 velocity=0 time=0@note_on channel=4 note=34 velocity=0 time=0@note_on channel=0 note=77 velocity=126 time=0.0013888895833333334@note_on channel=1 note=65 velocity=126 time=0@note_on channel=2 note=60 velocity=126 time=0@note_on channel=3 note=48 velocity=126 time=0@note_on channel=4 note=33 velocity=126 time=0@note_on channel=0 note=77 velocity=0 time=0.16527786041666667@note_on channel=1 note=65 velocity=0 time=0@note_on channel=4 note=33 velocity=0 time=0@note_on channel=0 note=75 velocity=126 time=0.0013888895833333334@note_on channel=1 note=63 velocity=126 time=0@note_on channel=4 note=36 velocity=126 time=0@note_on channel=0 note=75 velocity=0 time=0.16527786041666667@note_on channel=1 note=63 velocity=0 time=0@note_on channel=2 note=60 velocity=0 time=0@note_on channel=3 note=48 velocity=0 time=0@note_on channel=4 note=36 velocity=0 time=0@note_on channel=0 note=74 velocity=126 time=0.0013888895833333334@note_on channel=1 note=62 velocity=126 time=0@note_on channel=2 note=55 velocity=126 time=0@note_on channel=3 note=43 velocity=126 time=0@note_on channel=4 note=35 velocity=126 time=0@note_on channel=0 note=74 velocity=0 time=0.16527786041666667@note_on channel=1 note=62 velocity=0 time=0@note_on channel=2 note=55 velocity=0 time=0@note_on channel=3 note=43 velocity=0 time=0@note_on channel=4 note=35 velocity=0 time=0@note_on channel=0 note=77 velocity=126 time=0.0013888895833333334@note_on channel=1 note=65 velocity=126 time=0@note_on channel=2 note=67 velocity=126 time=0@note_on channel=3 note=55 velocity=126 time=0@note_on channel=4 note=38 velocity=126 time=0@note_on channel=0 note=77 velocity=0 time=0.16527786041666667@note_on channel=1 note=65 velocity=0 time=0@note_on channel=2 note=67 velocity=0 time=0@note_on channel=3 note=55 velocity=0 time=0@note_on channel=4 note=38 velocity=0 time=0@note_on channel=0 note=75 velocity=126 time=0.0013888895833333334@note_on channel=1 note=63 velocity=126 time=0@note_on channel=2 note=55 velocity=126 time=0@note_on channel=3 note=43 velocity=126 time=0@note_on channel=4 note=36 velocity=126 time=0@note_on channel=0 note=75 velocity=0 time=0.16527786041666667@note_on channel=1 note=63 velocity=0 time=0@note_on channel=2 note=55 velocity=0 time=0@note_on channel=3 note=43 velocity=0 time=0@note_on channel=4 note=36 velocity=0 time=0@note_on channel=0 note=72 velocity=126 time=0.0013888895833333334@note_on channel=1 note=60 velocity=126 time=0@note_on channel=2 note=67 velocity=126 time=0@note_on channel=3 note=55 velocity=126 time=0@note_on channel=4 note=39 velocity=126 time=0@note_on channel=0 note=72 velocity=0 time=0.16527786041666667@note_on channel=1 note=60 velocity=0 time=0@note_on channel=2 note=67 velocity=0 time=0@note_on channel=3 note=55 velocity=0 time=0@note_on channel=4 note=39 velocity=0 time=0@note_on channel=0 note=71 velocity=126 time=0.0013888895833333334@note_on channel=1 note=59 velocity=126 time=0@note_on channel=2 note=55 velocity=126 time=0@note_on channel=3 note=43 velocity=126 time=0@note_on channel=4 note=38 velocity=126 time=0@note_on channel=0 note=71 velocity=0 time=0.16527786041666667@note_on channel=1 note=59 velocity=0 time=0@note_on channel=2 note=55 velocity=0 time=0@note_on channel=3 note=43 velocity=0 time=0@note_on channel=4 note=38 velocity=0 time=0@note_on channel=0 note=74 velocity=126 time=0.0013888895833333334@note_on channel=1 note=62 velocity=126 time=0@note_on channel=2 note=67 velocity=126 time=0@note_on channel=3 note=55 velocity=126 time=0@note_on channel=4 note=41 velocity=126 time=0@note_on channel=0 note=74 velocity=0 time=0.16527786041666667@note_on channel=1 note=62 velocity=0 time=0@note_on channel=2 note=67 velocity=0 time=0@note_on channel=3 note=55 velocity=0 time=0@note_on channel=4 note=41 velocity=0 time=0@note_on channel=0 note=72 velocity=126 time=0.0013888895833333334@note_on channel=1 note=60 velocity=126 time=0@note_on channel=2 note=55 velocity=126 time=0@note_on channel=3 note=43 velocity=126 time=0@note_on channel=4 note=39 velocity=126 time=0@note_on channel=4 note=39 velocity=0 time=0.16527786041666667@note_on channel=4 note=41 velocity=126 time=0.0013888895833333334@note_on channel=0 note=72 velocity=0 time=0.16527786041666667@note_on channel=1 note=60 velocity=0 time=0@note_on channel=2 note=55 velocity=0 time=0@note_on channel=3 note=43 velocity=0 time=0@note_on channel=4 note=41 velocity=0 time=0@note_on channel=2 note=67 velocity=126 time=0.0013888895833333334@note_on channel=3 note=55 velocity=126 time=0@note_on channel=4 note=38 velocity=126 time=0@note_on channel=4 note=38 velocity=0 time=0.16527786041666667@note_on channel=4 note=39 velocity=126 time=0.0013888895833333334@note_on channel=2 note=67 velocity=0 time=0.16527786041666667@note_on channel=3 note=55 velocity=0 time=0@note_on channel=4 note=39 velocity=0 time=0@note_on channel=2 note=72 velocity=126 time=0.0013888895833333334@note_on channel=3 note=60 velocity=126 time=0@note_on channel=4 note=36 velocity=126 time=0@note_on channel=4 note=36 velocity=0 time=0.16527786041666667@note_on channel=4 note=39 velocity=126 time=0.0013888895833333334@note_on channel=2 note=72 velocity=0 time=0.16527786041666667@note_on channel=3 note=60 velocity=0 time=0@note_on channel=4 note=39 velocity=0 time=0@note_on channel=2 note=71 velocity=126 time=0.0013888895833333334@note_on channel=3 note=59 velocity=126 time=0@note_on channel=4 note=38 velocity=126 time=0@note_on channel=4 note=38 velocity=0 time=0.16527786041666667@note_on channel=4 note=41 velocity=126 time=0.0013888895833333334@note_on channel=2 note=71 velocity=0 time=0.16527786041666667@note_on channel=3 note=59 velocity=0 time=0@note_on channel=4 note=41 velocity=0 time=0@note_on channel=2 note=72 velocity=126 time=0.0013888895833333334@note_on channel=3 note=60 velocity=126 time=0@note_on channel=4 note=39 velocity=126 time=0@note_on channel=4 note=39 velocity=0 time=0.16527786041666667@note_on channel=4 note=41 velocity=126 time=0.0013888895833333334@note_on channel=4 note=41 velocity=0 time=0.16527786041666667@note_on channel=0 note=79 velocity=126 time=0.0013888895833333334@note_on channel=1 note=67 velocity=126 time=0@note_on channel=4 note=38 velocity=126 time=0@note_on channel=4 note=38 velocity=0 time=0.16527786041666667@note_on channel=4 note=39 velocity=126 time=0.0013888895833333334@note_on channel=0 note=79 velocity=0 time=0.16527786041666667@note_on channel=1 note=67 velocity=0 time=0@note_on channel=2 note=72 velocity=0 time=0@note_on channel=3 note=60 velocity=0 time=0@note_on channel=4 note=39 velocity=0 time=0@note_on channel=0 note=84 velocity=126 time=0.0013888895833333334@note_on channel=1 note=72 velocity=126 time=0@note_on channel=4 note=36 velocity=126 time=0@note_on channel=4 note=36 velocity=0 time=0.16527786041666667@note_on channel=4 note=39 velocity=126 time=0.0013888895833333334@note_on channel=0 note=84 velocity=0 time=0.16527786041666667@note_on channel=1 note=72 velocity=0 time=0@note_on channel=4 note=39 velocity=0 time=0@note_on channel=0 note=83 velocity=126 time=0.0013888895833333334@note_on channel=1 note=71 velocity=126 time=0@note_on channel=2 note=65 velocity=126 time=0@note_on channel=3 note=53 velocity=126 time=0@note_on channel=4 note=38 velocity=126 time=0@note_on channel=4 note=38 velocity=0 time=0.16527786041666667@note_on channel=4 note=41 velocity=126 time=0.0013888895833333334@note_on channel=0 note=83 velocity=0 time=0.16527786041666667@note_on channel=1 note=71 velocity=0 time=0@note_on channel=2 note=65 velocity=0 time=0@note_on channel=3 note=53 velocity=0 time=0@note_on channel=4 note=41 velocity=0 time=0@note_on channel=0 note=84 velocity=126 time=0.0013888895833333334@note_on channel=1 note=72 velocity=126 time=0@note_on channel=2 note=67 velocity=126 time=0@note_on channel=3 note=55 velocity=126 time=0@note_on channel=4 note=40 velocity=126 time=0@note_on channel=0 note=84 velocity=0 time=0.16527786041666667@note_on channel=1 note=72 velocity=0 time=0@note_on channel=4 note=40 velocity=0 time=0@note_on channel=0 note=82 velocity=126 time=0.0013888895833333334@note_on channel=1 note=70 velocity=126 time=0@note_on channel=4 note=43 velocity=126 time=0@note_on channel=0 note=82 velocity=0 time=0.16527786041666667@note_on channel=1 note=70 velocity=0 time=0@note_on channel=2 note=67 velocity=0 time=0@note_on channel=3 note=55 velocity=0 time=0@note_on channel=4 note=43 velocity=0 time=0@note_on channel=0 note=81 velocity=126 time=0.0013888895833333334@note_on channel=1 note=69 velocity=126 time=0@note_on channel=2 note=62 velocity=126 time=0@note_on channel=3 note=50 velocity=126 time=0@note_on channel=4 note=42 velocity=126 time=0@note_on channel=0 note=81 velocity=0 time=0.16527786041666667@note_on channel=1 note=69 velocity=0 time=0@note_on channel=2 note=62 velocity=0 time=0@note_on channel=3 note=50 velocity=0 time=0@note_on channel=4 note=42 velocity=0 time=0@note_on channel=0 note=84 velocity=126 time=0.0013888895833333334@note_on channel=1 note=72 velocity=126 time=0@note_on channel=2 note=74 velocity=126 time=0@note_on channel=3 note=62 velocity=126 time=0@note_on channel=4 note=45 velocity=126 time=0@note_on channel=0 note=84 velocity=0 time=0.16527786041666667@note_on channel=1 note=72 velocity=0 time=0@note_on channel=2 note=74 velocity=0 time=0@note_on channel=3 note=62 velocity=0 time=0@note_on channel=4 note=45 velocity=0 time=0@note_on channel=0 note=82 velocity=126 time=0.0013888895833333334@note_on channel=1 note=70 velocity=126 time=0@note_on channel=2 note=62 velocity=126 time=0@note_on channel=3 note=50 velocity=126 time=0@note_on channel=4 note=43 velocity=126 time=0@note_on channel=0 note=82 velocity=0 time=0.16527786041666667@note_on channel=1 note=70 velocity=0 time=0@note_on channel=2 note=62 velocity=0 time=0@note_on channel=3 note=50 velocity=0 time=0@note_on channel=4 note=43 velocity=0 time=0@note_on channel=0 note=79 velocity=126 time=0.0013888895833333334@note_on channel=1 note=67 velocity=126 time=0@note_on channel=2 note=74 velocity=126 time=0@note_on channel=3 note=62 velocity=126 time=0@note_on channel=4 note=46 velocity=126 time=0@note_on channel=0 note=79 velocity=0 time=0.16527786041666667@note_on channel=1 note=67 velocity=0 time=0@note_on channel=2 note=74 velocity=0 time=0@note_on channel=3 note=62 velocity=0 time=0@note_on channel=4 note=46 velocity=0 time=0@note_on channel=0 note=78 velocity=126 time=0.0013888895833333334@note_on channel=1 note=66 velocity=126 time=0@note_on channel=2 note=62 velocity=126 time=0@note_on channel=3 note=50 velocity=126 time=0@note_on channel=4 note=45 velocity=126 time=0@note_on channel=0 note=78 velocity=0 time=0.16527786041666667@note_on channel=1 note=66 velocity=0 time=0@note_on channel=2 note=62 velocity=0 time=0@note_on channel=3 note=50 velocity=0 time=0@note_on channel=4 note=45 velocity=0 time=0@note_on channel=0 note=81 velocity=126 time=0.0013888895833333334@note_on channel=1 note=69 velocity=126 time=0@note_on channel=2 note=74 velocity=126 time=0@note_on channel=3 note=62 velocity=126 time=0@note_on channel=4 note=48 velocity=126 time=0@note_on channel=0 note=81 velocity=0 time=0.16527786041666667@note_on channel=1 note=69 velocity=0 time=0@note_on channel=2 note=74 velocity=0 time=0@note_on channel=3 note=62 velocity=0 time=0@note_on channel=4 note=48 velocity=0 time=0@note_on channel=0 note=79 velocity=126 time=0.0013888895833333334@note_on channel=1 note=67 velocity=126 time=0@note_on channel=2 note=62 velocity=126 time=0@note_on channel=3 note=50 velocity=126 time=0@note_on channel=4 note=46 velocity=126 time=0@note_on channel=4 note=46 velocity=0 time=0.16527786041666667@note_on channel=4 note=48 velocity=126 time=0.0013888895833333334@note_on channel=0 note=79 velocity=0 time=0.16527786041666667@note_on channel=1 note=67 velocity=0 time=0@note_on channel=2 note=62 velocity=0 time=0@note_on channel=3 note=50 velocity=0 time=0@note_on channel=4 note=48 velocity=0 time=0@note_on channel=0 note=74 velocity=126 time=0.0013888895833333334@note_on channel=1 note=62 velocity=126 time=0@note_on channel=2 note=66 velocity=126 time=0@note_on channel=3 note=54 velocity=126 time=0@note_on channel=4 note=45 velocity=126 time=0@note_on channel=4 note=45 velocity=0 time=0.16527786041666667@note_on channel=4 note=46 velocity=126 time=0.0013888895833333334@note_on channel=0 note=74 velocity=0 time=0.16527786041666667@note_on channel=1 note=62 velocity=0 time=0@note_on channel=2 note=66 velocity=0 time=0@note_on channel=3 note=54 velocity=0 time=0@note_on channel=4 note=46 velocity=0 time=0@note_on channel=0 note=79 velocity=126 time=0.0013888895833333334@note_on channel=1 note=67 velocity=126 time=0@note_on channel=2 note=70 velocity=126 time=0@note_on channel=3 note=58 velocity=126 time=0@note_on channel=4 note=43 velocity=126 time=0@note_on channel=4 note=43 velocity=0 time=0.16527786041666667@note_on channel=4 note=46 velocity=126 time=0.0013888895833333334@note_on channel=0 note=79 velocity=0 time=0.16527786041666667@note_on channel=1 note=67 velocity=0 time=0@note_on channel=2 note=70 velocity=0 time=0@note_on channel=3 note=58 velocity=0 time=0@note_on channel=4 note=46 velocity=0 time=0@note_on channel=0 note=78 velocity=126 time=0.0013888895833333334@note_on channel=1 note=66 velocity=126 time=0@note_on channel=2 note=72 velocity=126 time=0@note_on channel=3 note=60 velocity=126 time=0@note_on channel=4 note=45 velocity=126 time=0@note_on channel=4 note=45 velocity=0 time=0.16527786041666667@note_on channel=4 note=48 velocity=126 time=0.0013888895833333334@note_on channel=0 note=78 velocity=0 time=0.16527786041666667@note_on channel=1 note=66 velocity=0 time=0@note_on channel=2 note=72 velocity=0 time=0@note_on channel=3 note=60 velocity=0 time=0@note_on channel=4 note=48 velocity=0 time=0@note_on channel=0 note=79 velocity=126 time=0.0013888895833333334@note_on channel=1 note=67 velocity=126 time=0@note_on channel=2 note=74 velocity=126 time=0@note_on channel=3 note=62 velocity=126 time=0@note_on channel=4 note=46 velocity=126 time=0@note_on channel=4 note=46 velocity=0 time=0.16527786041666667@note_on channel=4 note=48 velocity=126 time=0.0013888895833333334@note_on channel=0 note=79 velocity=0 time=0.16527786041666667@note_on channel=1 note=67 velocity=0 time=0@note_on channel=2 note=74 velocity=0 time=0@note_on channel=3 note=62 velocity=0 time=0@note_on channel=4 note=48 velocity=0 time=0@note_on channel=0 note=78 velocity=126 time=0.0013888895833333334@note_on channel=1 note=66 velocity=126 time=0@note_on channel=2 note=72 velocity=126 time=0@note_on channel=3 note=60 velocity=126 time=0@note_on channel=4 note=45 velocity=126 time=0@note_on channel=0 note=78 velocity=0 time=0.16527786041666667@note_on channel=1 note=66 velocity=0 time=0@note_on channel=2 note=72 velocity=0 time=0@note_on channel=3 note=60 velocity=0 time=0@note_on channel=4 note=45 velocity=0 time=0@note_on channel=0 note=81 velocity=126 time=0.0013888895833333334@note_on channel=1 note=69 velocity=126 time=0@note_on channel=2 note=75 velocity=126 time=0@note_on channel=3 note=63 velocity=126 time=0@note_on channel=4 note=48 velocity=126 time=0@note_on channel=0 note=81 velocity=0 time=0.16527786041666667@note_on channel=1 note=69 velocity=0 time=0@note_on channel=2 note=75 velocity=0 time=0@note_on channel=3 note=63 velocity=0 time=0@note_on channel=4 note=48 velocity=0 time=0@note_on channel=0 note=79 velocity=126 time=0.0013888895833333334@note_on channel=1 note=67 velocity=126 time=0@note_on channel=2 note=74 velocity=126 time=0@note_on channel=3 note=62 velocity=126 time=0@note_on channel=4 note=46 velocity=126 time=0@note_on channel=0 note=79 velocity=0 time=0.16527786041666667@note_on channel=1 note=67 velocity=0 time=0@note_on channel=2 note=74 velocity=0 time=0@note_on channel=3 note=62 velocity=0 time=0@note_on channel=4 note=46 velocity=0 time=0@note_on channel=0 note=81 velocity=126 time=0.0013888895833333334@note_on channel=1 note=69 velocity=126 time=0@note_on channel=2 note=75 velocity=126 time=0@note_on channel=3 note=63 velocity=126 time=0@note_on channel=4 note=48 velocity=126 time=0@note_on channel=0 note=81 velocity=0 time=0.16527786041666667@note_on channel=1 note=69 velocity=0 time=0@note_on channel=2 note=75 velocity=0 time=0@note_on channel=3 note=63 velocity=0 time=0@note_on channel=4 note=48 velocity=0 time=0@note_on channel=0 note=77 velocity=126 time=0.0013888895833333334@note_on channel=1 note=65 velocity=126 time=0@note_on channel=2 note=72 velocity=126 time=0@note_on channel=3 note=60 velocity=126 time=0@note_on channel=4 note=45 velocity=126 time=0@note_on channel=0 note=77 velocity=0 time=0.16527786041666667@note_on channel=1 note=65 velocity=0 time=0@note_on channel=2 note=72 velocity=0 time=0@note_on channel=3 note=60 velocity=0 time=0@note_on channel=4 note=45 velocity=0 time=0@note_on channel=0 note=79 velocity=126 time=0.0013888895833333334@note_on channel=1 note=67 velocity=126 time=0@note_on channel=2 note=74 velocity=126 time=0@note_on channel=3 note=62 velocity=126 time=0@note_on channel=4 note=46 velocity=126 time=0@note_on channel=0 note=79 velocity=0 time=0.16527786041666667@note_on channel=1 note=67 velocity=0 time=0@note_on channel=2 note=74 velocity=0 time=0@note_on channel=3 note=62 velocity=0 time=0@note_on channel=4 note=46 velocity=0 time=0@note_on channel=0 note=75 velocity=126 time=0.0013888895833333334@note_on channel=1 note=63 velocity=126 time=0@note_on channel=2 note=70 velocity=126 time=0@note_on channel=3 note=58 velocity=126 time=0@note_on channel=4 note=43 velocity=126 time=0@note_on channel=0 note=75 velocity=0 time=0.16527786041666667@note_on channel=1 note=63 velocity=0 time=0@note_on channel=2 note=70 velocity=0 time=0@note_on channel=3 note=58 velocity=0 time=0@note_on channel=4 note=43 velocity=0 time=0@note_on channel=0 note=77 velocity=126 time=0.0013888895833333334@note_on channel=1 note=65 velocity=126 time=0@note_on channel=2 note=72 velocity=126 time=0@note_on channel=3 note=60 velocity=126 time=0@note_on channel=4 note=45 velocity=126 time=0@note_on channel=0 note=77 velocity=0 time=0.16527786041666667@note_on channel=1 note=65 velocity=0 time=0@note_on channel=2 note=72 velocity=0 time=0@note_on channel=3 note=60 velocity=0 time=0@note_on channel=4 note=45 velocity=0 time=0@note_on channel=0 note=74 velocity=126 time=0.0013888895833333334@note_on channel=1 note=62 velocity=126 time=0@note_on channel=2 note=69 velocity=126 time=0@note_on channel=3 note=57 velocity=126 time=0@note_on channel=4 note=42 velocity=126 time=0@note_on channel=0 note=74 velocity=0 time=0.16527786041666667@note_on channel=1 note=62 velocity=0 time=0@note_on channel=2 note=69 velocity=0 time=0@note_on channel=3 note=57 velocity=0 time=0@note_on channel=4 note=42 velocity=0 time=0@note_on channel=0 note=77 velocity=126 time=0.0013888895833333334@note_on channel=1 note=65 velocity=126 time=0@note_on channel=2 note=72 velocity=126 time=0@note_on channel=3 note=60 velocity=126 time=0@note_on channel=4 note=45 velocity=126 time=0@note_on channel=0 note=77 velocity=0 time=0.16527786041666667@note_on channel=1 note=65 velocity=0 time=0@note_on channel=2 note=72 velocity=0 time=0@note_on channel=3 note=60 velocity=0 time=0@note_on channel=4 note=45 velocity=0 time=0@note_on channel=0 note=75 velocity=126 time=0.0013888895833333334@note_on channel=1 note=63 velocity=126 time=0@note_on channel=2 note=70 velocity=126 time=0@note_on channel=3 note=58 velocity=126 time=0@note_on channel=4 note=43 velocity=126 time=0@note_on channel=0 note=75 velocity=0 time=0.16527786041666667@note_on channel=1 note=63 velocity=0 time=0@note_on channel=2 note=70 velocity=0 time=0@note_on channel=3 note=58 velocity=0 time=0@note_on channel=4 note=43 velocity=0 time=0@note_on channel=0 note=77 velocity=126 time=0.0013888895833333334@note_on channel=1 note=65 velocity=126 time=0@note_on channel=2 note=72 velocity=126 time=0@note_on channel=3 note=60 velocity=126 time=0@note_on channel=4 note=45 velocity=126 time=0@note_on channel=0 note=77 velocity=0 time=0.16527786041666667@note_on channel=1 note=65 velocity=0 time=0@note_on channel=2 note=72 velocity=0 time=0@note_on channel=3 note=60 velocity=0 time=0@note_on channel=4 note=45 velocity=0 time=0@note_on channel=0 note=74 velocity=126 time=0.0013888895833333334@note_on channel=1 note=62 velocity=126 time=0@note_on channel=2 note=69 velocity=126 time=0@note_on channel=3 note=57 velocity=126 time=0@note_on channel=4 note=41 velocity=126 time=0@note_on channel=0 note=74 velocity=0 time=0.16527786041666667@note_on channel=1 note=62 velocity=0 time=0@note_on channel=2 note=69 velocity=0 time=0@note_on channel=3 note=57 velocity=0 time=0@note_on channel=4 note=41 velocity=0 time=0@note_on channel=0 note=75 velocity=126 time=0.0013888895833333334@note_on channel=1 note=63 velocity=126 time=0@note_on channel=2 note=70 velocity=126 time=0@note_on channel=3 note=58 velocity=126 time=0@note_on channel=4 note=43 velocity=126 time=0@note_on channel=0 note=75 velocity=0 time=0.16527786041666667@note_on channel=1 note=63 velocity=0 time=0@note_on channel=2 note=70 velocity=0 time=0@note_on channel=3 note=58 velocity=0 time=0@note_on channel=4 note=43 velocity=0 time=0@note_on channel=0 note=72 velocity=126 time=0.0013888895833333334@note_on channel=1 note=60 velocity=126 time=0@note_on channel=2 note=67 velocity=126 time=0@note_on channel=3 note=55 velocity=126 time=0@note_on channel=4 note=39 velocity=126 time=0@note_on channel=0 note=72 velocity=0 time=0.16527786041666667@note_on channel=1 note=60 velocity=0 time=0@note_on channel=2 note=67 velocity=0 time=0@note_on channel=3 note=55 velocity=0 time=0@note_on channel=4 note=39 velocity=0 time=0@note_on channel=0 note=74 velocity=126 time=0.0013888895833333334@note_on channel=1 note=62 velocity=126 time=0@note_on channel=2 note=69 velocity=126 time=0@note_on channel=3 note=57 velocity=126 time=0@note_on channel=4 note=41 velocity=126 time=0@note_on channel=0 note=74 velocity=0 time=0.16527786041666667@note_on channel=1 note=62 velocity=0 time=0@note_on channel=2 note=69 velocity=0 time=0@note_on channel=3 note=57 velocity=0 time=0@note_on channel=4 note=41 velocity=0 time=0@note_on channel=0 note=70 velocity=126 time=0.0013888895833333334@note_on channel=1 note=58 velocity=126 time=0@note_on channel=2 note=65 velocity=126 time=0@note_on channel=3 note=53 velocity=126 time=0@note_on channel=4 note=38 velocity=126 time=0@note_on channel=0 note=70 velocity=0 time=0.16527786041666667@note_on channel=1 note=58 velocity=0 time=0@note_on channel=2 note=65 velocity=0 time=0@note_on channel=3 note=53 velocity=0 time=0@note_on channel=4 note=38 velocity=0 time=0@note_on channel=0 note=74 velocity=126 time=0.0013888895833333334@note_on channel=1 note=62 velocity=126 time=0@note_on channel=2 note=69 velocity=126 time=0@note_on channel=3 note=57 velocity=126 time=0@note_on channel=4 note=41 velocity=126 time=0@note_on channel=0 note=74 velocity=0 time=0.16527786041666667@note_on channel=1 note=62 velocity=0 time=0@note_on channel=2 note=69 velocity=0 time=0@note_on channel=3 note=57 velocity=0 time=0@note_on channel=4 note=41 velocity=0 time=0@note_on channel=0 note=72 velocity=126 time=0.0013888895833333334@note_on channel=1 note=60 velocity=126 time=0@note_on channel=2 note=67 velocity=126 time=0@note_on channel=3 note=55 velocity=126 time=0@note_on channel=4 note=39 velocity=126 time=0@note_on channel=0 note=72 velocity=0 time=0.16527786041666667@note_on channel=1 note=60 velocity=0 time=0@note_on channel=2 note=67 velocity=0 time=0@note_on channel=3 note=55 velocity=0 time=0@note_on channel=4 note=39 velocity=0 time=0@note_on channel=0 note=74 velocity=126 time=0.0013888895833333334@note_on channel=1 note=62 velocity=126 time=0@note_on channel=2 note=69 velocity=126 time=0@note_on channel=3 note=57 velocity=126 time=0@note_on channel=4 note=41 velocity=126 time=0@note_on channel=0 note=74 velocity=0 time=0.16527786041666667@note_on channel=1 note=62 velocity=0 time=0@note_on channel=2 note=69 velocity=0 time=0@note_on channel=3 note=57 velocity=0 time=0@note_on channel=4 note=41 velocity=0 time=0@note_on channel=0 note=70 velocity=126 time=0.0013888895833333334@note_on channel=1 note=58 velocity=126 time=0@note_on channel=2 note=65 velocity=126 time=0@note_on channel=3 note=53 velocity=126 time=0@note_on channel=4 note=38 velocity=126 time=0@note_on channel=0 note=70 velocity=0 time=0.16527786041666667@note_on channel=1 note=58 velocity=0 time=0@note_on channel=2 note=65 velocity=0 time=0@note_on channel=3 note=53 velocity=0 time=0@note_on channel=4 note=38 velocity=0 time=0@note_on channel=0 note=72 velocity=126 time=0.0013888895833333334@note_on channel=1 note=60 velocity=126 time=0@note_on channel=2 note=67 velocity=126 time=0@note_on channel=3 note=55 velocity=126 time=0@note_on channel=4 note=39 velocity=126 time=0@note_on channel=0 note=72 velocity=0 time=0.16527786041666667@note_on channel=1 note=60 velocity=0 time=0@note_on channel=2 note=67 velocity=0 time=0@note_on channel=3 note=55 velocity=0 time=0@note_on channel=4 note=39 velocity=0 time=0@note_on channel=0 note=69 velocity=126 time=0.0013888895833333334@note_on channel=1 note=69 velocity=126 time=0@note_on channel=2 note=63 velocity=126 time=0@note_on channel=3 note=51 velocity=126 time=0@note_on channel=4 note=36 velocity=126 time=0@note_on channel=0 note=69 velocity=0 time=0.16527786041666667@note_on channel=1 note=69 velocity=0 time=0@note_on channel=2 note=63 velocity=0 time=0@note_on channel=3 note=51 velocity=0 time=0@note_on channel=4 note=36 velocity=0 time=0@note_on channel=0 note=70 velocity=126 time=0.0013888895833333334@note_on channel=1 note=70 velocity=126 time=0@note_on channel=2 note=65 velocity=126 time=0@note_on channel=3 note=53 velocity=126 time=0@note_on channel=4 note=38 velocity=126 time=0@note_on channel=0 note=70 velocity=0 time=0.16527786041666667@note_on channel=1 note=70 velocity=0 time=0@note_on channel=2 note=65 velocity=0 time=0@note_on channel=3 note=53 velocity=0 time=0@note_on channel=4 note=38 velocity=0 time=0@note_on channel=0 note=67 velocity=126 time=0.0013888895833333334@note_on channel=1 note=67 velocity=126 time=0@note_on channel=2 note=62 velocity=126 time=0@note_on channel=3 note=50 velocity=126 time=0@note_on channel=4 note=34 velocity=126 time=0@note_on channel=0 note=67 velocity=0 time=0.16527786041666667@note_on channel=1 note=67 velocity=0 time=0@note_on channel=2 note=62 velocity=0 time=0@note_on channel=3 note=50 velocity=0 time=0@note_on channel=4 note=34 velocity=0 time=0@note_on channel=0 note=70 velocity=126 time=0.0013888895833333334@note_on channel=1 note=70 velocity=126 time=0@note_on channel=2 note=65 velocity=126 time=0@note_on channel=3 note=53 velocity=126 time=0@note_on channel=4 note=38 velocity=126 time=0@note_on channel=0 note=70 velocity=0 time=0.16527786041666667@note_on channel=1 note=70 velocity=0 time=0@note_on channel=2 note=65 velocity=0 time=0@note_on channel=3 note=53 velocity=0 time=0@note_on channel=4 note=38 velocity=0 time=0@note_on channel=0 note=69 velocity=126 time=0.0013888895833333334@note_on channel=1 note=69 velocity=126 time=0@note_on channel=2 note=63 velocity=126 time=0@note_on channel=3 note=51 velocity=126 time=0@note_on channel=4 note=36 velocity=126 time=0@note_on channel=0 note=69 velocity=0 time=0.16527786041666667@note_on channel=1 note=69 velocity=0 time=0@note_on channel=2 note=63 velocity=0 time=0@note_on channel=3 note=51 velocity=0 time=0@note_on channel=4 note=36 velocity=0 time=0@note_on channel=0 note=70 velocity=126 time=0.0013888895833333334@note_on channel=1 note=70 velocity=126 time=0@note_on channel=2 note=65 velocity=126 time=0@note_on channel=3 note=53 velocity=126 time=0@note_on channel=4 note=38 velocity=126 time=0@note_on channel=0 note=70 velocity=0 time=0.16527786041666667@note_on channel=1 note=70 velocity=0 time=0@note_on channel=2 note=65 velocity=0 time=0@note_on channel=3 note=53 velocity=0 time=0@note_on channel=4 note=38 velocity=0 time=0@note_on channel=0 note=67 velocity=126 time=0.0013888895833333334@note_on channel=1 note=67 velocity=126 time=0@note_on channel=2 note=62 velocity=126 time=0@note_on channel=3 note=50 velocity=126 time=0@note_on channel=4 note=34 velocity=126 time=0@note_on channel=0 note=67 velocity=0 time=0.16527786041666667@note_on channel=1 note=67 velocity=0 time=0@note_on channel=2 note=62 velocity=0 time=0@note_on channel=3 note=50 velocity=0 time=0@note_on channel=4 note=34 velocity=0 time=0@note_on channel=0 note=69 velocity=126 time=0.0013888895833333334@note_on channel=1 note=69 velocity=126 time=0@note_on channel=2 note=63 velocity=126 time=0@note_on channel=3 note=51 velocity=126 time=0@note_on channel=4 note=36 velocity=126 time=0@note_on channel=0 note=69 velocity=0 time=0.16527786041666667@note_on channel=1 note=69 velocity=0 time=0@note_on channel=2 note=63 velocity=0 time=0@note_on channel=3 note=51 velocity=0 time=0@note_on channel=4 note=36 velocity=0 time=0@note_on channel=0 note=66 velocity=126 time=0.0013888895833333334@note_on channel=1 note=66 velocity=126 time=0@note_on channel=2 note=60 velocity=126 time=0@note_on channel=3 note=48 velocity=126 time=0@note_on channel=4 note=33 velocity=126 time=0@note_on channel=0 note=66 velocity=0 time=0.16527786041666667@note_on channel=1 note=66 velocity=0 time=0@note_on channel=2 note=60 velocity=0 time=0@note_on channel=3 note=48 velocity=0 time=0@note_on channel=4 note=33 velocity=0 time=0@note_on channel=0 note=67 velocity=126 time=0.0013888895833333334@note_on channel=1 note=67 velocity=126 time=0@note_on channel=2 note=62 velocity=126 time=0@note_on channel=3 note=50 velocity=126 time=0@note_on channel=4 note=34 velocity=126 time=0@note_on channel=0 note=67 velocity=0 time=0.16527786041666667@note_on channel=1 note=67 velocity=0 time=0@note_on channel=2 note=62 velocity=0 time=0@note_on channel=3 note=50 velocity=0 time=0@note_on channel=4 note=34 velocity=0 time=0@note_on channel=0 note=64 velocity=126 time=0.0013888895833333334@note_on channel=1 note=64 velocity=126 time=0@note_on channel=2 note=58 velocity=126 time=0@note_on channel=3 note=46 velocity=126 time=0@note_on channel=4 note=31 velocity=126 time=0@note_on channel=0 note=64 velocity=0 time=0.16527786041666667@note_on channel=1 note=64 velocity=0 time=0@note_on channel=2 note=58 velocity=0 time=0@note_on channel=3 note=46 velocity=0 time=0@note_on channel=4 note=31 velocity=0 time=0@note_on channel=0 note=66 velocity=126 time=0.0013888895833333334@note_on channel=1 note=66 velocity=126 time=0@note_on channel=2 note=60 velocity=126 time=0@note_on channel=3 note=48 velocity=126 time=0@note_on channel=4 note=33 velocity=126 time=0@note_on channel=0 note=66 velocity=0 time=0.16527786041666667@note_on channel=1 note=66 velocity=0 time=0@note_on channel=2 note=60 velocity=0 time=0@note_on channel=3 note=48 velocity=0 time=0@note_on channel=4 note=33 velocity=0 time=0@note_on channel=0 note=62 velocity=126 time=0.0013888895833333334@note_on channel=1 note=62 velocity=126 time=0@note_on channel=2 note=57 velocity=126 time=0@note_on channel=3 note=45 velocity=126 time=0@note_on channel=4 note=30 velocity=126 time=0@note_on channel=2 note=57 velocity=0 time=0.16527786041666667@note_on channel=3 note=45 velocity=0 time=0@note_on channel=2 note=60 velocity=126 time=0.0013888895833333334@note_on channel=3 note=48 velocity=126 time=0@note_on channel=0 note=62 velocity=0 time=0.16527786041666667@note_on channel=1 note=62 velocity=0 time=0@note_on channel=2 note=60 velocity=0 time=0@note_on channel=3 note=48 velocity=0 time=0@note_on channel=4 note=30 velocity=0 time=0@note_on channel=0 note=74 velocity=126 time=0.0013888895833333334@note_on channel=1 note=74 velocity=126 time=0@note_on channel=2 note=54 velocity=126 time=0@note_on channel=3 note=42 velocity=126 time=0@note_on channel=4 note=26 velocity=126 time=0@note_on channel=2 note=54 velocity=0 time=0.16527786041666667@note_on channel=3 note=42 velocity=0 time=0@note_on channel=2 note=57 velocity=126 time=0.0013888895833333334@note_on channel=3 note=45 velocity=126 time=0@note_on channel=0 note=74 velocity=0 time=0.16527786041666667@note_on channel=1 note=74 velocity=0 time=0@note_on channel=2 note=57 velocity=0 time=0@note_on channel=3 note=45 velocity=0 time=0@note_on channel=4 note=26 velocity=0 time=0@note_on channel=0 note=70 velocity=126 time=0.0013888895833333334@note_on channel=1 note=70 velocity=126 time=0@note_on channel=2 note=55 velocity=126 time=0@note_on channel=3 note=43 velocity=126 time=0@note_on channel=4 note=31 velocity=126 time=0@note_on channel=0 note=70 velocity=0 time=0.16527786041666667@note_on channel=1 note=70 velocity=0 time=0@note_on channel=2 note=55 velocity=0 time=0@note_on channel=3 note=43 velocity=0 time=0@note_on channel=0 note=72 velocity=126 time=0.0013888895833333334@note_on channel=1 note=72 velocity=126 time=0@note_on channel=2 note=58 velocity=126 time=0@note_on channel=3 note=46 velocity=126 time=0@note_on channel=0 note=72 velocity=0 time=0.16527786041666667@note_on channel=1 note=72 velocity=0 time=0@note_on channel=2 note=58 velocity=0 time=0@note_on channel=3 note=46 velocity=0 time=0@note_on channel=4 note=31 velocity=0 time=0@note_on channel=0 note=69 velocity=126 time=0.0013888895833333334@note_on channel=1 note=69 velocity=126 time=0@note_on channel=2 note=50 velocity=126 time=0@note_on channel=3 note=38 velocity=126 time=0@note_on channel=4 note=29 velocity=126 time=0@note_on channel=0 note=69 velocity=0 time=0.16527786041666667@note_on channel=1 note=69 velocity=0 time=0@note_on channel=2 note=50 velocity=0 time=0@note_on channel=3 note=38 velocity=0 time=0@note_on channel=0 note=70 velocity=126 time=0.0013888895833333334@note_on channel=1 note=70 velocity=126 time=0@note_on channel=2 note=55 velocity=126 time=0@note_on channel=3 note=43 velocity=126 time=0@note_on channel=0 note=70 velocity=0 time=0.16527786041666667@note_on channel=1 note=70 velocity=0 time=0@note_on channel=2 note=55 velocity=0 time=0@note_on channel=3 note=43 velocity=0 time=0@note_on channel=4 note=29 velocity=0 time=0@note_on channel=0 note=67 velocity=126 time=0.0013888895833333334@note_on channel=1 note=67 velocity=126 time=0@note_on channel=2 note=58 velocity=126 time=0@note_on channel=3 note=46 velocity=126 time=0@note_on channel=4 note=27 velocity=126 time=0@note_on channel=2 note=58 velocity=0 time=0.16527786041666667@note_on channel=3 note=46 velocity=0 time=0@note_on channel=2 note=62 velocity=126 time=0.0013888895833333334@note_on channel=3 note=50 velocity=126 time=0@note_on channel=0 note=67 velocity=0 time=0.16527786041666667@note_on channel=1 note=67 velocity=0 time=0@note_on channel=2 note=62 velocity=0 time=0@note_on channel=3 note=50 velocity=0 time=0@note_on channel=0 note=79 velocity=126 time=0.0013888895833333334@note_on channel=1 note=79 velocity=126 time=0@note_on channel=2 note=55 velocity=126 time=0@note_on channel=3 note=43 velocity=126 time=0@note_on channel=2 note=55 velocity=0 time=0.16527786041666667@note_on channel=3 note=43 velocity=0 time=0@note_on channel=2 note=60 velocity=126 time=0.0013888895833333334@note_on channel=3 note=48 velocity=126 time=0@note_on channel=0 note=79 velocity=0 time=0.16527786041666667@note_on channel=1 note=79 velocity=0 time=0@note_on channel=2 note=60 velocity=0 time=0@note_on channel=3 note=48 velocity=0 time=0@note_on channel=4 note=27 velocity=0 time=0@note_on channel=0 note=78 velocity=126 time=0.0013888895833333334@note_on channel=1 note=66 velocity=126 time=0@note_on channel=2 note=62 velocity=126 time=0@note_on channel=3 note=50 velocity=126 time=0@note_on channel=4 note=26 velocity=126 time=0@note_on channel=0 note=78 velocity=0 time=0.16527786041666667@note_on channel=1 note=66 velocity=0 time=0@note_on channel=2 note=62 velocity=0 time=0@note_on channel=3 note=50 velocity=0 time=0@note_on channel=0 note=79 velocity=126 time=0.0013888895833333334@note_on channel=1 note=67 velocity=126 time=0@note_on channel=2 note=57 velocity=126 time=0@note_on channel=3 note=45 velocity=126 time=0@note_on channel=0 note=79 velocity=0 time=0.16527786041666667@note_on channel=1 note=67 velocity=0 time=0@note_on channel=2 note=57 velocity=0 time=0@note_on channel=3 note=45 velocity=0 time=0@note_on channel=0 note=76 velocity=126 time=0.0013888895833333334@note_on channel=1 note=64 velocity=126 time=0@note_on channel=2 note=64 velocity=126 time=0@note_on channel=3 note=52 velocity=126 time=0@note_on channel=0 note=76 velocity=0 time=0.16527786041666667@note_on channel=1 note=64 velocity=0 time=0@note_on channel=2 note=64 velocity=0 time=0@note_on channel=3 note=52 velocity=0 time=0@note_on channel=0 note=78 velocity=126 time=0.0013888895833333334@note_on channel=1 note=66 velocity=126 time=0@note_on channel=2 note=57 velocity=126 time=0@note_on channel=3 note=45 velocity=126 time=0@note_on channel=0 note=78 velocity=0 time=0.16527786041666667@note_on channel=1 note=66 velocity=0 time=0@note_on channel=2 note=57 velocity=0 time=0@note_on channel=3 note=45 velocity=0 time=0@note_on channel=0 note=74 velocity=126 time=0.0013888895833333334@note_on channel=1 note=62 velocity=126 time=0@note_on channel=2 note=54 velocity=126 time=0@note_on channel=3 note=54 velocity=126 time=0@note_on channel=0 note=74 velocity=0 time=0.16527786041666667@note_on channel=1 note=62 velocity=0 time=0@note_on channel=2 note=54 velocity=0 time=0@note_on channel=3 note=54 velocity=0 time=0@note_on channel=0 note=82 velocity=126 time=0.0013888895833333334@note_on channel=1 note=70 velocity=126 time=0@note_on channel=2 note=55 velocity=126 time=0@note_on channel=3 note=55 velocity=126 time=0@note_on channel=0 note=82 velocity=0 time=0.16527786041666667@note_on channel=1 note=70 velocity=0 time=0@note_on channel=2 note=55 velocity=0 time=0@note_on channel=3 note=55 velocity=0 time=0@note_on channel=0 note=72 velocity=126 time=0.0013888895833333334@note_on channel=1 note=60 velocity=126 time=0@note_on channel=2 note=52 velocity=126 time=0@note_on channel=3 note=52 velocity=126 time=0@note_on channel=0 note=72 velocity=0 time=0.16527786041666667@note_on channel=1 note=60 velocity=0 time=0@note_on channel=2 note=52 velocity=0 time=0@note_on channel=3 note=52 velocity=0 time=0@note_on channel=0 note=81 velocity=126 time=0.0013888895833333334@note_on channel=1 note=69 velocity=126 time=0@note_on channel=2 note=54 velocity=126 time=0@note_on channel=3 note=54 velocity=126 time=0@note_on channel=0 note=81 velocity=0 time=0.16527786041666667@note_on channel=1 note=69 velocity=0 time=0@note_on channel=2 note=54 velocity=0 time=0@note_on channel=3 note=54 velocity=0 time=0@note_on channel=0 note=70 velocity=126 time=0.0013888895833333334@note_on channel=1 note=58 velocity=126 time=0@note_on channel=2 note=55 velocity=126 time=0@note_on channel=3 note=55 velocity=126 time=0@note_on channel=0 note=70 velocity=0 time=0.16527786041666667@note_on channel=1 note=58 velocity=0 time=0@note_on channel=2 note=55 velocity=0 time=0@note_on channel=3 note=55 velocity=0 time=0@note_on channel=0 note=72 velocity=126 time=0.0013888895833333334@note_on channel=1 note=60 velocity=126 time=0@note_on channel=2 note=50 velocity=126 time=0@note_on channel=3 note=50 velocity=126 time=0@note_on channel=0 note=72 velocity=0 time=0.16527786041666667@note_on channel=1 note=60 velocity=0 time=0@note_on channel=2 note=50 velocity=0 time=0@note_on channel=3 note=50 velocity=0 time=0@note_on channel=0 note=69 velocity=126 time=0.0013888895833333334@note_on channel=1 note=57 velocity=126 time=0@note_on channel=2 note=57 velocity=126 time=0@note_on channel=3 note=57 velocity=126 time=0@note_on channel=0 note=69 velocity=0 time=0.16527786041666667@note_on channel=1 note=57 velocity=0 time=0@note_on channel=2 note=57 velocity=0 time=0@note_on channel=3 note=57 velocity=0 time=0@note_on channel=0 note=70 velocity=126 time=0.0013888895833333334@note_on channel=1 note=58 velocity=126 time=0@note_on channel=2 note=50 velocity=126 time=0@note_on channel=3 note=50 velocity=126 time=0@note_on channel=0 note=70 velocity=0 time=0.16527786041666667@note_on channel=1 note=58 velocity=0 time=0@note_on channel=2 note=50 velocity=0 time=0@note_on channel=3 note=50 velocity=0 time=0@note_on channel=0 note=67 velocity=126 time=0.0013888895833333334@note_on channel=1 note=55 velocity=126 time=0@note_on channel=2 note=58 velocity=126 time=0@note_on channel=3 note=58 velocity=126 time=0@note_on channel=0 note=67 velocity=0 time=0.16527786041666667@note_on channel=1 note=55 velocity=0 time=0@note_on channel=2 note=58 velocity=0 time=0@note_on channel=3 note=58 velocity=0 time=0@note_on channel=0 note=70 velocity=126 time=0.0013888895833333334@note_on channel=1 note=58 velocity=126 time=0@note_on channel=2 note=50 velocity=126 time=0@note_on channel=3 note=50 velocity=126 time=0@note_on channel=0 note=70 velocity=0 time=0.16527786041666667@note_on channel=1 note=58 velocity=0 time=0@note_on channel=2 note=50 velocity=0 time=0@note_on channel=3 note=50 velocity=0 time=0@note_on channel=0 note=75 velocity=126 time=0.0013888895833333334@note_on channel=1 note=63 velocity=126 time=0@note_on channel=2 note=60 velocity=126 time=0@note_on channel=3 note=60 velocity=126 time=0@note_on channel=0 note=75 velocity=0 time=0.16527786041666667@note_on channel=1 note=63 velocity=0 time=0@note_on channel=2 note=60 velocity=0 time=0@note_on channel=3 note=60 velocity=0 time=0@note_on channel=0 note=67 velocity=126 time=0.0013888895833333334@note_on channel=1 note=55 velocity=126 time=0@note_on channel=2 note=50 velocity=126 time=0@note_on channel=3 note=50 velocity=126 time=0@note_on channel=0 note=67 velocity=0 time=0.16527786041666667@note_on channel=1 note=55 velocity=0 time=0@note_on channel=2 note=50 velocity=0 time=0@note_on channel=3 note=50 velocity=0 time=0@note_on channel=0 note=66 velocity=126 time=0.0013888895833333334@note_on channel=1 note=54 velocity=126 time=0@note_on channel=2 note=62 velocity=126 time=0@note_on channel=3 note=62 velocity=126 time=0@note_on channel=0 note=66 velocity=0 time=0.16527786041666667@note_on channel=1 note=54 velocity=0 time=0@note_on channel=0 note=69 velocity=126 time=0.0013888895833333334@note_on channel=1 note=57 velocity=126 time=0@note_on channel=0 note=69 velocity=0 time=0.16527786041666667@note_on channel=1 note=57 velocity=0 time=0@note_on channel=0 note=74 velocity=126 time=0.0013888895833333334@note_on channel=1 note=62 velocity=126 time=0@note_on channel=2 note=62 velocity=0 time=0.16527786041666667@note_on channel=3 note=62 velocity=0 time=0@note_on channel=2 note=64 velocity=126 time=0.0013888895833333334@note_on channel=2 note=64 velocity=0 time=0.16527786041666667@note_on channel=2 note=66 velocity=126 time=0.0013888895833333334@note_on channel=0 note=74 velocity=0 time=0.16527786041666667@note_on channel=1 note=62 velocity=0 time=0@note_on channel=0 note=72 velocity=126 time=0.0013888895833333334@note_on channel=1 note=60 velocity=126 time=0@note_on channel=0 note=72 velocity=0 time=0.16527786041666667@note_on channel=1 note=60 velocity=0 time=0@note_on channel=0 note=70 velocity=126 time=0.0013888895833333334@note_on channel=1 note=58 velocity=126 time=0@note_on channel=3 note=62 velocity=126 time=0@note_on channel=0 note=70 velocity=0 time=0.16527786041666667@note_on channel=1 note=58 velocity=0 time=0@note_on channel=0 note=69 velocity=126 time=0.0013888895833333334@note_on channel=1 note=57 velocity=126 time=0@note_on channel=0 note=69 velocity=0 time=0.16527786041666667@note_on channel=1 note=57 velocity=0 time=0@note_on channel=2 note=66 velocity=0 time=0@note_on channel=3 note=62 velocity=0 time=0@note_on channel=0 note=70 velocity=126 time=0.0013888895833333334@note_on channel=1 note=58 velocity=126 time=0@note_on channel=2 note=67 velocity=126 time=0@note_on channel=3 note=58 velocity=126 time=0@note_on channel=0 note=70 velocity=0 time=0.16527786041666667@note_on channel=1 note=58 velocity=0 time=0@note_on channel=3 note=58 velocity=0 time=0@note_on channel=0 note=74 velocity=126 time=0.0013888895833333334@note_on channel=1 note=62 velocity=126 time=0@note_on channel=3 note=60 velocity=126 time=0@note_on channel=0 note=74 velocity=0 time=0.16527786041666667@note_on channel=1 note=62 velocity=0 time=0@note_on channel=3 note=60 velocity=0 time=0@note_on channel=0 note=79 velocity=126 time=0.0013888895833333334@note_on channel=1 note=67 velocity=126 time=0@note_on channel=3 note=57 velocity=126 time=0@note_on channel=2 note=67 velocity=0 time=0.16527786041666667@note_on channel=3 note=57 velocity=0 time=0@note_on channel=2 note=69 velocity=126 time=0.0013888895833333334@note_on channel=3 note=58 velocity=126 time=0@note_on channel=2 note=69 velocity=0 time=0.16527786041666667@note_on channel=3 note=58 velocity=0 time=0@note_on channel=2 note=70 velocity=126 time=0.0013888895833333334@note_on channel=3 note=55 velocity=126 time=0@note_on channel=0 note=79 velocity=0 time=0.16527786041666667@note_on channel=1 note=67 velocity=0 time=0@note_on channel=0 note=73 velocity=126 time=0.0013888895833333334@note_on channel=1 note=61 velocity=126 time=0@note_on channel=0 note=73 velocity=0 time=0.16527786041666667@note_on channel=1 note=61 velocity=0 time=0@note_on channel=2 note=70 velocity=0 time=0@note_on channel=0 note=76 velocity=126 time=0.0013888895833333334@note_on channel=1 note=64 velocity=126 time=0@note_on channel=2 note=67 velocity=126 time=0@note_on channel=3 note=55 velocity=0 time=0.16527786041666667@note_on channel=3 note=61 velocity=126 time=0.0013888895833333334@note_on channel=0 note=76 velocity=0 time=0.16527786041666667@note_on channel=1 note=64 velocity=0 time=0@note_on channel=2 note=67 velocity=0 time=0@note_on channel=3 note=61 velocity=0 time=0@note_on channel=0 note=74 velocity=127 time=0.0013888895833333334@note_on channel=1 note=69 velocity=127 time=0@note_on channel=2 note=66 velocity=127 time=0@note_on channel=3 note=62 velocity=127 time=0@note_on channel=2 note=66 velocity=0 time=0.16527786041666667@note_on channel=2 note=67 velocity=127 time=0.0013888895833333334@note_on channel=2 note=67 velocity=0 time=0.16527786041666667@note_on channel=4 note=26 velocity=0 time=0@note_on channel=2 note=64 velocity=127 time=0.0013888895833333334@note_on channel=4 note=30 velocity=127 time=0@note_on channel=2 note=64 velocity=0 time=0.16527786041666667@note_on channel=2 note=66 velocity=127 time=0.0013888895833333334@note_on channel=0 note=74 velocity=0 time=0.16527786041666667@note_on channel=1 note=69 velocity=0 time=0@note_on channel=2 note=66 velocity=0 time=0@note_on channel=3 note=62 velocity=0 time=0@note_on channel=4 note=30 velocity=0 time=0@note_on channel=0 note=82 velocity=127 time=0.0013888895833333334@note_on channel=2 note=62 velocity=127 time=0@note_on channel=4 note=31 velocity=127 time=0@note_on channel=2 note=62 velocity=0 time=0.3319446104166667@note_on channel=4 note=31 velocity=0 time=0@note_on channel=1 note=74 velocity=127 time=0.0013888895833333334@note_on channel=2 note=67 velocity=127 time=0@note_on channel=3 note=46 velocity=127 time=0@note_on channel=4 note=34 velocity=127 time=0@note_on channel=2 note=67 velocity=0 time=0.16527786041666667@note_on channel=2 note=62 velocity=127 time=0.0013888895833333334@note_on channel=1 note=74 velocity=0 time=0.16527786041666667@note_on channel=2 note=62 velocity=0 time=0@note_on channel=3 note=46 velocity=0 time=0@note_on channel=4 note=34 velocity=0 time=0@note_on channel=1 note=79 velocity=127 time=0.0013888895833333334@note_on channel=2 note=63 velocity=127 time=0@note_on channel=3 note=48 velocity=127 time=0@note_on channel=4 note=36 velocity=127 time=0@note_on channel=1 note=79 velocity=0 time=0.16527786041666667@note_on channel=1 note=77 velocity=127 time=0.0013888895833333334@note_on channel=1 note=77 velocity=0 time=0.16527786041666667@note_on channel=2 note=63 velocity=0 time=0@note_on channel=3 note=48 velocity=0 time=0@note_on channel=4 note=36 velocity=0 time=0@note_on channel=1 note=75 velocity=127 time=0.0013888895833333334@note_on channel=2 note=60 velocity=127 time=0@note_on channel=3 note=51 velocity=127 time=0@note_on channel=4 note=39 velocity=127 time=0@note_on channel=1 note=75 velocity=0 time=0.16527786041666667@note_on channel=1 note=74 velocity=127 time=0.0013888895833333334@note_on channel=0 note=82 velocity=0 time=0.16527786041666667@note_on channel=1 note=74 velocity=0 time=0@note_on channel=2 note=60 velocity=0 time=0@note_on channel=3 note=51 velocity=0 time=0@note_on channel=4 note=39 velocity=0 time=0@note_on channel=0 note=81 velocity=127 time=0.0013888895833333334@note_on channel=1 note=72 velocity=127 time=0@note_on channel=2 note=53 velocity=127 time=0@note_on channel=3 note=53 velocity=127 time=0@note_on channel=4 note=41 velocity=127 time=0@note_on channel=1 note=72 velocity=0 time=0.16527786041666667@note_on channel=1 note=75 velocity=127 time=0.0013888895833333334@note_on channel=1 note=75 velocity=0 time=0.16527786041666667@note_on channel=2 note=53 velocity=0 time=0@note_on channel=3 note=53 velocity=0 time=0@note_on channel=4 note=41 velocity=0 time=0@note_on channel=1 note=74 velocity=127 time=0.0013888895833333334@note_on channel=2 note=65 velocity=127 time=0@note_on channel=3 note=45 velocity=127 time=0@note_on channel=4 note=33 velocity=127 time=0@note_on channel=1 note=74 velocity=0 time=0.16527786041666667@note_on channel=1 note=72 velocity=127 time=0.0013888895833333334@note_on channel=1 note=72 velocity=0 time=0.16527786041666667@note_on channel=2 note=65 velocity=0 time=0@note_on channel=3 note=45 velocity=0 time=0@note_on channel=4 note=33 velocity=0 time=0@note_on channel=1 note=70 velocity=127 time=0.0013888895833333334@note_on channel=2 note=62 velocity=127 time=0@note_on channel=3 note=46 velocity=127 time=0@note_on channel=4 note=34 velocity=127 time=0@note_on channel=2 note=62 velocity=0 time=0.16527786041666667@note_on channel=2 note=63 velocity=127 time=0.0013888895833333334@note_on channel=2 note=63 velocity=0 time=0.16527786041666667@note_on channel=3 note=46 velocity=0 time=0@note_on channel=4 note=34 velocity=0 time=0@note_on channel=2 note=60 velocity=127 time=0.0013888895833333334@note_on channel=3 note=50 velocity=127 time=0@note_on channel=4 note=38 velocity=127 time=0@note_on channel=2 note=60 velocity=0 time=0.16527786041666667@note_on channel=2 note=62 velocity=127 time=0.0013888895833333334@note_on channel=0 note=81 velocity=0 time=0.16527786041666667@note_on channel=1 note=70 velocity=0 time=0@note_on channel=2 note=62 velocity=0 time=0@note_on channel=3 note=50 velocity=0 time=0@note_on channel=4 note=38 velocity=0 time=0@note_on channel=0 note=79 velocity=127 time=0.0013888895833333334@note_on channel=2 note=58 velocity=127 time=0@note_on channel=3 note=51 velocity=127 time=0@note_on channel=4 note=39 velocity=127 time=0@note_on channel=2 note=58 velocity=0 time=0.3319446104166667@note_on channel=3 note=51 velocity=0 time=0@note_on channel=4 note=39 velocity=0 time=0@note_on channel=1 note=70 velocity=127 time=0.0013888895833333334@note_on channel=2 note=63 velocity=127 time=0@note_on channel=3 note=43 velocity=127 time=0@note_on channel=4 note=31 velocity=127 time=0@note_on channel=2 note=63 velocity=0 time=0.16527786041666667@note_on channel=2 note=58 velocity=127 time=0.0013888895833333334@note_on channel=1 note=70 velocity=0 time=0.16527786041666667@note_on channel=2 note=58 velocity=0 time=0@note_on channel=3 note=43 velocity=0 time=0@note_on channel=4 note=31 velocity=0 time=0@note_on channel=1 note=75 velocity=127 time=0.0013888895833333334@note_on channel=2 note=60 velocity=127 time=0@note_on channel=3 note=45 velocity=127 time=0@note_on channel=4 note=33 velocity=127 time=0@note_on channel=1 note=75 velocity=0 time=0.16527786041666667@note_on channel=1 note=74 velocity=127 time=0.0013888895833333334@note_on channel=1 note=74 velocity=0 time=0.16527786041666667@note_on channel=2 note=60 velocity=0 time=0@note_on channel=3 note=45 velocity=0 time=0@note_on channel=4 note=33 velocity=0 time=0@note_on channel=1 note=72 velocity=127 time=0.0013888895833333334@note_on channel=2 note=57 velocity=127 time=0@note_on channel=3 note=48 velocity=127 time=0@note_on channel=4 note=36 velocity=127 time=0@note_on channel=1 note=72 velocity=0 time=0.16527786041666667@note_on channel=1 note=70 velocity=127 time=0.0013888895833333334@note_on channel=0 note=79 velocity=0 time=0.16527786041666667@note_on channel=1 note=70 velocity=0 time=0@note_on channel=2 note=57 velocity=0 time=0@note_on channel=3 note=48 velocity=0 time=0@note_on channel=4 note=36 velocity=0 time=0@note_on channel=0 note=78 velocity=127 time=0.0013888895833333334@note_on channel=1 note=69 velocity=127 time=0@note_on channel=2 note=50 velocity=127 time=0@note_on channel=3 note=50 velocity=127 time=0@note_on channel=4 note=38 velocity=127 time=0@note_on channel=1 note=69 velocity=0 time=0.16527786041666667@note_on channel=1 note=72 velocity=127 time=0.0013888895833333334@note_on channel=1 note=72 velocity=0 time=0.16527786041666667@note_on channel=2 note=50 velocity=0 time=0@note_on channel=3 note=50 velocity=0 time=0@note_on channel=4 note=38 velocity=0 time=0@note_on channel=1 note=70 velocity=127 time=0.0013888895833333334@note_on channel=2 note=62 velocity=127 time=0@note_on channel=3 note=38 velocity=127 time=0@note_on channel=4 note=26 velocity=127 time=0@note_on channel=1 note=70 velocity=0 time=0.16527786041666667@note_on channel=1 note=69 velocity=127 time=0.0013888895833333334@note_on channel=0 note=78 velocity=0 time=0.16527786041666667@note_on channel=1 note=69 velocity=0 time=0@note_on channel=2 note=62 velocity=0 time=0@note_on channel=3 note=38 velocity=0 time=0@note_on channel=4 note=26 velocity=0 time=0@note_on channel=0 note=79 velocity=127 time=0.0013888895833333334@note_on channel=1 note=67 velocity=127 time=0@note_on channel=2 note=58 velocity=127 time=0@note_on channel=3 note=43 velocity=127 time=0@note_on channel=4 note=31 velocity=127 time=0@note_on channel=2 note=58 velocity=0 time=0.16527786041666667@note_on channel=2 note=60 velocity=127 time=0.0013888895833333334@note_on channel=0 note=79 velocity=0 time=0.16527786041666667@note_on channel=2 note=60 velocity=0 time=0@note_on channel=0 note=74 velocity=127 time=0.0013888895833333334@note_on channel=2 note=57 velocity=127 time=0@note_on channel=2 note=57 velocity=0 time=0.16527786041666667@note_on channel=2 note=58 velocity=127 time=0.0013888895833333334@note_on channel=0 note=74 velocity=0 time=0.16527786041666667@note_on channel=1 note=67 velocity=0 time=0@note_on channel=2 note=58 velocity=0 time=0@note_on channel=3 note=43 velocity=0 time=0@note_on channel=4 note=31 velocity=0 time=0@note_on channel=0 note=79 velocity=127 time=0.0013888895833333334@note_on channel=2 note=55 velocity=127 time=0@note_on channel=2 note=55 velocity=0 time=0.16527786041666667@note_on channel=2 note=58 velocity=127 time=0.0013888895833333334@note_on channel=0 note=79 velocity=0 time=0.16527786041666667@note_on channel=2 note=58 velocity=0 time=0@note_on channel=0 note=78 velocity=127 time=0.0013888895833333334@note_on channel=2 note=57 velocity=127 time=0@note_on channel=3 note=38 velocity=127 time=0@note_on channel=4 note=26 velocity=127 time=0@note_on channel=2 note=57 velocity=0 time=0.16527786041666667@note_on channel=2 note=60 velocity=127 time=0.0013888895833333334@note_on channel=0 note=78 velocity=0 time=0.16527786041666667@note_on channel=2 note=60 velocity=0 time=0@note_on channel=3 note=38 velocity=0 time=0@note_on channel=4 note=26 velocity=0 time=0@note_on channel=0 note=79 velocity=127 time=0.0013888895833333334@note_on channel=2 note=58 velocity=127 time=0@note_on channel=3 note=43 velocity=127 time=0@note_on channel=4 note=31 velocity=127 time=0@note_on channel=2 note=58 velocity=0 time=0.16527786041666667@note_on channel=2 note=60 velocity=127 time=0.0013888895833333334@note_on channel=0 note=79 velocity=0 time=0.16527786041666667@note_on channel=2 note=60 velocity=0 time=0@note_on channel=0 note=74 velocity=127 time=0.0013888895833333334@note_on channel=1 note=62 velocity=127 time=0@note_on channel=2 note=57 velocity=127 time=0@note_on channel=2 note=57 velocity=0 time=0.16527786041666667@note_on channel=2 note=58 velocity=127 time=0.0013888895833333334@note_on channel=0 note=74 velocity=0 time=0.16527786041666667@note_on channel=1 note=62 velocity=0 time=0@note_on channel=2 note=58 velocity=0 time=0@note_on channel=3 note=43 velocity=0 time=0@note_on channel=4 note=31 velocity=0 time=0@note_on channel=0 note=70 velocity=127 time=0.0013888895833333334@note_on channel=1 note=67 velocity=127 time=0@note_on channel=2 note=55 velocity=127 time=0@note_on channel=2 note=55 velocity=0 time=0.16527786041666667@note_on channel=2 note=58 velocity=127 time=0.0013888895833333334@note_on channel=0 note=70 velocity=0 time=0.16527786041666667@note_on channel=1 note=67 velocity=0 time=0@note_on channel=2 note=58 velocity=0 time=0@note_on channel=0 note=72 velocity=127 time=0.0013888895833333334@note_on channel=1 note=66 velocity=127 time=0@note_on channel=2 note=57 velocity=127 time=0@note_on channel=3 note=38 velocity=127 time=0@note_on channel=4 note=26 velocity=127 time=0@note_on channel=2 note=57 velocity=0 time=0.16527786041666667@note_on channel=2 note=60 velocity=127 time=0.0013888895833333334@note_on channel=0 note=72 velocity=0 time=0.16527786041666667@note_on channel=1 note=66 velocity=0 time=0@note_on channel=2 note=60 velocity=0 time=0@note_on channel=3 note=38 velocity=0 time=0@note_on channel=4 note=26 velocity=0 time=0@note_on channel=0 note=74 velocity=127 time=0.0013888895833333334@note_on channel=1 note=67 velocity=127 time=0@note_on channel=2 note=58 velocity=127 time=0@note_on channel=3 note=43 velocity=127 time=0@note_on channel=4 note=31 velocity=127 time=0@note_on channel=2 note=58 velocity=0 time=0.16527786041666667@note_on channel=2 note=60 velocity=127 time=0.0013888895833333334@note_on channel=0 note=74 velocity=0 time=0.16527786041666667@note_on channel=1 note=67 velocity=0 time=0@note_on channel=2 note=60 velocity=0 time=0@note_on channel=3 note=43 velocity=0 time=0@note_on channel=4 note=31 velocity=0 time=0@note_on channel=0 note=74 velocity=127 time=0.0013888895833333334@note_on channel=1 note=66 velocity=127 time=0@note_on channel=2 note=57 velocity=127 time=0@note_on channel=3 note=50 velocity=127 time=0@note_on channel=4 note=38 velocity=127 time=0@note_on channel=2 note=57 velocity=0 time=0.16527786041666667@note_on channel=2 note=58 velocity=127 time=0.0013888895833333334@note_on channel=0 note=74 velocity=0 time=0.16527786041666667@note_on channel=1 note=66 velocity=0 time=0@note_on channel=2 note=58 velocity=0 time=0@note_on channel=3 note=50 velocity=0 time=0@note_on channel=4 note=38 velocity=0 time=0@note_on channel=0 note=74 velocity=127 time=0.0013888895833333334@note_on channel=1 note=70 velocity=127 time=0@note_on channel=2 note=55 velocity=127 time=0@note_on channel=3 note=55 velocity=127 time=0@note_on channel=4 note=43 velocity=127 time=0@note_on channel=1 note=70 velocity=0 time=0.16527786041666667@note_on channel=2 note=55 velocity=0 time=0@note_on channel=1 note=67 velocity=127 time=0.0013888895833333334@note_on channel=2 note=58 velocity=127 time=0@note_on channel=0 note=74 velocity=0 time=0.16527786041666667@note_on channel=1 note=67 velocity=0 time=0@note_on channel=2 note=58 velocity=0 time=0@note_on channel=3 note=55 velocity=0 time=0@note_on channel=4 note=43 velocity=0 time=0@note_on channel=0 note=74 velocity=127 time=0.0013888895833333334@note_on channel=1 note=69 velocity=127 time=0@note_on channel=2 note=57 velocity=127 time=0@note_on channel=3 note=54 velocity=127 time=0@note_on channel=4 note=42 velocity=127 time=0@note_on channel=1 note=69 velocity=0 time=0.16527786041666667@note_on channel=2 note=57 velocity=0 time=0@note_on channel=1 note=62 velocity=127 time=0.0013888895833333334@note_on channel=2 note=60 velocity=127 time=0@note_on channel=0 note=74 velocity=0 time=0.16527786041666667@note_on channel=1 note=62 velocity=0 time=0@note_on channel=2 note=60 velocity=0 time=0@note_on channel=3 note=54 velocity=0 time=0@note_on channel=4 note=42 velocity=0 time=0@note_on channel=0 note=74 velocity=127 time=0.0013888895833333334@note_on channel=1 note=67 velocity=127 time=0@note_on channel=2 note=58 velocity=127 time=0@note_on channel=3 note=55 velocity=127 time=0@note_on channel=4 note=43 velocity=127 time=0@note_on channel=2 note=58 velocity=0 time=0.16527786041666667@note_on channel=2 note=62 velocity=127 time=0.0013888895833333334@note_on channel=0 note=74 velocity=0 time=0.16527786041666667@note_on channel=2 note=62 velocity=0 time=0@note_on channel=3 note=55 velocity=0 time=0@note_on channel=4 note=43 velocity=0 time=0@note_on channel=0 note=75 velocity=127 time=0.0013888895833333334@note_on channel=2 note=60 velocity=127 time=0@note_on channel=3 note=51 velocity=127 time=0@note_on channel=4 note=39 velocity=127 time=0@note_on channel=2 note=60 velocity=0 time=0.16527786041666667@note_on channel=2 note=63 velocity=127 time=0.0013888895833333334@note_on channel=0 note=75 velocity=0 time=0.16527786041666667@note_on channel=1 note=67 velocity=0 time=0@note_on channel=2 note=63 velocity=0 time=0@note_on channel=3 note=51 velocity=0 time=0@note_on channel=4 note=39 velocity=0 time=0@note_on channel=0 note=77 velocity=127 time=0.0013888895833333334@note_on channel=1 note=67 velocity=127 time=0@note_on channel=2 note=62 velocity=127 time=0@note_on channel=3 note=47 velocity=127 time=0@note_on channel=4 note=35 velocity=127 time=0@note_on channel=2 note=62 velocity=0 time=0.16527786041666667@note_on channel=2 note=65 velocity=127 time=0.0013888895833333334@note_on channel=0 note=77 velocity=0 time=0.16527786041666667@note_on channel=1 note=67 velocity=0 time=0@note_on channel=2 note=65 velocity=0 time=0@note_on channel=3 note=47 velocity=0 time=0@note_on channel=4 note=35 velocity=0 time=0@note_on channel=0 note=79 velocity=127 time=0.0013888895833333334@note_on channel=1 note=71 velocity=127 time=0@note_on channel=2 note=63 velocity=127 time=0@note_on channel=3 note=43 velocity=127 time=0@note_on channel=4 note=31 velocity=127 time=0@note_on channel=2 note=63 velocity=0 time=0.16527786041666667@note_on channel=2 note=62 velocity=127 time=0.0013888895833333334@note_on channel=0 note=79 velocity=0 time=0.16527786041666667@note_on channel=1 note=71 velocity=0 time=0@note_on channel=2 note=62 velocity=0 time=0@note_on channel=3 note=43 velocity=0 time=0@note_on channel=4 note=31 velocity=0 time=0@note_on channel=0 note=75 velocity=127 time=0.0013888895833333334@note_on channel=1 note=67 velocity=127 time=0@note_on channel=2 note=60 velocity=127 time=0@note_on channel=3 note=48 velocity=127 time=0@note_on channel=4 note=36 velocity=127 time=0@note_on channel=2 note=60 velocity=0 time=0.16527786041666667@note_on channel=2 note=62 velocity=127 time=0.0013888895833333334@note_on channel=0 note=75 velocity=0 time=0.16527786041666667@note_on channel=2 note=62 velocity=0 time=0@note_on channel=0 note=79 velocity=127 time=0.0013888895833333334@note_on channel=2 note=59 velocity=127 time=0@note_on channel=2 note=59 velocity=0 time=0.16527786041666667@note_on channel=2 note=62 velocity=127 time=0.0013888895833333334@note_on channel=0 note=79 velocity=0 time=0.16527786041666667@note_on channel=1 note=67 velocity=0 time=0@note_on channel=2 note=62 velocity=0 time=0@note_on channel=3 note=48 velocity=0 time=0@note_on channel=4 note=36 velocity=0 time=0@note_on channel=0 note=84 velocity=127 time=0.0013888895833333334@note_on channel=2 note=60 velocity=127 time=0@note_on channel=2 note=60 velocity=0 time=0.16527786041666667@note_on channel=2 note=63 velocity=127 time=0.0013888895833333334@note_on channel=0 note=84 velocity=0 time=0.16527786041666667@note_on channel=2 note=63 velocity=0 time=0@note_on channel=0 note=83 velocity=127 time=0.0013888895833333334@note_on channel=2 note=62 velocity=127 time=0@note_on channel=3 note=55 velocity=127 time=0@note_on channel=4 note=43 velocity=127 time=0@note_on channel=2 note=62 velocity=0 time=0.16527786041666667@note_on channel=2 note=65 velocity=127 time=0.0013888895833333334@note_on channel=0 note=83 velocity=0 time=0.16527786041666667@note_on channel=2 note=65 velocity=0 time=0@note_on channel=3 note=55 velocity=0 time=0@note_on channel=4 note=43 velocity=0 time=0@note_on channel=0 note=84 velocity=127 time=0.0013888895833333334@note_on channel=2 note=63 velocity=127 time=0@note_on channel=3 note=48 velocity=127 time=0@note_on channel=4 note=36 velocity=127 time=0@note_on channel=2 note=63 velocity=0 time=0.16527786041666667@note_on channel=2 note=65 velocity=127 time=0.0013888895833333334@note_on channel=0 note=84 velocity=0 time=0.16527786041666667@note_on channel=2 note=65 velocity=0 time=0@note_on channel=0 note=79 velocity=127 time=0.0013888895833333334@note_on channel=1 note=67 velocity=127 time=0@note_on channel=2 note=62 velocity=127 time=0@note_on channel=2 note=62 velocity=0 time=0.16527786041666667@note_on channel=2 note=63 velocity=127 time=0.0013888895833333334@note_on channel=0 note=79 velocity=0 time=0.16527786041666667@note_on channel=1 note=67 velocity=0 time=0@note_on channel=2 note=63 velocity=0 time=0@note_on channel=3 note=48 velocity=0 time=0@note_on channel=4 note=36 velocity=0 time=0@note_on channel=0 note=75 velocity=127 time=0.0013888895833333334@note_on channel=1 note=72 velocity=127 time=0@note_on channel=2 note=60 velocity=127 time=0@note_on channel=2 note=60 velocity=0 time=0.16527786041666667@note_on channel=2 note=63 velocity=127 time=0.0013888895833333334@note_on channel=0 note=75 velocity=0 time=0.16527786041666667@note_on channel=1 note=72 velocity=0 time=0@note_on channel=2 note=63 velocity=0 time=0@note_on channel=0 note=77 velocity=127 time=0.0013888895833333334@note_on channel=1 note=71 velocity=127 time=0@note_on channel=2 note=62 velocity=127 time=0@note_on channel=3 note=43 velocity=127 time=0@note_on channel=4 note=31 velocity=127 time=0@note_on channel=2 note=62 velocity=0 time=0.16527786041666667@note_on channel=2 note=65 velocity=127 time=0.0013888895833333334@note_on channel=0 note=77 velocity=0 time=0.16527786041666667@note_on channel=1 note=71 velocity=0 time=0@note_on channel=2 note=65 velocity=0 time=0@note_on channel=3 note=43 velocity=0 time=0@note_on channel=4 note=31 velocity=0 time=0@note_on channel=0 note=79 velocity=127 time=0.0013888895833333334@note_on channel=1 note=72 velocity=127 time=0@note_on channel=2 note=63 velocity=127 time=0@note_on channel=3 note=48 velocity=127 time=0@note_on channel=4 note=36 velocity=127 time=0@note_on channel=2 note=63 velocity=0 time=0.16527786041666667@note_on channel=2 note=65 velocity=127 time=0.0013888895833333334@note_on channel=0 note=79 velocity=0 time=0.16527786041666667@note_on channel=1 note=72 velocity=0 time=0@note_on channel=2 note=65 velocity=0 time=0@note_on channel=3 note=48 velocity=0 time=0@note_on channel=4 note=36 velocity=0 time=0@note_on channel=0 note=79 velocity=127 time=0.0013888895833333334@note_on channel=1 note=71 velocity=127 time=0@note_on channel=2 note=62 velocity=127 time=0@note_on channel=3 note=55 velocity=127 time=0@note_on channel=4 note=43 velocity=127 time=0@note_on channel=2 note=62 velocity=0 time=0.16527786041666667@note_on channel=2 note=63 velocity=127 time=0.0013888895833333334@note_on channel=0 note=79 velocity=0 time=0.16527786041666667@note_on channel=1 note=71 velocity=0 time=0@note_on channel=2 note=63 velocity=0 time=0@note_on channel=3 note=55 velocity=0 time=0@note_on channel=4 note=43 velocity=0 time=0@note_on channel=0 note=79 velocity=127 time=0.0013888895833333334@note_on channel=1 note=75 velocity=127 time=0@note_on channel=2 note=60 velocity=127 time=0@note_on channel=3 note=60 velocity=127 time=0@note_on channel=4 note=48 velocity=127 time=0@note_on channel=1 note=75 velocity=0 time=0.16527786041666667@note_on channel=2 note=60 velocity=0 time=0@note_on channel=1 note=72 velocity=127 time=0.0013888895833333334@note_on channel=2 note=63 velocity=127 time=0@note_on channel=0 note=79 velocity=0 time=0.16527786041666667@note_on channel=1 note=72 velocity=0 time=0@note_on channel=2 note=63 velocity=0 time=0@note_on channel=3 note=60 velocity=0 time=0@note_on channel=4 note=48 velocity=0 time=0@note_on channel=0 note=79 velocity=127 time=0.0013888895833333334@note_on channel=1 note=74 velocity=127 time=0@note_on channel=2 note=62 velocity=127 time=0@note_on channel=3 note=59 velocity=127 time=0@note_on channel=4 note=47 velocity=127 time=0@note_on channel=1 note=74 velocity=0 time=0.16527786041666667@note_on channel=2 note=62 velocity=0 time=0@note_on channel=1 note=67 velocity=127 time=0.0013888895833333334@note_on channel=2 note=65 velocity=127 time=0@note_on channel=0 note=79 velocity=0 time=0.16527786041666667@note_on channel=1 note=67 velocity=0 time=0@note_on channel=2 note=65 velocity=0 time=0@note_on channel=3 note=59 velocity=0 time=0@note_on channel=4 note=47 velocity=0 time=0@note_on channel=0 note=79 velocity=127 time=0.0013888895833333334@note_on channel=1 note=72 velocity=127 time=0@note_on channel=2 note=63 velocity=127 time=0@note_on channel=3 note=60 velocity=127 time=0@note_on channel=4 note=48 velocity=127 time=0@note_on channel=1 note=72 velocity=0 time=0.16527786041666667@note_on channel=2 note=63 velocity=0 time=0@note_on channel=1 note=71 velocity=127 time=0.0013888895833333334@note_on channel=2 note=62 velocity=127 time=0@note_on channel=1 note=71 velocity=0 time=0.16527786041666667@note_on channel=2 note=62 velocity=0 time=0@note_on channel=3 note=60 velocity=0 time=0@note_on channel=4 note=48 velocity=0 time=0@note_on channel=1 note=72 velocity=127 time=0.0013888895833333334@note_on channel=2 note=63 velocity=127 time=0@note_on channel=3 note=56 velocity=127 time=0@note_on channel=4 note=44 velocity=127 time=0@note_on channel=1 note=72 velocity=0 time=0.16527786041666667@note_on channel=2 note=63 velocity=0 time=0@note_on channel=1 note=75 velocity=127 time=0.0013888895833333334@note_on channel=2 note=67 velocity=127 time=0@note_on channel=0 note=79 velocity=0 time=0.16527786041666667@note_on channel=1 note=75 velocity=0 time=0@note_on channel=2 note=67 velocity=0 time=0@note_on channel=3 note=56 velocity=0 time=0@note_on channel=4 note=44 velocity=0 time=0@note_on channel=1 note=74 velocity=127 time=0.0013888895833333334@note_on channel=2 note=68 velocity=127 time=0@note_on channel=3 note=53 velocity=127 time=0@note_on channel=4 note=41 velocity=127 time=0@note_on channel=1 note=74 velocity=0 time=0.16527786041666667@note_on channel=2 note=68 velocity=0 time=0@note_on channel=1 note=75 velocity=127 time=0.0013888895833333334@note_on channel=2 note=67 velocity=127 time=0@note_on channel=1 note=75 velocity=0 time=0.16527786041666667@note_on channel=2 note=67 velocity=0 time=0@note_on channel=3 note=53 velocity=0 time=0@note_on channel=4 note=41 velocity=0 time=0@note_on channel=1 note=74 velocity=127 time=0.0013888895833333334@note_on channel=2 note=65 velocity=127 time=0@note_on channel=3 note=50 velocity=127 time=0@note_on channel=4 note=38 velocity=127 time=0@note_on channel=1 note=74 velocity=0 time=0.16527786041666667@note_on channel=2 note=65 velocity=0 time=0@note_on channel=1 note=72 velocity=127 time=0.0013888895833333334@note_on channel=2 note=63 velocity=127 time=0@note_on channel=1 note=72 velocity=0 time=0.16527786041666667@note_on channel=2 note=63 velocity=0 time=0@note_on channel=3 note=50 velocity=0 time=0@note_on channel=4 note=38 velocity=0 time=0@note_on channel=1 note=71 velocity=127 time=0.0013888895833333334@note_on channel=2 note=62 velocity=127 time=0@note_on channel=3 note=55 velocity=127 time=0@note_on channel=4 note=43 velocity=127 time=0@note_on channel=1 note=71 velocity=0 time=0.16527786041666667@note_on channel=2 note=62 velocity=0 time=0@note_on channel=1 note=69 velocity=127 time=0.0013888895833333334@note_on channel=2 note=60 velocity=127 time=0@note_on channel=1 note=69 velocity=0 time=0.16527786041666667@note_on channel=2 note=60 velocity=0 time=0@note_on channel=3 note=55 velocity=0 time=0@note_on channel=4 note=43 velocity=0 time=0@note_on channel=1 note=71 velocity=127 time=0.0013888895833333334@note_on channel=2 note=62 velocity=127 time=0@note_on channel=3 note=50 velocity=127 time=0@note_on channel=4 note=38 velocity=127 time=0@note_on channel=1 note=71 velocity=0 time=0.16527786041666667@note_on channel=2 note=62 velocity=0 time=0@note_on channel=1 note=72 velocity=127 time=0.0013888895833333334@note_on channel=2 note=63 velocity=127 time=0@note_on channel=1 note=72 velocity=0 time=0.16527786041666667@note_on channel=2 note=63 velocity=0 time=0@note_on channel=3 note=50 velocity=0 time=0@note_on channel=4 note=38 velocity=0 time=0@note_on channel=1 note=74 velocity=127 time=0.0013888895833333334@note_on channel=2 note=65 velocity=127 time=0@note_on channel=3 note=47 velocity=127 time=0@note_on channel=4 note=35 velocity=127 time=0@note_on channel=1 note=74 velocity=0 time=0.16527786041666667@note_on channel=2 note=65 velocity=0 time=0@note_on channel=1 note=72 velocity=127 time=0.0013888895833333334@note_on channel=2 note=62 velocity=127 time=0@note_on channel=1 note=72 velocity=0 time=0.16527786041666667@note_on channel=2 note=62 velocity=0 time=0@note_on channel=3 note=47 velocity=0 time=0@note_on channel=4 note=35 velocity=0 time=0@note_on channel=0 note=79 velocity=127 time=0.0013888895833333334@note_on channel=1 note=74 velocity=127 time=0@note_on channel=2 note=67 velocity=127 time=0@note_on channel=3 note=43 velocity=127 time=0@note_on channel=4 note=31 velocity=127 time=0@note_on channel=1 note=74 velocity=0 time=0.16527786041666667@note_on channel=1 note=71 velocity=127 time=0.0013888895833333334@note_on channel=0 note=79 velocity=0 time=0.16527786041666667@note_on channel=1 note=71 velocity=0 time=0@note_on channel=3 note=43 velocity=0 time=0@note_on channel=4 note=31 velocity=0 time=0@note_on channel=0 note=75 velocity=127 time=0.0013888895833333334@note_on channel=1 note=72 velocity=127 time=0@note_on channel=3 note=48 velocity=127 time=0@note_on channel=4 note=36 velocity=127 time=0@note_on channel=0 note=75 velocity=0 time=0.16527786041666667@note_on channel=0 note=77 velocity=127 time=0.0013888895833333334@note_on channel=0 note=77 velocity=0 time=0.16527786041666667@note_on channel=1 note=72 velocity=0 time=0@note_on channel=3 note=48 velocity=0 time=0@note_on channel=4 note=36 velocity=0 time=0@note_on channel=0 note=74 velocity=127 time=0.0013888895833333334@note_on channel=1 note=71 velocity=127 time=0@note_on channel=3 note=43 velocity=127 time=0@note_on channel=4 note=31 velocity=127 time=0@note_on channel=0 note=74 velocity=0 time=0.16527786041666667@note_on channel=0 note=75 velocity=127 time=0.0013888895833333334@note_on channel=0 note=75 velocity=0 time=0.16527786041666667@note_on channel=1 note=71 velocity=0 time=0@note_on channel=3 note=43 velocity=0 time=0@note_on channel=4 note=31 velocity=0 time=0@note_on channel=0 note=72 velocity=127 time=0.0013888895833333334@note_on channel=1 note=72 velocity=127 time=0@note_on channel=3 note=39 velocity=127 time=0@note_on channel=4 note=27 velocity=127 time=0@note_on channel=2 note=67 velocity=0 time=0.16527786041666667@note_on channel=2 note=67 velocity=127 time=0.0013888895833333334@note_on channel=0 note=72 velocity=0 time=0.16527786041666667@note_on channel=1 note=72 velocity=0 time=0@note_on channel=2 note=67 velocity=0 time=0@note_on channel=3 note=39 velocity=0 time=0@note_on channel=4 note=27 velocity=0 time=0@note_on channel=0 note=84 velocity=127 time=0.0013888895833333334@note_on channel=1 note=79 velocity=127 time=0@note_on channel=2 note=65 velocity=127 time=0@note_on channel=3 note=36 velocity=127 time=0@note_on channel=4 note=24 velocity=127 time=0@note_on channel=2 note=65 velocity=0 time=0.16527786041666667@note_on channel=2 note=63 velocity=127 time=0.0013888895833333334@note_on channel=0 note=84 velocity=0 time=0.16527786041666667@note_on channel=1 note=79 velocity=0 time=0@note_on channel=2 note=63 velocity=0 time=0@note_on channel=3 note=36 velocity=0 time=0@note_on channel=4 note=24 velocity=0 time=0@note_on channel=0 note=83 velocity=127 time=0.0013888895833333334@note_on channel=1 note=79 velocity=127 time=0@note_on channel=2 note=62 velocity=127 time=0@note_on channel=3 note=43 velocity=127 time=0@note_on channel=4 note=31 velocity=127 time=0@note_on channel=0 note=83 velocity=0 time=0.16527786041666667@note_on channel=2 note=62 velocity=0 time=0@note_on channel=0 note=84 velocity=112 time=0.0013888895833333334@note_on channel=2 note=63 velocity=112 time=0@note_on channel=0 note=84 velocity=0 time=0.16527786041666667@note_on channel=1 note=79 velocity=0 time=0@note_on channel=2 note=63 velocity=0 time=0@note_on channel=3 note=43 velocity=0 time=0@note_on channel=4 note=31 velocity=0 time=0@note_on channel=0 note=81 velocity=112 time=0.0013888895833333334@note_on channel=2 note=60 velocity=112 time=0@note_on channel=3 note=55 velocity=112 time=0@note_on channel=0 note=81 velocity=0 time=0.16527786041666667@note_on channel=2 note=60 velocity=0 time=0@note_on channel=0 note=83 velocity=112 time=0.0013888895833333334@note_on channel=2 note=62 velocity=112 time=0@note_on channel=0 note=83 velocity=0 time=0.16527786041666667@note_on channel=2 note=62 velocity=0 time=0@note_on channel=3 note=55 velocity=0 time=0@note_on channel=0 note=79 velocity=112 time=0.0013888895833333334@note_on channel=2 note=63 velocity=112 time=0@note_on channel=3 note=48 velocity=112 time=0@note_on channel=0 note=79 velocity=0 time=0.3319446104166667@note_on channel=3 note=48 velocity=0 time=0@note_on channel=0 note=84 velocity=112 time=0.0013888895833333334@note_on channel=3 note=51 velocity=112 time=0@note_on channel=0 note=84 velocity=0 time=0.16527786041666667@note_on channel=0 note=79 velocity=112 time=0.0013888895833333334@note_on channel=0 note=79 velocity=0 time=0.16527786041666667@note_on channel=3 note=51 velocity=0 time=0@note_on channel=0 note=80 velocity=112 time=0.0013888895833333334@note_on channel=3 note=53 velocity=112 time=0@note_on channel=3 note=53 velocity=0 time=0.16527786041666667@note_on channel=3 note=48 velocity=112 time=0.0013888895833333334@note_on channel=0 note=80 velocity=0 time=0.16527786041666667@note_on channel=3 note=48 velocity=0 time=0@note_on channel=0 note=77 velocity=112 time=0.0013888895833333334@note_on channel=3 note=56 velocity=112 time=0@note_on channel=0 note=77 velocity=0 time=0.3319446104166667@note_on channel=2 note=63 velocity=0 time=0@note_on channel=0 note=70 velocity=112 time=0.0013888895833333334@note_on channel=2 note=62 velocity=112 time=0@note_on channel=3 note=56 velocity=0 time=0.16527786041666667@note_on channel=3 note=46 velocity=112 time=0.0013888895833333334@note_on channel=0 note=70 velocity=0 time=0.16527786041666667@note_on channel=3 note=46 velocity=0 time=0@note_on channel=0 note=82 velocity=112 time=0.0013888895833333334@note_on channel=3 note=50 velocity=112 time=0@note_on channel=3 note=50 velocity=0 time=0.16527786041666667@note_on channel=3 note=46 velocity=112 time=0.0013888895833333334@note_on channel=0 note=82 velocity=0 time=0.16527786041666667@note_on channel=3 note=46 velocity=0 time=0@note_on channel=0 note=79 velocity=112 time=0.0013888895833333334@note_on channel=3 note=51 velocity=112 time=0@note_on channel=0 note=79 velocity=0 time=0.16527786041666667@note_on channel=3 note=51 velocity=0 time=0@note_on channel=0 note=80 velocity=112 time=0.0013888895833333334@note_on channel=3 note=46 velocity=112 time=0@note_on channel=0 note=80 velocity=0 time=0.16527786041666667@note_on channel=3 note=46 velocity=0 time=0@note_on channel=0 note=77 velocity=112 time=0.0013888895833333334@note_on channel=3 note=55 velocity=112 time=0@note_on channel=0 note=77 velocity=0 time=0.16527786041666667@note_on channel=0 note=79 velocity=112 time=0.0013888895833333334@note_on channel=0 note=79 velocity=0 time=0.16527786041666667@note_on channel=2 note=62 velocity=0 time=0@note_on channel=0 note=75 velocity=112 time=0.0013888895833333334@note_on channel=2 note=60 velocity=112 time=0@note_on channel=3 note=55 velocity=0 time=0.16527786041666667@note_on channel=3 note=44 velocity=112 time=0.0013888895833333334@note_on channel=0 note=75 velocity=0 time=0.16527786041666667@note_on channel=3 note=44 velocity=0 time=0@note_on channel=0 note=80 velocity=112 time=0.0013888895833333334@note_on channel=3 note=48 velocity=112 time=0@note_on channel=0 note=80 velocity=0 time=0.16527786041666667@note_on channel=3 note=48 velocity=0 time=0@note_on channel=0 note=75 velocity=112 time=0.0013888895833333334@note_on channel=3 note=44 velocity=112 time=0@note_on channel=0 note=75 velocity=0 time=0.16527786041666667@note_on channel=3 note=44 velocity=0 time=0@note_on channel=0 note=77 velocity=112 time=0.0013888895833333334@note_on channel=3 note=50 velocity=112 time=0@note_on channel=3 note=50 velocity=0 time=0.16527786041666667@note_on channel=3 note=43 velocity=112 time=0.0013888895833333334@note_on channel=0 note=77 velocity=0 time=0.16527786041666667@note_on channel=3 note=43 velocity=0 time=0@note_on channel=0 note=74 velocity=112 time=0.0013888895833333334@note_on channel=3 note=53 velocity=112 time=0@note_on channel=0 note=74 velocity=0 time=0.3319446104166667@note_on channel=2 note=60 velocity=0 time=0@note_on channel=0 note=67 velocity=112 time=0.0013888895833333334@note_on channel=2 note=59 velocity=112 time=0@note_on channel=3 note=53 velocity=0 time=0.16527786041666667@note_on channel=3 note=43 velocity=112 time=0.0013888895833333334@note_on channel=0 note=67 velocity=0 time=0.16527786041666667@note_on channel=3 note=43 velocity=0 time=0@note_on channel=0 note=79 velocity=112 time=0.0013888895833333334@note_on channel=3 note=47 velocity=112 time=0@note_on channel=3 note=47 velocity=0 time=0.16527786041666667@note_on channel=3 note=43 velocity=112 time=0.0013888895833333334@note_on channel=0 note=79 velocity=0 time=0.16527786041666667@note_on channel=2 note=59 velocity=0 time=0@note_on channel=3 note=43 velocity=0 time=0@note_on channel=0 note=75 velocity=112 time=0.0013888895833333334@note_on channel=2 note=60 velocity=112 time=0@note_on channel=3 note=48 velocity=112 time=0@note_on channel=0 note=75 velocity=0 time=0.16527786041666667@note_on channel=3 note=48 velocity=0 time=0@note_on channel=0 note=77 velocity=112 time=0.0013888895833333334@note_on channel=3 note=43 velocity=112 time=0@note_on channel=0 note=77 velocity=0 time=0.16527786041666667@note_on channel=3 note=43 velocity=0 time=0@note_on channel=0 note=74 velocity=112 time=0.0013888895833333334@note_on channel=3 note=50 velocity=112 time=0@note_on channel=0 note=74 velocity=0 time=0.16527786041666667@note_on channel=3 note=50 velocity=0 time=0@note_on channel=0 note=75 velocity=112 time=0.0013888895833333334@note_on channel=3 note=43 velocity=112 time=0@note_on channel=0 note=75 velocity=0 time=0.16527786041666667@note_on channel=2 note=60 velocity=0 time=0@note_on channel=3 note=43 velocity=0 time=0@note_on channel=0 note=72 velocity=112 time=0.0013888895833333334@note_on channel=3 note=51 velocity=112 time=0@note_on channel=0 note=72 velocity=0 time=0.16527786041666667@note_on channel=3 note=51 velocity=0 time=0@note_on channel=0 note=75 velocity=112 time=0.0013888895833333334@note_on channel=2 note=67 velocity=112 time=0@note_on channel=3 note=43 velocity=112 time=0@note_on channel=0 note=75 velocity=0 time=0.16527786041666667@note_on channel=2 note=67 velocity=0 time=0@note_on channel=3 note=43 velocity=0 time=0@note_on channel=0 note=74 velocity=112 time=0.0013888895833333334@note_on channel=2 note=65 velocity=112 time=0@note_on channel=3 note=53 velocity=112 time=0@note_on channel=0 note=74 velocity=0 time=0.16527786041666667@note_on channel=2 note=65 velocity=0 time=0@note_on channel=3 note=53 velocity=0 time=0@note_on channel=0 note=72 velocity=112 time=0.0013888895833333334@note_on channel=2 note=63 velocity=112 time=0@note_on channel=3 note=43 velocity=112 time=0@note_on channel=0 note=72 velocity=0 time=0.16527786041666667@note_on channel=2 note=63 velocity=0 time=0@note_on channel=3 note=43 velocity=0 time=0@note_on channel=0 note=71 velocity=112 time=0.0013888895833333334@note_on channel=2 note=62 velocity=112 time=0@note_on channel=3 note=55 velocity=112 time=0@note_on channel=0 note=71 velocity=0 time=0.16527786041666667@note_on channel=3 note=55 velocity=0 time=0@note_on channel=0 note=72 velocity=112 time=0.0013888895833333334@note_on channel=3 note=43 velocity=112 time=0@note_on channel=0 note=72 velocity=0 time=0.16527786041666667@note_on channel=3 note=43 velocity=0 time=0@note_on channel=0 note=69 velocity=112 time=0.0013888895833333334@note_on channel=3 note=57 velocity=112 time=0@note_on channel=0 note=69 velocity=0 time=0.16527786041666667@note_on channel=3 note=57 velocity=0 time=0@note_on channel=0 note=71 velocity=112 time=0.0013888895833333334@note_on channel=3 note=43 velocity=112 time=0@note_on channel=0 note=71 velocity=0 time=0.16527786041666667@note_on channel=3 note=43 velocity=0 time=0@note_on channel=0 note=67 velocity=112 time=0.0013888895833333334@note_on channel=3 note=59 velocity=112 time=0@note_on channel=0 note=67 velocity=0 time=0.16527786041666667@note_on channel=2 note=62 velocity=0 time=0@note_on channel=3 note=59 velocity=0 time=0@note_on channel=0 note=77 velocity=112 time=0.0013888895833333334@note_on channel=2 note=68 velocity=112 time=0@note_on channel=3 note=43 velocity=112 time=0@note_on channel=0 note=77 velocity=0 time=0.16527786041666667@note_on channel=2 note=68 velocity=0 time=0@note_on channel=3 note=43 velocity=0 time=0@note_on channel=0 note=75 velocity=112 time=0.0013888895833333334@note_on channel=2 note=67 velocity=112 time=0@note_on channel=3 note=55 velocity=112 time=0@note_on channel=0 note=75 velocity=0 time=0.16527786041666667@note_on channel=2 note=67 velocity=0 time=0@note_on channel=3 note=55 velocity=0 time=0@note_on channel=0 note=74 velocity=112 time=0.0013888895833333334@note_on channel=2 note=65 velocity=112 time=0@note_on channel=3 note=43 velocity=112 time=0@note_on channel=0 note=74 velocity=0 time=0.16527786041666667@note_on channel=2 note=65 velocity=0 time=0@note_on channel=3 note=43 velocity=0 time=0@note_on channel=0 note=72 velocity=112 time=0.0013888895833333334@note_on channel=2 note=63 velocity=112 time=0@note_on channel=3 note=60 velocity=112 time=0@note_on channel=0 note=72 velocity=0 time=0.16527786041666667@note_on channel=2 note=63 velocity=0 time=0@note_on channel=0 note=67 velocity=112 time=0.0013888895833333334@note_on channel=2 note=65 velocity=112 time=0@note_on channel=0 note=67 velocity=0 time=0.16527786041666667@note_on channel=2 note=65 velocity=0 time=0@note_on channel=0 note=74 velocity=112 time=0.0013888895833333334@note_on channel=2 note=62 velocity=112 time=0@note_on channel=0 note=74 velocity=0 time=0.16527786041666667@note_on channel=2 note=62 velocity=0 time=0@note_on channel=0 note=67 velocity=112 time=0.0013888895833333334@note_on channel=2 note=63 velocity=112 time=0@note_on channel=0 note=67 velocity=0 time=0.16527786041666667@note_on channel=2 note=63 velocity=0 time=0@note_on channel=3 note=60 velocity=0 time=0@note_on channel=0 note=75 velocity=112 time=0.0013888895833333334@note_on channel=2 note=60 velocity=112 time=0@note_on channel=0 note=75 velocity=0 time=0.16527786041666667@note_on channel=2 note=60 velocity=0 time=0@note_on channel=0 note=67 velocity=112 time=0.0013888895833333334@note_on channel=2 note=63 velocity=112 time=0@note_on channel=0 note=67 velocity=0 time=0.16527786041666667@note_on channel=2 note=63 velocity=0 time=0@note_on channel=0 note=77 velocity=112 time=0.0013888895833333334@note_on channel=2 note=62 velocity=112 time=0@note_on channel=0 note=77 velocity=0 time=0.16527786041666667@note_on channel=2 note=62 velocity=0 time=0@note_on channel=0 note=67 velocity=112 time=0.0013888895833333334@note_on channel=2 note=60 velocity=112 time=0@note_on channel=0 note=67 velocity=0 time=0.16527786041666667@note_on channel=2 note=60 velocity=0 time=0@note_on channel=0 note=79 velocity=112 time=0.0013888895833333334@note_on channel=2 note=59 velocity=112 time=0@note_on channel=0 note=79 velocity=0 time=0.16527786041666667@note_on channel=2 note=59 velocity=0 time=0@note_on channel=0 note=67 velocity=112 time=0.0013888895833333334@note_on channel=2 note=60 velocity=112 time=0@note_on channel=0 note=67 velocity=0 time=0.16527786041666667@note_on channel=2 note=60 velocity=0 time=0@note_on channel=0 note=81 velocity=112 time=0.0013888895833333334@note_on channel=2 note=57 velocity=112 time=0@note_on channel=0 note=81 velocity=0 time=0.16527786041666667@note_on channel=2 note=57 velocity=0 time=0@note_on channel=0 note=67 velocity=112 time=0.0013888895833333334@note_on channel=2 note=59 velocity=112 time=0@note_on channel=0 note=67 velocity=0 time=0.16527786041666667@note_on channel=2 note=59 velocity=0 time=0@note_on channel=0 note=83 velocity=112 time=0.0013888895833333334@note_on channel=2 note=55 velocity=112 time=0@note_on channel=2 note=55 velocity=0 time=0.16527786041666667@note_on channel=2 note=59 velocity=112 time=0.0013888895833333334@note_on channel=3 note=55 velocity=112 time=0@note_on channel=0 note=83 velocity=0 time=0.16527786041666667@note_on channel=2 note=59 velocity=0 time=0@note_on channel=3 note=55 velocity=0 time=0@note_on channel=0 note=79 velocity=112 time=0.0013888895833333334@note_on channel=2 note=57 velocity=112 time=0@note_on channel=3 note=53 velocity=112 time=0@note_on channel=2 note=57 velocity=0 time=0.16527786041666667@note_on channel=3 note=53 velocity=0 time=0@note_on channel=2 note=59 velocity=112 time=0.0013888895833333334@note_on channel=3 note=55 velocity=112 time=0@note_on channel=0 note=79 velocity=0 time=0.16527786041666667@note_on channel=2 note=59 velocity=0 time=0@note_on channel=3 note=55 velocity=0 time=0@note_on channel=0 note=79 velocity=112 time=0.0013888895833333334@note_on channel=2 note=60 velocity=112 time=0@note_on channel=3 note=51 velocity=112 time=0@note_on channel=2 note=60 velocity=0 time=0.16527786041666667@note_on channel=3 note=51 velocity=0 time=0@note_on channel=2 note=55 velocity=112 time=0.0013888895833333334@note_on channel=3 note=53 velocity=112 time=0@note_on channel=2 note=55 velocity=0 time=0.16527786041666667@note_on channel=3 note=53 velocity=0 time=0@note_on channel=2 note=62 velocity=112 time=0.0013888895833333334@note_on channel=3 note=50 velocity=112 time=0@note_on channel=2 note=62 velocity=0 time=0.16527786041666667@note_on channel=3 note=50 velocity=0 time=0@note_on channel=2 note=55 velocity=112 time=0.0013888895833333334@note_on channel=3 note=51 velocity=112 time=0@note_on channel=2 note=55 velocity=0 time=0.16527786041666667@note_on channel=3 note=51 velocity=0 time=0@note_on channel=2 note=63 velocity=112 time=0.0013888895833333334@note_on channel=3 note=48 velocity=112 time=0@note_on channel=2 note=63 velocity=0 time=0.16527786041666667@note_on channel=3 note=48 velocity=0 time=0@note_on channel=2 note=55 velocity=112 time=0.0013888895833333334@note_on channel=3 note=51 velocity=112 time=0@note_on channel=2 note=55 velocity=0 time=0.16527786041666667@note_on channel=3 note=51 velocity=0 time=0@note_on channel=2 note=65 velocity=112 time=0.0013888895833333334@note_on channel=3 note=50 velocity=112 time=0@note_on channel=2 note=65 velocity=0 time=0.16527786041666667@note_on channel=3 note=50 velocity=0 time=0@note_on channel=2 note=55 velocity=112 time=0.0013888895833333334@note_on channel=3 note=48 velocity=112 time=0@note_on channel=2 note=55 velocity=0 time=0.16527786041666667@note_on channel=3 note=48 velocity=0 time=0@note_on channel=2 note=67 velocity=112 time=0.0013888895833333334@note_on channel=3 note=47 velocity=112 time=0@note_on channel=2 note=67 velocity=0 time=0.16527786041666667@note_on channel=3 note=47 velocity=0 time=0@note_on channel=2 note=55 velocity=112 time=0.0013888895833333334@note_on channel=3 note=48 velocity=112 time=0@note_on channel=2 note=55 velocity=0 time=0.16527786041666667@note_on channel=3 note=48 velocity=0 time=0@note_on channel=2 note=69 velocity=112 time=0.0013888895833333334@note_on channel=3 note=45 velocity=112 time=0@note_on channel=2 note=69 velocity=0 time=0.16527786041666667@note_on channel=3 note=45 velocity=0 time=0@note_on channel=2 note=55 velocity=112 time=0.0013888895833333334@note_on channel=3 note=47 velocity=112 time=0@note_on channel=2 note=55 velocity=0 time=0.16527786041666667@note_on channel=3 note=47 velocity=0 time=0@note_on channel=2 note=71 velocity=112 time=0.0013888895833333334@note_on channel=3 note=43 velocity=112 time=0@note_on channel=2 note=71 velocity=0 time=0.16527786041666667@note_on channel=2 note=67 velocity=112 time=0.0013888895833333334@note_on channel=2 note=67 velocity=0 time=0.16527786041666667@note_on channel=3 note=43 velocity=0 time=0@note_on channel=2 note=69 velocity=112 time=0.0013888895833333334@note_on channel=3 note=55 velocity=112 time=0@note_on channel=2 note=69 velocity=0 time=0.16527786041666667@note_on channel=2 note=71 velocity=112 time=0.0013888895833333334@note_on channel=2 note=71 velocity=0 time=0.16527786041666667@note_on channel=3 note=55 velocity=0 time=0@note_on channel=2 note=72 velocity=112 time=0.0013888895833333334@note_on channel=3 note=51 velocity=112 time=0@note_on channel=0 note=79 velocity=0 time=0.16527786041666667@note_on channel=0 note=75 velocity=112 time=0.0013888895833333334@note_on channel=0 note=75 velocity=0 time=0.16527786041666667@note_on channel=3 note=51 velocity=0 time=0@note_on channel=0 note=77 velocity=112 time=0.0013888895833333334@note_on channel=3 note=48 velocity=112 time=0@note_on channel=0 note=77 velocity=0 time=0.16527786041666667@note_on channel=0 note=79 velocity=112 time=0.0013888895833333334@note_on channel=0 note=79 velocity=0 time=0.16527786041666667@note_on channel=3 note=48 velocity=0 time=0@note_on channel=0 note=80 velocity=112 time=0.0013888895833333334@note_on channel=3 note=53 velocity=112 time=0@note_on channel=2 note=72 velocity=0 time=0.16527786041666667@note_on channel=2 note=65 velocity=112 time=0.0013888895833333334@note_on channel=2 note=65 velocity=0 time=0.16527786041666667@note_on channel=3 note=53 velocity=0 time=0@note_on channel=2 note=67 velocity=112 time=0.0013888895833333334@note_on channel=3 note=51 velocity=112 time=0@note_on channel=2 note=67 velocity=0 time=0.16527786041666667@note_on channel=2 note=68 velocity=112 time=0.0013888895833333334@note_on channel=2 note=68 velocity=0 time=0.16527786041666667@note_on channel=3 note=51 velocity=0 time=0@note_on channel=2 note=70 velocity=112 time=0.0013888895833333334@note_on channel=3 note=50 velocity=112 time=0@note_on channel=0 note=80 velocity=0 time=0.16527786041666667@note_on channel=0 note=74 velocity=112 time=0.0013888895833333334@note_on channel=0 note=74 velocity=0 time=0.16527786041666667@note_on channel=3 note=50 velocity=0 time=0@note_on channel=0 note=75 velocity=112 time=0.0013888895833333334@note_on channel=3 note=46 velocity=112 time=0@note_on channel=0 note=75 velocity=0 time=0.16527786041666667@note_on channel=0 note=77 velocity=112 time=0.0013888895833333334@note_on channel=0 note=77 velocity=0 time=0.16527786041666667@note_on channel=3 note=46 velocity=0 time=0@note_on channel=0 note=79 velocity=112 time=0.0013888895833333334@note_on channel=3 note=51 velocity=112 time=0@note_on channel=2 note=70 velocity=0 time=0.16527786041666667@note_on channel=2 note=63 velocity=112 time=0.0013888895833333334@note_on channel=2 note=63 velocity=0 time=0.16527786041666667@note_on channel=3 note=51 velocity=0 time=0@note_on channel=2 note=65 velocity=112 time=0.0013888895833333334@note_on channel=3 note=50 velocity=112 time=0@note_on channel=2 note=65 velocity=0 time=0.16527786041666667@note_on channel=2 note=67 velocity=112 time=0.0013888895833333334@note_on channel=2 note=67 velocity=0 time=0.16527786041666667@note_on channel=3 note=50 velocity=0 time=0@note_on channel=2 note=68 velocity=112 time=0.0013888895833333334@note_on channel=3 note=48 velocity=112 time=0@note_on channel=0 note=79 velocity=0 time=0.16527786041666667@note_on channel=0 note=82 velocity=112 time=0.0013888895833333334@note_on channel=0 note=82 velocity=0 time=0.16527786041666667@note_on channel=3 note=48 velocity=0 time=0@note_on channel=0 note=80 velocity=112 time=0.0013888895833333334@note_on channel=3 note=46 velocity=112 time=0@note_on channel=0 note=80 velocity=0 time=0.16527786041666667@note_on channel=0 note=79 velocity=112 time=0.0013888895833333334@note_on channel=0 note=79 velocity=0 time=0.16527786041666667@note_on channel=3 note=46 velocity=0 time=0@note_on channel=0 note=77 velocity=112 time=0.0013888895833333334@note_on channel=3 note=48 velocity=112 time=0@note_on channel=0 note=77 velocity=0 time=0.16527786041666667@note_on channel=0 note=75 velocity=112 time=0.0013888895833333334@note_on channel=0 note=75 velocity=0 time=0.16527786041666667@note_on channel=3 note=48 velocity=0 time=0@note_on channel=0 note=74 velocity=112 time=0.0013888895833333334@note_on channel=3 note=44 velocity=112 time=0@note_on channel=0 note=74 velocity=0 time=0.16527786041666667@note_on channel=0 note=75 velocity=112 time=0.0013888895833333334@note_on channel=0 note=75 velocity=0 time=0.16527786041666667@note_on channel=3 note=44 velocity=0 time=0@note_on channel=0 note=74 velocity=112 time=0.0013888895833333334@note_on channel=3 note=46 velocity=112 time=0@note_on channel=2 note=68 velocity=0 time=0.16527786041666667@note_on channel=2 note=72 velocity=112 time=0.0013888895833333334@note_on channel=0 note=74 velocity=0 time=0.16527786041666667@note_on channel=2 note=72 velocity=0 time=0@note_on channel=0 note=77 velocity=112 time=0.0013888895833333334@note_on channel=2 note=70 velocity=112 time=0@note_on channel=2 note=70 velocity=0 time=0.16527786041666667@note_on channel=2 note=68 velocity=112 time=0.0013888895833333334@note_on channel=0 note=77 velocity=0 time=0.16527786041666667@note_on channel=2 note=68 velocity=0 time=0@note_on channel=3 note=46 velocity=0 time=0@note_on channel=0 note=70 velocity=112 time=0.0013888895833333334@note_on channel=2 note=67 velocity=112 time=0@note_on channel=2 note=67 velocity=0 time=0.16527786041666667@note_on channel=2 note=68 velocity=112 time=0.0013888895833333334@note_on channel=0 note=70 velocity=0 time=0.16527786041666667@note_on channel=2 note=68 velocity=0 time=0@note_on channel=0 note=74 velocity=112 time=0.0013888895833333334@note_on channel=1 note=70 velocity=112 time=0@note_on channel=2 note=65 velocity=112 time=0@note_on channel=3 note=46 velocity=112 time=0@note_on channel=4 note=34 velocity=112 time=0@note_on channel=2 note=65 velocity=0 time=0.16527786041666667@note_on channel=2 note=67 velocity=112 time=0.0013888895833333334@note_on channel=0 note=74 velocity=0 time=0.16527786041666667@note_on channel=1 note=70 velocity=0 time=0@note_on channel=2 note=67 velocity=0 time=0@note_on channel=3 note=46 velocity=0 time=0@note_on channel=4 note=34 velocity=0 time=0@note_on channel=0 note=75 velocity=112 time=0.0013888895833333334@note_on channel=1 note=67 velocity=112 time=0@note_on channel=2 note=63 velocity=112 time=0@note_on channel=3 note=39 velocity=112 time=0@note_on channel=4 note=27 velocity=112 time=0@note_on channel=1 note=67 velocity=0 time=0.16527786041666667@note_on channel=2 note=63 velocity=0 time=0@note_on channel=1 note=68 velocity=112 time=0.0013888895833333334@note_on channel=2 note=65 velocity=112 time=0@note_on channel=1 note=68 velocity=0 time=0.16527786041666667@note_on channel=2 note=65 velocity=0 time=0@note_on channel=1 note=65 velocity=112 time=0.0013888895833333334@note_on channel=2 note=62 velocity=112 time=0@note_on channel=1 note=65 velocity=0 time=0.16527786041666667@note_on channel=2 note=62 velocity=0 time=0@note_on channel=1 note=67 velocity=112 time=0.0013888895833333334@note_on channel=2 note=63 velocity=112 time=0@note_on channel=1 note=67 velocity=0 time=0.16527786041666667@note_on channel=2 note=63 velocity=0 time=0@note_on channel=3 note=39 velocity=0 time=0@note_on channel=4 note=27 velocity=0 time=0@note_on channel=1 note=63 velocity=112 time=0.0013888895833333334@note_on channel=2 note=60 velocity=112 time=0@note_on channel=0 note=75 velocity=0 time=0.16527786041666667@note_on channel=0 note=77 velocity=112 time=0.0013888895833333334@note_on channel=0 note=77 velocity=0 time=0.16527786041666667@note_on channel=1 note=63 velocity=0 time=0@note_on channel=2 note=60 velocity=0 time=0@note_on channel=0 note=79 velocity=112 time=0.0013888895833333334@note_on channel=1 note=75 velocity=112 time=0@note_on channel=2 note=65 velocity=112 time=0@note_on channel=0 note=79 velocity=0 time=0.16527786041666667@note_on channel=0 note=81 velocity=112 time=0.0013888895833333334@note_on channel=0 note=81 velocity=0 time=0.16527786041666667@note_on channel=1 note=75 velocity=0 time=0@note_on channel=2 note=65 velocity=0 time=0@note_on channel=0 note=82 velocity=112 time=0.0013888895833333334@note_on channel=1 note=74 velocity=112 time=0@note_on channel=2 note=58 velocity=112 time=0@note_on channel=1 note=74 velocity=0 time=0.16527786041666667@note_on channel=2 note=58 velocity=0 time=0@note_on channel=1 note=75 velocity=112 time=0.0013888895833333334@note_on channel=2 note=60 velocity=112 time=0@note_on channel=1 note=75 velocity=0 time=0.16527786041666667@note_on channel=2 note=60 velocity=0 time=0@note_on channel=1 note=72 velocity=112 time=0.0013888895833333334@note_on channel=2 note=56 velocity=112 time=0@note_on channel=1 note=72 velocity=0 time=0.16527786041666667@note_on channel=2 note=56 velocity=0 time=0@note_on channel=1 note=74 velocity=112 time=0.0013888895833333334@note_on channel=2 note=58 velocity=112 time=0@note_on channel=1 note=74 velocity=0 time=0.16527786041666667@note_on channel=2 note=58 velocity=0 time=0@note_on channel=1 note=70 velocity=112 time=0.0013888895833333334@note_on channel=2 note=55 velocity=112 time=0@note_on channel=1 note=70 velocity=0 time=0.3319446104166667@note_on channel=1 note=75 velocity=112 time=0.0013888895833333334@note_on channel=1 note=75 velocity=0 time=0.16527786041666667@note_on channel=1 note=70 velocity=112 time=0.0013888895833333334@note_on channel=0 note=82 velocity=0 time=0.16527786041666667@note_on channel=1 note=70 velocity=0 time=0@note_on channel=1 note=72 velocity=112 time=0.0013888895833333334@note_on channel=0 note=75 velocity=112 time=0.16666675@note_on channel=0 note=75 velocity=0 time=0.16527786041666667@note_on channel=1 note=72 velocity=0 time=0@note_on channel=0 note=77 velocity=112 time=0.0013888895833333334@note_on channel=1 note=68 velocity=113 time=0@note_on channel=0 note=77 velocity=0 time=0.16527786041666667@note_on channel=0 note=79 velocity=113 time=0.0013888895833333334@note_on channel=0 note=79 velocity=0 time=0.16527786041666667@note_on channel=1 note=68 velocity=0 time=0@note_on channel=2 note=55 velocity=0 time=0@note_on channel=0 note=80 velocity=113 time=0.0013888895833333334@note_on channel=1 note=62 velocity=114 time=0@note_on channel=2 note=53 velocity=114 time=0@note_on channel=0 note=80 velocity=0 time=0.16527786041666667@note_on channel=0 note=79 velocity=114 time=0.0013888895833333334@note_on channel=0 note=79 velocity=0 time=0.16527786041666667@note_on channel=1 note=62 velocity=0 time=0@note_on channel=0 note=77 velocity=115 time=0.0013888895833333334@note_on channel=1 note=74 velocity=115 time=0@note_on channel=0 note=77 velocity=0 time=0.16527786041666667@note_on channel=0 note=80 velocity=115 time=0.0013888895833333334@note_on channel=0 note=80 velocity=0 time=0.16527786041666667@note_on channel=1 note=74 velocity=0 time=0@note_on channel=0 note=79 velocity=116 time=0.0013888895833333334@note_on channel=1 note=70 velocity=116 time=0@note_on channel=1 note=70 velocity=0 time=0.16527786041666667@note_on channel=1 note=72 velocity=117 time=0.0013888895833333334@note_on channel=1 note=72 velocity=0 time=0.16527786041666667@note_on channel=1 note=68 velocity=117 time=0.0013888895833333334@note_on channel=1 note=68 velocity=0 time=0.16527786041666667@note_on channel=1 note=70 velocity=118 time=0.0013888895833333334@note_on channel=1 note=70 velocity=0 time=0.16527786041666667@note_on channel=2 note=53 velocity=0 time=0@note_on channel=1 note=67 velocity=119 time=0.0013888895833333334@note_on channel=2 note=51 velocity=119 time=0@note_on channel=1 note=67 velocity=0 time=0.3319446104166667@note_on channel=1 note=70 velocity=120 time=0.0013888895833333334@note_on channel=1 note=70 velocity=0 time=0.16527786041666667@note_on channel=1 note=67 velocity=120 time=0.0013888895833333334@note_on channel=0 note=79 velocity=0 time=0.16527786041666667@note_on channel=1 note=67 velocity=0 time=0@note_on channel=1 note=68 velocity=121 time=0.0013888895833333334@note_on channel=0 note=72 velocity=121 time=0.16666675@note_on channel=0 note=72 velocity=0 time=0.16527786041666667@note_on channel=1 note=68 velocity=0 time=0@note_on channel=0 note=74 velocity=122 time=0.0013888895833333334@note_on channel=1 note=65 velocity=122 time=0@note_on channel=0 note=74 velocity=0 time=0.16527786041666667@note_on channel=0 note=75 velocity=122 time=0.0013888895833333334@note_on channel=0 note=75 velocity=0 time=0.16527786041666667@note_on channel=1 note=65 velocity=0 time=0@note_on channel=2 note=51 velocity=0 time=0@note_on channel=0 note=77 velocity=123 time=0.0013888895833333334@note_on channel=1 note=58 velocity=123 time=0@note_on channel=2 note=50 velocity=123 time=0@note_on channel=0 note=77 velocity=0 time=0.16527786041666667@note_on channel=0 note=75 velocity=124 time=0.0013888895833333334@note_on channel=0 note=75 velocity=0 time=0.16527786041666667@note_on channel=1 note=58 velocity=0 time=0@note_on channel=0 note=74 velocity=124 time=0.0013888895833333334@note_on channel=1 note=68 velocity=124 time=0@note_on channel=0 note=74 velocity=0 time=0.16527786041666667@note_on channel=0 note=77 velocity=125 time=0.0013888895833333334@note_on channel=0 note=77 velocity=0 time=0.16527786041666667@note_on channel=1 note=68 velocity=0 time=0@note_on channel=2 note=50 velocity=0 time=0@note_on channel=0 note=70 velocity=126 time=0.0013888895833333334@note_on channel=1 note=67 velocity=126 time=0@note_on channel=2 note=51 velocity=126 time=0@note_on channel=1 note=67 velocity=0 time=0.16527786041666667@note_on channel=1 note=68 velocity=126 time=0.0013888895833333334@note_on channel=0 note=70 velocity=0 time=0.16527786041666667@note_on channel=1 note=68 velocity=0 time=0@note_on channel=2 note=51 velocity=0 time=0@note_on channel=0 note=74 velocity=126 time=0.0013888895833333334@note_on channel=1 note=65 velocity=126 time=0@note_on channel=2 note=53 velocity=126 time=0@note_on channel=3 note=46 velocity=126 time=0@note_on channel=4 note=34 velocity=126 time=0@note_on channel=1 note=65 velocity=0 time=0.16527786041666667@note_on channel=1 note=67 velocity=126 time=0.0013888895833333334@note_on channel=0 note=74 velocity=0 time=0.16527786041666667@note_on channel=1 note=67 velocity=0 time=0@note_on channel=2 note=53 velocity=0 time=0@note_on channel=3 note=46 velocity=0 time=0@note_on channel=4 note=34 velocity=0 time=0@note_on channel=0 note=75 velocity=126 time=0.0013888895833333334@note_on channel=1 note=63 velocity=126 time=0@note_on channel=2 note=55 velocity=126 time=0@note_on channel=3 note=51 velocity=126 time=0@note_on channel=4 note=39 velocity=126 time=0@note_on channel=1 note=63 velocity=0 time=0.16527786041666667@note_on channel=1 note=67 velocity=126 time=0.0013888895833333334@note_on channel=0 note=75 velocity=0 time=0.16527786041666667@note_on channel=1 note=67 velocity=0 time=0@note_on channel=2 note=55 velocity=0 time=0@note_on channel=3 note=51 velocity=0 time=0@note_on channel=4 note=39 velocity=0 time=0@note_on channel=1 note=65 velocity=126 time=0.0013888895833333334@note_on channel=2 note=58 velocity=126 time=0@note_on channel=3 note=50 velocity=126 time=0@note_on channel=4 note=38 velocity=126 time=0@note_on channel=1 note=65 velocity=0 time=0.16527786041666667@note_on channel=1 note=68 velocity=126 time=0.0013888895833333334@note_on channel=1 note=68 velocity=0 time=0.16527786041666667@note_on channel=2 note=58 velocity=0 time=0@note_on channel=3 note=50 velocity=0 time=0@note_on channel=4 note=38 velocity=0 time=0@note_on channel=1 note=67 velocity=126 time=0.0013888895833333334@note_on channel=2 note=58 velocity=126 time=0@note_on channel=3 note=51 velocity=126 time=0@note_on channel=4 note=39 velocity=126 time=0@note_on channel=1 note=67 velocity=0 time=0.16527786041666667@note_on channel=1 note=68 velocity=126 time=0.0013888895833333334@note_on channel=1 note=68 velocity=0 time=0.16527786041666667@note_on channel=2 note=58 velocity=0 time=0@note_on channel=0 note=70 velocity=126 time=0.0013888895833333334@note_on channel=1 note=65 velocity=126 time=0@note_on channel=1 note=65 velocity=0 time=0.16527786041666667@note_on channel=1 note=67 velocity=126 time=0.0013888895833333334@note_on channel=0 note=70 velocity=0 time=0.16527786041666667@note_on channel=1 note=67 velocity=0 time=0@note_on channel=3 note=51 velocity=0 time=0@note_on channel=4 note=39 velocity=0 time=0@note_on channel=0 note=75 velocity=126 time=0.0013888895833333334@note_on channel=1 note=63 velocity=126 time=0@note_on channel=1 note=63 velocity=0 time=0.16527786041666667@note_on channel=1 note=67 velocity=126 time=0.0013888895833333334@note_on channel=0 note=75 velocity=0 time=0.16527786041666667@note_on channel=1 note=67 velocity=0 time=0@note_on channel=0 note=74 velocity=126 time=0.0013888895833333334@note_on channel=1 note=65 velocity=126 time=0@note_on channel=1 note=65 velocity=0 time=0.16527786041666667@note_on channel=1 note=68 velocity=126 time=0.0013888895833333334@note_on channel=0 note=74 velocity=0 time=0.16527786041666667@note_on channel=1 note=68 velocity=0 time=0@note_on channel=0 note=75 velocity=126 time=0.0013888895833333334@note_on channel=1 note=67 velocity=126 time=0@note_on channel=1 note=67 velocity=0 time=0.16527786041666667@note_on channel=1 note=68 velocity=126 time=0.0013888895833333334@note_on channel=0 note=75 velocity=0 time=0.16527786041666667@note_on channel=1 note=68 velocity=0 time=0@note_on channel=0 note=77 velocity=126 time=0.0013888895833333334@note_on channel=1 note=65 velocity=126 time=0@note_on channel=2 note=62 velocity=126 time=0@note_on channel=3 note=46 velocity=126 time=0@note_on channel=4 note=34 velocity=126 time=0@note_on channel=1 note=65 velocity=0 time=0.16527786041666667@note_on channel=1 note=67 velocity=126 time=0.0013888895833333334@note_on channel=0 note=77 velocity=0 time=0.16527786041666667@note_on channel=1 note=67 velocity=0 time=0@note_on channel=2 note=62 velocity=0 time=0@note_on channel=3 note=46 velocity=0 time=0@note_on channel=4 note=34 velocity=0 time=0@note_on channel=0 note=79 velocity=126 time=0.0013888895833333334@note_on channel=1 note=63 velocity=126 time=0@note_on channel=2 note=58 velocity=126 time=0@note_on channel=3 note=51 velocity=126 time=0@note_on channel=4 note=39 velocity=126 time=0@note_on channel=1 note=63 velocity=0 time=0.16527786041666667@note_on channel=1 note=67 velocity=126 time=0.0013888895833333334@note_on channel=0 note=79 velocity=0 time=0.16527786041666667@note_on channel=1 note=67 velocity=0 time=0@note_on channel=2 note=58 velocity=0 time=0@note_on channel=3 note=51 velocity=0 time=0@note_on channel=4 note=39 velocity=0 time=0@note_on channel=1 note=65 velocity=126 time=0.0013888895833333334@note_on channel=2 note=58 velocity=126 time=0@note_on channel=3 note=50 velocity=126 time=0@note_on channel=4 note=38 velocity=126 time=0@note_on channel=1 note=65 velocity=0 time=0.16527786041666667@note_on channel=1 note=68 velocity=126 time=0.0013888895833333334@note_on channel=1 note=68 velocity=0 time=0.16527786041666667@note_on channel=2 note=58 velocity=0 time=0@note_on channel=3 note=50 velocity=0 time=0@note_on channel=4 note=38 velocity=0 time=0@note_on channel=1 note=67 velocity=126 time=0.0013888895833333334@note_on channel=2 note=58 velocity=126 time=0@note_on channel=3 note=51 velocity=126 time=0@note_on channel=4 note=39 velocity=126 time=0@note_on channel=1 note=67 velocity=0 time=0.16527786041666667@note_on channel=1 note=70 velocity=126 time=0.0013888895833333334@note_on channel=1 note=70 velocity=0 time=0.16527786041666667@note_on channel=2 note=58 velocity=0 time=0@note_on channel=3 note=51 velocity=0 time=0@note_on channel=4 note=39 velocity=0 time=0@note_on channel=1 note=69 velocity=126 time=0.0013888895833333334@note_on channel=2 note=63 velocity=126 time=0@note_on channel=3 note=53 velocity=126 time=0@note_on channel=4 note=41 velocity=126 time=0@note_on channel=1 note=69 velocity=0 time=0.16527786041666667@note_on channel=1 note=72 velocity=126 time=0.0013888895833333334@note_on channel=1 note=72 velocity=0 time=0.16527786041666667@note_on channel=2 note=63 velocity=0 time=0@note_on channel=3 note=53 velocity=0 time=0@note_on channel=4 note=41 velocity=0 time=0@note_on channel=1 note=70 velocity=126 time=0.0013888895833333334@note_on channel=2 note=62 velocity=126 time=0@note_on channel=3 note=55 velocity=126 time=0@note_on channel=4 note=43 velocity=126 time=0@note_on channel=1 note=70 velocity=0 time=0.16527786041666667@note_on channel=1 note=74 velocity=126 time=0.0013888895833333334@note_on channel=1 note=74 velocity=0 time=0.16527786041666667@note_on channel=2 note=62 velocity=0 time=0@note_on channel=3 note=55 velocity=0 time=0@note_on channel=4 note=43 velocity=0 time=0@note_on channel=1 note=72 velocity=126 time=0.0013888895833333334@note_on channel=2 note=65 velocity=126 time=0@note_on channel=3 note=57 velocity=126 time=0@note_on channel=4 note=45 velocity=126 time=0@note_on channel=1 note=72 velocity=0 time=0.16527786041666667@note_on channel=1 note=75 velocity=126 time=0.0013888895833333334@note_on channel=1 note=75 velocity=0 time=0.16527786041666667@note_on channel=2 note=65 velocity=0 time=0@note_on channel=3 note=57 velocity=0 time=0@note_on channel=4 note=45 velocity=0 time=0@note_on channel=1 note=74 velocity=126 time=0.0013888895833333334@note_on channel=2 note=65 velocity=126 time=0@note_on channel=3 note=58 velocity=126 time=0@note_on channel=4 note=46 velocity=126 time=0@note_on channel=1 note=74 velocity=0 time=0.16527786041666667@note_on channel=1 note=75 velocity=126 time=0.0013888895833333334@note_on channel=1 note=75 velocity=0 time=0.16527786041666667@note_on channel=2 note=65 velocity=0 time=0@note_on channel=3 note=58 velocity=0 time=0@note_on channel=4 note=46 velocity=0 time=0@note_on channel=0 note=77 velocity=126 time=0.0013888895833333334@note_on channel=1 note=72 velocity=126 time=0@note_on channel=1 note=72 velocity=0 time=0.16527786041666667@note_on channel=1 note=74 velocity=126 time=0.0013888895833333334@note_on channel=0 note=77 velocity=0 time=0.16527786041666667@note_on channel=1 note=74 velocity=0 time=0@note_on channel=0 note=82 velocity=126 time=0.0013888895833333334@note_on channel=1 note=70 velocity=126 time=0@note_on channel=1 note=70 velocity=0 time=0.16527786041666667@note_on channel=1 note=74 velocity=126 time=0.0013888895833333334@note_on channel=0 note=82 velocity=0 time=0.16527786041666667@note_on channel=1 note=74 velocity=0 time=0@note_on channel=0 note=81 velocity=126 time=0.0013888895833333334@note_on channel=1 note=72 velocity=126 time=0@note_on channel=1 note=72 velocity=0 time=0.16527786041666667@note_on channel=1 note=75 velocity=126 time=0.0013888895833333334@note_on channel=0 note=81 velocity=0 time=0.16527786041666667@note_on channel=1 note=75 velocity=0 time=0@note_on channel=0 note=82 velocity=126 time=0.0013888895833333334@note_on channel=1 note=74 velocity=126 time=0@note_on channel=1 note=74 velocity=0 time=0.16527786041666667@note_on channel=1 note=75 velocity=126 time=0.0013888895833333334@note_on channel=0 note=82 velocity=0 time=0.16527786041666667@note_on channel=1 note=75 velocity=0 time=0@note_on channel=1 note=72 velocity=126 time=0.0013888895833333334@note_on channel=2 note=53 velocity=126 time=0@note_on channel=1 note=72 velocity=0 time=0.16527786041666667@note_on channel=1 note=74 velocity=126 time=0.0013888895833333334@note_on channel=1 note=74 velocity=0 time=0.16527786041666667@note_on channel=2 note=53 velocity=0 time=0@note_on channel=1 note=70 velocity=126 time=0.0013888895833333334@note_on channel=2 note=58 velocity=126 time=0@note_on channel=1 note=70 velocity=0 time=0.16527786041666667@note_on channel=1 note=74 velocity=126 time=0.0013888895833333334@note_on channel=1 note=74 velocity=0 time=0.16527786041666667@note_on channel=2 note=58 velocity=0 time=0@note_on channel=1 note=72 velocity=126 time=0.0013888895833333334@note_on channel=2 note=57 velocity=126 time=0@note_on channel=1 note=72 velocity=0 time=0.16527786041666667@note_on channel=1 note=75 velocity=126 time=0.0013888895833333334@note_on channel=1 note=75 velocity=0 time=0.16527786041666667@note_on channel=2 note=57 velocity=0 time=0@note_on channel=1 note=74 velocity=126 time=0.0013888895833333334@note_on channel=2 note=58 velocity=126 time=0@note_on channel=1 note=74 velocity=0 time=0.16527786041666667@note_on channel=1 note=75 velocity=126 time=0.0013888895833333334@note_on channel=1 note=75 velocity=0 time=0.16527786041666667@note_on channel=2 note=58 velocity=0 time=0@note_on channel=1 note=72 velocity=126 time=0.0013888895833333334@note_on channel=2 note=57 velocity=126 time=0@note_on channel=3 note=41 velocity=126 time=0@note_on channel=4 note=29 velocity=126 time=0@note_on channel=1 note=72 velocity=0 time=0.16527786041666667@note_on channel=1 note=74 velocity=126 time=0.0013888895833333334@note_on channel=1 note=74 velocity=0 time=0.16527786041666667@note_on channel=2 note=57 velocity=0 time=0@note_on channel=3 note=41 velocity=0 time=0@note_on channel=4 note=29 velocity=0 time=0@note_on channel=1 note=70 velocity=126 time=0.0013888895833333334@note_on channel=2 note=62 velocity=126 time=0@note_on channel=3 note=46 velocity=126 time=0@note_on channel=4 note=34 velocity=126 time=0@note_on channel=1 note=70 velocity=0 time=0.16527786041666667@note_on channel=1 note=74 velocity=126 time=0.0013888895833333334@note_on channel=1 note=74 velocity=0 time=0.16527786041666667@note_on channel=2 note=62 velocity=0 time=0@note_on channel=3 note=46 velocity=0 time=0@note_on channel=4 note=34 velocity=0 time=0@note_on channel=1 note=72 velocity=126 time=0.0013888895833333334@note_on channel=2 note=65 velocity=126 time=0@note_on channel=3 note=45 velocity=126 time=0@note_on channel=4 note=33 velocity=126 time=0@note_on channel=1 note=72 velocity=0 time=0.16527786041666667@note_on channel=1 note=75 velocity=126 time=0.0013888895833333334@note_on channel=1 note=75 velocity=0 time=0.16527786041666667@note_on channel=2 note=65 velocity=0 time=0@note_on channel=3 note=45 velocity=0 time=0@note_on channel=4 note=33 velocity=0 time=0@note_on channel=1 note=74 velocity=126 time=0.0013888895833333334@note_on channel=2 note=58 velocity=126 time=0@note_on channel=3 note=46 velocity=126 time=0@note_on channel=4 note=34 velocity=126 time=0@note_on channel=1 note=74 velocity=0 time=0.16527786041666667@note_on channel=1 note=77 velocity=126 time=0.0013888895833333334@note_on channel=1 note=77 velocity=0 time=0.16527786041666667@note_on channel=3 note=46 velocity=0 time=0@note_on channel=4 note=34 velocity=0 time=0@note_on channel=1 note=76 velocity=126 time=0.0013888895833333334@note_on channel=3 note=48 velocity=126 time=0@note_on channel=4 note=36 velocity=126 time=0@note_on channel=1 note=76 velocity=0 time=0.16527786041666667@note_on channel=1 note=67 velocity=126 time=0.0013888895833333334@note_on channel=1 note=67 velocity=0 time=0.16527786041666667@note_on channel=2 note=58 velocity=0 time=0@note_on channel=3 note=48 velocity=0 time=0@note_on channel=4 note=36 velocity=0 time=0@note_on channel=1 note=65 velocity=126 time=0.0013888895833333334@note_on channel=3 note=50 velocity=126 time=0@note_on channel=4 note=38 velocity=126 time=0@note_on channel=1 note=65 velocity=0 time=0.16527786041666667@note_on channel=1 note=68 velocity=126 time=0.0013888895833333334@note_on channel=1 note=68 velocity=0 time=0.16527786041666667@note_on channel=3 note=50 velocity=0 time=0@note_on channel=4 note=38 velocity=0 time=0@note_on channel=1 note=67 velocity=126 time=0.0013888895833333334@note_on channel=2 note=60 velocity=126 time=0@note_on channel=3 note=52 velocity=126 time=0@note_on channel=4 note=40 velocity=126 time=0@note_on channel=1 note=67 velocity=0 time=0.16527786041666667@note_on channel=1 note=70 velocity=126 time=0.0013888895833333334@note_on channel=1 note=70 velocity=0 time=0.16527786041666667@note_on channel=2 note=60 velocity=0 time=0@note_on channel=3 note=52 velocity=0 time=0@note_on channel=4 note=40 velocity=0 time=0@note_on channel=0 note=84 velocity=127 time=0.0013888895833333334@note_on channel=1 note=68 velocity=127 time=0@note_on channel=2 note=65 velocity=127 time=0@note_on channel=3 note=53 velocity=127 time=0@note_on channel=4 note=41 velocity=127 time=0@note_on channel=1 note=68 velocity=0 time=0.16527786041666667@note_on channel=1 note=70 velocity=127 time=0.0013888895833333334@note_on channel=1 note=70 velocity=0 time=0.16527786041666667@note_on channel=2 note=65 velocity=0 time=0@note_on channel=1 note=67 velocity=127 time=0.0013888895833333334@note_on channel=2 note=67 velocity=127 time=0@note_on channel=1 note=67 velocity=0 time=0.16527786041666667@note_on channel=1 note=68 velocity=127 time=0.0013888895833333334@note_on channel=1 note=68 velocity=0 time=0.16527786041666667@note_on channel=2 note=67 velocity=0 time=0@note_on channel=3 note=53 velocity=0 time=0@note_on channel=4 note=41 velocity=0 time=0@note_on channel=1 note=77 velocity=127 time=0.0013888895833333334@note_on channel=2 note=68 velocity=127 time=0@note_on channel=1 note=77 velocity=0 time=0.16527786041666667@note_on channel=1 note=79 velocity=127 time=0.0013888895833333334@note_on channel=1 note=79 velocity=0 time=0.16527786041666667@note_on channel=2 note=68 velocity=0 time=0@note_on channel=1 note=75 velocity=127 time=0.0013888895833333334@note_on channel=2 note=65 velocity=127 time=0@note_on channel=1 note=75 velocity=0 time=0.16527786041666667@note_on channel=1 note=77 velocity=127 time=0.0013888895833333334@note_on channel=1 note=77 velocity=0 time=0.16527786041666667@note_on channel=2 note=65 velocity=0 time=0@note_on channel=1 note=73 velocity=127 time=0.0013888895833333334@note_on channel=2 note=70 velocity=127 time=0@note_on channel=3 note=46 velocity=127 time=0@note_on channel=4 note=34 velocity=127 time=0@note_on channel=2 note=70 velocity=0 time=0.16527786041666667@note_on channel=2 note=72 velocity=127 time=0.0013888895833333334@note_on channel=2 note=72 velocity=0 time=0.16527786041666667@note_on channel=3 note=46 velocity=0 time=0@note_on channel=4 note=34 velocity=0 time=0@note_on channel=2 note=68 velocity=127 time=0.0013888895833333334@note_on channel=3 note=48 velocity=127 time=0@note_on channel=4 note=36 velocity=127 time=0@note_on channel=2 note=68 velocity=0 time=0.16527786041666667@note_on channel=2 note=70 velocity=127 time=0.0013888895833333334@note_on channel=0 note=84 velocity=0 time=0.16527786041666667@note_on channel=2 note=70 velocity=0 time=0@note_on channel=3 note=48 velocity=0 time=0@note_on channel=4 note=36 velocity=0 time=0@note_on channel=0 note=82 velocity=127 time=0.0013888895833333334@note_on channel=2 note=67 velocity=127 time=0@note_on channel=3 note=49 velocity=127 time=0@note_on channel=4 note=37 velocity=127 time=0@note_on channel=2 note=67 velocity=0 time=0.16527786041666667@note_on channel=2 note=68 velocity=127 time=0.0013888895833333334@note_on channel=0 note=82 velocity=0 time=0.16527786041666667@note_on channel=2 note=68 velocity=0 time=0@note_on channel=3 note=49 velocity=0 time=0@note_on channel=4 note=37 velocity=0 time=0@note_on channel=0 note=80 velocity=127 time=0.0013888895833333334@note_on channel=2 note=65 velocity=127 time=0@note_on channel=3 note=46 velocity=127 time=0@note_on channel=4 note=34 velocity=127 time=0@note_on channel=2 note=65 velocity=0 time=0.16527786041666667@note_on channel=2 note=67 velocity=127 time=0.0013888895833333334@note_on channel=0 note=80 velocity=0 time=0.16527786041666667@note_on channel=1 note=73 velocity=0 time=0@note_on channel=2 note=67 velocity=0 time=0@note_on channel=3 note=46 velocity=0 time=0@note_on channel=4 note=34 velocity=0 time=0@note_on channel=0 note=79 velocity=127 time=0.0013888895833333334@note_on channel=1 note=79 velocity=127 time=0@note_on channel=2 note=63 velocity=127 time=0@note_on channel=3 note=51 velocity=127 time=0@note_on channel=4 note=39 velocity=127 time=0@note_on channel=1 note=79 velocity=0 time=0.16527786041666667@note_on channel=1 note=80 velocity=127 time=0.0013888895833333334@note_on channel=0 note=79 velocity=0 time=0.16527786041666667@note_on channel=1 note=80 velocity=0 time=0@note_on channel=2 note=63 velocity=0 time=0@note_on channel=0 note=80 velocity=127 time=0.0013888895833333334@note_on channel=1 note=77 velocity=127 time=0@note_on channel=2 note=65 velocity=127 time=0@note_on channel=1 note=77 velocity=0 time=0.16527786041666667@note_on channel=1 note=79 velocity=127 time=0.0013888895833333334@note_on channel=0 note=80 velocity=0 time=0.16527786041666667@note_on channel=1 note=79 velocity=0 time=0@note_on channel=2 note=65 velocity=0 time=0@note_on channel=3 note=51 velocity=0 time=0@note_on channel=4 note=39 velocity=0 time=0@note_on channel=0 note=82 velocity=127 time=0.0013888895833333334@note_on channel=1 note=75 velocity=127 time=0@note_on channel=2 note=67 velocity=127 time=0@note_on channel=1 note=75 velocity=0 time=0.16527786041666667@note_on channel=1 note=77 velocity=127 time=0.0013888895833333334@note_on channel=1 note=77 velocity=0 time=0.16527786041666667@note_on channel=2 note=67 velocity=0 time=0@note_on channel=1 note=73 velocity=127 time=0.0013888895833333334@note_on channel=2 note=63 velocity=127 time=0@note_on channel=1 note=73 velocity=0 time=0.16527786041666667@note_on channel=1 note=75 velocity=127 time=0.0013888895833333334@note_on channel=1 note=75 velocity=0 time=0.16527786041666667@note_on channel=2 note=63 velocity=0 time=0@note_on channel=1 note=72 velocity=127 time=0.0013888895833333334@note_on channel=2 note=68 velocity=127 time=0@note_on channel=3 note=44 velocity=127 time=0@note_on channel=4 note=32 velocity=127 time=0@note_on channel=2 note=68 velocity=0 time=0.16527786041666667@note_on channel=2 note=70 velocity=127 time=0.0013888895833333334@note_on channel=2 note=70 velocity=0 time=0.16527786041666667@note_on channel=3 note=44 velocity=0 time=0@note_on channel=4 note=32 velocity=0 time=0@note_on channel=2 note=67 velocity=127 time=0.0013888895833333334@note_on channel=3 note=46 velocity=127 time=0@note_on channel=4 note=34 velocity=127 time=0@note_on channel=2 note=67 velocity=0 time=0.16527786041666667@note_on channel=2 note=68 velocity=127 time=0.0013888895833333334@note_on channel=0 note=82 velocity=0 time=0.16527786041666667@note_on channel=2 note=68 velocity=0 time=0@note_on channel=3 note=46 velocity=0 time=0@note_on channel=4 note=34 velocity=0 time=0@note_on channel=0 note=80 velocity=127 time=0.0013888895833333334@note_on channel=2 note=65 velocity=127 time=0@note_on channel=3 note=48 velocity=127 time=0@note_on channel=4 note=36 velocity=127 time=0@note_on channel=2 note=65 velocity=0 time=0.16527786041666667@note_on channel=2 note=67 velocity=127 time=0.0013888895833333334@note_on channel=0 note=80 velocity=0 time=0.16527786041666667@note_on channel=2 note=67 velocity=0 time=0@note_on channel=3 note=48 velocity=0 time=0@note_on channel=4 note=36 velocity=0 time=0@note_on channel=0 note=79 velocity=127 time=0.0013888895833333334@note_on channel=2 note=63 velocity=127 time=0@note_on channel=3 note=44 velocity=127 time=0@note_on channel=4 note=32 velocity=127 time=0@note_on channel=2 note=63 velocity=0 time=0.16527786041666667@note_on channel=2 note=65 velocity=127 time=0.0013888895833333334@note_on channel=0 note=79 velocity=0 time=0.16527786041666667@note_on channel=1 note=72 velocity=0 time=0@note_on channel=2 note=65 velocity=0 time=0@note_on channel=3 note=44 velocity=0 time=0@note_on channel=4 note=32 velocity=0 time=0@note_on channel=0 note=77 velocity=127 time=0.0013888895833333334@note_on channel=1 note=77 velocity=127 time=0@note_on channel=2 note=61 velocity=127 time=0@note_on channel=3 note=49 velocity=127 time=0@note_on channel=4 note=37 velocity=127 time=0@note_on channel=1 note=77 velocity=0 time=0.16527786041666667@note_on channel=1 note=79 velocity=127 time=0.0013888895833333334@note_on channel=0 note=77 velocity=0 time=0.16527786041666667@note_on channel=1 note=79 velocity=0 time=0@note_on channel=2 note=61 velocity=0 time=0@note_on channel=0 note=79 velocity=127 time=0.0013888895833333334@note_on channel=1 note=75 velocity=127 time=0@note_on channel=2 note=63 velocity=127 time=0@note_on channel=1 note=75 velocity=0 time=0.16527786041666667@note_on channel=1 note=77 velocity=127 time=0.0013888895833333334@note_on channel=0 note=79 velocity=0 time=0.16527786041666667@note_on channel=1 note=77 velocity=0 time=0@note_on channel=2 note=63 velocity=0 time=0@note_on channel=3 note=49 velocity=0 time=0@note_on channel=4 note=37 velocity=0 time=0@note_on channel=0 note=80 velocity=127 time=0.0013888895833333334@note_on channel=1 note=73 velocity=127 time=0@note_on channel=2 note=65 velocity=127 time=0@note_on channel=1 note=73 velocity=0 time=0.16527786041666667@note_on channel=1 note=75 velocity=127 time=0.0013888895833333334@note_on channel=1 note=75 velocity=0 time=0.16527786041666667@note_on channel=2 note=65 velocity=0 time=0@note_on channel=1 note=72 velocity=127 time=0.0013888895833333334@note_on channel=2 note=61 velocity=127 time=0@note_on channel=1 note=72 velocity=0 time=0.16527786041666667@note_on channel=1 note=73 velocity=127 time=0.0013888895833333334@note_on channel=1 note=73 velocity=0 time=0.16527786041666667@note_on channel=2 note=61 velocity=0 time=0@note_on channel=1 note=71 velocity=127 time=0.0013888895833333334@note_on channel=2 note=67 velocity=127 time=0@note_on channel=3 note=55 velocity=127 time=0@note_on channel=4 note=43 velocity=127 time=0@note_on channel=3 note=55 velocity=0 time=0.16527786041666667@note_on channel=4 note=43 velocity=0 time=0@note_on channel=3 note=56 velocity=127 time=0.0013888895833333334@note_on channel=4 note=44 velocity=127 time=0@note_on channel=2 note=67 velocity=0 time=0.16527786041666667@note_on channel=3 note=56 velocity=0 time=0@note_on channel=4 note=44 velocity=0 time=0@note_on channel=2 note=62 velocity=127 time=0.0013888895833333334@note_on channel=3 note=53 velocity=127 time=0@note_on channel=4 note=41 velocity=127 time=0@note_on channel=3 note=53 velocity=0 time=0.16527786041666667@note_on channel=4 note=41 velocity=0 time=0@note_on channel=3 note=55 velocity=127 time=0.0013888895833333334@note_on channel=4 note=43 velocity=127 time=0@note_on channel=0 note=80 velocity=0 time=0.16527786041666667@note_on channel=1 note=71 velocity=0 time=0@note_on channel=2 note=62 velocity=0 time=0@note_on channel=3 note=55 velocity=0 time=0@note_on channel=4 note=43 velocity=0 time=0@note_on channel=0 note=79 velocity=127 time=0.0013888895833333334@note_on channel=1 note=72 velocity=127 time=0@note_on channel=2 note=63 velocity=127 time=0@note_on channel=3 note=51 velocity=127 time=0@note_on channel=4 note=39 velocity=127 time=0@note_on channel=3 note=51 velocity=0 time=0.16527786041666667@note_on channel=4 note=39 velocity=0 time=0@note_on channel=3 note=53 velocity=127 time=0.0013888895833333334@note_on channel=4 note=41 velocity=127 time=0@note_on channel=0 note=79 velocity=0 time=0.16527786041666667@note_on channel=1 note=72 velocity=0 time=0@note_on channel=2 note=63 velocity=0 time=0@note_on channel=3 note=53 velocity=0 time=0@note_on channel=4 note=41 velocity=0 time=0@note_on channel=0 note=77 velocity=127 time=0.0013888895833333334@note_on channel=1 note=74 velocity=127 time=0@note_on channel=2 note=59 velocity=127 time=0@note_on channel=3 note=50 velocity=127 time=0@note_on channel=4 note=38 velocity=127 time=0@note_on channel=3 note=50 velocity=0 time=0.16527786041666667@note_on channel=4 note=38 velocity=0 time=0@note_on channel=3 note=51 velocity=127 time=0.0013888895833333334@note_on channel=4 note=39 velocity=127 time=0@note_on channel=0 note=77 velocity=0 time=0.16527786041666667@note_on channel=1 note=74 velocity=0 time=0@note_on channel=2 note=59 velocity=0 time=0@note_on channel=3 note=51 velocity=0 time=0@note_on channel=4 note=39 velocity=0 time=0@note_on channel=0 note=75 velocity=127 time=0.0013888895833333334@note_on channel=1 note=67 velocity=127 time=0@note_on channel=2 note=60 velocity=127 time=0@note_on channel=3 note=48 velocity=127 time=0@note_on channel=4 note=36 velocity=127 time=0@note_on channel=0 note=75 velocity=0 time=0.16527786041666667@note_on channel=0 note=77 velocity=127 time=0.0013888895833333334@note_on channel=0 note=77 velocity=0 time=0.16527786041666667@note_on channel=2 note=60 velocity=0 time=0@note_on channel=0 note=74 velocity=127 time=0.0013888895833333334@note_on channel=2 note=55 velocity=127 time=0@note_on channel=0 note=74 velocity=0 time=0.16527786041666667@note_on channel=0 note=75 velocity=127 time=0.0013888895833333334@note_on channel=0 note=75 velocity=0 time=0.16527786041666667@note_on channel=1 note=67 velocity=0 time=0@note_on channel=2 note=55 velocity=0 time=0@note_on channel=3 note=48 velocity=0 time=0@note_on channel=4 note=36 velocity=0 time=0@note_on channel=0 note=72 velocity=127 time=0.0013888895833333334@note_on channel=2 note=60 velocity=127 time=0@note_on channel=0 note=72 velocity=0 time=0.16527786041666667@note_on channel=0 note=75 velocity=127 time=0.0013888895833333334@note_on channel=0 note=75 velocity=0 time=0.16527786041666667@note_on channel=2 note=60 velocity=0 time=0@note_on channel=0 note=74 velocity=127 time=0.0013888895833333334@note_on channel=1 note=67 velocity=127 time=0@note_on channel=2 note=59 velocity=127 time=0@note_on channel=3 note=43 velocity=127 time=0@note_on channel=4 note=31 velocity=127 time=0@note_on channel=0 note=74 velocity=0 time=0.16527786041666667@note_on channel=0 note=77 velocity=127 time=0.0013888895833333334@note_on channel=0 note=77 velocity=0 time=0.16527786041666667@note_on channel=1 note=67 velocity=0 time=0@note_on channel=2 note=59 velocity=0 time=0@note_on channel=3 note=43 velocity=0 time=0@note_on channel=4 note=31 velocity=0 time=0@note_on channel=0 note=75 velocity=127 time=0.0013888895833333334@note_on channel=1 note=67 velocity=127 time=0@note_on channel=2 note=60 velocity=127 time=0@note_on channel=3 note=48 velocity=127 time=0@note_on channel=4 note=36 velocity=127 time=0@note_on channel=0 note=75 velocity=0 time=0.16527786041666667@note_on channel=0 note=77 velocity=127 time=0.0013888895833333334@note_on channel=0 note=77 velocity=0 time=0.16527786041666667@note_on channel=1 note=67 velocity=0 time=0@note_on channel=0 note=74 velocity=127 time=0.0013888895833333334@note_on channel=1 note=67 velocity=127 time=0@note_on channel=0 note=74 velocity=0 time=0.16527786041666667@note_on channel=0 note=75 velocity=127 time=0.0013888895833333334@note_on channel=0 note=75 velocity=0 time=0.16527786041666667@note_on channel=1 note=67 velocity=0 time=0@note_on channel=2 note=60 velocity=0 time=0@note_on channel=3 note=48 velocity=0 time=0@note_on channel=4 note=36 velocity=0 time=0@note_on channel=0 note=72 velocity=127 time=0.0013888895833333334@note_on channel=1 note=72 velocity=127 time=0@note_on channel=0 note=72 velocity=0 time=0.16527786041666667@note_on channel=0 note=75 velocity=127 time=0.0013888895833333334@note_on channel=0 note=75 velocity=0 time=0.16527786041666667@note_on channel=1 note=72 velocity=0 time=0@note_on channel=0 note=74 velocity=127 time=0.0013888895833333334@note_on channel=1 note=71 velocity=127 time=0@note_on channel=2 note=67 velocity=127 time=0@note_on channel=3 note=43 velocity=127 time=0@note_on channel=4 note=31 velocity=127 time=0@note_on channel=0 note=74 velocity=0 time=0.16527786041666667@note_on channel=0 note=77 velocity=127 time=0.0013888895833333334@note_on channel=0 note=77 velocity=0 time=0.16527786041666667@note_on channel=1 note=71 velocity=0 time=0@note_on channel=2 note=67 velocity=0 time=0@note_on channel=3 note=43 velocity=0 time=0@note_on channel=4 note=31 velocity=0 time=0@note_on channel=0 note=75 velocity=127 time=0.0013888895833333334@note_on channel=1 note=72 velocity=127 time=0@note_on channel=2 note=67 velocity=127 time=0@note_on channel=3 note=36 velocity=127 time=0@note_on channel=4 note=24 velocity=127 time=0@note_on channel=0 note=75 velocity=0 time=0.16527786041666667@note_on channel=0 note=77 velocity=127 time=0.0013888895833333334@note_on channel=0 note=77 velocity=0 time=0.16527786041666667@note_on channel=1 note=72 velocity=0 time=0@note_on channel=2 note=67 velocity=0 time=0@note_on channel=3 note=36 velocity=0 time=0@note_on channel=4 note=24 velocity=0 time=0@note_on channel=0 note=74 velocity=127 time=0.0013888895833333334@note_on channel=1 note=71 velocity=127 time=0@note_on channel=2 note=65 velocity=127 time=0@note_on channel=3 note=43 velocity=127 time=0@note_on channel=4 note=31 velocity=127 time=0@note_on channel=0 note=74 velocity=0 time=0.16527786041666667@note_on channel=0 note=75 velocity=127 time=0.0013888895833333334@note_on channel=0 note=75 velocity=0 time=0.16527786041666667@note_on channel=1 note=71 velocity=0 time=0@note_on channel=2 note=65 velocity=0 time=0@note_on channel=3 note=43 velocity=0 time=0@note_on channel=4 note=31 velocity=0 time=0@note_on channel=0 note=72 velocity=127 time=0.0013888895833333334@note_on channel=1 note=67 velocity=127 time=0@note_on channel=2 note=63 velocity=127 time=0@note_on channel=3 note=48 velocity=127 time=0@note_on channel=4 note=36 velocity=127 time=0@note_on channel=0 note=72 velocity=0 time=0.16527786041666667@note_on channel=0 note=75 velocity=127 time=0.0013888895833333334@note_on channel=0 note=75 velocity=0 time=0.16527786041666667@note_on channel=1 note=67 velocity=0 time=0@note_on channel=2 note=63 velocity=0 time=0@note_on channel=3 note=48 velocity=0 time=0@note_on channel=4 note=36 velocity=0 time=0@note_on channel=0 note=74 velocity=127 time=0.0013888895833333334@note_on channel=1 note=67 velocity=127 time=0@note_on channel=2 note=55 velocity=127 time=0@note_on channel=3 note=47 velocity=127 time=0@note_on channel=4 note=35 velocity=127 time=0@note_on channel=0 note=74 velocity=0 time=0.16527786041666667@note_on channel=0 note=77 velocity=127 time=0.0013888895833333334@note_on channel=0 note=77 velocity=0 time=0.16527786041666667@note_on channel=1 note=67 velocity=0 time=0@note_on channel=2 note=55 velocity=0 time=0@note_on channel=3 note=47 velocity=0 time=0@note_on channel=4 note=35 velocity=0 time=0@note_on channel=0 note=76 velocity=127 time=0.0013888895833333334@note_on channel=1 note=67 velocity=127 time=0@note_on channel=2 note=60 velocity=127 time=0@note_on channel=3 note=48 velocity=127 time=0@note_on channel=4 note=36 velocity=127 time=0@note_on channel=0 note=76 velocity=0 time=0.16527786041666667@note_on channel=0 note=79 velocity=127 time=0.0013888895833333334@note_on channel=0 note=79 velocity=0 time=0.16527786041666667@note_on channel=3 note=48 velocity=0 time=0@note_on channel=4 note=36 velocity=0 time=0@note_on channel=0 note=78 velocity=127 time=0.0013888895833333334@note_on channel=3 note=50 velocity=127 time=0@note_on channel=4 note=38 velocity=127 time=0@note_on channel=0 note=78 velocity=0 time=0.16527786041666667@note_on channel=0 note=81 velocity=127 time=0.0013888895833333334@note_on channel=0 note=81 velocity=0 time=0.16527786041666667@note_on channel=1 note=67 velocity=0 time=0@note_on channel=2 note=60 velocity=0 time=0@note_on channel=3 note=50 velocity=0 time=0@note_on channel=4 note=38 velocity=0 time=0@note_on channel=0 note=79 velocity=127 time=0.0013888895833333334@note_on channel=3 note=52 velocity=127 time=0@note_on channel=4 note=40 velocity=127 time=0@note_on channel=0 note=79 velocity=0 time=0.16527786041666667@note_on channel=0 note=82 velocity=127 time=0.0013888895833333334@note_on channel=0 note=82 velocity=0 time=0.16527786041666667@note_on channel=3 note=52 velocity=0 time=0@note_on channel=4 note=40 velocity=0 time=0@note_on channel=0 note=81 velocity=127 time=0.0013888895833333334@note_on channel=1 note=62 velocity=127 time=0@note_on channel=2 note=57 velocity=127 time=0@note_on channel=3 note=54 velocity=127 time=0@note_on channel=4 note=42 velocity=127 time=0@note_on channel=0 note=81 velocity=0 time=0.16527786041666667@note_on channel=0 note=84 velocity=127 time=0.0013888895833333334@note_on channel=0 note=84 velocity=0 time=0.16527786041666667@note_on channel=1 note=62 velocity=0 time=0@note_on channel=2 note=57 velocity=0 time=0@note_on channel=3 note=54 velocity=0 time=0@note_on channel=4 note=42 velocity=0 time=0@note_on channel=0 note=82 velocity=127 time=0.0013888895833333334@note_on channel=1 note=62 velocity=127 time=0@note_on channel=2 note=55 velocity=127 time=0@note_on channel=3 note=55 velocity=127 time=0@note_on channel=4 note=43 velocity=127 time=0@note_on channel=0 note=82 velocity=0 time=0.16527786041666667@note_on channel=0 note=84 velocity=127 time=0.0013888895833333334@note_on channel=0 note=84 velocity=0 time=0.16527786041666667@note_on channel=1 note=62 velocity=0 time=0@note_on channel=2 note=55 velocity=0 time=0@note_on channel=0 note=81 velocity=127 time=0.0013888895833333334@note_on channel=2 note=62 velocity=127 time=0@note_on channel=0 note=81 velocity=0 time=0.16527786041666667@note_on channel=0 note=82 velocity=127 time=0.0013888895833333334@note_on channel=0 note=82 velocity=0 time=0.16527786041666667@note_on channel=2 note=62 velocity=0 time=0@note_on channel=3 note=55 velocity=0 time=0@note_on channel=4 note=43 velocity=0 time=0@note_on channel=0 note=79 velocity=127 time=0.0013888895833333334@note_on channel=2 note=67 velocity=127 time=0@note_on channel=0 note=79 velocity=0 time=0.16527786041666667@note_on channel=0 note=82 velocity=127 time=0.0013888895833333334@note_on channel=0 note=82 velocity=0 time=0.16527786041666667@note_on channel=2 note=67 velocity=0 time=0@note_on channel=0 note=81 velocity=127 time=0.0013888895833333334@note_on channel=1 note=74 velocity=127 time=0@note_on channel=2 note=66 velocity=127 time=0@note_on channel=3 note=50 velocity=127 time=0@note_on channel=4 note=38 velocity=127 time=0@note_on channel=0 note=81 velocity=0 time=0.16527786041666667@note_on channel=0 note=84 velocity=127 time=0.0013888895833333334@note_on channel=0 note=84 velocity=0 time=0.16527786041666667@note_on channel=1 note=74 velocity=0 time=0@note_on channel=2 note=66 velocity=0 time=0@note_on channel=3 note=50 velocity=0 time=0@note_on channel=4 note=38 velocity=0 time=0@note_on channel=0 note=82 velocity=127 time=0.0013888895833333334@note_on channel=1 note=74 velocity=127 time=0@note_on channel=2 note=67 velocity=127 time=0@note_on channel=3 note=55 velocity=127 time=0@note_on channel=4 note=43 velocity=127 time=0@note_on channel=0 note=82 velocity=0 time=0.16527786041666667@note_on channel=0 note=84 velocity=127 time=0.0013888895833333334@note_on channel=0 note=84 velocity=0 time=0.16527786041666667@note_on channel=1 note=74 velocity=0 time=0@note_on channel=0 note=81 velocity=127 time=0.0013888895833333334@note_on channel=1 note=74 velocity=127 time=0@note_on channel=0 note=81 velocity=0 time=0.16527786041666667@note_on channel=0 note=82 velocity=127 time=0.0013888895833333334@note_on channel=0 note=82 velocity=0 time=0.16527786041666667@note_on channel=1 note=74 velocity=0 time=0@note_on channel=2 note=67 velocity=0 time=0@note_on channel=3 note=55 velocity=0 time=0@note_on channel=4 note=43 velocity=0 time=0@note_on channel=0 note=79 velocity=127 time=0.0013888895833333334@note_on channel=1 note=79 velocity=127 time=0@note_on channel=0 note=79 velocity=0 time=0.16527786041666667@note_on channel=0 note=82 velocity=127 time=0.0013888895833333334@note_on channel=0 note=82 velocity=0 time=0.16527786041666667@note_on channel=1 note=79 velocity=0 time=0@note_on channel=0 note=81 velocity=127 time=0.0013888895833333334@note_on channel=1 note=78 velocity=127 time=0@note_on channel=2 note=74 velocity=127 time=0@note_on channel=3 note=50 velocity=127 time=0@note_on channel=4 note=38 velocity=127 time=0@note_on channel=0 note=81 velocity=0 time=0.16527786041666667@note_on channel=0 note=84 velocity=127 time=0.0013888895833333334@note_on channel=0 note=84 velocity=0 time=0.16527786041666667@note_on channel=1 note=78 velocity=0 time=0@note_on channel=2 note=74 velocity=0 time=0@note_on channel=3 note=50 velocity=0 time=0@note_on channel=4 note=38 velocity=0 time=0@note_on channel=0 note=82 velocity=127 time=0.0013888895833333334@note_on channel=1 note=79 velocity=127 time=0@note_on channel=2 note=74 velocity=127 time=0@note_on channel=3 note=43 velocity=127 time=0@note_on channel=4 note=31 velocity=127 time=0@note_on channel=0 note=82 velocity=0 time=0.16527786041666667@note_on channel=0 note=84 velocity=127 time=0.0013888895833333334@note_on channel=0 note=84 velocity=0 time=0.16527786041666667@note_on channel=1 note=79 velocity=0 time=0@note_on channel=2 note=74 velocity=0 time=0@note_on channel=3 note=43 velocity=0 time=0@note_on channel=4 note=31 velocity=0 time=0@note_on channel=0 note=81 velocity=127 time=0.0013888895833333334@note_on channel=1 note=78 velocity=127 time=0@note_on channel=2 note=72 velocity=127 time=0@note_on channel=3 note=50 velocity=127 time=0@note_on channel=4 note=38 velocity=127 time=0@note_on channel=0 note=81 velocity=0 time=0.16527786041666667@note_on channel=0 note=82 velocity=127 time=0.0013888895833333334@note_on channel=0 note=82 velocity=0 time=0.16527786041666667@note_on channel=1 note=78 velocity=0 time=0@note_on channel=2 note=72 velocity=0 time=0@note_on channel=3 note=50 velocity=0 time=0@note_on channel=4 note=38 velocity=0 time=0@note_on channel=0 note=79 velocity=127 time=0.0013888895833333334@note_on channel=1 note=74 velocity=127 time=0@note_on channel=2 note=70 velocity=127 time=0@note_on channel=3 note=55 velocity=127 time=0@note_on channel=4 note=43 velocity=127 time=0@note_on channel=0 note=79 velocity=0 time=0.16527786041666667@note_on channel=0 note=82 velocity=127 time=0.0013888895833333334@note_on channel=0 note=82 velocity=0 time=0.16527786041666667@note_on channel=1 note=74 velocity=0 time=0@note_on channel=2 note=70 velocity=0 time=0@note_on channel=3 note=55 velocity=0 time=0@note_on channel=4 note=43 velocity=0 time=0@note_on channel=0 note=81 velocity=127 time=0.0013888895833333334@note_on channel=1 note=74 velocity=127 time=0@note_on channel=2 note=62 velocity=127 time=0@note_on channel=3 note=54 velocity=127 time=0@note_on channel=4 note=42 velocity=127 time=0@note_on channel=0 note=81 velocity=0 time=0.16527786041666667@note_on channel=0 note=84 velocity=127 time=0.0013888895833333334@note_on channel=0 note=84 velocity=0 time=0.16527786041666667@note_on channel=1 note=74 velocity=0 time=0@note_on channel=2 note=62 velocity=0 time=0@note_on channel=3 note=54 velocity=0 time=0@note_on channel=4 note=42 velocity=0 time=0@note_on channel=0 note=82 velocity=127 time=0.0013888895833333334@note_on channel=1 note=74 velocity=127 time=0@note_on channel=2 note=67 velocity=127 time=0@note_on channel=3 note=55 velocity=127 time=0@note_on channel=4 note=43 velocity=127 time=0@note_on channel=0 note=82 velocity=0 time=0.16527786041666667@note_on channel=0 note=84 velocity=127 time=0.0013888895833333334@note_on channel=0 note=84 velocity=0 time=0.16527786041666667@note_on channel=3 note=55 velocity=0 time=0@note_on channel=4 note=43 velocity=0 time=0@note_on channel=0 note=82 velocity=127 time=0.0013888895833333334@note_on channel=3 note=57 velocity=127 time=0@note_on channel=4 note=45 velocity=127 time=0@note_on channel=0 note=82 velocity=0 time=0.16527786041666667@note_on channel=0 note=81 velocity=127 time=0.0013888895833333334@note_on channel=0 note=81 velocity=0 time=0.16527786041666667@note_on channel=1 note=74 velocity=0 time=0@note_on channel=2 note=67 velocity=0 time=0@note_on channel=3 note=57 velocity=0 time=0@note_on channel=4 note=45 velocity=0 time=0@note_on channel=0 note=79 velocity=127 time=0.0013888895833333334@note_on channel=3 note=58 velocity=127 time=0@note_on channel=4 note=46 velocity=127 time=0@note_on channel=0 note=79 velocity=0 time=0.16527786041666667@note_on channel=0 note=82 velocity=127 time=0.0013888895833333334@note_on channel=0 note=82 velocity=0 time=0.16527786041666667@note_on channel=3 note=58 velocity=0 time=0@note_on channel=4 note=46 velocity=0 time=0@note_on channel=0 note=81 velocity=127 time=0.0013888895833333334@note_on channel=1 note=75 velocity=127 time=0@note_on channel=2 note=72 velocity=127 time=0@note_on channel=3 note=60 velocity=127 time=0@note_on channel=4 note=48 velocity=127 time=0@note_on channel=0 note=81 velocity=0 time=0.16527786041666667@note_on channel=2 note=72 velocity=0 time=0@note_on channel=0 note=79 velocity=127 time=0.0013888895833333334@note_on channel=2 note=70 velocity=127 time=0@note_on channel=0 note=79 velocity=0 time=0.16527786041666667@note_on channel=1 note=75 velocity=0 time=0@note_on channel=2 note=70 velocity=0 time=0@note_on channel=3 note=60 velocity=0 time=0@note_on channel=4 note=48 velocity=0 time=0@note_on channel=0 note=78 velocity=127 time=0.0013888895833333334@note_on channel=1 note=74 velocity=127 time=0@note_on channel=2 note=69 velocity=127 time=0@note_on channel=3 note=62 velocity=127 time=0@note_on channel=4 note=50 velocity=127 time=0@note_on channel=2 note=69 velocity=0 time=0.16527786041666667@note_on channel=2 note=67 velocity=127 time=0.0013888895833333334@note_on channel=0 note=78 velocity=0 time=0.16527786041666667@note_on channel=1 note=74 velocity=0 time=0@note_on channel=2 note=67 velocity=0 time=0@note_on channel=3 note=62 velocity=0 time=0@note_on channel=4 note=50 velocity=0 time=0@note_on channel=0 note=74 velocity=112 time=0.0013888895833333334@note_on channel=1 note=69 velocity=108 time=0@note_on channel=2 note=66 velocity=127 time=0@note_on channel=3 note=50 velocity=127 time=0@note_on channel=4 note=38 velocity=127 time=0@note_on channel=2 note=66 velocity=0 time=0.16527786041666667@note_on channel=2 note=64 velocity=127 time=0.0013888895833333334@note_on channel=0 note=74 velocity=0 time=0.16527786041666667@note_on channel=1 note=69 velocity=0 time=0@note_on channel=2 note=64 velocity=0 time=0@note_on channel=3 note=50 velocity=0 time=0@note_on channel=4 note=38 velocity=0 time=0@note_on channel=1 note=74 velocity=88 time=0.0013888895833333334@note_on channel=1 note=74 velocity=0 time=0.16527786041666667@note_on channel=1 note=72 velocity=79 time=0.0013888895833333334@note_on channel=1 note=72 velocity=0 time=0.16527786041666667@note_on channel=0 note=74 velocity=80 time=0.0013888895833333334@note_on channel=1 note=70 velocity=69 time=0@note_on channel=1 note=70 velocity=0 time=0.16527786041666667@note_on channel=1 note=69 velocity=59 time=0.0013888895833333334@note_on channel=0 note=74 velocity=0 time=0.16527786041666667@note_on channel=1 note=69 velocity=0 time=0@note_on channel=0 note=70 velocity=64 time=0.0013888895833333334@note_on channel=1 note=67 velocity=49 time=0@note_on channel=0 note=70 velocity=0 time=0.16527786041666667@note_on channel=1 note=67 velocity=0 time=0@note_on channel=0 note=72 velocity=64 time=0.0013888895833333334@note_on channel=1 note=65 velocity=49 time=0@note_on channel=0 note=72 velocity=0 time=0.16527786041666667@note_on channel=1 note=65 velocity=0 time=0@note_on channel=0 note=69 velocity=64 time=0.0013888895833333334@note_on channel=1 note=63 velocity=49 time=0@note_on channel=0 note=69 velocity=0 time=0.16527786041666667@note_on channel=1 note=63 velocity=0 time=0@note_on channel=0 note=70 velocity=64 time=0.0013888895833333334@note_on channel=1 note=62 velocity=49 time=0@note_on channel=0 note=70 velocity=0 time=0.16527786041666667@note_on channel=1 note=62 velocity=0 time=0@note_on channel=0 note=67 velocity=64 time=0.0013888895833333334@note_on channel=1 note=60 velocity=49 time=0@note_on channel=1 note=60 velocity=0 time=0.16527786041666667@note_on channel=1 note=70 velocity=49 time=0.0013888895833333334@note_on channel=0 note=67 velocity=0 time=0.16527786041666667@note_on channel=1 note=70 velocity=0 time=0@note_on channel=0 note=79 velocity=64 time=0.0013888895833333334@note_on channel=1 note=69 velocity=49 time=0@note_on channel=1 note=69 velocity=0 time=0.16527786041666667@note_on channel=1 note=67 velocity=49 time=0.0013888895833333334@note_on channel=0 note=79 velocity=0 time=0.16527786041666667@note_on channel=1 note=67 velocity=0 time=0@note_on channel=0 note=78 velocity=64 time=0.0013888895833333334@note_on channel=1 note=74 velocity=49 time=0@note_on channel=0 note=78 velocity=0 time=0.16527786041666667@note_on channel=0 note=79 velocity=64 time=0.0013888895833333334@note_on channel=0 note=79 velocity=0 time=0.16527786041666667@note_on channel=1 note=74 velocity=0 time=0@note_on channel=0 note=76 velocity=64 time=0.0013888895833333334@note_on channel=1 note=62 velocity=49 time=0@note_on channel=0 note=76 velocity=0 time=0.16527786041666667@note_on channel=0 note=78 velocity=64 time=0.0013888895833333334@note_on channel=0 note=78 velocity=0 time=0.16527786041666667@note_on channel=1 note=62 velocity=0 time=0@note_on channel=0 note=74 velocity=64 time=0.0013888895833333334@note_on channel=1 note=67 velocity=49 time=0.16666675@note_on channel=0 note=74 velocity=0 time=0.16527786041666667@note_on channel=1 note=67 velocity=0 time=0@note_on channel=0 note=79 velocity=64 time=0.0013888895833333334@note_on channel=1 note=69 velocity=49 time=0@note_on channel=0 note=79 velocity=0 time=0.16527786041666667@note_on channel=1 note=69 velocity=0 time=0@note_on channel=0 note=74 velocity=64 time=0.0013888895833333334@note_on channel=1 note=70 velocity=49 time=0@note_on channel=0 note=74 velocity=0 time=0.16527786041666667@note_on channel=1 note=70 velocity=0 time=0@note_on channel=0 note=75 velocity=64 time=0.0013888895833333334@note_on channel=1 note=60 velocity=49 time=0@note_on channel=1 note=60 velocity=0 time=0.16527786041666667@note_on channel=1 note=63 velocity=49 time=0.0013888895833333334@note_on channel=0 note=75 velocity=0 time=0.16527786041666667@note_on channel=1 note=63 velocity=0 time=0@note_on channel=0 note=72 velocity=64 time=0.0013888895833333334@note_on channel=1 note=67 velocity=49 time=0@note_on channel=1 note=67 velocity=0 time=0.16527786041666667@note_on channel=1 note=70 velocity=49 time=0.0013888895833333334@note_on channel=0 note=72 velocity=0 time=0.16527786041666667@note_on channel=1 note=70 velocity=0 time=0@note_on channel=0 note=65 velocity=64 time=0.0013888895833333334@note_on channel=1 note=69 velocity=49 time=0@note_on channel=1 note=69 velocity=0 time=0.16527786041666667@note_on channel=1 note=72 velocity=49 time=0.0013888895833333334@note_on channel=0 note=65 velocity=0 time=0.16527786041666667@note_on channel=1 note=72 velocity=0 time=0@note_on channel=0 note=77 velocity=64 time=0.0013888895833333334@note_on channel=1 note=65 velocity=49 time=0@note_on channel=1 note=65 velocity=0 time=0.16527786041666667@note_on channel=1 note=69 velocity=49 time=0.0013888895833333334@note_on channel=0 note=77 velocity=0 time=0.16527786041666667@note_on channel=1 note=69 velocity=0 time=0@note_on channel=0 note=74 velocity=64 time=0.0013888895833333334@note_on channel=1 note=58 velocity=49 time=0@note_on channel=0 note=74 velocity=0 time=0.16527786041666667@note_on channel=1 note=58 velocity=0 time=0@note_on channel=0 note=75 velocity=64 time=0.0013888895833333334@note_on channel=1 note=62 velocity=49 time=0@note_on channel=0 note=75 velocity=0 time=0.16527786041666667@note_on channel=1 note=62 velocity=0 time=0@note_on channel=0 note=72 velocity=64 time=0.0013888895833333334@note_on channel=1 note=65 velocity=49 time=0@note_on channel=0 note=72 velocity=0 time=0.16527786041666667@note_on channel=1 note=65 velocity=0 time=0@note_on channel=0 note=74 velocity=64 time=0.0013888895833333334@note_on channel=1 note=69 velocity=49 time=0@note_on channel=0 note=74 velocity=0 time=0.16527786041666667@note_on channel=1 note=69 velocity=0 time=0@note_on channel=0 note=70 velocity=64 time=0.0013888895833333334@note_on channel=1 note=67 velocity=49 time=0@note_on channel=1 note=67 velocity=0 time=0.16527786041666667@note_on channel=1 note=70 velocity=49 time=0.0013888895833333334@note_on channel=0 note=70 velocity=0 time=0.16527786041666667@note_on channel=1 note=70 velocity=0 time=0@note_on channel=0 note=75 velocity=64 time=0.0013888895833333334@note_on channel=1 note=63 velocity=49 time=0@note_on channel=0 note=75 velocity=0 time=0.16527786041666667@note_on channel=1 note=63 velocity=0 time=0@note_on channel=0 note=70 velocity=64 time=0.0013888895833333334@note_on channel=1 note=67 velocity=49 time=0@note_on channel=0 note=70 velocity=0 time=0.16527786041666667@note_on channel=1 note=67 velocity=0 time=0@note_on channel=0 note=72 velocity=64 time=0.0013888895833333334@note_on channel=1 note=57 velocity=49 time=0@note_on channel=1 note=57 velocity=0 time=0.16527786041666667@note_on channel=1 note=60 velocity=49 time=0.0013888895833333334@note_on channel=0 note=72 velocity=0 time=0.16527786041666667@note_on channel=1 note=60 velocity=0 time=0@note_on channel=0 note=69 velocity=64 time=0.0013888895833333334@note_on channel=1 note=63 velocity=49 time=0@note_on channel=1 note=63 velocity=0 time=0.16527786041666667@note_on channel=1 note=67 velocity=49 time=0.0013888895833333334@note_on channel=0 note=69 velocity=0 time=0.16527786041666667@note_on channel=1 note=67 velocity=0 time=0@note_on channel=0 note=62 velocity=64 time=0.0013888895833333334@note_on channel=1 note=66 velocity=49 time=0@note_on channel=1 note=66 velocity=0 time=0.16527786041666667@note_on channel=1 note=69 velocity=49 time=0.0013888895833333334@note_on channel=0 note=62 velocity=0 time=0.16527786041666667@note_on channel=1 note=69 velocity=0 time=0@note_on channel=0 note=74 velocity=64 time=0.0013888895833333334@note_on channel=1 note=62 velocity=49 time=0@note_on channel=1 note=62 velocity=0 time=0.16527786041666667@note_on channel=1 note=66 velocity=49 time=0.0013888895833333334@note_on channel=0 note=74 velocity=0 time=0.16527786041666667@note_on channel=1 note=66 velocity=0 time=0@note_on channel=0 note=70 velocity=64 time=0.0013888895833333334@note_on channel=1 note=55 velocity=49 time=0@note_on channel=0 note=70 velocity=0 time=0.16527786041666667@note_on channel=0 note=72 velocity=64 time=0.0013888895833333334@note_on channel=0 note=72 velocity=0 time=0.16527786041666667@note_on channel=1 note=55 velocity=0 time=0@note_on channel=0 note=69 velocity=64 time=0.0013888895833333334@note_on channel=1 note=57 velocity=49 time=0@note_on channel=0 note=69 velocity=0 time=0.16527786041666667@note_on channel=0 note=70 velocity=64 time=0.0013888895833333334@note_on channel=0 note=70 velocity=0 time=0.16527786041666667@note_on channel=1 note=57 velocity=0 time=0@note_on channel=0 note=67 velocity=64 time=0.0013888895833333334@note_on channel=1 note=58 velocity=49 time=0@note_on channel=0 note=67 velocity=0 time=0.16527786041666667@note_on channel=0 note=70 velocity=64 time=0.0013888895833333334@note_on channel=0 note=70 velocity=0 time=0.16527786041666667@note_on channel=1 note=58 velocity=0 time=0@note_on channel=0 note=69 velocity=64 time=0.0013888895833333334@note_on channel=1 note=55 velocity=49 time=0@note_on channel=0 note=69 velocity=0 time=0.16527786041666667@note_on channel=0 note=67 velocity=64 time=0.0013888895833333334@note_on channel=0 note=67 velocity=0 time=0.16527786041666667@note_on channel=1 note=55 velocity=0 time=0@note_on channel=0 note=66 velocity=64 time=0.0013888895833333334@note_on channel=1 note=62 velocity=49 time=0@note_on channel=0 note=66 velocity=0 time=0.16527786041666667@note_on channel=0 note=67 velocity=64 time=0.0013888895833333334@note_on channel=0 note=67 velocity=0 time=0.16527786041666667@note_on channel=1 note=62 velocity=0 time=0@note_on channel=0 note=64 velocity=64 time=0.0013888895833333334@note_on channel=1 note=64 velocity=49 time=0@note_on channel=0 note=64 velocity=0 time=0.16527786041666667@note_on channel=0 note=66 velocity=64 time=0.0013888895833333334@note_on channel=0 note=66 velocity=0 time=0.16527786041666667@note_on channel=1 note=64 velocity=0 time=0@note_on channel=0 note=62 velocity=64 time=0.0013888895833333334@note_on channel=1 note=66 velocity=49 time=0@note_on channel=0 note=62 velocity=0 time=0.16527786041666667@note_on channel=0 note=66 velocity=64 time=0.0013888895833333334@note_on channel=0 note=66 velocity=0 time=0.16527786041666667@note_on channel=1 note=66 velocity=0 time=0@note_on channel=0 note=69 velocity=64 time=0.0013888895833333334@note_on channel=1 note=62 velocity=49 time=0@note_on channel=0 note=69 velocity=0 time=0.16527786041666667@note_on channel=0 note=72 velocity=64 time=0.0013888895833333334@note_on channel=0 note=72 velocity=0 time=0.16527786041666667@note_on channel=1 note=62 velocity=0 time=0@note_on channel=0 note=70 velocity=64 time=0.0013888895833333334@note_on channel=1 note=55 velocity=49 time=0@note_on channel=0 note=70 velocity=0 time=0.16527786041666667@note_on channel=0 note=72 velocity=64 time=0.0013888895833333334@note_on channel=0 note=72 velocity=0 time=0.16527786041666667@note_on channel=1 note=55 velocity=0 time=0@note_on channel=0 note=69 velocity=64 time=0.0013888895833333334@note_on channel=1 note=57 velocity=49 time=0@note_on channel=0 note=69 velocity=0 time=0.16527786041666667@note_on channel=0 note=70 velocity=64 time=0.0013888895833333334@note_on channel=0 note=70 velocity=0 time=0.16527786041666667@note_on channel=1 note=57 velocity=0 time=0@note_on channel=0 note=67 velocity=64 time=0.0013888895833333334@note_on channel=1 note=58 velocity=49 time=0@note_on channel=0 note=67 velocity=0 time=0.16527786041666667@note_on channel=0 note=70 velocity=64 time=0.0013888895833333334@note_on channel=0 note=70 velocity=0 time=0.16527786041666667@note_on channel=1 note=58 velocity=0 time=0@note_on channel=0 note=74 velocity=64 time=0.0013888895833333334@note_on channel=1 note=55 velocity=49 time=0@note_on channel=0 note=74 velocity=0 time=0.16527786041666667@note_on channel=0 note=77 velocity=64 time=0.0013888895833333334@note_on channel=0 note=77 velocity=0 time=0.16527786041666667@note_on channel=1 note=55 velocity=0 time=0@note_on channel=0 note=75 velocity=64 time=0.0013888895833333334@note_on channel=1 note=60 velocity=49 time=0@note_on channel=0 note=75 velocity=0 time=0.16527786041666667@note_on channel=0 note=77 velocity=64 time=0.0013888895833333334@note_on channel=0 note=77 velocity=0 time=0.16527786041666667@note_on channel=1 note=60 velocity=0 time=0@note_on channel=0 note=74 velocity=64 time=0.0013888895833333334@note_on channel=1 note=62 velocity=49 time=0@note_on channel=0 note=74 velocity=0 time=0.16527786041666667@note_on channel=0 note=75 velocity=64 time=0.0013888895833333334@note_on channel=0 note=75 velocity=0 time=0.16527786041666667@note_on channel=1 note=62 velocity=0 time=0@note_on channel=0 note=72 velocity=64 time=0.0013888895833333334@note_on channel=1 note=63 velocity=49 time=0@note_on channel=0 note=72 velocity=0 time=0.16527786041666667@note_on channel=0 note=74 velocity=64 time=0.0013888895833333334@note_on channel=0 note=74 velocity=0 time=0.16527786041666667@note_on channel=1 note=63 velocity=0 time=0@note_on channel=0 note=70 velocity=64 time=0.0013888895833333334@note_on channel=1 note=60 velocity=49 time=0@note_on channel=0 note=70 velocity=0 time=0.16527786041666667@note_on channel=0 note=72 velocity=64 time=0.0013888895833333334@note_on channel=0 note=72 velocity=0 time=0.16527786041666667@note_on channel=1 note=60 velocity=0 time=0@note_on channel=0 note=69 velocity=64 time=0.0013888895833333334@note_on channel=1 note=53 velocity=49 time=0@note_on channel=0 note=69 velocity=0 time=0.16527786041666667@note_on channel=0 note=70 velocity=64 time=0.0013888895833333334@note_on channel=0 note=70 velocity=0 time=0.16527786041666667@note_on channel=1 note=53 velocity=0 time=0@note_on channel=0 note=67 velocity=64 time=0.0013888895833333334@note_on channel=1 note=55 velocity=49 time=0@note_on channel=0 note=67 velocity=0 time=0.16527786041666667@note_on channel=0 note=69 velocity=64 time=0.0013888895833333334@note_on channel=0 note=69 velocity=0 time=0.16527786041666667@note_on channel=1 note=55 velocity=0 time=0@note_on channel=0 note=65 velocity=64 time=0.0013888895833333334@note_on channel=1 note=57 velocity=49 time=0@note_on channel=0 note=65 velocity=0 time=0.16527786041666667@note_on channel=0 note=69 velocity=64 time=0.0013888895833333334@note_on channel=0 note=69 velocity=0 time=0.16527786041666667@note_on channel=1 note=57 velocity=0 time=0@note_on channel=0 note=72 velocity=64 time=0.0013888895833333334@note_on channel=1 note=53 velocity=49 time=0@note_on channel=0 note=72 velocity=0 time=0.16527786041666667@note_on channel=0 note=75 velocity=64 time=0.0013888895833333334@note_on channel=0 note=75 velocity=0 time=0.16527786041666667@note_on channel=1 note=53 velocity=0 time=0@note_on channel=0 note=74 velocity=64 time=0.0013888895833333334@note_on channel=1 note=58 velocity=49 time=0@note_on channel=0 note=74 velocity=0 time=0.16527786041666667@note_on channel=0 note=75 velocity=64 time=0.0013888895833333334@note_on channel=0 note=75 velocity=0 time=0.16527786041666667@note_on channel=1 note=58 velocity=0 time=0@note_on channel=0 note=72 velocity=64 time=0.0013888895833333334@note_on channel=1 note=60 velocity=49 time=0@note_on channel=0 note=72 velocity=0 time=0.16527786041666667@note_on channel=0 note=74 velocity=64 time=0.0013888895833333334@note_on channel=0 note=74 velocity=0 time=0.16527786041666667@note_on channel=1 note=60 velocity=0 time=0@note_on channel=0 note=70 velocity=64 time=0.0013888895833333334@note_on channel=1 note=62 velocity=49 time=0@note_on channel=0 note=70 velocity=0 time=0.16527786041666667@note_on channel=0 note=72 velocity=64 time=0.0013888895833333334@note_on channel=0 note=72 velocity=0 time=0.16527786041666667@note_on channel=1 note=62 velocity=0 time=0@note_on channel=0 note=69 velocity=64 time=0.0013888895833333334@note_on channel=1 note=58 velocity=49 time=0@note_on channel=0 note=69 velocity=0 time=0.16527786041666667@note_on channel=0 note=70 velocity=64 time=0.0013888895833333334@note_on channel=0 note=70 velocity=0 time=0.16527786041666667@note_on channel=1 note=58 velocity=0 time=0@note_on channel=0 note=67 velocity=64 time=0.0013888895833333334@note_on channel=1 note=63 velocity=49 time=0@note_on channel=0 note=67 velocity=0 time=0.16527786041666667@note_on channel=1 note=63 velocity=0 time=0@note_on channel=0 note=69 velocity=64 time=0.0013888895833333334@note_on channel=1 note=65 velocity=49 time=0@note_on channel=0 note=69 velocity=0 time=0.16527786041666667@note_on channel=1 note=65 velocity=0 time=0@note_on channel=0 note=65 velocity=64 time=0.0013888895833333334@note_on channel=1 note=62 velocity=49 time=0@note_on channel=0 note=65 velocity=0 time=0.16527786041666667@note_on channel=1 note=62 velocity=0 time=0@note_on channel=0 note=67 velocity=64 time=0.0013888895833333334@note_on channel=1 note=63 velocity=49 time=0@note_on channel=0 note=67 velocity=0 time=0.16527786041666667@note_on channel=1 note=63 velocity=0 time=0@note_on channel=0 note=63 velocity=64 time=0.0013888895833333334@note_on channel=1 note=60 velocity=49 time=0@note_on channel=0 note=63 velocity=0 time=0.16527786041666667@note_on channel=1 note=60 velocity=0 time=0@note_on channel=0 note=67 velocity=64 time=0.0013888895833333334@note_on channel=1 note=62 velocity=49 time=0@note_on channel=0 note=67 velocity=0 time=0.16527786041666667@note_on channel=1 note=62 velocity=0 time=0@note_on channel=0 note=70 velocity=64 time=0.0013888895833333334@note_on channel=1 note=58 velocity=49 time=0@note_on channel=0 note=70 velocity=0 time=0.16527786041666667@note_on channel=1 note=58 velocity=0 time=0@note_on channel=0 note=74 velocity=64 time=0.0013888895833333334@note_on channel=1 note=60 velocity=49 time=0@note_on channel=0 note=74 velocity=0 time=0.16527786041666667@note_on channel=1 note=60 velocity=0 time=0@note_on channel=0 note=72 velocity=64 time=0.0013888895833333334@note_on channel=1 note=57 velocity=49 time=0@note_on channel=0 note=72 velocity=0 time=0.16527786041666667@note_on channel=1 note=57 velocity=0 time=0@note_on channel=0 note=74 velocity=64 time=0.0013888895833333334@note_on channel=1 note=58 velocity=49 time=0@note_on channel=0 note=74 velocity=0 time=0.16527786041666667@note_on channel=1 note=58 velocity=0 time=0@note_on channel=0 note=70 velocity=64 time=0.0013888895833333334@note_on channel=1 note=55 velocity=49 time=0@note_on channel=0 note=70 velocity=0 time=0.16527786041666667@note_on channel=1 note=55 velocity=0 time=0@note_on channel=0 note=72 velocity=64 time=0.0013888895833333334@note_on channel=1 note=57 velocity=49 time=0@note_on channel=0 note=72 velocity=0 time=0.16527786041666667@note_on channel=1 note=57 velocity=0 time=0@note_on channel=0 note=69 velocity=64 time=0.0013888895833333334@note_on channel=1 note=54 velocity=49 time=0@note_on channel=0 note=69 velocity=0 time=0.16527786041666667@note_on channel=1 note=54 velocity=0 time=0@note_on channel=0 note=70 velocity=64 time=0.0013888895833333334@note_on channel=1 note=55 velocity=49 time=0@note_on channel=0 note=70 velocity=0 time=0.16527786041666667@note_on channel=1 note=55 velocity=0 time=0@note_on channel=0 note=67 velocity=64 time=0.0013888895833333334@note_on channel=1 note=52 velocity=49 time=0@note_on channel=0 note=67 velocity=0 time=0.16527786041666667@note_on channel=1 note=52 velocity=0 time=0@note_on channel=0 note=69 velocity=64 time=0.0013888895833333334@note_on channel=1 note=54 velocity=49 time=0@note_on channel=0 note=69 velocity=0 time=0.16527786041666667@note_on channel=1 note=54 velocity=0 time=0@note_on channel=0 note=66 velocity=64 time=0.0013888895833333334@note_on channel=1 note=62 velocity=49 time=0@note_on channel=0 note=66 velocity=0 time=0.16527786041666667@note_on channel=1 note=62 velocity=0 time=0@note_on channel=0 note=67 velocity=63 time=0.0013888895833333334@note_on channel=1 note=63 velocity=50 time=0@note_on channel=0 note=67 velocity=0 time=0.16527786041666667@note_on channel=1 note=63 velocity=0 time=0@note_on channel=0 note=64 velocity=61 time=0.0013888895833333334@note_on channel=1 note=60 velocity=52 time=0@note_on channel=0 note=64 velocity=0 time=0.16527786041666667@note_on channel=1 note=60 velocity=0 time=0@note_on channel=0 note=66 velocity=59 time=0.0013888895833333334@note_on channel=1 note=62 velocity=54 time=0@note_on channel=0 note=66 velocity=0 time=0.16527786041666667@note_on channel=1 note=62 velocity=0 time=0@note_on channel=0 note=62 velocity=57 time=0.0013888895833333334@note_on channel=1 note=58 velocity=56 time=0@note_on channel=0 note=62 velocity=0 time=0.16527786041666667@note_on channel=1 note=58 velocity=0 time=0@note_on channel=0 note=66 velocity=55 time=0.0013888895833333334@note_on channel=1 note=60 velocity=58 time=0@note_on channel=0 note=66 velocity=0 time=0.16527786041666667@note_on channel=1 note=60 velocity=0 time=0@note_on channel=0 note=69 velocity=53 time=0.0013888895833333334@note_on channel=1 note=62 velocity=60 time=0@note_on channel=0 note=69 velocity=0 time=0.16527786041666667@note_on channel=0 note=72 velocity=51 time=0.0013888895833333334@note_on channel=0 note=72 velocity=0 time=0.16527786041666667@note_on channel=1 note=62 velocity=0 time=0@note_on channel=0 note=67 velocity=49 time=0.0013888895833333334@note_on channel=1 note=58 velocity=64 time=0@note_on channel=0 note=67 velocity=0 time=0.16527786041666667@note_on channel=1 note=58 velocity=0 time=0@note_on channel=0 note=70 velocity=49 time=0.0013888895833333334@note_on channel=1 note=60 velocity=64 time=0@note_on channel=0 note=70 velocity=0 time=0.16527786041666667@note_on channel=1 note=60 velocity=0 time=0@note_on channel=0 note=74 velocity=49 time=0.0013888895833333334@note_on channel=1 note=57 velocity=64 time=0@note_on channel=0 note=74 velocity=0 time=0.16527786041666667@note_on channel=1 note=57 velocity=0 time=0@note_on channel=0 note=79 velocity=49 time=0.0013888895833333334@note_on channel=1 note=58 velocity=64 time=0@note_on channel=0 note=79 velocity=0 time=0.16527786041666667@note_on channel=1 note=58 velocity=0 time=0@note_on channel=0 note=70 velocity=49 time=0.0013888895833333334@note_on channel=1 note=55 velocity=64 time=0@note_on channel=0 note=70 velocity=0 time=0.16527786041666667@note_on channel=0 note=74 velocity=49 time=0.0013888895833333334@note_on channel=0 note=74 velocity=0 time=0.16527786041666667@note_on channel=1 note=55 velocity=0 time=0@note_on channel=0 note=67 velocity=49 time=0.0013888895833333334@note_on channel=1 note=67 velocity=64 time=0@note_on channel=0 note=67 velocity=0 time=0.16527786041666667@note_on channel=0 note=70 velocity=49 time=0.0013888895833333334@note_on channel=0 note=70 velocity=0 time=0.16527786041666667@note_on channel=1 note=67 velocity=0 time=0@note_on channel=0 note=62 velocity=49 time=0.0013888895833333334@note_on channel=1 note=66 velocity=64 time=0@note_on channel=0 note=62 velocity=0 time=0.16527786041666667@note_on channel=1 note=66 velocity=0 time=0@note_on channel=0 note=66 velocity=49 time=0.0013888895833333334@note_on channel=1 note=67 velocity=64 time=0@note_on channel=0 note=66 velocity=0 time=0.16527786041666667@note_on channel=1 note=67 velocity=0 time=0@note_on channel=0 note=69 velocity=49 time=0.0013888895833333334@note_on channel=1 note=64 velocity=64 time=0@note_on channel=0 note=69 velocity=0 time=0.16527786041666667@note_on channel=1 note=64 velocity=0 time=0@note_on channel=0 note=72 velocity=49 time=0.0013888895833333334@note_on channel=1 note=66 velocity=64 time=0@note_on channel=0 note=72 velocity=0 time=0.16527786041666667@note_on channel=1 note=66 velocity=0 time=0@note_on channel=0 note=70 velocity=49 time=0.0013888895833333334@note_on channel=1 note=62 velocity=64 time=0@note_on channel=0 note=70 velocity=0 time=0.16527786041666667@note_on channel=0 note=74 velocity=49 time=0.0013888895833333334@note_on channel=0 note=74 velocity=0 time=0.16527786041666667@note_on channel=1 note=62 velocity=0 time=0@note_on channel=0 note=67 velocity=49 time=0.0013888895833333334@note_on channel=1 note=67 velocity=64 time=0@note_on channel=0 note=67 velocity=0 time=0.16527786041666667@note_on channel=1 note=67 velocity=0 time=0@note_on channel=0 note=70 velocity=49 time=0.0013888895833333334@note_on channel=1 note=62 velocity=64 time=0@note_on channel=0 note=70 velocity=0 time=0.16527786041666667@note_on channel=1 note=62 velocity=0 time=0@note_on channel=0 note=60 velocity=49 time=0.0013888895833333334@note_on channel=1 note=63 velocity=64 time=0@note_on channel=0 note=60 velocity=0 time=0.16527786041666667@note_on channel=0 note=63 velocity=49 time=0.0013888895833333334@note_on channel=0 note=63 velocity=0 time=0.16527786041666667@note_on channel=1 note=63 velocity=0 time=0@note_on channel=0 note=67 velocity=49 time=0.0013888895833333334@note_on channel=1 note=60 velocity=64 time=0@note_on channel=0 note=67 velocity=0 time=0.16527786041666667@note_on channel=0 note=70 velocity=49 time=0.0013888895833333334@note_on channel=0 note=70 velocity=0 time=0.16527786041666667@note_on channel=1 note=60 velocity=0 time=0@note_on channel=0 note=69 velocity=49 time=0.0013888895833333334@note_on channel=1 note=53 velocity=64 time=0@note_on channel=0 note=69 velocity=0 time=0.16527786041666667@note_on channel=0 note=72 velocity=49 time=0.0013888895833333334@note_on channel=0 note=72 velocity=0 time=0.16527786041666667@note_on channel=1 note=53 velocity=0 time=0@note_on channel=0 note=65 velocity=49 time=0.0013888895833333334@note_on channel=1 note=65 velocity=64 time=0@note_on channel=0 note=65 velocity=0 time=0.16527786041666667@note_on channel=0 note=69 velocity=49 time=0.0013888895833333334@note_on channel=0 note=69 velocity=0 time=0.16527786041666667@note_on channel=1 note=65 velocity=0 time=0@note_on channel=0 note=58 velocity=49 time=0.0013888895833333334@note_on channel=1 note=62 velocity=64 time=0@note_on channel=0 note=58 velocity=0 time=0.16527786041666667@note_on channel=1 note=62 velocity=0 time=0@note_on channel=0 note=62 velocity=49 time=0.0013888895833333334@note_on channel=1 note=63 velocity=64 time=0@note_on channel=0 note=62 velocity=0 time=0.16527786041666667@note_on channel=1 note=63 velocity=0 time=0@note_on channel=0 note=65 velocity=49 time=0.0013888895833333334@note_on channel=1 note=60 velocity=64 time=0@note_on channel=0 note=65 velocity=0 time=0.16527786041666667@note_on channel=1 note=60 velocity=0 time=0@note_on channel=0 note=69 velocity=49 time=0.0013888895833333334@note_on channel=1 note=62 velocity=64 time=0@note_on channel=0 note=69 velocity=0 time=0.16527786041666667@note_on channel=1 note=62 velocity=0 time=0@note_on channel=0 note=67 velocity=49 time=0.0013888895833333334@note_on channel=1 note=58 velocity=64 time=0@note_on channel=0 note=67 velocity=0 time=0.16527786041666667@note_on channel=0 note=70 velocity=49 time=0.0013888895833333334@note_on channel=0 note=70 velocity=0 time=0.16527786041666667@note_on channel=1 note=58 velocity=0 time=0@note_on channel=0 note=63 velocity=49 time=0.0013888895833333334@note_on channel=1 note=63 velocity=64 time=0@note_on channel=0 note=63 velocity=0 time=0.16527786041666667@note_on channel=1 note=63 velocity=0 time=0@note_on channel=0 note=67 velocity=49 time=0.0013888895833333334@note_on channel=1 note=70 velocity=64 time=0@note_on channel=0 note=67 velocity=0 time=0.16527786041666667@note_on channel=1 note=70 velocity=0 time=0@note_on channel=0 note=69 velocity=49 time=0.0013888895833333334@note_on channel=1 note=72 velocity=64 time=0@note_on channel=0 note=69 velocity=0 time=0.16527786041666667@note_on channel=0 note=60 velocity=54 time=0.0013888895833333334@note_on channel=0 note=60 velocity=0 time=0.16527786041666667@note_on channel=1 note=72 velocity=0 time=0@note_on channel=0 note=63 velocity=59 time=0.0013888895833333334@note_on channel=1 note=69 velocity=69 time=0@note_on channel=0 note=63 velocity=0 time=0.16527786041666667@note_on channel=0 note=67 velocity=64 time=0.0013888895833333334@note_on channel=0 note=67 velocity=0 time=0.16527786041666667@note_on channel=1 note=69 velocity=0 time=0@note_on channel=0 note=66 velocity=69 time=0.0013888895833333334@note_on channel=1 note=62 velocity=74 time=0@note_on channel=0 note=66 velocity=0 time=0.16527786041666667@note_on channel=0 note=69 velocity=74 time=0.0013888895833333334@note_on channel=0 note=69 velocity=0 time=0.16527786041666667@note_on channel=1 note=62 velocity=0 time=0@note_on channel=0 note=62 velocity=80 time=0.0013888895833333334@note_on channel=1 note=62 velocity=80 time=0@note_on channel=2 note=50 velocity=80 time=0@note_on channel=0 note=62 velocity=0 time=0.16527786041666667@note_on channel=0 note=66 velocity=80 time=0.0013888895833333334@note_on channel=0 note=66 velocity=0 time=0.16527786041666667@note_on channel=1 note=62 velocity=0 time=0@note_on channel=2 note=50 velocity=0 time=0@note_on channel=0 note=67 velocity=80 time=0.0013888895833333334@note_on channel=1 note=58 velocity=80 time=0@note_on channel=2 note=55 velocity=80 time=0@note_on channel=1 note=58 velocity=0 time=0.16527786041666667@note_on channel=1 note=60 velocity=80 time=0.0013888895833333334@note_on channel=0 note=67 velocity=0 time=0.16527786041666667@note_on channel=1 note=60 velocity=0 time=0@note_on channel=2 note=55 velocity=0 time=0@note_on channel=0 note=69 velocity=80 time=0.0013888895833333334@note_on channel=1 note=57 velocity=80 time=0@note_on channel=2 note=53 velocity=80 time=0@note_on channel=1 note=57 velocity=0 time=0.16527786041666667@note_on channel=1 note=58 velocity=80 time=0.0013888895833333334@note_on channel=0 note=69 velocity=0 time=0.16527786041666667@note_on channel=1 note=58 velocity=0 time=0@note_on channel=2 note=53 velocity=0 time=0@note_on channel=0 note=70 velocity=80 time=0.0013888895833333334@note_on channel=1 note=55 velocity=80 time=0@note_on channel=2 note=51 velocity=80 time=0@note_on channel=0 note=70 velocity=0 time=0.16527786041666667@note_on channel=0 note=72 velocity=80 time=0.0013888895833333334@note_on channel=0 note=72 velocity=0 time=0.16527786041666667@note_on channel=1 note=55 velocity=0 time=0@note_on channel=0 note=70 velocity=80 time=0.0013888895833333334@note_on channel=1 note=67 velocity=80 time=0@note_on channel=0 note=70 velocity=0 time=0.16527786041666667@note_on channel=0 note=72 velocity=80 time=0.0013888895833333334@note_on channel=0 note=72 velocity=0 time=0.16527786041666667@note_on channel=1 note=67 velocity=0 time=0@note_on channel=2 note=51 velocity=0 time=0@note_on channel=0 note=74 velocity=80 time=0.0013888895833333334@note_on channel=1 note=66 velocity=80 time=0@note_on channel=2 note=50 velocity=80 time=0@note_on channel=1 note=66 velocity=0 time=0.16527786041666667@note_on channel=1 note=67 velocity=80 time=0.0013888895833333334@note_on channel=1 note=67 velocity=0 time=0.16527786041666667@note_on channel=1 note=64 velocity=80 time=0.0013888895833333334@note_on channel=1 note=64 velocity=0 time=0.16527786041666667@note_on channel=1 note=66 velocity=80 time=0.0013888895833333334@note_on channel=0 note=74 velocity=0 time=0.16527786041666667@note_on channel=1 note=66 velocity=0 time=0@note_on channel=2 note=50 velocity=0 time=0@note_on channel=1 note=62 velocity=80 time=0.0013888895833333334@note_on channel=2 note=58 velocity=80 time=0@note_on channel=1 note=62 velocity=0 time=0.3319446104166667@note_on channel=0 note=74 velocity=80 time=0.0013888895833333334@note_on channel=1 note=67 velocity=80 time=0@note_on channel=1 note=67 velocity=0 time=0.16527786041666667@note_on channel=1 note=62 velocity=80 time=0.0013888895833333334@note_on channel=0 note=74 velocity=0 time=0.16527786041666667@note_on channel=1 note=62 velocity=0 time=0@note_on channel=0 note=72 velocity=80 time=0.0013888895833333334@note_on channel=1 note=63 velocity=80 time=0@note_on channel=0 note=72 velocity=0 time=0.16527786041666667@note_on channel=0 note=74 velocity=80 time=0.0013888895833333334@note_on channel=0 note=74 velocity=0 time=0.16527786041666667@note_on channel=1 note=63 velocity=0 time=0@note_on channel=0 note=75 velocity=80 time=0.0013888895833333334@note_on channel=1 note=60 velocity=80 time=0@note_on channel=1 note=60 velocity=0 time=0.3319446104166667@note_on channel=2 note=58 velocity=0 time=0@note_on channel=1 note=53 velocity=80 time=0.0013888895833333334@note_on channel=2 note=57 velocity=80 time=0@note_on channel=0 note=75 velocity=0 time=0.16527786041666667@note_on channel=0 note=75 velocity=80 time=0.0013888895833333334@note_on channel=0 note=75 velocity=0 time=0.16527786041666667@note_on channel=1 note=53 velocity=0 time=0@note_on channel=0 note=74 velocity=80 time=0.0013888895833333334@note_on channel=1 note=65 velocity=80 time=0@note_on channel=0 note=74 velocity=0 time=0.16527786041666667@note_on channel=0 note=72 velocity=80 time=0.0013888895833333334@note_on channel=0 note=72 velocity=0 time=0.16527786041666667@note_on channel=1 note=65 velocity=0 time=0@note_on channel=0 note=70 velocity=80 time=0.0013888895833333334@note_on channel=1 note=62 velocity=80 time=0@note_on channel=0 note=70 velocity=0 time=0.16527786041666667@note_on channel=1 note=62 velocity=0 time=0@note_on channel=0 note=72 velocity=80 time=0.0013888895833333334@note_on channel=1 note=63 velocity=80 time=0@note_on channel=0 note=72 velocity=0 time=0.16527786041666667@note_on channel=1 note=63 velocity=0 time=0@note_on channel=0 note=74 velocity=80 time=0.0013888895833333334@note_on channel=1 note=60 velocity=80 time=0@note_on channel=1 note=60 velocity=0 time=0.16527786041666667@note_on channel=1 note=62 velocity=80 time=0.0013888895833333334@note_on channel=1 note=62 velocity=0 time=0.16527786041666667@note_on channel=2 note=57 velocity=0 time=0@note_on channel=1 note=58 velocity=80 time=0.0013888895833333334@note_on channel=2 note=55 velocity=80 time=0@note_on channel=0 note=74 velocity=0 time=0.16527786041666667@note_on channel=0 note=74 velocity=80 time=0.0013888895833333334@note_on channel=0 note=74 velocity=0 time=0.16527786041666667@note_on channel=1 note=58 velocity=0 time=0@note_on channel=0 note=72 velocity=80 time=0.0013888895833333334@note_on channel=1 note=63 velocity=80 time=0@note_on channel=0 note=72 velocity=0 time=0.16527786041666667@note_on channel=1 note=63 velocity=0 time=0@note_on channel=0 note=70 velocity=80 time=0.0013888895833333334@note_on channel=1 note=58 velocity=80 time=0@note_on channel=0 note=70 velocity=0 time=0.16527786041666667@note_on channel=1 note=58 velocity=0 time=0@note_on channel=0 note=69 velocity=80 time=0.0013888895833333334@note_on channel=1 note=62 velocity=80 time=0@note_on channel=0 note=69 velocity=0 time=0.16527786041666667@note_on channel=0 note=70 velocity=80 time=0.0013888895833333334@note_on channel=0 note=70 velocity=0 time=0.16527786041666667@note_on channel=1 note=62 velocity=0 time=0@note_on channel=0 note=72 velocity=80 time=0.0013888895833333334@note_on channel=1 note=57 velocity=80 time=0@note_on channel=1 note=57 velocity=0 time=0.3319446104166667@note_on channel=2 note=55 velocity=0 time=0@note_on channel=1 note=62 velocity=80 time=0.0013888895833333334@note_on channel=2 note=54 velocity=80 time=0@note_on channel=0 note=72 velocity=0 time=0.16527786041666667@note_on channel=0 note=72 velocity=80 time=0.0013888895833333334@note_on channel=0 note=72 velocity=0 time=0.16527786041666667@note_on channel=1 note=62 velocity=0 time=0@note_on channel=0 note=70 velocity=80 time=0.0013888895833333334@note_on channel=1 note=63 velocity=80 time=0@note_on channel=0 note=70 velocity=0 time=0.16527786041666667@note_on channel=1 note=63 velocity=0 time=0@note_on channel=0 note=69 velocity=80 time=0.0013888895833333334@note_on channel=1 note=62 velocity=80 time=0@note_on channel=0 note=69 velocity=0 time=0.16527786041666667@note_on channel=1 note=62 velocity=0 time=0@note_on channel=2 note=54 velocity=0 time=0@note_on channel=0 note=67 velocity=80 time=0.0013888895833333334@note_on channel=1 note=58 velocity=80 time=0@note_on channel=2 note=55 velocity=80 time=0@note_on channel=1 note=58 velocity=0 time=0.16527786041666667@note_on channel=1 note=60 velocity=80 time=0.0013888895833333334@note_on channel=0 note=67 velocity=0 time=0.16527786041666667@note_on channel=1 note=60 velocity=0 time=0@note_on channel=0 note=69 velocity=80 time=0.0013888895833333334@note_on channel=1 note=57 velocity=80 time=0@note_on channel=1 note=57 velocity=0 time=0.16527786041666667@note_on channel=1 note=58 velocity=80 time=0.0013888895833333334@note_on channel=0 note=69 velocity=0 time=0.16527786041666667@note_on channel=1 note=58 velocity=0 time=0@note_on channel=2 note=55 velocity=0 time=0@note_on channel=0 note=70 velocity=80 time=0.0013888895833333334@note_on channel=1 note=55 velocity=80 time=0@note_on channel=1 note=55 velocity=0 time=0.16527786041666667@note_on channel=1 note=58 velocity=80 time=0.0013888895833333334@note_on channel=0 note=70 velocity=0 time=0.16527786041666667@note_on channel=1 note=58 velocity=0 time=0@note_on channel=0 note=72 velocity=80 time=0.0013888895833333334@note_on channel=1 note=57 velocity=80 time=0@note_on channel=1 note=57 velocity=0 time=0.16527786041666667@note_on channel=1 note=55 velocity=80 time=0.0013888895833333334@note_on channel=0 note=72 velocity=0 time=0.16527786041666667@note_on channel=1 note=55 velocity=0 time=0@note_on channel=0 note=74 velocity=80 time=0.0013888895833333334@note_on channel=1 note=66 velocity=80 time=0@note_on channel=1 note=66 velocity=0 time=0.16527786041666667@note_on channel=1 note=67 velocity=80 time=0.0013888895833333334@note_on channel=1 note=67 velocity=0 time=0.16527786041666667@note_on channel=1 note=64 velocity=80 time=0.0013888895833333334@note_on channel=1 note=64 velocity=0 time=0.16527786041666667@note_on channel=1 note=66 velocity=80 time=0.0013888895833333334@note_on channel=1 note=66 velocity=0 time=0.16527786041666667@note_on channel=1 note=62 velocity=80 time=0.0013888895833333334@note_on channel=2 note=62 velocity=80 time=0.16666675@note_on channel=1 note=62 velocity=0 time=0.16527786041666667@note_on channel=2 note=62 velocity=0 time=0@note_on channel=1 note=66 velocity=80 time=0.0013888895833333334@note_on channel=2 note=60 velocity=80 time=0@note_on channel=2 note=60 velocity=0 time=0.16527786041666667@note_on channel=2 note=62 velocity=80 time=0.0013888895833333334@note_on channel=1 note=66 velocity=0 time=0.16527786041666667@note_on channel=2 note=62 velocity=0 time=0@note_on channel=1 note=67 velocity=80 time=0.0013888895833333334@note_on channel=2 note=58 velocity=80 time=0@note_on channel=0 note=74 velocity=0 time=0.16527786041666667@note_on channel=2 note=58 velocity=0 time=0@note_on channel=0 note=75 velocity=80 time=0.0013888895833333334@note_on channel=2 note=60 velocity=80 time=0@note_on channel=0 note=75 velocity=0 time=0.16527786041666667@note_on channel=2 note=60 velocity=0 time=0@note_on channel=0 note=72 velocity=80 time=0.0013888895833333334@note_on channel=2 note=57 velocity=80 time=0@note_on channel=0 note=72 velocity=0 time=0.16527786041666667@note_on channel=2 note=57 velocity=0 time=0@note_on channel=0 note=74 velocity=80 time=0.0013888895833333334@note_on channel=2 note=58 velocity=80 time=0@note_on channel=0 note=74 velocity=0 time=0.16527786041666667@note_on channel=2 note=58 velocity=0 time=0@note_on channel=0 note=70 velocity=80 time=0.0013888895833333334@note_on channel=2 note=55 velocity=80 time=0@note_on channel=0 note=70 velocity=0 time=0.16527786041666667@note_on channel=2 note=55 velocity=0 time=0@note_on channel=0 note=72 velocity=80 time=0.0013888895833333334@note_on channel=2 note=57 velocity=80 time=0@note_on channel=0 note=72 velocity=0 time=0.16527786041666667@note_on channel=2 note=57 velocity=0 time=0@note_on channel=0 note=74 velocity=80 time=0.0013888895833333334@note_on channel=2 note=53 velocity=80 time=0@note_on channel=0 note=74 velocity=0 time=0.16527786041666667@note_on channel=2 note=53 velocity=0 time=0@note_on channel=0 note=75 velocity=80 time=0.0013888895833333334@note_on channel=2 note=55 velocity=80 time=0@note_on channel=0 note=75 velocity=0 time=0.16527786041666667@note_on channel=2 note=55 velocity=0 time=0@note_on channel=0 note=72 velocity=80 time=0.0013888895833333334@note_on channel=2 note=51 velocity=80 time=0@note_on channel=1 note=67 velocity=0 time=0.16527786041666667@note_on channel=2 note=51 velocity=0 time=0@note_on channel=1 note=69 velocity=80 time=0.0013888895833333334@note_on channel=2 note=53 velocity=80 time=0@note_on channel=1 note=69 velocity=0 time=0.16527786041666667@note_on channel=2 note=53 velocity=0 time=0@note_on channel=1 note=65 velocity=80 time=0.0013888895833333334@note_on channel=2 note=50 velocity=80 time=0@note_on channel=1 note=65 velocity=0 time=0.16527786041666667@note_on channel=2 note=50 velocity=0 time=0@note_on channel=1 note=67 velocity=80 time=0.0013888895833333334@note_on channel=2 note=51 velocity=80 time=0@note_on channel=1 note=67 velocity=0 time=0.16527786041666667@note_on channel=2 note=51 velocity=0 time=0@note_on channel=1 note=63 velocity=80 time=0.0013888895833333334@note_on channel=2 note=48 velocity=80 time=0@note_on channel=1 note=63 velocity=0 time=0.16527786041666667@note_on channel=2 note=48 velocity=0 time=0@note_on channel=1 note=65 velocity=80 time=0.0013888895833333334@note_on channel=2 note=60 velocity=80 time=0@note_on channel=1 note=65 velocity=0 time=0.16527786041666667@note_on channel=2 note=60 velocity=0 time=0@note_on channel=1 note=67 velocity=80 time=0.0013888895833333334@note_on channel=2 note=58 velocity=80 time=0@note_on channel=1 note=67 velocity=0 time=0.16527786041666667@note_on channel=2 note=58 velocity=0 time=0@note_on channel=1 note=69 velocity=80 time=0.0013888895833333334@note_on channel=2 note=60 velocity=80 time=0@note_on channel=0 note=72 velocity=0 time=0.16527786041666667@note_on channel=1 note=69 velocity=0 time=0@note_on channel=2 note=60 velocity=0 time=0@note_on channel=0 note=72 velocity=80 time=0.0013888895833333334@note_on channel=1 note=65 velocity=80 time=0@note_on channel=2 note=57 velocity=80 time=0@note_on channel=0 note=72 velocity=0 time=0.16527786041666667@note_on channel=2 note=57 velocity=0 time=0@note_on channel=0 note=74 velocity=80 time=0.0013888895833333334@note_on channel=2 note=58 velocity=80 time=0@note_on channel=0 note=74 velocity=0 time=0.16527786041666667@note_on channel=2 note=58 velocity=0 time=0@note_on channel=0 note=70 velocity=80 time=0.0013888895833333334@note_on channel=2 note=55 velocity=80 time=0@note_on channel=0 note=70 velocity=0 time=0.16527786041666667@note_on channel=2 note=55 velocity=0 time=0@note_on channel=0 note=72 velocity=80 time=0.0013888895833333334@note_on channel=2 note=57 velocity=80 time=0@note_on channel=0 note=72 velocity=0 time=0.16527786041666667@note_on channel=2 note=57 velocity=0 time=0@note_on channel=0 note=69 velocity=80 time=0.0013888895833333334@note_on channel=2 note=53 velocity=80 time=0@note_on channel=0 note=69 velocity=0 time=0.16527786041666667@note_on channel=2 note=53 velocity=0 time=0@note_on channel=0 note=70 velocity=80 time=0.0013888895833333334@note_on channel=2 note=55 velocity=80 time=0@note_on channel=0 note=70 velocity=0 time=0.16527786041666667@note_on channel=2 note=55 velocity=0 time=0@note_on channel=0 note=72 velocity=80 time=0.0013888895833333334@note_on channel=2 note=51 velocity=80 time=0@note_on channel=0 note=72 velocity=0 time=0.16527786041666667@note_on channel=2 note=51 velocity=0 time=0@note_on channel=0 note=74 velocity=80 time=0.0013888895833333334@note_on channel=2 note=53 velocity=80 time=0@note_on channel=0 note=74 velocity=0 time=0.16527786041666667@note_on channel=2 note=53 velocity=0 time=0@note_on channel=0 note=70 velocity=80 time=0.0013888895833333334@note_on channel=2 note=50 velocity=80 time=0@note_on channel=1 note=65 velocity=0 time=0.16527786041666667@note_on channel=2 note=50 velocity=0 time=0@note_on channel=1 note=67 velocity=80 time=0.0013888895833333334@note_on channel=2 note=51 velocity=80 time=0@note_on channel=1 note=67 velocity=0 time=0.16527786041666667@note_on channel=2 note=51 velocity=0 time=0@note_on channel=1 note=63 velocity=80 time=0.0013888895833333334@note_on channel=2 note=48 velocity=80 time=0@note_on channel=1 note=63 velocity=0 time=0.16527786041666667@note_on channel=2 note=48 velocity=0 time=0@note_on channel=1 note=65 velocity=80 time=0.0013888895833333334@note_on channel=2 note=50 velocity=80 time=0@note_on channel=1 note=65 velocity=0 time=0.16527786041666667@note_on channel=2 note=50 velocity=0 time=0@note_on channel=1 note=62 velocity=80 time=0.0013888895833333334@note_on channel=2 note=58 velocity=80 time=0@note_on channel=1 note=62 velocity=0 time=0.16527786041666667@note_on channel=2 note=58 velocity=0 time=0@note_on channel=1 note=64 velocity=80 time=0.0013888895833333334@note_on channel=2 note=70 velocity=80 time=0@note_on channel=1 note=64 velocity=0 time=0.16527786041666667@note_on channel=2 note=70 velocity=0 time=0@note_on channel=1 note=66 velocity=80 time=0.0013888895833333334@note_on channel=2 note=69 velocity=80 time=0@note_on channel=1 note=66 velocity=0 time=0.16527786041666667@note_on channel=2 note=69 velocity=0 time=0@note_on channel=1 note=67 velocity=80 time=0.0013888895833333334@note_on channel=2 note=58 velocity=80 time=0@note_on channel=1 note=67 velocity=0 time=0.16527786041666667@note_on channel=2 note=58 velocity=0 time=0@note_on channel=1 note=61 velocity=80 time=0.0013888895833333334@note_on channel=2 note=55 velocity=80 time=0@note_on channel=0 note=70 velocity=0 time=0.16527786041666667@note_on channel=2 note=55 velocity=0 time=0@note_on channel=0 note=72 velocity=81 time=0.0013888895833333334@note_on channel=2 note=57 velocity=81 time=0@note_on channel=0 note=72 velocity=0 time=0.16527786041666667@note_on channel=2 note=57 velocity=0 time=0@note_on channel=0 note=69 velocity=82 time=0.0013888895833333334@note_on channel=2 note=54 velocity=82 time=0@note_on channel=0 note=69 velocity=0 time=0.16527786041666667@note_on channel=2 note=54 velocity=0 time=0@note_on channel=0 note=70 velocity=83 time=0.0013888895833333334@note_on channel=2 note=55 velocity=83 time=0@note_on channel=0 note=70 velocity=0 time=0.16527786041666667@note_on channel=2 note=55 velocity=0 time=0@note_on channel=0 note=67 velocity=84 time=0.0013888895833333334@note_on channel=2 note=52 velocity=84 time=0@note_on channel=0 note=67 velocity=0 time=0.16527786041666667@note_on channel=0 note=70 velocity=85 time=0.0013888895833333334@note_on channel=0 note=70 velocity=0 time=0.16527786041666667@note_on channel=2 note=52 velocity=0 time=0@note_on channel=0 note=69 velocity=86 time=0.0013888895833333334@note_on channel=2 note=57 velocity=86 time=0@note_on channel=0 note=69 velocity=0 time=0.16527786041666667@note_on channel=0 note=67 velocity=87 time=0.0013888895833333334@note_on channel=0 note=67 velocity=0 time=0.16527786041666667@note_on channel=1 note=61 velocity=0 time=0@note_on channel=2 note=57 velocity=0 time=0@note_on channel=0 note=66 velocity=88 time=0.0013888895833333334@note_on channel=1 note=62 velocity=88 time=0@note_on channel=2 note=50 velocity=88 time=0@note_on channel=0 note=66 velocity=0 time=0.16527786041666667@note_on channel=0 note=67 velocity=89 time=0.0013888895833333334@note_on channel=0 note=67 velocity=0 time=0.16527786041666667@note_on channel=1 note=62 velocity=0 time=0@note_on channel=0 note=64 velocity=90 time=0.0013888895833333334@note_on channel=1 note=60 velocity=90 time=0@note_on channel=0 note=64 velocity=0 time=0.16527786041666667@note_on channel=0 note=66 velocity=91 time=0.0013888895833333334@note_on channel=0 note=66 velocity=0 time=0.16527786041666667@note_on channel=1 note=60 velocity=0 time=0@note_on channel=2 note=50 velocity=0 time=0@note_on channel=0 note=67 velocity=92 time=0.0013888895833333334@note_on channel=1 note=58 velocity=92 time=0@note_on channel=2 note=52 velocity=92 time=0@note_on channel=0 note=67 velocity=0 time=0.16527786041666667@note_on channel=0 note=70 velocity=93 time=0.0013888895833333334@note_on channel=0 note=70 velocity=0 time=0.16527786041666667@note_on channel=1 note=58 velocity=0 time=0@note_on channel=2 note=52 velocity=0 time=0@note_on channel=0 note=69 velocity=94 time=0.0013888895833333334@note_on channel=1 note=62 velocity=94 time=0@note_on channel=2 note=54 velocity=94 time=0@note_on channel=0 note=69 velocity=0 time=0.16527786041666667@note_on channel=0 note=72 velocity=95 time=0.0013888895833333334@note_on channel=0 note=72 velocity=0 time=0.16527786041666667@note_on channel=2 note=54 velocity=0 time=0@note_on channel=0 note=70 velocity=96 time=0.0013888895833333334@note_on channel=2 note=55 velocity=96 time=0@note_on channel=0 note=70 velocity=0 time=0.16527786041666667@note_on channel=1 note=62 velocity=0 time=0@note_on channel=0 note=69 velocity=96 time=0.0013888895833333334@note_on channel=1 note=60 velocity=96 time=0@note_on channel=0 note=69 velocity=0 time=0.16527786041666667@note_on channel=1 note=60 velocity=0 time=0@note_on channel=2 note=55 velocity=0 time=0@note_on channel=0 note=67 velocity=96 time=0.0013888895833333334@note_on channel=1 note=58 velocity=96 time=0@note_on channel=2 note=48 velocity=96 time=0@note_on channel=0 note=67 velocity=0 time=0.16527786041666667@note_on channel=1 note=58 velocity=0 time=0@note_on channel=0 note=69 velocity=96 time=0.0013888895833333334@note_on channel=1 note=60 velocity=96 time=0@note_on channel=0 note=69 velocity=0 time=0.16527786041666667@note_on channel=1 note=60 velocity=0 time=0@note_on channel=2 note=48 velocity=0 time=0@note_on channel=0 note=66 velocity=96 time=0.0013888895833333334@note_on channel=1 note=57 velocity=96 time=0@note_on channel=2 note=50 velocity=96 time=0@note_on channel=3 note=50 velocity=126 time=0.3333335@note_on channel=4 note=38 velocity=126 time=0@note_on channel=0 note=66 velocity=0 time=0.16527786041666667@note_on channel=1 note=57 velocity=0 time=0@note_on channel=0 note=67 velocity=96 time=0.0013888895833333334@note_on channel=1 note=55 velocity=96 time=0@note_on channel=0 note=67 velocity=0 time=0.16527786041666667@note_on channel=1 note=55 velocity=0 time=0@note_on channel=2 note=50 velocity=0 time=0@note_on channel=3 note=50 velocity=0 time=0@note_on channel=4 note=38 velocity=0 time=0@note_on channel=0 note=67 velocity=96 time=0.0013888895833333334@note_on channel=1 note=55 velocity=96 time=0@note_on channel=2 note=50 velocity=96 time=0@note_on channel=3 note=46 velocity=126 time=0@note_on channel=4 note=34 velocity=126 time=0@note_on channel=3 note=46 velocity=0 time=0.16527786041666667@note_on channel=4 note=34 velocity=0 time=0@note_on channel=3 note=48 velocity=126 time=0.0013888895833333334@note_on channel=4 note=36 velocity=126 time=0@note_on channel=0 note=67 velocity=0 time=0.16527786041666667@note_on channel=1 note=55 velocity=0 time=0@note_on channel=2 note=50 velocity=0 time=0@note_on channel=3 note=48 velocity=0 time=0@note_on channel=4 note=36 velocity=0 time=0@note_on channel=3 note=45 velocity=126 time=0.0013888895833333334@note_on channel=4 note=33 velocity=126 time=0@note_on channel=3 note=45 velocity=0 time=0.16527786041666667@note_on channel=4 note=33 velocity=0 time=0@note_on channel=3 note=46 velocity=126 time=0.0013888895833333334@note_on channel=4 note=34 velocity=126 time=0@note_on channel=3 note=46 velocity=0 time=0.16527786041666667@note_on channel=4 note=34 velocity=0 time=0@note_on channel=3 note=43 velocity=126 time=0.0013888895833333334@note_on channel=4 note=31 velocity=126 time=0@note_on channel=3 note=43 velocity=0 time=0.3319446104166667@note_on channel=4 note=31 velocity=0 time=0@note_on channel=0 note=75 velocity=126 time=0.0013888895833333334@note_on channel=1 note=70 velocity=126 time=0@note_on channel=2 note=67 velocity=126 time=0@note_on channel=3 note=55 velocity=126 time=0@note_on channel=4 note=43 velocity=126 time=0@note_on channel=0 note=75 velocity=0 time=0.3319446104166667@note_on channel=1 note=70 velocity=0 time=0@note_on channel=2 note=67 velocity=0 time=0@note_on channel=3 note=55 velocity=0 time=0@note_on channel=4 note=43 velocity=0 time=0@note_on channel=0 note=74 velocity=126 time=0.0013888895833333334@note_on channel=1 note=69 velocity=126 time=0@note_on channel=2 note=62 velocity=126 time=0@note_on channel=3 note=54 velocity=126 time=0@note_on channel=4 note=42 velocity=126 time=0@note_on channel=3 note=54 velocity=0 time=0.16527786041666667@note_on channel=4 note=42 velocity=0 time=0@note_on channel=3 note=55 velocity=126 time=0.0013888895833333334@note_on channel=4 note=43 velocity=126 time=0@note_on channel=3 note=55 velocity=0 time=0.16527786041666667@note_on channel=4 note=43 velocity=0 time=0@note_on channel=3 note=52 velocity=126 time=0.0013888895833333334@note_on channel=4 note=40 velocity=126 time=0@note_on channel=3 note=52 velocity=0 time=0.16527786041666667@note_on channel=4 note=40 velocity=0 time=0@note_on channel=3 note=54 velocity=126 time=0.0013888895833333334@note_on channel=4 note=42 velocity=126 time=0@note_on channel=0 note=74 velocity=0 time=0.16527786041666667@note_on channel=1 note=69 velocity=0 time=0@note_on channel=2 note=62 velocity=0 time=0@note_on channel=3 note=54 velocity=0 time=0@note_on channel=4 note=42 velocity=0 time=0@note_on channel=3 note=50 velocity=126 time=0.0013888895833333334@note_on channel=4 note=38 velocity=126 time=0@note_on channel=3 note=50 velocity=0 time=0.3319446104166667@note_on channel=4 note=38 velocity=0 time=0@note_on channel=0 note=74 velocity=126 time=0.0013888895833333334@note_on channel=1 note=70 velocity=126 time=0@note_on channel=2 note=62 velocity=126 time=0@note_on channel=3 note=55 velocity=126 time=0@note_on channel=4 note=43 velocity=126 time=0@note_on channel=3 note=55 velocity=0 time=0.16527786041666667@note_on channel=4 note=43 velocity=0 time=0@note_on channel=3 note=50 velocity=126 time=0.0013888895833333334@note_on channel=4 note=38 velocity=126 time=0@note_on channel=0 note=74 velocity=0 time=0.16527786041666667@note_on channel=1 note=70 velocity=0 time=0@note_on channel=2 note=62 velocity=0 time=0@note_on channel=3 note=50 velocity=0 time=0@note_on channel=4 note=38 velocity=0 time=0@note_on channel=0 note=79 velocity=126 time=0.0013888895833333334@note_on channel=1 note=70 velocity=126 time=0@note_on channel=2 note=60 velocity=126 time=0@note_on channel=3 note=51 velocity=126 time=0@note_on channel=4 note=39 velocity=126 time=0@note_on channel=0 note=79 velocity=0 time=0.16527786041666667@note_on channel=0 note=77 velocity=126 time=0.0013888895833333334@note_on channel=0 note=77 velocity=0 time=0.16527786041666667@note_on channel=3 note=51 velocity=0 time=0@note_on channel=4 note=39 velocity=0 time=0@note_on channel=0 note=75 velocity=126 time=0.0013888895833333334@note_on channel=3 note=48 velocity=126 time=0@note_on channel=4 note=36 velocity=126 time=0@note_on channel=0 note=75 velocity=0 time=0.16527786041666667@note_on channel=0 note=74 velocity=126 time=0.0013888895833333334@note_on channel=0 note=74 velocity=0 time=0.16527786041666667@note_on channel=3 note=48 velocity=0 time=0@note_on channel=4 note=36 velocity=0 time=0@note_on channel=0 note=72 velocity=126 time=0.0013888895833333334@note_on channel=3 note=41 velocity=126 time=0@note_on channel=4 note=29 velocity=126 time=0@note_on channel=1 note=70 velocity=0 time=0.16527786041666667@note_on channel=1 note=70 velocity=126 time=0.0013888895833333334@note_on channel=0 note=72 velocity=0 time=0.16527786041666667@note_on channel=1 note=70 velocity=0 time=0@note_on channel=3 note=41 velocity=0 time=0@note_on channel=4 note=29 velocity=0 time=0@note_on channel=0 note=74 velocity=126 time=0.0013888895833333334@note_on channel=1 note=69 velocity=126 time=0@note_on channel=3 note=53 velocity=126 time=0@note_on channel=4 note=41 velocity=126 time=0@note_on channel=0 note=74 velocity=0 time=0.16527786041666667@note_on channel=1 note=69 velocity=0 time=0@note_on channel=0 note=75 velocity=126 time=0.0013888895833333334@note_on channel=1 note=67 velocity=126 time=0@note_on channel=0 note=75 velocity=0 time=0.16527786041666667@note_on channel=1 note=67 velocity=0 time=0@note_on channel=2 note=60 velocity=0 time=0@note_on channel=3 note=53 velocity=0 time=0@note_on channel=4 note=41 velocity=0 time=0@note_on channel=0 note=77 velocity=126 time=0.0013888895833333334@note_on channel=1 note=69 velocity=126 time=0@note_on channel=2 note=58 velocity=126 time=0@note_on channel=3 note=50 velocity=126 time=0@note_on channel=4 note=38 velocity=126 time=0@note_on channel=0 note=77 velocity=0 time=0.16527786041666667@note_on channel=3 note=50 velocity=0 time=0@note_on channel=4 note=38 velocity=0 time=0@note_on channel=0 note=79 velocity=126 time=0.0013888895833333334@note_on channel=3 note=51 velocity=126 time=0@note_on channel=4 note=39 velocity=126 time=0@note_on channel=0 note=79 velocity=0 time=0.16527786041666667@note_on channel=3 note=51 velocity=0 time=0@note_on channel=4 note=39 velocity=0 time=0@note_on channel=0 note=75 velocity=126 time=0.0013888895833333334@note_on channel=3 note=48 velocity=126 time=0@note_on channel=4 note=36 velocity=126 time=0@note_on channel=0 note=75 velocity=0 time=0.16527786041666667@note_on channel=3 note=48 velocity=0 time=0@note_on channel=4 note=36 velocity=0 time=0@note_on channel=0 note=77 velocity=126 time=0.0013888895833333334@note_on channel=3 note=50 velocity=126 time=0@note_on channel=4 note=38 velocity=126 time=0@note_on channel=0 note=77 velocity=0 time=0.16527786041666667@note_on channel=3 note=50 velocity=0 time=0@note_on channel=4 note=38 velocity=0 time=0@note_on channel=0 note=74 velocity=126 time=0.0013888895833333334@note_on channel=3 note=46 velocity=126 time=0@note_on channel=4 note=34 velocity=126 time=0@note_on channel=1 note=69 velocity=0 time=0.16527786041666667@note_on channel=1 note=69 velocity=126 time=0.0013888895833333334@note_on channel=0 note=74 velocity=0 time=0.16527786041666667@note_on channel=1 note=69 velocity=0 time=0@note_on channel=3 note=46 velocity=0 time=0@note_on channel=4 note=34 velocity=0 time=0@note_on channel=0 note=70 velocity=126 time=0.0013888895833333334@note_on channel=1 note=67 velocity=126 time=0@note_on channel=3 note=51 velocity=126 time=0@note_on channel=4 note=39 velocity=126 time=0@note_on channel=1 note=67 velocity=0 time=0.16527786041666667@note_on channel=3 note=51 velocity=0 time=0@note_on channel=4 note=39 velocity=0 time=0@note_on channel=1 note=66 velocity=126 time=0.0013888895833333334@note_on channel=3 note=46 velocity=126 time=0@note_on channel=4 note=34 velocity=126 time=0@note_on channel=0 note=70 velocity=0 time=0.16527786041666667@note_on channel=1 note=66 velocity=0 time=0@note_on channel=2 note=58 velocity=0 time=0@note_on channel=3 note=46 velocity=0 time=0@note_on channel=4 note=34 velocity=0 time=0@note_on channel=0 note=75 velocity=126 time=0.0013888895833333334@note_on channel=1 note=67 velocity=126 time=0@note_on channel=2 note=57 velocity=126 time=0@note_on channel=3 note=48 velocity=126 time=0@note_on channel=4 note=36 velocity=126 time=0@note_on channel=0 note=75 velocity=0 time=0.16527786041666667@note_on channel=0 note=74 velocity=126 time=0.0013888895833333334@note_on channel=0 note=74 velocity=0 time=0.16527786041666667@note_on channel=3 note=48 velocity=0 time=0@note_on channel=4 note=36 velocity=0 time=0@note_on channel=0 note=72 velocity=126 time=0.0013888895833333334@note_on channel=3 note=45 velocity=126 time=0@note_on channel=4 note=33 velocity=126 time=0@note_on channel=0 note=72 velocity=0 time=0.16527786041666667@note_on channel=0 note=70 velocity=126 time=0.0013888895833333334@note_on channel=0 note=70 velocity=0 time=0.16527786041666667@note_on channel=3 note=45 velocity=0 time=0@note_on channel=4 note=33 velocity=0 time=0@note_on channel=0 note=69 velocity=126 time=0.0013888895833333334@note_on channel=3 note=38 velocity=126 time=0@note_on channel=4 note=26 velocity=126 time=0@note_on channel=1 note=67 velocity=0 time=0.16527786041666667@note_on channel=1 note=67 velocity=107 time=0.0013888895833333334@note_on channel=0 note=69 velocity=0 time=0.16527786041666667@note_on channel=1 note=67 velocity=0 time=0@note_on channel=3 note=38 velocity=0 time=0@note_on channel=4 note=26 velocity=0 time=0@note_on channel=0 note=70 velocity=88 time=0.0013888895833333334@note_on channel=1 note=66 velocity=88 time=0@note_on channel=3 note=50 velocity=88 time=0@note_on channel=4 note=38 velocity=88 time=0@note_on channel=0 note=70 velocity=0 time=0.16527786041666667@note_on channel=1 note=66 velocity=0 time=0@note_on channel=0 note=72 velocity=69 time=0.0013888895833333334@note_on channel=1 note=64 velocity=69 time=0@note_on channel=0 note=72 velocity=0 time=0.16527786041666667@note_on channel=1 note=64 velocity=0 time=0@note_on channel=2 note=57 velocity=0 time=0@note_on channel=3 note=50 velocity=0 time=0@note_on channel=4 note=38 velocity=0 time=0@note_on channel=0 note=74 velocity=49 time=0.0013888895833333334@note_on channel=1 note=62 velocity=49 time=0@note_on channel=2 note=58 velocity=49 time=0@note_on channel=3 note=58 velocity=49 time=0@note_on channel=4 note=34 velocity=49 time=0@note_on channel=0 note=74 velocity=0 time=0.16527786041666667@note_on channel=4 note=34 velocity=0 time=0@note_on channel=0 note=75 velocity=49 time=0.0013888895833333334@note_on channel=4 note=36 velocity=49 time=0@note_on channel=0 note=75 velocity=0 time=0.16527786041666667@note_on channel=1 note=62 velocity=0 time=0@note_on channel=2 note=58 velocity=0 time=0@note_on channel=3 note=58 velocity=0 time=0@note_on channel=4 note=36 velocity=0 time=0@note_on channel=0 note=72 velocity=51 time=0.0013888895833333334@note_on channel=1 note=66 velocity=49 time=0@note_on channel=2 note=60 velocity=49 time=0@note_on channel=3 note=60 velocity=49 time=0@note_on channel=4 note=33 velocity=49 time=0@note_on channel=0 note=72 velocity=0 time=0.16527786041666667@note_on channel=4 note=33 velocity=0 time=0@note_on channel=0 note=74 velocity=53 time=0.0013888895833333334@note_on channel=4 note=34 velocity=51 time=0@note_on channel=0 note=74 velocity=0 time=0.16527786041666667@note_on channel=1 note=66 velocity=0 time=0@note_on channel=2 note=60 velocity=0 time=0@note_on channel=3 note=60 velocity=0 time=0@note_on channel=4 note=34 velocity=0 time=0@note_on channel=0 note=70 velocity=56 time=0.0013888895833333334@note_on channel=1 note=67 velocity=54 time=0@note_on channel=2 note=62 velocity=54 time=0@note_on channel=3 note=62 velocity=54 time=0@note_on channel=4 note=31 velocity=54 time=0@note_on channel=4 note=31 velocity=0 time=0.16527786041666667@note_on channel=4 note=34 velocity=56 time=0.0013888895833333334@note_on channel=0 note=70 velocity=0 time=0.16527786041666667@note_on channel=1 note=67 velocity=0 time=0@note_on channel=2 note=62 velocity=0 time=0@note_on channel=3 note=62 velocity=0 time=0@note_on channel=4 note=34 velocity=0 time=0@note_on channel=0 note=78 velocity=61 time=0.0013888895833333334@note_on channel=1 note=63 velocity=59 time=0@note_on channel=2 note=60 velocity=59 time=0@note_on channel=3 note=60 velocity=59 time=0@note_on channel=4 note=33 velocity=59 time=0@note_on channel=4 note=33 velocity=0 time=0.16527786041666667@note_on channel=4 note=36 velocity=61 time=0.0013888895833333334@note_on channel=0 note=78 velocity=0 time=0.16527786041666667@note_on channel=1 note=63 velocity=0 time=0@note_on channel=2 note=60 velocity=0 time=0@note_on channel=3 note=60 velocity=0 time=0@note_on channel=4 note=36 velocity=0 time=0@note_on channel=0 note=79 velocity=66 time=0.0013888895833333334@note_on channel=1 note=62 velocity=64 time=0@note_on channel=2 note=55 velocity=64 time=0@note_on channel=3 note=55 velocity=64 time=0@note_on channel=4 note=34 velocity=64 time=0@note_on channel=4 note=34 velocity=0 time=0.16527786041666667@note_on channel=4 note=36 velocity=66 time=0.0013888895833333334@note_on channel=0 note=79 velocity=0 time=0.16527786041666667@note_on channel=1 note=62 velocity=0 time=0@note_on channel=2 note=55 velocity=0 time=0@note_on channel=3 note=55 velocity=0 time=0@note_on channel=4 note=36 velocity=0 time=0@note_on channel=0 note=72 velocity=71 time=0.0013888895833333334@note_on channel=1 note=66 velocity=69 time=0@note_on channel=2 note=57 velocity=69 time=0@note_on channel=3 note=57 velocity=69 time=0@note_on channel=4 note=33 velocity=69 time=0@note_on channel=4 note=33 velocity=0 time=0.16527786041666667@note_on channel=4 note=34 velocity=72 time=0.0013888895833333334@note_on channel=0 note=72 velocity=0 time=0.16527786041666667@note_on channel=1 note=66 velocity=0 time=0@note_on channel=2 note=57 velocity=0 time=0@note_on channel=3 note=57 velocity=0 time=0@note_on channel=4 note=34 velocity=0 time=0@note_on channel=0 note=70 velocity=76 time=0.0013888895833333334@note_on channel=1 note=67 velocity=74 time=0@note_on channel=2 note=62 velocity=74 time=0@note_on channel=3 note=62 velocity=74 time=0@note_on channel=4 note=31 velocity=74 time=0@note_on channel=4 note=31 velocity=0 time=0.16527786041666667@note_on channel=4 note=34 velocity=77 time=0.0013888895833333334@note_on channel=0 note=70 velocity=0 time=0.16527786041666667@note_on channel=1 note=67 velocity=0 time=0@note_on channel=2 note=62 velocity=0 time=0@note_on channel=3 note=62 velocity=0 time=0@note_on channel=4 note=34 velocity=0 time=0@note_on channel=0 note=78 velocity=81 time=0.0013888895833333334@note_on channel=1 note=63 velocity=79 time=0@note_on channel=2 note=60 velocity=79 time=0@note_on channel=3 note=60 velocity=79 time=0@note_on channel=4 note=33 velocity=79 time=0@note_on channel=4 note=33 velocity=0 time=0.16527786041666667@note_on channel=4 note=36 velocity=82 time=0.0013888895833333334@note_on channel=0 note=78 velocity=0 time=0.16527786041666667@note_on channel=1 note=63 velocity=0 time=0@note_on channel=2 note=60 velocity=0 time=0@note_on channel=3 note=60 velocity=0 time=0@note_on channel=4 note=36 velocity=0 time=0@note_on channel=0 note=79 velocity=86 time=0.0013888895833333334@note_on channel=1 note=62 velocity=84 time=0@note_on channel=2 note=55 velocity=84 time=0@note_on channel=3 note=55 velocity=84 time=0@note_on channel=4 note=34 velocity=84 time=0@note_on channel=4 note=34 velocity=0 time=0.16527786041666667@note_on channel=4 note=36 velocity=87 time=0.0013888895833333334@note_on channel=0 note=79 velocity=0 time=0.16527786041666667@note_on channel=1 note=62 velocity=0 time=0@note_on channel=2 note=55 velocity=0 time=0@note_on channel=3 note=55 velocity=0 time=0@note_on channel=4 note=36 velocity=0 time=0@note_on channel=0 note=72 velocity=91 time=0.0013888895833333334@note_on channel=1 note=66 velocity=90 time=0@note_on channel=2 note=57 velocity=90 time=0@note_on channel=3 note=57 velocity=90 time=0@note_on channel=4 note=33 velocity=90 time=0@note_on channel=4 note=33 velocity=0 time=0.16527786041666667@note_on channel=4 note=34 velocity=92 time=0.0013888895833333334@note_on channel=0 note=72 velocity=0 time=0.16527786041666667@note_on channel=1 note=66 velocity=0 time=0@note_on channel=2 note=57 velocity=0 time=0@note_on channel=3 note=57 velocity=0 time=0@note_on channel=4 note=34 velocity=0 time=0@note_on channel=0 note=70 velocity=96 time=0.0013888895833333334@note_on channel=1 note=67 velocity=95 time=0@note_on channel=2 note=62 velocity=95 time=0@note_on channel=3 note=62 velocity=95 time=0@note_on channel=4 note=31 velocity=95 time=0@note_on channel=4 note=31 velocity=0 time=0.16527786041666667@note_on channel=4 note=34 velocity=97 time=0.0013888895833333334@note_on channel=0 note=70 velocity=0 time=0.16527786041666667@note_on channel=1 note=67 velocity=0 time=0@note_on channel=2 note=62 velocity=0 time=0@note_on channel=3 note=62 velocity=0 time=0@note_on channel=4 note=34 velocity=0 time=0@note_on channel=0 note=78 velocity=101 time=0.0013888895833333334@note_on channel=1 note=63 velocity=100 time=0@note_on channel=2 note=60 velocity=100 time=0@note_on channel=3 note=60 velocity=100 time=0@note_on channel=4 note=33 velocity=100 time=0@note_on channel=4 note=33 velocity=0 time=0.16527786041666667@note_on channel=4 note=36 velocity=102 time=0.0013888895833333334@note_on channel=0 note=78 velocity=0 time=0.16527786041666667@note_on channel=1 note=63 velocity=0 time=0@note_on channel=2 note=60 velocity=0 time=0@note_on channel=3 note=60 velocity=0 time=0@note_on channel=4 note=36 velocity=0 time=0@note_on channel=0 note=79 velocity=106 time=0.0013888895833333334@note_on channel=2 note=62 velocity=105 time=0@note_on channel=3 note=55 velocity=105 time=0@note_on channel=4 note=34 velocity=105 time=0@note_on channel=4 note=34 velocity=0 time=0.16527786041666667@note_on channel=4 note=38 velocity=108 time=0.0013888895833333334@note_on channel=0 note=79 velocity=0 time=0.16527786041666667@note_on channel=2 note=62 velocity=0 time=0@note_on channel=3 note=55 velocity=0 time=0@note_on channel=4 note=38 velocity=0 time=0@note_on channel=0 note=81 velocity=111 time=0.0013888895833333334@note_on channel=1 note=72 velocity=110 time=0@note_on channel=2 note=63 velocity=110 time=0@note_on channel=3 note=60 velocity=110 time=0@note_on channel=4 note=36 velocity=110 time=0@note_on channel=4 note=36 velocity=0 time=0.16527786041666667@note_on channel=4 note=39 velocity=113 time=0.0013888895833333334@note_on channel=0 note=81 velocity=0 time=0.16527786041666667@note_on channel=1 note=72 velocity=0 time=0@note_on channel=2 note=63 velocity=0 time=0@note_on channel=3 note=60 velocity=0 time=0@note_on channel=4 note=39 velocity=0 time=0@note_on channel=0 note=74 velocity=116 time=0.0013888895833333334@note_on channel=1 note=70 velocity=115 time=0@note_on channel=2 note=58 velocity=115 time=0@note_on channel=3 note=62 velocity=115 time=0@note_on channel=4 note=38 velocity=115 time=0@note_on channel=0 note=74 velocity=0 time=0.3319446104166667@note_on channel=1 note=70 velocity=0 time=0@note_on channel=2 note=58 velocity=0 time=0@note_on channel=3 note=62 velocity=0 time=0@note_on channel=4 note=38 velocity=0 time=0@note_on channel=0 note=78 velocity=121 time=0.0013888895833333334@note_on channel=1 note=72 velocity=120 time=0@note_on channel=2 note=62 velocity=120 time=0@note_on channel=3 note=57 velocity=120 time=0@note_on channel=4 note=26 velocity=120 time=0@note_on channel=0 note=78 velocity=0 time=0.3319446104166667@note_on channel=1 note=72 velocity=0 time=0@note_on channel=2 note=62 velocity=0 time=0@note_on channel=3 note=57 velocity=0 time=0@note_on channel=4 note=26 velocity=0 time=0@note_on channel=0 note=79 velocity=126 time=0.0013888895833333334@note_on channel=1 note=74 velocity=126 time=0@note_on channel=2 note=59 velocity=126 time=0@note_on channel=3 note=55 velocity=126 time=0@note_on channel=4 note=31 velocity=126 time=0@note_on channel=0 note=79 velocity=0 time=2.665279110416667@note_on channel=1 note=74 velocity=0 time=0@note_on channel=2 note=59 velocity=0 time=0@note_on channel=3 note=55 velocity=0 time=0@note_on channel=4 note=31 velocity=0 time=0@<meta message end_of_track time=0.0013888895833333334>@