<meta message time_signature numerator=48 denominator=4 clocks_per_click=24 notated_32nd_notes_per_beat=8 time=0>@<meta message key_signature key='C' time=0>@<meta message set_tempo tempo=317460 time=0>@<meta message midi_port port=0 time=0>@<meta message track_name name='Melody' time=0>@program_change channel=0 program=74 time=0@control_change channel=0 control=7 value=100 time=0@control_change channel=0 control=10 value=64 time=0@note_on channel=0 note=72 velocity=100 time=0@<meta message midi_port port=0 time=0>@<meta message track_name name='Bassline' time=0>@program_change channel=1 program=43 time=0@control_change channel=1 control=7 value=100 time=0@control_change channel=1 control=10 value=64 time=0@note_on channel=1 note=48 velocity=100 time=0@<meta message midi_port port=0 time=0>@program_change channel=2 program=25 time=0@control_change channel=2 control=7 value=100 time=0@control_change channel=2 control=10 value=64 time=0@control_change channel=2 control=0 value=16 time=0@<meta message midi_port port=0 time=0>@program_change channel=3 program=110 time=0@control_change channel=3 control=7 value=100 time=0@control_change channel=3 control=10 value=64 time=0@<meta message midi_port port=0 time=0>@program_change channel=4 program=85 time=0@control_change channel=4 control=7 value=100 time=0@control_change channel=4 control=10 value=64 time=0@<meta message midi_port port=0 time=0>@program_change channel=5 program=92 time=0@control_change channel=5 control=7 value=100 time=0@control_change channel=5 control=10 value=64 time=0@<meta message midi_port port=0 time=0>@program_change channel=6 program=6 time=0@control_change channel=6 control=7 value=100 time=0@control_change channel=6 control=10 value=64 time=0@<meta message midi_port port=0 time=0>@program_change channel=7 program=7 time=0@control_change channel=7 control=7 value=100 time=0@control_change channel=7 control=10 value=64 time=0@<meta message midi_port port=0 time=0>@program_change channel=8 program=0 time=0@control_change channel=8 control=7 value=100 time=0@control_change channel=8 control=10 value=64 time=0@<meta message midi_port port=0 time=0>@program_change channel=10 program=72 time=0@control_change channel=10 control=7 value=100 time=0@control_change channel=10 control=10 value=64 time=0@<meta message midi_port port=0 time=0>@program_change channel=11 program=71 time=0@control_change channel=11 control=7 value=100 time=0@control_change channel=11 control=10 value=64 time=0@<meta message midi_port port=0 time=0>@program_change channel=12 program=42 time=0@control_change channel=12 control=7 value=100 time=0@control_change channel=12 control=10 value=64 time=0@<meta message midi_port port=0 time=0>@program_change channel=13 program=41 time=0@control_change channel=13 control=7 value=100 time=0@control_change channel=13 control=10 value=64 time=0@<meta message midi_port port=0 time=0>@program_change channel=14 program=98 time=0@control_change channel=14 control=7 value=100 time=0@control_change channel=14 control=10 value=64 time=0@note_on channel=0 note=72 velocity=0 time=0.6349199999999999@note_on channel=0 note=74 velocity=100 time=0@note_on channel=0 note=74 velocity=0 time=0.31745999999999996@note_on channel=0 note=76 velocity=100 time=0@note_on channel=1 note=48 velocity=0 time=0@note_on channel=1 note=40 velocity=100 time=0@note_on channel=0 note=76 velocity=0 time=0.6349199999999999@note_on channel=0 note=76 velocity=100 time=0@note_on channel=0 note=76 velocity=0 time=0.31745999999999996@note_on channel=0 note=74 velocity=100 time=0@note_on channel=1 note=40 velocity=0 time=0@note_on channel=1 note=50 velocity=100 time=0@note_on channel=0 note=74 velocity=0 time=0.6349199999999999@note_on channel=0 note=71 velocity=100 time=0@note_on channel=0 note=71 velocity=0 time=0.31745999999999996@note_on channel=0 note=67 velocity=100 time=0@note_on channel=1 note=50 velocity=0 time=0@note_on channel=1 note=43 velocity=100 time=0@note_on channel=0 note=67 velocity=0 time=0.9523799999999999@note_on channel=0 note=69 velocity=100 time=0@note_on channel=1 note=43 velocity=0 time=0@note_on channel=1 note=45 velocity=100 time=0@note_on channel=0 note=69 velocity=0 time=0.47618999999999995@note_on channel=0 note=71 velocity=100 time=0@note_on channel=0 note=71 velocity=0 time=0.15872999999999998@note_on channel=0 note=72 velocity=100 time=0@note_on channel=0 note=72 velocity=0 time=0.31745999999999996@note_on channel=0 note=74 velocity=100 time=0@note_on channel=1 note=45 velocity=0 time=0@note_on channel=1 note=38 velocity=100 time=0@note_on channel=0 note=74 velocity=0 time=0.31745999999999996@note_on channel=0 note=76 velocity=100 time=0@note_on channel=0 note=76 velocity=0 time=0.31745999999999996@note_on channel=0 note=72 velocity=100 time=0@note_on channel=0 note=72 velocity=0 time=0.31745999999999996@note_on channel=0 note=71 velocity=100 time=0@note_on channel=1 note=38 velocity=0 time=0@note_on channel=1 note=47 velocity=100 time=0@note_on channel=0 note=71 velocity=0 time=0.6349199999999999@note_on channel=0 note=68 velocity=100 time=0@note_on channel=0 note=68 velocity=0 time=0.31745999999999996@note_on channel=0 note=64 velocity=100 time=0@note_on channel=1 note=47 velocity=0 time=0@note_on channel=1 note=40 velocity=100 time=0@note_on channel=0 note=64 velocity=0 time=0.9523799999999999@note_on channel=0 note=72 velocity=100 time=0@note_on channel=1 note=40 velocity=0 time=0@note_on channel=1 note=48 velocity=100 time=0@note_on channel=0 note=72 velocity=0 time=0.6349199999999999@note_on channel=0 note=74 velocity=100 time=0@note_on channel=0 note=74 velocity=0 time=0.31745999999999996@note_on channel=0 note=76 velocity=100 time=0@note_on channel=1 note=48 velocity=0 time=0@note_on channel=1 note=40 velocity=100 time=0@note_on channel=0 note=76 velocity=0 time=0.47618999999999995@note_on channel=0 note=74 velocity=100 time=0@note_on channel=0 note=74 velocity=0 time=0.15872999999999998@note_on channel=0 note=72 velocity=100 time=0@note_on channel=0 note=72 velocity=0 time=0.31745999999999996@note_on channel=0 note=74 velocity=100 time=0@note_on channel=1 note=40 velocity=0 time=0@note_on channel=1 note=50 velocity=100 time=0@note_on channel=0 note=74 velocity=0 time=0.6349199999999999@note_on channel=0 note=71 velocity=100 time=0@note_on channel=0 note=71 velocity=0 time=0.31745999999999996@note_on channel=0 note=67 velocity=100 time=0@note_on channel=1 note=50 velocity=0 time=0@note_on channel=1 note=43 velocity=100 time=0@note_on channel=0 note=67 velocity=0 time=0.47618999999999995@note_on channel=0 note=69 velocity=100 time=0@note_on channel=0 note=69 velocity=0 time=0.15872999999999998@note_on channel=0 note=71 velocity=100 time=0@note_on channel=0 note=71 velocity=0 time=0.31745999999999996@note_on channel=0 note=72 velocity=100 time=0@note_on channel=1 note=43 velocity=0 time=0@note_on channel=1 note=45 velocity=100 time=0@note_on channel=0 note=72 velocity=0 time=0.47618999999999995@note_on channel=0 note=71 velocity=100 time=0@note_on channel=0 note=71 velocity=0 time=0.15872999999999998@note_on channel=0 note=69 velocity=100 time=0@note_on channel=0 note=69 velocity=0 time=0.31745999999999996@note_on channel=0 note=72 velocity=100 time=0@note_on channel=1 note=45 velocity=0 time=0@note_on channel=1 note=38 velocity=100 time=0@note_on channel=0 note=72 velocity=0 time=0.07936499999999999@note_on channel=0 note=71 velocity=100 time=0@note_on channel=0 note=71 velocity=0 time=0.07936499999999999@note_on channel=0 note=72 velocity=100 time=0@note_on channel=0 note=72 velocity=0 time=0.07936499999999999@note_on channel=0 note=71 velocity=100 time=0@note_on channel=0 note=71 velocity=0 time=0.23809499999999997@note_on channel=0 note=69 velocity=100 time=0@note_on channel=0 note=69 velocity=0 time=0.15872999999999998@note_on channel=0 note=68 velocity=100 time=0@note_on channel=0 note=68 velocity=0 time=0.31745999999999996@note_on channel=0 note=69 velocity=100 time=0@note_on channel=1 note=38 velocity=0 time=0@note_on channel=1 note=45 velocity=100 time=0@note_on channel=0 note=69 velocity=0 time=0.9523799999999999@note_on channel=0 note=69 velocity=100 time=0@note_on channel=0 note=69 velocity=0 time=0.9523799999999999@note_on channel=0 note=72 velocity=100 time=0@note_on channel=1 note=45 velocity=0 time=0@note_on channel=1 note=48 velocity=100 time=0@note_on channel=2 note=72 velocity=100 time=0@note_on channel=0 note=72 velocity=0 time=0.47618999999999995@note_on channel=0 note=74 velocity=100 time=0@note_on channel=0 note=74 velocity=0 time=0.15872999999999998@note_on channel=0 note=76 velocity=100 time=0@note_on channel=2 note=72 velocity=0 time=0@note_on channel=2 note=74 velocity=100 time=0@note_on channel=0 note=76 velocity=0 time=0.31745999999999996@note_on channel=0 note=76 velocity=100 time=0@note_on channel=1 note=48 velocity=0 time=0@note_on channel=1 note=40 velocity=100 time=0@note_on channel=2 note=74 velocity=0 time=0@note_on channel=2 note=76 velocity=100 time=0@note_on channel=0 note=76 velocity=0 time=0.47618999999999995@note_on channel=0 note=77 velocity=100 time=0@note_on channel=0 note=77 velocity=0 time=0.15872999999999998@note_on channel=0 note=76 velocity=100 time=0@note_on channel=2 note=76 velocity=0 time=0@note_on channel=2 note=76 velocity=100 time=0@note_on channel=0 note=76 velocity=0 time=0.31745999999999996@note_on channel=0 note=74 velocity=100 time=0@note_on channel=1 note=40 velocity=0 time=0@note_on channel=1 note=50 velocity=100 time=0@note_on channel=2 note=76 velocity=0 time=0@note_on channel=2 note=74 velocity=100 time=0@note_on channel=0 note=74 velocity=0 time=0.47618999999999995@note_on channel=0 note=76 velocity=100 time=0@note_on channel=0 note=76 velocity=0 time=0.15872999999999998@note_on channel=0 note=74 velocity=100 time=0@note_on channel=2 note=74 velocity=0 time=0@note_on channel=2 note=71 velocity=100 time=0@note_on channel=0 note=74 velocity=0 time=0.31745999999999996@note_on channel=0 note=71 velocity=100 time=0@note_on channel=1 note=50 velocity=0 time=0@note_on channel=1 note=43 velocity=100 time=0@note_on channel=2 note=71 velocity=0 time=0@note_on channel=2 note=67 velocity=100 time=0@note_on channel=0 note=71 velocity=0 time=0.47618999999999995@note_on channel=0 note=72 velocity=100 time=0@note_on channel=0 note=72 velocity=0 time=0.15872999999999998@note_on channel=0 note=74 velocity=100 time=0@note_on channel=0 note=74 velocity=0 time=0.31745999999999996@note_on channel=0 note=72 velocity=100 time=0@note_on channel=1 note=43 velocity=0 time=0@note_on channel=1 note=45 velocity=100 time=0@note_on channel=2 note=67 velocity=0 time=0@note_on channel=2 note=69 velocity=100 time=0@note_on channel=0 note=72 velocity=0 time=0.47618999999999995@note_on channel=0 note=71 velocity=100 time=0@note_on channel=2 note=69 velocity=0 time=0@note_on channel=2 note=71 velocity=100 time=0@note_on channel=0 note=71 velocity=0 time=0.15872999999999998@note_on channel=0 note=72 velocity=100 time=0@note_on channel=2 note=71 velocity=0 time=0@note_on channel=2 note=72 velocity=100 time=0@note_on channel=0 note=72 velocity=0 time=0.31745999999999996@note_on channel=0 note=69 velocity=100 time=0@note_on channel=1 note=45 velocity=0 time=0@note_on channel=1 note=38 velocity=100 time=0@note_on channel=2 note=72 velocity=0 time=0@note_on channel=2 note=74 velocity=100 time=0@note_on channel=2 note=74 velocity=0 time=0.31745999999999996@note_on channel=2 note=76 velocity=100 time=0@note_on channel=0 note=69 velocity=0 time=0.15872999999999998@note_on channel=0 note=71 velocity=100 time=0@note_on channel=0 note=71 velocity=0 time=0.15872999999999998@note_on channel=0 note=72 velocity=100 time=0@note_on channel=2 note=76 velocity=0 time=0@note_on channel=2 note=72 velocity=100 time=0@note_on channel=0 note=72 velocity=0 time=0.31745999999999996@note_on channel=0 note=71 velocity=100 time=0@note_on channel=1 note=38 velocity=0 time=0@note_on channel=1 note=47 velocity=100 time=0@note_on channel=2 note=72 velocity=0 time=0@note_on channel=2 note=71 velocity=100 time=0@note_on channel=0 note=71 velocity=0 time=0.47618999999999995@note_on channel=0 note=69 velocity=100 time=0@note_on channel=0 note=69 velocity=0 time=0.15872999999999998@note_on channel=0 note=71 velocity=100 time=0@note_on channel=2 note=71 velocity=0 time=0@note_on channel=2 note=68 velocity=100 time=0@note_on channel=0 note=71 velocity=0 time=0.31745999999999996@note_on channel=0 note=68 velocity=100 time=0@note_on channel=1 note=47 velocity=0 time=0@note_on channel=1 note=40 velocity=100 time=0@note_on channel=2 note=68 velocity=0 time=0@note_on channel=2 note=64 velocity=100 time=0@note_on channel=0 note=68 velocity=0 time=0.47618999999999995@note_on channel=0 note=69 velocity=100 time=0@note_on channel=0 note=69 velocity=0 time=0.15872999999999998@note_on channel=0 note=71 velocity=100 time=0@note_on channel=0 note=71 velocity=0 time=0.31745999999999996@note_on channel=0 note=72 velocity=100 time=0@note_on channel=1 note=40 velocity=0 time=0@note_on channel=1 note=48 velocity=100 time=0@note_on channel=2 note=64 velocity=0 time=0@note_on channel=2 note=72 velocity=100 time=0@note_on channel=0 note=72 velocity=0 time=0.47618999999999995@note_on channel=0 note=74 velocity=100 time=0@note_on channel=0 note=74 velocity=0 time=0.15872999999999998@note_on channel=0 note=76 velocity=100 time=0@note_on channel=2 note=72 velocity=0 time=0@note_on channel=2 note=74 velocity=100 time=0@note_on channel=0 note=76 velocity=0 time=0.31745999999999996@note_on channel=0 note=76 velocity=100 time=0@note_on channel=1 note=48 velocity=0 time=0@note_on channel=1 note=40 velocity=100 time=0@note_on channel=2 note=74 velocity=0 time=0@note_on channel=2 note=76 velocity=100 time=0@note_on channel=0 note=76 velocity=0 time=0.47618999999999995@note_on channel=0 note=77 velocity=100 time=0@note_on channel=2 note=76 velocity=0 time=0@note_on channel=2 note=74 velocity=100 time=0@note_on channel=0 note=77 velocity=0 time=0.15872999999999998@note_on channel=0 note=79 velocity=100 time=0@note_on channel=2 note=74 velocity=0 time=0@note_on channel=2 note=72 velocity=100 time=0@note_on channel=0 note=79 velocity=0 time=0.31745999999999996@note_on channel=0 note=74 velocity=100 time=0@note_on channel=1 note=40 velocity=0 time=0@note_on channel=1 note=50 velocity=100 time=0@note_on channel=2 note=72 velocity=0 time=0@note_on channel=2 note=74 velocity=100 time=0@note_on channel=0 note=74 velocity=0 time=0.47618999999999995@note_on channel=0 note=76 velocity=100 time=0@note_on channel=0 note=76 velocity=0 time=0.15872999999999998@note_on channel=0 note=74 velocity=100 time=0@note_on channel=2 note=74 velocity=0 time=0@note_on channel=2 note=71 velocity=100 time=0@note_on channel=0 note=74 velocity=0 time=0.31745999999999996@note_on channel=0 note=71 velocity=100 time=0@note_on channel=1 note=50 velocity=0 time=0@note_on channel=1 note=43 velocity=100 time=0@note_on channel=2 note=71 velocity=0 time=0@note_on channel=2 note=67 velocity=100 time=0@note_on channel=0 note=71 velocity=0 time=0.47618999999999995@note_on channel=0 note=72 velocity=100 time=0@note_on channel=2 note=67 velocity=0 time=0@note_on channel=2 note=69 velocity=100 time=0@note_on channel=0 note=72 velocity=0 time=0.15872999999999998@note_on channel=0 note=74 velocity=100 time=0@note_on channel=2 note=69 velocity=0 time=0@note_on channel=2 note=71 velocity=100 time=0@note_on channel=0 note=74 velocity=0 time=0.31745999999999996@note_on channel=0 note=72 velocity=100 time=0@note_on channel=1 note=43 velocity=0 time=0@note_on channel=1 note=45 velocity=100 time=0@note_on channel=2 note=71 velocity=0 time=0@note_on channel=2 note=72 velocity=100 time=0@note_on channel=0 note=72 velocity=0 time=0.31745999999999996@note_on channel=0 note=71 velocity=100 time=0@note_on channel=2 note=72 velocity=0 time=0.15872999999999998@note_on channel=2 note=71 velocity=100 time=0@note_on channel=0 note=71 velocity=0 time=0.15872999999999998@note_on channel=0 note=69 velocity=100 time=0@note_on channel=2 note=71 velocity=0 time=0@note_on channel=2 note=69 velocity=100 time=0@note_on channel=0 note=69 velocity=0 time=0.31745999999999996@note_on channel=0 note=69 velocity=100 time=0@note_on channel=1 note=45 velocity=0 time=0@note_on channel=1 note=38 velocity=100 time=0@note_on channel=2 note=69 velocity=0 time=0@note_on channel=2 note=72 velocity=100 time=0@note_on channel=0 note=69 velocity=0 time=0.07936499999999999@note_on channel=0 note=68 velocity=100 time=0@note_on channel=2 note=72 velocity=0 time=0@note_on channel=2 note=71 velocity=100 time=0@note_on channel=0 note=68 velocity=0 time=0.07936499999999999@note_on channel=0 note=69 velocity=100 time=0@note_on channel=2 note=71 velocity=0 time=0@note_on channel=2 note=72 velocity=100 time=0@note_on channel=0 note=69 velocity=0 time=0.07936499999999999@note_on channel=0 note=68 velocity=100 time=0@note_on channel=2 note=72 velocity=0 time=0@note_on channel=2 note=71 velocity=100 time=0@note_on channel=0 note=68 velocity=0 time=0.23809499999999997@note_on channel=0 note=66 velocity=100 time=0@note_on channel=2 note=71 velocity=0 time=0@note_on channel=2 note=69 velocity=100 time=0@note_on channel=0 note=66 velocity=0 time=0.15872999999999998@note_on channel=0 note=68 velocity=100 time=0@note_on channel=2 note=69 velocity=0 time=0@note_on channel=2 note=68 velocity=100 time=0@note_on channel=0 note=68 velocity=0 time=0.31745999999999996@note_on channel=0 note=69 velocity=100 time=0@note_on channel=1 note=38 velocity=0 time=0@note_on channel=1 note=45 velocity=100 time=0@note_on channel=2 note=68 velocity=0 time=0@note_on channel=2 note=69 velocity=100 time=0@note_on channel=0 note=69 velocity=0 time=0.9523799999999999@note_on channel=0 note=69 velocity=100 time=0@note_on channel=2 note=69 velocity=0 time=0@note_on channel=2 note=69 velocity=100 time=0@note_on channel=0 note=69 velocity=0 time=0.9523799999999999@note_on channel=0 note=79 velocity=100 time=0@note_on channel=1 note=45 velocity=0 time=0@note_on channel=1 note=48 velocity=100 time=0@note_on channel=2 note=69 velocity=0 time=0@note_on channel=2 note=72 velocity=100 time=0@note_on channel=3 note=72 velocity=100 time=0@note_on channel=2 note=72 velocity=0 time=0.47618999999999995@note_on channel=2 note=74 velocity=100 time=0@note_on channel=0 note=79 velocity=0 time=0.15872999999999998@note_on channel=0 note=79 velocity=100 time=0@note_on channel=2 note=74 velocity=0 time=0@note_on channel=2 note=76 velocity=100 time=0@note_on channel=3 note=72 velocity=0 time=0@note_on channel=3 note=74 velocity=100 time=0@note_on channel=0 note=79 velocity=0 time=0.31745999999999996@note_on channel=0 note=79 velocity=100 time=0@note_on channel=1 note=48 velocity=0 time=0@note_on channel=1 note=40 velocity=100 time=0@note_on channel=2 note=76 velocity=0 time=0@note_on channel=2 note=76 velocity=100 time=0@note_on channel=3 note=74 velocity=0 time=0@note_on channel=3 note=76 velocity=100 time=0@note_on channel=0 note=79 velocity=0 time=0.31745999999999996@note_on channel=0 note=77 velocity=100 time=0@note_on channel=2 note=76 velocity=0 time=0.15872999999999998@note_on channel=2 note=77 velocity=100 time=0@note_on channel=0 note=77 velocity=0 time=0.15872999999999998@note_on channel=0 note=76 velocity=100 time=0@note_on channel=2 note=77 velocity=0 time=0@note_on channel=2 note=76 velocity=100 time=0@note_on channel=3 note=76 velocity=0 time=0@note_on channel=3 note=76 velocity=100 time=0@note_on channel=0 note=76 velocity=0 time=0.31745999999999996@note_on channel=0 note=74 velocity=100 time=0@note_on channel=1 note=40 velocity=0 time=0@note_on channel=1 note=50 velocity=100 time=0@note_on channel=2 note=76 velocity=0 time=0@note_on channel=2 note=74 velocity=100 time=0@note_on channel=3 note=76 velocity=0 time=0@note_on channel=3 note=74 velocity=100 time=0@note_on channel=2 note=74 velocity=0 time=0.47618999999999995@note_on channel=2 note=76 velocity=100 time=0@note_on channel=0 note=74 velocity=0 time=0.15872999999999998@note_on channel=0 note=74 velocity=100 time=0@note_on channel=2 note=76 velocity=0 time=0@note_on channel=2 note=74 velocity=100 time=0@note_on channel=3 note=74 velocity=0 time=0@note_on channel=3 note=71 velocity=100 time=0@note_on channel=0 note=74 velocity=0 time=0.31745999999999996@note_on channel=0 note=71 velocity=100 time=0@note_on channel=1 note=50 velocity=0 time=0@note_on channel=1 note=43 velocity=100 time=0@note_on channel=2 note=74 velocity=0 time=0@note_on channel=2 note=71 velocity=100 time=0@note_on channel=3 note=71 velocity=0 time=0@note_on channel=3 note=67 velocity=100 time=0@note_on channel=0 note=71 velocity=0 time=0.31745999999999996@note_on channel=0 note=72 velocity=100 time=0@note_on channel=2 note=71 velocity=0 time=0.15872999999999998@note_on channel=2 note=72 velocity=100 time=0@note_on channel=0 note=72 velocity=0 time=0.15872999999999998@note_on channel=0 note=74 velocity=100 time=0@note_on channel=2 note=72 velocity=0 time=0@note_on channel=2 note=74 velocity=100 time=0@note_on channel=0 note=74 velocity=0 time=0.31745999999999996@note_on channel=0 note=72 velocity=100 time=0@note_on channel=1 note=43 velocity=0 time=0@note_on channel=1 note=45 velocity=100 time=0@note_on channel=2 note=74 velocity=0 time=0@note_on channel=2 note=72 velocity=100 time=0@note_on channel=3 note=67 velocity=0 time=0@note_on channel=3 note=69 velocity=100 time=0@note_on channel=2 note=72 velocity=0 time=0.47618999999999995@note_on channel=2 note=71 velocity=100 time=0@note_on channel=3 note=69 velocity=0 time=0@note_on channel=3 note=71 velocity=100 time=0@note_on channel=0 note=72 velocity=0 time=0.15872999999999998@note_on channel=0 note=72 velocity=100 time=0@note_on channel=2 note=71 velocity=0 time=0@note_on channel=2 note=72 velocity=100 time=0@note_on channel=3 note=71 velocity=0 time=0@note_on channel=3 note=72 velocity=100 time=0@note_on channel=0 note=72 velocity=0 time=0.31745999999999996@note_on channel=0 note=69 velocity=100 time=0@note_on channel=1 note=45 velocity=0 time=0@note_on channel=1 note=38 velocity=100 time=0@note_on channel=2 note=72 velocity=0 time=0@note_on channel=2 note=69 velocity=100 time=0@note_on channel=3 note=72 velocity=0 time=0@note_on channel=3 note=74 velocity=100 time=0@note_on channel=0 note=69 velocity=0 time=0.31745999999999996@note_on channel=0 note=71 velocity=100 time=0@note_on channel=3 note=74 velocity=0 time=0@note_on channel=3 note=76 velocity=100 time=0@note_on channel=2 note=69 velocity=0 time=0.15872999999999998@note_on channel=2 note=71 velocity=100 time=0@note_on channel=0 note=71 velocity=0 time=0.15872999999999998@note_on channel=0 note=72 velocity=100 time=0@note_on channel=2 note=71 velocity=0 time=0@note_on channel=2 note=72 velocity=100 time=0@note_on channel=3 note=76 velocity=0 time=0@note_on channel=3 note=72 velocity=100 time=0@note_on channel=0 note=72 velocity=0 time=0.31745999999999996@note_on channel=0 note=71 velocity=100 time=0@note_on channel=1 note=38 velocity=0 time=0@note_on channel=1 note=47 velocity=100 time=0@note_on channel=2 note=72 velocity=0 time=0@note_on channel=2 note=71 velocity=100 time=0@note_on channel=3 note=72 velocity=0 time=0@note_on channel=3 note=71 velocity=100 time=0@note_on channel=2 note=71 velocity=0 time=0.47618999999999995@note_on channel=2 note=69 velocity=100 time=0@note_on channel=0 note=71 velocity=0 time=0.15872999999999998@note_on channel=0 note=71 velocity=100 time=0@note_on channel=2 note=69 velocity=0 time=0@note_on channel=2 note=71 velocity=100 time=0@note_on channel=3 note=71 velocity=0 time=0@note_on channel=3 note=68 velocity=100 time=0@note_on channel=0 note=71 velocity=0 time=0.31745999999999996@note_on channel=0 note=68 velocity=100 time=0@note_on channel=1 note=47 velocity=0 time=0@note_on channel=1 note=40 velocity=100 time=0@note_on channel=2 note=71 velocity=0 time=0@note_on channel=2 note=68 velocity=100 time=0@note_on channel=3 note=68 velocity=0 time=0@note_on channel=3 note=64 velocity=100 time=0@note_on channel=0 note=68 velocity=0 time=0.31745999999999996@note_on channel=0 note=69 velocity=100 time=0@note_on channel=2 note=68 velocity=0 time=0.15872999999999998@note_on channel=2 note=69 velocity=100 time=0@note_on channel=0 note=69 velocity=0 time=0.15872999999999998@note_on channel=0 note=71 velocity=100 time=0@note_on channel=2 note=69 velocity=0 time=0@note_on channel=2 note=71 velocity=100 time=0@note_on channel=0 note=71 velocity=0 time=0.31745999999999996@note_on channel=0 note=79 velocity=100 time=0@note_on channel=1 note=40 velocity=0 time=0@note_on channel=1 note=48 velocity=100 time=0@note_on channel=2 note=71 velocity=0 time=0@note_on channel=2 note=72 velocity=100 time=0@note_on channel=3 note=64 velocity=0 time=0@note_on channel=3 note=72 velocity=100 time=0@note_on channel=2 note=72 velocity=0 time=0.47618999999999995@note_on channel=2 note=74 velocity=100 time=0@note_on channel=0 note=79 velocity=0 time=0.15872999999999998@note_on channel=0 note=79 velocity=100 time=0@note_on channel=2 note=74 velocity=0 time=0@note_on channel=2 note=76 velocity=100 time=0@note_on channel=3 note=72 velocity=0 time=0@note_on channel=3 note=74 velocity=100 time=0@note_on channel=0 note=79 velocity=0 time=0.31745999999999996@note_on channel=0 note=79 velocity=100 time=0@note_on channel=1 note=48 velocity=0 time=0@note_on channel=1 note=40 velocity=100 time=0@note_on channel=2 note=76 velocity=0 time=0@note_on channel=2 note=76 velocity=100 time=0@note_on channel=3 note=74 velocity=0 time=0@note_on channel=3 note=76 velocity=100 time=0@note_on channel=0 note=79 velocity=0 time=0.31745999999999996@note_on channel=0 note=77 velocity=100 time=0@note_on channel=2 note=76 velocity=0 time=0.15872999999999998@note_on channel=2 note=77 velocity=100 time=0@note_on channel=3 note=76 velocity=0 time=0@note_on channel=3 note=74 velocity=100 time=0@note_on channel=0 note=77 velocity=0 time=0.15872999999999998@note_on channel=0 note=76 velocity=100 time=0@note_on channel=2 note=77 velocity=0 time=0@note_on channel=2 note=79 velocity=100 time=0@note_on channel=3 note=74 velocity=0 time=0@note_on channel=3 note=72 velocity=100 time=0@note_on channel=0 note=76 velocity=0 time=0.31745999999999996@note_on channel=0 note=74 velocity=100 time=0@note_on channel=1 note=40 velocity=0 time=0@note_on channel=1 note=50 velocity=100 time=0@note_on channel=2 note=79 velocity=0 time=0@note_on channel=2 note=74 velocity=100 time=0@note_on channel=3 note=72 velocity=0 time=0@note_on channel=3 note=74 velocity=100 time=0@note_on channel=2 note=74 velocity=0 time=0.47618999999999995@note_on channel=2 note=76 velocity=100 time=0@note_on channel=0 note=74 velocity=0 time=0.15872999999999998@note_on channel=0 note=74 velocity=100 time=0@note_on channel=2 note=76 velocity=0 time=0@note_on channel=2 note=74 velocity=100 time=0@note_on channel=3 note=74 velocity=0 time=0@note_on channel=3 note=71 velocity=100 time=0@note_on channel=0 note=74 velocity=0 time=0.31745999999999996@note_on channel=0 note=71 velocity=100 time=0@note_on channel=1 note=50 velocity=0 time=0@note_on channel=1 note=43 velocity=100 time=0@note_on channel=2 note=74 velocity=0 time=0@note_on channel=2 note=71 velocity=100 time=0@note_on channel=3 note=71 velocity=0 time=0@note_on channel=3 note=67 velocity=100 time=0@note_on channel=0 note=71 velocity=0 time=0.31745999999999996@note_on channel=0 note=72 velocity=100 time=0@note_on channel=2 note=71 velocity=0 time=0.15872999999999998@note_on channel=2 note=72 velocity=100 time=0@note_on channel=3 note=67 velocity=0 time=0@note_on channel=3 note=69 velocity=100 time=0@note_on channel=0 note=72 velocity=0 time=0.15872999999999998@note_on channel=0 note=74 velocity=100 time=0@note_on channel=2 note=72 velocity=0 time=0@note_on channel=2 note=74 velocity=100 time=0@note_on channel=3 note=69 velocity=0 time=0@note_on channel=3 note=71 velocity=100 time=0@note_on channel=0 note=74 velocity=0 time=0.31745999999999996@note_on channel=0 note=76 velocity=100 time=0@note_on channel=1 note=43 velocity=0 time=0@note_on channel=1 note=45 velocity=100 time=0@note_on channel=2 note=74 velocity=0 time=0@note_on channel=2 note=72 velocity=100 time=0@note_on channel=3 note=71 velocity=0 time=0@note_on channel=3 note=72 velocity=100 time=0@note_on channel=0 note=76 velocity=0 time=0.31745999999999996@note_on channel=0 note=74 velocity=100 time=0@note_on channel=2 note=72 velocity=0 time=0@note_on channel=2 note=71 velocity=100 time=0@note_on channel=3 note=72 velocity=0 time=0.15872999999999998@note_on channel=3 note=71 velocity=100 time=0@note_on channel=0 note=74 velocity=0 time=0.15872999999999998@note_on channel=0 note=72 velocity=100 time=0@note_on channel=2 note=71 velocity=0 time=0@note_on channel=2 note=69 velocity=100 time=0@note_on channel=3 note=71 velocity=0 time=0@note_on channel=3 note=69 velocity=100 time=0@note_on channel=0 note=72 velocity=0 time=0.31745999999999996@note_on channel=0 note=74 velocity=100 time=0@note_on channel=1 note=45 velocity=0 time=0@note_on channel=1 note=38 velocity=100 time=0@note_on channel=2 note=69 velocity=0 time=0@note_on channel=2 note=69 velocity=100 time=0@note_on channel=3 note=69 velocity=0 time=0@note_on channel=3 note=72 velocity=100 time=0@note_on channel=2 note=69 velocity=0 time=0.07936499999999999@note_on channel=2 note=68 velocity=100 time=0@note_on channel=3 note=72 velocity=0 time=0@note_on channel=3 note=71 velocity=100 time=0@note_on channel=2 note=68 velocity=0 time=0.07936499999999999@note_on channel=2 note=69 velocity=100 time=0@note_on channel=3 note=71 velocity=0 time=0@note_on channel=3 note=72 velocity=100 time=0@note_on channel=2 note=69 velocity=0 time=0.07936499999999999@note_on channel=2 note=68 velocity=100 time=0@note_on channel=3 note=72 velocity=0 time=0@note_on channel=3 note=71 velocity=100 time=0@note_on channel=0 note=74 velocity=0 time=0.07936499999999999@note_on channel=0 note=72 velocity=100 time=0@note_on channel=0 note=72 velocity=0 time=0.07936499999999999@note_on channel=0 note=71 velocity=100 time=0@note_on channel=0 note=71 velocity=0 time=0.07936499999999999@note_on channel=0 note=72 velocity=100 time=0@note_on channel=2 note=68 velocity=0 time=0@note_on channel=2 note=66 velocity=100 time=0@note_on channel=3 note=71 velocity=0 time=0@note_on channel=3 note=69 velocity=100 time=0@note_on channel=0 note=72 velocity=0 time=0.07936499999999999@note_on channel=0 note=71 velocity=100 time=0@note_on channel=2 note=66 velocity=0 time=0.07936499999999999@note_on channel=2 note=68 velocity=100 time=0@note_on channel=3 note=69 velocity=0 time=0@note_on channel=3 note=68 velocity=100 time=0@note_on channel=0 note=71 velocity=0 time=0.15872999999999998@note_on channel=0 note=69 velocity=100 time=0@note_on channel=0 note=69 velocity=0 time=0.07936499999999999@note_on channel=0 note=71 velocity=100 time=0@note_on channel=0 note=71 velocity=0 time=0.07936499999999999@note_on channel=0 note=69 velocity=100 time=0@note_on channel=1 note=38 velocity=0 time=0@note_on channel=1 note=45 velocity=100 time=0@note_on channel=2 note=68 velocity=0 time=0@note_on channel=2 note=69 velocity=100 time=0@note_on channel=3 note=68 velocity=0 time=0@note_on channel=3 note=69 velocity=100 time=0@note_on channel=0 note=69 velocity=0 time=0.9523799999999999@note_on channel=0 note=69 velocity=100 time=0@note_on channel=2 note=69 velocity=0 time=0@note_on channel=2 note=69 velocity=100 time=0@note_on channel=3 note=69 velocity=0 time=0@note_on channel=3 note=69 velocity=100 time=0@note_on channel=0 note=69 velocity=0 time=0.9523799999999999@note_on channel=0 note=76 velocity=100 time=0@note_on channel=1 note=45 velocity=0 time=0@note_on channel=1 note=48 velocity=100 time=0@note_on channel=2 note=69 velocity=0 time=0@note_on channel=2 note=79 velocity=100 time=0@note_on channel=3 note=69 velocity=0 time=0@note_on channel=3 note=72 velocity=100 time=0@note_on channel=4 note=72 velocity=100 time=0@note_on channel=0 note=76 velocity=0 time=0.31745999999999996@note_on channel=0 note=72 velocity=100 time=0@note_on channel=3 note=72 velocity=0 time=0.15872999999999998@note_on channel=3 note=74 velocity=100 time=0@note_on channel=0 note=72 velocity=0 time=0.15872999999999998@note_on channel=0 note=69 velocity=100 time=0@note_on channel=2 note=79 velocity=0 time=0@note_on channel=2 note=79 velocity=100 time=0@note_on channel=3 note=74 velocity=0 time=0@note_on channel=3 note=76 velocity=100 time=0@note_on channel=4 note=72 velocity=0 time=0@note_on channel=4 note=74 velocity=100 time=0@note_on channel=0 note=69 velocity=0 time=0.31745999999999996@note_on channel=0 note=76 velocity=100 time=0@note_on channel=1 note=48 velocity=0 time=0@note_on channel=1 note=40 velocity=100 time=0@note_on channel=2 note=79 velocity=0 time=0@note_on channel=2 note=79 velocity=100 time=0@note_on channel=3 note=76 velocity=0 time=0@note_on channel=3 note=76 velocity=100 time=0@note_on channel=4 note=74 velocity=0 time=0@note_on channel=4 note=76 velocity=100 time=0@note_on channel=0 note=76 velocity=0 time=0.31745999999999996@note_on channel=0 note=72 velocity=100 time=0@note_on channel=2 note=79 velocity=0 time=0@note_on channel=2 note=77 velocity=100 time=0@note_on channel=3 note=76 velocity=0 time=0.15872999999999998@note_on channel=3 note=77 velocity=100 time=0@note_on channel=0 note=72 velocity=0 time=0.15872999999999998@note_on channel=0 note=69 velocity=100 time=0@note_on channel=2 note=77 velocity=0 time=0@note_on channel=2 note=76 velocity=100 time=0@note_on channel=3 note=77 velocity=0 time=0@note_on channel=3 note=76 velocity=100 time=0@note_on channel=4 note=76 velocity=0 time=0@note_on channel=4 note=76 velocity=100 time=0@note_on channel=0 note=69 velocity=0 time=0.31745999999999996@note_on channel=0 note=74 velocity=100 time=0@note_on channel=1 note=40 velocity=0 time=0@note_on channel=1 note=50 velocity=100 time=0@note_on channel=2 note=76 velocity=0 time=0@note_on channel=2 note=74 velocity=100 time=0@note_on channel=3 note=76 velocity=0 time=0@note_on channel=3 note=74 velocity=100 time=0@note_on channel=4 note=76 velocity=0 time=0@note_on channel=4 note=74 velocity=100 time=0@note_on channel=0 note=74 velocity=0 time=0.31745999999999996@note_on channel=0 note=71 velocity=100 time=0@note_on channel=3 note=74 velocity=0 time=0.15872999999999998@note_on channel=3 note=76 velocity=100 time=0@note_on channel=0 note=71 velocity=0 time=0.15872999999999998@note_on channel=0 note=67 velocity=100 time=0@note_on channel=2 note=74 velocity=0 time=0@note_on channel=2 note=74 velocity=100 time=0@note_on channel=3 note=76 velocity=0 time=0@note_on channel=3 note=74 velocity=100 time=0@note_on channel=4 note=74 velocity=0 time=0@note_on channel=4 note=71 velocity=100 time=0@note_on channel=0 note=67 velocity=0 time=0.31745999999999996@note_on channel=0 note=74 velocity=100 time=0@note_on channel=1 note=50 velocity=0 time=0@note_on channel=1 note=43 velocity=100 time=0@note_on channel=2 note=74 velocity=0 time=0@note_on channel=2 note=71 velocity=100 time=0@note_on channel=3 note=74 velocity=0 time=0@note_on channel=3 note=71 velocity=100 time=0@note_on channel=4 note=71 velocity=0 time=0@note_on channel=4 note=67 velocity=100 time=0@note_on channel=0 note=74 velocity=0 time=0.31745999999999996@note_on channel=0 note=71 velocity=100 time=0@note_on channel=2 note=71 velocity=0 time=0@note_on channel=2 note=72 velocity=100 time=0@note_on channel=3 note=71 velocity=0 time=0.15872999999999998@note_on channel=3 note=72 velocity=100 time=0@note_on channel=0 note=71 velocity=0 time=0.15872999999999998@note_on channel=0 note=67 velocity=100 time=0@note_on channel=2 note=72 velocity=0 time=0@note_on channel=2 note=74 velocity=100 time=0@note_on channel=3 note=72 velocity=0 time=0@note_on channel=3 note=74 velocity=100 time=0@note_on channel=0 note=67 velocity=0 time=0.31745999999999996@note_on channel=0 note=76 velocity=100 time=0@note_on channel=1 note=43 velocity=0 time=0@note_on channel=1 note=45 velocity=100 time=0@note_on channel=2 note=74 velocity=0 time=0@note_on channel=2 note=72 velocity=100 time=0@note_on channel=3 note=74 velocity=0 time=0@note_on channel=3 note=72 velocity=100 time=0@note_on channel=4 note=67 velocity=0 time=0@note_on channel=4 note=69 velocity=100 time=0@note_on channel=0 note=76 velocity=0 time=0.31745999999999996@note_on channel=0 note=72 velocity=100 time=0@note_on channel=3 note=72 velocity=0 time=0.15872999999999998@note_on channel=3 note=71 velocity=100 time=0@note_on channel=4 note=69 velocity=0 time=0@note_on channel=4 note=71 velocity=100 time=0@note_on channel=0 note=72 velocity=0 time=0.15872999999999998@note_on channel=0 note=69 velocity=100 time=0@note_on channel=2 note=72 velocity=0 time=0@note_on channel=2 note=72 velocity=100 time=0@note_on channel=3 note=71 velocity=0 time=0@note_on channel=3 note=72 velocity=100 time=0@note_on channel=4 note=71 velocity=0 time=0@note_on channel=4 note=72 velocity=100 time=0@note_on channel=0 note=69 velocity=0 time=0.31745999999999996@note_on channel=0 note=76 velocity=100 time=0@note_on channel=1 note=45 velocity=0 time=0@note_on channel=1 note=38 velocity=100 time=0@note_on channel=2 note=72 velocity=0 time=0@note_on channel=2 note=69 velocity=100 time=0@note_on channel=3 note=72 velocity=0 time=0@note_on channel=3 note=69 velocity=100 time=0@note_on channel=4 note=72 velocity=0 time=0@note_on channel=4 note=74 velocity=100 time=0@note_on channel=0 note=76 velocity=0 time=0.31745999999999996@note_on channel=0 note=72 velocity=100 time=0@note_on channel=2 note=69 velocity=0 time=0@note_on channel=2 note=71 velocity=100 time=0@note_on channel=4 note=74 velocity=0 time=0@note_on channel=4 note=76 velocity=100 time=0@note_on channel=3 note=69 velocity=0 time=0.15872999999999998@note_on channel=3 note=71 velocity=100 time=0@note_on channel=0 note=72 velocity=0 time=0.15872999999999998@note_on channel=0 note=69 velocity=100 time=0@note_on channel=2 note=71 velocity=0 time=0@note_on channel=2 note=72 velocity=100 time=0@note_on channel=3 note=71 velocity=0 time=0@note_on channel=3 note=72 velocity=100 time=0@note_on channel=4 note=76 velocity=0 time=0@note_on channel=4 note=72 velocity=100 time=0@note_on channel=0 note=69 velocity=0 time=0.31745999999999996@note_on channel=0 note=71 velocity=100 time=0@note_on channel=1 note=38 velocity=0 time=0@note_on channel=1 note=47 velocity=100 time=0@note_on channel=2 note=72 velocity=0 time=0@note_on channel=2 note=71 velocity=100 time=0@note_on channel=3 note=72 velocity=0 time=0@note_on channel=3 note=71 velocity=100 time=0@note_on channel=4 note=72 velocity=0 time=0@note_on channel=4 note=71 velocity=100 time=0@note_on channel=0 note=71 velocity=0 time=0.31745999999999996@note_on channel=0 note=68 velocity=100 time=0@note_on channel=3 note=71 velocity=0 time=0.15872999999999998@note_on channel=3 note=69 velocity=100 time=0@note_on channel=0 note=68 velocity=0 time=0.15872999999999998@note_on channel=0 note=64 velocity=100 time=0@note_on channel=2 note=71 velocity=0 time=0@note_on channel=2 note=71 velocity=100 time=0@note_on channel=3 note=69 velocity=0 time=0@note_on channel=3 note=71 velocity=100 time=0@note_on channel=4 note=71 velocity=0 time=0@note_on channel=4 note=68 velocity=100 time=0@note_on channel=0 note=64 velocity=0 time=0.31745999999999996@note_on channel=0 note=71 velocity=100 time=0@note_on channel=1 note=47 velocity=0 time=0@note_on channel=1 note=40 velocity=100 time=0@note_on channel=2 note=71 velocity=0 time=0@note_on channel=2 note=68 velocity=100 time=0@note_on channel=3 note=71 velocity=0 time=0@note_on channel=3 note=68 velocity=100 time=0@note_on channel=4 note=68 velocity=0 time=0@note_on channel=4 note=64 velocity=100 time=0@note_on channel=0 note=71 velocity=0 time=0.31745999999999996@note_on channel=0 note=68 velocity=100 time=0@note_on channel=2 note=68 velocity=0 time=0@note_on channel=2 note=69 velocity=100 time=0@note_on channel=3 note=68 velocity=0 time=0.15872999999999998@note_on channel=3 note=69 velocity=100 time=0@note_on channel=0 note=68 velocity=0 time=0.15872999999999998@note_on channel=0 note=64 velocity=100 time=0@note_on channel=2 note=69 velocity=0 time=0@note_on channel=2 note=71 velocity=100 time=0@note_on channel=3 note=69 velocity=0 time=0@note_on channel=3 note=71 velocity=100 time=0@note_on channel=0 note=64 velocity=0 time=0.31745999999999996@note_on channel=0 note=79 velocity=100 time=0@note_on channel=1 note=40 velocity=0 time=0@note_on channel=1 note=48 velocity=100 time=0@note_on channel=2 note=71 velocity=0 time=0@note_on channel=2 note=79 velocity=100 time=0@note_on channel=3 note=71 velocity=0 time=0@note_on channel=3 note=72 velocity=100 time=0@note_on channel=4 note=64 velocity=0 time=0@note_on channel=4 note=72 velocity=100 time=0@note_on channel=0 note=79 velocity=0 time=0.07936499999999999@note_on channel=0 note=81 velocity=100 time=0@note_on channel=0 note=81 velocity=0 time=0.07936499999999999@note_on channel=0 note=79 velocity=100 time=0@note_on channel=0 note=79 velocity=0 time=0.15872999999999998@note_on channel=0 note=76 velocity=100 time=0@note_on channel=3 note=72 velocity=0 time=0.15872999999999998@note_on channel=3 note=74 velocity=100 time=0@note_on channel=0 note=76 velocity=0 time=0.15872999999999998@note_on channel=0 note=72 velocity=100 time=0@note_on channel=2 note=79 velocity=0 time=0@note_on channel=2 note=79 velocity=100 time=0@note_on channel=3 note=74 velocity=0 time=0@note_on channel=3 note=76 velocity=100 time=0@note_on channel=4 note=72 velocity=0 time=0@note_on channel=4 note=74 velocity=100 time=0@note_on channel=0 note=72 velocity=0 time=0.31745999999999996@note_on channel=0 note=79 velocity=100 time=0@note_on channel=1 note=48 velocity=0 time=0@note_on channel=1 note=40 velocity=100 time=0@note_on channel=2 note=79 velocity=0 time=0@note_on channel=2 note=79 velocity=100 time=0@note_on channel=3 note=76 velocity=0 time=0@note_on channel=3 note=76 velocity=100 time=0@note_on channel=4 note=74 velocity=0 time=0@note_on channel=4 note=76 velocity=100 time=0@note_on channel=0 note=79 velocity=0 time=0.07936499999999999@note_on channel=0 note=81 velocity=100 time=0@note_on channel=0 note=81 velocity=0 time=0.07936499999999999@note_on channel=0 note=79 velocity=100 time=0@note_on channel=0 note=79 velocity=0 time=0.15872999999999998@note_on channel=0 note=76 velocity=100 time=0@note_on channel=2 note=79 velocity=0 time=0@note_on channel=2 note=77 velocity=100 time=0@note_on channel=3 note=76 velocity=0 time=0.15872999999999998@note_on channel=3 note=77 velocity=100 time=0@note_on channel=4 note=76 velocity=0 time=0@note_on channel=4 note=74 velocity=100 time=0@note_on channel=0 note=76 velocity=0 time=0.15872999999999998@note_on channel=0 note=72 velocity=100 time=0@note_on channel=2 note=77 velocity=0 time=0@note_on channel=2 note=76 velocity=100 time=0@note_on channel=3 note=77 velocity=0 time=0@note_on channel=3 note=79 velocity=100 time=0@note_on channel=4 note=74 velocity=0 time=0@note_on channel=4 note=72 velocity=100 time=0@note_on channel=0 note=72 velocity=0 time=0.31745999999999996@note_on channel=0 note=74 velocity=100 time=0@note_on channel=1 note=40 velocity=0 time=0@note_on channel=1 note=50 velocity=100 time=0@note_on channel=2 note=76 velocity=0 time=0@note_on channel=2 note=74 velocity=100 time=0@note_on channel=3 note=79 velocity=0 time=0@note_on channel=3 note=74 velocity=100 time=0@note_on channel=4 note=72 velocity=0 time=0@note_on channel=4 note=74 velocity=100 time=0@note_on channel=0 note=74 velocity=0 time=0.07936499999999999@note_on channel=0 note=72 velocity=100 time=0@note_on channel=0 note=72 velocity=0 time=0.07936499999999999@note_on channel=0 note=74 velocity=100 time=0@note_on channel=0 note=74 velocity=0 time=0.15872999999999998@note_on channel=0 note=71 velocity=100 time=0@note_on channel=3 note=74 velocity=0 time=0.15872999999999998@note_on channel=3 note=76 velocity=100 time=0@note_on channel=0 note=71 velocity=0 time=0.15872999999999998@note_on channel=0 note=67 velocity=100 time=0@note_on channel=2 note=74 velocity=0 time=0@note_on channel=2 note=74 velocity=100 time=0@note_on channel=3 note=76 velocity=0 time=0@note_on channel=3 note=74 velocity=100 time=0@note_on channel=4 note=74 velocity=0 time=0@note_on channel=4 note=71 velocity=100 time=0@note_on channel=0 note=67 velocity=0 time=0.31745999999999996@note_on channel=0 note=74 velocity=100 time=0@note_on channel=1 note=50 velocity=0 time=0@note_on channel=1 note=43 velocity=100 time=0@note_on channel=2 note=74 velocity=0 time=0@note_on channel=2 note=71 velocity=100 time=0@note_on channel=3 note=74 velocity=0 time=0@note_on channel=3 note=71 velocity=100 time=0@note_on channel=4 note=71 velocity=0 time=0@note_on channel=4 note=67 velocity=100 time=0@note_on channel=0 note=74 velocity=0 time=0.07936499999999999@note_on channel=0 note=72 velocity=100 time=0@note_on channel=0 note=72 velocity=0 time=0.07936499999999999@note_on channel=0 note=74 velocity=100 time=0@note_on channel=0 note=74 velocity=0 time=0.15872999999999998@note_on channel=0 note=71 velocity=100 time=0@note_on channel=2 note=71 velocity=0 time=0@note_on channel=2 note=72 velocity=100 time=0@note_on channel=3 note=71 velocity=0 time=0.15872999999999998@note_on channel=3 note=72 velocity=100 time=0@note_on channel=4 note=67 velocity=0 time=0@note_on channel=4 note=69 velocity=100 time=0@note_on channel=0 note=71 velocity=0 time=0.15872999999999998@note_on channel=0 note=67 velocity=100 time=0@note_on channel=2 note=72 velocity=0 time=0@note_on channel=2 note=74 velocity=100 time=0@note_on channel=3 note=72 velocity=0 time=0@note_on channel=3 note=74 velocity=100 time=0@note_on channel=4 note=69 velocity=0 time=0@note_on channel=4 note=71 velocity=100 time=0@note_on channel=0 note=67 velocity=0 time=0.31745999999999996@note_on channel=0 note=76 velocity=100 time=0@note_on channel=1 note=43 velocity=0 time=0@note_on channel=1 note=45 velocity=100 time=0@note_on channel=2 note=74 velocity=0 time=0@note_on channel=2 note=76 velocity=100 time=0@note_on channel=3 note=74 velocity=0 time=0@note_on channel=3 note=72 velocity=100 time=0@note_on channel=4 note=71 velocity=0 time=0@note_on channel=4 note=72 velocity=100 time=0@note_on channel=0 note=76 velocity=0 time=0.31745999999999996@note_on channel=0 note=72 velocity=100 time=0@note_on channel=2 note=76 velocity=0 time=0@note_on channel=2 note=74 velocity=100 time=0@note_on channel=3 note=72 velocity=0 time=0@note_on channel=3 note=71 velocity=100 time=0@note_on channel=4 note=72 velocity=0 time=0.15872999999999998@note_on channel=4 note=71 velocity=100 time=0@note_on channel=0 note=72 velocity=0 time=0.15872999999999998@note_on channel=0 note=69 velocity=100 time=0@note_on channel=2 note=74 velocity=0 time=0@note_on channel=2 note=72 velocity=100 time=0@note_on channel=3 note=71 velocity=0 time=0@note_on channel=3 note=69 velocity=100 time=0@note_on channel=4 note=71 velocity=0 time=0@note_on channel=4 note=69 velocity=100 time=0@note_on channel=0 note=69 velocity=0 time=0.31745999999999996@note_on channel=0 note=71 velocity=100 time=0@note_on channel=1 note=45 velocity=0 time=0@note_on channel=1 note=38 velocity=100 time=0@note_on channel=2 note=72 velocity=0 time=0@note_on channel=2 note=74 velocity=100 time=0@note_on channel=3 note=69 velocity=0 time=0@note_on channel=3 note=69 velocity=100 time=0@note_on channel=4 note=69 velocity=0 time=0@note_on channel=4 note=72 velocity=100 time=0@note_on channel=0 note=71 velocity=0 time=0.07936499999999999@note_on channel=0 note=72 velocity=100 time=0@note_on channel=3 note=69 velocity=0 time=0@note_on channel=3 note=68 velocity=100 time=0@note_on channel=4 note=72 velocity=0 time=0@note_on channel=4 note=71 velocity=100 time=0@note_on channel=0 note=72 velocity=0 time=0.07936499999999999@note_on channel=0 note=71 velocity=100 time=0@note_on channel=3 note=68 velocity=0 time=0@note_on channel=3 note=69 velocity=100 time=0@note_on channel=4 note=71 velocity=0 time=0@note_on channel=4 note=72 velocity=100 time=0@note_on channel=3 note=69 velocity=0 time=0.07936499999999999@note_on channel=3 note=68 velocity=100 time=0@note_on channel=4 note=72 velocity=0 time=0@note_on channel=4 note=71 velocity=100 time=0@note_on channel=0 note=71 velocity=0 time=0.07936499999999999@note_on channel=0 note=68 velocity=100 time=0@note_on channel=2 note=74 velocity=0 time=0@note_on channel=2 note=72 velocity=100 time=0@note_on channel=2 note=72 velocity=0 time=0.07936499999999999@note_on channel=2 note=71 velocity=100 time=0@note_on channel=2 note=71 velocity=0 time=0.07936499999999999@note_on channel=2 note=72 velocity=100 time=0@note_on channel=3 note=68 velocity=0 time=0@note_on channel=3 note=66 velocity=100 time=0@note_on channel=4 note=71 velocity=0 time=0@note_on channel=4 note=69 velocity=100 time=0@note_on channel=2 note=72 velocity=0 time=0.07936499999999999@note_on channel=2 note=71 velocity=100 time=0@note_on channel=0 note=68 velocity=0 time=0.07936499999999999@note_on channel=0 note=64 velocity=100 time=0@note_on channel=3 note=66 velocity=0 time=0@note_on channel=3 note=68 velocity=100 time=0@note_on channel=4 note=69 velocity=0 time=0@note_on channel=4 note=68 velocity=100 time=0@note_on channel=2 note=71 velocity=0 time=0.15872999999999998@note_on channel=2 note=69 velocity=100 time=0@note_on channel=2 note=69 velocity=0 time=0.07936499999999999@note_on channel=2 note=71 velocity=100 time=0@note_on channel=0 note=64 velocity=0 time=0.07936499999999999@note_on channel=0 note=69 velocity=100 time=0@note_on channel=1 note=38 velocity=0 time=0@note_on channel=1 note=45 velocity=100 time=0@note_on channel=2 note=71 velocity=0 time=0@note_on channel=2 note=69 velocity=100 time=0@note_on channel=3 note=68 velocity=0 time=0@note_on channel=3 note=69 velocity=100 time=0@note_on channel=4 note=68 velocity=0 time=0@note_on channel=4 note=69 velocity=100 time=0@note_on channel=0 note=69 velocity=0 time=0.9523799999999999@note_on channel=0 note=69 velocity=100 time=0@note_on channel=2 note=69 velocity=0 time=0@note_on channel=2 note=69 velocity=100 time=0@note_on channel=3 note=69 velocity=0 time=0@note_on channel=3 note=69 velocity=100 time=0@note_on channel=4 note=69 velocity=0 time=0@note_on channel=4 note=69 velocity=100 time=0@note_on channel=0 note=69 velocity=0 time=0.9523799999999999@note_on channel=0 note=79 velocity=100 time=0@note_on channel=1 note=45 velocity=0 time=0@note_on channel=1 note=48 velocity=100 time=0@note_on channel=2 note=69 velocity=0 time=0@note_on channel=2 note=76 velocity=100 time=0@note_on channel=3 note=69 velocity=0 time=0@note_on channel=3 note=79 velocity=100 time=0@note_on channel=4 note=69 velocity=0 time=0@note_on channel=4 note=72 velocity=100 time=0@note_on channel=5 note=72 velocity=100 time=0@note_on channel=0 note=79 velocity=0 time=0.31745999999999996@note_on channel=0 note=72 velocity=100 time=0@note_on channel=2 note=76 velocity=0 time=0@note_on channel=2 note=72 velocity=100 time=0@note_on channel=4 note=72 velocity=0 time=0.15872999999999998@note_on channel=4 note=74 velocity=100 time=0@note_on channel=0 note=72 velocity=0 time=0.15872999999999998@note_on channel=0 note=81 velocity=100 time=0@note_on channel=2 note=72 velocity=0 time=0@note_on channel=2 note=69 velocity=100 time=0@note_on channel=3 note=79 velocity=0 time=0@note_on channel=3 note=79 velocity=100 time=0@note_on channel=4 note=74 velocity=0 time=0@note_on channel=4 note=76 velocity=100 time=0@note_on channel=5 note=72 velocity=0 time=0@note_on channel=5 note=74 velocity=100 time=0@note_on channel=0 note=81 velocity=0 time=0.31745999999999996@note_on channel=0 note=81 velocity=100 time=0@note_on channel=1 note=48 velocity=0 time=0@note_on channel=1 note=40 velocity=100 time=0@note_on channel=2 note=69 velocity=0 time=0@note_on channel=2 note=76 velocity=100 time=0@note_on channel=3 note=79 velocity=0 time=0@note_on channel=3 note=79 velocity=100 time=0@note_on channel=4 note=76 velocity=0 time=0@note_on channel=4 note=76 velocity=100 time=0@note_on channel=5 note=74 velocity=0 time=0@note_on channel=5 note=76 velocity=100 time=0@note_on channel=0 note=81 velocity=0 time=0.07936499999999999@note_on channel=0 note=79 velocity=100 time=0@note_on channel=0 note=79 velocity=0 time=0.07936499999999999@note_on channel=0 note=81 velocity=100 time=0@note_on channel=0 note=81 velocity=0 time=0.07936499999999999@note_on channel=0 note=79 velocity=100 time=0@note_on channel=2 note=76 velocity=0 time=0.07936499999999999@note_on channel=2 note=72 velocity=100 time=0@note_on channel=3 note=79 velocity=0 time=0@note_on channel=3 note=77 velocity=100 time=0@note_on channel=0 note=79 velocity=0 time=0.15872999999999998@note_on channel=0 note=77 velocity=100 time=0@note_on channel=4 note=76 velocity=0 time=0@note_on channel=4 note=77 velocity=100 time=0@note_on channel=0 note=77 velocity=0 time=0.15872999999999998@note_on channel=0 note=76 velocity=100 time=0@note_on channel=2 note=72 velocity=0 time=0@note_on channel=2 note=69 velocity=100 time=0@note_on channel=3 note=77 velocity=0 time=0@note_on channel=3 note=76 velocity=100 time=0@note_on channel=4 note=77 velocity=0 time=0@note_on channel=4 note=76 velocity=100 time=0@note_on channel=5 note=76 velocity=0 time=0@note_on channel=5 note=76 velocity=100 time=0@note_on channel=0 note=76 velocity=0 time=0.31745999999999996@note_on channel=0 note=74 velocity=100 time=0@note_on channel=1 note=40 velocity=0 time=0@note_on channel=1 note=50 velocity=100 time=0@note_on channel=2 note=69 velocity=0 time=0@note_on channel=2 note=74 velocity=100 time=0@note_on channel=3 note=76 velocity=0 time=0@note_on channel=3 note=74 velocity=100 time=0@note_on channel=4 note=76 velocity=0 time=0@note_on channel=4 note=74 velocity=100 time=0@note_on channel=5 note=76 velocity=0 time=0@note_on channel=5 note=74 velocity=100 time=0@note_on channel=0 note=74 velocity=0 time=0.31745999999999996@note_on channel=0 note=71 velocity=100 time=0@note_on channel=2 note=74 velocity=0 time=0@note_on channel=2 note=71 velocity=100 time=0@note_on channel=4 note=74 velocity=0 time=0.15872999999999998@note_on channel=4 note=76 velocity=100 time=0@note_on channel=0 note=71 velocity=0 time=0.15872999999999998@note_on channel=0 note=67 velocity=100 time=0@note_on channel=2 note=71 velocity=0 time=0@note_on channel=2 note=67 velocity=100 time=0@note_on channel=3 note=74 velocity=0 time=0@note_on channel=3 note=74 velocity=100 time=0@note_on channel=4 note=76 velocity=0 time=0@note_on channel=4 note=74 velocity=100 time=0@note_on channel=5 note=74 velocity=0 time=0@note_on channel=5 note=71 velocity=100 time=0@note_on channel=0 note=67 velocity=0 time=0.31745999999999996@note_on channel=0 note=74 velocity=100 time=0@note_on channel=1 note=50 velocity=0 time=0@note_on channel=1 note=43 velocity=100 time=0@note_on channel=2 note=67 velocity=0 time=0@note_on channel=2 note=74 velocity=100 time=0@note_on channel=3 note=74 velocity=0 time=0@note_on channel=3 note=71 velocity=100 time=0@note_on channel=4 note=74 velocity=0 time=0@note_on channel=4 note=71 velocity=100 time=0@note_on channel=5 note=71 velocity=0 time=0@note_on channel=5 note=67 velocity=100 time=0@note_on channel=0 note=74 velocity=0 time=0.31745999999999996@note_on channel=0 note=62 velocity=100 time=0@note_on channel=2 note=74 velocity=0 time=0@note_on channel=2 note=71 velocity=100 time=0@note_on channel=3 note=71 velocity=0 time=0@note_on channel=3 note=72 velocity=100 time=0@note_on channel=4 note=71 velocity=0 time=0.15872999999999998@note_on channel=4 note=72 velocity=100 time=0@note_on channel=0 note=62 velocity=0 time=0.15872999999999998@note_on channel=0 note=77 velocity=100 time=0@note_on channel=2 note=71 velocity=0 time=0@note_on channel=2 note=67 velocity=100 time=0@note_on channel=3 note=72 velocity=0 time=0@note_on channel=3 note=74 velocity=100 time=0@note_on channel=4 note=72 velocity=0 time=0@note_on channel=4 note=74 velocity=100 time=0@note_on channel=0 note=77 velocity=0 time=0.15872999999999998@note_on channel=0 note=79 velocity=100 time=0@note_on channel=0 note=79 velocity=0 time=0.15872999999999998@note_on channel=0 note=81 velocity=100 time=0@note_on channel=1 note=43 velocity=0 time=0@note_on channel=1 note=45 velocity=100 time=0@note_on channel=2 note=67 velocity=0 time=0@note_on channel=2 note=76 velocity=100 time=0@note_on channel=3 note=74 velocity=0 time=0@note_on channel=3 note=72 velocity=100 time=0@note_on channel=4 note=74 velocity=0 time=0@note_on channel=4 note=72 velocity=100 time=0@note_on channel=5 note=67 velocity=0 time=0@note_on channel=5 note=69 velocity=100 time=0@note_on channel=0 note=81 velocity=0 time=0.31745999999999996@note_on channel=0 note=69 velocity=100 time=0@note_on channel=2 note=76 velocity=0 time=0@note_on channel=2 note=72 velocity=100 time=0@note_on channel=4 note=72 velocity=0 time=0.15872999999999998@note_on channel=4 note=71 velocity=100 time=0@note_on channel=5 note=69 velocity=0 time=0@note_on channel=5 note=71 velocity=100 time=0@note_on channel=0 note=69 velocity=0 time=0.15872999999999998@note_on channel=0 note=83 velocity=100 time=0@note_on channel=2 note=72 velocity=0 time=0@note_on channel=2 note=69 velocity=100 time=0@note_on channel=3 note=72 velocity=0 time=0@note_on channel=3 note=72 velocity=100 time=0@note_on channel=4 note=71 velocity=0 time=0@note_on channel=4 note=72 velocity=100 time=0@note_on channel=5 note=71 velocity=0 time=0@note_on channel=5 note=72 velocity=100 time=0@note_on channel=0 note=83 velocity=0 time=0.31745999999999996@note_on channel=0 note=84 velocity=100 time=0@note_on channel=1 note=45 velocity=0 time=0@note_on channel=1 note=38 velocity=100 time=0@note_on channel=2 note=69 velocity=0 time=0@note_on channel=2 note=76 velocity=100 time=0@note_on channel=3 note=72 velocity=0 time=0@note_on channel=3 note=69 velocity=100 time=0@note_on channel=4 note=72 velocity=0 time=0@note_on channel=4 note=69 velocity=100 time=0@note_on channel=5 note=72 velocity=0 time=0@note_on channel=5 note=74 velocity=100 time=0@note_on channel=0 note=84 velocity=0 time=0.31745999999999996@note_on channel=0 note=83 velocity=100 time=0@note_on channel=2 note=76 velocity=0 time=0@note_on channel=2 note=72 velocity=100 time=0@note_on channel=3 note=69 velocity=0 time=0@note_on channel=3 note=71 velocity=100 time=0@note_on channel=5 note=74 velocity=0 time=0@note_on channel=5 note=76 velocity=100 time=0@note_on channel=4 note=69 velocity=0 time=0.15872999999999998@note_on channel=4 note=71 velocity=100 time=0@note_on channel=0 note=83 velocity=0 time=0.15872999999999998@note_on channel=0 note=81 velocity=100 time=0@note_on channel=2 note=72 velocity=0 time=0@note_on channel=2 note=69 velocity=100 time=0@note_on channel=3 note=71 velocity=0 time=0@note_on channel=3 note=72 velocity=100 time=0@note_on channel=4 note=71 velocity=0 time=0@note_on channel=4 note=72 velocity=100 time=0@note_on channel=5 note=76 velocity=0 time=0@note_on channel=5 note=72 velocity=100 time=0@note_on channel=0 note=81 velocity=0 time=0.31745999999999996@note_on channel=0 note=80 velocity=100 time=0@note_on channel=1 note=38 velocity=0 time=0@note_on channel=1 note=47 velocity=100 time=0@note_on channel=2 note=69 velocity=0 time=0@note_on channel=2 note=71 velocity=100 time=0@note_on channel=3 note=72 velocity=0 time=0@note_on channel=3 note=71 velocity=100 time=0@note_on channel=4 note=72 velocity=0 time=0@note_on channel=4 note=71 velocity=100 time=0@note_on channel=5 note=72 velocity=0 time=0@note_on channel=5 note=71 velocity=100 time=0@note_on channel=0 note=80 velocity=0 time=0.31745999999999996@note_on channel=0 note=76 velocity=100 time=0@note_on channel=2 note=71 velocity=0 time=0@note_on channel=2 note=68 velocity=100 time=0@note_on channel=4 note=71 velocity=0 time=0.15872999999999998@note_on channel=4 note=69 velocity=100 time=0@note_on channel=0 note=76 velocity=0 time=0.15872999999999998@note_on channel=0 note=71 velocity=100 time=0@note_on channel=2 note=68 velocity=0 time=0@note_on channel=2 note=64 velocity=100 time=0@note_on channel=3 note=71 velocity=0 time=0@note_on channel=3 note=71 velocity=100 time=0@note_on channel=4 note=69 velocity=0 time=0@note_on channel=4 note=71 velocity=100 time=0@note_on channel=5 note=71 velocity=0 time=0@note_on channel=5 note=68 velocity=100 time=0@note_on channel=0 note=71 velocity=0 time=0.31745999999999996@note_on channel=0 note=76 velocity=100 time=0@note_on channel=1 note=47 velocity=0 time=0@note_on channel=1 note=40 velocity=100 time=0@note_on channel=2 note=64 velocity=0 time=0@note_on channel=2 note=71 velocity=100 time=0@note_on channel=3 note=71 velocity=0 time=0@note_on channel=3 note=68 velocity=100 time=0@note_on channel=4 note=71 velocity=0 time=0@note_on channel=4 note=68 velocity=100 time=0@note_on channel=5 note=68 velocity=0 time=0@note_on channel=5 note=64 velocity=100 time=0@note_on channel=0 note=76 velocity=0 time=0.31745999999999996@note_on channel=0 note=77 velocity=100 time=0@note_on channel=2 note=71 velocity=0 time=0@note_on channel=2 note=68 velocity=100 time=0@note_on channel=3 note=68 velocity=0 time=0@note_on channel=3 note=69 velocity=100 time=0@note_on channel=0 note=77 velocity=0 time=0.07936499999999999@note_on channel=0 note=76 velocity=100 time=0@note_on channel=0 note=76 velocity=0 time=0.07936499999999999@note_on channel=0 note=77 velocity=100 time=0@note_on channel=4 note=68 velocity=0 time=0@note_on channel=4 note=69 velocity=100 time=0@note_on channel=0 note=77 velocity=0 time=0.07936499999999999@note_on channel=0 note=76 velocity=100 time=0@note_on channel=2 note=68 velocity=0 time=0.07936499999999999@note_on channel=2 note=64 velocity=100 time=0@note_on channel=3 note=69 velocity=0 time=0@note_on channel=3 note=71 velocity=100 time=0@note_on channel=4 note=69 velocity=0 time=0@note_on channel=4 note=71 velocity=100 time=0@note_on channel=0 note=76 velocity=0 time=0.15872999999999998@note_on channel=0 note=77 velocity=100 time=0@note_on channel=0 note=77 velocity=0 time=0.15872999999999998@note_on channel=0 note=79 velocity=100 time=0@note_on channel=1 note=40 velocity=0 time=0@note_on channel=1 note=48 velocity=100 time=0@note_on channel=2 note=64 velocity=0 time=0@note_on channel=2 note=79 velocity=100 time=0@note_on channel=3 note=71 velocity=0 time=0@note_on channel=3 note=79 velocity=100 time=0@note_on channel=4 note=71 velocity=0 time=0@note_on channel=4 note=72 velocity=100 time=0@note_on channel=5 note=64 velocity=0 time=0@note_on channel=5 note=72 velocity=100 time=0@note_on channel=2 note=79 velocity=0 time=0.07936499999999999@note_on channel=2 note=81 velocity=100 time=0@note_on channel=2 note=81 velocity=0 time=0.07936499999999999@note_on channel=2 note=79 velocity=100 time=0@note_on channel=0 note=79 velocity=0 time=0.15872999999999998@note_on channel=0 note=72 velocity=100 time=0@note_on channel=2 note=79 velocity=0 time=0@note_on channel=2 note=76 velocity=100 time=0@note_on channel=4 note=72 velocity=0 time=0.15872999999999998@note_on channel=4 note=74 velocity=100 time=0@note_on channel=0 note=72 velocity=0 time=0.15872999999999998@note_on channel=0 note=81 velocity=100 time=0@note_on channel=2 note=76 velocity=0 time=0@note_on channel=2 note=72 velocity=100 time=0@note_on channel=3 note=79 velocity=0 time=0@note_on channel=3 note=79 velocity=100 time=0@note_on channel=4 note=74 velocity=0 time=0@note_on channel=4 note=76 velocity=100 time=0@note_on channel=5 note=72 velocity=0 time=0@note_on channel=5 note=74 velocity=100 time=0@note_on channel=0 note=81 velocity=0 time=0.31745999999999996@note_on channel=0 note=81 velocity=100 time=0@note_on channel=1 note=48 velocity=0 time=0@note_on channel=1 note=40 velocity=100 time=0@note_on channel=2 note=72 velocity=0 time=0@note_on channel=2 note=79 velocity=100 time=0@note_on channel=3 note=79 velocity=0 time=0@note_on channel=3 note=79 velocity=100 time=0@note_on channel=4 note=76 velocity=0 time=0@note_on channel=4 note=76 velocity=100 time=0@note_on channel=5 note=74 velocity=0 time=0@note_on channel=5 note=76 velocity=100 time=0@note_on channel=0 note=81 velocity=0 time=0.07936499999999999@note_on channel=0 note=79 velocity=100 time=0@note_on channel=2 note=79 velocity=0 time=0@note_on channel=2 note=81 velocity=100 time=0@note_on channel=0 note=79 velocity=0 time=0.07936499999999999@note_on channel=0 note=81 velocity=100 time=0@note_on channel=2 note=81 velocity=0 time=0@note_on channel=2 note=79 velocity=100 time=0@note_on channel=0 note=81 velocity=0 time=0.07936499999999999@note_on channel=0 note=79 velocity=100 time=0@note_on channel=2 note=79 velocity=0 time=0.07936499999999999@note_on channel=2 note=76 velocity=100 time=0@note_on channel=3 note=79 velocity=0 time=0@note_on channel=3 note=77 velocity=100 time=0@note_on channel=0 note=79 velocity=0 time=0.15872999999999998@note_on channel=0 note=77 velocity=100 time=0@note_on channel=4 note=76 velocity=0 time=0@note_on channel=4 note=77 velocity=100 time=0@note_on channel=5 note=76 velocity=0 time=0@note_on channel=5 note=74 velocity=100 time=0@note_on channel=0 note=77 velocity=0 time=0.15872999999999998@note_on channel=0 note=76 velocity=100 time=0@note_on channel=2 note=76 velocity=0 time=0@note_on channel=2 note=72 velocity=100 time=0@note_on channel=3 note=77 velocity=0 time=0@note_on channel=3 note=76 velocity=100 time=0@note_on channel=4 note=77 velocity=0 time=0@note_on channel=4 note=79 velocity=100 time=0@note_on channel=5 note=74 velocity=0 time=0@note_on channel=5 note=72 velocity=100 time=0@note_on channel=0 note=76 velocity=0 time=0.31745999999999996@note_on channel=0 note=74 velocity=100 time=0@note_on channel=1 note=40 velocity=0 time=0@note_on channel=1 note=50 velocity=100 time=0@note_on channel=2 note=72 velocity=0 time=0@note_on channel=2 note=74 velocity=100 time=0@note_on channel=3 note=76 velocity=0 time=0@note_on channel=3 note=74 velocity=100 time=0@note_on channel=4 note=79 velocity=0 time=0@note_on channel=4 note=74 velocity=100 time=0@note_on channel=5 note=72 velocity=0 time=0@note_on channel=5 note=74 velocity=100 time=0@note_on channel=2 note=74 velocity=0 time=0.07936499999999999@note_on channel=2 note=72 velocity=100 time=0@note_on channel=2 note=72 velocity=0 time=0.07936499999999999@note_on channel=2 note=74 velocity=100 time=0@note_on channel=0 note=74 velocity=0 time=0.15872999999999998@note_on channel=0 note=71 velocity=100 time=0@note_on channel=2 note=74 velocity=0 time=0@note_on channel=2 note=71 velocity=100 time=0@note_on channel=4 note=74 velocity=0 time=0.15872999999999998@note_on channel=4 note=76 velocity=100 time=0@note_on channel=0 note=71 velocity=0 time=0.15872999999999998@note_on channel=0 note=67 velocity=100 time=0@note_on channel=2 note=71 velocity=0 time=0@note_on channel=2 note=67 velocity=100 time=0@note_on channel=3 note=74 velocity=0 time=0@note_on channel=3 note=74 velocity=100 time=0@note_on channel=4 note=76 velocity=0 time=0@note_on channel=4 note=74 velocity=100 time=0@note_on channel=5 note=74 velocity=0 time=0@note_on channel=5 note=71 velocity=100 time=0@note_on channel=0 note=67 velocity=0 time=0.31745999999999996@note_on channel=0 note=74 velocity=100 time=0@note_on channel=1 note=50 velocity=0 time=0@note_on channel=1 note=43 velocity=100 time=0@note_on channel=2 note=67 velocity=0 time=0@note_on channel=2 note=74 velocity=100 time=0@note_on channel=3 note=74 velocity=0 time=0@note_on channel=3 note=71 velocity=100 time=0@note_on channel=4 note=74 velocity=0 time=0@note_on channel=4 note=71 velocity=100 time=0@note_on channel=5 note=71 velocity=0 time=0@note_on channel=5 note=67 velocity=100 time=0@note_on channel=2 note=74 velocity=0 time=0.07936499999999999@note_on channel=2 note=72 velocity=100 time=0@note_on channel=2 note=72 velocity=0 time=0.07936499999999999@note_on channel=2 note=74 velocity=100 time=0@note_on channel=0 note=74 velocity=0 time=0.15872999999999998@note_on channel=0 note=62 velocity=100 time=0@note_on channel=2 note=74 velocity=0 time=0@note_on channel=2 note=71 velocity=100 time=0@note_on channel=3 note=71 velocity=0 time=0@note_on channel=3 note=72 velocity=100 time=0@note_on channel=4 note=71 velocity=0 time=0.15872999999999998@note_on channel=4 note=72 velocity=100 time=0@note_on channel=5 note=67 velocity=0 time=0@note_on channel=5 note=69 velocity=100 time=0@note_on channel=0 note=62 velocity=0 time=0.15872999999999998@note_on channel=0 note=76 velocity=100 time=0@note_on channel=2 note=71 velocity=0 time=0@note_on channel=2 note=67 velocity=100 time=0@note_on channel=3 note=72 velocity=0 time=0@note_on channel=3 note=74 velocity=100 time=0@note_on channel=4 note=72 velocity=0 time=0@note_on channel=4 note=74 velocity=100 time=0@note_on channel=5 note=69 velocity=0 time=0@note_on channel=5 note=71 velocity=100 time=0@note_on channel=0 note=76 velocity=0 time=0.15872999999999998@note_on channel=0 note=74 velocity=100 time=0@note_on channel=0 note=74 velocity=0 time=0.15872999999999998@note_on channel=0 note=72 velocity=100 time=0@note_on channel=1 note=43 velocity=0 time=0@note_on channel=1 note=45 velocity=100 time=0@note_on channel=2 note=67 velocity=0 time=0@note_on channel=2 note=76 velocity=100 time=0@note_on channel=3 note=74 velocity=0 time=0@note_on channel=3 note=76 velocity=100 time=0@note_on channel=4 note=74 velocity=0 time=0@note_on channel=4 note=72 velocity=100 time=0@note_on channel=5 note=71 velocity=0 time=0@note_on channel=5 note=72 velocity=100 time=0@note_on channel=0 note=72 velocity=0 time=0.31745999999999996@note_on channel=0 note=71 velocity=100 time=0@note_on channel=2 note=76 velocity=0 time=0@note_on channel=2 note=72 velocity=100 time=0@note_on channel=3 note=76 velocity=0 time=0@note_on channel=3 note=74 velocity=100 time=0@note_on channel=4 note=72 velocity=0 time=0@note_on channel=4 note=71 velocity=100 time=0@note_on channel=5 note=72 velocity=0 time=0.15872999999999998@note_on channel=5 note=71 velocity=100 time=0@note_on channel=0 note=71 velocity=0 time=0.15872999999999998@note_on channel=0 note=69 velocity=100 time=0@note_on channel=2 note=72 velocity=0 time=0@note_on channel=2 note=69 velocity=100 time=0@note_on channel=3 note=74 velocity=0 time=0@note_on channel=3 note=72 velocity=100 time=0@note_on channel=4 note=71 velocity=0 time=0@note_on channel=4 note=69 velocity=100 time=0@note_on channel=5 note=71 velocity=0 time=0@note_on channel=5 note=69 velocity=100 time=0@note_on channel=0 note=69 velocity=0 time=0.31745999999999996@note_on channel=0 note=71 velocity=100 time=0@note_on channel=1 note=45 velocity=0 time=0@note_on channel=1 note=38 velocity=100 time=0@note_on channel=2 note=69 velocity=0 time=0@note_on channel=2 note=71 velocity=100 time=0@note_on channel=3 note=72 velocity=0 time=0@note_on channel=3 note=74 velocity=100 time=0@note_on channel=4 note=69 velocity=0 time=0@note_on channel=4 note=69 velocity=100 time=0@note_on channel=5 note=69 velocity=0 time=0@note_on channel=5 note=72 velocity=100 time=0@note_on channel=2 note=71 velocity=0 time=0.07936499999999999@note_on channel=2 note=72 velocity=100 time=0@note_on channel=4 note=69 velocity=0 time=0@note_on channel=4 note=68 velocity=100 time=0@note_on channel=5 note=72 velocity=0 time=0@note_on channel=5 note=71 velocity=100 time=0@note_on channel=2 note=72 velocity=0 time=0.07936499999999999@note_on channel=2 note=71 velocity=100 time=0@note_on channel=4 note=68 velocity=0 time=0@note_on channel=4 note=69 velocity=100 time=0@note_on channel=5 note=71 velocity=0 time=0@note_on channel=5 note=72 velocity=100 time=0@note_on channel=4 note=69 velocity=0 time=0.07936499999999999@note_on channel=4 note=68 velocity=100 time=0@note_on channel=5 note=72 velocity=0 time=0@note_on channel=5 note=71 velocity=100 time=0@note_on channel=0 note=71 velocity=0 time=0.07936499999999999@note_on channel=0 note=68 velocity=100 time=0@note_on channel=2 note=71 velocity=0 time=0@note_on channel=2 note=68 velocity=100 time=0@note_on channel=3 note=74 velocity=0 time=0@note_on channel=3 note=72 velocity=100 time=0@note_on channel=3 note=72 velocity=0 time=0.07936499999999999@note_on channel=3 note=71 velocity=100 time=0@note_on channel=3 note=71 velocity=0 time=0.07936499999999999@note_on channel=3 note=72 velocity=100 time=0@note_on channel=4 note=68 velocity=0 time=0@note_on channel=4 note=66 velocity=100 time=0@note_on channel=5 note=71 velocity=0 time=0@note_on channel=5 note=69 velocity=100 time=0@note_on channel=3 note=72 velocity=0 time=0.07936499999999999@note_on channel=3 note=71 velocity=100 time=0@note_on channel=0 note=68 velocity=0 time=0.07936499999999999@note_on channel=0 note=64 velocity=100 time=0@note_on channel=2 note=68 velocity=0 time=0@note_on channel=2 note=64 velocity=100 time=0@note_on channel=4 note=66 velocity=0 time=0@note_on channel=4 note=68 velocity=100 time=0@note_on channel=5 note=69 velocity=0 time=0@note_on channel=5 note=68 velocity=100 time=0@note_on channel=3 note=71 velocity=0 time=0.15872999999999998@note_on channel=3 note=69 velocity=100 time=0@note_on channel=3 note=69 velocity=0 time=0.07936499999999999@note_on channel=3 note=71 velocity=100 time=0@note_on channel=0 note=64 velocity=0 time=0.07936499999999999@note_on channel=0 note=69 velocity=100 time=0@note_on channel=1 note=38 velocity=0 time=0@note_on channel=1 note=45 velocity=100 time=0@note_on channel=2 note=64 velocity=0 time=0@note_on channel=2 note=69 velocity=100 time=0@note_on channel=3 note=71 velocity=0 time=0@note_on channel=3 note=69 velocity=100 time=0@note_on channel=4 note=68 velocity=0 time=0@note_on channel=4 note=69 velocity=100 time=0@note_on channel=5 note=68 velocity=0 time=0@note_on channel=5 note=69 velocity=100 time=0@note_on channel=0 note=69 velocity=0 time=0.9523799999999999@note_on channel=0 note=69 velocity=100 time=0@note_on channel=2 note=69 velocity=0 time=0@note_on channel=2 note=69 velocity=100 time=0@note_on channel=3 note=69 velocity=0 time=0@note_on channel=3 note=69 velocity=100 time=0@note_on channel=4 note=69 velocity=0 time=0@note_on channel=4 note=69 velocity=100 time=0@note_on channel=5 note=69 velocity=0 time=0@note_on channel=5 note=69 velocity=100 time=0@note_on channel=0 note=69 velocity=0 time=0.9523799999999999@note_on channel=0 note=69 velocity=100 time=0@note_on channel=1 note=45 velocity=0 time=0@note_on channel=1 note=48 velocity=100 time=0@note_on channel=2 note=69 velocity=0 time=0@note_on channel=2 note=79 velocity=100 time=0@note_on channel=3 note=69 velocity=0 time=0@note_on channel=3 note=76 velocity=100 time=0@note_on channel=4 note=69 velocity=0 time=0@note_on channel=4 note=79 velocity=100 time=0@note_on channel=5 note=69 velocity=0 time=0@note_on channel=5 note=72 velocity=100 time=0@note_on channel=6 note=72 velocity=100 time=0@note_on channel=0 note=69 velocity=0 time=0.31745999999999996@note_on channel=0 note=72 velocity=100 time=0@note_on channel=2 note=79 velocity=0 time=0@note_on channel=2 note=72 velocity=100 time=0@note_on channel=3 note=76 velocity=0 time=0@note_on channel=3 note=72 velocity=100 time=0@note_on channel=5 note=72 velocity=0 time=0.15872999999999998@note_on channel=5 note=74 velocity=100 time=0@note_on channel=0 note=72 velocity=0 time=0.15872999999999998@note_on channel=0 note=69 velocity=100 time=0@note_on channel=2 note=72 velocity=0 time=0@note_on channel=2 note=81 velocity=100 time=0@note_on channel=3 note=72 velocity=0 time=0@note_on channel=3 note=69 velocity=100 time=0@note_on channel=4 note=79 velocity=0 time=0@note_on channel=4 note=79 velocity=100 time=0@note_on channel=5 note=74 velocity=0 time=0@note_on channel=5 note=76 velocity=100 time=0@note_on channel=6 note=72 velocity=0 time=0@note_on channel=6 note=74 velocity=100 time=0@note_on channel=0 note=69 velocity=0 time=0.31745999999999996@note_on channel=0 note=76 velocity=100 time=0@note_on channel=1 note=48 velocity=0 time=0@note_on channel=1 note=40 velocity=100 time=0@note_on channel=2 note=81 velocity=0 time=0@note_on channel=2 note=81 velocity=100 time=0@note_on channel=3 note=69 velocity=0 time=0@note_on channel=3 note=76 velocity=100 time=0@note_on channel=4 note=79 velocity=0 time=0@note_on channel=4 note=79 velocity=100 time=0@note_on channel=5 note=76 velocity=0 time=0@note_on channel=5 note=76 velocity=100 time=0@note_on channel=6 note=74 velocity=0 time=0@note_on channel=6 note=76 velocity=100 time=0@note_on channel=2 note=81 velocity=0 time=0.07936499999999999@note_on channel=2 note=79 velocity=100 time=0@note_on channel=0 note=76 velocity=0 time=0.07936499999999999@note_on channel=0 note=74 velocity=100 time=0@note_on channel=2 note=79 velocity=0 time=0@note_on channel=2 note=81 velocity=100 time=0@note_on channel=2 note=81 velocity=0 time=0.07936499999999999@note_on channel=2 note=79 velocity=100 time=0@note_on channel=0 note=74 velocity=0 time=0.07936499999999999@note_on channel=0 note=72 velocity=100 time=0@note_on channel=3 note=76 velocity=0 time=0@note_on channel=3 note=72 velocity=100 time=0@note_on channel=4 note=79 velocity=0 time=0@note_on channel=4 note=77 velocity=100 time=0@note_on channel=0 note=72 velocity=0 time=0.15872999999999998@note_on channel=0 note=71 velocity=100 time=0@note_on channel=2 note=79 velocity=0 time=0@note_on channel=2 note=77 velocity=100 time=0@note_on channel=5 note=76 velocity=0 time=0@note_on channel=5 note=77 velocity=100 time=0@note_on channel=0 note=71 velocity=0 time=0.15872999999999998@note_on channel=0 note=69 velocity=100 time=0@note_on channel=2 note=77 velocity=0 time=0@note_on channel=2 note=76 velocity=100 time=0@note_on channel=3 note=72 velocity=0 time=0@note_on channel=3 note=69 velocity=100 time=0@note_on channel=4 note=77 velocity=0 time=0@note_on channel=4 note=76 velocity=100 time=0@note_on channel=5 note=77 velocity=0 time=0@note_on channel=5 note=76 velocity=100 time=0@note_on channel=6 note=76 velocity=0 time=0@note_on channel=6 note=76 velocity=100 time=0@note_on channel=0 note=69 velocity=0 time=0.31745999999999996@note_on channel=0 note=67 velocity=100 time=0@note_on channel=1 note=40 velocity=0 time=0@note_on channel=1 note=50 velocity=100 time=0@note_on channel=2 note=76 velocity=0 time=0@note_on channel=2 note=74 velocity=100 time=0@note_on channel=3 note=69 velocity=0 time=0@note_on channel=3 note=74 velocity=100 time=0@note_on channel=4 note=76 velocity=0 time=0@note_on channel=4 note=74 velocity=100 time=0@note_on channel=5 note=76 velocity=0 time=0@note_on channel=5 note=74 velocity=100 time=0@note_on channel=6 note=76 velocity=0 time=0@note_on channel=6 note=74 velocity=100 time=0@note_on channel=0 note=67 velocity=0 time=0.31745999999999996@note_on channel=0 note=71 velocity=100 time=0@note_on channel=2 note=74 velocity=0 time=0@note_on channel=2 note=71 velocity=100 time=0@note_on channel=3 note=74 velocity=0 time=0@note_on channel=3 note=71 velocity=100 time=0@note_on channel=5 note=74 velocity=0 time=0.15872999999999998@note_on channel=5 note=76 velocity=100 time=0@note_on channel=0 note=71 velocity=0 time=0.15872999999999998@note_on channel=0 note=67 velocity=100 time=0@note_on channel=2 note=71 velocity=0 time=0@note_on channel=2 note=67 velocity=100 time=0@note_on channel=3 note=71 velocity=0 time=0@note_on channel=3 note=67 velocity=100 time=0@note_on channel=4 note=74 velocity=0 time=0@note_on channel=4 note=74 velocity=100 time=0@note_on channel=5 note=76 velocity=0 time=0@note_on channel=5 note=74 velocity=100 time=0@note_on channel=6 note=74 velocity=0 time=0@note_on channel=6 note=71 velocity=100 time=0@note_on channel=0 note=67 velocity=0 time=0.31745999999999996@note_on channel=0 note=74 velocity=100 time=0@note_on channel=1 note=50 velocity=0 time=0@note_on channel=1 note=43 velocity=100 time=0@note_on channel=2 note=67 velocity=0 time=0@note_on channel=2 note=74 velocity=100 time=0@note_on channel=3 note=67 velocity=0 time=0@note_on channel=3 note=74 velocity=100 time=0@note_on channel=4 note=74 velocity=0 time=0@note_on channel=4 note=71 velocity=100 time=0@note_on channel=5 note=74 velocity=0 time=0@note_on channel=5 note=71 velocity=100 time=0@note_on channel=6 note=71 velocity=0 time=0@note_on channel=6 note=67 velocity=100 time=0@note_on channel=0 note=74 velocity=0 time=0.15872999999999998@note_on channel=0 note=72 velocity=100 time=0@note_on channel=0 note=72 velocity=0 time=0.15872999999999998@note_on channel=0 note=71 velocity=100 time=0@note_on channel=2 note=74 velocity=0 time=0@note_on channel=2 note=62 velocity=100 time=0@note_on channel=3 note=74 velocity=0 time=0@note_on channel=3 note=71 velocity=100 time=0@note_on channel=4 note=71 velocity=0 time=0@note_on channel=4 note=72 velocity=100 time=0@note_on channel=0 note=71 velocity=0 time=0.15872999999999998@note_on channel=0 note=69 velocity=100 time=0@note_on channel=5 note=71 velocity=0 time=0@note_on channel=5 note=72 velocity=100 time=0@note_on channel=0 note=69 velocity=0 time=0.15872999999999998@note_on channel=0 note=67 velocity=100 time=0@note_on channel=2 note=62 velocity=0 time=0@note_on channel=2 note=77 velocity=100 time=0@note_on channel=3 note=71 velocity=0 time=0@note_on channel=3 note=67 velocity=100 time=0@note_on channel=4 note=72 velocity=0 time=0@note_on channel=4 note=74 velocity=100 time=0@note_on channel=5 note=72 velocity=0 time=0@note_on channel=5 note=74 velocity=100 time=0@note_on channel=2 note=77 velocity=0 time=0.15872999999999998@note_on channel=2 note=79 velocity=100 time=0@note_on channel=0 note=67 velocity=0 time=0.15872999999999998@note_on channel=0 note=69 velocity=100 time=0@note_on channel=1 note=43 velocity=0 time=0@note_on channel=1 note=45 velocity=100 time=0@note_on channel=2 note=79 velocity=0 time=0@note_on channel=2 note=81 velocity=100 time=0@note_on channel=3 note=67 velocity=0 time=0@note_on channel=3 note=76 velocity=100 time=0@note_on channel=4 note=74 velocity=0 time=0@note_on channel=4 note=72 velocity=100 time=0@note_on channel=5 note=74 velocity=0 time=0@note_on channel=5 note=72 velocity=100 time=0@note_on channel=6 note=67 velocity=0 time=0@note_on channel=6 note=69 velocity=100 time=0@note_on channel=0 note=69 velocity=0 time=0.31745999999999996@note_on channel=0 note=72 velocity=100 time=0@note_on channel=2 note=81 velocity=0 time=0@note_on channel=2 note=69 velocity=100 time=0@note_on channel=3 note=76 velocity=0 time=0@note_on channel=3 note=72 velocity=100 time=0@note_on channel=5 note=72 velocity=0 time=0.15872999999999998@note_on channel=5 note=71 velocity=100 time=0@note_on channel=6 note=69 velocity=0 time=0@note_on channel=6 note=71 velocity=100 time=0@note_on channel=0 note=72 velocity=0 time=0.15872999999999998@note_on channel=0 note=69 velocity=100 time=0@note_on channel=2 note=69 velocity=0 time=0@note_on channel=2 note=83 velocity=100 time=0@note_on channel=3 note=72 velocity=0 time=0@note_on channel=3 note=69 velocity=100 time=0@note_on channel=4 note=72 velocity=0 time=0@note_on channel=4 note=72 velocity=100 time=0@note_on channel=5 note=71 velocity=0 time=0@note_on channel=5 note=72 velocity=100 time=0@note_on channel=6 note=71 velocity=0 time=0@note_on channel=6 note=72 velocity=100 time=0@note_on channel=0 note=69 velocity=0 time=0.31745999999999996@note_on channel=0 note=76 velocity=100 time=0@note_on channel=1 note=45 velocity=0 time=0@note_on channel=1 note=38 velocity=100 time=0@note_on channel=2 note=83 velocity=0 time=0@note_on channel=2 note=84 velocity=100 time=0@note_on channel=3 note=69 velocity=0 time=0@note_on channel=3 note=76 velocity=100 time=0@note_on channel=4 note=72 velocity=0 time=0@note_on channel=4 note=69 velocity=100 time=0@note_on channel=5 note=72 velocity=0 time=0@note_on channel=5 note=69 velocity=100 time=0@note_on channel=6 note=72 velocity=0 time=0@note_on channel=6 note=74 velocity=100 time=0@note_on channel=0 note=76 velocity=0 time=0.15872999999999998@note_on channel=0 note=74 velocity=100 time=0@note_on channel=0 note=74 velocity=0 time=0.15872999999999998@note_on channel=0 note=72 velocity=100 time=0@note_on channel=2 note=84 velocity=0 time=0@note_on channel=2 note=83 velocity=100 time=0@note_on channel=3 note=76 velocity=0 time=0@note_on channel=3 note=72 velocity=100 time=0@note_on channel=4 note=69 velocity=0 time=0@note_on channel=4 note=71 velocity=100 time=0@note_on channel=6 note=74 velocity=0 time=0@note_on channel=6 note=76 velocity=100 time=0@note_on channel=0 note=72 velocity=0 time=0.15872999999999998@note_on channel=0 note=71 velocity=100 time=0@note_on channel=5 note=69 velocity=0 time=0@note_on channel=5 note=71 velocity=100 time=0@note_on channel=0 note=71 velocity=0 time=0.15872999999999998@note_on channel=0 note=69 velocity=100 time=0@note_on channel=2 note=83 velocity=0 time=0@note_on channel=2 note=81 velocity=100 time=0@note_on channel=3 note=72 velocity=0 time=0@note_on channel=3 note=69 velocity=100 time=0@note_on channel=4 note=71 velocity=0 time=0@note_on channel=4 note=72 velocity=100 time=0@note_on channel=5 note=71 velocity=0 time=0@note_on channel=5 note=72 velocity=100 time=0@note_on channel=6 note=76 velocity=0 time=0@note_on channel=6 note=72 velocity=100 time=0@note_on channel=0 note=69 velocity=0 time=0.31745999999999996@note_on channel=0 note=64 velocity=100 time=0@note_on channel=1 note=38 velocity=0 time=0@note_on channel=1 note=47 velocity=100 time=0@note_on channel=2 note=81 velocity=0 time=0@note_on channel=2 note=80 velocity=100 time=0@note_on channel=3 note=69 velocity=0 time=0@note_on channel=3 note=71 velocity=100 time=0@note_on channel=4 note=72 velocity=0 time=0@note_on channel=4 note=71 velocity=100 time=0@note_on channel=5 note=72 velocity=0 time=0@note_on channel=5 note=71 velocity=100 time=0@note_on channel=6 note=72 velocity=0 time=0@note_on channel=6 note=71 velocity=100 time=0@note_on channel=0 note=64 velocity=0 time=0.31745999999999996@note_on channel=0 note=68 velocity=100 time=0@note_on channel=2 note=80 velocity=0 time=0@note_on channel=2 note=76 velocity=100 time=0@note_on channel=3 note=71 velocity=0 time=0@note_on channel=3 note=68 velocity=100 time=0@note_on channel=5 note=71 velocity=0 time=0.15872999999999998@note_on channel=5 note=69 velocity=100 time=0@note_on channel=0 note=68 velocity=0 time=0.15872999999999998@note_on channel=0 note=64 velocity=100 time=0@note_on channel=2 note=76 velocity=0 time=0@note_on channel=2 note=71 velocity=100 time=0@note_on channel=3 note=68 velocity=0 time=0@note_on channel=3 note=64 velocity=100 time=0@note_on channel=4 note=71 velocity=0 time=0@note_on channel=4 note=71 velocity=100 time=0@note_on channel=5 note=69 velocity=0 time=0@note_on channel=5 note=71 velocity=100 time=0@note_on channel=6 note=71 velocity=0 time=0@note_on channel=6 note=68 velocity=100 time=0@note_on channel=0 note=64 velocity=0 time=0.31745999999999996@note_on channel=0 note=71 velocity=100 time=0@note_on channel=1 note=47 velocity=0 time=0@note_on channel=1 note=40 velocity=100 time=0@note_on channel=2 note=71 velocity=0 time=0@note_on channel=2 note=76 velocity=100 time=0@note_on channel=3 note=64 velocity=0 time=0@note_on channel=3 note=71 velocity=100 time=0@note_on channel=4 note=71 velocity=0 time=0@note_on channel=4 note=68 velocity=100 time=0@note_on channel=5 note=71 velocity=0 time=0@note_on channel=5 note=68 velocity=100 time=0@note_on channel=6 note=68 velocity=0 time=0@note_on channel=6 note=64 velocity=100 time=0@note_on channel=0 note=71 velocity=0 time=0.15872999999999998@note_on channel=0 note=69 velocity=100 time=0@note_on channel=0 note=69 velocity=0 time=0.15872999999999998@note_on channel=0 note=68 velocity=100 time=0@note_on channel=2 note=76 velocity=0 time=0@note_on channel=2 note=77 velocity=100 time=0@note_on channel=3 note=71 velocity=0 time=0@note_on channel=3 note=68 velocity=100 time=0@note_on channel=4 note=68 velocity=0 time=0@note_on channel=4 note=69 velocity=100 time=0@note_on channel=2 note=77 velocity=0 time=0.07936499999999999@note_on channel=2 note=76 velocity=100 time=0@note_on channel=0 note=68 velocity=0 time=0.07936499999999999@note_on channel=0 note=66 velocity=100 time=0@note_on channel=2 note=76 velocity=0 time=0@note_on channel=2 note=77 velocity=100 time=0@note_on channel=5 note=68 velocity=0 time=0@note_on channel=5 note=69 velocity=100 time=0@note_on channel=2 note=77 velocity=0 time=0.07936499999999999@note_on channel=2 note=76 velocity=100 time=0@note_on channel=0 note=66 velocity=0 time=0.07936499999999999@note_on channel=0 note=64 velocity=100 time=0@note_on channel=3 note=68 velocity=0 time=0@note_on channel=3 note=64 velocity=100 time=0@note_on channel=4 note=69 velocity=0 time=0@note_on channel=4 note=71 velocity=100 time=0@note_on channel=5 note=69 velocity=0 time=0@note_on channel=5 note=71 velocity=100 time=0@note_on channel=2 note=76 velocity=0 time=0.15872999999999998@note_on channel=2 note=77 velocity=100 time=0@note_on channel=0 note=64 velocity=0 time=0.15872999999999998@note_on channel=0 note=72 velocity=100 time=0@note_on channel=1 note=40 velocity=0 time=0@note_on channel=1 note=48 velocity=100 time=0@note_on channel=2 note=77 velocity=0 time=0@note_on channel=2 note=79 velocity=100 time=0@note_on channel=3 note=64 velocity=0 time=0@note_on channel=3 note=79 velocity=100 time=0@note_on channel=4 note=71 velocity=0 time=0@note_on channel=4 note=79 velocity=100 time=0@note_on channel=5 note=71 velocity=0 time=0@note_on channel=5 note=72 velocity=100 time=0@note_on channel=6 note=64 velocity=0 time=0@note_on channel=6 note=72 velocity=100 time=0@note_on channel=3 note=79 velocity=0 time=0.07936499999999999@note_on channel=3 note=81 velocity=100 time=0@note_on channel=3 note=81 velocity=0 time=0.07936499999999999@note_on channel=3 note=79 velocity=100 time=0@note_on channel=0 note=72 velocity=0 time=0.15872999999999998@note_on channel=0 note=76 velocity=100 time=0@note_on channel=2 note=79 velocity=0 time=0@note_on channel=2 note=72 velocity=100 time=0@note_on channel=3 note=79 velocity=0 time=0@note_on channel=3 note=76 velocity=100 time=0@note_on channel=5 note=72 velocity=0 time=0.15872999999999998@note_on channel=5 note=74 velocity=100 time=0@note_on channel=0 note=76 velocity=0 time=0.15872999999999998@note_on channel=0 note=72 velocity=100 time=0@note_on channel=2 note=72 velocity=0 time=0@note_on channel=2 note=81 velocity=100 time=0@note_on channel=3 note=76 velocity=0 time=0@note_on channel=3 note=72 velocity=100 time=0@note_on channel=4 note=79 velocity=0 time=0@note_on channel=4 note=79 velocity=100 time=0@note_on channel=5 note=74 velocity=0 time=0@note_on channel=5 note=76 velocity=100 time=0@note_on channel=6 note=72 velocity=0 time=0@note_on channel=6 note=74 velocity=100 time=0@note_on channel=0 note=72 velocity=0 time=0.31745999999999996@note_on channel=0 note=79 velocity=100 time=0@note_on channel=1 note=48 velocity=0 time=0@note_on channel=1 note=40 velocity=100 time=0@note_on channel=2 note=81 velocity=0 time=0@note_on channel=2 note=81 velocity=100 time=0@note_on channel=3 note=72 velocity=0 time=0@note_on channel=3 note=79 velocity=100 time=0@note_on channel=4 note=79 velocity=0 time=0@note_on channel=4 note=79 velocity=100 time=0@note_on channel=5 note=76 velocity=0 time=0@note_on channel=5 note=76 velocity=100 time=0@note_on channel=6 note=74 velocity=0 time=0@note_on channel=6 note=76 velocity=100 time=0@note_on channel=2 note=81 velocity=0 time=0.07936499999999999@note_on channel=2 note=79 velocity=100 time=0@note_on channel=3 note=79 velocity=0 time=0@note_on channel=3 note=81 velocity=100 time=0@note_on channel=0 note=79 velocity=0 time=0.07936499999999999@note_on channel=0 note=77 velocity=100 time=0@note_on channel=2 note=79 velocity=0 time=0@note_on channel=2 note=81 velocity=100 time=0@note_on channel=3 note=81 velocity=0 time=0@note_on channel=3 note=79 velocity=100 time=0@note_on channel=2 note=81 velocity=0 time=0.07936499999999999@note_on channel=2 note=79 velocity=100 time=0@note_on channel=0 note=77 velocity=0 time=0.07936499999999999@note_on channel=0 note=76 velocity=100 time=0@note_on channel=3 note=79 velocity=0 time=0@note_on channel=3 note=76 velocity=100 time=0@note_on channel=4 note=79 velocity=0 time=0@note_on channel=4 note=77 velocity=100 time=0@note_on channel=0 note=76 velocity=0 time=0.15872999999999998@note_on channel=0 note=74 velocity=100 time=0@note_on channel=2 note=79 velocity=0 time=0@note_on channel=2 note=77 velocity=100 time=0@note_on channel=5 note=76 velocity=0 time=0@note_on channel=5 note=77 velocity=100 time=0@note_on channel=6 note=76 velocity=0 time=0@note_on channel=6 note=74 velocity=100 time=0@note_on channel=0 note=74 velocity=0 time=0.15872999999999998@note_on channel=0 note=72 velocity=100 time=0@note_on channel=2 note=77 velocity=0 time=0@note_on channel=2 note=76 velocity=100 time=0@note_on channel=3 note=76 velocity=0 time=0@note_on channel=3 note=72 velocity=100 time=0@note_on channel=4 note=77 velocity=0 time=0@note_on channel=4 note=76 velocity=100 time=0@note_on channel=5 note=77 velocity=0 time=0@note_on channel=5 note=79 velocity=100 time=0@note_on channel=6 note=74 velocity=0 time=0@note_on channel=6 note=72 velocity=100 time=0@note_on channel=0 note=72 velocity=0 time=0.31745999999999996@note_on channel=0 note=67 velocity=100 time=0@note_on channel=1 note=40 velocity=0 time=0@note_on channel=1 note=50 velocity=100 time=0@note_on channel=2 note=76 velocity=0 time=0@note_on channel=2 note=74 velocity=100 time=0@note_on channel=3 note=72 velocity=0 time=0@note_on channel=3 note=74 velocity=100 time=0@note_on channel=4 note=76 velocity=0 time=0@note_on channel=4 note=74 velocity=100 time=0@note_on channel=5 note=79 velocity=0 time=0@note_on channel=5 note=74 velocity=100 time=0@note_on channel=6 note=72 velocity=0 time=0@note_on channel=6 note=74 velocity=100 time=0@note_on channel=3 note=74 velocity=0 time=0.07936499999999999@note_on channel=3 note=72 velocity=100 time=0@note_on channel=3 note=72 velocity=0 time=0.07936499999999999@note_on channel=3 note=74 velocity=100 time=0@note_on channel=0 note=67 velocity=0 time=0.15872999999999998@note_on channel=0 note=71 velocity=100 time=0@note_on channel=2 note=74 velocity=0 time=0@note_on channel=2 note=71 velocity=100 time=0@note_on channel=3 note=74 velocity=0 time=0@note_on channel=3 note=71 velocity=100 time=0@note_on channel=5 note=74 velocity=0 time=0.15872999999999998@note_on channel=5 note=76 velocity=100 time=0@note_on channel=0 note=71 velocity=0 time=0.15872999999999998@note_on channel=0 note=67 velocity=100 time=0@note_on channel=2 note=71 velocity=0 time=0@note_on channel=2 note=67 velocity=100 time=0@note_on channel=3 note=71 velocity=0 time=0@note_on channel=3 note=67 velocity=100 time=0@note_on channel=4 note=74 velocity=0 time=0@note_on channel=4 note=74 velocity=100 time=0@note_on channel=5 note=76 velocity=0 time=0@note_on channel=5 note=74 velocity=100 time=0@note_on channel=6 note=74 velocity=0 time=0@note_on channel=6 note=71 velocity=100 time=0@note_on channel=0 note=67 velocity=0 time=0.31745999999999996@note_on channel=0 note=74 velocity=100 time=0@note_on channel=1 note=50 velocity=0 time=0@note_on channel=1 note=43 velocity=100 time=0@note_on channel=2 note=67 velocity=0 time=0@note_on channel=2 note=74 velocity=100 time=0@note_on channel=3 note=67 velocity=0 time=0@note_on channel=3 note=74 velocity=100 time=0@note_on channel=4 note=74 velocity=0 time=0@note_on channel=4 note=71 velocity=100 time=0@note_on channel=5 note=74 velocity=0 time=0@note_on channel=5 note=71 velocity=100 time=0@note_on channel=6 note=71 velocity=0 time=0@note_on channel=6 note=67 velocity=100 time=0@note_on channel=3 note=74 velocity=0 time=0.07936499999999999@note_on channel=3 note=72 velocity=100 time=0@note_on channel=0 note=74 velocity=0 time=0.07936499999999999@note_on channel=0 note=72 velocity=100 time=0@note_on channel=3 note=72 velocity=0 time=0@note_on channel=3 note=74 velocity=100 time=0@note_on channel=0 note=72 velocity=0 time=0.15872999999999998@note_on channel=0 note=71 velocity=100 time=0@note_on channel=2 note=74 velocity=0 time=0@note_on channel=2 note=62 velocity=100 time=0@note_on channel=3 note=74 velocity=0 time=0@note_on channel=3 note=71 velocity=100 time=0@note_on channel=4 note=71 velocity=0 time=0@note_on channel=4 note=72 velocity=100 time=0@note_on channel=0 note=71 velocity=0 time=0.15872999999999998@note_on channel=0 note=69 velocity=100 time=0@note_on channel=5 note=71 velocity=0 time=0@note_on channel=5 note=72 velocity=100 time=0@note_on channel=6 note=67 velocity=0 time=0@note_on channel=6 note=69 velocity=100 time=0@note_on channel=0 note=69 velocity=0 time=0.15872999999999998@note_on channel=0 note=67 velocity=100 time=0@note_on channel=2 note=62 velocity=0 time=0@note_on channel=2 note=76 velocity=100 time=0@note_on channel=3 note=71 velocity=0 time=0@note_on channel=3 note=67 velocity=100 time=0@note_on channel=4 note=72 velocity=0 time=0@note_on channel=4 note=74 velocity=100 time=0@note_on channel=5 note=72 velocity=0 time=0@note_on channel=5 note=74 velocity=100 time=0@note_on channel=6 note=69 velocity=0 time=0@note_on channel=6 note=71 velocity=100 time=0@note_on channel=2 note=76 velocity=0 time=0.15872999999999998@note_on channel=2 note=74 velocity=100 time=0@note_on channel=0 note=67 velocity=0 time=0.15872999999999998@note_on channel=0 note=76 velocity=100 time=0@note_on channel=1 note=43 velocity=0 time=0@note_on channel=1 note=45 velocity=100 time=0@note_on channel=2 note=74 velocity=0 time=0@note_on channel=2 note=72 velocity=100 time=0@note_on channel=3 note=67 velocity=0 time=0@note_on channel=3 note=76 velocity=100 time=0@note_on channel=4 note=74 velocity=0 time=0@note_on channel=4 note=76 velocity=100 time=0@note_on channel=5 note=74 velocity=0 time=0@note_on channel=5 note=72 velocity=100 time=0@note_on channel=6 note=71 velocity=0 time=0@note_on channel=6 note=72 velocity=100 time=0@note_on channel=0 note=76 velocity=0 time=0.15872999999999998@note_on channel=0 note=74 velocity=100 time=0@note_on channel=0 note=74 velocity=0 time=0.15872999999999998@note_on channel=0 note=72 velocity=100 time=0@note_on channel=2 note=72 velocity=0 time=0@note_on channel=2 note=71 velocity=100 time=0@note_on channel=3 note=76 velocity=0 time=0@note_on channel=3 note=72 velocity=100 time=0@note_on channel=4 note=76 velocity=0 time=0@note_on channel=4 note=74 velocity=100 time=0@note_on channel=5 note=72 velocity=0 time=0@note_on channel=5 note=71 velocity=100 time=0@note_on channel=0 note=72 velocity=0 time=0.15872999999999998@note_on channel=0 note=71 velocity=100 time=0@note_on channel=6 note=72 velocity=0 time=0@note_on channel=6 note=71 velocity=100 time=0@note_on channel=0 note=71 velocity=0 time=0.15872999999999998@note_on channel=0 note=69 velocity=100 time=0@note_on channel=2 note=71 velocity=0 time=0@note_on channel=2 note=69 velocity=100 time=0@note_on channel=3 note=72 velocity=0 time=0@note_on channel=3 note=69 velocity=100 time=0@note_on channel=4 note=74 velocity=0 time=0@note_on channel=4 note=72 velocity=100 time=0@note_on channel=5 note=71 velocity=0 time=0@note_on channel=5 note=69 velocity=100 time=0@note_on channel=6 note=71 velocity=0 time=0@note_on channel=6 note=69 velocity=100 time=0@note_on channel=0 note=69 velocity=0 time=0.31745999999999996@note_on channel=0 note=71 velocity=100 time=0@note_on channel=1 note=45 velocity=0 time=0@note_on channel=1 note=38 velocity=100 time=0@note_on channel=2 note=69 velocity=0 time=0@note_on channel=2 note=71 velocity=100 time=0@note_on channel=3 note=69 velocity=0 time=0@note_on channel=3 note=71 velocity=100 time=0@note_on channel=4 note=72 velocity=0 time=0@note_on channel=4 note=74 velocity=100 time=0@note_on channel=5 note=69 velocity=0 time=0@note_on channel=5 note=69 velocity=100 time=0@note_on channel=6 note=69 velocity=0 time=0@note_on channel=6 note=72 velocity=100 time=0@note_on channel=3 note=71 velocity=0 time=0.07936499999999999@note_on channel=3 note=72 velocity=100 time=0@note_on channel=5 note=69 velocity=0 time=0@note_on channel=5 note=68 velocity=100 time=0@note_on channel=6 note=72 velocity=0 time=0@note_on channel=6 note=71 velocity=100 time=0@note_on channel=0 note=71 velocity=0 time=0.07936499999999999@note_on channel=0 note=69 velocity=100 time=0@note_on channel=3 note=72 velocity=0 time=0@note_on channel=3 note=71 velocity=100 time=0@note_on channel=5 note=68 velocity=0 time=0@note_on channel=5 note=69 velocity=100 time=0@note_on channel=6 note=71 velocity=0 time=0@note_on channel=6 note=72 velocity=100 time=0@note_on channel=5 note=69 velocity=0 time=0.07936499999999999@note_on channel=5 note=68 velocity=100 time=0@note_on channel=6 note=72 velocity=0 time=0@note_on channel=6 note=71 velocity=100 time=0@note_on channel=0 note=69 velocity=0 time=0.07936499999999999@note_on channel=0 note=68 velocity=100 time=0@note_on channel=2 note=71 velocity=0 time=0@note_on channel=2 note=68 velocity=100 time=0@note_on channel=3 note=71 velocity=0 time=0@note_on channel=3 note=68 velocity=100 time=0@note_on channel=4 note=74 velocity=0 time=0@note_on channel=4 note=72 velocity=100 time=0@note_on channel=4 note=72 velocity=0 time=0.07936499999999999@note_on channel=4 note=71 velocity=100 time=0@note_on channel=0 note=68 velocity=0 time=0.07936499999999999@note_on channel=0 note=66 velocity=100 time=0@note_on channel=4 note=71 velocity=0 time=0@note_on channel=4 note=72 velocity=100 time=0@note_on channel=5 note=68 velocity=0 time=0@note_on channel=5 note=66 velocity=100 time=0@note_on channel=6 note=71 velocity=0 time=0@note_on channel=6 note=69 velocity=100 time=0@note_on channel=4 note=72 velocity=0 time=0.07936499999999999@note_on channel=4 note=71 velocity=100 time=0@note_on channel=0 note=66 velocity=0 time=0.07936499999999999@note_on channel=0 note=64 velocity=100 time=0@note_on channel=2 note=68 velocity=0 time=0@note_on channel=2 note=64 velocity=100 time=0@note_on channel=3 note=68 velocity=0 time=0@note_on channel=3 note=64 velocity=100 time=0@note_on channel=5 note=66 velocity=0 time=0@note_on channel=5 note=68 velocity=100 time=0@note_on channel=6 note=69 velocity=0 time=0@note_on channel=6 note=68 velocity=100 time=0@note_on channel=4 note=71 velocity=0 time=0.15872999999999998@note_on channel=4 note=69 velocity=100 time=0@note_on channel=4 note=69 velocity=0 time=0.07936499999999999@note_on channel=4 note=71 velocity=100 time=0@note_on channel=0 note=64 velocity=0 time=0.07936499999999999@note_on channel=0 note=69 velocity=100 time=0@note_on channel=1 note=38 velocity=0 time=0@note_on channel=1 note=45 velocity=100 time=0@note_on channel=2 note=64 velocity=0 time=0@note_on channel=2 note=69 velocity=100 time=0@note_on channel=3 note=64 velocity=0 time=0@note_on channel=3 note=69 velocity=100 time=0@note_on channel=4 note=71 velocity=0 time=0@note_on channel=4 note=69 velocity=100 time=0@note_on channel=5 note=68 velocity=0 time=0@note_on channel=5 note=69 velocity=100 time=0@note_on channel=6 note=68 velocity=0 time=0@note_on channel=6 note=69 velocity=100 time=0@note_on channel=0 note=69 velocity=0 time=0.9523799999999999@note_on channel=0 note=69 velocity=100 time=0@note_on channel=2 note=69 velocity=0 time=0@note_on channel=2 note=69 velocity=100 time=0@note_on channel=3 note=69 velocity=0 time=0@note_on channel=3 note=69 velocity=100 time=0@note_on channel=4 note=69 velocity=0 time=0@note_on channel=4 note=69 velocity=100 time=0@note_on channel=5 note=69 velocity=0 time=0@note_on channel=5 note=69 velocity=100 time=0@note_on channel=6 note=69 velocity=0 time=0@note_on channel=6 note=69 velocity=100 time=0@note_on channel=0 note=69 velocity=0 time=0.07936499999999999@note_on channel=0 note=68 velocity=100 time=0@note_on channel=0 note=68 velocity=0 time=0.07936499999999999@note_on channel=0 note=69 velocity=100 time=0@note_on channel=0 note=69 velocity=0 time=0.79365@note_on channel=0 note=72 velocity=100 time=0@note_on channel=1 note=45 velocity=0 time=0@note_on channel=1 note=48 velocity=100 time=0@note_on channel=2 note=69 velocity=0 time=0@note_on channel=2 note=69 velocity=100 time=0@note_on channel=3 note=69 velocity=0 time=0@note_on channel=3 note=79 velocity=100 time=0@note_on channel=4 note=69 velocity=0 time=0@note_on channel=4 note=76 velocity=100 time=0@note_on channel=5 note=69 velocity=0 time=0@note_on channel=5 note=79 velocity=100 time=0@note_on channel=6 note=69 velocity=0 time=0@note_on channel=6 note=72 velocity=100 time=0@note_on channel=7 note=72 velocity=100 time=0@note_on channel=0 note=72 velocity=0 time=0.31745999999999996@note_on channel=0 note=69 velocity=100 time=0@note_on channel=2 note=69 velocity=0 time=0@note_on channel=2 note=72 velocity=100 time=0@note_on channel=3 note=79 velocity=0 time=0@note_on channel=3 note=72 velocity=100 time=0@note_on channel=4 note=76 velocity=0 time=0@note_on channel=4 note=72 velocity=100 time=0@note_on channel=6 note=72 velocity=0 time=0.15872999999999998@note_on channel=6 note=74 velocity=100 time=0@note_on channel=0 note=69 velocity=0 time=0.15872999999999998@note_on channel=0 note=71 velocity=100 time=0@note_on channel=2 note=72 velocity=0 time=0@note_on channel=2 note=69 velocity=100 time=0@note_on channel=3 note=72 velocity=0 time=0@note_on channel=3 note=81 velocity=100 time=0@note_on channel=4 note=72 velocity=0 time=0@note_on channel=4 note=69 velocity=100 time=0@note_on channel=5 note=79 velocity=0 time=0@note_on channel=5 note=79 velocity=100 time=0@note_on channel=6 note=74 velocity=0 time=0@note_on channel=6 note=76 velocity=100 time=0@note_on channel=7 note=72 velocity=0 time=0@note_on channel=7 note=74 velocity=100 time=0@note_on channel=0 note=71 velocity=0 time=0.31745999999999996@note_on channel=0 note=72 velocity=100 time=0@note_on channel=1 note=48 velocity=0 time=0@note_on channel=1 note=40 velocity=100 time=0@note_on channel=2 note=69 velocity=0 time=0@note_on channel=2 note=76 velocity=100 time=0@note_on channel=3 note=81 velocity=0 time=0@note_on channel=3 note=81 velocity=100 time=0@note_on channel=4 note=69 velocity=0 time=0@note_on channel=4 note=76 velocity=100 time=0@note_on channel=5 note=79 velocity=0 time=0@note_on channel=5 note=79 velocity=100 time=0@note_on channel=6 note=76 velocity=0 time=0@note_on channel=6 note=76 velocity=100 time=0@note_on channel=7 note=74 velocity=0 time=0@note_on channel=7 note=76 velocity=100 time=0@note_on channel=3 note=81 velocity=0 time=0.07936499999999999@note_on channel=3 note=79 velocity=100 time=0@note_on channel=2 note=76 velocity=0 time=0.07936499999999999@note_on channel=2 note=74 velocity=100 time=0@note_on channel=3 note=79 velocity=0 time=0@note_on channel=3 note=81 velocity=100 time=0@note_on channel=3 note=81 velocity=0 time=0.07936499999999999@note_on channel=3 note=79 velocity=100 time=0@note_on channel=0 note=72 velocity=0 time=0.07936499999999999@note_on channel=0 note=74 velocity=100 time=0@note_on channel=2 note=74 velocity=0 time=0@note_on channel=2 note=72 velocity=100 time=0@note_on channel=4 note=76 velocity=0 time=0@note_on channel=4 note=72 velocity=100 time=0@note_on channel=5 note=79 velocity=0 time=0@note_on channel=5 note=77 velocity=100 time=0@note_on channel=2 note=72 velocity=0 time=0.15872999999999998@note_on channel=2 note=71 velocity=100 time=0@note_on channel=3 note=79 velocity=0 time=0@note_on channel=3 note=77 velocity=100 time=0@note_on channel=6 note=76 velocity=0 time=0@note_on channel=6 note=77 velocity=100 time=0@note_on channel=0 note=74 velocity=0 time=0.15872999999999998@note_on channel=0 note=76 velocity=100 time=0@note_on channel=2 note=71 velocity=0 time=0@note_on channel=2 note=69 velocity=100 time=0@note_on channel=3 note=77 velocity=0 time=0@note_on channel=3 note=76 velocity=100 time=0@note_on channel=4 note=72 velocity=0 time=0@note_on channel=4 note=69 velocity=100 time=0@note_on channel=5 note=77 velocity=0 time=0@note_on channel=5 note=76 velocity=100 time=0@note_on channel=6 note=77 velocity=0 time=0@note_on channel=6 note=76 velocity=100 time=0@note_on channel=7 note=76 velocity=0 time=0@note_on channel=7 note=76 velocity=100 time=0@note_on channel=0 note=76 velocity=0 time=0.31745999999999996@note_on channel=0 note=71 velocity=100 time=0@note_on channel=1 note=40 velocity=0 time=0@note_on channel=1 note=50 velocity=100 time=0@note_on channel=2 note=69 velocity=0 time=0@note_on channel=2 note=67 velocity=100 time=0@note_on channel=3 note=76 velocity=0 time=0@note_on channel=3 note=74 velocity=100 time=0@note_on channel=4 note=69 velocity=0 time=0@note_on channel=4 note=74 velocity=100 time=0@note_on channel=5 note=76 velocity=0 time=0@note_on channel=5 note=74 velocity=100 time=0@note_on channel=6 note=76 velocity=0 time=0@note_on channel=6 note=74 velocity=100 time=0@note_on channel=7 note=76 velocity=0 time=0@note_on channel=7 note=74 velocity=100 time=0@note_on channel=0 note=71 velocity=0 time=0.31745999999999996@note_on channel=0 note=67 velocity=100 time=0@note_on channel=2 note=67 velocity=0 time=0@note_on channel=2 note=71 velocity=100 time=0@note_on channel=3 note=74 velocity=0 time=0@note_on channel=3 note=71 velocity=100 time=0@note_on channel=4 note=74 velocity=0 time=0@note_on channel=4 note=71 velocity=100 time=0@note_on channel=6 note=74 velocity=0 time=0.15872999999999998@note_on channel=6 note=76 velocity=100 time=0@note_on channel=0 note=67 velocity=0 time=0.15872999999999998@note_on channel=0 note=69 velocity=100 time=0@note_on channel=2 note=71 velocity=0 time=0@note_on channel=2 note=67 velocity=100 time=0@note_on channel=3 note=71 velocity=0 time=0@note_on channel=3 note=67 velocity=100 time=0@note_on channel=4 note=71 velocity=0 time=0@note_on channel=4 note=67 velocity=100 time=0@note_on channel=5 note=74 velocity=0 time=0@note_on channel=5 note=74 velocity=100 time=0@note_on channel=6 note=76 velocity=0 time=0@note_on channel=6 note=74 velocity=100 time=0@note_on channel=7 note=74 velocity=0 time=0@note_on channel=7 note=71 velocity=100 time=0@note_on channel=0 note=69 velocity=0 time=0.31745999999999996@note_on channel=0 note=71 velocity=100 time=0@note_on channel=1 note=50 velocity=0 time=0@note_on channel=1 note=43 velocity=100 time=0@note_on channel=2 note=67 velocity=0 time=0@note_on channel=2 note=74 velocity=100 time=0@note_on channel=3 note=67 velocity=0 time=0@note_on channel=3 note=74 velocity=100 time=0@note_on channel=4 note=67 velocity=0 time=0@note_on channel=4 note=74 velocity=100 time=0@note_on channel=5 note=74 velocity=0 time=0@note_on channel=5 note=71 velocity=100 time=0@note_on channel=6 note=74 velocity=0 time=0@note_on channel=6 note=71 velocity=100 time=0@note_on channel=7 note=71 velocity=0 time=0@note_on channel=7 note=67 velocity=100 time=0@note_on channel=2 note=74 velocity=0 time=0.15872999999999998@note_on channel=2 note=72 velocity=100 time=0@note_on channel=0 note=71 velocity=0 time=0.15872999999999998@note_on channel=0 note=72 velocity=100 time=0@note_on channel=2 note=72 velocity=0 time=0@note_on channel=2 note=71 velocity=100 time=0@note_on channel=3 note=74 velocity=0 time=0@note_on channel=3 note=62 velocity=100 time=0@note_on channel=4 note=74 velocity=0 time=0@note_on channel=4 note=71 velocity=100 time=0@note_on channel=5 note=71 velocity=0 time=0@note_on channel=5 note=72 velocity=100 time=0@note_on channel=2 note=71 velocity=0 time=0.15872999999999998@note_on channel=2 note=69 velocity=100 time=0@note_on channel=6 note=71 velocity=0 time=0@note_on channel=6 note=72 velocity=100 time=0@note_on channel=0 note=72 velocity=0 time=0.15872999999999998@note_on channel=0 note=74 velocity=100 time=0@note_on channel=2 note=69 velocity=0 time=0@note_on channel=2 note=67 velocity=100 time=0@note_on channel=3 note=62 velocity=0 time=0@note_on channel=3 note=77 velocity=100 time=0@note_on channel=4 note=71 velocity=0 time=0@note_on channel=4 note=67 velocity=100 time=0@note_on channel=5 note=72 velocity=0 time=0@note_on channel=5 note=74 velocity=100 time=0@note_on channel=6 note=72 velocity=0 time=0@note_on channel=6 note=74 velocity=100 time=0@note_on channel=3 note=77 velocity=0 time=0.15872999999999998@note_on channel=3 note=79 velocity=100 time=0@note_on channel=0 note=74 velocity=0 time=0.15872999999999998@note_on channel=0 note=72 velocity=100 time=0@note_on channel=1 note=43 velocity=0 time=0@note_on channel=1 note=45 velocity=100 time=0@note_on channel=2 note=67 velocity=0 time=0@note_on channel=2 note=69 velocity=100 time=0@note_on channel=3 note=79 velocity=0 time=0@note_on channel=3 note=81 velocity=100 time=0@note_on channel=4 note=67 velocity=0 time=0@note_on channel=4 note=76 velocity=100 time=0@note_on channel=5 note=74 velocity=0 time=0@note_on channel=5 note=72 velocity=100 time=0@note_on channel=6 note=74 velocity=0 time=0@note_on channel=6 note=72 velocity=100 time=0@note_on channel=7 note=67 velocity=0 time=0@note_on channel=7 note=69 velocity=100 time=0@note_on channel=0 note=72 velocity=0 time=0.31745999999999996@note_on channel=0 note=69 velocity=100 time=0@note_on channel=2 note=69 velocity=0 time=0@note_on channel=2 note=72 velocity=100 time=0@note_on channel=3 note=81 velocity=0 time=0@note_on channel=3 note=69 velocity=100 time=0@note_on channel=4 note=76 velocity=0 time=0@note_on channel=4 note=72 velocity=100 time=0@note_on channel=6 note=72 velocity=0 time=0.15872999999999998@note_on channel=6 note=71 velocity=100 time=0@note_on channel=7 note=69 velocity=0 time=0@note_on channel=7 note=71 velocity=100 time=0@note_on channel=0 note=69 velocity=0 time=0.15872999999999998@note_on channel=0 note=71 velocity=100 time=0@note_on channel=2 note=72 velocity=0 time=0@note_on channel=2 note=69 velocity=100 time=0@note_on channel=3 note=69 velocity=0 time=0@note_on channel=3 note=83 velocity=100 time=0@note_on channel=4 note=72 velocity=0 time=0@note_on channel=4 note=69 velocity=100 time=0@note_on channel=5 note=72 velocity=0 time=0@note_on channel=5 note=72 velocity=100 time=0@note_on channel=6 note=71 velocity=0 time=0@note_on channel=6 note=72 velocity=100 time=0@note_on channel=7 note=71 velocity=0 time=0@note_on channel=7 note=72 velocity=100 time=0@note_on channel=0 note=71 velocity=0 time=0.31745999999999996@note_on channel=0 note=72 velocity=100 time=0@note_on channel=1 note=45 velocity=0 time=0@note_on channel=1 note=38 velocity=100 time=0@note_on channel=2 note=69 velocity=0 time=0@note_on channel=2 note=76 velocity=100 time=0@note_on channel=3 note=83 velocity=0 time=0@note_on channel=3 note=84 velocity=100 time=0@note_on channel=4 note=69 velocity=0 time=0@note_on channel=4 note=76 velocity=100 time=0@note_on channel=5 note=72 velocity=0 time=0@note_on channel=5 note=69 velocity=100 time=0@note_on channel=6 note=72 velocity=0 time=0@note_on channel=6 note=69 velocity=100 time=0@note_on channel=7 note=72 velocity=0 time=0@note_on channel=7 note=74 velocity=100 time=0@note_on channel=2 note=76 velocity=0 time=0.15872999999999998@note_on channel=2 note=74 velocity=100 time=0@note_on channel=0 note=72 velocity=0 time=0.15872999999999998@note_on channel=0 note=74 velocity=100 time=0@note_on channel=2 note=74 velocity=0 time=0@note_on channel=2 note=72 velocity=100 time=0@note_on channel=3 note=84 velocity=0 time=0@note_on channel=3 note=83 velocity=100 time=0@note_on channel=4 note=76 velocity=0 time=0@note_on channel=4 note=72 velocity=100 time=0@note_on channel=5 note=69 velocity=0 time=0@note_on channel=5 note=71 velocity=100 time=0@note_on channel=7 note=74 velocity=0 time=0@note_on channel=7 note=76 velocity=100 time=0@note_on channel=2 note=72 velocity=0 time=0.15872999999999998@note_on channel=2 note=71 velocity=100 time=0@note_on channel=6 note=69 velocity=0 time=0@note_on channel=6 note=71 velocity=100 time=0@note_on channel=0 note=74 velocity=0 time=0.15872999999999998@note_on channel=0 note=76 velocity=100 time=0@note_on channel=2 note=71 velocity=0 time=0@note_on channel=2 note=69 velocity=100 time=0@note_on channel=3 note=83 velocity=0 time=0@note_on channel=3 note=81 velocity=100 time=0@note_on channel=4 note=72 velocity=0 time=0@note_on channel=4 note=69 velocity=100 time=0@note_on channel=5 note=71 velocity=0 time=0@note_on channel=5 note=72 velocity=100 time=0@note_on channel=6 note=71 velocity=0 time=0@note_on channel=6 note=72 velocity=100 time=0@note_on channel=7 note=76 velocity=0 time=0@note_on channel=7 note=72 velocity=100 time=0@note_on channel=0 note=76 velocity=0 time=0.31745999999999996@note_on channel=0 note=71 velocity=100 time=0@note_on channel=1 note=38 velocity=0 time=0@note_on channel=1 note=47 velocity=100 time=0@note_on channel=2 note=69 velocity=0 time=0@note_on channel=2 note=64 velocity=100 time=0@note_on channel=3 note=81 velocity=0 time=0@note_on channel=3 note=80 velocity=100 time=0@note_on channel=4 note=69 velocity=0 time=0@note_on channel=4 note=71 velocity=100 time=0@note_on channel=5 note=72 velocity=0 time=0@note_on channel=5 note=71 velocity=100 time=0@note_on channel=6 note=72 velocity=0 time=0@note_on channel=6 note=71 velocity=100 time=0@note_on channel=7 note=72 velocity=0 time=0@note_on channel=7 note=71 velocity=100 time=0@note_on channel=2 note=64 velocity=0 time=0.31745999999999996@note_on channel=2 note=68 velocity=100 time=0@note_on channel=3 note=80 velocity=0 time=0@note_on channel=3 note=76 velocity=100 time=0@note_on channel=4 note=71 velocity=0 time=0@note_on channel=4 note=68 velocity=100 time=0@note_on channel=6 note=71 velocity=0 time=0.15872999999999998@note_on channel=6 note=69 velocity=100 time=0@note_on channel=0 note=71 velocity=0 time=0.15872999999999998@note_on channel=0 note=68 velocity=100 time=0@note_on channel=2 note=68 velocity=0 time=0@note_on channel=2 note=64 velocity=100 time=0@note_on channel=3 note=76 velocity=0 time=0@note_on channel=3 note=71 velocity=100 time=0@note_on channel=4 note=68 velocity=0 time=0@note_on channel=4 note=64 velocity=100 time=0@note_on channel=5 note=71 velocity=0 time=0@note_on channel=5 note=71 velocity=100 time=0@note_on channel=6 note=69 velocity=0 time=0@note_on channel=6 note=71 velocity=100 time=0@note_on channel=7 note=71 velocity=0 time=0@note_on channel=7 note=68 velocity=100 time=0@note_on channel=0 note=68 velocity=0 time=0.31745999999999996@note_on channel=0 note=64 velocity=100 time=0@note_on channel=1 note=47 velocity=0 time=0@note_on channel=1 note=40 velocity=100 time=0@note_on channel=2 note=64 velocity=0 time=0@note_on channel=2 note=71 velocity=100 time=0@note_on channel=3 note=71 velocity=0 time=0@note_on channel=3 note=76 velocity=100 time=0@note_on channel=4 note=64 velocity=0 time=0@note_on channel=4 note=71 velocity=100 time=0@note_on channel=5 note=71 velocity=0 time=0@note_on channel=5 note=68 velocity=100 time=0@note_on channel=6 note=71 velocity=0 time=0@note_on channel=6 note=68 velocity=100 time=0@note_on channel=7 note=68 velocity=0 time=0@note_on channel=7 note=64 velocity=100 time=0@note_on channel=2 note=71 velocity=0 time=0.15872999999999998@note_on channel=2 note=69 velocity=100 time=0@note_on channel=2 note=69 velocity=0 time=0.15872999999999998@note_on channel=2 note=68 velocity=100 time=0@note_on channel=3 note=76 velocity=0 time=0@note_on channel=3 note=77 velocity=100 time=0@note_on channel=4 note=71 velocity=0 time=0@note_on channel=4 note=68 velocity=100 time=0@note_on channel=5 note=68 velocity=0 time=0@note_on channel=5 note=69 velocity=100 time=0@note_on channel=3 note=77 velocity=0 time=0.07936499999999999@note_on channel=3 note=76 velocity=100 time=0@note_on channel=2 note=68 velocity=0 time=0.07936499999999999@note_on channel=2 note=66 velocity=100 time=0@note_on channel=3 note=76 velocity=0 time=0@note_on channel=3 note=77 velocity=100 time=0@note_on channel=6 note=68 velocity=0 time=0@note_on channel=6 note=69 velocity=100 time=0@note_on channel=3 note=77 velocity=0 time=0.07936499999999999@note_on channel=3 note=76 velocity=100 time=0@note_on channel=2 note=66 velocity=0 time=0.07936499999999999@note_on channel=2 note=64 velocity=100 time=0@note_on channel=4 note=68 velocity=0 time=0@note_on channel=4 note=64 velocity=100 time=0@note_on channel=5 note=69 velocity=0 time=0@note_on channel=5 note=71 velocity=100 time=0@note_on channel=6 note=69 velocity=0 time=0@note_on channel=6 note=71 velocity=100 time=0@note_on channel=3 note=76 velocity=0 time=0.15872999999999998@note_on channel=3 note=77 velocity=100 time=0@note_on channel=0 note=64 velocity=0 time=0.15872999999999998@note_on channel=0 note=76 velocity=100 time=0@note_on channel=1 note=40 velocity=0 time=0@note_on channel=1 note=48 velocity=100 time=0@note_on channel=2 note=64 velocity=0 time=0@note_on channel=2 note=72 velocity=100 time=0@note_on channel=3 note=77 velocity=0 time=0@note_on channel=3 note=79 velocity=100 time=0@note_on channel=4 note=64 velocity=0 time=0@note_on channel=4 note=79 velocity=100 time=0@note_on channel=5 note=71 velocity=0 time=0@note_on channel=5 note=79 velocity=100 time=0@note_on channel=6 note=71 velocity=0 time=0@note_on channel=6 note=72 velocity=100 time=0@note_on channel=7 note=64 velocity=0 time=0@note_on channel=7 note=72 velocity=100 time=0@note_on channel=4 note=79 velocity=0 time=0.07936499999999999@note_on channel=4 note=81 velocity=100 time=0@note_on channel=4 note=81 velocity=0 time=0.07936499999999999@note_on channel=4 note=79 velocity=100 time=0@note_on channel=0 note=76 velocity=0 time=0.15872999999999998@note_on channel=0 note=72 velocity=100 time=0@note_on channel=2 note=72 velocity=0 time=0@note_on channel=2 note=76 velocity=100 time=0@note_on channel=3 note=79 velocity=0 time=0@note_on channel=3 note=72 velocity=100 time=0@note_on channel=4 note=79 velocity=0 time=0@note_on channel=4 note=76 velocity=100 time=0@note_on channel=6 note=72 velocity=0 time=0.15872999999999998@note_on channel=6 note=74 velocity=100 time=0@note_on channel=0 note=72 velocity=0 time=0.15872999999999998@note_on channel=0 note=74 velocity=100 time=0@note_on channel=2 note=76 velocity=0 time=0@note_on channel=2 note=72 velocity=100 time=0@note_on channel=3 note=72 velocity=0 time=0@note_on channel=3 note=81 velocity=100 time=0@note_on channel=4 note=76 velocity=0 time=0@note_on channel=4 note=72 velocity=100 time=0@note_on channel=5 note=79 velocity=0 time=0@note_on channel=5 note=79 velocity=100 time=0@note_on channel=6 note=74 velocity=0 time=0@note_on channel=6 note=76 velocity=100 time=0@note_on channel=7 note=72 velocity=0 time=0@note_on channel=7 note=74 velocity=100 time=0@note_on channel=0 note=74 velocity=0 time=0.31745999999999996@note_on channel=0 note=76 velocity=100 time=0@note_on channel=1 note=48 velocity=0 time=0@note_on channel=1 note=40 velocity=100 time=0@note_on channel=2 note=72 velocity=0 time=0@note_on channel=2 note=79 velocity=100 time=0@note_on channel=3 note=81 velocity=0 time=0@note_on channel=3 note=81 velocity=100 time=0@note_on channel=4 note=72 velocity=0 time=0@note_on channel=4 note=79 velocity=100 time=0@note_on channel=5 note=79 velocity=0 time=0@note_on channel=5 note=79 velocity=100 time=0@note_on channel=6 note=76 velocity=0 time=0@note_on channel=6 note=76 velocity=100 time=0@note_on channel=7 note=74 velocity=0 time=0@note_on channel=7 note=76 velocity=100 time=0@note_on channel=3 note=81 velocity=0 time=0.07936499999999999@note_on channel=3 note=79 velocity=100 time=0@note_on channel=4 note=79 velocity=0 time=0@note_on channel=4 note=81 velocity=100 time=0@note_on channel=2 note=79 velocity=0 time=0.07936499999999999@note_on channel=2 note=77 velocity=100 time=0@note_on channel=3 note=79 velocity=0 time=0@note_on channel=3 note=81 velocity=100 time=0@note_on channel=4 note=81 velocity=0 time=0@note_on channel=4 note=79 velocity=100 time=0@note_on channel=3 note=81 velocity=0 time=0.07936499999999999@note_on channel=3 note=79 velocity=100 time=0@note_on channel=0 note=76 velocity=0 time=0.07936499999999999@note_on channel=0 note=77 velocity=100 time=0@note_on channel=2 note=77 velocity=0 time=0@note_on channel=2 note=76 velocity=100 time=0@note_on channel=4 note=79 velocity=0 time=0@note_on channel=4 note=76 velocity=100 time=0@note_on channel=5 note=79 velocity=0 time=0@note_on channel=5 note=77 velocity=100 time=0@note_on channel=2 note=76 velocity=0 time=0.15872999999999998@note_on channel=2 note=74 velocity=100 time=0@note_on channel=3 note=79 velocity=0 time=0@note_on channel=3 note=77 velocity=100 time=0@note_on channel=6 note=76 velocity=0 time=0@note_on channel=6 note=77 velocity=100 time=0@note_on channel=7 note=76 velocity=0 time=0@note_on channel=7 note=74 velocity=100 time=0@note_on channel=0 note=77 velocity=0 time=0.15872999999999998@note_on channel=0 note=79 velocity=100 time=0@note_on channel=2 note=74 velocity=0 time=0@note_on channel=2 note=72 velocity=100 time=0@note_on channel=3 note=77 velocity=0 time=0@note_on channel=3 note=76 velocity=100 time=0@note_on channel=4 note=76 velocity=0 time=0@note_on channel=4 note=72 velocity=100 time=0@note_on channel=5 note=77 velocity=0 time=0@note_on channel=5 note=76 velocity=100 time=0@note_on channel=6 note=77 velocity=0 time=0@note_on channel=6 note=79 velocity=100 time=0@note_on channel=7 note=74 velocity=0 time=0@note_on channel=7 note=72 velocity=100 time=0@note_on channel=0 note=79 velocity=0 time=0.31745999999999996@note_on channel=0 note=71 velocity=100 time=0@note_on channel=1 note=40 velocity=0 time=0@note_on channel=1 note=50 velocity=100 time=0@note_on channel=2 note=72 velocity=0 time=0@note_on channel=2 note=67 velocity=100 time=0@note_on channel=3 note=76 velocity=0 time=0@note_on channel=3 note=74 velocity=100 time=0@note_on channel=4 note=72 velocity=0 time=0@note_on channel=4 note=74 velocity=100 time=0@note_on channel=5 note=76 velocity=0 time=0@note_on channel=5 note=74 velocity=100 time=0@note_on channel=6 note=79 velocity=0 time=0@note_on channel=6 note=74 velocity=100 time=0@note_on channel=7 note=72 velocity=0 time=0@note_on channel=7 note=74 velocity=100 time=0@note_on channel=4 note=74 velocity=0 time=0.07936499999999999@note_on channel=4 note=72 velocity=100 time=0@note_on channel=4 note=72 velocity=0 time=0.07936499999999999@note_on channel=4 note=74 velocity=100 time=0@note_on channel=0 note=71 velocity=0 time=0.15872999999999998@note_on channel=0 note=67 velocity=100 time=0@note_on channel=2 note=67 velocity=0 time=0@note_on channel=2 note=71 velocity=100 time=0@note_on channel=3 note=74 velocity=0 time=0@note_on channel=3 note=71 velocity=100 time=0@note_on channel=4 note=74 velocity=0 time=0@note_on channel=4 note=71 velocity=100 time=0@note_on channel=6 note=74 velocity=0 time=0.15872999999999998@note_on channel=6 note=76 velocity=100 time=0@note_on channel=0 note=67 velocity=0 time=0.15872999999999998@note_on channel=0 note=69 velocity=100 time=0@note_on channel=2 note=71 velocity=0 time=0@note_on channel=2 note=67 velocity=100 time=0@note_on channel=3 note=71 velocity=0 time=0@note_on channel=3 note=67 velocity=100 time=0@note_on channel=4 note=71 velocity=0 time=0@note_on channel=4 note=67 velocity=100 time=0@note_on channel=5 note=74 velocity=0 time=0@note_on channel=5 note=74 velocity=100 time=0@note_on channel=6 note=76 velocity=0 time=0@note_on channel=6 note=74 velocity=100 time=0@note_on channel=7 note=74 velocity=0 time=0@note_on channel=7 note=71 velocity=100 time=0@note_on channel=0 note=69 velocity=0 time=0.31745999999999996@note_on channel=0 note=71 velocity=100 time=0@note_on channel=1 note=50 velocity=0 time=0@note_on channel=1 note=43 velocity=100 time=0@note_on channel=2 note=67 velocity=0 time=0@note_on channel=2 note=74 velocity=100 time=0@note_on channel=3 note=67 velocity=0 time=0@note_on channel=3 note=74 velocity=100 time=0@note_on channel=4 note=67 velocity=0 time=0@note_on channel=4 note=74 velocity=100 time=0@note_on channel=5 note=74 velocity=0 time=0@note_on channel=5 note=71 velocity=100 time=0@note_on channel=6 note=74 velocity=0 time=0@note_on channel=6 note=71 velocity=100 time=0@note_on channel=7 note=71 velocity=0 time=0@note_on channel=7 note=67 velocity=100 time=0@note_on channel=4 note=74 velocity=0 time=0.07936499999999999@note_on channel=4 note=72 velocity=100 time=0@note_on channel=2 note=74 velocity=0 time=0.07936499999999999@note_on channel=2 note=72 velocity=100 time=0@note_on channel=4 note=72 velocity=0 time=0@note_on channel=4 note=74 velocity=100 time=0@note_on channel=0 note=71 velocity=0 time=0.15872999999999998@note_on channel=0 note=72 velocity=100 time=0@note_on channel=2 note=72 velocity=0 time=0@note_on channel=2 note=71 velocity=100 time=0@note_on channel=3 note=74 velocity=0 time=0@note_on channel=3 note=62 velocity=100 time=0@note_on channel=4 note=74 velocity=0 time=0@note_on channel=4 note=71 velocity=100 time=0@note_on channel=5 note=71 velocity=0 time=0@note_on channel=5 note=72 velocity=100 time=0@note_on channel=2 note=71 velocity=0 time=0.15872999999999998@note_on channel=2 note=69 velocity=100 time=0@note_on channel=6 note=71 velocity=0 time=0@note_on channel=6 note=72 velocity=100 time=0@note_on channel=7 note=67 velocity=0 time=0@note_on channel=7 note=69 velocity=100 time=0@note_on channel=0 note=72 velocity=0 time=0.15872999999999998@note_on channel=0 note=74 velocity=100 time=0@note_on channel=2 note=69 velocity=0 time=0@note_on channel=2 note=67 velocity=100 time=0@note_on channel=3 note=62 velocity=0 time=0@note_on channel=3 note=76 velocity=100 time=0@note_on channel=4 note=71 velocity=0 time=0@note_on channel=4 note=67 velocity=100 time=0@note_on channel=5 note=72 velocity=0 time=0@note_on channel=5 note=74 velocity=100 time=0@note_on channel=6 note=72 velocity=0 time=0@note_on channel=6 note=74 velocity=100 time=0@note_on channel=7 note=69 velocity=0 time=0@note_on channel=7 note=71 velocity=100 time=0@note_on channel=3 note=76 velocity=0 time=0.15872999999999998@note_on channel=3 note=74 velocity=100 time=0@note_on channel=0 note=74 velocity=0 time=0.15872999999999998@note_on channel=0 note=72 velocity=100 time=0@note_on channel=1 note=43 velocity=0 time=0@note_on channel=1 note=45 velocity=100 time=0@note_on channel=2 note=67 velocity=0 time=0@note_on channel=2 note=76 velocity=100 time=0@note_on channel=3 note=74 velocity=0 time=0@note_on channel=3 note=72 velocity=100 time=0@note_on channel=4 note=67 velocity=0 time=0@note_on channel=4 note=76 velocity=100 time=0@note_on channel=5 note=74 velocity=0 time=0@note_on channel=5 note=76 velocity=100 time=0@note_on channel=6 note=74 velocity=0 time=0@note_on channel=6 note=72 velocity=100 time=0@note_on channel=7 note=71 velocity=0 time=0@note_on channel=7 note=72 velocity=100 time=0@note_on channel=0 note=72 velocity=0 time=0.07936499999999999@note_on channel=0 note=74 velocity=100 time=0@note_on channel=0 note=74 velocity=0 time=0.07936499999999999@note_on channel=0 note=72 velocity=100 time=0@note_on channel=2 note=76 velocity=0 time=0@note_on channel=2 note=74 velocity=100 time=0@note_on channel=0 note=72 velocity=0 time=0.15872999999999998@note_on channel=0 note=69 velocity=100 time=0@note_on channel=2 note=74 velocity=0 time=0@note_on channel=2 note=72 velocity=100 time=0@note_on channel=3 note=72 velocity=0 time=0@note_on channel=3 note=71 velocity=100 time=0@note_on channel=4 note=76 velocity=0 time=0@note_on channel=4 note=72 velocity=100 time=0@note_on channel=5 note=76 velocity=0 time=0@note_on channel=5 note=74 velocity=100 time=0@note_on channel=6 note=72 velocity=0 time=0@note_on channel=6 note=71 velocity=100 time=0@note_on channel=2 note=72 velocity=0 time=0.15872999999999998@note_on channel=2 note=71 velocity=100 time=0@note_on channel=7 note=72 velocity=0 time=0@note_on channel=7 note=71 velocity=100 time=0@note_on channel=0 note=69 velocity=0 time=0.15872999999999998@note_on channel=0 note=72 velocity=100 time=0@note_on channel=2 note=71 velocity=0 time=0@note_on channel=2 note=69 velocity=100 time=0@note_on channel=3 note=71 velocity=0 time=0@note_on channel=3 note=69 velocity=100 time=0@note_on channel=4 note=72 velocity=0 time=0@note_on channel=4 note=69 velocity=100 time=0@note_on channel=5 note=74 velocity=0 time=0@note_on channel=5 note=72 velocity=100 time=0@note_on channel=6 note=71 velocity=0 time=0@note_on channel=6 note=69 velocity=100 time=0@note_on channel=7 note=71 velocity=0 time=0@note_on channel=7 note=69 velocity=100 time=0@note_on channel=0 note=72 velocity=0 time=0.31745999999999996@note_on channel=0 note=71 velocity=100 time=0@note_on channel=1 note=45 velocity=0 time=0@note_on channel=1 note=38 velocity=100 time=0@note_on channel=2 note=69 velocity=0 time=0@note_on channel=2 note=71 velocity=100 time=0@note_on channel=3 note=69 velocity=0 time=0@note_on channel=3 note=71 velocity=100 time=0@note_on channel=4 note=69 velocity=0 time=0@note_on channel=4 note=71 velocity=100 time=0@note_on channel=5 note=72 velocity=0 time=0@note_on channel=5 note=74 velocity=100 time=0@note_on channel=6 note=69 velocity=0 time=0@note_on channel=6 note=69 velocity=100 time=0@note_on channel=7 note=69 velocity=0 time=0@note_on channel=7 note=72 velocity=100 time=0@note_on channel=0 note=71 velocity=0 time=0.07936499999999999@note_on channel=0 note=72 velocity=100 time=0@note_on channel=4 note=71 velocity=0 time=0@note_on channel=4 note=72 velocity=100 time=0@note_on channel=6 note=69 velocity=0 time=0@note_on channel=6 note=68 velocity=100 time=0@note_on channel=7 note=72 velocity=0 time=0@note_on channel=7 note=71 velocity=100 time=0@note_on channel=0 note=72 velocity=0 time=0.07936499999999999@note_on channel=0 note=71 velocity=100 time=0@note_on channel=2 note=71 velocity=0 time=0@note_on channel=2 note=69 velocity=100 time=0@note_on channel=4 note=72 velocity=0 time=0@note_on channel=4 note=71 velocity=100 time=0@note_on channel=6 note=68 velocity=0 time=0@note_on channel=6 note=69 velocity=100 time=0@note_on channel=7 note=71 velocity=0 time=0@note_on channel=7 note=72 velocity=100 time=0@note_on channel=6 note=69 velocity=0 time=0.07936499999999999@note_on channel=6 note=68 velocity=100 time=0@note_on channel=7 note=72 velocity=0 time=0@note_on channel=7 note=71 velocity=100 time=0@note_on channel=0 note=71 velocity=0 time=0.07936499999999999@note_on channel=0 note=68 velocity=100 time=0@note_on channel=2 note=69 velocity=0 time=0@note_on channel=2 note=68 velocity=100 time=0@note_on channel=3 note=71 velocity=0 time=0@note_on channel=3 note=68 velocity=100 time=0@note_on channel=4 note=71 velocity=0 time=0@note_on channel=4 note=68 velocity=100 time=0@note_on channel=5 note=74 velocity=0 time=0@note_on channel=5 note=72 velocity=100 time=0@note_on channel=5 note=72 velocity=0 time=0.07936499999999999@note_on channel=5 note=71 velocity=100 time=0@note_on channel=2 note=68 velocity=0 time=0.07936499999999999@note_on channel=2 note=66 velocity=100 time=0@note_on channel=5 note=71 velocity=0 time=0@note_on channel=5 note=72 velocity=100 time=0@note_on channel=6 note=68 velocity=0 time=0@note_on channel=6 note=66 velocity=100 time=0@note_on channel=7 note=71 velocity=0 time=0@note_on channel=7 note=69 velocity=100 time=0@note_on channel=5 note=72 velocity=0 time=0.07936499999999999@note_on channel=5 note=71 velocity=100 time=0@note_on channel=0 note=68 velocity=0 time=0.07936499999999999@note_on channel=0 note=64 velocity=100 time=0@note_on channel=2 note=66 velocity=0 time=0@note_on channel=2 note=64 velocity=100 time=0@note_on channel=3 note=68 velocity=0 time=0@note_on channel=3 note=64 velocity=100 time=0@note_on channel=4 note=68 velocity=0 time=0@note_on channel=4 note=64 velocity=100 time=0@note_on channel=6 note=66 velocity=0 time=0@note_on channel=6 note=68 velocity=100 time=0@note_on channel=7 note=69 velocity=0 time=0@note_on channel=7 note=68 velocity=100 time=0@note_on channel=5 note=71 velocity=0 time=0.15872999999999998@note_on channel=5 note=69 velocity=100 time=0@note_on channel=5 note=69 velocity=0 time=0.07936499999999999@note_on channel=5 note=71 velocity=100 time=0@note_on channel=0 note=64 velocity=0 time=0.07936499999999999@note_on channel=0 note=69 velocity=100 time=0@note_on channel=1 note=38 velocity=0 time=0@note_on channel=1 note=45 velocity=100 time=0@note_on channel=2 note=64 velocity=0 time=0@note_on channel=2 note=69 velocity=100 time=0@note_on channel=3 note=64 velocity=0 time=0@note_on channel=3 note=69 velocity=100 time=0@note_on channel=4 note=64 velocity=0 time=0@note_on channel=4 note=69 velocity=100 time=0@note_on channel=5 note=71 velocity=0 time=0@note_on channel=5 note=69 velocity=100 time=0@note_on channel=6 note=68 velocity=0 time=0@note_on channel=6 note=69 velocity=100 time=0@note_on channel=7 note=68 velocity=0 time=0@note_on channel=7 note=69 velocity=100 time=0@note_on channel=0 note=69 velocity=0 time=0.9523799999999999@note_on channel=0 note=69 velocity=100 time=0@note_on channel=2 note=69 velocity=0 time=0@note_on channel=2 note=69 velocity=100 time=0@note_on channel=3 note=69 velocity=0 time=0@note_on channel=3 note=69 velocity=100 time=0@note_on channel=4 note=69 velocity=0 time=0@note_on channel=4 note=69 velocity=100 time=0@note_on channel=5 note=69 velocity=0 time=0@note_on channel=5 note=69 velocity=100 time=0@note_on channel=6 note=69 velocity=0 time=0@note_on channel=6 note=69 velocity=100 time=0@note_on channel=7 note=69 velocity=0 time=0@note_on channel=7 note=69 velocity=100 time=0@note_on channel=2 note=69 velocity=0 time=0.07936499999999999@note_on channel=2 note=68 velocity=100 time=0@note_on channel=2 note=68 velocity=0 time=0.07936499999999999@note_on channel=2 note=69 velocity=100 time=0@note_on channel=0 note=69 velocity=0 time=0.79365@note_on channel=0 note=69 velocity=100 time=0@note_on channel=1 note=45 velocity=0 time=0@note_on channel=1 note=48 velocity=100 time=0@note_on channel=2 note=69 velocity=0 time=0@note_on channel=2 note=72 velocity=100 time=0@note_on channel=3 note=69 velocity=0 time=0@note_on channel=3 note=69 velocity=100 time=0@note_on channel=4 note=69 velocity=0 time=0@note_on channel=4 note=79 velocity=100 time=0@note_on channel=5 note=69 velocity=0 time=0@note_on channel=5 note=76 velocity=100 time=0@note_on channel=6 note=69 velocity=0 time=0@note_on channel=6 note=79 velocity=100 time=0@note_on channel=7 note=69 velocity=0 time=0@note_on channel=7 note=72 velocity=100 time=0@note_on channel=8 note=72 velocity=100 time=0@note_on channel=0 note=69 velocity=0 time=0.15872999999999998@note_on channel=0 note=71 velocity=100 time=0@note_on channel=0 note=71 velocity=0 time=0.15872999999999998@note_on channel=0 note=72 velocity=100 time=0@note_on channel=2 note=72 velocity=0 time=0@note_on channel=2 note=69 velocity=100 time=0@note_on channel=3 note=69 velocity=0 time=0@note_on channel=3 note=72 velocity=100 time=0@note_on channel=4 note=79 velocity=0 time=0@note_on channel=4 note=72 velocity=100 time=0@note_on channel=5 note=76 velocity=0 time=0@note_on channel=5 note=72 velocity=100 time=0@note_on channel=0 note=72 velocity=0 time=0.15872999999999998@note_on channel=0 note=74 velocity=100 time=0@note_on channel=7 note=72 velocity=0 time=0@note_on channel=7 note=74 velocity=100 time=0@note_on channel=0 note=74 velocity=0 time=0.15872999999999998@note_on channel=0 note=76 velocity=100 time=0@note_on channel=2 note=69 velocity=0 time=0@note_on channel=2 note=71 velocity=100 time=0@note_on channel=3 note=72 velocity=0 time=0@note_on channel=3 note=69 velocity=100 time=0@note_on channel=4 note=72 velocity=0 time=0@note_on channel=4 note=81 velocity=100 time=0@note_on channel=5 note=72 velocity=0 time=0@note_on channel=5 note=69 velocity=100 time=0@note_on channel=6 note=79 velocity=0 time=0@note_on channel=6 note=79 velocity=100 time=0@note_on channel=7 note=74 velocity=0 time=0@note_on channel=7 note=76 velocity=100 time=0@note_on channel=8 note=72 velocity=0 time=0@note_on channel=8 note=74 velocity=100 time=0@note_on channel=0 note=76 velocity=0 time=0.15872999999999998@note_on channel=0 note=69 velocity=100 time=0@note_on channel=0 note=69 velocity=0 time=0.15872999999999998@note_on channel=0 note=81 velocity=100 time=0@note_on channel=1 note=48 velocity=0 time=0@note_on channel=1 note=40 velocity=100 time=0@note_on channel=2 note=71 velocity=0 time=0@note_on channel=2 note=72 velocity=100 time=0@note_on channel=3 note=69 velocity=0 time=0@note_on channel=3 note=76 velocity=100 time=0@note_on channel=4 note=81 velocity=0 time=0@note_on channel=4 note=81 velocity=100 time=0@note_on channel=5 note=69 velocity=0 time=0@note_on channel=5 note=76 velocity=100 time=0@note_on channel=6 note=79 velocity=0 time=0@note_on channel=6 note=79 velocity=100 time=0@note_on channel=7 note=76 velocity=0 time=0@note_on channel=7 note=76 velocity=100 time=0@note_on channel=8 note=74 velocity=0 time=0@note_on channel=8 note=76 velocity=100 time=0@note_on channel=4 note=81 velocity=0 time=0.07936499999999999@note_on channel=4 note=79 velocity=100 time=0@note_on channel=0 note=81 velocity=0 time=0.07936499999999999@note_on channel=0 note=80 velocity=100 time=0@note_on channel=3 note=76 velocity=0 time=0@note_on channel=3 note=74 velocity=100 time=0@note_on channel=4 note=79 velocity=0 time=0@note_on channel=4 note=81 velocity=100 time=0@note_on channel=4 note=81 velocity=0 time=0.07936499999999999@note_on channel=4 note=79 velocity=100 time=0@note_on channel=0 note=80 velocity=0 time=0.07936499999999999@note_on channel=0 note=81 velocity=100 time=0@note_on channel=2 note=72 velocity=0 time=0@note_on channel=2 note=74 velocity=100 time=0@note_on channel=3 note=74 velocity=0 time=0@note_on channel=3 note=72 velocity=100 time=0@note_on channel=5 note=76 velocity=0 time=0@note_on channel=5 note=72 velocity=100 time=0@note_on channel=6 note=79 velocity=0 time=0@note_on channel=6 note=77 velocity=100 time=0@note_on channel=0 note=81 velocity=0 time=0.15872999999999998@note_on channel=0 note=83 velocity=100 time=0@note_on channel=3 note=72 velocity=0 time=0@note_on channel=3 note=71 velocity=100 time=0@note_on channel=4 note=79 velocity=0 time=0@note_on channel=4 note=77 velocity=100 time=0@note_on channel=7 note=76 velocity=0 time=0@note_on channel=7 note=77 velocity=100 time=0@note_on channel=0 note=83 velocity=0 time=0.15872999999999998@note_on channel=0 note=84 velocity=100 time=0@note_on channel=2 note=74 velocity=0 time=0@note_on channel=2 note=76 velocity=100 time=0@note_on channel=3 note=71 velocity=0 time=0@note_on channel=3 note=69 velocity=100 time=0@note_on channel=4 note=77 velocity=0 time=0@note_on channel=4 note=76 velocity=100 time=0@note_on channel=5 note=72 velocity=0 time=0@note_on channel=5 note=69 velocity=100 time=0@note_on channel=6 note=77 velocity=0 time=0@note_on channel=6 note=76 velocity=100 time=0@note_on channel=7 note=77 velocity=0 time=0@note_on channel=7 note=76 velocity=100 time=0@note_on channel=8 note=76 velocity=0 time=0@note_on channel=8 note=76 velocity=100 time=0@note_on channel=0 note=84 velocity=0 time=0.15872999999999998@note_on channel=0 note=81 velocity=100 time=0@note_on channel=0 note=81 velocity=0 time=0.15872999999999998@note_on channel=0 note=84 velocity=100 time=0@note_on channel=1 note=40 velocity=0 time=0@note_on channel=1 note=50 velocity=100 time=0@note_on channel=2 note=76 velocity=0 time=0@note_on channel=2 note=71 velocity=100 time=0@note_on channel=3 note=69 velocity=0 time=0@note_on channel=3 note=67 velocity=100 time=0@note_on channel=4 note=76 velocity=0 time=0@note_on channel=4 note=74 velocity=100 time=0@note_on channel=5 note=69 velocity=0 time=0@note_on channel=5 note=74 velocity=100 time=0@note_on channel=6 note=76 velocity=0 time=0@note_on channel=6 note=74 velocity=100 time=0@note_on channel=7 note=76 velocity=0 time=0@note_on channel=7 note=74 velocity=100 time=0@note_on channel=8 note=76 velocity=0 time=0@note_on channel=8 note=74 velocity=100 time=0@note_on channel=0 note=84 velocity=0 time=0.07936499999999999@note_on channel=0 note=83 velocity=100 time=0@note_on channel=0 note=83 velocity=0 time=0.07936499999999999@note_on channel=0 note=84 velocity=100 time=0@note_on channel=0 note=84 velocity=0 time=0.07936499999999999@note_on channel=0 note=83 velocity=100 time=0@note_on channel=2 note=71 velocity=0 time=0.07936499999999999@note_on channel=2 note=67 velocity=100 time=0@note_on channel=3 note=67 velocity=0 time=0@note_on channel=3 note=71 velocity=100 time=0@note_on channel=4 note=74 velocity=0 time=0@note_on channel=4 note=71 velocity=100 time=0@note_on channel=5 note=74 velocity=0 time=0@note_on channel=5 note=71 velocity=100 time=0@note_on channel=7 note=74 velocity=0 time=0.15872999999999998@note_on channel=7 note=76 velocity=100 time=0@note_on channel=0 note=83 velocity=0 time=0.15872999999999998@note_on channel=0 note=79 velocity=100 time=0@note_on channel=2 note=67 velocity=0 time=0@note_on channel=2 note=69 velocity=100 time=0@note_on channel=3 note=71 velocity=0 time=0@note_on channel=3 note=67 velocity=100 time=0@note_on channel=4 note=71 velocity=0 time=0@note_on channel=4 note=67 velocity=100 time=0@note_on channel=5 note=71 velocity=0 time=0@note_on channel=5 note=67 velocity=100 time=0@note_on channel=6 note=74 velocity=0 time=0@note_on channel=6 note=74 velocity=100 time=0@note_on channel=7 note=76 velocity=0 time=0@note_on channel=7 note=74 velocity=100 time=0@note_on channel=8 note=74 velocity=0 time=0@note_on channel=8 note=71 velocity=100 time=0@note_on channel=0 note=79 velocity=0 time=0.31745999999999996@note_on channel=0 note=79 velocity=100 time=0@note_on channel=1 note=50 velocity=0 time=0@note_on channel=1 note=43 velocity=100 time=0@note_on channel=2 note=69 velocity=0 time=0@note_on channel=2 note=71 velocity=100 time=0@note_on channel=3 note=67 velocity=0 time=0@note_on channel=3 note=74 velocity=100 time=0@note_on channel=4 note=67 velocity=0 time=0@note_on channel=4 note=74 velocity=100 time=0@note_on channel=5 note=67 velocity=0 time=0@note_on channel=5 note=74 velocity=100 time=0@note_on channel=6 note=74 velocity=0 time=0@note_on channel=6 note=71 velocity=100 time=0@note_on channel=7 note=74 velocity=0 time=0@note_on channel=7 note=71 velocity=100 time=0@note_on channel=8 note=71 velocity=0 time=0@note_on channel=8 note=67 velocity=100 time=0@note_on channel=3 note=74 velocity=0 time=0.15872999999999998@note_on channel=3 note=72 velocity=100 time=0@note_on channel=2 note=71 velocity=0 time=0.15872999999999998@note_on channel=2 note=72 velocity=100 time=0@note_on channel=3 note=72 velocity=0 time=0@note_on channel=3 note=71 velocity=100 time=0@note_on channel=4 note=74 velocity=0 time=0@note_on channel=4 note=62 velocity=100 time=0@note_on channel=5 note=74 velocity=0 time=0@note_on channel=5 note=71 velocity=100 time=0@note_on channel=6 note=71 velocity=0 time=0@note_on channel=6 note=72 velocity=100 time=0@note_on channel=3 note=71 velocity=0 time=0.15872999999999998@note_on channel=3 note=69 velocity=100 time=0@note_on channel=7 note=71 velocity=0 time=0@note_on channel=7 note=72 velocity=100 time=0@note_on channel=2 note=72 velocity=0 time=0.15872999999999998@note_on channel=2 note=74 velocity=100 time=0@note_on channel=3 note=69 velocity=0 time=0@note_on channel=3 note=67 velocity=100 time=0@note_on channel=4 note=62 velocity=0 time=0@note_on channel=4 note=77 velocity=100 time=0@note_on channel=5 note=71 velocity=0 time=0@note_on channel=5 note=67 velocity=100 time=0@note_on channel=6 note=72 velocity=0 time=0@note_on channel=6 note=74 velocity=100 time=0@note_on channel=7 note=72 velocity=0 time=0@note_on channel=7 note=74 velocity=100 time=0@note_on channel=4 note=77 velocity=0 time=0.15872999999999998@note_on channel=4 note=79 velocity=100 time=0@note_on channel=0 note=79 velocity=0 time=0.15872999999999998@note_on channel=0 note=69 velocity=100 time=0@note_on channel=1 note=43 velocity=0 time=0@note_on channel=1 note=45 velocity=100 time=0@note_on channel=2 note=74 velocity=0 time=0@note_on channel=2 note=72 velocity=100 time=0@note_on channel=3 note=67 velocity=0 time=0@note_on channel=3 note=69 velocity=100 time=0@note_on channel=4 note=79 velocity=0 time=0@note_on channel=4 note=81 velocity=100 time=0@note_on channel=5 note=67 velocity=0 time=0@note_on channel=5 note=76 velocity=100 time=0@note_on channel=6 note=74 velocity=0 time=0@note_on channel=6 note=72 velocity=100 time=0@note_on channel=7 note=74 velocity=0 time=0@note_on channel=7 note=72 velocity=100 time=0@note_on channel=8 note=67 velocity=0 time=0@note_on channel=8 note=69 velocity=100 time=0@note_on channel=0 note=69 velocity=0 time=0.15872999999999998@note_on channel=0 note=71 velocity=100 time=0@note_on channel=0 note=71 velocity=0 time=0.15872999999999998@note_on channel=0 note=72 velocity=100 time=0@note_on channel=2 note=72 velocity=0 time=0@note_on channel=2 note=69 velocity=100 time=0@note_on channel=3 note=69 velocity=0 time=0@note_on channel=3 note=72 velocity=100 time=0@note_on channel=4 note=81 velocity=0 time=0@note_on channel=4 note=69 velocity=100 time=0@note_on channel=5 note=76 velocity=0 time=0@note_on channel=5 note=72 velocity=100 time=0@note_on channel=0 note=72 velocity=0 time=0.15872999999999998@note_on channel=0 note=74 velocity=100 time=0@note_on channel=7 note=72 velocity=0 time=0@note_on channel=7 note=71 velocity=100 time=0@note_on channel=8 note=69 velocity=0 time=0@note_on channel=8 note=71 velocity=100 time=0@note_on channel=0 note=74 velocity=0 time=0.15872999999999998@note_on channel=0 note=76 velocity=100 time=0@note_on channel=2 note=69 velocity=0 time=0@note_on channel=2 note=71 velocity=100 time=0@note_on channel=3 note=72 velocity=0 time=0@note_on channel=3 note=69 velocity=100 time=0@note_on channel=4 note=69 velocity=0 time=0@note_on channel=4 note=83 velocity=100 time=0@note_on channel=5 note=72 velocity=0 time=0@note_on channel=5 note=69 velocity=100 time=0@note_on channel=6 note=72 velocity=0 time=0@note_on channel=6 note=72 velocity=100 time=0@note_on channel=7 note=71 velocity=0 time=0@note_on channel=7 note=72 velocity=100 time=0@note_on channel=8 note=71 velocity=0 time=0@note_on channel=8 note=72 velocity=100 time=0@note_on channel=0 note=76 velocity=0 time=0.15872999999999998@note_on channel=0 note=69 velocity=100 time=0@note_on channel=0 note=69 velocity=0 time=0.15872999999999998@note_on channel=0 note=81 velocity=100 time=0@note_on channel=1 note=45 velocity=0 time=0@note_on channel=1 note=38 velocity=100 time=0@note_on channel=2 note=71 velocity=0 time=0@note_on channel=2 note=72 velocity=100 time=0@note_on channel=3 note=69 velocity=0 time=0@note_on channel=3 note=76 velocity=100 time=0@note_on channel=4 note=83 velocity=0 time=0@note_on channel=4 note=84 velocity=100 time=0@note_on channel=5 note=69 velocity=0 time=0@note_on channel=5 note=76 velocity=100 time=0@note_on channel=6 note=72 velocity=0 time=0@note_on channel=6 note=69 velocity=100 time=0@note_on channel=7 note=72 velocity=0 time=0@note_on channel=7 note=69 velocity=100 time=0@note_on channel=8 note=72 velocity=0 time=0@note_on channel=8 note=74 velocity=100 time=0@note_on channel=0 note=81 velocity=0 time=0.15872999999999998@note_on channel=0 note=80 velocity=100 time=0@note_on channel=3 note=76 velocity=0 time=0@note_on channel=3 note=74 velocity=100 time=0@note_on channel=0 note=80 velocity=0 time=0.15872999999999998@note_on channel=0 note=81 velocity=100 time=0@note_on channel=2 note=72 velocity=0 time=0@note_on channel=2 note=74 velocity=100 time=0@note_on channel=3 note=74 velocity=0 time=0@note_on channel=3 note=72 velocity=100 time=0@note_on channel=4 note=84 velocity=0 time=0@note_on channel=4 note=83 velocity=100 time=0@note_on channel=5 note=76 velocity=0 time=0@note_on channel=5 note=72 velocity=100 time=0@note_on channel=6 note=69 velocity=0 time=0@note_on channel=6 note=71 velocity=100 time=0@note_on channel=8 note=74 velocity=0 time=0@note_on channel=8 note=76 velocity=100 time=0@note_on channel=0 note=81 velocity=0 time=0.15872999999999998@note_on channel=0 note=83 velocity=100 time=0@note_on channel=3 note=72 velocity=0 time=0@note_on channel=3 note=71 velocity=100 time=0@note_on channel=7 note=69 velocity=0 time=0@note_on channel=7 note=71 velocity=100 time=0@note_on channel=0 note=83 velocity=0 time=0.15872999999999998@note_on channel=0 note=84 velocity=100 time=0@note_on channel=2 note=74 velocity=0 time=0@note_on channel=2 note=76 velocity=100 time=0@note_on channel=3 note=71 velocity=0 time=0@note_on channel=3 note=69 velocity=100 time=0@note_on channel=4 note=83 velocity=0 time=0@note_on channel=4 note=81 velocity=100 time=0@note_on channel=5 note=72 velocity=0 time=0@note_on channel=5 note=69 velocity=100 time=0@note_on channel=6 note=71 velocity=0 time=0@note_on channel=6 note=72 velocity=100 time=0@note_on channel=7 note=71 velocity=0 time=0@note_on channel=7 note=72 velocity=100 time=0@note_on channel=8 note=76 velocity=0 time=0@note_on channel=8 note=72 velocity=100 time=0@note_on channel=0 note=84 velocity=0 time=0.15872999999999998@note_on channel=0 note=81 velocity=100 time=0@note_on channel=0 note=81 velocity=0 time=0.15872999999999998@note_on channel=0 note=81 velocity=100 time=0@note_on channel=1 note=38 velocity=0 time=0@note_on channel=1 note=47 velocity=100 time=0@note_on channel=2 note=76 velocity=0 time=0@note_on channel=2 note=71 velocity=100 time=0@note_on channel=3 note=69 velocity=0 time=0@note_on channel=3 note=64 velocity=100 time=0@note_on channel=4 note=81 velocity=0 time=0@note_on channel=4 note=80 velocity=100 time=0@note_on channel=5 note=69 velocity=0 time=0@note_on channel=5 note=71 velocity=100 time=0@note_on channel=6 note=72 velocity=0 time=0@note_on channel=6 note=71 velocity=100 time=0@note_on channel=7 note=72 velocity=0 time=0@note_on channel=7 note=71 velocity=100 time=0@note_on channel=8 note=72 velocity=0 time=0@note_on channel=8 note=71 velocity=100 time=0@note_on channel=0 note=81 velocity=0 time=0.07936499999999999@note_on channel=0 note=80 velocity=100 time=0@note_on channel=0 note=80 velocity=0 time=0.07936499999999999@note_on channel=0 note=81 velocity=100 time=0@note_on channel=0 note=81 velocity=0 time=0.07936499999999999@note_on channel=0 note=80 velocity=100 time=0@note_on channel=3 note=64 velocity=0 time=0.07936499999999999@note_on channel=3 note=68 velocity=100 time=0@note_on channel=4 note=80 velocity=0 time=0@note_on channel=4 note=76 velocity=100 time=0@note_on channel=5 note=71 velocity=0 time=0@note_on channel=5 note=68 velocity=100 time=0@note_on channel=7 note=71 velocity=0 time=0.15872999999999998@note_on channel=7 note=69 velocity=100 time=0@note_on channel=0 note=80 velocity=0 time=0.15872999999999998@note_on channel=0 note=76 velocity=100 time=0@note_on channel=2 note=71 velocity=0 time=0@note_on channel=2 note=68 velocity=100 time=0@note_on channel=3 note=68 velocity=0 time=0@note_on channel=3 note=64 velocity=100 time=0@note_on channel=4 note=76 velocity=0 time=0@note_on channel=4 note=71 velocity=100 time=0@note_on channel=5 note=68 velocity=0 time=0@note_on channel=5 note=64 velocity=100 time=0@note_on channel=6 note=71 velocity=0 time=0@note_on channel=6 note=71 velocity=100 time=0@note_on channel=7 note=69 velocity=0 time=0@note_on channel=7 note=71 velocity=100 time=0@note_on channel=8 note=71 velocity=0 time=0@note_on channel=8 note=68 velocity=100 time=0@note_on channel=0 note=76 velocity=0 time=0.31745999999999996@note_on channel=0 note=76 velocity=100 time=0@note_on channel=1 note=47 velocity=0 time=0@note_on channel=1 note=40 velocity=100 time=0@note_on channel=2 note=68 velocity=0 time=0@note_on channel=2 note=64 velocity=100 time=0@note_on channel=3 note=64 velocity=0 time=0@note_on channel=3 note=71 velocity=100 time=0@note_on channel=4 note=71 velocity=0 time=0@note_on channel=4 note=76 velocity=100 time=0@note_on channel=5 note=64 velocity=0 time=0@note_on channel=5 note=71 velocity=100 time=0@note_on channel=6 note=71 velocity=0 time=0@note_on channel=6 note=68 velocity=100 time=0@note_on channel=7 note=71 velocity=0 time=0@note_on channel=7 note=68 velocity=100 time=0@note_on channel=8 note=68 velocity=0 time=0@note_on channel=8 note=64 velocity=100 time=0@note_on channel=3 note=71 velocity=0 time=0.15872999999999998@note_on channel=3 note=69 velocity=100 time=0@note_on channel=3 note=69 velocity=0 time=0.15872999999999998@note_on channel=3 note=68 velocity=100 time=0@note_on channel=4 note=76 velocity=0 time=0@note_on channel=4 note=77 velocity=100 time=0@note_on channel=5 note=71 velocity=0 time=0@note_on channel=5 note=68 velocity=100 time=0@note_on channel=6 note=68 velocity=0 time=0@note_on channel=6 note=69 velocity=100 time=0@note_on channel=4 note=77 velocity=0 time=0.07936499999999999@note_on channel=4 note=76 velocity=100 time=0@note_on channel=3 note=68 velocity=0 time=0.07936499999999999@note_on channel=3 note=66 velocity=100 time=0@note_on channel=4 note=76 velocity=0 time=0@note_on channel=4 note=77 velocity=100 time=0@note_on channel=7 note=68 velocity=0 time=0@note_on channel=7 note=69 velocity=100 time=0@note_on channel=4 note=77 velocity=0 time=0.07936499999999999@note_on channel=4 note=76 velocity=100 time=0@note_on channel=3 note=66 velocity=0 time=0.07936499999999999@note_on channel=3 note=64 velocity=100 time=0@note_on channel=5 note=68 velocity=0 time=0@note_on channel=5 note=64 velocity=100 time=0@note_on channel=6 note=69 velocity=0 time=0@note_on channel=6 note=71 velocity=100 time=0@note_on channel=7 note=69 velocity=0 time=0@note_on channel=7 note=71 velocity=100 time=0@note_on channel=4 note=76 velocity=0 time=0.15872999999999998@note_on channel=4 note=77 velocity=100 time=0@note_on channel=0 note=76 velocity=0 time=0.15872999999999998@note_on channel=0 note=72 velocity=100 time=0@note_on channel=1 note=40 velocity=0 time=0@note_on channel=1 note=48 velocity=100 time=0@note_on channel=2 note=64 velocity=0 time=0@note_on channel=2 note=76 velocity=100 time=0@note_on channel=3 note=64 velocity=0 time=0@note_on channel=3 note=72 velocity=100 time=0@note_on channel=4 note=77 velocity=0 time=0@note_on channel=4 note=79 velocity=100 time=0@note_on channel=5 note=64 velocity=0 time=0@note_on channel=5 note=79 velocity=100 time=0@note_on channel=6 note=71 velocity=0 time=0@note_on channel=6 note=79 velocity=100 time=0@note_on channel=7 note=71 velocity=0 time=0@note_on channel=7 note=72 velocity=100 time=0@note_on channel=8 note=64 velocity=0 time=0@note_on channel=8 note=72 velocity=100 time=0@note_on channel=5 note=79 velocity=0 time=0.07936499999999999@note_on channel=5 note=81 velocity=100 time=0@note_on channel=0 note=72 velocity=0 time=0.07936499999999999@note_on channel=0 note=71 velocity=100 time=0@note_on channel=5 note=81 velocity=0 time=0@note_on channel=5 note=79 velocity=100 time=0@note_on channel=0 note=71 velocity=0 time=0.15872999999999998@note_on channel=0 note=72 velocity=100 time=0@note_on channel=2 note=76 velocity=0 time=0@note_on channel=2 note=72 velocity=100 time=0@note_on channel=3 note=72 velocity=0 time=0@note_on channel=3 note=76 velocity=100 time=0@note_on channel=4 note=79 velocity=0 time=0@note_on channel=4 note=72 velocity=100 time=0@note_on channel=5 note=79 velocity=0 time=0@note_on channel=5 note=76 velocity=100 time=0@note_on channel=0 note=72 velocity=0 time=0.15872999999999998@note_on channel=0 note=74 velocity=100 time=0@note_on channel=7 note=72 velocity=0 time=0@note_on channel=7 note=74 velocity=100 time=0@note_on channel=0 note=74 velocity=0 time=0.15872999999999998@note_on channel=0 note=76 velocity=100 time=0@note_on channel=2 note=72 velocity=0 time=0@note_on channel=2 note=74 velocity=100 time=0@note_on channel=3 note=76 velocity=0 time=0@note_on channel=3 note=72 velocity=100 time=0@note_on channel=4 note=72 velocity=0 time=0@note_on channel=4 note=81 velocity=100 time=0@note_on channel=5 note=76 velocity=0 time=0@note_on channel=5 note=72 velocity=100 time=0@note_on channel=6 note=79 velocity=0 time=0@note_on channel=6 note=79 velocity=100 time=0@note_on channel=7 note=74 velocity=0 time=0@note_on channel=7 note=76 velocity=100 time=0@note_on channel=8 note=72 velocity=0 time=0@note_on channel=8 note=74 velocity=100 time=0@note_on channel=0 note=76 velocity=0 time=0.15872999999999998@note_on channel=0 note=77 velocity=100 time=0@note_on channel=0 note=77 velocity=0 time=0.15872999999999998@note_on channel=0 note=79 velocity=100 time=0@note_on channel=1 note=48 velocity=0 time=0@note_on channel=1 note=40 velocity=100 time=0@note_on channel=2 note=74 velocity=0 time=0@note_on channel=2 note=76 velocity=100 time=0@note_on channel=3 note=72 velocity=0 time=0@note_on channel=3 note=79 velocity=100 time=0@note_on channel=4 note=81 velocity=0 time=0@note_on channel=4 note=81 velocity=100 time=0@note_on channel=5 note=72 velocity=0 time=0@note_on channel=5 note=79 velocity=100 time=0@note_on channel=6 note=79 velocity=0 time=0@note_on channel=6 note=79 velocity=100 time=0@note_on channel=7 note=76 velocity=0 time=0@note_on channel=7 note=76 velocity=100 time=0@note_on channel=8 note=74 velocity=0 time=0@note_on channel=8 note=76 velocity=100 time=0@note_on channel=4 note=81 velocity=0 time=0.07936499999999999@note_on channel=4 note=79 velocity=100 time=0@note_on channel=5 note=79 velocity=0 time=0@note_on channel=5 note=81 velocity=100 time=0@note_on channel=0 note=79 velocity=0 time=0.07936499999999999@note_on channel=0 note=81 velocity=100 time=0@note_on channel=3 note=79 velocity=0 time=0@note_on channel=3 note=77 velocity=100 time=0@note_on channel=4 note=79 velocity=0 time=0@note_on channel=4 note=81 velocity=100 time=0@note_on channel=5 note=81 velocity=0 time=0@note_on channel=5 note=79 velocity=100 time=0@note_on channel=4 note=81 velocity=0 time=0.07936499999999999@note_on channel=4 note=79 velocity=100 time=0@note_on channel=0 note=81 velocity=0 time=0.07936499999999999@note_on channel=0 note=83 velocity=100 time=0@note_on channel=2 note=76 velocity=0 time=0@note_on channel=2 note=77 velocity=100 time=0@note_on channel=3 note=77 velocity=0 time=0@note_on channel=3 note=76 velocity=100 time=0@note_on channel=5 note=79 velocity=0 time=0@note_on channel=5 note=76 velocity=100 time=0@note_on channel=6 note=79 velocity=0 time=0@note_on channel=6 note=77 velocity=100 time=0@note_on channel=0 note=83 velocity=0 time=0.15872999999999998@note_on channel=0 note=79 velocity=100 time=0@note_on channel=3 note=76 velocity=0 time=0@note_on channel=3 note=74 velocity=100 time=0@note_on channel=4 note=79 velocity=0 time=0@note_on channel=4 note=77 velocity=100 time=0@note_on channel=7 note=76 velocity=0 time=0@note_on channel=7 note=77 velocity=100 time=0@note_on channel=8 note=76 velocity=0 time=0@note_on channel=8 note=74 velocity=100 time=0@note_on channel=0 note=79 velocity=0 time=0.15872999999999998@note_on channel=0 note=81 velocity=100 time=0@note_on channel=2 note=77 velocity=0 time=0@note_on channel=2 note=79 velocity=100 time=0@note_on channel=3 note=74 velocity=0 time=0@note_on channel=3 note=72 velocity=100 time=0@note_on channel=4 note=77 velocity=0 time=0@note_on channel=4 note=76 velocity=100 time=0@note_on channel=5 note=76 velocity=0 time=0@note_on channel=5 note=72 velocity=100 time=0@note_on channel=6 note=77 velocity=0 time=0@note_on channel=6 note=76 velocity=100 time=0@note_on channel=7 note=77 velocity=0 time=0@note_on channel=7 note=79 velocity=100 time=0@note_on channel=8 note=74 velocity=0 time=0@note_on channel=8 note=72 velocity=100 time=0@note_on channel=0 note=81 velocity=0 time=0.15872999999999998@note_on channel=0 note=83 velocity=100 time=0@note_on channel=0 note=83 velocity=0 time=0.15872999999999998@note_on channel=0 note=81 velocity=100 time=0@note_on channel=1 note=40 velocity=0 time=0@note_on channel=1 note=50 velocity=100 time=0@note_on channel=2 note=79 velocity=0 time=0@note_on channel=2 note=71 velocity=100 time=0@note_on channel=3 note=72 velocity=0 time=0@note_on channel=3 note=67 velocity=100 time=0@note_on channel=4 note=76 velocity=0 time=0@note_on channel=4 note=74 velocity=100 time=0@note_on channel=5 note=72 velocity=0 time=0@note_on channel=5 note=74 velocity=100 time=0@note_on channel=6 note=76 velocity=0 time=0@note_on channel=6 note=74 velocity=100 time=0@note_on channel=7 note=79 velocity=0 time=0@note_on channel=7 note=74 velocity=100 time=0@note_on channel=8 note=72 velocity=0 time=0@note_on channel=8 note=74 velocity=100 time=0@note_on channel=0 note=81 velocity=0 time=0.07936499999999999@note_on channel=0 note=79 velocity=100 time=0@note_on channel=5 note=74 velocity=0 time=0@note_on channel=5 note=72 velocity=100 time=0@note_on channel=0 note=79 velocity=0 time=0.07936499999999999@note_on channel=0 note=81 velocity=100 time=0@note_on channel=5 note=72 velocity=0 time=0@note_on channel=5 note=74 velocity=100 time=0@note_on channel=0 note=81 velocity=0 time=0.07936499999999999@note_on channel=0 note=79 velocity=100 time=0@note_on channel=0 note=79 velocity=0 time=0.07936499999999999@note_on channel=0 note=74 velocity=100 time=0@note_on channel=2 note=71 velocity=0 time=0@note_on channel=2 note=67 velocity=100 time=0@note_on channel=3 note=67 velocity=0 time=0@note_on channel=3 note=71 velocity=100 time=0@note_on channel=4 note=74 velocity=0 time=0@note_on channel=4 note=71 velocity=100 time=0@note_on channel=5 note=74 velocity=0 time=0@note_on channel=5 note=71 velocity=100 time=0@note_on channel=7 note=74 velocity=0 time=0.15872999999999998@note_on channel=7 note=76 velocity=100 time=0@note_on channel=0 note=74 velocity=0 time=0.15872999999999998@note_on channel=0 note=74 velocity=100 time=0@note_on channel=2 note=67 velocity=0 time=0@note_on channel=2 note=69 velocity=100 time=0@note_on channel=3 note=71 velocity=0 time=0@note_on channel=3 note=67 velocity=100 time=0@note_on channel=4 note=71 velocity=0 time=0@note_on channel=4 note=67 velocity=100 time=0@note_on channel=5 note=71 velocity=0 time=0@note_on channel=5 note=67 velocity=100 time=0@note_on channel=6 note=74 velocity=0 time=0@note_on channel=6 note=74 velocity=100 time=0@note_on channel=7 note=76 velocity=0 time=0@note_on channel=7 note=74 velocity=100 time=0@note_on channel=8 note=74 velocity=0 time=0@note_on channel=8 note=71 velocity=100 time=0@note_on channel=0 note=74 velocity=0 time=0.31745999999999996@note_on channel=0 note=74 velocity=100 time=0@note_on channel=1 note=50 velocity=0 time=0@note_on channel=1 note=43 velocity=100 time=0@note_on channel=2 note=69 velocity=0 time=0@note_on channel=2 note=71 velocity=100 time=0@note_on channel=3 note=67 velocity=0 time=0@note_on channel=3 note=74 velocity=100 time=0@note_on channel=4 note=67 velocity=0 time=0@note_on channel=4 note=74 velocity=100 time=0@note_on channel=5 note=67 velocity=0 time=0@note_on channel=5 note=74 velocity=100 time=0@note_on channel=6 note=74 velocity=0 time=0@note_on channel=6 note=71 velocity=100 time=0@note_on channel=7 note=74 velocity=0 time=0@note_on channel=7 note=71 velocity=100 time=0@note_on channel=8 note=71 velocity=0 time=0@note_on channel=8 note=67 velocity=100 time=0@note_on channel=5 note=74 velocity=0 time=0.07936499999999999@note_on channel=5 note=72 velocity=100 time=0@note_on channel=3 note=74 velocity=0 time=0.07936499999999999@note_on channel=3 note=72 velocity=100 time=0@note_on channel=5 note=72 velocity=0 time=0@note_on channel=5 note=74 velocity=100 time=0@note_on channel=2 note=71 velocity=0 time=0.15872999999999998@note_on channel=2 note=72 velocity=100 time=0@note_on channel=3 note=72 velocity=0 time=0@note_on channel=3 note=71 velocity=100 time=0@note_on channel=4 note=74 velocity=0 time=0@note_on channel=4 note=62 velocity=100 time=0@note_on channel=5 note=74 velocity=0 time=0@note_on channel=5 note=71 velocity=100 time=0@note_on channel=6 note=71 velocity=0 time=0@note_on channel=6 note=72 velocity=100 time=0@note_on channel=0 note=74 velocity=0 time=0.15872999999999998@note_on channel=0 note=76 velocity=100 time=0@note_on channel=3 note=71 velocity=0 time=0@note_on channel=3 note=69 velocity=100 time=0@note_on channel=7 note=71 velocity=0 time=0@note_on channel=7 note=72 velocity=100 time=0@note_on channel=8 note=67 velocity=0 time=0@note_on channel=8 note=69 velocity=100 time=0@note_on channel=0 note=76 velocity=0 time=0.15872999999999998@note_on channel=0 note=77 velocity=100 time=0@note_on channel=2 note=72 velocity=0 time=0@note_on channel=2 note=74 velocity=100 time=0@note_on channel=3 note=69 velocity=0 time=0@note_on channel=3 note=67 velocity=100 time=0@note_on channel=4 note=62 velocity=0 time=0@note_on channel=4 note=76 velocity=100 time=0@note_on channel=5 note=71 velocity=0 time=0@note_on channel=5 note=67 velocity=100 time=0@note_on channel=6 note=72 velocity=0 time=0@note_on channel=6 note=74 velocity=100 time=0@note_on channel=7 note=72 velocity=0 time=0@note_on channel=7 note=74 velocity=100 time=0@note_on channel=8 note=69 velocity=0 time=0@note_on channel=8 note=71 velocity=100 time=0@note_on channel=4 note=76 velocity=0 time=0.15872999999999998@note_on channel=4 note=74 velocity=100 time=0@note_on channel=0 note=77 velocity=0 time=0.15872999999999998@note_on channel=0 note=72 velocity=100 time=0@note_on channel=1 note=43 velocity=0 time=0@note_on channel=1 note=45 velocity=100 time=0@note_on channel=2 note=74 velocity=0 time=0@note_on channel=2 note=72 velocity=100 time=0@note_on channel=3 note=67 velocity=0 time=0@note_on channel=3 note=76 velocity=100 time=0@note_on channel=4 note=74 velocity=0 time=0@note_on channel=4 note=72 velocity=100 time=0@note_on channel=5 note=67 velocity=0 time=0@note_on channel=5 note=76 velocity=100 time=0@note_on channel=6 note=74 velocity=0 time=0@note_on channel=6 note=76 velocity=100 time=0@note_on channel=7 note=74 velocity=0 time=0@note_on channel=7 note=72 velocity=100 time=0@note_on channel=8 note=71 velocity=0 time=0@note_on channel=8 note=72 velocity=100 time=0@note_on channel=2 note=72 velocity=0 time=0.07936499999999999@note_on channel=2 note=74 velocity=100 time=0@note_on channel=2 note=74 velocity=0 time=0.07936499999999999@note_on channel=2 note=72 velocity=100 time=0@note_on channel=3 note=76 velocity=0 time=0@note_on channel=3 note=74 velocity=100 time=0@note_on channel=0 note=72 velocity=0 time=0.15872999999999998@note_on channel=0 note=71 velocity=100 time=0@note_on channel=2 note=72 velocity=0 time=0@note_on channel=2 note=69 velocity=100 time=0@note_on channel=3 note=74 velocity=0 time=0@note_on channel=3 note=72 velocity=100 time=0@note_on channel=4 note=72 velocity=0 time=0@note_on channel=4 note=71 velocity=100 time=0@note_on channel=5 note=76 velocity=0 time=0@note_on channel=5 note=72 velocity=100 time=0@note_on channel=6 note=76 velocity=0 time=0@note_on channel=6 note=74 velocity=100 time=0@note_on channel=7 note=72 velocity=0 time=0@note_on channel=7 note=71 velocity=100 time=0@note_on channel=3 note=72 velocity=0 time=0.15872999999999998@note_on channel=3 note=71 velocity=100 time=0@note_on channel=8 note=72 velocity=0 time=0@note_on channel=8 note=71 velocity=100 time=0@note_on channel=0 note=71 velocity=0 time=0.15872999999999998@note_on channel=0 note=69 velocity=100 time=0@note_on channel=2 note=69 velocity=0 time=0@note_on channel=2 note=72 velocity=100 time=0@note_on channel=3 note=71 velocity=0 time=0@note_on channel=3 note=69 velocity=100 time=0@note_on channel=4 note=71 velocity=0 time=0@note_on channel=4 note=69 velocity=100 time=0@note_on channel=5 note=72 velocity=0 time=0@note_on channel=5 note=69 velocity=100 time=0@note_on channel=6 note=74 velocity=0 time=0@note_on channel=6 note=72 velocity=100 time=0@note_on channel=7 note=71 velocity=0 time=0@note_on channel=7 note=69 velocity=100 time=0@note_on channel=8 note=71 velocity=0 time=0@note_on channel=8 note=69 velocity=100 time=0@note_on channel=0 note=69 velocity=0 time=0.31745999999999996@note_on channel=0 note=69 velocity=100 time=0@note_on channel=1 note=45 velocity=0 time=0@note_on channel=1 note=38 velocity=100 time=0@note_on channel=2 note=72 velocity=0 time=0@note_on channel=2 note=71 velocity=100 time=0@note_on channel=3 note=69 velocity=0 time=0@note_on channel=3 note=71 velocity=100 time=0@note_on channel=4 note=69 velocity=0 time=0@note_on channel=4 note=71 velocity=100 time=0@note_on channel=5 note=69 velocity=0 time=0@note_on channel=5 note=71 velocity=100 time=0@note_on channel=6 note=72 velocity=0 time=0@note_on channel=6 note=74 velocity=100 time=0@note_on channel=7 note=69 velocity=0 time=0@note_on channel=7 note=69 velocity=100 time=0@note_on channel=8 note=69 velocity=0 time=0@note_on channel=8 note=72 velocity=100 time=0@note_on channel=0 note=69 velocity=0 time=0.07936499999999999@note_on channel=0 note=68 velocity=100 time=0@note_on channel=2 note=71 velocity=0 time=0@note_on channel=2 note=72 velocity=100 time=0@note_on channel=5 note=71 velocity=0 time=0@note_on channel=5 note=72 velocity=100 time=0@note_on channel=7 note=69 velocity=0 time=0@note_on channel=7 note=68 velocity=100 time=0@note_on channel=8 note=72 velocity=0 time=0@note_on channel=8 note=71 velocity=100 time=0@note_on channel=0 note=68 velocity=0 time=0.07936499999999999@note_on channel=0 note=69 velocity=100 time=0@note_on channel=2 note=72 velocity=0 time=0@note_on channel=2 note=71 velocity=100 time=0@note_on channel=3 note=71 velocity=0 time=0@note_on channel=3 note=69 velocity=100 time=0@note_on channel=5 note=72 velocity=0 time=0@note_on channel=5 note=71 velocity=100 time=0@note_on channel=7 note=68 velocity=0 time=0@note_on channel=7 note=69 velocity=100 time=0@note_on channel=8 note=71 velocity=0 time=0@note_on channel=8 note=72 velocity=100 time=0@note_on channel=0 note=69 velocity=0 time=0.07936499999999999@note_on channel=0 note=68 velocity=100 time=0@note_on channel=7 note=69 velocity=0 time=0@note_on channel=7 note=68 velocity=100 time=0@note_on channel=8 note=72 velocity=0 time=0@note_on channel=8 note=71 velocity=100 time=0@note_on channel=2 note=71 velocity=0 time=0.07936499999999999@note_on channel=2 note=68 velocity=100 time=0@note_on channel=3 note=69 velocity=0 time=0@note_on channel=3 note=68 velocity=100 time=0@note_on channel=4 note=71 velocity=0 time=0@note_on channel=4 note=68 velocity=100 time=0@note_on channel=5 note=71 velocity=0 time=0@note_on channel=5 note=68 velocity=100 time=0@note_on channel=6 note=74 velocity=0 time=0@note_on channel=6 note=72 velocity=100 time=0@note_on channel=6 note=72 velocity=0 time=0.07936499999999999@note_on channel=6 note=71 velocity=100 time=0@note_on channel=0 note=68 velocity=0 time=0.07936499999999999@note_on channel=0 note=66 velocity=100 time=0@note_on channel=3 note=68 velocity=0 time=0@note_on channel=3 note=66 velocity=100 time=0@note_on channel=6 note=71 velocity=0 time=0@note_on channel=6 note=72 velocity=100 time=0@note_on channel=7 note=68 velocity=0 time=0@note_on channel=7 note=66 velocity=100 time=0@note_on channel=8 note=71 velocity=0 time=0@note_on channel=8 note=69 velocity=100 time=0@note_on channel=6 note=72 velocity=0 time=0.07936499999999999@note_on channel=6 note=71 velocity=100 time=0@note_on channel=0 note=66 velocity=0 time=0.07936499999999999@note_on channel=0 note=68 velocity=100 time=0@note_on channel=2 note=68 velocity=0 time=0@note_on channel=2 note=64 velocity=100 time=0@note_on channel=3 note=66 velocity=0 time=0@note_on channel=3 note=64 velocity=100 time=0@note_on channel=4 note=68 velocity=0 time=0@note_on channel=4 note=64 velocity=100 time=0@note_on channel=5 note=68 velocity=0 time=0@note_on channel=5 note=64 velocity=100 time=0@note_on channel=7 note=66 velocity=0 time=0@note_on channel=7 note=68 velocity=100 time=0@note_on channel=8 note=69 velocity=0 time=0@note_on channel=8 note=68 velocity=100 time=0@note_on channel=6 note=71 velocity=0 time=0.15872999999999998@note_on channel=6 note=69 velocity=100 time=0@note_on channel=6 note=69 velocity=0 time=0.07936499999999999@note_on channel=6 note=71 velocity=100 time=0@note_on channel=0 note=68 velocity=0 time=0.07936499999999999@note_on channel=0 note=69 velocity=100 time=0@note_on channel=1 note=38 velocity=0 time=0@note_on channel=1 note=45 velocity=100 time=0@note_on channel=2 note=64 velocity=0 time=0@note_on channel=2 note=69 velocity=100 time=0@note_on channel=3 note=64 velocity=0 time=0@note_on channel=3 note=69 velocity=100 time=0@note_on channel=4 note=64 velocity=0 time=0@note_on channel=4 note=69 velocity=100 time=0@note_on channel=5 note=64 velocity=0 time=0@note_on channel=5 note=69 velocity=100 time=0@note_on channel=6 note=71 velocity=0 time=0@note_on channel=6 note=69 velocity=100 time=0@note_on channel=7 note=68 velocity=0 time=0@note_on channel=7 note=69 velocity=100 time=0@note_on channel=8 note=68 velocity=0 time=0@note_on channel=8 note=69 velocity=100 time=0@note_on channel=0 note=69 velocity=0 time=0.9523799999999999@note_on channel=0 note=69 velocity=100 time=0@note_on channel=2 note=69 velocity=0 time=0@note_on channel=2 note=69 velocity=100 time=0@note_on channel=3 note=69 velocity=0 time=0@note_on channel=3 note=69 velocity=100 time=0@note_on channel=4 note=69 velocity=0 time=0@note_on channel=4 note=69 velocity=100 time=0@note_on channel=5 note=69 velocity=0 time=0@note_on channel=5 note=69 velocity=100 time=0@note_on channel=6 note=69 velocity=0 time=0@note_on channel=6 note=69 velocity=100 time=0@note_on channel=7 note=69 velocity=0 time=0@note_on channel=7 note=69 velocity=100 time=0@note_on channel=8 note=69 velocity=0 time=0@note_on channel=8 note=69 velocity=100 time=0@note_on channel=3 note=69 velocity=0 time=0.07936499999999999@note_on channel=3 note=68 velocity=100 time=0@note_on channel=3 note=68 velocity=0 time=0.07936499999999999@note_on channel=3 note=69 velocity=100 time=0@note_on channel=0 note=69 velocity=0 time=0.79365@note_on channel=0 note=72 velocity=100 time=0@note_on channel=1 note=45 velocity=0 time=0@note_on channel=1 note=48 velocity=100 time=0@note_on channel=2 note=69 velocity=0 time=0@note_on channel=2 note=69 velocity=100 time=0@note_on channel=3 note=69 velocity=0 time=0@note_on channel=3 note=72 velocity=100 time=0@note_on channel=4 note=69 velocity=0 time=0@note_on channel=4 note=69 velocity=100 time=0@note_on channel=5 note=69 velocity=0 time=0@note_on channel=5 note=79 velocity=100 time=0@note_on channel=6 note=69 velocity=0 time=0@note_on channel=6 note=76 velocity=100 time=0@note_on channel=7 note=69 velocity=0 time=0@note_on channel=7 note=79 velocity=100 time=0@note_on channel=8 note=69 velocity=0 time=0@note_on channel=8 note=72 velocity=100 time=0@note_on channel=10 note=84 velocity=100 time=0@note_on channel=0 note=72 velocity=0 time=0.15872999999999998@note_on channel=0 note=71 velocity=100 time=0@note_on channel=2 note=69 velocity=0 time=0@note_on channel=2 note=71 velocity=100 time=0@note_on channel=0 note=71 velocity=0 time=0.15872999999999998@note_on channel=0 note=72 velocity=100 time=0@note_on channel=2 note=71 velocity=0 time=0@note_on channel=2 note=72 velocity=100 time=0@note_on channel=3 note=72 velocity=0 time=0@note_on channel=3 note=69 velocity=100 time=0@note_on channel=4 note=69 velocity=0 time=0@note_on channel=4 note=72 velocity=100 time=0@note_on channel=5 note=79 velocity=0 time=0@note_on channel=5 note=72 velocity=100 time=0@note_on channel=6 note=76 velocity=0 time=0@note_on channel=6 note=72 velocity=100 time=0@note_on channel=0 note=72 velocity=0 time=0.15872999999999998@note_on channel=0 note=74 velocity=100 time=0@note_on channel=2 note=72 velocity=0 time=0@note_on channel=2 note=74 velocity=100 time=0@note_on channel=8 note=72 velocity=0 time=0@note_on channel=8 note=74 velocity=100 time=0@note_on channel=0 note=74 velocity=0 time=0.15872999999999998@note_on channel=0 note=76 velocity=100 time=0@note_on channel=2 note=74 velocity=0 time=0@note_on channel=2 note=76 velocity=100 time=0@note_on channel=3 note=69 velocity=0 time=0@note_on channel=3 note=71 velocity=100 time=0@note_on channel=4 note=72 velocity=0 time=0@note_on channel=4 note=69 velocity=100 time=0@note_on channel=5 note=72 velocity=0 time=0@note_on channel=5 note=81 velocity=100 time=0@note_on channel=6 note=72 velocity=0 time=0@note_on channel=6 note=69 velocity=100 time=0@note_on channel=7 note=79 velocity=0 time=0@note_on channel=7 note=79 velocity=100 time=0@note_on channel=8 note=74 velocity=0 time=0@note_on channel=8 note=76 velocity=100 time=0@note_on channel=10 note=84 velocity=0 time=0@note_on channel=10 note=86 velocity=100 time=0@note_on channel=0 note=76 velocity=0 time=0.15872999999999998@note_on channel=0 note=74 velocity=100 time=0@note_on channel=2 note=76 velocity=0 time=0@note_on channel=2 note=69 velocity=100 time=0@note_on channel=0 note=74 velocity=0 time=0.15872999999999998@note_on channel=0 note=72 velocity=100 time=0@note_on channel=1 note=48 velocity=0 time=0@note_on channel=1 note=40 velocity=100 time=0@note_on channel=2 note=69 velocity=0 time=0@note_on channel=2 note=81 velocity=100 time=0@note_on channel=3 note=71 velocity=0 time=0@note_on channel=3 note=72 velocity=100 time=0@note_on channel=4 note=69 velocity=0 time=0@note_on channel=4 note=76 velocity=100 time=0@note_on channel=5 note=81 velocity=0 time=0@note_on channel=5 note=81 velocity=100 time=0@note_on channel=6 note=69 velocity=0 time=0@note_on channel=6 note=76 velocity=100 time=0@note_on channel=7 note=79 velocity=0 time=0@note_on channel=7 note=79 velocity=100 time=0@note_on channel=8 note=76 velocity=0 time=0@note_on channel=8 note=76 velocity=100 time=0@note_on channel=10 note=86 velocity=0 time=0@note_on channel=10 note=88 velocity=100 time=0@note_on channel=5 note=81 velocity=0 time=0.07936499999999999@note_on channel=5 note=79 velocity=100 time=0@note_on channel=0 note=72 velocity=0 time=0.07936499999999999@note_on channel=0 note=71 velocity=100 time=0@note_on channel=2 note=81 velocity=0 time=0@note_on channel=2 note=80 velocity=100 time=0@note_on channel=4 note=76 velocity=0 time=0@note_on channel=4 note=74 velocity=100 time=0@note_on channel=5 note=79 velocity=0 time=0@note_on channel=5 note=81 velocity=100 time=0@note_on channel=5 note=81 velocity=0 time=0.07936499999999999@note_on channel=5 note=79 velocity=100 time=0@note_on channel=0 note=71 velocity=0 time=0.07936499999999999@note_on channel=0 note=72 velocity=100 time=0@note_on channel=2 note=80 velocity=0 time=0@note_on channel=2 note=81 velocity=100 time=0@note_on channel=3 note=72 velocity=0 time=0@note_on channel=3 note=74 velocity=100 time=0@note_on channel=4 note=74 velocity=0 time=0@note_on channel=4 note=72 velocity=100 time=0@note_on channel=6 note=76 velocity=0 time=0@note_on channel=6 note=72 velocity=100 time=0@note_on channel=7 note=79 velocity=0 time=0@note_on channel=7 note=77 velocity=100 time=0@note_on channel=0 note=72 velocity=0 time=0.15872999999999998@note_on channel=0 note=74 velocity=100 time=0@note_on channel=2 note=81 velocity=0 time=0@note_on channel=2 note=83 velocity=100 time=0@note_on channel=4 note=72 velocity=0 time=0@note_on channel=4 note=71 velocity=100 time=0@note_on channel=5 note=79 velocity=0 time=0@note_on channel=5 note=77 velocity=100 time=0@note_on channel=8 note=76 velocity=0 time=0@note_on channel=8 note=77 velocity=100 time=0@note_on channel=0 note=74 velocity=0 time=0.15872999999999998@note_on channel=0 note=76 velocity=100 time=0@note_on channel=2 note=83 velocity=0 time=0@note_on channel=2 note=84 velocity=100 time=0@note_on channel=3 note=74 velocity=0 time=0@note_on channel=3 note=76 velocity=100 time=0@note_on channel=4 note=71 velocity=0 time=0@note_on channel=4 note=69 velocity=100 time=0@note_on channel=5 note=77 velocity=0 time=0@note_on channel=5 note=76 velocity=100 time=0@note_on channel=6 note=72 velocity=0 time=0@note_on channel=6 note=69 velocity=100 time=0@note_on channel=7 note=77 velocity=0 time=0@note_on channel=7 note=76 velocity=100 time=0@note_on channel=8 note=77 velocity=0 time=0@note_on channel=8 note=76 velocity=100 time=0@note_on channel=10 note=88 velocity=0 time=0@note_on channel=10 note=88 velocity=100 time=0@note_on channel=0 note=76 velocity=0 time=0.15872999999999998@note_on channel=0 note=74 velocity=100 time=0@note_on channel=2 note=84 velocity=0 time=0@note_on channel=2 note=81 velocity=100 time=0@note_on channel=0 note=74 velocity=0 time=0.15872999999999998@note_on channel=0 note=71 velocity=100 time=0@note_on channel=1 note=40 velocity=0 time=0@note_on channel=1 note=50 velocity=100 time=0@note_on channel=2 note=81 velocity=0 time=0@note_on channel=2 note=84 velocity=100 time=0@note_on channel=3 note=76 velocity=0 time=0@note_on channel=3 note=71 velocity=100 time=0@note_on channel=4 note=69 velocity=0 time=0@note_on channel=4 note=67 velocity=100 time=0@note_on channel=5 note=76 velocity=0 time=0@note_on channel=5 note=74 velocity=100 time=0@note_on channel=6 note=69 velocity=0 time=0@note_on channel=6 note=74 velocity=100 time=0@note_on channel=7 note=76 velocity=0 time=0@note_on channel=7 note=74 velocity=100 time=0@note_on channel=8 note=76 velocity=0 time=0@note_on channel=8 note=74 velocity=100 time=0@note_on channel=10 note=88 velocity=0 time=0@note_on channel=10 note=86 velocity=100 time=0@note_on channel=2 note=84 velocity=0 time=0.07936499999999999@note_on channel=2 note=83 velocity=100 time=0@note_on channel=0 note=71 velocity=0 time=0.07936499999999999@note_on channel=0 note=69 velocity=100 time=0@note_on channel=2 note=83 velocity=0 time=0@note_on channel=2 note=84 velocity=100 time=0@note_on channel=2 note=84 velocity=0 time=0.07936499999999999@note_on channel=2 note=83 velocity=100 time=0@note_on channel=0 note=69 velocity=0 time=0.07936499999999999@note_on channel=0 note=71 velocity=100 time=0@note_on channel=3 note=71 velocity=0 time=0@note_on channel=3 note=67 velocity=100 time=0@note_on channel=4 note=67 velocity=0 time=0@note_on channel=4 note=71 velocity=100 time=0@note_on channel=5 note=74 velocity=0 time=0@note_on channel=5 note=71 velocity=100 time=0@note_on channel=6 note=74 velocity=0 time=0@note_on channel=6 note=71 velocity=100 time=0@note_on channel=0 note=71 velocity=0 time=0.15872999999999998@note_on channel=0 note=72 velocity=100 time=0@note_on channel=8 note=74 velocity=0 time=0@note_on channel=8 note=76 velocity=100 time=0@note_on channel=0 note=72 velocity=0 time=0.15872999999999998@note_on channel=0 note=74 velocity=100 time=0@note_on channel=2 note=83 velocity=0 time=0@note_on channel=2 note=79 velocity=100 time=0@note_on channel=3 note=67 velocity=0 time=0@note_on channel=3 note=69 velocity=100 time=0@note_on channel=4 note=71 velocity=0 time=0@note_on channel=4 note=67 velocity=100 time=0@note_on channel=5 note=71 velocity=0 time=0@note_on channel=5 note=67 velocity=100 time=0@note_on channel=6 note=71 velocity=0 time=0@note_on channel=6 note=67 velocity=100 time=0@note_on channel=7 note=74 velocity=0 time=0@note_on channel=7 note=74 velocity=100 time=0@note_on channel=8 note=76 velocity=0 time=0@note_on channel=8 note=74 velocity=100 time=0@note_on channel=10 note=86 velocity=0 time=0@note_on channel=10 note=83 velocity=100 time=0@note_on channel=0 note=74 velocity=0 time=0.15872999999999998@note_on channel=0 note=72 velocity=100 time=0@note_on channel=0 note=72 velocity=0 time=0.15872999999999998@note_on channel=0 note=71 velocity=100 time=0@note_on channel=1 note=50 velocity=0 time=0@note_on channel=1 note=43 velocity=100 time=0@note_on channel=2 note=79 velocity=0 time=0@note_on channel=2 note=79 velocity=100 time=0@note_on channel=3 note=69 velocity=0 time=0@note_on channel=3 note=71 velocity=100 time=0@note_on channel=4 note=67 velocity=0 time=0@note_on channel=4 note=74 velocity=100 time=0@note_on channel=5 note=67 velocity=0 time=0@note_on channel=5 note=74 velocity=100 time=0@note_on channel=6 note=67 velocity=0 time=0@note_on channel=6 note=74 velocity=100 time=0@note_on channel=7 note=74 velocity=0 time=0@note_on channel=7 note=71 velocity=100 time=0@note_on channel=8 note=74 velocity=0 time=0@note_on channel=8 note=71 velocity=100 time=0@note_on channel=10 note=83 velocity=0 time=0@note_on channel=10 note=79 velocity=100 time=0@note_on channel=0 note=71 velocity=0 time=0.15872999999999998@note_on channel=0 note=69 velocity=100 time=0@note_on channel=4 note=74 velocity=0 time=0@note_on channel=4 note=72 velocity=100 time=0@note_on channel=0 note=69 velocity=0 time=0.15872999999999998@note_on channel=0 note=71 velocity=100 time=0@note_on channel=3 note=71 velocity=0 time=0@note_on channel=3 note=72 velocity=100 time=0@note_on channel=4 note=72 velocity=0 time=0@note_on channel=4 note=71 velocity=100 time=0@note_on channel=5 note=74 velocity=0 time=0@note_on channel=5 note=62 velocity=100 time=0@note_on channel=6 note=74 velocity=0 time=0@note_on channel=6 note=71 velocity=100 time=0@note_on channel=7 note=71 velocity=0 time=0@note_on channel=7 note=72 velocity=100 time=0@note_on channel=0 note=71 velocity=0 time=0.15872999999999998@note_on channel=0 note=72 velocity=100 time=0@note_on channel=4 note=71 velocity=0 time=0@note_on channel=4 note=69 velocity=100 time=0@note_on channel=8 note=71 velocity=0 time=0@note_on channel=8 note=72 velocity=100 time=0@note_on channel=0 note=72 velocity=0 time=0.15872999999999998@note_on channel=0 note=74 velocity=100 time=0@note_on channel=3 note=72 velocity=0 time=0@note_on channel=3 note=74 velocity=100 time=0@note_on channel=4 note=69 velocity=0 time=0@note_on channel=4 note=67 velocity=100 time=0@note_on channel=5 note=62 velocity=0 time=0@note_on channel=5 note=77 velocity=100 time=0@note_on channel=6 note=71 velocity=0 time=0@note_on channel=6 note=67 velocity=100 time=0@note_on channel=7 note=72 velocity=0 time=0@note_on channel=7 note=74 velocity=100 time=0@note_on channel=8 note=72 velocity=0 time=0@note_on channel=8 note=74 velocity=100 time=0@note_on channel=0 note=74 velocity=0 time=0.15872999999999998@note_on channel=0 note=72 velocity=100 time=0@note_on channel=5 note=77 velocity=0 time=0@note_on channel=5 note=79 velocity=100 time=0@note_on channel=0 note=72 velocity=0 time=0.15872999999999998@note_on channel=0 note=72 velocity=100 time=0@note_on channel=1 note=43 velocity=0 time=0@note_on channel=1 note=45 velocity=100 time=0@note_on channel=2 note=79 velocity=0 time=0@note_on channel=2 note=69 velocity=100 time=0@note_on channel=3 note=74 velocity=0 time=0@note_on channel=3 note=72 velocity=100 time=0@note_on channel=4 note=67 velocity=0 time=0@note_on channel=4 note=69 velocity=100 time=0@note_on channel=5 note=79 velocity=0 time=0@note_on channel=5 note=81 velocity=100 time=0@note_on channel=6 note=67 velocity=0 time=0@note_on channel=6 note=76 velocity=100 time=0@note_on channel=7 note=74 velocity=0 time=0@note_on channel=7 note=72 velocity=100 time=0@note_on channel=8 note=74 velocity=0 time=0@note_on channel=8 note=72 velocity=100 time=0@note_on channel=10 note=79 velocity=0 time=0@note_on channel=10 note=81 velocity=100 time=0@note_on channel=0 note=72 velocity=0 time=0.15872999999999998@note_on channel=0 note=71 velocity=100 time=0@note_on channel=2 note=69 velocity=0 time=0@note_on channel=2 note=71 velocity=100 time=0@note_on channel=0 note=71 velocity=0 time=0.15872999999999998@note_on channel=0 note=72 velocity=100 time=0@note_on channel=2 note=71 velocity=0 time=0@note_on channel=2 note=72 velocity=100 time=0@note_on channel=3 note=72 velocity=0 time=0@note_on channel=3 note=69 velocity=100 time=0@note_on channel=4 note=69 velocity=0 time=0@note_on channel=4 note=72 velocity=100 time=0@note_on channel=5 note=81 velocity=0 time=0@note_on channel=5 note=69 velocity=100 time=0@note_on channel=6 note=76 velocity=0 time=0@note_on channel=6 note=72 velocity=100 time=0@note_on channel=0 note=72 velocity=0 time=0.15872999999999998@note_on channel=0 note=74 velocity=100 time=0@note_on channel=2 note=72 velocity=0 time=0@note_on channel=2 note=74 velocity=100 time=0@note_on channel=8 note=72 velocity=0 time=0@note_on channel=8 note=71 velocity=100 time=0@note_on channel=10 note=81 velocity=0 time=0@note_on channel=10 note=83 velocity=100 time=0@note_on channel=0 note=74 velocity=0 time=0.15872999999999998@note_on channel=0 note=72 velocity=100 time=0@note_on channel=2 note=74 velocity=0 time=0@note_on channel=2 note=76 velocity=100 time=0@note_on channel=3 note=69 velocity=0 time=0@note_on channel=3 note=71 velocity=100 time=0@note_on channel=4 note=72 velocity=0 time=0@note_on channel=4 note=69 velocity=100 time=0@note_on channel=5 note=69 velocity=0 time=0@note_on channel=5 note=83 velocity=100 time=0@note_on channel=6 note=72 velocity=0 time=0@note_on channel=6 note=69 velocity=100 time=0@note_on channel=7 note=72 velocity=0 time=0@note_on channel=7 note=72 velocity=100 time=0@note_on channel=8 note=71 velocity=0 time=0@note_on channel=8 note=72 velocity=100 time=0@note_on channel=10 note=83 velocity=0 time=0@note_on channel=10 note=84 velocity=100 time=0@note_on channel=0 note=72 velocity=0 time=0.15872999999999998@note_on channel=0 note=71 velocity=100 time=0@note_on channel=2 note=76 velocity=0 time=0@note_on channel=2 note=69 velocity=100 time=0@note_on channel=0 note=71 velocity=0 time=0.15872999999999998@note_on channel=0 note=69 velocity=100 time=0@note_on channel=1 note=45 velocity=0 time=0@note_on channel=1 note=38 velocity=100 time=0@note_on channel=2 note=69 velocity=0 time=0@note_on channel=2 note=81 velocity=100 time=0@note_on channel=3 note=71 velocity=0 time=0@note_on channel=3 note=72 velocity=100 time=0@note_on channel=4 note=69 velocity=0 time=0@note_on channel=4 note=76 velocity=100 time=0@note_on channel=5 note=83 velocity=0 time=0@note_on channel=5 note=84 velocity=100 time=0@note_on channel=6 note=69 velocity=0 time=0@note_on channel=6 note=76 velocity=100 time=0@note_on channel=7 note=72 velocity=0 time=0@note_on channel=7 note=69 velocity=100 time=0@note_on channel=8 note=72 velocity=0 time=0@note_on channel=8 note=69 velocity=100 time=0@note_on channel=10 note=84 velocity=0 time=0@note_on channel=10 note=86 velocity=100 time=0@note_on channel=0 note=69 velocity=0 time=0.15872999999999998@note_on channel=0 note=68 velocity=100 time=0@note_on channel=2 note=81 velocity=0 time=0@note_on channel=2 note=80 velocity=100 time=0@note_on channel=4 note=76 velocity=0 time=0@note_on channel=4 note=74 velocity=100 time=0@note_on channel=0 note=68 velocity=0 time=0.15872999999999998@note_on channel=0 note=69 velocity=100 time=0@note_on channel=2 note=80 velocity=0 time=0@note_on channel=2 note=81 velocity=100 time=0@note_on channel=3 note=72 velocity=0 time=0@note_on channel=3 note=74 velocity=100 time=0@note_on channel=4 note=74 velocity=0 time=0@note_on channel=4 note=72 velocity=100 time=0@note_on channel=5 note=84 velocity=0 time=0@note_on channel=5 note=83 velocity=100 time=0@note_on channel=6 note=76 velocity=0 time=0@note_on channel=6 note=72 velocity=100 time=0@note_on channel=7 note=69 velocity=0 time=0@note_on channel=7 note=71 velocity=100 time=0@note_on channel=10 note=86 velocity=0 time=0@note_on channel=10 note=88 velocity=100 time=0@note_on channel=0 note=69 velocity=0 time=0.15872999999999998@note_on channel=0 note=71 velocity=100 time=0@note_on channel=2 note=81 velocity=0 time=0@note_on channel=2 note=83 velocity=100 time=0@note_on channel=4 note=72 velocity=0 time=0@note_on channel=4 note=71 velocity=100 time=0@note_on channel=8 note=69 velocity=0 time=0@note_on channel=8 note=71 velocity=100 time=0@note_on channel=0 note=71 velocity=0 time=0.15872999999999998@note_on channel=0 note=72 velocity=100 time=0@note_on channel=2 note=83 velocity=0 time=0@note_on channel=2 note=84 velocity=100 time=0@note_on channel=3 note=74 velocity=0 time=0@note_on channel=3 note=76 velocity=100 time=0@note_on channel=4 note=71 velocity=0 time=0@note_on channel=4 note=69 velocity=100 time=0@note_on channel=5 note=83 velocity=0 time=0@note_on channel=5 note=81 velocity=100 time=0@note_on channel=6 note=72 velocity=0 time=0@note_on channel=6 note=69 velocity=100 time=0@note_on channel=7 note=71 velocity=0 time=0@note_on channel=7 note=72 velocity=100 time=0@note_on channel=8 note=71 velocity=0 time=0@note_on channel=8 note=72 velocity=100 time=0@note_on channel=10 note=88 velocity=0 time=0@note_on channel=10 note=84 velocity=100 time=0@note_on channel=0 note=72 velocity=0 time=0.15872999999999998@note_on channel=0 note=69 velocity=100 time=0@note_on channel=2 note=84 velocity=0 time=0@note_on channel=2 note=81 velocity=100 time=0@note_on channel=0 note=69 velocity=0 time=0.15872999999999998@note_on channel=0 note=71 velocity=100 time=0@note_on channel=1 note=38 velocity=0 time=0@note_on channel=1 note=47 velocity=100 time=0@note_on channel=2 note=81 velocity=0 time=0@note_on channel=2 note=81 velocity=100 time=0@note_on channel=3 note=76 velocity=0 time=0@note_on channel=3 note=71 velocity=100 time=0@note_on channel=4 note=69 velocity=0 time=0@note_on channel=4 note=64 velocity=100 time=0@note_on channel=5 note=81 velocity=0 time=0@note_on channel=5 note=80 velocity=100 time=0@note_on channel=6 note=69 velocity=0 time=0@note_on channel=6 note=71 velocity=100 time=0@note_on channel=7 note=72 velocity=0 time=0@note_on channel=7 note=71 velocity=100 time=0@note_on channel=8 note=72 velocity=0 time=0@note_on channel=8 note=71 velocity=100 time=0@note_on channel=10 note=84 velocity=0 time=0@note_on channel=10 note=83 velocity=100 time=0@note_on channel=2 note=81 velocity=0 time=0.07936499999999999@note_on channel=2 note=80 velocity=100 time=0@note_on channel=0 note=71 velocity=0 time=0.07936499999999999@note_on channel=0 note=69 velocity=100 time=0@note_on channel=2 note=80 velocity=0 time=0@note_on channel=2 note=81 velocity=100 time=0@note_on channel=2 note=81 velocity=0 time=0.07936499999999999@note_on channel=2 note=80 velocity=100 time=0@note_on channel=0 note=69 velocity=0 time=0.07936499999999999@note_on channel=0 note=71 velocity=100 time=0@note_on channel=4 note=64 velocity=0 time=0@note_on channel=4 note=68 velocity=100 time=0@note_on channel=5 note=80 velocity=0 time=0@note_on channel=5 note=76 velocity=100 time=0@note_on channel=6 note=71 velocity=0 time=0@note_on channel=6 note=68 velocity=100 time=0@note_on channel=0 note=71 velocity=0 time=0.15872999999999998@note_on channel=0 note=69 velocity=100 time=0@note_on channel=8 note=71 velocity=0 time=0@note_on channel=8 note=69 velocity=100 time=0@note_on channel=0 note=69 velocity=0 time=0.15872999999999998@note_on channel=0 note=68 velocity=100 time=0@note_on channel=2 note=80 velocity=0 time=0@note_on channel=2 note=76 velocity=100 time=0@note_on channel=3 note=71 velocity=0 time=0@note_on channel=3 note=68 velocity=100 time=0@note_on channel=4 note=68 velocity=0 time=0@note_on channel=4 note=64 velocity=100 time=0@note_on channel=5 note=76 velocity=0 time=0@note_on channel=5 note=71 velocity=100 time=0@note_on channel=6 note=68 velocity=0 time=0@note_on channel=6 note=64 velocity=100 time=0@note_on channel=7 note=71 velocity=0 time=0@note_on channel=7 note=71 velocity=100 time=0@note_on channel=8 note=69 velocity=0 time=0@note_on channel=8 note=71 velocity=100 time=0@note_on channel=10 note=83 velocity=0 time=0@note_on channel=10 note=80 velocity=100 time=0@note_on channel=0 note=68 velocity=0 time=0.15872999999999998@note_on channel=0 note=66 velocity=100 time=0@note_on channel=0 note=66 velocity=0 time=0.15872999999999998@note_on channel=0 note=64 velocity=100 time=0@note_on channel=1 note=47 velocity=0 time=0@note_on channel=1 note=40 velocity=100 time=0@note_on channel=2 note=76 velocity=0 time=0@note_on channel=2 note=76 velocity=100 time=0@note_on channel=3 note=68 velocity=0 time=0@note_on channel=3 note=64 velocity=100 time=0@note_on channel=4 note=64 velocity=0 time=0@note_on channel=4 note=71 velocity=100 time=0@note_on channel=5 note=71 velocity=0 time=0@note_on channel=5 note=76 velocity=100 time=0@note_on channel=6 note=64 velocity=0 time=0@note_on channel=6 note=71 velocity=100 time=0@note_on channel=7 note=71 velocity=0 time=0@note_on channel=7 note=68 velocity=100 time=0@note_on channel=8 note=71 velocity=0 time=0@note_on channel=8 note=68 velocity=100 time=0@note_on channel=10 note=80 velocity=0 time=0@note_on channel=10 note=76 velocity=100 time=0@note_on channel=0 note=64 velocity=0 time=0.15872999999999998@note_on channel=0 note=66 velocity=100 time=0@note_on channel=4 note=71 velocity=0 time=0@note_on channel=4 note=69 velocity=100 time=0@note_on channel=0 note=66 velocity=0 time=0.15872999999999998@note_on channel=0 note=68 velocity=100 time=0@note_on channel=4 note=69 velocity=0 time=0@note_on channel=4 note=68 velocity=100 time=0@note_on channel=5 note=76 velocity=0 time=0@note_on channel=5 note=77 velocity=100 time=0@note_on channel=6 note=71 velocity=0 time=0@note_on channel=6 note=68 velocity=100 time=0@note_on channel=7 note=68 velocity=0 time=0@note_on channel=7 note=69 velocity=100 time=0@note_on channel=5 note=77 velocity=0 time=0.07936499999999999@note_on channel=5 note=76 velocity=100 time=0@note_on channel=0 note=68 velocity=0 time=0.07936499999999999@note_on channel=0 note=69 velocity=100 time=0@note_on channel=4 note=68 velocity=0 time=0@note_on channel=4 note=66 velocity=100 time=0@note_on channel=5 note=76 velocity=0 time=0@note_on channel=5 note=77 velocity=100 time=0@note_on channel=8 note=68 velocity=0 time=0@note_on channel=8 note=69 velocity=100 time=0@note_on channel=5 note=77 velocity=0 time=0.07936499999999999@note_on channel=5 note=76 velocity=100 time=0@note_on channel=0 note=69 velocity=0 time=0.07936499999999999@note_on channel=0 note=68 velocity=100 time=0@note_on channel=4 note=66 velocity=0 time=0@note_on channel=4 note=64 velocity=100 time=0@note_on channel=6 note=68 velocity=0 time=0@note_on channel=6 note=64 velocity=100 time=0@note_on channel=7 note=69 velocity=0 time=0@note_on channel=7 note=71 velocity=100 time=0@note_on channel=8 note=69 velocity=0 time=0@note_on channel=8 note=71 velocity=100 time=0@note_on channel=0 note=68 velocity=0 time=0.15872999999999998@note_on channel=0 note=64 velocity=100 time=0@note_on channel=5 note=76 velocity=0 time=0@note_on channel=5 note=77 velocity=100 time=0@note_on channel=0 note=64 velocity=0 time=0.15872999999999998@note_on channel=0 note=72 velocity=100 time=0@note_on channel=1 note=40 velocity=0 time=0@note_on channel=1 note=48 velocity=100 time=0@note_on channel=2 note=76 velocity=0 time=0@note_on channel=2 note=72 velocity=100 time=0@note_on channel=3 note=64 velocity=0 time=0@note_on channel=3 note=76 velocity=100 time=0@note_on channel=4 note=64 velocity=0 time=0@note_on channel=4 note=72 velocity=100 time=0@note_on channel=5 note=77 velocity=0 time=0@note_on channel=5 note=79 velocity=100 time=0@note_on channel=6 note=64 velocity=0 time=0@note_on channel=6 note=79 velocity=100 time=0@note_on channel=7 note=71 velocity=0 time=0@note_on channel=7 note=79 velocity=100 time=0@note_on channel=8 note=71 velocity=0 time=0@note_on channel=8 note=72 velocity=100 time=0@note_on channel=10 note=76 velocity=0 time=0@note_on channel=10 note=84 velocity=100 time=0@note_on channel=6 note=79 velocity=0 time=0.07936499999999999@note_on channel=6 note=81 velocity=100 time=0@note_on channel=0 note=72 velocity=0 time=0.07936499999999999@note_on channel=0 note=71 velocity=100 time=0@note_on channel=2 note=72 velocity=0 time=0@note_on channel=2 note=71 velocity=100 time=0@note_on channel=6 note=81 velocity=0 time=0@note_on channel=6 note=79 velocity=100 time=0@note_on channel=0 note=71 velocity=0 time=0.15872999999999998@note_on channel=0 note=72 velocity=100 time=0@note_on channel=2 note=71 velocity=0 time=0@note_on channel=2 note=72 velocity=100 time=0@note_on channel=3 note=76 velocity=0 time=0@note_on channel=3 note=72 velocity=100 time=0@note_on channel=4 note=72 velocity=0 time=0@note_on channel=4 note=76 velocity=100 time=0@note_on channel=5 note=79 velocity=0 time=0@note_on channel=5 note=72 velocity=100 time=0@note_on channel=6 note=79 velocity=0 time=0@note_on channel=6 note=76 velocity=100 time=0@note_on channel=0 note=72 velocity=0 time=0.15872999999999998@note_on channel=0 note=74 velocity=100 time=0@note_on channel=2 note=72 velocity=0 time=0@note_on channel=2 note=74 velocity=100 time=0@note_on channel=8 note=72 velocity=0 time=0@note_on channel=8 note=74 velocity=100 time=0@note_on channel=0 note=74 velocity=0 time=0.15872999999999998@note_on channel=0 note=76 velocity=100 time=0@note_on channel=2 note=74 velocity=0 time=0@note_on channel=2 note=76 velocity=100 time=0@note_on channel=3 note=72 velocity=0 time=0@note_on channel=3 note=74 velocity=100 time=0@note_on channel=4 note=76 velocity=0 time=0@note_on channel=4 note=72 velocity=100 time=0@note_on channel=5 note=72 velocity=0 time=0@note_on channel=5 note=81 velocity=100 time=0@note_on channel=6 note=76 velocity=0 time=0@note_on channel=6 note=72 velocity=100 time=0@note_on channel=7 note=79 velocity=0 time=0@note_on channel=7 note=79 velocity=100 time=0@note_on channel=8 note=74 velocity=0 time=0@note_on channel=8 note=76 velocity=100 time=0@note_on channel=10 note=84 velocity=0 time=0@note_on channel=10 note=86 velocity=100 time=0@note_on channel=0 note=76 velocity=0 time=0.15872999999999998@note_on channel=0 note=74 velocity=100 time=0@note_on channel=2 note=76 velocity=0 time=0@note_on channel=2 note=77 velocity=100 time=0@note_on channel=0 note=74 velocity=0 time=0.15872999999999998@note_on channel=0 note=72 velocity=100 time=0@note_on channel=1 note=48 velocity=0 time=0@note_on channel=1 note=40 velocity=100 time=0@note_on channel=2 note=77 velocity=0 time=0@note_on channel=2 note=79 velocity=100 time=0@note_on channel=3 note=74 velocity=0 time=0@note_on channel=3 note=76 velocity=100 time=0@note_on channel=4 note=72 velocity=0 time=0@note_on channel=4 note=79 velocity=100 time=0@note_on channel=5 note=81 velocity=0 time=0@note_on channel=5 note=81 velocity=100 time=0@note_on channel=6 note=72 velocity=0 time=0@note_on channel=6 note=79 velocity=100 time=0@note_on channel=7 note=79 velocity=0 time=0@note_on channel=7 note=79 velocity=100 time=0@note_on channel=8 note=76 velocity=0 time=0@note_on channel=8 note=76 velocity=100 time=0@note_on channel=10 note=86 velocity=0 time=0@note_on channel=10 note=88 velocity=100 time=0@note_on channel=5 note=81 velocity=0 time=0.07936499999999999@note_on channel=5 note=79 velocity=100 time=0@note_on channel=6 note=79 velocity=0 time=0@note_on channel=6 note=81 velocity=100 time=0@note_on channel=0 note=72 velocity=0 time=0.07936499999999999@note_on channel=0 note=71 velocity=100 time=0@note_on channel=2 note=79 velocity=0 time=0@note_on channel=2 note=81 velocity=100 time=0@note_on channel=4 note=79 velocity=0 time=0@note_on channel=4 note=77 velocity=100 time=0@note_on channel=5 note=79 velocity=0 time=0@note_on channel=5 note=81 velocity=100 time=0@note_on channel=6 note=81 velocity=0 time=0@note_on channel=6 note=79 velocity=100 time=0@note_on channel=5 note=81 velocity=0 time=0.07936499999999999@note_on channel=5 note=79 velocity=100 time=0@note_on channel=0 note=71 velocity=0 time=0.07936499999999999@note_on channel=0 note=72 velocity=100 time=0@note_on channel=2 note=81 velocity=0 time=0@note_on channel=2 note=83 velocity=100 time=0@note_on channel=3 note=76 velocity=0 time=0@note_on channel=3 note=77 velocity=100 time=0@note_on channel=4 note=77 velocity=0 time=0@note_on channel=4 note=76 velocity=100 time=0@note_on channel=6 note=79 velocity=0 time=0@note_on channel=6 note=76 velocity=100 time=0@note_on channel=7 note=79 velocity=0 time=0@note_on channel=7 note=77 velocity=100 time=0@note_on channel=0 note=72 velocity=0 time=0.15872999999999998@note_on channel=0 note=74 velocity=100 time=0@note_on channel=2 note=83 velocity=0 time=0@note_on channel=2 note=79 velocity=100 time=0@note_on channel=4 note=76 velocity=0 time=0@note_on channel=4 note=74 velocity=100 time=0@note_on channel=5 note=79 velocity=0 time=0@note_on channel=5 note=77 velocity=100 time=0@note_on channel=8 note=76 velocity=0 time=0@note_on channel=8 note=77 velocity=100 time=0@note_on channel=10 note=88 velocity=0 time=0@note_on channel=10 note=86 velocity=100 time=0@note_on channel=0 note=74 velocity=0 time=0.15872999999999998@note_on channel=0 note=76 velocity=100 time=0@note_on channel=2 note=79 velocity=0 time=0@note_on channel=2 note=81 velocity=100 time=0@note_on channel=3 note=77 velocity=0 time=0@note_on channel=3 note=79 velocity=100 time=0@note_on channel=4 note=74 velocity=0 time=0@note_on channel=4 note=72 velocity=100 time=0@note_on channel=5 note=77 velocity=0 time=0@note_on channel=5 note=76 velocity=100 time=0@note_on channel=6 note=76 velocity=0 time=0@note_on channel=6 note=72 velocity=100 time=0@note_on channel=7 note=77 velocity=0 time=0@note_on channel=7 note=76 velocity=100 time=0@note_on channel=8 note=77 velocity=0 time=0@note_on channel=8 note=79 velocity=100 time=0@note_on channel=10 note=86 velocity=0 time=0@note_on channel=10 note=84 velocity=100 time=0@note_on channel=0 note=76 velocity=0 time=0.15872999999999998@note_on channel=0 note=74 velocity=100 time=0@note_on channel=2 note=81 velocity=0 time=0@note_on channel=2 note=83 velocity=100 time=0@note_on channel=0 note=74 velocity=0 time=0.15872999999999998@note_on channel=0 note=74 velocity=100 time=0@note_on channel=1 note=40 velocity=0 time=0@note_on channel=1 note=50 velocity=100 time=0@note_on channel=2 note=83 velocity=0 time=0@note_on channel=2 note=81 velocity=100 time=0@note_on channel=3 note=79 velocity=0 time=0@note_on channel=3 note=71 velocity=100 time=0@note_on channel=4 note=72 velocity=0 time=0@note_on channel=4 note=67 velocity=100 time=0@note_on channel=5 note=76 velocity=0 time=0@note_on channel=5 note=74 velocity=100 time=0@note_on channel=6 note=72 velocity=0 time=0@note_on channel=6 note=74 velocity=100 time=0@note_on channel=7 note=76 velocity=0 time=0@note_on channel=7 note=74 velocity=100 time=0@note_on channel=8 note=79 velocity=0 time=0@note_on channel=8 note=74 velocity=100 time=0@note_on channel=10 note=84 velocity=0 time=0@note_on channel=10 note=86 velocity=100 time=0@note_on channel=2 note=81 velocity=0 time=0.07936499999999999@note_on channel=2 note=79 velocity=100 time=0@note_on channel=6 note=74 velocity=0 time=0@note_on channel=6 note=72 velocity=100 time=0@note_on channel=0 note=74 velocity=0 time=0.07936499999999999@note_on channel=0 note=72 velocity=100 time=0@note_on channel=2 note=79 velocity=0 time=0@note_on channel=2 note=81 velocity=100 time=0@note_on channel=6 note=72 velocity=0 time=0@note_on channel=6 note=74 velocity=100 time=0@note_on channel=2 note=81 velocity=0 time=0.07936499999999999@note_on channel=2 note=79 velocity=100 time=0@note_on channel=0 note=72 velocity=0 time=0.07936499999999999@note_on channel=0 note=74 velocity=100 time=0@note_on channel=2 note=79 velocity=0 time=0@note_on channel=2 note=74 velocity=100 time=0@note_on channel=3 note=71 velocity=0 time=0@note_on channel=3 note=67 velocity=100 time=0@note_on channel=4 note=67 velocity=0 time=0@note_on channel=4 note=71 velocity=100 time=0@note_on channel=5 note=74 velocity=0 time=0@note_on channel=5 note=71 velocity=100 time=0@note_on channel=6 note=74 velocity=0 time=0@note_on channel=6 note=71 velocity=100 time=0@note_on channel=0 note=74 velocity=0 time=0.15872999999999998@note_on channel=0 note=76 velocity=100 time=0@note_on channel=8 note=74 velocity=0 time=0@note_on channel=8 note=76 velocity=100 time=0@note_on channel=0 note=76 velocity=0 time=0.15872999999999998@note_on channel=0 note=74 velocity=100 time=0@note_on channel=2 note=74 velocity=0 time=0@note_on channel=2 note=74 velocity=100 time=0@note_on channel=3 note=67 velocity=0 time=0@note_on channel=3 note=69 velocity=100 time=0@note_on channel=4 note=71 velocity=0 time=0@note_on channel=4 note=67 velocity=100 time=0@note_on channel=5 note=71 velocity=0 time=0@note_on channel=5 note=67 velocity=100 time=0@note_on channel=6 note=71 velocity=0 time=0@note_on channel=6 note=67 velocity=100 time=0@note_on channel=7 note=74 velocity=0 time=0@note_on channel=7 note=74 velocity=100 time=0@note_on channel=8 note=76 velocity=0 time=0@note_on channel=8 note=74 velocity=100 time=0@note_on channel=10 note=86 velocity=0 time=0@note_on channel=10 note=83 velocity=100 time=0@note_on channel=0 note=74 velocity=0 time=0.15872999999999998@note_on channel=0 note=72 velocity=100 time=0@note_on channel=0 note=72 velocity=0 time=0.15872999999999998@note_on channel=0 note=71 velocity=100 time=0@note_on channel=1 note=50 velocity=0 time=0@note_on channel=1 note=43 velocity=100 time=0@note_on channel=2 note=74 velocity=0 time=0@note_on channel=2 note=74 velocity=100 time=0@note_on channel=3 note=69 velocity=0 time=0@note_on channel=3 note=71 velocity=100 time=0@note_on channel=4 note=67 velocity=0 time=0@note_on channel=4 note=74 velocity=100 time=0@note_on channel=5 note=67 velocity=0 time=0@note_on channel=5 note=74 velocity=100 time=0@note_on channel=6 note=67 velocity=0 time=0@note_on channel=6 note=74 velocity=100 time=0@note_on channel=7 note=74 velocity=0 time=0@note_on channel=7 note=71 velocity=100 time=0@note_on channel=8 note=74 velocity=0 time=0@note_on channel=8 note=71 velocity=100 time=0@note_on channel=10 note=83 velocity=0 time=0@note_on channel=10 note=79 velocity=100 time=0@note_on channel=6 note=74 velocity=0 time=0.07936499999999999@note_on channel=6 note=72 velocity=100 time=0@note_on channel=0 note=71 velocity=0 time=0.07936499999999999@note_on channel=0 note=69 velocity=100 time=0@note_on channel=4 note=74 velocity=0 time=0@note_on channel=4 note=72 velocity=100 time=0@note_on channel=6 note=72 velocity=0 time=0@note_on channel=6 note=74 velocity=100 time=0@note_on channel=0 note=69 velocity=0 time=0.15872999999999998@note_on channel=0 note=71 velocity=100 time=0@note_on channel=3 note=71 velocity=0 time=0@note_on channel=3 note=72 velocity=100 time=0@note_on channel=4 note=72 velocity=0 time=0@note_on channel=4 note=71 velocity=100 time=0@note_on channel=5 note=74 velocity=0 time=0@note_on channel=5 note=62 velocity=100 time=0@note_on channel=6 note=74 velocity=0 time=0@note_on channel=6 note=71 velocity=100 time=0@note_on channel=7 note=71 velocity=0 time=0@note_on channel=7 note=72 velocity=100 time=0@note_on channel=0 note=71 velocity=0 time=0.15872999999999998@note_on channel=0 note=72 velocity=100 time=0@note_on channel=2 note=74 velocity=0 time=0@note_on channel=2 note=76 velocity=100 time=0@note_on channel=4 note=71 velocity=0 time=0@note_on channel=4 note=69 velocity=100 time=0@note_on channel=8 note=71 velocity=0 time=0@note_on channel=8 note=72 velocity=100 time=0@note_on channel=10 note=79 velocity=0 time=0@note_on channel=10 note=81 velocity=100 time=0@note_on channel=0 note=72 velocity=0 time=0.15872999999999998@note_on channel=0 note=74 velocity=100 time=0@note_on channel=2 note=76 velocity=0 time=0@note_on channel=2 note=77 velocity=100 time=0@note_on channel=3 note=72 velocity=0 time=0@note_on channel=3 note=74 velocity=100 time=0@note_on channel=4 note=69 velocity=0 time=0@note_on channel=4 note=67 velocity=100 time=0@note_on channel=5 note=62 velocity=0 time=0@note_on channel=5 note=76 velocity=100 time=0@note_on channel=6 note=71 velocity=0 time=0@note_on channel=6 note=67 velocity=100 time=0@note_on channel=7 note=72 velocity=0 time=0@note_on channel=7 note=74 velocity=100 time=0@note_on channel=8 note=72 velocity=0 time=0@note_on channel=8 note=74 velocity=100 time=0@note_on channel=10 note=81 velocity=0 time=0@note_on channel=10 note=83 velocity=100 time=0@note_on channel=0 note=74 velocity=0 time=0.15872999999999998@note_on channel=0 note=72 velocity=100 time=0@note_on channel=5 note=76 velocity=0 time=0@note_on channel=5 note=74 velocity=100 time=0@note_on channel=0 note=72 velocity=0 time=0.15872999999999998@note_on channel=0 note=72 velocity=100 time=0@note_on channel=1 note=43 velocity=0 time=0@note_on channel=1 note=45 velocity=100 time=0@note_on channel=2 note=77 velocity=0 time=0@note_on channel=2 note=72 velocity=100 time=0@note_on channel=3 note=74 velocity=0 time=0@note_on channel=3 note=72 velocity=100 time=0@note_on channel=4 note=67 velocity=0 time=0@note_on channel=4 note=76 velocity=100 time=0@note_on channel=5 note=74 velocity=0 time=0@note_on channel=5 note=72 velocity=100 time=0@note_on channel=6 note=67 velocity=0 time=0@note_on channel=6 note=76 velocity=100 time=0@note_on channel=7 note=74 velocity=0 time=0@note_on channel=7 note=76 velocity=100 time=0@note_on channel=8 note=74 velocity=0 time=0@note_on channel=8 note=72 velocity=100 time=0@note_on channel=10 note=83 velocity=0 time=0@note_on channel=10 note=84 velocity=100 time=0@note_on channel=3 note=72 velocity=0 time=0.07936499999999999@note_on channel=3 note=74 velocity=100 time=0@note_on channel=0 note=72 velocity=0 time=0.07936499999999999@note_on channel=0 note=71 velocity=100 time=0@note_on channel=3 note=74 velocity=0 time=0@note_on channel=3 note=72 velocity=100 time=0@note_on channel=4 note=76 velocity=0 time=0@note_on channel=4 note=74 velocity=100 time=0@note_on channel=0 note=71 velocity=0 time=0.15872999999999998@note_on channel=0 note=72 velocity=100 time=0@note_on channel=2 note=72 velocity=0 time=0@note_on channel=2 note=71 velocity=100 time=0@note_on channel=3 note=72 velocity=0 time=0@note_on channel=3 note=69 velocity=100 time=0@note_on channel=4 note=74 velocity=0 time=0@note_on channel=4 note=72 velocity=100 time=0@note_on channel=5 note=72 velocity=0 time=0@note_on channel=5 note=71 velocity=100 time=0@note_on channel=6 note=76 velocity=0 time=0@note_on channel=6 note=72 velocity=100 time=0@note_on channel=7 note=76 velocity=0 time=0@note_on channel=7 note=74 velocity=100 time=0@note_on channel=8 note=72 velocity=0 time=0@note_on channel=8 note=71 velocity=100 time=0@note_on channel=0 note=72 velocity=0 time=0.15872999999999998@note_on channel=0 note=74 velocity=100 time=0@note_on channel=4 note=72 velocity=0 time=0@note_on channel=4 note=71 velocity=100 time=0@note_on channel=10 note=84 velocity=0 time=0@note_on channel=10 note=83 velocity=100 time=0@note_on channel=0 note=74 velocity=0 time=0.15872999999999998@note_on channel=0 note=76 velocity=100 time=0@note_on channel=2 note=71 velocity=0 time=0@note_on channel=2 note=69 velocity=100 time=0@note_on channel=3 note=69 velocity=0 time=0@note_on channel=3 note=72 velocity=100 time=0@note_on channel=4 note=71 velocity=0 time=0@note_on channel=4 note=69 velocity=100 time=0@note_on channel=5 note=71 velocity=0 time=0@note_on channel=5 note=69 velocity=100 time=0@note_on channel=6 note=72 velocity=0 time=0@note_on channel=6 note=69 velocity=100 time=0@note_on channel=7 note=74 velocity=0 time=0@note_on channel=7 note=72 velocity=100 time=0@note_on channel=8 note=71 velocity=0 time=0@note_on channel=8 note=69 velocity=100 time=0@note_on channel=10 note=83 velocity=0 time=0@note_on channel=10 note=81 velocity=100 time=0@note_on channel=0 note=76 velocity=0 time=0.15872999999999998@note_on channel=0 note=74 velocity=100 time=0@note_on channel=0 note=74 velocity=0 time=0.15872999999999998@note_on channel=0 note=74 velocity=100 time=0@note_on channel=1 note=45 velocity=0 time=0@note_on channel=1 note=38 velocity=100 time=0@note_on channel=2 note=69 velocity=0 time=0@note_on channel=2 note=69 velocity=100 time=0@note_on channel=3 note=72 velocity=0 time=0@note_on channel=3 note=71 velocity=100 time=0@note_on channel=4 note=69 velocity=0 time=0@note_on channel=4 note=71 velocity=100 time=0@note_on channel=5 note=69 velocity=0 time=0@note_on channel=5 note=71 velocity=100 time=0@note_on channel=6 note=69 velocity=0 time=0@note_on channel=6 note=71 velocity=100 time=0@note_on channel=7 note=72 velocity=0 time=0@note_on channel=7 note=74 velocity=100 time=0@note_on channel=8 note=69 velocity=0 time=0@note_on channel=8 note=69 velocity=100 time=0@note_on channel=10 note=81 velocity=0 time=0@note_on channel=10 note=84 velocity=100 time=0@note_on channel=2 note=69 velocity=0 time=0.07936499999999999@note_on channel=2 note=68 velocity=100 time=0@note_on channel=3 note=71 velocity=0 time=0@note_on channel=3 note=72 velocity=100 time=0@note_on channel=6 note=71 velocity=0 time=0@note_on channel=6 note=72 velocity=100 time=0@note_on channel=8 note=69 velocity=0 time=0@note_on channel=8 note=68 velocity=100 time=0@note_on channel=10 note=84 velocity=0 time=0@note_on channel=10 note=83 velocity=100 time=0@note_on channel=0 note=74 velocity=0 time=0.07936499999999999@note_on channel=0 note=72 velocity=100 time=0@note_on channel=2 note=68 velocity=0 time=0@note_on channel=2 note=69 velocity=100 time=0@note_on channel=3 note=72 velocity=0 time=0@note_on channel=3 note=71 velocity=100 time=0@note_on channel=4 note=71 velocity=0 time=0@note_on channel=4 note=69 velocity=100 time=0@note_on channel=6 note=72 velocity=0 time=0@note_on channel=6 note=71 velocity=100 time=0@note_on channel=8 note=68 velocity=0 time=0@note_on channel=8 note=69 velocity=100 time=0@note_on channel=10 note=83 velocity=0 time=0@note_on channel=10 note=84 velocity=100 time=0@note_on channel=2 note=69 velocity=0 time=0.07936499999999999@note_on channel=2 note=68 velocity=100 time=0@note_on channel=8 note=69 velocity=0 time=0@note_on channel=8 note=68 velocity=100 time=0@note_on channel=10 note=84 velocity=0 time=0@note_on channel=10 note=83 velocity=100 time=0@note_on channel=0 note=72 velocity=0 time=0.07936499999999999@note_on channel=0 note=71 velocity=100 time=0@note_on channel=3 note=71 velocity=0 time=0@note_on channel=3 note=68 velocity=100 time=0@note_on channel=4 note=69 velocity=0 time=0@note_on channel=4 note=68 velocity=100 time=0@note_on channel=5 note=71 velocity=0 time=0@note_on channel=5 note=68 velocity=100 time=0@note_on channel=6 note=71 velocity=0 time=0@note_on channel=6 note=68 velocity=100 time=0@note_on channel=7 note=74 velocity=0 time=0@note_on channel=7 note=72 velocity=100 time=0@note_on channel=7 note=72 velocity=0 time=0.07936499999999999@note_on channel=7 note=71 velocity=100 time=0@note_on channel=0 note=71 velocity=0 time=0.07936499999999999@note_on channel=0 note=69 velocity=100 time=0@note_on channel=2 note=68 velocity=0 time=0@note_on channel=2 note=66 velocity=100 time=0@note_on channel=4 note=68 velocity=0 time=0@note_on channel=4 note=66 velocity=100 time=0@note_on channel=7 note=71 velocity=0 time=0@note_on channel=7 note=72 velocity=100 time=0@note_on channel=8 note=68 velocity=0 time=0@note_on channel=8 note=66 velocity=100 time=0@note_on channel=10 note=83 velocity=0 time=0@note_on channel=10 note=81 velocity=100 time=0@note_on channel=7 note=72 velocity=0 time=0.07936499999999999@note_on channel=7 note=71 velocity=100 time=0@note_on channel=0 note=69 velocity=0 time=0.07936499999999999@note_on channel=0 note=71 velocity=100 time=0@note_on channel=2 note=66 velocity=0 time=0@note_on channel=2 note=68 velocity=100 time=0@note_on channel=3 note=68 velocity=0 time=0@note_on channel=3 note=64 velocity=100 time=0@note_on channel=4 note=66 velocity=0 time=0@note_on channel=4 note=64 velocity=100 time=0@note_on channel=5 note=68 velocity=0 time=0@note_on channel=5 note=64 velocity=100 time=0@note_on channel=6 note=68 velocity=0 time=0@note_on channel=6 note=64 velocity=100 time=0@note_on channel=8 note=66 velocity=0 time=0@note_on channel=8 note=68 velocity=100 time=0@note_on channel=10 note=81 velocity=0 time=0@note_on channel=10 note=80 velocity=100 time=0@note_on channel=0 note=71 velocity=0 time=0.15872999999999998@note_on channel=0 note=68 velocity=100 time=0@note_on channel=7 note=71 velocity=0 time=0@note_on channel=7 note=69 velocity=100 time=0@note_on channel=7 note=69 velocity=0 time=0.07936499999999999@note_on channel=7 note=71 velocity=100 time=0@note_on channel=0 note=68 velocity=0 time=0.07936499999999999@note_on channel=0 note=69 velocity=100 time=0@note_on channel=1 note=38 velocity=0 time=0@note_on channel=1 note=45 velocity=100 time=0@note_on channel=2 note=68 velocity=0 time=0@note_on channel=2 note=69 velocity=100 time=0@note_on channel=3 note=64 velocity=0 time=0@note_on channel=3 note=69 velocity=100 time=0@note_on channel=4 note=64 velocity=0 time=0@note_on channel=4 note=69 velocity=100 time=0@note_on channel=5 note=64 velocity=0 time=0@note_on channel=5 note=69 velocity=100 time=0@note_on channel=6 note=64 velocity=0 time=0@note_on channel=6 note=69 velocity=100 time=0@note_on channel=7 note=71 velocity=0 time=0@note_on channel=7 note=69 velocity=100 time=0@note_on channel=8 note=68 velocity=0 time=0@note_on channel=8 note=69 velocity=100 time=0@note_on channel=10 note=80 velocity=0 time=0@note_on channel=10 note=81 velocity=100 time=0@note_on channel=0 note=69 velocity=0 time=0.9523799999999999@note_on channel=0 note=69 velocity=100 time=0@note_on channel=2 note=69 velocity=0 time=0@note_on channel=2 note=69 velocity=100 time=0@note_on channel=3 note=69 velocity=0 time=0@note_on channel=3 note=69 velocity=100 time=0@note_on channel=4 note=69 velocity=0 time=0@note_on channel=4 note=69 velocity=100 time=0@note_on channel=5 note=69 velocity=0 time=0@note_on channel=5 note=69 velocity=100 time=0@note_on channel=6 note=69 velocity=0 time=0@note_on channel=6 note=69 velocity=100 time=0@note_on channel=7 note=69 velocity=0 time=0@note_on channel=7 note=69 velocity=100 time=0@note_on channel=8 note=69 velocity=0 time=0@note_on channel=8 note=69 velocity=100 time=0@note_on channel=10 note=81 velocity=0 time=0@note_on channel=10 note=81 velocity=100 time=0@note_on channel=4 note=69 velocity=0 time=0.07936499999999999@note_on channel=4 note=68 velocity=100 time=0@note_on channel=4 note=68 velocity=0 time=0.07936499999999999@note_on channel=4 note=69 velocity=100 time=0@note_on channel=0 note=69 velocity=0 time=0.79365@note_on channel=0 note=69 velocity=100 time=0@note_on channel=1 note=45 velocity=0 time=0@note_on channel=1 note=48 velocity=100 time=0@note_on channel=2 note=69 velocity=0 time=0@note_on channel=2 note=72 velocity=100 time=0@note_on channel=3 note=69 velocity=0 time=0@note_on channel=3 note=69 velocity=100 time=0@note_on channel=4 note=69 velocity=0 time=0@note_on channel=4 note=72 velocity=100 time=0@note_on channel=5 note=69 velocity=0 time=0@note_on channel=5 note=69 velocity=100 time=0@note_on channel=6 note=69 velocity=0 time=0@note_on channel=6 note=79 velocity=100 time=0@note_on channel=7 note=69 velocity=0 time=0@note_on channel=7 note=76 velocity=100 time=0@note_on channel=8 note=69 velocity=0 time=0@note_on channel=8 note=79 velocity=100 time=0@note_on channel=10 note=81 velocity=0 time=0@note_on channel=10 note=84 velocity=100 time=0@note_on channel=11 note=72 velocity=100 time=0@note_on channel=0 note=69 velocity=0 time=0.15872999999999998@note_on channel=0 note=71 velocity=100 time=0@note_on channel=2 note=72 velocity=0 time=0@note_on channel=2 note=71 velocity=100 time=0@note_on channel=3 note=69 velocity=0 time=0@note_on channel=3 note=71 velocity=100 time=0@note_on channel=0 note=71 velocity=0 time=0.15872999999999998@note_on channel=0 note=72 velocity=100 time=0@note_on channel=2 note=71 velocity=0 time=0@note_on channel=2 note=72 velocity=100 time=0@note_on channel=3 note=71 velocity=0 time=0@note_on channel=3 note=72 velocity=100 time=0@note_on channel=4 note=72 velocity=0 time=0@note_on channel=4 note=69 velocity=100 time=0@note_on channel=5 note=69 velocity=0 time=0@note_on channel=5 note=72 velocity=100 time=0@note_on channel=6 note=79 velocity=0 time=0@note_on channel=6 note=72 velocity=100 time=0@note_on channel=7 note=76 velocity=0 time=0@note_on channel=7 note=72 velocity=100 time=0@note_on channel=2 note=72 velocity=0 time=0.15872999999999998@note_on channel=2 note=74 velocity=100 time=0@note_on channel=3 note=72 velocity=0 time=0@note_on channel=3 note=74 velocity=100 time=0@note_on channel=10 note=84 velocity=0 time=0@note_on channel=10 note=86 velocity=100 time=0@note_on channel=0 note=72 velocity=0 time=0.15872999999999998@note_on channel=0 note=69 velocity=100 time=0@note_on channel=2 note=74 velocity=0 time=0@note_on channel=2 note=76 velocity=100 time=0@note_on channel=3 note=74 velocity=0 time=0@note_on channel=3 note=76 velocity=100 time=0@note_on channel=4 note=69 velocity=0 time=0@note_on channel=4 note=71 velocity=100 time=0@note_on channel=5 note=72 velocity=0 time=0@note_on channel=5 note=69 velocity=100 time=0@note_on channel=6 note=72 velocity=0 time=0@note_on channel=6 note=81 velocity=100 time=0@note_on channel=7 note=72 velocity=0 time=0@note_on channel=7 note=69 velocity=100 time=0@note_on channel=8 note=79 velocity=0 time=0@note_on channel=8 note=79 velocity=100 time=0@note_on channel=10 note=86 velocity=0 time=0@note_on channel=10 note=88 velocity=100 time=0@note_on channel=11 note=72 velocity=0 time=0@note_on channel=11 note=74 velocity=100 time=0@note_on channel=2 note=76 velocity=0 time=0.15872999999999998@note_on channel=2 note=74 velocity=100 time=0@note_on channel=3 note=76 velocity=0 time=0@note_on channel=3 note=69 velocity=100 time=0@note_on channel=0 note=69 velocity=0 time=0.15872999999999998@note_on channel=0 note=72 velocity=100 time=0@note_on channel=1 note=48 velocity=0 time=0@note_on channel=1 note=40 velocity=100 time=0@note_on channel=2 note=74 velocity=0 time=0@note_on channel=2 note=72 velocity=100 time=0@note_on channel=3 note=69 velocity=0 time=0@note_on channel=3 note=81 velocity=100 time=0@note_on channel=4 note=71 velocity=0 time=0@note_on channel=4 note=72 velocity=100 time=0@note_on channel=5 note=69 velocity=0 time=0@note_on channel=5 note=76 velocity=100 time=0@note_on channel=6 note=81 velocity=0 time=0@note_on channel=6 note=81 velocity=100 time=0@note_on channel=7 note=69 velocity=0 time=0@note_on channel=7 note=76 velocity=100 time=0@note_on channel=8 note=79 velocity=0 time=0@note_on channel=8 note=79 velocity=100 time=0@note_on channel=10 note=88 velocity=0 time=0@note_on channel=10 note=88 velocity=100 time=0@note_on channel=11 note=74 velocity=0 time=0@note_on channel=11 note=76 velocity=100 time=0@note_on channel=6 note=81 velocity=0 time=0.07936499999999999@note_on channel=6 note=79 velocity=100 time=0@note_on channel=0 note=72 velocity=0 time=0.07936499999999999@note_on channel=0 note=74 velocity=100 time=0@note_on channel=2 note=72 velocity=0 time=0@note_on channel=2 note=71 velocity=100 time=0@note_on channel=3 note=81 velocity=0 time=0@note_on channel=3 note=80 velocity=100 time=0@note_on channel=5 note=76 velocity=0 time=0@note_on channel=5 note=74 velocity=100 time=0@note_on channel=6 note=79 velocity=0 time=0@note_on channel=6 note=81 velocity=100 time=0@note_on channel=6 note=81 velocity=0 time=0.07936499999999999@note_on channel=6 note=79 velocity=100 time=0@note_on channel=0 note=74 velocity=0 time=0.07936499999999999@note_on channel=0 note=76 velocity=100 time=0@note_on channel=2 note=71 velocity=0 time=0@note_on channel=2 note=72 velocity=100 time=0@note_on channel=3 note=80 velocity=0 time=0@note_on channel=3 note=81 velocity=100 time=0@note_on channel=4 note=72 velocity=0 time=0@note_on channel=4 note=74 velocity=100 time=0@note_on channel=5 note=74 velocity=0 time=0@note_on channel=5 note=72 velocity=100 time=0@note_on channel=7 note=76 velocity=0 time=0@note_on channel=7 note=72 velocity=100 time=0@note_on channel=8 note=79 velocity=0 time=0@note_on channel=8 note=77 velocity=100 time=0@note_on channel=2 note=72 velocity=0 time=0.15872999999999998@note_on channel=2 note=74 velocity=100 time=0@note_on channel=3 note=81 velocity=0 time=0@note_on channel=3 note=83 velocity=100 time=0@note_on channel=5 note=72 velocity=0 time=0@note_on channel=5 note=71 velocity=100 time=0@note_on channel=6 note=79 velocity=0 time=0@note_on channel=6 note=77 velocity=100 time=0@note_on channel=10 note=88 velocity=0 time=0@note_on channel=10 note=89 velocity=100 time=0@note_on channel=0 note=76 velocity=0 time=0.15872999999999998@note_on channel=0 note=69 velocity=100 time=0@note_on channel=2 note=74 velocity=0 time=0@note_on channel=2 note=76 velocity=100 time=0@note_on channel=3 note=83 velocity=0 time=0@note_on channel=3 note=84 velocity=100 time=0@note_on channel=4 note=74 velocity=0 time=0@note_on channel=4 note=76 velocity=100 time=0@note_on channel=5 note=71 velocity=0 time=0@note_on channel=5 note=69 velocity=100 time=0@note_on channel=6 note=77 velocity=0 time=0@note_on channel=6 note=76 velocity=100 time=0@note_on channel=7 note=72 velocity=0 time=0@note_on channel=7 note=69 velocity=100 time=0@note_on channel=8 note=77 velocity=0 time=0@note_on channel=8 note=76 velocity=100 time=0@note_on channel=10 note=89 velocity=0 time=0@note_on channel=10 note=88 velocity=100 time=0@note_on channel=11 note=76 velocity=0 time=0@note_on channel=11 note=76 velocity=100 time=0@note_on channel=2 note=76 velocity=0 time=0.15872999999999998@note_on channel=2 note=74 velocity=100 time=0@note_on channel=3 note=84 velocity=0 time=0@note_on channel=3 note=81 velocity=100 time=0@note_on channel=0 note=69 velocity=0 time=0.15872999999999998@note_on channel=0 note=67 velocity=100 time=0@note_on channel=1 note=40 velocity=0 time=0@note_on channel=1 note=50 velocity=100 time=0@note_on channel=2 note=74 velocity=0 time=0@note_on channel=2 note=71 velocity=100 time=0@note_on channel=3 note=81 velocity=0 time=0@note_on channel=3 note=84 velocity=100 time=0@note_on channel=4 note=76 velocity=0 time=0@note_on channel=4 note=71 velocity=100 time=0@note_on channel=5 note=69 velocity=0 time=0@note_on channel=5 note=67 velocity=100 time=0@note_on channel=6 note=76 velocity=0 time=0@note_on channel=6 note=74 velocity=100 time=0@note_on channel=7 note=69 velocity=0 time=0@note_on channel=7 note=74 velocity=100 time=0@note_on channel=8 note=76 velocity=0 time=0@note_on channel=8 note=74 velocity=100 time=0@note_on channel=10 note=88 velocity=0 time=0@note_on channel=10 note=86 velocity=100 time=0@note_on channel=11 note=76 velocity=0 time=0@note_on channel=11 note=74 velocity=100 time=0@note_on channel=3 note=84 velocity=0 time=0.07936499999999999@note_on channel=3 note=83 velocity=100 time=0@note_on channel=0 note=67 velocity=0 time=0.07936499999999999@note_on channel=0 note=69 velocity=100 time=0@note_on channel=2 note=71 velocity=0 time=0@note_on channel=2 note=69 velocity=100 time=0@note_on channel=3 note=83 velocity=0 time=0@note_on channel=3 note=84 velocity=100 time=0@note_on channel=3 note=84 velocity=0 time=0.07936499999999999@note_on channel=3 note=83 velocity=100 time=0@note_on channel=0 note=69 velocity=0 time=0.07936499999999999@note_on channel=0 note=71 velocity=100 time=0@note_on channel=2 note=69 velocity=0 time=0@note_on channel=2 note=71 velocity=100 time=0@note_on channel=4 note=71 velocity=0 time=0@note_on channel=4 note=67 velocity=100 time=0@note_on channel=5 note=67 velocity=0 time=0@note_on channel=5 note=71 velocity=100 time=0@note_on channel=6 note=74 velocity=0 time=0@note_on channel=6 note=71 velocity=100 time=0@note_on channel=7 note=74 velocity=0 time=0@note_on channel=7 note=71 velocity=100 time=0@note_on channel=2 note=71 velocity=0 time=0.15872999999999998@note_on channel=2 note=72 velocity=100 time=0@note_on channel=10 note=86 velocity=0 time=0@note_on channel=10 note=88 velocity=100 time=0@note_on channel=0 note=71 velocity=0 time=0.15872999999999998@note_on channel=0 note=67 velocity=100 time=0@note_on channel=2 note=72 velocity=0 time=0@note_on channel=2 note=74 velocity=100 time=0@note_on channel=3 note=83 velocity=0 time=0@note_on channel=3 note=79 velocity=100 time=0@note_on channel=4 note=67 velocity=0 time=0@note_on channel=4 note=69 velocity=100 time=0@note_on channel=5 note=71 velocity=0 time=0@note_on channel=5 note=67 velocity=100 time=0@note_on channel=6 note=71 velocity=0 time=0@note_on channel=6 note=67 velocity=100 time=0@note_on channel=7 note=71 velocity=0 time=0@note_on channel=7 note=67 velocity=100 time=0@note_on channel=8 note=74 velocity=0 time=0@note_on channel=8 note=74 velocity=100 time=0@note_on channel=10 note=88 velocity=0 time=0@note_on channel=10 note=86 velocity=100 time=0@note_on channel=11 note=74 velocity=0 time=0@note_on channel=11 note=71 velocity=100 time=0@note_on channel=2 note=74 velocity=0 time=0.15872999999999998@note_on channel=2 note=72 velocity=100 time=0@note_on channel=0 note=67 velocity=0 time=0.15872999999999998@note_on channel=0 note=71 velocity=100 time=0@note_on channel=1 note=50 velocity=0 time=0@note_on channel=1 note=43 velocity=100 time=0@note_on channel=2 note=72 velocity=0 time=0@note_on channel=2 note=71 velocity=100 time=0@note_on channel=3 note=79 velocity=0 time=0@note_on channel=3 note=79 velocity=100 time=0@note_on channel=4 note=69 velocity=0 time=0@note_on channel=4 note=71 velocity=100 time=0@note_on channel=5 note=67 velocity=0 time=0@note_on channel=5 note=74 velocity=100 time=0@note_on channel=6 note=67 velocity=0 time=0@note_on channel=6 note=74 velocity=100 time=0@note_on channel=7 note=67 velocity=0 time=0@note_on channel=7 note=74 velocity=100 time=0@note_on channel=8 note=74 velocity=0 time=0@note_on channel=8 note=71 velocity=100 time=0@note_on channel=10 note=86 velocity=0 time=0@note_on channel=10 note=83 velocity=100 time=0@note_on channel=11 note=71 velocity=0 time=0@note_on channel=11 note=67 velocity=100 time=0@note_on channel=0 note=71 velocity=0 time=0.15872999999999998@note_on channel=0 note=72 velocity=100 time=0@note_on channel=2 note=71 velocity=0 time=0@note_on channel=2 note=69 velocity=100 time=0@note_on channel=5 note=74 velocity=0 time=0@note_on channel=5 note=72 velocity=100 time=0@note_on channel=0 note=72 velocity=0 time=0.15872999999999998@note_on channel=0 note=74 velocity=100 time=0@note_on channel=2 note=69 velocity=0 time=0@note_on channel=2 note=71 velocity=100 time=0@note_on channel=4 note=71 velocity=0 time=0@note_on channel=4 note=72 velocity=100 time=0@note_on channel=5 note=72 velocity=0 time=0@note_on channel=5 note=71 velocity=100 time=0@note_on channel=6 note=74 velocity=0 time=0@note_on channel=6 note=62 velocity=100 time=0@note_on channel=7 note=74 velocity=0 time=0@note_on channel=7 note=71 velocity=100 time=0@note_on channel=8 note=71 velocity=0 time=0@note_on channel=8 note=72 velocity=100 time=0@note_on channel=2 note=71 velocity=0 time=0.15872999999999998@note_on channel=2 note=72 velocity=100 time=0@note_on channel=5 note=71 velocity=0 time=0@note_on channel=5 note=69 velocity=100 time=0@note_on channel=10 note=83 velocity=0 time=0@note_on channel=10 note=84 velocity=100 time=0@note_on channel=0 note=74 velocity=0 time=0.15872999999999998@note_on channel=0 note=67 velocity=100 time=0@note_on channel=2 note=72 velocity=0 time=0@note_on channel=2 note=74 velocity=100 time=0@note_on channel=4 note=72 velocity=0 time=0@note_on channel=4 note=74 velocity=100 time=0@note_on channel=5 note=69 velocity=0 time=0@note_on channel=5 note=67 velocity=100 time=0@note_on channel=6 note=62 velocity=0 time=0@note_on channel=6 note=77 velocity=100 time=0@note_on channel=7 note=71 velocity=0 time=0@note_on channel=7 note=67 velocity=100 time=0@note_on channel=8 note=72 velocity=0 time=0@note_on channel=8 note=74 velocity=100 time=0@note_on channel=10 note=84 velocity=0 time=0@note_on channel=10 note=86 velocity=100 time=0@note_on channel=2 note=74 velocity=0 time=0.15872999999999998@note_on channel=2 note=72 velocity=100 time=0@note_on channel=6 note=77 velocity=0 time=0@note_on channel=6 note=79 velocity=100 time=0@note_on channel=0 note=67 velocity=0 time=0.15872999999999998@note_on channel=0 note=69 velocity=100 time=0@note_on channel=1 note=43 velocity=0 time=0@note_on channel=1 note=45 velocity=100 time=0@note_on channel=2 note=72 velocity=0 time=0@note_on channel=2 note=72 velocity=100 time=0@note_on channel=3 note=79 velocity=0 time=0@note_on channel=3 note=69 velocity=100 time=0@note_on channel=4 note=74 velocity=0 time=0@note_on channel=4 note=72 velocity=100 time=0@note_on channel=5 note=67 velocity=0 time=0@note_on channel=5 note=69 velocity=100 time=0@note_on channel=6 note=79 velocity=0 time=0@note_on channel=6 note=81 velocity=100 time=0@note_on channel=7 note=67 velocity=0 time=0@note_on channel=7 note=76 velocity=100 time=0@note_on channel=8 note=74 velocity=0 time=0@note_on channel=8 note=72 velocity=100 time=0@note_on channel=10 note=86 velocity=0 time=0@note_on channel=10 note=84 velocity=100 time=0@note_on channel=11 note=67 velocity=0 time=0@note_on channel=11 note=69 velocity=100 time=0@note_on channel=0 note=69 velocity=0 time=0.15872999999999998@note_on channel=0 note=71 velocity=100 time=0@note_on channel=2 note=72 velocity=0 time=0@note_on channel=2 note=71 velocity=100 time=0@note_on channel=3 note=69 velocity=0 time=0@note_on channel=3 note=71 velocity=100 time=0@note_on channel=0 note=71 velocity=0 time=0.15872999999999998@note_on channel=0 note=72 velocity=100 time=0@note_on channel=2 note=71 velocity=0 time=0@note_on channel=2 note=72 velocity=100 time=0@note_on channel=3 note=71 velocity=0 time=0@note_on channel=3 note=72 velocity=100 time=0@note_on channel=4 note=72 velocity=0 time=0@note_on channel=4 note=69 velocity=100 time=0@note_on channel=5 note=69 velocity=0 time=0@note_on channel=5 note=72 velocity=100 time=0@note_on channel=6 note=81 velocity=0 time=0@note_on channel=6 note=69 velocity=100 time=0@note_on channel=7 note=76 velocity=0 time=0@note_on channel=7 note=72 velocity=100 time=0@note_on channel=2 note=72 velocity=0 time=0.15872999999999998@note_on channel=2 note=74 velocity=100 time=0@note_on channel=3 note=72 velocity=0 time=0@note_on channel=3 note=74 velocity=100 time=0@note_on channel=10 note=84 velocity=0 time=0@note_on channel=10 note=83 velocity=100 time=0@note_on channel=11 note=69 velocity=0 time=0@note_on channel=11 note=71 velocity=100 time=0@note_on channel=0 note=72 velocity=0 time=0.15872999999999998@note_on channel=0 note=69 velocity=100 time=0@note_on channel=2 note=74 velocity=0 time=0@note_on channel=2 note=72 velocity=100 time=0@note_on channel=3 note=74 velocity=0 time=0@note_on channel=3 note=76 velocity=100 time=0@note_on channel=4 note=69 velocity=0 time=0@note_on channel=4 note=71 velocity=100 time=0@note_on channel=5 note=72 velocity=0 time=0@note_on channel=5 note=69 velocity=100 time=0@note_on channel=6 note=69 velocity=0 time=0@note_on channel=6 note=83 velocity=100 time=0@note_on channel=7 note=72 velocity=0 time=0@note_on channel=7 note=69 velocity=100 time=0@note_on channel=8 note=72 velocity=0 time=0@note_on channel=8 note=72 velocity=100 time=0@note_on channel=10 note=83 velocity=0 time=0@note_on channel=10 note=84 velocity=100 time=0@note_on channel=11 note=71 velocity=0 time=0@note_on channel=11 note=72 velocity=100 time=0@note_on channel=2 note=72 velocity=0 time=0.15872999999999998@note_on channel=2 note=71 velocity=100 time=0@note_on channel=3 note=76 velocity=0 time=0@note_on channel=3 note=69 velocity=100 time=0@note_on channel=0 note=69 velocity=0 time=0.15872999999999998@note_on channel=0 note=72 velocity=100 time=0@note_on channel=1 note=45 velocity=0 time=0@note_on channel=1 note=38 velocity=100 time=0@note_on channel=2 note=71 velocity=0 time=0@note_on channel=2 note=69 velocity=100 time=0@note_on channel=3 note=69 velocity=0 time=0@note_on channel=3 note=81 velocity=100 time=0@note_on channel=4 note=71 velocity=0 time=0@note_on channel=4 note=72 velocity=100 time=0@note_on channel=5 note=69 velocity=0 time=0@note_on channel=5 note=76 velocity=100 time=0@note_on channel=6 note=83 velocity=0 time=0@note_on channel=6 note=84 velocity=100 time=0@note_on channel=7 note=69 velocity=0 time=0@note_on channel=7 note=76 velocity=100 time=0@note_on channel=8 note=72 velocity=0 time=0@note_on channel=8 note=69 velocity=100 time=0@note_on channel=10 note=84 velocity=0 time=0@note_on channel=10 note=81 velocity=100 time=0@note_on channel=11 note=72 velocity=0 time=0@note_on channel=11 note=74 velocity=100 time=0@note_on channel=0 note=72 velocity=0 time=0.15872999999999998@note_on channel=0 note=74 velocity=100 time=0@note_on channel=2 note=69 velocity=0 time=0@note_on channel=2 note=68 velocity=100 time=0@note_on channel=3 note=81 velocity=0 time=0@note_on channel=3 note=80 velocity=100 time=0@note_on channel=5 note=76 velocity=0 time=0@note_on channel=5 note=74 velocity=100 time=0@note_on channel=0 note=74 velocity=0 time=0.15872999999999998@note_on channel=0 note=76 velocity=100 time=0@note_on channel=2 note=68 velocity=0 time=0@note_on channel=2 note=69 velocity=100 time=0@note_on channel=3 note=80 velocity=0 time=0@note_on channel=3 note=81 velocity=100 time=0@note_on channel=4 note=72 velocity=0 time=0@note_on channel=4 note=74 velocity=100 time=0@note_on channel=5 note=74 velocity=0 time=0@note_on channel=5 note=72 velocity=100 time=0@note_on channel=6 note=84 velocity=0 time=0@note_on channel=6 note=83 velocity=100 time=0@note_on channel=7 note=76 velocity=0 time=0@note_on channel=7 note=72 velocity=100 time=0@note_on channel=8 note=69 velocity=0 time=0@note_on channel=8 note=71 velocity=100 time=0@note_on channel=11 note=74 velocity=0 time=0@note_on channel=11 note=76 velocity=100 time=0@note_on channel=2 note=69 velocity=0 time=0.15872999999999998@note_on channel=2 note=71 velocity=100 time=0@note_on channel=3 note=81 velocity=0 time=0@note_on channel=3 note=83 velocity=100 time=0@note_on channel=5 note=72 velocity=0 time=0@note_on channel=5 note=71 velocity=100 time=0@note_on channel=10 note=81 velocity=0 time=0@note_on channel=10 note=83 velocity=100 time=0@note_on channel=0 note=76 velocity=0 time=0.15872999999999998@note_on channel=0 note=69 velocity=100 time=0@note_on channel=2 note=71 velocity=0 time=0@note_on channel=2 note=72 velocity=100 time=0@note_on channel=3 note=83 velocity=0 time=0@note_on channel=3 note=84 velocity=100 time=0@note_on channel=4 note=74 velocity=0 time=0@note_on channel=4 note=76 velocity=100 time=0@note_on channel=5 note=71 velocity=0 time=0@note_on channel=5 note=69 velocity=100 time=0@note_on channel=6 note=83 velocity=0 time=0@note_on channel=6 note=81 velocity=100 time=0@note_on channel=7 note=72 velocity=0 time=0@note_on channel=7 note=69 velocity=100 time=0@note_on channel=8 note=71 velocity=0 time=0@note_on channel=8 note=72 velocity=100 time=0@note_on channel=10 note=83 velocity=0 time=0@note_on channel=10 note=84 velocity=100 time=0@note_on channel=11 note=76 velocity=0 time=0@note_on channel=11 note=72 velocity=100 time=0@note_on channel=2 note=72 velocity=0 time=0.15872999999999998@note_on channel=2 note=69 velocity=100 time=0@note_on channel=3 note=84 velocity=0 time=0@note_on channel=3 note=81 velocity=100 time=0@note_on channel=0 note=69 velocity=0 time=0.15872999999999998@note_on channel=0 note=64 velocity=100 time=0@note_on channel=1 note=38 velocity=0 time=0@note_on channel=1 note=47 velocity=100 time=0@note_on channel=2 note=69 velocity=0 time=0@note_on channel=2 note=71 velocity=100 time=0@note_on channel=3 note=81 velocity=0 time=0@note_on channel=3 note=81 velocity=100 time=0@note_on channel=4 note=76 velocity=0 time=0@note_on channel=4 note=71 velocity=100 time=0@note_on channel=5 note=69 velocity=0 time=0@note_on channel=5 note=64 velocity=100 time=0@note_on channel=6 note=81 velocity=0 time=0@note_on channel=6 note=80 velocity=100 time=0@note_on channel=7 note=69 velocity=0 time=0@note_on channel=7 note=71 velocity=100 time=0@note_on channel=8 note=72 velocity=0 time=0@note_on channel=8 note=71 velocity=100 time=0@note_on channel=10 note=84 velocity=0 time=0@note_on channel=10 note=83 velocity=100 time=0@note_on channel=11 note=72 velocity=0 time=0@note_on channel=11 note=71 velocity=100 time=0@note_on channel=3 note=81 velocity=0 time=0.07936499999999999@note_on channel=3 note=80 velocity=100 time=0@note_on channel=0 note=64 velocity=0 time=0.07936499999999999@note_on channel=0 note=66 velocity=100 time=0@note_on channel=2 note=71 velocity=0 time=0@note_on channel=2 note=69 velocity=100 time=0@note_on channel=3 note=80 velocity=0 time=0@note_on channel=3 note=81 velocity=100 time=0@note_on channel=3 note=81 velocity=0 time=0.07936499999999999@note_on channel=3 note=80 velocity=100 time=0@note_on channel=0 note=66 velocity=0 time=0.07936499999999999@note_on channel=0 note=68 velocity=100 time=0@note_on channel=2 note=69 velocity=0 time=0@note_on channel=2 note=71 velocity=100 time=0@note_on channel=5 note=64 velocity=0 time=0@note_on channel=5 note=68 velocity=100 time=0@note_on channel=6 note=80 velocity=0 time=0@note_on channel=6 note=76 velocity=100 time=0@note_on channel=7 note=71 velocity=0 time=0@note_on channel=7 note=68 velocity=100 time=0@note_on channel=2 note=71 velocity=0 time=0.15872999999999998@note_on channel=2 note=69 velocity=100 time=0@note_on channel=10 note=83 velocity=0 time=0@note_on channel=10 note=81 velocity=100 time=0@note_on channel=0 note=68 velocity=0 time=0.15872999999999998@note_on channel=0 note=64 velocity=100 time=0@note_on channel=2 note=69 velocity=0 time=0@note_on channel=2 note=68 velocity=100 time=0@note_on channel=3 note=80 velocity=0 time=0@note_on channel=3 note=76 velocity=100 time=0@note_on channel=4 note=71 velocity=0 time=0@note_on channel=4 note=68 velocity=100 time=0@note_on channel=5 note=68 velocity=0 time=0@note_on channel=5 note=64 velocity=100 time=0@note_on channel=6 note=76 velocity=0 time=0@note_on channel=6 note=71 velocity=100 time=0@note_on channel=7 note=68 velocity=0 time=0@note_on channel=7 note=64 velocity=100 time=0@note_on channel=8 note=71 velocity=0 time=0@note_on channel=8 note=71 velocity=100 time=0@note_on channel=10 note=81 velocity=0 time=0@note_on channel=10 note=83 velocity=100 time=0@note_on channel=11 note=71 velocity=0 time=0@note_on channel=11 note=68 velocity=100 time=0@note_on channel=2 note=68 velocity=0 time=0.15872999999999998@note_on channel=2 note=66 velocity=100 time=0@note_on channel=0 note=64 velocity=0 time=0.15872999999999998@note_on channel=0 note=68 velocity=100 time=0@note_on channel=1 note=47 velocity=0 time=0@note_on channel=1 note=40 velocity=100 time=0@note_on channel=2 note=66 velocity=0 time=0@note_on channel=2 note=64 velocity=100 time=0@note_on channel=3 note=76 velocity=0 time=0@note_on channel=3 note=76 velocity=100 time=0@note_on channel=4 note=68 velocity=0 time=0@note_on channel=4 note=64 velocity=100 time=0@note_on channel=5 note=64 velocity=0 time=0@note_on channel=5 note=71 velocity=100 time=0@note_on channel=6 note=71 velocity=0 time=0@note_on channel=6 note=76 velocity=100 time=0@note_on channel=7 note=64 velocity=0 time=0@note_on channel=7 note=71 velocity=100 time=0@note_on channel=8 note=71 velocity=0 time=0@note_on channel=8 note=68 velocity=100 time=0@note_on channel=10 note=83 velocity=0 time=0@note_on channel=10 note=80 velocity=100 time=0@note_on channel=11 note=68 velocity=0 time=0@note_on channel=11 note=64 velocity=100 time=0@note_on channel=0 note=68 velocity=0 time=0.15872999999999998@note_on channel=0 note=69 velocity=100 time=0@note_on channel=2 note=64 velocity=0 time=0@note_on channel=2 note=66 velocity=100 time=0@note_on channel=5 note=71 velocity=0 time=0@note_on channel=5 note=69 velocity=100 time=0@note_on channel=0 note=69 velocity=0 time=0.15872999999999998@note_on channel=0 note=71 velocity=100 time=0@note_on channel=2 note=66 velocity=0 time=0@note_on channel=2 note=68 velocity=100 time=0@note_on channel=5 note=69 velocity=0 time=0@note_on channel=5 note=68 velocity=100 time=0@note_on channel=6 note=76 velocity=0 time=0@note_on channel=6 note=77 velocity=100 time=0@note_on channel=7 note=71 velocity=0 time=0@note_on channel=7 note=68 velocity=100 time=0@note_on channel=8 note=68 velocity=0 time=0@note_on channel=8 note=69 velocity=100 time=0@note_on channel=6 note=77 velocity=0 time=0.07936499999999999@note_on channel=6 note=76 velocity=100 time=0@note_on channel=2 note=68 velocity=0 time=0.07936499999999999@note_on channel=2 note=69 velocity=100 time=0@note_on channel=5 note=68 velocity=0 time=0@note_on channel=5 note=66 velocity=100 time=0@note_on channel=6 note=76 velocity=0 time=0@note_on channel=6 note=77 velocity=100 time=0@note_on channel=10 note=80 velocity=0 time=0@note_on channel=10 note=81 velocity=100 time=0@note_on channel=6 note=77 velocity=0 time=0.07936499999999999@note_on channel=6 note=76 velocity=100 time=0@note_on channel=0 note=71 velocity=0 time=0.07936499999999999@note_on channel=0 note=64 velocity=100 time=0@note_on channel=2 note=69 velocity=0 time=0@note_on channel=2 note=68 velocity=100 time=0@note_on channel=5 note=66 velocity=0 time=0@note_on channel=5 note=64 velocity=100 time=0@note_on channel=7 note=68 velocity=0 time=0@note_on channel=7 note=64 velocity=100 time=0@note_on channel=8 note=69 velocity=0 time=0@note_on channel=8 note=71 velocity=100 time=0@note_on channel=10 note=81 velocity=0 time=0@note_on channel=10 note=83 velocity=100 time=0@note_on channel=2 note=68 velocity=0 time=0.15872999999999998@note_on channel=2 note=64 velocity=100 time=0@note_on channel=6 note=76 velocity=0 time=0@note_on channel=6 note=77 velocity=100 time=0@note_on channel=0 note=64 velocity=0 time=0.15872999999999998@note_on channel=0 note=72 velocity=100 time=0@note_on channel=1 note=40 velocity=0 time=0@note_on channel=1 note=48 velocity=100 time=0@note_on channel=2 note=64 velocity=0 time=0@note_on channel=2 note=72 velocity=100 time=0@note_on channel=3 note=76 velocity=0 time=0@note_on channel=3 note=72 velocity=100 time=0@note_on channel=4 note=64 velocity=0 time=0@note_on channel=4 note=76 velocity=100 time=0@note_on channel=5 note=64 velocity=0 time=0@note_on channel=5 note=72 velocity=100 time=0@note_on channel=6 note=77 velocity=0 time=0@note_on channel=6 note=79 velocity=100 time=0@note_on channel=7 note=64 velocity=0 time=0@note_on channel=7 note=79 velocity=100 time=0@note_on channel=8 note=71 velocity=0 time=0@note_on channel=8 note=79 velocity=100 time=0@note_on channel=10 note=83 velocity=0 time=0@note_on channel=10 note=84 velocity=100 time=0@note_on channel=11 note=64 velocity=0 time=0@note_on channel=11 note=72 velocity=100 time=0@note_on channel=7 note=79 velocity=0 time=0.07936499999999999@note_on channel=7 note=81 velocity=100 time=0@note_on channel=0 note=72 velocity=0 time=0.07936499999999999@note_on channel=0 note=74 velocity=100 time=0@note_on channel=2 note=72 velocity=0 time=0@note_on channel=2 note=71 velocity=100 time=0@note_on channel=3 note=72 velocity=0 time=0@note_on channel=3 note=71 velocity=100 time=0@note_on channel=7 note=81 velocity=0 time=0@note_on channel=7 note=79 velocity=100 time=0@note_on channel=0 note=74 velocity=0 time=0.15872999999999998@note_on channel=0 note=76 velocity=100 time=0@note_on channel=2 note=71 velocity=0 time=0@note_on channel=2 note=72 velocity=100 time=0@note_on channel=3 note=71 velocity=0 time=0@note_on channel=3 note=72 velocity=100 time=0@note_on channel=4 note=76 velocity=0 time=0@note_on channel=4 note=72 velocity=100 time=0@note_on channel=5 note=72 velocity=0 time=0@note_on channel=5 note=76 velocity=100 time=0@note_on channel=6 note=79 velocity=0 time=0@note_on channel=6 note=72 velocity=100 time=0@note_on channel=7 note=79 velocity=0 time=0@note_on channel=7 note=76 velocity=100 time=0@note_on channel=2 note=72 velocity=0 time=0.15872999999999998@note_on channel=2 note=74 velocity=100 time=0@note_on channel=3 note=72 velocity=0 time=0@note_on channel=3 note=74 velocity=100 time=0@note_on channel=10 note=84 velocity=0 time=0@note_on channel=10 note=86 velocity=100 time=0@note_on channel=0 note=76 velocity=0 time=0.15872999999999998@note_on channel=0 note=72 velocity=100 time=0@note_on channel=2 note=74 velocity=0 time=0@note_on channel=2 note=76 velocity=100 time=0@note_on channel=3 note=74 velocity=0 time=0@note_on channel=3 note=76 velocity=100 time=0@note_on channel=4 note=72 velocity=0 time=0@note_on channel=4 note=74 velocity=100 time=0@note_on channel=5 note=76 velocity=0 time=0@note_on channel=5 note=72 velocity=100 time=0@note_on channel=6 note=72 velocity=0 time=0@note_on channel=6 note=81 velocity=100 time=0@note_on channel=7 note=76 velocity=0 time=0@note_on channel=7 note=72 velocity=100 time=0@note_on channel=8 note=79 velocity=0 time=0@note_on channel=8 note=79 velocity=100 time=0@note_on channel=10 note=86 velocity=0 time=0@note_on channel=10 note=88 velocity=100 time=0@note_on channel=11 note=72 velocity=0 time=0@note_on channel=11 note=74 velocity=100 time=0@note_on channel=2 note=76 velocity=0 time=0.15872999999999998@note_on channel=2 note=74 velocity=100 time=0@note_on channel=3 note=76 velocity=0 time=0@note_on channel=3 note=77 velocity=100 time=0@note_on channel=0 note=72 velocity=0 time=0.15872999999999998@note_on channel=0 note=76 velocity=100 time=0@note_on channel=1 note=48 velocity=0 time=0@note_on channel=1 note=40 velocity=100 time=0@note_on channel=2 note=74 velocity=0 time=0@note_on channel=2 note=72 velocity=100 time=0@note_on channel=3 note=77 velocity=0 time=0@note_on channel=3 note=79 velocity=100 time=0@note_on channel=4 note=74 velocity=0 time=0@note_on channel=4 note=76 velocity=100 time=0@note_on channel=5 note=72 velocity=0 time=0@note_on channel=5 note=79 velocity=100 time=0@note_on channel=6 note=81 velocity=0 time=0@note_on channel=6 note=81 velocity=100 time=0@note_on channel=7 note=72 velocity=0 time=0@note_on channel=7 note=79 velocity=100 time=0@note_on channel=8 note=79 velocity=0 time=0@note_on channel=8 note=79 velocity=100 time=0@note_on channel=10 note=88 velocity=0 time=0@note_on channel=10 note=88 velocity=100 time=0@note_on channel=11 note=74 velocity=0 time=0@note_on channel=11 note=76 velocity=100 time=0@note_on channel=6 note=81 velocity=0 time=0.07936499999999999@note_on channel=6 note=79 velocity=100 time=0@note_on channel=7 note=79 velocity=0 time=0@note_on channel=7 note=81 velocity=100 time=0@note_on channel=0 note=76 velocity=0 time=0.07936499999999999@note_on channel=0 note=77 velocity=100 time=0@note_on channel=2 note=72 velocity=0 time=0@note_on channel=2 note=71 velocity=100 time=0@note_on channel=3 note=79 velocity=0 time=0@note_on channel=3 note=81 velocity=100 time=0@note_on channel=5 note=79 velocity=0 time=0@note_on channel=5 note=77 velocity=100 time=0@note_on channel=6 note=79 velocity=0 time=0@note_on channel=6 note=81 velocity=100 time=0@note_on channel=7 note=81 velocity=0 time=0@note_on channel=7 note=79 velocity=100 time=0@note_on channel=6 note=81 velocity=0 time=0.07936499999999999@note_on channel=6 note=79 velocity=100 time=0@note_on channel=0 note=77 velocity=0 time=0.07936499999999999@note_on channel=0 note=79 velocity=100 time=0@note_on channel=2 note=71 velocity=0 time=0@note_on channel=2 note=72 velocity=100 time=0@note_on channel=3 note=81 velocity=0 time=0@note_on channel=3 note=83 velocity=100 time=0@note_on channel=4 note=76 velocity=0 time=0@note_on channel=4 note=77 velocity=100 time=0@note_on channel=5 note=77 velocity=0 time=0@note_on channel=5 note=76 velocity=100 time=0@note_on channel=7 note=79 velocity=0 time=0@note_on channel=7 note=76 velocity=100 time=0@note_on channel=8 note=79 velocity=0 time=0@note_on channel=8 note=77 velocity=100 time=0@note_on channel=2 note=72 velocity=0 time=0.15872999999999998@note_on channel=2 note=74 velocity=100 time=0@note_on channel=3 note=83 velocity=0 time=0@note_on channel=3 note=79 velocity=100 time=0@note_on channel=5 note=76 velocity=0 time=0@note_on channel=5 note=74 velocity=100 time=0@note_on channel=6 note=79 velocity=0 time=0@note_on channel=6 note=77 velocity=100 time=0@note_on channel=10 note=88 velocity=0 time=0@note_on channel=10 note=89 velocity=100 time=0@note_on channel=11 note=76 velocity=0 time=0@note_on channel=11 note=74 velocity=100 time=0@note_on channel=0 note=79 velocity=0 time=0.15872999999999998@note_on channel=0 note=72 velocity=100 time=0@note_on channel=2 note=74 velocity=0 time=0@note_on channel=2 note=76 velocity=100 time=0@note_on channel=3 note=79 velocity=0 time=0@note_on channel=3 note=81 velocity=100 time=0@note_on channel=4 note=77 velocity=0 time=0@note_on channel=4 note=79 velocity=100 time=0@note_on channel=5 note=74 velocity=0 time=0@note_on channel=5 note=72 velocity=100 time=0@note_on channel=6 note=77 velocity=0 time=0@note_on channel=6 note=76 velocity=100 time=0@note_on channel=7 note=76 velocity=0 time=0@note_on channel=7 note=72 velocity=100 time=0@note_on channel=8 note=77 velocity=0 time=0@note_on channel=8 note=76 velocity=100 time=0@note_on channel=10 note=89 velocity=0 time=0@note_on channel=10 note=91 velocity=100 time=0@note_on channel=11 note=74 velocity=0 time=0@note_on channel=11 note=72 velocity=100 time=0@note_on channel=2 note=76 velocity=0 time=0.15872999999999998@note_on channel=2 note=74 velocity=100 time=0@note_on channel=3 note=81 velocity=0 time=0@note_on channel=3 note=83 velocity=100 time=0@note_on channel=0 note=72 velocity=0 time=0.15872999999999998@note_on channel=0 note=67 velocity=100 time=0@note_on channel=1 note=40 velocity=0 time=0@note_on channel=1 note=50 velocity=100 time=0@note_on channel=2 note=74 velocity=0 time=0@note_on channel=2 note=74 velocity=100 time=0@note_on channel=3 note=83 velocity=0 time=0@note_on channel=3 note=81 velocity=100 time=0@note_on channel=4 note=79 velocity=0 time=0@note_on channel=4 note=71 velocity=100 time=0@note_on channel=5 note=72 velocity=0 time=0@note_on channel=5 note=67 velocity=100 time=0@note_on channel=6 note=76 velocity=0 time=0@note_on channel=6 note=74 velocity=100 time=0@note_on channel=7 note=72 velocity=0 time=0@note_on channel=7 note=74 velocity=100 time=0@note_on channel=8 note=76 velocity=0 time=0@note_on channel=8 note=74 velocity=100 time=0@note_on channel=10 note=91 velocity=0 time=0@note_on channel=10 note=86 velocity=100 time=0@note_on channel=11 note=72 velocity=0 time=0@note_on channel=11 note=74 velocity=100 time=0@note_on channel=3 note=81 velocity=0 time=0.07936499999999999@note_on channel=3 note=79 velocity=100 time=0@note_on channel=7 note=74 velocity=0 time=0@note_on channel=7 note=72 velocity=100 time=0@note_on channel=0 note=67 velocity=0 time=0.07936499999999999@note_on channel=0 note=69 velocity=100 time=0@note_on channel=2 note=74 velocity=0 time=0@note_on channel=2 note=72 velocity=100 time=0@note_on channel=3 note=79 velocity=0 time=0@note_on channel=3 note=81 velocity=100 time=0@note_on channel=7 note=72 velocity=0 time=0@note_on channel=7 note=74 velocity=100 time=0@note_on channel=3 note=81 velocity=0 time=0.07936499999999999@note_on channel=3 note=79 velocity=100 time=0@note_on channel=0 note=69 velocity=0 time=0.07936499999999999@note_on channel=0 note=71 velocity=100 time=0@note_on channel=2 note=72 velocity=0 time=0@note_on channel=2 note=74 velocity=100 time=0@note_on channel=3 note=79 velocity=0 time=0@note_on channel=3 note=74 velocity=100 time=0@note_on channel=4 note=71 velocity=0 time=0@note_on channel=4 note=67 velocity=100 time=0@note_on channel=5 note=67 velocity=0 time=0@note_on channel=5 note=71 velocity=100 time=0@note_on channel=6 note=74 velocity=0 time=0@note_on channel=6 note=71 velocity=100 time=0@note_on channel=7 note=74 velocity=0 time=0@note_on channel=7 note=71 velocity=100 time=0@note_on channel=2 note=74 velocity=0 time=0.15872999999999998@note_on channel=2 note=76 velocity=100 time=0@note_on channel=10 note=86 velocity=0 time=0@note_on channel=10 note=88 velocity=100 time=0@note_on channel=0 note=71 velocity=0 time=0.15872999999999998@note_on channel=0 note=67 velocity=100 time=0@note_on channel=2 note=76 velocity=0 time=0@note_on channel=2 note=74 velocity=100 time=0@note_on channel=3 note=74 velocity=0 time=0@note_on channel=3 note=74 velocity=100 time=0@note_on channel=4 note=67 velocity=0 time=0@note_on channel=4 note=69 velocity=100 time=0@note_on channel=5 note=71 velocity=0 time=0@note_on channel=5 note=67 velocity=100 time=0@note_on channel=6 note=71 velocity=0 time=0@note_on channel=6 note=67 velocity=100 time=0@note_on channel=7 note=71 velocity=0 time=0@note_on channel=7 note=67 velocity=100 time=0@note_on channel=8 note=74 velocity=0 time=0@note_on channel=8 note=74 velocity=100 time=0@note_on channel=10 note=88 velocity=0 time=0@note_on channel=10 note=86 velocity=100 time=0@note_on channel=11 note=74 velocity=0 time=0@note_on channel=11 note=71 velocity=100 time=0@note_on channel=2 note=74 velocity=0 time=0.15872999999999998@note_on channel=2 note=72 velocity=100 time=0@note_on channel=0 note=67 velocity=0 time=0.15872999999999998@note_on channel=0 note=71 velocity=100 time=0@note_on channel=1 note=50 velocity=0 time=0@note_on channel=1 note=43 velocity=100 time=0@note_on channel=2 note=72 velocity=0 time=0@note_on channel=2 note=71 velocity=100 time=0@note_on channel=3 note=74 velocity=0 time=0@note_on channel=3 note=74 velocity=100 time=0@note_on channel=4 note=69 velocity=0 time=0@note_on channel=4 note=71 velocity=100 time=0@note_on channel=5 note=67 velocity=0 time=0@note_on channel=5 note=74 velocity=100 time=0@note_on channel=6 note=67 velocity=0 time=0@note_on channel=6 note=74 velocity=100 time=0@note_on channel=7 note=67 velocity=0 time=0@note_on channel=7 note=74 velocity=100 time=0@note_on channel=8 note=74 velocity=0 time=0@note_on channel=8 note=71 velocity=100 time=0@note_on channel=10 note=86 velocity=0 time=0@note_on channel=10 note=83 velocity=100 time=0@note_on channel=11 note=71 velocity=0 time=0@note_on channel=11 note=67 velocity=100 time=0@note_on channel=7 note=74 velocity=0 time=0.07936499999999999@note_on channel=7 note=72 velocity=100 time=0@note_on channel=0 note=71 velocity=0 time=0.07936499999999999@note_on channel=0 note=72 velocity=100 time=0@note_on channel=2 note=71 velocity=0 time=0@note_on channel=2 note=69 velocity=100 time=0@note_on channel=5 note=74 velocity=0 time=0@note_on channel=5 note=72 velocity=100 time=0@note_on channel=7 note=72 velocity=0 time=0@note_on channel=7 note=74 velocity=100 time=0@note_on channel=0 note=72 velocity=0 time=0.15872999999999998@note_on channel=0 note=74 velocity=100 time=0@note_on channel=2 note=69 velocity=0 time=0@note_on channel=2 note=71 velocity=100 time=0@note_on channel=4 note=71 velocity=0 time=0@note_on channel=4 note=72 velocity=100 time=0@note_on channel=5 note=72 velocity=0 time=0@note_on channel=5 note=71 velocity=100 time=0@note_on channel=6 note=74 velocity=0 time=0@note_on channel=6 note=62 velocity=100 time=0@note_on channel=7 note=74 velocity=0 time=0@note_on channel=7 note=71 velocity=100 time=0@note_on channel=8 note=71 velocity=0 time=0@note_on channel=8 note=72 velocity=100 time=0@note_on channel=2 note=71 velocity=0 time=0.15872999999999998@note_on channel=2 note=72 velocity=100 time=0@note_on channel=3 note=74 velocity=0 time=0@note_on channel=3 note=76 velocity=100 time=0@note_on channel=5 note=71 velocity=0 time=0@note_on channel=5 note=69 velocity=100 time=0@note_on channel=10 note=83 velocity=0 time=0@note_on channel=10 note=84 velocity=100 time=0@note_on channel=11 note=67 velocity=0 time=0@note_on channel=11 note=69 velocity=100 time=0@note_on channel=0 note=74 velocity=0 time=0.15872999999999998@note_on channel=0 note=67 velocity=100 time=0@note_on channel=2 note=72 velocity=0 time=0@note_on channel=2 note=74 velocity=100 time=0@note_on channel=3 note=76 velocity=0 time=0@note_on channel=3 note=77 velocity=100 time=0@note_on channel=4 note=72 velocity=0 time=0@note_on channel=4 note=74 velocity=100 time=0@note_on channel=5 note=69 velocity=0 time=0@note_on channel=5 note=67 velocity=100 time=0@note_on channel=6 note=62 velocity=0 time=0@note_on channel=6 note=76 velocity=100 time=0@note_on channel=7 note=71 velocity=0 time=0@note_on channel=7 note=67 velocity=100 time=0@note_on channel=8 note=72 velocity=0 time=0@note_on channel=8 note=74 velocity=100 time=0@note_on channel=10 note=84 velocity=0 time=0@note_on channel=10 note=86 velocity=100 time=0@note_on channel=11 note=69 velocity=0 time=0@note_on channel=11 note=71 velocity=100 time=0@note_on channel=2 note=74 velocity=0 time=0.15872999999999998@note_on channel=2 note=72 velocity=100 time=0@note_on channel=6 note=76 velocity=0 time=0@note_on channel=6 note=74 velocity=100 time=0@note_on channel=0 note=67 velocity=0 time=0.15872999999999998@note_on channel=0 note=81 velocity=100 time=0@note_on channel=1 note=43 velocity=0 time=0@note_on channel=1 note=45 velocity=100 time=0@note_on channel=2 note=72 velocity=0 time=0@note_on channel=2 note=72 velocity=100 time=0@note_on channel=3 note=77 velocity=0 time=0@note_on channel=3 note=72 velocity=100 time=0@note_on channel=4 note=74 velocity=0 time=0@note_on channel=4 note=72 velocity=100 time=0@note_on channel=5 note=67 velocity=0 time=0@note_on channel=5 note=76 velocity=100 time=0@note_on channel=6 note=74 velocity=0 time=0@note_on channel=6 note=72 velocity=100 time=0@note_on channel=7 note=67 velocity=0 time=0@note_on channel=7 note=76 velocity=100 time=0@note_on channel=8 note=74 velocity=0 time=0@note_on channel=8 note=76 velocity=100 time=0@note_on channel=10 note=86 velocity=0 time=0@note_on channel=10 note=84 velocity=100 time=0@note_on channel=11 note=71 velocity=0 time=0@note_on channel=11 note=72 velocity=100 time=0@note_on channel=4 note=72 velocity=0 time=0.07936499999999999@note_on channel=4 note=74 velocity=100 time=0@note_on channel=0 note=81 velocity=0 time=0.07936499999999999@note_on channel=0 note=83 velocity=100 time=0@note_on channel=2 note=72 velocity=0 time=0@note_on channel=2 note=71 velocity=100 time=0@note_on channel=4 note=74 velocity=0 time=0@note_on channel=4 note=72 velocity=100 time=0@note_on channel=5 note=76 velocity=0 time=0@note_on channel=5 note=74 velocity=100 time=0@note_on channel=0 note=83 velocity=0 time=0.15872999999999998@note_on channel=0 note=84 velocity=100 time=0@note_on channel=2 note=71 velocity=0 time=0@note_on channel=2 note=72 velocity=100 time=0@note_on channel=3 note=72 velocity=0 time=0@note_on channel=3 note=71 velocity=100 time=0@note_on channel=4 note=72 velocity=0 time=0@note_on channel=4 note=69 velocity=100 time=0@note_on channel=5 note=74 velocity=0 time=0@note_on channel=5 note=72 velocity=100 time=0@note_on channel=6 note=72 velocity=0 time=0@note_on channel=6 note=71 velocity=100 time=0@note_on channel=7 note=76 velocity=0 time=0@note_on channel=7 note=72 velocity=100 time=0@note_on channel=8 note=76 velocity=0 time=0@note_on channel=8 note=74 velocity=100 time=0@note_on channel=10 note=84 velocity=0 time=0@note_on channel=10 note=83 velocity=100 time=0@note_on channel=2 note=72 velocity=0 time=0.15872999999999998@note_on channel=2 note=74 velocity=100 time=0@note_on channel=5 note=72 velocity=0 time=0@note_on channel=5 note=71 velocity=100 time=0@note_on channel=11 note=72 velocity=0 time=0@note_on channel=11 note=71 velocity=100 time=0@note_on channel=0 note=84 velocity=0 time=0.15872999999999998@note_on channel=0 note=81 velocity=100 time=0@note_on channel=2 note=74 velocity=0 time=0@note_on channel=2 note=76 velocity=100 time=0@note_on channel=3 note=71 velocity=0 time=0@note_on channel=3 note=69 velocity=100 time=0@note_on channel=4 note=69 velocity=0 time=0@note_on channel=4 note=72 velocity=100 time=0@note_on channel=5 note=71 velocity=0 time=0@note_on channel=5 note=69 velocity=100 time=0@note_on channel=6 note=71 velocity=0 time=0@note_on channel=6 note=69 velocity=100 time=0@note_on channel=7 note=72 velocity=0 time=0@note_on channel=7 note=69 velocity=100 time=0@note_on channel=8 note=74 velocity=0 time=0@note_on channel=8 note=72 velocity=100 time=0@note_on channel=10 note=83 velocity=0 time=0@note_on channel=10 note=81 velocity=100 time=0@note_on channel=11 note=71 velocity=0 time=0@note_on channel=11 note=69 velocity=100 time=0@note_on channel=2 note=76 velocity=0 time=0.15872999999999998@note_on channel=2 note=74 velocity=100 time=0@note_on channel=0 note=81 velocity=0 time=0.15872999999999998@note_on channel=0 note=80 velocity=100 time=0@note_on channel=1 note=45 velocity=0 time=0@note_on channel=1 note=38 velocity=100 time=0@note_on channel=2 note=74 velocity=0 time=0@note_on channel=2 note=74 velocity=100 time=0@note_on channel=3 note=69 velocity=0 time=0@note_on channel=3 note=69 velocity=100 time=0@note_on channel=4 note=72 velocity=0 time=0@note_on channel=4 note=71 velocity=100 time=0@note_on channel=5 note=69 velocity=0 time=0@note_on channel=5 note=71 velocity=100 time=0@note_on channel=6 note=69 velocity=0 time=0@note_on channel=6 note=71 velocity=100 time=0@note_on channel=7 note=69 velocity=0 time=0@note_on channel=7 note=71 velocity=100 time=0@note_on channel=8 note=72 velocity=0 time=0@note_on channel=8 note=74 velocity=100 time=0@note_on channel=10 note=81 velocity=0 time=0@note_on channel=10 note=81 velocity=100 time=0@note_on channel=11 note=69 velocity=0 time=0@note_on channel=11 note=72 velocity=100 time=0@note_on channel=3 note=69 velocity=0 time=0.07936499999999999@note_on channel=3 note=68 velocity=100 time=0@note_on channel=4 note=71 velocity=0 time=0@note_on channel=4 note=72 velocity=100 time=0@note_on channel=7 note=71 velocity=0 time=0@note_on channel=7 note=72 velocity=100 time=0@note_on channel=10 note=81 velocity=0 time=0@note_on channel=10 note=80 velocity=100 time=0@note_on channel=11 note=72 velocity=0 time=0@note_on channel=11 note=71 velocity=100 time=0@note_on channel=0 note=80 velocity=0 time=0.07936499999999999@note_on channel=0 note=81 velocity=100 time=0@note_on channel=2 note=74 velocity=0 time=0@note_on channel=2 note=72 velocity=100 time=0@note_on channel=3 note=68 velocity=0 time=0@note_on channel=3 note=69 velocity=100 time=0@note_on channel=4 note=72 velocity=0 time=0@note_on channel=4 note=71 velocity=100 time=0@note_on channel=5 note=71 velocity=0 time=0@note_on channel=5 note=69 velocity=100 time=0@note_on channel=7 note=72 velocity=0 time=0@note_on channel=7 note=71 velocity=100 time=0@note_on channel=10 note=80 velocity=0 time=0@note_on channel=10 note=81 velocity=100 time=0@note_on channel=11 note=71 velocity=0 time=0@note_on channel=11 note=72 velocity=100 time=0@note_on channel=3 note=69 velocity=0 time=0.07936499999999999@note_on channel=3 note=68 velocity=100 time=0@note_on channel=10 note=81 velocity=0 time=0@note_on channel=10 note=80 velocity=100 time=0@note_on channel=11 note=72 velocity=0 time=0@note_on channel=11 note=71 velocity=100 time=0@note_on channel=0 note=81 velocity=0 time=0.07936499999999999@note_on channel=0 note=83 velocity=100 time=0@note_on channel=2 note=72 velocity=0 time=0@note_on channel=2 note=71 velocity=100 time=0@note_on channel=4 note=71 velocity=0 time=0@note_on channel=4 note=68 velocity=100 time=0@note_on channel=5 note=69 velocity=0 time=0@note_on channel=5 note=68 velocity=100 time=0@note_on channel=6 note=71 velocity=0 time=0@note_on channel=6 note=68 velocity=100 time=0@note_on channel=7 note=71 velocity=0 time=0@note_on channel=7 note=68 velocity=100 time=0@note_on channel=8 note=74 velocity=0 time=0@note_on channel=8 note=72 velocity=100 time=0@note_on channel=8 note=72 velocity=0 time=0.07936499999999999@note_on channel=8 note=71 velocity=100 time=0@note_on channel=2 note=71 velocity=0 time=0.07936499999999999@note_on channel=2 note=69 velocity=100 time=0@note_on channel=3 note=68 velocity=0 time=0@note_on channel=3 note=66 velocity=100 time=0@note_on channel=5 note=68 velocity=0 time=0@note_on channel=5 note=66 velocity=100 time=0@note_on channel=8 note=71 velocity=0 time=0@note_on channel=8 note=72 velocity=100 time=0@note_on channel=10 note=80 velocity=0 time=0@note_on channel=10 note=78 velocity=100 time=0@note_on channel=11 note=71 velocity=0 time=0@note_on channel=11 note=69 velocity=100 time=0@note_on channel=8 note=72 velocity=0 time=0.07936499999999999@note_on channel=8 note=71 velocity=100 time=0@note_on channel=0 note=83 velocity=0 time=0.07936499999999999@note_on channel=0 note=80 velocity=100 time=0@note_on channel=2 note=69 velocity=0 time=0@note_on channel=2 note=71 velocity=100 time=0@note_on channel=3 note=66 velocity=0 time=0@note_on channel=3 note=68 velocity=100 time=0@note_on channel=4 note=68 velocity=0 time=0@note_on channel=4 note=64 velocity=100 time=0@note_on channel=5 note=66 velocity=0 time=0@note_on channel=5 note=64 velocity=100 time=0@note_on channel=6 note=68 velocity=0 time=0@note_on channel=6 note=64 velocity=100 time=0@note_on channel=7 note=68 velocity=0 time=0@note_on channel=7 note=64 velocity=100 time=0@note_on channel=10 note=78 velocity=0 time=0@note_on channel=10 note=80 velocity=100 time=0@note_on channel=11 note=69 velocity=0 time=0@note_on channel=11 note=68 velocity=100 time=0@note_on channel=2 note=71 velocity=0 time=0.15872999999999998@note_on channel=2 note=68 velocity=100 time=0@note_on channel=8 note=71 velocity=0 time=0@note_on channel=8 note=69 velocity=100 time=0@note_on channel=8 note=69 velocity=0 time=0.07936499999999999@note_on channel=8 note=71 velocity=100 time=0@note_on channel=0 note=80 velocity=0 time=0.07936499999999999@note_on channel=0 note=81 velocity=100 time=0@note_on channel=1 note=38 velocity=0 time=0@note_on channel=1 note=45 velocity=100 time=0@note_on channel=2 note=68 velocity=0 time=0@note_on channel=2 note=69 velocity=100 time=0@note_on channel=3 note=68 velocity=0 time=0@note_on channel=3 note=69 velocity=100 time=0@note_on channel=4 note=64 velocity=0 time=0@note_on channel=4 note=69 velocity=100 time=0@note_on channel=5 note=64 velocity=0 time=0@note_on channel=5 note=69 velocity=100 time=0@note_on channel=6 note=64 velocity=0 time=0@note_on channel=6 note=69 velocity=100 time=0@note_on channel=7 note=64 velocity=0 time=0@note_on channel=7 note=69 velocity=100 time=0@note_on channel=8 note=71 velocity=0 time=0@note_on channel=8 note=69 velocity=100 time=0@note_on channel=10 note=80 velocity=0 time=0@note_on channel=10 note=81 velocity=100 time=0@note_on channel=11 note=68 velocity=0 time=0@note_on channel=11 note=69 velocity=100 time=0@note_on channel=0 note=81 velocity=0 time=0.07936499999999999@note_on channel=0 note=80 velocity=100 time=0@note_on channel=0 note=80 velocity=0 time=0.07936499999999999@note_on channel=0 note=81 velocity=100 time=0@note_on channel=0 note=81 velocity=0 time=0.79365@note_on channel=0 note=81 velocity=100 time=0@note_on channel=2 note=69 velocity=0 time=0@note_on channel=2 note=69 velocity=100 time=0@note_on channel=3 note=69 velocity=0 time=0@note_on channel=3 note=69 velocity=100 time=0@note_on channel=4 note=69 velocity=0 time=0@note_on channel=4 note=69 velocity=100 time=0@note_on channel=5 note=69 velocity=0 time=0@note_on channel=5 note=69 velocity=100 time=0@note_on channel=6 note=69 velocity=0 time=0@note_on channel=6 note=69 velocity=100 time=0@note_on channel=7 note=69 velocity=0 time=0@note_on channel=7 note=69 velocity=100 time=0@note_on channel=8 note=69 velocity=0 time=0@note_on channel=8 note=69 velocity=100 time=0@note_on channel=10 note=81 velocity=0 time=0@note_on channel=10 note=81 velocity=100 time=0@note_on channel=11 note=69 velocity=0 time=0@note_on channel=11 note=69 velocity=100 time=0@note_on channel=5 note=69 velocity=0 time=0.07936499999999999@note_on channel=5 note=68 velocity=100 time=0@note_on channel=5 note=68 velocity=0 time=0.07936499999999999@note_on channel=5 note=69 velocity=100 time=0@note_on channel=0 note=81 velocity=0 time=0.79365@note_on channel=0 note=84 velocity=100 time=0@note_on channel=1 note=45 velocity=0 time=0@note_on channel=1 note=48 velocity=100 time=0@note_on channel=2 note=69 velocity=0 time=0@note_on channel=2 note=69 velocity=100 time=0@note_on channel=3 note=69 velocity=0 time=0@note_on channel=3 note=72 velocity=100 time=0@note_on channel=4 note=69 velocity=0 time=0@note_on channel=4 note=69 velocity=100 time=0@note_on channel=5 note=69 velocity=0 time=0@note_on channel=5 note=72 velocity=100 time=0@note_on channel=6 note=69 velocity=0 time=0@note_on channel=6 note=69 velocity=100 time=0@note_on channel=7 note=69 velocity=0 time=0@note_on channel=7 note=79 velocity=100 time=0@note_on channel=8 note=69 velocity=0 time=0@note_on channel=8 note=76 velocity=100 time=0@note_on channel=10 note=81 velocity=0 time=0@note_on channel=10 note=91 velocity=100 time=0@note_on channel=11 note=69 velocity=0 time=0@note_on channel=11 note=72 velocity=100 time=0@note_on channel=12 note=60 velocity=100 time=0@note_on channel=2 note=69 velocity=0 time=0.15872999999999998@note_on channel=2 note=71 velocity=100 time=0@note_on channel=3 note=72 velocity=0 time=0@note_on channel=3 note=71 velocity=100 time=0@note_on channel=4 note=69 velocity=0 time=0@note_on channel=4 note=71 velocity=100 time=0@note_on channel=0 note=84 velocity=0 time=0.15872999999999998@note_on channel=0 note=84 velocity=100 time=0@note_on channel=2 note=71 velocity=0 time=0@note_on channel=2 note=72 velocity=100 time=0@note_on channel=3 note=71 velocity=0 time=0@note_on channel=3 note=72 velocity=100 time=0@note_on channel=4 note=71 velocity=0 time=0@note_on channel=4 note=72 velocity=100 time=0@note_on channel=5 note=72 velocity=0 time=0@note_on channel=5 note=69 velocity=100 time=0@note_on channel=6 note=69 velocity=0 time=0@note_on channel=6 note=72 velocity=100 time=0@note_on channel=7 note=79 velocity=0 time=0@note_on channel=7 note=72 velocity=100 time=0@note_on channel=8 note=76 velocity=0 time=0@note_on channel=8 note=72 velocity=100 time=0@note_on channel=3 note=72 velocity=0 time=0.15872999999999998@note_on channel=3 note=74 velocity=100 time=0@note_on channel=4 note=72 velocity=0 time=0@note_on channel=4 note=74 velocity=100 time=0@note_on channel=11 note=72 velocity=0 time=0@note_on channel=11 note=74 velocity=100 time=0@note_on channel=0 note=84 velocity=0 time=0.15872999999999998@note_on channel=0 note=84 velocity=100 time=0@note_on channel=2 note=72 velocity=0 time=0@note_on channel=2 note=69 velocity=100 time=0@note_on channel=3 note=74 velocity=0 time=0@note_on channel=3 note=76 velocity=100 time=0@note_on channel=4 note=74 velocity=0 time=0@note_on channel=4 note=76 velocity=100 time=0@note_on channel=5 note=69 velocity=0 time=0@note_on channel=5 note=71 velocity=100 time=0@note_on channel=6 note=72 velocity=0 time=0@note_on channel=6 note=69 velocity=100 time=0@note_on channel=7 note=72 velocity=0 time=0@note_on channel=7 note=81 velocity=100 time=0@note_on channel=8 note=72 velocity=0 time=0@note_on channel=8 note=69 velocity=100 time=0@note_on channel=10 note=91 velocity=0 time=0@note_on channel=10 note=91 velocity=100 time=0@note_on channel=11 note=74 velocity=0 time=0@note_on channel=11 note=76 velocity=100 time=0@note_on channel=12 note=60 velocity=0 time=0@note_on channel=12 note=62 velocity=100 time=0@note_on channel=3 note=76 velocity=0 time=0.15872999999999998@note_on channel=3 note=74 velocity=100 time=0@note_on channel=4 note=76 velocity=0 time=0@note_on channel=4 note=69 velocity=100 time=0@note_on channel=0 note=84 velocity=0 time=0.15872999999999998@note_on channel=0 note=72 velocity=100 time=0@note_on channel=1 note=48 velocity=0 time=0@note_on channel=1 note=40 velocity=100 time=0@note_on channel=2 note=69 velocity=0 time=0@note_on channel=2 note=72 velocity=100 time=0@note_on channel=3 note=74 velocity=0 time=0@note_on channel=3 note=72 velocity=100 time=0@note_on channel=4 note=69 velocity=0 time=0@note_on channel=4 note=81 velocity=100 time=0@note_on channel=5 note=71 velocity=0 time=0@note_on channel=5 note=72 velocity=100 time=0@note_on channel=6 note=69 velocity=0 time=0@note_on channel=6 note=76 velocity=100 time=0@note_on channel=7 note=81 velocity=0 time=0@note_on channel=7 note=81 velocity=100 time=0@note_on channel=8 note=69 velocity=0 time=0@note_on channel=8 note=76 velocity=100 time=0@note_on channel=10 note=91 velocity=0 time=0@note_on channel=10 note=91 velocity=100 time=0@note_on channel=11 note=76 velocity=0 time=0@note_on channel=11 note=76 velocity=100 time=0@note_on channel=12 note=62 velocity=0 time=0@note_on channel=12 note=64 velocity=100 time=0@note_on channel=7 note=81 velocity=0 time=0.07936499999999999@note_on channel=7 note=79 velocity=100 time=0@note_on channel=2 note=72 velocity=0 time=0.07936499999999999@note_on channel=2 note=74 velocity=100 time=0@note_on channel=3 note=72 velocity=0 time=0@note_on channel=3 note=71 velocity=100 time=0@note_on channel=4 note=81 velocity=0 time=0@note_on channel=4 note=80 velocity=100 time=0@note_on channel=6 note=76 velocity=0 time=0@note_on channel=6 note=74 velocity=100 time=0@note_on channel=7 note=79 velocity=0 time=0@note_on channel=7 note=81 velocity=100 time=0@note_on channel=7 note=81 velocity=0 time=0.07936499999999999@note_on channel=7 note=79 velocity=100 time=0@note_on channel=0 note=72 velocity=0 time=0.07936499999999999@note_on channel=0 note=72 velocity=100 time=0@note_on channel=2 note=74 velocity=0 time=0@note_on channel=2 note=76 velocity=100 time=0@note_on channel=3 note=71 velocity=0 time=0@note_on channel=3 note=72 velocity=100 time=0@note_on channel=4 note=80 velocity=0 time=0@note_on channel=4 note=81 velocity=100 time=0@note_on channel=5 note=72 velocity=0 time=0@note_on channel=5 note=74 velocity=100 time=0@note_on channel=6 note=74 velocity=0 time=0@note_on channel=6 note=72 velocity=100 time=0@note_on channel=8 note=76 velocity=0 time=0@note_on channel=8 note=72 velocity=100 time=0@note_on channel=10 note=91 velocity=0 time=0@note_on channel=10 note=89 velocity=100 time=0@note_on channel=3 note=72 velocity=0 time=0.15872999999999998@note_on channel=3 note=74 velocity=100 time=0@note_on channel=4 note=81 velocity=0 time=0@note_on channel=4 note=83 velocity=100 time=0@note_on channel=6 note=72 velocity=0 time=0@note_on channel=6 note=71 velocity=100 time=0@note_on channel=7 note=79 velocity=0 time=0@note_on channel=7 note=77 velocity=100 time=0@note_on channel=11 note=76 velocity=0 time=0@note_on channel=11 note=77 velocity=100 time=0@note_on channel=0 note=72 velocity=0 time=0.15872999999999998@note_on channel=0 note=72 velocity=100 time=0@note_on channel=2 note=76 velocity=0 time=0@note_on channel=2 note=69 velocity=100 time=0@note_on channel=3 note=74 velocity=0 time=0@note_on channel=3 note=76 velocity=100 time=0@note_on channel=4 note=83 velocity=0 time=0@note_on channel=4 note=84 velocity=100 time=0@note_on channel=5 note=74 velocity=0 time=0@note_on channel=5 note=76 velocity=100 time=0@note_on channel=6 note=71 velocity=0 time=0@note_on channel=6 note=69 velocity=100 time=0@note_on channel=7 note=77 velocity=0 time=0@note_on channel=7 note=76 velocity=100 time=0@note_on channel=8 note=72 velocity=0 time=0@note_on channel=8 note=69 velocity=100 time=0@note_on channel=10 note=89 velocity=0 time=0@note_on channel=10 note=88 velocity=100 time=0@note_on channel=11 note=77 velocity=0 time=0@note_on channel=11 note=76 velocity=100 time=0@note_on channel=12 note=64 velocity=0 time=0@note_on channel=12 note=64 velocity=100 time=0@note_on channel=3 note=76 velocity=0 time=0.15872999999999998@note_on channel=3 note=74 velocity=100 time=0@note_on channel=4 note=84 velocity=0 time=0@note_on channel=4 note=81 velocity=100 time=0@note_on channel=0 note=72 velocity=0 time=0.15872999999999998@note_on channel=0 note=79 velocity=100 time=0@note_on channel=1 note=40 velocity=0 time=0@note_on channel=1 note=50 velocity=100 time=0@note_on channel=2 note=69 velocity=0 time=0@note_on channel=2 note=67 velocity=100 time=0@note_on channel=3 note=74 velocity=0 time=0@note_on channel=3 note=71 velocity=100 time=0@note_on channel=4 note=81 velocity=0 time=0@note_on channel=4 note=84 velocity=100 time=0@note_on channel=5 note=76 velocity=0 time=0@note_on channel=5 note=71 velocity=100 time=0@note_on channel=6 note=69 velocity=0 time=0@note_on channel=6 note=67 velocity=100 time=0@note_on channel=7 note=76 velocity=0 time=0@note_on channel=7 note=74 velocity=100 time=0@note_on channel=8 note=69 velocity=0 time=0@note_on channel=8 note=74 velocity=100 time=0@note_on channel=10 note=88 velocity=0 time=0@note_on channel=10 note=86 velocity=100 time=0@note_on channel=11 note=76 velocity=0 time=0@note_on channel=11 note=74 velocity=100 time=0@note_on channel=12 note=64 velocity=0 time=0@note_on channel=12 note=62 velocity=100 time=0@note_on channel=4 note=84 velocity=0 time=0.07936499999999999@note_on channel=4 note=83 velocity=100 time=0@note_on channel=2 note=67 velocity=0 time=0.07936499999999999@note_on channel=2 note=69 velocity=100 time=0@note_on channel=3 note=71 velocity=0 time=0@note_on channel=3 note=69 velocity=100 time=0@note_on channel=4 note=83 velocity=0 time=0@note_on channel=4 note=84 velocity=100 time=0@note_on channel=4 note=84 velocity=0 time=0.07936499999999999@note_on channel=4 note=83 velocity=100 time=0@note_on channel=0 note=79 velocity=0 time=0.07936499999999999@note_on channel=0 note=79 velocity=100 time=0@note_on channel=2 note=69 velocity=0 time=0@note_on channel=2 note=71 velocity=100 time=0@note_on channel=3 note=69 velocity=0 time=0@note_on channel=3 note=71 velocity=100 time=0@note_on channel=5 note=71 velocity=0 time=0@note_on channel=5 note=67 velocity=100 time=0@note_on channel=6 note=67 velocity=0 time=0@note_on channel=6 note=71 velocity=100 time=0@note_on channel=7 note=74 velocity=0 time=0@note_on channel=7 note=71 velocity=100 time=0@note_on channel=8 note=74 velocity=0 time=0@note_on channel=8 note=71 velocity=100 time=0@note_on channel=3 note=71 velocity=0 time=0.15872999999999998@note_on channel=3 note=72 velocity=100 time=0@note_on channel=11 note=74 velocity=0 time=0@note_on channel=11 note=76 velocity=100 time=0@note_on channel=0 note=79 velocity=0 time=0.15872999999999998@note_on channel=0 note=79 velocity=100 time=0@note_on channel=2 note=71 velocity=0 time=0@note_on channel=2 note=67 velocity=100 time=0@note_on channel=3 note=72 velocity=0 time=0@note_on channel=3 note=74 velocity=100 time=0@note_on channel=4 note=83 velocity=0 time=0@note_on channel=4 note=79 velocity=100 time=0@note_on channel=5 note=67 velocity=0 time=0@note_on channel=5 note=69 velocity=100 time=0@note_on channel=6 note=71 velocity=0 time=0@note_on channel=6 note=67 velocity=100 time=0@note_on channel=7 note=71 velocity=0 time=0@note_on channel=7 note=67 velocity=100 time=0@note_on channel=8 note=71 velocity=0 time=0@note_on channel=8 note=67 velocity=100 time=0@note_on channel=10 note=86 velocity=0 time=0@note_on channel=10 note=86 velocity=100 time=0@note_on channel=11 note=76 velocity=0 time=0@note_on channel=11 note=74 velocity=100 time=0@note_on channel=12 note=62 velocity=0 time=0@note_on channel=12 note=59 velocity=100 time=0@note_on channel=3 note=74 velocity=0 time=0.15872999999999998@note_on channel=3 note=72 velocity=100 time=0@note_on channel=0 note=79 velocity=0 time=0.15872999999999998@note_on channel=0 note=67 velocity=100 time=0@note_on channel=1 note=50 velocity=0 time=0@note_on channel=1 note=43 velocity=100 time=0@note_on channel=2 note=67 velocity=0 time=0@note_on channel=2 note=71 velocity=100 time=0@note_on channel=3 note=72 velocity=0 time=0@note_on channel=3 note=71 velocity=100 time=0@note_on channel=4 note=79 velocity=0 time=0@note_on channel=4 note=79 velocity=100 time=0@note_on channel=5 note=69 velocity=0 time=0@note_on channel=5 note=71 velocity=100 time=0@note_on channel=6 note=67 velocity=0 time=0@note_on channel=6 note=74 velocity=100 time=0@note_on channel=7 note=67 velocity=0 time=0@note_on channel=7 note=74 velocity=100 time=0@note_on channel=8 note=67 velocity=0 time=0@note_on channel=8 note=74 velocity=100 time=0@note_on channel=10 note=86 velocity=0 time=0@note_on channel=10 note=83 velocity=100 time=0@note_on channel=11 note=74 velocity=0 time=0@note_on channel=11 note=71 velocity=100 time=0@note_on channel=12 note=59 velocity=0 time=0@note_on channel=12 note=55 velocity=100 time=0@note_on channel=2 note=71 velocity=0 time=0.15872999999999998@note_on channel=2 note=72 velocity=100 time=0@note_on channel=3 note=71 velocity=0 time=0@note_on channel=3 note=69 velocity=100 time=0@note_on channel=6 note=74 velocity=0 time=0@note_on channel=6 note=72 velocity=100 time=0@note_on channel=2 note=72 velocity=0 time=0.15872999999999998@note_on channel=2 note=74 velocity=100 time=0@note_on channel=3 note=69 velocity=0 time=0@note_on channel=3 note=71 velocity=100 time=0@note_on channel=5 note=71 velocity=0 time=0@note_on channel=5 note=72 velocity=100 time=0@note_on channel=6 note=72 velocity=0 time=0@note_on channel=6 note=71 velocity=100 time=0@note_on channel=7 note=74 velocity=0 time=0@note_on channel=7 note=62 velocity=100 time=0@note_on channel=8 note=74 velocity=0 time=0@note_on channel=8 note=71 velocity=100 time=0@note_on channel=10 note=83 velocity=0 time=0@note_on channel=10 note=84 velocity=100 time=0@note_on channel=0 note=67 velocity=0 time=0.15872999999999998@note_on channel=0 note=69 velocity=100 time=0@note_on channel=3 note=71 velocity=0 time=0@note_on channel=3 note=72 velocity=100 time=0@note_on channel=6 note=71 velocity=0 time=0@note_on channel=6 note=69 velocity=100 time=0@note_on channel=11 note=71 velocity=0 time=0@note_on channel=11 note=72 velocity=100 time=0@note_on channel=0 note=69 velocity=0 time=0.15872999999999998@note_on channel=0 note=71 velocity=100 time=0@note_on channel=2 note=74 velocity=0 time=0@note_on channel=2 note=67 velocity=100 time=0@note_on channel=3 note=72 velocity=0 time=0@note_on channel=3 note=74 velocity=100 time=0@note_on channel=5 note=72 velocity=0 time=0@note_on channel=5 note=74 velocity=100 time=0@note_on channel=6 note=69 velocity=0 time=0@note_on channel=6 note=67 velocity=100 time=0@note_on channel=7 note=62 velocity=0 time=0@note_on channel=7 note=77 velocity=100 time=0@note_on channel=8 note=71 velocity=0 time=0@note_on channel=8 note=67 velocity=100 time=0@note_on channel=10 note=84 velocity=0 time=0@note_on channel=10 note=86 velocity=100 time=0@note_on channel=11 note=72 velocity=0 time=0@note_on channel=11 note=74 velocity=100 time=0@note_on channel=3 note=74 velocity=0 time=0.15872999999999998@note_on channel=3 note=72 velocity=100 time=0@note_on channel=7 note=77 velocity=0 time=0@note_on channel=7 note=79 velocity=100 time=0@note_on channel=0 note=71 velocity=0 time=0.15872999999999998@note_on channel=0 note=81 velocity=100 time=0@note_on channel=1 note=43 velocity=0 time=0@note_on channel=1 note=45 velocity=100 time=0@note_on channel=2 note=67 velocity=0 time=0@note_on channel=2 note=69 velocity=100 time=0@note_on channel=3 note=72 velocity=0 time=0@note_on channel=3 note=72 velocity=100 time=0@note_on channel=4 note=79 velocity=0 time=0@note_on channel=4 note=69 velocity=100 time=0@note_on channel=5 note=74 velocity=0 time=0@note_on channel=5 note=72 velocity=100 time=0@note_on channel=6 note=67 velocity=0 time=0@note_on channel=6 note=69 velocity=100 time=0@note_on channel=7 note=79 velocity=0 time=0@note_on channel=7 note=81 velocity=100 time=0@note_on channel=8 note=67 velocity=0 time=0@note_on channel=8 note=76 velocity=100 time=0@note_on channel=10 note=86 velocity=0 time=0@note_on channel=10 note=84 velocity=100 time=0@note_on channel=11 note=74 velocity=0 time=0@note_on channel=11 note=72 velocity=100 time=0@note_on channel=12 note=55 velocity=0 time=0@note_on channel=12 note=57 velocity=100 time=0@note_on channel=2 note=69 velocity=0 time=0.15872999999999998@note_on channel=2 note=71 velocity=100 time=0@note_on channel=3 note=72 velocity=0 time=0@note_on channel=3 note=71 velocity=100 time=0@note_on channel=4 note=69 velocity=0 time=0@note_on channel=4 note=71 velocity=100 time=0@note_on channel=0 note=81 velocity=0 time=0.15872999999999998@note_on channel=0 note=81 velocity=100 time=0@note_on channel=2 note=71 velocity=0 time=0@note_on channel=2 note=72 velocity=100 time=0@note_on channel=3 note=71 velocity=0 time=0@note_on channel=3 note=72 velocity=100 time=0@note_on channel=4 note=71 velocity=0 time=0@note_on channel=4 note=72 velocity=100 time=0@note_on channel=5 note=72 velocity=0 time=0@note_on channel=5 note=69 velocity=100 time=0@note_on channel=6 note=69 velocity=0 time=0@note_on channel=6 note=72 velocity=100 time=0@note_on channel=7 note=81 velocity=0 time=0@note_on channel=7 note=69 velocity=100 time=0@note_on channel=8 note=76 velocity=0 time=0@note_on channel=8 note=72 velocity=100 time=0@note_on channel=3 note=72 velocity=0 time=0.15872999999999998@note_on channel=3 note=74 velocity=100 time=0@note_on channel=4 note=72 velocity=0 time=0@note_on channel=4 note=74 velocity=100 time=0@note_on channel=11 note=72 velocity=0 time=0@note_on channel=11 note=71 velocity=100 time=0@note_on channel=12 note=57 velocity=0 time=0@note_on channel=12 note=59 velocity=100 time=0@note_on channel=0 note=81 velocity=0 time=0.15872999999999998@note_on channel=0 note=81 velocity=100 time=0@note_on channel=2 note=72 velocity=0 time=0@note_on channel=2 note=69 velocity=100 time=0@note_on channel=3 note=74 velocity=0 time=0@note_on channel=3 note=72 velocity=100 time=0@note_on channel=4 note=74 velocity=0 time=0@note_on channel=4 note=76 velocity=100 time=0@note_on channel=5 note=69 velocity=0 time=0@note_on channel=5 note=71 velocity=100 time=0@note_on channel=6 note=72 velocity=0 time=0@note_on channel=6 note=69 velocity=100 time=0@note_on channel=7 note=69 velocity=0 time=0@note_on channel=7 note=83 velocity=100 time=0@note_on channel=8 note=72 velocity=0 time=0@note_on channel=8 note=69 velocity=100 time=0@note_on channel=10 note=84 velocity=0 time=0@note_on channel=10 note=84 velocity=100 time=0@note_on channel=11 note=71 velocity=0 time=0@note_on channel=11 note=72 velocity=100 time=0@note_on channel=12 note=59 velocity=0 time=0@note_on channel=12 note=60 velocity=100 time=0@note_on channel=3 note=72 velocity=0 time=0.15872999999999998@note_on channel=3 note=71 velocity=100 time=0@note_on channel=4 note=76 velocity=0 time=0@note_on channel=4 note=69 velocity=100 time=0@note_on channel=0 note=81 velocity=0 time=0.15872999999999998@note_on channel=0 note=69 velocity=100 time=0@note_on channel=1 note=45 velocity=0 time=0@note_on channel=1 note=38 velocity=100 time=0@note_on channel=2 note=69 velocity=0 time=0@note_on channel=2 note=72 velocity=100 time=0@note_on channel=3 note=71 velocity=0 time=0@note_on channel=3 note=69 velocity=100 time=0@note_on channel=4 note=69 velocity=0 time=0@note_on channel=4 note=81 velocity=100 time=0@note_on channel=5 note=71 velocity=0 time=0@note_on channel=5 note=72 velocity=100 time=0@note_on channel=6 note=69 velocity=0 time=0@note_on channel=6 note=76 velocity=100 time=0@note_on channel=7 note=83 velocity=0 time=0@note_on channel=7 note=84 velocity=100 time=0@note_on channel=8 note=69 velocity=0 time=0@note_on channel=8 note=76 velocity=100 time=0@note_on channel=10 note=84 velocity=0 time=0@note_on channel=10 note=81 velocity=100 time=0@note_on channel=11 note=72 velocity=0 time=0@note_on channel=11 note=69 velocity=100 time=0@note_on channel=12 note=60 velocity=0 time=0@note_on channel=12 note=62 velocity=100 time=0@note_on channel=2 note=72 velocity=0 time=0.15872999999999998@note_on channel=2 note=74 velocity=100 time=0@note_on channel=3 note=69 velocity=0 time=0@note_on channel=3 note=68 velocity=100 time=0@note_on channel=4 note=81 velocity=0 time=0@note_on channel=4 note=80 velocity=100 time=0@note_on channel=6 note=76 velocity=0 time=0@note_on channel=6 note=74 velocity=100 time=0@note_on channel=2 note=74 velocity=0 time=0.15872999999999998@note_on channel=2 note=76 velocity=100 time=0@note_on channel=3 note=68 velocity=0 time=0@note_on channel=3 note=69 velocity=100 time=0@note_on channel=4 note=80 velocity=0 time=0@note_on channel=4 note=81 velocity=100 time=0@note_on channel=5 note=72 velocity=0 time=0@note_on channel=5 note=74 velocity=100 time=0@note_on channel=6 note=74 velocity=0 time=0@note_on channel=6 note=72 velocity=100 time=0@note_on channel=7 note=84 velocity=0 time=0@note_on channel=7 note=83 velocity=100 time=0@note_on channel=8 note=76 velocity=0 time=0@note_on channel=8 note=72 velocity=100 time=0@note_on channel=10 note=81 velocity=0 time=0@note_on channel=10 note=83 velocity=100 time=0@note_on channel=12 note=62 velocity=0 time=0@note_on channel=12 note=64 velocity=100 time=0@note_on channel=0 note=69 velocity=0 time=0.15872999999999998@note_on channel=0 note=71 velocity=100 time=0@note_on channel=3 note=69 velocity=0 time=0@note_on channel=3 note=71 velocity=100 time=0@note_on channel=4 note=81 velocity=0 time=0@note_on channel=4 note=83 velocity=100 time=0@note_on channel=6 note=72 velocity=0 time=0@note_on channel=6 note=71 velocity=100 time=0@note_on channel=11 note=69 velocity=0 time=0@note_on channel=11 note=71 velocity=100 time=0@note_on channel=0 note=71 velocity=0 time=0.15872999999999998@note_on channel=0 note=72 velocity=100 time=0@note_on channel=2 note=76 velocity=0 time=0@note_on channel=2 note=69 velocity=100 time=0@note_on channel=3 note=71 velocity=0 time=0@note_on channel=3 note=72 velocity=100 time=0@note_on channel=4 note=83 velocity=0 time=0@note_on channel=4 note=84 velocity=100 time=0@note_on channel=5 note=74 velocity=0 time=0@note_on channel=5 note=76 velocity=100 time=0@note_on channel=6 note=71 velocity=0 time=0@note_on channel=6 note=69 velocity=100 time=0@note_on channel=7 note=83 velocity=0 time=0@note_on channel=7 note=81 velocity=100 time=0@note_on channel=8 note=72 velocity=0 time=0@note_on channel=8 note=69 velocity=100 time=0@note_on channel=10 note=83 velocity=0 time=0@note_on channel=10 note=84 velocity=100 time=0@note_on channel=11 note=71 velocity=0 time=0@note_on channel=11 note=72 velocity=100 time=0@note_on channel=12 note=64 velocity=0 time=0@note_on channel=12 note=60 velocity=100 time=0@note_on channel=0 note=72 velocity=0 time=0.15872999999999998@note_on channel=0 note=74 velocity=100 time=0@note_on channel=3 note=72 velocity=0 time=0@note_on channel=3 note=69 velocity=100 time=0@note_on channel=4 note=84 velocity=0 time=0@note_on channel=4 note=81 velocity=100 time=0@note_on channel=0 note=74 velocity=0 time=0.15872999999999998@note_on channel=0 note=76 velocity=100 time=0@note_on channel=1 note=38 velocity=0 time=0@note_on channel=1 note=47 velocity=100 time=0@note_on channel=2 note=69 velocity=0 time=0@note_on channel=2 note=64 velocity=100 time=0@note_on channel=3 note=69 velocity=0 time=0@note_on channel=3 note=71 velocity=100 time=0@note_on channel=4 note=81 velocity=0 time=0@note_on channel=4 note=81 velocity=100 time=0@note_on channel=5 note=76 velocity=0 time=0@note_on channel=5 note=71 velocity=100 time=0@note_on channel=6 note=69 velocity=0 time=0@note_on channel=6 note=64 velocity=100 time=0@note_on channel=7 note=81 velocity=0 time=0@note_on channel=7 note=80 velocity=100 time=0@note_on channel=8 note=69 velocity=0 time=0@note_on channel=8 note=71 velocity=100 time=0@note_on channel=10 note=84 velocity=0 time=0@note_on channel=10 note=83 velocity=100 time=0@note_on channel=11 note=72 velocity=0 time=0@note_on channel=11 note=71 velocity=100 time=0@note_on channel=12 note=60 velocity=0 time=0@note_on channel=12 note=59 velocity=100 time=0@note_on channel=4 note=81 velocity=0 time=0.07936499999999999@note_on channel=4 note=80 velocity=100 time=0@note_on channel=2 note=64 velocity=0 time=0.07936499999999999@note_on channel=2 note=66 velocity=100 time=0@note_on channel=3 note=71 velocity=0 time=0@note_on channel=3 note=69 velocity=100 time=0@note_on channel=4 note=80 velocity=0 time=0@note_on channel=4 note=81 velocity=100 time=0@note_on channel=4 note=81 velocity=0 time=0.07936499999999999@note_on channel=4 note=80 velocity=100 time=0@note_on channel=0 note=76 velocity=0 time=0.07936499999999999@note_on channel=0 note=76 velocity=100 time=0@note_on channel=2 note=66 velocity=0 time=0@note_on channel=2 note=68 velocity=100 time=0@note_on channel=3 note=69 velocity=0 time=0@note_on channel=3 note=71 velocity=100 time=0@note_on channel=6 note=64 velocity=0 time=0@note_on channel=6 note=68 velocity=100 time=0@note_on channel=7 note=80 velocity=0 time=0@note_on channel=7 note=76 velocity=100 time=0@note_on channel=8 note=71 velocity=0 time=0@note_on channel=8 note=68 velocity=100 time=0@note_on channel=3 note=71 velocity=0 time=0.15872999999999998@note_on channel=3 note=69 velocity=100 time=0@note_on channel=11 note=71 velocity=0 time=0@note_on channel=11 note=69 velocity=100 time=0@note_on channel=0 note=76 velocity=0 time=0.15872999999999998@note_on channel=0 note=76 velocity=100 time=0@note_on channel=2 note=68 velocity=0 time=0@note_on channel=2 note=64 velocity=100 time=0@note_on channel=3 note=69 velocity=0 time=0@note_on channel=3 note=68 velocity=100 time=0@note_on channel=4 note=80 velocity=0 time=0@note_on channel=4 note=76 velocity=100 time=0@note_on channel=5 note=71 velocity=0 time=0@note_on channel=5 note=68 velocity=100 time=0@note_on channel=6 note=68 velocity=0 time=0@note_on channel=6 note=64 velocity=100 time=0@note_on channel=7 note=76 velocity=0 time=0@note_on channel=7 note=71 velocity=100 time=0@note_on channel=8 note=68 velocity=0 time=0@note_on channel=8 note=64 velocity=100 time=0@note_on channel=10 note=83 velocity=0 time=0@note_on channel=10 note=83 velocity=100 time=0@note_on channel=11 note=69 velocity=0 time=0@note_on channel=11 note=71 velocity=100 time=0@note_on channel=12 note=59 velocity=0 time=0@note_on channel=12 note=56 velocity=100 time=0@note_on channel=3 note=68 velocity=0 time=0.15872999999999998@note_on channel=3 note=66 velocity=100 time=0@note_on channel=0 note=76 velocity=0 time=0.15872999999999998@note_on channel=0 note=68 velocity=100 time=0@note_on channel=1 note=47 velocity=0 time=0@note_on channel=1 note=40 velocity=100 time=0@note_on channel=2 note=64 velocity=0 time=0@note_on channel=2 note=68 velocity=100 time=0@note_on channel=3 note=66 velocity=0 time=0@note_on channel=3 note=64 velocity=100 time=0@note_on channel=4 note=76 velocity=0 time=0@note_on channel=4 note=76 velocity=100 time=0@note_on channel=5 note=68 velocity=0 time=0@note_on channel=5 note=64 velocity=100 time=0@note_on channel=6 note=64 velocity=0 time=0@note_on channel=6 note=71 velocity=100 time=0@note_on channel=7 note=71 velocity=0 time=0@note_on channel=7 note=76 velocity=100 time=0@note_on channel=8 note=64 velocity=0 time=0@note_on channel=8 note=71 velocity=100 time=0@note_on channel=10 note=83 velocity=0 time=0@note_on channel=10 note=80 velocity=100 time=0@note_on channel=11 note=71 velocity=0 time=0@note_on channel=11 note=68 velocity=100 time=0@note_on channel=12 note=56 velocity=0 time=0@note_on channel=12 note=52 velocity=100 time=0@note_on channel=0 note=68 velocity=0 time=0.07936499999999999@note_on channel=0 note=69 velocity=100 time=0@note_on channel=0 note=69 velocity=0 time=0.07936499999999999@note_on channel=0 note=68 velocity=100 time=0@note_on channel=2 note=68 velocity=0 time=0@note_on channel=2 note=69 velocity=100 time=0@note_on channel=3 note=64 velocity=0 time=0@note_on channel=3 note=66 velocity=100 time=0@note_on channel=6 note=71 velocity=0 time=0@note_on channel=6 note=69 velocity=100 time=0@note_on channel=0 note=68 velocity=0 time=0.15872999999999998@note_on channel=0 note=64 velocity=100 time=0@note_on channel=2 note=69 velocity=0 time=0@note_on channel=2 note=71 velocity=100 time=0@note_on channel=3 note=66 velocity=0 time=0@note_on channel=3 note=68 velocity=100 time=0@note_on channel=6 note=69 velocity=0 time=0@note_on channel=6 note=68 velocity=100 time=0@note_on channel=7 note=76 velocity=0 time=0@note_on channel=7 note=77 velocity=100 time=0@note_on channel=8 note=71 velocity=0 time=0@note_on channel=8 note=68 velocity=100 time=0@note_on channel=10 note=80 velocity=0 time=0@note_on channel=10 note=81 velocity=100 time=0@note_on channel=7 note=77 velocity=0 time=0.07936499999999999@note_on channel=7 note=76 velocity=100 time=0@note_on channel=3 note=68 velocity=0 time=0.07936499999999999@note_on channel=3 note=69 velocity=100 time=0@note_on channel=6 note=68 velocity=0 time=0@note_on channel=6 note=66 velocity=100 time=0@note_on channel=7 note=76 velocity=0 time=0@note_on channel=7 note=77 velocity=100 time=0@note_on channel=11 note=68 velocity=0 time=0@note_on channel=11 note=69 velocity=100 time=0@note_on channel=7 note=77 velocity=0 time=0.07936499999999999@note_on channel=7 note=76 velocity=100 time=0@note_on channel=0 note=64 velocity=0 time=0.07936499999999999@note_on channel=0 note=64 velocity=100 time=0@note_on channel=2 note=71 velocity=0 time=0@note_on channel=2 note=64 velocity=100 time=0@note_on channel=3 note=69 velocity=0 time=0@note_on channel=3 note=68 velocity=100 time=0@note_on channel=6 note=66 velocity=0 time=0@note_on channel=6 note=64 velocity=100 time=0@note_on channel=8 note=68 velocity=0 time=0@note_on channel=8 note=64 velocity=100 time=0@note_on channel=10 note=81 velocity=0 time=0@note_on channel=10 note=83 velocity=100 time=0@note_on channel=11 note=69 velocity=0 time=0@note_on channel=11 note=71 velocity=100 time=0@note_on channel=3 note=68 velocity=0 time=0.15872999999999998@note_on channel=3 note=64 velocity=100 time=0@note_on channel=7 note=76 velocity=0 time=0@note_on channel=7 note=77 velocity=100 time=0@note_on channel=0 note=64 velocity=0 time=0.15872999999999998@note_on channel=0 note=84 velocity=100 time=0@note_on channel=1 note=40 velocity=0 time=0@note_on channel=1 note=48 velocity=100 time=0@note_on channel=2 note=64 velocity=0 time=0@note_on channel=2 note=72 velocity=100 time=0@note_on channel=3 note=64 velocity=0 time=0@note_on channel=3 note=72 velocity=100 time=0@note_on channel=4 note=76 velocity=0 time=0@note_on channel=4 note=72 velocity=100 time=0@note_on channel=5 note=64 velocity=0 time=0@note_on channel=5 note=76 velocity=100 time=0@note_on channel=6 note=64 velocity=0 time=0@note_on channel=6 note=72 velocity=100 time=0@note_on channel=7 note=77 velocity=0 time=0@note_on channel=7 note=79 velocity=100 time=0@note_on channel=8 note=64 velocity=0 time=0@note_on channel=8 note=79 velocity=100 time=0@note_on channel=10 note=83 velocity=0 time=0@note_on channel=10 note=91 velocity=100 time=0@note_on channel=11 note=71 velocity=0 time=0@note_on channel=11 note=72 velocity=100 time=0@note_on channel=12 note=52 velocity=0 time=0@note_on channel=12 note=60 velocity=100 time=0@note_on channel=8 note=79 velocity=0 time=0.07936499999999999@note_on channel=8 note=81 velocity=100 time=0@note_on channel=2 note=72 velocity=0 time=0.07936499999999999@note_on channel=2 note=74 velocity=100 time=0@note_on channel=3 note=72 velocity=0 time=0@note_on channel=3 note=71 velocity=100 time=0@note_on channel=4 note=72 velocity=0 time=0@note_on channel=4 note=71 velocity=100 time=0@note_on channel=8 note=81 velocity=0 time=0@note_on channel=8 note=79 velocity=100 time=0@note_on channel=0 note=84 velocity=0 time=0.15872999999999998@note_on channel=0 note=84 velocity=100 time=0@note_on channel=2 note=74 velocity=0 time=0@note_on channel=2 note=76 velocity=100 time=0@note_on channel=3 note=71 velocity=0 time=0@note_on channel=3 note=72 velocity=100 time=0@note_on channel=4 note=71 velocity=0 time=0@note_on channel=4 note=72 velocity=100 time=0@note_on channel=5 note=76 velocity=0 time=0@note_on channel=5 note=72 velocity=100 time=0@note_on channel=6 note=72 velocity=0 time=0@note_on channel=6 note=76 velocity=100 time=0@note_on channel=7 note=79 velocity=0 time=0@note_on channel=7 note=72 velocity=100 time=0@note_on channel=8 note=79 velocity=0 time=0@note_on channel=8 note=76 velocity=100 time=0@note_on channel=3 note=72 velocity=0 time=0.15872999999999998@note_on channel=3 note=74 velocity=100 time=0@note_on channel=4 note=72 velocity=0 time=0@note_on channel=4 note=74 velocity=100 time=0@note_on channel=11 note=72 velocity=0 time=0@note_on channel=11 note=74 velocity=100 time=0@note_on channel=0 note=84 velocity=0 time=0.15872999999999998@note_on channel=0 note=84 velocity=100 time=0@note_on channel=2 note=76 velocity=0 time=0@note_on channel=2 note=72 velocity=100 time=0@note_on channel=3 note=74 velocity=0 time=0@note_on channel=3 note=76 velocity=100 time=0@note_on channel=4 note=74 velocity=0 time=0@note_on channel=4 note=76 velocity=100 time=0@note_on channel=5 note=72 velocity=0 time=0@note_on channel=5 note=74 velocity=100 time=0@note_on channel=6 note=76 velocity=0 time=0@note_on channel=6 note=72 velocity=100 time=0@note_on channel=7 note=72 velocity=0 time=0@note_on channel=7 note=81 velocity=100 time=0@note_on channel=8 note=76 velocity=0 time=0@note_on channel=8 note=72 velocity=100 time=0@note_on channel=10 note=91 velocity=0 time=0@note_on channel=10 note=91 velocity=100 time=0@note_on channel=11 note=74 velocity=0 time=0@note_on channel=11 note=76 velocity=100 time=0@note_on channel=12 note=60 velocity=0 time=0@note_on channel=12 note=62 velocity=100 time=0@note_on channel=3 note=76 velocity=0 time=0.15872999999999998@note_on channel=3 note=74 velocity=100 time=0@note_on channel=4 note=76 velocity=0 time=0@note_on channel=4 note=77 velocity=100 time=0@note_on channel=0 note=84 velocity=0 time=0.15872999999999998@note_on channel=0 note=72 velocity=100 time=0@note_on channel=1 note=48 velocity=0 time=0@note_on channel=1 note=40 velocity=100 time=0@note_on channel=2 note=72 velocity=0 time=0@note_on channel=2 note=76 velocity=100 time=0@note_on channel=3 note=74 velocity=0 time=0@note_on channel=3 note=72 velocity=100 time=0@note_on channel=4 note=77 velocity=0 time=0@note_on channel=4 note=79 velocity=100 time=0@note_on channel=5 note=74 velocity=0 time=0@note_on channel=5 note=76 velocity=100 time=0@note_on channel=6 note=72 velocity=0 time=0@note_on channel=6 note=79 velocity=100 time=0@note_on channel=7 note=81 velocity=0 time=0@note_on channel=7 note=81 velocity=100 time=0@note_on channel=8 note=72 velocity=0 time=0@note_on channel=8 note=79 velocity=100 time=0@note_on channel=10 note=91 velocity=0 time=0@note_on channel=10 note=91 velocity=100 time=0@note_on channel=11 note=76 velocity=0 time=0@note_on channel=11 note=76 velocity=100 time=0@note_on channel=12 note=62 velocity=0 time=0@note_on channel=12 note=64 velocity=100 time=0@note_on channel=7 note=81 velocity=0 time=0.07936499999999999@note_on channel=7 note=79 velocity=100 time=0@note_on channel=8 note=79 velocity=0 time=0@note_on channel=8 note=81 velocity=100 time=0@note_on channel=2 note=76 velocity=0 time=0.07936499999999999@note_on channel=2 note=77 velocity=100 time=0@note_on channel=3 note=72 velocity=0 time=0@note_on channel=3 note=71 velocity=100 time=0@note_on channel=4 note=79 velocity=0 time=0@note_on channel=4 note=81 velocity=100 time=0@note_on channel=6 note=79 velocity=0 time=0@note_on channel=6 note=77 velocity=100 time=0@note_on channel=7 note=79 velocity=0 time=0@note_on channel=7 note=81 velocity=100 time=0@note_on channel=8 note=81 velocity=0 time=0@note_on channel=8 note=79 velocity=100 time=0@note_on channel=7 note=81 velocity=0 time=0.07936499999999999@note_on channel=7 note=79 velocity=100 time=0@note_on channel=2 note=77 velocity=0 time=0.07936499999999999@note_on channel=2 note=79 velocity=100 time=0@note_on channel=3 note=71 velocity=0 time=0@note_on channel=3 note=72 velocity=100 time=0@note_on channel=4 note=81 velocity=0 time=0@note_on channel=4 note=83 velocity=100 time=0@note_on channel=5 note=76 velocity=0 time=0@note_on channel=5 note=77 velocity=100 time=0@note_on channel=6 note=77 velocity=0 time=0@note_on channel=6 note=76 velocity=100 time=0@note_on channel=8 note=79 velocity=0 time=0@note_on channel=8 note=76 velocity=100 time=0@note_on channel=10 note=91 velocity=0 time=0@note_on channel=10 note=89 velocity=100 time=0@note_on channel=0 note=72 velocity=0 time=0.15872999999999998@note_on channel=0 note=74 velocity=100 time=0@note_on channel=3 note=72 velocity=0 time=0@note_on channel=3 note=74 velocity=100 time=0@note_on channel=4 note=83 velocity=0 time=0@note_on channel=4 note=79 velocity=100 time=0@note_on channel=6 note=76 velocity=0 time=0@note_on channel=6 note=74 velocity=100 time=0@note_on channel=7 note=79 velocity=0 time=0@note_on channel=7 note=77 velocity=100 time=0@note_on channel=11 note=76 velocity=0 time=0@note_on channel=11 note=77 velocity=100 time=0@note_on channel=12 note=64 velocity=0 time=0@note_on channel=12 note=62 velocity=100 time=0@note_on channel=0 note=74 velocity=0 time=0.15872999999999998@note_on channel=0 note=76 velocity=100 time=0@note_on channel=2 note=79 velocity=0 time=0@note_on channel=2 note=72 velocity=100 time=0@note_on channel=3 note=74 velocity=0 time=0@note_on channel=3 note=76 velocity=100 time=0@note_on channel=4 note=79 velocity=0 time=0@note_on channel=4 note=81 velocity=100 time=0@note_on channel=5 note=77 velocity=0 time=0@note_on channel=5 note=79 velocity=100 time=0@note_on channel=6 note=74 velocity=0 time=0@note_on channel=6 note=72 velocity=100 time=0@note_on channel=7 note=77 velocity=0 time=0@note_on channel=7 note=76 velocity=100 time=0@note_on channel=8 note=76 velocity=0 time=0@note_on channel=8 note=72 velocity=100 time=0@note_on channel=10 note=89 velocity=0 time=0@note_on channel=10 note=88 velocity=100 time=0@note_on channel=11 note=77 velocity=0 time=0@note_on channel=11 note=79 velocity=100 time=0@note_on channel=12 note=62 velocity=0 time=0@note_on channel=12 note=60 velocity=100 time=0@note_on channel=0 note=76 velocity=0 time=0.15872999999999998@note_on channel=0 note=77 velocity=100 time=0@note_on channel=3 note=76 velocity=0 time=0@note_on channel=3 note=74 velocity=100 time=0@note_on channel=4 note=81 velocity=0 time=0@note_on channel=4 note=83 velocity=100 time=0@note_on channel=0 note=77 velocity=0 time=0.15872999999999998@note_on channel=0 note=79 velocity=100 time=0@note_on channel=1 note=40 velocity=0 time=0@note_on channel=1 note=50 velocity=100 time=0@note_on channel=2 note=72 velocity=0 time=0@note_on channel=2 note=67 velocity=100 time=0@note_on channel=3 note=74 velocity=0 time=0@note_on channel=3 note=74 velocity=100 time=0@note_on channel=4 note=83 velocity=0 time=0@note_on channel=4 note=81 velocity=100 time=0@note_on channel=5 note=79 velocity=0 time=0@note_on channel=5 note=71 velocity=100 time=0@note_on channel=6 note=72 velocity=0 time=0@note_on channel=6 note=67 velocity=100 time=0@note_on channel=7 note=76 velocity=0 time=0@note_on channel=7 note=74 velocity=100 time=0@note_on channel=8 note=72 velocity=0 time=0@note_on channel=8 note=74 velocity=100 time=0@note_on channel=10 note=88 velocity=0 time=0@note_on channel=10 note=86 velocity=100 time=0@note_on channel=11 note=79 velocity=0 time=0@note_on channel=11 note=74 velocity=100 time=0@note_on channel=12 note=60 velocity=0 time=0@note_on channel=12 note=62 velocity=100 time=0@note_on channel=4 note=81 velocity=0 time=0.07936499999999999@note_on channel=4 note=79 velocity=100 time=0@note_on channel=8 note=74 velocity=0 time=0@note_on channel=8 note=72 velocity=100 time=0@note_on channel=2 note=67 velocity=0 time=0.07936499999999999@note_on channel=2 note=69 velocity=100 time=0@note_on channel=3 note=74 velocity=0 time=0@note_on channel=3 note=72 velocity=100 time=0@note_on channel=4 note=79 velocity=0 time=0@note_on channel=4 note=81 velocity=100 time=0@note_on channel=8 note=72 velocity=0 time=0@note_on channel=8 note=74 velocity=100 time=0@note_on channel=4 note=81 velocity=0 time=0.07936499999999999@note_on channel=4 note=79 velocity=100 time=0@note_on channel=0 note=79 velocity=0 time=0.07936499999999999@note_on channel=0 note=79 velocity=100 time=0@note_on channel=2 note=69 velocity=0 time=0@note_on channel=2 note=71 velocity=100 time=0@note_on channel=3 note=72 velocity=0 time=0@note_on channel=3 note=74 velocity=100 time=0@note_on channel=4 note=79 velocity=0 time=0@note_on channel=4 note=74 velocity=100 time=0@note_on channel=5 note=71 velocity=0 time=0@note_on channel=5 note=67 velocity=100 time=0@note_on channel=6 note=67 velocity=0 time=0@note_on channel=6 note=71 velocity=100 time=0@note_on channel=7 note=74 velocity=0 time=0@note_on channel=7 note=71 velocity=100 time=0@note_on channel=8 note=74 velocity=0 time=0@note_on channel=8 note=71 velocity=100 time=0@note_on channel=3 note=74 velocity=0 time=0.15872999999999998@note_on channel=3 note=76 velocity=100 time=0@note_on channel=11 note=74 velocity=0 time=0@note_on channel=11 note=76 velocity=100 time=0@note_on channel=0 note=79 velocity=0 time=0.15872999999999998@note_on channel=0 note=81 velocity=100 time=0@note_on channel=2 note=71 velocity=0 time=0@note_on channel=2 note=67 velocity=100 time=0@note_on channel=3 note=76 velocity=0 time=0@note_on channel=3 note=74 velocity=100 time=0@note_on channel=4 note=74 velocity=0 time=0@note_on channel=4 note=74 velocity=100 time=0@note_on channel=5 note=67 velocity=0 time=0@note_on channel=5 note=69 velocity=100 time=0@note_on channel=6 note=71 velocity=0 time=0@note_on channel=6 note=67 velocity=100 time=0@note_on channel=7 note=71 velocity=0 time=0@note_on channel=7 note=67 velocity=100 time=0@note_on channel=8 note=71 velocity=0 time=0@note_on channel=8 note=67 velocity=100 time=0@note_on channel=10 note=86 velocity=0 time=0@note_on channel=10 note=86 velocity=100 time=0@note_on channel=11 note=76 velocity=0 time=0@note_on channel=11 note=74 velocity=100 time=0@note_on channel=12 note=62 velocity=0 time=0@note_on channel=12 note=59 velocity=100 time=0@note_on channel=3 note=74 velocity=0 time=0.15872999999999998@note_on channel=3 note=72 velocity=100 time=0@note_on channel=0 note=81 velocity=0 time=0.15872999999999998@note_on channel=0 note=84 velocity=100 time=0@note_on channel=1 note=50 velocity=0 time=0@note_on channel=1 note=43 velocity=100 time=0@note_on channel=2 note=67 velocity=0 time=0@note_on channel=2 note=71 velocity=100 time=0@note_on channel=3 note=72 velocity=0 time=0@note_on channel=3 note=71 velocity=100 time=0@note_on channel=4 note=74 velocity=0 time=0@note_on channel=4 note=74 velocity=100 time=0@note_on channel=5 note=69 velocity=0 time=0@note_on channel=5 note=71 velocity=100 time=0@note_on channel=6 note=67 velocity=0 time=0@note_on channel=6 note=74 velocity=100 time=0@note_on channel=7 note=67 velocity=0 time=0@note_on channel=7 note=74 velocity=100 time=0@note_on channel=8 note=67 velocity=0 time=0@note_on channel=8 note=74 velocity=100 time=0@note_on channel=10 note=86 velocity=0 time=0@note_on channel=10 note=83 velocity=100 time=0@note_on channel=11 note=74 velocity=0 time=0@note_on channel=11 note=71 velocity=100 time=0@note_on channel=12 note=59 velocity=0 time=0@note_on channel=12 note=55 velocity=100 time=0@note_on channel=0 note=84 velocity=0 time=0.07936499999999999@note_on channel=0 note=83 velocity=100 time=0@note_on channel=8 note=74 velocity=0 time=0@note_on channel=8 note=72 velocity=100 time=0@note_on channel=0 note=83 velocity=0 time=0.07936499999999999@note_on channel=0 note=84 velocity=100 time=0@note_on channel=2 note=71 velocity=0 time=0@note_on channel=2 note=72 velocity=100 time=0@note_on channel=3 note=71 velocity=0 time=0@note_on channel=3 note=69 velocity=100 time=0@note_on channel=6 note=74 velocity=0 time=0@note_on channel=6 note=72 velocity=100 time=0@note_on channel=8 note=72 velocity=0 time=0@note_on channel=8 note=74 velocity=100 time=0@note_on channel=0 note=84 velocity=0 time=0.07936499999999999@note_on channel=0 note=83 velocity=100 time=0@note_on channel=2 note=72 velocity=0 time=0.07936499999999999@note_on channel=2 note=74 velocity=100 time=0@note_on channel=3 note=69 velocity=0 time=0@note_on channel=3 note=71 velocity=100 time=0@note_on channel=5 note=71 velocity=0 time=0@note_on channel=5 note=72 velocity=100 time=0@note_on channel=6 note=72 velocity=0 time=0@note_on channel=6 note=71 velocity=100 time=0@note_on channel=7 note=74 velocity=0 time=0@note_on channel=7 note=62 velocity=100 time=0@note_on channel=8 note=74 velocity=0 time=0@note_on channel=8 note=71 velocity=100 time=0@note_on channel=10 note=83 velocity=0 time=0@note_on channel=10 note=84 velocity=100 time=0@note_on channel=0 note=83 velocity=0 time=0.15872999999999998@note_on channel=0 note=81 velocity=100 time=0@note_on channel=3 note=71 velocity=0 time=0@note_on channel=3 note=72 velocity=100 time=0@note_on channel=4 note=74 velocity=0 time=0@note_on channel=4 note=76 velocity=100 time=0@note_on channel=6 note=71 velocity=0 time=0@note_on channel=6 note=69 velocity=100 time=0@note_on channel=11 note=71 velocity=0 time=0@note_on channel=11 note=72 velocity=100 time=0@note_on channel=12 note=55 velocity=0 time=0@note_on channel=12 note=57 velocity=100 time=0@note_on channel=0 note=81 velocity=0 time=0.15872999999999998@note_on channel=0 note=79 velocity=100 time=0@note_on channel=2 note=74 velocity=0 time=0@note_on channel=2 note=67 velocity=100 time=0@note_on channel=3 note=72 velocity=0 time=0@note_on channel=3 note=74 velocity=100 time=0@note_on channel=4 note=76 velocity=0 time=0@note_on channel=4 note=77 velocity=100 time=0@note_on channel=5 note=72 velocity=0 time=0@note_on channel=5 note=74 velocity=100 time=0@note_on channel=6 note=69 velocity=0 time=0@note_on channel=6 note=67 velocity=100 time=0@note_on channel=7 note=62 velocity=0 time=0@note_on channel=7 note=76 velocity=100 time=0@note_on channel=8 note=71 velocity=0 time=0@note_on channel=8 note=67 velocity=100 time=0@note_on channel=10 note=84 velocity=0 time=0@note_on channel=10 note=86 velocity=100 time=0@note_on channel=11 note=72 velocity=0 time=0@note_on channel=11 note=74 velocity=100 time=0@note_on channel=12 note=57 velocity=0 time=0@note_on channel=12 note=59 velocity=100 time=0@note_on channel=3 note=74 velocity=0 time=0.15872999999999998@note_on channel=3 note=72 velocity=100 time=0@note_on channel=7 note=76 velocity=0 time=0@note_on channel=7 note=74 velocity=100 time=0@note_on channel=0 note=79 velocity=0 time=0.15872999999999998@note_on channel=0 note=84 velocity=100 time=0@note_on channel=1 note=43 velocity=0 time=0@note_on channel=1 note=45 velocity=100 time=0@note_on channel=2 note=67 velocity=0 time=0@note_on channel=2 note=81 velocity=100 time=0@note_on channel=3 note=72 velocity=0 time=0@note_on channel=3 note=72 velocity=100 time=0@note_on channel=4 note=77 velocity=0 time=0@note_on channel=4 note=72 velocity=100 time=0@note_on channel=5 note=74 velocity=0 time=0@note_on channel=5 note=72 velocity=100 time=0@note_on channel=6 note=67 velocity=0 time=0@note_on channel=6 note=76 velocity=100 time=0@note_on channel=7 note=74 velocity=0 time=0@note_on channel=7 note=72 velocity=100 time=0@note_on channel=8 note=67 velocity=0 time=0@note_on channel=8 note=76 velocity=100 time=0@note_on channel=10 note=86 velocity=0 time=0@note_on channel=10 note=88 velocity=100 time=0@note_on channel=11 note=74 velocity=0 time=0@note_on channel=11 note=72 velocity=100 time=0@note_on channel=12 note=59 velocity=0 time=0@note_on channel=12 note=60 velocity=100 time=0@note_on channel=5 note=72 velocity=0 time=0.07936499999999999@note_on channel=5 note=74 velocity=100 time=0@note_on channel=2 note=81 velocity=0 time=0.07936499999999999@note_on channel=2 note=83 velocity=100 time=0@note_on channel=3 note=72 velocity=0 time=0@note_on channel=3 note=71 velocity=100 time=0@note_on channel=5 note=74 velocity=0 time=0@note_on channel=5 note=72 velocity=100 time=0@note_on channel=6 note=76 velocity=0 time=0@note_on channel=6 note=74 velocity=100 time=0@note_on channel=0 note=84 velocity=0 time=0.15872999999999998@note_on channel=0 note=83 velocity=100 time=0@note_on channel=2 note=83 velocity=0 time=0@note_on channel=2 note=84 velocity=100 time=0@note_on channel=3 note=71 velocity=0 time=0@note_on channel=3 note=72 velocity=100 time=0@note_on channel=4 note=72 velocity=0 time=0@note_on channel=4 note=71 velocity=100 time=0@note_on channel=5 note=72 velocity=0 time=0@note_on channel=5 note=69 velocity=100 time=0@note_on channel=6 note=74 velocity=0 time=0@note_on channel=6 note=72 velocity=100 time=0@note_on channel=7 note=72 velocity=0 time=0@note_on channel=7 note=71 velocity=100 time=0@note_on channel=8 note=76 velocity=0 time=0@note_on channel=8 note=72 velocity=100 time=0@note_on channel=10 note=88 velocity=0 time=0@note_on channel=10 note=86 velocity=100 time=0@note_on channel=11 note=72 velocity=0 time=0@note_on channel=11 note=71 velocity=100 time=0@note_on channel=3 note=72 velocity=0 time=0.15872999999999998@note_on channel=3 note=74 velocity=100 time=0@note_on channel=6 note=72 velocity=0 time=0@note_on channel=6 note=71 velocity=100 time=0@note_on channel=12 note=60 velocity=0 time=0@note_on channel=12 note=59 velocity=100 time=0@note_on channel=0 note=83 velocity=0 time=0.15872999999999998@note_on channel=0 note=81 velocity=100 time=0@note_on channel=2 note=84 velocity=0 time=0@note_on channel=2 note=81 velocity=100 time=0@note_on channel=3 note=74 velocity=0 time=0@note_on channel=3 note=76 velocity=100 time=0@note_on channel=4 note=71 velocity=0 time=0@note_on channel=4 note=69 velocity=100 time=0@note_on channel=5 note=69 velocity=0 time=0@note_on channel=5 note=72 velocity=100 time=0@note_on channel=6 note=71 velocity=0 time=0@note_on channel=6 note=69 velocity=100 time=0@note_on channel=7 note=71 velocity=0 time=0@note_on channel=7 note=69 velocity=100 time=0@note_on channel=8 note=72 velocity=0 time=0@note_on channel=8 note=69 velocity=100 time=0@note_on channel=10 note=86 velocity=0 time=0@note_on channel=10 note=84 velocity=100 time=0@note_on channel=11 note=71 velocity=0 time=0@note_on channel=11 note=69 velocity=100 time=0@note_on channel=12 note=59 velocity=0 time=0@note_on channel=12 note=57 velocity=100 time=0@note_on channel=3 note=76 velocity=0 time=0.15872999999999998@note_on channel=3 note=74 velocity=100 time=0@note_on channel=0 note=81 velocity=0 time=0.15872999999999998@note_on channel=0 note=81 velocity=100 time=0@note_on channel=1 note=45 velocity=0 time=0@note_on channel=1 note=38 velocity=100 time=0@note_on channel=2 note=81 velocity=0 time=0@note_on channel=2 note=80 velocity=100 time=0@note_on channel=3 note=74 velocity=0 time=0@note_on channel=3 note=74 velocity=100 time=0@note_on channel=4 note=69 velocity=0 time=0@note_on channel=4 note=69 velocity=100 time=0@note_on channel=5 note=72 velocity=0 time=0@note_on channel=5 note=71 velocity=100 time=0@note_on channel=6 note=69 velocity=0 time=0@note_on channel=6 note=71 velocity=100 time=0@note_on channel=7 note=69 velocity=0 time=0@note_on channel=7 note=71 velocity=100 time=0@note_on channel=8 note=69 velocity=0 time=0@note_on channel=8 note=71 velocity=100 time=0@note_on channel=10 note=84 velocity=0 time=0@note_on channel=10 note=86 velocity=100 time=0@note_on channel=11 note=69 velocity=0 time=0@note_on channel=11 note=69 velocity=100 time=0@note_on channel=12 note=57 velocity=0 time=0@note_on channel=12 note=60 velocity=100 time=0@note_on channel=0 note=81 velocity=0 time=0.07936499999999999@note_on channel=0 note=80 velocity=100 time=0@note_on channel=4 note=69 velocity=0 time=0@note_on channel=4 note=68 velocity=100 time=0@note_on channel=5 note=71 velocity=0 time=0@note_on channel=5 note=72 velocity=100 time=0@note_on channel=8 note=71 velocity=0 time=0@note_on channel=8 note=72 velocity=100 time=0@note_on channel=11 note=69 velocity=0 time=0@note_on channel=11 note=68 velocity=100 time=0@note_on channel=12 note=60 velocity=0 time=0@note_on channel=12 note=59 velocity=100 time=0@note_on channel=0 note=80 velocity=0 time=0.07936499999999999@note_on channel=0 note=81 velocity=100 time=0@note_on channel=2 note=80 velocity=0 time=0@note_on channel=2 note=81 velocity=100 time=0@note_on channel=3 note=74 velocity=0 time=0@note_on channel=3 note=72 velocity=100 time=0@note_on channel=4 note=68 velocity=0 time=0@note_on channel=4 note=69 velocity=100 time=0@note_on channel=5 note=72 velocity=0 time=0@note_on channel=5 note=71 velocity=100 time=0@note_on channel=6 note=71 velocity=0 time=0@note_on channel=6 note=69 velocity=100 time=0@note_on channel=8 note=72 velocity=0 time=0@note_on channel=8 note=71 velocity=100 time=0@note_on channel=11 note=68 velocity=0 time=0@note_on channel=11 note=69 velocity=100 time=0@note_on channel=12 note=59 velocity=0 time=0@note_on channel=12 note=60 velocity=100 time=0@note_on channel=0 note=81 velocity=0 time=0.07936499999999999@note_on channel=0 note=80 velocity=100 time=0@note_on channel=4 note=69 velocity=0 time=0@note_on channel=4 note=68 velocity=100 time=0@note_on channel=11 note=69 velocity=0 time=0@note_on channel=11 note=68 velocity=100 time=0@note_on channel=12 note=60 velocity=0 time=0@note_on channel=12 note=59 velocity=100 time=0@note_on channel=2 note=81 velocity=0 time=0.07936499999999999@note_on channel=2 note=83 velocity=100 time=0@note_on channel=3 note=72 velocity=0 time=0@note_on channel=3 note=71 velocity=100 time=0@note_on channel=5 note=71 velocity=0 time=0@note_on channel=5 note=68 velocity=100 time=0@note_on channel=6 note=69 velocity=0 time=0@note_on channel=6 note=68 velocity=100 time=0@note_on channel=7 note=71 velocity=0 time=0@note_on channel=7 note=68 velocity=100 time=0@note_on channel=8 note=71 velocity=0 time=0@note_on channel=8 note=68 velocity=100 time=0@note_on channel=10 note=86 velocity=0 time=0@note_on channel=10 note=84 velocity=100 time=0@note_on channel=10 note=84 velocity=0 time=0.07936499999999999@note_on channel=10 note=83 velocity=100 time=0@note_on channel=0 note=80 velocity=0 time=0.07936499999999999@note_on channel=0 note=78 velocity=100 time=0@note_on channel=3 note=71 velocity=0 time=0@note_on channel=3 note=69 velocity=100 time=0@note_on channel=4 note=68 velocity=0 time=0@note_on channel=4 note=66 velocity=100 time=0@note_on channel=6 note=68 velocity=0 time=0@note_on channel=6 note=66 velocity=100 time=0@note_on channel=10 note=83 velocity=0 time=0@note_on channel=10 note=84 velocity=100 time=0@note_on channel=11 note=68 velocity=0 time=0@note_on channel=11 note=66 velocity=100 time=0@note_on channel=12 note=59 velocity=0 time=0@note_on channel=12 note=57 velocity=100 time=0@note_on channel=10 note=84 velocity=0 time=0.07936499999999999@note_on channel=10 note=83 velocity=100 time=0@note_on channel=0 note=78 velocity=0 time=0.07936499999999999@note_on channel=0 note=80 velocity=100 time=0@note_on channel=2 note=83 velocity=0 time=0@note_on channel=2 note=80 velocity=100 time=0@note_on channel=3 note=69 velocity=0 time=0@note_on channel=3 note=71 velocity=100 time=0@note_on channel=4 note=66 velocity=0 time=0@note_on channel=4 note=68 velocity=100 time=0@note_on channel=5 note=68 velocity=0 time=0@note_on channel=5 note=64 velocity=100 time=0@note_on channel=6 note=66 velocity=0 time=0@note_on channel=6 note=64 velocity=100 time=0@note_on channel=7 note=68 velocity=0 time=0@note_on channel=7 note=64 velocity=100 time=0@note_on channel=8 note=68 velocity=0 time=0@note_on channel=8 note=64 velocity=100 time=0@note_on channel=11 note=66 velocity=0 time=0@note_on channel=11 note=68 velocity=100 time=0@note_on channel=12 note=57 velocity=0 time=0@note_on channel=12 note=56 velocity=100 time=0@note_on channel=3 note=71 velocity=0 time=0.15872999999999998@note_on channel=3 note=68 velocity=100 time=0@note_on channel=10 note=83 velocity=0 time=0@note_on channel=10 note=81 velocity=100 time=0@note_on channel=10 note=81 velocity=0 time=0.07936499999999999@note_on channel=10 note=83 velocity=100 time=0@note_on channel=0 note=80 velocity=0 time=0.07936499999999999@note_on channel=0 note=81 velocity=100 time=0@note_on channel=1 note=38 velocity=0 time=0@note_on channel=1 note=45 velocity=100 time=0@note_on channel=2 note=80 velocity=0 time=0@note_on channel=2 note=81 velocity=100 time=0@note_on channel=3 note=68 velocity=0 time=0@note_on channel=3 note=69 velocity=100 time=0@note_on channel=4 note=68 velocity=0 time=0@note_on channel=4 note=69 velocity=100 time=0@note_on channel=5 note=64 velocity=0 time=0@note_on channel=5 note=69 velocity=100 time=0@note_on channel=6 note=64 velocity=0 time=0@note_on channel=6 note=69 velocity=100 time=0@note_on channel=7 note=64 velocity=0 time=0@note_on channel=7 note=69 velocity=100 time=0@note_on channel=8 note=64 velocity=0 time=0@note_on channel=8 note=69 velocity=100 time=0@note_on channel=10 note=83 velocity=0 time=0@note_on channel=10 note=81 velocity=100 time=0@note_on channel=11 note=68 velocity=0 time=0@note_on channel=11 note=69 velocity=100 time=0@note_on channel=12 note=56 velocity=0 time=0@note_on channel=12 note=57 velocity=100 time=0@note_on channel=2 note=81 velocity=0 time=0.07936499999999999@note_on channel=2 note=80 velocity=100 time=0@note_on channel=2 note=80 velocity=0 time=0.07936499999999999@note_on channel=2 note=81 velocity=100 time=0@note_on channel=0 note=81 velocity=0 time=0.79365@note_on channel=0 note=81 velocity=100 time=0@note_on channel=2 note=81 velocity=0 time=0@note_on channel=2 note=81 velocity=100 time=0@note_on channel=3 note=69 velocity=0 time=0@note_on channel=3 note=69 velocity=100 time=0@note_on channel=4 note=69 velocity=0 time=0@note_on channel=4 note=69 velocity=100 time=0@note_on channel=5 note=69 velocity=0 time=0@note_on channel=5 note=69 velocity=100 time=0@note_on channel=6 note=69 velocity=0 time=0@note_on channel=6 note=69 velocity=100 time=0@note_on channel=7 note=69 velocity=0 time=0@note_on channel=7 note=69 velocity=100 time=0@note_on channel=8 note=69 velocity=0 time=0@note_on channel=8 note=69 velocity=100 time=0@note_on channel=10 note=81 velocity=0 time=0@note_on channel=10 note=81 velocity=100 time=0@note_on channel=11 note=69 velocity=0 time=0@note_on channel=11 note=69 velocity=100 time=0@note_on channel=12 note=57 velocity=0 time=0@note_on channel=12 note=57 velocity=100 time=0@note_on channel=6 note=69 velocity=0 time=0.07936499999999999@note_on channel=6 note=68 velocity=100 time=0@note_on channel=6 note=68 velocity=0 time=0.07936499999999999@note_on channel=6 note=69 velocity=100 time=0@note_on channel=0 note=81 velocity=0 time=0.79365@note_on channel=0 note=72 velocity=100 time=0@note_on channel=1 note=45 velocity=0 time=0@note_on channel=1 note=48 velocity=100 time=0@note_on channel=2 note=81 velocity=0 time=0@note_on channel=2 note=84 velocity=100 time=0@note_on channel=3 note=69 velocity=0 time=0@note_on channel=3 note=69 velocity=100 time=0@note_on channel=4 note=69 velocity=0 time=0@note_on channel=4 note=72 velocity=100 time=0@note_on channel=5 note=69 velocity=0 time=0@note_on channel=5 note=69 velocity=100 time=0@note_on channel=6 note=69 velocity=0 time=0@note_on channel=6 note=72 velocity=100 time=0@note_on channel=7 note=69 velocity=0 time=0@note_on channel=7 note=69 velocity=100 time=0@note_on channel=8 note=69 velocity=0 time=0@note_on channel=8 note=79 velocity=100 time=0@note_on channel=10 note=81 velocity=0 time=0@note_on channel=10 note=88 velocity=100 time=0@note_on channel=11 note=69 velocity=0 time=0@note_on channel=11 note=79 velocity=100 time=0@note_on channel=12 note=57 velocity=0 time=0@note_on channel=12 note=60 velocity=100 time=0@note_on channel=13 note=72 velocity=100 time=0@note_on channel=0 note=72 velocity=0 time=0.15872999999999998@note_on channel=0 note=76 velocity=100 time=0@note_on channel=3 note=69 velocity=0 time=0@note_on channel=3 note=71 velocity=100 time=0@note_on channel=4 note=72 velocity=0 time=0@note_on channel=4 note=71 velocity=100 time=0@note_on channel=5 note=69 velocity=0 time=0@note_on channel=5 note=71 velocity=100 time=0@note_on channel=0 note=76 velocity=0 time=0.15872999999999998@note_on channel=0 note=76 velocity=100 time=0@note_on channel=2 note=84 velocity=0 time=0@note_on channel=2 note=84 velocity=100 time=0@note_on channel=3 note=71 velocity=0 time=0@note_on channel=3 note=72 velocity=100 time=0@note_on channel=4 note=71 velocity=0 time=0@note_on channel=4 note=72 velocity=100 time=0@note_on channel=5 note=71 velocity=0 time=0@note_on channel=5 note=72 velocity=100 time=0@note_on channel=6 note=72 velocity=0 time=0@note_on channel=6 note=69 velocity=100 time=0@note_on channel=7 note=69 velocity=0 time=0@note_on channel=7 note=72 velocity=100 time=0@note_on channel=8 note=79 velocity=0 time=0@note_on channel=8 note=72 velocity=100 time=0@note_on channel=10 note=88 velocity=0 time=0@note_on channel=10 note=84 velocity=100 time=0@note_on channel=0 note=76 velocity=0 time=0.15872999999999998@note_on channel=0 note=76 velocity=100 time=0@note_on channel=4 note=72 velocity=0 time=0@note_on channel=4 note=74 velocity=100 time=0@note_on channel=5 note=72 velocity=0 time=0@note_on channel=5 note=74 velocity=100 time=0@note_on channel=12 note=60 velocity=0 time=0@note_on channel=12 note=62 velocity=100 time=0@note_on channel=0 note=76 velocity=0 time=0.15872999999999998@note_on channel=0 note=76 velocity=100 time=0@note_on channel=2 note=84 velocity=0 time=0@note_on channel=2 note=84 velocity=100 time=0@note_on channel=3 note=72 velocity=0 time=0@note_on channel=3 note=69 velocity=100 time=0@note_on channel=4 note=74 velocity=0 time=0@note_on channel=4 note=76 velocity=100 time=0@note_on channel=5 note=74 velocity=0 time=0@note_on channel=5 note=76 velocity=100 time=0@note_on channel=6 note=69 velocity=0 time=0@note_on channel=6 note=71 velocity=100 time=0@note_on channel=7 note=72 velocity=0 time=0@note_on channel=7 note=69 velocity=100 time=0@note_on channel=8 note=72 velocity=0 time=0@note_on channel=8 note=81 velocity=100 time=0@note_on channel=10 note=84 velocity=0 time=0@note_on channel=10 note=81 velocity=100 time=0@note_on channel=11 note=79 velocity=0 time=0@note_on channel=11 note=79 velocity=100 time=0@note_on channel=12 note=62 velocity=0 time=0@note_on channel=12 note=64 velocity=100 time=0@note_on channel=13 note=72 velocity=0 time=0@note_on channel=13 note=74 velocity=100 time=0@note_on channel=0 note=76 velocity=0 time=0.15872999999999998@note_on channel=0 note=76 velocity=100 time=0@note_on channel=4 note=76 velocity=0 time=0@note_on channel=4 note=74 velocity=100 time=0@note_on channel=5 note=76 velocity=0 time=0@note_on channel=5 note=69 velocity=100 time=0@note_on channel=0 note=76 velocity=0 time=0.15872999999999998@note_on channel=0 note=72 velocity=100 time=0@note_on channel=1 note=48 velocity=0 time=0@note_on channel=1 note=40 velocity=100 time=0@note_on channel=2 note=84 velocity=0 time=0@note_on channel=2 note=72 velocity=100 time=0@note_on channel=3 note=69 velocity=0 time=0@note_on channel=3 note=72 velocity=100 time=0@note_on channel=4 note=74 velocity=0 time=0@note_on channel=4 note=72 velocity=100 time=0@note_on channel=5 note=69 velocity=0 time=0@note_on channel=5 note=81 velocity=100 time=0@note_on channel=6 note=71 velocity=0 time=0@note_on channel=6 note=72 velocity=100 time=0@note_on channel=7 note=69 velocity=0 time=0@note_on channel=7 note=76 velocity=100 time=0@note_on channel=8 note=81 velocity=0 time=0@note_on channel=8 note=81 velocity=100 time=0@note_on channel=10 note=81 velocity=0 time=0@note_on channel=10 note=88 velocity=100 time=0@note_on channel=11 note=79 velocity=0 time=0@note_on channel=11 note=79 velocity=100 time=0@note_on channel=12 note=64 velocity=0 time=0@note_on channel=12 note=64 velocity=100 time=0@note_on channel=13 note=74 velocity=0 time=0@note_on channel=13 note=76 velocity=100 time=0@note_on channel=8 note=81 velocity=0 time=0.07936499999999999@note_on channel=8 note=79 velocity=100 time=0@note_on channel=0 note=72 velocity=0 time=0.07936499999999999@note_on channel=0 note=76 velocity=100 time=0@note_on channel=3 note=72 velocity=0 time=0@note_on channel=3 note=74 velocity=100 time=0@note_on channel=4 note=72 velocity=0 time=0@note_on channel=4 note=71 velocity=100 time=0@note_on channel=5 note=81 velocity=0 time=0@note_on channel=5 note=80 velocity=100 time=0@note_on channel=7 note=76 velocity=0 time=0@note_on channel=7 note=74 velocity=100 time=0@note_on channel=8 note=79 velocity=0 time=0@note_on channel=8 note=81 velocity=100 time=0@note_on channel=8 note=81 velocity=0 time=0.07936499999999999@note_on channel=8 note=79 velocity=100 time=0@note_on channel=0 note=76 velocity=0 time=0.07936499999999999@note_on channel=0 note=76 velocity=100 time=0@note_on channel=2 note=72 velocity=0 time=0@note_on channel=2 note=72 velocity=100 time=0@note_on channel=3 note=74 velocity=0 time=0@note_on channel=3 note=76 velocity=100 time=0@note_on channel=4 note=71 velocity=0 time=0@note_on channel=4 note=72 velocity=100 time=0@note_on channel=5 note=80 velocity=0 time=0@note_on channel=5 note=81 velocity=100 time=0@note_on channel=6 note=72 velocity=0 time=0@note_on channel=6 note=74 velocity=100 time=0@note_on channel=7 note=74 velocity=0 time=0@note_on channel=7 note=72 velocity=100 time=0@note_on channel=10 note=88 velocity=0 time=0@note_on channel=10 note=84 velocity=100 time=0@note_on channel=11 note=79 velocity=0 time=0@note_on channel=11 note=77 velocity=100 time=0@note_on channel=0 note=76 velocity=0 time=0.15872999999999998@note_on channel=0 note=76 velocity=100 time=0@note_on channel=4 note=72 velocity=0 time=0@note_on channel=4 note=74 velocity=100 time=0@note_on channel=5 note=81 velocity=0 time=0@note_on channel=5 note=83 velocity=100 time=0@note_on channel=7 note=72 velocity=0 time=0@note_on channel=7 note=71 velocity=100 time=0@note_on channel=8 note=79 velocity=0 time=0@note_on channel=8 note=77 velocity=100 time=0@note_on channel=12 note=64 velocity=0 time=0@note_on channel=12 note=65 velocity=100 time=0@note_on channel=0 note=76 velocity=0 time=0.15872999999999998@note_on channel=0 note=76 velocity=100 time=0@note_on channel=2 note=72 velocity=0 time=0@note_on channel=2 note=72 velocity=100 time=0@note_on channel=3 note=76 velocity=0 time=0@note_on channel=3 note=69 velocity=100 time=0@note_on channel=4 note=74 velocity=0 time=0@note_on channel=4 note=76 velocity=100 time=0@note_on channel=5 note=83 velocity=0 time=0@note_on channel=5 note=84 velocity=100 time=0@note_on channel=6 note=74 velocity=0 time=0@note_on channel=6 note=76 velocity=100 time=0@note_on channel=7 note=71 velocity=0 time=0@note_on channel=7 note=69 velocity=100 time=0@note_on channel=8 note=77 velocity=0 time=0@note_on channel=8 note=76 velocity=100 time=0@note_on channel=10 note=84 velocity=0 time=0@note_on channel=10 note=81 velocity=100 time=0@note_on channel=11 note=77 velocity=0 time=0@note_on channel=11 note=76 velocity=100 time=0@note_on channel=12 note=65 velocity=0 time=0@note_on channel=12 note=64 velocity=100 time=0@note_on channel=13 note=76 velocity=0 time=0@note_on channel=13 note=76 velocity=100 time=0@note_on channel=0 note=76 velocity=0 time=0.15872999999999998@note_on channel=0 note=76 velocity=100 time=0@note_on channel=4 note=76 velocity=0 time=0@note_on channel=4 note=74 velocity=100 time=0@note_on channel=5 note=84 velocity=0 time=0@note_on channel=5 note=81 velocity=100 time=0@note_on channel=0 note=76 velocity=0 time=0.15872999999999998@note_on channel=0 note=71 velocity=100 time=0@note_on channel=1 note=40 velocity=0 time=0@note_on channel=1 note=50 velocity=100 time=0@note_on channel=2 note=72 velocity=0 time=0@note_on channel=2 note=79 velocity=100 time=0@note_on channel=3 note=69 velocity=0 time=0@note_on channel=3 note=67 velocity=100 time=0@note_on channel=4 note=74 velocity=0 time=0@note_on channel=4 note=71 velocity=100 time=0@note_on channel=5 note=81 velocity=0 time=0@note_on channel=5 note=84 velocity=100 time=0@note_on channel=6 note=76 velocity=0 time=0@note_on channel=6 note=71 velocity=100 time=0@note_on channel=7 note=69 velocity=0 time=0@note_on channel=7 note=67 velocity=100 time=0@note_on channel=8 note=76 velocity=0 time=0@note_on channel=8 note=74 velocity=100 time=0@note_on channel=10 note=81 velocity=0 time=0@note_on channel=10 note=86 velocity=100 time=0@note_on channel=11 note=76 velocity=0 time=0@note_on channel=11 note=74 velocity=100 time=0@note_on channel=12 note=64 velocity=0 time=0@note_on channel=12 note=62 velocity=100 time=0@note_on channel=13 note=76 velocity=0 time=0@note_on channel=13 note=74 velocity=100 time=0@note_on channel=5 note=84 velocity=0 time=0.07936499999999999@note_on channel=5 note=83 velocity=100 time=0@note_on channel=0 note=71 velocity=0 time=0.07936499999999999@note_on channel=0 note=74 velocity=100 time=0@note_on channel=3 note=67 velocity=0 time=0@note_on channel=3 note=69 velocity=100 time=0@note_on channel=4 note=71 velocity=0 time=0@note_on channel=4 note=69 velocity=100 time=0@note_on channel=5 note=83 velocity=0 time=0@note_on channel=5 note=84 velocity=100 time=0@note_on channel=5 note=84 velocity=0 time=0.07936499999999999@note_on channel=5 note=83 velocity=100 time=0@note_on channel=0 note=74 velocity=0 time=0.07936499999999999@note_on channel=0 note=74 velocity=100 time=0@note_on channel=2 note=79 velocity=0 time=0@note_on channel=2 note=79 velocity=100 time=0@note_on channel=3 note=69 velocity=0 time=0@note_on channel=3 note=71 velocity=100 time=0@note_on channel=4 note=69 velocity=0 time=0@note_on channel=4 note=71 velocity=100 time=0@note_on channel=6 note=71 velocity=0 time=0@note_on channel=6 note=67 velocity=100 time=0@note_on channel=7 note=67 velocity=0 time=0@note_on channel=7 note=71 velocity=100 time=0@note_on channel=8 note=74 velocity=0 time=0@note_on channel=8 note=71 velocity=100 time=0@note_on channel=10 note=86 velocity=0 time=0@note_on channel=10 note=83 velocity=100 time=0@note_on channel=0 note=74 velocity=0 time=0.15872999999999998@note_on channel=0 note=74 velocity=100 time=0@note_on channel=4 note=71 velocity=0 time=0@note_on channel=4 note=72 velocity=100 time=0@note_on channel=12 note=62 velocity=0 time=0@note_on channel=12 note=64 velocity=100 time=0@note_on channel=0 note=74 velocity=0 time=0.15872999999999998@note_on channel=0 note=74 velocity=100 time=0@note_on channel=2 note=79 velocity=0 time=0@note_on channel=2 note=79 velocity=100 time=0@note_on channel=3 note=71 velocity=0 time=0@note_on channel=3 note=67 velocity=100 time=0@note_on channel=4 note=72 velocity=0 time=0@note_on channel=4 note=74 velocity=100 time=0@note_on channel=5 note=83 velocity=0 time=0@note_on channel=5 note=79 velocity=100 time=0@note_on channel=6 note=67 velocity=0 time=0@note_on channel=6 note=69 velocity=100 time=0@note_on channel=7 note=71 velocity=0 time=0@note_on channel=7 note=67 velocity=100 time=0@note_on channel=8 note=71 velocity=0 time=0@note_on channel=8 note=67 velocity=100 time=0@note_on channel=10 note=83 velocity=0 time=0@note_on channel=10 note=79 velocity=100 time=0@note_on channel=11 note=74 velocity=0 time=0@note_on channel=11 note=74 velocity=100 time=0@note_on channel=12 note=64 velocity=0 time=0@note_on channel=12 note=62 velocity=100 time=0@note_on channel=13 note=74 velocity=0 time=0@note_on channel=13 note=71 velocity=100 time=0@note_on channel=0 note=74 velocity=0 time=0.15872999999999998@note_on channel=0 note=74 velocity=100 time=0@note_on channel=4 note=74 velocity=0 time=0@note_on channel=4 note=72 velocity=100 time=0@note_on channel=0 note=74 velocity=0 time=0.15872999999999998@note_on channel=0 note=71 velocity=100 time=0@note_on channel=1 note=50 velocity=0 time=0@note_on channel=1 note=43 velocity=100 time=0@note_on channel=2 note=79 velocity=0 time=0@note_on channel=2 note=67 velocity=100 time=0@note_on channel=3 note=67 velocity=0 time=0@note_on channel=3 note=71 velocity=100 time=0@note_on channel=4 note=72 velocity=0 time=0@note_on channel=4 note=71 velocity=100 time=0@note_on channel=5 note=79 velocity=0 time=0@note_on channel=5 note=79 velocity=100 time=0@note_on channel=6 note=69 velocity=0 time=0@note_on channel=6 note=71 velocity=100 time=0@note_on channel=7 note=67 velocity=0 time=0@note_on channel=7 note=74 velocity=100 time=0@note_on channel=8 note=67 velocity=0 time=0@note_on channel=8 note=74 velocity=100 time=0@note_on channel=10 note=79 velocity=0 time=0@note_on channel=10 note=86 velocity=100 time=0@note_on channel=11 note=74 velocity=0 time=0@note_on channel=11 note=71 velocity=100 time=0@note_on channel=12 note=62 velocity=0 time=0@note_on channel=12 note=59 velocity=100 time=0@note_on channel=13 note=71 velocity=0 time=0@note_on channel=13 note=67 velocity=100 time=0@note_on channel=0 note=71 velocity=0 time=0.15872999999999998@note_on channel=0 note=74 velocity=100 time=0@note_on channel=3 note=71 velocity=0 time=0@note_on channel=3 note=72 velocity=100 time=0@note_on channel=4 note=71 velocity=0 time=0@note_on channel=4 note=69 velocity=100 time=0@note_on channel=7 note=74 velocity=0 time=0@note_on channel=7 note=72 velocity=100 time=0@note_on channel=0 note=74 velocity=0 time=0.15872999999999998@note_on channel=0 note=74 velocity=100 time=0@note_on channel=3 note=72 velocity=0 time=0@note_on channel=3 note=74 velocity=100 time=0@note_on channel=4 note=69 velocity=0 time=0@note_on channel=4 note=71 velocity=100 time=0@note_on channel=6 note=71 velocity=0 time=0@note_on channel=6 note=72 velocity=100 time=0@note_on channel=7 note=72 velocity=0 time=0@note_on channel=7 note=71 velocity=100 time=0@note_on channel=8 note=74 velocity=0 time=0@note_on channel=8 note=62 velocity=100 time=0@note_on channel=10 note=86 velocity=0 time=0@note_on channel=10 note=83 velocity=100 time=0@note_on channel=11 note=71 velocity=0 time=0@note_on channel=11 note=72 velocity=100 time=0@note_on channel=0 note=74 velocity=0 time=0.15872999999999998@note_on channel=0 note=74 velocity=100 time=0@note_on channel=2 note=67 velocity=0 time=0@note_on channel=2 note=69 velocity=100 time=0@note_on channel=4 note=71 velocity=0 time=0@note_on channel=4 note=72 velocity=100 time=0@note_on channel=7 note=71 velocity=0 time=0@note_on channel=7 note=69 velocity=100 time=0@note_on channel=12 note=59 velocity=0 time=0@note_on channel=12 note=60 velocity=100 time=0@note_on channel=0 note=74 velocity=0 time=0.15872999999999998@note_on channel=0 note=74 velocity=100 time=0@note_on channel=2 note=69 velocity=0 time=0@note_on channel=2 note=71 velocity=100 time=0@note_on channel=3 note=74 velocity=0 time=0@note_on channel=3 note=67 velocity=100 time=0@note_on channel=4 note=72 velocity=0 time=0@note_on channel=4 note=74 velocity=100 time=0@note_on channel=6 note=72 velocity=0 time=0@note_on channel=6 note=74 velocity=100 time=0@note_on channel=7 note=69 velocity=0 time=0@note_on channel=7 note=67 velocity=100 time=0@note_on channel=8 note=62 velocity=0 time=0@note_on channel=8 note=77 velocity=100 time=0@note_on channel=10 note=83 velocity=0 time=0@note_on channel=10 note=79 velocity=100 time=0@note_on channel=11 note=72 velocity=0 time=0@note_on channel=11 note=74 velocity=100 time=0@note_on channel=12 note=60 velocity=0 time=0@note_on channel=12 note=62 velocity=100 time=0@note_on channel=0 note=74 velocity=0 time=0.15872999999999998@note_on channel=0 note=74 velocity=100 time=0@note_on channel=4 note=74 velocity=0 time=0@note_on channel=4 note=72 velocity=100 time=0@note_on channel=8 note=77 velocity=0 time=0@note_on channel=8 note=79 velocity=100 time=0@note_on channel=0 note=74 velocity=0 time=0.15872999999999998@note_on channel=0 note=69 velocity=100 time=0@note_on channel=1 note=43 velocity=0 time=0@note_on channel=1 note=45 velocity=100 time=0@note_on channel=2 note=71 velocity=0 time=0@note_on channel=2 note=81 velocity=100 time=0@note_on channel=3 note=67 velocity=0 time=0@note_on channel=3 note=69 velocity=100 time=0@note_on channel=4 note=72 velocity=0 time=0@note_on channel=4 note=72 velocity=100 time=0@note_on channel=5 note=79 velocity=0 time=0@note_on channel=5 note=69 velocity=100 time=0@note_on channel=6 note=74 velocity=0 time=0@note_on channel=6 note=72 velocity=100 time=0@note_on channel=7 note=67 velocity=0 time=0@note_on channel=7 note=69 velocity=100 time=0@note_on channel=8 note=79 velocity=0 time=0@note_on channel=8 note=81 velocity=100 time=0@note_on channel=10 note=79 velocity=0 time=0@note_on channel=10 note=88 velocity=100 time=0@note_on channel=11 note=74 velocity=0 time=0@note_on channel=11 note=72 velocity=100 time=0@note_on channel=12 note=62 velocity=0 time=0@note_on channel=12 note=60 velocity=100 time=0@note_on channel=13 note=67 velocity=0 time=0@note_on channel=13 note=69 velocity=100 time=0@note_on channel=0 note=69 velocity=0 time=0.15872999999999998@note_on channel=0 note=72 velocity=100 time=0@note_on channel=3 note=69 velocity=0 time=0@note_on channel=3 note=71 velocity=100 time=0@note_on channel=4 note=72 velocity=0 time=0@note_on channel=4 note=71 velocity=100 time=0@note_on channel=5 note=69 velocity=0 time=0@note_on channel=5 note=71 velocity=100 time=0@note_on channel=0 note=72 velocity=0 time=0.15872999999999998@note_on channel=0 note=72 velocity=100 time=0@note_on channel=2 note=81 velocity=0 time=0@note_on channel=2 note=81 velocity=100 time=0@note_on channel=3 note=71 velocity=0 time=0@note_on channel=3 note=72 velocity=100 time=0@note_on channel=4 note=71 velocity=0 time=0@note_on channel=4 note=72 velocity=100 time=0@note_on channel=5 note=71 velocity=0 time=0@note_on channel=5 note=72 velocity=100 time=0@note_on channel=6 note=72 velocity=0 time=0@note_on channel=6 note=69 velocity=100 time=0@note_on channel=7 note=69 velocity=0 time=0@note_on channel=7 note=72 velocity=100 time=0@note_on channel=8 note=81 velocity=0 time=0@note_on channel=8 note=69 velocity=100 time=0@note_on channel=10 note=88 velocity=0 time=0@note_on channel=10 note=84 velocity=100 time=0@note_on channel=0 note=72 velocity=0 time=0.15872999999999998@note_on channel=0 note=72 velocity=100 time=0@note_on channel=4 note=72 velocity=0 time=0@note_on channel=4 note=74 velocity=100 time=0@note_on channel=5 note=72 velocity=0 time=0@note_on channel=5 note=74 velocity=100 time=0@note_on channel=12 note=60 velocity=0 time=0@note_on channel=12 note=59 velocity=100 time=0@note_on channel=13 note=69 velocity=0 time=0@note_on channel=13 note=71 velocity=100 time=0@note_on channel=0 note=72 velocity=0 time=0.15872999999999998@note_on channel=0 note=72 velocity=100 time=0@note_on channel=2 note=81 velocity=0 time=0@note_on channel=2 note=81 velocity=100 time=0@note_on channel=3 note=72 velocity=0 time=0@note_on channel=3 note=69 velocity=100 time=0@note_on channel=4 note=74 velocity=0 time=0@note_on channel=4 note=72 velocity=100 time=0@note_on channel=5 note=74 velocity=0 time=0@note_on channel=5 note=76 velocity=100 time=0@note_on channel=6 note=69 velocity=0 time=0@note_on channel=6 note=71 velocity=100 time=0@note_on channel=7 note=72 velocity=0 time=0@note_on channel=7 note=69 velocity=100 time=0@note_on channel=8 note=69 velocity=0 time=0@note_on channel=8 note=83 velocity=100 time=0@note_on channel=10 note=84 velocity=0 time=0@note_on channel=10 note=81 velocity=100 time=0@note_on channel=11 note=72 velocity=0 time=0@note_on channel=11 note=72 velocity=100 time=0@note_on channel=12 note=59 velocity=0 time=0@note_on channel=12 note=60 velocity=100 time=0@note_on channel=13 note=71 velocity=0 time=0@note_on channel=13 note=72 velocity=100 time=0@note_on channel=0 note=72 velocity=0 time=0.15872999999999998@note_on channel=0 note=72 velocity=100 time=0@note_on channel=4 note=72 velocity=0 time=0@note_on channel=4 note=71 velocity=100 time=0@note_on channel=5 note=76 velocity=0 time=0@note_on channel=5 note=69 velocity=100 time=0@note_on channel=0 note=72 velocity=0 time=0.15872999999999998@note_on channel=0 note=69 velocity=100 time=0@note_on channel=1 note=45 velocity=0 time=0@note_on channel=1 note=38 velocity=100 time=0@note_on channel=2 note=81 velocity=0 time=0@note_on channel=2 note=69 velocity=100 time=0@note_on channel=3 note=69 velocity=0 time=0@note_on channel=3 note=72 velocity=100 time=0@note_on channel=4 note=71 velocity=0 time=0@note_on channel=4 note=69 velocity=100 time=0@note_on channel=5 note=69 velocity=0 time=0@note_on channel=5 note=81 velocity=100 time=0@note_on channel=6 note=71 velocity=0 time=0@note_on channel=6 note=72 velocity=100 time=0@note_on channel=7 note=69 velocity=0 time=0@note_on channel=7 note=76 velocity=100 time=0@note_on channel=8 note=83 velocity=0 time=0@note_on channel=8 note=84 velocity=100 time=0@note_on channel=10 note=81 velocity=0 time=0@note_on channel=10 note=88 velocity=100 time=0@note_on channel=11 note=72 velocity=0 time=0@note_on channel=11 note=69 velocity=100 time=0@note_on channel=12 note=60 velocity=0 time=0@note_on channel=12 note=57 velocity=100 time=0@note_on channel=13 note=72 velocity=0 time=0@note_on channel=13 note=74 velocity=100 time=0@note_on channel=0 note=69 velocity=0 time=0.15872999999999998@note_on channel=0 note=72 velocity=100 time=0@note_on channel=3 note=72 velocity=0 time=0@note_on channel=3 note=74 velocity=100 time=0@note_on channel=4 note=69 velocity=0 time=0@note_on channel=4 note=68 velocity=100 time=0@note_on channel=5 note=81 velocity=0 time=0@note_on channel=5 note=80 velocity=100 time=0@note_on channel=7 note=76 velocity=0 time=0@note_on channel=7 note=74 velocity=100 time=0@note_on channel=0 note=72 velocity=0 time=0.15872999999999998@note_on channel=0 note=72 velocity=100 time=0@note_on channel=3 note=74 velocity=0 time=0@note_on channel=3 note=76 velocity=100 time=0@note_on channel=4 note=68 velocity=0 time=0@note_on channel=4 note=69 velocity=100 time=0@note_on channel=5 note=80 velocity=0 time=0@note_on channel=5 note=81 velocity=100 time=0@note_on channel=6 note=72 velocity=0 time=0@note_on channel=6 note=74 velocity=100 time=0@note_on channel=7 note=74 velocity=0 time=0@note_on channel=7 note=72 velocity=100 time=0@note_on channel=8 note=84 velocity=0 time=0@note_on channel=8 note=83 velocity=100 time=0@note_on channel=10 note=88 velocity=0 time=0@note_on channel=10 note=84 velocity=100 time=0@note_on channel=11 note=69 velocity=0 time=0@note_on channel=11 note=71 velocity=100 time=0@note_on channel=13 note=74 velocity=0 time=0@note_on channel=13 note=76 velocity=100 time=0@note_on channel=0 note=72 velocity=0 time=0.15872999999999998@note_on channel=0 note=72 velocity=100 time=0@note_on channel=2 note=69 velocity=0 time=0@note_on channel=2 note=71 velocity=100 time=0@note_on channel=4 note=69 velocity=0 time=0@note_on channel=4 note=71 velocity=100 time=0@note_on channel=5 note=81 velocity=0 time=0@note_on channel=5 note=83 velocity=100 time=0@note_on channel=7 note=72 velocity=0 time=0@note_on channel=7 note=71 velocity=100 time=0@note_on channel=12 note=57 velocity=0 time=0@note_on channel=12 note=59 velocity=100 time=0@note_on channel=0 note=72 velocity=0 time=0.15872999999999998@note_on channel=0 note=72 velocity=100 time=0@note_on channel=2 note=71 velocity=0 time=0@note_on channel=2 note=72 velocity=100 time=0@note_on channel=3 note=76 velocity=0 time=0@note_on channel=3 note=69 velocity=100 time=0@note_on channel=4 note=71 velocity=0 time=0@note_on channel=4 note=72 velocity=100 time=0@note_on channel=5 note=83 velocity=0 time=0@note_on channel=5 note=84 velocity=100 time=0@note_on channel=6 note=74 velocity=0 time=0@note_on channel=6 note=76 velocity=100 time=0@note_on channel=7 note=71 velocity=0 time=0@note_on channel=7 note=69 velocity=100 time=0@note_on channel=8 note=83 velocity=0 time=0@note_on channel=8 note=81 velocity=100 time=0@note_on channel=10 note=84 velocity=0 time=0@note_on channel=10 note=81 velocity=100 time=0@note_on channel=11 note=71 velocity=0 time=0@note_on channel=11 note=72 velocity=100 time=0@note_on channel=12 note=59 velocity=0 time=0@note_on channel=12 note=60 velocity=100 time=0@note_on channel=13 note=76 velocity=0 time=0@note_on channel=13 note=72 velocity=100 time=0@note_on channel=0 note=72 velocity=0 time=0.15872999999999998@note_on channel=0 note=72 velocity=100 time=0@note_on channel=2 note=72 velocity=0 time=0@note_on channel=2 note=74 velocity=100 time=0@note_on channel=4 note=72 velocity=0 time=0@note_on channel=4 note=69 velocity=100 time=0@note_on channel=5 note=84 velocity=0 time=0@note_on channel=5 note=81 velocity=100 time=0@note_on channel=0 note=72 velocity=0 time=0.15872999999999998@note_on channel=0 note=68 velocity=100 time=0@note_on channel=1 note=38 velocity=0 time=0@note_on channel=1 note=47 velocity=100 time=0@note_on channel=2 note=74 velocity=0 time=0@note_on channel=2 note=76 velocity=100 time=0@note_on channel=3 note=69 velocity=0 time=0@note_on channel=3 note=64 velocity=100 time=0@note_on channel=4 note=69 velocity=0 time=0@note_on channel=4 note=71 velocity=100 time=0@note_on channel=5 note=81 velocity=0 time=0@note_on channel=5 note=81 velocity=100 time=0@note_on channel=6 note=76 velocity=0 time=0@note_on channel=6 note=71 velocity=100 time=0@note_on channel=7 note=69 velocity=0 time=0@note_on channel=7 note=64 velocity=100 time=0@note_on channel=8 note=81 velocity=0 time=0@note_on channel=8 note=80 velocity=100 time=0@note_on channel=10 note=81 velocity=0 time=0@note_on channel=10 note=83 velocity=100 time=0@note_on channel=11 note=72 velocity=0 time=0@note_on channel=11 note=71 velocity=100 time=0@note_on channel=12 note=60 velocity=0 time=0@note_on channel=12 note=59 velocity=100 time=0@note_on channel=13 note=72 velocity=0 time=0@note_on channel=13 note=71 velocity=100 time=0@note_on channel=5 note=81 velocity=0 time=0.07936499999999999@note_on channel=5 note=80 velocity=100 time=0@note_on channel=0 note=68 velocity=0 time=0.07936499999999999@note_on channel=0 note=71 velocity=100 time=0@note_on channel=3 note=64 velocity=0 time=0@note_on channel=3 note=66 velocity=100 time=0@note_on channel=4 note=71 velocity=0 time=0@note_on channel=4 note=69 velocity=100 time=0@note_on channel=5 note=80 velocity=0 time=0@note_on channel=5 note=81 velocity=100 time=0@note_on channel=5 note=81 velocity=0 time=0.07936499999999999@note_on channel=5 note=80 velocity=100 time=0@note_on channel=0 note=71 velocity=0 time=0.07936499999999999@note_on channel=0 note=71 velocity=100 time=0@note_on channel=2 note=76 velocity=0 time=0@note_on channel=2 note=76 velocity=100 time=0@note_on channel=3 note=66 velocity=0 time=0@note_on channel=3 note=68 velocity=100 time=0@note_on channel=4 note=69 velocity=0 time=0@note_on channel=4 note=71 velocity=100 time=0@note_on channel=7 note=64 velocity=0 time=0@note_on channel=7 note=68 velocity=100 time=0@note_on channel=8 note=80 velocity=0 time=0@note_on channel=8 note=76 velocity=100 time=0@note_on channel=10 note=83 velocity=0 time=0@note_on channel=10 note=80 velocity=100 time=0@note_on channel=0 note=71 velocity=0 time=0.15872999999999998@note_on channel=0 note=71 velocity=100 time=0@note_on channel=4 note=71 velocity=0 time=0@note_on channel=4 note=69 velocity=100 time=0@note_on channel=12 note=59 velocity=0 time=0@note_on channel=12 note=57 velocity=100 time=0@note_on channel=0 note=71 velocity=0 time=0.15872999999999998@note_on channel=0 note=71 velocity=100 time=0@note_on channel=2 note=76 velocity=0 time=0@note_on channel=2 note=76 velocity=100 time=0@note_on channel=3 note=68 velocity=0 time=0@note_on channel=3 note=64 velocity=100 time=0@note_on channel=4 note=69 velocity=0 time=0@note_on channel=4 note=68 velocity=100 time=0@note_on channel=5 note=80 velocity=0 time=0@note_on channel=5 note=76 velocity=100 time=0@note_on channel=6 note=71 velocity=0 time=0@note_on channel=6 note=68 velocity=100 time=0@note_on channel=7 note=68 velocity=0 time=0@note_on channel=7 note=64 velocity=100 time=0@note_on channel=8 note=76 velocity=0 time=0@note_on channel=8 note=71 velocity=100 time=0@note_on channel=10 note=80 velocity=0 time=0@note_on channel=10 note=76 velocity=100 time=0@note_on channel=11 note=71 velocity=0 time=0@note_on channel=11 note=71 velocity=100 time=0@note_on channel=12 note=57 velocity=0 time=0@note_on channel=12 note=59 velocity=100 time=0@note_on channel=13 note=71 velocity=0 time=0@note_on channel=13 note=68 velocity=100 time=0@note_on channel=0 note=71 velocity=0 time=0.15872999999999998@note_on channel=0 note=71 velocity=100 time=0@note_on channel=4 note=68 velocity=0 time=0@note_on channel=4 note=66 velocity=100 time=0@note_on channel=0 note=71 velocity=0 time=0.15872999999999998@note_on channel=0 note=64 velocity=100 time=0@note_on channel=1 note=47 velocity=0 time=0@note_on channel=1 note=40 velocity=100 time=0@note_on channel=2 note=76 velocity=0 time=0@note_on channel=2 note=68 velocity=100 time=0@note_on channel=3 note=64 velocity=0 time=0@note_on channel=3 note=68 velocity=100 time=0@note_on channel=4 note=66 velocity=0 time=0@note_on channel=4 note=64 velocity=100 time=0@note_on channel=5 note=76 velocity=0 time=0@note_on channel=5 note=76 velocity=100 time=0@note_on channel=6 note=68 velocity=0 time=0@note_on channel=6 note=64 velocity=100 time=0@note_on channel=7 note=64 velocity=0 time=0@note_on channel=7 note=71 velocity=100 time=0@note_on channel=8 note=71 velocity=0 time=0@note_on channel=8 note=76 velocity=100 time=0@note_on channel=10 note=76 velocity=0 time=0@note_on channel=10 note=83 velocity=100 time=0@note_on channel=11 note=71 velocity=0 time=0@note_on channel=11 note=68 velocity=100 time=0@note_on channel=12 note=59 velocity=0 time=0@note_on channel=12 note=56 velocity=100 time=0@note_on channel=13 note=68 velocity=0 time=0@note_on channel=13 note=64 velocity=100 time=0@note_on channel=2 note=68 velocity=0 time=0.07936499999999999@note_on channel=2 note=69 velocity=100 time=0@note_on channel=0 note=64 velocity=0 time=0.07936499999999999@note_on channel=0 note=71 velocity=100 time=0@note_on channel=2 note=69 velocity=0 time=0@note_on channel=2 note=68 velocity=100 time=0@note_on channel=3 note=68 velocity=0 time=0@note_on channel=3 note=69 velocity=100 time=0@note_on channel=4 note=64 velocity=0 time=0@note_on channel=4 note=66 velocity=100 time=0@note_on channel=7 note=71 velocity=0 time=0@note_on channel=7 note=69 velocity=100 time=0@note_on channel=0 note=71 velocity=0 time=0.15872999999999998@note_on channel=0 note=71 velocity=100 time=0@note_on channel=2 note=68 velocity=0 time=0@note_on channel=2 note=64 velocity=100 time=0@note_on channel=3 note=69 velocity=0 time=0@note_on channel=3 note=71 velocity=100 time=0@note_on channel=4 note=66 velocity=0 time=0@note_on channel=4 note=68 velocity=100 time=0@note_on channel=7 note=69 velocity=0 time=0@note_on channel=7 note=68 velocity=100 time=0@note_on channel=8 note=76 velocity=0 time=0@note_on channel=8 note=77 velocity=100 time=0@note_on channel=10 note=83 velocity=0 time=0@note_on channel=10 note=80 velocity=100 time=0@note_on channel=11 note=68 velocity=0 time=0@note_on channel=11 note=69 velocity=100 time=0@note_on channel=8 note=77 velocity=0 time=0.07936499999999999@note_on channel=8 note=76 velocity=100 time=0@note_on channel=0 note=71 velocity=0 time=0.07936499999999999@note_on channel=0 note=71 velocity=100 time=0@note_on channel=4 note=68 velocity=0 time=0@note_on channel=4 note=69 velocity=100 time=0@note_on channel=7 note=68 velocity=0 time=0@note_on channel=7 note=66 velocity=100 time=0@note_on channel=8 note=76 velocity=0 time=0@note_on channel=8 note=77 velocity=100 time=0@note_on channel=12 note=56 velocity=0 time=0@note_on channel=12 note=57 velocity=100 time=0@note_on channel=8 note=77 velocity=0 time=0.07936499999999999@note_on channel=8 note=76 velocity=100 time=0@note_on channel=0 note=71 velocity=0 time=0.07936499999999999@note_on channel=0 note=71 velocity=100 time=0@note_on channel=2 note=64 velocity=0 time=0@note_on channel=2 note=64 velocity=100 time=0@note_on channel=3 note=71 velocity=0 time=0@note_on channel=3 note=64 velocity=100 time=0@note_on channel=4 note=69 velocity=0 time=0@note_on channel=4 note=68 velocity=100 time=0@note_on channel=7 note=66 velocity=0 time=0@note_on channel=7 note=64 velocity=100 time=0@note_on channel=10 note=80 velocity=0 time=0@note_on channel=10 note=76 velocity=100 time=0@note_on channel=11 note=69 velocity=0 time=0@note_on channel=11 note=71 velocity=100 time=0@note_on channel=12 note=57 velocity=0 time=0@note_on channel=12 note=59 velocity=100 time=0@note_on channel=0 note=71 velocity=0 time=0.15872999999999998@note_on channel=0 note=71 velocity=100 time=0@note_on channel=4 note=68 velocity=0 time=0@note_on channel=4 note=64 velocity=100 time=0@note_on channel=8 note=76 velocity=0 time=0@note_on channel=8 note=77 velocity=100 time=0@note_on channel=0 note=71 velocity=0 time=0.15872999999999998@note_on channel=0 note=76 velocity=100 time=0@note_on channel=1 note=40 velocity=0 time=0@note_on channel=1 note=48 velocity=100 time=0@note_on channel=2 note=64 velocity=0 time=0@note_on channel=2 note=84 velocity=100 time=0@note_on channel=3 note=64 velocity=0 time=0@note_on channel=3 note=72 velocity=100 time=0@note_on channel=4 note=64 velocity=0 time=0@note_on channel=4 note=72 velocity=100 time=0@note_on channel=5 note=76 velocity=0 time=0@note_on channel=5 note=72 velocity=100 time=0@note_on channel=6 note=64 velocity=0 time=0@note_on channel=6 note=76 velocity=100 time=0@note_on channel=7 note=64 velocity=0 time=0@note_on channel=7 note=72 velocity=100 time=0@note_on channel=8 note=77 velocity=0 time=0@note_on channel=8 note=79 velocity=100 time=0@note_on channel=10 note=76 velocity=0 time=0@note_on channel=10 note=91 velocity=100 time=0@note_on channel=11 note=71 velocity=0 time=0@note_on channel=11 note=79 velocity=100 time=0@note_on channel=12 note=59 velocity=0 time=0@note_on channel=12 note=60 velocity=100 time=0@note_on channel=13 note=64 velocity=0 time=0@note_on channel=13 note=72 velocity=100 time=0@note_on channel=10 note=91 velocity=0 time=0.07936499999999999@note_on channel=10 note=93 velocity=100 time=0@note_on channel=0 note=76 velocity=0 time=0.07936499999999999@note_on channel=0 note=79 velocity=100 time=0@note_on channel=3 note=72 velocity=0 time=0@note_on channel=3 note=74 velocity=100 time=0@note_on channel=4 note=72 velocity=0 time=0@note_on channel=4 note=71 velocity=100 time=0@note_on channel=5 note=72 velocity=0 time=0@note_on channel=5 note=71 velocity=100 time=0@note_on channel=10 note=93 velocity=0 time=0@note_on channel=10 note=91 velocity=100 time=0@note_on channel=0 note=79 velocity=0 time=0.15872999999999998@note_on channel=0 note=79 velocity=100 time=0@note_on channel=2 note=84 velocity=0 time=0@note_on channel=2 note=84 velocity=100 time=0@note_on channel=3 note=74 velocity=0 time=0@note_on channel=3 note=76 velocity=100 time=0@note_on channel=4 note=71 velocity=0 time=0@note_on channel=4 note=72 velocity=100 time=0@note_on channel=5 note=71 velocity=0 time=0@note_on channel=5 note=72 velocity=100 time=0@note_on channel=6 note=76 velocity=0 time=0@note_on channel=6 note=72 velocity=100 time=0@note_on channel=7 note=72 velocity=0 time=0@note_on channel=7 note=76 velocity=100 time=0@note_on channel=8 note=79 velocity=0 time=0@note_on channel=8 note=72 velocity=100 time=0@note_on channel=10 note=91 velocity=0 time=0@note_on channel=10 note=88 velocity=100 time=0@note_on channel=0 note=79 velocity=0 time=0.15872999999999998@note_on channel=0 note=79 velocity=100 time=0@note_on channel=4 note=72 velocity=0 time=0@note_on channel=4 note=74 velocity=100 time=0@note_on channel=5 note=72 velocity=0 time=0@note_on channel=5 note=74 velocity=100 time=0@note_on channel=12 note=60 velocity=0 time=0@note_on channel=12 note=62 velocity=100 time=0@note_on channel=0 note=79 velocity=0 time=0.15872999999999998@note_on channel=0 note=79 velocity=100 time=0@note_on channel=2 note=84 velocity=0 time=0@note_on channel=2 note=84 velocity=100 time=0@note_on channel=3 note=76 velocity=0 time=0@note_on channel=3 note=72 velocity=100 time=0@note_on channel=4 note=74 velocity=0 time=0@note_on channel=4 note=76 velocity=100 time=0@note_on channel=5 note=74 velocity=0 time=0@note_on channel=5 note=76 velocity=100 time=0@note_on channel=6 note=72 velocity=0 time=0@note_on channel=6 note=74 velocity=100 time=0@note_on channel=7 note=76 velocity=0 time=0@note_on channel=7 note=72 velocity=100 time=0@note_on channel=8 note=72 velocity=0 time=0@note_on channel=8 note=81 velocity=100 time=0@note_on channel=10 note=88 velocity=0 time=0@note_on channel=10 note=84 velocity=100 time=0@note_on channel=11 note=79 velocity=0 time=0@note_on channel=11 note=79 velocity=100 time=0@note_on channel=12 note=62 velocity=0 time=0@note_on channel=12 note=64 velocity=100 time=0@note_on channel=13 note=72 velocity=0 time=0@note_on channel=13 note=74 velocity=100 time=0@note_on channel=0 note=79 velocity=0 time=0.15872999999999998@note_on channel=0 note=79 velocity=100 time=0@note_on channel=4 note=76 velocity=0 time=0@note_on channel=4 note=74 velocity=100 time=0@note_on channel=5 note=76 velocity=0 time=0@note_on channel=5 note=77 velocity=100 time=0@note_on channel=0 note=79 velocity=0 time=0.15872999999999998@note_on channel=0 note=72 velocity=100 time=0@note_on channel=1 note=48 velocity=0 time=0@note_on channel=1 note=40 velocity=100 time=0@note_on channel=2 note=84 velocity=0 time=0@note_on channel=2 note=72 velocity=100 time=0@note_on channel=3 note=72 velocity=0 time=0@note_on channel=3 note=76 velocity=100 time=0@note_on channel=4 note=74 velocity=0 time=0@note_on channel=4 note=72 velocity=100 time=0@note_on channel=5 note=77 velocity=0 time=0@note_on channel=5 note=79 velocity=100 time=0@note_on channel=6 note=74 velocity=0 time=0@note_on channel=6 note=76 velocity=100 time=0@note_on channel=7 note=72 velocity=0 time=0@note_on channel=7 note=79 velocity=100 time=0@note_on channel=8 note=81 velocity=0 time=0@note_on channel=8 note=81 velocity=100 time=0@note_on channel=10 note=84 velocity=0 time=0@note_on channel=10 note=91 velocity=100 time=0@note_on channel=11 note=79 velocity=0 time=0@note_on channel=11 note=79 velocity=100 time=0@note_on channel=12 note=64 velocity=0 time=0@note_on channel=12 note=64 velocity=100 time=0@note_on channel=13 note=74 velocity=0 time=0@note_on channel=13 note=76 velocity=100 time=0@note_on channel=8 note=81 velocity=0 time=0.07936499999999999@note_on channel=8 note=79 velocity=100 time=0@note_on channel=10 note=91 velocity=0 time=0@note_on channel=10 note=93 velocity=100 time=0@note_on channel=0 note=72 velocity=0 time=0.07936499999999999@note_on channel=0 note=79 velocity=100 time=0@note_on channel=3 note=76 velocity=0 time=0@note_on channel=3 note=77 velocity=100 time=0@note_on channel=4 note=72 velocity=0 time=0@note_on channel=4 note=71 velocity=100 time=0@note_on channel=5 note=79 velocity=0 time=0@note_on channel=5 note=81 velocity=100 time=0@note_on channel=7 note=79 velocity=0 time=0@note_on channel=7 note=77 velocity=100 time=0@note_on channel=8 note=79 velocity=0 time=0@note_on channel=8 note=81 velocity=100 time=0@note_on channel=10 note=93 velocity=0 time=0@note_on channel=10 note=91 velocity=100 time=0@note_on channel=8 note=81 velocity=0 time=0.07936499999999999@note_on channel=8 note=79 velocity=100 time=0@note_on channel=0 note=79 velocity=0 time=0.07936499999999999@note_on channel=0 note=79 velocity=100 time=0@note_on channel=3 note=77 velocity=0 time=0@note_on channel=3 note=79 velocity=100 time=0@note_on channel=4 note=71 velocity=0 time=0@note_on channel=4 note=72 velocity=100 time=0@note_on channel=5 note=81 velocity=0 time=0@note_on channel=5 note=83 velocity=100 time=0@note_on channel=6 note=76 velocity=0 time=0@note_on channel=6 note=77 velocity=100 time=0@note_on channel=7 note=77 velocity=0 time=0@note_on channel=7 note=76 velocity=100 time=0@note_on channel=10 note=91 velocity=0 time=0@note_on channel=10 note=88 velocity=100 time=0@note_on channel=11 note=79 velocity=0 time=0@note_on channel=11 note=77 velocity=100 time=0@note_on channel=0 note=79 velocity=0 time=0.15872999999999998@note_on channel=0 note=79 velocity=100 time=0@note_on channel=2 note=72 velocity=0 time=0@note_on channel=2 note=74 velocity=100 time=0@note_on channel=4 note=72 velocity=0 time=0@note_on channel=4 note=74 velocity=100 time=0@note_on channel=5 note=83 velocity=0 time=0@note_on channel=5 note=79 velocity=100 time=0@note_on channel=7 note=76 velocity=0 time=0@note_on channel=7 note=74 velocity=100 time=0@note_on channel=8 note=79 velocity=0 time=0@note_on channel=8 note=77 velocity=100 time=0@note_on channel=12 note=64 velocity=0 time=0@note_on channel=12 note=65 velocity=100 time=0@note_on channel=13 note=76 velocity=0 time=0@note_on channel=13 note=74 velocity=100 time=0@note_on channel=0 note=79 velocity=0 time=0.15872999999999998@note_on channel=0 note=79 velocity=100 time=0@note_on channel=2 note=74 velocity=0 time=0@note_on channel=2 note=76 velocity=100 time=0@note_on channel=3 note=79 velocity=0 time=0@note_on channel=3 note=72 velocity=100 time=0@note_on channel=4 note=74 velocity=0 time=0@note_on channel=4 note=76 velocity=100 time=0@note_on channel=5 note=79 velocity=0 time=0@note_on channel=5 note=81 velocity=100 time=0@note_on channel=6 note=77 velocity=0 time=0@note_on channel=6 note=79 velocity=100 time=0@note_on channel=7 note=74 velocity=0 time=0@note_on channel=7 note=72 velocity=100 time=0@note_on channel=8 note=77 velocity=0 time=0@note_on channel=8 note=76 velocity=100 time=0@note_on channel=10 note=88 velocity=0 time=0@note_on channel=10 note=84 velocity=100 time=0@note_on channel=11 note=77 velocity=0 time=0@note_on channel=11 note=76 velocity=100 time=0@note_on channel=12 note=65 velocity=0 time=0@note_on channel=12 note=67 velocity=100 time=0@note_on channel=13 note=74 velocity=0 time=0@note_on channel=13 note=72 velocity=100 time=0@note_on channel=0 note=79 velocity=0 time=0.15872999999999998@note_on channel=0 note=79 velocity=100 time=0@note_on channel=2 note=76 velocity=0 time=0@note_on channel=2 note=77 velocity=100 time=0@note_on channel=4 note=76 velocity=0 time=0@note_on channel=4 note=74 velocity=100 time=0@note_on channel=5 note=81 velocity=0 time=0@note_on channel=5 note=83 velocity=100 time=0@note_on channel=0 note=79 velocity=0 time=0.15872999999999998@note_on channel=0 note=71 velocity=100 time=0@note_on channel=1 note=40 velocity=0 time=0@note_on channel=1 note=50 velocity=100 time=0@note_on channel=2 note=77 velocity=0 time=0@note_on channel=2 note=79 velocity=100 time=0@note_on channel=3 note=72 velocity=0 time=0@note_on channel=3 note=67 velocity=100 time=0@note_on channel=4 note=74 velocity=0 time=0@note_on channel=4 note=74 velocity=100 time=0@note_on channel=5 note=83 velocity=0 time=0@note_on channel=5 note=81 velocity=100 time=0@note_on channel=6 note=79 velocity=0 time=0@note_on channel=6 note=71 velocity=100 time=0@note_on channel=7 note=72 velocity=0 time=0@note_on channel=7 note=67 velocity=100 time=0@note_on channel=8 note=76 velocity=0 time=0@note_on channel=8 note=74 velocity=100 time=0@note_on channel=10 note=84 velocity=0 time=0@note_on channel=10 note=86 velocity=100 time=0@note_on channel=11 note=76 velocity=0 time=0@note_on channel=11 note=74 velocity=100 time=0@note_on channel=12 note=67 velocity=0 time=0@note_on channel=12 note=62 velocity=100 time=0@note_on channel=13 note=72 velocity=0 time=0@note_on channel=13 note=74 velocity=100 time=0@note_on channel=5 note=81 velocity=0 time=0.07936499999999999@note_on channel=5 note=79 velocity=100 time=0@note_on channel=10 note=86 velocity=0 time=0@note_on channel=10 note=84 velocity=100 time=0@note_on channel=0 note=71 velocity=0 time=0.07936499999999999@note_on channel=0 note=74 velocity=100 time=0@note_on channel=3 note=67 velocity=0 time=0@note_on channel=3 note=69 velocity=100 time=0@note_on channel=4 note=74 velocity=0 time=0@note_on channel=4 note=72 velocity=100 time=0@note_on channel=5 note=79 velocity=0 time=0@note_on channel=5 note=81 velocity=100 time=0@note_on channel=10 note=84 velocity=0 time=0@note_on channel=10 note=86 velocity=100 time=0@note_on channel=5 note=81 velocity=0 time=0.07936499999999999@note_on channel=5 note=79 velocity=100 time=0@note_on channel=0 note=74 velocity=0 time=0.07936499999999999@note_on channel=0 note=74 velocity=100 time=0@note_on channel=2 note=79 velocity=0 time=0@note_on channel=2 note=79 velocity=100 time=0@note_on channel=3 note=69 velocity=0 time=0@note_on channel=3 note=71 velocity=100 time=0@note_on channel=4 note=72 velocity=0 time=0@note_on channel=4 note=74 velocity=100 time=0@note_on channel=5 note=79 velocity=0 time=0@note_on channel=5 note=74 velocity=100 time=0@note_on channel=6 note=71 velocity=0 time=0@note_on channel=6 note=67 velocity=100 time=0@note_on channel=7 note=67 velocity=0 time=0@note_on channel=7 note=71 velocity=100 time=0@note_on channel=8 note=74 velocity=0 time=0@note_on channel=8 note=71 velocity=100 time=0@note_on channel=10 note=86 velocity=0 time=0@note_on channel=10 note=83 velocity=100 time=0@note_on channel=0 note=74 velocity=0 time=0.15872999999999998@note_on channel=0 note=74 velocity=100 time=0@note_on channel=4 note=74 velocity=0 time=0@note_on channel=4 note=76 velocity=100 time=0@note_on channel=12 note=62 velocity=0 time=0@note_on channel=12 note=64 velocity=100 time=0@note_on channel=0 note=74 velocity=0 time=0.15872999999999998@note_on channel=0 note=74 velocity=100 time=0@note_on channel=2 note=79 velocity=0 time=0@note_on channel=2 note=81 velocity=100 time=0@note_on channel=3 note=71 velocity=0 time=0@note_on channel=3 note=67 velocity=100 time=0@note_on channel=4 note=76 velocity=0 time=0@note_on channel=4 note=74 velocity=100 time=0@note_on channel=5 note=74 velocity=0 time=0@note_on channel=5 note=74 velocity=100 time=0@note_on channel=6 note=67 velocity=0 time=0@note_on channel=6 note=69 velocity=100 time=0@note_on channel=7 note=71 velocity=0 time=0@note_on channel=7 note=67 velocity=100 time=0@note_on channel=8 note=71 velocity=0 time=0@note_on channel=8 note=67 velocity=100 time=0@note_on channel=10 note=83 velocity=0 time=0@note_on channel=10 note=79 velocity=100 time=0@note_on channel=11 note=74 velocity=0 time=0@note_on channel=11 note=74 velocity=100 time=0@note_on channel=12 note=64 velocity=0 time=0@note_on channel=12 note=62 velocity=100 time=0@note_on channel=13 note=74 velocity=0 time=0@note_on channel=13 note=71 velocity=100 time=0@note_on channel=0 note=74 velocity=0 time=0.15872999999999998@note_on channel=0 note=74 velocity=100 time=0@note_on channel=4 note=74 velocity=0 time=0@note_on channel=4 note=72 velocity=100 time=0@note_on channel=0 note=74 velocity=0 time=0.15872999999999998@note_on channel=0 note=67 velocity=100 time=0@note_on channel=1 note=50 velocity=0 time=0@note_on channel=1 note=43 velocity=100 time=0@note_on channel=2 note=81 velocity=0 time=0@note_on channel=2 note=84 velocity=100 time=0@note_on channel=3 note=67 velocity=0 time=0@note_on channel=3 note=71 velocity=100 time=0@note_on channel=4 note=72 velocity=0 time=0@note_on channel=4 note=71 velocity=100 time=0@note_on channel=5 note=74 velocity=0 time=0@note_on channel=5 note=74 velocity=100 time=0@note_on channel=6 note=69 velocity=0 time=0@note_on channel=6 note=71 velocity=100 time=0@note_on channel=7 note=67 velocity=0 time=0@note_on channel=7 note=74 velocity=100 time=0@note_on channel=8 note=67 velocity=0 time=0@note_on channel=8 note=74 velocity=100 time=0@note_on channel=10 note=79 velocity=0 time=0@note_on channel=10 note=86 velocity=100 time=0@note_on channel=11 note=74 velocity=0 time=0@note_on channel=11 note=71 velocity=100 time=0@note_on channel=12 note=62 velocity=0 time=0@note_on channel=12 note=59 velocity=100 time=0@note_on channel=13 note=71 velocity=0 time=0@note_on channel=13 note=67 velocity=100 time=0@note_on channel=2 note=84 velocity=0 time=0.07936499999999999@note_on channel=2 note=83 velocity=100 time=0@note_on channel=10 note=86 velocity=0 time=0@note_on channel=10 note=84 velocity=100 time=0@note_on channel=0 note=67 velocity=0 time=0.07936499999999999@note_on channel=0 note=74 velocity=100 time=0@note_on channel=2 note=83 velocity=0 time=0@note_on channel=2 note=84 velocity=100 time=0@note_on channel=3 note=71 velocity=0 time=0@note_on channel=3 note=72 velocity=100 time=0@note_on channel=4 note=71 velocity=0 time=0@note_on channel=4 note=69 velocity=100 time=0@note_on channel=7 note=74 velocity=0 time=0@note_on channel=7 note=72 velocity=100 time=0@note_on channel=10 note=84 velocity=0 time=0@note_on channel=10 note=86 velocity=100 time=0@note_on channel=2 note=84 velocity=0 time=0.07936499999999999@note_on channel=2 note=83 velocity=100 time=0@note_on channel=0 note=74 velocity=0 time=0.07936499999999999@note_on channel=0 note=74 velocity=100 time=0@note_on channel=3 note=72 velocity=0 time=0@note_on channel=3 note=74 velocity=100 time=0@note_on channel=4 note=69 velocity=0 time=0@note_on channel=4 note=71 velocity=100 time=0@note_on channel=6 note=71 velocity=0 time=0@note_on channel=6 note=72 velocity=100 time=0@note_on channel=7 note=72 velocity=0 time=0@note_on channel=7 note=71 velocity=100 time=0@note_on channel=8 note=74 velocity=0 time=0@note_on channel=8 note=62 velocity=100 time=0@note_on channel=10 note=86 velocity=0 time=0@note_on channel=10 note=83 velocity=100 time=0@note_on channel=11 note=71 velocity=0 time=0@note_on channel=11 note=72 velocity=100 time=0@note_on channel=0 note=74 velocity=0 time=0.15872999999999998@note_on channel=0 note=74 velocity=100 time=0@note_on channel=2 note=83 velocity=0 time=0@note_on channel=2 note=81 velocity=100 time=0@note_on channel=4 note=71 velocity=0 time=0@note_on channel=4 note=72 velocity=100 time=0@note_on channel=5 note=74 velocity=0 time=0@note_on channel=5 note=76 velocity=100 time=0@note_on channel=7 note=71 velocity=0 time=0@note_on channel=7 note=69 velocity=100 time=0@note_on channel=12 note=59 velocity=0 time=0@note_on channel=12 note=60 velocity=100 time=0@note_on channel=13 note=67 velocity=0 time=0@note_on channel=13 note=69 velocity=100 time=0@note_on channel=0 note=74 velocity=0 time=0.15872999999999998@note_on channel=0 note=74 velocity=100 time=0@note_on channel=2 note=81 velocity=0 time=0@note_on channel=2 note=79 velocity=100 time=0@note_on channel=3 note=74 velocity=0 time=0@note_on channel=3 note=67 velocity=100 time=0@note_on channel=4 note=72 velocity=0 time=0@note_on channel=4 note=74 velocity=100 time=0@note_on channel=5 note=76 velocity=0 time=0@note_on channel=5 note=77 velocity=100 time=0@note_on channel=6 note=72 velocity=0 time=0@note_on channel=6 note=74 velocity=100 time=0@note_on channel=7 note=69 velocity=0 time=0@note_on channel=7 note=67 velocity=100 time=0@note_on channel=8 note=62 velocity=0 time=0@note_on channel=8 note=76 velocity=100 time=0@note_on channel=10 note=83 velocity=0 time=0@note_on channel=10 note=79 velocity=100 time=0@note_on channel=11 note=72 velocity=0 time=0@note_on channel=11 note=74 velocity=100 time=0@note_on channel=12 note=60 velocity=0 time=0@note_on channel=12 note=62 velocity=100 time=0@note_on channel=13 note=69 velocity=0 time=0@note_on channel=13 note=71 velocity=100 time=0@note_on channel=0 note=74 velocity=0 time=0.15872999999999998@note_on channel=0 note=74 velocity=100 time=0@note_on channel=4 note=74 velocity=0 time=0@note_on channel=4 note=72 velocity=100 time=0@note_on channel=8 note=76 velocity=0 time=0@note_on channel=8 note=74 velocity=100 time=0@note_on channel=0 note=74 velocity=0 time=0.15872999999999998@note_on channel=0 note=69 velocity=100 time=0@note_on channel=1 note=43 velocity=0 time=0@note_on channel=1 note=45 velocity=100 time=0@note_on channel=2 note=79 velocity=0 time=0@note_on channel=2 note=84 velocity=100 time=0@note_on channel=3 note=67 velocity=0 time=0@note_on channel=3 note=81 velocity=100 time=0@note_on channel=4 note=72 velocity=0 time=0@note_on channel=4 note=72 velocity=100 time=0@note_on channel=5 note=77 velocity=0 time=0@note_on channel=5 note=72 velocity=100 time=0@note_on channel=6 note=74 velocity=0 time=0@note_on channel=6 note=72 velocity=100 time=0@note_on channel=7 note=67 velocity=0 time=0@note_on channel=7 note=76 velocity=100 time=0@note_on channel=8 note=74 velocity=0 time=0@note_on channel=8 note=72 velocity=100 time=0@note_on channel=10 note=79 velocity=0 time=0@note_on channel=10 note=88 velocity=100 time=0@note_on channel=11 note=74 velocity=0 time=0@note_on channel=11 note=76 velocity=100 time=0@note_on channel=12 note=62 velocity=0 time=0@note_on channel=12 note=60 velocity=100 time=0@note_on channel=13 note=71 velocity=0 time=0@note_on channel=13 note=72 velocity=100 time=0@note_on channel=6 note=72 velocity=0 time=0.07936499999999999@note_on channel=6 note=74 velocity=100 time=0@note_on channel=0 note=69 velocity=0 time=0.07936499999999999@note_on channel=0 note=72 velocity=100 time=0@note_on channel=3 note=81 velocity=0 time=0@note_on channel=3 note=83 velocity=100 time=0@note_on channel=4 note=72 velocity=0 time=0@note_on channel=4 note=71 velocity=100 time=0@note_on channel=6 note=74 velocity=0 time=0@note_on channel=6 note=72 velocity=100 time=0@note_on channel=7 note=76 velocity=0 time=0@note_on channel=7 note=74 velocity=100 time=0@note_on channel=0 note=72 velocity=0 time=0.15872999999999998@note_on channel=0 note=72 velocity=100 time=0@note_on channel=2 note=84 velocity=0 time=0@note_on channel=2 note=83 velocity=100 time=0@note_on channel=3 note=83 velocity=0 time=0@note_on channel=3 note=84 velocity=100 time=0@note_on channel=4 note=71 velocity=0 time=0@note_on channel=4 note=72 velocity=100 time=0@note_on channel=5 note=72 velocity=0 time=0@note_on channel=5 note=71 velocity=100 time=0@note_on channel=6 note=72 velocity=0 time=0@note_on channel=6 note=69 velocity=100 time=0@note_on channel=7 note=74 velocity=0 time=0@note_on channel=7 note=72 velocity=100 time=0@note_on channel=8 note=72 velocity=0 time=0@note_on channel=8 note=71 velocity=100 time=0@note_on channel=10 note=88 velocity=0 time=0@note_on channel=10 note=84 velocity=100 time=0@note_on channel=11 note=76 velocity=0 time=0@note_on channel=11 note=74 velocity=100 time=0@note_on channel=12 note=60 velocity=0 time=0@note_on channel=12 note=59 velocity=100 time=0@note_on channel=0 note=72 velocity=0 time=0.15872999999999998@note_on channel=0 note=72 velocity=100 time=0@note_on channel=4 note=72 velocity=0 time=0@note_on channel=4 note=74 velocity=100 time=0@note_on channel=7 note=72 velocity=0 time=0@note_on channel=7 note=71 velocity=100 time=0@note_on channel=13 note=72 velocity=0 time=0@note_on channel=13 note=71 velocity=100 time=0@note_on channel=0 note=72 velocity=0 time=0.15872999999999998@note_on channel=0 note=72 velocity=100 time=0@note_on channel=2 note=83 velocity=0 time=0@note_on channel=2 note=81 velocity=100 time=0@note_on channel=3 note=84 velocity=0 time=0@note_on channel=3 note=81 velocity=100 time=0@note_on channel=4 note=74 velocity=0 time=0@note_on channel=4 note=76 velocity=100 time=0@note_on channel=5 note=71 velocity=0 time=0@note_on channel=5 note=69 velocity=100 time=0@note_on channel=6 note=69 velocity=0 time=0@note_on channel=6 note=72 velocity=100 time=0@note_on channel=7 note=71 velocity=0 time=0@note_on channel=7 note=69 velocity=100 time=0@note_on channel=8 note=71 velocity=0 time=0@note_on channel=8 note=69 velocity=100 time=0@note_on channel=10 note=84 velocity=0 time=0@note_on channel=10 note=81 velocity=100 time=0@note_on channel=11 note=74 velocity=0 time=0@note_on channel=11 note=72 velocity=100 time=0@note_on channel=12 note=59 velocity=0 time=0@note_on channel=12 note=57 velocity=100 time=0@note_on channel=13 note=71 velocity=0 time=0@note_on channel=13 note=69 velocity=100 time=0@note_on channel=0 note=72 velocity=0 time=0.15872999999999998@note_on channel=0 note=72 velocity=100 time=0@note_on channel=4 note=76 velocity=0 time=0@note_on channel=4 note=74 velocity=100 time=0@note_on channel=0 note=72 velocity=0 time=0.15872999999999998@note_on channel=0 note=64 velocity=100 time=0@note_on channel=1 note=45 velocity=0 time=0@note_on channel=1 note=38 velocity=100 time=0@note_on channel=2 note=81 velocity=0 time=0@note_on channel=2 note=81 velocity=100 time=0@note_on channel=3 note=81 velocity=0 time=0@note_on channel=3 note=80 velocity=100 time=0@note_on channel=4 note=74 velocity=0 time=0@note_on channel=4 note=74 velocity=100 time=0@note_on channel=5 note=69 velocity=0 time=0@note_on channel=5 note=69 velocity=100 time=0@note_on channel=6 note=72 velocity=0 time=0@note_on channel=6 note=71 velocity=100 time=0@note_on channel=7 note=69 velocity=0 time=0@note_on channel=7 note=71 velocity=100 time=0@note_on channel=8 note=69 velocity=0 time=0@note_on channel=8 note=71 velocity=100 time=0@note_on channel=10 note=81 velocity=0 time=0@note_on channel=10 note=83 velocity=100 time=0@note_on channel=11 note=72 velocity=0 time=0@note_on channel=11 note=74 velocity=100 time=0@note_on channel=12 note=57 velocity=0 time=0@note_on channel=12 note=57 velocity=100 time=0@note_on channel=13 note=69 velocity=0 time=0@note_on channel=13 note=72 velocity=100 time=0@note_on channel=2 note=81 velocity=0 time=0.07936499999999999@note_on channel=2 note=80 velocity=100 time=0@note_on channel=5 note=69 velocity=0 time=0@note_on channel=5 note=68 velocity=100 time=0@note_on channel=6 note=71 velocity=0 time=0@note_on channel=6 note=72 velocity=100 time=0@note_on channel=10 note=83 velocity=0 time=0@note_on channel=10 note=84 velocity=100 time=0@note_on channel=12 note=57 velocity=0 time=0@note_on channel=12 note=56 velocity=100 time=0@note_on channel=13 note=72 velocity=0 time=0@note_on channel=13 note=71 velocity=100 time=0@note_on channel=0 note=64 velocity=0 time=0.07936499999999999@note_on channel=0 note=71 velocity=100 time=0@note_on channel=2 note=80 velocity=0 time=0@note_on channel=2 note=81 velocity=100 time=0@note_on channel=3 note=80 velocity=0 time=0@note_on channel=3 note=81 velocity=100 time=0@note_on channel=4 note=74 velocity=0 time=0@note_on channel=4 note=72 velocity=100 time=0@note_on channel=5 note=68 velocity=0 time=0@note_on channel=5 note=69 velocity=100 time=0@note_on channel=6 note=72 velocity=0 time=0@note_on channel=6 note=71 velocity=100 time=0@note_on channel=7 note=71 velocity=0 time=0@note_on channel=7 note=69 velocity=100 time=0@note_on channel=10 note=84 velocity=0 time=0@note_on channel=10 note=83 velocity=100 time=0@note_on channel=12 note=56 velocity=0 time=0@note_on channel=12 note=57 velocity=100 time=0@note_on channel=13 note=71 velocity=0 time=0@note_on channel=13 note=72 velocity=100 time=0@note_on channel=2 note=81 velocity=0 time=0.07936499999999999@note_on channel=2 note=80 velocity=100 time=0@note_on channel=5 note=69 velocity=0 time=0@note_on channel=5 note=68 velocity=100 time=0@note_on channel=12 note=57 velocity=0 time=0@note_on channel=12 note=56 velocity=100 time=0@note_on channel=13 note=72 velocity=0 time=0@note_on channel=13 note=71 velocity=100 time=0@note_on channel=0 note=71 velocity=0 time=0.07936499999999999@note_on channel=0 note=71 velocity=100 time=0@note_on channel=3 note=81 velocity=0 time=0@note_on channel=3 note=83 velocity=100 time=0@note_on channel=4 note=72 velocity=0 time=0@note_on channel=4 note=71 velocity=100 time=0@note_on channel=6 note=71 velocity=0 time=0@note_on channel=6 note=68 velocity=100 time=0@note_on channel=7 note=69 velocity=0 time=0@note_on channel=7 note=68 velocity=100 time=0@note_on channel=8 note=71 velocity=0 time=0@note_on channel=8 note=68 velocity=100 time=0@note_on channel=10 note=83 velocity=0 time=0@note_on channel=10 note=80 velocity=100 time=0@note_on channel=11 note=74 velocity=0 time=0@note_on channel=11 note=72 velocity=100 time=0@note_on channel=11 note=72 velocity=0 time=0.07936499999999999@note_on channel=11 note=71 velocity=100 time=0@note_on channel=0 note=71 velocity=0 time=0.07936499999999999@note_on channel=0 note=71 velocity=100 time=0@note_on channel=2 note=80 velocity=0 time=0@note_on channel=2 note=78 velocity=100 time=0@note_on channel=4 note=71 velocity=0 time=0@note_on channel=4 note=69 velocity=100 time=0@note_on channel=5 note=68 velocity=0 time=0@note_on channel=5 note=66 velocity=100 time=0@note_on channel=7 note=68 velocity=0 time=0@note_on channel=7 note=66 velocity=100 time=0@note_on channel=11 note=71 velocity=0 time=0@note_on channel=11 note=72 velocity=100 time=0@note_on channel=12 note=56 velocity=0 time=0@note_on channel=12 note=54 velocity=100 time=0@note_on channel=13 note=71 velocity=0 time=0@note_on channel=13 note=69 velocity=100 time=0@note_on channel=11 note=72 velocity=0 time=0.07936499999999999@note_on channel=11 note=71 velocity=100 time=0@note_on channel=0 note=71 velocity=0 time=0.07936499999999999@note_on channel=0 note=71 velocity=100 time=0@note_on channel=2 note=78 velocity=0 time=0@note_on channel=2 note=80 velocity=100 time=0@note_on channel=3 note=83 velocity=0 time=0@note_on channel=3 note=80 velocity=100 time=0@note_on channel=4 note=69 velocity=0 time=0@note_on channel=4 note=71 velocity=100 time=0@note_on channel=5 note=66 velocity=0 time=0@note_on channel=5 note=68 velocity=100 time=0@note_on channel=6 note=68 velocity=0 time=0@note_on channel=6 note=64 velocity=100 time=0@note_on channel=7 note=66 velocity=0 time=0@note_on channel=7 note=64 velocity=100 time=0@note_on channel=8 note=68 velocity=0 time=0@note_on channel=8 note=64 velocity=100 time=0@note_on channel=10 note=80 velocity=0 time=0@note_on channel=10 note=76 velocity=100 time=0@note_on channel=12 note=54 velocity=0 time=0@note_on channel=12 note=56 velocity=100 time=0@note_on channel=13 note=69 velocity=0 time=0@note_on channel=13 note=68 velocity=100 time=0@note_on channel=0 note=71 velocity=0 time=0.15872999999999998@note_on channel=0 note=71 velocity=100 time=0@note_on channel=4 note=71 velocity=0 time=0@note_on channel=4 note=68 velocity=100 time=0@note_on channel=11 note=71 velocity=0 time=0@note_on channel=11 note=69 velocity=100 time=0@note_on channel=11 note=69 velocity=0 time=0.07936499999999999@note_on channel=11 note=71 velocity=100 time=0@note_on channel=0 note=71 velocity=0 time=0.07936499999999999@note_on channel=0 note=69 velocity=100 time=0@note_on channel=1 note=38 velocity=0 time=0@note_on channel=1 note=45 velocity=100 time=0@note_on channel=2 note=80 velocity=0 time=0@note_on channel=2 note=81 velocity=100 time=0@note_on channel=3 note=80 velocity=0 time=0@note_on channel=3 note=81 velocity=100 time=0@note_on channel=4 note=68 velocity=0 time=0@note_on channel=4 note=69 velocity=100 time=0@note_on channel=5 note=68 velocity=0 time=0@note_on channel=5 note=69 velocity=100 time=0@note_on channel=6 note=64 velocity=0 time=0@note_on channel=6 note=69 velocity=100 time=0@note_on channel=7 note=64 velocity=0 time=0@note_on channel=7 note=69 velocity=100 time=0@note_on channel=8 note=64 velocity=0 time=0@note_on channel=8 note=69 velocity=100 time=0@note_on channel=10 note=76 velocity=0 time=0@note_on channel=10 note=81 velocity=100 time=0@note_on channel=11 note=71 velocity=0 time=0@note_on channel=11 note=69 velocity=100 time=0@note_on channel=12 note=56 velocity=0 time=0@note_on channel=12 note=57 velocity=100 time=0@note_on channel=13 note=68 velocity=0 time=0@note_on channel=13 note=69 velocity=100 time=0@note_on channel=3 note=81 velocity=0 time=0.07936499999999999@note_on channel=3 note=80 velocity=100 time=0@note_on channel=3 note=80 velocity=0 time=0.07936499999999999@note_on channel=3 note=81 velocity=100 time=0@note_on channel=0 note=69 velocity=0 time=0.79365@note_on channel=0 note=69 velocity=100 time=0@note_on channel=2 note=81 velocity=0 time=0@note_on channel=2 note=81 velocity=100 time=0@note_on channel=3 note=81 velocity=0 time=0@note_on channel=3 note=81 velocity=100 time=0@note_on channel=4 note=69 velocity=0 time=0@note_on channel=4 note=69 velocity=100 time=0@note_on channel=5 note=69 velocity=0 time=0@note_on channel=5 note=69 velocity=100 time=0@note_on channel=6 note=69 velocity=0 time=0@note_on channel=6 note=69 velocity=100 time=0@note_on channel=7 note=69 velocity=0 time=0@note_on channel=7 note=69 velocity=100 time=0@note_on channel=8 note=69 velocity=0 time=0@note_on channel=8 note=69 velocity=100 time=0@note_on channel=10 note=81 velocity=0 time=0@note_on channel=10 note=81 velocity=100 time=0@note_on channel=11 note=69 velocity=0 time=0@note_on channel=11 note=69 velocity=100 time=0@note_on channel=12 note=57 velocity=0 time=0@note_on channel=12 note=57 velocity=100 time=0@note_on channel=13 note=69 velocity=0 time=0@note_on channel=13 note=69 velocity=100 time=0@note_on channel=7 note=69 velocity=0 time=0.07936499999999999@note_on channel=7 note=68 velocity=100 time=0@note_on channel=7 note=68 velocity=0 time=0.07936499999999999@note_on channel=7 note=69 velocity=100 time=0@note_on channel=0 note=69 velocity=0 time=0.79365@note_on channel=0 note=72 velocity=100 time=0@note_on channel=1 note=45 velocity=0 time=0@note_on channel=1 note=48 velocity=100 time=0@note_on channel=2 note=81 velocity=0 time=0@note_on channel=2 note=72 velocity=100 time=0@note_on channel=3 note=81 velocity=0 time=0@note_on channel=3 note=84 velocity=100 time=0@note_on channel=4 note=69 velocity=0 time=0@note_on channel=4 note=69 velocity=100 time=0@note_on channel=5 note=69 velocity=0 time=0@note_on channel=5 note=72 velocity=100 time=0@note_on channel=6 note=69 velocity=0 time=0@note_on channel=6 note=69 velocity=100 time=0@note_on channel=7 note=69 velocity=0 time=0@note_on channel=7 note=72 velocity=100 time=0@note_on channel=8 note=69 velocity=0 time=0@note_on channel=8 note=69 velocity=100 time=0@note_on channel=10 note=81 velocity=0 time=0@note_on channel=10 note=91 velocity=100 time=0@note_on channel=11 note=69 velocity=0 time=0@note_on channel=11 note=76 velocity=100 time=0@note_on channel=12 note=57 velocity=0 time=0@note_on channel=12 note=67 velocity=100 time=0@note_on channel=13 note=69 velocity=0 time=0@note_on channel=13 note=72 velocity=100 time=0@note_on channel=14 note=72 velocity=100 time=0@note_on channel=2 note=72 velocity=0 time=0.15872999999999998@note_on channel=2 note=76 velocity=100 time=0@note_on channel=4 note=69 velocity=0 time=0@note_on channel=4 note=71 velocity=100 time=0@note_on channel=5 note=72 velocity=0 time=0@note_on channel=5 note=71 velocity=100 time=0@note_on channel=6 note=69 velocity=0 time=0@note_on channel=6 note=71 velocity=100 time=0@note_on channel=2 note=76 velocity=0 time=0.15872999999999998@note_on channel=2 note=76 velocity=100 time=0@note_on channel=3 note=84 velocity=0 time=0@note_on channel=3 note=84 velocity=100 time=0@note_on channel=4 note=71 velocity=0 time=0@note_on channel=4 note=72 velocity=100 time=0@note_on channel=5 note=71 velocity=0 time=0@note_on channel=5 note=72 velocity=100 time=0@note_on channel=6 note=71 velocity=0 time=0@note_on channel=6 note=72 velocity=100 time=0@note_on channel=7 note=72 velocity=0 time=0@note_on channel=7 note=69 velocity=100 time=0@note_on channel=8 note=69 velocity=0 time=0@note_on channel=8 note=72 velocity=100 time=0@note_on channel=10 note=91 velocity=0 time=0@note_on channel=10 note=84 velocity=100 time=0@note_on channel=11 note=76 velocity=0 time=0@note_on channel=11 note=72 velocity=100 time=0@note_on channel=2 note=76 velocity=0 time=0.15872999999999998@note_on channel=2 note=76 velocity=100 time=0@note_on channel=5 note=72 velocity=0 time=0@note_on channel=5 note=74 velocity=100 time=0@note_on channel=6 note=72 velocity=0 time=0@note_on channel=6 note=74 velocity=100 time=0@note_on channel=13 note=72 velocity=0 time=0@note_on channel=13 note=74 velocity=100 time=0@note_on channel=0 note=72 velocity=0 time=0.15872999999999998@note_on channel=0 note=74 velocity=100 time=0@note_on channel=2 note=76 velocity=0 time=0@note_on channel=2 note=76 velocity=100 time=0@note_on channel=3 note=84 velocity=0 time=0@note_on channel=3 note=84 velocity=100 time=0@note_on channel=4 note=72 velocity=0 time=0@note_on channel=4 note=69 velocity=100 time=0@note_on channel=5 note=74 velocity=0 time=0@note_on channel=5 note=76 velocity=100 time=0@note_on channel=6 note=74 velocity=0 time=0@note_on channel=6 note=76 velocity=100 time=0@note_on channel=7 note=69 velocity=0 time=0@note_on channel=7 note=71 velocity=100 time=0@note_on channel=8 note=72 velocity=0 time=0@note_on channel=8 note=69 velocity=100 time=0@note_on channel=10 note=84 velocity=0 time=0@note_on channel=10 note=93 velocity=100 time=0@note_on channel=11 note=72 velocity=0 time=0@note_on channel=11 note=69 velocity=100 time=0@note_on channel=12 note=67 velocity=0 time=0@note_on channel=12 note=67 velocity=100 time=0@note_on channel=13 note=74 velocity=0 time=0@note_on channel=13 note=76 velocity=100 time=0@note_on channel=14 note=72 velocity=0 time=0@note_on channel=14 note=74 velocity=100 time=0@note_on channel=2 note=76 velocity=0 time=0.15872999999999998@note_on channel=2 note=76 velocity=100 time=0@note_on channel=5 note=76 velocity=0 time=0@note_on channel=5 note=74 velocity=100 time=0@note_on channel=6 note=76 velocity=0 time=0@note_on channel=6 note=69 velocity=100 time=0@note_on channel=0 note=74 velocity=0 time=0.15872999999999998@note_on channel=0 note=76 velocity=100 time=0@note_on channel=1 note=48 velocity=0 time=0@note_on channel=1 note=40 velocity=100 time=0@note_on channel=2 note=76 velocity=0 time=0@note_on channel=2 note=72 velocity=100 time=0@note_on channel=3 note=84 velocity=0 time=0@note_on channel=3 note=72 velocity=100 time=0@note_on channel=4 note=69 velocity=0 time=0@note_on channel=4 note=72 velocity=100 time=0@note_on channel=5 note=74 velocity=0 time=0@note_on channel=5 note=72 velocity=100 time=0@note_on channel=6 note=69 velocity=0 time=0@note_on channel=6 note=81 velocity=100 time=0@note_on channel=7 note=71 velocity=0 time=0@note_on channel=7 note=72 velocity=100 time=0@note_on channel=8 note=69 velocity=0 time=0@note_on channel=8 note=76 velocity=100 time=0@note_on channel=10 note=93 velocity=0 time=0@note_on channel=10 note=93 velocity=100 time=0@note_on channel=11 note=69 velocity=0 time=0@note_on channel=11 note=76 velocity=100 time=0@note_on channel=12 note=67 velocity=0 time=0@note_on channel=12 note=67 velocity=100 time=0@note_on channel=13 note=76 velocity=0 time=0@note_on channel=13 note=76 velocity=100 time=0@note_on channel=14 note=74 velocity=0 time=0@note_on channel=14 note=76 velocity=100 time=0@note_on channel=10 note=93 velocity=0 time=0.07936499999999999@note_on channel=10 note=91 velocity=100 time=0@note_on channel=2 note=72 velocity=0 time=0.07936499999999999@note_on channel=2 note=76 velocity=100 time=0@note_on channel=4 note=72 velocity=0 time=0@note_on channel=4 note=74 velocity=100 time=0@note_on channel=5 note=72 velocity=0 time=0@note_on channel=5 note=71 velocity=100 time=0@note_on channel=6 note=81 velocity=0 time=0@note_on channel=6 note=80 velocity=100 time=0@note_on channel=8 note=76 velocity=0 time=0@note_on channel=8 note=74 velocity=100 time=0@note_on channel=10 note=91 velocity=0 time=0@note_on channel=10 note=93 velocity=100 time=0@note_on channel=10 note=93 velocity=0 time=0.07936499999999999@note_on channel=10 note=91 velocity=100 time=0@note_on channel=2 note=76 velocity=0 time=0.07936499999999999@note_on channel=2 note=76 velocity=100 time=0@note_on channel=3 note=72 velocity=0 time=0@note_on channel=3 note=72 velocity=100 time=0@note_on channel=4 note=74 velocity=0 time=0@note_on channel=4 note=76 velocity=100 time=0@note_on channel=5 note=71 velocity=0 time=0@note_on channel=5 note=72 velocity=100 time=0@note_on channel=6 note=80 velocity=0 time=0@note_on channel=6 note=81 velocity=100 time=0@note_on channel=7 note=72 velocity=0 time=0@note_on channel=7 note=74 velocity=100 time=0@note_on channel=8 note=74 velocity=0 time=0@note_on channel=8 note=72 velocity=100 time=0@note_on channel=11 note=76 velocity=0 time=0@note_on channel=11 note=72 velocity=100 time=0@note_on channel=12 note=67 velocity=0 time=0@note_on channel=12 note=65 velocity=100 time=0@note_on channel=2 note=76 velocity=0 time=0.15872999999999998@note_on channel=2 note=76 velocity=100 time=0@note_on channel=5 note=72 velocity=0 time=0@note_on channel=5 note=74 velocity=100 time=0@note_on channel=6 note=81 velocity=0 time=0@note_on channel=6 note=83 velocity=100 time=0@note_on channel=8 note=72 velocity=0 time=0@note_on channel=8 note=71 velocity=100 time=0@note_on channel=10 note=91 velocity=0 time=0@note_on channel=10 note=89 velocity=100 time=0@note_on channel=13 note=76 velocity=0 time=0@note_on channel=13 note=77 velocity=100 time=0@note_on channel=0 note=76 velocity=0 time=0.15872999999999998@note_on channel=0 note=76 velocity=100 time=0@note_on channel=2 note=76 velocity=0 time=0@note_on channel=2 note=76 velocity=100 time=0@note_on channel=3 note=72 velocity=0 time=0@note_on channel=3 note=72 velocity=100 time=0@note_on channel=4 note=76 velocity=0 time=0@note_on channel=4 note=69 velocity=100 time=0@note_on channel=5 note=74 velocity=0 time=0@note_on channel=5 note=76 velocity=100 time=0@note_on channel=6 note=83 velocity=0 time=0@note_on channel=6 note=84 velocity=100 time=0@note_on channel=7 note=74 velocity=0 time=0@note_on channel=7 note=76 velocity=100 time=0@note_on channel=8 note=71 velocity=0 time=0@note_on channel=8 note=69 velocity=100 time=0@note_on channel=10 note=89 velocity=0 time=0@note_on channel=10 note=88 velocity=100 time=0@note_on channel=11 note=72 velocity=0 time=0@note_on channel=11 note=69 velocity=100 time=0@note_on channel=12 note=65 velocity=0 time=0@note_on channel=12 note=64 velocity=100 time=0@note_on channel=13 note=77 velocity=0 time=0@note_on channel=13 note=76 velocity=100 time=0@note_on channel=14 note=76 velocity=0 time=0@note_on channel=14 note=76 velocity=100 time=0@note_on channel=2 note=76 velocity=0 time=0.15872999999999998@note_on channel=2 note=76 velocity=100 time=0@note_on channel=5 note=76 velocity=0 time=0@note_on channel=5 note=74 velocity=100 time=0@note_on channel=6 note=84 velocity=0 time=0@note_on channel=6 note=81 velocity=100 time=0@note_on channel=0 note=76 velocity=0 time=0.15872999999999998@note_on channel=0 note=74 velocity=100 time=0@note_on channel=1 note=40 velocity=0 time=0@note_on channel=1 note=50 velocity=100 time=0@note_on channel=2 note=76 velocity=0 time=0@note_on channel=2 note=71 velocity=100 time=0@note_on channel=3 note=72 velocity=0 time=0@note_on channel=3 note=79 velocity=100 time=0@note_on channel=4 note=69 velocity=0 time=0@note_on channel=4 note=67 velocity=100 time=0@note_on channel=5 note=74 velocity=0 time=0@note_on channel=5 note=71 velocity=100 time=0@note_on channel=6 note=81 velocity=0 time=0@note_on channel=6 note=84 velocity=100 time=0@note_on channel=7 note=76 velocity=0 time=0@note_on channel=7 note=71 velocity=100 time=0@note_on channel=8 note=69 velocity=0 time=0@note_on channel=8 note=67 velocity=100 time=0@note_on channel=10 note=88 velocity=0 time=0@note_on channel=10 note=86 velocity=100 time=0@note_on channel=11 note=69 velocity=0 time=0@note_on channel=11 note=74 velocity=100 time=0@note_on channel=12 note=64 velocity=0 time=0@note_on channel=12 note=62 velocity=100 time=0@note_on channel=13 note=76 velocity=0 time=0@note_on channel=13 note=74 velocity=100 time=0@note_on channel=14 note=76 velocity=0 time=0@note_on channel=14 note=74 velocity=100 time=0@note_on channel=6 note=84 velocity=0 time=0.07936499999999999@note_on channel=6 note=83 velocity=100 time=0@note_on channel=2 note=71 velocity=0 time=0.07936499999999999@note_on channel=2 note=74 velocity=100 time=0@note_on channel=4 note=67 velocity=0 time=0@note_on channel=4 note=69 velocity=100 time=0@note_on channel=5 note=71 velocity=0 time=0@note_on channel=5 note=69 velocity=100 time=0@note_on channel=6 note=83 velocity=0 time=0@note_on channel=6 note=84 velocity=100 time=0@note_on channel=6 note=84 velocity=0 time=0.07936499999999999@note_on channel=6 note=83 velocity=100 time=0@note_on channel=2 note=74 velocity=0 time=0.07936499999999999@note_on channel=2 note=74 velocity=100 time=0@note_on channel=3 note=79 velocity=0 time=0@note_on channel=3 note=79 velocity=100 time=0@note_on channel=4 note=69 velocity=0 time=0@note_on channel=4 note=71 velocity=100 time=0@note_on channel=5 note=69 velocity=0 time=0@note_on channel=5 note=71 velocity=100 time=0@note_on channel=7 note=71 velocity=0 time=0@note_on channel=7 note=67 velocity=100 time=0@note_on channel=8 note=67 velocity=0 time=0@note_on channel=8 note=71 velocity=100 time=0@note_on channel=10 note=86 velocity=0 time=0@note_on channel=10 note=83 velocity=100 time=0@note_on channel=11 note=74 velocity=0 time=0@note_on channel=11 note=71 velocity=100 time=0@note_on channel=2 note=74 velocity=0 time=0.15872999999999998@note_on channel=2 note=74 velocity=100 time=0@note_on channel=5 note=71 velocity=0 time=0@note_on channel=5 note=72 velocity=100 time=0@note_on channel=13 note=74 velocity=0 time=0@note_on channel=13 note=76 velocity=100 time=0@note_on channel=0 note=74 velocity=0 time=0.15872999999999998@note_on channel=0 note=71 velocity=100 time=0@note_on channel=2 note=74 velocity=0 time=0@note_on channel=2 note=74 velocity=100 time=0@note_on channel=3 note=79 velocity=0 time=0@note_on channel=3 note=79 velocity=100 time=0@note_on channel=4 note=71 velocity=0 time=0@note_on channel=4 note=67 velocity=100 time=0@note_on channel=5 note=72 velocity=0 time=0@note_on channel=5 note=74 velocity=100 time=0@note_on channel=6 note=83 velocity=0 time=0@note_on channel=6 note=79 velocity=100 time=0@note_on channel=7 note=67 velocity=0 time=0@note_on channel=7 note=69 velocity=100 time=0@note_on channel=8 note=71 velocity=0 time=0@note_on channel=8 note=67 velocity=100 time=0@note_on channel=10 note=83 velocity=0 time=0@note_on channel=10 note=79 velocity=100 time=0@note_on channel=11 note=71 velocity=0 time=0@note_on channel=11 note=67 velocity=100 time=0@note_on channel=12 note=62 velocity=0 time=0@note_on channel=12 note=62 velocity=100 time=0@note_on channel=13 note=76 velocity=0 time=0@note_on channel=13 note=74 velocity=100 time=0@note_on channel=14 note=74 velocity=0 time=0@note_on channel=14 note=71 velocity=100 time=0@note_on channel=2 note=74 velocity=0 time=0.15872999999999998@note_on channel=2 note=74 velocity=100 time=0@note_on channel=5 note=74 velocity=0 time=0@note_on channel=5 note=72 velocity=100 time=0@note_on channel=0 note=71 velocity=0 time=0.15872999999999998@note_on channel=0 note=67 velocity=100 time=0@note_on channel=1 note=50 velocity=0 time=0@note_on channel=1 note=43 velocity=100 time=0@note_on channel=2 note=74 velocity=0 time=0@note_on channel=2 note=71 velocity=100 time=0@note_on channel=3 note=79 velocity=0 time=0@note_on channel=3 note=67 velocity=100 time=0@note_on channel=4 note=67 velocity=0 time=0@note_on channel=4 note=71 velocity=100 time=0@note_on channel=5 note=72 velocity=0 time=0@note_on channel=5 note=71 velocity=100 time=0@note_on channel=6 note=79 velocity=0 time=0@note_on channel=6 note=79 velocity=100 time=0@note_on channel=7 note=69 velocity=0 time=0@note_on channel=7 note=71 velocity=100 time=0@note_on channel=8 note=67 velocity=0 time=0@note_on channel=8 note=74 velocity=100 time=0@note_on channel=10 note=79 velocity=0 time=0@note_on channel=10 note=86 velocity=100 time=0@note_on channel=11 note=67 velocity=0 time=0@note_on channel=11 note=74 velocity=100 time=0@note_on channel=12 note=62 velocity=0 time=0@note_on channel=12 note=59 velocity=100 time=0@note_on channel=13 note=74 velocity=0 time=0@note_on channel=13 note=71 velocity=100 time=0@note_on channel=14 note=71 velocity=0 time=0@note_on channel=14 note=67 velocity=100 time=0@note_on channel=2 note=71 velocity=0 time=0.15872999999999998@note_on channel=2 note=74 velocity=100 time=0@note_on channel=4 note=71 velocity=0 time=0@note_on channel=4 note=72 velocity=100 time=0@note_on channel=5 note=71 velocity=0 time=0@note_on channel=5 note=69 velocity=100 time=0@note_on channel=8 note=74 velocity=0 time=0@note_on channel=8 note=72 velocity=100 time=0@note_on channel=2 note=74 velocity=0 time=0.15872999999999998@note_on channel=2 note=74 velocity=100 time=0@note_on channel=4 note=72 velocity=0 time=0@note_on channel=4 note=74 velocity=100 time=0@note_on channel=5 note=69 velocity=0 time=0@note_on channel=5 note=71 velocity=100 time=0@note_on channel=7 note=71 velocity=0 time=0@note_on channel=7 note=72 velocity=100 time=0@note_on channel=8 note=72 velocity=0 time=0@note_on channel=8 note=71 velocity=100 time=0@note_on channel=10 note=86 velocity=0 time=0@note_on channel=10 note=74 velocity=100 time=0@note_on channel=11 note=74 velocity=0 time=0@note_on channel=11 note=71 velocity=100 time=0@note_on channel=12 note=59 velocity=0 time=0@note_on channel=12 note=60 velocity=100 time=0@note_on channel=2 note=74 velocity=0 time=0.15872999999999998@note_on channel=2 note=74 velocity=100 time=0@note_on channel=3 note=67 velocity=0 time=0@note_on channel=3 note=69 velocity=100 time=0@note_on channel=5 note=71 velocity=0 time=0@note_on channel=5 note=72 velocity=100 time=0@note_on channel=8 note=71 velocity=0 time=0@note_on channel=8 note=69 velocity=100 time=0@note_on channel=13 note=71 velocity=0 time=0@note_on channel=13 note=72 velocity=100 time=0@note_on channel=2 note=74 velocity=0 time=0.15872999999999998@note_on channel=2 note=74 velocity=100 time=0@note_on channel=3 note=69 velocity=0 time=0@note_on channel=3 note=71 velocity=100 time=0@note_on channel=4 note=74 velocity=0 time=0@note_on channel=4 note=67 velocity=100 time=0@note_on channel=5 note=72 velocity=0 time=0@note_on channel=5 note=74 velocity=100 time=0@note_on channel=7 note=72 velocity=0 time=0@note_on channel=7 note=74 velocity=100 time=0@note_on channel=8 note=69 velocity=0 time=0@note_on channel=8 note=67 velocity=100 time=0@note_on channel=10 note=74 velocity=0 time=0@note_on channel=10 note=89 velocity=100 time=0@note_on channel=11 note=71 velocity=0 time=0@note_on channel=11 note=67 velocity=100 time=0@note_on channel=12 note=60 velocity=0 time=0@note_on channel=12 note=62 velocity=100 time=0@note_on channel=13 note=72 velocity=0 time=0@note_on channel=13 note=74 velocity=100 time=0@note_on channel=2 note=74 velocity=0 time=0.15872999999999998@note_on channel=2 note=74 velocity=100 time=0@note_on channel=5 note=74 velocity=0 time=0@note_on channel=5 note=72 velocity=100 time=0@note_on channel=10 note=89 velocity=0 time=0@note_on channel=10 note=91 velocity=100 time=0@note_on channel=0 note=67 velocity=0 time=0.15872999999999998@note_on channel=0 note=69 velocity=100 time=0@note_on channel=1 note=43 velocity=0 time=0@note_on channel=1 note=45 velocity=100 time=0@note_on channel=2 note=74 velocity=0 time=0@note_on channel=2 note=69 velocity=100 time=0@note_on channel=3 note=71 velocity=0 time=0@note_on channel=3 note=81 velocity=100 time=0@note_on channel=4 note=67 velocity=0 time=0@note_on channel=4 note=69 velocity=100 time=0@note_on channel=5 note=72 velocity=0 time=0@note_on channel=5 note=72 velocity=100 time=0@note_on channel=6 note=79 velocity=0 time=0@note_on channel=6 note=69 velocity=100 time=0@note_on channel=7 note=74 velocity=0 time=0@note_on channel=7 note=72 velocity=100 time=0@note_on channel=8 note=67 velocity=0 time=0@note_on channel=8 note=69 velocity=100 time=0@note_on channel=10 note=91 velocity=0 time=0@note_on channel=10 note=93 velocity=100 time=0@note_on channel=11 note=67 velocity=0 time=0@note_on channel=11 note=76 velocity=100 time=0@note_on channel=12 note=62 velocity=0 time=0@note_on channel=12 note=60 velocity=100 time=0@note_on channel=13 note=74 velocity=0 time=0@note_on channel=13 note=72 velocity=100 time=0@note_on channel=14 note=67 velocity=0 time=0@note_on channel=14 note=69 velocity=100 time=0@note_on channel=2 note=69 velocity=0 time=0.15872999999999998@note_on channel=2 note=72 velocity=100 time=0@note_on channel=4 note=69 velocity=0 time=0@note_on channel=4 note=71 velocity=100 time=0@note_on channel=5 note=72 velocity=0 time=0@note_on channel=5 note=71 velocity=100 time=0@note_on channel=6 note=69 velocity=0 time=0@note_on channel=6 note=71 velocity=100 time=0@note_on channel=2 note=72 velocity=0 time=0.15872999999999998@note_on channel=2 note=72 velocity=100 time=0@note_on channel=3 note=81 velocity=0 time=0@note_on channel=3 note=81 velocity=100 time=0@note_on channel=4 note=71 velocity=0 time=0@note_on channel=4 note=72 velocity=100 time=0@note_on channel=5 note=71 velocity=0 time=0@note_on channel=5 note=72 velocity=100 time=0@note_on channel=6 note=71 velocity=0 time=0@note_on channel=6 note=72 velocity=100 time=0@note_on channel=7 note=72 velocity=0 time=0@note_on channel=7 note=69 velocity=100 time=0@note_on channel=8 note=69 velocity=0 time=0@note_on channel=8 note=72 velocity=100 time=0@note_on channel=10 note=93 velocity=0 time=0@note_on channel=10 note=81 velocity=100 time=0@note_on channel=11 note=76 velocity=0 time=0@note_on channel=11 note=72 velocity=100 time=0@note_on channel=0 note=69 velocity=0 time=0.15872999999999998@note_on channel=0 note=71 velocity=100 time=0@note_on channel=2 note=72 velocity=0 time=0@note_on channel=2 note=72 velocity=100 time=0@note_on channel=5 note=72 velocity=0 time=0@note_on channel=5 note=74 velocity=100 time=0@note_on channel=6 note=72 velocity=0 time=0@note_on channel=6 note=74 velocity=100 time=0@note_on channel=13 note=72 velocity=0 time=0@note_on channel=13 note=71 velocity=100 time=0@note_on channel=14 note=69 velocity=0 time=0@note_on channel=14 note=71 velocity=100 time=0@note_on channel=0 note=71 velocity=0 time=0.15872999999999998@note_on channel=0 note=72 velocity=100 time=0@note_on channel=2 note=72 velocity=0 time=0@note_on channel=2 note=72 velocity=100 time=0@note_on channel=3 note=81 velocity=0 time=0@note_on channel=3 note=81 velocity=100 time=0@note_on channel=4 note=72 velocity=0 time=0@note_on channel=4 note=69 velocity=100 time=0@note_on channel=5 note=74 velocity=0 time=0@note_on channel=5 note=72 velocity=100 time=0@note_on channel=6 note=74 velocity=0 time=0@note_on channel=6 note=76 velocity=100 time=0@note_on channel=7 note=69 velocity=0 time=0@note_on channel=7 note=71 velocity=100 time=0@note_on channel=8 note=72 velocity=0 time=0@note_on channel=8 note=69 velocity=100 time=0@note_on channel=10 note=81 velocity=0 time=0@note_on channel=10 note=95 velocity=100 time=0@note_on channel=11 note=72 velocity=0 time=0@note_on channel=11 note=69 velocity=100 time=0@note_on channel=12 note=60 velocity=0 time=0@note_on channel=12 note=60 velocity=100 time=0@note_on channel=13 note=71 velocity=0 time=0@note_on channel=13 note=72 velocity=100 time=0@note_on channel=14 note=71 velocity=0 time=0@note_on channel=14 note=72 velocity=100 time=0@note_on channel=2 note=72 velocity=0 time=0.15872999999999998@note_on channel=2 note=72 velocity=100 time=0@note_on channel=5 note=72 velocity=0 time=0@note_on channel=5 note=71 velocity=100 time=0@note_on channel=6 note=76 velocity=0 time=0@note_on channel=6 note=69 velocity=100 time=0@note_on channel=0 note=72 velocity=0 time=0.15872999999999998@note_on channel=0 note=74 velocity=100 time=0@note_on channel=1 note=45 velocity=0 time=0@note_on channel=1 note=38 velocity=100 time=0@note_on channel=2 note=72 velocity=0 time=0@note_on channel=2 note=69 velocity=100 time=0@note_on channel=3 note=81 velocity=0 time=0@note_on channel=3 note=69 velocity=100 time=0@note_on channel=4 note=69 velocity=0 time=0@note_on channel=4 note=72 velocity=100 time=0@note_on channel=5 note=71 velocity=0 time=0@note_on channel=5 note=69 velocity=100 time=0@note_on channel=6 note=69 velocity=0 time=0@note_on channel=6 note=81 velocity=100 time=0@note_on channel=7 note=71 velocity=0 time=0@note_on channel=7 note=72 velocity=100 time=0@note_on channel=8 note=69 velocity=0 time=0@note_on channel=8 note=76 velocity=100 time=0@note_on channel=10 note=95 velocity=0 time=0@note_on channel=10 note=96 velocity=100 time=0@note_on channel=11 note=69 velocity=0 time=0@note_on channel=11 note=76 velocity=100 time=0@note_on channel=12 note=60 velocity=0 time=0@note_on channel=12 note=57 velocity=100 time=0@note_on channel=13 note=72 velocity=0 time=0@note_on channel=13 note=69 velocity=100 time=0@note_on channel=14 note=72 velocity=0 time=0@note_on channel=14 note=74 velocity=100 time=0@note_on channel=2 note=69 velocity=0 time=0.15872999999999998@note_on channel=2 note=72 velocity=100 time=0@note_on channel=4 note=72 velocity=0 time=0@note_on channel=4 note=74 velocity=100 time=0@note_on channel=5 note=69 velocity=0 time=0@note_on channel=5 note=68 velocity=100 time=0@note_on channel=6 note=81 velocity=0 time=0@note_on channel=6 note=80 velocity=100 time=0@note_on channel=8 note=76 velocity=0 time=0@note_on channel=8 note=74 velocity=100 time=0@note_on channel=0 note=74 velocity=0 time=0.15872999999999998@note_on channel=0 note=76 velocity=100 time=0@note_on channel=2 note=72 velocity=0 time=0@note_on channel=2 note=72 velocity=100 time=0@note_on channel=4 note=74 velocity=0 time=0@note_on channel=4 note=76 velocity=100 time=0@note_on channel=5 note=68 velocity=0 time=0@note_on channel=5 note=69 velocity=100 time=0@note_on channel=6 note=80 velocity=0 time=0@note_on channel=6 note=81 velocity=100 time=0@note_on channel=7 note=72 velocity=0 time=0@note_on channel=7 note=74 velocity=100 time=0@note_on channel=8 note=74 velocity=0 time=0@note_on channel=8 note=72 velocity=100 time=0@note_on channel=10 note=96 velocity=0 time=0@note_on channel=10 note=95 velocity=100 time=0@note_on channel=11 note=76 velocity=0 time=0@note_on channel=11 note=72 velocity=100 time=0@note_on channel=12 note=57 velocity=0 time=0@note_on channel=12 note=59 velocity=100 time=0@note_on channel=14 note=74 velocity=0 time=0@note_on channel=14 note=76 velocity=100 time=0@note_on channel=2 note=72 velocity=0 time=0.15872999999999998@note_on channel=2 note=72 velocity=100 time=0@note_on channel=3 note=69 velocity=0 time=0@note_on channel=3 note=71 velocity=100 time=0@note_on channel=5 note=69 velocity=0 time=0@note_on channel=5 note=71 velocity=100 time=0@note_on channel=6 note=81 velocity=0 time=0@note_on channel=6 note=83 velocity=100 time=0@note_on channel=8 note=72 velocity=0 time=0@note_on channel=8 note=71 velocity=100 time=0@note_on channel=13 note=69 velocity=0 time=0@note_on channel=13 note=71 velocity=100 time=0@note_on channel=0 note=76 velocity=0 time=0.15872999999999998@note_on channel=0 note=72 velocity=100 time=0@note_on channel=2 note=72 velocity=0 time=0@note_on channel=2 note=72 velocity=100 time=0@note_on channel=3 note=71 velocity=0 time=0@note_on channel=3 note=72 velocity=100 time=0@note_on channel=4 note=76 velocity=0 time=0@note_on channel=4 note=69 velocity=100 time=0@note_on channel=5 note=71 velocity=0 time=0@note_on channel=5 note=72 velocity=100 time=0@note_on channel=6 note=83 velocity=0 time=0@note_on channel=6 note=84 velocity=100 time=0@note_on channel=7 note=74 velocity=0 time=0@note_on channel=7 note=76 velocity=100 time=0@note_on channel=8 note=71 velocity=0 time=0@note_on channel=8 note=69 velocity=100 time=0@note_on channel=10 note=95 velocity=0 time=0@note_on channel=10 note=93 velocity=100 time=0@note_on channel=11 note=72 velocity=0 time=0@note_on channel=11 note=69 velocity=100 time=0@note_on channel=12 note=59 velocity=0 time=0@note_on channel=12 note=60 velocity=100 time=0@note_on channel=13 note=71 velocity=0 time=0@note_on channel=13 note=72 velocity=100 time=0@note_on channel=14 note=76 velocity=0 time=0@note_on channel=14 note=72 velocity=100 time=0@note_on channel=2 note=72 velocity=0 time=0.15872999999999998@note_on channel=2 note=72 velocity=100 time=0@note_on channel=3 note=72 velocity=0 time=0@note_on channel=3 note=74 velocity=100 time=0@note_on channel=5 note=72 velocity=0 time=0@note_on channel=5 note=69 velocity=100 time=0@note_on channel=6 note=84 velocity=0 time=0@note_on channel=6 note=81 velocity=100 time=0@note_on channel=0 note=72 velocity=0 time=0.15872999999999998@note_on channel=0 note=71 velocity=100 time=0@note_on channel=1 note=38 velocity=0 time=0@note_on channel=1 note=47 velocity=100 time=0@note_on channel=2 note=72 velocity=0 time=0@note_on channel=2 note=68 velocity=100 time=0@note_on channel=3 note=74 velocity=0 time=0@note_on channel=3 note=76 velocity=100 time=0@note_on channel=4 note=69 velocity=0 time=0@note_on channel=4 note=64 velocity=100 time=0@note_on channel=5 note=69 velocity=0 time=0@note_on channel=5 note=71 velocity=100 time=0@note_on channel=6 note=81 velocity=0 time=0@note_on channel=6 note=81 velocity=100 time=0@note_on channel=7 note=76 velocity=0 time=0@note_on channel=7 note=71 velocity=100 time=0@note_on channel=8 note=69 velocity=0 time=0@note_on channel=8 note=64 velocity=100 time=0@note_on channel=10 note=93 velocity=0 time=0@note_on channel=10 note=92 velocity=100 time=0@note_on channel=11 note=69 velocity=0 time=0@note_on channel=11 note=71 velocity=100 time=0@note_on channel=12 note=60 velocity=0 time=0@note_on channel=12 note=59 velocity=100 time=0@note_on channel=13 note=72 velocity=0 time=0@note_on channel=13 note=71 velocity=100 time=0@note_on channel=14 note=72 velocity=0 time=0@note_on channel=14 note=71 velocity=100 time=0@note_on channel=6 note=81 velocity=0 time=0.07936499999999999@note_on channel=6 note=80 velocity=100 time=0@note_on channel=2 note=68 velocity=0 time=0.07936499999999999@note_on channel=2 note=71 velocity=100 time=0@note_on channel=4 note=64 velocity=0 time=0@note_on channel=4 note=66 velocity=100 time=0@note_on channel=5 note=71 velocity=0 time=0@note_on channel=5 note=69 velocity=100 time=0@note_on channel=6 note=80 velocity=0 time=0@note_on channel=6 note=81 velocity=100 time=0@note_on channel=6 note=81 velocity=0 time=0.07936499999999999@note_on channel=6 note=80 velocity=100 time=0@note_on channel=2 note=71 velocity=0 time=0.07936499999999999@note_on channel=2 note=71 velocity=100 time=0@note_on channel=3 note=76 velocity=0 time=0@note_on channel=3 note=76 velocity=100 time=0@note_on channel=4 note=66 velocity=0 time=0@note_on channel=4 note=68 velocity=100 time=0@note_on channel=5 note=69 velocity=0 time=0@note_on channel=5 note=71 velocity=100 time=0@note_on channel=8 note=64 velocity=0 time=0@note_on channel=8 note=68 velocity=100 time=0@note_on channel=10 note=92 velocity=0 time=0@note_on channel=10 note=88 velocity=100 time=0@note_on channel=11 note=71 velocity=0 time=0@note_on channel=11 note=68 velocity=100 time=0@note_on channel=2 note=71 velocity=0 time=0.15872999999999998@note_on channel=2 note=71 velocity=100 time=0@note_on channel=5 note=71 velocity=0 time=0@note_on channel=5 note=69 velocity=100 time=0@note_on channel=13 note=71 velocity=0 time=0@note_on channel=13 note=69 velocity=100 time=0@note_on channel=0 note=71 velocity=0 time=0.15872999999999998@note_on channel=0 note=68 velocity=100 time=0@note_on channel=2 note=71 velocity=0 time=0@note_on channel=2 note=71 velocity=100 time=0@note_on channel=3 note=76 velocity=0 time=0@note_on channel=3 note=76 velocity=100 time=0@note_on channel=4 note=68 velocity=0 time=0@note_on channel=4 note=64 velocity=100 time=0@note_on channel=5 note=69 velocity=0 time=0@note_on channel=5 note=68 velocity=100 time=0@note_on channel=6 note=80 velocity=0 time=0@note_on channel=6 note=76 velocity=100 time=0@note_on channel=7 note=71 velocity=0 time=0@note_on channel=7 note=68 velocity=100 time=0@note_on channel=8 note=68 velocity=0 time=0@note_on channel=8 note=64 velocity=100 time=0@note_on channel=10 note=88 velocity=0 time=0@note_on channel=10 note=83 velocity=100 time=0@note_on channel=11 note=68 velocity=0 time=0@note_on channel=11 note=64 velocity=100 time=0@note_on channel=12 note=59 velocity=0 time=0@note_on channel=12 note=59 velocity=100 time=0@note_on channel=13 note=69 velocity=0 time=0@note_on channel=13 note=71 velocity=100 time=0@note_on channel=14 note=71 velocity=0 time=0@note_on channel=14 note=68 velocity=100 time=0@note_on channel=2 note=71 velocity=0 time=0.15872999999999998@note_on channel=2 note=71 velocity=100 time=0@note_on channel=5 note=68 velocity=0 time=0@note_on channel=5 note=66 velocity=100 time=0@note_on channel=0 note=68 velocity=0 time=0.15872999999999998@note_on channel=0 note=64 velocity=100 time=0@note_on channel=1 note=47 velocity=0 time=0@note_on channel=1 note=40 velocity=100 time=0@note_on channel=2 note=71 velocity=0 time=0@note_on channel=2 note=64 velocity=100 time=0@note_on channel=3 note=76 velocity=0 time=0@note_on channel=3 note=68 velocity=100 time=0@note_on channel=4 note=64 velocity=0 time=0@note_on channel=4 note=68 velocity=100 time=0@note_on channel=5 note=66 velocity=0 time=0@note_on channel=5 note=64 velocity=100 time=0@note_on channel=6 note=76 velocity=0 time=0@note_on channel=6 note=76 velocity=100 time=0@note_on channel=7 note=68 velocity=0 time=0@note_on channel=7 note=64 velocity=100 time=0@note_on channel=8 note=64 velocity=0 time=0@note_on channel=8 note=71 velocity=100 time=0@note_on channel=10 note=83 velocity=0 time=0@note_on channel=10 note=88 velocity=100 time=0@note_on channel=11 note=64 velocity=0 time=0@note_on channel=11 note=71 velocity=100 time=0@note_on channel=12 note=59 velocity=0 time=0@note_on channel=12 note=56 velocity=100 time=0@note_on channel=13 note=71 velocity=0 time=0@note_on channel=13 note=68 velocity=100 time=0@note_on channel=14 note=68 velocity=0 time=0@note_on channel=14 note=64 velocity=100 time=0@note_on channel=3 note=68 velocity=0 time=0.07936499999999999@note_on channel=3 note=69 velocity=100 time=0@note_on channel=2 note=64 velocity=0 time=0.07936499999999999@note_on channel=2 note=71 velocity=100 time=0@note_on channel=3 note=69 velocity=0 time=0@note_on channel=3 note=68 velocity=100 time=0@note_on channel=4 note=68 velocity=0 time=0@note_on channel=4 note=69 velocity=100 time=0@note_on channel=5 note=64 velocity=0 time=0@note_on channel=5 note=66 velocity=100 time=0@note_on channel=8 note=71 velocity=0 time=0@note_on channel=8 note=69 velocity=100 time=0@note_on channel=2 note=71 velocity=0 time=0.15872999999999998@note_on channel=2 note=71 velocity=100 time=0@note_on channel=3 note=68 velocity=0 time=0@note_on channel=3 note=64 velocity=100 time=0@note_on channel=4 note=69 velocity=0 time=0@note_on channel=4 note=71 velocity=100 time=0@note_on channel=5 note=66 velocity=0 time=0@note_on channel=5 note=68 velocity=100 time=0@note_on channel=8 note=69 velocity=0 time=0@note_on channel=8 note=68 velocity=100 time=0@note_on channel=10 note=88 velocity=0 time=0@note_on channel=10 note=89 velocity=100 time=0@note_on channel=11 note=71 velocity=0 time=0@note_on channel=11 note=68 velocity=100 time=0@note_on channel=12 note=56 velocity=0 time=0@note_on channel=12 note=57 velocity=100 time=0@note_on channel=10 note=89 velocity=0 time=0.07936499999999999@note_on channel=10 note=88 velocity=100 time=0@note_on channel=2 note=71 velocity=0 time=0.07936499999999999@note_on channel=2 note=71 velocity=100 time=0@note_on channel=5 note=68 velocity=0 time=0@note_on channel=5 note=69 velocity=100 time=0@note_on channel=8 note=68 velocity=0 time=0@note_on channel=8 note=66 velocity=100 time=0@note_on channel=10 note=88 velocity=0 time=0@note_on channel=10 note=89 velocity=100 time=0@note_on channel=13 note=68 velocity=0 time=0@note_on channel=13 note=69 velocity=100 time=0@note_on channel=10 note=89 velocity=0 time=0.07936499999999999@note_on channel=10 note=88 velocity=100 time=0@note_on channel=2 note=71 velocity=0 time=0.07936499999999999@note_on channel=2 note=71 velocity=100 time=0@note_on channel=3 note=64 velocity=0 time=0@note_on channel=3 note=64 velocity=100 time=0@note_on channel=4 note=71 velocity=0 time=0@note_on channel=4 note=64 velocity=100 time=0@note_on channel=5 note=69 velocity=0 time=0@note_on channel=5 note=68 velocity=100 time=0@note_on channel=8 note=66 velocity=0 time=0@note_on channel=8 note=64 velocity=100 time=0@note_on channel=11 note=68 velocity=0 time=0@note_on channel=11 note=64 velocity=100 time=0@note_on channel=12 note=57 velocity=0 time=0@note_on channel=12 note=59 velocity=100 time=0@note_on channel=13 note=69 velocity=0 time=0@note_on channel=13 note=71 velocity=100 time=0@note_on channel=2 note=71 velocity=0 time=0.15872999999999998@note_on channel=2 note=71 velocity=100 time=0@note_on channel=5 note=68 velocity=0 time=0@note_on channel=5 note=64 velocity=100 time=0@note_on channel=10 note=88 velocity=0 time=0@note_on channel=10 note=89 velocity=100 time=0@note_on channel=0 note=64 velocity=0 time=0.15872999999999998@note_on channel=0 note=72 velocity=100 time=0@note_on channel=1 note=40 velocity=0 time=0@note_on channel=1 note=48 velocity=100 time=0@note_on channel=2 note=71 velocity=0 time=0@note_on channel=2 note=76 velocity=100 time=0@note_on channel=3 note=64 velocity=0 time=0@note_on channel=3 note=84 velocity=100 time=0@note_on channel=4 note=64 velocity=0 time=0@note_on channel=4 note=72 velocity=100 time=0@note_on channel=5 note=64 velocity=0 time=0@note_on channel=5 note=72 velocity=100 time=0@note_on channel=6 note=76 velocity=0 time=0@note_on channel=6 note=72 velocity=100 time=0@note_on channel=7 note=64 velocity=0 time=0@note_on channel=7 note=76 velocity=100 time=0@note_on channel=8 note=64 velocity=0 time=0@note_on channel=8 note=72 velocity=100 time=0@note_on channel=10 note=89 velocity=0 time=0@note_on channel=10 note=91 velocity=100 time=0@note_on channel=11 note=64 velocity=0 time=0@note_on channel=11 note=79 velocity=100 time=0@note_on channel=12 note=59 velocity=0 time=0@note_on channel=12 note=67 velocity=100 time=0@note_on channel=13 note=71 velocity=0 time=0@note_on channel=13 note=72 velocity=100 time=0@note_on channel=14 note=64 velocity=0 time=0@note_on channel=14 note=72 velocity=100 time=0@note_on channel=11 note=79 velocity=0 time=0.07936499999999999@note_on channel=11 note=81 velocity=100 time=0@note_on channel=2 note=76 velocity=0 time=0.07936499999999999@note_on channel=2 note=79 velocity=100 time=0@note_on channel=4 note=72 velocity=0 time=0@note_on channel=4 note=74 velocity=100 time=0@note_on channel=5 note=72 velocity=0 time=0@note_on channel=5 note=71 velocity=100 time=0@note_on channel=6 note=72 velocity=0 time=0@note_on channel=6 note=71 velocity=100 time=0@note_on channel=11 note=81 velocity=0 time=0@note_on channel=11 note=79 velocity=100 time=0@note_on channel=2 note=79 velocity=0 time=0.15872999999999998@note_on channel=2 note=79 velocity=100 time=0@note_on channel=3 note=84 velocity=0 time=0@note_on channel=3 note=84 velocity=100 time=0@note_on channel=4 note=74 velocity=0 time=0@note_on channel=4 note=76 velocity=100 time=0@note_on channel=5 note=71 velocity=0 time=0@note_on channel=5 note=72 velocity=100 time=0@note_on channel=6 note=71 velocity=0 time=0@note_on channel=6 note=72 velocity=100 time=0@note_on channel=7 note=76 velocity=0 time=0@note_on channel=7 note=72 velocity=100 time=0@note_on channel=8 note=72 velocity=0 time=0@note_on channel=8 note=76 velocity=100 time=0@note_on channel=10 note=91 velocity=0 time=0@note_on channel=10 note=84 velocity=100 time=0@note_on channel=11 note=79 velocity=0 time=0@note_on channel=11 note=76 velocity=100 time=0@note_on channel=2 note=79 velocity=0 time=0.15872999999999998@note_on channel=2 note=79 velocity=100 time=0@note_on channel=5 note=72 velocity=0 time=0@note_on channel=5 note=74 velocity=100 time=0@note_on channel=6 note=72 velocity=0 time=0@note_on channel=6 note=74 velocity=100 time=0@note_on channel=13 note=72 velocity=0 time=0@note_on channel=13 note=74 velocity=100 time=0@note_on channel=0 note=72 velocity=0 time=0.15872999999999998@note_on channel=0 note=74 velocity=100 time=0@note_on channel=2 note=79 velocity=0 time=0@note_on channel=2 note=79 velocity=100 time=0@note_on channel=3 note=84 velocity=0 time=0@note_on channel=3 note=84 velocity=100 time=0@note_on channel=4 note=76 velocity=0 time=0@note_on channel=4 note=72 velocity=100 time=0@note_on channel=5 note=74 velocity=0 time=0@note_on channel=5 note=76 velocity=100 time=0@note_on channel=6 note=74 velocity=0 time=0@note_on channel=6 note=76 velocity=100 time=0@note_on channel=7 note=72 velocity=0 time=0@note_on channel=7 note=74 velocity=100 time=0@note_on channel=8 note=76 velocity=0 time=0@note_on channel=8 note=72 velocity=100 time=0@note_on channel=10 note=84 velocity=0 time=0@note_on channel=10 note=93 velocity=100 time=0@note_on channel=11 note=76 velocity=0 time=0@note_on channel=11 note=72 velocity=100 time=0@note_on channel=12 note=67 velocity=0 time=0@note_on channel=12 note=67 velocity=100 time=0@note_on channel=13 note=74 velocity=0 time=0@note_on channel=13 note=76 velocity=100 time=0@note_on channel=14 note=72 velocity=0 time=0@note_on channel=14 note=74 velocity=100 time=0@note_on channel=2 note=79 velocity=0 time=0.15872999999999998@note_on channel=2 note=79 velocity=100 time=0@note_on channel=5 note=76 velocity=0 time=0@note_on channel=5 note=74 velocity=100 time=0@note_on channel=6 note=76 velocity=0 time=0@note_on channel=6 note=77 velocity=100 time=0@note_on channel=0 note=74 velocity=0 time=0.15872999999999998@note_on channel=0 note=76 velocity=100 time=0@note_on channel=1 note=48 velocity=0 time=0@note_on channel=1 note=40 velocity=100 time=0@note_on channel=2 note=79 velocity=0 time=0@note_on channel=2 note=72 velocity=100 time=0@note_on channel=3 note=84 velocity=0 time=0@note_on channel=3 note=72 velocity=100 time=0@note_on channel=4 note=72 velocity=0 time=0@note_on channel=4 note=76 velocity=100 time=0@note_on channel=5 note=74 velocity=0 time=0@note_on channel=5 note=72 velocity=100 time=0@note_on channel=6 note=77 velocity=0 time=0@note_on channel=6 note=79 velocity=100 time=0@note_on channel=7 note=74 velocity=0 time=0@note_on channel=7 note=76 velocity=100 time=0@note_on channel=8 note=72 velocity=0 time=0@note_on channel=8 note=79 velocity=100 time=0@note_on channel=10 note=93 velocity=0 time=0@note_on channel=10 note=93 velocity=100 time=0@note_on channel=11 note=72 velocity=0 time=0@note_on channel=11 note=79 velocity=100 time=0@note_on channel=12 note=67 velocity=0 time=0@note_on channel=12 note=67 velocity=100 time=0@note_on channel=13 note=76 velocity=0 time=0@note_on channel=13 note=76 velocity=100 time=0@note_on channel=14 note=74 velocity=0 time=0@note_on channel=14 note=76 velocity=100 time=0@note_on channel=10 note=93 velocity=0 time=0.07936499999999999@note_on channel=10 note=91 velocity=100 time=0@note_on channel=11 note=79 velocity=0 time=0@note_on channel=11 note=81 velocity=100 time=0@note_on channel=2 note=72 velocity=0 time=0.07936499999999999@note_on channel=2 note=79 velocity=100 time=0@note_on channel=4 note=76 velocity=0 time=0@note_on channel=4 note=77 velocity=100 time=0@note_on channel=5 note=72 velocity=0 time=0@note_on channel=5 note=71 velocity=100 time=0@note_on channel=6 note=79 velocity=0 time=0@note_on channel=6 note=81 velocity=100 time=0@note_on channel=8 note=79 velocity=0 time=0@note_on channel=8 note=77 velocity=100 time=0@note_on channel=10 note=91 velocity=0 time=0@note_on channel=10 note=93 velocity=100 time=0@note_on channel=11 note=81 velocity=0 time=0@note_on channel=11 note=79 velocity=100 time=0@note_on channel=10 note=93 velocity=0 time=0.07936499999999999@note_on channel=10 note=91 velocity=100 time=0@note_on channel=2 note=79 velocity=0 time=0.07936499999999999@note_on channel=2 note=79 velocity=100 time=0@note_on channel=4 note=77 velocity=0 time=0@note_on channel=4 note=79 velocity=100 time=0@note_on channel=5 note=71 velocity=0 time=0@note_on channel=5 note=72 velocity=100 time=0@note_on channel=6 note=81 velocity=0 time=0@note_on channel=6 note=83 velocity=100 time=0@note_on channel=7 note=76 velocity=0 time=0@note_on channel=7 note=77 velocity=100 time=0@note_on channel=8 note=77 velocity=0 time=0@note_on channel=8 note=76 velocity=100 time=0@note_on channel=11 note=79 velocity=0 time=0@note_on channel=11 note=76 velocity=100 time=0@note_on channel=12 note=67 velocity=0 time=0@note_on channel=12 note=65 velocity=100 time=0@note_on channel=0 note=76 velocity=0 time=0.15872999999999998@note_on channel=0 note=74 velocity=100 time=0@note_on channel=2 note=79 velocity=0 time=0@note_on channel=2 note=79 velocity=100 time=0@note_on channel=3 note=72 velocity=0 time=0@note_on channel=3 note=74 velocity=100 time=0@note_on channel=5 note=72 velocity=0 time=0@note_on channel=5 note=74 velocity=100 time=0@note_on channel=6 note=83 velocity=0 time=0@note_on channel=6 note=79 velocity=100 time=0@note_on channel=8 note=76 velocity=0 time=0@note_on channel=8 note=74 velocity=100 time=0@note_on channel=10 note=91 velocity=0 time=0@note_on channel=10 note=89 velocity=100 time=0@note_on channel=13 note=76 velocity=0 time=0@note_on channel=13 note=77 velocity=100 time=0@note_on channel=14 note=76 velocity=0 time=0@note_on channel=14 note=74 velocity=100 time=0@note_on channel=0 note=74 velocity=0 time=0.15872999999999998@note_on channel=0 note=72 velocity=100 time=0@note_on channel=2 note=79 velocity=0 time=0@note_on channel=2 note=79 velocity=100 time=0@note_on channel=3 note=74 velocity=0 time=0@note_on channel=3 note=76 velocity=100 time=0@note_on channel=4 note=79 velocity=0 time=0@note_on channel=4 note=72 velocity=100 time=0@note_on channel=5 note=74 velocity=0 time=0@note_on channel=5 note=76 velocity=100 time=0@note_on channel=6 note=79 velocity=0 time=0@note_on channel=6 note=81 velocity=100 time=0@note_on channel=7 note=77 velocity=0 time=0@note_on channel=7 note=79 velocity=100 time=0@note_on channel=8 note=74 velocity=0 time=0@note_on channel=8 note=72 velocity=100 time=0@note_on channel=10 note=89 velocity=0 time=0@note_on channel=10 note=88 velocity=100 time=0@note_on channel=11 note=76 velocity=0 time=0@note_on channel=11 note=72 velocity=100 time=0@note_on channel=12 note=65 velocity=0 time=0@note_on channel=12 note=64 velocity=100 time=0@note_on channel=13 note=77 velocity=0 time=0@note_on channel=13 note=79 velocity=100 time=0@note_on channel=14 note=74 velocity=0 time=0@note_on channel=14 note=72 velocity=100 time=0@note_on channel=2 note=79 velocity=0 time=0.15872999999999998@note_on channel=2 note=79 velocity=100 time=0@note_on channel=3 note=76 velocity=0 time=0@note_on channel=3 note=77 velocity=100 time=0@note_on channel=5 note=76 velocity=0 time=0@note_on channel=5 note=74 velocity=100 time=0@note_on channel=6 note=81 velocity=0 time=0@note_on channel=6 note=83 velocity=100 time=0@note_on channel=0 note=72 velocity=0 time=0.15872999999999998@note_on channel=0 note=74 velocity=100 time=0@note_on channel=1 note=40 velocity=0 time=0@note_on channel=1 note=50 velocity=100 time=0@note_on channel=2 note=79 velocity=0 time=0@note_on channel=2 note=71 velocity=100 time=0@note_on channel=3 note=77 velocity=0 time=0@note_on channel=3 note=79 velocity=100 time=0@note_on channel=4 note=72 velocity=0 time=0@note_on channel=4 note=67 velocity=100 time=0@note_on channel=5 note=74 velocity=0 time=0@note_on channel=5 note=74 velocity=100 time=0@note_on channel=6 note=83 velocity=0 time=0@note_on channel=6 note=81 velocity=100 time=0@note_on channel=7 note=79 velocity=0 time=0@note_on channel=7 note=71 velocity=100 time=0@note_on channel=8 note=72 velocity=0 time=0@note_on channel=8 note=67 velocity=100 time=0@note_on channel=10 note=88 velocity=0 time=0@note_on channel=10 note=86 velocity=100 time=0@note_on channel=11 note=72 velocity=0 time=0@note_on channel=11 note=74 velocity=100 time=0@note_on channel=12 note=64 velocity=0 time=0@note_on channel=12 note=62 velocity=100 time=0@note_on channel=13 note=79 velocity=0 time=0@note_on channel=13 note=74 velocity=100 time=0@note_on channel=14 note=72 velocity=0 time=0@note_on channel=14 note=74 velocity=100 time=0@note_on channel=6 note=81 velocity=0 time=0.07936499999999999@note_on channel=6 note=79 velocity=100 time=0@note_on channel=11 note=74 velocity=0 time=0@note_on channel=11 note=72 velocity=100 time=0@note_on channel=2 note=71 velocity=0 time=0.07936499999999999@note_on channel=2 note=74 velocity=100 time=0@note_on channel=4 note=67 velocity=0 time=0@note_on channel=4 note=69 velocity=100 time=0@note_on channel=5 note=74 velocity=0 time=0@note_on channel=5 note=72 velocity=100 time=0@note_on channel=6 note=79 velocity=0 time=0@note_on channel=6 note=81 velocity=100 time=0@note_on channel=11 note=72 velocity=0 time=0@note_on channel=11 note=74 velocity=100 time=0@note_on channel=6 note=81 velocity=0 time=0.07936499999999999@note_on channel=6 note=79 velocity=100 time=0@note_on channel=2 note=74 velocity=0 time=0.07936499999999999@note_on channel=2 note=74 velocity=100 time=0@note_on channel=3 note=79 velocity=0 time=0@note_on channel=3 note=79 velocity=100 time=0@note_on channel=4 note=69 velocity=0 time=0@note_on channel=4 note=71 velocity=100 time=0@note_on channel=5 note=72 velocity=0 time=0@note_on channel=5 note=74 velocity=100 time=0@note_on channel=6 note=79 velocity=0 time=0@note_on channel=6 note=74 velocity=100 time=0@note_on channel=7 note=71 velocity=0 time=0@note_on channel=7 note=67 velocity=100 time=0@note_on channel=8 note=67 velocity=0 time=0@note_on channel=8 note=71 velocity=100 time=0@note_on channel=10 note=86 velocity=0 time=0@note_on channel=10 note=83 velocity=100 time=0@note_on channel=11 note=74 velocity=0 time=0@note_on channel=11 note=71 velocity=100 time=0@note_on channel=2 note=74 velocity=0 time=0.15872999999999998@note_on channel=2 note=74 velocity=100 time=0@note_on channel=5 note=74 velocity=0 time=0@note_on channel=5 note=76 velocity=100 time=0@note_on channel=13 note=74 velocity=0 time=0@note_on channel=13 note=76 velocity=100 time=0@note_on channel=0 note=74 velocity=0 time=0.15872999999999998@note_on channel=0 note=71 velocity=100 time=0@note_on channel=2 note=74 velocity=0 time=0@note_on channel=2 note=74 velocity=100 time=0@note_on channel=3 note=79 velocity=0 time=0@note_on channel=3 note=81 velocity=100 time=0@note_on channel=4 note=71 velocity=0 time=0@note_on channel=4 note=67 velocity=100 time=0@note_on channel=5 note=76 velocity=0 time=0@note_on channel=5 note=74 velocity=100 time=0@note_on channel=6 note=74 velocity=0 time=0@note_on channel=6 note=74 velocity=100 time=0@note_on channel=7 note=67 velocity=0 time=0@note_on channel=7 note=69 velocity=100 time=0@note_on channel=8 note=71 velocity=0 time=0@note_on channel=8 note=67 velocity=100 time=0@note_on channel=10 note=83 velocity=0 time=0@note_on channel=10 note=79 velocity=100 time=0@note_on channel=11 note=71 velocity=0 time=0@note_on channel=11 note=67 velocity=100 time=0@note_on channel=12 note=62 velocity=0 time=0@note_on channel=12 note=62 velocity=100 time=0@note_on channel=13 note=76 velocity=0 time=0@note_on channel=13 note=74 velocity=100 time=0@note_on channel=14 note=74 velocity=0 time=0@note_on channel=14 note=71 velocity=100 time=0@note_on channel=2 note=74 velocity=0 time=0.15872999999999998@note_on channel=2 note=74 velocity=100 time=0@note_on channel=5 note=74 velocity=0 time=0@note_on channel=5 note=72 velocity=100 time=0@note_on channel=0 note=71 velocity=0 time=0.15872999999999998@note_on channel=0 note=67 velocity=100 time=0@note_on channel=1 note=50 velocity=0 time=0@note_on channel=1 note=43 velocity=100 time=0@note_on channel=2 note=74 velocity=0 time=0@note_on channel=2 note=67 velocity=100 time=0@note_on channel=3 note=81 velocity=0 time=0@note_on channel=3 note=84 velocity=100 time=0@note_on channel=4 note=67 velocity=0 time=0@note_on channel=4 note=71 velocity=100 time=0@note_on channel=5 note=72 velocity=0 time=0@note_on channel=5 note=71 velocity=100 time=0@note_on channel=6 note=74 velocity=0 time=0@note_on channel=6 note=74 velocity=100 time=0@note_on channel=7 note=69 velocity=0 time=0@note_on channel=7 note=71 velocity=100 time=0@note_on channel=8 note=67 velocity=0 time=0@note_on channel=8 note=74 velocity=100 time=0@note_on channel=10 note=79 velocity=0 time=0@note_on channel=10 note=86 velocity=100 time=0@note_on channel=11 note=67 velocity=0 time=0@note_on channel=11 note=74 velocity=100 time=0@note_on channel=12 note=62 velocity=0 time=0@note_on channel=12 note=59 velocity=100 time=0@note_on channel=13 note=74 velocity=0 time=0@note_on channel=13 note=71 velocity=100 time=0@note_on channel=14 note=71 velocity=0 time=0@note_on channel=14 note=67 velocity=100 time=0@note_on channel=3 note=84 velocity=0 time=0.07936499999999999@note_on channel=3 note=83 velocity=100 time=0@note_on channel=11 note=74 velocity=0 time=0@note_on channel=11 note=72 velocity=100 time=0@note_on channel=2 note=67 velocity=0 time=0.07936499999999999@note_on channel=2 note=74 velocity=100 time=0@note_on channel=3 note=83 velocity=0 time=0@note_on channel=3 note=84 velocity=100 time=0@note_on channel=4 note=71 velocity=0 time=0@note_on channel=4 note=72 velocity=100 time=0@note_on channel=5 note=71 velocity=0 time=0@note_on channel=5 note=69 velocity=100 time=0@note_on channel=8 note=74 velocity=0 time=0@note_on channel=8 note=72 velocity=100 time=0@note_on channel=11 note=72 velocity=0 time=0@note_on channel=11 note=74 velocity=100 time=0@note_on channel=3 note=84 velocity=0 time=0.07936499999999999@note_on channel=3 note=83 velocity=100 time=0@note_on channel=2 note=74 velocity=0 time=0.07936499999999999@note_on channel=2 note=74 velocity=100 time=0@note_on channel=4 note=72 velocity=0 time=0@note_on channel=4 note=74 velocity=100 time=0@note_on channel=5 note=69 velocity=0 time=0@note_on channel=5 note=71 velocity=100 time=0@note_on channel=7 note=71 velocity=0 time=0@note_on channel=7 note=72 velocity=100 time=0@note_on channel=8 note=72 velocity=0 time=0@note_on channel=8 note=71 velocity=100 time=0@note_on channel=10 note=86 velocity=0 time=0@note_on channel=10 note=74 velocity=100 time=0@note_on channel=11 note=74 velocity=0 time=0@note_on channel=11 note=71 velocity=100 time=0@note_on channel=12 note=59 velocity=0 time=0@note_on channel=12 note=60 velocity=100 time=0@note_on channel=0 note=67 velocity=0 time=0.15872999999999998@note_on channel=0 note=69 velocity=100 time=0@note_on channel=2 note=74 velocity=0 time=0@note_on channel=2 note=74 velocity=100 time=0@note_on channel=3 note=83 velocity=0 time=0@note_on channel=3 note=81 velocity=100 time=0@note_on channel=5 note=71 velocity=0 time=0@note_on channel=5 note=72 velocity=100 time=0@note_on channel=6 note=74 velocity=0 time=0@note_on channel=6 note=76 velocity=100 time=0@note_on channel=8 note=71 velocity=0 time=0@note_on channel=8 note=69 velocity=100 time=0@note_on channel=13 note=71 velocity=0 time=0@note_on channel=13 note=72 velocity=100 time=0@note_on channel=14 note=67 velocity=0 time=0@note_on channel=14 note=69 velocity=100 time=0@note_on channel=0 note=69 velocity=0 time=0.15872999999999998@note_on channel=0 note=71 velocity=100 time=0@note_on channel=2 note=74 velocity=0 time=0@note_on channel=2 note=74 velocity=100 time=0@note_on channel=3 note=81 velocity=0 time=0@note_on channel=3 note=79 velocity=100 time=0@note_on channel=4 note=74 velocity=0 time=0@note_on channel=4 note=67 velocity=100 time=0@note_on channel=5 note=72 velocity=0 time=0@note_on channel=5 note=74 velocity=100 time=0@note_on channel=6 note=76 velocity=0 time=0@note_on channel=6 note=77 velocity=100 time=0@note_on channel=7 note=72 velocity=0 time=0@note_on channel=7 note=74 velocity=100 time=0@note_on channel=8 note=69 velocity=0 time=0@note_on channel=8 note=67 velocity=100 time=0@note_on channel=10 note=74 velocity=0 time=0@note_on channel=10 note=88 velocity=100 time=0@note_on channel=11 note=71 velocity=0 time=0@note_on channel=11 note=67 velocity=100 time=0@note_on channel=12 note=60 velocity=0 time=0@note_on channel=12 note=62 velocity=100 time=0@note_on channel=13 note=72 velocity=0 time=0@note_on channel=13 note=74 velocity=100 time=0@note_on channel=14 note=69 velocity=0 time=0@note_on channel=14 note=71 velocity=100 time=0@note_on channel=2 note=74 velocity=0 time=0.15872999999999998@note_on channel=2 note=74 velocity=100 time=0@note_on channel=5 note=74 velocity=0 time=0@note_on channel=5 note=72 velocity=100 time=0@note_on channel=10 note=88 velocity=0 time=0@note_on channel=10 note=86 velocity=100 time=0@note_on channel=0 note=71 velocity=0 time=0.15872999999999998@note_on channel=0 note=72 velocity=100 time=0@note_on channel=1 note=43 velocity=0 time=0@note_on channel=1 note=45 velocity=100 time=0@note_on channel=2 note=74 velocity=0 time=0@note_on channel=2 note=69 velocity=100 time=0@note_on channel=3 note=79 velocity=0 time=0@note_on channel=3 note=84 velocity=100 time=0@note_on channel=4 note=67 velocity=0 time=0@note_on channel=4 note=81 velocity=100 time=0@note_on channel=5 note=72 velocity=0 time=0@note_on channel=5 note=72 velocity=100 time=0@note_on channel=6 note=77 velocity=0 time=0@note_on channel=6 note=72 velocity=100 time=0@note_on channel=7 note=74 velocity=0 time=0@note_on channel=7 note=72 velocity=100 time=0@note_on channel=8 note=67 velocity=0 time=0@note_on channel=8 note=76 velocity=100 time=0@note_on channel=10 note=86 velocity=0 time=0@note_on channel=10 note=84 velocity=100 time=0@note_on channel=11 note=67 velocity=0 time=0@note_on channel=11 note=76 velocity=100 time=0@note_on channel=12 note=62 velocity=0 time=0@note_on channel=12 note=64 velocity=100 time=0@note_on channel=13 note=74 velocity=0 time=0@note_on channel=13 note=72 velocity=100 time=0@note_on channel=14 note=71 velocity=0 time=0@note_on channel=14 note=72 velocity=100 time=0@note_on channel=7 note=72 velocity=0 time=0.07936499999999999@note_on channel=7 note=74 velocity=100 time=0@note_on channel=2 note=69 velocity=0 time=0.07936499999999999@note_on channel=2 note=72 velocity=100 time=0@note_on channel=4 note=81 velocity=0 time=0@note_on channel=4 note=83 velocity=100 time=0@note_on channel=5 note=72 velocity=0 time=0@note_on channel=5 note=71 velocity=100 time=0@note_on channel=7 note=74 velocity=0 time=0@note_on channel=7 note=72 velocity=100 time=0@note_on channel=8 note=76 velocity=0 time=0@note_on channel=8 note=74 velocity=100 time=0@note_on channel=2 note=72 velocity=0 time=0.15872999999999998@note_on channel=2 note=72 velocity=100 time=0@note_on channel=3 note=84 velocity=0 time=0@note_on channel=3 note=83 velocity=100 time=0@note_on channel=4 note=83 velocity=0 time=0@note_on channel=4 note=84 velocity=100 time=0@note_on channel=5 note=71 velocity=0 time=0@note_on channel=5 note=72 velocity=100 time=0@note_on channel=6 note=72 velocity=0 time=0@note_on channel=6 note=71 velocity=100 time=0@note_on channel=7 note=72 velocity=0 time=0@note_on channel=7 note=69 velocity=100 time=0@note_on channel=8 note=74 velocity=0 time=0@note_on channel=8 note=72 velocity=100 time=0@note_on channel=10 note=84 velocity=0 time=0@note_on channel=10 note=83 velocity=100 time=0@note_on channel=11 note=76 velocity=0 time=0@note_on channel=11 note=72 velocity=100 time=0@note_on channel=12 note=64 velocity=0 time=0@note_on channel=12 note=62 velocity=100 time=0@note_on channel=13 note=72 velocity=0 time=0@note_on channel=13 note=71 velocity=100 time=0@note_on channel=0 note=72 velocity=0 time=0.15872999999999998@note_on channel=0 note=71 velocity=100 time=0@note_on channel=2 note=72 velocity=0 time=0@note_on channel=2 note=72 velocity=100 time=0@note_on channel=5 note=72 velocity=0 time=0@note_on channel=5 note=74 velocity=100 time=0@note_on channel=8 note=72 velocity=0 time=0@note_on channel=8 note=71 velocity=100 time=0@note_on channel=14 note=72 velocity=0 time=0@note_on channel=14 note=71 velocity=100 time=0@note_on channel=0 note=71 velocity=0 time=0.15872999999999998@note_on channel=0 note=69 velocity=100 time=0@note_on channel=2 note=72 velocity=0 time=0@note_on channel=2 note=72 velocity=100 time=0@note_on channel=3 note=83 velocity=0 time=0@note_on channel=3 note=81 velocity=100 time=0@note_on channel=4 note=84 velocity=0 time=0@note_on channel=4 note=81 velocity=100 time=0@note_on channel=5 note=74 velocity=0 time=0@note_on channel=5 note=76 velocity=100 time=0@note_on channel=6 note=71 velocity=0 time=0@note_on channel=6 note=69 velocity=100 time=0@note_on channel=7 note=69 velocity=0 time=0@note_on channel=7 note=72 velocity=100 time=0@note_on channel=8 note=71 velocity=0 time=0@note_on channel=8 note=69 velocity=100 time=0@note_on channel=10 note=83 velocity=0 time=0@note_on channel=10 note=81 velocity=100 time=0@note_on channel=11 note=72 velocity=0 time=0@note_on channel=11 note=69 velocity=100 time=0@note_on channel=12 note=62 velocity=0 time=0@note_on channel=12 note=60 velocity=100 time=0@note_on channel=13 note=71 velocity=0 time=0@note_on channel=13 note=69 velocity=100 time=0@note_on channel=14 note=71 velocity=0 time=0@note_on channel=14 note=69 velocity=100 time=0@note_on channel=2 note=72 velocity=0 time=0.15872999999999998@note_on channel=2 note=72 velocity=100 time=0@note_on channel=5 note=76 velocity=0 time=0@note_on channel=5 note=74 velocity=100 time=0@note_on channel=0 note=69 velocity=0 time=0.15872999999999998@note_on channel=0 note=72 velocity=100 time=0@note_on channel=1 note=45 velocity=0 time=0@note_on channel=1 note=38 velocity=100 time=0@note_on channel=2 note=72 velocity=0 time=0@note_on channel=2 note=64 velocity=100 time=0@note_on channel=3 note=81 velocity=0 time=0@note_on channel=3 note=81 velocity=100 time=0@note_on channel=4 note=81 velocity=0 time=0@note_on channel=4 note=80 velocity=100 time=0@note_on channel=5 note=74 velocity=0 time=0@note_on channel=5 note=74 velocity=100 time=0@note_on channel=6 note=69 velocity=0 time=0@note_on channel=6 note=69 velocity=100 time=0@note_on channel=7 note=72 velocity=0 time=0@note_on channel=7 note=71 velocity=100 time=0@note_on channel=8 note=69 velocity=0 time=0@note_on channel=8 note=71 velocity=100 time=0@note_on channel=10 note=81 velocity=0 time=0@note_on channel=10 note=83 velocity=100 time=0@note_on channel=11 note=69 velocity=0 time=0@note_on channel=11 note=71 velocity=100 time=0@note_on channel=12 note=60 velocity=0 time=0@note_on channel=12 note=62 velocity=100 time=0@note_on channel=13 note=69 velocity=0 time=0@note_on channel=13 note=69 velocity=100 time=0@note_on channel=14 note=69 velocity=0 time=0@note_on channel=14 note=72 velocity=100 time=0@note_on channel=0 note=72 velocity=0 time=0.07936499999999999@note_on channel=0 note=71 velocity=100 time=0@note_on channel=3 note=81 velocity=0 time=0@note_on channel=3 note=80 velocity=100 time=0@note_on channel=6 note=69 velocity=0 time=0@note_on channel=6 note=68 velocity=100 time=0@note_on channel=7 note=71 velocity=0 time=0@note_on channel=7 note=72 velocity=100 time=0@note_on channel=11 note=71 velocity=0 time=0@note_on channel=11 note=72 velocity=100 time=0@note_on channel=13 note=69 velocity=0 time=0@note_on channel=13 note=68 velocity=100 time=0@note_on channel=14 note=72 velocity=0 time=0@note_on channel=14 note=71 velocity=100 time=0@note_on channel=0 note=71 velocity=0 time=0.07936499999999999@note_on channel=0 note=72 velocity=100 time=0@note_on channel=2 note=64 velocity=0 time=0@note_on channel=2 note=71 velocity=100 time=0@note_on channel=3 note=80 velocity=0 time=0@note_on channel=3 note=81 velocity=100 time=0@note_on channel=4 note=80 velocity=0 time=0@note_on channel=4 note=81 velocity=100 time=0@note_on channel=5 note=74 velocity=0 time=0@note_on channel=5 note=72 velocity=100 time=0@note_on channel=6 note=68 velocity=0 time=0@note_on channel=6 note=69 velocity=100 time=0@note_on channel=7 note=72 velocity=0 time=0@note_on channel=7 note=71 velocity=100 time=0@note_on channel=8 note=71 velocity=0 time=0@note_on channel=8 note=69 velocity=100 time=0@note_on channel=11 note=72 velocity=0 time=0@note_on channel=11 note=71 velocity=100 time=0@note_on channel=13 note=68 velocity=0 time=0@note_on channel=13 note=69 velocity=100 time=0@note_on channel=14 note=71 velocity=0 time=0@note_on channel=14 note=72 velocity=100 time=0@note_on channel=0 note=72 velocity=0 time=0.07936499999999999@note_on channel=0 note=71 velocity=100 time=0@note_on channel=3 note=81 velocity=0 time=0@note_on channel=3 note=80 velocity=100 time=0@note_on channel=6 note=69 velocity=0 time=0@note_on channel=6 note=68 velocity=100 time=0@note_on channel=13 note=69 velocity=0 time=0@note_on channel=13 note=68 velocity=100 time=0@note_on channel=14 note=72 velocity=0 time=0@note_on channel=14 note=71 velocity=100 time=0@note_on channel=2 note=71 velocity=0 time=0.07936499999999999@note_on channel=2 note=71 velocity=100 time=0@note_on channel=4 note=81 velocity=0 time=0@note_on channel=4 note=83 velocity=100 time=0@note_on channel=5 note=72 velocity=0 time=0@note_on channel=5 note=71 velocity=100 time=0@note_on channel=7 note=71 velocity=0 time=0@note_on channel=7 note=68 velocity=100 time=0@note_on channel=8 note=69 velocity=0 time=0@note_on channel=8 note=68 velocity=100 time=0@note_on channel=10 note=83 velocity=0 time=0@note_on channel=10 note=80 velocity=100 time=0@note_on channel=11 note=71 velocity=0 time=0@note_on channel=11 note=68 velocity=100 time=0@note_on channel=12 note=62 velocity=0 time=0@note_on channel=12 note=60 velocity=100 time=0@note_on channel=12 note=60 velocity=0 time=0.07936499999999999@note_on channel=12 note=59 velocity=100 time=0@note_on channel=0 note=71 velocity=0 time=0.07936499999999999@note_on channel=0 note=69 velocity=100 time=0@note_on channel=2 note=71 velocity=0 time=0@note_on channel=2 note=71 velocity=100 time=0@note_on channel=3 note=80 velocity=0 time=0@note_on channel=3 note=78 velocity=100 time=0@note_on channel=5 note=71 velocity=0 time=0@note_on channel=5 note=69 velocity=100 time=0@note_on channel=6 note=68 velocity=0 time=0@note_on channel=6 note=66 velocity=100 time=0@note_on channel=8 note=68 velocity=0 time=0@note_on channel=8 note=66 velocity=100 time=0@note_on channel=12 note=59 velocity=0 time=0@note_on channel=12 note=60 velocity=100 time=0@note_on channel=13 note=68 velocity=0 time=0@note_on channel=13 note=66 velocity=100 time=0@note_on channel=14 note=71 velocity=0 time=0@note_on channel=14 note=69 velocity=100 time=0@note_on channel=12 note=60 velocity=0 time=0.07936499999999999@note_on channel=12 note=59 velocity=100 time=0@note_on channel=0 note=69 velocity=0 time=0.07936499999999999@note_on channel=0 note=68 velocity=100 time=0@note_on channel=2 note=71 velocity=0 time=0@note_on channel=2 note=71 velocity=100 time=0@note_on channel=3 note=78 velocity=0 time=0@note_on channel=3 note=80 velocity=100 time=0@note_on channel=4 note=83 velocity=0 time=0@note_on channel=4 note=80 velocity=100 time=0@note_on channel=5 note=69 velocity=0 time=0@note_on channel=5 note=71 velocity=100 time=0@note_on channel=6 note=66 velocity=0 time=0@note_on channel=6 note=68 velocity=100 time=0@note_on channel=7 note=68 velocity=0 time=0@note_on channel=7 note=64 velocity=100 time=0@note_on channel=8 note=66 velocity=0 time=0@note_on channel=8 note=64 velocity=100 time=0@note_on channel=10 note=80 velocity=0 time=0@note_on channel=10 note=76 velocity=100 time=0@note_on channel=11 note=68 velocity=0 time=0@note_on channel=11 note=64 velocity=100 time=0@note_on channel=13 note=66 velocity=0 time=0@note_on channel=13 note=68 velocity=100 time=0@note_on channel=14 note=69 velocity=0 time=0@note_on channel=14 note=68 velocity=100 time=0@note_on channel=2 note=71 velocity=0 time=0.15872999999999998@note_on channel=2 note=71 velocity=100 time=0@note_on channel=5 note=71 velocity=0 time=0@note_on channel=5 note=68 velocity=100 time=0@note_on channel=12 note=59 velocity=0 time=0@note_on channel=12 note=57 velocity=100 time=0@note_on channel=12 note=57 velocity=0 time=0.07936499999999999@note_on channel=12 note=59 velocity=100 time=0@note_on channel=0 note=68 velocity=0 time=0.07936499999999999@note_on channel=0 note=69 velocity=100 time=0@note_on channel=1 note=38 velocity=0 time=0@note_on channel=1 note=45 velocity=100 time=0@note_on channel=2 note=71 velocity=0 time=0@note_on channel=2 note=69 velocity=100 time=0@note_on channel=3 note=80 velocity=0 time=0@note_on channel=3 note=81 velocity=100 time=0@note_on channel=4 note=80 velocity=0 time=0@note_on channel=4 note=81 velocity=100 time=0@note_on channel=5 note=68 velocity=0 time=0@note_on channel=5 note=69 velocity=100 time=0@note_on channel=6 note=68 velocity=0 time=0@note_on channel=6 note=69 velocity=100 time=0@note_on channel=7 note=64 velocity=0 time=0@note_on channel=7 note=69 velocity=100 time=0@note_on channel=8 note=64 velocity=0 time=0@note_on channel=8 note=69 velocity=100 time=0@note_on channel=10 note=76 velocity=0 time=0@note_on channel=10 note=81 velocity=100 time=0@note_on channel=11 note=64 velocity=0 time=0@note_on channel=11 note=69 velocity=100 time=0@note_on channel=12 note=59 velocity=0 time=0@note_on channel=12 note=57 velocity=100 time=0@note_on channel=13 note=68 velocity=0 time=0@note_on channel=13 note=69 velocity=100 time=0@note_on channel=14 note=68 velocity=0 time=0@note_on channel=14 note=69 velocity=100 time=0@note_on channel=4 note=81 velocity=0 time=0.07936499999999999@note_on channel=4 note=80 velocity=100 time=0@note_on channel=4 note=80 velocity=0 time=0.07936499999999999@note_on channel=4 note=81 velocity=100 time=0@note_on channel=0 note=69 velocity=0 time=0.79365@note_on channel=0 note=69 velocity=100 time=0@note_on channel=2 note=69 velocity=0 time=0@note_on channel=2 note=69 velocity=100 time=0@note_on channel=3 note=81 velocity=0 time=0@note_on channel=3 note=81 velocity=100 time=0@note_on channel=4 note=81 velocity=0 time=0@note_on channel=4 note=81 velocity=100 time=0@note_on channel=5 note=69 velocity=0 time=0@note_on channel=5 note=69 velocity=100 time=0@note_on channel=6 note=69 velocity=0 time=0@note_on channel=6 note=69 velocity=100 time=0@note_on channel=7 note=69 velocity=0 time=0@note_on channel=7 note=69 velocity=100 time=0@note_on channel=8 note=69 velocity=0 time=0@note_on channel=8 note=69 velocity=100 time=0@note_on channel=10 note=81 velocity=0 time=0@note_on channel=10 note=81 velocity=100 time=0@note_on channel=11 note=69 velocity=0 time=0@note_on channel=11 note=69 velocity=100 time=0@note_on channel=12 note=57 velocity=0 time=0@note_on channel=12 note=57 velocity=100 time=0@note_on channel=13 note=69 velocity=0 time=0@note_on channel=13 note=69 velocity=100 time=0@note_on channel=14 note=69 velocity=0 time=0@note_on channel=14 note=69 velocity=100 time=0@note_on channel=8 note=69 velocity=0 time=0.07936499999999999@note_on channel=8 note=68 velocity=100 time=0@note_on channel=8 note=68 velocity=0 time=0.07936499999999999@note_on channel=8 note=69 velocity=100 time=0@note_on channel=0 note=69 velocity=0 time=0.79365@note_on channel=1 note=45 velocity=0 time=0@note_on channel=1 note=48 velocity=100 time=0@note_on channel=2 note=69 velocity=0 time=0@note_on channel=2 note=72 velocity=100 time=0@note_on channel=3 note=81 velocity=0 time=0@note_on channel=3 note=72 velocity=100 time=0@note_on channel=4 note=81 velocity=0 time=0@note_on channel=4 note=84 velocity=100 time=0@note_on channel=5 note=69 velocity=0 time=0@note_on channel=5 note=69 velocity=100 time=0@note_on channel=6 note=69 velocity=0 time=0@note_on channel=6 note=72 velocity=100 time=0@note_on channel=7 note=69 velocity=0 time=0@note_on channel=7 note=69 velocity=100 time=0@note_on channel=8 note=69 velocity=0 time=0@note_on channel=8 note=72 velocity=100 time=0@note_on channel=10 note=81 velocity=0 time=0@note_on channel=10 note=81 velocity=100 time=0@note_on channel=11 note=69 velocity=0 time=0@note_on channel=11 note=79 velocity=100 time=0@note_on channel=12 note=57 velocity=0 time=0@note_on channel=12 note=64 velocity=100 time=0@note_on channel=13 note=69 velocity=0 time=0@note_on channel=13 note=79 velocity=100 time=0@note_on channel=14 note=69 velocity=0 time=0@note_on channel=14 note=72 velocity=100 time=0@note_on channel=3 note=72 velocity=0 time=0.15872999999999998@note_on channel=3 note=76 velocity=100 time=0@note_on channel=5 note=69 velocity=0 time=0@note_on channel=5 note=71 velocity=100 time=0@note_on channel=6 note=72 velocity=0 time=0@note_on channel=6 note=71 velocity=100 time=0@note_on channel=7 note=69 velocity=0 time=0@note_on channel=7 note=71 velocity=100 time=0@note_on channel=3 note=76 velocity=0 time=0.15872999999999998@note_on channel=3 note=76 velocity=100 time=0@note_on channel=4 note=84 velocity=0 time=0@note_on channel=4 note=84 velocity=100 time=0@note_on channel=5 note=71 velocity=0 time=0@note_on channel=5 note=72 velocity=100 time=0@note_on channel=6 note=71 velocity=0 time=0@note_on channel=6 note=72 velocity=100 time=0@note_on channel=7 note=71 velocity=0 time=0@note_on channel=7 note=72 velocity=100 time=0@note_on channel=8 note=72 velocity=0 time=0@note_on channel=8 note=69 velocity=100 time=0@note_on channel=10 note=81 velocity=0 time=0@note_on channel=10 note=84 velocity=100 time=0@note_on channel=11 note=79 velocity=0 time=0@note_on channel=11 note=72 velocity=100 time=0@note_on channel=12 note=64 velocity=0 time=0@note_on channel=12 note=60 velocity=100 time=0@note_on channel=3 note=76 velocity=0 time=0.15872999999999998@note_on channel=3 note=76 velocity=100 time=0@note_on channel=6 note=72 velocity=0 time=0@note_on channel=6 note=74 velocity=100 time=0@note_on channel=7 note=72 velocity=0 time=0@note_on channel=7 note=74 velocity=100 time=0@note_on channel=14 note=72 velocity=0 time=0@note_on channel=14 note=74 velocity=100 time=0@note_on channel=2 note=72 velocity=0 time=0.15872999999999998@note_on channel=2 note=74 velocity=100 time=0@note_on channel=3 note=76 velocity=0 time=0@note_on channel=3 note=76 velocity=100 time=0@note_on channel=4 note=84 velocity=0 time=0@note_on channel=4 note=84 velocity=100 time=0@note_on channel=5 note=72 velocity=0 time=0@note_on channel=5 note=69 velocity=100 time=0@note_on channel=6 note=74 velocity=0 time=0@note_on channel=6 note=76 velocity=100 time=0@note_on channel=7 note=74 velocity=0 time=0@note_on channel=7 note=76 velocity=100 time=0@note_on channel=8 note=69 velocity=0 time=0@note_on channel=8 note=71 velocity=100 time=0@note_on channel=10 note=84 velocity=0 time=0@note_on channel=10 note=81 velocity=100 time=0@note_on channel=11 note=72 velocity=0 time=0@note_on channel=11 note=81 velocity=100 time=0@note_on channel=12 note=60 velocity=0 time=0@note_on channel=12 note=57 velocity=100 time=0@note_on channel=13 note=79 velocity=0 time=0@note_on channel=13 note=79 velocity=100 time=0@note_on channel=14 note=74 velocity=0 time=0@note_on channel=14 note=76 velocity=100 time=0@note_on channel=3 note=76 velocity=0 time=0.15872999999999998@note_on channel=3 note=76 velocity=100 time=0@note_on channel=6 note=76 velocity=0 time=0@note_on channel=6 note=74 velocity=100 time=0@note_on channel=7 note=76 velocity=0 time=0@note_on channel=7 note=69 velocity=100 time=0@note_on channel=1 note=48 velocity=0 time=0.15872999999999998@note_on channel=1 note=40 velocity=100 time=0@note_on channel=2 note=74 velocity=0 time=0@note_on channel=2 note=76 velocity=100 time=0@note_on channel=3 note=76 velocity=0 time=0@note_on channel=3 note=72 velocity=100 time=0@note_on channel=4 note=84 velocity=0 time=0@note_on channel=4 note=72 velocity=100 time=0@note_on channel=5 note=69 velocity=0 time=0@note_on channel=5 note=72 velocity=100 time=0@note_on channel=6 note=74 velocity=0 time=0@note_on channel=6 note=72 velocity=100 time=0@note_on channel=7 note=69 velocity=0 time=0@note_on channel=7 note=81 velocity=100 time=0@note_on channel=8 note=71 velocity=0 time=0@note_on channel=8 note=72 velocity=100 time=0@note_on channel=10 note=81 velocity=0 time=0@note_on channel=10 note=88 velocity=100 time=0@note_on channel=11 note=81 velocity=0 time=0@note_on channel=11 note=81 velocity=100 time=0@note_on channel=12 note=57 velocity=0 time=0@note_on channel=12 note=64 velocity=100 time=0@note_on channel=13 note=79 velocity=0 time=0@note_on channel=13 note=79 velocity=100 time=0@note_on channel=14 note=76 velocity=0 time=0@note_on channel=14 note=76 velocity=100 time=0@note_on channel=11 note=81 velocity=0 time=0.07936499999999999@note_on channel=11 note=79 velocity=100 time=0@note_on channel=3 note=72 velocity=0 time=0.07936499999999999@note_on channel=3 note=76 velocity=100 time=0@note_on channel=5 note=72 velocity=0 time=0@note_on channel=5 note=74 velocity=100 time=0@note_on channel=6 note=72 velocity=0 time=0@note_on channel=6 note=71 velocity=100 time=0@note_on channel=7 note=81 velocity=0 time=0@note_on channel=7 note=80 velocity=100 time=0@note_on channel=10 note=88 velocity=0 time=0@note_on channel=10 note=86 velocity=100 time=0@note_on channel=11 note=79 velocity=0 time=0@note_on channel=11 note=81 velocity=100 time=0@note_on channel=11 note=81 velocity=0 time=0.07936499999999999@note_on channel=11 note=79 velocity=100 time=0@note_on channel=3 note=76 velocity=0 time=0.07936499999999999@note_on channel=3 note=76 velocity=100 time=0@note_on channel=4 note=72 velocity=0 time=0@note_on channel=4 note=72 velocity=100 time=0@note_on channel=5 note=74 velocity=0 time=0@note_on channel=5 note=76 velocity=100 time=0@note_on channel=6 note=71 velocity=0 time=0@note_on channel=6 note=72 velocity=100 time=0@note_on channel=7 note=80 velocity=0 time=0@note_on channel=7 note=81 velocity=100 time=0@note_on channel=8 note=72 velocity=0 time=0@note_on channel=8 note=74 velocity=100 time=0@note_on channel=10 note=86 velocity=0 time=0@note_on channel=10 note=84 velocity=100 time=0@note_on channel=12 note=64 velocity=0 time=0@note_on channel=12 note=60 velocity=100 time=0@note_on channel=13 note=79 velocity=0 time=0@note_on channel=13 note=77 velocity=100 time=0@note_on channel=3 note=76 velocity=0 time=0.15872999999999998@note_on channel=3 note=76 velocity=100 time=0@note_on channel=6 note=72 velocity=0 time=0@note_on channel=6 note=74 velocity=100 time=0@note_on channel=7 note=81 velocity=0 time=0@note_on channel=7 note=83 velocity=100 time=0@note_on channel=10 note=84 velocity=0 time=0@note_on channel=10 note=83 velocity=100 time=0@note_on channel=11 note=79 velocity=0 time=0@note_on channel=11 note=77 velocity=100 time=0@note_on channel=14 note=76 velocity=0 time=0@note_on channel=14 note=77 velocity=100 time=0@note_on channel=2 note=76 velocity=0 time=0.15872999999999998@note_on channel=2 note=76 velocity=100 time=0@note_on channel=3 note=76 velocity=0 time=0@note_on channel=3 note=76 velocity=100 time=0@note_on channel=4 note=72 velocity=0 time=0@note_on channel=4 note=72 velocity=100 time=0@note_on channel=5 note=76 velocity=0 time=0@note_on channel=5 note=69 velocity=100 time=0@note_on channel=6 note=74 velocity=0 time=0@note_on channel=6 note=76 velocity=100 time=0@note_on channel=7 note=83 velocity=0 time=0@note_on channel=7 note=84 velocity=100 time=0@note_on channel=8 note=74 velocity=0 time=0@note_on channel=8 note=76 velocity=100 time=0@note_on channel=10 note=83 velocity=0 time=0@note_on channel=10 note=81 velocity=100 time=0@note_on channel=11 note=77 velocity=0 time=0@note_on channel=11 note=76 velocity=100 time=0@note_on channel=12 note=60 velocity=0 time=0@note_on channel=12 note=57 velocity=100 time=0@note_on channel=13 note=77 velocity=0 time=0@note_on channel=13 note=76 velocity=100 time=0@note_on channel=14 note=77 velocity=0 time=0@note_on channel=14 note=76 velocity=100 time=0@note_on channel=3 note=76 velocity=0 time=0.15872999999999998@note_on channel=3 note=76 velocity=100 time=0@note_on channel=6 note=76 velocity=0 time=0@note_on channel=6 note=74 velocity=100 time=0@note_on channel=7 note=84 velocity=0 time=0@note_on channel=7 note=81 velocity=100 time=0@note_on channel=1 note=40 velocity=0 time=0.15872999999999998@note_on channel=1 note=50 velocity=100 time=0@note_on channel=2 note=76 velocity=0 time=0@note_on channel=2 note=74 velocity=100 time=0@note_on channel=3 note=76 velocity=0 time=0@note_on channel=3 note=71 velocity=100 time=0@note_on channel=4 note=72 velocity=0 time=0@note_on channel=4 note=79 velocity=100 time=0@note_on channel=5 note=69 velocity=0 time=0@note_on channel=5 note=67 velocity=100 time=0@note_on channel=6 note=74 velocity=0 time=0@note_on channel=6 note=71 velocity=100 time=0@note_on channel=7 note=81 velocity=0 time=0@note_on channel=7 note=84 velocity=100 time=0@note_on channel=8 note=76 velocity=0 time=0@note_on channel=8 note=71 velocity=100 time=0@note_on channel=10 note=81 velocity=0 time=0@note_on channel=10 note=79 velocity=100 time=0@note_on channel=11 note=76 velocity=0 time=0@note_on channel=11 note=74 velocity=100 time=0@note_on channel=12 note=57 velocity=0 time=0@note_on channel=12 note=62 velocity=100 time=0@note_on channel=13 note=76 velocity=0 time=0@note_on channel=13 note=74 velocity=100 time=0@note_on channel=14 note=76 velocity=0 time=0@note_on channel=14 note=74 velocity=100 time=0@note_on channel=7 note=84 velocity=0 time=0.07936499999999999@note_on channel=7 note=83 velocity=100 time=0@note_on channel=3 note=71 velocity=0 time=0.07936499999999999@note_on channel=3 note=74 velocity=100 time=0@note_on channel=5 note=67 velocity=0 time=0@note_on channel=5 note=69 velocity=100 time=0@note_on channel=6 note=71 velocity=0 time=0@note_on channel=6 note=69 velocity=100 time=0@note_on channel=7 note=83 velocity=0 time=0@note_on channel=7 note=84 velocity=100 time=0@note_on channel=7 note=84 velocity=0 time=0.07936499999999999@note_on channel=7 note=83 velocity=100 time=0@note_on channel=3 note=74 velocity=0 time=0.07936499999999999@note_on channel=3 note=74 velocity=100 time=0@note_on channel=4 note=79 velocity=0 time=0@note_on channel=4 note=79 velocity=100 time=0@note_on channel=5 note=69 velocity=0 time=0@note_on channel=5 note=71 velocity=100 time=0@note_on channel=6 note=69 velocity=0 time=0@note_on channel=6 note=71 velocity=100 time=0@note_on channel=8 note=71 velocity=0 time=0@note_on channel=8 note=67 velocity=100 time=0@note_on channel=10 note=79 velocity=0 time=0@note_on channel=10 note=83 velocity=100 time=0@note_on channel=11 note=74 velocity=0 time=0@note_on channel=11 note=71 velocity=100 time=0@note_on channel=12 note=62 velocity=0 time=0@note_on channel=12 note=59 velocity=100 time=0@note_on channel=3 note=74 velocity=0 time=0.15872999999999998@note_on channel=3 note=74 velocity=100 time=0@note_on channel=6 note=71 velocity=0 time=0@note_on channel=6 note=72 velocity=100 time=0@note_on channel=14 note=74 velocity=0 time=0@note_on channel=14 note=76 velocity=100 time=0@note_on channel=2 note=74 velocity=0 time=0.15872999999999998@note_on channel=2 note=71 velocity=100 time=0@note_on channel=3 note=74 velocity=0 time=0@note_on channel=3 note=74 velocity=100 time=0@note_on channel=4 note=79 velocity=0 time=0@note_on channel=4 note=79 velocity=100 time=0@note_on channel=5 note=71 velocity=0 time=0@note_on channel=5 note=67 velocity=100 time=0@note_on channel=6 note=72 velocity=0 time=0@note_on channel=6 note=74 velocity=100 time=0@note_on channel=7 note=83 velocity=0 time=0@note_on channel=7 note=79 velocity=100 time=0@note_on channel=8 note=67 velocity=0 time=0@note_on channel=8 note=69 velocity=100 time=0@note_on channel=10 note=83 velocity=0 time=0@note_on channel=10 note=79 velocity=100 time=0@note_on channel=11 note=71 velocity=0 time=0@note_on channel=11 note=67 velocity=100 time=0@note_on channel=12 note=59 velocity=0 time=0@note_on channel=12 note=55 velocity=100 time=0@note_on channel=13 note=74 velocity=0 time=0@note_on channel=13 note=74 velocity=100 time=0@note_on channel=14 note=76 velocity=0 time=0@note_on channel=14 note=74 velocity=100 time=0@note_on channel=3 note=74 velocity=0 time=0.15872999999999998@note_on channel=3 note=74 velocity=100 time=0@note_on channel=6 note=74 velocity=0 time=0@note_on channel=6 note=72 velocity=100 time=0@note_on channel=1 note=50 velocity=0 time=0.15872999999999998@note_on channel=1 note=43 velocity=100 time=0@note_on channel=2 note=71 velocity=0 time=0@note_on channel=2 note=67 velocity=100 time=0@note_on channel=3 note=74 velocity=0 time=0@note_on channel=3 note=71 velocity=100 time=0@note_on channel=4 note=79 velocity=0 time=0@note_on channel=4 note=67 velocity=100 time=0@note_on channel=5 note=67 velocity=0 time=0@note_on channel=5 note=71 velocity=100 time=0@note_on channel=6 note=72 velocity=0 time=0@note_on channel=6 note=71 velocity=100 time=0@note_on channel=7 note=79 velocity=0 time=0@note_on channel=7 note=79 velocity=100 time=0@note_on channel=8 note=69 velocity=0 time=0@note_on channel=8 note=71 velocity=100 time=0@note_on channel=10 note=79 velocity=0 time=0@note_on channel=10 note=86 velocity=100 time=0@note_on channel=11 note=67 velocity=0 time=0@note_on channel=11 note=74 velocity=100 time=0@note_on channel=12 note=55 velocity=0 time=0@note_on channel=12 note=62 velocity=100 time=0@note_on channel=13 note=74 velocity=0 time=0@note_on channel=13 note=71 velocity=100 time=0@note_on channel=14 note=74 velocity=0 time=0@note_on channel=14 note=71 velocity=100 time=0@note_on channel=3 note=71 velocity=0 time=0.15872999999999998@note_on channel=3 note=74 velocity=100 time=0@note_on channel=5 note=71 velocity=0 time=0@note_on channel=5 note=72 velocity=100 time=0@note_on channel=6 note=71 velocity=0 time=0@note_on channel=6 note=69 velocity=100 time=0@note_on channel=10 note=86 velocity=0 time=0@note_on channel=10 note=84 velocity=100 time=0@note_on channel=3 note=74 velocity=0 time=0.15872999999999998@note_on channel=3 note=74 velocity=100 time=0@note_on channel=5 note=72 velocity=0 time=0@note_on channel=5 note=74 velocity=100 time=0@note_on channel=6 note=69 velocity=0 time=0@note_on channel=6 note=71 velocity=100 time=0@note_on channel=8 note=71 velocity=0 time=0@note_on channel=8 note=72 velocity=100 time=0@note_on channel=10 note=84 velocity=0 time=0@note_on channel=10 note=83 velocity=100 time=0@note_on channel=11 note=74 velocity=0 time=0@note_on channel=11 note=62 velocity=100 time=0@note_on channel=12 note=62 velocity=0 time=0@note_on channel=12 note=59 velocity=100 time=0@note_on channel=13 note=71 velocity=0 time=0@note_on channel=13 note=72 velocity=100 time=0@note_on channel=3 note=74 velocity=0 time=0.15872999999999998@note_on channel=3 note=74 velocity=100 time=0@note_on channel=4 note=67 velocity=0 time=0@note_on channel=4 note=69 velocity=100 time=0@note_on channel=6 note=71 velocity=0 time=0@note_on channel=6 note=72 velocity=100 time=0@note_on channel=10 note=83 velocity=0 time=0@note_on channel=10 note=81 velocity=100 time=0@note_on channel=14 note=71 velocity=0 time=0@note_on channel=14 note=72 velocity=100 time=0@note_on channel=3 note=74 velocity=0 time=0.15872999999999998@note_on channel=3 note=74 velocity=100 time=0@note_on channel=4 note=69 velocity=0 time=0@note_on channel=4 note=71 velocity=100 time=0@note_on channel=5 note=74 velocity=0 time=0@note_on channel=5 note=67 velocity=100 time=0@note_on channel=6 note=72 velocity=0 time=0@note_on channel=6 note=74 velocity=100 time=0@note_on channel=8 note=72 velocity=0 time=0@note_on channel=8 note=74 velocity=100 time=0@note_on channel=10 note=81 velocity=0 time=0@note_on channel=10 note=79 velocity=100 time=0@note_on channel=11 note=62 velocity=0 time=0@note_on channel=11 note=77 velocity=100 time=0@note_on channel=12 note=59 velocity=0 time=0@note_on channel=12 note=55 velocity=100 time=0@note_on channel=13 note=72 velocity=0 time=0@note_on channel=13 note=74 velocity=100 time=0@note_on channel=14 note=72 velocity=0 time=0@note_on channel=14 note=74 velocity=100 time=0@note_on channel=3 note=74 velocity=0 time=0.15872999999999998@note_on channel=3 note=74 velocity=100 time=0@note_on channel=6 note=74 velocity=0 time=0@note_on channel=6 note=72 velocity=100 time=0@note_on channel=11 note=77 velocity=0 time=0@note_on channel=11 note=79 velocity=100 time=0@note_on channel=1 note=43 velocity=0 time=0.15872999999999998@note_on channel=1 note=45 velocity=100 time=0@note_on channel=2 note=67 velocity=0 time=0@note_on channel=2 note=69 velocity=100 time=0@note_on channel=3 note=74 velocity=0 time=0@note_on channel=3 note=69 velocity=100 time=0@note_on channel=4 note=71 velocity=0 time=0@note_on channel=4 note=81 velocity=100 time=0@note_on channel=5 note=67 velocity=0 time=0@note_on channel=5 note=69 velocity=100 time=0@note_on channel=6 note=72 velocity=0 time=0@note_on channel=6 note=72 velocity=100 time=0@note_on channel=7 note=79 velocity=0 time=0@note_on channel=7 note=69 velocity=100 time=0@note_on channel=8 note=74 velocity=0 time=0@note_on channel=8 note=72 velocity=100 time=0@note_on channel=10 note=79 velocity=0 time=0@note_on channel=10 note=81 velocity=100 time=0@note_on channel=11 note=79 velocity=0 time=0@note_on channel=11 note=81 velocity=100 time=0@note_on channel=12 note=55 velocity=0 time=0@note_on channel=12 note=64 velocity=100 time=0@note_on channel=13 note=74 velocity=0 time=0@note_on channel=13 note=72 velocity=100 time=0@note_on channel=14 note=74 velocity=0 time=0@note_on channel=14 note=72 velocity=100 time=0@note_on channel=3 note=69 velocity=0 time=0.15872999999999998@note_on channel=3 note=72 velocity=100 time=0@note_on channel=5 note=69 velocity=0 time=0@note_on channel=5 note=71 velocity=100 time=0@note_on channel=6 note=72 velocity=0 time=0@note_on channel=6 note=71 velocity=100 time=0@note_on channel=7 note=69 velocity=0 time=0@note_on channel=7 note=71 velocity=100 time=0@note_on channel=3 note=72 velocity=0 time=0.15872999999999998@note_on channel=3 note=72 velocity=100 time=0@note_on channel=4 note=81 velocity=0 time=0@note_on channel=4 note=81 velocity=100 time=0@note_on channel=5 note=71 velocity=0 time=0@note_on channel=5 note=72 velocity=100 time=0@note_on channel=6 note=71 velocity=0 time=0@note_on channel=6 note=72 velocity=100 time=0@note_on channel=7 note=71 velocity=0 time=0@note_on channel=7 note=72 velocity=100 time=0@note_on channel=8 note=72 velocity=0 time=0@note_on channel=8 note=69 velocity=100 time=0@note_on channel=10 note=81 velocity=0 time=0@note_on channel=10 note=84 velocity=100 time=0@note_on channel=11 note=81 velocity=0 time=0@note_on channel=11 note=69 velocity=100 time=0@note_on channel=12 note=64 velocity=0 time=0@note_on channel=12 note=60 velocity=100 time=0@note_on channel=2 note=69 velocity=0 time=0.15872999999999998@note_on channel=2 note=71 velocity=100 time=0@note_on channel=3 note=72 velocity=0 time=0@note_on channel=3 note=72 velocity=100 time=0@note_on channel=6 note=72 velocity=0 time=0@note_on channel=6 note=74 velocity=100 time=0@note_on channel=7 note=72 velocity=0 time=0@note_on channel=7 note=74 velocity=100 time=0@note_on channel=14 note=72 velocity=0 time=0@note_on channel=14 note=71 velocity=100 time=0@note_on channel=2 note=71 velocity=0 time=0.15872999999999998@note_on channel=2 note=72 velocity=100 time=0@note_on channel=3 note=72 velocity=0 time=0@note_on channel=3 note=72 velocity=100 time=0@note_on channel=4 note=81 velocity=0 time=0@note_on channel=4 note=81 velocity=100 time=0@note_on channel=5 note=72 velocity=0 time=0@note_on channel=5 note=69 velocity=100 time=0@note_on channel=6 note=74 velocity=0 time=0@note_on channel=6 note=72 velocity=100 time=0@note_on channel=7 note=74 velocity=0 time=0@note_on channel=7 note=76 velocity=100 time=0@note_on channel=8 note=69 velocity=0 time=0@note_on channel=8 note=71 velocity=100 time=0@note_on channel=10 note=84 velocity=0 time=0@note_on channel=10 note=81 velocity=100 time=0@note_on channel=11 note=69 velocity=0 time=0@note_on channel=11 note=83 velocity=100 time=0@note_on channel=12 note=60 velocity=0 time=0@note_on channel=12 note=57 velocity=100 time=0@note_on channel=13 note=72 velocity=0 time=0@note_on channel=13 note=72 velocity=100 time=0@note_on channel=14 note=71 velocity=0 time=0@note_on channel=14 note=72 velocity=100 time=0@note_on channel=3 note=72 velocity=0 time=0.15872999999999998@note_on channel=3 note=72 velocity=100 time=0@note_on channel=6 note=72 velocity=0 time=0@note_on channel=6 note=71 velocity=100 time=0@note_on channel=7 note=76 velocity=0 time=0@note_on channel=7 note=69 velocity=100 time=0@note_on channel=1 note=45 velocity=0 time=0.15872999999999998@note_on channel=1 note=38 velocity=100 time=0@note_on channel=2 note=72 velocity=0 time=0@note_on channel=2 note=74 velocity=100 time=0@note_on channel=3 note=72 velocity=0 time=0@note_on channel=3 note=69 velocity=100 time=0@note_on channel=4 note=81 velocity=0 time=0@note_on channel=4 note=69 velocity=100 time=0@note_on channel=5 note=69 velocity=0 time=0@note_on channel=5 note=72 velocity=100 time=0@note_on channel=6 note=71 velocity=0 time=0@note_on channel=6 note=69 velocity=100 time=0@note_on channel=7 note=69 velocity=0 time=0@note_on channel=7 note=81 velocity=100 time=0@note_on channel=8 note=71 velocity=0 time=0@note_on channel=8 note=72 velocity=100 time=0@note_on channel=10 note=81 velocity=0 time=0@note_on channel=10 note=88 velocity=100 time=0@note_on channel=11 note=83 velocity=0 time=0@note_on channel=11 note=84 velocity=100 time=0@note_on channel=12 note=57 velocity=0 time=0@note_on channel=12 note=64 velocity=100 time=0@note_on channel=13 note=72 velocity=0 time=0@note_on channel=13 note=69 velocity=100 time=0@note_on channel=14 note=72 velocity=0 time=0@note_on channel=14 note=69 velocity=100 time=0@note_on channel=3 note=69 velocity=0 time=0.15872999999999998@note_on channel=3 note=72 velocity=100 time=0@note_on channel=5 note=72 velocity=0 time=0@note_on channel=5 note=74 velocity=100 time=0@note_on channel=6 note=69 velocity=0 time=0@note_on channel=6 note=68 velocity=100 time=0@note_on channel=7 note=81 velocity=0 time=0@note_on channel=7 note=80 velocity=100 time=0@note_on channel=10 note=88 velocity=0 time=0@note_on channel=10 note=86 velocity=100 time=0@note_on channel=2 note=74 velocity=0 time=0.15872999999999998@note_on channel=2 note=76 velocity=100 time=0@note_on channel=3 note=72 velocity=0 time=0@note_on channel=3 note=72 velocity=100 time=0@note_on channel=5 note=74 velocity=0 time=0@note_on channel=5 note=76 velocity=100 time=0@note_on channel=6 note=68 velocity=0 time=0@note_on channel=6 note=69 velocity=100 time=0@note_on channel=7 note=80 velocity=0 time=0@note_on channel=7 note=81 velocity=100 time=0@note_on channel=8 note=72 velocity=0 time=0@note_on channel=8 note=74 velocity=100 time=0@note_on channel=10 note=86 velocity=0 time=0@note_on channel=10 note=84 velocity=100 time=0@note_on channel=11 note=84 velocity=0 time=0@note_on channel=11 note=83 velocity=100 time=0@note_on channel=12 note=64 velocity=0 time=0@note_on channel=12 note=60 velocity=100 time=0@note_on channel=13 note=69 velocity=0 time=0@note_on channel=13 note=71 velocity=100 time=0@note_on channel=3 note=72 velocity=0 time=0.15872999999999998@note_on channel=3 note=72 velocity=100 time=0@note_on channel=4 note=69 velocity=0 time=0@note_on channel=4 note=71 velocity=100 time=0@note_on channel=6 note=69 velocity=0 time=0@note_on channel=6 note=71 velocity=100 time=0@note_on channel=7 note=81 velocity=0 time=0@note_on channel=7 note=83 velocity=100 time=0@note_on channel=10 note=84 velocity=0 time=0@note_on channel=10 note=83 velocity=100 time=0@note_on channel=14 note=69 velocity=0 time=0@note_on channel=14 note=71 velocity=100 time=0@note_on channel=2 note=76 velocity=0 time=0.15872999999999998@note_on channel=2 note=72 velocity=100 time=0@note_on channel=3 note=72 velocity=0 time=0@note_on channel=3 note=72 velocity=100 time=0@note_on channel=4 note=71 velocity=0 time=0@note_on channel=4 note=72 velocity=100 time=0@note_on channel=5 note=76 velocity=0 time=0@note_on channel=5 note=69 velocity=100 time=0@note_on channel=6 note=71 velocity=0 time=0@note_on channel=6 note=72 velocity=100 time=0@note_on channel=7 note=83 velocity=0 time=0@note_on channel=7 note=84 velocity=100 time=0@note_on channel=8 note=74 velocity=0 time=0@note_on channel=8 note=76 velocity=100 time=0@note_on channel=10 note=83 velocity=0 time=0@note_on channel=10 note=81 velocity=100 time=0@note_on channel=11 note=83 velocity=0 time=0@note_on channel=11 note=81 velocity=100 time=0@note_on channel=12 note=60 velocity=0 time=0@note_on channel=12 note=57 velocity=100 time=0@note_on channel=13 note=71 velocity=0 time=0@note_on channel=13 note=72 velocity=100 time=0@note_on channel=14 note=71 velocity=0 time=0@note_on channel=14 note=72 velocity=100 time=0@note_on channel=3 note=72 velocity=0 time=0.15872999999999998@note_on channel=3 note=72 velocity=100 time=0@note_on channel=4 note=72 velocity=0 time=0@note_on channel=4 note=74 velocity=100 time=0@note_on channel=6 note=72 velocity=0 time=0@note_on channel=6 note=69 velocity=100 time=0@note_on channel=7 note=84 velocity=0 time=0@note_on channel=7 note=81 velocity=100 time=0@note_on channel=1 note=38 velocity=0 time=0.15872999999999998@note_on channel=1 note=47 velocity=100 time=0@note_on channel=2 note=72 velocity=0 time=0@note_on channel=2 note=71 velocity=100 time=0@note_on channel=3 note=72 velocity=0 time=0@note_on channel=3 note=68 velocity=100 time=0@note_on channel=4 note=74 velocity=0 time=0@note_on channel=4 note=76 velocity=100 time=0@note_on channel=5 note=69 velocity=0 time=0@note_on channel=5 note=64 velocity=100 time=0@note_on channel=6 note=69 velocity=0 time=0@note_on channel=6 note=71 velocity=100 time=0@note_on channel=7 note=81 velocity=0 time=0@note_on channel=7 note=81 velocity=100 time=0@note_on channel=8 note=76 velocity=0 time=0@note_on channel=8 note=71 velocity=100 time=0@note_on channel=10 note=81 velocity=0 time=0@note_on channel=10 note=76 velocity=100 time=0@note_on channel=11 note=81 velocity=0 time=0@note_on channel=11 note=80 velocity=100 time=0@note_on channel=12 note=57 velocity=0 time=0@note_on channel=12 note=59 velocity=100 time=0@note_on channel=13 note=72 velocity=0 time=0@note_on channel=13 note=71 velocity=100 time=0@note_on channel=14 note=72 velocity=0 time=0@note_on channel=14 note=71 velocity=100 time=0@note_on channel=7 note=81 velocity=0 time=0.07936499999999999@note_on channel=7 note=80 velocity=100 time=0@note_on channel=3 note=68 velocity=0 time=0.07936499999999999@note_on channel=3 note=71 velocity=100 time=0@note_on channel=5 note=64 velocity=0 time=0@note_on channel=5 note=66 velocity=100 time=0@note_on channel=6 note=71 velocity=0 time=0@note_on channel=6 note=69 velocity=100 time=0@note_on channel=7 note=80 velocity=0 time=0@note_on channel=7 note=81 velocity=100 time=0@note_on channel=7 note=81 velocity=0 time=0.07936499999999999@note_on channel=7 note=80 velocity=100 time=0@note_on channel=3 note=71 velocity=0 time=0.07936499999999999@note_on channel=3 note=71 velocity=100 time=0@note_on channel=4 note=76 velocity=0 time=0@note_on channel=4 note=76 velocity=100 time=0@note_on channel=5 note=66 velocity=0 time=0@note_on channel=5 note=68 velocity=100 time=0@note_on channel=6 note=69 velocity=0 time=0@note_on channel=6 note=71 velocity=100 time=0@note_on channel=10 note=76 velocity=0 time=0@note_on channel=10 note=80 velocity=100 time=0@note_on channel=11 note=80 velocity=0 time=0@note_on channel=11 note=76 velocity=100 time=0@note_on channel=12 note=59 velocity=0 time=0@note_on channel=12 note=56 velocity=100 time=0@note_on channel=3 note=71 velocity=0 time=0.15872999999999998@note_on channel=3 note=71 velocity=100 time=0@note_on channel=6 note=71 velocity=0 time=0@note_on channel=6 note=69 velocity=100 time=0@note_on channel=14 note=71 velocity=0 time=0@note_on channel=14 note=69 velocity=100 time=0@note_on channel=2 note=71 velocity=0 time=0.15872999999999998@note_on channel=2 note=68 velocity=100 time=0@note_on channel=3 note=71 velocity=0 time=0@note_on channel=3 note=71 velocity=100 time=0@note_on channel=4 note=76 velocity=0 time=0@note_on channel=4 note=76 velocity=100 time=0@note_on channel=5 note=68 velocity=0 time=0@note_on channel=5 note=64 velocity=100 time=0@note_on channel=6 note=69 velocity=0 time=0@note_on channel=6 note=68 velocity=100 time=0@note_on channel=7 note=80 velocity=0 time=0@note_on channel=7 note=76 velocity=100 time=0@note_on channel=8 note=71 velocity=0 time=0@note_on channel=8 note=68 velocity=100 time=0@note_on channel=10 note=80 velocity=0 time=0@note_on channel=10 note=76 velocity=100 time=0@note_on channel=11 note=76 velocity=0 time=0@note_on channel=11 note=71 velocity=100 time=0@note_on channel=12 note=56 velocity=0 time=0@note_on channel=12 note=52 velocity=100 time=0@note_on channel=13 note=71 velocity=0 time=0@note_on channel=13 note=71 velocity=100 time=0@note_on channel=14 note=69 velocity=0 time=0@note_on channel=14 note=71 velocity=100 time=0@note_on channel=3 note=71 velocity=0 time=0.15872999999999998@note_on channel=3 note=71 velocity=100 time=0@note_on channel=6 note=68 velocity=0 time=0@note_on channel=6 note=66 velocity=100 time=0@note_on channel=1 note=47 velocity=0 time=0.15872999999999998@note_on channel=1 note=40 velocity=100 time=0@note_on channel=2 note=68 velocity=0 time=0@note_on channel=2 note=64 velocity=100 time=0@note_on channel=3 note=71 velocity=0 time=0@note_on channel=3 note=64 velocity=100 time=0@note_on channel=4 note=76 velocity=0 time=0@note_on channel=4 note=68 velocity=100 time=0@note_on channel=5 note=64 velocity=0 time=0@note_on channel=5 note=68 velocity=100 time=0@note_on channel=6 note=66 velocity=0 time=0@note_on channel=6 note=64 velocity=100 time=0@note_on channel=7 note=76 velocity=0 time=0@note_on channel=7 note=76 velocity=100 time=0@note_on channel=8 note=68 velocity=0 time=0@note_on channel=8 note=64 velocity=100 time=0@note_on channel=10 note=76 velocity=0 time=0@note_on channel=10 note=83 velocity=100 time=0@note_on channel=11 note=71 velocity=0 time=0@note_on channel=11 note=76 velocity=100 time=0@note_on channel=12 note=52 velocity=0 time=0@note_on channel=12 note=59 velocity=100 time=0@note_on channel=13 note=71 velocity=0 time=0@note_on channel=13 note=68 velocity=100 time=0@note_on channel=14 note=71 velocity=0 time=0@note_on channel=14 note=68 velocity=100 time=0@note_on channel=4 note=68 velocity=0 time=0.07936499999999999@note_on channel=4 note=69 velocity=100 time=0@note_on channel=3 note=64 velocity=0 time=0.07936499999999999@note_on channel=3 note=71 velocity=100 time=0@note_on channel=4 note=69 velocity=0 time=0@note_on channel=4 note=68 velocity=100 time=0@note_on channel=5 note=68 velocity=0 time=0@note_on channel=5 note=69 velocity=100 time=0@note_on channel=6 note=64 velocity=0 time=0@note_on channel=6 note=66 velocity=100 time=0@note_on channel=10 note=83 velocity=0 time=0@note_on channel=10 note=81 velocity=100 time=0@note_on channel=3 note=71 velocity=0 time=0.15872999999999998@note_on channel=3 note=71 velocity=100 time=0@note_on channel=4 note=68 velocity=0 time=0@note_on channel=4 note=64 velocity=100 time=0@note_on channel=5 note=69 velocity=0 time=0@note_on channel=5 note=71 velocity=100 time=0@note_on channel=6 note=66 velocity=0 time=0@note_on channel=6 note=68 velocity=100 time=0@note_on channel=10 note=81 velocity=0 time=0@note_on channel=10 note=80 velocity=100 time=0@note_on channel=11 note=76 velocity=0 time=0@note_on channel=11 note=77 velocity=100 time=0@note_on channel=12 note=59 velocity=0 time=0@note_on channel=12 note=56 velocity=100 time=0@note_on channel=13 note=68 velocity=0 time=0@note_on channel=13 note=69 velocity=100 time=0@note_on channel=11 note=77 velocity=0 time=0.07936499999999999@note_on channel=11 note=76 velocity=100 time=0@note_on channel=3 note=71 velocity=0 time=0.07936499999999999@note_on channel=3 note=71 velocity=100 time=0@note_on channel=6 note=68 velocity=0 time=0@note_on channel=6 note=69 velocity=100 time=0@note_on channel=10 note=80 velocity=0 time=0@note_on channel=10 note=78 velocity=100 time=0@note_on channel=11 note=76 velocity=0 time=0@note_on channel=11 note=77 velocity=100 time=0@note_on channel=14 note=68 velocity=0 time=0@note_on channel=14 note=69 velocity=100 time=0@note_on channel=11 note=77 velocity=0 time=0.07936499999999999@note_on channel=11 note=76 velocity=100 time=0@note_on channel=3 note=71 velocity=0 time=0.07936499999999999@note_on channel=3 note=71 velocity=100 time=0@note_on channel=4 note=64 velocity=0 time=0@note_on channel=4 note=64 velocity=100 time=0@note_on channel=5 note=71 velocity=0 time=0@note_on channel=5 note=64 velocity=100 time=0@note_on channel=6 note=69 velocity=0 time=0@note_on channel=6 note=68 velocity=100 time=0@note_on channel=10 note=78 velocity=0 time=0@note_on channel=10 note=76 velocity=100 time=0@note_on channel=12 note=56 velocity=0 time=0@note_on channel=12 note=52 velocity=100 time=0@note_on channel=13 note=69 velocity=0 time=0@note_on channel=13 note=71 velocity=100 time=0@note_on channel=14 note=69 velocity=0 time=0@note_on channel=14 note=71 velocity=100 time=0@note_on channel=3 note=71 velocity=0 time=0.15872999999999998@note_on channel=3 note=71 velocity=100 time=0@note_on channel=6 note=68 velocity=0 time=0@note_on channel=6 note=64 velocity=100 time=0@note_on channel=11 note=76 velocity=0 time=0@note_on channel=11 note=77 velocity=100 time=0@note_on channel=1 note=40 velocity=0 time=0.15872999999999998@note_on channel=1 note=48 velocity=100 time=0@note_on channel=2 note=64 velocity=0 time=0@note_on channel=2 note=72 velocity=100 time=0@note_on channel=3 note=71 velocity=0 time=0@note_on channel=3 note=76 velocity=100 time=0@note_on channel=4 note=64 velocity=0 time=0@note_on channel=4 note=84 velocity=100 time=0@note_on channel=5 note=64 velocity=0 time=0@note_on channel=5 note=72 velocity=100 time=0@note_on channel=6 note=64 velocity=0 time=0@note_on channel=6 note=72 velocity=100 time=0@note_on channel=7 note=76 velocity=0 time=0@note_on channel=7 note=72 velocity=100 time=0@note_on channel=8 note=64 velocity=0 time=0@note_on channel=8 note=76 velocity=100 time=0@note_on channel=10 note=76 velocity=0 time=0@note_on channel=10 note=84 velocity=100 time=0@note_on channel=11 note=77 velocity=0 time=0@note_on channel=11 note=79 velocity=100 time=0@note_on channel=12 note=52 velocity=0 time=0@note_on channel=12 note=67 velocity=100 time=0@note_on channel=13 note=71 velocity=0 time=0@note_on channel=13 note=79 velocity=100 time=0@note_on channel=14 note=71 velocity=0 time=0@note_on channel=14 note=72 velocity=100 time=0@note_on channel=12 note=67 velocity=0 time=0.07936499999999999@note_on channel=12 note=69 velocity=100 time=0@note_on channel=3 note=76 velocity=0 time=0.07936499999999999@note_on channel=3 note=79 velocity=100 time=0@note_on channel=5 note=72 velocity=0 time=0@note_on channel=5 note=74 velocity=100 time=0@note_on channel=6 note=72 velocity=0 time=0@note_on channel=6 note=71 velocity=100 time=0@note_on channel=7 note=72 velocity=0 time=0@note_on channel=7 note=71 velocity=100 time=0@note_on channel=12 note=69 velocity=0 time=0@note_on channel=12 note=67 velocity=100 time=0@note_on channel=3 note=79 velocity=0 time=0.15872999999999998@note_on channel=3 note=79 velocity=100 time=0@note_on channel=4 note=84 velocity=0 time=0@note_on channel=4 note=84 velocity=100 time=0@note_on channel=5 note=74 velocity=0 time=0@note_on channel=5 note=76 velocity=100 time=0@note_on channel=6 note=71 velocity=0 time=0@note_on channel=6 note=72 velocity=100 time=0@note_on channel=7 note=71 velocity=0 time=0@note_on channel=7 note=72 velocity=100 time=0@note_on channel=8 note=76 velocity=0 time=0@note_on channel=8 note=72 velocity=100 time=0@note_on channel=10 note=84 velocity=0 time=0@note_on channel=10 note=88 velocity=100 time=0@note_on channel=11 note=79 velocity=0 time=0@note_on channel=11 note=72 velocity=100 time=0@note_on channel=12 note=67 velocity=0 time=0@note_on channel=12 note=64 velocity=100 time=0@note_on channel=3 note=79 velocity=0 time=0.15872999999999998@note_on channel=3 note=79 velocity=100 time=0@note_on channel=6 note=72 velocity=0 time=0@note_on channel=6 note=74 velocity=100 time=0@note_on channel=7 note=72 velocity=0 time=0@note_on channel=7 note=74 velocity=100 time=0@note_on channel=14 note=72 velocity=0 time=0@note_on channel=14 note=74 velocity=100 time=0@note_on channel=2 note=72 velocity=0 time=0.15872999999999998@note_on channel=2 note=74 velocity=100 time=0@note_on channel=3 note=79 velocity=0 time=0@note_on channel=3 note=79 velocity=100 time=0@note_on channel=4 note=84 velocity=0 time=0@note_on channel=4 note=84 velocity=100 time=0@note_on channel=5 note=76 velocity=0 time=0@note_on channel=5 note=72 velocity=100 time=0@note_on channel=6 note=74 velocity=0 time=0@note_on channel=6 note=76 velocity=100 time=0@note_on channel=7 note=74 velocity=0 time=0@note_on channel=7 note=76 velocity=100 time=0@note_on channel=8 note=72 velocity=0 time=0@note_on channel=8 note=74 velocity=100 time=0@note_on channel=10 note=88 velocity=0 time=0@note_on channel=10 note=84 velocity=100 time=0@note_on channel=11 note=72 velocity=0 time=0@note_on channel=11 note=81 velocity=100 time=0@note_on channel=12 note=64 velocity=0 time=0@note_on channel=12 note=60 velocity=100 time=0@note_on channel=13 note=79 velocity=0 time=0@note_on channel=13 note=79 velocity=100 time=0@note_on channel=14 note=74 velocity=0 time=0@note_on channel=14 note=76 velocity=100 time=0@note_on channel=3 note=79 velocity=0 time=0.15872999999999998@note_on channel=3 note=79 velocity=100 time=0@note_on channel=6 note=76 velocity=0 time=0@note_on channel=6 note=74 velocity=100 time=0@note_on channel=7 note=76 velocity=0 time=0@note_on channel=7 note=77 velocity=100 time=0@note_on channel=1 note=48 velocity=0 time=0.15872999999999998@note_on channel=1 note=40 velocity=100 time=0@note_on channel=2 note=74 velocity=0 time=0@note_on channel=2 note=76 velocity=100 time=0@note_on channel=3 note=79 velocity=0 time=0@note_on channel=3 note=72 velocity=100 time=0@note_on channel=4 note=84 velocity=0 time=0@note_on channel=4 note=72 velocity=100 time=0@note_on channel=5 note=72 velocity=0 time=0@note_on channel=5 note=76 velocity=100 time=0@note_on channel=6 note=74 velocity=0 time=0@note_on channel=6 note=72 velocity=100 time=0@note_on channel=7 note=77 velocity=0 time=0@note_on channel=7 note=79 velocity=100 time=0@note_on channel=8 note=74 velocity=0 time=0@note_on channel=8 note=76 velocity=100 time=0@note_on channel=10 note=84 velocity=0 time=0@note_on channel=10 note=91 velocity=100 time=0@note_on channel=11 note=81 velocity=0 time=0@note_on channel=11 note=81 velocity=100 time=0@note_on channel=12 note=60 velocity=0 time=0@note_on channel=12 note=67 velocity=100 time=0@note_on channel=13 note=79 velocity=0 time=0@note_on channel=13 note=79 velocity=100 time=0@note_on channel=14 note=76 velocity=0 time=0@note_on channel=14 note=76 velocity=100 time=0@note_on channel=11 note=81 velocity=0 time=0.07936499999999999@note_on channel=11 note=79 velocity=100 time=0@note_on channel=12 note=67 velocity=0 time=0@note_on channel=12 note=69 velocity=100 time=0@note_on channel=3 note=72 velocity=0 time=0.07936499999999999@note_on channel=3 note=79 velocity=100 time=0@note_on channel=5 note=76 velocity=0 time=0@note_on channel=5 note=77 velocity=100 time=0@note_on channel=6 note=72 velocity=0 time=0@note_on channel=6 note=71 velocity=100 time=0@note_on channel=7 note=79 velocity=0 time=0@note_on channel=7 note=81 velocity=100 time=0@note_on channel=10 note=91 velocity=0 time=0@note_on channel=10 note=89 velocity=100 time=0@note_on channel=11 note=79 velocity=0 time=0@note_on channel=11 note=81 velocity=100 time=0@note_on channel=12 note=69 velocity=0 time=0@note_on channel=12 note=67 velocity=100 time=0@note_on channel=11 note=81 velocity=0 time=0.07936499999999999@note_on channel=11 note=79 velocity=100 time=0@note_on channel=3 note=79 velocity=0 time=0.07936499999999999@note_on channel=3 note=79 velocity=100 time=0@note_on channel=5 note=77 velocity=0 time=0@note_on channel=5 note=79 velocity=100 time=0@note_on channel=6 note=71 velocity=0 time=0@note_on channel=6 note=72 velocity=100 time=0@note_on channel=7 note=81 velocity=0 time=0@note_on channel=7 note=83 velocity=100 time=0@note_on channel=8 note=76 velocity=0 time=0@note_on channel=8 note=77 velocity=100 time=0@note_on channel=10 note=89 velocity=0 time=0@note_on channel=10 note=88 velocity=100 time=0@note_on channel=12 note=67 velocity=0 time=0@note_on channel=12 note=64 velocity=100 time=0@note_on channel=13 note=79 velocity=0 time=0@note_on channel=13 note=77 velocity=100 time=0@note_on channel=2 note=76 velocity=0 time=0.15872999999999998@note_on channel=2 note=74 velocity=100 time=0@note_on channel=3 note=79 velocity=0 time=0@note_on channel=3 note=79 velocity=100 time=0@note_on channel=4 note=72 velocity=0 time=0@note_on channel=4 note=74 velocity=100 time=0@note_on channel=6 note=72 velocity=0 time=0@note_on channel=6 note=74 velocity=100 time=0@note_on channel=7 note=83 velocity=0 time=0@note_on channel=7 note=79 velocity=100 time=0@note_on channel=10 note=88 velocity=0 time=0@note_on channel=10 note=86 velocity=100 time=0@note_on channel=11 note=79 velocity=0 time=0@note_on channel=11 note=77 velocity=100 time=0@note_on channel=14 note=76 velocity=0 time=0@note_on channel=14 note=77 velocity=100 time=0@note_on channel=2 note=74 velocity=0 time=0.15872999999999998@note_on channel=2 note=72 velocity=100 time=0@note_on channel=3 note=79 velocity=0 time=0@note_on channel=3 note=79 velocity=100 time=0@note_on channel=4 note=74 velocity=0 time=0@note_on channel=4 note=76 velocity=100 time=0@note_on channel=5 note=79 velocity=0 time=0@note_on channel=5 note=72 velocity=100 time=0@note_on channel=6 note=74 velocity=0 time=0@note_on channel=6 note=76 velocity=100 time=0@note_on channel=7 note=79 velocity=0 time=0@note_on channel=7 note=81 velocity=100 time=0@note_on channel=8 note=77 velocity=0 time=0@note_on channel=8 note=79 velocity=100 time=0@note_on channel=10 note=86 velocity=0 time=0@note_on channel=10 note=84 velocity=100 time=0@note_on channel=11 note=77 velocity=0 time=0@note_on channel=11 note=76 velocity=100 time=0@note_on channel=12 note=64 velocity=0 time=0@note_on channel=12 note=60 velocity=100 time=0@note_on channel=13 note=77 velocity=0 time=0@note_on channel=13 note=76 velocity=100 time=0@note_on channel=14 note=77 velocity=0 time=0@note_on channel=14 note=79 velocity=100 time=0@note_on channel=3 note=79 velocity=0 time=0.15872999999999998@note_on channel=3 note=79 velocity=100 time=0@note_on channel=4 note=76 velocity=0 time=0@note_on channel=4 note=77 velocity=100 time=0@note_on channel=6 note=76 velocity=0 time=0@note_on channel=6 note=74 velocity=100 time=0@note_on channel=7 note=81 velocity=0 time=0@note_on channel=7 note=83 velocity=100 time=0@note_on channel=1 note=40 velocity=0 time=0.15872999999999998@note_on channel=1 note=50 velocity=100 time=0@note_on channel=2 note=72 velocity=0 time=0@note_on channel=2 note=74 velocity=100 time=0@note_on channel=3 note=79 velocity=0 time=0@note_on channel=3 note=71 velocity=100 time=0@note_on channel=4 note=77 velocity=0 time=0@note_on channel=4 note=79 velocity=100 time=0@note_on channel=5 note=72 velocity=0 time=0@note_on channel=5 note=67 velocity=100 time=0@note_on channel=6 note=74 velocity=0 time=0@note_on channel=6 note=74 velocity=100 time=0@note_on channel=7 note=83 velocity=0 time=0@note_on channel=7 note=81 velocity=100 time=0@note_on channel=8 note=79 velocity=0 time=0@note_on channel=8 note=71 velocity=100 time=0@note_on channel=10 note=84 velocity=0 time=0@note_on channel=10 note=79 velocity=100 time=0@note_on channel=11 note=76 velocity=0 time=0@note_on channel=11 note=74 velocity=100 time=0@note_on channel=12 note=60 velocity=0 time=0@note_on channel=12 note=62 velocity=100 time=0@note_on channel=13 note=76 velocity=0 time=0@note_on channel=13 note=74 velocity=100 time=0@note_on channel=14 note=79 velocity=0 time=0@note_on channel=14 note=74 velocity=100 time=0@note_on channel=7 note=81 velocity=0 time=0.07936499999999999@note_on channel=7 note=79 velocity=100 time=0@note_on channel=12 note=62 velocity=0 time=0@note_on channel=12 note=60 velocity=100 time=0@note_on channel=3 note=71 velocity=0 time=0.07936499999999999@note_on channel=3 note=74 velocity=100 time=0@note_on channel=5 note=67 velocity=0 time=0@note_on channel=5 note=69 velocity=100 time=0@note_on channel=6 note=74 velocity=0 time=0@note_on channel=6 note=72 velocity=100 time=0@note_on channel=7 note=79 velocity=0 time=0@note_on channel=7 note=81 velocity=100 time=0@note_on channel=12 note=60 velocity=0 time=0@note_on channel=12 note=62 velocity=100 time=0@note_on channel=7 note=81 velocity=0 time=0.07936499999999999@note_on channel=7 note=79 velocity=100 time=0@note_on channel=3 note=74 velocity=0 time=0.07936499999999999@note_on channel=3 note=74 velocity=100 time=0@note_on channel=4 note=79 velocity=0 time=0@note_on channel=4 note=79 velocity=100 time=0@note_on channel=5 note=69 velocity=0 time=0@note_on channel=5 note=71 velocity=100 time=0@note_on channel=6 note=72 velocity=0 time=0@note_on channel=6 note=74 velocity=100 time=0@note_on channel=7 note=79 velocity=0 time=0@note_on channel=7 note=74 velocity=100 time=0@note_on channel=8 note=71 velocity=0 time=0@note_on channel=8 note=67 velocity=100 time=0@note_on channel=10 note=79 velocity=0 time=0@note_on channel=10 note=83 velocity=100 time=0@note_on channel=11 note=74 velocity=0 time=0@note_on channel=11 note=71 velocity=100 time=0@note_on channel=12 note=62 velocity=0 time=0@note_on channel=12 note=59 velocity=100 time=0@note_on channel=3 note=74 velocity=0 time=0.15872999999999998@note_on channel=3 note=74 velocity=100 time=0@note_on channel=6 note=74 velocity=0 time=0@note_on channel=6 note=76 velocity=100 time=0@note_on channel=14 note=74 velocity=0 time=0@note_on channel=14 note=76 velocity=100 time=0@note_on channel=2 note=74 velocity=0 time=0.15872999999999998@note_on channel=2 note=71 velocity=100 time=0@note_on channel=3 note=74 velocity=0 time=0@note_on channel=3 note=74 velocity=100 time=0@note_on channel=4 note=79 velocity=0 time=0@note_on channel=4 note=81 velocity=100 time=0@note_on channel=5 note=71 velocity=0 time=0@note_on channel=5 note=67 velocity=100 time=0@note_on channel=6 note=76 velocity=0 time=0@note_on channel=6 note=74 velocity=100 time=0@note_on channel=7 note=74 velocity=0 time=0@note_on channel=7 note=74 velocity=100 time=0@note_on channel=8 note=67 velocity=0 time=0@note_on channel=8 note=69 velocity=100 time=0@note_on channel=10 note=83 velocity=0 time=0@note_on channel=10 note=79 velocity=100 time=0@note_on channel=11 note=71 velocity=0 time=0@note_on channel=11 note=67 velocity=100 time=0@note_on channel=12 note=59 velocity=0 time=0@note_on channel=12 note=55 velocity=100 time=0@note_on channel=13 note=74 velocity=0 time=0@note_on channel=13 note=74 velocity=100 time=0@note_on channel=14 note=76 velocity=0 time=0@note_on channel=14 note=74 velocity=100 time=0@note_on channel=3 note=74 velocity=0 time=0.15872999999999998@note_on channel=3 note=74 velocity=100 time=0@note_on channel=6 note=74 velocity=0 time=0@note_on channel=6 note=72 velocity=100 time=0@note_on channel=1 note=50 velocity=0 time=0.15872999999999998@note_on channel=1 note=43 velocity=100 time=0@note_on channel=2 note=71 velocity=0 time=0@note_on channel=2 note=67 velocity=100 time=0@note_on channel=3 note=74 velocity=0 time=0@note_on channel=3 note=67 velocity=100 time=0@note_on channel=4 note=81 velocity=0 time=0@note_on channel=4 note=84 velocity=100 time=0@note_on channel=5 note=67 velocity=0 time=0@note_on channel=5 note=71 velocity=100 time=0@note_on channel=6 note=72 velocity=0 time=0@note_on channel=6 note=71 velocity=100 time=0@note_on channel=7 note=74 velocity=0 time=0@note_on channel=7 note=74 velocity=100 time=0@note_on channel=8 note=69 velocity=0 time=0@note_on channel=8 note=71 velocity=100 time=0@note_on channel=10 note=79 velocity=0 time=0@note_on channel=10 note=86 velocity=100 time=0@note_on channel=11 note=67 velocity=0 time=0@note_on channel=11 note=74 velocity=100 time=0@note_on channel=12 note=55 velocity=0 time=0@note_on channel=12 note=62 velocity=100 time=0@note_on channel=13 note=74 velocity=0 time=0@note_on channel=13 note=71 velocity=100 time=0@note_on channel=14 note=74 velocity=0 time=0@note_on channel=14 note=71 velocity=100 time=0@note_on channel=4 note=84 velocity=0 time=0.07936499999999999@note_on channel=4 note=83 velocity=100 time=0@note_on channel=12 note=62 velocity=0 time=0@note_on channel=12 note=60 velocity=100 time=0@note_on channel=3 note=67 velocity=0 time=0.07936499999999999@note_on channel=3 note=74 velocity=100 time=0@note_on channel=4 note=83 velocity=0 time=0@note_on channel=4 note=84 velocity=100 time=0@note_on channel=5 note=71 velocity=0 time=0@note_on channel=5 note=72 velocity=100 time=0@note_on channel=6 note=71 velocity=0 time=0@note_on channel=6 note=69 velocity=100 time=0@note_on channel=10 note=86 velocity=0 time=0@note_on channel=10 note=84 velocity=100 time=0@note_on channel=12 note=60 velocity=0 time=0@note_on channel=12 note=62 velocity=100 time=0@note_on channel=4 note=84 velocity=0 time=0.07936499999999999@note_on channel=4 note=83 velocity=100 time=0@note_on channel=3 note=74 velocity=0 time=0.07936499999999999@note_on channel=3 note=74 velocity=100 time=0@note_on channel=5 note=72 velocity=0 time=0@note_on channel=5 note=74 velocity=100 time=0@note_on channel=6 note=69 velocity=0 time=0@note_on channel=6 note=71 velocity=100 time=0@note_on channel=8 note=71 velocity=0 time=0@note_on channel=8 note=72 velocity=100 time=0@note_on channel=10 note=84 velocity=0 time=0@note_on channel=10 note=83 velocity=100 time=0@note_on channel=11 note=74 velocity=0 time=0@note_on channel=11 note=62 velocity=100 time=0@note_on channel=12 note=62 velocity=0 time=0@note_on channel=12 note=59 velocity=100 time=0@note_on channel=13 note=71 velocity=0 time=0@note_on channel=13 note=72 velocity=100 time=0@note_on channel=2 note=67 velocity=0 time=0.15872999999999998@note_on channel=2 note=69 velocity=100 time=0@note_on channel=3 note=74 velocity=0 time=0@note_on channel=3 note=74 velocity=100 time=0@note_on channel=4 note=83 velocity=0 time=0@note_on channel=4 note=81 velocity=100 time=0@note_on channel=6 note=71 velocity=0 time=0@note_on channel=6 note=72 velocity=100 time=0@note_on channel=7 note=74 velocity=0 time=0@note_on channel=7 note=76 velocity=100 time=0@note_on channel=10 note=83 velocity=0 time=0@note_on channel=10 note=81 velocity=100 time=0@note_on channel=14 note=71 velocity=0 time=0@note_on channel=14 note=72 velocity=100 time=0@note_on channel=2 note=69 velocity=0 time=0.15872999999999998@note_on channel=2 note=71 velocity=100 time=0@note_on channel=3 note=74 velocity=0 time=0@note_on channel=3 note=74 velocity=100 time=0@note_on channel=4 note=81 velocity=0 time=0@note_on channel=4 note=79 velocity=100 time=0@note_on channel=5 note=74 velocity=0 time=0@note_on channel=5 note=67 velocity=100 time=0@note_on channel=6 note=72 velocity=0 time=0@note_on channel=6 note=74 velocity=100 time=0@note_on channel=7 note=76 velocity=0 time=0@note_on channel=7 note=77 velocity=100 time=0@note_on channel=8 note=72 velocity=0 time=0@note_on channel=8 note=74 velocity=100 time=0@note_on channel=10 note=81 velocity=0 time=0@note_on channel=10 note=79 velocity=100 time=0@note_on channel=11 note=62 velocity=0 time=0@note_on channel=11 note=76 velocity=100 time=0@note_on channel=12 note=59 velocity=0 time=0@note_on channel=12 note=55 velocity=100 time=0@note_on channel=13 note=72 velocity=0 time=0@note_on channel=13 note=74 velocity=100 time=0@note_on channel=14 note=72 velocity=0 time=0@note_on channel=14 note=74 velocity=100 time=0@note_on channel=3 note=74 velocity=0 time=0.15872999999999998@note_on channel=3 note=74 velocity=100 time=0@note_on channel=6 note=74 velocity=0 time=0@note_on channel=6 note=72 velocity=100 time=0@note_on channel=11 note=76 velocity=0 time=0@note_on channel=11 note=74 velocity=100 time=0@note_on channel=1 note=43 velocity=0 time=0.15872999999999998@note_on channel=1 note=45 velocity=100 time=0@note_on channel=2 note=71 velocity=0 time=0@note_on channel=2 note=72 velocity=100 time=0@note_on channel=3 note=74 velocity=0 time=0@note_on channel=3 note=69 velocity=100 time=0@note_on channel=4 note=79 velocity=0 time=0@note_on channel=4 note=84 velocity=100 time=0@note_on channel=5 note=67 velocity=0 time=0@note_on channel=5 note=81 velocity=100 time=0@note_on channel=6 note=72 velocity=0 time=0@note_on channel=6 note=72 velocity=100 time=0@note_on channel=7 note=77 velocity=0 time=0@note_on channel=7 note=72 velocity=100 time=0@note_on channel=8 note=74 velocity=0 time=0@note_on channel=8 note=72 velocity=100 time=0@note_on channel=10 note=79 velocity=0 time=0@note_on channel=10 note=88 velocity=100 time=0@note_on channel=11 note=74 velocity=0 time=0@note_on channel=11 note=72 velocity=100 time=0@note_on channel=12 note=55 velocity=0 time=0@note_on channel=12 note=64 velocity=100 time=0@note_on channel=13 note=74 velocity=0 time=0@note_on channel=13 note=76 velocity=100 time=0@note_on channel=14 note=74 velocity=0 time=0@note_on channel=14 note=72 velocity=100 time=0@note_on channel=8 note=72 velocity=0 time=0.07936499999999999@note_on channel=8 note=74 velocity=100 time=0@note_on channel=3 note=69 velocity=0 time=0.07936499999999999@note_on channel=3 note=72 velocity=100 time=0@note_on channel=5 note=81 velocity=0 time=0@note_on channel=5 note=83 velocity=100 time=0@note_on channel=6 note=72 velocity=0 time=0@note_on channel=6 note=71 velocity=100 time=0@note_on channel=8 note=74 velocity=0 time=0@note_on channel=8 note=72 velocity=100 time=0@note_on channel=10 note=88 velocity=0 time=0@note_on channel=10 note=86 velocity=100 time=0@note_on channel=3 note=72 velocity=0 time=0.15872999999999998@note_on channel=3 note=72 velocity=100 time=0@note_on channel=4 note=84 velocity=0 time=0@note_on channel=4 note=83 velocity=100 time=0@note_on channel=5 note=83 velocity=0 time=0@note_on channel=5 note=84 velocity=100 time=0@note_on channel=6 note=71 velocity=0 time=0@note_on channel=6 note=72 velocity=100 time=0@note_on channel=7 note=72 velocity=0 time=0@note_on channel=7 note=71 velocity=100 time=0@note_on channel=8 note=72 velocity=0 time=0@note_on channel=8 note=69 velocity=100 time=0@note_on channel=10 note=86 velocity=0 time=0@note_on channel=10 note=84 velocity=100 time=0@note_on channel=11 note=72 velocity=0 time=0@note_on channel=11 note=71 velocity=100 time=0@note_on channel=12 note=64 velocity=0 time=0@note_on channel=12 note=60 velocity=100 time=0@note_on channel=13 note=76 velocity=0 time=0@note_on channel=13 note=74 velocity=100 time=0@note_on channel=14 note=72 velocity=0 time=0@note_on channel=14 note=71 velocity=100 time=0@note_on channel=2 note=72 velocity=0 time=0.15872999999999998@note_on channel=2 note=71 velocity=100 time=0@note_on channel=3 note=72 velocity=0 time=0@note_on channel=3 note=72 velocity=100 time=0@note_on channel=6 note=72 velocity=0 time=0@note_on channel=6 note=74 velocity=100 time=0@note_on channel=10 note=84 velocity=0 time=0@note_on channel=10 note=83 velocity=100 time=0@note_on channel=2 note=71 velocity=0 time=0.15872999999999998@note_on channel=2 note=69 velocity=100 time=0@note_on channel=3 note=72 velocity=0 time=0@note_on channel=3 note=72 velocity=100 time=0@note_on channel=4 note=83 velocity=0 time=0@note_on channel=4 note=81 velocity=100 time=0@note_on channel=5 note=84 velocity=0 time=0@note_on channel=5 note=81 velocity=100 time=0@note_on channel=6 note=74 velocity=0 time=0@note_on channel=6 note=76 velocity=100 time=0@note_on channel=7 note=71 velocity=0 time=0@note_on channel=7 note=69 velocity=100 time=0@note_on channel=8 note=69 velocity=0 time=0@note_on channel=8 note=72 velocity=100 time=0@note_on channel=10 note=83 velocity=0 time=0@note_on channel=10 note=81 velocity=100 time=0@note_on channel=11 note=71 velocity=0 time=0@note_on channel=11 note=69 velocity=100 time=0@note_on channel=12 note=60 velocity=0 time=0@note_on channel=12 note=57 velocity=100 time=0@note_on channel=13 note=74 velocity=0 time=0@note_on channel=13 note=72 velocity=100 time=0@note_on channel=14 note=71 velocity=0 time=0@note_on channel=14 note=69 velocity=100 time=0@note_on channel=3 note=72 velocity=0 time=0.15872999999999998@note_on channel=3 note=72 velocity=100 time=0@note_on channel=6 note=76 velocity=0 time=0@note_on channel=6 note=74 velocity=100 time=0@note_on channel=1 note=45 velocity=0 time=0.15872999999999998@note_on channel=1 note=38 velocity=100 time=0@note_on channel=2 note=69 velocity=0 time=0@note_on channel=2 note=72 velocity=100 time=0@note_on channel=3 note=72 velocity=0 time=0@note_on channel=3 note=64 velocity=100 time=0@note_on channel=4 note=81 velocity=0 time=0@note_on channel=4 note=81 velocity=100 time=0@note_on channel=5 note=81 velocity=0 time=0@note_on channel=5 note=80 velocity=100 time=0@note_on channel=6 note=74 velocity=0 time=0@note_on channel=6 note=74 velocity=100 time=0@note_on channel=7 note=69 velocity=0 time=0@note_on channel=7 note=69 velocity=100 time=0@note_on channel=8 note=72 velocity=0 time=0@note_on channel=8 note=71 velocity=100 time=0@note_on channel=10 note=81 velocity=0 time=0@note_on channel=10 note=83 velocity=100 time=0@note_on channel=11 note=69 velocity=0 time=0@note_on channel=11 note=71 velocity=100 time=0@note_on channel=12 note=57 velocity=0 time=0@note_on channel=12 note=59 velocity=100 time=0@note_on channel=13 note=72 velocity=0 time=0@note_on channel=13 note=74 velocity=100 time=0@note_on channel=14 note=69 velocity=0 time=0@note_on channel=14 note=69 velocity=100 time=0@note_on channel=2 note=72 velocity=0 time=0.07936499999999999@note_on channel=2 note=71 velocity=100 time=0@note_on channel=4 note=81 velocity=0 time=0@note_on channel=4 note=80 velocity=100 time=0@note_on channel=7 note=69 velocity=0 time=0@note_on channel=7 note=68 velocity=100 time=0@note_on channel=8 note=71 velocity=0 time=0@note_on channel=8 note=72 velocity=100 time=0@note_on channel=12 note=59 velocity=0 time=0@note_on channel=12 note=60 velocity=100 time=0@note_on channel=14 note=69 velocity=0 time=0@note_on channel=14 note=68 velocity=100 time=0@note_on channel=2 note=71 velocity=0 time=0.07936499999999999@note_on channel=2 note=72 velocity=100 time=0@note_on channel=3 note=64 velocity=0 time=0@note_on channel=3 note=71 velocity=100 time=0@note_on channel=4 note=80 velocity=0 time=0@note_on channel=4 note=81 velocity=100 time=0@note_on channel=5 note=80 velocity=0 time=0@note_on channel=5 note=81 velocity=100 time=0@note_on channel=6 note=74 velocity=0 time=0@note_on channel=6 note=72 velocity=100 time=0@note_on channel=7 note=68 velocity=0 time=0@note_on channel=7 note=69 velocity=100 time=0@note_on channel=8 note=72 velocity=0 time=0@note_on channel=8 note=71 velocity=100 time=0@note_on channel=10 note=83 velocity=0 time=0@note_on channel=10 note=81 velocity=100 time=0@note_on channel=12 note=60 velocity=0 time=0@note_on channel=12 note=59 velocity=100 time=0@note_on channel=14 note=68 velocity=0 time=0@note_on channel=14 note=69 velocity=100 time=0@note_on channel=2 note=72 velocity=0 time=0.07936499999999999@note_on channel=2 note=71 velocity=100 time=0@note_on channel=4 note=81 velocity=0 time=0@note_on channel=4 note=80 velocity=100 time=0@note_on channel=7 note=69 velocity=0 time=0@note_on channel=7 note=68 velocity=100 time=0@note_on channel=14 note=69 velocity=0 time=0@note_on channel=14 note=68 velocity=100 time=0@note_on channel=3 note=71 velocity=0 time=0.07936499999999999@note_on channel=3 note=71 velocity=100 time=0@note_on channel=5 note=81 velocity=0 time=0@note_on channel=5 note=83 velocity=100 time=0@note_on channel=6 note=72 velocity=0 time=0@note_on channel=6 note=71 velocity=100 time=0@note_on channel=8 note=71 velocity=0 time=0@note_on channel=8 note=68 velocity=100 time=0@note_on channel=10 note=81 velocity=0 time=0@note_on channel=10 note=80 velocity=100 time=0@note_on channel=11 note=71 velocity=0 time=0@note_on channel=11 note=68 velocity=100 time=0@note_on channel=12 note=59 velocity=0 time=0@note_on channel=12 note=56 velocity=100 time=0@note_on channel=13 note=74 velocity=0 time=0@note_on channel=13 note=72 velocity=100 time=0@note_on channel=13 note=72 velocity=0 time=0.07936499999999999@note_on channel=13 note=71 velocity=100 time=0@note_on channel=2 note=71 velocity=0 time=0.07936499999999999@note_on channel=2 note=69 velocity=100 time=0@note_on channel=3 note=71 velocity=0 time=0@note_on channel=3 note=71 velocity=100 time=0@note_on channel=4 note=80 velocity=0 time=0@note_on channel=4 note=78 velocity=100 time=0@note_on channel=6 note=71 velocity=0 time=0@note_on channel=6 note=69 velocity=100 time=0@note_on channel=7 note=68 velocity=0 time=0@note_on channel=7 note=66 velocity=100 time=0@note_on channel=10 note=80 velocity=0 time=0@note_on channel=10 note=78 velocity=100 time=0@note_on channel=13 note=71 velocity=0 time=0@note_on channel=13 note=72 velocity=100 time=0@note_on channel=14 note=68 velocity=0 time=0@note_on channel=14 note=66 velocity=100 time=0@note_on channel=13 note=72 velocity=0 time=0.07936499999999999@note_on channel=13 note=71 velocity=100 time=0@note_on channel=2 note=69 velocity=0 time=0.07936499999999999@note_on channel=2 note=68 velocity=100 time=0@note_on channel=3 note=71 velocity=0 time=0@note_on channel=3 note=71 velocity=100 time=0@note_on channel=4 note=78 velocity=0 time=0@note_on channel=4 note=80 velocity=100 time=0@note_on channel=5 note=83 velocity=0 time=0@note_on channel=5 note=80 velocity=100 time=0@note_on channel=6 note=69 velocity=0 time=0@note_on channel=6 note=71 velocity=100 time=0@note_on channel=7 note=66 velocity=0 time=0@note_on channel=7 note=68 velocity=100 time=0@note_on channel=8 note=68 velocity=0 time=0@note_on channel=8 note=64 velocity=100 time=0@note_on channel=10 note=78 velocity=0 time=0@note_on channel=10 note=76 velocity=100 time=0@note_on channel=11 note=68 velocity=0 time=0@note_on channel=11 note=64 velocity=100 time=0@note_on channel=12 note=56 velocity=0 time=0@note_on channel=12 note=52 velocity=100 time=0@note_on channel=14 note=66 velocity=0 time=0@note_on channel=14 note=68 velocity=100 time=0@note_on channel=3 note=71 velocity=0 time=0.15872999999999998@note_on channel=3 note=71 velocity=100 time=0@note_on channel=6 note=71 velocity=0 time=0@note_on channel=6 note=68 velocity=100 time=0@note_on channel=13 note=71 velocity=0 time=0@note_on channel=13 note=69 velocity=100 time=0@note_on channel=13 note=69 velocity=0 time=0.07936499999999999@note_on channel=13 note=71 velocity=100 time=0@note_on channel=1 note=38 velocity=0 time=0.07936499999999999@note_on channel=1 note=45 velocity=100 time=0@note_on channel=2 note=68 velocity=0 time=0@note_on channel=2 note=69 velocity=100 time=0@note_on channel=3 note=71 velocity=0 time=0@note_on channel=3 note=69 velocity=100 time=0@note_on channel=4 note=80 velocity=0 time=0@note_on channel=4 note=81 velocity=100 time=0@note_on channel=5 note=80 velocity=0 time=0@note_on channel=5 note=81 velocity=100 time=0@note_on channel=6 note=68 velocity=0 time=0@note_on channel=6 note=69 velocity=100 time=0@note_on channel=7 note=68 velocity=0 time=0@note_on channel=7 note=69 velocity=100 time=0@note_on channel=8 note=64 velocity=0 time=0@note_on channel=8 note=69 velocity=100 time=0@note_on channel=10 note=76 velocity=0 time=0@note_on channel=10 note=81 velocity=100 time=0@note_on channel=11 note=64 velocity=0 time=0@note_on channel=11 note=69 velocity=100 time=0@note_on channel=12 note=52 velocity=0 time=0@note_on channel=12 note=57 velocity=100 time=0@note_on channel=13 note=71 velocity=0 time=0@note_on channel=13 note=69 velocity=100 time=0@note_on channel=14 note=68 velocity=0 time=0@note_on channel=14 note=69 velocity=100 time=0@note_on channel=5 note=81 velocity=0 time=0.07936499999999999@note_on channel=5 note=80 velocity=100 time=0@note_on channel=5 note=80 velocity=0 time=0.07936499999999999@note_on channel=5 note=81 velocity=100 time=0@note_on channel=2 note=69 velocity=0 time=0.79365@note_on channel=2 note=69 velocity=100 time=0@note_on channel=3 note=69 velocity=0 time=0@note_on channel=3 note=69 velocity=100 time=0@note_on channel=4 note=81 velocity=0 time=0@note_on channel=4 note=81 velocity=100 time=0@note_on channel=5 note=81 velocity=0 time=0@note_on channel=5 note=81 velocity=100 time=0@note_on channel=6 note=69 velocity=0 time=0@note_on channel=6 note=69 velocity=100 time=0@note_on channel=7 note=69 velocity=0 time=0@note_on channel=7 note=69 velocity=100 time=0@note_on channel=8 note=69 velocity=0 time=0@note_on channel=8 note=69 velocity=100 time=0@note_on channel=10 note=81 velocity=0 time=0@note_on channel=10 note=81 velocity=100 time=0@note_on channel=11 note=69 velocity=0 time=0@note_on channel=11 note=69 velocity=100 time=0@note_on channel=12 note=57 velocity=0 time=0@note_on channel=12 note=57 velocity=100 time=0@note_on channel=13 note=69 velocity=0 time=0@note_on channel=13 note=69 velocity=100 time=0@note_on channel=14 note=69 velocity=0 time=0@note_on channel=14 note=69 velocity=100 time=0@note_on channel=10 note=81 velocity=0 time=0.07936499999999999@note_on channel=10 note=80 velocity=100 time=0@note_on channel=10 note=80 velocity=0 time=0.07936499999999999@note_on channel=10 note=81 velocity=100 time=0@note_on channel=1 note=45 velocity=0 time=0.79365@note_on channel=1 note=48 velocity=100 time=0@note_on channel=2 note=69 velocity=0 time=0@note_on channel=3 note=69 velocity=0 time=0@note_on channel=3 note=72 velocity=100 time=0@note_on channel=4 note=81 velocity=0 time=0@note_on channel=4 note=72 velocity=100 time=0@note_on channel=5 note=81 velocity=0 time=0@note_on channel=5 note=84 velocity=100 time=0@note_on channel=6 note=69 velocity=0 time=0@note_on channel=6 note=69 velocity=100 time=0@note_on channel=7 note=69 velocity=0 time=0@note_on channel=7 note=72 velocity=100 time=0@note_on channel=8 note=69 velocity=0 time=0@note_on channel=8 note=69 velocity=100 time=0@note_on channel=10 note=81 velocity=0 time=0@note_on channel=10 note=84 velocity=100 time=0@note_on channel=11 note=69 velocity=0 time=0@note_on channel=11 note=69 velocity=100 time=0@note_on channel=12 note=57 velocity=0 time=0@note_on channel=12 note=67 velocity=100 time=0@note_on channel=13 note=69 velocity=0 time=0@note_on channel=13 note=76 velocity=100 time=0@note_on channel=14 note=69 velocity=0 time=0@note_on channel=14 note=79 velocity=100 time=0@note_on channel=4 note=72 velocity=0 time=0.15872999999999998@note_on channel=4 note=76 velocity=100 time=0@note_on channel=6 note=69 velocity=0 time=0@note_on channel=6 note=71 velocity=100 time=0@note_on channel=7 note=72 velocity=0 time=0@note_on channel=7 note=71 velocity=100 time=0@note_on channel=8 note=69 velocity=0 time=0@note_on channel=8 note=71 velocity=100 time=0@note_on channel=4 note=76 velocity=0 time=0.15872999999999998@note_on channel=4 note=76 velocity=100 time=0@note_on channel=5 note=84 velocity=0 time=0@note_on channel=5 note=84 velocity=100 time=0@note_on channel=6 note=71 velocity=0 time=0@note_on channel=6 note=72 velocity=100 time=0@note_on channel=7 note=71 velocity=0 time=0@note_on channel=7 note=72 velocity=100 time=0@note_on channel=8 note=71 velocity=0 time=0@note_on channel=8 note=72 velocity=100 time=0@note_on channel=10 note=84 velocity=0 time=0@note_on channel=10 note=81 velocity=100 time=0@note_on channel=11 note=69 velocity=0 time=0@note_on channel=11 note=72 velocity=100 time=0@note_on channel=12 note=67 velocity=0 time=0@note_on channel=12 note=60 velocity=100 time=0@note_on channel=13 note=76 velocity=0 time=0@note_on channel=13 note=72 velocity=100 time=0@note_on channel=4 note=76 velocity=0 time=0.15872999999999998@note_on channel=4 note=76 velocity=100 time=0@note_on channel=7 note=72 velocity=0 time=0@note_on channel=7 note=74 velocity=100 time=0@note_on channel=8 note=72 velocity=0 time=0@note_on channel=8 note=74 velocity=100 time=0@note_on channel=3 note=72 velocity=0 time=0.15872999999999998@note_on channel=3 note=74 velocity=100 time=0@note_on channel=4 note=76 velocity=0 time=0@note_on channel=4 note=76 velocity=100 time=0@note_on channel=5 note=84 velocity=0 time=0@note_on channel=5 note=84 velocity=100 time=0@note_on channel=6 note=72 velocity=0 time=0@note_on channel=6 note=69 velocity=100 time=0@note_on channel=7 note=74 velocity=0 time=0@note_on channel=7 note=76 velocity=100 time=0@note_on channel=8 note=74 velocity=0 time=0@note_on channel=8 note=76 velocity=100 time=0@note_on channel=10 note=81 velocity=0 time=0@note_on channel=10 note=83 velocity=100 time=0@note_on channel=11 note=72 velocity=0 time=0@note_on channel=11 note=69 velocity=100 time=0@note_on channel=12 note=60 velocity=0 time=0@note_on channel=12 note=69 velocity=100 time=0@note_on channel=13 note=72 velocity=0 time=0@note_on channel=13 note=69 velocity=100 time=0@note_on channel=14 note=79 velocity=0 time=0@note_on channel=14 note=79 velocity=100 time=0@note_on channel=4 note=76 velocity=0 time=0.15872999999999998@note_on channel=4 note=76 velocity=100 time=0@note_on channel=7 note=76 velocity=0 time=0@note_on channel=7 note=74 velocity=100 time=0@note_on channel=8 note=76 velocity=0 time=0@note_on channel=8 note=69 velocity=100 time=0@note_on channel=1 note=48 velocity=0 time=0.15872999999999998@note_on channel=1 note=40 velocity=100 time=0@note_on channel=3 note=74 velocity=0 time=0@note_on channel=3 note=76 velocity=100 time=0@note_on channel=4 note=76 velocity=0 time=0@note_on channel=4 note=72 velocity=100 time=0@note_on channel=5 note=84 velocity=0 time=0@note_on channel=5 note=72 velocity=100 time=0@note_on channel=6 note=69 velocity=0 time=0@note_on channel=6 note=72 velocity=100 time=0@note_on channel=7 note=74 velocity=0 time=0@note_on channel=7 note=72 velocity=100 time=0@note_on channel=8 note=69 velocity=0 time=0@note_on channel=8 note=81 velocity=100 time=0@note_on channel=10 note=83 velocity=0 time=0@note_on channel=10 note=84 velocity=100 time=0@note_on channel=11 note=69 velocity=0 time=0@note_on channel=11 note=76 velocity=100 time=0@note_on channel=12 note=69 velocity=0 time=0@note_on channel=12 note=69 velocity=100 time=0@note_on channel=13 note=69 velocity=0 time=0@note_on channel=13 note=76 velocity=100 time=0@note_on channel=14 note=79 velocity=0 time=0@note_on channel=14 note=79 velocity=100 time=0@note_on channel=12 note=69 velocity=0 time=0.07936499999999999@note_on channel=12 note=67 velocity=100 time=0@note_on channel=4 note=72 velocity=0 time=0.07936499999999999@note_on channel=4 note=76 velocity=100 time=0@note_on channel=6 note=72 velocity=0 time=0@note_on channel=6 note=74 velocity=100 time=0@note_on channel=7 note=72 velocity=0 time=0@note_on channel=7 note=71 velocity=100 time=0@note_on channel=8 note=81 velocity=0 time=0@note_on channel=8 note=80 velocity=100 time=0@note_on channel=11 note=76 velocity=0 time=0@note_on channel=11 note=74 velocity=100 time=0@note_on channel=12 note=67 velocity=0 time=0@note_on channel=12 note=69 velocity=100 time=0@note_on channel=12 note=69 velocity=0 time=0.07936499999999999@note_on channel=12 note=67 velocity=100 time=0@note_on channel=4 note=76 velocity=0 time=0.07936499999999999@note_on channel=4 note=76 velocity=100 time=0@note_on channel=5 note=72 velocity=0 time=0@note_on channel=5 note=72 velocity=100 time=0@note_on channel=6 note=74 velocity=0 time=0@note_on channel=6 note=76 velocity=100 time=0@note_on channel=7 note=71 velocity=0 time=0@note_on channel=7 note=72 velocity=100 time=0@note_on channel=8 note=80 velocity=0 time=0@note_on channel=8 note=81 velocity=100 time=0@note_on channel=10 note=84 velocity=0 time=0@note_on channel=10 note=86 velocity=100 time=0@note_on channel=11 note=74 velocity=0 time=0@note_on channel=11 note=72 velocity=100 time=0@note_on channel=13 note=76 velocity=0 time=0@note_on channel=13 note=72 velocity=100 time=0@note_on channel=14 note=79 velocity=0 time=0@note_on channel=14 note=77 velocity=100 time=0@note_on channel=4 note=76 velocity=0 time=0.15872999999999998@note_on channel=4 note=76 velocity=100 time=0@note_on channel=7 note=72 velocity=0 time=0@note_on channel=7 note=74 velocity=100 time=0@note_on channel=8 note=81 velocity=0 time=0@note_on channel=8 note=83 velocity=100 time=0@note_on channel=11 note=72 velocity=0 time=0@note_on channel=11 note=71 velocity=100 time=0@note_on channel=12 note=67 velocity=0 time=0@note_on channel=12 note=65 velocity=100 time=0@note_on channel=3 note=76 velocity=0 time=0.15872999999999998@note_on channel=3 note=76 velocity=100 time=0@note_on channel=4 note=76 velocity=0 time=0@note_on channel=4 note=76 velocity=100 time=0@note_on channel=5 note=72 velocity=0 time=0@note_on channel=5 note=72 velocity=100 time=0@note_on channel=6 note=76 velocity=0 time=0@note_on channel=6 note=69 velocity=100 time=0@note_on channel=7 note=74 velocity=0 time=0@note_on channel=7 note=76 velocity=100 time=0@note_on channel=8 note=83 velocity=0 time=0@note_on channel=8 note=84 velocity=100 time=0@note_on channel=10 note=86 velocity=0 time=0@note_on channel=10 note=88 velocity=100 time=0@note_on channel=11 note=71 velocity=0 time=0@note_on channel=11 note=69 velocity=100 time=0@note_on channel=12 note=65 velocity=0 time=0@note_on channel=12 note=64 velocity=100 time=0@note_on channel=13 note=72 velocity=0 time=0@note_on channel=13 note=69 velocity=100 time=0@note_on channel=14 note=77 velocity=0 time=0@note_on channel=14 note=76 velocity=100 time=0@note_on channel=4 note=76 velocity=0 time=0.15872999999999998@note_on channel=4 note=76 velocity=100 time=0@note_on channel=7 note=76 velocity=0 time=0@note_on channel=7 note=74 velocity=100 time=0@note_on channel=8 note=84 velocity=0 time=0@note_on channel=8 note=81 velocity=100 time=0@note_on channel=1 note=40 velocity=0 time=0.15872999999999998@note_on channel=1 note=50 velocity=100 time=0@note_on channel=3 note=76 velocity=0 time=0@note_on channel=3 note=74 velocity=100 time=0@note_on channel=4 note=76 velocity=0 time=0@note_on channel=4 note=71 velocity=100 time=0@note_on channel=5 note=72 velocity=0 time=0@note_on channel=5 note=79 velocity=100 time=0@note_on channel=6 note=69 velocity=0 time=0@note_on channel=6 note=67 velocity=100 time=0@note_on channel=7 note=74 velocity=0 time=0@note_on channel=7 note=71 velocity=100 time=0@note_on channel=8 note=81 velocity=0 time=0@note_on channel=8 note=84 velocity=100 time=0@note_on channel=10 note=88 velocity=0 time=0@note_on channel=10 note=83 velocity=100 time=0@note_on channel=11 note=69 velocity=0 time=0@note_on channel=11 note=67 velocity=100 time=0@note_on channel=12 note=64 velocity=0 time=0@note_on channel=12 note=62 velocity=100 time=0@note_on channel=13 note=69 velocity=0 time=0@note_on channel=13 note=74 velocity=100 time=0@note_on channel=14 note=76 velocity=0 time=0@note_on channel=14 note=74 velocity=100 time=0@note_on channel=8 note=84 velocity=0 time=0.07936499999999999@note_on channel=8 note=83 velocity=100 time=0@note_on channel=4 note=71 velocity=0 time=0.07936499999999999@note_on channel=4 note=74 velocity=100 time=0@note_on channel=6 note=67 velocity=0 time=0@note_on channel=6 note=69 velocity=100 time=0@note_on channel=7 note=71 velocity=0 time=0@note_on channel=7 note=69 velocity=100 time=0@note_on channel=8 note=83 velocity=0 time=0@note_on channel=8 note=84 velocity=100 time=0@note_on channel=8 note=84 velocity=0 time=0.07936499999999999@note_on channel=8 note=83 velocity=100 time=0@note_on channel=4 note=74 velocity=0 time=0.07936499999999999@note_on channel=4 note=74 velocity=100 time=0@note_on channel=5 note=79 velocity=0 time=0@note_on channel=5 note=79 velocity=100 time=0@note_on channel=6 note=69 velocity=0 time=0@note_on channel=6 note=71 velocity=100 time=0@note_on channel=7 note=69 velocity=0 time=0@note_on channel=7 note=71 velocity=100 time=0@note_on channel=10 note=83 velocity=0 time=0@note_on channel=10 note=79 velocity=100 time=0@note_on channel=11 note=67 velocity=0 time=0@note_on channel=11 note=71 velocity=100 time=0@note_on channel=12 note=62 velocity=0 time=0@note_on channel=12 note=59 velocity=100 time=0@note_on channel=13 note=74 velocity=0 time=0@note_on channel=13 note=71 velocity=100 time=0@note_on channel=4 note=74 velocity=0 time=0.15872999999999998@note_on channel=4 note=74 velocity=100 time=0@note_on channel=7 note=71 velocity=0 time=0@note_on channel=7 note=72 velocity=100 time=0@note_on channel=3 note=74 velocity=0 time=0.15872999999999998@note_on channel=3 note=71 velocity=100 time=0@note_on channel=4 note=74 velocity=0 time=0@note_on channel=4 note=74 velocity=100 time=0@note_on channel=5 note=79 velocity=0 time=0@note_on channel=5 note=79 velocity=100 time=0@note_on channel=6 note=71 velocity=0 time=0@note_on channel=6 note=67 velocity=100 time=0@note_on channel=7 note=72 velocity=0 time=0@note_on channel=7 note=74 velocity=100 time=0@note_on channel=8 note=83 velocity=0 time=0@note_on channel=8 note=79 velocity=100 time=0@note_on channel=10 note=79 velocity=0 time=0@note_on channel=10 note=81 velocity=100 time=0@note_on channel=11 note=71 velocity=0 time=0@note_on channel=11 note=67 velocity=100 time=0@note_on channel=12 note=59 velocity=0 time=0@note_on channel=12 note=55 velocity=100 time=0@note_on channel=13 note=71 velocity=0 time=0@note_on channel=13 note=67 velocity=100 time=0@note_on channel=14 note=74 velocity=0 time=0@note_on channel=14 note=74 velocity=100 time=0@note_on channel=4 note=74 velocity=0 time=0.15872999999999998@note_on channel=4 note=74 velocity=100 time=0@note_on channel=7 note=74 velocity=0 time=0@note_on channel=7 note=72 velocity=100 time=0@note_on channel=1 note=50 velocity=0 time=0.15872999999999998@note_on channel=1 note=43 velocity=100 time=0@note_on channel=3 note=71 velocity=0 time=0@note_on channel=3 note=67 velocity=100 time=0@note_on channel=4 note=74 velocity=0 time=0@note_on channel=4 note=71 velocity=100 time=0@note_on channel=5 note=79 velocity=0 time=0@note_on channel=5 note=67 velocity=100 time=0@note_on channel=6 note=67 velocity=0 time=0@note_on channel=6 note=71 velocity=100 time=0@note_on channel=7 note=72 velocity=0 time=0@note_on channel=7 note=71 velocity=100 time=0@note_on channel=8 note=79 velocity=0 time=0@note_on channel=8 note=79 velocity=100 time=0@note_on channel=10 note=81 velocity=0 time=0@note_on channel=10 note=83 velocity=100 time=0@note_on channel=11 note=67 velocity=0 time=0@note_on channel=11 note=74 velocity=100 time=0@note_on channel=12 note=55 velocity=0 time=0@note_on channel=12 note=62 velocity=100 time=0@note_on channel=13 note=67 velocity=0 time=0@note_on channel=13 note=74 velocity=100 time=0@note_on channel=14 note=74 velocity=0 time=0@note_on channel=14 note=71 velocity=100 time=0@note_on channel=4 note=71 velocity=0 time=0.15872999999999998@note_on channel=4 note=74 velocity=100 time=0@note_on channel=6 note=71 velocity=0 time=0@note_on channel=6 note=72 velocity=100 time=0@note_on channel=7 note=71 velocity=0 time=0@note_on channel=7 note=69 velocity=100 time=0@note_on channel=11 note=74 velocity=0 time=0@note_on channel=11 note=72 velocity=100 time=0@note_on channel=4 note=74 velocity=0 time=0.15872999999999998@note_on channel=4 note=74 velocity=100 time=0@note_on channel=6 note=72 velocity=0 time=0@note_on channel=6 note=74 velocity=100 time=0@note_on channel=7 note=69 velocity=0 time=0@note_on channel=7 note=71 velocity=100 time=0@note_on channel=10 note=83 velocity=0 time=0@note_on channel=10 note=84 velocity=100 time=0@note_on channel=11 note=72 velocity=0 time=0@note_on channel=11 note=71 velocity=100 time=0@note_on channel=12 note=62 velocity=0 time=0@note_on channel=12 note=50 velocity=100 time=0@note_on channel=13 note=74 velocity=0 time=0@note_on channel=13 note=71 velocity=100 time=0@note_on channel=14 note=71 velocity=0 time=0@note_on channel=14 note=72 velocity=100 time=0@note_on channel=4 note=74 velocity=0 time=0.15872999999999998@note_on channel=4 note=74 velocity=100 time=0@note_on channel=5 note=67 velocity=0 time=0@note_on channel=5 note=69 velocity=100 time=0@note_on channel=7 note=71 velocity=0 time=0@note_on channel=7 note=72 velocity=100 time=0@note_on channel=11 note=71 velocity=0 time=0@note_on channel=11 note=69 velocity=100 time=0@note_on channel=4 note=74 velocity=0 time=0.15872999999999998@note_on channel=4 note=74 velocity=100 time=0@note_on channel=5 note=69 velocity=0 time=0@note_on channel=5 note=71 velocity=100 time=0@note_on channel=6 note=74 velocity=0 time=0@note_on channel=6 note=67 velocity=100 time=0@note_on channel=7 note=72 velocity=0 time=0@note_on channel=7 note=74 velocity=100 time=0@note_on channel=10 note=84 velocity=0 time=0@note_on channel=10 note=86 velocity=100 time=0@note_on channel=11 note=69 velocity=0 time=0@note_on channel=11 note=67 velocity=100 time=0@note_on channel=12 note=50 velocity=0 time=0@note_on channel=12 note=65 velocity=100 time=0@note_on channel=13 note=71 velocity=0 time=0@note_on channel=13 note=67 velocity=100 time=0@note_on channel=14 note=72 velocity=0 time=0@note_on channel=14 note=74 velocity=100 time=0@note_on channel=4 note=74 velocity=0 time=0.15872999999999998@note_on channel=4 note=74 velocity=100 time=0@note_on channel=7 note=74 velocity=0 time=0@note_on channel=7 note=72 velocity=100 time=0@note_on channel=12 note=65 velocity=0 time=0@note_on channel=12 note=67 velocity=100 time=0@note_on channel=1 note=43 velocity=0 time=0.15872999999999998@note_on channel=1 note=45 velocity=100 time=0@note_on channel=3 note=67 velocity=0 time=0@note_on channel=3 note=69 velocity=100 time=0@note_on channel=4 note=74 velocity=0 time=0@note_on channel=4 note=69 velocity=100 time=0@note_on channel=5 note=71 velocity=0 time=0@note_on channel=5 note=81 velocity=100 time=0@note_on channel=6 note=67 velocity=0 time=0@note_on channel=6 note=69 velocity=100 time=0@note_on channel=7 note=72 velocity=0 time=0@note_on channel=7 note=72 velocity=100 time=0@note_on channel=8 note=79 velocity=0 time=0@note_on channel=8 note=69 velocity=100 time=0@note_on channel=10 note=86 velocity=0 time=0@note_on channel=10 note=84 velocity=100 time=0@note_on channel=11 note=67 velocity=0 time=0@note_on channel=11 note=69 velocity=100 time=0@note_on channel=12 note=67 velocity=0 time=0@note_on channel=12 note=69 velocity=100 time=0@note_on channel=13 note=67 velocity=0 time=0@note_on channel=13 note=76 velocity=100 time=0@note_on channel=14 note=74 velocity=0 time=0@note_on channel=14 note=72 velocity=100 time=0@note_on channel=4 note=69 velocity=0 time=0.15872999999999998@note_on channel=4 note=72 velocity=100 time=0@note_on channel=6 note=69 velocity=0 time=0@note_on channel=6 note=71 velocity=100 time=0@note_on channel=7 note=72 velocity=0 time=0@note_on channel=7 note=71 velocity=100 time=0@note_on channel=8 note=69 velocity=0 time=0@note_on channel=8 note=71 velocity=100 time=0@note_on channel=4 note=72 velocity=0 time=0.15872999999999998@note_on channel=4 note=72 velocity=100 time=0@note_on channel=5 note=81 velocity=0 time=0@note_on channel=5 note=81 velocity=100 time=0@note_on channel=6 note=71 velocity=0 time=0@note_on channel=6 note=72 velocity=100 time=0@note_on channel=7 note=71 velocity=0 time=0@note_on channel=7 note=72 velocity=100 time=0@note_on channel=8 note=71 velocity=0 time=0@note_on channel=8 note=72 velocity=100 time=0@note_on channel=10 note=84 velocity=0 time=0@note_on channel=10 note=81 velocity=100 time=0@note_on channel=11 note=69 velocity=0 time=0@note_on channel=11 note=72 velocity=100 time=0@note_on channel=12 note=69 velocity=0 time=0@note_on channel=12 note=57 velocity=100 time=0@note_on channel=13 note=76 velocity=0 time=0@note_on channel=13 note=72 velocity=100 time=0@note_on channel=3 note=69 velocity=0 time=0.15872999999999998@note_on channel=3 note=71 velocity=100 time=0@note_on channel=4 note=72 velocity=0 time=0@note_on channel=4 note=72 velocity=100 time=0@note_on channel=7 note=72 velocity=0 time=0@note_on channel=7 note=74 velocity=100 time=0@note_on channel=8 note=72 velocity=0 time=0@note_on channel=8 note=74 velocity=100 time=0@note_on channel=3 note=71 velocity=0 time=0.15872999999999998@note_on channel=3 note=72 velocity=100 time=0@note_on channel=4 note=72 velocity=0 time=0@note_on channel=4 note=72 velocity=100 time=0@note_on channel=5 note=81 velocity=0 time=0@note_on channel=5 note=81 velocity=100 time=0@note_on channel=6 note=72 velocity=0 time=0@note_on channel=6 note=69 velocity=100 time=0@note_on channel=7 note=74 velocity=0 time=0@note_on channel=7 note=72 velocity=100 time=0@note_on channel=8 note=74 velocity=0 time=0@note_on channel=8 note=76 velocity=100 time=0@note_on channel=10 note=81 velocity=0 time=0@note_on channel=10 note=83 velocity=100 time=0@note_on channel=11 note=72 velocity=0 time=0@note_on channel=11 note=69 velocity=100 time=0@note_on channel=12 note=57 velocity=0 time=0@note_on channel=12 note=71 velocity=100 time=0@note_on channel=13 note=72 velocity=0 time=0@note_on channel=13 note=69 velocity=100 time=0@note_on channel=14 note=72 velocity=0 time=0@note_on channel=14 note=72 velocity=100 time=0@note_on channel=4 note=72 velocity=0 time=0.15872999999999998@note_on channel=4 note=72 velocity=100 time=0@note_on channel=7 note=72 velocity=0 time=0@note_on channel=7 note=71 velocity=100 time=0@note_on channel=8 note=76 velocity=0 time=0@note_on channel=8 note=69 velocity=100 time=0@note_on channel=1 note=45 velocity=0 time=0.15872999999999998@note_on channel=1 note=38 velocity=100 time=0@note_on channel=3 note=72 velocity=0 time=0@note_on channel=3 note=74 velocity=100 time=0@note_on channel=4 note=72 velocity=0 time=0@note_on channel=4 note=69 velocity=100 time=0@note_on channel=5 note=81 velocity=0 time=0@note_on channel=5 note=69 velocity=100 time=0@note_on channel=6 note=69 velocity=0 time=0@note_on channel=6 note=72 velocity=100 time=0@note_on channel=7 note=71 velocity=0 time=0@note_on channel=7 note=69 velocity=100 time=0@note_on channel=8 note=69 velocity=0 time=0@note_on channel=8 note=81 velocity=100 time=0@note_on channel=10 note=83 velocity=0 time=0@note_on channel=10 note=84 velocity=100 time=0@note_on channel=11 note=69 velocity=0 time=0@note_on channel=11 note=76 velocity=100 time=0@note_on channel=12 note=71 velocity=0 time=0@note_on channel=12 note=72 velocity=100 time=0@note_on channel=13 note=69 velocity=0 time=0@note_on channel=13 note=76 velocity=100 time=0@note_on channel=14 note=72 velocity=0 time=0@note_on channel=14 note=69 velocity=100 time=0@note_on channel=4 note=69 velocity=0 time=0.15872999999999998@note_on channel=4 note=72 velocity=100 time=0@note_on channel=6 note=72 velocity=0 time=0@note_on channel=6 note=74 velocity=100 time=0@note_on channel=7 note=69 velocity=0 time=0@note_on channel=7 note=68 velocity=100 time=0@note_on channel=8 note=81 velocity=0 time=0@note_on channel=8 note=80 velocity=100 time=0@note_on channel=11 note=76 velocity=0 time=0@note_on channel=11 note=74 velocity=100 time=0@note_on channel=3 note=74 velocity=0 time=0.15872999999999998@note_on channel=3 note=76 velocity=100 time=0@note_on channel=4 note=72 velocity=0 time=0@note_on channel=4 note=72 velocity=100 time=0@note_on channel=6 note=74 velocity=0 time=0@note_on channel=6 note=76 velocity=100 time=0@note_on channel=7 note=68 velocity=0 time=0@note_on channel=7 note=69 velocity=100 time=0@note_on channel=8 note=80 velocity=0 time=0@note_on channel=8 note=81 velocity=100 time=0@note_on channel=10 note=84 velocity=0 time=0@note_on channel=10 note=86 velocity=100 time=0@note_on channel=11 note=74 velocity=0 time=0@note_on channel=11 note=72 velocity=100 time=0@note_on channel=12 note=72 velocity=0 time=0@note_on channel=12 note=71 velocity=100 time=0@note_on channel=13 note=76 velocity=0 time=0@note_on channel=13 note=72 velocity=100 time=0@note_on channel=14 note=69 velocity=0 time=0@note_on channel=14 note=71 velocity=100 time=0@note_on channel=4 note=72 velocity=0 time=0.15872999999999998@note_on channel=4 note=72 velocity=100 time=0@note_on channel=5 note=69 velocity=0 time=0@note_on channel=5 note=71 velocity=100 time=0@note_on channel=7 note=69 velocity=0 time=0@note_on channel=7 note=71 velocity=100 time=0@note_on channel=8 note=81 velocity=0 time=0@note_on channel=8 note=83 velocity=100 time=0@note_on channel=11 note=72 velocity=0 time=0@note_on channel=11 note=71 velocity=100 time=0@note_on channel=3 note=76 velocity=0 time=0.15872999999999998@note_on channel=3 note=72 velocity=100 time=0@note_on channel=4 note=72 velocity=0 time=0@note_on channel=4 note=72 velocity=100 time=0@note_on channel=5 note=71 velocity=0 time=0@note_on channel=5 note=72 velocity=100 time=0@note_on channel=6 note=76 velocity=0 time=0@note_on channel=6 note=69 velocity=100 time=0@note_on channel=7 note=71 velocity=0 time=0@note_on channel=7 note=72 velocity=100 time=0@note_on channel=8 note=83 velocity=0 time=0@note_on channel=8 note=84 velocity=100 time=0@note_on channel=10 note=86 velocity=0 time=0@note_on channel=10 note=88 velocity=100 time=0@note_on channel=11 note=71 velocity=0 time=0@note_on channel=11 note=69 velocity=100 time=0@note_on channel=12 note=71 velocity=0 time=0@note_on channel=12 note=69 velocity=100 time=0@note_on channel=13 note=72 velocity=0 time=0@note_on channel=13 note=69 velocity=100 time=0@note_on channel=14 note=71 velocity=0 time=0@note_on channel=14 note=72 velocity=100 time=0@note_on channel=4 note=72 velocity=0 time=0.15872999999999998@note_on channel=4 note=72 velocity=100 time=0@note_on channel=5 note=72 velocity=0 time=0@note_on channel=5 note=74 velocity=100 time=0@note_on channel=7 note=72 velocity=0 time=0@note_on channel=7 note=69 velocity=100 time=0@note_on channel=8 note=84 velocity=0 time=0@note_on channel=8 note=81 velocity=100 time=0@note_on channel=1 note=38 velocity=0 time=0.15872999999999998@note_on channel=1 note=47 velocity=100 time=0@note_on channel=3 note=72 velocity=0 time=0@note_on channel=3 note=71 velocity=100 time=0@note_on channel=4 note=72 velocity=0 time=0@note_on channel=4 note=68 velocity=100 time=0@note_on channel=5 note=74 velocity=0 time=0@note_on channel=5 note=76 velocity=100 time=0@note_on channel=6 note=69 velocity=0 time=0@note_on channel=6 note=64 velocity=100 time=0@note_on channel=7 note=69 velocity=0 time=0@note_on channel=7 note=71 velocity=100 time=0@note_on channel=8 note=81 velocity=0 time=0@note_on channel=8 note=81 velocity=100 time=0@note_on channel=10 note=88 velocity=0 time=0@note_on channel=10 note=83 velocity=100 time=0@note_on channel=11 note=69 velocity=0 time=0@note_on channel=11 note=64 velocity=100 time=0@note_on channel=12 note=69 velocity=0 time=0@note_on channel=12 note=68 velocity=100 time=0@note_on channel=13 note=69 velocity=0 time=0@note_on channel=13 note=71 velocity=100 time=0@note_on channel=14 note=72 velocity=0 time=0@note_on channel=14 note=71 velocity=100 time=0@note_on channel=8 note=81 velocity=0 time=0.07936499999999999@note_on channel=8 note=80 velocity=100 time=0@note_on channel=4 note=68 velocity=0 time=0.07936499999999999@note_on channel=4 note=71 velocity=100 time=0@note_on channel=6 note=64 velocity=0 time=0@note_on channel=6 note=66 velocity=100 time=0@note_on channel=7 note=71 velocity=0 time=0@note_on channel=7 note=69 velocity=100 time=0@note_on channel=8 note=80 velocity=0 time=0@note_on channel=8 note=81 velocity=100 time=0@note_on channel=8 note=81 velocity=0 time=0.07936499999999999@note_on channel=8 note=80 velocity=100 time=0@note_on channel=4 note=71 velocity=0 time=0.07936499999999999@note_on channel=4 note=71 velocity=100 time=0@note_on channel=5 note=76 velocity=0 time=0@note_on channel=5 note=76 velocity=100 time=0@note_on channel=6 note=66 velocity=0 time=0@note_on channel=6 note=68 velocity=100 time=0@note_on channel=7 note=69 velocity=0 time=0@note_on channel=7 note=71 velocity=100 time=0@note_on channel=11 note=64 velocity=0 time=0@note_on channel=11 note=68 velocity=100 time=0@note_on channel=12 note=68 velocity=0 time=0@note_on channel=12 note=64 velocity=100 time=0@note_on channel=13 note=71 velocity=0 time=0@note_on channel=13 note=68 velocity=100 time=0@note_on channel=4 note=71 velocity=0 time=0.15872999999999998@note_on channel=4 note=71 velocity=100 time=0@note_on channel=7 note=71 velocity=0 time=0@note_on channel=7 note=69 velocity=100 time=0@note_on channel=3 note=71 velocity=0 time=0.15872999999999998@note_on channel=3 note=68 velocity=100 time=0@note_on channel=4 note=71 velocity=0 time=0@note_on channel=4 note=71 velocity=100 time=0@note_on channel=5 note=76 velocity=0 time=0@note_on channel=5 note=76 velocity=100 time=0@note_on channel=6 note=68 velocity=0 time=0@note_on channel=6 note=64 velocity=100 time=0@note_on channel=7 note=69 velocity=0 time=0@note_on channel=7 note=68 velocity=100 time=0@note_on channel=8 note=80 velocity=0 time=0@note_on channel=8 note=76 velocity=100 time=0@note_on channel=10 note=83 velocity=0 time=0@note_on channel=10 note=80 velocity=100 time=0@note_on channel=11 note=68 velocity=0 time=0@note_on channel=11 note=64 velocity=100 time=0@note_on channel=12 note=64 velocity=0 time=0@note_on channel=12 note=59 velocity=100 time=0@note_on channel=13 note=68 velocity=0 time=0@note_on channel=13 note=64 velocity=100 time=0@note_on channel=14 note=71 velocity=0 time=0@note_on channel=14 note=71 velocity=100 time=0@note_on channel=4 note=71 velocity=0 time=0.15872999999999998@note_on channel=4 note=71 velocity=100 time=0@note_on channel=7 note=68 velocity=0 time=0@note_on channel=7 note=66 velocity=100 time=0@note_on channel=1 note=47 velocity=0 time=0.15872999999999998@note_on channel=1 note=40 velocity=100 time=0@note_on channel=3 note=68 velocity=0 time=0@note_on channel=3 note=64 velocity=100 time=0@note_on channel=4 note=71 velocity=0 time=0@note_on channel=4 note=64 velocity=100 time=0@note_on channel=5 note=76 velocity=0 time=0@note_on channel=5 note=68 velocity=100 time=0@note_on channel=6 note=64 velocity=0 time=0@note_on channel=6 note=68 velocity=100 time=0@note_on channel=7 note=66 velocity=0 time=0@note_on channel=7 note=64 velocity=100 time=0@note_on channel=8 note=76 velocity=0 time=0@note_on channel=8 note=76 velocity=100 time=0@note_on channel=10 note=80 velocity=0 time=0@note_on channel=10 note=76 velocity=100 time=0@note_on channel=11 note=64 velocity=0 time=0@note_on channel=11 note=71 velocity=100 time=0@note_on channel=12 note=59 velocity=0 time=0@note_on channel=12 note=64 velocity=100 time=0@note_on channel=13 note=64 velocity=0 time=0@note_on channel=13 note=71 velocity=100 time=0@note_on channel=14 note=71 velocity=0 time=0@note_on channel=14 note=68 velocity=100 time=0@note_on channel=5 note=68 velocity=0 time=0.07936499999999999@note_on channel=5 note=69 velocity=100 time=0@note_on channel=4 note=64 velocity=0 time=0.07936499999999999@note_on channel=4 note=71 velocity=100 time=0@note_on channel=5 note=69 velocity=0 time=0@note_on channel=5 note=68 velocity=100 time=0@note_on channel=6 note=68 velocity=0 time=0@note_on channel=6 note=69 velocity=100 time=0@note_on channel=7 note=64 velocity=0 time=0@note_on channel=7 note=66 velocity=100 time=0@note_on channel=11 note=71 velocity=0 time=0@note_on channel=11 note=69 velocity=100 time=0@note_on channel=4 note=71 velocity=0 time=0.15872999999999998@note_on channel=4 note=71 velocity=100 time=0@note_on channel=5 note=68 velocity=0 time=0@note_on channel=5 note=64 velocity=100 time=0@note_on channel=6 note=69 velocity=0 time=0@note_on channel=6 note=71 velocity=100 time=0@note_on channel=7 note=66 velocity=0 time=0@note_on channel=7 note=68 velocity=100 time=0@note_on channel=11 note=69 velocity=0 time=0@note_on channel=11 note=68 velocity=100 time=0@note_on channel=12 note=64 velocity=0 time=0@note_on channel=12 note=65 velocity=100 time=0@note_on channel=13 note=71 velocity=0 time=0@note_on channel=13 note=68 velocity=100 time=0@note_on channel=14 note=68 velocity=0 time=0@note_on channel=14 note=69 velocity=100 time=0@note_on channel=12 note=65 velocity=0 time=0.07936499999999999@note_on channel=12 note=64 velocity=100 time=0@note_on channel=4 note=71 velocity=0 time=0.07936499999999999@note_on channel=4 note=71 velocity=100 time=0@note_on channel=7 note=68 velocity=0 time=0@note_on channel=7 note=69 velocity=100 time=0@note_on channel=11 note=68 velocity=0 time=0@note_on channel=11 note=66 velocity=100 time=0@note_on channel=12 note=64 velocity=0 time=0@note_on channel=12 note=65 velocity=100 time=0@note_on channel=12 note=65 velocity=0 time=0.07936499999999999@note_on channel=12 note=64 velocity=100 time=0@note_on channel=4 note=71 velocity=0 time=0.07936499999999999@note_on channel=4 note=71 velocity=100 time=0@note_on channel=5 note=64 velocity=0 time=0@note_on channel=5 note=64 velocity=100 time=0@note_on channel=6 note=71 velocity=0 time=0@note_on channel=6 note=64 velocity=100 time=0@note_on channel=7 note=69 velocity=0 time=0@note_on channel=7 note=68 velocity=100 time=0@note_on channel=11 note=66 velocity=0 time=0@note_on channel=11 note=64 velocity=100 time=0@note_on channel=13 note=68 velocity=0 time=0@note_on channel=13 note=64 velocity=100 time=0@note_on channel=14 note=69 velocity=0 time=0@note_on channel=14 note=71 velocity=100 time=0@note_on channel=4 note=71 velocity=0 time=0.15872999999999998@note_on channel=4 note=71 velocity=100 time=0@note_on channel=7 note=68 velocity=0 time=0@note_on channel=7 note=64 velocity=100 time=0@note_on channel=12 note=64 velocity=0 time=0@note_on channel=12 note=65 velocity=100 time=0@note_on channel=1 note=40 velocity=0 time=0.15872999999999998@note_on channel=1 note=48 velocity=100 time=0@note_on channel=3 note=64 velocity=0 time=0@note_on channel=3 note=72 velocity=100 time=0@note_on channel=4 note=71 velocity=0 time=0@note_on channel=4 note=76 velocity=100 time=0@note_on channel=5 note=64 velocity=0 time=0@note_on channel=5 note=84 velocity=100 time=0@note_on channel=6 note=64 velocity=0 time=0@note_on channel=6 note=72 velocity=100 time=0@note_on channel=7 note=64 velocity=0 time=0@note_on channel=7 note=72 velocity=100 time=0@note_on channel=8 note=76 velocity=0 time=0@note_on channel=8 note=72 velocity=100 time=0@note_on channel=10 note=76 velocity=0 time=0@note_on channel=10 note=88 velocity=100 time=0@note_on channel=11 note=64 velocity=0 time=0@note_on channel=11 note=72 velocity=100 time=0@note_on channel=12 note=65 velocity=0 time=0@note_on channel=12 note=67 velocity=100 time=0@note_on channel=13 note=64 velocity=0 time=0@note_on channel=13 note=79 velocity=100 time=0@note_on channel=14 note=71 velocity=0 time=0@note_on channel=14 note=79 velocity=100 time=0@note_on channel=13 note=79 velocity=0 time=0.07936499999999999@note_on channel=13 note=81 velocity=100 time=0@note_on channel=4 note=76 velocity=0 time=0.07936499999999999@note_on channel=4 note=79 velocity=100 time=0@note_on channel=6 note=72 velocity=0 time=0@note_on channel=6 note=74 velocity=100 time=0@note_on channel=7 note=72 velocity=0 time=0@note_on channel=7 note=71 velocity=100 time=0@note_on channel=8 note=72 velocity=0 time=0@note_on channel=8 note=71 velocity=100 time=0@note_on channel=13 note=81 velocity=0 time=0@note_on channel=13 note=79 velocity=100 time=0@note_on channel=4 note=79 velocity=0 time=0.15872999999999998@note_on channel=4 note=79 velocity=100 time=0@note_on channel=5 note=84 velocity=0 time=0@note_on channel=5 note=84 velocity=100 time=0@note_on channel=6 note=74 velocity=0 time=0@note_on channel=6 note=76 velocity=100 time=0@note_on channel=7 note=71 velocity=0 time=0@note_on channel=7 note=72 velocity=100 time=0@note_on channel=8 note=71 velocity=0 time=0@note_on channel=8 note=72 velocity=100 time=0@note_on channel=10 note=88 velocity=0 time=0@note_on channel=10 note=84 velocity=100 time=0@note_on channel=11 note=72 velocity=0 time=0@note_on channel=11 note=76 velocity=100 time=0@note_on channel=12 note=67 velocity=0 time=0@note_on channel=12 note=60 velocity=100 time=0@note_on channel=13 note=79 velocity=0 time=0@note_on channel=13 note=76 velocity=100 time=0@note_on channel=4 note=79 velocity=0 time=0.15872999999999998@note_on channel=4 note=79 velocity=100 time=0@note_on channel=7 note=72 velocity=0 time=0@note_on channel=7 note=74 velocity=100 time=0@note_on channel=8 note=72 velocity=0 time=0@note_on channel=8 note=74 velocity=100 time=0@note_on channel=3 note=72 velocity=0 time=0.15872999999999998@note_on channel=3 note=74 velocity=100 time=0@note_on channel=4 note=79 velocity=0 time=0@note_on channel=4 note=79 velocity=100 time=0@note_on channel=5 note=84 velocity=0 time=0@note_on channel=5 note=84 velocity=100 time=0@note_on channel=6 note=76 velocity=0 time=0@note_on channel=6 note=72 velocity=100 time=0@note_on channel=7 note=74 velocity=0 time=0@note_on channel=7 note=76 velocity=100 time=0@note_on channel=8 note=74 velocity=0 time=0@note_on channel=8 note=76 velocity=100 time=0@note_on channel=10 note=84 velocity=0 time=0@note_on channel=10 note=86 velocity=100 time=0@note_on channel=11 note=76 velocity=0 time=0@note_on channel=11 note=72 velocity=100 time=0@note_on channel=12 note=60 velocity=0 time=0@note_on channel=12 note=69 velocity=100 time=0@note_on channel=13 note=76 velocity=0 time=0@note_on channel=13 note=72 velocity=100 time=0@note_on channel=14 note=79 velocity=0 time=0@note_on channel=14 note=79 velocity=100 time=0@note_on channel=4 note=79 velocity=0 time=0.15872999999999998@note_on channel=4 note=79 velocity=100 time=0@note_on channel=7 note=76 velocity=0 time=0@note_on channel=7 note=74 velocity=100 time=0@note_on channel=8 note=76 velocity=0 time=0@note_on channel=8 note=77 velocity=100 time=0@note_on channel=1 note=48 velocity=0 time=0.15872999999999998@note_on channel=1 note=40 velocity=100 time=0@note_on channel=3 note=74 velocity=0 time=0@note_on channel=3 note=76 velocity=100 time=0@note_on channel=4 note=79 velocity=0 time=0@note_on channel=4 note=72 velocity=100 time=0@note_on channel=5 note=84 velocity=0 time=0@note_on channel=5 note=72 velocity=100 time=0@note_on channel=6 note=72 velocity=0 time=0@note_on channel=6 note=76 velocity=100 time=0@note_on channel=7 note=74 velocity=0 time=0@note_on channel=7 note=72 velocity=100 time=0@note_on channel=8 note=77 velocity=0 time=0@note_on channel=8 note=79 velocity=100 time=0@note_on channel=10 note=86 velocity=0 time=0@note_on channel=10 note=88 velocity=100 time=0@note_on channel=11 note=72 velocity=0 time=0@note_on channel=11 note=79 velocity=100 time=0@note_on channel=12 note=69 velocity=0 time=0@note_on channel=12 note=69 velocity=100 time=0@note_on channel=13 note=72 velocity=0 time=0@note_on channel=13 note=79 velocity=100 time=0@note_on channel=14 note=79 velocity=0 time=0@note_on channel=14 note=79 velocity=100 time=0@note_on channel=12 note=69 velocity=0 time=0.07936499999999999@note_on channel=12 note=67 velocity=100 time=0@note_on channel=13 note=79 velocity=0 time=0@note_on channel=13 note=81 velocity=100 time=0@note_on channel=4 note=72 velocity=0 time=0.07936499999999999@note_on channel=4 note=79 velocity=100 time=0@note_on channel=6 note=76 velocity=0 time=0@note_on channel=6 note=77 velocity=100 time=0@note_on channel=7 note=72 velocity=0 time=0@note_on channel=7 note=71 velocity=100 time=0@note_on channel=8 note=79 velocity=0 time=0@note_on channel=8 note=81 velocity=100 time=0@note_on channel=11 note=79 velocity=0 time=0@note_on channel=11 note=77 velocity=100 time=0@note_on channel=12 note=67 velocity=0 time=0@note_on channel=12 note=69 velocity=100 time=0@note_on channel=13 note=81 velocity=0 time=0@note_on channel=13 note=79 velocity=100 time=0@note_on channel=12 note=69 velocity=0 time=0.07936499999999999@note_on channel=12 note=67 velocity=100 time=0@note_on channel=4 note=79 velocity=0 time=0.07936499999999999@note_on channel=4 note=79 velocity=100 time=0@note_on channel=6 note=77 velocity=0 time=0@note_on channel=6 note=79 velocity=100 time=0@note_on channel=7 note=71 velocity=0 time=0@note_on channel=7 note=72 velocity=100 time=0@note_on channel=8 note=81 velocity=0 time=0@note_on channel=8 note=83 velocity=100 time=0@note_on channel=10 note=88 velocity=0 time=0@note_on channel=10 note=89 velocity=100 time=0@note_on channel=11 note=77 velocity=0 time=0@note_on channel=11 note=76 velocity=100 time=0@note_on channel=13 note=79 velocity=0 time=0@note_on channel=13 note=76 velocity=100 time=0@note_on channel=14 note=79 velocity=0 time=0@note_on channel=14 note=77 velocity=100 time=0@note_on channel=3 note=76 velocity=0 time=0.15872999999999998@note_on channel=3 note=74 velocity=100 time=0@note_on channel=4 note=79 velocity=0 time=0@note_on channel=4 note=79 velocity=100 time=0@note_on channel=5 note=72 velocity=0 time=0@note_on channel=5 note=74 velocity=100 time=0@note_on channel=7 note=72 velocity=0 time=0@note_on channel=7 note=74 velocity=100 time=0@note_on channel=8 note=83 velocity=0 time=0@note_on channel=8 note=79 velocity=100 time=0@note_on channel=11 note=76 velocity=0 time=0@note_on channel=11 note=74 velocity=100 time=0@note_on channel=12 note=67 velocity=0 time=0@note_on channel=12 note=65 velocity=100 time=0@note_on channel=3 note=74 velocity=0 time=0.15872999999999998@note_on channel=3 note=72 velocity=100 time=0@note_on channel=4 note=79 velocity=0 time=0@note_on channel=4 note=79 velocity=100 time=0@note_on channel=5 note=74 velocity=0 time=0@note_on channel=5 note=76 velocity=100 time=0@note_on channel=6 note=79 velocity=0 time=0@note_on channel=6 note=72 velocity=100 time=0@note_on channel=7 note=74 velocity=0 time=0@note_on channel=7 note=76 velocity=100 time=0@note_on channel=8 note=79 velocity=0 time=0@note_on channel=8 note=81 velocity=100 time=0@note_on channel=10 note=89 velocity=0 time=0@note_on channel=10 note=91 velocity=100 time=0@note_on channel=11 note=74 velocity=0 time=0@note_on channel=11 note=72 velocity=100 time=0@note_on channel=12 note=65 velocity=0 time=0@note_on channel=12 note=64 velocity=100 time=0@note_on channel=13 note=76 velocity=0 time=0@note_on channel=13 note=72 velocity=100 time=0@note_on channel=14 note=77 velocity=0 time=0@note_on channel=14 note=76 velocity=100 time=0@note_on channel=4 note=79 velocity=0 time=0.15872999999999998@note_on channel=4 note=79 velocity=100 time=0@note_on channel=5 note=76 velocity=0 time=0@note_on channel=5 note=77 velocity=100 time=0@note_on channel=7 note=76 velocity=0 time=0@note_on channel=7 note=74 velocity=100 time=0@note_on channel=8 note=81 velocity=0 time=0@note_on channel=8 note=83 velocity=100 time=0@note_on channel=1 note=40 velocity=0 time=0.15872999999999998@note_on channel=1 note=50 velocity=100 time=0@note_on channel=3 note=72 velocity=0 time=0@note_on channel=3 note=74 velocity=100 time=0@note_on channel=4 note=79 velocity=0 time=0@note_on channel=4 note=71 velocity=100 time=0@note_on channel=5 note=77 velocity=0 time=0@note_on channel=5 note=79 velocity=100 time=0@note_on channel=6 note=72 velocity=0 time=0@note_on channel=6 note=67 velocity=100 time=0@note_on channel=7 note=74 velocity=0 time=0@note_on channel=7 note=74 velocity=100 time=0@note_on channel=8 note=83 velocity=0 time=0@note_on channel=8 note=81 velocity=100 time=0@note_on channel=10 note=91 velocity=0 time=0@note_on channel=10 note=83 velocity=100 time=0@note_on channel=11 note=72 velocity=0 time=0@note_on channel=11 note=67 velocity=100 time=0@note_on channel=12 note=64 velocity=0 time=0@note_on channel=12 note=62 velocity=100 time=0@note_on channel=13 note=72 velocity=0 time=0@note_on channel=13 note=74 velocity=100 time=0@note_on channel=14 note=76 velocity=0 time=0@note_on channel=14 note=74 velocity=100 time=0@note_on channel=8 note=81 velocity=0 time=0.07936499999999999@note_on channel=8 note=79 velocity=100 time=0@note_on channel=13 note=74 velocity=0 time=0@note_on channel=13 note=72 velocity=100 time=0@note_on channel=4 note=71 velocity=0 time=0.07936499999999999@note_on channel=4 note=74 velocity=100 time=0@note_on channel=6 note=67 velocity=0 time=0@note_on channel=6 note=69 velocity=100 time=0@note_on channel=7 note=74 velocity=0 time=0@note_on channel=7 note=72 velocity=100 time=0@note_on channel=8 note=79 velocity=0 time=0@note_on channel=8 note=81 velocity=100 time=0@note_on channel=13 note=72 velocity=0 time=0@note_on channel=13 note=74 velocity=100 time=0@note_on channel=8 note=81 velocity=0 time=0.07936499999999999@note_on channel=8 note=79 velocity=100 time=0@note_on channel=4 note=74 velocity=0 time=0.07936499999999999@note_on channel=4 note=74 velocity=100 time=0@note_on channel=5 note=79 velocity=0 time=0@note_on channel=5 note=79 velocity=100 time=0@note_on channel=6 note=69 velocity=0 time=0@note_on channel=6 note=71 velocity=100 time=0@note_on channel=7 note=72 velocity=0 time=0@note_on channel=7 note=74 velocity=100 time=0@note_on channel=8 note=79 velocity=0 time=0@note_on channel=8 note=74 velocity=100 time=0@note_on channel=10 note=83 velocity=0 time=0@note_on channel=10 note=79 velocity=100 time=0@note_on channel=11 note=67 velocity=0 time=0@note_on channel=11 note=71 velocity=100 time=0@note_on channel=12 note=62 velocity=0 time=0@note_on channel=12 note=59 velocity=100 time=0@note_on channel=13 note=74 velocity=0 time=0@note_on channel=13 note=71 velocity=100 time=0@note_on channel=4 note=74 velocity=0 time=0.15872999999999998@note_on channel=4 note=74 velocity=100 time=0@note_on channel=7 note=74 velocity=0 time=0@note_on channel=7 note=76 velocity=100 time=0@note_on channel=3 note=74 velocity=0 time=0.15872999999999998@note_on channel=3 note=71 velocity=100 time=0@note_on channel=4 note=74 velocity=0 time=0@note_on channel=4 note=74 velocity=100 time=0@note_on channel=5 note=79 velocity=0 time=0@note_on channel=5 note=81 velocity=100 time=0@note_on channel=6 note=71 velocity=0 time=0@note_on channel=6 note=67 velocity=100 time=0@note_on channel=7 note=76 velocity=0 time=0@note_on channel=7 note=74 velocity=100 time=0@note_on channel=8 note=74 velocity=0 time=0@note_on channel=8 note=74 velocity=100 time=0@note_on channel=10 note=79 velocity=0 time=0@note_on channel=10 note=81 velocity=100 time=0@note_on channel=11 note=71 velocity=0 time=0@note_on channel=11 note=67 velocity=100 time=0@note_on channel=12 note=59 velocity=0 time=0@note_on channel=12 note=55 velocity=100 time=0@note_on channel=13 note=71 velocity=0 time=0@note_on channel=13 note=67 velocity=100 time=0@note_on channel=14 note=74 velocity=0 time=0@note_on channel=14 note=74 velocity=100 time=0@note_on channel=4 note=74 velocity=0 time=0.15872999999999998@note_on channel=4 note=74 velocity=100 time=0@note_on channel=7 note=74 velocity=0 time=0@note_on channel=7 note=72 velocity=100 time=0@note_on channel=1 note=50 velocity=0 time=0.15872999999999998@note_on channel=1 note=43 velocity=100 time=0@note_on channel=3 note=71 velocity=0 time=0@note_on channel=3 note=67 velocity=100 time=0@note_on channel=4 note=74 velocity=0 time=0@note_on channel=4 note=67 velocity=100 time=0@note_on channel=5 note=81 velocity=0 time=0@note_on channel=5 note=84 velocity=100 time=0@note_on channel=6 note=67 velocity=0 time=0@note_on channel=6 note=71 velocity=100 time=0@note_on channel=7 note=72 velocity=0 time=0@note_on channel=7 note=71 velocity=100 time=0@note_on channel=8 note=74 velocity=0 time=0@note_on channel=8 note=74 velocity=100 time=0@note_on channel=10 note=81 velocity=0 time=0@note_on channel=10 note=83 velocity=100 time=0@note_on channel=11 note=67 velocity=0 time=0@note_on channel=11 note=74 velocity=100 time=0@note_on channel=12 note=55 velocity=0 time=0@note_on channel=12 note=62 velocity=100 time=0@note_on channel=13 note=67 velocity=0 time=0@note_on channel=13 note=74 velocity=100 time=0@note_on channel=14 note=74 velocity=0 time=0@note_on channel=14 note=71 velocity=100 time=0@note_on channel=5 note=84 velocity=0 time=0.07936499999999999@note_on channel=5 note=83 velocity=100 time=0@note_on channel=13 note=74 velocity=0 time=0@note_on channel=13 note=72 velocity=100 time=0@note_on channel=4 note=67 velocity=0 time=0.07936499999999999@note_on channel=4 note=74 velocity=100 time=0@note_on channel=5 note=83 velocity=0 time=0@note_on channel=5 note=84 velocity=100 time=0@note_on channel=6 note=71 velocity=0 time=0@note_on channel=6 note=72 velocity=100 time=0@note_on channel=7 note=71 velocity=0 time=0@note_on channel=7 note=69 velocity=100 time=0@note_on channel=11 note=74 velocity=0 time=0@note_on channel=11 note=72 velocity=100 time=0@note_on channel=13 note=72 velocity=0 time=0@note_on channel=13 note=74 velocity=100 time=0@note_on channel=5 note=84 velocity=0 time=0.07936499999999999@note_on channel=5 note=83 velocity=100 time=0@note_on channel=4 note=74 velocity=0 time=0.07936499999999999@note_on channel=4 note=74 velocity=100 time=0@note_on channel=6 note=72 velocity=0 time=0@note_on channel=6 note=74 velocity=100 time=0@note_on channel=7 note=69 velocity=0 time=0@note_on channel=7 note=71 velocity=100 time=0@note_on channel=10 note=83 velocity=0 time=0@note_on channel=10 note=84 velocity=100 time=0@note_on channel=11 note=72 velocity=0 time=0@note_on channel=11 note=71 velocity=100 time=0@note_on channel=12 note=62 velocity=0 time=0@note_on channel=12 note=50 velocity=100 time=0@note_on channel=13 note=74 velocity=0 time=0@note_on channel=13 note=71 velocity=100 time=0@note_on channel=14 note=71 velocity=0 time=0@note_on channel=14 note=72 velocity=100 time=0@note_on channel=3 note=67 velocity=0 time=0.15872999999999998@note_on channel=3 note=69 velocity=100 time=0@note_on channel=4 note=74 velocity=0 time=0@note_on channel=4 note=74 velocity=100 time=0@note_on channel=5 note=83 velocity=0 time=0@note_on channel=5 note=81 velocity=100 time=0@note_on channel=7 note=71 velocity=0 time=0@note_on channel=7 note=72 velocity=100 time=0@note_on channel=8 note=74 velocity=0 time=0@note_on channel=8 note=76 velocity=100 time=0@note_on channel=11 note=71 velocity=0 time=0@note_on channel=11 note=69 velocity=100 time=0@note_on channel=3 note=69 velocity=0 time=0.15872999999999998@note_on channel=3 note=71 velocity=100 time=0@note_on channel=4 note=74 velocity=0 time=0@note_on channel=4 note=74 velocity=100 time=0@note_on channel=5 note=81 velocity=0 time=0@note_on channel=5 note=79 velocity=100 time=0@note_on channel=6 note=74 velocity=0 time=0@note_on channel=6 note=67 velocity=100 time=0@note_on channel=7 note=72 velocity=0 time=0@note_on channel=7 note=74 velocity=100 time=0@note_on channel=8 note=76 velocity=0 time=0@note_on channel=8 note=77 velocity=100 time=0@note_on channel=10 note=84 velocity=0 time=0@note_on channel=10 note=86 velocity=100 time=0@note_on channel=11 note=69 velocity=0 time=0@note_on channel=11 note=67 velocity=100 time=0@note_on channel=12 note=50 velocity=0 time=0@note_on channel=12 note=64 velocity=100 time=0@note_on channel=13 note=71 velocity=0 time=0@note_on channel=13 note=67 velocity=100 time=0@note_on channel=14 note=72 velocity=0 time=0@note_on channel=14 note=74 velocity=100 time=0@note_on channel=4 note=74 velocity=0 time=0.15872999999999998@note_on channel=4 note=74 velocity=100 time=0@note_on channel=7 note=74 velocity=0 time=0@note_on channel=7 note=72 velocity=100 time=0@note_on channel=12 note=64 velocity=0 time=0@note_on channel=12 note=62 velocity=100 time=0@note_on channel=1 note=43 velocity=0 time=0.15872999999999998@note_on channel=1 note=45 velocity=100 time=0@note_on channel=3 note=71 velocity=0 time=0@note_on channel=3 note=72 velocity=100 time=0@note_on channel=4 note=74 velocity=0 time=0@note_on channel=4 note=69 velocity=100 time=0@note_on channel=5 note=79 velocity=0 time=0@note_on channel=5 note=84 velocity=100 time=0@note_on channel=6 note=67 velocity=0 time=0@note_on channel=6 note=81 velocity=100 time=0@note_on channel=7 note=72 velocity=0 time=0@note_on channel=7 note=72 velocity=100 time=0@note_on channel=8 note=77 velocity=0 time=0@note_on channel=8 note=72 velocity=100 time=0@note_on channel=10 note=86 velocity=0 time=0@note_on channel=10 note=84 velocity=100 time=0@note_on channel=11 note=67 velocity=0 time=0@note_on channel=11 note=76 velocity=100 time=0@note_on channel=12 note=62 velocity=0 time=0@note_on channel=12 note=60 velocity=100 time=0@note_on channel=13 note=67 velocity=0 time=0@note_on channel=13 note=76 velocity=100 time=0@note_on channel=14 note=74 velocity=0 time=0@note_on channel=14 note=76 velocity=100 time=0@note_on channel=10 note=84 velocity=0 time=0.07936499999999999@note_on channel=10 note=86 velocity=100 time=0@note_on channel=4 note=69 velocity=0 time=0.07936499999999999@note_on channel=4 note=72 velocity=100 time=0@note_on channel=6 note=81 velocity=0 time=0@note_on channel=6 note=83 velocity=100 time=0@note_on channel=7 note=72 velocity=0 time=0@note_on channel=7 note=71 velocity=100 time=0@note_on channel=10 note=86 velocity=0 time=0@note_on channel=10 note=84 velocity=100 time=0@note_on channel=11 note=76 velocity=0 time=0@note_on channel=11 note=74 velocity=100 time=0@note_on channel=4 note=72 velocity=0 time=0.15872999999999998@note_on channel=4 note=72 velocity=100 time=0@note_on channel=5 note=84 velocity=0 time=0@note_on channel=5 note=83 velocity=100 time=0@note_on channel=6 note=83 velocity=0 time=0@note_on channel=6 note=84 velocity=100 time=0@note_on channel=7 note=71 velocity=0 time=0@note_on channel=7 note=72 velocity=100 time=0@note_on channel=8 note=72 velocity=0 time=0@note_on channel=8 note=71 velocity=100 time=0@note_on channel=10 note=84 velocity=0 time=0@note_on channel=10 note=81 velocity=100 time=0@note_on channel=11 note=74 velocity=0 time=0@note_on channel=11 note=72 velocity=100 time=0@note_on channel=12 note=60 velocity=0 time=0@note_on channel=12 note=59 velocity=100 time=0@note_on channel=13 note=76 velocity=0 time=0@note_on channel=13 note=72 velocity=100 time=0@note_on channel=14 note=76 velocity=0 time=0@note_on channel=14 note=74 velocity=100 time=0@note_on channel=3 note=72 velocity=0 time=0.15872999999999998@note_on channel=3 note=71 velocity=100 time=0@note_on channel=4 note=72 velocity=0 time=0@note_on channel=4 note=72 velocity=100 time=0@note_on channel=7 note=72 velocity=0 time=0@note_on channel=7 note=74 velocity=100 time=0@note_on channel=11 note=72 velocity=0 time=0@note_on channel=11 note=71 velocity=100 time=0@note_on channel=3 note=71 velocity=0 time=0.15872999999999998@note_on channel=3 note=69 velocity=100 time=0@note_on channel=4 note=72 velocity=0 time=0@note_on channel=4 note=72 velocity=100 time=0@note_on channel=5 note=83 velocity=0 time=0@note_on channel=5 note=81 velocity=100 time=0@note_on channel=6 note=84 velocity=0 time=0@note_on channel=6 note=81 velocity=100 time=0@note_on channel=7 note=74 velocity=0 time=0@note_on channel=7 note=76 velocity=100 time=0@note_on channel=8 note=71 velocity=0 time=0@note_on channel=8 note=69 velocity=100 time=0@note_on channel=10 note=81 velocity=0 time=0@note_on channel=10 note=84 velocity=100 time=0@note_on channel=11 note=71 velocity=0 time=0@note_on channel=11 note=69 velocity=100 time=0@note_on channel=12 note=59 velocity=0 time=0@note_on channel=12 note=57 velocity=100 time=0@note_on channel=13 note=72 velocity=0 time=0@note_on channel=13 note=69 velocity=100 time=0@note_on channel=14 note=74 velocity=0 time=0@note_on channel=14 note=72 velocity=100 time=0@note_on channel=4 note=72 velocity=0 time=0.15872999999999998@note_on channel=4 note=72 velocity=100 time=0@note_on channel=7 note=76 velocity=0 time=0@note_on channel=7 note=74 velocity=100 time=0@note_on channel=1 note=45 velocity=0 time=0.15872999999999998@note_on channel=1 note=38 velocity=100 time=0@note_on channel=3 note=69 velocity=0 time=0@note_on channel=3 note=72 velocity=100 time=0@note_on channel=4 note=72 velocity=0 time=0@note_on channel=4 note=64 velocity=100 time=0@note_on channel=5 note=81 velocity=0 time=0@note_on channel=5 note=81 velocity=100 time=0@note_on channel=6 note=81 velocity=0 time=0@note_on channel=6 note=80 velocity=100 time=0@note_on channel=7 note=74 velocity=0 time=0@note_on channel=7 note=74 velocity=100 time=0@note_on channel=8 note=69 velocity=0 time=0@note_on channel=8 note=69 velocity=100 time=0@note_on channel=10 note=84 velocity=0 time=0@note_on channel=10 note=83 velocity=100 time=0@note_on channel=11 note=69 velocity=0 time=0@note_on channel=11 note=71 velocity=100 time=0@note_on channel=12 note=57 velocity=0 time=0@note_on channel=12 note=59 velocity=100 time=0@note_on channel=13 note=69 velocity=0 time=0@note_on channel=13 note=71 velocity=100 time=0@note_on channel=14 note=72 velocity=0 time=0@note_on channel=14 note=74 velocity=100 time=0@note_on channel=3 note=72 velocity=0 time=0.07936499999999999@note_on channel=3 note=71 velocity=100 time=0@note_on channel=5 note=81 velocity=0 time=0@note_on channel=5 note=80 velocity=100 time=0@note_on channel=8 note=69 velocity=0 time=0@note_on channel=8 note=68 velocity=100 time=0@note_on channel=10 note=83 velocity=0 time=0@note_on channel=10 note=84 velocity=100 time=0@note_on channel=13 note=71 velocity=0 time=0@note_on channel=13 note=72 velocity=100 time=0@note_on channel=3 note=71 velocity=0 time=0.07936499999999999@note_on channel=3 note=72 velocity=100 time=0@note_on channel=4 note=64 velocity=0 time=0@note_on channel=4 note=71 velocity=100 time=0@note_on channel=5 note=80 velocity=0 time=0@note_on channel=5 note=81 velocity=100 time=0@note_on channel=6 note=80 velocity=0 time=0@note_on channel=6 note=81 velocity=100 time=0@note_on channel=7 note=74 velocity=0 time=0@note_on channel=7 note=72 velocity=100 time=0@note_on channel=8 note=68 velocity=0 time=0@note_on channel=8 note=69 velocity=100 time=0@note_on channel=10 note=84 velocity=0 time=0@note_on channel=10 note=83 velocity=100 time=0@note_on channel=11 note=71 velocity=0 time=0@note_on channel=11 note=69 velocity=100 time=0@note_on channel=13 note=72 velocity=0 time=0@note_on channel=13 note=71 velocity=100 time=0@note_on channel=3 note=72 velocity=0 time=0.07936499999999999@note_on channel=3 note=71 velocity=100 time=0@note_on channel=5 note=81 velocity=0 time=0@note_on channel=5 note=80 velocity=100 time=0@note_on channel=8 note=69 velocity=0 time=0@note_on channel=8 note=68 velocity=100 time=0@note_on channel=4 note=71 velocity=0 time=0.07936499999999999@note_on channel=4 note=71 velocity=100 time=0@note_on channel=6 note=81 velocity=0 time=0@note_on channel=6 note=83 velocity=100 time=0@note_on channel=7 note=72 velocity=0 time=0@note_on channel=7 note=71 velocity=100 time=0@note_on channel=10 note=83 velocity=0 time=0@note_on channel=10 note=80 velocity=100 time=0@note_on channel=11 note=69 velocity=0 time=0@note_on channel=11 note=68 velocity=100 time=0@note_on channel=12 note=59 velocity=0 time=0@note_on channel=12 note=56 velocity=100 time=0@note_on channel=13 note=71 velocity=0 time=0@note_on channel=13 note=68 velocity=100 time=0@note_on channel=14 note=74 velocity=0 time=0@note_on channel=14 note=72 velocity=100 time=0@note_on channel=14 note=72 velocity=0 time=0.07936499999999999@note_on channel=14 note=71 velocity=100 time=0@note_on channel=3 note=71 velocity=0 time=0.07936499999999999@note_on channel=3 note=69 velocity=100 time=0@note_on channel=4 note=71 velocity=0 time=0@note_on channel=4 note=71 velocity=100 time=0@note_on channel=5 note=80 velocity=0 time=0@note_on channel=5 note=78 velocity=100 time=0@note_on channel=7 note=71 velocity=0 time=0@note_on channel=7 note=69 velocity=100 time=0@note_on channel=8 note=68 velocity=0 time=0@note_on channel=8 note=66 velocity=100 time=0@note_on channel=11 note=68 velocity=0 time=0@note_on channel=11 note=66 velocity=100 time=0@note_on channel=14 note=71 velocity=0 time=0@note_on channel=14 note=72 velocity=100 time=0@note_on channel=14 note=72 velocity=0 time=0.07936499999999999@note_on channel=14 note=71 velocity=100 time=0@note_on channel=3 note=69 velocity=0 time=0.07936499999999999@note_on channel=3 note=68 velocity=100 time=0@note_on channel=4 note=71 velocity=0 time=0@note_on channel=4 note=71 velocity=100 time=0@note_on channel=5 note=78 velocity=0 time=0@note_on channel=5 note=80 velocity=100 time=0@note_on channel=6 note=83 velocity=0 time=0@note_on channel=6 note=80 velocity=100 time=0@note_on channel=7 note=69 velocity=0 time=0@note_on channel=7 note=71 velocity=100 time=0@note_on channel=8 note=66 velocity=0 time=0@note_on channel=8 note=68 velocity=100 time=0@note_on channel=10 note=80 velocity=0 time=0@note_on channel=10 note=76 velocity=100 time=0@note_on channel=11 note=66 velocity=0 time=0@note_on channel=11 note=64 velocity=100 time=0@note_on channel=12 note=56 velocity=0 time=0@note_on channel=12 note=52 velocity=100 time=0@note_on channel=13 note=68 velocity=0 time=0@note_on channel=13 note=64 velocity=100 time=0@note_on channel=4 note=71 velocity=0 time=0.15872999999999998@note_on channel=4 note=71 velocity=100 time=0@note_on channel=7 note=71 velocity=0 time=0@note_on channel=7 note=68 velocity=100 time=0@note_on channel=14 note=71 velocity=0 time=0@note_on channel=14 note=69 velocity=100 time=0@note_on channel=14 note=69 velocity=0 time=0.07936499999999999@note_on channel=14 note=71 velocity=100 time=0@note_on channel=1 note=38 velocity=0 time=0.07936499999999999@note_on channel=1 note=45 velocity=100 time=0@note_on channel=3 note=68 velocity=0 time=0@note_on channel=3 note=69 velocity=100 time=0@note_on channel=4 note=71 velocity=0 time=0@note_on channel=4 note=69 velocity=100 time=0@note_on channel=5 note=80 velocity=0 time=0@note_on channel=5 note=81 velocity=100 time=0@note_on channel=6 note=80 velocity=0 time=0@note_on channel=6 note=81 velocity=100 time=0@note_on channel=7 note=68 velocity=0 time=0@note_on channel=7 note=69 velocity=100 time=0@note_on channel=8 note=68 velocity=0 time=0@note_on channel=8 note=69 velocity=100 time=0@note_on channel=10 note=76 velocity=0 time=0@note_on channel=10 note=81 velocity=100 time=0@note_on channel=11 note=64 velocity=0 time=0@note_on channel=11 note=69 velocity=100 time=0@note_on channel=12 note=52 velocity=0 time=0@note_on channel=12 note=57 velocity=100 time=0@note_on channel=13 note=64 velocity=0 time=0@note_on channel=13 note=69 velocity=100 time=0@note_on channel=14 note=71 velocity=0 time=0@note_on channel=14 note=69 velocity=100 time=0@note_on channel=6 note=81 velocity=0 time=0.07936499999999999@note_on channel=6 note=80 velocity=100 time=0@note_on channel=6 note=80 velocity=0 time=0.07936499999999999@note_on channel=6 note=81 velocity=100 time=0@note_on channel=3 note=69 velocity=0 time=0.79365@note_on channel=3 note=69 velocity=100 time=0@note_on channel=4 note=69 velocity=0 time=0@note_on channel=4 note=69 velocity=100 time=0@note_on channel=5 note=81 velocity=0 time=0@note_on channel=5 note=81 velocity=100 time=0@note_on channel=6 note=81 velocity=0 time=0@note_on channel=6 note=81 velocity=100 time=0@note_on channel=7 note=69 velocity=0 time=0@note_on channel=7 note=69 velocity=100 time=0@note_on channel=8 note=69 velocity=0 time=0@note_on channel=8 note=69 velocity=100 time=0@note_on channel=10 note=81 velocity=0 time=0@note_on channel=10 note=81 velocity=100 time=0@note_on channel=11 note=69 velocity=0 time=0@note_on channel=11 note=69 velocity=100 time=0@note_on channel=12 note=57 velocity=0 time=0@note_on channel=12 note=57 velocity=100 time=0@note_on channel=13 note=69 velocity=0 time=0@note_on channel=13 note=69 velocity=100 time=0@note_on channel=14 note=69 velocity=0 time=0@note_on channel=14 note=69 velocity=100 time=0@note_on channel=11 note=69 velocity=0 time=0.07936499999999999@note_on channel=11 note=68 velocity=100 time=0@note_on channel=11 note=68 velocity=0 time=0.07936499999999999@note_on channel=11 note=69 velocity=100 time=0@note_on channel=1 note=45 velocity=0 time=0.79365@note_on channel=1 note=48 velocity=100 time=0@note_on channel=3 note=69 velocity=0 time=0@note_on channel=4 note=69 velocity=0 time=0@note_on channel=4 note=72 velocity=100 time=0@note_on channel=5 note=81 velocity=0 time=0@note_on channel=5 note=72 velocity=100 time=0@note_on channel=6 note=81 velocity=0 time=0@note_on channel=6 note=84 velocity=100 time=0@note_on channel=7 note=69 velocity=0 time=0@note_on channel=7 note=69 velocity=100 time=0@note_on channel=8 note=69 velocity=0 time=0@note_on channel=8 note=72 velocity=100 time=0@note_on channel=10 note=81 velocity=0 time=0@note_on channel=10 note=81 velocity=100 time=0@note_on channel=11 note=69 velocity=0 time=0@note_on channel=11 note=72 velocity=100 time=0@note_on channel=12 note=57 velocity=0 time=0@note_on channel=12 note=57 velocity=100 time=0@note_on channel=13 note=69 velocity=0 time=0@note_on channel=13 note=79 velocity=100 time=0@note_on channel=14 note=69 velocity=0 time=0@note_on channel=14 note=76 velocity=100 time=0@note_on channel=5 note=72 velocity=0 time=0.15872999999999998@note_on channel=5 note=76 velocity=100 time=0@note_on channel=7 note=69 velocity=0 time=0@note_on channel=7 note=71 velocity=100 time=0@note_on channel=8 note=72 velocity=0 time=0@note_on channel=8 note=71 velocity=100 time=0@note_on channel=10 note=81 velocity=0 time=0@note_on channel=10 note=83 velocity=100 time=0@note_on channel=5 note=76 velocity=0 time=0.15872999999999998@note_on channel=5 note=76 velocity=100 time=0@note_on channel=6 note=84 velocity=0 time=0@note_on channel=6 note=84 velocity=100 time=0@note_on channel=7 note=71 velocity=0 time=0@note_on channel=7 note=72 velocity=100 time=0@note_on channel=8 note=71 velocity=0 time=0@note_on channel=8 note=72 velocity=100 time=0@note_on channel=10 note=83 velocity=0 time=0@note_on channel=10 note=84 velocity=100 time=0@note_on channel=11 note=72 velocity=0 time=0@note_on channel=11 note=69 velocity=100 time=0@note_on channel=12 note=57 velocity=0 time=0@note_on channel=12 note=60 velocity=100 time=0@note_on channel=13 note=79 velocity=0 time=0@note_on channel=13 note=72 velocity=100 time=0@note_on channel=14 note=76 velocity=0 time=0@note_on channel=14 note=72 velocity=100 time=0@note_on channel=5 note=76 velocity=0 time=0.15872999999999998@note_on channel=5 note=76 velocity=100 time=0@note_on channel=8 note=72 velocity=0 time=0@note_on channel=8 note=74 velocity=100 time=0@note_on channel=10 note=84 velocity=0 time=0@note_on channel=10 note=86 velocity=100 time=0@note_on channel=4 note=72 velocity=0 time=0.15872999999999998@note_on channel=4 note=74 velocity=100 time=0@note_on channel=5 note=76 velocity=0 time=0@note_on channel=5 note=76 velocity=100 time=0@note_on channel=6 note=84 velocity=0 time=0@note_on channel=6 note=84 velocity=100 time=0@note_on channel=7 note=72 velocity=0 time=0@note_on channel=7 note=69 velocity=100 time=0@note_on channel=8 note=74 velocity=0 time=0@note_on channel=8 note=76 velocity=100 time=0@note_on channel=10 note=86 velocity=0 time=0@note_on channel=10 note=88 velocity=100 time=0@note_on channel=11 note=69 velocity=0 time=0@note_on channel=11 note=71 velocity=100 time=0@note_on channel=12 note=60 velocity=0 time=0@note_on channel=12 note=57 velocity=100 time=0@note_on channel=13 note=72 velocity=0 time=0@note_on channel=13 note=81 velocity=100 time=0@note_on channel=14 note=72 velocity=0 time=0@note_on channel=14 note=69 velocity=100 time=0@note_on channel=5 note=76 velocity=0 time=0.15872999999999998@note_on channel=5 note=76 velocity=100 time=0@note_on channel=8 note=76 velocity=0 time=0@note_on channel=8 note=74 velocity=100 time=0@note_on channel=10 note=88 velocity=0 time=0@note_on channel=10 note=81 velocity=100 time=0@note_on channel=1 note=48 velocity=0 time=0.15872999999999998@note_on channel=1 note=40 velocity=100 time=0@note_on channel=4 note=74 velocity=0 time=0@note_on channel=4 note=76 velocity=100 time=0@note_on channel=5 note=76 velocity=0 time=0@note_on channel=5 note=72 velocity=100 time=0@note_on channel=6 note=84 velocity=0 time=0@note_on channel=6 note=72 velocity=100 time=0@note_on channel=7 note=69 velocity=0 time=0@note_on channel=7 note=72 velocity=100 time=0@note_on channel=8 note=74 velocity=0 time=0@note_on channel=8 note=72 velocity=100 time=0@note_on channel=10 note=81 velocity=0 time=0@note_on channel=10 note=93 velocity=100 time=0@note_on channel=11 note=71 velocity=0 time=0@note_on channel=11 note=72 velocity=100 time=0@note_on channel=12 note=57 velocity=0 time=0@note_on channel=12 note=64 velocity=100 time=0@note_on channel=13 note=81 velocity=0 time=0@note_on channel=13 note=81 velocity=100 time=0@note_on channel=14 note=69 velocity=0 time=0@note_on channel=14 note=76 velocity=100 time=0@note_on channel=13 note=81 velocity=0 time=0.07936499999999999@note_on channel=13 note=79 velocity=100 time=0@note_on channel=5 note=72 velocity=0 time=0.07936499999999999@note_on channel=5 note=76 velocity=100 time=0@note_on channel=7 note=72 velocity=0 time=0@note_on channel=7 note=74 velocity=100 time=0@note_on channel=8 note=72 velocity=0 time=0@note_on channel=8 note=71 velocity=100 time=0@note_on channel=10 note=93 velocity=0 time=0@note_on channel=10 note=92 velocity=100 time=0@note_on channel=12 note=64 velocity=0 time=0@note_on channel=12 note=62 velocity=100 time=0@note_on channel=13 note=79 velocity=0 time=0@note_on channel=13 note=81 velocity=100 time=0@note_on channel=13 note=81 velocity=0 time=0.07936499999999999@note_on channel=13 note=79 velocity=100 time=0@note_on channel=5 note=76 velocity=0 time=0.07936499999999999@note_on channel=5 note=76 velocity=100 time=0@note_on channel=6 note=72 velocity=0 time=0@note_on channel=6 note=72 velocity=100 time=0@note_on channel=7 note=74 velocity=0 time=0@note_on channel=7 note=76 velocity=100 time=0@note_on channel=8 note=71 velocity=0 time=0@note_on channel=8 note=72 velocity=100 time=0@note_on channel=10 note=92 velocity=0 time=0@note_on channel=10 note=93 velocity=100 time=0@note_on channel=11 note=72 velocity=0 time=0@note_on channel=11 note=74 velocity=100 time=0@note_on channel=12 note=62 velocity=0 time=0@note_on channel=12 note=60 velocity=100 time=0@note_on channel=14 note=76 velocity=0 time=0@note_on channel=14 note=72 velocity=100 time=0@note_on channel=5 note=76 velocity=0 time=0.15872999999999998@note_on channel=5 note=76 velocity=100 time=0@note_on channel=8 note=72 velocity=0 time=0@note_on channel=8 note=74 velocity=100 time=0@note_on channel=10 note=93 velocity=0 time=0@note_on channel=10 note=95 velocity=100 time=0@note_on channel=12 note=60 velocity=0 time=0@note_on channel=12 note=59 velocity=100 time=0@note_on channel=13 note=79 velocity=0 time=0@note_on channel=13 note=77 velocity=100 time=0@note_on channel=4 note=76 velocity=0 time=0.15872999999999998@note_on channel=4 note=76 velocity=100 time=0@note_on channel=5 note=76 velocity=0 time=0@note_on channel=5 note=76 velocity=100 time=0@note_on channel=6 note=72 velocity=0 time=0@note_on channel=6 note=72 velocity=100 time=0@note_on channel=7 note=76 velocity=0 time=0@note_on channel=7 note=69 velocity=100 time=0@note_on channel=8 note=74 velocity=0 time=0@note_on channel=8 note=76 velocity=100 time=0@note_on channel=10 note=95 velocity=0 time=0@note_on channel=10 note=96 velocity=100 time=0@note_on channel=11 note=74 velocity=0 time=0@note_on channel=11 note=76 velocity=100 time=0@note_on channel=12 note=59 velocity=0 time=0@note_on channel=12 note=57 velocity=100 time=0@note_on channel=13 note=77 velocity=0 time=0@note_on channel=13 note=76 velocity=100 time=0@note_on channel=14 note=72 velocity=0 time=0@note_on channel=14 note=69 velocity=100 time=0@note_on channel=5 note=76 velocity=0 time=0.15872999999999998@note_on channel=5 note=76 velocity=100 time=0@note_on channel=8 note=76 velocity=0 time=0@note_on channel=8 note=74 velocity=100 time=0@note_on channel=10 note=96 velocity=0 time=0@note_on channel=10 note=93 velocity=100 time=0@note_on channel=1 note=40 velocity=0 time=0.15872999999999998@note_on channel=1 note=50 velocity=100 time=0@note_on channel=4 note=76 velocity=0 time=0@note_on channel=4 note=74 velocity=100 time=0@note_on channel=5 note=76 velocity=0 time=0@note_on channel=5 note=71 velocity=100 time=0@note_on channel=6 note=72 velocity=0 time=0@note_on channel=6 note=79 velocity=100 time=0@note_on channel=7 note=69 velocity=0 time=0@note_on channel=7 note=67 velocity=100 time=0@note_on channel=8 note=74 velocity=0 time=0@note_on channel=8 note=71 velocity=100 time=0@note_on channel=10 note=93 velocity=0 time=0@note_on channel=10 note=96 velocity=100 time=0@note_on channel=11 note=76 velocity=0 time=0@note_on channel=11 note=71 velocity=100 time=0@note_on channel=12 note=57 velocity=0 time=0@note_on channel=12 note=55 velocity=100 time=0@note_on channel=13 note=76 velocity=0 time=0@note_on channel=13 note=74 velocity=100 time=0@note_on channel=14 note=69 velocity=0 time=0@note_on channel=14 note=74 velocity=100 time=0@note_on channel=10 note=96 velocity=0 time=0.07936499999999999@note_on channel=10 note=95 velocity=100 time=0@note_on channel=5 note=71 velocity=0 time=0.07936499999999999@note_on channel=5 note=74 velocity=100 time=0@note_on channel=7 note=67 velocity=0 time=0@note_on channel=7 note=69 velocity=100 time=0@note_on channel=8 note=71 velocity=0 time=0@note_on channel=8 note=69 velocity=100 time=0@note_on channel=10 note=95 velocity=0 time=0@note_on channel=10 note=96 velocity=100 time=0@note_on channel=10 note=96 velocity=0 time=0.07936499999999999@note_on channel=10 note=95 velocity=100 time=0@note_on channel=5 note=74 velocity=0 time=0.07936499999999999@note_on channel=5 note=74 velocity=100 time=0@note_on channel=6 note=79 velocity=0 time=0@note_on channel=6 note=79 velocity=100 time=0@note_on channel=7 note=69 velocity=0 time=0@note_on channel=7 note=71 velocity=100 time=0@note_on channel=8 note=69 velocity=0 time=0@note_on channel=8 note=71 velocity=100 time=0@note_on channel=11 note=71 velocity=0 time=0@note_on channel=11 note=67 velocity=100 time=0@note_on channel=12 note=55 velocity=0 time=0@note_on channel=12 note=59 velocity=100 time=0@note_on channel=13 note=74 velocity=0 time=0@note_on channel=13 note=71 velocity=100 time=0@note_on channel=14 note=74 velocity=0 time=0@note_on channel=14 note=71 velocity=100 time=0@note_on channel=5 note=74 velocity=0 time=0.15872999999999998@note_on channel=5 note=74 velocity=100 time=0@note_on channel=8 note=71 velocity=0 time=0@note_on channel=8 note=72 velocity=100 time=0@note_on channel=4 note=74 velocity=0 time=0.15872999999999998@note_on channel=4 note=71 velocity=100 time=0@note_on channel=5 note=74 velocity=0 time=0@note_on channel=5 note=74 velocity=100 time=0@note_on channel=6 note=79 velocity=0 time=0@note_on channel=6 note=79 velocity=100 time=0@note_on channel=7 note=71 velocity=0 time=0@note_on channel=7 note=67 velocity=100 time=0@note_on channel=8 note=72 velocity=0 time=0@note_on channel=8 note=74 velocity=100 time=0@note_on channel=10 note=95 velocity=0 time=0@note_on channel=10 note=91 velocity=100 time=0@note_on channel=11 note=67 velocity=0 time=0@note_on channel=11 note=69 velocity=100 time=0@note_on channel=12 note=59 velocity=0 time=0@note_on channel=12 note=55 velocity=100 time=0@note_on channel=13 note=71 velocity=0 time=0@note_on channel=13 note=67 velocity=100 time=0@note_on channel=14 note=71 velocity=0 time=0@note_on channel=14 note=67 velocity=100 time=0@note_on channel=5 note=74 velocity=0 time=0.15872999999999998@note_on channel=5 note=74 velocity=100 time=0@note_on channel=8 note=74 velocity=0 time=0@note_on channel=8 note=72 velocity=100 time=0@note_on channel=1 note=50 velocity=0 time=0.15872999999999998@note_on channel=1 note=43 velocity=100 time=0@note_on channel=4 note=71 velocity=0 time=0@note_on channel=4 note=67 velocity=100 time=0@note_on channel=5 note=74 velocity=0 time=0@note_on channel=5 note=71 velocity=100 time=0@note_on channel=6 note=79 velocity=0 time=0@note_on channel=6 note=67 velocity=100 time=0@note_on channel=7 note=67 velocity=0 time=0@note_on channel=7 note=71 velocity=100 time=0@note_on channel=8 note=72 velocity=0 time=0@note_on channel=8 note=71 velocity=100 time=0@note_on channel=10 note=91 velocity=0 time=0@note_on channel=10 note=91 velocity=100 time=0@note_on channel=11 note=69 velocity=0 time=0@note_on channel=11 note=71 velocity=100 time=0@note_on channel=12 note=55 velocity=0 time=0@note_on channel=12 note=62 velocity=100 time=0@note_on channel=13 note=67 velocity=0 time=0@note_on channel=13 note=74 velocity=100 time=0@note_on channel=14 note=67 velocity=0 time=0@note_on channel=14 note=74 velocity=100 time=0@note_on channel=5 note=71 velocity=0 time=0.15872999999999998@note_on channel=5 note=74 velocity=100 time=0@note_on channel=7 note=71 velocity=0 time=0@note_on channel=7 note=72 velocity=100 time=0@note_on channel=8 note=71 velocity=0 time=0@note_on channel=8 note=69 velocity=100 time=0@note_on channel=12 note=62 velocity=0 time=0@note_on channel=12 note=60 velocity=100 time=0@note_on channel=5 note=74 velocity=0 time=0.15872999999999998@note_on channel=5 note=74 velocity=100 time=0@note_on channel=7 note=72 velocity=0 time=0@note_on channel=7 note=74 velocity=100 time=0@note_on channel=8 note=69 velocity=0 time=0@note_on channel=8 note=71 velocity=100 time=0@note_on channel=11 note=71 velocity=0 time=0@note_on channel=11 note=72 velocity=100 time=0@note_on channel=12 note=60 velocity=0 time=0@note_on channel=12 note=59 velocity=100 time=0@note_on channel=13 note=74 velocity=0 time=0@note_on channel=13 note=62 velocity=100 time=0@note_on channel=14 note=74 velocity=0 time=0@note_on channel=14 note=71 velocity=100 time=0@note_on channel=5 note=74 velocity=0 time=0.15872999999999998@note_on channel=5 note=74 velocity=100 time=0@note_on channel=6 note=67 velocity=0 time=0@note_on channel=6 note=69 velocity=100 time=0@note_on channel=8 note=71 velocity=0 time=0@note_on channel=8 note=72 velocity=100 time=0@note_on channel=12 note=59 velocity=0 time=0@note_on channel=12 note=57 velocity=100 time=0@note_on channel=5 note=74 velocity=0 time=0.15872999999999998@note_on channel=5 note=74 velocity=100 time=0@note_on channel=6 note=69 velocity=0 time=0@note_on channel=6 note=71 velocity=100 time=0@note_on channel=7 note=74 velocity=0 time=0@note_on channel=7 note=67 velocity=100 time=0@note_on channel=8 note=72 velocity=0 time=0@note_on channel=8 note=74 velocity=100 time=0@note_on channel=11 note=72 velocity=0 time=0@note_on channel=11 note=74 velocity=100 time=0@note_on channel=12 note=57 velocity=0 time=0@note_on channel=12 note=55 velocity=100 time=0@note_on channel=13 note=62 velocity=0 time=0@note_on channel=13 note=77 velocity=100 time=0@note_on channel=14 note=71 velocity=0 time=0@note_on channel=14 note=67 velocity=100 time=0@note_on channel=5 note=74 velocity=0 time=0.15872999999999998@note_on channel=5 note=74 velocity=100 time=0@note_on channel=8 note=74 velocity=0 time=0@note_on channel=8 note=72 velocity=100 time=0@note_on channel=13 note=77 velocity=0 time=0@note_on channel=13 note=79 velocity=100 time=0@note_on channel=1 note=43 velocity=0 time=0.15872999999999998@note_on channel=1 note=45 velocity=100 time=0@note_on channel=4 note=67 velocity=0 time=0@note_on channel=4 note=69 velocity=100 time=0@note_on channel=5 note=74 velocity=0 time=0@note_on channel=5 note=69 velocity=100 time=0@note_on channel=6 note=71 velocity=0 time=0@note_on channel=6 note=81 velocity=100 time=0@note_on channel=7 note=67 velocity=0 time=0@note_on channel=7 note=69 velocity=100 time=0@note_on channel=8 note=72 velocity=0 time=0@note_on channel=8 note=72 velocity=100 time=0@note_on channel=10 note=91 velocity=0 time=0@note_on channel=10 note=81 velocity=100 time=0@note_on channel=11 note=74 velocity=0 time=0@note_on channel=11 note=72 velocity=100 time=0@note_on channel=12 note=55 velocity=0 time=0@note_on channel=12 note=57 velocity=100 time=0@note_on channel=13 note=79 velocity=0 time=0@note_on channel=13 note=81 velocity=100 time=0@note_on channel=14 note=67 velocity=0 time=0@note_on channel=14 note=76 velocity=100 time=0@note_on channel=5 note=69 velocity=0 time=0.15872999999999998@note_on channel=5 note=72 velocity=100 time=0@note_on channel=7 note=69 velocity=0 time=0@note_on channel=7 note=71 velocity=100 time=0@note_on channel=8 note=72 velocity=0 time=0@note_on channel=8 note=71 velocity=100 time=0@note_on channel=10 note=81 velocity=0 time=0@note_on channel=10 note=83 velocity=100 time=0@note_on channel=5 note=72 velocity=0 time=0.15872999999999998@note_on channel=5 note=72 velocity=100 time=0@note_on channel=6 note=81 velocity=0 time=0@note_on channel=6 note=81 velocity=100 time=0@note_on channel=7 note=71 velocity=0 time=0@note_on channel=7 note=72 velocity=100 time=0@note_on channel=8 note=71 velocity=0 time=0@note_on channel=8 note=72 velocity=100 time=0@note_on channel=10 note=83 velocity=0 time=0@note_on channel=10 note=84 velocity=100 time=0@note_on channel=11 note=72 velocity=0 time=0@note_on channel=11 note=69 velocity=100 time=0@note_on channel=12 note=57 velocity=0 time=0@note_on channel=12 note=60 velocity=100 time=0@note_on channel=13 note=81 velocity=0 time=0@note_on channel=13 note=69 velocity=100 time=0@note_on channel=14 note=76 velocity=0 time=0@note_on channel=14 note=72 velocity=100 time=0@note_on channel=4 note=69 velocity=0 time=0.15872999999999998@note_on channel=4 note=71 velocity=100 time=0@note_on channel=5 note=72 velocity=0 time=0@note_on channel=5 note=72 velocity=100 time=0@note_on channel=8 note=72 velocity=0 time=0@note_on channel=8 note=74 velocity=100 time=0@note_on channel=10 note=84 velocity=0 time=0@note_on channel=10 note=86 velocity=100 time=0@note_on channel=4 note=71 velocity=0 time=0.15872999999999998@note_on channel=4 note=72 velocity=100 time=0@note_on channel=5 note=72 velocity=0 time=0@note_on channel=5 note=72 velocity=100 time=0@note_on channel=6 note=81 velocity=0 time=0@note_on channel=6 note=81 velocity=100 time=0@note_on channel=7 note=72 velocity=0 time=0@note_on channel=7 note=69 velocity=100 time=0@note_on channel=8 note=74 velocity=0 time=0@note_on channel=8 note=72 velocity=100 time=0@note_on channel=10 note=86 velocity=0 time=0@note_on channel=10 note=88 velocity=100 time=0@note_on channel=11 note=69 velocity=0 time=0@note_on channel=11 note=71 velocity=100 time=0@note_on channel=12 note=60 velocity=0 time=0@note_on channel=12 note=57 velocity=100 time=0@note_on channel=13 note=69 velocity=0 time=0@note_on channel=13 note=83 velocity=100 time=0@note_on channel=14 note=72 velocity=0 time=0@note_on channel=14 note=69 velocity=100 time=0@note_on channel=5 note=72 velocity=0 time=0.15872999999999998@note_on channel=5 note=72 velocity=100 time=0@note_on channel=8 note=72 velocity=0 time=0@note_on channel=8 note=71 velocity=100 time=0@note_on channel=10 note=88 velocity=0 time=0@note_on channel=10 note=81 velocity=100 time=0@note_on channel=1 note=45 velocity=0 time=0.15872999999999998@note_on channel=1 note=38 velocity=100 time=0@note_on channel=4 note=72 velocity=0 time=0@note_on channel=4 note=74 velocity=100 time=0@note_on channel=5 note=72 velocity=0 time=0@note_on channel=5 note=69 velocity=100 time=0@note_on channel=6 note=81 velocity=0 time=0@note_on channel=6 note=69 velocity=100 time=0@note_on channel=7 note=69 velocity=0 time=0@note_on channel=7 note=72 velocity=100 time=0@note_on channel=8 note=71 velocity=0 time=0@note_on channel=8 note=69 velocity=100 time=0@note_on channel=10 note=81 velocity=0 time=0@note_on channel=10 note=93 velocity=100 time=0@note_on channel=11 note=71 velocity=0 time=0@note_on channel=11 note=72 velocity=100 time=0@note_on channel=12 note=57 velocity=0 time=0@note_on channel=12 note=64 velocity=100 time=0@note_on channel=13 note=83 velocity=0 time=0@note_on channel=13 note=84 velocity=100 time=0@note_on channel=14 note=69 velocity=0 time=0@note_on channel=14 note=76 velocity=100 time=0@note_on channel=5 note=69 velocity=0 time=0.15872999999999998@note_on channel=5 note=72 velocity=100 time=0@note_on channel=7 note=72 velocity=0 time=0@note_on channel=7 note=74 velocity=100 time=0@note_on channel=8 note=69 velocity=0 time=0@note_on channel=8 note=68 velocity=100 time=0@note_on channel=10 note=93 velocity=0 time=0@note_on channel=10 note=92 velocity=100 time=0@note_on channel=12 note=64 velocity=0 time=0@note_on channel=12 note=62 velocity=100 time=0@note_on channel=4 note=74 velocity=0 time=0.15872999999999998@note_on channel=4 note=76 velocity=100 time=0@note_on channel=5 note=72 velocity=0 time=0@note_on channel=5 note=72 velocity=100 time=0@note_on channel=7 note=74 velocity=0 time=0@note_on channel=7 note=76 velocity=100 time=0@note_on channel=8 note=68 velocity=0 time=0@note_on channel=8 note=69 velocity=100 time=0@note_on channel=10 note=92 velocity=0 time=0@note_on channel=10 note=93 velocity=100 time=0@note_on channel=11 note=72 velocity=0 time=0@note_on channel=11 note=74 velocity=100 time=0@note_on channel=12 note=62 velocity=0 time=0@note_on channel=12 note=60 velocity=100 time=0@note_on channel=13 note=84 velocity=0 time=0@note_on channel=13 note=83 velocity=100 time=0@note_on channel=14 note=76 velocity=0 time=0@note_on channel=14 note=72 velocity=100 time=0@note_on channel=5 note=72 velocity=0 time=0.15872999999999998@note_on channel=5 note=72 velocity=100 time=0@note_on channel=6 note=69 velocity=0 time=0@note_on channel=6 note=71 velocity=100 time=0@note_on channel=8 note=69 velocity=0 time=0@note_on channel=8 note=71 velocity=100 time=0@note_on channel=10 note=93 velocity=0 time=0@note_on channel=10 note=95 velocity=100 time=0@note_on channel=12 note=60 velocity=0 time=0@note_on channel=12 note=59 velocity=100 time=0@note_on channel=4 note=76 velocity=0 time=0.15872999999999998@note_on channel=4 note=72 velocity=100 time=0@note_on channel=5 note=72 velocity=0 time=0@note_on channel=5 note=72 velocity=100 time=0@note_on channel=6 note=71 velocity=0 time=0@note_on channel=6 note=72 velocity=100 time=0@note_on channel=7 note=76 velocity=0 time=0@note_on channel=7 note=69 velocity=100 time=0@note_on channel=8 note=71 velocity=0 time=0@note_on channel=8 note=72 velocity=100 time=0@note_on channel=10 note=95 velocity=0 time=0@note_on channel=10 note=96 velocity=100 time=0@note_on channel=11 note=74 velocity=0 time=0@note_on channel=11 note=76 velocity=100 time=0@note_on channel=12 note=59 velocity=0 time=0@note_on channel=12 note=57 velocity=100 time=0@note_on channel=13 note=83 velocity=0 time=0@note_on channel=13 note=81 velocity=100 time=0@note_on channel=14 note=72 velocity=0 time=0@note_on channel=14 note=69 velocity=100 time=0@note_on channel=5 note=72 velocity=0 time=0.15872999999999998@note_on channel=5 note=72 velocity=100 time=0@note_on channel=6 note=72 velocity=0 time=0@note_on channel=6 note=74 velocity=100 time=0@note_on channel=8 note=72 velocity=0 time=0@note_on channel=8 note=69 velocity=100 time=0@note_on channel=10 note=96 velocity=0 time=0@note_on channel=10 note=93 velocity=100 time=0@note_on channel=1 note=38 velocity=0 time=0.15872999999999998@note_on channel=1 note=47 velocity=100 time=0@note_on channel=4 note=72 velocity=0 time=0@note_on channel=4 note=71 velocity=100 time=0@note_on channel=5 note=72 velocity=0 time=0@note_on channel=5 note=68 velocity=100 time=0@note_on channel=6 note=74 velocity=0 time=0@note_on channel=6 note=76 velocity=100 time=0@note_on channel=7 note=69 velocity=0 time=0@note_on channel=7 note=64 velocity=100 time=0@note_on channel=8 note=69 velocity=0 time=0@note_on channel=8 note=71 velocity=100 time=0@note_on channel=10 note=93 velocity=0 time=0@note_on channel=10 note=93 velocity=100 time=0@note_on channel=11 note=76 velocity=0 time=0@note_on channel=11 note=71 velocity=100 time=0@note_on channel=12 note=57 velocity=0 time=0@note_on channel=12 note=52 velocity=100 time=0@note_on channel=13 note=81 velocity=0 time=0@note_on channel=13 note=80 velocity=100 time=0@note_on channel=14 note=69 velocity=0 time=0@note_on channel=14 note=71 velocity=100 time=0@note_on channel=10 note=93 velocity=0 time=0.07936499999999999@note_on channel=10 note=92 velocity=100 time=0@note_on channel=5 note=68 velocity=0 time=0.07936499999999999@note_on channel=5 note=71 velocity=100 time=0@note_on channel=7 note=64 velocity=0 time=0@note_on channel=7 note=66 velocity=100 time=0@note_on channel=8 note=71 velocity=0 time=0@note_on channel=8 note=69 velocity=100 time=0@note_on channel=10 note=92 velocity=0 time=0@note_on channel=10 note=93 velocity=100 time=0@note_on channel=10 note=93 velocity=0 time=0.07936499999999999@note_on channel=10 note=92 velocity=100 time=0@note_on channel=5 note=71 velocity=0 time=0.07936499999999999@note_on channel=5 note=71 velocity=100 time=0@note_on channel=6 note=76 velocity=0 time=0@note_on channel=6 note=76 velocity=100 time=0@note_on channel=7 note=66 velocity=0 time=0@note_on channel=7 note=68 velocity=100 time=0@note_on channel=8 note=69 velocity=0 time=0@note_on channel=8 note=71 velocity=100 time=0@note_on channel=12 note=52 velocity=0 time=0@note_on channel=12 note=56 velocity=100 time=0@note_on channel=13 note=80 velocity=0 time=0@note_on channel=13 note=76 velocity=100 time=0@note_on channel=14 note=71 velocity=0 time=0@note_on channel=14 note=68 velocity=100 time=0@note_on channel=5 note=71 velocity=0 time=0.15872999999999998@note_on channel=5 note=71 velocity=100 time=0@note_on channel=8 note=71 velocity=0 time=0@note_on channel=8 note=69 velocity=100 time=0@note_on channel=4 note=71 velocity=0 time=0.15872999999999998@note_on channel=4 note=68 velocity=100 time=0@note_on channel=5 note=71 velocity=0 time=0@note_on channel=5 note=71 velocity=100 time=0@note_on channel=6 note=76 velocity=0 time=0@note_on channel=6 note=76 velocity=100 time=0@note_on channel=7 note=68 velocity=0 time=0@note_on channel=7 note=64 velocity=100 time=0@note_on channel=8 note=69 velocity=0 time=0@note_on channel=8 note=68 velocity=100 time=0@note_on channel=10 note=92 velocity=0 time=0@note_on channel=10 note=88 velocity=100 time=0@note_on channel=11 note=71 velocity=0 time=0@note_on channel=11 note=68 velocity=100 time=0@note_on channel=12 note=56 velocity=0 time=0@note_on channel=12 note=52 velocity=100 time=0@note_on channel=13 note=76 velocity=0 time=0@note_on channel=13 note=71 velocity=100 time=0@note_on channel=14 note=68 velocity=0 time=0@note_on channel=14 note=64 velocity=100 time=0@note_on channel=5 note=71 velocity=0 time=0.15872999999999998@note_on channel=5 note=71 velocity=100 time=0@note_on channel=8 note=68 velocity=0 time=0@note_on channel=8 note=66 velocity=100 time=0@note_on channel=1 note=47 velocity=0 time=0.15872999999999998@note_on channel=1 note=40 velocity=100 time=0@note_on channel=4 note=68 velocity=0 time=0@note_on channel=4 note=64 velocity=100 time=0@note_on channel=5 note=71 velocity=0 time=0@note_on channel=5 note=64 velocity=100 time=0@note_on channel=6 note=76 velocity=0 time=0@note_on channel=6 note=68 velocity=100 time=0@note_on channel=7 note=64 velocity=0 time=0@note_on channel=7 note=68 velocity=100 time=0@note_on channel=8 note=66 velocity=0 time=0@note_on channel=8 note=64 velocity=100 time=0@note_on channel=10 note=88 velocity=0 time=0@note_on channel=10 note=88 velocity=100 time=0@note_on channel=11 note=68 velocity=0 time=0@note_on channel=11 note=64 velocity=100 time=0@note_on channel=12 note=52 velocity=0 time=0@note_on channel=12 note=59 velocity=100 time=0@note_on channel=13 note=71 velocity=0 time=0@note_on channel=13 note=76 velocity=100 time=0@note_on channel=14 note=64 velocity=0 time=0@note_on channel=14 note=71 velocity=100 time=0@note_on channel=6 note=68 velocity=0 time=0.07936499999999999@note_on channel=6 note=69 velocity=100 time=0@note_on channel=5 note=64 velocity=0 time=0.07936499999999999@note_on channel=5 note=71 velocity=100 time=0@note_on channel=6 note=69 velocity=0 time=0@note_on channel=6 note=68 velocity=100 time=0@note_on channel=7 note=68 velocity=0 time=0@note_on channel=7 note=69 velocity=100 time=0@note_on channel=8 note=64 velocity=0 time=0@note_on channel=8 note=66 velocity=100 time=0@note_on channel=12 note=59 velocity=0 time=0@note_on channel=12 note=57 velocity=100 time=0@note_on channel=5 note=71 velocity=0 time=0.15872999999999998@note_on channel=5 note=71 velocity=100 time=0@note_on channel=6 note=68 velocity=0 time=0@note_on channel=6 note=64 velocity=100 time=0@note_on channel=7 note=69 velocity=0 time=0@note_on channel=7 note=71 velocity=100 time=0@note_on channel=8 note=66 velocity=0 time=0@note_on channel=8 note=68 velocity=100 time=0@note_on channel=12 note=57 velocity=0 time=0@note_on channel=12 note=56 velocity=100 time=0@note_on channel=13 note=76 velocity=0 time=0@note_on channel=13 note=77 velocity=100 time=0@note_on channel=14 note=71 velocity=0 time=0@note_on channel=14 note=68 velocity=100 time=0@note_on channel=13 note=77 velocity=0 time=0.07936499999999999@note_on channel=13 note=76 velocity=100 time=0@note_on channel=5 note=71 velocity=0 time=0.07936499999999999@note_on channel=5 note=71 velocity=100 time=0@note_on channel=8 note=68 velocity=0 time=0@note_on channel=8 note=69 velocity=100 time=0@note_on channel=12 note=56 velocity=0 time=0@note_on channel=12 note=54 velocity=100 time=0@note_on channel=13 note=76 velocity=0 time=0@note_on channel=13 note=77 velocity=100 time=0@note_on channel=13 note=77 velocity=0 time=0.07936499999999999@note_on channel=13 note=76 velocity=100 time=0@note_on channel=5 note=71 velocity=0 time=0.07936499999999999@note_on channel=5 note=71 velocity=100 time=0@note_on channel=6 note=64 velocity=0 time=0@note_on channel=6 note=64 velocity=100 time=0@note_on channel=7 note=71 velocity=0 time=0@note_on channel=7 note=64 velocity=100 time=0@note_on channel=8 note=69 velocity=0 time=0@note_on channel=8 note=68 velocity=100 time=0@note_on channel=12 note=54 velocity=0 time=0@note_on channel=12 note=52 velocity=100 time=0@note_on channel=14 note=68 velocity=0 time=0@note_on channel=14 note=64 velocity=100 time=0@note_on channel=5 note=71 velocity=0 time=0.15872999999999998@note_on channel=5 note=71 velocity=100 time=0@note_on channel=8 note=68 velocity=0 time=0@note_on channel=8 note=64 velocity=100 time=0@note_on channel=13 note=76 velocity=0 time=0@note_on channel=13 note=77 velocity=100 time=0@note_on channel=1 note=40 velocity=0 time=0.15872999999999998@note_on channel=1 note=48 velocity=100 time=0@note_on channel=4 note=64 velocity=0 time=0@note_on channel=4 note=72 velocity=100 time=0@note_on channel=5 note=71 velocity=0 time=0@note_on channel=5 note=76 velocity=100 time=0@note_on channel=6 note=64 velocity=0 time=0@note_on channel=6 note=84 velocity=100 time=0@note_on channel=7 note=64 velocity=0 time=0@note_on channel=7 note=72 velocity=100 time=0@note_on channel=8 note=64 velocity=0 time=0@note_on channel=8 note=72 velocity=100 time=0@note_on channel=10 note=88 velocity=0 time=0@note_on channel=10 note=84 velocity=100 time=0@note_on channel=11 note=64 velocity=0 time=0@note_on channel=11 note=76 velocity=100 time=0@note_on channel=12 note=52 velocity=0 time=0@note_on channel=12 note=60 velocity=100 time=0@note_on channel=13 note=77 velocity=0 time=0@note_on channel=13 note=79 velocity=100 time=0@note_on channel=14 note=64 velocity=0 time=0@note_on channel=14 note=79 velocity=100 time=0@note_on channel=14 note=79 velocity=0 time=0.07936499999999999@note_on channel=14 note=81 velocity=100 time=0@note_on channel=5 note=76 velocity=0 time=0.07936499999999999@note_on channel=5 note=79 velocity=100 time=0@note_on channel=7 note=72 velocity=0 time=0@note_on channel=7 note=74 velocity=100 time=0@note_on channel=8 note=72 velocity=0 time=0@note_on channel=8 note=71 velocity=100 time=0@note_on channel=10 note=84 velocity=0 time=0@note_on channel=10 note=83 velocity=100 time=0@note_on channel=14 note=81 velocity=0 time=0@note_on channel=14 note=79 velocity=100 time=0@note_on channel=5 note=79 velocity=0 time=0.15872999999999998@note_on channel=5 note=79 velocity=100 time=0@note_on channel=6 note=84 velocity=0 time=0@note_on channel=6 note=84 velocity=100 time=0@note_on channel=7 note=74 velocity=0 time=0@note_on channel=7 note=76 velocity=100 time=0@note_on channel=8 note=71 velocity=0 time=0@note_on channel=8 note=72 velocity=100 time=0@note_on channel=10 note=83 velocity=0 time=0@note_on channel=10 note=84 velocity=100 time=0@note_on channel=11 note=76 velocity=0 time=0@note_on channel=11 note=72 velocity=100 time=0@note_on channel=12 note=60 velocity=0 time=0@note_on channel=12 note=64 velocity=100 time=0@note_on channel=13 note=79 velocity=0 time=0@note_on channel=13 note=72 velocity=100 time=0@note_on channel=14 note=79 velocity=0 time=0@note_on channel=14 note=76 velocity=100 time=0@note_on channel=5 note=79 velocity=0 time=0.15872999999999998@note_on channel=5 note=79 velocity=100 time=0@note_on channel=8 note=72 velocity=0 time=0@note_on channel=8 note=74 velocity=100 time=0@note_on channel=10 note=84 velocity=0 time=0@note_on channel=10 note=86 velocity=100 time=0@note_on channel=4 note=72 velocity=0 time=0.15872999999999998@note_on channel=4 note=74 velocity=100 time=0@note_on channel=5 note=79 velocity=0 time=0@note_on channel=5 note=79 velocity=100 time=0@note_on channel=6 note=84 velocity=0 time=0@note_on channel=6 note=84 velocity=100 time=0@note_on channel=7 note=76 velocity=0 time=0@note_on channel=7 note=72 velocity=100 time=0@note_on channel=8 note=74 velocity=0 time=0@note_on channel=8 note=76 velocity=100 time=0@note_on channel=10 note=86 velocity=0 time=0@note_on channel=10 note=88 velocity=100 time=0@note_on channel=11 note=72 velocity=0 time=0@note_on channel=11 note=74 velocity=100 time=0@note_on channel=12 note=64 velocity=0 time=0@note_on channel=12 note=60 velocity=100 time=0@note_on channel=13 note=72 velocity=0 time=0@note_on channel=13 note=81 velocity=100 time=0@note_on channel=14 note=76 velocity=0 time=0@note_on channel=14 note=72 velocity=100 time=0@note_on channel=5 note=79 velocity=0 time=0.15872999999999998@note_on channel=5 note=79 velocity=100 time=0@note_on channel=8 note=76 velocity=0 time=0@note_on channel=8 note=74 velocity=100 time=0@note_on channel=10 note=88 velocity=0 time=0@note_on channel=10 note=89 velocity=100 time=0@note_on channel=1 note=48 velocity=0 time=0.15872999999999998@note_on channel=1 note=40 velocity=100 time=0@note_on channel=4 note=74 velocity=0 time=0@note_on channel=4 note=76 velocity=100 time=0@note_on channel=5 note=79 velocity=0 time=0@note_on channel=5 note=72 velocity=100 time=0@note_on channel=6 note=84 velocity=0 time=0@note_on channel=6 note=72 velocity=100 time=0@note_on channel=7 note=72 velocity=0 time=0@note_on channel=7 note=76 velocity=100 time=0@note_on channel=8 note=74 velocity=0 time=0@note_on channel=8 note=72 velocity=100 time=0@note_on channel=10 note=89 velocity=0 time=0@note_on channel=10 note=91 velocity=100 time=0@note_on channel=11 note=74 velocity=0 time=0@note_on channel=11 note=76 velocity=100 time=0@note_on channel=12 note=60 velocity=0 time=0@note_on channel=12 note=67 velocity=100 time=0@note_on channel=13 note=81 velocity=0 time=0@note_on channel=13 note=81 velocity=100 time=0@note_on channel=14 note=72 velocity=0 time=0@note_on channel=14 note=79 velocity=100 time=0@note_on channel=13 note=81 velocity=0 time=0.07936499999999999@note_on channel=13 note=79 velocity=100 time=0@note_on channel=14 note=79 velocity=0 time=0@note_on channel=14 note=81 velocity=100 time=0@note_on channel=5 note=72 velocity=0 time=0.07936499999999999@note_on channel=5 note=79 velocity=100 time=0@note_on channel=7 note=76 velocity=0 time=0@note_on channel=7 note=77 velocity=100 time=0@note_on channel=8 note=72 velocity=0 time=0@note_on channel=8 note=71 velocity=100 time=0@note_on channel=10 note=91 velocity=0 time=0@note_on channel=10 note=93 velocity=100 time=0@note_on channel=12 note=67 velocity=0 time=0@note_on channel=12 note=65 velocity=100 time=0@note_on channel=13 note=79 velocity=0 time=0@note_on channel=13 note=81 velocity=100 time=0@note_on channel=14 note=81 velocity=0 time=0@note_on channel=14 note=79 velocity=100 time=0@note_on channel=13 note=81 velocity=0 time=0.07936499999999999@note_on channel=13 note=79 velocity=100 time=0@note_on channel=5 note=79 velocity=0 time=0.07936499999999999@note_on channel=5 note=79 velocity=100 time=0@note_on channel=7 note=77 velocity=0 time=0@note_on channel=7 note=79 velocity=100 time=0@note_on channel=8 note=71 velocity=0 time=0@note_on channel=8 note=72 velocity=100 time=0@note_on channel=10 note=93 velocity=0 time=0@note_on channel=10 note=95 velocity=100 time=0@note_on channel=11 note=76 velocity=0 time=0@note_on channel=11 note=77 velocity=100 time=0@note_on channel=12 note=65 velocity=0 time=0@note_on channel=12 note=64 velocity=100 time=0@note_on channel=14 note=79 velocity=0 time=0@note_on channel=14 note=76 velocity=100 time=0@note_on channel=4 note=76 velocity=0 time=0.15872999999999998@note_on channel=4 note=74 velocity=100 time=0@note_on channel=5 note=79 velocity=0 time=0@note_on channel=5 note=79 velocity=100 time=0@note_on channel=6 note=72 velocity=0 time=0@note_on channel=6 note=74 velocity=100 time=0@note_on channel=8 note=72 velocity=0 time=0@note_on channel=8 note=74 velocity=100 time=0@note_on channel=10 note=95 velocity=0 time=0@note_on channel=10 note=91 velocity=100 time=0@note_on channel=12 note=64 velocity=0 time=0@note_on channel=12 note=62 velocity=100 time=0@note_on channel=13 note=79 velocity=0 time=0@note_on channel=13 note=77 velocity=100 time=0@note_on channel=4 note=74 velocity=0 time=0.15872999999999998@note_on channel=4 note=72 velocity=100 time=0@note_on channel=5 note=79 velocity=0 time=0@note_on channel=5 note=79 velocity=100 time=0@note_on channel=6 note=74 velocity=0 time=0@note_on channel=6 note=76 velocity=100 time=0@note_on channel=7 note=79 velocity=0 time=0@note_on channel=7 note=72 velocity=100 time=0@note_on channel=8 note=74 velocity=0 time=0@note_on channel=8 note=76 velocity=100 time=0@note_on channel=10 note=91 velocity=0 time=0@note_on channel=10 note=93 velocity=100 time=0@note_on channel=11 note=77 velocity=0 time=0@note_on channel=11 note=79 velocity=100 time=0@note_on channel=12 note=62 velocity=0 time=0@note_on channel=12 note=60 velocity=100 time=0@note_on channel=13 note=77 velocity=0 time=0@note_on channel=13 note=76 velocity=100 time=0@note_on channel=14 note=76 velocity=0 time=0@note_on channel=14 note=72 velocity=100 time=0@note_on channel=5 note=79 velocity=0 time=0.15872999999999998@note_on channel=5 note=79 velocity=100 time=0@note_on channel=6 note=76 velocity=0 time=0@note_on channel=6 note=77 velocity=100 time=0@note_on channel=8 note=76 velocity=0 time=0@note_on channel=8 note=74 velocity=100 time=0@note_on channel=10 note=93 velocity=0 time=0@note_on channel=10 note=95 velocity=100 time=0@note_on channel=1 note=40 velocity=0 time=0.15872999999999998@note_on channel=1 note=50 velocity=100 time=0@note_on channel=4 note=72 velocity=0 time=0@note_on channel=4 note=74 velocity=100 time=0@note_on channel=5 note=79 velocity=0 time=0@note_on channel=5 note=71 velocity=100 time=0@note_on channel=6 note=77 velocity=0 time=0@note_on channel=6 note=79 velocity=100 time=0@note_on channel=7 note=72 velocity=0 time=0@note_on channel=7 note=67 velocity=100 time=0@note_on channel=8 note=74 velocity=0 time=0@note_on channel=8 note=74 velocity=100 time=0@note_on channel=10 note=95 velocity=0 time=0@note_on channel=10 note=93 velocity=100 time=0@note_on channel=11 note=79 velocity=0 time=0@note_on channel=11 note=71 velocity=100 time=0@note_on channel=12 note=60 velocity=0 time=0@note_on channel=12 note=55 velocity=100 time=0@note_on channel=13 note=76 velocity=0 time=0@note_on channel=13 note=74 velocity=100 time=0@note_on channel=14 note=72 velocity=0 time=0@note_on channel=14 note=74 velocity=100 time=0@note_on channel=10 note=93 velocity=0 time=0.07936499999999999@note_on channel=10 note=91 velocity=100 time=0@note_on channel=14 note=74 velocity=0 time=0@note_on channel=14 note=72 velocity=100 time=0@note_on channel=5 note=71 velocity=0 time=0.07936499999999999@note_on channel=5 note=74 velocity=100 time=0@note_on channel=7 note=67 velocity=0 time=0@note_on channel=7 note=69 velocity=100 time=0@note_on channel=8 note=74 velocity=0 time=0@note_on channel=8 note=72 velocity=100 time=0@note_on channel=10 note=91 velocity=0 time=0@note_on channel=10 note=93 velocity=100 time=0@note_on channel=14 note=72 velocity=0 time=0@note_on channel=14 note=74 velocity=100 time=0@note_on channel=10 note=93 velocity=0 time=0.07936499999999999@note_on channel=10 note=91 velocity=100 time=0@note_on channel=5 note=74 velocity=0 time=0.07936499999999999@note_on channel=5 note=74 velocity=100 time=0@note_on channel=6 note=79 velocity=0 time=0@note_on channel=6 note=79 velocity=100 time=0@note_on channel=7 note=69 velocity=0 time=0@note_on channel=7 note=71 velocity=100 time=0@note_on channel=8 note=72 velocity=0 time=0@note_on channel=8 note=74 velocity=100 time=0@note_on channel=10 note=91 velocity=0 time=0@note_on channel=10 note=86 velocity=100 time=0@note_on channel=11 note=71 velocity=0 time=0@note_on channel=11 note=67 velocity=100 time=0@note_on channel=12 note=55 velocity=0 time=0@note_on channel=12 note=59 velocity=100 time=0@note_on channel=13 note=74 velocity=0 time=0@note_on channel=13 note=71 velocity=100 time=0@note_on channel=14 note=74 velocity=0 time=0@note_on channel=14 note=71 velocity=100 time=0@note_on channel=5 note=74 velocity=0 time=0.15872999999999998@note_on channel=5 note=74 velocity=100 time=0@note_on channel=8 note=74 velocity=0 time=0@note_on channel=8 note=76 velocity=100 time=0@note_on channel=4 note=74 velocity=0 time=0.15872999999999998@note_on channel=4 note=71 velocity=100 time=0@note_on channel=5 note=74 velocity=0 time=0@note_on channel=5 note=74 velocity=100 time=0@note_on channel=6 note=79 velocity=0 time=0@note_on channel=6 note=81 velocity=100 time=0@note_on channel=7 note=71 velocity=0 time=0@note_on channel=7 note=67 velocity=100 time=0@note_on channel=8 note=76 velocity=0 time=0@note_on channel=8 note=74 velocity=100 time=0@note_on channel=10 note=86 velocity=0 time=0@note_on channel=10 note=86 velocity=100 time=0@note_on channel=11 note=67 velocity=0 time=0@note_on channel=11 note=69 velocity=100 time=0@note_on channel=12 note=59 velocity=0 time=0@note_on channel=12 note=55 velocity=100 time=0@note_on channel=13 note=71 velocity=0 time=0@note_on channel=13 note=67 velocity=100 time=0@note_on channel=14 note=71 velocity=0 time=0@note_on channel=14 note=67 velocity=100 time=0@note_on channel=5 note=74 velocity=0 time=0.15872999999999998@note_on channel=5 note=74 velocity=100 time=0@note_on channel=8 note=74 velocity=0 time=0@note_on channel=8 note=72 velocity=100 time=0@note_on channel=1 note=50 velocity=0 time=0.15872999999999998@note_on channel=1 note=43 velocity=100 time=0@note_on channel=4 note=71 velocity=0 time=0@note_on channel=4 note=67 velocity=100 time=0@note_on channel=5 note=74 velocity=0 time=0@note_on channel=5 note=67 velocity=100 time=0@note_on channel=6 note=81 velocity=0 time=0@note_on channel=6 note=84 velocity=100 time=0@note_on channel=7 note=67 velocity=0 time=0@note_on channel=7 note=71 velocity=100 time=0@note_on channel=8 note=72 velocity=0 time=0@note_on channel=8 note=71 velocity=100 time=0@note_on channel=10 note=86 velocity=0 time=0@note_on channel=10 note=86 velocity=100 time=0@note_on channel=11 note=69 velocity=0 time=0@note_on channel=11 note=71 velocity=100 time=0@note_on channel=12 note=55 velocity=0 time=0@note_on channel=12 note=62 velocity=100 time=0@note_on channel=13 note=67 velocity=0 time=0@note_on channel=13 note=74 velocity=100 time=0@note_on channel=14 note=67 velocity=0 time=0@note_on channel=14 note=74 velocity=100 time=0@note_on channel=6 note=84 velocity=0 time=0.07936499999999999@note_on channel=6 note=83 velocity=100 time=0@note_on channel=14 note=74 velocity=0 time=0@note_on channel=14 note=72 velocity=100 time=0@note_on channel=5 note=67 velocity=0 time=0.07936499999999999@note_on channel=5 note=74 velocity=100 time=0@note_on channel=6 note=83 velocity=0 time=0@note_on channel=6 note=84 velocity=100 time=0@note_on channel=7 note=71 velocity=0 time=0@note_on channel=7 note=72 velocity=100 time=0@note_on channel=8 note=71 velocity=0 time=0@note_on channel=8 note=69 velocity=100 time=0@note_on channel=12 note=62 velocity=0 time=0@note_on channel=12 note=60 velocity=100 time=0@note_on channel=14 note=72 velocity=0 time=0@note_on channel=14 note=74 velocity=100 time=0@note_on channel=6 note=84 velocity=0 time=0.07936499999999999@note_on channel=6 note=83 velocity=100 time=0@note_on channel=5 note=74 velocity=0 time=0.07936499999999999@note_on channel=5 note=74 velocity=100 time=0@note_on channel=7 note=72 velocity=0 time=0@note_on channel=7 note=74 velocity=100 time=0@note_on channel=8 note=69 velocity=0 time=0@note_on channel=8 note=71 velocity=100 time=0@note_on channel=11 note=71 velocity=0 time=0@note_on channel=11 note=72 velocity=100 time=0@note_on channel=12 note=60 velocity=0 time=0@note_on channel=12 note=59 velocity=100 time=0@note_on channel=13 note=74 velocity=0 time=0@note_on channel=13 note=62 velocity=100 time=0@note_on channel=14 note=74 velocity=0 time=0@note_on channel=14 note=71 velocity=100 time=0@note_on channel=4 note=67 velocity=0 time=0.15872999999999998@note_on channel=4 note=69 velocity=100 time=0@note_on channel=5 note=74 velocity=0 time=0@note_on channel=5 note=74 velocity=100 time=0@note_on channel=6 note=83 velocity=0 time=0@note_on channel=6 note=81 velocity=100 time=0@note_on channel=8 note=71 velocity=0 time=0@note_on channel=8 note=72 velocity=100 time=0@note_on channel=10 note=86 velocity=0 time=0@note_on channel=10 note=88 velocity=100 time=0@note_on channel=12 note=59 velocity=0 time=0@note_on channel=12 note=57 velocity=100 time=0@note_on channel=4 note=69 velocity=0 time=0.15872999999999998@note_on channel=4 note=71 velocity=100 time=0@note_on channel=5 note=74 velocity=0 time=0@note_on channel=5 note=74 velocity=100 time=0@note_on channel=6 note=81 velocity=0 time=0@note_on channel=6 note=79 velocity=100 time=0@note_on channel=7 note=74 velocity=0 time=0@note_on channel=7 note=67 velocity=100 time=0@note_on channel=8 note=72 velocity=0 time=0@note_on channel=8 note=74 velocity=100 time=0@note_on channel=10 note=88 velocity=0 time=0@note_on channel=10 note=89 velocity=100 time=0@note_on channel=11 note=72 velocity=0 time=0@note_on channel=11 note=74 velocity=100 time=0@note_on channel=12 note=57 velocity=0 time=0@note_on channel=12 note=55 velocity=100 time=0@note_on channel=13 note=62 velocity=0 time=0@note_on channel=13 note=76 velocity=100 time=0@note_on channel=14 note=71 velocity=0 time=0@note_on channel=14 note=67 velocity=100 time=0@note_on channel=5 note=74 velocity=0 time=0.15872999999999998@note_on channel=5 note=74 velocity=100 time=0@note_on channel=8 note=74 velocity=0 time=0@note_on channel=8 note=72 velocity=100 time=0@note_on channel=13 note=76 velocity=0 time=0@note_on channel=13 note=74 velocity=100 time=0@note_on channel=1 note=43 velocity=0 time=0.15872999999999998@note_on channel=1 note=45 velocity=100 time=0@note_on channel=4 note=71 velocity=0 time=0@note_on channel=4 note=72 velocity=100 time=0@note_on channel=5 note=74 velocity=0 time=0@note_on channel=5 note=69 velocity=100 time=0@note_on channel=6 note=79 velocity=0 time=0@note_on channel=6 note=84 velocity=100 time=0@note_on channel=7 note=67 velocity=0 time=0@note_on channel=7 note=81 velocity=100 time=0@note_on channel=8 note=72 velocity=0 time=0@note_on channel=8 note=72 velocity=100 time=0@note_on channel=10 note=89 velocity=0 time=0@note_on channel=10 note=84 velocity=100 time=0@note_on channel=11 note=74 velocity=0 time=0@note_on channel=11 note=72 velocity=100 time=0@note_on channel=12 note=55 velocity=0 time=0@note_on channel=12 note=64 velocity=100 time=0@note_on channel=13 note=74 velocity=0 time=0@note_on channel=13 note=72 velocity=100 time=0@note_on channel=14 note=67 velocity=0 time=0@note_on channel=14 note=76 velocity=100 time=0@note_on channel=11 note=72 velocity=0 time=0.07936499999999999@note_on channel=11 note=74 velocity=100 time=0@note_on channel=5 note=69 velocity=0 time=0.07936499999999999@note_on channel=5 note=72 velocity=100 time=0@note_on channel=7 note=81 velocity=0 time=0@note_on channel=7 note=83 velocity=100 time=0@note_on channel=8 note=72 velocity=0 time=0@note_on channel=8 note=71 velocity=100 time=0@note_on channel=11 note=74 velocity=0 time=0@note_on channel=11 note=72 velocity=100 time=0@note_on channel=12 note=64 velocity=0 time=0@note_on channel=12 note=62 velocity=100 time=0@note_on channel=5 note=72 velocity=0 time=0.15872999999999998@note_on channel=5 note=72 velocity=100 time=0@note_on channel=6 note=84 velocity=0 time=0@note_on channel=6 note=83 velocity=100 time=0@note_on channel=7 note=83 velocity=0 time=0@note_on channel=7 note=84 velocity=100 time=0@note_on channel=8 note=71 velocity=0 time=0@note_on channel=8 note=72 velocity=100 time=0@note_on channel=10 note=84 velocity=0 time=0@note_on channel=10 note=83 velocity=100 time=0@note_on channel=11 note=72 velocity=0 time=0@note_on channel=11 note=69 velocity=100 time=0@note_on channel=12 note=62 velocity=0 time=0@note_on channel=12 note=60 velocity=100 time=0@note_on channel=13 note=72 velocity=0 time=0@note_on channel=13 note=71 velocity=100 time=0@note_on channel=14 note=76 velocity=0 time=0@note_on channel=14 note=72 velocity=100 time=0@note_on channel=4 note=72 velocity=0 time=0.15872999999999998@note_on channel=4 note=71 velocity=100 time=0@note_on channel=5 note=72 velocity=0 time=0@note_on channel=5 note=72 velocity=100 time=0@note_on channel=8 note=72 velocity=0 time=0@note_on channel=8 note=74 velocity=100 time=0@note_on channel=12 note=60 velocity=0 time=0@note_on channel=12 note=59 velocity=100 time=0@note_on channel=4 note=71 velocity=0 time=0.15872999999999998@note_on channel=4 note=69 velocity=100 time=0@note_on channel=5 note=72 velocity=0 time=0@note_on channel=5 note=72 velocity=100 time=0@note_on channel=6 note=83 velocity=0 time=0@note_on channel=6 note=81 velocity=100 time=0@note_on channel=7 note=84 velocity=0 time=0@note_on channel=7 note=81 velocity=100 time=0@note_on channel=8 note=74 velocity=0 time=0@note_on channel=8 note=76 velocity=100 time=0@note_on channel=10 note=83 velocity=0 time=0@note_on channel=10 note=81 velocity=100 time=0@note_on channel=11 note=69 velocity=0 time=0@note_on channel=11 note=72 velocity=100 time=0@note_on channel=12 note=59 velocity=0 time=0@note_on channel=12 note=57 velocity=100 time=0@note_on channel=13 note=71 velocity=0 time=0@note_on channel=13 note=69 velocity=100 time=0@note_on channel=14 note=72 velocity=0 time=0@note_on channel=14 note=69 velocity=100 time=0@note_on channel=5 note=72 velocity=0 time=0.15872999999999998@note_on channel=5 note=72 velocity=100 time=0@note_on channel=8 note=76 velocity=0 time=0@note_on channel=8 note=74 velocity=100 time=0@note_on channel=1 note=45 velocity=0 time=0.15872999999999998@note_on channel=1 note=38 velocity=100 time=0@note_on channel=4 note=69 velocity=0 time=0@note_on channel=4 note=72 velocity=100 time=0@note_on channel=5 note=72 velocity=0 time=0@note_on channel=5 note=64 velocity=100 time=0@note_on channel=6 note=81 velocity=0 time=0@note_on channel=6 note=81 velocity=100 time=0@note_on channel=7 note=81 velocity=0 time=0@note_on channel=7 note=80 velocity=100 time=0@note_on channel=8 note=74 velocity=0 time=0@note_on channel=8 note=74 velocity=100 time=0@note_on channel=10 note=81 velocity=0 time=0@note_on channel=10 note=81 velocity=100 time=0@note_on channel=11 note=72 velocity=0 time=0@note_on channel=11 note=71 velocity=100 time=0@note_on channel=12 note=57 velocity=0 time=0@note_on channel=12 note=59 velocity=100 time=0@note_on channel=13 note=69 velocity=0 time=0@note_on channel=13 note=71 velocity=100 time=0@note_on channel=14 note=69 velocity=0 time=0@note_on channel=14 note=71 velocity=100 time=0@note_on channel=4 note=72 velocity=0 time=0.07936499999999999@note_on channel=4 note=71 velocity=100 time=0@note_on channel=6 note=81 velocity=0 time=0@note_on channel=6 note=80 velocity=100 time=0@note_on channel=10 note=81 velocity=0 time=0@note_on channel=10 note=80 velocity=100 time=0@note_on channel=11 note=71 velocity=0 time=0@note_on channel=11 note=72 velocity=100 time=0@note_on channel=14 note=71 velocity=0 time=0@note_on channel=14 note=72 velocity=100 time=0@note_on channel=4 note=71 velocity=0 time=0.07936499999999999@note_on channel=4 note=72 velocity=100 time=0@note_on channel=5 note=64 velocity=0 time=0@note_on channel=5 note=71 velocity=100 time=0@note_on channel=6 note=80 velocity=0 time=0@note_on channel=6 note=81 velocity=100 time=0@note_on channel=7 note=80 velocity=0 time=0@note_on channel=7 note=81 velocity=100 time=0@note_on channel=8 note=74 velocity=0 time=0@note_on channel=8 note=72 velocity=100 time=0@note_on channel=10 note=80 velocity=0 time=0@note_on channel=10 note=81 velocity=100 time=0@note_on channel=11 note=72 velocity=0 time=0@note_on channel=11 note=71 velocity=100 time=0@note_on channel=12 note=59 velocity=0 time=0@note_on channel=12 note=57 velocity=100 time=0@note_on channel=14 note=72 velocity=0 time=0@note_on channel=14 note=71 velocity=100 time=0@note_on channel=4 note=72 velocity=0 time=0.07936499999999999@note_on channel=4 note=71 velocity=100 time=0@note_on channel=6 note=81 velocity=0 time=0@note_on channel=6 note=80 velocity=100 time=0@note_on channel=10 note=81 velocity=0 time=0@note_on channel=10 note=80 velocity=100 time=0@note_on channel=5 note=71 velocity=0 time=0.07936499999999999@note_on channel=5 note=71 velocity=100 time=0@note_on channel=7 note=81 velocity=0 time=0@note_on channel=7 note=83 velocity=100 time=0@note_on channel=8 note=72 velocity=0 time=0@note_on channel=8 note=71 velocity=100 time=0@note_on channel=11 note=71 velocity=0 time=0@note_on channel=11 note=68 velocity=100 time=0@note_on channel=12 note=57 velocity=0 time=0@note_on channel=12 note=56 velocity=100 time=0@note_on channel=13 note=71 velocity=0 time=0@note_on channel=13 note=68 velocity=100 time=0@note_on channel=14 note=71 velocity=0 time=0@note_on channel=14 note=68 velocity=100 time=0@note_on channel=4 note=71 velocity=0 time=0.15872999999999998@note_on channel=4 note=69 velocity=100 time=0@note_on channel=5 note=71 velocity=0 time=0@note_on channel=5 note=71 velocity=100 time=0@note_on channel=6 note=80 velocity=0 time=0@note_on channel=6 note=78 velocity=100 time=0@note_on channel=8 note=71 velocity=0 time=0@note_on channel=8 note=69 velocity=100 time=0@note_on channel=10 note=80 velocity=0 time=0@note_on channel=10 note=78 velocity=100 time=0@note_on channel=12 note=56 velocity=0 time=0@note_on channel=12 note=54 velocity=100 time=0@note_on channel=4 note=69 velocity=0 time=0.15872999999999998@note_on channel=4 note=68 velocity=100 time=0@note_on channel=5 note=71 velocity=0 time=0@note_on channel=5 note=71 velocity=100 time=0@note_on channel=6 note=78 velocity=0 time=0@note_on channel=6 note=80 velocity=100 time=0@note_on channel=7 note=83 velocity=0 time=0@note_on channel=7 note=80 velocity=100 time=0@note_on channel=8 note=69 velocity=0 time=0@note_on channel=8 note=71 velocity=100 time=0@note_on channel=10 note=78 velocity=0 time=0@note_on channel=10 note=80 velocity=100 time=0@note_on channel=11 note=68 velocity=0 time=0@note_on channel=11 note=64 velocity=100 time=0@note_on channel=12 note=54 velocity=0 time=0@note_on channel=12 note=52 velocity=100 time=0@note_on channel=13 note=68 velocity=0 time=0@note_on channel=13 note=64 velocity=100 time=0@note_on channel=14 note=68 velocity=0 time=0@note_on channel=14 note=64 velocity=100 time=0@note_on channel=5 note=71 velocity=0 time=0.15872999999999998@note_on channel=5 note=71 velocity=100 time=0@note_on channel=8 note=71 velocity=0 time=0@note_on channel=8 note=68 velocity=100 time=0@note_on channel=1 note=38 velocity=0 time=0.15872999999999998@note_on channel=1 note=45 velocity=100 time=0@note_on channel=4 note=68 velocity=0 time=0@note_on channel=4 note=69 velocity=100 time=0@note_on channel=5 note=71 velocity=0 time=0@note_on channel=5 note=69 velocity=100 time=0@note_on channel=6 note=80 velocity=0 time=0@note_on channel=6 note=81 velocity=100 time=0@note_on channel=7 note=80 velocity=0 time=0@note_on channel=7 note=81 velocity=100 time=0@note_on channel=8 note=68 velocity=0 time=0@note_on channel=8 note=69 velocity=100 time=0@note_on channel=10 note=80 velocity=0 time=0@note_on channel=10 note=81 velocity=100 time=0@note_on channel=11 note=64 velocity=0 time=0@note_on channel=11 note=69 velocity=100 time=0@note_on channel=12 note=52 velocity=0 time=0@note_on channel=12 note=57 velocity=100 time=0@note_on channel=13 note=64 velocity=0 time=0@note_on channel=13 note=69 velocity=100 time=0@note_on channel=14 note=64 velocity=0 time=0@note_on channel=14 note=69 velocity=100 time=0@note_on channel=7 note=81 velocity=0 time=0.07936499999999999@note_on channel=7 note=80 velocity=100 time=0@note_on channel=7 note=80 velocity=0 time=0.07936499999999999@note_on channel=7 note=81 velocity=100 time=0@note_on channel=4 note=69 velocity=0 time=0.79365@note_on channel=4 note=69 velocity=100 time=0@note_on channel=5 note=69 velocity=0 time=0@note_on channel=5 note=69 velocity=100 time=0@note_on channel=6 note=81 velocity=0 time=0@note_on channel=6 note=81 velocity=100 time=0@note_on channel=7 note=81 velocity=0 time=0@note_on channel=7 note=81 velocity=100 time=0@note_on channel=8 note=69 velocity=0 time=0@note_on channel=8 note=69 velocity=100 time=0@note_on channel=10 note=81 velocity=0 time=0@note_on channel=10 note=81 velocity=100 time=0@note_on channel=11 note=69 velocity=0 time=0@note_on channel=11 note=69 velocity=100 time=0@note_on channel=12 note=57 velocity=0 time=0@note_on channel=12 note=57 velocity=100 time=0@note_on channel=13 note=69 velocity=0 time=0@note_on channel=13 note=69 velocity=100 time=0@note_on channel=14 note=69 velocity=0 time=0@note_on channel=14 note=69 velocity=100 time=0@note_on channel=12 note=57 velocity=0 time=0.07936499999999999@note_on channel=12 note=56 velocity=100 time=0@note_on channel=12 note=56 velocity=0 time=0.07936499999999999@note_on channel=12 note=57 velocity=100 time=0@note_on channel=1 note=45 velocity=0 time=0.79365@note_on channel=1 note=48 velocity=100 time=0@note_on channel=4 note=69 velocity=0 time=0@note_on channel=5 note=69 velocity=0 time=0@note_on channel=5 note=72 velocity=100 time=0@note_on channel=6 note=81 velocity=0 time=0@note_on channel=6 note=72 velocity=100 time=0@note_on channel=7 note=81 velocity=0 time=0@note_on channel=7 note=84 velocity=100 time=0@note_on channel=8 note=69 velocity=0 time=0@note_on channel=8 note=69 velocity=100 time=0@note_on channel=10 note=81 velocity=0 time=0@note_on channel=10 note=84 velocity=100 time=0@note_on channel=11 note=69 velocity=0 time=0@note_on channel=11 note=69 velocity=100 time=0@note_on channel=12 note=57 velocity=0 time=0@note_on channel=12 note=60 velocity=100 time=0@note_on channel=13 note=69 velocity=0 time=0@note_on channel=13 note=69 velocity=100 time=0@note_on channel=14 note=69 velocity=0 time=0@note_on channel=14 note=79 velocity=100 time=0@note_on channel=6 note=72 velocity=0 time=0.15872999999999998@note_on channel=6 note=76 velocity=100 time=0@note_on channel=8 note=69 velocity=0 time=0@note_on channel=8 note=71 velocity=100 time=0@note_on channel=10 note=84 velocity=0 time=0@note_on channel=10 note=83 velocity=100 time=0@note_on channel=11 note=69 velocity=0 time=0@note_on channel=11 note=71 velocity=100 time=0@note_on channel=6 note=76 velocity=0 time=0.15872999999999998@note_on channel=6 note=76 velocity=100 time=0@note_on channel=7 note=84 velocity=0 time=0@note_on channel=7 note=84 velocity=100 time=0@note_on channel=8 note=71 velocity=0 time=0@note_on channel=8 note=72 velocity=100 time=0@note_on channel=10 note=83 velocity=0 time=0@note_on channel=10 note=84 velocity=100 time=0@note_on channel=11 note=71 velocity=0 time=0@note_on channel=11 note=72 velocity=100 time=0@note_on channel=12 note=60 velocity=0 time=0@note_on channel=12 note=57 velocity=100 time=0@note_on channel=13 note=69 velocity=0 time=0@note_on channel=13 note=72 velocity=100 time=0@note_on channel=14 note=79 velocity=0 time=0@note_on channel=14 note=72 velocity=100 time=0@note_on channel=6 note=76 velocity=0 time=0.15872999999999998@note_on channel=6 note=76 velocity=100 time=0@note_on channel=10 note=84 velocity=0 time=0@note_on channel=10 note=86 velocity=100 time=0@note_on channel=11 note=72 velocity=0 time=0@note_on channel=11 note=74 velocity=100 time=0@note_on channel=5 note=72 velocity=0 time=0.15872999999999998@note_on channel=5 note=74 velocity=100 time=0@note_on channel=6 note=76 velocity=0 time=0@note_on channel=6 note=76 velocity=100 time=0@note_on channel=7 note=84 velocity=0 time=0@note_on channel=7 note=84 velocity=100 time=0@note_on channel=8 note=72 velocity=0 time=0@note_on channel=8 note=69 velocity=100 time=0@note_on channel=10 note=86 velocity=0 time=0@note_on channel=10 note=88 velocity=100 time=0@note_on channel=11 note=74 velocity=0 time=0@note_on channel=11 note=76 velocity=100 time=0@note_on channel=12 note=57 velocity=0 time=0@note_on channel=12 note=59 velocity=100 time=0@note_on channel=13 note=72 velocity=0 time=0@note_on channel=13 note=69 velocity=100 time=0@note_on channel=14 note=72 velocity=0 time=0@note_on channel=14 note=81 velocity=100 time=0@note_on channel=6 note=76 velocity=0 time=0.15872999999999998@note_on channel=6 note=76 velocity=100 time=0@note_on channel=10 note=88 velocity=0 time=0@note_on channel=10 note=86 velocity=100 time=0@note_on channel=11 note=76 velocity=0 time=0@note_on channel=11 note=69 velocity=100 time=0@note_on channel=1 note=48 velocity=0 time=0.15872999999999998@note_on channel=1 note=40 velocity=100 time=0@note_on channel=5 note=74 velocity=0 time=0@note_on channel=5 note=76 velocity=100 time=0@note_on channel=6 note=76 velocity=0 time=0@note_on channel=6 note=72 velocity=100 time=0@note_on channel=7 note=84 velocity=0 time=0@note_on channel=7 note=72 velocity=100 time=0@note_on channel=8 note=69 velocity=0 time=0@note_on channel=8 note=72 velocity=100 time=0@note_on channel=10 note=86 velocity=0 time=0@note_on channel=10 note=84 velocity=100 time=0@note_on channel=11 note=69 velocity=0 time=0@note_on channel=11 note=81 velocity=100 time=0@note_on channel=12 note=59 velocity=0 time=0@note_on channel=12 note=60 velocity=100 time=0@note_on channel=13 note=69 velocity=0 time=0@note_on channel=13 note=76 velocity=100 time=0@note_on channel=14 note=81 velocity=0 time=0@note_on channel=14 note=81 velocity=100 time=0@note_on channel=14 note=81 velocity=0 time=0.07936499999999999@note_on channel=14 note=79 velocity=100 time=0@note_on channel=6 note=72 velocity=0 time=0.07936499999999999@note_on channel=6 note=76 velocity=100 time=0@note_on channel=8 note=72 velocity=0 time=0@note_on channel=8 note=74 velocity=100 time=0@note_on channel=10 note=84 velocity=0 time=0@note_on channel=10 note=83 velocity=100 time=0@note_on channel=11 note=81 velocity=0 time=0@note_on channel=11 note=80 velocity=100 time=0@note_on channel=13 note=76 velocity=0 time=0@note_on channel=13 note=74 velocity=100 time=0@note_on channel=14 note=79 velocity=0 time=0@note_on channel=14 note=81 velocity=100 time=0@note_on channel=14 note=81 velocity=0 time=0.07936499999999999@note_on channel=14 note=79 velocity=100 time=0@note_on channel=6 note=76 velocity=0 time=0.07936499999999999@note_on channel=6 note=76 velocity=100 time=0@note_on channel=7 note=72 velocity=0 time=0@note_on channel=7 note=72 velocity=100 time=0@note_on channel=8 note=74 velocity=0 time=0@note_on channel=8 note=76 velocity=100 time=0@note_on channel=10 note=83 velocity=0 time=0@note_on channel=10 note=84 velocity=100 time=0@note_on channel=11 note=80 velocity=0 time=0@note_on channel=11 note=81 velocity=100 time=0@note_on channel=12 note=60 velocity=0 time=0@note_on channel=12 note=62 velocity=100 time=0@note_on channel=13 note=74 velocity=0 time=0@note_on channel=13 note=72 velocity=100 time=0@note_on channel=6 note=76 velocity=0 time=0.15872999999999998@note_on channel=6 note=76 velocity=100 time=0@note_on channel=10 note=84 velocity=0 time=0@note_on channel=10 note=86 velocity=100 time=0@note_on channel=11 note=81 velocity=0 time=0@note_on channel=11 note=83 velocity=100 time=0@note_on channel=13 note=72 velocity=0 time=0@note_on channel=13 note=71 velocity=100 time=0@note_on channel=14 note=79 velocity=0 time=0@note_on channel=14 note=77 velocity=100 time=0@note_on channel=5 note=76 velocity=0 time=0.15872999999999998@note_on channel=5 note=76 velocity=100 time=0@note_on channel=6 note=76 velocity=0 time=0@note_on channel=6 note=76 velocity=100 time=0@note_on channel=7 note=72 velocity=0 time=0@note_on channel=7 note=72 velocity=100 time=0@note_on channel=8 note=76 velocity=0 time=0@note_on channel=8 note=69 velocity=100 time=0@note_on channel=10 note=86 velocity=0 time=0@note_on channel=10 note=88 velocity=100 time=0@note_on channel=11 note=83 velocity=0 time=0@note_on channel=11 note=84 velocity=100 time=0@note_on channel=12 note=62 velocity=0 time=0@note_on channel=12 note=64 velocity=100 time=0@note_on channel=13 note=71 velocity=0 time=0@note_on channel=13 note=69 velocity=100 time=0@note_on channel=14 note=77 velocity=0 time=0@note_on channel=14 note=76 velocity=100 time=0@note_on channel=6 note=76 velocity=0 time=0.15872999999999998@note_on channel=6 note=76 velocity=100 time=0@note_on channel=10 note=88 velocity=0 time=0@note_on channel=10 note=86 velocity=100 time=0@note_on channel=11 note=84 velocity=0 time=0@note_on channel=11 note=81 velocity=100 time=0@note_on channel=1 note=40 velocity=0 time=0.15872999999999998@note_on channel=1 note=50 velocity=100 time=0@note_on channel=5 note=76 velocity=0 time=0@note_on channel=5 note=74 velocity=100 time=0@note_on channel=6 note=76 velocity=0 time=0@note_on channel=6 note=71 velocity=100 time=0@note_on channel=7 note=72 velocity=0 time=0@note_on channel=7 note=79 velocity=100 time=0@note_on channel=8 note=69 velocity=0 time=0@note_on channel=8 note=67 velocity=100 time=0@note_on channel=10 note=86 velocity=0 time=0@note_on channel=10 note=83 velocity=100 time=0@note_on channel=11 note=81 velocity=0 time=0@note_on channel=11 note=84 velocity=100 time=0@note_on channel=12 note=64 velocity=0 time=0@note_on channel=12 note=59 velocity=100 time=0@note_on channel=13 note=69 velocity=0 time=0@note_on channel=13 note=67 velocity=100 time=0@note_on channel=14 note=76 velocity=0 time=0@note_on channel=14 note=74 velocity=100 time=0@note_on channel=11 note=84 velocity=0 time=0.07936499999999999@note_on channel=11 note=83 velocity=100 time=0@note_on channel=6 note=71 velocity=0 time=0.07936499999999999@note_on channel=6 note=74 velocity=100 time=0@note_on channel=8 note=67 velocity=0 time=0@note_on channel=8 note=69 velocity=100 time=0@note_on channel=10 note=83 velocity=0 time=0@note_on channel=10 note=81 velocity=100 time=0@note_on channel=11 note=83 velocity=0 time=0@note_on channel=11 note=84 velocity=100 time=0@note_on channel=11 note=84 velocity=0 time=0.07936499999999999@note_on channel=11 note=83 velocity=100 time=0@note_on channel=6 note=74 velocity=0 time=0.07936499999999999@note_on channel=6 note=74 velocity=100 time=0@note_on channel=7 note=79 velocity=0 time=0@note_on channel=7 note=79 velocity=100 time=0@note_on channel=8 note=69 velocity=0 time=0@note_on channel=8 note=71 velocity=100 time=0@note_on channel=10 note=81 velocity=0 time=0@note_on channel=10 note=83 velocity=100 time=0@note_on channel=12 note=59 velocity=0 time=0@note_on channel=12 note=55 velocity=100 time=0@note_on channel=13 note=67 velocity=0 time=0@note_on channel=13 note=71 velocity=100 time=0@note_on channel=14 note=74 velocity=0 time=0@note_on channel=14 note=71 velocity=100 time=0@note_on channel=6 note=74 velocity=0 time=0.15872999999999998@note_on channel=6 note=74 velocity=100 time=0@note_on channel=10 note=83 velocity=0 time=0@note_on channel=10 note=84 velocity=100 time=0@note_on channel=5 note=74 velocity=0 time=0.15872999999999998@note_on channel=5 note=71 velocity=100 time=0@note_on channel=6 note=74 velocity=0 time=0@note_on channel=6 note=74 velocity=100 time=0@note_on channel=7 note=79 velocity=0 time=0@note_on channel=7 note=79 velocity=100 time=0@note_on channel=8 note=71 velocity=0 time=0@note_on channel=8 note=67 velocity=100 time=0@note_on channel=10 note=84 velocity=0 time=0@note_on channel=10 note=86 velocity=100 time=0@note_on channel=11 note=83 velocity=0 time=0@note_on channel=11 note=79 velocity=100 time=0@note_on channel=12 note=55 velocity=0 time=0@note_on channel=12 note=57 velocity=100 time=0@note_on channel=13 note=71 velocity=0 time=0@note_on channel=13 note=67 velocity=100 time=0@note_on channel=14 note=71 velocity=0 time=0@note_on channel=14 note=67 velocity=100 time=0@note_on channel=6 note=74 velocity=0 time=0.15872999999999998@note_on channel=6 note=74 velocity=100 time=0@note_on channel=10 note=86 velocity=0 time=0@note_on channel=10 note=84 velocity=100 time=0@note_on channel=1 note=50 velocity=0 time=0.15872999999999998@note_on channel=1 note=43 velocity=100 time=0@note_on channel=5 note=71 velocity=0 time=0@note_on channel=5 note=67 velocity=100 time=0@note_on channel=6 note=74 velocity=0 time=0@note_on channel=6 note=71 velocity=100 time=0@note_on channel=7 note=79 velocity=0 time=0@note_on channel=7 note=67 velocity=100 time=0@note_on channel=8 note=67 velocity=0 time=0@note_on channel=8 note=71 velocity=100 time=0@note_on channel=10 note=84 velocity=0 time=0@note_on channel=10 note=83 velocity=100 time=0@note_on channel=11 note=79 velocity=0 time=0@note_on channel=11 note=79 velocity=100 time=0@note_on channel=12 note=57 velocity=0 time=0@note_on channel=12 note=59 velocity=100 time=0@note_on channel=13 note=67 velocity=0 time=0@note_on channel=13 note=74 velocity=100 time=0@note_on channel=14 note=67 velocity=0 time=0@note_on channel=14 note=74 velocity=100 time=0@note_on channel=6 note=71 velocity=0 time=0.15872999999999998@note_on channel=6 note=74 velocity=100 time=0@note_on channel=8 note=71 velocity=0 time=0@note_on channel=8 note=72 velocity=100 time=0@note_on channel=10 note=83 velocity=0 time=0@note_on channel=10 note=81 velocity=100 time=0@note_on channel=13 note=74 velocity=0 time=0@note_on channel=13 note=72 velocity=100 time=0@note_on channel=6 note=74 velocity=0 time=0.15872999999999998@note_on channel=6 note=74 velocity=100 time=0@note_on channel=8 note=72 velocity=0 time=0@note_on channel=8 note=74 velocity=100 time=0@note_on channel=10 note=81 velocity=0 time=0@note_on channel=10 note=83 velocity=100 time=0@note_on channel=12 note=59 velocity=0 time=0@note_on channel=12 note=60 velocity=100 time=0@note_on channel=13 note=72 velocity=0 time=0@note_on channel=13 note=71 velocity=100 time=0@note_on channel=14 note=74 velocity=0 time=0@note_on channel=14 note=62 velocity=100 time=0@note_on channel=6 note=74 velocity=0 time=0.15872999999999998@note_on channel=6 note=74 velocity=100 time=0@note_on channel=7 note=67 velocity=0 time=0@note_on channel=7 note=69 velocity=100 time=0@note_on channel=10 note=83 velocity=0 time=0@note_on channel=10 note=84 velocity=100 time=0@note_on channel=13 note=71 velocity=0 time=0@note_on channel=13 note=69 velocity=100 time=0@note_on channel=6 note=74 velocity=0 time=0.15872999999999998@note_on channel=6 note=74 velocity=100 time=0@note_on channel=7 note=69 velocity=0 time=0@note_on channel=7 note=71 velocity=100 time=0@note_on channel=8 note=74 velocity=0 time=0@note_on channel=8 note=67 velocity=100 time=0@note_on channel=10 note=84 velocity=0 time=0@note_on channel=10 note=86 velocity=100 time=0@note_on channel=12 note=60 velocity=0 time=0@note_on channel=12 note=62 velocity=100 time=0@note_on channel=13 note=69 velocity=0 time=0@note_on channel=13 note=67 velocity=100 time=0@note_on channel=14 note=62 velocity=0 time=0@note_on channel=14 note=77 velocity=100 time=0@note_on channel=6 note=74 velocity=0 time=0.15872999999999998@note_on channel=6 note=74 velocity=100 time=0@note_on channel=10 note=86 velocity=0 time=0@note_on channel=10 note=84 velocity=100 time=0@note_on channel=14 note=77 velocity=0 time=0@note_on channel=14 note=79 velocity=100 time=0@note_on channel=1 note=43 velocity=0 time=0.15872999999999998@note_on channel=1 note=45 velocity=100 time=0@note_on channel=5 note=67 velocity=0 time=0@note_on channel=5 note=69 velocity=100 time=0@note_on channel=6 note=74 velocity=0 time=0@note_on channel=6 note=69 velocity=100 time=0@note_on channel=7 note=71 velocity=0 time=0@note_on channel=7 note=81 velocity=100 time=0@note_on channel=8 note=67 velocity=0 time=0@note_on channel=8 note=69 velocity=100 time=0@note_on channel=10 note=84 velocity=0 time=0@note_on channel=10 note=84 velocity=100 time=0@note_on channel=11 note=79 velocity=0 time=0@note_on channel=11 note=69 velocity=100 time=0@note_on channel=12 note=62 velocity=0 time=0@note_on channel=12 note=60 velocity=100 time=0@note_on channel=13 note=67 velocity=0 time=0@note_on channel=13 note=69 velocity=100 time=0@note_on channel=14 note=79 velocity=0 time=0@note_on channel=14 note=81 velocity=100 time=0@note_on channel=6 note=69 velocity=0 time=0.15872999999999998@note_on channel=6 note=72 velocity=100 time=0@note_on channel=8 note=69 velocity=0 time=0@note_on channel=8 note=71 velocity=100 time=0@note_on channel=10 note=84 velocity=0 time=0@note_on channel=10 note=83 velocity=100 time=0@note_on channel=11 note=69 velocity=0 time=0@note_on channel=11 note=71 velocity=100 time=0@note_on channel=6 note=72 velocity=0 time=0.15872999999999998@note_on channel=6 note=72 velocity=100 time=0@note_on channel=7 note=81 velocity=0 time=0@note_on channel=7 note=81 velocity=100 time=0@note_on channel=8 note=71 velocity=0 time=0@note_on channel=8 note=72 velocity=100 time=0@note_on channel=10 note=83 velocity=0 time=0@note_on channel=10 note=84 velocity=100 time=0@note_on channel=11 note=71 velocity=0 time=0@note_on channel=11 note=72 velocity=100 time=0@note_on channel=12 note=60 velocity=0 time=0@note_on channel=12 note=57 velocity=100 time=0@note_on channel=13 note=69 velocity=0 time=0@note_on channel=13 note=72 velocity=100 time=0@note_on channel=14 note=81 velocity=0 time=0@note_on channel=14 note=69 velocity=100 time=0@note_on channel=5 note=69 velocity=0 time=0.15872999999999998@note_on channel=5 note=71 velocity=100 time=0@note_on channel=6 note=72 velocity=0 time=0@note_on channel=6 note=72 velocity=100 time=0@note_on channel=10 note=84 velocity=0 time=0@note_on channel=10 note=86 velocity=100 time=0@note_on channel=11 note=72 velocity=0 time=0@note_on channel=11 note=74 velocity=100 time=0@note_on channel=5 note=71 velocity=0 time=0.15872999999999998@note_on channel=5 note=72 velocity=100 time=0@note_on channel=6 note=72 velocity=0 time=0@note_on channel=6 note=72 velocity=100 time=0@note_on channel=7 note=81 velocity=0 time=0@note_on channel=7 note=81 velocity=100 time=0@note_on channel=8 note=72 velocity=0 time=0@note_on channel=8 note=69 velocity=100 time=0@note_on channel=10 note=86 velocity=0 time=0@note_on channel=10 note=84 velocity=100 time=0@note_on channel=11 note=74 velocity=0 time=0@note_on channel=11 note=76 velocity=100 time=0@note_on channel=12 note=57 velocity=0 time=0@note_on channel=12 note=59 velocity=100 time=0@note_on channel=13 note=72 velocity=0 time=0@note_on channel=13 note=69 velocity=100 time=0@note_on channel=14 note=69 velocity=0 time=0@note_on channel=14 note=83 velocity=100 time=0@note_on channel=6 note=72 velocity=0 time=0.15872999999999998@note_on channel=6 note=72 velocity=100 time=0@note_on channel=10 note=84 velocity=0 time=0@note_on channel=10 note=83 velocity=100 time=0@note_on channel=11 note=76 velocity=0 time=0@note_on channel=11 note=69 velocity=100 time=0@note_on channel=1 note=45 velocity=0 time=0.15872999999999998@note_on channel=1 note=38 velocity=100 time=0@note_on channel=5 note=72 velocity=0 time=0@note_on channel=5 note=74 velocity=100 time=0@note_on channel=6 note=72 velocity=0 time=0@note_on channel=6 note=69 velocity=100 time=0@note_on channel=7 note=81 velocity=0 time=0@note_on channel=7 note=69 velocity=100 time=0@note_on channel=8 note=69 velocity=0 time=0@note_on channel=8 note=72 velocity=100 time=0@note_on channel=10 note=83 velocity=0 time=0@note_on channel=10 note=81 velocity=100 time=0@note_on channel=11 note=69 velocity=0 time=0@note_on channel=11 note=81 velocity=100 time=0@note_on channel=12 note=59 velocity=0 time=0@note_on channel=12 note=60 velocity=100 time=0@note_on channel=13 note=69 velocity=0 time=0@note_on channel=13 note=76 velocity=100 time=0@note_on channel=14 note=83 velocity=0 time=0@note_on channel=14 note=84 velocity=100 time=0@note_on channel=6 note=69 velocity=0 time=0.15872999999999998@note_on channel=6 note=72 velocity=100 time=0@note_on channel=8 note=72 velocity=0 time=0@note_on channel=8 note=74 velocity=100 time=0@note_on channel=10 note=81 velocity=0 time=0@note_on channel=10 note=80 velocity=100 time=0@note_on channel=11 note=81 velocity=0 time=0@note_on channel=11 note=80 velocity=100 time=0@note_on channel=13 note=76 velocity=0 time=0@note_on channel=13 note=74 velocity=100 time=0@note_on channel=5 note=74 velocity=0 time=0.15872999999999998@note_on channel=5 note=76 velocity=100 time=0@note_on channel=6 note=72 velocity=0 time=0@note_on channel=6 note=72 velocity=100 time=0@note_on channel=8 note=74 velocity=0 time=0@note_on channel=8 note=76 velocity=100 time=0@note_on channel=10 note=80 velocity=0 time=0@note_on channel=10 note=81 velocity=100 time=0@note_on channel=11 note=80 velocity=0 time=0@note_on channel=11 note=81 velocity=100 time=0@note_on channel=12 note=60 velocity=0 time=0@note_on channel=12 note=62 velocity=100 time=0@note_on channel=13 note=74 velocity=0 time=0@note_on channel=13 note=72 velocity=100 time=0@note_on channel=14 note=84 velocity=0 time=0@note_on channel=14 note=83 velocity=100 time=0@note_on channel=6 note=72 velocity=0 time=0.15872999999999998@note_on channel=6 note=72 velocity=100 time=0@note_on channel=7 note=69 velocity=0 time=0@note_on channel=7 note=71 velocity=100 time=0@note_on channel=10 note=81 velocity=0 time=0@note_on channel=10 note=83 velocity=100 time=0@note_on channel=11 note=81 velocity=0 time=0@note_on channel=11 note=83 velocity=100 time=0@note_on channel=13 note=72 velocity=0 time=0@note_on channel=13 note=71 velocity=100 time=0@note_on channel=5 note=76 velocity=0 time=0.15872999999999998@note_on channel=5 note=72 velocity=100 time=0@note_on channel=6 note=72 velocity=0 time=0@note_on channel=6 note=72 velocity=100 time=0@note_on channel=7 note=71 velocity=0 time=0@note_on channel=7 note=72 velocity=100 time=0@note_on channel=8 note=76 velocity=0 time=0@note_on channel=8 note=69 velocity=100 time=0@note_on channel=10 note=83 velocity=0 time=0@note_on channel=10 note=84 velocity=100 time=0@note_on channel=11 note=83 velocity=0 time=0@note_on channel=11 note=84 velocity=100 time=0@note_on channel=12 note=62 velocity=0 time=0@note_on channel=12 note=64 velocity=100 time=0@note_on channel=13 note=71 velocity=0 time=0@note_on channel=13 note=69 velocity=100 time=0@note_on channel=14 note=83 velocity=0 time=0@note_on channel=14 note=81 velocity=100 time=0@note_on channel=6 note=72 velocity=0 time=0.15872999999999998@note_on channel=6 note=72 velocity=100 time=0@note_on channel=7 note=72 velocity=0 time=0@note_on channel=7 note=74 velocity=100 time=0@note_on channel=10 note=84 velocity=0 time=0@note_on channel=10 note=81 velocity=100 time=0@note_on channel=11 note=84 velocity=0 time=0@note_on channel=11 note=81 velocity=100 time=0@note_on channel=1 note=38 velocity=0 time=0.15872999999999998@note_on channel=1 note=47 velocity=100 time=0@note_on channel=5 note=72 velocity=0 time=0@note_on channel=5 note=71 velocity=100 time=0@note_on channel=6 note=72 velocity=0 time=0@note_on channel=6 note=68 velocity=100 time=0@note_on channel=7 note=74 velocity=0 time=0@note_on channel=7 note=76 velocity=100 time=0@note_on channel=8 note=69 velocity=0 time=0@note_on channel=8 note=64 velocity=100 time=0@note_on channel=10 note=81 velocity=0 time=0@note_on channel=10 note=83 velocity=100 time=0@note_on channel=11 note=81 velocity=0 time=0@note_on channel=11 note=81 velocity=100 time=0@note_on channel=12 note=64 velocity=0 time=0@note_on channel=12 note=59 velocity=100 time=0@note_on channel=13 note=69 velocity=0 time=0@note_on channel=13 note=64 velocity=100 time=0@note_on channel=14 note=81 velocity=0 time=0@note_on channel=14 note=80 velocity=100 time=0@note_on channel=11 note=81 velocity=0 time=0.07936499999999999@note_on channel=11 note=80 velocity=100 time=0@note_on channel=6 note=68 velocity=0 time=0.07936499999999999@note_on channel=6 note=71 velocity=100 time=0@note_on channel=8 note=64 velocity=0 time=0@note_on channel=8 note=66 velocity=100 time=0@note_on channel=10 note=83 velocity=0 time=0@note_on channel=10 note=81 velocity=100 time=0@note_on channel=11 note=80 velocity=0 time=0@note_on channel=11 note=81 velocity=100 time=0@note_on channel=11 note=81 velocity=0 time=0.07936499999999999@note_on channel=11 note=80 velocity=100 time=0@note_on channel=6 note=71 velocity=0 time=0.07936499999999999@note_on channel=6 note=71 velocity=100 time=0@note_on channel=7 note=76 velocity=0 time=0@note_on channel=7 note=76 velocity=100 time=0@note_on channel=8 note=66 velocity=0 time=0@note_on channel=8 note=68 velocity=100 time=0@note_on channel=10 note=81 velocity=0 time=0@note_on channel=10 note=83 velocity=100 time=0@note_on channel=13 note=64 velocity=0 time=0@note_on channel=13 note=68 velocity=100 time=0@note_on channel=14 note=80 velocity=0 time=0@note_on channel=14 note=76 velocity=100 time=0@note_on channel=6 note=71 velocity=0 time=0.15872999999999998@note_on channel=6 note=71 velocity=100 time=0@note_on channel=10 note=83 velocity=0 time=0@note_on channel=10 note=81 velocity=100 time=0@note_on channel=5 note=71 velocity=0 time=0.15872999999999998@note_on channel=5 note=68 velocity=100 time=0@note_on channel=6 note=71 velocity=0 time=0@note_on channel=6 note=71 velocity=100 time=0@note_on channel=7 note=76 velocity=0 time=0@note_on channel=7 note=76 velocity=100 time=0@note_on channel=8 note=68 velocity=0 time=0@note_on channel=8 note=64 velocity=100 time=0@note_on channel=10 note=81 velocity=0 time=0@note_on channel=10 note=80 velocity=100 time=0@note_on channel=11 note=80 velocity=0 time=0@note_on channel=11 note=76 velocity=100 time=0@note_on channel=12 note=59 velocity=0 time=0@note_on channel=12 note=56 velocity=100 time=0@note_on channel=13 note=68 velocity=0 time=0@note_on channel=13 note=64 velocity=100 time=0@note_on channel=14 note=76 velocity=0 time=0@note_on channel=14 note=71 velocity=100 time=0@note_on channel=6 note=71 velocity=0 time=0.15872999999999998@note_on channel=6 note=71 velocity=100 time=0@note_on channel=10 note=80 velocity=0 time=0@note_on channel=10 note=78 velocity=100 time=0@note_on channel=1 note=47 velocity=0 time=0.15872999999999998@note_on channel=1 note=40 velocity=100 time=0@note_on channel=5 note=68 velocity=0 time=0@note_on channel=5 note=64 velocity=100 time=0@note_on channel=6 note=71 velocity=0 time=0@note_on channel=6 note=64 velocity=100 time=0@note_on channel=7 note=76 velocity=0 time=0@note_on channel=7 note=68 velocity=100 time=0@note_on channel=8 note=64 velocity=0 time=0@note_on channel=8 note=68 velocity=100 time=0@note_on channel=10 note=78 velocity=0 time=0@note_on channel=10 note=76 velocity=100 time=0@note_on channel=11 note=76 velocity=0 time=0@note_on channel=11 note=76 velocity=100 time=0@note_on channel=12 note=56 velocity=0 time=0@note_on channel=12 note=52 velocity=100 time=0@note_on channel=13 note=64 velocity=0 time=0@note_on channel=13 note=71 velocity=100 time=0@note_on channel=14 note=71 velocity=0 time=0@note_on channel=14 note=76 velocity=100 time=0@note_on channel=7 note=68 velocity=0 time=0.07936499999999999@note_on channel=7 note=69 velocity=100 time=0@note_on channel=6 note=64 velocity=0 time=0.07936499999999999@note_on channel=6 note=71 velocity=100 time=0@note_on channel=7 note=69 velocity=0 time=0@note_on channel=7 note=68 velocity=100 time=0@note_on channel=8 note=68 velocity=0 time=0@note_on channel=8 note=69 velocity=100 time=0@note_on channel=10 note=76 velocity=0 time=0@note_on channel=10 note=78 velocity=100 time=0@note_on channel=13 note=71 velocity=0 time=0@note_on channel=13 note=69 velocity=100 time=0@note_on channel=6 note=71 velocity=0 time=0.15872999999999998@note_on channel=6 note=71 velocity=100 time=0@note_on channel=7 note=68 velocity=0 time=0@note_on channel=7 note=64 velocity=100 time=0@note_on channel=8 note=69 velocity=0 time=0@note_on channel=8 note=71 velocity=100 time=0@note_on channel=10 note=78 velocity=0 time=0@note_on channel=10 note=80 velocity=100 time=0@note_on channel=13 note=69 velocity=0 time=0@note_on channel=13 note=68 velocity=100 time=0@note_on channel=14 note=76 velocity=0 time=0@note_on channel=14 note=77 velocity=100 time=0@note_on channel=14 note=77 velocity=0 time=0.07936499999999999@note_on channel=14 note=76 velocity=100 time=0@note_on channel=6 note=71 velocity=0 time=0.07936499999999999@note_on channel=6 note=71 velocity=100 time=0@note_on channel=10 note=80 velocity=0 time=0@note_on channel=10 note=81 velocity=100 time=0@note_on channel=13 note=68 velocity=0 time=0@note_on channel=13 note=66 velocity=100 time=0@note_on channel=14 note=76 velocity=0 time=0@note_on channel=14 note=77 velocity=100 time=0@note_on channel=14 note=77 velocity=0 time=0.07936499999999999@note_on channel=14 note=76 velocity=100 time=0@note_on channel=6 note=71 velocity=0 time=0.07936499999999999@note_on channel=6 note=71 velocity=100 time=0@note_on channel=7 note=64 velocity=0 time=0@note_on channel=7 note=64 velocity=100 time=0@note_on channel=8 note=71 velocity=0 time=0@note_on channel=8 note=64 velocity=100 time=0@note_on channel=10 note=81 velocity=0 time=0@note_on channel=10 note=80 velocity=100 time=0@note_on channel=13 note=66 velocity=0 time=0@note_on channel=13 note=64 velocity=100 time=0@note_on channel=6 note=71 velocity=0 time=0.15872999999999998@note_on channel=6 note=71 velocity=100 time=0@note_on channel=10 note=80 velocity=0 time=0@note_on channel=10 note=76 velocity=100 time=0@note_on channel=14 note=76 velocity=0 time=0@note_on channel=14 note=77 velocity=100 time=0@note_on channel=1 note=40 velocity=0 time=0.15872999999999998@note_on channel=1 note=48 velocity=100 time=0@note_on channel=5 note=64 velocity=0 time=0@note_on channel=5 note=72 velocity=100 time=0@note_on channel=6 note=71 velocity=0 time=0@note_on channel=6 note=76 velocity=100 time=0@note_on channel=7 note=64 velocity=0 time=0@note_on channel=7 note=84 velocity=100 time=0@note_on channel=8 note=64 velocity=0 time=0@note_on channel=8 note=72 velocity=100 time=0@note_on channel=10 note=76 velocity=0 time=0@note_on channel=10 note=84 velocity=100 time=0@note_on channel=11 note=76 velocity=0 time=0@note_on channel=11 note=72 velocity=100 time=0@note_on channel=12 note=52 velocity=0 time=0@note_on channel=12 note=64 velocity=100 time=0@note_on channel=13 note=64 velocity=0 time=0@note_on channel=13 note=72 velocity=100 time=0@note_on channel=14 note=77 velocity=0 time=0@note_on channel=14 note=79 velocity=100 time=0@note_on channel=6 note=76 velocity=0 time=0.15872999999999998@note_on channel=6 note=79 velocity=100 time=0@note_on channel=8 note=72 velocity=0 time=0@note_on channel=8 note=74 velocity=100 time=0@note_on channel=10 note=84 velocity=0 time=0@note_on channel=10 note=83 velocity=100 time=0@note_on channel=11 note=72 velocity=0 time=0@note_on channel=11 note=71 velocity=100 time=0@note_on channel=6 note=79 velocity=0 time=0.15872999999999998@note_on channel=6 note=79 velocity=100 time=0@note_on channel=7 note=84 velocity=0 time=0@note_on channel=7 note=84 velocity=100 time=0@note_on channel=8 note=74 velocity=0 time=0@note_on channel=8 note=76 velocity=100 time=0@note_on channel=10 note=83 velocity=0 time=0@note_on channel=10 note=84 velocity=100 time=0@note_on channel=11 note=71 velocity=0 time=0@note_on channel=11 note=72 velocity=100 time=0@note_on channel=12 note=64 velocity=0 time=0@note_on channel=12 note=60 velocity=100 time=0@note_on channel=13 note=72 velocity=0 time=0@note_on channel=13 note=76 velocity=100 time=0@note_on channel=14 note=79 velocity=0 time=0@note_on channel=14 note=72 velocity=100 time=0@note_on channel=6 note=79 velocity=0 time=0.15872999999999998@note_on channel=6 note=79 velocity=100 time=0@note_on channel=10 note=84 velocity=0 time=0@note_on channel=10 note=86 velocity=100 time=0@note_on channel=11 note=72 velocity=0 time=0@note_on channel=11 note=74 velocity=100 time=0@note_on channel=5 note=72 velocity=0 time=0.15872999999999998@note_on channel=5 note=74 velocity=100 time=0@note_on channel=6 note=79 velocity=0 time=0@note_on channel=6 note=79 velocity=100 time=0@note_on channel=7 note=84 velocity=0 time=0@note_on channel=7 note=84 velocity=100 time=0@note_on channel=8 note=76 velocity=0 time=0@note_on channel=8 note=72 velocity=100 time=0@note_on channel=10 note=86 velocity=0 time=0@note_on channel=10 note=88 velocity=100 time=0@note_on channel=11 note=74 velocity=0 time=0@note_on channel=11 note=76 velocity=100 time=0@note_on channel=12 note=60 velocity=0 time=0@note_on channel=12 note=62 velocity=100 time=0@note_on channel=13 note=76 velocity=0 time=0@note_on channel=13 note=72 velocity=100 time=0@note_on channel=14 note=72 velocity=0 time=0@note_on channel=14 note=81 velocity=100 time=0@note_on channel=6 note=79 velocity=0 time=0.15872999999999998@note_on channel=6 note=79 velocity=100 time=0@note_on channel=10 note=88 velocity=0 time=0@note_on channel=10 note=86 velocity=100 time=0@note_on channel=11 note=76 velocity=0 time=0@note_on channel=11 note=77 velocity=100 time=0@note_on channel=1 note=48 velocity=0 time=0.15872999999999998@note_on channel=1 note=40 velocity=100 time=0@note_on channel=5 note=74 velocity=0 time=0@note_on channel=5 note=76 velocity=100 time=0@note_on channel=6 note=79 velocity=0 time=0@note_on channel=6 note=72 velocity=100 time=0@note_on channel=7 note=84 velocity=0 time=0@note_on channel=7 note=72 velocity=100 time=0@note_on channel=8 note=72 velocity=0 time=0@note_on channel=8 note=76 velocity=100 time=0@note_on channel=10 note=86 velocity=0 time=0@note_on channel=10 note=84 velocity=100 time=0@note_on channel=11 note=77 velocity=0 time=0@note_on channel=11 note=79 velocity=100 time=0@note_on channel=12 note=62 velocity=0 time=0@note_on channel=12 note=64 velocity=100 time=0@note_on channel=13 note=72 velocity=0 time=0@note_on channel=13 note=79 velocity=100 time=0@note_on channel=14 note=81 velocity=0 time=0@note_on channel=14 note=81 velocity=100 time=0@note_on channel=14 note=81 velocity=0 time=0.07936499999999999@note_on channel=14 note=79 velocity=100 time=0@note_on channel=6 note=72 velocity=0 time=0.07936499999999999@note_on channel=6 note=79 velocity=100 time=0@note_on channel=8 note=76 velocity=0 time=0@note_on channel=8 note=77 velocity=100 time=0@note_on channel=10 note=84 velocity=0 time=0@note_on channel=10 note=83 velocity=100 time=0@note_on channel=11 note=79 velocity=0 time=0@note_on channel=11 note=81 velocity=100 time=0@note_on channel=13 note=79 velocity=0 time=0@note_on channel=13 note=77 velocity=100 time=0@note_on channel=14 note=79 velocity=0 time=0@note_on channel=14 note=81 velocity=100 time=0@note_on channel=14 note=81 velocity=0 time=0.07936499999999999@note_on channel=14 note=79 velocity=100 time=0@note_on channel=6 note=79 velocity=0 time=0.07936499999999999@note_on channel=6 note=79 velocity=100 time=0@note_on channel=8 note=77 velocity=0 time=0@note_on channel=8 note=79 velocity=100 time=0@note_on channel=10 note=83 velocity=0 time=0@note_on channel=10 note=84 velocity=100 time=0@note_on channel=11 note=81 velocity=0 time=0@note_on channel=11 note=83 velocity=100 time=0@note_on channel=12 note=64 velocity=0 time=0@note_on channel=12 note=65 velocity=100 time=0@note_on channel=13 note=77 velocity=0 time=0@note_on channel=13 note=76 velocity=100 time=0@note_on channel=5 note=76 velocity=0 time=0.15872999999999998@note_on channel=5 note=74 velocity=100 time=0@note_on channel=6 note=79 velocity=0 time=0@note_on channel=6 note=79 velocity=100 time=0@note_on channel=7 note=72 velocity=0 time=0@note_on channel=7 note=74 velocity=100 time=0@note_on channel=10 note=84 velocity=0 time=0@note_on channel=10 note=86 velocity=100 time=0@note_on channel=11 note=83 velocity=0 time=0@note_on channel=11 note=79 velocity=100 time=0@note_on channel=13 note=76 velocity=0 time=0@note_on channel=13 note=74 velocity=100 time=0@note_on channel=14 note=79 velocity=0 time=0@note_on channel=14 note=77 velocity=100 time=0@note_on channel=5 note=74 velocity=0 time=0.15872999999999998@note_on channel=5 note=72 velocity=100 time=0@note_on channel=6 note=79 velocity=0 time=0@note_on channel=6 note=79 velocity=100 time=0@note_on channel=7 note=74 velocity=0 time=0@note_on channel=7 note=76 velocity=100 time=0@note_on channel=8 note=79 velocity=0 time=0@note_on channel=8 note=72 velocity=100 time=0@note_on channel=10 note=86 velocity=0 time=0@note_on channel=10 note=88 velocity=100 time=0@note_on channel=11 note=79 velocity=0 time=0@note_on channel=11 note=81 velocity=100 time=0@note_on channel=12 note=65 velocity=0 time=0@note_on channel=12 note=67 velocity=100 time=0@note_on channel=13 note=74 velocity=0 time=0@note_on channel=13 note=72 velocity=100 time=0@note_on channel=14 note=77 velocity=0 time=0@note_on channel=14 note=76 velocity=100 time=0@note_on channel=6 note=79 velocity=0 time=0.15872999999999998@note_on channel=6 note=79 velocity=100 time=0@note_on channel=7 note=76 velocity=0 time=0@note_on channel=7 note=77 velocity=100 time=0@note_on channel=10 note=88 velocity=0 time=0@note_on channel=10 note=86 velocity=100 time=0@note_on channel=11 note=81 velocity=0 time=0@note_on channel=11 note=83 velocity=100 time=0@note_on channel=1 note=40 velocity=0 time=0.15872999999999998@note_on channel=1 note=50 velocity=100 time=0@note_on channel=5 note=72 velocity=0 time=0@note_on channel=5 note=74 velocity=100 time=0@note_on channel=6 note=79 velocity=0 time=0@note_on channel=6 note=71 velocity=100 time=0@note_on channel=7 note=77 velocity=0 time=0@note_on channel=7 note=79 velocity=100 time=0@note_on channel=8 note=72 velocity=0 time=0@note_on channel=8 note=67 velocity=100 time=0@note_on channel=10 note=86 velocity=0 time=0@note_on channel=10 note=86 velocity=100 time=0@note_on channel=11 note=83 velocity=0 time=0@note_on channel=11 note=81 velocity=100 time=0@note_on channel=12 note=67 velocity=0 time=0@note_on channel=12 note=59 velocity=100 time=0@note_on channel=13 note=72 velocity=0 time=0@note_on channel=13 note=67 velocity=100 time=0@note_on channel=14 note=76 velocity=0 time=0@note_on channel=14 note=74 velocity=100 time=0@note_on channel=11 note=81 velocity=0 time=0.07936499999999999@note_on channel=11 note=79 velocity=100 time=0@note_on channel=6 note=71 velocity=0 time=0.07936499999999999@note_on channel=6 note=74 velocity=100 time=0@note_on channel=8 note=67 velocity=0 time=0@note_on channel=8 note=69 velocity=100 time=0@note_on channel=10 note=86 velocity=0 time=0@note_on channel=10 note=84 velocity=100 time=0@note_on channel=11 note=79 velocity=0 time=0@note_on channel=11 note=81 velocity=100 time=0@note_on channel=11 note=81 velocity=0 time=0.07936499999999999@note_on channel=11 note=79 velocity=100 time=0@note_on channel=6 note=74 velocity=0 time=0.07936499999999999@note_on channel=6 note=74 velocity=100 time=0@note_on channel=7 note=79 velocity=0 time=0@note_on channel=7 note=79 velocity=100 time=0@note_on channel=8 note=69 velocity=0 time=0@note_on channel=8 note=71 velocity=100 time=0@note_on channel=10 note=84 velocity=0 time=0@note_on channel=10 note=86 velocity=100 time=0@note_on channel=11 note=79 velocity=0 time=0@note_on channel=11 note=74 velocity=100 time=0@note_on channel=12 note=59 velocity=0 time=0@note_on channel=12 note=55 velocity=100 time=0@note_on channel=13 note=67 velocity=0 time=0@note_on channel=13 note=71 velocity=100 time=0@note_on channel=14 note=74 velocity=0 time=0@note_on channel=14 note=71 velocity=100 time=0@note_on channel=6 note=74 velocity=0 time=0.15872999999999998@note_on channel=6 note=74 velocity=100 time=0@note_on channel=10 note=86 velocity=0 time=0@note_on channel=10 note=88 velocity=100 time=0@note_on channel=5 note=74 velocity=0 time=0.15872999999999998@note_on channel=5 note=71 velocity=100 time=0@note_on channel=6 note=74 velocity=0 time=0@note_on channel=6 note=74 velocity=100 time=0@note_on channel=7 note=79 velocity=0 time=0@note_on channel=7 note=81 velocity=100 time=0@note_on channel=8 note=71 velocity=0 time=0@note_on channel=8 note=67 velocity=100 time=0@note_on channel=10 note=88 velocity=0 time=0@note_on channel=10 note=86 velocity=100 time=0@note_on channel=11 note=74 velocity=0 time=0@note_on channel=11 note=74 velocity=100 time=0@note_on channel=12 note=55 velocity=0 time=0@note_on channel=12 note=57 velocity=100 time=0@note_on channel=13 note=71 velocity=0 time=0@note_on channel=13 note=67 velocity=100 time=0@note_on channel=14 note=71 velocity=0 time=0@note_on channel=14 note=67 velocity=100 time=0@note_on channel=6 note=74 velocity=0 time=0.15872999999999998@note_on channel=6 note=74 velocity=100 time=0@note_on channel=10 note=86 velocity=0 time=0@note_on channel=10 note=84 velocity=100 time=0@note_on channel=1 note=50 velocity=0 time=0.15872999999999998@note_on channel=1 note=43 velocity=100 time=0@note_on channel=5 note=71 velocity=0 time=0@note_on channel=5 note=67 velocity=100 time=0@note_on channel=6 note=74 velocity=0 time=0@note_on channel=6 note=67 velocity=100 time=0@note_on channel=7 note=81 velocity=0 time=0@note_on channel=7 note=84 velocity=100 time=0@note_on channel=8 note=67 velocity=0 time=0@note_on channel=8 note=71 velocity=100 time=0@note_on channel=10 note=84 velocity=0 time=0@note_on channel=10 note=83 velocity=100 time=0@note_on channel=11 note=74 velocity=0 time=0@note_on channel=11 note=74 velocity=100 time=0@note_on channel=12 note=57 velocity=0 time=0@note_on channel=12 note=59 velocity=100 time=0@note_on channel=13 note=67 velocity=0 time=0@note_on channel=13 note=74 velocity=100 time=0@note_on channel=14 note=67 velocity=0 time=0@note_on channel=14 note=74 velocity=100 time=0@note_on channel=7 note=84 velocity=0 time=0.07936499999999999@note_on channel=7 note=83 velocity=100 time=0@note_on channel=6 note=67 velocity=0 time=0.07936499999999999@note_on channel=6 note=74 velocity=100 time=0@note_on channel=7 note=83 velocity=0 time=0@note_on channel=7 note=84 velocity=100 time=0@note_on channel=8 note=71 velocity=0 time=0@note_on channel=8 note=72 velocity=100 time=0@note_on channel=10 note=83 velocity=0 time=0@note_on channel=10 note=81 velocity=100 time=0@note_on channel=13 note=74 velocity=0 time=0@note_on channel=13 note=72 velocity=100 time=0@note_on channel=7 note=84 velocity=0 time=0.07936499999999999@note_on channel=7 note=83 velocity=100 time=0@note_on channel=6 note=74 velocity=0 time=0.07936499999999999@note_on channel=6 note=74 velocity=100 time=0@note_on channel=8 note=72 velocity=0 time=0@note_on channel=8 note=74 velocity=100 time=0@note_on channel=10 note=81 velocity=0 time=0@note_on channel=10 note=83 velocity=100 time=0@note_on channel=12 note=59 velocity=0 time=0@note_on channel=12 note=60 velocity=100 time=0@note_on channel=13 note=72 velocity=0 time=0@note_on channel=13 note=71 velocity=100 time=0@note_on channel=14 note=74 velocity=0 time=0@note_on channel=14 note=62 velocity=100 time=0@note_on channel=5 note=67 velocity=0 time=0.15872999999999998@note_on channel=5 note=69 velocity=100 time=0@note_on channel=6 note=74 velocity=0 time=0@note_on channel=6 note=74 velocity=100 time=0@note_on channel=7 note=83 velocity=0 time=0@note_on channel=7 note=81 velocity=100 time=0@note_on channel=10 note=83 velocity=0 time=0@note_on channel=10 note=84 velocity=100 time=0@note_on channel=11 note=74 velocity=0 time=0@note_on channel=11 note=76 velocity=100 time=0@note_on channel=13 note=71 velocity=0 time=0@note_on channel=13 note=69 velocity=100 time=0@note_on channel=5 note=69 velocity=0 time=0.15872999999999998@note_on channel=5 note=71 velocity=100 time=0@note_on channel=6 note=74 velocity=0 time=0@note_on channel=6 note=74 velocity=100 time=0@note_on channel=7 note=81 velocity=0 time=0@note_on channel=7 note=79 velocity=100 time=0@note_on channel=8 note=74 velocity=0 time=0@note_on channel=8 note=67 velocity=100 time=0@note_on channel=10 note=84 velocity=0 time=0@note_on channel=10 note=86 velocity=100 time=0@note_on channel=11 note=76 velocity=0 time=0@note_on channel=11 note=77 velocity=100 time=0@note_on channel=12 note=60 velocity=0 time=0@note_on channel=12 note=62 velocity=100 time=0@note_on channel=13 note=69 velocity=0 time=0@note_on channel=13 note=67 velocity=100 time=0@note_on channel=14 note=62 velocity=0 time=0@note_on channel=14 note=76 velocity=100 time=0@note_on channel=6 note=74 velocity=0 time=0.15872999999999998@note_on channel=6 note=74 velocity=100 time=0@note_on channel=10 note=86 velocity=0 time=0@note_on channel=10 note=84 velocity=100 time=0@note_on channel=14 note=76 velocity=0 time=0@note_on channel=14 note=74 velocity=100 time=0@note_on channel=1 note=43 velocity=0 time=0.15872999999999998@note_on channel=1 note=45 velocity=100 time=0@note_on channel=5 note=71 velocity=0 time=0@note_on channel=5 note=72 velocity=100 time=0@note_on channel=6 note=74 velocity=0 time=0@note_on channel=6 note=69 velocity=100 time=0@note_on channel=7 note=79 velocity=0 time=0@note_on channel=7 note=84 velocity=100 time=0@note_on channel=8 note=67 velocity=0 time=0@note_on channel=8 note=81 velocity=100 time=0@note_on channel=10 note=84 velocity=0 time=0@note_on channel=10 note=84 velocity=100 time=0@note_on channel=11 note=77 velocity=0 time=0@note_on channel=11 note=72 velocity=100 time=0@note_on channel=12 note=62 velocity=0 time=0@note_on channel=12 note=60 velocity=100 time=0@note_on channel=13 note=67 velocity=0 time=0@note_on channel=13 note=76 velocity=100 time=0@note_on channel=14 note=74 velocity=0 time=0@note_on channel=14 note=72 velocity=100 time=0@note_on channel=12 note=60 velocity=0 time=0.07936499999999999@note_on channel=12 note=62 velocity=100 time=0@note_on channel=6 note=69 velocity=0 time=0.07936499999999999@note_on channel=6 note=72 velocity=100 time=0@note_on channel=8 note=81 velocity=0 time=0@note_on channel=8 note=83 velocity=100 time=0@note_on channel=10 note=84 velocity=0 time=0@note_on channel=10 note=83 velocity=100 time=0@note_on channel=12 note=62 velocity=0 time=0@note_on channel=12 note=60 velocity=100 time=0@note_on channel=13 note=76 velocity=0 time=0@note_on channel=13 note=74 velocity=100 time=0@note_on channel=6 note=72 velocity=0 time=0.15872999999999998@note_on channel=6 note=72 velocity=100 time=0@note_on channel=7 note=84 velocity=0 time=0@note_on channel=7 note=83 velocity=100 time=0@note_on channel=8 note=83 velocity=0 time=0@note_on channel=8 note=84 velocity=100 time=0@note_on channel=10 note=83 velocity=0 time=0@note_on channel=10 note=84 velocity=100 time=0@note_on channel=11 note=72 velocity=0 time=0@note_on channel=11 note=71 velocity=100 time=0@note_on channel=12 note=60 velocity=0 time=0@note_on channel=12 note=57 velocity=100 time=0@note_on channel=13 note=74 velocity=0 time=0@note_on channel=13 note=72 velocity=100 time=0@note_on channel=14 note=72 velocity=0 time=0@note_on channel=14 note=71 velocity=100 time=0@note_on channel=5 note=72 velocity=0 time=0.15872999999999998@note_on channel=5 note=71 velocity=100 time=0@note_on channel=6 note=72 velocity=0 time=0@note_on channel=6 note=72 velocity=100 time=0@note_on channel=10 note=84 velocity=0 time=0@note_on channel=10 note=86 velocity=100 time=0@note_on channel=13 note=72 velocity=0 time=0@note_on channel=13 note=71 velocity=100 time=0@note_on channel=5 note=71 velocity=0 time=0.15872999999999998@note_on channel=5 note=69 velocity=100 time=0@note_on channel=6 note=72 velocity=0 time=0@note_on channel=6 note=72 velocity=100 time=0@note_on channel=7 note=83 velocity=0 time=0@note_on channel=7 note=81 velocity=100 time=0@note_on channel=8 note=84 velocity=0 time=0@note_on channel=8 note=81 velocity=100 time=0@note_on channel=10 note=86 velocity=0 time=0@note_on channel=10 note=88 velocity=100 time=0@note_on channel=11 note=71 velocity=0 time=0@note_on channel=11 note=69 velocity=100 time=0@note_on channel=12 note=57 velocity=0 time=0@note_on channel=12 note=60 velocity=100 time=0@note_on channel=13 note=71 velocity=0 time=0@note_on channel=13 note=69 velocity=100 time=0@note_on channel=14 note=71 velocity=0 time=0@note_on channel=14 note=69 velocity=100 time=0@note_on channel=6 note=72 velocity=0 time=0.15872999999999998@note_on channel=6 note=72 velocity=100 time=0@note_on channel=10 note=88 velocity=0 time=0@note_on channel=10 note=86 velocity=100 time=0@note_on channel=1 note=45 velocity=0 time=0.15872999999999998@note_on channel=1 note=38 velocity=100 time=0@note_on channel=5 note=69 velocity=0 time=0@note_on channel=5 note=72 velocity=100 time=0@note_on channel=6 note=72 velocity=0 time=0@note_on channel=6 note=64 velocity=100 time=0@note_on channel=7 note=81 velocity=0 time=0@note_on channel=7 note=81 velocity=100 time=0@note_on channel=8 note=81 velocity=0 time=0@note_on channel=8 note=80 velocity=100 time=0@note_on channel=10 note=86 velocity=0 time=0@note_on channel=10 note=86 velocity=100 time=0@note_on channel=11 note=69 velocity=0 time=0@note_on channel=11 note=69 velocity=100 time=0@note_on channel=12 note=60 velocity=0 time=0@note_on channel=12 note=59 velocity=100 time=0@note_on channel=13 note=69 velocity=0 time=0@note_on channel=13 note=71 velocity=100 time=0@note_on channel=14 note=69 velocity=0 time=0@note_on channel=14 note=71 velocity=100 time=0@note_on channel=5 note=72 velocity=0 time=0.07936499999999999@note_on channel=5 note=71 velocity=100 time=0@note_on channel=7 note=81 velocity=0 time=0@note_on channel=7 note=80 velocity=100 time=0@note_on channel=11 note=69 velocity=0 time=0@note_on channel=11 note=68 velocity=100 time=0@note_on channel=12 note=59 velocity=0 time=0@note_on channel=12 note=60 velocity=100 time=0@note_on channel=5 note=71 velocity=0 time=0.07936499999999999@note_on channel=5 note=72 velocity=100 time=0@note_on channel=6 note=64 velocity=0 time=0@note_on channel=6 note=71 velocity=100 time=0@note_on channel=7 note=80 velocity=0 time=0@note_on channel=7 note=81 velocity=100 time=0@note_on channel=8 note=80 velocity=0 time=0@note_on channel=8 note=81 velocity=100 time=0@note_on channel=10 note=86 velocity=0 time=0@note_on channel=10 note=84 velocity=100 time=0@note_on channel=11 note=68 velocity=0 time=0@note_on channel=11 note=69 velocity=100 time=0@note_on channel=12 note=60 velocity=0 time=0@note_on channel=12 note=59 velocity=100 time=0@note_on channel=13 note=71 velocity=0 time=0@note_on channel=13 note=69 velocity=100 time=0@note_on channel=5 note=72 velocity=0 time=0.07936499999999999@note_on channel=5 note=71 velocity=100 time=0@note_on channel=7 note=81 velocity=0 time=0@note_on channel=7 note=80 velocity=100 time=0@note_on channel=11 note=69 velocity=0 time=0@note_on channel=11 note=68 velocity=100 time=0@note_on channel=6 note=71 velocity=0 time=0.07936499999999999@note_on channel=6 note=71 velocity=100 time=0@note_on channel=8 note=81 velocity=0 time=0@note_on channel=8 note=83 velocity=100 time=0@note_on channel=10 note=84 velocity=0 time=0@note_on channel=10 note=83 velocity=100 time=0@note_on channel=12 note=59 velocity=0 time=0@note_on channel=12 note=56 velocity=100 time=0@note_on channel=13 note=69 velocity=0 time=0@note_on channel=13 note=68 velocity=100 time=0@note_on channel=14 note=71 velocity=0 time=0@note_on channel=14 note=68 velocity=100 time=0@note_on channel=5 note=71 velocity=0 time=0.15872999999999998@note_on channel=5 note=69 velocity=100 time=0@note_on channel=6 note=71 velocity=0 time=0@note_on channel=6 note=71 velocity=100 time=0@note_on channel=7 note=80 velocity=0 time=0@note_on channel=7 note=78 velocity=100 time=0@note_on channel=10 note=83 velocity=0 time=0@note_on channel=10 note=81 velocity=100 time=0@note_on channel=11 note=68 velocity=0 time=0@note_on channel=11 note=66 velocity=100 time=0@note_on channel=13 note=68 velocity=0 time=0@note_on channel=13 note=66 velocity=100 time=0@note_on channel=5 note=69 velocity=0 time=0.15872999999999998@note_on channel=5 note=68 velocity=100 time=0@note_on channel=6 note=71 velocity=0 time=0@note_on channel=6 note=71 velocity=100 time=0@note_on channel=7 note=78 velocity=0 time=0@note_on channel=7 note=80 velocity=100 time=0@note_on channel=8 note=83 velocity=0 time=0@note_on channel=8 note=80 velocity=100 time=0@note_on channel=10 note=81 velocity=0 time=0@note_on channel=10 note=83 velocity=100 time=0@note_on channel=11 note=66 velocity=0 time=0@note_on channel=11 note=68 velocity=100 time=0@note_on channel=12 note=56 velocity=0 time=0@note_on channel=12 note=52 velocity=100 time=0@note_on channel=13 note=66 velocity=0 time=0@note_on channel=13 note=64 velocity=100 time=0@note_on channel=14 note=68 velocity=0 time=0@note_on channel=14 note=64 velocity=100 time=0@note_on channel=6 note=71 velocity=0 time=0.15872999999999998@note_on channel=6 note=71 velocity=100 time=0@note_on channel=10 note=83 velocity=0 time=0@note_on channel=10 note=80 velocity=100 time=0@note_on channel=1 note=38 velocity=0 time=0.15872999999999998@note_on channel=1 note=45 velocity=100 time=0@note_on channel=5 note=68 velocity=0 time=0@note_on channel=5 note=69 velocity=100 time=0@note_on channel=6 note=71 velocity=0 time=0@note_on channel=6 note=69 velocity=100 time=0@note_on channel=7 note=80 velocity=0 time=0@note_on channel=7 note=81 velocity=100 time=0@note_on channel=8 note=80 velocity=0 time=0@note_on channel=8 note=81 velocity=100 time=0@note_on channel=10 note=80 velocity=0 time=0@note_on channel=10 note=81 velocity=100 time=0@note_on channel=11 note=68 velocity=0 time=0@note_on channel=11 note=69 velocity=100 time=0@note_on channel=12 note=52 velocity=0 time=0@note_on channel=12 note=57 velocity=100 time=0@note_on channel=13 note=64 velocity=0 time=0@note_on channel=13 note=69 velocity=100 time=0@note_on channel=14 note=64 velocity=0 time=0@note_on channel=14 note=69 velocity=100 time=0@note_on channel=8 note=81 velocity=0 time=0.07936499999999999@note_on channel=8 note=80 velocity=100 time=0@note_on channel=8 note=80 velocity=0 time=0.07936499999999999@note_on channel=8 note=81 velocity=100 time=0@note_on channel=5 note=69 velocity=0 time=0.79365@note_on channel=5 note=69 velocity=100 time=0@note_on channel=6 note=69 velocity=0 time=0@note_on channel=6 note=69 velocity=100 time=0@note_on channel=7 note=81 velocity=0 time=0@note_on channel=7 note=81 velocity=100 time=0@note_on channel=8 note=81 velocity=0 time=0@note_on channel=8 note=81 velocity=100 time=0@note_on channel=10 note=81 velocity=0 time=0@note_on channel=10 note=81 velocity=100 time=0@note_on channel=11 note=69 velocity=0 time=0@note_on channel=11 note=69 velocity=100 time=0@note_on channel=12 note=57 velocity=0 time=0@note_on channel=12 note=57 velocity=100 time=0@note_on channel=13 note=69 velocity=0 time=0@note_on channel=13 note=69 velocity=100 time=0@note_on channel=14 note=69 velocity=0 time=0@note_on channel=14 note=69 velocity=100 time=0@note_on channel=13 note=69 velocity=0 time=0.07936499999999999@note_on channel=13 note=68 velocity=100 time=0@note_on channel=13 note=68 velocity=0 time=0.07936499999999999@note_on channel=13 note=69 velocity=100 time=0@note_on channel=1 note=45 velocity=0 time=0.79365@note_on channel=1 note=48 velocity=100 time=0@note_on channel=5 note=69 velocity=0 time=0@note_on channel=6 note=69 velocity=0 time=0@note_on channel=6 note=72 velocity=100 time=0@note_on channel=7 note=81 velocity=0 time=0@note_on channel=7 note=72 velocity=100 time=0@note_on channel=8 note=81 velocity=0 time=0@note_on channel=8 note=84 velocity=100 time=0@note_on channel=10 note=81 velocity=0 time=0@note_on channel=10 note=81 velocity=100 time=0@note_on channel=11 note=69 velocity=0 time=0@note_on channel=11 note=72 velocity=100 time=0@note_on channel=12 note=57 velocity=0 time=0@note_on channel=12 note=57 velocity=100 time=0@note_on channel=13 note=69 velocity=0 time=0@note_on channel=13 note=72 velocity=100 time=0@note_on channel=14 note=69 velocity=0 time=0@note_on channel=14 note=69 velocity=100 time=0@note_on channel=7 note=72 velocity=0 time=0.15872999999999998@note_on channel=7 note=76 velocity=100 time=0@note_on channel=10 note=81 velocity=0 time=0@note_on channel=10 note=83 velocity=100 time=0@note_on channel=11 note=72 velocity=0 time=0@note_on channel=11 note=71 velocity=100 time=0@note_on channel=12 note=57 velocity=0 time=0@note_on channel=12 note=59 velocity=100 time=0@note_on channel=7 note=76 velocity=0 time=0.15872999999999998@note_on channel=7 note=76 velocity=100 time=0@note_on channel=8 note=84 velocity=0 time=0@note_on channel=8 note=84 velocity=100 time=0@note_on channel=10 note=83 velocity=0 time=0@note_on channel=10 note=84 velocity=100 time=0@note_on channel=11 note=71 velocity=0 time=0@note_on channel=11 note=72 velocity=100 time=0@note_on channel=12 note=59 velocity=0 time=0@note_on channel=12 note=60 velocity=100 time=0@note_on channel=13 note=72 velocity=0 time=0@note_on channel=13 note=69 velocity=100 time=0@note_on channel=14 note=69 velocity=0 time=0@note_on channel=14 note=72 velocity=100 time=0@note_on channel=7 note=76 velocity=0 time=0.15872999999999998@note_on channel=7 note=76 velocity=100 time=0@note_on channel=11 note=72 velocity=0 time=0@note_on channel=11 note=74 velocity=100 time=0@note_on channel=12 note=60 velocity=0 time=0@note_on channel=12 note=62 velocity=100 time=0@note_on channel=6 note=72 velocity=0 time=0.15872999999999998@note_on channel=6 note=74 velocity=100 time=0@note_on channel=7 note=76 velocity=0 time=0@note_on channel=7 note=76 velocity=100 time=0@note_on channel=8 note=84 velocity=0 time=0@note_on channel=8 note=84 velocity=100 time=0@note_on channel=10 note=84 velocity=0 time=0@note_on channel=10 note=81 velocity=100 time=0@note_on channel=11 note=74 velocity=0 time=0@note_on channel=11 note=76 velocity=100 time=0@note_on channel=12 note=62 velocity=0 time=0@note_on channel=12 note=64 velocity=100 time=0@note_on channel=13 note=69 velocity=0 time=0@note_on channel=13 note=71 velocity=100 time=0@note_on channel=14 note=72 velocity=0 time=0@note_on channel=14 note=69 velocity=100 time=0@note_on channel=7 note=76 velocity=0 time=0.15872999999999998@note_on channel=7 note=76 velocity=100 time=0@note_on channel=11 note=76 velocity=0 time=0@note_on channel=11 note=74 velocity=100 time=0@note_on channel=12 note=64 velocity=0 time=0@note_on channel=12 note=57 velocity=100 time=0@note_on channel=1 note=48 velocity=0 time=0.15872999999999998@note_on channel=1 note=40 velocity=100 time=0@note_on channel=6 note=74 velocity=0 time=0@note_on channel=6 note=76 velocity=100 time=0@note_on channel=7 note=76 velocity=0 time=0@note_on channel=7 note=72 velocity=100 time=0@note_on channel=8 note=84 velocity=0 time=0@note_on channel=8 note=72 velocity=100 time=0@note_on channel=10 note=81 velocity=0 time=0@note_on channel=10 note=84 velocity=100 time=0@note_on channel=11 note=74 velocity=0 time=0@note_on channel=11 note=72 velocity=100 time=0@note_on channel=12 note=57 velocity=0 time=0@note_on channel=12 note=69 velocity=100 time=0@note_on channel=13 note=71 velocity=0 time=0@note_on channel=13 note=72 velocity=100 time=0@note_on channel=14 note=69 velocity=0 time=0@note_on channel=14 note=76 velocity=100 time=0@note_on channel=7 note=72 velocity=0 time=0.15872999999999998@note_on channel=7 note=76 velocity=100 time=0@note_on channel=10 note=84 velocity=0 time=0@note_on channel=10 note=86 velocity=100 time=0@note_on channel=11 note=72 velocity=0 time=0@note_on channel=11 note=71 velocity=100 time=0@note_on channel=12 note=69 velocity=0 time=0@note_on channel=12 note=68 velocity=100 time=0@note_on channel=14 note=76 velocity=0 time=0@note_on channel=14 note=74 velocity=100 time=0@note_on channel=7 note=76 velocity=0 time=0.15872999999999998@note_on channel=7 note=76 velocity=100 time=0@note_on channel=8 note=72 velocity=0 time=0@note_on channel=8 note=72 velocity=100 time=0@note_on channel=10 note=86 velocity=0 time=0@note_on channel=10 note=88 velocity=100 time=0@note_on channel=11 note=71 velocity=0 time=0@note_on channel=11 note=72 velocity=100 time=0@note_on channel=12 note=68 velocity=0 time=0@note_on channel=12 note=69 velocity=100 time=0@note_on channel=13 note=72 velocity=0 time=0@note_on channel=13 note=74 velocity=100 time=0@note_on channel=14 note=74 velocity=0 time=0@note_on channel=14 note=72 velocity=100 time=0@note_on channel=7 note=76 velocity=0 time=0.15872999999999998@note_on channel=7 note=76 velocity=100 time=0@note_on channel=11 note=72 velocity=0 time=0@note_on channel=11 note=74 velocity=100 time=0@note_on channel=12 note=69 velocity=0 time=0@note_on channel=12 note=71 velocity=100 time=0@note_on channel=14 note=72 velocity=0 time=0@note_on channel=14 note=71 velocity=100 time=0@note_on channel=6 note=76 velocity=0 time=0.15872999999999998@note_on channel=6 note=76 velocity=100 time=0@note_on channel=7 note=76 velocity=0 time=0@note_on channel=7 note=76 velocity=100 time=0@note_on channel=8 note=72 velocity=0 time=0@note_on channel=8 note=72 velocity=100 time=0@note_on channel=10 note=88 velocity=0 time=0@note_on channel=10 note=81 velocity=100 time=0@note_on channel=11 note=74 velocity=0 time=0@note_on channel=11 note=76 velocity=100 time=0@note_on channel=12 note=71 velocity=0 time=0@note_on channel=12 note=72 velocity=100 time=0@note_on channel=13 note=74 velocity=0 time=0@note_on channel=13 note=76 velocity=100 time=0@note_on channel=14 note=71 velocity=0 time=0@note_on channel=14 note=69 velocity=100 time=0@note_on channel=7 note=76 velocity=0 time=0.15872999999999998@note_on channel=7 note=76 velocity=100 time=0@note_on channel=11 note=76 velocity=0 time=0@note_on channel=11 note=74 velocity=100 time=0@note_on channel=12 note=72 velocity=0 time=0@note_on channel=12 note=69 velocity=100 time=0@note_on channel=1 note=40 velocity=0 time=0.15872999999999998@note_on channel=1 note=50 velocity=100 time=0@note_on channel=6 note=76 velocity=0 time=0@note_on channel=6 note=74 velocity=100 time=0@note_on channel=7 note=76 velocity=0 time=0@note_on channel=7 note=71 velocity=100 time=0@note_on channel=8 note=72 velocity=0 time=0@note_on channel=8 note=79 velocity=100 time=0@note_on channel=10 note=81 velocity=0 time=0@note_on channel=10 note=79 velocity=100 time=0@note_on channel=11 note=74 velocity=0 time=0@note_on channel=11 note=71 velocity=100 time=0@note_on channel=12 note=69 velocity=0 time=0@note_on channel=12 note=72 velocity=100 time=0@note_on channel=13 note=76 velocity=0 time=0@note_on channel=13 note=71 velocity=100 time=0@note_on channel=14 note=69 velocity=0 time=0@note_on channel=14 note=67 velocity=100 time=0@note_on channel=12 note=72 velocity=0 time=0.07936499999999999@note_on channel=12 note=71 velocity=100 time=0@note_on channel=7 note=71 velocity=0 time=0.07936499999999999@note_on channel=7 note=74 velocity=100 time=0@note_on channel=10 note=79 velocity=0 time=0@note_on channel=10 note=81 velocity=100 time=0@note_on channel=11 note=71 velocity=0 time=0@note_on channel=11 note=69 velocity=100 time=0@note_on channel=12 note=71 velocity=0 time=0@note_on channel=12 note=72 velocity=100 time=0@note_on channel=12 note=72 velocity=0 time=0.07936499999999999@note_on channel=12 note=71 velocity=100 time=0@note_on channel=7 note=74 velocity=0 time=0.07936499999999999@note_on channel=7 note=74 velocity=100 time=0@note_on channel=8 note=79 velocity=0 time=0@note_on channel=8 note=79 velocity=100 time=0@note_on channel=10 note=81 velocity=0 time=0@note_on channel=10 note=83 velocity=100 time=0@note_on channel=11 note=69 velocity=0 time=0@note_on channel=11 note=71 velocity=100 time=0@note_on channel=13 note=71 velocity=0 time=0@note_on channel=13 note=67 velocity=100 time=0@note_on channel=14 note=67 velocity=0 time=0@note_on channel=14 note=71 velocity=100 time=0@note_on channel=7 note=74 velocity=0 time=0.15872999999999998@note_on channel=7 note=74 velocity=100 time=0@note_on channel=11 note=71 velocity=0 time=0@note_on channel=11 note=72 velocity=100 time=0@note_on channel=6 note=74 velocity=0 time=0.15872999999999998@note_on channel=6 note=71 velocity=100 time=0@note_on channel=7 note=74 velocity=0 time=0@note_on channel=7 note=74 velocity=100 time=0@note_on channel=8 note=79 velocity=0 time=0@note_on channel=8 note=79 velocity=100 time=0@note_on channel=10 note=83 velocity=0 time=0@note_on channel=10 note=79 velocity=100 time=0@note_on channel=11 note=72 velocity=0 time=0@note_on channel=11 note=74 velocity=100 time=0@note_on channel=12 note=71 velocity=0 time=0@note_on channel=12 note=67 velocity=100 time=0@note_on channel=13 note=67 velocity=0 time=0@note_on channel=13 note=69 velocity=100 time=0@note_on channel=14 note=71 velocity=0 time=0@note_on channel=14 note=67 velocity=100 time=0@note_on channel=7 note=74 velocity=0 time=0.15872999999999998@note_on channel=7 note=74 velocity=100 time=0@note_on channel=11 note=74 velocity=0 time=0@note_on channel=11 note=72 velocity=100 time=0@note_on channel=1 note=50 velocity=0 time=0.15872999999999998@note_on channel=1 note=43 velocity=100 time=0@note_on channel=6 note=71 velocity=0 time=0@note_on channel=6 note=67 velocity=100 time=0@note_on channel=7 note=74 velocity=0 time=0@note_on channel=7 note=71 velocity=100 time=0@note_on channel=8 note=79 velocity=0 time=0@note_on channel=8 note=67 velocity=100 time=0@note_on channel=10 note=79 velocity=0 time=0@note_on channel=10 note=83 velocity=100 time=0@note_on channel=11 note=72 velocity=0 time=0@note_on channel=11 note=71 velocity=100 time=0@note_on channel=12 note=67 velocity=0 time=0@note_on channel=12 note=67 velocity=100 time=0@note_on channel=13 note=69 velocity=0 time=0@note_on channel=13 note=71 velocity=100 time=0@note_on channel=14 note=67 velocity=0 time=0@note_on channel=14 note=74 velocity=100 time=0@note_on channel=7 note=71 velocity=0 time=0.15872999999999998@note_on channel=7 note=74 velocity=100 time=0@note_on channel=10 note=83 velocity=0 time=0@note_on channel=10 note=84 velocity=100 time=0@note_on channel=11 note=71 velocity=0 time=0@note_on channel=11 note=69 velocity=100 time=0@note_on channel=14 note=74 velocity=0 time=0@note_on channel=14 note=72 velocity=100 time=0@note_on channel=7 note=74 velocity=0 time=0.15872999999999998@note_on channel=7 note=74 velocity=100 time=0@note_on channel=10 note=84 velocity=0 time=0@note_on channel=10 note=86 velocity=100 time=0@note_on channel=11 note=69 velocity=0 time=0@note_on channel=11 note=71 velocity=100 time=0@note_on channel=13 note=71 velocity=0 time=0@note_on channel=13 note=72 velocity=100 time=0@note_on channel=14 note=72 velocity=0 time=0@note_on channel=14 note=71 velocity=100 time=0@note_on channel=7 note=74 velocity=0 time=0.15872999999999998@note_on channel=7 note=74 velocity=100 time=0@note_on channel=8 note=67 velocity=0 time=0@note_on channel=8 note=69 velocity=100 time=0@note_on channel=11 note=71 velocity=0 time=0@note_on channel=11 note=72 velocity=100 time=0@note_on channel=14 note=71 velocity=0 time=0@note_on channel=14 note=69 velocity=100 time=0@note_on channel=7 note=74 velocity=0 time=0.15872999999999998@note_on channel=7 note=74 velocity=100 time=0@note_on channel=8 note=69 velocity=0 time=0@note_on channel=8 note=71 velocity=100 time=0@note_on channel=10 note=86 velocity=0 time=0@note_on channel=10 note=79 velocity=100 time=0@note_on channel=11 note=72 velocity=0 time=0@note_on channel=11 note=74 velocity=100 time=0@note_on channel=13 note=72 velocity=0 time=0@note_on channel=13 note=74 velocity=100 time=0@note_on channel=14 note=69 velocity=0 time=0@note_on channel=14 note=67 velocity=100 time=0@note_on channel=7 note=74 velocity=0 time=0.15872999999999998@note_on channel=7 note=74 velocity=100 time=0@note_on channel=11 note=74 velocity=0 time=0@note_on channel=11 note=72 velocity=100 time=0@note_on channel=1 note=43 velocity=0 time=0.15872999999999998@note_on channel=1 note=45 velocity=100 time=0@note_on channel=6 note=67 velocity=0 time=0@note_on channel=6 note=69 velocity=100 time=0@note_on channel=7 note=74 velocity=0 time=0@note_on channel=7 note=69 velocity=100 time=0@note_on channel=8 note=71 velocity=0 time=0@note_on channel=8 note=81 velocity=100 time=0@note_on channel=10 note=79 velocity=0 time=0@note_on channel=10 note=81 velocity=100 time=0@note_on channel=11 note=72 velocity=0 time=0@note_on channel=11 note=72 velocity=100 time=0@note_on channel=12 note=67 velocity=0 time=0@note_on channel=12 note=57 velocity=100 time=0@note_on channel=13 note=74 velocity=0 time=0@note_on channel=13 note=72 velocity=100 time=0@note_on channel=14 note=67 velocity=0 time=0@note_on channel=14 note=69 velocity=100 time=0@note_on channel=7 note=69 velocity=0 time=0.15872999999999998@note_on channel=7 note=72 velocity=100 time=0@note_on channel=10 note=81 velocity=0 time=0@note_on channel=10 note=83 velocity=100 time=0@note_on channel=11 note=72 velocity=0 time=0@note_on channel=11 note=71 velocity=100 time=0@note_on channel=12 note=57 velocity=0 time=0@note_on channel=12 note=59 velocity=100 time=0@note_on channel=7 note=72 velocity=0 time=0.15872999999999998@note_on channel=7 note=72 velocity=100 time=0@note_on channel=8 note=81 velocity=0 time=0@note_on channel=8 note=81 velocity=100 time=0@note_on channel=10 note=83 velocity=0 time=0@note_on channel=10 note=84 velocity=100 time=0@note_on channel=11 note=71 velocity=0 time=0@note_on channel=11 note=72 velocity=100 time=0@note_on channel=12 note=59 velocity=0 time=0@note_on channel=12 note=60 velocity=100 time=0@note_on channel=13 note=72 velocity=0 time=0@note_on channel=13 note=69 velocity=100 time=0@note_on channel=14 note=69 velocity=0 time=0@note_on channel=14 note=72 velocity=100 time=0@note_on channel=6 note=69 velocity=0 time=0.15872999999999998@note_on channel=6 note=71 velocity=100 time=0@note_on channel=7 note=72 velocity=0 time=0@note_on channel=7 note=72 velocity=100 time=0@note_on channel=11 note=72 velocity=0 time=0@note_on channel=11 note=74 velocity=100 time=0@note_on channel=12 note=60 velocity=0 time=0@note_on channel=12 note=62 velocity=100 time=0@note_on channel=6 note=71 velocity=0 time=0.15872999999999998@note_on channel=6 note=72 velocity=100 time=0@note_on channel=7 note=72 velocity=0 time=0@note_on channel=7 note=72 velocity=100 time=0@note_on channel=8 note=81 velocity=0 time=0@note_on channel=8 note=81 velocity=100 time=0@note_on channel=10 note=84 velocity=0 time=0@note_on channel=10 note=81 velocity=100 time=0@note_on channel=11 note=74 velocity=0 time=0@note_on channel=11 note=72 velocity=100 time=0@note_on channel=12 note=62 velocity=0 time=0@note_on channel=12 note=64 velocity=100 time=0@note_on channel=13 note=69 velocity=0 time=0@note_on channel=13 note=71 velocity=100 time=0@note_on channel=14 note=72 velocity=0 time=0@note_on channel=14 note=69 velocity=100 time=0@note_on channel=7 note=72 velocity=0 time=0.15872999999999998@note_on channel=7 note=72 velocity=100 time=0@note_on channel=11 note=72 velocity=0 time=0@note_on channel=11 note=71 velocity=100 time=0@note_on channel=12 note=64 velocity=0 time=0@note_on channel=12 note=57 velocity=100 time=0@note_on channel=1 note=45 velocity=0 time=0.15872999999999998@note_on channel=1 note=38 velocity=100 time=0@note_on channel=6 note=72 velocity=0 time=0@note_on channel=6 note=74 velocity=100 time=0@note_on channel=7 note=72 velocity=0 time=0@note_on channel=7 note=69 velocity=100 time=0@note_on channel=8 note=81 velocity=0 time=0@note_on channel=8 note=69 velocity=100 time=0@note_on channel=10 note=81 velocity=0 time=0@note_on channel=10 note=84 velocity=100 time=0@note_on channel=11 note=71 velocity=0 time=0@note_on channel=11 note=69 velocity=100 time=0@note_on channel=12 note=57 velocity=0 time=0@note_on channel=12 note=69 velocity=100 time=0@note_on channel=13 note=71 velocity=0 time=0@note_on channel=13 note=72 velocity=100 time=0@note_on channel=14 note=69 velocity=0 time=0@note_on channel=14 note=76 velocity=100 time=0@note_on channel=7 note=69 velocity=0 time=0.15872999999999998@note_on channel=7 note=72 velocity=100 time=0@note_on channel=10 note=84 velocity=0 time=0@note_on channel=10 note=86 velocity=100 time=0@note_on channel=11 note=69 velocity=0 time=0@note_on channel=11 note=68 velocity=100 time=0@note_on channel=12 note=69 velocity=0 time=0@note_on channel=12 note=68 velocity=100 time=0@note_on channel=14 note=76 velocity=0 time=0@note_on channel=14 note=74 velocity=100 time=0@note_on channel=6 note=74 velocity=0 time=0.15872999999999998@note_on channel=6 note=76 velocity=100 time=0@note_on channel=7 note=72 velocity=0 time=0@note_on channel=7 note=72 velocity=100 time=0@note_on channel=10 note=86 velocity=0 time=0@note_on channel=10 note=88 velocity=100 time=0@note_on channel=11 note=68 velocity=0 time=0@note_on channel=11 note=69 velocity=100 time=0@note_on channel=12 note=68 velocity=0 time=0@note_on channel=12 note=69 velocity=100 time=0@note_on channel=13 note=72 velocity=0 time=0@note_on channel=13 note=74 velocity=100 time=0@note_on channel=14 note=74 velocity=0 time=0@note_on channel=14 note=72 velocity=100 time=0@note_on channel=7 note=72 velocity=0 time=0.15872999999999998@note_on channel=7 note=72 velocity=100 time=0@note_on channel=8 note=69 velocity=0 time=0@note_on channel=8 note=71 velocity=100 time=0@note_on channel=11 note=69 velocity=0 time=0@note_on channel=11 note=71 velocity=100 time=0@note_on channel=12 note=69 velocity=0 time=0@note_on channel=12 note=71 velocity=100 time=0@note_on channel=14 note=72 velocity=0 time=0@note_on channel=14 note=71 velocity=100 time=0@note_on channel=6 note=76 velocity=0 time=0.15872999999999998@note_on channel=6 note=72 velocity=100 time=0@note_on channel=7 note=72 velocity=0 time=0@note_on channel=7 note=72 velocity=100 time=0@note_on channel=8 note=71 velocity=0 time=0@note_on channel=8 note=72 velocity=100 time=0@note_on channel=10 note=88 velocity=0 time=0@note_on channel=10 note=81 velocity=100 time=0@note_on channel=11 note=71 velocity=0 time=0@note_on channel=11 note=72 velocity=100 time=0@note_on channel=12 note=71 velocity=0 time=0@note_on channel=12 note=72 velocity=100 time=0@note_on channel=13 note=74 velocity=0 time=0@note_on channel=13 note=76 velocity=100 time=0@note_on channel=14 note=71 velocity=0 time=0@note_on channel=14 note=69 velocity=100 time=0@note_on channel=7 note=72 velocity=0 time=0.15872999999999998@note_on channel=7 note=72 velocity=100 time=0@note_on channel=8 note=72 velocity=0 time=0@note_on channel=8 note=74 velocity=100 time=0@note_on channel=11 note=72 velocity=0 time=0@note_on channel=11 note=69 velocity=100 time=0@note_on channel=12 note=72 velocity=0 time=0@note_on channel=12 note=69 velocity=100 time=0@note_on channel=1 note=38 velocity=0 time=0.15872999999999998@note_on channel=1 note=47 velocity=100 time=0@note_on channel=6 note=72 velocity=0 time=0@note_on channel=6 note=71 velocity=100 time=0@note_on channel=7 note=72 velocity=0 time=0@note_on channel=7 note=68 velocity=100 time=0@note_on channel=8 note=74 velocity=0 time=0@note_on channel=8 note=76 velocity=100 time=0@note_on channel=10 note=81 velocity=0 time=0@note_on channel=10 note=76 velocity=100 time=0@note_on channel=11 note=69 velocity=0 time=0@note_on channel=11 note=71 velocity=100 time=0@note_on channel=12 note=69 velocity=0 time=0@note_on channel=12 note=69 velocity=100 time=0@note_on channel=13 note=76 velocity=0 time=0@note_on channel=13 note=71 velocity=100 time=0@note_on channel=14 note=69 velocity=0 time=0@note_on channel=14 note=64 velocity=100 time=0@note_on channel=12 note=69 velocity=0 time=0.07936499999999999@note_on channel=12 note=68 velocity=100 time=0@note_on channel=7 note=68 velocity=0 time=0.07936499999999999@note_on channel=7 note=71 velocity=100 time=0@note_on channel=10 note=76 velocity=0 time=0@note_on channel=10 note=78 velocity=100 time=0@note_on channel=11 note=71 velocity=0 time=0@note_on channel=11 note=69 velocity=100 time=0@note_on channel=12 note=68 velocity=0 time=0@note_on channel=12 note=69 velocity=100 time=0@note_on channel=12 note=69 velocity=0 time=0.07936499999999999@note_on channel=12 note=68 velocity=100 time=0@note_on channel=7 note=71 velocity=0 time=0.07936499999999999@note_on channel=7 note=71 velocity=100 time=0@note_on channel=8 note=76 velocity=0 time=0@note_on channel=8 note=76 velocity=100 time=0@note_on channel=10 note=78 velocity=0 time=0@note_on channel=10 note=80 velocity=100 time=0@note_on channel=11 note=69 velocity=0 time=0@note_on channel=11 note=71 velocity=100 time=0@note_on channel=14 note=64 velocity=0 time=0@note_on channel=14 note=68 velocity=100 time=0@note_on channel=7 note=71 velocity=0 time=0.15872999999999998@note_on channel=7 note=71 velocity=100 time=0@note_on channel=11 note=71 velocity=0 time=0@note_on channel=11 note=69 velocity=100 time=0@note_on channel=6 note=71 velocity=0 time=0.15872999999999998@note_on channel=6 note=68 velocity=100 time=0@note_on channel=7 note=71 velocity=0 time=0@note_on channel=7 note=71 velocity=100 time=0@note_on channel=8 note=76 velocity=0 time=0@note_on channel=8 note=76 velocity=100 time=0@note_on channel=10 note=80 velocity=0 time=0@note_on channel=10 note=76 velocity=100 time=0@note_on channel=11 note=69 velocity=0 time=0@note_on channel=11 note=68 velocity=100 time=0@note_on channel=12 note=68 velocity=0 time=0@note_on channel=12 note=64 velocity=100 time=0@note_on channel=13 note=71 velocity=0 time=0@note_on channel=13 note=68 velocity=100 time=0@note_on channel=14 note=68 velocity=0 time=0@note_on channel=14 note=64 velocity=100 time=0@note_on channel=7 note=71 velocity=0 time=0.15872999999999998@note_on channel=7 note=71 velocity=100 time=0@note_on channel=11 note=68 velocity=0 time=0@note_on channel=11 note=66 velocity=100 time=0@note_on channel=1 note=47 velocity=0 time=0.15872999999999998@note_on channel=1 note=40 velocity=100 time=0@note_on channel=6 note=68 velocity=0 time=0@note_on channel=6 note=64 velocity=100 time=0@note_on channel=7 note=71 velocity=0 time=0@note_on channel=7 note=64 velocity=100 time=0@note_on channel=8 note=76 velocity=0 time=0@note_on channel=8 note=68 velocity=100 time=0@note_on channel=10 note=76 velocity=0 time=0@note_on channel=10 note=80 velocity=100 time=0@note_on channel=11 note=66 velocity=0 time=0@note_on channel=11 note=64 velocity=100 time=0@note_on channel=12 note=64 velocity=0 time=0@note_on channel=12 note=64 velocity=100 time=0@note_on channel=13 note=68 velocity=0 time=0@note_on channel=13 note=64 velocity=100 time=0@note_on channel=14 note=64 velocity=0 time=0@note_on channel=14 note=71 velocity=100 time=0@note_on channel=8 note=68 velocity=0 time=0.07936499999999999@note_on channel=8 note=69 velocity=100 time=0@note_on channel=7 note=64 velocity=0 time=0.07936499999999999@note_on channel=7 note=71 velocity=100 time=0@note_on channel=8 note=69 velocity=0 time=0@note_on channel=8 note=68 velocity=100 time=0@note_on channel=10 note=80 velocity=0 time=0@note_on channel=10 note=81 velocity=100 time=0@note_on channel=11 note=64 velocity=0 time=0@note_on channel=11 note=66 velocity=100 time=0@note_on channel=14 note=71 velocity=0 time=0@note_on channel=14 note=69 velocity=100 time=0@note_on channel=7 note=71 velocity=0 time=0.15872999999999998@note_on channel=7 note=71 velocity=100 time=0@note_on channel=8 note=68 velocity=0 time=0@note_on channel=8 note=64 velocity=100 time=0@note_on channel=10 note=81 velocity=0 time=0@note_on channel=10 note=83 velocity=100 time=0@note_on channel=11 note=66 velocity=0 time=0@note_on channel=11 note=68 velocity=100 time=0@note_on channel=14 note=69 velocity=0 time=0@note_on channel=14 note=68 velocity=100 time=0@note_on channel=7 note=71 velocity=0 time=0.15872999999999998@note_on channel=7 note=71 velocity=100 time=0@note_on channel=11 note=68 velocity=0 time=0@note_on channel=11 note=69 velocity=100 time=0@note_on channel=14 note=68 velocity=0 time=0@note_on channel=14 note=66 velocity=100 time=0@note_on channel=7 note=71 velocity=0 time=0.15872999999999998@note_on channel=7 note=71 velocity=100 time=0@note_on channel=8 note=64 velocity=0 time=0@note_on channel=8 note=64 velocity=100 time=0@note_on channel=10 note=83 velocity=0 time=0@note_on channel=10 note=76 velocity=100 time=0@note_on channel=11 note=69 velocity=0 time=0@note_on channel=11 note=68 velocity=100 time=0@note_on channel=14 note=66 velocity=0 time=0@note_on channel=14 note=64 velocity=100 time=0@note_on channel=7 note=71 velocity=0 time=0.15872999999999998@note_on channel=7 note=71 velocity=100 time=0@note_on channel=11 note=68 velocity=0 time=0@note_on channel=11 note=64 velocity=100 time=0@note_on channel=1 note=40 velocity=0 time=0.15872999999999998@note_on channel=1 note=48 velocity=100 time=0@note_on channel=6 note=64 velocity=0 time=0@note_on channel=6 note=72 velocity=100 time=0@note_on channel=7 note=71 velocity=0 time=0@note_on channel=7 note=76 velocity=100 time=0@note_on channel=8 note=64 velocity=0 time=0@note_on channel=8 note=84 velocity=100 time=0@note_on channel=10 note=76 velocity=0 time=0@note_on channel=10 note=84 velocity=100 time=0@note_on channel=11 note=64 velocity=0 time=0@note_on channel=11 note=72 velocity=100 time=0@note_on channel=12 note=64 velocity=0 time=0@note_on channel=12 note=60 velocity=100 time=0@note_on channel=13 note=64 velocity=0 time=0@note_on channel=13 note=76 velocity=100 time=0@note_on channel=14 note=64 velocity=0 time=0@note_on channel=14 note=72 velocity=100 time=0@note_on channel=7 note=76 velocity=0 time=0.15872999999999998@note_on channel=7 note=79 velocity=100 time=0@note_on channel=10 note=84 velocity=0 time=0@note_on channel=10 note=86 velocity=100 time=0@note_on channel=11 note=72 velocity=0 time=0@note_on channel=11 note=71 velocity=100 time=0@note_on channel=12 note=60 velocity=0 time=0@note_on channel=12 note=59 velocity=100 time=0@note_on channel=7 note=79 velocity=0 time=0.15872999999999998@note_on channel=7 note=79 velocity=100 time=0@note_on channel=8 note=84 velocity=0 time=0@note_on channel=8 note=84 velocity=100 time=0@note_on channel=10 note=86 velocity=0 time=0@note_on channel=10 note=88 velocity=100 time=0@note_on channel=11 note=71 velocity=0 time=0@note_on channel=11 note=72 velocity=100 time=0@note_on channel=12 note=59 velocity=0 time=0@note_on channel=12 note=60 velocity=100 time=0@note_on channel=13 note=76 velocity=0 time=0@note_on channel=13 note=72 velocity=100 time=0@note_on channel=14 note=72 velocity=0 time=0@note_on channel=14 note=76 velocity=100 time=0@note_on channel=7 note=79 velocity=0 time=0.15872999999999998@note_on channel=7 note=79 velocity=100 time=0@note_on channel=11 note=72 velocity=0 time=0@note_on channel=11 note=74 velocity=100 time=0@note_on channel=12 note=60 velocity=0 time=0@note_on channel=12 note=62 velocity=100 time=0@note_on channel=6 note=72 velocity=0 time=0.15872999999999998@note_on channel=6 note=74 velocity=100 time=0@note_on channel=7 note=79 velocity=0 time=0@note_on channel=7 note=79 velocity=100 time=0@note_on channel=8 note=84 velocity=0 time=0@note_on channel=8 note=84 velocity=100 time=0@note_on channel=10 note=88 velocity=0 time=0@note_on channel=10 note=84 velocity=100 time=0@note_on channel=11 note=74 velocity=0 time=0@note_on channel=11 note=76 velocity=100 time=0@note_on channel=12 note=62 velocity=0 time=0@note_on channel=12 note=64 velocity=100 time=0@note_on channel=13 note=72 velocity=0 time=0@note_on channel=13 note=74 velocity=100 time=0@note_on channel=14 note=76 velocity=0 time=0@note_on channel=14 note=72 velocity=100 time=0@note_on channel=7 note=79 velocity=0 time=0.15872999999999998@note_on channel=7 note=79 velocity=100 time=0@note_on channel=11 note=76 velocity=0 time=0@note_on channel=11 note=74 velocity=100 time=0@note_on channel=12 note=64 velocity=0 time=0@note_on channel=12 note=65 velocity=100 time=0@note_on channel=1 note=48 velocity=0 time=0.15872999999999998@note_on channel=1 note=40 velocity=100 time=0@note_on channel=6 note=74 velocity=0 time=0@note_on channel=6 note=76 velocity=100 time=0@note_on channel=7 note=79 velocity=0 time=0@note_on channel=7 note=72 velocity=100 time=0@note_on channel=8 note=84 velocity=0 time=0@note_on channel=8 note=72 velocity=100 time=0@note_on channel=10 note=84 velocity=0 time=0@note_on channel=10 note=88 velocity=100 time=0@note_on channel=11 note=74 velocity=0 time=0@note_on channel=11 note=72 velocity=100 time=0@note_on channel=12 note=65 velocity=0 time=0@note_on channel=12 note=67 velocity=100 time=0@note_on channel=13 note=74 velocity=0 time=0@note_on channel=13 note=76 velocity=100 time=0@note_on channel=14 note=72 velocity=0 time=0@note_on channel=14 note=79 velocity=100 time=0@note_on channel=7 note=72 velocity=0 time=0.15872999999999998@note_on channel=7 note=79 velocity=100 time=0@note_on channel=10 note=88 velocity=0 time=0@note_on channel=10 note=89 velocity=100 time=0@note_on channel=11 note=72 velocity=0 time=0@note_on channel=11 note=71 velocity=100 time=0@note_on channel=12 note=67 velocity=0 time=0@note_on channel=12 note=69 velocity=100 time=0@note_on channel=14 note=79 velocity=0 time=0@note_on channel=14 note=77 velocity=100 time=0@note_on channel=7 note=79 velocity=0 time=0.15872999999999998@note_on channel=7 note=79 velocity=100 time=0@note_on channel=10 note=89 velocity=0 time=0@note_on channel=10 note=91 velocity=100 time=0@note_on channel=11 note=71 velocity=0 time=0@note_on channel=11 note=72 velocity=100 time=0@note_on channel=12 note=69 velocity=0 time=0@note_on channel=12 note=71 velocity=100 time=0@note_on channel=13 note=76 velocity=0 time=0@note_on channel=13 note=77 velocity=100 time=0@note_on channel=14 note=77 velocity=0 time=0@note_on channel=14 note=76 velocity=100 time=0@note_on channel=6 note=76 velocity=0 time=0.15872999999999998@note_on channel=6 note=74 velocity=100 time=0@note_on channel=7 note=79 velocity=0 time=0@note_on channel=7 note=79 velocity=100 time=0@note_on channel=8 note=72 velocity=0 time=0@note_on channel=8 note=74 velocity=100 time=0@note_on channel=11 note=72 velocity=0 time=0@note_on channel=11 note=74 velocity=100 time=0@note_on channel=12 note=71 velocity=0 time=0@note_on channel=12 note=67 velocity=100 time=0@note_on channel=14 note=76 velocity=0 time=0@note_on channel=14 note=74 velocity=100 time=0@note_on channel=6 note=74 velocity=0 time=0.15872999999999998@note_on channel=6 note=72 velocity=100 time=0@note_on channel=7 note=79 velocity=0 time=0@note_on channel=7 note=79 velocity=100 time=0@note_on channel=8 note=74 velocity=0 time=0@note_on channel=8 note=76 velocity=100 time=0@note_on channel=10 note=91 velocity=0 time=0@note_on channel=10 note=84 velocity=100 time=0@note_on channel=11 note=74 velocity=0 time=0@note_on channel=11 note=76 velocity=100 time=0@note_on channel=12 note=67 velocity=0 time=0@note_on channel=12 note=69 velocity=100 time=0@note_on channel=13 note=77 velocity=0 time=0@note_on channel=13 note=79 velocity=100 time=0@note_on channel=14 note=74 velocity=0 time=0@note_on channel=14 note=72 velocity=100 time=0@note_on channel=7 note=79 velocity=0 time=0.15872999999999998@note_on channel=7 note=79 velocity=100 time=0@note_on channel=8 note=76 velocity=0 time=0@note_on channel=8 note=77 velocity=100 time=0@note_on channel=11 note=76 velocity=0 time=0@note_on channel=11 note=74 velocity=100 time=0@note_on channel=12 note=69 velocity=0 time=0@note_on channel=12 note=71 velocity=100 time=0@note_on channel=1 note=40 velocity=0 time=0.15872999999999998@note_on channel=1 note=50 velocity=100 time=0@note_on channel=6 note=72 velocity=0 time=0@note_on channel=6 note=74 velocity=100 time=0@note_on channel=7 note=79 velocity=0 time=0@note_on channel=7 note=71 velocity=100 time=0@note_on channel=8 note=77 velocity=0 time=0@note_on channel=8 note=79 velocity=100 time=0@note_on channel=10 note=84 velocity=0 time=0@note_on channel=10 note=79 velocity=100 time=0@note_on channel=11 note=74 velocity=0 time=0@note_on channel=11 note=74 velocity=100 time=0@note_on channel=12 note=71 velocity=0 time=0@note_on channel=12 note=69 velocity=100 time=0@note_on channel=13 note=79 velocity=0 time=0@note_on channel=13 note=71 velocity=100 time=0@note_on channel=14 note=72 velocity=0 time=0@note_on channel=14 note=67 velocity=100 time=0@note_on channel=12 note=69 velocity=0 time=0.07936499999999999@note_on channel=12 note=67 velocity=100 time=0@note_on channel=7 note=71 velocity=0 time=0.07936499999999999@note_on channel=7 note=74 velocity=100 time=0@note_on channel=10 note=79 velocity=0 time=0@note_on channel=10 note=81 velocity=100 time=0@note_on channel=11 note=74 velocity=0 time=0@note_on channel=11 note=72 velocity=100 time=0@note_on channel=12 note=67 velocity=0 time=0@note_on channel=12 note=69 velocity=100 time=0@note_on channel=12 note=69 velocity=0 time=0.07936499999999999@note_on channel=12 note=67 velocity=100 time=0@note_on channel=7 note=74 velocity=0 time=0.07936499999999999@note_on channel=7 note=74 velocity=100 time=0@note_on channel=8 note=79 velocity=0 time=0@note_on channel=8 note=79 velocity=100 time=0@note_on channel=10 note=81 velocity=0 time=0@note_on channel=10 note=83 velocity=100 time=0@note_on channel=11 note=72 velocity=0 time=0@note_on channel=11 note=74 velocity=100 time=0@note_on channel=12 note=67 velocity=0 time=0@note_on channel=12 note=62 velocity=100 time=0@note_on channel=13 note=71 velocity=0 time=0@note_on channel=13 note=67 velocity=100 time=0@note_on channel=14 note=67 velocity=0 time=0@note_on channel=14 note=71 velocity=100 time=0@note_on channel=7 note=74 velocity=0 time=0.15872999999999998@note_on channel=7 note=74 velocity=100 time=0@note_on channel=11 note=74 velocity=0 time=0@note_on channel=11 note=76 velocity=100 time=0@note_on channel=6 note=74 velocity=0 time=0.15872999999999998@note_on channel=6 note=71 velocity=100 time=0@note_on channel=7 note=74 velocity=0 time=0@note_on channel=7 note=74 velocity=100 time=0@note_on channel=8 note=79 velocity=0 time=0@note_on channel=8 note=81 velocity=100 time=0@note_on channel=10 note=83 velocity=0 time=0@note_on channel=10 note=79 velocity=100 time=0@note_on channel=11 note=76 velocity=0 time=0@note_on channel=11 note=74 velocity=100 time=0@note_on channel=12 note=62 velocity=0 time=0@note_on channel=12 note=62 velocity=100 time=0@note_on channel=13 note=67 velocity=0 time=0@note_on channel=13 note=69 velocity=100 time=0@note_on channel=14 note=71 velocity=0 time=0@note_on channel=14 note=67 velocity=100 time=0@note_on channel=7 note=74 velocity=0 time=0.15872999999999998@note_on channel=7 note=74 velocity=100 time=0@note_on channel=11 note=74 velocity=0 time=0@note_on channel=11 note=72 velocity=100 time=0@note_on channel=1 note=50 velocity=0 time=0.15872999999999998@note_on channel=1 note=43 velocity=100 time=0@note_on channel=6 note=71 velocity=0 time=0@note_on channel=6 note=67 velocity=100 time=0@note_on channel=7 note=74 velocity=0 time=0@note_on channel=7 note=67 velocity=100 time=0@note_on channel=8 note=81 velocity=0 time=0@note_on channel=8 note=84 velocity=100 time=0@note_on channel=10 note=79 velocity=0 time=0@note_on channel=10 note=83 velocity=100 time=0@note_on channel=11 note=72 velocity=0 time=0@note_on channel=11 note=71 velocity=100 time=0@note_on channel=12 note=62 velocity=0 time=0@note_on channel=12 note=62 velocity=100 time=0@note_on channel=13 note=69 velocity=0 time=0@note_on channel=13 note=71 velocity=100 time=0@note_on channel=14 note=67 velocity=0 time=0@note_on channel=14 note=74 velocity=100 time=0@note_on channel=8 note=84 velocity=0 time=0.07936499999999999@note_on channel=8 note=83 velocity=100 time=0@note_on channel=7 note=67 velocity=0 time=0.07936499999999999@note_on channel=7 note=74 velocity=100 time=0@note_on channel=8 note=83 velocity=0 time=0@note_on channel=8 note=84 velocity=100 time=0@note_on channel=10 note=83 velocity=0 time=0@note_on channel=10 note=84 velocity=100 time=0@note_on channel=11 note=71 velocity=0 time=0@note_on channel=11 note=69 velocity=100 time=0@note_on channel=14 note=74 velocity=0 time=0@note_on channel=14 note=72 velocity=100 time=0@note_on channel=8 note=84 velocity=0 time=0.07936499999999999@note_on channel=8 note=83 velocity=100 time=0@note_on channel=7 note=74 velocity=0 time=0.07936499999999999@note_on channel=7 note=74 velocity=100 time=0@note_on channel=10 note=84 velocity=0 time=0@note_on channel=10 note=86 velocity=100 time=0@note_on channel=11 note=69 velocity=0 time=0@note_on channel=11 note=71 velocity=100 time=0@note_on channel=13 note=71 velocity=0 time=0@note_on channel=13 note=72 velocity=100 time=0@note_on channel=14 note=72 velocity=0 time=0@note_on channel=14 note=71 velocity=100 time=0@note_on channel=6 note=67 velocity=0 time=0.15872999999999998@note_on channel=6 note=69 velocity=100 time=0@note_on channel=7 note=74 velocity=0 time=0@note_on channel=7 note=74 velocity=100 time=0@note_on channel=8 note=83 velocity=0 time=0@note_on channel=8 note=81 velocity=100 time=0@note_on channel=11 note=71 velocity=0 time=0@note_on channel=11 note=72 velocity=100 time=0@note_on channel=12 note=62 velocity=0 time=0@note_on channel=12 note=64 velocity=100 time=0@note_on channel=14 note=71 velocity=0 time=0@note_on channel=14 note=69 velocity=100 time=0@note_on channel=6 note=69 velocity=0 time=0.15872999999999998@note_on channel=6 note=71 velocity=100 time=0@note_on channel=7 note=74 velocity=0 time=0@note_on channel=7 note=74 velocity=100 time=0@note_on channel=8 note=81 velocity=0 time=0@note_on channel=8 note=79 velocity=100 time=0@note_on channel=10 note=86 velocity=0 time=0@note_on channel=10 note=79 velocity=100 time=0@note_on channel=11 note=72 velocity=0 time=0@note_on channel=11 note=74 velocity=100 time=0@note_on channel=12 note=64 velocity=0 time=0@note_on channel=12 note=65 velocity=100 time=0@note_on channel=13 note=72 velocity=0 time=0@note_on channel=13 note=74 velocity=100 time=0@note_on channel=14 note=69 velocity=0 time=0@note_on channel=14 note=67 velocity=100 time=0@note_on channel=7 note=74 velocity=0 time=0.15872999999999998@note_on channel=7 note=74 velocity=100 time=0@note_on channel=11 note=74 velocity=0 time=0@note_on channel=11 note=72 velocity=100 time=0@note_on channel=1 note=43 velocity=0 time=0.15872999999999998@note_on channel=1 note=45 velocity=100 time=0@note_on channel=6 note=71 velocity=0 time=0@note_on channel=6 note=72 velocity=100 time=0@note_on channel=7 note=74 velocity=0 time=0@note_on channel=7 note=69 velocity=100 time=0@note_on channel=8 note=79 velocity=0 time=0@note_on channel=8 note=84 velocity=100 time=0@note_on channel=10 note=79 velocity=0 time=0@note_on channel=10 note=93 velocity=100 time=0@note_on channel=11 note=72 velocity=0 time=0@note_on channel=11 note=72 velocity=100 time=0@note_on channel=12 note=65 velocity=0 time=0@note_on channel=12 note=60 velocity=100 time=0@note_on channel=13 note=74 velocity=0 time=0@note_on channel=13 note=72 velocity=100 time=0@note_on channel=14 note=67 velocity=0 time=0@note_on channel=14 note=76 velocity=100 time=0@note_on channel=13 note=72 velocity=0 time=0.07936499999999999@note_on channel=13 note=74 velocity=100 time=0@note_on channel=7 note=69 velocity=0 time=0.07936499999999999@note_on channel=7 note=72 velocity=100 time=0@note_on channel=10 note=93 velocity=0 time=0@note_on channel=10 note=95 velocity=100 time=0@note_on channel=11 note=72 velocity=0 time=0@note_on channel=11 note=71 velocity=100 time=0@note_on channel=13 note=74 velocity=0 time=0@note_on channel=13 note=72 velocity=100 time=0@note_on channel=14 note=76 velocity=0 time=0@note_on channel=14 note=74 velocity=100 time=0@note_on channel=7 note=72 velocity=0 time=0.15872999999999998@note_on channel=7 note=72 velocity=100 time=0@note_on channel=8 note=84 velocity=0 time=0@note_on channel=8 note=83 velocity=100 time=0@note_on channel=10 note=95 velocity=0 time=0@note_on channel=10 note=96 velocity=100 time=0@note_on channel=11 note=71 velocity=0 time=0@note_on channel=11 note=72 velocity=100 time=0@note_on channel=12 note=60 velocity=0 time=0@note_on channel=12 note=59 velocity=100 time=0@note_on channel=13 note=72 velocity=0 time=0@note_on channel=13 note=69 velocity=100 time=0@note_on channel=14 note=74 velocity=0 time=0@note_on channel=14 note=72 velocity=100 time=0@note_on channel=6 note=72 velocity=0 time=0.15872999999999998@note_on channel=6 note=71 velocity=100 time=0@note_on channel=7 note=72 velocity=0 time=0@note_on channel=7 note=72 velocity=100 time=0@note_on channel=11 note=72 velocity=0 time=0@note_on channel=11 note=74 velocity=100 time=0@note_on channel=14 note=72 velocity=0 time=0@note_on channel=14 note=71 velocity=100 time=0@note_on channel=6 note=71 velocity=0 time=0.15872999999999998@note_on channel=6 note=69 velocity=100 time=0@note_on channel=7 note=72 velocity=0 time=0@note_on channel=7 note=72 velocity=100 time=0@note_on channel=8 note=83 velocity=0 time=0@note_on channel=8 note=81 velocity=100 time=0@note_on channel=10 note=96 velocity=0 time=0@note_on channel=10 note=93 velocity=100 time=0@note_on channel=11 note=74 velocity=0 time=0@note_on channel=11 note=76 velocity=100 time=0@note_on channel=12 note=59 velocity=0 time=0@note_on channel=12 note=57 velocity=100 time=0@note_on channel=13 note=69 velocity=0 time=0@note_on channel=13 note=72 velocity=100 time=0@note_on channel=14 note=71 velocity=0 time=0@note_on channel=14 note=69 velocity=100 time=0@note_on channel=7 note=72 velocity=0 time=0.15872999999999998@note_on channel=7 note=72 velocity=100 time=0@note_on channel=11 note=76 velocity=0 time=0@note_on channel=11 note=74 velocity=100 time=0@note_on channel=1 note=45 velocity=0 time=0.15872999999999998@note_on channel=1 note=38 velocity=100 time=0@note_on channel=6 note=69 velocity=0 time=0@note_on channel=6 note=72 velocity=100 time=0@note_on channel=7 note=72 velocity=0 time=0@note_on channel=7 note=64 velocity=100 time=0@note_on channel=8 note=81 velocity=0 time=0@note_on channel=8 note=81 velocity=100 time=0@note_on channel=10 note=93 velocity=0 time=0@note_on channel=10 note=92 velocity=100 time=0@note_on channel=11 note=74 velocity=0 time=0@note_on channel=11 note=74 velocity=100 time=0@note_on channel=12 note=57 velocity=0 time=0@note_on channel=12 note=57 velocity=100 time=0@note_on channel=13 note=72 velocity=0 time=0@note_on channel=13 note=71 velocity=100 time=0@note_on channel=14 note=69 velocity=0 time=0@note_on channel=14 note=71 velocity=100 time=0@note_on channel=6 note=72 velocity=0 time=0.07936499999999999@note_on channel=6 note=71 velocity=100 time=0@note_on channel=8 note=81 velocity=0 time=0@note_on channel=8 note=80 velocity=100 time=0@note_on channel=12 note=57 velocity=0 time=0@note_on channel=12 note=56 velocity=100 time=0@note_on channel=13 note=71 velocity=0 time=0@note_on channel=13 note=72 velocity=100 time=0@note_on channel=6 note=71 velocity=0 time=0.07936499999999999@note_on channel=6 note=72 velocity=100 time=0@note_on channel=7 note=64 velocity=0 time=0@note_on channel=7 note=71 velocity=100 time=0@note_on channel=8 note=80 velocity=0 time=0@note_on channel=8 note=81 velocity=100 time=0@note_on channel=10 note=92 velocity=0 time=0@note_on channel=10 note=93 velocity=100 time=0@note_on channel=11 note=74 velocity=0 time=0@note_on channel=11 note=72 velocity=100 time=0@note_on channel=12 note=56 velocity=0 time=0@note_on channel=12 note=57 velocity=100 time=0@note_on channel=13 note=72 velocity=0 time=0@note_on channel=13 note=71 velocity=100 time=0@note_on channel=14 note=71 velocity=0 time=0@note_on channel=14 note=69 velocity=100 time=0@note_on channel=6 note=72 velocity=0 time=0.07936499999999999@note_on channel=6 note=71 velocity=100 time=0@note_on channel=8 note=81 velocity=0 time=0@note_on channel=8 note=80 velocity=100 time=0@note_on channel=12 note=57 velocity=0 time=0@note_on channel=12 note=56 velocity=100 time=0@note_on channel=7 note=71 velocity=0 time=0.07936499999999999@note_on channel=7 note=71 velocity=100 time=0@note_on channel=10 note=93 velocity=0 time=0@note_on channel=10 note=95 velocity=100 time=0@note_on channel=11 note=72 velocity=0 time=0@note_on channel=11 note=71 velocity=100 time=0@note_on channel=13 note=71 velocity=0 time=0@note_on channel=13 note=68 velocity=100 time=0@note_on channel=14 note=69 velocity=0 time=0@note_on channel=14 note=68 velocity=100 time=0@note_on channel=6 note=71 velocity=0 time=0.15872999999999998@note_on channel=6 note=69 velocity=100 time=0@note_on channel=7 note=71 velocity=0 time=0@note_on channel=7 note=71 velocity=100 time=0@note_on channel=8 note=80 velocity=0 time=0@note_on channel=8 note=78 velocity=100 time=0@note_on channel=11 note=71 velocity=0 time=0@note_on channel=11 note=69 velocity=100 time=0@note_on channel=12 note=56 velocity=0 time=0@note_on channel=12 note=54 velocity=100 time=0@note_on channel=14 note=68 velocity=0 time=0@note_on channel=14 note=66 velocity=100 time=0@note_on channel=6 note=69 velocity=0 time=0.15872999999999998@note_on channel=6 note=68 velocity=100 time=0@note_on channel=7 note=71 velocity=0 time=0@note_on channel=7 note=71 velocity=100 time=0@note_on channel=8 note=78 velocity=0 time=0@note_on channel=8 note=80 velocity=100 time=0@note_on channel=10 note=95 velocity=0 time=0@note_on channel=10 note=92 velocity=100 time=0@note_on channel=11 note=69 velocity=0 time=0@note_on channel=11 note=71 velocity=100 time=0@note_on channel=12 note=54 velocity=0 time=0@note_on channel=12 note=56 velocity=100 time=0@note_on channel=13 note=68 velocity=0 time=0@note_on channel=13 note=64 velocity=100 time=0@note_on channel=14 note=66 velocity=0 time=0@note_on channel=14 note=64 velocity=100 time=0@note_on channel=7 note=71 velocity=0 time=0.15872999999999998@note_on channel=7 note=71 velocity=100 time=0@note_on channel=11 note=71 velocity=0 time=0@note_on channel=11 note=68 velocity=100 time=0@note_on channel=1 note=38 velocity=0 time=0.15872999999999998@note_on channel=1 note=45 velocity=100 time=0@note_on channel=6 note=68 velocity=0 time=0@note_on channel=6 note=69 velocity=100 time=0@note_on channel=7 note=71 velocity=0 time=0@note_on channel=7 note=69 velocity=100 time=0@note_on channel=8 note=80 velocity=0 time=0@note_on channel=8 note=81 velocity=100 time=0@note_on channel=10 note=92 velocity=0 time=0@note_on channel=10 note=93 velocity=100 time=0@note_on channel=11 note=68 velocity=0 time=0@note_on channel=11 note=69 velocity=100 time=0@note_on channel=12 note=56 velocity=0 time=0@note_on channel=12 note=57 velocity=100 time=0@note_on channel=13 note=64 velocity=0 time=0@note_on channel=13 note=69 velocity=100 time=0@note_on channel=14 note=64 velocity=0 time=0@note_on channel=14 note=69 velocity=100 time=0@note_on channel=10 note=93 velocity=0 time=0.07936499999999999@note_on channel=10 note=92 velocity=100 time=0@note_on channel=10 note=92 velocity=0 time=0.07936499999999999@note_on channel=10 note=93 velocity=100 time=0@note_on channel=6 note=69 velocity=0 time=0.79365@note_on channel=6 note=69 velocity=100 time=0@note_on channel=7 note=69 velocity=0 time=0@note_on channel=7 note=69 velocity=100 time=0@note_on channel=8 note=81 velocity=0 time=0@note_on channel=8 note=81 velocity=100 time=0@note_on channel=10 note=93 velocity=0 time=0@note_on channel=10 note=93 velocity=100 time=0@note_on channel=11 note=69 velocity=0 time=0@note_on channel=11 note=69 velocity=100 time=0@note_on channel=12 note=57 velocity=0 time=0@note_on channel=12 note=57 velocity=100 time=0@note_on channel=13 note=69 velocity=0 time=0@note_on channel=13 note=69 velocity=100 time=0@note_on channel=14 note=69 velocity=0 time=0@note_on channel=14 note=69 velocity=100 time=0@note_on channel=14 note=69 velocity=0 time=0.07936499999999999@note_on channel=14 note=68 velocity=100 time=0@note_on channel=14 note=68 velocity=0 time=0.07936499999999999@note_on channel=14 note=69 velocity=100 time=0@note_on channel=1 note=45 velocity=0 time=0.79365@note_on channel=1 note=48 velocity=100 time=0@note_on channel=6 note=69 velocity=0 time=0@note_on channel=7 note=69 velocity=0 time=0@note_on channel=7 note=72 velocity=100 time=0@note_on channel=8 note=81 velocity=0 time=0@note_on channel=8 note=72 velocity=100 time=0@note_on channel=10 note=93 velocity=0 time=0@note_on channel=10 note=96 velocity=100 time=0@note_on channel=11 note=69 velocity=0 time=0@note_on channel=11 note=69 velocity=100 time=0@note_on channel=12 note=57 velocity=0 time=0@note_on channel=12 note=60 velocity=100 time=0@note_on channel=13 note=69 velocity=0 time=0@note_on channel=13 note=69 velocity=100 time=0@note_on channel=14 note=69 velocity=0 time=0@note_on channel=14 note=72 velocity=100 time=0@note_on channel=8 note=72 velocity=0 time=0.15872999999999998@note_on channel=8 note=76 velocity=100 time=0@note_on channel=11 note=69 velocity=0 time=0@note_on channel=11 note=71 velocity=100 time=0@note_on channel=12 note=60 velocity=0 time=0@note_on channel=12 note=59 velocity=100 time=0@note_on channel=13 note=69 velocity=0 time=0@note_on channel=13 note=71 velocity=100 time=0@note_on channel=8 note=76 velocity=0 time=0.15872999999999998@note_on channel=8 note=76 velocity=100 time=0@note_on channel=10 note=96 velocity=0 time=0@note_on channel=10 note=96 velocity=100 time=0@note_on channel=11 note=71 velocity=0 time=0@note_on channel=11 note=72 velocity=100 time=0@note_on channel=12 note=59 velocity=0 time=0@note_on channel=12 note=60 velocity=100 time=0@note_on channel=13 note=71 velocity=0 time=0@note_on channel=13 note=72 velocity=100 time=0@note_on channel=14 note=72 velocity=0 time=0@note_on channel=14 note=69 velocity=100 time=0@note_on channel=8 note=76 velocity=0 time=0.15872999999999998@note_on channel=8 note=76 velocity=100 time=0@note_on channel=12 note=60 velocity=0 time=0@note_on channel=12 note=62 velocity=100 time=0@note_on channel=13 note=72 velocity=0 time=0@note_on channel=13 note=74 velocity=100 time=0@note_on channel=7 note=72 velocity=0 time=0.15872999999999998@note_on channel=7 note=74 velocity=100 time=0@note_on channel=8 note=76 velocity=0 time=0@note_on channel=8 note=76 velocity=100 time=0@note_on channel=10 note=96 velocity=0 time=0@note_on channel=10 note=96 velocity=100 time=0@note_on channel=11 note=72 velocity=0 time=0@note_on channel=11 note=69 velocity=100 time=0@note_on channel=12 note=62 velocity=0 time=0@note_on channel=12 note=64 velocity=100 time=0@note_on channel=13 note=74 velocity=0 time=0@note_on channel=13 note=76 velocity=100 time=0@note_on channel=14 note=69 velocity=0 time=0@note_on channel=14 note=71 velocity=100 time=0@note_on channel=8 note=76 velocity=0 time=0.15872999999999998@note_on channel=8 note=76 velocity=100 time=0@note_on channel=12 note=64 velocity=0 time=0@note_on channel=12 note=62 velocity=100 time=0@note_on channel=13 note=76 velocity=0 time=0@note_on channel=13 note=69 velocity=100 time=0@note_on channel=1 note=48 velocity=0 time=0.15872999999999998@note_on channel=1 note=40 velocity=100 time=0@note_on channel=7 note=74 velocity=0 time=0@note_on channel=7 note=76 velocity=100 time=0@note_on channel=8 note=76 velocity=0 time=0@note_on channel=8 note=72 velocity=100 time=0@note_on channel=10 note=96 velocity=0 time=0@note_on channel=10 note=84 velocity=100 time=0@note_on channel=11 note=69 velocity=0 time=0@note_on channel=11 note=72 velocity=100 time=0@note_on channel=12 note=62 velocity=0 time=0@note_on channel=12 note=60 velocity=100 time=0@note_on channel=13 note=69 velocity=0 time=0@note_on channel=13 note=81 velocity=100 time=0@note_on channel=14 note=71 velocity=0 time=0@note_on channel=14 note=72 velocity=100 time=0@note_on channel=8 note=72 velocity=0 time=0.15872999999999998@note_on channel=8 note=76 velocity=100 time=0@note_on channel=11 note=72 velocity=0 time=0@note_on channel=11 note=74 velocity=100 time=0@note_on channel=12 note=60 velocity=0 time=0@note_on channel=12 note=59 velocity=100 time=0@note_on channel=13 note=81 velocity=0 time=0@note_on channel=13 note=80 velocity=100 time=0@note_on channel=8 note=76 velocity=0 time=0.15872999999999998@note_on channel=8 note=76 velocity=100 time=0@note_on channel=10 note=84 velocity=0 time=0@note_on channel=10 note=84 velocity=100 time=0@note_on channel=11 note=74 velocity=0 time=0@note_on channel=11 note=76 velocity=100 time=0@note_on channel=12 note=59 velocity=0 time=0@note_on channel=12 note=60 velocity=100 time=0@note_on channel=13 note=80 velocity=0 time=0@note_on channel=13 note=81 velocity=100 time=0@note_on channel=14 note=72 velocity=0 time=0@note_on channel=14 note=74 velocity=100 time=0@note_on channel=8 note=76 velocity=0 time=0.15872999999999998@note_on channel=8 note=76 velocity=100 time=0@note_on channel=12 note=60 velocity=0 time=0@note_on channel=12 note=62 velocity=100 time=0@note_on channel=13 note=81 velocity=0 time=0@note_on channel=13 note=83 velocity=100 time=0@note_on channel=7 note=76 velocity=0 time=0.15872999999999998@note_on channel=7 note=76 velocity=100 time=0@note_on channel=8 note=76 velocity=0 time=0@note_on channel=8 note=76 velocity=100 time=0@note_on channel=10 note=84 velocity=0 time=0@note_on channel=10 note=84 velocity=100 time=0@note_on channel=11 note=76 velocity=0 time=0@note_on channel=11 note=69 velocity=100 time=0@note_on channel=12 note=62 velocity=0 time=0@note_on channel=12 note=64 velocity=100 time=0@note_on channel=13 note=83 velocity=0 time=0@note_on channel=13 note=84 velocity=100 time=0@note_on channel=14 note=74 velocity=0 time=0@note_on channel=14 note=76 velocity=100 time=0@note_on channel=8 note=76 velocity=0 time=0.15872999999999998@note_on channel=8 note=76 velocity=100 time=0@note_on channel=12 note=64 velocity=0 time=0@note_on channel=12 note=62 velocity=100 time=0@note_on channel=13 note=84 velocity=0 time=0@note_on channel=13 note=81 velocity=100 time=0@note_on channel=1 note=40 velocity=0 time=0.15872999999999998@note_on channel=1 note=50 velocity=100 time=0@note_on channel=7 note=76 velocity=0 time=0@note_on channel=7 note=74 velocity=100 time=0@note_on channel=8 note=76 velocity=0 time=0@note_on channel=8 note=71 velocity=100 time=0@note_on channel=10 note=84 velocity=0 time=0@note_on channel=10 note=91 velocity=100 time=0@note_on channel=11 note=69 velocity=0 time=0@note_on channel=11 note=67 velocity=100 time=0@note_on channel=12 note=62 velocity=0 time=0@note_on channel=12 note=59 velocity=100 time=0@note_on channel=13 note=81 velocity=0 time=0@note_on channel=13 note=84 velocity=100 time=0@note_on channel=14 note=76 velocity=0 time=0@note_on channel=14 note=71 velocity=100 time=0@note_on channel=13 note=84 velocity=0 time=0.07936499999999999@note_on channel=13 note=83 velocity=100 time=0@note_on channel=8 note=71 velocity=0 time=0.07936499999999999@note_on channel=8 note=74 velocity=100 time=0@note_on channel=11 note=67 velocity=0 time=0@note_on channel=11 note=69 velocity=100 time=0@note_on channel=12 note=59 velocity=0 time=0@note_on channel=12 note=57 velocity=100 time=0@note_on channel=13 note=83 velocity=0 time=0@note_on channel=13 note=84 velocity=100 time=0@note_on channel=13 note=84 velocity=0 time=0.07936499999999999@note_on channel=13 note=83 velocity=100 time=0@note_on channel=8 note=74 velocity=0 time=0.07936499999999999@note_on channel=8 note=74 velocity=100 time=0@note_on channel=10 note=91 velocity=0 time=0@note_on channel=10 note=91 velocity=100 time=0@note_on channel=11 note=69 velocity=0 time=0@note_on channel=11 note=71 velocity=100 time=0@note_on channel=12 note=57 velocity=0 time=0@note_on channel=12 note=59 velocity=100 time=0@note_on channel=14 note=71 velocity=0 time=0@note_on channel=14 note=67 velocity=100 time=0@note_on channel=8 note=74 velocity=0 time=0.15872999999999998@note_on channel=8 note=74 velocity=100 time=0@note_on channel=12 note=59 velocity=0 time=0@note_on channel=12 note=60 velocity=100 time=0@note_on channel=7 note=74 velocity=0 time=0.15872999999999998@note_on channel=7 note=71 velocity=100 time=0@note_on channel=8 note=74 velocity=0 time=0@note_on channel=8 note=74 velocity=100 time=0@note_on channel=10 note=91 velocity=0 time=0@note_on channel=10 note=91 velocity=100 time=0@note_on channel=11 note=71 velocity=0 time=0@note_on channel=11 note=67 velocity=100 time=0@note_on channel=12 note=60 velocity=0 time=0@note_on channel=12 note=62 velocity=100 time=0@note_on channel=13 note=83 velocity=0 time=0@note_on channel=13 note=79 velocity=100 time=0@note_on channel=14 note=67 velocity=0 time=0@note_on channel=14 note=69 velocity=100 time=0@note_on channel=8 note=74 velocity=0 time=0.15872999999999998@note_on channel=8 note=74 velocity=100 time=0@note_on channel=12 note=62 velocity=0 time=0@note_on channel=12 note=60 velocity=100 time=0@note_on channel=1 note=50 velocity=0 time=0.15872999999999998@note_on channel=1 note=43 velocity=100 time=0@note_on channel=7 note=71 velocity=0 time=0@note_on channel=7 note=67 velocity=100 time=0@note_on channel=8 note=74 velocity=0 time=0@note_on channel=8 note=71 velocity=100 time=0@note_on channel=10 note=91 velocity=0 time=0@note_on channel=10 note=79 velocity=100 time=0@note_on channel=11 note=67 velocity=0 time=0@note_on channel=11 note=71 velocity=100 time=0@note_on channel=12 note=60 velocity=0 time=0@note_on channel=12 note=59 velocity=100 time=0@note_on channel=13 note=79 velocity=0 time=0@note_on channel=13 note=79 velocity=100 time=0@note_on channel=14 note=69 velocity=0 time=0@note_on channel=14 note=71 velocity=100 time=0@note_on channel=8 note=71 velocity=0 time=0.15872999999999998@note_on channel=8 note=74 velocity=100 time=0@note_on channel=11 note=71 velocity=0 time=0@note_on channel=11 note=72 velocity=100 time=0@note_on channel=12 note=59 velocity=0 time=0@note_on channel=12 note=57 velocity=100 time=0@note_on channel=8 note=74 velocity=0 time=0.15872999999999998@note_on channel=8 note=74 velocity=100 time=0@note_on channel=11 note=72 velocity=0 time=0@note_on channel=11 note=74 velocity=100 time=0@note_on channel=12 note=57 velocity=0 time=0@note_on channel=12 note=59 velocity=100 time=0@note_on channel=14 note=71 velocity=0 time=0@note_on channel=14 note=72 velocity=100 time=0@note_on channel=8 note=74 velocity=0 time=0.15872999999999998@note_on channel=8 note=74 velocity=100 time=0@note_on channel=10 note=79 velocity=0 time=0@note_on channel=10 note=81 velocity=100 time=0@note_on channel=12 note=59 velocity=0 time=0@note_on channel=12 note=60 velocity=100 time=0@note_on channel=8 note=74 velocity=0 time=0.15872999999999998@note_on channel=8 note=74 velocity=100 time=0@note_on channel=10 note=81 velocity=0 time=0@note_on channel=10 note=83 velocity=100 time=0@note_on channel=11 note=74 velocity=0 time=0@note_on channel=11 note=67 velocity=100 time=0@note_on channel=12 note=60 velocity=0 time=0@note_on channel=12 note=62 velocity=100 time=0@note_on channel=14 note=72 velocity=0 time=0@note_on channel=14 note=74 velocity=100 time=0@note_on channel=8 note=74 velocity=0 time=0.15872999999999998@note_on channel=8 note=74 velocity=100 time=0@note_on channel=12 note=62 velocity=0 time=0@note_on channel=12 note=60 velocity=100 time=0@note_on channel=1 note=43 velocity=0 time=0.15872999999999998@note_on channel=1 note=45 velocity=100 time=0@note_on channel=7 note=67 velocity=0 time=0@note_on channel=7 note=69 velocity=100 time=0@note_on channel=8 note=74 velocity=0 time=0@note_on channel=8 note=69 velocity=100 time=0@note_on channel=10 note=83 velocity=0 time=0@note_on channel=10 note=93 velocity=100 time=0@note_on channel=11 note=67 velocity=0 time=0@note_on channel=11 note=69 velocity=100 time=0@note_on channel=12 note=60 velocity=0 time=0@note_on channel=12 note=60 velocity=100 time=0@note_on channel=13 note=79 velocity=0 time=0@note_on channel=13 note=69 velocity=100 time=0@note_on channel=14 note=74 velocity=0 time=0@note_on channel=14 note=72 velocity=100 time=0@note_on channel=8 note=69 velocity=0 time=0.15872999999999998@note_on channel=8 note=72 velocity=100 time=0@note_on channel=11 note=69 velocity=0 time=0@note_on channel=11 note=71 velocity=100 time=0@note_on channel=12 note=60 velocity=0 time=0@note_on channel=12 note=59 velocity=100 time=0@note_on channel=13 note=69 velocity=0 time=0@note_on channel=13 note=71 velocity=100 time=0@note_on channel=8 note=72 velocity=0 time=0.15872999999999998@note_on channel=8 note=72 velocity=100 time=0@note_on channel=10 note=93 velocity=0 time=0@note_on channel=10 note=93 velocity=100 time=0@note_on channel=11 note=71 velocity=0 time=0@note_on channel=11 note=72 velocity=100 time=0@note_on channel=12 note=59 velocity=0 time=0@note_on channel=12 note=60 velocity=100 time=0@note_on channel=13 note=71 velocity=0 time=0@note_on channel=13 note=72 velocity=100 time=0@note_on channel=14 note=72 velocity=0 time=0@note_on channel=14 note=69 velocity=100 time=0@note_on channel=7 note=69 velocity=0 time=0.15872999999999998@note_on channel=7 note=71 velocity=100 time=0@note_on channel=8 note=72 velocity=0 time=0@note_on channel=8 note=72 velocity=100 time=0@note_on channel=12 note=60 velocity=0 time=0@note_on channel=12 note=62 velocity=100 time=0@note_on channel=13 note=72 velocity=0 time=0@note_on channel=13 note=74 velocity=100 time=0@note_on channel=7 note=71 velocity=0 time=0.15872999999999998@note_on channel=7 note=72 velocity=100 time=0@note_on channel=8 note=72 velocity=0 time=0@note_on channel=8 note=72 velocity=100 time=0@note_on channel=10 note=93 velocity=0 time=0@note_on channel=10 note=93 velocity=100 time=0@note_on channel=11 note=72 velocity=0 time=0@note_on channel=11 note=69 velocity=100 time=0@note_on channel=12 note=62 velocity=0 time=0@note_on channel=12 note=60 velocity=100 time=0@note_on channel=13 note=74 velocity=0 time=0@note_on channel=13 note=76 velocity=100 time=0@note_on channel=14 note=69 velocity=0 time=0@note_on channel=14 note=71 velocity=100 time=0@note_on channel=8 note=72 velocity=0 time=0.15872999999999998@note_on channel=8 note=72 velocity=100 time=0@note_on channel=12 note=60 velocity=0 time=0@note_on channel=12 note=59 velocity=100 time=0@note_on channel=13 note=76 velocity=0 time=0@note_on channel=13 note=69 velocity=100 time=0@note_on channel=1 note=45 velocity=0 time=0.15872999999999998@note_on channel=1 note=38 velocity=100 time=0@note_on channel=7 note=72 velocity=0 time=0@note_on channel=7 note=74 velocity=100 time=0@note_on channel=8 note=72 velocity=0 time=0@note_on channel=8 note=69 velocity=100 time=0@note_on channel=10 note=93 velocity=0 time=0@note_on channel=10 note=81 velocity=100 time=0@note_on channel=11 note=69 velocity=0 time=0@note_on channel=11 note=72 velocity=100 time=0@note_on channel=12 note=59 velocity=0 time=0@note_on channel=12 note=57 velocity=100 time=0@note_on channel=13 note=69 velocity=0 time=0@note_on channel=13 note=81 velocity=100 time=0@note_on channel=14 note=71 velocity=0 time=0@note_on channel=14 note=72 velocity=100 time=0@note_on channel=8 note=69 velocity=0 time=0.15872999999999998@note_on channel=8 note=72 velocity=100 time=0@note_on channel=11 note=72 velocity=0 time=0@note_on channel=11 note=74 velocity=100 time=0@note_on channel=12 note=57 velocity=0 time=0@note_on channel=12 note=56 velocity=100 time=0@note_on channel=13 note=81 velocity=0 time=0@note_on channel=13 note=80 velocity=100 time=0@note_on channel=7 note=74 velocity=0 time=0.15872999999999998@note_on channel=7 note=76 velocity=100 time=0@note_on channel=8 note=72 velocity=0 time=0@note_on channel=8 note=72 velocity=100 time=0@note_on channel=11 note=74 velocity=0 time=0@note_on channel=11 note=76 velocity=100 time=0@note_on channel=12 note=56 velocity=0 time=0@note_on channel=12 note=57 velocity=100 time=0@note_on channel=13 note=80 velocity=0 time=0@note_on channel=13 note=81 velocity=100 time=0@note_on channel=14 note=72 velocity=0 time=0@note_on channel=14 note=74 velocity=100 time=0@note_on channel=8 note=72 velocity=0 time=0.15872999999999998@note_on channel=8 note=72 velocity=100 time=0@note_on channel=10 note=81 velocity=0 time=0@note_on channel=10 note=83 velocity=100 time=0@note_on channel=12 note=57 velocity=0 time=0@note_on channel=12 note=59 velocity=100 time=0@note_on channel=13 note=81 velocity=0 time=0@note_on channel=13 note=83 velocity=100 time=0@note_on channel=7 note=76 velocity=0 time=0.15872999999999998@note_on channel=7 note=72 velocity=100 time=0@note_on channel=8 note=72 velocity=0 time=0@note_on channel=8 note=72 velocity=100 time=0@note_on channel=10 note=83 velocity=0 time=0@note_on channel=10 note=84 velocity=100 time=0@note_on channel=11 note=76 velocity=0 time=0@note_on channel=11 note=69 velocity=100 time=0@note_on channel=12 note=59 velocity=0 time=0@note_on channel=12 note=60 velocity=100 time=0@note_on channel=13 note=83 velocity=0 time=0@note_on channel=13 note=84 velocity=100 time=0@note_on channel=14 note=74 velocity=0 time=0@note_on channel=14 note=76 velocity=100 time=0@note_on channel=8 note=72 velocity=0 time=0.15872999999999998@note_on channel=8 note=72 velocity=100 time=0@note_on channel=10 note=84 velocity=0 time=0@note_on channel=10 note=86 velocity=100 time=0@note_on channel=12 note=60 velocity=0 time=0@note_on channel=12 note=57 velocity=100 time=0@note_on channel=13 note=84 velocity=0 time=0@note_on channel=13 note=81 velocity=100 time=0@note_on channel=1 note=38 velocity=0 time=0.15872999999999998@note_on channel=1 note=47 velocity=100 time=0@note_on channel=7 note=72 velocity=0 time=0@note_on channel=7 note=71 velocity=100 time=0@note_on channel=8 note=72 velocity=0 time=0@note_on channel=8 note=68 velocity=100 time=0@note_on channel=10 note=86 velocity=0 time=0@note_on channel=10 note=88 velocity=100 time=0@note_on channel=11 note=69 velocity=0 time=0@note_on channel=11 note=64 velocity=100 time=0@note_on channel=12 note=57 velocity=0 time=0@note_on channel=12 note=59 velocity=100 time=0@note_on channel=13 note=81 velocity=0 time=0@note_on channel=13 note=81 velocity=100 time=0@note_on channel=14 note=76 velocity=0 time=0@note_on channel=14 note=71 velocity=100 time=0@note_on channel=13 note=81 velocity=0 time=0.07936499999999999@note_on channel=13 note=80 velocity=100 time=0@note_on channel=8 note=68 velocity=0 time=0.07936499999999999@note_on channel=8 note=71 velocity=100 time=0@note_on channel=11 note=64 velocity=0 time=0@note_on channel=11 note=66 velocity=100 time=0@note_on channel=12 note=59 velocity=0 time=0@note_on channel=12 note=57 velocity=100 time=0@note_on channel=13 note=80 velocity=0 time=0@note_on channel=13 note=81 velocity=100 time=0@note_on channel=13 note=81 velocity=0 time=0.07936499999999999@note_on channel=13 note=80 velocity=100 time=0@note_on channel=8 note=71 velocity=0 time=0.07936499999999999@note_on channel=8 note=71 velocity=100 time=0@note_on channel=10 note=88 velocity=0 time=0@note_on channel=10 note=88 velocity=100 time=0@note_on channel=11 note=66 velocity=0 time=0@note_on channel=11 note=68 velocity=100 time=0@note_on channel=12 note=57 velocity=0 time=0@note_on channel=12 note=59 velocity=100 time=0@note_on channel=8 note=71 velocity=0 time=0.15872999999999998@note_on channel=8 note=71 velocity=100 time=0@note_on channel=12 note=59 velocity=0 time=0@note_on channel=12 note=57 velocity=100 time=0@note_on channel=7 note=71 velocity=0 time=0.15872999999999998@note_on channel=7 note=68 velocity=100 time=0@note_on channel=8 note=71 velocity=0 time=0@note_on channel=8 note=71 velocity=100 time=0@note_on channel=10 note=88 velocity=0 time=0@note_on channel=10 note=88 velocity=100 time=0@note_on channel=11 note=68 velocity=0 time=0@note_on channel=11 note=64 velocity=100 time=0@note_on channel=12 note=57 velocity=0 time=0@note_on channel=12 note=56 velocity=100 time=0@note_on channel=13 note=80 velocity=0 time=0@note_on channel=13 note=76 velocity=100 time=0@note_on channel=14 note=71 velocity=0 time=0@note_on channel=14 note=68 velocity=100 time=0@note_on channel=8 note=71 velocity=0 time=0.15872999999999998@note_on channel=8 note=71 velocity=100 time=0@note_on channel=12 note=56 velocity=0 time=0@note_on channel=12 note=54 velocity=100 time=0@note_on channel=1 note=47 velocity=0 time=0.15872999999999998@note_on channel=1 note=40 velocity=100 time=0@note_on channel=7 note=68 velocity=0 time=0@note_on channel=7 note=64 velocity=100 time=0@note_on channel=8 note=71 velocity=0 time=0@note_on channel=8 note=64 velocity=100 time=0@note_on channel=10 note=88 velocity=0 time=0@note_on channel=10 note=80 velocity=100 time=0@note_on channel=11 note=64 velocity=0 time=0@note_on channel=11 note=68 velocity=100 time=0@note_on channel=12 note=54 velocity=0 time=0@note_on channel=12 note=52 velocity=100 time=0@note_on channel=13 note=76 velocity=0 time=0@note_on channel=13 note=76 velocity=100 time=0@note_on channel=14 note=68 velocity=0 time=0@note_on channel=14 note=64 velocity=100 time=0@note_on channel=10 note=80 velocity=0 time=0.07936499999999999@note_on channel=10 note=81 velocity=100 time=0@note_on channel=8 note=64 velocity=0 time=0.07936499999999999@note_on channel=8 note=71 velocity=100 time=0@note_on channel=10 note=81 velocity=0 time=0@note_on channel=10 note=80 velocity=100 time=0@note_on channel=11 note=68 velocity=0 time=0@note_on channel=11 note=69 velocity=100 time=0@note_on channel=12 note=52 velocity=0 time=0@note_on channel=12 note=54 velocity=100 time=0@note_on channel=8 note=71 velocity=0 time=0.15872999999999998@note_on channel=8 note=71 velocity=100 time=0@note_on channel=10 note=80 velocity=0 time=0@note_on channel=10 note=76 velocity=100 time=0@note_on channel=11 note=69 velocity=0 time=0@note_on channel=11 note=71 velocity=100 time=0@note_on channel=12 note=54 velocity=0 time=0@note_on channel=12 note=56 velocity=100 time=0@note_on channel=8 note=71 velocity=0 time=0.15872999999999998@note_on channel=8 note=71 velocity=100 time=0@note_on channel=12 note=56 velocity=0 time=0@note_on channel=12 note=57 velocity=100 time=0@note_on channel=8 note=71 velocity=0 time=0.15872999999999998@note_on channel=8 note=71 velocity=100 time=0@note_on channel=10 note=76 velocity=0 time=0@note_on channel=10 note=76 velocity=100 time=0@note_on channel=11 note=71 velocity=0 time=0@note_on channel=11 note=64 velocity=100 time=0@note_on channel=12 note=57 velocity=0 time=0@note_on channel=12 note=56 velocity=100 time=0@note_on channel=8 note=71 velocity=0 time=0.15872999999999998@note_on channel=8 note=71 velocity=100 time=0@note_on channel=12 note=56 velocity=0 time=0@note_on channel=12 note=52 velocity=100 time=0@note_on channel=1 note=40 velocity=0 time=0.15872999999999998@note_on channel=1 note=48 velocity=100 time=0@note_on channel=7 note=64 velocity=0 time=0@note_on channel=7 note=72 velocity=100 time=0@note_on channel=8 note=71 velocity=0 time=0@note_on channel=8 note=76 velocity=100 time=0@note_on channel=10 note=76 velocity=0 time=0@note_on channel=10 note=96 velocity=100 time=0@note_on channel=11 note=64 velocity=0 time=0@note_on channel=11 note=72 velocity=100 time=0@note_on channel=12 note=52 velocity=0 time=0@note_on channel=12 note=60 velocity=100 time=0@note_on channel=13 note=76 velocity=0 time=0@note_on channel=13 note=72 velocity=100 time=0@note_on channel=14 note=64 velocity=0 time=0@note_on channel=14 note=76 velocity=100 time=0@note_on channel=8 note=76 velocity=0 time=0.15872999999999998@note_on channel=8 note=79 velocity=100 time=0@note_on channel=11 note=72 velocity=0 time=0@note_on channel=11 note=74 velocity=100 time=0@note_on channel=12 note=60 velocity=0 time=0@note_on channel=12 note=59 velocity=100 time=0@note_on channel=13 note=72 velocity=0 time=0@note_on channel=13 note=71 velocity=100 time=0@note_on channel=8 note=79 velocity=0 time=0.15872999999999998@note_on channel=8 note=79 velocity=100 time=0@note_on channel=10 note=96 velocity=0 time=0@note_on channel=10 note=96 velocity=100 time=0@note_on channel=11 note=74 velocity=0 time=0@note_on channel=11 note=76 velocity=100 time=0@note_on channel=12 note=59 velocity=0 time=0@note_on channel=12 note=60 velocity=100 time=0@note_on channel=13 note=71 velocity=0 time=0@note_on channel=13 note=72 velocity=100 time=0@note_on channel=14 note=76 velocity=0 time=0@note_on channel=14 note=72 velocity=100 time=0@note_on channel=8 note=79 velocity=0 time=0.15872999999999998@note_on channel=8 note=79 velocity=100 time=0@note_on channel=12 note=60 velocity=0 time=0@note_on channel=12 note=62 velocity=100 time=0@note_on channel=13 note=72 velocity=0 time=0@note_on channel=13 note=74 velocity=100 time=0@note_on channel=7 note=72 velocity=0 time=0.15872999999999998@note_on channel=7 note=74 velocity=100 time=0@note_on channel=8 note=79 velocity=0 time=0@note_on channel=8 note=79 velocity=100 time=0@note_on channel=10 note=96 velocity=0 time=0@note_on channel=10 note=96 velocity=100 time=0@note_on channel=11 note=76 velocity=0 time=0@note_on channel=11 note=72 velocity=100 time=0@note_on channel=12 note=62 velocity=0 time=0@note_on channel=12 note=64 velocity=100 time=0@note_on channel=13 note=74 velocity=0 time=0@note_on channel=13 note=76 velocity=100 time=0@note_on channel=14 note=72 velocity=0 time=0@note_on channel=14 note=74 velocity=100 time=0@note_on channel=8 note=79 velocity=0 time=0.15872999999999998@note_on channel=8 note=79 velocity=100 time=0@note_on channel=12 note=64 velocity=0 time=0@note_on channel=12 note=62 velocity=100 time=0@note_on channel=13 note=76 velocity=0 time=0@note_on channel=13 note=77 velocity=100 time=0@note_on channel=1 note=48 velocity=0 time=0.15872999999999998@note_on channel=1 note=40 velocity=100 time=0@note_on channel=7 note=74 velocity=0 time=0@note_on channel=7 note=76 velocity=100 time=0@note_on channel=8 note=79 velocity=0 time=0@note_on channel=8 note=72 velocity=100 time=0@note_on channel=10 note=96 velocity=0 time=0@note_on channel=10 note=84 velocity=100 time=0@note_on channel=11 note=72 velocity=0 time=0@note_on channel=11 note=76 velocity=100 time=0@note_on channel=12 note=62 velocity=0 time=0@note_on channel=12 note=60 velocity=100 time=0@note_on channel=13 note=77 velocity=0 time=0@note_on channel=13 note=79 velocity=100 time=0@note_on channel=14 note=74 velocity=0 time=0@note_on channel=14 note=76 velocity=100 time=0@note_on channel=8 note=72 velocity=0 time=0.15872999999999998@note_on channel=8 note=79 velocity=100 time=0@note_on channel=11 note=76 velocity=0 time=0@note_on channel=11 note=77 velocity=100 time=0@note_on channel=12 note=60 velocity=0 time=0@note_on channel=12 note=59 velocity=100 time=0@note_on channel=13 note=79 velocity=0 time=0@note_on channel=13 note=81 velocity=100 time=0@note_on channel=8 note=79 velocity=0 time=0.15872999999999998@note_on channel=8 note=79 velocity=100 time=0@note_on channel=11 note=77 velocity=0 time=0@note_on channel=11 note=79 velocity=100 time=0@note_on channel=12 note=59 velocity=0 time=0@note_on channel=12 note=60 velocity=100 time=0@note_on channel=13 note=81 velocity=0 time=0@note_on channel=13 note=83 velocity=100 time=0@note_on channel=14 note=76 velocity=0 time=0@note_on channel=14 note=77 velocity=100 time=0@note_on channel=7 note=76 velocity=0 time=0.15872999999999998@note_on channel=7 note=74 velocity=100 time=0@note_on channel=8 note=79 velocity=0 time=0@note_on channel=8 note=79 velocity=100 time=0@note_on channel=10 note=84 velocity=0 time=0@note_on channel=10 note=86 velocity=100 time=0@note_on channel=12 note=60 velocity=0 time=0@note_on channel=12 note=62 velocity=100 time=0@note_on channel=13 note=83 velocity=0 time=0@note_on channel=13 note=79 velocity=100 time=0@note_on channel=7 note=74 velocity=0 time=0.15872999999999998@note_on channel=7 note=72 velocity=100 time=0@note_on channel=8 note=79 velocity=0 time=0@note_on channel=8 note=79 velocity=100 time=0@note_on channel=10 note=86 velocity=0 time=0@note_on channel=10 note=88 velocity=100 time=0@note_on channel=11 note=79 velocity=0 time=0@note_on channel=11 note=72 velocity=100 time=0@note_on channel=12 note=62 velocity=0 time=0@note_on channel=12 note=64 velocity=100 time=0@note_on channel=13 note=79 velocity=0 time=0@note_on channel=13 note=81 velocity=100 time=0@note_on channel=14 note=77 velocity=0 time=0@note_on channel=14 note=79 velocity=100 time=0@note_on channel=8 note=79 velocity=0 time=0.15872999999999998@note_on channel=8 note=79 velocity=100 time=0@note_on channel=10 note=88 velocity=0 time=0@note_on channel=10 note=89 velocity=100 time=0@note_on channel=12 note=64 velocity=0 time=0@note_on channel=12 note=62 velocity=100 time=0@note_on channel=13 note=81 velocity=0 time=0@note_on channel=13 note=83 velocity=100 time=0@note_on channel=1 note=40 velocity=0 time=0.15872999999999998@note_on channel=1 note=50 velocity=100 time=0@note_on channel=7 note=72 velocity=0 time=0@note_on channel=7 note=74 velocity=100 time=0@note_on channel=8 note=79 velocity=0 time=0@note_on channel=8 note=71 velocity=100 time=0@note_on channel=10 note=89 velocity=0 time=0@note_on channel=10 note=91 velocity=100 time=0@note_on channel=11 note=72 velocity=0 time=0@note_on channel=11 note=67 velocity=100 time=0@note_on channel=12 note=62 velocity=0 time=0@note_on channel=12 note=62 velocity=100 time=0@note_on channel=13 note=83 velocity=0 time=0@note_on channel=13 note=81 velocity=100 time=0@note_on channel=14 note=79 velocity=0 time=0@note_on channel=14 note=71 velocity=100 time=0@note_on channel=13 note=81 velocity=0 time=0.07936499999999999@note_on channel=13 note=79 velocity=100 time=0@note_on channel=8 note=71 velocity=0 time=0.07936499999999999@note_on channel=8 note=74 velocity=100 time=0@note_on channel=11 note=67 velocity=0 time=0@note_on channel=11 note=69 velocity=100 time=0@note_on channel=12 note=62 velocity=0 time=0@note_on channel=12 note=60 velocity=100 time=0@note_on channel=13 note=79 velocity=0 time=0@note_on channel=13 note=81 velocity=100 time=0@note_on channel=13 note=81 velocity=0 time=0.07936499999999999@note_on channel=13 note=79 velocity=100 time=0@note_on channel=8 note=74 velocity=0 time=0.07936499999999999@note_on channel=8 note=74 velocity=100 time=0@note_on channel=10 note=91 velocity=0 time=0@note_on channel=10 note=91 velocity=100 time=0@note_on channel=11 note=69 velocity=0 time=0@note_on channel=11 note=71 velocity=100 time=0@note_on channel=12 note=60 velocity=0 time=0@note_on channel=12 note=62 velocity=100 time=0@note_on channel=13 note=79 velocity=0 time=0@note_on channel=13 note=74 velocity=100 time=0@note_on channel=14 note=71 velocity=0 time=0@note_on channel=14 note=67 velocity=100 time=0@note_on channel=8 note=74 velocity=0 time=0.15872999999999998@note_on channel=8 note=74 velocity=100 time=0@note_on channel=12 note=62 velocity=0 time=0@note_on channel=12 note=64 velocity=100 time=0@note_on channel=7 note=74 velocity=0 time=0.15872999999999998@note_on channel=7 note=71 velocity=100 time=0@note_on channel=8 note=74 velocity=0 time=0@note_on channel=8 note=74 velocity=100 time=0@note_on channel=10 note=91 velocity=0 time=0@note_on channel=10 note=93 velocity=100 time=0@note_on channel=11 note=71 velocity=0 time=0@note_on channel=11 note=67 velocity=100 time=0@note_on channel=12 note=64 velocity=0 time=0@note_on channel=12 note=62 velocity=100 time=0@note_on channel=13 note=74 velocity=0 time=0@note_on channel=13 note=74 velocity=100 time=0@note_on channel=14 note=67 velocity=0 time=0@note_on channel=14 note=69 velocity=100 time=0@note_on channel=8 note=74 velocity=0 time=0.15872999999999998@note_on channel=8 note=74 velocity=100 time=0@note_on channel=12 note=62 velocity=0 time=0@note_on channel=12 note=60 velocity=100 time=0@note_on channel=1 note=50 velocity=0 time=0.15872999999999998@note_on channel=1 note=43 velocity=100 time=0@note_on channel=7 note=71 velocity=0 time=0@note_on channel=7 note=67 velocity=100 time=0@note_on channel=8 note=74 velocity=0 time=0@note_on channel=8 note=67 velocity=100 time=0@note_on channel=10 note=93 velocity=0 time=0@note_on channel=10 note=96 velocity=100 time=0@note_on channel=11 note=67 velocity=0 time=0@note_on channel=11 note=71 velocity=100 time=0@note_on channel=12 note=60 velocity=0 time=0@note_on channel=12 note=59 velocity=100 time=0@note_on channel=13 note=74 velocity=0 time=0@note_on channel=13 note=74 velocity=100 time=0@note_on channel=14 note=69 velocity=0 time=0@note_on channel=14 note=71 velocity=100 time=0@note_on channel=10 note=96 velocity=0 time=0.07936499999999999@note_on channel=10 note=95 velocity=100 time=0@note_on channel=8 note=67 velocity=0 time=0.07936499999999999@note_on channel=8 note=74 velocity=100 time=0@note_on channel=10 note=95 velocity=0 time=0@note_on channel=10 note=96 velocity=100 time=0@note_on channel=11 note=71 velocity=0 time=0@note_on channel=11 note=72 velocity=100 time=0@note_on channel=12 note=59 velocity=0 time=0@note_on channel=12 note=57 velocity=100 time=0@note_on channel=10 note=96 velocity=0 time=0.07936499999999999@note_on channel=10 note=95 velocity=100 time=0@note_on channel=8 note=74 velocity=0 time=0.07936499999999999@note_on channel=8 note=74 velocity=100 time=0@note_on channel=11 note=72 velocity=0 time=0@note_on channel=11 note=74 velocity=100 time=0@note_on channel=12 note=57 velocity=0 time=0@note_on channel=12 note=59 velocity=100 time=0@note_on channel=14 note=71 velocity=0 time=0@note_on channel=14 note=72 velocity=100 time=0@note_on channel=7 note=67 velocity=0 time=0.15872999999999998@note_on channel=7 note=69 velocity=100 time=0@note_on channel=8 note=74 velocity=0 time=0@note_on channel=8 note=74 velocity=100 time=0@note_on channel=10 note=95 velocity=0 time=0@note_on channel=10 note=93 velocity=100 time=0@note_on channel=12 note=59 velocity=0 time=0@note_on channel=12 note=60 velocity=100 time=0@note_on channel=13 note=74 velocity=0 time=0@note_on channel=13 note=76 velocity=100 time=0@note_on channel=7 note=69 velocity=0 time=0.15872999999999998@note_on channel=7 note=71 velocity=100 time=0@note_on channel=8 note=74 velocity=0 time=0@note_on channel=8 note=74 velocity=100 time=0@note_on channel=10 note=93 velocity=0 time=0@note_on channel=10 note=91 velocity=100 time=0@note_on channel=11 note=74 velocity=0 time=0@note_on channel=11 note=67 velocity=100 time=0@note_on channel=12 note=60 velocity=0 time=0@note_on channel=12 note=62 velocity=100 time=0@note_on channel=13 note=76 velocity=0 time=0@note_on channel=13 note=77 velocity=100 time=0@note_on channel=14 note=72 velocity=0 time=0@note_on channel=14 note=74 velocity=100 time=0@note_on channel=8 note=74 velocity=0 time=0.15872999999999998@note_on channel=8 note=74 velocity=100 time=0@note_on channel=12 note=62 velocity=0 time=0@note_on channel=12 note=60 velocity=100 time=0@note_on channel=1 note=43 velocity=0 time=0.15872999999999998@note_on channel=1 note=45 velocity=100 time=0@note_on channel=7 note=71 velocity=0 time=0@note_on channel=7 note=72 velocity=100 time=0@note_on channel=8 note=74 velocity=0 time=0@note_on channel=8 note=69 velocity=100 time=0@note_on channel=10 note=91 velocity=0 time=0@note_on channel=10 note=96 velocity=100 time=0@note_on channel=11 note=67 velocity=0 time=0@note_on channel=11 note=81 velocity=100 time=0@note_on channel=12 note=60 velocity=0 time=0@note_on channel=12 note=60 velocity=100 time=0@note_on channel=13 note=77 velocity=0 time=0@note_on channel=13 note=72 velocity=100 time=0@note_on channel=14 note=74 velocity=0 time=0@note_on channel=14 note=72 velocity=100 time=0@note_on channel=14 note=72 velocity=0 time=0.07936499999999999@note_on channel=14 note=74 velocity=100 time=0@note_on channel=8 note=69 velocity=0 time=0.07936499999999999@note_on channel=8 note=72 velocity=100 time=0@note_on channel=11 note=81 velocity=0 time=0@note_on channel=11 note=83 velocity=100 time=0@note_on channel=12 note=60 velocity=0 time=0@note_on channel=12 note=59 velocity=100 time=0@note_on channel=14 note=74 velocity=0 time=0@note_on channel=14 note=72 velocity=100 time=0@note_on channel=8 note=72 velocity=0 time=0.15872999999999998@note_on channel=8 note=72 velocity=100 time=0@note_on channel=10 note=96 velocity=0 time=0@note_on channel=10 note=95 velocity=100 time=0@note_on channel=11 note=83 velocity=0 time=0@note_on channel=11 note=84 velocity=100 time=0@note_on channel=12 note=59 velocity=0 time=0@note_on channel=12 note=60 velocity=100 time=0@note_on channel=13 note=72 velocity=0 time=0@note_on channel=13 note=71 velocity=100 time=0@note_on channel=14 note=72 velocity=0 time=0@note_on channel=14 note=69 velocity=100 time=0@note_on channel=7 note=72 velocity=0 time=0.15872999999999998@note_on channel=7 note=71 velocity=100 time=0@note_on channel=8 note=72 velocity=0 time=0@note_on channel=8 note=72 velocity=100 time=0@note_on channel=12 note=60 velocity=0 time=0@note_on channel=12 note=62 velocity=100 time=0@note_on channel=7 note=71 velocity=0 time=0.15872999999999998@note_on channel=7 note=69 velocity=100 time=0@note_on channel=8 note=72 velocity=0 time=0@note_on channel=8 note=72 velocity=100 time=0@note_on channel=10 note=95 velocity=0 time=0@note_on channel=10 note=93 velocity=100 time=0@note_on channel=11 note=84 velocity=0 time=0@note_on channel=11 note=81 velocity=100 time=0@note_on channel=12 note=62 velocity=0 time=0@note_on channel=12 note=64 velocity=100 time=0@note_on channel=13 note=71 velocity=0 time=0@note_on channel=13 note=69 velocity=100 time=0@note_on channel=14 note=69 velocity=0 time=0@note_on channel=14 note=72 velocity=100 time=0@note_on channel=8 note=72 velocity=0 time=0.15872999999999998@note_on channel=8 note=72 velocity=100 time=0@note_on channel=12 note=64 velocity=0 time=0@note_on channel=12 note=62 velocity=100 time=0@note_on channel=1 note=45 velocity=0 time=0.15872999999999998@note_on channel=1 note=38 velocity=100 time=0@note_on channel=7 note=69 velocity=0 time=0@note_on channel=7 note=72 velocity=100 time=0@note_on channel=8 note=72 velocity=0 time=0@note_on channel=8 note=64 velocity=100 time=0@note_on channel=10 note=93 velocity=0 time=0@note_on channel=10 note=93 velocity=100 time=0@note_on channel=11 note=81 velocity=0 time=0@note_on channel=11 note=80 velocity=100 time=0@note_on channel=12 note=62 velocity=0 time=0@note_on channel=12 note=62 velocity=100 time=0@note_on channel=13 note=69 velocity=0 time=0@note_on channel=13 note=69 velocity=100 time=0@note_on channel=14 note=72 velocity=0 time=0@note_on channel=14 note=71 velocity=100 time=0@note_on channel=7 note=72 velocity=0 time=0.07936499999999999@note_on channel=7 note=71 velocity=100 time=0@note_on channel=10 note=93 velocity=0 time=0@note_on channel=10 note=92 velocity=100 time=0@note_on channel=13 note=69 velocity=0 time=0@note_on channel=13 note=68 velocity=100 time=0@note_on channel=14 note=71 velocity=0 time=0@note_on channel=14 note=72 velocity=100 time=0@note_on channel=7 note=71 velocity=0 time=0.07936499999999999@note_on channel=7 note=72 velocity=100 time=0@note_on channel=8 note=64 velocity=0 time=0@note_on channel=8 note=71 velocity=100 time=0@note_on channel=10 note=92 velocity=0 time=0@note_on channel=10 note=93 velocity=100 time=0@note_on channel=11 note=80 velocity=0 time=0@note_on channel=11 note=81 velocity=100 time=0@note_on channel=12 note=62 velocity=0 time=0@note_on channel=12 note=60 velocity=100 time=0@note_on channel=13 note=68 velocity=0 time=0@note_on channel=13 note=69 velocity=100 time=0@note_on channel=14 note=72 velocity=0 time=0@note_on channel=14 note=71 velocity=100 time=0@note_on channel=7 note=72 velocity=0 time=0.07936499999999999@note_on channel=7 note=71 velocity=100 time=0@note_on channel=10 note=93 velocity=0 time=0@note_on channel=10 note=92 velocity=100 time=0@note_on channel=13 note=69 velocity=0 time=0@note_on channel=13 note=68 velocity=100 time=0@note_on channel=8 note=71 velocity=0 time=0.07936499999999999@note_on channel=8 note=71 velocity=100 time=0@note_on channel=11 note=81 velocity=0 time=0@note_on channel=11 note=83 velocity=100 time=0@note_on channel=12 note=60 velocity=0 time=0@note_on channel=12 note=59 velocity=100 time=0@note_on channel=14 note=71 velocity=0 time=0@note_on channel=14 note=68 velocity=100 time=0@note_on channel=7 note=71 velocity=0 time=0.15872999999999998@note_on channel=7 note=69 velocity=100 time=0@note_on channel=8 note=71 velocity=0 time=0@note_on channel=8 note=71 velocity=100 time=0@note_on channel=10 note=92 velocity=0 time=0@note_on channel=10 note=90 velocity=100 time=0@note_on channel=12 note=59 velocity=0 time=0@note_on channel=12 note=57 velocity=100 time=0@note_on channel=13 note=68 velocity=0 time=0@note_on channel=13 note=66 velocity=100 time=0@note_on channel=7 note=69 velocity=0 time=0.15872999999999998@note_on channel=7 note=68 velocity=100 time=0@note_on channel=8 note=71 velocity=0 time=0@note_on channel=8 note=71 velocity=100 time=0@note_on channel=10 note=90 velocity=0 time=0@note_on channel=10 note=92 velocity=100 time=0@note_on channel=11 note=83 velocity=0 time=0@note_on channel=11 note=80 velocity=100 time=0@note_on channel=12 note=57 velocity=0 time=0@note_on channel=12 note=59 velocity=100 time=0@note_on channel=13 note=66 velocity=0 time=0@note_on channel=13 note=68 velocity=100 time=0@note_on channel=14 note=68 velocity=0 time=0@note_on channel=14 note=64 velocity=100 time=0@note_on channel=8 note=71 velocity=0 time=0.15872999999999998@note_on channel=8 note=71 velocity=100 time=0@note_on channel=12 note=59 velocity=0 time=0@note_on channel=12 note=56 velocity=100 time=0@note_on channel=1 note=38 velocity=0 time=0.15872999999999998@note_on channel=1 note=45 velocity=100 time=0@note_on channel=7 note=68 velocity=0 time=0@note_on channel=7 note=69 velocity=100 time=0@note_on channel=8 note=71 velocity=0 time=0@note_on channel=8 note=69 velocity=100 time=0@note_on channel=10 note=92 velocity=0 time=0@note_on channel=10 note=93 velocity=100 time=0@note_on channel=11 note=80 velocity=0 time=0@note_on channel=11 note=81 velocity=100 time=0@note_on channel=12 note=56 velocity=0 time=0@note_on channel=12 note=57 velocity=100 time=0@note_on channel=13 note=68 velocity=0 time=0@note_on channel=13 note=69 velocity=100 time=0@note_on channel=14 note=64 velocity=0 time=0@note_on channel=14 note=69 velocity=100 time=0@note_on channel=11 note=81 velocity=0 time=0.07936499999999999@note_on channel=11 note=80 velocity=100 time=0@note_on channel=11 note=80 velocity=0 time=0.07936499999999999@note_on channel=11 note=81 velocity=100 time=0@note_on channel=7 note=69 velocity=0 time=0.79365@note_on channel=7 note=69 velocity=100 time=0@note_on channel=8 note=69 velocity=0 time=0@note_on channel=8 note=69 velocity=100 time=0@note_on channel=10 note=93 velocity=0 time=0@note_on channel=10 note=93 velocity=100 time=0@note_on channel=11 note=81 velocity=0 time=0@note_on channel=11 note=81 velocity=100 time=0@note_on channel=12 note=57 velocity=0 time=0@note_on channel=12 note=57 velocity=100 time=0@note_on channel=13 note=69 velocity=0 time=0@note_on channel=13 note=69 velocity=100 time=0@note_on channel=14 note=69 velocity=0 time=0@note_on channel=14 note=69 velocity=100 time=0@note_on channel=1 note=45 velocity=0 time=0.9523799999999999@note_on channel=1 note=48 velocity=100 time=0@note_on channel=7 note=69 velocity=0 time=0@note_on channel=8 note=69 velocity=0 time=0@note_on channel=8 note=72 velocity=100 time=0@note_on channel=10 note=93 velocity=0 time=0@note_on channel=10 note=84 velocity=100 time=0@note_on channel=11 note=81 velocity=0 time=0@note_on channel=11 note=84 velocity=100 time=0@note_on channel=12 note=57 velocity=0 time=0@note_on channel=12 note=57 velocity=100 time=0@note_on channel=13 note=69 velocity=0 time=0@note_on channel=13 note=72 velocity=100 time=0@note_on channel=14 note=69 velocity=0 time=0@note_on channel=14 note=69 velocity=100 time=0@note_on channel=10 note=84 velocity=0 time=0.15872999999999998@note_on channel=10 note=88 velocity=100 time=0@note_on channel=12 note=57 velocity=0 time=0@note_on channel=12 note=59 velocity=100 time=0@note_on channel=13 note=72 velocity=0 time=0@note_on channel=13 note=71 velocity=100 time=0@note_on channel=14 note=69 velocity=0 time=0@note_on channel=14 note=71 velocity=100 time=0@note_on channel=10 note=88 velocity=0 time=0.15872999999999998@note_on channel=10 note=88 velocity=100 time=0@note_on channel=11 note=84 velocity=0 time=0@note_on channel=11 note=84 velocity=100 time=0@note_on channel=12 note=59 velocity=0 time=0@note_on channel=12 note=60 velocity=100 time=0@note_on channel=13 note=71 velocity=0 time=0@note_on channel=13 note=72 velocity=100 time=0@note_on channel=14 note=71 velocity=0 time=0@note_on channel=14 note=72 velocity=100 time=0@note_on channel=10 note=88 velocity=0 time=0.15872999999999998@note_on channel=10 note=88 velocity=100 time=0@note_on channel=13 note=72 velocity=0 time=0@note_on channel=13 note=74 velocity=100 time=0@note_on channel=14 note=72 velocity=0 time=0@note_on channel=14 note=74 velocity=100 time=0@note_on channel=8 note=72 velocity=0 time=0.15872999999999998@note_on channel=8 note=74 velocity=100 time=0@note_on channel=10 note=88 velocity=0 time=0@note_on channel=10 note=88 velocity=100 time=0@note_on channel=11 note=84 velocity=0 time=0@note_on channel=11 note=84 velocity=100 time=0@note_on channel=12 note=60 velocity=0 time=0@note_on channel=12 note=57 velocity=100 time=0@note_on channel=13 note=74 velocity=0 time=0@note_on channel=13 note=76 velocity=100 time=0@note_on channel=14 note=74 velocity=0 time=0@note_on channel=14 note=76 velocity=100 time=0@note_on channel=10 note=88 velocity=0 time=0.15872999999999998@note_on channel=10 note=88 velocity=100 time=0@note_on channel=13 note=76 velocity=0 time=0@note_on channel=13 note=74 velocity=100 time=0@note_on channel=14 note=76 velocity=0 time=0@note_on channel=14 note=69 velocity=100 time=0@note_on channel=1 note=48 velocity=0 time=0.15872999999999998@note_on channel=1 note=40 velocity=100 time=0@note_on channel=8 note=74 velocity=0 time=0@note_on channel=8 note=76 velocity=100 time=0@note_on channel=10 note=88 velocity=0 time=0@note_on channel=10 note=84 velocity=100 time=0@note_on channel=11 note=84 velocity=0 time=0@note_on channel=11 note=72 velocity=100 time=0@note_on channel=12 note=57 velocity=0 time=0@note_on channel=12 note=60 velocity=100 time=0@note_on channel=13 note=74 velocity=0 time=0@note_on channel=13 note=72 velocity=100 time=0@note_on channel=14 note=69 velocity=0 time=0@note_on channel=14 note=81 velocity=100 time=0@note_on channel=10 note=84 velocity=0 time=0.15872999999999998@note_on channel=10 note=88 velocity=100 time=0@note_on channel=12 note=60 velocity=0 time=0@note_on channel=12 note=62 velocity=100 time=0@note_on channel=13 note=72 velocity=0 time=0@note_on channel=13 note=71 velocity=100 time=0@note_on channel=14 note=81 velocity=0 time=0@note_on channel=14 note=80 velocity=100 time=0@note_on channel=10 note=88 velocity=0 time=0.15872999999999998@note_on channel=10 note=88 velocity=100 time=0@note_on channel=11 note=72 velocity=0 time=0@note_on channel=11 note=72 velocity=100 time=0@note_on channel=12 note=62 velocity=0 time=0@note_on channel=12 note=64 velocity=100 time=0@note_on channel=13 note=71 velocity=0 time=0@note_on channel=13 note=72 velocity=100 time=0@note_on channel=14 note=80 velocity=0 time=0@note_on channel=14 note=81 velocity=100 time=0@note_on channel=10 note=88 velocity=0 time=0.15872999999999998@note_on channel=10 note=88 velocity=100 time=0@note_on channel=13 note=72 velocity=0 time=0@note_on channel=13 note=74 velocity=100 time=0@note_on channel=14 note=81 velocity=0 time=0@note_on channel=14 note=83 velocity=100 time=0@note_on channel=8 note=76 velocity=0 time=0.15872999999999998@note_on channel=8 note=76 velocity=100 time=0@note_on channel=10 note=88 velocity=0 time=0@note_on channel=10 note=88 velocity=100 time=0@note_on channel=11 note=72 velocity=0 time=0@note_on channel=11 note=72 velocity=100 time=0@note_on channel=12 note=64 velocity=0 time=0@note_on channel=12 note=57 velocity=100 time=0@note_on channel=13 note=74 velocity=0 time=0@note_on channel=13 note=76 velocity=100 time=0@note_on channel=14 note=83 velocity=0 time=0@note_on channel=14 note=84 velocity=100 time=0@note_on channel=10 note=88 velocity=0 time=0.15872999999999998@note_on channel=10 note=88 velocity=100 time=0@note_on channel=13 note=76 velocity=0 time=0@note_on channel=13 note=74 velocity=100 time=0@note_on channel=14 note=84 velocity=0 time=0@note_on channel=14 note=81 velocity=100 time=0@note_on channel=1 note=40 velocity=0 time=0.15872999999999998@note_on channel=1 note=50 velocity=100 time=0@note_on channel=8 note=76 velocity=0 time=0@note_on channel=8 note=74 velocity=100 time=0@note_on channel=10 note=88 velocity=0 time=0@note_on channel=10 note=83 velocity=100 time=0@note_on channel=11 note=72 velocity=0 time=0@note_on channel=11 note=79 velocity=100 time=0@note_on channel=12 note=57 velocity=0 time=0@note_on channel=12 note=55 velocity=100 time=0@note_on channel=13 note=74 velocity=0 time=0@note_on channel=13 note=71 velocity=100 time=0@note_on channel=14 note=81 velocity=0 time=0@note_on channel=14 note=84 velocity=100 time=0@note_on channel=14 note=84 velocity=0 time=0.07936499999999999@note_on channel=14 note=83 velocity=100 time=0@note_on channel=10 note=83 velocity=0 time=0.07936499999999999@note_on channel=10 note=86 velocity=100 time=0@note_on channel=12 note=55 velocity=0 time=0@note_on channel=12 note=57 velocity=100 time=0@note_on channel=13 note=71 velocity=0 time=0@note_on channel=13 note=69 velocity=100 time=0@note_on channel=14 note=83 velocity=0 time=0@note_on channel=14 note=84 velocity=100 time=0@note_on channel=14 note=84 velocity=0 time=0.07936499999999999@note_on channel=14 note=83 velocity=100 time=0@note_on channel=10 note=86 velocity=0 time=0.07936499999999999@note_on channel=10 note=86 velocity=100 time=0@note_on channel=11 note=79 velocity=0 time=0@note_on channel=11 note=79 velocity=100 time=0@note_on channel=12 note=57 velocity=0 time=0@note_on channel=12 note=59 velocity=100 time=0@note_on channel=13 note=69 velocity=0 time=0@note_on channel=13 note=71 velocity=100 time=0@note_on channel=10 note=86 velocity=0 time=0.15872999999999998@note_on channel=10 note=86 velocity=100 time=0@note_on channel=13 note=71 velocity=0 time=0@note_on channel=13 note=72 velocity=100 time=0@note_on channel=8 note=74 velocity=0 time=0.15872999999999998@note_on channel=8 note=71 velocity=100 time=0@note_on channel=10 note=86 velocity=0 time=0@note_on channel=10 note=86 velocity=100 time=0@note_on channel=11 note=79 velocity=0 time=0@note_on channel=11 note=79 velocity=100 time=0@note_on channel=12 note=59 velocity=0 time=0@note_on channel=12 note=55 velocity=100 time=0@note_on channel=13 note=72 velocity=0 time=0@note_on channel=13 note=74 velocity=100 time=0@note_on channel=14 note=83 velocity=0 time=0@note_on channel=14 note=79 velocity=100 time=0@note_on channel=10 note=86 velocity=0 time=0.15872999999999998@note_on channel=10 note=86 velocity=100 time=0@note_on channel=13 note=74 velocity=0 time=0@note_on channel=13 note=72 velocity=100 time=0@note_on channel=1 note=50 velocity=0 time=0.15872999999999998@note_on channel=1 note=43 velocity=100 time=0@note_on channel=8 note=71 velocity=0 time=0@note_on channel=8 note=67 velocity=100 time=0@note_on channel=10 note=86 velocity=0 time=0@note_on channel=10 note=83 velocity=100 time=0@note_on channel=11 note=79 velocity=0 time=0@note_on channel=11 note=67 velocity=100 time=0@note_on channel=12 note=55 velocity=0 time=0@note_on channel=12 note=59 velocity=100 time=0@note_on channel=13 note=72 velocity=0 time=0@note_on channel=13 note=71 velocity=100 time=0@note_on channel=14 note=79 velocity=0 time=0@note_on channel=14 note=79 velocity=100 time=0@note_on channel=10 note=83 velocity=0 time=0.15872999999999998@note_on channel=10 note=86 velocity=100 time=0@note_on channel=12 note=59 velocity=0 time=0@note_on channel=12 note=60 velocity=100 time=0@note_on channel=13 note=71 velocity=0 time=0@note_on channel=13 note=69 velocity=100 time=0@note_on channel=10 note=86 velocity=0 time=0.15872999999999998@note_on channel=10 note=86 velocity=100 time=0@note_on channel=12 note=60 velocity=0 time=0@note_on channel=12 note=62 velocity=100 time=0@note_on channel=13 note=69 velocity=0 time=0@note_on channel=13 note=71 velocity=100 time=0@note_on channel=10 note=86 velocity=0 time=0.15872999999999998@note_on channel=10 note=86 velocity=100 time=0@note_on channel=11 note=67 velocity=0 time=0@note_on channel=11 note=69 velocity=100 time=0@note_on channel=13 note=71 velocity=0 time=0@note_on channel=13 note=72 velocity=100 time=0@note_on channel=10 note=86 velocity=0 time=0.15872999999999998@note_on channel=10 note=86 velocity=100 time=0@note_on channel=11 note=69 velocity=0 time=0@note_on channel=11 note=71 velocity=100 time=0@note_on channel=12 note=62 velocity=0 time=0@note_on channel=12 note=55 velocity=100 time=0@note_on channel=13 note=72 velocity=0 time=0@note_on channel=13 note=74 velocity=100 time=0@note_on channel=10 note=86 velocity=0 time=0.15872999999999998@note_on channel=10 note=86 velocity=100 time=0@note_on channel=13 note=74 velocity=0 time=0@note_on channel=13 note=72 velocity=100 time=0@note_on channel=1 note=43 velocity=0 time=0.15872999999999998@note_on channel=1 note=45 velocity=100 time=0@note_on channel=8 note=67 velocity=0 time=0@note_on channel=8 note=69 velocity=100 time=0@note_on channel=10 note=86 velocity=0 time=0@note_on channel=10 note=81 velocity=100 time=0@note_on channel=11 note=71 velocity=0 time=0@note_on channel=11 note=81 velocity=100 time=0@note_on channel=12 note=55 velocity=0 time=0@note_on channel=12 note=57 velocity=100 time=0@note_on channel=13 note=72 velocity=0 time=0@note_on channel=13 note=72 velocity=100 time=0@note_on channel=14 note=79 velocity=0 time=0@note_on channel=14 note=69 velocity=100 time=0@note_on channel=10 note=81 velocity=0 time=0.15872999999999998@note_on channel=10 note=84 velocity=100 time=0@note_on channel=12 note=57 velocity=0 time=0@note_on channel=12 note=59 velocity=100 time=0@note_on channel=13 note=72 velocity=0 time=0@note_on channel=13 note=71 velocity=100 time=0@note_on channel=14 note=69 velocity=0 time=0@note_on channel=14 note=71 velocity=100 time=0@note_on channel=10 note=84 velocity=0 time=0.15872999999999998@note_on channel=10 note=84 velocity=100 time=0@note_on channel=11 note=81 velocity=0 time=0@note_on channel=11 note=81 velocity=100 time=0@note_on channel=12 note=59 velocity=0 time=0@note_on channel=12 note=60 velocity=100 time=0@note_on channel=13 note=71 velocity=0 time=0@note_on channel=13 note=72 velocity=100 time=0@note_on channel=14 note=71 velocity=0 time=0@note_on channel=14 note=72 velocity=100 time=0@note_on channel=8 note=69 velocity=0 time=0.15872999999999998@note_on channel=8 note=71 velocity=100 time=0@note_on channel=10 note=84 velocity=0 time=0@note_on channel=10 note=84 velocity=100 time=0@note_on channel=13 note=72 velocity=0 time=0@note_on channel=13 note=74 velocity=100 time=0@note_on channel=14 note=72 velocity=0 time=0@note_on channel=14 note=74 velocity=100 time=0@note_on channel=8 note=71 velocity=0 time=0.15872999999999998@note_on channel=8 note=72 velocity=100 time=0@note_on channel=10 note=84 velocity=0 time=0@note_on channel=10 note=84 velocity=100 time=0@note_on channel=11 note=81 velocity=0 time=0@note_on channel=11 note=81 velocity=100 time=0@note_on channel=12 note=60 velocity=0 time=0@note_on channel=12 note=57 velocity=100 time=0@note_on channel=13 note=74 velocity=0 time=0@note_on channel=13 note=72 velocity=100 time=0@note_on channel=14 note=74 velocity=0 time=0@note_on channel=14 note=76 velocity=100 time=0@note_on channel=10 note=84 velocity=0 time=0.15872999999999998@note_on channel=10 note=84 velocity=100 time=0@note_on channel=13 note=72 velocity=0 time=0@note_on channel=13 note=71 velocity=100 time=0@note_on channel=14 note=76 velocity=0 time=0@note_on channel=14 note=69 velocity=100 time=0@note_on channel=1 note=45 velocity=0 time=0.15872999999999998@note_on channel=1 note=38 velocity=100 time=0@note_on channel=8 note=72 velocity=0 time=0@note_on channel=8 note=74 velocity=100 time=0@note_on channel=10 note=84 velocity=0 time=0@note_on channel=10 note=81 velocity=100 time=0@note_on channel=11 note=81 velocity=0 time=0@note_on channel=11 note=69 velocity=100 time=0@note_on channel=12 note=57 velocity=0 time=0@note_on channel=12 note=60 velocity=100 time=0@note_on channel=13 note=71 velocity=0 time=0@note_on channel=13 note=69 velocity=100 time=0@note_on channel=14 note=69 velocity=0 time=0@note_on channel=14 note=81 velocity=100 time=0@note_on channel=10 note=81 velocity=0 time=0.15872999999999998@note_on channel=10 note=84 velocity=100 time=0@note_on channel=12 note=60 velocity=0 time=0@note_on channel=12 note=62 velocity=100 time=0@note_on channel=13 note=69 velocity=0 time=0@note_on channel=13 note=68 velocity=100 time=0@note_on channel=14 note=81 velocity=0 time=0@note_on channel=14 note=80 velocity=100 time=0@note_on channel=8 note=74 velocity=0 time=0.15872999999999998@note_on channel=8 note=76 velocity=100 time=0@note_on channel=10 note=84 velocity=0 time=0@note_on channel=10 note=84 velocity=100 time=0@note_on channel=12 note=62 velocity=0 time=0@note_on channel=12 note=64 velocity=100 time=0@note_on channel=13 note=68 velocity=0 time=0@note_on channel=13 note=69 velocity=100 time=0@note_on channel=14 note=80 velocity=0 time=0@note_on channel=14 note=81 velocity=100 time=0@note_on channel=10 note=84 velocity=0 time=0.15872999999999998@note_on channel=10 note=84 velocity=100 time=0@note_on channel=11 note=69 velocity=0 time=0@note_on channel=11 note=71 velocity=100 time=0@note_on channel=13 note=69 velocity=0 time=0@note_on channel=13 note=71 velocity=100 time=0@note_on channel=14 note=81 velocity=0 time=0@note_on channel=14 note=83 velocity=100 time=0@note_on channel=8 note=76 velocity=0 time=0.15872999999999998@note_on channel=8 note=72 velocity=100 time=0@note_on channel=10 note=84 velocity=0 time=0@note_on channel=10 note=84 velocity=100 time=0@note_on channel=11 note=71 velocity=0 time=0@note_on channel=11 note=72 velocity=100 time=0@note_on channel=12 note=64 velocity=0 time=0@note_on channel=12 note=57 velocity=100 time=0@note_on channel=13 note=71 velocity=0 time=0@note_on channel=13 note=72 velocity=100 time=0@note_on channel=14 note=83 velocity=0 time=0@note_on channel=14 note=84 velocity=100 time=0@note_on channel=10 note=84 velocity=0 time=0.15872999999999998@note_on channel=10 note=84 velocity=100 time=0@note_on channel=11 note=72 velocity=0 time=0@note_on channel=11 note=74 velocity=100 time=0@note_on channel=13 note=72 velocity=0 time=0@note_on channel=13 note=69 velocity=100 time=0@note_on channel=14 note=84 velocity=0 time=0@note_on channel=14 note=81 velocity=100 time=0@note_on channel=1 note=38 velocity=0 time=0.15872999999999998@note_on channel=1 note=47 velocity=100 time=0@note_on channel=8 note=72 velocity=0 time=0@note_on channel=8 note=71 velocity=100 time=0@note_on channel=10 note=84 velocity=0 time=0@note_on channel=10 note=80 velocity=100 time=0@note_on channel=11 note=74 velocity=0 time=0@note_on channel=11 note=76 velocity=100 time=0@note_on channel=12 note=57 velocity=0 time=0@note_on channel=12 note=52 velocity=100 time=0@note_on channel=13 note=69 velocity=0 time=0@note_on channel=13 note=71 velocity=100 time=0@note_on channel=14 note=81 velocity=0 time=0@note_on channel=14 note=81 velocity=100 time=0@note_on channel=14 note=81 velocity=0 time=0.07936499999999999@note_on channel=14 note=80 velocity=100 time=0@note_on channel=10 note=80 velocity=0 time=0.07936499999999999@note_on channel=10 note=83 velocity=100 time=0@note_on channel=12 note=52 velocity=0 time=0@note_on channel=12 note=54 velocity=100 time=0@note_on channel=13 note=71 velocity=0 time=0@note_on channel=13 note=69 velocity=100 time=0@note_on channel=14 note=80 velocity=0 time=0@note_on channel=14 note=81 velocity=100 time=0@note_on channel=14 note=81 velocity=0 time=0.07936499999999999@note_on channel=14 note=80 velocity=100 time=0@note_on channel=10 note=83 velocity=0 time=0.07936499999999999@note_on channel=10 note=83 velocity=100 time=0@note_on channel=11 note=76 velocity=0 time=0@note_on channel=11 note=76 velocity=100 time=0@note_on channel=12 note=54 velocity=0 time=0@note_on channel=12 note=56 velocity=100 time=0@note_on channel=13 note=69 velocity=0 time=0@note_on channel=13 note=71 velocity=100 time=0@note_on channel=10 note=83 velocity=0 time=0.15872999999999998@note_on channel=10 note=83 velocity=100 time=0@note_on channel=13 note=71 velocity=0 time=0@note_on channel=13 note=69 velocity=100 time=0@note_on channel=8 note=71 velocity=0 time=0.15872999999999998@note_on channel=8 note=68 velocity=100 time=0@note_on channel=10 note=83 velocity=0 time=0@note_on channel=10 note=83 velocity=100 time=0@note_on channel=11 note=76 velocity=0 time=0@note_on channel=11 note=76 velocity=100 time=0@note_on channel=12 note=56 velocity=0 time=0@note_on channel=12 note=52 velocity=100 time=0@note_on channel=13 note=69 velocity=0 time=0@note_on channel=13 note=68 velocity=100 time=0@note_on channel=14 note=80 velocity=0 time=0@note_on channel=14 note=76 velocity=100 time=0@note_on channel=10 note=83 velocity=0 time=0.15872999999999998@note_on channel=10 note=83 velocity=100 time=0@note_on channel=13 note=68 velocity=0 time=0@note_on channel=13 note=66 velocity=100 time=0@note_on channel=1 note=47 velocity=0 time=0.15872999999999998@note_on channel=1 note=40 velocity=100 time=0@note_on channel=8 note=68 velocity=0 time=0@note_on channel=8 note=64 velocity=100 time=0@note_on channel=10 note=83 velocity=0 time=0@note_on channel=10 note=76 velocity=100 time=0@note_on channel=11 note=76 velocity=0 time=0@note_on channel=11 note=68 velocity=100 time=0@note_on channel=12 note=52 velocity=0 time=0@note_on channel=12 note=56 velocity=100 time=0@note_on channel=13 note=66 velocity=0 time=0@note_on channel=13 note=64 velocity=100 time=0@note_on channel=14 note=76 velocity=0 time=0@note_on channel=14 note=76 velocity=100 time=0@note_on channel=11 note=68 velocity=0 time=0.07936499999999999@note_on channel=11 note=69 velocity=100 time=0@note_on channel=10 note=76 velocity=0 time=0.07936499999999999@note_on channel=10 note=83 velocity=100 time=0@note_on channel=11 note=69 velocity=0 time=0@note_on channel=11 note=68 velocity=100 time=0@note_on channel=12 note=56 velocity=0 time=0@note_on channel=12 note=57 velocity=100 time=0@note_on channel=13 note=64 velocity=0 time=0@note_on channel=13 note=66 velocity=100 time=0@note_on channel=10 note=83 velocity=0 time=0.15872999999999998@note_on channel=10 note=83 velocity=100 time=0@note_on channel=11 note=68 velocity=0 time=0@note_on channel=11 note=64 velocity=100 time=0@note_on channel=12 note=57 velocity=0 time=0@note_on channel=12 note=59 velocity=100 time=0@note_on channel=13 note=66 velocity=0 time=0@note_on channel=13 note=68 velocity=100 time=0@note_on channel=10 note=83 velocity=0 time=0.15872999999999998@note_on channel=10 note=83 velocity=100 time=0@note_on channel=13 note=68 velocity=0 time=0@note_on channel=13 note=69 velocity=100 time=0@note_on channel=10 note=83 velocity=0 time=0.15872999999999998@note_on channel=10 note=83 velocity=100 time=0@note_on channel=11 note=64 velocity=0 time=0@note_on channel=11 note=64 velocity=100 time=0@note_on channel=12 note=59 velocity=0 time=0@note_on channel=12 note=52 velocity=100 time=0@note_on channel=13 note=69 velocity=0 time=0@note_on channel=13 note=68 velocity=100 time=0@note_on channel=10 note=83 velocity=0 time=0.15872999999999998@note_on channel=10 note=83 velocity=100 time=0@note_on channel=13 note=68 velocity=0 time=0@note_on channel=13 note=64 velocity=100 time=0@note_on channel=1 note=40 velocity=0 time=0.15872999999999998@note_on channel=1 note=48 velocity=100 time=0@note_on channel=8 note=64 velocity=0 time=0@note_on channel=8 note=72 velocity=100 time=0@note_on channel=10 note=83 velocity=0 time=0@note_on channel=10 note=88 velocity=100 time=0@note_on channel=11 note=64 velocity=0 time=0@note_on channel=11 note=84 velocity=100 time=0@note_on channel=12 note=52 velocity=0 time=0@note_on channel=12 note=60 velocity=100 time=0@note_on channel=13 note=64 velocity=0 time=0@note_on channel=13 note=72 velocity=100 time=0@note_on channel=14 note=76 velocity=0 time=0@note_on channel=14 note=72 velocity=100 time=0@note_on channel=10 note=88 velocity=0 time=0.15872999999999998@note_on channel=10 note=91 velocity=100 time=0@note_on channel=12 note=60 velocity=0 time=0@note_on channel=12 note=62 velocity=100 time=0@note_on channel=13 note=72 velocity=0 time=0@note_on channel=13 note=71 velocity=100 time=0@note_on channel=14 note=72 velocity=0 time=0@note_on channel=14 note=71 velocity=100 time=0@note_on channel=10 note=91 velocity=0 time=0.15872999999999998@note_on channel=10 note=91 velocity=100 time=0@note_on channel=11 note=84 velocity=0 time=0@note_on channel=11 note=84 velocity=100 time=0@note_on channel=12 note=62 velocity=0 time=0@note_on channel=12 note=64 velocity=100 time=0@note_on channel=13 note=71 velocity=0 time=0@note_on channel=13 note=72 velocity=100 time=0@note_on channel=14 note=71 velocity=0 time=0@note_on channel=14 note=72 velocity=100 time=0@note_on channel=10 note=91 velocity=0 time=0.15872999999999998@note_on channel=10 note=91 velocity=100 time=0@note_on channel=13 note=72 velocity=0 time=0@note_on channel=13 note=74 velocity=100 time=0@note_on channel=14 note=72 velocity=0 time=0@note_on channel=14 note=74 velocity=100 time=0@note_on channel=8 note=72 velocity=0 time=0.15872999999999998@note_on channel=8 note=74 velocity=100 time=0@note_on channel=10 note=91 velocity=0 time=0@note_on channel=10 note=91 velocity=100 time=0@note_on channel=11 note=84 velocity=0 time=0@note_on channel=11 note=84 velocity=100 time=0@note_on channel=12 note=64 velocity=0 time=0@note_on channel=12 note=60 velocity=100 time=0@note_on channel=13 note=74 velocity=0 time=0@note_on channel=13 note=76 velocity=100 time=0@note_on channel=14 note=74 velocity=0 time=0@note_on channel=14 note=76 velocity=100 time=0@note_on channel=10 note=91 velocity=0 time=0.15872999999999998@note_on channel=10 note=91 velocity=100 time=0@note_on channel=13 note=76 velocity=0 time=0@note_on channel=13 note=74 velocity=100 time=0@note_on channel=14 note=76 velocity=0 time=0@note_on channel=14 note=77 velocity=100 time=0@note_on channel=1 note=48 velocity=0 time=0.15872999999999998@note_on channel=1 note=40 velocity=100 time=0@note_on channel=8 note=74 velocity=0 time=0@note_on channel=8 note=76 velocity=100 time=0@note_on channel=10 note=91 velocity=0 time=0@note_on channel=10 note=84 velocity=100 time=0@note_on channel=11 note=84 velocity=0 time=0@note_on channel=11 note=72 velocity=100 time=0@note_on channel=12 note=60 velocity=0 time=0@note_on channel=12 note=64 velocity=100 time=0@note_on channel=13 note=74 velocity=0 time=0@note_on channel=13 note=72 velocity=100 time=0@note_on channel=14 note=77 velocity=0 time=0@note_on channel=14 note=79 velocity=100 time=0@note_on channel=10 note=84 velocity=0 time=0.15872999999999998@note_on channel=10 note=91 velocity=100 time=0@note_on channel=12 note=64 velocity=0 time=0@note_on channel=12 note=65 velocity=100 time=0@note_on channel=13 note=72 velocity=0 time=0@note_on channel=13 note=71 velocity=100 time=0@note_on channel=14 note=79 velocity=0 time=0@note_on channel=14 note=81 velocity=100 time=0@note_on channel=10 note=91 velocity=0 time=0.15872999999999998@note_on channel=10 note=91 velocity=100 time=0@note_on channel=12 note=65 velocity=0 time=0@note_on channel=12 note=67 velocity=100 time=0@note_on channel=13 note=71 velocity=0 time=0@note_on channel=13 note=72 velocity=100 time=0@note_on channel=14 note=81 velocity=0 time=0@note_on channel=14 note=83 velocity=100 time=0@note_on channel=8 note=76 velocity=0 time=0.15872999999999998@note_on channel=8 note=74 velocity=100 time=0@note_on channel=10 note=91 velocity=0 time=0@note_on channel=10 note=91 velocity=100 time=0@note_on channel=11 note=72 velocity=0 time=0@note_on channel=11 note=74 velocity=100 time=0@note_on channel=13 note=72 velocity=0 time=0@note_on channel=13 note=74 velocity=100 time=0@note_on channel=14 note=83 velocity=0 time=0@note_on channel=14 note=79 velocity=100 time=0@note_on channel=8 note=74 velocity=0 time=0.15872999999999998@note_on channel=8 note=72 velocity=100 time=0@note_on channel=10 note=91 velocity=0 time=0@note_on channel=10 note=91 velocity=100 time=0@note_on channel=11 note=74 velocity=0 time=0@note_on channel=11 note=76 velocity=100 time=0@note_on channel=12 note=67 velocity=0 time=0@note_on channel=12 note=60 velocity=100 time=0@note_on channel=13 note=74 velocity=0 time=0@note_on channel=13 note=76 velocity=100 time=0@note_on channel=14 note=79 velocity=0 time=0@note_on channel=14 note=81 velocity=100 time=0@note_on channel=10 note=91 velocity=0 time=0.15872999999999998@note_on channel=10 note=91 velocity=100 time=0@note_on channel=11 note=76 velocity=0 time=0@note_on channel=11 note=77 velocity=100 time=0@note_on channel=13 note=76 velocity=0 time=0@note_on channel=13 note=74 velocity=100 time=0@note_on channel=14 note=81 velocity=0 time=0@note_on channel=14 note=83 velocity=100 time=0@note_on channel=1 note=40 velocity=0 time=0.15872999999999998@note_on channel=1 note=50 velocity=100 time=0@note_on channel=8 note=72 velocity=0 time=0@note_on channel=8 note=74 velocity=100 time=0@note_on channel=10 note=91 velocity=0 time=0@note_on channel=10 note=83 velocity=100 time=0@note_on channel=11 note=77 velocity=0 time=0@note_on channel=11 note=79 velocity=100 time=0@note_on channel=12 note=60 velocity=0 time=0@note_on channel=12 note=55 velocity=100 time=0@note_on channel=13 note=74 velocity=0 time=0@note_on channel=13 note=74 velocity=100 time=0@note_on channel=14 note=83 velocity=0 time=0@note_on channel=14 note=81 velocity=100 time=0@note_on channel=14 note=81 velocity=0 time=0.07936499999999999@note_on channel=14 note=79 velocity=100 time=0@note_on channel=10 note=83 velocity=0 time=0.07936499999999999@note_on channel=10 note=86 velocity=100 time=0@note_on channel=12 note=55 velocity=0 time=0@note_on channel=12 note=57 velocity=100 time=0@note_on channel=13 note=74 velocity=0 time=0@note_on channel=13 note=72 velocity=100 time=0@note_on channel=14 note=79 velocity=0 time=0@note_on channel=14 note=81 velocity=100 time=0@note_on channel=14 note=81 velocity=0 time=0.07936499999999999@note_on channel=14 note=79 velocity=100 time=0@note_on channel=10 note=86 velocity=0 time=0.07936499999999999@note_on channel=10 note=86 velocity=100 time=0@note_on channel=11 note=79 velocity=0 time=0@note_on channel=11 note=79 velocity=100 time=0@note_on channel=12 note=57 velocity=0 time=0@note_on channel=12 note=59 velocity=100 time=0@note_on channel=13 note=72 velocity=0 time=0@note_on channel=13 note=74 velocity=100 time=0@note_on channel=14 note=79 velocity=0 time=0@note_on channel=14 note=74 velocity=100 time=0@note_on channel=10 note=86 velocity=0 time=0.15872999999999998@note_on channel=10 note=86 velocity=100 time=0@note_on channel=13 note=74 velocity=0 time=0@note_on channel=13 note=76 velocity=100 time=0@note_on channel=8 note=74 velocity=0 time=0.15872999999999998@note_on channel=8 note=71 velocity=100 time=0@note_on channel=10 note=86 velocity=0 time=0@note_on channel=10 note=86 velocity=100 time=0@note_on channel=11 note=79 velocity=0 time=0@note_on channel=11 note=81 velocity=100 time=0@note_on channel=12 note=59 velocity=0 time=0@note_on channel=12 note=55 velocity=100 time=0@note_on channel=13 note=76 velocity=0 time=0@note_on channel=13 note=74 velocity=100 time=0@note_on channel=14 note=74 velocity=0 time=0@note_on channel=14 note=74 velocity=100 time=0@note_on channel=10 note=86 velocity=0 time=0.15872999999999998@note_on channel=10 note=86 velocity=100 time=0@note_on channel=13 note=74 velocity=0 time=0@note_on channel=13 note=72 velocity=100 time=0@note_on channel=1 note=50 velocity=0 time=0.15872999999999998@note_on channel=1 note=43 velocity=100 time=0@note_on channel=8 note=71 velocity=0 time=0@note_on channel=8 note=67 velocity=100 time=0@note_on channel=10 note=86 velocity=0 time=0@note_on channel=10 note=79 velocity=100 time=0@note_on channel=11 note=81 velocity=0 time=0@note_on channel=11 note=84 velocity=100 time=0@note_on channel=12 note=55 velocity=0 time=0@note_on channel=12 note=59 velocity=100 time=0@note_on channel=13 note=72 velocity=0 time=0@note_on channel=13 note=71 velocity=100 time=0@note_on channel=14 note=74 velocity=0 time=0@note_on channel=14 note=74 velocity=100 time=0@note_on channel=11 note=84 velocity=0 time=0.07936499999999999@note_on channel=11 note=83 velocity=100 time=0@note_on channel=10 note=79 velocity=0 time=0.07936499999999999@note_on channel=10 note=86 velocity=100 time=0@note_on channel=11 note=83 velocity=0 time=0@note_on channel=11 note=84 velocity=100 time=0@note_on channel=12 note=59 velocity=0 time=0@note_on channel=12 note=60 velocity=100 time=0@note_on channel=13 note=71 velocity=0 time=0@note_on channel=13 note=69 velocity=100 time=0@note_on channel=11 note=84 velocity=0 time=0.07936499999999999@note_on channel=11 note=83 velocity=100 time=0@note_on channel=10 note=86 velocity=0 time=0.07936499999999999@note_on channel=10 note=86 velocity=100 time=0@note_on channel=12 note=60 velocity=0 time=0@note_on channel=12 note=62 velocity=100 time=0@note_on channel=13 note=69 velocity=0 time=0@note_on channel=13 note=71 velocity=100 time=0@note_on channel=8 note=67 velocity=0 time=0.15872999999999998@note_on channel=8 note=69 velocity=100 time=0@note_on channel=10 note=86 velocity=0 time=0@note_on channel=10 note=86 velocity=100 time=0@note_on channel=11 note=83 velocity=0 time=0@note_on channel=11 note=81 velocity=100 time=0@note_on channel=13 note=71 velocity=0 time=0@note_on channel=13 note=72 velocity=100 time=0@note_on channel=14 note=74 velocity=0 time=0@note_on channel=14 note=76 velocity=100 time=0@note_on channel=8 note=69 velocity=0 time=0.15872999999999998@note_on channel=8 note=71 velocity=100 time=0@note_on channel=10 note=86 velocity=0 time=0@note_on channel=10 note=86 velocity=100 time=0@note_on channel=11 note=81 velocity=0 time=0@note_on channel=11 note=79 velocity=100 time=0@note_on channel=12 note=62 velocity=0 time=0@note_on channel=12 note=55 velocity=100 time=0@note_on channel=13 note=72 velocity=0 time=0@note_on channel=13 note=74 velocity=100 time=0@note_on channel=14 note=76 velocity=0 time=0@note_on channel=14 note=77 velocity=100 time=0@note_on channel=10 note=86 velocity=0 time=0.15872999999999998@note_on channel=10 note=86 velocity=100 time=0@note_on channel=13 note=74 velocity=0 time=0@note_on channel=13 note=72 velocity=100 time=0@note_on channel=1 note=43 velocity=0 time=0.15872999999999998@note_on channel=1 note=45 velocity=100 time=0@note_on channel=8 note=71 velocity=0 time=0@note_on channel=8 note=72 velocity=100 time=0@note_on channel=10 note=86 velocity=0 time=0@note_on channel=10 note=81 velocity=100 time=0@note_on channel=11 note=79 velocity=0 time=0@note_on channel=11 note=84 velocity=100 time=0@note_on channel=12 note=55 velocity=0 time=0@note_on channel=12 note=69 velocity=100 time=0@note_on channel=13 note=72 velocity=0 time=0@note_on channel=13 note=72 velocity=100 time=0@note_on channel=14 note=77 velocity=0 time=0@note_on channel=14 note=72 velocity=100 time=0@note_on channel=10 note=81 velocity=0 time=0.15872999999999998@note_on channel=10 note=84 velocity=100 time=0@note_on channel=12 note=69 velocity=0 time=0@note_on channel=12 note=71 velocity=100 time=0@note_on channel=13 note=72 velocity=0 time=0@note_on channel=13 note=71 velocity=100 time=0@note_on channel=10 note=84 velocity=0 time=0.15872999999999998@note_on channel=10 note=84 velocity=100 time=0@note_on channel=11 note=84 velocity=0 time=0@note_on channel=11 note=83 velocity=100 time=0@note_on channel=12 note=71 velocity=0 time=0@note_on channel=12 note=72 velocity=100 time=0@note_on channel=13 note=71 velocity=0 time=0@note_on channel=13 note=72 velocity=100 time=0@note_on channel=14 note=72 velocity=0 time=0@note_on channel=14 note=71 velocity=100 time=0@note_on channel=8 note=72 velocity=0 time=0.15872999999999998@note_on channel=8 note=71 velocity=100 time=0@note_on channel=10 note=84 velocity=0 time=0@note_on channel=10 note=84 velocity=100 time=0@note_on channel=13 note=72 velocity=0 time=0@note_on channel=13 note=74 velocity=100 time=0@note_on channel=8 note=71 velocity=0 time=0.15872999999999998@note_on channel=8 note=69 velocity=100 time=0@note_on channel=10 note=84 velocity=0 time=0@note_on channel=10 note=84 velocity=100 time=0@note_on channel=11 note=83 velocity=0 time=0@note_on channel=11 note=81 velocity=100 time=0@note_on channel=12 note=72 velocity=0 time=0@note_on channel=12 note=69 velocity=100 time=0@note_on channel=13 note=74 velocity=0 time=0@note_on channel=13 note=76 velocity=100 time=0@note_on channel=14 note=71 velocity=0 time=0@note_on channel=14 note=69 velocity=100 time=0@note_on channel=10 note=84 velocity=0 time=0.15872999999999998@note_on channel=10 note=84 velocity=100 time=0@note_on channel=13 note=76 velocity=0 time=0@note_on channel=13 note=74 velocity=100 time=0@note_on channel=1 note=45 velocity=0 time=0.15872999999999998@note_on channel=1 note=38 velocity=100 time=0@note_on channel=8 note=69 velocity=0 time=0@note_on channel=8 note=72 velocity=100 time=0@note_on channel=10 note=84 velocity=0 time=0@note_on channel=10 note=76 velocity=100 time=0@note_on channel=11 note=81 velocity=0 time=0@note_on channel=11 note=81 velocity=100 time=0@note_on channel=12 note=69 velocity=0 time=0@note_on channel=12 note=68 velocity=100 time=0@note_on channel=13 note=74 velocity=0 time=0@note_on channel=13 note=74 velocity=100 time=0@note_on channel=14 note=69 velocity=0 time=0@note_on channel=14 note=69 velocity=100 time=0@note_on channel=8 note=72 velocity=0 time=0.07936499999999999@note_on channel=8 note=71 velocity=100 time=0@note_on channel=11 note=81 velocity=0 time=0@note_on channel=11 note=80 velocity=100 time=0@note_on channel=14 note=69 velocity=0 time=0@note_on channel=14 note=68 velocity=100 time=0@note_on channel=8 note=71 velocity=0 time=0.07936499999999999@note_on channel=8 note=72 velocity=100 time=0@note_on channel=10 note=76 velocity=0 time=0@note_on channel=10 note=83 velocity=100 time=0@note_on channel=11 note=80 velocity=0 time=0@note_on channel=11 note=81 velocity=100 time=0@note_on channel=12 note=68 velocity=0 time=0@note_on channel=12 note=69 velocity=100 time=0@note_on channel=13 note=74 velocity=0 time=0@note_on channel=13 note=72 velocity=100 time=0@note_on channel=14 note=68 velocity=0 time=0@note_on channel=14 note=69 velocity=100 time=0@note_on channel=8 note=72 velocity=0 time=0.07936499999999999@note_on channel=8 note=71 velocity=100 time=0@note_on channel=11 note=81 velocity=0 time=0@note_on channel=11 note=80 velocity=100 time=0@note_on channel=14 note=69 velocity=0 time=0@note_on channel=14 note=68 velocity=100 time=0@note_on channel=10 note=83 velocity=0 time=0.07936499999999999@note_on channel=10 note=83 velocity=100 time=0@note_on channel=12 note=69 velocity=0 time=0@note_on channel=12 note=71 velocity=100 time=0@note_on channel=13 note=72 velocity=0 time=0@note_on channel=13 note=71 velocity=100 time=0@note_on channel=8 note=71 velocity=0 time=0.15872999999999998@note_on channel=8 note=69 velocity=100 time=0@note_on channel=10 note=83 velocity=0 time=0@note_on channel=10 note=83 velocity=100 time=0@note_on channel=11 note=80 velocity=0 time=0@note_on channel=11 note=78 velocity=100 time=0@note_on channel=13 note=71 velocity=0 time=0@note_on channel=13 note=69 velocity=100 time=0@note_on channel=14 note=68 velocity=0 time=0@note_on channel=14 note=66 velocity=100 time=0@note_on channel=8 note=69 velocity=0 time=0.15872999999999998@note_on channel=8 note=68 velocity=100 time=0@note_on channel=10 note=83 velocity=0 time=0@note_on channel=10 note=83 velocity=100 time=0@note_on channel=11 note=78 velocity=0 time=0@note_on channel=11 note=80 velocity=100 time=0@note_on channel=12 note=71 velocity=0 time=0@note_on channel=12 note=68 velocity=100 time=0@note_on channel=13 note=69 velocity=0 time=0@note_on channel=13 note=71 velocity=100 time=0@note_on channel=14 note=66 velocity=0 time=0@note_on channel=14 note=68 velocity=100 time=0@note_on channel=10 note=83 velocity=0 time=0.15872999999999998@note_on channel=10 note=83 velocity=100 time=0@note_on channel=13 note=71 velocity=0 time=0@note_on channel=13 note=68 velocity=100 time=0@note_on channel=1 note=38 velocity=0 time=0.15872999999999998@note_on channel=1 note=45 velocity=100 time=0@note_on channel=8 note=68 velocity=0 time=0@note_on channel=8 note=69 velocity=100 time=0@note_on channel=10 note=83 velocity=0 time=0@note_on channel=10 note=81 velocity=100 time=0@note_on channel=11 note=80 velocity=0 time=0@note_on channel=11 note=81 velocity=100 time=0@note_on channel=12 note=68 velocity=0 time=0@note_on channel=12 note=69 velocity=100 time=0@note_on channel=13 note=68 velocity=0 time=0@note_on channel=13 note=69 velocity=100 time=0@note_on channel=14 note=68 velocity=0 time=0@note_on channel=14 note=69 velocity=100 time=0@note_on channel=12 note=69 velocity=0 time=0.07936499999999999@note_on channel=12 note=68 velocity=100 time=0@note_on channel=12 note=68 velocity=0 time=0.07936499999999999@note_on channel=12 note=69 velocity=100 time=0@note_on channel=8 note=69 velocity=0 time=0.79365@note_on channel=8 note=69 velocity=100 time=0@note_on channel=10 note=81 velocity=0 time=0@note_on channel=10 note=81 velocity=100 time=0@note_on channel=11 note=81 velocity=0 time=0@note_on channel=11 note=81 velocity=100 time=0@note_on channel=12 note=69 velocity=0 time=0@note_on channel=12 note=69 velocity=100 time=0@note_on channel=13 note=69 velocity=0 time=0@note_on channel=13 note=69 velocity=100 time=0@note_on channel=14 note=69 velocity=0 time=0@note_on channel=14 note=69 velocity=100 time=0@note_on channel=1 note=45 velocity=0 time=0.9523799999999999@note_on channel=1 note=48 velocity=100 time=0@note_on channel=8 note=69 velocity=0 time=0@note_on channel=10 note=81 velocity=0 time=0@note_on channel=10 note=84 velocity=100 time=0@note_on channel=11 note=81 velocity=0 time=0@note_on channel=11 note=72 velocity=100 time=0@note_on channel=12 note=69 velocity=0 time=0@note_on channel=12 note=72 velocity=100 time=0@note_on channel=13 note=69 velocity=0 time=0@note_on channel=13 note=69 velocity=100 time=0@note_on channel=14 note=69 velocity=0 time=0@note_on channel=14 note=72 velocity=100 time=0@note_on channel=11 note=72 velocity=0 time=0.15872999999999998@note_on channel=11 note=76 velocity=100 time=0@note_on channel=13 note=69 velocity=0 time=0@note_on channel=13 note=71 velocity=100 time=0@note_on channel=14 note=72 velocity=0 time=0@note_on channel=14 note=71 velocity=100 time=0@note_on channel=11 note=76 velocity=0 time=0.15872999999999998@note_on channel=11 note=76 velocity=100 time=0@note_on channel=12 note=72 velocity=0 time=0@note_on channel=12 note=72 velocity=100 time=0@note_on channel=13 note=71 velocity=0 time=0@note_on channel=13 note=72 velocity=100 time=0@note_on channel=14 note=71 velocity=0 time=0@note_on channel=14 note=72 velocity=100 time=0@note_on channel=11 note=76 velocity=0 time=0.15872999999999998@note_on channel=11 note=76 velocity=100 time=0@note_on channel=14 note=72 velocity=0 time=0@note_on channel=14 note=74 velocity=100 time=0@note_on channel=10 note=84 velocity=0 time=0.15872999999999998@note_on channel=10 note=86 velocity=100 time=0@note_on channel=11 note=76 velocity=0 time=0@note_on channel=11 note=76 velocity=100 time=0@note_on channel=12 note=72 velocity=0 time=0@note_on channel=12 note=72 velocity=100 time=0@note_on channel=13 note=72 velocity=0 time=0@note_on channel=13 note=69 velocity=100 time=0@note_on channel=14 note=74 velocity=0 time=0@note_on channel=14 note=76 velocity=100 time=0@note_on channel=11 note=76 velocity=0 time=0.15872999999999998@note_on channel=11 note=76 velocity=100 time=0@note_on channel=14 note=76 velocity=0 time=0@note_on channel=14 note=74 velocity=100 time=0@note_on channel=1 note=48 velocity=0 time=0.15872999999999998@note_on channel=1 note=40 velocity=100 time=0@note_on channel=10 note=86 velocity=0 time=0@note_on channel=10 note=88 velocity=100 time=0@note_on channel=11 note=76 velocity=0 time=0@note_on channel=11 note=72 velocity=100 time=0@note_on channel=12 note=72 velocity=0 time=0@note_on channel=12 note=60 velocity=100 time=0@note_on channel=13 note=69 velocity=0 time=0@note_on channel=13 note=72 velocity=100 time=0@note_on channel=14 note=74 velocity=0 time=0@note_on channel=14 note=72 velocity=100 time=0@note_on channel=11 note=72 velocity=0 time=0.15872999999999998@note_on channel=11 note=76 velocity=100 time=0@note_on channel=13 note=72 velocity=0 time=0@note_on channel=13 note=74 velocity=100 time=0@note_on channel=14 note=72 velocity=0 time=0@note_on channel=14 note=71 velocity=100 time=0@note_on channel=11 note=76 velocity=0 time=0.15872999999999998@note_on channel=11 note=76 velocity=100 time=0@note_on channel=12 note=60 velocity=0 time=0@note_on channel=12 note=60 velocity=100 time=0@note_on channel=13 note=74 velocity=0 time=0@note_on channel=13 note=76 velocity=100 time=0@note_on channel=14 note=71 velocity=0 time=0@note_on channel=14 note=72 velocity=100 time=0@note_on channel=11 note=76 velocity=0 time=0.15872999999999998@note_on channel=11 note=76 velocity=100 time=0@note_on channel=14 note=72 velocity=0 time=0@note_on channel=14 note=74 velocity=100 time=0@note_on channel=10 note=88 velocity=0 time=0.15872999999999998@note_on channel=10 note=88 velocity=100 time=0@note_on channel=11 note=76 velocity=0 time=0@note_on channel=11 note=76 velocity=100 time=0@note_on channel=12 note=60 velocity=0 time=0@note_on channel=12 note=60 velocity=100 time=0@note_on channel=13 note=76 velocity=0 time=0@note_on channel=13 note=69 velocity=100 time=0@note_on channel=14 note=74 velocity=0 time=0@note_on channel=14 note=76 velocity=100 time=0@note_on channel=11 note=76 velocity=0 time=0.15872999999999998@note_on channel=11 note=76 velocity=100 time=0@note_on channel=14 note=76 velocity=0 time=0@note_on channel=14 note=74 velocity=100 time=0@note_on channel=1 note=40 velocity=0 time=0.15872999999999998@note_on channel=1 note=50 velocity=100 time=0@note_on channel=10 note=88 velocity=0 time=0@note_on channel=10 note=86 velocity=100 time=0@note_on channel=11 note=76 velocity=0 time=0@note_on channel=11 note=71 velocity=100 time=0@note_on channel=12 note=60 velocity=0 time=0@note_on channel=12 note=67 velocity=100 time=0@note_on channel=13 note=69 velocity=0 time=0@note_on channel=13 note=67 velocity=100 time=0@note_on channel=14 note=74 velocity=0 time=0@note_on channel=14 note=71 velocity=100 time=0@note_on channel=11 note=71 velocity=0 time=0.15872999999999998@note_on channel=11 note=74 velocity=100 time=0@note_on channel=13 note=67 velocity=0 time=0@note_on channel=13 note=69 velocity=100 time=0@note_on channel=14 note=71 velocity=0 time=0@note_on channel=14 note=69 velocity=100 time=0@note_on channel=11 note=74 velocity=0 time=0.15872999999999998@note_on channel=11 note=74 velocity=100 time=0@note_on channel=12 note=67 velocity=0 time=0@note_on channel=12 note=67 velocity=100 time=0@note_on channel=13 note=69 velocity=0 time=0@note_on channel=13 note=71 velocity=100 time=0@note_on channel=14 note=69 velocity=0 time=0@note_on channel=14 note=71 velocity=100 time=0@note_on channel=11 note=74 velocity=0 time=0.15872999999999998@note_on channel=11 note=74 velocity=100 time=0@note_on channel=14 note=71 velocity=0 time=0@note_on channel=14 note=72 velocity=100 time=0@note_on channel=10 note=86 velocity=0 time=0.15872999999999998@note_on channel=10 note=83 velocity=100 time=0@note_on channel=11 note=74 velocity=0 time=0@note_on channel=11 note=74 velocity=100 time=0@note_on channel=12 note=67 velocity=0 time=0@note_on channel=12 note=67 velocity=100 time=0@note_on channel=13 note=71 velocity=0 time=0@note_on channel=13 note=67 velocity=100 time=0@note_on channel=14 note=72 velocity=0 time=0@note_on channel=14 note=74 velocity=100 time=0@note_on channel=11 note=74 velocity=0 time=0.15872999999999998@note_on channel=11 note=74 velocity=100 time=0@note_on channel=14 note=74 velocity=0 time=0@note_on channel=14 note=72 velocity=100 time=0@note_on channel=1 note=50 velocity=0 time=0.15872999999999998@note_on channel=1 note=43 velocity=100 time=0@note_on channel=10 note=83 velocity=0 time=0@note_on channel=10 note=79 velocity=100 time=0@note_on channel=11 note=74 velocity=0 time=0@note_on channel=11 note=71 velocity=100 time=0@note_on channel=12 note=67 velocity=0 time=0@note_on channel=12 note=55 velocity=100 time=0@note_on channel=13 note=67 velocity=0 time=0@note_on channel=13 note=71 velocity=100 time=0@note_on channel=14 note=72 velocity=0 time=0@note_on channel=14 note=71 velocity=100 time=0@note_on channel=11 note=71 velocity=0 time=0.15872999999999998@note_on channel=11 note=74 velocity=100 time=0@note_on channel=13 note=71 velocity=0 time=0@note_on channel=13 note=72 velocity=100 time=0@note_on channel=14 note=71 velocity=0 time=0@note_on channel=14 note=69 velocity=100 time=0@note_on channel=11 note=74 velocity=0 time=0.15872999999999998@note_on channel=11 note=74 velocity=100 time=0@note_on channel=13 note=72 velocity=0 time=0@note_on channel=13 note=74 velocity=100 time=0@note_on channel=14 note=69 velocity=0 time=0@note_on channel=14 note=71 velocity=100 time=0@note_on channel=11 note=74 velocity=0 time=0.15872999999999998@note_on channel=11 note=74 velocity=100 time=0@note_on channel=12 note=55 velocity=0 time=0@note_on channel=12 note=57 velocity=100 time=0@note_on channel=14 note=71 velocity=0 time=0@note_on channel=14 note=72 velocity=100 time=0@note_on channel=11 note=74 velocity=0 time=0.15872999999999998@note_on channel=11 note=74 velocity=100 time=0@note_on channel=12 note=57 velocity=0 time=0@note_on channel=12 note=59 velocity=100 time=0@note_on channel=13 note=74 velocity=0 time=0@note_on channel=13 note=67 velocity=100 time=0@note_on channel=14 note=72 velocity=0 time=0@note_on channel=14 note=74 velocity=100 time=0@note_on channel=11 note=74 velocity=0 time=0.15872999999999998@note_on channel=11 note=74 velocity=100 time=0@note_on channel=14 note=74 velocity=0 time=0@note_on channel=14 note=72 velocity=100 time=0@note_on channel=1 note=43 velocity=0 time=0.15872999999999998@note_on channel=1 note=45 velocity=100 time=0@note_on channel=10 note=79 velocity=0 time=0@note_on channel=10 note=81 velocity=100 time=0@note_on channel=11 note=74 velocity=0 time=0@note_on channel=11 note=69 velocity=100 time=0@note_on channel=12 note=59 velocity=0 time=0@note_on channel=12 note=69 velocity=100 time=0@note_on channel=13 note=67 velocity=0 time=0@note_on channel=13 note=69 velocity=100 time=0@note_on channel=14 note=72 velocity=0 time=0@note_on channel=14 note=72 velocity=100 time=0@note_on channel=11 note=69 velocity=0 time=0.15872999999999998@note_on channel=11 note=72 velocity=100 time=0@note_on channel=13 note=69 velocity=0 time=0@note_on channel=13 note=71 velocity=100 time=0@note_on channel=14 note=72 velocity=0 time=0@note_on channel=14 note=71 velocity=100 time=0@note_on channel=11 note=72 velocity=0 time=0.15872999999999998@note_on channel=11 note=72 velocity=100 time=0@note_on channel=12 note=69 velocity=0 time=0@note_on channel=12 note=69 velocity=100 time=0@note_on channel=13 note=71 velocity=0 time=0@note_on channel=13 note=72 velocity=100 time=0@note_on channel=14 note=71 velocity=0 time=0@note_on channel=14 note=72 velocity=100 time=0@note_on channel=10 note=81 velocity=0 time=0.15872999999999998@note_on channel=10 note=83 velocity=100 time=0@note_on channel=11 note=72 velocity=0 time=0@note_on channel=11 note=72 velocity=100 time=0@note_on channel=14 note=72 velocity=0 time=0@note_on channel=14 note=74 velocity=100 time=0@note_on channel=10 note=83 velocity=0 time=0.15872999999999998@note_on channel=10 note=84 velocity=100 time=0@note_on channel=11 note=72 velocity=0 time=0@note_on channel=11 note=72 velocity=100 time=0@note_on channel=12 note=69 velocity=0 time=0@note_on channel=12 note=69 velocity=100 time=0@note_on channel=13 note=72 velocity=0 time=0@note_on channel=13 note=69 velocity=100 time=0@note_on channel=14 note=74 velocity=0 time=0@note_on channel=14 note=72 velocity=100 time=0@note_on channel=11 note=72 velocity=0 time=0.15872999999999998@note_on channel=11 note=72 velocity=100 time=0@note_on channel=14 note=72 velocity=0 time=0@note_on channel=14 note=71 velocity=100 time=0@note_on channel=1 note=45 velocity=0 time=0.15872999999999998@note_on channel=1 note=38 velocity=100 time=0@note_on channel=10 note=84 velocity=0 time=0@note_on channel=10 note=86 velocity=100 time=0@note_on channel=11 note=72 velocity=0 time=0@note_on channel=11 note=69 velocity=100 time=0@note_on channel=12 note=69 velocity=0 time=0@note_on channel=12 note=57 velocity=100 time=0@note_on channel=13 note=69 velocity=0 time=0@note_on channel=13 note=72 velocity=100 time=0@note_on channel=14 note=71 velocity=0 time=0@note_on channel=14 note=69 velocity=100 time=0@note_on channel=11 note=69 velocity=0 time=0.15872999999999998@note_on channel=11 note=72 velocity=100 time=0@note_on channel=13 note=72 velocity=0 time=0@note_on channel=13 note=74 velocity=100 time=0@note_on channel=14 note=69 velocity=0 time=0@note_on channel=14 note=68 velocity=100 time=0@note_on channel=10 note=86 velocity=0 time=0.15872999999999998@note_on channel=10 note=88 velocity=100 time=0@note_on channel=11 note=72 velocity=0 time=0@note_on channel=11 note=72 velocity=100 time=0@note_on channel=13 note=74 velocity=0 time=0@note_on channel=13 note=76 velocity=100 time=0@note_on channel=14 note=68 velocity=0 time=0@note_on channel=14 note=69 velocity=100 time=0@note_on channel=11 note=72 velocity=0 time=0.15872999999999998@note_on channel=11 note=72 velocity=100 time=0@note_on channel=12 note=57 velocity=0 time=0@note_on channel=12 note=59 velocity=100 time=0@note_on channel=14 note=69 velocity=0 time=0@note_on channel=14 note=71 velocity=100 time=0@note_on channel=10 note=88 velocity=0 time=0.15872999999999998@note_on channel=10 note=84 velocity=100 time=0@note_on channel=11 note=72 velocity=0 time=0@note_on channel=11 note=72 velocity=100 time=0@note_on channel=12 note=59 velocity=0 time=0@note_on channel=12 note=60 velocity=100 time=0@note_on channel=13 note=76 velocity=0 time=0@note_on channel=13 note=69 velocity=100 time=0@note_on channel=14 note=71 velocity=0 time=0@note_on channel=14 note=72 velocity=100 time=0@note_on channel=11 note=72 velocity=0 time=0.15872999999999998@note_on channel=11 note=72 velocity=100 time=0@note_on channel=12 note=60 velocity=0 time=0@note_on channel=12 note=62 velocity=100 time=0@note_on channel=14 note=72 velocity=0 time=0@note_on channel=14 note=69 velocity=100 time=0@note_on channel=1 note=38 velocity=0 time=0.15872999999999998@note_on channel=1 note=47 velocity=100 time=0@note_on channel=10 note=84 velocity=0 time=0@note_on channel=10 note=83 velocity=100 time=0@note_on channel=11 note=72 velocity=0 time=0@note_on channel=11 note=68 velocity=100 time=0@note_on channel=12 note=62 velocity=0 time=0@note_on channel=12 note=64 velocity=100 time=0@note_on channel=13 note=69 velocity=0 time=0@note_on channel=13 note=64 velocity=100 time=0@note_on channel=14 note=69 velocity=0 time=0@note_on channel=14 note=71 velocity=100 time=0@note_on channel=11 note=68 velocity=0 time=0.15872999999999998@note_on channel=11 note=71 velocity=100 time=0@note_on channel=13 note=64 velocity=0 time=0@note_on channel=13 note=66 velocity=100 time=0@note_on channel=14 note=71 velocity=0 time=0@note_on channel=14 note=69 velocity=100 time=0@note_on channel=11 note=71 velocity=0 time=0.15872999999999998@note_on channel=11 note=71 velocity=100 time=0@note_on channel=12 note=64 velocity=0 time=0@note_on channel=12 note=64 velocity=100 time=0@note_on channel=13 note=66 velocity=0 time=0@note_on channel=13 note=68 velocity=100 time=0@note_on channel=14 note=69 velocity=0 time=0@note_on channel=14 note=71 velocity=100 time=0@note_on channel=11 note=71 velocity=0 time=0.15872999999999998@note_on channel=11 note=71 velocity=100 time=0@note_on channel=14 note=71 velocity=0 time=0@note_on channel=14 note=69 velocity=100 time=0@note_on channel=10 note=83 velocity=0 time=0.15872999999999998@note_on channel=10 note=80 velocity=100 time=0@note_on channel=11 note=71 velocity=0 time=0@note_on channel=11 note=71 velocity=100 time=0@note_on channel=12 note=64 velocity=0 time=0@note_on channel=12 note=64 velocity=100 time=0@note_on channel=13 note=68 velocity=0 time=0@note_on channel=13 note=64 velocity=100 time=0@note_on channel=14 note=69 velocity=0 time=0@note_on channel=14 note=68 velocity=100 time=0@note_on channel=11 note=71 velocity=0 time=0.15872999999999998@note_on channel=11 note=71 velocity=100 time=0@note_on channel=14 note=68 velocity=0 time=0@note_on channel=14 note=66 velocity=100 time=0@note_on channel=1 note=47 velocity=0 time=0.15872999999999998@note_on channel=1 note=40 velocity=100 time=0@note_on channel=10 note=80 velocity=0 time=0@note_on channel=10 note=76 velocity=100 time=0@note_on channel=11 note=71 velocity=0 time=0@note_on channel=11 note=64 velocity=100 time=0@note_on channel=12 note=64 velocity=0 time=0@note_on channel=12 note=56 velocity=100 time=0@note_on channel=13 note=64 velocity=0 time=0@note_on channel=13 note=68 velocity=100 time=0@note_on channel=14 note=66 velocity=0 time=0@note_on channel=14 note=64 velocity=100 time=0@note_on channel=12 note=56 velocity=0 time=0.07936499999999999@note_on channel=12 note=57 velocity=100 time=0@note_on channel=11 note=64 velocity=0 time=0.07936499999999999@note_on channel=11 note=71 velocity=100 time=0@note_on channel=12 note=57 velocity=0 time=0@note_on channel=12 note=56 velocity=100 time=0@note_on channel=13 note=68 velocity=0 time=0@note_on channel=13 note=69 velocity=100 time=0@note_on channel=14 note=64 velocity=0 time=0@note_on channel=14 note=66 velocity=100 time=0@note_on channel=11 note=71 velocity=0 time=0.15872999999999998@note_on channel=11 note=71 velocity=100 time=0@note_on channel=12 note=56 velocity=0 time=0@note_on channel=12 note=52 velocity=100 time=0@note_on channel=13 note=69 velocity=0 time=0@note_on channel=13 note=71 velocity=100 time=0@note_on channel=14 note=66 velocity=0 time=0@note_on channel=14 note=68 velocity=100 time=0@note_on channel=11 note=71 velocity=0 time=0.15872999999999998@note_on channel=11 note=71 velocity=100 time=0@note_on channel=14 note=68 velocity=0 time=0@note_on channel=14 note=69 velocity=100 time=0@note_on channel=11 note=71 velocity=0 time=0.15872999999999998@note_on channel=11 note=71 velocity=100 time=0@note_on channel=12 note=52 velocity=0 time=0@note_on channel=12 note=52 velocity=100 time=0@note_on channel=13 note=71 velocity=0 time=0@note_on channel=13 note=64 velocity=100 time=0@note_on channel=14 note=69 velocity=0 time=0@note_on channel=14 note=68 velocity=100 time=0@note_on channel=11 note=71 velocity=0 time=0.15872999999999998@note_on channel=11 note=71 velocity=100 time=0@note_on channel=14 note=68 velocity=0 time=0@note_on channel=14 note=64 velocity=100 time=0@note_on channel=1 note=40 velocity=0 time=0.15872999999999998@note_on channel=1 note=48 velocity=100 time=0@note_on channel=10 note=76 velocity=0 time=0@note_on channel=10 note=84 velocity=100 time=0@note_on channel=11 note=71 velocity=0 time=0@note_on channel=11 note=76 velocity=100 time=0@note_on channel=12 note=52 velocity=0 time=0@note_on channel=12 note=72 velocity=100 time=0@note_on channel=13 note=64 velocity=0 time=0@note_on channel=13 note=72 velocity=100 time=0@note_on channel=14 note=64 velocity=0 time=0@note_on channel=14 note=72 velocity=100 time=0@note_on channel=11 note=76 velocity=0 time=0.15872999999999998@note_on channel=11 note=79 velocity=100 time=0@note_on channel=13 note=72 velocity=0 time=0@note_on channel=13 note=74 velocity=100 time=0@note_on channel=14 note=72 velocity=0 time=0@note_on channel=14 note=71 velocity=100 time=0@note_on channel=11 note=79 velocity=0 time=0.15872999999999998@note_on channel=11 note=79 velocity=100 time=0@note_on channel=12 note=72 velocity=0 time=0@note_on channel=12 note=72 velocity=100 time=0@note_on channel=13 note=74 velocity=0 time=0@note_on channel=13 note=76 velocity=100 time=0@note_on channel=14 note=71 velocity=0 time=0@note_on channel=14 note=72 velocity=100 time=0@note_on channel=11 note=79 velocity=0 time=0.15872999999999998@note_on channel=11 note=79 velocity=100 time=0@note_on channel=14 note=72 velocity=0 time=0@note_on channel=14 note=74 velocity=100 time=0@note_on channel=10 note=84 velocity=0 time=0.15872999999999998@note_on channel=10 note=86 velocity=100 time=0@note_on channel=11 note=79 velocity=0 time=0@note_on channel=11 note=79 velocity=100 time=0@note_on channel=12 note=72 velocity=0 time=0@note_on channel=12 note=72 velocity=100 time=0@note_on channel=13 note=76 velocity=0 time=0@note_on channel=13 note=72 velocity=100 time=0@note_on channel=14 note=74 velocity=0 time=0@note_on channel=14 note=76 velocity=100 time=0@note_on channel=11 note=79 velocity=0 time=0.15872999999999998@note_on channel=11 note=79 velocity=100 time=0@note_on channel=14 note=76 velocity=0 time=0@note_on channel=14 note=74 velocity=100 time=0@note_on channel=1 note=48 velocity=0 time=0.15872999999999998@note_on channel=1 note=40 velocity=100 time=0@note_on channel=10 note=86 velocity=0 time=0@note_on channel=10 note=88 velocity=100 time=0@note_on channel=11 note=79 velocity=0 time=0@note_on channel=11 note=72 velocity=100 time=0@note_on channel=12 note=72 velocity=0 time=0@note_on channel=12 note=60 velocity=100 time=0@note_on channel=13 note=72 velocity=0 time=0@note_on channel=13 note=76 velocity=100 time=0@note_on channel=14 note=74 velocity=0 time=0@note_on channel=14 note=72 velocity=100 time=0@note_on channel=11 note=72 velocity=0 time=0.15872999999999998@note_on channel=11 note=79 velocity=100 time=0@note_on channel=13 note=76 velocity=0 time=0@note_on channel=13 note=77 velocity=100 time=0@note_on channel=14 note=72 velocity=0 time=0@note_on channel=14 note=71 velocity=100 time=0@note_on channel=11 note=79 velocity=0 time=0.15872999999999998@note_on channel=11 note=79 velocity=100 time=0@note_on channel=13 note=77 velocity=0 time=0@note_on channel=13 note=79 velocity=100 time=0@note_on channel=14 note=71 velocity=0 time=0@note_on channel=14 note=72 velocity=100 time=0@note_on channel=10 note=88 velocity=0 time=0.15872999999999998@note_on channel=10 note=86 velocity=100 time=0@note_on channel=11 note=79 velocity=0 time=0@note_on channel=11 note=79 velocity=100 time=0@note_on channel=12 note=60 velocity=0 time=0@note_on channel=12 note=62 velocity=100 time=0@note_on channel=14 note=72 velocity=0 time=0@note_on channel=14 note=74 velocity=100 time=0@note_on channel=10 note=86 velocity=0 time=0.15872999999999998@note_on channel=10 note=84 velocity=100 time=0@note_on channel=11 note=79 velocity=0 time=0@note_on channel=11 note=79 velocity=100 time=0@note_on channel=12 note=62 velocity=0 time=0@note_on channel=12 note=64 velocity=100 time=0@note_on channel=13 note=79 velocity=0 time=0@note_on channel=13 note=72 velocity=100 time=0@note_on channel=14 note=74 velocity=0 time=0@note_on channel=14 note=76 velocity=100 time=0@note_on channel=11 note=79 velocity=0 time=0.15872999999999998@note_on channel=11 note=79 velocity=100 time=0@note_on channel=12 note=64 velocity=0 time=0@note_on channel=12 note=65 velocity=100 time=0@note_on channel=14 note=76 velocity=0 time=0@note_on channel=14 note=74 velocity=100 time=0@note_on channel=1 note=40 velocity=0 time=0.15872999999999998@note_on channel=1 note=50 velocity=100 time=0@note_on channel=10 note=84 velocity=0 time=0@note_on channel=10 note=86 velocity=100 time=0@note_on channel=11 note=79 velocity=0 time=0@note_on channel=11 note=71 velocity=100 time=0@note_on channel=12 note=65 velocity=0 time=0@note_on channel=12 note=67 velocity=100 time=0@note_on channel=13 note=72 velocity=0 time=0@note_on channel=13 note=67 velocity=100 time=0@note_on channel=14 note=74 velocity=0 time=0@note_on channel=14 note=74 velocity=100 time=0@note_on channel=11 note=71 velocity=0 time=0.15872999999999998@note_on channel=11 note=74 velocity=100 time=0@note_on channel=13 note=67 velocity=0 time=0@note_on channel=13 note=69 velocity=100 time=0@note_on channel=14 note=74 velocity=0 time=0@note_on channel=14 note=72 velocity=100 time=0@note_on channel=11 note=74 velocity=0 time=0.15872999999999998@note_on channel=11 note=74 velocity=100 time=0@note_on channel=12 note=67 velocity=0 time=0@note_on channel=12 note=67 velocity=100 time=0@note_on channel=13 note=69 velocity=0 time=0@note_on channel=13 note=71 velocity=100 time=0@note_on channel=14 note=72 velocity=0 time=0@note_on channel=14 note=74 velocity=100 time=0@note_on channel=11 note=74 velocity=0 time=0.15872999999999998@note_on channel=11 note=74 velocity=100 time=0@note_on channel=14 note=74 velocity=0 time=0@note_on channel=14 note=76 velocity=100 time=0@note_on channel=10 note=86 velocity=0 time=0.15872999999999998@note_on channel=10 note=83 velocity=100 time=0@note_on channel=11 note=74 velocity=0 time=0@note_on channel=11 note=74 velocity=100 time=0@note_on channel=12 note=67 velocity=0 time=0@note_on channel=12 note=69 velocity=100 time=0@note_on channel=13 note=71 velocity=0 time=0@note_on channel=13 note=67 velocity=100 time=0@note_on channel=14 note=76 velocity=0 time=0@note_on channel=14 note=74 velocity=100 time=0@note_on channel=11 note=74 velocity=0 time=0.15872999999999998@note_on channel=11 note=74 velocity=100 time=0@note_on channel=14 note=74 velocity=0 time=0@note_on channel=14 note=72 velocity=100 time=0@note_on channel=1 note=50 velocity=0 time=0.15872999999999998@note_on channel=1 note=43 velocity=100 time=0@note_on channel=10 note=83 velocity=0 time=0@note_on channel=10 note=79 velocity=100 time=0@note_on channel=11 note=74 velocity=0 time=0@note_on channel=11 note=67 velocity=100 time=0@note_on channel=12 note=69 velocity=0 time=0@note_on channel=12 note=72 velocity=100 time=0@note_on channel=13 note=67 velocity=0 time=0@note_on channel=13 note=71 velocity=100 time=0@note_on channel=14 note=72 velocity=0 time=0@note_on channel=14 note=71 velocity=100 time=0@note_on channel=12 note=72 velocity=0 time=0.07936499999999999@note_on channel=12 note=71 velocity=100 time=0@note_on channel=11 note=67 velocity=0 time=0.07936499999999999@note_on channel=11 note=74 velocity=100 time=0@note_on channel=12 note=71 velocity=0 time=0@note_on channel=12 note=72 velocity=100 time=0@note_on channel=13 note=71 velocity=0 time=0@note_on channel=13 note=72 velocity=100 time=0@note_on channel=14 note=71 velocity=0 time=0@note_on channel=14 note=69 velocity=100 time=0@note_on channel=12 note=72 velocity=0 time=0.07936499999999999@note_on channel=12 note=71 velocity=100 time=0@note_on channel=11 note=74 velocity=0 time=0.07936499999999999@note_on channel=11 note=74 velocity=100 time=0@note_on channel=13 note=72 velocity=0 time=0@note_on channel=13 note=74 velocity=100 time=0@note_on channel=14 note=69 velocity=0 time=0@note_on channel=14 note=71 velocity=100 time=0@note_on channel=10 note=79 velocity=0 time=0.15872999999999998@note_on channel=10 note=81 velocity=100 time=0@note_on channel=11 note=74 velocity=0 time=0@note_on channel=11 note=74 velocity=100 time=0@note_on channel=12 note=71 velocity=0 time=0@note_on channel=12 note=69 velocity=100 time=0@note_on channel=14 note=71 velocity=0 time=0@note_on channel=14 note=72 velocity=100 time=0@note_on channel=10 note=81 velocity=0 time=0.15872999999999998@note_on channel=10 note=83 velocity=100 time=0@note_on channel=11 note=74 velocity=0 time=0@note_on channel=11 note=74 velocity=100 time=0@note_on channel=12 note=69 velocity=0 time=0@note_on channel=12 note=67 velocity=100 time=0@note_on channel=13 note=74 velocity=0 time=0@note_on channel=13 note=67 velocity=100 time=0@note_on channel=14 note=72 velocity=0 time=0@note_on channel=14 note=74 velocity=100 time=0@note_on channel=11 note=74 velocity=0 time=0.15872999999999998@note_on channel=11 note=74 velocity=100 time=0@note_on channel=14 note=74 velocity=0 time=0@note_on channel=14 note=72 velocity=100 time=0@note_on channel=1 note=43 velocity=0 time=0.15872999999999998@note_on channel=1 note=45 velocity=100 time=0@note_on channel=10 note=83 velocity=0 time=0@note_on channel=10 note=84 velocity=100 time=0@note_on channel=11 note=74 velocity=0 time=0@note_on channel=11 note=69 velocity=100 time=0@note_on channel=12 note=67 velocity=0 time=0@note_on channel=12 note=72 velocity=100 time=0@note_on channel=13 note=67 velocity=0 time=0@note_on channel=13 note=81 velocity=100 time=0@note_on channel=14 note=72 velocity=0 time=0@note_on channel=14 note=72 velocity=100 time=0@note_on channel=11 note=69 velocity=0 time=0.15872999999999998@note_on channel=11 note=72 velocity=100 time=0@note_on channel=13 note=81 velocity=0 time=0@note_on channel=13 note=83 velocity=100 time=0@note_on channel=14 note=72 velocity=0 time=0@note_on channel=14 note=71 velocity=100 time=0@note_on channel=11 note=72 velocity=0 time=0.15872999999999998@note_on channel=11 note=72 velocity=100 time=0@note_on channel=12 note=72 velocity=0 time=0@note_on channel=12 note=71 velocity=100 time=0@note_on channel=13 note=83 velocity=0 time=0@note_on channel=13 note=84 velocity=100 time=0@note_on channel=14 note=71 velocity=0 time=0@note_on channel=14 note=72 velocity=100 time=0@note_on channel=10 note=84 velocity=0 time=0.15872999999999998@note_on channel=10 note=83 velocity=100 time=0@note_on channel=11 note=72 velocity=0 time=0@note_on channel=11 note=72 velocity=100 time=0@note_on channel=14 note=72 velocity=0 time=0@note_on channel=14 note=74 velocity=100 time=0@note_on channel=10 note=83 velocity=0 time=0.15872999999999998@note_on channel=10 note=81 velocity=100 time=0@note_on channel=11 note=72 velocity=0 time=0@note_on channel=11 note=72 velocity=100 time=0@note_on channel=12 note=71 velocity=0 time=0@note_on channel=12 note=69 velocity=100 time=0@note_on channel=13 note=84 velocity=0 time=0@note_on channel=13 note=81 velocity=100 time=0@note_on channel=14 note=74 velocity=0 time=0@note_on channel=14 note=76 velocity=100 time=0@note_on channel=11 note=72 velocity=0 time=0.15872999999999998@note_on channel=11 note=72 velocity=100 time=0@note_on channel=14 note=76 velocity=0 time=0@note_on channel=14 note=74 velocity=100 time=0@note_on channel=1 note=45 velocity=0 time=0.15872999999999998@note_on channel=1 note=38 velocity=100 time=0@note_on channel=10 note=81 velocity=0 time=0@note_on channel=10 note=84 velocity=100 time=0@note_on channel=11 note=72 velocity=0 time=0@note_on channel=11 note=64 velocity=100 time=0@note_on channel=12 note=69 velocity=0 time=0@note_on channel=12 note=69 velocity=100 time=0@note_on channel=13 note=81 velocity=0 time=0@note_on channel=13 note=80 velocity=100 time=0@note_on channel=14 note=74 velocity=0 time=0@note_on channel=14 note=74 velocity=100 time=0@note_on channel=10 note=84 velocity=0 time=0.07936499999999999@note_on channel=10 note=83 velocity=100 time=0@note_on channel=12 note=69 velocity=0 time=0@note_on channel=12 note=68 velocity=100 time=0@note_on channel=10 note=83 velocity=0 time=0.07936499999999999@note_on channel=10 note=84 velocity=100 time=0@note_on channel=11 note=64 velocity=0 time=0@note_on channel=11 note=71 velocity=100 time=0@note_on channel=12 note=68 velocity=0 time=0@note_on channel=12 note=69 velocity=100 time=0@note_on channel=13 note=80 velocity=0 time=0@note_on channel=13 note=81 velocity=100 time=0@note_on channel=14 note=74 velocity=0 time=0@note_on channel=14 note=72 velocity=100 time=0@note_on channel=10 note=84 velocity=0 time=0.07936499999999999@note_on channel=10 note=83 velocity=100 time=0@note_on channel=12 note=69 velocity=0 time=0@note_on channel=12 note=68 velocity=100 time=0@note_on channel=11 note=71 velocity=0 time=0.07936499999999999@note_on channel=11 note=71 velocity=100 time=0@note_on channel=13 note=81 velocity=0 time=0@note_on channel=13 note=83 velocity=100 time=0@note_on channel=14 note=72 velocity=0 time=0@note_on channel=14 note=71 velocity=100 time=0@note_on channel=10 note=83 velocity=0 time=0.15872999999999998@note_on channel=10 note=81 velocity=100 time=0@note_on channel=11 note=71 velocity=0 time=0@note_on channel=11 note=71 velocity=100 time=0@note_on channel=12 note=68 velocity=0 time=0@note_on channel=12 note=66 velocity=100 time=0@note_on channel=14 note=71 velocity=0 time=0@note_on channel=14 note=69 velocity=100 time=0@note_on channel=10 note=81 velocity=0 time=0.15872999999999998@note_on channel=10 note=80 velocity=100 time=0@note_on channel=11 note=71 velocity=0 time=0@note_on channel=11 note=71 velocity=100 time=0@note_on channel=12 note=66 velocity=0 time=0@note_on channel=12 note=68 velocity=100 time=0@note_on channel=13 note=83 velocity=0 time=0@note_on channel=13 note=80 velocity=100 time=0@note_on channel=14 note=69 velocity=0 time=0@note_on channel=14 note=71 velocity=100 time=0@note_on channel=11 note=71 velocity=0 time=0.15872999999999998@note_on channel=11 note=71 velocity=100 time=0@note_on channel=14 note=71 velocity=0 time=0@note_on channel=14 note=68 velocity=100 time=0@note_on channel=1 note=38 velocity=0 time=0.15872999999999998@note_on channel=1 note=45 velocity=100 time=0@note_on channel=10 note=80 velocity=0 time=0@note_on channel=10 note=81 velocity=100 time=0@note_on channel=11 note=71 velocity=0 time=0@note_on channel=11 note=69 velocity=100 time=0@note_on channel=12 note=68 velocity=0 time=0@note_on channel=12 note=69 velocity=100 time=0@note_on channel=13 note=80 velocity=0 time=0@note_on channel=13 note=81 velocity=100 time=0@note_on channel=14 note=68 velocity=0 time=0@note_on channel=14 note=69 velocity=100 time=0@note_on channel=13 note=81 velocity=0 time=0.07936499999999999@note_on channel=13 note=80 velocity=100 time=0@note_on channel=13 note=80 velocity=0 time=0.07936499999999999@note_on channel=13 note=81 velocity=100 time=0@note_on channel=10 note=81 velocity=0 time=0.79365@note_on channel=10 note=81 velocity=100 time=0@note_on channel=11 note=69 velocity=0 time=0@note_on channel=11 note=69 velocity=100 time=0@note_on channel=12 note=69 velocity=0 time=0@note_on channel=12 note=69 velocity=100 time=0@note_on channel=13 note=81 velocity=0 time=0@note_on channel=13 note=81 velocity=100 time=0@note_on channel=14 note=69 velocity=0 time=0@note_on channel=14 note=69 velocity=100 time=0@note_on channel=1 note=45 velocity=0 time=0.9523799999999999@note_on channel=1 note=48 velocity=100 time=0@note_on channel=10 note=81 velocity=0 time=0@note_on channel=11 note=69 velocity=0 time=0@note_on channel=11 note=72 velocity=100 time=0@note_on channel=12 note=69 velocity=0 time=0@note_on channel=12 note=60 velocity=100 time=0@note_on channel=13 note=81 velocity=0 time=0@note_on channel=13 note=84 velocity=100 time=0@note_on channel=14 note=69 velocity=0 time=0@note_on channel=14 note=69 velocity=100 time=0@note_on channel=12 note=60 velocity=0 time=0.15872999999999998@note_on channel=12 note=64 velocity=100 time=0@note_on channel=14 note=69 velocity=0 time=0@note_on channel=14 note=71 velocity=100 time=0@note_on channel=12 note=64 velocity=0 time=0.15872999999999998@note_on channel=12 note=64 velocity=100 time=0@note_on channel=13 note=84 velocity=0 time=0@note_on channel=13 note=84 velocity=100 time=0@note_on channel=14 note=71 velocity=0 time=0@note_on channel=14 note=72 velocity=100 time=0@note_on channel=12 note=64 velocity=0 time=0.15872999999999998@note_on channel=12 note=64 velocity=100 time=0@note_on channel=11 note=72 velocity=0 time=0.15872999999999998@note_on channel=11 note=74 velocity=100 time=0@note_on channel=12 note=64 velocity=0 time=0@note_on channel=12 note=64 velocity=100 time=0@note_on channel=13 note=84 velocity=0 time=0@note_on channel=13 note=84 velocity=100 time=0@note_on channel=14 note=72 velocity=0 time=0@note_on channel=14 note=69 velocity=100 time=0@note_on channel=12 note=64 velocity=0 time=0.15872999999999998@note_on channel=12 note=64 velocity=100 time=0@note_on channel=1 note=48 velocity=0 time=0.15872999999999998@note_on channel=1 note=40 velocity=100 time=0@note_on channel=11 note=74 velocity=0 time=0@note_on channel=11 note=76 velocity=100 time=0@note_on channel=12 note=64 velocity=0 time=0@note_on channel=12 note=60 velocity=100 time=0@note_on channel=13 note=84 velocity=0 time=0@note_on channel=13 note=72 velocity=100 time=0@note_on channel=14 note=69 velocity=0 time=0@note_on channel=14 note=72 velocity=100 time=0@note_on channel=12 note=60 velocity=0 time=0.15872999999999998@note_on channel=12 note=64 velocity=100 time=0@note_on channel=14 note=72 velocity=0 time=0@note_on channel=14 note=74 velocity=100 time=0@note_on channel=12 note=64 velocity=0 time=0.15872999999999998@note_on channel=12 note=64 velocity=100 time=0@note_on channel=13 note=72 velocity=0 time=0@note_on channel=13 note=72 velocity=100 time=0@note_on channel=14 note=74 velocity=0 time=0@note_on channel=14 note=76 velocity=100 time=0@note_on channel=12 note=64 velocity=0 time=0.15872999999999998@note_on channel=12 note=64 velocity=100 time=0@note_on channel=11 note=76 velocity=0 time=0.15872999999999998@note_on channel=11 note=76 velocity=100 time=0@note_on channel=12 note=64 velocity=0 time=0@note_on channel=12 note=64 velocity=100 time=0@note_on channel=13 note=72 velocity=0 time=0@note_on channel=13 note=72 velocity=100 time=0@note_on channel=14 note=76 velocity=0 time=0@note_on channel=14 note=69 velocity=100 time=0@note_on channel=12 note=64 velocity=0 time=0.15872999999999998@note_on channel=12 note=64 velocity=100 time=0@note_on channel=1 note=40 velocity=0 time=0.15872999999999998@note_on channel=1 note=50 velocity=100 time=0@note_on channel=11 note=76 velocity=0 time=0@note_on channel=11 note=74 velocity=100 time=0@note_on channel=12 note=64 velocity=0 time=0@note_on channel=12 note=59 velocity=100 time=0@note_on channel=13 note=72 velocity=0 time=0@note_on channel=13 note=79 velocity=100 time=0@note_on channel=14 note=69 velocity=0 time=0@note_on channel=14 note=67 velocity=100 time=0@note_on channel=12 note=59 velocity=0 time=0.15872999999999998@note_on channel=12 note=62 velocity=100 time=0@note_on channel=14 note=67 velocity=0 time=0@note_on channel=14 note=69 velocity=100 time=0@note_on channel=12 note=62 velocity=0 time=0.15872999999999998@note_on channel=12 note=62 velocity=100 time=0@note_on channel=13 note=79 velocity=0 time=0@note_on channel=13 note=79 velocity=100 time=0@note_on channel=14 note=69 velocity=0 time=0@note_on channel=14 note=71 velocity=100 time=0@note_on channel=12 note=62 velocity=0 time=0.15872999999999998@note_on channel=12 note=62 velocity=100 time=0@note_on channel=11 note=74 velocity=0 time=0.15872999999999998@note_on channel=11 note=71 velocity=100 time=0@note_on channel=12 note=62 velocity=0 time=0@note_on channel=12 note=62 velocity=100 time=0@note_on channel=13 note=79 velocity=0 time=0@note_on channel=13 note=79 velocity=100 time=0@note_on channel=14 note=71 velocity=0 time=0@note_on channel=14 note=67 velocity=100 time=0@note_on channel=12 note=62 velocity=0 time=0.15872999999999998@note_on channel=12 note=62 velocity=100 time=0@note_on channel=1 note=50 velocity=0 time=0.15872999999999998@note_on channel=1 note=43 velocity=100 time=0@note_on channel=11 note=71 velocity=0 time=0@note_on channel=11 note=67 velocity=100 time=0@note_on channel=12 note=62 velocity=0 time=0@note_on channel=12 note=59 velocity=100 time=0@note_on channel=13 note=79 velocity=0 time=0@note_on channel=13 note=67 velocity=100 time=0@note_on channel=14 note=67 velocity=0 time=0@note_on channel=14 note=71 velocity=100 time=0@note_on channel=12 note=59 velocity=0 time=0.15872999999999998@note_on channel=12 note=62 velocity=100 time=0@note_on channel=14 note=71 velocity=0 time=0@note_on channel=14 note=72 velocity=100 time=0@note_on channel=12 note=62 velocity=0 time=0.15872999999999998@note_on channel=12 note=62 velocity=100 time=0@note_on channel=14 note=72 velocity=0 time=0@note_on channel=14 note=74 velocity=100 time=0@note_on channel=12 note=62 velocity=0 time=0.15872999999999998@note_on channel=12 note=62 velocity=100 time=0@note_on channel=13 note=67 velocity=0 time=0@note_on channel=13 note=69 velocity=100 time=0@note_on channel=12 note=62 velocity=0 time=0.15872999999999998@note_on channel=12 note=62 velocity=100 time=0@note_on channel=13 note=69 velocity=0 time=0@note_on channel=13 note=71 velocity=100 time=0@note_on channel=14 note=74 velocity=0 time=0@note_on channel=14 note=67 velocity=100 time=0@note_on channel=12 note=62 velocity=0 time=0.15872999999999998@note_on channel=12 note=62 velocity=100 time=0@note_on channel=1 note=43 velocity=0 time=0.15872999999999998@note_on channel=1 note=45 velocity=100 time=0@note_on channel=11 note=67 velocity=0 time=0@note_on channel=11 note=69 velocity=100 time=0@note_on channel=12 note=62 velocity=0 time=0@note_on channel=12 note=57 velocity=100 time=0@note_on channel=13 note=71 velocity=0 time=0@note_on channel=13 note=81 velocity=100 time=0@note_on channel=14 note=67 velocity=0 time=0@note_on channel=14 note=69 velocity=100 time=0@note_on channel=12 note=57 velocity=0 time=0.15872999999999998@note_on channel=12 note=60 velocity=100 time=0@note_on channel=14 note=69 velocity=0 time=0@note_on channel=14 note=71 velocity=100 time=0@note_on channel=12 note=60 velocity=0 time=0.15872999999999998@note_on channel=12 note=60 velocity=100 time=0@note_on channel=13 note=81 velocity=0 time=0@note_on channel=13 note=81 velocity=100 time=0@note_on channel=14 note=71 velocity=0 time=0@note_on channel=14 note=72 velocity=100 time=0@note_on channel=11 note=69 velocity=0 time=0.15872999999999998@note_on channel=11 note=71 velocity=100 time=0@note_on channel=12 note=60 velocity=0 time=0@note_on channel=12 note=60 velocity=100 time=0@note_on channel=11 note=71 velocity=0 time=0.15872999999999998@note_on channel=11 note=72 velocity=100 time=0@note_on channel=12 note=60 velocity=0 time=0@note_on channel=12 note=60 velocity=100 time=0@note_on channel=13 note=81 velocity=0 time=0@note_on channel=13 note=81 velocity=100 time=0@note_on channel=14 note=72 velocity=0 time=0@note_on channel=14 note=69 velocity=100 time=0@note_on channel=12 note=60 velocity=0 time=0.15872999999999998@note_on channel=12 note=60 velocity=100 time=0@note_on channel=1 note=45 velocity=0 time=0.15872999999999998@note_on channel=1 note=38 velocity=100 time=0@note_on channel=11 note=72 velocity=0 time=0@note_on channel=11 note=74 velocity=100 time=0@note_on channel=12 note=60 velocity=0 time=0@note_on channel=12 note=57 velocity=100 time=0@note_on channel=13 note=81 velocity=0 time=0@note_on channel=13 note=69 velocity=100 time=0@note_on channel=14 note=69 velocity=0 time=0@note_on channel=14 note=72 velocity=100 time=0@note_on channel=12 note=57 velocity=0 time=0.15872999999999998@note_on channel=12 note=60 velocity=100 time=0@note_on channel=14 note=72 velocity=0 time=0@note_on channel=14 note=74 velocity=100 time=0@note_on channel=11 note=74 velocity=0 time=0.15872999999999998@note_on channel=11 note=76 velocity=100 time=0@note_on channel=12 note=60 velocity=0 time=0@note_on channel=12 note=60 velocity=100 time=0@note_on channel=14 note=74 velocity=0 time=0@note_on channel=14 note=76 velocity=100 time=0@note_on channel=12 note=60 velocity=0 time=0.15872999999999998@note_on channel=12 note=60 velocity=100 time=0@note_on channel=13 note=69 velocity=0 time=0@note_on channel=13 note=71 velocity=100 time=0@note_on channel=11 note=76 velocity=0 time=0.15872999999999998@note_on channel=11 note=72 velocity=100 time=0@note_on channel=12 note=60 velocity=0 time=0@note_on channel=12 note=60 velocity=100 time=0@note_on channel=13 note=71 velocity=0 time=0@note_on channel=13 note=72 velocity=100 time=0@note_on channel=14 note=76 velocity=0 time=0@note_on channel=14 note=69 velocity=100 time=0@note_on channel=12 note=60 velocity=0 time=0.15872999999999998@note_on channel=12 note=60 velocity=100 time=0@note_on channel=13 note=72 velocity=0 time=0@note_on channel=13 note=74 velocity=100 time=0@note_on channel=1 note=38 velocity=0 time=0.15872999999999998@note_on channel=1 note=47 velocity=100 time=0@note_on channel=11 note=72 velocity=0 time=0@note_on channel=11 note=71 velocity=100 time=0@note_on channel=12 note=60 velocity=0 time=0@note_on channel=12 note=56 velocity=100 time=0@note_on channel=13 note=74 velocity=0 time=0@note_on channel=13 note=76 velocity=100 time=0@note_on channel=14 note=69 velocity=0 time=0@note_on channel=14 note=64 velocity=100 time=0@note_on channel=12 note=56 velocity=0 time=0.15872999999999998@note_on channel=12 note=59 velocity=100 time=0@note_on channel=14 note=64 velocity=0 time=0@note_on channel=14 note=66 velocity=100 time=0@note_on channel=12 note=59 velocity=0 time=0.15872999999999998@note_on channel=12 note=59 velocity=100 time=0@note_on channel=13 note=76 velocity=0 time=0@note_on channel=13 note=76 velocity=100 time=0@note_on channel=14 note=66 velocity=0 time=0@note_on channel=14 note=68 velocity=100 time=0@note_on channel=12 note=59 velocity=0 time=0.15872999999999998@note_on channel=12 note=59 velocity=100 time=0@note_on channel=11 note=71 velocity=0 time=0.15872999999999998@note_on channel=11 note=68 velocity=100 time=0@note_on channel=12 note=59 velocity=0 time=0@note_on channel=12 note=59 velocity=100 time=0@note_on channel=13 note=76 velocity=0 time=0@note_on channel=13 note=76 velocity=100 time=0@note_on channel=14 note=68 velocity=0 time=0@note_on channel=14 note=64 velocity=100 time=0@note_on channel=12 note=59 velocity=0 time=0.15872999999999998@note_on channel=12 note=59 velocity=100 time=0@note_on channel=1 note=47 velocity=0 time=0.15872999999999998@note_on channel=1 note=40 velocity=100 time=0@note_on channel=11 note=68 velocity=0 time=0@note_on channel=11 note=64 velocity=100 time=0@note_on channel=12 note=59 velocity=0 time=0@note_on channel=12 note=52 velocity=100 time=0@note_on channel=13 note=76 velocity=0 time=0@note_on channel=13 note=68 velocity=100 time=0@note_on channel=14 note=64 velocity=0 time=0@note_on channel=14 note=68 velocity=100 time=0@note_on channel=13 note=68 velocity=0 time=0.07936499999999999@note_on channel=13 note=69 velocity=100 time=0@note_on channel=12 note=52 velocity=0 time=0.07936499999999999@note_on channel=12 note=59 velocity=100 time=0@note_on channel=13 note=69 velocity=0 time=0@note_on channel=13 note=68 velocity=100 time=0@note_on channel=14 note=68 velocity=0 time=0@note_on channel=14 note=69 velocity=100 time=0@note_on channel=12 note=59 velocity=0 time=0.15872999999999998@note_on channel=12 note=59 velocity=100 time=0@note_on channel=13 note=68 velocity=0 time=0@note_on channel=13 note=64 velocity=100 time=0@note_on channel=14 note=69 velocity=0 time=0@note_on channel=14 note=71 velocity=100 time=0@note_on channel=12 note=59 velocity=0 time=0.15872999999999998@note_on channel=12 note=59 velocity=100 time=0@note_on channel=12 note=59 velocity=0 time=0.15872999999999998@note_on channel=12 note=59 velocity=100 time=0@note_on channel=13 note=64 velocity=0 time=0@note_on channel=13 note=64 velocity=100 time=0@note_on channel=14 note=71 velocity=0 time=0@note_on channel=14 note=64 velocity=100 time=0@note_on channel=12 note=59 velocity=0 time=0.15872999999999998@note_on channel=12 note=59 velocity=100 time=0@note_on channel=1 note=40 velocity=0 time=0.15872999999999998@note_on channel=1 note=48 velocity=100 time=0@note_on channel=11 note=64 velocity=0 time=0@note_on channel=11 note=72 velocity=100 time=0@note_on channel=12 note=59 velocity=0 time=0@note_on channel=12 note=64 velocity=100 time=0@note_on channel=13 note=64 velocity=0 time=0@note_on channel=13 note=84 velocity=100 time=0@note_on channel=14 note=64 velocity=0 time=0@note_on channel=14 note=72 velocity=100 time=0@note_on channel=12 note=64 velocity=0 time=0.15872999999999998@note_on channel=12 note=67 velocity=100 time=0@note_on channel=14 note=72 velocity=0 time=0@note_on channel=14 note=74 velocity=100 time=0@note_on channel=12 note=67 velocity=0 time=0.15872999999999998@note_on channel=12 note=67 velocity=100 time=0@note_on channel=13 note=84 velocity=0 time=0@note_on channel=13 note=84 velocity=100 time=0@note_on channel=14 note=74 velocity=0 time=0@note_on channel=14 note=76 velocity=100 time=0@note_on channel=12 note=67 velocity=0 time=0.15872999999999998@note_on channel=12 note=67 velocity=100 time=0@note_on channel=11 note=72 velocity=0 time=0.15872999999999998@note_on channel=11 note=74 velocity=100 time=0@note_on channel=12 note=67 velocity=0 time=0@note_on channel=12 note=67 velocity=100 time=0@note_on channel=13 note=84 velocity=0 time=0@note_on channel=13 note=84 velocity=100 time=0@note_on channel=14 note=76 velocity=0 time=0@note_on channel=14 note=72 velocity=100 time=0@note_on channel=12 note=67 velocity=0 time=0.15872999999999998@note_on channel=12 note=67 velocity=100 time=0@note_on channel=1 note=48 velocity=0 time=0.15872999999999998@note_on channel=1 note=40 velocity=100 time=0@note_on channel=11 note=74 velocity=0 time=0@note_on channel=11 note=76 velocity=100 time=0@note_on channel=12 note=67 velocity=0 time=0@note_on channel=12 note=60 velocity=100 time=0@note_on channel=13 note=84 velocity=0 time=0@note_on channel=13 note=72 velocity=100 time=0@note_on channel=14 note=72 velocity=0 time=0@note_on channel=14 note=76 velocity=100 time=0@note_on channel=12 note=60 velocity=0 time=0.15872999999999998@note_on channel=12 note=67 velocity=100 time=0@note_on channel=14 note=76 velocity=0 time=0@note_on channel=14 note=77 velocity=100 time=0@note_on channel=12 note=67 velocity=0 time=0.15872999999999998@note_on channel=12 note=67 velocity=100 time=0@note_on channel=14 note=77 velocity=0 time=0@note_on channel=14 note=79 velocity=100 time=0@note_on channel=11 note=76 velocity=0 time=0.15872999999999998@note_on channel=11 note=74 velocity=100 time=0@note_on channel=12 note=67 velocity=0 time=0@note_on channel=12 note=67 velocity=100 time=0@note_on channel=13 note=72 velocity=0 time=0@note_on channel=13 note=74 velocity=100 time=0@note_on channel=11 note=74 velocity=0 time=0.15872999999999998@note_on channel=11 note=72 velocity=100 time=0@note_on channel=12 note=67 velocity=0 time=0@note_on channel=12 note=67 velocity=100 time=0@note_on channel=13 note=74 velocity=0 time=0@note_on channel=13 note=76 velocity=100 time=0@note_on channel=14 note=79 velocity=0 time=0@note_on channel=14 note=72 velocity=100 time=0@note_on channel=12 note=67 velocity=0 time=0.15872999999999998@note_on channel=12 note=67 velocity=100 time=0@note_on channel=13 note=76 velocity=0 time=0@note_on channel=13 note=77 velocity=100 time=0@note_on channel=1 note=40 velocity=0 time=0.15872999999999998@note_on channel=1 note=50 velocity=100 time=0@note_on channel=11 note=72 velocity=0 time=0@note_on channel=11 note=74 velocity=100 time=0@note_on channel=12 note=67 velocity=0 time=0@note_on channel=12 note=59 velocity=100 time=0@note_on channel=13 note=77 velocity=0 time=0@note_on channel=13 note=79 velocity=100 time=0@note_on channel=14 note=72 velocity=0 time=0@note_on channel=14 note=67 velocity=100 time=0@note_on channel=12 note=59 velocity=0 time=0.15872999999999998@note_on channel=12 note=62 velocity=100 time=0@note_on channel=14 note=67 velocity=0 time=0@note_on channel=14 note=69 velocity=100 time=0@note_on channel=12 note=62 velocity=0 time=0.15872999999999998@note_on channel=12 note=62 velocity=100 time=0@note_on channel=13 note=79 velocity=0 time=0@note_on channel=13 note=79 velocity=100 time=0@note_on channel=14 note=69 velocity=0 time=0@note_on channel=14 note=71 velocity=100 time=0@note_on channel=12 note=62 velocity=0 time=0.15872999999999998@note_on channel=12 note=62 velocity=100 time=0@note_on channel=11 note=74 velocity=0 time=0.15872999999999998@note_on channel=11 note=71 velocity=100 time=0@note_on channel=12 note=62 velocity=0 time=0@note_on channel=12 note=62 velocity=100 time=0@note_on channel=13 note=79 velocity=0 time=0@note_on channel=13 note=81 velocity=100 time=0@note_on channel=14 note=71 velocity=0 time=0@note_on channel=14 note=67 velocity=100 time=0@note_on channel=12 note=62 velocity=0 time=0.15872999999999998@note_on channel=12 note=62 velocity=100 time=0@note_on channel=1 note=50 velocity=0 time=0.15872999999999998@note_on channel=1 note=43 velocity=100 time=0@note_on channel=11 note=71 velocity=0 time=0@note_on channel=11 note=67 velocity=100 time=0@note_on channel=12 note=62 velocity=0 time=0@note_on channel=12 note=55 velocity=100 time=0@note_on channel=13 note=81 velocity=0 time=0@note_on channel=13 note=84 velocity=100 time=0@note_on channel=14 note=67 velocity=0 time=0@note_on channel=14 note=71 velocity=100 time=0@note_on channel=13 note=84 velocity=0 time=0.07936499999999999@note_on channel=13 note=83 velocity=100 time=0@note_on channel=12 note=55 velocity=0 time=0.07936499999999999@note_on channel=12 note=62 velocity=100 time=0@note_on channel=13 note=83 velocity=0 time=0@note_on channel=13 note=84 velocity=100 time=0@note_on channel=14 note=71 velocity=0 time=0@note_on channel=14 note=72 velocity=100 time=0@note_on channel=13 note=84 velocity=0 time=0.07936499999999999@note_on channel=13 note=83 velocity=100 time=0@note_on channel=12 note=62 velocity=0 time=0.07936499999999999@note_on channel=12 note=62 velocity=100 time=0@note_on channel=14 note=72 velocity=0 time=0@note_on channel=14 note=74 velocity=100 time=0@note_on channel=11 note=67 velocity=0 time=0.15872999999999998@note_on channel=11 note=69 velocity=100 time=0@note_on channel=12 note=62 velocity=0 time=0@note_on channel=12 note=62 velocity=100 time=0@note_on channel=13 note=83 velocity=0 time=0@note_on channel=13 note=81 velocity=100 time=0@note_on channel=11 note=69 velocity=0 time=0.15872999999999998@note_on channel=11 note=71 velocity=100 time=0@note_on channel=12 note=62 velocity=0 time=0@note_on channel=12 note=62 velocity=100 time=0@note_on channel=13 note=81 velocity=0 time=0@note_on channel=13 note=79 velocity=100 time=0@note_on channel=14 note=74 velocity=0 time=0@note_on channel=14 note=67 velocity=100 time=0@note_on channel=12 note=62 velocity=0 time=0.15872999999999998@note_on channel=12 note=62 velocity=100 time=0@note_on channel=1 note=43 velocity=0 time=0.15872999999999998@note_on channel=1 note=45 velocity=100 time=0@note_on channel=11 note=71 velocity=0 time=0@note_on channel=11 note=72 velocity=100 time=0@note_on channel=12 note=62 velocity=0 time=0@note_on channel=12 note=57 velocity=100 time=0@note_on channel=13 note=79 velocity=0 time=0@note_on channel=13 note=84 velocity=100 time=0@note_on channel=14 note=67 velocity=0 time=0@note_on channel=14 note=81 velocity=100 time=0@note_on channel=12 note=57 velocity=0 time=0.15872999999999998@note_on channel=12 note=60 velocity=100 time=0@note_on channel=14 note=81 velocity=0 time=0@note_on channel=14 note=83 velocity=100 time=0@note_on channel=12 note=60 velocity=0 time=0.15872999999999998@note_on channel=12 note=60 velocity=100 time=0@note_on channel=13 note=84 velocity=0 time=0@note_on channel=13 note=83 velocity=100 time=0@note_on channel=14 note=83 velocity=0 time=0@note_on channel=14 note=84 velocity=100 time=0@note_on channel=11 note=72 velocity=0 time=0.15872999999999998@note_on channel=11 note=71 velocity=100 time=0@note_on channel=12 note=60 velocity=0 time=0@note_on channel=12 note=60 velocity=100 time=0@note_on channel=11 note=71 velocity=0 time=0.15872999999999998@note_on channel=11 note=69 velocity=100 time=0@note_on channel=12 note=60 velocity=0 time=0@note_on channel=12 note=60 velocity=100 time=0@note_on channel=13 note=83 velocity=0 time=0@note_on channel=13 note=81 velocity=100 time=0@note_on channel=14 note=84 velocity=0 time=0@note_on channel=14 note=81 velocity=100 time=0@note_on channel=12 note=60 velocity=0 time=0.15872999999999998@note_on channel=12 note=60 velocity=100 time=0@note_on channel=1 note=45 velocity=0 time=0.15872999999999998@note_on channel=1 note=38 velocity=100 time=0@note_on channel=11 note=69 velocity=0 time=0@note_on channel=11 note=72 velocity=100 time=0@note_on channel=12 note=60 velocity=0 time=0@note_on channel=12 note=52 velocity=100 time=0@note_on channel=13 note=81 velocity=0 time=0@note_on channel=13 note=81 velocity=100 time=0@note_on channel=14 note=81 velocity=0 time=0@note_on channel=14 note=80 velocity=100 time=0@note_on channel=11 note=72 velocity=0 time=0.07936499999999999@note_on channel=11 note=71 velocity=100 time=0@note_on channel=13 note=81 velocity=0 time=0@note_on channel=13 note=80 velocity=100 time=0@note_on channel=11 note=71 velocity=0 time=0.07936499999999999@note_on channel=11 note=72 velocity=100 time=0@note_on channel=12 note=52 velocity=0 time=0@note_on channel=12 note=59 velocity=100 time=0@note_on channel=13 note=80 velocity=0 time=0@note_on channel=13 note=81 velocity=100 time=0@note_on channel=14 note=80 velocity=0 time=0@note_on channel=14 note=81 velocity=100 time=0@note_on channel=11 note=72 velocity=0 time=0.07936499999999999@note_on channel=11 note=71 velocity=100 time=0@note_on channel=13 note=81 velocity=0 time=0@note_on channel=13 note=80 velocity=100 time=0@note_on channel=12 note=59 velocity=0 time=0.07936499999999999@note_on channel=12 note=59 velocity=100 time=0@note_on channel=14 note=81 velocity=0 time=0@note_on channel=14 note=83 velocity=100 time=0@note_on channel=11 note=71 velocity=0 time=0.15872999999999998@note_on channel=11 note=69 velocity=100 time=0@note_on channel=12 note=59 velocity=0 time=0@note_on channel=12 note=59 velocity=100 time=0@note_on channel=13 note=80 velocity=0 time=0@note_on channel=13 note=78 velocity=100 time=0@note_on channel=11 note=69 velocity=0 time=0.15872999999999998@note_on channel=11 note=68 velocity=100 time=0@note_on channel=12 note=59 velocity=0 time=0@note_on channel=12 note=59 velocity=100 time=0@note_on channel=13 note=78 velocity=0 time=0@note_on channel=13 note=80 velocity=100 time=0@note_on channel=14 note=83 velocity=0 time=0@note_on channel=14 note=80 velocity=100 time=0@note_on channel=12 note=59 velocity=0 time=0.15872999999999998@note_on channel=12 note=59 velocity=100 time=0@note_on channel=1 note=38 velocity=0 time=0.15872999999999998@note_on channel=1 note=45 velocity=100 time=0@note_on channel=11 note=68 velocity=0 time=0@note_on channel=11 note=69 velocity=100 time=0@note_on channel=12 note=59 velocity=0 time=0@note_on channel=12 note=57 velocity=100 time=0@note_on channel=13 note=80 velocity=0 time=0@note_on channel=13 note=81 velocity=100 time=0@note_on channel=14 note=80 velocity=0 time=0@note_on channel=14 note=81 velocity=100 time=0@note_on channel=14 note=81 velocity=0 time=0.07936499999999999@note_on channel=14 note=80 velocity=100 time=0@note_on channel=14 note=80 velocity=0 time=0.07936499999999999@note_on channel=14 note=81 velocity=100 time=0@note_on channel=11 note=69 velocity=0 time=0.79365@note_on channel=11 note=69 velocity=100 time=0@note_on channel=12 note=57 velocity=0 time=0@note_on channel=12 note=57 velocity=100 time=0@note_on channel=13 note=81 velocity=0 time=0@note_on channel=13 note=81 velocity=100 time=0@note_on channel=14 note=81 velocity=0 time=0@note_on channel=14 note=81 velocity=100 time=0@note_on channel=1 note=45 velocity=0 time=0.9523799999999999@note_on channel=1 note=48 velocity=100 time=0@note_on channel=11 note=69 velocity=0 time=0@note_on channel=12 note=57 velocity=0 time=0@note_on channel=12 note=60 velocity=100 time=0@note_on channel=13 note=81 velocity=0 time=0@note_on channel=13 note=72 velocity=100 time=0@note_on channel=14 note=81 velocity=0 time=0@note_on channel=14 note=84 velocity=100 time=0@note_on channel=13 note=72 velocity=0 time=0.15872999999999998@note_on channel=13 note=76 velocity=100 time=0@note_on channel=13 note=76 velocity=0 time=0.15872999999999998@note_on channel=13 note=76 velocity=100 time=0@note_on channel=14 note=84 velocity=0 time=0@note_on channel=14 note=84 velocity=100 time=0@note_on channel=13 note=76 velocity=0 time=0.15872999999999998@note_on channel=13 note=76 velocity=100 time=0@note_on channel=12 note=60 velocity=0 time=0.15872999999999998@note_on channel=12 note=62 velocity=100 time=0@note_on channel=13 note=76 velocity=0 time=0@note_on channel=13 note=76 velocity=100 time=0@note_on channel=14 note=84 velocity=0 time=0@note_on channel=14 note=84 velocity=100 time=0@note_on channel=13 note=76 velocity=0 time=0.15872999999999998@note_on channel=13 note=76 velocity=100 time=0@note_on channel=1 note=48 velocity=0 time=0.15872999999999998@note_on channel=1 note=40 velocity=100 time=0@note_on channel=12 note=62 velocity=0 time=0@note_on channel=12 note=64 velocity=100 time=0@note_on channel=13 note=76 velocity=0 time=0@note_on channel=13 note=72 velocity=100 time=0@note_on channel=14 note=84 velocity=0 time=0@note_on channel=14 note=72 velocity=100 time=0@note_on channel=13 note=72 velocity=0 time=0.15872999999999998@note_on channel=13 note=76 velocity=100 time=0@note_on channel=13 note=76 velocity=0 time=0.15872999999999998@note_on channel=13 note=76 velocity=100 time=0@note_on channel=14 note=72 velocity=0 time=0@note_on channel=14 note=72 velocity=100 time=0@note_on channel=13 note=76 velocity=0 time=0.15872999999999998@note_on channel=13 note=76 velocity=100 time=0@note_on channel=12 note=64 velocity=0 time=0.15872999999999998@note_on channel=12 note=64 velocity=100 time=0@note_on channel=13 note=76 velocity=0 time=0@note_on channel=13 note=76 velocity=100 time=0@note_on channel=14 note=72 velocity=0 time=0@note_on channel=14 note=72 velocity=100 time=0@note_on channel=13 note=76 velocity=0 time=0.15872999999999998@note_on channel=13 note=76 velocity=100 time=0@note_on channel=1 note=40 velocity=0 time=0.15872999999999998@note_on channel=1 note=50 velocity=100 time=0@note_on channel=12 note=64 velocity=0 time=0@note_on channel=12 note=62 velocity=100 time=0@note_on channel=13 note=76 velocity=0 time=0@note_on channel=13 note=71 velocity=100 time=0@note_on channel=14 note=72 velocity=0 time=0@note_on channel=14 note=79 velocity=100 time=0@note_on channel=13 note=71 velocity=0 time=0.15872999999999998@note_on channel=13 note=74 velocity=100 time=0@note_on channel=13 note=74 velocity=0 time=0.15872999999999998@note_on channel=13 note=74 velocity=100 time=0@note_on channel=14 note=79 velocity=0 time=0@note_on channel=14 note=79 velocity=100 time=0@note_on channel=13 note=74 velocity=0 time=0.15872999999999998@note_on channel=13 note=74 velocity=100 time=0@note_on channel=12 note=62 velocity=0 time=0.15872999999999998@note_on channel=12 note=59 velocity=100 time=0@note_on channel=13 note=74 velocity=0 time=0@note_on channel=13 note=74 velocity=100 time=0@note_on channel=14 note=79 velocity=0 time=0@note_on channel=14 note=79 velocity=100 time=0@note_on channel=13 note=74 velocity=0 time=0.15872999999999998@note_on channel=13 note=74 velocity=100 time=0@note_on channel=1 note=50 velocity=0 time=0.15872999999999998@note_on channel=1 note=43 velocity=100 time=0@note_on channel=12 note=59 velocity=0 time=0@note_on channel=12 note=55 velocity=100 time=0@note_on channel=13 note=74 velocity=0 time=0@note_on channel=13 note=71 velocity=100 time=0@note_on channel=14 note=79 velocity=0 time=0@note_on channel=14 note=67 velocity=100 time=0@note_on channel=13 note=71 velocity=0 time=0.15872999999999998@note_on channel=13 note=74 velocity=100 time=0@note_on channel=13 note=74 velocity=0 time=0.15872999999999998@note_on channel=13 note=74 velocity=100 time=0@note_on channel=13 note=74 velocity=0 time=0.15872999999999998@note_on channel=13 note=74 velocity=100 time=0@note_on channel=14 note=67 velocity=0 time=0@note_on channel=14 note=69 velocity=100 time=0@note_on channel=13 note=74 velocity=0 time=0.15872999999999998@note_on channel=13 note=74 velocity=100 time=0@note_on channel=14 note=69 velocity=0 time=0@note_on channel=14 note=71 velocity=100 time=0@note_on channel=13 note=74 velocity=0 time=0.15872999999999998@note_on channel=13 note=74 velocity=100 time=0@note_on channel=1 note=43 velocity=0 time=0.15872999999999998@note_on channel=1 note=45 velocity=100 time=0@note_on channel=12 note=55 velocity=0 time=0@note_on channel=12 note=57 velocity=100 time=0@note_on channel=13 note=74 velocity=0 time=0@note_on channel=13 note=69 velocity=100 time=0@note_on channel=14 note=71 velocity=0 time=0@note_on channel=14 note=81 velocity=100 time=0@note_on channel=13 note=69 velocity=0 time=0.15872999999999998@note_on channel=13 note=72 velocity=100 time=0@note_on channel=13 note=72 velocity=0 time=0.15872999999999998@note_on channel=13 note=72 velocity=100 time=0@note_on channel=14 note=81 velocity=0 time=0@note_on channel=14 note=81 velocity=100 time=0@note_on channel=12 note=57 velocity=0 time=0.15872999999999998@note_on channel=12 note=59 velocity=100 time=0@note_on channel=13 note=72 velocity=0 time=0@note_on channel=13 note=72 velocity=100 time=0@note_on channel=12 note=59 velocity=0 time=0.15872999999999998@note_on channel=12 note=60 velocity=100 time=0@note_on channel=13 note=72 velocity=0 time=0@note_on channel=13 note=72 velocity=100 time=0@note_on channel=14 note=81 velocity=0 time=0@note_on channel=14 note=81 velocity=100 time=0@note_on channel=13 note=72 velocity=0 time=0.15872999999999998@note_on channel=13 note=72 velocity=100 time=0@note_on channel=1 note=45 velocity=0 time=0.15872999999999998@note_on channel=1 note=38 velocity=100 time=0@note_on channel=12 note=60 velocity=0 time=0@note_on channel=12 note=62 velocity=100 time=0@note_on channel=13 note=72 velocity=0 time=0@note_on channel=13 note=69 velocity=100 time=0@note_on channel=14 note=81 velocity=0 time=0@note_on channel=14 note=69 velocity=100 time=0@note_on channel=13 note=69 velocity=0 time=0.15872999999999998@note_on channel=13 note=72 velocity=100 time=0@note_on channel=12 note=62 velocity=0 time=0.15872999999999998@note_on channel=12 note=64 velocity=100 time=0@note_on channel=13 note=72 velocity=0 time=0@note_on channel=13 note=72 velocity=100 time=0@note_on channel=13 note=72 velocity=0 time=0.15872999999999998@note_on channel=13 note=72 velocity=100 time=0@note_on channel=14 note=69 velocity=0 time=0@note_on channel=14 note=71 velocity=100 time=0@note_on channel=12 note=64 velocity=0 time=0.15872999999999998@note_on channel=12 note=60 velocity=100 time=0@note_on channel=13 note=72 velocity=0 time=0@note_on channel=13 note=72 velocity=100 time=0@note_on channel=14 note=71 velocity=0 time=0@note_on channel=14 note=72 velocity=100 time=0@note_on channel=13 note=72 velocity=0 time=0.15872999999999998@note_on channel=13 note=72 velocity=100 time=0@note_on channel=14 note=72 velocity=0 time=0@note_on channel=14 note=74 velocity=100 time=0@note_on channel=1 note=38 velocity=0 time=0.15872999999999998@note_on channel=1 note=47 velocity=100 time=0@note_on channel=12 note=60 velocity=0 time=0@note_on channel=12 note=59 velocity=100 time=0@note_on channel=13 note=72 velocity=0 time=0@note_on channel=13 note=68 velocity=100 time=0@note_on channel=14 note=74 velocity=0 time=0@note_on channel=14 note=76 velocity=100 time=0@note_on channel=13 note=68 velocity=0 time=0.15872999999999998@note_on channel=13 note=71 velocity=100 time=0@note_on channel=13 note=71 velocity=0 time=0.15872999999999998@note_on channel=13 note=71 velocity=100 time=0@note_on channel=14 note=76 velocity=0 time=0@note_on channel=14 note=76 velocity=100 time=0@note_on channel=13 note=71 velocity=0 time=0.15872999999999998@note_on channel=13 note=71 velocity=100 time=0@note_on channel=12 note=59 velocity=0 time=0.15872999999999998@note_on channel=12 note=56 velocity=100 time=0@note_on channel=13 note=71 velocity=0 time=0@note_on channel=13 note=71 velocity=100 time=0@note_on channel=14 note=76 velocity=0 time=0@note_on channel=14 note=76 velocity=100 time=0@note_on channel=13 note=71 velocity=0 time=0.15872999999999998@note_on channel=13 note=71 velocity=100 time=0@note_on channel=1 note=47 velocity=0 time=0.15872999999999998@note_on channel=1 note=40 velocity=100 time=0@note_on channel=12 note=56 velocity=0 time=0@note_on channel=12 note=52 velocity=100 time=0@note_on channel=13 note=71 velocity=0 time=0@note_on channel=13 note=64 velocity=100 time=0@note_on channel=14 note=76 velocity=0 time=0@note_on channel=14 note=68 velocity=100 time=0@note_on channel=14 note=68 velocity=0 time=0.07936499999999999@note_on channel=14 note=69 velocity=100 time=0@note_on channel=13 note=64 velocity=0 time=0.07936499999999999@note_on channel=13 note=71 velocity=100 time=0@note_on channel=14 note=69 velocity=0 time=0@note_on channel=14 note=68 velocity=100 time=0@note_on channel=13 note=71 velocity=0 time=0.15872999999999998@note_on channel=13 note=71 velocity=100 time=0@note_on channel=14 note=68 velocity=0 time=0@note_on channel=14 note=64 velocity=100 time=0@note_on channel=13 note=71 velocity=0 time=0.15872999999999998@note_on channel=13 note=71 velocity=100 time=0@note_on channel=13 note=71 velocity=0 time=0.15872999999999998@note_on channel=13 note=71 velocity=100 time=0@note_on channel=14 note=64 velocity=0 time=0@note_on channel=14 note=64 velocity=100 time=0@note_on channel=13 note=71 velocity=0 time=0.15872999999999998@note_on channel=13 note=71 velocity=100 time=0@note_on channel=1 note=40 velocity=0 time=0.15872999999999998@note_on channel=1 note=48 velocity=100 time=0@note_on channel=12 note=52 velocity=0 time=0@note_on channel=12 note=60 velocity=100 time=0@note_on channel=13 note=71 velocity=0 time=0@note_on channel=13 note=76 velocity=100 time=0@note_on channel=14 note=64 velocity=0 time=0@note_on channel=14 note=84 velocity=100 time=0@note_on channel=13 note=76 velocity=0 time=0.15872999999999998@note_on channel=13 note=79 velocity=100 time=0@note_on channel=13 note=79 velocity=0 time=0.15872999999999998@note_on channel=13 note=79 velocity=100 time=0@note_on channel=14 note=84 velocity=0 time=0@note_on channel=14 note=84 velocity=100 time=0@note_on channel=13 note=79 velocity=0 time=0.15872999999999998@note_on channel=13 note=79 velocity=100 time=0@note_on channel=12 note=60 velocity=0 time=0.15872999999999998@note_on channel=12 note=62 velocity=100 time=0@note_on channel=13 note=79 velocity=0 time=0@note_on channel=13 note=79 velocity=100 time=0@note_on channel=14 note=84 velocity=0 time=0@note_on channel=14 note=84 velocity=100 time=0@note_on channel=13 note=79 velocity=0 time=0.15872999999999998@note_on channel=13 note=79 velocity=100 time=0@note_on channel=1 note=48 velocity=0 time=0.15872999999999998@note_on channel=1 note=40 velocity=100 time=0@note_on channel=12 note=62 velocity=0 time=0@note_on channel=12 note=64 velocity=100 time=0@note_on channel=13 note=79 velocity=0 time=0@note_on channel=13 note=72 velocity=100 time=0@note_on channel=14 note=84 velocity=0 time=0@note_on channel=14 note=72 velocity=100 time=0@note_on channel=13 note=72 velocity=0 time=0.15872999999999998@note_on channel=13 note=79 velocity=100 time=0@note_on channel=13 note=79 velocity=0 time=0.15872999999999998@note_on channel=13 note=79 velocity=100 time=0@note_on channel=12 note=64 velocity=0 time=0.15872999999999998@note_on channel=12 note=62 velocity=100 time=0@note_on channel=13 note=79 velocity=0 time=0@note_on channel=13 note=79 velocity=100 time=0@note_on channel=14 note=72 velocity=0 time=0@note_on channel=14 note=74 velocity=100 time=0@note_on channel=12 note=62 velocity=0 time=0.15872999999999998@note_on channel=12 note=60 velocity=100 time=0@note_on channel=13 note=79 velocity=0 time=0@note_on channel=13 note=79 velocity=100 time=0@note_on channel=14 note=74 velocity=0 time=0@note_on channel=14 note=76 velocity=100 time=0@note_on channel=13 note=79 velocity=0 time=0.15872999999999998@note_on channel=13 note=79 velocity=100 time=0@note_on channel=14 note=76 velocity=0 time=0@note_on channel=14 note=77 velocity=100 time=0@note_on channel=1 note=40 velocity=0 time=0.15872999999999998@note_on channel=1 note=50 velocity=100 time=0@note_on channel=12 note=60 velocity=0 time=0@note_on channel=12 note=62 velocity=100 time=0@note_on channel=13 note=79 velocity=0 time=0@note_on channel=13 note=71 velocity=100 time=0@note_on channel=14 note=77 velocity=0 time=0@note_on channel=14 note=79 velocity=100 time=0@note_on channel=13 note=71 velocity=0 time=0.15872999999999998@note_on channel=13 note=74 velocity=100 time=0@note_on channel=13 note=74 velocity=0 time=0.15872999999999998@note_on channel=13 note=74 velocity=100 time=0@note_on channel=14 note=79 velocity=0 time=0@note_on channel=14 note=79 velocity=100 time=0@note_on channel=13 note=74 velocity=0 time=0.15872999999999998@note_on channel=13 note=74 velocity=100 time=0@note_on channel=12 note=62 velocity=0 time=0.15872999999999998@note_on channel=12 note=59 velocity=100 time=0@note_on channel=13 note=74 velocity=0 time=0@note_on channel=13 note=74 velocity=100 time=0@note_on channel=14 note=79 velocity=0 time=0@note_on channel=14 note=81 velocity=100 time=0@note_on channel=13 note=74 velocity=0 time=0.15872999999999998@note_on channel=13 note=74 velocity=100 time=0@note_on channel=1 note=50 velocity=0 time=0.15872999999999998@note_on channel=1 note=43 velocity=100 time=0@note_on channel=12 note=59 velocity=0 time=0@note_on channel=12 note=55 velocity=100 time=0@note_on channel=13 note=74 velocity=0 time=0@note_on channel=13 note=67 velocity=100 time=0@note_on channel=14 note=81 velocity=0 time=0@note_on channel=14 note=84 velocity=100 time=0@note_on channel=14 note=84 velocity=0 time=0.07936499999999999@note_on channel=14 note=83 velocity=100 time=0@note_on channel=13 note=67 velocity=0 time=0.07936499999999999@note_on channel=13 note=74 velocity=100 time=0@note_on channel=14 note=83 velocity=0 time=0@note_on channel=14 note=84 velocity=100 time=0@note_on channel=14 note=84 velocity=0 time=0.07936499999999999@note_on channel=14 note=83 velocity=100 time=0@note_on channel=13 note=74 velocity=0 time=0.07936499999999999@note_on channel=13 note=74 velocity=100 time=0@note_on channel=12 note=55 velocity=0 time=0.15872999999999998@note_on channel=12 note=57 velocity=100 time=0@note_on channel=13 note=74 velocity=0 time=0@note_on channel=13 note=74 velocity=100 time=0@note_on channel=14 note=83 velocity=0 time=0@note_on channel=14 note=81 velocity=100 time=0@note_on channel=12 note=57 velocity=0 time=0.15872999999999998@note_on channel=12 note=59 velocity=100 time=0@note_on channel=13 note=74 velocity=0 time=0@note_on channel=13 note=74 velocity=100 time=0@note_on channel=14 note=81 velocity=0 time=0@note_on channel=14 note=79 velocity=100 time=0@note_on channel=13 note=74 velocity=0 time=0.15872999999999998@note_on channel=13 note=74 velocity=100 time=0@note_on channel=1 note=43 velocity=0 time=0.15872999999999998@note_on channel=1 note=45 velocity=100 time=0@note_on channel=12 note=59 velocity=0 time=0@note_on channel=12 note=60 velocity=100 time=0@note_on channel=13 note=74 velocity=0 time=0@note_on channel=13 note=69 velocity=100 time=0@note_on channel=14 note=79 velocity=0 time=0@note_on channel=14 note=84 velocity=100 time=0@note_on channel=13 note=69 velocity=0 time=0.15872999999999998@note_on channel=13 note=72 velocity=100 time=0@note_on channel=13 note=72 velocity=0 time=0.15872999999999998@note_on channel=13 note=72 velocity=100 time=0@note_on channel=14 note=84 velocity=0 time=0@note_on channel=14 note=83 velocity=100 time=0@note_on channel=12 note=60 velocity=0 time=0.15872999999999998@note_on channel=12 note=59 velocity=100 time=0@note_on channel=13 note=72 velocity=0 time=0@note_on channel=13 note=72 velocity=100 time=0@note_on channel=12 note=59 velocity=0 time=0.15872999999999998@note_on channel=12 note=57 velocity=100 time=0@note_on channel=13 note=72 velocity=0 time=0@note_on channel=13 note=72 velocity=100 time=0@note_on channel=14 note=83 velocity=0 time=0@note_on channel=14 note=81 velocity=100 time=0@note_on channel=13 note=72 velocity=0 time=0.15872999999999998@note_on channel=13 note=72 velocity=100 time=0@note_on channel=1 note=45 velocity=0 time=0.15872999999999998@note_on channel=1 note=38 velocity=100 time=0@note_on channel=12 note=57 velocity=0 time=0@note_on channel=12 note=60 velocity=100 time=0@note_on channel=13 note=72 velocity=0 time=0@note_on channel=13 note=64 velocity=100 time=0@note_on channel=14 note=81 velocity=0 time=0@note_on channel=14 note=81 velocity=100 time=0@note_on channel=12 note=60 velocity=0 time=0.07936499999999999@note_on channel=12 note=59 velocity=100 time=0@note_on channel=14 note=81 velocity=0 time=0@note_on channel=14 note=80 velocity=100 time=0@note_on channel=12 note=59 velocity=0 time=0.07936499999999999@note_on channel=12 note=60 velocity=100 time=0@note_on channel=13 note=64 velocity=0 time=0@note_on channel=13 note=71 velocity=100 time=0@note_on channel=14 note=80 velocity=0 time=0@note_on channel=14 note=81 velocity=100 time=0@note_on channel=12 note=60 velocity=0 time=0.07936499999999999@note_on channel=12 note=59 velocity=100 time=0@note_on channel=14 note=81 velocity=0 time=0@note_on channel=14 note=80 velocity=100 time=0@note_on channel=13 note=71 velocity=0 time=0.07936499999999999@note_on channel=13 note=71 velocity=100 time=0@note_on channel=12 note=59 velocity=0 time=0.15872999999999998@note_on channel=12 note=57 velocity=100 time=0@note_on channel=13 note=71 velocity=0 time=0@note_on channel=13 note=71 velocity=100 time=0@note_on channel=14 note=80 velocity=0 time=0@note_on channel=14 note=78 velocity=100 time=0@note_on channel=12 note=57 velocity=0 time=0.15872999999999998@note_on channel=12 note=56 velocity=100 time=0@note_on channel=13 note=71 velocity=0 time=0@note_on channel=13 note=71 velocity=100 time=0@note_on channel=14 note=78 velocity=0 time=0@note_on channel=14 note=80 velocity=100 time=0@note_on channel=13 note=71 velocity=0 time=0.15872999999999998@note_on channel=13 note=71 velocity=100 time=0@note_on channel=1 note=38 velocity=0 time=0.15872999999999998@note_on channel=1 note=45 velocity=100 time=0@note_on channel=12 note=56 velocity=0 time=0@note_on channel=12 note=57 velocity=100 time=0@note_on channel=13 note=71 velocity=0 time=0@note_on channel=13 note=69 velocity=100 time=0@note_on channel=14 note=80 velocity=0 time=0@note_on channel=14 note=81 velocity=100 time=0@note_on channel=12 note=57 velocity=0 time=0.9523799999999999@note_on channel=12 note=57 velocity=100 time=0@note_on channel=13 note=69 velocity=0 time=0@note_on channel=13 note=69 velocity=100 time=0@note_on channel=14 note=81 velocity=0 time=0@note_on channel=14 note=81 velocity=100 time=0@note_on channel=1 note=45 velocity=0 time=0.9523799999999999@note_on channel=1 note=48 velocity=100 time=0@note_on channel=12 note=57 velocity=0 time=0@note_on channel=13 note=69 velocity=0 time=0@note_on channel=13 note=72 velocity=100 time=0@note_on channel=14 note=81 velocity=0 time=0@note_on channel=14 note=72 velocity=100 time=0@note_on channel=14 note=72 velocity=0 time=0.15872999999999998@note_on channel=14 note=76 velocity=100 time=0@note_on channel=14 note=76 velocity=0 time=0.15872999999999998@note_on channel=14 note=76 velocity=100 time=0@note_on channel=14 note=76 velocity=0 time=0.15872999999999998@note_on channel=14 note=76 velocity=100 time=0@note_on channel=13 note=72 velocity=0 time=0.15872999999999998@note_on channel=13 note=74 velocity=100 time=0@note_on channel=14 note=76 velocity=0 time=0@note_on channel=14 note=76 velocity=100 time=0@note_on channel=14 note=76 velocity=0 time=0.15872999999999998@note_on channel=14 note=76 velocity=100 time=0@note_on channel=1 note=48 velocity=0 time=0.15872999999999998@note_on channel=1 note=40 velocity=100 time=0@note_on channel=13 note=74 velocity=0 time=0@note_on channel=13 note=76 velocity=100 time=0@note_on channel=14 note=76 velocity=0 time=0@note_on channel=14 note=72 velocity=100 time=0@note_on channel=14 note=72 velocity=0 time=0.15872999999999998@note_on channel=14 note=76 velocity=100 time=0@note_on channel=14 note=76 velocity=0 time=0.15872999999999998@note_on channel=14 note=76 velocity=100 time=0@note_on channel=14 note=76 velocity=0 time=0.15872999999999998@note_on channel=14 note=76 velocity=100 time=0@note_on channel=13 note=76 velocity=0 time=0.15872999999999998@note_on channel=13 note=76 velocity=100 time=0@note_on channel=14 note=76 velocity=0 time=0@note_on channel=14 note=76 velocity=100 time=0@note_on channel=14 note=76 velocity=0 time=0.15872999999999998@note_on channel=14 note=76 velocity=100 time=0@note_on channel=1 note=40 velocity=0 time=0.15872999999999998@note_on channel=1 note=50 velocity=100 time=0@note_on channel=13 note=76 velocity=0 time=0@note_on channel=13 note=74 velocity=100 time=0@note_on channel=14 note=76 velocity=0 time=0@note_on channel=14 note=71 velocity=100 time=0@note_on channel=14 note=71 velocity=0 time=0.15872999999999998@note_on channel=14 note=74 velocity=100 time=0@note_on channel=14 note=74 velocity=0 time=0.15872999999999998@note_on channel=14 note=74 velocity=100 time=0@note_on channel=14 note=74 velocity=0 time=0.15872999999999998@note_on channel=14 note=74 velocity=100 time=0@note_on channel=13 note=74 velocity=0 time=0.15872999999999998@note_on channel=13 note=71 velocity=100 time=0@note_on channel=14 note=74 velocity=0 time=0@note_on channel=14 note=74 velocity=100 time=0@note_on channel=14 note=74 velocity=0 time=0.15872999999999998@note_on channel=14 note=74 velocity=100 time=0@note_on channel=1 note=50 velocity=0 time=0.15872999999999998@note_on channel=1 note=43 velocity=100 time=0@note_on channel=13 note=71 velocity=0 time=0@note_on channel=13 note=67 velocity=100 time=0@note_on channel=14 note=74 velocity=0 time=0@note_on channel=14 note=71 velocity=100 time=0@note_on channel=14 note=71 velocity=0 time=0.15872999999999998@note_on channel=14 note=74 velocity=100 time=0@note_on channel=14 note=74 velocity=0 time=0.15872999999999998@note_on channel=14 note=74 velocity=100 time=0@note_on channel=14 note=74 velocity=0 time=0.15872999999999998@note_on channel=14 note=74 velocity=100 time=0@note_on channel=14 note=74 velocity=0 time=0.15872999999999998@note_on channel=14 note=74 velocity=100 time=0@note_on channel=14 note=74 velocity=0 time=0.15872999999999998@note_on channel=14 note=74 velocity=100 time=0@note_on channel=1 note=43 velocity=0 time=0.15872999999999998@note_on channel=1 note=45 velocity=100 time=0@note_on channel=13 note=67 velocity=0 time=0@note_on channel=13 note=69 velocity=100 time=0@note_on channel=14 note=74 velocity=0 time=0@note_on channel=14 note=69 velocity=100 time=0@note_on channel=14 note=69 velocity=0 time=0.15872999999999998@note_on channel=14 note=72 velocity=100 time=0@note_on channel=14 note=72 velocity=0 time=0.15872999999999998@note_on channel=14 note=72 velocity=100 time=0@note_on channel=13 note=69 velocity=0 time=0.15872999999999998@note_on channel=13 note=71 velocity=100 time=0@note_on channel=14 note=72 velocity=0 time=0@note_on channel=14 note=72 velocity=100 time=0@note_on channel=13 note=71 velocity=0 time=0.15872999999999998@note_on channel=13 note=72 velocity=100 time=0@note_on channel=14 note=72 velocity=0 time=0@note_on channel=14 note=72 velocity=100 time=0@note_on channel=14 note=72 velocity=0 time=0.15872999999999998@note_on channel=14 note=72 velocity=100 time=0@note_on channel=1 note=45 velocity=0 time=0.15872999999999998@note_on channel=1 note=38 velocity=100 time=0@note_on channel=13 note=72 velocity=0 time=0@note_on channel=13 note=74 velocity=100 time=0@note_on channel=14 note=72 velocity=0 time=0@note_on channel=14 note=69 velocity=100 time=0@note_on channel=14 note=69 velocity=0 time=0.15872999999999998@note_on channel=14 note=72 velocity=100 time=0@note_on channel=13 note=74 velocity=0 time=0.15872999999999998@note_on channel=13 note=76 velocity=100 time=0@note_on channel=14 note=72 velocity=0 time=0@note_on channel=14 note=72 velocity=100 time=0@note_on channel=14 note=72 velocity=0 time=0.15872999999999998@note_on channel=14 note=72 velocity=100 time=0@note_on channel=13 note=76 velocity=0 time=0.15872999999999998@note_on channel=13 note=72 velocity=100 time=0@note_on channel=14 note=72 velocity=0 time=0@note_on channel=14 note=72 velocity=100 time=0@note_on channel=14 note=72 velocity=0 time=0.15872999999999998@note_on channel=14 note=72 velocity=100 time=0@note_on channel=1 note=38 velocity=0 time=0.15872999999999998@note_on channel=1 note=47 velocity=100 time=0@note_on channel=13 note=72 velocity=0 time=0@note_on channel=13 note=71 velocity=100 time=0@note_on channel=14 note=72 velocity=0 time=0@note_on channel=14 note=68 velocity=100 time=0@note_on channel=14 note=68 velocity=0 time=0.15872999999999998@note_on channel=14 note=71 velocity=100 time=0@note_on channel=14 note=71 velocity=0 time=0.15872999999999998@note_on channel=14 note=71 velocity=100 time=0@note_on channel=14 note=71 velocity=0 time=0.15872999999999998@note_on channel=14 note=71 velocity=100 time=0@note_on channel=13 note=71 velocity=0 time=0.15872999999999998@note_on channel=13 note=68 velocity=100 time=0@note_on channel=14 note=71 velocity=0 time=0@note_on channel=14 note=71 velocity=100 time=0@note_on channel=14 note=71 velocity=0 time=0.15872999999999998@note_on channel=14 note=71 velocity=100 time=0@note_on channel=1 note=47 velocity=0 time=0.15872999999999998@note_on channel=1 note=40 velocity=100 time=0@note_on channel=13 note=68 velocity=0 time=0@note_on channel=13 note=64 velocity=100 time=0@note_on channel=14 note=71 velocity=0 time=0@note_on channel=14 note=64 velocity=100 time=0@note_on channel=14 note=64 velocity=0 time=0.15872999999999998@note_on channel=14 note=71 velocity=100 time=0@note_on channel=14 note=71 velocity=0 time=0.15872999999999998@note_on channel=14 note=71 velocity=100 time=0@note_on channel=14 note=71 velocity=0 time=0.15872999999999998@note_on channel=14 note=71 velocity=100 time=0@note_on channel=14 note=71 velocity=0 time=0.15872999999999998@note_on channel=14 note=71 velocity=100 time=0@note_on channel=14 note=71 velocity=0 time=0.15872999999999998@note_on channel=14 note=71 velocity=100 time=0@note_on channel=1 note=40 velocity=0 time=0.15872999999999998@note_on channel=1 note=48 velocity=100 time=0@note_on channel=13 note=64 velocity=0 time=0@note_on channel=13 note=72 velocity=100 time=0@note_on channel=14 note=71 velocity=0 time=0@note_on channel=14 note=76 velocity=100 time=0@note_on channel=14 note=76 velocity=0 time=0.15872999999999998@note_on channel=14 note=79 velocity=100 time=0@note_on channel=14 note=79 velocity=0 time=0.15872999999999998@note_on channel=14 note=79 velocity=100 time=0@note_on channel=14 note=79 velocity=0 time=0.15872999999999998@note_on channel=14 note=79 velocity=100 time=0@note_on channel=13 note=72 velocity=0 time=0.15872999999999998@note_on channel=13 note=74 velocity=100 time=0@note_on channel=14 note=79 velocity=0 time=0@note_on channel=14 note=79 velocity=100 time=0@note_on channel=14 note=79 velocity=0 time=0.15872999999999998@note_on channel=14 note=79 velocity=100 time=0@note_on channel=1 note=48 velocity=0 time=0.15872999999999998@note_on channel=1 note=40 velocity=100 time=0@note_on channel=13 note=74 velocity=0 time=0@note_on channel=13 note=76 velocity=100 time=0@note_on channel=14 note=79 velocity=0 time=0@note_on channel=14 note=72 velocity=100 time=0@note_on channel=14 note=72 velocity=0 time=0.15872999999999998@note_on channel=14 note=79 velocity=100 time=0@note_on channel=14 note=79 velocity=0 time=0.15872999999999998@note_on channel=14 note=79 velocity=100 time=0@note_on channel=13 note=76 velocity=0 time=0.15872999999999998@note_on channel=13 note=74 velocity=100 time=0@note_on channel=14 note=79 velocity=0 time=0@note_on channel=14 note=79 velocity=100 time=0@note_on channel=13 note=74 velocity=0 time=0.15872999999999998@note_on channel=13 note=72 velocity=100 time=0@note_on channel=14 note=79 velocity=0 time=0@note_on channel=14 note=79 velocity=100 time=0@note_on channel=14 note=79 velocity=0 time=0.15872999999999998@note_on channel=14 note=79 velocity=100 time=0@note_on channel=1 note=40 velocity=0 time=0.15872999999999998@note_on channel=1 note=50 velocity=100 time=0@note_on channel=13 note=72 velocity=0 time=0@note_on channel=13 note=74 velocity=100 time=0@note_on channel=14 note=79 velocity=0 time=0@note_on channel=14 note=71 velocity=100 time=0@note_on channel=14 note=71 velocity=0 time=0.15872999999999998@note_on channel=14 note=74 velocity=100 time=0@note_on channel=14 note=74 velocity=0 time=0.15872999999999998@note_on channel=14 note=74 velocity=100 time=0@note_on channel=14 note=74 velocity=0 time=0.15872999999999998@note_on channel=14 note=74 velocity=100 time=0@note_on channel=13 note=74 velocity=0 time=0.15872999999999998@note_on channel=13 note=71 velocity=100 time=0@note_on channel=14 note=74 velocity=0 time=0@note_on channel=14 note=74 velocity=100 time=0@note_on channel=14 note=74 velocity=0 time=0.15872999999999998@note_on channel=14 note=74 velocity=100 time=0@note_on channel=1 note=50 velocity=0 time=0.15872999999999998@note_on channel=1 note=43 velocity=100 time=0@note_on channel=13 note=71 velocity=0 time=0@note_on channel=13 note=67 velocity=100 time=0@note_on channel=14 note=74 velocity=0 time=0@note_on channel=14 note=67 velocity=100 time=0@note_on channel=14 note=67 velocity=0 time=0.15872999999999998@note_on channel=14 note=74 velocity=100 time=0@note_on channel=14 note=74 velocity=0 time=0.15872999999999998@note_on channel=14 note=74 velocity=100 time=0@note_on channel=13 note=67 velocity=0 time=0.15872999999999998@note_on channel=13 note=69 velocity=100 time=0@note_on channel=14 note=74 velocity=0 time=0@note_on channel=14 note=74 velocity=100 time=0@note_on channel=13 note=69 velocity=0 time=0.15872999999999998@note_on channel=13 note=71 velocity=100 time=0@note_on channel=14 note=74 velocity=0 time=0@note_on channel=14 note=74 velocity=100 time=0@note_on channel=14 note=74 velocity=0 time=0.15872999999999998@note_on channel=14 note=74 velocity=100 time=0@note_on channel=1 note=43 velocity=0 time=0.15872999999999998@note_on channel=1 note=45 velocity=100 time=0@note_on channel=13 note=71 velocity=0 time=0@note_on channel=13 note=72 velocity=100 time=0@note_on channel=14 note=74 velocity=0 time=0@note_on channel=14 note=69 velocity=100 time=0@note_on channel=14 note=69 velocity=0 time=0.15872999999999998@note_on channel=14 note=72 velocity=100 time=0@note_on channel=14 note=72 velocity=0 time=0.15872999999999998@note_on channel=14 note=72 velocity=100 time=0@note_on channel=13 note=72 velocity=0 time=0.15872999999999998@note_on channel=13 note=71 velocity=100 time=0@note_on channel=14 note=72 velocity=0 time=0@note_on channel=14 note=72 velocity=100 time=0@note_on channel=13 note=71 velocity=0 time=0.15872999999999998@note_on channel=13 note=69 velocity=100 time=0@note_on channel=14 note=72 velocity=0 time=0@note_on channel=14 note=72 velocity=100 time=0@note_on channel=14 note=72 velocity=0 time=0.15872999999999998@note_on channel=14 note=72 velocity=100 time=0@note_on channel=1 note=45 velocity=0 time=0.15872999999999998@note_on channel=1 note=38 velocity=100 time=0@note_on channel=13 note=69 velocity=0 time=0@note_on channel=13 note=72 velocity=100 time=0@note_on channel=14 note=72 velocity=0 time=0@note_on channel=14 note=64 velocity=100 time=0@note_on channel=13 note=72 velocity=0 time=0.07936499999999999@note_on channel=13 note=71 velocity=100 time=0@note_on channel=13 note=71 velocity=0 time=0.07936499999999999@note_on channel=13 note=72 velocity=100 time=0@note_on channel=14 note=64 velocity=0 time=0@note_on channel=14 note=71 velocity=100 time=0@note_on channel=13 note=72 velocity=0 time=0.07936499999999999@note_on channel=13 note=71 velocity=100 time=0@note_on channel=14 note=71 velocity=0 time=0.07936499999999999@note_on channel=14 note=71 velocity=100 time=0@note_on channel=13 note=71 velocity=0 time=0.15872999999999998@note_on channel=13 note=69 velocity=100 time=0@note_on channel=14 note=71 velocity=0 time=0@note_on channel=14 note=71 velocity=100 time=0@note_on channel=13 note=69 velocity=0 time=0.15872999999999998@note_on channel=13 note=68 velocity=100 time=0@note_on channel=14 note=71 velocity=0 time=0@note_on channel=14 note=71 velocity=100 time=0@note_on channel=14 note=71 velocity=0 time=0.15872999999999998@note_on channel=14 note=71 velocity=100 time=0@note_on channel=1 note=38 velocity=0 time=0.15872999999999998@note_on channel=1 note=45 velocity=100 time=0@note_on channel=13 note=68 velocity=0 time=0@note_on channel=13 note=69 velocity=100 time=0@note_on channel=14 note=71 velocity=0 time=0@note_on channel=14 note=69 velocity=100 time=0@note_on channel=13 note=69 velocity=0 time=0.9523799999999999@note_on channel=13 note=69 velocity=100 time=0@note_on channel=14 note=69 velocity=0 time=0@note_on channel=14 note=69 velocity=100 time=0@note_on channel=1 note=45 velocity=0 time=0.9523799999999999@note_on channel=13 note=69 velocity=0 time=0@note_on channel=14 note=69 velocity=0 time=0@note_on channel=14 note=72 velocity=100 time=0@note_on channel=14 note=72 velocity=0 time=0.6349199999999999@note_on channel=14 note=74 velocity=100 time=0@note_on channel=14 note=74 velocity=0 time=0.31745999999999996@note_on channel=14 note=76 velocity=100 time=0@note_on channel=14 note=76 velocity=0 time=0.6349199999999999@note_on channel=14 note=76 velocity=100 time=0@note_on channel=14 note=76 velocity=0 time=0.31745999999999996@note_on channel=14 note=74 velocity=100 time=0@note_on channel=14 note=74 velocity=0 time=0.6349199999999999@note_on channel=14 note=71 velocity=100 time=0@note_on channel=14 note=71 velocity=0 time=0.31745999999999996@note_on channel=14 note=67 velocity=100 time=0@note_on channel=14 note=67 velocity=0 time=0.9523799999999999@note_on channel=14 note=69 velocity=100 time=0@note_on channel=14 note=69 velocity=0 time=0.47618999999999995@note_on channel=14 note=71 velocity=100 time=0@note_on channel=14 note=71 velocity=0 time=0.15872999999999998@note_on channel=14 note=72 velocity=100 time=0@note_on channel=14 note=72 velocity=0 time=0.31745999999999996@note_on channel=14 note=74 velocity=100 time=0@note_on channel=14 note=74 velocity=0 time=0.31745999999999996@note_on channel=14 note=76 velocity=100 time=0@note_on channel=14 note=76 velocity=0 time=0.31745999999999996@note_on channel=14 note=72 velocity=100 time=0@note_on channel=14 note=72 velocity=0 time=0.31745999999999996@note_on channel=14 note=71 velocity=100 time=0@note_on channel=14 note=71 velocity=0 time=0.6349199999999999@note_on channel=14 note=68 velocity=100 time=0@note_on channel=14 note=68 velocity=0 time=0.31745999999999996@note_on channel=14 note=64 velocity=100 time=0@note_on channel=14 note=64 velocity=0 time=0.9523799999999999@note_on channel=14 note=72 velocity=100 time=0@note_on channel=14 note=72 velocity=0 time=0.6349199999999999@note_on channel=14 note=74 velocity=100 time=0@note_on channel=14 note=74 velocity=0 time=0.31745999999999996@note_on channel=14 note=76 velocity=100 time=0@note_on channel=14 note=76 velocity=0 time=0.47618999999999995@note_on channel=14 note=74 velocity=100 time=0@note_on channel=14 note=74 velocity=0 time=0.15872999999999998@note_on channel=14 note=72 velocity=100 time=0@note_on channel=14 note=72 velocity=0 time=0.31745999999999996@note_on channel=14 note=74 velocity=100 time=0@note_on channel=14 note=74 velocity=0 time=0.6349199999999999@note_on channel=14 note=71 velocity=100 time=0@note_on channel=14 note=71 velocity=0 time=0.31745999999999996@note_on channel=14 note=67 velocity=100 time=0@note_on channel=14 note=67 velocity=0 time=0.47618999999999995@note_on channel=14 note=69 velocity=100 time=0@note_on channel=14 note=69 velocity=0 time=0.15872999999999998@note_on channel=14 note=71 velocity=100 time=0@note_on channel=14 note=71 velocity=0 time=0.31745999999999996@note_on channel=14 note=72 velocity=100 time=0@note_on channel=14 note=72 velocity=0 time=0.47618999999999995@note_on channel=14 note=71 velocity=100 time=0@note_on channel=14 note=71 velocity=0 time=0.15872999999999998@note_on channel=14 note=69 velocity=100 time=0@note_on channel=14 note=69 velocity=0 time=0.31745999999999996@note_on channel=14 note=72 velocity=100 time=0@note_on channel=14 note=72 velocity=0 time=0.07936499999999999@note_on channel=14 note=71 velocity=100 time=0@note_on channel=14 note=71 velocity=0 time=0.07936499999999999@note_on channel=14 note=72 velocity=100 time=0@note_on channel=14 note=72 velocity=0 time=0.07936499999999999@note_on channel=14 note=71 velocity=100 time=0@note_on channel=14 note=71 velocity=0 time=0.23809499999999997@note_on channel=14 note=69 velocity=100 time=0@note_on channel=14 note=69 velocity=0 time=0.15872999999999998@note_on channel=14 note=68 velocity=100 time=0@note_on channel=14 note=68 velocity=0 time=0.31745999999999996@note_on channel=14 note=69 velocity=100 time=0@note_on channel=14 note=69 velocity=0 time=0.9523799999999999@note_on channel=14 note=69 velocity=100 time=0@note_on channel=14 note=69 velocity=0 time=0.9523799999999999@<meta message end_of_track time=0>@