<meta message track_name name="He's A Pirate" time=0>@<meta message text text='By Written by Klaus Badelt' time=0>@<meta message copyright text='Arrangement © 2004 Cerullean Pictures ' time=0>@<meta message copyright text='Original Score © Walt Disney Pictures' time=0>@<meta message text text='Generated by NoteWorthy Composer' time=0>@<meta message set_tempo tempo=300000 time=0>@<meta message key_signature key='F' time=0>@<meta message time_signature numerator=6 denominator=8 clocks_per_click=24 notated_32nd_notes_per_beat=8 time=0>@<meta message midi_port port=0 time=0>@<meta message track_name name='Right Hand' time=0>@control_change channel=0 control=64 value=0 time=0@program_change channel=0 program=0 time=0@control_change channel=0 control=7 value=127 time=0@control_change channel=0 control=10 value=64 time=0@program_change channel=0 program=0 time=0@control_change channel=0 control=7 value=127 time=0@control_change channel=0 control=10 value=64 time=0@control_change channel=0 control=64 value=127 time=0@note_on channel=0 note=62 velocity=110 time=0@<meta message midi_port port=0 time=0>@<meta message track_name name='Left Hand' time=0>@program_change channel=1 program=0 time=0@control_change channel=1 control=7 value=127 time=0@control_change channel=1 control=10 value=64 time=0@program_change channel=1 program=0 time=0@control_change channel=1 control=7 value=127 time=0@control_change channel=1 control=10 value=64 time=0@note_on channel=0 note=62 velocity=0 time=0.24999999999999997@note_on channel=0 note=62 velocity=110 time=0.049999999999999996@note_on channel=0 note=62 velocity=0 time=0.14687499999999998@note_on channel=0 note=62 velocity=110 time=0.0031249999999999997@note_on channel=0 note=62 velocity=0 time=0.24999999999999997@note_on channel=0 note=62 velocity=110 time=0.049999999999999996@note_on channel=0 note=62 velocity=0 time=0.14687499999999998@note_on channel=0 note=62 velocity=110 time=0.0031249999999999997@note_on channel=0 note=62 velocity=0 time=0.24999999999999997@note_on channel=0 note=62 velocity=110 time=0.049999999999999996@note_on channel=0 note=62 velocity=0 time=0.14687499999999998@note_on channel=0 note=62 velocity=110 time=0.0031249999999999997@note_on channel=0 note=62 velocity=0 time=0.14687499999999998@note_on channel=0 note=62 velocity=110 time=0.0031249999999999997@note_on channel=0 note=62 velocity=0 time=0.14687499999999998@note_on channel=0 note=62 velocity=110 time=0.0031249999999999997@note_on channel=0 note=62 velocity=0 time=0.14687499999999998@note_on channel=0 note=62 velocity=110 time=0.0031249999999999997@note_on channel=0 note=62 velocity=0 time=0.24999999999999997@note_on channel=0 note=62 velocity=110 time=0.049999999999999996@note_on channel=0 note=62 velocity=0 time=0.14687499999999998@note_on channel=0 note=62 velocity=110 time=0.0031249999999999997@note_on channel=0 note=62 velocity=0 time=0.24999999999999997@note_on channel=0 note=62 velocity=110 time=0.049999999999999996@note_on channel=0 note=62 velocity=0 time=0.14687499999999998@note_on channel=0 note=62 velocity=110 time=0.0031249999999999997@note_on channel=0 note=62 velocity=0 time=0.24999999999999997@note_on channel=0 note=62 velocity=110 time=0.049999999999999996@note_on channel=0 note=62 velocity=0 time=0.14687499999999998@note_on channel=0 note=62 velocity=110 time=0.0031249999999999997@note_on channel=0 note=62 velocity=0 time=0.14687499999999998@note_on channel=0 note=62 velocity=110 time=0.0031249999999999997@note_on channel=0 note=62 velocity=0 time=0.14687499999999998@note_on channel=0 note=62 velocity=110 time=0.0031249999999999997@note_on channel=0 note=62 velocity=0 time=0.14687499999999998@note_on channel=0 note=62 velocity=110 time=0.0031249999999999997@control_change channel=1 control=64 value=0 time=0@control_change channel=1 control=64 value=127 time=0@note_on channel=1 note=26 velocity=110 time=0@note_on channel=1 note=38 velocity=110 time=0@note_on channel=0 note=62 velocity=0 time=0.24999999999999997@note_on channel=0 note=62 velocity=110 time=0.049999999999999996@note_on channel=0 note=62 velocity=0 time=0.14687499999999998@note_on channel=0 note=62 velocity=110 time=0.0031249999999999997@note_on channel=0 note=62 velocity=0 time=0.24999999999999997@note_on channel=0 note=62 velocity=110 time=0.049999999999999996@note_on channel=1 note=26 velocity=0 time=0.075@note_on channel=1 note=38 velocity=0 time=0@note_on channel=0 note=62 velocity=0 time=0.071875@note_on channel=0 note=62 velocity=110 time=0.0031249999999999997@note_on channel=1 note=26 velocity=110 time=0@note_on channel=1 note=38 velocity=110 time=0@note_on channel=0 note=62 velocity=0 time=0.24999999999999997@note_on channel=0 note=62 velocity=110 time=0.049999999999999996@note_on channel=1 note=26 velocity=0 time=0.09999999999999999@note_on channel=1 note=38 velocity=0 time=0@note_on channel=0 note=62 velocity=0 time=0.04687499999999999@note_on channel=0 note=62 velocity=110 time=0.0031249999999999997@note_on channel=1 note=26 velocity=110 time=0@note_on channel=1 note=38 velocity=110 time=0@note_on channel=0 note=62 velocity=0 time=0.14687499999999998@note_on channel=0 note=57 velocity=110 time=0.0031249999999999997@note_on channel=0 note=57 velocity=0 time=0.14687499999999998@note_on channel=0 note=60 velocity=110 time=0.0031249999999999997@note_on channel=1 note=26 velocity=0 time=0.09999999999999999@note_on channel=1 note=38 velocity=0 time=0@note_on channel=0 note=60 velocity=0 time=0.04687499999999999@control_change channel=0 control=64 value=0 time=0.0031249999999999997@control_change channel=0 control=64 value=127 time=0@note_on channel=0 note=53 velocity=110 time=0@note_on channel=0 note=57 velocity=110 time=0@note_on channel=0 note=62 velocity=110 time=0@control_change channel=1 control=64 value=0 time=0@control_change channel=1 control=64 value=127 time=0@note_on channel=1 note=38 velocity=110 time=0@note_on channel=1 note=50 velocity=110 time=0@note_on channel=0 note=53 velocity=0 time=0.24999999999999997@note_on channel=0 note=57 velocity=0 time=0@note_on channel=0 note=62 velocity=0 time=0@note_on channel=1 note=38 velocity=0 time=0@note_on channel=1 note=50 velocity=0 time=0@note_on channel=0 note=53 velocity=110 time=0.049999999999999996@note_on channel=0 note=57 velocity=110 time=0@note_on channel=0 note=62 velocity=110 time=0@note_on channel=1 note=38 velocity=110 time=0@note_on channel=1 note=50 velocity=110 time=0@note_on channel=1 note=38 velocity=0 time=0.14687499999999998@note_on channel=1 note=50 velocity=0 time=0@note_on channel=1 note=38 velocity=110 time=0.0031249999999999997@note_on channel=1 note=50 velocity=110 time=0@note_on channel=0 note=53 velocity=0 time=0.09999999999999999@note_on channel=0 note=57 velocity=0 time=0@note_on channel=0 note=62 velocity=0 time=0@note_on channel=0 note=53 velocity=110 time=0.049999999999999996@note_on channel=0 note=57 velocity=110 time=0@note_on channel=0 note=62 velocity=110 time=0@note_on channel=1 note=38 velocity=0 time=0.09999999999999999@note_on channel=1 note=50 velocity=0 time=0@note_on channel=0 note=53 velocity=0 time=0.04687499999999999@note_on channel=0 note=57 velocity=0 time=0@note_on channel=0 note=62 velocity=0 time=0@note_on channel=0 note=57 velocity=110 time=0.0031249999999999997@note_on channel=0 note=60 velocity=110 time=0@note_on channel=0 note=64 velocity=110 time=0@note_on channel=1 note=36 velocity=110 time=0@note_on channel=1 note=48 velocity=110 time=0@note_on channel=0 note=57 velocity=0 time=0.14687499999999998@note_on channel=0 note=60 velocity=0 time=0@note_on channel=0 note=64 velocity=0 time=0@note_on channel=1 note=36 velocity=0 time=0@note_on channel=1 note=48 velocity=0 time=0@control_change channel=0 control=64 value=0 time=0.0031249999999999997@control_change channel=0 control=64 value=127 time=0@note_on channel=0 note=58 velocity=110 time=0@note_on channel=0 note=62 velocity=110 time=0@note_on channel=0 note=65 velocity=110 time=0@control_change channel=1 control=64 value=0 time=0@control_change channel=1 control=64 value=127 time=0@note_on channel=1 note=34 velocity=110 time=0@note_on channel=1 note=46 velocity=110 time=0@note_on channel=0 note=58 velocity=0 time=0.24999999999999997@note_on channel=0 note=62 velocity=0 time=0@note_on channel=0 note=65 velocity=0 time=0@note_on channel=1 note=34 velocity=0 time=0@note_on channel=1 note=46 velocity=0 time=0@note_on channel=0 note=58 velocity=110 time=0.049999999999999996@note_on channel=0 note=62 velocity=110 time=0@note_on channel=0 note=65 velocity=110 time=0@note_on channel=1 note=34 velocity=110 time=0@note_on channel=1 note=46 velocity=110 time=0@note_on channel=1 note=34 velocity=0 time=0.14687499999999998@note_on channel=1 note=46 velocity=0 time=0@note_on channel=1 note=34 velocity=110 time=0.0031249999999999997@note_on channel=1 note=46 velocity=110 time=0@note_on channel=0 note=58 velocity=0 time=0.09999999999999999@note_on channel=0 note=62 velocity=0 time=0@note_on channel=0 note=65 velocity=0 time=0@note_on channel=0 note=58 velocity=110 time=0.049999999999999996@note_on channel=0 note=62 velocity=110 time=0@note_on channel=0 note=65 velocity=110 time=0@note_on channel=1 note=34 velocity=0 time=0.09999999999999999@note_on channel=1 note=46 velocity=0 time=0@note_on channel=0 note=58 velocity=0 time=0.04687499999999999@note_on channel=0 note=62 velocity=0 time=0@note_on channel=0 note=65 velocity=0 time=0@note_on channel=0 note=62 velocity=110 time=0.0031249999999999997@note_on channel=0 note=67 velocity=110 time=0@note_on channel=1 note=34 velocity=110 time=0@note_on channel=1 note=46 velocity=110 time=0@note_on channel=0 note=62 velocity=0 time=0.14687499999999998@note_on channel=0 note=67 velocity=0 time=0@note_on channel=1 note=34 velocity=0 time=0@note_on channel=1 note=46 velocity=0 time=0@control_change channel=0 control=64 value=0 time=0.0031249999999999997@control_change channel=0 control=64 value=127 time=0@note_on channel=0 note=57 velocity=110 time=0@note_on channel=0 note=60 velocity=110 time=0@note_on channel=0 note=64 velocity=110 time=0@control_change channel=1 control=64 value=0 time=0@control_change channel=1 control=64 value=127 time=0@note_on channel=1 note=33 velocity=110 time=0@note_on channel=1 note=45 velocity=110 time=0@note_on channel=0 note=57 velocity=0 time=0.24999999999999997@note_on channel=0 note=60 velocity=0 time=0@note_on channel=0 note=64 velocity=0 time=0@note_on channel=1 note=33 velocity=0 time=0@note_on channel=1 note=45 velocity=0 time=0@note_on channel=0 note=57 velocity=110 time=0.049999999999999996@note_on channel=0 note=60 velocity=110 time=0@note_on channel=0 note=64 velocity=110 time=0@note_on channel=1 note=33 velocity=110 time=0@note_on channel=1 note=45 velocity=110 time=0@note_on channel=1 note=33 velocity=0 time=0.14687499999999998@note_on channel=1 note=45 velocity=0 time=0@note_on channel=1 note=33 velocity=110 time=0.0031249999999999997@note_on channel=1 note=45 velocity=110 time=0@note_on channel=0 note=57 velocity=0 time=0.09999999999999999@note_on channel=0 note=60 velocity=0 time=0@note_on channel=0 note=64 velocity=0 time=0@note_on channel=0 note=57 velocity=110 time=0.049999999999999996@note_on channel=0 note=62 velocity=110 time=0@note_on channel=1 note=33 velocity=0 time=0.09999999999999999@note_on channel=1 note=45 velocity=0 time=0@note_on channel=0 note=57 velocity=0 time=0.04687499999999999@note_on channel=0 note=62 velocity=0 time=0@note_on channel=0 note=55 velocity=110 time=0.0031249999999999997@note_on channel=0 note=60 velocity=110 time=0@note_on channel=1 note=33 velocity=110 time=0@note_on channel=1 note=45 velocity=110 time=0@note_on channel=0 note=55 velocity=0 time=0.14687499999999998@note_on channel=0 note=60 velocity=0 time=0@note_on channel=1 note=33 velocity=0 time=0@note_on channel=1 note=45 velocity=0 time=0@control_change channel=0 control=64 value=0 time=0.0031249999999999997@control_change channel=0 control=64 value=127 time=0@note_on channel=0 note=57 velocity=110 time=0@note_on channel=0 note=60 velocity=110 time=0@control_change channel=1 control=64 value=0 time=0@control_change channel=1 control=64 value=127 time=0@note_on channel=1 note=38 velocity=110 time=0@note_on channel=1 note=50 velocity=110 time=0@note_on channel=0 note=57 velocity=0 time=0.14687499999999998@note_on channel=0 note=60 velocity=0 time=0@note_on channel=0 note=57 velocity=110 time=0.0031249999999999997@note_on channel=0 note=62 velocity=110 time=0@note_on channel=1 note=38 velocity=0 time=0.09999999999999999@note_on channel=1 note=50 velocity=0 time=0@note_on channel=1 note=38 velocity=110 time=0.049999999999999996@note_on channel=1 note=50 velocity=110 time=0@note_on channel=0 note=57 velocity=0 time=0.09999999999999999@note_on channel=0 note=62 velocity=0 time=0@note_on channel=1 note=38 velocity=0 time=0.04687499999999999@note_on channel=1 note=50 velocity=0 time=0@note_on channel=1 note=38 velocity=110 time=0.0031249999999999997@note_on channel=1 note=50 velocity=110 time=0@note_on channel=0 note=57 velocity=110 time=0.15@note_on channel=1 note=38 velocity=0 time=0.09999999999999999@note_on channel=1 note=50 velocity=0 time=0@note_on channel=0 note=57 velocity=0 time=0.04687499999999999@note_on channel=0 note=60 velocity=110 time=0.0031249999999999997@note_on channel=1 note=38 velocity=110 time=0@note_on channel=1 note=50 velocity=110 time=0@note_on channel=0 note=60 velocity=0 time=0.14687499999999998@note_on channel=1 note=38 velocity=0 time=0@note_on channel=1 note=50 velocity=0 time=0@control_change channel=0 control=64 value=0 time=0.0031249999999999997@control_change channel=0 control=64 value=127 time=0@note_on channel=0 note=53 velocity=110 time=0@note_on channel=0 note=58 velocity=110 time=0@note_on channel=0 note=62 velocity=110 time=0@control_change channel=1 control=64 value=0 time=0@control_change channel=1 control=64 value=127 time=0@note_on channel=1 note=34 velocity=110 time=0@note_on channel=1 note=46 velocity=110 time=0@note_on channel=0 note=53 velocity=0 time=0.24999999999999997@note_on channel=0 note=58 velocity=0 time=0@note_on channel=0 note=62 velocity=0 time=0@note_on channel=1 note=34 velocity=0 time=0@note_on channel=1 note=46 velocity=0 time=0@note_on channel=0 note=53 velocity=110 time=0.049999999999999996@note_on channel=0 note=58 velocity=110 time=0@note_on channel=0 note=62 velocity=110 time=0@note_on channel=1 note=34 velocity=110 time=0@note_on channel=1 note=46 velocity=110 time=0@note_on channel=1 note=34 velocity=0 time=0.14687499999999998@note_on channel=1 note=46 velocity=0 time=0@note_on channel=1 note=34 velocity=110 time=0.0031249999999999997@note_on channel=1 note=46 velocity=110 time=0@note_on channel=0 note=53 velocity=0 time=0.09999999999999999@note_on channel=0 note=58 velocity=0 time=0@note_on channel=0 note=62 velocity=0 time=0@note_on channel=0 note=58 velocity=110 time=0.049999999999999996@note_on channel=0 note=62 velocity=110 time=0@note_on channel=1 note=34 velocity=0 time=0.09999999999999999@note_on channel=1 note=46 velocity=0 time=0@note_on channel=0 note=58 velocity=0 time=0.04687499999999999@note_on channel=0 note=62 velocity=0 time=0@note_on channel=0 note=58 velocity=110 time=0.0031249999999999997@note_on channel=0 note=64 velocity=110 time=0@note_on channel=1 note=34 velocity=110 time=0@note_on channel=1 note=46 velocity=110 time=0@note_on channel=0 note=58 velocity=0 time=0.14687499999999998@note_on channel=0 note=64 velocity=0 time=0@note_on channel=1 note=34 velocity=0 time=0@note_on channel=1 note=46 velocity=0 time=0@control_change channel=0 control=64 value=0 time=0.0031249999999999997@control_change channel=0 control=64 value=127 time=0@note_on channel=0 note=57 velocity=110 time=0@note_on channel=0 note=60 velocity=110 time=0@note_on channel=0 note=65 velocity=110 time=0@control_change channel=1 control=64 value=0 time=0@control_change channel=1 control=64 value=127 time=0@note_on channel=1 note=29 velocity=110 time=0@note_on channel=1 note=41 velocity=110 time=0@note_on channel=0 note=57 velocity=0 time=0.24999999999999997@note_on channel=0 note=60 velocity=0 time=0@note_on channel=0 note=65 velocity=0 time=0@note_on channel=1 note=29 velocity=0 time=0@note_on channel=1 note=41 velocity=0 time=0@note_on channel=0 note=57 velocity=110 time=0.049999999999999996@note_on channel=0 note=60 velocity=110 time=0@note_on channel=0 note=65 velocity=110 time=0@note_on channel=1 note=29 velocity=110 time=0@note_on channel=1 note=41 velocity=110 time=0@note_on channel=1 note=29 velocity=0 time=0.14687499999999998@note_on channel=1 note=41 velocity=0 time=0@note_on channel=1 note=29 velocity=110 time=0.0031249999999999997@note_on channel=1 note=41 velocity=110 time=0@note_on channel=0 note=57 velocity=0 time=0.09999999999999999@note_on channel=0 note=60 velocity=0 time=0@note_on channel=0 note=65 velocity=0 time=0@note_on channel=0 note=60 velocity=110 time=0.049999999999999996@note_on channel=0 note=65 velocity=110 time=0@note_on channel=1 note=29 velocity=0 time=0.09999999999999999@note_on channel=1 note=41 velocity=0 time=0@note_on channel=0 note=60 velocity=0 time=0.04687499999999999@note_on channel=0 note=65 velocity=0 time=0@note_on channel=0 note=60 velocity=110 time=0.0031249999999999997@note_on channel=0 note=67 velocity=110 time=0@note_on channel=1 note=29 velocity=110 time=0@note_on channel=1 note=41 velocity=110 time=0@note_on channel=0 note=60 velocity=0 time=0.14687499999999998@note_on channel=0 note=67 velocity=0 time=0@note_on channel=1 note=29 velocity=0 time=0@note_on channel=1 note=41 velocity=0 time=0@control_change channel=0 control=64 value=0 time=0.0031249999999999997@control_change channel=0 control=64 value=127 time=0@note_on channel=0 note=60 velocity=110 time=0@note_on channel=0 note=64 velocity=110 time=0@control_change channel=1 control=64 value=0 time=0@control_change channel=1 control=64 value=127 time=0@note_on channel=1 note=36 velocity=110 time=0@note_on channel=1 note=48 velocity=110 time=0@note_on channel=0 note=60 velocity=0 time=0.24999999999999997@note_on channel=0 note=64 velocity=0 time=0@note_on channel=1 note=36 velocity=0 time=0@note_on channel=1 note=48 velocity=0 time=0@note_on channel=0 note=60 velocity=110 time=0.049999999999999996@note_on channel=0 note=64 velocity=110 time=0@note_on channel=1 note=36 velocity=110 time=0@note_on channel=1 note=48 velocity=110 time=0@note_on channel=1 note=36 velocity=0 time=0.14687499999999998@note_on channel=1 note=48 velocity=0 time=0@note_on channel=1 note=33 velocity=110 time=0.0031249999999999997@note_on channel=1 note=45 velocity=110 time=0@note_on channel=0 note=60 velocity=0 time=0.09999999999999999@note_on channel=0 note=64 velocity=0 time=0@note_on channel=0 note=57 velocity=110 time=0.049999999999999996@note_on channel=0 note=62 velocity=110 time=0@note_on channel=1 note=33 velocity=0 time=0.09999999999999999@note_on channel=1 note=45 velocity=0 time=0@note_on channel=0 note=57 velocity=0 time=0.04687499999999999@note_on channel=0 note=62 velocity=0 time=0@note_on channel=0 note=60 velocity=110 time=0.0031249999999999997@note_on channel=1 note=33 velocity=110 time=0@note_on channel=1 note=45 velocity=110 time=0@note_on channel=0 note=60 velocity=0 time=0.14687499999999998@note_on channel=1 note=33 velocity=0 time=0@note_on channel=1 note=45 velocity=0 time=0@control_change channel=0 control=64 value=0 time=0.0031249999999999997@control_change channel=0 control=64 value=127 time=0@note_on channel=0 note=53 velocity=110 time=0@note_on channel=0 note=57 velocity=110 time=0@note_on channel=0 note=62 velocity=110 time=0@control_change channel=1 control=64 value=0 time=0@control_change channel=1 control=64 value=127 time=0@note_on channel=1 note=38 velocity=110 time=0@note_on channel=1 note=50 velocity=110 time=0@note_on channel=0 note=53 velocity=0 time=0.24999999999999997@note_on channel=0 note=57 velocity=0 time=0@note_on channel=0 note=62 velocity=0 time=0@note_on channel=1 note=38 velocity=0 time=0@note_on channel=1 note=50 velocity=0 time=0@note_on channel=1 note=38 velocity=110 time=0.049999999999999996@note_on channel=1 note=50 velocity=110 time=0@note_on channel=1 note=38 velocity=0 time=0.14687499999999998@note_on channel=1 note=50 velocity=0 time=0@note_on channel=1 note=38 velocity=110 time=0.0031249999999999997@note_on channel=1 note=50 velocity=110 time=0@note_on channel=0 note=57 velocity=110 time=0.15@note_on channel=1 note=38 velocity=0 time=0.09999999999999999@note_on channel=1 note=50 velocity=0 time=0@note_on channel=0 note=57 velocity=0 time=0.04687499999999999@note_on channel=0 note=60 velocity=110 time=0.0031249999999999997@note_on channel=1 note=38 velocity=110 time=0@note_on channel=1 note=50 velocity=110 time=0@note_on channel=0 note=60 velocity=0 time=0.14687499999999998@note_on channel=1 note=38 velocity=0 time=0@note_on channel=1 note=50 velocity=0 time=0@control_change channel=0 control=64 value=0 time=0.0031249999999999997@control_change channel=0 control=64 value=127 time=0@note_on channel=0 note=53 velocity=110 time=0@note_on channel=0 note=57 velocity=110 time=0@note_on channel=0 note=62 velocity=110 time=0@control_change channel=1 control=64 value=0 time=0@control_change channel=1 control=64 value=127 time=0@note_on channel=1 note=38 velocity=110 time=0@note_on channel=1 note=50 velocity=110 time=0@note_on channel=0 note=53 velocity=0 time=0.24999999999999997@note_on channel=0 note=57 velocity=0 time=0@note_on channel=0 note=62 velocity=0 time=0@note_on channel=1 note=38 velocity=0 time=0@note_on channel=1 note=50 velocity=0 time=0@note_on channel=0 note=53 velocity=110 time=0.049999999999999996@note_on channel=0 note=57 velocity=110 time=0@note_on channel=0 note=62 velocity=110 time=0@note_on channel=1 note=38 velocity=110 time=0@note_on channel=1 note=50 velocity=110 time=0@note_on channel=1 note=38 velocity=0 time=0.14687499999999998@note_on channel=1 note=50 velocity=0 time=0@note_on channel=1 note=38 velocity=110 time=0.0031249999999999997@note_on channel=1 note=50 velocity=110 time=0@note_on channel=0 note=53 velocity=0 time=0.09999999999999999@note_on channel=0 note=57 velocity=0 time=0@note_on channel=0 note=62 velocity=0 time=0@note_on channel=0 note=57 velocity=110 time=0.049999999999999996@note_on channel=0 note=62 velocity=110 time=0@note_on channel=1 note=38 velocity=0 time=0.09999999999999999@note_on channel=1 note=50 velocity=0 time=0@note_on channel=0 note=57 velocity=0 time=0.04687499999999999@note_on channel=0 note=62 velocity=0 time=0@note_on channel=0 note=57 velocity=110 time=0.0031249999999999997@note_on channel=0 note=65 velocity=110 time=0@note_on channel=1 note=38 velocity=110 time=0@note_on channel=1 note=50 velocity=110 time=0@note_on channel=0 note=57 velocity=0 time=0.14687499999999998@note_on channel=0 note=65 velocity=0 time=0@note_on channel=1 note=38 velocity=0 time=0@note_on channel=1 note=50 velocity=0 time=0@control_change channel=0 control=64 value=0 time=0.0031249999999999997@control_change channel=0 control=64 value=127 time=0@note_on channel=0 note=58 velocity=110 time=0@note_on channel=0 note=62 velocity=110 time=0@note_on channel=0 note=67 velocity=110 time=0@control_change channel=1 control=64 value=0 time=0@control_change channel=1 control=64 value=127 time=0@note_on channel=1 note=34 velocity=110 time=0@note_on channel=1 note=46 velocity=110 time=0@note_on channel=0 note=58 velocity=0 time=0.24999999999999997@note_on channel=0 note=62 velocity=0 time=0@note_on channel=0 note=67 velocity=0 time=0@note_on channel=1 note=34 velocity=0 time=0@note_on channel=1 note=46 velocity=0 time=0@note_on channel=0 note=58 velocity=110 time=0.049999999999999996@note_on channel=0 note=62 velocity=110 time=0@note_on channel=0 note=67 velocity=110 time=0@note_on channel=1 note=34 velocity=110 time=0@note_on channel=1 note=46 velocity=110 time=0@note_on channel=1 note=34 velocity=0 time=0.14687499999999998@note_on channel=1 note=46 velocity=0 time=0@note_on channel=1 note=34 velocity=110 time=0.0031249999999999997@note_on channel=1 note=46 velocity=110 time=0@note_on channel=0 note=58 velocity=0 time=0.09999999999999999@note_on channel=0 note=62 velocity=0 time=0@note_on channel=0 note=67 velocity=0 time=0@note_on channel=0 note=62 velocity=110 time=0.049999999999999996@note_on channel=0 note=67 velocity=110 time=0@note_on channel=1 note=34 velocity=0 time=0.09999999999999999@note_on channel=1 note=46 velocity=0 time=0@note_on channel=0 note=62 velocity=0 time=0.04687499999999999@note_on channel=0 note=67 velocity=0 time=0@note_on channel=0 note=62 velocity=110 time=0.0031249999999999997@note_on channel=0 note=69 velocity=110 time=0@note_on channel=1 note=34 velocity=110 time=0@note_on channel=1 note=46 velocity=110 time=0@note_on channel=0 note=62 velocity=0 time=0.14687499999999998@note_on channel=0 note=69 velocity=0 time=0@note_on channel=1 note=34 velocity=0 time=0@note_on channel=1 note=46 velocity=0 time=0@control_change channel=0 control=64 value=0 time=0.0031249999999999997@control_change channel=0 control=64 value=127 time=0@note_on channel=0 note=62 velocity=110 time=0@note_on channel=0 note=67 velocity=110 time=0@note_on channel=0 note=70 velocity=110 time=0@control_change channel=1 control=64 value=0 time=0@control_change channel=1 control=64 value=127 time=0@note_on channel=1 note=31 velocity=110 time=0@note_on channel=1 note=43 velocity=110 time=0@note_on channel=0 note=62 velocity=0 time=0.24999999999999997@note_on channel=0 note=67 velocity=0 time=0@note_on channel=0 note=70 velocity=0 time=0@note_on channel=1 note=31 velocity=0 time=0@note_on channel=1 note=43 velocity=0 time=0@note_on channel=0 note=62 velocity=110 time=0.049999999999999996@note_on channel=0 note=67 velocity=110 time=0@note_on channel=0 note=70 velocity=110 time=0@note_on channel=1 note=31 velocity=110 time=0@note_on channel=1 note=43 velocity=110 time=0@note_on channel=1 note=31 velocity=0 time=0.14687499999999998@note_on channel=1 note=43 velocity=0 time=0@note_on channel=1 note=31 velocity=110 time=0.0031249999999999997@note_on channel=1 note=43 velocity=110 time=0@note_on channel=0 note=62 velocity=0 time=0.09999999999999999@note_on channel=0 note=67 velocity=0 time=0@note_on channel=0 note=70 velocity=0 time=0@note_on channel=0 note=65 velocity=110 time=0.049999999999999996@note_on channel=0 note=69 velocity=110 time=0@note_on channel=1 note=31 velocity=0 time=0.09999999999999999@note_on channel=1 note=43 velocity=0 time=0@note_on channel=0 note=65 velocity=0 time=0.04687499999999999@note_on channel=0 note=69 velocity=0 time=0@note_on channel=0 note=64 velocity=110 time=0.0031249999999999997@note_on channel=0 note=67 velocity=110 time=0@note_on channel=1 note=31 velocity=110 time=0@note_on channel=1 note=43 velocity=110 time=0@note_on channel=0 note=64 velocity=0 time=0.14687499999999998@note_on channel=0 note=67 velocity=0 time=0@note_on channel=1 note=31 velocity=0 time=0@note_on channel=1 note=43 velocity=0 time=0@control_change channel=0 control=64 value=0 time=0.0031249999999999997@control_change channel=0 control=64 value=127 time=0@note_on channel=0 note=65 velocity=110 time=0@note_on channel=0 note=69 velocity=110 time=0@control_change channel=1 control=64 value=0 time=0@control_change channel=1 control=64 value=127 time=0@note_on channel=1 note=38 velocity=110 time=0@note_on channel=1 note=50 velocity=110 time=0@note_on channel=0 note=65 velocity=0 time=0.14687499999999998@note_on channel=0 note=69 velocity=0 time=0@note_on channel=0 note=62 velocity=110 time=0.0031249999999999997@note_on channel=1 note=38 velocity=0 time=0.09999999999999999@note_on channel=1 note=50 velocity=0 time=0@note_on channel=1 note=38 velocity=110 time=0.049999999999999996@note_on channel=1 note=50 velocity=110 time=0@note_on channel=0 note=62 velocity=0 time=0.09999999999999999@note_on channel=1 note=38 velocity=0 time=0.04687499999999999@note_on channel=1 note=50 velocity=0 time=0@note_on channel=1 note=38 velocity=110 time=0.0031249999999999997@note_on channel=1 note=50 velocity=110 time=0@note_on channel=0 note=62 velocity=110 time=0.15@note_on channel=1 note=38 velocity=0 time=0.09999999999999999@note_on channel=1 note=50 velocity=0 time=0@note_on channel=0 note=62 velocity=0 time=0.04687499999999999@note_on channel=0 note=64 velocity=110 time=0.0031249999999999997@note_on channel=1 note=38 velocity=110 time=0@note_on channel=1 note=50 velocity=110 time=0@note_on channel=0 note=64 velocity=0 time=0.14687499999999998@note_on channel=1 note=38 velocity=0 time=0@note_on channel=1 note=50 velocity=0 time=0@control_change channel=0 control=64 value=0 time=0.0031249999999999997@control_change channel=0 control=64 value=127 time=0@note_on channel=0 note=58 velocity=110 time=0@note_on channel=0 note=62 velocity=110 time=0@note_on channel=0 note=65 velocity=110 time=0@control_change channel=1 control=64 value=0 time=0@control_change channel=1 control=64 value=127 time=0@note_on channel=1 note=34 velocity=110 time=0@note_on channel=1 note=46 velocity=110 time=0@note_on channel=0 note=58 velocity=0 time=0.24999999999999997@note_on channel=0 note=62 velocity=0 time=0@note_on channel=0 note=65 velocity=0 time=0@note_on channel=1 note=34 velocity=0 time=0@note_on channel=1 note=46 velocity=0 time=0@note_on channel=0 note=58 velocity=110 time=0.049999999999999996@note_on channel=0 note=62 velocity=110 time=0@note_on channel=0 note=65 velocity=110 time=0@note_on channel=1 note=34 velocity=110 time=0@note_on channel=1 note=46 velocity=110 time=0@note_on channel=1 note=34 velocity=0 time=0.14687499999999998@note_on channel=1 note=46 velocity=0 time=0@note_on channel=1 note=34 velocity=110 time=0.0031249999999999997@note_on channel=1 note=46 velocity=110 time=0@note_on channel=0 note=58 velocity=0 time=0.09999999999999999@note_on channel=0 note=62 velocity=0 time=0@note_on channel=0 note=65 velocity=0 time=0@note_on channel=0 note=58 velocity=110 time=0.049999999999999996@note_on channel=0 note=62 velocity=110 time=0@note_on channel=0 note=67 velocity=110 time=0@note_on channel=1 note=34 velocity=0 time=0.09999999999999999@note_on channel=1 note=46 velocity=0 time=0@note_on channel=1 note=34 velocity=110 time=0.049999999999999996@note_on channel=1 note=46 velocity=110 time=0@note_on channel=0 note=58 velocity=0 time=0.09999999999999999@note_on channel=0 note=62 velocity=0 time=0@note_on channel=0 note=67 velocity=0 time=0@note_on channel=1 note=34 velocity=0 time=0.04687499999999999@note_on channel=1 note=46 velocity=0 time=0@control_change channel=0 control=64 value=0 time=0.0031249999999999997@control_change channel=0 control=64 value=127 time=0@note_on channel=0 note=65 velocity=110 time=0@note_on channel=0 note=69 velocity=110 time=0@control_change channel=1 control=64 value=0 time=0@control_change channel=1 control=64 value=127 time=0@note_on channel=1 note=38 velocity=110 time=0@note_on channel=1 note=50 velocity=110 time=0@note_on channel=0 note=65 velocity=0 time=0.14687499999999998@note_on channel=0 note=69 velocity=0 time=0@note_on channel=0 note=62 velocity=110 time=0.0031249999999999997@note_on channel=1 note=38 velocity=0 time=0.09999999999999999@note_on channel=1 note=50 velocity=0 time=0@note_on channel=1 note=38 velocity=110 time=0.049999999999999996@note_on channel=1 note=50 velocity=110 time=0@note_on channel=0 note=62 velocity=0 time=0.09999999999999999@note_on channel=1 note=38 velocity=0 time=0.04687499999999999@note_on channel=1 note=50 velocity=0 time=0@note_on channel=1 note=38 velocity=110 time=0.0031249999999999997@note_on channel=1 note=50 velocity=110 time=0@note_on channel=0 note=62 velocity=110 time=0.15@note_on channel=1 note=38 velocity=0 time=0.09999999999999999@note_on channel=1 note=50 velocity=0 time=0@note_on channel=0 note=62 velocity=0 time=0.04687499999999999@note_on channel=0 note=65 velocity=110 time=0.0031249999999999997@note_on channel=1 note=38 velocity=110 time=0@note_on channel=1 note=50 velocity=110 time=0@note_on channel=0 note=65 velocity=0 time=0.14687499999999998@note_on channel=1 note=38 velocity=0 time=0@note_on channel=1 note=50 velocity=0 time=0@control_change channel=0 control=64 value=0 time=0.0031249999999999997@control_change channel=0 control=64 value=127 time=0@note_on channel=0 note=57 velocity=110 time=0@note_on channel=0 note=61 velocity=110 time=0@note_on channel=0 note=64 velocity=110 time=0@control_change channel=1 control=64 value=0 time=0@control_change channel=1 control=64 value=127 time=0@note_on channel=1 note=33 velocity=110 time=0@note_on channel=1 note=45 velocity=110 time=0@note_on channel=0 note=57 velocity=0 time=0.24999999999999997@note_on channel=0 note=61 velocity=0 time=0@note_on channel=0 note=64 velocity=0 time=0@note_on channel=1 note=33 velocity=0 time=0@note_on channel=1 note=45 velocity=0 time=0@note_on channel=0 note=57 velocity=110 time=0.049999999999999996@note_on channel=0 note=61 velocity=110 time=0@note_on channel=0 note=64 velocity=110 time=0@note_on channel=1 note=33 velocity=110 time=0@note_on channel=1 note=45 velocity=110 time=0@note_on channel=1 note=33 velocity=0 time=0.14687499999999998@note_on channel=1 note=45 velocity=0 time=0@note_on channel=1 note=33 velocity=110 time=0.0031249999999999997@note_on channel=1 note=45 velocity=110 time=0@note_on channel=0 note=57 velocity=0 time=0.09999999999999999@note_on channel=0 note=61 velocity=0 time=0@note_on channel=0 note=64 velocity=0 time=0@note_on channel=0 note=62 velocity=110 time=0.049999999999999996@note_on channel=0 note=65 velocity=110 time=0@note_on channel=1 note=33 velocity=0 time=0.09999999999999999@note_on channel=1 note=45 velocity=0 time=0@note_on channel=0 note=62 velocity=0 time=0.04687499999999999@note_on channel=0 note=65 velocity=0 time=0@note_on channel=0 note=59 velocity=110 time=0.0031249999999999997@note_on channel=0 note=62 velocity=110 time=0@note_on channel=1 note=33 velocity=110 time=0@note_on channel=1 note=45 velocity=110 time=0@note_on channel=0 note=59 velocity=0 time=0.14687499999999998@note_on channel=0 note=62 velocity=0 time=0@note_on channel=1 note=33 velocity=0 time=0@note_on channel=1 note=45 velocity=0 time=0@control_change channel=0 control=64 value=0 time=0.0031249999999999997@control_change channel=0 control=64 value=127 time=0@note_on channel=0 note=57 velocity=110 time=0@note_on channel=0 note=61 velocity=110 time=0@note_on channel=0 note=64 velocity=110 time=0@note_on channel=1 note=33 velocity=110 time=0@note_on channel=1 note=45 velocity=110 time=0@note_on channel=0 note=57 velocity=0 time=0.14687499999999998@note_on channel=0 note=61 velocity=0 time=0@note_on channel=0 note=64 velocity=0 time=0@note_on channel=1 note=33 velocity=0 time=0.103125@note_on channel=1 note=45 velocity=0 time=0@note_on channel=1 note=33 velocity=110 time=0.049999999999999996@note_on channel=1 note=45 velocity=110 time=0@note_on channel=1 note=33 velocity=0 time=0.14687499999999998@note_on channel=1 note=45 velocity=0 time=0@control_change channel=0 control=64 value=0 time=0.0031249999999999997@control_change channel=0 control=64 value=127 time=0@note_on channel=1 note=33 velocity=110 time=0@note_on channel=1 note=45 velocity=110 time=0@note_on channel=0 note=69 velocity=110 time=0.15@note_on channel=1 note=33 velocity=0 time=0.09999999999999999@note_on channel=1 note=45 velocity=0 time=0@note_on channel=0 note=69 velocity=0 time=0.04687499999999999@note_on channel=0 note=72 velocity=110 time=0.0031249999999999997@note_on channel=1 note=33 velocity=110 time=0@note_on channel=1 note=45 velocity=110 time=0@note_on channel=0 note=72 velocity=0 time=0.14687499999999998@note_on channel=1 note=33 velocity=0 time=0@note_on channel=1 note=45 velocity=0 time=0@control_change channel=0 control=64 value=0 time=0.0031249999999999997@control_change channel=0 control=64 value=127 time=0@note_on channel=0 note=65 velocity=110 time=0@note_on channel=0 note=69 velocity=110 time=0@note_on channel=0 note=74 velocity=110 time=0@control_change channel=1 control=64 value=0 time=0@control_change channel=1 control=64 value=127 time=0@note_on channel=1 note=38 velocity=110 time=0@note_on channel=1 note=50 velocity=110 time=0@note_on channel=0 note=65 velocity=0 time=0.24999999999999997@note_on channel=0 note=69 velocity=0 time=0@note_on channel=0 note=74 velocity=0 time=0@note_on channel=1 note=38 velocity=0 time=0@note_on channel=1 note=50 velocity=0 time=0@note_on channel=0 note=65 velocity=110 time=0.049999999999999996@note_on channel=0 note=69 velocity=110 time=0@note_on channel=0 note=74 velocity=110 time=0@note_on channel=1 note=38 velocity=110 time=0@note_on channel=1 note=50 velocity=110 time=0@note_on channel=1 note=38 velocity=0 time=0.14687499999999998@note_on channel=1 note=50 velocity=0 time=0@note_on channel=1 note=38 velocity=110 time=0.0031249999999999997@note_on channel=1 note=50 velocity=110 time=0@note_on channel=0 note=65 velocity=0 time=0.09999999999999999@note_on channel=0 note=69 velocity=0 time=0@note_on channel=0 note=74 velocity=0 time=0@note_on channel=0 note=65 velocity=110 time=0.049999999999999996@note_on channel=0 note=69 velocity=110 time=0@note_on channel=0 note=74 velocity=110 time=0@note_on channel=1 note=38 velocity=0 time=0.09999999999999999@note_on channel=1 note=50 velocity=0 time=0@note_on channel=0 note=65 velocity=0 time=0.04687499999999999@note_on channel=0 note=69 velocity=0 time=0@note_on channel=0 note=74 velocity=0 time=0@note_on channel=0 note=69 velocity=110 time=0.0031249999999999997@note_on channel=0 note=72 velocity=110 time=0@note_on channel=0 note=76 velocity=110 time=0@note_on channel=1 note=36 velocity=110 time=0@note_on channel=1 note=48 velocity=110 time=0@note_on channel=0 note=69 velocity=0 time=0.14687499999999998@note_on channel=0 note=72 velocity=0 time=0@note_on channel=0 note=76 velocity=0 time=0@note_on channel=1 note=36 velocity=0 time=0@note_on channel=1 note=48 velocity=0 time=0@control_change channel=0 control=64 value=0 time=0.0031249999999999997@control_change channel=0 control=64 value=127 time=0@note_on channel=0 note=70 velocity=110 time=0@note_on channel=0 note=74 velocity=110 time=0@note_on channel=0 note=77 velocity=110 time=0@control_change channel=1 control=64 value=0 time=0@control_change channel=1 control=64 value=127 time=0@note_on channel=1 note=34 velocity=110 time=0@note_on channel=1 note=46 velocity=110 time=0@note_on channel=0 note=70 velocity=0 time=0.24999999999999997@note_on channel=0 note=74 velocity=0 time=0@note_on channel=0 note=77 velocity=0 time=0@note_on channel=1 note=34 velocity=0 time=0@note_on channel=1 note=46 velocity=0 time=0@note_on channel=0 note=70 velocity=110 time=0.049999999999999996@note_on channel=0 note=74 velocity=110 time=0@note_on channel=0 note=77 velocity=110 time=0@note_on channel=1 note=34 velocity=110 time=0@note_on channel=1 note=46 velocity=110 time=0@note_on channel=1 note=34 velocity=0 time=0.14687499999999998@note_on channel=1 note=46 velocity=0 time=0@note_on channel=1 note=34 velocity=110 time=0.0031249999999999997@note_on channel=1 note=46 velocity=110 time=0@note_on channel=0 note=70 velocity=0 time=0.09999999999999999@note_on channel=0 note=74 velocity=0 time=0@note_on channel=0 note=77 velocity=0 time=0@note_on channel=0 note=70 velocity=110 time=0.049999999999999996@note_on channel=0 note=74 velocity=110 time=0@note_on channel=0 note=77 velocity=110 time=0@note_on channel=1 note=34 velocity=0 time=0.09999999999999999@note_on channel=1 note=46 velocity=0 time=0@note_on channel=0 note=70 velocity=0 time=0.04687499999999999@note_on channel=0 note=74 velocity=0 time=0@note_on channel=0 note=77 velocity=0 time=0@note_on channel=0 note=74 velocity=110 time=0.0031249999999999997@note_on channel=0 note=79 velocity=110 time=0@note_on channel=1 note=34 velocity=110 time=0@note_on channel=1 note=46 velocity=110 time=0@note_on channel=0 note=74 velocity=0 time=0.14687499999999998@note_on channel=0 note=79 velocity=0 time=0@note_on channel=1 note=34 velocity=0 time=0@note_on channel=1 note=46 velocity=0 time=0@control_change channel=0 control=64 value=0 time=0.0031249999999999997@control_change channel=0 control=64 value=127 time=0@note_on channel=0 note=69 velocity=110 time=0@note_on channel=0 note=72 velocity=110 time=0@note_on channel=0 note=76 velocity=110 time=0@control_change channel=1 control=64 value=0 time=0@control_change channel=1 control=64 value=127 time=0@note_on channel=1 note=33 velocity=110 time=0@note_on channel=1 note=45 velocity=110 time=0@note_on channel=0 note=69 velocity=0 time=0.24999999999999997@note_on channel=0 note=72 velocity=0 time=0@note_on channel=0 note=76 velocity=0 time=0@note_on channel=1 note=33 velocity=0 time=0@note_on channel=1 note=45 velocity=0 time=0@note_on channel=0 note=69 velocity=110 time=0.049999999999999996@note_on channel=0 note=72 velocity=110 time=0@note_on channel=0 note=76 velocity=110 time=0@note_on channel=1 note=33 velocity=110 time=0@note_on channel=1 note=45 velocity=110 time=0@note_on channel=1 note=33 velocity=0 time=0.14687499999999998@note_on channel=1 note=45 velocity=0 time=0@note_on channel=1 note=33 velocity=110 time=0.0031249999999999997@note_on channel=1 note=45 velocity=110 time=0@note_on channel=0 note=69 velocity=0 time=0.09999999999999999@note_on channel=0 note=72 velocity=0 time=0@note_on channel=0 note=76 velocity=0 time=0@note_on channel=0 note=69 velocity=110 time=0.049999999999999996@note_on channel=0 note=74 velocity=110 time=0@note_on channel=1 note=33 velocity=0 time=0.09999999999999999@note_on channel=1 note=45 velocity=0 time=0@note_on channel=0 note=69 velocity=0 time=0.04687499999999999@note_on channel=0 note=74 velocity=0 time=0@note_on channel=0 note=67 velocity=110 time=0.0031249999999999997@note_on channel=0 note=72 velocity=110 time=0@note_on channel=1 note=33 velocity=110 time=0@note_on channel=1 note=45 velocity=110 time=0@note_on channel=0 note=67 velocity=0 time=0.14687499999999998@note_on channel=0 note=72 velocity=0 time=0@note_on channel=1 note=33 velocity=0 time=0@note_on channel=1 note=45 velocity=0 time=0@control_change channel=0 control=64 value=0 time=0.0031249999999999997@control_change channel=0 control=64 value=127 time=0@note_on channel=0 note=69 velocity=110 time=0@note_on channel=0 note=72 velocity=110 time=0@control_change channel=1 control=64 value=0 time=0@control_change channel=1 control=64 value=127 time=0@note_on channel=1 note=38 velocity=110 time=0@note_on channel=1 note=50 velocity=110 time=0@note_on channel=0 note=69 velocity=0 time=0.14687499999999998@note_on channel=0 note=72 velocity=0 time=0@note_on channel=0 note=69 velocity=110 time=0.0031249999999999997@note_on channel=0 note=74 velocity=110 time=0@note_on channel=1 note=38 velocity=0 time=0.09999999999999999@note_on channel=1 note=50 velocity=0 time=0@note_on channel=1 note=38 velocity=110 time=0.049999999999999996@note_on channel=1 note=50 velocity=110 time=0@note_on channel=0 note=69 velocity=0 time=0.09999999999999999@note_on channel=0 note=74 velocity=0 time=0@note_on channel=1 note=38 velocity=0 time=0.04687499999999999@note_on channel=1 note=50 velocity=0 time=0@note_on channel=1 note=38 velocity=110 time=0.0031249999999999997@note_on channel=1 note=50 velocity=110 time=0@note_on channel=0 note=69 velocity=110 time=0.15@note_on channel=1 note=38 velocity=0 time=0.09999999999999999@note_on channel=1 note=50 velocity=0 time=0@note_on channel=0 note=69 velocity=0 time=0.04687499999999999@note_on channel=0 note=72 velocity=110 time=0.0031249999999999997@note_on channel=1 note=38 velocity=110 time=0@note_on channel=1 note=50 velocity=110 time=0@note_on channel=0 note=72 velocity=0 time=0.14687499999999998@note_on channel=1 note=38 velocity=0 time=0@note_on channel=1 note=50 velocity=0 time=0@control_change channel=0 control=64 value=0 time=0.0031249999999999997@control_change channel=0 control=64 value=127 time=0@note_on channel=0 note=65 velocity=110 time=0@note_on channel=0 note=70 velocity=110 time=0@note_on channel=0 note=74 velocity=110 time=0@control_change channel=1 control=64 value=0 time=0@control_change channel=1 control=64 value=127 time=0@note_on channel=1 note=34 velocity=110 time=0@note_on channel=1 note=46 velocity=110 time=0@note_on channel=0 note=65 velocity=0 time=0.24999999999999997@note_on channel=0 note=70 velocity=0 time=0@note_on channel=0 note=74 velocity=0 time=0@note_on channel=1 note=34 velocity=0 time=0@note_on channel=1 note=46 velocity=0 time=0@note_on channel=0 note=65 velocity=110 time=0.049999999999999996@note_on channel=0 note=70 velocity=110 time=0@note_on channel=0 note=74 velocity=110 time=0@note_on channel=1 note=34 velocity=110 time=0@note_on channel=1 note=46 velocity=110 time=0@note_on channel=1 note=34 velocity=0 time=0.14687499999999998@note_on channel=1 note=46 velocity=0 time=0@note_on channel=1 note=34 velocity=110 time=0.0031249999999999997@note_on channel=1 note=46 velocity=110 time=0@note_on channel=0 note=65 velocity=0 time=0.09999999999999999@note_on channel=0 note=70 velocity=0 time=0@note_on channel=0 note=74 velocity=0 time=0@note_on channel=0 note=70 velocity=110 time=0.049999999999999996@note_on channel=0 note=74 velocity=110 time=0@note_on channel=1 note=34 velocity=0 time=0.09999999999999999@note_on channel=1 note=46 velocity=0 time=0@note_on channel=0 note=70 velocity=0 time=0.04687499999999999@note_on channel=0 note=74 velocity=0 time=0@note_on channel=0 note=70 velocity=110 time=0.0031249999999999997@note_on channel=0 note=76 velocity=110 time=0@note_on channel=1 note=34 velocity=110 time=0@note_on channel=1 note=46 velocity=110 time=0@note_on channel=0 note=70 velocity=0 time=0.14687499999999998@note_on channel=0 note=76 velocity=0 time=0@note_on channel=1 note=34 velocity=0 time=0@note_on channel=1 note=46 velocity=0 time=0@control_change channel=0 control=64 value=0 time=0.0031249999999999997@control_change channel=0 control=64 value=127 time=0@note_on channel=0 note=69 velocity=110 time=0@note_on channel=0 note=72 velocity=110 time=0@note_on channel=0 note=77 velocity=110 time=0@control_change channel=1 control=64 value=0 time=0@control_change channel=1 control=64 value=127 time=0@note_on channel=1 note=29 velocity=110 time=0@note_on channel=1 note=41 velocity=110 time=0@note_on channel=0 note=69 velocity=0 time=0.24999999999999997@note_on channel=0 note=72 velocity=0 time=0@note_on channel=0 note=77 velocity=0 time=0@note_on channel=1 note=29 velocity=0 time=0@note_on channel=1 note=41 velocity=0 time=0@note_on channel=0 note=69 velocity=110 time=0.049999999999999996@note_on channel=0 note=72 velocity=110 time=0@note_on channel=0 note=77 velocity=110 time=0@note_on channel=1 note=29 velocity=110 time=0@note_on channel=1 note=41 velocity=110 time=0@note_on channel=1 note=29 velocity=0 time=0.14687499999999998@note_on channel=1 note=41 velocity=0 time=0@note_on channel=1 note=29 velocity=110 time=0.0031249999999999997@note_on channel=1 note=41 velocity=110 time=0@note_on channel=0 note=69 velocity=0 time=0.09999999999999999@note_on channel=0 note=72 velocity=0 time=0@note_on channel=0 note=77 velocity=0 time=0@note_on channel=0 note=72 velocity=110 time=0.049999999999999996@note_on channel=0 note=77 velocity=110 time=0@note_on channel=1 note=29 velocity=0 time=0.09999999999999999@note_on channel=1 note=41 velocity=0 time=0@note_on channel=0 note=72 velocity=0 time=0.04687499999999999@note_on channel=0 note=77 velocity=0 time=0@note_on channel=0 note=72 velocity=110 time=0.0031249999999999997@note_on channel=0 note=79 velocity=110 time=0@note_on channel=1 note=29 velocity=110 time=0@note_on channel=1 note=41 velocity=110 time=0@note_on channel=0 note=72 velocity=0 time=0.14687499999999998@note_on channel=0 note=79 velocity=0 time=0@note_on channel=1 note=29 velocity=0 time=0@note_on channel=1 note=41 velocity=0 time=0@control_change channel=0 control=64 value=0 time=0.0031249999999999997@control_change channel=0 control=64 value=127 time=0@note_on channel=0 note=72 velocity=110 time=0@note_on channel=0 note=76 velocity=110 time=0@control_change channel=1 control=64 value=0 time=0@control_change channel=1 control=64 value=127 time=0@note_on channel=1 note=36 velocity=110 time=0@note_on channel=1 note=48 velocity=110 time=0@note_on channel=0 note=72 velocity=0 time=0.24999999999999997@note_on channel=0 note=76 velocity=0 time=0@note_on channel=1 note=36 velocity=0 time=0@note_on channel=1 note=48 velocity=0 time=0@note_on channel=0 note=72 velocity=110 time=0.049999999999999996@note_on channel=0 note=76 velocity=110 time=0@note_on channel=1 note=36 velocity=110 time=0@note_on channel=1 note=48 velocity=110 time=0@note_on channel=1 note=36 velocity=0 time=0.14687499999999998@note_on channel=1 note=48 velocity=0 time=0@control_change channel=1 control=64 value=0 time=0.0031249999999999997@control_change channel=1 control=64 value=127 time=0@note_on channel=1 note=33 velocity=110 time=0@note_on channel=1 note=45 velocity=110 time=0@note_on channel=0 note=72 velocity=0 time=0.09999999999999999@note_on channel=0 note=76 velocity=0 time=0@note_on channel=0 note=69 velocity=110 time=0.049999999999999996@note_on channel=0 note=74 velocity=110 time=0@note_on channel=1 note=33 velocity=0 time=0.09999999999999999@note_on channel=1 note=45 velocity=0 time=0@note_on channel=0 note=69 velocity=0 time=0.04687499999999999@note_on channel=0 note=74 velocity=0 time=0@note_on channel=0 note=72 velocity=110 time=0.0031249999999999997@note_on channel=1 note=33 velocity=110 time=0@note_on channel=1 note=45 velocity=110 time=0@note_on channel=0 note=72 velocity=0 time=0.14687499999999998@note_on channel=1 note=33 velocity=0 time=0@note_on channel=1 note=45 velocity=0 time=0@control_change channel=0 control=64 value=0 time=0.0031249999999999997@control_change channel=0 control=64 value=127 time=0@note_on channel=0 note=65 velocity=110 time=0@note_on channel=0 note=69 velocity=110 time=0@note_on channel=0 note=74 velocity=110 time=0@control_change channel=1 control=64 value=0 time=0@control_change channel=1 control=64 value=127 time=0@note_on channel=1 note=38 velocity=110 time=0@note_on channel=1 note=50 velocity=110 time=0@note_on channel=0 note=65 velocity=0 time=0.24999999999999997@note_on channel=0 note=69 velocity=0 time=0@note_on channel=0 note=74 velocity=0 time=0@note_on channel=1 note=38 velocity=0 time=0@note_on channel=1 note=50 velocity=0 time=0@note_on channel=1 note=38 velocity=110 time=0.049999999999999996@note_on channel=1 note=50 velocity=110 time=0@note_on channel=1 note=38 velocity=0 time=0.14687499999999998@note_on channel=1 note=50 velocity=0 time=0@note_on channel=1 note=38 velocity=110 time=0.0031249999999999997@note_on channel=1 note=50 velocity=110 time=0@note_on channel=0 note=69 velocity=110 time=0.15@note_on channel=1 note=38 velocity=0 time=0.09999999999999999@note_on channel=1 note=50 velocity=0 time=0@note_on channel=0 note=69 velocity=0 time=0.04687499999999999@note_on channel=0 note=72 velocity=110 time=0.0031249999999999997@note_on channel=1 note=38 velocity=110 time=0@note_on channel=1 note=50 velocity=110 time=0@note_on channel=0 note=72 velocity=0 time=0.14687499999999998@note_on channel=1 note=38 velocity=0 time=0@note_on channel=1 note=50 velocity=0 time=0@control_change channel=0 control=64 value=0 time=0.0031249999999999997@control_change channel=0 control=64 value=127 time=0@note_on channel=0 note=65 velocity=110 time=0@note_on channel=0 note=69 velocity=110 time=0@note_on channel=0 note=74 velocity=110 time=0@control_change channel=1 control=64 value=0 time=0@control_change channel=1 control=64 value=127 time=0@note_on channel=1 note=38 velocity=110 time=0@note_on channel=1 note=50 velocity=110 time=0@note_on channel=0 note=65 velocity=0 time=0.24999999999999997@note_on channel=0 note=69 velocity=0 time=0@note_on channel=0 note=74 velocity=0 time=0@note_on channel=1 note=38 velocity=0 time=0@note_on channel=1 note=50 velocity=0 time=0@note_on channel=0 note=65 velocity=110 time=0.049999999999999996@note_on channel=0 note=69 velocity=110 time=0@note_on channel=0 note=74 velocity=110 time=0@note_on channel=1 note=38 velocity=110 time=0@note_on channel=1 note=50 velocity=110 time=0@note_on channel=1 note=38 velocity=0 time=0.14687499999999998@note_on channel=1 note=50 velocity=0 time=0@note_on channel=1 note=38 velocity=110 time=0.0031249999999999997@note_on channel=1 note=50 velocity=110 time=0@note_on channel=0 note=65 velocity=0 time=0.09999999999999999@note_on channel=0 note=69 velocity=0 time=0@note_on channel=0 note=74 velocity=0 time=0@note_on channel=0 note=69 velocity=110 time=0.049999999999999996@note_on channel=0 note=74 velocity=110 time=0@note_on channel=1 note=38 velocity=0 time=0.09999999999999999@note_on channel=1 note=50 velocity=0 time=0@note_on channel=0 note=69 velocity=0 time=0.04687499999999999@note_on channel=0 note=74 velocity=0 time=0@note_on channel=0 note=69 velocity=110 time=0.0031249999999999997@note_on channel=0 note=77 velocity=110 time=0@note_on channel=1 note=38 velocity=110 time=0@note_on channel=1 note=50 velocity=110 time=0@note_on channel=0 note=69 velocity=0 time=0.14687499999999998@note_on channel=0 note=77 velocity=0 time=0@note_on channel=1 note=38 velocity=0 time=0@note_on channel=1 note=50 velocity=0 time=0@control_change channel=0 control=64 value=0 time=0.0031249999999999997@control_change channel=0 control=64 value=127 time=0@note_on channel=0 note=70 velocity=110 time=0@note_on channel=0 note=74 velocity=110 time=0@note_on channel=0 note=79 velocity=110 time=0@control_change channel=1 control=64 value=0 time=0@control_change channel=1 control=64 value=127 time=0@note_on channel=1 note=34 velocity=110 time=0@note_on channel=1 note=46 velocity=110 time=0@note_on channel=0 note=70 velocity=0 time=0.24999999999999997@note_on channel=0 note=74 velocity=0 time=0@note_on channel=0 note=79 velocity=0 time=0@note_on channel=1 note=34 velocity=0 time=0@note_on channel=1 note=46 velocity=0 time=0@note_on channel=0 note=70 velocity=110 time=0.049999999999999996@note_on channel=0 note=74 velocity=110 time=0@note_on channel=0 note=79 velocity=110 time=0@note_on channel=1 note=34 velocity=110 time=0@note_on channel=1 note=46 velocity=110 time=0@note_on channel=1 note=34 velocity=0 time=0.14687499999999998@note_on channel=1 note=46 velocity=0 time=0@note_on channel=1 note=34 velocity=110 time=0.0031249999999999997@note_on channel=1 note=46 velocity=110 time=0@note_on channel=0 note=70 velocity=0 time=0.09999999999999999@note_on channel=0 note=74 velocity=0 time=0@note_on channel=0 note=79 velocity=0 time=0@note_on channel=0 note=74 velocity=110 time=0.049999999999999996@note_on channel=0 note=79 velocity=110 time=0@note_on channel=1 note=34 velocity=0 time=0.09999999999999999@note_on channel=1 note=46 velocity=0 time=0@note_on channel=0 note=74 velocity=0 time=0.04687499999999999@note_on channel=0 note=79 velocity=0 time=0@note_on channel=0 note=74 velocity=110 time=0.0031249999999999997@note_on channel=0 note=81 velocity=110 time=0@note_on channel=1 note=34 velocity=110 time=0@note_on channel=1 note=46 velocity=110 time=0@note_on channel=0 note=74 velocity=0 time=0.14687499999999998@note_on channel=0 note=81 velocity=0 time=0@note_on channel=1 note=34 velocity=0 time=0@note_on channel=1 note=46 velocity=0 time=0@control_change channel=0 control=64 value=0 time=0.0031249999999999997@control_change channel=0 control=64 value=127 time=0@note_on channel=0 note=74 velocity=110 time=0@note_on channel=0 note=79 velocity=110 time=0@note_on channel=0 note=82 velocity=110 time=0@control_change channel=1 control=64 value=0 time=0@control_change channel=1 control=64 value=127 time=0@note_on channel=1 note=31 velocity=110 time=0@note_on channel=1 note=43 velocity=110 time=0@note_on channel=0 note=74 velocity=0 time=0.24999999999999997@note_on channel=0 note=79 velocity=0 time=0@note_on channel=0 note=82 velocity=0 time=0@note_on channel=1 note=31 velocity=0 time=0@note_on channel=1 note=43 velocity=0 time=0@note_on channel=0 note=74 velocity=110 time=0.049999999999999996@note_on channel=0 note=79 velocity=110 time=0@note_on channel=0 note=82 velocity=110 time=0@note_on channel=1 note=31 velocity=110 time=0@note_on channel=1 note=43 velocity=110 time=0@note_on channel=1 note=31 velocity=0 time=0.14687499999999998@note_on channel=1 note=43 velocity=0 time=0@note_on channel=1 note=31 velocity=110 time=0.0031249999999999997@note_on channel=1 note=43 velocity=110 time=0@note_on channel=0 note=74 velocity=0 time=0.09999999999999999@note_on channel=0 note=79 velocity=0 time=0@note_on channel=0 note=82 velocity=0 time=0@note_on channel=0 note=77 velocity=110 time=0.049999999999999996@note_on channel=0 note=81 velocity=110 time=0@note_on channel=1 note=31 velocity=0 time=0.09999999999999999@note_on channel=1 note=43 velocity=0 time=0@note_on channel=0 note=77 velocity=0 time=0.04687499999999999@note_on channel=0 note=81 velocity=0 time=0@note_on channel=0 note=76 velocity=110 time=0.0031249999999999997@note_on channel=0 note=79 velocity=110 time=0@note_on channel=1 note=31 velocity=110 time=0@note_on channel=1 note=43 velocity=110 time=0@note_on channel=0 note=76 velocity=0 time=0.14687499999999998@note_on channel=0 note=79 velocity=0 time=0@note_on channel=1 note=31 velocity=0 time=0@note_on channel=1 note=43 velocity=0 time=0@control_change channel=0 control=64 value=0 time=0.0031249999999999997@control_change channel=0 control=64 value=127 time=0@note_on channel=0 note=77 velocity=110 time=0@note_on channel=0 note=81 velocity=110 time=0@control_change channel=1 control=64 value=0 time=0@control_change channel=1 control=64 value=127 time=0@note_on channel=1 note=38 velocity=110 time=0@note_on channel=1 note=50 velocity=110 time=0@note_on channel=0 note=77 velocity=0 time=0.14687499999999998@note_on channel=0 note=81 velocity=0 time=0@note_on channel=0 note=74 velocity=110 time=0.0031249999999999997@note_on channel=1 note=38 velocity=0 time=0.09999999999999999@note_on channel=1 note=50 velocity=0 time=0@note_on channel=1 note=38 velocity=110 time=0.049999999999999996@note_on channel=1 note=50 velocity=110 time=0@note_on channel=0 note=74 velocity=0 time=0.09999999999999999@note_on channel=1 note=38 velocity=0 time=0.04687499999999999@note_on channel=1 note=50 velocity=0 time=0@note_on channel=1 note=38 velocity=110 time=0.0031249999999999997@note_on channel=1 note=50 velocity=110 time=0@note_on channel=0 note=74 velocity=110 time=0.15@note_on channel=1 note=38 velocity=0 time=0.09999999999999999@note_on channel=1 note=50 velocity=0 time=0@note_on channel=0 note=74 velocity=0 time=0.04687499999999999@note_on channel=0 note=76 velocity=110 time=0.0031249999999999997@note_on channel=1 note=38 velocity=110 time=0@note_on channel=1 note=50 velocity=110 time=0@note_on channel=0 note=76 velocity=0 time=0.14687499999999998@note_on channel=1 note=38 velocity=0 time=0@note_on channel=1 note=50 velocity=0 time=0@control_change channel=0 control=64 value=0 time=0.0031249999999999997@control_change channel=0 control=64 value=127 time=0@note_on channel=0 note=70 velocity=110 time=0@note_on channel=0 note=74 velocity=110 time=0@note_on channel=0 note=77 velocity=110 time=0@control_change channel=1 control=64 value=0 time=0@control_change channel=1 control=64 value=127 time=0@note_on channel=1 note=34 velocity=110 time=0@note_on channel=1 note=46 velocity=110 time=0@note_on channel=0 note=70 velocity=0 time=0.24999999999999997@note_on channel=0 note=74 velocity=0 time=0@note_on channel=0 note=77 velocity=0 time=0@note_on channel=1 note=34 velocity=0 time=0@note_on channel=1 note=46 velocity=0 time=0@note_on channel=0 note=70 velocity=110 time=0.049999999999999996@note_on channel=0 note=74 velocity=110 time=0@note_on channel=0 note=77 velocity=110 time=0@note_on channel=1 note=34 velocity=110 time=0@note_on channel=1 note=46 velocity=110 time=0@note_on channel=1 note=34 velocity=0 time=0.14687499999999998@note_on channel=1 note=46 velocity=0 time=0@note_on channel=1 note=34 velocity=110 time=0.0031249999999999997@note_on channel=1 note=46 velocity=110 time=0@note_on channel=0 note=70 velocity=0 time=0.09999999999999999@note_on channel=0 note=74 velocity=0 time=0@note_on channel=0 note=77 velocity=0 time=0@note_on channel=0 note=70 velocity=110 time=0.049999999999999996@note_on channel=0 note=74 velocity=110 time=0@note_on channel=0 note=79 velocity=110 time=0@note_on channel=1 note=34 velocity=0 time=0.09999999999999999@note_on channel=1 note=46 velocity=0 time=0@note_on channel=1 note=34 velocity=110 time=0.049999999999999996@note_on channel=1 note=46 velocity=110 time=0@note_on channel=0 note=70 velocity=0 time=0.09999999999999999@note_on channel=0 note=74 velocity=0 time=0@note_on channel=0 note=79 velocity=0 time=0@note_on channel=1 note=34 velocity=0 time=0.04687499999999999@note_on channel=1 note=46 velocity=0 time=0@control_change channel=0 control=64 value=0 time=0.0031249999999999997@control_change channel=0 control=64 value=127 time=0@note_on channel=0 note=77 velocity=110 time=0@note_on channel=0 note=81 velocity=110 time=0@control_change channel=1 control=64 value=0 time=0@control_change channel=1 control=64 value=127 time=0@note_on channel=1 note=38 velocity=110 time=0@note_on channel=1 note=50 velocity=110 time=0@note_on channel=0 note=77 velocity=0 time=0.14687499999999998@note_on channel=0 note=81 velocity=0 time=0@note_on channel=0 note=74 velocity=110 time=0.0031249999999999997@note_on channel=1 note=38 velocity=0 time=0.09999999999999999@note_on channel=1 note=50 velocity=0 time=0@note_on channel=1 note=38 velocity=110 time=0.049999999999999996@note_on channel=1 note=50 velocity=110 time=0@note_on channel=0 note=74 velocity=0 time=0.09999999999999999@note_on channel=1 note=38 velocity=0 time=0.04687499999999999@note_on channel=1 note=50 velocity=0 time=0@note_on channel=1 note=38 velocity=110 time=0.0031249999999999997@note_on channel=1 note=50 velocity=110 time=0@note_on channel=0 note=74 velocity=110 time=0.15@note_on channel=1 note=38 velocity=0 time=0.09999999999999999@note_on channel=1 note=50 velocity=0 time=0@note_on channel=0 note=74 velocity=0 time=0.04687499999999999@note_on channel=0 note=77 velocity=110 time=0.0031249999999999997@note_on channel=1 note=38 velocity=110 time=0@note_on channel=1 note=50 velocity=110 time=0@note_on channel=0 note=77 velocity=0 time=0.14687499999999998@note_on channel=1 note=38 velocity=0 time=0@note_on channel=1 note=50 velocity=0 time=0@control_change channel=0 control=64 value=0 time=0.0031249999999999997@control_change channel=0 control=64 value=127 time=0@note_on channel=0 note=69 velocity=110 time=0@note_on channel=0 note=73 velocity=110 time=0@note_on channel=0 note=76 velocity=110 time=0@control_change channel=1 control=64 value=0 time=0@control_change channel=1 control=64 value=127 time=0@note_on channel=1 note=33 velocity=110 time=0@note_on channel=1 note=45 velocity=110 time=0@note_on channel=0 note=69 velocity=0 time=0.24999999999999997@note_on channel=0 note=73 velocity=0 time=0@note_on channel=0 note=76 velocity=0 time=0@note_on channel=1 note=33 velocity=0 time=0@note_on channel=1 note=45 velocity=0 time=0@note_on channel=0 note=69 velocity=110 time=0.049999999999999996@note_on channel=0 note=73 velocity=110 time=0@note_on channel=0 note=76 velocity=110 time=0@note_on channel=1 note=33 velocity=110 time=0@note_on channel=1 note=45 velocity=110 time=0@note_on channel=1 note=33 velocity=0 time=0.14687499999999998@note_on channel=1 note=45 velocity=0 time=0@note_on channel=1 note=33 velocity=110 time=0.0031249999999999997@note_on channel=1 note=45 velocity=110 time=0@note_on channel=0 note=69 velocity=0 time=0.09999999999999999@note_on channel=0 note=73 velocity=0 time=0@note_on channel=0 note=76 velocity=0 time=0@note_on channel=0 note=74 velocity=110 time=0.049999999999999996@note_on channel=1 note=33 velocity=0 time=0.09999999999999999@note_on channel=1 note=45 velocity=0 time=0@note_on channel=0 note=74 velocity=0 time=0.04687499999999999@note_on channel=0 note=73 velocity=110 time=0.0031249999999999997@note_on channel=1 note=33 velocity=110 time=0@note_on channel=1 note=45 velocity=110 time=0@note_on channel=0 note=73 velocity=0 time=0.14687499999999998@note_on channel=1 note=33 velocity=0 time=0@note_on channel=1 note=45 velocity=0 time=0@control_change channel=0 control=64 value=0 time=0.0031249999999999997@control_change channel=0 control=64 value=127 time=0@note_on channel=0 note=69 velocity=110 time=0@note_on channel=0 note=74 velocity=110 time=0@control_change channel=1 control=64 value=0 time=0@control_change channel=1 control=64 value=127 time=0@note_on channel=1 note=38 velocity=110 time=0@note_on channel=1 note=50 velocity=110 time=0@note_on channel=0 note=69 velocity=0 time=0.24999999999999997@note_on channel=0 note=74 velocity=0 time=0@note_on channel=1 note=38 velocity=0 time=0@note_on channel=1 note=50 velocity=0 time=0@note_on channel=0 note=69 velocity=110 time=0.049999999999999996@note_on channel=0 note=74 velocity=110 time=0@note_on channel=1 note=38 velocity=110 time=0@note_on channel=1 note=50 velocity=110 time=0@note_on channel=0 note=69 velocity=0 time=0.24999999999999997@note_on channel=0 note=74 velocity=0 time=0@note_on channel=1 note=38 velocity=0 time=0@note_on channel=1 note=50 velocity=0 time=0@control_change channel=0 control=64 value=0 time=0.049999999999999996@control_change channel=0 control=64 value=127 time=0@note_on channel=0 note=69 velocity=110 time=0@note_on channel=0 note=72 velocity=110 time=0@note_on channel=0 note=76 velocity=110 time=0@control_change channel=1 control=64 value=0 time=0@control_change channel=1 control=64 value=127 time=0@note_on channel=1 note=36 velocity=110 time=0@note_on channel=1 note=48 velocity=110 time=0@note_on channel=0 note=69 velocity=0 time=0.24999999999999997@note_on channel=0 note=72 velocity=0 time=0@note_on channel=0 note=76 velocity=0 time=0@note_on channel=1 note=36 velocity=0 time=0@note_on channel=1 note=48 velocity=0 time=0@control_change channel=0 control=64 value=0 time=0.049999999999999996@control_change channel=0 control=64 value=127 time=0@note_on channel=0 note=72 velocity=110 time=0@note_on channel=0 note=74 velocity=110 time=0@note_on channel=0 note=77 velocity=110 time=0@note_on channel=1 note=36 velocity=110 time=0@note_on channel=1 note=48 velocity=110 time=0@note_on channel=0 note=72 velocity=0 time=0.24999999999999997@note_on channel=0 note=74 velocity=0 time=0@note_on channel=0 note=77 velocity=0 time=0@note_on channel=1 note=36 velocity=0 time=0@note_on channel=1 note=48 velocity=0 time=0@note_on channel=0 note=77 velocity=110 time=0.049999999999999996@note_on channel=1 note=36 velocity=110 time=0@note_on channel=1 note=48 velocity=110 time=0@note_on channel=0 note=77 velocity=0 time=0.14687499999999998@note_on channel=0 note=77 velocity=110 time=0.0031249999999999997@note_on channel=1 note=36 velocity=0 time=0.09999999999999999@note_on channel=1 note=48 velocity=0 time=0@note_on channel=0 note=77 velocity=0 time=0.04687499999999999@control_change channel=0 control=64 value=0 time=0.0031249999999999997@control_change channel=0 control=64 value=127 time=0@note_on channel=0 note=70 velocity=110 time=0@note_on channel=0 note=74 velocity=110 time=0@note_on channel=0 note=79 velocity=110 time=0@control_change channel=1 control=64 value=0 time=0@control_change channel=1 control=64 value=127 time=0@note_on channel=1 note=34 velocity=110 time=0@note_on channel=1 note=46 velocity=110 time=0@note_on channel=0 note=70 velocity=0 time=0.24999999999999997@note_on channel=0 note=74 velocity=0 time=0@note_on channel=0 note=79 velocity=0 time=0@note_on channel=1 note=34 velocity=0 time=0@note_on channel=1 note=46 velocity=0 time=0@control_change channel=0 control=64 value=0 time=0.049999999999999996@control_change channel=0 control=64 value=127 time=0@note_on channel=0 note=74 velocity=110 time=0@note_on channel=0 note=81 velocity=110 time=0@control_change channel=1 control=64 value=0 time=0@control_change channel=1 control=64 value=127 time=0@note_on channel=1 note=33 velocity=110 time=0@note_on channel=1 note=45 velocity=110 time=0@note_on channel=0 note=74 velocity=0 time=0.14687499999999998@note_on channel=0 note=81 velocity=0 time=0@note_on channel=0 note=77 velocity=110 time=0.0031249999999999997@note_on channel=1 note=33 velocity=0 time=0.09999999999999999@note_on channel=1 note=45 velocity=0 time=0@note_on channel=0 note=77 velocity=0 time=0.04687499999999999@note_on channel=1 note=33 velocity=110 time=0.0031249999999999997@note_on channel=1 note=45 velocity=110 time=0@note_on channel=1 note=33 velocity=0 time=0.14687499999999998@note_on channel=1 note=45 velocity=0 time=0@note_on channel=1 note=33 velocity=110 time=0.0031249999999999997@note_on channel=1 note=45 velocity=110 time=0@note_on channel=0 note=69 velocity=110 time=0.15@note_on channel=0 note=77 velocity=110 time=0@note_on channel=1 note=33 velocity=0 time=0.09999999999999999@note_on channel=1 note=45 velocity=0 time=0@note_on channel=0 note=69 velocity=0 time=0.04687499999999999@note_on channel=0 note=77 velocity=0 time=0@note_on channel=0 note=69 velocity=110 time=0.0031249999999999997@note_on channel=0 note=74 velocity=110 time=0@note_on channel=1 note=33 velocity=110 time=0@note_on channel=1 note=45 velocity=110 time=0@note_on channel=0 note=69 velocity=0 time=0.14687499999999998@note_on channel=0 note=74 velocity=0 time=0@note_on channel=1 note=33 velocity=0 time=0@note_on channel=1 note=45 velocity=0 time=0@note_on channel=0 note=69 velocity=110 time=0.0031249999999999997@note_on channel=1 note=33 velocity=110 time=0@note_on channel=1 note=45 velocity=110 time=0@note_on channel=0 note=69 velocity=0 time=0.14687499999999998@note_on channel=1 note=33 velocity=0 time=0.103125@note_on channel=1 note=45 velocity=0 time=0@note_on channel=1 note=33 velocity=110 time=0.049999999999999996@note_on channel=1 note=45 velocity=110 time=0@note_on channel=1 note=33 velocity=0 time=0.14687499999999998@note_on channel=1 note=45 velocity=0 time=0@note_on channel=1 note=33 velocity=110 time=0.0031249999999999997@note_on channel=1 note=45 velocity=110 time=0@note_on channel=1 note=33 velocity=0 time=0.24999999999999997@note_on channel=1 note=45 velocity=0 time=0@note_on channel=1 note=33 velocity=110 time=0.049999999999999996@note_on channel=1 note=45 velocity=110 time=0@note_on channel=1 note=33 velocity=0 time=0.14687499999999998@note_on channel=1 note=45 velocity=0 time=0@control_change channel=0 control=64 value=0 time=0.0031249999999999997@control_change channel=0 control=64 value=127 time=0@note_on channel=0 note=74 velocity=110 time=0@note_on channel=0 note=79 velocity=110 time=0@note_on channel=0 note=82 velocity=110 time=0@control_change channel=1 control=64 value=0 time=0@control_change channel=1 control=64 value=127 time=0@note_on channel=1 note=31 velocity=110 time=0@note_on channel=1 note=43 velocity=110 time=0@note_on channel=0 note=74 velocity=0 time=0.14687499999999998@note_on channel=0 note=79 velocity=0 time=0@note_on channel=0 note=82 velocity=0 time=0@note_on channel=1 note=31 velocity=0 time=0.103125@note_on channel=1 note=43 velocity=0 time=0@note_on channel=1 note=31 velocity=110 time=0.049999999999999996@note_on channel=1 note=43 velocity=110 time=0@note_on channel=1 note=31 velocity=0 time=0.14687499999999998@note_on channel=1 note=43 velocity=0 time=0@note_on channel=1 note=31 velocity=110 time=0.0031249999999999997@note_on channel=1 note=43 velocity=110 time=0@note_on channel=0 note=70 velocity=110 time=0.15@note_on channel=0 note=79 velocity=110 time=0@note_on channel=1 note=31 velocity=0 time=0.09999999999999999@note_on channel=1 note=43 velocity=0 time=0@note_on channel=0 note=70 velocity=0 time=0.04687499999999999@note_on channel=0 note=79 velocity=0 time=0@note_on channel=0 note=70 velocity=110 time=0.0031249999999999997@note_on channel=0 note=74 velocity=110 time=0@note_on channel=1 note=31 velocity=110 time=0@note_on channel=1 note=43 velocity=110 time=0@note_on channel=0 note=70 velocity=0 time=0.14687499999999998@note_on channel=0 note=74 velocity=0 time=0@note_on channel=1 note=31 velocity=0 time=0@note_on channel=1 note=43 velocity=0 time=0@note_on channel=0 note=70 velocity=110 time=0.0031249999999999997@note_on channel=1 note=31 velocity=110 time=0@note_on channel=1 note=43 velocity=110 time=0@note_on channel=0 note=70 velocity=0 time=0.14687499999999998@note_on channel=1 note=31 velocity=0 time=0.103125@note_on channel=1 note=43 velocity=0 time=0@note_on channel=1 note=31 velocity=110 time=0.049999999999999996@note_on channel=1 note=43 velocity=110 time=0@note_on channel=1 note=31 velocity=0 time=0.14687499999999998@note_on channel=1 note=43 velocity=0 time=0@note_on channel=1 note=31 velocity=110 time=0.0031249999999999997@note_on channel=1 note=43 velocity=110 time=0@note_on channel=1 note=31 velocity=0 time=0.24999999999999997@note_on channel=1 note=43 velocity=0 time=0@note_on channel=1 note=31 velocity=110 time=0.049999999999999996@note_on channel=1 note=43 velocity=110 time=0@note_on channel=1 note=31 velocity=0 time=0.14687499999999998@note_on channel=1 note=43 velocity=0 time=0@control_change channel=0 control=64 value=0 time=0.0031249999999999997@control_change channel=0 control=64 value=127 time=0@note_on channel=0 note=61 velocity=110 time=0@note_on channel=0 note=64 velocity=110 time=0@control_change channel=1 control=64 value=0 time=0@control_change channel=1 control=64 value=127 time=0@note_on channel=1 note=33 velocity=110 time=0@note_on channel=1 note=45 velocity=110 time=0@note_on channel=0 note=61 velocity=0 time=0.14687499999999998@note_on channel=0 note=64 velocity=0 time=0@note_on channel=0 note=61 velocity=110 time=0.0031249999999999997@note_on channel=0 note=64 velocity=110 time=0@note_on channel=1 note=33 velocity=0 time=0.09999999999999999@note_on channel=1 note=45 velocity=0 time=0@note_on channel=1 note=33 velocity=110 time=0.049999999999999996@note_on channel=1 note=45 velocity=110 time=0@note_on channel=0 note=61 velocity=0 time=0.09999999999999999@note_on channel=0 note=64 velocity=0 time=0@note_on channel=1 note=33 velocity=0 time=0.04687499999999999@note_on channel=1 note=45 velocity=0 time=0@note_on channel=0 note=55 velocity=110 time=0.0031249999999999997@note_on channel=0 note=62 velocity=110 time=0@control_change channel=1 control=64 value=0 time=0@control_change channel=1 control=64 value=127 time=0@note_on channel=1 note=33 velocity=110 time=0@note_on channel=1 note=45 velocity=110 time=0@note_on channel=1 note=33 velocity=0 time=0.24999999999999997@note_on channel=1 note=45 velocity=0 time=0@note_on channel=1 note=33 velocity=110 time=0.049999999999999996@note_on channel=1 note=45 velocity=110 time=0@note_on channel=0 note=55 velocity=0 time=0.09999999999999999@note_on channel=0 note=62 velocity=0 time=0@note_on channel=1 note=33 velocity=0 time=0.04687499999999999@note_on channel=1 note=45 velocity=0 time=0@control_change channel=0 control=64 value=0 time=0.0031249999999999997@control_change channel=0 control=64 value=127 time=0@note_on channel=0 note=57 velocity=110 time=0@note_on channel=0 note=61 velocity=110 time=0@note_on channel=0 note=65 velocity=110 time=0@note_on channel=1 note=33 velocity=110 time=0@note_on channel=1 note=45 velocity=110 time=0@note_on channel=1 note=33 velocity=0 time=0.24999999999999997@note_on channel=1 note=45 velocity=0 time=0@note_on channel=1 note=33 velocity=110 time=0.049999999999999996@note_on channel=1 note=45 velocity=110 time=0@note_on channel=0 note=57 velocity=0 time=0.09999999999999999@note_on channel=0 note=61 velocity=0 time=0@note_on channel=0 note=65 velocity=0 time=0@note_on channel=1 note=33 velocity=0 time=0.04687499999999999@note_on channel=1 note=45 velocity=0 time=0@note_on channel=1 note=33 velocity=110 time=0.0031249999999999997@note_on channel=1 note=45 velocity=110 time=0@note_on channel=0 note=65 velocity=110 time=0.15@note_on channel=1 note=33 velocity=0 time=0.09999999999999999@note_on channel=1 note=45 velocity=0 time=0@note_on channel=0 note=65 velocity=0 time=0.04687499999999999@note_on channel=0 note=67 velocity=110 time=0.0031249999999999997@note_on channel=1 note=33 velocity=110 time=0@note_on channel=1 note=45 velocity=110 time=0@note_on channel=0 note=67 velocity=0 time=0.14687499999999998@note_on channel=1 note=33 velocity=0 time=0@note_on channel=1 note=45 velocity=0 time=0@control_change channel=0 control=64 value=0 time=0.0031249999999999997@control_change channel=0 control=64 value=127 time=0@note_on channel=0 note=62 velocity=110 time=0@note_on channel=0 note=65 velocity=110 time=0@note_on channel=0 note=69 velocity=110 time=0@control_change channel=1 control=64 value=0 time=0@control_change channel=1 control=64 value=127 time=0@note_on channel=1 note=38 velocity=110 time=0@note_on channel=1 note=50 velocity=110 time=0@note_on channel=0 note=62 velocity=0 time=0.24999999999999997@note_on channel=0 note=65 velocity=0 time=0@note_on channel=0 note=69 velocity=0 time=0@note_on channel=1 note=38 velocity=0 time=0@note_on channel=1 note=50 velocity=0 time=0@note_on channel=0 note=62 velocity=110 time=0.049999999999999996@note_on channel=0 note=65 velocity=110 time=0@note_on channel=0 note=69 velocity=110 time=0@note_on channel=1 note=38 velocity=110 time=0@note_on channel=1 note=50 velocity=110 time=0@note_on channel=1 note=38 velocity=0 time=0.14687499999999998@note_on channel=1 note=50 velocity=0 time=0@note_on channel=1 note=38 velocity=110 time=0.0031249999999999997@note_on channel=1 note=50 velocity=110 time=0@note_on channel=0 note=62 velocity=0 time=0.09999999999999999@note_on channel=0 note=65 velocity=0 time=0@note_on channel=0 note=69 velocity=0 time=0@note_on channel=0 note=62 velocity=110 time=0.049999999999999996@note_on channel=0 note=65 velocity=110 time=0@note_on channel=0 note=69 velocity=110 time=0@note_on channel=1 note=38 velocity=0 time=0.09999999999999999@note_on channel=1 note=50 velocity=0 time=0@note_on channel=1 note=38 velocity=110 time=0.049999999999999996@note_on channel=1 note=50 velocity=110 time=0@note_on channel=0 note=62 velocity=0 time=0.09999999999999999@note_on channel=0 note=65 velocity=0 time=0@note_on channel=0 note=69 velocity=0 time=0@note_on channel=1 note=38 velocity=0 time=0.04687499999999999@note_on channel=1 note=50 velocity=0 time=0@note_on channel=0 note=62 velocity=110 time=0.0031249999999999997@note_on channel=0 note=65 velocity=110 time=0@note_on channel=0 note=70 velocity=110 time=0@note_on channel=1 note=38 velocity=110 time=0@note_on channel=1 note=50 velocity=110 time=0@note_on channel=0 note=62 velocity=0 time=0.14687499999999998@note_on channel=0 note=65 velocity=0 time=0@note_on channel=0 note=70 velocity=0 time=0@control_change channel=0 control=64 value=0 time=0.0031249999999999997@control_change channel=0 control=64 value=127 time=0@note_on channel=0 note=62 velocity=110 time=0@note_on channel=0 note=65 velocity=110 time=0@note_on channel=0 note=69 velocity=110 time=0@note_on channel=1 note=38 velocity=0 time=0.09999999999999999@note_on channel=1 note=50 velocity=0 time=0@note_on channel=0 note=62 velocity=0 time=0.04687499999999999@note_on channel=0 note=65 velocity=0 time=0@note_on channel=0 note=69 velocity=0 time=0@note_on channel=1 note=38 velocity=110 time=0.0031249999999999997@note_on channel=1 note=50 velocity=110 time=0@note_on channel=1 note=38 velocity=0 time=0.14687499999999998@note_on channel=1 note=50 velocity=0 time=0@note_on channel=1 note=38 velocity=110 time=0.0031249999999999997@note_on channel=1 note=50 velocity=110 time=0@note_on channel=1 note=38 velocity=0 time=0.14687499999999998@note_on channel=1 note=50 velocity=0 time=0@note_on channel=1 note=38 velocity=110 time=0.0031249999999999997@note_on channel=1 note=50 velocity=110 time=0@note_on channel=1 note=38 velocity=0 time=0.14687499999999998@note_on channel=1 note=50 velocity=0 time=0@note_on channel=1 note=38 velocity=110 time=0.0031249999999999997@note_on channel=1 note=50 velocity=110 time=0@note_on channel=1 note=38 velocity=0 time=0.14687499999999998@note_on channel=1 note=50 velocity=0 time=0@control_change channel=0 control=64 value=0 time=0.0031249999999999997@control_change channel=0 control=64 value=127 time=0@note_on channel=0 note=60 velocity=110 time=0@note_on channel=0 note=64 velocity=110 time=0@note_on channel=0 note=67 velocity=110 time=0@control_change channel=1 control=64 value=0 time=0@control_change channel=1 control=64 value=127 time=0@note_on channel=1 note=36 velocity=110 time=0@note_on channel=1 note=48 velocity=110 time=0@note_on channel=0 note=60 velocity=0 time=0.24999999999999997@note_on channel=0 note=64 velocity=0 time=0@note_on channel=0 note=67 velocity=0 time=0@note_on channel=1 note=36 velocity=0 time=0@note_on channel=1 note=48 velocity=0 time=0@note_on channel=0 note=60 velocity=110 time=0.049999999999999996@note_on channel=0 note=64 velocity=110 time=0@note_on channel=0 note=67 velocity=110 time=0@note_on channel=1 note=36 velocity=110 time=0@note_on channel=1 note=48 velocity=110 time=0@note_on channel=1 note=36 velocity=0 time=0.14687499999999998@note_on channel=1 note=48 velocity=0 time=0@note_on channel=1 note=36 velocity=110 time=0.0031249999999999997@note_on channel=1 note=48 velocity=110 time=0@note_on channel=0 note=60 velocity=0 time=0.09999999999999999@note_on channel=0 note=64 velocity=0 time=0@note_on channel=0 note=67 velocity=0 time=0@note_on channel=0 note=60 velocity=110 time=0.049999999999999996@note_on channel=0 note=64 velocity=110 time=0@note_on channel=0 note=67 velocity=110 time=0@note_on channel=1 note=36 velocity=0 time=0.09999999999999999@note_on channel=1 note=48 velocity=0 time=0@note_on channel=1 note=36 velocity=110 time=0.049999999999999996@note_on channel=1 note=48 velocity=110 time=0@note_on channel=0 note=60 velocity=0 time=0.09999999999999999@note_on channel=0 note=64 velocity=0 time=0@note_on channel=0 note=67 velocity=0 time=0@note_on channel=1 note=36 velocity=0 time=0.04687499999999999@note_on channel=1 note=48 velocity=0 time=0@note_on channel=0 note=60 velocity=110 time=0.0031249999999999997@note_on channel=0 note=64 velocity=110 time=0@note_on channel=0 note=67 velocity=110 time=0@control_change channel=1 control=64 value=0 time=0@control_change channel=1 control=64 value=127 time=0@note_on channel=1 note=41 velocity=110 time=0@note_on channel=1 note=53 velocity=110 time=0@note_on channel=0 note=60 velocity=0 time=0.14687499999999998@note_on channel=0 note=64 velocity=0 time=0@note_on channel=0 note=67 velocity=0 time=0@control_change channel=0 control=64 value=0 time=0.0031249999999999997@control_change channel=0 control=64 value=127 time=0@note_on channel=0 note=60 velocity=110 time=0@note_on channel=0 note=65 velocity=110 time=0@note_on channel=0 note=69 velocity=110 time=0@note_on channel=1 note=41 velocity=0 time=0.09999999999999999@note_on channel=1 note=53 velocity=0 time=0@note_on channel=0 note=60 velocity=0 time=0.04687499999999999@note_on channel=0 note=65 velocity=0 time=0@note_on channel=0 note=69 velocity=0 time=0@note_on channel=1 note=41 velocity=110 time=0.0031249999999999997@note_on channel=1 note=53 velocity=110 time=0@note_on channel=1 note=41 velocity=0 time=0.14687499999999998@note_on channel=1 note=53 velocity=0 time=0@note_on channel=1 note=41 velocity=110 time=0.0031249999999999997@note_on channel=1 note=53 velocity=110 time=0@note_on channel=1 note=41 velocity=0 time=0.14687499999999998@note_on channel=1 note=53 velocity=0 time=0@note_on channel=1 note=41 velocity=110 time=0.0031249999999999997@note_on channel=1 note=53 velocity=110 time=0@note_on channel=1 note=41 velocity=0 time=0.14687499999999998@note_on channel=1 note=53 velocity=0 time=0@note_on channel=1 note=41 velocity=110 time=0.0031249999999999997@note_on channel=1 note=53 velocity=110 time=0@note_on channel=1 note=41 velocity=0 time=0.14687499999999998@note_on channel=1 note=53 velocity=0 time=0@control_change channel=0 control=64 value=0 time=0.0031249999999999997@control_change channel=0 control=64 value=127 time=0@note_on channel=0 note=62 velocity=110 time=0@note_on channel=0 note=65 velocity=110 time=0@note_on channel=0 note=69 velocity=110 time=0@control_change channel=1 control=64 value=0 time=0@control_change channel=1 control=64 value=127 time=0@note_on channel=1 note=38 velocity=110 time=0@note_on channel=1 note=50 velocity=110 time=0@note_on channel=0 note=62 velocity=0 time=0.24999999999999997@note_on channel=0 note=65 velocity=0 time=0@note_on channel=0 note=69 velocity=0 time=0@note_on channel=1 note=38 velocity=0 time=0@note_on channel=1 note=50 velocity=0 time=0@note_on channel=0 note=62 velocity=110 time=0.049999999999999996@note_on channel=0 note=65 velocity=110 time=0@note_on channel=0 note=69 velocity=110 time=0@note_on channel=1 note=38 velocity=110 time=0@note_on channel=1 note=50 velocity=110 time=0@note_on channel=1 note=38 velocity=0 time=0.14687499999999998@note_on channel=1 note=50 velocity=0 time=0@note_on channel=1 note=38 velocity=110 time=0.0031249999999999997@note_on channel=1 note=50 velocity=110 time=0@note_on channel=0 note=62 velocity=0 time=0.09999999999999999@note_on channel=0 note=65 velocity=0 time=0@note_on channel=0 note=69 velocity=0 time=0@note_on channel=0 note=62 velocity=110 time=0.049999999999999996@note_on channel=0 note=65 velocity=110 time=0@note_on channel=0 note=69 velocity=110 time=0@note_on channel=1 note=38 velocity=0 time=0.09999999999999999@note_on channel=1 note=50 velocity=0 time=0@note_on channel=1 note=38 velocity=110 time=0.049999999999999996@note_on channel=1 note=50 velocity=110 time=0@note_on channel=0 note=62 velocity=0 time=0.09999999999999999@note_on channel=0 note=65 velocity=0 time=0@note_on channel=0 note=69 velocity=0 time=0@note_on channel=1 note=38 velocity=0 time=0.04687499999999999@note_on channel=1 note=50 velocity=0 time=0@note_on channel=0 note=62 velocity=110 time=0.0031249999999999997@note_on channel=0 note=65 velocity=110 time=0@note_on channel=0 note=70 velocity=110 time=0@note_on channel=1 note=38 velocity=110 time=0@note_on channel=1 note=50 velocity=110 time=0@note_on channel=0 note=62 velocity=0 time=0.14687499999999998@note_on channel=0 note=65 velocity=0 time=0@note_on channel=0 note=70 velocity=0 time=0@control_change channel=0 control=64 value=0 time=0.0031249999999999997@control_change channel=0 control=64 value=127 time=0@note_on channel=0 note=62 velocity=110 time=0@note_on channel=0 note=65 velocity=110 time=0@note_on channel=0 note=69 velocity=110 time=0@note_on channel=1 note=38 velocity=0 time=0.09999999999999999@note_on channel=1 note=50 velocity=0 time=0@note_on channel=0 note=62 velocity=0 time=0.04687499999999999@note_on channel=0 note=65 velocity=0 time=0@note_on channel=0 note=69 velocity=0 time=0@note_on channel=1 note=38 velocity=110 time=0.0031249999999999997@note_on channel=1 note=50 velocity=110 time=0@note_on channel=1 note=38 velocity=0 time=0.14687499999999998@note_on channel=1 note=50 velocity=0 time=0@note_on channel=1 note=38 velocity=110 time=0.0031249999999999997@note_on channel=1 note=50 velocity=110 time=0@note_on channel=1 note=38 velocity=0 time=0.14687499999999998@note_on channel=1 note=50 velocity=0 time=0@note_on channel=1 note=38 velocity=110 time=0.0031249999999999997@note_on channel=1 note=50 velocity=110 time=0@note_on channel=1 note=38 velocity=0 time=0.14687499999999998@note_on channel=1 note=50 velocity=0 time=0@note_on channel=1 note=38 velocity=110 time=0.0031249999999999997@note_on channel=1 note=50 velocity=110 time=0@note_on channel=1 note=38 velocity=0 time=0.14687499999999998@note_on channel=1 note=50 velocity=0 time=0@control_change channel=0 control=64 value=0 time=0.0031249999999999997@control_change channel=0 control=64 value=127 time=0@note_on channel=0 note=61 velocity=110 time=0@note_on channel=0 note=64 velocity=110 time=0@note_on channel=0 note=67 velocity=110 time=0@control_change channel=1 control=64 value=0 time=0@control_change channel=1 control=64 value=127 time=0@note_on channel=1 note=33 velocity=110 time=0@note_on channel=1 note=45 velocity=110 time=0@note_on channel=0 note=61 velocity=0 time=0.24999999999999997@note_on channel=0 note=64 velocity=0 time=0@note_on channel=0 note=67 velocity=0 time=0@note_on channel=1 note=33 velocity=0 time=0@note_on channel=1 note=45 velocity=0 time=0@note_on channel=0 note=61 velocity=110 time=0.049999999999999996@note_on channel=0 note=65 velocity=110 time=0@note_on channel=1 note=33 velocity=110 time=0@note_on channel=1 note=45 velocity=110 time=0@note_on channel=1 note=33 velocity=0 time=0.14687499999999998@note_on channel=1 note=45 velocity=0 time=0@note_on channel=1 note=33 velocity=110 time=0.0031249999999999997@note_on channel=1 note=45 velocity=110 time=0@note_on channel=0 note=61 velocity=0 time=0.09999999999999999@note_on channel=0 note=65 velocity=0 time=0@note_on channel=0 note=57 velocity=110 time=0.049999999999999996@note_on channel=0 note=64 velocity=110 time=0@note_on channel=1 note=33 velocity=0 time=0.09999999999999999@note_on channel=1 note=45 velocity=0 time=0@note_on channel=1 note=33 velocity=110 time=0.049999999999999996@note_on channel=1 note=45 velocity=110 time=0@note_on channel=0 note=57 velocity=0 time=0.09999999999999999@note_on channel=0 note=64 velocity=0 time=0@note_on channel=1 note=33 velocity=0 time=0.04687499999999999@note_on channel=1 note=45 velocity=0 time=0@control_change channel=0 control=64 value=0 time=0.0031249999999999997@control_change channel=0 control=64 value=127 time=0@note_on channel=0 note=53 velocity=110 time=0@note_on channel=0 note=57 velocity=110 time=0@note_on channel=0 note=62 velocity=110 time=0@control_change channel=1 control=64 value=0 time=0@control_change channel=1 control=64 value=127 time=0@note_on channel=1 note=38 velocity=110 time=0@note_on channel=1 note=50 velocity=110 time=0@note_on channel=0 note=53 velocity=0 time=0.24999999999999997@note_on channel=0 note=57 velocity=0 time=0@note_on channel=0 note=62 velocity=0 time=0@note_on channel=1 note=38 velocity=0 time=0@note_on channel=1 note=50 velocity=0 time=0@note_on channel=1 note=38 velocity=110 time=0.049999999999999996@note_on channel=1 note=50 velocity=110 time=0@note_on channel=1 note=38 velocity=0 time=0.14687499999999998@note_on channel=1 note=50 velocity=0 time=0@note_on channel=1 note=38 velocity=110 time=0.0031249999999999997@note_on channel=1 note=50 velocity=110 time=0@note_on channel=0 note=62 velocity=110 time=0.15@note_on channel=1 note=38 velocity=0 time=0.09999999999999999@note_on channel=1 note=50 velocity=0 time=0@note_on channel=0 note=62 velocity=0 time=0.04687499999999999@note_on channel=0 note=64 velocity=110 time=0.0031249999999999997@note_on channel=1 note=38 velocity=110 time=0@note_on channel=1 note=50 velocity=110 time=0@note_on channel=0 note=64 velocity=0 time=0.14687499999999998@note_on channel=1 note=38 velocity=0 time=0@note_on channel=1 note=50 velocity=0 time=0@control_change channel=0 control=64 value=0 time=0.0031249999999999997@control_change channel=0 control=64 value=127 time=0@note_on channel=0 note=57 velocity=110 time=0@note_on channel=0 note=62 velocity=110 time=0@note_on channel=0 note=65 velocity=110 time=0@control_change channel=1 control=64 value=0 time=0@control_change channel=1 control=64 value=127 time=0@note_on channel=1 note=38 velocity=110 time=0@note_on channel=1 note=50 velocity=110 time=0@note_on channel=1 note=38 velocity=0 time=0.24999999999999997@note_on channel=1 note=50 velocity=0 time=0@note_on channel=1 note=38 velocity=110 time=0.049999999999999996@note_on channel=1 note=50 velocity=110 time=0@note_on channel=1 note=38 velocity=0 time=0.14687499999999998@note_on channel=1 note=50 velocity=0 time=0@note_on channel=1 note=38 velocity=110 time=0.0031249999999999997@note_on channel=1 note=50 velocity=110 time=0@note_on channel=0 note=57 velocity=0 time=0.075@note_on channel=0 note=62 velocity=0 time=0@note_on channel=0 note=65 velocity=0 time=0@note_on channel=0 note=67 velocity=110 time=0.075@note_on channel=1 note=38 velocity=0 time=0.09999999999999999@note_on channel=1 note=50 velocity=0 time=0@note_on channel=0 note=67 velocity=0 time=0.04687499999999999@note_on channel=0 note=69 velocity=110 time=0.0031249999999999997@note_on channel=1 note=38 velocity=110 time=0@note_on channel=1 note=50 velocity=110 time=0@note_on channel=0 note=69 velocity=0 time=0.14687499999999998@note_on channel=1 note=38 velocity=0 time=0@note_on channel=1 note=50 velocity=0 time=0@control_change channel=0 control=64 value=0 time=0.0031249999999999997@control_change channel=0 control=64 value=127 time=0@note_on channel=0 note=60 velocity=110 time=0@note_on channel=0 note=67 velocity=110 time=0@control_change channel=1 control=64 value=0 time=0@control_change channel=1 control=64 value=127 time=0@note_on channel=1 note=36 velocity=110 time=0@note_on channel=1 note=48 velocity=110 time=0@note_on channel=0 note=60 velocity=0 time=0.24999999999999997@note_on channel=0 note=67 velocity=0 time=0@note_on channel=1 note=36 velocity=0 time=0@note_on channel=1 note=48 velocity=0 time=0@note_on channel=0 note=60 velocity=110 time=0.049999999999999996@note_on channel=0 note=65 velocity=110 time=0@note_on channel=1 note=36 velocity=110 time=0@note_on channel=1 note=48 velocity=110 time=0@note_on channel=1 note=36 velocity=0 time=0.14687499999999998@note_on channel=1 note=48 velocity=0 time=0@note_on channel=1 note=36 velocity=110 time=0.0031249999999999997@note_on channel=1 note=48 velocity=110 time=0@note_on channel=0 note=60 velocity=0 time=0.09999999999999999@note_on channel=0 note=65 velocity=0 time=0@note_on channel=1 note=36 velocity=0 time=0.04687499999999999@note_on channel=1 note=48 velocity=0 time=0@note_on channel=0 note=60 velocity=110 time=0.0031249999999999997@note_on channel=0 note=64 velocity=110 time=0@note_on channel=1 note=36 velocity=110 time=0@note_on channel=1 note=48 velocity=110 time=0@note_on channel=1 note=36 velocity=0 time=0.14687499999999998@note_on channel=1 note=48 velocity=0 time=0@note_on channel=1 note=36 velocity=110 time=0.0031249999999999997@note_on channel=1 note=48 velocity=110 time=0@note_on channel=0 note=60 velocity=0 time=0.09999999999999999@note_on channel=0 note=64 velocity=0 time=0@note_on channel=1 note=36 velocity=0 time=0.04687499999999999@note_on channel=1 note=48 velocity=0 time=0@control_change channel=0 control=64 value=0 time=0.0031249999999999997@control_change channel=0 control=64 value=127 time=0@note_on channel=0 note=57 velocity=110 time=0@note_on channel=0 note=60 velocity=110 time=0@note_on channel=0 note=65 velocity=110 time=0@control_change channel=1 control=64 value=0 time=0@control_change channel=1 control=64 value=127 time=0@note_on channel=1 note=41 velocity=110 time=0@note_on channel=1 note=53 velocity=110 time=0@note_on channel=0 note=57 velocity=0 time=0.24999999999999997@note_on channel=0 note=60 velocity=0 time=0@note_on channel=0 note=65 velocity=0 time=0@note_on channel=1 note=41 velocity=0 time=0@note_on channel=1 note=53 velocity=0 time=0@note_on channel=0 note=57 velocity=110 time=0.049999999999999996@note_on channel=0 note=60 velocity=110 time=0@note_on channel=0 note=67 velocity=110 time=0@note_on channel=1 note=41 velocity=110 time=0@note_on channel=1 note=53 velocity=110 time=0@note_on channel=1 note=41 velocity=0 time=0.14687499999999998@note_on channel=1 note=53 velocity=0 time=0@note_on channel=1 note=41 velocity=110 time=0.0031249999999999997@note_on channel=1 note=53 velocity=110 time=0@note_on channel=0 note=57 velocity=0 time=0.09999999999999999@note_on channel=0 note=60 velocity=0 time=0@note_on channel=0 note=67 velocity=0 time=0@note_on channel=1 note=41 velocity=0 time=0.04687499999999999@note_on channel=1 note=53 velocity=0 time=0@note_on channel=0 note=57 velocity=110 time=0.0031249999999999997@note_on channel=0 note=60 velocity=110 time=0@note_on channel=0 note=69 velocity=110 time=0@note_on channel=1 note=41 velocity=110 time=0@note_on channel=1 note=53 velocity=110 time=0@note_on channel=1 note=41 velocity=0 time=0.14687499999999998@note_on channel=1 note=53 velocity=0 time=0@note_on channel=1 note=41 velocity=110 time=0.0031249999999999997@note_on channel=1 note=53 velocity=110 time=0@note_on channel=0 note=57 velocity=0 time=0.09999999999999999@note_on channel=0 note=60 velocity=0 time=0@note_on channel=0 note=69 velocity=0 time=0@note_on channel=1 note=41 velocity=0 time=0.04687499999999999@note_on channel=1 note=53 velocity=0 time=0@control_change channel=0 control=64 value=0 time=0.0031249999999999997@control_change channel=0 control=64 value=127 time=0@note_on channel=0 note=60 velocity=110 time=0@note_on channel=0 note=64 velocity=110 time=0@note_on channel=0 note=67 velocity=110 time=0@control_change channel=1 control=64 value=0 time=0@control_change channel=1 control=64 value=127 time=0@note_on channel=1 note=36 velocity=110 time=0@note_on channel=1 note=48 velocity=110 time=0@note_on channel=0 note=60 velocity=0 time=0.24999999999999997@note_on channel=0 note=64 velocity=0 time=0@note_on channel=0 note=67 velocity=0 time=0@note_on channel=1 note=36 velocity=0 time=0@note_on channel=1 note=48 velocity=0 time=0@note_on channel=1 note=36 velocity=110 time=0.049999999999999996@note_on channel=1 note=48 velocity=110 time=0@note_on channel=1 note=36 velocity=0 time=0.14687499999999998@note_on channel=1 note=48 velocity=0 time=0@note_on channel=1 note=36 velocity=110 time=0.0031249999999999997@note_on channel=1 note=48 velocity=110 time=0@note_on channel=1 note=36 velocity=0 time=0.14687499999999998@note_on channel=1 note=48 velocity=0 time=0@note_on channel=0 note=65 velocity=110 time=0.0031249999999999997@note_on channel=1 note=36 velocity=110 time=0@note_on channel=1 note=48 velocity=110 time=0@note_on channel=0 note=65 velocity=0 time=0.14687499999999998@note_on channel=1 note=36 velocity=0 time=0@note_on channel=1 note=48 velocity=0 time=0@note_on channel=0 note=67 velocity=110 time=0.0031249999999999997@note_on channel=1 note=36 velocity=110 time=0@note_on channel=1 note=48 velocity=110 time=0@note_on channel=0 note=67 velocity=0 time=0.14687499999999998@note_on channel=1 note=36 velocity=0 time=0@note_on channel=1 note=48 velocity=0 time=0@control_change channel=0 control=64 value=0 time=0.0031249999999999997@control_change channel=0 control=64 value=127 time=0@note_on channel=0 note=60 velocity=110 time=0@note_on channel=0 note=65 velocity=110 time=0@note_on channel=0 note=69 velocity=110 time=0@control_change channel=1 control=64 value=0 time=0@control_change channel=1 control=64 value=127 time=0@note_on channel=1 note=41 velocity=110 time=0@note_on channel=1 note=53 velocity=110 time=0@note_on channel=0 note=60 velocity=0 time=0.24999999999999997@note_on channel=0 note=65 velocity=0 time=0@note_on channel=0 note=69 velocity=0 time=0@note_on channel=1 note=41 velocity=0 time=0@note_on channel=1 note=53 velocity=0 time=0@note_on channel=1 note=41 velocity=110 time=0.049999999999999996@note_on channel=1 note=53 velocity=110 time=0@note_on channel=1 note=41 velocity=0 time=0.14687499999999998@note_on channel=1 note=53 velocity=0 time=0@note_on channel=1 note=41 velocity=110 time=0.0031249999999999997@note_on channel=1 note=53 velocity=110 time=0@note_on channel=1 note=41 velocity=0 time=0.14687499999999998@note_on channel=1 note=53 velocity=0 time=0@note_on channel=0 note=67 velocity=110 time=0.0031249999999999997@note_on channel=1 note=41 velocity=110 time=0@note_on channel=1 note=53 velocity=110 time=0@note_on channel=0 note=67 velocity=0 time=0.14687499999999998@note_on channel=1 note=41 velocity=0 time=0@note_on channel=1 note=53 velocity=0 time=0@note_on channel=0 note=65 velocity=110 time=0.0031249999999999997@note_on channel=1 note=41 velocity=110 time=0@note_on channel=1 note=53 velocity=110 time=0@note_on channel=0 note=65 velocity=0 time=0.14687499999999998@note_on channel=1 note=41 velocity=0 time=0@note_on channel=1 note=53 velocity=0 time=0@control_change channel=0 control=64 value=0 time=0.0031249999999999997@control_change channel=0 control=64 value=127 time=0@note_on channel=0 note=61 velocity=110 time=0@note_on channel=0 note=64 velocity=110 time=0@control_change channel=1 control=64 value=0 time=0@control_change channel=1 control=64 value=127 time=0@note_on channel=1 note=33 velocity=110 time=0@note_on channel=1 note=45 velocity=110 time=0@note_on channel=0 note=61 velocity=0 time=0.24999999999999997@note_on channel=0 note=64 velocity=0 time=0@note_on channel=1 note=33 velocity=0 time=0@note_on channel=1 note=45 velocity=0 time=0@note_on channel=0 note=61 velocity=110 time=0.049999999999999996@note_on channel=0 note=65 velocity=110 time=0@note_on channel=1 note=33 velocity=110 time=0@note_on channel=1 note=45 velocity=110 time=0@note_on channel=1 note=33 velocity=0 time=0.14687499999999998@note_on channel=1 note=45 velocity=0 time=0@note_on channel=1 note=33 velocity=110 time=0.0031249999999999997@note_on channel=1 note=45 velocity=110 time=0@note_on channel=0 note=61 velocity=0 time=0.09999999999999999@note_on channel=0 note=65 velocity=0 time=0@note_on channel=1 note=33 velocity=0 time=0.04687499999999999@note_on channel=1 note=45 velocity=0 time=0@note_on channel=0 note=61 velocity=110 time=0.0031249999999999997@note_on channel=0 note=64 velocity=110 time=0@note_on channel=1 note=33 velocity=110 time=0@note_on channel=1 note=45 velocity=110 time=0@note_on channel=1 note=33 velocity=0 time=0.14687499999999998@note_on channel=1 note=45 velocity=0 time=0@note_on channel=1 note=33 velocity=110 time=0.0031249999999999997@note_on channel=1 note=45 velocity=110 time=0@note_on channel=0 note=61 velocity=0 time=0.09999999999999999@note_on channel=0 note=64 velocity=0 time=0@note_on channel=1 note=33 velocity=0 time=0.04687499999999999@note_on channel=1 note=45 velocity=0 time=0@control_change channel=0 control=64 value=0 time=0.0031249999999999997@control_change channel=0 control=64 value=127 time=0@note_on channel=0 note=53 velocity=110 time=0@note_on channel=0 note=57 velocity=110 time=0@note_on channel=0 note=62 velocity=110 time=0@control_change channel=1 control=64 value=0 time=0@control_change channel=1 control=64 value=127 time=0@note_on channel=1 note=38 velocity=110 time=0@note_on channel=1 note=50 velocity=110 time=0@note_on channel=0 note=53 velocity=0 time=0.24999999999999997@note_on channel=0 note=57 velocity=0 time=0@note_on channel=0 note=62 velocity=0 time=0@note_on channel=1 note=38 velocity=0 time=0@note_on channel=1 note=50 velocity=0 time=0@note_on channel=1 note=38 velocity=110 time=0.049999999999999996@note_on channel=1 note=50 velocity=110 time=0@note_on channel=1 note=38 velocity=0 time=0.14687499999999998@note_on channel=1 note=50 velocity=0 time=0@note_on channel=1 note=38 velocity=110 time=0.0031249999999999997@note_on channel=1 note=50 velocity=110 time=0@note_on channel=0 note=64 velocity=110 time=0.15@note_on channel=1 note=38 velocity=0 time=0.09999999999999999@note_on channel=1 note=50 velocity=0 time=0@note_on channel=0 note=64 velocity=0 time=0.04687499999999999@note_on channel=0 note=60 velocity=110 time=0.0031249999999999997@note_on channel=1 note=38 velocity=110 time=0@note_on channel=1 note=50 velocity=110 time=0@note_on channel=0 note=60 velocity=0 time=0.14687499999999998@note_on channel=1 note=38 velocity=0 time=0@note_on channel=1 note=50 velocity=0 time=0@control_change channel=0 control=64 value=0 time=0.0031249999999999997@control_change channel=0 control=64 value=127 time=0@note_on channel=0 note=53 velocity=110 time=0@note_on channel=0 note=57 velocity=110 time=0@note_on channel=0 note=62 velocity=110 time=0@control_change channel=1 control=64 value=0 time=0@control_change channel=1 control=64 value=127 time=0@note_on channel=1 note=38 velocity=110 time=0@note_on channel=1 note=50 velocity=110 time=0@note_on channel=0 note=53 velocity=0 time=0.14687499999999998@note_on channel=0 note=57 velocity=0 time=0@note_on channel=0 note=62 velocity=0 time=0@note_on channel=1 note=38 velocity=0 time=0.103125@note_on channel=1 note=50 velocity=0 time=0@note_on channel=1 note=38 velocity=110 time=0.049999999999999996@note_on channel=1 note=50 velocity=110 time=0@note_on channel=1 note=38 velocity=0 time=0.14687499999999998@note_on channel=1 note=50 velocity=0 time=0@note_on channel=1 note=38 velocity=110 time=0.0031249999999999997@note_on channel=1 note=50 velocity=110 time=0@note_on channel=1 note=38 velocity=0 time=0.14687499999999998@note_on channel=1 note=50 velocity=0 time=0@note_on channel=0 note=74 velocity=110 time=0.0031249999999999997@note_on channel=1 note=38 velocity=110 time=0@note_on channel=1 note=50 velocity=110 time=0@note_on channel=0 note=74 velocity=0 time=0.14687499999999998@note_on channel=1 note=38 velocity=0 time=0@note_on channel=1 note=50 velocity=0 time=0@note_on channel=0 note=76 velocity=110 time=0.0031249999999999997@note_on channel=1 note=38 velocity=110 time=0@note_on channel=1 note=50 velocity=110 time=0@note_on channel=0 note=76 velocity=0 time=0.14687499999999998@note_on channel=1 note=38 velocity=0 time=0@note_on channel=1 note=50 velocity=0 time=0@control_change channel=0 control=64 value=0 time=0.0031249999999999997@control_change channel=0 control=64 value=127 time=0@note_on channel=0 note=69 velocity=110 time=0@note_on channel=0 note=74 velocity=110 time=0@note_on channel=0 note=77 velocity=110 time=0@control_change channel=1 control=64 value=0 time=0@control_change channel=1 control=64 value=127 time=0@note_on channel=1 note=38 velocity=110 time=0@note_on channel=1 note=50 velocity=110 time=0@note_on channel=0 note=69 velocity=0 time=0.24999999999999997@note_on channel=0 note=74 velocity=0 time=0@note_on channel=0 note=77 velocity=0 time=0@note_on channel=1 note=38 velocity=0 time=0@note_on channel=1 note=50 velocity=0 time=0@note_on channel=1 note=38 velocity=110 time=0.049999999999999996@note_on channel=1 note=50 velocity=110 time=0@note_on channel=1 note=38 velocity=0 time=0.14687499999999998@note_on channel=1 note=50 velocity=0 time=0@note_on channel=1 note=38 velocity=110 time=0.0031249999999999997@note_on channel=1 note=50 velocity=110 time=0@note_on channel=1 note=38 velocity=0 time=0.14687499999999998@note_on channel=1 note=50 velocity=0 time=0@note_on channel=0 note=76 velocity=110 time=0.0031249999999999997@note_on channel=1 note=38 velocity=110 time=0@note_on channel=1 note=50 velocity=110 time=0@note_on channel=0 note=76 velocity=0 time=0.14687499999999998@note_on channel=1 note=38 velocity=0 time=0@note_on channel=1 note=50 velocity=0 time=0@note_on channel=0 note=77 velocity=110 time=0.0031249999999999997@note_on channel=1 note=38 velocity=110 time=0@note_on channel=1 note=50 velocity=110 time=0@note_on channel=0 note=77 velocity=0 time=0.14687499999999998@note_on channel=1 note=38 velocity=0 time=0@note_on channel=1 note=50 velocity=0 time=0@control_change channel=0 control=64 value=0 time=0.0031249999999999997@control_change channel=0 control=64 value=127 time=0@note_on channel=0 note=72 velocity=110 time=0@note_on channel=0 note=79 velocity=110 time=0@control_change channel=1 control=64 value=0 time=0@control_change channel=1 control=64 value=127 time=0@note_on channel=1 note=36 velocity=110 time=0@note_on channel=1 note=48 velocity=110 time=0@note_on channel=0 note=72 velocity=0 time=0.24999999999999997@note_on channel=0 note=79 velocity=0 time=0@note_on channel=1 note=36 velocity=0 time=0@note_on channel=1 note=48 velocity=0 time=0@note_on channel=0 note=72 velocity=110 time=0.049999999999999996@note_on channel=0 note=77 velocity=110 time=0@note_on channel=1 note=36 velocity=110 time=0@note_on channel=1 note=48 velocity=110 time=0@note_on channel=1 note=36 velocity=0 time=0.14687499999999998@note_on channel=1 note=48 velocity=0 time=0@note_on channel=1 note=36 velocity=110 time=0.0031249999999999997@note_on channel=1 note=48 velocity=110 time=0@note_on channel=0 note=72 velocity=0 time=0.09999999999999999@note_on channel=0 note=77 velocity=0 time=0@note_on channel=1 note=36 velocity=0 time=0.04687499999999999@note_on channel=1 note=48 velocity=0 time=0@note_on channel=0 note=72 velocity=110 time=0.0031249999999999997@note_on channel=0 note=79 velocity=110 time=0@note_on channel=1 note=36 velocity=110 time=0@note_on channel=1 note=48 velocity=110 time=0@note_on channel=1 note=36 velocity=0 time=0.14687499999999998@note_on channel=1 note=48 velocity=0 time=0@note_on channel=1 note=36 velocity=110 time=0.0031249999999999997@note_on channel=1 note=48 velocity=110 time=0@note_on channel=0 note=72 velocity=0 time=0.09999999999999999@note_on channel=0 note=79 velocity=0 time=0@note_on channel=1 note=36 velocity=0 time=0.04687499999999999@note_on channel=1 note=48 velocity=0 time=0@control_change channel=0 control=64 value=0 time=0.0031249999999999997@control_change channel=0 control=64 value=127 time=0@note_on channel=0 note=77 velocity=110 time=0@note_on channel=0 note=81 velocity=110 time=0@control_change channel=1 control=64 value=0 time=0@control_change channel=1 control=64 value=127 time=0@note_on channel=1 note=41 velocity=110 time=0@note_on channel=1 note=53 velocity=110 time=0@note_on channel=0 note=77 velocity=0 time=0.24999999999999997@note_on channel=0 note=81 velocity=0 time=0@note_on channel=1 note=41 velocity=0 time=0@note_on channel=1 note=53 velocity=0 time=0@note_on channel=0 note=72 velocity=110 time=0.049999999999999996@note_on channel=0 note=79 velocity=110 time=0@note_on channel=1 note=41 velocity=110 time=0@note_on channel=1 note=53 velocity=110 time=0@note_on channel=1 note=41 velocity=0 time=0.14687499999999998@note_on channel=1 note=53 velocity=0 time=0@note_on channel=1 note=41 velocity=110 time=0.0031249999999999997@note_on channel=1 note=53 velocity=110 time=0@note_on channel=0 note=72 velocity=0 time=0.09999999999999999@note_on channel=0 note=79 velocity=0 time=0@note_on channel=1 note=41 velocity=0 time=0.04687499999999999@note_on channel=1 note=53 velocity=0 time=0@note_on channel=0 note=72 velocity=110 time=0.0031249999999999997@note_on channel=0 note=77 velocity=110 time=0@note_on channel=1 note=41 velocity=110 time=0@note_on channel=1 note=53 velocity=110 time=0@note_on channel=1 note=41 velocity=0 time=0.14687499999999998@note_on channel=1 note=53 velocity=0 time=0@note_on channel=1 note=41 velocity=110 time=0.0031249999999999997@note_on channel=1 note=53 velocity=110 time=0@note_on channel=0 note=72 velocity=0 time=0.09999999999999999@note_on channel=0 note=77 velocity=0 time=0@note_on channel=1 note=41 velocity=0 time=0.04687499999999999@note_on channel=1 note=53 velocity=0 time=0@control_change channel=0 control=64 value=0 time=0.0031249999999999997@control_change channel=0 control=64 value=127 time=0@note_on channel=0 note=65 velocity=110 time=0@note_on channel=0 note=70 velocity=110 time=0@note_on channel=0 note=74 velocity=110 time=0@control_change channel=1 control=64 value=0 time=0@control_change channel=1 control=64 value=127 time=0@note_on channel=1 note=34 velocity=110 time=0@note_on channel=1 note=46 velocity=110 time=0@note_on channel=0 note=65 velocity=0 time=0.24999999999999997@note_on channel=0 note=70 velocity=0 time=0@note_on channel=0 note=74 velocity=0 time=0@note_on channel=1 note=34 velocity=0 time=0@note_on channel=1 note=46 velocity=0 time=0@note_on channel=1 note=34 velocity=110 time=0.049999999999999996@note_on channel=1 note=46 velocity=110 time=0@note_on channel=1 note=34 velocity=0 time=0.14687499999999998@note_on channel=1 note=46 velocity=0 time=0@note_on channel=1 note=34 velocity=110 time=0.0031249999999999997@note_on channel=1 note=46 velocity=110 time=0@note_on channel=1 note=34 velocity=0 time=0.14687499999999998@note_on channel=1 note=46 velocity=0 time=0@note_on channel=0 note=74 velocity=110 time=0.0031249999999999997@note_on channel=1 note=34 velocity=110 time=0@note_on channel=1 note=46 velocity=110 time=0@note_on channel=0 note=74 velocity=0 time=0.14687499999999998@note_on channel=1 note=34 velocity=0 time=0@note_on channel=1 note=46 velocity=0 time=0@note_on channel=0 note=76 velocity=110 time=0.0031249999999999997@note_on channel=1 note=34 velocity=110 time=0@note_on channel=1 note=46 velocity=110 time=0@note_on channel=0 note=76 velocity=0 time=0.14687499999999998@note_on channel=1 note=34 velocity=0 time=0@note_on channel=1 note=46 velocity=0 time=0@control_change channel=0 control=64 value=0 time=0.0031249999999999997@control_change channel=0 control=64 value=127 time=0@note_on channel=0 note=69 velocity=110 time=0@note_on channel=0 note=74 velocity=110 time=0@note_on channel=0 note=77 velocity=110 time=0@control_change channel=1 control=64 value=0 time=0@control_change channel=1 control=64 value=127 time=0@note_on channel=1 note=38 velocity=110 time=0@note_on channel=1 note=50 velocity=110 time=0@note_on channel=0 note=69 velocity=0 time=0.24999999999999997@note_on channel=0 note=74 velocity=0 time=0@note_on channel=0 note=77 velocity=0 time=0@note_on channel=1 note=38 velocity=0 time=0@note_on channel=1 note=50 velocity=0 time=0@note_on channel=0 note=69 velocity=110 time=0.049999999999999996@note_on channel=0 note=74 velocity=110 time=0@note_on channel=0 note=79 velocity=110 time=0@note_on channel=1 note=38 velocity=110 time=0@note_on channel=1 note=50 velocity=110 time=0@note_on channel=1 note=38 velocity=0 time=0.14687499999999998@note_on channel=1 note=50 velocity=0 time=0@note_on channel=1 note=38 velocity=110 time=0.0031249999999999997@note_on channel=1 note=50 velocity=110 time=0@note_on channel=0 note=69 velocity=0 time=0.09999999999999999@note_on channel=0 note=74 velocity=0 time=0@note_on channel=0 note=79 velocity=0 time=0@note_on channel=1 note=38 velocity=0 time=0.04687499999999999@note_on channel=1 note=50 velocity=0 time=0@note_on channel=0 note=74 velocity=110 time=0.0031249999999999997@note_on channel=0 note=81 velocity=110 time=0@note_on channel=1 note=38 velocity=110 time=0@note_on channel=1 note=50 velocity=110 time=0@note_on channel=1 note=38 velocity=0 time=0.14687499999999998@note_on channel=1 note=50 velocity=0 time=0@note_on channel=1 note=38 velocity=110 time=0.0031249999999999997@note_on channel=1 note=50 velocity=110 time=0@note_on channel=0 note=74 velocity=0 time=0.09999999999999999@note_on channel=0 note=81 velocity=0 time=0@note_on channel=1 note=38 velocity=0 time=0.04687499999999999@note_on channel=1 note=50 velocity=0 time=0@control_change channel=0 control=64 value=0 time=0.0031249999999999997@control_change channel=0 control=64 value=127 time=0@note_on channel=0 note=70 velocity=110 time=0@note_on channel=0 note=74 velocity=110 time=0@note_on channel=0 note=82 velocity=110 time=0@control_change channel=1 control=64 value=0 time=0@control_change channel=1 control=64 value=127 time=0@note_on channel=1 note=31 velocity=110 time=0@note_on channel=1 note=43 velocity=110 time=0@note_on channel=0 note=70 velocity=0 time=0.24999999999999997@note_on channel=0 note=74 velocity=0 time=0@note_on channel=0 note=82 velocity=0 time=0@note_on channel=1 note=31 velocity=0 time=0@note_on channel=1 note=43 velocity=0 time=0@note_on channel=0 note=70 velocity=110 time=0.049999999999999996@note_on channel=0 note=74 velocity=110 time=0@note_on channel=1 note=31 velocity=110 time=0@note_on channel=1 note=43 velocity=110 time=0@note_on channel=1 note=31 velocity=0 time=0.14687499999999998@note_on channel=1 note=43 velocity=0 time=0@note_on channel=1 note=31 velocity=110 time=0.0031249999999999997@note_on channel=1 note=43 velocity=110 time=0@note_on channel=0 note=70 velocity=0 time=0.09999999999999999@note_on channel=0 note=74 velocity=0 time=0@note_on channel=1 note=31 velocity=0 time=0.04687499999999999@note_on channel=1 note=43 velocity=0 time=0@note_on channel=0 note=70 velocity=110 time=0.0031249999999999997@note_on channel=0 note=79 velocity=110 time=0@note_on channel=1 note=31 velocity=110 time=0@note_on channel=1 note=43 velocity=110 time=0@note_on channel=1 note=31 velocity=0 time=0.14687499999999998@note_on channel=1 note=43 velocity=0 time=0@note_on channel=1 note=31 velocity=110 time=0.0031249999999999997@note_on channel=1 note=43 velocity=110 time=0@note_on channel=0 note=70 velocity=0 time=0.09999999999999999@note_on channel=0 note=79 velocity=0 time=0@note_on channel=1 note=31 velocity=0 time=0.04687499999999999@note_on channel=1 note=43 velocity=0 time=0@control_change channel=0 control=64 value=0 time=0.0031249999999999997@control_change channel=0 control=64 value=127 time=0@note_on channel=0 note=69 velocity=110 time=0@note_on channel=0 note=77 velocity=110 time=0@control_change channel=1 control=64 value=0 time=0@control_change channel=1 control=64 value=127 time=0@note_on channel=1 note=33 velocity=110 time=0@note_on channel=1 note=45 velocity=110 time=0@note_on channel=0 note=69 velocity=0 time=0.24999999999999997@note_on channel=0 note=77 velocity=0 time=0@note_on channel=1 note=33 velocity=0 time=0@note_on channel=1 note=45 velocity=0 time=0@note_on channel=1 note=33 velocity=110 time=0.049999999999999996@note_on channel=1 note=45 velocity=110 time=0@note_on channel=1 note=33 velocity=0 time=0.14687499999999998@note_on channel=1 note=45 velocity=0 time=0@note_on channel=1 note=33 velocity=110 time=0.0031249999999999997@note_on channel=1 note=45 velocity=110 time=0@note_on channel=1 note=33 velocity=0 time=0.14687499999999998@note_on channel=1 note=45 velocity=0 time=0@note_on channel=0 note=79 velocity=110 time=0.0031249999999999997@note_on channel=1 note=33 velocity=110 time=0@note_on channel=1 note=45 velocity=110 time=0@note_on channel=0 note=79 velocity=0 time=0.14687499999999998@note_on channel=1 note=33 velocity=0 time=0@note_on channel=1 note=45 velocity=0 time=0@note_on channel=0 note=76 velocity=110 time=0.0031249999999999997@note_on channel=1 note=33 velocity=110 time=0@note_on channel=1 note=45 velocity=110 time=0@note_on channel=0 note=76 velocity=0 time=0.14687499999999998@note_on channel=1 note=33 velocity=0 time=0@note_on channel=1 note=45 velocity=0 time=0@control_change channel=0 control=64 value=0 time=0.0031249999999999997@control_change channel=0 control=64 value=127 time=0@note_on channel=0 note=69 velocity=110 time=0@note_on channel=0 note=74 velocity=110 time=0@control_change channel=1 control=64 value=0 time=0@control_change channel=1 control=64 value=127 time=0@note_on channel=1 note=33 velocity=110 time=0@note_on channel=1 note=45 velocity=110 time=0@note_on channel=0 note=69 velocity=0 time=0.24999999999999997@note_on channel=0 note=74 velocity=0 time=0@note_on channel=1 note=33 velocity=0 time=0@note_on channel=1 note=45 velocity=0 time=0@note_on channel=1 note=33 velocity=110 time=0.049999999999999996@note_on channel=1 note=45 velocity=110 time=0@note_on channel=1 note=33 velocity=0 time=0.14687499999999998@note_on channel=1 note=45 velocity=0 time=0@note_on channel=1 note=33 velocity=110 time=0.0031249999999999997@note_on channel=1 note=45 velocity=110 time=0@note_on channel=1 note=33 velocity=0 time=0.14687499999999998@note_on channel=1 note=45 velocity=0 time=0@note_on channel=0 note=76 velocity=110 time=0.0031249999999999997@note_on channel=1 note=33 velocity=110 time=0@note_on channel=1 note=45 velocity=110 time=0@note_on channel=0 note=76 velocity=0 time=0.14687499999999998@note_on channel=1 note=33 velocity=0 time=0@note_on channel=1 note=45 velocity=0 time=0@note_on channel=0 note=73 velocity=110 time=0.0031249999999999997@note_on channel=1 note=33 velocity=110 time=0@note_on channel=1 note=45 velocity=110 time=0@note_on channel=0 note=73 velocity=0 time=0.14687499999999998@note_on channel=1 note=33 velocity=0 time=0@note_on channel=1 note=45 velocity=0 time=0@control_change channel=0 control=64 value=0 time=0.0031249999999999997@control_change channel=0 control=64 value=127 time=0@note_on channel=0 note=74 velocity=110 time=0@note_on channel=0 note=77 velocity=110 time=0@note_on channel=0 note=81 velocity=110 time=0@control_change channel=1 control=64 value=0 time=0@control_change channel=1 control=64 value=127 time=0@note_on channel=1 note=38 velocity=110 time=0@note_on channel=1 note=50 velocity=110 time=0@note_on channel=0 note=74 velocity=0 time=0.24999999999999997@note_on channel=0 note=77 velocity=0 time=0@note_on channel=0 note=81 velocity=0 time=0@note_on channel=1 note=38 velocity=0 time=0@note_on channel=1 note=50 velocity=0 time=0@note_on channel=1 note=38 velocity=110 time=0.049999999999999996@note_on channel=1 note=50 velocity=110 time=0@note_on channel=1 note=38 velocity=0 time=0.14687499999999998@note_on channel=1 note=50 velocity=0 time=0@note_on channel=1 note=38 velocity=110 time=0.0031249999999999997@note_on channel=1 note=50 velocity=110 time=0@note_on channel=1 note=38 velocity=0 time=0.14687499999999998@note_on channel=1 note=50 velocity=0 time=0@note_on channel=1 note=38 velocity=110 time=0.0031249999999999997@note_on channel=1 note=50 velocity=110 time=0@note_on channel=1 note=38 velocity=0 time=0.14687499999999998@note_on channel=1 note=50 velocity=0 time=0@note_on channel=1 note=38 velocity=110 time=0.0031249999999999997@note_on channel=1 note=50 velocity=110 time=0@note_on channel=1 note=38 velocity=0 time=0.14687499999999998@note_on channel=1 note=50 velocity=0 time=0@control_change channel=0 control=64 value=0 time=0.0031249999999999997@control_change channel=0 control=64 value=127 time=0@note_on channel=0 note=74 velocity=110 time=0@note_on channel=0 note=79 velocity=110 time=0@note_on channel=0 note=82 velocity=110 time=0@control_change channel=1 control=64 value=0 time=0@control_change channel=1 control=64 value=127 time=0@note_on channel=1 note=31 velocity=110 time=0@note_on channel=1 note=43 velocity=110 time=0@note_on channel=0 note=74 velocity=0 time=0.24999999999999997@note_on channel=0 note=79 velocity=0 time=0@note_on channel=0 note=82 velocity=0 time=0@note_on channel=1 note=31 velocity=0 time=0@note_on channel=1 note=43 velocity=0 time=0@note_on channel=1 note=31 velocity=110 time=0.049999999999999996@note_on channel=1 note=43 velocity=110 time=0@note_on channel=1 note=31 velocity=0 time=0.14687499999999998@note_on channel=1 note=43 velocity=0 time=0@note_on channel=1 note=31 velocity=110 time=0.0031249999999999997@note_on channel=1 note=43 velocity=110 time=0@note_on channel=1 note=31 velocity=0 time=0.14687499999999998@note_on channel=1 note=43 velocity=0 time=0@note_on channel=1 note=31 velocity=110 time=0.0031249999999999997@note_on channel=1 note=43 velocity=110 time=0@note_on channel=1 note=31 velocity=0 time=0.14687499999999998@note_on channel=1 note=43 velocity=0 time=0@note_on channel=1 note=31 velocity=110 time=0.0031249999999999997@note_on channel=1 note=43 velocity=110 time=0@note_on channel=1 note=31 velocity=0 time=0.14687499999999998@note_on channel=1 note=43 velocity=0 time=0@control_change channel=0 control=64 value=0 time=0.0031249999999999997@control_change channel=0 control=64 value=127 time=0@note_on channel=0 note=72 velocity=110 time=0@note_on channel=0 note=77 velocity=110 time=0@note_on channel=0 note=81 velocity=110 time=0@control_change channel=1 control=64 value=0 time=0@control_change channel=1 control=64 value=127 time=0@note_on channel=1 note=41 velocity=110 time=0@note_on channel=1 note=53 velocity=110 time=0@note_on channel=0 note=72 velocity=0 time=0.24999999999999997@note_on channel=0 note=77 velocity=0 time=0@note_on channel=0 note=81 velocity=0 time=0@note_on channel=1 note=41 velocity=0 time=0@note_on channel=1 note=53 velocity=0 time=0@note_on channel=0 note=72 velocity=110 time=0.049999999999999996@note_on channel=0 note=77 velocity=110 time=0@note_on channel=0 note=81 velocity=110 time=0@note_on channel=1 note=41 velocity=110 time=0@note_on channel=1 note=53 velocity=110 time=0@note_on channel=1 note=41 velocity=0 time=0.14687499999999998@note_on channel=1 note=53 velocity=0 time=0@note_on channel=1 note=41 velocity=110 time=0.0031249999999999997@note_on channel=1 note=53 velocity=110 time=0@note_on channel=0 note=72 velocity=0 time=0.09999999999999999@note_on channel=0 note=77 velocity=0 time=0@note_on channel=0 note=81 velocity=0 time=0@note_on channel=0 note=72 velocity=110 time=0.049999999999999996@note_on channel=0 note=77 velocity=110 time=0@note_on channel=0 note=81 velocity=110 time=0@note_on channel=1 note=41 velocity=0 time=0.09999999999999999@note_on channel=1 note=53 velocity=0 time=0@note_on channel=1 note=41 velocity=110 time=0.049999999999999996@note_on channel=1 note=53 velocity=110 time=0@note_on channel=0 note=72 velocity=0 time=0.09999999999999999@note_on channel=0 note=77 velocity=0 time=0@note_on channel=0 note=81 velocity=0 time=0@note_on channel=1 note=41 velocity=0 time=0.04687499999999999@note_on channel=1 note=53 velocity=0 time=0@note_on channel=0 note=72 velocity=110 time=0.0031249999999999997@note_on channel=0 note=76 velocity=110 time=0@note_on channel=0 note=81 velocity=110 time=0@control_change channel=1 control=64 value=0 time=0@control_change channel=1 control=64 value=127 time=0@note_on channel=1 note=36 velocity=110 time=0@note_on channel=1 note=48 velocity=110 time=0@note_on channel=0 note=72 velocity=0 time=0.14687499999999998@note_on channel=0 note=76 velocity=0 time=0@note_on channel=0 note=81 velocity=0 time=0@control_change channel=0 control=64 value=0 time=0.0031249999999999997@control_change channel=0 control=64 value=127 time=0@note_on channel=0 note=79 velocity=110 time=0@note_on channel=1 note=36 velocity=0 time=0.09999999999999999@note_on channel=1 note=48 velocity=0 time=0@note_on channel=0 note=79 velocity=0 time=0.04687499999999999@note_on channel=1 note=36 velocity=110 time=0.0031249999999999997@note_on channel=1 note=48 velocity=110 time=0@note_on channel=1 note=36 velocity=0 time=0.14687499999999998@note_on channel=1 note=48 velocity=0 time=0@note_on channel=1 note=36 velocity=110 time=0.0031249999999999997@note_on channel=1 note=48 velocity=110 time=0@note_on channel=1 note=36 velocity=0 time=0.14687499999999998@note_on channel=1 note=48 velocity=0 time=0@note_on channel=1 note=36 velocity=110 time=0.0031249999999999997@note_on channel=1 note=48 velocity=110 time=0@note_on channel=1 note=36 velocity=0 time=0.14687499999999998@note_on channel=1 note=48 velocity=0 time=0@note_on channel=1 note=36 velocity=110 time=0.0031249999999999997@note_on channel=1 note=48 velocity=110 time=0@note_on channel=1 note=36 velocity=0 time=0.14687499999999998@note_on channel=1 note=48 velocity=0 time=0@control_change channel=0 control=64 value=0 time=0.0031249999999999997@control_change channel=0 control=64 value=127 time=0@note_on channel=0 note=70 velocity=110 time=0@note_on channel=0 note=74 velocity=110 time=0@note_on channel=0 note=79 velocity=110 time=0@control_change channel=1 control=64 value=0 time=0@control_change channel=1 control=64 value=127 time=0@note_on channel=1 note=31 velocity=110 time=0@note_on channel=1 note=43 velocity=110 time=0@note_on channel=0 note=70 velocity=0 time=0.24999999999999997@note_on channel=0 note=74 velocity=0 time=0@note_on channel=0 note=79 velocity=0 time=0@note_on channel=1 note=31 velocity=0 time=0@note_on channel=1 note=43 velocity=0 time=0@note_on channel=1 note=31 velocity=110 time=0.049999999999999996@note_on channel=1 note=43 velocity=110 time=0@note_on channel=1 note=31 velocity=0 time=0.14687499999999998@note_on channel=1 note=43 velocity=0 time=0@note_on channel=1 note=31 velocity=110 time=0.0031249999999999997@note_on channel=1 note=43 velocity=110 time=0@note_on channel=1 note=31 velocity=0 time=0.14687499999999998@note_on channel=1 note=43 velocity=0 time=0@note_on channel=1 note=31 velocity=110 time=0.0031249999999999997@note_on channel=1 note=43 velocity=110 time=0@note_on channel=1 note=31 velocity=0 time=0.14687499999999998@note_on channel=1 note=43 velocity=0 time=0@note_on channel=1 note=31 velocity=110 time=0.0031249999999999997@note_on channel=1 note=43 velocity=110 time=0@note_on channel=1 note=31 velocity=0 time=0.14687499999999998@note_on channel=1 note=43 velocity=0 time=0@control_change channel=0 control=64 value=0 time=0.0031249999999999997@control_change channel=0 control=64 value=127 time=0@note_on channel=0 note=69 velocity=110 time=0@note_on channel=0 note=74 velocity=110 time=0@note_on channel=0 note=77 velocity=110 time=0@control_change channel=1 control=64 value=0 time=0@control_change channel=1 control=64 value=127 time=0@note_on channel=1 note=33 velocity=110 time=0@note_on channel=1 note=45 velocity=110 time=0@note_on channel=0 note=69 velocity=0 time=0.24999999999999997@note_on channel=0 note=74 velocity=0 time=0@note_on channel=0 note=77 velocity=0 time=0@note_on channel=1 note=33 velocity=0 time=0@note_on channel=1 note=45 velocity=0 time=0@note_on channel=1 note=33 velocity=110 time=0.049999999999999996@note_on channel=1 note=45 velocity=110 time=0@note_on channel=1 note=33 velocity=0 time=0.14687499999999998@note_on channel=1 note=45 velocity=0 time=0@note_on channel=1 note=33 velocity=110 time=0.0031249999999999997@note_on channel=1 note=45 velocity=110 time=0@note_on channel=1 note=33 velocity=0 time=0.14687499999999998@note_on channel=1 note=45 velocity=0 time=0@note_on channel=1 note=33 velocity=110 time=0.0031249999999999997@note_on channel=1 note=45 velocity=110 time=0@note_on channel=1 note=33 velocity=0 time=0.14687499999999998@note_on channel=1 note=45 velocity=0 time=0@note_on channel=1 note=33 velocity=110 time=0.0031249999999999997@note_on channel=1 note=45 velocity=110 time=0@note_on channel=1 note=33 velocity=0 time=0.14687499999999998@note_on channel=1 note=45 velocity=0 time=0@control_change channel=0 control=64 value=0 time=0.0031249999999999997@control_change channel=0 control=64 value=127 time=0@note_on channel=0 note=69 velocity=110 time=0@note_on channel=0 note=77 velocity=110 time=0@note_on channel=1 note=33 velocity=110 time=0@note_on channel=1 note=45 velocity=110 time=0@note_on channel=0 note=69 velocity=0 time=0.24999999999999997@note_on channel=0 note=77 velocity=0 time=0@note_on channel=1 note=33 velocity=0 time=0@note_on channel=1 note=45 velocity=0 time=0@note_on channel=0 note=69 velocity=110 time=0.049999999999999996@note_on channel=0 note=79 velocity=110 time=0@note_on channel=1 note=33 velocity=110 time=0@note_on channel=1 note=45 velocity=110 time=0@note_on channel=1 note=33 velocity=0 time=0.14687499999999998@note_on channel=1 note=45 velocity=0 time=0@note_on channel=1 note=33 velocity=110 time=0.0031249999999999997@note_on channel=1 note=45 velocity=110 time=0@note_on channel=0 note=69 velocity=0 time=0.09999999999999999@note_on channel=0 note=79 velocity=0 time=0@note_on channel=1 note=33 velocity=0 time=0.04687499999999999@note_on channel=1 note=45 velocity=0 time=0@note_on channel=0 note=69 velocity=110 time=0.0031249999999999997@note_on channel=0 note=76 velocity=110 time=0@note_on channel=1 note=33 velocity=110 time=0@note_on channel=1 note=45 velocity=110 time=0@note_on channel=1 note=33 velocity=0 time=0.14687499999999998@note_on channel=1 note=45 velocity=0 time=0@note_on channel=1 note=33 velocity=110 time=0.0031249999999999997@note_on channel=1 note=45 velocity=110 time=0@note_on channel=0 note=69 velocity=0 time=0.09999999999999999@note_on channel=0 note=76 velocity=0 time=0@note_on channel=1 note=33 velocity=0 time=0.04687499999999999@note_on channel=1 note=45 velocity=0 time=0@control_change channel=0 control=64 value=0 time=0.0031249999999999997@control_change channel=0 control=64 value=127 time=0@note_on channel=0 note=65 velocity=110 time=0@note_on channel=0 note=69 velocity=110 time=0@note_on channel=0 note=74 velocity=110 time=0@control_change channel=1 control=64 value=0 time=0@control_change channel=1 control=64 value=127 time=0@note_on channel=1 note=38 velocity=110 time=0@note_on channel=1 note=50 velocity=110 time=0@note_on channel=1 note=38 velocity=0 time=0.24999999999999997@note_on channel=1 note=50 velocity=0 time=0@note_on channel=1 note=38 velocity=110 time=0.049999999999999996@note_on channel=1 note=50 velocity=110 time=0@note_on channel=0 note=65 velocity=0 time=0.09999999999999999@note_on channel=0 note=69 velocity=0 time=0@note_on channel=0 note=74 velocity=0 time=0@note_on channel=1 note=38 velocity=0 time=0.04687499999999999@note_on channel=1 note=50 velocity=0 time=0@note_on channel=0 note=74 velocity=110 time=0.0031249999999999997@note_on channel=1 note=38 velocity=110 time=0@note_on channel=1 note=50 velocity=110 time=0@note_on channel=0 note=74 velocity=0 time=0.14687499999999998@note_on channel=1 note=38 velocity=0 time=0@note_on channel=1 note=50 velocity=0 time=0@note_on channel=0 note=76 velocity=110 time=0.0031249999999999997@note_on channel=1 note=38 velocity=110 time=0@note_on channel=1 note=50 velocity=110 time=0@note_on channel=0 note=76 velocity=0 time=0.14687499999999998@note_on channel=1 note=38 velocity=0 time=0@note_on channel=1 note=50 velocity=0 time=0@note_on channel=0 note=77 velocity=110 time=0.0031249999999999997@note_on channel=1 note=38 velocity=110 time=0@note_on channel=1 note=50 velocity=110 time=0@note_on channel=0 note=77 velocity=0 time=0.14687499999999998@note_on channel=1 note=38 velocity=0 time=0@note_on channel=1 note=50 velocity=0 time=0@control_change channel=0 control=64 value=0 time=0.0031249999999999997@control_change channel=0 control=64 value=127 time=0@note_on channel=0 note=74 velocity=110 time=0@note_on channel=0 note=77 velocity=110 time=0@note_on channel=0 note=81 velocity=110 time=0@control_change channel=1 control=64 value=0 time=0@control_change channel=1 control=64 value=127 time=0@note_on channel=1 note=38 velocity=110 time=0@note_on channel=1 note=50 velocity=110 time=0@note_on channel=1 note=38 velocity=0 time=0.24999999999999997@note_on channel=1 note=50 velocity=0 time=0@note_on channel=1 note=38 velocity=110 time=0.049999999999999996@note_on channel=1 note=50 velocity=110 time=0@note_on channel=0 note=74 velocity=0 time=0.09999999999999999@note_on channel=0 note=77 velocity=0 time=0@note_on channel=0 note=81 velocity=0 time=0@note_on channel=1 note=38 velocity=0 time=0.04687499999999999@note_on channel=1 note=50 velocity=0 time=0@note_on channel=0 note=74 velocity=110 time=0.0031249999999999997@note_on channel=1 note=38 velocity=110 time=0@note_on channel=1 note=50 velocity=110 time=0@note_on channel=0 note=74 velocity=0 time=0.14687499999999998@note_on channel=1 note=38 velocity=0 time=0@note_on channel=1 note=50 velocity=0 time=0@note_on channel=0 note=76 velocity=110 time=0.0031249999999999997@note_on channel=1 note=38 velocity=110 time=0@note_on channel=1 note=50 velocity=110 time=0@note_on channel=0 note=76 velocity=0 time=0.14687499999999998@note_on channel=1 note=38 velocity=0 time=0@note_on channel=1 note=50 velocity=0 time=0@note_on channel=0 note=77 velocity=110 time=0.0031249999999999997@note_on channel=1 note=38 velocity=110 time=0@note_on channel=1 note=50 velocity=110 time=0@note_on channel=0 note=77 velocity=0 time=0.14687499999999998@note_on channel=1 note=38 velocity=0 time=0@note_on channel=1 note=50 velocity=0 time=0@control_change channel=0 control=64 value=0 time=0.0031249999999999997@control_change channel=0 control=64 value=127 time=0@note_on channel=0 note=74 velocity=110 time=0@note_on channel=0 note=77 velocity=110 time=0@note_on channel=0 note=82 velocity=110 time=0@control_change channel=1 control=64 value=0 time=0@control_change channel=1 control=64 value=127 time=0@note_on channel=1 note=34 velocity=110 time=0@note_on channel=1 note=46 velocity=110 time=0@note_on channel=1 note=34 velocity=0 time=0.24999999999999997@note_on channel=1 note=46 velocity=0 time=0@note_on channel=1 note=34 velocity=110 time=0.049999999999999996@note_on channel=1 note=46 velocity=110 time=0@note_on channel=0 note=74 velocity=0 time=0.09999999999999999@note_on channel=0 note=77 velocity=0 time=0@note_on channel=0 note=82 velocity=0 time=0@note_on channel=1 note=34 velocity=0 time=0.04687499999999999@note_on channel=1 note=46 velocity=0 time=0@note_on channel=0 note=74 velocity=110 time=0.0031249999999999997@note_on channel=1 note=34 velocity=110 time=0@note_on channel=1 note=46 velocity=110 time=0@note_on channel=0 note=74 velocity=0 time=0.14687499999999998@note_on channel=1 note=34 velocity=0 time=0@note_on channel=1 note=46 velocity=0 time=0@note_on channel=0 note=76 velocity=110 time=0.0031249999999999997@note_on channel=1 note=34 velocity=110 time=0@note_on channel=1 note=46 velocity=110 time=0@note_on channel=0 note=76 velocity=0 time=0.14687499999999998@note_on channel=1 note=34 velocity=0 time=0@note_on channel=1 note=46 velocity=0 time=0@note_on channel=0 note=77 velocity=110 time=0.0031249999999999997@note_on channel=1 note=34 velocity=110 time=0@note_on channel=1 note=46 velocity=110 time=0@note_on channel=0 note=77 velocity=0 time=0.14687499999999998@note_on channel=1 note=34 velocity=0 time=0@note_on channel=1 note=46 velocity=0 time=0@control_change channel=0 control=64 value=0 time=0.0031249999999999997@control_change channel=0 control=64 value=127 time=0@note_on channel=0 note=72 velocity=110 time=0@note_on channel=0 note=77 velocity=110 time=0@note_on channel=0 note=81 velocity=110 time=0@control_change channel=1 control=64 value=0 time=0@control_change channel=1 control=64 value=127 time=0@note_on channel=1 note=41 velocity=110 time=0@note_on channel=1 note=53 velocity=110 time=0@note_on channel=0 note=72 velocity=0 time=0.24999999999999997@note_on channel=0 note=77 velocity=0 time=0@note_on channel=0 note=81 velocity=0 time=0@note_on channel=1 note=41 velocity=0 time=0@note_on channel=1 note=53 velocity=0 time=0@note_on channel=0 note=72 velocity=110 time=0.049999999999999996@note_on channel=0 note=77 velocity=110 time=0@note_on channel=0 note=81 velocity=110 time=0@note_on channel=1 note=41 velocity=110 time=0@note_on channel=1 note=53 velocity=110 time=0@note_on channel=1 note=41 velocity=0 time=0.14687499999999998@note_on channel=1 note=53 velocity=0 time=0@note_on channel=1 note=41 velocity=110 time=0.0031249999999999997@note_on channel=1 note=53 velocity=110 time=0@note_on channel=0 note=72 velocity=0 time=0.09999999999999999@note_on channel=0 note=77 velocity=0 time=0@note_on channel=0 note=81 velocity=0 time=0@note_on channel=1 note=41 velocity=0 time=0.04687499999999999@note_on channel=1 note=53 velocity=0 time=0@note_on channel=0 note=77 velocity=110 time=0.0031249999999999997@note_on channel=0 note=84 velocity=110 time=0@note_on channel=1 note=41 velocity=110 time=0@note_on channel=1 note=53 velocity=110 time=0@note_on channel=1 note=41 velocity=0 time=0.14687499999999998@note_on channel=1 note=53 velocity=0 time=0@note_on channel=1 note=41 velocity=110 time=0.0031249999999999997@note_on channel=1 note=53 velocity=110 time=0@note_on channel=0 note=77 velocity=0 time=0.09999999999999999@note_on channel=0 note=84 velocity=0 time=0@note_on channel=1 note=41 velocity=0 time=0.04687499999999999@note_on channel=1 note=53 velocity=0 time=0@control_change channel=0 control=64 value=0 time=0.0031249999999999997@control_change channel=0 control=64 value=127 time=0@note_on channel=0 note=72 velocity=110 time=0@note_on channel=0 note=76 velocity=110 time=0@note_on channel=0 note=81 velocity=110 time=0@control_change channel=1 control=64 value=0 time=0@control_change channel=1 control=64 value=127 time=0@note_on channel=1 note=36 velocity=110 time=0@note_on channel=1 note=48 velocity=110 time=0@note_on channel=0 note=72 velocity=0 time=0.14687499999999998@note_on channel=0 note=76 velocity=0 time=0@note_on channel=0 note=81 velocity=0 time=0@note_on channel=0 note=79 velocity=110 time=0.0031249999999999997@note_on channel=1 note=36 velocity=0 time=0.09999999999999999@note_on channel=1 note=48 velocity=0 time=0@note_on channel=0 note=79 velocity=0 time=0.04687499999999999@note_on channel=1 note=36 velocity=110 time=0.0031249999999999997@note_on channel=1 note=48 velocity=110 time=0@note_on channel=1 note=36 velocity=0 time=0.14687499999999998@note_on channel=1 note=48 velocity=0 time=0@note_on channel=1 note=36 velocity=110 time=0.0031249999999999997@note_on channel=1 note=48 velocity=110 time=0@note_on channel=1 note=36 velocity=0 time=0.14687499999999998@note_on channel=1 note=48 velocity=0 time=0@note_on channel=1 note=36 velocity=110 time=0.0031249999999999997@note_on channel=1 note=48 velocity=110 time=0@note_on channel=1 note=36 velocity=0 time=0.14687499999999998@note_on channel=1 note=48 velocity=0 time=0@note_on channel=1 note=36 velocity=110 time=0.0031249999999999997@note_on channel=1 note=48 velocity=110 time=0@note_on channel=1 note=36 velocity=0 time=0.14687499999999998@note_on channel=1 note=48 velocity=0 time=0@control_change channel=0 control=64 value=0 time=0.0031249999999999997@control_change channel=0 control=64 value=127 time=0@note_on channel=0 note=70 velocity=110 time=0@note_on channel=0 note=74 velocity=110 time=0@note_on channel=0 note=79 velocity=110 time=0@control_change channel=1 control=64 value=0 time=0@control_change channel=1 control=64 value=127 time=0@note_on channel=1 note=31 velocity=110 time=0@note_on channel=1 note=43 velocity=110 time=0@note_on channel=0 note=70 velocity=0 time=0.24999999999999997@note_on channel=0 note=74 velocity=0 time=0@note_on channel=0 note=79 velocity=0 time=0@note_on channel=1 note=31 velocity=0 time=0@note_on channel=1 note=43 velocity=0 time=0@note_on channel=1 note=31 velocity=110 time=0.049999999999999996@note_on channel=1 note=43 velocity=110 time=0@note_on channel=1 note=31 velocity=0 time=0.14687499999999998@note_on channel=1 note=43 velocity=0 time=0@note_on channel=1 note=31 velocity=110 time=0.0031249999999999997@note_on channel=1 note=43 velocity=110 time=0@note_on channel=1 note=31 velocity=0 time=0.14687499999999998@note_on channel=1 note=43 velocity=0 time=0@note_on channel=1 note=31 velocity=110 time=0.0031249999999999997@note_on channel=1 note=43 velocity=110 time=0@note_on channel=1 note=31 velocity=0 time=0.14687499999999998@note_on channel=1 note=43 velocity=0 time=0@note_on channel=1 note=31 velocity=110 time=0.0031249999999999997@note_on channel=1 note=43 velocity=110 time=0@note_on channel=1 note=31 velocity=0 time=0.14687499999999998@note_on channel=1 note=43 velocity=0 time=0@control_change channel=0 control=64 value=0 time=0.0031249999999999997@control_change channel=0 control=64 value=127 time=0@note_on channel=0 note=69 velocity=110 time=0@note_on channel=0 note=74 velocity=110 time=0@note_on channel=0 note=77 velocity=110 time=0@control_change channel=1 control=64 value=0 time=0@control_change channel=1 control=64 value=127 time=0@note_on channel=1 note=33 velocity=110 time=0@note_on channel=1 note=45 velocity=110 time=0@note_on channel=0 note=69 velocity=0 time=0.24999999999999997@note_on channel=0 note=74 velocity=0 time=0@note_on channel=0 note=77 velocity=0 time=0@note_on channel=1 note=33 velocity=0 time=0@note_on channel=1 note=45 velocity=0 time=0@note_on channel=1 note=33 velocity=110 time=0.049999999999999996@note_on channel=1 note=45 velocity=110 time=0@note_on channel=1 note=33 velocity=0 time=0.14687499999999998@note_on channel=1 note=45 velocity=0 time=0@note_on channel=1 note=33 velocity=110 time=0.0031249999999999997@note_on channel=1 note=45 velocity=110 time=0@note_on channel=1 note=33 velocity=0 time=0.14687499999999998@note_on channel=1 note=45 velocity=0 time=0@note_on channel=1 note=33 velocity=110 time=0.0031249999999999997@note_on channel=1 note=45 velocity=110 time=0@note_on channel=1 note=33 velocity=0 time=0.14687499999999998@note_on channel=1 note=45 velocity=0 time=0@note_on channel=1 note=33 velocity=110 time=0.0031249999999999997@note_on channel=1 note=45 velocity=110 time=0@note_on channel=1 note=33 velocity=0 time=0.14687499999999998@note_on channel=1 note=45 velocity=0 time=0@control_change channel=0 control=64 value=0 time=0.0031249999999999997@control_change channel=0 control=64 value=127 time=0@note_on channel=0 note=69 velocity=110 time=0@note_on channel=0 note=77 velocity=110 time=0@note_on channel=1 note=33 velocity=110 time=0@note_on channel=1 note=45 velocity=110 time=0@note_on channel=0 note=69 velocity=0 time=0.24999999999999997@note_on channel=0 note=77 velocity=0 time=0@note_on channel=1 note=33 velocity=0 time=0@note_on channel=1 note=45 velocity=0 time=0@note_on channel=0 note=69 velocity=110 time=0.049999999999999996@note_on channel=0 note=79 velocity=110 time=0@note_on channel=1 note=33 velocity=110 time=0@note_on channel=1 note=45 velocity=110 time=0@note_on channel=1 note=33 velocity=0 time=0.14687499999999998@note_on channel=1 note=45 velocity=0 time=0@note_on channel=1 note=33 velocity=110 time=0.0031249999999999997@note_on channel=1 note=45 velocity=110 time=0@note_on channel=0 note=69 velocity=0 time=0.09999999999999999@note_on channel=0 note=79 velocity=0 time=0@note_on channel=1 note=33 velocity=0 time=0.04687499999999999@note_on channel=1 note=45 velocity=0 time=0@note_on channel=0 note=69 velocity=110 time=0.0031249999999999997@note_on channel=0 note=76 velocity=110 time=0@note_on channel=1 note=33 velocity=110 time=0@note_on channel=1 note=45 velocity=110 time=0@note_on channel=1 note=33 velocity=0 time=0.14687499999999998@note_on channel=1 note=45 velocity=0 time=0@note_on channel=1 note=33 velocity=110 time=0.0031249999999999997@note_on channel=1 note=45 velocity=110 time=0@note_on channel=0 note=69 velocity=0 time=0.09999999999999999@note_on channel=0 note=76 velocity=0 time=0@note_on channel=1 note=33 velocity=0 time=0.04687499999999999@note_on channel=1 note=45 velocity=0 time=0@control_change channel=0 control=64 value=0 time=0.0031249999999999997@control_change channel=0 control=64 value=127 time=0@note_on channel=0 note=65 velocity=110 time=0@note_on channel=0 note=69 velocity=110 time=0@note_on channel=0 note=74 velocity=110 time=0@control_change channel=1 control=64 value=0 time=0@control_change channel=1 control=64 value=127 time=0@note_on channel=1 note=38 velocity=110 time=0@note_on channel=1 note=50 velocity=110 time=0@note_on channel=0 note=65 velocity=0 time=0.39999999999999997@note_on channel=0 note=69 velocity=0 time=0@note_on channel=0 note=74 velocity=0 time=0@note_on channel=1 note=38 velocity=0 time=0@note_on channel=1 note=50 velocity=0 time=0@note_on channel=1 note=38 velocity=110 time=0.049999999999999996@note_on channel=1 note=50 velocity=110 time=0@note_on channel=1 note=38 velocity=0 time=0.14687499999999998@note_on channel=1 note=50 velocity=0 time=0@note_on channel=1 note=38 velocity=110 time=0.0031249999999999997@note_on channel=1 note=50 velocity=110 time=0@note_on channel=1 note=38 velocity=0 time=0.14687499999999998@note_on channel=1 note=50 velocity=0 time=0@note_on channel=1 note=38 velocity=110 time=0.0031249999999999997@note_on channel=1 note=50 velocity=110 time=0@note_on channel=1 note=38 velocity=0 time=0.14687499999999998@note_on channel=1 note=50 velocity=0 time=0@note_on channel=0 note=62 velocity=110 time=0.0031249999999999997@control_change channel=1 control=64 value=0 time=0@control_change channel=1 control=64 value=127 time=0@note_on channel=1 note=26 velocity=110 time=0@note_on channel=1 note=38 velocity=110 time=0@note_on channel=0 note=62 velocity=0 time=1.125@note_on channel=1 note=26 velocity=0 time=0@note_on channel=1 note=38 velocity=0 time=0@<meta message end_of_track time=0>@