<meta message sequencer_specific data=(5, 15, 18, 3, 3, 127, 127, 0, 255, 1, 4, 47, 83, 112, 101, 97, 107, 101, 114, 115, 32, 47, 32, 72, 80, 32, 40, 73, 68, 84, 32, 72, 105, 103, 104, 32, 68, 101, 102, 105, 110, 105, 116, 105, 111, 110, 32, 65, 117, 100, 105, 111, 32, 67, 79, 68, 69, 67, 41) time=0>@<meta message set_tempo tempo=487805 time=0>@<meta message sequencer_specific data=(5, 15, 28, 50, 48, 49, 54, 46, 48, 55, 46, 48, 49, 1, 3) time=0>@<meta message sequencer_specific data=(5, 15, 45, 77, 105, 99, 114, 111, 115, 111, 102, 116, 32, 83, 97, 110, 115, 32, 83, 101, 114, 105, 102, 44, 56, 46, 50, 53, 44, 70, 97, 108, 115, 101, 44, 70, 97, 108, 115, 101, 44, 49, 44, 48) time=0>@<meta message time_signature numerator=4 denominator=4 clocks_per_click=24 notated_32nd_notes_per_beat=8 time=0>@<meta message sequencer_specific data=(5, 15, 35, 0, 0, 50, 0, 49, 0, 48, 0, 47, 0, 46, 0, 45, 0, 44, 0, 43, 0, 42, 0, 41, 0, 40, 0, 39, 0, 38, 0, 37, 0, 36, 0, 35, 0, 34, 0, 33, 0, 24, 0, 50, 0, 0, 0, 4, 0, 2, 0, 1) time=0>@<meta message sequencer_specific data=(5, 15, 35, 1, 0, 0, 1, 2, 1, 0, 0, 73, 0, 106, 0, 105, 0, 104, 0, 103, 0, 102, 0, 101, 0, 100, 0, 99, 0, 98, 0, 97, 0, 96, 0, 95, 0, 94, 0, 93, 0, 92, 0, 91, 0, 90, 0, 89, 0, 88, 0, 87, 0, 86, 0, 85, 0, 84, 0, 83, 0, 82, 0, 81, 0, 80, 0, 79, 0, 78, 0, 77, 0, 76, 0, 75, 0, 74, 0, 73, 0, 72, 0, 71, 0, 70, 0, 69, 0, 68, 0, 67, 0, 66, 0, 65, 0, 64, 0, 63, 0, 62, 0, 61, 0, 60, 0, 59, 0, 58, 0, 57, 0, 56, 0, 55, 0, 54, 0, 53, 0, 52, 0, 51) time=0>@<meta message sequencer_specific data=(5, 15, 9, 8, 64) time=0>@control_change channel=0 control=7 value=106 time=0@program_change channel=0 program=32 time=0@<meta message sequencer_specific data=(5, 15, 6, 71, 101, 110, 101, 114, 97, 108, 32, 77, 73, 68, 73) time=0>@<meta message track_name name='Track 1' time=0>@<meta message sequencer_specific data=(5, 15, 9, 72, 72) time=0>@<meta message sequencer_specific data=(5, 15, 35, 0, 0, 52, 0, 51, 0, 50, 0, 49, 0, 48, 0, 47, 0, 46, 0, 45, 0, 44, 0, 43, 0, 42, 0, 41, 0, 40, 0, 39, 0, 38, 0, 37, 0, 36, 0, 35, 0, 24, 0, 50, 0, 0, 0, 4, 0, 3, 0, 1) time=0>@<meta message sequencer_specific data=(5, 15, 35, 1, 0, 0, 1, 2, 1, 0, 0, 73, 0, 108, 0, 107, 0, 106, 0, 105, 0, 104, 0, 103, 0, 102, 0, 101, 0, 100, 0, 99, 0, 98, 0, 97, 0, 96, 0, 95, 0, 94, 0, 93, 0, 92, 0, 91, 0, 90, 0, 89, 0, 88, 0, 87, 0, 86, 0, 85, 0, 84, 0, 83, 0, 82, 0, 81, 0, 80, 0, 79, 0, 78, 0, 77, 0, 76, 0, 75, 0, 74, 0, 73, 0, 72, 0, 71, 0, 70, 0, 69, 0, 68, 0, 67, 0, 66, 0, 65, 0, 64, 0, 63, 0, 62, 0, 61, 0, 60, 0, 59, 0, 58, 0, 57, 0, 56, 0, 55, 0, 54, 0, 53) time=0>@control_change channel=1 control=7 value=112 time=0@<meta message sequencer_specific data=(5, 15, 6, 71, 101, 110, 101, 114, 97, 108, 32, 77, 73, 68, 73) time=0>@program_change channel=1 program=4 time=0@<meta message track_name name='Track 3' time=0>@<meta message sequencer_specific data=(5, 15, 35, 0, 0, 52, 0, 51, 0, 50, 0, 49, 0, 48, 0, 47, 0, 46, 0, 45, 0, 44, 0, 43, 0, 42, 0, 41, 0, 40, 0, 39, 0, 38, 0, 37, 0, 36, 0, 35, 0, 24, 0, 25, 0, 0, 0, 4, 0, 4, 0, 1) time=0>@<meta message sequencer_specific data=(5, 15, 35, 1, 0, 0, 1, 2, 1, 0, 0, 73, 0, 108, 0, 107, 0, 106, 0, 105, 0, 104, 0, 103, 0, 102, 0, 101, 0, 100, 0, 99, 0, 98, 0, 97, 0, 96, 0, 95, 0, 94, 0, 93, 0, 92, 0, 91, 0, 90, 0, 89, 0, 88, 0, 87, 0, 86, 0, 85, 0, 84, 0, 83, 0, 82, 0, 81, 0, 80, 0, 79, 0, 78, 0, 77, 0, 76, 0, 75, 0, 74, 0, 73, 0, 72, 0, 71, 0, 70, 0, 69, 0, 68, 0, 67, 0, 66, 0, 65, 0, 64, 0, 63, 0, 62, 0, 61, 0, 60, 0, 59, 0, 58, 0, 57, 0, 56, 0, 55, 0, 54, 0, 53) time=0>@<meta message sequencer_specific data=(5, 15, 9, 8, 64) time=0>@program_change channel=2 program=65 time=0@<meta message sequencer_specific data=(5, 15, 6, 71, 101, 110, 101, 114, 97, 108, 32, 77, 73, 68, 73) time=0>@<meta message track_name name='Track 4' time=0>@<meta message sequencer_specific data=(5, 15, 9, 8, 64) time=0>@<meta message sequencer_specific data=(5, 15, 35, 0, 0, 52, 0, 51, 0, 50, 0, 49, 0, 48, 0, 47, 0, 46, 0, 45, 0, 44, 0, 43, 0, 42, 0, 41, 0, 40, 0, 39, 0, 38, 0, 37, 0, 36, 0, 35, 0, 24, 0, 37, 0, 0, 0, 4, 0, 5, 0, 1) time=0>@<meta message sequencer_specific data=(5, 15, 35, 1, 0, 0, 1, 2, 1, 0, 0, 73, 0, 108, 0, 107, 0, 106, 0, 105, 0, 104, 0, 103, 0, 102, 0, 101, 0, 100, 0, 99, 0, 98, 0, 97, 0, 96, 0, 95, 0, 94, 0, 93, 0, 92, 0, 91, 0, 90, 0, 89, 0, 88, 0, 87, 0, 86, 0, 85, 0, 84, 0, 83, 0, 82, 0, 81, 0, 80, 0, 79, 0, 78, 0, 77, 0, 76, 0, 75, 0, 74, 0, 73, 0, 72, 0, 71, 0, 70, 0, 69, 0, 68, 0, 67, 0, 66, 0, 65, 0, 64, 0, 63, 0, 62, 0, 61, 0, 60, 0, 59, 0, 58, 0, 57, 0, 56, 0, 55, 0, 54, 0, 53) time=0>@control_change channel=3 control=7 value=86 time=0@<meta message sequencer_specific data=(5, 15, 6, 71, 101, 110, 101, 114, 97, 108, 32, 77, 73, 68, 73) time=0>@program_change channel=3 program=40 time=0@<meta message track_name name='Track 5' time=0>@<meta message sequencer_specific data=(5, 15, 35, 0, 0, 52, 0, 51, 0, 50, 0, 49, 0, 48, 0, 47, 0, 46, 0, 45, 0, 44, 0, 43, 0, 42, 0, 41, 0, 40, 0, 39, 0, 38, 0, 37, 0, 36, 0, 35, 0, 24, 0, 26, 0, 0, 0, 4, 0, 6, 0, 1) time=0>@<meta message sequencer_specific data=(5, 15, 35, 1, 0, 0, 1, 2, 1, 0, 0, 73, 0, 108, 0, 107, 0, 106, 0, 105, 0, 104, 0, 103, 0, 102, 0, 101, 0, 100, 0, 99, 0, 98, 0, 97, 0, 96, 0, 95, 0, 94, 0, 93, 0, 92, 0, 91, 0, 90, 0, 89, 0, 88, 0, 87, 0, 86, 0, 85, 0, 84, 0, 83, 0, 82, 0, 81, 0, 80, 0, 79, 0, 78, 0, 77, 0, 76, 0, 75, 0, 74, 0, 73, 0, 72, 0, 71, 0, 70, 0, 69, 0, 68, 0, 67, 0, 66, 0, 65, 0, 64, 0, 63, 0, 62, 0, 61, 0, 60, 0, 59, 0, 58, 0, 57, 0, 56, 0, 55, 0, 54, 0, 53) time=0>@<meta message sequencer_specific data=(5, 15, 9, 8, 64) time=0>@control_change channel=4 control=7 value=106 time=0@<meta message sequencer_specific data=(5, 15, 6, 71, 101, 110, 101, 114, 97, 108, 32, 77, 73, 68, 73) time=0>@program_change channel=4 program=56 time=0@<meta message track_name name='Track 6' time=0>@<meta message sequencer_specific data=(5, 15, 35, 0, 0, 52, 0, 51, 0, 50, 0, 49, 0, 48, 0, 47, 0, 46, 0, 45, 0, 44, 0, 43, 0, 42, 0, 41, 0, 40, 0, 39, 0, 38, 0, 37, 0, 36, 0, 35, 0, 24, 0, 50, 0, 0, 0, 4, 0, 7, 0, 1) time=0>@<meta message sequencer_specific data=(5, 15, 35, 1, 0, 0, 1, 2, 1, 0, 0, 73, 0, 108, 0, 107, 0, 106, 0, 105, 0, 104, 0, 103, 0, 102, 0, 101, 0, 100, 0, 99, 0, 98, 0, 97, 0, 96, 0, 95, 0, 94, 0, 93, 0, 92, 0, 91, 0, 90, 0, 89, 0, 88, 0, 87, 0, 86, 0, 85, 0, 84, 0, 83, 0, 82, 0, 81, 0, 80, 0, 79, 0, 78, 0, 77, 0, 76, 0, 75, 0, 74, 0, 73, 0, 72, 0, 71, 0, 70, 0, 69, 0, 68, 0, 67, 0, 66, 0, 65, 0, 64, 0, 63, 0, 62, 0, 61, 0, 60, 0, 59, 0, 58, 0, 57, 0, 56, 0, 55, 0, 54, 0, 53) time=0>@<meta message sequencer_specific data=(5, 15, 9, 8, 64) time=0>@<meta message sequencer_specific data=(5, 15, 6, 71, 101, 110, 101, 114, 97, 108, 32, 77, 73, 68, 73) time=0>@<meta message track_name name='Track 7' time=0>@program_change channel=9 program=32 time=0@note_on channel=0 note=36 velocity=127 time=1.95122@note_on channel=9 note=36 velocity=127 time=0@note_on channel=9 note=62 velocity=67 time=0@note_on channel=9 note=42 velocity=86 time=0@note_off channel=9 note=42 velocity=0 time=0.16260166666666664@note_off channel=9 note=62 velocity=0 time=0@note_off channel=9 note=36 velocity=0 time=0@note_off channel=0 note=36 velocity=0 time=0.16260166666666664@note_on channel=0 note=39 velocity=127 time=0@note_on channel=9 note=42 velocity=74 time=0@note_off channel=0 note=39 velocity=0 time=0.16260166666666664@pitchwheel channel=0 pitch=-4096 time=0@note_on channel=0 note=41 velocity=113 time=0@note_off channel=9 note=42 velocity=0 time=0@note_on channel=9 note=37 velocity=95 time=0@note_on channel=9 note=38 velocity=95 time=0@pitchwheel channel=0 pitch=-2048 time=0.04065041666666666@pitchwheel channel=0 pitch=-820 time=0.04065041666666666@pitchwheel channel=0 pitch=-246 time=0.04065041666666666@pitchwheel channel=0 pitch=0 time=0.04065041666666666@note_off channel=9 note=38 velocity=0 time=0@note_off channel=9 note=37 velocity=0 time=0@note_off channel=0 note=41 velocity=0 time=0.16260166666666664@note_on channel=0 note=42 velocity=127 time=0@note_on channel=9 note=42 velocity=127 time=0@note_on channel=9 note=73 velocity=70 time=0@note_off channel=0 note=42 velocity=0 time=0.16260166666666664@note_on channel=0 note=41 velocity=127 time=0@note_off channel=9 note=73 velocity=0 time=0@note_off channel=9 note=42 velocity=0 time=0@note_on channel=9 note=36 velocity=127 time=0@note_on channel=9 note=42 velocity=100 time=0@note_off channel=9 note=42 velocity=0 time=0.16260166666666664@note_off channel=9 note=36 velocity=0 time=0@note_off channel=0 note=41 velocity=0 time=0.16260166666666664@note_on channel=0 note=39 velocity=127 time=0@note_on channel=9 note=42 velocity=127 time=0@note_off channel=0 note=39 velocity=0 time=0.16260166666666664@note_on channel=0 note=36 velocity=127 time=0@note_off channel=9 note=42 velocity=0 time=0@note_on channel=9 note=38 velocity=95 time=0@note_on channel=9 note=37 velocity=95 time=0@note_on channel=9 note=62 velocity=70 time=0@note_off channel=9 note=62 velocity=0 time=0.16260166666666664@note_off channel=9 note=37 velocity=0 time=0@note_off channel=9 note=38 velocity=0 time=0@note_off channel=0 note=36 velocity=0 time=0.16260166666666664@note_on channel=0 note=39 velocity=127 time=0@note_on channel=9 note=42 velocity=127 time=0@note_off channel=0 note=39 velocity=0 time=0.16260166666666664@note_on channel=0 note=36 velocity=127 time=0@note_off channel=9 note=42 velocity=0 time=0@note_on channel=9 note=36 velocity=127 time=0@note_on channel=9 note=62 velocity=67 time=0@note_off channel=9 note=62 velocity=0 time=0.16260166666666664@note_off channel=9 note=36 velocity=0 time=0@note_off channel=0 note=36 velocity=0 time=0.16260166666666664@note_on channel=0 note=39 velocity=127 time=0@note_on channel=9 note=42 velocity=74 time=0@note_off channel=0 note=39 velocity=0 time=0.16260166666666664@pitchwheel channel=0 pitch=-4096 time=0@note_on channel=0 note=41 velocity=113 time=0@note_off channel=9 note=42 velocity=0 time=0@note_on channel=9 note=38 velocity=95 time=0@note_on channel=9 note=37 velocity=95 time=0@pitchwheel channel=0 pitch=-2048 time=0.04065041666666666@pitchwheel channel=0 pitch=-820 time=0.04065041666666666@pitchwheel channel=0 pitch=-246 time=0.04065041666666666@pitchwheel channel=0 pitch=0 time=0.04065041666666666@note_off channel=9 note=37 velocity=0 time=0@note_off channel=9 note=38 velocity=0 time=0@note_off channel=0 note=41 velocity=0 time=0.16260166666666664@note_on channel=0 note=42 velocity=127 time=0@note_on channel=9 note=42 velocity=127 time=0@note_on channel=9 note=73 velocity=70 time=0@note_off channel=0 note=42 velocity=0 time=0.16260166666666664@note_on channel=0 note=41 velocity=127 time=0@note_off channel=9 note=73 velocity=0 time=0@note_off channel=9 note=42 velocity=0 time=0@note_on channel=9 note=36 velocity=127 time=0@note_on channel=9 note=42 velocity=100 time=0@note_off channel=9 note=42 velocity=0 time=0.16260166666666664@note_off channel=9 note=36 velocity=0 time=0@note_off channel=0 note=41 velocity=0 time=0.16260166666666664@note_on channel=0 note=39 velocity=127 time=0@note_on channel=9 note=42 velocity=127 time=0@note_off channel=0 note=39 velocity=0 time=0.16260166666666664@note_on channel=0 note=36 velocity=127 time=0@note_off channel=9 note=42 velocity=0 time=0@note_on channel=9 note=38 velocity=95 time=0@note_on channel=9 note=37 velocity=95 time=0@note_on channel=9 note=62 velocity=70 time=0@note_off channel=9 note=62 velocity=0 time=0.16260166666666664@note_off channel=9 note=37 velocity=0 time=0@note_off channel=9 note=38 velocity=0 time=0@note_off channel=0 note=36 velocity=0 time=0.16260166666666664@note_on channel=0 note=38 velocity=127 time=0@note_on channel=9 note=42 velocity=127 time=0@note_off channel=0 note=38 velocity=0 time=0.16260166666666664@pitchwheel channel=0 pitch=-4096 time=0@note_on channel=0 note=39 velocity=113 time=0@control_change channel=4 control=7 value=100 time=0@note_off channel=9 note=42 velocity=0 time=0@note_on channel=9 note=42 velocity=86 time=0@note_on channel=9 note=36 velocity=127 time=0@note_on channel=9 note=62 velocity=88 time=0@pitchwheel channel=0 pitch=-2048 time=0.04065041666666666@pitchwheel channel=0 pitch=-820 time=0.04065041666666666@pitchwheel channel=0 pitch=-246 time=0.04065041666666666@pitchwheel channel=0 pitch=0 time=0.04065041666666666@note_off channel=9 note=62 velocity=0 time=0@note_off channel=9 note=36 velocity=0 time=0@note_off channel=9 note=42 velocity=0 time=0@note_off channel=0 note=39 velocity=0 time=0.16260166666666664@note_on channel=0 note=36 velocity=127 time=0@note_on channel=9 note=42 velocity=69 time=0@note_on channel=9 note=73 velocity=57 time=0@note_off channel=0 note=36 velocity=0 time=0.16260166666666664@note_on channel=0 note=38 velocity=127 time=0@note_off channel=9 note=73 velocity=0 time=0@note_off channel=9 note=42 velocity=0 time=0@note_on channel=9 note=63 velocity=81 time=0@note_on channel=9 note=40 velocity=28 time=0@note_on channel=9 note=70 velocity=51 time=0@note_on channel=9 note=50 velocity=42 time=0@note_on channel=9 note=77 velocity=81 time=0@note_on channel=9 note=73 velocity=60 time=0@note_off channel=9 note=73 velocity=0 time=0.16260166666666664@note_off channel=9 note=77 velocity=0 time=0@note_off channel=9 note=70 velocity=0 time=0@note_off channel=0 note=38 velocity=0 time=0.16260166666666664@note_on channel=0 note=36 velocity=127 time=0@note_on channel=9 note=42 velocity=127 time=0@note_off channel=0 note=36 velocity=0 time=0.16260166666666664@note_on channel=0 note=39 velocity=127 time=0@note_off channel=9 note=50 velocity=0 time=0@note_off channel=9 note=42 velocity=0 time=0@note_off channel=9 note=40 velocity=0 time=0@note_off channel=9 note=63 velocity=0 time=0@note_on channel=9 note=36 velocity=127 time=0@note_on channel=9 note=42 velocity=74 time=0@note_on channel=9 note=62 velocity=88 time=0@note_off channel=9 note=62 velocity=0 time=0.16260166666666664@note_off channel=9 note=42 velocity=0 time=0@note_off channel=9 note=36 velocity=0 time=0@note_off channel=0 note=39 velocity=0 time=0.16260166666666664@note_on channel=0 note=36 velocity=127 time=0@note_on channel=9 note=42 velocity=86 time=0@note_on channel=9 note=73 velocity=57 time=0@note_off channel=0 note=36 velocity=0 time=0.16260166666666664@note_on channel=0 note=38 velocity=127 time=0@note_off channel=9 note=73 velocity=0 time=0@note_off channel=9 note=42 velocity=0 time=0@note_on channel=9 note=63 velocity=81 time=0@note_on channel=9 note=40 velocity=28 time=0@note_on channel=9 note=70 velocity=51 time=0@note_on channel=9 note=50 velocity=42 time=0@note_on channel=9 note=77 velocity=81 time=0@note_on channel=9 note=73 velocity=60 time=0@note_off channel=9 note=73 velocity=0 time=0.16260166666666664@note_off channel=9 note=77 velocity=0 time=0@note_off channel=9 note=70 velocity=0 time=0@note_off channel=0 note=38 velocity=0 time=0.16260166666666664@note_on channel=0 note=36 velocity=127 time=0@note_on channel=9 note=42 velocity=86 time=0@note_off channel=0 note=36 velocity=0 time=0.16260166666666664@note_on channel=0 note=39 velocity=127 time=0@note_off channel=9 note=50 velocity=0 time=0@note_off channel=9 note=42 velocity=0 time=0@note_off channel=9 note=40 velocity=0 time=0@note_off channel=9 note=63 velocity=0 time=0@note_on channel=9 note=42 velocity=86 time=0@note_on channel=9 note=36 velocity=127 time=0@note_on channel=9 note=62 velocity=88 time=0@note_off channel=9 note=62 velocity=0 time=0.16260166666666664@note_off channel=9 note=36 velocity=0 time=0@note_off channel=9 note=42 velocity=0 time=0@note_off channel=0 note=39 velocity=0 time=0.16260166666666664@note_on channel=0 note=36 velocity=127 time=0@note_on channel=9 note=42 velocity=69 time=0@note_on channel=9 note=73 velocity=57 time=0@note_off channel=0 note=36 velocity=0 time=0.16260166666666664@note_on channel=0 note=38 velocity=127 time=0@note_off channel=9 note=73 velocity=0 time=0@note_off channel=9 note=42 velocity=0 time=0@note_on channel=9 note=63 velocity=81 time=0@note_on channel=9 note=40 velocity=28 time=0@note_on channel=9 note=70 velocity=51 time=0@note_on channel=9 note=50 velocity=42 time=0@note_on channel=9 note=77 velocity=81 time=0@note_on channel=9 note=73 velocity=60 time=0@note_off channel=9 note=73 velocity=0 time=0.16260166666666664@note_off channel=9 note=77 velocity=0 time=0@note_off channel=9 note=70 velocity=0 time=0@note_off channel=0 note=38 velocity=0 time=0.16260166666666664@note_on channel=0 note=36 velocity=127 time=0@note_on channel=9 note=42 velocity=127 time=0@note_on channel=9 note=69 velocity=42 time=0@note_off channel=0 note=36 velocity=0 time=0.16260166666666664@note_on channel=0 note=36 velocity=127 time=0@note_off channel=9 note=69 velocity=0 time=0@note_off channel=9 note=50 velocity=0 time=0@note_off channel=9 note=42 velocity=0 time=0@note_off channel=9 note=40 velocity=0 time=0@note_off channel=9 note=63 velocity=0 time=0@note_on channel=9 note=36 velocity=127 time=0@note_on channel=9 note=42 velocity=74 time=0@note_on channel=9 note=62 velocity=88 time=0@note_on channel=9 note=64 velocity=41 time=0@note_on channel=9 note=87 velocity=51 time=0@control_change channel=2 control=7 value=100 time=0.08130083333333332@note_off channel=9 note=87 velocity=0 time=0.08130083333333332@note_off channel=9 note=64 velocity=0 time=0@note_off channel=9 note=62 velocity=0 time=0@note_off channel=9 note=42 velocity=0 time=0@note_off channel=9 note=36 velocity=0 time=0@note_off channel=0 note=36 velocity=0 time=0.16260166666666664@note_on channel=0 note=36 velocity=127 time=0.16260166666666664@note_on channel=9 note=36 velocity=127 time=0@note_on channel=9 note=42 velocity=74 time=0@note_on channel=9 note=62 velocity=88 time=0@note_on channel=9 note=64 velocity=41 time=0@note_on channel=9 note=87 velocity=51 time=0@note_off channel=9 note=87 velocity=0 time=0.16260166666666664@note_off channel=9 note=64 velocity=0 time=0@note_off channel=9 note=62 velocity=0 time=0@note_off channel=9 note=42 velocity=0 time=0@note_off channel=9 note=36 velocity=0 time=0@note_off channel=0 note=36 velocity=0 time=0.16260166666666664@note_on channel=9 note=76 velocity=47 time=0@note_off channel=9 note=76 velocity=0 time=0.08130083333333332@note_on channel=9 note=76 velocity=31 time=0@note_on channel=0 note=36 velocity=127 time=0.08130083333333332@note_on channel=1 note=55 velocity=127 time=0@note_on channel=1 note=60 velocity=113 time=0@note_off channel=9 note=76 velocity=0 time=0@note_on channel=9 note=36 velocity=127 time=0@note_on channel=9 note=62 velocity=67 time=0@note_on channel=9 note=57 velocity=69 time=0@note_on channel=9 note=49 velocity=69 time=0@note_on channel=9 note=52 velocity=69 time=0@note_off channel=9 note=62 velocity=0 time=0.16260166666666664@note_off channel=9 note=36 velocity=0 time=0@note_off channel=0 note=36 velocity=0 time=0.16260166666666664@note_on channel=0 note=39 velocity=127 time=0@note_off channel=0 note=39 velocity=0 time=0.16260166666666664@pitchwheel channel=0 pitch=-4096 time=0@note_on channel=0 note=41 velocity=113 time=0@note_on channel=9 note=37 velocity=95 time=0@note_on channel=9 note=38 velocity=95 time=0@note_on channel=9 note=59 velocity=79 time=0@pitchwheel channel=0 pitch=-2048 time=0.04065041666666666@pitchwheel channel=0 pitch=-820 time=0.04065041666666666@pitchwheel channel=0 pitch=-246 time=0.04065041666666666@pitchwheel channel=0 pitch=0 time=0.04065041666666666@note_off channel=9 note=38 velocity=0 time=0@note_off channel=9 note=37 velocity=0 time=0@note_off channel=0 note=41 velocity=0 time=0.16260166666666664@note_on channel=0 note=42 velocity=127 time=0@note_on channel=9 note=73 velocity=70 time=0@note_off channel=0 note=42 velocity=0 time=0.16260166666666664@note_on channel=0 note=41 velocity=127 time=0@note_off channel=9 note=59 velocity=0 time=0@note_off channel=9 note=73 velocity=0 time=0@note_on channel=9 note=36 velocity=127 time=0@note_on channel=9 note=59 velocity=79 time=0@note_off channel=9 note=36 velocity=0 time=0.16260166666666664@note_off channel=0 note=41 velocity=0 time=0.16260166666666664@note_on channel=0 note=39 velocity=127 time=0@note_on channel=2 note=60 velocity=113 time=0@note_off channel=0 note=39 velocity=0 time=0.16260166666666664@note_on channel=0 note=36 velocity=127 time=0@note_off channel=2 note=60 velocity=0 time=0@pitchwheel channel=2 pitch=-4096 time=0@note_on channel=2 note=63 velocity=113 time=0@note_off channel=9 note=59 velocity=0 time=0@note_on channel=9 note=38 velocity=95 time=0@note_on channel=9 note=37 velocity=95 time=0@note_on channel=9 note=62 velocity=70 time=0@note_on channel=9 note=59 velocity=79 time=0@pitchwheel channel=2 pitch=-2048 time=0.04065041666666666@pitchwheel channel=2 pitch=-820 time=0.04065041666666666@pitchwheel channel=2 pitch=-246 time=0.04065041666666666@pitchwheel channel=2 pitch=0 time=0.04065041666666666@note_off channel=9 note=62 velocity=0 time=0@note_off channel=9 note=37 velocity=0 time=0@note_off channel=9 note=38 velocity=0 time=0@note_off channel=0 note=36 velocity=0 time=0.16260166666666664@note_on channel=0 note=39 velocity=127 time=0@note_off channel=2 note=63 velocity=0 time=0@note_on channel=2 note=60 velocity=113 time=0@note_off channel=0 note=39 velocity=0 time=0.16260166666666664@note_on channel=0 note=36 velocity=127 time=0@note_off channel=2 note=60 velocity=0 time=0@pitchwheel channel=2 pitch=-4096 time=0@note_on channel=2 note=63 velocity=113 time=0@note_on channel=3 note=60 velocity=113 time=0@note_off channel=9 note=59 velocity=0 time=0@note_off channel=9 note=52 velocity=0 time=0@note_off channel=9 note=49 velocity=0 time=0@note_off channel=9 note=57 velocity=0 time=0@note_on channel=9 note=36 velocity=127 time=0@note_on channel=9 note=62 velocity=67 time=0@note_on channel=9 note=59 velocity=79 time=0@pitchwheel channel=2 pitch=-2048 time=0.04065041666666666@pitchwheel channel=2 pitch=-820 time=0.04065041666666666@pitchwheel channel=2 pitch=-246 time=0.04065041666666666@pitchwheel channel=2 pitch=0 time=0.04065041666666666@note_off channel=9 note=62 velocity=0 time=0@note_off channel=9 note=36 velocity=0 time=0@note_off channel=0 note=36 velocity=0 time=0.16260166666666664@note_on channel=0 note=39 velocity=127 time=0@note_off channel=2 note=63 velocity=0 time=0@note_on channel=2 note=60 velocity=113 time=0@note_off channel=0 note=39 velocity=0 time=0.16260166666666664@pitchwheel channel=0 pitch=-4096 time=0@note_on channel=0 note=41 velocity=113 time=0@note_off channel=2 note=60 velocity=0 time=0@note_off channel=3 note=60 velocity=0 time=0@note_on channel=3 note=62 velocity=113 time=0@note_off channel=9 note=59 velocity=0 time=0@note_on channel=9 note=37 velocity=95 time=0@note_on channel=9 note=38 velocity=95 time=0@note_on channel=9 note=59 velocity=79 time=0@pitchwheel channel=0 pitch=-2048 time=0.04065041666666666@pitchwheel channel=0 pitch=-820 time=0.04065041666666666@pitchwheel channel=0 pitch=-246 time=0.04065041666666666@pitchwheel channel=0 pitch=0 time=0.04065041666666666@note_off channel=9 note=38 velocity=0 time=0@note_off channel=9 note=37 velocity=0 time=0@note_off channel=0 note=41 velocity=0 time=0.16260166666666664@note_on channel=0 note=42 velocity=127 time=0@note_on channel=2 note=60 velocity=113 time=0@note_on channel=9 note=73 velocity=70 time=0@note_off channel=0 note=42 velocity=0 time=0.16260166666666664@note_on channel=0 note=41 velocity=127 time=0@note_off channel=2 note=60 velocity=0 time=0@note_off channel=3 note=62 velocity=0 time=0@note_on channel=3 note=63 velocity=113 time=0@note_off channel=9 note=59 velocity=0 time=0@note_off channel=9 note=73 velocity=0 time=0@note_on channel=9 note=36 velocity=127 time=0@note_on channel=9 note=59 velocity=79 time=0@note_off channel=9 note=36 velocity=0 time=0.16260166666666664@note_off channel=0 note=41 velocity=0 time=0.16260166666666664@note_on channel=0 note=39 velocity=127 time=0@note_on channel=2 note=60 velocity=113 time=0@note_off channel=0 note=39 velocity=0 time=0.16260166666666664@note_on channel=0 note=36 velocity=127 time=0@note_off channel=2 note=60 velocity=0 time=0@note_off channel=3 note=63 velocity=0 time=0@note_on channel=3 note=65 velocity=113 time=0@note_off channel=9 note=59 velocity=0 time=0@note_on channel=9 note=38 velocity=95 time=0@note_on channel=9 note=37 velocity=95 time=0@note_on channel=9 note=62 velocity=70 time=0@note_on channel=9 note=59 velocity=79 time=0@note_off channel=9 note=62 velocity=0 time=0.16260166666666664@note_off channel=9 note=37 velocity=0 time=0@note_off channel=9 note=38 velocity=0 time=0@note_off channel=0 note=36 velocity=0 time=0.16260166666666664@note_on channel=0 note=38 velocity=127 time=0@note_on channel=2 note=60 velocity=113 time=0@note_off channel=0 note=38 velocity=0 time=0.16260166666666664@pitchwheel channel=0 pitch=-4096 time=0@note_on channel=0 note=39 velocity=113 time=0@note_off channel=1 note=60 velocity=0 time=0@note_off channel=1 note=55 velocity=0 time=0@note_off channel=2 note=60 velocity=0 time=0@note_off channel=3 note=65 velocity=0 time=0@pitchwheel channel=3 pitch=-4096 time=0@note_on channel=3 note=67 velocity=113 time=0@note_off channel=9 note=59 velocity=0 time=0@note_on channel=9 note=36 velocity=127 time=0@note_on channel=9 note=62 velocity=67 time=0@note_on channel=9 note=59 velocity=79 time=0@pitchwheel channel=0 pitch=-2048 time=0.04065041666666666@pitchwheel channel=3 pitch=-2048 time=0@pitchwheel channel=0 pitch=-820 time=0.04065041666666666@pitchwheel channel=3 pitch=-820 time=0@pitchwheel channel=0 pitch=-246 time=0.04065041666666666@pitchwheel channel=3 pitch=-246 time=0@pitchwheel channel=0 pitch=0 time=0.04065041666666666@pitchwheel channel=3 pitch=0 time=0@note_off channel=9 note=62 velocity=0 time=0@note_off channel=9 note=36 velocity=0 time=0@note_off channel=0 note=39 velocity=0 time=0.16260166666666664@note_on channel=0 note=36 velocity=127 time=0@note_on channel=2 note=60 velocity=113 time=0@note_off channel=3 note=67 velocity=0 time=0@note_on channel=3 note=66 velocity=113 time=0@note_off channel=0 note=36 velocity=0 time=0.16260166666666664@note_on channel=0 note=38 velocity=127 time=0@note_off channel=2 note=60 velocity=0 time=0@note_off channel=3 note=66 velocity=0 time=0@note_off channel=9 note=59 velocity=0 time=0@note_on channel=9 note=37 velocity=95 time=0@note_on channel=9 note=38 velocity=95 time=0@note_on channel=9 note=59 velocity=79 time=0@note_off channel=9 note=38 velocity=0 time=0.16260166666666664@note_off channel=9 note=37 velocity=0 time=0@note_off channel=0 note=38 velocity=0 time=0.16260166666666664@note_on channel=0 note=36 velocity=127 time=0@note_on channel=2 note=60 velocity=113 time=0@note_on channel=3 note=65 velocity=113 time=0@note_on channel=9 note=73 velocity=70 time=0@note_off channel=0 note=36 velocity=0 time=0.16260166666666664@note_on channel=0 note=39 velocity=127 time=0@note_off channel=2 note=60 velocity=0 time=0@note_off channel=3 note=65 velocity=0 time=0@note_off channel=9 note=59 velocity=0 time=0@note_off channel=9 note=73 velocity=0 time=0@note_on channel=9 note=36 velocity=127 time=0@note_on channel=9 note=59 velocity=79 time=0@note_off channel=9 note=36 velocity=0 time=0.16260166666666664@note_off channel=0 note=39 velocity=0 time=0.16260166666666664@note_on channel=0 note=36 velocity=127 time=0@note_on channel=2 note=60 velocity=113 time=0@note_on channel=3 note=63 velocity=113 time=0@note_off channel=0 note=36 velocity=0 time=0.16260166666666664@note_on channel=0 note=38 velocity=127 time=0@note_off channel=2 note=60 velocity=0 time=0@note_off channel=3 note=63 velocity=0 time=0@note_off channel=9 note=59 velocity=0 time=0@note_on channel=9 note=38 velocity=95 time=0@note_on channel=9 note=37 velocity=95 time=0@note_on channel=9 note=62 velocity=70 time=0@note_on channel=9 note=59 velocity=79 time=0@note_off channel=9 note=62 velocity=0 time=0.16260166666666664@note_off channel=9 note=37 velocity=0 time=0@note_off channel=9 note=38 velocity=0 time=0@note_off channel=0 note=38 velocity=0 time=0.16260166666666664@note_on channel=0 note=36 velocity=127 time=0@note_on channel=2 note=60 velocity=113 time=0@note_off channel=0 note=36 velocity=0 time=0.16260166666666664@note_on channel=0 note=39 velocity=127 time=0@note_off channel=2 note=60 velocity=0 time=0@pitchwheel channel=2 pitch=-4096 time=0@note_on channel=2 note=63 velocity=113 time=0@note_off channel=9 note=59 velocity=0 time=0@note_on channel=9 note=36 velocity=127 time=0@note_on channel=9 note=62 velocity=67 time=0@note_on channel=9 note=59 velocity=79 time=0@pitchwheel channel=2 pitch=-2048 time=0.04065041666666666@pitchwheel channel=2 pitch=-820 time=0.04065041666666666@pitchwheel channel=2 pitch=-246 time=0.04065041666666666@pitchwheel channel=2 pitch=0 time=0.04065041666666666@note_off channel=9 note=62 velocity=0 time=0@note_off channel=9 note=36 velocity=0 time=0@note_off channel=0 note=39 velocity=0 time=0.16260166666666664@note_on channel=0 note=36 velocity=127 time=0@note_off channel=2 note=63 velocity=0 time=0@note_on channel=2 note=60 velocity=113 time=0@note_off channel=0 note=36 velocity=0 time=0.16260166666666664@note_on channel=0 note=38 velocity=127 time=0@note_off channel=2 note=60 velocity=0 time=0@pitchwheel channel=2 pitch=-4096 time=0@note_on channel=2 note=63 velocity=113 time=0@note_off channel=9 note=59 velocity=0 time=0@note_on channel=9 note=37 velocity=95 time=0@note_on channel=9 note=38 velocity=95 time=0@note_on channel=9 note=59 velocity=79 time=0@pitchwheel channel=2 pitch=-2048 time=0.04065041666666666@pitchwheel channel=2 pitch=-820 time=0.04065041666666666@pitchwheel channel=2 pitch=-246 time=0.04065041666666666@pitchwheel channel=2 pitch=0 time=0.04065041666666666@note_off channel=9 note=38 velocity=0 time=0@note_off channel=9 note=37 velocity=0 time=0@note_off channel=0 note=38 velocity=0 time=0.16260166666666664@note_on channel=0 note=36 velocity=127 time=0@note_off channel=2 note=63 velocity=0 time=0@note_on channel=2 note=60 velocity=113 time=0@note_on channel=9 note=73 velocity=70 time=0@note_off channel=0 note=36 velocity=0 time=0.16260166666666664@note_on channel=0 note=36 velocity=127 time=0@note_off channel=2 note=60 velocity=0 time=0@note_off channel=9 note=59 velocity=0 time=0@note_off channel=9 note=73 velocity=0 time=0@note_on channel=9 note=36 velocity=127 time=0@note_on channel=9 note=59 velocity=79 time=0@note_off channel=0 note=36 velocity=0 time=0.16260166666666664@note_off channel=9 note=36 velocity=0 time=0@note_on channel=0 note=38 velocity=127 time=0.16260166666666664@note_on channel=2 note=67 velocity=113 time=0@note_off channel=0 note=38 velocity=0 time=0.16260166666666664@note_on channel=0 note=39 velocity=127 time=0@note_off channel=2 note=67 velocity=0 time=0@note_off channel=9 note=59 velocity=0 time=0@note_on channel=9 note=38 velocity=95 time=0@note_on channel=9 note=37 velocity=95 time=0@note_on channel=9 note=62 velocity=70 time=0@note_on channel=9 note=59 velocity=79 time=0@note_off channel=0 note=39 velocity=0 time=0.16260166666666664@note_on channel=0 note=41 velocity=127 time=0@note_off channel=9 note=62 velocity=0 time=0@note_off channel=9 note=37 velocity=0 time=0@note_off channel=9 note=38 velocity=0 time=0@note_on channel=9 note=60 velocity=48 time=0@note_off channel=0 note=41 velocity=0 time=0.16260166666666664@note_on channel=0 note=42 velocity=127 time=0@note_on channel=2 note=66 velocity=113 time=0@note_off channel=9 note=60 velocity=0 time=0@note_on channel=9 note=60 velocity=48 time=0@note_off channel=0 note=42 velocity=0 time=0.16260166666666664@note_on channel=0 note=46 velocity=127 time=0@note_off channel=2 note=66 velocity=0 time=0@pitchwheel channel=2 pitch=-4096 time=0@note_on channel=2 note=65 velocity=113 time=0@note_off channel=9 note=59 velocity=0 time=0@note_off channel=9 note=60 velocity=0 time=0@note_on channel=9 note=36 velocity=127 time=0@note_on channel=9 note=62 velocity=67 time=0@note_on channel=9 note=59 velocity=79 time=0@pitchwheel channel=2 pitch=-2048 time=0.04065041666666666@pitchwheel channel=2 pitch=-820 time=0.04065041666666666@pitchwheel channel=2 pitch=-246 time=0.04065041666666666@pitchwheel channel=2 pitch=0 time=0.04065041666666666@note_off channel=9 note=62 velocity=0 time=0@note_off channel=9 note=36 velocity=0 time=0@note_off channel=0 note=46 velocity=0 time=0.16260166666666664@note_on channel=0 note=36 velocity=127 time=0@note_off channel=2 note=65 velocity=0 time=0@note_on channel=2 note=63 velocity=113 time=0@note_off channel=0 note=36 velocity=0 time=0.16260166666666664@note_on channel=0 note=42 velocity=127 time=0@note_off channel=2 note=63 velocity=0 time=0@note_on channel=2 note=60 velocity=113 time=0@note_off channel=9 note=59 velocity=0 time=0@note_on channel=9 note=37 velocity=95 time=0@note_on channel=9 note=38 velocity=95 time=0@note_on channel=9 note=59 velocity=79 time=0@note_off channel=2 note=60 velocity=0 time=0.16260166666666664@note_off channel=9 note=38 velocity=0 time=0@note_off channel=9 note=37 velocity=0 time=0@note_off channel=0 note=42 velocity=0 time=0.16260166666666664@note_on channel=0 note=36 velocity=127 time=0@note_on channel=3 note=63 velocity=113 time=0@note_on channel=9 note=73 velocity=70 time=0@note_off channel=0 note=36 velocity=0 time=0.16260166666666664@note_on channel=0 note=41 velocity=127 time=0@note_off channel=3 note=63 velocity=0 time=0@pitchwheel channel=3 pitch=-4096 time=0@note_on channel=3 note=65 velocity=113 time=0@note_off channel=9 note=59 velocity=0 time=0@note_off channel=9 note=73 velocity=0 time=0@note_on channel=9 note=36 velocity=127 time=0@note_on channel=9 note=59 velocity=79 time=0@pitchwheel channel=3 pitch=-2048 time=0.04065041666666666@pitchwheel channel=3 pitch=-820 time=0.04065041666666666@pitchwheel channel=3 pitch=-246 time=0.04065041666666666@pitchwheel channel=3 pitch=0 time=0.04065041666666666@note_off channel=9 note=36 velocity=0 time=0@note_off channel=0 note=41 velocity=0 time=0.16260166666666664@note_on channel=0 note=36 velocity=127 time=0@note_on channel=2 note=60 velocity=113 time=0@note_off channel=3 note=65 velocity=0 time=0@note_on channel=3 note=63 velocity=113 time=0@note_off channel=0 note=36 velocity=0 time=0.16260166666666664@note_on channel=0 note=42 velocity=127 time=0@note_off channel=2 note=60 velocity=0 time=0@pitchwheel channel=2 pitch=-4096 time=0@note_on channel=2 note=63 velocity=113 time=0@note_off channel=3 note=63 velocity=0 time=0@note_off channel=9 note=59 velocity=0 time=0@note_on channel=9 note=38 velocity=95 time=0@note_on channel=9 note=37 velocity=95 time=0@note_on channel=9 note=62 velocity=70 time=0@note_on channel=9 note=59 velocity=79 time=0@pitchwheel channel=2 pitch=-2048 time=0.04065041666666666@pitchwheel channel=2 pitch=-820 time=0.04065041666666666@pitchwheel channel=2 pitch=-246 time=0.04065041666666666@pitchwheel channel=2 pitch=0 time=0.04065041666666666@note_off channel=9 note=62 velocity=0 time=0@note_off channel=9 note=37 velocity=0 time=0@note_off channel=9 note=38 velocity=0 time=0@note_off channel=0 note=42 velocity=0 time=0.16260166666666664@note_on channel=0 note=36 velocity=127 time=0@note_off channel=2 note=63 velocity=0 time=0@note_on channel=2 note=65 velocity=113 time=0@note_on channel=9 note=44 velocity=79 time=0@note_off channel=0 note=36 velocity=0 time=0.16260166666666664@note_on channel=0 note=42 velocity=127 time=0@note_off channel=2 note=65 velocity=0 time=0@note_on channel=2 note=63 velocity=113 time=0@note_off channel=9 note=44 velocity=0 time=0@note_off channel=9 note=59 velocity=0 time=0@note_on channel=9 note=36 velocity=127 time=0@note_on channel=9 note=62 velocity=67 time=0@note_on channel=9 note=59 velocity=79 time=0@note_off channel=9 note=62 velocity=0 time=0.16260166666666664@note_off channel=9 note=36 velocity=0 time=0@note_off channel=0 note=42 velocity=0 time=0.16260166666666664@note_on channel=0 note=36 velocity=127 time=0@note_off channel=2 note=63 velocity=0 time=0@note_on channel=2 note=60 velocity=113 time=0@note_on channel=3 note=63 velocity=113 time=0@note_off channel=0 note=36 velocity=0 time=0.16260166666666664@note_on channel=0 note=41 velocity=127 time=0@note_off channel=2 note=60 velocity=0 time=0@note_off channel=3 note=63 velocity=0 time=0@pitchwheel channel=3 pitch=-4096 time=0@note_on channel=3 note=65 velocity=113 time=0@note_off channel=9 note=59 velocity=0 time=0@note_on channel=9 note=37 velocity=95 time=0@note_on channel=9 note=38 velocity=95 time=0@note_on channel=9 note=59 velocity=79 time=0@pitchwheel channel=3 pitch=-2048 time=0.04065041666666666@pitchwheel channel=3 pitch=-820 time=0.04065041666666666@pitchwheel channel=3 pitch=-246 time=0.04065041666666666@pitchwheel channel=3 pitch=0 time=0.04065041666666666@note_off channel=9 note=38 velocity=0 time=0@note_off channel=9 note=37 velocity=0 time=0@note_off channel=0 note=41 velocity=0 time=0.16260166666666664@note_on channel=0 note=36 velocity=127 time=0@note_on channel=2 note=60 velocity=113 time=0@note_off channel=3 note=65 velocity=0 time=0@note_on channel=3 note=63 velocity=113 time=0@note_on channel=9 note=73 velocity=70 time=0@note_off channel=0 note=36 velocity=0 time=0.16260166666666664@note_on channel=0 note=39 velocity=127 time=0@note_off channel=2 note=60 velocity=0 time=0@note_off channel=3 note=63 velocity=0 time=0@note_on channel=3 note=65 velocity=113 time=0@note_off channel=9 note=59 velocity=0 time=0@note_off channel=9 note=73 velocity=0 time=0@note_on channel=9 note=36 velocity=127 time=0@note_on channel=9 note=59 velocity=79 time=0@note_off channel=9 note=36 velocity=0 time=0.16260166666666664@note_off channel=0 note=39 velocity=0 time=0.16260166666666664@note_on channel=0 note=36 velocity=127 time=0@note_on channel=2 note=60 velocity=113 time=0@note_off channel=3 note=65 velocity=0 time=0@note_on channel=3 note=63 velocity=113 time=0@note_off channel=0 note=36 velocity=0 time=0.16260166666666664@note_on channel=0 note=41 velocity=127 time=0@note_off channel=2 note=60 velocity=0 time=0@note_off channel=3 note=63 velocity=0 time=0@note_off channel=9 note=59 velocity=0 time=0@note_on channel=9 note=38 velocity=95 time=0@note_on channel=9 note=37 velocity=95 time=0@note_on channel=9 note=62 velocity=70 time=0@note_on channel=9 note=59 velocity=79 time=0@note_off channel=9 note=62 velocity=0 time=0.16260166666666664@note_off channel=9 note=37 velocity=0 time=0@note_off channel=9 note=38 velocity=0 time=0@note_off channel=0 note=41 velocity=0 time=0.16260166666666664@note_on channel=0 note=36 velocity=127 time=0@note_on channel=2 note=60 velocity=113 time=0@note_on channel=3 note=63 velocity=113 time=0@note_off channel=0 note=36 velocity=0 time=0.16260166666666664@note_on channel=0 note=36 velocity=127 time=0@note_off channel=2 note=60 velocity=0 time=0@note_off channel=3 note=63 velocity=0 time=0@note_on channel=3 note=65 velocity=113 time=0@note_off channel=9 note=59 velocity=0 time=0@note_on channel=9 note=36 velocity=127 time=0@note_on channel=9 note=62 velocity=67 time=0@note_on channel=9 note=59 velocity=79 time=0@note_off channel=3 note=65 velocity=0 time=0.16260166666666664@note_on channel=3 note=63 velocity=113 time=0@note_off channel=9 note=62 velocity=0 time=0@note_off channel=9 note=36 velocity=0 time=0@note_off channel=0 note=36 velocity=0 time=0.16260166666666664@note_on channel=0 note=39 velocity=127 time=0@note_on channel=2 note=60 velocity=113 time=0@note_off channel=3 note=63 velocity=0 time=0@note_on channel=3 note=60 velocity=113 time=0@note_off channel=0 note=39 velocity=0 time=0.16260166666666664@note_on channel=0 note=41 velocity=127 time=0@note_off channel=2 note=60 velocity=0 time=0@note_off channel=3 note=60 velocity=0 time=0@note_on channel=3 note=72 velocity=113 time=0@note_off channel=9 note=59 velocity=0 time=0@note_on channel=9 note=37 velocity=95 time=0@note_on channel=9 note=38 velocity=95 time=0@note_on channel=9 note=59 velocity=79 time=0@note_off channel=3 note=72 velocity=0 time=0.16260166666666664@note_off channel=9 note=38 velocity=0 time=0@note_off channel=9 note=37 velocity=0 time=0@note_off channel=0 note=41 velocity=0 time=0.16260166666666664@note_on channel=0 note=42 velocity=127 time=0@note_on channel=2 note=60 velocity=113 time=0@note_on channel=3 note=72 velocity=113 time=0@note_on channel=9 note=73 velocity=70 time=0@note_off channel=0 note=42 velocity=0 time=0.16260166666666664@note_on channel=0 note=41 velocity=127 time=0@note_off channel=2 note=60 velocity=0 time=0@note_off channel=3 note=72 velocity=0 time=0@note_off channel=9 note=59 velocity=0 time=0@note_off channel=9 note=73 velocity=0 time=0@note_on channel=9 note=36 velocity=127 time=0@note_on channel=9 note=59 velocity=79 time=0@note_on channel=3 note=67 velocity=113 time=0.16260166666666664@note_off channel=9 note=36 velocity=0 time=0@note_off channel=0 note=41 velocity=0 time=0.16260166666666664@note_on channel=0 note=39 velocity=127 time=0@note_on channel=2 note=60 velocity=113 time=0@note_off channel=3 note=67 velocity=0 time=0@note_off channel=0 note=39 velocity=0 time=0.16260166666666664@note_on channel=0 note=36 velocity=127 time=0@note_off channel=2 note=60 velocity=0 time=0@note_on channel=3 note=66 velocity=113 time=0@note_off channel=9 note=59 velocity=0 time=0@note_on channel=9 note=38 velocity=95 time=0@note_on channel=9 note=37 velocity=95 time=0@note_on channel=9 note=62 velocity=70 time=0@note_on channel=9 note=59 velocity=79 time=0@note_off channel=3 note=66 velocity=0 time=0.16260166666666664@note_off channel=9 note=62 velocity=0 time=0@note_off channel=9 note=37 velocity=0 time=0@note_off channel=9 note=38 velocity=0 time=0@note_off channel=0 note=36 velocity=0 time=0.16260166666666664@note_on channel=0 note=39 velocity=127 time=0@note_on channel=2 note=60 velocity=113 time=0@note_on channel=3 note=63 velocity=113 time=0@note_on channel=9 note=44 velocity=81 time=0@note_off channel=0 note=39 velocity=0 time=0.16260166666666664@note_on channel=0 note=36 velocity=127 time=0@note_off channel=2 note=60 velocity=0 time=0@pitchwheel channel=2 pitch=-4096 time=0@note_on channel=2 note=63 velocity=113 time=0@note_off channel=3 note=63 velocity=0 time=0@note_on channel=3 note=65 velocity=113 time=0@note_off channel=9 note=44 velocity=0 time=0@note_off channel=9 note=59 velocity=0 time=0@note_on channel=9 note=36 velocity=127 time=0@note_on channel=9 note=62 velocity=67 time=0@note_on channel=9 note=59 velocity=79 time=0@pitchwheel channel=2 pitch=-2048 time=0.04065041666666666@pitchwheel channel=2 pitch=-820 time=0.04065041666666666@pitchwheel channel=2 pitch=-246 time=0.04065041666666666@pitchwheel channel=2 pitch=0 time=0.04065041666666666@note_off channel=9 note=62 velocity=0 time=0@note_off channel=9 note=36 velocity=0 time=0@note_off channel=0 note=36 velocity=0 time=0.16260166666666664@note_on channel=0 note=39 velocity=127 time=0@note_off channel=2 note=63 velocity=0 time=0@note_on channel=2 note=60 velocity=113 time=0@note_off channel=3 note=65 velocity=0 time=0@note_on channel=3 note=63 velocity=113 time=0@note_off channel=0 note=39 velocity=0 time=0.16260166666666664@note_on channel=0 note=41 velocity=127 time=0@note_off channel=2 note=60 velocity=0 time=0@note_on channel=2 note=63 velocity=113 time=0@note_off channel=3 note=63 velocity=0 time=0@note_on channel=3 note=65 velocity=113 time=0@note_off channel=9 note=59 velocity=0 time=0@note_on channel=9 note=37 velocity=95 time=0@note_on channel=9 note=38 velocity=95 time=0@note_on channel=9 note=59 velocity=79 time=0@note_off channel=9 note=38 velocity=0 time=0.16260166666666664@note_off channel=9 note=37 velocity=0 time=0@note_off channel=0 note=41 velocity=0 time=0.16260166666666664@note_on channel=0 note=43 velocity=127 time=0@note_off channel=2 note=63 velocity=0 time=0@note_on channel=2 note=65 velocity=113 time=0@note_off channel=3 note=65 velocity=0 time=0@note_on channel=3 note=66 velocity=113 time=0@note_on channel=9 note=73 velocity=70 time=0@note_off channel=0 note=43 velocity=0 time=0.16260166666666664@note_on channel=0 note=48 velocity=127 time=0@note_off channel=2 note=65 velocity=0 time=0@pitchwheel channel=2 pitch=-4096 time=0@note_on channel=2 note=66 velocity=113 time=0@note_off channel=3 note=66 velocity=0 time=0@pitchwheel channel=3 pitch=-4096 time=0@note_on channel=3 note=67 velocity=113 time=0@note_off channel=9 note=59 velocity=0 time=0@note_off channel=9 note=73 velocity=0 time=0@note_on channel=9 note=36 velocity=127 time=0@note_on channel=9 note=59 velocity=79 time=0@pitchwheel channel=2 pitch=-2048 time=0.04065041666666666@pitchwheel channel=3 pitch=-2048 time=0@pitchwheel channel=2 pitch=-820 time=0.04065041666666666@pitchwheel channel=3 pitch=-820 time=0@pitchwheel channel=2 pitch=-246 time=0.04065041666666666@pitchwheel channel=3 pitch=-246 time=0@pitchwheel channel=2 pitch=0 time=0.04065041666666666@pitchwheel channel=3 pitch=0 time=0@note_off channel=9 note=36 velocity=0 time=0@note_off channel=0 note=48 velocity=0 time=0.16260166666666664@note_on channel=0 note=43 velocity=113 time=0@note_off channel=2 note=66 velocity=0 time=0@note_on channel=2 note=65 velocity=113 time=0@note_off channel=3 note=67 velocity=0 time=0@note_on channel=3 note=66 velocity=113 time=0@note_off channel=0 note=43 velocity=0 time=0.16260166666666664@note_on channel=0 note=41 velocity=127 time=0@note_off channel=2 note=65 velocity=0 time=0@note_on channel=2 note=63 velocity=113 time=0@note_off channel=3 note=66 velocity=0 time=0@note_on channel=3 note=63 velocity=113 time=0@note_off channel=9 note=59 velocity=0 time=0@note_on channel=9 note=38 velocity=95 time=0@note_on channel=9 note=37 velocity=95 time=0@note_on channel=9 note=62 velocity=70 time=0@note_on channel=9 note=59 velocity=79 time=0@note_on channel=9 note=60 velocity=67 time=0@note_off channel=9 note=60 velocity=0 time=0.16260166666666664@note_off channel=9 note=62 velocity=0 time=0@note_off channel=9 note=37 velocity=0 time=0@note_off channel=9 note=38 velocity=0 time=0@note_on channel=9 note=61 velocity=67 time=0@note_off channel=0 note=41 velocity=0 time=0.16260166666666664@note_on channel=0 note=42 velocity=113 time=0@note_off channel=2 note=63 velocity=0 time=0@note_on channel=2 note=60 velocity=113 time=0@note_off channel=3 note=63 velocity=0 time=0@note_on channel=3 note=60 velocity=113 time=0@note_off channel=9 note=61 velocity=0 time=0@note_on channel=9 note=61 velocity=67 time=0@note_off channel=0 note=42 velocity=0 time=0.16260166666666664@note_on channel=0 note=44 velocity=113 time=0@note_off channel=2 note=60 velocity=0 time=0@pitchwheel channel=2 pitch=-4096 time=0@note_on channel=2 note=72 velocity=113 time=0@note_off channel=3 note=60 velocity=0 time=0@note_off channel=9 note=61 velocity=0 time=0@note_off channel=9 note=59 velocity=0 time=0@note_on channel=9 note=36 velocity=127 time=0@note_on channel=9 note=62 velocity=67 time=0@note_on channel=9 note=59 velocity=79 time=0@pitchwheel channel=2 pitch=-2048 time=0.04065041666666666@pitchwheel channel=2 pitch=-820 time=0.04065041666666666@pitchwheel channel=2 pitch=-246 time=0.04065041666666666@pitchwheel channel=2 pitch=0 time=0.04065041666666666@note_off channel=9 note=62 velocity=0 time=0@note_off channel=9 note=36 velocity=0 time=0@note_off channel=0 note=44 velocity=0 time=0.16260166666666664@note_on channel=0 note=36 velocity=113 time=0@note_off channel=2 note=72 velocity=0 time=0@note_on channel=2 note=67 velocity=113 time=0@note_off channel=0 note=36 velocity=0 time=0.16260166666666664@note_on channel=0 note=39 velocity=113 time=0@note_off channel=2 note=67 velocity=0 time=0@note_on channel=3 note=55 velocity=113 time=0@note_off channel=9 note=59 velocity=0 time=0@note_on channel=9 note=37 velocity=95 time=0@note_on channel=9 note=38 velocity=95 time=0@note_on channel=9 note=59 velocity=79 time=0@note_off channel=3 note=55 velocity=0 time=0.16260166666666664@note_off channel=9 note=38 velocity=0 time=0@note_off channel=9 note=37 velocity=0 time=0@note_off channel=0 note=39 velocity=0 time=0.16260166666666664@note_on channel=0 note=36 velocity=113 time=0@note_on channel=2 note=66 velocity=113 time=0@note_on channel=9 note=73 velocity=70 time=0@note_off channel=0 note=36 velocity=0 time=0.16260166666666664@note_on channel=0 note=38 velocity=113 time=0@note_off channel=2 note=66 velocity=0 time=0@note_on channel=3 note=58 velocity=113 time=0@note_off channel=9 note=59 velocity=0 time=0@note_off channel=9 note=73 velocity=0 time=0@note_on channel=9 note=36 velocity=127 time=0@note_on channel=9 note=59 velocity=79 time=0@note_off channel=3 note=58 velocity=0 time=0.16260166666666664@note_off channel=9 note=36 velocity=0 time=0@note_off channel=0 note=38 velocity=0 time=0.16260166666666664@note_on channel=0 note=36 velocity=113 time=0@note_on channel=2 note=67 velocity=113 time=0@note_on channel=3 note=60 velocity=113 time=0@note_off channel=0 note=36 velocity=0 time=0.16260166666666664@note_on channel=0 note=39 velocity=113 time=0@note_off channel=2 note=67 velocity=0 time=0@note_on channel=2 note=65 velocity=113 time=0@note_off channel=3 note=60 velocity=0 time=0@note_on channel=3 note=58 velocity=113 time=0@note_off channel=9 note=59 velocity=0 time=0@note_on channel=9 note=38 velocity=95 time=0@note_on channel=9 note=37 velocity=95 time=0@note_on channel=9 note=62 velocity=70 time=0@note_on channel=9 note=59 velocity=79 time=0@note_off channel=9 note=62 velocity=0 time=0.16260166666666664@note_off channel=9 note=37 velocity=0 time=0@note_off channel=9 note=38 velocity=0 time=0@note_off channel=0 note=39 velocity=0 time=0.16260166666666664@note_on channel=0 note=36 velocity=113 time=0@note_off channel=2 note=65 velocity=0 time=0@note_on channel=2 note=66 velocity=113 time=0@note_off channel=3 note=58 velocity=0 time=0@note_on channel=3 note=59 velocity=113 time=0@note_off channel=0 note=36 velocity=0 time=0.16260166666666664@note_on channel=0 note=41 velocity=113 time=0@note_off channel=2 note=66 velocity=0 time=0@pitchwheel channel=2 pitch=-4096 time=0@note_on channel=2 note=65 velocity=113 time=0@note_off channel=3 note=59 velocity=0 time=0@note_on channel=3 note=60 velocity=113 time=0@note_off channel=9 note=59 velocity=0 time=0@note_on channel=9 note=36 velocity=127 time=0@note_on channel=9 note=62 velocity=67 time=0@note_on channel=9 note=59 velocity=79 time=0@pitchwheel channel=2 pitch=-2048 time=0.04065041666666666@pitchwheel channel=2 pitch=-820 time=0.04065041666666666@pitchwheel channel=2 pitch=-246 time=0.04065041666666666@pitchwheel channel=2 pitch=0 time=0.04065041666666666@note_off channel=9 note=62 velocity=0 time=0@note_off channel=9 note=36 velocity=0 time=0@note_off channel=0 note=41 velocity=0 time=0.16260166666666664@note_on channel=0 note=36 velocity=113 time=0@note_off channel=2 note=65 velocity=0 time=0@note_on channel=2 note=63 velocity=113 time=0@note_off channel=3 note=60 velocity=0 time=0@note_on channel=3 note=60 velocity=113 time=0@note_off channel=0 note=36 velocity=0 time=0.16260166666666664@note_on channel=0 note=39 velocity=113 time=0@note_off channel=2 note=63 velocity=0 time=0@note_on channel=2 note=60 velocity=113 time=0@note_off channel=3 note=60 velocity=0 time=0@note_off channel=9 note=59 velocity=0 time=0@note_on channel=9 note=37 velocity=95 time=0@note_on channel=9 note=38 velocity=95 time=0@note_on channel=9 note=59 velocity=79 time=0@note_off channel=2 note=60 velocity=0 time=0.16260166666666664@note_off channel=9 note=38 velocity=0 time=0@note_off channel=9 note=37 velocity=0 time=0@note_off channel=0 note=39 velocity=0 time=0.16260166666666664@note_on channel=0 note=36 velocity=113 time=0@note_on channel=3 note=55 velocity=113 time=0@note_on channel=9 note=73 velocity=70 time=0@note_off channel=0 note=36 velocity=0 time=0.16260166666666664@note_on channel=0 note=41 velocity=113 time=0@note_on channel=2 note=60 velocity=113 time=0@note_off channel=3 note=55 velocity=0 time=0@note_on channel=3 note=60 velocity=113 time=0@note_off channel=9 note=59 velocity=0 time=0@note_off channel=9 note=73 velocity=0 time=0@note_on channel=9 note=36 velocity=127 time=0@note_on channel=9 note=59 velocity=79 time=0@note_off channel=2 note=60 velocity=0 time=0.16260166666666664@note_off channel=9 note=36 velocity=0 time=0@note_on channel=9 note=44 velocity=67 time=0@note_on channel=9 note=62 velocity=67 time=0@note_off channel=0 note=41 velocity=0 time=0.16260166666666664@note_on channel=0 note=36 velocity=113 time=0@note_off channel=9 note=62 velocity=0 time=0@note_off channel=9 note=44 velocity=0 time=0@note_off channel=0 note=36 velocity=0 time=0.16260166666666664@note_on channel=0 note=38 velocity=113 time=0@pitchwheel channel=2 pitch=-4096 time=0@note_on channel=2 note=59 velocity=113 time=0@note_off channel=3 note=60 velocity=0 time=0@note_on channel=3 note=59 velocity=113 time=0@note_off channel=9 note=59 velocity=0 time=0@note_on channel=9 note=38 velocity=95 time=0@note_on channel=9 note=37 velocity=95 time=0@note_on channel=9 note=62 velocity=70 time=0@note_on channel=9 note=59 velocity=79 time=0@pitchwheel channel=2 pitch=-2048 time=0.04065041666666666@pitchwheel channel=2 pitch=-820 time=0.04065041666666666@pitchwheel channel=2 pitch=-246 time=0.04065041666666666@pitchwheel channel=2 pitch=0 time=0.04065041666666666@note_off channel=9 note=62 velocity=0 time=0@note_off channel=9 note=37 velocity=0 time=0@note_off channel=9 note=38 velocity=0 time=0@note_off channel=0 note=38 velocity=0 time=0.16260166666666664@note_on channel=0 note=36 velocity=113 time=0@note_off channel=2 note=59 velocity=0 time=0@note_on channel=2 note=55 velocity=113 time=0@note_off channel=3 note=59 velocity=0 time=0@note_on channel=3 note=55 velocity=113 time=0@note_on channel=9 note=42 velocity=67 time=0@note_off channel=0 note=36 velocity=0 time=0.16260166666666664@note_on channel=0 note=48 velocity=113 time=0@note_off channel=2 note=55 velocity=0 time=0@note_on channel=2 note=60 velocity=113 time=0@note_off channel=3 note=55 velocity=0 time=0@note_on channel=4 note=72 velocity=113 time=0@note_off channel=9 note=42 velocity=0 time=0@note_off channel=9 note=59 velocity=0 time=0@note_on channel=9 note=57 velocity=85 time=0@note_on channel=9 note=36 velocity=127 time=0@note_on channel=9 note=51 velocity=99 time=0@note_off channel=9 note=36 velocity=0 time=0.16260166666666664@note_off channel=0 note=48 velocity=0 time=0.16260166666666664@note_on channel=0 note=43 velocity=113 time=0@note_on channel=9 note=44 velocity=127 time=0@note_off channel=0 note=43 velocity=0 time=0.16260166666666664@note_on channel=0 note=48 velocity=113 time=0@note_off channel=9 note=51 velocity=0 time=0@note_off channel=9 note=44 velocity=0 time=0@note_on channel=9 note=38 velocity=98 time=0@note_on channel=9 note=37 velocity=98 time=0@note_on channel=9 note=51 velocity=99 time=0@note_off channel=9 note=37 velocity=0 time=0.16260166666666664@note_off channel=9 note=38 velocity=0 time=0@note_off channel=0 note=48 velocity=0 time=0.16260166666666664@note_on channel=0 note=43 velocity=113 time=0@note_on channel=9 note=44 velocity=127 time=0@note_off channel=0 note=43 velocity=0 time=0.16260166666666664@note_on channel=0 note=46 velocity=113 time=0@note_off channel=4 note=72 velocity=0 time=0@note_on channel=4 note=70 velocity=113 time=0@note_off channel=9 note=51 velocity=0 time=0@note_off channel=9 note=44 velocity=0 time=0@note_on channel=9 note=36 velocity=127 time=0@note_on channel=9 note=51 velocity=99 time=0@note_off channel=9 note=36 velocity=0 time=0.16260166666666664@note_off channel=0 note=46 velocity=0 time=0.16260166666666664@note_on channel=0 note=41 velocity=113 time=0@note_on channel=9 note=44 velocity=127 time=0@note_off channel=0 note=41 velocity=0 time=0.16260166666666664@note_on channel=0 note=46 velocity=113 time=0@note_off channel=9 note=51 velocity=0 time=0@note_off channel=9 note=44 velocity=0 time=0@note_on channel=9 note=38 velocity=98 time=0@note_on channel=9 note=37 velocity=98 time=0@note_on channel=9 note=51 velocity=99 time=0@note_off channel=9 note=37 velocity=0 time=0.16260166666666664@note_off channel=9 note=38 velocity=0 time=0@note_off channel=0 note=46 velocity=0 time=0.16260166666666664@note_on channel=0 note=41 velocity=113 time=0@note_on channel=9 note=44 velocity=99 time=0@note_off channel=0 note=41 velocity=0 time=0.16260166666666664@note_on channel=0 note=44 velocity=113 time=0@note_off channel=4 note=70 velocity=0 time=0@note_on channel=4 note=68 velocity=113 time=0@note_off channel=9 note=44 velocity=0 time=0@note_off channel=9 note=51 velocity=0 time=0@note_off channel=9 note=57 velocity=0 time=0@note_on channel=9 note=36 velocity=127 time=0@note_on channel=9 note=51 velocity=99 time=0@note_off channel=9 note=36 velocity=0 time=0.16260166666666664@note_off channel=0 note=44 velocity=0 time=0.16260166666666664@note_on channel=0 note=39 velocity=113 time=0@note_on channel=9 note=44 velocity=127 time=0@note_off channel=0 note=39 velocity=0 time=0.16260166666666664@note_on channel=0 note=44 velocity=113 time=0@note_off channel=9 note=51 velocity=0 time=0@note_off channel=9 note=44 velocity=0 time=0@note_on channel=9 note=38 velocity=98 time=0@note_on channel=9 note=37 velocity=98 time=0@note_on channel=9 note=51 velocity=99 time=0@note_off channel=9 note=37 velocity=0 time=0.16260166666666664@note_off channel=9 note=38 velocity=0 time=0@note_off channel=0 note=44 velocity=0 time=0.16260166666666664@note_on channel=0 note=39 velocity=113 time=0@note_on channel=9 note=44 velocity=127 time=0@note_off channel=0 note=39 velocity=0 time=0.16260166666666664@note_on channel=0 note=43 velocity=113 time=0@note_off channel=2 note=60 velocity=0 time=0@note_on channel=2 note=55 velocity=113 time=0@note_off channel=4 note=68 velocity=0 time=0@note_on channel=4 note=67 velocity=113 time=0@note_off channel=9 note=51 velocity=0 time=0@note_off channel=9 note=44 velocity=0 time=0@note_on channel=9 note=36 velocity=127 time=0@note_on channel=9 note=51 velocity=99 time=0@note_off channel=9 note=36 velocity=0 time=0.16260166666666664@note_off channel=0 note=43 velocity=0 time=0.16260166666666664@note_on channel=0 note=38 velocity=113 time=0@note_off channel=2 note=55 velocity=0 time=0@note_on channel=2 note=55 velocity=113 time=0@note_off channel=4 note=67 velocity=0 time=0@note_on channel=4 note=65 velocity=113 time=0@note_on channel=9 note=44 velocity=127 time=0@note_off channel=0 note=38 velocity=0 time=0.16260166666666664@note_on channel=0 note=43 velocity=113 time=0@note_off channel=2 note=55 velocity=0 time=0@note_on channel=2 note=62 velocity=113 time=0@note_off channel=4 note=65 velocity=0 time=0@note_on channel=4 note=72 velocity=113 time=0@note_off channel=9 note=51 velocity=0 time=0@note_off channel=9 note=44 velocity=0 time=0@note_on channel=9 note=38 velocity=98 time=0@note_on channel=9 note=37 velocity=98 time=0@note_on channel=9 note=51 velocity=99 time=0@note_off channel=9 note=37 velocity=0 time=0.16260166666666664@note_off channel=9 note=38 velocity=0 time=0@note_off channel=0 note=43 velocity=0 time=0.16260166666666664@note_on channel=0 note=38 velocity=113 time=0@note_off channel=2 note=62 velocity=0 time=0@note_on channel=2 note=60 velocity=113 time=0@note_off channel=4 note=72 velocity=0 time=0@note_on channel=4 note=74 velocity=113 time=0@note_on channel=9 note=44 velocity=99 time=0@note_off channel=0 note=38 velocity=0 time=0.16260166666666664@note_on channel=0 note=41 velocity=113 time=0@note_off channel=2 note=60 velocity=0 time=0@note_on channel=2 note=63 velocity=113 time=0@note_off channel=4 note=74 velocity=0 time=0@note_on channel=4 note=75 velocity=113 time=0@note_off channel=9 note=44 velocity=0 time=0@note_off channel=9 note=51 velocity=0 time=0@note_on channel=9 note=36 velocity=127 time=0@note_on channel=9 note=51 velocity=99 time=0@note_off channel=9 note=36 velocity=0 time=0.16260166666666664@note_off channel=0 note=41 velocity=0 time=0.16260166666666664@note_on channel=0 note=36 velocity=113 time=0@note_on channel=9 note=44 velocity=127 time=0@note_off channel=0 note=36 velocity=0 time=0.16260166666666664@note_on channel=0 note=41 velocity=113 time=0@note_off channel=9 note=51 velocity=0 time=0@note_off channel=9 note=44 velocity=0 time=0@note_on channel=9 note=38 velocity=98 time=0@note_on channel=9 note=37 velocity=98 time=0@note_on channel=9 note=51 velocity=99 time=0@note_off channel=9 note=37 velocity=0 time=0.16260166666666664@note_off channel=9 note=38 velocity=0 time=0@note_off channel=0 note=41 velocity=0 time=0.16260166666666664@note_on channel=0 note=36 velocity=113 time=0@note_on channel=9 note=44 velocity=127 time=0@note_off channel=0 note=36 velocity=0 time=0.16260166666666664@note_on channel=0 note=39 velocity=113 time=0@note_off channel=2 note=63 velocity=0 time=0@note_on channel=2 note=65 velocity=113 time=0@note_off channel=4 note=75 velocity=0 time=0@note_on channel=4 note=77 velocity=113 time=0@note_off channel=9 note=51 velocity=0 time=0@note_off channel=9 note=44 velocity=0 time=0@note_on channel=9 note=36 velocity=127 time=0@note_on channel=9 note=51 velocity=99 time=0@note_off channel=9 note=36 velocity=0 time=0.16260166666666664@note_off channel=0 note=39 velocity=0 time=0.16260166666666664@note_on channel=0 note=36 velocity=113 time=0@note_on channel=9 note=44 velocity=127 time=0@note_off channel=0 note=36 velocity=0 time=0.16260166666666664@note_on channel=0 note=39 velocity=113 time=0@note_off channel=2 note=65 velocity=0 time=0@note_on channel=2 note=63 velocity=113 time=0@note_off channel=4 note=77 velocity=0 time=0@note_on channel=4 note=75 velocity=113 time=0@note_off channel=9 note=51 velocity=0 time=0@note_off channel=9 note=44 velocity=0 time=0@note_on channel=9 note=38 velocity=98 time=0@note_on channel=9 note=37 velocity=98 time=0@note_on channel=9 note=51 velocity=99 time=0@note_off channel=9 note=37 velocity=0 time=0.16260166666666664@note_off channel=9 note=38 velocity=0 time=0@note_off channel=0 note=39 velocity=0 time=0.16260166666666664@note_on channel=0 note=36 velocity=113 time=0@note_on channel=9 note=44 velocity=99 time=0@note_off channel=0 note=36 velocity=0 time=0.16260166666666664@note_on channel=0 note=38 velocity=113 time=0@note_off channel=2 note=63 velocity=0 time=0@note_on channel=2 note=68 velocity=113 time=0@note_off channel=4 note=75 velocity=0 time=0@note_on channel=4 note=80 velocity=113 time=0@note_off channel=9 note=44 velocity=0 time=0@note_off channel=9 note=51 velocity=0 time=0@note_on channel=9 note=55 velocity=99 time=0@note_on channel=9 note=36 velocity=127 time=0@note_off channel=2 note=68 velocity=0 time=0.16260166666666664@note_off channel=4 note=80 velocity=0 time=0@note_off channel=9 note=36 velocity=0 time=0@note_on channel=2 note=68 velocity=113 time=0.16260166666666664@note_on channel=4 note=80 velocity=113 time=0@note_on channel=9 note=36 velocity=127 time=0@note_off channel=2 note=68 velocity=0 time=0.16260166666666664@note_off channel=4 note=80 velocity=0 time=0@note_off channel=9 note=36 velocity=0 time=0@note_on channel=9 note=38 velocity=107 time=0@note_on channel=2 note=68 velocity=113 time=0.16260166666666664@note_on channel=4 note=80 velocity=113 time=0@note_off channel=9 note=38 velocity=0 time=0@note_on channel=9 note=61 velocity=80 time=0@note_on channel=9 note=47 velocity=81 time=0@note_off channel=2 note=68 velocity=0 time=0.16260166666666664@note_on channel=2 note=67 velocity=113 time=0@note_off channel=4 note=80 velocity=0 time=0@note_on channel=4 note=79 velocity=113 time=0@note_off channel=9 note=47 velocity=0 time=0@note_off channel=9 note=61 velocity=0 time=0@control_change channel=2 control=7 value=100 time=0.08130083333333332@note_on channel=9 note=36 velocity=80 time=0@note_off channel=0 note=38 velocity=0 time=0.08130083333333332@note_on channel=0 note=43 velocity=113 time=0@note_off channel=2 note=67 velocity=0 time=0@note_on channel=2 note=65 velocity=113 time=0@note_off channel=4 note=79 velocity=0 time=0@note_on channel=4 note=77 velocity=113 time=0@note_off channel=9 note=36 velocity=0 time=0@note_off channel=9 note=55 velocity=0 time=0@note_on channel=9 note=57 velocity=80 time=0@note_on channel=9 note=38 velocity=99 time=0@note_off channel=2 note=65 velocity=0 time=0.16260166666666664@note_off channel=4 note=77 velocity=0 time=0@note_off channel=9 note=38 velocity=0 time=0@note_on channel=9 note=38 velocity=64 time=0@note_on channel=2 note=65 velocity=113 time=0.16260166666666664@note_on channel=4 note=77 velocity=113 time=0@note_off channel=9 note=38 velocity=0 time=0@note_on channel=9 note=36 velocity=99 time=0@note_off channel=2 note=65 velocity=0 time=0.16260166666666664@control_change channel=2 control=7 value=100 time=0@note_off channel=4 note=77 velocity=0 time=0@note_off channel=9 note=36 velocity=0 time=0@note_on channel=9 note=38 velocity=99 time=0@note_off channel=9 note=38 velocity=0 time=0.16260166666666664@note_on channel=9 note=45 velocity=81 time=0@note_on channel=2 note=72 velocity=113 time=0.16260166666666664@control_change channel=4 control=7 value=100 time=0@note_on channel=4 note=77 velocity=113 time=0@note_off channel=9 note=45 velocity=0 time=0@note_on channel=9 note=43 velocity=81 time=0@note_off channel=2 note=72 velocity=0 time=0.08130083333333332@note_on channel=2 note=67 velocity=113 time=0@note_off channel=4 note=77 velocity=0 time=0@note_on channel=4 note=75 velocity=113 time=0@note_off channel=0 note=43 velocity=0 time=0.08130083333333332@note_off channel=2 note=67 velocity=0 time=0@note_on channel=2 note=60 velocity=113 time=0@note_off channel=4 note=75 velocity=0 time=0@note_on channel=4 note=72 velocity=113 time=0@note_off channel=9 note=43 velocity=0 time=0@note_off channel=9 note=57 velocity=0 time=0@note_on channel=9 note=46 velocity=98 time=0@note_off channel=9 note=46 velocity=0 time=0.3252033333333333@note_on channel=9 note=44 velocity=98 time=0@note_on channel=9 note=62 velocity=53 time=0@note_off channel=9 note=62 velocity=0 time=0.16260166666666664@note_off channel=9 note=44 velocity=0 time=0@note_on channel=9 note=44 velocity=127 time=0@note_on channel=9 note=42 velocity=70 time=0@note_off channel=9 note=42 velocity=0 time=0.16260166666666664@note_off channel=9 note=44 velocity=0 time=0@note_on channel=9 note=44 velocity=127 time=0.16260166666666664@note_on channel=9 note=42 velocity=70 time=0@note_off channel=9 note=42 velocity=0 time=0.16260166666666664@note_off channel=9 note=44 velocity=0 time=0@note_on channel=9 note=46 velocity=98 time=0@note_off channel=9 note=46 velocity=0 time=0.3252033333333333@note_on channel=9 note=44 velocity=94 time=0@note_on channel=9 note=62 velocity=53 time=0@note_off channel=9 note=62 velocity=0 time=0.16260166666666664@note_off channel=9 note=44 velocity=0 time=0@note_on channel=9 note=44 velocity=127 time=0@note_on channel=9 note=42 velocity=70 time=0@note_off channel=9 note=42 velocity=0 time=0.16260166666666664@note_off channel=9 note=44 velocity=0 time=0@note_on channel=9 note=44 velocity=127 time=0.16260166666666664@note_on channel=9 note=42 velocity=70 time=0@control_change channel=2 control=7 value=99 time=0.14329271875@control_change channel=2 control=7 value=100 time=0.010162604166666665@control_change channel=4 control=7 value=99 time=0.006605692708333333@note_off channel=9 note=42 velocity=0 time=0.0025406510416666663@note_off channel=9 note=44 velocity=0 time=0@note_on channel=9 note=51 velocity=70 time=0@note_on channel=9 note=46 velocity=70 time=0@control_change channel=4 control=7 value=98 time=0.0025406510416666663@control_change channel=2 control=7 value=99 time=0.008130083333333333@control_change channel=4 control=7 value=97 time=0.02743903125@control_change channel=2 control=7 value=98 time=0.018292687499999998@control_change channel=4 control=7 value=96 time=0.011686994791666665@control_change channel=2 control=7 value=97 time=0.028455291666666667@control_change channel=4 control=7 value=95 time=0.007113822916666667@control_change channel=4 control=7 value=94 time=0.03556911458333333@control_change channel=2 control=7 value=96 time=0.00304878125@control_change channel=4 control=7 value=93 time=0.032012203125@control_change channel=2 control=7 value=95 time=0.013211385416666666@control_change channel=4 control=7 value=92 time=0.017276427083333334@control_change channel=2 control=7 value=94 time=0.028455291666666667@control_change channel=4 control=7 value=91 time=0.006605692708333333@control_change channel=2 control=7 value=93 time=0.033536593749999996@control_change channel=4 control=7 value=90 time=0.0020325208333333332@control_change channel=4 control=7 value=89 time=0.0304878125@control_change channel=2 control=7 value=92 time=0.013211385416666666@note_off channel=9 note=46 velocity=0 time=0.0060975625@note_on channel=9 note=44 velocity=98 time=0@note_on channel=9 note=62 velocity=53 time=0@control_change channel=4 control=7 value=88 time=0.015752036458333334@control_change channel=2 control=7 value=91 time=0.02337398958333333@control_change channel=4 control=7 value=87 time=0.012195125@control_change channel=2 control=7 value=90 time=0.028455291666666667@control_change channel=4 control=7 value=86 time=0.0020325208333333332@control_change channel=4 control=7 value=85 time=0.035060984375@control_change channel=2 control=7 value=89 time=0.008130083333333333@control_change channel=4 control=7 value=84 time=0.02743903125@note_off channel=9 note=62 velocity=0 time=0.010162604166666665@note_off channel=9 note=44 velocity=0 time=0@note_off channel=9 note=51 velocity=0 time=0@note_on channel=9 note=44 velocity=127 time=0@note_on channel=9 note=42 velocity=66 time=0@control_change channel=2 control=7 value=88 time=0.008130083333333333@control_change channel=4 control=7 value=83 time=0.016768296874999998@control_change channel=2 control=7 value=87 time=0.028455291666666667@control_change channel=4 control=7 value=82 time=0.0020325208333333332@control_change channel=4 control=7 value=81 time=0.03556911458333333@control_change channel=2 control=7 value=86 time=0.00304878125@control_change channel=4 control=7 value=80 time=0.032012203125@control_change channel=2 control=7 value=85 time=0.013211385416666666@control_change channel=4 control=7 value=79 time=0.017276427083333334@note_off channel=9 note=42 velocity=0 time=0.0060975625@note_off channel=9 note=44 velocity=0 time=0@control_change channel=2 control=7 value=84 time=0.022357729166666666@control_change channel=4 control=7 value=78 time=0.006605692708333333@control_change channel=4 control=7 value=77 time=0.03556911458333333@control_change channel=2 control=7 value=83 time=0.00304878125@control_change channel=4 control=7 value=76 time=0.02743903125@control_change channel=2 control=7 value=82 time=0.013211385416666666@control_change channel=4 control=7 value=75 time=0.02184959895833333@control_change channel=2 control=7 value=81 time=0.02337398958333333@note_on channel=9 note=44 velocity=127 time=0.009146343749999999@note_on channel=9 note=42 velocity=66 time=0@control_change channel=4 control=7 value=74 time=0.00304878125@control_change channel=2 control=7 value=80 time=0.033536593749999996@control_change channel=4 control=7 value=73 time=0.001524390625@control_change channel=4 control=7 value=72 time=0.0304878125@control_change channel=2 control=7 value=79 time=0.013211385416666666@control_change channel=2 control=7 value=80 time=0.02032520833333333@control_change channel=4 control=7 value=71 time=0.0020325208333333332@control_change channel=2 control=7 value=79 time=0.00304878125@control_change channel=2 control=7 value=78 time=0.02032520833333333@control_change channel=4 control=7 value=70 time=0.011686994791666665@control_change channel=2 control=7 value=77 time=0.008130083333333333@control_change channel=4 control=7 value=69 time=0.012195125@note_off channel=9 note=42 velocity=0 time=0.00304878125@note_off channel=9 note=44 velocity=0 time=0@note_on channel=9 note=46 velocity=92 time=0@note_on channel=9 note=51 velocity=69 time=0@note_on channel=9 note=59 velocity=86 time=0@control_change channel=2 control=7 value=76 time=0.005081302083333333@control_change channel=4 control=7 value=68 time=0.012195125@control_change channel=2 control=7 value=75 time=0.008130083333333333@control_change channel=4 control=7 value=67 time=0.012195125@control_change channel=2 control=7 value=74 time=0.008130083333333333@control_change channel=4 control=7 value=66 time=0.011686994791666665@control_change channel=2 control=7 value=73 time=0.008638213541666667@control_change channel=4 control=7 value=65 time=0.016768296874999998@control_change channel=2 control=7 value=72 time=0.008130083333333333@control_change channel=4 control=7 value=64 time=0.012195125@control_change channel=2 control=7 value=71 time=0.008130083333333333@control_change channel=4 control=7 value=63 time=0.012195125@control_change channel=2 control=7 value=70 time=0.008130083333333333@control_change channel=4 control=7 value=62 time=0.011686994791666665@control_change channel=2 control=7 value=69 time=0.008638213541666667@control_change channel=4 control=7 value=61 time=0.011686994791666665@control_change channel=2 control=7 value=68 time=0.008130083333333333@control_change channel=4 control=7 value=60 time=0.012195125@control_change channel=2 control=7 value=67 time=0.008130083333333333@control_change channel=4 control=7 value=59 time=0.017276427083333334@control_change channel=2 control=7 value=66 time=0.008130083333333333@control_change channel=4 control=7 value=58 time=0.011686994791666665@control_change channel=2 control=7 value=65 time=0.008638213541666667@control_change channel=4 control=7 value=57 time=0.011686994791666665@control_change channel=2 control=7 value=64 time=0.008130083333333333@control_change channel=4 control=7 value=56 time=0.012195125@control_change channel=2 control=7 value=63 time=0.008130083333333333@control_change channel=4 control=7 value=55 time=0.012195125@control_change channel=2 control=7 value=62 time=0.008130083333333333@control_change channel=4 control=7 value=54 time=0.011686994791666665@control_change channel=2 control=7 value=61 time=0.008638213541666667@note_off channel=9 note=46 velocity=0 time=0.006605692708333333@note_on channel=9 note=44 velocity=92 time=0@note_on channel=9 note=62 velocity=53 time=0@control_change channel=4 control=7 value=53 time=0.010162604166666665@control_change channel=2 control=7 value=60 time=0.00304878125@control_change channel=4 control=7 value=52 time=0.017276427083333334@control_change channel=2 control=7 value=59 time=0.008130083333333333@control_change channel=4 control=7 value=51 time=0.012195125@control_change channel=2 control=7 value=58 time=0.008130083333333333@control_change channel=4 control=7 value=50 time=0.011686994791666665@control_change channel=2 control=7 value=57 time=0.008638213541666667@control_change channel=4 control=7 value=49 time=0.011686994791666665@control_change channel=2 control=7 value=56 time=0.008130083333333333@control_change channel=4 control=7 value=48 time=0.012195125@control_change channel=2 control=7 value=55 time=0.008130083333333333@control_change channel=4 control=7 value=47 time=0.017276427083333334@control_change channel=2 control=7 value=54 time=0.00304878125@control_change channel=4 control=7 value=46 time=0.016768296874999998@note_off channel=9 note=62 velocity=0 time=0.0060975625@note_off channel=9 note=59 velocity=0 time=0@note_off channel=9 note=51 velocity=0 time=0@note_off channel=9 note=44 velocity=0 time=0@note_on channel=9 note=44 velocity=127 time=0@note_on channel=9 note=42 velocity=69 time=0@control_change channel=2 control=7 value=53 time=0.0025406510416666663@control_change channel=4 control=7 value=45 time=0.011686994791666665@control_change channel=2 control=7 value=52 time=0.008130083333333333@control_change channel=4 control=7 value=44 time=0.012195125@control_change channel=2 control=7 value=51 time=0.008130083333333333@control_change channel=2 control=7 value=50 time=0.010162604166666665@control_change channel=4 control=7 value=43 time=0.0020325208333333332@control_change channel=2 control=7 value=49 time=0.008130083333333333@control_change channel=2 control=7 value=48 time=0.005081302083333333@control_change channel=4 control=7 value=42 time=0.007113822916666667@control_change channel=2 control=7 value=47 time=0.00304878125@control_change channel=4 control=7 value=41 time=0.006605692708333333@control_change channel=2 control=7 value=46 time=0.0035569114583333334@control_change channel=4 control=7 value=40 time=0.006605692708333333@control_change channel=2 control=7 value=45 time=0.0035569114583333334@control_change channel=4 control=7 value=39 time=0.006605692708333333@control_change channel=2 control=7 value=44 time=0.00304878125@control_change channel=2 control=7 value=43 time=0.005081302083333333@control_change channel=4 control=7 value=38 time=0.0020325208333333332@control_change channel=2 control=7 value=42 time=0.008130083333333333@control_change channel=4 control=7 value=37 time=0.007113822916666667@control_change channel=2 control=7 value=41 time=0.00304878125@control_change channel=4 control=7 value=36 time=0.007113822916666667@control_change channel=2 control=7 value=40 time=0.00304878125@control_change channel=4 control=7 value=35 time=0.007113822916666667@control_change channel=2 control=7 value=39 time=0.00304878125@control_change channel=4 control=7 value=34 time=0.007113822916666667@note_off channel=9 note=42 velocity=0 time=0.001524390625@note_off channel=9 note=44 velocity=0 time=0@control_change channel=2 control=7 value=38 time=0.001524390625@control_change channel=2 control=7 value=37 time=0.005081302083333333@control_change channel=4 control=7 value=33 time=0.001524390625@control_change channel=2 control=7 value=36 time=0.008638213541666667@control_change channel=4 control=7 value=32 time=0.001524390625@control_change channel=2 control=7 value=35 time=0.008130083333333333@control_change channel=4 control=7 value=31 time=0.0020325208333333332@control_change channel=2 control=7 value=34 time=0.008130083333333333@control_change channel=4 control=7 value=30 time=0.0020325208333333332@control_change channel=2 control=7 value=33 time=0.008130083333333333@control_change channel=2 control=7 value=32 time=0.005081302083333333@control_change channel=4 control=7 value=29 time=0.0020325208333333332@control_change channel=2 control=7 value=31 time=0.008130083333333333@control_change channel=4 control=7 value=28 time=0.0020325208333333332@control_change channel=2 control=7 value=30 time=0.008130083333333333@control_change channel=4 control=7 value=27 time=0.0020325208333333332@control_change channel=2 control=7 value=29 time=0.008130083333333333@control_change channel=4 control=7 value=26 time=0.0020325208333333332@control_change channel=2 control=7 value=28 time=0.008130083333333333@control_change channel=4 control=7 value=25 time=0.001524390625@control_change channel=2 control=7 value=27 time=0.008638213541666667@control_change channel=4 control=7 value=24 time=0.001524390625@control_change channel=2 control=7 value=26 time=0.0035569114583333334@control_change channel=4 control=7 value=23 time=0.006605692708333333@control_change channel=2 control=7 value=25 time=0.00304878125@control_change channel=4 control=7 value=22 time=0.007113822916666667@control_change channel=2 control=7 value=24 time=0.00304878125@control_change channel=2 control=7 value=23 time=0.010162604166666665@control_change channel=4 control=7 value=21 time=0.0020325208333333332@control_change channel=2 control=7 value=22 time=0.008130083333333333@control_change channel=4 control=7 value=20 time=0.0020325208333333332@control_change channel=2 control=7 value=21 time=0.00304878125@control_change channel=4 control=7 value=19 time=0.007113822916666667@note_on channel=9 note=44 velocity=127 time=0.0025406510416666663@note_on channel=9 note=42 velocity=69 time=0@control_change channel=2 control=7 value=20 time=0.0005081302083333333@control_change channel=4 control=7 value=18 time=0.007113822916666667@control_change channel=2 control=7 value=19 time=0.00304878125@control_change channel=4 control=7 value=17 time=0.006605692708333333@control_change channel=2 control=7 value=18 time=0.0035569114583333334@control_change channel=4 control=7 value=16 time=0.006605692708333333@control_change channel=2 control=7 value=17 time=0.0035569114583333334@control_change channel=4 control=7 value=15 time=0.006605692708333333@control_change channel=2 control=7 value=16 time=0.00304878125@control_change channel=2 control=7 value=15 time=0.005081302083333333@control_change channel=4 control=7 value=14 time=0.0020325208333333332@control_change channel=2 control=7 value=14 time=0.008130083333333333@control_change channel=4 control=7 value=13 time=0.007113822916666667@control_change channel=2 control=7 value=13 time=0.00304878125@control_change channel=4 control=7 value=12 time=0.007113822916666667@control_change channel=2 control=7 value=12 time=0.00304878125@control_change channel=4 control=7 value=11 time=0.007113822916666667@control_change channel=2 control=7 value=11 time=0.00304878125@control_change channel=2 control=7 value=10 time=0.005081302083333333@control_change channel=4 control=7 value=10 time=0.0020325208333333332@control_change channel=2 control=7 value=9 time=0.008130083333333333@control_change channel=4 control=7 value=9 time=0.001524390625@control_change channel=2 control=7 value=8 time=0.008638213541666667@control_change channel=4 control=7 value=8 time=0.001524390625@control_change channel=2 control=7 value=7 time=0.008638213541666667@control_change channel=4 control=7 value=7 time=0.001524390625@control_change channel=2 control=7 value=6 time=0.008130083333333333@control_change channel=4 control=7 value=6 time=0.0020325208333333332@control_change channel=2 control=7 value=5 time=0.008130083333333333@control_change channel=2 control=7 value=4 time=0.005081302083333333@control_change channel=4 control=7 value=5 time=0.0020325208333333332@control_change channel=2 control=7 value=3 time=0.008130083333333333@control_change channel=4 control=7 value=4 time=0.0020325208333333332@note_on channel=0 note=36 velocity=127 time=0.0035569114583333334@note_off channel=2 note=60 velocity=0 time=0@note_off channel=4 note=72 velocity=0 time=0@note_off channel=9 note=42 velocity=0 time=0@note_off channel=9 note=44 velocity=0 time=0@note_on channel=9 note=36 velocity=127 time=0@note_on channel=9 note=62 velocity=67 time=0@note_on channel=9 note=42 velocity=86 time=0@control_change channel=2 control=7 value=2 time=0.0045731718749999995@control_change channel=4 control=7 value=3 time=0.0020325208333333332@control_change channel=2 control=7 value=1 time=0.008130083333333333@control_change channel=4 control=7 value=4 time=0.0020325208333333332@control_change channel=2 control=7 value=45 time=0.008130083333333333@control_change channel=4 control=7 value=3 time=0.03709350520833333@note_off channel=9 note=42 velocity=0 time=0.10060978124999999@note_off channel=9 note=62 velocity=0 time=0@note_off channel=9 note=36 velocity=0 time=0@control_change channel=4 control=7 value=2 time=0.06605692708333333@note_off channel=0 note=36 velocity=0 time=0.09654473958333333@note_on channel=0 note=39 velocity=127 time=0@note_on channel=9 note=42 velocity=74 time=0@control_change channel=4 control=7 value=1 time=0.07012196875@note_off channel=0 note=39 velocity=0 time=0.09247969791666666@pitchwheel channel=0 pitch=-4096 time=0@note_on channel=0 note=41 velocity=113 time=0@note_off channel=9 note=42 velocity=0 time=0@note_on channel=9 note=37 velocity=95 time=0@note_on channel=9 note=38 velocity=95 time=0@pitchwheel channel=0 pitch=-2048 time=0.04065041666666666@control_change channel=4 control=7 value=0 time=0.028455291666666667@pitchwheel channel=0 pitch=-820 time=0.012195125@pitchwheel channel=0 pitch=-246 time=0.04065041666666666@control_change channel=4 control=7 value=100 time=0.02794716145833333@pitchwheel channel=0 pitch=0 time=0.012703255208333333@note_off channel=9 note=38 velocity=0 time=0@note_off channel=9 note=37 velocity=0 time=0@note_off channel=0 note=41 velocity=0 time=0.16260166666666664@note_on channel=0 note=42 velocity=127 time=0@note_on channel=9 note=42 velocity=127 time=0@note_on channel=9 note=73 velocity=70 time=0@note_off channel=0 note=42 velocity=0 time=0.16260166666666664@note_on channel=0 note=41 velocity=127 time=0@note_off channel=9 note=73 velocity=0 time=0@note_off channel=9 note=42 velocity=0 time=0@note_on channel=9 note=36 velocity=127 time=0@note_on channel=9 note=42 velocity=100 time=0@note_off channel=9 note=42 velocity=0 time=0.16260166666666664@note_off channel=9 note=36 velocity=0 time=0@control_change channel=2 control=7 value=44 time=0.09908539062499999@control_change channel=2 control=7 value=43 time=0.0304878125@control_change channel=2 control=7 value=42 time=0.029979682291666664@note_off channel=0 note=41 velocity=0 time=0.00304878125@note_on channel=0 note=39 velocity=127 time=0@note_on channel=9 note=42 velocity=127 time=0@control_change channel=2 control=7 value=41 time=0.02743903125@control_change channel=2 control=7 value=40 time=0.029979682291666664@control_change channel=2 control=7 value=39 time=0.0304878125@control_change channel=2 control=7 value=38 time=0.025406510416666667@control_change channel=2 control=7 value=37 time=0.029979682291666664@note_off channel=0 note=39 velocity=0 time=0.019308947916666666@note_on channel=0 note=36 velocity=127 time=0@note_off channel=9 note=42 velocity=0 time=0@note_on channel=9 note=38 velocity=95 time=0@note_on channel=9 note=37 velocity=95 time=0@note_on channel=9 note=62 velocity=70 time=0@control_change channel=2 control=7 value=36 time=0.011178864583333333@control_change channel=2 control=7 value=35 time=0.0304878125@control_change channel=2 control=7 value=34 time=0.029979682291666664@control_change channel=2 control=7 value=33 time=0.0304878125@control_change channel=2 control=7 value=32 time=0.0304878125@control_change channel=2 control=7 value=31 time=0.029979682291666664@note_off channel=9 note=62 velocity=0 time=0@note_off channel=9 note=37 velocity=0 time=0@note_off channel=9 note=38 velocity=0 time=0@control_change channel=2 control=7 value=30 time=0.0304878125@control_change channel=2 control=7 value=29 time=0.0304878125@control_change channel=2 control=7 value=28 time=0.029979682291666664@control_change channel=2 control=7 value=27 time=0.01524390625@control_change channel=2 control=7 value=26 time=0.005081302083333333@control_change channel=2 control=7 value=25 time=0.01524390625@control_change channel=2 control=7 value=24 time=0.02032520833333333@control_change channel=2 control=7 value=23 time=0.01524390625@note_off channel=0 note=36 velocity=0 time=0.0005081302083333333@note_on channel=0 note=39 velocity=127 time=0@note_on channel=9 note=42 velocity=127 time=0@control_change channel=2 control=7 value=22 time=0.014227645833333333@control_change channel=2 control=7 value=21 time=0.02032520833333333@control_change channel=2 control=7 value=20 time=0.01524390625@control_change channel=2 control=7 value=19 time=0.02032520833333333@control_change channel=2 control=7 value=18 time=0.01524390625@control_change channel=2 control=7 value=17 time=0.019817078125@control_change channel=2 control=7 value=16 time=0.01524390625@control_change channel=2 control=7 value=15 time=0.02032520833333333@control_change channel=2 control=7 value=14 time=0.01524390625@note_off channel=0 note=39 velocity=0 time=0.006605692708333333@note_on channel=0 note=36 velocity=127 time=0@note_off channel=9 note=42 velocity=0 time=0@note_on channel=9 note=36 velocity=127 time=0@note_on channel=9 note=62 velocity=67 time=0@control_change channel=2 control=7 value=13 time=0.013719515625@control_change channel=2 control=7 value=12 time=0.014735776041666666@control_change channel=2 control=7 value=11 time=0.02032520833333333@control_change channel=2 control=7 value=10 time=0.01524390625@control_change channel=2 control=7 value=9 time=0.02032520833333333@control_change channel=2 control=7 value=8 time=0.01524390625@control_change channel=2 control=7 value=7 time=0.014735776041666666@control_change channel=2 control=7 value=6 time=0.02032520833333333@control_change channel=2 control=7 value=5 time=0.01524390625@note_off channel=9 note=62 velocity=0 time=0.012703255208333333@note_off channel=9 note=36 velocity=0 time=0@control_change channel=2 control=7 value=4 time=0.007621953125@control_change channel=2 control=7 value=3 time=0.01524390625@control_change channel=2 control=7 value=2 time=0.019817078125@control_change channel=2 control=7 value=1 time=0.01524390625@control_change channel=2 control=7 value=0 time=0.02032520833333333@note_off channel=0 note=36 velocity=0 time=0.08434961458333333@note_on channel=0 note=39 velocity=127 time=0@note_on channel=9 note=42 velocity=74 time=0@note_off channel=0 note=39 velocity=0 time=0.16260166666666664@pitchwheel channel=0 pitch=-4096 time=0@note_on channel=0 note=41 velocity=113 time=0@note_off channel=9 note=42 velocity=0 time=0@note_on channel=9 note=38 velocity=95 time=0@note_on channel=9 note=37 velocity=95 time=0@pitchwheel channel=0 pitch=-2048 time=0.04065041666666666@pitchwheel channel=0 pitch=-820 time=0.04065041666666666@pitchwheel channel=0 pitch=-246 time=0.04065041666666666@pitchwheel channel=0 pitch=0 time=0.04065041666666666@note_off channel=9 note=37 velocity=0 time=0@note_off channel=9 note=38 velocity=0 time=0@note_off channel=0 note=41 velocity=0 time=0.16260166666666664@note_on channel=0 note=42 velocity=127 time=0@note_on channel=9 note=42 velocity=127 time=0@note_on channel=9 note=73 velocity=70 time=0@note_off channel=0 note=42 velocity=0 time=0.16260166666666664@note_on channel=0 note=41 velocity=127 time=0@note_off channel=9 note=73 velocity=0 time=0@note_off channel=9 note=42 velocity=0 time=0@note_on channel=9 note=36 velocity=127 time=0@note_on channel=9 note=42 velocity=100 time=0@note_off channel=9 note=42 velocity=0 time=0.16260166666666664@note_off channel=9 note=36 velocity=0 time=0@control_change channel=2 control=7 value=44 time=0.097561@control_change channel=2 control=7 value=43 time=0.0304878125@control_change channel=2 control=7 value=42 time=0.0304878125@note_off channel=0 note=41 velocity=0 time=0.0040650416666666665@note_on channel=0 note=39 velocity=127 time=0@note_on channel=9 note=42 velocity=127 time=0@control_change channel=2 control=7 value=41 time=0.025914640625@control_change channel=2 control=7 value=40 time=0.0304878125@control_change channel=2 control=7 value=39 time=0.0304878125@control_change channel=2 control=7 value=38 time=0.02489838020833333@control_change channel=2 control=7 value=37 time=0.0304878125@note_off channel=0 note=39 velocity=0 time=0.02032520833333333@note_on channel=0 note=36 velocity=127 time=0@note_off channel=9 note=42 velocity=0 time=0@note_on channel=9 note=38 velocity=95 time=0@note_on channel=9 note=37 velocity=95 time=0@note_on channel=9 note=62 velocity=70 time=0@control_change channel=2 control=7 value=36 time=0.010162604166666665@control_change channel=2 control=7 value=35 time=0.033028463541666664@control_change channel=2 control=7 value=34 time=0.029979682291666664@control_change channel=2 control=7 value=33 time=0.0304878125@control_change channel=2 control=7 value=32 time=0.0304878125@note_off channel=9 note=62 velocity=0 time=0.028455291666666667@note_off channel=9 note=37 velocity=0 time=0@note_off channel=9 note=38 velocity=0 time=0@control_change channel=2 control=7 value=31 time=0.001524390625@control_change channel=2 control=7 value=30 time=0.0304878125@control_change channel=2 control=7 value=29 time=0.0304878125@control_change channel=2 control=7 value=28 time=0.029979682291666664@control_change channel=2 control=7 value=27 time=0.01524390625@control_change channel=2 control=7 value=26 time=0.005081302083333333@control_change channel=2 control=7 value=25 time=0.01524390625@control_change channel=2 control=7 value=24 time=0.02032520833333333@note_off channel=0 note=36 velocity=0 time=0.014227645833333333@note_on channel=0 note=38 velocity=127 time=0@note_on channel=9 note=42 velocity=127 time=0@control_change channel=2 control=7 value=23 time=0.0005081302083333333@control_change channel=2 control=7 value=22 time=0.01524390625@control_change channel=2 control=7 value=21 time=0.02032520833333333@control_change channel=2 control=7 value=20 time=0.01524390625@control_change channel=2 control=7 value=19 time=0.02032520833333333@control_change channel=2 control=7 value=18 time=0.014735776041666666@control_change channel=2 control=7 value=17 time=0.02032520833333333@control_change channel=2 control=7 value=16 time=0.01524390625@control_change channel=2 control=7 value=15 time=0.02032520833333333@control_change channel=2 control=7 value=14 time=0.01524390625@note_off channel=0 note=38 velocity=0 time=0.005081302083333333@pitchwheel channel=0 pitch=-4096 time=0@note_on channel=0 note=39 velocity=113 time=0@note_off channel=9 note=42 velocity=0 time=0@note_on channel=9 note=42 velocity=86 time=0@note_on channel=9 note=36 velocity=127 time=0@note_on channel=9 note=62 velocity=88 time=0@control_change channel=2 control=7 value=13 time=0.014735776041666666@control_change channel=2 control=7 value=12 time=0.01524390625@pitchwheel channel=0 pitch=-2048 time=0.010670734375@control_change channel=2 control=7 value=11 time=0.009654473958333333@control_change channel=2 control=7 value=10 time=0.01524390625@pitchwheel channel=0 pitch=-820 time=0.015752036458333334@control_change channel=2 control=7 value=9 time=0.0045731718749999995@control_change channel=2 control=7 value=8 time=0.014735776041666666@control_change channel=2 control=7 value=7 time=0.01524390625@pitchwheel channel=0 pitch=-246 time=0.0060975625@control_change channel=2 control=7 value=6 time=0.014227645833333333@control_change channel=2 control=7 value=5 time=0.01524390625@pitchwheel channel=0 pitch=0 time=0.011178864583333333@note_off channel=9 note=62 velocity=0 time=0@note_off channel=9 note=36 velocity=0 time=0@note_off channel=9 note=42 velocity=0 time=0@control_change channel=2 control=7 value=4 time=0.009146343749999999@control_change channel=2 control=7 value=3 time=0.014735776041666666@control_change channel=2 control=7 value=2 time=0.02032520833333333@control_change channel=2 control=7 value=1 time=0.01524390625@control_change channel=2 control=7 value=0 time=0.02032520833333333@note_off channel=0 note=39 velocity=0 time=0.08282522395833333@note_on channel=0 note=36 velocity=127 time=0@note_on channel=9 note=42 velocity=69 time=0@note_on channel=9 note=73 velocity=57 time=0@note_off channel=0 note=36 velocity=0 time=0.16260166666666664@note_on channel=0 note=38 velocity=127 time=0@note_off channel=9 note=73 velocity=0 time=0@note_off channel=9 note=42 velocity=0 time=0@note_on channel=9 note=63 velocity=81 time=0@note_on channel=9 note=40 velocity=28 time=0@note_on channel=9 note=70 velocity=51 time=0@note_on channel=9 note=50 velocity=42 time=0@note_on channel=9 note=77 velocity=81 time=0@note_on channel=9 note=73 velocity=60 time=0@note_off channel=9 note=73 velocity=0 time=0.16260166666666664@note_off channel=9 note=77 velocity=0 time=0@note_off channel=9 note=70 velocity=0 time=0@note_off channel=0 note=38 velocity=0 time=0.16260166666666664@note_on channel=0 note=36 velocity=127 time=0@note_on channel=9 note=42 velocity=127 time=0@note_off channel=0 note=36 velocity=0 time=0.16260166666666664@note_on channel=0 note=39 velocity=127 time=0@note_off channel=9 note=50 velocity=0 time=0@note_off channel=9 note=42 velocity=0 time=0@note_off channel=9 note=40 velocity=0 time=0@note_off channel=9 note=63 velocity=0 time=0@note_on channel=9 note=36 velocity=127 time=0@note_on channel=9 note=42 velocity=74 time=0@note_on channel=9 note=62 velocity=88 time=0@note_off channel=9 note=62 velocity=0 time=0.16260166666666664@note_off channel=9 note=42 velocity=0 time=0@note_off channel=9 note=36 velocity=0 time=0@control_change channel=2 control=7 value=100 time=0.09400408854166666@pitchwheel channel=2 pitch=-4096 time=0@pitchwheel channel=2 pitch=-2048 time=0@pitchwheel channel=2 pitch=-820 time=0@pitchwheel channel=2 pitch=-246 time=0@pitchwheel channel=2 pitch=0 time=0@pitchwheel channel=2 pitch=-4096 time=0@pitchwheel channel=2 pitch=-2048 time=0@pitchwheel channel=2 pitch=-820 time=0@pitchwheel channel=2 pitch=-246 time=0@pitchwheel channel=2 pitch=0 time=0@pitchwheel channel=2 pitch=-4096 time=0@pitchwheel channel=2 pitch=-2048 time=0@pitchwheel channel=2 pitch=-820 time=0@pitchwheel channel=2 pitch=-246 time=0@pitchwheel channel=2 pitch=0 time=0@pitchwheel channel=2 pitch=-4096 time=0@pitchwheel channel=2 pitch=-2048 time=0@pitchwheel channel=2 pitch=-820 time=0@pitchwheel channel=2 pitch=-246 time=0@pitchwheel channel=2 pitch=0 time=0@pitchwheel channel=2 pitch=-4096 time=0@pitchwheel channel=2 pitch=-2048 time=0@pitchwheel channel=2 pitch=-820 time=0@pitchwheel channel=2 pitch=-246 time=0@pitchwheel channel=2 pitch=0 time=0@pitchwheel channel=2 pitch=-4096 time=0@pitchwheel channel=2 pitch=-2048 time=0@pitchwheel channel=2 pitch=-820 time=0@pitchwheel channel=2 pitch=-246 time=0@pitchwheel channel=2 pitch=0 time=0@pitchwheel channel=2 pitch=-4096 time=0@pitchwheel channel=2 pitch=-2048 time=0@pitchwheel channel=2 pitch=-820 time=0@pitchwheel channel=2 pitch=-246 time=0@pitchwheel channel=2 pitch=0 time=0@pitchwheel channel=2 pitch=-4096 time=0@pitchwheel channel=2 pitch=-2048 time=0@pitchwheel channel=2 pitch=-820 time=0@pitchwheel channel=2 pitch=-246 time=0@pitchwheel channel=2 pitch=0 time=0@pitchwheel channel=2 pitch=-4096 time=0@pitchwheel channel=2 pitch=-2048 time=0@pitchwheel channel=2 pitch=-820 time=0@pitchwheel channel=2 pitch=-246 time=0@pitchwheel channel=2 pitch=0 time=0@pitchwheel channel=2 pitch=-4096 time=0@pitchwheel channel=2 pitch=-2048 time=0@pitchwheel channel=2 pitch=-820 time=0@pitchwheel channel=2 pitch=-246 time=0@pitchwheel channel=2 pitch=0 time=0@pitchwheel channel=2 pitch=-4096 time=0@pitchwheel channel=2 pitch=-2048 time=0@pitchwheel channel=2 pitch=-820 time=0@pitchwheel channel=2 pitch=-246 time=0@pitchwheel channel=2 pitch=0 time=0@pitchwheel channel=2 pitch=-4096 time=0@pitchwheel channel=2 pitch=-2048 time=0@pitchwheel channel=2 pitch=-820 time=0@pitchwheel channel=2 pitch=-246 time=0@pitchwheel channel=2 pitch=0 time=0@pitchwheel channel=2 pitch=-4096 time=0@pitchwheel channel=2 pitch=-2048 time=0@pitchwheel channel=2 pitch=-820 time=0@pitchwheel channel=2 pitch=-246 time=0@pitchwheel channel=2 pitch=0 time=0@note_off channel=0 note=39 velocity=0 time=0.068597578125@note_on channel=0 note=36 velocity=127 time=0@note_on channel=9 note=42 velocity=86 time=0@note_on channel=9 note=73 velocity=57 time=0@note_off channel=0 note=36 velocity=0 time=0.16260166666666664@note_on channel=0 note=38 velocity=127 time=0@note_off channel=9 note=73 velocity=0 time=0@note_off channel=9 note=42 velocity=0 time=0@note_on channel=9 note=63 velocity=81 time=0@note_on channel=9 note=40 velocity=28 time=0@note_on channel=9 note=70 velocity=51 time=0@note_on channel=9 note=50 velocity=42 time=0@note_on channel=9 note=77 velocity=81 time=0@note_on channel=9 note=73 velocity=60 time=0@note_off channel=9 note=73 velocity=0 time=0.16260166666666664@note_off channel=9 note=77 velocity=0 time=0@note_off channel=9 note=70 velocity=0 time=0@note_off channel=0 note=38 velocity=0 time=0.16260166666666664@note_on channel=0 note=36 velocity=127 time=0@note_on channel=9 note=42 velocity=86 time=0@note_off channel=0 note=36 velocity=0 time=0.16260166666666664@note_on channel=0 note=39 velocity=127 time=0@note_off channel=9 note=50 velocity=0 time=0@note_off channel=9 note=42 velocity=0 time=0@note_off channel=9 note=40 velocity=0 time=0@note_off channel=9 note=63 velocity=0 time=0@note_on channel=9 note=42 velocity=86 time=0@note_on channel=9 note=36 velocity=127 time=0@note_on channel=9 note=62 velocity=88 time=0@note_off channel=9 note=62 velocity=0 time=0.16260166666666664@note_off channel=9 note=36 velocity=0 time=0@note_off channel=9 note=42 velocity=0 time=0@note_off channel=0 note=39 velocity=0 time=0.16260166666666664@note_on channel=0 note=36 velocity=127 time=0@note_on channel=9 note=42 velocity=69 time=0@note_on channel=9 note=73 velocity=57 time=0@note_off channel=0 note=36 velocity=0 time=0.16260166666666664@note_on channel=0 note=38 velocity=127 time=0@note_off channel=9 note=73 velocity=0 time=0@note_off channel=9 note=42 velocity=0 time=0@note_on channel=9 note=63 velocity=81 time=0@note_on channel=9 note=40 velocity=28 time=0@note_on channel=9 note=70 velocity=51 time=0@note_on channel=9 note=50 velocity=42 time=0@note_on channel=9 note=77 velocity=81 time=0@note_on channel=9 note=73 velocity=60 time=0@note_off channel=9 note=73 velocity=0 time=0.16260166666666664@note_off channel=9 note=77 velocity=0 time=0@note_off channel=9 note=70 velocity=0 time=0@note_off channel=0 note=38 velocity=0 time=0.16260166666666664@note_on channel=0 note=36 velocity=127 time=0@note_on channel=9 note=42 velocity=127 time=0@note_on channel=9 note=69 velocity=42 time=0@note_off channel=0 note=36 velocity=0 time=0.16260166666666664@note_on channel=0 note=36 velocity=127 time=0@note_off channel=9 note=69 velocity=0 time=0@note_off channel=9 note=50 velocity=0 time=0@note_off channel=9 note=42 velocity=0 time=0@note_off channel=9 note=40 velocity=0 time=0@note_off channel=9 note=63 velocity=0 time=0@note_on channel=9 note=36 velocity=127 time=0@note_on channel=9 note=42 velocity=74 time=0@note_on channel=9 note=62 velocity=88 time=0@note_on channel=9 note=64 velocity=41 time=0@note_on channel=9 note=87 velocity=51 time=0@note_off channel=9 note=87 velocity=0 time=0.16260166666666664@note_off channel=9 note=64 velocity=0 time=0@note_off channel=9 note=62 velocity=0 time=0@note_off channel=9 note=42 velocity=0 time=0@note_off channel=9 note=36 velocity=0 time=0@note_off channel=0 note=36 velocity=0 time=0.16260166666666664@note_on channel=0 note=36 velocity=127 time=0.16260166666666664@note_on channel=9 note=36 velocity=127 time=0@note_on channel=9 note=42 velocity=74 time=0@note_on channel=9 note=62 velocity=88 time=0@note_on channel=9 note=64 velocity=41 time=0@note_on channel=9 note=87 velocity=51 time=0@note_off channel=9 note=87 velocity=0 time=0.16260166666666664@note_off channel=9 note=64 velocity=0 time=0@note_off channel=9 note=62 velocity=0 time=0@note_off channel=9 note=42 velocity=0 time=0@note_off channel=9 note=36 velocity=0 time=0@note_off channel=0 note=36 velocity=0 time=0.16260166666666664@note_on channel=9 note=76 velocity=47 time=0@note_off channel=9 note=76 velocity=0 time=0.08130083333333332@note_on channel=9 note=76 velocity=31 time=0@note_on channel=0 note=36 velocity=127 time=0.08130083333333332@note_on channel=1 note=55 velocity=127 time=0@note_on channel=1 note=60 velocity=113 time=0@note_off channel=9 note=76 velocity=0 time=0@note_on channel=9 note=36 velocity=127 time=0@note_on channel=9 note=62 velocity=67 time=0@note_on channel=9 note=57 velocity=69 time=0@note_on channel=9 note=49 velocity=69 time=0@note_on channel=9 note=52 velocity=69 time=0@note_off channel=9 note=62 velocity=0 time=0.16260166666666664@note_off channel=9 note=36 velocity=0 time=0@note_off channel=0 note=36 velocity=0 time=0.16260166666666664@note_on channel=0 note=39 velocity=127 time=0@note_off channel=0 note=39 velocity=0 time=0.16260166666666664@pitchwheel channel=0 pitch=-4096 time=0@note_on channel=0 note=41 velocity=113 time=0@note_on channel=9 note=37 velocity=95 time=0@note_on channel=9 note=38 velocity=95 time=0@note_on channel=9 note=59 velocity=79 time=0@pitchwheel channel=0 pitch=-2048 time=0.04065041666666666@pitchwheel channel=0 pitch=-820 time=0.04065041666666666@pitchwheel channel=0 pitch=-246 time=0.04065041666666666@pitchwheel channel=0 pitch=0 time=0.04065041666666666@note_off channel=9 note=38 velocity=0 time=0@note_off channel=9 note=37 velocity=0 time=0@note_off channel=0 note=41 velocity=0 time=0.16260166666666664@note_on channel=0 note=42 velocity=127 time=0@note_on channel=9 note=73 velocity=70 time=0@note_off channel=0 note=42 velocity=0 time=0.16260166666666664@note_on channel=0 note=41 velocity=127 time=0@note_off channel=9 note=59 velocity=0 time=0@note_off channel=9 note=73 velocity=0 time=0@note_on channel=9 note=36 velocity=127 time=0@note_on channel=9 note=59 velocity=79 time=0@note_off channel=9 note=36 velocity=0 time=0.16260166666666664@note_off channel=0 note=41 velocity=0 time=0.16260166666666664@note_on channel=0 note=39 velocity=127 time=0@note_on channel=2 note=60 velocity=113 time=0@note_off channel=0 note=39 velocity=0 time=0.16260166666666664@note_on channel=0 note=36 velocity=127 time=0@note_off channel=2 note=60 velocity=0 time=0@pitchwheel channel=2 pitch=-4096 time=0@note_on channel=2 note=63 velocity=113 time=0@note_off channel=9 note=59 velocity=0 time=0@note_on channel=9 note=38 velocity=95 time=0@note_on channel=9 note=37 velocity=95 time=0@note_on channel=9 note=62 velocity=70 time=0@note_on channel=9 note=59 velocity=79 time=0@pitchwheel channel=2 pitch=-2048 time=0.04065041666666666@pitchwheel channel=2 pitch=-820 time=0.04065041666666666@pitchwheel channel=2 pitch=-246 time=0.04065041666666666@pitchwheel channel=2 pitch=0 time=0.04065041666666666@note_off channel=9 note=62 velocity=0 time=0@note_off channel=9 note=37 velocity=0 time=0@note_off channel=9 note=38 velocity=0 time=0@note_off channel=0 note=36 velocity=0 time=0.16260166666666664@note_on channel=0 note=39 velocity=127 time=0@note_off channel=2 note=63 velocity=0 time=0@note_on channel=2 note=60 velocity=113 time=0@note_off channel=0 note=39 velocity=0 time=0.16260166666666664@note_on channel=0 note=36 velocity=127 time=0@note_off channel=2 note=60 velocity=0 time=0@pitchwheel channel=2 pitch=-4096 time=0@note_on channel=2 note=63 velocity=113 time=0@note_on channel=3 note=60 velocity=113 time=0@note_off channel=9 note=59 velocity=0 time=0@note_off channel=9 note=52 velocity=0 time=0@note_off channel=9 note=49 velocity=0 time=0@note_off channel=9 note=57 velocity=0 time=0@note_on channel=9 note=36 velocity=127 time=0@note_on channel=9 note=62 velocity=67 time=0@note_on channel=9 note=59 velocity=79 time=0@pitchwheel channel=2 pitch=-2048 time=0.04065041666666666@pitchwheel channel=2 pitch=-820 time=0.04065041666666666@pitchwheel channel=2 pitch=-246 time=0.04065041666666666@pitchwheel channel=2 pitch=0 time=0.04065041666666666@note_off channel=9 note=62 velocity=0 time=0@note_off channel=9 note=36 velocity=0 time=0@note_off channel=0 note=36 velocity=0 time=0.16260166666666664@note_on channel=0 note=39 velocity=127 time=0@note_off channel=2 note=63 velocity=0 time=0@note_on channel=2 note=60 velocity=113 time=0@note_off channel=0 note=39 velocity=0 time=0.16260166666666664@pitchwheel channel=0 pitch=-4096 time=0@note_on channel=0 note=41 velocity=113 time=0@note_off channel=2 note=60 velocity=0 time=0@note_off channel=3 note=60 velocity=0 time=0@note_on channel=3 note=62 velocity=113 time=0@note_off channel=9 note=59 velocity=0 time=0@note_on channel=9 note=37 velocity=95 time=0@note_on channel=9 note=38 velocity=95 time=0@note_on channel=9 note=59 velocity=79 time=0@pitchwheel channel=0 pitch=-2048 time=0.04065041666666666@pitchwheel channel=0 pitch=-820 time=0.04065041666666666@pitchwheel channel=0 pitch=-246 time=0.04065041666666666@pitchwheel channel=0 pitch=0 time=0.04065041666666666@note_off channel=9 note=38 velocity=0 time=0@note_off channel=9 note=37 velocity=0 time=0@note_off channel=0 note=41 velocity=0 time=0.16260166666666664@note_on channel=0 note=42 velocity=127 time=0@note_on channel=2 note=60 velocity=113 time=0@note_on channel=9 note=73 velocity=70 time=0@note_off channel=0 note=42 velocity=0 time=0.16260166666666664@note_on channel=0 note=41 velocity=127 time=0@note_off channel=2 note=60 velocity=0 time=0@note_off channel=3 note=62 velocity=0 time=0@note_on channel=3 note=63 velocity=113 time=0@note_off channel=9 note=59 velocity=0 time=0@note_off channel=9 note=73 velocity=0 time=0@note_on channel=9 note=36 velocity=127 time=0@note_on channel=9 note=59 velocity=79 time=0@note_off channel=9 note=36 velocity=0 time=0.16260166666666664@note_off channel=0 note=41 velocity=0 time=0.16260166666666664@note_on channel=0 note=39 velocity=127 time=0@note_on channel=2 note=60 velocity=113 time=0@note_off channel=0 note=39 velocity=0 time=0.16260166666666664@note_on channel=0 note=36 velocity=127 time=0@note_off channel=2 note=60 velocity=0 time=0@note_off channel=3 note=63 velocity=0 time=0@note_on channel=3 note=65 velocity=113 time=0@note_off channel=9 note=59 velocity=0 time=0@note_on channel=9 note=38 velocity=95 time=0@note_on channel=9 note=37 velocity=95 time=0@note_on channel=9 note=62 velocity=70 time=0@note_on channel=9 note=59 velocity=79 time=0@note_off channel=9 note=62 velocity=0 time=0.16260166666666664@note_off channel=9 note=37 velocity=0 time=0@note_off channel=9 note=38 velocity=0 time=0@note_off channel=0 note=36 velocity=0 time=0.16260166666666664@note_on channel=0 note=38 velocity=127 time=0@note_on channel=2 note=60 velocity=113 time=0@note_off channel=0 note=38 velocity=0 time=0.16260166666666664@pitchwheel channel=0 pitch=-4096 time=0@note_on channel=0 note=39 velocity=113 time=0@note_off channel=1 note=60 velocity=0 time=0@note_off channel=1 note=55 velocity=0 time=0@note_off channel=2 note=60 velocity=0 time=0@note_off channel=3 note=65 velocity=0 time=0@pitchwheel channel=3 pitch=-4096 time=0@note_on channel=3 note=67 velocity=113 time=0@note_off channel=9 note=59 velocity=0 time=0@note_on channel=9 note=36 velocity=127 time=0@note_on channel=9 note=62 velocity=67 time=0@note_on channel=9 note=59 velocity=79 time=0@pitchwheel channel=0 pitch=-2048 time=0.04065041666666666@pitchwheel channel=3 pitch=-2048 time=0@pitchwheel channel=0 pitch=-820 time=0.04065041666666666@pitchwheel channel=3 pitch=-820 time=0@pitchwheel channel=0 pitch=-246 time=0.04065041666666666@pitchwheel channel=3 pitch=-246 time=0@pitchwheel channel=0 pitch=0 time=0.04065041666666666@pitchwheel channel=3 pitch=0 time=0@note_off channel=9 note=62 velocity=0 time=0@note_off channel=9 note=36 velocity=0 time=0@note_off channel=0 note=39 velocity=0 time=0.16260166666666664@note_on channel=0 note=36 velocity=127 time=0@note_on channel=2 note=60 velocity=113 time=0@note_off channel=3 note=67 velocity=0 time=0@note_on channel=3 note=66 velocity=113 time=0@note_off channel=0 note=36 velocity=0 time=0.16260166666666664@note_on channel=0 note=38 velocity=127 time=0@note_off channel=2 note=60 velocity=0 time=0@note_off channel=3 note=66 velocity=0 time=0@note_off channel=9 note=59 velocity=0 time=0@note_on channel=9 note=37 velocity=95 time=0@note_on channel=9 note=38 velocity=95 time=0@note_on channel=9 note=59 velocity=79 time=0@note_off channel=9 note=38 velocity=0 time=0.16260166666666664@note_off channel=9 note=37 velocity=0 time=0@note_off channel=0 note=38 velocity=0 time=0.16260166666666664@note_on channel=0 note=36 velocity=127 time=0@note_on channel=2 note=60 velocity=113 time=0@note_on channel=3 note=65 velocity=113 time=0@note_on channel=9 note=73 velocity=70 time=0@note_off channel=0 note=36 velocity=0 time=0.16260166666666664@note_on channel=0 note=39 velocity=127 time=0@note_off channel=2 note=60 velocity=0 time=0@note_off channel=3 note=65 velocity=0 time=0@note_off channel=9 note=59 velocity=0 time=0@note_off channel=9 note=73 velocity=0 time=0@note_on channel=9 note=36 velocity=127 time=0@note_on channel=9 note=59 velocity=79 time=0@note_off channel=9 note=36 velocity=0 time=0.16260166666666664@note_off channel=0 note=39 velocity=0 time=0.16260166666666664@note_on channel=0 note=36 velocity=127 time=0@note_on channel=2 note=60 velocity=113 time=0@note_on channel=3 note=63 velocity=113 time=0@note_off channel=0 note=36 velocity=0 time=0.16260166666666664@note_on channel=0 note=38 velocity=127 time=0@note_off channel=2 note=60 velocity=0 time=0@note_off channel=3 note=63 velocity=0 time=0@note_off channel=9 note=59 velocity=0 time=0@note_on channel=9 note=38 velocity=95 time=0@note_on channel=9 note=37 velocity=95 time=0@note_on channel=9 note=62 velocity=70 time=0@note_on channel=9 note=59 velocity=79 time=0@note_off channel=9 note=62 velocity=0 time=0.16260166666666664@note_off channel=9 note=37 velocity=0 time=0@note_off channel=9 note=38 velocity=0 time=0@note_off channel=0 note=38 velocity=0 time=0.16260166666666664@note_on channel=0 note=36 velocity=127 time=0@note_on channel=2 note=60 velocity=113 time=0@note_off channel=0 note=36 velocity=0 time=0.16260166666666664@note_on channel=0 note=39 velocity=127 time=0@note_off channel=2 note=60 velocity=0 time=0@pitchwheel channel=2 pitch=-4096 time=0@note_on channel=2 note=63 velocity=113 time=0@note_off channel=9 note=59 velocity=0 time=0@note_on channel=9 note=36 velocity=127 time=0@note_on channel=9 note=62 velocity=67 time=0@note_on channel=9 note=59 velocity=79 time=0@pitchwheel channel=2 pitch=-2048 time=0.04065041666666666@pitchwheel channel=2 pitch=-820 time=0.04065041666666666@pitchwheel channel=2 pitch=-246 time=0.04065041666666666@pitchwheel channel=2 pitch=0 time=0.04065041666666666@note_off channel=9 note=62 velocity=0 time=0@note_off channel=9 note=36 velocity=0 time=0@note_off channel=0 note=39 velocity=0 time=0.16260166666666664@note_on channel=0 note=36 velocity=127 time=0@note_off channel=2 note=63 velocity=0 time=0@note_on channel=2 note=60 velocity=113 time=0@note_off channel=0 note=36 velocity=0 time=0.16260166666666664@note_on channel=0 note=38 velocity=127 time=0@note_off channel=2 note=60 velocity=0 time=0@pitchwheel channel=2 pitch=-4096 time=0@note_on channel=2 note=63 velocity=113 time=0@note_off channel=9 note=59 velocity=0 time=0@note_on channel=9 note=37 velocity=95 time=0@note_on channel=9 note=38 velocity=95 time=0@note_on channel=9 note=59 velocity=79 time=0@pitchwheel channel=2 pitch=-2048 time=0.04065041666666666@pitchwheel channel=2 pitch=-820 time=0.04065041666666666@pitchwheel channel=2 pitch=-246 time=0.04065041666666666@pitchwheel channel=2 pitch=0 time=0.04065041666666666@note_off channel=9 note=38 velocity=0 time=0@note_off channel=9 note=37 velocity=0 time=0@note_off channel=0 note=38 velocity=0 time=0.16260166666666664@note_on channel=0 note=36 velocity=127 time=0@note_off channel=2 note=63 velocity=0 time=0@note_on channel=2 note=60 velocity=113 time=0@note_on channel=9 note=73 velocity=70 time=0@note_off channel=0 note=36 velocity=0 time=0.16260166666666664@note_on channel=0 note=36 velocity=127 time=0@note_off channel=2 note=60 velocity=0 time=0@note_off channel=9 note=59 velocity=0 time=0@note_off channel=9 note=73 velocity=0 time=0@note_on channel=9 note=36 velocity=127 time=0@note_on channel=9 note=59 velocity=79 time=0@note_off channel=0 note=36 velocity=0 time=0.16260166666666664@note_off channel=9 note=36 velocity=0 time=0@note_on channel=0 note=38 velocity=127 time=0.16260166666666664@note_on channel=2 note=67 velocity=113 time=0@note_off channel=0 note=38 velocity=0 time=0.16260166666666664@note_on channel=0 note=39 velocity=127 time=0@note_off channel=2 note=67 velocity=0 time=0@note_off channel=9 note=59 velocity=0 time=0@note_on channel=9 note=38 velocity=95 time=0@note_on channel=9 note=37 velocity=95 time=0@note_on channel=9 note=62 velocity=70 time=0@note_on channel=9 note=59 velocity=79 time=0@note_off channel=0 note=39 velocity=0 time=0.16260166666666664@note_on channel=0 note=41 velocity=127 time=0@note_off channel=9 note=62 velocity=0 time=0@note_off channel=9 note=37 velocity=0 time=0@note_off channel=9 note=38 velocity=0 time=0@note_on channel=9 note=60 velocity=48 time=0@note_off channel=0 note=41 velocity=0 time=0.16260166666666664@note_on channel=0 note=42 velocity=127 time=0@note_on channel=2 note=66 velocity=113 time=0@note_off channel=9 note=60 velocity=0 time=0@note_on channel=9 note=60 velocity=48 time=0@note_off channel=0 note=42 velocity=0 time=0.16260166666666664@note_on channel=0 note=46 velocity=127 time=0@note_off channel=2 note=66 velocity=0 time=0@pitchwheel channel=2 pitch=-4096 time=0@note_on channel=2 note=65 velocity=113 time=0@note_off channel=9 note=59 velocity=0 time=0@note_off channel=9 note=60 velocity=0 time=0@note_on channel=9 note=36 velocity=127 time=0@note_on channel=9 note=62 velocity=67 time=0@note_on channel=9 note=59 velocity=79 time=0@pitchwheel channel=2 pitch=-2048 time=0.04065041666666666@pitchwheel channel=2 pitch=-820 time=0.04065041666666666@pitchwheel channel=2 pitch=-246 time=0.04065041666666666@pitchwheel channel=2 pitch=0 time=0.04065041666666666@note_off channel=9 note=62 velocity=0 time=0@note_off channel=9 note=36 velocity=0 time=0@note_off channel=0 note=46 velocity=0 time=0.16260166666666664@note_on channel=0 note=36 velocity=127 time=0@note_off channel=2 note=65 velocity=0 time=0@note_on channel=2 note=63 velocity=113 time=0@note_off channel=0 note=36 velocity=0 time=0.16260166666666664@note_on channel=0 note=42 velocity=127 time=0@note_off channel=2 note=63 velocity=0 time=0@note_on channel=2 note=60 velocity=113 time=0@note_off channel=9 note=59 velocity=0 time=0@note_on channel=9 note=37 velocity=95 time=0@note_on channel=9 note=38 velocity=95 time=0@note_on channel=9 note=59 velocity=79 time=0@note_off channel=2 note=60 velocity=0 time=0.16260166666666664@note_off channel=9 note=38 velocity=0 time=0@note_off channel=9 note=37 velocity=0 time=0@note_off channel=0 note=42 velocity=0 time=0.16260166666666664@note_on channel=0 note=36 velocity=127 time=0@note_on channel=3 note=63 velocity=113 time=0@note_on channel=9 note=73 velocity=70 time=0@note_off channel=0 note=36 velocity=0 time=0.16260166666666664@note_on channel=0 note=41 velocity=127 time=0@note_off channel=3 note=63 velocity=0 time=0@pitchwheel channel=3 pitch=-4096 time=0@note_on channel=3 note=65 velocity=113 time=0@note_off channel=9 note=59 velocity=0 time=0@note_off channel=9 note=73 velocity=0 time=0@note_on channel=9 note=36 velocity=127 time=0@note_on channel=9 note=59 velocity=79 time=0@pitchwheel channel=3 pitch=-2048 time=0.04065041666666666@pitchwheel channel=3 pitch=-820 time=0.04065041666666666@pitchwheel channel=3 pitch=-246 time=0.04065041666666666@pitchwheel channel=3 pitch=0 time=0.04065041666666666@note_off channel=9 note=36 velocity=0 time=0@note_off channel=0 note=41 velocity=0 time=0.16260166666666664@note_on channel=0 note=36 velocity=127 time=0@note_on channel=2 note=60 velocity=113 time=0@note_off channel=3 note=65 velocity=0 time=0@note_on channel=3 note=63 velocity=113 time=0@note_off channel=0 note=36 velocity=0 time=0.16260166666666664@note_on channel=0 note=42 velocity=127 time=0@note_off channel=2 note=60 velocity=0 time=0@pitchwheel channel=2 pitch=-4096 time=0@note_on channel=2 note=63 velocity=113 time=0@note_off channel=3 note=63 velocity=0 time=0@note_off channel=9 note=59 velocity=0 time=0@note_on channel=9 note=38 velocity=95 time=0@note_on channel=9 note=37 velocity=95 time=0@note_on channel=9 note=62 velocity=70 time=0@note_on channel=9 note=59 velocity=79 time=0@pitchwheel channel=2 pitch=-2048 time=0.04065041666666666@pitchwheel channel=2 pitch=-820 time=0.04065041666666666@pitchwheel channel=2 pitch=-246 time=0.04065041666666666@pitchwheel channel=2 pitch=0 time=0.04065041666666666@note_off channel=9 note=62 velocity=0 time=0@note_off channel=9 note=37 velocity=0 time=0@note_off channel=9 note=38 velocity=0 time=0@note_off channel=0 note=42 velocity=0 time=0.16260166666666664@note_on channel=0 note=36 velocity=127 time=0@note_off channel=2 note=63 velocity=0 time=0@note_on channel=2 note=65 velocity=113 time=0@note_on channel=9 note=44 velocity=79 time=0@note_off channel=0 note=36 velocity=0 time=0.16260166666666664@note_on channel=0 note=42 velocity=127 time=0@note_off channel=2 note=65 velocity=0 time=0@note_on channel=2 note=63 velocity=113 time=0@note_off channel=9 note=44 velocity=0 time=0@note_off channel=9 note=59 velocity=0 time=0@note_on channel=9 note=36 velocity=127 time=0@note_on channel=9 note=62 velocity=67 time=0@note_on channel=9 note=59 velocity=79 time=0@note_off channel=9 note=62 velocity=0 time=0.16260166666666664@note_off channel=9 note=36 velocity=0 time=0@note_off channel=0 note=42 velocity=0 time=0.16260166666666664@note_on channel=0 note=36 velocity=127 time=0@note_off channel=2 note=63 velocity=0 time=0@note_on channel=2 note=60 velocity=113 time=0@note_on channel=3 note=63 velocity=113 time=0@note_off channel=0 note=36 velocity=0 time=0.16260166666666664@note_on channel=0 note=41 velocity=127 time=0@note_off channel=2 note=60 velocity=0 time=0@note_off channel=3 note=63 velocity=0 time=0@pitchwheel channel=3 pitch=-4096 time=0@note_on channel=3 note=65 velocity=113 time=0@note_off channel=9 note=59 velocity=0 time=0@note_on channel=9 note=37 velocity=95 time=0@note_on channel=9 note=38 velocity=95 time=0@note_on channel=9 note=59 velocity=79 time=0@pitchwheel channel=3 pitch=-2048 time=0.04065041666666666@pitchwheel channel=3 pitch=-820 time=0.04065041666666666@pitchwheel channel=3 pitch=-246 time=0.04065041666666666@pitchwheel channel=3 pitch=0 time=0.04065041666666666@note_off channel=9 note=38 velocity=0 time=0@note_off channel=9 note=37 velocity=0 time=0@note_off channel=0 note=41 velocity=0 time=0.16260166666666664@note_on channel=0 note=36 velocity=127 time=0@note_on channel=2 note=60 velocity=113 time=0@note_off channel=3 note=65 velocity=0 time=0@note_on channel=3 note=63 velocity=113 time=0@note_on channel=9 note=73 velocity=70 time=0@note_off channel=0 note=36 velocity=0 time=0.16260166666666664@note_on channel=0 note=39 velocity=127 time=0@note_off channel=2 note=60 velocity=0 time=0@note_off channel=3 note=63 velocity=0 time=0@note_on channel=3 note=65 velocity=113 time=0@note_off channel=9 note=59 velocity=0 time=0@note_off channel=9 note=73 velocity=0 time=0@note_on channel=9 note=36 velocity=127 time=0@note_on channel=9 note=59 velocity=79 time=0@note_off channel=9 note=36 velocity=0 time=0.16260166666666664@note_off channel=0 note=39 velocity=0 time=0.16260166666666664@note_on channel=0 note=36 velocity=127 time=0@note_on channel=2 note=60 velocity=113 time=0@note_off channel=3 note=65 velocity=0 time=0@note_on channel=3 note=63 velocity=113 time=0@note_off channel=0 note=36 velocity=0 time=0.16260166666666664@note_on channel=0 note=41 velocity=127 time=0@note_off channel=2 note=60 velocity=0 time=0@note_off channel=3 note=63 velocity=0 time=0@note_off channel=9 note=59 velocity=0 time=0@note_on channel=9 note=38 velocity=95 time=0@note_on channel=9 note=37 velocity=95 time=0@note_on channel=9 note=62 velocity=70 time=0@note_on channel=9 note=59 velocity=79 time=0@note_off channel=9 note=62 velocity=0 time=0.16260166666666664@note_off channel=9 note=37 velocity=0 time=0@note_off channel=9 note=38 velocity=0 time=0@note_off channel=0 note=41 velocity=0 time=0.16260166666666664@note_on channel=0 note=36 velocity=127 time=0@note_on channel=2 note=60 velocity=113 time=0@note_on channel=3 note=63 velocity=113 time=0@note_off channel=0 note=36 velocity=0 time=0.16260166666666664@note_on channel=0 note=36 velocity=127 time=0@note_off channel=2 note=60 velocity=0 time=0@note_off channel=3 note=63 velocity=0 time=0@note_on channel=3 note=65 velocity=113 time=0@note_off channel=9 note=59 velocity=0 time=0@note_on channel=9 note=36 velocity=127 time=0@note_on channel=9 note=62 velocity=67 time=0@note_on channel=9 note=59 velocity=79 time=0@note_off channel=3 note=65 velocity=0 time=0.16260166666666664@note_on channel=3 note=63 velocity=113 time=0@note_off channel=9 note=62 velocity=0 time=0@note_off channel=9 note=36 velocity=0 time=0@note_off channel=0 note=36 velocity=0 time=0.16260166666666664@note_on channel=0 note=39 velocity=127 time=0@note_on channel=2 note=60 velocity=113 time=0@note_off channel=3 note=63 velocity=0 time=0@note_on channel=3 note=60 velocity=113 time=0@note_off channel=0 note=39 velocity=0 time=0.16260166666666664@note_on channel=0 note=41 velocity=127 time=0@note_off channel=2 note=60 velocity=0 time=0@note_off channel=3 note=60 velocity=0 time=0@note_on channel=3 note=72 velocity=113 time=0@note_off channel=9 note=59 velocity=0 time=0@note_on channel=9 note=37 velocity=95 time=0@note_on channel=9 note=38 velocity=95 time=0@note_on channel=9 note=59 velocity=79 time=0@note_off channel=3 note=72 velocity=0 time=0.16260166666666664@note_off channel=9 note=38 velocity=0 time=0@note_off channel=9 note=37 velocity=0 time=0@note_off channel=0 note=41 velocity=0 time=0.16260166666666664@note_on channel=0 note=42 velocity=127 time=0@note_on channel=2 note=60 velocity=113 time=0@note_on channel=3 note=72 velocity=113 time=0@note_on channel=9 note=73 velocity=70 time=0@note_off channel=0 note=42 velocity=0 time=0.16260166666666664@note_on channel=0 note=41 velocity=127 time=0@note_off channel=2 note=60 velocity=0 time=0@note_off channel=3 note=72 velocity=0 time=0@note_off channel=9 note=59 velocity=0 time=0@note_off channel=9 note=73 velocity=0 time=0@note_on channel=9 note=36 velocity=127 time=0@note_on channel=9 note=59 velocity=79 time=0@note_on channel=3 note=67 velocity=113 time=0.16260166666666664@note_off channel=9 note=36 velocity=0 time=0@note_off channel=0 note=41 velocity=0 time=0.16260166666666664@note_on channel=0 note=39 velocity=127 time=0@note_on channel=2 note=60 velocity=113 time=0@note_off channel=3 note=67 velocity=0 time=0@note_off channel=0 note=39 velocity=0 time=0.16260166666666664@note_on channel=0 note=36 velocity=127 time=0@note_off channel=2 note=60 velocity=0 time=0@note_on channel=3 note=66 velocity=113 time=0@note_off channel=9 note=59 velocity=0 time=0@note_on channel=9 note=38 velocity=95 time=0@note_on channel=9 note=37 velocity=95 time=0@note_on channel=9 note=62 velocity=70 time=0@note_on channel=9 note=59 velocity=79 time=0@note_off channel=3 note=66 velocity=0 time=0.16260166666666664@note_off channel=9 note=62 velocity=0 time=0@note_off channel=9 note=37 velocity=0 time=0@note_off channel=9 note=38 velocity=0 time=0@note_off channel=0 note=36 velocity=0 time=0.16260166666666664@note_on channel=0 note=39 velocity=127 time=0@note_on channel=2 note=60 velocity=113 time=0@note_on channel=3 note=63 velocity=113 time=0@note_on channel=9 note=44 velocity=81 time=0@note_off channel=0 note=39 velocity=0 time=0.16260166666666664@note_on channel=0 note=36 velocity=127 time=0@note_off channel=2 note=60 velocity=0 time=0@pitchwheel channel=2 pitch=-4096 time=0@note_on channel=2 note=63 velocity=113 time=0@note_off channel=3 note=63 velocity=0 time=0@note_on channel=3 note=65 velocity=113 time=0@note_off channel=9 note=44 velocity=0 time=0@note_off channel=9 note=59 velocity=0 time=0@note_on channel=9 note=36 velocity=127 time=0@note_on channel=9 note=62 velocity=67 time=0@note_on channel=9 note=59 velocity=79 time=0@pitchwheel channel=2 pitch=-2048 time=0.04065041666666666@pitchwheel channel=2 pitch=-820 time=0.04065041666666666@pitchwheel channel=2 pitch=-246 time=0.04065041666666666@pitchwheel channel=2 pitch=0 time=0.04065041666666666@note_off channel=9 note=62 velocity=0 time=0@note_off channel=9 note=36 velocity=0 time=0@note_off channel=0 note=36 velocity=0 time=0.16260166666666664@note_on channel=0 note=39 velocity=127 time=0@note_off channel=2 note=63 velocity=0 time=0@note_on channel=2 note=60 velocity=113 time=0@note_off channel=3 note=65 velocity=0 time=0@note_on channel=3 note=63 velocity=113 time=0@note_off channel=0 note=39 velocity=0 time=0.16260166666666664@note_on channel=0 note=41 velocity=127 time=0@note_off channel=2 note=60 velocity=0 time=0@note_on channel=2 note=63 velocity=113 time=0@note_off channel=3 note=63 velocity=0 time=0@note_on channel=3 note=65 velocity=113 time=0@note_off channel=9 note=59 velocity=0 time=0@note_on channel=9 note=37 velocity=95 time=0@note_on channel=9 note=38 velocity=95 time=0@note_on channel=9 note=59 velocity=79 time=0@note_off channel=9 note=38 velocity=0 time=0.16260166666666664@note_off channel=9 note=37 velocity=0 time=0@note_off channel=0 note=41 velocity=0 time=0.16260166666666664@note_on channel=0 note=43 velocity=127 time=0@note_off channel=2 note=63 velocity=0 time=0@note_on channel=2 note=65 velocity=113 time=0@note_off channel=3 note=65 velocity=0 time=0@note_on channel=3 note=66 velocity=113 time=0@note_on channel=9 note=73 velocity=70 time=0@note_off channel=0 note=43 velocity=0 time=0.16260166666666664@note_on channel=0 note=48 velocity=127 time=0@note_off channel=2 note=65 velocity=0 time=0@pitchwheel channel=2 pitch=-4096 time=0@note_on channel=2 note=66 velocity=113 time=0@note_off channel=3 note=66 velocity=0 time=0@pitchwheel channel=3 pitch=-4096 time=0@note_on channel=3 note=67 velocity=113 time=0@note_off channel=9 note=59 velocity=0 time=0@note_off channel=9 note=73 velocity=0 time=0@note_on channel=9 note=36 velocity=127 time=0@note_on channel=9 note=59 velocity=79 time=0@pitchwheel channel=2 pitch=-2048 time=0.04065041666666666@pitchwheel channel=3 pitch=-2048 time=0@pitchwheel channel=2 pitch=-820 time=0.04065041666666666@pitchwheel channel=3 pitch=-820 time=0@pitchwheel channel=2 pitch=-246 time=0.04065041666666666@pitchwheel channel=3 pitch=-246 time=0@pitchwheel channel=2 pitch=0 time=0.04065041666666666@pitchwheel channel=3 pitch=0 time=0@note_off channel=9 note=36 velocity=0 time=0@note_off channel=0 note=48 velocity=0 time=0.16260166666666664@note_on channel=0 note=43 velocity=113 time=0@note_off channel=2 note=66 velocity=0 time=0@note_on channel=2 note=65 velocity=113 time=0@note_off channel=3 note=67 velocity=0 time=0@note_on channel=3 note=66 velocity=113 time=0@note_off channel=0 note=43 velocity=0 time=0.16260166666666664@note_on channel=0 note=41 velocity=127 time=0@note_off channel=2 note=65 velocity=0 time=0@note_on channel=2 note=63 velocity=113 time=0@note_off channel=3 note=66 velocity=0 time=0@note_on channel=3 note=63 velocity=113 time=0@note_off channel=9 note=59 velocity=0 time=0@note_on channel=9 note=38 velocity=95 time=0@note_on channel=9 note=37 velocity=95 time=0@note_on channel=9 note=62 velocity=70 time=0@note_on channel=9 note=59 velocity=79 time=0@note_on channel=9 note=60 velocity=67 time=0@note_off channel=9 note=60 velocity=0 time=0.16260166666666664@note_off channel=9 note=62 velocity=0 time=0@note_off channel=9 note=37 velocity=0 time=0@note_off channel=9 note=38 velocity=0 time=0@note_on channel=9 note=61 velocity=67 time=0@note_off channel=0 note=41 velocity=0 time=0.16260166666666664@note_on channel=0 note=42 velocity=113 time=0@note_off channel=2 note=63 velocity=0 time=0@note_on channel=2 note=60 velocity=113 time=0@note_off channel=3 note=63 velocity=0 time=0@note_on channel=3 note=60 velocity=113 time=0@note_off channel=9 note=61 velocity=0 time=0@note_on channel=9 note=61 velocity=67 time=0@note_off channel=0 note=42 velocity=0 time=0.16260166666666664@note_on channel=0 note=44 velocity=113 time=0@note_off channel=2 note=60 velocity=0 time=0@pitchwheel channel=2 pitch=-4096 time=0@note_on channel=2 note=72 velocity=113 time=0@note_off channel=3 note=60 velocity=0 time=0@note_off channel=9 note=61 velocity=0 time=0@note_off channel=9 note=59 velocity=0 time=0@note_on channel=9 note=36 velocity=127 time=0@note_on channel=9 note=62 velocity=67 time=0@note_on channel=9 note=59 velocity=79 time=0@pitchwheel channel=2 pitch=-2048 time=0.04065041666666666@pitchwheel channel=2 pitch=-820 time=0.04065041666666666@pitchwheel channel=2 pitch=-246 time=0.04065041666666666@pitchwheel channel=2 pitch=0 time=0.04065041666666666@note_off channel=9 note=62 velocity=0 time=0@note_off channel=9 note=36 velocity=0 time=0@note_off channel=0 note=44 velocity=0 time=0.16260166666666664@note_on channel=0 note=36 velocity=113 time=0@note_off channel=2 note=72 velocity=0 time=0@note_on channel=2 note=67 velocity=113 time=0@note_off channel=0 note=36 velocity=0 time=0.16260166666666664@note_on channel=0 note=39 velocity=113 time=0@note_off channel=2 note=67 velocity=0 time=0@note_on channel=3 note=55 velocity=113 time=0@note_off channel=9 note=59 velocity=0 time=0@note_on channel=9 note=37 velocity=95 time=0@note_on channel=9 note=38 velocity=95 time=0@note_on channel=9 note=59 velocity=79 time=0@note_off channel=3 note=55 velocity=0 time=0.16260166666666664@note_off channel=9 note=38 velocity=0 time=0@note_off channel=9 note=37 velocity=0 time=0@note_off channel=0 note=39 velocity=0 time=0.16260166666666664@note_on channel=0 note=36 velocity=113 time=0@note_on channel=2 note=66 velocity=113 time=0@note_on channel=9 note=73 velocity=70 time=0@note_off channel=0 note=36 velocity=0 time=0.16260166666666664@note_on channel=0 note=38 velocity=113 time=0@note_off channel=2 note=66 velocity=0 time=0@note_on channel=3 note=58 velocity=113 time=0@note_off channel=9 note=59 velocity=0 time=0@note_off channel=9 note=73 velocity=0 time=0@note_on channel=9 note=36 velocity=127 time=0@note_on channel=9 note=59 velocity=79 time=0@note_off channel=3 note=58 velocity=0 time=0.16260166666666664@note_off channel=9 note=36 velocity=0 time=0@note_off channel=0 note=38 velocity=0 time=0.16260166666666664@note_on channel=0 note=36 velocity=113 time=0@note_on channel=2 note=67 velocity=113 time=0@note_on channel=3 note=60 velocity=113 time=0@note_off channel=0 note=36 velocity=0 time=0.16260166666666664@note_on channel=0 note=39 velocity=113 time=0@note_off channel=2 note=67 velocity=0 time=0@note_on channel=2 note=65 velocity=113 time=0@note_off channel=3 note=60 velocity=0 time=0@note_on channel=3 note=58 velocity=113 time=0@note_off channel=9 note=59 velocity=0 time=0@note_on channel=9 note=38 velocity=95 time=0@note_on channel=9 note=37 velocity=95 time=0@note_on channel=9 note=62 velocity=70 time=0@note_on channel=9 note=59 velocity=79 time=0@note_off channel=9 note=62 velocity=0 time=0.16260166666666664@note_off channel=9 note=37 velocity=0 time=0@note_off channel=9 note=38 velocity=0 time=0@note_off channel=0 note=39 velocity=0 time=0.16260166666666664@note_on channel=0 note=36 velocity=113 time=0@note_off channel=2 note=65 velocity=0 time=0@note_on channel=2 note=66 velocity=113 time=0@note_off channel=3 note=58 velocity=0 time=0@note_on channel=3 note=59 velocity=113 time=0@note_off channel=0 note=36 velocity=0 time=0.16260166666666664@note_on channel=0 note=41 velocity=113 time=0@note_off channel=2 note=66 velocity=0 time=0@pitchwheel channel=2 pitch=-4096 time=0@note_on channel=2 note=65 velocity=113 time=0@note_off channel=3 note=59 velocity=0 time=0@note_on channel=3 note=60 velocity=113 time=0@note_off channel=9 note=59 velocity=0 time=0@note_on channel=9 note=36 velocity=127 time=0@note_on channel=9 note=62 velocity=67 time=0@note_on channel=9 note=59 velocity=79 time=0@pitchwheel channel=2 pitch=-2048 time=0.04065041666666666@pitchwheel channel=2 pitch=-820 time=0.04065041666666666@pitchwheel channel=2 pitch=-246 time=0.04065041666666666@pitchwheel channel=2 pitch=0 time=0.04065041666666666@note_off channel=9 note=62 velocity=0 time=0@note_off channel=9 note=36 velocity=0 time=0@note_off channel=0 note=41 velocity=0 time=0.16260166666666664@note_on channel=0 note=36 velocity=113 time=0@note_off channel=2 note=65 velocity=0 time=0@note_on channel=2 note=63 velocity=113 time=0@note_off channel=3 note=60 velocity=0 time=0@note_on channel=3 note=60 velocity=113 time=0@note_off channel=0 note=36 velocity=0 time=0.16260166666666664@note_on channel=0 note=39 velocity=113 time=0@note_off channel=2 note=63 velocity=0 time=0@note_on channel=2 note=60 velocity=113 time=0@note_off channel=3 note=60 velocity=0 time=0@note_off channel=9 note=59 velocity=0 time=0@note_on channel=9 note=37 velocity=95 time=0@note_on channel=9 note=38 velocity=95 time=0@note_on channel=9 note=59 velocity=79 time=0@note_off channel=2 note=60 velocity=0 time=0.16260166666666664@note_off channel=9 note=38 velocity=0 time=0@note_off channel=9 note=37 velocity=0 time=0@note_off channel=0 note=39 velocity=0 time=0.16260166666666664@note_on channel=0 note=36 velocity=113 time=0@note_on channel=3 note=55 velocity=113 time=0@note_on channel=9 note=73 velocity=70 time=0@note_off channel=0 note=36 velocity=0 time=0.16260166666666664@note_on channel=0 note=41 velocity=113 time=0@note_on channel=2 note=60 velocity=113 time=0@note_off channel=3 note=55 velocity=0 time=0@note_on channel=3 note=60 velocity=113 time=0@note_off channel=9 note=59 velocity=0 time=0@note_off channel=9 note=73 velocity=0 time=0@note_on channel=9 note=36 velocity=127 time=0@note_on channel=9 note=59 velocity=79 time=0@note_off channel=2 note=60 velocity=0 time=0.16260166666666664@note_off channel=9 note=36 velocity=0 time=0@note_on channel=9 note=44 velocity=67 time=0@note_on channel=9 note=62 velocity=67 time=0@note_off channel=0 note=41 velocity=0 time=0.16260166666666664@note_on channel=0 note=36 velocity=113 time=0@note_off channel=9 note=62 velocity=0 time=0@note_off channel=9 note=44 velocity=0 time=0@note_off channel=0 note=36 velocity=0 time=0.16260166666666664@note_on channel=0 note=38 velocity=113 time=0@pitchwheel channel=2 pitch=-4096 time=0@note_on channel=2 note=59 velocity=113 time=0@note_off channel=3 note=60 velocity=0 time=0@note_on channel=3 note=59 velocity=113 time=0@note_off channel=9 note=59 velocity=0 time=0@note_on channel=9 note=38 velocity=95 time=0@note_on channel=9 note=37 velocity=95 time=0@note_on channel=9 note=62 velocity=70 time=0@note_on channel=9 note=59 velocity=79 time=0@pitchwheel channel=2 pitch=-2048 time=0.04065041666666666@pitchwheel channel=2 pitch=-820 time=0.04065041666666666@pitchwheel channel=2 pitch=-246 time=0.04065041666666666@pitchwheel channel=2 pitch=0 time=0.04065041666666666@note_off channel=9 note=62 velocity=0 time=0@note_off channel=9 note=37 velocity=0 time=0@note_off channel=9 note=38 velocity=0 time=0@note_off channel=0 note=38 velocity=0 time=0.16260166666666664@note_on channel=0 note=36 velocity=113 time=0@note_off channel=2 note=59 velocity=0 time=0@note_on channel=2 note=55 velocity=113 time=0@note_off channel=3 note=59 velocity=0 time=0@note_on channel=3 note=55 velocity=113 time=0@note_on channel=9 note=42 velocity=67 time=0@note_off channel=0 note=36 velocity=0 time=0.16260166666666664@note_on channel=0 note=48 velocity=113 time=0@note_off channel=2 note=55 velocity=0 time=0@note_on channel=2 note=60 velocity=113 time=0@note_off channel=3 note=55 velocity=0 time=0@note_on channel=4 note=72 velocity=113 time=0@note_off channel=9 note=42 velocity=0 time=0@note_off channel=9 note=59 velocity=0 time=0@note_on channel=9 note=57 velocity=85 time=0@note_on channel=9 note=36 velocity=127 time=0@note_on channel=9 note=51 velocity=99 time=0@note_off channel=9 note=36 velocity=0 time=0.16260166666666664@note_off channel=0 note=48 velocity=0 time=0.16260166666666664@note_on channel=0 note=43 velocity=113 time=0@note_on channel=9 note=44 velocity=127 time=0@note_off channel=0 note=43 velocity=0 time=0.16260166666666664@note_on channel=0 note=48 velocity=113 time=0@note_off channel=9 note=51 velocity=0 time=0@note_off channel=9 note=44 velocity=0 time=0@note_on channel=9 note=38 velocity=98 time=0@note_on channel=9 note=37 velocity=98 time=0@note_on channel=9 note=51 velocity=99 time=0@note_off channel=9 note=37 velocity=0 time=0.16260166666666664@note_off channel=9 note=38 velocity=0 time=0@note_off channel=0 note=48 velocity=0 time=0.16260166666666664@note_on channel=0 note=43 velocity=113 time=0@note_on channel=9 note=44 velocity=127 time=0@note_off channel=0 note=43 velocity=0 time=0.16260166666666664@note_on channel=0 note=46 velocity=113 time=0@note_off channel=4 note=72 velocity=0 time=0@note_on channel=4 note=70 velocity=113 time=0@note_off channel=9 note=51 velocity=0 time=0@note_off channel=9 note=44 velocity=0 time=0@note_on channel=9 note=36 velocity=127 time=0@note_on channel=9 note=51 velocity=99 time=0@note_off channel=9 note=36 velocity=0 time=0.16260166666666664@note_off channel=0 note=46 velocity=0 time=0.16260166666666664@note_on channel=0 note=41 velocity=113 time=0@note_on channel=9 note=44 velocity=127 time=0@note_off channel=0 note=41 velocity=0 time=0.16260166666666664@note_on channel=0 note=46 velocity=113 time=0@note_off channel=9 note=51 velocity=0 time=0@note_off channel=9 note=44 velocity=0 time=0@note_on channel=9 note=38 velocity=98 time=0@note_on channel=9 note=37 velocity=98 time=0@note_on channel=9 note=51 velocity=99 time=0@note_off channel=9 note=37 velocity=0 time=0.16260166666666664@note_off channel=9 note=38 velocity=0 time=0@note_off channel=0 note=46 velocity=0 time=0.16260166666666664@note_on channel=0 note=41 velocity=113 time=0@note_on channel=9 note=44 velocity=99 time=0@note_off channel=0 note=41 velocity=0 time=0.16260166666666664@note_on channel=0 note=44 velocity=113 time=0@note_off channel=4 note=70 velocity=0 time=0@note_on channel=4 note=68 velocity=113 time=0@note_off channel=9 note=44 velocity=0 time=0@note_off channel=9 note=51 velocity=0 time=0@note_off channel=9 note=57 velocity=0 time=0@note_on channel=9 note=36 velocity=127 time=0@note_on channel=9 note=51 velocity=99 time=0@note_off channel=9 note=36 velocity=0 time=0.16260166666666664@note_off channel=0 note=44 velocity=0 time=0.16260166666666664@note_on channel=0 note=39 velocity=113 time=0@note_on channel=9 note=44 velocity=127 time=0@note_off channel=0 note=39 velocity=0 time=0.16260166666666664@note_on channel=0 note=44 velocity=113 time=0@note_off channel=9 note=51 velocity=0 time=0@note_off channel=9 note=44 velocity=0 time=0@note_on channel=9 note=38 velocity=98 time=0@note_on channel=9 note=37 velocity=98 time=0@note_on channel=9 note=51 velocity=99 time=0@note_off channel=9 note=37 velocity=0 time=0.16260166666666664@note_off channel=9 note=38 velocity=0 time=0@note_off channel=0 note=44 velocity=0 time=0.16260166666666664@note_on channel=0 note=39 velocity=113 time=0@note_on channel=9 note=44 velocity=127 time=0@note_off channel=0 note=39 velocity=0 time=0.16260166666666664@note_on channel=0 note=43 velocity=113 time=0@note_off channel=2 note=60 velocity=0 time=0@note_on channel=2 note=55 velocity=113 time=0@note_off channel=4 note=68 velocity=0 time=0@note_on channel=4 note=67 velocity=113 time=0@note_off channel=9 note=51 velocity=0 time=0@note_off channel=9 note=44 velocity=0 time=0@note_on channel=9 note=36 velocity=127 time=0@note_on channel=9 note=51 velocity=99 time=0@note_off channel=9 note=36 velocity=0 time=0.16260166666666664@note_off channel=0 note=43 velocity=0 time=0.16260166666666664@note_on channel=0 note=38 velocity=113 time=0@note_off channel=2 note=55 velocity=0 time=0@note_on channel=2 note=55 velocity=113 time=0@note_off channel=4 note=67 velocity=0 time=0@note_on channel=4 note=65 velocity=113 time=0@note_on channel=9 note=44 velocity=127 time=0@note_off channel=0 note=38 velocity=0 time=0.16260166666666664@note_on channel=0 note=43 velocity=113 time=0@note_off channel=2 note=55 velocity=0 time=0@note_on channel=2 note=62 velocity=113 time=0@note_off channel=4 note=65 velocity=0 time=0@note_on channel=4 note=72 velocity=113 time=0@note_off channel=9 note=51 velocity=0 time=0@note_off channel=9 note=44 velocity=0 time=0@note_on channel=9 note=38 velocity=98 time=0@note_on channel=9 note=37 velocity=98 time=0@note_on channel=9 note=51 velocity=99 time=0@note_off channel=9 note=37 velocity=0 time=0.16260166666666664@note_off channel=9 note=38 velocity=0 time=0@note_off channel=0 note=43 velocity=0 time=0.16260166666666664@note_on channel=0 note=38 velocity=113 time=0@note_off channel=2 note=62 velocity=0 time=0@note_on channel=2 note=60 velocity=113 time=0@note_off channel=4 note=72 velocity=0 time=0@note_on channel=4 note=74 velocity=113 time=0@note_on channel=9 note=44 velocity=99 time=0@note_off channel=0 note=38 velocity=0 time=0.16260166666666664@note_on channel=0 note=41 velocity=113 time=0@note_off channel=2 note=60 velocity=0 time=0@note_on channel=2 note=63 velocity=113 time=0@note_off channel=4 note=74 velocity=0 time=0@note_on channel=4 note=75 velocity=113 time=0@note_off channel=9 note=44 velocity=0 time=0@note_off channel=9 note=51 velocity=0 time=0@note_on channel=9 note=36 velocity=127 time=0@note_on channel=9 note=51 velocity=99 time=0@note_off channel=9 note=36 velocity=0 time=0.16260166666666664@note_off channel=0 note=41 velocity=0 time=0.16260166666666664@note_on channel=0 note=36 velocity=113 time=0@note_on channel=9 note=44 velocity=127 time=0@note_off channel=0 note=36 velocity=0 time=0.16260166666666664@note_on channel=0 note=41 velocity=113 time=0@note_off channel=9 note=51 velocity=0 time=0@note_off channel=9 note=44 velocity=0 time=0@note_on channel=9 note=38 velocity=98 time=0@note_on channel=9 note=37 velocity=98 time=0@note_on channel=9 note=51 velocity=99 time=0@note_off channel=9 note=37 velocity=0 time=0.16260166666666664@note_off channel=9 note=38 velocity=0 time=0@note_off channel=0 note=41 velocity=0 time=0.16260166666666664@note_on channel=0 note=36 velocity=113 time=0@note_on channel=9 note=44 velocity=127 time=0@note_off channel=0 note=36 velocity=0 time=0.16260166666666664@note_on channel=0 note=39 velocity=113 time=0@note_off channel=2 note=63 velocity=0 time=0@note_on channel=2 note=65 velocity=113 time=0@note_off channel=4 note=75 velocity=0 time=0@note_on channel=4 note=77 velocity=113 time=0@note_off channel=9 note=51 velocity=0 time=0@note_off channel=9 note=44 velocity=0 time=0@note_on channel=9 note=36 velocity=127 time=0@note_on channel=9 note=51 velocity=99 time=0@note_off channel=9 note=36 velocity=0 time=0.16260166666666664@note_off channel=0 note=39 velocity=0 time=0.16260166666666664@note_on channel=0 note=36 velocity=113 time=0@note_on channel=9 note=44 velocity=127 time=0@note_off channel=0 note=36 velocity=0 time=0.16260166666666664@note_on channel=0 note=39 velocity=113 time=0@note_off channel=2 note=65 velocity=0 time=0@note_on channel=2 note=63 velocity=113 time=0@note_off channel=4 note=77 velocity=0 time=0@note_on channel=4 note=75 velocity=113 time=0@note_off channel=9 note=51 velocity=0 time=0@note_off channel=9 note=44 velocity=0 time=0@note_on channel=9 note=38 velocity=98 time=0@note_on channel=9 note=37 velocity=98 time=0@note_on channel=9 note=51 velocity=99 time=0@note_off channel=9 note=37 velocity=0 time=0.16260166666666664@note_off channel=9 note=38 velocity=0 time=0@note_off channel=0 note=39 velocity=0 time=0.16260166666666664@note_on channel=0 note=36 velocity=113 time=0@note_on channel=9 note=44 velocity=99 time=0@note_off channel=0 note=36 velocity=0 time=0.16260166666666664@note_on channel=0 note=38 velocity=113 time=0@note_off channel=2 note=63 velocity=0 time=0@note_on channel=2 note=68 velocity=113 time=0@note_off channel=4 note=75 velocity=0 time=0@note_on channel=4 note=80 velocity=113 time=0@note_off channel=9 note=44 velocity=0 time=0@note_off channel=9 note=51 velocity=0 time=0@note_on channel=9 note=55 velocity=99 time=0@note_on channel=9 note=36 velocity=127 time=0@note_off channel=2 note=68 velocity=0 time=0.16260166666666664@note_off channel=4 note=80 velocity=0 time=0@note_off channel=9 note=36 velocity=0 time=0@note_on channel=2 note=68 velocity=113 time=0.16260166666666664@note_on channel=4 note=80 velocity=113 time=0@note_on channel=9 note=36 velocity=127 time=0@note_off channel=2 note=68 velocity=0 time=0.16260166666666664@note_off channel=4 note=80 velocity=0 time=0@note_off channel=9 note=36 velocity=0 time=0@note_on channel=9 note=38 velocity=107 time=0@note_on channel=2 note=68 velocity=113 time=0.16260166666666664@note_on channel=4 note=80 velocity=113 time=0@note_off channel=9 note=38 velocity=0 time=0@note_on channel=9 note=61 velocity=80 time=0@note_on channel=9 note=47 velocity=81 time=0@note_off channel=2 note=68 velocity=0 time=0.16260166666666664@note_on channel=2 note=67 velocity=113 time=0@note_off channel=4 note=80 velocity=0 time=0@note_on channel=4 note=79 velocity=113 time=0@note_off channel=9 note=47 velocity=0 time=0@note_off channel=9 note=61 velocity=0 time=0@control_change channel=2 control=7 value=100 time=0.08130083333333332@note_on channel=9 note=36 velocity=80 time=0@note_off channel=0 note=38 velocity=0 time=0.08130083333333332@note_on channel=0 note=43 velocity=113 time=0@note_off channel=2 note=67 velocity=0 time=0@note_on channel=2 note=65 velocity=113 time=0@note_off channel=4 note=79 velocity=0 time=0@note_on channel=4 note=77 velocity=113 time=0@note_off channel=9 note=36 velocity=0 time=0@note_off channel=9 note=55 velocity=0 time=0@note_on channel=9 note=57 velocity=80 time=0@note_on channel=9 note=38 velocity=99 time=0@note_off channel=2 note=65 velocity=0 time=0.16260166666666664@note_off channel=4 note=77 velocity=0 time=0@note_off channel=9 note=38 velocity=0 time=0@note_on channel=9 note=38 velocity=64 time=0@note_on channel=2 note=65 velocity=113 time=0.16260166666666664@note_on channel=4 note=77 velocity=113 time=0@note_off channel=9 note=38 velocity=0 time=0@note_on channel=9 note=36 velocity=99 time=0@note_off channel=2 note=65 velocity=0 time=0.16260166666666664@control_change channel=2 control=7 value=100 time=0@note_off channel=4 note=77 velocity=0 time=0@note_off channel=9 note=36 velocity=0 time=0@note_on channel=9 note=38 velocity=99 time=0@note_off channel=9 note=38 velocity=0 time=0.16260166666666664@note_on channel=9 note=45 velocity=81 time=0@note_on channel=2 note=72 velocity=113 time=0.16260166666666664@control_change channel=4 control=7 value=100 time=0@note_on channel=4 note=77 velocity=113 time=0@note_off channel=9 note=45 velocity=0 time=0@note_on channel=9 note=43 velocity=81 time=0@note_off channel=2 note=72 velocity=0 time=0.08130083333333332@note_on channel=2 note=67 velocity=113 time=0@note_off channel=4 note=77 velocity=0 time=0@note_on channel=4 note=75 velocity=113 time=0@note_off channel=0 note=43 velocity=0 time=0.08130083333333332@note_off channel=2 note=67 velocity=0 time=0@note_on channel=2 note=60 velocity=113 time=0@note_off channel=4 note=75 velocity=0 time=0@note_on channel=4 note=72 velocity=113 time=0@note_off channel=9 note=43 velocity=0 time=0@note_off channel=9 note=57 velocity=0 time=0@note_on channel=9 note=46 velocity=98 time=0@note_off channel=9 note=46 velocity=0 time=0.3252033333333333@note_on channel=9 note=44 velocity=98 time=0@note_on channel=9 note=62 velocity=53 time=0@note_off channel=9 note=62 velocity=0 time=0.16260166666666664@note_off channel=9 note=44 velocity=0 time=0@note_on channel=9 note=44 velocity=127 time=0@note_on channel=9 note=42 velocity=70 time=0@note_off channel=9 note=42 velocity=0 time=0.16260166666666664@note_off channel=9 note=44 velocity=0 time=0@note_on channel=9 note=44 velocity=127 time=0.16260166666666664@note_on channel=9 note=42 velocity=70 time=0@note_off channel=9 note=42 velocity=0 time=0.16260166666666664@note_off channel=9 note=44 velocity=0 time=0@note_on channel=9 note=46 velocity=98 time=0@note_off channel=9 note=46 velocity=0 time=0.3252033333333333@note_on channel=9 note=44 velocity=94 time=0@note_on channel=9 note=62 velocity=53 time=0@note_off channel=9 note=62 velocity=0 time=0.16260166666666664@note_off channel=9 note=44 velocity=0 time=0@note_on channel=9 note=44 velocity=127 time=0@note_on channel=9 note=42 velocity=70 time=0@note_off channel=9 note=42 velocity=0 time=0.16260166666666664@note_off channel=9 note=44 velocity=0 time=0@note_on channel=9 note=44 velocity=127 time=0.16260166666666664@note_on channel=9 note=42 velocity=70 time=0@control_change channel=2 control=7 value=99 time=0.14329271875@control_change channel=2 control=7 value=100 time=0.010162604166666665@control_change channel=4 control=7 value=99 time=0.006605692708333333@note_off channel=9 note=42 velocity=0 time=0.0025406510416666663@note_off channel=9 note=44 velocity=0 time=0@note_on channel=9 note=51 velocity=70 time=0@note_on channel=9 note=46 velocity=70 time=0@control_change channel=4 control=7 value=98 time=0.0025406510416666663@control_change channel=2 control=7 value=99 time=0.008130083333333333@control_change channel=4 control=7 value=97 time=0.02743903125@control_change channel=2 control=7 value=98 time=0.018292687499999998@control_change channel=4 control=7 value=96 time=0.011686994791666665@control_change channel=2 control=7 value=97 time=0.028455291666666667@control_change channel=4 control=7 value=95 time=0.007113822916666667@control_change channel=4 control=7 value=94 time=0.03556911458333333@control_change channel=2 control=7 value=96 time=0.00304878125@control_change channel=4 control=7 value=93 time=0.032012203125@control_change channel=2 control=7 value=95 time=0.013211385416666666@control_change channel=4 control=7 value=92 time=0.017276427083333334@control_change channel=2 control=7 value=94 time=0.028455291666666667@control_change channel=4 control=7 value=91 time=0.006605692708333333@control_change channel=2 control=7 value=93 time=0.033536593749999996@control_change channel=4 control=7 value=90 time=0.0020325208333333332@control_change channel=4 control=7 value=89 time=0.0304878125@control_change channel=2 control=7 value=92 time=0.013211385416666666@note_off channel=9 note=46 velocity=0 time=0.0060975625@note_on channel=9 note=44 velocity=98 time=0@note_on channel=9 note=62 velocity=53 time=0@control_change channel=4 control=7 value=88 time=0.015752036458333334@control_change channel=2 control=7 value=91 time=0.02337398958333333@control_change channel=4 control=7 value=87 time=0.012195125@control_change channel=2 control=7 value=90 time=0.028455291666666667@control_change channel=4 control=7 value=86 time=0.0020325208333333332@control_change channel=4 control=7 value=85 time=0.035060984375@control_change channel=2 control=7 value=89 time=0.008130083333333333@control_change channel=4 control=7 value=84 time=0.02743903125@note_off channel=9 note=62 velocity=0 time=0.010162604166666665@note_off channel=9 note=44 velocity=0 time=0@note_off channel=9 note=51 velocity=0 time=0@note_on channel=9 note=44 velocity=127 time=0@note_on channel=9 note=42 velocity=66 time=0@control_change channel=2 control=7 value=88 time=0.008130083333333333@control_change channel=4 control=7 value=83 time=0.016768296874999998@control_change channel=2 control=7 value=87 time=0.028455291666666667@control_change channel=4 control=7 value=82 time=0.0020325208333333332@control_change channel=4 control=7 value=81 time=0.03556911458333333@control_change channel=2 control=7 value=86 time=0.00304878125@control_change channel=4 control=7 value=80 time=0.032012203125@control_change channel=2 control=7 value=85 time=0.013211385416666666@control_change channel=4 control=7 value=79 time=0.017276427083333334@note_off channel=9 note=42 velocity=0 time=0.0060975625@note_off channel=9 note=44 velocity=0 time=0@control_change channel=2 control=7 value=84 time=0.022357729166666666@control_change channel=4 control=7 value=78 time=0.006605692708333333@control_change channel=4 control=7 value=77 time=0.03556911458333333@control_change channel=2 control=7 value=83 time=0.00304878125@control_change channel=4 control=7 value=76 time=0.02743903125@control_change channel=2 control=7 value=82 time=0.013211385416666666@control_change channel=4 control=7 value=75 time=0.02184959895833333@control_change channel=2 control=7 value=81 time=0.02337398958333333@note_on channel=9 note=44 velocity=127 time=0.009146343749999999@note_on channel=9 note=42 velocity=66 time=0@control_change channel=4 control=7 value=74 time=0.00304878125@control_change channel=2 control=7 value=80 time=0.033536593749999996@control_change channel=4 control=7 value=73 time=0.001524390625@control_change channel=4 control=7 value=72 time=0.0304878125@control_change channel=2 control=7 value=79 time=0.013211385416666666@control_change channel=2 control=7 value=80 time=0.02032520833333333@control_change channel=4 control=7 value=71 time=0.0020325208333333332@control_change channel=2 control=7 value=79 time=0.00304878125@control_change channel=2 control=7 value=78 time=0.02032520833333333@control_change channel=4 control=7 value=70 time=0.011686994791666665@control_change channel=2 control=7 value=77 time=0.008130083333333333@control_change channel=4 control=7 value=69 time=0.012195125@note_off channel=9 note=42 velocity=0 time=0.00304878125@note_off channel=9 note=44 velocity=0 time=0@note_on channel=9 note=46 velocity=92 time=0@note_on channel=9 note=51 velocity=69 time=0@note_on channel=9 note=59 velocity=86 time=0@control_change channel=2 control=7 value=76 time=0.005081302083333333@control_change channel=4 control=7 value=68 time=0.012195125@control_change channel=2 control=7 value=75 time=0.008130083333333333@control_change channel=4 control=7 value=67 time=0.012195125@control_change channel=2 control=7 value=74 time=0.008130083333333333@control_change channel=4 control=7 value=66 time=0.011686994791666665@control_change channel=2 control=7 value=73 time=0.008638213541666667@control_change channel=4 control=7 value=65 time=0.016768296874999998@control_change channel=2 control=7 value=72 time=0.008130083333333333@control_change channel=4 control=7 value=64 time=0.012195125@control_change channel=2 control=7 value=71 time=0.008130083333333333@control_change channel=4 control=7 value=63 time=0.012195125@control_change channel=2 control=7 value=70 time=0.008130083333333333@control_change channel=4 control=7 value=62 time=0.011686994791666665@control_change channel=2 control=7 value=69 time=0.008638213541666667@control_change channel=4 control=7 value=61 time=0.011686994791666665@control_change channel=2 control=7 value=68 time=0.008130083333333333@control_change channel=4 control=7 value=60 time=0.012195125@control_change channel=2 control=7 value=67 time=0.008130083333333333@control_change channel=4 control=7 value=59 time=0.017276427083333334@control_change channel=2 control=7 value=66 time=0.008130083333333333@control_change channel=4 control=7 value=58 time=0.011686994791666665@control_change channel=2 control=7 value=65 time=0.008638213541666667@control_change channel=4 control=7 value=57 time=0.011686994791666665@control_change channel=2 control=7 value=64 time=0.008130083333333333@control_change channel=4 control=7 value=56 time=0.012195125@control_change channel=2 control=7 value=63 time=0.008130083333333333@control_change channel=4 control=7 value=55 time=0.012195125@control_change channel=2 control=7 value=62 time=0.008130083333333333@control_change channel=4 control=7 value=54 time=0.011686994791666665@control_change channel=2 control=7 value=61 time=0.008638213541666667@note_off channel=9 note=46 velocity=0 time=0.006605692708333333@note_on channel=9 note=44 velocity=92 time=0@note_on channel=9 note=62 velocity=53 time=0@control_change channel=4 control=7 value=53 time=0.010162604166666665@control_change channel=2 control=7 value=60 time=0.00304878125@control_change channel=4 control=7 value=52 time=0.017276427083333334@control_change channel=2 control=7 value=59 time=0.008130083333333333@control_change channel=4 control=7 value=51 time=0.012195125@control_change channel=2 control=7 value=58 time=0.008130083333333333@control_change channel=4 control=7 value=50 time=0.011686994791666665@control_change channel=2 control=7 value=57 time=0.008638213541666667@control_change channel=4 control=7 value=49 time=0.011686994791666665@control_change channel=2 control=7 value=56 time=0.008130083333333333@control_change channel=4 control=7 value=48 time=0.012195125@control_change channel=2 control=7 value=55 time=0.008130083333333333@control_change channel=4 control=7 value=47 time=0.017276427083333334@control_change channel=2 control=7 value=54 time=0.00304878125@control_change channel=4 control=7 value=46 time=0.016768296874999998@note_off channel=9 note=62 velocity=0 time=0.0060975625@note_off channel=9 note=59 velocity=0 time=0@note_off channel=9 note=51 velocity=0 time=0@note_off channel=9 note=44 velocity=0 time=0@note_on channel=9 note=44 velocity=127 time=0@note_on channel=9 note=42 velocity=69 time=0@control_change channel=2 control=7 value=53 time=0.0025406510416666663@control_change channel=4 control=7 value=45 time=0.011686994791666665@control_change channel=2 control=7 value=52 time=0.008130083333333333@control_change channel=4 control=7 value=44 time=0.012195125@control_change channel=2 control=7 value=51 time=0.008130083333333333@control_change channel=2 control=7 value=50 time=0.010162604166666665@control_change channel=4 control=7 value=43 time=0.0020325208333333332@control_change channel=2 control=7 value=49 time=0.008130083333333333@control_change channel=2 control=7 value=48 time=0.005081302083333333@control_change channel=4 control=7 value=42 time=0.007113822916666667@control_change channel=2 control=7 value=47 time=0.00304878125@control_change channel=4 control=7 value=41 time=0.006605692708333333@control_change channel=2 control=7 value=46 time=0.0035569114583333334@control_change channel=4 control=7 value=40 time=0.006605692708333333@control_change channel=2 control=7 value=45 time=0.0035569114583333334@control_change channel=4 control=7 value=39 time=0.006605692708333333@control_change channel=2 control=7 value=44 time=0.00304878125@control_change channel=2 control=7 value=43 time=0.005081302083333333@control_change channel=4 control=7 value=38 time=0.0020325208333333332@control_change channel=2 control=7 value=42 time=0.008130083333333333@control_change channel=4 control=7 value=37 time=0.007113822916666667@control_change channel=2 control=7 value=41 time=0.00304878125@control_change channel=4 control=7 value=36 time=0.007113822916666667@control_change channel=2 control=7 value=40 time=0.00304878125@control_change channel=4 control=7 value=35 time=0.007113822916666667@control_change channel=2 control=7 value=39 time=0.00304878125@control_change channel=4 control=7 value=34 time=0.007113822916666667@note_off channel=9 note=42 velocity=0 time=0.001524390625@note_off channel=9 note=44 velocity=0 time=0@control_change channel=2 control=7 value=38 time=0.001524390625@control_change channel=2 control=7 value=37 time=0.005081302083333333@control_change channel=4 control=7 value=33 time=0.001524390625@control_change channel=2 control=7 value=36 time=0.008638213541666667@control_change channel=4 control=7 value=32 time=0.001524390625@control_change channel=2 control=7 value=35 time=0.008130083333333333@control_change channel=4 control=7 value=31 time=0.0020325208333333332@control_change channel=2 control=7 value=34 time=0.008130083333333333@control_change channel=4 control=7 value=30 time=0.0020325208333333332@control_change channel=2 control=7 value=33 time=0.008130083333333333@control_change channel=2 control=7 value=32 time=0.005081302083333333@control_change channel=4 control=7 value=29 time=0.0020325208333333332@control_change channel=2 control=7 value=31 time=0.008130083333333333@control_change channel=4 control=7 value=28 time=0.0020325208333333332@control_change channel=2 control=7 value=30 time=0.008130083333333333@control_change channel=4 control=7 value=27 time=0.0020325208333333332@control_change channel=2 control=7 value=29 time=0.008130083333333333@control_change channel=4 control=7 value=26 time=0.0020325208333333332@control_change channel=2 control=7 value=28 time=0.008130083333333333@control_change channel=4 control=7 value=25 time=0.001524390625@control_change channel=2 control=7 value=27 time=0.008638213541666667@control_change channel=4 control=7 value=24 time=0.001524390625@control_change channel=2 control=7 value=26 time=0.0035569114583333334@control_change channel=4 control=7 value=23 time=0.006605692708333333@control_change channel=2 control=7 value=25 time=0.00304878125@control_change channel=4 control=7 value=22 time=0.007113822916666667@control_change channel=2 control=7 value=24 time=0.00304878125@control_change channel=2 control=7 value=23 time=0.010162604166666665@control_change channel=4 control=7 value=21 time=0.0020325208333333332@control_change channel=2 control=7 value=22 time=0.008130083333333333@control_change channel=4 control=7 value=20 time=0.0020325208333333332@control_change channel=2 control=7 value=21 time=0.00304878125@control_change channel=4 control=7 value=19 time=0.007113822916666667@note_on channel=9 note=44 velocity=127 time=0.0025406510416666663@note_on channel=9 note=42 velocity=69 time=0@control_change channel=2 control=7 value=20 time=0.0005081302083333333@control_change channel=4 control=7 value=18 time=0.007113822916666667@control_change channel=2 control=7 value=19 time=0.00304878125@control_change channel=4 control=7 value=17 time=0.006605692708333333@control_change channel=2 control=7 value=18 time=0.0035569114583333334@control_change channel=4 control=7 value=16 time=0.006605692708333333@control_change channel=2 control=7 value=17 time=0.0035569114583333334@control_change channel=4 control=7 value=15 time=0.006605692708333333@control_change channel=2 control=7 value=16 time=0.00304878125@control_change channel=2 control=7 value=15 time=0.005081302083333333@control_change channel=4 control=7 value=14 time=0.0020325208333333332@control_change channel=2 control=7 value=14 time=0.008130083333333333@control_change channel=4 control=7 value=13 time=0.007113822916666667@control_change channel=2 control=7 value=13 time=0.00304878125@control_change channel=4 control=7 value=12 time=0.007113822916666667@control_change channel=2 control=7 value=12 time=0.00304878125@control_change channel=4 control=7 value=11 time=0.007113822916666667@control_change channel=2 control=7 value=11 time=0.00304878125@control_change channel=2 control=7 value=10 time=0.005081302083333333@control_change channel=4 control=7 value=10 time=0.0020325208333333332@control_change channel=2 control=7 value=9 time=0.008130083333333333@control_change channel=4 control=7 value=9 time=0.001524390625@control_change channel=2 control=7 value=8 time=0.008638213541666667@control_change channel=4 control=7 value=8 time=0.001524390625@control_change channel=2 control=7 value=7 time=0.008638213541666667@control_change channel=4 control=7 value=7 time=0.001524390625@control_change channel=2 control=7 value=6 time=0.008130083333333333@control_change channel=4 control=7 value=6 time=0.0020325208333333332@control_change channel=2 control=7 value=5 time=0.008130083333333333@control_change channel=2 control=7 value=4 time=0.005081302083333333@control_change channel=4 control=7 value=5 time=0.0020325208333333332@control_change channel=2 control=7 value=3 time=0.008130083333333333@control_change channel=4 control=7 value=4 time=0.0020325208333333332@note_off channel=2 note=60 velocity=0 time=0.0035569114583333334@note_off channel=4 note=72 velocity=0 time=0@note_off channel=9 note=42 velocity=0 time=0@note_off channel=9 note=44 velocity=0 time=0@control_change channel=2 control=7 value=2 time=0.0045731718749999995@control_change channel=4 control=7 value=3 time=0.0020325208333333332@control_change channel=2 control=7 value=1 time=0.008130083333333333@control_change channel=4 control=7 value=4 time=0.0020325208333333332@control_change channel=2 control=7 value=45 time=0.008130083333333333@control_change channel=4 control=7 value=3 time=0.03709350520833333@control_change channel=4 control=7 value=2 time=0.16666670833333333@control_change channel=4 control=7 value=1 time=0.16666670833333333@control_change channel=4 control=7 value=0 time=0.16158540624999998@control_change channel=4 control=7 value=100 time=0.08079270312499999@control_change channel=2 control=7 value=44 time=0.5995936458333333@control_change channel=2 control=7 value=43 time=0.0304878125@control_change channel=2 control=7 value=42 time=0.029979682291666664@control_change channel=2 control=7 value=41 time=0.0304878125@control_change channel=2 control=7 value=40 time=0.029979682291666664@control_change channel=2 control=7 value=39 time=0.0304878125@control_change channel=2 control=7 value=38 time=0.025406510416666667@control_change channel=2 control=7 value=37 time=0.029979682291666664@control_change channel=2 control=7 value=36 time=0.0304878125@control_change channel=2 control=7 value=35 time=0.0304878125@control_change channel=2 control=7 value=34 time=0.029979682291666664@control_change channel=2 control=7 value=33 time=0.0304878125@control_change channel=2 control=7 value=32 time=0.0304878125@control_change channel=2 control=7 value=31 time=0.029979682291666664@control_change channel=2 control=7 value=30 time=0.0304878125@control_change channel=2 control=7 value=29 time=0.0304878125@control_change channel=2 control=7 value=28 time=0.029979682291666664@control_change channel=2 control=7 value=27 time=0.01524390625@control_change channel=2 control=7 value=26 time=0.005081302083333333@control_change channel=2 control=7 value=25 time=0.01524390625@control_change channel=2 control=7 value=24 time=0.02032520833333333@control_change channel=2 control=7 value=23 time=0.01524390625@control_change channel=2 control=7 value=22 time=0.014735776041666666@control_change channel=2 control=7 value=21 time=0.02032520833333333@control_change channel=2 control=7 value=20 time=0.01524390625@control_change channel=2 control=7 value=19 time=0.02032520833333333@control_change channel=2 control=7 value=18 time=0.01524390625@control_change channel=2 control=7 value=17 time=0.019817078125@control_change channel=2 control=7 value=16 time=0.01524390625@control_change channel=2 control=7 value=15 time=0.02032520833333333@control_change channel=2 control=7 value=14 time=0.01524390625@control_change channel=2 control=7 value=13 time=0.02032520833333333@control_change channel=2 control=7 value=12 time=0.014735776041666666@control_change channel=2 control=7 value=11 time=0.02032520833333333@control_change channel=2 control=7 value=10 time=0.01524390625@control_change channel=2 control=7 value=9 time=0.02032520833333333@control_change channel=2 control=7 value=8 time=0.01524390625@control_change channel=2 control=7 value=7 time=0.014735776041666666@control_change channel=2 control=7 value=6 time=0.02032520833333333@control_change channel=2 control=7 value=5 time=0.01524390625@control_change channel=2 control=7 value=4 time=0.02032520833333333@control_change channel=2 control=7 value=3 time=0.01524390625@control_change channel=2 control=7 value=2 time=0.019817078125@control_change channel=2 control=7 value=1 time=0.01524390625@control_change channel=2 control=7 value=0 time=0.02032520833333333@control_change channel=2 control=7 value=44 time=0.9949189479166666@control_change channel=2 control=7 value=43 time=0.0304878125@control_change channel=2 control=7 value=42 time=0.0304878125@control_change channel=2 control=7 value=41 time=0.029979682291666664@control_change channel=2 control=7 value=40 time=0.0304878125@control_change channel=2 control=7 value=39 time=0.0304878125@control_change channel=2 control=7 value=38 time=0.02489838020833333@control_change channel=2 control=7 value=37 time=0.0304878125@control_change channel=2 control=7 value=36 time=0.0304878125@control_change channel=2 control=7 value=35 time=0.033028463541666664@control_change channel=2 control=7 value=34 time=0.029979682291666664@control_change channel=2 control=7 value=33 time=0.0304878125@control_change channel=2 control=7 value=32 time=0.0304878125@control_change channel=2 control=7 value=31 time=0.029979682291666664@control_change channel=2 control=7 value=30 time=0.0304878125@control_change channel=2 control=7 value=29 time=0.0304878125@control_change channel=2 control=7 value=28 time=0.029979682291666664@control_change channel=2 control=7 value=27 time=0.01524390625@control_change channel=2 control=7 value=26 time=0.005081302083333333@control_change channel=2 control=7 value=25 time=0.01524390625@control_change channel=2 control=7 value=24 time=0.02032520833333333@control_change channel=2 control=7 value=23 time=0.014735776041666666@control_change channel=2 control=7 value=22 time=0.01524390625@control_change channel=2 control=7 value=21 time=0.02032520833333333@control_change channel=2 control=7 value=20 time=0.01524390625@control_change channel=2 control=7 value=19 time=0.02032520833333333@control_change channel=2 control=7 value=18 time=0.014735776041666666@control_change channel=2 control=7 value=17 time=0.02032520833333333@control_change channel=2 control=7 value=16 time=0.01524390625@control_change channel=2 control=7 value=15 time=0.02032520833333333@control_change channel=2 control=7 value=14 time=0.01524390625@control_change channel=2 control=7 value=14 time=0.005081302083333333@<meta message end_of_track time=0>@