<meta message time_signature numerator=4 denominator=4 clocks_per_click=24 notated_32nd_notes_per_beat=8 time=0>@<meta message key_signature key='Bb' time=0>@<meta message set_tempo tempo=800000 time=0>@control_change channel=0 control=121 value=0 time=0@program_change channel=0 program=19 time=0@control_change channel=0 control=7 value=100 time=0@control_change channel=0 control=10 value=64 time=0@control_change channel=0 control=91 value=0 time=0@control_change channel=0 control=93 value=0 time=0@<meta message midi_port port=0 time=0>@note_on channel=0 note=67 velocity=80 time=0@<meta message key_signature key='Bb' time=0>@<meta message midi_port port=0 time=0>@<meta message key_signature key='Bb' time=0>@<meta message midi_port port=0 time=0>@note_on channel=0 note=67 velocity=0 time=0.7983333333333332@note_on channel=0 note=74 velocity=80 time=0.0016666666666666666@note_on channel=0 note=74 velocity=0 time=0.7983333333333332@note_on channel=0 note=70 velocity=80 time=0.0016666666666666666@note_on channel=0 note=70 velocity=0 time=1.1983333333333333@note_on channel=0 note=69 velocity=80 time=0.0016666666666666666@note_on channel=0 note=69 velocity=0 time=0.3983333333333333@note_on channel=0 note=67 velocity=80 time=0.0016666666666666666@note_on channel=0 note=67 velocity=0 time=0.3983333333333333@note_on channel=0 note=70 velocity=80 time=0.0016666666666666666@note_on channel=0 note=70 velocity=0 time=0.3983333333333333@note_on channel=0 note=69 velocity=80 time=0.0016666666666666666@note_on channel=0 note=69 velocity=0 time=0.3983333333333333@note_on channel=0 note=67 velocity=80 time=0.0016666666666666666@note_on channel=0 note=67 velocity=0 time=0.3983333333333333@note_on channel=0 note=66 velocity=80 time=0.0016666666666666666@note_on channel=0 note=66 velocity=0 time=0.3983333333333333@note_on channel=0 note=69 velocity=80 time=0.0016666666666666666@note_on channel=0 note=69 velocity=0 time=0.3983333333333333@note_on channel=0 note=62 velocity=80 time=0.0016666666666666666@note_on channel=0 note=62 velocity=0 time=0.7983333333333332@note_on channel=0 note=67 velocity=80 time=0.0016666666666666666@note_on channel=0 note=67 velocity=0 time=0.3983333333333333@note_on channel=0 note=62 velocity=80 time=0.0016666666666666666@note_on channel=0 note=62 velocity=0 time=0.3983333333333333@note_on channel=0 note=69 velocity=80 time=0.0016666666666666666@note_on channel=0 note=69 velocity=0 time=0.3983333333333333@note_on channel=0 note=62 velocity=80 time=0.0016666666666666666@note_on channel=0 note=62 velocity=0 time=0.3983333333333333@note_on channel=0 note=70 velocity=80 time=0.0016666666666666666@note_on channel=0 note=70 velocity=0 time=0.3983333333333333@note_on channel=0 note=69 velocity=80 time=0.0016666666666666666@note_on channel=0 note=69 velocity=0 time=0.19833333333333333@note_on channel=0 note=67 velocity=80 time=0.0016666666666666666@note_on channel=0 note=67 velocity=0 time=0.19833333333333333@note_on channel=0 note=69 velocity=80 time=0.0016666666666666666@note_on channel=0 note=69 velocity=0 time=0.3983333333333333@note_on channel=0 note=62 velocity=80 time=0.0016666666666666666@note_on channel=0 note=62 velocity=0 time=0.3983333333333333@note_on channel=0 note=67 velocity=80 time=0.0016666666666666666@note_on channel=0 note=67 velocity=0 time=0.3983333333333333@note_on channel=0 note=62 velocity=80 time=0.0016666666666666666@note_on channel=0 note=62 velocity=0 time=0.19833333333333333@note_on channel=0 note=67 velocity=80 time=0.0016666666666666666@note_on channel=0 note=67 velocity=0 time=0.19833333333333333@note_on channel=0 note=69 velocity=80 time=0.0016666666666666666@note_on channel=0 note=69 velocity=0 time=0.3983333333333333@note_on channel=0 note=62 velocity=80 time=0.0016666666666666666@note_on channel=0 note=62 velocity=0 time=0.19833333333333333@note_on channel=0 note=69 velocity=80 time=0.0016666666666666666@note_on channel=0 note=69 velocity=0 time=0.19833333333333333@note_on channel=0 note=70 velocity=80 time=0.0016666666666666666@note_on channel=0 note=70 velocity=0 time=0.3983333333333333@note_on channel=0 note=69 velocity=80 time=0.0016666666666666666@note_on channel=0 note=69 velocity=0 time=0.19833333333333333@note_on channel=0 note=67 velocity=80 time=0.0016666666666666666@note_on channel=0 note=67 velocity=0 time=0.19833333333333333@note_on channel=0 note=69 velocity=80 time=0.0016666666666666666@note_on channel=0 note=69 velocity=0 time=0.19833333333333333@note_on channel=0 note=62 velocity=80 time=0.0016666666666666666@note_on channel=0 note=62 velocity=0 time=0.19833333333333333@note_on channel=0 note=74 velocity=80 time=0.0016666666666666666@note_on channel=0 note=74 velocity=0 time=0.19833333333333333@note_on channel=0 note=72 velocity=80 time=0.0016666666666666666@note_on channel=0 note=72 velocity=0 time=0.19833333333333333@note_on channel=0 note=70 velocity=80 time=0.0016666666666666666@note_on channel=0 note=70 velocity=0 time=0.19833333333333333@note_on channel=0 note=69 velocity=80 time=0.0016666666666666666@note_on channel=0 note=69 velocity=0 time=0.19833333333333333@note_on channel=0 note=67 velocity=80 time=0.0016666666666666666@note_on channel=0 note=67 velocity=0 time=0.19833333333333333@note_on channel=0 note=70 velocity=80 time=0.0016666666666666666@note_on channel=0 note=70 velocity=0 time=0.19833333333333333@note_on channel=0 note=69 velocity=80 time=0.0016666666666666666@note_on channel=0 note=69 velocity=0 time=0.19833333333333333@note_on channel=0 note=67 velocity=80 time=0.0016666666666666666@note_on channel=0 note=67 velocity=0 time=0.19833333333333333@note_on channel=0 note=66 velocity=80 time=0.0016666666666666666@note_on channel=0 note=66 velocity=0 time=0.19833333333333333@note_on channel=0 note=69 velocity=80 time=0.0016666666666666666@note_on channel=0 note=69 velocity=0 time=0.19833333333333333@note_on channel=0 note=67 velocity=80 time=0.0016666666666666666@note_on channel=0 note=67 velocity=0 time=0.19833333333333333@note_on channel=0 note=62 velocity=80 time=0.0016666666666666666@note_on channel=0 note=62 velocity=0 time=0.19833333333333333@note_on channel=0 note=67 velocity=80 time=0.0016666666666666666@note_on channel=0 note=67 velocity=0 time=0.19833333333333333@note_on channel=0 note=69 velocity=80 time=0.0016666666666666666@note_on channel=0 note=69 velocity=0 time=0.19833333333333333@note_on channel=0 note=70 velocity=80 time=0.0016666666666666666@note_on channel=0 note=70 velocity=0 time=0.19833333333333333@note_on channel=0 note=72 velocity=80 time=0.0016666666666666666@note_on channel=0 note=72 velocity=0 time=0.19833333333333333@note_on channel=0 note=74 velocity=80 time=0.0016666666666666666@note_on channel=0 note=74 velocity=0 time=0.19833333333333333@note_on channel=0 note=76 velocity=80 time=0.0016666666666666666@note_on channel=0 note=76 velocity=0 time=0.19833333333333333@note_on channel=0 note=77 velocity=80 time=0.0016666666666666666@note_on channel=0 note=62 velocity=80 time=0@note_on channel=0 note=77 velocity=0 time=0.19833333333333333@note_on channel=0 note=76 velocity=80 time=0.0016666666666666666@note_on channel=0 note=76 velocity=0 time=0.19833333333333333@note_on channel=0 note=74 velocity=80 time=0.0016666666666666666@note_on channel=0 note=74 velocity=0 time=0.19833333333333333@note_on channel=0 note=77 velocity=80 time=0.0016666666666666666@note_on channel=0 note=62 velocity=0 time=0.19833333333333333@note_on channel=0 note=77 velocity=0 time=0@note_on channel=0 note=76 velocity=80 time=0.0016666666666666666@note_on channel=0 note=69 velocity=80 time=0@note_on channel=0 note=76 velocity=0 time=0.19833333333333333@note_on channel=0 note=74 velocity=80 time=0.0016666666666666666@note_on channel=0 note=74 velocity=0 time=0.19833333333333333@note_on channel=0 note=73 velocity=80 time=0.0016666666666666666@note_on channel=0 note=73 velocity=0 time=0.19833333333333333@note_on channel=0 note=76 velocity=80 time=0.0016666666666666666@note_on channel=0 note=69 velocity=0 time=0.19833333333333333@note_on channel=0 note=76 velocity=0 time=0@note_on channel=0 note=74 velocity=80 time=0.0016666666666666666@note_on channel=0 note=65 velocity=80 time=0@note_on channel=0 note=74 velocity=0 time=0.3983333333333333@note_on channel=0 note=69 velocity=80 time=0.0016666666666666666@note_on channel=0 note=69 velocity=0 time=0.3983333333333333@note_on channel=0 note=74 velocity=80 time=0.0016666666666666666@note_on channel=0 note=65 velocity=0 time=0.3983333333333333@note_on channel=0 note=74 velocity=0 time=0@note_on channel=0 note=76 velocity=80 time=0.0016666666666666666@note_on channel=0 note=64 velocity=80 time=0@note_on channel=0 note=76 velocity=0 time=0.3983333333333333@note_on channel=0 note=64 velocity=0 time=0@note_on channel=0 note=77 velocity=80 time=0.0016666666666666666@note_on channel=0 note=62 velocity=80 time=0@note_on channel=0 note=77 velocity=0 time=0.19833333333333333@note_on channel=0 note=79 velocity=80 time=0.0016666666666666666@note_on channel=0 note=62 velocity=0 time=0.19833333333333333@note_on channel=0 note=79 velocity=0 time=0@note_on channel=0 note=77 velocity=80 time=0.0016666666666666666@note_on channel=0 note=65 velocity=80 time=0@note_on channel=0 note=77 velocity=0 time=0.19833333333333333@note_on channel=0 note=79 velocity=80 time=0.0016666666666666666@note_on channel=0 note=65 velocity=0 time=0.19833333333333333@note_on channel=0 note=79 velocity=0 time=0@note_on channel=0 note=81 velocity=80 time=0.0016666666666666666@note_on channel=0 note=64 velocity=80 time=0@note_on channel=0 note=81 velocity=0 time=0.09666666666666666@note_on channel=0 note=79 velocity=80 time=0.0016666666666666666@note_on channel=0 note=79 velocity=0 time=0.09666666666666666@note_on channel=0 note=81 velocity=80 time=0.003333333333333333@note_on channel=0 note=81 velocity=0 time=0.09666666666666666@note_on channel=0 note=79 velocity=80 time=0.004999999999999999@note_on channel=0 note=79 velocity=0 time=0.09666666666666666@note_on channel=0 note=81 velocity=80 time=0.0016666666666666666@note_on channel=0 note=64 velocity=0 time=0@note_on channel=0 note=62 velocity=80 time=0.0016666666666666666@note_on channel=0 note=81 velocity=0 time=0.09499999999999999@note_on channel=0 note=79 velocity=80 time=0.003333333333333333@note_on channel=0 note=79 velocity=0 time=0.09666666666666666@note_on channel=0 note=77 velocity=80 time=0.004999999999999999@note_on channel=0 note=77 velocity=0 time=0.09833333333333333@note_on channel=0 note=79 velocity=80 time=0.0016666666666666666@note_on channel=0 note=62 velocity=0 time=0.09833333333333333@note_on channel=0 note=79 velocity=0 time=0@note_on channel=0 note=81 velocity=80 time=0.0016666666666666666@note_on channel=0 note=61 velocity=80 time=0@note_on channel=0 note=81 velocity=0 time=0.19833333333333333@note_on channel=0 note=79 velocity=80 time=0.0016666666666666666@note_on channel=0 note=61 velocity=0 time=0.19833333333333333@note_on channel=0 note=79 velocity=0 time=0@note_on channel=0 note=81 velocity=80 time=0.0016666666666666666@note_on channel=0 note=64 velocity=80 time=0@note_on channel=0 note=81 velocity=0 time=0.19833333333333333@note_on channel=0 note=82 velocity=80 time=0.0016666666666666666@note_on channel=0 note=64 velocity=0 time=0.19833333333333333@note_on channel=0 note=82 velocity=0 time=0@note_on channel=0 note=81 velocity=80 time=0.0016666666666666666@note_on channel=0 note=57 velocity=80 time=0@note_on channel=0 note=81 velocity=0 time=0.19833333333333333@note_on channel=0 note=79 velocity=80 time=0.0016666666666666666@note_on channel=0 note=79 velocity=0 time=0.19833333333333333@note_on channel=0 note=77 velocity=80 time=0.0016666666666666666@note_on channel=0 note=77 velocity=0 time=0.19833333333333333@note_on channel=0 note=76 velocity=80 time=0.0016666666666666666@note_on channel=0 note=57 velocity=0 time=0.19833333333333333@note_on channel=0 note=76 velocity=0 time=0@note_on channel=0 note=77 velocity=80 time=0.0016666666666666666@note_on channel=0 note=62 velocity=80 time=0@note_on channel=0 note=77 velocity=0 time=0.19833333333333333@note_on channel=0 note=81 velocity=80 time=0.0016666666666666666@note_on channel=0 note=62 velocity=0 time=0.19833333333333333@note_on channel=0 note=81 velocity=0 time=0@note_on channel=0 note=79 velocity=80 time=0.0016666666666666666@note_on channel=0 note=57 velocity=80 time=0@note_on channel=0 note=79 velocity=0 time=0.19833333333333333@note_on channel=0 note=81 velocity=80 time=0.0016666666666666666@note_on channel=0 note=57 velocity=0 time=0.19833333333333333@note_on channel=0 note=81 velocity=0 time=0@note_on channel=0 note=73 velocity=80 time=0.0016666666666666666@note_on channel=0 note=64 velocity=80 time=0@note_on channel=0 note=73 velocity=0 time=0.19833333333333333@note_on channel=0 note=81 velocity=80 time=0.0016666666666666666@note_on channel=0 note=64 velocity=0 time=0.19833333333333333@note_on channel=0 note=81 velocity=0 time=0@note_on channel=0 note=79 velocity=80 time=0.0016666666666666666@note_on channel=0 note=57 velocity=80 time=0@note_on channel=0 note=79 velocity=0 time=0.19833333333333333@note_on channel=0 note=81 velocity=80 time=0.0016666666666666666@note_on channel=0 note=57 velocity=0 time=0.19833333333333333@note_on channel=0 note=81 velocity=0 time=0@note_on channel=0 note=74 velocity=80 time=0.0016666666666666666@note_on channel=0 note=65 velocity=80 time=0@note_on channel=0 note=74 velocity=0 time=0.19833333333333333@note_on channel=0 note=81 velocity=80 time=0.0016666666666666666@note_on channel=0 note=65 velocity=0 time=0.19833333333333333@note_on channel=0 note=81 velocity=0 time=0@note_on channel=0 note=79 velocity=80 time=0.0016666666666666666@note_on channel=0 note=64 velocity=80 time=0@note_on channel=0 note=79 velocity=0 time=0.19833333333333333@note_on channel=0 note=64 velocity=0 time=0@note_on channel=0 note=81 velocity=80 time=0.0016666666666666666@note_on channel=0 note=62 velocity=80 time=0@note_on channel=0 note=81 velocity=0 time=0.19833333333333333@note_on channel=0 note=62 velocity=0 time=0@note_on channel=0 note=73 velocity=80 time=0.0016666666666666666@note_on channel=0 note=64 velocity=80 time=0@note_on channel=0 note=73 velocity=0 time=0.19833333333333333@note_on channel=0 note=81 velocity=80 time=0.0016666666666666666@note_on channel=0 note=64 velocity=0 time=0.19833333333333333@note_on channel=0 note=81 velocity=0 time=0@note_on channel=0 note=79 velocity=80 time=0.0016666666666666666@note_on channel=0 note=57 velocity=80 time=0@note_on channel=0 note=79 velocity=0 time=0.19833333333333333@note_on channel=0 note=81 velocity=80 time=0.0016666666666666666@note_on channel=0 note=57 velocity=0 time=0.19833333333333333@note_on channel=0 note=81 velocity=0 time=0@note_on channel=0 note=77 velocity=80 time=0.0016666666666666666@note_on channel=0 note=62 velocity=80 time=0@note_on channel=0 note=77 velocity=0 time=0.19833333333333333@note_on channel=0 note=74 velocity=80 time=0.0016666666666666666@note_on channel=0 note=62 velocity=0 time=0.19833333333333333@note_on channel=0 note=74 velocity=0 time=0@note_on channel=0 note=73 velocity=80 time=0.0016666666666666666@note_on channel=0 note=57 velocity=80 time=0@note_on channel=0 note=73 velocity=0 time=0.19833333333333333@note_on channel=0 note=57 velocity=0 time=0@note_on channel=0 note=74 velocity=80 time=0.0016666666666666666@note_on channel=0 note=62 velocity=80 time=0@note_on channel=0 note=74 velocity=0 time=0.19833333333333333@note_on channel=0 note=62 velocity=0 time=0@note_on channel=0 note=79 velocity=80 time=0.0016666666666666666@note_on channel=0 note=64 velocity=80 time=0@note_on channel=0 note=79 velocity=0 time=0.19833333333333333@note_on channel=0 note=74 velocity=80 time=0.0016666666666666666@note_on channel=0 note=64 velocity=0 time=0.19833333333333333@note_on channel=0 note=74 velocity=0 time=0@note_on channel=0 note=73 velocity=80 time=0.0016666666666666666@note_on channel=0 note=57 velocity=80 time=0@note_on channel=0 note=73 velocity=0 time=0.19833333333333333@note_on channel=0 note=57 velocity=0 time=0@note_on channel=0 note=74 velocity=80 time=0.0016666666666666666@note_on channel=0 note=64 velocity=80 time=0@note_on channel=0 note=74 velocity=0 time=0.19833333333333333@note_on channel=0 note=64 velocity=0 time=0@note_on channel=0 note=81 velocity=80 time=0.0016666666666666666@note_on channel=0 note=65 velocity=80 time=0@note_on channel=0 note=81 velocity=0 time=0.19833333333333333@note_on channel=0 note=74 velocity=80 time=0.0016666666666666666@note_on channel=0 note=65 velocity=0 time=0.19833333333333333@note_on channel=0 note=74 velocity=0 time=0@note_on channel=0 note=73 velocity=80 time=0.0016666666666666666@note_on channel=0 note=64 velocity=80 time=0@note_on channel=0 note=73 velocity=0 time=0.19833333333333333@note_on channel=0 note=64 velocity=0 time=0@note_on channel=0 note=74 velocity=80 time=0.0016666666666666666@note_on channel=0 note=62 velocity=80 time=0@note_on channel=0 note=74 velocity=0 time=0.19833333333333333@note_on channel=0 note=62 velocity=0 time=0@note_on channel=0 note=79 velocity=80 time=0.0016666666666666666@note_on channel=0 note=64 velocity=80 time=0@note_on channel=0 note=79 velocity=0 time=0.19833333333333333@note_on channel=0 note=64 velocity=0 time=0@note_on channel=0 note=74 velocity=80 time=0.0016666666666666666@note_on channel=0 note=57 velocity=80 time=0@note_on channel=0 note=74 velocity=0 time=0.19833333333333333@note_on channel=0 note=57 velocity=0 time=0@note_on channel=0 note=73 velocity=80 time=0.0016666666666666666@note_on channel=0 note=69 velocity=80 time=0@note_on channel=0 note=73 velocity=0 time=0.19833333333333333@note_on channel=0 note=69 velocity=0 time=0@note_on channel=0 note=74 velocity=80 time=0.0016666666666666666@note_on channel=0 note=67 velocity=80 time=0@note_on channel=0 note=74 velocity=0 time=0.19833333333333333@note_on channel=0 note=67 velocity=0 time=0@note_on channel=0 note=69 velocity=80 time=0.0016666666666666666@note_on channel=0 note=65 velocity=80 time=0@note_on channel=0 note=65 velocity=0 time=0.19833333333333333@note_on channel=0 note=64 velocity=80 time=0.0016666666666666666@note_on channel=0 note=69 velocity=0 time=0.19833333333333333@note_on channel=0 note=64 velocity=0 time=0@note_on channel=0 note=77 velocity=80 time=0.0016666666666666666@note_on channel=0 note=62 velocity=80 time=0@note_on channel=0 note=62 velocity=0 time=0.19833333333333333@note_on channel=0 note=65 velocity=80 time=0.0016666666666666666@note_on channel=0 note=77 velocity=0 time=0.19833333333333333@note_on channel=0 note=65 velocity=0 time=0@note_on channel=0 note=67 velocity=80 time=0.0016666666666666666@note_on channel=0 note=64 velocity=80 time=0@note_on channel=0 note=64 velocity=0 time=0.19833333333333333@note_on channel=0 note=62 velocity=80 time=0.0016666666666666666@note_on channel=0 note=67 velocity=0 time=0.19833333333333333@note_on channel=0 note=62 velocity=0 time=0@note_on channel=0 note=76 velocity=80 time=0.0016666666666666666@note_on channel=0 note=61 velocity=80 time=0@note_on channel=0 note=61 velocity=0 time=0.19833333333333333@note_on channel=0 note=64 velocity=80 time=0.0016666666666666666@note_on channel=0 note=76 velocity=0 time=0.19833333333333333@note_on channel=0 note=64 velocity=0 time=0@note_on channel=0 note=65 velocity=80 time=0.0016666666666666666@note_on channel=0 note=62 velocity=80 time=0@note_on channel=0 note=62 velocity=0 time=0.19833333333333333@note_on channel=0 note=57 velocity=80 time=0.0016666666666666666@note_on channel=0 note=65 velocity=0 time=0.19833333333333333@note_on channel=0 note=57 velocity=0 time=0@note_on channel=0 note=69 velocity=80 time=0.0016666666666666666@note_on channel=0 note=62 velocity=80 time=0@note_on channel=0 note=62 velocity=0 time=0.19833333333333333@note_on channel=0 note=64 velocity=80 time=0.0016666666666666666@note_on channel=0 note=69 velocity=0 time=0.19833333333333333@note_on channel=0 note=64 velocity=0 time=0@note_on channel=0 note=74 velocity=80 time=0.0016666666666666666@note_on channel=0 note=65 velocity=80 time=0@note_on channel=0 note=65 velocity=0 time=0.19833333333333333@note_on channel=0 note=67 velocity=80 time=0.0016666666666666666@note_on channel=0 note=74 velocity=0 time=0.19833333333333333@note_on channel=0 note=67 velocity=0 time=0@note_on channel=0 note=77 velocity=80 time=0.0016666666666666666@note_on channel=0 note=69 velocity=80 time=0@note_on channel=0 note=69 velocity=0 time=0.19833333333333333@note_on channel=0 note=71 velocity=80 time=0.0016666666666666666@note_on channel=0 note=77 velocity=0 time=0.19833333333333333@note_on channel=0 note=71 velocity=0 time=0@note_on channel=0 note=75 velocity=80 time=0.0016666666666666666@note_on channel=0 note=72 velocity=80 time=0@note_on channel=0 note=72 velocity=0 time=0.19833333333333333@note_on channel=0 note=70 velocity=80 time=0.0016666666666666666@note_on channel=0 note=75 velocity=0 time=0.19833333333333333@note_on channel=0 note=70 velocity=0 time=0@note_on channel=0 note=81 velocity=80 time=0.0016666666666666666@note_on channel=0 note=72 velocity=80 time=0@note_on channel=0 note=72 velocity=0 time=0.19833333333333333@note_on channel=0 note=74 velocity=80 time=0.0016666666666666666@note_on channel=0 note=81 velocity=0 time=0.19833333333333333@note_on channel=0 note=74 velocity=0 time=0@note_on channel=0 note=72 velocity=80 time=0.0016666666666666666@note_on channel=0 note=72 velocity=0 time=0.19833333333333333@note_on channel=0 note=70 velocity=80 time=0.0016666666666666666@note_on channel=0 note=70 velocity=0 time=0.19833333333333333@note_on channel=0 note=75 velocity=80 time=0.0016666666666666666@note_on channel=0 note=69 velocity=80 time=0@note_on channel=0 note=69 velocity=0 time=0.19833333333333333@note_on channel=0 note=72 velocity=80 time=0.0016666666666666666@note_on channel=0 note=75 velocity=0 time=0.19833333333333333@note_on channel=0 note=72 velocity=0 time=0@note_on channel=0 note=74 velocity=80 time=0.0016666666666666666@note_on channel=0 note=70 velocity=80 time=0@note_on channel=0 note=70 velocity=0 time=0.19833333333333333@note_on channel=0 note=69 velocity=80 time=0.0016666666666666666@note_on channel=0 note=74 velocity=0 time=0.19833333333333333@note_on channel=0 note=69 velocity=0 time=0@note_on channel=0 note=79 velocity=80 time=0.0016666666666666666@note_on channel=0 note=70 velocity=80 time=0@note_on channel=0 note=70 velocity=0 time=0.19833333333333333@note_on channel=0 note=72 velocity=80 time=0.0016666666666666666@note_on channel=0 note=79 velocity=0 time=0.19833333333333333@note_on channel=0 note=72 velocity=0 time=0@note_on channel=0 note=70 velocity=80 time=0.0016666666666666666@note_on channel=0 note=70 velocity=0 time=0.19833333333333333@note_on channel=0 note=69 velocity=80 time=0.0016666666666666666@note_on channel=0 note=69 velocity=0 time=0.19833333333333333@note_on channel=0 note=74 velocity=80 time=0.0016666666666666666@note_on channel=0 note=67 velocity=80 time=0@note_on channel=0 note=67 velocity=0 time=0.19833333333333333@note_on channel=0 note=70 velocity=80 time=0.0016666666666666666@note_on channel=0 note=74 velocity=0 time=0.19833333333333333@note_on channel=0 note=70 velocity=0 time=0@note_on channel=0 note=72 velocity=80 time=0.0016666666666666666@note_on channel=0 note=69 velocity=80 time=0@note_on channel=0 note=72 velocity=0 time=0.19833333333333333@note_on channel=0 note=70 velocity=80 time=0.0016666666666666666@note_on channel=0 note=69 velocity=0 time=0.19833333333333333@note_on channel=0 note=70 velocity=0 time=0@note_on channel=0 note=72 velocity=80 time=0.0016666666666666666@note_on channel=0 note=67 velocity=80 time=0@note_on channel=0 note=72 velocity=0 time=0.19833333333333333@note_on channel=0 note=74 velocity=80 time=0.0016666666666666666@note_on channel=0 note=67 velocity=0 time=0.19833333333333333@note_on channel=0 note=74 velocity=0 time=0@note_on channel=0 note=72 velocity=80 time=0.0016666666666666666@note_on channel=0 note=66 velocity=80 time=0@note_on channel=0 note=72 velocity=0 time=0.19833333333333333@note_on channel=0 note=81 velocity=80 time=0.0016666666666666666@note_on channel=0 note=66 velocity=0 time=0.19833333333333333@note_on channel=0 note=81 velocity=0 time=0@note_on channel=0 note=79 velocity=80 time=0.0016666666666666666@note_on channel=0 note=62 velocity=80 time=0@note_on channel=0 note=79 velocity=0 time=0.19833333333333333@note_on channel=0 note=81 velocity=80 time=0.0016666666666666666@note_on channel=0 note=62 velocity=0 time=0.19833333333333333@note_on channel=0 note=81 velocity=0 time=0@note_on channel=0 note=70 velocity=80 time=0.0016666666666666666@note_on channel=0 note=67 velocity=80 time=0@note_on channel=0 note=55 velocity=80 time=0@note_on channel=0 note=70 velocity=0 time=0.19833333333333333@note_on channel=0 note=79 velocity=80 time=0.0016666666666666666@note_on channel=0 note=79 velocity=0 time=0.19833333333333333@note_on channel=0 note=78 velocity=80 time=0.0016666666666666666@note_on channel=0 note=78 velocity=0 time=0.19833333333333333@note_on channel=0 note=79 velocity=80 time=0.0016666666666666666@note_on channel=0 note=67 velocity=0 time=0.19833333333333333@note_on channel=0 note=79 velocity=0 time=0@note_on channel=0 note=55 velocity=0 time=0@note_on channel=0 note=69 velocity=80 time=0.0016666666666666666@note_on channel=0 note=62 velocity=80 time=0@note_on channel=0 note=69 velocity=0 time=0.19833333333333333@note_on channel=0 note=78 velocity=80 time=0.0016666666666666666@note_on channel=0 note=78 velocity=0 time=0.19833333333333333@note_on channel=0 note=76 velocity=80 time=0.0016666666666666666@note_on channel=0 note=76 velocity=0 time=0.19833333333333333@note_on channel=0 note=78 velocity=80 time=0.0016666666666666666@note_on channel=0 note=78 velocity=0 time=0.19833333333333333@note_on channel=0 note=62 velocity=0 time=0@note_on channel=0 note=79 velocity=80 time=0.0016666666666666666@note_on channel=0 note=58 velocity=80 time=0@note_on channel=0 note=62 velocity=80 time=0.39999999999999997@note_on channel=0 note=62 velocity=0 time=0.3983333333333333@note_on channel=0 note=67 velocity=80 time=0.0016666666666666666@note_on channel=0 note=67 velocity=0 time=0.3983333333333333@note_on channel=0 note=58 velocity=0 time=0@note_on channel=0 note=69 velocity=80 time=0.0016666666666666666@note_on channel=0 note=57 velocity=80 time=0@note_on channel=0 note=79 velocity=0 time=0.3983333333333333@note_on channel=0 note=69 velocity=0 time=0@note_on channel=0 note=57 velocity=0 time=0@note_on channel=0 note=70 velocity=80 time=0.0016666666666666666@note_on channel=0 note=55 velocity=80 time=0@note_on channel=0 note=70 velocity=0 time=0.19833333333333333@note_on channel=0 note=72 velocity=80 time=0.0016666666666666666@note_on channel=0 note=72 velocity=0 time=0.19833333333333333@note_on channel=0 note=55 velocity=0 time=0@note_on channel=0 note=70 velocity=80 time=0.0016666666666666666@note_on channel=0 note=58 velocity=80 time=0@note_on channel=0 note=70 velocity=0 time=0.19833333333333333@note_on channel=0 note=72 velocity=80 time=0.0016666666666666666@note_on channel=0 note=72 velocity=0 time=0.19833333333333333@note_on channel=0 note=58 velocity=0 time=0@note_on channel=0 note=74 velocity=80 time=0.0016666666666666666@note_on channel=0 note=57 velocity=80 time=0@note_on channel=0 note=74 velocity=0 time=0.09666666666666666@note_on channel=0 note=72 velocity=80 time=0.0016666666666666666@note_on channel=0 note=72 velocity=0 time=0.09666666666666666@note_on channel=0 note=74 velocity=80 time=0.003333333333333333@note_on channel=0 note=74 velocity=0 time=0.09666666666666666@note_on channel=0 note=72 velocity=80 time=0.004999999999999999@note_on channel=0 note=72 velocity=0 time=0.09666666666666666@note_on channel=0 note=74 velocity=80 time=0.0016666666666666666@note_on channel=0 note=57 velocity=0 time=0@note_on channel=0 note=55 velocity=80 time=0.0016666666666666666@note_on channel=0 note=74 velocity=0 time=0.09499999999999999@note_on channel=0 note=72 velocity=80 time=0.003333333333333333@note_on channel=0 note=72 velocity=0 time=0.09666666666666666@note_on channel=0 note=70 velocity=80 time=0.004999999999999999@note_on channel=0 note=70 velocity=0 time=0.09833333333333333@note_on channel=0 note=72 velocity=80 time=0.0016666666666666666@note_on channel=0 note=72 velocity=0 time=0.09833333333333333@note_on channel=0 note=55 velocity=0 time=0@note_on channel=0 note=74 velocity=80 time=0.0016666666666666666@note_on channel=0 note=54 velocity=80 time=0@note_on channel=0 note=74 velocity=0 time=0.19833333333333333@note_on channel=0 note=72 velocity=80 time=0.0016666666666666666@note_on channel=0 note=72 velocity=0 time=0.19833333333333333@note_on channel=0 note=54 velocity=0 time=0@note_on channel=0 note=74 velocity=80 time=0.0016666666666666666@note_on channel=0 note=57 velocity=80 time=0@note_on channel=0 note=74 velocity=0 time=0.19833333333333333@note_on channel=0 note=75 velocity=80 time=0.0016666666666666666@note_on channel=0 note=75 velocity=0 time=0.19833333333333333@note_on channel=0 note=57 velocity=0 time=0@note_on channel=0 note=74 velocity=80 time=0.0016666666666666666@note_on channel=0 note=50 velocity=80 time=0@note_on channel=0 note=74 velocity=0 time=0.19833333333333333@note_on channel=0 note=72 velocity=80 time=0.0016666666666666666@note_on channel=0 note=72 velocity=0 time=0.19833333333333333@note_on channel=0 note=70 velocity=80 time=0.0016666666666666666@note_on channel=0 note=70 velocity=0 time=0.19833333333333333@note_on channel=0 note=69 velocity=80 time=0.0016666666666666666@note_on channel=0 note=69 velocity=0 time=0.19833333333333333@note_on channel=0 note=50 velocity=0 time=0@note_on channel=0 note=70 velocity=80 time=0.0016666666666666666@note_on channel=0 note=62 velocity=80 time=0@note_on channel=0 note=55 velocity=80 time=0@note_on channel=0 note=70 velocity=0 time=0.19833333333333333@note_on channel=0 note=74 velocity=80 time=0.0016666666666666666@note_on channel=0 note=62 velocity=0 time=0.19833333333333333@note_on channel=0 note=74 velocity=0 time=0@note_on channel=0 note=55 velocity=0 time=0@note_on channel=0 note=72 velocity=80 time=0.0016666666666666666@note_on channel=0 note=50 velocity=80 time=0@note_on channel=0 note=72 velocity=0 time=0.19833333333333333@note_on channel=0 note=74 velocity=80 time=0.0016666666666666666@note_on channel=0 note=74 velocity=0 time=0.19833333333333333@note_on channel=0 note=50 velocity=0 time=0@note_on channel=0 note=66 velocity=80 time=0.0016666666666666666@note_on channel=0 note=60 velocity=80 time=0@note_on channel=0 note=57 velocity=80 time=0@note_on channel=0 note=66 velocity=0 time=0.19833333333333333@note_on channel=0 note=74 velocity=80 time=0.0016666666666666666@note_on channel=0 note=60 velocity=0 time=0.19833333333333333@note_on channel=0 note=74 velocity=0 time=0@note_on channel=0 note=57 velocity=0 time=0@note_on channel=0 note=72 velocity=80 time=0.0016666666666666666@note_on channel=0 note=50 velocity=80 time=0@note_on channel=0 note=72 velocity=0 time=0.19833333333333333@note_on channel=0 note=74 velocity=80 time=0.0016666666666666666@note_on channel=0 note=74 velocity=0 time=0.19833333333333333@note_on channel=0 note=50 velocity=0 time=0@note_on channel=0 note=67 velocity=80 time=0.0016666666666666666@note_on channel=0 note=62 velocity=80 time=0@note_on channel=0 note=58 velocity=80 time=0@note_on channel=0 note=67 velocity=0 time=0.19833333333333333@note_on channel=0 note=74 velocity=80 time=0.0016666666666666666@note_on channel=0 note=62 velocity=0 time=0.19833333333333333@note_on channel=0 note=74 velocity=0 time=0@note_on channel=0 note=58 velocity=0 time=0@note_on channel=0 note=72 velocity=80 time=0.0016666666666666666@note_on channel=0 note=57 velocity=80 time=0@note_on channel=0 note=72 velocity=0 time=0.19833333333333333@note_on channel=0 note=57 velocity=0 time=0@note_on channel=0 note=74 velocity=80 time=0.0016666666666666666@note_on channel=0 note=55 velocity=80 time=0@note_on channel=0 note=74 velocity=0 time=0.19833333333333333@note_on channel=0 note=55 velocity=0 time=0@note_on channel=0 note=66 velocity=80 time=0.0016666666666666666@note_on channel=0 note=60 velocity=80 time=0@note_on channel=0 note=57 velocity=80 time=0@note_on channel=0 note=66 velocity=0 time=0.19833333333333333@note_on channel=0 note=74 velocity=80 time=0.0016666666666666666@note_on channel=0 note=60 velocity=0 time=0.19833333333333333@note_on channel=0 note=74 velocity=0 time=0@note_on channel=0 note=57 velocity=0 time=0@note_on channel=0 note=72 velocity=80 time=0.0016666666666666666@note_on channel=0 note=50 velocity=80 time=0@note_on channel=0 note=72 velocity=0 time=0.19833333333333333@note_on channel=0 note=74 velocity=80 time=0.0016666666666666666@note_on channel=0 note=74 velocity=0 time=0.19833333333333333@note_on channel=0 note=50 velocity=0 time=0@note_on channel=0 note=70 velocity=80 time=0.0016666666666666666@note_on channel=0 note=55 velocity=80 time=0@note_on channel=0 note=67 velocity=80 time=0.19999999999999998@note_on channel=0 note=67 velocity=0 time=0.19833333333333333@note_on channel=0 note=55 velocity=0 time=0@note_on channel=0 note=66 velocity=80 time=0.0016666666666666666@note_on channel=0 note=50 velocity=80 time=0@note_on channel=0 note=66 velocity=0 time=0.19833333333333333@note_on channel=0 note=50 velocity=0 time=0@note_on channel=0 note=67 velocity=80 time=0.0016666666666666666@note_on channel=0 note=55 velocity=80 time=0@note_on channel=0 note=70 velocity=0 time=0.19833333333333333@note_on channel=0 note=67 velocity=0 time=0@note_on channel=0 note=55 velocity=0 time=0@note_on channel=0 note=72 velocity=80 time=0.0016666666666666666@note_on channel=0 note=57 velocity=80 time=0@note_on channel=0 note=67 velocity=80 time=0.19999999999999998@note_on channel=0 note=67 velocity=0 time=0.19833333333333333@note_on channel=0 note=57 velocity=0 time=0@note_on channel=0 note=66 velocity=80 time=0.0016666666666666666@note_on channel=0 note=50 velocity=80 time=0@note_on channel=0 note=66 velocity=0 time=0.19833333333333333@note_on channel=0 note=50 velocity=0 time=0@note_on channel=0 note=67 velocity=80 time=0.0016666666666666666@note_on channel=0 note=57 velocity=80 time=0@note_on channel=0 note=72 velocity=0 time=0.19833333333333333@note_on channel=0 note=67 velocity=0 time=0@note_on channel=0 note=57 velocity=0 time=0@note_on channel=0 note=74 velocity=80 time=0.0016666666666666666@note_on channel=0 note=58 velocity=80 time=0@note_on channel=0 note=67 velocity=80 time=0.19999999999999998@note_on channel=0 note=67 velocity=0 time=0.19833333333333333@note_on channel=0 note=58 velocity=0 time=0@note_on channel=0 note=66 velocity=80 time=0.0016666666666666666@note_on channel=0 note=57 velocity=80 time=0@note_on channel=0 note=66 velocity=0 time=0.19833333333333333@note_on channel=0 note=57 velocity=0 time=0@note_on channel=0 note=67 velocity=80 time=0.0016666666666666666@note_on channel=0 note=55 velocity=80 time=0@note_on channel=0 note=74 velocity=0 time=0.19833333333333333@note_on channel=0 note=67 velocity=0 time=0@note_on channel=0 note=55 velocity=0 time=0@note_on channel=0 note=72 velocity=80 time=0.0016666666666666666@note_on channel=0 note=57 velocity=80 time=0@note_on channel=0 note=57 velocity=0 time=0.19833333333333333@note_on channel=0 note=67 velocity=80 time=0.0016666666666666666@note_on channel=0 note=50 velocity=80 time=0@note_on channel=0 note=67 velocity=0 time=0.19833333333333333@note_on channel=0 note=50 velocity=0 time=0@note_on channel=0 note=66 velocity=80 time=0.0016666666666666666@note_on channel=0 note=62 velocity=80 time=0@note_on channel=0 note=66 velocity=0 time=0.19833333333333333@note_on channel=0 note=62 velocity=0 time=0@note_on channel=0 note=67 velocity=80 time=0.0016666666666666666@note_on channel=0 note=60 velocity=80 time=0@note_on channel=0 note=72 velocity=0 time=0.19833333333333333@note_on channel=0 note=67 velocity=0 time=0@note_on channel=0 note=60 velocity=0 time=0@note_on channel=0 note=62 velocity=80 time=0.0016666666666666666@note_on channel=0 note=58 velocity=80 time=0@note_on channel=0 note=58 velocity=0 time=0.19833333333333333@note_on channel=0 note=57 velocity=80 time=0.0016666666666666666@note_on channel=0 note=57 velocity=0 time=0.19833333333333333@note_on channel=0 note=70 velocity=80 time=0.0016666666666666666@note_on channel=0 note=55 velocity=80 time=0@note_on channel=0 note=55 velocity=0 time=0.19833333333333333@note_on channel=0 note=58 velocity=80 time=0.0016666666666666666@note_on channel=0 note=62 velocity=0 time=0.19833333333333333@note_on channel=0 note=70 velocity=0 time=0@note_on channel=0 note=58 velocity=0 time=0@note_on channel=0 note=60 velocity=80 time=0.0016666666666666666@note_on channel=0 note=57 velocity=80 time=0@note_on channel=0 note=57 velocity=0 time=0.19833333333333333@note_on channel=0 note=55 velocity=80 time=0.0016666666666666666@note_on channel=0 note=55 velocity=0 time=0.19833333333333333@note_on channel=0 note=69 velocity=80 time=0.0016666666666666666@note_on channel=0 note=54 velocity=80 time=0@note_on channel=0 note=54 velocity=0 time=0.19833333333333333@note_on channel=0 note=57 velocity=80 time=0.0016666666666666666@note_on channel=0 note=60 velocity=0 time=0.19833333333333333@note_on channel=0 note=69 velocity=0 time=0@note_on channel=0 note=57 velocity=0 time=0@note_on channel=0 note=58 velocity=80 time=0.0016666666666666666@note_on channel=0 note=55 velocity=80 time=0@note_on channel=0 note=55 velocity=0 time=0.19833333333333333@note_on channel=0 note=50 velocity=80 time=0.0016666666666666666@note_on channel=0 note=50 velocity=0 time=0.19833333333333333@note_on channel=0 note=62 velocity=80 time=0.0016666666666666666@note_on channel=0 note=55 velocity=80 time=0@note_on channel=0 note=55 velocity=0 time=0.19833333333333333@note_on channel=0 note=57 velocity=80 time=0.0016666666666666666@note_on channel=0 note=58 velocity=0 time=0.19833333333333333@note_on channel=0 note=62 velocity=0 time=0@note_on channel=0 note=57 velocity=0 time=0@note_on channel=0 note=67 velocity=80 time=0.0016666666666666666@note_on channel=0 note=58 velocity=80 time=0@note_on channel=0 note=67 velocity=0 time=0.19833333333333333@note_on channel=0 note=58 velocity=0 time=0@note_on channel=0 note=69 velocity=80 time=0.0016666666666666666@note_on channel=0 note=60 velocity=80 time=0@note_on channel=0 note=69 velocity=0 time=0.19833333333333333@note_on channel=0 note=60 velocity=0 time=0@note_on channel=0 note=70 velocity=80 time=0.0016666666666666666@note_on channel=0 note=62 velocity=80 time=0@note_on channel=0 note=70 velocity=0 time=0.19833333333333333@note_on channel=0 note=62 velocity=0 time=0@note_on channel=0 note=67 velocity=80 time=0.0016666666666666666@note_on channel=0 note=64 velocity=80 time=0@note_on channel=0 note=67 velocity=0 time=0.19833333333333333@note_on channel=0 note=64 velocity=0 time=0@note_on channel=0 note=69 velocity=80 time=0.0016666666666666666@note_on channel=0 note=65 velocity=80 time=0@note_on channel=0 note=50 velocity=80 time=0@note_on channel=0 note=65 velocity=0 time=0.19833333333333333@note_on channel=0 note=64 velocity=80 time=0.0016666666666666666@note_on channel=0 note=69 velocity=0 time=0.19833333333333333@note_on channel=0 note=64 velocity=0 time=0@note_on channel=0 note=74 velocity=80 time=0.0016666666666666666@note_on channel=0 note=62 velocity=80 time=0@note_on channel=0 note=62 velocity=0 time=0.19833333333333333@note_on channel=0 note=65 velocity=80 time=0.0016666666666666666@note_on channel=0 note=74 velocity=0 time=0.19833333333333333@note_on channel=0 note=65 velocity=0 time=0@note_on channel=0 note=50 velocity=0 time=0@note_on channel=0 note=73 velocity=80 time=0.0016666666666666666@note_on channel=0 note=64 velocity=80 time=0@note_on channel=0 note=57 velocity=80 time=0@note_on channel=0 note=64 velocity=0 time=0.19833333333333333@note_on channel=0 note=62 velocity=80 time=0.0016666666666666666@note_on channel=0 note=73 velocity=0 time=0.19833333333333333@note_on channel=0 note=62 velocity=0 time=0@note_on channel=0 note=76 velocity=80 time=0.0016666666666666666@note_on channel=0 note=61 velocity=80 time=0@note_on channel=0 note=61 velocity=0 time=0.19833333333333333@note_on channel=0 note=64 velocity=80 time=0.0016666666666666666@note_on channel=0 note=76 velocity=0 time=0.19833333333333333@note_on channel=0 note=64 velocity=0 time=0@note_on channel=0 note=57 velocity=0 time=0@note_on channel=0 note=81 velocity=80 time=0.0016666666666666666@note_on channel=0 note=62 velocity=80 time=0@note_on channel=0 note=53 velocity=80 time=0@note_on channel=0 note=81 velocity=0 time=0.19833333333333333@note_on channel=0 note=82 velocity=80 time=0.0016666666666666666@note_on channel=0 note=82 velocity=0 time=0.19833333333333333@note_on channel=0 note=62 velocity=0 time=0@note_on channel=0 note=81 velocity=80 time=0.0016666666666666666@note_on channel=0 note=57 velocity=80 time=0@note_on channel=0 note=81 velocity=0 time=0.19833333333333333@note_on channel=0 note=79 velocity=80 time=0.0016666666666666666@note_on channel=0 note=79 velocity=0 time=0.19833333333333333@note_on channel=0 note=57 velocity=0 time=0@note_on channel=0 note=77 velocity=80 time=0.0016666666666666666@note_on channel=0 note=62 velocity=80 time=0@note_on channel=0 note=77 velocity=0 time=0.19833333333333333@note_on channel=0 note=76 velocity=80 time=0.0016666666666666666@note_on channel=0 note=76 velocity=0 time=0.19833333333333333@note_on channel=0 note=62 velocity=0 time=0@note_on channel=0 note=53 velocity=0 time=0@note_on channel=0 note=74 velocity=80 time=0.0016666666666666666@note_on channel=0 note=64 velocity=80 time=0@note_on channel=0 note=52 velocity=80 time=0@note_on channel=0 note=74 velocity=0 time=0.19833333333333333@note_on channel=0 note=73 velocity=80 time=0.0016666666666666666@note_on channel=0 note=73 velocity=0 time=0.19833333333333333@note_on channel=0 note=64 velocity=0 time=0@note_on channel=0 note=52 velocity=0 time=0@note_on channel=0 note=74 velocity=80 time=0.0016666666666666666@note_on channel=0 note=65 velocity=80 time=0@note_on channel=0 note=50 velocity=80 time=0@note_on channel=0 note=65 velocity=0 time=0.19833333333333333@note_on channel=0 note=67 velocity=80 time=0.0016666666666666666@note_on channel=0 note=74 velocity=0 time=0.19833333333333333@note_on channel=0 note=67 velocity=0 time=0@note_on channel=0 note=50 velocity=0 time=0@note_on channel=0 note=65 velocity=80 time=0.0016666666666666666@note_on channel=0 note=53 velocity=80 time=0@note_on channel=0 note=65 velocity=0 time=0.19833333333333333@note_on channel=0 note=67 velocity=80 time=0.0016666666666666666@note_on channel=0 note=67 velocity=0 time=0.19833333333333333@note_on channel=0 note=53 velocity=0 time=0@note_on channel=0 note=82 velocity=80 time=0.0016666666666666666@note_on channel=0 note=69 velocity=80 time=0@note_on channel=0 note=52 velocity=80 time=0@note_on channel=0 note=69 velocity=0 time=0.09666666666666666@note_on channel=0 note=67 velocity=80 time=0.0016666666666666666@note_on channel=0 note=67 velocity=0 time=0.09666666666666666@note_on channel=0 note=69 velocity=80 time=0.003333333333333333@note_on channel=0 note=69 velocity=0 time=0.09666666666666666@note_on channel=0 note=67 velocity=80 time=0.004999999999999999@note_on channel=0 note=67 velocity=0 time=0.09666666666666666@note_on channel=0 note=82 velocity=0 time=0.0016666666666666666@note_on channel=0 note=69 velocity=80 time=0@note_on channel=0 note=52 velocity=0 time=0@note_on channel=0 note=50 velocity=80 time=0.0016666666666666666@note_on channel=0 note=69 velocity=0 time=0.09499999999999999@note_on channel=0 note=67 velocity=80 time=0.003333333333333333@note_on channel=0 note=67 velocity=0 time=0.09666666666666666@note_on channel=0 note=65 velocity=80 time=0.004999999999999999@note_on channel=0 note=65 velocity=0 time=0.09833333333333333@note_on channel=0 note=67 velocity=80 time=0.0016666666666666666@note_on channel=0 note=67 velocity=0 time=0.09833333333333333@note_on channel=0 note=50 velocity=0 time=0@note_on channel=0 note=76 velocity=80 time=0.0016666666666666666@note_on channel=0 note=69 velocity=80 time=0@note_on channel=0 note=49 velocity=80 time=0@note_on channel=0 note=69 velocity=0 time=0.19833333333333333@note_on channel=0 note=67 velocity=80 time=0.0016666666666666666@note_on channel=0 note=76 velocity=0 time=0.19833333333333333@note_on channel=0 note=67 velocity=0 time=0@note_on channel=0 note=49 velocity=0 time=0@note_on channel=0 note=69 velocity=80 time=0.0016666666666666666@note_on channel=0 note=52 velocity=80 time=0@note_on channel=0 note=69 velocity=0 time=0.19833333333333333@note_on channel=0 note=70 velocity=80 time=0.0016666666666666666@note_on channel=0 note=70 velocity=0 time=0.19833333333333333@note_on channel=0 note=52 velocity=0 time=0@note_on channel=0 note=69 velocity=80 time=0.0016666666666666666@note_on channel=0 note=45 velocity=80 time=0@note_on channel=0 note=69 velocity=0 time=0.19833333333333333@note_on channel=0 note=67 velocity=80 time=0.0016666666666666666@note_on channel=0 note=67 velocity=0 time=0.19833333333333333@note_on channel=0 note=81 velocity=80 time=0.0016666666666666666@note_on channel=0 note=65 velocity=80 time=0@note_on channel=0 note=65 velocity=0 time=0.19833333333333333@note_on channel=0 note=64 velocity=80 time=0.0016666666666666666@note_on channel=0 note=81 velocity=0 time=0.19833333333333333@note_on channel=0 note=64 velocity=0 time=0@note_on channel=0 note=45 velocity=0 time=0@note_on channel=0 note=82 velocity=80 time=0.0016666666666666666@note_on channel=0 note=65 velocity=80 time=0@note_on channel=0 note=50 velocity=80 time=0@note_on channel=0 note=82 velocity=0 time=0.09666666666666666@note_on channel=0 note=81 velocity=80 time=0.0016666666666666666@note_on channel=0 note=81 velocity=0 time=0.09666666666666666@note_on channel=0 note=65 velocity=0 time=0.003333333333333333@note_on channel=0 note=82 velocity=80 time=0.0016666666666666666@note_on channel=0 note=69 velocity=80 time=0@note_on channel=0 note=82 velocity=0 time=0.09666666666666666@note_on channel=0 note=81 velocity=80 time=0.0016666666666666666@note_on channel=0 note=81 velocity=0 time=0.09666666666666666@note_on channel=0 note=69 velocity=0 time=0.003333333333333333@note_on channel=0 note=50 velocity=0 time=0@note_on channel=0 note=82 velocity=80 time=0.0016666666666666666@note_on channel=0 note=67 velocity=80 time=0@note_on channel=0 note=45 velocity=80 time=0@note_on channel=0 note=82 velocity=0 time=0.09666666666666666@note_on channel=0 note=81 velocity=80 time=0.0016666666666666666@note_on channel=0 note=81 velocity=0 time=0.09666666666666666@note_on channel=0 note=67 velocity=0 time=0.003333333333333333@note_on channel=0 note=82 velocity=80 time=0.0016666666666666666@note_on channel=0 note=69 velocity=80 time=0@note_on channel=0 note=82 velocity=0 time=0.09666666666666666@note_on channel=0 note=81 velocity=80 time=0.0016666666666666666@note_on channel=0 note=81 velocity=0 time=0.09666666666666666@note_on channel=0 note=69 velocity=0 time=0.003333333333333333@note_on channel=0 note=45 velocity=0 time=0@note_on channel=0 note=82 velocity=80 time=0.0016666666666666666@note_on channel=0 note=61 velocity=80 time=0@note_on channel=0 note=52 velocity=80 time=0@note_on channel=0 note=82 velocity=0 time=0.09666666666666666@note_on channel=0 note=81 velocity=80 time=0.0016666666666666666@note_on channel=0 note=81 velocity=0 time=0.09666666666666666@note_on channel=0 note=61 velocity=0 time=0.003333333333333333@note_on channel=0 note=82 velocity=80 time=0.0016666666666666666@note_on channel=0 note=69 velocity=80 time=0@note_on channel=0 note=82 velocity=0 time=0.09666666666666666@note_on channel=0 note=81 velocity=80 time=0.0016666666666666666@note_on channel=0 note=81 velocity=0 time=0.09666666666666666@note_on channel=0 note=69 velocity=0 time=0.003333333333333333@note_on channel=0 note=52 velocity=0 time=0@note_on channel=0 note=82 velocity=80 time=0.0016666666666666666@note_on channel=0 note=67 velocity=80 time=0@note_on channel=0 note=45 velocity=80 time=0@note_on channel=0 note=82 velocity=0 time=0.09666666666666666@note_on channel=0 note=81 velocity=80 time=0.0016666666666666666@note_on channel=0 note=81 velocity=0 time=0.09666666666666666@note_on channel=0 note=67 velocity=0 time=0.003333333333333333@note_on channel=0 note=82 velocity=80 time=0.0016666666666666666@note_on channel=0 note=69 velocity=80 time=0@note_on channel=0 note=82 velocity=0 time=0.09666666666666666@note_on channel=0 note=81 velocity=80 time=0.0016666666666666666@note_on channel=0 note=81 velocity=0 time=0.09666666666666666@note_on channel=0 note=69 velocity=0 time=0.003333333333333333@note_on channel=0 note=45 velocity=0 time=0@note_on channel=0 note=82 velocity=80 time=0.0016666666666666666@note_on channel=0 note=62 velocity=80 time=0@note_on channel=0 note=53 velocity=80 time=0@note_on channel=0 note=82 velocity=0 time=0.09666666666666666@note_on channel=0 note=81 velocity=80 time=0.0016666666666666666@note_on channel=0 note=81 velocity=0 time=0.09666666666666666@note_on channel=0 note=62 velocity=0 time=0.003333333333333333@note_on channel=0 note=82 velocity=80 time=0.0016666666666666666@note_on channel=0 note=69 velocity=80 time=0@note_on channel=0 note=82 velocity=0 time=0.09666666666666666@note_on channel=0 note=81 velocity=80 time=0.0016666666666666666@note_on channel=0 note=81 velocity=0 time=0.09666666666666666@note_on channel=0 note=69 velocity=0 time=0.003333333333333333@note_on channel=0 note=53 velocity=0 time=0@note_on channel=0 note=82 velocity=80 time=0.0016666666666666666@note_on channel=0 note=67 velocity=80 time=0@note_on channel=0 note=52 velocity=80 time=0@note_on channel=0 note=82 velocity=0 time=0.09666666666666666@note_on channel=0 note=81 velocity=80 time=0.0016666666666666666@note_on channel=0 note=81 velocity=0 time=0.09666666666666666@note_on channel=0 note=67 velocity=0 time=0.003333333333333333@note_on channel=0 note=52 velocity=0 time=0@note_on channel=0 note=82 velocity=80 time=0.0016666666666666666@note_on channel=0 note=69 velocity=80 time=0@note_on channel=0 note=50 velocity=80 time=0@note_on channel=0 note=82 velocity=0 time=0.09666666666666666@note_on channel=0 note=81 velocity=80 time=0.0016666666666666666@note_on channel=0 note=81 velocity=0 time=0.09666666666666666@note_on channel=0 note=69 velocity=0 time=0.003333333333333333@note_on channel=0 note=50 velocity=0 time=0@note_on channel=0 note=82 velocity=80 time=0.0016666666666666666@note_on channel=0 note=61 velocity=80 time=0@note_on channel=0 note=52 velocity=80 time=0@note_on channel=0 note=82 velocity=0 time=0.09666666666666666@note_on channel=0 note=81 velocity=80 time=0.0016666666666666666@note_on channel=0 note=81 velocity=0 time=0.09666666666666666@note_on channel=0 note=61 velocity=0 time=0.003333333333333333@note_on channel=0 note=82 velocity=80 time=0.0016666666666666666@note_on channel=0 note=69 velocity=80 time=0@note_on channel=0 note=82 velocity=0 time=0.09666666666666666@note_on channel=0 note=81 velocity=80 time=0.0016666666666666666@note_on channel=0 note=81 velocity=0 time=0.09666666666666666@note_on channel=0 note=69 velocity=0 time=0.003333333333333333@note_on channel=0 note=52 velocity=0 time=0@note_on channel=0 note=82 velocity=80 time=0.0016666666666666666@note_on channel=0 note=67 velocity=80 time=0@note_on channel=0 note=45 velocity=80 time=0@note_on channel=0 note=82 velocity=0 time=0.09666666666666666@note_on channel=0 note=81 velocity=80 time=0.0016666666666666666@note_on channel=0 note=81 velocity=0 time=0.09666666666666666@note_on channel=0 note=67 velocity=0 time=0.003333333333333333@note_on channel=0 note=82 velocity=80 time=0.0016666666666666666@note_on channel=0 note=69 velocity=80 time=0@note_on channel=0 note=82 velocity=0 time=0.09666666666666666@note_on channel=0 note=81 velocity=80 time=0.0016666666666666666@note_on channel=0 note=81 velocity=0 time=0.09666666666666666@note_on channel=0 note=69 velocity=0 time=0.003333333333333333@note_on channel=0 note=45 velocity=0 time=0@note_on channel=0 note=82 velocity=80 time=0.0016666666666666666@note_on channel=0 note=65 velocity=80 time=0@note_on channel=0 note=50 velocity=80 time=0@note_on channel=0 note=82 velocity=0 time=0.09666666666666666@note_on channel=0 note=81 velocity=80 time=0.0016666666666666666@note_on channel=0 note=81 velocity=0 time=0.09666666666666666@note_on channel=0 note=65 velocity=0 time=0.003333333333333333@note_on channel=0 note=82 velocity=80 time=0.0016666666666666666@note_on channel=0 note=62 velocity=80 time=0@note_on channel=0 note=82 velocity=0 time=0.09666666666666666@note_on channel=0 note=81 velocity=80 time=0.0016666666666666666@note_on channel=0 note=81 velocity=0 time=0.09666666666666666@note_on channel=0 note=62 velocity=0 time=0.003333333333333333@note_on channel=0 note=50 velocity=0 time=0@note_on channel=0 note=82 velocity=80 time=0.0016666666666666666@note_on channel=0 note=61 velocity=80 time=0@note_on channel=0 note=45 velocity=80 time=0@note_on channel=0 note=82 velocity=0 time=0.09666666666666666@note_on channel=0 note=81 velocity=80 time=0.0016666666666666666@note_on channel=0 note=81 velocity=0 time=0.09666666666666666@note_on channel=0 note=61 velocity=0 time=0.003333333333333333@note_on channel=0 note=45 velocity=0 time=0@note_on channel=0 note=82 velocity=80 time=0.0016666666666666666@note_on channel=0 note=62 velocity=80 time=0@note_on channel=0 note=50 velocity=80 time=0@note_on channel=0 note=82 velocity=0 time=0.09666666666666666@note_on channel=0 note=81 velocity=80 time=0.0016666666666666666@note_on channel=0 note=81 velocity=0 time=0.09666666666666666@note_on channel=0 note=62 velocity=0 time=0.003333333333333333@note_on channel=0 note=50 velocity=0 time=0@note_on channel=0 note=82 velocity=80 time=0.0016666666666666666@note_on channel=0 note=67 velocity=80 time=0@note_on channel=0 note=52 velocity=80 time=0@note_on channel=0 note=82 velocity=0 time=0.09666666666666666@note_on channel=0 note=81 velocity=80 time=0.0016666666666666666@note_on channel=0 note=81 velocity=0 time=0.09666666666666666@note_on channel=0 note=67 velocity=0 time=0.003333333333333333@note_on channel=0 note=82 velocity=80 time=0.0016666666666666666@note_on channel=0 note=62 velocity=80 time=0@note_on channel=0 note=82 velocity=0 time=0.09666666666666666@note_on channel=0 note=81 velocity=80 time=0.0016666666666666666@note_on channel=0 note=81 velocity=0 time=0.09666666666666666@note_on channel=0 note=62 velocity=0 time=0.003333333333333333@note_on channel=0 note=52 velocity=0 time=0@note_on channel=0 note=82 velocity=80 time=0.0016666666666666666@note_on channel=0 note=61 velocity=80 time=0@note_on channel=0 note=45 velocity=80 time=0@note_on channel=0 note=82 velocity=0 time=0.09666666666666666@note_on channel=0 note=81 velocity=80 time=0.0016666666666666666@note_on channel=0 note=81 velocity=0 time=0.09666666666666666@note_on channel=0 note=61 velocity=0 time=0.003333333333333333@note_on channel=0 note=45 velocity=0 time=0@note_on channel=0 note=82 velocity=80 time=0.0016666666666666666@note_on channel=0 note=62 velocity=80 time=0@note_on channel=0 note=52 velocity=80 time=0@note_on channel=0 note=82 velocity=0 time=0.09666666666666666@note_on channel=0 note=81 velocity=80 time=0.0016666666666666666@note_on channel=0 note=81 velocity=0 time=0.09666666666666666@note_on channel=0 note=62 velocity=0 time=0.003333333333333333@note_on channel=0 note=52 velocity=0 time=0@note_on channel=0 note=82 velocity=80 time=0.0016666666666666666@note_on channel=0 note=69 velocity=80 time=0@note_on channel=0 note=53 velocity=80 time=0@note_on channel=0 note=82 velocity=0 time=0.09666666666666666@note_on channel=0 note=81 velocity=80 time=0.0016666666666666666@note_on channel=0 note=81 velocity=0 time=0.09666666666666666@note_on channel=0 note=69 velocity=0 time=0.003333333333333333@note_on channel=0 note=82 velocity=80 time=0.0016666666666666666@note_on channel=0 note=62 velocity=80 time=0@note_on channel=0 note=82 velocity=0 time=0.09666666666666666@note_on channel=0 note=81 velocity=80 time=0.0016666666666666666@note_on channel=0 note=81 velocity=0 time=0.09666666666666666@note_on channel=0 note=62 velocity=0 time=0.003333333333333333@note_on channel=0 note=53 velocity=0 time=0@note_on channel=0 note=82 velocity=80 time=0.0016666666666666666@note_on channel=0 note=61 velocity=80 time=0@note_on channel=0 note=52 velocity=80 time=0@note_on channel=0 note=82 velocity=0 time=0.09666666666666666@note_on channel=0 note=81 velocity=80 time=0.0016666666666666666@note_on channel=0 note=81 velocity=0 time=0.09666666666666666@note_on channel=0 note=61 velocity=0 time=0.003333333333333333@note_on channel=0 note=52 velocity=0 time=0@note_on channel=0 note=82 velocity=80 time=0.0016666666666666666@note_on channel=0 note=62 velocity=80 time=0@note_on channel=0 note=50 velocity=80 time=0@note_on channel=0 note=82 velocity=0 time=0.09666666666666666@note_on channel=0 note=81 velocity=80 time=0.0016666666666666666@note_on channel=0 note=81 velocity=0 time=0.09666666666666666@note_on channel=0 note=62 velocity=0 time=0.003333333333333333@note_on channel=0 note=50 velocity=0 time=0@note_on channel=0 note=82 velocity=80 time=0.0016666666666666666@note_on channel=0 note=67 velocity=80 time=0@note_on channel=0 note=52 velocity=80 time=0@note_on channel=0 note=82 velocity=0 time=0.09666666666666666@note_on channel=0 note=81 velocity=80 time=0.0016666666666666666@note_on channel=0 note=81 velocity=0 time=0.09666666666666666@note_on channel=0 note=67 velocity=0 time=0.003333333333333333@note_on channel=0 note=82 velocity=80 time=0.0016666666666666666@note_on channel=0 note=62 velocity=80 time=0@note_on channel=0 note=82 velocity=0 time=0.09666666666666666@note_on channel=0 note=81 velocity=80 time=0.0016666666666666666@note_on channel=0 note=81 velocity=0 time=0.09666666666666666@note_on channel=0 note=62 velocity=0 time=0.003333333333333333@note_on channel=0 note=52 velocity=0 time=0@note_on channel=0 note=82 velocity=80 time=0.0016666666666666666@note_on channel=0 note=61 velocity=80 time=0@note_on channel=0 note=45 velocity=80 time=0@note_on channel=0 note=82 velocity=0 time=0.09666666666666666@note_on channel=0 note=81 velocity=80 time=0.0016666666666666666@note_on channel=0 note=81 velocity=0 time=0.09666666666666666@note_on channel=0 note=61 velocity=0 time=0.003333333333333333@note_on channel=0 note=82 velocity=80 time=0.0016666666666666666@note_on channel=0 note=62 velocity=80 time=0@note_on channel=0 note=82 velocity=0 time=0.09666666666666666@note_on channel=0 note=81 velocity=80 time=0.0016666666666666666@note_on channel=0 note=81 velocity=0 time=0.09666666666666666@note_on channel=0 note=62 velocity=0 time=0.003333333333333333@note_on channel=0 note=45 velocity=0 time=0@note_on channel=0 note=82 velocity=80 time=0.0016666666666666666@note_on channel=0 note=65 velocity=80 time=0@note_on channel=0 note=50 velocity=80 time=0@note_on channel=0 note=82 velocity=0 time=0.09666666666666666@note_on channel=0 note=81 velocity=80 time=0.0016666666666666666@note_on channel=0 note=79 velocity=80 time=0.10166666666666666@note_on channel=0 note=79 velocity=0 time=0.19833333333333333@note_on channel=0 note=65 velocity=0 time=0@note_on channel=0 note=50 velocity=0 time=0@note_on channel=0 note=81 velocity=80 time=0.0016666666666666666@note_on channel=0 note=64 velocity=80 time=0@note_on channel=0 note=43 velocity=80 time=0@note_on channel=0 note=81 velocity=0 time=0.19833333333333333@note_on channel=0 note=64 velocity=0 time=0@note_on channel=0 note=82 velocity=80 time=0.0016666666666666666@note_on channel=0 note=62 velocity=80 time=0@note_on channel=0 note=82 velocity=0 time=0.19833333333333333@note_on channel=0 note=62 velocity=0 time=0@note_on channel=0 note=43 velocity=0 time=0@note_on channel=0 note=81 velocity=80 time=0.0016666666666666666@note_on channel=0 note=62 velocity=80 time=0@note_on channel=0 note=45 velocity=80 time=0@note_on channel=0 note=62 velocity=0 time=0.09666666666666666@note_on channel=0 note=61 velocity=80 time=0.0016666666666666666@note_on channel=0 note=61 velocity=0 time=0.09666666666666666@note_on channel=0 note=81 velocity=0 time=0.003333333333333333@note_on channel=0 note=62 velocity=80 time=0@note_on channel=0 note=79 velocity=80 time=0.0016666666666666666@note_on channel=0 note=62 velocity=0 time=0.09499999999999999@note_on channel=0 note=61 velocity=80 time=0.004999999999999999@note_on channel=0 note=61 velocity=0 time=0.09666666666666666@note_on channel=0 note=79 velocity=0 time=0.0016666666666666666@note_on channel=0 note=62 velocity=80 time=0@note_on channel=0 note=77 velocity=80 time=0.0016666666666666666@note_on channel=0 note=62 velocity=0 time=0.09499999999999999@note_on channel=0 note=61 velocity=80 time=0.003333333333333333@note_on channel=0 note=61 velocity=0 time=0.09666666666666666@note_on channel=0 note=77 velocity=0 time=0.003333333333333333@note_on channel=0 note=76 velocity=80 time=0.0016666666666666666@note_on channel=0 note=62 velocity=80 time=0@note_on channel=0 note=76 velocity=0 time=0.19833333333333333@note_on channel=0 note=62 velocity=0 time=0@note_on channel=0 note=45 velocity=0 time=0@note_on channel=0 note=77 velocity=80 time=0.0016666666666666666@note_on channel=0 note=62 velocity=80 time=0@note_on channel=0 note=38 velocity=80 time=0@note_on channel=0 note=62 velocity=0 time=0.19833333333333333@note_on channel=0 note=60 velocity=80 time=0.0016666666666666666@note_on channel=0 note=60 velocity=0 time=0.19833333333333333@note_on channel=0 note=69 velocity=80 time=0.0016666666666666666@note_on channel=0 note=62 velocity=80 time=0@note_on channel=0 note=62 velocity=0 time=0.19833333333333333@note_on channel=0 note=64 velocity=80 time=0.0016666666666666666@note_on channel=0 note=69 velocity=0 time=0.19833333333333333@note_on channel=0 note=64 velocity=0 time=0@note_on channel=0 note=38 velocity=0 time=0@note_on channel=0 note=74 velocity=80 time=0.0016666666666666666@note_on channel=0 note=62 velocity=80 time=0@note_on channel=0 note=62 velocity=0 time=0.19833333333333333@note_on channel=0 note=60 velocity=80 time=0.0016666666666666666@note_on channel=0 note=74 velocity=0 time=0.19833333333333333@note_on channel=0 note=60 velocity=0 time=0@note_on channel=0 note=72 velocity=80 time=0.0016666666666666666@note_on channel=0 note=58 velocity=80 time=0@note_on channel=0 note=58 velocity=0 time=0.19833333333333333@note_on channel=0 note=57 velocity=80 time=0.0016666666666666666@note_on channel=0 note=77 velocity=0 time=0.19833333333333333@note_on channel=0 note=72 velocity=0 time=0@note_on channel=0 note=57 velocity=0 time=0@note_on channel=0 note=70 velocity=80 time=0.0016666666666666666@note_on channel=0 note=55 velocity=80 time=0@note_on channel=0 note=55 velocity=0 time=0.19833333333333333@note_on channel=0 note=53 velocity=80 time=0.0016666666666666666@note_on channel=0 note=53 velocity=0 time=0.19833333333333333@note_on channel=0 note=74 velocity=80 time=0.0016666666666666666@note_on channel=0 note=55 velocity=80 time=0@note_on channel=0 note=55 velocity=0 time=0.19833333333333333@note_on channel=0 note=57 velocity=80 time=0.0016666666666666666@note_on channel=0 note=74 velocity=0 time=0.19833333333333333@note_on channel=0 note=57 velocity=0 time=0@note_on channel=0 note=79 velocity=80 time=0.0016666666666666666@note_on channel=0 note=55 velocity=80 time=0@note_on channel=0 note=55 velocity=0 time=0.19833333333333333@note_on channel=0 note=53 velocity=80 time=0.0016666666666666666@note_on channel=0 note=79 velocity=0 time=0.19833333333333333@note_on channel=0 note=53 velocity=0 time=0@note_on channel=0 note=77 velocity=80 time=0.0016666666666666666@note_on channel=0 note=51 velocity=80 time=0@note_on channel=0 note=51 velocity=0 time=0.19833333333333333@note_on channel=0 note=50 velocity=80 time=0.0016666666666666666@note_on channel=0 note=77 velocity=0 time=0.19833333333333333@note_on channel=0 note=50 velocity=0 time=0@note_on channel=0 note=75 velocity=80 time=0.0016666666666666666@note_on channel=0 note=60 velocity=80 time=0@note_on channel=0 note=60 velocity=0 time=0.19833333333333333@note_on channel=0 note=58 velocity=80 time=0.0016666666666666666@note_on channel=0 note=81 velocity=0 time=0.19499999999999998@note_on channel=0 note=70 velocity=0 time=0.003333333333333333@note_on channel=0 note=58 velocity=0 time=0@note_on channel=0 note=67 velocity=80 time=0.0016666666666666666@note_on channel=0 note=60 velocity=80 time=0@note_on channel=0 note=60 velocity=0 time=0.19833333333333333@note_on channel=0 note=62 velocity=80 time=0.0016666666666666666@note_on channel=0 note=67 velocity=0 time=0.19833333333333333@note_on channel=0 note=62 velocity=0 time=0@note_on channel=0 note=72 velocity=80 time=0.0016666666666666666@note_on channel=0 note=60 velocity=80 time=0@note_on channel=0 note=60 velocity=0 time=0.19833333333333333@note_on channel=0 note=58 velocity=80 time=0.0016666666666666666@note_on channel=0 note=72 velocity=0 time=0.19833333333333333@note_on channel=0 note=58 velocity=0 time=0@note_on channel=0 note=70 velocity=80 time=0.0016666666666666666@note_on channel=0 note=57 velocity=80 time=0@note_on channel=0 note=57 velocity=0 time=0.19833333333333333@note_on channel=0 note=55 velocity=80 time=0.0016666666666666666@note_on channel=0 note=70 velocity=0 time=0.19833333333333333@note_on channel=0 note=55 velocity=0 time=0@note_on channel=0 note=69 velocity=80 time=0.0016666666666666666@note_on channel=0 note=53 velocity=80 time=0@note_on channel=0 note=53 velocity=0 time=0.19833333333333333@note_on channel=0 note=51 velocity=80 time=0.0016666666666666666@note_on channel=0 note=75 velocity=0 time=0.19833333333333333@note_on channel=0 note=51 velocity=0 time=0@note_on channel=0 note=72 velocity=80 time=0.0016666666666666666@note_on channel=0 note=53 velocity=80 time=0@note_on channel=0 note=53 velocity=0 time=0.19833333333333333@note_on channel=0 note=55 velocity=80 time=0.0016666666666666666@note_on channel=0 note=72 velocity=0 time=0.19833333333333333@note_on channel=0 note=55 velocity=0 time=0@note_on channel=0 note=77 velocity=80 time=0.0016666666666666666@note_on channel=0 note=53 velocity=80 time=0@note_on channel=0 note=53 velocity=0 time=0.19833333333333333@note_on channel=0 note=51 velocity=80 time=0.0016666666666666666@note_on channel=0 note=77 velocity=0 time=0.19833333333333333@note_on channel=0 note=51 velocity=0 time=0@note_on channel=0 note=75 velocity=80 time=0.0016666666666666666@note_on channel=0 note=50 velocity=80 time=0@note_on channel=0 note=50 velocity=0 time=0.19833333333333333@note_on channel=0 note=48 velocity=80 time=0.0016666666666666666@note_on channel=0 note=75 velocity=0 time=0.19833333333333333@note_on channel=0 note=48 velocity=0 time=0@note_on channel=0 note=74 velocity=80 time=0.0016666666666666666@note_on channel=0 note=46 velocity=80 time=0@note_on channel=0 note=46 velocity=0 time=0.19833333333333333@note_on channel=0 note=58 velocity=80 time=0.0016666666666666666@note_on channel=0 note=58 velocity=0 time=0.19833333333333333@note_on channel=0 note=60 velocity=80 time=0.0016666666666666666@note_on channel=0 note=60 velocity=0 time=0.19833333333333333@note_on channel=0 note=62 velocity=80 time=0.0016666666666666666@note_on channel=0 note=69 velocity=0 time=0.19833333333333333@note_on channel=0 note=62 velocity=0 time=0@note_on channel=0 note=67 velocity=80 time=0.0016666666666666666@note_on channel=0 note=63 velocity=80 time=0@note_on channel=0 note=74 velocity=0 time=0.19833333333333333@note_on channel=0 note=79 velocity=80 time=0.0016666666666666666@note_on channel=0 note=79 velocity=0 time=0.19833333333333333@note_on channel=0 note=78 velocity=80 time=0.0016666666666666666@note_on channel=0 note=78 velocity=0 time=0.19833333333333333@note_on channel=0 note=79 velocity=80 time=0.0016666666666666666@note_on channel=0 note=79 velocity=0 time=0.19833333333333333@note_on channel=0 note=63 velocity=0 time=0@note_on channel=0 note=72 velocity=80 time=0.0016666666666666666@note_on channel=0 note=57 velocity=80 time=0.19999999999999998@note_on channel=0 note=57 velocity=0 time=0.19833333333333333@note_on channel=0 note=58 velocity=80 time=0.0016666666666666666@note_on channel=0 note=58 velocity=0 time=0.19833333333333333@note_on channel=0 note=60 velocity=80 time=0.0016666666666666666@note_on channel=0 note=67 velocity=0 time=0.19833333333333333@note_on channel=0 note=60 velocity=0 time=0@note_on channel=0 note=66 velocity=80 time=0.0016666666666666666@note_on channel=0 note=62 velocity=80 time=0@note_on channel=0 note=72 velocity=0 time=0.19833333333333333@note_on channel=0 note=70 velocity=80 time=0.0016666666666666666@note_on channel=0 note=70 velocity=0 time=0.19833333333333333@note_on channel=0 note=69 velocity=80 time=0.0016666666666666666@note_on channel=0 note=69 velocity=0 time=0.19833333333333333@note_on channel=0 note=72 velocity=80 time=0.0016666666666666666@note_on channel=0 note=66 velocity=0 time=0.19833333333333333@note_on channel=0 note=72 velocity=0 time=0@note_on channel=0 note=62 velocity=0 time=0@note_on channel=0 note=70 velocity=80 time=0.0016666666666666666@note_on channel=0 note=67 velocity=80 time=0@note_on channel=0 note=55 velocity=80 time=0@note_on channel=0 note=70 velocity=0 time=0.19833333333333333@note_on channel=0 note=69 velocity=80 time=0.0016666666666666666@note_on channel=0 note=67 velocity=0 time=0.19833333333333333@note_on channel=0 note=69 velocity=0 time=0@note_on channel=0 note=67 velocity=80 time=0.0016666666666666666@note_on channel=0 note=67 velocity=0 time=0.19833333333333333@note_on channel=0 note=70 velocity=80 time=0.0016666666666666666@note_on channel=0 note=70 velocity=0 time=0.19833333333333333@note_on channel=0 note=55 velocity=0 time=0@note_on channel=0 note=69 velocity=80 time=0.0016666666666666666@note_on channel=0 note=62 velocity=80 time=0@note_on channel=0 note=69 velocity=0 time=0.19833333333333333@note_on channel=0 note=67 velocity=80 time=0.0016666666666666666@note_on channel=0 note=67 velocity=0 time=0.19833333333333333@note_on channel=0 note=66 velocity=80 time=0.0016666666666666666@note_on channel=0 note=66 velocity=0 time=0.19833333333333333@note_on channel=0 note=69 velocity=80 time=0.0016666666666666666@note_on channel=0 note=69 velocity=0 time=0.19833333333333333@note_on channel=0 note=62 velocity=0 time=0@note_on channel=0 note=67 velocity=80 time=0.0016666666666666666@note_on channel=0 note=58 velocity=80 time=0@note_on channel=0 note=67 velocity=0 time=0.19833333333333333@note_on channel=0 note=62 velocity=80 time=0.0016666666666666666@note_on channel=0 note=62 velocity=0 time=0.19833333333333333@note_on channel=0 note=64 velocity=80 time=0.0016666666666666666@note_on channel=0 note=64 velocity=0 time=0.19833333333333333@note_on channel=0 note=66 velocity=80 time=0.0016666666666666666@note_on channel=0 note=66 velocity=0 time=0.19833333333333333@note_on channel=0 note=67 velocity=80 time=0.0016666666666666666@note_on channel=0 note=67 velocity=0 time=0.19833333333333333@note_on channel=0 note=62 velocity=80 time=0.0016666666666666666@note_on channel=0 note=62 velocity=0 time=0.19833333333333333@note_on channel=0 note=58 velocity=0 time=0@note_on channel=0 note=67 velocity=80 time=0.0016666666666666666@note_on channel=0 note=57 velocity=80 time=0@note_on channel=0 note=67 velocity=0 time=0.19833333333333333@note_on channel=0 note=69 velocity=80 time=0.0016666666666666666@note_on channel=0 note=69 velocity=0 time=0.19833333333333333@note_on channel=0 note=57 velocity=0 time=0@note_on channel=0 note=70 velocity=80 time=0.0016666666666666666@note_on channel=0 note=55 velocity=80 time=0@note_on channel=0 note=70 velocity=0 time=0.19833333333333333@note_on channel=0 note=55 velocity=0 time=0@note_on channel=0 note=67 velocity=80 time=0.0016666666666666666@note_on channel=0 note=58 velocity=80 time=0@note_on channel=0 note=67 velocity=0 time=0.19833333333333333@note_on channel=0 note=58 velocity=0 time=0@note_on channel=0 note=70 velocity=80 time=0.0016666666666666666@note_on channel=0 note=57 velocity=80 time=0@note_on channel=0 note=70 velocity=0 time=0.19833333333333333@note_on channel=0 note=57 velocity=0 time=0@note_on channel=0 note=72 velocity=80 time=0.0016666666666666666@note_on channel=0 note=55 velocity=80 time=0@note_on channel=0 note=72 velocity=0 time=0.19833333333333333@note_on channel=0 note=55 velocity=0 time=0@note_on channel=0 note=74 velocity=80 time=0.0016666666666666666@note_on channel=0 note=54 velocity=80 time=0@note_on channel=0 note=74 velocity=0 time=0.19833333333333333@note_on channel=0 note=54 velocity=0 time=0@note_on channel=0 note=69 velocity=80 time=0.0016666666666666666@note_on channel=0 note=55 velocity=80 time=0@note_on channel=0 note=69 velocity=0 time=0.19833333333333333@note_on channel=0 note=55 velocity=0 time=0@note_on channel=0 note=74 velocity=80 time=0.0016666666666666666@note_on channel=0 note=52 velocity=80 time=0@note_on channel=0 note=74 velocity=0 time=0.19833333333333333@note_on channel=0 note=52 velocity=0 time=0@note_on channel=0 note=72 velocity=80 time=0.0016666666666666666@note_on channel=0 note=54 velocity=80 time=0@note_on channel=0 note=72 velocity=0 time=0.19833333333333333@note_on channel=0 note=54 velocity=0 time=0@note_on channel=0 note=70 velocity=80 time=0.0016666666666666666@note_on channel=0 note=55 velocity=80 time=0@note_on channel=0 note=55 velocity=0 time=0.19833333333333333@note_on channel=0 note=50 velocity=80 time=0.0016666666666666666@note_on channel=0 note=50 velocity=0 time=0.19833333333333333@note_on channel=0 note=52 velocity=80 time=0.0016666666666666666@note_on channel=0 note=43 velocity=80 time=0@note_on channel=0 note=52 velocity=0 time=0.19833333333333333@note_on channel=0 note=54 velocity=80 time=0.0016666666666666666@note_on channel=0 note=54 velocity=0 time=0.19833333333333333@note_on channel=0 note=43 velocity=0 time=0@note_on channel=0 note=55 velocity=80 time=0.0016666666666666666@note_on channel=0 note=55 velocity=80 time=0@note_on channel=0 note=55 velocity=0 time=0.19833333333333333@note_on channel=0 note=50 velocity=80 time=0.0016666666666666666@note_on channel=0 note=70 velocity=0 time=0.19833333333333333@note_on channel=0 note=50 velocity=0 time=0@note_on channel=0 note=55 velocity=0 time=0@note_on channel=0 note=69 velocity=80 time=0.0016666666666666666@note_on channel=0 note=55 velocity=80 time=0@note_on channel=0 note=53 velocity=80 time=0@note_on channel=0 note=55 velocity=0 time=0.19833333333333333@note_on channel=0 note=57 velocity=80 time=0.0016666666666666666@note_on channel=0 note=69 velocity=0 time=0.19833333333333333@note_on channel=0 note=57 velocity=0 time=0@note_on channel=0 note=53 velocity=0 time=0@note_on channel=0 note=67 velocity=80 time=0.0016666666666666666@note_on channel=0 note=58 velocity=80 time=0@note_on channel=0 note=51 velocity=80 time=0@note_on channel=0 note=58 velocity=0 time=0.19833333333333333@note_on channel=0 note=60 velocity=80 time=0.0016666666666666666@note_on channel=0 note=67 velocity=0 time=0.19833333333333333@note_on channel=0 note=60 velocity=0 time=0@note_on channel=0 note=51 velocity=0 time=0@note_on channel=0 note=70 velocity=80 time=0.0016666666666666666@note_on channel=0 note=58 velocity=80 time=0@note_on channel=0 note=58 velocity=0 time=0.19833333333333333@note_on channel=0 note=60 velocity=80 time=0.0016666666666666666@note_on channel=0 note=70 velocity=0 time=0.19833333333333333@note_on channel=0 note=60 velocity=0 time=0@note_on channel=0 note=69 velocity=80 time=0.0016666666666666666@note_on channel=0 note=62 velocity=80 time=0@note_on channel=0 note=39 velocity=80 time=0@note_on channel=0 note=62 velocity=0 time=0.09666666666666666@note_on channel=0 note=60 velocity=80 time=0.0016666666666666666@note_on channel=0 note=60 velocity=0 time=0.09666666666666666@note_on channel=0 note=62 velocity=80 time=0.003333333333333333@note_on channel=0 note=62 velocity=0 time=0.09666666666666666@note_on channel=0 note=60 velocity=80 time=0.004999999999999999@note_on channel=0 note=60 velocity=0 time=0.09666666666666666@note_on channel=0 note=69 velocity=0 time=0.0016666666666666666@note_on channel=0 note=62 velocity=80 time=0@note_on channel=0 note=39 velocity=0 time=0@note_on channel=0 note=67 velocity=80 time=0.0016666666666666666@note_on channel=0 note=62 velocity=0 time=0.09499999999999999@note_on channel=0 note=60 velocity=80 time=0.003333333333333333@note_on channel=0 note=60 velocity=0 time=0.09666666666666666@note_on channel=0 note=58 velocity=80 time=0.004999999999999999@note_on channel=0 note=58 velocity=0 time=0.09833333333333333@note_on channel=0 note=60 velocity=80 time=0.0016666666666666666@note_on channel=0 note=67 velocity=0 time=0.09833333333333333@note_on channel=0 note=60 velocity=0 time=0@note_on channel=0 note=66 velocity=80 time=0.0016666666666666666@note_on channel=0 note=62 velocity=80 time=0@note_on channel=0 note=38 velocity=80 time=0@note_on channel=0 note=62 velocity=0 time=0.19833333333333333@note_on channel=0 note=60 velocity=80 time=0.0016666666666666666@note_on channel=0 note=66 velocity=0 time=0.19833333333333333@note_on channel=0 note=60 velocity=0 time=0@note_on channel=0 note=38 velocity=0 time=0@note_on channel=0 note=69 velocity=80 time=0.0016666666666666666@note_on channel=0 note=62 velocity=80 time=0@note_on channel=0 note=50 velocity=80 time=0@note_on channel=0 note=62 velocity=0 time=0.19833333333333333@note_on channel=0 note=63 velocity=80 time=0.0016666666666666666@note_on channel=0 note=69 velocity=0 time=0.19833333333333333@note_on channel=0 note=63 velocity=0 time=0@note_on channel=0 note=50 velocity=0 time=0@note_on channel=0 note=62 velocity=80 time=0.0016666666666666666@note_on channel=0 note=62 velocity=80 time=0@note_on channel=0 note=50 velocity=80 time=0@note_on channel=0 note=62 velocity=0 time=0.19833333333333333@note_on channel=0 note=60 velocity=80 time=0.0016666666666666666@note_on channel=0 note=60 velocity=0 time=0.19833333333333333@note_on channel=0 note=58 velocity=80 time=0.0016666666666666666@note_on channel=0 note=58 velocity=0 time=0.19833333333333333@note_on channel=0 note=57 velocity=80 time=0.0016666666666666666@note_on channel=0 note=62 velocity=0 time=0.19833333333333333@note_on channel=0 note=57 velocity=0 time=0@note_on channel=0 note=67 velocity=80 time=0.0016666666666666666@note_on channel=0 note=58 velocity=80 time=0@note_on channel=0 note=58 velocity=0 time=0.19833333333333333@note_on channel=0 note=62 velocity=80 time=0.0016666666666666666@note_on channel=0 note=67 velocity=0 time=0.19833333333333333@note_on channel=0 note=62 velocity=0 time=0@note_on channel=0 note=62 velocity=80 time=0.0016666666666666666@note_on channel=0 note=60 velocity=80 time=0@note_on channel=0 note=60 velocity=0 time=0.19833333333333333@note_on channel=0 note=62 velocity=80 time=0.0016666666666666666@note_on channel=0 note=62 velocity=0 time=0.19833333333333333@note_on channel=0 note=62 velocity=0 time=0@note_on channel=0 note=69 velocity=80 time=0.0016666666666666666@note_on channel=0 note=54 velocity=80 time=0@note_on channel=0 note=54 velocity=0 time=0.19833333333333333@note_on channel=0 note=62 velocity=80 time=0.0016666666666666666@note_on channel=0 note=69 velocity=0 time=0.19833333333333333@note_on channel=0 note=62 velocity=0 time=0@note_on channel=0 note=62 velocity=80 time=0.0016666666666666666@note_on channel=0 note=60 velocity=80 time=0@note_on channel=0 note=60 velocity=0 time=0.19833333333333333@note_on channel=0 note=62 velocity=80 time=0.0016666666666666666@note_on channel=0 note=62 velocity=0 time=0.19833333333333333@note_on channel=0 note=62 velocity=0 time=0@note_on channel=0 note=70 velocity=80 time=0.0016666666666666666@note_on channel=0 note=55 velocity=80 time=0@note_on channel=0 note=55 velocity=0 time=0.19833333333333333@note_on channel=0 note=62 velocity=80 time=0.0016666666666666666@note_on channel=0 note=70 velocity=0 time=0.19833333333333333@note_on channel=0 note=62 velocity=0 time=0@note_on channel=0 note=69 velocity=80 time=0.0016666666666666666@note_on channel=0 note=60 velocity=80 time=0@note_on channel=0 note=69 velocity=0 time=0.19833333333333333@note_on channel=0 note=60 velocity=0 time=0@note_on channel=0 note=67 velocity=80 time=0.0016666666666666666@note_on channel=0 note=62 velocity=80 time=0@note_on channel=0 note=67 velocity=0 time=0.19833333333333333@note_on channel=0 note=62 velocity=0 time=0@note_on channel=0 note=69 velocity=80 time=0.0016666666666666666@note_on channel=0 note=54 velocity=80 time=0@note_on channel=0 note=54 velocity=0 time=0.19833333333333333@note_on channel=0 note=62 velocity=80 time=0.0016666666666666666@note_on channel=0 note=69 velocity=0 time=0.19833333333333333@note_on channel=0 note=62 velocity=0 time=0@note_on channel=0 note=62 velocity=80 time=0.0016666666666666666@note_on channel=0 note=60 velocity=80 time=0@note_on channel=0 note=60 velocity=0 time=0.19833333333333333@note_on channel=0 note=62 velocity=80 time=0.0016666666666666666@note_on channel=0 note=62 velocity=0 time=0.19833333333333333@note_on channel=0 note=62 velocity=0 time=0@note_on channel=0 note=67 velocity=80 time=0.0016666666666666666@note_on channel=0 note=58 velocity=80 time=0@note_on channel=0 note=58 velocity=0 time=0.19833333333333333@note_on channel=0 note=55 velocity=80 time=0.0016666666666666666@note_on channel=0 note=67 velocity=0 time=0.19833333333333333@note_on channel=0 note=55 velocity=0 time=0@note_on channel=0 note=62 velocity=80 time=0.0016666666666666666@note_on channel=0 note=54 velocity=80 time=0@note_on channel=0 note=62 velocity=0 time=0.19833333333333333@note_on channel=0 note=54 velocity=0 time=0@note_on channel=0 note=67 velocity=80 time=0.0016666666666666666@note_on channel=0 note=55 velocity=80 time=0@note_on channel=0 note=67 velocity=0 time=0.19833333333333333@note_on channel=0 note=55 velocity=0 time=0@note_on channel=0 note=69 velocity=80 time=0.0016666666666666666@note_on channel=0 note=60 velocity=80 time=0@note_on channel=0 note=60 velocity=0 time=0.19833333333333333@note_on channel=0 note=55 velocity=80 time=0.0016666666666666666@note_on channel=0 note=69 velocity=0 time=0.19833333333333333@note_on channel=0 note=55 velocity=0 time=0@note_on channel=0 note=62 velocity=80 time=0.0016666666666666666@note_on channel=0 note=54 velocity=80 time=0@note_on channel=0 note=62 velocity=0 time=0.19833333333333333@note_on channel=0 note=54 velocity=0 time=0@note_on channel=0 note=69 velocity=80 time=0.0016666666666666666@note_on channel=0 note=55 velocity=80 time=0@note_on channel=0 note=69 velocity=0 time=0.19833333333333333@note_on channel=0 note=55 velocity=0 time=0@note_on channel=0 note=70 velocity=80 time=0.0016666666666666666@note_on channel=0 note=62 velocity=80 time=0@note_on channel=0 note=62 velocity=0 time=0.19833333333333333@note_on channel=0 note=55 velocity=80 time=0.0016666666666666666@note_on channel=0 note=70 velocity=0 time=0.19833333333333333@note_on channel=0 note=55 velocity=0 time=0@note_on channel=0 note=69 velocity=80 time=0.0016666666666666666@note_on channel=0 note=54 velocity=80 time=0@note_on channel=0 note=69 velocity=0 time=0.19833333333333333@note_on channel=0 note=54 velocity=0 time=0@note_on channel=0 note=67 velocity=80 time=0.0016666666666666666@note_on channel=0 note=55 velocity=80 time=0@note_on channel=0 note=67 velocity=0 time=0.19833333333333333@note_on channel=0 note=55 velocity=0 time=0@note_on channel=0 note=69 velocity=80 time=0.0016666666666666666@note_on channel=0 note=60 velocity=80 time=0@note_on channel=0 note=69 velocity=0 time=0.19833333333333333@note_on channel=0 note=60 velocity=0 time=0@note_on channel=0 note=62 velocity=80 time=0.0016666666666666666@note_on channel=0 note=55 velocity=80 time=0@note_on channel=0 note=62 velocity=0 time=0.19833333333333333@note_on channel=0 note=55 velocity=0 time=0@note_on channel=0 note=74 velocity=80 time=0.0016666666666666666@note_on channel=0 note=54 velocity=80 time=0@note_on channel=0 note=74 velocity=0 time=0.19833333333333333@note_on channel=0 note=54 velocity=0 time=0@note_on channel=0 note=72 velocity=80 time=0.0016666666666666666@note_on channel=0 note=55 velocity=80 time=0@note_on channel=0 note=72 velocity=0 time=0.19833333333333333@note_on channel=0 note=55 velocity=0 time=0@note_on channel=0 note=70 velocity=80 time=0.0016666666666666666@note_on channel=0 note=55 velocity=80 time=0@note_on channel=0 note=70 velocity=0 time=0.19833333333333333@note_on channel=0 note=69 velocity=80 time=0.0016666666666666666@note_on channel=0 note=69 velocity=0 time=0.19833333333333333@note_on channel=0 note=55 velocity=0 time=0@note_on channel=0 note=67 velocity=80 time=0.0016666666666666666@note_on channel=0 note=58 velocity=80 time=0@note_on channel=0 note=67 velocity=0 time=0.19833333333333333@note_on channel=0 note=70 velocity=80 time=0.0016666666666666666@note_on channel=0 note=70 velocity=0 time=0.19833333333333333@note_on channel=0 note=58 velocity=0 time=0@note_on channel=0 note=69 velocity=80 time=0.0016666666666666666@note_on channel=0 note=60 velocity=80 time=0@note_on channel=0 note=69 velocity=0 time=0.19833333333333333@note_on channel=0 note=60 velocity=0 time=0@note_on channel=0 note=67 velocity=80 time=0.0016666666666666666@note_on channel=0 note=58 velocity=80 time=0@note_on channel=0 note=67 velocity=0 time=0.19833333333333333@note_on channel=0 note=58 velocity=0 time=0@note_on channel=0 note=66 velocity=80 time=0.0016666666666666666@note_on channel=0 note=57 velocity=80 time=0@note_on channel=0 note=66 velocity=0 time=0.19833333333333333@note_on channel=0 note=57 velocity=0 time=0@note_on channel=0 note=69 velocity=80 time=0.0016666666666666666@note_on channel=0 note=60 velocity=80 time=0@note_on channel=0 note=69 velocity=0 time=0.19833333333333333@note_on channel=0 note=60 velocity=0 time=0@note_on channel=0 note=67 velocity=80 time=0.0016666666666666666@note_on channel=0 note=58 velocity=80 time=0@note_on channel=0 note=67 velocity=0 time=0.19833333333333333@note_on channel=0 note=70 velocity=80 time=0.0016666666666666666@note_on channel=0 note=70 velocity=0 time=0.19833333333333333@note_on channel=0 note=72 velocity=80 time=0.0016666666666666666@note_on channel=0 note=72 velocity=0 time=0.19833333333333333@note_on channel=0 note=74 velocity=80 time=0.0016666666666666666@note_on channel=0 note=74 velocity=0 time=0.19833333333333333@note_on channel=0 note=50 velocity=0 time=0@note_on channel=0 note=75 velocity=80 time=0.0016666666666666666@note_on channel=0 note=48 velocity=80 time=0@note_on channel=0 note=75 velocity=0 time=0.19833333333333333@note_on channel=0 note=58 velocity=0 time=0@note_on channel=0 note=70 velocity=80 time=0.0016666666666666666@note_on channel=0 note=62 velocity=80 time=0@note_on channel=0 note=70 velocity=0 time=0.19833333333333333@note_on channel=0 note=62 velocity=0 time=0@note_on channel=0 note=69 velocity=80 time=0.0016666666666666666@note_on channel=0 note=60 velocity=80 time=0@note_on channel=0 note=69 velocity=0 time=0.19833333333333333@note_on channel=0 note=60 velocity=0 time=0@note_on channel=0 note=67 velocity=80 time=0.0016666666666666666@note_on channel=0 note=58 velocity=80 time=0@note_on channel=0 note=67 velocity=0 time=0.19833333333333333@note_on channel=0 note=58 velocity=0 time=0@note_on channel=0 note=66 velocity=80 time=0.0016666666666666666@note_on channel=0 note=57 velocity=80 time=0@note_on channel=0 note=66 velocity=0 time=0.19833333333333333@note_on channel=0 note=69 velocity=80 time=0.0016666666666666666@note_on channel=0 note=69 velocity=0 time=0.19833333333333333@note_on channel=0 note=70 velocity=80 time=0.0016666666666666666@note_on channel=0 note=70 velocity=0 time=0.19833333333333333@note_on channel=0 note=72 velocity=80 time=0.0016666666666666666@note_on channel=0 note=72 velocity=0 time=0.19833333333333333@note_on channel=0 note=48 velocity=0 time=0@note_on channel=0 note=74 velocity=80 time=0.0016666666666666666@note_on channel=0 note=46 velocity=80 time=0@note_on channel=0 note=74 velocity=0 time=0.19833333333333333@note_on channel=0 note=57 velocity=0 time=0@note_on channel=0 note=69 velocity=80 time=0.0016666666666666666@note_on channel=0 note=60 velocity=80 time=0@note_on channel=0 note=69 velocity=0 time=0.19833333333333333@note_on channel=0 note=60 velocity=0 time=0@note_on channel=0 note=67 velocity=80 time=0.0016666666666666666@note_on channel=0 note=58 velocity=80 time=0@note_on channel=0 note=67 velocity=0 time=0.19833333333333333@note_on channel=0 note=58 velocity=0 time=0@note_on channel=0 note=65 velocity=80 time=0.0016666666666666666@note_on channel=0 note=57 velocity=80 time=0@note_on channel=0 note=65 velocity=0 time=0.19833333333333333@note_on channel=0 note=57 velocity=0 time=0@note_on channel=0 note=63 velocity=80 time=0.0016666666666666666@note_on channel=0 note=55 velocity=80 time=0@note_on channel=0 note=63 velocity=0 time=0.19833333333333333@note_on channel=0 note=67 velocity=80 time=0.0016666666666666666@note_on channel=0 note=67 velocity=0 time=0.19833333333333333@note_on channel=0 note=69 velocity=80 time=0.0016666666666666666@note_on channel=0 note=69 velocity=0 time=0.19833333333333333@note_on channel=0 note=70 velocity=80 time=0.0016666666666666666@note_on channel=0 note=70 velocity=0 time=0.19833333333333333@note_on channel=0 note=46 velocity=0 time=0@note_on channel=0 note=72 velocity=80 time=0.0016666666666666666@note_on channel=0 note=45 velocity=80 time=0@note_on channel=0 note=72 velocity=0 time=0.19833333333333333@note_on channel=0 note=55 velocity=0 time=0@note_on channel=0 note=67 velocity=80 time=0.0016666666666666666@note_on channel=0 note=58 velocity=80 time=0@note_on channel=0 note=67 velocity=0 time=0.19833333333333333@note_on channel=0 note=58 velocity=0 time=0@note_on channel=0 note=65 velocity=80 time=0.0016666666666666666@note_on channel=0 note=57 velocity=80 time=0@note_on channel=0 note=65 velocity=0 time=0.19833333333333333@note_on channel=0 note=57 velocity=0 time=0@note_on channel=0 note=63 velocity=80 time=0.0016666666666666666@note_on channel=0 note=55 velocity=80 time=0@note_on channel=0 note=63 velocity=0 time=0.19833333333333333@note_on channel=0 note=55 velocity=0 time=0@note_on channel=0 note=45 velocity=0 time=0@note_on channel=0 note=62 velocity=80 time=0.0016666666666666666@note_on channel=0 note=53 velocity=80 time=0@note_on channel=0 note=46 velocity=80 time=0@note_on channel=0 note=62 velocity=0 time=0.19833333333333333@note_on channel=0 note=65 velocity=80 time=0.0016666666666666666@note_on channel=0 note=65 velocity=0 time=0.19833333333333333@note_on channel=0 note=46 velocity=0 time=0@note_on channel=0 note=67 velocity=80 time=0.0016666666666666666@note_on channel=0 note=45 velocity=80 time=0@note_on channel=0 note=67 velocity=0 time=0.19833333333333333@note_on channel=0 note=69 velocity=80 time=0.0016666666666666666@note_on channel=0 note=69 velocity=0 time=0.19833333333333333@note_on channel=0 note=45 velocity=0 time=0@note_on channel=0 note=70 velocity=80 time=0.0016666666666666666@note_on channel=0 note=43 velocity=80 time=0@note_on channel=0 note=70 velocity=0 time=0.19833333333333333@note_on channel=0 note=74 velocity=80 time=0.0016666666666666666@note_on channel=0 note=74 velocity=0 time=0.19833333333333333@note_on channel=0 note=53 velocity=0 time=0@note_on channel=0 note=72 velocity=80 time=0.0016666666666666666@note_on channel=0 note=52 velocity=80 time=0@note_on channel=0 note=72 velocity=0 time=0.19833333333333333@note_on channel=0 note=70 velocity=80 time=0.0016666666666666666@note_on channel=0 note=70 velocity=0 time=0.19833333333333333@note_on channel=0 note=52 velocity=0 time=0@note_on channel=0 note=43 velocity=0 time=0@note_on channel=0 note=69 velocity=80 time=0.0016666666666666666@note_on channel=0 note=53 velocity=80 time=0@note_on channel=0 note=41 velocity=80 time=0@note_on channel=0 note=69 velocity=0 time=0.19833333333333333@note_on channel=0 note=72 velocity=80 time=0.0016666666666666666@note_on channel=0 note=72 velocity=0 time=0.19833333333333333@note_on channel=0 note=53 velocity=0 time=0@note_on channel=0 note=74 velocity=80 time=0.0016666666666666666@note_on channel=0 note=51 velocity=80 time=0@note_on channel=0 note=74 velocity=0 time=0.19833333333333333@note_on channel=0 note=75 velocity=80 time=0.0016666666666666666@note_on channel=0 note=75 velocity=0 time=0.19833333333333333@note_on channel=0 note=51 velocity=0 time=0@note_on channel=0 note=41 velocity=0 time=0@note_on channel=0 note=77 velocity=80 time=0.0016666666666666666@note_on channel=0 note=50 velocity=80 time=0@note_on channel=0 note=77 velocity=0 time=0.19833333333333333@note_on channel=0 note=79 velocity=80 time=0.0016666666666666666@note_on channel=0 note=79 velocity=0 time=0.19833333333333333@note_on channel=0 note=50 velocity=0 time=0@note_on channel=0 note=77 velocity=80 time=0.0016666666666666666@note_on channel=0 note=48 velocity=80 time=0@note_on channel=0 note=77 velocity=0 time=0.19833333333333333@note_on channel=0 note=75 velocity=80 time=0.0016666666666666666@note_on channel=0 note=75 velocity=0 time=0.19833333333333333@note_on channel=0 note=48 velocity=0 time=0@note_on channel=0 note=74 velocity=80 time=0.0016666666666666666@note_on channel=0 note=58 velocity=80 time=0@note_on channel=0 note=46 velocity=80 time=0@note_on channel=0 note=74 velocity=0 time=0.19833333333333333@note_on channel=0 note=77 velocity=80 time=0.0016666666666666666@note_on channel=0 note=77 velocity=0 time=0.19833333333333333@note_on channel=0 note=75 velocity=80 time=0.0016666666666666666@note_on channel=0 note=75 velocity=0 time=0.19833333333333333@note_on channel=0 note=74 velocity=80 time=0.0016666666666666666@note_on channel=0 note=58 velocity=0 time=0.19833333333333333@note_on channel=0 note=74 velocity=0 time=0@note_on channel=0 note=46 velocity=0 time=0@note_on channel=0 note=72 velocity=80 time=0.0016666666666666666@note_on channel=0 note=65 velocity=80 time=0@note_on channel=0 note=72 velocity=0 time=0.19833333333333333@note_on channel=0 note=70 velocity=80 time=0.0016666666666666666@note_on channel=0 note=70 velocity=0 time=0.19833333333333333@note_on channel=0 note=69 velocity=80 time=0.0016666666666666666@note_on channel=0 note=69 velocity=0 time=0.19833333333333333@note_on channel=0 note=72 velocity=80 time=0.0016666666666666666@note_on channel=0 note=65 velocity=0 time=0.19833333333333333@note_on channel=0 note=72 velocity=0 time=0@note_on channel=0 note=70 velocity=80 time=0.0016666666666666666@note_on channel=0 note=62 velocity=80 time=0@note_on channel=0 note=70 velocity=0 time=0.19833333333333333@note_on channel=0 note=65 velocity=80 time=0.0016666666666666666@note_on channel=0 note=65 velocity=0 time=0.19833333333333333@note_on channel=0 note=67 velocity=80 time=0.0016666666666666666@note_on channel=0 note=60 velocity=80 time=0@note_on channel=0 note=67 velocity=0 time=0.19833333333333333@note_on channel=0 note=69 velocity=80 time=0.0016666666666666666@note_on channel=0 note=69 velocity=0 time=0.19833333333333333@note_on channel=0 note=60 velocity=0 time=0@note_on channel=0 note=70 velocity=80 time=0.0016666666666666666@note_on channel=0 note=58 velocity=80 time=0@note_on channel=0 note=70 velocity=0 time=0.19833333333333333@note_on channel=0 note=72 velocity=80 time=0.0016666666666666666@note_on channel=0 note=62 velocity=0 time=0.19833333333333333@note_on channel=0 note=72 velocity=0 time=0@note_on channel=0 note=58 velocity=0 time=0@note_on channel=0 note=70 velocity=80 time=0.0016666666666666666@note_on channel=0 note=60 velocity=80 time=0@note_on channel=0 note=57 velocity=80 time=0@note_on channel=0 note=70 velocity=0 time=0.19833333333333333@note_on channel=0 note=72 velocity=80 time=0.0016666666666666666@note_on channel=0 note=60 velocity=0 time=0.19833333333333333@note_on channel=0 note=72 velocity=0 time=0@note_on channel=0 note=57 velocity=0 time=0@note_on channel=0 note=74 velocity=80 time=0.0016666666666666666@note_on channel=0 note=58 velocity=80 time=0@note_on channel=0 note=55 velocity=80 time=0@note_on channel=0 note=74 velocity=0 time=0.19833333333333333@note_on channel=0 note=76 velocity=80 time=0.0016666666666666666@note_on channel=0 note=76 velocity=0 time=0.19833333333333333@note_on channel=0 note=58 velocity=0 time=0@note_on channel=0 note=74 velocity=80 time=0.0016666666666666666@note_on channel=0 note=62 velocity=80 time=0@note_on channel=0 note=74 velocity=0 time=0.19833333333333333@note_on channel=0 note=76 velocity=80 time=0.0016666666666666666@note_on channel=0 note=76 velocity=0 time=0.19833333333333333@note_on channel=0 note=62 velocity=0 time=0@note_on channel=0 note=77 velocity=80 time=0.0016666666666666666@note_on channel=0 note=60 velocity=80 time=0@note_on channel=0 note=77 velocity=0 time=0.09666666666666666@note_on channel=0 note=76 velocity=80 time=0.0016666666666666666@note_on channel=0 note=76 velocity=0 time=0.09666666666666666@note_on channel=0 note=77 velocity=80 time=0.003333333333333333@note_on channel=0 note=77 velocity=0 time=0.09666666666666666@note_on channel=0 note=76 velocity=80 time=0.004999999999999999@note_on channel=0 note=76 velocity=0 time=0.09666666666666666@note_on channel=0 note=77 velocity=80 time=0.0016666666666666666@note_on channel=0 note=60 velocity=0 time=0@note_on channel=0 note=58 velocity=80 time=0.0016666666666666666@note_on channel=0 note=77 velocity=0 time=0.09499999999999999@note_on channel=0 note=76 velocity=80 time=0.003333333333333333@note_on channel=0 note=76 velocity=0 time=0.09666666666666666@note_on channel=0 note=74 velocity=80 time=0.004999999999999999@note_on channel=0 note=74 velocity=0 time=0.09833333333333333@note_on channel=0 note=76 velocity=80 time=0.0016666666666666666@note_on channel=0 note=76 velocity=0 time=0.09833333333333333@note_on channel=0 note=55 velocity=0 time=0@note_on channel=0 note=58 velocity=0 time=0@note_on channel=0 note=77 velocity=80 time=0.0016666666666666666@note_on channel=0 note=57 velocity=80 time=0@note_on channel=0 note=53 velocity=80 time=0@note_on channel=0 note=77 velocity=0 time=0.19833333333333333@note_on channel=0 note=75 velocity=80 time=0.0016666666666666666@note_on channel=0 note=75 velocity=0 time=0.19833333333333333@note_on channel=0 note=57 velocity=0 time=0@note_on channel=0 note=77 velocity=80 time=0.0016666666666666666@note_on channel=0 note=60 velocity=80 time=0@note_on channel=0 note=77 velocity=0 time=0.19833333333333333@note_on channel=0 note=79 velocity=80 time=0.0016666666666666666@note_on channel=0 note=79 velocity=0 time=0.19833333333333333@note_on channel=0 note=53 velocity=0 time=0@note_on channel=0 note=60 velocity=0 time=0@note_on channel=0 note=77 velocity=80 time=0.0016666666666666666@note_on channel=0 note=53 velocity=80 time=0@note_on channel=0 note=77 velocity=0 time=0.19833333333333333@note_on channel=0 note=75 velocity=80 time=0.0016666666666666666@note_on channel=0 note=75 velocity=0 time=0.19833333333333333@note_on channel=0 note=74 velocity=80 time=0.0016666666666666666@note_on channel=0 note=65 velocity=80 time=0@note_on channel=0 note=74 velocity=0 time=0.19833333333333333@note_on channel=0 note=72 velocity=80 time=0.0016666666666666666@note_on channel=0 note=65 velocity=0 time=0.19833333333333333@note_on channel=0 note=72 velocity=0 time=0@note_on channel=0 note=53 velocity=0 time=0@note_on channel=0 note=74 velocity=80 time=0.0016666666666666666@note_on channel=0 note=65 velocity=80 time=0@note_on channel=0 note=58 velocity=80 time=0@note_on channel=0 note=74 velocity=0 time=0.19833333333333333@note_on channel=0 note=77 velocity=80 time=0.0016666666666666666@note_on channel=0 note=77 velocity=0 time=0.19833333333333333@note_on channel=0 note=58 velocity=0 time=0@note_on channel=0 note=75 velocity=80 time=0.0016666666666666666@note_on channel=0 note=53 velocity=80 time=0@note_on channel=0 note=75 velocity=0 time=0.19833333333333333@note_on channel=0 note=77 velocity=80 time=0.0016666666666666666@note_on channel=0 note=77 velocity=0 time=0.19833333333333333@note_on channel=0 note=53 velocity=0 time=0@note_on channel=0 note=69 velocity=80 time=0.0016666666666666666@note_on channel=0 note=60 velocity=80 time=0@note_on channel=0 note=69 velocity=0 time=0.19833333333333333@note_on channel=0 note=77 velocity=80 time=0.0016666666666666666@note_on channel=0 note=77 velocity=0 time=0.19833333333333333@note_on channel=0 note=60 velocity=0 time=0@note_on channel=0 note=75 velocity=80 time=0.0016666666666666666@note_on channel=0 note=53 velocity=80 time=0@note_on channel=0 note=75 velocity=0 time=0.19833333333333333@note_on channel=0 note=77 velocity=80 time=0.0016666666666666666@note_on channel=0 note=77 velocity=0 time=0.19833333333333333@note_on channel=0 note=53 velocity=0 time=0@note_on channel=0 note=70 velocity=80 time=0.0016666666666666666@note_on channel=0 note=62 velocity=80 time=0@note_on channel=0 note=70 velocity=0 time=0.19833333333333333@note_on channel=0 note=77 velocity=80 time=0.0016666666666666666@note_on channel=0 note=77 velocity=0 time=0.19833333333333333@note_on channel=0 note=62 velocity=0 time=0@note_on channel=0 note=75 velocity=80 time=0.0016666666666666666@note_on channel=0 note=60 velocity=80 time=0@note_on channel=0 note=75 velocity=0 time=0.19833333333333333@note_on channel=0 note=60 velocity=0 time=0@note_on channel=0 note=77 velocity=80 time=0.0016666666666666666@note_on channel=0 note=58 velocity=80 time=0@note_on channel=0 note=77 velocity=0 time=0.19833333333333333@note_on channel=0 note=58 velocity=0 time=0@note_on channel=0 note=69 velocity=80 time=0.0016666666666666666@note_on channel=0 note=60 velocity=80 time=0@note_on channel=0 note=69 velocity=0 time=0.19833333333333333@note_on channel=0 note=77 velocity=80 time=0.0016666666666666666@note_on channel=0 note=77 velocity=0 time=0.19833333333333333@note_on channel=0 note=60 velocity=0 time=0@note_on channel=0 note=75 velocity=80 time=0.0016666666666666666@note_on channel=0 note=53 velocity=80 time=0@note_on channel=0 note=75 velocity=0 time=0.19833333333333333@note_on channel=0 note=77 velocity=80 time=0.0016666666666666666@note_on channel=0 note=77 velocity=0 time=0.19833333333333333@note_on channel=0 note=53 velocity=0 time=0@note_on channel=0 note=74 velocity=80 time=0.0016666666666666666@note_on channel=0 note=58 velocity=80 time=0@note_on channel=0 note=74 velocity=0 time=0.19833333333333333@note_on channel=0 note=70 velocity=80 time=0.0016666666666666666@note_on channel=0 note=70 velocity=0 time=0.19833333333333333@note_on channel=0 note=58 velocity=0 time=0@note_on channel=0 note=69 velocity=80 time=0.0016666666666666666@note_on channel=0 note=53 velocity=80 time=0@note_on channel=0 note=69 velocity=0 time=0.19833333333333333@note_on channel=0 note=53 velocity=0 time=0@note_on channel=0 note=70 velocity=80 time=0.0016666666666666666@note_on channel=0 note=58 velocity=80 time=0@note_on channel=0 note=70 velocity=0 time=0.19833333333333333@note_on channel=0 note=58 velocity=0 time=0@note_on channel=0 note=75 velocity=80 time=0.0016666666666666666@note_on channel=0 note=60 velocity=80 time=0@note_on channel=0 note=75 velocity=0 time=0.19833333333333333@note_on channel=0 note=70 velocity=80 time=0.0016666666666666666@note_on channel=0 note=70 velocity=0 time=0.19833333333333333@note_on channel=0 note=60 velocity=0 time=0@note_on channel=0 note=69 velocity=80 time=0.0016666666666666666@note_on channel=0 note=53 velocity=80 time=0@note_on channel=0 note=69 velocity=0 time=0.19833333333333333@note_on channel=0 note=53 velocity=0 time=0@note_on channel=0 note=70 velocity=80 time=0.0016666666666666666@note_on channel=0 note=60 velocity=80 time=0@note_on channel=0 note=70 velocity=0 time=0.19833333333333333@note_on channel=0 note=60 velocity=0 time=0@note_on channel=0 note=77 velocity=80 time=0.0016666666666666666@note_on channel=0 note=62 velocity=80 time=0@note_on channel=0 note=77 velocity=0 time=0.19833333333333333@note_on channel=0 note=70 velocity=80 time=0.0016666666666666666@note_on channel=0 note=70 velocity=0 time=0.19833333333333333@note_on channel=0 note=62 velocity=0 time=0@note_on channel=0 note=69 velocity=80 time=0.0016666666666666666@note_on channel=0 note=60 velocity=80 time=0@note_on channel=0 note=69 velocity=0 time=0.19833333333333333@note_on channel=0 note=60 velocity=0 time=0@note_on channel=0 note=70 velocity=80 time=0.0016666666666666666@note_on channel=0 note=58 velocity=80 time=0@note_on channel=0 note=70 velocity=0 time=0.19833333333333333@note_on channel=0 note=58 velocity=0 time=0@note_on channel=0 note=75 velocity=80 time=0.0016666666666666666@note_on channel=0 note=60 velocity=80 time=0@note_on channel=0 note=75 velocity=0 time=0.19833333333333333@note_on channel=0 note=60 velocity=0 time=0@note_on channel=0 note=70 velocity=80 time=0.0016666666666666666@note_on channel=0 note=53 velocity=80 time=0@note_on channel=0 note=70 velocity=0 time=0.19833333333333333@note_on channel=0 note=53 velocity=0 time=0@note_on channel=0 note=69 velocity=80 time=0.0016666666666666666@note_on channel=0 note=65 velocity=80 time=0@note_on channel=0 note=69 velocity=0 time=0.19833333333333333@note_on channel=0 note=65 velocity=0 time=0@note_on channel=0 note=70 velocity=80 time=0.0016666666666666666@note_on channel=0 note=63 velocity=80 time=0@note_on channel=0 note=65 velocity=0 time=0.19833333333333333@note_on channel=0 note=70 velocity=0 time=0@note_on channel=0 note=63 velocity=0 time=0@note_on channel=0 note=70 velocity=80 time=0.0016666666666666666@note_on channel=0 note=62 velocity=80 time=0@note_on channel=0 note=70 velocity=0 time=0.19833333333333333@note_on channel=0 note=62 velocity=0 time=0@note_on channel=0 note=72 velocity=80 time=0.0016666666666666666@note_on channel=0 note=60 velocity=80 time=0@note_on channel=0 note=72 velocity=0 time=0.19833333333333333@note_on channel=0 note=60 velocity=0 time=0@note_on channel=0 note=74 velocity=80 time=0.0016666666666666666@note_on channel=0 note=58 velocity=80 time=0@note_on channel=0 note=74 velocity=0 time=0.19833333333333333@note_on channel=0 note=58 velocity=0 time=0@note_on channel=0 note=70 velocity=80 time=0.0016666666666666666@note_on channel=0 note=62 velocity=80 time=0@note_on channel=0 note=70 velocity=0 time=0.19833333333333333@note_on channel=0 note=62 velocity=0 time=0@note_on channel=0 note=75 velocity=80 time=0.0016666666666666666@note_on channel=0 note=60 velocity=80 time=0@note_on channel=0 note=75 velocity=0 time=0.19833333333333333@note_on channel=0 note=60 velocity=0 time=0@note_on channel=0 note=74 velocity=80 time=0.0016666666666666666@note_on channel=0 note=58 velocity=80 time=0@note_on channel=0 note=74 velocity=0 time=0.19833333333333333@note_on channel=0 note=58 velocity=0 time=0@note_on channel=0 note=72 velocity=80 time=0.0016666666666666666@note_on channel=0 note=57 velocity=80 time=0@note_on channel=0 note=72 velocity=0 time=0.19833333333333333@note_on channel=0 note=57 velocity=0 time=0@note_on channel=0 note=75 velocity=80 time=0.0016666666666666666@note_on channel=0 note=60 velocity=80 time=0@note_on channel=0 note=75 velocity=0 time=0.19833333333333333@note_on channel=0 note=60 velocity=0 time=0@note_on channel=0 note=74 velocity=80 time=0.0016666666666666666@note_on channel=0 note=58 velocity=80 time=0@note_on channel=0 note=74 velocity=0 time=0.19833333333333333@note_on channel=0 note=72 velocity=80 time=0.0016666666666666666@note_on channel=0 note=72 velocity=0 time=0.19833333333333333@note_on channel=0 note=58 velocity=0 time=0@note_on channel=0 note=74 velocity=80 time=0.0016666666666666666@note_on channel=0 note=67 velocity=80 time=0@note_on channel=0 note=74 velocity=0 time=0.19833333333333333@note_on channel=0 note=75 velocity=80 time=0.0016666666666666666@note_on channel=0 note=75 velocity=0 time=0.19833333333333333@note_on channel=0 note=67 velocity=0 time=0@note_on channel=0 note=74 velocity=80 time=0.0016666666666666666@note_on channel=0 note=74 velocity=0 time=0.19833333333333333@note_on channel=0 note=72 velocity=80 time=0.0016666666666666666@note_on channel=0 note=72 velocity=0 time=0.19833333333333333@note_on channel=0 note=70 velocity=80 time=0.0016666666666666666@note_on channel=0 note=55 velocity=80 time=0@note_on channel=0 note=70 velocity=0 time=0.19833333333333333@note_on channel=0 note=74 velocity=80 time=0.0016666666666666666@note_on channel=0 note=74 velocity=0 time=0.19833333333333333@note_on channel=0 note=55 velocity=0 time=0@note_on channel=0 note=72 velocity=80 time=0.0016666666666666666@note_on channel=0 note=57 velocity=80 time=0@note_on channel=0 note=72 velocity=0 time=0.19833333333333333@note_on channel=0 note=70 velocity=80 time=0.0016666666666666666@note_on channel=0 note=70 velocity=0 time=0.19833333333333333@note_on channel=0 note=57 velocity=0 time=0@note_on channel=0 note=72 velocity=80 time=0.0016666666666666666@note_on channel=0 note=65 velocity=80 time=0@note_on channel=0 note=72 velocity=0 time=0.19833333333333333@note_on channel=0 note=74 velocity=80 time=0.0016666666666666666@note_on channel=0 note=74 velocity=0 time=0.19833333333333333@note_on channel=0 note=65 velocity=0 time=0@note_on channel=0 note=72 velocity=80 time=0.0016666666666666666@note_on channel=0 note=72 velocity=0 time=0.19833333333333333@note_on channel=0 note=70 velocity=80 time=0.0016666666666666666@note_on channel=0 note=70 velocity=0 time=0.19833333333333333@note_on channel=0 note=69 velocity=80 time=0.0016666666666666666@note_on channel=0 note=53 velocity=80 time=0@note_on channel=0 note=69 velocity=0 time=0.19833333333333333@note_on channel=0 note=72 velocity=80 time=0.0016666666666666666@note_on channel=0 note=72 velocity=0 time=0.19833333333333333@note_on channel=0 note=53 velocity=0 time=0@note_on channel=0 note=70 velocity=80 time=0.0016666666666666666@note_on channel=0 note=55 velocity=80 time=0@note_on channel=0 note=70 velocity=0 time=0.19833333333333333@note_on channel=0 note=69 velocity=80 time=0.0016666666666666666@note_on channel=0 note=69 velocity=0 time=0.19833333333333333@note_on channel=0 note=55 velocity=0 time=0@note_on channel=0 note=70 velocity=80 time=0.0016666666666666666@note_on channel=0 note=65 velocity=80 time=0@note_on channel=0 note=70 velocity=0 time=0.19833333333333333@note_on channel=0 note=72 velocity=80 time=0.0016666666666666666@note_on channel=0 note=72 velocity=0 time=0.19833333333333333@note_on channel=0 note=65 velocity=0 time=0@note_on channel=0 note=70 velocity=80 time=0.0016666666666666666@note_on channel=0 note=60 velocity=80 time=0@note_on channel=0 note=70 velocity=0 time=0.19833333333333333@note_on channel=0 note=69 velocity=80 time=0.0016666666666666666@note_on channel=0 note=69 velocity=0 time=0.19833333333333333@note_on channel=0 note=60 velocity=0 time=0@note_on channel=0 note=67 velocity=80 time=0.0016666666666666666@note_on channel=0 note=64 velocity=80 time=0@note_on channel=0 note=67 velocity=0 time=0.19833333333333333@note_on channel=0 note=70 velocity=80 time=0.0016666666666666666@note_on channel=0 note=70 velocity=0 time=0.19833333333333333@note_on channel=0 note=64 velocity=0 time=0@note_on channel=0 note=69 velocity=80 time=0.0016666666666666666@note_on channel=0 note=65 velocity=80 time=0@note_on channel=0 note=65 velocity=0 time=0.19833333333333333@note_on channel=0 note=63 velocity=80 time=0.0016666666666666666@note_on channel=0 note=69 velocity=0 time=0.19833333333333333@note_on channel=0 note=63 velocity=0 time=0@note_on channel=0 note=77 velocity=80 time=0.0016666666666666666@note_on channel=0 note=65 velocity=80 time=0@note_on channel=0 note=65 velocity=0 time=0.19833333333333333@note_on channel=0 note=67 velocity=80 time=0.0016666666666666666@note_on channel=0 note=77 velocity=0 time=0.19833333333333333@note_on channel=0 note=67 velocity=0 time=0@note_on channel=0 note=65 velocity=80 time=0.0016666666666666666@note_on channel=0 note=65 velocity=0 time=0.19833333333333333@note_on channel=0 note=63 velocity=80 time=0.0016666666666666666@note_on channel=0 note=63 velocity=0 time=0.19833333333333333@note_on channel=0 note=68 velocity=80 time=0.0016666666666666666@note_on channel=0 note=62 velocity=80 time=0@note_on channel=0 note=62 velocity=0 time=0.19833333333333333@note_on channel=0 note=65 velocity=80 time=0.0016666666666666666@note_on channel=0 note=68 velocity=0 time=0.19833333333333333@note_on channel=0 note=65 velocity=0 time=0@note_on channel=0 note=67 velocity=80 time=0.0016666666666666666@note_on channel=0 note=63 velocity=80 time=0@note_on channel=0 note=63 velocity=0 time=0.19833333333333333@note_on channel=0 note=62 velocity=80 time=0.0016666666666666666@note_on channel=0 note=67 velocity=0 time=0.19833333333333333@note_on channel=0 note=62 velocity=0 time=0@note_on channel=0 note=75 velocity=80 time=0.0016666666666666666@note_on channel=0 note=63 velocity=80 time=0@note_on channel=0 note=63 velocity=0 time=0.19833333333333333@note_on channel=0 note=65 velocity=80 time=0.0016666666666666666@note_on channel=0 note=75 velocity=0 time=0.19833333333333333@note_on channel=0 note=65 velocity=0 time=0@note_on channel=0 note=63 velocity=80 time=0.0016666666666666666@note_on channel=0 note=63 velocity=0 time=0.19833333333333333@note_on channel=0 note=62 velocity=80 time=0.0016666666666666666@note_on channel=0 note=62 velocity=0 time=0.19833333333333333@note_on channel=0 note=67 velocity=80 time=0.0016666666666666666@note_on channel=0 note=60 velocity=80 time=0@note_on channel=0 note=60 velocity=0 time=0.19833333333333333@note_on channel=0 note=63 velocity=80 time=0.0016666666666666666@note_on channel=0 note=67 velocity=0 time=0.19833333333333333@note_on channel=0 note=63 velocity=0 time=0@note_on channel=0 note=65 velocity=80 time=0.0016666666666666666@note_on channel=0 note=62 velocity=80 time=0@note_on channel=0 note=62 velocity=0 time=0.19833333333333333@note_on channel=0 note=60 velocity=80 time=0.0016666666666666666@note_on channel=0 note=65 velocity=0 time=0.19833333333333333@note_on channel=0 note=60 velocity=0 time=0@note_on channel=0 note=74 velocity=80 time=0.0016666666666666666@note_on channel=0 note=62 velocity=80 time=0@note_on channel=0 note=62 velocity=0 time=0.19833333333333333@note_on channel=0 note=63 velocity=80 time=0.0016666666666666666@note_on channel=0 note=74 velocity=0 time=0.19833333333333333@note_on channel=0 note=63 velocity=0 time=0@note_on channel=0 note=62 velocity=80 time=0.0016666666666666666@note_on channel=0 note=62 velocity=0 time=0.19833333333333333@note_on channel=0 note=60 velocity=80 time=0.0016666666666666666@note_on channel=0 note=60 velocity=0 time=0.19833333333333333@note_on channel=0 note=65 velocity=80 time=0.0016666666666666666@note_on channel=0 note=58 velocity=80 time=0@note_on channel=0 note=58 velocity=0 time=0.19833333333333333@note_on channel=0 note=62 velocity=80 time=0.0016666666666666666@note_on channel=0 note=65 velocity=0 time=0.19833333333333333@note_on channel=0 note=62 velocity=0 time=0@note_on channel=0 note=63 velocity=80 time=0.0016666666666666666@note_on channel=0 note=60 velocity=80 time=0@note_on channel=0 note=63 velocity=0 time=0.19833333333333333@note_on channel=0 note=60 velocity=0 time=0@note_on channel=0 note=67 velocity=80 time=0.0016666666666666666@note_on channel=0 note=58 velocity=80 time=0@note_on channel=0 note=67 velocity=0 time=0.19833333333333333@note_on channel=0 note=58 velocity=0 time=0@note_on channel=0 note=72 velocity=80 time=0.0016666666666666666@note_on channel=0 note=60 velocity=80 time=0@note_on channel=0 note=72 velocity=0 time=0.19833333333333333@note_on channel=0 note=60 velocity=0 time=0@note_on channel=0 note=70 velocity=80 time=0.0016666666666666666@note_on channel=0 note=62 velocity=80 time=0@note_on channel=0 note=70 velocity=0 time=0.19833333333333333@note_on channel=0 note=62 velocity=0 time=0@note_on channel=0 note=69 velocity=80 time=0.0016666666666666666@note_on channel=0 note=60 velocity=80 time=0@note_on channel=0 note=69 velocity=0 time=0.19833333333333333@note_on channel=0 note=60 velocity=0 time=0@note_on channel=0 note=67 velocity=80 time=0.0016666666666666666@note_on channel=0 note=58 velocity=80 time=0@note_on channel=0 note=67 velocity=0 time=0.19833333333333333@note_on channel=0 note=58 velocity=0 time=0@note_on channel=0 note=65 velocity=80 time=0.0016666666666666666@note_on channel=0 note=57 velocity=80 time=0@note_on channel=0 note=65 velocity=0 time=0.19833333333333333@note_on channel=0 note=57 velocity=0 time=0@note_on channel=0 note=63 velocity=80 time=0.0016666666666666666@note_on channel=0 note=60 velocity=80 time=0@note_on channel=0 note=63 velocity=0 time=0.19833333333333333@note_on channel=0 note=60 velocity=0 time=0@note_on channel=0 note=62 velocity=80 time=0.0016666666666666666@note_on channel=0 note=58 velocity=80 time=0@note_on channel=0 note=46 velocity=80 time=0@note_on channel=0 note=62 velocity=0 time=0.19833333333333333@note_on channel=0 note=58 velocity=0 time=0@note_on channel=0 note=63 velocity=80 time=0.0016666666666666666@note_on channel=0 note=60 velocity=80 time=0@note_on channel=0 note=63 velocity=0 time=0.19833333333333333@note_on channel=0 note=60 velocity=0 time=0@note_on channel=0 note=65 velocity=80 time=0.0016666666666666666@note_on channel=0 note=62 velocity=80 time=0@note_on channel=0 note=65 velocity=0 time=0.19833333333333333@note_on channel=0 note=62 velocity=0 time=0@note_on channel=0 note=67 velocity=80 time=0.0016666666666666666@note_on channel=0 note=58 velocity=80 time=0@note_on channel=0 note=67 velocity=0 time=0.19833333333333333@note_on channel=0 note=58 velocity=0 time=0@note_on channel=0 note=46 velocity=0 time=0@note_on channel=0 note=69 velocity=80 time=0.0016666666666666666@note_on channel=0 note=60 velocity=80 time=0@note_on channel=0 note=53 velocity=80 time=0@note_on channel=0 note=69 velocity=0 time=0.19833333333333333@note_on channel=0 note=60 velocity=0 time=0@note_on channel=0 note=70 velocity=80 time=0.0016666666666666666@note_on channel=0 note=62 velocity=80 time=0@note_on channel=0 note=70 velocity=0 time=0.19833333333333333@note_on channel=0 note=62 velocity=0 time=0@note_on channel=0 note=72 velocity=80 time=0.0016666666666666666@note_on channel=0 note=63 velocity=80 time=0@note_on channel=0 note=72 velocity=0 time=0.19833333333333333@note_on channel=0 note=63 velocity=0 time=0@note_on channel=0 note=69 velocity=80 time=0.0016666666666666666@note_on channel=0 note=60 velocity=80 time=0@note_on channel=0 note=69 velocity=0 time=0.19833333333333333@note_on channel=0 note=60 velocity=0 time=0@note_on channel=0 note=53 velocity=0 time=0@note_on channel=0 note=70 velocity=80 time=0.0016666666666666666@note_on channel=0 note=62 velocity=80 time=0@note_on channel=0 note=50 velocity=80 time=0@note_on channel=0 note=70 velocity=0 time=0.19833333333333333@note_on channel=0 note=62 velocity=0 time=0@note_on channel=0 note=65 velocity=80 time=0.0016666666666666666@note_on channel=0 note=60 velocity=80 time=0@note_on channel=0 note=65 velocity=0 time=0.19833333333333333@note_on channel=0 note=60 velocity=0 time=0@note_on channel=0 note=67 velocity=80 time=0.0016666666666666666@note_on channel=0 note=58 velocity=80 time=0@note_on channel=0 note=67 velocity=0 time=0.19833333333333333@note_on channel=0 note=58 velocity=0 time=0@note_on channel=0 note=69 velocity=80 time=0.0016666666666666666@note_on channel=0 note=60 velocity=80 time=0@note_on channel=0 note=69 velocity=0 time=0.19833333333333333@note_on channel=0 note=60 velocity=0 time=0@note_on channel=0 note=70 velocity=80 time=0.0016666666666666666@note_on channel=0 note=62 velocity=80 time=0@note_on channel=0 note=70 velocity=0 time=0.19833333333333333@note_on channel=0 note=62 velocity=0 time=0@note_on channel=0 note=72 velocity=80 time=0.0016666666666666666@note_on channel=0 note=63 velocity=80 time=0@note_on channel=0 note=72 velocity=0 time=0.19833333333333333@note_on channel=0 note=63 velocity=0 time=0@note_on channel=0 note=50 velocity=0 time=0@note_on channel=0 note=70 velocity=80 time=0.0016666666666666666@note_on channel=0 note=62 velocity=80 time=0@note_on channel=0 note=48 velocity=80 time=0@note_on channel=0 note=70 velocity=0 time=0.19833333333333333@note_on channel=0 note=62 velocity=0 time=0@note_on channel=0 note=72 velocity=80 time=0.0016666666666666666@note_on channel=0 note=63 velocity=80 time=0@note_on channel=0 note=72 velocity=0 time=0.19833333333333333@note_on channel=0 note=63 velocity=0 time=0@note_on channel=0 note=48 velocity=0 time=0@note_on channel=0 note=74 velocity=80 time=0.0016666666666666666@note_on channel=0 note=65 velocity=80 time=0@note_on channel=0 note=46 velocity=80 time=0@note_on channel=0 note=74 velocity=0 time=0.19833333333333333@note_on channel=0 note=65 velocity=0 time=0@note_on channel=0 note=76 velocity=80 time=0.0016666666666666666@note_on channel=0 note=67 velocity=80 time=0@note_on channel=0 note=76 velocity=0 time=0.19833333333333333@note_on channel=0 note=67 velocity=0 time=0@note_on channel=0 note=46 velocity=0 time=0@note_on channel=0 note=74 velocity=80 time=0.0016666666666666666@note_on channel=0 note=65 velocity=80 time=0@note_on channel=0 note=50 velocity=80 time=0@note_on channel=0 note=74 velocity=0 time=0.19833333333333333@note_on channel=0 note=65 velocity=0 time=0@note_on channel=0 note=76 velocity=80 time=0.0016666666666666666@note_on channel=0 note=67 velocity=80 time=0@note_on channel=0 note=76 velocity=0 time=0.19833333333333333@note_on channel=0 note=67 velocity=0 time=0@note_on channel=0 note=50 velocity=0 time=0@note_on channel=0 note=77 velocity=80 time=0.0016666666666666666@note_on channel=0 note=69 velocity=80 time=0@note_on channel=0 note=48 velocity=80 time=0@note_on channel=0 note=77 velocity=0 time=0.09666666666666666@note_on channel=0 note=69 velocity=0 time=0@note_on channel=0 note=76 velocity=80 time=0.0016666666666666666@note_on channel=0 note=67 velocity=80 time=0@note_on channel=0 note=76 velocity=0 time=0.09666666666666666@note_on channel=0 note=67 velocity=0 time=0@note_on channel=0 note=77 velocity=80 time=0.003333333333333333@note_on channel=0 note=69 velocity=80 time=0@note_on channel=0 note=77 velocity=0 time=0.09666666666666666@note_on channel=0 note=69 velocity=0 time=0@note_on channel=0 note=76 velocity=80 time=0.004999999999999999@note_on channel=0 note=67 velocity=80 time=0@note_on channel=0 note=76 velocity=0 time=0.09666666666666666@note_on channel=0 note=67 velocity=0 time=0@note_on channel=0 note=77 velocity=80 time=0.0016666666666666666@note_on channel=0 note=69 velocity=80 time=0@note_on channel=0 note=48 velocity=0 time=0@note_on channel=0 note=46 velocity=80 time=0.0016666666666666666@note_on channel=0 note=77 velocity=0 time=0.09499999999999999@note_on channel=0 note=69 velocity=0 time=0@note_on channel=0 note=76 velocity=80 time=0.003333333333333333@note_on channel=0 note=67 velocity=80 time=0@note_on channel=0 note=76 velocity=0 time=0.09666666666666666@note_on channel=0 note=67 velocity=0 time=0@note_on channel=0 note=74 velocity=80 time=0.004999999999999999@note_on channel=0 note=65 velocity=80 time=0@note_on channel=0 note=74 velocity=0 time=0.09833333333333333@note_on channel=0 note=65 velocity=0 time=0@note_on channel=0 note=76 velocity=80 time=0.0016666666666666666@note_on channel=0 note=67 velocity=80 time=0@note_on channel=0 note=76 velocity=0 time=0.09833333333333333@note_on channel=0 note=67 velocity=0 time=0@note_on channel=0 note=46 velocity=0 time=0@note_on channel=0 note=77 velocity=80 time=0.0016666666666666666@note_on channel=0 note=69 velocity=80 time=0@note_on channel=0 note=45 velocity=80 time=0@note_on channel=0 note=77 velocity=0 time=0.19833333333333333@note_on channel=0 note=69 velocity=0 time=0@note_on channel=0 note=76 velocity=80 time=0.0016666666666666666@note_on channel=0 note=67 velocity=80 time=0@note_on channel=0 note=76 velocity=0 time=0.19833333333333333@note_on channel=0 note=67 velocity=0 time=0@note_on channel=0 note=45 velocity=0 time=0@note_on channel=0 note=77 velocity=80 time=0.0016666666666666666@note_on channel=0 note=69 velocity=80 time=0@note_on channel=0 note=48 velocity=80 time=0@note_on channel=0 note=77 velocity=0 time=0.19833333333333333@note_on channel=0 note=69 velocity=0 time=0@note_on channel=0 note=79 velocity=80 time=0.0016666666666666666@note_on channel=0 note=70 velocity=80 time=0@note_on channel=0 note=79 velocity=0 time=0.19833333333333333@note_on channel=0 note=70 velocity=0 time=0@note_on channel=0 note=48 velocity=0 time=0@note_on channel=0 note=77 velocity=80 time=0.0016666666666666666@note_on channel=0 note=69 velocity=80 time=0@note_on channel=0 note=41 velocity=80 time=0@note_on channel=0 note=69 velocity=0 time=0.19833333333333333@note_on channel=0 note=67 velocity=80 time=0.0016666666666666666@note_on channel=0 note=77 velocity=0 time=0.19833333333333333@note_on channel=0 note=67 velocity=0 time=0@note_on channel=0 note=77 velocity=80 time=0.0016666666666666666@note_on channel=0 note=65 velocity=80 time=0@note_on channel=0 note=65 velocity=0 time=0.19833333333333333@note_on channel=0 note=63 velocity=80 time=0.0016666666666666666@note_on channel=0 note=77 velocity=0 time=0.19833333333333333@note_on channel=0 note=63 velocity=0 time=0@note_on channel=0 note=41 velocity=0 time=0@note_on channel=0 note=79 velocity=80 time=0.0016666666666666666@note_on channel=0 note=62 velocity=80 time=0@note_on channel=0 note=46 velocity=80 time=0@note_on channel=0 note=79 velocity=0 time=0.09666666666666666@note_on channel=0 note=77 velocity=80 time=0.0016666666666666666@note_on channel=0 note=77 velocity=0 time=0.09666666666666666@note_on channel=0 note=79 velocity=80 time=0.003333333333333333@note_on channel=0 note=62 velocity=0 time=0@note_on channel=0 note=65 velocity=80 time=0.0016666666666666666@note_on channel=0 note=79 velocity=0 time=0.09499999999999999@note_on channel=0 note=77 velocity=80 time=0.0016666666666666666@note_on channel=0 note=77 velocity=0 time=0.09666666666666666@note_on channel=0 note=65 velocity=0 time=0.004999999999999999@note_on channel=0 note=46 velocity=0 time=0@note_on channel=0 note=79 velocity=80 time=0.0016666666666666666@note_on channel=0 note=63 velocity=80 time=0@note_on channel=0 note=41 velocity=80 time=0@note_on channel=0 note=79 velocity=0 time=0.09666666666666666@note_on channel=0 note=77 velocity=80 time=0.0016666666666666666@note_on channel=0 note=77 velocity=0 time=0.09666666666666666@note_on channel=0 note=79 velocity=80 time=0.003333333333333333@note_on channel=0 note=63 velocity=0 time=0@note_on channel=0 note=65 velocity=80 time=0.0016666666666666666@note_on channel=0 note=79 velocity=0 time=0.09499999999999999@note_on channel=0 note=77 velocity=80 time=0.0016666666666666666@note_on channel=0 note=77 velocity=0 time=0.09666666666666666@note_on channel=0 note=65 velocity=0 time=0.004999999999999999@note_on channel=0 note=41 velocity=0 time=0@note_on channel=0 note=79 velocity=80 time=0.0016666666666666666@note_on channel=0 note=57 velocity=80 time=0@note_on channel=0 note=48 velocity=80 time=0@note_on channel=0 note=79 velocity=0 time=0.09666666666666666@note_on channel=0 note=77 velocity=80 time=0.0016666666666666666@note_on channel=0 note=77 velocity=0 time=0.09666666666666666@note_on channel=0 note=79 velocity=80 time=0.003333333333333333@note_on channel=0 note=57 velocity=0 time=0@note_on channel=0 note=65 velocity=80 time=0.0016666666666666666@note_on channel=0 note=79 velocity=0 time=0.09499999999999999@note_on channel=0 note=77 velocity=80 time=0.0016666666666666666@note_on channel=0 note=77 velocity=0 time=0.09666666666666666@note_on channel=0 note=65 velocity=0 time=0.004999999999999999@note_on channel=0 note=48 velocity=0 time=0@note_on channel=0 note=79 velocity=80 time=0.0016666666666666666@note_on channel=0 note=63 velocity=80 time=0@note_on channel=0 note=41 velocity=80 time=0@note_on channel=0 note=79 velocity=0 time=0.09666666666666666@note_on channel=0 note=77 velocity=80 time=0.0016666666666666666@note_on channel=0 note=77 velocity=0 time=0.09666666666666666@note_on channel=0 note=79 velocity=80 time=0.003333333333333333@note_on channel=0 note=63 velocity=0 time=0@note_on channel=0 note=65 velocity=80 time=0.0016666666666666666@note_on channel=0 note=79 velocity=0 time=0.09499999999999999@note_on channel=0 note=77 velocity=80 time=0.0016666666666666666@note_on channel=0 note=77 velocity=0 time=0.09666666666666666@note_on channel=0 note=65 velocity=0 time=0.004999999999999999@note_on channel=0 note=41 velocity=0 time=0@note_on channel=0 note=79 velocity=80 time=0.0016666666666666666@note_on channel=0 note=58 velocity=80 time=0@note_on channel=0 note=50 velocity=80 time=0@note_on channel=0 note=79 velocity=0 time=0.09666666666666666@note_on channel=0 note=77 velocity=80 time=0.0016666666666666666@note_on channel=0 note=77 velocity=0 time=0.09666666666666666@note_on channel=0 note=79 velocity=80 time=0.003333333333333333@note_on channel=0 note=58 velocity=0 time=0@note_on channel=0 note=65 velocity=80 time=0.0016666666666666666@note_on channel=0 note=79 velocity=0 time=0.09499999999999999@note_on channel=0 note=77 velocity=80 time=0.0016666666666666666@note_on channel=0 note=77 velocity=0 time=0.09666666666666666@note_on channel=0 note=65 velocity=0 time=0.004999999999999999@note_on channel=0 note=50 velocity=0 time=0@note_on channel=0 note=79 velocity=80 time=0.0016666666666666666@note_on channel=0 note=63 velocity=80 time=0@note_on channel=0 note=48 velocity=80 time=0@note_on channel=0 note=79 velocity=0 time=0.09666666666666666@note_on channel=0 note=77 velocity=80 time=0.0016666666666666666@note_on channel=0 note=77 velocity=0 time=0.09666666666666666@note_on channel=0 note=79 velocity=80 time=0.003333333333333333@note_on channel=0 note=63 velocity=0 time=0@note_on channel=0 note=48 velocity=0 time=0@note_on channel=0 note=65 velocity=80 time=0.0016666666666666666@note_on channel=0 note=46 velocity=80 time=0@note_on channel=0 note=79 velocity=0 time=0.09499999999999999@note_on channel=0 note=77 velocity=80 time=0.0016666666666666666@note_on channel=0 note=77 velocity=0 time=0.09666666666666666@note_on channel=0 note=65 velocity=0 time=0.004999999999999999@note_on channel=0 note=46 velocity=0 time=0@note_on channel=0 note=79 velocity=80 time=0.0016666666666666666@note_on channel=0 note=57 velocity=80 time=0@note_on channel=0 note=48 velocity=80 time=0@note_on channel=0 note=79 velocity=0 time=0.09666666666666666@note_on channel=0 note=77 velocity=80 time=0.0016666666666666666@note_on channel=0 note=77 velocity=0 time=0.09666666666666666@note_on channel=0 note=79 velocity=80 time=0.003333333333333333@note_on channel=0 note=57 velocity=0 time=0@note_on channel=0 note=65 velocity=80 time=0.0016666666666666666@note_on channel=0 note=79 velocity=0 time=0.09499999999999999@note_on channel=0 note=77 velocity=80 time=0.0016666666666666666@note_on channel=0 note=77 velocity=0 time=0.09666666666666666@note_on channel=0 note=65 velocity=0 time=0.004999999999999999@note_on channel=0 note=48 velocity=0 time=0@note_on channel=0 note=79 velocity=80 time=0.0016666666666666666@note_on channel=0 note=63 velocity=80 time=0@note_on channel=0 note=41 velocity=80 time=0@note_on channel=0 note=79 velocity=0 time=0.09666666666666666@note_on channel=0 note=77 velocity=80 time=0.0016666666666666666@note_on channel=0 note=77 velocity=0 time=0.09666666666666666@note_on channel=0 note=79 velocity=80 time=0.003333333333333333@note_on channel=0 note=63 velocity=0 time=0@note_on channel=0 note=65 velocity=80 time=0.0016666666666666666@note_on channel=0 note=79 velocity=0 time=0.09499999999999999@note_on channel=0 note=77 velocity=80 time=0.0016666666666666666@note_on channel=0 note=77 velocity=0 time=0.09666666666666666@note_on channel=0 note=65 velocity=0 time=0.004999999999999999@note_on channel=0 note=41 velocity=0 time=0@note_on channel=0 note=79 velocity=80 time=0.0016666666666666666@note_on channel=0 note=62 velocity=80 time=0@note_on channel=0 note=46 velocity=80 time=0@note_on channel=0 note=79 velocity=0 time=0.09666666666666666@note_on channel=0 note=77 velocity=80 time=0.0016666666666666666@note_on channel=0 note=77 velocity=0 time=0.09666666666666666@note_on channel=0 note=79 velocity=80 time=0.003333333333333333@note_on channel=0 note=62 velocity=0 time=0@note_on channel=0 note=70 velocity=80 time=0.0016666666666666666@note_on channel=0 note=79 velocity=0 time=0.09499999999999999@note_on channel=0 note=77 velocity=80 time=0.0016666666666666666@note_on channel=0 note=77 velocity=0 time=0.09666666666666666@note_on channel=0 note=70 velocity=0 time=0.004999999999999999@note_on channel=0 note=46 velocity=0 time=0@note_on channel=0 note=79 velocity=80 time=0.0016666666666666666@note_on channel=0 note=69 velocity=80 time=0@note_on channel=0 note=41 velocity=80 time=0@note_on channel=0 note=79 velocity=0 time=0.09666666666666666@note_on channel=0 note=77 velocity=80 time=0.0016666666666666666@note_on channel=0 note=77 velocity=0 time=0.09666666666666666@note_on channel=0 note=79 velocity=80 time=0.003333333333333333@note_on channel=0 note=69 velocity=0 time=0@note_on channel=0 note=41 velocity=0 time=0@note_on channel=0 note=70 velocity=80 time=0.0016666666666666666@note_on channel=0 note=46 velocity=80 time=0@note_on channel=0 note=79 velocity=0 time=0.09499999999999999@note_on channel=0 note=77 velocity=80 time=0.0016666666666666666@note_on channel=0 note=77 velocity=0 time=0.09666666666666666@note_on channel=0 note=70 velocity=0 time=0.004999999999999999@note_on channel=0 note=46 velocity=0 time=0@note_on channel=0 note=79 velocity=80 time=0.0016666666666666666@note_on channel=0 note=63 velocity=80 time=0@note_on channel=0 note=48 velocity=80 time=0@note_on channel=0 note=79 velocity=0 time=0.09666666666666666@note_on channel=0 note=77 velocity=80 time=0.0016666666666666666@note_on channel=0 note=77 velocity=0 time=0.09666666666666666@note_on channel=0 note=79 velocity=80 time=0.003333333333333333@note_on channel=0 note=63 velocity=0 time=0@note_on channel=0 note=70 velocity=80 time=0.0016666666666666666@note_on channel=0 note=79 velocity=0 time=0.09499999999999999@note_on channel=0 note=77 velocity=80 time=0.0016666666666666666@note_on channel=0 note=77 velocity=0 time=0.09666666666666666@note_on channel=0 note=70 velocity=0 time=0.004999999999999999@note_on channel=0 note=48 velocity=0 time=0@note_on channel=0 note=79 velocity=80 time=0.0016666666666666666@note_on channel=0 note=69 velocity=80 time=0@note_on channel=0 note=41 velocity=80 time=0@note_on channel=0 note=79 velocity=0 time=0.09666666666666666@note_on channel=0 note=77 velocity=80 time=0.0016666666666666666@note_on channel=0 note=77 velocity=0 time=0.09666666666666666@note_on channel=0 note=79 velocity=80 time=0.003333333333333333@note_on channel=0 note=69 velocity=0 time=0@note_on channel=0 note=41 velocity=0 time=0@note_on channel=0 note=70 velocity=80 time=0.0016666666666666666@note_on channel=0 note=48 velocity=80 time=0@note_on channel=0 note=79 velocity=0 time=0.09499999999999999@note_on channel=0 note=77 velocity=80 time=0.0016666666666666666@note_on channel=0 note=77 velocity=0 time=0.09666666666666666@note_on channel=0 note=70 velocity=0 time=0.004999999999999999@note_on channel=0 note=48 velocity=0 time=0@note_on channel=0 note=79 velocity=80 time=0.0016666666666666666@note_on channel=0 note=65 velocity=80 time=0@note_on channel=0 note=50 velocity=80 time=0@note_on channel=0 note=79 velocity=0 time=0.09666666666666666@note_on channel=0 note=77 velocity=80 time=0.0016666666666666666@note_on channel=0 note=77 velocity=0 time=0.09666666666666666@note_on channel=0 note=79 velocity=80 time=0.003333333333333333@note_on channel=0 note=65 velocity=0 time=0@note_on channel=0 note=70 velocity=80 time=0.0016666666666666666@note_on channel=0 note=79 velocity=0 time=0.09499999999999999@note_on channel=0 note=77 velocity=80 time=0.0016666666666666666@note_on channel=0 note=77 velocity=0 time=0.09666666666666666@note_on channel=0 note=70 velocity=0 time=0.004999999999999999@note_on channel=0 note=50 velocity=0 time=0@note_on channel=0 note=79 velocity=80 time=0.0016666666666666666@note_on channel=0 note=69 velocity=80 time=0@note_on channel=0 note=48 velocity=80 time=0@note_on channel=0 note=79 velocity=0 time=0.09666666666666666@note_on channel=0 note=77 velocity=80 time=0.0016666666666666666@note_on channel=0 note=77 velocity=0 time=0.09666666666666666@note_on channel=0 note=79 velocity=80 time=0.003333333333333333@note_on channel=0 note=69 velocity=0 time=0@note_on channel=0 note=48 velocity=0 time=0@note_on channel=0 note=70 velocity=80 time=0.0016666666666666666@note_on channel=0 note=46 velocity=80 time=0@note_on channel=0 note=79 velocity=0 time=0.09499999999999999@note_on channel=0 note=77 velocity=80 time=0.0016666666666666666@note_on channel=0 note=77 velocity=0 time=0.09666666666666666@note_on channel=0 note=70 velocity=0 time=0.004999999999999999@note_on channel=0 note=46 velocity=0 time=0@note_on channel=0 note=79 velocity=80 time=0.0016666666666666666@note_on channel=0 note=63 velocity=80 time=0@note_on channel=0 note=48 velocity=80 time=0@note_on channel=0 note=79 velocity=0 time=0.09666666666666666@note_on channel=0 note=77 velocity=80 time=0.0016666666666666666@note_on channel=0 note=77 velocity=0 time=0.09666666666666666@note_on channel=0 note=79 velocity=80 time=0.003333333333333333@note_on channel=0 note=63 velocity=0 time=0@note_on channel=0 note=70 velocity=80 time=0.0016666666666666666@note_on channel=0 note=79 velocity=0 time=0.09499999999999999@note_on channel=0 note=77 velocity=80 time=0.0016666666666666666@note_on channel=0 note=77 velocity=0 time=0.09666666666666666@note_on channel=0 note=70 velocity=0 time=0.004999999999999999@note_on channel=0 note=48 velocity=0 time=0@note_on channel=0 note=79 velocity=80 time=0.0016666666666666666@note_on channel=0 note=69 velocity=80 time=0@note_on channel=0 note=41 velocity=80 time=0@note_on channel=0 note=79 velocity=0 time=0.09666666666666666@note_on channel=0 note=77 velocity=80 time=0.0016666666666666666@note_on channel=0 note=77 velocity=0 time=0.09666666666666666@note_on channel=0 note=79 velocity=80 time=0.003333333333333333@note_on channel=0 note=69 velocity=0 time=0@note_on channel=0 note=70 velocity=80 time=0.0016666666666666666@note_on channel=0 note=79 velocity=0 time=0.09499999999999999@note_on channel=0 note=77 velocity=80 time=0.0016666666666666666@note_on channel=0 note=77 velocity=0 time=0.09666666666666666@note_on channel=0 note=70 velocity=0 time=0.004999999999999999@note_on channel=0 note=41 velocity=0 time=0@note_on channel=0 note=79 velocity=80 time=0.0016666666666666666@note_on channel=0 note=70 velocity=80 time=0@note_on channel=0 note=50 velocity=80 time=0@note_on channel=0 note=79 velocity=0 time=0.09666666666666666@note_on channel=0 note=77 velocity=80 time=0.0016666666666666666@note_on channel=0 note=70 velocity=0 time=0.09999999999999999@note_on channel=0 note=75 velocity=80 time=0.0016666666666666666@note_on channel=0 note=74 velocity=80 time=0@note_on channel=0 note=75 velocity=0 time=0.19833333333333333@note_on channel=0 note=74 velocity=0 time=0@note_on channel=0 note=50 velocity=0 time=0@note_on channel=0 note=77 velocity=80 time=0.0016666666666666666@note_on channel=0 note=72 velocity=80 time=0@note_on channel=0 note=51 velocity=80 time=0@note_on channel=0 note=77 velocity=0 time=0.19833333333333333@note_on channel=0 note=72 velocity=0 time=0@note_on channel=0 note=79 velocity=80 time=0.0016666666666666666@note_on channel=0 note=70 velocity=80 time=0@note_on channel=0 note=79 velocity=0 time=0.19833333333333333@note_on channel=0 note=70 velocity=0 time=0@note_on channel=0 note=51 velocity=0 time=0@note_on channel=0 note=72 velocity=80 time=0.0016666666666666666@note_on channel=0 note=69 velocity=80 time=0@note_on channel=0 note=53 velocity=80 time=0@note_on channel=0 note=69 velocity=0 time=0.19833333333333333@note_on channel=0 note=67 velocity=80 time=0.0016666666666666666@note_on channel=0 note=67 velocity=0 time=0.19833333333333333@note_on channel=0 note=53 velocity=0 time=0@note_on channel=0 note=65 velocity=80 time=0.0016666666666666666@note_on channel=0 note=41 velocity=80 time=0@note_on channel=0 note=72 velocity=0 time=0.19833333333333333@note_on channel=0 note=65 velocity=0 time=0@note_on channel=0 note=81 velocity=80 time=0.0016666666666666666@note_on channel=0 note=63 velocity=80 time=0@note_on channel=0 note=81 velocity=0 time=0.19833333333333333@note_on channel=0 note=63 velocity=0 time=0@note_on channel=0 note=41 velocity=0 time=0@note_on channel=0 note=82 velocity=80 time=0.0016666666666666666@note_on channel=0 note=62 velocity=80 time=0@note_on channel=0 note=46 velocity=80 time=0@note_on channel=0 note=82 velocity=0 time=0.19833333333333333@note_on channel=0 note=81 velocity=80 time=0.0016666666666666666@note_on channel=0 note=81 velocity=0 time=0.19833333333333333@note_on channel=0 note=82 velocity=80 time=0.0016666666666666666@note_on channel=0 note=67 velocity=80 time=0@note_on channel=0 note=82 velocity=0 time=0.19833333333333333@note_on channel=0 note=84 velocity=80 time=0.0016666666666666666@note_on channel=0 note=67 velocity=0 time=0.19833333333333333@note_on channel=0 note=84 velocity=0 time=0@note_on channel=0 note=46 velocity=0 time=0@note_on channel=0 note=82 velocity=80 time=0.0016666666666666666@note_on channel=0 note=70 velocity=80 time=0@note_on channel=0 note=82 velocity=0 time=0.19833333333333333@note_on channel=0 note=81 velocity=80 time=0.0016666666666666666@note_on channel=0 note=70 velocity=0 time=0.19833333333333333@note_on channel=0 note=81 velocity=0 time=0@note_on channel=0 note=79 velocity=80 time=0.0016666666666666666@note_on channel=0 note=69 velocity=80 time=0@note_on channel=0 note=79 velocity=0 time=0.19833333333333333@note_on channel=0 note=77 velocity=80 time=0.0016666666666666666@note_on channel=0 note=69 velocity=0 time=0.19833333333333333@note_on channel=0 note=77 velocity=0 time=0@note_on channel=0 note=75 velocity=80 time=0.0016666666666666666@note_on channel=0 note=67 velocity=80 time=0@note_on channel=0 note=48 velocity=80 time=0@note_on channel=0 note=75 velocity=0 time=0.19833333333333333@note_on channel=0 note=74 velocity=80 time=0.0016666666666666666@note_on channel=0 note=77 velocity=0 time=0.19499999999999998@note_on channel=0 note=74 velocity=0 time=0.003333333333333333@note_on channel=0 note=62 velocity=0 time=0@note_on channel=0 note=75 velocity=80 time=0.0016666666666666666@note_on channel=0 note=55 velocity=80 time=0@note_on channel=0 note=75 velocity=0 time=0.19833333333333333@note_on channel=0 note=77 velocity=80 time=0.0016666666666666666@note_on channel=0 note=77 velocity=0 time=0.19833333333333333@note_on channel=0 note=55 velocity=0 time=0@note_on channel=0 note=48 velocity=0 time=0@note_on channel=0 note=75 velocity=80 time=0.0016666666666666666@note_on channel=0 note=60 velocity=80 time=0@note_on channel=0 note=75 velocity=0 time=0.19833333333333333@note_on channel=0 note=74 velocity=80 time=0.0016666666666666666@note_on channel=0 note=74 velocity=0 time=0.19833333333333333@note_on channel=0 note=60 velocity=0 time=0@note_on channel=0 note=72 velocity=80 time=0.0016666666666666666@note_on channel=0 note=58 velocity=80 time=0@note_on channel=0 note=72 velocity=0 time=0.19833333333333333@note_on channel=0 note=70 velocity=80 time=0.0016666666666666666@note_on channel=0 note=70 velocity=0 time=0.19833333333333333@note_on channel=0 note=58 velocity=0 time=0@note_on channel=0 note=81 velocity=80 time=0.0016666666666666666@note_on channel=0 note=57 velocity=80 time=0@note_on channel=0 note=41 velocity=80 time=0@note_on channel=0 note=81 velocity=0 time=0.19833333333333333@note_on channel=0 note=79 velocity=80 time=0.0016666666666666666@note_on channel=0 note=67 velocity=0 time=0.19833333333333333@note_on channel=0 note=79 velocity=0 time=0@note_on channel=0 note=81 velocity=80 time=0.0016666666666666666@note_on channel=0 note=60 velocity=80 time=0@note_on channel=0 note=81 velocity=0 time=0.19833333333333333@note_on channel=0 note=82 velocity=80 time=0.0016666666666666666@note_on channel=0 note=60 velocity=0 time=0.19833333333333333@note_on channel=0 note=82 velocity=0 time=0@note_on channel=0 note=41 velocity=0 time=0@note_on channel=0 note=81 velocity=80 time=0.0016666666666666666@note_on channel=0 note=69 velocity=80 time=0@note_on channel=0 note=81 velocity=0 time=0.19833333333333333@note_on channel=0 note=79 velocity=80 time=0.0016666666666666666@note_on channel=0 note=69 velocity=0 time=0.19833333333333333@note_on channel=0 note=79 velocity=0 time=0@note_on channel=0 note=77 velocity=80 time=0.0016666666666666666@note_on channel=0 note=67 velocity=80 time=0@note_on channel=0 note=77 velocity=0 time=0.19833333333333333@note_on channel=0 note=75 velocity=80 time=0.0016666666666666666@note_on channel=0 note=67 velocity=0 time=0.19833333333333333@note_on channel=0 note=75 velocity=0 time=0@note_on channel=0 note=74 velocity=80 time=0.0016666666666666666@note_on channel=0 note=65 velocity=80 time=0@note_on channel=0 note=46 velocity=80 time=0@note_on channel=0 note=74 velocity=0 time=0.19833333333333333@note_on channel=0 note=72 velocity=80 time=0.0016666666666666666@note_on channel=0 note=72 velocity=0 time=0.19833333333333333@note_on channel=0 note=57 velocity=0 time=0@note_on channel=0 note=74 velocity=80 time=0.0016666666666666666@note_on channel=0 note=53 velocity=80 time=0@note_on channel=0 note=74 velocity=0 time=0.19833333333333333@note_on channel=0 note=75 velocity=80 time=0.0016666666666666666@note_on channel=0 note=75 velocity=0 time=0.19833333333333333@note_on channel=0 note=53 velocity=0 time=0@note_on channel=0 note=46 velocity=0 time=0@note_on channel=0 note=74 velocity=80 time=0.0016666666666666666@note_on channel=0 note=58 velocity=80 time=0@note_on channel=0 note=74 velocity=0 time=0.19833333333333333@note_on channel=0 note=72 velocity=80 time=0.0016666666666666666@note_on channel=0 note=72 velocity=0 time=0.19833333333333333@note_on channel=0 note=58 velocity=0 time=0@note_on channel=0 note=70 velocity=80 time=0.0016666666666666666@note_on channel=0 note=57 velocity=80 time=0@note_on channel=0 note=70 velocity=0 time=0.19833333333333333@note_on channel=0 note=69 velocity=80 time=0.0016666666666666666@note_on channel=0 note=69 velocity=0 time=0.19833333333333333@note_on channel=0 note=57 velocity=0 time=0@note_on channel=0 note=79 velocity=80 time=0.0016666666666666666@note_on channel=0 note=55 velocity=80 time=0@note_on channel=0 note=39 velocity=80 time=0@note_on channel=0 note=79 velocity=0 time=0.19833333333333333@note_on channel=0 note=77 velocity=80 time=0.0016666666666666666@note_on channel=0 note=65 velocity=0 time=0.19833333333333333@note_on channel=0 note=77 velocity=0 time=0@note_on channel=0 note=79 velocity=80 time=0.0016666666666666666@note_on channel=0 note=58 velocity=80 time=0@note_on channel=0 note=79 velocity=0 time=0.19833333333333333@note_on channel=0 note=80 velocity=80 time=0.0016666666666666666@note_on channel=0 note=58 velocity=0 time=0.19833333333333333@note_on channel=0 note=80 velocity=0 time=0@note_on channel=0 note=39 velocity=0 time=0@note_on channel=0 note=79 velocity=80 time=0.0016666666666666666@note_on channel=0 note=67 velocity=80 time=0@note_on channel=0 note=79 velocity=0 time=0.19833333333333333@note_on channel=0 note=77 velocity=80 time=0.0016666666666666666@note_on channel=0 note=67 velocity=0 time=0.19833333333333333@note_on channel=0 note=77 velocity=0 time=0@note_on channel=0 note=75 velocity=80 time=0.0016666666666666666@note_on channel=0 note=65 velocity=80 time=0@note_on channel=0 note=75 velocity=0 time=0.19833333333333333@note_on channel=0 note=74 velocity=80 time=0.0016666666666666666@note_on channel=0 note=65 velocity=0 time=0.19833333333333333@note_on channel=0 note=74 velocity=0 time=0@note_on channel=0 note=72 velocity=80 time=0.0016666666666666666@note_on channel=0 note=63 velocity=80 time=0@note_on channel=0 note=44 velocity=80 time=0@note_on channel=0 note=72 velocity=0 time=0.19833333333333333@note_on channel=0 note=71 velocity=80 time=0.0016666666666666666@note_on channel=0 note=71 velocity=0 time=0.19833333333333333@note_on channel=0 note=55 velocity=0 time=0@note_on channel=0 note=72 velocity=80 time=0.0016666666666666666@note_on channel=0 note=51 velocity=80 time=0@note_on channel=0 note=72 velocity=0 time=0.19833333333333333@note_on channel=0 note=74 velocity=80 time=0.0016666666666666666@note_on channel=0 note=74 velocity=0 time=0.19833333333333333@note_on channel=0 note=51 velocity=0 time=0@note_on channel=0 note=44 velocity=0 time=0@note_on channel=0 note=72 velocity=80 time=0.0016666666666666666@note_on channel=0 note=56 velocity=80 time=0@note_on channel=0 note=72 velocity=0 time=0.19833333333333333@note_on channel=0 note=74 velocity=80 time=0.0016666666666666666@note_on channel=0 note=74 velocity=0 time=0.19833333333333333@note_on channel=0 note=56 velocity=0 time=0@note_on channel=0 note=75 velocity=80 time=0.0016666666666666666@note_on channel=0 note=55 velocity=80 time=0@note_on channel=0 note=75 velocity=0 time=0.19833333333333333@note_on channel=0 note=72 velocity=80 time=0.0016666666666666666@note_on channel=0 note=72 velocity=0 time=0.19833333333333333@note_on channel=0 note=55 velocity=0 time=0@note_on channel=0 note=77 velocity=80 time=0.0016666666666666666@note_on channel=0 note=53 velocity=80 time=0@note_on channel=0 note=38 velocity=80 time=0@note_on channel=0 note=63 velocity=0 time=0.19833333333333333@note_on channel=0 note=63 velocity=80 time=0.0016666666666666666@note_on channel=0 note=63 velocity=0 time=0.19833333333333333@note_on channel=0 note=62 velocity=80 time=0.0016666666666666666@note_on channel=0 note=62 velocity=0 time=0.19833333333333333@note_on channel=0 note=60 velocity=80 time=0.0016666666666666666@note_on channel=0 note=60 velocity=0 time=0.19833333333333333@note_on channel=0 note=53 velocity=0 time=0@note_on channel=0 note=38 velocity=0 time=0@note_on channel=0 note=59 velocity=80 time=0.0016666666666666666@note_on channel=0 note=55 velocity=80 time=0@note_on channel=0 note=39 velocity=80 time=0@note_on channel=0 note=77 velocity=0 time=0.19833333333333333@note_on channel=0 note=80 velocity=80 time=0.0016666666666666666@note_on channel=0 note=80 velocity=0 time=0.19833333333333333@note_on channel=0 note=79 velocity=80 time=0.0016666666666666666@note_on channel=0 note=79 velocity=0 time=0.19833333333333333@note_on channel=0 note=77 velocity=80 time=0.0016666666666666666@note_on channel=0 note=59 velocity=0 time=0.19833333333333333@note_on channel=0 note=77 velocity=0 time=0@note_on channel=0 note=39 velocity=0 time=0@note_on channel=0 note=75 velocity=80 time=0.0016666666666666666@note_on channel=0 note=60 velocity=80 time=0@note_on channel=0 note=36 velocity=80 time=0@note_on channel=0 note=55 velocity=0 time=0.19833333333333333@note_on channel=0 note=55 velocity=80 time=0.0016666666666666666@note_on channel=0 note=55 velocity=0 time=0.19833333333333333@note_on channel=0 note=57 velocity=80 time=0.0016666666666666666@note_on channel=0 note=57 velocity=0 time=0.19833333333333333@note_on channel=0 note=59 velocity=80 time=0.0016666666666666666@note_on channel=0 note=60 velocity=0 time=0.19833333333333333@note_on channel=0 note=59 velocity=0 time=0@note_on channel=0 note=36 velocity=0 time=0@note_on channel=0 note=60 velocity=80 time=0.0016666666666666666@note_on channel=0 note=60 velocity=0 time=0.19833333333333333@note_on channel=0 note=62 velocity=80 time=0.0016666666666666666@note_on channel=0 note=62 velocity=0 time=0.19833333333333333@note_on channel=0 note=63 velocity=80 time=0.0016666666666666666@note_on channel=0 note=63 velocity=0 time=0.19833333333333333@note_on channel=0 note=60 velocity=80 time=0.0016666666666666666@note_on channel=0 note=60 velocity=0 time=0.19833333333333333@note_on channel=0 note=56 velocity=80 time=0.0016666666666666666@note_on channel=0 note=41 velocity=80 time=0@note_on channel=0 note=75 velocity=0 time=0.19833333333333333@note_on channel=0 note=72 velocity=80 time=0.0016666666666666666@note_on channel=0 note=72 velocity=0 time=0.19833333333333333@note_on channel=0 note=74 velocity=80 time=0.0016666666666666666@note_on channel=0 note=60 velocity=80 time=0@note_on channel=0 note=74 velocity=0 time=0.19833333333333333@note_on channel=0 note=75 velocity=80 time=0.0016666666666666666@note_on channel=0 note=60 velocity=0 time=0.19833333333333333@note_on channel=0 note=75 velocity=0 time=0@note_on channel=0 note=41 velocity=0 time=0@note_on channel=0 note=77 velocity=80 time=0.0016666666666666666@note_on channel=0 note=68 velocity=80 time=0@note_on channel=0 note=77 velocity=0 time=0.19833333333333333@note_on channel=0 note=79 velocity=80 time=0.0016666666666666666@note_on channel=0 note=68 velocity=0 time=0.19833333333333333@note_on channel=0 note=79 velocity=0 time=0@note_on channel=0 note=80 velocity=80 time=0.0016666666666666666@note_on channel=0 note=65 velocity=80 time=0@note_on channel=0 note=80 velocity=0 time=0.19833333333333333@note_on channel=0 note=77 velocity=80 time=0.0016666666666666666@note_on channel=0 note=77 velocity=0 time=0.19833333333333333@note_on channel=0 note=56 velocity=0 time=0@note_on channel=0 note=71 velocity=80 time=0.0016666666666666666@note_on channel=0 note=55 velocity=80 time=0@note_on channel=0 note=43 velocity=80 time=0@note_on channel=0 note=71 velocity=0 time=0.19833333333333333@note_on channel=0 note=72 velocity=80 time=0.0016666666666666666@note_on channel=0 note=72 velocity=0 time=0.19833333333333333@note_on channel=0 note=55 velocity=0 time=0@note_on channel=0 note=74 velocity=80 time=0.0016666666666666666@note_on channel=0 note=57 velocity=80 time=0@note_on channel=0 note=74 velocity=0 time=0.19833333333333333@note_on channel=0 note=71 velocity=80 time=0.0016666666666666666@note_on channel=0 note=71 velocity=0 time=0.19833333333333333@note_on channel=0 note=57 velocity=0 time=0@note_on channel=0 note=67 velocity=80 time=0.0016666666666666666@note_on channel=0 note=59 velocity=80 time=0@note_on channel=0 note=65 velocity=0 time=0.19833333333333333@note_on channel=0 note=65 velocity=80 time=0.0016666666666666666@note_on channel=0 note=67 velocity=0 time=0.19833333333333333@note_on channel=0 note=65 velocity=0 time=0@note_on channel=0 note=63 velocity=80 time=0.0016666666666666666@note_on channel=0 note=63 velocity=0 time=0.19833333333333333@note_on channel=0 note=62 velocity=80 time=0.0016666666666666666@note_on channel=0 note=62 velocity=0 time=0.19833333333333333@note_on channel=0 note=59 velocity=0 time=0@note_on channel=0 note=72 velocity=80 time=0.0016666666666666666@note_on channel=0 note=63 velocity=80 time=0@note_on channel=0 note=60 velocity=80 time=0@note_on channel=0 note=63 velocity=0 time=0.19833333333333333@note_on channel=0 note=62 velocity=80 time=0.0016666666666666666@note_on channel=0 note=62 velocity=0 time=0.19833333333333333@note_on channel=0 note=60 velocity=0 time=0@note_on channel=0 note=60 velocity=80 time=0.0016666666666666666@note_on channel=0 note=60 velocity=0 time=0.19833333333333333@note_on channel=0 note=63 velocity=80 time=0.0016666666666666666@note_on channel=0 note=72 velocity=0 time=0.19833333333333333@note_on channel=0 note=63 velocity=0 time=0@note_on channel=0 note=79 velocity=80 time=0.0016666666666666666@note_on channel=0 note=62 velocity=80 time=0@note_on channel=0 note=62 velocity=0 time=0.19833333333333333@note_on channel=0 note=60 velocity=80 time=0.0016666666666666666@note_on channel=0 note=60 velocity=0 time=0.19833333333333333@note_on channel=0 note=59 velocity=80 time=0.0016666666666666666@note_on channel=0 note=59 velocity=0 time=0.19833333333333333@note_on channel=0 note=62 velocity=80 time=0.0016666666666666666@note_on channel=0 note=79 velocity=0 time=0.19833333333333333@note_on channel=0 note=62 velocity=0 time=0@note_on channel=0 note=43 velocity=0 time=0@note_on channel=0 note=75 velocity=80 time=0.0016666666666666666@note_on channel=0 note=60 velocity=80 time=0@note_on channel=0 note=36 velocity=80 time=0@note_on channel=0 note=60 velocity=0 time=0.19833333333333333@note_on channel=0 note=55 velocity=80 time=0.0016666666666666666@note_on channel=0 note=55 velocity=0 time=0.19833333333333333@note_on channel=0 note=36 velocity=0 time=0@note_on channel=0 note=60 velocity=80 time=0.0016666666666666666@note_on channel=0 note=43 velocity=80 time=0@note_on channel=0 note=60 velocity=0 time=0.19833333333333333@note_on channel=0 note=62 velocity=80 time=0.0016666666666666666@note_on channel=0 note=62 velocity=0 time=0.19833333333333333@note_on channel=0 note=43 velocity=0 time=0@note_on channel=0 note=63 velocity=80 time=0.0016666666666666666@note_on channel=0 note=48 velocity=80 time=0@note_on channel=0 note=63 velocity=0 time=0.19833333333333333@note_on channel=0 note=65 velocity=80 time=0.0016666666666666666@note_on channel=0 note=75 velocity=0 time=0.19833333333333333@note_on channel=0 note=65 velocity=0 time=0@note_on channel=0 note=48 velocity=0 time=0@note_on channel=0 note=74 velocity=80 time=0.0016666666666666666@note_on channel=0 note=63 velocity=80 time=0@note_on channel=0 note=50 velocity=80 time=0@note_on channel=0 note=63 velocity=0 time=0.19833333333333333@note_on channel=0 note=65 velocity=80 time=0.0016666666666666666@note_on channel=0 note=74 velocity=0 time=0.19833333333333333@note_on channel=0 note=65 velocity=0 time=0@note_on channel=0 note=50 velocity=0 time=0@note_on channel=0 note=72 velocity=80 time=0.0016666666666666666@note_on channel=0 note=67 velocity=80 time=0@note_on channel=0 note=51 velocity=80 time=0@note_on channel=0 note=67 velocity=0 time=0.19833333333333333@note_on channel=0 note=63 velocity=80 time=0.0016666666666666666@note_on channel=0 note=72 velocity=0 time=0.19833333333333333@note_on channel=0 note=63 velocity=0 time=0@note_on channel=0 note=75 velocity=80 time=0.0016666666666666666@note_on channel=0 note=60 velocity=80 time=0@note_on channel=0 note=60 velocity=0 time=0.19833333333333333@note_on channel=0 note=67 velocity=80 time=0.0016666666666666666@note_on channel=0 note=75 velocity=0 time=0.19833333333333333@note_on channel=0 note=67 velocity=0 time=0@note_on channel=0 note=51 velocity=0 time=0@note_on channel=0 note=74 velocity=80 time=0.0016666666666666666@note_on channel=0 note=68 velocity=80 time=0@note_on channel=0 note=53 velocity=80 time=0@note_on channel=0 note=68 velocity=0 time=0.19833333333333333@note_on channel=0 note=65 velocity=80 time=0.0016666666666666666@note_on channel=0 note=74 velocity=0 time=0.19833333333333333@note_on channel=0 note=65 velocity=0 time=0@note_on channel=0 note=72 velocity=80 time=0.0016666666666666666@note_on channel=0 note=67 velocity=80 time=0@note_on channel=0 note=67 velocity=0 time=0.19833333333333333@note_on channel=0 note=68 velocity=80 time=0.0016666666666666666@note_on channel=0 note=72 velocity=0 time=0.19833333333333333@note_on channel=0 note=68 velocity=0 time=0@note_on channel=0 note=53 velocity=0 time=0@note_on channel=0 note=71 velocity=80 time=0.0016666666666666666@note_on channel=0 note=62 velocity=80 time=0@note_on channel=0 note=55 velocity=80 time=0@note_on channel=0 note=62 velocity=0 time=0.19833333333333333@note_on channel=0 note=63 velocity=80 time=0.0016666666666666666@note_on channel=0 note=71 velocity=0 time=0.19833333333333333@note_on channel=0 note=63 velocity=0 time=0@note_on channel=0 note=74 velocity=80 time=0.0016666666666666666@note_on channel=0 note=62 velocity=80 time=0@note_on channel=0 note=62 velocity=0 time=0.19833333333333333@note_on channel=0 note=60 velocity=80 time=0.0016666666666666666@note_on channel=0 note=74 velocity=0 time=0.19833333333333333@note_on channel=0 note=60 velocity=0 time=0@note_on channel=0 note=67 velocity=80 time=0.0016666666666666666@note_on channel=0 note=59 velocity=80 time=0@note_on channel=0 note=55 velocity=0 time=0.19833333333333333@note_on channel=0 note=55 velocity=80 time=0.0016666666666666666@note_on channel=0 note=59 velocity=0 time=0.19833333333333333@note_on channel=0 note=55 velocity=0 time=0@note_on channel=0 note=62 velocity=80 time=0.0016666666666666666@note_on channel=0 note=53 velocity=80 time=0@note_on channel=0 note=53 velocity=0 time=0.19833333333333333@note_on channel=0 note=55 velocity=80 time=0.0016666666666666666@note_on channel=0 note=67 velocity=0 time=0.19833333333333333@note_on channel=0 note=62 velocity=0 time=0@note_on channel=0 note=55 velocity=0 time=0@note_on channel=0 note=72 velocity=80 time=0.0016666666666666666@note_on channel=0 note=55 velocity=80 time=0@note_on channel=0 note=51 velocity=80 time=0@note_on channel=0 note=55 velocity=0 time=0.19833333333333333@note_on channel=0 note=51 velocity=0 time=0@note_on channel=0 note=55 velocity=80 time=0.0016666666666666666@note_on channel=0 note=72 velocity=0 time=0.19833333333333333@note_on channel=0 note=67 velocity=80 time=0.0016666666666666666@note_on channel=0 note=53 velocity=80 time=0@note_on channel=0 note=55 velocity=0 time=0.19833333333333333@note_on channel=0 note=53 velocity=0 time=0@note_on channel=0 note=55 velocity=80 time=0.0016666666666666666@note_on channel=0 note=67 velocity=0 time=0.19833333333333333@note_on channel=0 note=74 velocity=80 time=0.0016666666666666666@note_on channel=0 note=47 velocity=80 time=0@note_on channel=0 note=55 velocity=0 time=0.19833333333333333@note_on channel=0 note=47 velocity=0 time=0@note_on channel=0 note=55 velocity=80 time=0.0016666666666666666@note_on channel=0 note=74 velocity=0 time=0.19833333333333333@note_on channel=0 note=67 velocity=80 time=0.0016666666666666666@note_on channel=0 note=53 velocity=80 time=0@note_on channel=0 note=55 velocity=0 time=0.19833333333333333@note_on channel=0 note=53 velocity=0 time=0@note_on channel=0 note=55 velocity=80 time=0.0016666666666666666@note_on channel=0 note=67 velocity=0 time=0.19833333333333333@note_on channel=0 note=75 velocity=80 time=0.0016666666666666666@note_on channel=0 note=48 velocity=80 time=0@note_on channel=0 note=55 velocity=0 time=0.19833333333333333@note_on channel=0 note=48 velocity=0 time=0@note_on channel=0 note=55 velocity=80 time=0.0016666666666666666@note_on channel=0 note=75 velocity=0 time=0.19833333333333333@note_on channel=0 note=74 velocity=80 time=0.0016666666666666666@note_on channel=0 note=53 velocity=80 time=0@note_on channel=0 note=55 velocity=0 time=0.19833333333333333@note_on channel=0 note=74 velocity=0 time=0@note_on channel=0 note=53 velocity=0 time=0@note_on channel=0 note=72 velocity=80 time=0.0016666666666666666@note_on channel=0 note=55 velocity=80 time=0@note_on channel=0 note=72 velocity=0 time=0.19833333333333333@note_on channel=0 note=74 velocity=80 time=0.0016666666666666666@note_on channel=0 note=47 velocity=80 time=0@note_on channel=0 note=55 velocity=0 time=0.19833333333333333@note_on channel=0 note=47 velocity=0 time=0@note_on channel=0 note=55 velocity=80 time=0.0016666666666666666@note_on channel=0 note=74 velocity=0 time=0.19833333333333333@note_on channel=0 note=67 velocity=80 time=0.0016666666666666666@note_on channel=0 note=53 velocity=80 time=0@note_on channel=0 note=55 velocity=0 time=0.19833333333333333@note_on channel=0 note=53 velocity=0 time=0@note_on channel=0 note=55 velocity=80 time=0.0016666666666666666@note_on channel=0 note=67 velocity=0 time=0.19833333333333333@note_on channel=0 note=55 velocity=0 time=0@note_on channel=0 note=72 velocity=80 time=0.0016666666666666666@note_on channel=0 note=55 velocity=80 time=0@note_on channel=0 note=51 velocity=80 time=0@note_on channel=0 note=51 velocity=0 time=0.19833333333333333@note_on channel=0 note=60 velocity=80 time=0.0016666666666666666@note_on channel=0 note=72 velocity=0 time=0.19833333333333333@note_on channel=0 note=60 velocity=0 time=0@note_on channel=0 note=67 velocity=80 time=0.0016666666666666666@note_on channel=0 note=59 velocity=80 time=0@note_on channel=0 note=67 velocity=0 time=0.19833333333333333@note_on channel=0 note=59 velocity=0 time=0@note_on channel=0 note=72 velocity=80 time=0.0016666666666666666@note_on channel=0 note=60 velocity=80 time=0@note_on channel=0 note=72 velocity=0 time=0.19833333333333333@note_on channel=0 note=60 velocity=0 time=0@note_on channel=0 note=74 velocity=80 time=0.0016666666666666666@note_on channel=0 note=53 velocity=80 time=0@note_on channel=0 note=53 velocity=0 time=0.19833333333333333@note_on channel=0 note=60 velocity=80 time=0.0016666666666666666@note_on channel=0 note=74 velocity=0 time=0.19833333333333333@note_on channel=0 note=60 velocity=0 time=0@note_on channel=0 note=67 velocity=80 time=0.0016666666666666666@note_on channel=0 note=59 velocity=80 time=0@note_on channel=0 note=67 velocity=0 time=0.19833333333333333@note_on channel=0 note=59 velocity=0 time=0@note_on channel=0 note=74 velocity=80 time=0.0016666666666666666@note_on channel=0 note=60 velocity=80 time=0@note_on channel=0 note=55 velocity=0 time=0.19833333333333333@note_on channel=0 note=74 velocity=0 time=0@note_on channel=0 note=60 velocity=0 time=0@note_on channel=0 note=75 velocity=80 time=0.0016666666666666666@note_on channel=0 note=55 velocity=80 time=0@note_on channel=0 note=60 velocity=80 time=0.19999999999999998@note_on channel=0 note=75 velocity=0 time=0.19833333333333333@note_on channel=0 note=60 velocity=0 time=0@note_on channel=0 note=74 velocity=80 time=0.0016666666666666666@note_on channel=0 note=59 velocity=80 time=0@note_on channel=0 note=74 velocity=0 time=0.19833333333333333@note_on channel=0 note=59 velocity=0 time=0@note_on channel=0 note=72 velocity=80 time=0.0016666666666666666@note_on channel=0 note=60 velocity=80 time=0@note_on channel=0 note=55 velocity=0 time=0.19833333333333333@note_on channel=0 note=72 velocity=0 time=0@note_on channel=0 note=60 velocity=0 time=0@note_on channel=0 note=74 velocity=80 time=0.0016666666666666666@note_on channel=0 note=55 velocity=80 time=0@note_on channel=0 note=74 velocity=0 time=0.19833333333333333@note_on channel=0 note=67 velocity=80 time=0.0016666666666666666@note_on channel=0 note=59 velocity=80 time=0@note_on channel=0 note=67 velocity=0 time=0.19833333333333333@note_on channel=0 note=59 velocity=0 time=0@note_on channel=0 note=79 velocity=80 time=0.0016666666666666666@note_on channel=0 note=57 velocity=80 time=0@note_on channel=0 note=79 velocity=0 time=0.19833333333333333@note_on channel=0 note=57 velocity=0 time=0@note_on channel=0 note=77 velocity=80 time=0.0016666666666666666@note_on channel=0 note=59 velocity=80 time=0@note_on channel=0 note=77 velocity=0 time=0.19833333333333333@note_on channel=0 note=59 velocity=0 time=0@note_on channel=0 note=75 velocity=80 time=0.0016666666666666666@note_on channel=0 note=48 velocity=80 time=0@note_on channel=0 note=75 velocity=0 time=0.19833333333333333@note_on channel=0 note=74 velocity=80 time=0.0016666666666666666@note_on channel=0 note=55 velocity=0 time=0.19833333333333333@note_on channel=0 note=74 velocity=0 time=0@note_on channel=0 note=48 velocity=0 time=0@note_on channel=0 note=72 velocity=80 time=0.0016666666666666666@note_on channel=0 note=67 velocity=80 time=0@note_on channel=0 note=51 velocity=80 time=0@note_on channel=0 note=72 velocity=0 time=0.19833333333333333@note_on channel=0 note=75 velocity=80 time=0.0016666666666666666@note_on channel=0 note=67 velocity=0 time=0.19833333333333333@note_on channel=0 note=75 velocity=0 time=0@note_on channel=0 note=51 velocity=0 time=0@note_on channel=0 note=74 velocity=80 time=0.0016666666666666666@note_on channel=0 note=65 velocity=80 time=0@note_on channel=0 note=53 velocity=80 time=0@note_on channel=0 note=74 velocity=0 time=0.19833333333333333@note_on channel=0 note=65 velocity=0 time=0@note_on channel=0 note=72 velocity=80 time=0.0016666666666666666@note_on channel=0 note=63 velocity=80 time=0@note_on channel=0 note=72 velocity=0 time=0.19833333333333333@note_on channel=0 note=63 velocity=0 time=0@note_on channel=0 note=53 velocity=0 time=0@note_on channel=0 note=71 velocity=80 time=0.0016666666666666666@note_on channel=0 note=62 velocity=80 time=0@note_on channel=0 note=55 velocity=80 time=0@note_on channel=0 note=71 velocity=0 time=0.19833333333333333@note_on channel=0 note=62 velocity=0 time=0@note_on channel=0 note=74 velocity=80 time=0.0016666666666666666@note_on channel=0 note=65 velocity=80 time=0@note_on channel=0 note=74 velocity=0 time=0.19833333333333333@note_on channel=0 note=65 velocity=0 time=0@note_on channel=0 note=55 velocity=0 time=0@note_on channel=0 note=72 velocity=80 time=0.0016666666666666666@note_on channel=0 note=63 velocity=80 time=0@note_on channel=0 note=48 velocity=80 time=0@note_on channel=0 note=72 velocity=0 time=0.19833333333333333@note_on channel=0 note=79 velocity=80 time=0.0016666666666666666@note_on channel=0 note=79 velocity=0 time=0.19833333333333333@note_on channel=0 note=75 velocity=80 time=0.0016666666666666666@note_on channel=0 note=55 velocity=80 time=0@note_on channel=0 note=75 velocity=0 time=0.19833333333333333@note_on channel=0 note=79 velocity=80 time=0.0016666666666666666@note_on channel=0 note=63 velocity=0 time=0.19833333333333333@note_on channel=0 note=79 velocity=0 time=0@note_on channel=0 note=55 velocity=0 time=0@note_on channel=0 note=48 velocity=0 time=0@note_on channel=0 note=72 velocity=80 time=0.0016666666666666666@note_on channel=0 note=51 velocity=80 time=0@note_on channel=0 note=72 velocity=0 time=0.19833333333333333@note_on channel=0 note=75 velocity=80 time=0.0016666666666666666@note_on channel=0 note=75 velocity=0 time=0.19833333333333333@note_on channel=0 note=51 velocity=0 time=0@note_on channel=0 note=67 velocity=80 time=0.0016666666666666666@note_on channel=0 note=48 velocity=80 time=0@note_on channel=0 note=67 velocity=0 time=0.19833333333333333@note_on channel=0 note=70 velocity=80 time=0.0016666666666666666@note_on channel=0 note=70 velocity=0 time=0.19833333333333333@note_on channel=0 note=48 velocity=0 time=0@note_on channel=0 note=69 velocity=80 time=0.0016666666666666666@note_on channel=0 note=53 velocity=80 time=0@note_on channel=0 note=69 velocity=0 time=0.19833333333333333@note_on channel=0 note=72 velocity=80 time=0.0016666666666666666@note_on channel=0 note=72 velocity=0 time=0.19833333333333333@note_on channel=0 note=69 velocity=80 time=0.0016666666666666666@note_on channel=0 note=60 velocity=80 time=0@note_on channel=0 note=69 velocity=0 time=0.19833333333333333@note_on channel=0 note=72 velocity=80 time=0.0016666666666666666@note_on channel=0 note=60 velocity=0 time=0.19833333333333333@note_on channel=0 note=72 velocity=0 time=0@note_on channel=0 note=53 velocity=0 time=0@note_on channel=0 note=65 velocity=80 time=0.0016666666666666666@note_on channel=0 note=57 velocity=80 time=0@note_on channel=0 note=65 velocity=0 time=0.19833333333333333@note_on channel=0 note=69 velocity=80 time=0.0016666666666666666@note_on channel=0 note=57 velocity=0 time=0.19833333333333333@note_on channel=0 note=69 velocity=0 time=0@note_on channel=0 note=60 velocity=80 time=0.0016666666666666666@note_on channel=0 note=53 velocity=80 time=0@note_on channel=0 note=60 velocity=0 time=0.19833333333333333@note_on channel=0 note=63 velocity=80 time=0.0016666666666666666@note_on channel=0 note=53 velocity=0 time=0.19833333333333333@note_on channel=0 note=63 velocity=0 time=0@note_on channel=0 note=62 velocity=80 time=0.0016666666666666666@note_on channel=0 note=58 velocity=80 time=0@note_on channel=0 note=62 velocity=0 time=0.19833333333333333@note_on channel=0 note=77 velocity=80 time=0.0016666666666666666@note_on channel=0 note=77 velocity=0 time=0.19833333333333333@note_on channel=0 note=74 velocity=80 time=0.0016666666666666666@note_on channel=0 note=53 velocity=80 time=0@note_on channel=0 note=74 velocity=0 time=0.19833333333333333@note_on channel=0 note=77 velocity=80 time=0.0016666666666666666@note_on channel=0 note=77 velocity=0 time=0.19833333333333333@note_on channel=0 note=53 velocity=0 time=0@note_on channel=0 note=70 velocity=80 time=0.0016666666666666666@note_on channel=0 note=50 velocity=80 time=0@note_on channel=0 note=70 velocity=0 time=0.19833333333333333@note_on channel=0 note=74 velocity=80 time=0.0016666666666666666@note_on channel=0 note=74 velocity=0 time=0.19833333333333333@note_on channel=0 note=50 velocity=0 time=0@note_on channel=0 note=65 velocity=80 time=0.0016666666666666666@note_on channel=0 note=46 velocity=80 time=0@note_on channel=0 note=65 velocity=0 time=0.19833333333333333@note_on channel=0 note=69 velocity=80 time=0.0016666666666666666@note_on channel=0 note=69 velocity=0 time=0.19833333333333333@note_on channel=0 note=46 velocity=0 time=0@note_on channel=0 note=67 velocity=80 time=0.0016666666666666666@note_on channel=0 note=51 velocity=80 time=0@note_on channel=0 note=67 velocity=0 time=0.19833333333333333@note_on channel=0 note=70 velocity=80 time=0.0016666666666666666@note_on channel=0 note=70 velocity=0 time=0.19833333333333333@note_on channel=0 note=58 velocity=0 time=0@note_on channel=0 note=67 velocity=80 time=0.0016666666666666666@note_on channel=0 note=58 velocity=80 time=0@note_on channel=0 note=67 velocity=0 time=0.19833333333333333@note_on channel=0 note=70 velocity=80 time=0.0016666666666666666@note_on channel=0 note=70 velocity=0 time=0.19833333333333333@note_on channel=0 note=51 velocity=0 time=0@note_on channel=0 note=58 velocity=0 time=0@note_on channel=0 note=63 velocity=80 time=0.0016666666666666666@note_on channel=0 note=55 velocity=80 time=0@note_on channel=0 note=63 velocity=0 time=0.19833333333333333@note_on channel=0 note=67 velocity=80 time=0.0016666666666666666@note_on channel=0 note=67 velocity=0 time=0.19833333333333333@note_on channel=0 note=55 velocity=0 time=0@note_on channel=0 note=58 velocity=80 time=0.0016666666666666666@note_on channel=0 note=51 velocity=80 time=0@note_on channel=0 note=58 velocity=0 time=0.19833333333333333@note_on channel=0 note=62 velocity=80 time=0.0016666666666666666@note_on channel=0 note=62 velocity=0 time=0.19833333333333333@note_on channel=0 note=51 velocity=0 time=0@note_on channel=0 note=60 velocity=80 time=0.0016666666666666666@note_on channel=0 note=57 velocity=80 time=0@note_on channel=0 note=60 velocity=0 time=0.19833333333333333@note_on channel=0 note=75 velocity=80 time=0.0016666666666666666@note_on channel=0 note=75 velocity=0 time=0.19833333333333333@note_on channel=0 note=72 velocity=80 time=0.0016666666666666666@note_on channel=0 note=51 velocity=80 time=0@note_on channel=0 note=72 velocity=0 time=0.19833333333333333@note_on channel=0 note=75 velocity=80 time=0.0016666666666666666@note_on channel=0 note=75 velocity=0 time=0.19833333333333333@note_on channel=0 note=51 velocity=0 time=0@note_on channel=0 note=69 velocity=80 time=0.0016666666666666666@note_on channel=0 note=48 velocity=80 time=0@note_on channel=0 note=69 velocity=0 time=0.19833333333333333@note_on channel=0 note=72 velocity=80 time=0.0016666666666666666@note_on channel=0 note=72 velocity=0 time=0.19833333333333333@note_on channel=0 note=48 velocity=0 time=0@note_on channel=0 note=64 velocity=80 time=0.0016666666666666666@note_on channel=0 note=45 velocity=80 time=0@note_on channel=0 note=64 velocity=0 time=0.19833333333333333@note_on channel=0 note=67 velocity=80 time=0.0016666666666666666@note_on channel=0 note=67 velocity=0 time=0.19833333333333333@note_on channel=0 note=45 velocity=0 time=0@note_on channel=0 note=66 velocity=80 time=0.0016666666666666666@note_on channel=0 note=50 velocity=80 time=0@note_on channel=0 note=66 velocity=0 time=0.19833333333333333@note_on channel=0 note=69 velocity=80 time=0.0016666666666666666@note_on channel=0 note=69 velocity=0 time=0.19833333333333333@note_on channel=0 note=57 velocity=0 time=0@note_on channel=0 note=66 velocity=80 time=0.0016666666666666666@note_on channel=0 note=57 velocity=80 time=0@note_on channel=0 note=66 velocity=0 time=0.19833333333333333@note_on channel=0 note=69 velocity=80 time=0.0016666666666666666@note_on channel=0 note=69 velocity=0 time=0.19833333333333333@note_on channel=0 note=50 velocity=0 time=0@note_on channel=0 note=57 velocity=0 time=0@note_on channel=0 note=62 velocity=80 time=0.0016666666666666666@note_on channel=0 note=54 velocity=80 time=0@note_on channel=0 note=62 velocity=0 time=0.19833333333333333@note_on channel=0 note=66 velocity=80 time=0.0016666666666666666@note_on channel=0 note=66 velocity=0 time=0.19833333333333333@note_on channel=0 note=54 velocity=0 time=0@note_on channel=0 note=57 velocity=80 time=0.0016666666666666666@note_on channel=0 note=50 velocity=80 time=0@note_on channel=0 note=57 velocity=0 time=0.19833333333333333@note_on channel=0 note=60 velocity=80 time=0.0016666666666666666@note_on channel=0 note=60 velocity=0 time=0.19833333333333333@note_on channel=0 note=50 velocity=0 time=0@note_on channel=0 note=58 velocity=80 time=0.0016666666666666666@note_on channel=0 note=55 velocity=80 time=0@note_on channel=0 note=43 velocity=80 time=0@note_on channel=0 note=43 velocity=0 time=0.19833333333333333@note_on channel=0 note=46 velocity=80 time=0.0016666666666666666@note_on channel=0 note=58 velocity=0 time=0.19833333333333333@note_on channel=0 note=46 velocity=0 time=0@note_on channel=0 note=67 velocity=80 time=0.0016666666666666666@note_on channel=0 note=45 velocity=80 time=0@note_on channel=0 note=45 velocity=0 time=0.19833333333333333@note_on channel=0 note=43 velocity=80 time=0.0016666666666666666@note_on channel=0 note=67 velocity=0 time=0.19833333333333333@note_on channel=0 note=55 velocity=0 time=0@note_on channel=0 note=43 velocity=0 time=0@note_on channel=0 note=57 velocity=80 time=0.0016666666666666666@note_on channel=0 note=50 velocity=80 time=0@note_on channel=0 note=50 velocity=0 time=0.19833333333333333@note_on channel=0 note=45 velocity=80 time=0.0016666666666666666@note_on channel=0 note=57 velocity=0 time=0.19833333333333333@note_on channel=0 note=45 velocity=0 time=0@note_on channel=0 note=66 velocity=80 time=0.0016666666666666666@note_on channel=0 note=38 velocity=80 time=0@note_on channel=0 note=38 velocity=0 time=0.19833333333333333@note_on channel=0 note=48 velocity=80 time=0.0016666666666666666@note_on channel=0 note=66 velocity=0 time=0.19833333333333333@note_on channel=0 note=48 velocity=0 time=0@note_on channel=0 note=67 velocity=80 time=0.0016666666666666666@note_on channel=0 note=55 velocity=80 time=0@note_on channel=0 note=46 velocity=80 time=0@note_on channel=0 note=55 velocity=0 time=0.19833333333333333@note_on channel=0 note=58 velocity=80 time=0.0016666666666666666@note_on channel=0 note=46 velocity=0 time=0.19833333333333333@note_on channel=0 note=58 velocity=0 time=0@note_on channel=0 note=57 velocity=80 time=0.0016666666666666666@note_on channel=0 note=50 velocity=80 time=0@note_on channel=0 note=57 velocity=0 time=0.19833333333333333@note_on channel=0 note=55 velocity=80 time=0.0016666666666666666@note_on channel=0 note=67 velocity=0 time=0.19833333333333333@note_on channel=0 note=50 velocity=0 time=0@note_on channel=0 note=55 velocity=0 time=0@note_on channel=0 note=62 velocity=80 time=0.0016666666666666666@note_on channel=0 note=42 velocity=80 time=0@note_on channel=0 note=62 velocity=0 time=0.19833333333333333@note_on channel=0 note=57 velocity=80 time=0.0016666666666666666@note_on channel=0 note=42 velocity=0 time=0.19833333333333333@note_on channel=0 note=57 velocity=0 time=0@note_on channel=0 note=50 velocity=80 time=0.0016666666666666666@note_on channel=0 note=60 velocity=80 time=0.19999999999999998@note_on channel=0 note=50 velocity=0 time=0.19833333333333333@note_on channel=0 note=60 velocity=0 time=0@note_on channel=0 note=67 velocity=80 time=0.0016666666666666666@note_on channel=0 note=58 velocity=80 time=0@note_on channel=0 note=55 velocity=80 time=0@note_on channel=0 note=67 velocity=0 time=0.19833333333333333@note_on channel=0 note=70 velocity=80 time=0.0016666666666666666@note_on channel=0 note=70 velocity=0 time=0.19833333333333333@note_on channel=0 note=58 velocity=0 time=0@note_on channel=0 note=69 velocity=80 time=0.0016666666666666666@note_on channel=0 note=62 velocity=80 time=0@note_on channel=0 note=69 velocity=0 time=0.19833333333333333@note_on channel=0 note=67 velocity=80 time=0.0016666666666666666@note_on channel=0 note=67 velocity=0 time=0.19833333333333333@note_on channel=0 note=55 velocity=0 time=0@note_on channel=0 note=62 velocity=0 time=0@note_on channel=0 note=74 velocity=80 time=0.0016666666666666666@note_on channel=0 note=57 velocity=80 time=0@note_on channel=0 note=54 velocity=80 time=0@note_on channel=0 note=74 velocity=0 time=0.19833333333333333@note_on channel=0 note=69 velocity=80 time=0.0016666666666666666@note_on channel=0 note=69 velocity=0 time=0.19833333333333333@note_on channel=0 note=57 velocity=0 time=0@note_on channel=0 note=62 velocity=80 time=0.0016666666666666666@note_on channel=0 note=72 velocity=80 time=0.19999999999999998@note_on channel=0 note=72 velocity=0 time=0.19833333333333333@note_on channel=0 note=54 velocity=0 time=0@note_on channel=0 note=70 velocity=80 time=0.0016666666666666666@note_on channel=0 note=55 velocity=80 time=0@note_on channel=0 note=70 velocity=0 time=0.19833333333333333@note_on channel=0 note=74 velocity=80 time=0.0016666666666666666@note_on channel=0 note=74 velocity=0 time=0.19833333333333333@note_on channel=0 note=62 velocity=0 time=0@note_on channel=0 note=72 velocity=80 time=0.0016666666666666666@note_on channel=0 note=67 velocity=80 time=0@note_on channel=0 note=72 velocity=0 time=0.19833333333333333@note_on channel=0 note=70 velocity=80 time=0.0016666666666666666@note_on channel=0 note=70 velocity=0 time=0.19833333333333333@note_on channel=0 note=55 velocity=0 time=0@note_on channel=0 note=67 velocity=0 time=0@note_on channel=0 note=77 velocity=80 time=0.0016666666666666666@note_on channel=0 note=72 velocity=80 time=0@note_on channel=0 note=57 velocity=80 time=0@note_on channel=0 note=77 velocity=0 time=0.19833333333333333@note_on channel=0 note=72 velocity=80 time=0.0016666666666666666@note_on channel=0 note=72 velocity=0 time=0.19833333333333333@note_on channel=0 note=72 velocity=0 time=0@note_on channel=0 note=65 velocity=80 time=0.0016666666666666666@note_on channel=0 note=75 velocity=80 time=0.19999999999999998@note_on channel=0 note=75 velocity=0 time=0.19833333333333333@note_on channel=0 note=57 velocity=0 time=0@note_on channel=0 note=74 velocity=80 time=0.0016666666666666666@note_on channel=0 note=58 velocity=80 time=0@note_on channel=0 note=74 velocity=0 time=0.19833333333333333@note_on channel=0 note=77 velocity=80 time=0.0016666666666666666@note_on channel=0 note=77 velocity=0 time=0.19833333333333333@note_on channel=0 note=65 velocity=0 time=0@note_on channel=0 note=75 velocity=80 time=0.0016666666666666666@note_on channel=0 note=65 velocity=80 time=0@note_on channel=0 note=75 velocity=0 time=0.19833333333333333@note_on channel=0 note=74 velocity=80 time=0.0016666666666666666@note_on channel=0 note=74 velocity=0 time=0.19833333333333333@note_on channel=0 note=58 velocity=0 time=0@note_on channel=0 note=65 velocity=0 time=0@note_on channel=0 note=79 velocity=80 time=0.0016666666666666666@note_on channel=0 note=62 velocity=80 time=0@note_on channel=0 note=59 velocity=80 time=0@note_on channel=0 note=79 velocity=0 time=0.19833333333333333@note_on channel=0 note=74 velocity=80 time=0.0016666666666666666@note_on channel=0 note=74 velocity=0 time=0.19833333333333333@note_on channel=0 note=62 velocity=0 time=0@note_on channel=0 note=67 velocity=80 time=0.0016666666666666666@note_on channel=0 note=77 velocity=80 time=0.19999999999999998@note_on channel=0 note=77 velocity=0 time=0.19833333333333333@note_on channel=0 note=59 velocity=0 time=0@note_on channel=0 note=76 velocity=80 time=0.0016666666666666666@note_on channel=0 note=60 velocity=80 time=0@note_on channel=0 note=76 velocity=0 time=0.19833333333333333@note_on channel=0 note=79 velocity=80 time=0.0016666666666666666@note_on channel=0 note=79 velocity=0 time=0.19833333333333333@note_on channel=0 note=67 velocity=0 time=0@note_on channel=0 note=77 velocity=80 time=0.0016666666666666666@note_on channel=0 note=67 velocity=80 time=0@note_on channel=0 note=77 velocity=0 time=0.19833333333333333@note_on channel=0 note=76 velocity=80 time=0.0016666666666666666@note_on channel=0 note=76 velocity=0 time=0.19833333333333333@note_on channel=0 note=60 velocity=0 time=0@note_on channel=0 note=67 velocity=0 time=0@note_on channel=0 note=81 velocity=80 time=0.0016666666666666666@note_on channel=0 note=64 velocity=80 time=0@note_on channel=0 note=61 velocity=80 time=0@note_on channel=0 note=81 velocity=0 time=0.19833333333333333@note_on channel=0 note=76 velocity=80 time=0.0016666666666666666@note_on channel=0 note=76 velocity=0 time=0.19833333333333333@note_on channel=0 note=64 velocity=0 time=0@note_on channel=0 note=69 velocity=80 time=0.0016666666666666666@note_on channel=0 note=79 velocity=80 time=0.19999999999999998@note_on channel=0 note=79 velocity=0 time=0.19833333333333333@note_on channel=0 note=61 velocity=0 time=0@note_on channel=0 note=78 velocity=80 time=0.0016666666666666666@note_on channel=0 note=62 velocity=80 time=0@note_on channel=0 note=69 velocity=0 time=0.19833333333333333@note_on channel=0 note=75 velocity=80 time=0.0016666666666666666@note_on channel=0 note=75 velocity=0 time=0.19833333333333333@note_on channel=0 note=74 velocity=80 time=0.0016666666666666666@note_on channel=0 note=74 velocity=0 time=0.19833333333333333@note_on channel=0 note=72 velocity=80 time=0.0016666666666666666@note_on channel=0 note=78 velocity=0 time=0.19833333333333333@note_on channel=0 note=62 velocity=0 time=0@note_on channel=0 note=72 velocity=0 time=0@note_on channel=0 note=79 velocity=80 time=0.0016666666666666666@note_on channel=0 note=70 velocity=80 time=0@note_on channel=0 note=64 velocity=80 time=0@note_on channel=0 note=70 velocity=0 time=0.19833333333333333@note_on channel=0 note=74 velocity=80 time=0.0016666666666666666@note_on channel=0 note=79 velocity=0 time=0.19833333333333333@note_on channel=0 note=74 velocity=0 time=0@note_on channel=0 note=64 velocity=0 time=0@note_on channel=0 note=81 velocity=80 time=0.0016666666666666666@note_on channel=0 note=69 velocity=80 time=0@note_on channel=0 note=66 velocity=80 time=0@note_on channel=0 note=69 velocity=0 time=0.19833333333333333@note_on channel=0 note=74 velocity=80 time=0.0016666666666666666@note_on channel=0 note=81 velocity=0 time=0.19833333333333333@note_on channel=0 note=74 velocity=0 time=0@note_on channel=0 note=66 velocity=0 time=0@note_on channel=0 note=82 velocity=80 time=0.0016666666666666666@note_on channel=0 note=67 velocity=80 time=0@note_on channel=0 note=80 velocity=80 time=0.19999999999999998@note_on channel=0 note=80 velocity=0 time=0.19833333333333333@note_on channel=0 note=79 velocity=80 time=0.0016666666666666666@note_on channel=0 note=79 velocity=0 time=0.19833333333333333@note_on channel=0 note=77 velocity=80 time=0.0016666666666666666@note_on channel=0 note=77 velocity=0 time=0.19833333333333333@note_on channel=0 note=67 velocity=0 time=0@note_on channel=0 note=79 velocity=80 time=0.0016666666666666666@note_on channel=0 note=69 velocity=80 time=0@note_on channel=0 note=79 velocity=0 time=0.19833333333333333@note_on channel=0 note=77 velocity=80 time=0.0016666666666666666@note_on channel=0 note=77 velocity=0 time=0.19833333333333333@note_on channel=0 note=69 velocity=0 time=0@note_on channel=0 note=75 velocity=80 time=0.0016666666666666666@note_on channel=0 note=70 velocity=80 time=0@note_on channel=0 note=75 velocity=0 time=0.19833333333333333@note_on channel=0 note=74 velocity=80 time=0.0016666666666666666@note_on channel=0 note=74 velocity=0 time=0.19833333333333333@note_on channel=0 note=70 velocity=0 time=0@note_on channel=0 note=75 velocity=80 time=0.0016666666666666666@note_on channel=0 note=72 velocity=80 time=0@note_on channel=0 note=72 velocity=0 time=0.19833333333333333@note_on channel=0 note=67 velocity=80 time=0.0016666666666666666@note_on channel=0 note=67 velocity=0 time=0.19833333333333333@note_on channel=0 note=65 velocity=80 time=0.0016666666666666666@note_on channel=0 note=65 velocity=0 time=0.19833333333333333@note_on channel=0 note=63 velocity=80 time=0.0016666666666666666@note_on channel=0 note=82 velocity=0 time=0.19833333333333333@note_on channel=0 note=63 velocity=0 time=0@note_on channel=0 note=81 velocity=80 time=0.0016666666666666666@note_on channel=0 note=72 velocity=80 time=0@note_on channel=0 note=72 velocity=0 time=0.19833333333333333@note_on channel=0 note=69 velocity=80 time=0.0016666666666666666@note_on channel=0 note=69 velocity=0 time=0.19833333333333333@note_on channel=0 note=65 velocity=80 time=0.0016666666666666666@note_on channel=0 note=65 velocity=0 time=0.19833333333333333@note_on channel=0 note=69 velocity=80 time=0.0016666666666666666@note_on channel=0 note=75 velocity=0 time=0.19833333333333333@note_on channel=0 note=69 velocity=0 time=0@note_on channel=0 note=74 velocity=80 time=0.0016666666666666666@note_on channel=0 note=58 velocity=80 time=0@note_on channel=0 note=58 velocity=0 time=0.19833333333333333@note_on channel=0 note=65 velocity=80 time=0.0016666666666666666@note_on channel=0 note=65 velocity=0 time=0.19833333333333333@note_on channel=0 note=63 velocity=80 time=0.0016666666666666666@note_on channel=0 note=63 velocity=0 time=0.19833333333333333@note_on channel=0 note=62 velocity=80 time=0.0016666666666666666@note_on channel=0 note=81 velocity=0 time=0.19833333333333333@note_on channel=0 note=62 velocity=0 time=0@note_on channel=0 note=79 velocity=80 time=0.0016666666666666666@note_on channel=0 note=70 velocity=80 time=0@note_on channel=0 note=70 velocity=0 time=0.19833333333333333@note_on channel=0 note=67 velocity=80 time=0.0016666666666666666@note_on channel=0 note=67 velocity=0 time=0.19833333333333333@note_on channel=0 note=63 velocity=80 time=0.0016666666666666666@note_on channel=0 note=63 velocity=0 time=0.19833333333333333@note_on channel=0 note=67 velocity=80 time=0.0016666666666666666@note_on channel=0 note=74 velocity=0 time=0.19833333333333333@note_on channel=0 note=67 velocity=0 time=0@note_on channel=0 note=72 velocity=80 time=0.0016666666666666666@note_on channel=0 note=57 velocity=80 time=0@note_on channel=0 note=57 velocity=0 time=0.19833333333333333@note_on channel=0 note=63 velocity=80 time=0.0016666666666666666@note_on channel=0 note=63 velocity=0 time=0.19833333333333333@note_on channel=0 note=62 velocity=80 time=0.0016666666666666666@note_on channel=0 note=62 velocity=0 time=0.19833333333333333@note_on channel=0 note=60 velocity=80 time=0.0016666666666666666@note_on channel=0 note=79 velocity=0 time=0.19833333333333333@note_on channel=0 note=60 velocity=0 time=0@note_on channel=0 note=78 velocity=80 time=0.0016666666666666666@note_on channel=0 note=69 velocity=80 time=0@note_on channel=0 note=69 velocity=0 time=0.19833333333333333@note_on channel=0 note=66 velocity=80 time=0.0016666666666666666@note_on channel=0 note=66 velocity=0 time=0.19833333333333333@note_on channel=0 note=62 velocity=80 time=0.0016666666666666666@note_on channel=0 note=62 velocity=0 time=0.19833333333333333@note_on channel=0 note=66 velocity=80 time=0.0016666666666666666@note_on channel=0 note=72 velocity=0 time=0.19833333333333333@note_on channel=0 note=78 velocity=0 time=0@note_on channel=0 note=66 velocity=0 time=0@note_on channel=0 note=79 velocity=80 time=0.0016666666666666666@note_on channel=0 note=70 velocity=80 time=0@note_on channel=0 note=55 velocity=80 time=0@note_on channel=0 note=70 velocity=0 time=0.19833333333333333@note_on channel=0 note=74 velocity=80 time=0.0016666666666666666@note_on channel=0 note=58 velocity=80 time=0@note_on channel=0 note=74 velocity=0 time=0.19833333333333333@note_on channel=0 note=58 velocity=0 time=0@note_on channel=0 note=72 velocity=80 time=0.0016666666666666666@note_on channel=0 note=62 velocity=80 time=0@note_on channel=0 note=72 velocity=0 time=0.19833333333333333@note_on channel=0 note=62 velocity=0 time=0@note_on channel=0 note=70 velocity=80 time=0.0016666666666666666@note_on channel=0 note=67 velocity=80 time=0@note_on channel=0 note=79 velocity=0 time=0.19833333333333333@note_on channel=0 note=70 velocity=0 time=0@note_on channel=0 note=67 velocity=0 time=0@note_on channel=0 note=55 velocity=0 time=0@note_on channel=0 note=69 velocity=80 time=0.0016666666666666666@note_on channel=0 note=66 velocity=80 time=0@note_on channel=0 note=62 velocity=80 time=0@note_on channel=0 note=69 velocity=0 time=0.19833333333333333@note_on channel=0 note=66 velocity=0 time=0@note_on channel=0 note=70 velocity=80 time=0.0016666666666666666@note_on channel=0 note=67 velocity=80 time=0@note_on channel=0 note=70 velocity=0 time=0.19833333333333333@note_on channel=0 note=67 velocity=0 time=0@note_on channel=0 note=67 velocity=80 time=0.0016666666666666666@note_on channel=0 note=64 velocity=80 time=0@note_on channel=0 note=67 velocity=0 time=0.19833333333333333@note_on channel=0 note=64 velocity=0 time=0@note_on channel=0 note=69 velocity=80 time=0.0016666666666666666@note_on channel=0 note=66 velocity=80 time=0@note_on channel=0 note=69 velocity=0 time=0.19833333333333333@note_on channel=0 note=66 velocity=0 time=0@note_on channel=0 note=62 velocity=0 time=0@note_on channel=0 note=70 velocity=80 time=0.0016666666666666666@note_on channel=0 note=67 velocity=80 time=0@note_on channel=0 note=58 velocity=80 time=0@note_on channel=0 note=70 velocity=0 time=0.19833333333333333@note_on channel=0 note=72 velocity=80 time=0.0016666666666666666@note_on channel=0 note=72 velocity=0 time=0.19833333333333333@note_on channel=0 note=74 velocity=80 time=0.0016666666666666666@note_on channel=0 note=70 velocity=80 time=0@note_on channel=0 note=70 velocity=0 time=0.19833333333333333@note_on channel=0 note=72 velocity=80 time=0.0016666666666666666@note_on channel=0 note=74 velocity=0 time=0.19833333333333333@note_on channel=0 note=72 velocity=0 time=0@note_on channel=0 note=79 velocity=80 time=0.0016666666666666666@note_on channel=0 note=74 velocity=80 time=0@note_on channel=0 note=74 velocity=0 time=0.19833333333333333@note_on channel=0 note=75 velocity=80 time=0.0016666666666666666@note_on channel=0 note=79 velocity=0 time=0.19833333333333333@note_on channel=0 note=75 velocity=0 time=0@note_on channel=0 note=67 velocity=0 time=0@note_on channel=0 note=58 velocity=0 time=0@note_on channel=0 note=81 velocity=80 time=0.0016666666666666666@note_on channel=0 note=74 velocity=80 time=0@note_on channel=0 note=66 velocity=80 time=0@note_on channel=0 note=57 velocity=80 time=0@note_on channel=0 note=74 velocity=0 time=0.19833333333333333@note_on channel=0 note=72 velocity=80 time=0.0016666666666666666@note_on channel=0 note=81 velocity=0 time=0.19833333333333333@note_on channel=0 note=72 velocity=0 time=0@note_on channel=0 note=66 velocity=0 time=0@note_on channel=0 note=57 velocity=0 time=0@note_on channel=0 note=82 velocity=80 time=0.0016666666666666666@note_on channel=0 note=70 velocity=80 time=0@note_on channel=0 note=67 velocity=80 time=0@note_on channel=0 note=55 velocity=80 time=0@note_on channel=0 note=82 velocity=0 time=0.19833333333333333@note_on channel=0 note=81 velocity=80 time=0.0016666666666666666@note_on channel=0 note=70 velocity=0 time=0.19833333333333333@note_on channel=0 note=81 velocity=0 time=0@note_on channel=0 note=55 velocity=0 time=0@note_on channel=0 note=79 velocity=80 time=0.0016666666666666666@note_on channel=0 note=74 velocity=80 time=0@note_on channel=0 note=58 velocity=80 time=0@note_on channel=0 note=79 velocity=0 time=0.19833333333333333@note_on channel=0 note=81 velocity=80 time=0.0016666666666666666@note_on channel=0 note=74 velocity=0 time=0.19833333333333333@note_on channel=0 note=81 velocity=0 time=0@note_on channel=0 note=67 velocity=0 time=0@note_on channel=0 note=58 velocity=0 time=0@note_on channel=0 note=78 velocity=80 time=0.0016666666666666666@note_on channel=0 note=72 velocity=80 time=0@note_on channel=0 note=69 velocity=80 time=0@note_on channel=0 note=57 velocity=80 time=0@note_on channel=0 note=78 velocity=0 time=0.19833333333333333@note_on channel=0 note=79 velocity=80 time=0.0016666666666666666@note_on channel=0 note=72 velocity=0 time=0.19833333333333333@note_on channel=0 note=79 velocity=0 time=0@note_on channel=0 note=69 velocity=0 time=0@note_on channel=0 note=57 velocity=0 time=0@note_on channel=0 note=78 velocity=80 time=0.0016666666666666666@note_on channel=0 note=70 velocity=80 time=0@note_on channel=0 note=62 velocity=80 time=0@note_on channel=0 note=55 velocity=80 time=0@note_on channel=0 note=78 velocity=0 time=0.19833333333333333@note_on channel=0 note=79 velocity=80 time=0.0016666666666666666@note_on channel=0 note=70 velocity=0 time=0.19833333333333333@note_on channel=0 note=79 velocity=0 time=0@note_on channel=0 note=62 velocity=0 time=0@note_on channel=0 note=55 velocity=0 time=0@note_on channel=0 note=81 velocity=80 time=0.0016666666666666666@note_on channel=0 note=69 velocity=80 time=0@note_on channel=0 note=62 velocity=80 time=0@note_on channel=0 note=54 velocity=80 time=0@note_on channel=0 note=81 velocity=0 time=0.19833333333333333@note_on channel=0 note=79 velocity=80 time=0.0016666666666666666@note_on channel=0 note=79 velocity=0 time=0.19833333333333333@note_on channel=0 note=54 velocity=0 time=0@note_on channel=0 note=78 velocity=80 time=0.0016666666666666666@note_on channel=0 note=57 velocity=80 time=0@note_on channel=0 note=78 velocity=0 time=0.19833333333333333@note_on channel=0 note=76 velocity=80 time=0.0016666666666666666@note_on channel=0 note=69 velocity=0 time=0.19833333333333333@note_on channel=0 note=76 velocity=0 time=0@note_on channel=0 note=62 velocity=0 time=0@note_on channel=0 note=57 velocity=0 time=0@note_on channel=0 note=74 velocity=80 time=0.0016666666666666666@note_on channel=0 note=50 velocity=80 time=0@note_on channel=0 note=74 velocity=0 time=0.19833333333333333@note_on channel=0 note=72 velocity=80 time=0.0016666666666666666@note_on channel=0 note=72 velocity=0 time=0.19833333333333333@note_on channel=0 note=70 velocity=80 time=0.0016666666666666666@note_on channel=0 note=62 velocity=80 time=0@note_on channel=0 note=54 velocity=80 time=0@note_on channel=0 note=70 velocity=0 time=0.19833333333333333@note_on channel=0 note=69 velocity=80 time=0.0016666666666666666@note_on channel=0 note=62 velocity=0 time=0.19833333333333333@note_on channel=0 note=69 velocity=0 time=0@note_on channel=0 note=54 velocity=0 time=0@note_on channel=0 note=50 velocity=0 time=0@note_on channel=0 note=70 velocity=80 time=0.0016666666666666666@note_on channel=0 note=62 velocity=80 time=0@note_on channel=0 note=55 velocity=80 time=0@note_on channel=0 note=55 velocity=80 time=0@note_on channel=0 note=70 velocity=0 time=0.19833333333333333@note_on channel=0 note=74 velocity=80 time=0.0016666666666666666@note_on channel=0 note=74 velocity=0 time=0.19833333333333333@note_on channel=0 note=55 velocity=0 time=0@note_on channel=0 note=55 velocity=0 time=0@note_on channel=0 note=72 velocity=80 time=0.0016666666666666666@note_on channel=0 note=50 velocity=80 time=0@note_on channel=0 note=72 velocity=0 time=0.19833333333333333@note_on channel=0 note=74 velocity=80 time=0.0016666666666666666@note_on channel=0 note=74 velocity=0 time=0.19833333333333333@note_on channel=0 note=50 velocity=0 time=0@note_on channel=0 note=66 velocity=80 time=0.0016666666666666666@note_on channel=0 note=60 velocity=80 time=0@note_on channel=0 note=57 velocity=80 time=0@note_on channel=0 note=66 velocity=0 time=0.19833333333333333@note_on channel=0 note=74 velocity=80 time=0.0016666666666666666@note_on channel=0 note=74 velocity=0 time=0.19833333333333333@note_on channel=0 note=60 velocity=0 time=0@note_on channel=0 note=57 velocity=0 time=0@note_on channel=0 note=72 velocity=80 time=0.0016666666666666666@note_on channel=0 note=50 velocity=80 time=0@note_on channel=0 note=72 velocity=0 time=0.19833333333333333@note_on channel=0 note=74 velocity=80 time=0.0016666666666666666@note_on channel=0 note=74 velocity=0 time=0.19833333333333333@note_on channel=0 note=50 velocity=0 time=0@note_on channel=0 note=67 velocity=80 time=0.0016666666666666666@note_on channel=0 note=58 velocity=80 time=0@note_on channel=0 note=58 velocity=80 time=0@note_on channel=0 note=67 velocity=0 time=0.19833333333333333@note_on channel=0 note=74 velocity=80 time=0.0016666666666666666@note_on channel=0 note=74 velocity=0 time=0.19833333333333333@note_on channel=0 note=58 velocity=0 time=0@note_on channel=0 note=58 velocity=0 time=0@note_on channel=0 note=72 velocity=80 time=0.0016666666666666666@note_on channel=0 note=57 velocity=80 time=0@note_on channel=0 note=72 velocity=0 time=0.19833333333333333@note_on channel=0 note=57 velocity=0 time=0@note_on channel=0 note=74 velocity=80 time=0.0016666666666666666@note_on channel=0 note=55 velocity=80 time=0@note_on channel=0 note=74 velocity=0 time=0.19833333333333333@note_on channel=0 note=55 velocity=0 time=0@note_on channel=0 note=66 velocity=80 time=0.0016666666666666666@note_on channel=0 note=60 velocity=80 time=0@note_on channel=0 note=57 velocity=80 time=0@note_on channel=0 note=66 velocity=0 time=0.19833333333333333@note_on channel=0 note=74 velocity=80 time=0.0016666666666666666@note_on channel=0 note=74 velocity=0 time=0.19833333333333333@note_on channel=0 note=60 velocity=0 time=0@note_on channel=0 note=57 velocity=0 time=0@note_on channel=0 note=72 velocity=80 time=0.0016666666666666666@note_on channel=0 note=50 velocity=80 time=0@note_on channel=0 note=72 velocity=0 time=0.19833333333333333@note_on channel=0 note=74 velocity=80 time=0.0016666666666666666@note_on channel=0 note=74 velocity=0 time=0.19833333333333333@note_on channel=0 note=50 velocity=0 time=0@note_on channel=0 note=70 velocity=80 time=0.0016666666666666666@note_on channel=0 note=58 velocity=80 time=0@note_on channel=0 note=55 velocity=80 time=0@note_on channel=0 note=70 velocity=0 time=0.19833333333333333@note_on channel=0 note=67 velocity=80 time=0.0016666666666666666@note_on channel=0 note=67 velocity=0 time=0.19833333333333333@note_on channel=0 note=58 velocity=0 time=0@note_on channel=0 note=55 velocity=0 time=0@note_on channel=0 note=66 velocity=80 time=0.0016666666666666666@note_on channel=0 note=50 velocity=80 time=0@note_on channel=0 note=66 velocity=0 time=0.19833333333333333@note_on channel=0 note=50 velocity=0 time=0@note_on channel=0 note=67 velocity=80 time=0.0016666666666666666@note_on channel=0 note=55 velocity=80 time=0@note_on channel=0 note=67 velocity=0 time=0.19833333333333333@note_on channel=0 note=55 velocity=0 time=0@note_on channel=0 note=72 velocity=80 time=0.0016666666666666666@note_on channel=0 note=57 velocity=80 time=0@note_on channel=0 note=57 velocity=80 time=0@note_on channel=0 note=72 velocity=0 time=0.19833333333333333@note_on channel=0 note=67 velocity=80 time=0.0016666666666666666@note_on channel=0 note=67 velocity=0 time=0.19833333333333333@note_on channel=0 note=57 velocity=0 time=0@note_on channel=0 note=57 velocity=0 time=0@note_on channel=0 note=66 velocity=80 time=0.0016666666666666666@note_on channel=0 note=50 velocity=80 time=0@note_on channel=0 note=66 velocity=0 time=0.19833333333333333@note_on channel=0 note=50 velocity=0 time=0@note_on channel=0 note=67 velocity=80 time=0.0016666666666666666@note_on channel=0 note=57 velocity=80 time=0@note_on channel=0 note=67 velocity=0 time=0.19833333333333333@note_on channel=0 note=57 velocity=0 time=0@note_on channel=0 note=74 velocity=80 time=0.0016666666666666666@note_on channel=0 note=55 velocity=80 time=0@note_on channel=0 note=58 velocity=80 time=0@note_on channel=0 note=74 velocity=0 time=0.19833333333333333@note_on channel=0 note=67 velocity=80 time=0.0016666666666666666@note_on channel=0 note=67 velocity=0 time=0.19833333333333333@note_on channel=0 note=55 velocity=0 time=0@note_on channel=0 note=58 velocity=0 time=0@note_on channel=0 note=66 velocity=80 time=0.0016666666666666666@note_on channel=0 note=57 velocity=80 time=0@note_on channel=0 note=66 velocity=0 time=0.19833333333333333@note_on channel=0 note=57 velocity=0 time=0@note_on channel=0 note=67 velocity=80 time=0.0016666666666666666@note_on channel=0 note=55 velocity=80 time=0@note_on channel=0 note=67 velocity=0 time=0.19833333333333333@note_on channel=0 note=55 velocity=0 time=0@note_on channel=0 note=72 velocity=80 time=0.0016666666666666666@note_on channel=0 note=57 velocity=80 time=0@note_on channel=0 note=57 velocity=80 time=0@note_on channel=0 note=72 velocity=0 time=0.19833333333333333@note_on channel=0 note=67 velocity=80 time=0.0016666666666666666@note_on channel=0 note=67 velocity=0 time=0.19833333333333333@note_on channel=0 note=57 velocity=0 time=0@note_on channel=0 note=57 velocity=0 time=0@note_on channel=0 note=66 velocity=80 time=0.0016666666666666666@note_on channel=0 note=50 velocity=80 time=0@note_on channel=0 note=66 velocity=0 time=0.19833333333333333@note_on channel=0 note=67 velocity=80 time=0.0016666666666666666@note_on channel=0 note=67 velocity=0 time=0.19833333333333333@note_on channel=0 note=50 velocity=0 time=0@<meta message set_tempo tempo=857140 time=0.0016666666666666666>@note_on channel=0 note=70 velocity=80 time=0@note_on channel=0 note=55 velocity=80 time=0@note_on channel=0 note=55 velocity=80 time=0@note_on channel=0 note=62 velocity=0 time=0.4267842916666667@note_on channel=0 note=70 velocity=0 time=0@note_on channel=0 note=55 velocity=0 time=0@note_on channel=0 note=55 velocity=0 time=0@<meta message set_tempo tempo=937497 time=0.0017857083333333334>@note_on channel=0 note=79 velocity=80 time=0@note_on channel=0 note=63 velocity=80 time=0@note_on channel=0 note=58 velocity=80 time=0@note_on channel=0 note=51 velocity=80 time=0@note_on channel=0 note=79 velocity=0 time=0.46679538125@note_on channel=0 note=58 velocity=0 time=0@note_on channel=0 note=51 velocity=0 time=0@<meta message set_tempo tempo=1034482 time=0.0019531187499999998>@note_on channel=0 note=69 velocity=80 time=0@note_on channel=0 note=60 velocity=80 time=0@note_on channel=0 note=48 velocity=80 time=0@note_on channel=0 note=63 velocity=0 time=0.5150858291666666@note_on channel=0 note=69 velocity=0 time=0@note_on channel=0 note=60 velocity=0 time=0@note_on channel=0 note=48 velocity=0 time=0@<meta message set_tempo tempo=1153846 time=0.002155170833333333>@note_on channel=0 note=78 velocity=80 time=0@note_on channel=0 note=62 velocity=80 time=0@note_on channel=0 note=57 velocity=80 time=0@note_on channel=0 note=50 velocity=80 time=0@note_on channel=0 note=78 velocity=0 time=0.5745191541666667@note_on channel=0 note=62 velocity=0 time=0@note_on channel=0 note=57 velocity=0 time=0@note_on channel=0 note=50 velocity=0 time=0@<meta message set_tempo tempo=1304347 time=0.0024038458333333333>@note_on channel=0 note=62 velocity=80 time=0@note_on channel=0 note=79 velocity=80 time=0@note_on channel=0 note=59 velocity=80 time=0@note_on channel=0 note=43 velocity=80 time=0@note_on channel=0 note=62 velocity=0 time=5.2146706104166665@note_on channel=0 note=79 velocity=0 time=0@note_on channel=0 note=59 velocity=0 time=0@note_on channel=0 note=43 velocity=0 time=0@<meta message end_of_track time=0.002717389583333333>@