<meta message time_signature numerator=4 denominator=4 clocks_per_click=24 notated_32nd_notes_per_beat=8 time=0>@<meta message key_signature key='C' time=0>@<meta message set_tempo tempo=600000 time=0>@<meta message midi_port port=0 time=0>@program_change channel=0 program=56 time=0@control_change channel=0 control=7 value=70 time=0@control_change channel=0 control=10 value=64 time=0@control_change channel=0 control=1 value=20 time=0@control_change channel=0 control=91 value=60 time=0@control_change channel=0 control=93 value=0 time=0@note_on channel=0 note=52 velocity=100 time=0@<meta message midi_port port=0 time=0>@program_change channel=1 program=71 time=0@control_change channel=1 control=7 value=90 time=0@control_change channel=1 control=10 value=48 time=0@control_change channel=1 control=1 value=30 time=0@control_change channel=1 control=91 value=80 time=0@control_change channel=1 control=93 value=10 time=0@<meta message midi_port port=0 time=0>@program_change channel=2 program=63 time=0@control_change channel=2 control=7 value=80 time=0@control_change channel=2 control=10 value=80 time=0@control_change channel=2 control=1 value=10 time=0@control_change channel=2 control=91 value=90 time=0@control_change channel=2 control=93 value=30 time=0@<meta message midi_port port=0 time=0>@program_change channel=3 program=61 time=0@control_change channel=3 control=7 value=110 time=0@control_change channel=3 control=10 value=54 time=0@control_change channel=3 control=1 value=20 time=0@control_change channel=3 control=91 value=80 time=0@control_change channel=3 control=93 value=60 time=0@<meta message midi_port port=0 time=0>@control_change channel=4 control=7 value=100 time=0@control_change channel=4 control=10 value=74 time=0@control_change channel=4 control=0 value=8 time=0@program_change channel=4 program=48 time=0@control_change channel=4 control=1 value=0 time=0@control_change channel=4 control=91 value=70 time=0@control_change channel=4 control=93 value=80 time=0@<meta message midi_port port=0 time=0>@program_change channel=5 program=47 time=0@control_change channel=5 control=7 value=90 time=0@control_change channel=5 control=10 value=64 time=0@<meta message midi_port port=0 time=0>@program_change channel=6 program=55 time=0@control_change channel=6 control=7 value=115 time=0@control_change channel=6 control=10 value=52 time=0@control_change channel=6 control=1 value=0 time=0@control_change channel=6 control=91 value=100 time=0@control_change channel=6 control=93 value=120 time=0@<meta message midi_port port=0 time=0>@program_change channel=9 program=0 time=0@control_change channel=9 control=7 value=100 time=0@control_change channel=9 control=10 value=76 time=0@<meta message midi_port port=0 time=0>@program_change channel=7 program=14 time=0@control_change channel=7 control=7 value=90 time=0@control_change channel=7 control=10 value=76 time=0@control_change channel=7 control=1 value=60 time=0@control_change channel=7 control=91 value=120 time=0@control_change channel=7 control=93 value=60 time=0@<meta message midi_port port=0 time=0>@program_change channel=8 program=72 time=0@control_change channel=8 control=7 value=70 time=0@control_change channel=8 control=10 value=52 time=0@control_change channel=8 control=1 value=20 time=0@control_change channel=8 control=91 value=30 time=0@control_change channel=8 control=93 value=70 time=0@note_on channel=0 note=52 velocity=0 time=0.6@note_on channel=0 note=52 velocity=100 time=0@note_on channel=0 note=52 velocity=0 time=0.3@note_on channel=0 note=52 velocity=100 time=0@note_on channel=0 note=52 velocity=0 time=0.3@note_on channel=0 note=48 velocity=100 time=0@note_on channel=0 note=48 velocity=0 time=0.6@note_on channel=0 note=48 velocity=100 time=0@note_on channel=0 note=48 velocity=0 time=0.6@note_on channel=0 note=50 velocity=100 time=0@note_on channel=0 note=50 velocity=0 time=0.6@note_on channel=0 note=50 velocity=100 time=0@note_on channel=0 note=50 velocity=0 time=0.3@note_on channel=0 note=50 velocity=100 time=0@note_on channel=0 note=50 velocity=0 time=0.3@note_on channel=0 note=52 velocity=100 time=0@note_on channel=0 note=52 velocity=0 time=1.2@note_on channel=1 note=64 velocity=100 time=0@note_on channel=2 note=48 velocity=100 time=0@note_on channel=2 note=64 velocity=100 time=0@note_on channel=1 note=64 velocity=0 time=0.6@note_on channel=1 note=64 velocity=100 time=0@note_on channel=2 note=64 velocity=0 time=0@note_on channel=2 note=48 velocity=0 time=0@note_on channel=2 note=48 velocity=100 time=0@note_on channel=2 note=64 velocity=100 time=0@note_on channel=1 note=64 velocity=0 time=0.3@note_on channel=1 note=64 velocity=100 time=0@note_on channel=2 note=64 velocity=0 time=0@note_on channel=2 note=48 velocity=0 time=0@note_on channel=2 note=48 velocity=100 time=0@note_on channel=2 note=64 velocity=100 time=0@note_on channel=1 note=64 velocity=0 time=0.3@note_on channel=1 note=60 velocity=100 time=0@note_on channel=2 note=64 velocity=0 time=0@note_on channel=2 note=48 velocity=0 time=0@note_on channel=2 note=45 velocity=100 time=0@note_on channel=2 note=60 velocity=100 time=0@note_on channel=1 note=60 velocity=0 time=0.6@note_on channel=1 note=60 velocity=100 time=0@note_on channel=2 note=60 velocity=0 time=0@note_on channel=2 note=45 velocity=0 time=0@note_on channel=2 note=45 velocity=100 time=0@note_on channel=2 note=60 velocity=100 time=0@note_on channel=1 note=60 velocity=0 time=0.6@note_on channel=1 note=62 velocity=100 time=0@note_on channel=2 note=60 velocity=0 time=0@note_on channel=2 note=45 velocity=0 time=0@note_on channel=2 note=43 velocity=100 time=0@note_on channel=2 note=62 velocity=100 time=0@note_on channel=1 note=62 velocity=0 time=0.6@note_on channel=1 note=62 velocity=100 time=0@note_on channel=2 note=62 velocity=0 time=0@note_on channel=2 note=43 velocity=0 time=0@note_on channel=2 note=43 velocity=100 time=0@note_on channel=2 note=62 velocity=100 time=0@note_on channel=1 note=62 velocity=0 time=0.15@note_on channel=1 note=62 velocity=100 time=0@note_on channel=1 note=62 velocity=0 time=0.15@note_on channel=1 note=62 velocity=100 time=0@note_on channel=2 note=62 velocity=0 time=0@note_on channel=2 note=43 velocity=0 time=0@note_on channel=2 note=43 velocity=100 time=0@note_on channel=2 note=62 velocity=100 time=0@note_on channel=1 note=62 velocity=0 time=0.15@note_on channel=1 note=62 velocity=100 time=0@note_on channel=1 note=62 velocity=0 time=0.15@note_on channel=1 note=64 velocity=100 time=0@note_on channel=2 note=62 velocity=0 time=0@note_on channel=2 note=43 velocity=0 time=0@note_on channel=2 note=48 velocity=100 time=0@note_on channel=2 note=64 velocity=100 time=0@note_on channel=1 note=64 velocity=0 time=1.2@note_on channel=1 note=64 velocity=100 time=0@note_on channel=2 note=64 velocity=0 time=0@note_on channel=2 note=48 velocity=0 time=0@note_on channel=2 note=48 velocity=100 time=0@note_on channel=2 note=64 velocity=100 time=0@note_on channel=1 note=64 velocity=0 time=0.3@note_on channel=1 note=67 velocity=100 time=0@note_on channel=1 note=67 velocity=0 time=0.3@note_on channel=1 note=65 velocity=100 time=0@note_on channel=2 note=64 velocity=0 time=0@note_on channel=2 note=48 velocity=0 time=0@note_on channel=2 note=48 velocity=100 time=0@note_on channel=2 note=65 velocity=100 time=0@note_on channel=1 note=65 velocity=0 time=0.3@note_on channel=1 note=64 velocity=100 time=0@note_on channel=2 note=65 velocity=0 time=0@note_on channel=2 note=48 velocity=0 time=0@note_on channel=2 note=48 velocity=100 time=0@note_on channel=2 note=64 velocity=100 time=0@note_on channel=1 note=64 velocity=0 time=0.3@note_on channel=1 note=62 velocity=100 time=0@note_on channel=2 note=64 velocity=0 time=0@note_on channel=2 note=48 velocity=0 time=0@note_on channel=2 note=45 velocity=100 time=0@note_on channel=2 note=62 velocity=100 time=0@note_on channel=1 note=62 velocity=0 time=0.6@note_on channel=1 note=60 velocity=100 time=0@note_on channel=2 note=62 velocity=0 time=0@note_on channel=2 note=45 velocity=0 time=0@note_on channel=2 note=48 velocity=100 time=0@note_on channel=2 note=60 velocity=100 time=0@note_on channel=1 note=60 velocity=0 time=0.6@note_on channel=1 note=60 velocity=100 time=0@note_on channel=2 note=60 velocity=0 time=0@note_on channel=2 note=48 velocity=0 time=0@note_on channel=2 note=48 velocity=100 time=0@note_on channel=2 note=60 velocity=100 time=0@note_on channel=1 note=60 velocity=0 time=0.6@note_on channel=1 note=57 velocity=100 time=0@note_on channel=2 note=60 velocity=0 time=0@note_on channel=2 note=48 velocity=0 time=0@note_on channel=2 note=50 velocity=100 time=0@note_on channel=2 note=57 velocity=100 time=0@note_on channel=1 note=57 velocity=0 time=0.15@note_on channel=1 note=57 velocity=100 time=0@note_on channel=1 note=57 velocity=0 time=0.15@note_on channel=1 note=59 velocity=100 time=0@note_on channel=2 note=57 velocity=0 time=0@note_on channel=2 note=50 velocity=0 time=0@note_on channel=2 note=50 velocity=100 time=0@note_on channel=2 note=59 velocity=100 time=0@note_on channel=1 note=59 velocity=0 time=0.3@note_on channel=1 note=60 velocity=100 time=0@note_on channel=2 note=59 velocity=0 time=0@note_on channel=2 note=50 velocity=0 time=0@note_on channel=2 note=48 velocity=100 time=0@note_on channel=2 note=60 velocity=100 time=0@note_on channel=1 note=60 velocity=0 time=1.2@note_on channel=1 note=67 velocity=100 time=0@note_on channel=2 note=60 velocity=0 time=0@note_on channel=2 note=48 velocity=0 time=0@note_on channel=2 note=52 velocity=100 time=0@note_on channel=2 note=67 velocity=100 time=0@note_on channel=1 note=67 velocity=0 time=0.6@note_on channel=1 note=67 velocity=100 time=0@note_on channel=2 note=67 velocity=0 time=0@note_on channel=2 note=52 velocity=0 time=0@note_on channel=2 note=52 velocity=100 time=0@note_on channel=2 note=67 velocity=100 time=0@note_on channel=1 note=67 velocity=0 time=0.3@note_on channel=1 note=67 velocity=100 time=0@note_on channel=2 note=67 velocity=0 time=0@note_on channel=2 note=52 velocity=0 time=0@note_on channel=2 note=52 velocity=100 time=0@note_on channel=2 note=67 velocity=100 time=0@note_on channel=1 note=67 velocity=0 time=0.3@note_on channel=1 note=72 velocity=100 time=0@note_on channel=2 note=67 velocity=0 time=0@note_on channel=2 note=52 velocity=0 time=0@note_on channel=2 note=48 velocity=100 time=0@note_on channel=2 note=60 velocity=100 time=0@note_on channel=1 note=72 velocity=0 time=0.6@note_on channel=1 note=67 velocity=100 time=0@note_on channel=2 note=60 velocity=0 time=0@note_on channel=2 note=48 velocity=0 time=0@note_on channel=2 note=52 velocity=100 time=0@note_on channel=2 note=67 velocity=100 time=0@note_on channel=1 note=67 velocity=0 time=0.6@note_on channel=1 note=67 velocity=100 time=0@note_on channel=2 note=67 velocity=0 time=0@note_on channel=2 note=52 velocity=0 time=0@note_on channel=2 note=52 velocity=100 time=0@note_on channel=2 note=67 velocity=100 time=0@note_on channel=1 note=67 velocity=0 time=0.6@note_on channel=1 note=64 velocity=100 time=0@note_on channel=2 note=67 velocity=0 time=0@note_on channel=2 note=52 velocity=0 time=0@note_on channel=2 note=55 velocity=100 time=0@note_on channel=2 note=64 velocity=100 time=0@note_on channel=1 note=64 velocity=0 time=0.3@note_on channel=1 note=65 velocity=100 time=0@note_on channel=2 note=64 velocity=0 time=0@note_on channel=2 note=55 velocity=0 time=0@note_on channel=2 note=53 velocity=100 time=0@note_on channel=2 note=65 velocity=100 time=0@note_on channel=1 note=65 velocity=0 time=0.3@note_on channel=1 note=67 velocity=100 time=0@note_on channel=2 note=65 velocity=0 time=0@note_on channel=2 note=53 velocity=0 time=0@note_on channel=2 note=55 velocity=100 time=0@note_on channel=2 note=67 velocity=100 time=0@note_on channel=1 note=67 velocity=0 time=1.2@note_on channel=1 note=65 velocity=100 time=0@note_on channel=2 note=67 velocity=0 time=0@note_on channel=2 note=55 velocity=0 time=0@note_on channel=2 note=50 velocity=100 time=0@note_on channel=2 note=65 velocity=100 time=0@note_on channel=1 note=65 velocity=0 time=0.6@note_on channel=1 note=65 velocity=100 time=0@note_on channel=2 note=65 velocity=0 time=0@note_on channel=2 note=50 velocity=0 time=0@note_on channel=2 note=50 velocity=100 time=0@note_on channel=2 note=65 velocity=100 time=0@note_on channel=1 note=65 velocity=0 time=0.3@note_on channel=1 note=64 velocity=100 time=0@note_on channel=2 note=65 velocity=0 time=0@note_on channel=2 note=50 velocity=0 time=0@note_on channel=2 note=55 velocity=100 time=0@note_on channel=2 note=64 velocity=100 time=0@note_on channel=1 note=64 velocity=0 time=0.3@note_on channel=1 note=62 velocity=100 time=0@note_on channel=2 note=64 velocity=0 time=0@note_on channel=2 note=55 velocity=0 time=0@note_on channel=2 note=50 velocity=100 time=0@note_on channel=2 note=62 velocity=100 time=0@note_on channel=1 note=62 velocity=0 time=0.6@note_on channel=1 note=60 velocity=100 time=0@note_on channel=2 note=62 velocity=0 time=0@note_on channel=2 note=50 velocity=0 time=0@note_on channel=2 note=45 velocity=100 time=0@note_on channel=2 note=60 velocity=100 time=0@note_on channel=1 note=60 velocity=0 time=0.6@note_on channel=1 note=60 velocity=100 time=0@note_on channel=2 note=60 velocity=0 time=0@note_on channel=2 note=45 velocity=0 time=0@note_on channel=2 note=45 velocity=100 time=0@note_on channel=2 note=60 velocity=100 time=0@note_on channel=1 note=60 velocity=0 time=0.6@note_on channel=1 note=57 velocity=100 time=0@note_on channel=2 note=60 velocity=0 time=0@note_on channel=2 note=45 velocity=0 time=0@note_on channel=2 note=45 velocity=100 time=0@note_on channel=2 note=57 velocity=100 time=0@note_on channel=1 note=57 velocity=0 time=0.3@note_on channel=1 note=59 velocity=100 time=0@note_on channel=2 note=57 velocity=0 time=0@note_on channel=2 note=45 velocity=0 time=0@note_on channel=2 note=43 velocity=100 time=0@note_on channel=2 note=59 velocity=100 time=0@note_on channel=1 note=59 velocity=0 time=0.3@note_on channel=1 note=60 velocity=100 time=0@note_on channel=2 note=59 velocity=0 time=0@note_on channel=2 note=43 velocity=0 time=0@note_on channel=2 note=48 velocity=100 time=0@note_on channel=2 note=60 velocity=100 time=0@note_on channel=1 note=60 velocity=0 time=1.2@note_on channel=2 note=60 velocity=0 time=0@note_on channel=2 note=48 velocity=0 time=0@note_on channel=3 note=48 velocity=100 time=0@note_on channel=3 note=64 velocity=100 time=0@note_on channel=4 note=64 velocity=100 time=0@note_on channel=3 note=64 velocity=0 time=0.6@note_on channel=3 note=48 velocity=0 time=0@note_on channel=3 note=48 velocity=100 time=0@note_on channel=3 note=64 velocity=100 time=0@note_on channel=4 note=64 velocity=0 time=0@note_on channel=4 note=64 velocity=100 time=0@note_on channel=3 note=64 velocity=0 time=0.3@note_on channel=3 note=48 velocity=0 time=0@note_on channel=3 note=48 velocity=100 time=0@note_on channel=3 note=64 velocity=100 time=0@note_on channel=4 note=64 velocity=0 time=0@note_on channel=4 note=64 velocity=100 time=0@note_on channel=3 note=64 velocity=0 time=0.3@note_on channel=3 note=48 velocity=0 time=0@note_on channel=3 note=45 velocity=100 time=0@note_on channel=3 note=60 velocity=100 time=0@note_on channel=4 note=64 velocity=0 time=0@note_on channel=4 note=60 velocity=100 time=0@note_on channel=3 note=60 velocity=0 time=0.6@note_on channel=3 note=45 velocity=0 time=0@note_on channel=3 note=45 velocity=100 time=0@note_on channel=3 note=60 velocity=100 time=0@note_on channel=4 note=60 velocity=0 time=0@note_on channel=4 note=60 velocity=100 time=0@note_on channel=3 note=60 velocity=0 time=0.6@note_on channel=3 note=45 velocity=0 time=0@note_on channel=3 note=43 velocity=100 time=0@note_on channel=3 note=62 velocity=100 time=0@note_on channel=4 note=60 velocity=0 time=0@note_on channel=4 note=62 velocity=100 time=0@note_on channel=3 note=62 velocity=0 time=0.6@note_on channel=3 note=43 velocity=0 time=0@note_on channel=3 note=43 velocity=100 time=0@note_on channel=3 note=62 velocity=100 time=0@note_on channel=4 note=62 velocity=0 time=0@note_on channel=4 note=62 velocity=100 time=0@note_on channel=4 note=62 velocity=0 time=0.15@note_on channel=4 note=62 velocity=100 time=0@note_on channel=3 note=62 velocity=0 time=0.15@note_on channel=3 note=43 velocity=0 time=0@note_on channel=3 note=43 velocity=100 time=0@note_on channel=3 note=62 velocity=100 time=0@note_on channel=4 note=62 velocity=0 time=0@note_on channel=4 note=62 velocity=100 time=0@note_on channel=4 note=62 velocity=0 time=0.15@note_on channel=4 note=62 velocity=100 time=0@note_on channel=3 note=62 velocity=0 time=0.15@note_on channel=3 note=43 velocity=0 time=0@note_on channel=3 note=48 velocity=100 time=0@note_on channel=3 note=64 velocity=100 time=0@note_on channel=4 note=62 velocity=0 time=0@note_on channel=4 note=64 velocity=100 time=0@note_on channel=3 note=64 velocity=0 time=1.2@note_on channel=3 note=48 velocity=0 time=0@note_on channel=3 note=48 velocity=100 time=0@note_on channel=3 note=64 velocity=100 time=0@note_on channel=4 note=64 velocity=0 time=0@note_on channel=4 note=64 velocity=100 time=0@note_on channel=4 note=64 velocity=0 time=0.3@note_on channel=4 note=67 velocity=100 time=0@note_on channel=3 note=64 velocity=0 time=0.3@note_on channel=3 note=48 velocity=0 time=0@note_on channel=3 note=48 velocity=100 time=0@note_on channel=3 note=65 velocity=100 time=0@note_on channel=4 note=67 velocity=0 time=0@note_on channel=4 note=65 velocity=100 time=0@note_on channel=3 note=65 velocity=0 time=0.3@note_on channel=3 note=48 velocity=0 time=0@note_on channel=3 note=48 velocity=100 time=0@note_on channel=3 note=64 velocity=100 time=0@note_on channel=4 note=65 velocity=0 time=0@note_on channel=4 note=64 velocity=100 time=0@note_on channel=3 note=64 velocity=0 time=0.3@note_on channel=3 note=48 velocity=0 time=0@note_on channel=3 note=45 velocity=100 time=0@note_on channel=3 note=62 velocity=100 time=0@note_on channel=4 note=64 velocity=0 time=0@note_on channel=4 note=62 velocity=100 time=0@note_on channel=3 note=62 velocity=0 time=0.6@note_on channel=3 note=45 velocity=0 time=0@note_on channel=3 note=48 velocity=100 time=0@note_on channel=3 note=60 velocity=100 time=0@note_on channel=4 note=62 velocity=0 time=0@note_on channel=4 note=60 velocity=100 time=0@note_on channel=3 note=60 velocity=0 time=0.6@note_on channel=3 note=48 velocity=0 time=0@note_on channel=3 note=48 velocity=100 time=0@note_on channel=3 note=60 velocity=100 time=0@note_on channel=4 note=60 velocity=0 time=0@note_on channel=4 note=60 velocity=100 time=0@note_on channel=3 note=60 velocity=0 time=0.6@note_on channel=3 note=48 velocity=0 time=0@note_on channel=3 note=50 velocity=100 time=0@note_on channel=3 note=57 velocity=100 time=0@note_on channel=4 note=60 velocity=0 time=0@note_on channel=4 note=57 velocity=100 time=0@note_on channel=4 note=57 velocity=0 time=0.15@note_on channel=4 note=57 velocity=100 time=0@note_on channel=3 note=57 velocity=0 time=0.15@note_on channel=3 note=50 velocity=0 time=0@note_on channel=3 note=50 velocity=100 time=0@note_on channel=3 note=59 velocity=100 time=0@note_on channel=4 note=57 velocity=0 time=0@note_on channel=4 note=59 velocity=100 time=0@note_on channel=3 note=59 velocity=0 time=0.3@note_on channel=3 note=50 velocity=0 time=0@note_on channel=3 note=48 velocity=100 time=0@note_on channel=3 note=60 velocity=100 time=0@note_on channel=4 note=59 velocity=0 time=0@note_on channel=4 note=60 velocity=100 time=0@note_on channel=3 note=60 velocity=0 time=1.2@note_on channel=3 note=48 velocity=0 time=0@note_on channel=3 note=52 velocity=100 time=0@note_on channel=3 note=67 velocity=100 time=0@note_on channel=4 note=60 velocity=0 time=0@note_on channel=4 note=67 velocity=100 time=0@note_on channel=3 note=67 velocity=0 time=0.6@note_on channel=3 note=52 velocity=0 time=0@note_on channel=3 note=52 velocity=100 time=0@note_on channel=3 note=67 velocity=100 time=0@note_on channel=4 note=67 velocity=0 time=0@note_on channel=4 note=67 velocity=100 time=0@note_on channel=3 note=67 velocity=0 time=0.3@note_on channel=3 note=52 velocity=0 time=0@note_on channel=3 note=52 velocity=100 time=0@note_on channel=3 note=67 velocity=100 time=0@note_on channel=4 note=67 velocity=0 time=0@note_on channel=4 note=67 velocity=100 time=0@note_on channel=3 note=67 velocity=0 time=0.3@note_on channel=3 note=52 velocity=0 time=0@note_on channel=3 note=48 velocity=100 time=0@note_on channel=3 note=60 velocity=100 time=0@note_on channel=4 note=67 velocity=0 time=0@note_on channel=4 note=72 velocity=100 time=0@note_on channel=3 note=60 velocity=0 time=0.6@note_on channel=3 note=48 velocity=0 time=0@note_on channel=3 note=52 velocity=100 time=0@note_on channel=3 note=67 velocity=100 time=0@note_on channel=4 note=72 velocity=0 time=0@note_on channel=4 note=67 velocity=100 time=0@note_on channel=3 note=67 velocity=0 time=0.6@note_on channel=3 note=52 velocity=0 time=0@note_on channel=3 note=52 velocity=100 time=0@note_on channel=3 note=67 velocity=100 time=0@note_on channel=4 note=67 velocity=0 time=0@note_on channel=4 note=67 velocity=100 time=0@note_on channel=3 note=67 velocity=0 time=0.6@note_on channel=3 note=52 velocity=0 time=0@note_on channel=3 note=55 velocity=100 time=0@note_on channel=3 note=64 velocity=100 time=0@note_on channel=4 note=67 velocity=0 time=0@note_on channel=4 note=64 velocity=100 time=0@note_on channel=3 note=64 velocity=0 time=0.3@note_on channel=3 note=55 velocity=0 time=0@note_on channel=3 note=53 velocity=100 time=0@note_on channel=3 note=65 velocity=100 time=0@note_on channel=4 note=64 velocity=0 time=0@note_on channel=4 note=65 velocity=100 time=0@note_on channel=3 note=65 velocity=0 time=0.3@note_on channel=3 note=53 velocity=0 time=0@note_on channel=3 note=55 velocity=100 time=0@note_on channel=3 note=67 velocity=100 time=0@note_on channel=4 note=65 velocity=0 time=0@note_on channel=4 note=67 velocity=100 time=0@note_on channel=3 note=67 velocity=0 time=1.2@note_on channel=3 note=55 velocity=0 time=0@note_on channel=3 note=50 velocity=100 time=0@note_on channel=3 note=65 velocity=100 time=0@note_on channel=4 note=67 velocity=0 time=0@note_on channel=4 note=65 velocity=100 time=0@note_on channel=3 note=65 velocity=0 time=0.6@note_on channel=3 note=50 velocity=0 time=0@note_on channel=3 note=50 velocity=100 time=0@note_on channel=3 note=65 velocity=100 time=0@note_on channel=4 note=65 velocity=0 time=0@note_on channel=4 note=65 velocity=100 time=0@note_on channel=3 note=65 velocity=0 time=0.3@note_on channel=3 note=50 velocity=0 time=0@note_on channel=3 note=55 velocity=100 time=0@note_on channel=3 note=64 velocity=100 time=0@note_on channel=4 note=65 velocity=0 time=0@note_on channel=4 note=64 velocity=100 time=0@note_on channel=3 note=64 velocity=0 time=0.3@note_on channel=3 note=55 velocity=0 time=0@note_on channel=3 note=50 velocity=100 time=0@note_on channel=3 note=62 velocity=100 time=0@note_on channel=4 note=64 velocity=0 time=0@note_on channel=4 note=62 velocity=100 time=0@note_on channel=3 note=62 velocity=0 time=0.6@note_on channel=3 note=50 velocity=0 time=0@note_on channel=3 note=45 velocity=100 time=0@note_on channel=3 note=60 velocity=100 time=0@note_on channel=4 note=62 velocity=0 time=0@note_on channel=4 note=60 velocity=100 time=0@note_on channel=3 note=60 velocity=0 time=0.6@note_on channel=3 note=45 velocity=0 time=0@note_on channel=3 note=45 velocity=100 time=0@note_on channel=3 note=60 velocity=100 time=0@note_on channel=4 note=60 velocity=0 time=0@note_on channel=4 note=60 velocity=100 time=0@note_on channel=3 note=60 velocity=0 time=0.6@note_on channel=3 note=45 velocity=0 time=0@note_on channel=3 note=45 velocity=100 time=0@note_on channel=3 note=57 velocity=100 time=0@note_on channel=4 note=60 velocity=0 time=0@note_on channel=4 note=57 velocity=100 time=0@note_on channel=3 note=57 velocity=0 time=0.3@note_on channel=3 note=45 velocity=0 time=0@note_on channel=3 note=43 velocity=100 time=0@note_on channel=3 note=59 velocity=100 time=0@note_on channel=4 note=57 velocity=0 time=0@note_on channel=4 note=59 velocity=100 time=0@note_on channel=3 note=59 velocity=0 time=0.3@note_on channel=3 note=43 velocity=0 time=0@note_on channel=3 note=48 velocity=100 time=0@note_on channel=3 note=60 velocity=100 time=0@note_on channel=4 note=59 velocity=0 time=0@note_on channel=4 note=60 velocity=100 time=0@note_on channel=0 note=52 velocity=100 time=1.2@note_on channel=3 note=60 velocity=0 time=0@note_on channel=3 note=48 velocity=0 time=0@control_change channel=3 control=1 value=10 time=0@control_change channel=3 control=91 value=80 time=0@control_change channel=3 control=93 value=120 time=0@control_change channel=3 control=7 value=115 time=0@note_on channel=3 note=48 velocity=100 time=0@note_on channel=3 note=64 velocity=100 time=0@note_on channel=4 note=60 velocity=0 time=0@control_change channel=4 control=1 value=10 time=0@control_change channel=4 control=91 value=80 time=0@control_change channel=4 control=93 value=125 time=0@control_change channel=4 control=7 value=120 time=0@note_on channel=4 note=64 velocity=100 time=0@note_on channel=6 note=64 velocity=100 time=0@note_on channel=6 note=60 velocity=100 time=0@note_on channel=0 note=52 velocity=0 time=0.6@note_on channel=0 note=52 velocity=100 time=0@note_on channel=3 note=64 velocity=0 time=0@note_on channel=3 note=48 velocity=0 time=0@note_on channel=3 note=48 velocity=100 time=0@note_on channel=3 note=64 velocity=100 time=0@note_on channel=4 note=64 velocity=0 time=0@note_on channel=4 note=64 velocity=100 time=0@note_on channel=6 note=60 velocity=0 time=0@note_on channel=6 note=64 velocity=0 time=0@note_on channel=0 note=52 velocity=0 time=0.3@note_on channel=0 note=52 velocity=100 time=0@note_on channel=3 note=64 velocity=0 time=0@note_on channel=3 note=48 velocity=0 time=0@note_on channel=3 note=48 velocity=100 time=0@note_on channel=3 note=64 velocity=100 time=0@note_on channel=4 note=64 velocity=0 time=0@note_on channel=4 note=64 velocity=100 time=0@note_on channel=0 note=52 velocity=0 time=0.3@note_on channel=0 note=48 velocity=100 time=0@note_on channel=3 note=64 velocity=0 time=0@note_on channel=3 note=48 velocity=0 time=0@note_on channel=3 note=45 velocity=100 time=0@note_on channel=3 note=60 velocity=100 time=0@note_on channel=4 note=64 velocity=0 time=0@note_on channel=4 note=60 velocity=100 time=0@note_on channel=0 note=48 velocity=0 time=0.6@note_on channel=0 note=48 velocity=100 time=0@note_on channel=3 note=60 velocity=0 time=0@note_on channel=3 note=45 velocity=0 time=0@note_on channel=3 note=45 velocity=100 time=0@note_on channel=3 note=60 velocity=100 time=0@note_on channel=4 note=60 velocity=0 time=0@note_on channel=4 note=60 velocity=100 time=0@note_on channel=5 note=48 velocity=100 time=0@note_on channel=5 note=48 velocity=0 time=0.15@note_on channel=5 note=48 velocity=100 time=0@note_on channel=5 note=48 velocity=0 time=0.15@note_on channel=5 note=48 velocity=100 time=0@note_on channel=5 note=48 velocity=0 time=0.15@note_on channel=5 note=48 velocity=100 time=0@note_on channel=0 note=48 velocity=0 time=0.15@note_on channel=0 note=50 velocity=100 time=0@note_on channel=3 note=60 velocity=0 time=0@note_on channel=3 note=45 velocity=0 time=0@note_on channel=3 note=43 velocity=100 time=0@note_on channel=3 note=62 velocity=100 time=0@note_on channel=4 note=60 velocity=0 time=0@note_on channel=4 note=62 velocity=100 time=0@note_on channel=5 note=48 velocity=0 time=0@note_on channel=6 note=67 velocity=100 time=0@note_on channel=6 note=62 velocity=100 time=0@note_on channel=9 note=49 velocity=100 time=0@note_on channel=0 note=50 velocity=0 time=0.6@note_on channel=0 note=50 velocity=100 time=0@note_on channel=3 note=62 velocity=0 time=0@note_on channel=3 note=43 velocity=0 time=0@note_on channel=3 note=43 velocity=100 time=0@note_on channel=3 note=62 velocity=100 time=0@note_on channel=4 note=62 velocity=0 time=0@note_on channel=4 note=62 velocity=100 time=0@note_on channel=6 note=62 velocity=0 time=0@note_on channel=6 note=67 velocity=0 time=0@note_on channel=9 note=49 velocity=0 time=0@note_on channel=4 note=62 velocity=0 time=0.15@note_on channel=4 note=62 velocity=100 time=0@note_on channel=0 note=50 velocity=0 time=0.15@note_on channel=0 note=50 velocity=100 time=0@note_on channel=3 note=62 velocity=0 time=0@note_on channel=3 note=43 velocity=0 time=0@note_on channel=3 note=43 velocity=100 time=0@note_on channel=3 note=62 velocity=100 time=0@note_on channel=4 note=62 velocity=0 time=0@note_on channel=4 note=62 velocity=100 time=0@note_on channel=4 note=62 velocity=0 time=0.15@note_on channel=4 note=62 velocity=100 time=0@note_on channel=0 note=50 velocity=0 time=0.15@note_on channel=0 note=52 velocity=100 time=0@note_on channel=3 note=62 velocity=0 time=0@note_on channel=3 note=43 velocity=0 time=0@note_on channel=3 note=48 velocity=100 time=0@note_on channel=3 note=64 velocity=100 time=0@note_on channel=4 note=62 velocity=0 time=0@note_on channel=4 note=64 velocity=100 time=0@note_on channel=0 note=52 velocity=0 time=1.2@note_on channel=0 note=52 velocity=100 time=0@note_on channel=3 note=64 velocity=0 time=0@note_on channel=3 note=48 velocity=0 time=0@note_on channel=3 note=48 velocity=100 time=0@note_on channel=3 note=64 velocity=100 time=0@note_on channel=4 note=64 velocity=0 time=0@note_on channel=4 note=64 velocity=100 time=0@note_on channel=6 note=64 velocity=100 time=0@note_on channel=6 note=60 velocity=100 time=0@note_on channel=0 note=52 velocity=0 time=0.3@note_on channel=0 note=55 velocity=100 time=0@note_on channel=4 note=64 velocity=0 time=0@note_on channel=4 note=67 velocity=100 time=0@note_on channel=0 note=55 velocity=0 time=0.3@note_on channel=0 note=53 velocity=100 time=0@note_on channel=3 note=64 velocity=0 time=0@note_on channel=3 note=48 velocity=0 time=0@note_on channel=3 note=48 velocity=100 time=0@note_on channel=3 note=65 velocity=100 time=0@note_on channel=4 note=67 velocity=0 time=0@note_on channel=4 note=65 velocity=100 time=0@note_on channel=6 note=60 velocity=0 time=0@note_on channel=6 note=64 velocity=0 time=0@note_on channel=0 note=53 velocity=0 time=0.3@note_on channel=0 note=52 velocity=100 time=0@note_on channel=3 note=65 velocity=0 time=0@note_on channel=3 note=48 velocity=0 time=0@note_on channel=3 note=48 velocity=100 time=0@note_on channel=3 note=64 velocity=100 time=0@note_on channel=4 note=65 velocity=0 time=0@note_on channel=4 note=64 velocity=100 time=0@note_on channel=0 note=52 velocity=0 time=0.3@note_on channel=0 note=50 velocity=100 time=0@note_on channel=3 note=64 velocity=0 time=0@note_on channel=3 note=48 velocity=0 time=0@note_on channel=3 note=45 velocity=100 time=0@note_on channel=3 note=62 velocity=100 time=0@note_on channel=4 note=64 velocity=0 time=0@note_on channel=4 note=62 velocity=100 time=0@note_on channel=0 note=50 velocity=0 time=0.6@note_on channel=0 note=48 velocity=100 time=0@note_on channel=3 note=62 velocity=0 time=0@note_on channel=3 note=45 velocity=0 time=0@note_on channel=3 note=48 velocity=100 time=0@note_on channel=3 note=60 velocity=100 time=0@note_on channel=4 note=62 velocity=0 time=0@note_on channel=4 note=60 velocity=100 time=0@note_on channel=5 note=48 velocity=100 time=0@note_on channel=5 note=48 velocity=0 time=0.15@note_on channel=5 note=48 velocity=100 time=0@note_on channel=5 note=48 velocity=0 time=0.15@note_on channel=5 note=48 velocity=100 time=0@note_on channel=5 note=48 velocity=0 time=0.15@note_on channel=5 note=48 velocity=100 time=0@note_on channel=0 note=48 velocity=0 time=0.15@note_on channel=0 note=48 velocity=100 time=0@note_on channel=3 note=60 velocity=0 time=0@note_on channel=3 note=48 velocity=0 time=0@note_on channel=3 note=48 velocity=100 time=0@note_on channel=3 note=60 velocity=100 time=0@note_on channel=4 note=60 velocity=0 time=0@note_on channel=4 note=60 velocity=100 time=0@note_on channel=5 note=48 velocity=0 time=0@note_on channel=6 note=64 velocity=100 time=0@note_on channel=6 note=60 velocity=100 time=0@note_on channel=9 note=49 velocity=100 time=0@note_on channel=0 note=48 velocity=0 time=0.6@note_on channel=0 note=45 velocity=100 time=0@note_on channel=3 note=60 velocity=0 time=0@note_on channel=3 note=48 velocity=0 time=0@note_on channel=3 note=50 velocity=100 time=0@note_on channel=3 note=57 velocity=100 time=0@note_on channel=4 note=60 velocity=0 time=0@note_on channel=4 note=57 velocity=100 time=0@note_on channel=6 note=60 velocity=0 time=0@note_on channel=6 note=64 velocity=0 time=0@note_on channel=9 note=49 velocity=0 time=0@note_on channel=4 note=57 velocity=0 time=0.15@note_on channel=4 note=57 velocity=100 time=0@note_on channel=0 note=45 velocity=0 time=0.15@note_on channel=0 note=47 velocity=100 time=0@note_on channel=3 note=57 velocity=0 time=0@note_on channel=3 note=50 velocity=0 time=0@note_on channel=3 note=50 velocity=100 time=0@note_on channel=3 note=59 velocity=100 time=0@note_on channel=4 note=57 velocity=0 time=0@note_on channel=4 note=59 velocity=100 time=0@note_on channel=0 note=47 velocity=0 time=0.3@note_on channel=0 note=48 velocity=100 time=0@note_on channel=3 note=59 velocity=0 time=0@note_on channel=3 note=50 velocity=0 time=0@note_on channel=3 note=48 velocity=100 time=0@note_on channel=3 note=60 velocity=100 time=0@note_on channel=4 note=59 velocity=0 time=0@note_on channel=4 note=60 velocity=100 time=0@note_on channel=0 note=48 velocity=0 time=1.2@note_on channel=0 note=55 velocity=100 time=0@note_on channel=3 note=60 velocity=0 time=0@note_on channel=3 note=48 velocity=0 time=0@note_on channel=3 note=67 velocity=100 time=0@note_on channel=3 note=52 velocity=100 time=0@note_on channel=4 note=60 velocity=0 time=0@note_on channel=4 note=67 velocity=100 time=0@note_on channel=6 note=67 velocity=100 time=0@note_on channel=6 note=64 velocity=100 time=0@note_on channel=0 note=55 velocity=0 time=0.6@note_on channel=0 note=55 velocity=100 time=0@note_on channel=3 note=52 velocity=0 time=0@note_on channel=3 note=67 velocity=0 time=0@note_on channel=3 note=52 velocity=100 time=0@note_on channel=3 note=67 velocity=100 time=0@note_on channel=4 note=67 velocity=0 time=0@note_on channel=4 note=67 velocity=100 time=0@note_on channel=6 note=64 velocity=0 time=0@note_on channel=6 note=67 velocity=0 time=0@note_on channel=0 note=55 velocity=0 time=0.3@note_on channel=0 note=55 velocity=100 time=0@note_on channel=3 note=67 velocity=0 time=0@note_on channel=3 note=52 velocity=0 time=0@note_on channel=3 note=52 velocity=100 time=0@note_on channel=3 note=67 velocity=100 time=0@note_on channel=4 note=67 velocity=0 time=0@note_on channel=4 note=67 velocity=100 time=0@note_on channel=0 note=55 velocity=0 time=0.3@note_on channel=0 note=60 velocity=100 time=0@note_on channel=3 note=67 velocity=0 time=0@note_on channel=3 note=52 velocity=0 time=0@note_on channel=3 note=48 velocity=100 time=0@note_on channel=3 note=60 velocity=100 time=0@note_on channel=4 note=67 velocity=0 time=0@note_on channel=4 note=72 velocity=100 time=0@note_on channel=0 note=60 velocity=0 time=0.6@note_on channel=0 note=55 velocity=100 time=0@note_on channel=3 note=60 velocity=0 time=0@note_on channel=3 note=48 velocity=0 time=0@note_on channel=3 note=52 velocity=100 time=0@note_on channel=3 note=67 velocity=100 time=0@note_on channel=4 note=72 velocity=0 time=0@note_on channel=4 note=67 velocity=100 time=0@note_on channel=5 note=48 velocity=100 time=0@note_on channel=5 note=48 velocity=0 time=0.15@note_on channel=5 note=48 velocity=100 time=0@note_on channel=5 note=48 velocity=0 time=0.15@note_on channel=5 note=48 velocity=100 time=0@note_on channel=5 note=48 velocity=0 time=0.15@note_on channel=5 note=48 velocity=100 time=0@note_on channel=0 note=55 velocity=0 time=0.15@note_on channel=0 note=55 velocity=100 time=0@note_on channel=3 note=67 velocity=0 time=0@note_on channel=3 note=52 velocity=0 time=0@note_on channel=3 note=52 velocity=100 time=0@note_on channel=3 note=67 velocity=100 time=0@note_on channel=4 note=67 velocity=0 time=0@note_on channel=4 note=67 velocity=100 time=0@note_on channel=5 note=48 velocity=0 time=0@note_on channel=6 note=67 velocity=100 time=0@note_on channel=6 note=64 velocity=100 time=0@note_on channel=9 note=49 velocity=100 time=0@note_on channel=0 note=55 velocity=0 time=0.6@note_on channel=0 note=52 velocity=100 time=0@note_on channel=3 note=67 velocity=0 time=0@note_on channel=3 note=52 velocity=0 time=0@note_on channel=3 note=55 velocity=100 time=0@note_on channel=3 note=64 velocity=100 time=0@note_on channel=4 note=67 velocity=0 time=0@note_on channel=4 note=64 velocity=100 time=0@note_on channel=6 note=64 velocity=0 time=0@note_on channel=6 note=67 velocity=0 time=0@note_on channel=9 note=49 velocity=0 time=0@note_on channel=0 note=52 velocity=0 time=0.3@note_on channel=0 note=53 velocity=100 time=0@note_on channel=3 note=64 velocity=0 time=0@note_on channel=3 note=55 velocity=0 time=0@note_on channel=3 note=53 velocity=100 time=0@note_on channel=3 note=65 velocity=100 time=0@note_on channel=4 note=64 velocity=0 time=0@note_on channel=4 note=65 velocity=100 time=0@note_on channel=0 note=53 velocity=0 time=0.3@note_on channel=0 note=55 velocity=100 time=0@note_on channel=3 note=65 velocity=0 time=0@note_on channel=3 note=53 velocity=0 time=0@note_on channel=3 note=55 velocity=100 time=0@note_on channel=3 note=67 velocity=100 time=0@note_on channel=4 note=65 velocity=0 time=0@note_on channel=4 note=67 velocity=100 time=0@note_on channel=0 note=55 velocity=0 time=1.2@note_on channel=0 note=53 velocity=100 time=0@note_on channel=3 note=67 velocity=0 time=0@note_on channel=3 note=55 velocity=0 time=0@note_on channel=3 note=65 velocity=100 time=0@note_on channel=3 note=50 velocity=100 time=0@note_on channel=4 note=67 velocity=0 time=0@note_on channel=4 note=65 velocity=100 time=0@note_on channel=6 note=65 velocity=100 time=0@note_on channel=6 note=62 velocity=100 time=0@note_on channel=0 note=53 velocity=0 time=0.6@note_on channel=0 note=53 velocity=100 time=0@note_on channel=3 note=50 velocity=0 time=0@note_on channel=3 note=65 velocity=0 time=0@note_on channel=3 note=50 velocity=100 time=0@note_on channel=3 note=65 velocity=100 time=0@note_on channel=4 note=65 velocity=0 time=0@note_on channel=4 note=65 velocity=100 time=0@note_on channel=6 note=62 velocity=0 time=0@note_on channel=6 note=65 velocity=0 time=0@note_on channel=0 note=53 velocity=0 time=0.3@note_on channel=0 note=52 velocity=100 time=0@note_on channel=3 note=65 velocity=0 time=0@note_on channel=3 note=50 velocity=0 time=0@note_on channel=3 note=55 velocity=100 time=0@note_on channel=3 note=64 velocity=100 time=0@note_on channel=4 note=65 velocity=0 time=0@note_on channel=4 note=64 velocity=100 time=0@note_on channel=0 note=52 velocity=0 time=0.3@note_on channel=0 note=50 velocity=100 time=0@note_on channel=3 note=64 velocity=0 time=0@note_on channel=3 note=55 velocity=0 time=0@note_on channel=3 note=50 velocity=100 time=0@note_on channel=3 note=62 velocity=100 time=0@note_on channel=4 note=64 velocity=0 time=0@note_on channel=4 note=62 velocity=100 time=0@note_on channel=0 note=50 velocity=0 time=0.6@note_on channel=0 note=48 velocity=100 time=0@note_on channel=3 note=62 velocity=0 time=0@note_on channel=3 note=50 velocity=0 time=0@note_on channel=3 note=45 velocity=100 time=0@note_on channel=3 note=60 velocity=100 time=0@note_on channel=4 note=62 velocity=0 time=0@note_on channel=4 note=60 velocity=100 time=0@note_on channel=5 note=45 velocity=100 time=0@note_on channel=5 note=45 velocity=0 time=0.15@note_on channel=5 note=45 velocity=100 time=0@note_on channel=5 note=45 velocity=0 time=0.15@note_on channel=5 note=45 velocity=100 time=0@note_on channel=5 note=45 velocity=0 time=0.15@note_on channel=5 note=45 velocity=100 time=0@note_on channel=0 note=48 velocity=0 time=0.15@note_on channel=0 note=48 velocity=100 time=0@note_on channel=3 note=60 velocity=0 time=0@note_on channel=3 note=45 velocity=0 time=0@note_on channel=3 note=45 velocity=100 time=0@note_on channel=3 note=60 velocity=100 time=0@note_on channel=4 note=60 velocity=0 time=0@note_on channel=4 note=60 velocity=100 time=0@note_on channel=5 note=45 velocity=0 time=0@note_on channel=6 note=60 velocity=100 time=0@note_on channel=6 note=57 velocity=100 time=0@note_on channel=9 note=49 velocity=100 time=0@note_on channel=0 note=48 velocity=0 time=0.6@note_on channel=0 note=45 velocity=100 time=0@note_on channel=3 note=60 velocity=0 time=0@note_on channel=3 note=45 velocity=0 time=0@note_on channel=3 note=45 velocity=100 time=0@note_on channel=3 note=57 velocity=100 time=0@note_on channel=4 note=60 velocity=0 time=0@note_on channel=4 note=57 velocity=100 time=0@note_on channel=5 note=48 velocity=100 time=0@note_on channel=6 note=57 velocity=0 time=0@note_on channel=6 note=60 velocity=0 time=0@note_on channel=9 note=49 velocity=0 time=0@note_on channel=5 note=48 velocity=0 time=0.15@note_on channel=5 note=47 velocity=100 time=0@note_on channel=0 note=45 velocity=0 time=0.15@note_on channel=0 note=47 velocity=100 time=0@note_on channel=3 note=57 velocity=0 time=0@note_on channel=3 note=45 velocity=0 time=0@note_on channel=3 note=43 velocity=100 time=0@note_on channel=3 note=59 velocity=100 time=0@note_on channel=4 note=57 velocity=0 time=0@note_on channel=4 note=59 velocity=100 time=0@note_on channel=5 note=47 velocity=0 time=0@note_on channel=5 note=48 velocity=100 time=0@note_on channel=5 note=48 velocity=0 time=0.15@note_on channel=5 note=47 velocity=100 time=0@note_on channel=0 note=47 velocity=0 time=0.15@note_on channel=0 note=48 velocity=100 time=0@note_on channel=3 note=59 velocity=0 time=0@note_on channel=3 note=43 velocity=0 time=0@note_on channel=3 note=48 velocity=100 time=0@note_on channel=3 note=60 velocity=100 time=0@note_on channel=4 note=59 velocity=0 time=0@note_on channel=4 note=60 velocity=100 time=0@note_on channel=5 note=47 velocity=0 time=0@note_on channel=5 note=48 velocity=100 time=0@note_on channel=6 note=60 velocity=100 time=0@note_on channel=9 note=52 velocity=100 time=0@note_on channel=9 note=49 velocity=100 time=0@note_on channel=9 note=49 velocity=0 time=0.6@note_on channel=9 note=52 velocity=0 time=0@note_on channel=0 note=48 velocity=0 time=0.6@note_on channel=0 note=52 velocity=100 time=0@note_on channel=3 note=60 velocity=0 time=0@note_on channel=3 note=48 velocity=0 time=0@control_change channel=3 control=1 value=10 time=0@control_change channel=3 control=91 value=80 time=0@control_change channel=3 control=93 value=120 time=0@control_change channel=3 control=7 value=115 time=0@note_on channel=3 note=48 velocity=100 time=0@note_on channel=3 note=64 velocity=100 time=0@note_on channel=4 note=60 velocity=0 time=0@control_change channel=4 control=1 value=10 time=0@control_change channel=4 control=91 value=80 time=0@control_change channel=4 control=93 value=125 time=0@control_change channel=4 control=7 value=120 time=0@note_on channel=4 note=64 velocity=100 time=0@note_on channel=5 note=48 velocity=0 time=0@note_on channel=6 note=60 velocity=0 time=0@note_on channel=6 note=64 velocity=100 time=0@note_on channel=6 note=60 velocity=100 time=0@note_on channel=7 note=76 velocity=100 time=0@note_on channel=8 note=88 velocity=100 time=0@note_on channel=0 note=52 velocity=0 time=0.6@note_on channel=0 note=52 velocity=100 time=0@note_on channel=3 note=64 velocity=0 time=0@note_on channel=3 note=48 velocity=0 time=0@note_on channel=3 note=48 velocity=100 time=0@note_on channel=3 note=64 velocity=100 time=0@note_on channel=4 note=64 velocity=0 time=0@note_on channel=4 note=64 velocity=100 time=0@note_on channel=6 note=60 velocity=0 time=0@note_on channel=6 note=64 velocity=0 time=0@note_on channel=7 note=76 velocity=0 time=0@note_on channel=7 note=76 velocity=100 time=0@note_on channel=8 note=88 velocity=0 time=0@note_on channel=8 note=88 velocity=100 time=0@note_on channel=0 note=52 velocity=0 time=0.3@note_on channel=0 note=52 velocity=100 time=0@note_on channel=3 note=64 velocity=0 time=0@note_on channel=3 note=48 velocity=0 time=0@note_on channel=3 note=48 velocity=100 time=0@note_on channel=3 note=64 velocity=100 time=0@note_on channel=4 note=64 velocity=0 time=0@note_on channel=4 note=64 velocity=100 time=0@note_on channel=7 note=76 velocity=0 time=0@note_on channel=7 note=76 velocity=100 time=0@note_on channel=8 note=88 velocity=0 time=0@note_on channel=8 note=88 velocity=100 time=0@note_on channel=0 note=52 velocity=0 time=0.3@note_on channel=0 note=48 velocity=100 time=0@note_on channel=3 note=64 velocity=0 time=0@note_on channel=3 note=48 velocity=0 time=0@note_on channel=3 note=45 velocity=100 time=0@note_on channel=3 note=60 velocity=100 time=0@note_on channel=4 note=64 velocity=0 time=0@note_on channel=4 note=60 velocity=100 time=0@note_on channel=7 note=76 velocity=0 time=0@note_on channel=7 note=72 velocity=100 time=0@note_on channel=8 note=88 velocity=0 time=0@note_on channel=8 note=84 velocity=100 time=0@note_on channel=0 note=48 velocity=0 time=0.6@note_on channel=0 note=48 velocity=100 time=0@note_on channel=3 note=60 velocity=0 time=0@note_on channel=3 note=45 velocity=0 time=0@note_on channel=3 note=45 velocity=100 time=0@note_on channel=3 note=60 velocity=100 time=0@note_on channel=4 note=60 velocity=0 time=0@note_on channel=4 note=60 velocity=100 time=0@note_on channel=5 note=48 velocity=100 time=0@note_on channel=7 note=72 velocity=0 time=0@note_on channel=7 note=72 velocity=100 time=0@note_on channel=8 note=84 velocity=0 time=0@note_on channel=8 note=84 velocity=100 time=0@note_on channel=5 note=48 velocity=0 time=0.15@note_on channel=5 note=48 velocity=100 time=0@note_on channel=5 note=48 velocity=0 time=0.15@note_on channel=5 note=48 velocity=100 time=0@note_on channel=5 note=48 velocity=0 time=0.15@note_on channel=5 note=48 velocity=100 time=0@note_on channel=0 note=48 velocity=0 time=0.15@note_on channel=0 note=50 velocity=100 time=0@note_on channel=3 note=60 velocity=0 time=0@note_on channel=3 note=45 velocity=0 time=0@note_on channel=3 note=43 velocity=100 time=0@note_on channel=3 note=62 velocity=100 time=0@note_on channel=4 note=60 velocity=0 time=0@note_on channel=4 note=62 velocity=100 time=0@note_on channel=5 note=48 velocity=0 time=0@note_on channel=6 note=67 velocity=100 time=0@note_on channel=6 note=62 velocity=100 time=0@note_on channel=9 note=49 velocity=100 time=0@note_on channel=7 note=72 velocity=0 time=0@note_on channel=7 note=74 velocity=100 time=0@note_on channel=8 note=84 velocity=0 time=0@note_on channel=8 note=86 velocity=100 time=0@note_on channel=0 note=50 velocity=0 time=0.6@note_on channel=0 note=50 velocity=100 time=0@note_on channel=3 note=62 velocity=0 time=0@note_on channel=3 note=43 velocity=0 time=0@note_on channel=3 note=43 velocity=100 time=0@note_on channel=3 note=62 velocity=100 time=0@note_on channel=4 note=62 velocity=0 time=0@note_on channel=4 note=62 velocity=100 time=0@note_on channel=6 note=62 velocity=0 time=0@note_on channel=6 note=67 velocity=0 time=0@note_on channel=9 note=49 velocity=0 time=0@note_on channel=7 note=74 velocity=0 time=0@note_on channel=7 note=74 velocity=100 time=0@note_on channel=8 note=86 velocity=0 time=0@note_on channel=8 note=86 velocity=100 time=0@note_on channel=4 note=62 velocity=0 time=0.15@note_on channel=4 note=62 velocity=100 time=0@note_on channel=7 note=74 velocity=0 time=0@note_on channel=7 note=74 velocity=100 time=0@note_on channel=8 note=86 velocity=0 time=0@note_on channel=8 note=86 velocity=100 time=0@note_on channel=0 note=50 velocity=0 time=0.15@note_on channel=0 note=50 velocity=100 time=0@note_on channel=3 note=62 velocity=0 time=0@note_on channel=3 note=43 velocity=0 time=0@note_on channel=3 note=43 velocity=100 time=0@note_on channel=3 note=62 velocity=100 time=0@note_on channel=4 note=62 velocity=0 time=0@note_on channel=4 note=62 velocity=100 time=0@note_on channel=7 note=74 velocity=0 time=0@note_on channel=7 note=74 velocity=100 time=0@note_on channel=8 note=86 velocity=0 time=0@note_on channel=8 note=86 velocity=100 time=0@note_on channel=4 note=62 velocity=0 time=0.15@note_on channel=4 note=62 velocity=100 time=0@note_on channel=7 note=74 velocity=0 time=0@note_on channel=7 note=74 velocity=100 time=0@note_on channel=8 note=86 velocity=0 time=0@note_on channel=8 note=86 velocity=100 time=0@note_on channel=0 note=50 velocity=0 time=0.15@note_on channel=0 note=52 velocity=100 time=0@note_on channel=3 note=62 velocity=0 time=0@note_on channel=3 note=43 velocity=0 time=0@note_on channel=3 note=48 velocity=100 time=0@note_on channel=3 note=64 velocity=100 time=0@note_on channel=4 note=62 velocity=0 time=0@note_on channel=4 note=64 velocity=100 time=0@note_on channel=7 note=74 velocity=0 time=0@note_on channel=7 note=76 velocity=100 time=0@note_on channel=8 note=86 velocity=0 time=0@note_on channel=8 note=88 velocity=100 time=0@note_on channel=0 note=52 velocity=0 time=1.2@note_on channel=0 note=52 velocity=100 time=0@note_on channel=3 note=64 velocity=0 time=0@note_on channel=3 note=48 velocity=0 time=0@note_on channel=3 note=48 velocity=100 time=0@note_on channel=3 note=64 velocity=100 time=0@note_on channel=4 note=64 velocity=0 time=0@note_on channel=4 note=64 velocity=100 time=0@note_on channel=6 note=64 velocity=100 time=0@note_on channel=6 note=60 velocity=100 time=0@note_on channel=7 note=76 velocity=0 time=0@note_on channel=7 note=76 velocity=100 time=0@note_on channel=8 note=88 velocity=0 time=0@note_on channel=8 note=88 velocity=100 time=0@note_on channel=0 note=52 velocity=0 time=0.3@note_on channel=0 note=55 velocity=100 time=0@note_on channel=4 note=64 velocity=0 time=0@note_on channel=4 note=67 velocity=100 time=0@note_on channel=7 note=76 velocity=0 time=0@note_on channel=7 note=79 velocity=100 time=0@note_on channel=8 note=88 velocity=0 time=0@note_on channel=8 note=91 velocity=100 time=0@note_on channel=0 note=55 velocity=0 time=0.3@note_on channel=0 note=53 velocity=100 time=0@note_on channel=3 note=64 velocity=0 time=0@note_on channel=3 note=48 velocity=0 time=0@note_on channel=3 note=48 velocity=100 time=0@note_on channel=3 note=65 velocity=100 time=0@note_on channel=4 note=67 velocity=0 time=0@note_on channel=4 note=65 velocity=100 time=0@note_on channel=6 note=60 velocity=0 time=0@note_on channel=6 note=64 velocity=0 time=0@note_on channel=7 note=79 velocity=0 time=0@note_on channel=7 note=77 velocity=100 time=0@note_on channel=8 note=91 velocity=0 time=0@note_on channel=8 note=89 velocity=100 time=0@note_on channel=0 note=53 velocity=0 time=0.3@note_on channel=0 note=52 velocity=100 time=0@note_on channel=3 note=65 velocity=0 time=0@note_on channel=3 note=48 velocity=0 time=0@note_on channel=3 note=48 velocity=100 time=0@note_on channel=3 note=64 velocity=100 time=0@note_on channel=4 note=65 velocity=0 time=0@note_on channel=4 note=64 velocity=100 time=0@note_on channel=7 note=77 velocity=0 time=0@note_on channel=7 note=76 velocity=100 time=0@note_on channel=8 note=89 velocity=0 time=0@note_on channel=8 note=88 velocity=100 time=0@note_on channel=0 note=52 velocity=0 time=0.3@note_on channel=0 note=50 velocity=100 time=0@note_on channel=3 note=64 velocity=0 time=0@note_on channel=3 note=48 velocity=0 time=0@note_on channel=3 note=45 velocity=100 time=0@note_on channel=3 note=62 velocity=100 time=0@note_on channel=4 note=64 velocity=0 time=0@note_on channel=4 note=62 velocity=100 time=0@note_on channel=7 note=76 velocity=0 time=0@note_on channel=7 note=74 velocity=100 time=0@note_on channel=8 note=88 velocity=0 time=0@note_on channel=8 note=86 velocity=100 time=0@note_on channel=0 note=50 velocity=0 time=0.6@note_on channel=0 note=48 velocity=100 time=0@note_on channel=3 note=62 velocity=0 time=0@note_on channel=3 note=45 velocity=0 time=0@note_on channel=3 note=48 velocity=100 time=0@note_on channel=3 note=60 velocity=100 time=0@note_on channel=4 note=62 velocity=0 time=0@note_on channel=4 note=60 velocity=100 time=0@note_on channel=5 note=48 velocity=100 time=0@note_on channel=7 note=74 velocity=0 time=0@note_on channel=7 note=72 velocity=100 time=0@note_on channel=8 note=86 velocity=0 time=0@note_on channel=8 note=84 velocity=100 time=0@note_on channel=5 note=48 velocity=0 time=0.15@note_on channel=5 note=48 velocity=100 time=0@note_on channel=5 note=48 velocity=0 time=0.15@note_on channel=5 note=48 velocity=100 time=0@note_on channel=5 note=48 velocity=0 time=0.15@note_on channel=5 note=48 velocity=100 time=0@note_on channel=0 note=48 velocity=0 time=0.15@note_on channel=0 note=48 velocity=100 time=0@note_on channel=3 note=60 velocity=0 time=0@note_on channel=3 note=48 velocity=0 time=0@note_on channel=3 note=48 velocity=100 time=0@note_on channel=3 note=60 velocity=100 time=0@note_on channel=4 note=60 velocity=0 time=0@note_on channel=4 note=60 velocity=100 time=0@note_on channel=5 note=48 velocity=0 time=0@note_on channel=6 note=64 velocity=100 time=0@note_on channel=6 note=60 velocity=100 time=0@note_on channel=9 note=49 velocity=100 time=0@note_on channel=7 note=72 velocity=0 time=0@note_on channel=7 note=72 velocity=100 time=0@note_on channel=8 note=84 velocity=0 time=0@note_on channel=8 note=84 velocity=100 time=0@note_on channel=0 note=48 velocity=0 time=0.6@note_on channel=0 note=45 velocity=100 time=0@note_on channel=3 note=60 velocity=0 time=0@note_on channel=3 note=48 velocity=0 time=0@note_on channel=3 note=50 velocity=100 time=0@note_on channel=3 note=57 velocity=100 time=0@note_on channel=4 note=60 velocity=0 time=0@note_on channel=4 note=57 velocity=100 time=0@note_on channel=6 note=60 velocity=0 time=0@note_on channel=6 note=64 velocity=0 time=0@note_on channel=9 note=49 velocity=0 time=0@note_on channel=7 note=72 velocity=0 time=0@note_on channel=7 note=69 velocity=100 time=0@note_on channel=8 note=84 velocity=0 time=0@note_on channel=8 note=81 velocity=100 time=0@note_on channel=4 note=57 velocity=0 time=0.15@note_on channel=4 note=57 velocity=100 time=0@note_on channel=7 note=69 velocity=0 time=0@note_on channel=7 note=69 velocity=100 time=0@note_on channel=8 note=81 velocity=0 time=0@note_on channel=8 note=81 velocity=100 time=0@note_on channel=0 note=45 velocity=0 time=0.15@note_on channel=0 note=47 velocity=100 time=0@note_on channel=3 note=57 velocity=0 time=0@note_on channel=3 note=50 velocity=0 time=0@note_on channel=3 note=50 velocity=100 time=0@note_on channel=3 note=59 velocity=100 time=0@note_on channel=4 note=57 velocity=0 time=0@note_on channel=4 note=59 velocity=100 time=0@note_on channel=7 note=69 velocity=0 time=0@note_on channel=7 note=71 velocity=100 time=0@note_on channel=8 note=81 velocity=0 time=0@note_on channel=8 note=83 velocity=100 time=0@note_on channel=0 note=47 velocity=0 time=0.3@note_on channel=0 note=48 velocity=100 time=0@note_on channel=3 note=59 velocity=0 time=0@note_on channel=3 note=50 velocity=0 time=0@note_on channel=3 note=48 velocity=100 time=0@note_on channel=3 note=60 velocity=100 time=0@note_on channel=4 note=59 velocity=0 time=0@note_on channel=4 note=60 velocity=100 time=0@note_on channel=7 note=71 velocity=0 time=0@note_on channel=7 note=72 velocity=100 time=0@note_on channel=8 note=83 velocity=0 time=0@note_on channel=8 note=84 velocity=100 time=0@note_on channel=0 note=48 velocity=0 time=1.2@note_on channel=0 note=55 velocity=100 time=0@note_on channel=3 note=60 velocity=0 time=0@note_on channel=3 note=48 velocity=0 time=0@note_on channel=3 note=67 velocity=100 time=0@note_on channel=3 note=52 velocity=100 time=0@note_on channel=4 note=60 velocity=0 time=0@note_on channel=4 note=67 velocity=100 time=0@note_on channel=6 note=67 velocity=100 time=0@note_on channel=6 note=64 velocity=100 time=0@note_on channel=7 note=72 velocity=0 time=0@note_on channel=7 note=79 velocity=100 time=0@note_on channel=8 note=84 velocity=0 time=0@note_on channel=8 note=91 velocity=100 time=0@note_on channel=0 note=55 velocity=0 time=0.6@note_on channel=0 note=55 velocity=100 time=0@note_on channel=3 note=52 velocity=0 time=0@note_on channel=3 note=67 velocity=0 time=0@note_on channel=3 note=52 velocity=100 time=0@note_on channel=3 note=67 velocity=100 time=0@note_on channel=4 note=67 velocity=0 time=0@note_on channel=4 note=67 velocity=100 time=0@note_on channel=6 note=64 velocity=0 time=0@note_on channel=6 note=67 velocity=0 time=0@note_on channel=7 note=79 velocity=0 time=0@note_on channel=7 note=79 velocity=100 time=0@note_on channel=8 note=91 velocity=0 time=0@note_on channel=8 note=91 velocity=100 time=0@note_on channel=0 note=55 velocity=0 time=0.3@note_on channel=0 note=55 velocity=100 time=0@note_on channel=3 note=67 velocity=0 time=0@note_on channel=3 note=52 velocity=0 time=0@note_on channel=3 note=52 velocity=100 time=0@note_on channel=3 note=67 velocity=100 time=0@note_on channel=4 note=67 velocity=0 time=0@note_on channel=4 note=67 velocity=100 time=0@note_on channel=7 note=79 velocity=0 time=0@note_on channel=7 note=79 velocity=100 time=0@note_on channel=8 note=91 velocity=0 time=0@note_on channel=8 note=91 velocity=100 time=0@note_on channel=0 note=55 velocity=0 time=0.3@note_on channel=0 note=60 velocity=100 time=0@note_on channel=3 note=67 velocity=0 time=0@note_on channel=3 note=52 velocity=0 time=0@note_on channel=3 note=48 velocity=100 time=0@note_on channel=3 note=60 velocity=100 time=0@note_on channel=4 note=67 velocity=0 time=0@note_on channel=4 note=72 velocity=100 time=0@note_on channel=7 note=79 velocity=0 time=0@note_on channel=7 note=84 velocity=100 time=0@note_on channel=8 note=91 velocity=0 time=0@note_on channel=8 note=96 velocity=100 time=0@note_on channel=0 note=60 velocity=0 time=0.6@note_on channel=0 note=55 velocity=100 time=0@note_on channel=3 note=60 velocity=0 time=0@note_on channel=3 note=48 velocity=0 time=0@note_on channel=3 note=52 velocity=100 time=0@note_on channel=3 note=67 velocity=100 time=0@note_on channel=4 note=72 velocity=0 time=0@note_on channel=4 note=67 velocity=100 time=0@note_on channel=5 note=48 velocity=100 time=0@note_on channel=7 note=84 velocity=0 time=0@note_on channel=7 note=79 velocity=100 time=0@note_on channel=8 note=96 velocity=0 time=0@note_on channel=8 note=91 velocity=100 time=0@note_on channel=5 note=48 velocity=0 time=0.15@note_on channel=5 note=48 velocity=100 time=0@note_on channel=5 note=48 velocity=0 time=0.15@note_on channel=5 note=48 velocity=100 time=0@note_on channel=5 note=48 velocity=0 time=0.15@note_on channel=5 note=48 velocity=100 time=0@note_on channel=0 note=55 velocity=0 time=0.15@note_on channel=0 note=55 velocity=100 time=0@note_on channel=3 note=67 velocity=0 time=0@note_on channel=3 note=52 velocity=0 time=0@note_on channel=3 note=52 velocity=100 time=0@note_on channel=3 note=67 velocity=100 time=0@note_on channel=4 note=67 velocity=0 time=0@note_on channel=4 note=67 velocity=100 time=0@note_on channel=5 note=48 velocity=0 time=0@note_on channel=6 note=67 velocity=100 time=0@note_on channel=6 note=64 velocity=100 time=0@note_on channel=9 note=49 velocity=100 time=0@note_on channel=7 note=79 velocity=0 time=0@note_on channel=7 note=79 velocity=100 time=0@note_on channel=8 note=91 velocity=0 time=0@note_on channel=8 note=91 velocity=100 time=0@note_on channel=0 note=55 velocity=0 time=0.6@note_on channel=0 note=52 velocity=100 time=0@note_on channel=3 note=67 velocity=0 time=0@note_on channel=3 note=52 velocity=0 time=0@note_on channel=3 note=55 velocity=100 time=0@note_on channel=3 note=64 velocity=100 time=0@note_on channel=4 note=67 velocity=0 time=0@note_on channel=4 note=64 velocity=100 time=0@note_on channel=6 note=64 velocity=0 time=0@note_on channel=6 note=67 velocity=0 time=0@note_on channel=9 note=49 velocity=0 time=0@note_on channel=7 note=79 velocity=0 time=0@note_on channel=7 note=76 velocity=100 time=0@note_on channel=8 note=91 velocity=0 time=0@note_on channel=8 note=88 velocity=100 time=0@note_on channel=0 note=52 velocity=0 time=0.3@note_on channel=0 note=53 velocity=100 time=0@note_on channel=3 note=64 velocity=0 time=0@note_on channel=3 note=55 velocity=0 time=0@note_on channel=3 note=53 velocity=100 time=0@note_on channel=3 note=65 velocity=100 time=0@note_on channel=4 note=64 velocity=0 time=0@note_on channel=4 note=65 velocity=100 time=0@note_on channel=7 note=76 velocity=0 time=0@note_on channel=7 note=77 velocity=100 time=0@note_on channel=8 note=88 velocity=0 time=0@note_on channel=8 note=89 velocity=100 time=0@note_on channel=0 note=53 velocity=0 time=0.3@note_on channel=0 note=55 velocity=100 time=0@note_on channel=3 note=65 velocity=0 time=0@note_on channel=3 note=53 velocity=0 time=0@note_on channel=3 note=55 velocity=100 time=0@note_on channel=3 note=67 velocity=100 time=0@note_on channel=4 note=65 velocity=0 time=0@note_on channel=4 note=67 velocity=100 time=0@note_on channel=7 note=77 velocity=0 time=0@note_on channel=7 note=79 velocity=100 time=0@note_on channel=8 note=89 velocity=0 time=0@note_on channel=8 note=91 velocity=100 time=0@note_on channel=0 note=55 velocity=0 time=1.2@note_on channel=0 note=53 velocity=100 time=0@note_on channel=3 note=67 velocity=0 time=0@note_on channel=3 note=55 velocity=0 time=0@note_on channel=3 note=65 velocity=100 time=0@note_on channel=3 note=50 velocity=100 time=0@note_on channel=4 note=67 velocity=0 time=0@note_on channel=4 note=65 velocity=100 time=0@note_on channel=6 note=65 velocity=100 time=0@note_on channel=6 note=62 velocity=100 time=0@note_on channel=7 note=79 velocity=0 time=0@note_on channel=7 note=77 velocity=100 time=0@note_on channel=8 note=91 velocity=0 time=0@note_on channel=8 note=89 velocity=100 time=0@note_on channel=0 note=53 velocity=0 time=0.6@note_on channel=0 note=53 velocity=100 time=0@note_on channel=3 note=50 velocity=0 time=0@note_on channel=3 note=65 velocity=0 time=0@note_on channel=3 note=50 velocity=100 time=0@note_on channel=3 note=65 velocity=100 time=0@note_on channel=4 note=65 velocity=0 time=0@note_on channel=4 note=65 velocity=100 time=0@note_on channel=6 note=62 velocity=0 time=0@note_on channel=6 note=65 velocity=0 time=0@note_on channel=7 note=77 velocity=0 time=0@note_on channel=7 note=77 velocity=100 time=0@note_on channel=8 note=89 velocity=0 time=0@note_on channel=8 note=89 velocity=100 time=0@note_on channel=0 note=53 velocity=0 time=0.3@note_on channel=0 note=52 velocity=100 time=0@note_on channel=3 note=65 velocity=0 time=0@note_on channel=3 note=50 velocity=0 time=0@note_on channel=3 note=55 velocity=100 time=0@note_on channel=3 note=64 velocity=100 time=0@note_on channel=4 note=65 velocity=0 time=0@note_on channel=4 note=64 velocity=100 time=0@note_on channel=7 note=77 velocity=0 time=0@note_on channel=7 note=76 velocity=100 time=0@note_on channel=8 note=89 velocity=0 time=0@note_on channel=8 note=88 velocity=100 time=0@note_on channel=0 note=52 velocity=0 time=0.3@note_on channel=0 note=50 velocity=100 time=0@note_on channel=3 note=64 velocity=0 time=0@note_on channel=3 note=55 velocity=0 time=0@note_on channel=3 note=50 velocity=100 time=0@note_on channel=3 note=62 velocity=100 time=0@note_on channel=4 note=64 velocity=0 time=0@note_on channel=4 note=62 velocity=100 time=0@note_on channel=7 note=76 velocity=0 time=0@note_on channel=7 note=74 velocity=100 time=0@note_on channel=8 note=88 velocity=0 time=0@note_on channel=8 note=86 velocity=100 time=0@note_on channel=0 note=50 velocity=0 time=0.6@note_on channel=0 note=48 velocity=100 time=0@note_on channel=3 note=62 velocity=0 time=0@note_on channel=3 note=50 velocity=0 time=0@note_on channel=3 note=45 velocity=100 time=0@note_on channel=3 note=60 velocity=100 time=0@note_on channel=4 note=62 velocity=0 time=0@note_on channel=4 note=60 velocity=100 time=0@note_on channel=5 note=45 velocity=100 time=0@note_on channel=7 note=74 velocity=0 time=0@note_on channel=7 note=72 velocity=100 time=0@note_on channel=8 note=86 velocity=0 time=0@note_on channel=8 note=84 velocity=100 time=0@note_on channel=5 note=45 velocity=0 time=0.15@note_on channel=5 note=45 velocity=100 time=0@note_on channel=5 note=45 velocity=0 time=0.15@note_on channel=5 note=45 velocity=100 time=0@note_on channel=5 note=45 velocity=0 time=0.15@note_on channel=5 note=45 velocity=100 time=0@note_on channel=0 note=48 velocity=0 time=0.15@note_on channel=0 note=48 velocity=100 time=0@note_on channel=3 note=60 velocity=0 time=0@note_on channel=3 note=45 velocity=0 time=0@note_on channel=3 note=45 velocity=100 time=0@note_on channel=3 note=60 velocity=100 time=0@note_on channel=4 note=60 velocity=0 time=0@note_on channel=4 note=60 velocity=100 time=0@note_on channel=5 note=45 velocity=0 time=0@note_on channel=6 note=60 velocity=100 time=0@note_on channel=6 note=57 velocity=100 time=0@note_on channel=9 note=49 velocity=100 time=0@note_on channel=7 note=72 velocity=0 time=0@note_on channel=7 note=72 velocity=100 time=0@note_on channel=8 note=84 velocity=0 time=0@note_on channel=8 note=84 velocity=100 time=0@note_on channel=0 note=48 velocity=0 time=0.6@note_on channel=0 note=45 velocity=100 time=0@note_on channel=3 note=60 velocity=0 time=0@note_on channel=3 note=45 velocity=0 time=0@note_on channel=3 note=45 velocity=100 time=0@note_on channel=3 note=57 velocity=100 time=0@note_on channel=4 note=60 velocity=0 time=0@note_on channel=4 note=57 velocity=100 time=0@note_on channel=5 note=48 velocity=100 time=0@note_on channel=6 note=57 velocity=0 time=0@note_on channel=6 note=60 velocity=0 time=0@note_on channel=9 note=49 velocity=0 time=0@note_on channel=7 note=72 velocity=0 time=0@note_on channel=7 note=69 velocity=100 time=0@note_on channel=8 note=84 velocity=0 time=0@note_on channel=8 note=81 velocity=100 time=0@note_on channel=5 note=48 velocity=0 time=0.15@note_on channel=5 note=47 velocity=100 time=0@note_on channel=0 note=45 velocity=0 time=0.15@note_on channel=0 note=47 velocity=100 time=0@note_on channel=3 note=57 velocity=0 time=0@note_on channel=3 note=45 velocity=0 time=0@note_on channel=3 note=43 velocity=100 time=0@note_on channel=3 note=59 velocity=100 time=0@note_on channel=4 note=57 velocity=0 time=0@note_on channel=4 note=59 velocity=100 time=0@note_on channel=5 note=47 velocity=0 time=0@note_on channel=5 note=48 velocity=100 time=0@note_on channel=7 note=69 velocity=0 time=0@note_on channel=7 note=71 velocity=100 time=0@note_on channel=8 note=81 velocity=0 time=0@note_on channel=8 note=83 velocity=100 time=0@note_on channel=5 note=48 velocity=0 time=0.15@note_on channel=5 note=47 velocity=100 time=0@note_on channel=0 note=47 velocity=0 time=0.15@note_on channel=0 note=48 velocity=100 time=0@note_on channel=3 note=59 velocity=0 time=0@note_on channel=3 note=43 velocity=0 time=0@note_on channel=3 note=48 velocity=100 time=0@note_on channel=3 note=60 velocity=100 time=0@note_on channel=4 note=59 velocity=0 time=0@note_on channel=4 note=60 velocity=100 time=0@note_on channel=5 note=47 velocity=0 time=0@note_on channel=5 note=48 velocity=100 time=0@note_on channel=6 note=60 velocity=100 time=0@note_on channel=9 note=52 velocity=100 time=0@note_on channel=9 note=49 velocity=100 time=0@note_on channel=7 note=71 velocity=0 time=0@note_on channel=7 note=72 velocity=100 time=0@note_on channel=8 note=83 velocity=0 time=0@note_on channel=8 note=84 velocity=100 time=0@note_on channel=9 note=49 velocity=0 time=0.6@note_on channel=9 note=52 velocity=0 time=0@note_on channel=0 note=48 velocity=0 time=0.6@note_on channel=3 note=60 velocity=0 time=0@note_on channel=3 note=48 velocity=0 time=0@note_on channel=4 note=60 velocity=0 time=0@note_on channel=5 note=48 velocity=0 time=0@note_on channel=6 note=60 velocity=0 time=0@note_on channel=7 note=72 velocity=0 time=0@note_on channel=8 note=84 velocity=0 time=0@<meta message end_of_track time=0>@