<meta message time_signature numerator=4 denominator=4 clocks_per_click=24 notated_32nd_notes_per_beat=8 time=0>@<meta message key_signature key='B' time=0>@<meta message set_tempo tempo=500000 time=0>@control_change channel=0 control=121 value=0 time=0@program_change channel=0 program=0 time=0@control_change channel=0 control=7 value=100 time=0@control_change channel=0 control=10 value=64 time=0@control_change channel=0 control=91 value=0 time=0@control_change channel=0 control=93 value=0 time=0@<meta message midi_port port=0 time=0>@<meta message key_signature key='B' time=0>@<meta message midi_port port=0 time=0>@note_on channel=0 note=51 velocity=80 time=0@note_on channel=0 note=51 velocity=0 time=0.35520833333333335@note_on channel=0 note=51 velocity=80 time=0.019791666666666666@note_on channel=0 note=51 velocity=0 time=0.11770833333333333@note_on channel=0 note=39 velocity=80 time=0.007291666666666667@note_on channel=0 note=39 velocity=0 time=0.23645833333333333@note_on channel=0 note=39 velocity=80 time=0.013541666666666667@note_on channel=0 note=39 velocity=0 time=0.23645833333333333@note_on channel=0 note=35 velocity=80 time=0.013541666666666667@note_on channel=0 note=35 velocity=0 time=0.35520833333333335@note_on channel=0 note=35 velocity=80 time=0.019791666666666666@note_on channel=0 note=35 velocity=0 time=0.11770833333333333@note_on channel=0 note=27 velocity=80 time=0.007291666666666667@note_on channel=0 note=27 velocity=0 time=0.4739583333333333@note_on channel=0 note=27 velocity=80 time=0.026041666666666668@note_on channel=0 note=27 velocity=0 time=0.35520833333333335@note_on channel=0 note=27 velocity=80 time=0.019791666666666666@note_on channel=0 note=27 velocity=0 time=0.11770833333333333@note_on channel=0 note=27 velocity=80 time=0.007291666666666667@note_on channel=0 note=27 velocity=0 time=0.23645833333333333@note_on channel=0 note=27 velocity=80 time=0.013541666666666667@note_on channel=0 note=27 velocity=0 time=0.23645833333333333@note_on channel=0 note=32 velocity=80 time=0.013541666666666667@note_on channel=0 note=32 velocity=0 time=0.9489583333333333@note_on channel=0 note=63 velocity=96 time=0.051041666666666666@note_on channel=0 note=39 velocity=96 time=0@note_on channel=0 note=63 velocity=0 time=0.03958333333333333@note_on channel=0 note=67 velocity=96 time=0.0010416666666666667@note_on channel=0 note=67 velocity=0 time=0.03958333333333333@note_on channel=0 note=70 velocity=96 time=0.0020833333333333333@note_on channel=0 note=39 velocity=0 time=0.035416666666666666@note_on channel=0 note=70 velocity=0 time=0.004166666666666667@note_on channel=0 note=76 velocity=96 time=0.003125@note_on channel=0 note=39 velocity=96 time=0@note_on channel=0 note=76 velocity=0 time=0.11770833333333333@note_on channel=0 note=39 velocity=0 time=0@note_on channel=0 note=75 velocity=96 time=0.007291666666666667@note_on channel=0 note=51 velocity=96 time=0@note_on channel=0 note=75 velocity=0 time=0.11770833333333333@note_on channel=0 note=73 velocity=96 time=0.007291666666666667@note_on channel=0 note=51 velocity=0 time=0.11145833333333333@note_on channel=0 note=73 velocity=0 time=0.00625@note_on channel=0 note=75 velocity=96 time=0.007291666666666667@note_on channel=0 note=39 velocity=96 time=0@note_on channel=0 note=39 velocity=0 time=0.11770833333333333@note_on channel=0 note=39 velocity=96 time=0.007291666666666667@note_on channel=0 note=75 velocity=0 time=0.11145833333333333@note_on channel=0 note=39 velocity=0 time=0.00625@note_on channel=0 note=71 velocity=96 time=0.007291666666666667@note_on channel=0 note=51 velocity=96 time=0@note_on channel=0 note=71 velocity=0 time=0.06145833333333333@note_on channel=0 note=73 velocity=96 time=0.0010416666666666667@note_on channel=0 note=73 velocity=0 time=0.058333333333333334@note_on channel=0 note=71 velocity=96 time=0.004166666666666667@note_on channel=0 note=51 velocity=0 time=0.11145833333333333@note_on channel=0 note=71 velocity=0 time=0.00625@note_on channel=0 note=70 velocity=96 time=0.007291666666666667@note_on channel=0 note=44 velocity=96 time=0@note_on channel=0 note=44 velocity=0 time=0.11770833333333333@note_on channel=0 note=44 velocity=96 time=0.007291666666666667@note_on channel=0 note=70 velocity=0 time=0.11145833333333333@note_on channel=0 note=44 velocity=0 time=0.00625@note_on channel=0 note=68 velocity=96 time=0.007291666666666667@note_on channel=0 note=56 velocity=96 time=0@note_on channel=0 note=68 velocity=0 time=0.11770833333333333@note_on channel=0 note=67 velocity=96 time=0.007291666666666667@note_on channel=0 note=56 velocity=0 time=0.11145833333333333@note_on channel=0 note=67 velocity=0 time=0.00625@note_on channel=0 note=68 velocity=96 time=0.007291666666666667@note_on channel=0 note=44 velocity=96 time=0@note_on channel=0 note=44 velocity=0 time=0.11770833333333333@note_on channel=0 note=44 velocity=96 time=0.007291666666666667@note_on channel=0 note=68 velocity=0 time=0.11145833333333333@note_on channel=0 note=44 velocity=0 time=0.00625@note_on channel=0 note=63 velocity=96 time=0.007291666666666667@note_on channel=0 note=56 velocity=96 time=0@note_on channel=0 note=63 velocity=0 time=0.11770833333333333@note_on channel=0 note=64 velocity=96 time=0.007291666666666667@note_on channel=0 note=56 velocity=0 time=0.11145833333333333@note_on channel=0 note=64 velocity=0 time=0.00625@note_on channel=0 note=63 velocity=96 time=0.007291666666666667@note_on channel=0 note=39 velocity=96 time=0@note_on channel=0 note=63 velocity=0 time=0.11770833333333333@note_on channel=0 note=39 velocity=0 time=0@note_on channel=0 note=64 velocity=96 time=0.007291666666666667@note_on channel=0 note=39 velocity=96 time=0@note_on channel=0 note=64 velocity=0 time=0.11770833333333333@note_on channel=0 note=39 velocity=0 time=0@note_on channel=0 note=63 velocity=96 time=0.007291666666666667@note_on channel=0 note=51 velocity=96 time=0@note_on channel=0 note=63 velocity=0 time=0.11770833333333333@note_on channel=0 note=62 velocity=96 time=0.007291666666666667@note_on channel=0 note=51 velocity=0 time=0.11145833333333333@note_on channel=0 note=62 velocity=0 time=0.00625@note_on channel=0 note=63 velocity=96 time=0.007291666666666667@note_on channel=0 note=39 velocity=96 time=0@note_on channel=0 note=63 velocity=0 time=0.11770833333333333@note_on channel=0 note=39 velocity=0 time=0@note_on channel=0 note=67 velocity=96 time=0.007291666666666667@note_on channel=0 note=39 velocity=96 time=0@note_on channel=0 note=67 velocity=0 time=0.11770833333333333@note_on channel=0 note=39 velocity=0 time=0@note_on channel=0 note=71 velocity=96 time=0.007291666666666667@note_on channel=0 note=51 velocity=96 time=0@note_on channel=0 note=71 velocity=0 time=0.11770833333333333@note_on channel=0 note=70 velocity=96 time=0.007291666666666667@note_on channel=0 note=51 velocity=0 time=0.11145833333333333@note_on channel=0 note=70 velocity=0 time=0.00625@note_on channel=0 note=68 velocity=96 time=0.007291666666666667@note_on channel=0 note=44 velocity=96 time=0@note_on channel=0 note=44 velocity=0 time=0.11770833333333333@note_on channel=0 note=44 velocity=96 time=0.007291666666666667@note_on channel=0 note=68 velocity=0 time=0.11145833333333333@note_on channel=0 note=44 velocity=0 time=0.00625@note_on channel=0 note=68 velocity=96 time=0.007291666666666667@note_on channel=0 note=56 velocity=96 time=0@note_on channel=0 note=68 velocity=0 time=0.11770833333333333@note_on channel=0 note=70 velocity=96 time=0.007291666666666667@note_on channel=0 note=56 velocity=0 time=0.11145833333333333@note_on channel=0 note=70 velocity=0 time=0.00625@note_on channel=0 note=71 velocity=96 time=0.007291666666666667@note_on channel=0 note=44 velocity=96 time=0@note_on channel=0 note=44 velocity=0 time=0.11770833333333333@note_on channel=0 note=44 velocity=96 time=0.007291666666666667@note_on channel=0 note=71 velocity=0 time=0.11145833333333333@note_on channel=0 note=44 velocity=0 time=0.00625@note_on channel=0 note=70 velocity=96 time=0.007291666666666667@note_on channel=0 note=56 velocity=96 time=0@note_on channel=0 note=70 velocity=0 time=0.11770833333333333@note_on channel=0 note=71 velocity=96 time=0.007291666666666667@note_on channel=0 note=56 velocity=0 time=0.11145833333333333@note_on channel=0 note=71 velocity=0 time=0.00625@note_on channel=0 note=72 velocity=96 time=0.007291666666666667@note_on channel=0 note=39 velocity=96 time=0@note_on channel=0 note=72 velocity=0 time=0.06354166666666666@note_on channel=0 note=73 velocity=96 time=0.0010416666666666667@note_on channel=0 note=39 velocity=0 time=0.053125@note_on channel=0 note=39 velocity=96 time=0.007291666666666667@note_on channel=0 note=73 velocity=0 time=0.11354166666666667@note_on channel=0 note=39 velocity=0 time=0.004166666666666667@note_on channel=0 note=71 velocity=96 time=0.007291666666666667@note_on channel=0 note=51 velocity=96 time=0@note_on channel=0 note=71 velocity=0 time=0.11770833333333333@note_on channel=0 note=70 velocity=96 time=0.007291666666666667@note_on channel=0 note=51 velocity=0 time=0.11145833333333333@note_on channel=0 note=70 velocity=0 time=0.00625@note_on channel=0 note=67 velocity=96 time=0.007291666666666667@note_on channel=0 note=39 velocity=96 time=0@note_on channel=0 note=39 velocity=0 time=0.11770833333333333@note_on channel=0 note=39 velocity=96 time=0.007291666666666667@note_on channel=0 note=67 velocity=0 time=0.11145833333333333@note_on channel=0 note=39 velocity=0 time=0.00625@note_on channel=0 note=68 velocity=96 time=0.007291666666666667@note_on channel=0 note=51 velocity=96 time=0@note_on channel=0 note=68 velocity=0 time=0.11770833333333333@note_on channel=0 note=70 velocity=96 time=0.007291666666666667@note_on channel=0 note=51 velocity=0 time=0.11145833333333333@note_on channel=0 note=70 velocity=0 time=0.00625@note_on channel=0 note=71 velocity=96 time=0.007291666666666667@note_on channel=0 note=44 velocity=96 time=0@note_on channel=0 note=44 velocity=0 time=0.11770833333333333@note_on channel=0 note=44 velocity=96 time=0.007291666666666667@note_on channel=0 note=71 velocity=0 time=0.11145833333333333@note_on channel=0 note=44 velocity=0 time=0.00625@note_on channel=0 note=70 velocity=96 time=0.007291666666666667@note_on channel=0 note=56 velocity=96 time=0@note_on channel=0 note=70 velocity=0 time=0.11770833333333333@note_on channel=0 note=68 velocity=96 time=0.007291666666666667@note_on channel=0 note=56 velocity=0 time=0.11145833333333333@note_on channel=0 note=68 velocity=0 time=0.00625@note_on channel=0 note=63 velocity=96 time=0.007291666666666667@note_on channel=0 note=44 velocity=96 time=0@note_on channel=0 note=44 velocity=0 time=0.11770833333333333@note_on channel=0 note=44 velocity=96 time=0.007291666666666667@note_on channel=0 note=63 velocity=0 time=0.11145833333333333@note_on channel=0 note=44 velocity=0 time=0.00625@note_on channel=0 note=63 velocity=96 time=0.007291666666666667@note_on channel=0 note=56 velocity=96 time=0@note_on channel=0 note=63 velocity=0 time=0.11770833333333333@note_on channel=0 note=64 velocity=96 time=0.007291666666666667@note_on channel=0 note=56 velocity=0 time=0.11145833333333333@note_on channel=0 note=64 velocity=0 time=0.00625@note_on channel=0 note=63 velocity=96 time=0.007291666666666667@note_on channel=0 note=39 velocity=96 time=0@note_on channel=0 note=63 velocity=0 time=0.11770833333333333@note_on channel=0 note=39 velocity=0 time=0@note_on channel=0 note=62 velocity=96 time=0.007291666666666667@note_on channel=0 note=39 velocity=96 time=0@note_on channel=0 note=62 velocity=0 time=0.11770833333333333@note_on channel=0 note=39 velocity=0 time=0@note_on channel=0 note=63 velocity=96 time=0.007291666666666667@note_on channel=0 note=51 velocity=96 time=0@note_on channel=0 note=63 velocity=0 time=0.11770833333333333@note_on channel=0 note=64 velocity=96 time=0.007291666666666667@note_on channel=0 note=51 velocity=0 time=0.11145833333333333@note_on channel=0 note=64 velocity=0 time=0.00625@note_on channel=0 note=63 velocity=96 time=0.007291666666666667@note_on channel=0 note=39 velocity=96 time=0@note_on channel=0 note=63 velocity=0 time=0.11770833333333333@note_on channel=0 note=39 velocity=0 time=0@note_on channel=0 note=58 velocity=96 time=0.007291666666666667@note_on channel=0 note=39 velocity=96 time=0@note_on channel=0 note=58 velocity=0 time=0.11770833333333333@note_on channel=0 note=39 velocity=0 time=0@note_on channel=0 note=71 velocity=96 time=0.007291666666666667@note_on channel=0 note=51 velocity=96 time=0@note_on channel=0 note=71 velocity=0 time=0.11770833333333333@note_on channel=0 note=70 velocity=96 time=0.007291666666666667@note_on channel=0 note=51 velocity=0 time=0.11145833333333333@note_on channel=0 note=70 velocity=0 time=0.00625@note_on channel=0 note=68 velocity=96 time=0.007291666666666667@note_on channel=0 note=44 velocity=96 time=0@note_on channel=0 note=44 velocity=0 time=0.11770833333333333@note_on channel=0 note=44 velocity=96 time=0.007291666666666667@note_on channel=0 note=68 velocity=0 time=0.11145833333333333@note_on channel=0 note=44 velocity=0 time=0.00625@note_on channel=0 note=68 velocity=96 time=0.007291666666666667@note_on channel=0 note=56 velocity=96 time=0@note_on channel=0 note=68 velocity=0 time=0.11770833333333333@note_on channel=0 note=67 velocity=96 time=0.007291666666666667@note_on channel=0 note=56 velocity=0 time=0.11145833333333333@note_on channel=0 note=67 velocity=0 time=0.00625@note_on channel=0 note=68 velocity=96 time=0.007291666666666667@note_on channel=0 note=44 velocity=96 time=0@note_on channel=0 note=44 velocity=0 time=0.11770833333333333@note_on channel=0 note=44 velocity=96 time=0.007291666666666667@note_on channel=0 note=68 velocity=0 time=0.11145833333333333@note_on channel=0 note=44 velocity=0 time=0.00625@note_on channel=0 note=78 velocity=96 time=0.007291666666666667@note_on channel=0 note=56 velocity=96 time=0@note_on channel=0 note=78 velocity=0 time=0.06145833333333333@note_on channel=0 note=79 velocity=96 time=0.0010416666666666667@note_on channel=0 note=79 velocity=0 time=0.06145833333333333@note_on channel=0 note=80 velocity=96 time=0.0010416666666666667@note_on channel=0 note=56 velocity=0 time=0.11145833333333333@note_on channel=0 note=80 velocity=0 time=0.00625@note_on channel=0 note=63 velocity=96 time=0.007291666666666667@note_on channel=0 note=39 velocity=96 time=0@note_on channel=0 note=63 velocity=0 time=0.01875@note_on channel=0 note=67 velocity=96 time=0.0010416666666666667@note_on channel=0 note=67 velocity=0 time=0.01875@note_on channel=0 note=70 velocity=96 time=0.0020833333333333333@note_on channel=0 note=70 velocity=0 time=0.01875@note_on channel=0 note=76 velocity=96 time=0.003125@note_on channel=0 note=39 velocity=0 time=0.05520833333333333@note_on channel=0 note=76 velocity=0 time=0.003125@note_on channel=0 note=67 velocity=96 time=0.004166666666666667@note_on channel=0 note=39 velocity=96 time=0@note_on channel=0 note=67 velocity=0 time=0.11770833333333333@note_on channel=0 note=39 velocity=0 time=0@note_on channel=0 note=68 velocity=96 time=0.007291666666666667@note_on channel=0 note=75 velocity=96 time=0@note_on channel=0 note=51 velocity=96 time=0@note_on channel=0 note=68 velocity=0 time=0.11770833333333333@note_on channel=0 note=75 velocity=0 time=0@note_on channel=0 note=70 velocity=96 time=0.007291666666666667@note_on channel=0 note=73 velocity=96 time=0@note_on channel=0 note=51 velocity=0 time=0.11145833333333333@note_on channel=0 note=70 velocity=0 time=0.00625@note_on channel=0 note=73 velocity=0 time=0@note_on channel=0 note=67 velocity=96 time=0.007291666666666667@note_on channel=0 note=75 velocity=96 time=0@note_on channel=0 note=39 velocity=96 time=0@note_on channel=0 note=39 velocity=0 time=0.11770833333333333@note_on channel=0 note=39 velocity=96 time=0.007291666666666667@note_on channel=0 note=67 velocity=0 time=0.11145833333333333@note_on channel=0 note=75 velocity=0 time=0@note_on channel=0 note=39 velocity=0 time=0.00625@note_on channel=0 note=71 velocity=96 time=0.007291666666666667@note_on channel=0 note=51 velocity=96 time=0@note_on channel=0 note=71 velocity=0 time=0.06145833333333333@note_on channel=0 note=67 velocity=96 time=0.0010416666666666667@note_on channel=0 note=73 velocity=96 time=0@note_on channel=0 note=67 velocity=0 time=0.058333333333333334@note_on channel=0 note=73 velocity=0 time=0@note_on channel=0 note=68 velocity=96 time=0.004166666666666667@note_on channel=0 note=71 velocity=96 time=0@note_on channel=0 note=51 velocity=0 time=0.11145833333333333@note_on channel=0 note=68 velocity=0 time=0.00625@note_on channel=0 note=71 velocity=0 time=0@note_on channel=0 note=63 velocity=96 time=0.007291666666666667@note_on channel=0 note=70 velocity=96 time=0@note_on channel=0 note=44 velocity=96 time=0@note_on channel=0 note=63 velocity=0 time=0.11770833333333333@note_on channel=0 note=70 velocity=0 time=0@note_on channel=0 note=44 velocity=0 time=0@note_on channel=0 note=61 velocity=96 time=0.007291666666666667@note_on channel=0 note=44 velocity=96 time=0@note_on channel=0 note=61 velocity=0 time=0.11770833333333333@note_on channel=0 note=44 velocity=0 time=0@note_on channel=0 note=63 velocity=96 time=0.007291666666666667@note_on channel=0 note=68 velocity=96 time=0@note_on channel=0 note=56 velocity=96 time=0@note_on channel=0 note=63 velocity=0 time=0.11770833333333333@note_on channel=0 note=68 velocity=0 time=0@note_on channel=0 note=64 velocity=96 time=0.007291666666666667@note_on channel=0 note=67 velocity=96 time=0@note_on channel=0 note=56 velocity=0 time=0.11145833333333333@note_on channel=0 note=64 velocity=0 time=0.00625@note_on channel=0 note=67 velocity=0 time=0@note_on channel=0 note=63 velocity=96 time=0.007291666666666667@note_on channel=0 note=68 velocity=96 time=0@note_on channel=0 note=44 velocity=96 time=0@note_on channel=0 note=63 velocity=0 time=0.11770833333333333@note_on channel=0 note=68 velocity=0 time=0@note_on channel=0 note=44 velocity=0 time=0@note_on channel=0 note=59 velocity=96 time=0.007291666666666667@note_on channel=0 note=44 velocity=96 time=0@note_on channel=0 note=59 velocity=0 time=0.11770833333333333@note_on channel=0 note=44 velocity=0 time=0@note_on channel=0 note=63 velocity=96 time=0.007291666666666667@note_on channel=0 note=56 velocity=96 time=0@note_on channel=0 note=63 velocity=0 time=0.11770833333333333@note_on channel=0 note=64 velocity=96 time=0.007291666666666667@note_on channel=0 note=56 velocity=0 time=0.11145833333333333@note_on channel=0 note=64 velocity=0 time=0.00625@note_on channel=0 note=58 velocity=96 time=0.007291666666666667@note_on channel=0 note=63 velocity=96 time=0@note_on channel=0 note=39 velocity=96 time=0@note_on channel=0 note=58 velocity=0 time=0.11770833333333333@note_on channel=0 note=63 velocity=0 time=0@note_on channel=0 note=39 velocity=0 time=0@note_on channel=0 note=55 velocity=96 time=0.007291666666666667@note_on channel=0 note=64 velocity=96 time=0@note_on channel=0 note=39 velocity=96 time=0@note_on channel=0 note=55 velocity=0 time=0.11770833333333333@note_on channel=0 note=64 velocity=0 time=0@note_on channel=0 note=39 velocity=0 time=0@note_on channel=0 note=58 velocity=96 time=0.007291666666666667@note_on channel=0 note=63 velocity=96 time=0@note_on channel=0 note=51 velocity=96 time=0@note_on channel=0 note=58 velocity=0 time=0.11770833333333333@note_on channel=0 note=63 velocity=0 time=0@note_on channel=0 note=59 velocity=96 time=0.007291666666666667@note_on channel=0 note=62 velocity=96 time=0@note_on channel=0 note=51 velocity=0 time=0.11145833333333333@note_on channel=0 note=59 velocity=0 time=0.00625@note_on channel=0 note=62 velocity=0 time=0@note_on channel=0 note=58 velocity=96 time=0.007291666666666667@note_on channel=0 note=63 velocity=96 time=0@note_on channel=0 note=39 velocity=96 time=0@note_on channel=0 note=58 velocity=0 time=0.11770833333333333@note_on channel=0 note=63 velocity=0 time=0@note_on channel=0 note=39 velocity=0 time=0@note_on channel=0 note=55 velocity=96 time=0.007291666666666667@note_on channel=0 note=67 velocity=96 time=0@note_on channel=0 note=39 velocity=96 time=0@note_on channel=0 note=55 velocity=0 time=0.11770833333333333@note_on channel=0 note=67 velocity=0 time=0@note_on channel=0 note=39 velocity=0 time=0@note_on channel=0 note=58 velocity=96 time=0.007291666666666667@note_on channel=0 note=71 velocity=96 time=0@note_on channel=0 note=51 velocity=96 time=0@note_on channel=0 note=58 velocity=0 time=0.11770833333333333@note_on channel=0 note=71 velocity=0 time=0@note_on channel=0 note=63 velocity=96 time=0.007291666666666667@note_on channel=0 note=70 velocity=96 time=0@note_on channel=0 note=51 velocity=0 time=0.11145833333333333@note_on channel=0 note=63 velocity=0 time=0.00625@note_on channel=0 note=70 velocity=0 time=0@note_on channel=0 note=64 velocity=96 time=0.007291666666666667@note_on channel=0 note=68 velocity=96 time=0@note_on channel=0 note=44 velocity=96 time=0@note_on channel=0 note=44 velocity=0 time=0.11770833333333333@note_on channel=0 note=44 velocity=96 time=0.007291666666666667@note_on channel=0 note=64 velocity=0 time=0.11145833333333333@note_on channel=0 note=68 velocity=0 time=0@note_on channel=0 note=44 velocity=0 time=0.00625@note_on channel=0 note=63 velocity=96 time=0.007291666666666667@note_on channel=0 note=68 velocity=96 time=0@note_on channel=0 note=56 velocity=96 time=0@note_on channel=0 note=63 velocity=0 time=0.11770833333333333@note_on channel=0 note=68 velocity=0 time=0@note_on channel=0 note=62 velocity=96 time=0.007291666666666667@note_on channel=0 note=70 velocity=96 time=0@note_on channel=0 note=56 velocity=0 time=0.11145833333333333@note_on channel=0 note=62 velocity=0 time=0.00625@note_on channel=0 note=70 velocity=0 time=0@note_on channel=0 note=63 velocity=96 time=0.007291666666666667@note_on channel=0 note=71 velocity=96 time=0@note_on channel=0 note=44 velocity=96 time=0@note_on channel=0 note=44 velocity=0 time=0.11770833333333333@note_on channel=0 note=44 velocity=96 time=0.007291666666666667@note_on channel=0 note=63 velocity=0 time=0.11145833333333333@note_on channel=0 note=71 velocity=0 time=0@note_on channel=0 note=44 velocity=0 time=0.00625@note_on channel=0 note=63 velocity=96 time=0.007291666666666667@note_on channel=0 note=70 velocity=96 time=0@note_on channel=0 note=56 velocity=96 time=0@note_on channel=0 note=63 velocity=0 time=0.11770833333333333@note_on channel=0 note=70 velocity=0 time=0@note_on channel=0 note=62 velocity=96 time=0.007291666666666667@note_on channel=0 note=71 velocity=96 time=0@note_on channel=0 note=56 velocity=0 time=0.11145833333333333@note_on channel=0 note=62 velocity=0 time=0.00625@note_on channel=0 note=71 velocity=0 time=0@note_on channel=0 note=72 velocity=96 time=0.007291666666666667@note_on channel=0 note=39 velocity=96 time=0@note_on channel=0 note=72 velocity=0 time=0.06145833333333333@note_on channel=0 note=67 velocity=96 time=0.0010416666666666667@note_on channel=0 note=73 velocity=96 time=0@note_on channel=0 note=39 velocity=0 time=0.05520833333333333@note_on channel=0 note=67 velocity=0 time=0.003125@note_on channel=0 note=73 velocity=0 time=0@note_on channel=0 note=63 velocity=96 time=0.004166666666666667@note_on channel=0 note=39 velocity=96 time=0@note_on channel=0 note=63 velocity=0 time=0.11770833333333333@note_on channel=0 note=39 velocity=0 time=0@note_on channel=0 note=67 velocity=96 time=0.007291666666666667@note_on channel=0 note=72 velocity=96 time=0@note_on channel=0 note=51 velocity=96 time=0@note_on channel=0 note=67 velocity=0 time=0.11770833333333333@note_on channel=0 note=72 velocity=0 time=0@note_on channel=0 note=63 velocity=96 time=0.007291666666666667@note_on channel=0 note=70 velocity=96 time=0@note_on channel=0 note=51 velocity=0 time=0.11145833333333333@note_on channel=0 note=63 velocity=0 time=0.00625@note_on channel=0 note=70 velocity=0 time=0@note_on channel=0 note=61 velocity=96 time=0.007291666666666667@note_on channel=0 note=67 velocity=96 time=0@note_on channel=0 note=39 velocity=96 time=0@note_on channel=0 note=61 velocity=0 time=0.11770833333333333@note_on channel=0 note=67 velocity=0 time=0@note_on channel=0 note=39 velocity=0 time=0@note_on channel=0 note=55 velocity=96 time=0.007291666666666667@note_on channel=0 note=39 velocity=96 time=0@note_on channel=0 note=55 velocity=0 time=0.11770833333333333@note_on channel=0 note=39 velocity=0 time=0@note_on channel=0 note=61 velocity=96 time=0.007291666666666667@note_on channel=0 note=68 velocity=96 time=0@note_on channel=0 note=51 velocity=96 time=0@note_on channel=0 note=61 velocity=0 time=0.11770833333333333@note_on channel=0 note=68 velocity=0 time=0@note_on channel=0 note=59 velocity=96 time=0.007291666666666667@note_on channel=0 note=70 velocity=96 time=0@note_on channel=0 note=51 velocity=0 time=0.11145833333333333@note_on channel=0 note=59 velocity=0 time=0.00625@note_on channel=0 note=70 velocity=0 time=0@note_on channel=0 note=68 velocity=96 time=0.007291666666666667@note_on channel=0 note=72 velocity=96 time=0@note_on channel=0 note=44 velocity=96 time=0@note_on channel=0 note=68 velocity=0 time=0.11770833333333333@note_on channel=0 note=72 velocity=0 time=0@note_on channel=0 note=44 velocity=0 time=0@note_on channel=0 note=58 velocity=96 time=0.007291666666666667@note_on channel=0 note=44 velocity=96 time=0@note_on channel=0 note=58 velocity=0 time=0.11770833333333333@note_on channel=0 note=44 velocity=0 time=0@note_on channel=0 note=70 velocity=96 time=0.007291666666666667@note_on channel=0 note=56 velocity=96 time=0@note_on channel=0 note=70 velocity=0 time=0.11770833333333333@note_on channel=0 note=68 velocity=96 time=0.007291666666666667@note_on channel=0 note=56 velocity=0 time=0.11145833333333333@note_on channel=0 note=68 velocity=0 time=0.00625@note_on channel=0 note=56 velocity=96 time=0.007291666666666667@note_on channel=0 note=63 velocity=96 time=0@note_on channel=0 note=44 velocity=96 time=0@note_on channel=0 note=56 velocity=0 time=0.11770833333333333@note_on channel=0 note=63 velocity=0 time=0@note_on channel=0 note=44 velocity=0 time=0@note_on channel=0 note=58 velocity=96 time=0.007291666666666667@note_on channel=0 note=44 velocity=96 time=0@note_on channel=0 note=58 velocity=0 time=0.11770833333333333@note_on channel=0 note=44 velocity=0 time=0@note_on channel=0 note=59 velocity=96 time=0.007291666666666667@note_on channel=0 note=63 velocity=96 time=0@note_on channel=0 note=56 velocity=96 time=0@note_on channel=0 note=59 velocity=0 time=0.11770833333333333@note_on channel=0 note=63 velocity=0 time=0@note_on channel=0 note=64 velocity=96 time=0.007291666666666667@note_on channel=0 note=56 velocity=0 time=0.11145833333333333@note_on channel=0 note=64 velocity=0 time=0.00625@note_on channel=0 note=55 velocity=96 time=0.007291666666666667@note_on channel=0 note=63 velocity=96 time=0@note_on channel=0 note=39 velocity=96 time=0@note_on channel=0 note=55 velocity=0 time=0.11770833333333333@note_on channel=0 note=63 velocity=0 time=0@note_on channel=0 note=39 velocity=0 time=0@note_on channel=0 note=51 velocity=96 time=0.007291666666666667@note_on channel=0 note=62 velocity=96 time=0@note_on channel=0 note=39 velocity=96 time=0@note_on channel=0 note=51 velocity=0 time=0.11770833333333333@note_on channel=0 note=62 velocity=0 time=0@note_on channel=0 note=39 velocity=0 time=0@note_on channel=0 note=55 velocity=96 time=0.007291666666666667@note_on channel=0 note=63 velocity=96 time=0@note_on channel=0 note=51 velocity=96 time=0@note_on channel=0 note=55 velocity=0 time=0.11770833333333333@note_on channel=0 note=63 velocity=0 time=0@note_on channel=0 note=56 velocity=96 time=0.007291666666666667@note_on channel=0 note=64 velocity=96 time=0@note_on channel=0 note=51 velocity=0 time=0.11145833333333333@note_on channel=0 note=56 velocity=0 time=0.00625@note_on channel=0 note=64 velocity=0 time=0@note_on channel=0 note=55 velocity=96 time=0.007291666666666667@note_on channel=0 note=63 velocity=96 time=0@note_on channel=0 note=39 velocity=96 time=0@note_on channel=0 note=55 velocity=0 time=0.11770833333333333@note_on channel=0 note=63 velocity=0 time=0@note_on channel=0 note=39 velocity=0 time=0@note_on channel=0 note=51 velocity=96 time=0.007291666666666667@note_on channel=0 note=59 velocity=96 time=0@note_on channel=0 note=39 velocity=96 time=0@note_on channel=0 note=51 velocity=0 time=0.11770833333333333@note_on channel=0 note=59 velocity=0 time=0@note_on channel=0 note=39 velocity=0 time=0@note_on channel=0 note=68 velocity=96 time=0.007291666666666667@note_on channel=0 note=71 velocity=96 time=0@note_on channel=0 note=51 velocity=96 time=0@note_on channel=0 note=68 velocity=0 time=0.11770833333333333@note_on channel=0 note=71 velocity=0 time=0@note_on channel=0 note=63 velocity=96 time=0.007291666666666667@note_on channel=0 note=70 velocity=96 time=0@note_on channel=0 note=51 velocity=0 time=0.11145833333333333@note_on channel=0 note=63 velocity=0 time=0.00625@note_on channel=0 note=70 velocity=0 time=0@note_on channel=0 note=56 velocity=96 time=0.007291666666666667@note_on channel=0 note=68 velocity=96 time=0@note_on channel=0 note=44 velocity=96 time=0@note_on channel=0 note=44 velocity=0 time=0.11770833333333333@note_on channel=0 note=44 velocity=96 time=0.007291666666666667@note_on channel=0 note=56 velocity=0 time=0.11145833333333333@note_on channel=0 note=68 velocity=0 time=0@note_on channel=0 note=44 velocity=0 time=0.00625@note_on channel=0 note=68 velocity=96 time=0.007291666666666667@note_on channel=0 note=56 velocity=96 time=0@note_on channel=0 note=68 velocity=0 time=0.11770833333333333@note_on channel=0 note=67 velocity=96 time=0.007291666666666667@note_on channel=0 note=56 velocity=0 time=0.11145833333333333@note_on channel=0 note=67 velocity=0 time=0.00625@note_on channel=0 note=56 velocity=96 time=0.007291666666666667@note_on channel=0 note=68 velocity=96 time=0@note_on channel=0 note=44 velocity=96 time=0@note_on channel=0 note=56 velocity=0 time=0.11770833333333333@note_on channel=0 note=68 velocity=0 time=0@note_on channel=0 note=44 velocity=0 time=0@note_on channel=0 note=71 velocity=100 time=0.007291666666666667@note_on channel=0 note=44 velocity=100 time=0@note_on channel=0 note=71 velocity=0 time=0.11770833333333333@note_on channel=0 note=44 velocity=0 time=0@note_on channel=0 note=73 velocity=104 time=0.007291666666666667@note_on channel=0 note=51 velocity=104 time=0@note_on channel=0 note=73 velocity=0 time=0.11770833333333333@note_on channel=0 note=75 velocity=108 time=0.007291666666666667@note_on channel=0 note=51 velocity=0 time=0.11145833333333333@note_on channel=0 note=75 velocity=0 time=0.00625@note_on channel=0 note=76 velocity=112 time=0.007291666666666667@note_on channel=0 note=40 velocity=112 time=0@note_on channel=0 note=40 velocity=0 time=0.11770833333333333@note_on channel=0 note=47 velocity=112 time=0.007291666666666667@note_on channel=0 note=47 velocity=0 time=0.11770833333333333@note_on channel=0 note=52 velocity=112 time=0.007291666666666667@note_on channel=0 note=52 velocity=0 time=0.11770833333333333@note_on channel=0 note=47 velocity=112 time=0.007291666666666667@note_on channel=0 note=47 velocity=0 time=0.11770833333333333@note_on channel=0 note=40 velocity=112 time=0.007291666666666667@note_on channel=0 note=40 velocity=0 time=0.11770833333333333@note_on channel=0 note=47 velocity=112 time=0.007291666666666667@note_on channel=0 note=76 velocity=0 time=0.08645833333333333@note_on channel=0 note=47 velocity=0 time=0.03125@note_on channel=0 note=71 velocity=112 time=0.007291666666666667@note_on channel=0 note=52 velocity=112 time=0@note_on channel=0 note=52 velocity=0 time=0.11770833333333333@note_on channel=0 note=47 velocity=112 time=0.007291666666666667@note_on channel=0 note=71 velocity=0 time=0.11145833333333333@note_on channel=0 note=47 velocity=0 time=0.00625@note_on channel=0 note=68 velocity=112 time=0.007291666666666667@note_on channel=0 note=40 velocity=112 time=0@note_on channel=0 note=40 velocity=0 time=0.11770833333333333@note_on channel=0 note=47 velocity=112 time=0.007291666666666667@note_on channel=0 note=47 velocity=0 time=0.11770833333333333@note_on channel=0 note=52 velocity=112 time=0.007291666666666667@note_on channel=0 note=52 velocity=0 time=0.11770833333333333@note_on channel=0 note=47 velocity=112 time=0.007291666666666667@note_on channel=0 note=47 velocity=0 time=0.11770833333333333@note_on channel=0 note=40 velocity=112 time=0.007291666666666667@note_on channel=0 note=40 velocity=0 time=0.11770833333333333@note_on channel=0 note=47 velocity=112 time=0.007291666666666667@note_on channel=0 note=68 velocity=0 time=0.08645833333333333@note_on channel=0 note=47 velocity=0 time=0.03125@note_on channel=0 note=67 velocity=112 time=0.007291666666666667@note_on channel=0 note=52 velocity=112 time=0@note_on channel=0 note=52 velocity=0 time=0.11770833333333333@note_on channel=0 note=47 velocity=112 time=0.007291666666666667@note_on channel=0 note=67 velocity=0 time=0.11145833333333333@note_on channel=0 note=47 velocity=0 time=0.00625@note_on channel=0 note=70 velocity=112 time=0.007291666666666667@note_on channel=0 note=39 velocity=112 time=0@note_on channel=0 note=39 velocity=0 time=0.11770833333333333@note_on channel=0 note=46 velocity=112 time=0.007291666666666667@note_on channel=0 note=46 velocity=0 time=0.11770833333333333@note_on channel=0 note=51 velocity=112 time=0.007291666666666667@note_on channel=0 note=51 velocity=0 time=0.11770833333333333@note_on channel=0 note=46 velocity=112 time=0.007291666666666667@note_on channel=0 note=70 velocity=0 time=0.09895833333333333@note_on channel=0 note=46 velocity=0 time=0.01875@note_on channel=0 note=63 velocity=112 time=0.007291666666666667@note_on channel=0 note=39 velocity=112 time=0@note_on channel=0 note=39 velocity=0 time=0.11770833333333333@note_on channel=0 note=46 velocity=112 time=0.007291666666666667@note_on channel=0 note=46 velocity=0 time=0.11770833333333333@note_on channel=0 note=51 velocity=112 time=0.007291666666666667@note_on channel=0 note=51 velocity=0 time=0.11770833333333333@note_on channel=0 note=46 velocity=112 time=0.007291666666666667@note_on channel=0 note=63 velocity=0 time=0.09895833333333333@note_on channel=0 note=46 velocity=0 time=0.01875@note_on channel=0 note=75 velocity=112 time=0.007291666666666667@note_on channel=0 note=39 velocity=112 time=0@note_on channel=0 note=39 velocity=0 time=0.11770833333333333@note_on channel=0 note=46 velocity=112 time=0.007291666666666667@note_on channel=0 note=46 velocity=0 time=0.11770833333333333@note_on channel=0 note=51 velocity=112 time=0.007291666666666667@note_on channel=0 note=51 velocity=0 time=0.11770833333333333@note_on channel=0 note=46 velocity=112 time=0.007291666666666667@note_on channel=0 note=75 velocity=0 time=0.09895833333333333@note_on channel=0 note=46 velocity=0 time=0.01875@note_on channel=0 note=74 velocity=112 time=0.007291666666666667@note_on channel=0 note=39 velocity=112 time=0@note_on channel=0 note=39 velocity=0 time=0.11770833333333333@note_on channel=0 note=46 velocity=112 time=0.007291666666666667@note_on channel=0 note=46 velocity=0 time=0.11770833333333333@note_on channel=0 note=51 velocity=112 time=0.007291666666666667@note_on channel=0 note=51 velocity=0 time=0.11770833333333333@note_on channel=0 note=46 velocity=112 time=0.007291666666666667@note_on channel=0 note=74 velocity=0 time=0.09895833333333333@note_on channel=0 note=46 velocity=0 time=0.01875@note_on channel=0 note=73 velocity=112 time=0.007291666666666667@note_on channel=0 note=37 velocity=112 time=0@note_on channel=0 note=37 velocity=0 time=0.11770833333333333@note_on channel=0 note=45 velocity=112 time=0.007291666666666667@note_on channel=0 note=45 velocity=0 time=0.11770833333333333@note_on channel=0 note=49 velocity=112 time=0.007291666666666667@note_on channel=0 note=49 velocity=0 time=0.11770833333333333@note_on channel=0 note=45 velocity=112 time=0.007291666666666667@note_on channel=0 note=45 velocity=0 time=0.11770833333333333@note_on channel=0 note=37 velocity=112 time=0.007291666666666667@note_on channel=0 note=37 velocity=0 time=0.11770833333333333@note_on channel=0 note=45 velocity=112 time=0.007291666666666667@note_on channel=0 note=73 velocity=0 time=0.08645833333333333@note_on channel=0 note=45 velocity=0 time=0.03125@note_on channel=0 note=70 velocity=112 time=0.007291666666666667@note_on channel=0 note=49 velocity=112 time=0@note_on channel=0 note=49 velocity=0 time=0.11770833333333333@note_on channel=0 note=45 velocity=112 time=0.007291666666666667@note_on channel=0 note=70 velocity=0 time=0.11145833333333333@note_on channel=0 note=45 velocity=0 time=0.00625@note_on channel=0 note=67 velocity=112 time=0.007291666666666667@note_on channel=0 note=39 velocity=112 time=0@note_on channel=0 note=39 velocity=0 time=0.11770833333333333@note_on channel=0 note=46 velocity=112 time=0.007291666666666667@note_on channel=0 note=46 velocity=0 time=0.11770833333333333@note_on channel=0 note=51 velocity=112 time=0.007291666666666667@note_on channel=0 note=51 velocity=0 time=0.11770833333333333@note_on channel=0 note=46 velocity=112 time=0.007291666666666667@note_on channel=0 note=46 velocity=0 time=0.11770833333333333@note_on channel=0 note=39 velocity=112 time=0.007291666666666667@note_on channel=0 note=39 velocity=0 time=0.11770833333333333@note_on channel=0 note=46 velocity=112 time=0.007291666666666667@note_on channel=0 note=67 velocity=0 time=0.08645833333333333@note_on channel=0 note=46 velocity=0 time=0.03125@note_on channel=0 note=63 velocity=112 time=0.007291666666666667@note_on channel=0 note=51 velocity=112 time=0@note_on channel=0 note=51 velocity=0 time=0.11770833333333333@note_on channel=0 note=46 velocity=112 time=0.007291666666666667@note_on channel=0 note=63 velocity=0 time=0.11145833333333333@note_on channel=0 note=46 velocity=0 time=0.00625@note_on channel=0 note=68 velocity=112 time=0.007291666666666667@note_on channel=0 note=32 velocity=112 time=0@note_on channel=0 note=68 velocity=0 time=0.11770833333333333@note_on channel=0 note=32 velocity=0 time=0@note_on channel=0 note=67 velocity=112 time=0.007291666666666667@note_on channel=0 note=32 velocity=112 time=0@note_on channel=0 note=67 velocity=0 time=0.11770833333333333@note_on channel=0 note=32 velocity=0 time=0@note_on channel=0 note=68 velocity=112 time=0.007291666666666667@note_on channel=0 note=44 velocity=112 time=0@note_on channel=0 note=44 velocity=0 time=0.11770833333333333@note_on channel=0 note=44 velocity=112 time=0.007291666666666667@note_on channel=0 note=68 velocity=0 time=0.11145833333333333@note_on channel=0 note=44 velocity=0 time=0.00625@note_on channel=0 note=70 velocity=112 time=0.007291666666666667@note_on channel=0 note=34 velocity=112 time=0@note_on channel=0 note=70 velocity=0 time=0.11770833333333333@note_on channel=0 note=34 velocity=0 time=0@note_on channel=0 note=68 velocity=112 time=0.007291666666666667@note_on channel=0 note=34 velocity=112 time=0@note_on channel=0 note=68 velocity=0 time=0.11770833333333333@note_on channel=0 note=34 velocity=0 time=0@note_on channel=0 note=70 velocity=112 time=0.007291666666666667@note_on channel=0 note=46 velocity=112 time=0@note_on channel=0 note=46 velocity=0 time=0.11770833333333333@note_on channel=0 note=46 velocity=112 time=0.007291666666666667@note_on channel=0 note=70 velocity=0 time=0.11145833333333333@note_on channel=0 note=46 velocity=0 time=0.00625@note_on channel=0 note=71 velocity=112 time=0.007291666666666667@note_on channel=0 note=35 velocity=112 time=0@note_on channel=0 note=35 velocity=0 time=0.11770833333333333@note_on channel=0 note=35 velocity=112 time=0.007291666666666667@note_on channel=0 note=35 velocity=0 time=0.11770833333333333@note_on channel=0 note=47 velocity=112 time=0.007291666666666667@note_on channel=0 note=47 velocity=0 time=0.11770833333333333@note_on channel=0 note=47 velocity=112 time=0.007291666666666667@note_on channel=0 note=71 velocity=0 time=0.09895833333333333@note_on channel=0 note=47 velocity=0 time=0.01875@note_on channel=0 note=71 velocity=112 time=0.007291666666666667@note_on channel=0 note=39 velocity=112 time=0@note_on channel=0 note=71 velocity=0 time=0.11770833333333333@note_on channel=0 note=39 velocity=0 time=0@note_on channel=0 note=73 velocity=112 time=0.007291666666666667@note_on channel=0 note=39 velocity=112 time=0@note_on channel=0 note=73 velocity=0 time=0.11770833333333333@note_on channel=0 note=39 velocity=0 time=0@note_on channel=0 note=75 velocity=112 time=0.007291666666666667@note_on channel=0 note=51 velocity=112 time=0@note_on channel=0 note=75 velocity=0 time=0.11770833333333333@note_on channel=0 note=51 velocity=0 time=0@note_on channel=0 note=78 velocity=112 time=0.007291666666666667@note_on channel=0 note=51 velocity=112 time=0@note_on channel=0 note=78 velocity=0 time=0.11770833333333333@note_on channel=0 note=51 velocity=0 time=0@note_on channel=0 note=80 velocity=112 time=0.007291666666666667@note_on channel=0 note=40 velocity=112 time=0@note_on channel=0 note=40 velocity=0 time=0.11770833333333333@note_on channel=0 note=47 velocity=112 time=0.007291666666666667@note_on channel=0 note=47 velocity=0 time=0.11770833333333333@note_on channel=0 note=52 velocity=112 time=0.007291666666666667@note_on channel=0 note=52 velocity=0 time=0.11770833333333333@note_on channel=0 note=47 velocity=112 time=0.007291666666666667@note_on channel=0 note=47 velocity=0 time=0.11770833333333333@note_on channel=0 note=40 velocity=112 time=0.007291666666666667@note_on channel=0 note=40 velocity=0 time=0.11770833333333333@note_on channel=0 note=47 velocity=112 time=0.007291666666666667@note_on channel=0 note=80 velocity=0 time=0.08645833333333333@note_on channel=0 note=47 velocity=0 time=0.03125@note_on channel=0 note=79 velocity=112 time=0.007291666666666667@note_on channel=0 note=52 velocity=112 time=0@note_on channel=0 note=52 velocity=0 time=0.11770833333333333@note_on channel=0 note=47 velocity=112 time=0.007291666666666667@note_on channel=0 note=79 velocity=0 time=0.11145833333333333@note_on channel=0 note=47 velocity=0 time=0.00625@note_on channel=0 note=76 velocity=112 time=0.007291666666666667@note_on channel=0 note=40 velocity=112 time=0@note_on channel=0 note=40 velocity=0 time=0.11770833333333333@note_on channel=0 note=47 velocity=112 time=0.007291666666666667@note_on channel=0 note=47 velocity=0 time=0.11770833333333333@note_on channel=0 note=52 velocity=112 time=0.007291666666666667@note_on channel=0 note=52 velocity=0 time=0.11770833333333333@note_on channel=0 note=47 velocity=112 time=0.007291666666666667@note_on channel=0 note=47 velocity=0 time=0.11770833333333333@note_on channel=0 note=40 velocity=112 time=0.007291666666666667@note_on channel=0 note=40 velocity=0 time=0.11770833333333333@note_on channel=0 note=47 velocity=112 time=0.007291666666666667@note_on channel=0 note=76 velocity=0 time=0.08645833333333333@note_on channel=0 note=47 velocity=0 time=0.03125@note_on channel=0 note=75 velocity=112 time=0.007291666666666667@note_on channel=0 note=52 velocity=112 time=0@note_on channel=0 note=52 velocity=0 time=0.11770833333333333@note_on channel=0 note=47 velocity=112 time=0.007291666666666667@note_on channel=0 note=75 velocity=0 time=0.11145833333333333@note_on channel=0 note=47 velocity=0 time=0.00625@note_on channel=0 note=74 velocity=112 time=0.007291666666666667@note_on channel=0 note=39 velocity=112 time=0@note_on channel=0 note=39 velocity=0 time=0.11770833333333333@note_on channel=0 note=46 velocity=112 time=0.007291666666666667@note_on channel=0 note=46 velocity=0 time=0.11770833333333333@note_on channel=0 note=51 velocity=112 time=0.007291666666666667@note_on channel=0 note=51 velocity=0 time=0.11770833333333333@note_on channel=0 note=46 velocity=112 time=0.007291666666666667@note_on channel=0 note=74 velocity=0 time=0.09895833333333333@note_on channel=0 note=46 velocity=0 time=0.01875@note_on channel=0 note=79 velocity=112 time=0.007291666666666667@note_on channel=0 note=39 velocity=112 time=0@note_on channel=0 note=39 velocity=0 time=0.11770833333333333@note_on channel=0 note=46 velocity=112 time=0.007291666666666667@note_on channel=0 note=46 velocity=0 time=0.11770833333333333@note_on channel=0 note=51 velocity=112 time=0.007291666666666667@note_on channel=0 note=51 velocity=0 time=0.11770833333333333@note_on channel=0 note=46 velocity=112 time=0.007291666666666667@note_on channel=0 note=79 velocity=0 time=0.09895833333333333@note_on channel=0 note=46 velocity=0 time=0.01875@note_on channel=0 note=70 velocity=112 time=0.007291666666666667@note_on channel=0 note=39 velocity=112 time=0@note_on channel=0 note=39 velocity=0 time=0.11770833333333333@note_on channel=0 note=46 velocity=112 time=0.007291666666666667@note_on channel=0 note=46 velocity=0 time=0.11770833333333333@note_on channel=0 note=51 velocity=112 time=0.007291666666666667@note_on channel=0 note=51 velocity=0 time=0.11770833333333333@note_on channel=0 note=46 velocity=112 time=0.007291666666666667@note_on channel=0 note=70 velocity=0 time=0.09895833333333333@note_on channel=0 note=46 velocity=0 time=0.01875@note_on channel=0 note=75 velocity=112 time=0.007291666666666667@note_on channel=0 note=39 velocity=112 time=0@note_on channel=0 note=39 velocity=0 time=0.11770833333333333@note_on channel=0 note=46 velocity=112 time=0.007291666666666667@note_on channel=0 note=46 velocity=0 time=0.11770833333333333@note_on channel=0 note=51 velocity=112 time=0.007291666666666667@note_on channel=0 note=51 velocity=0 time=0.11770833333333333@note_on channel=0 note=46 velocity=112 time=0.007291666666666667@note_on channel=0 note=75 velocity=0 time=0.09895833333333333@note_on channel=0 note=46 velocity=0 time=0.01875@note_on channel=0 note=73 velocity=112 time=0.007291666666666667@note_on channel=0 note=37 velocity=112 time=0@note_on channel=0 note=37 velocity=0 time=0.11770833333333333@note_on channel=0 note=45 velocity=112 time=0.007291666666666667@note_on channel=0 note=45 velocity=0 time=0.11770833333333333@note_on channel=0 note=49 velocity=112 time=0.007291666666666667@note_on channel=0 note=49 velocity=0 time=0.11770833333333333@note_on channel=0 note=45 velocity=112 time=0.007291666666666667@note_on channel=0 note=45 velocity=0 time=0.11770833333333333@note_on channel=0 note=37 velocity=112 time=0.007291666666666667@note_on channel=0 note=37 velocity=0 time=0.11770833333333333@note_on channel=0 note=45 velocity=112 time=0.007291666666666667@note_on channel=0 note=45 velocity=0 time=0.11770833333333333@note_on channel=0 note=49 velocity=112 time=0.007291666666666667@note_on channel=0 note=49 velocity=0 time=0.11770833333333333@note_on channel=0 note=45 velocity=112 time=0.007291666666666667@note_on channel=0 note=73 velocity=0 time=0.07395833333333333@note_on channel=0 note=45 velocity=0 time=0.04375@note_on channel=0 note=73 velocity=112 time=0.007291666666666667@note_on channel=0 note=37 velocity=112 time=0@note_on channel=0 note=37 velocity=0 time=0.11770833333333333@note_on channel=0 note=45 velocity=112 time=0.007291666666666667@note_on channel=0 note=45 velocity=0 time=0.11770833333333333@note_on channel=0 note=49 velocity=112 time=0.007291666666666667@note_on channel=0 note=49 velocity=0 time=0.11770833333333333@note_on channel=0 note=45 velocity=112 time=0.007291666666666667@note_on channel=0 note=73 velocity=0 time=0.09895833333333333@note_on channel=0 note=45 velocity=0 time=0.01875@note_on channel=0 note=76 velocity=112 time=0.007291666666666667@note_on channel=0 note=37 velocity=112 time=0@note_on channel=0 note=37 velocity=0 time=0.11770833333333333@note_on channel=0 note=45 velocity=112 time=0.007291666666666667@note_on channel=0 note=45 velocity=0 time=0.11770833333333333@note_on channel=0 note=49 velocity=112 time=0.007291666666666667@note_on channel=0 note=49 velocity=0 time=0.11770833333333333@note_on channel=0 note=45 velocity=112 time=0.007291666666666667@note_on channel=0 note=76 velocity=0 time=0.09895833333333333@note_on channel=0 note=45 velocity=0 time=0.01875@note_on channel=0 note=75 velocity=112 time=0.007291666666666667@note_on channel=0 note=71 velocity=112 time=0@note_on channel=0 note=27 velocity=112 time=0@note_on channel=0 note=39 velocity=112 time=0@note_on channel=0 note=71 velocity=0 time=0.11770833333333333@note_on channel=0 note=68 velocity=112 time=0.007291666666666667@note_on channel=0 note=68 velocity=0 time=0.11770833333333333@note_on channel=0 note=63 velocity=112 time=0.007291666666666667@note_on channel=0 note=63 velocity=0 time=0.11770833333333333@note_on channel=0 note=59 velocity=112 time=0.007291666666666667@note_on channel=0 note=27 velocity=0 time=0.09895833333333333@note_on channel=0 note=39 velocity=0 time=0@note_on channel=0 note=59 velocity=0 time=0.01875@note_on channel=0 note=63 velocity=112 time=0.007291666666666667@note_on channel=0 note=27 velocity=112 time=0@note_on channel=0 note=39 velocity=112 time=0@note_on channel=0 note=63 velocity=0 time=0.11770833333333333@note_on channel=0 note=59 velocity=112 time=0.007291666666666667@note_on channel=0 note=59 velocity=0 time=0.11770833333333333@note_on channel=0 note=56 velocity=112 time=0.007291666666666667@note_on channel=0 note=75 velocity=0 time=0.08020833333333333@note_on channel=0 note=56 velocity=0 time=0.0375@note_on channel=0 note=75 velocity=112 time=0.007291666666666667@note_on channel=0 note=63 velocity=112 time=0@note_on channel=0 note=75 velocity=0 time=0.058333333333333334@note_on channel=0 note=75 velocity=112 time=0.004166666666666667@note_on channel=0 note=27 velocity=0 time=0.036458333333333336@note_on channel=0 note=39 velocity=0 time=0@note_on channel=0 note=63 velocity=0 time=0.01875@note_on channel=0 note=75 velocity=0 time=0.003125@note_on channel=0 note=75 velocity=112 time=0.004166666666666667@note_on channel=0 note=63 velocity=112 time=0@note_on channel=0 note=27 velocity=112 time=0@note_on channel=0 note=39 velocity=112 time=0@note_on channel=0 note=75 velocity=0 time=0.11770833333333333@note_on channel=0 note=63 velocity=0 time=0@note_on channel=0 note=76 velocity=112 time=0.007291666666666667@note_on channel=0 note=64 velocity=112 time=0@note_on channel=0 note=76 velocity=0 time=0.11770833333333333@note_on channel=0 note=64 velocity=0 time=0@note_on channel=0 note=75 velocity=112 time=0.007291666666666667@note_on channel=0 note=63 velocity=112 time=0@note_on channel=0 note=75 velocity=0 time=0.11770833333333333@note_on channel=0 note=63 velocity=0 time=0@note_on channel=0 note=74 velocity=112 time=0.007291666666666667@note_on channel=0 note=62 velocity=112 time=0@note_on channel=0 note=74 velocity=0 time=0.11770833333333333@note_on channel=0 note=62 velocity=0 time=0@note_on channel=0 note=27 velocity=0 time=0.00625@note_on channel=0 note=39 velocity=0 time=0@note_on channel=0 note=75 velocity=112 time=0.0010416666666666667@note_on channel=0 note=63 velocity=112 time=0@note_on channel=0 note=75 velocity=0 time=0.11770833333333333@note_on channel=0 note=63 velocity=0 time=0@note_on channel=0 note=74 velocity=112 time=0.007291666666666667@note_on channel=0 note=74 velocity=0 time=0.11770833333333333@note_on channel=0 note=75 velocity=112 time=0.007291666666666667@note_on channel=0 note=75 velocity=0 time=0.11770833333333333@note_on channel=0 note=63 velocity=96 time=0.13229166666666667@note_on channel=0 note=39 velocity=96 time=0@note_on channel=0 note=63 velocity=0 time=0.03958333333333333@note_on channel=0 note=67 velocity=96 time=0.0010416666666666667@note_on channel=0 note=67 velocity=0 time=0.03958333333333333@note_on channel=0 note=70 velocity=96 time=0.0020833333333333333@note_on channel=0 note=39 velocity=0 time=0.035416666666666666@note_on channel=0 note=70 velocity=0 time=0.004166666666666667@note_on channel=0 note=76 velocity=96 time=0.003125@note_on channel=0 note=39 velocity=96 time=0@note_on channel=0 note=76 velocity=0 time=0.11770833333333333@note_on channel=0 note=39 velocity=0 time=0@note_on channel=0 note=75 velocity=96 time=0.007291666666666667@note_on channel=0 note=51 velocity=96 time=0@note_on channel=0 note=75 velocity=0 time=0.11770833333333333@note_on channel=0 note=73 velocity=96 time=0.007291666666666667@note_on channel=0 note=51 velocity=0 time=0.11145833333333333@note_on channel=0 note=73 velocity=0 time=0.00625@note_on channel=0 note=75 velocity=96 time=0.007291666666666667@note_on channel=0 note=39 velocity=96 time=0@note_on channel=0 note=39 velocity=0 time=0.11770833333333333@note_on channel=0 note=39 velocity=96 time=0.007291666666666667@note_on channel=0 note=75 velocity=0 time=0.11145833333333333@note_on channel=0 note=39 velocity=0 time=0.00625@note_on channel=0 note=71 velocity=96 time=0.007291666666666667@note_on channel=0 note=51 velocity=96 time=0@note_on channel=0 note=71 velocity=0 time=0.06145833333333333@note_on channel=0 note=73 velocity=96 time=0.0010416666666666667@note_on channel=0 note=73 velocity=0 time=0.058333333333333334@note_on channel=0 note=71 velocity=96 time=0.004166666666666667@note_on channel=0 note=51 velocity=0 time=0.11145833333333333@note_on channel=0 note=71 velocity=0 time=0.00625@note_on channel=0 note=70 velocity=96 time=0.007291666666666667@note_on channel=0 note=44 velocity=96 time=0@note_on channel=0 note=44 velocity=0 time=0.11770833333333333@note_on channel=0 note=44 velocity=96 time=0.007291666666666667@note_on channel=0 note=70 velocity=0 time=0.11145833333333333@note_on channel=0 note=44 velocity=0 time=0.00625@note_on channel=0 note=68 velocity=96 time=0.007291666666666667@note_on channel=0 note=56 velocity=96 time=0@note_on channel=0 note=68 velocity=0 time=0.11770833333333333@note_on channel=0 note=67 velocity=96 time=0.007291666666666667@note_on channel=0 note=56 velocity=0 time=0.11145833333333333@note_on channel=0 note=67 velocity=0 time=0.00625@note_on channel=0 note=68 velocity=96 time=0.007291666666666667@note_on channel=0 note=44 velocity=96 time=0@note_on channel=0 note=44 velocity=0 time=0.11770833333333333@note_on channel=0 note=44 velocity=96 time=0.007291666666666667@note_on channel=0 note=68 velocity=0 time=0.11145833333333333@note_on channel=0 note=44 velocity=0 time=0.00625@note_on channel=0 note=63 velocity=96 time=0.007291666666666667@note_on channel=0 note=56 velocity=96 time=0@note_on channel=0 note=63 velocity=0 time=0.11770833333333333@note_on channel=0 note=64 velocity=96 time=0.007291666666666667@note_on channel=0 note=56 velocity=0 time=0.11145833333333333@note_on channel=0 note=64 velocity=0 time=0.00625@note_on channel=0 note=63 velocity=96 time=0.007291666666666667@note_on channel=0 note=39 velocity=96 time=0@note_on channel=0 note=63 velocity=0 time=0.11770833333333333@note_on channel=0 note=39 velocity=0 time=0@note_on channel=0 note=64 velocity=96 time=0.007291666666666667@note_on channel=0 note=39 velocity=96 time=0@note_on channel=0 note=64 velocity=0 time=0.11770833333333333@note_on channel=0 note=39 velocity=0 time=0@note_on channel=0 note=63 velocity=96 time=0.007291666666666667@note_on channel=0 note=51 velocity=96 time=0@note_on channel=0 note=63 velocity=0 time=0.11770833333333333@note_on channel=0 note=62 velocity=96 time=0.007291666666666667@note_on channel=0 note=51 velocity=0 time=0.11145833333333333@note_on channel=0 note=62 velocity=0 time=0.00625@note_on channel=0 note=63 velocity=96 time=0.007291666666666667@note_on channel=0 note=39 velocity=96 time=0@note_on channel=0 note=63 velocity=0 time=0.11770833333333333@note_on channel=0 note=39 velocity=0 time=0@note_on channel=0 note=67 velocity=96 time=0.007291666666666667@note_on channel=0 note=39 velocity=96 time=0@note_on channel=0 note=67 velocity=0 time=0.11770833333333333@note_on channel=0 note=39 velocity=0 time=0@note_on channel=0 note=71 velocity=96 time=0.007291666666666667@note_on channel=0 note=51 velocity=96 time=0@note_on channel=0 note=71 velocity=0 time=0.11770833333333333@note_on channel=0 note=70 velocity=96 time=0.007291666666666667@note_on channel=0 note=51 velocity=0 time=0.11145833333333333@note_on channel=0 note=70 velocity=0 time=0.00625@note_on channel=0 note=68 velocity=96 time=0.007291666666666667@note_on channel=0 note=44 velocity=96 time=0@note_on channel=0 note=44 velocity=0 time=0.11770833333333333@note_on channel=0 note=44 velocity=96 time=0.007291666666666667@note_on channel=0 note=68 velocity=0 time=0.11145833333333333@note_on channel=0 note=44 velocity=0 time=0.00625@note_on channel=0 note=68 velocity=96 time=0.007291666666666667@note_on channel=0 note=56 velocity=96 time=0@note_on channel=0 note=68 velocity=0 time=0.11770833333333333@note_on channel=0 note=70 velocity=96 time=0.007291666666666667@note_on channel=0 note=56 velocity=0 time=0.11145833333333333@note_on channel=0 note=70 velocity=0 time=0.00625@note_on channel=0 note=71 velocity=96 time=0.007291666666666667@note_on channel=0 note=44 velocity=96 time=0@note_on channel=0 note=44 velocity=0 time=0.11770833333333333@note_on channel=0 note=44 velocity=96 time=0.007291666666666667@note_on channel=0 note=71 velocity=0 time=0.11145833333333333@note_on channel=0 note=44 velocity=0 time=0.00625@note_on channel=0 note=70 velocity=96 time=0.007291666666666667@note_on channel=0 note=56 velocity=96 time=0@note_on channel=0 note=70 velocity=0 time=0.11770833333333333@note_on channel=0 note=71 velocity=96 time=0.007291666666666667@note_on channel=0 note=56 velocity=0 time=0.11145833333333333@note_on channel=0 note=71 velocity=0 time=0.00625@note_on channel=0 note=72 velocity=96 time=0.007291666666666667@note_on channel=0 note=39 velocity=96 time=0@note_on channel=0 note=72 velocity=0 time=0.06354166666666666@note_on channel=0 note=73 velocity=96 time=0.0010416666666666667@note_on channel=0 note=39 velocity=0 time=0.053125@note_on channel=0 note=39 velocity=96 time=0.007291666666666667@note_on channel=0 note=73 velocity=0 time=0.11354166666666667@note_on channel=0 note=39 velocity=0 time=0.004166666666666667@note_on channel=0 note=71 velocity=96 time=0.007291666666666667@note_on channel=0 note=51 velocity=96 time=0@note_on channel=0 note=71 velocity=0 time=0.11770833333333333@note_on channel=0 note=70 velocity=96 time=0.007291666666666667@note_on channel=0 note=51 velocity=0 time=0.11145833333333333@note_on channel=0 note=70 velocity=0 time=0.00625@note_on channel=0 note=67 velocity=96 time=0.007291666666666667@note_on channel=0 note=39 velocity=96 time=0@note_on channel=0 note=39 velocity=0 time=0.11770833333333333@note_on channel=0 note=39 velocity=96 time=0.007291666666666667@note_on channel=0 note=67 velocity=0 time=0.11145833333333333@note_on channel=0 note=39 velocity=0 time=0.00625@note_on channel=0 note=68 velocity=96 time=0.007291666666666667@note_on channel=0 note=51 velocity=96 time=0@note_on channel=0 note=68 velocity=0 time=0.11770833333333333@note_on channel=0 note=70 velocity=96 time=0.007291666666666667@note_on channel=0 note=51 velocity=0 time=0.11145833333333333@note_on channel=0 note=70 velocity=0 time=0.00625@note_on channel=0 note=71 velocity=96 time=0.007291666666666667@note_on channel=0 note=44 velocity=96 time=0@note_on channel=0 note=44 velocity=0 time=0.11770833333333333@note_on channel=0 note=44 velocity=96 time=0.007291666666666667@note_on channel=0 note=71 velocity=0 time=0.11145833333333333@note_on channel=0 note=44 velocity=0 time=0.00625@note_on channel=0 note=70 velocity=96 time=0.007291666666666667@note_on channel=0 note=56 velocity=96 time=0@note_on channel=0 note=70 velocity=0 time=0.11770833333333333@note_on channel=0 note=68 velocity=96 time=0.007291666666666667@note_on channel=0 note=56 velocity=0 time=0.11145833333333333@note_on channel=0 note=68 velocity=0 time=0.00625@note_on channel=0 note=63 velocity=96 time=0.007291666666666667@note_on channel=0 note=44 velocity=96 time=0@note_on channel=0 note=44 velocity=0 time=0.11770833333333333@note_on channel=0 note=44 velocity=96 time=0.007291666666666667@note_on channel=0 note=63 velocity=0 time=0.11145833333333333@note_on channel=0 note=44 velocity=0 time=0.00625@note_on channel=0 note=63 velocity=96 time=0.007291666666666667@note_on channel=0 note=56 velocity=96 time=0@note_on channel=0 note=63 velocity=0 time=0.11770833333333333@note_on channel=0 note=64 velocity=96 time=0.007291666666666667@note_on channel=0 note=56 velocity=0 time=0.11145833333333333@note_on channel=0 note=64 velocity=0 time=0.00625@note_on channel=0 note=63 velocity=96 time=0.007291666666666667@note_on channel=0 note=39 velocity=96 time=0@note_on channel=0 note=63 velocity=0 time=0.11770833333333333@note_on channel=0 note=39 velocity=0 time=0@note_on channel=0 note=62 velocity=96 time=0.007291666666666667@note_on channel=0 note=39 velocity=96 time=0@note_on channel=0 note=62 velocity=0 time=0.11770833333333333@note_on channel=0 note=39 velocity=0 time=0@note_on channel=0 note=63 velocity=96 time=0.007291666666666667@note_on channel=0 note=51 velocity=96 time=0@note_on channel=0 note=63 velocity=0 time=0.11770833333333333@note_on channel=0 note=64 velocity=96 time=0.007291666666666667@note_on channel=0 note=51 velocity=0 time=0.11145833333333333@note_on channel=0 note=64 velocity=0 time=0.00625@note_on channel=0 note=63 velocity=96 time=0.007291666666666667@note_on channel=0 note=39 velocity=96 time=0@note_on channel=0 note=63 velocity=0 time=0.11770833333333333@note_on channel=0 note=39 velocity=0 time=0@note_on channel=0 note=58 velocity=96 time=0.007291666666666667@note_on channel=0 note=39 velocity=96 time=0@note_on channel=0 note=58 velocity=0 time=0.11770833333333333@note_on channel=0 note=39 velocity=0 time=0@note_on channel=0 note=71 velocity=96 time=0.007291666666666667@note_on channel=0 note=51 velocity=96 time=0@note_on channel=0 note=71 velocity=0 time=0.11770833333333333@note_on channel=0 note=70 velocity=96 time=0.007291666666666667@note_on channel=0 note=51 velocity=0 time=0.11145833333333333@note_on channel=0 note=70 velocity=0 time=0.00625@note_on channel=0 note=68 velocity=96 time=0.007291666666666667@note_on channel=0 note=44 velocity=96 time=0@note_on channel=0 note=44 velocity=0 time=0.11770833333333333@note_on channel=0 note=44 velocity=96 time=0.007291666666666667@note_on channel=0 note=68 velocity=0 time=0.11145833333333333@note_on channel=0 note=44 velocity=0 time=0.00625@note_on channel=0 note=68 velocity=96 time=0.007291666666666667@note_on channel=0 note=56 velocity=96 time=0@note_on channel=0 note=68 velocity=0 time=0.11770833333333333@note_on channel=0 note=67 velocity=96 time=0.007291666666666667@note_on channel=0 note=56 velocity=0 time=0.11145833333333333@note_on channel=0 note=67 velocity=0 time=0.00625@note_on channel=0 note=68 velocity=96 time=0.007291666666666667@note_on channel=0 note=44 velocity=96 time=0@note_on channel=0 note=44 velocity=0 time=0.11770833333333333@note_on channel=0 note=44 velocity=96 time=0.007291666666666667@note_on channel=0 note=68 velocity=0 time=0.11145833333333333@note_on channel=0 note=44 velocity=0 time=0.00625@note_on channel=0 note=78 velocity=96 time=0.007291666666666667@note_on channel=0 note=56 velocity=96 time=0@note_on channel=0 note=78 velocity=0 time=0.06145833333333333@note_on channel=0 note=79 velocity=96 time=0.0010416666666666667@note_on channel=0 note=79 velocity=0 time=0.06145833333333333@note_on channel=0 note=80 velocity=96 time=0.0010416666666666667@note_on channel=0 note=56 velocity=0 time=0.11145833333333333@note_on channel=0 note=80 velocity=0 time=0.00625@note_on channel=0 note=63 velocity=96 time=0.007291666666666667@note_on channel=0 note=39 velocity=96 time=0@note_on channel=0 note=63 velocity=0 time=0.01875@note_on channel=0 note=67 velocity=96 time=0.0010416666666666667@note_on channel=0 note=67 velocity=0 time=0.01875@note_on channel=0 note=70 velocity=96 time=0.0020833333333333333@note_on channel=0 note=70 velocity=0 time=0.01875@note_on channel=0 note=76 velocity=96 time=0.003125@note_on channel=0 note=39 velocity=0 time=0.05520833333333333@note_on channel=0 note=76 velocity=0 time=0.003125@note_on channel=0 note=67 velocity=96 time=0.004166666666666667@note_on channel=0 note=39 velocity=96 time=0@note_on channel=0 note=67 velocity=0 time=0.11770833333333333@note_on channel=0 note=39 velocity=0 time=0@note_on channel=0 note=68 velocity=96 time=0.007291666666666667@note_on channel=0 note=75 velocity=96 time=0@note_on channel=0 note=51 velocity=96 time=0@note_on channel=0 note=68 velocity=0 time=0.11770833333333333@note_on channel=0 note=75 velocity=0 time=0@note_on channel=0 note=70 velocity=96 time=0.007291666666666667@note_on channel=0 note=73 velocity=96 time=0@note_on channel=0 note=51 velocity=0 time=0.11145833333333333@note_on channel=0 note=70 velocity=0 time=0.00625@note_on channel=0 note=73 velocity=0 time=0@note_on channel=0 note=67 velocity=96 time=0.007291666666666667@note_on channel=0 note=75 velocity=96 time=0@note_on channel=0 note=39 velocity=96 time=0@note_on channel=0 note=39 velocity=0 time=0.11770833333333333@note_on channel=0 note=39 velocity=96 time=0.007291666666666667@note_on channel=0 note=67 velocity=0 time=0.11145833333333333@note_on channel=0 note=75 velocity=0 time=0@note_on channel=0 note=39 velocity=0 time=0.00625@note_on channel=0 note=71 velocity=96 time=0.007291666666666667@note_on channel=0 note=51 velocity=96 time=0@note_on channel=0 note=71 velocity=0 time=0.06145833333333333@note_on channel=0 note=67 velocity=96 time=0.0010416666666666667@note_on channel=0 note=73 velocity=96 time=0@note_on channel=0 note=67 velocity=0 time=0.058333333333333334@note_on channel=0 note=73 velocity=0 time=0@note_on channel=0 note=68 velocity=96 time=0.004166666666666667@note_on channel=0 note=71 velocity=96 time=0@note_on channel=0 note=51 velocity=0 time=0.11145833333333333@note_on channel=0 note=68 velocity=0 time=0.00625@note_on channel=0 note=71 velocity=0 time=0@note_on channel=0 note=63 velocity=96 time=0.007291666666666667@note_on channel=0 note=70 velocity=96 time=0@note_on channel=0 note=44 velocity=96 time=0@note_on channel=0 note=63 velocity=0 time=0.11770833333333333@note_on channel=0 note=70 velocity=0 time=0@note_on channel=0 note=44 velocity=0 time=0@note_on channel=0 note=61 velocity=96 time=0.007291666666666667@note_on channel=0 note=44 velocity=96 time=0@note_on channel=0 note=61 velocity=0 time=0.11770833333333333@note_on channel=0 note=44 velocity=0 time=0@note_on channel=0 note=63 velocity=96 time=0.007291666666666667@note_on channel=0 note=68 velocity=96 time=0@note_on channel=0 note=56 velocity=96 time=0@note_on channel=0 note=63 velocity=0 time=0.11770833333333333@note_on channel=0 note=68 velocity=0 time=0@note_on channel=0 note=64 velocity=96 time=0.007291666666666667@note_on channel=0 note=67 velocity=96 time=0@note_on channel=0 note=56 velocity=0 time=0.11145833333333333@note_on channel=0 note=64 velocity=0 time=0.00625@note_on channel=0 note=67 velocity=0 time=0@note_on channel=0 note=63 velocity=96 time=0.007291666666666667@note_on channel=0 note=68 velocity=96 time=0@note_on channel=0 note=44 velocity=96 time=0@note_on channel=0 note=63 velocity=0 time=0.11770833333333333@note_on channel=0 note=68 velocity=0 time=0@note_on channel=0 note=44 velocity=0 time=0@note_on channel=0 note=59 velocity=96 time=0.007291666666666667@note_on channel=0 note=44 velocity=96 time=0@note_on channel=0 note=59 velocity=0 time=0.11770833333333333@note_on channel=0 note=44 velocity=0 time=0@note_on channel=0 note=63 velocity=96 time=0.007291666666666667@note_on channel=0 note=56 velocity=96 time=0@note_on channel=0 note=63 velocity=0 time=0.11770833333333333@note_on channel=0 note=64 velocity=96 time=0.007291666666666667@note_on channel=0 note=56 velocity=0 time=0.11145833333333333@note_on channel=0 note=64 velocity=0 time=0.00625@note_on channel=0 note=58 velocity=96 time=0.007291666666666667@note_on channel=0 note=63 velocity=96 time=0@note_on channel=0 note=39 velocity=96 time=0@note_on channel=0 note=58 velocity=0 time=0.11770833333333333@note_on channel=0 note=63 velocity=0 time=0@note_on channel=0 note=39 velocity=0 time=0@note_on channel=0 note=55 velocity=96 time=0.007291666666666667@note_on channel=0 note=64 velocity=96 time=0@note_on channel=0 note=39 velocity=96 time=0@note_on channel=0 note=55 velocity=0 time=0.11770833333333333@note_on channel=0 note=64 velocity=0 time=0@note_on channel=0 note=39 velocity=0 time=0@note_on channel=0 note=58 velocity=96 time=0.007291666666666667@note_on channel=0 note=63 velocity=96 time=0@note_on channel=0 note=51 velocity=96 time=0@note_on channel=0 note=58 velocity=0 time=0.11770833333333333@note_on channel=0 note=63 velocity=0 time=0@note_on channel=0 note=59 velocity=96 time=0.007291666666666667@note_on channel=0 note=62 velocity=96 time=0@note_on channel=0 note=51 velocity=0 time=0.11145833333333333@note_on channel=0 note=59 velocity=0 time=0.00625@note_on channel=0 note=62 velocity=0 time=0@note_on channel=0 note=58 velocity=96 time=0.007291666666666667@note_on channel=0 note=63 velocity=96 time=0@note_on channel=0 note=39 velocity=96 time=0@note_on channel=0 note=58 velocity=0 time=0.11770833333333333@note_on channel=0 note=63 velocity=0 time=0@note_on channel=0 note=39 velocity=0 time=0@note_on channel=0 note=55 velocity=96 time=0.007291666666666667@note_on channel=0 note=67 velocity=96 time=0@note_on channel=0 note=39 velocity=96 time=0@note_on channel=0 note=55 velocity=0 time=0.11770833333333333@note_on channel=0 note=67 velocity=0 time=0@note_on channel=0 note=39 velocity=0 time=0@note_on channel=0 note=58 velocity=96 time=0.007291666666666667@note_on channel=0 note=71 velocity=96 time=0@note_on channel=0 note=51 velocity=96 time=0@note_on channel=0 note=58 velocity=0 time=0.11770833333333333@note_on channel=0 note=71 velocity=0 time=0@note_on channel=0 note=63 velocity=96 time=0.007291666666666667@note_on channel=0 note=70 velocity=96 time=0@note_on channel=0 note=51 velocity=0 time=0.11145833333333333@note_on channel=0 note=63 velocity=0 time=0.00625@note_on channel=0 note=70 velocity=0 time=0@note_on channel=0 note=64 velocity=96 time=0.007291666666666667@note_on channel=0 note=68 velocity=96 time=0@note_on channel=0 note=44 velocity=96 time=0@note_on channel=0 note=44 velocity=0 time=0.11770833333333333@note_on channel=0 note=44 velocity=96 time=0.007291666666666667@note_on channel=0 note=64 velocity=0 time=0.11145833333333333@note_on channel=0 note=68 velocity=0 time=0@note_on channel=0 note=44 velocity=0 time=0.00625@note_on channel=0 note=63 velocity=96 time=0.007291666666666667@note_on channel=0 note=68 velocity=96 time=0@note_on channel=0 note=56 velocity=96 time=0@note_on channel=0 note=63 velocity=0 time=0.11770833333333333@note_on channel=0 note=68 velocity=0 time=0@note_on channel=0 note=62 velocity=96 time=0.007291666666666667@note_on channel=0 note=70 velocity=96 time=0@note_on channel=0 note=56 velocity=0 time=0.11145833333333333@note_on channel=0 note=62 velocity=0 time=0.00625@note_on channel=0 note=70 velocity=0 time=0@note_on channel=0 note=63 velocity=96 time=0.007291666666666667@note_on channel=0 note=71 velocity=96 time=0@note_on channel=0 note=44 velocity=96 time=0@note_on channel=0 note=44 velocity=0 time=0.11770833333333333@note_on channel=0 note=44 velocity=96 time=0.007291666666666667@note_on channel=0 note=63 velocity=0 time=0.11145833333333333@note_on channel=0 note=71 velocity=0 time=0@note_on channel=0 note=44 velocity=0 time=0.00625@note_on channel=0 note=63 velocity=96 time=0.007291666666666667@note_on channel=0 note=70 velocity=96 time=0@note_on channel=0 note=56 velocity=96 time=0@note_on channel=0 note=63 velocity=0 time=0.11770833333333333@note_on channel=0 note=70 velocity=0 time=0@note_on channel=0 note=62 velocity=96 time=0.007291666666666667@note_on channel=0 note=71 velocity=96 time=0@note_on channel=0 note=56 velocity=0 time=0.11145833333333333@note_on channel=0 note=62 velocity=0 time=0.00625@note_on channel=0 note=71 velocity=0 time=0@note_on channel=0 note=72 velocity=96 time=0.007291666666666667@note_on channel=0 note=39 velocity=96 time=0@note_on channel=0 note=72 velocity=0 time=0.06145833333333333@note_on channel=0 note=67 velocity=96 time=0.0010416666666666667@note_on channel=0 note=73 velocity=96 time=0@note_on channel=0 note=39 velocity=0 time=0.05520833333333333@note_on channel=0 note=67 velocity=0 time=0.003125@note_on channel=0 note=73 velocity=0 time=0@note_on channel=0 note=63 velocity=96 time=0.004166666666666667@note_on channel=0 note=39 velocity=96 time=0@note_on channel=0 note=63 velocity=0 time=0.11770833333333333@note_on channel=0 note=39 velocity=0 time=0@note_on channel=0 note=67 velocity=96 time=0.007291666666666667@note_on channel=0 note=72 velocity=96 time=0@note_on channel=0 note=51 velocity=96 time=0@note_on channel=0 note=67 velocity=0 time=0.11770833333333333@note_on channel=0 note=72 velocity=0 time=0@note_on channel=0 note=63 velocity=96 time=0.007291666666666667@note_on channel=0 note=70 velocity=96 time=0@note_on channel=0 note=51 velocity=0 time=0.11145833333333333@note_on channel=0 note=63 velocity=0 time=0.00625@note_on channel=0 note=70 velocity=0 time=0@note_on channel=0 note=61 velocity=96 time=0.007291666666666667@note_on channel=0 note=67 velocity=96 time=0@note_on channel=0 note=39 velocity=96 time=0@note_on channel=0 note=61 velocity=0 time=0.11770833333333333@note_on channel=0 note=67 velocity=0 time=0@note_on channel=0 note=39 velocity=0 time=0@note_on channel=0 note=55 velocity=96 time=0.007291666666666667@note_on channel=0 note=39 velocity=96 time=0@note_on channel=0 note=55 velocity=0 time=0.11770833333333333@note_on channel=0 note=39 velocity=0 time=0@note_on channel=0 note=61 velocity=96 time=0.007291666666666667@note_on channel=0 note=68 velocity=96 time=0@note_on channel=0 note=51 velocity=96 time=0@note_on channel=0 note=61 velocity=0 time=0.11770833333333333@note_on channel=0 note=68 velocity=0 time=0@note_on channel=0 note=59 velocity=96 time=0.007291666666666667@note_on channel=0 note=70 velocity=96 time=0@note_on channel=0 note=51 velocity=0 time=0.11145833333333333@note_on channel=0 note=59 velocity=0 time=0.00625@note_on channel=0 note=70 velocity=0 time=0@note_on channel=0 note=68 velocity=96 time=0.007291666666666667@note_on channel=0 note=72 velocity=96 time=0@note_on channel=0 note=44 velocity=96 time=0@note_on channel=0 note=68 velocity=0 time=0.11770833333333333@note_on channel=0 note=72 velocity=0 time=0@note_on channel=0 note=44 velocity=0 time=0@note_on channel=0 note=58 velocity=96 time=0.007291666666666667@note_on channel=0 note=44 velocity=96 time=0@note_on channel=0 note=58 velocity=0 time=0.11770833333333333@note_on channel=0 note=44 velocity=0 time=0@note_on channel=0 note=70 velocity=96 time=0.007291666666666667@note_on channel=0 note=56 velocity=96 time=0@note_on channel=0 note=70 velocity=0 time=0.11770833333333333@note_on channel=0 note=56 velocity=0 time=0@note_on channel=0 note=68 velocity=96 time=0.007291666666666667@note_on channel=0 note=51 velocity=96 time=0@note_on channel=0 note=68 velocity=0 time=0.11770833333333333@note_on channel=0 note=51 velocity=0 time=0@note_on channel=0 note=56 velocity=96 time=0.007291666666666667@note_on channel=0 note=63 velocity=96 time=0@note_on channel=0 note=44 velocity=96 time=0@note_on channel=0 note=56 velocity=0 time=0.11770833333333333@note_on channel=0 note=63 velocity=0 time=0@note_on channel=0 note=44 velocity=0 time=0@note_on channel=0 note=58 velocity=96 time=0.007291666666666667@note_on channel=0 note=44 velocity=96 time=0@note_on channel=0 note=58 velocity=0 time=0.11770833333333333@note_on channel=0 note=44 velocity=0 time=0@note_on channel=0 note=59 velocity=96 time=0.007291666666666667@note_on channel=0 note=63 velocity=96 time=0@note_on channel=0 note=56 velocity=96 time=0@note_on channel=0 note=59 velocity=0 time=0.11770833333333333@note_on channel=0 note=63 velocity=0 time=0@note_on channel=0 note=64 velocity=96 time=0.007291666666666667@note_on channel=0 note=56 velocity=0 time=0.11145833333333333@note_on channel=0 note=64 velocity=0 time=0.00625@note_on channel=0 note=55 velocity=96 time=0.007291666666666667@note_on channel=0 note=63 velocity=96 time=0@note_on channel=0 note=39 velocity=96 time=0@note_on channel=0 note=55 velocity=0 time=0.11770833333333333@note_on channel=0 note=63 velocity=0 time=0@note_on channel=0 note=39 velocity=0 time=0@note_on channel=0 note=51 velocity=96 time=0.007291666666666667@note_on channel=0 note=62 velocity=96 time=0@note_on channel=0 note=39 velocity=96 time=0@note_on channel=0 note=51 velocity=0 time=0.11770833333333333@note_on channel=0 note=62 velocity=0 time=0@note_on channel=0 note=39 velocity=0 time=0@note_on channel=0 note=55 velocity=96 time=0.007291666666666667@note_on channel=0 note=63 velocity=96 time=0@note_on channel=0 note=51 velocity=96 time=0@note_on channel=0 note=55 velocity=0 time=0.11770833333333333@note_on channel=0 note=63 velocity=0 time=0@note_on channel=0 note=56 velocity=96 time=0.007291666666666667@note_on channel=0 note=64 velocity=96 time=0@note_on channel=0 note=51 velocity=0 time=0.11145833333333333@note_on channel=0 note=56 velocity=0 time=0.00625@note_on channel=0 note=64 velocity=0 time=0@note_on channel=0 note=55 velocity=96 time=0.007291666666666667@note_on channel=0 note=63 velocity=96 time=0@note_on channel=0 note=39 velocity=96 time=0@note_on channel=0 note=55 velocity=0 time=0.11770833333333333@note_on channel=0 note=63 velocity=0 time=0@note_on channel=0 note=39 velocity=0 time=0@note_on channel=0 note=51 velocity=96 time=0.007291666666666667@note_on channel=0 note=59 velocity=96 time=0@note_on channel=0 note=39 velocity=96 time=0@note_on channel=0 note=51 velocity=0 time=0.11770833333333333@note_on channel=0 note=59 velocity=0 time=0@note_on channel=0 note=39 velocity=0 time=0@note_on channel=0 note=68 velocity=96 time=0.007291666666666667@note_on channel=0 note=71 velocity=96 time=0@note_on channel=0 note=51 velocity=96 time=0@note_on channel=0 note=68 velocity=0 time=0.11770833333333333@note_on channel=0 note=71 velocity=0 time=0@note_on channel=0 note=63 velocity=96 time=0.007291666666666667@note_on channel=0 note=70 velocity=96 time=0@note_on channel=0 note=51 velocity=0 time=0.11145833333333333@note_on channel=0 note=63 velocity=0 time=0.00625@note_on channel=0 note=70 velocity=0 time=0@note_on channel=0 note=56 velocity=96 time=0.007291666666666667@note_on channel=0 note=68 velocity=96 time=0@note_on channel=0 note=44 velocity=96 time=0@note_on channel=0 note=44 velocity=0 time=0.11770833333333333@note_on channel=0 note=44 velocity=96 time=0.007291666666666667@note_on channel=0 note=56 velocity=0 time=0.11145833333333333@note_on channel=0 note=68 velocity=0 time=0@note_on channel=0 note=44 velocity=0 time=0.00625@note_on channel=0 note=68 velocity=96 time=0.007291666666666667@note_on channel=0 note=56 velocity=96 time=0@note_on channel=0 note=68 velocity=0 time=0.11770833333333333@note_on channel=0 note=67 velocity=96 time=0.007291666666666667@note_on channel=0 note=56 velocity=0 time=0.11145833333333333@note_on channel=0 note=67 velocity=0 time=0.00625@note_on channel=0 note=56 velocity=96 time=0.007291666666666667@note_on channel=0 note=68 velocity=96 time=0@note_on channel=0 note=44 velocity=96 time=0@note_on channel=0 note=44 velocity=0 time=0.11770833333333333@note_on channel=0 note=44 velocity=96 time=0.007291666666666667@note_on channel=0 note=56 velocity=0 time=0.11145833333333333@note_on channel=0 note=68 velocity=0 time=0@note_on channel=0 note=44 velocity=0 time=0.00625@note_on channel=0 note=78 velocity=96 time=0.007291666666666667@note_on channel=0 note=56 velocity=96 time=0@note_on channel=0 note=78 velocity=0 time=0.06145833333333333@note_on channel=0 note=79 velocity=96 time=0.0010416666666666667@note_on channel=0 note=79 velocity=0 time=0.06145833333333333@note_on channel=0 note=80 velocity=96 time=0.0010416666666666667@note_on channel=0 note=56 velocity=0 time=0.11145833333333333@note_on channel=0 note=80 velocity=0 time=0.00625@note_on channel=0 note=27 velocity=96 time=0.007291666666666667@note_on channel=0 note=39 velocity=96 time=0@note_on channel=0 note=27 velocity=0 time=0.11770833333333333@note_on channel=0 note=39 velocity=0 time=0@note_on channel=0 note=39 velocity=96 time=0.007291666666666667@note_on channel=0 note=39 velocity=0 time=0.11770833333333333@note_on channel=0 note=51 velocity=96 time=0.007291666666666667@note_on channel=0 note=51 velocity=0 time=0.11770833333333333@note_on channel=0 note=51 velocity=96 time=0.007291666666666667@note_on channel=0 note=51 velocity=0 time=0.11770833333333333@note_on channel=0 note=63 velocity=96 time=0.007291666666666667@note_on channel=0 note=39 velocity=96 time=0@note_on channel=0 note=39 velocity=0 time=0.11770833333333333@note_on channel=0 note=39 velocity=96 time=0.007291666666666667@note_on channel=0 note=63 velocity=0 time=0.11145833333333333@note_on channel=0 note=39 velocity=0 time=0.00625@note_on channel=0 note=51 velocity=96 time=0.007291666666666667@note_on channel=0 note=51 velocity=0 time=0.11770833333333333@note_on channel=0 note=51 velocity=96 time=0.007291666666666667@note_on channel=0 note=51 velocity=0 time=0.11770833333333333@note_on channel=0 note=32 velocity=96 time=0.007291666666666667@note_on channel=0 note=44 velocity=96 time=0@note_on channel=0 note=32 velocity=0 time=0.11770833333333333@note_on channel=0 note=44 velocity=0 time=0@note_on channel=0 note=44 velocity=96 time=0.007291666666666667@note_on channel=0 note=44 velocity=0 time=0.11770833333333333@note_on channel=0 note=56 velocity=96 time=0.007291666666666667@note_on channel=0 note=56 velocity=0 time=0.11770833333333333@note_on channel=0 note=56 velocity=96 time=0.007291666666666667@note_on channel=0 note=56 velocity=0 time=0.11770833333333333@note_on channel=0 note=63 velocity=96 time=0.007291666666666667@note_on channel=0 note=44 velocity=96 time=0@note_on channel=0 note=44 velocity=0 time=0.11770833333333333@note_on channel=0 note=44 velocity=96 time=0.007291666666666667@note_on channel=0 note=63 velocity=0 time=0.11145833333333333@note_on channel=0 note=44 velocity=0 time=0.00625@note_on channel=0 note=56 velocity=96 time=0.007291666666666667@note_on channel=0 note=56 velocity=0 time=0.11770833333333333@note_on channel=0 note=56 velocity=96 time=0.007291666666666667@note_on channel=0 note=56 velocity=0 time=0.11770833333333333@note_on channel=0 note=27 velocity=96 time=0.007291666666666667@note_on channel=0 note=39 velocity=96 time=0@note_on channel=0 note=27 velocity=0 time=0.11770833333333333@note_on channel=0 note=39 velocity=0 time=0@note_on channel=0 note=39 velocity=96 time=0.007291666666666667@note_on channel=0 note=39 velocity=0 time=0.11770833333333333@note_on channel=0 note=51 velocity=96 time=0.007291666666666667@note_on channel=0 note=51 velocity=0 time=0.11770833333333333@note_on channel=0 note=51 velocity=96 time=0.007291666666666667@note_on channel=0 note=51 velocity=0 time=0.11770833333333333@note_on channel=0 note=63 velocity=96 time=0.007291666666666667@note_on channel=0 note=39 velocity=96 time=0@note_on channel=0 note=39 velocity=0 time=0.11770833333333333@note_on channel=0 note=39 velocity=96 time=0.007291666666666667@note_on channel=0 note=63 velocity=0 time=0.11145833333333333@note_on channel=0 note=39 velocity=0 time=0.00625@note_on channel=0 note=51 velocity=96 time=0.007291666666666667@note_on channel=0 note=51 velocity=0 time=0.11770833333333333@note_on channel=0 note=51 velocity=96 time=0.007291666666666667@note_on channel=0 note=51 velocity=0 time=0.11770833333333333@note_on channel=0 note=32 velocity=96 time=0.007291666666666667@note_on channel=0 note=44 velocity=96 time=0@note_on channel=0 note=32 velocity=0 time=0.11770833333333333@note_on channel=0 note=44 velocity=0 time=0@note_on channel=0 note=44 velocity=96 time=0.007291666666666667@note_on channel=0 note=44 velocity=0 time=0.11770833333333333@note_on channel=0 note=56 velocity=96 time=0.007291666666666667@note_on channel=0 note=56 velocity=0 time=0.11770833333333333@note_on channel=0 note=56 velocity=96 time=0.007291666666666667@note_on channel=0 note=56 velocity=0 time=0.11770833333333333@note_on channel=0 note=63 velocity=96 time=0.007291666666666667@note_on channel=0 note=44 velocity=96 time=0@note_on channel=0 note=44 velocity=0 time=0.11770833333333333@note_on channel=0 note=44 velocity=96 time=0.007291666666666667@note_on channel=0 note=63 velocity=0 time=0.11145833333333333@note_on channel=0 note=44 velocity=0 time=0.00625@note_on channel=0 note=56 velocity=96 time=0.007291666666666667@note_on channel=0 note=56 velocity=0 time=0.11770833333333333@note_on channel=0 note=56 velocity=96 time=0.007291666666666667@note_on channel=0 note=56 velocity=0 time=0.11770833333333333@note_on channel=0 note=27 velocity=96 time=0.007291666666666667@note_on channel=0 note=39 velocity=96 time=0@note_on channel=0 note=27 velocity=0 time=0.11770833333333333@note_on channel=0 note=39 velocity=0 time=0@note_on channel=0 note=39 velocity=96 time=0.007291666666666667@note_on channel=0 note=39 velocity=0 time=0.11770833333333333@note_on channel=0 note=51 velocity=96 time=0.007291666666666667@note_on channel=0 note=51 velocity=0 time=0.11770833333333333@note_on channel=0 note=51 velocity=96 time=0.007291666666666667@note_on channel=0 note=51 velocity=0 time=0.11770833333333333@note_on channel=0 note=63 velocity=96 time=0.007291666666666667@note_on channel=0 note=39 velocity=96 time=0@note_on channel=0 note=39 velocity=0 time=0.11770833333333333@note_on channel=0 note=39 velocity=96 time=0.007291666666666667@note_on channel=0 note=63 velocity=0 time=0.11145833333333333@note_on channel=0 note=39 velocity=0 time=0.00625@note_on channel=0 note=51 velocity=96 time=0.007291666666666667@note_on channel=0 note=51 velocity=0 time=0.11770833333333333@note_on channel=0 note=51 velocity=96 time=0.007291666666666667@note_on channel=0 note=51 velocity=0 time=0.11770833333333333@note_on channel=0 note=32 velocity=96 time=0.007291666666666667@note_on channel=0 note=44 velocity=96 time=0@note_on channel=0 note=32 velocity=0 time=0.11770833333333333@note_on channel=0 note=44 velocity=0 time=0@note_on channel=0 note=44 velocity=96 time=0.007291666666666667@note_on channel=0 note=44 velocity=0 time=0.11770833333333333@note_on channel=0 note=56 velocity=96 time=0.007291666666666667@note_on channel=0 note=56 velocity=0 time=0.11770833333333333@note_on channel=0 note=56 velocity=96 time=0.007291666666666667@note_on channel=0 note=56 velocity=0 time=0.11770833333333333@note_on channel=0 note=63 velocity=96 time=0.007291666666666667@note_on channel=0 note=44 velocity=96 time=0@note_on channel=0 note=44 velocity=0 time=0.11770833333333333@note_on channel=0 note=44 velocity=96 time=0.007291666666666667@note_on channel=0 note=63 velocity=0 time=0.11145833333333333@note_on channel=0 note=44 velocity=0 time=0.00625@note_on channel=0 note=56 velocity=96 time=0.007291666666666667@note_on channel=0 note=56 velocity=0 time=0.11770833333333333@note_on channel=0 note=56 velocity=96 time=0.007291666666666667@note_on channel=0 note=56 velocity=0 time=0.11770833333333333@note_on channel=0 note=27 velocity=96 time=0.007291666666666667@note_on channel=0 note=39 velocity=96 time=0@note_on channel=0 note=27 velocity=0 time=0.11770833333333333@note_on channel=0 note=39 velocity=0 time=0@note_on channel=0 note=39 velocity=96 time=0.007291666666666667@note_on channel=0 note=39 velocity=0 time=0.11770833333333333@note_on channel=0 note=51 velocity=96 time=0.007291666666666667@note_on channel=0 note=51 velocity=0 time=0.11770833333333333@note_on channel=0 note=51 velocity=96 time=0.007291666666666667@note_on channel=0 note=51 velocity=0 time=0.11770833333333333@note_on channel=0 note=63 velocity=96 time=0.007291666666666667@note_on channel=0 note=39 velocity=96 time=0@note_on channel=0 note=39 velocity=0 time=0.11770833333333333@note_on channel=0 note=39 velocity=96 time=0.007291666666666667@note_on channel=0 note=63 velocity=0 time=0.11145833333333333@note_on channel=0 note=39 velocity=0 time=0.00625@note_on channel=0 note=51 velocity=96 time=0.007291666666666667@note_on channel=0 note=51 velocity=0 time=0.11770833333333333@note_on channel=0 note=51 velocity=96 time=0.007291666666666667@note_on channel=0 note=51 velocity=0 time=0.11770833333333333@note_on channel=0 note=32 velocity=96 time=0.007291666666666667@note_on channel=0 note=44 velocity=96 time=0@note_on channel=0 note=32 velocity=0 time=0.11770833333333333@note_on channel=0 note=44 velocity=0 time=0@note_on channel=0 note=44 velocity=96 time=0.007291666666666667@note_on channel=0 note=44 velocity=0 time=0.11770833333333333@note_on channel=0 note=56 velocity=96 time=0.007291666666666667@note_on channel=0 note=56 velocity=0 time=0.11770833333333333@note_on channel=0 note=56 velocity=96 time=0.007291666666666667@note_on channel=0 note=56 velocity=0 time=0.11770833333333333@note_on channel=0 note=68 velocity=126 time=0.007291666666666667@note_on channel=0 note=44 velocity=126 time=0@note_on channel=0 note=44 velocity=0 time=0.12395833333333334@note_on channel=0 note=68 velocity=0 time=0.1125@note_on channel=0 note=56 velocity=126 time=0.013541666666666667@note_on channel=0 note=56 velocity=0 time=0.12395833333333334@<meta message end_of_track time=0.0010416666666666667>@