<meta message time_signature numerator=4 denominator=4 clocks_per_click=24 notated_32nd_notes_per_beat=8 time=0>@sysex data=(0,17,0,127,0,101,0,0,56,108,109,104,126,0,60,0,0,16,0,72,0,18,0,0,0,2,40) time=0@<meta message set_tempo tempo=333333 time=0>@<meta message track_name name='Guitar' time=0>@control_change channel=0 control=0 value=0 time=0@control_change channel=0 control=32 value=0 time=0@program_change channel=0 program=26 time=0@control_change channel=0 control=7 value=107 time=0@<meta message track_name name='Trombone' time=0>@control_change channel=1 control=0 value=0 time=0@control_change channel=1 control=32 value=0 time=0@program_change channel=1 program=57 time=0@control_change channel=1 control=7 value=127 time=0@<meta message track_name name='Drums' time=0>@control_change channel=9 control=0 value=0 time=0@control_change channel=9 control=32 value=0 time=0@program_change channel=9 program=25 time=0@control_change channel=9 control=7 value=127 time=0@note_on channel=9 note=35 velocity=80 time=0@<meta message track_name name='Organ' time=0>@control_change channel=2 control=0 value=0 time=0@control_change channel=2 control=32 value=0 time=0@program_change channel=2 program=17 time=0@control_change channel=2 control=7 value=91 time=0@note_on channel=2 note=84 velocity=80 time=0@<meta message track_name name='Bass' time=0>@control_change channel=3 control=0 value=0 time=0@control_change channel=3 control=32 value=0 time=0@program_change channel=3 program=34 time=0@control_change channel=3 control=7 value=127 time=0@note_on channel=3 note=36 velocity=50 time=0@note_on channel=9 note=35 velocity=0 time=0.0208333125@note_on channel=2 note=84 velocity=0 time=0.041666625@note_on channel=3 note=36 velocity=0 time=0.1041665625@note_on channel=9 note=40 velocity=80 time=0.1666665@note_on channel=2 note=96 velocity=80 time=0@note_on channel=3 note=48 velocity=50 time=0@note_on channel=9 note=40 velocity=0 time=0.0208333125@note_on channel=2 note=96 velocity=0 time=0.062499937500000005@note_on channel=9 note=35 velocity=80 time=0.08333325@note_on channel=2 note=84 velocity=80 time=0@note_on channel=3 note=48 velocity=0 time=0@note_on channel=3 note=36 velocity=50 time=0@note_on channel=9 note=35 velocity=0 time=0.0208333125@note_on channel=2 note=84 velocity=0 time=0.062499937500000005@note_on channel=3 note=36 velocity=0 time=0.041666625@note_on channel=3 note=36 velocity=50 time=0.1666665@note_on channel=9 note=35 velocity=80 time=0.041666625@note_on channel=2 note=84 velocity=80 time=0@note_on channel=9 note=35 velocity=0 time=0.0208333125@note_on channel=2 note=84 velocity=0 time=0.062499937500000005@note_on channel=3 note=36 velocity=0 time=0@note_on channel=9 note=40 velocity=80 time=0.08333325@note_on channel=2 note=96 velocity=80 time=0@note_on channel=3 note=48 velocity=50 time=0@note_on channel=9 note=40 velocity=0 time=0.0208333125@note_on channel=2 note=96 velocity=0 time=0.062499937500000005@note_on channel=3 note=48 velocity=0 time=0.08333325@note_on channel=9 note=35 velocity=80 time=0.1666665@note_on channel=2 note=84 velocity=80 time=0@note_on channel=3 note=36 velocity=50 time=0@note_on channel=9 note=35 velocity=0 time=0.0208333125@note_on channel=2 note=84 velocity=0 time=0.08333325@note_on channel=3 note=36 velocity=0 time=0.062499937500000005@note_on channel=9 note=40 velocity=80 time=0.1666665@note_on channel=2 note=96 velocity=80 time=0@note_on channel=3 note=48 velocity=50 time=0@note_on channel=9 note=40 velocity=0 time=0.0208333125@note_on channel=2 note=96 velocity=0 time=0.08333325@note_on channel=3 note=48 velocity=0 time=0.062499937500000005@note_on channel=9 note=35 velocity=80 time=0.1666665@note_on channel=2 note=84 velocity=80 time=0@note_on channel=3 note=36 velocity=50 time=0@note_on channel=9 note=35 velocity=0 time=0.0208333125@note_on channel=3 note=36 velocity=0 time=0.0208333125@note_on channel=2 note=84 velocity=0 time=0.041666625@note_on channel=9 note=35 velocity=80 time=0.08333325@note_on channel=2 note=84 velocity=80 time=0@note_on channel=3 note=36 velocity=50 time=0@note_on channel=9 note=35 velocity=0 time=0.0208333125@note_on channel=3 note=36 velocity=0 time=0.0208333125@note_on channel=2 note=84 velocity=0 time=0.041666625@note_on channel=9 note=40 velocity=80 time=0.08333325@note_on channel=2 note=96 velocity=80 time=0@note_on channel=3 note=48 velocity=50 time=0@note_on channel=9 note=40 velocity=0 time=0.0208333125@note_on channel=3 note=48 velocity=0 time=0.062499937500000005@note_on channel=2 note=96 velocity=0 time=0.0208333125@note_on channel=2 note=94 velocity=80 time=0.062499937500000005@note_on channel=3 note=46 velocity=50 time=0@note_on channel=2 note=94 velocity=0 time=0.08333325@note_on channel=3 note=46 velocity=0 time=0@note_on channel=9 note=35 velocity=80 time=0.08333325@note_on channel=2 note=84 velocity=80 time=0@note_on channel=3 note=36 velocity=50 time=0@note_on channel=9 note=35 velocity=0 time=0.0208333125@note_on channel=2 note=84 velocity=0 time=0.14583318750000002@note_on channel=3 note=36 velocity=0 time=0@note_on channel=9 note=40 velocity=80 time=0.1666665@note_on channel=2 note=96 velocity=80 time=0@note_on channel=3 note=48 velocity=50 time=0@note_on channel=9 note=40 velocity=0 time=0.0208333125@note_on channel=2 note=96 velocity=0 time=0.062499937500000005@note_on channel=9 note=35 velocity=80 time=0.08333325@note_on channel=2 note=84 velocity=80 time=0@note_on channel=3 note=48 velocity=0 time=0@note_on channel=3 note=36 velocity=50 time=0@note_on channel=9 note=35 velocity=0 time=0.0208333125@note_on channel=2 note=84 velocity=0 time=0.08333325@note_on channel=9 note=40 velocity=80 time=0.062499937500000005@note_on channel=2 note=96 velocity=80 time=0@note_on channel=3 note=36 velocity=0 time=0@note_on channel=3 note=48 velocity=50 time=0@note_on channel=9 note=40 velocity=0 time=0.0208333125@note_on channel=2 note=96 velocity=0 time=0.062499937500000005@note_on channel=9 note=35 velocity=80 time=0.08333325@note_on channel=2 note=84 velocity=80 time=0@note_on channel=3 note=48 velocity=0 time=0@note_on channel=3 note=36 velocity=50 time=0@note_on channel=9 note=35 velocity=0 time=0.0208333125@note_on channel=2 note=84 velocity=0 time=0.08333325@note_on channel=9 note=40 velocity=80 time=0.062499937500000005@note_on channel=2 note=96 velocity=80 time=0@note_on channel=3 note=36 velocity=0 time=0@note_on channel=3 note=48 velocity=50 time=0@note_on channel=9 note=40 velocity=0 time=0.0208333125@note_on channel=2 note=96 velocity=0 time=0.062499937500000005@note_on channel=9 note=35 velocity=80 time=0.08333325@note_on channel=2 note=84 velocity=80 time=0@note_on channel=3 note=48 velocity=0 time=0@note_on channel=3 note=46 velocity=50 time=0@note_on channel=9 note=35 velocity=0 time=0.0208333125@note_on channel=2 note=84 velocity=0 time=0.062499937500000005@note_on channel=1 note=65 velocity=80 time=0.08333325@note_on channel=1 note=77 velocity=80 time=0@note_on channel=9 note=35 velocity=80 time=0@note_on channel=9 note=57 velocity=80 time=0@note_on channel=3 note=46 velocity=0 time=0@note_on channel=3 note=41 velocity=50 time=0@note_on channel=9 note=35 velocity=0 time=0.0208333125@note_on channel=9 note=57 velocity=0 time=0@note_on channel=9 note=40 velocity=80 time=0.14583318750000002@note_on channel=9 note=40 velocity=0 time=0.0208333125@note_on channel=9 note=40 velocity=80 time=0.041666625@note_on channel=9 note=40 velocity=0 time=0.0208333125@note_on channel=9 note=40 velocity=80 time=0.062499937500000005@note_on channel=1 note=65 velocity=0 time=0.0208333125@note_on channel=1 note=77 velocity=0 time=0@note_on channel=9 note=40 velocity=0 time=0@note_on channel=3 note=41 velocity=0 time=0@note_on channel=9 note=40 velocity=80 time=0.1666665@note_on channel=9 note=40 velocity=0 time=0.0208333125@note_on channel=1 note=65 velocity=80 time=0.14583318750000002@note_on channel=1 note=77 velocity=80 time=0@note_on channel=9 note=35 velocity=80 time=0@note_on channel=9 note=57 velocity=80 time=0@note_on channel=3 note=41 velocity=50 time=0@note_on channel=9 note=35 velocity=0 time=0.0208333125@note_on channel=9 note=57 velocity=0 time=0@note_on channel=9 note=40 velocity=80 time=0.14583318750000002@note_on channel=9 note=40 velocity=0 time=0.0208333125@note_on channel=1 note=77 velocity=0 time=0.041666625@note_on channel=9 note=40 velocity=80 time=0@note_on channel=1 note=65 velocity=0 time=0.0208333125@note_on channel=9 note=40 velocity=0 time=0@note_on channel=3 note=41 velocity=0 time=0@note_on channel=9 note=40 velocity=80 time=0.062499937500000005@note_on channel=1 note=63 velocity=80 time=0.0208333125@note_on channel=1 note=75 velocity=80 time=0@note_on channel=9 note=40 velocity=0 time=0@note_on channel=3 note=39 velocity=50 time=0@note_on channel=9 note=40 velocity=80 time=0.1666665@note_on channel=9 note=40 velocity=0 time=0.0208333125@note_on channel=3 note=39 velocity=0 time=0.062499937500000005@note_on channel=1 note=63 velocity=0 time=0.0208333125@note_on channel=1 note=75 velocity=0 time=0@note_on channel=1 note=60 velocity=80 time=0.062499937500000005@note_on channel=9 note=35 velocity=80 time=0@note_on channel=3 note=36 velocity=50 time=0@note_on channel=9 note=35 velocity=0 time=0.0208333125@note_on channel=0 note=72 velocity=80 time=0.14583318750000002@note_on channel=0 note=76 velocity=80 time=0@note_on channel=1 note=60 velocity=0 time=0@note_on channel=0 note=72 velocity=0 time=0.0208333125@note_on channel=0 note=76 velocity=0 time=0@note_on channel=1 note=60 velocity=80 time=0.14583318750000002@note_on channel=9 note=35 velocity=80 time=0@note_on channel=9 note=40 velocity=80 time=0@note_on channel=3 note=36 velocity=0 time=0@note_on channel=3 note=40 velocity=50 time=0@note_on channel=9 note=35 velocity=0 time=0.0208333125@note_on channel=9 note=40 velocity=0 time=0@note_on channel=1 note=60 velocity=0 time=0.08333325@note_on channel=0 note=72 velocity=80 time=0.062499937500000005@note_on channel=0 note=76 velocity=80 time=0@note_on channel=1 note=59 velocity=80 time=0@note_on channel=0 note=72 velocity=0 time=0.0208333125@note_on channel=0 note=76 velocity=0 time=0@note_on channel=1 note=59 velocity=0 time=0.08333325@note_on channel=1 note=60 velocity=80 time=0.062499937500000005@note_on channel=9 note=35 velocity=80 time=0@note_on channel=3 note=40 velocity=0 time=0@note_on channel=3 note=43 velocity=50 time=0@note_on channel=9 note=35 velocity=0 time=0.0208333125@note_on channel=1 note=60 velocity=0 time=0.062499937500000005@note_on channel=0 note=72 velocity=80 time=0.08333325@note_on channel=0 note=76 velocity=80 time=0@note_on channel=1 note=60 velocity=80 time=0@note_on channel=0 note=72 velocity=0 time=0.0208333125@note_on channel=0 note=76 velocity=0 time=0@note_on channel=1 note=60 velocity=0 time=0.062499937500000005@note_on channel=1 note=62 velocity=80 time=0.08333325@note_on channel=9 note=35 velocity=80 time=0@note_on channel=9 note=40 velocity=80 time=0@note_on channel=3 note=43 velocity=0 time=0@note_on channel=3 note=40 velocity=50 time=0@note_on channel=9 note=35 velocity=0 time=0.0208333125@note_on channel=9 note=40 velocity=0 time=0@note_on channel=1 note=62 velocity=0 time=0.062499937500000005@note_on channel=0 note=72 velocity=80 time=0.08333325@note_on channel=0 note=76 velocity=80 time=0@note_on channel=1 note=64 velocity=80 time=0@note_on channel=3 note=40 velocity=0 time=0@note_on channel=3 note=43 velocity=50 time=0@note_on channel=0 note=72 velocity=0 time=0.0208333125@note_on channel=0 note=76 velocity=0 time=0@note_on channel=9 note=35 velocity=80 time=0.14583318750000002@note_on channel=3 note=43 velocity=0 time=0@note_on channel=3 note=36 velocity=50 time=0@note_on channel=9 note=35 velocity=0 time=0.0208333125@note_on channel=1 note=64 velocity=0 time=0.062499937500000005@note_on channel=0 note=72 velocity=80 time=0.08333325@note_on channel=0 note=76 velocity=80 time=0@note_on channel=0 note=72 velocity=0 time=0.0208333125@note_on channel=0 note=76 velocity=0 time=0@note_on channel=1 note=62 velocity=80 time=0.14583318750000002@note_on channel=9 note=35 velocity=80 time=0@note_on channel=9 note=40 velocity=80 time=0@note_on channel=3 note=36 velocity=0 time=0@note_on channel=3 note=40 velocity=50 time=0@note_on channel=9 note=35 velocity=0 time=0.0208333125@note_on channel=9 note=40 velocity=0 time=0@note_on channel=1 note=62 velocity=0 time=0.08333325@note_on channel=0 note=72 velocity=80 time=0.062499937500000005@note_on channel=0 note=76 velocity=80 time=0@note_on channel=0 note=72 velocity=0 time=0.0208333125@note_on channel=0 note=76 velocity=0 time=0@note_on channel=1 note=60 velocity=80 time=0.14583318750000002@note_on channel=9 note=35 velocity=80 time=0@note_on channel=3 note=40 velocity=0 time=0@note_on channel=3 note=43 velocity=50 time=0@note_on channel=9 note=35 velocity=0 time=0.0208333125@note_on channel=1 note=60 velocity=0 time=0.08333325@note_on channel=0 note=72 velocity=80 time=0.062499937500000005@note_on channel=0 note=76 velocity=80 time=0@note_on channel=0 note=72 velocity=0 time=0.0208333125@note_on channel=0 note=76 velocity=0 time=0@note_on channel=1 note=59 velocity=80 time=0.14583318750000002@note_on channel=9 note=35 velocity=80 time=0@note_on channel=9 note=40 velocity=80 time=0@note_on channel=3 note=43 velocity=0 time=0@note_on channel=3 note=40 velocity=50 time=0@note_on channel=9 note=35 velocity=0 time=0.0208333125@note_on channel=9 note=40 velocity=0 time=0@note_on channel=1 note=59 velocity=0 time=0.08333325@note_on channel=0 note=72 velocity=80 time=0.062499937500000005@note_on channel=0 note=76 velocity=80 time=0@note_on channel=3 note=40 velocity=0 time=0@note_on channel=3 note=43 velocity=50 time=0@note_on channel=0 note=72 velocity=0 time=0.0208333125@note_on channel=0 note=76 velocity=0 time=0@note_on channel=1 note=57 velocity=80 time=0.14583318750000002@note_on channel=9 note=35 velocity=80 time=0@note_on channel=3 note=43 velocity=0 time=0@note_on channel=3 note=33 velocity=50 time=0@note_on channel=9 note=35 velocity=0 time=0.0208333125@note_on channel=0 note=69 velocity=80 time=0.14583318750000002@note_on channel=0 note=72 velocity=80 time=0@note_on channel=1 note=57 velocity=0 time=0@note_on channel=0 note=69 velocity=0 time=0.0208333125@note_on channel=0 note=72 velocity=0 time=0@note_on channel=1 note=57 velocity=80 time=0.14583318750000002@note_on channel=9 note=35 velocity=80 time=0@note_on channel=9 note=40 velocity=80 time=0@note_on channel=3 note=33 velocity=0 time=0@note_on channel=3 note=36 velocity=50 time=0@note_on channel=9 note=35 velocity=0 time=0.0208333125@note_on channel=9 note=40 velocity=0 time=0@note_on channel=1 note=57 velocity=0 time=0.062499937500000005@note_on channel=0 note=69 velocity=80 time=0.08333325@note_on channel=0 note=72 velocity=80 time=0@note_on channel=1 note=55 velocity=80 time=0@note_on channel=0 note=69 velocity=0 time=0.0208333125@note_on channel=0 note=72 velocity=0 time=0@note_on channel=1 note=55 velocity=0 time=0.08333325@note_on channel=1 note=57 velocity=80 time=0.062499937500000005@note_on channel=9 note=35 velocity=80 time=0@note_on channel=3 note=36 velocity=0 time=0@note_on channel=3 note=40 velocity=50 time=0@note_on channel=9 note=35 velocity=0 time=0.0208333125@note_on channel=1 note=57 velocity=0 time=0.08333325@note_on channel=0 note=69 velocity=80 time=0.062499937500000005@note_on channel=0 note=72 velocity=80 time=0@note_on channel=1 note=57 velocity=80 time=0@note_on channel=0 note=69 velocity=0 time=0.0208333125@note_on channel=0 note=72 velocity=0 time=0@note_on channel=1 note=57 velocity=0 time=0.08333325@note_on channel=1 note=60 velocity=80 time=0.062499937500000005@note_on channel=9 note=35 velocity=80 time=0@note_on channel=9 note=40 velocity=80 time=0@note_on channel=3 note=40 velocity=0 time=0@note_on channel=3 note=36 velocity=50 time=0@note_on channel=9 note=35 velocity=0 time=0.0208333125@note_on channel=9 note=40 velocity=0 time=0@note_on channel=1 note=60 velocity=0 time=0.08333325@note_on channel=0 note=69 velocity=80 time=0.062499937500000005@note_on channel=0 note=72 velocity=80 time=0@note_on channel=1 note=57 velocity=80 time=0@note_on channel=3 note=36 velocity=0 time=0@note_on channel=3 note=40 velocity=50 time=0@note_on channel=0 note=69 velocity=0 time=0.0208333125@note_on channel=0 note=72 velocity=0 time=0@note_on channel=9 note=35 velocity=80 time=0.14583318750000002@note_on channel=3 note=40 velocity=0 time=0@note_on channel=3 note=33 velocity=50 time=0@note_on channel=9 note=35 velocity=0 time=0.0208333125@note_on channel=0 note=69 velocity=80 time=0.14583318750000002@note_on channel=0 note=72 velocity=80 time=0@note_on channel=0 note=69 velocity=0 time=0.0208333125@note_on channel=0 note=72 velocity=0 time=0@note_on channel=1 note=57 velocity=0 time=0.14583318750000002@note_on channel=9 note=35 velocity=80 time=0@note_on channel=9 note=40 velocity=80 time=0@note_on channel=3 note=33 velocity=0 time=0@note_on channel=3 note=36 velocity=50 time=0@note_on channel=9 note=35 velocity=0 time=0.0208333125@note_on channel=9 note=40 velocity=0 time=0@note_on channel=0 note=69 velocity=80 time=0.14583318750000002@note_on channel=0 note=72 velocity=80 time=0@note_on channel=0 note=69 velocity=0 time=0.0208333125@note_on channel=0 note=72 velocity=0 time=0@note_on channel=9 note=35 velocity=80 time=0.14583318750000002@note_on channel=3 note=36 velocity=0 time=0@note_on channel=3 note=40 velocity=50 time=0@note_on channel=9 note=35 velocity=0 time=0.0208333125@note_on channel=0 note=69 velocity=80 time=0.14583318750000002@note_on channel=0 note=72 velocity=80 time=0@note_on channel=0 note=69 velocity=0 time=0.0208333125@note_on channel=0 note=72 velocity=0 time=0@note_on channel=9 note=35 velocity=80 time=0.14583318750000002@note_on channel=9 note=40 velocity=80 time=0@note_on channel=3 note=40 velocity=0 time=0@note_on channel=3 note=36 velocity=50 time=0@note_on channel=9 note=35 velocity=0 time=0.0208333125@note_on channel=9 note=40 velocity=0 time=0@note_on channel=0 note=69 velocity=80 time=0.14583318750000002@note_on channel=0 note=72 velocity=80 time=0@note_on channel=3 note=36 velocity=0 time=0@note_on channel=3 note=40 velocity=50 time=0@note_on channel=0 note=69 velocity=0 time=0.0208333125@note_on channel=0 note=72 velocity=0 time=0@note_on channel=1 note=60 velocity=80 time=0.14583318750000002@note_on channel=9 note=35 velocity=80 time=0@note_on channel=3 note=40 velocity=0 time=0@note_on channel=3 note=29 velocity=50 time=0@note_on channel=9 note=35 velocity=0 time=0.0208333125@note_on channel=0 note=69 velocity=80 time=0.14583318750000002@note_on channel=0 note=72 velocity=80 time=0@note_on channel=1 note=60 velocity=0 time=0@note_on channel=0 note=69 velocity=0 time=0.0208333125@note_on channel=0 note=72 velocity=0 time=0@note_on channel=1 note=60 velocity=80 time=0.14583318750000002@note_on channel=9 note=35 velocity=80 time=0@note_on channel=9 note=40 velocity=80 time=0@note_on channel=3 note=29 velocity=0 time=0@note_on channel=3 note=33 velocity=50 time=0@note_on channel=9 note=35 velocity=0 time=0.0208333125@note_on channel=9 note=40 velocity=0 time=0@note_on channel=1 note=60 velocity=0 time=0.08333325@note_on channel=0 note=69 velocity=80 time=0.062499937500000005@note_on channel=0 note=72 velocity=80 time=0@note_on channel=1 note=59 velocity=80 time=0@note_on channel=0 note=69 velocity=0 time=0.0208333125@note_on channel=0 note=72 velocity=0 time=0@note_on channel=1 note=59 velocity=0 time=0.08333325@note_on channel=1 note=60 velocity=80 time=0.062499937500000005@note_on channel=9 note=35 velocity=80 time=0@note_on channel=3 note=33 velocity=0 time=0@note_on channel=3 note=36 velocity=50 time=0@note_on channel=9 note=35 velocity=0 time=0.0208333125@note_on channel=1 note=60 velocity=0 time=0.08333325@note_on channel=0 note=69 velocity=80 time=0.062499937500000005@note_on channel=0 note=72 velocity=80 time=0@note_on channel=1 note=60 velocity=80 time=0@note_on channel=0 note=69 velocity=0 time=0.0208333125@note_on channel=0 note=72 velocity=0 time=0@note_on channel=1 note=60 velocity=0 time=0.08333325@note_on channel=9 note=35 velocity=80 time=0.062499937500000005@note_on channel=9 note=40 velocity=80 time=0@note_on channel=3 note=36 velocity=0 time=0@note_on channel=3 note=33 velocity=50 time=0@note_on channel=9 note=35 velocity=0 time=0.0208333125@note_on channel=9 note=40 velocity=0 time=0@note_on channel=0 note=69 velocity=80 time=0.14583318750000002@note_on channel=0 note=72 velocity=80 time=0@note_on channel=1 note=57 velocity=80 time=0@note_on channel=3 note=33 velocity=0 time=0@note_on channel=3 note=36 velocity=50 time=0@note_on channel=0 note=69 velocity=0 time=0.0208333125@note_on channel=0 note=72 velocity=0 time=0@note_on channel=9 note=35 velocity=80 time=0.14583318750000002@note_on channel=3 note=36 velocity=0 time=0@note_on channel=3 note=29 velocity=50 time=0@note_on channel=9 note=35 velocity=0 time=0.0208333125@note_on channel=0 note=69 velocity=80 time=0.14583318750000002@note_on channel=0 note=72 velocity=80 time=0@note_on channel=1 note=57 velocity=0 time=0@note_on channel=0 note=69 velocity=0 time=0.0208333125@note_on channel=0 note=72 velocity=0 time=0@note_on channel=1 note=57 velocity=80 time=0.14583318750000002@note_on channel=9 note=35 velocity=80 time=0@note_on channel=9 note=40 velocity=80 time=0@note_on channel=3 note=29 velocity=0 time=0@note_on channel=3 note=33 velocity=50 time=0@note_on channel=9 note=35 velocity=0 time=0.0208333125@note_on channel=9 note=40 velocity=0 time=0@note_on channel=1 note=57 velocity=0 time=0.08333325@note_on channel=0 note=69 velocity=80 time=0.062499937500000005@note_on channel=0 note=72 velocity=80 time=0@note_on channel=0 note=69 velocity=0 time=0.0208333125@note_on channel=0 note=72 velocity=0 time=0@note_on channel=1 note=60 velocity=80 time=0.14583318750000002@note_on channel=9 note=35 velocity=80 time=0@note_on channel=3 note=33 velocity=0 time=0@note_on channel=3 note=36 velocity=50 time=0@note_on channel=9 note=35 velocity=0 time=0.0208333125@note_on channel=1 note=60 velocity=0 time=0.08333325@note_on channel=0 note=69 velocity=80 time=0.062499937500000005@note_on channel=0 note=72 velocity=80 time=0@note_on channel=0 note=69 velocity=0 time=0.0208333125@note_on channel=0 note=72 velocity=0 time=0@note_on channel=1 note=62 velocity=80 time=0.14583318750000002@note_on channel=9 note=35 velocity=80 time=0@note_on channel=9 note=40 velocity=80 time=0@note_on channel=3 note=36 velocity=0 time=0@note_on channel=3 note=33 velocity=50 time=0@note_on channel=9 note=35 velocity=0 time=0.0208333125@note_on channel=9 note=40 velocity=0 time=0@note_on channel=1 note=62 velocity=0 time=0.08333325@note_on channel=0 note=69 velocity=80 time=0.062499937500000005@note_on channel=0 note=72 velocity=80 time=0@note_on channel=3 note=33 velocity=0 time=0@note_on channel=3 note=36 velocity=50 time=0@note_on channel=0 note=69 velocity=0 time=0.0208333125@note_on channel=0 note=72 velocity=0 time=0@note_on channel=1 note=64 velocity=80 time=0.14583318750000002@note_on channel=9 note=35 velocity=80 time=0@note_on channel=3 note=36 velocity=0 time=0@note_on channel=3 note=31 velocity=50 time=0@note_on channel=9 note=35 velocity=0 time=0.0208333125@note_on channel=0 note=71 velocity=80 time=0.14583318750000002@note_on channel=0 note=74 velocity=80 time=0@note_on channel=1 note=64 velocity=0 time=0@note_on channel=0 note=71 velocity=0 time=0.0208333125@note_on channel=0 note=74 velocity=0 time=0@note_on channel=1 note=64 velocity=80 time=0.14583318750000002@note_on channel=9 note=35 velocity=80 time=0@note_on channel=9 note=40 velocity=80 time=0@note_on channel=3 note=31 velocity=0 time=0@note_on channel=3 note=35 velocity=50 time=0@note_on channel=9 note=35 velocity=0 time=0.0208333125@note_on channel=9 note=40 velocity=0 time=0@note_on channel=1 note=64 velocity=0 time=0.08333325@note_on channel=0 note=71 velocity=80 time=0.062499937500000005@note_on channel=0 note=74 velocity=80 time=0@note_on channel=1 note=62 velocity=80 time=0@note_on channel=0 note=71 velocity=0 time=0.0208333125@note_on channel=0 note=74 velocity=0 time=0@note_on channel=1 note=62 velocity=0 time=0.08333325@note_on channel=1 note=64 velocity=80 time=0.062499937500000005@note_on channel=9 note=35 velocity=80 time=0@note_on channel=3 note=35 velocity=0 time=0@note_on channel=3 note=38 velocity=50 time=0@note_on channel=9 note=35 velocity=0 time=0.0208333125@note_on channel=1 note=64 velocity=0 time=0.08333325@note_on channel=0 note=71 velocity=80 time=0.062499937500000005@note_on channel=0 note=74 velocity=80 time=0@note_on channel=0 note=71 velocity=0 time=0.0208333125@note_on channel=0 note=74 velocity=0 time=0@note_on channel=1 note=65 velocity=80 time=0.14583318750000002@note_on channel=9 note=35 velocity=80 time=0@note_on channel=9 note=40 velocity=80 time=0@note_on channel=3 note=38 velocity=0 time=0@note_on channel=3 note=35 velocity=50 time=0@note_on channel=9 note=35 velocity=0 time=0.0208333125@note_on channel=9 note=40 velocity=0 time=0@note_on channel=1 note=65 velocity=0 time=0.12499987500000001@note_on channel=0 note=71 velocity=80 time=0.0208333125@note_on channel=0 note=74 velocity=80 time=0@note_on channel=3 note=35 velocity=0 time=0@note_on channel=3 note=38 velocity=50 time=0@note_on channel=0 note=71 velocity=0 time=0.0208333125@note_on channel=0 note=74 velocity=0 time=0@note_on channel=1 note=64 velocity=80 time=0.14583318750000002@note_on channel=1 note=76 velocity=80 time=0@note_on channel=9 note=35 velocity=80 time=0@note_on channel=9 note=57 velocity=80 time=0@note_on channel=3 note=38 velocity=0 time=0@note_on channel=3 note=40 velocity=50 time=0@note_on channel=9 note=35 velocity=0 time=0.0208333125@note_on channel=9 note=57 velocity=0 time=0@note_on channel=0 note=71 velocity=80 time=0.14583318750000002@note_on channel=0 note=74 velocity=80 time=0@note_on channel=9 note=40 velocity=80 time=0@note_on channel=0 note=71 velocity=0 time=0.0208333125@note_on channel=0 note=74 velocity=0 time=0@note_on channel=9 note=40 velocity=0 time=0@note_on channel=9 note=40 velocity=80 time=0.041666625@note_on channel=9 note=40 velocity=0 time=0.0208333125@note_on channel=9 note=40 velocity=80 time=0.062499937500000005@note_on channel=9 note=40 velocity=0 time=0.0208333125@note_on channel=3 note=40 velocity=0 time=0.08333325@note_on channel=0 note=71 velocity=80 time=0.08333325@note_on channel=0 note=74 velocity=80 time=0@note_on channel=1 note=64 velocity=0 time=0@note_on channel=1 note=76 velocity=0 time=0@note_on channel=9 note=40 velocity=80 time=0@note_on channel=0 note=71 velocity=0 time=0.0208333125@note_on channel=0 note=74 velocity=0 time=0@note_on channel=9 note=40 velocity=0 time=0@note_on channel=1 note=64 velocity=80 time=0.14583318750000002@note_on channel=1 note=76 velocity=80 time=0@note_on channel=9 note=35 velocity=80 time=0@note_on channel=9 note=57 velocity=80 time=0@note_on channel=3 note=40 velocity=50 time=0@note_on channel=9 note=35 velocity=0 time=0.0208333125@note_on channel=9 note=57 velocity=0 time=0@note_on channel=0 note=71 velocity=80 time=0.14583318750000002@note_on channel=0 note=74 velocity=80 time=0@note_on channel=9 note=40 velocity=80 time=0@note_on channel=0 note=71 velocity=0 time=0.0208333125@note_on channel=0 note=74 velocity=0 time=0@note_on channel=9 note=40 velocity=0 time=0@note_on channel=9 note=40 velocity=80 time=0.041666625@note_on channel=9 note=40 velocity=0 time=0.0208333125@note_on channel=9 note=40 velocity=80 time=0.062499937500000005@note_on channel=9 note=40 velocity=0 time=0.0208333125@note_on channel=3 note=40 velocity=0 time=0.08333325@note_on channel=0 note=71 velocity=80 time=0.08333325@note_on channel=0 note=74 velocity=80 time=0@note_on channel=1 note=64 velocity=0 time=0@note_on channel=1 note=76 velocity=0 time=0@note_on channel=9 note=40 velocity=80 time=0@note_on channel=0 note=71 velocity=0 time=0.0208333125@note_on channel=0 note=74 velocity=0 time=0@note_on channel=9 note=40 velocity=0 time=0@note_on channel=9 note=35 velocity=80 time=0.14583318750000002@note_on channel=2 note=96 velocity=80 time=0@note_on channel=3 note=36 velocity=50 time=0@note_on channel=9 note=35 velocity=0 time=0.0208333125@note_on channel=2 note=96 velocity=0 time=0.062499937500000005@note_on channel=0 note=72 velocity=80 time=0.08333325@note_on channel=0 note=76 velocity=80 time=0@note_on channel=0 note=72 velocity=0 time=0.0208333125@note_on channel=0 note=76 velocity=0 time=0@note_on channel=9 note=35 velocity=80 time=0.14583318750000002@note_on channel=9 note=40 velocity=80 time=0@note_on channel=2 note=96 velocity=80 time=0@note_on channel=3 note=36 velocity=0 time=0@note_on channel=3 note=40 velocity=50 time=0@note_on channel=9 note=35 velocity=0 time=0.0208333125@note_on channel=9 note=40 velocity=0 time=0@note_on channel=2 note=96 velocity=0 time=0.062499937500000005@note_on channel=0 note=72 velocity=80 time=0.08333325@note_on channel=0 note=76 velocity=80 time=0@note_on channel=2 note=95 velocity=80 time=0@note_on channel=0 note=72 velocity=0 time=0.0208333125@note_on channel=0 note=76 velocity=0 time=0@note_on channel=2 note=95 velocity=0 time=0.062499937500000005@note_on channel=9 note=35 velocity=80 time=0.08333325@note_on channel=2 note=96 velocity=80 time=0@note_on channel=3 note=40 velocity=0 time=0@note_on channel=3 note=43 velocity=50 time=0@note_on channel=9 note=35 velocity=0 time=0.0208333125@note_on channel=2 note=96 velocity=0 time=0.062499937500000005@note_on channel=0 note=72 velocity=80 time=0.08333325@note_on channel=0 note=76 velocity=80 time=0@note_on channel=2 note=96 velocity=80 time=0@note_on channel=0 note=72 velocity=0 time=0.0208333125@note_on channel=0 note=76 velocity=0 time=0@note_on channel=2 note=96 velocity=0 time=0.062499937500000005@note_on channel=9 note=35 velocity=80 time=0.08333325@note_on channel=9 note=40 velocity=80 time=0@note_on channel=2 note=98 velocity=80 time=0@note_on channel=3 note=43 velocity=0 time=0@note_on channel=3 note=40 velocity=50 time=0@note_on channel=9 note=35 velocity=0 time=0.0208333125@note_on channel=9 note=40 velocity=0 time=0@note_on channel=2 note=98 velocity=0 time=0.062499937500000005@note_on channel=0 note=72 velocity=80 time=0.08333325@note_on channel=0 note=76 velocity=80 time=0@note_on channel=2 note=100 velocity=80 time=0@note_on channel=3 note=40 velocity=0 time=0@note_on channel=3 note=43 velocity=50 time=0@note_on channel=0 note=72 velocity=0 time=0.0208333125@note_on channel=0 note=76 velocity=0 time=0@note_on channel=9 note=35 velocity=80 time=0.14583318750000002@note_on channel=3 note=43 velocity=0 time=0@note_on channel=3 note=36 velocity=50 time=0@note_on channel=9 note=35 velocity=0 time=0.0208333125@note_on channel=0 note=72 velocity=80 time=0.14583318750000002@note_on channel=0 note=76 velocity=80 time=0@note_on channel=2 note=100 velocity=0 time=0@note_on channel=0 note=72 velocity=0 time=0.0208333125@note_on channel=0 note=76 velocity=0 time=0@note_on channel=9 note=35 velocity=80 time=0.14583318750000002@note_on channel=9 note=40 velocity=80 time=0@note_on channel=2 note=98 velocity=80 time=0@note_on channel=3 note=36 velocity=0 time=0@note_on channel=3 note=40 velocity=50 time=0@note_on channel=9 note=35 velocity=0 time=0.0208333125@note_on channel=9 note=40 velocity=0 time=0@note_on channel=2 note=98 velocity=0 time=0.08333325@note_on channel=0 note=72 velocity=80 time=0.062499937500000005@note_on channel=0 note=76 velocity=80 time=0@note_on channel=0 note=72 velocity=0 time=0.0208333125@note_on channel=0 note=76 velocity=0 time=0@note_on channel=9 note=35 velocity=80 time=0.14583318750000002@note_on channel=2 note=96 velocity=80 time=0@note_on channel=3 note=40 velocity=0 time=0@note_on channel=3 note=43 velocity=50 time=0@note_on channel=9 note=35 velocity=0 time=0.0208333125@note_on channel=2 note=96 velocity=0 time=0.08333325@note_on channel=0 note=72 velocity=80 time=0.062499937500000005@note_on channel=0 note=76 velocity=80 time=0@note_on channel=0 note=72 velocity=0 time=0.0208333125@note_on channel=0 note=76 velocity=0 time=0@note_on channel=9 note=35 velocity=80 time=0.14583318750000002@note_on channel=9 note=40 velocity=80 time=0@note_on channel=2 note=95 velocity=80 time=0@note_on channel=3 note=43 velocity=0 time=0@note_on channel=3 note=40 velocity=50 time=0@note_on channel=9 note=35 velocity=0 time=0.0208333125@note_on channel=9 note=40 velocity=0 time=0@note_on channel=2 note=95 velocity=0 time=0.08333325@note_on channel=0 note=72 velocity=80 time=0.062499937500000005@note_on channel=0 note=76 velocity=80 time=0@note_on channel=3 note=40 velocity=0 time=0@note_on channel=3 note=43 velocity=50 time=0@note_on channel=0 note=72 velocity=0 time=0.0208333125@note_on channel=0 note=76 velocity=0 time=0@note_on channel=9 note=35 velocity=80 time=0.14583318750000002@note_on channel=2 note=93 velocity=80 time=0@note_on channel=3 note=43 velocity=0 time=0@note_on channel=3 note=33 velocity=50 time=0@note_on channel=9 note=35 velocity=0 time=0.0208333125@note_on channel=2 note=93 velocity=0 time=0.08333325@note_on channel=0 note=69 velocity=80 time=0.062499937500000005@note_on channel=0 note=72 velocity=80 time=0@note_on channel=0 note=69 velocity=0 time=0.0208333125@note_on channel=0 note=72 velocity=0 time=0@note_on channel=9 note=35 velocity=80 time=0.14583318750000002@note_on channel=9 note=40 velocity=80 time=0@note_on channel=2 note=93 velocity=80 time=0@note_on channel=3 note=33 velocity=0 time=0@note_on channel=3 note=36 velocity=50 time=0@note_on channel=9 note=35 velocity=0 time=0.0208333125@note_on channel=9 note=40 velocity=0 time=0@note_on channel=2 note=93 velocity=0 time=0.062499937500000005@note_on channel=0 note=69 velocity=80 time=0.08333325@note_on channel=0 note=72 velocity=80 time=0@note_on channel=2 note=91 velocity=80 time=0@note_on channel=0 note=69 velocity=0 time=0.0208333125@note_on channel=0 note=72 velocity=0 time=0@note_on channel=2 note=91 velocity=0 time=0.062499937500000005@note_on channel=9 note=35 velocity=80 time=0.08333325@note_on channel=2 note=93 velocity=80 time=0@note_on channel=3 note=36 velocity=0 time=0@note_on channel=3 note=40 velocity=50 time=0@note_on channel=9 note=35 velocity=0 time=0.0208333125@note_on channel=2 note=93 velocity=0 time=0.062499937500000005@note_on channel=0 note=69 velocity=80 time=0.08333325@note_on channel=0 note=72 velocity=80 time=0@note_on channel=2 note=93 velocity=80 time=0@note_on channel=0 note=69 velocity=0 time=0.0208333125@note_on channel=0 note=72 velocity=0 time=0@note_on channel=2 note=93 velocity=0 time=0.062499937500000005@note_on channel=9 note=35 velocity=80 time=0.08333325@note_on channel=9 note=40 velocity=80 time=0@note_on channel=2 note=100 velocity=80 time=0@note_on channel=3 note=40 velocity=0 time=0@note_on channel=3 note=36 velocity=50 time=0@note_on channel=9 note=35 velocity=0 time=0.0208333125@note_on channel=9 note=40 velocity=0 time=0@note_on channel=2 note=100 velocity=0 time=0.08333325@note_on channel=0 note=69 velocity=80 time=0.062499937500000005@note_on channel=0 note=72 velocity=80 time=0@note_on channel=2 note=93 velocity=80 time=0@note_on channel=3 note=36 velocity=0 time=0@note_on channel=3 note=40 velocity=50 time=0@note_on channel=0 note=69 velocity=0 time=0.0208333125@note_on channel=0 note=72 velocity=0 time=0@note_on channel=9 note=35 velocity=80 time=0.14583318750000002@note_on channel=3 note=40 velocity=0 time=0@note_on channel=3 note=33 velocity=50 time=0@note_on channel=9 note=35 velocity=0 time=0.0208333125@note_on channel=0 note=69 velocity=80 time=0.14583318750000002@note_on channel=0 note=72 velocity=80 time=0@note_on channel=0 note=69 velocity=0 time=0.0208333125@note_on channel=0 note=72 velocity=0 time=0@note_on channel=9 note=35 velocity=80 time=0.14583318750000002@note_on channel=9 note=40 velocity=80 time=0@note_on channel=3 note=33 velocity=0 time=0@note_on channel=3 note=36 velocity=50 time=0@note_on channel=9 note=35 velocity=0 time=0.0208333125@note_on channel=9 note=40 velocity=0 time=0@note_on channel=0 note=69 velocity=80 time=0.14583318750000002@note_on channel=0 note=72 velocity=80 time=0@note_on channel=2 note=93 velocity=0 time=0@note_on channel=0 note=69 velocity=0 time=0.0208333125@note_on channel=0 note=72 velocity=0 time=0@note_on channel=9 note=35 velocity=80 time=0.14583318750000002@note_on channel=3 note=36 velocity=0 time=0@note_on channel=3 note=40 velocity=50 time=0@note_on channel=9 note=35 velocity=0 time=0.0208333125@note_on channel=0 note=69 velocity=80 time=0.14583318750000002@note_on channel=0 note=72 velocity=80 time=0@note_on channel=2 note=93 velocity=80 time=0@note_on channel=0 note=69 velocity=0 time=0.0208333125@note_on channel=0 note=72 velocity=0 time=0@note_on channel=2 note=93 velocity=0 time=0.08333325@note_on channel=9 note=35 velocity=80 time=0.062499937500000005@note_on channel=9 note=40 velocity=80 time=0@note_on channel=2 note=91 velocity=80 time=0@note_on channel=3 note=40 velocity=0 time=0@note_on channel=3 note=36 velocity=50 time=0@note_on channel=9 note=35 velocity=0 time=0.0208333125@note_on channel=9 note=40 velocity=0 time=0@note_on channel=2 note=91 velocity=0 time=0.062499937500000005@note_on channel=0 note=69 velocity=80 time=0.08333325@note_on channel=0 note=72 velocity=80 time=0@note_on channel=2 note=93 velocity=80 time=0@note_on channel=3 note=36 velocity=0 time=0@note_on channel=3 note=40 velocity=50 time=0@note_on channel=0 note=69 velocity=0 time=0.0208333125@note_on channel=0 note=72 velocity=0 time=0@note_on channel=9 note=35 velocity=80 time=0.14583318750000002@note_on channel=3 note=40 velocity=0 time=0@note_on channel=3 note=29 velocity=50 time=0@note_on channel=9 note=35 velocity=0 time=0.0208333125@note_on channel=0 note=69 velocity=80 time=0.14583318750000002@note_on channel=0 note=72 velocity=80 time=0@note_on channel=0 note=69 velocity=0 time=0.0208333125@note_on channel=0 note=72 velocity=0 time=0@note_on channel=9 note=35 velocity=80 time=0.14583318750000002@note_on channel=9 note=40 velocity=80 time=0@note_on channel=3 note=29 velocity=0 time=0@note_on channel=3 note=33 velocity=50 time=0@note_on channel=9 note=35 velocity=0 time=0.0208333125@note_on channel=9 note=40 velocity=0 time=0@note_on channel=0 note=69 velocity=80 time=0.14583318750000002@note_on channel=0 note=72 velocity=80 time=0@note_on channel=2 note=93 velocity=0 time=0@note_on channel=0 note=69 velocity=0 time=0.0208333125@note_on channel=0 note=72 velocity=0 time=0@note_on channel=9 note=35 velocity=80 time=0.14583318750000002@note_on channel=3 note=33 velocity=0 time=0@note_on channel=3 note=36 velocity=50 time=0@note_on channel=9 note=35 velocity=0 time=0.0208333125@note_on channel=0 note=69 velocity=80 time=0.14583318750000002@note_on channel=0 note=72 velocity=80 time=0@note_on channel=2 note=93 velocity=80 time=0@note_on channel=0 note=69 velocity=0 time=0.0208333125@note_on channel=0 note=72 velocity=0 time=0@note_on channel=2 note=93 velocity=0 time=0.062499937500000005@note_on channel=9 note=35 velocity=80 time=0.08333325@note_on channel=9 note=40 velocity=80 time=0@note_on channel=2 note=96 velocity=80 time=0@note_on channel=3 note=36 velocity=0 time=0@note_on channel=3 note=33 velocity=50 time=0@note_on channel=9 note=35 velocity=0 time=0.0208333125@note_on channel=9 note=40 velocity=0 time=0@note_on channel=2 note=96 velocity=0 time=0.08333325@note_on channel=0 note=69 velocity=80 time=0.062499937500000005@note_on channel=0 note=72 velocity=80 time=0@note_on channel=2 note=95 velocity=80 time=0@note_on channel=3 note=33 velocity=0 time=0@note_on channel=3 note=36 velocity=50 time=0@note_on channel=0 note=69 velocity=0 time=0.0208333125@note_on channel=0 note=72 velocity=0 time=0@note_on channel=9 note=35 velocity=80 time=0.14583318750000002@note_on channel=3 note=36 velocity=0 time=0@note_on channel=3 note=31 velocity=50 time=0@note_on channel=9 note=35 velocity=0 time=0.0208333125@note_on channel=0 note=71 velocity=80 time=0.14583318750000002@note_on channel=0 note=74 velocity=80 time=0@note_on channel=0 note=71 velocity=0 time=0.0208333125@note_on channel=0 note=74 velocity=0 time=0@note_on channel=9 note=35 velocity=80 time=0.14583318750000002@note_on channel=9 note=40 velocity=80 time=0@note_on channel=3 note=31 velocity=0 time=0@note_on channel=3 note=35 velocity=50 time=0@note_on channel=9 note=35 velocity=0 time=0.0208333125@note_on channel=9 note=40 velocity=0 time=0@note_on channel=0 note=71 velocity=80 time=0.14583318750000002@note_on channel=0 note=74 velocity=80 time=0@note_on channel=2 note=95 velocity=0 time=0@note_on channel=0 note=71 velocity=0 time=0.0208333125@note_on channel=0 note=74 velocity=0 time=0@note_on channel=9 note=35 velocity=80 time=0.14583318750000002@note_on channel=3 note=35 velocity=0 time=0@note_on channel=3 note=38 velocity=50 time=0@note_on channel=9 note=35 velocity=0 time=0.0208333125@note_on channel=0 note=71 velocity=80 time=0.14583318750000002@note_on channel=0 note=74 velocity=80 time=0@note_on channel=2 note=95 velocity=80 time=0@note_on channel=0 note=71 velocity=0 time=0.0208333125@note_on channel=0 note=74 velocity=0 time=0@note_on channel=2 note=95 velocity=0 time=0.062499937500000005@note_on channel=9 note=35 velocity=80 time=0.08333325@note_on channel=9 note=40 velocity=80 time=0@note_on channel=2 note=93 velocity=80 time=0@note_on channel=3 note=38 velocity=0 time=0@note_on channel=3 note=35 velocity=50 time=0@note_on channel=9 note=35 velocity=0 time=0.0208333125@note_on channel=9 note=40 velocity=0 time=0@note_on channel=2 note=93 velocity=0 time=0.08333325@note_on channel=0 note=71 velocity=80 time=0.062499937500000005@note_on channel=0 note=74 velocity=80 time=0@note_on channel=2 note=95 velocity=80 time=0@note_on channel=3 note=35 velocity=0 time=0@note_on channel=3 note=38 velocity=50 time=0@note_on channel=0 note=71 velocity=0 time=0.0208333125@note_on channel=0 note=74 velocity=0 time=0@note_on channel=2 note=95 velocity=0 time=0.08333325@note_on channel=9 note=35 velocity=80 time=0.062499937500000005@note_on channel=2 note=96 velocity=80 time=0@note_on channel=3 note=38 velocity=0 time=0@note_on channel=3 note=36 velocity=50 time=0@note_on channel=9 note=35 velocity=0 time=0.0208333125@note_on channel=0 note=72 velocity=80 time=0.14583318750000002@note_on channel=0 note=76 velocity=80 time=0@note_on channel=0 note=72 velocity=0 time=0.0208333125@note_on channel=0 note=76 velocity=0 time=0@note_on channel=9 note=35 velocity=80 time=0.14583318750000002@note_on channel=9 note=40 velocity=80 time=0@note_on channel=3 note=36 velocity=0 time=0@note_on channel=3 note=40 velocity=50 time=0@note_on channel=9 note=35 velocity=0 time=0.0208333125@note_on channel=9 note=40 velocity=0 time=0@note_on channel=0 note=72 velocity=80 time=0.14583318750000002@note_on channel=0 note=76 velocity=80 time=0@note_on channel=0 note=72 velocity=0 time=0.0208333125@note_on channel=0 note=76 velocity=0 time=0@note_on channel=9 note=35 velocity=80 time=0.14583318750000002@note_on channel=2 note=96 velocity=0 time=0@note_on channel=3 note=40 velocity=0 time=0@note_on channel=3 note=43 velocity=50 time=0@note_on channel=9 note=35 velocity=0 time=0.0208333125@note_on channel=0 note=72 velocity=80 time=0.14583318750000002@note_on channel=0 note=76 velocity=80 time=0@note_on channel=0 note=72 velocity=0 time=0.0208333125@note_on channel=0 note=76 velocity=0 time=0@note_on channel=9 note=35 velocity=80 time=0.14583318750000002@note_on channel=9 note=40 velocity=80 time=0@note_on channel=3 note=43 velocity=0 time=0@note_on channel=3 note=40 velocity=50 time=0@note_on channel=9 note=35 velocity=0 time=0.0208333125@note_on channel=9 note=40 velocity=0 time=0@note_on channel=0 note=72 velocity=80 time=0.14583318750000002@note_on channel=0 note=76 velocity=80 time=0@note_on channel=3 note=40 velocity=0 time=0@note_on channel=3 note=43 velocity=50 time=0@note_on channel=0 note=72 velocity=0 time=0.0208333125@note_on channel=0 note=76 velocity=0 time=0@note_on channel=1 note=55 velocity=80 time=0.14583318750000002@note_on channel=1 note=67 velocity=80 time=0@note_on channel=9 note=35 velocity=80 time=0@note_on channel=3 note=43 velocity=0 time=0@note_on channel=3 note=31 velocity=80 time=0@note_on channel=9 note=35 velocity=0 time=0.0208333125@note_on channel=1 note=55 velocity=0 time=0.22916643750000001@note_on channel=1 note=67 velocity=0 time=0.0208333125@note_on channel=1 note=57 velocity=80 time=0.062499937500000005@note_on channel=1 note=69 velocity=80 time=0@note_on channel=9 note=40 velocity=80 time=0@note_on channel=9 note=57 velocity=80 time=0@note_on channel=3 note=31 velocity=0 time=0@note_on channel=3 note=33 velocity=80 time=0@note_on channel=9 note=40 velocity=0 time=0.0208333125@note_on channel=9 note=57 velocity=0 time=0@note_on channel=9 note=35 velocity=80 time=0.14583318750000002@note_on channel=9 note=35 velocity=0 time=0.0208333125@note_on channel=1 note=57 velocity=0 time=0.08333325@note_on channel=1 note=69 velocity=0 time=0@note_on channel=1 note=58 velocity=80 time=0.062499937500000005@note_on channel=1 note=70 velocity=80 time=0@note_on channel=9 note=40 velocity=80 time=0@note_on channel=9 note=57 velocity=80 time=0@note_on channel=3 note=33 velocity=0 time=0@note_on channel=3 note=34 velocity=80 time=0@note_on channel=9 note=40 velocity=0 time=0.0208333125@note_on channel=9 note=57 velocity=0 time=0@note_on channel=9 note=35 velocity=80 time=0.14583318750000002@note_on channel=9 note=35 velocity=0 time=0.0208333125@note_on channel=1 note=70 velocity=0 time=0.062499937500000005@note_on channel=1 note=58 velocity=0 time=0.041666625@note_on channel=1 note=59 velocity=80 time=0.041666625@note_on channel=1 note=71 velocity=80 time=0@note_on channel=9 note=40 velocity=80 time=0@note_on channel=9 note=57 velocity=80 time=0@note_on channel=3 note=34 velocity=0 time=0@note_on channel=3 note=35 velocity=80 time=0@note_on channel=9 note=40 velocity=0 time=0.0208333125@note_on channel=9 note=57 velocity=0 time=0@note_on channel=9 note=35 velocity=80 time=0.14583318750000002@note_on channel=9 note=35 velocity=0 time=0.0208333125@note_on channel=1 note=59 velocity=0 time=0.08333325@note_on channel=1 note=71 velocity=0 time=0@note_on channel=1 note=64 velocity=80 time=0.062499937500000005@note_on channel=1 note=76 velocity=80 time=0@note_on channel=9 note=35 velocity=80 time=0@note_on channel=3 note=35 velocity=0 time=0@note_on channel=3 note=36 velocity=80 time=0@note_on channel=9 note=35 velocity=0 time=0.0208333125@note_on channel=1 note=64 velocity=0 time=0.041666625@note_on channel=1 note=76 velocity=0 time=0@note_on channel=1 note=64 velocity=80 time=0.1041665625@note_on channel=1 note=76 velocity=80 time=0@note_on channel=1 note=64 velocity=0 time=0.062499937500000005@note_on channel=1 note=76 velocity=0 time=0@note_on channel=3 note=36 velocity=0 time=0.0208333125@note_on channel=1 note=64 velocity=80 time=0.08333325@note_on channel=1 note=76 velocity=80 time=0@note_on channel=9 note=35 velocity=80 time=0@note_on channel=9 note=40 velocity=80 time=0@note_on channel=3 note=36 velocity=80 time=0@note_on channel=9 note=35 velocity=0 time=0.0208333125@note_on channel=9 note=40 velocity=0 time=0@note_on channel=1 note=64 velocity=0 time=0.041666625@note_on channel=1 note=76 velocity=0 time=0@note_on channel=1 note=64 velocity=80 time=0.1041665625@note_on channel=1 note=76 velocity=80 time=0@note_on channel=1 note=64 velocity=0 time=0.062499937500000005@note_on channel=1 note=76 velocity=0 time=0@note_on channel=3 note=36 velocity=0 time=0.0208333125@note_on channel=1 note=64 velocity=80 time=0.08333325@note_on channel=1 note=76 velocity=80 time=0@note_on channel=9 note=35 velocity=80 time=0@note_on channel=3 note=36 velocity=80 time=0@note_on channel=9 note=35 velocity=0 time=0.0208333125@note_on channel=1 note=64 velocity=0 time=0.041666625@note_on channel=1 note=76 velocity=0 time=0@note_on channel=1 note=64 velocity=80 time=0.1041665625@note_on channel=1 note=76 velocity=80 time=0@note_on channel=1 note=64 velocity=0 time=0.062499937500000005@note_on channel=1 note=76 velocity=0 time=0@note_on channel=3 note=36 velocity=0 time=0.0208333125@note_on channel=1 note=64 velocity=80 time=0.08333325@note_on channel=1 note=76 velocity=80 time=0@note_on channel=9 note=35 velocity=80 time=0@note_on channel=9 note=40 velocity=80 time=0@note_on channel=3 note=36 velocity=80 time=0@note_on channel=9 note=35 velocity=0 time=0.0208333125@note_on channel=9 note=40 velocity=0 time=0@note_on channel=1 note=64 velocity=0 time=0.041666625@note_on channel=1 note=76 velocity=0 time=0@note_on channel=1 note=64 velocity=80 time=0.1041665625@note_on channel=1 note=76 velocity=80 time=0@note_on channel=1 note=64 velocity=0 time=0.062499937500000005@note_on channel=1 note=76 velocity=0 time=0@note_on channel=3 note=36 velocity=0 time=0.0208333125@note_on channel=1 note=57 velocity=80 time=0.08333325@note_on channel=1 note=69 velocity=80 time=0@note_on channel=9 note=35 velocity=80 time=0@note_on channel=3 note=33 velocity=80 time=0@note_on channel=9 note=35 velocity=0 time=0.0208333125@note_on channel=1 note=57 velocity=0 time=0.041666625@note_on channel=1 note=69 velocity=0 time=0@note_on channel=1 note=57 velocity=80 time=0.1041665625@note_on channel=1 note=69 velocity=80 time=0@note_on channel=1 note=57 velocity=0 time=0.062499937500000005@note_on channel=1 note=69 velocity=0 time=0@note_on channel=3 note=33 velocity=0 time=0.0208333125@note_on channel=1 note=60 velocity=80 time=0.08333325@note_on channel=1 note=72 velocity=80 time=0@note_on channel=9 note=40 velocity=80 time=0@note_on channel=9 note=57 velocity=80 time=0@note_on channel=3 note=33 velocity=80 time=0@note_on channel=9 note=40 velocity=0 time=0.0208333125@note_on channel=9 note=57 velocity=0 time=0@note_on channel=1 note=60 velocity=0 time=0.041666625@note_on channel=1 note=72 velocity=0 time=0@note_on channel=1 note=57 velocity=80 time=0.1041665625@note_on channel=1 note=69 velocity=80 time=0@note_on channel=9 note=35 velocity=80 time=0@note_on channel=9 note=35 velocity=0 time=0.0208333125@note_on channel=1 note=57 velocity=0 time=0.041666625@note_on channel=1 note=69 velocity=0 time=0@note_on channel=3 note=33 velocity=0 time=0.0208333125@note_on channel=1 note=60 velocity=80 time=0.08333325@note_on channel=1 note=72 velocity=80 time=0@note_on channel=9 note=40 velocity=80 time=0@note_on channel=9 note=57 velocity=80 time=0@note_on channel=3 note=33 velocity=80 time=0@note_on channel=9 note=40 velocity=0 time=0.0208333125@note_on channel=9 note=57 velocity=0 time=0@note_on channel=1 note=60 velocity=0 time=0.041666625@note_on channel=1 note=72 velocity=0 time=0@note_on channel=1 note=57 velocity=80 time=0.1041665625@note_on channel=1 note=69 velocity=80 time=0@note_on channel=9 note=35 velocity=80 time=0@note_on channel=9 note=35 velocity=0 time=0.0208333125@note_on channel=1 note=57 velocity=0 time=0.041666625@note_on channel=1 note=69 velocity=0 time=0@note_on channel=3 note=33 velocity=0 time=0.0208333125@note_on channel=1 note=57 velocity=80 time=0.08333325@note_on channel=1 note=69 velocity=80 time=0@note_on channel=9 note=40 velocity=80 time=0@note_on channel=9 note=57 velocity=80 time=0@note_on channel=3 note=33 velocity=80 time=0@note_on channel=9 note=40 velocity=0 time=0.0208333125@note_on channel=9 note=57 velocity=0 time=0@note_on channel=1 note=57 velocity=0 time=0.041666625@note_on channel=1 note=69 velocity=0 time=0@note_on channel=9 note=35 velocity=80 time=0.1041665625@note_on channel=9 note=35 velocity=0 time=0.0208333125@note_on channel=3 note=33 velocity=0 time=0.062499937500000005@note_on channel=1 note=64 velocity=80 time=0.08333325@note_on channel=1 note=76 velocity=80 time=0@note_on channel=9 note=35 velocity=80 time=0@note_on channel=3 note=36 velocity=80 time=0@note_on channel=9 note=35 velocity=0 time=0.0208333125@note_on channel=1 note=64 velocity=0 time=0.041666625@note_on channel=1 note=76 velocity=0 time=0@note_on channel=1 note=64 velocity=80 time=0.1041665625@note_on channel=1 note=76 velocity=80 time=0@note_on channel=1 note=64 velocity=0 time=0.062499937500000005@note_on channel=1 note=76 velocity=0 time=0@note_on channel=3 note=36 velocity=0 time=0.0208333125@note_on channel=1 note=64 velocity=80 time=0.08333325@note_on channel=1 note=76 velocity=80 time=0@note_on channel=9 note=35 velocity=80 time=0@note_on channel=9 note=40 velocity=80 time=0@note_on channel=3 note=36 velocity=80 time=0@note_on channel=9 note=35 velocity=0 time=0.0208333125@note_on channel=9 note=40 velocity=0 time=0@note_on channel=1 note=64 velocity=0 time=0.041666625@note_on channel=1 note=76 velocity=0 time=0@note_on channel=1 note=64 velocity=80 time=0.1041665625@note_on channel=1 note=76 velocity=80 time=0@note_on channel=1 note=64 velocity=0 time=0.062499937500000005@note_on channel=1 note=76 velocity=0 time=0@note_on channel=3 note=36 velocity=0 time=0.0208333125@note_on channel=1 note=64 velocity=80 time=0.08333325@note_on channel=1 note=76 velocity=80 time=0@note_on channel=9 note=35 velocity=80 time=0@note_on channel=3 note=36 velocity=80 time=0@note_on channel=9 note=35 velocity=0 time=0.0208333125@note_on channel=1 note=64 velocity=0 time=0.041666625@note_on channel=1 note=76 velocity=0 time=0@note_on channel=1 note=64 velocity=80 time=0.1041665625@note_on channel=1 note=76 velocity=80 time=0@note_on channel=1 note=64 velocity=0 time=0.062499937500000005@note_on channel=1 note=76 velocity=0 time=0@note_on channel=3 note=36 velocity=0 time=0.0208333125@note_on channel=1 note=64 velocity=80 time=0.08333325@note_on channel=1 note=76 velocity=80 time=0@note_on channel=9 note=35 velocity=80 time=0@note_on channel=9 note=40 velocity=80 time=0@note_on channel=3 note=36 velocity=80 time=0@note_on channel=9 note=35 velocity=0 time=0.0208333125@note_on channel=9 note=40 velocity=0 time=0@note_on channel=1 note=64 velocity=0 time=0.041666625@note_on channel=1 note=76 velocity=0 time=0@note_on channel=1 note=64 velocity=80 time=0.1041665625@note_on channel=1 note=76 velocity=80 time=0@note_on channel=1 note=64 velocity=0 time=0.062499937500000005@note_on channel=1 note=76 velocity=0 time=0@note_on channel=3 note=36 velocity=0 time=0.0208333125@note_on channel=1 note=57 velocity=80 time=0.08333325@note_on channel=1 note=69 velocity=80 time=0@note_on channel=9 note=35 velocity=80 time=0@note_on channel=3 note=33 velocity=80 time=0@note_on channel=9 note=35 velocity=0 time=0.0208333125@note_on channel=1 note=57 velocity=0 time=0.041666625@note_on channel=1 note=69 velocity=0 time=0@note_on channel=1 note=57 velocity=80 time=0.1041665625@note_on channel=1 note=69 velocity=80 time=0@note_on channel=1 note=57 velocity=0 time=0.062499937500000005@note_on channel=1 note=69 velocity=0 time=0@note_on channel=3 note=33 velocity=0 time=0.0208333125@note_on channel=1 note=60 velocity=80 time=0.08333325@note_on channel=1 note=72 velocity=80 time=0@note_on channel=9 note=40 velocity=80 time=0@note_on channel=9 note=57 velocity=80 time=0@note_on channel=3 note=33 velocity=80 time=0@note_on channel=9 note=40 velocity=0 time=0.0208333125@note_on channel=9 note=57 velocity=0 time=0@note_on channel=1 note=60 velocity=0 time=0.041666625@note_on channel=1 note=72 velocity=0 time=0@note_on channel=1 note=57 velocity=80 time=0.1041665625@note_on channel=1 note=69 velocity=80 time=0@note_on channel=9 note=35 velocity=80 time=0@note_on channel=9 note=35 velocity=0 time=0.0208333125@note_on channel=1 note=57 velocity=0 time=0.041666625@note_on channel=1 note=69 velocity=0 time=0@note_on channel=3 note=33 velocity=0 time=0.0208333125@note_on channel=1 note=60 velocity=80 time=0.08333325@note_on channel=1 note=72 velocity=80 time=0@note_on channel=9 note=40 velocity=80 time=0@note_on channel=9 note=57 velocity=80 time=0@note_on channel=3 note=33 velocity=80 time=0@note_on channel=9 note=40 velocity=0 time=0.0208333125@note_on channel=9 note=57 velocity=0 time=0@note_on channel=1 note=60 velocity=0 time=0.041666625@note_on channel=1 note=72 velocity=0 time=0@note_on channel=1 note=57 velocity=80 time=0.1041665625@note_on channel=1 note=69 velocity=80 time=0@note_on channel=9 note=35 velocity=80 time=0@note_on channel=9 note=35 velocity=0 time=0.0208333125@note_on channel=1 note=57 velocity=0 time=0.041666625@note_on channel=1 note=69 velocity=0 time=0@note_on channel=3 note=33 velocity=0 time=0.0208333125@note_on channel=1 note=57 velocity=80 time=0.08333325@note_on channel=1 note=69 velocity=80 time=0@note_on channel=9 note=40 velocity=80 time=0@note_on channel=9 note=57 velocity=80 time=0@note_on channel=3 note=33 velocity=80 time=0@note_on channel=9 note=40 velocity=0 time=0.0208333125@note_on channel=9 note=57 velocity=0 time=0@note_on channel=1 note=57 velocity=0 time=0.041666625@note_on channel=1 note=69 velocity=0 time=0@note_on channel=9 note=35 velocity=80 time=0.1041665625@note_on channel=9 note=35 velocity=0 time=0.0208333125@note_on channel=3 note=33 velocity=0 time=0.062499937500000005@note_on channel=1 note=65 velocity=80 time=0.08333325@note_on channel=9 note=35 velocity=80 time=0@note_on channel=3 note=29 velocity=80 time=0@note_on channel=9 note=35 velocity=0 time=0.0208333125@note_on channel=1 note=65 velocity=0 time=0.08333325@note_on channel=1 note=65 velocity=80 time=0.062499937500000005@note_on channel=1 note=65 velocity=0 time=0.08333325@note_on channel=3 note=29 velocity=0 time=0@note_on channel=1 note=65 velocity=80 time=0.08333325@note_on channel=9 note=35 velocity=80 time=0@note_on channel=9 note=40 velocity=80 time=0@note_on channel=3 note=29 velocity=80 time=0@note_on channel=9 note=35 velocity=0 time=0.0208333125@note_on channel=9 note=40 velocity=0 time=0@note_on channel=1 note=65 velocity=0 time=0.08333325@note_on channel=1 note=65 velocity=80 time=0.062499937500000005@note_on channel=3 note=29 velocity=0 time=0.08333325@note_on channel=9 note=35 velocity=80 time=0.08333325@note_on channel=3 note=29 velocity=80 time=0@note_on channel=9 note=35 velocity=0 time=0.0208333125@note_on channel=1 note=65 velocity=0 time=0.1041665625@note_on channel=1 note=65 velocity=80 time=0.041666625@note_on channel=1 note=65 velocity=0 time=0.08333325@note_on channel=3 note=29 velocity=0 time=0@note_on channel=1 note=67 velocity=80 time=0.08333325@note_on channel=9 note=35 velocity=80 time=0@note_on channel=9 note=40 velocity=80 time=0@note_on channel=3 note=29 velocity=80 time=0@note_on channel=9 note=35 velocity=0 time=0.0208333125@note_on channel=9 note=40 velocity=0 time=0@note_on channel=1 note=67 velocity=0 time=0.062499937500000005@note_on channel=1 note=69 velocity=80 time=0.08333325@note_on channel=3 note=29 velocity=0 time=0@note_on channel=3 note=33 velocity=80 time=0@note_on channel=1 note=69 velocity=0 time=0.08333325@note_on channel=1 note=67 velocity=80 time=0.08333325@note_on channel=9 note=35 velocity=80 time=0@note_on channel=3 note=33 velocity=0 time=0@note_on channel=3 note=31 velocity=80 time=0@note_on channel=9 note=35 velocity=0 time=0.0208333125@note_on channel=3 note=31 velocity=0 time=0.22916643750000001@note_on channel=1 note=67 velocity=0 time=0.0208333125@note_on channel=1 note=67 velocity=80 time=0.062499937500000005@note_on channel=9 note=40 velocity=80 time=0@note_on channel=9 note=57 velocity=80 time=0@note_on channel=3 note=31 velocity=80 time=0@note_on channel=9 note=40 velocity=0 time=0.0208333125@note_on channel=9 note=57 velocity=0 time=0@note_on channel=9 note=35 velocity=80 time=0.14583318750000002@note_on channel=9 note=35 velocity=0 time=0.0208333125@note_on channel=3 note=31 velocity=0 time=0.062499937500000005@note_on channel=1 note=67 velocity=0 time=0.0208333125@note_on channel=1 note=72 velocity=80 time=0.062499937500000005@note_on channel=9 note=40 velocity=80 time=0@note_on channel=9 note=57 velocity=80 time=0@note_on channel=3 note=36 velocity=80 time=0@note_on channel=9 note=40 velocity=0 time=0.0208333125@note_on channel=9 note=57 velocity=0 time=0@note_on channel=9 note=35 velocity=80 time=0.14583318750000002@note_on channel=9 note=35 velocity=0 time=0.0208333125@note_on channel=3 note=36 velocity=0 time=0.062499937500000005@note_on channel=1 note=72 velocity=0 time=0.0208333125@note_on channel=1 note=71 velocity=80 time=0.062499937500000005@note_on channel=9 note=40 velocity=80 time=0@note_on channel=9 note=57 velocity=80 time=0@note_on channel=3 note=35 velocity=80 time=0@note_on channel=9 note=40 velocity=0 time=0.0208333125@note_on channel=9 note=57 velocity=0 time=0@note_on channel=9 note=35 velocity=80 time=0.14583318750000002@note_on channel=9 note=35 velocity=0 time=0.0208333125@note_on channel=3 note=35 velocity=0 time=0.062499937500000005@note_on channel=1 note=71 velocity=0 time=0.0208333125@note_on channel=1 note=72 velocity=80 time=0.062499937500000005@note_on channel=9 note=35 velocity=80 time=0@note_on channel=2 note=84 velocity=80 time=0@note_on channel=3 note=36 velocity=50 time=0@note_on channel=9 note=35 velocity=0 time=0.0208333125@note_on channel=2 note=84 velocity=0 time=0.041666625@note_on channel=3 note=36 velocity=0 time=0.1041665625@note_on channel=1 note=72 velocity=0 time=0.1666665@note_on channel=9 note=40 velocity=80 time=0@note_on channel=2 note=96 velocity=80 time=0@note_on channel=3 note=48 velocity=50 time=0@note_on channel=9 note=40 velocity=0 time=0.0208333125@note_on channel=2 note=96 velocity=0 time=0.062499937500000005@note_on channel=9 note=35 velocity=80 time=0.08333325@note_on channel=2 note=84 velocity=80 time=0@note_on channel=3 note=48 velocity=0 time=0@note_on channel=3 note=36 velocity=50 time=0@note_on channel=9 note=35 velocity=0 time=0.0208333125@note_on channel=2 note=84 velocity=0 time=0.062499937500000005@note_on channel=3 note=36 velocity=0 time=0.041666625@note_on channel=3 note=36 velocity=50 time=0.1666665@note_on channel=9 note=35 velocity=80 time=0.041666625@note_on channel=2 note=84 velocity=80 time=0@note_on channel=9 note=35 velocity=0 time=0.0208333125@note_on channel=2 note=84 velocity=0 time=0.062499937500000005@note_on channel=3 note=36 velocity=0 time=0@note_on channel=9 note=40 velocity=80 time=0.08333325@note_on channel=2 note=96 velocity=80 time=0@note_on channel=3 note=48 velocity=50 time=0@note_on channel=9 note=40 velocity=0 time=0.0208333125@note_on channel=2 note=96 velocity=0 time=0.062499937500000005@note_on channel=3 note=48 velocity=0 time=0.08333325@note_on channel=9 note=35 velocity=80 time=0.1666665@note_on channel=2 note=84 velocity=80 time=0@note_on channel=3 note=36 velocity=50 time=0@note_on channel=9 note=35 velocity=0 time=0.0208333125@note_on channel=2 note=84 velocity=0 time=0.08333325@note_on channel=3 note=36 velocity=0 time=0.062499937500000005@note_on channel=9 note=40 velocity=80 time=0.1666665@note_on channel=2 note=96 velocity=80 time=0@note_on channel=3 note=48 velocity=50 time=0@note_on channel=9 note=40 velocity=0 time=0.0208333125@note_on channel=2 note=96 velocity=0 time=0.08333325@note_on channel=3 note=48 velocity=0 time=0.062499937500000005@note_on channel=9 note=35 velocity=80 time=0.1666665@note_on channel=2 note=84 velocity=80 time=0@note_on channel=3 note=36 velocity=50 time=0@note_on channel=9 note=35 velocity=0 time=0.0208333125@note_on channel=3 note=36 velocity=0 time=0.0208333125@note_on channel=2 note=84 velocity=0 time=0.041666625@note_on channel=9 note=35 velocity=80 time=0.08333325@note_on channel=2 note=84 velocity=80 time=0@note_on channel=3 note=36 velocity=50 time=0@note_on channel=9 note=35 velocity=0 time=0.0208333125@note_on channel=3 note=36 velocity=0 time=0.0208333125@note_on channel=2 note=84 velocity=0 time=0.041666625@note_on channel=9 note=40 velocity=80 time=0.08333325@note_on channel=2 note=96 velocity=80 time=0@note_on channel=3 note=48 velocity=50 time=0@note_on channel=9 note=40 velocity=0 time=0.0208333125@note_on channel=3 note=48 velocity=0 time=0.062499937500000005@note_on channel=2 note=96 velocity=0 time=0.0208333125@note_on channel=2 note=94 velocity=80 time=0.062499937500000005@note_on channel=3 note=46 velocity=50 time=0@note_on channel=2 note=94 velocity=0 time=0.08333325@note_on channel=3 note=46 velocity=0 time=0@note_on channel=9 note=35 velocity=80 time=0.08333325@note_on channel=2 note=84 velocity=80 time=0@note_on channel=3 note=36 velocity=50 time=0@note_on channel=9 note=35 velocity=0 time=0.0208333125@note_on channel=2 note=84 velocity=0 time=0.14583318750000002@note_on channel=3 note=36 velocity=0 time=0@note_on channel=9 note=40 velocity=80 time=0.1666665@note_on channel=2 note=96 velocity=80 time=0@note_on channel=3 note=48 velocity=50 time=0@note_on channel=9 note=40 velocity=0 time=0.0208333125@note_on channel=2 note=96 velocity=0 time=0.062499937500000005@note_on channel=9 note=35 velocity=80 time=0.08333325@note_on channel=2 note=84 velocity=80 time=0@note_on channel=3 note=48 velocity=0 time=0@note_on channel=3 note=36 velocity=50 time=0@note_on channel=9 note=35 velocity=0 time=0.0208333125@note_on channel=2 note=84 velocity=0 time=0.08333325@note_on channel=9 note=40 velocity=80 time=0.062499937500000005@note_on channel=2 note=96 velocity=80 time=0@note_on channel=3 note=36 velocity=0 time=0@note_on channel=3 note=48 velocity=50 time=0@note_on channel=9 note=40 velocity=0 time=0.0208333125@note_on channel=2 note=96 velocity=0 time=0.062499937500000005@note_on channel=9 note=35 velocity=80 time=0.08333325@note_on channel=2 note=84 velocity=80 time=0@note_on channel=3 note=48 velocity=0 time=0@note_on channel=3 note=36 velocity=50 time=0@note_on channel=9 note=35 velocity=0 time=0.0208333125@note_on channel=2 note=84 velocity=0 time=0.08333325@note_on channel=9 note=40 velocity=80 time=0.062499937500000005@note_on channel=2 note=96 velocity=80 time=0@note_on channel=3 note=36 velocity=0 time=0@note_on channel=3 note=48 velocity=50 time=0@note_on channel=9 note=40 velocity=0 time=0.0208333125@note_on channel=2 note=96 velocity=0 time=0.062499937500000005@note_on channel=9 note=35 velocity=80 time=0.08333325@note_on channel=2 note=84 velocity=80 time=0@note_on channel=3 note=48 velocity=0 time=0@note_on channel=3 note=46 velocity=50 time=0@note_on channel=9 note=35 velocity=0 time=0.0208333125@note_on channel=2 note=84 velocity=0 time=0.062499937500000005@note_on channel=1 note=65 velocity=80 time=0.08333325@note_on channel=1 note=77 velocity=80 time=0@note_on channel=9 note=35 velocity=80 time=0@note_on channel=9 note=57 velocity=80 time=0@note_on channel=3 note=46 velocity=0 time=0@note_on channel=3 note=41 velocity=50 time=0@note_on channel=9 note=35 velocity=0 time=0.0208333125@note_on channel=9 note=57 velocity=0 time=0@note_on channel=9 note=40 velocity=80 time=0.14583318750000002@note_on channel=9 note=40 velocity=0 time=0.0208333125@note_on channel=9 note=40 velocity=80 time=0.041666625@note_on channel=9 note=40 velocity=0 time=0.0208333125@note_on channel=9 note=40 velocity=80 time=0.062499937500000005@note_on channel=1 note=65 velocity=0 time=0.0208333125@note_on channel=1 note=77 velocity=0 time=0@note_on channel=9 note=40 velocity=0 time=0@note_on channel=3 note=41 velocity=0 time=0@note_on channel=9 note=40 velocity=80 time=0.1666665@note_on channel=9 note=40 velocity=0 time=0.0208333125@note_on channel=1 note=65 velocity=80 time=0.14583318750000002@note_on channel=1 note=77 velocity=80 time=0@note_on channel=9 note=35 velocity=80 time=0@note_on channel=9 note=57 velocity=80 time=0@note_on channel=3 note=41 velocity=50 time=0@note_on channel=9 note=35 velocity=0 time=0.0208333125@note_on channel=9 note=57 velocity=0 time=0@note_on channel=9 note=40 velocity=80 time=0.14583318750000002@note_on channel=9 note=40 velocity=0 time=0.0208333125@note_on channel=1 note=77 velocity=0 time=0.041666625@note_on channel=9 note=40 velocity=80 time=0@note_on channel=1 note=65 velocity=0 time=0.0208333125@note_on channel=9 note=40 velocity=0 time=0@note_on channel=3 note=41 velocity=0 time=0@note_on channel=9 note=40 velocity=80 time=0.062499937500000005@note_on channel=1 note=63 velocity=80 time=0.0208333125@note_on channel=1 note=75 velocity=80 time=0@note_on channel=9 note=40 velocity=0 time=0@note_on channel=3 note=39 velocity=50 time=0@note_on channel=9 note=40 velocity=80 time=0.1666665@note_on channel=9 note=40 velocity=0 time=0.0208333125@note_on channel=3 note=39 velocity=0 time=0.062499937500000005@note_on channel=1 note=63 velocity=0 time=0.0208333125@note_on channel=1 note=75 velocity=0 time=0@note_on channel=1 note=60 velocity=80 time=0.062499937500000005@note_on channel=9 note=35 velocity=80 time=0@note_on channel=3 note=36 velocity=50 time=0@note_on channel=9 note=35 velocity=0 time=0.0208333125@note_on channel=0 note=72 velocity=80 time=0.14583318750000002@note_on channel=0 note=76 velocity=80 time=0@note_on channel=1 note=60 velocity=0 time=0@note_on channel=0 note=72 velocity=0 time=0.0208333125@note_on channel=0 note=76 velocity=0 time=0@note_on channel=1 note=60 velocity=80 time=0.14583318750000002@note_on channel=9 note=35 velocity=80 time=0@note_on channel=9 note=40 velocity=80 time=0@note_on channel=3 note=36 velocity=0 time=0@note_on channel=3 note=40 velocity=50 time=0@note_on channel=9 note=35 velocity=0 time=0.0208333125@note_on channel=9 note=40 velocity=0 time=0@note_on channel=1 note=60 velocity=0 time=0.08333325@note_on channel=0 note=72 velocity=80 time=0.062499937500000005@note_on channel=0 note=76 velocity=80 time=0@note_on channel=1 note=59 velocity=80 time=0@note_on channel=0 note=72 velocity=0 time=0.0208333125@note_on channel=0 note=76 velocity=0 time=0@note_on channel=1 note=59 velocity=0 time=0.08333325@note_on channel=1 note=60 velocity=80 time=0.062499937500000005@note_on channel=9 note=35 velocity=80 time=0@note_on channel=3 note=40 velocity=0 time=0@note_on channel=3 note=43 velocity=50 time=0@note_on channel=9 note=35 velocity=0 time=0.0208333125@note_on channel=1 note=60 velocity=0 time=0.062499937500000005@note_on channel=0 note=72 velocity=80 time=0.08333325@note_on channel=0 note=76 velocity=80 time=0@note_on channel=1 note=60 velocity=80 time=0@note_on channel=0 note=72 velocity=0 time=0.0208333125@note_on channel=0 note=76 velocity=0 time=0@note_on channel=1 note=60 velocity=0 time=0.062499937500000005@note_on channel=1 note=62 velocity=80 time=0.08333325@note_on channel=9 note=35 velocity=80 time=0@note_on channel=9 note=40 velocity=80 time=0@note_on channel=3 note=43 velocity=0 time=0@note_on channel=3 note=40 velocity=50 time=0@note_on channel=9 note=35 velocity=0 time=0.0208333125@note_on channel=9 note=40 velocity=0 time=0@note_on channel=1 note=62 velocity=0 time=0.062499937500000005@note_on channel=0 note=72 velocity=80 time=0.08333325@note_on channel=0 note=76 velocity=80 time=0@note_on channel=1 note=64 velocity=80 time=0@note_on channel=3 note=40 velocity=0 time=0@note_on channel=3 note=43 velocity=50 time=0@note_on channel=0 note=72 velocity=0 time=0.0208333125@note_on channel=0 note=76 velocity=0 time=0@note_on channel=9 note=35 velocity=80 time=0.14583318750000002@note_on channel=3 note=43 velocity=0 time=0@note_on channel=3 note=36 velocity=50 time=0@note_on channel=9 note=35 velocity=0 time=0.0208333125@note_on channel=1 note=64 velocity=0 time=0.062499937500000005@note_on channel=0 note=72 velocity=80 time=0.08333325@note_on channel=0 note=76 velocity=80 time=0@note_on channel=0 note=72 velocity=0 time=0.0208333125@note_on channel=0 note=76 velocity=0 time=0@note_on channel=1 note=62 velocity=80 time=0.14583318750000002@note_on channel=9 note=35 velocity=80 time=0@note_on channel=9 note=40 velocity=80 time=0@note_on channel=3 note=36 velocity=0 time=0@note_on channel=3 note=40 velocity=50 time=0@note_on channel=9 note=35 velocity=0 time=0.0208333125@note_on channel=9 note=40 velocity=0 time=0@note_on channel=1 note=62 velocity=0 time=0.08333325@note_on channel=0 note=72 velocity=80 time=0.062499937500000005@note_on channel=0 note=76 velocity=80 time=0@note_on channel=0 note=72 velocity=0 time=0.0208333125@note_on channel=0 note=76 velocity=0 time=0@note_on channel=1 note=60 velocity=80 time=0.14583318750000002@note_on channel=9 note=35 velocity=80 time=0@note_on channel=3 note=40 velocity=0 time=0@note_on channel=3 note=43 velocity=50 time=0@note_on channel=9 note=35 velocity=0 time=0.0208333125@note_on channel=1 note=60 velocity=0 time=0.08333325@note_on channel=0 note=72 velocity=80 time=0.062499937500000005@note_on channel=0 note=76 velocity=80 time=0@note_on channel=0 note=72 velocity=0 time=0.0208333125@note_on channel=0 note=76 velocity=0 time=0@note_on channel=1 note=59 velocity=80 time=0.14583318750000002@note_on channel=9 note=35 velocity=80 time=0@note_on channel=9 note=40 velocity=80 time=0@note_on channel=3 note=43 velocity=0 time=0@note_on channel=3 note=40 velocity=50 time=0@note_on channel=9 note=35 velocity=0 time=0.0208333125@note_on channel=9 note=40 velocity=0 time=0@note_on channel=1 note=59 velocity=0 time=0.08333325@note_on channel=0 note=72 velocity=80 time=0.062499937500000005@note_on channel=0 note=76 velocity=80 time=0@note_on channel=3 note=40 velocity=0 time=0@note_on channel=3 note=43 velocity=50 time=0@note_on channel=0 note=72 velocity=0 time=0.0208333125@note_on channel=0 note=76 velocity=0 time=0@note_on channel=1 note=57 velocity=80 time=0.14583318750000002@note_on channel=9 note=35 velocity=80 time=0@note_on channel=3 note=43 velocity=0 time=0@note_on channel=3 note=33 velocity=50 time=0@note_on channel=9 note=35 velocity=0 time=0.0208333125@note_on channel=0 note=69 velocity=80 time=0.14583318750000002@note_on channel=0 note=72 velocity=80 time=0@note_on channel=1 note=57 velocity=0 time=0@note_on channel=0 note=69 velocity=0 time=0.0208333125@note_on channel=0 note=72 velocity=0 time=0@note_on channel=1 note=57 velocity=80 time=0.14583318750000002@note_on channel=9 note=35 velocity=80 time=0@note_on channel=9 note=40 velocity=80 time=0@note_on channel=3 note=33 velocity=0 time=0@note_on channel=3 note=36 velocity=50 time=0@note_on channel=9 note=35 velocity=0 time=0.0208333125@note_on channel=9 note=40 velocity=0 time=0@note_on channel=1 note=57 velocity=0 time=0.062499937500000005@note_on channel=0 note=69 velocity=80 time=0.08333325@note_on channel=0 note=72 velocity=80 time=0@note_on channel=1 note=55 velocity=80 time=0@note_on channel=0 note=69 velocity=0 time=0.0208333125@note_on channel=0 note=72 velocity=0 time=0@note_on channel=1 note=55 velocity=0 time=0.08333325@note_on channel=1 note=57 velocity=80 time=0.062499937500000005@note_on channel=9 note=35 velocity=80 time=0@note_on channel=3 note=36 velocity=0 time=0@note_on channel=3 note=40 velocity=50 time=0@note_on channel=9 note=35 velocity=0 time=0.0208333125@note_on channel=1 note=57 velocity=0 time=0.08333325@note_on channel=0 note=69 velocity=80 time=0.062499937500000005@note_on channel=0 note=72 velocity=80 time=0@note_on channel=1 note=57 velocity=80 time=0@note_on channel=0 note=69 velocity=0 time=0.0208333125@note_on channel=0 note=72 velocity=0 time=0@note_on channel=1 note=57 velocity=0 time=0.08333325@note_on channel=1 note=60 velocity=80 time=0.062499937500000005@note_on channel=9 note=35 velocity=80 time=0@note_on channel=9 note=40 velocity=80 time=0@note_on channel=3 note=40 velocity=0 time=0@note_on channel=3 note=36 velocity=50 time=0@note_on channel=9 note=35 velocity=0 time=0.0208333125@note_on channel=9 note=40 velocity=0 time=0@note_on channel=1 note=60 velocity=0 time=0.08333325@note_on channel=0 note=69 velocity=80 time=0.062499937500000005@note_on channel=0 note=72 velocity=80 time=0@note_on channel=1 note=57 velocity=80 time=0@note_on channel=3 note=36 velocity=0 time=0@note_on channel=3 note=40 velocity=50 time=0@note_on channel=0 note=69 velocity=0 time=0.0208333125@note_on channel=0 note=72 velocity=0 time=0@note_on channel=9 note=35 velocity=80 time=0.14583318750000002@note_on channel=3 note=40 velocity=0 time=0@note_on channel=3 note=33 velocity=50 time=0@note_on channel=9 note=35 velocity=0 time=0.0208333125@note_on channel=0 note=69 velocity=80 time=0.14583318750000002@note_on channel=0 note=72 velocity=80 time=0@note_on channel=0 note=69 velocity=0 time=0.0208333125@note_on channel=0 note=72 velocity=0 time=0@note_on channel=1 note=57 velocity=0 time=0.14583318750000002@note_on channel=9 note=35 velocity=80 time=0@note_on channel=9 note=40 velocity=80 time=0@note_on channel=3 note=33 velocity=0 time=0@note_on channel=3 note=36 velocity=50 time=0@note_on channel=9 note=35 velocity=0 time=0.0208333125@note_on channel=9 note=40 velocity=0 time=0@note_on channel=0 note=69 velocity=80 time=0.14583318750000002@note_on channel=0 note=72 velocity=80 time=0@note_on channel=0 note=69 velocity=0 time=0.0208333125@note_on channel=0 note=72 velocity=0 time=0@note_on channel=9 note=35 velocity=80 time=0.14583318750000002@note_on channel=3 note=36 velocity=0 time=0@note_on channel=3 note=40 velocity=50 time=0@note_on channel=9 note=35 velocity=0 time=0.0208333125@note_on channel=0 note=69 velocity=80 time=0.14583318750000002@note_on channel=0 note=72 velocity=80 time=0@note_on channel=0 note=69 velocity=0 time=0.0208333125@note_on channel=0 note=72 velocity=0 time=0@note_on channel=9 note=35 velocity=80 time=0.14583318750000002@note_on channel=9 note=40 velocity=80 time=0@note_on channel=3 note=40 velocity=0 time=0@note_on channel=3 note=36 velocity=50 time=0@note_on channel=9 note=35 velocity=0 time=0.0208333125@note_on channel=9 note=40 velocity=0 time=0@note_on channel=0 note=69 velocity=80 time=0.14583318750000002@note_on channel=0 note=72 velocity=80 time=0@note_on channel=3 note=36 velocity=0 time=0@note_on channel=3 note=40 velocity=50 time=0@note_on channel=0 note=69 velocity=0 time=0.0208333125@note_on channel=0 note=72 velocity=0 time=0@note_on channel=1 note=60 velocity=80 time=0.14583318750000002@note_on channel=9 note=35 velocity=80 time=0@note_on channel=3 note=40 velocity=0 time=0@note_on channel=3 note=29 velocity=50 time=0@note_on channel=9 note=35 velocity=0 time=0.0208333125@note_on channel=0 note=69 velocity=80 time=0.14583318750000002@note_on channel=0 note=72 velocity=80 time=0@note_on channel=1 note=60 velocity=0 time=0@note_on channel=0 note=69 velocity=0 time=0.0208333125@note_on channel=0 note=72 velocity=0 time=0@note_on channel=1 note=60 velocity=80 time=0.14583318750000002@note_on channel=9 note=35 velocity=80 time=0@note_on channel=9 note=40 velocity=80 time=0@note_on channel=3 note=29 velocity=0 time=0@note_on channel=3 note=33 velocity=50 time=0@note_on channel=9 note=35 velocity=0 time=0.0208333125@note_on channel=9 note=40 velocity=0 time=0@note_on channel=1 note=60 velocity=0 time=0.08333325@note_on channel=0 note=69 velocity=80 time=0.062499937500000005@note_on channel=0 note=72 velocity=80 time=0@note_on channel=1 note=59 velocity=80 time=0@note_on channel=0 note=69 velocity=0 time=0.0208333125@note_on channel=0 note=72 velocity=0 time=0@note_on channel=1 note=59 velocity=0 time=0.08333325@note_on channel=1 note=60 velocity=80 time=0.062499937500000005@note_on channel=9 note=35 velocity=80 time=0@note_on channel=3 note=33 velocity=0 time=0@note_on channel=3 note=36 velocity=50 time=0@note_on channel=9 note=35 velocity=0 time=0.0208333125@note_on channel=1 note=60 velocity=0 time=0.08333325@note_on channel=0 note=69 velocity=80 time=0.062499937500000005@note_on channel=0 note=72 velocity=80 time=0@note_on channel=1 note=60 velocity=80 time=0@note_on channel=0 note=69 velocity=0 time=0.0208333125@note_on channel=0 note=72 velocity=0 time=0@note_on channel=1 note=60 velocity=0 time=0.08333325@note_on channel=9 note=35 velocity=80 time=0.062499937500000005@note_on channel=9 note=40 velocity=80 time=0@note_on channel=3 note=36 velocity=0 time=0@note_on channel=3 note=33 velocity=50 time=0@note_on channel=9 note=35 velocity=0 time=0.0208333125@note_on channel=9 note=40 velocity=0 time=0@note_on channel=0 note=69 velocity=80 time=0.14583318750000002@note_on channel=0 note=72 velocity=80 time=0@note_on channel=1 note=57 velocity=80 time=0@note_on channel=3 note=33 velocity=0 time=0@note_on channel=3 note=36 velocity=50 time=0@note_on channel=0 note=69 velocity=0 time=0.0208333125@note_on channel=0 note=72 velocity=0 time=0@note_on channel=9 note=35 velocity=80 time=0.14583318750000002@note_on channel=3 note=36 velocity=0 time=0@note_on channel=3 note=29 velocity=50 time=0@note_on channel=9 note=35 velocity=0 time=0.0208333125@note_on channel=0 note=69 velocity=80 time=0.14583318750000002@note_on channel=0 note=72 velocity=80 time=0@note_on channel=1 note=57 velocity=0 time=0@note_on channel=0 note=69 velocity=0 time=0.0208333125@note_on channel=0 note=72 velocity=0 time=0@note_on channel=1 note=57 velocity=80 time=0.14583318750000002@note_on channel=9 note=35 velocity=80 time=0@note_on channel=9 note=40 velocity=80 time=0@note_on channel=3 note=29 velocity=0 time=0@note_on channel=3 note=33 velocity=50 time=0@note_on channel=9 note=35 velocity=0 time=0.0208333125@note_on channel=9 note=40 velocity=0 time=0@note_on channel=1 note=57 velocity=0 time=0.08333325@note_on channel=0 note=69 velocity=80 time=0.062499937500000005@note_on channel=0 note=72 velocity=80 time=0@note_on channel=0 note=69 velocity=0 time=0.0208333125@note_on channel=0 note=72 velocity=0 time=0@note_on channel=1 note=60 velocity=80 time=0.14583318750000002@note_on channel=9 note=35 velocity=80 time=0@note_on channel=3 note=33 velocity=0 time=0@note_on channel=3 note=36 velocity=50 time=0@note_on channel=9 note=35 velocity=0 time=0.0208333125@note_on channel=1 note=60 velocity=0 time=0.08333325@note_on channel=0 note=69 velocity=80 time=0.062499937500000005@note_on channel=0 note=72 velocity=80 time=0@note_on channel=0 note=69 velocity=0 time=0.0208333125@note_on channel=0 note=72 velocity=0 time=0@note_on channel=1 note=62 velocity=80 time=0.14583318750000002@note_on channel=9 note=35 velocity=80 time=0@note_on channel=9 note=40 velocity=80 time=0@note_on channel=3 note=36 velocity=0 time=0@note_on channel=3 note=33 velocity=50 time=0@note_on channel=9 note=35 velocity=0 time=0.0208333125@note_on channel=9 note=40 velocity=0 time=0@note_on channel=1 note=62 velocity=0 time=0.08333325@note_on channel=0 note=69 velocity=80 time=0.062499937500000005@note_on channel=0 note=72 velocity=80 time=0@note_on channel=3 note=33 velocity=0 time=0@note_on channel=3 note=36 velocity=50 time=0@note_on channel=0 note=69 velocity=0 time=0.0208333125@note_on channel=0 note=72 velocity=0 time=0@note_on channel=1 note=64 velocity=80 time=0.14583318750000002@note_on channel=9 note=35 velocity=80 time=0@note_on channel=3 note=36 velocity=0 time=0@note_on channel=3 note=31 velocity=50 time=0@note_on channel=9 note=35 velocity=0 time=0.0208333125@note_on channel=0 note=71 velocity=80 time=0.14583318750000002@note_on channel=0 note=74 velocity=80 time=0@note_on channel=1 note=64 velocity=0 time=0@note_on channel=0 note=71 velocity=0 time=0.0208333125@note_on channel=0 note=74 velocity=0 time=0@note_on channel=1 note=64 velocity=80 time=0.14583318750000002@note_on channel=9 note=35 velocity=80 time=0@note_on channel=9 note=40 velocity=80 time=0@note_on channel=3 note=31 velocity=0 time=0@note_on channel=3 note=35 velocity=50 time=0@note_on channel=9 note=35 velocity=0 time=0.0208333125@note_on channel=9 note=40 velocity=0 time=0@note_on channel=1 note=64 velocity=0 time=0.08333325@note_on channel=0 note=71 velocity=80 time=0.062499937500000005@note_on channel=0 note=74 velocity=80 time=0@note_on channel=1 note=62 velocity=80 time=0@note_on channel=0 note=71 velocity=0 time=0.0208333125@note_on channel=0 note=74 velocity=0 time=0@note_on channel=1 note=62 velocity=0 time=0.08333325@note_on channel=1 note=64 velocity=80 time=0.062499937500000005@note_on channel=9 note=35 velocity=80 time=0@note_on channel=3 note=35 velocity=0 time=0@note_on channel=3 note=38 velocity=50 time=0@note_on channel=9 note=35 velocity=0 time=0.0208333125@note_on channel=1 note=64 velocity=0 time=0.08333325@note_on channel=0 note=71 velocity=80 time=0.062499937500000005@note_on channel=0 note=74 velocity=80 time=0@note_on channel=0 note=71 velocity=0 time=0.0208333125@note_on channel=0 note=74 velocity=0 time=0@note_on channel=1 note=65 velocity=80 time=0.14583318750000002@note_on channel=9 note=35 velocity=80 time=0@note_on channel=9 note=40 velocity=80 time=0@note_on channel=3 note=38 velocity=0 time=0@note_on channel=3 note=35 velocity=50 time=0@note_on channel=9 note=35 velocity=0 time=0.0208333125@note_on channel=9 note=40 velocity=0 time=0@note_on channel=1 note=65 velocity=0 time=0.12499987500000001@note_on channel=0 note=71 velocity=80 time=0.0208333125@note_on channel=0 note=74 velocity=80 time=0@note_on channel=3 note=35 velocity=0 time=0@note_on channel=3 note=38 velocity=50 time=0@note_on channel=0 note=71 velocity=0 time=0.0208333125@note_on channel=0 note=74 velocity=0 time=0@note_on channel=1 note=64 velocity=80 time=0.14583318750000002@note_on channel=1 note=76 velocity=80 time=0@note_on channel=9 note=35 velocity=80 time=0@note_on channel=9 note=57 velocity=80 time=0@note_on channel=3 note=38 velocity=0 time=0@note_on channel=3 note=40 velocity=50 time=0@note_on channel=9 note=35 velocity=0 time=0.0208333125@note_on channel=9 note=57 velocity=0 time=0@note_on channel=0 note=71 velocity=80 time=0.14583318750000002@note_on channel=0 note=74 velocity=80 time=0@note_on channel=9 note=40 velocity=80 time=0@note_on channel=0 note=71 velocity=0 time=0.0208333125@note_on channel=0 note=74 velocity=0 time=0@note_on channel=9 note=40 velocity=0 time=0@note_on channel=9 note=40 velocity=80 time=0.041666625@note_on channel=9 note=40 velocity=0 time=0.0208333125@note_on channel=9 note=40 velocity=80 time=0.062499937500000005@note_on channel=9 note=40 velocity=0 time=0.0208333125@note_on channel=3 note=40 velocity=0 time=0.08333325@note_on channel=0 note=71 velocity=80 time=0.08333325@note_on channel=0 note=74 velocity=80 time=0@note_on channel=1 note=64 velocity=0 time=0@note_on channel=1 note=76 velocity=0 time=0@note_on channel=9 note=40 velocity=80 time=0@note_on channel=0 note=71 velocity=0 time=0.0208333125@note_on channel=0 note=74 velocity=0 time=0@note_on channel=9 note=40 velocity=0 time=0@note_on channel=1 note=64 velocity=80 time=0.14583318750000002@note_on channel=1 note=76 velocity=80 time=0@note_on channel=9 note=35 velocity=80 time=0@note_on channel=9 note=57 velocity=80 time=0@note_on channel=3 note=40 velocity=50 time=0@note_on channel=9 note=35 velocity=0 time=0.0208333125@note_on channel=9 note=57 velocity=0 time=0@note_on channel=0 note=71 velocity=80 time=0.14583318750000002@note_on channel=0 note=74 velocity=80 time=0@note_on channel=9 note=40 velocity=80 time=0@note_on channel=0 note=71 velocity=0 time=0.0208333125@note_on channel=0 note=74 velocity=0 time=0@note_on channel=9 note=40 velocity=0 time=0@note_on channel=9 note=40 velocity=80 time=0.041666625@note_on channel=9 note=40 velocity=0 time=0.0208333125@note_on channel=9 note=40 velocity=80 time=0.062499937500000005@note_on channel=9 note=40 velocity=0 time=0.0208333125@note_on channel=3 note=40 velocity=0 time=0.08333325@note_on channel=0 note=71 velocity=80 time=0.08333325@note_on channel=0 note=74 velocity=80 time=0@note_on channel=1 note=64 velocity=0 time=0@note_on channel=1 note=76 velocity=0 time=0@note_on channel=9 note=40 velocity=80 time=0@note_on channel=0 note=71 velocity=0 time=0.0208333125@note_on channel=0 note=74 velocity=0 time=0@note_on channel=9 note=40 velocity=0 time=0@note_on channel=9 note=35 velocity=80 time=0.14583318750000002@note_on channel=2 note=96 velocity=80 time=0@note_on channel=3 note=36 velocity=50 time=0@note_on channel=9 note=35 velocity=0 time=0.0208333125@note_on channel=2 note=96 velocity=0 time=0.062499937500000005@note_on channel=0 note=72 velocity=80 time=0.08333325@note_on channel=0 note=76 velocity=80 time=0@note_on channel=0 note=72 velocity=0 time=0.0208333125@note_on channel=0 note=76 velocity=0 time=0@note_on channel=9 note=35 velocity=80 time=0.14583318750000002@note_on channel=9 note=40 velocity=80 time=0@note_on channel=2 note=96 velocity=80 time=0@note_on channel=3 note=36 velocity=0 time=0@note_on channel=3 note=40 velocity=50 time=0@note_on channel=9 note=35 velocity=0 time=0.0208333125@note_on channel=9 note=40 velocity=0 time=0@note_on channel=2 note=96 velocity=0 time=0.062499937500000005@note_on channel=0 note=72 velocity=80 time=0.08333325@note_on channel=0 note=76 velocity=80 time=0@note_on channel=2 note=95 velocity=80 time=0@note_on channel=0 note=72 velocity=0 time=0.0208333125@note_on channel=0 note=76 velocity=0 time=0@note_on channel=2 note=95 velocity=0 time=0.062499937500000005@note_on channel=9 note=35 velocity=80 time=0.08333325@note_on channel=2 note=96 velocity=80 time=0@note_on channel=3 note=40 velocity=0 time=0@note_on channel=3 note=43 velocity=50 time=0@note_on channel=9 note=35 velocity=0 time=0.0208333125@note_on channel=2 note=96 velocity=0 time=0.062499937500000005@note_on channel=0 note=72 velocity=80 time=0.08333325@note_on channel=0 note=76 velocity=80 time=0@note_on channel=2 note=96 velocity=80 time=0@note_on channel=0 note=72 velocity=0 time=0.0208333125@note_on channel=0 note=76 velocity=0 time=0@note_on channel=2 note=96 velocity=0 time=0.062499937500000005@note_on channel=9 note=35 velocity=80 time=0.08333325@note_on channel=9 note=40 velocity=80 time=0@note_on channel=2 note=98 velocity=80 time=0@note_on channel=3 note=43 velocity=0 time=0@note_on channel=3 note=40 velocity=50 time=0@note_on channel=9 note=35 velocity=0 time=0.0208333125@note_on channel=9 note=40 velocity=0 time=0@note_on channel=2 note=98 velocity=0 time=0.062499937500000005@note_on channel=0 note=72 velocity=80 time=0.08333325@note_on channel=0 note=76 velocity=80 time=0@note_on channel=2 note=100 velocity=80 time=0@note_on channel=3 note=40 velocity=0 time=0@note_on channel=3 note=43 velocity=50 time=0@note_on channel=0 note=72 velocity=0 time=0.0208333125@note_on channel=0 note=76 velocity=0 time=0@note_on channel=9 note=35 velocity=80 time=0.14583318750000002@note_on channel=3 note=43 velocity=0 time=0@note_on channel=3 note=36 velocity=50 time=0@note_on channel=9 note=35 velocity=0 time=0.0208333125@note_on channel=0 note=72 velocity=80 time=0.14583318750000002@note_on channel=0 note=76 velocity=80 time=0@note_on channel=2 note=100 velocity=0 time=0@note_on channel=0 note=72 velocity=0 time=0.0208333125@note_on channel=0 note=76 velocity=0 time=0@note_on channel=9 note=35 velocity=80 time=0.14583318750000002@note_on channel=9 note=40 velocity=80 time=0@note_on channel=2 note=98 velocity=80 time=0@note_on channel=3 note=36 velocity=0 time=0@note_on channel=3 note=40 velocity=50 time=0@note_on channel=9 note=35 velocity=0 time=0.0208333125@note_on channel=9 note=40 velocity=0 time=0@note_on channel=2 note=98 velocity=0 time=0.08333325@note_on channel=0 note=72 velocity=80 time=0.062499937500000005@note_on channel=0 note=76 velocity=80 time=0@note_on channel=0 note=72 velocity=0 time=0.0208333125@note_on channel=0 note=76 velocity=0 time=0@note_on channel=9 note=35 velocity=80 time=0.14583318750000002@note_on channel=2 note=96 velocity=80 time=0@note_on channel=3 note=40 velocity=0 time=0@note_on channel=3 note=43 velocity=50 time=0@note_on channel=9 note=35 velocity=0 time=0.0208333125@note_on channel=2 note=96 velocity=0 time=0.08333325@note_on channel=0 note=72 velocity=80 time=0.062499937500000005@note_on channel=0 note=76 velocity=80 time=0@note_on channel=0 note=72 velocity=0 time=0.0208333125@note_on channel=0 note=76 velocity=0 time=0@note_on channel=9 note=35 velocity=80 time=0.14583318750000002@note_on channel=9 note=40 velocity=80 time=0@note_on channel=2 note=95 velocity=80 time=0@note_on channel=3 note=43 velocity=0 time=0@note_on channel=3 note=40 velocity=50 time=0@note_on channel=9 note=35 velocity=0 time=0.0208333125@note_on channel=9 note=40 velocity=0 time=0@note_on channel=2 note=95 velocity=0 time=0.08333325@note_on channel=0 note=72 velocity=80 time=0.062499937500000005@note_on channel=0 note=76 velocity=80 time=0@note_on channel=3 note=40 velocity=0 time=0@note_on channel=3 note=43 velocity=50 time=0@note_on channel=0 note=72 velocity=0 time=0.0208333125@note_on channel=0 note=76 velocity=0 time=0@note_on channel=9 note=35 velocity=80 time=0.14583318750000002@note_on channel=2 note=93 velocity=80 time=0@note_on channel=3 note=43 velocity=0 time=0@note_on channel=3 note=33 velocity=50 time=0@note_on channel=9 note=35 velocity=0 time=0.0208333125@note_on channel=2 note=93 velocity=0 time=0.08333325@note_on channel=0 note=69 velocity=80 time=0.062499937500000005@note_on channel=0 note=72 velocity=80 time=0@note_on channel=0 note=69 velocity=0 time=0.0208333125@note_on channel=0 note=72 velocity=0 time=0@note_on channel=9 note=35 velocity=80 time=0.14583318750000002@note_on channel=9 note=40 velocity=80 time=0@note_on channel=2 note=93 velocity=80 time=0@note_on channel=3 note=33 velocity=0 time=0@note_on channel=3 note=36 velocity=50 time=0@note_on channel=9 note=35 velocity=0 time=0.0208333125@note_on channel=9 note=40 velocity=0 time=0@note_on channel=2 note=93 velocity=0 time=0.062499937500000005@note_on channel=0 note=69 velocity=80 time=0.08333325@note_on channel=0 note=72 velocity=80 time=0@note_on channel=2 note=91 velocity=80 time=0@note_on channel=0 note=69 velocity=0 time=0.0208333125@note_on channel=0 note=72 velocity=0 time=0@note_on channel=2 note=91 velocity=0 time=0.062499937500000005@note_on channel=9 note=35 velocity=80 time=0.08333325@note_on channel=2 note=93 velocity=80 time=0@note_on channel=3 note=36 velocity=0 time=0@note_on channel=3 note=40 velocity=50 time=0@note_on channel=9 note=35 velocity=0 time=0.0208333125@note_on channel=2 note=93 velocity=0 time=0.062499937500000005@note_on channel=0 note=69 velocity=80 time=0.08333325@note_on channel=0 note=72 velocity=80 time=0@note_on channel=2 note=93 velocity=80 time=0@note_on channel=0 note=69 velocity=0 time=0.0208333125@note_on channel=0 note=72 velocity=0 time=0@note_on channel=2 note=93 velocity=0 time=0.062499937500000005@note_on channel=9 note=35 velocity=80 time=0.08333325@note_on channel=9 note=40 velocity=80 time=0@note_on channel=2 note=100 velocity=80 time=0@note_on channel=3 note=40 velocity=0 time=0@note_on channel=3 note=36 velocity=50 time=0@note_on channel=9 note=35 velocity=0 time=0.0208333125@note_on channel=9 note=40 velocity=0 time=0@note_on channel=2 note=100 velocity=0 time=0.08333325@note_on channel=0 note=69 velocity=80 time=0.062499937500000005@note_on channel=0 note=72 velocity=80 time=0@note_on channel=2 note=93 velocity=80 time=0@note_on channel=3 note=36 velocity=0 time=0@note_on channel=3 note=40 velocity=50 time=0@note_on channel=0 note=69 velocity=0 time=0.0208333125@note_on channel=0 note=72 velocity=0 time=0@note_on channel=9 note=35 velocity=80 time=0.14583318750000002@note_on channel=3 note=40 velocity=0 time=0@note_on channel=3 note=33 velocity=50 time=0@note_on channel=9 note=35 velocity=0 time=0.0208333125@note_on channel=0 note=69 velocity=80 time=0.14583318750000002@note_on channel=0 note=72 velocity=80 time=0@note_on channel=0 note=69 velocity=0 time=0.0208333125@note_on channel=0 note=72 velocity=0 time=0@note_on channel=9 note=35 velocity=80 time=0.14583318750000002@note_on channel=9 note=40 velocity=80 time=0@note_on channel=3 note=33 velocity=0 time=0@note_on channel=3 note=36 velocity=50 time=0@note_on channel=9 note=35 velocity=0 time=0.0208333125@note_on channel=9 note=40 velocity=0 time=0@note_on channel=0 note=69 velocity=80 time=0.14583318750000002@note_on channel=0 note=72 velocity=80 time=0@note_on channel=2 note=93 velocity=0 time=0@note_on channel=0 note=69 velocity=0 time=0.0208333125@note_on channel=0 note=72 velocity=0 time=0@note_on channel=9 note=35 velocity=80 time=0.14583318750000002@note_on channel=3 note=36 velocity=0 time=0@note_on channel=3 note=40 velocity=50 time=0@note_on channel=9 note=35 velocity=0 time=0.0208333125@note_on channel=0 note=69 velocity=80 time=0.14583318750000002@note_on channel=0 note=72 velocity=80 time=0@note_on channel=2 note=93 velocity=80 time=0@note_on channel=0 note=69 velocity=0 time=0.0208333125@note_on channel=0 note=72 velocity=0 time=0@note_on channel=2 note=93 velocity=0 time=0.08333325@note_on channel=9 note=35 velocity=80 time=0.062499937500000005@note_on channel=9 note=40 velocity=80 time=0@note_on channel=2 note=91 velocity=80 time=0@note_on channel=3 note=40 velocity=0 time=0@note_on channel=3 note=36 velocity=50 time=0@note_on channel=9 note=35 velocity=0 time=0.0208333125@note_on channel=9 note=40 velocity=0 time=0@note_on channel=2 note=91 velocity=0 time=0.062499937500000005@note_on channel=0 note=69 velocity=80 time=0.08333325@note_on channel=0 note=72 velocity=80 time=0@note_on channel=2 note=93 velocity=80 time=0@note_on channel=3 note=36 velocity=0 time=0@note_on channel=3 note=40 velocity=50 time=0@note_on channel=0 note=69 velocity=0 time=0.0208333125@note_on channel=0 note=72 velocity=0 time=0@note_on channel=9 note=35 velocity=80 time=0.14583318750000002@note_on channel=3 note=40 velocity=0 time=0@note_on channel=3 note=29 velocity=50 time=0@note_on channel=9 note=35 velocity=0 time=0.0208333125@note_on channel=0 note=69 velocity=80 time=0.14583318750000002@note_on channel=0 note=72 velocity=80 time=0@note_on channel=0 note=69 velocity=0 time=0.0208333125@note_on channel=0 note=72 velocity=0 time=0@note_on channel=9 note=35 velocity=80 time=0.14583318750000002@note_on channel=9 note=40 velocity=80 time=0@note_on channel=3 note=29 velocity=0 time=0@note_on channel=3 note=33 velocity=50 time=0@note_on channel=9 note=35 velocity=0 time=0.0208333125@note_on channel=9 note=40 velocity=0 time=0@note_on channel=0 note=69 velocity=80 time=0.14583318750000002@note_on channel=0 note=72 velocity=80 time=0@note_on channel=2 note=93 velocity=0 time=0@note_on channel=0 note=69 velocity=0 time=0.0208333125@note_on channel=0 note=72 velocity=0 time=0@note_on channel=9 note=35 velocity=80 time=0.14583318750000002@note_on channel=3 note=33 velocity=0 time=0@note_on channel=3 note=36 velocity=50 time=0@note_on channel=9 note=35 velocity=0 time=0.0208333125@note_on channel=0 note=69 velocity=80 time=0.14583318750000002@note_on channel=0 note=72 velocity=80 time=0@note_on channel=2 note=93 velocity=80 time=0@note_on channel=0 note=69 velocity=0 time=0.0208333125@note_on channel=0 note=72 velocity=0 time=0@note_on channel=2 note=93 velocity=0 time=0.062499937500000005@note_on channel=9 note=35 velocity=80 time=0.08333325@note_on channel=9 note=40 velocity=80 time=0@note_on channel=2 note=96 velocity=80 time=0@note_on channel=3 note=36 velocity=0 time=0@note_on channel=3 note=33 velocity=50 time=0@note_on channel=9 note=35 velocity=0 time=0.0208333125@note_on channel=9 note=40 velocity=0 time=0@note_on channel=2 note=96 velocity=0 time=0.08333325@note_on channel=0 note=69 velocity=80 time=0.062499937500000005@note_on channel=0 note=72 velocity=80 time=0@note_on channel=2 note=95 velocity=80 time=0@note_on channel=3 note=33 velocity=0 time=0@note_on channel=3 note=36 velocity=50 time=0@note_on channel=0 note=69 velocity=0 time=0.0208333125@note_on channel=0 note=72 velocity=0 time=0@note_on channel=9 note=35 velocity=80 time=0.14583318750000002@note_on channel=3 note=36 velocity=0 time=0@note_on channel=3 note=31 velocity=50 time=0@note_on channel=9 note=35 velocity=0 time=0.0208333125@note_on channel=0 note=71 velocity=80 time=0.14583318750000002@note_on channel=0 note=74 velocity=80 time=0@note_on channel=0 note=71 velocity=0 time=0.0208333125@note_on channel=0 note=74 velocity=0 time=0@note_on channel=9 note=35 velocity=80 time=0.14583318750000002@note_on channel=9 note=40 velocity=80 time=0@note_on channel=3 note=31 velocity=0 time=0@note_on channel=3 note=35 velocity=50 time=0@note_on channel=9 note=35 velocity=0 time=0.0208333125@note_on channel=9 note=40 velocity=0 time=0@note_on channel=0 note=71 velocity=80 time=0.14583318750000002@note_on channel=0 note=74 velocity=80 time=0@note_on channel=2 note=95 velocity=0 time=0@note_on channel=0 note=71 velocity=0 time=0.0208333125@note_on channel=0 note=74 velocity=0 time=0@note_on channel=9 note=35 velocity=80 time=0.14583318750000002@note_on channel=3 note=35 velocity=0 time=0@note_on channel=3 note=38 velocity=50 time=0@note_on channel=9 note=35 velocity=0 time=0.0208333125@note_on channel=0 note=71 velocity=80 time=0.14583318750000002@note_on channel=0 note=74 velocity=80 time=0@note_on channel=2 note=95 velocity=80 time=0@note_on channel=0 note=71 velocity=0 time=0.0208333125@note_on channel=0 note=74 velocity=0 time=0@note_on channel=2 note=95 velocity=0 time=0.062499937500000005@note_on channel=9 note=35 velocity=80 time=0.08333325@note_on channel=9 note=40 velocity=80 time=0@note_on channel=2 note=93 velocity=80 time=0@note_on channel=3 note=38 velocity=0 time=0@note_on channel=3 note=35 velocity=50 time=0@note_on channel=9 note=35 velocity=0 time=0.0208333125@note_on channel=9 note=40 velocity=0 time=0@note_on channel=2 note=93 velocity=0 time=0.08333325@note_on channel=0 note=71 velocity=80 time=0.062499937500000005@note_on channel=0 note=74 velocity=80 time=0@note_on channel=2 note=95 velocity=80 time=0@note_on channel=3 note=35 velocity=0 time=0@note_on channel=3 note=38 velocity=50 time=0@note_on channel=0 note=71 velocity=0 time=0.0208333125@note_on channel=0 note=74 velocity=0 time=0@note_on channel=2 note=95 velocity=0 time=0.08333325@note_on channel=9 note=35 velocity=80 time=0.062499937500000005@note_on channel=2 note=96 velocity=80 time=0@note_on channel=3 note=38 velocity=0 time=0@note_on channel=3 note=36 velocity=50 time=0@note_on channel=9 note=35 velocity=0 time=0.0208333125@note_on channel=0 note=72 velocity=80 time=0.14583318750000002@note_on channel=0 note=76 velocity=80 time=0@note_on channel=0 note=72 velocity=0 time=0.0208333125@note_on channel=0 note=76 velocity=0 time=0@note_on channel=9 note=35 velocity=80 time=0.14583318750000002@note_on channel=9 note=40 velocity=80 time=0@note_on channel=3 note=36 velocity=0 time=0@note_on channel=3 note=40 velocity=50 time=0@note_on channel=9 note=35 velocity=0 time=0.0208333125@note_on channel=9 note=40 velocity=0 time=0@note_on channel=0 note=72 velocity=80 time=0.14583318750000002@note_on channel=0 note=76 velocity=80 time=0@note_on channel=0 note=72 velocity=0 time=0.0208333125@note_on channel=0 note=76 velocity=0 time=0@note_on channel=9 note=35 velocity=80 time=0.14583318750000002@note_on channel=2 note=96 velocity=0 time=0@note_on channel=3 note=40 velocity=0 time=0@note_on channel=3 note=43 velocity=50 time=0@note_on channel=9 note=35 velocity=0 time=0.0208333125@note_on channel=0 note=72 velocity=80 time=0.14583318750000002@note_on channel=0 note=76 velocity=80 time=0@note_on channel=0 note=72 velocity=0 time=0.0208333125@note_on channel=0 note=76 velocity=0 time=0@note_on channel=9 note=35 velocity=80 time=0.14583318750000002@note_on channel=9 note=40 velocity=80 time=0@note_on channel=3 note=43 velocity=0 time=0@note_on channel=3 note=40 velocity=50 time=0@note_on channel=9 note=35 velocity=0 time=0.0208333125@note_on channel=9 note=40 velocity=0 time=0@note_on channel=0 note=72 velocity=80 time=0.14583318750000002@note_on channel=0 note=76 velocity=80 time=0@note_on channel=3 note=40 velocity=0 time=0@note_on channel=3 note=43 velocity=50 time=0@note_on channel=0 note=72 velocity=0 time=0.0208333125@note_on channel=0 note=76 velocity=0 time=0@note_on channel=1 note=55 velocity=80 time=0.14583318750000002@note_on channel=1 note=67 velocity=80 time=0@note_on channel=9 note=35 velocity=80 time=0@note_on channel=3 note=43 velocity=0 time=0@note_on channel=3 note=31 velocity=80 time=0@note_on channel=9 note=35 velocity=0 time=0.0208333125@note_on channel=1 note=55 velocity=0 time=0.22916643750000001@note_on channel=1 note=67 velocity=0 time=0.0208333125@note_on channel=1 note=57 velocity=80 time=0.062499937500000005@note_on channel=1 note=69 velocity=80 time=0@note_on channel=9 note=40 velocity=80 time=0@note_on channel=9 note=57 velocity=80 time=0@note_on channel=3 note=31 velocity=0 time=0@note_on channel=3 note=33 velocity=80 time=0@note_on channel=9 note=40 velocity=0 time=0.0208333125@note_on channel=9 note=57 velocity=0 time=0@note_on channel=9 note=35 velocity=80 time=0.14583318750000002@note_on channel=9 note=35 velocity=0 time=0.0208333125@note_on channel=1 note=57 velocity=0 time=0.08333325@note_on channel=1 note=69 velocity=0 time=0@note_on channel=1 note=58 velocity=80 time=0.062499937500000005@note_on channel=1 note=70 velocity=80 time=0@note_on channel=9 note=40 velocity=80 time=0@note_on channel=9 note=57 velocity=80 time=0@note_on channel=3 note=33 velocity=0 time=0@note_on channel=3 note=34 velocity=80 time=0@note_on channel=9 note=40 velocity=0 time=0.0208333125@note_on channel=9 note=57 velocity=0 time=0@note_on channel=9 note=35 velocity=80 time=0.14583318750000002@note_on channel=9 note=35 velocity=0 time=0.0208333125@note_on channel=1 note=70 velocity=0 time=0.062499937500000005@note_on channel=1 note=58 velocity=0 time=0.041666625@note_on channel=1 note=59 velocity=80 time=0.041666625@note_on channel=1 note=71 velocity=80 time=0@note_on channel=9 note=40 velocity=80 time=0@note_on channel=9 note=57 velocity=80 time=0@note_on channel=3 note=34 velocity=0 time=0@note_on channel=3 note=35 velocity=80 time=0@note_on channel=9 note=40 velocity=0 time=0.0208333125@note_on channel=9 note=57 velocity=0 time=0@note_on channel=9 note=35 velocity=80 time=0.14583318750000002@note_on channel=9 note=35 velocity=0 time=0.0208333125@note_on channel=1 note=59 velocity=0 time=0.08333325@note_on channel=1 note=71 velocity=0 time=0@note_on channel=1 note=64 velocity=80 time=0.062499937500000005@note_on channel=1 note=76 velocity=80 time=0@note_on channel=9 note=35 velocity=80 time=0@note_on channel=3 note=35 velocity=0 time=0@note_on channel=3 note=36 velocity=80 time=0@note_on channel=9 note=35 velocity=0 time=0.0208333125@note_on channel=1 note=64 velocity=0 time=0.041666625@note_on channel=1 note=76 velocity=0 time=0@note_on channel=1 note=64 velocity=80 time=0.1041665625@note_on channel=1 note=76 velocity=80 time=0@note_on channel=1 note=64 velocity=0 time=0.062499937500000005@note_on channel=1 note=76 velocity=0 time=0@note_on channel=3 note=36 velocity=0 time=0.0208333125@note_on channel=1 note=64 velocity=80 time=0.08333325@note_on channel=1 note=76 velocity=80 time=0@note_on channel=9 note=35 velocity=80 time=0@note_on channel=9 note=40 velocity=80 time=0@note_on channel=3 note=36 velocity=80 time=0@note_on channel=9 note=35 velocity=0 time=0.0208333125@note_on channel=9 note=40 velocity=0 time=0@note_on channel=1 note=64 velocity=0 time=0.041666625@note_on channel=1 note=76 velocity=0 time=0@note_on channel=1 note=64 velocity=80 time=0.1041665625@note_on channel=1 note=76 velocity=80 time=0@note_on channel=1 note=64 velocity=0 time=0.062499937500000005@note_on channel=1 note=76 velocity=0 time=0@note_on channel=3 note=36 velocity=0 time=0.0208333125@note_on channel=1 note=64 velocity=80 time=0.08333325@note_on channel=1 note=76 velocity=80 time=0@note_on channel=9 note=35 velocity=80 time=0@note_on channel=3 note=36 velocity=80 time=0@note_on channel=9 note=35 velocity=0 time=0.0208333125@note_on channel=1 note=64 velocity=0 time=0.041666625@note_on channel=1 note=76 velocity=0 time=0@note_on channel=1 note=64 velocity=80 time=0.1041665625@note_on channel=1 note=76 velocity=80 time=0@note_on channel=1 note=64 velocity=0 time=0.062499937500000005@note_on channel=1 note=76 velocity=0 time=0@note_on channel=3 note=36 velocity=0 time=0.0208333125@note_on channel=1 note=64 velocity=80 time=0.08333325@note_on channel=1 note=76 velocity=80 time=0@note_on channel=9 note=35 velocity=80 time=0@note_on channel=9 note=40 velocity=80 time=0@note_on channel=3 note=36 velocity=80 time=0@note_on channel=9 note=35 velocity=0 time=0.0208333125@note_on channel=9 note=40 velocity=0 time=0@note_on channel=1 note=64 velocity=0 time=0.041666625@note_on channel=1 note=76 velocity=0 time=0@note_on channel=1 note=64 velocity=80 time=0.1041665625@note_on channel=1 note=76 velocity=80 time=0@note_on channel=1 note=64 velocity=0 time=0.062499937500000005@note_on channel=1 note=76 velocity=0 time=0@note_on channel=3 note=36 velocity=0 time=0.0208333125@note_on channel=1 note=57 velocity=80 time=0.08333325@note_on channel=1 note=69 velocity=80 time=0@note_on channel=9 note=35 velocity=80 time=0@note_on channel=3 note=33 velocity=80 time=0@note_on channel=9 note=35 velocity=0 time=0.0208333125@note_on channel=1 note=57 velocity=0 time=0.041666625@note_on channel=1 note=69 velocity=0 time=0@note_on channel=1 note=57 velocity=80 time=0.1041665625@note_on channel=1 note=69 velocity=80 time=0@note_on channel=1 note=57 velocity=0 time=0.062499937500000005@note_on channel=1 note=69 velocity=0 time=0@note_on channel=3 note=33 velocity=0 time=0.0208333125@note_on channel=1 note=60 velocity=80 time=0.08333325@note_on channel=1 note=72 velocity=80 time=0@note_on channel=9 note=40 velocity=80 time=0@note_on channel=9 note=57 velocity=80 time=0@note_on channel=3 note=33 velocity=80 time=0@note_on channel=9 note=40 velocity=0 time=0.0208333125@note_on channel=9 note=57 velocity=0 time=0@note_on channel=1 note=60 velocity=0 time=0.041666625@note_on channel=1 note=72 velocity=0 time=0@note_on channel=1 note=57 velocity=80 time=0.1041665625@note_on channel=1 note=69 velocity=80 time=0@note_on channel=9 note=35 velocity=80 time=0@note_on channel=9 note=35 velocity=0 time=0.0208333125@note_on channel=1 note=57 velocity=0 time=0.041666625@note_on channel=1 note=69 velocity=0 time=0@note_on channel=3 note=33 velocity=0 time=0.0208333125@note_on channel=1 note=60 velocity=80 time=0.08333325@note_on channel=1 note=72 velocity=80 time=0@note_on channel=9 note=40 velocity=80 time=0@note_on channel=9 note=57 velocity=80 time=0@note_on channel=3 note=33 velocity=80 time=0@note_on channel=9 note=40 velocity=0 time=0.0208333125@note_on channel=9 note=57 velocity=0 time=0@note_on channel=1 note=60 velocity=0 time=0.041666625@note_on channel=1 note=72 velocity=0 time=0@note_on channel=1 note=57 velocity=80 time=0.1041665625@note_on channel=1 note=69 velocity=80 time=0@note_on channel=9 note=35 velocity=80 time=0@note_on channel=9 note=35 velocity=0 time=0.0208333125@note_on channel=1 note=57 velocity=0 time=0.041666625@note_on channel=1 note=69 velocity=0 time=0@note_on channel=3 note=33 velocity=0 time=0.0208333125@note_on channel=1 note=57 velocity=80 time=0.08333325@note_on channel=1 note=69 velocity=80 time=0@note_on channel=9 note=40 velocity=80 time=0@note_on channel=9 note=57 velocity=80 time=0@note_on channel=3 note=33 velocity=80 time=0@note_on channel=9 note=40 velocity=0 time=0.0208333125@note_on channel=9 note=57 velocity=0 time=0@note_on channel=1 note=57 velocity=0 time=0.041666625@note_on channel=1 note=69 velocity=0 time=0@note_on channel=9 note=35 velocity=80 time=0.1041665625@note_on channel=9 note=35 velocity=0 time=0.0208333125@note_on channel=3 note=33 velocity=0 time=0.062499937500000005@note_on channel=1 note=64 velocity=80 time=0.08333325@note_on channel=1 note=76 velocity=80 time=0@note_on channel=9 note=35 velocity=80 time=0@note_on channel=3 note=36 velocity=80 time=0@note_on channel=9 note=35 velocity=0 time=0.0208333125@note_on channel=1 note=64 velocity=0 time=0.041666625@note_on channel=1 note=76 velocity=0 time=0@note_on channel=1 note=64 velocity=80 time=0.1041665625@note_on channel=1 note=76 velocity=80 time=0@note_on channel=1 note=64 velocity=0 time=0.062499937500000005@note_on channel=1 note=76 velocity=0 time=0@note_on channel=3 note=36 velocity=0 time=0.0208333125@note_on channel=1 note=64 velocity=80 time=0.08333325@note_on channel=1 note=76 velocity=80 time=0@note_on channel=9 note=35 velocity=80 time=0@note_on channel=9 note=40 velocity=80 time=0@note_on channel=3 note=36 velocity=80 time=0@note_on channel=9 note=35 velocity=0 time=0.0208333125@note_on channel=9 note=40 velocity=0 time=0@note_on channel=1 note=64 velocity=0 time=0.041666625@note_on channel=1 note=76 velocity=0 time=0@note_on channel=1 note=64 velocity=80 time=0.1041665625@note_on channel=1 note=76 velocity=80 time=0@note_on channel=1 note=64 velocity=0 time=0.062499937500000005@note_on channel=1 note=76 velocity=0 time=0@note_on channel=3 note=36 velocity=0 time=0.0208333125@note_on channel=1 note=64 velocity=80 time=0.08333325@note_on channel=1 note=76 velocity=80 time=0@note_on channel=9 note=35 velocity=80 time=0@note_on channel=3 note=36 velocity=80 time=0@note_on channel=9 note=35 velocity=0 time=0.0208333125@note_on channel=1 note=64 velocity=0 time=0.041666625@note_on channel=1 note=76 velocity=0 time=0@note_on channel=1 note=64 velocity=80 time=0.1041665625@note_on channel=1 note=76 velocity=80 time=0@note_on channel=1 note=64 velocity=0 time=0.062499937500000005@note_on channel=1 note=76 velocity=0 time=0@note_on channel=3 note=36 velocity=0 time=0.0208333125@note_on channel=1 note=64 velocity=80 time=0.08333325@note_on channel=1 note=76 velocity=80 time=0@note_on channel=9 note=35 velocity=80 time=0@note_on channel=9 note=40 velocity=80 time=0@note_on channel=3 note=36 velocity=80 time=0@note_on channel=9 note=35 velocity=0 time=0.0208333125@note_on channel=9 note=40 velocity=0 time=0@note_on channel=1 note=64 velocity=0 time=0.041666625@note_on channel=1 note=76 velocity=0 time=0@note_on channel=1 note=64 velocity=80 time=0.1041665625@note_on channel=1 note=76 velocity=80 time=0@note_on channel=1 note=64 velocity=0 time=0.062499937500000005@note_on channel=1 note=76 velocity=0 time=0@note_on channel=3 note=36 velocity=0 time=0.0208333125@note_on channel=1 note=57 velocity=80 time=0.08333325@note_on channel=1 note=69 velocity=80 time=0@note_on channel=9 note=35 velocity=80 time=0@note_on channel=3 note=33 velocity=80 time=0@note_on channel=9 note=35 velocity=0 time=0.0208333125@note_on channel=1 note=57 velocity=0 time=0.041666625@note_on channel=1 note=69 velocity=0 time=0@note_on channel=1 note=57 velocity=80 time=0.1041665625@note_on channel=1 note=69 velocity=80 time=0@note_on channel=1 note=57 velocity=0 time=0.062499937500000005@note_on channel=1 note=69 velocity=0 time=0@note_on channel=3 note=33 velocity=0 time=0.0208333125@note_on channel=1 note=60 velocity=80 time=0.08333325@note_on channel=1 note=72 velocity=80 time=0@note_on channel=9 note=40 velocity=80 time=0@note_on channel=9 note=57 velocity=80 time=0@note_on channel=3 note=33 velocity=80 time=0@note_on channel=9 note=40 velocity=0 time=0.0208333125@note_on channel=9 note=57 velocity=0 time=0@note_on channel=1 note=60 velocity=0 time=0.041666625@note_on channel=1 note=72 velocity=0 time=0@note_on channel=1 note=57 velocity=80 time=0.1041665625@note_on channel=1 note=69 velocity=80 time=0@note_on channel=9 note=35 velocity=80 time=0@note_on channel=9 note=35 velocity=0 time=0.0208333125@note_on channel=1 note=57 velocity=0 time=0.041666625@note_on channel=1 note=69 velocity=0 time=0@note_on channel=3 note=33 velocity=0 time=0.0208333125@note_on channel=1 note=60 velocity=80 time=0.08333325@note_on channel=1 note=72 velocity=80 time=0@note_on channel=9 note=40 velocity=80 time=0@note_on channel=9 note=57 velocity=80 time=0@note_on channel=3 note=33 velocity=80 time=0@note_on channel=9 note=40 velocity=0 time=0.0208333125@note_on channel=9 note=57 velocity=0 time=0@note_on channel=1 note=60 velocity=0 time=0.041666625@note_on channel=1 note=72 velocity=0 time=0@note_on channel=1 note=57 velocity=80 time=0.1041665625@note_on channel=1 note=69 velocity=80 time=0@note_on channel=9 note=35 velocity=80 time=0@note_on channel=9 note=35 velocity=0 time=0.0208333125@note_on channel=1 note=57 velocity=0 time=0.041666625@note_on channel=1 note=69 velocity=0 time=0@note_on channel=3 note=33 velocity=0 time=0.0208333125@note_on channel=1 note=57 velocity=80 time=0.08333325@note_on channel=1 note=69 velocity=80 time=0@note_on channel=9 note=40 velocity=80 time=0@note_on channel=9 note=57 velocity=80 time=0@note_on channel=3 note=33 velocity=80 time=0@note_on channel=9 note=40 velocity=0 time=0.0208333125@note_on channel=9 note=57 velocity=0 time=0@note_on channel=1 note=57 velocity=0 time=0.041666625@note_on channel=1 note=69 velocity=0 time=0@note_on channel=9 note=35 velocity=80 time=0.1041665625@note_on channel=9 note=35 velocity=0 time=0.0208333125@note_on channel=3 note=33 velocity=0 time=0.062499937500000005@note_on channel=1 note=53 velocity=80 time=0.08333325@note_on channel=1 note=65 velocity=80 time=0@note_on channel=9 note=35 velocity=80 time=0@note_on channel=3 note=29 velocity=80 time=0@note_on channel=9 note=35 velocity=0 time=0.0208333125@note_on channel=1 note=65 velocity=0 time=0.08333325@note_on channel=1 note=53 velocity=0 time=0.0208333125@note_on channel=1 note=53 velocity=80 time=0.041666625@note_on channel=1 note=65 velocity=80 time=0@note_on channel=1 note=65 velocity=0 time=0.08333325@note_on channel=3 note=29 velocity=0 time=0@note_on channel=1 note=53 velocity=0 time=0.0208333125@note_on channel=1 note=53 velocity=80 time=0.062499937500000005@note_on channel=1 note=65 velocity=80 time=0@note_on channel=9 note=35 velocity=80 time=0@note_on channel=9 note=40 velocity=80 time=0@note_on channel=3 note=29 velocity=80 time=0@note_on channel=9 note=35 velocity=0 time=0.0208333125@note_on channel=9 note=40 velocity=0 time=0@note_on channel=1 note=53 velocity=0 time=0.062499937500000005@note_on channel=1 note=65 velocity=0 time=0.0208333125@note_on channel=1 note=53 velocity=80 time=0.062499937500000005@note_on channel=1 note=65 velocity=80 time=0@note_on channel=3 note=29 velocity=0 time=0.08333325@note_on channel=9 note=35 velocity=80 time=0.08333325@note_on channel=3 note=29 velocity=80 time=0@note_on channel=9 note=35 velocity=0 time=0.0208333125@note_on channel=1 note=53 velocity=0 time=0.1041665625@note_on channel=1 note=65 velocity=0 time=0@note_on channel=1 note=53 velocity=80 time=0.041666625@note_on channel=1 note=65 velocity=80 time=0@note_on channel=1 note=53 velocity=0 time=0.08333325@note_on channel=1 note=65 velocity=0 time=0@note_on channel=3 note=29 velocity=0 time=0@note_on channel=1 note=55 velocity=80 time=0.08333325@note_on channel=1 note=67 velocity=80 time=0@note_on channel=9 note=35 velocity=80 time=0@note_on channel=9 note=40 velocity=80 time=0@note_on channel=3 note=29 velocity=80 time=0@note_on channel=9 note=35 velocity=0 time=0.0208333125@note_on channel=9 note=40 velocity=0 time=0@note_on channel=1 note=67 velocity=0 time=0.062499937500000005@note_on channel=1 note=55 velocity=0 time=0.0208333125@note_on channel=1 note=57 velocity=80 time=0.062499937500000005@note_on channel=1 note=69 velocity=80 time=0@note_on channel=3 note=29 velocity=0 time=0@note_on channel=3 note=33 velocity=80 time=0@note_on channel=1 note=57 velocity=0 time=0.08333325@note_on channel=1 note=69 velocity=0 time=0@note_on channel=1 note=55 velocity=80 time=0.08333325@note_on channel=1 note=67 velocity=80 time=0@note_on channel=9 note=35 velocity=80 time=0@note_on channel=3 note=33 velocity=0 time=0@note_on channel=3 note=31 velocity=80 time=0@note_on channel=9 note=35 velocity=0 time=0.0208333125@note_on channel=3 note=31 velocity=0 time=0.22916643750000001@note_on channel=1 note=55 velocity=0 time=0.0208333125@note_on channel=1 note=67 velocity=0 time=0@note_on channel=1 note=55 velocity=80 time=0.062499937500000005@note_on channel=1 note=67 velocity=80 time=0@note_on channel=9 note=40 velocity=80 time=0@note_on channel=9 note=57 velocity=80 time=0@note_on channel=3 note=31 velocity=80 time=0@note_on channel=9 note=40 velocity=0 time=0.0208333125@note_on channel=9 note=57 velocity=0 time=0@note_on channel=9 note=35 velocity=80 time=0.14583318750000002@note_on channel=9 note=35 velocity=0 time=0.0208333125@note_on channel=3 note=31 velocity=0 time=0.062499937500000005@note_on channel=1 note=55 velocity=0 time=0.0208333125@note_on channel=1 note=67 velocity=0 time=0@note_on channel=1 note=60 velocity=80 time=0.062499937500000005@note_on channel=1 note=72 velocity=80 time=0@note_on channel=9 note=40 velocity=80 time=0@note_on channel=9 note=57 velocity=80 time=0@note_on channel=3 note=36 velocity=80 time=0@note_on channel=9 note=40 velocity=0 time=0.0208333125@note_on channel=9 note=57 velocity=0 time=0@note_on channel=9 note=35 velocity=80 time=0.14583318750000002@note_on channel=9 note=35 velocity=0 time=0.0208333125@note_on channel=3 note=36 velocity=0 time=0.062499937500000005@note_on channel=1 note=60 velocity=0 time=0.0208333125@note_on channel=1 note=72 velocity=0 time=0@note_on channel=1 note=59 velocity=80 time=0.062499937500000005@note_on channel=1 note=71 velocity=80 time=0@note_on channel=9 note=40 velocity=80 time=0@note_on channel=9 note=57 velocity=80 time=0@note_on channel=3 note=35 velocity=80 time=0@note_on channel=9 note=40 velocity=0 time=0.0208333125@note_on channel=9 note=57 velocity=0 time=0@note_on channel=9 note=35 velocity=80 time=0.14583318750000002@note_on channel=9 note=35 velocity=0 time=0.0208333125@note_on channel=3 note=35 velocity=0 time=0.062499937500000005@note_on channel=1 note=59 velocity=0 time=0.0208333125@note_on channel=1 note=71 velocity=0 time=0@note_on channel=1 note=60 velocity=80 time=0.062499937500000005@note_on channel=1 note=72 velocity=80 time=0@note_on channel=9 note=35 velocity=80 time=0@note_on channel=3 note=36 velocity=50 time=0@note_on channel=9 note=35 velocity=0 time=0.0208333125@note_on channel=3 note=36 velocity=0 time=0.14583318750000002@note_on channel=1 note=60 velocity=0 time=0.1666665@note_on channel=1 note=72 velocity=0 time=0@note_on channel=9 note=35 velocity=80 time=0@note_on channel=9 note=40 velocity=80 time=0@note_on channel=3 note=48 velocity=50 time=0@note_on channel=9 note=35 velocity=0 time=0.0208333125@note_on channel=9 note=40 velocity=0 time=0@note_on channel=1 note=60 velocity=80 time=0.14583318750000002@note_on channel=1 note=72 velocity=80 time=0@note_on channel=3 note=48 velocity=0 time=0@note_on channel=3 note=36 velocity=50 time=0@note_on channel=1 note=60 velocity=0 time=0.1041665625@note_on channel=1 note=72 velocity=0 time=0@note_on channel=3 note=36 velocity=0 time=0.0208333125@note_on channel=9 note=35 velocity=80 time=0.041666625@note_on channel=9 note=35 velocity=0 time=0.0208333125@note_on channel=3 note=36 velocity=50 time=0.1041665625@note_on channel=1 note=60 velocity=80 time=0.041666625@note_on channel=1 note=72 velocity=80 time=0@note_on channel=3 note=36 velocity=0 time=0.08333325@note_on channel=1 note=60 velocity=0 time=0.041666625@note_on channel=1 note=72 velocity=0 time=0@note_on channel=9 note=35 velocity=80 time=0.041666625@note_on channel=9 note=40 velocity=80 time=0@note_on channel=3 note=48 velocity=50 time=0@note_on channel=9 note=35 velocity=0 time=0.0208333125@note_on channel=9 note=40 velocity=0 time=0@note_on channel=1 note=60 velocity=80 time=0.14583318750000002@note_on channel=3 note=48 velocity=0 time=0@note_on channel=1 note=72 velocity=80 time=0.0208333125@note_on channel=1 note=60 velocity=0 time=0.08333325@note_on channel=1 note=72 velocity=0 time=0.0208333125@note_on channel=1 note=65 velocity=80 time=0.041666625@note_on channel=1 note=77 velocity=80 time=0@note_on channel=9 note=35 velocity=80 time=0@note_on channel=9 note=57 velocity=80 time=0@note_on channel=3 note=41 velocity=50 time=0@note_on channel=9 note=35 velocity=0 time=0.0208333125@note_on channel=9 note=57 velocity=0 time=0@note_on channel=9 note=40 velocity=80 time=0.14583318750000002@note_on channel=9 note=40 velocity=0 time=0.0208333125@note_on channel=9 note=40 velocity=80 time=0.041666625@note_on channel=9 note=40 velocity=0 time=0.0208333125@note_on channel=9 note=40 velocity=80 time=0.062499937500000005@note_on channel=1 note=65 velocity=0 time=0.0208333125@note_on channel=1 note=77 velocity=0 time=0@note_on channel=9 note=40 velocity=0 time=0@note_on channel=3 note=41 velocity=0 time=0@note_on channel=9 note=40 velocity=80 time=0.1666665@note_on channel=9 note=40 velocity=0 time=0.0208333125@note_on channel=1 note=65 velocity=80 time=0.14583318750000002@note_on channel=1 note=77 velocity=80 time=0@note_on channel=9 note=35 velocity=80 time=0@note_on channel=9 note=57 velocity=80 time=0@note_on channel=3 note=41 velocity=50 time=0@note_on channel=9 note=35 velocity=0 time=0.0208333125@note_on channel=9 note=57 velocity=0 time=0@note_on channel=9 note=40 velocity=80 time=0.14583318750000002@note_on channel=9 note=40 velocity=0 time=0.0208333125@note_on channel=1 note=77 velocity=0 time=0.041666625@note_on channel=9 note=40 velocity=80 time=0@note_on channel=1 note=65 velocity=0 time=0.0208333125@note_on channel=9 note=40 velocity=0 time=0@note_on channel=3 note=41 velocity=0 time=0@note_on channel=9 note=40 velocity=80 time=0.062499937500000005@note_on channel=1 note=63 velocity=80 time=0.0208333125@note_on channel=1 note=75 velocity=80 time=0@note_on channel=9 note=40 velocity=0 time=0@note_on channel=3 note=39 velocity=50 time=0@note_on channel=9 note=40 velocity=80 time=0.1666665@note_on channel=9 note=40 velocity=0 time=0.0208333125@note_on channel=3 note=39 velocity=0 time=0.062499937500000005@note_on channel=1 note=63 velocity=0 time=0.0208333125@note_on channel=1 note=75 velocity=0 time=0@note_on channel=1 note=64 velocity=80 time=0.062499937500000005@note_on channel=1 note=76 velocity=80 time=0@note_on channel=9 note=35 velocity=80 time=0@note_on channel=3 note=36 velocity=80 time=0@note_on channel=9 note=35 velocity=0 time=0.0208333125@note_on channel=1 note=64 velocity=0 time=0.041666625@note_on channel=1 note=76 velocity=0 time=0@note_on channel=1 note=64 velocity=80 time=0.1041665625@note_on channel=1 note=76 velocity=80 time=0@note_on channel=1 note=64 velocity=0 time=0.062499937500000005@note_on channel=1 note=76 velocity=0 time=0@note_on channel=3 note=36 velocity=0 time=0.0208333125@note_on channel=1 note=64 velocity=80 time=0.08333325@note_on channel=1 note=76 velocity=80 time=0@note_on channel=9 note=35 velocity=80 time=0@note_on channel=9 note=40 velocity=80 time=0@note_on channel=3 note=36 velocity=80 time=0@note_on channel=9 note=35 velocity=0 time=0.0208333125@note_on channel=9 note=40 velocity=0 time=0@note_on channel=1 note=64 velocity=0 time=0.041666625@note_on channel=1 note=76 velocity=0 time=0@note_on channel=1 note=64 velocity=80 time=0.1041665625@note_on channel=1 note=76 velocity=80 time=0@note_on channel=1 note=64 velocity=0 time=0.062499937500000005@note_on channel=1 note=76 velocity=0 time=0@note_on channel=3 note=36 velocity=0 time=0.0208333125@note_on channel=1 note=64 velocity=80 time=0.08333325@note_on channel=1 note=76 velocity=80 time=0@note_on channel=9 note=35 velocity=80 time=0@note_on channel=3 note=36 velocity=80 time=0@note_on channel=9 note=35 velocity=0 time=0.0208333125@note_on channel=1 note=64 velocity=0 time=0.041666625@note_on channel=1 note=76 velocity=0 time=0@note_on channel=1 note=64 velocity=80 time=0.1041665625@note_on channel=1 note=76 velocity=80 time=0@note_on channel=1 note=64 velocity=0 time=0.062499937500000005@note_on channel=1 note=76 velocity=0 time=0@note_on channel=3 note=36 velocity=0 time=0.0208333125@note_on channel=1 note=64 velocity=80 time=0.08333325@note_on channel=1 note=76 velocity=80 time=0@note_on channel=9 note=35 velocity=80 time=0@note_on channel=9 note=40 velocity=80 time=0@note_on channel=3 note=36 velocity=80 time=0@note_on channel=9 note=35 velocity=0 time=0.0208333125@note_on channel=9 note=40 velocity=0 time=0@note_on channel=1 note=64 velocity=0 time=0.041666625@note_on channel=1 note=76 velocity=0 time=0@note_on channel=1 note=64 velocity=80 time=0.1041665625@note_on channel=1 note=76 velocity=80 time=0@note_on channel=1 note=64 velocity=0 time=0.062499937500000005@note_on channel=1 note=76 velocity=0 time=0@note_on channel=3 note=36 velocity=0 time=0.0208333125@note_on channel=1 note=57 velocity=80 time=0.08333325@note_on channel=1 note=69 velocity=80 time=0@note_on channel=9 note=35 velocity=80 time=0@note_on channel=3 note=33 velocity=80 time=0@note_on channel=9 note=35 velocity=0 time=0.0208333125@note_on channel=1 note=57 velocity=0 time=0.041666625@note_on channel=1 note=69 velocity=0 time=0@note_on channel=1 note=57 velocity=80 time=0.1041665625@note_on channel=1 note=69 velocity=80 time=0@note_on channel=1 note=57 velocity=0 time=0.062499937500000005@note_on channel=1 note=69 velocity=0 time=0@note_on channel=3 note=33 velocity=0 time=0.0208333125@note_on channel=1 note=60 velocity=80 time=0.08333325@note_on channel=1 note=72 velocity=80 time=0@note_on channel=9 note=40 velocity=80 time=0@note_on channel=9 note=57 velocity=80 time=0@note_on channel=3 note=33 velocity=80 time=0@note_on channel=9 note=40 velocity=0 time=0.0208333125@note_on channel=9 note=57 velocity=0 time=0@note_on channel=1 note=60 velocity=0 time=0.041666625@note_on channel=1 note=72 velocity=0 time=0@note_on channel=1 note=57 velocity=80 time=0.1041665625@note_on channel=1 note=69 velocity=80 time=0@note_on channel=9 note=35 velocity=80 time=0@note_on channel=9 note=35 velocity=0 time=0.0208333125@note_on channel=1 note=57 velocity=0 time=0.041666625@note_on channel=1 note=69 velocity=0 time=0@note_on channel=3 note=33 velocity=0 time=0.0208333125@note_on channel=1 note=60 velocity=80 time=0.08333325@note_on channel=1 note=72 velocity=80 time=0@note_on channel=9 note=40 velocity=80 time=0@note_on channel=9 note=57 velocity=80 time=0@note_on channel=3 note=33 velocity=80 time=0@note_on channel=9 note=40 velocity=0 time=0.0208333125@note_on channel=9 note=57 velocity=0 time=0@note_on channel=1 note=60 velocity=0 time=0.041666625@note_on channel=1 note=72 velocity=0 time=0@note_on channel=1 note=57 velocity=80 time=0.1041665625@note_on channel=1 note=69 velocity=80 time=0@note_on channel=9 note=35 velocity=80 time=0@note_on channel=9 note=35 velocity=0 time=0.0208333125@note_on channel=1 note=57 velocity=0 time=0.041666625@note_on channel=1 note=69 velocity=0 time=0@note_on channel=3 note=33 velocity=0 time=0.0208333125@note_on channel=1 note=57 velocity=80 time=0.08333325@note_on channel=1 note=69 velocity=80 time=0@note_on channel=9 note=40 velocity=80 time=0@note_on channel=9 note=57 velocity=80 time=0@note_on channel=3 note=33 velocity=80 time=0@note_on channel=9 note=40 velocity=0 time=0.0208333125@note_on channel=9 note=57 velocity=0 time=0@note_on channel=1 note=57 velocity=0 time=0.041666625@note_on channel=1 note=69 velocity=0 time=0@note_on channel=9 note=35 velocity=80 time=0.1041665625@note_on channel=9 note=35 velocity=0 time=0.0208333125@note_on channel=3 note=33 velocity=0 time=0.062499937500000005@note_on channel=1 note=64 velocity=80 time=0.08333325@note_on channel=1 note=76 velocity=80 time=0@note_on channel=9 note=35 velocity=80 time=0@note_on channel=3 note=36 velocity=80 time=0@note_on channel=9 note=35 velocity=0 time=0.0208333125@note_on channel=1 note=64 velocity=0 time=0.041666625@note_on channel=1 note=76 velocity=0 time=0@note_on channel=1 note=64 velocity=80 time=0.1041665625@note_on channel=1 note=76 velocity=80 time=0@note_on channel=1 note=64 velocity=0 time=0.062499937500000005@note_on channel=1 note=76 velocity=0 time=0@note_on channel=3 note=36 velocity=0 time=0.0208333125@note_on channel=1 note=64 velocity=80 time=0.08333325@note_on channel=1 note=76 velocity=80 time=0@note_on channel=9 note=35 velocity=80 time=0@note_on channel=9 note=40 velocity=80 time=0@note_on channel=3 note=36 velocity=80 time=0@note_on channel=9 note=35 velocity=0 time=0.0208333125@note_on channel=9 note=40 velocity=0 time=0@note_on channel=1 note=64 velocity=0 time=0.041666625@note_on channel=1 note=76 velocity=0 time=0@note_on channel=1 note=64 velocity=80 time=0.1041665625@note_on channel=1 note=76 velocity=80 time=0@note_on channel=1 note=64 velocity=0 time=0.062499937500000005@note_on channel=1 note=76 velocity=0 time=0@note_on channel=3 note=36 velocity=0 time=0.0208333125@note_on channel=1 note=64 velocity=80 time=0.08333325@note_on channel=1 note=76 velocity=80 time=0@note_on channel=9 note=35 velocity=80 time=0@note_on channel=3 note=36 velocity=80 time=0@note_on channel=9 note=35 velocity=0 time=0.0208333125@note_on channel=1 note=64 velocity=0 time=0.041666625@note_on channel=1 note=76 velocity=0 time=0@note_on channel=1 note=64 velocity=80 time=0.1041665625@note_on channel=1 note=76 velocity=80 time=0@note_on channel=1 note=64 velocity=0 time=0.062499937500000005@note_on channel=1 note=76 velocity=0 time=0@note_on channel=3 note=36 velocity=0 time=0.0208333125@note_on channel=1 note=64 velocity=80 time=0.08333325@note_on channel=1 note=76 velocity=80 time=0@note_on channel=9 note=35 velocity=80 time=0@note_on channel=9 note=40 velocity=80 time=0@note_on channel=3 note=36 velocity=80 time=0@note_on channel=9 note=35 velocity=0 time=0.0208333125@note_on channel=9 note=40 velocity=0 time=0@note_on channel=1 note=64 velocity=0 time=0.041666625@note_on channel=1 note=76 velocity=0 time=0@note_on channel=1 note=64 velocity=80 time=0.1041665625@note_on channel=1 note=76 velocity=80 time=0@note_on channel=1 note=64 velocity=0 time=0.062499937500000005@note_on channel=1 note=76 velocity=0 time=0@note_on channel=3 note=36 velocity=0 time=0.0208333125@note_on channel=1 note=57 velocity=80 time=0.08333325@note_on channel=1 note=69 velocity=80 time=0@note_on channel=9 note=35 velocity=80 time=0@note_on channel=3 note=33 velocity=80 time=0@note_on channel=9 note=35 velocity=0 time=0.0208333125@note_on channel=1 note=57 velocity=0 time=0.041666625@note_on channel=1 note=69 velocity=0 time=0@note_on channel=1 note=57 velocity=80 time=0.1041665625@note_on channel=1 note=69 velocity=80 time=0@note_on channel=1 note=57 velocity=0 time=0.062499937500000005@note_on channel=1 note=69 velocity=0 time=0@note_on channel=3 note=33 velocity=0 time=0.0208333125@note_on channel=1 note=60 velocity=80 time=0.08333325@note_on channel=1 note=72 velocity=80 time=0@note_on channel=9 note=40 velocity=80 time=0@note_on channel=9 note=57 velocity=80 time=0@note_on channel=3 note=33 velocity=80 time=0@note_on channel=9 note=40 velocity=0 time=0.0208333125@note_on channel=9 note=57 velocity=0 time=0@note_on channel=1 note=60 velocity=0 time=0.041666625@note_on channel=1 note=72 velocity=0 time=0@note_on channel=1 note=57 velocity=80 time=0.1041665625@note_on channel=1 note=69 velocity=80 time=0@note_on channel=9 note=35 velocity=80 time=0@note_on channel=9 note=35 velocity=0 time=0.0208333125@note_on channel=1 note=57 velocity=0 time=0.041666625@note_on channel=1 note=69 velocity=0 time=0@note_on channel=3 note=33 velocity=0 time=0.0208333125@note_on channel=1 note=60 velocity=80 time=0.08333325@note_on channel=1 note=72 velocity=80 time=0@note_on channel=9 note=40 velocity=80 time=0@note_on channel=9 note=57 velocity=80 time=0@note_on channel=3 note=33 velocity=80 time=0@note_on channel=9 note=40 velocity=0 time=0.0208333125@note_on channel=9 note=57 velocity=0 time=0@note_on channel=1 note=60 velocity=0 time=0.041666625@note_on channel=1 note=72 velocity=0 time=0@note_on channel=1 note=57 velocity=80 time=0.1041665625@note_on channel=1 note=69 velocity=80 time=0@note_on channel=9 note=35 velocity=80 time=0@note_on channel=9 note=35 velocity=0 time=0.0208333125@note_on channel=1 note=57 velocity=0 time=0.041666625@note_on channel=1 note=69 velocity=0 time=0@note_on channel=3 note=33 velocity=0 time=0.0208333125@note_on channel=1 note=57 velocity=80 time=0.08333325@note_on channel=1 note=69 velocity=80 time=0@note_on channel=9 note=40 velocity=80 time=0@note_on channel=9 note=57 velocity=80 time=0@note_on channel=3 note=33 velocity=80 time=0@note_on channel=9 note=40 velocity=0 time=0.0208333125@note_on channel=9 note=57 velocity=0 time=0@note_on channel=1 note=57 velocity=0 time=0.041666625@note_on channel=1 note=69 velocity=0 time=0@note_on channel=9 note=35 velocity=80 time=0.1041665625@note_on channel=9 note=35 velocity=0 time=0.0208333125@note_on channel=3 note=33 velocity=0 time=0.062499937500000005@note_on channel=1 note=53 velocity=80 time=0.08333325@note_on channel=1 note=65 velocity=80 time=0@note_on channel=9 note=35 velocity=80 time=0@note_on channel=3 note=29 velocity=80 time=0@note_on channel=9 note=35 velocity=0 time=0.0208333125@note_on channel=1 note=65 velocity=0 time=0.08333325@note_on channel=1 note=53 velocity=0 time=0.0208333125@note_on channel=1 note=53 velocity=80 time=0.041666625@note_on channel=1 note=65 velocity=80 time=0@note_on channel=1 note=65 velocity=0 time=0.08333325@note_on channel=3 note=29 velocity=0 time=0@note_on channel=1 note=53 velocity=0 time=0.0208333125@note_on channel=1 note=53 velocity=80 time=0.062499937500000005@note_on channel=1 note=65 velocity=80 time=0@note_on channel=9 note=35 velocity=80 time=0@note_on channel=9 note=40 velocity=80 time=0@note_on channel=3 note=29 velocity=80 time=0@note_on channel=9 note=35 velocity=0 time=0.0208333125@note_on channel=9 note=40 velocity=0 time=0@note_on channel=1 note=53 velocity=0 time=0.062499937500000005@note_on channel=1 note=65 velocity=0 time=0.0208333125@note_on channel=1 note=53 velocity=80 time=0.062499937500000005@note_on channel=1 note=65 velocity=80 time=0@note_on channel=3 note=29 velocity=0 time=0.08333325@note_on channel=9 note=35 velocity=80 time=0.08333325@note_on channel=3 note=29 velocity=80 time=0@note_on channel=9 note=35 velocity=0 time=0.0208333125@note_on channel=1 note=53 velocity=0 time=0.1041665625@note_on channel=1 note=65 velocity=0 time=0@note_on channel=1 note=53 velocity=80 time=0.041666625@note_on channel=1 note=65 velocity=80 time=0@note_on channel=1 note=53 velocity=0 time=0.08333325@note_on channel=1 note=65 velocity=0 time=0@note_on channel=3 note=29 velocity=0 time=0@note_on channel=1 note=55 velocity=80 time=0.08333325@note_on channel=1 note=67 velocity=80 time=0@note_on channel=9 note=35 velocity=80 time=0@note_on channel=9 note=40 velocity=80 time=0@note_on channel=3 note=29 velocity=80 time=0@note_on channel=9 note=35 velocity=0 time=0.0208333125@note_on channel=9 note=40 velocity=0 time=0@note_on channel=1 note=67 velocity=0 time=0.062499937500000005@note_on channel=1 note=55 velocity=0 time=0.0208333125@note_on channel=1 note=57 velocity=80 time=0.062499937500000005@note_on channel=1 note=69 velocity=80 time=0@note_on channel=3 note=29 velocity=0 time=0@note_on channel=3 note=33 velocity=80 time=0@note_on channel=1 note=57 velocity=0 time=0.08333325@note_on channel=1 note=69 velocity=0 time=0@note_on channel=1 note=55 velocity=80 time=0.08333325@note_on channel=1 note=67 velocity=80 time=0@note_on channel=9 note=35 velocity=80 time=0@note_on channel=3 note=33 velocity=0 time=0@note_on channel=3 note=31 velocity=80 time=0@note_on channel=9 note=35 velocity=0 time=0.0208333125@note_on channel=3 note=31 velocity=0 time=0.22916643750000001@note_on channel=1 note=55 velocity=0 time=0.0208333125@note_on channel=1 note=67 velocity=0 time=0@note_on channel=1 note=55 velocity=80 time=0.062499937500000005@note_on channel=1 note=67 velocity=80 time=0@note_on channel=9 note=40 velocity=80 time=0@note_on channel=9 note=57 velocity=80 time=0@note_on channel=3 note=31 velocity=80 time=0@note_on channel=9 note=40 velocity=0 time=0.0208333125@note_on channel=9 note=57 velocity=0 time=0@note_on channel=9 note=35 velocity=80 time=0.14583318750000002@note_on channel=9 note=35 velocity=0 time=0.0208333125@note_on channel=3 note=31 velocity=0 time=0.062499937500000005@note_on channel=1 note=55 velocity=0 time=0.0208333125@note_on channel=1 note=67 velocity=0 time=0@note_on channel=1 note=60 velocity=80 time=0.062499937500000005@note_on channel=1 note=72 velocity=80 time=0@note_on channel=9 note=40 velocity=80 time=0@note_on channel=9 note=57 velocity=80 time=0@note_on channel=3 note=36 velocity=80 time=0@note_on channel=9 note=40 velocity=0 time=0.0208333125@note_on channel=9 note=57 velocity=0 time=0@note_on channel=9 note=35 velocity=80 time=0.14583318750000002@note_on channel=9 note=35 velocity=0 time=0.0208333125@note_on channel=3 note=36 velocity=0 time=0.062499937500000005@note_on channel=1 note=60 velocity=0 time=0.0208333125@note_on channel=1 note=72 velocity=0 time=0@note_on channel=1 note=59 velocity=80 time=0.062499937500000005@note_on channel=1 note=71 velocity=80 time=0@note_on channel=9 note=40 velocity=80 time=0@note_on channel=9 note=57 velocity=80 time=0@note_on channel=3 note=35 velocity=80 time=0@note_on channel=9 note=40 velocity=0 time=0.0208333125@note_on channel=9 note=57 velocity=0 time=0@note_on channel=9 note=35 velocity=80 time=0.14583318750000002@note_on channel=9 note=35 velocity=0 time=0.0208333125@note_on channel=3 note=35 velocity=0 time=0.062499937500000005@note_on channel=1 note=59 velocity=0 time=0.0208333125@note_on channel=1 note=71 velocity=0 time=0@note_on channel=1 note=60 velocity=80 time=0.062499937500000005@note_on channel=1 note=72 velocity=80 time=0@note_on channel=9 note=35 velocity=80 time=0@note_on channel=3 note=36 velocity=50 time=0@note_on channel=9 note=35 velocity=0 time=0.0208333125@note_on channel=3 note=36 velocity=0 time=0.14583318750000002@note_on channel=1 note=60 velocity=0 time=0.1666665@note_on channel=1 note=72 velocity=0 time=0@note_on channel=9 note=35 velocity=80 time=0@note_on channel=9 note=40 velocity=80 time=0@note_on channel=3 note=48 velocity=50 time=0@note_on channel=9 note=35 velocity=0 time=0.0208333125@note_on channel=9 note=40 velocity=0 time=0@note_on channel=1 note=60 velocity=80 time=0.14583318750000002@note_on channel=1 note=72 velocity=80 time=0@note_on channel=3 note=48 velocity=0 time=0@note_on channel=3 note=36 velocity=50 time=0@note_on channel=1 note=60 velocity=0 time=0.1041665625@note_on channel=1 note=72 velocity=0 time=0@note_on channel=3 note=36 velocity=0 time=0.0208333125@note_on channel=9 note=35 velocity=80 time=0.041666625@note_on channel=9 note=35 velocity=0 time=0.0208333125@note_on channel=3 note=36 velocity=50 time=0.1041665625@note_on channel=1 note=60 velocity=80 time=0.041666625@note_on channel=1 note=72 velocity=80 time=0@note_on channel=3 note=36 velocity=0 time=0.08333325@note_on channel=1 note=60 velocity=0 time=0.041666625@note_on channel=1 note=72 velocity=0 time=0@note_on channel=9 note=35 velocity=80 time=0.041666625@note_on channel=9 note=40 velocity=80 time=0@note_on channel=3 note=48 velocity=50 time=0@note_on channel=9 note=35 velocity=0 time=0.0208333125@note_on channel=9 note=40 velocity=0 time=0@note_on channel=1 note=60 velocity=80 time=0.14583318750000002@note_on channel=3 note=48 velocity=0 time=0@note_on channel=1 note=72 velocity=80 time=0.0208333125@note_on channel=1 note=60 velocity=0 time=0.08333325@note_on channel=1 note=72 velocity=0 time=0.0208333125@note_on channel=1 note=65 velocity=80 time=0.041666625@note_on channel=1 note=77 velocity=80 time=0@note_on channel=9 note=35 velocity=80 time=0@note_on channel=9 note=57 velocity=80 time=0@note_on channel=3 note=41 velocity=50 time=0@note_on channel=9 note=35 velocity=0 time=0.0208333125@note_on channel=9 note=57 velocity=0 time=0@note_on channel=9 note=40 velocity=80 time=0.14583318750000002@note_on channel=9 note=40 velocity=0 time=0.0208333125@note_on channel=9 note=40 velocity=80 time=0.041666625@note_on channel=9 note=40 velocity=0 time=0.0208333125@note_on channel=9 note=40 velocity=80 time=0.062499937500000005@note_on channel=1 note=65 velocity=0 time=0.0208333125@note_on channel=1 note=77 velocity=0 time=0@note_on channel=9 note=40 velocity=0 time=0@note_on channel=3 note=41 velocity=0 time=0@note_on channel=9 note=40 velocity=80 time=0.1666665@note_on channel=9 note=40 velocity=0 time=0.0208333125@note_on channel=1 note=65 velocity=80 time=0.14583318750000002@note_on channel=1 note=77 velocity=80 time=0@note_on channel=9 note=35 velocity=80 time=0@note_on channel=9 note=57 velocity=80 time=0@note_on channel=3 note=41 velocity=50 time=0@note_on channel=9 note=35 velocity=0 time=0.0208333125@note_on channel=9 note=57 velocity=0 time=0@note_on channel=9 note=40 velocity=80 time=0.14583318750000002@note_on channel=9 note=40 velocity=0 time=0.0208333125@note_on channel=1 note=77 velocity=0 time=0.041666625@note_on channel=9 note=40 velocity=80 time=0@note_on channel=1 note=65 velocity=0 time=0.0208333125@note_on channel=9 note=40 velocity=0 time=0@note_on channel=3 note=41 velocity=0 time=0@note_on channel=9 note=40 velocity=80 time=0.062499937500000005@note_on channel=1 note=63 velocity=80 time=0.0208333125@note_on channel=1 note=75 velocity=80 time=0@note_on channel=9 note=40 velocity=0 time=0@note_on channel=3 note=39 velocity=50 time=0@note_on channel=9 note=40 velocity=80 time=0.1666665@note_on channel=9 note=40 velocity=0 time=0.0208333125@note_on channel=3 note=39 velocity=0 time=0.062499937500000005@note_on channel=1 note=63 velocity=0 time=0.0208333125@note_on channel=1 note=75 velocity=0 time=0@note_on channel=1 note=60 velocity=80 time=0.062499937500000005@note_on channel=1 note=72 velocity=80 time=0@note_on channel=9 note=35 velocity=80 time=0@note_on channel=9 note=57 velocity=80 time=0@note_on channel=3 note=36 velocity=80 time=0@note_on channel=9 note=35 velocity=0 time=0.0208333125@note_on channel=9 note=57 velocity=0 time=0@note_on channel=1 note=60 velocity=0 time=0.624999375@note_on channel=1 note=72 velocity=0 time=0@note_on channel=3 note=36 velocity=0 time=0.0208333125@<meta message end_of_track time=0.666666>@