<meta message set_tempo tempo=540975 time=0>@<meta message time_signature numerator=4 denominator=4 clocks_per_click=120 notated_32nd_notes_per_beat=8 time=0>@<meta message key_signature key='D' time=0>@<meta message track_name name='Johann Sebastian Bach (1685-1750)' time=0>@<meta message track_name name='Prelude in D major, BWV850' time=0>@<meta message track_name name='(From the Well-Tempered Clavier)' time=0>@<meta message text text='Sequenced by David Madore, 2000-07-21' time=0>@<meta message text text='(One error corrected on 2003-04-03)' time=0>@<meta message text text='(This version 2003-04-16)' time=0>@<meta message copyright text='Public Domain' time=0>@<meta message track_name name='Right hand' time=0>@<meta message instrument_name name='Organ' time=0>@program_change channel=0 program=19 time=0@control_change channel=0 control=7 value=100 time=0@control_change channel=0 control=10 value=72 time=0@control_change channel=0 control=91 value=50 time=0@control_change channel=0 control=93 value=50 time=0@<meta message track_name name='Left hand' time=0>@<meta message instrument_name name='Organ' time=0>@program_change channel=1 program=19 time=0@control_change channel=1 control=7 value=100 time=0@control_change channel=1 control=10 value=56 time=0@control_change channel=1 control=91 value=50 time=0@control_change channel=1 control=93 value=70 time=0@note_on channel=1 note=50 velocity=100 time=0@note_on channel=0 note=74 velocity=100 time=0.13524375@note_on channel=0 note=74 velocity=0 time=0.13524375@note_on channel=0 note=76 velocity=100 time=0@note_on channel=1 note=50 velocity=0 time=0@note_on channel=0 note=76 velocity=0 time=0.13524375@note_on channel=0 note=78 velocity=100 time=0@note_on channel=0 note=78 velocity=0 time=0.13524375@note_on channel=0 note=69 velocity=100 time=0@note_on channel=1 note=62 velocity=100 time=0@note_on channel=0 note=69 velocity=0 time=0.13524375@note_on channel=0 note=78 velocity=100 time=0@note_on channel=0 note=78 velocity=0 time=0.13524375@note_on channel=0 note=76 velocity=100 time=0@note_on channel=1 note=62 velocity=0 time=0@note_on channel=0 note=76 velocity=0 time=0.13524375@note_on channel=0 note=74 velocity=100 time=0@note_on channel=0 note=74 velocity=0 time=0.13524375@note_on channel=0 note=81 velocity=100 time=0@note_on channel=1 note=54 velocity=100 time=0@note_on channel=0 note=81 velocity=0 time=0.13524375@note_on channel=0 note=74 velocity=100 time=0@note_on channel=0 note=74 velocity=0 time=0.13524375@note_on channel=0 note=76 velocity=100 time=0@note_on channel=1 note=54 velocity=0 time=0@note_on channel=0 note=76 velocity=0 time=0.13524375@note_on channel=0 note=78 velocity=100 time=0@note_on channel=0 note=78 velocity=0 time=0.13524375@note_on channel=0 note=69 velocity=100 time=0@note_on channel=1 note=62 velocity=100 time=0@note_on channel=0 note=69 velocity=0 time=0.13524375@note_on channel=0 note=78 velocity=100 time=0@note_on channel=0 note=78 velocity=0 time=0.13524375@note_on channel=0 note=76 velocity=100 time=0@note_on channel=1 note=62 velocity=0 time=0@note_on channel=0 note=76 velocity=0 time=0.13524375@note_on channel=0 note=74 velocity=100 time=0@note_on channel=0 note=74 velocity=0 time=0.13524375@note_on channel=0 note=79 velocity=100 time=0@note_on channel=1 note=52 velocity=100 time=0@note_on channel=0 note=79 velocity=0 time=0.13524375@note_on channel=0 note=76 velocity=100 time=0@note_on channel=0 note=76 velocity=0 time=0.13524375@note_on channel=0 note=78 velocity=100 time=0@note_on channel=1 note=52 velocity=0 time=0@note_on channel=0 note=78 velocity=0 time=0.13524375@note_on channel=0 note=79 velocity=100 time=0@note_on channel=0 note=79 velocity=0 time=0.13524375@note_on channel=0 note=71 velocity=100 time=0@note_on channel=1 note=62 velocity=100 time=0@note_on channel=0 note=71 velocity=0 time=0.13524375@note_on channel=0 note=74 velocity=100 time=0@note_on channel=0 note=74 velocity=0 time=0.13524375@note_on channel=0 note=73 velocity=100 time=0@note_on channel=1 note=62 velocity=0 time=0@note_on channel=0 note=73 velocity=0 time=0.13524375@note_on channel=0 note=71 velocity=100 time=0@note_on channel=0 note=71 velocity=0 time=0.13524375@note_on channel=0 note=73 velocity=100 time=0@note_on channel=1 note=57 velocity=100 time=0@note_on channel=0 note=73 velocity=0 time=0.13524375@note_on channel=0 note=76 velocity=100 time=0@note_on channel=0 note=76 velocity=0 time=0.13524375@note_on channel=0 note=78 velocity=100 time=0@note_on channel=1 note=57 velocity=0 time=0@note_on channel=0 note=78 velocity=0 time=0.13524375@note_on channel=0 note=79 velocity=100 time=0@note_on channel=0 note=79 velocity=0 time=0.13524375@note_on channel=0 note=69 velocity=100 time=0@note_on channel=1 note=61 velocity=100 time=0@note_on channel=0 note=69 velocity=0 time=0.13524375@note_on channel=0 note=79 velocity=100 time=0@note_on channel=0 note=79 velocity=0 time=0.13524375@note_on channel=0 note=78 velocity=100 time=0@note_on channel=1 note=61 velocity=0 time=0@note_on channel=0 note=78 velocity=0 time=0.13524375@note_on channel=0 note=76 velocity=100 time=0@note_on channel=0 note=76 velocity=0 time=0.13524375@note_on channel=0 note=78 velocity=100 time=0@note_on channel=1 note=50 velocity=100 time=0@note_on channel=0 note=78 velocity=0 time=0.13524375@note_on channel=0 note=74 velocity=100 time=0@note_on channel=0 note=74 velocity=0 time=0.13524375@note_on channel=0 note=76 velocity=100 time=0@note_on channel=1 note=50 velocity=0 time=0@note_on channel=0 note=76 velocity=0 time=0.13524375@note_on channel=0 note=78 velocity=100 time=0@note_on channel=0 note=78 velocity=0 time=0.13524375@note_on channel=0 note=69 velocity=100 time=0@note_on channel=1 note=62 velocity=100 time=0@note_on channel=0 note=69 velocity=0 time=0.13524375@note_on channel=0 note=73 velocity=100 time=0@note_on channel=0 note=73 velocity=0 time=0.13524375@note_on channel=0 note=71 velocity=100 time=0@note_on channel=1 note=62 velocity=0 time=0@note_on channel=0 note=71 velocity=0 time=0.13524375@note_on channel=0 note=69 velocity=100 time=0@note_on channel=0 note=69 velocity=0 time=0.13524375@note_on channel=0 note=71 velocity=100 time=0@note_on channel=1 note=50 velocity=100 time=0@note_on channel=0 note=71 velocity=0 time=0.13524375@note_on channel=0 note=74 velocity=100 time=0@note_on channel=0 note=74 velocity=0 time=0.13524375@note_on channel=0 note=76 velocity=100 time=0@note_on channel=1 note=50 velocity=0 time=0@note_on channel=0 note=76 velocity=0 time=0.13524375@note_on channel=0 note=78 velocity=100 time=0@note_on channel=0 note=78 velocity=0 time=0.13524375@note_on channel=0 note=71 velocity=100 time=0@note_on channel=1 note=62 velocity=100 time=0@note_on channel=0 note=71 velocity=0 time=0.13524375@note_on channel=0 note=81 velocity=100 time=0@note_on channel=0 note=81 velocity=0 time=0.13524375@note_on channel=0 note=80 velocity=100 time=0@note_on channel=1 note=62 velocity=0 time=0@note_on channel=0 note=80 velocity=0 time=0.13524375@note_on channel=0 note=78 velocity=100 time=0@note_on channel=0 note=78 velocity=0 time=0.13524375@note_on channel=0 note=80 velocity=100 time=0@note_on channel=1 note=50 velocity=100 time=0@note_on channel=0 note=80 velocity=0 time=0.13524375@note_on channel=0 note=76 velocity=100 time=0@note_on channel=0 note=76 velocity=0 time=0.13524375@note_on channel=0 note=78 velocity=100 time=0@note_on channel=1 note=50 velocity=0 time=0@note_on channel=0 note=78 velocity=0 time=0.13524375@note_on channel=0 note=80 velocity=100 time=0@note_on channel=0 note=80 velocity=0 time=0.13524375@note_on channel=0 note=71 velocity=100 time=0@note_on channel=1 note=56 velocity=100 time=0@note_on channel=0 note=71 velocity=0 time=0.13524375@note_on channel=0 note=74 velocity=100 time=0@note_on channel=0 note=74 velocity=0 time=0.13524375@note_on channel=0 note=73 velocity=100 time=0@note_on channel=1 note=56 velocity=0 time=0@note_on channel=0 note=73 velocity=0 time=0.13524375@note_on channel=0 note=71 velocity=100 time=0@note_on channel=0 note=71 velocity=0 time=0.13524375@note_on channel=0 note=69 velocity=100 time=0@note_on channel=1 note=49 velocity=100 time=0@note_on channel=0 note=69 velocity=0 time=0.13524375@note_on channel=0 note=73 velocity=100 time=0@note_on channel=0 note=73 velocity=0 time=0.13524375@note_on channel=0 note=74 velocity=100 time=0@note_on channel=1 note=49 velocity=0 time=0@note_on channel=0 note=74 velocity=0 time=0.13524375@note_on channel=0 note=76 velocity=100 time=0@note_on channel=0 note=76 velocity=0 time=0.13524375@note_on channel=0 note=66 velocity=100 time=0@note_on channel=1 note=57 velocity=100 time=0@note_on channel=0 note=66 velocity=0 time=0.13524375@note_on channel=0 note=76 velocity=100 time=0@note_on channel=0 note=76 velocity=0 time=0.13524375@note_on channel=0 note=74 velocity=100 time=0@note_on channel=1 note=57 velocity=0 time=0@note_on channel=0 note=74 velocity=0 time=0.13524375@note_on channel=0 note=73 velocity=100 time=0@note_on channel=0 note=73 velocity=0 time=0.13524375@note_on channel=0 note=74 velocity=100 time=0@note_on channel=1 note=47 velocity=100 time=0@note_on channel=0 note=74 velocity=0 time=0.13524375@note_on channel=0 note=71 velocity=100 time=0@note_on channel=0 note=71 velocity=0 time=0.13524375@note_on channel=0 note=73 velocity=100 time=0@note_on channel=1 note=47 velocity=0 time=0@note_on channel=0 note=73 velocity=0 time=0.13524375@note_on channel=0 note=74 velocity=100 time=0@note_on channel=0 note=74 velocity=0 time=0.13524375@note_on channel=0 note=66 velocity=100 time=0@note_on channel=1 note=57 velocity=100 time=0@note_on channel=0 note=66 velocity=0 time=0.13524375@note_on channel=0 note=69 velocity=100 time=0@note_on channel=0 note=69 velocity=0 time=0.13524375@note_on channel=0 note=68 velocity=100 time=0@note_on channel=1 note=57 velocity=0 time=0@note_on channel=0 note=68 velocity=0 time=0.13524375@note_on channel=0 note=66 velocity=100 time=0@note_on channel=0 note=66 velocity=0 time=0.13524375@note_on channel=0 note=68 velocity=100 time=0@note_on channel=1 note=52 velocity=100 time=0@note_on channel=0 note=68 velocity=0 time=0.13524375@note_on channel=0 note=71 velocity=100 time=0@note_on channel=0 note=71 velocity=0 time=0.13524375@note_on channel=0 note=73 velocity=100 time=0@note_on channel=1 note=52 velocity=0 time=0@note_on channel=0 note=73 velocity=0 time=0.13524375@note_on channel=0 note=74 velocity=100 time=0@note_on channel=0 note=74 velocity=0 time=0.13524375@note_on channel=0 note=64 velocity=100 time=0@note_on channel=1 note=56 velocity=100 time=0@note_on channel=0 note=64 velocity=0 time=0.13524375@note_on channel=0 note=74 velocity=100 time=0@note_on channel=0 note=74 velocity=0 time=0.13524375@note_on channel=0 note=73 velocity=100 time=0@note_on channel=1 note=56 velocity=0 time=0@note_on channel=0 note=73 velocity=0 time=0.13524375@note_on channel=0 note=71 velocity=100 time=0@note_on channel=0 note=71 velocity=0 time=0.13524375@note_on channel=0 note=73 velocity=100 time=0@note_on channel=1 note=45 velocity=100 time=0@note_on channel=0 note=73 velocity=0 time=0.13524375@note_on channel=0 note=69 velocity=100 time=0@note_on channel=0 note=69 velocity=0 time=0.13524375@note_on channel=0 note=71 velocity=100 time=0@note_on channel=1 note=45 velocity=0 time=0@note_on channel=0 note=71 velocity=0 time=0.13524375@note_on channel=0 note=73 velocity=100 time=0@note_on channel=0 note=73 velocity=0 time=0.13524375@note_on channel=0 note=64 velocity=100 time=0@note_on channel=1 note=57 velocity=100 time=0@note_on channel=0 note=64 velocity=0 time=0.13524375@note_on channel=0 note=67 velocity=100 time=0@note_on channel=0 note=67 velocity=0 time=0.13524375@note_on channel=0 note=66 velocity=100 time=0@note_on channel=1 note=57 velocity=0 time=0@note_on channel=0 note=66 velocity=0 time=0.13524375@note_on channel=0 note=64 velocity=100 time=0@note_on channel=0 note=64 velocity=0 time=0.13524375@note_on channel=0 note=66 velocity=100 time=0@note_on channel=1 note=45 velocity=100 time=0@note_on channel=0 note=66 velocity=0 time=0.13524375@note_on channel=0 note=69 velocity=100 time=0@note_on channel=0 note=69 velocity=0 time=0.13524375@note_on channel=0 note=71 velocity=100 time=0@note_on channel=1 note=45 velocity=0 time=0@note_on channel=0 note=71 velocity=0 time=0.13524375@note_on channel=0 note=73 velocity=100 time=0@note_on channel=0 note=73 velocity=0 time=0.13524375@note_on channel=0 note=66 velocity=100 time=0@note_on channel=1 note=57 velocity=100 time=0@note_on channel=0 note=66 velocity=0 time=0.13524375@note_on channel=0 note=76 velocity=100 time=0@note_on channel=0 note=76 velocity=0 time=0.13524375@note_on channel=0 note=75 velocity=100 time=0@note_on channel=1 note=57 velocity=0 time=0@note_on channel=0 note=75 velocity=0 time=0.13524375@note_on channel=0 note=73 velocity=100 time=0@note_on channel=0 note=73 velocity=0 time=0.13524375@note_on channel=0 note=75 velocity=100 time=0@note_on channel=1 note=45 velocity=100 time=0@note_on channel=0 note=75 velocity=0 time=0.13524375@note_on channel=0 note=71 velocity=100 time=0@note_on channel=0 note=71 velocity=0 time=0.13524375@note_on channel=0 note=73 velocity=100 time=0@note_on channel=1 note=45 velocity=0 time=0@note_on channel=0 note=73 velocity=0 time=0.13524375@note_on channel=0 note=75 velocity=100 time=0@note_on channel=0 note=75 velocity=0 time=0.13524375@note_on channel=0 note=66 velocity=100 time=0@note_on channel=1 note=51 velocity=100 time=0@note_on channel=0 note=66 velocity=0 time=0.13524375@note_on channel=0 note=69 velocity=100 time=0@note_on channel=0 note=69 velocity=0 time=0.13524375@note_on channel=0 note=67 velocity=100 time=0@note_on channel=1 note=51 velocity=0 time=0@note_on channel=0 note=67 velocity=0 time=0.13524375@note_on channel=0 note=66 velocity=100 time=0@note_on channel=0 note=66 velocity=0 time=0.13524375@note_on channel=0 note=64 velocity=100 time=0@note_on channel=1 note=43 velocity=100 time=0@note_on channel=0 note=64 velocity=0 time=0.13524375@note_on channel=0 note=67 velocity=100 time=0@note_on channel=0 note=67 velocity=0 time=0.13524375@note_on channel=0 note=69 velocity=100 time=0@note_on channel=1 note=43 velocity=0 time=0@note_on channel=0 note=69 velocity=0 time=0.13524375@note_on channel=0 note=71 velocity=100 time=0@note_on channel=0 note=71 velocity=0 time=0.13524375@note_on channel=0 note=61 velocity=100 time=0@note_on channel=1 note=52 velocity=100 time=0@note_on channel=0 note=61 velocity=0 time=0.13524375@note_on channel=0 note=74 velocity=100 time=0@note_on channel=0 note=74 velocity=0 time=0.13524375@note_on channel=0 note=73 velocity=100 time=0@note_on channel=1 note=52 velocity=0 time=0@note_on channel=0 note=73 velocity=0 time=0.13524375@note_on channel=0 note=71 velocity=100 time=0@note_on channel=0 note=71 velocity=0 time=0.13524375@note_on channel=0 note=70 velocity=100 time=0@note_on channel=1 note=42 velocity=100 time=0@note_on channel=0 note=70 velocity=0 time=0.13524375@note_on channel=0 note=64 velocity=100 time=0@note_on channel=0 note=64 velocity=0 time=0.13524375@note_on channel=0 note=66 velocity=100 time=0@note_on channel=1 note=42 velocity=0 time=0@note_on channel=0 note=66 velocity=0 time=0.13524375@note_on channel=0 note=67 velocity=100 time=0@note_on channel=0 note=67 velocity=0 time=0.13524375@note_on channel=0 note=61 velocity=100 time=0@note_on channel=1 note=54 velocity=100 time=0@note_on channel=0 note=61 velocity=0 time=0.13524375@note_on channel=0 note=67 velocity=100 time=0@note_on channel=0 note=67 velocity=0 time=0.13524375@note_on channel=0 note=66 velocity=100 time=0@note_on channel=1 note=54 velocity=0 time=0@note_on channel=0 note=66 velocity=0 time=0.13524375@note_on channel=0 note=64 velocity=100 time=0@note_on channel=0 note=64 velocity=0 time=0.13524375@note_on channel=0 note=62 velocity=100 time=0@note_on channel=1 note=42 velocity=100 time=0@note_on channel=0 note=62 velocity=0 time=0.13524375@note_on channel=0 note=71 velocity=100 time=0@note_on channel=0 note=71 velocity=0 time=0.13524375@note_on channel=0 note=73 velocity=100 time=0@note_on channel=1 note=42 velocity=0 time=0@note_on channel=0 note=73 velocity=0 time=0.13524375@note_on channel=0 note=74 velocity=100 time=0@note_on channel=0 note=74 velocity=0 time=0.13524375@note_on channel=0 note=66 velocity=100 time=0@note_on channel=1 note=54 velocity=100 time=0@note_on channel=0 note=66 velocity=0 time=0.13524375@note_on channel=0 note=69 velocity=100 time=0@note_on channel=0 note=69 velocity=0 time=0.13524375@note_on channel=0 note=68 velocity=100 time=0@note_on channel=1 note=54 velocity=0 time=0@note_on channel=0 note=68 velocity=0 time=0.13524375@note_on channel=0 note=66 velocity=100 time=0@note_on channel=0 note=66 velocity=0 time=0.13524375@note_on channel=0 note=65 velocity=100 time=0@note_on channel=1 note=42 velocity=100 time=0@note_on channel=0 note=65 velocity=0 time=0.13524375@note_on channel=0 note=68 velocity=100 time=0@note_on channel=0 note=68 velocity=0 time=0.13524375@note_on channel=0 note=69 velocity=100 time=0@note_on channel=1 note=42 velocity=0 time=0@note_on channel=0 note=69 velocity=0 time=0.13524375@note_on channel=0 note=71 velocity=100 time=0@note_on channel=0 note=71 velocity=0 time=0.13524375@note_on channel=0 note=65 velocity=100 time=0@note_on channel=1 note=54 velocity=100 time=0@note_on channel=0 note=65 velocity=0 time=0.13524375@note_on channel=0 note=74 velocity=100 time=0@note_on channel=0 note=74 velocity=0 time=0.13524375@note_on channel=0 note=73 velocity=100 time=0@note_on channel=1 note=54 velocity=0 time=0@note_on channel=0 note=73 velocity=0 time=0.13524375@note_on channel=0 note=71 velocity=100 time=0@note_on channel=0 note=71 velocity=0 time=0.13524375@note_on channel=0 note=80 velocity=100 time=0@note_on channel=1 note=42 velocity=100 time=0@note_on channel=0 note=80 velocity=0 time=0.13524375@note_on channel=0 note=77 velocity=100 time=0@note_on channel=0 note=77 velocity=0 time=0.13524375@note_on channel=0 note=78 velocity=100 time=0@note_on channel=1 note=42 velocity=0 time=0@note_on channel=0 note=78 velocity=0 time=0.13524375@note_on channel=0 note=80 velocity=100 time=0@note_on channel=0 note=80 velocity=0 time=0.13524375@note_on channel=0 note=73 velocity=100 time=0@note_on channel=1 note=54 velocity=100 time=0@note_on channel=0 note=73 velocity=0 time=0.13524375@note_on channel=0 note=83 velocity=100 time=0@note_on channel=0 note=83 velocity=0 time=0.13524375@note_on channel=0 note=81 velocity=100 time=0@note_on channel=1 note=54 velocity=0 time=0@note_on channel=0 note=81 velocity=0 time=0.13524375@note_on channel=0 note=80 velocity=100 time=0@note_on channel=0 note=80 velocity=0 time=0.13524375@note_on channel=0 note=81 velocity=100 time=0@note_on channel=1 note=42 velocity=100 time=0@note_on channel=0 note=81 velocity=0 time=0.13524375@note_on channel=0 note=78 velocity=100 time=0@note_on channel=0 note=78 velocity=0 time=0.13524375@note_on channel=0 note=80 velocity=100 time=0@note_on channel=1 note=42 velocity=0 time=0@note_on channel=0 note=80 velocity=0 time=0.13524375@note_on channel=0 note=81 velocity=100 time=0@note_on channel=0 note=81 velocity=0 time=0.13524375@note_on channel=0 note=73 velocity=100 time=0@note_on channel=1 note=54 velocity=100 time=0@note_on channel=0 note=73 velocity=0 time=0.13524375@note_on channel=0 note=76 velocity=100 time=0@note_on channel=0 note=76 velocity=0 time=0.13524375@note_on channel=0 note=75 velocity=100 time=0@note_on channel=1 note=54 velocity=0 time=0@note_on channel=0 note=75 velocity=0 time=0.13524375@note_on channel=0 note=73 velocity=100 time=0@note_on channel=0 note=73 velocity=0 time=0.13524375@note_on channel=0 note=75 velocity=100 time=0@note_on channel=1 note=47 velocity=100 time=0@note_on channel=0 note=75 velocity=0 time=0.13524375@note_on channel=0 note=78 velocity=100 time=0@note_on channel=0 note=78 velocity=0 time=0.13524375@note_on channel=0 note=79 velocity=100 time=0@note_on channel=1 note=47 velocity=0 time=0@note_on channel=0 note=79 velocity=0 time=0.13524375@note_on channel=0 note=81 velocity=100 time=0@note_on channel=0 note=81 velocity=0 time=0.13524375@note_on channel=0 note=71 velocity=100 time=0@note_on channel=1 note=51 velocity=100 time=0@note_on channel=0 note=71 velocity=0 time=0.13524375@note_on channel=0 note=81 velocity=100 time=0@note_on channel=0 note=81 velocity=0 time=0.13524375@note_on channel=0 note=79 velocity=100 time=0@note_on channel=1 note=51 velocity=0 time=0@note_on channel=0 note=79 velocity=0 time=0.13524375@note_on channel=0 note=78 velocity=100 time=0@note_on channel=0 note=78 velocity=0 time=0.13524375@note_on channel=0 note=79 velocity=100 time=0@note_on channel=1 note=40 velocity=100 time=0@note_on channel=0 note=79 velocity=0 time=0.13524375@note_on channel=0 note=76 velocity=100 time=0@note_on channel=0 note=76 velocity=0 time=0.13524375@note_on channel=0 note=78 velocity=100 time=0@note_on channel=1 note=40 velocity=0 time=0@note_on channel=0 note=78 velocity=0 time=0.13524375@note_on channel=0 note=79 velocity=100 time=0@note_on channel=0 note=79 velocity=0 time=0.13524375@note_on channel=0 note=71 velocity=100 time=0@note_on channel=1 note=52 velocity=100 time=0@note_on channel=0 note=71 velocity=0 time=0.13524375@note_on channel=0 note=74 velocity=100 time=0@note_on channel=0 note=74 velocity=0 time=0.13524375@note_on channel=0 note=72 velocity=100 time=0@note_on channel=1 note=52 velocity=0 time=0@note_on channel=0 note=72 velocity=0 time=0.13524375@note_on channel=0 note=71 velocity=100 time=0@note_on channel=0 note=71 velocity=0 time=0.13524375@note_on channel=0 note=72 velocity=100 time=0@note_on channel=1 note=40 velocity=100 time=0@note_on channel=0 note=72 velocity=0 time=0.13524375@note_on channel=0 note=75 velocity=100 time=0@note_on channel=0 note=75 velocity=0 time=0.13524375@note_on channel=0 note=76 velocity=100 time=0@note_on channel=1 note=40 velocity=0 time=0@note_on channel=0 note=76 velocity=0 time=0.13524375@note_on channel=0 note=78 velocity=100 time=0@note_on channel=0 note=78 velocity=0 time=0.13524375@note_on channel=0 note=69 velocity=100 time=0@note_on channel=1 note=51 velocity=100 time=0@note_on channel=0 note=69 velocity=0 time=0.13524375@note_on channel=0 note=72 velocity=100 time=0@note_on channel=0 note=72 velocity=0 time=0.13524375@note_on channel=0 note=71 velocity=100 time=0@note_on channel=1 note=51 velocity=0 time=0@note_on channel=0 note=71 velocity=0 time=0.13524375@note_on channel=0 note=69 velocity=100 time=0@note_on channel=0 note=69 velocity=0 time=0.13524375@note_on channel=0 note=67 velocity=100 time=0@note_on channel=1 note=40 velocity=100 time=0@note_on channel=0 note=67 velocity=0 time=0.13524375@note_on channel=0 note=76 velocity=100 time=0@note_on channel=0 note=76 velocity=0 time=0.13524375@note_on channel=0 note=78 velocity=100 time=0@note_on channel=1 note=40 velocity=0 time=0@note_on channel=0 note=78 velocity=0 time=0.13524375@note_on channel=0 note=79 velocity=100 time=0@note_on channel=0 note=79 velocity=0 time=0.13524375@note_on channel=0 note=71 velocity=100 time=0@note_on channel=1 note=52 velocity=100 time=0@note_on channel=0 note=71 velocity=0 time=0.13524375@note_on channel=0 note=74 velocity=100 time=0@note_on channel=0 note=74 velocity=0 time=0.13524375@note_on channel=0 note=73 velocity=100 time=0@note_on channel=1 note=52 velocity=0 time=0@note_on channel=0 note=73 velocity=0 time=0.13524375@note_on channel=0 note=71 velocity=100 time=0@note_on channel=0 note=71 velocity=0 time=0.13524375@note_on channel=0 note=73 velocity=100 time=0@note_on channel=1 note=45 velocity=100 time=0@note_on channel=0 note=73 velocity=0 time=0.13524375@note_on channel=0 note=76 velocity=100 time=0@note_on channel=0 note=76 velocity=0 time=0.13524375@note_on channel=0 note=78 velocity=100 time=0@note_on channel=1 note=45 velocity=0 time=0@note_on channel=0 note=78 velocity=0 time=0.13524375@note_on channel=0 note=79 velocity=100 time=0@note_on channel=0 note=79 velocity=0 time=0.13524375@note_on channel=0 note=69 velocity=100 time=0@note_on channel=1 note=49 velocity=100 time=0@note_on channel=0 note=69 velocity=0 time=0.13524375@note_on channel=0 note=79 velocity=100 time=0@note_on channel=0 note=79 velocity=0 time=0.13524375@note_on channel=0 note=78 velocity=100 time=0@note_on channel=1 note=49 velocity=0 time=0@note_on channel=0 note=78 velocity=0 time=0.13524375@note_on channel=0 note=76 velocity=100 time=0@note_on channel=0 note=76 velocity=0 time=0.13524375@note_on channel=0 note=78 velocity=100 time=0@note_on channel=1 note=38 velocity=100 time=0@note_on channel=0 note=78 velocity=0 time=0.13524375@note_on channel=0 note=74 velocity=100 time=0@note_on channel=0 note=74 velocity=0 time=0.13524375@note_on channel=0 note=76 velocity=100 time=0@note_on channel=1 note=38 velocity=0 time=0@note_on channel=0 note=76 velocity=0 time=0.13524375@note_on channel=0 note=78 velocity=100 time=0@note_on channel=0 note=78 velocity=0 time=0.13524375@note_on channel=0 note=69 velocity=100 time=0@note_on channel=1 note=50 velocity=100 time=0@note_on channel=0 note=69 velocity=0 time=0.13524375@note_on channel=0 note=72 velocity=100 time=0@note_on channel=0 note=72 velocity=0 time=0.13524375@note_on channel=0 note=71 velocity=100 time=0@note_on channel=1 note=50 velocity=0 time=0@note_on channel=0 note=71 velocity=0 time=0.13524375@note_on channel=0 note=69 velocity=100 time=0@note_on channel=0 note=69 velocity=0 time=0.13524375@note_on channel=0 note=71 velocity=100 time=0@note_on channel=1 note=38 velocity=100 time=0@note_on channel=0 note=71 velocity=0 time=0.13524375@note_on channel=0 note=67 velocity=100 time=0@note_on channel=0 note=67 velocity=0 time=0.13524375@note_on channel=0 note=69 velocity=100 time=0@note_on channel=1 note=38 velocity=0 time=0@note_on channel=0 note=69 velocity=0 time=0.13524375@note_on channel=0 note=71 velocity=100 time=0@note_on channel=0 note=71 velocity=0 time=0.13524375@note_on channel=0 note=61 velocity=100 time=0@note_on channel=1 note=50 velocity=100 time=0@note_on channel=0 note=61 velocity=0 time=0.13524375@note_on channel=0 note=71 velocity=100 time=0@note_on channel=0 note=71 velocity=0 time=0.13524375@note_on channel=0 note=69 velocity=100 time=0@note_on channel=1 note=50 velocity=0 time=0@note_on channel=0 note=69 velocity=0 time=0.13524375@note_on channel=0 note=67 velocity=100 time=0@note_on channel=0 note=67 velocity=0 time=0.13524375@note_on channel=0 note=66 velocity=100 time=0@note_on channel=1 note=38 velocity=100 time=0@note_on channel=0 note=66 velocity=0 time=0.13524375@note_on channel=0 note=62 velocity=100 time=0@note_on channel=0 note=62 velocity=0 time=0.13524375@note_on channel=0 note=64 velocity=100 time=0@note_on channel=1 note=38 velocity=0 time=0@note_on channel=0 note=64 velocity=0 time=0.13524375@note_on channel=0 note=66 velocity=100 time=0@note_on channel=0 note=66 velocity=0 time=0.13524375@note_on channel=0 note=57 velocity=100 time=0@note_on channel=1 note=50 velocity=100 time=0@note_on channel=0 note=57 velocity=0 time=0.13524375@note_on channel=0 note=60 velocity=100 time=0@note_on channel=0 note=60 velocity=0 time=0.13524375@note_on channel=0 note=59 velocity=100 time=0@note_on channel=1 note=50 velocity=0 time=0@note_on channel=0 note=59 velocity=0 time=0.13524375@note_on channel=0 note=57 velocity=100 time=0@note_on channel=0 note=57 velocity=0 time=0.13524375@note_on channel=0 note=59 velocity=100 time=0@note_on channel=1 note=38 velocity=100 time=0@note_on channel=0 note=59 velocity=0 time=0.13524375@note_on channel=0 note=62 velocity=100 time=0@note_on channel=0 note=62 velocity=0 time=0.13524375@note_on channel=0 note=64 velocity=100 time=0@note_on channel=1 note=38 velocity=0 time=0@note_on channel=0 note=64 velocity=0 time=0.13524375@note_on channel=0 note=66 velocity=100 time=0@note_on channel=0 note=66 velocity=0 time=0.13524375@note_on channel=0 note=59 velocity=100 time=0@note_on channel=1 note=50 velocity=100 time=0@note_on channel=0 note=59 velocity=0 time=0.13524375@note_on channel=0 note=69 velocity=100 time=0@note_on channel=0 note=69 velocity=0 time=0.13524375@note_on channel=0 note=68 velocity=100 time=0@note_on channel=1 note=50 velocity=0 time=0@note_on channel=0 note=68 velocity=0 time=0.13524375@note_on channel=0 note=66 velocity=100 time=0@note_on channel=0 note=66 velocity=0 time=0.13524375@note_on channel=0 note=68 velocity=100 time=0@note_on channel=1 note=38 velocity=100 time=0@note_on channel=0 note=68 velocity=0 time=0.13524375@note_on channel=0 note=64 velocity=100 time=0@note_on channel=0 note=64 velocity=0 time=0.13524375@note_on channel=0 note=66 velocity=100 time=0@note_on channel=1 note=38 velocity=0 time=0@note_on channel=0 note=66 velocity=0 time=0.13524375@note_on channel=0 note=68 velocity=100 time=0@note_on channel=0 note=68 velocity=0 time=0.13524375@note_on channel=0 note=59 velocity=100 time=0@note_on channel=1 note=56 velocity=100 time=0@note_on channel=0 note=59 velocity=0 time=0.13524375@note_on channel=0 note=62 velocity=100 time=0@note_on channel=0 note=62 velocity=0 time=0.13524375@note_on channel=0 note=60 velocity=100 time=0@note_on channel=1 note=56 velocity=0 time=0@note_on channel=0 note=60 velocity=0 time=0.13524375@note_on channel=0 note=59 velocity=100 time=0@note_on channel=0 note=59 velocity=0 time=0.13524375@note_on channel=0 note=57 velocity=100 time=0@note_on channel=1 note=48 velocity=100 time=0@note_on channel=0 note=57 velocity=0 time=0.13524375@note_on channel=0 note=60 velocity=100 time=0@note_on channel=0 note=60 velocity=0 time=0.13524375@note_on channel=0 note=62 velocity=100 time=0@note_on channel=1 note=48 velocity=0 time=0@note_on channel=0 note=62 velocity=0 time=0.13524375@note_on channel=0 note=64 velocity=100 time=0@note_on channel=0 note=64 velocity=0 time=0.13524375@note_on channel=0 note=57 velocity=100 time=0@note_on channel=1 note=54 velocity=100 time=0@note_on channel=0 note=57 velocity=0 time=0.13524375@note_on channel=0 note=67 velocity=100 time=0@note_on channel=0 note=67 velocity=0 time=0.13524375@note_on channel=0 note=66 velocity=100 time=0@note_on channel=1 note=54 velocity=0 time=0@note_on channel=0 note=66 velocity=0 time=0.13524375@note_on channel=0 note=64 velocity=100 time=0@note_on channel=0 note=64 velocity=0 time=0.13524375@note_on channel=0 note=63 velocity=100 time=0@note_on channel=1 note=47 velocity=100 time=0@note_on channel=0 note=63 velocity=0 time=0.13524375@note_on channel=0 note=57 velocity=100 time=0@note_on channel=0 note=57 velocity=0 time=0.13524375@note_on channel=0 note=59 velocity=100 time=0@note_on channel=1 note=47 velocity=0 time=0@note_on channel=0 note=59 velocity=0 time=0.13524375@note_on channel=0 note=60 velocity=100 time=0@note_on channel=0 note=60 velocity=0 time=0.13524375@note_on channel=0 note=54 velocity=100 time=0@note_on channel=1 note=51 velocity=100 time=0@note_on channel=0 note=54 velocity=0 time=0.13524375@note_on channel=0 note=60 velocity=100 time=0@note_on channel=0 note=60 velocity=0 time=0.13524375@note_on channel=0 note=59 velocity=100 time=0@note_on channel=1 note=51 velocity=0 time=0@note_on channel=0 note=59 velocity=0 time=0.13524375@note_on channel=0 note=57 velocity=100 time=0@note_on channel=0 note=57 velocity=0 time=0.13524375@note_on channel=0 note=55 velocity=100 time=0@note_on channel=1 note=52 velocity=100 time=0@note_on channel=0 note=55 velocity=0 time=0.13524375@note_on channel=0 note=64 velocity=100 time=0@note_on channel=0 note=64 velocity=0 time=0.13524375@note_on channel=0 note=66 velocity=100 time=0@note_on channel=1 note=52 velocity=0 time=0@note_on channel=0 note=66 velocity=0 time=0.13524375@note_on channel=0 note=67 velocity=100 time=0@note_on channel=0 note=67 velocity=0 time=0.13524375@note_on channel=0 note=59 velocity=100 time=0@note_on channel=1 note=55 velocity=100 time=0@note_on channel=0 note=59 velocity=0 time=0.13524375@note_on channel=0 note=62 velocity=100 time=0@note_on channel=0 note=62 velocity=0 time=0.13524375@note_on channel=0 note=61 velocity=100 time=0@note_on channel=1 note=55 velocity=0 time=0@note_on channel=0 note=61 velocity=0 time=0.13524375@note_on channel=0 note=59 velocity=100 time=0@note_on channel=0 note=59 velocity=0 time=0.13524375@note_on channel=0 note=58 velocity=100 time=0@note_on channel=1 note=47 velocity=100 time=0@note_on channel=0 note=58 velocity=0 time=0.13524375@note_on channel=0 note=61 velocity=100 time=0@note_on channel=0 note=61 velocity=0 time=0.13524375@note_on channel=0 note=62 velocity=100 time=0@note_on channel=1 note=47 velocity=0 time=0@note_on channel=0 note=62 velocity=0 time=0.13524375@note_on channel=0 note=64 velocity=100 time=0@note_on channel=0 note=64 velocity=0 time=0.13524375@note_on channel=0 note=58 velocity=100 time=0@note_on channel=1 note=52 velocity=100 time=0@note_on channel=0 note=58 velocity=0 time=0.13524375@note_on channel=0 note=67 velocity=100 time=0@note_on channel=0 note=67 velocity=0 time=0.13524375@note_on channel=0 note=66 velocity=100 time=0@note_on channel=1 note=52 velocity=0 time=0@note_on channel=0 note=66 velocity=0 time=0.13524375@note_on channel=0 note=64 velocity=100 time=0@note_on channel=0 note=64 velocity=0 time=0.13524375@note_on channel=0 note=73 velocity=100 time=0@note_on channel=1 note=55 velocity=100 time=0@note_on channel=0 note=73 velocity=0 time=0.13524375@note_on channel=0 note=70 velocity=100 time=0@note_on channel=0 note=70 velocity=0 time=0.13524375@note_on channel=0 note=71 velocity=100 time=0@note_on channel=1 note=55 velocity=0 time=0@note_on channel=0 note=71 velocity=0 time=0.13524375@note_on channel=0 note=73 velocity=100 time=0@note_on channel=0 note=73 velocity=0 time=0.13524375@note_on channel=0 note=66 velocity=100 time=0@note_on channel=1 note=58 velocity=100 time=0@note_on channel=0 note=66 velocity=0 time=0.13524375@note_on channel=0 note=76 velocity=100 time=0@note_on channel=0 note=76 velocity=0 time=0.13524375@note_on channel=0 note=74 velocity=100 time=0@note_on channel=1 note=58 velocity=0 time=0@note_on channel=0 note=74 velocity=0 time=0.13524375@note_on channel=0 note=73 velocity=100 time=0@note_on channel=0 note=73 velocity=0 time=0.13524375@note_on channel=0 note=74 velocity=100 time=0@note_on channel=1 note=47 velocity=100 time=0@note_on channel=0 note=74 velocity=0 time=0.13524375@note_on channel=0 note=71 velocity=100 time=0@note_on channel=0 note=71 velocity=0 time=0.13524375@note_on channel=0 note=73 velocity=100 time=0@note_on channel=1 note=47 velocity=0 time=0@note_on channel=0 note=73 velocity=0 time=0.13524375@note_on channel=0 note=74 velocity=100 time=0@note_on channel=0 note=74 velocity=0 time=0.13524375@note_on channel=0 note=66 velocity=100 time=0@note_on channel=1 note=59 velocity=100 time=0@note_on channel=0 note=66 velocity=0 time=0.13524375@note_on channel=0 note=69 velocity=100 time=0@note_on channel=0 note=69 velocity=0 time=0.13524375@note_on channel=0 note=68 velocity=100 time=0@note_on channel=1 note=59 velocity=0 time=0@note_on channel=0 note=68 velocity=0 time=0.13524375@note_on channel=0 note=66 velocity=100 time=0@note_on channel=0 note=66 velocity=0 time=0.13524375@note_on channel=0 note=68 velocity=100 time=0@note_on channel=1 note=52 velocity=100 time=0@note_on channel=0 note=68 velocity=0 time=0.13524375@note_on channel=0 note=71 velocity=100 time=0@note_on channel=0 note=71 velocity=0 time=0.13524375@note_on channel=0 note=72 velocity=100 time=0@note_on channel=1 note=52 velocity=0 time=0@note_on channel=0 note=72 velocity=0 time=0.13524375@note_on channel=0 note=74 velocity=100 time=0@note_on channel=0 note=74 velocity=0 time=0.13524375@note_on channel=0 note=64 velocity=100 time=0@note_on channel=1 note=56 velocity=100 time=0@note_on channel=0 note=64 velocity=0 time=0.13524375@note_on channel=0 note=74 velocity=100 time=0@note_on channel=0 note=74 velocity=0 time=0.13524375@note_on channel=0 note=72 velocity=100 time=0@note_on channel=1 note=56 velocity=0 time=0@note_on channel=0 note=72 velocity=0 time=0.13524375@note_on channel=0 note=71 velocity=100 time=0@note_on channel=0 note=71 velocity=0 time=0.13524375@note_on channel=0 note=72 velocity=100 time=0@note_on channel=1 note=45 velocity=100 time=0@note_on channel=0 note=72 velocity=0 time=0.13524375@note_on channel=0 note=69 velocity=100 time=0@note_on channel=0 note=69 velocity=0 time=0.13524375@note_on channel=0 note=71 velocity=100 time=0@note_on channel=1 note=45 velocity=0 time=0@note_on channel=0 note=71 velocity=0 time=0.13524375@note_on channel=0 note=72 velocity=100 time=0@note_on channel=0 note=72 velocity=0 time=0.13524375@note_on channel=0 note=64 velocity=100 time=0@note_on channel=1 note=57 velocity=100 time=0@note_on channel=0 note=64 velocity=0 time=0.13524375@note_on channel=0 note=67 velocity=100 time=0@note_on channel=0 note=67 velocity=0 time=0.13524375@note_on channel=0 note=66 velocity=100 time=0@note_on channel=1 note=57 velocity=0 time=0@note_on channel=0 note=66 velocity=0 time=0.13524375@note_on channel=0 note=64 velocity=100 time=0@note_on channel=0 note=64 velocity=0 time=0.13524375@note_on channel=0 note=66 velocity=100 time=0@note_on channel=1 note=50 velocity=100 time=0@note_on channel=0 note=66 velocity=0 time=0.13524375@note_on channel=0 note=69 velocity=100 time=0@note_on channel=0 note=69 velocity=0 time=0.13524375@note_on channel=0 note=71 velocity=100 time=0@note_on channel=1 note=50 velocity=0 time=0@note_on channel=0 note=71 velocity=0 time=0.13524375@note_on channel=0 note=72 velocity=100 time=0@note_on channel=0 note=72 velocity=0 time=0.13524375@note_on channel=0 note=62 velocity=100 time=0@note_on channel=1 note=54 velocity=100 time=0@note_on channel=0 note=62 velocity=0 time=0.13524375@note_on channel=0 note=72 velocity=100 time=0@note_on channel=0 note=72 velocity=0 time=0.13524375@note_on channel=0 note=71 velocity=100 time=0@note_on channel=1 note=54 velocity=0 time=0@note_on channel=0 note=71 velocity=0 time=0.13524375@note_on channel=0 note=69 velocity=100 time=0@note_on channel=0 note=69 velocity=0 time=0.13524375@note_on channel=0 note=71 velocity=100 time=0@note_on channel=1 note=43 velocity=100 time=0@note_on channel=0 note=71 velocity=0 time=0.13524375@note_on channel=0 note=67 velocity=100 time=0@note_on channel=0 note=67 velocity=0 time=0.13524375@note_on channel=0 note=69 velocity=100 time=0@note_on channel=1 note=43 velocity=0 time=0@note_on channel=0 note=69 velocity=0 time=0.13524375@note_on channel=0 note=71 velocity=100 time=0@note_on channel=0 note=71 velocity=0 time=0.13524375@note_on channel=0 note=62 velocity=100 time=0@note_on channel=1 note=55 velocity=100 time=0@note_on channel=0 note=62 velocity=0 time=0.13524375@note_on channel=0 note=71 velocity=100 time=0@note_on channel=0 note=71 velocity=0 time=0.13524375@note_on channel=0 note=69 velocity=100 time=0@note_on channel=1 note=55 velocity=0 time=0@note_on channel=0 note=69 velocity=0 time=0.13524375@note_on channel=0 note=67 velocity=100 time=0@note_on channel=0 note=67 velocity=0 time=0.13524375@note_on channel=0 note=74 velocity=100 time=0@note_on channel=1 note=47 velocity=100 time=0@note_on channel=0 note=74 velocity=0 time=0.13524375@note_on channel=0 note=67 velocity=100 time=0@note_on channel=0 note=67 velocity=0 time=0.13524375@note_on channel=0 note=69 velocity=100 time=0@note_on channel=1 note=47 velocity=0 time=0@note_on channel=0 note=69 velocity=0 time=0.13524375@note_on channel=0 note=71 velocity=100 time=0@note_on channel=0 note=71 velocity=0 time=0.13524375@note_on channel=0 note=62 velocity=100 time=0@note_on channel=1 note=55 velocity=100 time=0@note_on channel=0 note=62 velocity=0 time=0.13524375@note_on channel=0 note=71 velocity=100 time=0@note_on channel=0 note=71 velocity=0 time=0.13524375@note_on channel=0 note=69 velocity=100 time=0@note_on channel=1 note=55 velocity=0 time=0@note_on channel=0 note=69 velocity=0 time=0.13524375@note_on channel=0 note=67 velocity=100 time=0@note_on channel=0 note=67 velocity=0 time=0.13524375@note_on channel=0 note=72 velocity=100 time=0@note_on channel=1 note=45 velocity=100 time=0@note_on channel=0 note=72 velocity=0 time=0.13524375@note_on channel=0 note=69 velocity=100 time=0@note_on channel=0 note=69 velocity=0 time=0.13524375@note_on channel=0 note=71 velocity=100 time=0@note_on channel=1 note=45 velocity=0 time=0@note_on channel=0 note=71 velocity=0 time=0.13524375@note_on channel=0 note=72 velocity=100 time=0@note_on channel=0 note=72 velocity=0 time=0.13524375@note_on channel=0 note=64 velocity=100 time=0@note_on channel=1 note=55 velocity=100 time=0@note_on channel=0 note=64 velocity=0 time=0.13524375@note_on channel=0 note=67 velocity=100 time=0@note_on channel=0 note=67 velocity=0 time=0.13524375@note_on channel=0 note=66 velocity=100 time=0@note_on channel=1 note=55 velocity=0 time=0@note_on channel=0 note=66 velocity=0 time=0.13524375@note_on channel=0 note=64 velocity=100 time=0@note_on channel=0 note=64 velocity=0 time=0.13524375@note_on channel=0 note=66 velocity=100 time=0@note_on channel=1 note=50 velocity=100 time=0@note_on channel=0 note=66 velocity=0 time=0.13524375@note_on channel=0 note=69 velocity=100 time=0@note_on channel=0 note=69 velocity=0 time=0.13524375@note_on channel=0 note=71 velocity=100 time=0@note_on channel=1 note=50 velocity=0 time=0@note_on channel=0 note=71 velocity=0 time=0.13524375@note_on channel=0 note=72 velocity=100 time=0@note_on channel=0 note=72 velocity=0 time=0.13524375@note_on channel=0 note=62 velocity=100 time=0@note_on channel=1 note=54 velocity=100 time=0@note_on channel=0 note=62 velocity=0 time=0.13524375@note_on channel=0 note=72 velocity=100 time=0@note_on channel=0 note=72 velocity=0 time=0.13524375@note_on channel=0 note=71 velocity=100 time=0@note_on channel=1 note=54 velocity=0 time=0@note_on channel=0 note=71 velocity=0 time=0.13524375@note_on channel=0 note=69 velocity=100 time=0@note_on channel=0 note=69 velocity=0 time=0.13524375@note_on channel=0 note=71 velocity=100 time=0@note_on channel=1 note=43 velocity=100 time=0@note_on channel=0 note=71 velocity=0 time=0.13524375@note_on channel=0 note=67 velocity=100 time=0@note_on channel=0 note=67 velocity=0 time=0.13524375@note_on channel=0 note=69 velocity=100 time=0@note_on channel=1 note=43 velocity=0 time=0@note_on channel=0 note=69 velocity=0 time=0.13524375@note_on channel=0 note=71 velocity=100 time=0@note_on channel=0 note=71 velocity=0 time=0.13524375@note_on channel=0 note=62 velocity=100 time=0@note_on channel=1 note=55 velocity=100 time=0@note_on channel=0 note=62 velocity=0 time=0.13524375@note_on channel=0 note=66 velocity=100 time=0@note_on channel=0 note=66 velocity=0 time=0.13524375@note_on channel=0 note=64 velocity=100 time=0@note_on channel=1 note=55 velocity=0 time=0@note_on channel=0 note=64 velocity=0 time=0.13524375@note_on channel=0 note=62 velocity=100 time=0@note_on channel=0 note=62 velocity=0 time=0.13524375@note_on channel=0 note=64 velocity=100 time=0@note_on channel=1 note=43 velocity=100 time=0@note_on channel=0 note=64 velocity=0 time=0.13524375@note_on channel=0 note=67 velocity=100 time=0@note_on channel=0 note=67 velocity=0 time=0.13524375@note_on channel=0 note=69 velocity=100 time=0@note_on channel=1 note=43 velocity=0 time=0@note_on channel=0 note=69 velocity=0 time=0.13524375@note_on channel=0 note=71 velocity=100 time=0@note_on channel=0 note=71 velocity=0 time=0.13524375@note_on channel=0 note=64 velocity=100 time=0@note_on channel=1 note=55 velocity=100 time=0@note_on channel=0 note=64 velocity=0 time=0.13524375@note_on channel=0 note=74 velocity=100 time=0@note_on channel=0 note=74 velocity=0 time=0.13524375@note_on channel=0 note=73 velocity=100 time=0@note_on channel=1 note=55 velocity=0 time=0@note_on channel=0 note=73 velocity=0 time=0.13524375@note_on channel=0 note=71 velocity=100 time=0@note_on channel=0 note=71 velocity=0 time=0.13524375@note_on channel=0 note=73 velocity=100 time=0@note_on channel=1 note=43 velocity=100 time=0@note_on channel=0 note=73 velocity=0 time=0.13524375@note_on channel=0 note=69 velocity=100 time=0@note_on channel=0 note=69 velocity=0 time=0.13524375@note_on channel=0 note=71 velocity=100 time=0@note_on channel=1 note=43 velocity=0 time=0@note_on channel=0 note=71 velocity=0 time=0.13524375@note_on channel=0 note=73 velocity=100 time=0@note_on channel=0 note=73 velocity=0 time=0.13524375@note_on channel=0 note=64 velocity=100 time=0@note_on channel=1 note=49 velocity=100 time=0@note_on channel=0 note=64 velocity=0 time=0.13524375@note_on channel=0 note=67 velocity=100 time=0@note_on channel=0 note=67 velocity=0 time=0.13524375@note_on channel=0 note=66 velocity=100 time=0@note_on channel=1 note=49 velocity=0 time=0@note_on channel=0 note=66 velocity=0 time=0.13524375@note_on channel=0 note=64 velocity=100 time=0@note_on channel=0 note=64 velocity=0 time=0.13524375@note_on channel=0 note=62 velocity=100 time=0@note_on channel=1 note=42 velocity=100 time=0@note_on channel=0 note=62 velocity=0 time=0.13524375@note_on channel=0 note=66 velocity=100 time=0@note_on channel=0 note=66 velocity=0 time=0.13524375@note_on channel=0 note=67 velocity=100 time=0@note_on channel=1 note=42 velocity=0 time=0@note_on channel=0 note=67 velocity=0 time=0.13524375@note_on channel=0 note=69 velocity=100 time=0@note_on channel=0 note=69 velocity=0 time=0.13524375@note_on channel=0 note=59 velocity=100 time=0@note_on channel=1 note=50 velocity=100 time=0@note_on channel=0 note=59 velocity=0 time=0.13524375@note_on channel=0 note=69 velocity=100 time=0@note_on channel=0 note=69 velocity=0 time=0.13524375@note_on channel=0 note=67 velocity=100 time=0@note_on channel=1 note=50 velocity=0 time=0@note_on channel=0 note=67 velocity=0 time=0.13524375@note_on channel=0 note=66 velocity=100 time=0@note_on channel=0 note=66 velocity=0 time=0.13524375@note_on channel=0 note=67 velocity=100 time=0@note_on channel=1 note=40 velocity=100 time=0@note_on channel=0 note=67 velocity=0 time=0.13524375@note_on channel=0 note=64 velocity=100 time=0@note_on channel=0 note=64 velocity=0 time=0.13524375@note_on channel=0 note=66 velocity=100 time=0@note_on channel=1 note=40 velocity=0 time=0@note_on channel=0 note=66 velocity=0 time=0.13524375@note_on channel=0 note=67 velocity=100 time=0@note_on channel=0 note=67 velocity=0 time=0.13524375@note_on channel=0 note=59 velocity=100 time=0@note_on channel=1 note=50 velocity=100 time=0@note_on channel=0 note=59 velocity=0 time=0.13524375@note_on channel=0 note=62 velocity=100 time=0@note_on channel=0 note=62 velocity=0 time=0.13524375@note_on channel=0 note=61 velocity=100 time=0@note_on channel=1 note=50 velocity=0 time=0@note_on channel=0 note=61 velocity=0 time=0.13524375@note_on channel=0 note=59 velocity=100 time=0@note_on channel=0 note=59 velocity=0 time=0.13524375@note_on channel=0 note=61 velocity=100 time=0@note_on channel=1 note=45 velocity=100 time=0@note_on channel=0 note=61 velocity=0 time=0.13524375@note_on channel=0 note=64 velocity=100 time=0@note_on channel=0 note=64 velocity=0 time=0.13524375@note_on channel=0 note=66 velocity=100 time=0@note_on channel=1 note=45 velocity=0 time=0@note_on channel=0 note=66 velocity=0 time=0.13524375@note_on channel=0 note=67 velocity=100 time=0@note_on channel=0 note=67 velocity=0 time=0.13524375@note_on channel=0 note=57 velocity=100 time=0@note_on channel=1 note=49 velocity=100 time=0@note_on channel=0 note=57 velocity=0 time=0.13524375@note_on channel=0 note=67 velocity=100 time=0@note_on channel=0 note=67 velocity=0 time=0.13524375@note_on channel=0 note=66 velocity=100 time=0@note_on channel=1 note=49 velocity=0 time=0@note_on channel=0 note=66 velocity=0 time=0.13524375@note_on channel=0 note=64 velocity=100 time=0@note_on channel=0 note=64 velocity=0 time=0.13524375@note_on channel=0 note=66 velocity=100 time=0@note_on channel=1 note=38 velocity=100 time=0@note_on channel=0 note=66 velocity=0 time=0.13524375@note_on channel=0 note=62 velocity=100 time=0@note_on channel=0 note=62 velocity=0 time=0.13524375@note_on channel=0 note=64 velocity=100 time=0@note_on channel=1 note=38 velocity=0 time=0@note_on channel=0 note=64 velocity=0 time=0.13524375@note_on channel=0 note=66 velocity=100 time=0@note_on channel=0 note=66 velocity=0 time=0.13524375@note_on channel=0 note=57 velocity=100 time=0@note_on channel=1 note=50 velocity=100 time=0@note_on channel=0 note=57 velocity=0 time=0.13524375@note_on channel=0 note=66 velocity=100 time=0@note_on channel=0 note=66 velocity=0 time=0.13524375@note_on channel=0 note=64 velocity=100 time=0@note_on channel=1 note=50 velocity=0 time=0@note_on channel=0 note=64 velocity=0 time=0.13524375@note_on channel=0 note=62 velocity=100 time=0@note_on channel=0 note=62 velocity=0 time=0.13524375@note_on channel=0 note=69 velocity=100 time=0@note_on channel=1 note=42 velocity=100 time=0@note_on channel=0 note=69 velocity=0 time=0.13524375@note_on channel=0 note=66 velocity=100 time=0@note_on channel=0 note=66 velocity=0 time=0.13524375@note_on channel=0 note=67 velocity=100 time=0@note_on channel=1 note=42 velocity=0 time=0@note_on channel=0 note=67 velocity=0 time=0.13524375@note_on channel=0 note=69 velocity=100 time=0@note_on channel=0 note=69 velocity=0 time=0.13524375@note_on channel=0 note=62 velocity=100 time=0@note_on channel=1 note=57 velocity=100 time=0@note_on channel=0 note=62 velocity=0 time=0.13524375@note_on channel=0 note=72 velocity=100 time=0@note_on channel=0 note=72 velocity=0 time=0.13524375@note_on channel=0 note=71 velocity=100 time=0@note_on channel=1 note=57 velocity=0 time=0@note_on channel=0 note=71 velocity=0 time=0.13524375@note_on channel=0 note=69 velocity=100 time=0@note_on channel=0 note=69 velocity=0 time=0.13524375@note_on channel=0 note=71 velocity=100 time=0@note_on channel=1 note=43 velocity=100 time=0@note_on channel=0 note=71 velocity=0 time=0.13524375@note_on channel=0 note=67 velocity=100 time=0@note_on channel=0 note=67 velocity=0 time=0.13524375@note_on channel=0 note=69 velocity=100 time=0@note_on channel=1 note=43 velocity=0 time=0@note_on channel=0 note=69 velocity=0 time=0.13524375@note_on channel=0 note=71 velocity=100 time=0@note_on channel=0 note=71 velocity=0 time=0.13524375@note_on channel=0 note=62 velocity=100 time=0@note_on channel=1 note=55 velocity=100 time=0@note_on channel=0 note=62 velocity=0 time=0.13524375@note_on channel=0 note=71 velocity=100 time=0@note_on channel=0 note=71 velocity=0 time=0.13524375@note_on channel=0 note=69 velocity=100 time=0@note_on channel=1 note=55 velocity=0 time=0@note_on channel=0 note=69 velocity=0 time=0.13524375@note_on channel=0 note=67 velocity=100 time=0@note_on channel=0 note=67 velocity=0 time=0.13524375@note_on channel=0 note=74 velocity=100 time=0@note_on channel=1 note=47 velocity=100 time=0@note_on channel=0 note=74 velocity=0 time=0.13524375@note_on channel=0 note=71 velocity=100 time=0@note_on channel=0 note=71 velocity=0 time=0.13524375@note_on channel=0 note=73 velocity=100 time=0@note_on channel=1 note=47 velocity=0 time=0@note_on channel=0 note=73 velocity=0 time=0.13524375@note_on channel=0 note=74 velocity=100 time=0@note_on channel=0 note=74 velocity=0 time=0.13524375@note_on channel=0 note=68 velocity=100 time=0@note_on channel=1 note=59 velocity=100 time=0@note_on channel=0 note=68 velocity=0 time=0.13524375@note_on channel=0 note=77 velocity=100 time=0@note_on channel=0 note=77 velocity=0 time=0.13524375@note_on channel=0 note=76 velocity=100 time=0@note_on channel=1 note=59 velocity=0 time=0@note_on channel=0 note=76 velocity=0 time=0.13524375@note_on channel=0 note=74 velocity=100 time=0@<meta message set_tempo tempo=568023 time=0.13524375>@note_on channel=0 note=74 velocity=0 time=0@note_on channel=0 note=73 velocity=100 time=0@note_on channel=1 note=45 velocity=80 time=0@note_on channel=0 note=73 velocity=0 time=0.14200575@note_on channel=0 note=69 velocity=100 time=0@note_on channel=0 note=69 velocity=0 time=0.14200575@note_on channel=0 note=71 velocity=100 time=0@note_on channel=0 note=71 velocity=0 time=0.14200575@note_on channel=0 note=73 velocity=100 time=0@note_on channel=0 note=73 velocity=0 time=0.14200575@note_on channel=0 note=64 velocity=100 time=0@note_on channel=1 note=55 velocity=100 time=0@note_on channel=0 note=64 velocity=0 time=0.14200575@note_on channel=0 note=67 velocity=100 time=0@note_on channel=0 note=67 velocity=0 time=0.14200575@note_on channel=0 note=66 velocity=100 time=0@note_on channel=1 note=55 velocity=0 time=0@note_on channel=0 note=66 velocity=0 time=0.14200575@note_on channel=0 note=64 velocity=100 time=0@note_on channel=0 note=64 velocity=0 time=0.14200575@note_on channel=0 note=69 velocity=100 time=0@note_on channel=1 note=54 velocity=100 time=0@note_on channel=0 note=69 velocity=0 time=0.14200575@note_on channel=0 note=74 velocity=100 time=0@note_on channel=0 note=74 velocity=0 time=0.14200575@note_on channel=0 note=76 velocity=100 time=0@note_on channel=1 note=54 velocity=0 time=0@note_on channel=0 note=76 velocity=0 time=0.14200575@note_on channel=0 note=78 velocity=100 time=0@note_on channel=0 note=78 velocity=0 time=0.14200575@note_on channel=0 note=71 velocity=100 time=0@note_on channel=1 note=50 velocity=100 time=0@note_on channel=0 note=71 velocity=0 time=0.14200575@note_on channel=0 note=81 velocity=100 time=0@note_on channel=0 note=81 velocity=0 time=0.14200575@note_on channel=0 note=79 velocity=100 time=0@note_on channel=1 note=50 velocity=0 time=0@note_on channel=0 note=79 velocity=0 time=0.14200575@note_on channel=0 note=78 velocity=100 time=0@note_on channel=0 note=78 velocity=0 time=0.14200575@note_on channel=0 note=79 velocity=100 time=0@note_on channel=1 note=52 velocity=100 time=0@note_on channel=0 note=79 velocity=0 time=0.14200575@note_on channel=0 note=73 velocity=100 time=0@note_on channel=0 note=73 velocity=0 time=0.14200575@note_on channel=0 note=74 velocity=100 time=0@note_on channel=1 note=52 velocity=0 time=0@note_on channel=0 note=74 velocity=0 time=0.14200575@note_on channel=0 note=76 velocity=100 time=0@note_on channel=0 note=76 velocity=0 time=0.14200575@note_on channel=0 note=69 velocity=100 time=0@note_on channel=1 note=49 velocity=100 time=0@note_on channel=0 note=69 velocity=0 time=0.14200575@note_on channel=0 note=79 velocity=100 time=0@note_on channel=0 note=79 velocity=0 time=0.14200575@note_on channel=0 note=78 velocity=100 time=0@note_on channel=1 note=49 velocity=0 time=0@note_on channel=0 note=78 velocity=0 time=0.14200575@note_on channel=0 note=76 velocity=100 time=0@note_on channel=0 note=76 velocity=0 time=0.14200575@note_on channel=0 note=78 velocity=100 time=0@note_on channel=1 note=50 velocity=100 time=0@note_on channel=0 note=78 velocity=0 time=0.14200575@note_on channel=0 note=71 velocity=100 time=0@note_on channel=0 note=71 velocity=0 time=0.14200575@note_on channel=0 note=73 velocity=100 time=0@note_on channel=1 note=50 velocity=0 time=0@note_on channel=0 note=73 velocity=0 time=0.14200575@note_on channel=0 note=74 velocity=100 time=0@note_on channel=0 note=74 velocity=0 time=0.14200575@note_on channel=0 note=68 velocity=100 time=0@note_on channel=1 note=47 velocity=100 time=0@note_on channel=0 note=68 velocity=0 time=0.14200575@note_on channel=0 note=78 velocity=100 time=0@note_on channel=0 note=78 velocity=0 time=0.14200575@note_on channel=0 note=76 velocity=100 time=0@note_on channel=1 note=47 velocity=0 time=0@note_on channel=0 note=76 velocity=0 time=0.14200575@note_on channel=0 note=74 velocity=100 time=0@note_on channel=0 note=74 velocity=0 time=0.14200575@note_on channel=0 note=73 velocity=100 time=0@note_on channel=0 note=73 velocity=0 time=0.14200575@note_on channel=0 note=67 velocity=100 time=0@note_on channel=1 note=52 velocity=100 time=0@note_on channel=0 note=67 velocity=0 time=0.14200575@note_on channel=0 note=69 velocity=100 time=0@note_on channel=1 note=52 velocity=0 time=0@note_on channel=1 note=54 velocity=100 time=0@note_on channel=0 note=69 velocity=0 time=0.14200575@note_on channel=0 note=70 velocity=100 time=0@note_on channel=1 note=54 velocity=0 time=0@note_on channel=1 note=55 velocity=100 time=0@note_on channel=0 note=70 velocity=0 time=0.14200575@note_on channel=0 note=64 velocity=100 time=0@note_on channel=1 note=55 velocity=0 time=0@note_on channel=1 note=49 velocity=100 time=0@note_on channel=0 note=64 velocity=0 time=0.14200575@note_on channel=0 note=67 velocity=100 time=0@note_on channel=1 note=49 velocity=0 time=0@note_on channel=1 note=52 velocity=100 time=0@note_on channel=0 note=67 velocity=0 time=0.14200575@note_on channel=0 note=65 velocity=100 time=0@note_on channel=1 note=52 velocity=0 time=0@note_on channel=1 note=50 velocity=100 time=0@note_on channel=0 note=65 velocity=0 time=0.14200575@note_on channel=0 note=64 velocity=100 time=0@note_on channel=1 note=50 velocity=0 time=0@note_on channel=1 note=49 velocity=100 time=0@note_on channel=0 note=64 velocity=0 time=0.14200575@note_on channel=0 note=65 velocity=100 time=0@note_on channel=1 note=49 velocity=0 time=0@note_on channel=1 note=50 velocity=100 time=0@note_on channel=0 note=65 velocity=0 time=0.14200575@note_on channel=0 note=74 velocity=100 time=0@note_on channel=1 note=50 velocity=0 time=0@note_on channel=1 note=53 velocity=100 time=0@note_on channel=0 note=74 velocity=0 time=0.14200575@note_on channel=0 note=76 velocity=100 time=0@note_on channel=1 note=53 velocity=0 time=0@note_on channel=1 note=55 velocity=100 time=0@note_on channel=0 note=76 velocity=0 time=0.14200575@note_on channel=0 note=77 velocity=100 time=0@note_on channel=1 note=55 velocity=0 time=0@note_on channel=1 note=57 velocity=100 time=0@note_on channel=0 note=77 velocity=0 time=0.14200575@note_on channel=0 note=73 velocity=100 time=0@note_on channel=1 note=57 velocity=0 time=0@note_on channel=1 note=52 velocity=100 time=0@note_on channel=0 note=73 velocity=0 time=0.14200575@note_on channel=0 note=76 velocity=100 time=0@note_on channel=1 note=52 velocity=0 time=0@note_on channel=1 note=55 velocity=100 time=0@note_on channel=0 note=76 velocity=0 time=0.14200575@note_on channel=0 note=74 velocity=100 time=0@note_on channel=1 note=55 velocity=0 time=0@note_on channel=1 note=53 velocity=100 time=0@note_on channel=0 note=74 velocity=0 time=0.14200575@note_on channel=0 note=73 velocity=100 time=0@note_on channel=1 note=53 velocity=0 time=0@note_on channel=1 note=52 velocity=100 time=0@note_on channel=0 note=73 velocity=0 time=0.14200575@note_on channel=0 note=74 velocity=100 time=0@note_on channel=1 note=52 velocity=0 time=0@note_on channel=1 note=45 velocity=0 time=0@note_on channel=1 note=53 velocity=100 time=0@note_on channel=0 note=74 velocity=0 time=0.14200575@note_on channel=0 note=82 velocity=100 time=0@note_on channel=1 note=53 velocity=0 time=0@note_on channel=1 note=50 velocity=100 time=0@note_on channel=0 note=82 velocity=0 time=0.14200575@note_on channel=0 note=81 velocity=100 time=0@note_on channel=1 note=50 velocity=0 time=0@note_on channel=1 note=52 velocity=100 time=0@note_on channel=0 note=81 velocity=0 time=0.14200575@note_on channel=0 note=79 velocity=100 time=0@note_on channel=1 note=52 velocity=0 time=0@note_on channel=1 note=53 velocity=100 time=0@note_on channel=0 note=79 velocity=0 time=0.14200575@note_on channel=0 note=77 velocity=100 time=0@note_on channel=1 note=53 velocity=0 time=0@note_on channel=1 note=45 velocity=100 time=0@note_on channel=0 note=77 velocity=0 time=0.14200575@note_on channel=0 note=76 velocity=100 time=0@note_on channel=1 note=45 velocity=0 time=0@note_on channel=1 note=48 velocity=100 time=0@note_on channel=0 note=76 velocity=0 time=0.14200575@note_on channel=0 note=74 velocity=100 time=0@note_on channel=1 note=48 velocity=0 time=0@note_on channel=1 note=46 velocity=100 time=0@note_on channel=0 note=74 velocity=0 time=0.14200575@note_on channel=0 note=73 velocity=100 time=0@note_on channel=1 note=46 velocity=0 time=0@note_on channel=1 note=45 velocity=100 time=0@note_on channel=0 note=73 velocity=0 time=0.14200575@note_on channel=0 note=74 velocity=100 time=0@note_on channel=1 note=45 velocity=0 time=0@note_on channel=1 note=44 velocity=100 time=0@note_on channel=0 note=74 velocity=0 time=0.14200575@note_on channel=0 note=77 velocity=100 time=0@note_on channel=0 note=77 velocity=0 time=0.14200575@note_on channel=0 note=76 velocity=100 time=0@note_on channel=0 note=76 velocity=0 time=0.14200575@note_on channel=0 note=74 velocity=100 time=0@note_on channel=0 note=74 velocity=0 time=0.14200575@note_on channel=0 note=83 velocity=100 time=0@note_on channel=0 note=83 velocity=0 time=0.14200575@note_on channel=0 note=80 velocity=100 time=0@note_on channel=0 note=80 velocity=0 time=0.14200575@note_on channel=0 note=81 velocity=100 time=0@note_on channel=0 note=81 velocity=0 time=0.14200575@note_on channel=0 note=83 velocity=100 time=0@note_on channel=0 note=83 velocity=0 time=0.14200575@note_on channel=0 note=77 velocity=100 time=0@note_on channel=0 note=77 velocity=0 time=0.14200575@note_on channel=0 note=74 velocity=100 time=0@note_on channel=0 note=74 velocity=0 time=0.14200575@note_on channel=0 note=76 velocity=100 time=0@note_on channel=0 note=76 velocity=0 time=0.14200575@note_on channel=0 note=77 velocity=100 time=0@note_on channel=0 note=77 velocity=0 time=0.14200575@note_on channel=0 note=71 velocity=100 time=0@note_on channel=0 note=71 velocity=0 time=0.14200575@note_on channel=0 note=68 velocity=100 time=0@note_on channel=0 note=68 velocity=0 time=0.14200575@note_on channel=0 note=69 velocity=100 time=0@note_on channel=0 note=69 velocity=0 time=0.14200575@note_on channel=0 note=71 velocity=100 time=0@note_on channel=0 note=71 velocity=0 time=0.14200575@note_on channel=0 note=64 velocity=100 time=0@note_on channel=0 note=64 velocity=0 time=0.14200575@note_on channel=0 note=66 velocity=100 time=0@note_on channel=0 note=66 velocity=0 time=0.14200575@note_on channel=0 note=68 velocity=100 time=0@note_on channel=0 note=68 velocity=0 time=0.14200575@note_on channel=0 note=69 velocity=100 time=0@note_on channel=0 note=69 velocity=0 time=0.14200575@note_on channel=0 note=71 velocity=100 time=0@note_on channel=0 note=71 velocity=0 time=0.14200575@note_on channel=0 note=73 velocity=100 time=0@note_on channel=0 note=73 velocity=0 time=0.14200575@note_on channel=0 note=74 velocity=100 time=0@note_on channel=0 note=74 velocity=0 time=0.14200575@note_on channel=0 note=76 velocity=100 time=0@<meta message set_tempo tempo=595072 time=0.14200575>@note_on channel=0 note=76 velocity=0 time=0@note_on channel=0 note=77 velocity=80 time=0@note_on channel=0 note=77 velocity=100 time=0@note_on channel=1 note=44 velocity=0 time=0@note_on channel=1 note=45 velocity=80 time=0@note_on channel=0 note=77 velocity=0 time=0.14876799999999998@note_on channel=0 note=73 velocity=100 time=0@note_on channel=0 note=73 velocity=0 time=0.14876799999999998@note_on channel=0 note=74 velocity=100 time=0@note_on channel=1 note=57 velocity=100 time=0@note_on channel=0 note=74 velocity=0 time=0.14876799999999998@note_on channel=0 note=69 velocity=100 time=0@note_on channel=0 note=69 velocity=0 time=0.14876799999999998@note_on channel=0 note=70 velocity=100 time=0@note_on channel=1 note=57 velocity=0 time=0@note_on channel=1 note=55 velocity=100 time=0@note_on channel=0 note=70 velocity=0 time=0.14876799999999998@note_on channel=0 note=67 velocity=100 time=0@note_on channel=0 note=77 velocity=0 time=0.14876799999999998@note_on channel=0 note=76 velocity=80 time=0@note_on channel=0 note=67 velocity=0 time=0@note_on channel=0 note=76 velocity=100 time=0@note_on channel=1 note=55 velocity=0 time=0@note_on channel=1 note=49 velocity=100 time=0@note_on channel=0 note=76 velocity=0 time=0.14876799999999998@note_on channel=0 note=67 velocity=100 time=0@note_on channel=0 note=67 velocity=0 time=0.14876799999999998@note_on channel=0 note=69 velocity=100 time=0@note_on channel=1 note=49 velocity=0 time=0@note_on channel=1 note=53 velocity=100 time=0@note_on channel=0 note=69 velocity=0 time=0.14876799999999998@note_on channel=0 note=65 velocity=100 time=0@note_on channel=0 note=76 velocity=0 time=0.14876799999999998@note_on channel=0 note=74 velocity=80 time=0@note_on channel=0 note=65 velocity=0 time=0@note_on channel=0 note=74 velocity=100 time=0@note_on channel=1 note=53 velocity=0 time=0@note_on channel=1 note=50 velocity=100 time=0@note_on channel=0 note=74 velocity=0 time=0.14876799999999998@note_on channel=0 note=65 velocity=100 time=0@note_on channel=0 note=65 velocity=0 time=0.14876799999999998@note_on channel=0 note=67 velocity=100 time=0@note_on channel=1 note=50 velocity=0 time=0@note_on channel=1 note=52 velocity=100 time=0@note_on channel=0 note=67 velocity=0 time=0.14876799999999998@note_on channel=0 note=64 velocity=100 time=0@note_on channel=0 note=74 velocity=0 time=0.14876799999999998@note_on channel=0 note=73 velocity=80 time=0@note_on channel=0 note=64 velocity=0 time=0@note_on channel=0 note=73 velocity=100 time=0@note_on channel=1 note=52 velocity=0 time=0@note_on channel=1 note=55 velocity=100 time=0@note_on channel=0 note=73 velocity=0 time=0.14876799999999998@note_on channel=0 note=64 velocity=100 time=0@<meta message set_tempo tempo=649170 time=0.14876799999999998>@note_on channel=0 note=73 velocity=0 time=0@note_on channel=0 note=64 velocity=0 time=0@note_on channel=1 note=55 velocity=0 time=0@note_on channel=1 note=45 velocity=0 time=0@note_on channel=1 note=45 velocity=80 time=0@note_on channel=1 note=50 velocity=80 time=0.027048750000000003@note_on channel=1 note=53 velocity=80 time=0.01622925@note_on channel=1 note=55 velocity=80 time=0.01622925@note_on channel=1 note=59 velocity=80 time=0.01622925@note_on channel=0 note=62 velocity=80 time=0.01622925@note_on channel=0 note=65 velocity=80 time=0.027048750000000003@note_on channel=0 note=68 velocity=80 time=0.01622925@note_on channel=0 note=71 velocity=80 time=0.01622925@note_on channel=0 note=74 velocity=80 time=0.01622925@note_on channel=0 note=62 velocity=0 time=0.48146775@note_on channel=0 note=65 velocity=0 time=0@note_on channel=0 note=68 velocity=0 time=0@note_on channel=0 note=71 velocity=0 time=0@note_on channel=1 note=45 velocity=0 time=0@note_on channel=1 note=50 velocity=0 time=0@note_on channel=1 note=53 velocity=0 time=0@note_on channel=1 note=55 velocity=0 time=0@note_on channel=1 note=59 velocity=0 time=0@note_on channel=0 note=74 velocity=0 time=0.08114625@note_on channel=0 note=73 velocity=100 time=0@note_on channel=0 note=73 velocity=0 time=0.08114625@note_on channel=0 note=71 velocity=100 time=0@note_on channel=0 note=71 velocity=0 time=0.08114625@note_on channel=0 note=69 velocity=100 time=0@note_on channel=0 note=69 velocity=0 time=0.08114625@note_on channel=0 note=68 velocity=100 time=0@note_on channel=0 note=68 velocity=0 time=0.08114625@note_on channel=0 note=66 velocity=100 time=0@note_on channel=0 note=66 velocity=0 time=0.08114625@note_on channel=0 note=64 velocity=100 time=0@note_on channel=0 note=64 velocity=0 time=0.08114625@note_on channel=0 note=66 velocity=100 time=0@note_on channel=0 note=66 velocity=0 time=0.08114625@note_on channel=0 note=68 velocity=100 time=0@note_on channel=0 note=68 velocity=0 time=0.08114625@note_on channel=0 note=69 velocity=100 time=0@note_on channel=0 note=69 velocity=0 time=0.08114625@note_on channel=0 note=71 velocity=100 time=0@note_on channel=0 note=71 velocity=0 time=0.08114625@note_on channel=0 note=73 velocity=100 time=0@note_on channel=0 note=73 velocity=0 time=0.08114625@note_on channel=0 note=74 velocity=100 time=0@note_on channel=0 note=74 velocity=0 time=0.08114625@note_on channel=0 note=76 velocity=100 time=0@note_on channel=0 note=76 velocity=0 time=0.08114625@note_on channel=0 note=77 velocity=100 time=0@note_on channel=0 note=77 velocity=0 time=0.08114625@note_on channel=0 note=76 velocity=100 time=0@note_on channel=0 note=76 velocity=0 time=0.08114625@note_on channel=0 note=74 velocity=100 time=0@note_on channel=0 note=74 velocity=0 time=0.08114625@note_on channel=0 note=73 velocity=100 time=0@note_on channel=0 note=73 velocity=0 time=0.08114625@note_on channel=0 note=71 velocity=100 time=0@note_on channel=0 note=71 velocity=0 time=0.08114625@note_on channel=0 note=69 velocity=100 time=0@note_on channel=0 note=69 velocity=0 time=0.08114625@note_on channel=0 note=68 velocity=100 time=0@note_on channel=0 note=68 velocity=0 time=0.08114625@note_on channel=0 note=66 velocity=100 time=0@note_on channel=0 note=66 velocity=0 time=0.08114625@note_on channel=0 note=64 velocity=100 time=0@note_on channel=0 note=64 velocity=0 time=0.08114625@note_on channel=0 note=62 velocity=100 time=0@<meta message set_tempo tempo=757365 time=0.08114625>@note_on channel=0 note=62 velocity=0 time=0@note_on channel=1 note=61 velocity=80 time=0@note_on channel=1 note=64 velocity=80 time=0.031556875@note_on channel=1 note=67 velocity=80 time=0.031556875@note_on channel=1 note=70 velocity=80 time=0.031556875@note_on channel=0 note=73 velocity=80 time=0.018934124999999996@note_on channel=0 note=76 velocity=80 time=0.031556875@note_on channel=0 note=79 velocity=80 time=0.031556875@note_on channel=0 note=70 velocity=80 time=0.031556875@note_on channel=0 note=73 velocity=0 time=0.170407125@note_on channel=0 note=76 velocity=0 time=0@note_on channel=0 note=79 velocity=0 time=0@note_on channel=0 note=70 velocity=0 time=0@note_on channel=1 note=61 velocity=0 time=0@note_on channel=1 note=64 velocity=0 time=0@note_on channel=1 note=67 velocity=0 time=0@note_on channel=1 note=70 velocity=0 time=0@note_on channel=1 note=62 velocity=80 time=0.3786825@note_on channel=1 note=65 velocity=80 time=0.031556875@note_on channel=1 note=68 velocity=80 time=0.031556875@note_on channel=1 note=71 velocity=80 time=0.031556875@note_on channel=0 note=74 velocity=80 time=0.018934124999999996@note_on channel=0 note=77 velocity=80 time=0.031556875@note_on channel=0 note=80 velocity=80 time=0.031556875@note_on channel=0 note=83 velocity=80 time=0.031556875@note_on channel=0 note=74 velocity=0 time=0.170407125@note_on channel=0 note=77 velocity=0 time=0@note_on channel=0 note=80 velocity=0 time=0@note_on channel=0 note=83 velocity=0 time=0@note_on channel=1 note=62 velocity=0 time=0@note_on channel=1 note=65 velocity=0 time=0@note_on channel=1 note=68 velocity=0 time=0@note_on channel=1 note=71 velocity=0 time=0@note_on channel=0 note=64 velocity=100 time=0.3786825@note_on channel=0 note=69 velocity=100 time=0@note_on channel=0 note=74 velocity=100 time=0@note_on channel=1 note=45 velocity=100 time=0@note_on channel=1 note=52 velocity=100 time=0@note_on channel=1 note=57 velocity=100 time=0@note_on channel=0 note=74 velocity=0 time=0.757365@note_on channel=0 note=73 velocity=100 time=0@note_on channel=1 note=52 velocity=0 time=0@note_on channel=1 note=55 velocity=100 time=0@note_on channel=0 note=64 velocity=0 time=0.757365@note_on channel=0 note=69 velocity=0 time=0@note_on channel=0 note=73 velocity=0 time=0@note_on channel=0 note=66 velocity=100 time=0@note_on channel=0 note=69 velocity=100 time=0@note_on channel=0 note=74 velocity=100 time=0@note_on channel=1 note=45 velocity=0 time=0@note_on channel=1 note=55 velocity=0 time=0@note_on channel=1 note=57 velocity=0 time=0@note_on channel=1 note=50 velocity=100 time=0@note_on channel=1 note=54 velocity=100 time=0@note_on channel=1 note=57 velocity=100 time=0@note_on channel=0 note=66 velocity=0 time=3.02946@note_on channel=0 note=69 velocity=0 time=0@note_on channel=0 note=74 velocity=0 time=0@note_on channel=1 note=50 velocity=0 time=0@note_on channel=1 note=54 velocity=0 time=0@note_on channel=1 note=57 velocity=0 time=0@<meta message end_of_track time=0>@