<meta message time_signature numerator=4 denominator=4 clocks_per_click=24 notated_32nd_notes_per_beat=8 time=0>@<meta message set_tempo tempo=500000 time=0>@<meta message set_tempo tempo=500000 time=0>@<meta message set_tempo tempo=500000 time=0>@<meta message track_name name='vocal' time=0>@control_change channel=8 control=10 value=64 time=0@control_change channel=8 control=7 value=100 time=0@pitchwheel channel=8 pitch=0 time=0@control_change channel=8 control=101 value=0 time=0@control_change channel=8 control=100 value=0 time=0@control_change channel=8 control=6 value=12 time=0@control_change channel=8 control=10 value=64 time=0@control_change channel=8 control=7 value=100 time=0@pitchwheel channel=8 pitch=0 time=0@program_change channel=8 program=28 time=0@control_change channel=8 control=101 value=0 time=0@control_change channel=8 control=100 value=0 time=0@control_change channel=8 control=6 value=12 time=0@control_change channel=8 control=10 value=64 time=0@control_change channel=8 control=7 value=100 time=0@pitchwheel channel=8 pitch=0 time=0@program_change channel=8 program=28 time=0@program_change channel=8 program=28 time=0@control_change channel=8 control=101 value=0 time=0@control_change channel=8 control=100 value=0 time=0@control_change channel=8 control=6 value=12 time=0@control_change channel=8 control=10 value=64 time=0@control_change channel=8 control=7 value=100 time=0@pitchwheel channel=8 pitch=0 time=0@program_change channel=8 program=28 time=0@program_change channel=8 program=28 time=0@<meta message track_name name='guitar1' time=0>@control_change channel=0 control=10 value=64 time=0@control_change channel=0 control=7 value=100 time=0@pitchwheel channel=0 pitch=0 time=0@control_change channel=0 control=101 value=0 time=0@control_change channel=0 control=100 value=0 time=0@control_change channel=0 control=6 value=12 time=0@control_change channel=0 control=10 value=64 time=0@control_change channel=0 control=7 value=100 time=0@pitchwheel channel=0 pitch=0 time=0@program_change channel=0 program=27 time=0@control_change channel=0 control=101 value=0 time=0@control_change channel=0 control=100 value=0 time=0@control_change channel=0 control=6 value=12 time=0@control_change channel=0 control=10 value=64 time=0@control_change channel=0 control=7 value=100 time=0@pitchwheel channel=0 pitch=0 time=0@program_change channel=0 program=27 time=0@program_change channel=0 program=27 time=0@control_change channel=0 control=101 value=0 time=0@control_change channel=0 control=100 value=0 time=0@control_change channel=0 control=6 value=12 time=0@control_change channel=0 control=10 value=64 time=0@control_change channel=0 control=7 value=100 time=0@pitchwheel channel=0 pitch=0 time=0@program_change channel=0 program=27 time=0@program_change channel=0 program=27 time=0@note_on channel=0 note=63 velocity=80 time=0@note_on channel=0 note=66 velocity=80 time=0@<meta message track_name name='solo guitar' time=0>@control_change channel=11 control=10 value=64 time=0@control_change channel=11 control=7 value=100 time=0@pitchwheel channel=11 pitch=0 time=0@control_change channel=11 control=101 value=0 time=0@control_change channel=11 control=100 value=0 time=0@control_change channel=11 control=6 value=12 time=0@control_change channel=11 control=10 value=64 time=0@control_change channel=11 control=7 value=100 time=0@pitchwheel channel=11 pitch=0 time=0@program_change channel=11 program=27 time=0@control_change channel=11 control=101 value=0 time=0@control_change channel=11 control=100 value=0 time=0@control_change channel=11 control=6 value=12 time=0@control_change channel=11 control=10 value=64 time=0@control_change channel=11 control=7 value=100 time=0@pitchwheel channel=11 pitch=0 time=0@program_change channel=11 program=27 time=0@program_change channel=11 program=27 time=0@control_change channel=11 control=101 value=0 time=0@control_change channel=11 control=100 value=0 time=0@control_change channel=11 control=6 value=12 time=0@control_change channel=11 control=10 value=64 time=0@control_change channel=11 control=7 value=100 time=0@pitchwheel channel=11 pitch=0 time=0@program_change channel=11 program=27 time=0@program_change channel=11 program=27 time=0@<meta message track_name name='bass' time=0>@control_change channel=2 control=10 value=64 time=0@control_change channel=2 control=7 value=111 time=0@pitchwheel channel=2 pitch=0 time=0@control_change channel=2 control=101 value=0 time=0@control_change channel=2 control=100 value=0 time=0@control_change channel=2 control=6 value=12 time=0@control_change channel=2 control=10 value=64 time=0@control_change channel=2 control=7 value=111 time=0@pitchwheel channel=2 pitch=0 time=0@program_change channel=2 program=33 time=0@control_change channel=2 control=101 value=0 time=0@control_change channel=2 control=100 value=0 time=0@control_change channel=2 control=6 value=12 time=0@control_change channel=2 control=10 value=64 time=0@control_change channel=2 control=7 value=111 time=0@pitchwheel channel=2 pitch=0 time=0@program_change channel=2 program=33 time=0@program_change channel=2 program=33 time=0@control_change channel=2 control=101 value=0 time=0@control_change channel=2 control=100 value=0 time=0@control_change channel=2 control=6 value=12 time=0@control_change channel=2 control=10 value=64 time=0@control_change channel=2 control=7 value=111 time=0@pitchwheel channel=2 pitch=0 time=0@program_change channel=2 program=33 time=0@program_change channel=2 program=33 time=0@<meta message track_name name='synth' time=0>@control_change channel=4 control=10 value=64 time=0@control_change channel=4 control=7 value=106 time=0@pitchwheel channel=4 pitch=0 time=0@control_change channel=4 control=101 value=0 time=0@control_change channel=4 control=100 value=0 time=0@control_change channel=4 control=6 value=12 time=0@control_change channel=4 control=10 value=64 time=0@control_change channel=4 control=7 value=106 time=0@pitchwheel channel=4 pitch=0 time=0@program_change channel=4 program=45 time=0@control_change channel=4 control=101 value=0 time=0@control_change channel=4 control=100 value=0 time=0@control_change channel=4 control=6 value=12 time=0@control_change channel=4 control=10 value=64 time=0@control_change channel=4 control=7 value=106 time=0@pitchwheel channel=4 pitch=0 time=0@program_change channel=4 program=45 time=0@program_change channel=4 program=45 time=0@control_change channel=4 control=101 value=0 time=0@control_change channel=4 control=100 value=0 time=0@control_change channel=4 control=6 value=12 time=0@control_change channel=4 control=10 value=64 time=0@control_change channel=4 control=7 value=106 time=0@pitchwheel channel=4 pitch=0 time=0@program_change channel=4 program=45 time=0@program_change channel=4 program=45 time=0@<meta message track_name name='bass 2' time=0>@control_change channel=15 control=10 value=64 time=0@control_change channel=15 control=7 value=112 time=0@pitchwheel channel=15 pitch=0 time=0@control_change channel=15 control=101 value=0 time=0@control_change channel=15 control=100 value=0 time=0@control_change channel=15 control=6 value=12 time=0@control_change channel=15 control=10 value=64 time=0@control_change channel=15 control=7 value=112 time=0@pitchwheel channel=15 pitch=0 time=0@program_change channel=15 program=45 time=0@control_change channel=15 control=101 value=0 time=0@control_change channel=15 control=100 value=0 time=0@control_change channel=15 control=6 value=12 time=0@control_change channel=15 control=10 value=64 time=0@control_change channel=15 control=7 value=112 time=0@pitchwheel channel=15 pitch=0 time=0@program_change channel=15 program=45 time=0@program_change channel=15 program=45 time=0@control_change channel=15 control=101 value=0 time=0@control_change channel=15 control=100 value=0 time=0@control_change channel=15 control=6 value=12 time=0@control_change channel=15 control=10 value=64 time=0@control_change channel=15 control=7 value=112 time=0@pitchwheel channel=15 pitch=0 time=0@program_change channel=15 program=45 time=0@program_change channel=15 program=45 time=0@note_on channel=15 note=39 velocity=80 time=0@<meta message track_name name='vocal' time=0>@control_change channel=6 control=10 value=64 time=0@control_change channel=6 control=7 value=100 time=0@pitchwheel channel=6 pitch=0 time=0@control_change channel=6 control=101 value=0 time=0@control_change channel=6 control=100 value=0 time=0@control_change channel=6 control=6 value=12 time=0@control_change channel=6 control=10 value=64 time=0@control_change channel=6 control=7 value=100 time=0@pitchwheel channel=6 pitch=0 time=0@program_change channel=6 program=53 time=0@control_change channel=6 control=101 value=0 time=0@control_change channel=6 control=100 value=0 time=0@control_change channel=6 control=6 value=12 time=0@control_change channel=6 control=10 value=64 time=0@control_change channel=6 control=7 value=100 time=0@pitchwheel channel=6 pitch=0 time=0@program_change channel=6 program=53 time=0@program_change channel=6 program=53 time=0@control_change channel=6 control=101 value=0 time=0@control_change channel=6 control=100 value=0 time=0@control_change channel=6 control=6 value=12 time=0@control_change channel=6 control=10 value=64 time=0@control_change channel=6 control=7 value=100 time=0@pitchwheel channel=6 pitch=0 time=0@program_change channel=6 program=53 time=0@program_change channel=6 program=53 time=0@<meta message track_name name='piano right' time=0>@control_change channel=13 control=10 value=64 time=0@control_change channel=13 control=7 value=100 time=0@pitchwheel channel=13 pitch=0 time=0@control_change channel=13 control=101 value=0 time=0@control_change channel=13 control=100 value=0 time=0@control_change channel=13 control=6 value=12 time=0@control_change channel=13 control=10 value=64 time=0@control_change channel=13 control=7 value=100 time=0@pitchwheel channel=13 pitch=0 time=0@program_change channel=13 program=0 time=0@control_change channel=13 control=101 value=0 time=0@control_change channel=13 control=100 value=0 time=0@control_change channel=13 control=6 value=12 time=0@control_change channel=13 control=10 value=64 time=0@control_change channel=13 control=7 value=100 time=0@pitchwheel channel=13 pitch=0 time=0@program_change channel=13 program=0 time=0@program_change channel=13 program=0 time=0@control_change channel=13 control=101 value=0 time=0@control_change channel=13 control=100 value=0 time=0@control_change channel=13 control=6 value=12 time=0@control_change channel=13 control=10 value=64 time=0@control_change channel=13 control=7 value=100 time=0@pitchwheel channel=13 pitch=0 time=0@program_change channel=13 program=0 time=0@program_change channel=13 program=0 time=0@<meta message track_name name='piano left' time=0>@control_change channel=15 control=10 value=64 time=0@control_change channel=15 control=7 value=100 time=0@pitchwheel channel=15 pitch=0 time=0@control_change channel=15 control=101 value=0 time=0@control_change channel=15 control=100 value=0 time=0@control_change channel=15 control=6 value=12 time=0@control_change channel=15 control=10 value=64 time=0@control_change channel=15 control=7 value=100 time=0@pitchwheel channel=15 pitch=0 time=0@program_change channel=15 program=45 time=0@control_change channel=15 control=101 value=0 time=0@control_change channel=15 control=100 value=0 time=0@control_change channel=15 control=6 value=12 time=0@control_change channel=15 control=10 value=64 time=0@control_change channel=15 control=7 value=100 time=0@pitchwheel channel=15 pitch=0 time=0@program_change channel=15 program=45 time=0@program_change channel=15 program=45 time=0@control_change channel=15 control=101 value=0 time=0@control_change channel=15 control=100 value=0 time=0@control_change channel=15 control=6 value=12 time=0@control_change channel=15 control=10 value=64 time=0@control_change channel=15 control=7 value=100 time=0@pitchwheel channel=15 pitch=0 time=0@program_change channel=15 program=45 time=0@program_change channel=15 program=45 time=0@<meta message track_name name='Hand Clap' time=0>@control_change channel=9 control=10 value=64 time=0@control_change channel=9 control=7 value=100 time=0@pitchwheel channel=9 pitch=0 time=0@control_change channel=9 control=101 value=0 time=0@control_change channel=9 control=100 value=0 time=0@control_change channel=9 control=6 value=12 time=0@control_change channel=9 control=10 value=64 time=0@control_change channel=9 control=7 value=100 time=0@pitchwheel channel=9 pitch=0 time=0@program_change channel=9 program=0 time=0@control_change channel=9 control=101 value=0 time=0@control_change channel=9 control=100 value=0 time=0@control_change channel=9 control=6 value=12 time=0@control_change channel=9 control=10 value=64 time=0@control_change channel=9 control=7 value=100 time=0@pitchwheel channel=9 pitch=0 time=0@program_change channel=9 program=0 time=0@program_change channel=9 program=0 time=0@control_change channel=9 control=101 value=0 time=0@control_change channel=9 control=100 value=0 time=0@control_change channel=9 control=6 value=12 time=0@control_change channel=9 control=10 value=64 time=0@control_change channel=9 control=7 value=100 time=0@pitchwheel channel=9 pitch=0 time=0@program_change channel=9 program=0 time=0@program_change channel=9 program=0 time=0@<meta message track_name name='Drumkit' time=0>@control_change channel=9 control=10 value=64 time=0@control_change channel=9 control=7 value=114 time=0@pitchwheel channel=9 pitch=0 time=0@control_change channel=9 control=101 value=0 time=0@control_change channel=9 control=100 value=0 time=0@control_change channel=9 control=6 value=12 time=0@control_change channel=9 control=10 value=64 time=0@control_change channel=9 control=7 value=114 time=0@pitchwheel channel=9 pitch=0 time=0@program_change channel=9 program=0 time=0@control_change channel=9 control=101 value=0 time=0@control_change channel=9 control=100 value=0 time=0@control_change channel=9 control=6 value=12 time=0@control_change channel=9 control=10 value=64 time=0@control_change channel=9 control=7 value=114 time=0@pitchwheel channel=9 pitch=0 time=0@program_change channel=9 program=0 time=0@program_change channel=9 program=0 time=0@control_change channel=9 control=101 value=0 time=0@control_change channel=9 control=100 value=0 time=0@control_change channel=9 control=6 value=12 time=0@control_change channel=9 control=10 value=64 time=0@control_change channel=9 control=7 value=114 time=0@pitchwheel channel=9 pitch=0 time=0@program_change channel=9 program=0 time=0@program_change channel=9 program=0 time=0@<meta message track_name name='MIDI Out' time=0>@control_change channel=14 control=10 value=64 time=0@control_change channel=14 control=7 value=98 time=0@pitchwheel channel=14 pitch=0 time=0@control_change channel=14 control=101 value=0 time=0@control_change channel=14 control=100 value=0 time=0@control_change channel=14 control=6 value=12 time=0@control_change channel=14 control=10 value=64 time=0@control_change channel=14 control=7 value=98 time=0@pitchwheel channel=14 pitch=0 time=0@program_change channel=14 program=65 time=0@control_change channel=14 control=101 value=0 time=0@control_change channel=14 control=100 value=0 time=0@control_change channel=14 control=6 value=12 time=0@control_change channel=14 control=10 value=64 time=0@control_change channel=14 control=7 value=98 time=0@pitchwheel channel=14 pitch=0 time=0@program_change channel=14 program=65 time=0@control_change channel=14 control=101 value=0 time=0@control_change channel=14 control=100 value=0 time=0@control_change channel=14 control=6 value=12 time=0@control_change channel=14 control=10 value=64 time=0@control_change channel=14 control=7 value=98 time=0@pitchwheel channel=14 pitch=0 time=0@program_change channel=14 program=65 time=0@note_off channel=0 note=63 velocity=64 time=0.25@note_off channel=0 note=66 velocity=64 time=0@note_on channel=0 note=63 velocity=80 time=0.25@note_on channel=0 note=66 velocity=80 time=0@note_off channel=15 note=39 velocity=64 time=0@note_on channel=15 note=39 velocity=80 time=0@note_off channel=0 note=66 velocity=64 time=0.25@note_off channel=0 note=63 velocity=64 time=0@note_on channel=0 note=63 velocity=80 time=0.25@note_on channel=0 note=66 velocity=80 time=0@note_off channel=15 note=39 velocity=64 time=0@note_on channel=15 note=39 velocity=80 time=0@note_off channel=0 note=66 velocity=64 time=0.25@note_off channel=0 note=63 velocity=64 time=0@note_on channel=0 note=63 velocity=80 time=0.25@note_on channel=0 note=66 velocity=80 time=0@note_off channel=15 note=39 velocity=64 time=0@note_on channel=15 note=39 velocity=80 time=0@note_off channel=0 note=66 velocity=64 time=0.25@note_off channel=0 note=63 velocity=64 time=0@note_on channel=0 note=63 velocity=80 time=0.25@note_on channel=0 note=66 velocity=80 time=0@note_off channel=15 note=39 velocity=64 time=0@note_on channel=15 note=39 velocity=80 time=0@note_off channel=0 note=66 velocity=64 time=0.25@note_off channel=0 note=63 velocity=64 time=0@note_on channel=0 note=63 velocity=80 time=0.25@note_on channel=0 note=66 velocity=80 time=0@note_off channel=15 note=39 velocity=64 time=0@note_on channel=15 note=39 velocity=80 time=0@note_off channel=0 note=66 velocity=64 time=0.25@note_off channel=0 note=63 velocity=64 time=0@note_on channel=0 note=63 velocity=80 time=0.25@note_on channel=0 note=68 velocity=80 time=0@note_off channel=15 note=39 velocity=64 time=0@note_on channel=15 note=39 velocity=80 time=0@note_off channel=0 note=68 velocity=64 time=0.25@note_off channel=0 note=63 velocity=64 time=0@note_on channel=0 note=63 velocity=80 time=0.25@note_on channel=0 note=68 velocity=80 time=0@note_off channel=15 note=39 velocity=64 time=0@note_on channel=15 note=39 velocity=80 time=0@note_off channel=0 note=68 velocity=64 time=0.25@note_off channel=0 note=63 velocity=64 time=0@note_on channel=0 note=63 velocity=80 time=0.25@note_on channel=0 note=66 velocity=80 time=0@note_off channel=15 note=39 velocity=64 time=0@note_on channel=15 note=39 velocity=80 time=0@note_off channel=0 note=66 velocity=64 time=0.25@note_off channel=0 note=63 velocity=64 time=0@note_on channel=0 note=63 velocity=80 time=0.25@note_on channel=0 note=66 velocity=80 time=0@note_off channel=15 note=39 velocity=64 time=0@note_on channel=15 note=39 velocity=80 time=0@note_off channel=0 note=66 velocity=64 time=0.25@note_off channel=0 note=63 velocity=64 time=0@note_on channel=0 note=63 velocity=80 time=0.25@note_on channel=0 note=66 velocity=80 time=0@note_off channel=15 note=39 velocity=64 time=0@note_on channel=15 note=39 velocity=80 time=0@note_off channel=0 note=66 velocity=64 time=0.25@note_off channel=0 note=63 velocity=64 time=0@note_on channel=0 note=63 velocity=80 time=0.25@note_on channel=0 note=66 velocity=80 time=0@note_off channel=15 note=39 velocity=64 time=0@note_on channel=15 note=39 velocity=80 time=0@note_off channel=0 note=66 velocity=64 time=0.25@note_off channel=0 note=63 velocity=64 time=0@note_on channel=0 note=63 velocity=80 time=0.25@note_on channel=0 note=66 velocity=80 time=0@note_off channel=15 note=39 velocity=64 time=0@note_on channel=15 note=39 velocity=80 time=0@note_off channel=0 note=66 velocity=64 time=0.25@note_off channel=0 note=63 velocity=64 time=0@note_on channel=0 note=63 velocity=80 time=0.25@note_on channel=0 note=66 velocity=80 time=0@note_off channel=15 note=39 velocity=64 time=0@note_on channel=15 note=39 velocity=80 time=0@note_off channel=0 note=66 velocity=64 time=0.25@note_off channel=0 note=63 velocity=64 time=0@note_on channel=0 note=63 velocity=80 time=0.25@note_on channel=0 note=68 velocity=80 time=0@note_off channel=15 note=39 velocity=64 time=0@note_on channel=15 note=39 velocity=80 time=0@note_off channel=0 note=68 velocity=64 time=0.25@note_off channel=0 note=63 velocity=64 time=0@note_on channel=0 note=63 velocity=80 time=0.25@note_on channel=0 note=68 velocity=80 time=0@note_off channel=15 note=39 velocity=64 time=0@note_on channel=15 note=39 velocity=80 time=0@note_off channel=0 note=68 velocity=64 time=0.25@note_off channel=0 note=63 velocity=64 time=0@note_on channel=0 note=61 velocity=80 time=0.25@note_on channel=0 note=65 velocity=80 time=0@note_off channel=15 note=39 velocity=64 time=0@note_on channel=15 note=37 velocity=80 time=0@note_off channel=0 note=65 velocity=64 time=0.25@note_off channel=0 note=61 velocity=64 time=0@note_on channel=0 note=61 velocity=80 time=0.25@note_on channel=0 note=65 velocity=80 time=0@note_off channel=15 note=37 velocity=64 time=0@note_on channel=15 note=37 velocity=80 time=0@note_off channel=0 note=65 velocity=64 time=0.25@note_off channel=0 note=61 velocity=64 time=0@note_on channel=0 note=61 velocity=80 time=0.25@note_on channel=0 note=65 velocity=80 time=0@note_off channel=15 note=37 velocity=64 time=0@note_on channel=15 note=37 velocity=80 time=0@note_off channel=0 note=65 velocity=64 time=0.25@note_off channel=0 note=61 velocity=64 time=0@note_on channel=0 note=61 velocity=80 time=0.25@note_on channel=0 note=65 velocity=80 time=0@note_off channel=15 note=37 velocity=64 time=0@note_on channel=15 note=37 velocity=80 time=0@note_off channel=0 note=65 velocity=64 time=0.25@note_off channel=0 note=61 velocity=64 time=0@note_on channel=0 note=61 velocity=80 time=0.25@note_on channel=0 note=65 velocity=80 time=0@note_off channel=15 note=37 velocity=64 time=0@note_on channel=15 note=37 velocity=80 time=0@note_off channel=0 note=65 velocity=64 time=0.25@note_off channel=0 note=61 velocity=64 time=0@note_on channel=0 note=61 velocity=80 time=0.25@note_on channel=0 note=65 velocity=80 time=0@note_off channel=15 note=37 velocity=64 time=0@note_on channel=15 note=37 velocity=80 time=0@note_off channel=0 note=65 velocity=64 time=0.25@note_off channel=0 note=61 velocity=64 time=0@note_on channel=0 note=61 velocity=80 time=0.25@note_on channel=0 note=65 velocity=80 time=0@note_off channel=15 note=37 velocity=64 time=0@note_on channel=15 note=37 velocity=80 time=0@note_off channel=0 note=65 velocity=64 time=0.25@note_off channel=0 note=61 velocity=64 time=0@note_on channel=0 note=61 velocity=80 time=0.25@note_on channel=0 note=65 velocity=80 time=0@note_off channel=15 note=37 velocity=64 time=0@note_on channel=15 note=37 velocity=80 time=0@note_off channel=0 note=65 velocity=64 time=0.25@note_off channel=0 note=61 velocity=64 time=0@note_on channel=0 note=66 velocity=80 time=0.25@note_on channel=0 note=73 velocity=80 time=0@note_off channel=15 note=37 velocity=64 time=0@note_on channel=15 note=42 velocity=80 time=0@note_off channel=0 note=73 velocity=64 time=0.25@note_off channel=0 note=66 velocity=64 time=0@note_on channel=0 note=66 velocity=80 time=0.25@note_on channel=0 note=73 velocity=80 time=0@note_off channel=15 note=42 velocity=64 time=0@note_on channel=15 note=42 velocity=80 time=0@note_off channel=0 note=73 velocity=64 time=0.25@note_off channel=0 note=66 velocity=64 time=0@note_on channel=0 note=66 velocity=80 time=0.25@note_on channel=0 note=73 velocity=80 time=0@note_off channel=15 note=42 velocity=64 time=0@note_on channel=15 note=42 velocity=80 time=0@note_off channel=0 note=73 velocity=64 time=0.25@note_off channel=0 note=66 velocity=64 time=0@note_on channel=0 note=66 velocity=80 time=0.25@note_on channel=0 note=73 velocity=80 time=0@note_off channel=15 note=42 velocity=64 time=0@note_on channel=15 note=42 velocity=80 time=0@note_off channel=0 note=73 velocity=64 time=0.25@note_off channel=0 note=66 velocity=64 time=0@note_on channel=0 note=61 velocity=80 time=0.25@note_on channel=0 note=65 velocity=80 time=0@note_off channel=15 note=42 velocity=64 time=0@note_on channel=15 note=49 velocity=80 time=0@note_off channel=0 note=65 velocity=64 time=0.25@note_off channel=0 note=61 velocity=64 time=0@note_on channel=0 note=61 velocity=80 time=0.25@note_on channel=0 note=65 velocity=80 time=0@note_off channel=15 note=49 velocity=64 time=0@note_on channel=15 note=49 velocity=80 time=0@note_off channel=0 note=65 velocity=64 time=0.25@note_off channel=0 note=61 velocity=64 time=0@note_on channel=0 note=61 velocity=80 time=0.25@note_on channel=0 note=65 velocity=80 time=0@note_off channel=15 note=49 velocity=64 time=0@note_on channel=15 note=49 velocity=80 time=0@note_off channel=0 note=65 velocity=64 time=0.25@note_off channel=0 note=61 velocity=64 time=0@note_on channel=0 note=61 velocity=80 time=0.25@note_on channel=0 note=65 velocity=80 time=0@note_off channel=15 note=49 velocity=64 time=0@note_on channel=15 note=49 velocity=80 time=0@note_off channel=0 note=65 velocity=64 time=0.25@note_off channel=0 note=61 velocity=64 time=0@note_on channel=0 note=63 velocity=80 time=0.25@note_on channel=0 note=66 velocity=80 time=0@note_on channel=2 note=27 velocity=96 time=0@note_off channel=15 note=49 velocity=64 time=0@note_on channel=15 note=39 velocity=80 time=0@note_on channel=9 note=35 velocity=96 time=0@note_off channel=0 note=66 velocity=64 time=0.25@note_off channel=0 note=63 velocity=64 time=0@note_on channel=0 note=63 velocity=80 time=0.25@note_on channel=0 note=66 velocity=80 time=0@note_off channel=15 note=39 velocity=64 time=0@note_on channel=15 note=39 velocity=80 time=0@note_off channel=0 note=66 velocity=64 time=0.25@note_off channel=0 note=63 velocity=64 time=0@note_on channel=0 note=63 velocity=80 time=0.25@note_on channel=0 note=66 velocity=80 time=0@note_off channel=2 note=27 velocity=64 time=0@note_on channel=4 note=51 velocity=72 time=0@note_off channel=15 note=39 velocity=64 time=0@note_on channel=15 note=39 velocity=80 time=0@note_off channel=4 note=51 velocity=64 time=0.16666666666666666@note_on channel=4 note=51 velocity=72 time=0@note_off channel=0 note=66 velocity=64 time=0.08333333333333333@note_off channel=0 note=63 velocity=64 time=0@note_off channel=4 note=51 velocity=64 time=0.08333333333333333@note_on channel=4 note=51 velocity=72 time=0@note_on channel=0 note=63 velocity=80 time=0.16666666666666666@note_on channel=0 note=66 velocity=80 time=0@note_off channel=4 note=51 velocity=64 time=0@note_on channel=4 note=54 velocity=72 time=0@note_off channel=15 note=39 velocity=64 time=0@note_on channel=15 note=39 velocity=80 time=0@note_off channel=4 note=54 velocity=64 time=0.16666666666666666@note_on channel=4 note=54 velocity=72 time=0@note_off channel=0 note=66 velocity=64 time=0.08333333333333333@note_off channel=0 note=63 velocity=64 time=0@note_off channel=4 note=54 velocity=64 time=0.08333333333333333@note_on channel=4 note=54 velocity=72 time=0@note_on channel=0 note=63 velocity=80 time=0.16666666666666666@note_on channel=0 note=66 velocity=80 time=0@note_off channel=4 note=54 velocity=64 time=0@note_on channel=4 note=56 velocity=72 time=0@note_off channel=15 note=39 velocity=64 time=0@note_on channel=15 note=39 velocity=80 time=0@note_off channel=9 note=35 velocity=64 time=0@note_off channel=0 note=66 velocity=64 time=0.25@note_off channel=0 note=63 velocity=64 time=0@note_on channel=0 note=63 velocity=80 time=0.25@note_on channel=0 note=66 velocity=80 time=0@note_off channel=4 note=56 velocity=64 time=0@note_on channel=4 note=58 velocity=72 time=0@note_off channel=15 note=39 velocity=64 time=0@note_on channel=15 note=39 velocity=80 time=0@note_off channel=0 note=66 velocity=64 time=0.25@note_off channel=0 note=63 velocity=64 time=0@note_on channel=0 note=63 velocity=80 time=0.25@note_on channel=0 note=68 velocity=80 time=0@note_off channel=4 note=58 velocity=64 time=0@note_on channel=4 note=56 velocity=72 time=0@note_off channel=15 note=39 velocity=64 time=0@note_on channel=15 note=39 velocity=80 time=0@note_off channel=0 note=68 velocity=64 time=0.25@note_off channel=0 note=63 velocity=64 time=0@note_off channel=4 note=56 velocity=64 time=0.125@note_on channel=4 note=54 velocity=72 time=0@note_on channel=0 note=63 velocity=80 time=0.125@note_on channel=0 note=68 velocity=80 time=0@note_off channel=4 note=54 velocity=64 time=0@note_on channel=4 note=51 velocity=72 time=0@note_off channel=15 note=39 velocity=64 time=0@note_on channel=15 note=39 velocity=80 time=0@note_off channel=0 note=68 velocity=64 time=0.25@note_off channel=0 note=63 velocity=64 time=0@note_off channel=4 note=51 velocity=64 time=0.125@note_on channel=4 note=49 velocity=72 time=0@note_on channel=0 note=63 velocity=80 time=0.125@note_on channel=0 note=66 velocity=80 time=0@note_on channel=2 note=27 velocity=96 time=0@note_off channel=4 note=49 velocity=64 time=0@note_off channel=15 note=39 velocity=64 time=0@note_on channel=15 note=39 velocity=80 time=0@note_on channel=9 note=35 velocity=96 time=0@note_off channel=0 note=66 velocity=64 time=0.25@note_off channel=0 note=63 velocity=64 time=0@note_on channel=0 note=63 velocity=80 time=0.25@note_on channel=0 note=66 velocity=80 time=0@note_off channel=15 note=39 velocity=64 time=0@note_on channel=15 note=39 velocity=80 time=0@note_off channel=0 note=66 velocity=64 time=0.25@note_off channel=0 note=63 velocity=64 time=0@note_on channel=0 note=63 velocity=80 time=0.25@note_on channel=0 note=66 velocity=80 time=0@note_off channel=2 note=27 velocity=64 time=0@note_on channel=4 note=51 velocity=72 time=0@note_off channel=15 note=39 velocity=64 time=0@note_on channel=15 note=39 velocity=80 time=0@note_off channel=4 note=51 velocity=64 time=0.16666666666666666@note_on channel=4 note=51 velocity=72 time=0@note_off channel=0 note=66 velocity=64 time=0.08333333333333333@note_off channel=0 note=63 velocity=64 time=0@note_off channel=4 note=51 velocity=64 time=0.08333333333333333@note_on channel=4 note=51 velocity=72 time=0@note_on channel=0 note=63 velocity=80 time=0.16666666666666666@note_on channel=0 note=66 velocity=80 time=0@note_off channel=4 note=51 velocity=64 time=0@note_on channel=4 note=54 velocity=72 time=0@note_off channel=15 note=39 velocity=64 time=0@note_on channel=15 note=39 velocity=80 time=0@note_off channel=4 note=54 velocity=64 time=0.16666666666666666@note_on channel=4 note=54 velocity=72 time=0@note_off channel=0 note=66 velocity=64 time=0.08333333333333333@note_off channel=0 note=63 velocity=64 time=0@note_off channel=4 note=54 velocity=64 time=0.08333333333333333@note_on channel=4 note=54 velocity=72 time=0@note_on channel=0 note=63 velocity=80 time=0.16666666666666666@note_on channel=0 note=66 velocity=80 time=0@note_off channel=4 note=54 velocity=64 time=0@note_on channel=4 note=56 velocity=72 time=0@note_off channel=15 note=39 velocity=64 time=0@note_on channel=15 note=39 velocity=80 time=0@note_off channel=9 note=35 velocity=64 time=0@note_off channel=0 note=66 velocity=64 time=0.25@note_off channel=0 note=63 velocity=64 time=0@note_on channel=0 note=63 velocity=80 time=0.25@note_on channel=0 note=66 velocity=80 time=0@note_off channel=4 note=56 velocity=64 time=0@note_on channel=4 note=58 velocity=72 time=0@note_off channel=15 note=39 velocity=64 time=0@note_on channel=15 note=39 velocity=80 time=0@note_off channel=0 note=66 velocity=64 time=0.25@note_off channel=0 note=63 velocity=64 time=0@note_on channel=0 note=63 velocity=80 time=0.25@note_on channel=0 note=68 velocity=80 time=0@note_off channel=4 note=58 velocity=64 time=0@note_on channel=4 note=56 velocity=72 time=0@note_off channel=15 note=39 velocity=64 time=0@note_on channel=15 note=39 velocity=80 time=0@note_off channel=0 note=68 velocity=64 time=0.25@note_off channel=0 note=63 velocity=64 time=0@note_off channel=4 note=56 velocity=64 time=0.125@note_on channel=4 note=54 velocity=72 time=0@note_on channel=0 note=63 velocity=80 time=0.125@note_on channel=0 note=68 velocity=80 time=0@note_off channel=4 note=54 velocity=64 time=0@note_on channel=4 note=51 velocity=72 time=0@note_off channel=15 note=39 velocity=64 time=0@note_on channel=15 note=39 velocity=80 time=0@note_off channel=0 note=68 velocity=64 time=0.25@note_off channel=0 note=63 velocity=64 time=0@note_on channel=9 note=35 velocity=96 time=0.0625@note_on channel=0 note=61 velocity=80 time=0.1875@note_on channel=0 note=65 velocity=80 time=0@note_on channel=2 note=37 velocity=96 time=0@note_off channel=4 note=51 velocity=64 time=0@note_off channel=15 note=39 velocity=64 time=0@note_on channel=15 note=37 velocity=80 time=0@note_off channel=9 note=35 velocity=64 time=0@note_on channel=9 note=35 velocity=96 time=0@note_off channel=0 note=65 velocity=64 time=0.25@note_off channel=0 note=61 velocity=64 time=0@note_on channel=0 note=61 velocity=80 time=0.25@note_on channel=0 note=65 velocity=80 time=0@note_off channel=15 note=37 velocity=64 time=0@note_on channel=15 note=37 velocity=80 time=0@note_off channel=0 note=65 velocity=64 time=0.25@note_off channel=0 note=61 velocity=64 time=0@note_on channel=0 note=61 velocity=80 time=0.25@note_on channel=0 note=65 velocity=80 time=0@note_off channel=2 note=37 velocity=64 time=0@note_on channel=4 note=49 velocity=72 time=0@note_off channel=15 note=37 velocity=64 time=0@note_on channel=15 note=37 velocity=80 time=0@note_off channel=4 note=49 velocity=64 time=0.16666666666666666@note_on channel=4 note=49 velocity=72 time=0@note_off channel=0 note=65 velocity=64 time=0.08333333333333333@note_off channel=0 note=61 velocity=64 time=0@note_off channel=4 note=49 velocity=64 time=0.08333333333333333@note_on channel=4 note=49 velocity=72 time=0@note_on channel=0 note=61 velocity=80 time=0.16666666666666666@note_on channel=0 note=65 velocity=80 time=0@note_off channel=4 note=49 velocity=64 time=0@note_on channel=4 note=51 velocity=72 time=0@note_off channel=15 note=37 velocity=64 time=0@note_on channel=15 note=37 velocity=80 time=0@note_off channel=4 note=51 velocity=64 time=0.16666666666666666@note_on channel=4 note=51 velocity=72 time=0@note_off channel=0 note=65 velocity=64 time=0.08333333333333333@note_off channel=0 note=61 velocity=64 time=0@note_off channel=4 note=51 velocity=64 time=0.08333333333333333@note_on channel=4 note=51 velocity=72 time=0@note_on channel=0 note=61 velocity=80 time=0.16666666666666666@note_on channel=0 note=65 velocity=80 time=0@note_off channel=4 note=51 velocity=64 time=0@note_on channel=4 note=49 velocity=72 time=0@note_off channel=15 note=37 velocity=64 time=0@note_on channel=15 note=37 velocity=80 time=0@note_off channel=9 note=35 velocity=64 time=0@note_off channel=0 note=65 velocity=64 time=0.25@note_off channel=0 note=61 velocity=64 time=0@note_on channel=0 note=61 velocity=80 time=0.25@note_on channel=0 note=65 velocity=80 time=0@note_off channel=4 note=49 velocity=64 time=0@note_on channel=4 note=51 velocity=72 time=0@note_off channel=15 note=37 velocity=64 time=0@note_on channel=15 note=37 velocity=80 time=0@note_off channel=0 note=65 velocity=64 time=0.25@note_off channel=0 note=61 velocity=64 time=0@note_on channel=0 note=61 velocity=80 time=0.25@note_on channel=0 note=65 velocity=80 time=0@note_off channel=4 note=51 velocity=64 time=0@note_on channel=4 note=49 velocity=72 time=0@note_off channel=15 note=37 velocity=64 time=0@note_on channel=15 note=37 velocity=80 time=0@note_off channel=0 note=65 velocity=64 time=0.25@note_off channel=0 note=61 velocity=64 time=0@note_off channel=4 note=49 velocity=64 time=0.125@note_on channel=4 note=46 velocity=72 time=0@note_on channel=0 note=61 velocity=80 time=0.125@note_on channel=0 note=65 velocity=80 time=0@note_off channel=4 note=46 velocity=64 time=0@note_on channel=4 note=44 velocity=72 time=0@note_off channel=15 note=37 velocity=64 time=0@note_on channel=15 note=37 velocity=80 time=0@note_off channel=0 note=65 velocity=64 time=0.25@note_off channel=0 note=61 velocity=64 time=0@note_on channel=0 note=66 velocity=80 time=0.25@note_on channel=0 note=73 velocity=80 time=0@note_on channel=2 note=30 velocity=96 time=0@note_off channel=4 note=44 velocity=64 time=0@note_off channel=15 note=37 velocity=64 time=0@note_on channel=15 note=42 velocity=80 time=0@note_on channel=9 note=35 velocity=96 time=0@note_on channel=9 note=49 velocity=96 time=0@note_off channel=0 note=73 velocity=64 time=0.25@note_off channel=0 note=66 velocity=64 time=0@note_on channel=0 note=66 velocity=80 time=0.25@note_on channel=0 note=73 velocity=80 time=0@note_off channel=15 note=42 velocity=64 time=0@note_on channel=15 note=42 velocity=80 time=0@note_off channel=9 note=35 velocity=64 time=0@note_off channel=9 note=49 velocity=64 time=0@note_off channel=0 note=73 velocity=64 time=0.25@note_off channel=0 note=66 velocity=64 time=0@note_on channel=0 note=66 velocity=80 time=0.25@note_on channel=0 note=73 velocity=80 time=0@note_off channel=2 note=30 velocity=64 time=0@note_on channel=4 note=58 velocity=72 time=0@note_off channel=15 note=42 velocity=64 time=0@note_on channel=15 note=42 velocity=80 time=0@note_on channel=9 note=39 velocity=96 time=0@note_off channel=4 note=58 velocity=64 time=0.16666666666666666@note_on channel=4 note=58 velocity=72 time=0@note_off channel=0 note=73 velocity=64 time=0.08333333333333333@note_off channel=0 note=66 velocity=64 time=0@note_off channel=4 note=58 velocity=64 time=0.08333333333333333@note_on channel=4 note=58 velocity=72 time=0@note_on channel=0 note=66 velocity=80 time=0.16666666666666666@note_on channel=0 note=73 velocity=80 time=0@note_off channel=4 note=58 velocity=64 time=0@note_on channel=4 note=61 velocity=72 time=0@note_off channel=15 note=42 velocity=64 time=0@note_on channel=15 note=42 velocity=80 time=0@note_off channel=9 note=39 velocity=64 time=0@note_off channel=4 note=61 velocity=64 time=0.16666666666666666@note_on channel=4 note=61 velocity=72 time=0@note_off channel=0 note=73 velocity=64 time=0.08333333333333333@note_off channel=0 note=66 velocity=64 time=0@note_off channel=4 note=61 velocity=64 time=0.08333333333333333@note_on channel=4 note=61 velocity=72 time=0@note_on channel=0 note=61 velocity=80 time=0.16666666666666666@note_on channel=0 note=65 velocity=80 time=0@note_on channel=2 note=37 velocity=96 time=0@note_off channel=4 note=61 velocity=64 time=0@note_off channel=15 note=42 velocity=64 time=0@note_on channel=15 note=49 velocity=80 time=0@note_on channel=9 note=35 velocity=96 time=0@note_on channel=9 note=49 velocity=96 time=0@note_off channel=0 note=65 velocity=64 time=0.25@note_off channel=0 note=61 velocity=64 time=0@note_on channel=0 note=61 velocity=80 time=0.25@note_on channel=0 note=65 velocity=80 time=0@note_off channel=15 note=49 velocity=64 time=0@note_on channel=15 note=49 velocity=80 time=0@note_off channel=9 note=35 velocity=64 time=0@note_off channel=9 note=49 velocity=64 time=0@note_off channel=0 note=65 velocity=64 time=0.25@note_off channel=0 note=61 velocity=64 time=0@note_off channel=2 note=37 velocity=64 time=0.25@note_on channel=4 note=63 velocity=96 time=0@note_off channel=15 note=49 velocity=64 time=0@note_on channel=15 note=49 velocity=80 time=0@note_on channel=9 note=39 velocity=96 time=0@note_off channel=4 note=63 velocity=64 time=0.16666666666666666@note_on channel=4 note=63 velocity=96 time=0@note_off channel=4 note=63 velocity=64 time=0.16666666666666666@note_on channel=4 note=63 velocity=96 time=0@note_off channel=4 note=63 velocity=64 time=0.16666666666666666@note_off channel=15 note=49 velocity=64 time=0@note_on channel=15 note=49 velocity=80 time=0@note_off channel=9 note=39 velocity=64 time=0@note_on channel=14 note=66 velocity=96 time=0@note_on channel=2 note=27 velocity=96 time=0.5@note_off channel=15 note=49 velocity=64 time=0@note_on channel=6 note=63 velocity=96 time=0@note_on channel=6 note=70 velocity=96 time=0@note_on channel=9 note=35 velocity=96 time=0@note_on channel=9 note=42 velocity=96 time=0@note_off channel=14 note=66 velocity=64 time=0@note_off channel=9 note=35 velocity=64 time=0.5@note_off channel=9 note=42 velocity=64 time=0@note_on channel=9 note=42 velocity=96 time=0@note_off channel=9 note=42 velocity=64 time=0.25@note_off channel=2 note=27 velocity=64 time=0.25@note_on channel=4 note=51 velocity=72 time=0@note_off channel=6 note=70 velocity=64 time=0@note_off channel=6 note=63 velocity=64 time=0@note_on channel=6 note=63 velocity=96 time=0@note_on channel=6 note=66 velocity=96 time=0@note_on channel=9 note=39 velocity=96 time=0@note_on channel=9 note=42 velocity=96 time=0@note_off channel=4 note=51 velocity=64 time=0.16666666666666666@note_on channel=4 note=51 velocity=72 time=0@note_off channel=9 note=39 velocity=64 time=0.08333333333333333@note_off channel=9 note=42 velocity=64 time=0@note_off channel=4 note=51 velocity=64 time=0.08333333333333333@note_on channel=4 note=51 velocity=72 time=0@note_off channel=4 note=51 velocity=64 time=0.16666666666666666@note_on channel=4 note=54 velocity=72 time=0@note_on channel=9 note=42 velocity=96 time=0@note_off channel=4 note=54 velocity=64 time=0.16666666666666666@note_on channel=4 note=54 velocity=72 time=0@note_off channel=9 note=42 velocity=64 time=0.08333333333333333@note_on channel=9 note=35 velocity=96 time=0.0625@note_off channel=4 note=54 velocity=64 time=0.020833333333333332@note_on channel=4 note=54 velocity=72 time=0@note_off channel=4 note=54 velocity=64 time=0.16666666666666666@note_on channel=4 note=56 velocity=72 time=0@note_off channel=6 note=66 velocity=64 time=0@note_off channel=6 note=63 velocity=64 time=0@note_off channel=9 note=35 velocity=64 time=0@note_on channel=9 note=35 velocity=96 time=0@note_on channel=9 note=42 velocity=96 time=0@note_off channel=9 note=42 velocity=64 time=0.25@note_off channel=9 note=35 velocity=64 time=0@note_off channel=4 note=56 velocity=64 time=0.25@note_on channel=4 note=58 velocity=72 time=0@note_on channel=9 note=35 velocity=96 time=0@note_on channel=9 note=42 velocity=96 time=0@note_off channel=9 note=35 velocity=64 time=0.25@note_off channel=9 note=42 velocity=64 time=0@note_off channel=4 note=58 velocity=64 time=0.25@note_on channel=4 note=56 velocity=72 time=0@note_on channel=9 note=39 velocity=96 time=0@note_on channel=9 note=42 velocity=96 time=0@note_off channel=9 note=39 velocity=64 time=0.25@note_off channel=9 note=42 velocity=64 time=0@note_off channel=4 note=56 velocity=64 time=0.125@note_on channel=4 note=54 velocity=72 time=0@note_off channel=4 note=54 velocity=64 time=0.125@note_on channel=4 note=51 velocity=72 time=0@note_on channel=9 note=42 velocity=96 time=0@note_off channel=9 note=42 velocity=64 time=0.16666666666666666@note_on channel=9 note=42 velocity=96 time=0@note_off channel=9 note=42 velocity=64 time=0.16666666666666666@note_on channel=9 note=42 velocity=96 time=0@note_off channel=4 note=51 velocity=64 time=0.041666666666666664@note_on channel=4 note=49 velocity=72 time=0@note_on channel=2 note=27 velocity=96 time=0.125@note_off channel=4 note=49 velocity=64 time=0@note_on channel=6 note=63 velocity=96 time=0@note_on channel=6 note=70 velocity=96 time=0@note_off channel=9 note=42 velocity=64 time=0@note_on channel=9 note=35 velocity=96 time=0@note_on channel=9 note=42 velocity=96 time=0@note_off channel=9 note=35 velocity=64 time=0.5@note_off channel=9 note=42 velocity=64 time=0@note_on channel=9 note=42 velocity=96 time=0@note_off channel=9 note=42 velocity=64 time=0.25@note_off channel=2 note=27 velocity=64 time=0.25@note_on channel=4 note=51 velocity=72 time=0@note_off channel=6 note=70 velocity=64 time=0@note_off channel=6 note=63 velocity=64 time=0@note_on channel=6 note=63 velocity=96 time=0@note_on channel=6 note=66 velocity=96 time=0@note_on channel=9 note=39 velocity=96 time=0@note_on channel=9 note=42 velocity=96 time=0@note_off channel=4 note=51 velocity=64 time=0.16666666666666666@note_on channel=4 note=51 velocity=72 time=0@note_off channel=9 note=39 velocity=64 time=0.08333333333333333@note_off channel=9 note=42 velocity=64 time=0@note_off channel=4 note=51 velocity=64 time=0.08333333333333333@note_on channel=4 note=51 velocity=72 time=0@note_off channel=4 note=51 velocity=64 time=0.16666666666666666@note_on channel=4 note=54 velocity=72 time=0@note_on channel=9 note=42 velocity=96 time=0@note_off channel=4 note=54 velocity=64 time=0.16666666666666666@note_on channel=4 note=54 velocity=72 time=0@note_off channel=9 note=42 velocity=64 time=0.08333333333333333@note_on channel=9 note=35 velocity=96 time=0.0625@note_off channel=4 note=54 velocity=64 time=0.020833333333333332@note_on channel=4 note=54 velocity=72 time=0@note_off channel=4 note=54 velocity=64 time=0.16666666666666666@note_on channel=4 note=56 velocity=72 time=0@note_off channel=6 note=66 velocity=64 time=0@note_off channel=6 note=63 velocity=64 time=0@note_off channel=9 note=35 velocity=64 time=0@note_on channel=9 note=35 velocity=96 time=0@note_on channel=9 note=42 velocity=96 time=0@note_off channel=9 note=42 velocity=64 time=0.25@note_off channel=9 note=35 velocity=64 time=0@note_off channel=4 note=56 velocity=64 time=0.25@note_on channel=4 note=58 velocity=72 time=0@note_on channel=9 note=35 velocity=96 time=0@note_on channel=9 note=42 velocity=96 time=0@note_off channel=9 note=35 velocity=64 time=0.25@note_off channel=9 note=42 velocity=64 time=0@note_off channel=4 note=58 velocity=64 time=0.25@note_on channel=4 note=56 velocity=72 time=0@note_on channel=9 note=39 velocity=96 time=0@note_on channel=9 note=42 velocity=96 time=0@note_off channel=9 note=39 velocity=64 time=0.25@note_off channel=9 note=42 velocity=64 time=0@note_on channel=9 note=35 velocity=96 time=0.0625@note_off channel=4 note=56 velocity=64 time=0.0625@note_on channel=4 note=54 velocity=72 time=0@note_off channel=4 note=54 velocity=64 time=0.125@note_on channel=4 note=51 velocity=72 time=0@note_off channel=9 note=35 velocity=64 time=0@note_on channel=9 note=42 velocity=96 time=0@note_off channel=9 note=42 velocity=64 time=0.25@note_on channel=9 note=42 velocity=96 time=0@note_on channel=9 note=35 velocity=96 time=0.0625@note_on channel=2 note=37 velocity=96 time=0.1875@note_off channel=4 note=51 velocity=64 time=0@note_on channel=6 note=63 velocity=96 time=0@note_on channel=6 note=68 velocity=96 time=0@note_off channel=9 note=42 velocity=64 time=0@note_off channel=9 note=35 velocity=64 time=0@note_on channel=9 note=35 velocity=96 time=0@note_on channel=9 note=42 velocity=96 time=0@note_off channel=9 note=35 velocity=64 time=0.5@note_off channel=9 note=42 velocity=64 time=0@note_on channel=9 note=42 velocity=96 time=0@note_off channel=9 note=42 velocity=64 time=0.25@note_off channel=2 note=37 velocity=64 time=0.25@note_on channel=4 note=49 velocity=72 time=0@note_off channel=6 note=68 velocity=64 time=0@note_off channel=6 note=63 velocity=64 time=0@note_on channel=6 note=61 velocity=96 time=0@note_on channel=6 note=65 velocity=96 time=0@note_on channel=9 note=39 velocity=96 time=0@note_on channel=9 note=42 velocity=96 time=0@note_off channel=4 note=49 velocity=64 time=0.16666666666666666@note_on channel=4 note=49 velocity=72 time=0@note_off channel=9 note=39 velocity=64 time=0.08333333333333333@note_off channel=9 note=42 velocity=64 time=0@note_off channel=4 note=49 velocity=64 time=0.08333333333333333@note_on channel=4 note=49 velocity=72 time=0@note_off channel=4 note=49 velocity=64 time=0.16666666666666666@note_on channel=4 note=51 velocity=72 time=0@note_on channel=9 note=42 velocity=96 time=0@note_off channel=4 note=51 velocity=64 time=0.16666666666666666@note_on channel=4 note=51 velocity=72 time=0@note_off channel=9 note=42 velocity=64 time=0.08333333333333333@note_on channel=9 note=35 velocity=96 time=0.0625@note_off channel=4 note=51 velocity=64 time=0.020833333333333332@note_on channel=4 note=51 velocity=72 time=0@note_off channel=4 note=51 velocity=64 time=0.16666666666666666@note_on channel=4 note=49 velocity=72 time=0@note_off channel=6 note=65 velocity=64 time=0@note_off channel=6 note=61 velocity=64 time=0@note_off channel=9 note=35 velocity=64 time=0@note_on channel=9 note=35 velocity=96 time=0@note_on channel=9 note=42 velocity=96 time=0@note_off channel=9 note=42 velocity=64 time=0.25@note_off channel=9 note=35 velocity=64 time=0@note_off channel=4 note=49 velocity=64 time=0.25@note_on channel=4 note=51 velocity=72 time=0@note_on channel=9 note=35 velocity=96 time=0@note_on channel=9 note=42 velocity=96 time=0@note_off channel=9 note=35 velocity=64 time=0.25@note_off channel=9 note=42 velocity=64 time=0@note_off channel=4 note=51 velocity=64 time=0.25@note_on channel=4 note=49 velocity=72 time=0@note_on channel=9 note=39 velocity=96 time=0@note_on channel=9 note=42 velocity=96 time=0@note_off channel=9 note=39 velocity=64 time=0.25@note_off channel=9 note=42 velocity=64 time=0@note_off channel=4 note=49 velocity=64 time=0.125@note_on channel=4 note=46 velocity=72 time=0@note_off channel=4 note=46 velocity=64 time=0.125@note_on channel=4 note=44 velocity=72 time=0@note_on channel=9 note=42 velocity=96 time=0@note_off channel=9 note=42 velocity=64 time=0.25@note_on channel=2 note=30 velocity=96 time=0.25@note_off channel=4 note=44 velocity=64 time=0@note_on channel=6 note=58 velocity=96 time=0@note_on channel=6 note=61 velocity=96 time=0@note_on channel=9 note=35 velocity=96 time=0@note_on channel=9 note=42 velocity=96 time=0@note_off channel=9 note=35 velocity=64 time=0.5@note_off channel=9 note=42 velocity=64 time=0@note_on channel=9 note=42 velocity=96 time=0@note_off channel=9 note=42 velocity=64 time=0.25@note_off channel=2 note=30 velocity=64 time=0.25@note_on channel=4 note=58 velocity=72 time=0@note_on channel=9 note=39 velocity=96 time=0@note_on channel=9 note=42 velocity=96 time=0@note_off channel=4 note=58 velocity=64 time=0.16666666666666666@note_on channel=4 note=58 velocity=72 time=0@note_off channel=9 note=39 velocity=64 time=0.08333333333333333@note_off channel=9 note=42 velocity=64 time=0@note_off channel=4 note=58 velocity=64 time=0.08333333333333333@note_on channel=4 note=58 velocity=72 time=0@note_off channel=4 note=58 velocity=64 time=0.16666666666666666@note_on channel=4 note=61 velocity=72 time=0@note_on channel=9 note=42 velocity=96 time=0@note_off channel=4 note=61 velocity=64 time=0.16666666666666666@note_on channel=4 note=61 velocity=72 time=0@note_off channel=9 note=42 velocity=64 time=0.08333333333333333@note_on channel=9 note=35 velocity=96 time=0.0625@note_off channel=4 note=61 velocity=64 time=0.020833333333333332@note_on channel=4 note=61 velocity=72 time=0@note_on channel=2 note=37 velocity=96 time=0.16666666666666666@note_off channel=4 note=61 velocity=64 time=0@note_off channel=6 note=58 velocity=64 time=0@note_off channel=6 note=61 velocity=64 time=0@note_on channel=6 note=53 velocity=96 time=0@note_on channel=6 note=56 velocity=96 time=0@note_off channel=9 note=35 velocity=64 time=0@note_on channel=9 note=35 velocity=96 time=0@note_on channel=9 note=42 velocity=96 time=0@note_off channel=9 note=42 velocity=64 time=0.25@note_off channel=9 note=35 velocity=64 time=0@note_on channel=9 note=35 velocity=96 time=0.25@note_on channel=9 note=42 velocity=96 time=0@note_off channel=9 note=35 velocity=64 time=0.25@note_off channel=9 note=42 velocity=64 time=0@note_off channel=2 note=37 velocity=64 time=0.25@note_on channel=4 note=63 velocity=96 time=0@note_on channel=9 note=39 velocity=96 time=0@note_on channel=9 note=42 velocity=96 time=0@note_off channel=4 note=63 velocity=64 time=0.16666666666666666@note_on channel=4 note=63 velocity=96 time=0@note_off channel=9 note=39 velocity=64 time=0.08333333333333333@note_off channel=9 note=42 velocity=64 time=0@note_off channel=4 note=63 velocity=64 time=0.08333333333333333@note_on channel=4 note=63 velocity=96 time=0@note_off channel=4 note=63 velocity=64 time=0.16666666666666666@note_on channel=4 note=66 velocity=96 time=0@note_on channel=9 note=35 velocity=96 time=0@note_off channel=9 note=35 velocity=64 time=0.16666666666666666@note_on channel=9 note=35 velocity=96 time=0@note_off channel=9 note=35 velocity=64 time=0.16666666666666666@note_on channel=9 note=35 velocity=96 time=0@note_on channel=2 note=27 velocity=96 time=0.16666666666666666@note_off channel=4 note=66 velocity=64 time=0@note_off channel=6 note=56 velocity=64 time=0@note_off channel=6 note=53 velocity=64 time=0@note_off channel=9 note=35 velocity=64 time=0@note_on channel=9 note=35 velocity=96 time=0@note_on channel=9 note=42 velocity=96 time=0@note_off channel=9 note=42 velocity=64 time=0.5@note_off channel=9 note=35 velocity=64 time=0@note_on channel=9 note=42 velocity=96 time=0@note_off channel=9 note=42 velocity=64 time=0.25@note_off channel=2 note=27 velocity=64 time=0.25@note_on channel=4 note=51 velocity=72 time=0@note_on channel=9 note=39 velocity=96 time=0@note_on channel=9 note=42 velocity=96 time=0@note_on channel=14 note=56 velocity=96 time=0@note_off channel=4 note=51 velocity=64 time=0.16666666666666666@note_on channel=4 note=51 velocity=72 time=0@note_off channel=9 note=39 velocity=64 time=0.08333333333333333@note_off channel=9 note=42 velocity=64 time=0@note_off channel=4 note=51 velocity=64 time=0.08333333333333333@note_on channel=4 note=51 velocity=72 time=0@note_off channel=14 note=56 velocity=64 time=0.041666666666666664@note_on channel=14 note=58 velocity=96 time=0@note_off channel=4 note=51 velocity=64 time=0.125@note_on channel=4 note=54 velocity=72 time=0@note_on channel=9 note=42 velocity=96 time=0@note_off channel=14 note=58 velocity=64 time=0@note_on channel=14 note=56 velocity=96 time=0@note_off channel=4 note=54 velocity=64 time=0.16666666666666666@note_on channel=4 note=54 velocity=72 time=0@note_off channel=9 note=42 velocity=64 time=0.08333333333333333@note_on channel=9 note=35 velocity=96 time=0.0625@note_off channel=4 note=54 velocity=64 time=0.020833333333333332@note_on channel=4 note=54 velocity=72 time=0@note_off channel=14 note=56 velocity=64 time=0.041666666666666664@note_on channel=14 note=54 velocity=96 time=0@note_off channel=4 note=54 velocity=64 time=0.125@note_on channel=4 note=56 velocity=72 time=0@note_off channel=9 note=35 velocity=64 time=0@note_on channel=9 note=42 velocity=96 time=0@note_on channel=9 note=35 velocity=96 time=0@note_off channel=14 note=54 velocity=64 time=0@note_on channel=14 note=56 velocity=96 time=0@note_off channel=9 note=35 velocity=64 time=0.25@note_off channel=9 note=42 velocity=64 time=0@note_off channel=4 note=56 velocity=64 time=0.25@note_on channel=4 note=58 velocity=72 time=0@note_on channel=9 note=42 velocity=96 time=0@note_on channel=9 note=35 velocity=96 time=0@note_off channel=14 note=56 velocity=64 time=0@note_on channel=14 note=54 velocity=96 time=0@note_off channel=9 note=35 velocity=64 time=0.25@note_off channel=9 note=42 velocity=64 time=0@note_off channel=4 note=58 velocity=64 time=0.25@note_on channel=4 note=56 velocity=72 time=0@note_on channel=9 note=39 velocity=96 time=0@note_on channel=9 note=42 velocity=96 time=0@note_off channel=14 note=54 velocity=64 time=0@note_on channel=14 note=54 velocity=96 time=0@note_off channel=9 note=39 velocity=64 time=0.25@note_off channel=9 note=42 velocity=64 time=0@note_off channel=4 note=56 velocity=64 time=0.125@note_on channel=4 note=54 velocity=72 time=0@note_off channel=4 note=54 velocity=64 time=0.125@note_on channel=4 note=51 velocity=72 time=0@note_on channel=9 note=42 velocity=96 time=0@note_off channel=14 note=54 velocity=64 time=0@note_off channel=9 note=42 velocity=64 time=0.16666666666666666@note_on channel=9 note=42 velocity=96 time=0@note_off channel=9 note=42 velocity=64 time=0.16666666666666666@note_on channel=9 note=42 velocity=96 time=0@note_off channel=4 note=51 velocity=64 time=0.041666666666666664@note_on channel=4 note=49 velocity=72 time=0@note_on channel=2 note=27 velocity=96 time=0.125@note_off channel=4 note=49 velocity=64 time=0@note_off channel=9 note=42 velocity=64 time=0@note_on channel=9 note=35 velocity=96 time=0@note_on channel=9 note=42 velocity=96 time=0@note_off channel=9 note=42 velocity=64 time=0.5@note_off channel=9 note=35 velocity=64 time=0@note_on channel=9 note=42 velocity=96 time=0@note_off channel=9 note=42 velocity=64 time=0.25@note_off channel=2 note=27 velocity=64 time=0.25@note_on channel=4 note=51 velocity=72 time=0@note_on channel=9 note=39 velocity=96 time=0@note_on channel=9 note=42 velocity=96 time=0@note_on channel=14 note=56 velocity=96 time=0@note_off channel=4 note=51 velocity=64 time=0.16666666666666666@note_on channel=4 note=51 velocity=72 time=0@note_off channel=9 note=39 velocity=64 time=0.08333333333333333@note_off channel=9 note=42 velocity=64 time=0@note_off channel=4 note=51 velocity=64 time=0.08333333333333333@note_on channel=4 note=51 velocity=72 time=0@note_off channel=14 note=56 velocity=64 time=0.041666666666666664@note_on channel=14 note=58 velocity=96 time=0@note_off channel=4 note=51 velocity=64 time=0.125@note_on channel=4 note=54 velocity=72 time=0@note_on channel=9 note=42 velocity=96 time=0@note_off channel=14 note=58 velocity=64 time=0@note_on channel=14 note=56 velocity=96 time=0@note_off channel=4 note=54 velocity=64 time=0.16666666666666666@note_on channel=4 note=54 velocity=72 time=0@note_off channel=9 note=42 velocity=64 time=0.08333333333333333@note_on channel=9 note=35 velocity=96 time=0.0625@note_off channel=4 note=54 velocity=64 time=0.020833333333333332@note_on channel=4 note=54 velocity=72 time=0@note_off channel=14 note=56 velocity=64 time=0.041666666666666664@note_on channel=14 note=54 velocity=96 time=0@note_off channel=4 note=54 velocity=64 time=0.125@note_on channel=4 note=56 velocity=72 time=0@note_off channel=9 note=35 velocity=64 time=0@note_on channel=9 note=42 velocity=96 time=0@note_on channel=9 note=35 velocity=96 time=0@note_off channel=14 note=54 velocity=64 time=0@note_on channel=14 note=56 velocity=96 time=0@note_off channel=9 note=35 velocity=64 time=0.25@note_off channel=9 note=42 velocity=64 time=0@note_off channel=4 note=56 velocity=64 time=0.25@note_on channel=4 note=58 velocity=72 time=0@note_on channel=9 note=42 velocity=96 time=0@note_on channel=9 note=35 velocity=96 time=0@note_off channel=14 note=56 velocity=64 time=0@note_on channel=14 note=54 velocity=96 time=0@note_off channel=9 note=35 velocity=64 time=0.25@note_off channel=9 note=42 velocity=64 time=0@note_off channel=4 note=58 velocity=64 time=0.25@note_on channel=4 note=56 velocity=72 time=0@note_on channel=9 note=39 velocity=96 time=0@note_on channel=9 note=42 velocity=96 time=0@note_off channel=14 note=54 velocity=64 time=0@note_on channel=14 note=54 velocity=96 time=0@note_off channel=9 note=39 velocity=64 time=0.25@note_off channel=9 note=42 velocity=64 time=0@note_off channel=4 note=56 velocity=64 time=0.125@note_on channel=4 note=54 velocity=72 time=0@note_off channel=4 note=54 velocity=64 time=0.125@note_on channel=4 note=51 velocity=72 time=0@note_on channel=9 note=42 velocity=96 time=0@note_off channel=14 note=54 velocity=64 time=0@note_off channel=9 note=42 velocity=64 time=0.25@note_on channel=9 note=42 velocity=96 time=0@note_on channel=9 note=35 velocity=96 time=0.0625@note_on channel=2 note=37 velocity=96 time=0.1875@note_off channel=4 note=51 velocity=64 time=0@note_off channel=9 note=42 velocity=64 time=0@note_off channel=9 note=35 velocity=64 time=0@note_on channel=9 note=35 velocity=96 time=0@note_on channel=9 note=42 velocity=96 time=0@note_off channel=9 note=42 velocity=64 time=0.5@note_off channel=9 note=35 velocity=64 time=0@note_on channel=9 note=42 velocity=96 time=0@note_off channel=9 note=42 velocity=64 time=0.25@note_off channel=2 note=37 velocity=64 time=0.25@note_on channel=4 note=49 velocity=72 time=0@note_on channel=9 note=39 velocity=96 time=0@note_on channel=9 note=42 velocity=96 time=0@note_on channel=14 note=56 velocity=96 time=0@note_off channel=4 note=49 velocity=64 time=0.16666666666666666@note_on channel=4 note=49 velocity=72 time=0@note_off channel=9 note=39 velocity=64 time=0.08333333333333333@note_off channel=9 note=42 velocity=64 time=0@note_off channel=4 note=49 velocity=64 time=0.08333333333333333@note_on channel=4 note=49 velocity=72 time=0@note_off channel=14 note=56 velocity=64 time=0.041666666666666664@note_on channel=14 note=58 velocity=96 time=0@note_off channel=4 note=49 velocity=64 time=0.125@note_on channel=4 note=51 velocity=72 time=0@note_on channel=9 note=42 velocity=96 time=0@note_off channel=14 note=58 velocity=64 time=0@note_on channel=14 note=56 velocity=96 time=0@note_off channel=4 note=51 velocity=64 time=0.16666666666666666@note_on channel=4 note=51 velocity=72 time=0@note_off channel=9 note=42 velocity=64 time=0.08333333333333333@note_on channel=9 note=35 velocity=96 time=0.0625@note_off channel=4 note=51 velocity=64 time=0.020833333333333332@note_on channel=4 note=51 velocity=72 time=0@note_off channel=14 note=56 velocity=64 time=0.041666666666666664@note_on channel=14 note=54 velocity=96 time=0@note_off channel=4 note=51 velocity=64 time=0.125@note_on channel=4 note=49 velocity=72 time=0@note_off channel=9 note=35 velocity=64 time=0@note_on channel=9 note=42 velocity=96 time=0@note_on channel=9 note=35 velocity=96 time=0@note_off channel=14 note=54 velocity=64 time=0@note_on channel=14 note=56 velocity=96 time=0@note_off channel=9 note=35 velocity=64 time=0.25@note_off channel=9 note=42 velocity=64 time=0@note_off channel=4 note=49 velocity=64 time=0.25@note_on channel=4 note=51 velocity=72 time=0@note_on channel=9 note=42 velocity=96 time=0@note_on channel=9 note=35 velocity=96 time=0@note_off channel=14 note=56 velocity=64 time=0@note_on channel=14 note=54 velocity=96 time=0@note_off channel=9 note=35 velocity=64 time=0.25@note_off channel=9 note=42 velocity=64 time=0@note_off channel=4 note=51 velocity=64 time=0.25@note_on channel=4 note=49 velocity=72 time=0@note_on channel=9 note=39 velocity=96 time=0@note_on channel=9 note=42 velocity=96 time=0@note_off channel=14 note=54 velocity=64 time=0@note_on channel=14 note=54 velocity=96 time=0@note_off channel=9 note=39 velocity=64 time=0.25@note_off channel=9 note=42 velocity=64 time=0@note_off channel=4 note=49 velocity=64 time=0.125@note_on channel=4 note=46 velocity=72 time=0@note_off channel=4 note=46 velocity=64 time=0.125@note_on channel=4 note=44 velocity=72 time=0@note_on channel=9 note=42 velocity=96 time=0@note_off channel=14 note=54 velocity=64 time=0@note_on channel=14 note=49 velocity=96 time=0@note_off channel=9 note=42 velocity=64 time=0.16666666666666666@note_on channel=9 note=42 velocity=96 time=0@note_off channel=9 note=42 velocity=64 time=0.16666666666666666@note_on channel=9 note=42 velocity=96 time=0@note_off channel=14 note=49 velocity=64 time=0.041666666666666664@note_on channel=14 note=54 velocity=96 time=0@note_on channel=0 note=66 velocity=80 time=0.125@note_on channel=0 note=73 velocity=80 time=0@note_on channel=2 note=30 velocity=96 time=0@note_off channel=4 note=44 velocity=64 time=0@note_on channel=15 note=42 velocity=80 time=0@note_off channel=9 note=42 velocity=64 time=0@note_on channel=9 note=35 velocity=96 time=0@note_on channel=9 note=42 velocity=96 time=0@note_off channel=14 note=54 velocity=64 time=0@note_off channel=0 note=73 velocity=64 time=0.25@note_off channel=0 note=66 velocity=64 time=0@note_on channel=0 note=66 velocity=80 time=0.25@note_on channel=0 note=73 velocity=80 time=0@note_off channel=15 note=42 velocity=64 time=0@note_on channel=15 note=42 velocity=80 time=0@note_off channel=9 note=42 velocity=64 time=0@note_off channel=9 note=35 velocity=64 time=0@note_on channel=9 note=42 velocity=96 time=0@note_off channel=0 note=73 velocity=64 time=0.25@note_off channel=0 note=66 velocity=64 time=0@note_off channel=9 note=42 velocity=64 time=0@note_on channel=0 note=66 velocity=80 time=0.25@note_on channel=0 note=73 velocity=80 time=0@note_off channel=2 note=30 velocity=64 time=0@note_on channel=4 note=58 velocity=72 time=0@note_off channel=15 note=42 velocity=64 time=0@note_on channel=15 note=42 velocity=80 time=0@note_on channel=9 note=39 velocity=96 time=0@note_on channel=9 note=42 velocity=96 time=0@note_off channel=4 note=58 velocity=64 time=0.16666666666666666@note_on channel=4 note=58 velocity=72 time=0@note_off channel=0 note=73 velocity=64 time=0.08333333333333333@note_off channel=0 note=66 velocity=64 time=0@note_off channel=9 note=39 velocity=64 time=0@note_off channel=9 note=42 velocity=64 time=0@note_off channel=4 note=58 velocity=64 time=0.08333333333333333@note_on channel=4 note=58 velocity=72 time=0@note_on channel=0 note=66 velocity=80 time=0.16666666666666666@note_on channel=0 note=73 velocity=80 time=0@note_off channel=4 note=58 velocity=64 time=0@note_on channel=4 note=61 velocity=72 time=0@note_off channel=15 note=42 velocity=64 time=0@note_on channel=15 note=42 velocity=80 time=0@note_on channel=9 note=42 velocity=96 time=0@note_off channel=4 note=61 velocity=64 time=0.16666666666666666@note_on channel=4 note=61 velocity=72 time=0@note_off channel=0 note=73 velocity=64 time=0.08333333333333333@note_off channel=0 note=66 velocity=64 time=0@note_off channel=9 note=42 velocity=64 time=0@note_on channel=9 note=35 velocity=96 time=0.0625@note_off channel=4 note=61 velocity=64 time=0.020833333333333332@note_on channel=4 note=61 velocity=72 time=0@note_on channel=0 note=61 velocity=80 time=0.16666666666666666@note_on channel=0 note=65 velocity=80 time=0@note_on channel=2 note=37 velocity=96 time=0@note_off channel=4 note=61 velocity=64 time=0@note_off channel=15 note=42 velocity=64 time=0@note_on channel=15 note=49 velocity=80 time=0@note_off channel=9 note=35 velocity=64 time=0@note_on channel=9 note=35 velocity=96 time=0@note_on channel=9 note=42 velocity=96 time=0@note_off channel=0 note=65 velocity=64 time=0.25@note_off channel=0 note=61 velocity=64 time=0@note_off channel=9 note=35 velocity=64 time=0@note_off channel=9 note=42 velocity=64 time=0@note_on channel=0 note=61 velocity=80 time=0.25@note_on channel=0 note=65 velocity=80 time=0@note_off channel=15 note=49 velocity=64 time=0@note_on channel=15 note=49 velocity=80 time=0@note_on channel=9 note=35 velocity=96 time=0@note_on channel=9 note=42 velocity=96 time=0@note_off channel=0 note=65 velocity=64 time=0.25@note_off channel=0 note=61 velocity=64 time=0@note_off channel=9 note=35 velocity=64 time=0@note_off channel=9 note=42 velocity=64 time=0@note_on channel=0 note=61 velocity=80 time=0.25@note_on channel=0 note=65 velocity=80 time=0@note_off channel=2 note=37 velocity=64 time=0@note_on channel=4 note=63 velocity=96 time=0@note_off channel=15 note=49 velocity=64 time=0@note_on channel=15 note=49 velocity=80 time=0@note_on channel=9 note=39 velocity=96 time=0@note_on channel=9 note=42 velocity=96 time=0@note_off channel=4 note=63 velocity=64 time=0.16666666666666666@note_on channel=4 note=63 velocity=96 time=0@note_off channel=0 note=65 velocity=64 time=0.08333333333333333@note_off channel=0 note=61 velocity=64 time=0@note_off channel=9 note=39 velocity=64 time=0@note_off channel=9 note=42 velocity=64 time=0@note_off channel=4 note=63 velocity=64 time=0.08333333333333333@note_on channel=4 note=63 velocity=96 time=0@note_on channel=0 note=61 velocity=80 time=0.16666666666666666@note_on channel=0 note=65 velocity=80 time=0@note_off channel=4 note=63 velocity=64 time=0@note_on channel=4 note=66 velocity=96 time=0@note_off channel=15 note=49 velocity=64 time=0@note_on channel=15 note=49 velocity=80 time=0@note_on channel=9 note=35 velocity=96 time=0@note_off channel=4 note=66 velocity=64 time=0.16666666666666666@note_off channel=9 note=35 velocity=64 time=0@note_on channel=9 note=35 velocity=96 time=0@note_off channel=0 note=65 velocity=64 time=0.08333333333333333@note_off channel=0 note=61 velocity=64 time=0@note_off channel=9 note=35 velocity=64 time=0.08333333333333333@note_on channel=9 note=35 velocity=96 time=0@note_on channel=2 note=27 velocity=96 time=0.16666666666666666@note_off channel=15 note=49 velocity=64 time=0@note_off channel=9 note=35 velocity=64 time=0@note_on channel=9 note=35 velocity=96 time=0@note_on channel=9 note=42 velocity=96 time=0@note_off channel=9 note=42 velocity=64 time=0.5@note_off channel=9 note=35 velocity=64 time=0@note_on channel=9 note=42 velocity=96 time=0@note_off channel=9 note=42 velocity=64 time=0.25@note_off channel=2 note=27 velocity=64 time=0.25@note_on channel=4 note=51 velocity=72 time=0@note_on channel=9 note=39 velocity=96 time=0@note_on channel=9 note=42 velocity=96 time=0@note_on channel=14 note=56 velocity=96 time=0@note_off channel=4 note=51 velocity=64 time=0.16666666666666666@note_on channel=4 note=51 velocity=72 time=0@note_off channel=9 note=39 velocity=64 time=0.08333333333333333@note_off channel=9 note=42 velocity=64 time=0@note_off channel=4 note=51 velocity=64 time=0.08333333333333333@note_on channel=4 note=51 velocity=72 time=0@note_off channel=14 note=56 velocity=64 time=0.041666666666666664@note_on channel=14 note=58 velocity=96 time=0@note_off channel=4 note=51 velocity=64 time=0.125@note_on channel=4 note=54 velocity=72 time=0@note_on channel=9 note=42 velocity=96 time=0@note_off channel=14 note=58 velocity=64 time=0@note_on channel=14 note=56 velocity=96 time=0@note_off channel=4 note=54 velocity=64 time=0.16666666666666666@note_on channel=4 note=54 velocity=72 time=0@note_off channel=9 note=42 velocity=64 time=0.08333333333333333@note_on channel=9 note=35 velocity=96 time=0.0625@note_off channel=4 note=54 velocity=64 time=0.020833333333333332@note_on channel=4 note=54 velocity=72 time=0@note_off channel=14 note=56 velocity=64 time=0.041666666666666664@note_on channel=14 note=54 velocity=96 time=0@note_off channel=4 note=54 velocity=64 time=0.125@note_on channel=4 note=56 velocity=72 time=0@note_off channel=9 note=35 velocity=64 time=0@note_on channel=9 note=42 velocity=96 time=0@note_on channel=9 note=35 velocity=96 time=0@note_off channel=14 note=54 velocity=64 time=0@note_on channel=14 note=56 velocity=96 time=0@note_off channel=9 note=35 velocity=64 time=0.25@note_off channel=9 note=42 velocity=64 time=0@note_off channel=4 note=56 velocity=64 time=0.25@note_on channel=4 note=58 velocity=72 time=0@note_on channel=9 note=42 velocity=96 time=0@note_on channel=9 note=35 velocity=96 time=0@note_off channel=14 note=56 velocity=64 time=0@note_on channel=14 note=54 velocity=96 time=0@note_off channel=9 note=35 velocity=64 time=0.25@note_off channel=9 note=42 velocity=64 time=0@note_off channel=4 note=58 velocity=64 time=0.25@note_on channel=4 note=56 velocity=72 time=0@note_on channel=9 note=39 velocity=96 time=0@note_on channel=9 note=42 velocity=96 time=0@note_off channel=14 note=54 velocity=64 time=0@note_on channel=14 note=54 velocity=96 time=0@note_off channel=9 note=39 velocity=64 time=0.25@note_off channel=9 note=42 velocity=64 time=0@note_off channel=4 note=56 velocity=64 time=0.125@note_on channel=4 note=54 velocity=72 time=0@note_off channel=4 note=54 velocity=64 time=0.125@note_on channel=4 note=51 velocity=72 time=0@note_on channel=9 note=42 velocity=96 time=0@note_off channel=14 note=54 velocity=64 time=0@note_off channel=9 note=42 velocity=64 time=0.16666666666666666@note_on channel=9 note=42 velocity=96 time=0@note_off channel=9 note=42 velocity=64 time=0.16666666666666666@note_on channel=9 note=42 velocity=96 time=0@note_off channel=4 note=51 velocity=64 time=0.041666666666666664@note_on channel=4 note=49 velocity=72 time=0@note_on channel=2 note=27 velocity=96 time=0.125@note_off channel=4 note=49 velocity=64 time=0@note_off channel=9 note=42 velocity=64 time=0@note_on channel=9 note=35 velocity=96 time=0@note_on channel=9 note=42 velocity=96 time=0@note_off channel=9 note=42 velocity=64 time=0.5@note_off channel=9 note=35 velocity=64 time=0@note_on channel=9 note=42 velocity=96 time=0@note_off channel=9 note=42 velocity=64 time=0.25@note_off channel=2 note=27 velocity=64 time=0.25@note_on channel=4 note=51 velocity=72 time=0@note_on channel=9 note=39 velocity=96 time=0@note_on channel=9 note=42 velocity=96 time=0@note_on channel=14 note=56 velocity=96 time=0@note_off channel=4 note=51 velocity=64 time=0.16666666666666666@note_on channel=4 note=51 velocity=72 time=0@note_off channel=9 note=39 velocity=64 time=0.08333333333333333@note_off channel=9 note=42 velocity=64 time=0@note_off channel=4 note=51 velocity=64 time=0.08333333333333333@note_on channel=4 note=51 velocity=72 time=0@note_off channel=14 note=56 velocity=64 time=0.041666666666666664@note_on channel=14 note=58 velocity=96 time=0@note_off channel=4 note=51 velocity=64 time=0.125@note_on channel=4 note=54 velocity=72 time=0@note_on channel=9 note=42 velocity=96 time=0@note_off channel=14 note=58 velocity=64 time=0@note_on channel=14 note=56 velocity=96 time=0@note_off channel=4 note=54 velocity=64 time=0.16666666666666666@note_on channel=4 note=54 velocity=72 time=0@note_off channel=9 note=42 velocity=64 time=0.08333333333333333@note_on channel=9 note=35 velocity=96 time=0.0625@note_off channel=4 note=54 velocity=64 time=0.020833333333333332@note_on channel=4 note=54 velocity=72 time=0@note_off channel=14 note=56 velocity=64 time=0.041666666666666664@note_on channel=14 note=54 velocity=96 time=0@note_off channel=4 note=54 velocity=64 time=0.125@note_on channel=4 note=56 velocity=72 time=0@note_off channel=9 note=35 velocity=64 time=0@note_on channel=9 note=42 velocity=96 time=0@note_on channel=9 note=35 velocity=96 time=0@note_off channel=14 note=54 velocity=64 time=0@note_on channel=14 note=56 velocity=96 time=0@note_off channel=9 note=35 velocity=64 time=0.25@note_off channel=9 note=42 velocity=64 time=0@note_off channel=4 note=56 velocity=64 time=0.25@note_on channel=4 note=58 velocity=72 time=0@note_on channel=9 note=42 velocity=96 time=0@note_on channel=9 note=35 velocity=96 time=0@note_off channel=14 note=56 velocity=64 time=0@note_on channel=14 note=54 velocity=96 time=0@note_off channel=9 note=35 velocity=64 time=0.25@note_off channel=9 note=42 velocity=64 time=0@note_off channel=4 note=58 velocity=64 time=0.25@note_on channel=4 note=56 velocity=72 time=0@note_on channel=9 note=39 velocity=96 time=0@note_on channel=9 note=42 velocity=96 time=0@note_off channel=14 note=54 velocity=64 time=0@note_on channel=14 note=54 velocity=96 time=0@note_off channel=9 note=39 velocity=64 time=0.25@note_off channel=9 note=42 velocity=64 time=0@note_off channel=4 note=56 velocity=64 time=0.125@note_on channel=4 note=54 velocity=72 time=0@note_off channel=4 note=54 velocity=64 time=0.125@note_on channel=4 note=51 velocity=72 time=0@note_on channel=9 note=42 velocity=96 time=0@note_off channel=14 note=54 velocity=64 time=0@note_off channel=9 note=42 velocity=64 time=0.25@note_on channel=9 note=42 velocity=96 time=0@note_on channel=9 note=35 velocity=96 time=0.0625@note_on channel=2 note=37 velocity=96 time=0.1875@note_off channel=4 note=51 velocity=64 time=0@note_off channel=9 note=42 velocity=64 time=0@note_off channel=9 note=35 velocity=64 time=0@note_on channel=9 note=35 velocity=96 time=0@note_on channel=9 note=42 velocity=96 time=0@note_off channel=9 note=42 velocity=64 time=0.5@note_off channel=9 note=35 velocity=64 time=0@note_on channel=9 note=42 velocity=96 time=0@note_off channel=9 note=42 velocity=64 time=0.25@note_off channel=2 note=37 velocity=64 time=0.25@note_on channel=4 note=49 velocity=72 time=0@note_on channel=9 note=39 velocity=96 time=0@note_on channel=9 note=42 velocity=96 time=0@note_on channel=14 note=56 velocity=96 time=0@note_off channel=4 note=49 velocity=64 time=0.16666666666666666@note_on channel=4 note=49 velocity=72 time=0@note_off channel=9 note=39 velocity=64 time=0.08333333333333333@note_off channel=9 note=42 velocity=64 time=0@note_off channel=4 note=49 velocity=64 time=0.08333333333333333@note_on channel=4 note=49 velocity=72 time=0@note_off channel=14 note=56 velocity=64 time=0.041666666666666664@note_on channel=14 note=58 velocity=96 time=0@note_off channel=4 note=49 velocity=64 time=0.125@note_on channel=4 note=51 velocity=72 time=0@note_on channel=9 note=42 velocity=96 time=0@note_off channel=14 note=58 velocity=64 time=0@note_on channel=14 note=56 velocity=96 time=0@note_off channel=4 note=51 velocity=64 time=0.16666666666666666@note_on channel=4 note=51 velocity=72 time=0@note_off channel=9 note=42 velocity=64 time=0.08333333333333333@note_on channel=9 note=35 velocity=96 time=0.0625@note_off channel=4 note=51 velocity=64 time=0.020833333333333332@note_on channel=4 note=51 velocity=72 time=0@note_off channel=14 note=56 velocity=64 time=0.041666666666666664@note_on channel=14 note=54 velocity=96 time=0@note_off channel=4 note=51 velocity=64 time=0.125@note_on channel=4 note=49 velocity=72 time=0@note_off channel=9 note=35 velocity=64 time=0@note_on channel=9 note=42 velocity=96 time=0@note_on channel=9 note=35 velocity=96 time=0@note_off channel=14 note=54 velocity=64 time=0@note_on channel=14 note=56 velocity=96 time=0@note_off channel=9 note=35 velocity=64 time=0.25@note_off channel=9 note=42 velocity=64 time=0@note_off channel=4 note=49 velocity=64 time=0.25@note_on channel=4 note=51 velocity=72 time=0@note_on channel=9 note=42 velocity=96 time=0@note_on channel=9 note=35 velocity=96 time=0@note_off channel=14 note=56 velocity=64 time=0@note_on channel=14 note=54 velocity=96 time=0@note_off channel=9 note=35 velocity=64 time=0.25@note_off channel=9 note=42 velocity=64 time=0@note_off channel=4 note=51 velocity=64 time=0.25@note_on channel=4 note=49 velocity=72 time=0@note_on channel=9 note=39 velocity=96 time=0@note_on channel=9 note=42 velocity=96 time=0@note_off channel=14 note=54 velocity=64 time=0@note_on channel=14 note=54 velocity=96 time=0@note_off channel=9 note=39 velocity=64 time=0.25@note_off channel=9 note=42 velocity=64 time=0@note_off channel=4 note=49 velocity=64 time=0.125@note_on channel=4 note=46 velocity=72 time=0@note_off channel=4 note=46 velocity=64 time=0.125@note_on channel=4 note=44 velocity=72 time=0@note_on channel=9 note=42 velocity=96 time=0@note_off channel=14 note=54 velocity=64 time=0@note_on channel=14 note=49 velocity=96 time=0@note_off channel=9 note=42 velocity=64 time=0.16666666666666666@note_on channel=9 note=42 velocity=96 time=0@note_off channel=9 note=42 velocity=64 time=0.16666666666666666@note_on channel=9 note=42 velocity=96 time=0@note_off channel=14 note=49 velocity=64 time=0.041666666666666664@note_on channel=14 note=54 velocity=96 time=0@note_on channel=0 note=66 velocity=80 time=0.125@note_on channel=0 note=73 velocity=80 time=0@note_on channel=2 note=30 velocity=96 time=0@note_off channel=4 note=44 velocity=64 time=0@note_on channel=15 note=42 velocity=80 time=0@note_off channel=9 note=42 velocity=64 time=0@note_on channel=9 note=35 velocity=96 time=0@note_on channel=9 note=42 velocity=96 time=0@note_off channel=14 note=54 velocity=64 time=0@note_off channel=0 note=73 velocity=64 time=0.25@note_off channel=0 note=66 velocity=64 time=0@note_on channel=0 note=66 velocity=80 time=0.25@note_on channel=0 note=73 velocity=80 time=0@note_off channel=15 note=42 velocity=64 time=0@note_on channel=15 note=42 velocity=80 time=0@note_off channel=9 note=42 velocity=64 time=0@note_off channel=9 note=35 velocity=64 time=0@note_on channel=9 note=42 velocity=96 time=0@note_off channel=0 note=73 velocity=64 time=0.25@note_off channel=0 note=66 velocity=64 time=0@note_off channel=9 note=42 velocity=64 time=0@note_on channel=0 note=66 velocity=80 time=0.25@note_on channel=0 note=73 velocity=80 time=0@note_off channel=2 note=30 velocity=64 time=0@note_on channel=4 note=58 velocity=72 time=0@note_off channel=15 note=42 velocity=64 time=0@note_on channel=15 note=42 velocity=80 time=0@note_on channel=9 note=39 velocity=96 time=0@note_on channel=9 note=42 velocity=96 time=0@note_off channel=4 note=58 velocity=64 time=0.16666666666666666@note_on channel=4 note=58 velocity=72 time=0@note_off channel=0 note=73 velocity=64 time=0.08333333333333333@note_off channel=0 note=66 velocity=64 time=0@note_off channel=9 note=39 velocity=64 time=0@note_off channel=9 note=42 velocity=64 time=0@note_off channel=4 note=58 velocity=64 time=0.08333333333333333@note_on channel=4 note=58 velocity=72 time=0@note_on channel=0 note=66 velocity=80 time=0.16666666666666666@note_on channel=0 note=73 velocity=80 time=0@note_off channel=4 note=58 velocity=64 time=0@note_on channel=4 note=61 velocity=72 time=0@note_off channel=15 note=42 velocity=64 time=0@note_on channel=15 note=42 velocity=80 time=0@note_on channel=9 note=42 velocity=96 time=0@note_off channel=4 note=61 velocity=64 time=0.16666666666666666@note_on channel=4 note=61 velocity=72 time=0@note_off channel=0 note=73 velocity=64 time=0.08333333333333333@note_off channel=0 note=66 velocity=64 time=0@note_off channel=9 note=42 velocity=64 time=0@note_on channel=9 note=35 velocity=96 time=0.0625@note_off channel=4 note=61 velocity=64 time=0.020833333333333332@note_on channel=4 note=61 velocity=72 time=0@note_on channel=0 note=61 velocity=80 time=0.16666666666666666@note_on channel=0 note=65 velocity=80 time=0@note_on channel=2 note=37 velocity=96 time=0@note_off channel=4 note=61 velocity=64 time=0@note_off channel=15 note=42 velocity=64 time=0@note_on channel=15 note=49 velocity=80 time=0@note_off channel=9 note=35 velocity=64 time=0@note_on channel=9 note=35 velocity=96 time=0@note_on channel=9 note=42 velocity=96 time=0@note_off channel=0 note=65 velocity=64 time=0.25@note_off channel=0 note=61 velocity=64 time=0@note_off channel=9 note=35 velocity=64 time=0@note_off channel=9 note=42 velocity=64 time=0@note_on channel=0 note=61 velocity=80 time=0.25@note_on channel=0 note=65 velocity=80 time=0@note_off channel=15 note=49 velocity=64 time=0@note_on channel=15 note=49 velocity=80 time=0@note_on channel=9 note=35 velocity=96 time=0@note_on channel=9 note=42 velocity=96 time=0@note_off channel=0 note=65 velocity=64 time=0.25@note_off channel=0 note=61 velocity=64 time=0@note_off channel=9 note=35 velocity=64 time=0@note_off channel=9 note=42 velocity=64 time=0@note_on channel=0 note=61 velocity=80 time=0.25@note_on channel=0 note=65 velocity=80 time=0@note_off channel=2 note=37 velocity=64 time=0@note_on channel=4 note=63 velocity=96 time=0@note_off channel=15 note=49 velocity=64 time=0@note_on channel=15 note=49 velocity=80 time=0@note_on channel=9 note=39 velocity=96 time=0@note_on channel=9 note=42 velocity=96 time=0@note_off channel=4 note=63 velocity=64 time=0.16666666666666666@note_on channel=4 note=63 velocity=96 time=0@note_off channel=0 note=65 velocity=64 time=0.08333333333333333@note_off channel=0 note=61 velocity=64 time=0@note_off channel=9 note=39 velocity=64 time=0@note_off channel=9 note=42 velocity=64 time=0@note_off channel=4 note=63 velocity=64 time=0.08333333333333333@note_on channel=4 note=63 velocity=96 time=0@note_on channel=0 note=65 velocity=80 time=0.16666666666666666@note_on channel=0 note=61 velocity=80 time=0@note_off channel=4 note=63 velocity=64 time=0@note_on channel=4 note=66 velocity=96 time=0@note_off channel=15 note=49 velocity=64 time=0@note_on channel=15 note=49 velocity=80 time=0@note_on channel=9 note=42 velocity=96 time=0@note_on channel=14 note=66 velocity=96 time=0@note_off channel=4 note=66 velocity=64 time=0.16666666666666666@note_off channel=9 note=42 velocity=64 time=0@note_on channel=9 note=42 velocity=96 time=0@note_off channel=0 note=65 velocity=64 time=0.08333333333333333@note_off channel=0 note=61 velocity=64 time=0@note_off channel=9 note=42 velocity=64 time=0.08333333333333333@note_on channel=9 note=42 velocity=96 time=0@note_on channel=2 note=27 velocity=96 time=0.16666666666666666@note_off channel=15 note=49 velocity=64 time=0@note_on channel=6 note=63 velocity=96 time=0@note_on channel=6 note=70 velocity=96 time=0@note_off channel=9 note=42 velocity=64 time=0@note_on channel=9 note=35 velocity=96 time=0@note_on channel=9 note=42 velocity=96 time=0@note_off channel=14 note=66 velocity=64 time=0@note_off channel=9 note=35 velocity=64 time=0.5@note_off channel=9 note=42 velocity=64 time=0@note_on channel=9 note=42 velocity=96 time=0@note_off channel=9 note=42 velocity=64 time=0.25@note_off channel=2 note=27 velocity=64 time=0.25@note_on channel=4 note=51 velocity=72 time=0@note_off channel=6 note=70 velocity=64 time=0@note_off channel=6 note=63 velocity=64 time=0@note_on channel=6 note=63 velocity=96 time=0@note_on channel=6 note=66 velocity=96 time=0@note_on channel=9 note=39 velocity=96 time=0@note_on channel=9 note=42 velocity=96 time=0@note_off channel=4 note=51 velocity=64 time=0.16666666666666666@note_on channel=4 note=51 velocity=72 time=0@note_off channel=9 note=39 velocity=64 time=0.08333333333333333@note_off channel=9 note=42 velocity=64 time=0@note_off channel=4 note=51 velocity=64 time=0.08333333333333333@note_on channel=4 note=51 velocity=72 time=0@note_off channel=4 note=51 velocity=64 time=0.16666666666666666@note_on channel=4 note=54 velocity=72 time=0@note_on channel=9 note=42 velocity=96 time=0@note_off channel=4 note=54 velocity=64 time=0.16666666666666666@note_on channel=4 note=54 velocity=72 time=0@note_off channel=9 note=42 velocity=64 time=0.08333333333333333@note_on channel=9 note=35 velocity=96 time=0.0625@note_off channel=4 note=54 velocity=64 time=0.020833333333333332@note_on channel=4 note=54 velocity=72 time=0@note_off channel=4 note=54 velocity=64 time=0.16666666666666666@note_on channel=4 note=56 velocity=72 time=0@note_off channel=6 note=66 velocity=64 time=0@note_off channel=6 note=63 velocity=64 time=0@note_off channel=9 note=35 velocity=64 time=0@note_on channel=9 note=35 velocity=96 time=0@note_on channel=9 note=42 velocity=96 time=0@note_off channel=9 note=42 velocity=64 time=0.25@note_off channel=9 note=35 velocity=64 time=0@note_off channel=4 note=56 velocity=64 time=0.25@note_on channel=4 note=58 velocity=72 time=0@note_on channel=9 note=35 velocity=96 time=0@note_on channel=9 note=42 velocity=96 time=0@note_off channel=9 note=35 velocity=64 time=0.25@note_off channel=9 note=42 velocity=64 time=0@note_off channel=4 note=58 velocity=64 time=0.25@note_on channel=4 note=56 velocity=72 time=0@note_on channel=9 note=39 velocity=96 time=0@note_on channel=9 note=42 velocity=96 time=0@note_off channel=9 note=39 velocity=64 time=0.25@note_off channel=9 note=42 velocity=64 time=0@note_off channel=4 note=56 velocity=64 time=0.125@note_on channel=4 note=54 velocity=72 time=0@note_off channel=4 note=54 velocity=64 time=0.125@note_on channel=4 note=51 velocity=72 time=0@note_on channel=9 note=42 velocity=96 time=0@note_on channel=14 note=66 velocity=96 time=0@note_off channel=9 note=42 velocity=64 time=0.16666666666666666@note_on channel=9 note=42 velocity=96 time=0@note_off channel=9 note=42 velocity=64 time=0.16666666666666666@note_on channel=9 note=42 velocity=96 time=0@note_off channel=4 note=51 velocity=64 time=0.041666666666666664@note_on channel=4 note=49 velocity=72 time=0@note_on channel=2 note=27 velocity=96 time=0.125@note_off channel=4 note=49 velocity=64 time=0@note_on channel=6 note=63 velocity=96 time=0@note_on channel=6 note=70 velocity=96 time=0@note_off channel=9 note=42 velocity=64 time=0@note_on channel=9 note=35 velocity=96 time=0@note_on channel=9 note=42 velocity=96 time=0@note_off channel=14 note=66 velocity=64 time=0@note_off channel=9 note=35 velocity=64 time=0.5@note_off channel=9 note=42 velocity=64 time=0@note_on channel=9 note=42 velocity=96 time=0@note_off channel=9 note=42 velocity=64 time=0.25@note_off channel=2 note=27 velocity=64 time=0.25@note_on channel=4 note=51 velocity=72 time=0@note_off channel=6 note=70 velocity=64 time=0@note_off channel=6 note=63 velocity=64 time=0@note_on channel=6 note=63 velocity=96 time=0@note_on channel=6 note=66 velocity=96 time=0@note_on channel=9 note=39 velocity=96 time=0@note_on channel=9 note=42 velocity=96 time=0@note_off channel=4 note=51 velocity=64 time=0.16666666666666666@note_on channel=4 note=51 velocity=72 time=0@note_off channel=9 note=39 velocity=64 time=0.08333333333333333@note_off channel=9 note=42 velocity=64 time=0@note_off channel=4 note=51 velocity=64 time=0.08333333333333333@note_on channel=4 note=51 velocity=72 time=0@note_off channel=4 note=51 velocity=64 time=0.16666666666666666@note_on channel=4 note=54 velocity=72 time=0@note_on channel=9 note=42 velocity=96 time=0@note_off channel=4 note=54 velocity=64 time=0.16666666666666666@note_on channel=4 note=54 velocity=72 time=0@note_off channel=9 note=42 velocity=64 time=0.08333333333333333@note_on channel=9 note=35 velocity=96 time=0.0625@note_off channel=4 note=54 velocity=64 time=0.020833333333333332@note_on channel=4 note=54 velocity=72 time=0@note_off channel=4 note=54 velocity=64 time=0.16666666666666666@note_on channel=4 note=56 velocity=72 time=0@note_off channel=6 note=66 velocity=64 time=0@note_off channel=6 note=63 velocity=64 time=0@note_off channel=9 note=35 velocity=64 time=0@note_on channel=9 note=35 velocity=96 time=0@note_on channel=9 note=42 velocity=96 time=0@note_off channel=9 note=42 velocity=64 time=0.25@note_off channel=9 note=35 velocity=64 time=0@note_off channel=4 note=56 velocity=64 time=0.25@note_on channel=4 note=58 velocity=72 time=0@note_on channel=9 note=35 velocity=96 time=0@note_on channel=9 note=42 velocity=96 time=0@note_off channel=9 note=35 velocity=64 time=0.25@note_off channel=9 note=42 velocity=64 time=0@note_off channel=4 note=58 velocity=64 time=0.25@note_on channel=4 note=56 velocity=72 time=0@note_on channel=9 note=39 velocity=96 time=0@note_on channel=9 note=42 velocity=96 time=0@note_off channel=9 note=39 velocity=64 time=0.25@note_off channel=9 note=42 velocity=64 time=0@note_on channel=9 note=35 velocity=96 time=0.0625@note_off channel=4 note=56 velocity=64 time=0.0625@note_on channel=4 note=54 velocity=72 time=0@note_off channel=4 note=54 velocity=64 time=0.125@note_on channel=4 note=51 velocity=72 time=0@note_off channel=9 note=35 velocity=64 time=0@note_on channel=9 note=42 velocity=96 time=0@note_on channel=14 note=66 velocity=96 time=0@note_off channel=9 note=42 velocity=64 time=0.25@note_on channel=9 note=42 velocity=96 time=0@note_on channel=9 note=35 velocity=96 time=0.0625@note_on channel=2 note=37 velocity=96 time=0.1875@note_off channel=4 note=51 velocity=64 time=0@note_on channel=6 note=63 velocity=96 time=0@note_on channel=6 note=68 velocity=96 time=0@note_off channel=9 note=42 velocity=64 time=0@note_off channel=9 note=35 velocity=64 time=0@note_on channel=9 note=35 velocity=96 time=0@note_on channel=9 note=42 velocity=96 time=0@note_off channel=14 note=66 velocity=64 time=0@note_off channel=9 note=42 velocity=64 time=0.5@note_off channel=9 note=35 velocity=64 time=0@note_on channel=9 note=42 velocity=96 time=0@note_off channel=9 note=42 velocity=64 time=0.25@note_off channel=2 note=37 velocity=64 time=0.25@note_on channel=4 note=49 velocity=72 time=0@note_off channel=6 note=68 velocity=64 time=0@note_off channel=6 note=63 velocity=64 time=0@note_on channel=6 note=61 velocity=96 time=0@note_on channel=6 note=65 velocity=96 time=0@note_on channel=9 note=39 velocity=96 time=0@note_on channel=9 note=42 velocity=96 time=0@note_off channel=4 note=49 velocity=64 time=0.16666666666666666@note_on channel=4 note=49 velocity=72 time=0@note_off channel=9 note=39 velocity=64 time=0.08333333333333333@note_off channel=9 note=42 velocity=64 time=0@note_off channel=4 note=49 velocity=64 time=0.08333333333333333@note_on channel=4 note=49 velocity=72 time=0@note_off channel=4 note=49 velocity=64 time=0.16666666666666666@note_on channel=4 note=51 velocity=72 time=0@note_on channel=9 note=42 velocity=96 time=0@note_off channel=4 note=51 velocity=64 time=0.16666666666666666@note_on channel=4 note=51 velocity=72 time=0@note_off channel=9 note=42 velocity=64 time=0.08333333333333333@note_on channel=9 note=35 velocity=96 time=0.0625@note_off channel=4 note=51 velocity=64 time=0.020833333333333332@note_on channel=4 note=51 velocity=72 time=0@note_off channel=4 note=51 velocity=64 time=0.16666666666666666@note_on channel=4 note=49 velocity=72 time=0@note_off channel=6 note=65 velocity=64 time=0@note_off channel=6 note=61 velocity=64 time=0@note_off channel=9 note=35 velocity=64 time=0@note_on channel=9 note=35 velocity=96 time=0@note_on channel=9 note=42 velocity=96 time=0@note_off channel=9 note=42 velocity=64 time=0.25@note_off channel=9 note=35 velocity=64 time=0@note_off channel=4 note=49 velocity=64 time=0.25@note_on channel=4 note=51 velocity=72 time=0@note_on channel=9 note=35 velocity=96 time=0@note_on channel=9 note=42 velocity=96 time=0@note_off channel=9 note=35 velocity=64 time=0.25@note_off channel=9 note=42 velocity=64 time=0@note_off channel=4 note=51 velocity=64 time=0.25@note_on channel=4 note=49 velocity=72 time=0@note_on channel=9 note=39 velocity=96 time=0@note_on channel=9 note=42 velocity=96 time=0@note_off channel=9 note=39 velocity=64 time=0.25@note_off channel=9 note=42 velocity=64 time=0@note_off channel=4 note=49 velocity=64 time=0.125@note_on channel=4 note=46 velocity=72 time=0@note_off channel=4 note=46 velocity=64 time=0.125@note_on channel=4 note=44 velocity=72 time=0@note_on channel=9 note=42 velocity=96 time=0@note_on channel=14 note=66 velocity=96 time=0@note_off channel=9 note=42 velocity=64 time=0.25@note_on channel=2 note=30 velocity=96 time=0.25@note_off channel=4 note=44 velocity=64 time=0@note_on channel=6 note=58 velocity=96 time=0@note_on channel=6 note=61 velocity=96 time=0@note_on channel=9 note=35 velocity=96 time=0@note_on channel=9 note=42 velocity=96 time=0@note_off channel=14 note=66 velocity=64 time=0@note_off channel=9 note=35 velocity=64 time=0.5@note_off channel=9 note=42 velocity=64 time=0@note_on channel=9 note=42 velocity=96 time=0@note_off channel=9 note=42 velocity=64 time=0.25@note_off channel=2 note=30 velocity=64 time=0.25@note_on channel=4 note=58 velocity=72 time=0@note_on channel=9 note=39 velocity=96 time=0@note_on channel=9 note=42 velocity=96 time=0@note_off channel=4 note=58 velocity=64 time=0.16666666666666666@note_on channel=4 note=58 velocity=72 time=0@note_off channel=9 note=39 velocity=64 time=0.08333333333333333@note_off channel=9 note=42 velocity=64 time=0@note_off channel=4 note=58 velocity=64 time=0.08333333333333333@note_on channel=4 note=58 velocity=72 time=0@note_off channel=4 note=58 velocity=64 time=0.16666666666666666@note_on channel=4 note=61 velocity=72 time=0@note_on channel=9 note=42 velocity=96 time=0@note_off channel=4 note=61 velocity=64 time=0.16666666666666666@note_on channel=4 note=61 velocity=72 time=0@note_off channel=9 note=42 velocity=64 time=0.08333333333333333@note_on channel=9 note=35 velocity=96 time=0.0625@note_off channel=4 note=61 velocity=64 time=0.020833333333333332@note_on channel=4 note=61 velocity=72 time=0@note_on channel=2 note=37 velocity=96 time=0.16666666666666666@note_off channel=4 note=61 velocity=64 time=0@note_off channel=6 note=61 velocity=64 time=0@note_off channel=6 note=58 velocity=64 time=0@note_on channel=6 note=53 velocity=96 time=0@note_on channel=6 note=56 velocity=96 time=0@note_off channel=9 note=35 velocity=64 time=0@note_on channel=9 note=35 velocity=96 time=0@note_on channel=9 note=42 velocity=96 time=0@note_off channel=9 note=42 velocity=64 time=0.25@note_off channel=9 note=35 velocity=64 time=0@note_on channel=9 note=35 velocity=96 time=0.25@note_on channel=9 note=42 velocity=96 time=0@note_off channel=9 note=35 velocity=64 time=0.25@note_off channel=9 note=42 velocity=64 time=0@note_off channel=2 note=37 velocity=64 time=0.25@note_on channel=4 note=63 velocity=96 time=0@note_on channel=9 note=39 velocity=96 time=0@note_on channel=9 note=42 velocity=96 time=0@note_off channel=4 note=63 velocity=64 time=0.16666666666666666@note_on channel=4 note=63 velocity=96 time=0@note_off channel=9 note=39 velocity=64 time=0.08333333333333333@note_off channel=9 note=42 velocity=64 time=0@note_off channel=4 note=63 velocity=64 time=0.08333333333333333@note_on channel=4 note=63 velocity=96 time=0@note_off channel=4 note=63 velocity=64 time=0.16666666666666666@note_on channel=4 note=66 velocity=96 time=0@note_on channel=9 note=35 velocity=96 time=0@note_on channel=14 note=66 velocity=96 time=0@note_off channel=9 note=35 velocity=64 time=0.16666666666666666@note_on channel=9 note=35 velocity=96 time=0@note_off channel=9 note=35 velocity=64 time=0.16666666666666666@note_on channel=9 note=35 velocity=96 time=0@note_on channel=2 note=27 velocity=96 time=0.16666666666666666@note_off channel=4 note=66 velocity=64 time=0@note_off channel=6 note=56 velocity=64 time=0@note_off channel=6 note=53 velocity=64 time=0@note_off channel=9 note=35 velocity=64 time=0@note_on channel=9 note=35 velocity=96 time=0@note_on channel=9 note=42 velocity=96 time=0@note_off channel=14 note=66 velocity=64 time=0@note_off channel=9 note=42 velocity=64 time=0.5@note_off channel=9 note=35 velocity=64 time=0@note_on channel=9 note=42 velocity=96 time=0@note_off channel=9 note=42 velocity=64 time=0.25@note_off channel=2 note=27 velocity=64 time=0.25@note_on channel=4 note=51 velocity=72 time=0@note_on channel=9 note=39 velocity=96 time=0@note_on channel=9 note=42 velocity=96 time=0@note_on channel=14 note=56 velocity=96 time=0@note_off channel=4 note=51 velocity=64 time=0.16666666666666666@note_on channel=4 note=51 velocity=72 time=0@note_off channel=9 note=39 velocity=64 time=0.08333333333333333@note_off channel=9 note=42 velocity=64 time=0@note_off channel=4 note=51 velocity=64 time=0.08333333333333333@note_on channel=4 note=51 velocity=72 time=0@note_off channel=14 note=56 velocity=64 time=0.041666666666666664@note_on channel=14 note=58 velocity=96 time=0@note_off channel=4 note=51 velocity=64 time=0.125@note_on channel=4 note=54 velocity=72 time=0@note_on channel=9 note=42 velocity=96 time=0@note_off channel=14 note=58 velocity=64 time=0@note_on channel=14 note=56 velocity=96 time=0@note_off channel=4 note=54 velocity=64 time=0.16666666666666666@note_on channel=4 note=54 velocity=72 time=0@note_off channel=9 note=42 velocity=64 time=0.08333333333333333@note_on channel=9 note=35 velocity=96 time=0.041666666666666664@note_off channel=4 note=54 velocity=64 time=0.041666666666666664@note_on channel=4 note=54 velocity=72 time=0@note_off channel=14 note=56 velocity=64 time=0.041666666666666664@note_on channel=14 note=54 velocity=96 time=0@note_off channel=4 note=54 velocity=64 time=0.125@note_on channel=4 note=56 velocity=72 time=0@note_off channel=9 note=35 velocity=64 time=0@note_on channel=9 note=42 velocity=96 time=0@note_on channel=9 note=35 velocity=96 time=0@note_off channel=14 note=54 velocity=64 time=0@note_on channel=14 note=56 velocity=96 time=0@note_off channel=9 note=35 velocity=64 time=0.25@note_off channel=9 note=42 velocity=64 time=0@note_off channel=4 note=56 velocity=64 time=0.25@note_on channel=4 note=58 velocity=72 time=0@note_on channel=9 note=42 velocity=96 time=0@note_on channel=9 note=35 velocity=96 time=0@note_off channel=14 note=56 velocity=64 time=0@note_on channel=14 note=54 velocity=96 time=0@note_off channel=9 note=35 velocity=64 time=0.25@note_off channel=9 note=42 velocity=64 time=0@note_off channel=4 note=58 velocity=64 time=0.25@note_on channel=4 note=56 velocity=72 time=0@note_on channel=9 note=39 velocity=96 time=0@note_on channel=9 note=42 velocity=96 time=0@note_off channel=14 note=54 velocity=64 time=0@note_on channel=14 note=54 velocity=96 time=0@note_off channel=9 note=39 velocity=64 time=0.25@note_off channel=9 note=42 velocity=64 time=0@note_off channel=4 note=56 velocity=64 time=0.125@note_on channel=4 note=54 velocity=72 time=0@note_off channel=4 note=54 velocity=64 time=0.125@note_on channel=4 note=51 velocity=72 time=0@note_on channel=9 note=42 velocity=96 time=0@note_off channel=14 note=54 velocity=64 time=0@note_off channel=9 note=42 velocity=64 time=0.16666666666666666@note_on channel=9 note=42 velocity=96 time=0@note_off channel=9 note=42 velocity=64 time=0.16666666666666666@note_on channel=9 note=42 velocity=96 time=0@note_off channel=4 note=51 velocity=64 time=0.041666666666666664@note_on channel=4 note=49 velocity=72 time=0@note_on channel=2 note=27 velocity=96 time=0.125@note_off channel=4 note=49 velocity=64 time=0@note_off channel=9 note=42 velocity=64 time=0@note_on channel=9 note=35 velocity=96 time=0@note_on channel=9 note=42 velocity=96 time=0@note_off channel=9 note=42 velocity=64 time=0.5@note_off channel=9 note=35 velocity=64 time=0@note_on channel=9 note=42 velocity=96 time=0@note_off channel=9 note=42 velocity=64 time=0.25@note_off channel=2 note=27 velocity=64 time=0.25@note_on channel=4 note=51 velocity=72 time=0@note_on channel=9 note=39 velocity=96 time=0@note_on channel=9 note=42 velocity=96 time=0@note_on channel=14 note=56 velocity=96 time=0@note_off channel=4 note=51 velocity=64 time=0.16666666666666666@note_on channel=4 note=51 velocity=72 time=0@note_off channel=9 note=39 velocity=64 time=0.08333333333333333@note_off channel=9 note=42 velocity=64 time=0@note_off channel=4 note=51 velocity=64 time=0.08333333333333333@note_on channel=4 note=51 velocity=72 time=0@note_off channel=14 note=56 velocity=64 time=0.041666666666666664@note_on channel=14 note=58 velocity=96 time=0@note_off channel=4 note=51 velocity=64 time=0.125@note_on channel=4 note=54 velocity=72 time=0@note_on channel=9 note=42 velocity=96 time=0@note_off channel=14 note=58 velocity=64 time=0@note_on channel=14 note=56 velocity=96 time=0@note_off channel=4 note=54 velocity=64 time=0.16666666666666666@note_on channel=4 note=54 velocity=72 time=0@note_off channel=9 note=42 velocity=64 time=0.08333333333333333@note_on channel=9 note=35 velocity=96 time=0.041666666666666664@note_off channel=4 note=54 velocity=64 time=0.041666666666666664@note_on channel=4 note=54 velocity=72 time=0@note_off channel=14 note=56 velocity=64 time=0.041666666666666664@note_on channel=14 note=54 velocity=96 time=0@note_off channel=4 note=54 velocity=64 time=0.125@note_on channel=4 note=56 velocity=72 time=0@note_off channel=9 note=35 velocity=64 time=0@note_on channel=9 note=42 velocity=96 time=0@note_on channel=9 note=35 velocity=96 time=0@note_off channel=14 note=54 velocity=64 time=0@note_on channel=14 note=56 velocity=96 time=0@note_off channel=9 note=35 velocity=64 time=0.25@note_off channel=9 note=42 velocity=64 time=0@note_off channel=4 note=56 velocity=64 time=0.25@note_on channel=4 note=58 velocity=72 time=0@note_on channel=9 note=42 velocity=96 time=0@note_on channel=9 note=35 velocity=96 time=0@note_off channel=14 note=56 velocity=64 time=0@note_on channel=14 note=54 velocity=96 time=0@note_off channel=9 note=35 velocity=64 time=0.25@note_off channel=9 note=42 velocity=64 time=0@note_off channel=4 note=58 velocity=64 time=0.25@note_on channel=4 note=56 velocity=72 time=0@note_on channel=9 note=43 velocity=96 time=0@note_off channel=14 note=54 velocity=64 time=0@note_on channel=14 note=54 velocity=96 time=0@note_off channel=9 note=43 velocity=64 time=0.16666666666666666@note_on channel=9 note=41 velocity=96 time=0@note_off channel=9 note=41 velocity=64 time=0.16666666666666666@note_on channel=9 note=45 velocity=96 time=0@note_off channel=4 note=56 velocity=64 time=0.041666666666666664@note_on channel=4 note=54 velocity=72 time=0@note_off channel=4 note=54 velocity=64 time=0.125@note_on channel=4 note=51 velocity=72 time=0@note_off channel=9 note=45 velocity=64 time=0@note_on channel=9 note=38 velocity=96 time=0@note_off channel=14 note=54 velocity=64 time=0@note_off channel=9 note=38 velocity=64 time=0.16666666666666666@note_on channel=9 note=38 velocity=96 time=0@note_off channel=9 note=38 velocity=64 time=0.16666666666666666@note_on channel=9 note=38 velocity=96 time=0@note_on channel=2 note=37 velocity=96 time=0.16666666666666666@note_off channel=4 note=51 velocity=64 time=0@note_off channel=9 note=38 velocity=64 time=0@note_on channel=9 note=35 velocity=96 time=0@note_on channel=9 note=42 velocity=96 time=0@note_off channel=9 note=42 velocity=64 time=0.5@note_off channel=9 note=35 velocity=64 time=0@note_on channel=9 note=42 velocity=96 time=0@note_off channel=9 note=42 velocity=64 time=0.25@note_off channel=2 note=37 velocity=64 time=0.25@note_on channel=4 note=49 velocity=72 time=0@note_on channel=9 note=39 velocity=96 time=0@note_on channel=9 note=42 velocity=96 time=0@note_on channel=14 note=56 velocity=96 time=0@note_off channel=4 note=49 velocity=64 time=0.16666666666666666@note_on channel=4 note=49 velocity=72 time=0@note_off channel=9 note=39 velocity=64 time=0.08333333333333333@note_off channel=9 note=42 velocity=64 time=0@note_off channel=4 note=49 velocity=64 time=0.08333333333333333@note_on channel=4 note=49 velocity=72 time=0@note_off channel=14 note=56 velocity=64 time=0.041666666666666664@note_on channel=14 note=58 velocity=96 time=0@note_off channel=4 note=49 velocity=64 time=0.125@note_on channel=4 note=51 velocity=72 time=0@note_on channel=9 note=42 velocity=96 time=0@note_off channel=14 note=58 velocity=64 time=0@note_on channel=14 note=56 velocity=96 time=0@note_off channel=4 note=51 velocity=64 time=0.16666666666666666@note_on channel=4 note=51 velocity=72 time=0@note_off channel=9 note=42 velocity=64 time=0.08333333333333333@note_on channel=9 note=35 velocity=96 time=0.041666666666666664@note_off channel=4 note=51 velocity=64 time=0.041666666666666664@note_on channel=4 note=51 velocity=72 time=0@note_off channel=14 note=56 velocity=64 time=0.041666666666666664@note_on channel=14 note=54 velocity=96 time=0@note_off channel=4 note=51 velocity=64 time=0.125@note_on channel=4 note=49 velocity=72 time=0@note_off channel=9 note=35 velocity=64 time=0@note_on channel=9 note=42 velocity=96 time=0@note_on channel=9 note=35 velocity=96 time=0@note_off channel=14 note=54 velocity=64 time=0@note_on channel=14 note=56 velocity=96 time=0@note_off channel=9 note=35 velocity=64 time=0.25@note_off channel=9 note=42 velocity=64 time=0@note_off channel=4 note=49 velocity=64 time=0.25@note_on channel=4 note=51 velocity=72 time=0@note_on channel=9 note=42 velocity=96 time=0@note_on channel=9 note=35 velocity=96 time=0@note_off channel=14 note=56 velocity=64 time=0@note_on channel=14 note=54 velocity=96 time=0@note_off channel=9 note=35 velocity=64 time=0.25@note_off channel=9 note=42 velocity=64 time=0@note_off channel=4 note=51 velocity=64 time=0.25@note_on channel=4 note=49 velocity=72 time=0@note_on channel=9 note=39 velocity=96 time=0@note_on channel=9 note=42 velocity=96 time=0@note_off channel=14 note=54 velocity=64 time=0@note_on channel=14 note=54 velocity=96 time=0@note_off channel=9 note=39 velocity=64 time=0.25@note_off channel=9 note=42 velocity=64 time=0@note_off channel=4 note=49 velocity=64 time=0.125@note_on channel=4 note=46 velocity=72 time=0@note_off channel=4 note=46 velocity=64 time=0.125@note_on channel=4 note=44 velocity=72 time=0@note_on channel=9 note=42 velocity=96 time=0@note_off channel=14 note=54 velocity=64 time=0@note_on channel=14 note=49 velocity=96 time=0@note_off channel=9 note=42 velocity=64 time=0.16666666666666666@note_on channel=9 note=42 velocity=96 time=0@note_off channel=9 note=42 velocity=64 time=0.16666666666666666@note_on channel=9 note=42 velocity=96 time=0@note_off channel=14 note=49 velocity=64 time=0.041666666666666664@note_on channel=14 note=54 velocity=96 time=0@note_on channel=0 note=66 velocity=80 time=0.125@note_on channel=0 note=73 velocity=80 time=0@note_on channel=2 note=30 velocity=96 time=0@note_off channel=4 note=44 velocity=64 time=0@note_on channel=15 note=42 velocity=80 time=0@note_off channel=9 note=42 velocity=64 time=0@note_on channel=9 note=35 velocity=96 time=0@note_on channel=9 note=46 velocity=96 time=0@note_off channel=14 note=54 velocity=64 time=0@note_off channel=0 note=73 velocity=64 time=0.25@note_off channel=0 note=66 velocity=64 time=0@note_on channel=0 note=66 velocity=80 time=0.25@note_on channel=0 note=73 velocity=80 time=0@note_off channel=15 note=42 velocity=64 time=0@note_on channel=15 note=42 velocity=80 time=0@note_off channel=9 note=46 velocity=64 time=0@note_off channel=9 note=35 velocity=64 time=0@note_on channel=9 note=46 velocity=96 time=0@note_off channel=0 note=73 velocity=64 time=0.25@note_off channel=0 note=66 velocity=64 time=0@note_off channel=9 note=46 velocity=64 time=0@note_on channel=0 note=66 velocity=80 time=0.25@note_on channel=0 note=73 velocity=80 time=0@note_off channel=2 note=30 velocity=64 time=0@note_on channel=4 note=58 velocity=72 time=0@note_off channel=15 note=42 velocity=64 time=0@note_on channel=15 note=42 velocity=80 time=0@note_on channel=9 note=39 velocity=96 time=0@note_on channel=9 note=46 velocity=96 time=0@note_off channel=4 note=58 velocity=64 time=0.16666666666666666@note_on channel=4 note=58 velocity=72 time=0@note_off channel=0 note=73 velocity=64 time=0.08333333333333333@note_off channel=0 note=66 velocity=64 time=0@note_off channel=9 note=39 velocity=64 time=0@note_off channel=9 note=46 velocity=64 time=0@note_off channel=4 note=58 velocity=64 time=0.08333333333333333@note_on channel=4 note=58 velocity=72 time=0@note_on channel=0 note=66 velocity=80 time=0.16666666666666666@note_on channel=0 note=73 velocity=80 time=0@note_off channel=4 note=58 velocity=64 time=0@note_on channel=4 note=61 velocity=72 time=0@note_off channel=15 note=42 velocity=64 time=0@note_on channel=15 note=42 velocity=80 time=0@note_on channel=9 note=45 velocity=96 time=0@note_off channel=4 note=61 velocity=64 time=0.16666666666666666@note_on channel=4 note=61 velocity=72 time=0@note_off channel=9 note=45 velocity=64 time=0@note_on channel=9 note=43 velocity=96 time=0@note_off channel=0 note=73 velocity=64 time=0.08333333333333333@note_off channel=0 note=66 velocity=64 time=0@note_off channel=4 note=61 velocity=64 time=0.08333333333333333@note_on channel=4 note=61 velocity=72 time=0@note_off channel=9 note=43 velocity=64 time=0@note_on channel=9 note=41 velocity=96 time=0@note_on channel=0 note=61 velocity=80 time=0.16666666666666666@note_on channel=0 note=65 velocity=80 time=0@note_on channel=2 note=37 velocity=96 time=0@note_off channel=4 note=61 velocity=64 time=0@note_off channel=15 note=42 velocity=64 time=0@note_on channel=15 note=49 velocity=80 time=0@note_off channel=9 note=41 velocity=64 time=0@note_on channel=9 note=35 velocity=96 time=0@note_on channel=9 note=49 velocity=96 time=0@note_off channel=0 note=65 velocity=64 time=0.25@note_off channel=0 note=61 velocity=64 time=0@note_off channel=9 note=35 velocity=64 time=0@note_off channel=9 note=49 velocity=64 time=0@note_on channel=0 note=61 velocity=80 time=0.25@note_on channel=0 note=65 velocity=80 time=0@note_off channel=15 note=49 velocity=64 time=0@note_on channel=15 note=49 velocity=80 time=0@note_on channel=9 note=35 velocity=96 time=0@note_on channel=9 note=42 velocity=96 time=0@note_off channel=0 note=65 velocity=64 time=0.25@note_off channel=0 note=61 velocity=64 time=0@note_off channel=9 note=35 velocity=64 time=0@note_off channel=9 note=42 velocity=64 time=0@note_on channel=0 note=61 velocity=80 time=0.25@note_on channel=0 note=65 velocity=80 time=0@note_off channel=2 note=37 velocity=64 time=0@note_on channel=4 note=63 velocity=96 time=0@note_off channel=15 note=49 velocity=64 time=0@note_on channel=15 note=49 velocity=80 time=0@note_on channel=9 note=39 velocity=96 time=0@note_on channel=9 note=42 velocity=96 time=0@note_off channel=4 note=63 velocity=64 time=0.16666666666666666@note_on channel=4 note=63 velocity=96 time=0@note_off channel=0 note=65 velocity=64 time=0.08333333333333333@note_off channel=0 note=61 velocity=64 time=0@note_off channel=9 note=39 velocity=64 time=0@note_off channel=9 note=42 velocity=64 time=0@note_off channel=4 note=63 velocity=64 time=0.08333333333333333@note_on channel=4 note=63 velocity=96 time=0@note_on channel=0 note=61 velocity=80 time=0.16666666666666666@note_on channel=0 note=65 velocity=80 time=0@note_off channel=4 note=63 velocity=64 time=0@note_on channel=4 note=66 velocity=96 time=0@note_off channel=15 note=49 velocity=64 time=0@note_on channel=15 note=49 velocity=80 time=0@note_on channel=9 note=38 velocity=96 time=0@note_off channel=4 note=66 velocity=64 time=0.16666666666666666@note_off channel=9 note=38 velocity=64 time=0@note_on channel=9 note=38 velocity=96 time=0@note_off channel=0 note=65 velocity=64 time=0.08333333333333333@note_off channel=0 note=61 velocity=64 time=0@note_off channel=9 note=38 velocity=64 time=0.08333333333333333@note_on channel=9 note=38 velocity=96 time=0@note_on channel=2 note=27 velocity=96 time=0.16666666666666666@note_off channel=15 note=49 velocity=64 time=0@note_off channel=9 note=38 velocity=64 time=0@note_on channel=9 note=35 velocity=96 time=0@note_on channel=9 note=42 velocity=96 time=0@note_off channel=9 note=42 velocity=64 time=0.5@note_off channel=9 note=35 velocity=64 time=0@note_on channel=9 note=42 velocity=96 time=0@note_off channel=9 note=42 velocity=64 time=0.25@note_off channel=2 note=27 velocity=64 time=0.25@note_on channel=4 note=51 velocity=72 time=0@note_on channel=9 note=39 velocity=96 time=0@note_on channel=9 note=42 velocity=96 time=0@note_on channel=14 note=56 velocity=96 time=0@note_off channel=4 note=51 velocity=64 time=0.16666666666666666@note_on channel=4 note=51 velocity=72 time=0@note_off channel=9 note=39 velocity=64 time=0.08333333333333333@note_off channel=9 note=42 velocity=64 time=0@note_off channel=4 note=51 velocity=64 time=0.08333333333333333@note_on channel=4 note=51 velocity=72 time=0@note_off channel=14 note=56 velocity=64 time=0.041666666666666664@note_on channel=14 note=58 velocity=96 time=0@note_off channel=4 note=51 velocity=64 time=0.125@note_on channel=4 note=54 velocity=72 time=0@note_on channel=9 note=42 velocity=96 time=0@note_off channel=14 note=58 velocity=64 time=0@note_on channel=14 note=56 velocity=96 time=0@note_off channel=4 note=54 velocity=64 time=0.16666666666666666@note_on channel=4 note=54 velocity=72 time=0@note_off channel=9 note=42 velocity=64 time=0.08333333333333333@note_on channel=9 note=35 velocity=96 time=0.041666666666666664@note_off channel=4 note=54 velocity=64 time=0.041666666666666664@note_on channel=4 note=54 velocity=72 time=0@note_off channel=14 note=56 velocity=64 time=0.041666666666666664@note_on channel=14 note=54 velocity=96 time=0@note_off channel=4 note=54 velocity=64 time=0.125@note_on channel=4 note=56 velocity=72 time=0@note_off channel=9 note=35 velocity=64 time=0@note_on channel=9 note=42 velocity=96 time=0@note_on channel=9 note=35 velocity=96 time=0@note_off channel=14 note=54 velocity=64 time=0@note_on channel=14 note=56 velocity=96 time=0@note_off channel=9 note=35 velocity=64 time=0.25@note_off channel=9 note=42 velocity=64 time=0@note_off channel=4 note=56 velocity=64 time=0.25@note_on channel=4 note=58 velocity=72 time=0@note_on channel=9 note=42 velocity=96 time=0@note_on channel=9 note=35 velocity=96 time=0@note_off channel=14 note=56 velocity=64 time=0@note_on channel=14 note=54 velocity=96 time=0@note_off channel=9 note=35 velocity=64 time=0.25@note_off channel=9 note=42 velocity=64 time=0@note_off channel=4 note=58 velocity=64 time=0.25@note_on channel=4 note=56 velocity=72 time=0@note_on channel=9 note=39 velocity=96 time=0@note_on channel=9 note=42 velocity=96 time=0@note_off channel=14 note=54 velocity=64 time=0@note_on channel=14 note=54 velocity=96 time=0@note_off channel=9 note=39 velocity=64 time=0.25@note_off channel=9 note=42 velocity=64 time=0@note_off channel=4 note=56 velocity=64 time=0.125@note_on channel=4 note=54 velocity=72 time=0@note_off channel=4 note=54 velocity=64 time=0.125@note_on channel=4 note=51 velocity=72 time=0@note_on channel=9 note=42 velocity=96 time=0@note_off channel=14 note=54 velocity=64 time=0@note_off channel=9 note=42 velocity=64 time=0.16666666666666666@note_on channel=9 note=42 velocity=96 time=0@note_off channel=9 note=42 velocity=64 time=0.16666666666666666@note_on channel=9 note=42 velocity=96 time=0@note_off channel=4 note=51 velocity=64 time=0.041666666666666664@note_on channel=4 note=49 velocity=72 time=0@note_on channel=2 note=27 velocity=96 time=0.125@note_off channel=4 note=49 velocity=64 time=0@note_off channel=9 note=42 velocity=64 time=0@note_on channel=9 note=35 velocity=96 time=0@note_on channel=9 note=42 velocity=96 time=0@note_off channel=9 note=42 velocity=64 time=0.5@note_off channel=9 note=35 velocity=64 time=0@note_on channel=9 note=42 velocity=96 time=0@note_off channel=9 note=42 velocity=64 time=0.25@note_off channel=2 note=27 velocity=64 time=0.25@note_on channel=4 note=51 velocity=72 time=0@note_on channel=9 note=39 velocity=96 time=0@note_on channel=9 note=42 velocity=96 time=0@note_on channel=14 note=56 velocity=96 time=0@note_off channel=4 note=51 velocity=64 time=0.16666666666666666@note_on channel=4 note=51 velocity=72 time=0@note_off channel=9 note=39 velocity=64 time=0.08333333333333333@note_off channel=9 note=42 velocity=64 time=0@note_off channel=4 note=51 velocity=64 time=0.08333333333333333@note_on channel=4 note=51 velocity=72 time=0@note_off channel=14 note=56 velocity=64 time=0.041666666666666664@note_on channel=14 note=58 velocity=96 time=0@note_off channel=4 note=51 velocity=64 time=0.125@note_on channel=4 note=54 velocity=72 time=0@note_on channel=9 note=42 velocity=96 time=0@note_off channel=14 note=58 velocity=64 time=0@note_on channel=14 note=56 velocity=96 time=0@note_off channel=4 note=54 velocity=64 time=0.16666666666666666@note_on channel=4 note=54 velocity=72 time=0@note_off channel=9 note=42 velocity=64 time=0.08333333333333333@note_on channel=9 note=35 velocity=96 time=0.0625@note_off channel=4 note=54 velocity=64 time=0.020833333333333332@note_on channel=4 note=54 velocity=72 time=0@note_off channel=14 note=56 velocity=64 time=0.041666666666666664@note_on channel=14 note=54 velocity=96 time=0@note_off channel=4 note=54 velocity=64 time=0.125@note_on channel=4 note=56 velocity=72 time=0@note_off channel=9 note=35 velocity=64 time=0@note_on channel=9 note=42 velocity=96 time=0@note_on channel=9 note=35 velocity=96 time=0@note_off channel=14 note=54 velocity=64 time=0@note_on channel=14 note=56 velocity=96 time=0@note_off channel=9 note=35 velocity=64 time=0.25@note_off channel=9 note=42 velocity=64 time=0@note_off channel=4 note=56 velocity=64 time=0.25@note_on channel=4 note=58 velocity=72 time=0@note_on channel=9 note=42 velocity=96 time=0@note_on channel=9 note=35 velocity=96 time=0@note_off channel=14 note=56 velocity=64 time=0@note_on channel=14 note=54 velocity=96 time=0@note_off channel=9 note=35 velocity=64 time=0.25@note_off channel=9 note=42 velocity=64 time=0@note_off channel=4 note=58 velocity=64 time=0.25@note_on channel=4 note=56 velocity=72 time=0@note_on channel=9 note=39 velocity=96 time=0@note_on channel=9 note=42 velocity=96 time=0@note_off channel=14 note=54 velocity=64 time=0@note_on channel=14 note=54 velocity=96 time=0@note_off channel=9 note=39 velocity=64 time=0.25@note_off channel=9 note=42 velocity=64 time=0@note_off channel=4 note=56 velocity=64 time=0.125@note_on channel=4 note=54 velocity=72 time=0@note_off channel=4 note=54 velocity=64 time=0.125@note_on channel=4 note=51 velocity=72 time=0@note_on channel=9 note=42 velocity=96 time=0@note_off channel=14 note=54 velocity=64 time=0@note_off channel=9 note=42 velocity=64 time=0.25@note_on channel=9 note=42 velocity=96 time=0@note_on channel=9 note=35 velocity=96 time=0.0625@note_on channel=2 note=37 velocity=96 time=0.1875@note_off channel=4 note=51 velocity=64 time=0@note_off channel=9 note=42 velocity=64 time=0@note_off channel=9 note=35 velocity=64 time=0@note_on channel=9 note=35 velocity=96 time=0@note_on channel=9 note=42 velocity=96 time=0@note_off channel=9 note=42 velocity=64 time=0.5@note_off channel=9 note=35 velocity=64 time=0@note_on channel=9 note=42 velocity=96 time=0@note_off channel=9 note=42 velocity=64 time=0.25@note_off channel=2 note=37 velocity=64 time=0.25@note_on channel=4 note=49 velocity=72 time=0@note_on channel=9 note=39 velocity=96 time=0@note_on channel=9 note=42 velocity=96 time=0@note_on channel=14 note=56 velocity=96 time=0@note_off channel=4 note=49 velocity=64 time=0.16666666666666666@note_on channel=4 note=49 velocity=72 time=0@note_off channel=9 note=39 velocity=64 time=0.08333333333333333@note_off channel=9 note=42 velocity=64 time=0@note_off channel=4 note=49 velocity=64 time=0.08333333333333333@note_on channel=4 note=49 velocity=72 time=0@note_off channel=14 note=56 velocity=64 time=0.041666666666666664@note_on channel=14 note=58 velocity=96 time=0@note_off channel=4 note=49 velocity=64 time=0.125@note_on channel=4 note=51 velocity=72 time=0@note_on channel=9 note=42 velocity=96 time=0@note_off channel=14 note=58 velocity=64 time=0@note_on channel=14 note=56 velocity=96 time=0@note_off channel=4 note=51 velocity=64 time=0.16666666666666666@note_on channel=4 note=51 velocity=72 time=0@note_off channel=9 note=42 velocity=64 time=0.08333333333333333@note_on channel=9 note=35 velocity=96 time=0.0625@note_off channel=4 note=51 velocity=64 time=0.020833333333333332@note_on channel=4 note=51 velocity=72 time=0@note_off channel=14 note=56 velocity=64 time=0.041666666666666664@note_on channel=14 note=54 velocity=96 time=0@note_off channel=4 note=51 velocity=64 time=0.125@note_on channel=4 note=49 velocity=72 time=0@note_off channel=9 note=35 velocity=64 time=0@note_on channel=9 note=42 velocity=96 time=0@note_on channel=9 note=35 velocity=96 time=0@note_off channel=14 note=54 velocity=64 time=0@note_on channel=14 note=56 velocity=96 time=0@note_off channel=9 note=35 velocity=64 time=0.25@note_off channel=9 note=42 velocity=64 time=0@note_off channel=4 note=49 velocity=64 time=0.25@note_on channel=4 note=51 velocity=72 time=0@note_on channel=9 note=42 velocity=96 time=0@note_on channel=9 note=35 velocity=96 time=0@note_off channel=14 note=56 velocity=64 time=0@note_on channel=14 note=54 velocity=96 time=0@note_off channel=9 note=35 velocity=64 time=0.25@note_off channel=9 note=42 velocity=64 time=0@note_off channel=4 note=51 velocity=64 time=0.25@note_on channel=4 note=49 velocity=72 time=0@note_on channel=9 note=38 velocity=96 time=0@note_off channel=14 note=54 velocity=64 time=0@note_on channel=14 note=54 velocity=96 time=0@note_off channel=9 note=38 velocity=64 time=0.16666666666666666@note_on channel=9 note=38 velocity=96 time=0@note_off channel=9 note=38 velocity=64 time=0.16666666666666666@note_on channel=9 note=38 velocity=96 time=0@note_off channel=4 note=49 velocity=64 time=0.041666666666666664@note_on channel=4 note=46 velocity=72 time=0@note_off channel=4 note=46 velocity=64 time=0.125@note_on channel=4 note=44 velocity=72 time=0@note_off channel=9 note=38 velocity=64 time=0@note_off channel=14 note=54 velocity=64 time=0@note_on channel=14 note=49 velocity=96 time=0@note_on channel=9 note=46 velocity=96 time=0.25@note_off channel=14 note=49 velocity=64 time=0.125@note_on channel=14 note=54 velocity=96 time=0@note_on channel=0 note=66 velocity=80 time=0.125@note_on channel=0 note=73 velocity=80 time=0@note_on channel=2 note=30 velocity=96 time=0@note_off channel=4 note=44 velocity=64 time=0@note_on channel=15 note=42 velocity=80 time=0@note_off channel=9 note=46 velocity=64 time=0@note_on channel=9 note=38 velocity=96 time=0@note_off channel=14 note=54 velocity=64 time=0@note_off channel=0 note=73 velocity=64 time=0.25@note_off channel=0 note=66 velocity=64 time=0@note_off channel=9 note=38 velocity=64 time=0.125@note_on channel=9 note=38 velocity=96 time=0@note_on channel=0 note=66 velocity=80 time=0.125@note_on channel=0 note=73 velocity=80 time=0@note_off channel=15 note=42 velocity=64 time=0@note_on channel=15 note=42 velocity=80 time=0@note_off channel=0 note=73 velocity=64 time=0.25@note_off channel=0 note=66 velocity=64 time=0@note_off channel=9 note=38 velocity=64 time=0@note_on channel=9 note=38 velocity=96 time=0@note_off channel=9 note=38 velocity=64 time=0.16666666666666666@note_on channel=9 note=38 velocity=96 time=0@note_on channel=0 note=66 velocity=80 time=0.08333333333333333@note_on channel=0 note=73 velocity=80 time=0@note_off channel=2 note=30 velocity=64 time=0@note_on channel=4 note=58 velocity=72 time=0@note_off channel=15 note=42 velocity=64 time=0@note_on channel=15 note=42 velocity=80 time=0@note_off channel=9 note=38 velocity=64 time=0.08333333333333333@note_on channel=9 note=38 velocity=96 time=0@note_off channel=4 note=58 velocity=64 time=0.08333333333333333@note_on channel=4 note=58 velocity=72 time=0@note_off channel=0 note=73 velocity=64 time=0.08333333333333333@note_off channel=0 note=66 velocity=64 time=0@note_off channel=9 note=38 velocity=64 time=0@note_off channel=4 note=58 velocity=64 time=0.08333333333333333@note_on channel=4 note=58 velocity=72 time=0@note_on channel=0 note=66 velocity=80 time=0.16666666666666666@note_on channel=0 note=73 velocity=80 time=0@note_off channel=4 note=58 velocity=64 time=0@note_on channel=4 note=61 velocity=72 time=0@note_off channel=15 note=42 velocity=64 time=0@note_on channel=15 note=42 velocity=80 time=0@note_on channel=9 note=45 velocity=96 time=0@note_off channel=4 note=61 velocity=64 time=0.16666666666666666@note_on channel=4 note=61 velocity=72 time=0@note_off channel=9 note=45 velocity=64 time=0@note_on channel=9 note=43 velocity=96 time=0@note_off channel=0 note=73 velocity=64 time=0.08333333333333333@note_off channel=0 note=66 velocity=64 time=0@note_off channel=4 note=61 velocity=64 time=0.08333333333333333@note_on channel=4 note=61 velocity=72 time=0@note_off channel=9 note=43 velocity=64 time=0@note_on channel=9 note=38 velocity=96 time=0@note_on channel=0 note=61 velocity=80 time=0.16666666666666666@note_on channel=0 note=65 velocity=80 time=0@note_on channel=2 note=37 velocity=96 time=0@note_off channel=4 note=61 velocity=64 time=0@note_off channel=15 note=42 velocity=64 time=0@note_on channel=15 note=49 velocity=80 time=0@note_off channel=9 note=38 velocity=64 time=0@note_on channel=9 note=38 velocity=96 time=0@note_off channel=0 note=65 velocity=64 time=0.25@note_off channel=0 note=61 velocity=64 time=0@note_off channel=9 note=38 velocity=64 time=0.125@note_on channel=9 note=38 velocity=96 time=0@note_on channel=0 note=61 velocity=80 time=0.125@note_on channel=0 note=65 velocity=80 time=0@note_off channel=15 note=49 velocity=64 time=0@note_on channel=15 note=49 velocity=80 time=0@note_off channel=0 note=65 velocity=64 time=0.25@note_off channel=0 note=61 velocity=64 time=0@note_off channel=9 note=38 velocity=64 time=0@note_on channel=9 note=38 velocity=96 time=0@note_off channel=9 note=38 velocity=64 time=0.16666666666666666@note_on channel=9 note=38 velocity=96 time=0@note_on channel=0 note=61 velocity=80 time=0.08333333333333333@note_on channel=0 note=65 velocity=80 time=0@note_off channel=2 note=37 velocity=64 time=0@note_on channel=4 note=63 velocity=96 time=0@note_off channel=15 note=49 velocity=64 time=0@note_on channel=15 note=49 velocity=80 time=0@note_off channel=9 note=38 velocity=64 time=0.08333333333333333@note_on channel=9 note=38 velocity=96 time=0@note_off channel=4 note=63 velocity=64 time=0.08333333333333333@note_on channel=4 note=63 velocity=96 time=0@note_off channel=0 note=65 velocity=64 time=0.08333333333333333@note_off channel=0 note=61 velocity=64 time=0@note_off channel=9 note=38 velocity=64 time=0@note_off channel=4 note=63 velocity=64 time=0.08333333333333333@note_on channel=4 note=63 velocity=96 time=0@note_on channel=0 note=65 velocity=80 time=0.16666666666666666@note_on channel=0 note=61 velocity=80 time=0@note_off channel=4 note=63 velocity=64 time=0@note_on channel=4 note=66 velocity=96 time=0@note_off channel=15 note=49 velocity=64 time=0@note_on channel=15 note=49 velocity=80 time=0@note_on channel=9 note=45 velocity=96 time=0@note_on channel=14 note=66 velocity=96 time=0@note_off channel=4 note=66 velocity=64 time=0.16666666666666666@note_off channel=9 note=45 velocity=64 time=0@note_on channel=9 note=43 velocity=96 time=0@note_off channel=0 note=65 velocity=64 time=0.08333333333333333@note_off channel=0 note=61 velocity=64 time=0@note_off channel=9 note=43 velocity=64 time=0.08333333333333333@note_on channel=9 note=38 velocity=96 time=0@note_on channel=2 note=27 velocity=96 time=0.16666666666666666@note_off channel=15 note=49 velocity=64 time=0@note_on channel=6 note=63 velocity=96 time=0@note_on channel=6 note=70 velocity=96 time=0@note_off channel=9 note=38 velocity=64 time=0@note_on channel=9 note=35 velocity=96 time=0@note_on channel=9 note=42 velocity=96 time=0@note_off channel=14 note=66 velocity=64 time=0@note_off channel=9 note=35 velocity=64 time=0.5@note_off channel=9 note=42 velocity=64 time=0@note_on channel=9 note=42 velocity=96 time=0@note_off channel=9 note=42 velocity=64 time=0.25@note_on channel=11 note=66 velocity=96 time=0.25@note_off channel=2 note=27 velocity=64 time=0@note_on channel=4 note=51 velocity=72 time=0@note_off channel=6 note=70 velocity=64 time=0@note_off channel=6 note=63 velocity=64 time=0@note_on channel=6 note=63 velocity=96 time=0@note_on channel=6 note=66 velocity=96 time=0@note_on channel=9 note=39 velocity=96 time=0@note_on channel=9 note=42 velocity=96 time=0@note_off channel=4 note=51 velocity=64 time=0.16666666666666666@note_on channel=4 note=51 velocity=72 time=0@note_off channel=11 note=66 velocity=64 time=0.08333333333333333@note_on channel=11 note=63 velocity=96 time=0@note_off channel=9 note=39 velocity=64 time=0@note_off channel=9 note=42 velocity=64 time=0@note_off channel=4 note=51 velocity=64 time=0.08333333333333333@note_on channel=4 note=51 velocity=72 time=0@note_off channel=4 note=51 velocity=64 time=0.16666666666666666@note_on channel=4 note=54 velocity=72 time=0@note_on channel=9 note=42 velocity=96 time=0@note_off channel=4 note=54 velocity=64 time=0.16666666666666666@note_on channel=4 note=54 velocity=72 time=0@note_off channel=9 note=42 velocity=64 time=0.08333333333333333@note_on channel=9 note=35 velocity=96 time=0.0625@note_off channel=4 note=54 velocity=64 time=0.020833333333333332@note_on channel=4 note=54 velocity=72 time=0@note_off channel=11 note=63 velocity=64 time=0.16666666666666666@note_on channel=11 note=66 velocity=96 time=0@note_off channel=4 note=54 velocity=64 time=0@note_on channel=4 note=56 velocity=72 time=0@note_off channel=6 note=66 velocity=64 time=0@note_off channel=6 note=63 velocity=64 time=0@note_off channel=9 note=35 velocity=64 time=0@note_on channel=9 note=35 velocity=96 time=0@note_on channel=9 note=42 velocity=96 time=0@note_off channel=9 note=42 velocity=64 time=0.25@note_off channel=9 note=35 velocity=64 time=0@note_off channel=11 note=66 velocity=64 time=0.25@note_on channel=11 note=68 velocity=96 time=0@note_off channel=4 note=56 velocity=64 time=0@note_on channel=4 note=58 velocity=72 time=0@note_on channel=9 note=35 velocity=96 time=0@note_on channel=9 note=42 velocity=96 time=0@note_off channel=9 note=35 velocity=64 time=0.25@note_off channel=9 note=42 velocity=64 time=0@note_off channel=11 note=68 velocity=64 time=0.25@note_on channel=11 note=70 velocity=96 time=0@note_off channel=4 note=58 velocity=64 time=0@note_on channel=4 note=56 velocity=72 time=0@note_on channel=9 note=39 velocity=96 time=0@note_on channel=9 note=42 velocity=96 time=0@note_off channel=9 note=39 velocity=64 time=0.25@note_off channel=9 note=42 velocity=64 time=0@note_off channel=4 note=56 velocity=64 time=0.125@note_on channel=4 note=54 velocity=72 time=0@note_off channel=11 note=70 velocity=64 time=0.125@note_on channel=11 note=68 velocity=96 time=0@note_off channel=4 note=54 velocity=64 time=0@note_on channel=4 note=51 velocity=72 time=0@note_on channel=9 note=42 velocity=96 time=0@note_on channel=14 note=66 velocity=96 time=0@note_off channel=9 note=42 velocity=64 time=0.16666666666666666@note_on channel=9 note=42 velocity=96 time=0@note_off channel=9 note=42 velocity=64 time=0.16666666666666666@note_on channel=9 note=42 velocity=96 time=0@note_off channel=4 note=51 velocity=64 time=0.041666666666666664@note_on channel=4 note=49 velocity=72 time=0@note_off channel=11 note=68 velocity=64 time=0.125@note_on channel=2 note=27 velocity=96 time=0@note_off channel=4 note=49 velocity=64 time=0@note_on channel=6 note=63 velocity=96 time=0@note_on channel=6 note=70 velocity=96 time=0@note_off channel=9 note=42 velocity=64 time=0@note_on channel=9 note=35 velocity=96 time=0@note_on channel=9 note=42 velocity=96 time=0@note_off channel=14 note=66 velocity=64 time=0@note_off channel=9 note=42 velocity=64 time=0.5@note_off channel=9 note=35 velocity=64 time=0@note_on channel=9 note=42 velocity=96 time=0@note_off channel=9 note=42 velocity=64 time=0.25@note_on channel=11 note=66 velocity=96 time=0.25@note_off channel=2 note=27 velocity=64 time=0@note_on channel=4 note=51 velocity=72 time=0@note_off channel=6 note=70 velocity=64 time=0@note_off channel=6 note=63 velocity=64 time=0@note_on channel=6 note=63 velocity=96 time=0@note_on channel=6 note=66 velocity=96 time=0@note_on channel=9 note=39 velocity=96 time=0@note_on channel=9 note=42 velocity=96 time=0@note_off channel=4 note=51 velocity=64 time=0.16666666666666666@note_on channel=4 note=51 velocity=72 time=0@note_off channel=11 note=66 velocity=64 time=0.08333333333333333@note_on channel=11 note=63 velocity=96 time=0@note_off channel=9 note=39 velocity=64 time=0@note_off channel=9 note=42 velocity=64 time=0@note_off channel=4 note=51 velocity=64 time=0.08333333333333333@note_on channel=4 note=51 velocity=72 time=0@note_off channel=4 note=51 velocity=64 time=0.16666666666666666@note_on channel=4 note=54 velocity=72 time=0@note_on channel=9 note=42 velocity=96 time=0@note_off channel=4 note=54 velocity=64 time=0.16666666666666666@note_on channel=4 note=54 velocity=72 time=0@note_off channel=9 note=42 velocity=64 time=0.08333333333333333@note_on channel=9 note=35 velocity=96 time=0.0625@note_off channel=4 note=54 velocity=64 time=0.020833333333333332@note_on channel=4 note=54 velocity=72 time=0@note_off channel=11 note=63 velocity=64 time=0.16666666666666666@note_on channel=11 note=61 velocity=96 time=0@note_off channel=4 note=54 velocity=64 time=0@note_on channel=4 note=56 velocity=72 time=0@note_off channel=6 note=66 velocity=64 time=0@note_off channel=6 note=63 velocity=64 time=0@note_off channel=9 note=35 velocity=64 time=0@note_on channel=9 note=35 velocity=96 time=0@note_on channel=9 note=42 velocity=96 time=0@note_off channel=9 note=42 velocity=64 time=0.25@note_off channel=9 note=35 velocity=64 time=0@note_off channel=11 note=61 velocity=64 time=0.25@note_on channel=11 note=63 velocity=96 time=0@note_off channel=4 note=56 velocity=64 time=0@note_on channel=4 note=58 velocity=72 time=0@note_on channel=9 note=35 velocity=96 time=0@note_on channel=9 note=42 velocity=96 time=0@note_off channel=9 note=35 velocity=64 time=0.25@note_off channel=9 note=42 velocity=64 time=0@note_off channel=11 note=63 velocity=64 time=0.25@note_on channel=11 note=66 velocity=96 time=0@note_off channel=4 note=58 velocity=64 time=0@note_on channel=4 note=56 velocity=72 time=0@note_on channel=9 note=39 velocity=96 time=0@note_on channel=9 note=42 velocity=96 time=0@note_off channel=9 note=39 velocity=64 time=0.25@note_off channel=9 note=42 velocity=64 time=0@note_on channel=9 note=35 velocity=96 time=0.0625@note_off channel=4 note=56 velocity=64 time=0.0625@note_on channel=4 note=54 velocity=72 time=0@note_off channel=11 note=66 velocity=64 time=0.125@note_on channel=11 note=63 velocity=96 time=0@note_off channel=4 note=54 velocity=64 time=0@note_on channel=4 note=51 velocity=72 time=0@note_off channel=9 note=35 velocity=64 time=0@note_on channel=9 note=42 velocity=96 time=0@note_on channel=14 note=66 velocity=96 time=0@note_off channel=9 note=42 velocity=64 time=0.25@note_on channel=9 note=42 velocity=96 time=0@note_on channel=9 note=35 velocity=96 time=0.0625@note_off channel=11 note=63 velocity=64 time=0.1875@note_on channel=2 note=37 velocity=96 time=0@note_off channel=4 note=51 velocity=64 time=0@note_on channel=6 note=63 velocity=96 time=0@note_on channel=6 note=68 velocity=96 time=0@note_off channel=9 note=42 velocity=64 time=0@note_off channel=9 note=35 velocity=64 time=0@note_on channel=9 note=35 velocity=96 time=0@note_on channel=9 note=42 velocity=96 time=0@note_off channel=14 note=66 velocity=64 time=0@note_off channel=9 note=42 velocity=64 time=0.5@note_off channel=9 note=35 velocity=64 time=0@note_on channel=9 note=42 velocity=96 time=0@note_off channel=9 note=42 velocity=64 time=0.25@note_on channel=11 note=66 velocity=96 time=0.25@note_off channel=2 note=37 velocity=64 time=0@note_on channel=4 note=49 velocity=72 time=0@note_off channel=6 note=68 velocity=64 time=0@note_off channel=6 note=63 velocity=64 time=0@note_on channel=6 note=61 velocity=96 time=0@note_on channel=6 note=65 velocity=96 time=0@note_on channel=9 note=39 velocity=96 time=0@note_on channel=9 note=42 velocity=96 time=0@note_off channel=4 note=49 velocity=64 time=0.16666666666666666@note_on channel=4 note=49 velocity=72 time=0@note_off channel=9 note=39 velocity=64 time=0.08333333333333333@note_off channel=9 note=42 velocity=64 time=0@note_off channel=4 note=49 velocity=64 time=0.08333333333333333@note_on channel=4 note=49 velocity=72 time=0@note_off channel=11 note=66 velocity=64 time=0.041666666666666664@note_on channel=11 note=63 velocity=96 time=0@note_off channel=11 note=63 velocity=64 time=0.125@note_on channel=11 note=61 velocity=96 time=0@note_off channel=4 note=49 velocity=64 time=0@note_on channel=4 note=51 velocity=72 time=0@note_on channel=9 note=42 velocity=96 time=0@note_off channel=4 note=51 velocity=64 time=0.16666666666666666@note_on channel=4 note=51 velocity=72 time=0@note_off channel=9 note=42 velocity=64 time=0.08333333333333333@note_on channel=9 note=35 velocity=96 time=0.0625@note_off channel=4 note=51 velocity=64 time=0.020833333333333332@note_on channel=4 note=51 velocity=72 time=0@note_off channel=11 note=61 velocity=64 time=0.041666666666666664@note_on channel=11 note=63 velocity=96 time=0@note_off channel=11 note=63 velocity=64 time=0.125@note_on channel=11 note=65 velocity=96 time=0@note_off channel=4 note=51 velocity=64 time=0@note_on channel=4 note=49 velocity=72 time=0@note_off channel=6 note=65 velocity=64 time=0@note_off channel=6 note=61 velocity=64 time=0@note_off channel=9 note=35 velocity=64 time=0@note_on channel=9 note=35 velocity=96 time=0@note_on channel=9 note=42 velocity=96 time=0@note_off channel=9 note=42 velocity=64 time=0.25@note_off channel=9 note=35 velocity=64 time=0@note_off channel=11 note=65 velocity=64 time=0.25@note_on channel=11 note=66 velocity=96 time=0@note_off channel=4 note=49 velocity=64 time=0@note_on channel=4 note=51 velocity=72 time=0@note_on channel=9 note=35 velocity=96 time=0@note_on channel=9 note=42 velocity=96 time=0@note_off channel=9 note=35 velocity=64 time=0.25@note_off channel=9 note=42 velocity=64 time=0@note_off channel=11 note=66 velocity=64 time=0.25@note_on channel=11 note=68 velocity=96 time=0@note_off channel=4 note=51 velocity=64 time=0@note_on channel=4 note=49 velocity=72 time=0@note_on channel=9 note=39 velocity=96 time=0@note_on channel=9 note=42 velocity=96 time=0@note_off channel=9 note=39 velocity=64 time=0.25@note_off channel=9 note=42 velocity=64 time=0@note_off channel=4 note=49 velocity=64 time=0.125@note_on channel=4 note=46 velocity=72 time=0@note_off channel=11 note=68 velocity=64 time=0.125@note_on channel=11 note=65 velocity=96 time=0@note_off channel=4 note=46 velocity=64 time=0@note_on channel=4 note=44 velocity=72 time=0@note_on channel=9 note=42 velocity=96 time=0@note_on channel=14 note=66 velocity=96 time=0@note_off channel=9 note=42 velocity=64 time=0.25@note_on channel=0 note=66 velocity=80 time=0.25@note_on channel=0 note=73 velocity=80 time=0@note_off channel=11 note=65 velocity=64 time=0@note_on channel=11 note=61 velocity=72 time=0@note_on channel=2 note=30 velocity=96 time=0@note_off channel=4 note=44 velocity=64 time=0@note_on channel=15 note=42 velocity=80 time=0@note_on channel=6 note=58 velocity=96 time=0@note_on channel=6 note=61 velocity=96 time=0@note_on channel=9 note=35 velocity=96 time=0@note_on channel=9 note=46 velocity=96 time=0@note_off channel=14 note=66 velocity=64 time=0@note_off channel=0 note=73 velocity=64 time=0.25@note_off channel=0 note=66 velocity=64 time=0@note_on channel=0 note=66 velocity=80 time=0.25@note_on channel=0 note=73 velocity=80 time=0@note_off channel=11 note=61 velocity=64 time=0@note_on channel=11 note=73 velocity=72 time=0@note_off channel=15 note=42 velocity=64 time=0@note_on channel=15 note=42 velocity=80 time=0@note_off channel=9 note=35 velocity=64 time=0@note_off channel=9 note=46 velocity=64 time=0@note_on channel=9 note=46 velocity=96 time=0@note_off channel=0 note=73 velocity=64 time=0.25@note_off channel=0 note=66 velocity=64 time=0@note_off channel=9 note=46 velocity=64 time=0@note_on channel=0 note=66 velocity=80 time=0.25@note_on channel=0 note=73 velocity=80 time=0@note_off channel=11 note=73 velocity=64 time=0@note_on channel=11 note=71 velocity=96 time=0@note_off channel=2 note=30 velocity=64 time=0@note_on channel=4 note=58 velocity=72 time=0@note_off channel=15 note=42 velocity=64 time=0@note_on channel=15 note=42 velocity=80 time=0@note_on channel=9 note=39 velocity=96 time=0@note_on channel=9 note=46 velocity=96 time=0@note_off channel=4 note=58 velocity=64 time=0.16666666666666666@note_on channel=4 note=58 velocity=72 time=0@note_off channel=0 note=73 velocity=64 time=0.08333333333333333@note_off channel=0 note=66 velocity=64 time=0@note_off channel=9 note=39 velocity=64 time=0@note_off channel=9 note=46 velocity=64 time=0@note_off channel=4 note=58 velocity=64 time=0.08333333333333333@note_on channel=4 note=58 velocity=72 time=0@note_off channel=11 note=71 velocity=64 time=0.041666666666666664@note_on channel=11 note=70 velocity=96 time=0@note_on channel=0 note=66 velocity=80 time=0.125@note_on channel=0 note=73 velocity=80 time=0@note_off channel=11 note=70 velocity=64 time=0@note_on channel=11 note=66 velocity=96 time=0@note_off channel=4 note=58 velocity=64 time=0@note_on channel=4 note=61 velocity=72 time=0@note_off channel=15 note=42 velocity=64 time=0@note_on channel=15 note=42 velocity=80 time=0@note_on channel=9 note=46 velocity=96 time=0@note_off channel=4 note=61 velocity=64 time=0.16666666666666666@note_on channel=4 note=61 velocity=72 time=0@note_off channel=0 note=73 velocity=64 time=0.08333333333333333@note_off channel=0 note=66 velocity=64 time=0@note_off channel=9 note=46 velocity=64 time=0@note_on channel=9 note=35 velocity=96 time=0.0625@note_off channel=4 note=61 velocity=64 time=0.020833333333333332@note_on channel=4 note=61 velocity=72 time=0@note_off channel=11 note=66 velocity=64 time=0.041666666666666664@note_on channel=11 note=63 velocity=96 time=0@note_on channel=0 note=61 velocity=80 time=0.125@note_on channel=0 note=65 velocity=80 time=0@note_off channel=11 note=63 velocity=64 time=0@note_on channel=11 note=61 velocity=96 time=0@note_on channel=2 note=37 velocity=96 time=0@note_off channel=4 note=61 velocity=64 time=0@note_off channel=15 note=42 velocity=64 time=0@note_on channel=15 note=49 velocity=80 time=0@note_off channel=6 note=61 velocity=64 time=0@note_off channel=6 note=58 velocity=64 time=0@note_on channel=6 note=53 velocity=96 time=0@note_on channel=6 note=56 velocity=96 time=0@note_off channel=9 note=35 velocity=64 time=0@note_on channel=9 note=35 velocity=96 time=0@note_on channel=9 note=46 velocity=96 time=0@note_off channel=0 note=65 velocity=64 time=0.25@note_off channel=0 note=61 velocity=64 time=0@note_off channel=9 note=35 velocity=64 time=0@note_off channel=9 note=46 velocity=64 time=0@note_on channel=0 note=61 velocity=80 time=0.25@note_on channel=0 note=65 velocity=80 time=0@note_off channel=11 note=61 velocity=64 time=0@note_on channel=11 note=65 velocity=96 time=0@note_off channel=15 note=49 velocity=64 time=0@note_on channel=15 note=49 velocity=80 time=0@note_on channel=9 note=35 velocity=96 time=0@note_on channel=9 note=46 velocity=96 time=0@note_off channel=0 note=65 velocity=64 time=0.25@note_off channel=0 note=61 velocity=64 time=0@note_off channel=9 note=35 velocity=64 time=0@note_off channel=9 note=46 velocity=64 time=0@note_on channel=0 note=61 velocity=80 time=0.25@note_on channel=0 note=65 velocity=80 time=0@note_off channel=11 note=65 velocity=64 time=0@note_on channel=11 note=66 velocity=96 time=0@note_off channel=2 note=37 velocity=64 time=0@note_on channel=4 note=63 velocity=96 time=0@note_off channel=15 note=49 velocity=64 time=0@note_on channel=15 note=49 velocity=80 time=0@note_on channel=9 note=39 velocity=96 time=0@note_on channel=9 note=46 velocity=96 time=0@note_off channel=4 note=63 velocity=64 time=0.16666666666666666@note_on channel=4 note=63 velocity=96 time=0@note_off channel=0 note=65 velocity=64 time=0.08333333333333333@note_off channel=0 note=61 velocity=64 time=0@note_off channel=9 note=39 velocity=64 time=0@note_off channel=9 note=46 velocity=64 time=0@note_off channel=4 note=63 velocity=64 time=0.08333333333333333@note_on channel=4 note=63 velocity=96 time=0@note_off channel=11 note=66 velocity=64 time=0.041666666666666664@note_on channel=11 note=68 velocity=96 time=0@note_on channel=0 note=65 velocity=80 time=0.125@note_on channel=0 note=61 velocity=80 time=0@note_off channel=11 note=68 velocity=64 time=0@note_on channel=11 note=66 velocity=96 time=0@note_off channel=4 note=63 velocity=64 time=0@note_on channel=4 note=66 velocity=96 time=0@note_off channel=15 note=49 velocity=64 time=0@note_on channel=15 note=49 velocity=80 time=0@note_on channel=9 note=35 velocity=96 time=0@note_on channel=14 note=66 velocity=96 time=0@note_off channel=9 note=35 velocity=64 time=0.16666666666666666@note_on channel=9 note=35 velocity=96 time=0@note_off channel=0 note=65 velocity=64 time=0.08333333333333333@note_off channel=0 note=61 velocity=64 time=0@note_off channel=9 note=35 velocity=64 time=0.08333333333333333@note_on channel=9 note=35 velocity=96 time=0@note_off channel=11 note=66 velocity=64 time=0.16666666666666666@note_on channel=2 note=27 velocity=96 time=0@note_off channel=4 note=66 velocity=64 time=0@note_off channel=15 note=49 velocity=64 time=0@note_off channel=6 note=53 velocity=64 time=0@note_off channel=6 note=56 velocity=64 time=0@note_on channel=15 note=46 velocity=72 time=0@note_on channel=15 note=51 velocity=72 time=0@note_off channel=9 note=35 velocity=64 time=0@note_on channel=9 note=35 velocity=96 time=0@note_on channel=9 note=42 velocity=96 time=0@note_off channel=14 note=66 velocity=64 time=0@note_on channel=13 note=75 velocity=72 time=0.5@note_off channel=15 note=51 velocity=64 time=0@note_off channel=15 note=46 velocity=64 time=0@note_on channel=15 note=46 velocity=72 time=0@note_on channel=15 note=51 velocity=72 time=0@note_off channel=9 note=42 velocity=64 time=0@note_off channel=9 note=35 velocity=64 time=0@note_on channel=9 note=42 velocity=96 time=0@note_off channel=9 note=42 velocity=64 time=0.25@note_off channel=13 note=75 velocity=64 time=0.125@note_on channel=13 note=73 velocity=72 time=0@note_off channel=2 note=27 velocity=64 time=0.125@note_on channel=4 note=51 velocity=72 time=0@note_off channel=13 note=73 velocity=64 time=0@note_on channel=13 note=75 velocity=72 time=0@note_off channel=15 note=51 velocity=64 time=0@note_off channel=15 note=46 velocity=64 time=0@note_on channel=15 note=46 velocity=72 time=0@note_on channel=15 note=51 velocity=72 time=0@note_on channel=9 note=39 velocity=96 time=0@note_on channel=9 note=42 velocity=96 time=0@note_off channel=4 note=51 velocity=64 time=0.16666666666666666@note_on channel=4 note=51 velocity=72 time=0@note_off channel=9 note=39 velocity=64 time=0.08333333333333333@note_off channel=9 note=42 velocity=64 time=0@note_off channel=4 note=51 velocity=64 time=0.08333333333333333@note_on channel=4 note=51 velocity=72 time=0@note_off channel=13 note=75 velocity=64 time=0.041666666666666664@note_on channel=13 note=73 velocity=72 time=0@note_off channel=4 note=51 velocity=64 time=0.125@note_on channel=4 note=54 velocity=72 time=0@note_off channel=13 note=73 velocity=64 time=0@note_on channel=13 note=70 velocity=72 time=0@note_off channel=15 note=51 velocity=64 time=0@note_off channel=15 note=46 velocity=64 time=0@note_on channel=15 note=46 velocity=72 time=0@note_on channel=15 note=51 velocity=72 time=0@note_on channel=9 note=42 velocity=96 time=0@note_off channel=4 note=54 velocity=64 time=0.16666666666666666@note_on channel=4 note=54 velocity=72 time=0@note_off channel=9 note=42 velocity=64 time=0.08333333333333333@note_on channel=9 note=35 velocity=96 time=0.0625@note_off channel=4 note=54 velocity=64 time=0.020833333333333332@note_on channel=4 note=54 velocity=72 time=0@note_off channel=13 note=70 velocity=64 time=0.041666666666666664@note_on channel=13 note=73 velocity=72 time=0@note_off channel=4 note=54 velocity=64 time=0.125@note_on channel=4 note=56 velocity=72 time=0@note_off channel=13 note=73 velocity=64 time=0@note_on channel=13 note=75 velocity=72 time=0@note_off channel=15 note=51 velocity=64 time=0@note_off channel=15 note=46 velocity=64 time=0@note_on channel=15 note=46 velocity=72 time=0@note_on channel=15 note=51 velocity=72 time=0@note_off channel=9 note=35 velocity=64 time=0@note_on channel=9 note=35 velocity=96 time=0@note_on channel=9 note=42 velocity=96 time=0@note_off channel=9 note=42 velocity=64 time=0.25@note_off channel=9 note=35 velocity=64 time=0@note_off channel=13 note=75 velocity=64 time=0.125@note_on channel=13 note=73 velocity=72 time=0@note_off channel=4 note=56 velocity=64 time=0.125@note_on channel=4 note=58 velocity=72 time=0@note_off channel=13 note=73 velocity=64 time=0@note_on channel=13 note=75 velocity=72 time=0@note_off channel=15 note=51 velocity=64 time=0@note_off channel=15 note=46 velocity=64 time=0@note_on channel=15 note=46 velocity=72 time=0@note_on channel=15 note=51 velocity=72 time=0@note_on channel=9 note=35 velocity=96 time=0@note_on channel=9 note=42 velocity=96 time=0@note_off channel=9 note=35 velocity=64 time=0.25@note_off channel=9 note=42 velocity=64 time=0@note_off channel=13 note=75 velocity=64 time=0.125@note_on channel=13 note=73 velocity=72 time=0@note_off channel=4 note=58 velocity=64 time=0.125@note_on channel=4 note=56 velocity=72 time=0@note_off channel=13 note=73 velocity=64 time=0@note_on channel=13 note=75 velocity=72 time=0@note_off channel=15 note=51 velocity=64 time=0@note_off channel=15 note=46 velocity=64 time=0@note_on channel=15 note=46 velocity=72 time=0@note_on channel=15 note=51 velocity=72 time=0@note_on channel=9 note=39 velocity=96 time=0@note_on channel=9 note=42 velocity=96 time=0@note_off channel=9 note=39 velocity=64 time=0.25@note_off channel=9 note=42 velocity=64 time=0@note_off channel=4 note=56 velocity=64 time=0.125@note_on channel=4 note=54 velocity=72 time=0@note_off channel=13 note=75 velocity=64 time=0@note_on channel=13 note=73 velocity=72 time=0@note_off channel=4 note=54 velocity=64 time=0.125@note_on channel=4 note=51 velocity=72 time=0@note_off channel=13 note=73 velocity=64 time=0@note_on channel=13 note=70 velocity=72 time=0@note_off channel=15 note=51 velocity=64 time=0@note_off channel=15 note=46 velocity=64 time=0@note_on channel=15 note=46 velocity=72 time=0@note_on channel=15 note=51 velocity=72 time=0@note_on channel=9 note=42 velocity=96 time=0@note_off channel=9 note=42 velocity=64 time=0.16666666666666666@note_on channel=9 note=42 velocity=96 time=0@note_off channel=13 note=70 velocity=64 time=0.08333333333333333@note_on channel=13 note=63 velocity=72 time=0@note_off channel=15 note=51 velocity=64 time=0@note_off channel=15 note=46 velocity=64 time=0@note_on channel=15 note=39 velocity=72 time=0@note_on channel=15 note=46 velocity=72 time=0@note_off channel=9 note=42 velocity=64 time=0.08333333333333333@note_on channel=9 note=42 velocity=96 time=0@note_off channel=4 note=51 velocity=64 time=0.041666666666666664@note_on channel=4 note=49 velocity=72 time=0@note_on channel=2 note=27 velocity=96 time=0.125@note_off channel=4 note=49 velocity=64 time=0@note_off channel=13 note=63 velocity=64 time=0@note_off channel=15 note=46 velocity=64 time=0@note_off channel=15 note=39 velocity=64 time=0@note_off channel=9 note=42 velocity=64 time=0@note_on channel=9 note=35 velocity=96 time=0@note_on channel=9 note=42 velocity=96 time=0@note_on channel=13 note=75 velocity=72 time=0.5@note_on channel=15 note=46 velocity=72 time=0@note_on channel=15 note=51 velocity=72 time=0@note_off channel=9 note=42 velocity=64 time=0@note_off channel=9 note=35 velocity=64 time=0@note_on channel=9 note=42 velocity=96 time=0@note_off channel=9 note=42 velocity=64 time=0.25@note_off channel=13 note=75 velocity=64 time=0.125@note_on channel=13 note=73 velocity=72 time=0@note_off channel=2 note=27 velocity=64 time=0.125@note_on channel=4 note=51 velocity=72 time=0@note_off channel=13 note=73 velocity=64 time=0@note_on channel=13 note=75 velocity=72 time=0@note_off channel=15 note=51 velocity=64 time=0@note_off channel=15 note=46 velocity=64 time=0@note_on channel=15 note=46 velocity=72 time=0@note_on channel=15 note=51 velocity=72 time=0@note_on channel=9 note=39 velocity=96 time=0@note_on channel=9 note=42 velocity=96 time=0@note_off channel=4 note=51 velocity=64 time=0.16666666666666666@note_on channel=4 note=51 velocity=72 time=0@note_off channel=9 note=39 velocity=64 time=0.08333333333333333@note_off channel=9 note=42 velocity=64 time=0@note_off channel=4 note=51 velocity=64 time=0.08333333333333333@note_on channel=4 note=51 velocity=72 time=0@note_off channel=13 note=75 velocity=64 time=0.041666666666666664@note_on channel=13 note=73 velocity=72 time=0@note_off channel=4 note=51 velocity=64 time=0.125@note_on channel=4 note=54 velocity=72 time=0@note_off channel=13 note=73 velocity=64 time=0@note_on channel=13 note=70 velocity=72 time=0@note_off channel=15 note=51 velocity=64 time=0@note_off channel=15 note=46 velocity=64 time=0@note_on channel=15 note=46 velocity=72 time=0@note_on channel=15 note=51 velocity=72 time=0@note_on channel=9 note=42 velocity=96 time=0@note_off channel=4 note=54 velocity=64 time=0.16666666666666666@note_on channel=4 note=54 velocity=72 time=0@note_off channel=9 note=42 velocity=64 time=0.08333333333333333@note_on channel=9 note=35 velocity=96 time=0.0625@note_off channel=4 note=54 velocity=64 time=0.020833333333333332@note_on channel=4 note=54 velocity=72 time=0@note_off channel=13 note=70 velocity=64 time=0.041666666666666664@note_on channel=13 note=73 velocity=72 time=0@note_off channel=4 note=54 velocity=64 time=0.125@note_on channel=4 note=56 velocity=72 time=0@note_off channel=13 note=73 velocity=64 time=0@note_on channel=13 note=75 velocity=72 time=0@note_off channel=15 note=51 velocity=64 time=0@note_off channel=15 note=46 velocity=64 time=0@note_on channel=15 note=46 velocity=72 time=0@note_on channel=15 note=51 velocity=72 time=0@note_off channel=9 note=35 velocity=64 time=0@note_on channel=9 note=35 velocity=96 time=0@note_on channel=9 note=42 velocity=96 time=0@note_off channel=9 note=42 velocity=64 time=0.25@note_off channel=9 note=35 velocity=64 time=0@note_off channel=13 note=75 velocity=64 time=0.125@note_on channel=13 note=73 velocity=72 time=0@note_off channel=4 note=56 velocity=64 time=0.125@note_on channel=4 note=58 velocity=72 time=0@note_off channel=13 note=73 velocity=64 time=0@note_on channel=13 note=75 velocity=72 time=0@note_off channel=15 note=51 velocity=64 time=0@note_off channel=15 note=46 velocity=64 time=0@note_on channel=15 note=46 velocity=72 time=0@note_on channel=15 note=51 velocity=72 time=0@note_on channel=9 note=35 velocity=96 time=0@note_on channel=9 note=42 velocity=96 time=0@note_off channel=9 note=35 velocity=64 time=0.25@note_off channel=9 note=42 velocity=64 time=0@note_off channel=13 note=75 velocity=64 time=0.125@note_on channel=13 note=73 velocity=72 time=0@note_off channel=4 note=58 velocity=64 time=0.125@note_on channel=4 note=56 velocity=72 time=0@note_off channel=13 note=73 velocity=64 time=0@note_on channel=13 note=75 velocity=72 time=0@note_off channel=15 note=51 velocity=64 time=0@note_off channel=15 note=46 velocity=64 time=0@note_on channel=15 note=46 velocity=72 time=0@note_on channel=15 note=51 velocity=72 time=0@note_on channel=9 note=39 velocity=96 time=0@note_on channel=9 note=42 velocity=96 time=0@note_off channel=9 note=39 velocity=64 time=0.25@note_off channel=9 note=42 velocity=64 time=0@note_off channel=4 note=56 velocity=64 time=0.125@note_on channel=4 note=54 velocity=72 time=0@note_off channel=13 note=75 velocity=64 time=0@note_on channel=13 note=73 velocity=72 time=0@note_off channel=4 note=54 velocity=64 time=0.125@note_on channel=4 note=51 velocity=72 time=0@note_off channel=13 note=73 velocity=64 time=0@note_on channel=13 note=70 velocity=72 time=0@note_off channel=15 note=51 velocity=64 time=0@note_off channel=15 note=46 velocity=64 time=0@note_on channel=15 note=46 velocity=72 time=0@note_on channel=15 note=51 velocity=72 time=0@note_on channel=9 note=42 velocity=96 time=0@note_off channel=13 note=70 velocity=64 time=0.25@note_on channel=13 note=68 velocity=72 time=0@note_off channel=15 note=51 velocity=64 time=0@note_off channel=15 note=46 velocity=64 time=0@note_on channel=15 note=44 velocity=72 time=0@note_on channel=15 note=49 velocity=72 time=0@note_off channel=9 note=42 velocity=64 time=0@note_on channel=9 note=42 velocity=96 time=0@note_on channel=9 note=35 velocity=96 time=0.0625@note_on channel=2 note=37 velocity=96 time=0.1875@note_off channel=4 note=51 velocity=64 time=0@note_off channel=13 note=68 velocity=64 time=0@note_off channel=15 note=49 velocity=64 time=0@note_off channel=15 note=44 velocity=64 time=0@note_off channel=9 note=42 velocity=64 time=0@note_off channel=9 note=35 velocity=64 time=0@note_on channel=9 note=35 velocity=96 time=0@note_on channel=9 note=42 velocity=96 time=0@note_on channel=13 note=75 velocity=72 time=0.5@note_on channel=15 note=44 velocity=72 time=0@note_on channel=15 note=49 velocity=72 time=0@note_on channel=15 note=56 velocity=72 time=0@note_off channel=9 note=42 velocity=64 time=0@note_off channel=9 note=35 velocity=64 time=0@note_on channel=9 note=42 velocity=96 time=0@note_off channel=9 note=42 velocity=64 time=0.25@note_off channel=13 note=75 velocity=64 time=0.125@note_on channel=13 note=73 velocity=72 time=0@note_off channel=2 note=37 velocity=64 time=0.125@note_on channel=4 note=49 velocity=72 time=0@note_off channel=13 note=73 velocity=64 time=0@note_on channel=13 note=75 velocity=72 time=0@note_off channel=15 note=56 velocity=64 time=0@note_off channel=15 note=49 velocity=64 time=0@note_off channel=15 note=44 velocity=64 time=0@note_on channel=15 note=44 velocity=72 time=0@note_on channel=15 note=49 velocity=72 time=0@note_on channel=15 note=56 velocity=72 time=0@note_on channel=9 note=39 velocity=96 time=0@note_on channel=9 note=42 velocity=96 time=0@note_off channel=4 note=49 velocity=64 time=0.16666666666666666@note_on channel=4 note=49 velocity=72 time=0@note_off channel=9 note=39 velocity=64 time=0.08333333333333333@note_off channel=9 note=42 velocity=64 time=0@note_off channel=4 note=49 velocity=64 time=0.08333333333333333@note_on channel=4 note=49 velocity=72 time=0@note_off channel=13 note=75 velocity=64 time=0.041666666666666664@note_on channel=13 note=73 velocity=72 time=0@note_off channel=4 note=49 velocity=64 time=0.125@note_on channel=4 note=51 velocity=72 time=0@note_off channel=13 note=73 velocity=64 time=0@note_on channel=13 note=70 velocity=72 time=0@note_off channel=15 note=56 velocity=64 time=0@note_off channel=15 note=49 velocity=64 time=0@note_off channel=15 note=44 velocity=64 time=0@note_on channel=15 note=44 velocity=72 time=0@note_on channel=15 note=49 velocity=72 time=0@note_on channel=15 note=56 velocity=72 time=0@note_on channel=9 note=42 velocity=96 time=0@note_off channel=4 note=51 velocity=64 time=0.16666666666666666@note_on channel=4 note=51 velocity=72 time=0@note_off channel=9 note=42 velocity=64 time=0.08333333333333333@note_on channel=9 note=35 velocity=96 time=0.0625@note_off channel=4 note=51 velocity=64 time=0.020833333333333332@note_on channel=4 note=51 velocity=72 time=0@note_off channel=13 note=70 velocity=64 time=0.041666666666666664@note_on channel=13 note=73 velocity=72 time=0@note_off channel=4 note=51 velocity=64 time=0.125@note_on channel=4 note=49 velocity=72 time=0@note_off channel=13 note=73 velocity=64 time=0@note_on channel=13 note=75 velocity=72 time=0@note_off channel=15 note=56 velocity=64 time=0@note_off channel=15 note=49 velocity=64 time=0@note_off channel=15 note=44 velocity=64 time=0@note_on channel=15 note=44 velocity=72 time=0@note_on channel=15 note=49 velocity=72 time=0@note_on channel=15 note=56 velocity=72 time=0@note_off channel=9 note=35 velocity=64 time=0@note_on channel=9 note=35 velocity=96 time=0@note_on channel=9 note=42 velocity=96 time=0@note_off channel=9 note=42 velocity=64 time=0.25@note_off channel=9 note=35 velocity=64 time=0@note_off channel=13 note=75 velocity=64 time=0.125@note_on channel=13 note=73 velocity=72 time=0@note_off channel=4 note=49 velocity=64 time=0.125@note_on channel=4 note=51 velocity=72 time=0@note_off channel=13 note=73 velocity=64 time=0@note_on channel=13 note=75 velocity=72 time=0@note_off channel=15 note=56 velocity=64 time=0@note_off channel=15 note=49 velocity=64 time=0@note_off channel=15 note=44 velocity=64 time=0@note_on channel=15 note=44 velocity=72 time=0@note_on channel=15 note=49 velocity=72 time=0@note_on channel=15 note=56 velocity=72 time=0@note_on channel=9 note=35 velocity=96 time=0@note_on channel=9 note=42 velocity=96 time=0@note_off channel=9 note=35 velocity=64 time=0.25@note_off channel=9 note=42 velocity=64 time=0@note_off channel=13 note=75 velocity=64 time=0.125@note_on channel=13 note=73 velocity=72 time=0@note_off channel=4 note=51 velocity=64 time=0.125@note_on channel=4 note=49 velocity=72 time=0@note_off channel=13 note=73 velocity=64 time=0@note_on channel=13 note=75 velocity=72 time=0@note_off channel=15 note=56 velocity=64 time=0@note_off channel=15 note=49 velocity=64 time=0@note_off channel=15 note=44 velocity=64 time=0@note_on channel=15 note=44 velocity=72 time=0@note_on channel=15 note=49 velocity=72 time=0@note_on channel=15 note=56 velocity=72 time=0@note_on channel=9 note=39 velocity=96 time=0@note_on channel=9 note=42 velocity=96 time=0@note_off channel=9 note=39 velocity=64 time=0.25@note_off channel=9 note=42 velocity=64 time=0@note_off channel=4 note=49 velocity=64 time=0.125@note_on channel=4 note=46 velocity=72 time=0@note_off channel=13 note=75 velocity=64 time=0@note_on channel=13 note=73 velocity=72 time=0@note_off channel=4 note=46 velocity=64 time=0.125@note_on channel=4 note=44 velocity=72 time=0@note_off channel=13 note=73 velocity=64 time=0@note_on channel=13 note=70 velocity=72 time=0@note_off channel=15 note=56 velocity=64 time=0@note_off channel=15 note=49 velocity=64 time=0@note_off channel=15 note=44 velocity=64 time=0@note_on channel=15 note=44 velocity=72 time=0@note_on channel=15 note=49 velocity=72 time=0@note_on channel=15 note=56 velocity=72 time=0@note_on channel=9 note=42 velocity=96 time=0@note_off channel=9 note=42 velocity=64 time=0.16666666666666666@note_on channel=9 note=42 velocity=96 time=0@note_off channel=13 note=70 velocity=64 time=0.08333333333333333@note_on channel=13 note=63 velocity=72 time=0@note_off channel=15 note=56 velocity=64 time=0@note_off channel=15 note=49 velocity=64 time=0@note_off channel=15 note=44 velocity=64 time=0@note_on channel=15 note=42 velocity=72 time=0@note_on channel=15 note=49 velocity=72 time=0@note_off channel=9 note=42 velocity=64 time=0.08333333333333333@note_on channel=9 note=42 velocity=96 time=0@note_on channel=2 note=30 velocity=96 time=0.16666666666666666@note_off channel=4 note=44 velocity=64 time=0@note_off channel=13 note=63 velocity=64 time=0@note_off channel=15 note=49 velocity=64 time=0@note_off channel=15 note=42 velocity=64 time=0@note_off channel=9 note=42 velocity=64 time=0@note_on channel=9 note=35 velocity=96 time=0@note_on channel=9 note=42 velocity=96 time=0@note_on channel=13 note=75 velocity=72 time=0.5@note_on channel=15 note=42 velocity=72 time=0@note_on channel=15 note=49 velocity=72 time=0@note_on channel=15 note=54 velocity=72 time=0@note_off channel=9 note=42 velocity=64 time=0@note_off channel=9 note=35 velocity=64 time=0@note_on channel=9 note=42 velocity=96 time=0@note_off channel=9 note=42 velocity=64 time=0.25@note_off channel=13 note=75 velocity=64 time=0.125@note_on channel=13 note=73 velocity=72 time=0@note_off channel=2 note=30 velocity=64 time=0.125@note_on channel=4 note=58 velocity=72 time=0@note_off channel=13 note=73 velocity=64 time=0@note_on channel=13 note=75 velocity=72 time=0@note_off channel=15 note=54 velocity=64 time=0@note_off channel=15 note=49 velocity=64 time=0@note_off channel=15 note=42 velocity=64 time=0@note_on channel=15 note=42 velocity=72 time=0@note_on channel=15 note=49 velocity=72 time=0@note_on channel=15 note=54 velocity=72 time=0@note_on channel=9 note=39 velocity=96 time=0@note_on channel=9 note=42 velocity=96 time=0@note_off channel=4 note=58 velocity=64 time=0.16666666666666666@note_on channel=4 note=58 velocity=72 time=0@note_off channel=9 note=39 velocity=64 time=0.08333333333333333@note_off channel=9 note=42 velocity=64 time=0@note_off channel=4 note=58 velocity=64 time=0.08333333333333333@note_on channel=4 note=58 velocity=72 time=0@note_off channel=13 note=75 velocity=64 time=0.041666666666666664@note_on channel=13 note=73 velocity=72 time=0@note_off channel=4 note=58 velocity=64 time=0.125@note_on channel=4 note=61 velocity=72 time=0@note_off channel=13 note=73 velocity=64 time=0@note_on channel=13 note=70 velocity=72 time=0@note_off channel=15 note=54 velocity=64 time=0@note_off channel=15 note=49 velocity=64 time=0@note_off channel=15 note=42 velocity=64 time=0@note_on channel=15 note=42 velocity=72 time=0@note_on channel=15 note=49 velocity=72 time=0@note_on channel=15 note=54 velocity=72 time=0@note_on channel=9 note=42 velocity=96 time=0@note_off channel=4 note=61 velocity=64 time=0.16666666666666666@note_on channel=4 note=61 velocity=72 time=0@note_off channel=13 note=70 velocity=64 time=0.08333333333333333@note_on channel=13 note=68 velocity=72 time=0@note_off channel=15 note=54 velocity=64 time=0@note_off channel=15 note=49 velocity=64 time=0@note_off channel=15 note=42 velocity=64 time=0@note_on channel=15 note=44 velocity=72 time=0@note_on channel=15 note=49 velocity=72 time=0@note_on channel=15 note=56 velocity=72 time=0@note_off channel=9 note=42 velocity=64 time=0@note_on channel=9 note=35 velocity=96 time=0.0625@note_off channel=4 note=61 velocity=64 time=0.020833333333333332@note_on channel=4 note=61 velocity=72 time=0@note_on channel=2 note=37 velocity=96 time=0.16666666666666666@note_off channel=4 note=61 velocity=64 time=0@note_off channel=13 note=68 velocity=64 time=0@note_off channel=15 note=56 velocity=64 time=0@note_off channel=15 note=49 velocity=64 time=0@note_off channel=15 note=44 velocity=64 time=0@note_on channel=15 note=44 velocity=72 time=0@note_on channel=15 note=49 velocity=72 time=0@note_on channel=15 note=56 velocity=72 time=0@note_off channel=9 note=35 velocity=64 time=0@note_on channel=9 note=35 velocity=96 time=0@note_on channel=9 note=42 velocity=96 time=0@note_off channel=9 note=42 velocity=64 time=0.25@note_off channel=9 note=35 velocity=64 time=0@note_on channel=13 note=75 velocity=72 time=0.25@note_off channel=15 note=56 velocity=64 time=0@note_off channel=15 note=49 velocity=64 time=0@note_off channel=15 note=44 velocity=64 time=0@note_on channel=15 note=44 velocity=72 time=0@note_on channel=15 note=49 velocity=72 time=0@note_on channel=15 note=56 velocity=72 time=0@note_on channel=9 note=35 velocity=96 time=0@note_on channel=9 note=42 velocity=96 time=0@note_off channel=9 note=35 velocity=64 time=0.25@note_off channel=9 note=42 velocity=64 time=0@note_off channel=13 note=75 velocity=64 time=0.125@note_on channel=13 note=73 velocity=72 time=0@note_off channel=2 note=37 velocity=64 time=0.125@note_on channel=4 note=63 velocity=96 time=0@note_off channel=13 note=73 velocity=64 time=0@note_on channel=13 note=75 velocity=72 time=0@note_off channel=15 note=56 velocity=64 time=0@note_off channel=15 note=49 velocity=64 time=0@note_off channel=15 note=44 velocity=64 time=0@note_on channel=15 note=44 velocity=72 time=0@note_on channel=15 note=49 velocity=72 time=0@note_on channel=15 note=56 velocity=72 time=0@note_on channel=9 note=39 velocity=96 time=0@note_on channel=9 note=42 velocity=96 time=0@note_off channel=4 note=63 velocity=64 time=0.16666666666666666@note_on channel=4 note=63 velocity=96 time=0@note_off channel=9 note=39 velocity=64 time=0.08333333333333333@note_off channel=9 note=42 velocity=64 time=0@note_off channel=4 note=63 velocity=64 time=0.08333333333333333@note_on channel=4 note=63 velocity=96 time=0@note_off channel=13 note=75 velocity=64 time=0.041666666666666664@note_on channel=13 note=73 velocity=72 time=0@note_off channel=4 note=63 velocity=64 time=0.125@note_on channel=4 note=66 velocity=96 time=0@note_off channel=13 note=73 velocity=64 time=0@note_on channel=13 note=70 velocity=72 time=0@note_off channel=15 note=56 velocity=64 time=0@note_off channel=15 note=49 velocity=64 time=0@note_off channel=15 note=44 velocity=64 time=0@note_on channel=15 note=44 velocity=72 time=0@note_on channel=15 note=49 velocity=72 time=0@note_on channel=15 note=56 velocity=72 time=0@note_on channel=9 note=42 velocity=72 time=0@note_off channel=9 note=42 velocity=64 time=0.16666666666666666@note_on channel=9 note=42 velocity=72 time=0@note_off channel=13 note=70 velocity=64 time=0.08333333333333333@note_on channel=13 note=63 velocity=72 time=0@note_off channel=9 note=42 velocity=64 time=0.08333333333333333@note_on channel=9 note=42 velocity=72 time=0@note_on channel=2 note=27 velocity=96 time=0.16666666666666666@note_off channel=4 note=66 velocity=64 time=0@note_off channel=13 note=63 velocity=64 time=0@note_off channel=15 note=56 velocity=64 time=0@note_off channel=15 note=49 velocity=64 time=0@note_off channel=15 note=44 velocity=64 time=0@note_on channel=15 note=46 velocity=72 time=0@note_on channel=15 note=51 velocity=72 time=0@note_off channel=9 note=42 velocity=64 time=0@note_on channel=9 note=35 velocity=96 time=0@note_on channel=9 note=42 velocity=96 time=0@note_on channel=13 note=75 velocity=72 time=0.5@note_off channel=15 note=51 velocity=64 time=0@note_off channel=15 note=46 velocity=64 time=0@note_on channel=15 note=51 velocity=72 time=0@note_on channel=15 note=46 velocity=72 time=0@note_off channel=9 note=42 velocity=64 time=0@note_off channel=9 note=35 velocity=64 time=0@note_on channel=9 note=42 velocity=96 time=0@note_on channel=14 note=63 velocity=72 time=0@note_off channel=9 note=42 velocity=64 time=0.25@note_off channel=13 note=75 velocity=64 time=0.125@note_on channel=13 note=73 velocity=72 time=0@note_off channel=14 note=63 velocity=64 time=0@note_on channel=14 note=61 velocity=72 time=0@note_off channel=2 note=27 velocity=64 time=0.125@note_on channel=4 note=51 velocity=72 time=0@note_off channel=13 note=73 velocity=64 time=0@note_on channel=13 note=75 velocity=72 time=0@note_off channel=15 note=46 velocity=64 time=0@note_off channel=15 note=51 velocity=64 time=0@note_on channel=15 note=51 velocity=72 time=0@note_on channel=15 note=46 velocity=72 time=0@note_on channel=9 note=39 velocity=96 time=0@note_on channel=9 note=42 velocity=96 time=0@note_off channel=14 note=61 velocity=64 time=0@note_on channel=14 note=63 velocity=72 time=0@note_off channel=4 note=51 velocity=64 time=0.16666666666666666@note_on channel=4 note=51 velocity=72 time=0@note_off channel=9 note=39 velocity=64 time=0.08333333333333333@note_off channel=9 note=42 velocity=64 time=0@note_off channel=4 note=51 velocity=64 time=0.08333333333333333@note_on channel=4 note=51 velocity=72 time=0@note_off channel=13 note=75 velocity=64 time=0.041666666666666664@note_on channel=13 note=73 velocity=72 time=0@note_off channel=14 note=63 velocity=64 time=0@note_on channel=14 note=61 velocity=72 time=0@note_off channel=4 note=51 velocity=64 time=0.125@note_on channel=4 note=54 velocity=72 time=0@note_off channel=13 note=73 velocity=64 time=0@note_on channel=13 note=70 velocity=72 time=0@note_off channel=15 note=46 velocity=64 time=0@note_off channel=15 note=51 velocity=64 time=0@note_on channel=15 note=51 velocity=72 time=0@note_on channel=15 note=46 velocity=72 time=0@note_on channel=9 note=42 velocity=96 time=0@note_off channel=14 note=61 velocity=64 time=0@note_on channel=14 note=58 velocity=72 time=0@note_off channel=4 note=54 velocity=64 time=0.16666666666666666@note_on channel=4 note=54 velocity=72 time=0@note_off channel=9 note=42 velocity=64 time=0.08333333333333333@note_on channel=9 note=35 velocity=96 time=0.0625@note_off channel=4 note=54 velocity=64 time=0.020833333333333332@note_on channel=4 note=54 velocity=72 time=0@note_off channel=13 note=70 velocity=64 time=0.041666666666666664@note_on channel=13 note=73 velocity=72 time=0@note_off channel=4 note=54 velocity=64 time=0.125@note_on channel=4 note=56 velocity=72 time=0@note_off channel=13 note=73 velocity=64 time=0@note_on channel=13 note=75 velocity=72 time=0@note_off channel=15 note=46 velocity=64 time=0@note_off channel=15 note=51 velocity=64 time=0@note_on channel=15 note=46 velocity=72 time=0@note_on channel=15 note=51 velocity=72 time=0@note_off channel=9 note=35 velocity=64 time=0@note_on channel=9 note=35 velocity=96 time=0@note_on channel=9 note=42 velocity=96 time=0@note_off channel=14 note=58 velocity=64 time=0@note_off channel=9 note=42 velocity=64 time=0.25@note_off channel=9 note=35 velocity=64 time=0@note_off channel=13 note=75 velocity=64 time=0.125@note_on channel=13 note=73 velocity=72 time=0@note_off channel=4 note=56 velocity=64 time=0.125@note_on channel=4 note=58 velocity=72 time=0@note_off channel=13 note=73 velocity=64 time=0@note_on channel=13 note=75 velocity=72 time=0@note_off channel=15 note=51 velocity=64 time=0@note_off channel=15 note=46 velocity=64 time=0@note_on channel=15 note=51 velocity=72 time=0@note_on channel=15 note=46 velocity=72 time=0@note_on channel=9 note=42 velocity=96 time=0@note_on channel=9 note=35 velocity=96 time=0@note_on channel=14 note=63 velocity=72 time=0@note_off channel=9 note=35 velocity=64 time=0.25@note_off channel=9 note=42 velocity=64 time=0@note_off channel=13 note=75 velocity=64 time=0.125@note_on channel=13 note=73 velocity=72 time=0@note_off channel=14 note=63 velocity=64 time=0@note_on channel=14 note=61 velocity=72 time=0@note_off channel=4 note=58 velocity=64 time=0.125@note_on channel=4 note=56 velocity=72 time=0@note_off channel=13 note=73 velocity=64 time=0@note_on channel=13 note=75 velocity=72 time=0@note_off channel=15 note=51 velocity=64 time=0@note_off channel=15 note=46 velocity=64 time=0@note_on channel=15 note=51 velocity=72 time=0@note_on channel=15 note=46 velocity=72 time=0@note_on channel=9 note=39 velocity=96 time=0@note_on channel=9 note=42 velocity=96 time=0@note_off channel=14 note=61 velocity=64 time=0@note_on channel=14 note=63 velocity=72 time=0@note_off channel=9 note=39 velocity=64 time=0.25@note_off channel=9 note=42 velocity=64 time=0@note_off channel=4 note=56 velocity=64 time=0.125@note_on channel=4 note=54 velocity=72 time=0@note_off channel=13 note=75 velocity=64 time=0@note_on channel=13 note=73 velocity=72 time=0@note_off channel=14 note=63 velocity=64 time=0@note_on channel=14 note=61 velocity=72 time=0@note_off channel=4 note=54 velocity=64 time=0.125@note_on channel=4 note=51 velocity=72 time=0@note_off channel=13 note=73 velocity=64 time=0@note_on channel=13 note=70 velocity=72 time=0@note_off channel=15 note=46 velocity=64 time=0@note_off channel=15 note=51 velocity=64 time=0@note_on channel=15 note=51 velocity=72 time=0@note_on channel=15 note=46 velocity=72 time=0@note_on channel=9 note=42 velocity=96 time=0@note_off channel=14 note=61 velocity=64 time=0@note_on channel=14 note=58 velocity=72 time=0@note_off channel=9 note=42 velocity=64 time=0.16666666666666666@note_on channel=9 note=42 velocity=96 time=0@note_off channel=13 note=70 velocity=64 time=0.08333333333333333@note_on channel=13 note=63 velocity=72 time=0@note_off channel=15 note=46 velocity=64 time=0@note_off channel=15 note=51 velocity=64 time=0@note_on channel=15 note=46 velocity=72 time=0@note_on channel=15 note=39 velocity=72 time=0@note_off channel=14 note=58 velocity=64 time=0@note_on channel=14 note=61 velocity=72 time=0@note_off channel=9 note=42 velocity=64 time=0.08333333333333333@note_on channel=9 note=42 velocity=96 time=0@note_off channel=4 note=51 velocity=64 time=0.041666666666666664@note_on channel=4 note=49 velocity=72 time=0@note_on channel=2 note=27 velocity=96 time=0.125@note_off channel=4 note=49 velocity=64 time=0@note_off channel=13 note=63 velocity=64 time=0@note_off channel=15 note=39 velocity=64 time=0@note_off channel=15 note=46 velocity=64 time=0@note_off channel=9 note=42 velocity=64 time=0@note_on channel=9 note=35 velocity=96 time=0@note_on channel=9 note=42 velocity=96 time=0@note_off channel=14 note=61 velocity=64 time=0@note_on channel=13 note=75 velocity=72 time=0.5@note_on channel=15 note=46 velocity=72 time=0@note_on channel=15 note=51 velocity=72 time=0@note_off channel=9 note=42 velocity=64 time=0@note_off channel=9 note=35 velocity=64 time=0@note_on channel=9 note=42 velocity=96 time=0@note_off channel=9 note=42 velocity=64 time=0.25@note_off channel=13 note=75 velocity=64 time=0.125@note_on channel=13 note=73 velocity=72 time=0@note_off channel=2 note=27 velocity=64 time=0.125@note_on channel=4 note=51 velocity=72 time=0@note_off channel=13 note=73 velocity=64 time=0@note_on channel=13 note=75 velocity=72 time=0@note_off channel=15 note=51 velocity=64 time=0@note_off channel=15 note=46 velocity=64 time=0@note_on channel=15 note=46 velocity=72 time=0@note_on channel=15 note=51 velocity=72 time=0@note_on channel=9 note=39 velocity=96 time=0@note_on channel=9 note=42 velocity=96 time=0@note_off channel=4 note=51 velocity=64 time=0.16666666666666666@note_on channel=4 note=51 velocity=72 time=0@note_off channel=9 note=39 velocity=64 time=0.08333333333333333@note_off channel=9 note=42 velocity=64 time=0@note_off channel=4 note=51 velocity=64 time=0.08333333333333333@note_on channel=4 note=51 velocity=72 time=0@note_off channel=13 note=75 velocity=64 time=0.041666666666666664@note_on channel=13 note=73 velocity=72 time=0@note_off channel=4 note=51 velocity=64 time=0.125@note_on channel=4 note=54 velocity=72 time=0@note_off channel=13 note=73 velocity=64 time=0@note_on channel=13 note=70 velocity=72 time=0@note_off channel=15 note=51 velocity=64 time=0@note_off channel=15 note=46 velocity=64 time=0@note_on channel=15 note=46 velocity=72 time=0@note_on channel=15 note=51 velocity=72 time=0@note_on channel=9 note=42 velocity=96 time=0@note_off channel=4 note=54 velocity=64 time=0.16666666666666666@note_on channel=4 note=54 velocity=72 time=0@note_off channel=9 note=42 velocity=64 time=0.08333333333333333@note_on channel=9 note=35 velocity=96 time=0.0625@note_off channel=4 note=54 velocity=64 time=0.020833333333333332@note_on channel=4 note=54 velocity=72 time=0@note_off channel=13 note=70 velocity=64 time=0.041666666666666664@note_on channel=13 note=73 velocity=72 time=0@note_off channel=4 note=54 velocity=64 time=0.125@note_on channel=4 note=56 velocity=72 time=0@note_off channel=13 note=73 velocity=64 time=0@note_on channel=13 note=75 velocity=72 time=0@note_off channel=15 note=51 velocity=64 time=0@note_off channel=15 note=46 velocity=64 time=0@note_on channel=15 note=46 velocity=72 time=0@note_on channel=15 note=51 velocity=72 time=0@note_off channel=9 note=35 velocity=64 time=0@note_on channel=9 note=35 velocity=96 time=0@note_on channel=9 note=42 velocity=96 time=0@note_off channel=9 note=42 velocity=64 time=0.25@note_off channel=9 note=35 velocity=64 time=0@note_off channel=13 note=75 velocity=64 time=0.125@note_on channel=13 note=73 velocity=72 time=0@note_off channel=4 note=56 velocity=64 time=0.125@note_on channel=4 note=58 velocity=72 time=0@note_off channel=13 note=73 velocity=64 time=0@note_on channel=13 note=75 velocity=72 time=0@note_off channel=15 note=51 velocity=64 time=0@note_off channel=15 note=46 velocity=64 time=0@note_on channel=15 note=46 velocity=72 time=0@note_on channel=15 note=51 velocity=72 time=0@note_on channel=9 note=35 velocity=96 time=0@note_on channel=9 note=42 velocity=96 time=0@note_off channel=9 note=35 velocity=64 time=0.25@note_off channel=9 note=42 velocity=64 time=0@note_off channel=13 note=75 velocity=64 time=0.125@note_on channel=13 note=73 velocity=72 time=0@note_off channel=4 note=58 velocity=64 time=0.125@note_on channel=4 note=56 velocity=72 time=0@note_off channel=13 note=73 velocity=64 time=0@note_on channel=13 note=75 velocity=72 time=0@note_off channel=15 note=51 velocity=64 time=0@note_off channel=15 note=46 velocity=64 time=0@note_on channel=15 note=46 velocity=72 time=0@note_on channel=15 note=51 velocity=72 time=0@note_on channel=9 note=39 velocity=96 time=0@note_on channel=9 note=42 velocity=96 time=0@note_off channel=9 note=39 velocity=64 time=0.25@note_off channel=9 note=42 velocity=64 time=0@note_off channel=4 note=56 velocity=64 time=0.125@note_on channel=4 note=54 velocity=72 time=0@note_off channel=13 note=75 velocity=64 time=0@note_on channel=13 note=73 velocity=72 time=0@note_off channel=4 note=54 velocity=64 time=0.125@note_on channel=4 note=51 velocity=72 time=0@note_off channel=13 note=73 velocity=64 time=0@note_on channel=13 note=70 velocity=72 time=0@note_off channel=15 note=51 velocity=64 time=0@note_off channel=15 note=46 velocity=64 time=0@note_on channel=15 note=46 velocity=72 time=0@note_on channel=15 note=51 velocity=72 time=0@note_on channel=9 note=42 velocity=96 time=0@note_off channel=13 note=70 velocity=64 time=0.25@note_on channel=13 note=68 velocity=72 time=0@note_off channel=15 note=51 velocity=64 time=0@note_off channel=15 note=46 velocity=64 time=0@note_on channel=15 note=44 velocity=72 time=0@note_on channel=15 note=49 velocity=72 time=0@note_off channel=9 note=42 velocity=64 time=0@note_on channel=9 note=42 velocity=96 time=0@note_on channel=9 note=35 velocity=96 time=0.0625@note_on channel=2 note=37 velocity=96 time=0.1875@note_off channel=4 note=51 velocity=64 time=0@note_off channel=13 note=68 velocity=64 time=0@note_off channel=15 note=49 velocity=64 time=0@note_off channel=15 note=44 velocity=64 time=0@note_off channel=9 note=42 velocity=64 time=0@note_off channel=9 note=35 velocity=64 time=0@note_on channel=9 note=35 velocity=96 time=0@note_on channel=9 note=42 velocity=96 time=0@note_on channel=13 note=75 velocity=72 time=0.5@note_on channel=15 note=56 velocity=72 time=0@note_on channel=15 note=49 velocity=72 time=0@note_on channel=15 note=44 velocity=72 time=0@note_off channel=9 note=42 velocity=64 time=0@note_off channel=9 note=35 velocity=64 time=0@note_on channel=9 note=42 velocity=96 time=0@note_on channel=14 note=63 velocity=72 time=0@note_off channel=9 note=42 velocity=64 time=0.25@note_off channel=13 note=75 velocity=64 time=0.125@note_on channel=13 note=73 velocity=72 time=0@note_off channel=14 note=63 velocity=64 time=0@note_on channel=14 note=61 velocity=72 time=0@note_off channel=2 note=37 velocity=64 time=0.125@note_on channel=4 note=49 velocity=72 time=0@note_off channel=13 note=73 velocity=64 time=0@note_on channel=13 note=75 velocity=72 time=0@note_off channel=15 note=44 velocity=64 time=0@note_off channel=15 note=56 velocity=64 time=0@note_off channel=15 note=49 velocity=64 time=0@note_on channel=15 note=56 velocity=72 time=0@note_on channel=15 note=49 velocity=72 time=0@note_on channel=15 note=44 velocity=72 time=0@note_on channel=9 note=39 velocity=96 time=0@note_on channel=9 note=42 velocity=96 time=0@note_off channel=14 note=61 velocity=64 time=0@note_on channel=14 note=63 velocity=72 time=0@note_off channel=4 note=49 velocity=64 time=0.16666666666666666@note_on channel=4 note=49 velocity=72 time=0@note_off channel=9 note=39 velocity=64 time=0.08333333333333333@note_off channel=9 note=42 velocity=64 time=0@note_off channel=4 note=49 velocity=64 time=0.08333333333333333@note_on channel=4 note=49 velocity=72 time=0@note_off channel=13 note=75 velocity=64 time=0.041666666666666664@note_on channel=13 note=73 velocity=72 time=0@note_off channel=14 note=63 velocity=64 time=0@note_on channel=14 note=61 velocity=72 time=0@note_off channel=4 note=49 velocity=64 time=0.125@note_on channel=4 note=51 velocity=72 time=0@note_off channel=13 note=73 velocity=64 time=0@note_on channel=13 note=70 velocity=72 time=0@note_off channel=15 note=44 velocity=64 time=0@note_off channel=15 note=49 velocity=64 time=0@note_off channel=15 note=56 velocity=64 time=0@note_on channel=15 note=56 velocity=72 time=0@note_on channel=15 note=49 velocity=72 time=0@note_on channel=15 note=44 velocity=72 time=0@note_on channel=9 note=42 velocity=96 time=0@note_off channel=14 note=61 velocity=64 time=0@note_on channel=14 note=58 velocity=72 time=0@note_off channel=4 note=51 velocity=64 time=0.16666666666666666@note_on channel=4 note=51 velocity=72 time=0@note_off channel=9 note=42 velocity=64 time=0.08333333333333333@note_on channel=9 note=35 velocity=96 time=0.0625@note_off channel=4 note=51 velocity=64 time=0.020833333333333332@note_on channel=4 note=51 velocity=72 time=0@note_off channel=13 note=70 velocity=64 time=0.041666666666666664@note_on channel=13 note=73 velocity=72 time=0@note_off channel=4 note=51 velocity=64 time=0.125@note_on channel=4 note=49 velocity=72 time=0@note_off channel=13 note=73 velocity=64 time=0@note_on channel=13 note=75 velocity=72 time=0@note_off channel=15 note=44 velocity=64 time=0@note_off channel=15 note=49 velocity=64 time=0@note_off channel=15 note=56 velocity=64 time=0@note_on channel=15 note=44 velocity=72 time=0@note_on channel=15 note=49 velocity=72 time=0@note_on channel=15 note=56 velocity=72 time=0@note_off channel=9 note=35 velocity=64 time=0@note_on channel=9 note=35 velocity=96 time=0@note_on channel=9 note=42 velocity=96 time=0@note_off channel=14 note=58 velocity=64 time=0@note_off channel=9 note=42 velocity=64 time=0.25@note_off channel=9 note=35 velocity=64 time=0@note_off channel=13 note=75 velocity=64 time=0.125@note_on channel=13 note=73 velocity=72 time=0@note_off channel=4 note=49 velocity=64 time=0.125@note_on channel=4 note=51 velocity=72 time=0@note_off channel=13 note=73 velocity=64 time=0@note_on channel=13 note=75 velocity=72 time=0@note_off channel=15 note=56 velocity=64 time=0@note_off channel=15 note=49 velocity=64 time=0@note_off channel=15 note=44 velocity=64 time=0@note_on channel=15 note=56 velocity=72 time=0@note_on channel=15 note=49 velocity=72 time=0@note_on channel=15 note=44 velocity=72 time=0@note_on channel=9 note=42 velocity=96 time=0@note_on channel=9 note=35 velocity=96 time=0@note_on channel=14 note=63 velocity=72 time=0@note_off channel=9 note=35 velocity=64 time=0.25@note_off channel=9 note=42 velocity=64 time=0@note_off channel=13 note=75 velocity=64 time=0.125@note_on channel=13 note=73 velocity=72 time=0@note_off channel=14 note=63 velocity=64 time=0@note_on channel=14 note=61 velocity=72 time=0@note_off channel=4 note=51 velocity=64 time=0.125@note_on channel=4 note=49 velocity=72 time=0@note_off channel=13 note=73 velocity=64 time=0@note_on channel=13 note=75 velocity=72 time=0@note_off channel=15 note=56 velocity=64 time=0@note_off channel=15 note=44 velocity=64 time=0@note_off channel=15 note=49 velocity=64 time=0@note_on channel=15 note=56 velocity=72 time=0@note_on channel=15 note=49 velocity=72 time=0@note_on channel=15 note=44 velocity=72 time=0@note_on channel=9 note=39 velocity=96 time=0@note_on channel=9 note=42 velocity=96 time=0@note_off channel=14 note=61 velocity=64 time=0@note_on channel=14 note=63 velocity=72 time=0@note_off channel=9 note=39 velocity=64 time=0.25@note_off channel=9 note=42 velocity=64 time=0@note_off channel=4 note=49 velocity=64 time=0.125@note_on channel=4 note=46 velocity=72 time=0@note_off channel=13 note=75 velocity=64 time=0@note_on channel=13 note=73 velocity=72 time=0@note_off channel=14 note=63 velocity=64 time=0@note_on channel=14 note=61 velocity=72 time=0@note_off channel=4 note=46 velocity=64 time=0.125@note_on channel=4 note=44 velocity=72 time=0@note_off channel=13 note=73 velocity=64 time=0@note_on channel=13 note=70 velocity=72 time=0@note_off channel=15 note=44 velocity=64 time=0@note_off channel=15 note=49 velocity=64 time=0@note_off channel=15 note=56 velocity=64 time=0@note_on channel=15 note=56 velocity=72 time=0@note_on channel=15 note=49 velocity=72 time=0@note_on channel=15 note=44 velocity=72 time=0@note_on channel=9 note=42 velocity=96 time=0@note_off channel=14 note=61 velocity=64 time=0@note_on channel=14 note=58 velocity=72 time=0@note_off channel=9 note=42 velocity=64 time=0.16666666666666666@note_on channel=9 note=42 velocity=96 time=0@note_off channel=13 note=70 velocity=64 time=0.08333333333333333@note_on channel=13 note=63 velocity=72 time=0@note_off channel=15 note=44 velocity=64 time=0@note_off channel=15 note=49 velocity=64 time=0@note_off channel=15 note=56 velocity=64 time=0@note_on channel=15 note=49 velocity=72 time=0@note_on channel=15 note=42 velocity=72 time=0@note_off channel=14 note=58 velocity=64 time=0@note_on channel=14 note=61 velocity=72 time=0@note_off channel=9 note=42 velocity=64 time=0.08333333333333333@note_on channel=9 note=42 velocity=96 time=0@note_on channel=2 note=30 velocity=96 time=0.16666666666666666@note_off channel=4 note=44 velocity=64 time=0@note_off channel=13 note=63 velocity=64 time=0@note_off channel=15 note=42 velocity=64 time=0@note_off channel=15 note=49 velocity=64 time=0@note_off channel=9 note=42 velocity=64 time=0@note_on channel=9 note=38 velocity=96 time=0@note_off channel=14 note=61 velocity=64 time=0@note_off channel=9 note=38 velocity=64 time=0.375@note_on channel=9 note=38 velocity=96 time=0@note_on channel=13 note=75 velocity=72 time=0.125@note_on channel=15 note=54 velocity=72 time=0@note_on channel=15 note=49 velocity=72 time=0@note_on channel=15 note=42 velocity=72 time=0@note_on channel=14 note=63 velocity=72 time=0@note_off channel=9 note=38 velocity=64 time=0.25@note_on channel=9 note=38 velocity=96 time=0@note_off channel=13 note=75 velocity=64 time=0.125@note_on channel=13 note=73 velocity=72 time=0@note_off channel=14 note=63 velocity=64 time=0@note_on channel=14 note=61 velocity=72 time=0@note_off channel=9 note=38 velocity=64 time=0.041666666666666664@note_on channel=9 note=38 velocity=96 time=0@note_off channel=2 note=30 velocity=64 time=0.08333333333333333@note_on channel=4 note=58 velocity=72 time=0@note_off channel=13 note=73 velocity=64 time=0@note_on channel=13 note=75 velocity=72 time=0@note_off channel=15 note=54 velocity=64 time=0@note_off channel=15 note=49 velocity=64 time=0@note_off channel=15 note=42 velocity=64 time=0@note_on channel=15 note=54 velocity=72 time=0@note_on channel=15 note=49 velocity=72 time=0@note_on channel=15 note=42 velocity=72 time=0@note_off channel=14 note=61 velocity=64 time=0@note_on channel=14 note=63 velocity=72 time=0@note_off channel=9 note=38 velocity=64 time=0.08333333333333333@note_on channel=9 note=38 velocity=96 time=0@note_off channel=4 note=58 velocity=64 time=0.08333333333333333@note_on channel=4 note=58 velocity=72 time=0@note_off channel=9 note=38 velocity=64 time=0.08333333333333333@note_off channel=4 note=58 velocity=64 time=0.08333333333333333@note_on channel=4 note=58 velocity=72 time=0@note_off channel=13 note=75 velocity=64 time=0.041666666666666664@note_on channel=13 note=73 velocity=72 time=0@note_off channel=14 note=63 velocity=64 time=0@note_on channel=14 note=61 velocity=72 time=0@note_off channel=4 note=58 velocity=64 time=0.125@note_on channel=4 note=61 velocity=72 time=0@note_off channel=13 note=73 velocity=64 time=0@note_on channel=13 note=70 velocity=72 time=0@note_off channel=15 note=42 velocity=64 time=0@note_off channel=15 note=49 velocity=64 time=0@note_off channel=15 note=54 velocity=64 time=0@note_on channel=15 note=54 velocity=72 time=0@note_on channel=15 note=49 velocity=72 time=0@note_on channel=15 note=42 velocity=72 time=0@note_on channel=9 note=45 velocity=96 time=0@note_off channel=14 note=61 velocity=64 time=0@note_on channel=14 note=58 velocity=72 time=0@note_off channel=4 note=61 velocity=64 time=0.16666666666666666@note_on channel=4 note=61 velocity=72 time=0@note_off channel=9 note=45 velocity=64 time=0@note_on channel=9 note=43 velocity=96 time=0@note_off channel=13 note=70 velocity=64 time=0.08333333333333333@note_on channel=13 note=68 velocity=72 time=0@note_off channel=15 note=42 velocity=64 time=0@note_off channel=15 note=49 velocity=64 time=0@note_off channel=15 note=54 velocity=64 time=0@note_on channel=15 note=44 velocity=72 time=0@note_on channel=15 note=49 velocity=72 time=0@note_on channel=15 note=56 velocity=72 time=0@note_off channel=4 note=61 velocity=64 time=0.08333333333333333@note_on channel=4 note=61 velocity=72 time=0@note_off channel=9 note=43 velocity=64 time=0@note_on channel=9 note=38 velocity=96 time=0@note_on channel=2 note=37 velocity=96 time=0.16666666666666666@note_off channel=4 note=61 velocity=64 time=0@note_off channel=13 note=68 velocity=64 time=0@note_off channel=15 note=56 velocity=64 time=0@note_off channel=15 note=49 velocity=64 time=0@note_off channel=15 note=44 velocity=64 time=0@note_on channel=15 note=44 velocity=72 time=0@note_on channel=15 note=49 velocity=72 time=0@note_on channel=15 note=56 velocity=72 time=0@note_off channel=9 note=38 velocity=64 time=0@note_on channel=9 note=38 velocity=72 time=0@note_on channel=9 note=49 velocity=72 time=0@note_off channel=14 note=58 velocity=64 time=0@note_off channel=9 note=49 velocity=64 time=0.375@note_off channel=9 note=38 velocity=64 time=0@note_on channel=9 note=38 velocity=96 time=0@note_on channel=13 note=75 velocity=72 time=0.125@note_off channel=15 note=56 velocity=64 time=0@note_off channel=15 note=49 velocity=64 time=0@note_off channel=15 note=44 velocity=64 time=0@note_on channel=15 note=56 velocity=72 time=0@note_on channel=15 note=49 velocity=72 time=0@note_on channel=15 note=44 velocity=72 time=0@note_on channel=14 note=63 velocity=72 time=0@note_off channel=9 note=38 velocity=64 time=0.25@note_on channel=9 note=38 velocity=96 time=0@note_off channel=13 note=75 velocity=64 time=0.125@note_on channel=13 note=73 velocity=72 time=0@note_off channel=14 note=63 velocity=64 time=0@note_on channel=14 note=61 velocity=72 time=0@note_off channel=9 note=38 velocity=64 time=0.041666666666666664@note_on channel=9 note=38 velocity=96 time=0@note_off channel=2 note=37 velocity=64 time=0.08333333333333333@note_on channel=4 note=63 velocity=96 time=0@note_off channel=13 note=73 velocity=64 time=0@note_on channel=13 note=75 velocity=72 time=0@note_off channel=15 note=44 velocity=64 time=0@note_off channel=15 note=49 velocity=64 time=0@note_off channel=15 note=56 velocity=64 time=0@note_on channel=15 note=56 velocity=72 time=0@note_on channel=15 note=49 velocity=72 time=0@note_on channel=15 note=44 velocity=72 time=0@note_off channel=14 note=61 velocity=64 time=0@note_on channel=14 note=63 velocity=72 time=0@note_off channel=9 note=38 velocity=64 time=0.08333333333333333@note_on channel=9 note=38 velocity=96 time=0@note_off channel=4 note=63 velocity=64 time=0.08333333333333333@note_on channel=4 note=63 velocity=96 time=0@note_off channel=9 note=38 velocity=64 time=0.08333333333333333@note_off channel=4 note=63 velocity=64 time=0.08333333333333333@note_on channel=4 note=63 velocity=96 time=0@note_off channel=13 note=75 velocity=64 time=0.041666666666666664@note_on channel=13 note=73 velocity=72 time=0@note_off channel=14 note=63 velocity=64 time=0@note_on channel=14 note=61 velocity=72 time=0@note_off channel=4 note=63 velocity=64 time=0.125@note_on channel=4 note=66 velocity=96 time=0@note_off channel=13 note=73 velocity=64 time=0@note_on channel=13 note=70 velocity=72 time=0@note_off channel=15 note=44 velocity=64 time=0@note_off channel=15 note=49 velocity=64 time=0@note_off channel=15 note=56 velocity=64 time=0@note_on channel=15 note=56 velocity=72 time=0@note_on channel=15 note=49 velocity=72 time=0@note_on channel=15 note=44 velocity=72 time=0@note_on channel=9 note=45 velocity=96 time=0@note_off channel=14 note=61 velocity=64 time=0@note_on channel=14 note=63 velocity=72 time=0@note_off channel=9 note=45 velocity=64 time=0.16666666666666666@note_on channel=9 note=43 velocity=96 time=0@note_off channel=13 note=70 velocity=64 time=0.08333333333333333@note_on channel=13 note=63 velocity=72 time=0@note_off channel=9 note=43 velocity=64 time=0.08333333333333333@note_on channel=9 note=38 velocity=96 time=0@note_on channel=2 note=27 velocity=96 time=0.16666666666666666@note_off channel=4 note=66 velocity=64 time=0@note_on channel=6 note=63 velocity=96 time=0@note_on channel=6 note=70 velocity=96 time=0@note_off channel=13 note=63 velocity=64 time=0@note_off channel=15 note=44 velocity=64 time=0@note_off channel=15 note=49 velocity=64 time=0@note_off channel=15 note=56 velocity=64 time=0@note_off channel=9 note=38 velocity=64 time=0@note_on channel=9 note=35 velocity=96 time=0@note_on channel=9 note=42 velocity=96 time=0@note_off channel=14 note=63 velocity=64 time=0@note_off channel=9 note=42 velocity=64 time=0.5@note_off channel=9 note=35 velocity=64 time=0@note_on channel=9 note=42 velocity=96 time=0@note_off channel=9 note=42 velocity=64 time=0.25@note_on channel=11 note=66 velocity=96 time=0.25@note_off channel=2 note=27 velocity=64 time=0@note_on channel=4 note=51 velocity=72 time=0@note_off channel=6 note=70 velocity=64 time=0@note_off channel=6 note=63 velocity=64 time=0@note_on channel=6 note=63 velocity=96 time=0@note_on channel=6 note=66 velocity=96 time=0@note_on channel=9 note=39 velocity=96 time=0@note_on channel=9 note=42 velocity=96 time=0@note_off channel=4 note=51 velocity=64 time=0.16666666666666666@note_on channel=4 note=51 velocity=72 time=0@note_off channel=11 note=66 velocity=64 time=0.08333333333333333@note_on channel=11 note=63 velocity=96 time=0@note_off channel=9 note=39 velocity=64 time=0@note_off channel=9 note=42 velocity=64 time=0@note_off channel=4 note=51 velocity=64 time=0.08333333333333333@note_on channel=4 note=51 velocity=72 time=0@note_off channel=4 note=51 velocity=64 time=0.16666666666666666@note_on channel=4 note=54 velocity=72 time=0@note_on channel=9 note=42 velocity=96 time=0@note_off channel=4 note=54 velocity=64 time=0.16666666666666666@note_on channel=4 note=54 velocity=72 time=0@note_off channel=9 note=42 velocity=64 time=0.08333333333333333@note_on channel=9 note=35 velocity=96 time=0.0625@note_off channel=4 note=54 velocity=64 time=0.020833333333333332@note_on channel=4 note=54 velocity=72 time=0@note_off channel=11 note=63 velocity=64 time=0.16666666666666666@note_on channel=11 note=66 velocity=96 time=0@note_off channel=4 note=54 velocity=64 time=0@note_on channel=4 note=56 velocity=72 time=0@note_off channel=6 note=66 velocity=64 time=0@note_off channel=6 note=63 velocity=64 time=0@note_off channel=9 note=35 velocity=64 time=0@note_on channel=9 note=35 velocity=96 time=0@note_on channel=9 note=42 velocity=96 time=0@note_off channel=9 note=42 velocity=64 time=0.25@note_off channel=9 note=35 velocity=64 time=0@note_off channel=11 note=66 velocity=64 time=0.25@note_on channel=11 note=68 velocity=96 time=0@note_off channel=4 note=56 velocity=64 time=0@note_on channel=4 note=58 velocity=72 time=0@note_on channel=9 note=35 velocity=96 time=0@note_on channel=9 note=42 velocity=96 time=0@note_off channel=9 note=35 velocity=64 time=0.25@note_off channel=9 note=42 velocity=64 time=0@note_off channel=11 note=68 velocity=64 time=0.25@note_on channel=11 note=70 velocity=96 time=0@note_off channel=4 note=58 velocity=64 time=0@note_on channel=4 note=56 velocity=72 time=0@note_on channel=9 note=39 velocity=96 time=0@note_on channel=9 note=42 velocity=96 time=0@note_off channel=9 note=39 velocity=64 time=0.25@note_off channel=9 note=42 velocity=64 time=0@note_off channel=4 note=56 velocity=64 time=0.125@note_on channel=4 note=54 velocity=72 time=0@note_off channel=11 note=70 velocity=64 time=0.125@note_on channel=11 note=68 velocity=96 time=0@note_off channel=4 note=54 velocity=64 time=0@note_on channel=4 note=51 velocity=72 time=0@note_on channel=9 note=42 velocity=96 time=0@note_on channel=14 note=66 velocity=96 time=0@note_off channel=9 note=42 velocity=64 time=0.16666666666666666@note_on channel=9 note=42 velocity=96 time=0@note_off channel=9 note=42 velocity=64 time=0.16666666666666666@note_on channel=9 note=42 velocity=96 time=0@note_off channel=4 note=51 velocity=64 time=0.041666666666666664@note_on channel=4 note=49 velocity=72 time=0@note_off channel=11 note=68 velocity=64 time=0.125@note_on channel=2 note=27 velocity=96 time=0@note_off channel=4 note=49 velocity=64 time=0@note_on channel=6 note=63 velocity=96 time=0@note_on channel=6 note=70 velocity=96 time=0@note_off channel=9 note=42 velocity=64 time=0@note_on channel=9 note=35 velocity=96 time=0@note_on channel=9 note=42 velocity=96 time=0@note_off channel=14 note=66 velocity=64 time=0@note_off channel=9 note=42 velocity=64 time=0.5@note_off channel=9 note=35 velocity=64 time=0@note_on channel=9 note=42 velocity=96 time=0@note_off channel=9 note=42 velocity=64 time=0.25@note_on channel=11 note=66 velocity=96 time=0.25@note_off channel=2 note=27 velocity=64 time=0@note_on channel=4 note=51 velocity=72 time=0@note_off channel=6 note=70 velocity=64 time=0@note_off channel=6 note=63 velocity=64 time=0@note_on channel=6 note=63 velocity=96 time=0@note_on channel=6 note=66 velocity=96 time=0@note_on channel=9 note=39 velocity=96 time=0@note_on channel=9 note=42 velocity=96 time=0@note_off channel=4 note=51 velocity=64 time=0.16666666666666666@note_on channel=4 note=51 velocity=72 time=0@note_off channel=11 note=66 velocity=64 time=0.08333333333333333@note_on channel=11 note=63 velocity=96 time=0@note_off channel=9 note=39 velocity=64 time=0@note_off channel=9 note=42 velocity=64 time=0@note_off channel=4 note=51 velocity=64 time=0.08333333333333333@note_on channel=4 note=51 velocity=72 time=0@note_off channel=4 note=51 velocity=64 time=0.16666666666666666@note_on channel=4 note=54 velocity=72 time=0@note_on channel=9 note=42 velocity=96 time=0@note_off channel=4 note=54 velocity=64 time=0.16666666666666666@note_on channel=4 note=54 velocity=72 time=0@note_off channel=9 note=42 velocity=64 time=0.08333333333333333@note_on channel=9 note=35 velocity=96 time=0.0625@note_off channel=4 note=54 velocity=64 time=0.020833333333333332@note_on channel=4 note=54 velocity=72 time=0@note_off channel=11 note=63 velocity=64 time=0.16666666666666666@note_on channel=11 note=61 velocity=96 time=0@note_off channel=4 note=54 velocity=64 time=0@note_on channel=4 note=56 velocity=72 time=0@note_off channel=6 note=66 velocity=64 time=0@note_off channel=6 note=63 velocity=64 time=0@note_off channel=9 note=35 velocity=64 time=0@note_on channel=9 note=35 velocity=96 time=0@note_on channel=9 note=42 velocity=96 time=0@note_off channel=9 note=42 velocity=64 time=0.25@note_off channel=9 note=35 velocity=64 time=0@note_off channel=11 note=61 velocity=64 time=0.25@note_on channel=11 note=63 velocity=96 time=0@note_off channel=4 note=56 velocity=64 time=0@note_on channel=4 note=58 velocity=72 time=0@note_on channel=9 note=35 velocity=96 time=0@note_on channel=9 note=42 velocity=96 time=0@note_off channel=9 note=35 velocity=64 time=0.25@note_off channel=9 note=42 velocity=64 time=0@note_off channel=11 note=63 velocity=64 time=0.25@note_on channel=11 note=66 velocity=96 time=0@note_off channel=4 note=58 velocity=64 time=0@note_on channel=4 note=56 velocity=72 time=0@note_on channel=9 note=39 velocity=96 time=0@note_on channel=9 note=42 velocity=96 time=0@note_off channel=9 note=39 velocity=64 time=0.25@note_off channel=9 note=42 velocity=64 time=0@note_on channel=9 note=35 velocity=96 time=0.0625@note_off channel=4 note=56 velocity=64 time=0.0625@note_on channel=4 note=54 velocity=72 time=0@note_off channel=11 note=66 velocity=64 time=0.125@note_on channel=11 note=63 velocity=96 time=0@note_off channel=4 note=54 velocity=64 time=0@note_on channel=4 note=51 velocity=72 time=0@note_off channel=9 note=35 velocity=64 time=0@note_on channel=9 note=42 velocity=96 time=0@note_on channel=14 note=66 velocity=96 time=0@note_off channel=9 note=42 velocity=64 time=0.25@note_on channel=9 note=42 velocity=96 time=0@note_on channel=9 note=35 velocity=96 time=0.0625@note_off channel=11 note=63 velocity=64 time=0.1875@note_on channel=2 note=37 velocity=96 time=0@note_off channel=4 note=51 velocity=64 time=0@note_on channel=6 note=63 velocity=96 time=0@note_on channel=6 note=68 velocity=96 time=0@note_off channel=9 note=42 velocity=64 time=0@note_off channel=9 note=35 velocity=64 time=0@note_on channel=9 note=35 velocity=96 time=0@note_on channel=9 note=42 velocity=96 time=0@note_off channel=14 note=66 velocity=64 time=0@note_off channel=9 note=42 velocity=64 time=0.5@note_off channel=9 note=35 velocity=64 time=0@note_on channel=9 note=42 velocity=96 time=0@note_off channel=9 note=42 velocity=64 time=0.25@note_on channel=11 note=66 velocity=96 time=0.25@note_off channel=2 note=37 velocity=64 time=0@note_on channel=4 note=49 velocity=72 time=0@note_off channel=6 note=68 velocity=64 time=0@note_off channel=6 note=63 velocity=64 time=0@note_on channel=6 note=61 velocity=96 time=0@note_on channel=6 note=65 velocity=96 time=0@note_on channel=9 note=39 velocity=96 time=0@note_on channel=9 note=42 velocity=96 time=0@note_off channel=4 note=49 velocity=64 time=0.16666666666666666@note_on channel=4 note=49 velocity=72 time=0@note_off channel=9 note=39 velocity=64 time=0.08333333333333333@note_off channel=9 note=42 velocity=64 time=0@note_off channel=4 note=49 velocity=64 time=0.08333333333333333@note_on channel=4 note=49 velocity=72 time=0@note_off channel=11 note=66 velocity=64 time=0.041666666666666664@note_on channel=11 note=63 velocity=96 time=0@note_off channel=11 note=63 velocity=64 time=0.125@note_on channel=11 note=61 velocity=96 time=0@note_off channel=4 note=49 velocity=64 time=0@note_on channel=4 note=51 velocity=72 time=0@note_on channel=9 note=42 velocity=96 time=0@note_off channel=4 note=51 velocity=64 time=0.16666666666666666@note_on channel=4 note=51 velocity=72 time=0@note_off channel=9 note=42 velocity=64 time=0.08333333333333333@note_on channel=9 note=35 velocity=96 time=0.0625@note_off channel=4 note=51 velocity=64 time=0.020833333333333332@note_on channel=4 note=51 velocity=72 time=0@note_off channel=11 note=61 velocity=64 time=0.041666666666666664@note_on channel=11 note=63 velocity=96 time=0@note_off channel=11 note=63 velocity=64 time=0.125@note_on channel=11 note=65 velocity=96 time=0@note_off channel=4 note=51 velocity=64 time=0@note_on channel=4 note=49 velocity=72 time=0@note_off channel=6 note=65 velocity=64 time=0@note_off channel=6 note=61 velocity=64 time=0@note_off channel=9 note=35 velocity=64 time=0@note_on channel=9 note=35 velocity=96 time=0@note_on channel=9 note=42 velocity=96 time=0@note_off channel=9 note=42 velocity=64 time=0.25@note_off channel=9 note=35 velocity=64 time=0@note_off channel=11 note=65 velocity=64 time=0.25@note_on channel=11 note=66 velocity=96 time=0@note_off channel=4 note=49 velocity=64 time=0@note_on channel=4 note=51 velocity=72 time=0@note_on channel=9 note=35 velocity=96 time=0@note_on channel=9 note=42 velocity=96 time=0@note_off channel=9 note=35 velocity=64 time=0.25@note_off channel=9 note=42 velocity=64 time=0@note_off channel=11 note=66 velocity=64 time=0.25@note_on channel=11 note=68 velocity=96 time=0@note_off channel=4 note=51 velocity=64 time=0@note_on channel=4 note=49 velocity=72 time=0@note_on channel=9 note=39 velocity=96 time=0@note_on channel=9 note=42 velocity=96 time=0@note_off channel=9 note=39 velocity=64 time=0.25@note_off channel=9 note=42 velocity=64 time=0@note_off channel=4 note=49 velocity=64 time=0.125@note_on channel=4 note=46 velocity=72 time=0@note_off channel=11 note=68 velocity=64 time=0.125@note_on channel=11 note=65 velocity=96 time=0@note_off channel=4 note=46 velocity=64 time=0@note_on channel=4 note=44 velocity=72 time=0@note_on channel=9 note=42 velocity=96 time=0@note_on channel=14 note=66 velocity=96 time=0@note_off channel=9 note=42 velocity=64 time=0.25@note_on channel=0 note=66 velocity=80 time=0.25@note_on channel=0 note=73 velocity=80 time=0@note_off channel=11 note=65 velocity=64 time=0@note_on channel=11 note=61 velocity=72 time=0@note_on channel=2 note=30 velocity=96 time=0@note_off channel=4 note=44 velocity=64 time=0@note_on channel=15 note=42 velocity=80 time=0@note_on channel=6 note=58 velocity=96 time=0@note_on channel=6 note=61 velocity=96 time=0@note_on channel=9 note=35 velocity=96 time=0@note_on channel=9 note=46 velocity=96 time=0@note_off channel=14 note=66 velocity=64 time=0@note_off channel=0 note=73 velocity=64 time=0.25@note_off channel=0 note=66 velocity=64 time=0@note_on channel=0 note=66 velocity=80 time=0.25@note_on channel=0 note=73 velocity=80 time=0@note_off channel=11 note=61 velocity=64 time=0@note_on channel=11 note=73 velocity=72 time=0@note_off channel=15 note=42 velocity=64 time=0@note_on channel=15 note=42 velocity=80 time=0@note_off channel=9 note=35 velocity=64 time=0@note_off channel=9 note=46 velocity=64 time=0@note_on channel=9 note=46 velocity=96 time=0@note_off channel=0 note=73 velocity=64 time=0.25@note_off channel=0 note=66 velocity=64 time=0@note_off channel=9 note=46 velocity=64 time=0@note_on channel=0 note=66 velocity=80 time=0.25@note_on channel=0 note=73 velocity=80 time=0@note_off channel=11 note=73 velocity=64 time=0@note_on channel=11 note=71 velocity=96 time=0@note_off channel=2 note=30 velocity=64 time=0@note_on channel=4 note=58 velocity=72 time=0@note_off channel=15 note=42 velocity=64 time=0@note_on channel=15 note=42 velocity=80 time=0@note_on channel=9 note=39 velocity=96 time=0@note_on channel=9 note=46 velocity=96 time=0@note_off channel=4 note=58 velocity=64 time=0.16666666666666666@note_on channel=4 note=58 velocity=72 time=0@note_off channel=0 note=73 velocity=64 time=0.08333333333333333@note_off channel=0 note=66 velocity=64 time=0@note_off channel=9 note=39 velocity=64 time=0@note_off channel=9 note=46 velocity=64 time=0@note_off channel=4 note=58 velocity=64 time=0.08333333333333333@note_on channel=4 note=58 velocity=72 time=0@note_off channel=11 note=71 velocity=64 time=0.041666666666666664@note_on channel=11 note=70 velocity=96 time=0@note_on channel=0 note=66 velocity=80 time=0.125@note_on channel=0 note=73 velocity=80 time=0@note_off channel=11 note=70 velocity=64 time=0@note_on channel=11 note=66 velocity=96 time=0@note_off channel=4 note=58 velocity=64 time=0@note_on channel=4 note=61 velocity=72 time=0@note_off channel=15 note=42 velocity=64 time=0@note_on channel=15 note=42 velocity=80 time=0@note_on channel=9 note=46 velocity=96 time=0@note_off channel=4 note=61 velocity=64 time=0.16666666666666666@note_on channel=4 note=61 velocity=72 time=0@note_off channel=0 note=73 velocity=64 time=0.08333333333333333@note_off channel=0 note=66 velocity=64 time=0@note_off channel=9 note=46 velocity=64 time=0@note_on channel=9 note=35 velocity=96 time=0.0625@note_off channel=4 note=61 velocity=64 time=0.020833333333333332@note_on channel=4 note=61 velocity=72 time=0@note_off channel=11 note=66 velocity=64 time=0.041666666666666664@note_on channel=11 note=63 velocity=96 time=0@note_on channel=0 note=61 velocity=80 time=0.125@note_on channel=0 note=65 velocity=80 time=0@note_off channel=11 note=63 velocity=64 time=0@note_on channel=11 note=61 velocity=96 time=0@note_on channel=2 note=37 velocity=96 time=0@note_off channel=4 note=61 velocity=64 time=0@note_off channel=15 note=42 velocity=64 time=0@note_on channel=15 note=49 velocity=80 time=0@note_off channel=6 note=61 velocity=64 time=0@note_off channel=6 note=58 velocity=64 time=0@note_on channel=6 note=53 velocity=96 time=0@note_on channel=6 note=56 velocity=96 time=0@note_off channel=9 note=35 velocity=64 time=0@note_on channel=9 note=35 velocity=96 time=0@note_on channel=9 note=46 velocity=96 time=0@note_off channel=0 note=65 velocity=64 time=0.25@note_off channel=0 note=61 velocity=64 time=0@note_off channel=9 note=35 velocity=64 time=0@note_off channel=9 note=46 velocity=64 time=0@note_on channel=0 note=61 velocity=80 time=0.25@note_on channel=0 note=65 velocity=80 time=0@note_off channel=11 note=61 velocity=64 time=0@note_on channel=11 note=65 velocity=96 time=0@note_off channel=15 note=49 velocity=64 time=0@note_on channel=15 note=49 velocity=80 time=0@note_on channel=9 note=35 velocity=96 time=0@note_on channel=9 note=46 velocity=96 time=0@note_off channel=0 note=65 velocity=64 time=0.25@note_off channel=0 note=61 velocity=64 time=0@note_off channel=9 note=35 velocity=64 time=0@note_off channel=9 note=46 velocity=64 time=0@note_on channel=0 note=61 velocity=80 time=0.25@note_on channel=0 note=65 velocity=80 time=0@note_off channel=11 note=65 velocity=64 time=0@note_on channel=11 note=66 velocity=96 time=0@note_off channel=2 note=37 velocity=64 time=0@note_on channel=4 note=63 velocity=96 time=0@note_off channel=15 note=49 velocity=64 time=0@note_on channel=15 note=49 velocity=80 time=0@note_on channel=9 note=39 velocity=96 time=0@note_on channel=9 note=46 velocity=96 time=0@note_off channel=4 note=63 velocity=64 time=0.16666666666666666@note_on channel=4 note=63 velocity=96 time=0@note_off channel=0 note=65 velocity=64 time=0.08333333333333333@note_off channel=0 note=61 velocity=64 time=0@note_off channel=9 note=39 velocity=64 time=0@note_off channel=9 note=46 velocity=64 time=0@note_off channel=4 note=63 velocity=64 time=0.08333333333333333@note_on channel=4 note=63 velocity=96 time=0@note_off channel=11 note=66 velocity=64 time=0.041666666666666664@note_on channel=11 note=68 velocity=96 time=0@note_on channel=0 note=65 velocity=80 time=0.125@note_on channel=0 note=61 velocity=80 time=0@note_off channel=11 note=68 velocity=64 time=0@note_on channel=11 note=66 velocity=96 time=0@note_off channel=4 note=63 velocity=64 time=0@note_on channel=4 note=66 velocity=96 time=0@note_off channel=15 note=49 velocity=64 time=0@note_on channel=15 note=49 velocity=80 time=0@note_on channel=9 note=35 velocity=96 time=0@note_on channel=14 note=66 velocity=96 time=0@note_off channel=9 note=35 velocity=64 time=0.16666666666666666@note_on channel=9 note=35 velocity=96 time=0@note_off channel=0 note=65 velocity=64 time=0.08333333333333333@note_off channel=0 note=61 velocity=64 time=0@note_off channel=9 note=35 velocity=64 time=0.08333333333333333@note_on channel=9 note=35 velocity=96 time=0@note_off channel=11 note=66 velocity=64 time=0.16666666666666666@note_on channel=2 note=27 velocity=96 time=0@note_off channel=4 note=66 velocity=64 time=0@note_off channel=15 note=49 velocity=64 time=0@note_off channel=6 note=53 velocity=64 time=0@note_off channel=6 note=56 velocity=64 time=0@note_on channel=6 note=63 velocity=96 time=0@note_on channel=6 note=70 velocity=96 time=0@note_off channel=9 note=35 velocity=64 time=0@note_on channel=9 note=35 velocity=96 time=0@note_on channel=9 note=42 velocity=96 time=0@note_off channel=14 note=66 velocity=64 time=0@note_off channel=9 note=42 velocity=64 time=0.5@note_off channel=9 note=35 velocity=64 time=0@note_on channel=9 note=42 velocity=96 time=0@note_off channel=9 note=42 velocity=64 time=0.25@note_on channel=11 note=66 velocity=96 time=0.25@note_off channel=2 note=27 velocity=64 time=0@note_on channel=4 note=51 velocity=72 time=0@note_off channel=6 note=70 velocity=64 time=0@note_off channel=6 note=63 velocity=64 time=0@note_on channel=6 note=63 velocity=96 time=0@note_on channel=6 note=66 velocity=96 time=0@note_on channel=9 note=39 velocity=96 time=0@note_on channel=9 note=42 velocity=96 time=0@note_off channel=4 note=51 velocity=64 time=0.16666666666666666@note_on channel=4 note=51 velocity=72 time=0@note_off channel=11 note=66 velocity=64 time=0.08333333333333333@note_on channel=11 note=63 velocity=96 time=0@note_off channel=9 note=39 velocity=64 time=0@note_off channel=9 note=42 velocity=64 time=0@note_off channel=4 note=51 velocity=64 time=0.08333333333333333@note_on channel=4 note=51 velocity=72 time=0@note_off channel=4 note=51 velocity=64 time=0.16666666666666666@note_on channel=4 note=54 velocity=72 time=0@note_on channel=9 note=42 velocity=96 time=0@note_off channel=4 note=54 velocity=64 time=0.16666666666666666@note_on channel=4 note=54 velocity=72 time=0@note_off channel=9 note=42 velocity=64 time=0.08333333333333333@note_on channel=9 note=35 velocity=96 time=0.0625@note_off channel=4 note=54 velocity=64 time=0.020833333333333332@note_on channel=4 note=54 velocity=72 time=0@note_off channel=11 note=63 velocity=64 time=0.16666666666666666@note_on channel=11 note=66 velocity=96 time=0@note_off channel=4 note=54 velocity=64 time=0@note_on channel=4 note=56 velocity=72 time=0@note_off channel=6 note=66 velocity=64 time=0@note_off channel=6 note=63 velocity=64 time=0@note_off channel=9 note=35 velocity=64 time=0@note_on channel=9 note=35 velocity=96 time=0@note_on channel=9 note=42 velocity=96 time=0@note_off channel=9 note=42 velocity=64 time=0.25@note_off channel=9 note=35 velocity=64 time=0@note_off channel=11 note=66 velocity=64 time=0.25@note_on channel=11 note=68 velocity=96 time=0@note_off channel=4 note=56 velocity=64 time=0@note_on channel=4 note=58 velocity=72 time=0@note_on channel=9 note=35 velocity=96 time=0@note_on channel=9 note=42 velocity=96 time=0@note_off channel=9 note=35 velocity=64 time=0.25@note_off channel=9 note=42 velocity=64 time=0@note_off channel=11 note=68 velocity=64 time=0.25@note_on channel=11 note=70 velocity=96 time=0@note_off channel=4 note=58 velocity=64 time=0@note_on channel=4 note=56 velocity=72 time=0@note_on channel=9 note=39 velocity=96 time=0@note_on channel=9 note=42 velocity=96 time=0@note_off channel=9 note=39 velocity=64 time=0.25@note_off channel=9 note=42 velocity=64 time=0@note_off channel=4 note=56 velocity=64 time=0.125@note_on channel=4 note=54 velocity=72 time=0@note_off channel=11 note=70 velocity=64 time=0.125@note_on channel=11 note=68 velocity=96 time=0@note_off channel=4 note=54 velocity=64 time=0@note_on channel=4 note=51 velocity=72 time=0@note_on channel=9 note=42 velocity=96 time=0@note_on channel=14 note=66 velocity=96 time=0@note_off channel=9 note=42 velocity=64 time=0.16666666666666666@note_on channel=9 note=42 velocity=96 time=0@note_off channel=9 note=42 velocity=64 time=0.16666666666666666@note_on channel=9 note=42 velocity=96 time=0@note_off channel=4 note=51 velocity=64 time=0.041666666666666664@note_on channel=4 note=49 velocity=72 time=0@note_off channel=11 note=68 velocity=64 time=0.125@note_on channel=2 note=27 velocity=96 time=0@note_off channel=4 note=49 velocity=64 time=0@note_on channel=6 note=63 velocity=96 time=0@note_on channel=6 note=70 velocity=96 time=0@note_off channel=9 note=42 velocity=64 time=0@note_on channel=9 note=35 velocity=96 time=0@note_on channel=9 note=42 velocity=96 time=0@note_off channel=14 note=66 velocity=64 time=0@note_off channel=9 note=42 velocity=64 time=0.5@note_off channel=9 note=35 velocity=64 time=0@note_on channel=9 note=42 velocity=96 time=0@note_off channel=9 note=42 velocity=64 time=0.25@note_on channel=11 note=66 velocity=96 time=0.25@note_off channel=2 note=27 velocity=64 time=0@note_on channel=4 note=51 velocity=72 time=0@note_off channel=6 note=70 velocity=64 time=0@note_off channel=6 note=63 velocity=64 time=0@note_on channel=6 note=63 velocity=96 time=0@note_on channel=6 note=66 velocity=96 time=0@note_on channel=9 note=39 velocity=96 time=0@note_on channel=9 note=42 velocity=96 time=0@note_off channel=4 note=51 velocity=64 time=0.16666666666666666@note_on channel=4 note=51 velocity=72 time=0@note_off channel=11 note=66 velocity=64 time=0.08333333333333333@note_on channel=11 note=63 velocity=96 time=0@note_off channel=9 note=39 velocity=64 time=0@note_off channel=9 note=42 velocity=64 time=0@note_off channel=4 note=51 velocity=64 time=0.08333333333333333@note_on channel=4 note=51 velocity=72 time=0@note_off channel=4 note=51 velocity=64 time=0.16666666666666666@note_on channel=4 note=54 velocity=72 time=0@note_on channel=9 note=42 velocity=96 time=0@note_off channel=4 note=54 velocity=64 time=0.16666666666666666@note_on channel=4 note=54 velocity=72 time=0@note_off channel=9 note=42 velocity=64 time=0.08333333333333333@note_on channel=9 note=35 velocity=96 time=0.0625@note_off channel=4 note=54 velocity=64 time=0.020833333333333332@note_on channel=4 note=54 velocity=72 time=0@note_off channel=11 note=63 velocity=64 time=0.16666666666666666@note_on channel=11 note=61 velocity=96 time=0@note_off channel=4 note=54 velocity=64 time=0@note_on channel=4 note=56 velocity=72 time=0@note_off channel=6 note=66 velocity=64 time=0@note_off channel=6 note=63 velocity=64 time=0@note_off channel=9 note=35 velocity=64 time=0@note_on channel=9 note=35 velocity=96 time=0@note_on channel=9 note=42 velocity=96 time=0@note_off channel=9 note=42 velocity=64 time=0.25@note_off channel=9 note=35 velocity=64 time=0@note_off channel=11 note=61 velocity=64 time=0.25@note_on channel=11 note=63 velocity=96 time=0@note_off channel=4 note=56 velocity=64 time=0@note_on channel=4 note=58 velocity=72 time=0@note_on channel=9 note=35 velocity=96 time=0@note_on channel=9 note=42 velocity=96 time=0@note_off channel=9 note=35 velocity=64 time=0.25@note_off channel=9 note=42 velocity=64 time=0@note_off channel=11 note=63 velocity=64 time=0.25@note_on channel=11 note=66 velocity=96 time=0@note_off channel=4 note=58 velocity=64 time=0@note_on channel=4 note=56 velocity=72 time=0@note_on channel=9 note=39 velocity=96 time=0@note_on channel=9 note=42 velocity=96 time=0@note_off channel=9 note=39 velocity=64 time=0.25@note_off channel=9 note=42 velocity=64 time=0@note_on channel=9 note=35 velocity=96 time=0.0625@note_off channel=4 note=56 velocity=64 time=0.0625@note_on channel=4 note=54 velocity=72 time=0@note_off channel=11 note=66 velocity=64 time=0.125@note_on channel=11 note=63 velocity=96 time=0@note_off channel=4 note=54 velocity=64 time=0@note_on channel=4 note=51 velocity=72 time=0@note_off channel=9 note=35 velocity=64 time=0@note_on channel=9 note=42 velocity=96 time=0@note_on channel=14 note=66 velocity=96 time=0@note_off channel=9 note=42 velocity=64 time=0.25@note_on channel=9 note=42 velocity=96 time=0@note_on channel=9 note=35 velocity=96 time=0.0625@note_off channel=11 note=63 velocity=64 time=0.1875@note_on channel=2 note=37 velocity=96 time=0@note_off channel=4 note=51 velocity=64 time=0@note_on channel=6 note=63 velocity=96 time=0@note_on channel=6 note=68 velocity=96 time=0@note_off channel=9 note=42 velocity=64 time=0@note_off channel=9 note=35 velocity=64 time=0@note_on channel=9 note=35 velocity=96 time=0@note_on channel=9 note=42 velocity=96 time=0@note_off channel=14 note=66 velocity=64 time=0@note_off channel=9 note=42 velocity=64 time=0.5@note_off channel=9 note=35 velocity=64 time=0@note_on channel=9 note=42 velocity=96 time=0@note_off channel=9 note=42 velocity=64 time=0.25@note_on channel=11 note=66 velocity=96 time=0.25@note_off channel=2 note=37 velocity=64 time=0@note_on channel=4 note=49 velocity=72 time=0@note_off channel=6 note=68 velocity=64 time=0@note_off channel=6 note=63 velocity=64 time=0@note_on channel=6 note=61 velocity=96 time=0@note_on channel=6 note=65 velocity=96 time=0@note_on channel=9 note=39 velocity=96 time=0@note_on channel=9 note=42 velocity=96 time=0@note_off channel=4 note=49 velocity=64 time=0.16666666666666666@note_on channel=4 note=49 velocity=72 time=0@note_off channel=9 note=39 velocity=64 time=0.08333333333333333@note_off channel=9 note=42 velocity=64 time=0@note_off channel=4 note=49 velocity=64 time=0.08333333333333333@note_on channel=4 note=49 velocity=72 time=0@note_off channel=11 note=66 velocity=64 time=0.041666666666666664@note_on channel=11 note=63 velocity=96 time=0@note_off channel=11 note=63 velocity=64 time=0.125@note_on channel=11 note=61 velocity=96 time=0@note_off channel=4 note=49 velocity=64 time=0@note_on channel=4 note=51 velocity=72 time=0@note_on channel=9 note=42 velocity=96 time=0@note_off channel=4 note=51 velocity=64 time=0.16666666666666666@note_on channel=4 note=51 velocity=72 time=0@note_off channel=9 note=42 velocity=64 time=0.08333333333333333@note_on channel=9 note=35 velocity=96 time=0.0625@note_off channel=4 note=51 velocity=64 time=0.020833333333333332@note_on channel=4 note=51 velocity=72 time=0@note_off channel=11 note=61 velocity=64 time=0.041666666666666664@note_on channel=11 note=63 velocity=96 time=0@note_off channel=11 note=63 velocity=64 time=0.125@note_on channel=11 note=65 velocity=96 time=0@note_off channel=4 note=51 velocity=64 time=0@note_on channel=4 note=49 velocity=72 time=0@note_off channel=6 note=65 velocity=64 time=0@note_off channel=6 note=61 velocity=64 time=0@note_off channel=9 note=35 velocity=64 time=0@note_on channel=9 note=35 velocity=96 time=0@note_on channel=9 note=42 velocity=96 time=0@note_off channel=9 note=42 velocity=64 time=0.25@note_off channel=9 note=35 velocity=64 time=0@note_off channel=11 note=65 velocity=64 time=0.25@note_on channel=11 note=66 velocity=96 time=0@note_off channel=4 note=49 velocity=64 time=0@note_on channel=4 note=51 velocity=72 time=0@note_on channel=9 note=35 velocity=96 time=0@note_on channel=9 note=42 velocity=96 time=0@note_off channel=9 note=35 velocity=64 time=0.25@note_off channel=9 note=42 velocity=64 time=0@note_off channel=11 note=66 velocity=64 time=0.25@note_on channel=11 note=68 velocity=96 time=0@note_off channel=4 note=51 velocity=64 time=0@note_on channel=4 note=49 velocity=72 time=0@note_on channel=9 note=39 velocity=96 time=0@note_on channel=9 note=42 velocity=96 time=0@note_off channel=9 note=39 velocity=64 time=0.25@note_off channel=9 note=42 velocity=64 time=0@note_off channel=4 note=49 velocity=64 time=0.125@note_on channel=4 note=46 velocity=72 time=0@note_off channel=11 note=68 velocity=64 time=0.125@note_on channel=11 note=65 velocity=96 time=0@note_off channel=4 note=46 velocity=64 time=0@note_on channel=4 note=44 velocity=72 time=0@note_on channel=9 note=42 velocity=96 time=0@note_on channel=14 note=66 velocity=96 time=0@note_off channel=9 note=42 velocity=64 time=0.25@note_on channel=0 note=66 velocity=80 time=0.25@note_on channel=0 note=73 velocity=80 time=0@note_off channel=11 note=65 velocity=64 time=0@note_on channel=11 note=61 velocity=72 time=0@note_on channel=2 note=30 velocity=96 time=0@note_off channel=4 note=44 velocity=64 time=0@note_on channel=15 note=42 velocity=80 time=0@note_on channel=6 note=58 velocity=96 time=0@note_on channel=6 note=61 velocity=96 time=0@note_on channel=9 note=35 velocity=96 time=0@note_on channel=9 note=46 velocity=96 time=0@note_off channel=14 note=66 velocity=64 time=0@note_off channel=0 note=73 velocity=64 time=0.25@note_off channel=0 note=66 velocity=64 time=0@note_on channel=0 note=66 velocity=80 time=0.25@note_on channel=0 note=73 velocity=80 time=0@note_off channel=11 note=61 velocity=64 time=0@note_on channel=11 note=73 velocity=72 time=0@note_off channel=15 note=42 velocity=64 time=0@note_on channel=15 note=42 velocity=80 time=0@note_off channel=9 note=35 velocity=64 time=0@note_off channel=9 note=46 velocity=64 time=0@note_on channel=9 note=46 velocity=96 time=0@note_off channel=0 note=73 velocity=64 time=0.25@note_off channel=0 note=66 velocity=64 time=0@note_off channel=9 note=46 velocity=64 time=0@note_on channel=0 note=66 velocity=80 time=0.25@note_on channel=0 note=73 velocity=80 time=0@note_off channel=11 note=73 velocity=64 time=0@note_on channel=11 note=71 velocity=96 time=0@note_off channel=2 note=30 velocity=64 time=0@note_on channel=4 note=58 velocity=72 time=0@note_off channel=15 note=42 velocity=64 time=0@note_on channel=15 note=42 velocity=80 time=0@note_on channel=9 note=39 velocity=96 time=0@note_on channel=9 note=46 velocity=96 time=0@note_off channel=4 note=58 velocity=64 time=0.16666666666666666@note_on channel=4 note=58 velocity=72 time=0@note_off channel=0 note=73 velocity=64 time=0.08333333333333333@note_off channel=0 note=66 velocity=64 time=0@note_off channel=9 note=39 velocity=64 time=0@note_off channel=9 note=46 velocity=64 time=0@note_off channel=4 note=58 velocity=64 time=0.08333333333333333@note_on channel=4 note=58 velocity=72 time=0@note_off channel=11 note=71 velocity=64 time=0.041666666666666664@note_on channel=11 note=70 velocity=96 time=0@note_on channel=0 note=66 velocity=80 time=0.125@note_on channel=0 note=73 velocity=80 time=0@note_off channel=11 note=70 velocity=64 time=0@note_on channel=11 note=66 velocity=96 time=0@note_off channel=4 note=58 velocity=64 time=0@note_on channel=4 note=61 velocity=72 time=0@note_off channel=15 note=42 velocity=64 time=0@note_on channel=15 note=42 velocity=80 time=0@note_on channel=9 note=46 velocity=96 time=0@note_off channel=4 note=61 velocity=64 time=0.16666666666666666@note_on channel=4 note=61 velocity=72 time=0@note_off channel=0 note=73 velocity=64 time=0.08333333333333333@note_off channel=0 note=66 velocity=64 time=0@note_off channel=9 note=46 velocity=64 time=0@note_on channel=9 note=35 velocity=96 time=0.0625@note_off channel=4 note=61 velocity=64 time=0.020833333333333332@note_on channel=4 note=61 velocity=72 time=0@note_off channel=11 note=66 velocity=64 time=0.041666666666666664@note_on channel=11 note=63 velocity=96 time=0@note_on channel=0 note=61 velocity=80 time=0.125@note_on channel=0 note=65 velocity=80 time=0@note_off channel=11 note=63 velocity=64 time=0@note_on channel=11 note=61 velocity=96 time=0@note_on channel=2 note=37 velocity=96 time=0@note_off channel=4 note=61 velocity=64 time=0@note_off channel=15 note=42 velocity=64 time=0@note_on channel=15 note=49 velocity=80 time=0@note_off channel=6 note=61 velocity=64 time=0@note_off channel=6 note=58 velocity=64 time=0@note_on channel=6 note=53 velocity=96 time=0@note_on channel=6 note=56 velocity=96 time=0@note_off channel=9 note=35 velocity=64 time=0@note_on channel=9 note=35 velocity=96 time=0@note_on channel=9 note=46 velocity=96 time=0@note_off channel=0 note=65 velocity=64 time=0.25@note_off channel=0 note=61 velocity=64 time=0@note_off channel=9 note=35 velocity=64 time=0@note_off channel=9 note=46 velocity=64 time=0@note_on channel=0 note=61 velocity=80 time=0.25@note_on channel=0 note=65 velocity=80 time=0@note_off channel=11 note=61 velocity=64 time=0@note_on channel=11 note=65 velocity=96 time=0@note_off channel=15 note=49 velocity=64 time=0@note_on channel=15 note=49 velocity=80 time=0@note_on channel=9 note=35 velocity=96 time=0@note_on channel=9 note=46 velocity=96 time=0@note_off channel=0 note=65 velocity=64 time=0.25@note_off channel=0 note=61 velocity=64 time=0@note_off channel=9 note=35 velocity=64 time=0@note_off channel=9 note=46 velocity=64 time=0@note_on channel=0 note=61 velocity=80 time=0.25@note_on channel=0 note=65 velocity=80 time=0@note_off channel=11 note=65 velocity=64 time=0@note_on channel=11 note=66 velocity=96 time=0@note_off channel=2 note=37 velocity=64 time=0@note_on channel=4 note=63 velocity=96 time=0@note_off channel=15 note=49 velocity=64 time=0@note_on channel=15 note=49 velocity=80 time=0@note_on channel=9 note=39 velocity=96 time=0@note_on channel=9 note=46 velocity=96 time=0@note_off channel=4 note=63 velocity=64 time=0.16666666666666666@note_on channel=4 note=63 velocity=96 time=0@note_off channel=0 note=65 velocity=64 time=0.08333333333333333@note_off channel=0 note=61 velocity=64 time=0@note_off channel=9 note=39 velocity=64 time=0@note_off channel=9 note=46 velocity=64 time=0@note_off channel=4 note=63 velocity=64 time=0.08333333333333333@note_on channel=4 note=63 velocity=96 time=0@note_off channel=11 note=66 velocity=64 time=0.041666666666666664@note_on channel=11 note=68 velocity=96 time=0@note_on channel=0 note=65 velocity=80 time=0.125@note_on channel=0 note=61 velocity=80 time=0@note_off channel=11 note=68 velocity=64 time=0@note_on channel=11 note=66 velocity=96 time=0@note_off channel=4 note=63 velocity=64 time=0@note_on channel=4 note=66 velocity=96 time=0@note_off channel=15 note=49 velocity=64 time=0@note_on channel=15 note=49 velocity=80 time=0@note_on channel=9 note=35 velocity=96 time=0@note_on channel=14 note=66 velocity=96 time=0@note_off channel=9 note=35 velocity=64 time=0.16666666666666666@note_on channel=9 note=35 velocity=96 time=0@note_off channel=0 note=65 velocity=64 time=0.08333333333333333@note_off channel=0 note=61 velocity=64 time=0@note_off channel=9 note=35 velocity=64 time=0.08333333333333333@note_on channel=9 note=35 velocity=96 time=0@note_on channel=0 note=63 velocity=80 time=0.16666666666666666@note_on channel=0 note=66 velocity=80 time=0@note_off channel=11 note=66 velocity=64 time=0@note_off channel=4 note=66 velocity=64 time=0@note_off channel=15 note=49 velocity=64 time=0@note_off channel=6 note=53 velocity=64 time=0@note_off channel=6 note=56 velocity=64 time=0@note_on channel=6 note=63 velocity=96 time=0@note_on channel=6 note=70 velocity=96 time=0@note_off channel=9 note=35 velocity=64 time=0@note_on channel=9 note=35 velocity=96 time=0@note_on channel=9 note=42 velocity=96 time=0@note_off channel=14 note=66 velocity=64 time=0@note_off channel=0 note=66 velocity=64 time=0.25@note_off channel=0 note=63 velocity=64 time=0@note_on channel=0 note=63 velocity=80 time=0.25@note_on channel=0 note=66 velocity=80 time=0@note_off channel=9 note=35 velocity=64 time=0@note_off channel=9 note=42 velocity=64 time=0@note_on channel=9 note=42 velocity=96 time=0@note_off channel=0 note=66 velocity=64 time=0.25@note_off channel=0 note=63 velocity=64 time=0@note_off channel=9 note=42 velocity=64 time=0@note_on channel=0 note=63 velocity=80 time=0.25@note_on channel=0 note=66 velocity=80 time=0@note_off channel=6 note=63 velocity=64 time=0@note_off channel=6 note=70 velocity=64 time=0@note_on channel=6 note=63 velocity=96 time=0@note_on channel=6 note=66 velocity=96 time=0@note_on channel=9 note=39 velocity=96 time=0@note_on channel=9 note=42 velocity=96 time=0@note_off channel=0 note=66 velocity=64 time=0.25@note_off channel=0 note=63 velocity=64 time=0@note_off channel=9 note=39 velocity=64 time=0@note_off channel=9 note=42 velocity=64 time=0@note_on channel=0 note=63 velocity=80 time=0.25@note_on channel=0 note=66 velocity=80 time=0@note_on channel=9 note=42 velocity=96 time=0@note_off channel=0 note=63 velocity=64 time=0.25@note_off channel=0 note=66 velocity=64 time=0@note_off channel=9 note=42 velocity=64 time=0@note_on channel=9 note=35 velocity=96 time=0.0625@note_on channel=0 note=63 velocity=80 time=0.1875@note_on channel=0 note=66 velocity=80 time=0@note_off channel=6 note=66 velocity=64 time=0@note_off channel=6 note=63 velocity=64 time=0@note_off channel=9 note=35 velocity=64 time=0@note_on channel=9 note=35 velocity=96 time=0@note_on channel=9 note=42 velocity=96 time=0@note_off channel=0 note=66 velocity=64 time=0.25@note_off channel=0 note=63 velocity=64 time=0@note_off channel=9 note=42 velocity=64 time=0@note_off channel=9 note=35 velocity=64 time=0@note_on channel=0 note=63 velocity=80 time=0.25@note_on channel=0 note=66 velocity=80 time=0@note_on channel=9 note=35 velocity=96 time=0@note_on channel=9 note=42 velocity=96 time=0@note_off channel=0 note=63 velocity=64 time=0.25@note_off channel=0 note=66 velocity=64 time=0@note_off channel=9 note=35 velocity=64 time=0@note_off channel=9 note=42 velocity=64 time=0@note_on channel=0 note=63 velocity=80 time=0.25@note_on channel=0 note=68 velocity=80 time=0@note_on channel=9 note=39 velocity=96 time=0@note_on channel=9 note=42 velocity=96 time=0@note_off channel=0 note=63 velocity=64 time=0.25@note_off channel=0 note=68 velocity=64 time=0@note_off channel=9 note=39 velocity=64 time=0@note_off channel=9 note=42 velocity=64 time=0@note_on channel=0 note=63 velocity=80 time=0.25@note_on channel=0 note=68 velocity=80 time=0@note_on channel=9 note=42 velocity=96 time=0@note_off channel=9 note=42 velocity=64 time=0.16666666666666666@note_on channel=9 note=42 velocity=96 time=0@note_off channel=0 note=63 velocity=64 time=0.08333333333333333@note_off channel=0 note=68 velocity=64 time=0@note_off channel=9 note=42 velocity=64 time=0.08333333333333333@note_on channel=9 note=42 velocity=96 time=0@note_on channel=0 note=63 velocity=80 time=0.16666666666666666@note_on channel=0 note=66 velocity=80 time=0@note_on channel=6 note=63 velocity=96 time=0@note_on channel=6 note=70 velocity=96 time=0@note_off channel=9 note=42 velocity=64 time=0@note_on channel=9 note=35 velocity=96 time=0@note_on channel=9 note=42 velocity=96 time=0@note_off channel=0 note=66 velocity=64 time=0.25@note_off channel=0 note=63 velocity=64 time=0@note_on channel=0 note=63 velocity=80 time=0.25@note_on channel=0 note=66 velocity=80 time=0@note_off channel=9 note=35 velocity=64 time=0@note_off channel=9 note=42 velocity=64 time=0@note_on channel=9 note=42 velocity=96 time=0@note_off channel=0 note=66 velocity=64 time=0.25@note_off channel=0 note=63 velocity=64 time=0@note_off channel=9 note=42 velocity=64 time=0@note_on channel=0 note=63 velocity=80 time=0.25@note_on channel=0 note=66 velocity=80 time=0@note_off channel=6 note=70 velocity=64 time=0@note_off channel=6 note=63 velocity=64 time=0@note_on channel=6 note=63 velocity=96 time=0@note_on channel=6 note=66 velocity=96 time=0@note_on channel=9 note=39 velocity=96 time=0@note_on channel=9 note=42 velocity=96 time=0@note_off channel=0 note=66 velocity=64 time=0.25@note_off channel=0 note=63 velocity=64 time=0@note_off channel=9 note=39 velocity=64 time=0@note_off channel=9 note=42 velocity=64 time=0@note_on channel=0 note=63 velocity=80 time=0.25@note_on channel=0 note=66 velocity=80 time=0@note_on channel=9 note=42 velocity=96 time=0@note_off channel=0 note=63 velocity=64 time=0.25@note_off channel=0 note=66 velocity=64 time=0@note_off channel=9 note=42 velocity=64 time=0@note_on channel=9 note=35 velocity=96 time=0.0625@note_on channel=0 note=63 velocity=80 time=0.1875@note_on channel=0 note=66 velocity=80 time=0@note_off channel=6 note=66 velocity=64 time=0@note_off channel=6 note=63 velocity=64 time=0@note_off channel=9 note=35 velocity=64 time=0@note_on channel=9 note=35 velocity=96 time=0@note_on channel=9 note=42 velocity=96 time=0@note_off channel=0 note=66 velocity=64 time=0.25@note_off channel=0 note=63 velocity=64 time=0@note_off channel=9 note=42 velocity=64 time=0@note_off channel=9 note=35 velocity=64 time=0@note_on channel=0 note=63 velocity=80 time=0.25@note_on channel=0 note=66 velocity=80 time=0@note_on channel=9 note=35 velocity=96 time=0@note_on channel=9 note=42 velocity=96 time=0@note_off channel=0 note=63 velocity=64 time=0.25@note_off channel=0 note=66 velocity=64 time=0@note_off channel=9 note=35 velocity=64 time=0@note_off channel=9 note=42 velocity=64 time=0@note_on channel=0 note=63 velocity=80 time=0.25@note_on channel=0 note=68 velocity=80 time=0@note_on channel=9 note=39 velocity=96 time=0@note_on channel=9 note=42 velocity=96 time=0@note_off channel=0 note=63 velocity=64 time=0.25@note_off channel=0 note=68 velocity=64 time=0@note_off channel=9 note=39 velocity=64 time=0@note_off channel=9 note=42 velocity=64 time=0@note_on channel=9 note=35 velocity=96 time=0.0625@note_on channel=0 note=63 velocity=80 time=0.1875@note_on channel=0 note=68 velocity=80 time=0@note_off channel=9 note=35 velocity=64 time=0@note_on channel=9 note=42 velocity=96 time=0@note_off channel=0 note=68 velocity=64 time=0.25@note_off channel=0 note=63 velocity=64 time=0@note_off channel=9 note=42 velocity=64 time=0@note_on channel=9 note=42 velocity=96 time=0@note_on channel=9 note=35 velocity=96 time=0.0625@note_on channel=0 note=61 velocity=80 time=0.1875@note_on channel=0 note=65 velocity=80 time=0@note_on channel=6 note=63 velocity=96 time=0@note_on channel=6 note=68 velocity=96 time=0@note_off channel=9 note=42 velocity=64 time=0@note_off channel=9 note=35 velocity=64 time=0@note_on channel=9 note=35 velocity=96 time=0@note_on channel=9 note=42 velocity=96 time=0@note_off channel=0 note=65 velocity=64 time=0.25@note_off channel=0 note=61 velocity=64 time=0@note_on channel=0 note=61 velocity=80 time=0.25@note_on channel=0 note=65 velocity=80 time=0@note_off channel=9 note=35 velocity=64 time=0@note_off channel=9 note=42 velocity=64 time=0@note_on channel=9 note=42 velocity=96 time=0@note_off channel=0 note=65 velocity=64 time=0.25@note_off channel=0 note=61 velocity=64 time=0@note_off channel=9 note=42 velocity=64 time=0@note_on channel=0 note=61 velocity=80 time=0.25@note_on channel=0 note=65 velocity=80 time=0@note_off channel=6 note=68 velocity=64 time=0@note_off channel=6 note=63 velocity=64 time=0@note_on channel=6 note=61 velocity=96 time=0@note_on channel=6 note=65 velocity=96 time=0@note_on channel=9 note=39 velocity=96 time=0@note_on channel=9 note=42 velocity=96 time=0@note_off channel=0 note=65 velocity=64 time=0.25@note_off channel=0 note=61 velocity=64 time=0@note_off channel=9 note=39 velocity=64 time=0@note_off channel=9 note=42 velocity=64 time=0@note_on channel=0 note=61 velocity=80 time=0.25@note_on channel=0 note=65 velocity=80 time=0@note_on channel=9 note=42 velocity=96 time=0@note_off channel=0 note=61 velocity=64 time=0.25@note_off channel=0 note=65 velocity=64 time=0@note_off channel=9 note=42 velocity=64 time=0@note_on channel=9 note=35 velocity=96 time=0.0625@note_on channel=0 note=61 velocity=80 time=0.1875@note_on channel=0 note=65 velocity=80 time=0@note_off channel=6 note=65 velocity=64 time=0@note_off channel=6 note=61 velocity=64 time=0@note_off channel=9 note=35 velocity=64 time=0@note_on channel=9 note=35 velocity=96 time=0@note_on channel=9 note=42 velocity=96 time=0@note_off channel=0 note=65 velocity=64 time=0.25@note_off channel=0 note=61 velocity=64 time=0@note_off channel=9 note=42 velocity=64 time=0@note_off channel=9 note=35 velocity=64 time=0@note_on channel=0 note=61 velocity=80 time=0.25@note_on channel=0 note=65 velocity=80 time=0@note_on channel=9 note=35 velocity=96 time=0@note_on channel=9 note=42 velocity=96 time=0@note_off channel=0 note=61 velocity=64 time=0.25@note_off channel=0 note=65 velocity=64 time=0@note_off channel=9 note=35 velocity=64 time=0@note_off channel=9 note=42 velocity=64 time=0@note_on channel=0 note=61 velocity=80 time=0.25@note_on channel=0 note=65 velocity=80 time=0@note_on channel=9 note=39 velocity=96 time=0@note_on channel=9 note=42 velocity=96 time=0@note_off channel=0 note=61 velocity=64 time=0.25@note_off channel=0 note=65 velocity=64 time=0@note_off channel=9 note=39 velocity=64 time=0@note_off channel=9 note=42 velocity=64 time=0@note_on channel=0 note=61 velocity=80 time=0.25@note_on channel=0 note=65 velocity=80 time=0@note_on channel=9 note=42 velocity=96 time=0@note_off channel=0 note=61 velocity=64 time=0.25@note_off channel=0 note=65 velocity=64 time=0@note_off channel=9 note=42 velocity=64 time=0@note_on channel=0 note=66 velocity=80 time=0.25@note_on channel=0 note=73 velocity=80 time=0@note_on channel=6 note=58 velocity=96 time=0@note_on channel=6 note=61 velocity=96 time=0@note_on channel=9 note=35 velocity=96 time=0@note_on channel=9 note=42 velocity=96 time=0@note_off channel=0 note=66 velocity=64 time=0.25@note_off channel=0 note=73 velocity=64 time=0@note_on channel=0 note=66 velocity=80 time=0.25@note_on channel=0 note=73 velocity=80 time=0@note_off channel=9 note=35 velocity=64 time=0@note_off channel=9 note=42 velocity=64 time=0@note_on channel=9 note=42 velocity=96 time=0@note_off channel=0 note=73 velocity=64 time=0.25@note_off channel=0 note=66 velocity=64 time=0@note_off channel=9 note=42 velocity=64 time=0@note_on channel=0 note=66 velocity=80 time=0.25@note_on channel=0 note=73 velocity=80 time=0@note_on channel=9 note=39 velocity=96 time=0@note_on channel=9 note=42 velocity=96 time=0@note_off channel=0 note=66 velocity=64 time=0.25@note_off channel=0 note=73 velocity=64 time=0@note_off channel=9 note=39 velocity=64 time=0@note_off channel=9 note=42 velocity=64 time=0@note_on channel=0 note=66 velocity=80 time=0.25@note_on channel=0 note=73 velocity=80 time=0@note_on channel=9 note=42 velocity=96 time=0@note_off channel=0 note=66 velocity=64 time=0.25@note_off channel=0 note=73 velocity=64 time=0@note_off channel=9 note=42 velocity=64 time=0@note_on channel=9 note=35 velocity=96 time=0.0625@note_on channel=0 note=61 velocity=80 time=0.1875@note_on channel=0 note=65 velocity=80 time=0@note_off channel=6 note=61 velocity=64 time=0@note_off channel=6 note=58 velocity=64 time=0@note_on channel=6 note=53 velocity=96 time=0@note_on channel=6 note=56 velocity=96 time=0@note_off channel=9 note=35 velocity=64 time=0@note_on channel=9 note=35 velocity=96 time=0@note_on channel=9 note=42 velocity=96 time=0@note_off channel=0 note=65 velocity=64 time=0.25@note_off channel=0 note=61 velocity=64 time=0@note_off channel=9 note=35 velocity=64 time=0@note_off channel=9 note=42 velocity=64 time=0@note_on channel=0 note=61 velocity=80 time=0.25@note_on channel=0 note=65 velocity=80 time=0@note_on channel=9 note=35 velocity=96 time=0@note_on channel=9 note=42 velocity=96 time=0@note_off channel=0 note=61 velocity=64 time=0.25@note_off channel=0 note=65 velocity=64 time=0@note_off channel=9 note=35 velocity=64 time=0@note_off channel=9 note=42 velocity=64 time=0@note_on channel=0 note=61 velocity=80 time=0.25@note_on channel=0 note=65 velocity=80 time=0@note_on channel=9 note=39 velocity=96 time=0@note_on channel=9 note=42 velocity=96 time=0@note_off channel=0 note=61 velocity=64 time=0.25@note_off channel=0 note=65 velocity=64 time=0@note_off channel=9 note=39 velocity=64 time=0@note_off channel=9 note=42 velocity=64 time=0@note_on channel=0 note=61 velocity=80 time=0.25@note_on channel=0 note=65 velocity=80 time=0@note_on channel=9 note=35 velocity=96 time=0@note_off channel=9 note=35 velocity=64 time=0.16666666666666666@note_on channel=9 note=35 velocity=96 time=0@note_off channel=0 note=61 velocity=64 time=0.08333333333333333@note_off channel=0 note=65 velocity=64 time=0@note_off channel=9 note=35 velocity=64 time=0.08333333333333333@note_on channel=9 note=35 velocity=96 time=0@control_change channel=8 control=101 value=0 time=0.16666666666666666@control_change channel=8 control=100 value=0 time=0@control_change channel=8 control=6 value=12 time=0@control_change channel=8 control=10 value=64 time=0@control_change channel=8 control=7 value=100 time=0@pitchwheel channel=8 pitch=0 time=0@program_change channel=8 program=28 time=0@control_change channel=0 control=101 value=0 time=0@control_change channel=0 control=100 value=0 time=0@control_change channel=0 control=6 value=12 time=0@control_change channel=0 control=10 value=64 time=0@control_change channel=0 control=7 value=100 time=0@pitchwheel channel=0 pitch=0 time=0@program_change channel=0 program=27 time=0@control_change channel=11 control=101 value=0 time=0@control_change channel=11 control=100 value=0 time=0@control_change channel=11 control=6 value=12 time=0@control_change channel=11 control=10 value=64 time=0@control_change channel=11 control=7 value=100 time=0@pitchwheel channel=11 pitch=0 time=0@program_change channel=11 program=27 time=0@control_change channel=2 control=101 value=0 time=0@control_change channel=2 control=100 value=0 time=0@control_change channel=2 control=6 value=12 time=0@control_change channel=2 control=10 value=64 time=0@control_change channel=2 control=7 value=111 time=0@pitchwheel channel=2 pitch=0 time=0@program_change channel=2 program=33 time=0@control_change channel=4 control=101 value=0 time=0@control_change channel=4 control=100 value=0 time=0@control_change channel=4 control=6 value=12 time=0@control_change channel=4 control=10 value=64 time=0@control_change channel=4 control=7 value=106 time=0@pitchwheel channel=4 pitch=0 time=0@program_change channel=4 program=45 time=0@control_change channel=15 control=101 value=0 time=0@control_change channel=15 control=100 value=0 time=0@control_change channel=15 control=6 value=12 time=0@control_change channel=15 control=10 value=64 time=0@control_change channel=15 control=7 value=112 time=0@pitchwheel channel=15 pitch=0 time=0@program_change channel=15 program=45 time=0@note_off channel=6 note=53 velocity=64 time=0@note_off channel=6 note=56 velocity=64 time=0@control_change channel=6 control=101 value=0 time=0@control_change channel=6 control=100 value=0 time=0@control_change channel=6 control=6 value=12 time=0@control_change channel=6 control=10 value=64 time=0@control_change channel=6 control=7 value=100 time=0@pitchwheel channel=6 pitch=0 time=0@program_change channel=6 program=53 time=0@control_change channel=13 control=101 value=0 time=0@control_change channel=13 control=100 value=0 time=0@control_change channel=13 control=6 value=12 time=0@control_change channel=13 control=10 value=64 time=0@control_change channel=13 control=7 value=100 time=0@pitchwheel channel=13 pitch=0 time=0@program_change channel=13 program=0 time=0@control_change channel=15 control=101 value=0 time=0@control_change channel=15 control=100 value=0 time=0@control_change channel=15 control=6 value=12 time=0@control_change channel=15 control=10 value=64 time=0@control_change channel=15 control=7 value=100 time=0@pitchwheel channel=15 pitch=0 time=0@program_change channel=15 program=45 time=0@control_change channel=9 control=101 value=0 time=0@control_change channel=9 control=100 value=0 time=0@control_change channel=9 control=6 value=12 time=0@control_change channel=9 control=10 value=64 time=0@control_change channel=9 control=7 value=100 time=0@pitchwheel channel=9 pitch=0 time=0@program_change channel=9 program=0 time=0@note_off channel=9 note=35 velocity=64 time=0@control_change channel=9 control=101 value=0 time=0@control_change channel=9 control=100 value=0 time=0@control_change channel=9 control=6 value=12 time=0@control_change channel=9 control=10 value=64 time=0@control_change channel=9 control=7 value=114 time=0@pitchwheel channel=9 pitch=0 time=0@program_change channel=9 program=0 time=0@control_change channel=14 control=101 value=0 time=0@control_change channel=14 control=100 value=0 time=0@control_change channel=14 control=6 value=12 time=0@control_change channel=14 control=10 value=64 time=0@control_change channel=14 control=7 value=98 time=0@pitchwheel channel=14 pitch=0 time=0@program_change channel=14 program=65 time=0@control_change channel=8 control=101 value=0 time=0.010416666666666666@control_change channel=8 control=100 value=0 time=0@control_change channel=8 control=6 value=12 time=0@control_change channel=8 control=10 value=64 time=0@control_change channel=8 control=7 value=100 time=0@pitchwheel channel=8 pitch=0 time=0@program_change channel=8 program=28 time=0@control_change channel=8 control=101 value=0 time=0@control_change channel=8 control=100 value=0 time=0@control_change channel=8 control=6 value=12 time=0@control_change channel=8 control=10 value=64 time=0@control_change channel=8 control=7 value=100 time=0@pitchwheel channel=8 pitch=0 time=0@program_change channel=8 program=28 time=0@control_change channel=0 control=101 value=0 time=0@control_change channel=0 control=100 value=0 time=0@control_change channel=0 control=6 value=12 time=0@control_change channel=0 control=10 value=64 time=0@control_change channel=0 control=7 value=100 time=0@pitchwheel channel=0 pitch=0 time=0@program_change channel=0 program=27 time=0@control_change channel=0 control=101 value=0 time=0@control_change channel=0 control=100 value=0 time=0@control_change channel=0 control=6 value=12 time=0@control_change channel=0 control=10 value=64 time=0@control_change channel=0 control=7 value=100 time=0@pitchwheel channel=0 pitch=0 time=0@program_change channel=0 program=27 time=0@control_change channel=11 control=101 value=0 time=0@control_change channel=11 control=100 value=0 time=0@control_change channel=11 control=6 value=12 time=0@control_change channel=11 control=10 value=64 time=0@control_change channel=11 control=7 value=100 time=0@pitchwheel channel=11 pitch=0 time=0@program_change channel=11 program=27 time=0@control_change channel=11 control=101 value=0 time=0@control_change channel=11 control=100 value=0 time=0@control_change channel=11 control=6 value=12 time=0@control_change channel=11 control=10 value=64 time=0@control_change channel=11 control=7 value=100 time=0@pitchwheel channel=11 pitch=0 time=0@program_change channel=11 program=27 time=0@control_change channel=2 control=101 value=0 time=0@control_change channel=2 control=100 value=0 time=0@control_change channel=2 control=6 value=12 time=0@control_change channel=2 control=10 value=64 time=0@control_change channel=2 control=7 value=111 time=0@pitchwheel channel=2 pitch=0 time=0@program_change channel=2 program=33 time=0@control_change channel=2 control=101 value=0 time=0@control_change channel=2 control=100 value=0 time=0@control_change channel=2 control=6 value=12 time=0@control_change channel=2 control=10 value=64 time=0@control_change channel=2 control=7 value=111 time=0@pitchwheel channel=2 pitch=0 time=0@program_change channel=2 program=33 time=0@control_change channel=4 control=101 value=0 time=0@control_change channel=4 control=100 value=0 time=0@control_change channel=4 control=6 value=12 time=0@control_change channel=4 control=10 value=64 time=0@control_change channel=4 control=7 value=106 time=0@pitchwheel channel=4 pitch=0 time=0@program_change channel=4 program=45 time=0@control_change channel=4 control=101 value=0 time=0@control_change channel=4 control=100 value=0 time=0@control_change channel=4 control=6 value=12 time=0@control_change channel=4 control=10 value=64 time=0@control_change channel=4 control=7 value=106 time=0@pitchwheel channel=4 pitch=0 time=0@program_change channel=4 program=45 time=0@control_change channel=15 control=101 value=0 time=0@control_change channel=15 control=100 value=0 time=0@control_change channel=15 control=6 value=12 time=0@control_change channel=15 control=10 value=64 time=0@control_change channel=15 control=7 value=112 time=0@pitchwheel channel=15 pitch=0 time=0@program_change channel=15 program=45 time=0@control_change channel=15 control=101 value=0 time=0@control_change channel=15 control=100 value=0 time=0@control_change channel=15 control=6 value=12 time=0@control_change channel=15 control=10 value=64 time=0@control_change channel=15 control=7 value=112 time=0@pitchwheel channel=15 pitch=0 time=0@program_change channel=15 program=45 time=0@control_change channel=6 control=101 value=0 time=0@control_change channel=6 control=100 value=0 time=0@control_change channel=6 control=6 value=12 time=0@control_change channel=6 control=10 value=64 time=0@control_change channel=6 control=7 value=100 time=0@pitchwheel channel=6 pitch=0 time=0@program_change channel=6 program=53 time=0@control_change channel=6 control=101 value=0 time=0@control_change channel=6 control=100 value=0 time=0@control_change channel=6 control=6 value=12 time=0@control_change channel=6 control=10 value=64 time=0@control_change channel=6 control=7 value=100 time=0@pitchwheel channel=6 pitch=0 time=0@program_change channel=6 program=53 time=0@control_change channel=13 control=101 value=0 time=0@control_change channel=13 control=100 value=0 time=0@control_change channel=13 control=6 value=12 time=0@control_change channel=13 control=10 value=64 time=0@control_change channel=13 control=7 value=100 time=0@pitchwheel channel=13 pitch=0 time=0@program_change channel=13 program=0 time=0@control_change channel=13 control=101 value=0 time=0@control_change channel=13 control=100 value=0 time=0@control_change channel=13 control=6 value=12 time=0@control_change channel=13 control=10 value=64 time=0@control_change channel=13 control=7 value=100 time=0@pitchwheel channel=13 pitch=0 time=0@program_change channel=13 program=0 time=0@control_change channel=15 control=101 value=0 time=0@control_change channel=15 control=100 value=0 time=0@control_change channel=15 control=6 value=12 time=0@control_change channel=15 control=10 value=64 time=0@control_change channel=15 control=7 value=100 time=0@pitchwheel channel=15 pitch=0 time=0@program_change channel=15 program=45 time=0@control_change channel=15 control=101 value=0 time=0@control_change channel=15 control=100 value=0 time=0@control_change channel=15 control=6 value=12 time=0@control_change channel=15 control=10 value=64 time=0@control_change channel=15 control=7 value=100 time=0@pitchwheel channel=15 pitch=0 time=0@program_change channel=15 program=45 time=0@control_change channel=9 control=101 value=0 time=0@control_change channel=9 control=100 value=0 time=0@control_change channel=9 control=6 value=12 time=0@control_change channel=9 control=10 value=64 time=0@control_change channel=9 control=7 value=100 time=0@pitchwheel channel=9 pitch=0 time=0@program_change channel=9 program=0 time=0@control_change channel=9 control=101 value=0 time=0@control_change channel=9 control=100 value=0 time=0@control_change channel=9 control=6 value=12 time=0@control_change channel=9 control=10 value=64 time=0@control_change channel=9 control=7 value=100 time=0@pitchwheel channel=9 pitch=0 time=0@program_change channel=9 program=0 time=0@control_change channel=9 control=101 value=0 time=0@control_change channel=9 control=100 value=0 time=0@control_change channel=9 control=6 value=12 time=0@control_change channel=9 control=10 value=64 time=0@control_change channel=9 control=7 value=114 time=0@pitchwheel channel=9 pitch=0 time=0@program_change channel=9 program=0 time=0@control_change channel=9 control=101 value=0 time=0@control_change channel=9 control=100 value=0 time=0@control_change channel=9 control=6 value=12 time=0@control_change channel=9 control=10 value=64 time=0@control_change channel=9 control=7 value=114 time=0@pitchwheel channel=9 pitch=0 time=0@program_change channel=9 program=0 time=0@control_change channel=14 control=101 value=0 time=0@control_change channel=14 control=100 value=0 time=0@control_change channel=14 control=6 value=12 time=0@control_change channel=14 control=10 value=64 time=0@control_change channel=14 control=7 value=98 time=0@pitchwheel channel=14 pitch=0 time=0@program_change channel=14 program=65 time=0@control_change channel=14 control=101 value=0 time=0@control_change channel=14 control=100 value=0 time=0@control_change channel=14 control=6 value=12 time=0@control_change channel=14 control=10 value=64 time=0@control_change channel=14 control=7 value=98 time=0@pitchwheel channel=14 pitch=0 time=0@program_change channel=14 program=65 time=0@<meta message end_of_track time=0>@