<meta message time_signature numerator=3 denominator=4 clocks_per_click=24 notated_32nd_notes_per_beat=8 time=0>@<meta message key_signature key='C' time=0>@<meta message set_tempo tempo=600000 time=0>@program_change channel=0 program=0 time=0@control_change channel=0 control=121 value=0 time=0@control_change channel=0 control=64 value=0 time=0@control_change channel=0 control=91 value=48 time=0@control_change channel=0 control=10 value=51 time=0@control_change channel=0 control=7 value=100 time=0@note_on channel=0 note=67 velocity=53 time=0@control_change channel=0 control=121 value=0 time=0@control_change channel=0 control=64 value=0 time=0@control_change channel=0 control=91 value=48 time=0@control_change channel=0 control=10 value=51 time=0@control_change channel=0 control=7 value=100 time=0@<meta message track_name name='Piano' time=0>@note_on channel=0 note=60 velocity=53 time=0@note_on channel=0 note=69 velocity=56 time=0.8999999999999999@note_off channel=0 note=67 velocity=0 time=0.01640625@note_on channel=0 note=67 velocity=61 time=0.28359375@note_off channel=0 note=69 velocity=0 time=0.0046875@note_on channel=0 note=64 velocity=54 time=0.5953125@note_off channel=0 note=60 velocity=0 time=0@note_on channel=0 note=60 velocity=57 time=0@note_off channel=0 note=67 velocity=0 time=0.01171875@note_on channel=0 note=67 velocity=65 time=1.78828125@note_off channel=0 note=60 velocity=0 time=0@note_on channel=0 note=60 velocity=64 time=0@note_off channel=0 note=64 velocity=0 time=0.03515625@note_on channel=0 note=69 velocity=67 time=0.86484375@note_off channel=0 note=67 velocity=0 time=0.01640625@note_on channel=0 note=67 velocity=58 time=0.28359375@note_off channel=0 note=69 velocity=0 time=0.0046875@note_on channel=0 note=64 velocity=51 time=0.5953125@note_off channel=0 note=60 velocity=0 time=0@note_on channel=0 note=60 velocity=61 time=0@note_off channel=0 note=67 velocity=0 time=0.01171875@note_off channel=0 note=60 velocity=0 time=0.58828125@note_on channel=0 note=59 velocity=61 time=0@note_off channel=0 note=59 velocity=0 time=0.6@note_on channel=0 note=57 velocity=61 time=0@note_off channel=0 note=64 velocity=0 time=0.50859375@note_on channel=0 note=74 velocity=71 time=0.09140625@note_off channel=0 note=57 velocity=0 time=0@note_on channel=0 note=55 velocity=58 time=0@note_off channel=0 note=74 velocity=0 time=1.2@note_on channel=0 note=74 velocity=66 time=0@note_on channel=0 note=71 velocity=58 time=0.6@note_off channel=0 note=55 velocity=0 time=0@note_on channel=0 note=55 velocity=55 time=0@note_off channel=0 note=74 velocity=0 time=0.01171875@note_off channel=0 note=55 velocity=0 time=1.18828125@note_on channel=0 note=55 velocity=61 time=0@note_on channel=0 note=72 velocity=58 time=0.6@note_off channel=0 note=55 velocity=0 time=0@note_on channel=0 note=60 velocity=71 time=0@note_off channel=0 note=71 velocity=0 time=0.03515625@note_off channel=0 note=72 velocity=0 time=1.16484375@note_on channel=0 note=72 velocity=59 time=0@note_on channel=0 note=67 velocity=49 time=0.6@note_off channel=0 note=60 velocity=0 time=0@note_on channel=0 note=60 velocity=62 time=0@note_off channel=0 note=72 velocity=0 time=0.01171875@note_off channel=0 note=67 velocity=0 time=1.696875@note_on channel=0 note=69 velocity=59 time=0.09140625@note_off channel=0 note=60 velocity=0 time=0@note_on channel=0 note=53 velocity=54 time=0@note_off channel=0 note=69 velocity=0 time=1.2@note_on channel=0 note=69 velocity=63 time=0@note_on channel=0 note=72 velocity=72 time=0.6@note_off channel=0 note=53 velocity=0 time=0@note_on channel=0 note=53 velocity=59 time=0@note_off channel=0 note=69 velocity=0 time=0.01171875@note_on channel=0 note=71 velocity=55 time=0.88828125@note_off channel=0 note=72 velocity=0 time=0.01640625@note_on channel=0 note=69 velocity=48 time=0.28359375@note_off channel=0 note=71 velocity=0 time=0.0046875@note_on channel=0 note=67 velocity=59 time=0.5953125@note_off channel=0 note=53 velocity=0 time=0@note_on channel=0 note=60 velocity=72 time=0@note_off channel=0 note=69 velocity=0 time=0.01171875@note_on channel=0 note=69 velocity=61 time=0.88828125@note_off channel=0 note=67 velocity=0 time=0.01640625@note_on channel=0 note=67 velocity=67 time=0.28359375@note_off channel=0 note=69 velocity=0 time=0.0046875@note_on channel=0 note=64 velocity=66 time=0.5953125@note_off channel=0 note=60 velocity=0 time=0@note_on channel=0 note=60 velocity=65 time=0@note_off channel=0 note=67 velocity=0 time=0.01171875@note_off channel=0 note=64 velocity=0 time=1.696875@note_on channel=0 note=69 velocity=63 time=0.09140625@note_off channel=0 note=60 velocity=0 time=0@note_on channel=0 note=53 velocity=59 time=0@note_off channel=0 note=69 velocity=0 time=1.2@note_on channel=0 note=69 velocity=62 time=0@note_on channel=0 note=72 velocity=70 time=0.6@note_off channel=0 note=53 velocity=0 time=0@note_on channel=0 note=53 velocity=57 time=0@note_off channel=0 note=69 velocity=0 time=0.01171875@note_on channel=0 note=71 velocity=60 time=0.88828125@note_off channel=0 note=72 velocity=0 time=0.01640625@note_on channel=0 note=69 velocity=53 time=0.28359375@note_off channel=0 note=71 velocity=0 time=0.0046875@note_on channel=0 note=67 velocity=59 time=0.5953125@note_off channel=0 note=53 velocity=0 time=0@note_on channel=0 note=60 velocity=68 time=0@note_off channel=0 note=69 velocity=0 time=0.01171875@note_on channel=0 note=69 velocity=62 time=0.88828125@note_off channel=0 note=67 velocity=0 time=0.01640625@note_on channel=0 note=67 velocity=60 time=0.28359375@note_off channel=0 note=69 velocity=0 time=0.0046875@note_on channel=0 note=64 velocity=51 time=0.5953125@note_off channel=0 note=60 velocity=0 time=0@note_on channel=0 note=60 velocity=58 time=0@note_off channel=0 note=67 velocity=0 time=0.01171875@note_off channel=0 note=60 velocity=0 time=0.58828125@note_on channel=0 note=59 velocity=55 time=0@note_off channel=0 note=59 velocity=0 time=0.6@note_on channel=0 note=57 velocity=60 time=0@note_off channel=0 note=64 velocity=0 time=0.50859375@note_on channel=0 note=74 velocity=74 time=0.09140625@note_off channel=0 note=57 velocity=0 time=0@note_on channel=0 note=55 velocity=57 time=0@note_off channel=0 note=74 velocity=0 time=1.2@note_on channel=0 note=74 velocity=68 time=0@note_on channel=0 note=77 velocity=72 time=0.6@note_off channel=0 note=55 velocity=0 time=0@note_on channel=0 note=55 velocity=67 time=0@note_off channel=0 note=74 velocity=0 time=0.01171875@note_on channel=0 note=74 velocity=59 time=0.58828125@note_off channel=0 note=77 velocity=0 time=0.01171875@note_on channel=0 note=71 velocity=64 time=0.58828125@note_off channel=0 note=74 velocity=0 time=0.01171875@note_on channel=0 note=72 velocity=80 time=0.58828125@note_off channel=0 note=55 velocity=0 time=0@note_on channel=0 note=60 velocity=83 time=0@note_off channel=0 note=71 velocity=0 time=0.01171875@note_on channel=0 note=76 velocity=76 time=1.78828125@note_off channel=0 note=60 velocity=0 time=0@note_on channel=0 note=60 velocity=66 time=0@note_off channel=0 note=72 velocity=0 time=0.03515625@note_off channel=0 note=76 velocity=0 time=1.6734375@note_on channel=0 note=72 velocity=53 time=0.09140625@note_off channel=0 note=60 velocity=0 time=0@note_on channel=0 note=60 velocity=64 time=0@note_on channel=0 note=67 velocity=45 time=0.6@note_off channel=0 note=72 velocity=0 time=0.01171875@note_on channel=0 note=64 velocity=58 time=0.58828125@note_off channel=0 note=67 velocity=0 time=0.01171875@note_on channel=0 note=67 velocity=62 time=0.58828125@note_off channel=0 note=60 velocity=0 time=0@note_on channel=0 note=55 velocity=56 time=0@note_off channel=0 note=64 velocity=0 time=0.01171875@note_on channel=0 note=65 velocity=55 time=0.88828125@note_off channel=0 note=67 velocity=0 time=0.01640625@note_on channel=0 note=62 velocity=47 time=0.28359375@note_off channel=0 note=65 velocity=0 time=0.0046875@note_on channel=0 note=60 velocity=59 time=0.5953125@note_off channel=0 note=55 velocity=0 time=0@note_on channel=0 note=60 velocity=68 time=0@note_off channel=0 note=62 velocity=0 time=0.01171875@note_off channel=0 note=60 velocity=0 time=1.696875@note_off channel=0 note=60 velocity=0 time=0.09140625@<meta message end_of_track time=0.00234375>@