<meta message time_signature numerator=4 denominator=4 clocks_per_click=24 notated_32nd_notes_per_beat=8 time=0>@<meta message key_signature key='Bb' time=0>@<meta message set_tempo tempo=387097 time=0>@control_change channel=0 control=121 value=0 time=0@program_change channel=0 program=73 time=0@control_change channel=0 control=7 value=100 time=0@control_change channel=0 control=10 value=64 time=0@control_change channel=0 control=91 value=0 time=0@control_change channel=0 control=93 value=0 time=0@<meta message midi_port port=0 time=0>@<meta message key_signature key='C' time=0>@control_change channel=1 control=121 value=0 time=0@program_change channel=1 program=71 time=0@control_change channel=1 control=7 value=100 time=0@control_change channel=1 control=10 value=64 time=0@control_change channel=1 control=91 value=0 time=0@control_change channel=1 control=93 value=0 time=0@<meta message midi_port port=0 time=0>@<meta message key_signature key='G' time=0>@control_change channel=2 control=121 value=0 time=0@program_change channel=2 program=65 time=0@control_change channel=2 control=7 value=100 time=0@control_change channel=2 control=10 value=64 time=0@control_change channel=2 control=91 value=0 time=0@control_change channel=2 control=93 value=0 time=0@<meta message midi_port port=0 time=0>@<meta message key_signature key='G' time=0>@control_change channel=3 control=121 value=0 time=0@program_change channel=3 program=65 time=0@control_change channel=3 control=7 value=100 time=0@control_change channel=3 control=10 value=64 time=0@control_change channel=3 control=91 value=0 time=0@control_change channel=3 control=93 value=0 time=0@<meta message midi_port port=0 time=0>@<meta message key_signature key='C' time=0>@control_change channel=4 control=121 value=0 time=0@program_change channel=4 program=66 time=0@control_change channel=4 control=7 value=100 time=0@control_change channel=4 control=10 value=64 time=0@control_change channel=4 control=91 value=0 time=0@control_change channel=4 control=93 value=0 time=0@<meta message midi_port port=0 time=0>@<meta message key_signature key='Bb' time=0>@control_change channel=5 control=121 value=0 time=0@program_change channel=5 program=56 time=0@control_change channel=5 control=7 value=100 time=0@control_change channel=5 control=10 value=64 time=0@control_change channel=5 control=91 value=0 time=0@control_change channel=5 control=93 value=0 time=0@<meta message midi_port port=0 time=0>@control_change channel=6 control=121 value=0 time=0@program_change channel=6 program=59 time=0@control_change channel=6 control=7 value=100 time=0@control_change channel=6 control=10 value=64 time=0@control_change channel=6 control=91 value=0 time=0@control_change channel=6 control=93 value=0 time=0@<meta message midi_port port=0 time=0>@<meta message key_signature key='Bb' time=0>@control_change channel=7 control=121 value=0 time=0@program_change channel=7 program=57 time=0@control_change channel=7 control=7 value=100 time=0@control_change channel=7 control=10 value=64 time=0@control_change channel=7 control=91 value=0 time=0@control_change channel=7 control=93 value=0 time=0@<meta message midi_port port=0 time=0>@note_on channel=7 note=43 velocity=64 time=0@<meta message key_signature key='Bb' time=0>@control_change channel=8 control=121 value=0 time=0@program_change channel=8 program=34 time=0@control_change channel=8 control=7 value=100 time=0@control_change channel=8 control=10 value=64 time=0@control_change channel=8 control=91 value=0 time=0@control_change channel=8 control=93 value=0 time=0@<meta message midi_port port=0 time=0>@note_on channel=8 note=31 velocity=112 time=0@<meta message key_signature key='C' time=0>@control_change channel=9 control=121 value=0 time=0@program_change channel=9 program=0 time=0@control_change channel=9 control=7 value=100 time=0@control_change channel=9 control=10 value=64 time=0@control_change channel=9 control=91 value=0 time=0@control_change channel=9 control=93 value=0 time=0@<meta message midi_port port=0 time=0>@note_on channel=9 note=41 velocity=80 time=0@note_on channel=9 note=49 velocity=80 time=0@note_on channel=9 note=36 velocity=80 time=0@<meta message key_signature key='C' time=0>@control_change channel=9 control=121 value=0 time=0@program_change channel=9 program=0 time=0@control_change channel=9 control=7 value=100 time=0@control_change channel=9 control=10 value=64 time=0@control_change channel=9 control=91 value=0 time=0@control_change channel=9 control=93 value=0 time=0@<meta message midi_port port=1 time=0>@<meta message key_signature key='Bb' time=0>@control_change channel=10 control=121 value=0 time=0@program_change channel=10 program=13 time=0@control_change channel=10 control=7 value=100 time=0@control_change channel=10 control=10 value=64 time=0@control_change channel=10 control=91 value=0 time=0@control_change channel=10 control=93 value=0 time=0@<meta message midi_port port=0 time=0>@<meta message key_signature key='Bb' time=0>@control_change channel=11 control=121 value=0 time=0@program_change channel=11 program=9 time=0@control_change channel=11 control=7 value=100 time=0@control_change channel=11 control=10 value=64 time=0@control_change channel=11 control=91 value=0 time=0@control_change channel=11 control=93 value=0 time=0@<meta message midi_port port=0 time=0>@note_on channel=7 note=43 velocity=0 time=0.19274204791666663@note_on channel=8 note=31 velocity=0 time=0@note_on channel=7 note=43 velocity=64 time=0.0008064520833333332@note_on channel=8 note=31 velocity=112 time=0@note_on channel=9 note=41 velocity=0 time=0.19274204791666663@note_on channel=9 note=49 velocity=0 time=0@note_on channel=9 note=36 velocity=0 time=0@note_on channel=9 note=38 velocity=80 time=0.0008064520833333332@note_on channel=9 note=46 velocity=80 time=0@note_on channel=9 note=36 velocity=80 time=0@note_on channel=7 note=43 velocity=0 time=0.19274204791666663@note_on channel=8 note=31 velocity=0 time=0@note_on channel=9 note=38 velocity=0 time=0@note_on channel=9 note=46 velocity=0 time=0@note_on channel=7 note=43 velocity=64 time=0.0008064520833333332@note_on channel=8 note=31 velocity=112 time=0@note_on channel=9 note=38 velocity=80 time=0@note_on channel=7 note=43 velocity=0 time=0.19274204791666663@note_on channel=8 note=31 velocity=0 time=0@note_on channel=9 note=36 velocity=0 time=0@note_on channel=9 note=38 velocity=0 time=0@note_on channel=7 note=43 velocity=64 time=0.0008064520833333332@note_on channel=8 note=31 velocity=112 time=0@note_on channel=9 note=41 velocity=80 time=0@note_on channel=9 note=46 velocity=80 time=0@note_on channel=9 note=36 velocity=80 time=0@note_on channel=9 note=41 velocity=0 time=0.19274204791666663@note_on channel=9 note=46 velocity=0 time=0@note_on channel=9 note=41 velocity=80 time=0.0008064520833333332@note_on channel=7 note=43 velocity=0 time=0.19274204791666663@note_on channel=8 note=31 velocity=0 time=0@note_on channel=9 note=36 velocity=0 time=0@note_on channel=9 note=41 velocity=0 time=0@note_on channel=7 note=43 velocity=64 time=0.0008064520833333332@note_on channel=8 note=31 velocity=112 time=0@note_on channel=9 note=38 velocity=80 time=0@note_on channel=9 note=46 velocity=80 time=0@note_on channel=9 note=36 velocity=80 time=0@note_on channel=7 note=43 velocity=0 time=0.19274204791666663@note_on channel=8 note=31 velocity=0 time=0@note_on channel=9 note=38 velocity=0 time=0@note_on channel=9 note=46 velocity=0 time=0@note_on channel=7 note=43 velocity=64 time=0.0008064520833333332@note_on channel=8 note=31 velocity=112 time=0@note_on channel=9 note=36 velocity=0 time=0.19274204791666663@note_on channel=9 note=41 velocity=80 time=0.0008064520833333332@note_on channel=9 note=46 velocity=80 time=0@note_on channel=9 note=36 velocity=80 time=0@note_on channel=7 note=43 velocity=0 time=0.19274204791666663@note_on channel=8 note=31 velocity=0 time=0@note_on channel=9 note=41 velocity=0 time=0@note_on channel=9 note=46 velocity=0 time=0@note_on channel=7 note=43 velocity=64 time=0.0008064520833333332@note_on channel=8 note=31 velocity=112 time=0@note_on channel=9 note=41 velocity=80 time=0@note_on channel=9 note=41 velocity=0 time=0.09596779791666665@note_on channel=9 note=41 velocity=80 time=0.0008064520833333332@note_on channel=9 note=36 velocity=0 time=0.09596779791666665@note_on channel=9 note=41 velocity=0 time=0@note_on channel=9 note=38 velocity=80 time=0.0008064520833333332@note_on channel=9 note=46 velocity=80 time=0@note_on channel=9 note=36 velocity=80 time=0@note_on channel=7 note=43 velocity=0 time=0.19274204791666663@note_on channel=8 note=31 velocity=0 time=0@note_on channel=9 note=38 velocity=0 time=0@note_on channel=9 note=46 velocity=0 time=0@note_on channel=7 note=43 velocity=64 time=0.0008064520833333332@note_on channel=8 note=31 velocity=112 time=0@note_on channel=9 note=38 velocity=80 time=0@note_on channel=7 note=43 velocity=0 time=0.19274204791666663@note_on channel=8 note=31 velocity=0 time=0@note_on channel=9 note=36 velocity=0 time=0@note_on channel=9 note=38 velocity=0 time=0@note_on channel=7 note=43 velocity=64 time=0.0008064520833333332@note_on channel=8 note=31 velocity=112 time=0@note_on channel=9 note=41 velocity=80 time=0@note_on channel=9 note=46 velocity=80 time=0@note_on channel=9 note=36 velocity=80 time=0@note_on channel=9 note=41 velocity=0 time=0.19274204791666663@note_on channel=9 note=46 velocity=0 time=0@note_on channel=9 note=41 velocity=80 time=0.0008064520833333332@note_on channel=7 note=43 velocity=0 time=0.19274204791666663@note_on channel=8 note=31 velocity=0 time=0@note_on channel=9 note=36 velocity=0 time=0@note_on channel=9 note=41 velocity=0 time=0@note_on channel=7 note=43 velocity=64 time=0.0008064520833333332@note_on channel=8 note=31 velocity=112 time=0@note_on channel=9 note=38 velocity=80 time=0@note_on channel=9 note=46 velocity=80 time=0@note_on channel=9 note=36 velocity=80 time=0@note_on channel=7 note=43 velocity=0 time=0.19274204791666663@note_on channel=8 note=31 velocity=0 time=0@note_on channel=9 note=38 velocity=0 time=0@note_on channel=9 note=46 velocity=0 time=0@note_on channel=7 note=43 velocity=64 time=0.0008064520833333332@note_on channel=8 note=31 velocity=112 time=0@note_on channel=9 note=36 velocity=0 time=0.19274204791666663@note_on channel=9 note=41 velocity=80 time=0.0008064520833333332@note_on channel=9 note=49 velocity=80 time=0@note_on channel=9 note=36 velocity=80 time=0@note_on channel=7 note=43 velocity=0 time=0.19274204791666663@note_on channel=8 note=31 velocity=0 time=0@note_on channel=7 note=43 velocity=64 time=0.0008064520833333332@note_on channel=8 note=31 velocity=112 time=0@note_on channel=9 note=41 velocity=0 time=0.19274204791666663@note_on channel=9 note=49 velocity=0 time=0@note_on channel=9 note=36 velocity=0 time=0@note_on channel=9 note=38 velocity=80 time=0.0008064520833333332@note_on channel=9 note=46 velocity=80 time=0@note_on channel=9 note=36 velocity=80 time=0@note_on channel=7 note=43 velocity=0 time=0.19274204791666663@note_on channel=8 note=31 velocity=0 time=0@note_on channel=9 note=38 velocity=0 time=0@note_on channel=9 note=46 velocity=0 time=0@note_on channel=7 note=43 velocity=64 time=0.0008064520833333332@note_on channel=8 note=31 velocity=112 time=0@note_on channel=9 note=38 velocity=80 time=0@note_on channel=7 note=43 velocity=0 time=0.19274204791666663@note_on channel=8 note=31 velocity=0 time=0@note_on channel=9 note=36 velocity=0 time=0@note_on channel=9 note=38 velocity=0 time=0@note_on channel=7 note=43 velocity=64 time=0.0008064520833333332@note_on channel=8 note=31 velocity=112 time=0@note_on channel=9 note=41 velocity=80 time=0@note_on channel=9 note=46 velocity=80 time=0@note_on channel=9 note=36 velocity=80 time=0@note_on channel=9 note=41 velocity=0 time=0.19274204791666663@note_on channel=9 note=46 velocity=0 time=0@note_on channel=9 note=41 velocity=80 time=0.0008064520833333332@note_on channel=7 note=43 velocity=0 time=0.19274204791666663@note_on channel=8 note=31 velocity=0 time=0@note_on channel=9 note=36 velocity=0 time=0@note_on channel=9 note=41 velocity=0 time=0@note_on channel=7 note=43 velocity=64 time=0.0008064520833333332@note_on channel=8 note=31 velocity=112 time=0@note_on channel=9 note=38 velocity=80 time=0@note_on channel=9 note=46 velocity=80 time=0@note_on channel=9 note=36 velocity=80 time=0@note_on channel=7 note=43 velocity=0 time=0.19274204791666663@note_on channel=8 note=31 velocity=0 time=0@note_on channel=9 note=38 velocity=0 time=0@note_on channel=9 note=46 velocity=0 time=0@note_on channel=7 note=43 velocity=64 time=0.0008064520833333332@note_on channel=8 note=31 velocity=112 time=0@note_on channel=9 note=36 velocity=0 time=0.19274204791666663@note_on channel=9 note=41 velocity=80 time=0.0008064520833333332@note_on channel=9 note=46 velocity=80 time=0@note_on channel=9 note=36 velocity=80 time=0@note_on channel=7 note=43 velocity=0 time=0.19274204791666663@note_on channel=8 note=31 velocity=0 time=0@note_on channel=9 note=41 velocity=0 time=0@note_on channel=9 note=46 velocity=0 time=0@note_on channel=7 note=43 velocity=64 time=0.0008064520833333332@note_on channel=8 note=31 velocity=112 time=0@note_on channel=9 note=41 velocity=80 time=0@note_on channel=9 note=41 velocity=0 time=0.09596779791666665@note_on channel=9 note=41 velocity=80 time=0.0008064520833333332@note_on channel=9 note=36 velocity=0 time=0.09596779791666665@note_on channel=9 note=41 velocity=0 time=0@note_on channel=9 note=38 velocity=80 time=0.0008064520833333332@note_on channel=9 note=46 velocity=80 time=0@note_on channel=9 note=36 velocity=80 time=0@note_on channel=7 note=43 velocity=0 time=0.19274204791666663@note_on channel=8 note=31 velocity=0 time=0@note_on channel=9 note=38 velocity=0 time=0@note_on channel=9 note=46 velocity=0 time=0@note_on channel=7 note=43 velocity=64 time=0.0008064520833333332@note_on channel=8 note=31 velocity=112 time=0@note_on channel=9 note=38 velocity=80 time=0@note_on channel=7 note=43 velocity=0 time=0.19274204791666663@note_on channel=8 note=31 velocity=0 time=0@note_on channel=9 note=36 velocity=0 time=0@note_on channel=9 note=38 velocity=0 time=0@note_on channel=7 note=43 velocity=64 time=0.0008064520833333332@note_on channel=8 note=31 velocity=112 time=0@note_on channel=9 note=41 velocity=80 time=0@note_on channel=9 note=46 velocity=80 time=0@note_on channel=9 note=36 velocity=80 time=0@note_on channel=9 note=41 velocity=0 time=0.19274204791666663@note_on channel=9 note=46 velocity=0 time=0@note_on channel=7 note=43 velocity=0 time=0.19354849999999998@note_on channel=8 note=31 velocity=0 time=0@note_on channel=9 note=36 velocity=0 time=0@note_on channel=7 note=55 velocity=127 time=0.0008064520833333332@note_on channel=7 note=55 velocity=0 time=0.3862905479166666@note_on channel=1 note=70 velocity=96 time=0.0008064520833333332@note_on channel=2 note=70 velocity=96 time=0@note_on channel=4 note=58 velocity=80 time=0@note_on channel=4 note=62 velocity=80 time=0@note_on channel=5 note=67 velocity=80 time=0@note_on channel=5 note=70 velocity=80 time=0@note_on channel=7 note=43 velocity=80 time=0@note_on channel=8 note=31 velocity=112 time=0@note_on channel=9 note=42 velocity=80 time=0@note_on channel=9 note=36 velocity=80 time=0@note_on channel=9 note=49 velocity=80 time=0@note_on channel=10 note=74 velocity=80 time=0@note_on channel=1 note=70 velocity=0 time=0.09596779791666665@note_on channel=2 note=70 velocity=0 time=0@note_on channel=10 note=74 velocity=0 time=0@note_on channel=10 note=74 velocity=80 time=0.0008064520833333332@note_on channel=8 note=31 velocity=0 time=0.09596779791666665@note_on channel=10 note=74 velocity=0 time=0@note_on channel=1 note=69 velocity=96 time=0.0008064520833333332@note_on channel=2 note=69 velocity=96 time=0@note_on channel=8 note=31 velocity=112 time=0@note_on channel=10 note=74 velocity=80 time=0@note_on channel=1 note=69 velocity=0 time=0.09596779791666665@note_on channel=2 note=69 velocity=0 time=0@note_on channel=10 note=74 velocity=0 time=0@note_on channel=3 note=62 velocity=80 time=0.0008064520833333332@note_on channel=10 note=74 velocity=80 time=0@note_on channel=3 note=62 velocity=0 time=0.09596779791666665@note_on channel=4 note=58 velocity=0 time=0@note_on channel=4 note=62 velocity=0 time=0@note_on channel=5 note=67 velocity=0 time=0@note_on channel=5 note=70 velocity=0 time=0@note_on channel=9 note=42 velocity=0 time=0@note_on channel=9 note=36 velocity=0 time=0@note_on channel=9 note=49 velocity=0 time=0@note_on channel=10 note=74 velocity=0 time=0@note_on channel=1 note=70 velocity=96 time=0.0008064520833333332@note_on channel=2 note=70 velocity=96 time=0@note_on channel=9 note=38 velocity=80 time=0@note_on channel=9 note=42 velocity=80 time=0@note_on channel=10 note=74 velocity=80 time=0@note_on channel=1 note=70 velocity=0 time=0.09596779791666665@note_on channel=2 note=70 velocity=0 time=0@note_on channel=10 note=74 velocity=0 time=0@note_on channel=3 note=62 velocity=80 time=0.0008064520833333332@note_on channel=10 note=74 velocity=80 time=0@note_on channel=3 note=62 velocity=0 time=0.09596779791666665@note_on channel=8 note=31 velocity=0 time=0@note_on channel=9 note=38 velocity=0 time=0@note_on channel=9 note=42 velocity=0 time=0@note_on channel=10 note=74 velocity=0 time=0@note_on channel=1 note=67 velocity=96 time=0.0008064520833333332@note_on channel=2 note=67 velocity=96 time=0@note_on channel=8 note=31 velocity=112 time=0@note_on channel=9 note=42 velocity=80 time=0@note_on channel=9 note=36 velocity=80 time=0@note_on channel=10 note=74 velocity=80 time=0@note_on channel=1 note=67 velocity=0 time=0.09596779791666665@note_on channel=2 note=67 velocity=0 time=0@note_on channel=9 note=42 velocity=0 time=0@note_on channel=9 note=36 velocity=0 time=0@note_on channel=10 note=74 velocity=0 time=0@note_on channel=3 note=62 velocity=80 time=0.0008064520833333332@note_on channel=9 note=42 velocity=80 time=0@note_on channel=9 note=36 velocity=80 time=0@note_on channel=10 note=74 velocity=80 time=0@note_on channel=3 note=62 velocity=0 time=0.09596779791666665@note_on channel=9 note=42 velocity=0 time=0@note_on channel=9 note=36 velocity=0 time=0@note_on channel=10 note=74 velocity=0 time=0@note_on channel=1 note=70 velocity=96 time=0.0008064520833333332@note_on channel=2 note=70 velocity=96 time=0@note_on channel=9 note=42 velocity=80 time=0@note_on channel=9 note=36 velocity=80 time=0@note_on channel=10 note=74 velocity=80 time=0@note_on channel=1 note=70 velocity=0 time=0.09596779791666665@note_on channel=2 note=70 velocity=0 time=0@note_on channel=10 note=74 velocity=0 time=0@note_on channel=3 note=62 velocity=80 time=0.0008064520833333332@note_on channel=10 note=74 velocity=80 time=0@note_on channel=3 note=62 velocity=0 time=0.09596779791666665@note_on channel=8 note=31 velocity=0 time=0@note_on channel=9 note=42 velocity=0 time=0@note_on channel=9 note=36 velocity=0 time=0@note_on channel=10 note=74 velocity=0 time=0@note_on channel=1 note=69 velocity=96 time=0.0008064520833333332@note_on channel=2 note=69 velocity=96 time=0@note_on channel=8 note=31 velocity=112 time=0@note_on channel=9 note=42 velocity=80 time=0@note_on channel=9 note=36 velocity=80 time=0@note_on channel=10 note=74 velocity=80 time=0@note_on channel=1 note=69 velocity=0 time=0.09596779791666665@note_on channel=2 note=69 velocity=0 time=0@note_on channel=10 note=74 velocity=0 time=0@note_on channel=3 note=62 velocity=80 time=0.0008064520833333332@note_on channel=10 note=74 velocity=80 time=0@note_on channel=3 note=62 velocity=0 time=0.09596779791666665@note_on channel=9 note=42 velocity=0 time=0@note_on channel=9 note=36 velocity=0 time=0@note_on channel=10 note=74 velocity=0 time=0@note_on channel=1 note=70 velocity=96 time=0.0008064520833333332@note_on channel=2 note=70 velocity=96 time=0@note_on channel=9 note=42 velocity=80 time=0@note_on channel=9 note=38 velocity=80 time=0@note_on channel=10 note=74 velocity=80 time=0@note_on channel=1 note=70 velocity=0 time=0.09596779791666665@note_on channel=2 note=70 velocity=0 time=0@note_on channel=10 note=74 velocity=0 time=0@note_on channel=3 note=62 velocity=80 time=0.0008064520833333332@note_on channel=10 note=74 velocity=80 time=0@note_on channel=3 note=62 velocity=0 time=0.09596779791666665@note_on channel=7 note=43 velocity=0 time=0@note_on channel=8 note=31 velocity=0 time=0@note_on channel=9 note=42 velocity=0 time=0@note_on channel=10 note=74 velocity=0 time=0@note_on channel=1 note=67 velocity=96 time=0.0008064520833333332@note_on channel=2 note=67 velocity=96 time=0@note_on channel=7 note=43 velocity=80 time=0@note_on channel=8 note=31 velocity=80 time=0@note_on channel=9 note=42 velocity=80 time=0@note_on channel=9 note=49 velocity=80 time=0@note_on channel=10 note=74 velocity=80 time=0@note_on channel=1 note=67 velocity=0 time=0.09596779791666665@note_on channel=2 note=67 velocity=0 time=0@note_on channel=9 note=42 velocity=0 time=0@note_on channel=10 note=74 velocity=0 time=0@note_on channel=3 note=62 velocity=80 time=0.0008064520833333332@note_on channel=9 note=42 velocity=80 time=0@note_on channel=10 note=74 velocity=80 time=0@note_on channel=3 note=62 velocity=0 time=0.09596779791666665@note_on channel=7 note=43 velocity=0 time=0@note_on channel=9 note=38 velocity=0 time=0@note_on channel=9 note=42 velocity=0 time=0@note_on channel=9 note=49 velocity=0 time=0@note_on channel=10 note=74 velocity=0 time=0@note_on channel=1 note=69 velocity=96 time=0.0008064520833333332@note_on channel=2 note=69 velocity=96 time=0@note_on channel=4 note=57 velocity=80 time=0@note_on channel=4 note=62 velocity=80 time=0@note_on channel=5 note=66 velocity=80 time=0@note_on channel=5 note=69 velocity=80 time=0@note_on channel=7 note=43 velocity=80 time=0@note_on channel=9 note=42 velocity=80 time=0@note_on channel=9 note=36 velocity=80 time=0@note_on channel=9 note=49 velocity=80 time=0@note_on channel=10 note=74 velocity=80 time=0@note_on channel=1 note=69 velocity=0 time=0.09596779791666665@note_on channel=2 note=69 velocity=0 time=0@note_on channel=10 note=74 velocity=0 time=0@note_on channel=10 note=74 velocity=80 time=0.0008064520833333332@note_on channel=8 note=31 velocity=0 time=0.09596779791666665@note_on channel=10 note=74 velocity=0 time=0@note_on channel=1 note=67 velocity=96 time=0.0008064520833333332@note_on channel=2 note=67 velocity=96 time=0@note_on channel=8 note=31 velocity=80 time=0@note_on channel=10 note=74 velocity=80 time=0@note_on channel=1 note=67 velocity=0 time=0.09596779791666665@note_on channel=2 note=67 velocity=0 time=0@note_on channel=10 note=74 velocity=0 time=0@note_on channel=3 note=62 velocity=80 time=0.0008064520833333332@note_on channel=10 note=74 velocity=80 time=0@note_on channel=3 note=62 velocity=0 time=0.09596779791666665@note_on channel=4 note=57 velocity=0 time=0@note_on channel=4 note=62 velocity=0 time=0@note_on channel=5 note=66 velocity=0 time=0@note_on channel=5 note=69 velocity=0 time=0@note_on channel=9 note=42 velocity=0 time=0@note_on channel=9 note=36 velocity=0 time=0@note_on channel=9 note=49 velocity=0 time=0@note_on channel=10 note=74 velocity=0 time=0@note_on channel=1 note=69 velocity=96 time=0.0008064520833333332@note_on channel=2 note=69 velocity=96 time=0@note_on channel=9 note=38 velocity=80 time=0@note_on channel=9 note=42 velocity=80 time=0@note_on channel=10 note=74 velocity=80 time=0@note_on channel=1 note=69 velocity=0 time=0.09596779791666665@note_on channel=2 note=69 velocity=0 time=0@note_on channel=10 note=74 velocity=0 time=0@note_on channel=3 note=62 velocity=80 time=0.0008064520833333332@note_on channel=10 note=74 velocity=80 time=0@note_on channel=3 note=62 velocity=0 time=0.09596779791666665@note_on channel=8 note=31 velocity=0 time=0@note_on channel=9 note=38 velocity=0 time=0@note_on channel=9 note=42 velocity=0 time=0@note_on channel=10 note=74 velocity=0 time=0@note_on channel=1 note=66 velocity=96 time=0.0008064520833333332@note_on channel=2 note=66 velocity=96 time=0@note_on channel=8 note=31 velocity=80 time=0@note_on channel=9 note=42 velocity=80 time=0@note_on channel=9 note=36 velocity=80 time=0@note_on channel=10 note=74 velocity=80 time=0@note_on channel=1 note=66 velocity=0 time=0.09596779791666665@note_on channel=2 note=66 velocity=0 time=0@note_on channel=9 note=42 velocity=0 time=0@note_on channel=9 note=36 velocity=0 time=0@note_on channel=10 note=74 velocity=0 time=0@note_on channel=3 note=62 velocity=80 time=0.0008064520833333332@note_on channel=9 note=42 velocity=80 time=0@note_on channel=9 note=36 velocity=80 time=0@note_on channel=10 note=74 velocity=80 time=0@note_on channel=3 note=62 velocity=0 time=0.09596779791666665@note_on channel=9 note=42 velocity=0 time=0@note_on channel=9 note=36 velocity=0 time=0@note_on channel=10 note=74 velocity=0 time=0@note_on channel=1 note=69 velocity=96 time=0.0008064520833333332@note_on channel=2 note=69 velocity=96 time=0@note_on channel=9 note=42 velocity=80 time=0@note_on channel=9 note=36 velocity=80 time=0@note_on channel=10 note=74 velocity=80 time=0@note_on channel=1 note=69 velocity=0 time=0.09596779791666665@note_on channel=2 note=69 velocity=0 time=0@note_on channel=10 note=74 velocity=0 time=0@note_on channel=3 note=62 velocity=80 time=0.0008064520833333332@note_on channel=10 note=74 velocity=80 time=0@note_on channel=3 note=62 velocity=0 time=0.09596779791666665@note_on channel=8 note=31 velocity=0 time=0@note_on channel=9 note=42 velocity=0 time=0@note_on channel=9 note=36 velocity=0 time=0@note_on channel=10 note=74 velocity=0 time=0@note_on channel=1 note=67 velocity=96 time=0.0008064520833333332@note_on channel=2 note=67 velocity=96 time=0@note_on channel=8 note=31 velocity=80 time=0@note_on channel=9 note=42 velocity=80 time=0@note_on channel=9 note=36 velocity=80 time=0@note_on channel=10 note=74 velocity=80 time=0@note_on channel=1 note=67 velocity=0 time=0.09596779791666665@note_on channel=2 note=67 velocity=0 time=0@note_on channel=10 note=74 velocity=0 time=0@note_on channel=3 note=62 velocity=80 time=0.0008064520833333332@note_on channel=10 note=74 velocity=80 time=0@note_on channel=3 note=62 velocity=0 time=0.09596779791666665@note_on channel=9 note=42 velocity=0 time=0@note_on channel=9 note=36 velocity=0 time=0@note_on channel=10 note=74 velocity=0 time=0@note_on channel=1 note=69 velocity=96 time=0.0008064520833333332@note_on channel=2 note=69 velocity=96 time=0@note_on channel=9 note=42 velocity=80 time=0@note_on channel=9 note=38 velocity=80 time=0@note_on channel=10 note=74 velocity=80 time=0@note_on channel=1 note=69 velocity=0 time=0.09596779791666665@note_on channel=2 note=69 velocity=0 time=0@note_on channel=10 note=74 velocity=0 time=0@note_on channel=3 note=62 velocity=80 time=0.0008064520833333332@note_on channel=10 note=74 velocity=80 time=0@note_on channel=3 note=62 velocity=0 time=0.09596779791666665@note_on channel=7 note=43 velocity=0 time=0@note_on channel=8 note=31 velocity=0 time=0@note_on channel=9 note=42 velocity=0 time=0@note_on channel=10 note=74 velocity=0 time=0@note_on channel=1 note=66 velocity=96 time=0.0008064520833333332@note_on channel=2 note=66 velocity=96 time=0@note_on channel=7 note=43 velocity=80 time=0@note_on channel=8 note=31 velocity=80 time=0@note_on channel=9 note=42 velocity=80 time=0@note_on channel=9 note=49 velocity=80 time=0@note_on channel=10 note=74 velocity=80 time=0@note_on channel=1 note=66 velocity=0 time=0.09596779791666665@note_on channel=2 note=66 velocity=0 time=0@note_on channel=9 note=42 velocity=0 time=0@note_on channel=10 note=74 velocity=0 time=0@note_on channel=3 note=62 velocity=80 time=0.0008064520833333332@note_on channel=9 note=42 velocity=80 time=0@note_on channel=10 note=74 velocity=80 time=0@note_on channel=3 note=62 velocity=0 time=0.09596779791666665@note_on channel=7 note=43 velocity=0 time=0@note_on channel=9 note=38 velocity=0 time=0@note_on channel=9 note=42 velocity=0 time=0@note_on channel=9 note=49 velocity=0 time=0@note_on channel=10 note=74 velocity=0 time=0@note_on channel=1 note=72 velocity=96 time=0.0008064520833333332@note_on channel=2 note=72 velocity=96 time=0@note_on channel=4 note=57 velocity=80 time=0@note_on channel=4 note=62 velocity=80 time=0@note_on channel=5 note=66 velocity=80 time=0@note_on channel=5 note=72 velocity=80 time=0@note_on channel=7 note=43 velocity=80 time=0@note_on channel=9 note=42 velocity=80 time=0@note_on channel=9 note=36 velocity=80 time=0@note_on channel=9 note=49 velocity=80 time=0@note_on channel=10 note=75 velocity=80 time=0@note_on channel=1 note=72 velocity=0 time=0.09596779791666665@note_on channel=2 note=72 velocity=0 time=0@note_on channel=10 note=75 velocity=0 time=0@note_on channel=10 note=75 velocity=80 time=0.0008064520833333332@note_on channel=8 note=31 velocity=0 time=0.09596779791666665@note_on channel=10 note=75 velocity=0 time=0@note_on channel=1 note=70 velocity=96 time=0.0008064520833333332@note_on channel=2 note=70 velocity=96 time=0@note_on channel=8 note=31 velocity=80 time=0@note_on channel=10 note=75 velocity=80 time=0@note_on channel=1 note=70 velocity=0 time=0.09596779791666665@note_on channel=2 note=70 velocity=0 time=0@note_on channel=10 note=75 velocity=0 time=0@note_on channel=3 note=63 velocity=80 time=0.0008064520833333332@note_on channel=10 note=75 velocity=80 time=0@note_on channel=3 note=63 velocity=0 time=0.09596779791666665@note_on channel=4 note=57 velocity=0 time=0@note_on channel=4 note=62 velocity=0 time=0@note_on channel=5 note=66 velocity=0 time=0@note_on channel=5 note=72 velocity=0 time=0@note_on channel=9 note=42 velocity=0 time=0@note_on channel=9 note=36 velocity=0 time=0@note_on channel=9 note=49 velocity=0 time=0@note_on channel=10 note=75 velocity=0 time=0@note_on channel=1 note=72 velocity=96 time=0.0008064520833333332@note_on channel=2 note=72 velocity=96 time=0@note_on channel=9 note=38 velocity=80 time=0@note_on channel=9 note=42 velocity=80 time=0@note_on channel=10 note=75 velocity=80 time=0@note_on channel=1 note=72 velocity=0 time=0.09596779791666665@note_on channel=2 note=72 velocity=0 time=0@note_on channel=10 note=75 velocity=0 time=0@note_on channel=3 note=63 velocity=80 time=0.0008064520833333332@note_on channel=10 note=75 velocity=80 time=0@note_on channel=3 note=63 velocity=0 time=0.09596779791666665@note_on channel=8 note=31 velocity=0 time=0@note_on channel=9 note=38 velocity=0 time=0@note_on channel=9 note=42 velocity=0 time=0@note_on channel=10 note=75 velocity=0 time=0@note_on channel=1 note=67 velocity=96 time=0.0008064520833333332@note_on channel=2 note=67 velocity=96 time=0@note_on channel=8 note=31 velocity=80 time=0@note_on channel=9 note=42 velocity=80 time=0@note_on channel=9 note=36 velocity=80 time=0@note_on channel=10 note=75 velocity=80 time=0@note_on channel=1 note=67 velocity=0 time=0.09596779791666665@note_on channel=2 note=67 velocity=0 time=0@note_on channel=9 note=42 velocity=0 time=0@note_on channel=9 note=36 velocity=0 time=0@note_on channel=10 note=75 velocity=0 time=0@note_on channel=3 note=63 velocity=80 time=0.0008064520833333332@note_on channel=9 note=42 velocity=80 time=0@note_on channel=9 note=36 velocity=80 time=0@note_on channel=10 note=75 velocity=80 time=0@note_on channel=3 note=63 velocity=0 time=0.09596779791666665@note_on channel=9 note=42 velocity=0 time=0@note_on channel=9 note=36 velocity=0 time=0@note_on channel=10 note=75 velocity=0 time=0@note_on channel=1 note=72 velocity=96 time=0.0008064520833333332@note_on channel=2 note=72 velocity=96 time=0@note_on channel=9 note=42 velocity=80 time=0@note_on channel=9 note=36 velocity=80 time=0@note_on channel=10 note=75 velocity=80 time=0@note_on channel=1 note=72 velocity=0 time=0.09596779791666665@note_on channel=2 note=72 velocity=0 time=0@note_on channel=10 note=75 velocity=0 time=0@note_on channel=3 note=63 velocity=80 time=0.0008064520833333332@note_on channel=10 note=75 velocity=80 time=0@note_on channel=3 note=63 velocity=0 time=0.09596779791666665@note_on channel=8 note=31 velocity=0 time=0@note_on channel=9 note=42 velocity=0 time=0@note_on channel=9 note=36 velocity=0 time=0@note_on channel=10 note=75 velocity=0 time=0@note_on channel=1 note=70 velocity=96 time=0.0008064520833333332@note_on channel=2 note=70 velocity=96 time=0@note_on channel=8 note=31 velocity=80 time=0@note_on channel=9 note=42 velocity=80 time=0@note_on channel=9 note=36 velocity=80 time=0@note_on channel=10 note=75 velocity=80 time=0@note_on channel=1 note=70 velocity=0 time=0.09596779791666665@note_on channel=2 note=70 velocity=0 time=0@note_on channel=10 note=75 velocity=0 time=0@note_on channel=3 note=63 velocity=80 time=0.0008064520833333332@note_on channel=10 note=75 velocity=80 time=0@note_on channel=3 note=63 velocity=0 time=0.09596779791666665@note_on channel=9 note=42 velocity=0 time=0@note_on channel=9 note=36 velocity=0 time=0@note_on channel=10 note=75 velocity=0 time=0@note_on channel=1 note=72 velocity=96 time=0.0008064520833333332@note_on channel=2 note=72 velocity=96 time=0@note_on channel=9 note=42 velocity=80 time=0@note_on channel=9 note=38 velocity=80 time=0@note_on channel=10 note=75 velocity=80 time=0@note_on channel=1 note=72 velocity=0 time=0.09596779791666665@note_on channel=2 note=72 velocity=0 time=0@note_on channel=10 note=75 velocity=0 time=0@note_on channel=3 note=63 velocity=80 time=0.0008064520833333332@note_on channel=10 note=75 velocity=80 time=0@note_on channel=3 note=63 velocity=0 time=0.09596779791666665@note_on channel=7 note=43 velocity=0 time=0@note_on channel=8 note=31 velocity=0 time=0@note_on channel=9 note=42 velocity=0 time=0@note_on channel=10 note=75 velocity=0 time=0@note_on channel=1 note=67 velocity=96 time=0.0008064520833333332@note_on channel=2 note=67 velocity=96 time=0@note_on channel=7 note=43 velocity=80 time=0@note_on channel=8 note=31 velocity=80 time=0@note_on channel=9 note=42 velocity=80 time=0@note_on channel=9 note=49 velocity=80 time=0@note_on channel=10 note=75 velocity=80 time=0@note_on channel=1 note=67 velocity=0 time=0.09596779791666665@note_on channel=2 note=67 velocity=0 time=0@note_on channel=9 note=42 velocity=0 time=0@note_on channel=10 note=75 velocity=0 time=0@note_on channel=3 note=63 velocity=80 time=0.0008064520833333332@note_on channel=9 note=42 velocity=80 time=0@note_on channel=10 note=75 velocity=80 time=0@note_on channel=3 note=63 velocity=0 time=0.09596779791666665@note_on channel=7 note=43 velocity=0 time=0@note_on channel=9 note=38 velocity=0 time=0@note_on channel=9 note=42 velocity=0 time=0@note_on channel=9 note=49 velocity=0 time=0@note_on channel=10 note=75 velocity=0 time=0@note_on channel=1 note=69 velocity=96 time=0.0008064520833333332@note_on channel=2 note=69 velocity=96 time=0@note_on channel=4 note=57 velocity=80 time=0@note_on channel=4 note=62 velocity=80 time=0@note_on channel=5 note=62 velocity=80 time=0@note_on channel=5 note=66 velocity=80 time=0@note_on channel=7 note=43 velocity=80 time=0@note_on channel=9 note=42 velocity=80 time=0@note_on channel=9 note=36 velocity=80 time=0@note_on channel=9 note=49 velocity=80 time=0@note_on channel=10 note=74 velocity=80 time=0@note_on channel=1 note=69 velocity=0 time=0.09596779791666665@note_on channel=2 note=69 velocity=0 time=0@note_on channel=10 note=74 velocity=0 time=0@note_on channel=10 note=74 velocity=80 time=0.0008064520833333332@note_on channel=8 note=31 velocity=0 time=0.09596779791666665@note_on channel=10 note=74 velocity=0 time=0@note_on channel=1 note=67 velocity=96 time=0.0008064520833333332@note_on channel=2 note=67 velocity=96 time=0@note_on channel=8 note=31 velocity=80 time=0@note_on channel=10 note=74 velocity=80 time=0@note_on channel=1 note=67 velocity=0 time=0.09596779791666665@note_on channel=2 note=67 velocity=0 time=0@note_on channel=10 note=74 velocity=0 time=0@note_on channel=3 note=62 velocity=80 time=0.0008064520833333332@note_on channel=10 note=74 velocity=80 time=0@note_on channel=3 note=62 velocity=0 time=0.09596779791666665@note_on channel=4 note=57 velocity=0 time=0@note_on channel=4 note=62 velocity=0 time=0@note_on channel=5 note=62 velocity=0 time=0@note_on channel=5 note=66 velocity=0 time=0@note_on channel=9 note=42 velocity=0 time=0@note_on channel=9 note=36 velocity=0 time=0@note_on channel=9 note=49 velocity=0 time=0@note_on channel=10 note=74 velocity=0 time=0@note_on channel=1 note=69 velocity=96 time=0.0008064520833333332@note_on channel=2 note=69 velocity=96 time=0@note_on channel=9 note=38 velocity=80 time=0@note_on channel=9 note=42 velocity=80 time=0@note_on channel=10 note=74 velocity=80 time=0@note_on channel=1 note=69 velocity=0 time=0.09596779791666665@note_on channel=2 note=69 velocity=0 time=0@note_on channel=10 note=74 velocity=0 time=0@note_on channel=3 note=62 velocity=80 time=0.0008064520833333332@note_on channel=10 note=74 velocity=80 time=0@note_on channel=3 note=62 velocity=0 time=0.09596779791666665@note_on channel=8 note=31 velocity=0 time=0@note_on channel=9 note=38 velocity=0 time=0@note_on channel=9 note=42 velocity=0 time=0@note_on channel=10 note=74 velocity=0 time=0@note_on channel=1 note=66 velocity=96 time=0.0008064520833333332@note_on channel=2 note=66 velocity=96 time=0@note_on channel=8 note=31 velocity=80 time=0@note_on channel=9 note=42 velocity=80 time=0@note_on channel=9 note=36 velocity=80 time=0@note_on channel=10 note=74 velocity=80 time=0@note_on channel=1 note=66 velocity=0 time=0.09596779791666665@note_on channel=2 note=66 velocity=0 time=0@note_on channel=9 note=42 velocity=0 time=0@note_on channel=9 note=36 velocity=0 time=0@note_on channel=10 note=74 velocity=0 time=0@note_on channel=3 note=62 velocity=80 time=0.0008064520833333332@note_on channel=9 note=42 velocity=80 time=0@note_on channel=9 note=36 velocity=80 time=0@note_on channel=10 note=74 velocity=80 time=0@note_on channel=3 note=62 velocity=0 time=0.09596779791666665@note_on channel=9 note=42 velocity=0 time=0@note_on channel=9 note=36 velocity=0 time=0@note_on channel=10 note=74 velocity=0 time=0@note_on channel=1 note=66 velocity=96 time=0.0008064520833333332@note_on channel=2 note=66 velocity=96 time=0@note_on channel=4 note=57 velocity=80 time=0@note_on channel=4 note=62 velocity=80 time=0@note_on channel=5 note=62 velocity=80 time=0@note_on channel=5 note=66 velocity=80 time=0@note_on channel=9 note=42 velocity=80 time=0@note_on channel=9 note=36 velocity=80 time=0@note_on channel=9 note=49 velocity=80 time=0@note_on channel=10 note=74 velocity=80 time=0@note_on channel=1 note=66 velocity=0 time=0.09596779791666665@note_on channel=2 note=66 velocity=0 time=0@note_on channel=10 note=74 velocity=0 time=0@note_on channel=3 note=62 velocity=80 time=0.0008064520833333332@note_on channel=10 note=74 velocity=80 time=0@note_on channel=3 note=62 velocity=0 time=0.09596779791666665@note_on channel=8 note=31 velocity=0 time=0@note_on channel=9 note=42 velocity=0 time=0@note_on channel=9 note=36 velocity=0 time=0@note_on channel=10 note=74 velocity=0 time=0@note_on channel=1 note=64 velocity=96 time=0.0008064520833333332@note_on channel=2 note=64 velocity=96 time=0@note_on channel=8 note=31 velocity=80 time=0@note_on channel=9 note=42 velocity=80 time=0@note_on channel=9 note=36 velocity=80 time=0@note_on channel=10 note=74 velocity=80 time=0@note_on channel=1 note=64 velocity=0 time=0.09596779791666665@note_on channel=2 note=64 velocity=0 time=0@note_on channel=10 note=74 velocity=0 time=0@note_on channel=3 note=62 velocity=80 time=0.0008064520833333332@note_on channel=10 note=74 velocity=80 time=0@note_on channel=3 note=62 velocity=0 time=0.09596779791666665@note_on channel=4 note=57 velocity=0 time=0@note_on channel=4 note=62 velocity=0 time=0@note_on channel=5 note=62 velocity=0 time=0@note_on channel=5 note=66 velocity=0 time=0@note_on channel=9 note=42 velocity=0 time=0@note_on channel=9 note=36 velocity=0 time=0@note_on channel=9 note=49 velocity=0 time=0@note_on channel=10 note=74 velocity=0 time=0@note_on channel=1 note=66 velocity=96 time=0.0008064520833333332@note_on channel=2 note=66 velocity=96 time=0@note_on channel=9 note=42 velocity=80 time=0@note_on channel=9 note=38 velocity=80 time=0@note_on channel=10 note=69 velocity=80 time=0@note_on channel=1 note=66 velocity=0 time=0.09596779791666665@note_on channel=2 note=66 velocity=0 time=0@note_on channel=10 note=69 velocity=0 time=0@note_on channel=3 note=57 velocity=80 time=0.0008064520833333332@note_on channel=10 note=69 velocity=80 time=0@note_on channel=3 note=57 velocity=0 time=0.09596779791666665@note_on channel=7 note=43 velocity=0 time=0@note_on channel=8 note=31 velocity=0 time=0@note_on channel=9 note=42 velocity=0 time=0@note_on channel=10 note=69 velocity=0 time=0@note_on channel=1 note=62 velocity=96 time=0.0008064520833333332@note_on channel=2 note=62 velocity=96 time=0@note_on channel=7 note=43 velocity=80 time=0@note_on channel=8 note=31 velocity=80 time=0@note_on channel=9 note=42 velocity=80 time=0@note_on channel=10 note=69 velocity=80 time=0@note_on channel=1 note=62 velocity=0 time=0.09596779791666665@note_on channel=2 note=62 velocity=0 time=0@note_on channel=9 note=42 velocity=0 time=0@note_on channel=10 note=69 velocity=0 time=0@note_on channel=3 note=57 velocity=80 time=0.0008064520833333332@note_on channel=9 note=42 velocity=80 time=0@note_on channel=10 note=69 velocity=80 time=0@note_on channel=3 note=57 velocity=0 time=0.09596779791666665@note_on channel=7 note=43 velocity=0 time=0@note_on channel=8 note=31 velocity=0 time=0@note_on channel=9 note=38 velocity=0 time=0@note_on channel=9 note=42 velocity=0 time=0@note_on channel=10 note=69 velocity=0 time=0@note_on channel=0 note=70 velocity=112 time=0.0008064520833333332@note_on channel=4 note=58 velocity=80 time=0@note_on channel=4 note=62 velocity=80 time=0@note_on channel=5 note=67 velocity=80 time=0@note_on channel=5 note=70 velocity=80 time=0@note_on channel=7 note=43 velocity=80 time=0@note_on channel=8 note=31 velocity=80 time=0@note_on channel=9 note=42 velocity=80 time=0@note_on channel=9 note=36 velocity=80 time=0@note_on channel=9 note=49 velocity=80 time=0@note_on channel=8 note=31 velocity=0 time=0.19274204791666663@note_on channel=8 note=31 velocity=80 time=0.0008064520833333332@note_on channel=0 note=70 velocity=0 time=0.17338719791666665@note_on channel=4 note=58 velocity=0 time=0.019354849999999996@note_on channel=4 note=62 velocity=0 time=0@note_on channel=5 note=67 velocity=0 time=0@note_on channel=5 note=70 velocity=0 time=0@note_on channel=9 note=42 velocity=0 time=0@note_on channel=9 note=36 velocity=0 time=0@note_on channel=9 note=49 velocity=0 time=0@note_on channel=0 note=66 velocity=112 time=0.0008064520833333332@note_on channel=9 note=38 velocity=80 time=0@note_on channel=9 note=42 velocity=80 time=0@note_on channel=0 note=66 velocity=0 time=0.09112908541666666@note_on channel=0 note=67 velocity=112 time=0.005645164583333332@note_on channel=0 note=67 velocity=0 time=0.09112908541666666@note_on channel=8 note=31 velocity=0 time=0.004838712499999999@note_on channel=9 note=38 velocity=0 time=0@note_on channel=9 note=42 velocity=0 time=0@note_on channel=0 note=70 velocity=112 time=0.0008064520833333332@note_on channel=8 note=31 velocity=80 time=0@note_on channel=9 note=42 velocity=80 time=0@note_on channel=9 note=36 velocity=80 time=0@note_on channel=0 note=70 velocity=0 time=0.09112908541666666@note_on channel=9 note=42 velocity=0 time=0.004838712499999999@note_on channel=9 note=36 velocity=0 time=0@note_on channel=0 note=74 velocity=112 time=0.0008064520833333332@note_on channel=9 note=42 velocity=80 time=0@note_on channel=9 note=36 velocity=80 time=0@note_on channel=0 note=74 velocity=0 time=0.09112908541666666@note_on channel=9 note=42 velocity=0 time=0.004838712499999999@note_on channel=9 note=36 velocity=0 time=0@note_on channel=0 note=67 velocity=112 time=0.0008064520833333332@note_on channel=4 note=58 velocity=80 time=0@note_on channel=4 note=62 velocity=80 time=0@note_on channel=5 note=67 velocity=80 time=0@note_on channel=5 note=70 velocity=80 time=0@note_on channel=9 note=42 velocity=80 time=0@note_on channel=9 note=36 velocity=80 time=0@note_on channel=9 note=49 velocity=80 time=0@note_on channel=0 note=67 velocity=0 time=0.09112908541666666@note_on channel=0 note=70 velocity=112 time=0.005645164583333332@note_on channel=0 note=70 velocity=0 time=0.09112908541666666@note_on channel=8 note=31 velocity=0 time=0.004838712499999999@note_on channel=9 note=42 velocity=0 time=0@note_on channel=9 note=36 velocity=0 time=0@note_on channel=0 note=74 velocity=112 time=0.0008064520833333332@note_on channel=8 note=31 velocity=80 time=0@note_on channel=9 note=42 velocity=80 time=0@note_on channel=9 note=36 velocity=80 time=0@note_on channel=0 note=74 velocity=0 time=0.09112908541666666@note_on channel=0 note=79 velocity=112 time=0.005645164583333332@note_on channel=0 note=79 velocity=0 time=0.09112908541666666@note_on channel=4 note=58 velocity=0 time=0.004838712499999999@note_on channel=4 note=62 velocity=0 time=0@note_on channel=5 note=67 velocity=0 time=0@note_on channel=5 note=70 velocity=0 time=0@note_on channel=9 note=42 velocity=0 time=0@note_on channel=9 note=36 velocity=0 time=0@note_on channel=9 note=49 velocity=0 time=0@note_on channel=0 note=70 velocity=112 time=0.0008064520833333332@note_on channel=9 note=42 velocity=80 time=0@note_on channel=9 note=38 velocity=80 time=0@note_on channel=0 note=70 velocity=0 time=0.09112908541666666@note_on channel=0 note=74 velocity=112 time=0.005645164583333332@note_on channel=0 note=74 velocity=0 time=0.09112908541666666@note_on channel=8 note=31 velocity=0 time=0.004838712499999999@note_on channel=9 note=42 velocity=0 time=0@note_on channel=0 note=79 velocity=112 time=0.0008064520833333332@note_on channel=8 note=31 velocity=80 time=0@note_on channel=9 note=42 velocity=80 time=0@note_on channel=0 note=79 velocity=0 time=0.09112908541666666@note_on channel=9 note=42 velocity=0 time=0.004838712499999999@note_on channel=0 note=82 velocity=112 time=0.0008064520833333332@note_on channel=9 note=42 velocity=80 time=0@note_on channel=0 note=82 velocity=0 time=0.09112908541666666@note_on channel=7 note=43 velocity=0 time=0.004838712499999999@note_on channel=9 note=38 velocity=0 time=0@note_on channel=9 note=42 velocity=0 time=0@note_on channel=0 note=69 velocity=112 time=0.0008064520833333332@note_on channel=4 note=57 velocity=80 time=0@note_on channel=4 note=62 velocity=80 time=0@note_on channel=5 note=66 velocity=80 time=0@note_on channel=5 note=69 velocity=80 time=0@note_on channel=7 note=43 velocity=80 time=0@note_on channel=9 note=42 velocity=80 time=0@note_on channel=9 note=36 velocity=80 time=0@note_on channel=9 note=49 velocity=80 time=0@note_on channel=8 note=31 velocity=0 time=0.19274204791666663@note_on channel=8 note=31 velocity=80 time=0.0008064520833333332@note_on channel=0 note=69 velocity=0 time=0.17338719791666665@note_on channel=4 note=57 velocity=0 time=0.019354849999999996@note_on channel=4 note=62 velocity=0 time=0@note_on channel=5 note=66 velocity=0 time=0@note_on channel=5 note=69 velocity=0 time=0@note_on channel=9 note=42 velocity=0 time=0@note_on channel=9 note=36 velocity=0 time=0@note_on channel=9 note=49 velocity=0 time=0@note_on channel=0 note=62 velocity=112 time=0.0008064520833333332@note_on channel=9 note=38 velocity=80 time=0@note_on channel=9 note=42 velocity=80 time=0@note_on channel=0 note=62 velocity=0 time=0.09112908541666666@note_on channel=0 note=66 velocity=112 time=0.005645164583333332@note_on channel=0 note=66 velocity=0 time=0.09112908541666666@note_on channel=8 note=31 velocity=0 time=0.004838712499999999@note_on channel=9 note=38 velocity=0 time=0@note_on channel=9 note=42 velocity=0 time=0@note_on channel=0 note=67 velocity=112 time=0.0008064520833333332@note_on channel=8 note=31 velocity=80 time=0@note_on channel=9 note=42 velocity=80 time=0@note_on channel=9 note=36 velocity=80 time=0@note_on channel=0 note=67 velocity=0 time=0.09112908541666666@note_on channel=9 note=42 velocity=0 time=0.004838712499999999@note_on channel=9 note=36 velocity=0 time=0@note_on channel=0 note=70 velocity=112 time=0.0008064520833333332@note_on channel=9 note=42 velocity=80 time=0@note_on channel=9 note=36 velocity=80 time=0@note_on channel=0 note=70 velocity=0 time=0.09112908541666666@note_on channel=9 note=42 velocity=0 time=0.004838712499999999@note_on channel=9 note=36 velocity=0 time=0@note_on channel=0 note=69 velocity=112 time=0.0008064520833333332@note_on channel=4 note=57 velocity=80 time=0@note_on channel=4 note=62 velocity=80 time=0@note_on channel=5 note=66 velocity=80 time=0@note_on channel=5 note=69 velocity=80 time=0@note_on channel=9 note=42 velocity=80 time=0@note_on channel=9 note=36 velocity=80 time=0@note_on channel=9 note=49 velocity=80 time=0@note_on channel=8 note=31 velocity=0 time=0.19274204791666663@note_on channel=9 note=42 velocity=0 time=0@note_on channel=9 note=36 velocity=0 time=0@note_on channel=8 note=31 velocity=80 time=0.0008064520833333332@note_on channel=9 note=42 velocity=80 time=0@note_on channel=9 note=36 velocity=80 time=0@note_on channel=0 note=69 velocity=0 time=0.17338719791666665@note_on channel=4 note=57 velocity=0 time=0.019354849999999996@note_on channel=4 note=62 velocity=0 time=0@note_on channel=5 note=66 velocity=0 time=0@note_on channel=5 note=69 velocity=0 time=0@note_on channel=9 note=42 velocity=0 time=0@note_on channel=9 note=36 velocity=0 time=0@note_on channel=9 note=49 velocity=0 time=0@note_on channel=0 note=66 velocity=112 time=0.0008064520833333332@note_on channel=9 note=42 velocity=80 time=0@note_on channel=9 note=38 velocity=80 time=0@note_on channel=0 note=66 velocity=0 time=0.09112908541666666@note_on channel=0 note=67 velocity=112 time=0.005645164583333332@note_on channel=0 note=67 velocity=0 time=0.09112908541666666@note_on channel=8 note=31 velocity=0 time=0.004838712499999999@note_on channel=9 note=42 velocity=0 time=0@note_on channel=0 note=70 velocity=112 time=0.0008064520833333332@note_on channel=8 note=31 velocity=80 time=0@note_on channel=9 note=42 velocity=80 time=0@note_on channel=0 note=70 velocity=0 time=0.09112908541666666@note_on channel=9 note=42 velocity=0 time=0.004838712499999999@note_on channel=0 note=74 velocity=112 time=0.0008064520833333332@note_on channel=9 note=42 velocity=80 time=0@note_on channel=0 note=74 velocity=0 time=0.09112908541666666@note_on channel=7 note=43 velocity=0 time=0.004838712499999999@note_on channel=9 note=38 velocity=0 time=0@note_on channel=9 note=42 velocity=0 time=0@note_on channel=0 note=75 velocity=112 time=0.0008064520833333332@note_on channel=4 note=63 velocity=80 time=0@note_on channel=4 note=67 velocity=80 time=0@note_on channel=5 note=70 velocity=80 time=0@note_on channel=5 note=75 velocity=80 time=0@note_on channel=7 note=39 velocity=80 time=0@note_on channel=9 note=42 velocity=80 time=0@note_on channel=9 note=36 velocity=80 time=0@note_on channel=9 note=49 velocity=80 time=0@note_on channel=8 note=31 velocity=0 time=0.19274204791666663@note_on channel=8 note=31 velocity=80 time=0.0008064520833333332@note_on channel=0 note=75 velocity=0 time=0.17338719791666665@note_on channel=4 note=63 velocity=0 time=0.019354849999999996@note_on channel=4 note=67 velocity=0 time=0@note_on channel=5 note=70 velocity=0 time=0@note_on channel=5 note=75 velocity=0 time=0@note_on channel=9 note=42 velocity=0 time=0@note_on channel=9 note=36 velocity=0 time=0@note_on channel=9 note=49 velocity=0 time=0@note_on channel=0 note=62 velocity=112 time=0.0008064520833333332@note_on channel=9 note=38 velocity=80 time=0@note_on channel=9 note=42 velocity=80 time=0@note_on channel=0 note=62 velocity=0 time=0.09112908541666666@note_on channel=0 note=67 velocity=112 time=0.005645164583333332@note_on channel=0 note=67 velocity=0 time=0.09112908541666666@note_on channel=8 note=31 velocity=0 time=0.004838712499999999@note_on channel=9 note=38 velocity=0 time=0@note_on channel=9 note=42 velocity=0 time=0@note_on channel=0 note=70 velocity=112 time=0.0008064520833333332@note_on channel=8 note=31 velocity=80 time=0@note_on channel=9 note=42 velocity=80 time=0@note_on channel=9 note=36 velocity=80 time=0@note_on channel=0 note=70 velocity=0 time=0.09112908541666666@note_on channel=9 note=42 velocity=0 time=0.004838712499999999@note_on channel=9 note=36 velocity=0 time=0@note_on channel=0 note=74 velocity=112 time=0.0008064520833333332@note_on channel=9 note=42 velocity=80 time=0@note_on channel=9 note=36 velocity=80 time=0@note_on channel=0 note=74 velocity=0 time=0.09112908541666666@note_on channel=9 note=42 velocity=0 time=0.004838712499999999@note_on channel=9 note=36 velocity=0 time=0@note_on channel=0 note=75 velocity=112 time=0.0008064520833333332@note_on channel=4 note=63 velocity=80 time=0@note_on channel=4 note=67 velocity=80 time=0@note_on channel=5 note=70 velocity=80 time=0@note_on channel=5 note=75 velocity=80 time=0@note_on channel=9 note=42 velocity=80 time=0@note_on channel=9 note=36 velocity=80 time=0@note_on channel=9 note=49 velocity=80 time=0@note_on channel=8 note=31 velocity=0 time=0.19274204791666663@note_on channel=9 note=42 velocity=0 time=0@note_on channel=9 note=36 velocity=0 time=0@note_on channel=8 note=31 velocity=80 time=0.0008064520833333332@note_on channel=9 note=42 velocity=80 time=0@note_on channel=9 note=36 velocity=80 time=0@note_on channel=0 note=75 velocity=0 time=0.17338719791666665@note_on channel=4 note=63 velocity=0 time=0.019354849999999996@note_on channel=4 note=67 velocity=0 time=0@note_on channel=5 note=70 velocity=0 time=0@note_on channel=5 note=75 velocity=0 time=0@note_on channel=9 note=42 velocity=0 time=0@note_on channel=9 note=36 velocity=0 time=0@note_on channel=9 note=49 velocity=0 time=0@note_on channel=0 note=74 velocity=112 time=0.0008064520833333332@note_on channel=9 note=42 velocity=80 time=0@note_on channel=9 note=38 velocity=80 time=0@note_on channel=0 note=74 velocity=0 time=0.09112908541666666@note_on channel=0 note=75 velocity=112 time=0.005645164583333332@note_on channel=0 note=75 velocity=0 time=0.09112908541666666@note_on channel=8 note=31 velocity=0 time=0.004838712499999999@note_on channel=9 note=42 velocity=0 time=0@note_on channel=0 note=79 velocity=112 time=0.0008064520833333332@note_on channel=8 note=31 velocity=80 time=0@note_on channel=9 note=42 velocity=80 time=0@note_on channel=0 note=79 velocity=0 time=0.09112908541666666@note_on channel=9 note=42 velocity=0 time=0.004838712499999999@note_on channel=0 note=82 velocity=112 time=0.0008064520833333332@note_on channel=9 note=42 velocity=80 time=0@note_on channel=0 note=82 velocity=0 time=0.09112908541666666@note_on channel=7 note=39 velocity=0 time=0.004838712499999999@note_on channel=9 note=38 velocity=0 time=0@note_on channel=9 note=42 velocity=0 time=0@note_on channel=0 note=74 velocity=112 time=0.0008064520833333332@note_on channel=4 note=62 velocity=80 time=0@note_on channel=4 note=66 velocity=80 time=0@note_on channel=5 note=69 velocity=80 time=0@note_on channel=5 note=74 velocity=80 time=0@note_on channel=7 note=38 velocity=80 time=0@note_on channel=9 note=42 velocity=80 time=0@note_on channel=9 note=36 velocity=80 time=0@note_on channel=9 note=49 velocity=80 time=0@note_on channel=0 note=74 velocity=0 time=0.18306462291666664@note_on channel=8 note=31 velocity=0 time=0.009677424999999998@note_on channel=0 note=62 velocity=112 time=0.0008064520833333332@note_on channel=8 note=31 velocity=80 time=0@note_on channel=0 note=62 velocity=0 time=0.09112908541666666@note_on channel=0 note=66 velocity=112 time=0.005645164583333332@note_on channel=0 note=66 velocity=0 time=0.09112908541666666@note_on channel=4 note=62 velocity=0 time=0.004838712499999999@note_on channel=4 note=66 velocity=0 time=0@note_on channel=5 note=69 velocity=0 time=0@note_on channel=5 note=74 velocity=0 time=0@note_on channel=9 note=42 velocity=0 time=0@note_on channel=9 note=36 velocity=0 time=0@note_on channel=9 note=49 velocity=0 time=0@note_on channel=0 note=69 velocity=112 time=0.0008064520833333332@note_on channel=9 note=38 velocity=80 time=0@note_on channel=9 note=42 velocity=80 time=0@note_on channel=0 note=69 velocity=0 time=0.09112908541666666@note_on channel=0 note=74 velocity=112 time=0.005645164583333332@note_on channel=0 note=74 velocity=0 time=0.09112908541666666@note_on channel=8 note=31 velocity=0 time=0.004838712499999999@note_on channel=9 note=38 velocity=0 time=0@note_on channel=9 note=42 velocity=0 time=0@note_on channel=0 note=78 velocity=112 time=0.0008064520833333332@note_on channel=8 note=31 velocity=80 time=0@note_on channel=9 note=42 velocity=80 time=0@note_on channel=9 note=36 velocity=80 time=0@note_on channel=0 note=78 velocity=0 time=0.09112908541666666@note_on channel=9 note=42 velocity=0 time=0.004838712499999999@note_on channel=9 note=36 velocity=0 time=0@note_on channel=0 note=79 velocity=112 time=0.0008064520833333332@note_on channel=9 note=42 velocity=80 time=0@note_on channel=9 note=36 velocity=80 time=0@note_on channel=0 note=79 velocity=0 time=0.09112908541666666@note_on channel=7 note=38 velocity=0 time=0.004838712499999999@note_on channel=9 note=42 velocity=0 time=0@note_on channel=9 note=36 velocity=0 time=0@note_on channel=0 note=81 velocity=112 time=0.0008064520833333332@note_on channel=4 note=69 velocity=80 time=0@note_on channel=4 note=74 velocity=80 time=0@note_on channel=5 note=78 velocity=80 time=0@note_on channel=5 note=81 velocity=80 time=0@note_on channel=7 note=45 velocity=80 time=0@note_on channel=9 note=42 velocity=80 time=0@note_on channel=9 note=36 velocity=80 time=0@note_on channel=9 note=49 velocity=80 time=0@note_on channel=8 note=31 velocity=0 time=0.19274204791666663@note_on channel=9 note=42 velocity=0 time=0@note_on channel=9 note=36 velocity=0 time=0@note_on channel=8 note=31 velocity=80 time=0.0008064520833333332@note_on channel=9 note=42 velocity=80 time=0@note_on channel=9 note=36 velocity=80 time=0@note_on channel=0 note=81 velocity=0 time=0.17338719791666665@note_on channel=4 note=69 velocity=0 time=0.019354849999999996@note_on channel=4 note=74 velocity=0 time=0@note_on channel=5 note=78 velocity=0 time=0@note_on channel=5 note=81 velocity=0 time=0@note_on channel=9 note=42 velocity=0 time=0@note_on channel=9 note=36 velocity=0 time=0@note_on channel=9 note=49 velocity=0 time=0@note_on channel=0 note=74 velocity=112 time=0.0008064520833333332@note_on channel=9 note=42 velocity=80 time=0@note_on channel=9 note=38 velocity=80 time=0@note_on channel=0 note=74 velocity=0 time=0.09112908541666666@note_on channel=0 note=78 velocity=112 time=0.005645164583333332@note_on channel=0 note=78 velocity=0 time=0.09112908541666666@note_on channel=8 note=31 velocity=0 time=0.004838712499999999@note_on channel=9 note=42 velocity=0 time=0@note_on channel=0 note=79 velocity=112 time=0.0008064520833333332@note_on channel=8 note=31 velocity=96 time=0@note_on channel=9 note=42 velocity=80 time=0@note_on channel=0 note=79 velocity=0 time=0.09112908541666666@note_on channel=9 note=42 velocity=0 time=0.004838712499999999@note_on channel=0 note=81 velocity=112 time=0.0008064520833333332@note_on channel=9 note=42 velocity=80 time=0@note_on channel=0 note=81 velocity=0 time=0.09112908541666666@note_on channel=7 note=45 velocity=0 time=0.004838712499999999@note_on channel=9 note=38 velocity=0 time=0@note_on channel=9 note=42 velocity=0 time=0@note_on channel=1 note=67 velocity=112 time=0.0008064520833333332@note_on channel=4 note=55 velocity=64 time=0@note_on channel=7 note=43 velocity=80 time=0@note_on channel=9 note=42 velocity=80 time=0@note_on channel=9 note=36 velocity=80 time=0@note_on channel=9 note=51 velocity=80 time=0@note_on channel=10 note=67 velocity=80 time=0@note_on channel=1 note=67 velocity=0 time=0.09596779791666665@note_on channel=10 note=67 velocity=0 time=0@note_on channel=8 note=31 velocity=0 time=0.09677424999999999@note_on channel=9 note=51 velocity=0 time=0@note_on channel=1 note=74 velocity=112 time=0.0008064520833333332@note_on channel=8 note=31 velocity=96 time=0@note_on channel=9 note=51 velocity=80 time=0@note_on channel=10 note=74 velocity=80 time=0@note_on channel=1 note=74 velocity=0 time=0.09596779791666665@note_on channel=10 note=74 velocity=0 time=0@note_on channel=9 note=42 velocity=0 time=0.09677424999999999@note_on channel=9 note=36 velocity=0 time=0@note_on channel=1 note=72 velocity=112 time=0.0008064520833333332@note_on channel=9 note=38 velocity=80 time=0@note_on channel=9 note=42 velocity=80 time=0@note_on channel=10 note=72 velocity=80 time=0@note_on channel=1 note=72 velocity=0 time=0.09596779791666665@note_on channel=10 note=72 velocity=0 time=0@note_on channel=8 note=31 velocity=0 time=0.09677424999999999@note_on channel=9 note=38 velocity=0 time=0@note_on channel=9 note=42 velocity=0 time=0@note_on channel=9 note=51 velocity=0 time=0@note_on channel=1 note=70 velocity=112 time=0.0008064520833333332@note_on channel=8 note=31 velocity=96 time=0@note_on channel=9 note=42 velocity=80 time=0@note_on channel=9 note=36 velocity=80 time=0@note_on channel=9 note=51 velocity=80 time=0@note_on channel=10 note=70 velocity=80 time=0@note_on channel=1 note=70 velocity=0 time=0.09596779791666665@note_on channel=9 note=42 velocity=0 time=0@note_on channel=9 note=36 velocity=0 time=0@note_on channel=10 note=70 velocity=0 time=0@note_on channel=9 note=42 velocity=80 time=0.0008064520833333332@note_on channel=9 note=36 velocity=80 time=0@note_on channel=9 note=42 velocity=0 time=0.09596779791666665@note_on channel=9 note=36 velocity=0 time=0@note_on channel=1 note=69 velocity=112 time=0.0008064520833333332@note_on channel=9 note=42 velocity=80 time=0@note_on channel=9 note=36 velocity=80 time=0@note_on channel=10 note=69 velocity=80 time=0@note_on channel=1 note=69 velocity=0 time=0.09596779791666665@note_on channel=10 note=69 velocity=0 time=0@note_on channel=8 note=31 velocity=0 time=0.09677424999999999@note_on channel=9 note=42 velocity=0 time=0@note_on channel=9 note=36 velocity=0 time=0@note_on channel=9 note=51 velocity=0 time=0@note_on channel=1 note=67 velocity=112 time=0.0008064520833333332@note_on channel=8 note=31 velocity=96 time=0@note_on channel=9 note=42 velocity=80 time=0@note_on channel=9 note=36 velocity=80 time=0@note_on channel=9 note=51 velocity=80 time=0@note_on channel=10 note=67 velocity=80 time=0@note_on channel=1 note=67 velocity=0 time=0.09596779791666665@note_on channel=10 note=67 velocity=0 time=0@note_on channel=9 note=42 velocity=0 time=0.09677424999999999@note_on channel=9 note=36 velocity=0 time=0@note_on channel=1 note=66 velocity=112 time=0.0008064520833333332@note_on channel=9 note=42 velocity=80 time=0@note_on channel=9 note=38 velocity=80 time=0@note_on channel=10 note=66 velocity=80 time=0@note_on channel=1 note=66 velocity=0 time=0.09596779791666665@note_on channel=10 note=66 velocity=0 time=0@note_on channel=7 note=43 velocity=0 time=0.09677424999999999@note_on channel=8 note=31 velocity=0 time=0@note_on channel=9 note=42 velocity=0 time=0@note_on channel=9 note=51 velocity=0 time=0@note_on channel=1 note=67 velocity=112 time=0.0008064520833333332@note_on channel=7 note=43 velocity=80 time=0@note_on channel=8 note=31 velocity=96 time=0@note_on channel=9 note=42 velocity=80 time=0@note_on channel=9 note=51 velocity=80 time=0@note_on channel=10 note=67 velocity=80 time=0@note_on channel=1 note=67 velocity=0 time=0.09596779791666665@note_on channel=9 note=42 velocity=0 time=0@note_on channel=10 note=67 velocity=0 time=0@note_on channel=9 note=42 velocity=80 time=0.0008064520833333332@note_on channel=4 note=55 velocity=0 time=0.09596779791666665@note_on channel=7 note=43 velocity=0 time=0@note_on channel=9 note=38 velocity=0 time=0@note_on channel=9 note=42 velocity=0 time=0@note_on channel=9 note=51 velocity=0 time=0@note_on channel=1 note=69 velocity=112 time=0.0008064520833333332@note_on channel=4 note=55 velocity=64 time=0@note_on channel=7 note=43 velocity=80 time=0@note_on channel=9 note=42 velocity=80 time=0@note_on channel=9 note=36 velocity=80 time=0@note_on channel=9 note=51 velocity=80 time=0@note_on channel=10 note=69 velocity=80 time=0@note_on channel=1 note=69 velocity=0 time=0.09596779791666665@note_on channel=10 note=69 velocity=0 time=0@note_on channel=8 note=31 velocity=0 time=0.09677424999999999@note_on channel=9 note=51 velocity=0 time=0@note_on channel=1 note=70 velocity=112 time=0.0008064520833333332@note_on channel=8 note=31 velocity=96 time=0@note_on channel=9 note=51 velocity=80 time=0@note_on channel=10 note=70 velocity=80 time=0@note_on channel=1 note=70 velocity=0 time=0.09596779791666665@note_on channel=10 note=70 velocity=0 time=0@note_on channel=9 note=42 velocity=0 time=0.09677424999999999@note_on channel=9 note=36 velocity=0 time=0@note_on channel=1 note=69 velocity=112 time=0.0008064520833333332@note_on channel=9 note=38 velocity=80 time=0@note_on channel=9 note=42 velocity=80 time=0@note_on channel=10 note=69 velocity=80 time=0@note_on channel=1 note=69 velocity=0 time=0.09596779791666665@note_on channel=10 note=69 velocity=0 time=0@note_on channel=8 note=31 velocity=0 time=0.09677424999999999@note_on channel=9 note=38 velocity=0 time=0@note_on channel=9 note=42 velocity=0 time=0@note_on channel=9 note=51 velocity=0 time=0@note_on channel=1 note=67 velocity=112 time=0.0008064520833333332@note_on channel=8 note=31 velocity=96 time=0@note_on channel=9 note=42 velocity=80 time=0@note_on channel=9 note=36 velocity=80 time=0@note_on channel=9 note=51 velocity=80 time=0@note_on channel=10 note=67 velocity=80 time=0@note_on channel=1 note=67 velocity=0 time=0.09596779791666665@note_on channel=9 note=42 velocity=0 time=0@note_on channel=9 note=36 velocity=0 time=0@note_on channel=10 note=67 velocity=0 time=0@note_on channel=9 note=42 velocity=80 time=0.0008064520833333332@note_on channel=9 note=36 velocity=80 time=0@note_on channel=9 note=42 velocity=0 time=0.09596779791666665@note_on channel=9 note=36 velocity=0 time=0@note_on channel=1 note=66 velocity=112 time=0.0008064520833333332@note_on channel=9 note=42 velocity=80 time=0@note_on channel=9 note=36 velocity=80 time=0@note_on channel=10 note=66 velocity=80 time=0@note_on channel=1 note=66 velocity=0 time=0.09596779791666665@note_on channel=10 note=66 velocity=0 time=0@note_on channel=8 note=31 velocity=0 time=0.09677424999999999@note_on channel=9 note=42 velocity=0 time=0@note_on channel=9 note=36 velocity=0 time=0@note_on channel=9 note=51 velocity=0 time=0@note_on channel=1 note=63 velocity=112 time=0.0008064520833333332@note_on channel=8 note=31 velocity=96 time=0@note_on channel=9 note=42 velocity=80 time=0@note_on channel=9 note=36 velocity=80 time=0@note_on channel=9 note=51 velocity=80 time=0@note_on channel=10 note=63 velocity=80 time=0@note_on channel=1 note=63 velocity=0 time=0.09596779791666665@note_on channel=10 note=63 velocity=0 time=0@note_on channel=9 note=42 velocity=0 time=0.09677424999999999@note_on channel=9 note=36 velocity=0 time=0@note_on channel=1 note=62 velocity=112 time=0.0008064520833333332@note_on channel=9 note=42 velocity=80 time=0@note_on channel=9 note=38 velocity=80 time=0@note_on channel=10 note=62 velocity=80 time=0@note_on channel=1 note=62 velocity=0 time=0.09596779791666665@note_on channel=10 note=62 velocity=0 time=0@note_on channel=7 note=43 velocity=0 time=0.09677424999999999@note_on channel=8 note=31 velocity=0 time=0@note_on channel=9 note=42 velocity=0 time=0@note_on channel=9 note=51 velocity=0 time=0@note_on channel=1 note=60 velocity=112 time=0.0008064520833333332@note_on channel=7 note=43 velocity=80 time=0@note_on channel=8 note=31 velocity=96 time=0@note_on channel=9 note=42 velocity=80 time=0@note_on channel=9 note=51 velocity=80 time=0@note_on channel=10 note=60 velocity=80 time=0@note_on channel=1 note=60 velocity=0 time=0.09596779791666665@note_on channel=9 note=42 velocity=0 time=0@note_on channel=10 note=60 velocity=0 time=0@note_on channel=9 note=42 velocity=80 time=0.0008064520833333332@note_on channel=4 note=55 velocity=0 time=0.09596779791666665@note_on channel=7 note=43 velocity=0 time=0@note_on channel=9 note=38 velocity=0 time=0@note_on channel=9 note=42 velocity=0 time=0@note_on channel=9 note=51 velocity=0 time=0@note_on channel=1 note=62 velocity=112 time=0.0008064520833333332@note_on channel=4 note=55 velocity=64 time=0@note_on channel=7 note=43 velocity=80 time=0@note_on channel=9 note=42 velocity=80 time=0@note_on channel=9 note=36 velocity=80 time=0@note_on channel=9 note=51 velocity=80 time=0@note_on channel=10 note=62 velocity=80 time=0@note_on channel=1 note=62 velocity=0 time=0.09596779791666665@note_on channel=10 note=62 velocity=0 time=0@note_on channel=8 note=31 velocity=0 time=0.09677424999999999@note_on channel=9 note=51 velocity=0 time=0@note_on channel=1 note=74 velocity=112 time=0.0008064520833333332@note_on channel=8 note=31 velocity=96 time=0@note_on channel=9 note=51 velocity=80 time=0@note_on channel=10 note=74 velocity=80 time=0@note_on channel=1 note=74 velocity=0 time=0.09596779791666665@note_on channel=10 note=74 velocity=0 time=0@note_on channel=9 note=42 velocity=0 time=0.09677424999999999@note_on channel=9 note=36 velocity=0 time=0@note_on channel=1 note=72 velocity=112 time=0.0008064520833333332@note_on channel=9 note=38 velocity=80 time=0@note_on channel=9 note=42 velocity=80 time=0@note_on channel=10 note=72 velocity=80 time=0@note_on channel=1 note=72 velocity=0 time=0.09596779791666665@note_on channel=10 note=72 velocity=0 time=0@note_on channel=8 note=31 velocity=0 time=0.09677424999999999@note_on channel=9 note=38 velocity=0 time=0@note_on channel=9 note=42 velocity=0 time=0@note_on channel=9 note=51 velocity=0 time=0@note_on channel=1 note=75 velocity=112 time=0.0008064520833333332@note_on channel=8 note=31 velocity=96 time=0@note_on channel=9 note=42 velocity=80 time=0@note_on channel=9 note=36 velocity=80 time=0@note_on channel=9 note=51 velocity=80 time=0@note_on channel=10 note=75 velocity=80 time=0@note_on channel=1 note=75 velocity=0 time=0.09596779791666665@note_on channel=9 note=42 velocity=0 time=0@note_on channel=9 note=36 velocity=0 time=0@note_on channel=10 note=75 velocity=0 time=0@note_on channel=9 note=42 velocity=80 time=0.0008064520833333332@note_on channel=9 note=36 velocity=80 time=0@note_on channel=9 note=42 velocity=0 time=0.09596779791666665@note_on channel=9 note=36 velocity=0 time=0@note_on channel=1 note=74 velocity=112 time=0.0008064520833333332@note_on channel=9 note=42 velocity=80 time=0@note_on channel=9 note=36 velocity=80 time=0@note_on channel=10 note=74 velocity=80 time=0@note_on channel=1 note=74 velocity=0 time=0.09596779791666665@note_on channel=10 note=74 velocity=0 time=0@note_on channel=8 note=31 velocity=0 time=0.09677424999999999@note_on channel=9 note=42 velocity=0 time=0@note_on channel=9 note=36 velocity=0 time=0@note_on channel=9 note=51 velocity=0 time=0@note_on channel=1 note=72 velocity=112 time=0.0008064520833333332@note_on channel=8 note=31 velocity=96 time=0@note_on channel=9 note=42 velocity=80 time=0@note_on channel=9 note=36 velocity=80 time=0@note_on channel=9 note=51 velocity=80 time=0@note_on channel=10 note=72 velocity=80 time=0@note_on channel=1 note=72 velocity=0 time=0.09596779791666665@note_on channel=10 note=72 velocity=0 time=0@note_on channel=9 note=42 velocity=0 time=0.09677424999999999@note_on channel=9 note=36 velocity=0 time=0@note_on channel=1 note=70 velocity=112 time=0.0008064520833333332@note_on channel=9 note=42 velocity=80 time=0@note_on channel=9 note=38 velocity=80 time=0@note_on channel=10 note=70 velocity=80 time=0@note_on channel=1 note=70 velocity=0 time=0.09596779791666665@note_on channel=10 note=70 velocity=0 time=0@note_on channel=7 note=43 velocity=0 time=0.09677424999999999@note_on channel=8 note=31 velocity=0 time=0@note_on channel=9 note=42 velocity=0 time=0@note_on channel=9 note=51 velocity=0 time=0@note_on channel=1 note=74 velocity=112 time=0.0008064520833333332@note_on channel=7 note=43 velocity=80 time=0@note_on channel=8 note=31 velocity=96 time=0@note_on channel=9 note=42 velocity=80 time=0@note_on channel=9 note=51 velocity=80 time=0@note_on channel=10 note=74 velocity=80 time=0@note_on channel=1 note=74 velocity=0 time=0.09596779791666665@note_on channel=9 note=42 velocity=0 time=0@note_on channel=10 note=74 velocity=0 time=0@note_on channel=9 note=42 velocity=80 time=0.0008064520833333332@note_on channel=4 note=55 velocity=0 time=0.09596779791666665@note_on channel=7 note=43 velocity=0 time=0@note_on channel=9 note=38 velocity=0 time=0@note_on channel=9 note=42 velocity=0 time=0@note_on channel=9 note=51 velocity=0 time=0@note_on channel=1 note=72 velocity=112 time=0.0008064520833333332@note_on channel=4 note=55 velocity=64 time=0@note_on channel=7 note=43 velocity=80 time=0@note_on channel=9 note=42 velocity=80 time=0@note_on channel=9 note=36 velocity=80 time=0@note_on channel=9 note=51 velocity=80 time=0@note_on channel=10 note=72 velocity=80 time=0@note_on channel=1 note=72 velocity=0 time=0.09596779791666665@note_on channel=10 note=72 velocity=0 time=0@note_on channel=8 note=31 velocity=0 time=0.09677424999999999@note_on channel=9 note=51 velocity=0 time=0@note_on channel=1 note=70 velocity=112 time=0.0008064520833333332@note_on channel=8 note=31 velocity=96 time=0@note_on channel=9 note=51 velocity=80 time=0@note_on channel=10 note=70 velocity=80 time=0@note_on channel=1 note=70 velocity=0 time=0.09596779791666665@note_on channel=10 note=70 velocity=0 time=0@note_on channel=9 note=42 velocity=0 time=0.09677424999999999@note_on channel=9 note=36 velocity=0 time=0@note_on channel=1 note=69 velocity=112 time=0.0008064520833333332@note_on channel=9 note=38 velocity=80 time=0@note_on channel=9 note=42 velocity=80 time=0@note_on channel=10 note=69 velocity=80 time=0@note_on channel=1 note=69 velocity=0 time=0.09596779791666665@note_on channel=10 note=69 velocity=0 time=0@note_on channel=8 note=31 velocity=0 time=0.09677424999999999@note_on channel=9 note=38 velocity=0 time=0@note_on channel=9 note=42 velocity=0 time=0@note_on channel=9 note=51 velocity=0 time=0@note_on channel=1 note=62 velocity=112 time=0.0008064520833333332@note_on channel=8 note=31 velocity=96 time=0@note_on channel=9 note=42 velocity=80 time=0@note_on channel=9 note=36 velocity=80 time=0@note_on channel=9 note=51 velocity=80 time=0@note_on channel=10 note=62 velocity=80 time=0@note_on channel=1 note=62 velocity=0 time=0.09596779791666665@note_on channel=9 note=42 velocity=0 time=0@note_on channel=9 note=36 velocity=0 time=0@note_on channel=10 note=62 velocity=0 time=0@note_on channel=9 note=42 velocity=80 time=0.0008064520833333332@note_on channel=9 note=36 velocity=80 time=0@note_on channel=9 note=42 velocity=0 time=0.09596779791666665@note_on channel=9 note=36 velocity=0 time=0@note_on channel=1 note=72 velocity=112 time=0.0008064520833333332@note_on channel=9 note=42 velocity=80 time=0@note_on channel=9 note=36 velocity=80 time=0@note_on channel=10 note=72 velocity=80 time=0@note_on channel=1 note=72 velocity=0 time=0.09596779791666665@note_on channel=10 note=72 velocity=0 time=0@note_on channel=8 note=31 velocity=0 time=0.09677424999999999@note_on channel=9 note=42 velocity=0 time=0@note_on channel=9 note=36 velocity=0 time=0@note_on channel=9 note=51 velocity=0 time=0@note_on channel=1 note=70 velocity=112 time=0.0008064520833333332@note_on channel=8 note=31 velocity=96 time=0@note_on channel=9 note=42 velocity=80 time=0@note_on channel=9 note=36 velocity=80 time=0@note_on channel=9 note=51 velocity=80 time=0@note_on channel=10 note=70 velocity=80 time=0@note_on channel=1 note=70 velocity=0 time=0.09596779791666665@note_on channel=10 note=70 velocity=0 time=0@note_on channel=9 note=42 velocity=0 time=0.09677424999999999@note_on channel=9 note=36 velocity=0 time=0@note_on channel=1 note=69 velocity=112 time=0.0008064520833333332@note_on channel=9 note=42 velocity=80 time=0@note_on channel=9 note=38 velocity=80 time=0@note_on channel=10 note=69 velocity=80 time=0@note_on channel=1 note=69 velocity=0 time=0.09596779791666665@note_on channel=10 note=69 velocity=0 time=0@note_on channel=7 note=43 velocity=0 time=0.09677424999999999@note_on channel=8 note=31 velocity=0 time=0@note_on channel=9 note=42 velocity=0 time=0@note_on channel=9 note=51 velocity=0 time=0@note_on channel=1 note=67 velocity=112 time=0.0008064520833333332@note_on channel=7 note=43 velocity=80 time=0@note_on channel=8 note=31 velocity=96 time=0@note_on channel=9 note=42 velocity=80 time=0@note_on channel=9 note=51 velocity=80 time=0@note_on channel=10 note=67 velocity=80 time=0@note_on channel=9 note=42 velocity=0 time=0.09596779791666665@note_on channel=9 note=42 velocity=80 time=0.0008064520833333332@note_on channel=1 note=67 velocity=0 time=0.09596779791666665@note_on channel=4 note=55 velocity=0 time=0@note_on channel=7 note=43 velocity=0 time=0@note_on channel=8 note=31 velocity=0 time=0@note_on channel=9 note=38 velocity=0 time=0@note_on channel=9 note=42 velocity=0 time=0@note_on channel=9 note=51 velocity=0 time=0@note_on channel=10 note=67 velocity=0 time=0@note_on channel=2 note=70 velocity=96 time=0.0008064520833333332@note_on channel=3 note=63 velocity=80 time=0@note_on channel=4 note=63 velocity=64 time=0@note_on channel=4 note=67 velocity=64 time=0@note_on channel=5 note=70 velocity=80 time=0@note_on channel=5 note=75 velocity=80 time=0@note_on channel=7 note=39 velocity=80 time=0@note_on channel=8 note=51 velocity=96 time=0@note_on channel=9 note=42 velocity=80 time=0@note_on channel=9 note=36 velocity=80 time=0@note_on channel=9 note=49 velocity=80 time=0@note_on channel=11 note=87 velocity=80 time=0@note_on channel=11 note=91 velocity=80 time=0@note_on channel=11 note=94 velocity=80 time=0@note_on channel=11 note=99 velocity=80 time=0@note_on channel=8 note=51 velocity=0 time=0.19274204791666663@note_on channel=8 note=51 velocity=96 time=0.0008064520833333332@note_on channel=2 note=70 velocity=0 time=0.19274204791666663@note_on channel=3 note=63 velocity=0 time=0@note_on channel=4 note=63 velocity=0 time=0@note_on channel=4 note=67 velocity=0 time=0@note_on channel=5 note=70 velocity=0 time=0@note_on channel=5 note=75 velocity=0 time=0@note_on channel=9 note=42 velocity=0 time=0@note_on channel=9 note=36 velocity=0 time=0@note_on channel=9 note=49 velocity=0 time=0@note_on channel=11 note=87 velocity=0 time=0@note_on channel=11 note=91 velocity=0 time=0@note_on channel=11 note=94 velocity=0 time=0@note_on channel=11 note=99 velocity=0 time=0@note_on channel=0 note=63 velocity=112 time=0.0008064520833333332@note_on channel=1 note=51 velocity=112 time=0@note_on channel=9 note=38 velocity=80 time=0@note_on channel=9 note=42 velocity=80 time=0@note_on channel=0 note=63 velocity=0 time=0.09112908541666666@note_on channel=1 note=51 velocity=0 time=0.004838712499999999@note_on channel=0 note=67 velocity=112 time=0.0008064520833333332@note_on channel=1 note=55 velocity=112 time=0@note_on channel=0 note=67 velocity=0 time=0.09112908541666666@note_on channel=1 note=55 velocity=0 time=0.004838712499999999@note_on channel=8 note=51 velocity=0 time=0@note_on channel=9 note=38 velocity=0 time=0@note_on channel=9 note=42 velocity=0 time=0@note_on channel=0 note=70 velocity=112 time=0.0008064520833333332@note_on channel=1 note=58 velocity=112 time=0@note_on channel=8 note=51 velocity=96 time=0@note_on channel=9 note=42 velocity=80 time=0@note_on channel=9 note=36 velocity=80 time=0@note_on channel=0 note=70 velocity=0 time=0.09112908541666666@note_on channel=1 note=58 velocity=0 time=0.004838712499999999@note_on channel=9 note=42 velocity=0 time=0@note_on channel=9 note=36 velocity=0 time=0@note_on channel=0 note=75 velocity=112 time=0.0008064520833333332@note_on channel=1 note=63 velocity=112 time=0@note_on channel=9 note=42 velocity=80 time=0@note_on channel=9 note=36 velocity=80 time=0@note_on channel=0 note=75 velocity=0 time=0.09112908541666666@note_on channel=1 note=63 velocity=0 time=0.004838712499999999@note_on channel=7 note=39 velocity=0 time=0@note_on channel=8 note=51 velocity=0 time=0@note_on channel=9 note=42 velocity=0 time=0@note_on channel=9 note=36 velocity=0 time=0@note_on channel=2 note=69 velocity=96 time=0.0008064520833333332@note_on channel=3 note=62 velocity=80 time=0@note_on channel=4 note=62 velocity=64 time=0@note_on channel=4 note=67 velocity=64 time=0@note_on channel=5 note=69 velocity=80 time=0@note_on channel=5 note=74 velocity=80 time=0@note_on channel=7 note=38 velocity=80 time=0@note_on channel=8 note=50 velocity=96 time=0@note_on channel=9 note=42 velocity=80 time=0@note_on channel=9 note=36 velocity=80 time=0@note_on channel=9 note=49 velocity=80 time=0@note_on channel=11 note=86 velocity=80 time=0@note_on channel=11 note=91 velocity=80 time=0@note_on channel=11 note=93 velocity=80 time=0@note_on channel=11 note=98 velocity=80 time=0@note_on channel=8 note=50 velocity=0 time=0.19274204791666663@note_on channel=9 note=42 velocity=0 time=0@note_on channel=9 note=36 velocity=0 time=0@note_on channel=8 note=50 velocity=96 time=0.0008064520833333332@note_on channel=9 note=42 velocity=80 time=0@note_on channel=9 note=36 velocity=80 time=0@note_on channel=2 note=69 velocity=0 time=0.19274204791666663@note_on channel=3 note=62 velocity=0 time=0@note_on channel=4 note=62 velocity=0 time=0@note_on channel=4 note=67 velocity=0 time=0@note_on channel=5 note=69 velocity=0 time=0@note_on channel=5 note=74 velocity=0 time=0@note_on channel=9 note=42 velocity=0 time=0@note_on channel=9 note=36 velocity=0 time=0@note_on channel=9 note=49 velocity=0 time=0@note_on channel=11 note=86 velocity=0 time=0@note_on channel=11 note=91 velocity=0 time=0@note_on channel=11 note=93 velocity=0 time=0@note_on channel=11 note=98 velocity=0 time=0@note_on channel=0 note=62 velocity=112 time=0.0008064520833333332@note_on channel=1 note=50 velocity=112 time=0@note_on channel=9 note=42 velocity=80 time=0@note_on channel=9 note=38 velocity=80 time=0@note_on channel=0 note=62 velocity=0 time=0.09112908541666666@note_on channel=1 note=50 velocity=0 time=0.004838712499999999@note_on channel=0 note=67 velocity=112 time=0.0008064520833333332@note_on channel=1 note=55 velocity=112 time=0@note_on channel=0 note=67 velocity=0 time=0.09112908541666666@note_on channel=1 note=55 velocity=0 time=0.004838712499999999@note_on channel=8 note=50 velocity=0 time=0@note_on channel=9 note=42 velocity=0 time=0@note_on channel=0 note=70 velocity=112 time=0.0008064520833333332@note_on channel=1 note=58 velocity=112 time=0@note_on channel=8 note=50 velocity=96 time=0@note_on channel=9 note=42 velocity=80 time=0@note_on channel=0 note=70 velocity=0 time=0.09112908541666666@note_on channel=1 note=58 velocity=0 time=0.004838712499999999@note_on channel=9 note=42 velocity=0 time=0@note_on channel=0 note=74 velocity=112 time=0.0008064520833333332@note_on channel=1 note=62 velocity=112 time=0@note_on channel=9 note=42 velocity=80 time=0@note_on channel=0 note=74 velocity=0 time=0.09112908541666666@note_on channel=1 note=62 velocity=0 time=0.004838712499999999@note_on channel=7 note=38 velocity=0 time=0@note_on channel=8 note=50 velocity=0 time=0@note_on channel=9 note=38 velocity=0 time=0@note_on channel=9 note=42 velocity=0 time=0@note_on channel=0 note=74 velocity=112 time=0.0008064520833333332@note_on channel=1 note=79 velocity=112 time=0@note_on channel=4 note=62 velocity=64 time=0@note_on channel=5 note=79 velocity=80 time=0@note_on channel=7 note=38 velocity=80 time=0@note_on channel=8 note=50 velocity=96 time=0@note_on channel=9 note=42 velocity=80 time=0@note_on channel=9 note=36 velocity=80 time=0@note_on channel=9 note=49 velocity=80 time=0@note_on channel=11 note=98 velocity=80 time=0@note_on channel=11 note=103 velocity=80 time=0@note_on channel=8 note=50 velocity=0 time=0.19274204791666663@note_on channel=8 note=50 velocity=96 time=0.0008064520833333332@note_on channel=0 note=74 velocity=0 time=0.17338719791666665@note_on channel=1 note=79 velocity=0 time=0.019354849999999996@note_on channel=4 note=62 velocity=0 time=0@note_on channel=5 note=79 velocity=0 time=0@note_on channel=9 note=42 velocity=0 time=0@note_on channel=9 note=36 velocity=0 time=0@note_on channel=9 note=49 velocity=0 time=0@note_on channel=11 note=98 velocity=0 time=0@note_on channel=11 note=103 velocity=0 time=0@note_on channel=0 note=69 velocity=112 time=0.0008064520833333332@note_on channel=1 note=74 velocity=112 time=0@note_on channel=4 note=57 velocity=64 time=0@note_on channel=5 note=74 velocity=80 time=0@note_on channel=9 note=38 velocity=80 time=0@note_on channel=9 note=42 velocity=80 time=0@note_on channel=9 note=49 velocity=80 time=0@note_on channel=11 note=93 velocity=80 time=0@note_on channel=11 note=98 velocity=80 time=0@note_on channel=8 note=50 velocity=0 time=0.19274204791666663@note_on channel=9 note=38 velocity=0 time=0@note_on channel=9 note=42 velocity=0 time=0@note_on channel=8 note=50 velocity=96 time=0.0008064520833333332@note_on channel=9 note=42 velocity=80 time=0@note_on channel=9 note=36 velocity=80 time=0@note_on channel=9 note=42 velocity=0 time=0.09596779791666665@note_on channel=9 note=36 velocity=0 time=0@note_on channel=9 note=42 velocity=80 time=0.0008064520833333332@note_on channel=9 note=36 velocity=80 time=0@note_on channel=0 note=69 velocity=0 time=0.07661294791666666@note_on channel=1 note=74 velocity=0 time=0.019354849999999996@note_on channel=4 note=57 velocity=0 time=0@note_on channel=5 note=74 velocity=0 time=0@note_on channel=7 note=38 velocity=0 time=0@note_on channel=8 note=50 velocity=0 time=0@note_on channel=9 note=42 velocity=0 time=0@note_on channel=9 note=36 velocity=0 time=0@note_on channel=9 note=49 velocity=0 time=0@note_on channel=11 note=93 velocity=0 time=0@note_on channel=11 note=98 velocity=0 time=0@note_on channel=0 note=72 velocity=112 time=0.0008064520833333332@note_on channel=1 note=75 velocity=112 time=0@note_on channel=4 note=60 velocity=64 time=0@note_on channel=5 note=75 velocity=80 time=0@note_on channel=7 note=36 velocity=80 time=0@note_on channel=8 note=48 velocity=96 time=0@note_on channel=9 note=42 velocity=80 time=0@note_on channel=9 note=36 velocity=80 time=0@note_on channel=9 note=49 velocity=80 time=0@note_on channel=11 note=96 velocity=80 time=0@note_on channel=11 note=99 velocity=80 time=0@note_on channel=8 note=48 velocity=0 time=0.19274204791666663@note_on channel=9 note=42 velocity=0 time=0@note_on channel=9 note=36 velocity=0 time=0@note_on channel=8 note=48 velocity=96 time=0.0008064520833333332@note_on channel=9 note=42 velocity=80 time=0@note_on channel=9 note=36 velocity=80 time=0@note_on channel=0 note=72 velocity=0 time=0.17338719791666665@note_on channel=1 note=75 velocity=0 time=0.019354849999999996@note_on channel=4 note=60 velocity=0 time=0@note_on channel=5 note=75 velocity=0 time=0@note_on channel=9 note=42 velocity=0 time=0@note_on channel=9 note=36 velocity=0 time=0@note_on channel=9 note=49 velocity=0 time=0@note_on channel=11 note=96 velocity=0 time=0@note_on channel=11 note=99 velocity=0 time=0@note_on channel=0 note=69 velocity=112 time=0.0008064520833333332@note_on channel=1 note=72 velocity=112 time=0@note_on channel=4 note=57 velocity=64 time=0@note_on channel=5 note=72 velocity=80 time=0@note_on channel=9 note=42 velocity=80 time=0@note_on channel=9 note=38 velocity=80 time=0@note_on channel=9 note=49 velocity=80 time=0@note_on channel=11 note=93 velocity=80 time=0@note_on channel=11 note=96 velocity=80 time=0@note_on channel=8 note=48 velocity=0 time=0.19274204791666663@note_on channel=9 note=42 velocity=0 time=0@note_on channel=8 note=48 velocity=96 time=0.0008064520833333332@note_on channel=9 note=42 velocity=80 time=0@note_on channel=9 note=42 velocity=0 time=0.09596779791666665@note_on channel=9 note=42 velocity=80 time=0.0008064520833333332@note_on channel=0 note=69 velocity=0 time=0.07661294791666666@note_on channel=1 note=72 velocity=0 time=0.019354849999999996@note_on channel=4 note=57 velocity=0 time=0@note_on channel=5 note=72 velocity=0 time=0@note_on channel=7 note=36 velocity=0 time=0@note_on channel=8 note=48 velocity=0 time=0@note_on channel=9 note=38 velocity=0 time=0@note_on channel=9 note=42 velocity=0 time=0@note_on channel=9 note=49 velocity=0 time=0@note_on channel=11 note=93 velocity=0 time=0@note_on channel=11 note=96 velocity=0 time=0@note_on channel=0 note=74 velocity=112 time=0.0008064520833333332@note_on channel=1 note=74 velocity=112 time=0@note_on channel=2 note=69 velocity=96 time=0@note_on channel=4 note=55 velocity=64 time=0@note_on channel=5 note=74 velocity=80 time=0@note_on channel=7 note=50 velocity=80 time=0@note_on channel=8 note=38 velocity=96 time=0@note_on channel=9 note=42 velocity=80 time=0@note_on channel=9 note=36 velocity=80 time=0@note_on channel=9 note=49 velocity=80 time=0@note_on channel=11 note=86 velocity=80 time=0@note_on channel=11 note=91 velocity=80 time=0@note_on channel=11 note=93 velocity=80 time=0@note_on channel=11 note=98 velocity=80 time=0@note_on channel=9 note=42 velocity=0 time=0.3862905479166666@note_on channel=9 note=36 velocity=0 time=0@note_on channel=9 note=38 velocity=80 time=0.0008064520833333332@note_on channel=9 note=42 velocity=80 time=0@note_on channel=9 note=38 velocity=0 time=0.19274204791666663@note_on channel=9 note=42 velocity=0 time=0@note_on channel=9 note=42 velocity=80 time=0.0008064520833333332@note_on channel=9 note=36 velocity=80 time=0@note_on channel=9 note=42 velocity=0 time=0.09596779791666665@note_on channel=9 note=36 velocity=0 time=0@note_on channel=9 note=42 velocity=80 time=0.0008064520833333332@note_on channel=9 note=36 velocity=80 time=0@note_on channel=9 note=42 velocity=0 time=0.09596779791666665@note_on channel=9 note=36 velocity=0 time=0@note_on channel=9 note=49 velocity=0 time=0@note_on channel=9 note=42 velocity=80 time=0.0008064520833333332@note_on channel=9 note=36 velocity=80 time=0@note_on channel=9 note=42 velocity=0 time=0.19274204791666663@note_on channel=9 note=36 velocity=0 time=0@note_on channel=9 note=42 velocity=80 time=0.0008064520833333332@note_on channel=9 note=36 velocity=80 time=0@note_on channel=9 note=42 velocity=0 time=0.19274204791666663@note_on channel=9 note=36 velocity=0 time=0@note_on channel=9 note=42 velocity=80 time=0.0008064520833333332@note_on channel=9 note=38 velocity=80 time=0@note_on channel=9 note=42 velocity=0 time=0.19274204791666663@note_on channel=9 note=42 velocity=80 time=0.0008064520833333332@note_on channel=9 note=42 velocity=0 time=0.09596779791666665@note_on channel=9 note=42 velocity=80 time=0.0008064520833333332@note_on channel=0 note=74 velocity=0 time=0.018548397916666664@note_on channel=1 note=74 velocity=0 time=0.07741939999999999@note_on channel=2 note=69 velocity=0 time=0@note_on channel=4 note=55 velocity=0 time=0@note_on channel=5 note=74 velocity=0 time=0@note_on channel=7 note=50 velocity=0 time=0@note_on channel=8 note=38 velocity=0 time=0@note_on channel=9 note=38 velocity=0 time=0@note_on channel=9 note=42 velocity=0 time=0@note_on channel=11 note=86 velocity=0 time=0@note_on channel=11 note=91 velocity=0 time=0@note_on channel=11 note=93 velocity=0 time=0@note_on channel=11 note=98 velocity=0 time=0@note_on channel=0 note=74 velocity=112 time=0.0008064520833333332@note_on channel=1 note=74 velocity=112 time=0@note_on channel=2 note=69 velocity=96 time=0@note_on channel=4 note=54 velocity=64 time=0@note_on channel=5 note=74 velocity=80 time=0@note_on channel=7 note=50 velocity=80 time=0@note_on channel=8 note=38 velocity=96 time=0@note_on channel=9 note=42 velocity=80 time=0@note_on channel=9 note=36 velocity=80 time=0@note_on channel=9 note=49 velocity=80 time=0@note_on channel=11 note=86 velocity=80 time=0@note_on channel=11 note=90 velocity=80 time=0@note_on channel=11 note=93 velocity=80 time=0@note_on channel=11 note=98 velocity=80 time=0@note_on channel=9 note=42 velocity=0 time=0.3862905479166666@note_on channel=9 note=36 velocity=0 time=0@note_on channel=9 note=38 velocity=80 time=0.0008064520833333332@note_on channel=9 note=42 velocity=80 time=0@note_on channel=9 note=38 velocity=0 time=0.19274204791666663@note_on channel=9 note=42 velocity=0 time=0@note_on channel=9 note=42 velocity=80 time=0.0008064520833333332@note_on channel=9 note=36 velocity=80 time=0@note_on channel=9 note=42 velocity=0 time=0.09596779791666665@note_on channel=9 note=36 velocity=0 time=0@note_on channel=9 note=42 velocity=80 time=0.0008064520833333332@note_on channel=9 note=36 velocity=80 time=0@note_on channel=9 note=42 velocity=0 time=0.09596779791666665@note_on channel=9 note=36 velocity=0 time=0@note_on channel=9 note=49 velocity=0 time=0@note_on channel=9 note=42 velocity=80 time=0.0008064520833333332@note_on channel=9 note=36 velocity=80 time=0@note_on channel=9 note=42 velocity=0 time=0.19274204791666663@note_on channel=9 note=36 velocity=0 time=0@note_on channel=9 note=42 velocity=80 time=0.0008064520833333332@note_on channel=9 note=36 velocity=80 time=0@note_on channel=9 note=42 velocity=0 time=0.19274204791666663@note_on channel=9 note=36 velocity=0 time=0@note_on channel=9 note=42 velocity=80 time=0.0008064520833333332@note_on channel=9 note=38 velocity=80 time=0@note_on channel=9 note=42 velocity=0 time=0.19274204791666663@note_on channel=9 note=42 velocity=80 time=0.0008064520833333332@note_on channel=9 note=42 velocity=0 time=0.09596779791666665@note_on channel=9 note=42 velocity=80 time=0.0008064520833333332@note_on channel=0 note=74 velocity=0 time=0.018548397916666664@note_on channel=1 note=74 velocity=0 time=0.07741939999999999@note_on channel=2 note=69 velocity=0 time=0@note_on channel=4 note=54 velocity=0 time=0@note_on channel=5 note=74 velocity=0 time=0@note_on channel=7 note=50 velocity=0 time=0@note_on channel=8 note=38 velocity=0 time=0@note_on channel=9 note=38 velocity=0 time=0@note_on channel=9 note=42 velocity=0 time=0@note_on channel=11 note=86 velocity=0 time=0@note_on channel=11 note=90 velocity=0 time=0@note_on channel=11 note=93 velocity=0 time=0@note_on channel=11 note=98 velocity=0 time=0@note_on channel=4 note=55 velocity=80 time=0.0008064520833333332@note_on channel=7 note=43 velocity=80 time=0@note_on channel=8 note=43 velocity=80 time=0@note_on channel=9 note=57 velocity=112 time=0@note_on channel=9 note=36 velocity=112 time=0@note_on channel=4 note=55 velocity=0 time=0.09596779791666665@note_on channel=4 note=55 velocity=80 time=0.0008064520833333332@note_on channel=4 note=55 velocity=0 time=0.09596779791666665@note_on channel=7 note=43 velocity=0 time=0@note_on channel=4 note=55 velocity=80 time=0.0008064520833333332@note_on channel=7 note=43 velocity=80 time=0@note_on channel=4 note=55 velocity=0 time=0.19274204791666663@note_on channel=7 note=43 velocity=0 time=0@note_on channel=9 note=57 velocity=0 time=0@note_on channel=9 note=36 velocity=0 time=0@note_on channel=4 note=55 velocity=80 time=0.0008064520833333332@note_on channel=7 note=43 velocity=80 time=0@note_on channel=9 note=36 velocity=112 time=0@note_on channel=4 note=55 velocity=0 time=0.19274204791666663@note_on channel=7 note=43 velocity=0 time=0@note_on channel=4 note=55 velocity=80 time=0.0008064520833333332@note_on channel=7 note=43 velocity=80 time=0@note_on channel=4 note=55 velocity=0 time=0.19274204791666663@note_on channel=7 note=43 velocity=0 time=0@note_on channel=9 note=36 velocity=0 time=0@note_on channel=4 note=55 velocity=80 time=0.0008064520833333332@note_on channel=7 note=43 velocity=80 time=0@note_on channel=9 note=40 velocity=112 time=0@note_on channel=9 note=40 velocity=0 time=0.19274204791666663@note_on channel=9 note=36 velocity=112 time=0.0008064520833333332@note_on channel=9 note=36 velocity=0 time=0.19274204791666663@note_on channel=9 note=36 velocity=112 time=0.0008064520833333332@note_on channel=4 note=55 velocity=0 time=0.3862905479166666@note_on channel=7 note=43 velocity=0 time=0@note_on channel=8 note=43 velocity=0 time=0@note_on channel=9 note=36 velocity=0 time=0@note_on channel=4 note=55 velocity=80 time=0.0008064520833333332@note_on channel=7 note=43 velocity=80 time=0@note_on channel=8 note=43 velocity=80 time=0@note_on channel=9 note=36 velocity=112 time=0@note_on channel=4 note=55 velocity=0 time=0.09596779791666665@note_on channel=4 note=55 velocity=80 time=0.0008064520833333332@note_on channel=4 note=55 velocity=0 time=0.09596779791666665@note_on channel=7 note=43 velocity=0 time=0@note_on channel=4 note=55 velocity=80 time=0.0008064520833333332@note_on channel=7 note=43 velocity=80 time=0@note_on channel=4 note=55 velocity=0 time=0.19274204791666663@note_on channel=7 note=43 velocity=0 time=0@note_on channel=8 note=43 velocity=0 time=0@note_on channel=9 note=36 velocity=0 time=0@note_on channel=4 note=55 velocity=80 time=0.0008064520833333332@note_on channel=7 note=43 velocity=80 time=0@note_on channel=8 note=43 velocity=80 time=0@note_on channel=9 note=36 velocity=112 time=0@note_on channel=4 note=55 velocity=0 time=0.19274204791666663@note_on channel=7 note=43 velocity=0 time=0@note_on channel=4 note=55 velocity=80 time=0.0008064520833333332@note_on channel=7 note=43 velocity=80 time=0@note_on channel=4 note=55 velocity=0 time=0.19274204791666663@note_on channel=7 note=43 velocity=0 time=0@note_on channel=8 note=43 velocity=0 time=0@note_on channel=9 note=36 velocity=0 time=0@note_on channel=4 note=57 velocity=80 time=0.0008064520833333332@note_on channel=7 note=45 velocity=80 time=0@note_on channel=8 note=45 velocity=80 time=0@note_on channel=9 note=40 velocity=112 time=0@note_on channel=4 note=57 velocity=0 time=0.19274204791666663@note_on channel=7 note=45 velocity=0 time=0@note_on channel=8 note=45 velocity=0 time=0@note_on channel=9 note=40 velocity=0 time=0@note_on channel=4 note=58 velocity=80 time=0.0008064520833333332@note_on channel=7 note=46 velocity=80 time=0@note_on channel=8 note=46 velocity=80 time=0@note_on channel=9 note=36 velocity=112 time=0@note_on channel=4 note=58 velocity=0 time=0.19274204791666663@note_on channel=7 note=46 velocity=0 time=0@note_on channel=8 note=46 velocity=0 time=0@note_on channel=9 note=36 velocity=0 time=0@note_on channel=4 note=57 velocity=80 time=0.0008064520833333332@note_on channel=7 note=45 velocity=80 time=0@note_on channel=8 note=45 velocity=80 time=0@note_on channel=9 note=36 velocity=112 time=0@note_on channel=4 note=57 velocity=0 time=0.3862905479166666@note_on channel=7 note=45 velocity=0 time=0@note_on channel=8 note=45 velocity=0 time=0@note_on channel=9 note=36 velocity=0 time=0@note_on channel=4 note=55 velocity=80 time=0.0008064520833333332@note_on channel=7 note=43 velocity=80 time=0@note_on channel=8 note=43 velocity=80 time=0@note_on channel=9 note=36 velocity=112 time=0@note_on channel=4 note=55 velocity=0 time=0.09596779791666665@note_on channel=4 note=55 velocity=80 time=0.0008064520833333332@note_on channel=4 note=55 velocity=0 time=0.09596779791666665@note_on channel=7 note=43 velocity=0 time=0@note_on channel=4 note=55 velocity=80 time=0.0008064520833333332@note_on channel=7 note=43 velocity=80 time=0@note_on channel=4 note=55 velocity=0 time=0.19274204791666663@note_on channel=7 note=43 velocity=0 time=0@note_on channel=9 note=36 velocity=0 time=0@note_on channel=4 note=55 velocity=80 time=0.0008064520833333332@note_on channel=7 note=43 velocity=80 time=0@note_on channel=9 note=36 velocity=112 time=0@note_on channel=4 note=55 velocity=0 time=0.19274204791666663@note_on channel=7 note=43 velocity=0 time=0@note_on channel=4 note=55 velocity=80 time=0.0008064520833333332@note_on channel=7 note=43 velocity=80 time=0@note_on channel=4 note=55 velocity=0 time=0.19274204791666663@note_on channel=7 note=43 velocity=0 time=0@note_on channel=9 note=36 velocity=0 time=0@note_on channel=4 note=55 velocity=80 time=0.0008064520833333332@note_on channel=7 note=43 velocity=80 time=0@note_on channel=9 note=40 velocity=112 time=0@note_on channel=9 note=40 velocity=0 time=0.19274204791666663@note_on channel=9 note=36 velocity=112 time=0.0008064520833333332@note_on channel=9 note=36 velocity=0 time=0.19274204791666663@note_on channel=9 note=36 velocity=112 time=0.0008064520833333332@note_on channel=4 note=55 velocity=0 time=0.3862905479166666@note_on channel=7 note=43 velocity=0 time=0@note_on channel=8 note=43 velocity=0 time=0@note_on channel=9 note=36 velocity=0 time=0@note_on channel=4 note=50 velocity=80 time=0.0008064520833333332@note_on channel=7 note=38 velocity=80 time=0@note_on channel=8 note=38 velocity=80 time=0@note_on channel=9 note=36 velocity=112 time=0@note_on channel=4 note=50 velocity=0 time=0.09596779791666665@note_on channel=4 note=50 velocity=80 time=0.0008064520833333332@note_on channel=4 note=50 velocity=0 time=0.09596779791666665@note_on channel=7 note=38 velocity=0 time=0@note_on channel=4 note=50 velocity=80 time=0.0008064520833333332@note_on channel=7 note=38 velocity=80 time=0@note_on channel=4 note=50 velocity=0 time=0.19274204791666663@note_on channel=7 note=38 velocity=0 time=0@note_on channel=8 note=38 velocity=0 time=0@note_on channel=9 note=36 velocity=0 time=0@note_on channel=4 note=50 velocity=80 time=0.0008064520833333332@note_on channel=7 note=38 velocity=80 time=0@note_on channel=8 note=38 velocity=80 time=0@note_on channel=9 note=36 velocity=112 time=0@note_on channel=4 note=50 velocity=0 time=0.19274204791666663@note_on channel=7 note=38 velocity=0 time=0@note_on channel=4 note=50 velocity=80 time=0.0008064520833333332@note_on channel=7 note=38 velocity=80 time=0@note_on channel=4 note=50 velocity=0 time=0.19274204791666663@note_on channel=7 note=38 velocity=0 time=0@note_on channel=8 note=38 velocity=0 time=0@note_on channel=9 note=36 velocity=0 time=0@note_on channel=4 note=50 velocity=80 time=0.0008064520833333332@note_on channel=7 note=38 velocity=80 time=0@note_on channel=8 note=38 velocity=80 time=0@note_on channel=9 note=40 velocity=112 time=0@note_on channel=4 note=50 velocity=0 time=0.19274204791666663@note_on channel=7 note=38 velocity=0 time=0@note_on channel=8 note=38 velocity=0 time=0@note_on channel=9 note=40 velocity=0 time=0@note_on channel=4 note=52 velocity=80 time=0.0008064520833333332@note_on channel=7 note=40 velocity=80 time=0@note_on channel=8 note=40 velocity=80 time=0@note_on channel=9 note=36 velocity=112 time=0@note_on channel=4 note=52 velocity=0 time=0.19274204791666663@note_on channel=7 note=40 velocity=0 time=0@note_on channel=8 note=40 velocity=0 time=0@note_on channel=9 note=36 velocity=0 time=0@note_on channel=4 note=54 velocity=80 time=0.0008064520833333332@note_on channel=7 note=42 velocity=80 time=0@note_on channel=8 note=42 velocity=80 time=0@note_on channel=9 note=36 velocity=112 time=0@note_on channel=4 note=54 velocity=0 time=0.3862905479166666@note_on channel=7 note=42 velocity=0 time=0@note_on channel=8 note=42 velocity=0 time=0@note_on channel=9 note=36 velocity=0 time=0@note_on channel=0 note=79 velocity=96 time=0.0008064520833333332@note_on channel=1 note=79 velocity=80 time=0@note_on channel=4 note=55 velocity=80 time=0@note_on channel=7 note=43 velocity=80 time=0@note_on channel=8 note=43 velocity=80 time=0@note_on channel=9 note=36 velocity=112 time=0@note_on channel=11 note=91 velocity=96 time=0@note_on channel=3 note=69 velocity=96 time=0.19354849999999998@note_on channel=5 note=69 velocity=96 time=0@note_on channel=3 note=69 velocity=0 time=0.19274204791666663@note_on channel=5 note=69 velocity=0 time=0@note_on channel=9 note=36 velocity=0 time=0@note_on channel=3 note=70 velocity=96 time=0.0008064520833333332@note_on channel=5 note=70 velocity=96 time=0@note_on channel=9 note=36 velocity=112 time=0@note_on channel=3 note=70 velocity=0 time=0.19274204791666663@note_on channel=5 note=70 velocity=0 time=0@note_on channel=3 note=67 velocity=96 time=0.0008064520833333332@note_on channel=5 note=67 velocity=96 time=0@note_on channel=3 note=67 velocity=0 time=0.19274204791666663@note_on channel=5 note=67 velocity=0 time=0@note_on channel=9 note=36 velocity=0 time=0@note_on channel=3 note=74 velocity=96 time=0.0008064520833333332@note_on channel=5 note=74 velocity=96 time=0@note_on channel=9 note=40 velocity=112 time=0@note_on channel=9 note=40 velocity=0 time=0.19274204791666663@note_on channel=9 note=36 velocity=112 time=0.0008064520833333332@note_on channel=9 note=36 velocity=0 time=0.19274204791666663@note_on channel=9 note=36 velocity=112 time=0.0008064520833333332@note_on channel=0 note=79 velocity=0 time=0.30887114791666664@note_on channel=1 note=79 velocity=0 time=0.07741939999999999@note_on channel=4 note=55 velocity=0 time=0@note_on channel=7 note=43 velocity=0 time=0@note_on channel=8 note=43 velocity=0 time=0@note_on channel=9 note=36 velocity=0 time=0@note_on channel=11 note=91 velocity=0 time=0@note_on channel=0 note=77 velocity=96 time=0.0008064520833333332@note_on channel=1 note=77 velocity=80 time=0@note_on channel=4 note=53 velocity=80 time=0@note_on channel=7 note=41 velocity=80 time=0@note_on channel=8 note=41 velocity=80 time=0@note_on channel=9 note=36 velocity=112 time=0@note_on channel=11 note=89 velocity=96 time=0@note_on channel=9 note=36 velocity=0 time=0.3862905479166666@note_on channel=9 note=36 velocity=112 time=0.0008064520833333332@note_on channel=9 note=36 velocity=0 time=0.3862905479166666@note_on channel=9 note=40 velocity=112 time=0.0008064520833333332@note_on channel=9 note=40 velocity=0 time=0.19274204791666663@note_on channel=9 note=36 velocity=112 time=0.0008064520833333332@note_on channel=9 note=36 velocity=0 time=0.19274204791666663@note_on channel=9 note=36 velocity=112 time=0.0008064520833333332@note_on channel=0 note=77 velocity=0 time=0.30887114791666664@note_on channel=1 note=77 velocity=0 time=0.07741939999999999@note_on channel=3 note=74 velocity=0 time=0@note_on channel=4 note=53 velocity=0 time=0@note_on channel=5 note=74 velocity=0 time=0@note_on channel=7 note=41 velocity=0 time=0@note_on channel=8 note=41 velocity=0 time=0@note_on channel=9 note=36 velocity=0 time=0@note_on channel=11 note=89 velocity=0 time=0@note_on channel=0 note=75 velocity=96 time=0.0008064520833333332@note_on channel=1 note=75 velocity=80 time=0@note_on channel=3 note=67 velocity=96 time=0@note_on channel=4 note=51 velocity=80 time=0@note_on channel=5 note=67 velocity=96 time=0@note_on channel=7 note=39 velocity=80 time=0@note_on channel=8 note=39 velocity=80 time=0@note_on channel=9 note=36 velocity=112 time=0@note_on channel=11 note=87 velocity=96 time=0@note_on channel=3 note=67 velocity=0 time=0.19274204791666663@note_on channel=5 note=67 velocity=0 time=0@note_on channel=3 note=69 velocity=96 time=0.0008064520833333332@note_on channel=5 note=69 velocity=96 time=0@note_on channel=3 note=69 velocity=0 time=0.19274204791666663@note_on channel=5 note=69 velocity=0 time=0@note_on channel=9 note=36 velocity=0 time=0@note_on channel=3 note=70 velocity=96 time=0.0008064520833333332@note_on channel=5 note=70 velocity=96 time=0@note_on channel=9 note=36 velocity=112 time=0@note_on channel=3 note=70 velocity=0 time=0.19274204791666663@note_on channel=5 note=70 velocity=0 time=0@note_on channel=3 note=67 velocity=96 time=0.0008064520833333332@note_on channel=5 note=67 velocity=96 time=0@note_on channel=3 note=67 velocity=0 time=0.19274204791666663@note_on channel=5 note=67 velocity=0 time=0@note_on channel=9 note=36 velocity=0 time=0@note_on channel=3 note=74 velocity=96 time=0.0008064520833333332@note_on channel=5 note=74 velocity=96 time=0@note_on channel=9 note=40 velocity=112 time=0@note_on channel=3 note=74 velocity=0 time=0.19274204791666663@note_on channel=5 note=74 velocity=0 time=0@note_on channel=9 note=40 velocity=0 time=0@note_on channel=3 note=67 velocity=96 time=0.0008064520833333332@note_on channel=5 note=67 velocity=96 time=0@note_on channel=9 note=36 velocity=112 time=0@note_on channel=3 note=67 velocity=0 time=0.19274204791666663@note_on channel=5 note=67 velocity=0 time=0@note_on channel=9 note=36 velocity=0 time=0@note_on channel=3 note=79 velocity=96 time=0.0008064520833333332@note_on channel=5 note=79 velocity=96 time=0@note_on channel=9 note=36 velocity=112 time=0@note_on channel=0 note=75 velocity=0 time=0.30887114791666664@note_on channel=1 note=75 velocity=0 time=0.07741939999999999@note_on channel=3 note=79 velocity=0 time=0@note_on channel=4 note=51 velocity=0 time=0@note_on channel=5 note=79 velocity=0 time=0@note_on channel=7 note=39 velocity=0 time=0@note_on channel=8 note=39 velocity=0 time=0@note_on channel=9 note=36 velocity=0 time=0@note_on channel=11 note=87 velocity=0 time=0@note_on channel=0 note=74 velocity=96 time=0.0008064520833333332@note_on channel=1 note=74 velocity=80 time=0@note_on channel=3 note=78 velocity=96 time=0@note_on channel=4 note=50 velocity=80 time=0@note_on channel=5 note=78 velocity=96 time=0@note_on channel=7 note=38 velocity=80 time=0@note_on channel=8 note=38 velocity=80 time=0@note_on channel=9 note=36 velocity=112 time=0@note_on channel=11 note=86 velocity=96 time=0@note_on channel=9 note=36 velocity=0 time=0.3862905479166666@note_on channel=9 note=36 velocity=112 time=0.0008064520833333332@note_on channel=9 note=36 velocity=0 time=0.3862905479166666@note_on channel=9 note=40 velocity=112 time=0.0008064520833333332@note_on channel=3 note=78 velocity=0 time=0.19274204791666663@note_on channel=5 note=78 velocity=0 time=0@note_on channel=9 note=40 velocity=0 time=0@note_on channel=3 note=79 velocity=96 time=0.0008064520833333332@note_on channel=5 note=79 velocity=106 time=0@note_on channel=9 note=36 velocity=112 time=0@note_on channel=3 note=79 velocity=0 time=0.19274204791666663@note_on channel=5 note=79 velocity=0 time=0@note_on channel=9 note=36 velocity=0 time=0@note_on channel=3 note=81 velocity=96 time=0.0008064520833333332@note_on channel=5 note=81 velocity=108 time=0@note_on channel=9 note=36 velocity=112 time=0@note_on channel=0 note=74 velocity=0 time=0.30887114791666664@note_on channel=1 note=74 velocity=0 time=0.07741939999999999@note_on channel=3 note=81 velocity=0 time=0@note_on channel=4 note=50 velocity=0 time=0@note_on channel=5 note=81 velocity=0 time=0@note_on channel=7 note=38 velocity=0 time=0@note_on channel=8 note=38 velocity=0 time=0@note_on channel=9 note=36 velocity=0 time=0@note_on channel=11 note=86 velocity=0 time=0@note_on channel=0 note=67 velocity=96 time=0.0008064520833333332@note_on channel=2 note=67 velocity=112 time=0@note_on channel=5 note=67 velocity=112 time=0@note_on channel=7 note=43 velocity=80 time=0@note_on channel=8 note=43 velocity=80 time=0@note_on channel=9 note=42 velocity=112 time=0@note_on channel=9 note=35 velocity=112 time=0@note_on channel=9 note=49 velocity=80 time=0@note_on channel=11 note=91 velocity=112 time=0@note_on channel=0 note=67 velocity=0 time=0.18306462291666664@note_on channel=2 note=67 velocity=0 time=0.009677424999999998@note_on channel=5 note=67 velocity=0 time=0@note_on channel=11 note=91 velocity=0 time=0@note_on channel=0 note=69 velocity=96 time=0.0008064520833333332@note_on channel=2 note=62 velocity=112 time=0@note_on channel=4 note=62 velocity=96 time=0@note_on channel=5 note=62 velocity=112 time=0@note_on channel=11 note=86 velocity=112 time=0@note_on channel=0 note=69 velocity=0 time=0.18306462291666664@note_on channel=2 note=62 velocity=0 time=0.009677424999999998@note_on channel=4 note=62 velocity=0 time=0@note_on channel=5 note=62 velocity=0 time=0@note_on channel=7 note=43 velocity=0 time=0@note_on channel=9 note=42 velocity=0 time=0@note_on channel=9 note=35 velocity=0 time=0@note_on channel=9 note=49 velocity=0 time=0@note_on channel=11 note=86 velocity=0 time=0@note_on channel=0 note=70 velocity=96 time=0.0008064520833333332@note_on channel=2 note=70 velocity=112 time=0@note_on channel=5 note=70 velocity=112 time=0@note_on channel=7 note=43 velocity=80 time=0@note_on channel=9 note=40 velocity=112 time=0@note_on channel=9 note=55 velocity=112 time=0@note_on channel=11 note=94 velocity=112 time=0@note_on channel=0 note=70 velocity=0 time=0.18306462291666664@note_on channel=0 note=67 velocity=96 time=0.010483877083333332@note_on channel=4 note=62 velocity=96 time=0@note_on channel=0 note=67 velocity=0 time=0.18306462291666664@note_on channel=2 note=70 velocity=0 time=0.009677424999999998@note_on channel=4 note=62 velocity=0 time=0@note_on channel=5 note=70 velocity=0 time=0@note_on channel=7 note=43 velocity=0 time=0@note_on channel=9 note=40 velocity=0 time=0@note_on channel=9 note=55 velocity=0 time=0@note_on channel=11 note=94 velocity=0 time=0@note_on channel=0 note=74 velocity=96 time=0.0008064520833333332@note_on channel=2 note=69 velocity=112 time=0@note_on channel=5 note=69 velocity=112 time=0@note_on channel=7 note=43 velocity=80 time=0@note_on channel=9 note=42 velocity=112 time=0@note_on channel=9 note=35 velocity=112 time=0@note_on channel=11 note=93 velocity=112 time=0@note_on channel=0 note=74 velocity=0 time=0.18306462291666664@note_on channel=0 note=67 velocity=96 time=0.010483877083333332@note_on channel=4 note=62 velocity=96 time=0@note_on channel=0 note=67 velocity=0 time=0.18306462291666664@note_on channel=2 note=69 velocity=0 time=0.009677424999999998@note_on channel=4 note=62 velocity=0 time=0@note_on channel=5 note=69 velocity=0 time=0@note_on channel=7 note=43 velocity=0 time=0@note_on channel=9 note=42 velocity=0 time=0@note_on channel=9 note=35 velocity=0 time=0@note_on channel=11 note=93 velocity=0 time=0@note_on channel=0 note=70 velocity=96 time=0.0008064520833333332@note_on channel=2 note=70 velocity=112 time=0@note_on channel=5 note=70 velocity=112 time=0@note_on channel=7 note=43 velocity=80 time=0@note_on channel=9 note=40 velocity=112 time=0@note_on channel=9 note=55 velocity=112 time=0@note_on channel=11 note=94 velocity=112 time=0@note_on channel=4 note=62 velocity=96 time=0.19354849999999998@note_on channel=0 note=70 velocity=0 time=0.17338719791666665@note_on channel=2 note=70 velocity=0 time=0.019354849999999996@note_on channel=4 note=62 velocity=0 time=0@note_on channel=5 note=70 velocity=0 time=0@note_on channel=7 note=43 velocity=0 time=0@note_on channel=8 note=43 velocity=0 time=0@note_on channel=9 note=40 velocity=0 time=0@note_on channel=9 note=55 velocity=0 time=0@note_on channel=11 note=94 velocity=0 time=0@note_on channel=0 note=66 velocity=96 time=0.0008064520833333332@note_on channel=2 note=72 velocity=112 time=0@note_on channel=5 note=72 velocity=112 time=0@note_on channel=7 note=42 velocity=80 time=0@note_on channel=8 note=42 velocity=80 time=0@note_on channel=9 note=42 velocity=112 time=0@note_on channel=9 note=35 velocity=112 time=0@note_on channel=11 note=96 velocity=112 time=0@note_on channel=0 note=66 velocity=0 time=0.18306462291666664@note_on channel=0 note=67 velocity=96 time=0.010483877083333332@note_on channel=4 note=62 velocity=96 time=0@note_on channel=0 note=67 velocity=0 time=0.18306462291666664@note_on channel=4 note=62 velocity=0 time=0.009677424999999998@note_on channel=7 note=42 velocity=0 time=0@note_on channel=9 note=42 velocity=0 time=0@note_on channel=9 note=35 velocity=0 time=0@note_on channel=0 note=69 velocity=96 time=0.0008064520833333332@note_on channel=7 note=42 velocity=80 time=0@note_on channel=9 note=40 velocity=112 time=0@note_on channel=9 note=55 velocity=112 time=0@note_on channel=0 note=69 velocity=0 time=0.18306462291666664@note_on channel=2 note=72 velocity=0 time=0.009677424999999998@note_on channel=5 note=72 velocity=0 time=0@note_on channel=11 note=96 velocity=0 time=0@note_on channel=0 note=66 velocity=96 time=0.0008064520833333332@note_on channel=2 note=70 velocity=112 time=0@note_on channel=4 note=62 velocity=96 time=0@note_on channel=5 note=70 velocity=112 time=0@note_on channel=11 note=94 velocity=112 time=0@note_on channel=2 note=70 velocity=0 time=0.09596779791666665@note_on channel=5 note=70 velocity=0 time=0@note_on channel=11 note=94 velocity=0 time=0@note_on channel=2 note=69 velocity=112 time=0.0008064520833333332@note_on channel=5 note=69 velocity=112 time=0@note_on channel=11 note=93 velocity=112 time=0@note_on channel=0 note=66 velocity=0 time=0.08629037291666665@note_on channel=2 note=69 velocity=0 time=0.009677424999999998@note_on channel=4 note=62 velocity=0 time=0@note_on channel=5 note=69 velocity=0 time=0@note_on channel=7 note=42 velocity=0 time=0@note_on channel=9 note=40 velocity=0 time=0@note_on channel=9 note=55 velocity=0 time=0@note_on channel=11 note=93 velocity=0 time=0@note_on channel=0 note=74 velocity=96 time=0.0008064520833333332@note_on channel=2 note=70 velocity=112 time=0@note_on channel=5 note=70 velocity=112 time=0@note_on channel=7 note=42 velocity=80 time=0@note_on channel=9 note=42 velocity=112 time=0@note_on channel=9 note=35 velocity=112 time=0@note_on channel=11 note=94 velocity=112 time=0@note_on channel=0 note=74 velocity=0 time=0.18306462291666664@note_on channel=0 note=67 velocity=96 time=0.010483877083333332@note_on channel=4 note=62 velocity=96 time=0@note_on channel=0 note=67 velocity=0 time=0.18306462291666664@note_on channel=2 note=70 velocity=0 time=0.009677424999999998@note_on channel=4 note=62 velocity=0 time=0@note_on channel=5 note=70 velocity=0 time=0@note_on channel=7 note=42 velocity=0 time=0@note_on channel=9 note=42 velocity=0 time=0@note_on channel=9 note=35 velocity=0 time=0@note_on channel=11 note=94 velocity=0 time=0@note_on channel=0 note=70 velocity=96 time=0.0008064520833333332@note_on channel=2 note=67 velocity=112 time=0@note_on channel=5 note=67 velocity=112 time=0@note_on channel=7 note=42 velocity=80 time=0@note_on channel=9 note=40 velocity=112 time=0@note_on channel=9 note=55 velocity=112 time=0@note_on channel=11 note=91 velocity=112 time=0@note_on channel=4 note=62 velocity=96 time=0.19354849999999998@note_on channel=0 note=70 velocity=0 time=0.17338719791666665@note_on channel=2 note=67 velocity=0 time=0.019354849999999996@note_on channel=4 note=62 velocity=0 time=0@note_on channel=5 note=67 velocity=0 time=0@note_on channel=7 note=42 velocity=0 time=0@note_on channel=8 note=42 velocity=0 time=0@note_on channel=9 note=40 velocity=0 time=0@note_on channel=9 note=55 velocity=0 time=0@note_on channel=11 note=91 velocity=0 time=0@note_on channel=0 note=65 velocity=96 time=0.0008064520833333332@note_on channel=2 note=74 velocity=112 time=0@note_on channel=5 note=74 velocity=112 time=0@note_on channel=7 note=41 velocity=80 time=0@note_on channel=8 note=41 velocity=80 time=0@note_on channel=9 note=36 velocity=112 time=0@note_on channel=11 note=98 velocity=112 time=0@note_on channel=0 note=65 velocity=0 time=0.18306462291666664@note_on channel=0 note=67 velocity=96 time=0.010483877083333332@note_on channel=4 note=62 velocity=96 time=0@note_on channel=0 note=67 velocity=0 time=0.18306462291666664@note_on channel=4 note=62 velocity=0 time=0.009677424999999998@note_on channel=7 note=41 velocity=0 time=0@note_on channel=9 note=36 velocity=0 time=0@note_on channel=0 note=70 velocity=96 time=0.0008064520833333332@note_on channel=7 note=41 velocity=80 time=0@note_on channel=9 note=40 velocity=112 time=0@note_on channel=9 note=55 velocity=112 time=0@note_on channel=0 note=70 velocity=0 time=0.18306462291666664@note_on channel=2 note=74 velocity=0 time=0.009677424999999998@note_on channel=5 note=74 velocity=0 time=0@note_on channel=11 note=98 velocity=0 time=0@note_on channel=0 note=65 velocity=96 time=0.0008064520833333332@note_on channel=2 note=72 velocity=112 time=0@note_on channel=4 note=62 velocity=96 time=0@note_on channel=5 note=72 velocity=112 time=0@note_on channel=11 note=96 velocity=112 time=0@note_on channel=2 note=72 velocity=0 time=0.09596779791666665@note_on channel=5 note=72 velocity=0 time=0@note_on channel=11 note=96 velocity=0 time=0@note_on channel=2 note=70 velocity=112 time=0.0008064520833333332@note_on channel=5 note=70 velocity=112 time=0@note_on channel=11 note=94 velocity=112 time=0@note_on channel=0 note=65 velocity=0 time=0.08629037291666665@note_on channel=2 note=70 velocity=0 time=0.009677424999999998@note_on channel=4 note=62 velocity=0 time=0@note_on channel=5 note=70 velocity=0 time=0@note_on channel=7 note=41 velocity=0 time=0@note_on channel=9 note=40 velocity=0 time=0@note_on channel=9 note=55 velocity=0 time=0@note_on channel=11 note=94 velocity=0 time=0@note_on channel=0 note=70 velocity=96 time=0.0008064520833333332@note_on channel=2 note=72 velocity=112 time=0@note_on channel=5 note=72 velocity=112 time=0@note_on channel=7 note=41 velocity=80 time=0@note_on channel=9 note=36 velocity=112 time=0@note_on channel=11 note=96 velocity=112 time=0@note_on channel=0 note=70 velocity=0 time=0.18306462291666664@note_on channel=0 note=67 velocity=96 time=0.010483877083333332@note_on channel=4 note=62 velocity=96 time=0@note_on channel=0 note=67 velocity=0 time=0.18306462291666664@note_on channel=2 note=72 velocity=0 time=0.009677424999999998@note_on channel=4 note=62 velocity=0 time=0@note_on channel=5 note=72 velocity=0 time=0@note_on channel=7 note=41 velocity=0 time=0@note_on channel=9 note=36 velocity=0 time=0@note_on channel=11 note=96 velocity=0 time=0@note_on channel=0 note=69 velocity=96 time=0.0008064520833333332@note_on channel=2 note=67 velocity=112 time=0@note_on channel=5 note=67 velocity=112 time=0@note_on channel=7 note=41 velocity=80 time=0@note_on channel=9 note=40 velocity=112 time=0@note_on channel=9 note=55 velocity=112 time=0@note_on channel=11 note=91 velocity=112 time=0@note_on channel=4 note=62 velocity=96 time=0.19354849999999998@note_on channel=0 note=69 velocity=0 time=0.17338719791666665@note_on channel=2 note=67 velocity=0 time=0.019354849999999996@note_on channel=4 note=62 velocity=0 time=0@note_on channel=5 note=67 velocity=0 time=0@note_on channel=7 note=41 velocity=0 time=0@note_on channel=8 note=41 velocity=0 time=0@note_on channel=9 note=40 velocity=0 time=0@note_on channel=9 note=55 velocity=0 time=0@note_on channel=11 note=91 velocity=0 time=0@note_on channel=0 note=65 velocity=96 time=0.0008064520833333332@note_on channel=2 note=70 velocity=112 time=0@note_on channel=5 note=70 velocity=112 time=0@note_on channel=7 note=40 velocity=80 time=0@note_on channel=8 note=40 velocity=80 time=0@note_on channel=9 note=36 velocity=112 time=0@note_on channel=11 note=94 velocity=112 time=0@note_on channel=0 note=65 velocity=0 time=0.18306462291666664@note_on channel=0 note=67 velocity=96 time=0.010483877083333332@note_on channel=4 note=62 velocity=96 time=0@note_on channel=0 note=67 velocity=0 time=0.18306462291666664@note_on channel=4 note=62 velocity=0 time=0.009677424999999998@note_on channel=7 note=40 velocity=0 time=0@note_on channel=9 note=36 velocity=0 time=0@note_on channel=0 note=70 velocity=96 time=0.0008064520833333332@note_on channel=7 note=40 velocity=80 time=0@note_on channel=9 note=40 velocity=112 time=0@note_on channel=9 note=55 velocity=112 time=0@note_on channel=0 note=70 velocity=0 time=0.18306462291666664@note_on channel=2 note=70 velocity=0 time=0.009677424999999998@note_on channel=5 note=70 velocity=0 time=0@note_on channel=11 note=94 velocity=0 time=0@note_on channel=0 note=65 velocity=96 time=0.0008064520833333332@note_on channel=2 note=69 velocity=112 time=0@note_on channel=4 note=62 velocity=96 time=0@note_on channel=5 note=69 velocity=112 time=0@note_on channel=11 note=93 velocity=112 time=0@note_on channel=2 note=69 velocity=0 time=0.09596779791666665@note_on channel=5 note=69 velocity=0 time=0@note_on channel=11 note=93 velocity=0 time=0@note_on channel=2 note=67 velocity=112 time=0.0008064520833333332@note_on channel=5 note=67 velocity=112 time=0@note_on channel=11 note=91 velocity=112 time=0@note_on channel=0 note=65 velocity=0 time=0.08629037291666665@note_on channel=2 note=67 velocity=0 time=0.009677424999999998@note_on channel=4 note=62 velocity=0 time=0@note_on channel=5 note=67 velocity=0 time=0@note_on channel=7 note=40 velocity=0 time=0@note_on channel=9 note=40 velocity=0 time=0@note_on channel=9 note=55 velocity=0 time=0@note_on channel=11 note=91 velocity=0 time=0@note_on channel=0 note=69 velocity=96 time=0.0008064520833333332@note_on channel=2 note=69 velocity=112 time=0@note_on channel=5 note=69 velocity=112 time=0@note_on channel=7 note=40 velocity=80 time=0@note_on channel=9 note=36 velocity=112 time=0@note_on channel=11 note=93 velocity=112 time=0@note_on channel=4 note=62 velocity=96 time=0.19354849999999998@note_on channel=0 note=69 velocity=0 time=0.17338719791666665@note_on channel=2 note=69 velocity=0 time=0.019354849999999996@note_on channel=4 note=62 velocity=0 time=0@note_on channel=5 note=69 velocity=0 time=0@note_on channel=7 note=40 velocity=0 time=0@note_on channel=9 note=36 velocity=0 time=0@note_on channel=11 note=93 velocity=0 time=0@note_on channel=0 note=66 velocity=96 time=0.0008064520833333332@note_on channel=2 note=66 velocity=112 time=0@note_on channel=5 note=66 velocity=112 time=0@note_on channel=7 note=40 velocity=80 time=0@note_on channel=9 note=40 velocity=112 time=0@note_on channel=9 note=55 velocity=112 time=0@note_on channel=11 note=90 velocity=112 time=0@note_on channel=4 note=62 velocity=96 time=0.19354849999999998@note_on channel=0 note=66 velocity=0 time=0.17338719791666665@note_on channel=2 note=66 velocity=0 time=0.019354849999999996@note_on channel=4 note=62 velocity=0 time=0@note_on channel=5 note=66 velocity=0 time=0@note_on channel=7 note=40 velocity=0 time=0@note_on channel=8 note=40 velocity=0 time=0@note_on channel=9 note=40 velocity=0 time=0@note_on channel=9 note=55 velocity=0 time=0@note_on channel=11 note=90 velocity=0 time=0@note_on channel=0 note=75 velocity=96 time=0.0008064520833333332@note_on channel=2 note=67 velocity=112 time=0@note_on channel=5 note=67 velocity=112 time=0@note_on channel=7 note=39 velocity=80 time=0@note_on channel=8 note=39 velocity=80 time=0@note_on channel=9 note=57 velocity=112 time=0@note_on channel=9 note=36 velocity=112 time=0@note_on channel=9 note=49 velocity=80 time=0@note_on channel=11 note=91 velocity=112 time=0@note_on channel=2 note=67 velocity=0 time=0.19274204791666663@note_on channel=5 note=67 velocity=0 time=0@note_on channel=11 note=91 velocity=0 time=0@note_on channel=2 note=63 velocity=112 time=0.0008064520833333332@note_on channel=4 note=62 velocity=96 time=0@note_on channel=5 note=63 velocity=112 time=0@note_on channel=11 note=87 velocity=112 time=0@note_on channel=0 note=75 velocity=0 time=0.17338719791666665@note_on channel=2 note=63 velocity=0 time=0.019354849999999996@note_on channel=4 note=62 velocity=0 time=0@note_on channel=5 note=63 velocity=0 time=0@note_on channel=7 note=39 velocity=0 time=0@note_on channel=9 note=57 velocity=0 time=0@note_on channel=9 note=36 velocity=0 time=0@note_on channel=9 note=49 velocity=0 time=0@note_on channel=11 note=87 velocity=0 time=0@note_on channel=0 note=74 velocity=96 time=0.0008064520833333332@note_on channel=2 note=69 velocity=112 time=0@note_on channel=5 note=69 velocity=112 time=0@note_on channel=7 note=39 velocity=80 time=0@note_on channel=9 note=40 velocity=112 time=0@note_on channel=9 note=55 velocity=112 time=0@note_on channel=11 note=93 velocity=112 time=0@note_on channel=0 note=74 velocity=0 time=0.18306462291666664@note_on channel=0 note=75 velocity=96 time=0.010483877083333332@note_on channel=4 note=62 velocity=96 time=0@note_on channel=0 note=75 velocity=0 time=0.18306462291666664@note_on channel=2 note=69 velocity=0 time=0.009677424999999998@note_on channel=4 note=62 velocity=0 time=0@note_on channel=5 note=69 velocity=0 time=0@note_on channel=7 note=39 velocity=0 time=0@note_on channel=9 note=40 velocity=0 time=0@note_on channel=9 note=55 velocity=0 time=0@note_on channel=11 note=93 velocity=0 time=0@note_on channel=0 note=77 velocity=96 time=0.0008064520833333332@note_on channel=2 note=70 velocity=112 time=0@note_on channel=5 note=70 velocity=112 time=0@note_on channel=7 note=39 velocity=80 time=0@note_on channel=9 note=36 velocity=112 time=0@note_on channel=11 note=94 velocity=112 time=0@note_on channel=4 note=62 velocity=96 time=0.19354849999999998@note_on channel=0 note=77 velocity=0 time=0.17338719791666665@note_on channel=2 note=70 velocity=0 time=0.019354849999999996@note_on channel=4 note=62 velocity=0 time=0@note_on channel=5 note=70 velocity=0 time=0@note_on channel=7 note=39 velocity=0 time=0@note_on channel=9 note=36 velocity=0 time=0@note_on channel=11 note=94 velocity=0 time=0@note_on channel=0 note=79 velocity=96 time=0.0008064520833333332@note_on channel=2 note=72 velocity=112 time=0@note_on channel=5 note=72 velocity=112 time=0@note_on channel=7 note=39 velocity=80 time=0@note_on channel=9 note=40 velocity=112 time=0@note_on channel=9 note=55 velocity=112 time=0@note_on channel=11 note=96 velocity=112 time=0@note_on channel=4 note=62 velocity=96 time=0.19354849999999998@note_on channel=0 note=79 velocity=0 time=0.17338719791666665@note_on channel=2 note=72 velocity=0 time=0.019354849999999996@note_on channel=4 note=62 velocity=0 time=0@note_on channel=5 note=72 velocity=0 time=0@note_on channel=7 note=39 velocity=0 time=0@note_on channel=8 note=39 velocity=0 time=0@note_on channel=9 note=40 velocity=0 time=0@note_on channel=9 note=55 velocity=0 time=0@note_on channel=11 note=96 velocity=0 time=0@note_on channel=0 note=67 velocity=96 time=0.0008064520833333332@note_on channel=2 note=69 velocity=112 time=0@note_on channel=5 note=69 velocity=112 time=0@note_on channel=7 note=38 velocity=80 time=0@note_on channel=8 note=38 velocity=80 time=0@note_on channel=9 note=36 velocity=112 time=0@note_on channel=11 note=93 velocity=112 time=0@note_on channel=2 note=69 velocity=0 time=0.19274204791666663@note_on channel=5 note=69 velocity=0 time=0@note_on channel=11 note=93 velocity=0 time=0@note_on channel=2 note=62 velocity=112 time=0.0008064520833333332@note_on channel=5 note=62 velocity=112 time=0@note_on channel=11 note=86 velocity=112 time=0@note_on channel=2 note=62 velocity=0 time=0.19274204791666663@note_on channel=5 note=62 velocity=0 time=0@note_on channel=7 note=38 velocity=0 time=0@note_on channel=9 note=36 velocity=0 time=0@note_on channel=11 note=86 velocity=0 time=0@note_on channel=2 note=67 velocity=112 time=0.0008064520833333332@note_on channel=5 note=67 velocity=112 time=0@note_on channel=7 note=38 velocity=80 time=0@note_on channel=9 note=40 velocity=112 time=0@note_on channel=9 note=55 velocity=112 time=0@note_on channel=11 note=91 velocity=112 time=0@note_on channel=0 note=67 velocity=0 time=0.16370977291666663@note_on channel=0 note=69 velocity=96 time=0.02983872708333333@note_on channel=0 note=69 velocity=0 time=0.09112908541666666@note_on channel=0 note=67 velocity=96 time=0.005645164583333332@note_on channel=0 note=67 velocity=0 time=0.09112908541666666@note_on channel=2 note=67 velocity=0 time=0.004838712499999999@note_on channel=5 note=67 velocity=0 time=0@note_on channel=7 note=38 velocity=0 time=0@note_on channel=9 note=40 velocity=0 time=0@note_on channel=9 note=55 velocity=0 time=0@note_on channel=11 note=91 velocity=0 time=0@note_on channel=0 note=66 velocity=96 time=0.0008064520833333332@note_on channel=2 note=69 velocity=112 time=0@note_on channel=5 note=69 velocity=112 time=0@note_on channel=7 note=38 velocity=80 time=0@note_on channel=9 note=36 velocity=112 time=0@note_on channel=11 note=93 velocity=112 time=0@note_on channel=0 note=66 velocity=0 time=0.24435498124999996@note_on channel=0 note=67 velocity=96 time=0.013709685416666664@note_on channel=2 note=69 velocity=0 time=0.12822588124999998@note_on channel=5 note=69 velocity=0 time=0@note_on channel=7 note=38 velocity=0 time=0@note_on channel=9 note=36 velocity=0 time=0@note_on channel=11 note=93 velocity=0 time=0@note_on channel=2 note=66 velocity=112 time=0.0008064520833333332@note_on channel=5 note=66 velocity=112 time=0@note_on channel=7 note=38 velocity=80 time=0@note_on channel=9 note=40 velocity=112 time=0@note_on channel=9 note=55 velocity=112 time=0@note_on channel=11 note=90 velocity=112 time=0@note_on channel=0 note=67 velocity=0 time=0.11532264791666665@note_on channel=0 note=69 velocity=96 time=0.013709685416666664@note_on channel=0 note=69 velocity=0 time=0.24435498124999996@note_on channel=2 note=66 velocity=0 time=0.012903233333333331@note_on channel=5 note=66 velocity=0 time=0@note_on channel=7 note=38 velocity=0 time=0@note_on channel=8 note=38 velocity=0 time=0@note_on channel=9 note=40 velocity=0 time=0@note_on channel=9 note=55 velocity=0 time=0@note_on channel=11 note=90 velocity=0 time=0@note_on channel=0 note=67 velocity=96 time=0.0008064520833333332@note_on channel=2 note=67 velocity=112 time=0@note_on channel=5 note=67 velocity=112 time=0@note_on channel=7 note=43 velocity=80 time=0@note_on channel=8 note=43 velocity=80 time=0@note_on channel=9 note=36 velocity=112 time=0@note_on channel=11 note=91 velocity=112 time=0@note_on channel=9 note=36 velocity=0 time=0.3862905479166666@note_on channel=9 note=40 velocity=112 time=0.0008064520833333332@note_on channel=9 note=49 velocity=80 time=0@note_on channel=0 note=67 velocity=0 time=0.16370977291666663@note_on channel=0 note=66 velocity=96 time=0.02983872708333333@note_on channel=0 note=66 velocity=0 time=0.09112908541666666@note_on channel=0 note=67 velocity=96 time=0.005645164583333332@note_on channel=0 note=67 velocity=0 time=0.09112908541666666@note_on channel=2 note=67 velocity=0 time=0.004838712499999999@note_on channel=5 note=67 velocity=0 time=0@note_on channel=7 note=43 velocity=0 time=0@note_on channel=8 note=43 velocity=0 time=0@note_on channel=9 note=40 velocity=0 time=0@note_on channel=9 note=49 velocity=0 time=0@note_on channel=11 note=91 velocity=0 time=0@note_on channel=0 note=69 velocity=96 time=0.0008064520833333332@note_on channel=2 note=69 velocity=112 time=0@note_on channel=5 note=69 velocity=112 time=0@note_on channel=7 note=45 velocity=80 time=0@note_on channel=8 note=45 velocity=80 time=0@note_on channel=9 note=36 velocity=112 time=0@note_on channel=11 note=93 velocity=112 time=0@note_on channel=9 note=36 velocity=0 time=0.3862905479166666@note_on channel=9 note=40 velocity=112 time=0.0008064520833333332@note_on channel=9 note=49 velocity=80 time=0@note_on channel=0 note=69 velocity=0 time=0.16370977291666663@note_on channel=0 note=67 velocity=96 time=0.02983872708333333@note_on channel=0 note=67 velocity=0 time=0.09112908541666666@note_on channel=0 note=69 velocity=96 time=0.005645164583333332@note_on channel=0 note=69 velocity=0 time=0.09112908541666666@note_on channel=2 note=69 velocity=0 time=0.004838712499999999@note_on channel=5 note=69 velocity=0 time=0@note_on channel=7 note=45 velocity=0 time=0@note_on channel=8 note=45 velocity=0 time=0@note_on channel=9 note=40 velocity=0 time=0@note_on channel=9 note=49 velocity=0 time=0@note_on channel=11 note=93 velocity=0 time=0@note_on channel=0 note=70 velocity=96 time=0.0008064520833333332@note_on channel=2 note=70 velocity=112 time=0@note_on channel=5 note=70 velocity=112 time=0@note_on channel=7 note=46 velocity=80 time=0@note_on channel=8 note=46 velocity=80 time=0@note_on channel=9 note=42 velocity=112 time=0@note_on channel=9 note=35 velocity=112 time=0@note_on channel=11 note=94 velocity=112 time=0@note_on channel=0 note=70 velocity=0 time=0.36693569791666664@note_on channel=2 note=70 velocity=0 time=0.019354849999999996@note_on channel=5 note=70 velocity=0 time=0@note_on channel=7 note=46 velocity=0 time=0@note_on channel=8 note=46 velocity=0 time=0@note_on channel=9 note=42 velocity=0 time=0@note_on channel=9 note=35 velocity=0 time=0@note_on channel=11 note=94 velocity=0 time=0@note_on channel=0 note=72 velocity=96 time=0.0008064520833333332@note_on channel=2 note=72 velocity=112 time=0@note_on channel=5 note=72 velocity=112 time=0@note_on channel=7 note=48 velocity=80 time=0@note_on channel=8 note=48 velocity=80 time=0@note_on channel=9 note=40 velocity=112 time=0@note_on channel=9 note=49 velocity=80 time=0@note_on channel=11 note=96 velocity=112 time=0@note_on channel=0 note=72 velocity=0 time=0.36693569791666664@note_on channel=2 note=72 velocity=0 time=0.019354849999999996@note_on channel=5 note=72 velocity=0 time=0@note_on channel=7 note=48 velocity=0 time=0@note_on channel=8 note=48 velocity=0 time=0@note_on channel=9 note=40 velocity=0 time=0@note_on channel=9 note=49 velocity=0 time=0@note_on channel=11 note=96 velocity=0 time=0@note_on channel=0 note=70 velocity=96 time=0.0008064520833333332@note_on channel=2 note=70 velocity=112 time=0@note_on channel=5 note=70 velocity=112 time=0@note_on channel=7 note=46 velocity=80 time=0@note_on channel=8 note=46 velocity=80 time=0@note_on channel=9 note=42 velocity=112 time=0@note_on channel=9 note=35 velocity=112 time=0@note_on channel=11 note=94 velocity=112 time=0@note_on channel=0 note=70 velocity=0 time=0.36693569791666664@note_on channel=2 note=70 velocity=0 time=0.019354849999999996@note_on channel=5 note=70 velocity=0 time=0@note_on channel=7 note=46 velocity=0 time=0@note_on channel=8 note=46 velocity=0 time=0@note_on channel=9 note=42 velocity=0 time=0@note_on channel=9 note=35 velocity=0 time=0@note_on channel=11 note=94 velocity=0 time=0@note_on channel=0 note=69 velocity=96 time=0.0008064520833333332@note_on channel=2 note=69 velocity=112 time=0@note_on channel=5 note=69 velocity=112 time=0@note_on channel=7 note=45 velocity=80 time=0@note_on channel=8 note=45 velocity=80 time=0@note_on channel=9 note=40 velocity=112 time=0@note_on channel=9 note=49 velocity=80 time=0@note_on channel=11 note=93 velocity=112 time=0@note_on channel=0 note=69 velocity=0 time=0.36693569791666664@note_on channel=2 note=69 velocity=0 time=0.019354849999999996@note_on channel=5 note=69 velocity=0 time=0@note_on channel=7 note=45 velocity=0 time=0@note_on channel=8 note=45 velocity=0 time=0@note_on channel=9 note=40 velocity=0 time=0@note_on channel=9 note=49 velocity=0 time=0@note_on channel=11 note=93 velocity=0 time=0@note_on channel=0 note=63 velocity=64 time=0.0008064520833333332@note_on channel=2 note=67 velocity=112 time=0@note_on channel=5 note=67 velocity=112 time=0@note_on channel=8 note=39 velocity=80 time=0@note_on channel=9 note=42 velocity=112 time=0@note_on channel=9 note=35 velocity=112 time=0@note_on channel=11 note=91 velocity=112 time=0@note_on channel=9 note=42 velocity=0 time=0.3862905479166666@note_on channel=9 note=35 velocity=0 time=0@note_on channel=9 note=40 velocity=112 time=0.0008064520833333332@note_on channel=9 note=49 velocity=80 time=0@note_on channel=9 note=40 velocity=0 time=0.3862905479166666@note_on channel=9 note=49 velocity=0 time=0@note_on channel=9 note=42 velocity=112 time=0.0008064520833333332@note_on channel=9 note=35 velocity=112 time=0@note_on channel=9 note=42 velocity=0 time=0.3862905479166666@note_on channel=9 note=35 velocity=0 time=0@note_on channel=9 note=40 velocity=112 time=0.0008064520833333332@note_on channel=9 note=49 velocity=80 time=0@note_on channel=2 note=67 velocity=0 time=0.19274204791666663@note_on channel=5 note=67 velocity=0 time=0@note_on channel=11 note=91 velocity=0 time=0@note_on channel=2 note=66 velocity=112 time=0.0008064520833333332@note_on channel=5 note=66 velocity=112 time=0@note_on channel=11 note=90 velocity=112 time=0@note_on channel=2 note=66 velocity=0 time=0.09596779791666665@note_on channel=5 note=66 velocity=0 time=0@note_on channel=11 note=90 velocity=0 time=0@note_on channel=2 note=64 velocity=112 time=0.0008064520833333332@note_on channel=5 note=64 velocity=112 time=0@note_on channel=11 note=88 velocity=112 time=0@note_on channel=0 note=63 velocity=0 time=0.018548397916666664@note_on channel=2 note=64 velocity=0 time=0.07741939999999999@note_on channel=5 note=64 velocity=0 time=0@note_on channel=8 note=39 velocity=0 time=0@note_on channel=9 note=40 velocity=0 time=0@note_on channel=9 note=49 velocity=0 time=0@note_on channel=11 note=88 velocity=0 time=0@note_on channel=0 note=60 velocity=64 time=0.0008064520833333332@note_on channel=2 note=66 velocity=112 time=0@note_on channel=5 note=66 velocity=112 time=0@note_on channel=8 note=36 velocity=80 time=0@note_on channel=9 note=42 velocity=112 time=0@note_on channel=9 note=35 velocity=112 time=0@note_on channel=11 note=90 velocity=112 time=0@note_on channel=9 note=42 velocity=0 time=0.3862905479166666@note_on channel=9 note=35 velocity=0 time=0@note_on channel=9 note=40 velocity=112 time=0.0008064520833333332@note_on channel=9 note=49 velocity=80 time=0@note_on channel=0 note=60 velocity=0 time=0.3475808479166666@note_on channel=8 note=36 velocity=0 time=0.03870969999999999@note_on channel=9 note=40 velocity=0 time=0@note_on channel=9 note=49 velocity=0 time=0@note_on channel=0 note=62 velocity=64 time=0.0008064520833333332@note_on channel=8 note=38 velocity=80 time=0@note_on channel=9 note=42 velocity=112 time=0@note_on channel=9 note=35 velocity=112 time=0@note_on channel=9 note=42 velocity=0 time=0.3862905479166666@note_on channel=9 note=35 velocity=0 time=0@note_on channel=9 note=40 velocity=112 time=0.0008064520833333332@note_on channel=9 note=49 velocity=80 time=0@note_on channel=0 note=62 velocity=0 time=0.3475808479166666@note_on channel=2 note=66 velocity=0 time=0.03870969999999999@note_on channel=5 note=66 velocity=0 time=0@note_on channel=8 note=38 velocity=0 time=0@note_on channel=9 note=40 velocity=0 time=0@note_on channel=9 note=49 velocity=0 time=0@note_on channel=11 note=90 velocity=0 time=0@note_on channel=3 note=67 velocity=96 time=0.0008064520833333332@note_on channel=7 note=43 velocity=64 time=0@note_on channel=8 note=31 velocity=96 time=0@note_on channel=9 note=42 velocity=80 time=0@note_on channel=9 note=56 velocity=96 time=0@note_on channel=3 note=67 velocity=0 time=0.09596779791666665@note_on channel=3 note=69 velocity=96 time=0.0008064520833333332@note_on channel=3 note=69 velocity=0 time=0.09596779791666665@note_on channel=7 note=43 velocity=0 time=0@note_on channel=8 note=31 velocity=0 time=0@note_on channel=9 note=56 velocity=0 time=0@note_on channel=3 note=70 velocity=96 time=0.0008064520833333332@note_on channel=7 note=43 velocity=64 time=0@note_on channel=8 note=31 velocity=96 time=0@note_on channel=9 note=56 velocity=96 time=0@note_on channel=3 note=70 velocity=0 time=0.09596779791666665@note_on channel=3 note=72 velocity=96 time=0.0008064520833333332@note_on channel=3 note=72 velocity=0 time=0.09596779791666665@note_on channel=9 note=42 velocity=0 time=0@note_on channel=3 note=74 velocity=96 time=0.0008064520833333332@note_on channel=9 note=38 velocity=80 time=0@note_on channel=9 note=42 velocity=80 time=0@note_on channel=3 note=74 velocity=0 time=0.19274204791666663@note_on channel=7 note=43 velocity=0 time=0@note_on channel=8 note=31 velocity=0 time=0@note_on channel=9 note=38 velocity=0 time=0@note_on channel=9 note=42 velocity=0 time=0@note_on channel=9 note=56 velocity=0 time=0@note_on channel=3 note=73 velocity=96 time=0.0008064520833333332@note_on channel=7 note=43 velocity=64 time=0@note_on channel=8 note=31 velocity=96 time=0@note_on channel=9 note=42 velocity=80 time=0@note_on channel=9 note=56 velocity=96 time=0@note_on channel=9 note=42 velocity=0 time=0.09596779791666665@note_on channel=9 note=42 velocity=80 time=0.0008064520833333332@note_on channel=3 note=73 velocity=0 time=0.09596779791666665@note_on channel=9 note=42 velocity=0 time=0@note_on channel=4 note=55 velocity=96 time=0.0008064520833333332@note_on channel=9 note=42 velocity=80 time=0@note_on channel=4 note=55 velocity=0 time=0.09596779791666665@note_on channel=4 note=55 velocity=96 time=0.0008064520833333332@note_on channel=4 note=55 velocity=0 time=0.09596779791666665@note_on channel=7 note=43 velocity=0 time=0@note_on channel=8 note=31 velocity=0 time=0@note_on channel=9 note=42 velocity=0 time=0@note_on channel=9 note=56 velocity=0 time=0@note_on channel=4 note=55 velocity=96 time=0.0008064520833333332@note_on channel=7 note=43 velocity=64 time=0@note_on channel=8 note=31 velocity=96 time=0@note_on channel=9 note=42 velocity=80 time=0@note_on channel=9 note=56 velocity=96 time=0@note_on channel=4 note=55 velocity=0 time=0.19274204791666663@note_on channel=9 note=42 velocity=0 time=0@note_on channel=4 note=58 velocity=96 time=0.0008064520833333332@note_on channel=9 note=42 velocity=80 time=0@note_on channel=4 note=58 velocity=0 time=0.19274204791666663@note_on channel=7 note=43 velocity=0 time=0@note_on channel=8 note=31 velocity=0 time=0@note_on channel=9 note=42 velocity=0 time=0@note_on channel=9 note=56 velocity=0 time=0@note_on channel=4 note=55 velocity=96 time=0.0008064520833333332@note_on channel=7 note=43 velocity=64 time=0@note_on channel=8 note=31 velocity=96 time=0@note_on channel=9 note=42 velocity=80 time=0@note_on channel=9 note=56 velocity=96 time=0@note_on channel=9 note=42 velocity=0 time=0.09596779791666665@note_on channel=9 note=42 velocity=80 time=0.0008064520833333332@note_on channel=4 note=55 velocity=0 time=0.09596779791666665@note_on channel=9 note=42 velocity=0 time=0@note_on channel=9 note=56 velocity=0 time=0@note_on channel=3 note=67 velocity=96 time=0.0008064520833333332@note_on channel=9 note=42 velocity=80 time=0@note_on channel=9 note=56 velocity=96 time=0@note_on channel=3 note=67 velocity=0 time=0.09596779791666665@note_on channel=3 note=69 velocity=96 time=0.0008064520833333332@note_on channel=3 note=69 velocity=0 time=0.09596779791666665@note_on channel=7 note=43 velocity=0 time=0@note_on channel=8 note=31 velocity=0 time=0@note_on channel=9 note=56 velocity=0 time=0@note_on channel=3 note=70 velocity=96 time=0.0008064520833333332@note_on channel=4 note=55 velocity=96 time=0@note_on channel=7 note=43 velocity=64 time=0@note_on channel=8 note=31 velocity=96 time=0@note_on channel=9 note=56 velocity=96 time=0@note_on channel=3 note=70 velocity=0 time=0.09596779791666665@note_on channel=9 note=42 velocity=0 time=0.09677424999999999@note_on channel=9 note=38 velocity=80 time=0.0008064520833333332@note_on channel=9 note=42 velocity=80 time=0@note_on channel=3 note=67 velocity=96 time=0.09677424999999999@note_on channel=3 note=67 velocity=0 time=0.09596779791666665@note_on channel=4 note=55 velocity=0 time=0@note_on channel=7 note=43 velocity=0 time=0@note_on channel=8 note=31 velocity=0 time=0@note_on channel=9 note=38 velocity=0 time=0@note_on channel=9 note=42 velocity=0 time=0@note_on channel=9 note=56 velocity=0 time=0@note_on channel=3 note=70 velocity=96 time=0.0008064520833333332@note_on channel=4 note=55 velocity=96 time=0@note_on channel=7 note=43 velocity=64 time=0@note_on channel=8 note=31 velocity=96 time=0@note_on channel=9 note=42 velocity=80 time=0@note_on channel=9 note=56 velocity=96 time=0@note_on channel=3 note=70 velocity=0 time=0.09596779791666665@note_on channel=9 note=42 velocity=0 time=0@note_on channel=3 note=72 velocity=96 time=0.0008064520833333332@note_on channel=9 note=42 velocity=80 time=0@note_on channel=3 note=72 velocity=0 time=0.09596779791666665@note_on channel=4 note=55 velocity=0 time=0@note_on channel=9 note=42 velocity=0 time=0@note_on channel=3 note=73 velocity=96 time=0.0008064520833333332@note_on channel=4 note=58 velocity=96 time=0@note_on channel=9 note=42 velocity=80 time=0@note_on channel=4 note=58 velocity=0 time=0.19274204791666663@note_on channel=7 note=43 velocity=0 time=0@note_on channel=8 note=31 velocity=0 time=0@note_on channel=9 note=42 velocity=0 time=0@note_on channel=9 note=56 velocity=0 time=0@note_on channel=4 note=55 velocity=96 time=0.0008064520833333332@note_on channel=7 note=43 velocity=64 time=0@note_on channel=8 note=31 velocity=96 time=0@note_on channel=9 note=42 velocity=80 time=0@note_on channel=9 note=56 velocity=96 time=0@note_on channel=3 note=73 velocity=0 time=0.19274204791666663@note_on channel=4 note=55 velocity=0 time=0@note_on channel=9 note=42 velocity=0 time=0@note_on channel=3 note=74 velocity=96 time=0.0008064520833333332@note_on channel=4 note=60 velocity=96 time=0@note_on channel=9 note=42 velocity=80 time=0@note_on channel=4 note=60 velocity=0 time=0.19274204791666663@note_on channel=7 note=43 velocity=0 time=0@note_on channel=8 note=31 velocity=0 time=0@note_on channel=9 note=42 velocity=0 time=0@note_on channel=9 note=56 velocity=0 time=0@note_on channel=4 note=62 velocity=96 time=0.0008064520833333332@note_on channel=7 note=43 velocity=64 time=0@note_on channel=8 note=31 velocity=96 time=0@note_on channel=9 note=42 velocity=80 time=0@note_on channel=9 note=56 velocity=96 time=0@note_on channel=9 note=42 velocity=0 time=0.09596779791666665@note_on channel=9 note=42 velocity=80 time=0.0008064520833333332@note_on channel=3 note=74 velocity=0 time=0.09596779791666665@note_on channel=4 note=62 velocity=0 time=0@note_on channel=9 note=42 velocity=0 time=0@note_on channel=9 note=56 velocity=0 time=0@note_on channel=3 note=79 velocity=96 time=0.0008064520833333332@note_on channel=9 note=42 velocity=80 time=0@note_on channel=9 note=56 velocity=96 time=0@note_on channel=3 note=79 velocity=0 time=0.09596779791666665@note_on channel=3 note=67 velocity=96 time=0.0008064520833333332@note_on channel=3 note=67 velocity=0 time=0.09596779791666665@note_on channel=7 note=43 velocity=0 time=0@note_on channel=8 note=31 velocity=0 time=0@note_on channel=9 note=56 velocity=0 time=0@note_on channel=3 note=67 velocity=96 time=0.0008064520833333332@note_on channel=4 note=55 velocity=96 time=0@note_on channel=7 note=43 velocity=64 time=0@note_on channel=8 note=31 velocity=96 time=0@note_on channel=9 note=56 velocity=96 time=0@note_on channel=3 note=67 velocity=0 time=0.09596779791666665@note_on channel=9 note=42 velocity=0 time=0.09677424999999999@note_on channel=9 note=38 velocity=80 time=0.0008064520833333332@note_on channel=9 note=42 velocity=80 time=0@note_on channel=4 note=55 velocity=0 time=0.19274204791666663@note_on channel=7 note=43 velocity=0 time=0@note_on channel=8 note=31 velocity=0 time=0@note_on channel=9 note=38 velocity=0 time=0@note_on channel=9 note=42 velocity=0 time=0@note_on channel=9 note=56 velocity=0 time=0@note_on channel=3 note=67 velocity=96 time=0.0008064520833333332@note_on channel=4 note=55 velocity=96 time=0@note_on channel=7 note=43 velocity=64 time=0@note_on channel=8 note=31 velocity=96 time=0@note_on channel=9 note=42 velocity=80 time=0@note_on channel=9 note=56 velocity=96 time=0@note_on channel=3 note=67 velocity=0 time=0.09596779791666665@note_on channel=9 note=42 velocity=0 time=0@note_on channel=3 note=67 velocity=96 time=0.0008064520833333332@note_on channel=9 note=42 velocity=80 time=0@note_on channel=3 note=67 velocity=0 time=0.09596779791666665@note_on channel=4 note=55 velocity=0 time=0@note_on channel=9 note=42 velocity=0 time=0@note_on channel=3 note=70 velocity=96 time=0.0008064520833333332@note_on channel=4 note=55 velocity=96 time=0@note_on channel=9 note=42 velocity=80 time=0@note_on channel=3 note=70 velocity=0 time=0.09596779791666665@note_on channel=3 note=70 velocity=96 time=0.0008064520833333332@note_on channel=3 note=70 velocity=0 time=0.09596779791666665@note_on channel=4 note=55 velocity=0 time=0@note_on channel=7 note=43 velocity=0 time=0@note_on channel=8 note=31 velocity=0 time=0@note_on channel=9 note=42 velocity=0 time=0@note_on channel=9 note=56 velocity=0 time=0@note_on channel=3 note=67 velocity=96 time=0.0008064520833333332@note_on channel=4 note=54 velocity=96 time=0@note_on channel=7 note=43 velocity=64 time=0@note_on channel=8 note=31 velocity=96 time=0@note_on channel=9 note=42 velocity=80 time=0@note_on channel=9 note=56 velocity=96 time=0@note_on channel=3 note=67 velocity=0 time=0.19274204791666663@note_on channel=4 note=54 velocity=0 time=0@note_on channel=9 note=42 velocity=0 time=0@note_on channel=3 note=70 velocity=96 time=0.0008064520833333332@note_on channel=4 note=53 velocity=96 time=0@note_on channel=9 note=42 velocity=80 time=0@note_on channel=3 note=70 velocity=0 time=0.09596779791666665@note_on channel=3 note=72 velocity=96 time=0.0008064520833333332@note_on channel=3 note=72 velocity=0 time=0.09596779791666665@note_on channel=4 note=53 velocity=0 time=0@note_on channel=7 note=43 velocity=0 time=0@note_on channel=8 note=31 velocity=0 time=0@note_on channel=9 note=42 velocity=0 time=0@note_on channel=9 note=56 velocity=0 time=0@note_on channel=3 note=73 velocity=96 time=0.0008064520833333332@note_on channel=4 note=52 velocity=96 time=0@note_on channel=7 note=43 velocity=64 time=0@note_on channel=8 note=31 velocity=96 time=0@note_on channel=9 note=42 velocity=80 time=0@note_on channel=9 note=56 velocity=96 time=0@note_on channel=3 note=73 velocity=0 time=0.09596779791666665@note_on channel=9 note=42 velocity=0 time=0@note_on channel=3 note=72 velocity=96 time=0.0008064520833333332@note_on channel=9 note=42 velocity=80 time=0@note_on channel=3 note=72 velocity=0 time=0.09596779791666665@note_on channel=4 note=52 velocity=0 time=0@note_on channel=9 note=42 velocity=0 time=0@note_on channel=9 note=56 velocity=0 time=0@note_on channel=3 note=70 velocity=96 time=0.0008064520833333332@note_on channel=9 note=42 velocity=80 time=0@note_on channel=9 note=56 velocity=96 time=0@note_on channel=3 note=70 velocity=0 time=0.09596779791666665@note_on channel=3 note=67 velocity=96 time=0.0008064520833333332@note_on channel=3 note=67 velocity=0 time=0.09596779791666665@note_on channel=7 note=43 velocity=0 time=0@note_on channel=8 note=31 velocity=0 time=0@note_on channel=9 note=56 velocity=0 time=0@note_on channel=3 note=62 velocity=96 time=0.0008064520833333332@note_on channel=4 note=50 velocity=96 time=0@note_on channel=7 note=43 velocity=64 time=0@note_on channel=8 note=31 velocity=96 time=0@note_on channel=9 note=56 velocity=96 time=0@note_on channel=3 note=62 velocity=0 time=0.09596779791666665@note_on channel=3 note=67 velocity=96 time=0.0008064520833333332@note_on channel=3 note=67 velocity=0 time=0.09596779791666665@note_on channel=9 note=42 velocity=0 time=0@note_on channel=3 note=69 velocity=96 time=0.0008064520833333332@note_on channel=9 note=38 velocity=80 time=0@note_on channel=9 note=42 velocity=80 time=0@note_on channel=4 note=50 velocity=0 time=0.19274204791666663@note_on channel=7 note=43 velocity=0 time=0@note_on channel=8 note=31 velocity=0 time=0@note_on channel=9 note=38 velocity=0 time=0@note_on channel=9 note=42 velocity=0 time=0@note_on channel=9 note=56 velocity=0 time=0@note_on channel=4 note=50 velocity=96 time=0.0008064520833333332@note_on channel=7 note=43 velocity=64 time=0@note_on channel=8 note=31 velocity=96 time=0@note_on channel=9 note=42 velocity=80 time=0@note_on channel=9 note=56 velocity=96 time=0@note_on channel=9 note=42 velocity=0 time=0.09596779791666665@note_on channel=9 note=42 velocity=80 time=0.0008064520833333332@note_on channel=3 note=69 velocity=0 time=0.09596779791666665@note_on channel=4 note=50 velocity=0 time=0@note_on channel=9 note=42 velocity=0 time=0@note_on channel=3 note=66 velocity=96 time=0.0008064520833333332@note_on channel=4 note=50 velocity=96 time=0@note_on channel=9 note=42 velocity=80 time=0@note_on channel=3 note=66 velocity=0 time=0.09596779791666665@note_on channel=4 note=50 velocity=0 time=0@note_on channel=3 note=62 velocity=96 time=0.0008064520833333332@note_on channel=4 note=50 velocity=96 time=0@note_on channel=3 note=62 velocity=0 time=0.09596779791666665@note_on channel=4 note=50 velocity=0 time=0@note_on channel=7 note=43 velocity=0 time=0@note_on channel=8 note=31 velocity=0 time=0@note_on channel=9 note=42 velocity=0 time=0@note_on channel=9 note=56 velocity=0 time=0@note_on channel=3 note=66 velocity=96 time=0.0008064520833333332@note_on channel=4 note=50 velocity=96 time=0@note_on channel=7 note=43 velocity=64 time=0@note_on channel=8 note=31 velocity=96 time=0@note_on channel=9 note=42 velocity=80 time=0@note_on channel=9 note=56 velocity=96 time=0@note_on channel=3 note=66 velocity=0 time=0.09596779791666665@note_on channel=3 note=69 velocity=96 time=0.0008064520833333332@note_on channel=3 note=69 velocity=0 time=0.09596779791666665@note_on channel=4 note=50 velocity=0 time=0@note_on channel=9 note=42 velocity=0 time=0@note_on channel=3 note=72 velocity=96 time=0.0008064520833333332@note_on channel=4 note=50 velocity=96 time=0@note_on channel=9 note=42 velocity=80 time=0@note_on channel=3 note=72 velocity=0 time=0.19274204791666663@note_on channel=4 note=50 velocity=0 time=0@note_on channel=7 note=43 velocity=0 time=0@note_on channel=8 note=31 velocity=0 time=0@note_on channel=9 note=42 velocity=0 time=0@note_on channel=9 note=56 velocity=0 time=0@note_on channel=3 note=74 velocity=96 time=0.0008064520833333332@note_on channel=4 note=50 velocity=96 time=0@note_on channel=7 note=43 velocity=64 time=0@note_on channel=8 note=31 velocity=96 time=0@note_on channel=9 note=42 velocity=80 time=0@note_on channel=9 note=56 velocity=96 time=0@note_on channel=9 note=42 velocity=0 time=0.09596779791666665@note_on channel=9 note=42 velocity=80 time=0.0008064520833333332@note_on channel=3 note=74 velocity=0 time=0.09596779791666665@note_on channel=4 note=50 velocity=0 time=0@note_on channel=7 note=43 velocity=0 time=0@note_on channel=9 note=42 velocity=0 time=0@note_on channel=9 note=56 velocity=0 time=0@note_on channel=0 note=79 velocity=64 time=0.0008064520833333332@note_on channel=3 note=79 velocity=96 time=0@note_on channel=7 note=43 velocity=64 time=0@note_on channel=9 note=42 velocity=80 time=0@note_on channel=9 note=56 velocity=96 time=0@note_on channel=0 note=79 velocity=0 time=0.09112908541666666@note_on channel=3 note=79 velocity=0 time=0.004838712499999999@note_on channel=7 note=43 velocity=0 time=0.09677424999999999@note_on channel=8 note=31 velocity=0 time=0@note_on channel=9 note=56 velocity=0 time=0@note_on channel=0 note=78 velocity=64 time=0.0008064520833333332@note_on channel=1 note=62 velocity=80 time=0@note_on channel=2 note=62 velocity=80 time=0@note_on channel=3 note=78 velocity=96 time=0@note_on channel=4 note=55 velocity=64 time=0@note_on channel=5 note=67 velocity=64 time=0@note_on channel=7 note=43 velocity=64 time=0@note_on channel=8 note=31 velocity=96 time=0@note_on channel=9 note=56 velocity=96 time=0@note_on channel=0 note=78 velocity=0 time=0.09112908541666666@note_on channel=3 note=78 velocity=0 time=0.004838712499999999@note_on channel=1 note=62 velocity=0 time=0.09677424999999999@note_on channel=2 note=62 velocity=0 time=0@note_on channel=9 note=42 velocity=0 time=0@note_on channel=0 note=74 velocity=64 time=0.0008064520833333332@note_on channel=3 note=74 velocity=96 time=0@note_on channel=9 note=38 velocity=80 time=0@note_on channel=9 note=42 velocity=80 time=0@note_on channel=0 note=74 velocity=0 time=0.09112908541666666@note_on channel=3 note=74 velocity=0 time=0.004838712499999999@note_on channel=4 note=55 velocity=0 time=0.09677424999999999@note_on channel=5 note=67 velocity=0 time=0@note_on channel=7 note=43 velocity=0 time=0@note_on channel=8 note=31 velocity=0 time=0@note_on channel=9 note=38 velocity=0 time=0@note_on channel=9 note=42 velocity=0 time=0@note_on channel=9 note=56 velocity=0 time=0@note_on channel=0 note=72 velocity=64 time=0.0008064520833333332@note_on channel=1 note=62 velocity=80 time=0@note_on channel=2 note=62 velocity=80 time=0@note_on channel=3 note=72 velocity=96 time=0@note_on channel=4 note=55 velocity=64 time=0@note_on channel=5 note=67 velocity=64 time=0@note_on channel=7 note=43 velocity=64 time=0@note_on channel=8 note=31 velocity=96 time=0@note_on channel=9 note=42 velocity=80 time=0@note_on channel=9 note=56 velocity=96 time=0@note_on channel=0 note=72 velocity=0 time=0.09112908541666666@note_on channel=3 note=72 velocity=0 time=0.004838712499999999@note_on channel=9 note=42 velocity=0 time=0@note_on channel=9 note=42 velocity=80 time=0.0008064520833333332@note_on channel=1 note=62 velocity=0 time=0.09596779791666665@note_on channel=2 note=62 velocity=0 time=0@note_on channel=4 note=55 velocity=0 time=0@note_on channel=5 note=67 velocity=0 time=0@note_on channel=9 note=42 velocity=0 time=0@note_on channel=0 note=70 velocity=64 time=0.0008064520833333332@note_on channel=3 note=70 velocity=96 time=0@note_on channel=4 note=55 velocity=64 time=0@note_on channel=5 note=67 velocity=64 time=0@note_on channel=9 note=42 velocity=80 time=0@note_on channel=0 note=70 velocity=0 time=0.09112908541666666@note_on channel=3 note=70 velocity=0 time=0.004838712499999999@note_on channel=4 note=55 velocity=0 time=0.09677424999999999@note_on channel=5 note=67 velocity=0 time=0@note_on channel=7 note=43 velocity=0 time=0@note_on channel=8 note=31 velocity=0 time=0@note_on channel=9 note=42 velocity=0 time=0@note_on channel=9 note=56 velocity=0 time=0@note_on channel=0 note=69 velocity=64 time=0.0008064520833333332@note_on channel=1 note=62 velocity=80 time=0@note_on channel=2 note=62 velocity=80 time=0@note_on channel=3 note=69 velocity=96 time=0@note_on channel=4 note=55 velocity=64 time=0@note_on channel=5 note=67 velocity=64 time=0@note_on channel=7 note=43 velocity=64 time=0@note_on channel=8 note=31 velocity=96 time=0@note_on channel=9 note=42 velocity=80 time=0@note_on channel=9 note=56 velocity=96 time=0@note_on channel=0 note=69 velocity=0 time=0.09112908541666666@note_on channel=3 note=69 velocity=0 time=0.004838712499999999@note_on channel=1 note=62 velocity=0 time=0.09677424999999999@note_on channel=2 note=62 velocity=0 time=0@note_on channel=4 note=55 velocity=0 time=0@note_on channel=5 note=67 velocity=0 time=0@note_on channel=9 note=42 velocity=0 time=0@note_on channel=0 note=67 velocity=64 time=0.0008064520833333332@note_on channel=3 note=67 velocity=96 time=0@note_on channel=4 note=57 velocity=64 time=0@note_on channel=5 note=69 velocity=64 time=0@note_on channel=9 note=42 velocity=80 time=0@note_on channel=0 note=67 velocity=0 time=0.09112908541666666@note_on channel=3 note=67 velocity=0 time=0.004838712499999999@note_on channel=4 note=57 velocity=0 time=0.09677424999999999@note_on channel=5 note=69 velocity=0 time=0@note_on channel=7 note=43 velocity=0 time=0@note_on channel=8 note=31 velocity=0 time=0@note_on channel=9 note=42 velocity=0 time=0@note_on channel=9 note=56 velocity=0 time=0@note_on channel=0 note=66 velocity=64 time=0.0008064520833333332@note_on channel=1 note=62 velocity=80 time=0@note_on channel=2 note=62 velocity=80 time=0@note_on channel=3 note=66 velocity=96 time=0@note_on channel=4 note=58 velocity=64 time=0@note_on channel=5 note=70 velocity=64 time=0@note_on channel=7 note=43 velocity=64 time=0@note_on channel=8 note=31 velocity=96 time=0@note_on channel=9 note=42 velocity=80 time=0@note_on channel=9 note=56 velocity=96 time=0@note_on channel=0 note=66 velocity=0 time=0.09112908541666666@note_on channel=3 note=66 velocity=0 time=0.004838712499999999@note_on channel=9 note=42 velocity=0 time=0@note_on channel=9 note=42 velocity=80 time=0.0008064520833333332@note_on channel=1 note=62 velocity=0 time=0.09596779791666665@note_on channel=2 note=62 velocity=0 time=0@note_on channel=4 note=58 velocity=0 time=0@note_on channel=5 note=70 velocity=0 time=0@note_on channel=9 note=42 velocity=0 time=0@note_on channel=9 note=56 velocity=0 time=0@note_on channel=0 note=67 velocity=64 time=0.0008064520833333332@note_on channel=3 note=67 velocity=96 time=0@note_on channel=9 note=42 velocity=80 time=0@note_on channel=9 note=56 velocity=96 time=0@note_on channel=0 note=67 velocity=0 time=0.09112908541666666@note_on channel=3 note=67 velocity=0 time=0.004838712499999999@note_on channel=7 note=43 velocity=0 time=0.09677424999999999@note_on channel=8 note=31 velocity=0 time=0@note_on channel=9 note=56 velocity=0 time=0@note_on channel=0 note=69 velocity=64 time=0.0008064520833333332@note_on channel=1 note=62 velocity=80 time=0@note_on channel=2 note=62 velocity=80 time=0@note_on channel=3 note=69 velocity=96 time=0@note_on channel=4 note=55 velocity=64 time=0@note_on channel=5 note=67 velocity=64 time=0@note_on channel=7 note=43 velocity=64 time=0@note_on channel=8 note=31 velocity=96 time=0@note_on channel=9 note=56 velocity=96 time=0@note_on channel=0 note=69 velocity=0 time=0.09112908541666666@note_on channel=3 note=69 velocity=0 time=0.004838712499999999@note_on channel=1 note=62 velocity=0 time=0.09677424999999999@note_on channel=2 note=62 velocity=0 time=0@note_on channel=9 note=42 velocity=0 time=0@note_on channel=0 note=70 velocity=64 time=0.0008064520833333332@note_on channel=3 note=70 velocity=96 time=0@note_on channel=9 note=38 velocity=80 time=0@note_on channel=9 note=42 velocity=80 time=0@note_on channel=0 note=70 velocity=0 time=0.09112908541666666@note_on channel=3 note=70 velocity=0 time=0.004838712499999999@note_on channel=4 note=55 velocity=0 time=0.09677424999999999@note_on channel=5 note=67 velocity=0 time=0@note_on channel=7 note=43 velocity=0 time=0@note_on channel=8 note=31 velocity=0 time=0@note_on channel=9 note=38 velocity=0 time=0@note_on channel=9 note=42 velocity=0 time=0@note_on channel=9 note=56 velocity=0 time=0@note_on channel=0 note=72 velocity=64 time=0.0008064520833333332@note_on channel=1 note=62 velocity=80 time=0@note_on channel=2 note=62 velocity=80 time=0@note_on channel=3 note=72 velocity=96 time=0@note_on channel=4 note=55 velocity=64 time=0@note_on channel=5 note=67 velocity=64 time=0@note_on channel=7 note=43 velocity=64 time=0@note_on channel=8 note=31 velocity=96 time=0@note_on channel=9 note=42 velocity=80 time=0@note_on channel=9 note=56 velocity=96 time=0@note_on channel=0 note=72 velocity=0 time=0.09112908541666666@note_on channel=3 note=72 velocity=0 time=0.004838712499999999@note_on channel=9 note=42 velocity=0 time=0@note_on channel=9 note=42 velocity=80 time=0.0008064520833333332@note_on channel=1 note=62 velocity=0 time=0.09596779791666665@note_on channel=2 note=62 velocity=0 time=0@note_on channel=4 note=55 velocity=0 time=0@note_on channel=5 note=67 velocity=0 time=0@note_on channel=9 note=42 velocity=0 time=0@note_on channel=0 note=73 velocity=64 time=0.0008064520833333332@note_on channel=3 note=73 velocity=96 time=0@note_on channel=4 note=58 velocity=64 time=0@note_on channel=5 note=70 velocity=64 time=0@note_on channel=9 note=42 velocity=80 time=0@note_on channel=0 note=73 velocity=0 time=0.09112908541666666@note_on channel=3 note=73 velocity=0 time=0.004838712499999999@note_on channel=4 note=58 velocity=0 time=0.09677424999999999@note_on channel=5 note=70 velocity=0 time=0@note_on channel=7 note=43 velocity=0 time=0@note_on channel=8 note=31 velocity=0 time=0@note_on channel=9 note=42 velocity=0 time=0@note_on channel=9 note=56 velocity=0 time=0@note_on channel=0 note=74 velocity=64 time=0.0008064520833333332@note_on channel=1 note=62 velocity=80 time=0@note_on channel=2 note=62 velocity=80 time=0@note_on channel=3 note=74 velocity=96 time=0@note_on channel=4 note=55 velocity=64 time=0@note_on channel=5 note=67 velocity=64 time=0@note_on channel=7 note=43 velocity=64 time=0@note_on channel=8 note=31 velocity=96 time=0@note_on channel=9 note=42 velocity=80 time=0@note_on channel=9 note=56 velocity=96 time=0@note_on channel=0 note=74 velocity=0 time=0.09112908541666666@note_on channel=3 note=74 velocity=0 time=0.004838712499999999@note_on channel=1 note=62 velocity=0 time=0.09677424999999999@note_on channel=2 note=62 velocity=0 time=0@note_on channel=4 note=55 velocity=0 time=0@note_on channel=5 note=67 velocity=0 time=0@note_on channel=9 note=42 velocity=0 time=0@note_on channel=0 note=72 velocity=64 time=0.0008064520833333332@note_on channel=3 note=72 velocity=96 time=0@note_on channel=4 note=63 velocity=64 time=0@note_on channel=5 note=75 velocity=64 time=0@note_on channel=9 note=42 velocity=80 time=0@note_on channel=0 note=72 velocity=0 time=0.09112908541666666@note_on channel=3 note=72 velocity=0 time=0.004838712499999999@note_on channel=4 note=63 velocity=0 time=0.09677424999999999@note_on channel=5 note=75 velocity=0 time=0@note_on channel=7 note=43 velocity=0 time=0@note_on channel=8 note=31 velocity=0 time=0@note_on channel=9 note=42 velocity=0 time=0@note_on channel=9 note=56 velocity=0 time=0@note_on channel=0 note=70 velocity=64 time=0.0008064520833333332@note_on channel=1 note=62 velocity=80 time=0@note_on channel=2 note=62 velocity=80 time=0@note_on channel=3 note=70 velocity=96 time=0@note_on channel=4 note=62 velocity=64 time=0@note_on channel=5 note=74 velocity=64 time=0@note_on channel=7 note=43 velocity=64 time=0@note_on channel=8 note=31 velocity=96 time=0@note_on channel=9 note=42 velocity=80 time=0@note_on channel=9 note=56 velocity=96 time=0@note_on channel=0 note=70 velocity=0 time=0.09112908541666666@note_on channel=3 note=70 velocity=0 time=0.004838712499999999@note_on channel=9 note=42 velocity=0 time=0@note_on channel=9 note=42 velocity=80 time=0.0008064520833333332@note_on channel=1 note=62 velocity=0 time=0.09596779791666665@note_on channel=2 note=62 velocity=0 time=0@note_on channel=4 note=62 velocity=0 time=0@note_on channel=5 note=74 velocity=0 time=0@note_on channel=9 note=42 velocity=0 time=0@note_on channel=9 note=56 velocity=0 time=0@note_on channel=0 note=67 velocity=64 time=0.0008064520833333332@note_on channel=3 note=67 velocity=96 time=0@note_on channel=9 note=42 velocity=80 time=0@note_on channel=9 note=56 velocity=96 time=0@note_on channel=0 note=67 velocity=0 time=0.09112908541666666@note_on channel=3 note=67 velocity=0 time=0.004838712499999999@note_on channel=0 note=66 velocity=64 time=0.0008064520833333332@note_on channel=3 note=66 velocity=96 time=0@note_on channel=0 note=66 velocity=0 time=0.09112908541666666@note_on channel=3 note=66 velocity=0 time=0.004838712499999999@note_on channel=7 note=43 velocity=0 time=0@note_on channel=8 note=31 velocity=0 time=0@note_on channel=9 note=56 velocity=0 time=0@note_on channel=0 note=67 velocity=64 time=0.0008064520833333332@note_on channel=3 note=67 velocity=96 time=0@note_on channel=7 note=43 velocity=64 time=0@note_on channel=8 note=31 velocity=96 time=0@note_on channel=9 note=56 velocity=96 time=0@note_on channel=0 note=67 velocity=0 time=0.09112908541666666@note_on channel=3 note=67 velocity=0 time=0.004838712499999999@note_on channel=0 note=72 velocity=64 time=0.0008064520833333332@note_on channel=3 note=72 velocity=96 time=0@note_on channel=0 note=72 velocity=0 time=0.09112908541666666@note_on channel=3 note=72 velocity=0 time=0.004838712499999999@note_on channel=9 note=42 velocity=0 time=0@note_on channel=0 note=72 velocity=64 time=0.0008064520833333332@note_on channel=3 note=72 velocity=96 time=0@note_on channel=9 note=38 velocity=80 time=0@note_on channel=9 note=42 velocity=80 time=0@note_on channel=7 note=43 velocity=0 time=0.19274204791666663@note_on channel=8 note=31 velocity=0 time=0@note_on channel=9 note=38 velocity=0 time=0@note_on channel=9 note=42 velocity=0 time=0@note_on channel=9 note=56 velocity=0 time=0@note_on channel=7 note=43 velocity=64 time=0.0008064520833333332@note_on channel=8 note=31 velocity=96 time=0@note_on channel=9 note=42 velocity=80 time=0@note_on channel=9 note=56 velocity=96 time=0@note_on channel=9 note=42 velocity=0 time=0.09596779791666665@note_on channel=9 note=42 velocity=80 time=0.0008064520833333332@note_on channel=0 note=72 velocity=0 time=0.07661294791666666@note_on channel=3 note=72 velocity=0 time=0.019354849999999996@note_on channel=9 note=42 velocity=0 time=0@note_on channel=1 note=57 velocity=80 time=0.0008064520833333332@note_on channel=2 note=57 velocity=80 time=0@note_on channel=4 note=57 velocity=64 time=0@note_on channel=5 note=69 velocity=64 time=0@note_on channel=9 note=42 velocity=80 time=0@note_on channel=1 note=57 velocity=0 time=0.19274204791666663@note_on channel=2 note=57 velocity=0 time=0@note_on channel=4 note=57 velocity=0 time=0@note_on channel=5 note=69 velocity=0 time=0@note_on channel=7 note=43 velocity=0 time=0@note_on channel=8 note=31 velocity=0 time=0@note_on channel=9 note=42 velocity=0 time=0@note_on channel=9 note=56 velocity=0 time=0@note_on channel=1 note=58 velocity=80 time=0.0008064520833333332@note_on channel=2 note=58 velocity=80 time=0@note_on channel=4 note=58 velocity=64 time=0@note_on channel=5 note=70 velocity=64 time=0@note_on channel=7 note=43 velocity=64 time=0@note_on channel=8 note=31 velocity=96 time=0@note_on channel=9 note=42 velocity=80 time=0@note_on channel=9 note=56 velocity=96 time=0@note_on channel=1 note=58 velocity=0 time=0.19274204791666663@note_on channel=2 note=58 velocity=0 time=0@note_on channel=4 note=58 velocity=0 time=0@note_on channel=5 note=70 velocity=0 time=0@note_on channel=9 note=42 velocity=0 time=0@note_on channel=1 note=63 velocity=80 time=0.0008064520833333332@note_on channel=2 note=63 velocity=80 time=0@note_on channel=4 note=63 velocity=64 time=0@note_on channel=5 note=75 velocity=64 time=0@note_on channel=9 note=42 velocity=80 time=0@note_on channel=1 note=63 velocity=0 time=0.19274204791666663@note_on channel=2 note=63 velocity=0 time=0@note_on channel=4 note=63 velocity=0 time=0@note_on channel=5 note=75 velocity=0 time=0@note_on channel=7 note=43 velocity=0 time=0@note_on channel=8 note=31 velocity=0 time=0@note_on channel=9 note=42 velocity=0 time=0@note_on channel=9 note=56 velocity=0 time=0@note_on channel=1 note=62 velocity=80 time=0.0008064520833333332@note_on channel=2 note=62 velocity=80 time=0@note_on channel=4 note=62 velocity=64 time=0@note_on channel=5 note=74 velocity=64 time=0@note_on channel=7 note=43 velocity=64 time=0@note_on channel=8 note=31 velocity=96 time=0@note_on channel=9 note=42 velocity=80 time=0@note_on channel=9 note=56 velocity=96 time=0@note_on channel=9 note=42 velocity=0 time=0.09596779791666665@note_on channel=9 note=42 velocity=80 time=0.0008064520833333332@note_on channel=1 note=62 velocity=0 time=0.09596779791666665@note_on channel=2 note=62 velocity=0 time=0@note_on channel=4 note=62 velocity=0 time=0@note_on channel=5 note=74 velocity=0 time=0@note_on channel=9 note=42 velocity=0 time=0@note_on channel=9 note=56 velocity=0 time=0@note_on channel=0 note=66 velocity=64 time=0.0008064520833333332@note_on channel=1 note=55 velocity=80 time=0@note_on channel=2 note=55 velocity=80 time=0@note_on channel=3 note=66 velocity=96 time=0@note_on channel=4 note=55 velocity=64 time=0@note_on channel=5 note=67 velocity=64 time=0@note_on channel=9 note=42 velocity=80 time=0@note_on channel=9 note=56 velocity=96 time=0@note_on channel=0 note=66 velocity=0 time=0.09112908541666666@note_on channel=3 note=66 velocity=0 time=0.004838712499999999@note_on channel=0 note=64 velocity=64 time=0.0008064520833333332@note_on channel=3 note=64 velocity=96 time=0@note_on channel=0 note=64 velocity=0 time=0.09112908541666666@note_on channel=3 note=64 velocity=0 time=0.004838712499999999@note_on channel=7 note=43 velocity=0 time=0@note_on channel=8 note=31 velocity=0 time=0@note_on channel=9 note=56 velocity=0 time=0@note_on channel=0 note=66 velocity=64 time=0.0008064520833333332@note_on channel=3 note=66 velocity=96 time=0@note_on channel=7 note=43 velocity=64 time=0@note_on channel=8 note=31 velocity=96 time=0@note_on channel=9 note=56 velocity=96 time=0@note_on channel=0 note=66 velocity=0 time=0.09112908541666666@note_on channel=3 note=66 velocity=0 time=0.004838712499999999@note_on channel=0 note=69 velocity=64 time=0.0008064520833333332@note_on channel=3 note=69 velocity=96 time=0@note_on channel=0 note=69 velocity=0 time=0.09112908541666666@note_on channel=1 note=55 velocity=0 time=0.004838712499999999@note_on channel=2 note=55 velocity=0 time=0@note_on channel=3 note=69 velocity=0 time=0@note_on channel=4 note=55 velocity=0 time=0@note_on channel=5 note=67 velocity=0 time=0@note_on channel=9 note=42 velocity=0 time=0@note_on channel=0 note=69 velocity=64 time=0.0008064520833333332@note_on channel=3 note=69 velocity=96 time=0@note_on channel=9 note=38 velocity=80 time=0@note_on channel=9 note=42 velocity=80 time=0@note_on channel=7 note=43 velocity=0 time=0.19274204791666663@note_on channel=8 note=31 velocity=0 time=0@note_on channel=9 note=38 velocity=0 time=0@note_on channel=9 note=42 velocity=0 time=0@note_on channel=9 note=56 velocity=0 time=0@note_on channel=7 note=43 velocity=64 time=0.0008064520833333332@note_on channel=8 note=31 velocity=96 time=0@note_on channel=9 note=42 velocity=80 time=0@note_on channel=9 note=56 velocity=96 time=0@note_on channel=9 note=42 velocity=0 time=0.09596779791666665@note_on channel=9 note=42 velocity=80 time=0.0008064520833333332@note_on channel=0 note=69 velocity=0 time=0.07661294791666666@note_on channel=3 note=69 velocity=0 time=0.019354849999999996@note_on channel=9 note=42 velocity=0 time=0@note_on channel=9 note=42 velocity=80 time=0.0008064520833333332@note_on channel=7 note=43 velocity=0 time=0.19274204791666663@note_on channel=8 note=31 velocity=0 time=0@note_on channel=9 note=42 velocity=0 time=0@note_on channel=9 note=56 velocity=0 time=0@note_on channel=0 note=66 velocity=64 time=0.0008064520833333332@note_on channel=3 note=66 velocity=96 time=0@note_on channel=7 note=43 velocity=64 time=0@note_on channel=8 note=31 velocity=96 time=0@note_on channel=9 note=42 velocity=80 time=0@note_on channel=9 note=56 velocity=96 time=0@note_on channel=0 note=66 velocity=0 time=0.09112908541666666@note_on channel=3 note=66 velocity=0 time=0.004838712499999999@note_on channel=0 note=64 velocity=64 time=0.0008064520833333332@note_on channel=3 note=64 velocity=96 time=0@note_on channel=0 note=64 velocity=0 time=0.09112908541666666@note_on channel=3 note=64 velocity=0 time=0.004838712499999999@note_on channel=9 note=42 velocity=0 time=0@note_on channel=0 note=66 velocity=64 time=0.0008064520833333332@note_on channel=3 note=66 velocity=96 time=0@note_on channel=9 note=42 velocity=80 time=0@note_on channel=7 note=43 velocity=0 time=0.19274204791666663@note_on channel=8 note=31 velocity=0 time=0@note_on channel=9 note=42 velocity=0 time=0@note_on channel=9 note=56 velocity=0 time=0@note_on channel=7 note=43 velocity=64 time=0.0008064520833333332@note_on channel=8 note=31 velocity=96 time=0@note_on channel=9 note=42 velocity=80 time=0@note_on channel=9 note=56 velocity=96 time=0@note_on channel=9 note=42 velocity=0 time=0.09596779791666665@note_on channel=9 note=42 velocity=80 time=0.0008064520833333332@note_on channel=0 note=66 velocity=0 time=0.07661294791666666@note_on channel=3 note=66 velocity=0 time=0.019354849999999996@note_on channel=7 note=43 velocity=0 time=0@note_on channel=8 note=31 velocity=0 time=0@note_on channel=9 note=42 velocity=0 time=0@note_on channel=9 note=56 velocity=0 time=0@note_on channel=2 note=67 velocity=96 time=0.0008064520833333332@note_on channel=7 note=43 velocity=80 time=0@note_on channel=9 note=38 velocity=112 time=0@note_on channel=9 note=36 velocity=112 time=0@note_on channel=10 note=67 velocity=96 time=0@note_on channel=10 note=67 velocity=0 time=0.19274204791666663@note_on channel=10 note=67 velocity=96 time=0.0008064520833333332@note_on channel=2 note=67 velocity=0 time=0.19274204791666663@note_on channel=9 note=38 velocity=0 time=0@note_on channel=9 note=36 velocity=0 time=0@note_on channel=10 note=67 velocity=0 time=0@note_on channel=2 note=69 velocity=96 time=0.0008064520833333332@note_on channel=9 note=38 velocity=112 time=0@note_on channel=9 note=36 velocity=112 time=0@note_on channel=10 note=74 velocity=96 time=0@note_on channel=10 note=74 velocity=0 time=0.19274204791666663@note_on channel=10 note=82 velocity=96 time=0.0008064520833333332@note_on channel=2 note=69 velocity=0 time=0.19274204791666663@note_on channel=9 note=38 velocity=0 time=0@note_on channel=9 note=36 velocity=0 time=0@note_on channel=10 note=82 velocity=0 time=0@note_on channel=2 note=70 velocity=96 time=0.0008064520833333332@note_on channel=9 note=38 velocity=112 time=0@note_on channel=9 note=36 velocity=112 time=0@note_on channel=10 note=91 velocity=96 time=0@note_on channel=10 note=91 velocity=0 time=0.19274204791666663@note_on channel=10 note=82 velocity=96 time=0.0008064520833333332@note_on channel=2 note=70 velocity=0 time=0.19274204791666663@note_on channel=9 note=38 velocity=0 time=0@note_on channel=9 note=36 velocity=0 time=0@note_on channel=10 note=82 velocity=0 time=0@note_on channel=2 note=67 velocity=96 time=0.0008064520833333332@note_on channel=9 note=38 velocity=112 time=0@note_on channel=9 note=36 velocity=112 time=0@note_on channel=10 note=74 velocity=96 time=0@note_on channel=10 note=74 velocity=0 time=0.19274204791666663@note_on channel=10 note=67 velocity=96 time=0.0008064520833333332@note_on channel=2 note=67 velocity=0 time=0.19274204791666663@note_on channel=9 note=38 velocity=0 time=0@note_on channel=9 note=36 velocity=0 time=0@note_on channel=10 note=67 velocity=0 time=0@note_on channel=2 note=67 velocity=96 time=0.0008064520833333332@note_on channel=9 note=38 velocity=112 time=0@note_on channel=9 note=36 velocity=112 time=0@note_on channel=10 note=67 velocity=96 time=0@note_on channel=10 note=67 velocity=0 time=0.19274204791666663@note_on channel=10 note=67 velocity=96 time=0.0008064520833333332@note_on channel=2 note=67 velocity=0 time=0.19274204791666663@note_on channel=9 note=38 velocity=0 time=0@note_on channel=9 note=36 velocity=0 time=0@note_on channel=10 note=67 velocity=0 time=0@note_on channel=2 note=69 velocity=96 time=0.0008064520833333332@note_on channel=9 note=38 velocity=112 time=0@note_on channel=9 note=36 velocity=112 time=0@note_on channel=10 note=74 velocity=96 time=0@note_on channel=10 note=74 velocity=0 time=0.19274204791666663@note_on channel=10 note=81 velocity=96 time=0.0008064520833333332@note_on channel=2 note=69 velocity=0 time=0.19274204791666663@note_on channel=7 note=43 velocity=0 time=0@note_on channel=9 note=38 velocity=0 time=0@note_on channel=9 note=36 velocity=0 time=0@note_on channel=10 note=81 velocity=0 time=0@note_on channel=2 note=70 velocity=96 time=0.0008064520833333332@note_on channel=7 note=43 velocity=80 time=0@note_on channel=9 note=38 velocity=112 time=0@note_on channel=9 note=36 velocity=112 time=0@note_on channel=10 note=90 velocity=96 time=0@note_on channel=10 note=90 velocity=0 time=0.19274204791666663@note_on channel=10 note=81 velocity=96 time=0.0008064520833333332@note_on channel=2 note=70 velocity=0 time=0.19274204791666663@note_on channel=7 note=43 velocity=0 time=0@note_on channel=9 note=38 velocity=0 time=0@note_on channel=9 note=36 velocity=0 time=0@note_on channel=10 note=81 velocity=0 time=0@note_on channel=2 note=72 velocity=96 time=0.0008064520833333332@note_on channel=7 note=42 velocity=80 time=0@note_on channel=9 note=38 velocity=112 time=0@note_on channel=9 note=36 velocity=112 time=0@note_on channel=10 note=74 velocity=96 time=0@note_on channel=10 note=74 velocity=0 time=0.19274204791666663@note_on channel=10 note=66 velocity=96 time=0.0008064520833333332@note_on channel=2 note=72 velocity=0 time=0.19274204791666663@note_on channel=7 note=42 velocity=0 time=0@note_on channel=9 note=38 velocity=0 time=0@note_on channel=9 note=36 velocity=0 time=0@note_on channel=10 note=66 velocity=0 time=0@note_on channel=2 note=74 velocity=96 time=0.0008064520833333332@note_on channel=7 note=41 velocity=80 time=0@note_on channel=9 note=38 velocity=112 time=0@note_on channel=9 note=36 velocity=112 time=0@note_on channel=10 note=65 velocity=96 time=0@note_on channel=10 note=65 velocity=0 time=0.19274204791666663@note_on channel=10 note=65 velocity=96 time=0.0008064520833333332@note_on channel=9 note=38 velocity=0 time=0.19274204791666663@note_on channel=9 note=36 velocity=0 time=0@note_on channel=10 note=65 velocity=0 time=0@note_on channel=9 note=38 velocity=112 time=0.0008064520833333332@note_on channel=9 note=36 velocity=112 time=0@note_on channel=10 note=74 velocity=96 time=0@note_on channel=10 note=74 velocity=0 time=0.19274204791666663@note_on channel=10 note=82 velocity=96 time=0.0008064520833333332@note_on channel=9 note=38 velocity=0 time=0.19274204791666663@note_on channel=9 note=36 velocity=0 time=0@note_on channel=10 note=82 velocity=0 time=0@note_on channel=9 note=38 velocity=112 time=0.0008064520833333332@note_on channel=9 note=36 velocity=112 time=0@note_on channel=10 note=89 velocity=96 time=0@note_on channel=10 note=89 velocity=0 time=0.19274204791666663@note_on channel=10 note=82 velocity=96 time=0.0008064520833333332@note_on channel=9 note=38 velocity=0 time=0.19274204791666663@note_on channel=9 note=36 velocity=0 time=0@note_on channel=10 note=82 velocity=0 time=0@note_on channel=9 note=38 velocity=112 time=0.0008064520833333332@note_on channel=9 note=36 velocity=112 time=0@note_on channel=10 note=74 velocity=96 time=0@note_on channel=2 note=74 velocity=0 time=0.19274204791666663@note_on channel=10 note=74 velocity=0 time=0@note_on channel=2 note=72 velocity=96 time=0.0008064520833333332@note_on channel=10 note=65 velocity=96 time=0@note_on channel=2 note=72 velocity=0 time=0.09596779791666665@note_on channel=2 note=70 velocity=96 time=0.0008064520833333332@note_on channel=2 note=70 velocity=0 time=0.09596779791666665@note_on channel=7 note=41 velocity=0 time=0@note_on channel=9 note=38 velocity=0 time=0@note_on channel=9 note=36 velocity=0 time=0@note_on channel=10 note=65 velocity=0 time=0@note_on channel=2 note=72 velocity=96 time=0.0008064520833333332@note_on channel=7 note=40 velocity=80 time=0@note_on channel=9 note=38 velocity=112 time=0@note_on channel=9 note=36 velocity=112 time=0@note_on channel=10 note=64 velocity=96 time=0@note_on channel=10 note=64 velocity=0 time=0.19274204791666663@note_on channel=10 note=64 velocity=96 time=0.0008064520833333332@note_on channel=9 note=38 velocity=0 time=0.19274204791666663@note_on channel=9 note=36 velocity=0 time=0@note_on channel=10 note=64 velocity=0 time=0@note_on channel=9 note=38 velocity=112 time=0.0008064520833333332@note_on channel=9 note=36 velocity=112 time=0@note_on channel=10 note=72 velocity=96 time=0@note_on channel=2 note=72 velocity=0 time=0.19274204791666663@note_on channel=10 note=72 velocity=0 time=0@note_on channel=2 note=70 velocity=96 time=0.0008064520833333332@note_on channel=10 note=79 velocity=96 time=0@note_on channel=2 note=70 velocity=0 time=0.09596779791666665@note_on channel=2 note=69 velocity=96 time=0.0008064520833333332@note_on channel=2 note=69 velocity=0 time=0.09596779791666665@note_on channel=9 note=38 velocity=0 time=0@note_on channel=9 note=36 velocity=0 time=0@note_on channel=10 note=79 velocity=0 time=0@note_on channel=2 note=70 velocity=96 time=0.0008064520833333332@note_on channel=9 note=38 velocity=112 time=0@note_on channel=9 note=36 velocity=112 time=0@note_on channel=10 note=88 velocity=96 time=0@note_on channel=10 note=88 velocity=0 time=0.19274204791666663@note_on channel=10 note=79 velocity=96 time=0.0008064520833333332@note_on channel=2 note=70 velocity=0 time=0.19274204791666663@note_on channel=9 note=38 velocity=0 time=0@note_on channel=9 note=36 velocity=0 time=0@note_on channel=10 note=79 velocity=0 time=0@note_on channel=2 note=69 velocity=96 time=0.0008064520833333332@note_on channel=9 note=38 velocity=112 time=0@note_on channel=9 note=36 velocity=112 time=0@note_on channel=10 note=72 velocity=96 time=0@note_on channel=2 note=69 velocity=0 time=0.19274204791666663@note_on channel=10 note=72 velocity=0 time=0@note_on channel=2 note=67 velocity=96 time=0.0008064520833333332@note_on channel=10 note=64 velocity=96 time=0@note_on channel=2 note=67 velocity=0 time=0.19274204791666663@note_on channel=7 note=40 velocity=0 time=0@note_on channel=9 note=38 velocity=0 time=0@note_on channel=9 note=36 velocity=0 time=0@note_on channel=10 note=64 velocity=0 time=0@note_on channel=2 note=67 velocity=96 time=0.0008064520833333332@note_on channel=7 note=39 velocity=80 time=0@note_on channel=9 note=38 velocity=112 time=0@note_on channel=9 note=36 velocity=112 time=0@note_on channel=10 note=67 velocity=96 time=0@note_on channel=2 note=67 velocity=0 time=0.19274204791666663@note_on channel=10 note=67 velocity=0 time=0@note_on channel=2 note=63 velocity=96 time=0.0008064520833333332@note_on channel=10 note=67 velocity=96 time=0@note_on channel=2 note=63 velocity=0 time=0.19274204791666663@note_on channel=9 note=38 velocity=0 time=0@note_on channel=9 note=36 velocity=0 time=0@note_on channel=10 note=67 velocity=0 time=0@note_on channel=2 note=67 velocity=96 time=0.0008064520833333332@note_on channel=9 note=38 velocity=112 time=0@note_on channel=9 note=36 velocity=112 time=0@note_on channel=10 note=75 velocity=96 time=0@note_on channel=2 note=67 velocity=0 time=0.19274204791666663@note_on channel=10 note=75 velocity=0 time=0@note_on channel=2 note=69 velocity=96 time=0.0008064520833333332@note_on channel=10 note=82 velocity=96 time=0@note_on channel=9 note=38 velocity=0 time=0.19274204791666663@note_on channel=9 note=36 velocity=0 time=0@note_on channel=10 note=82 velocity=0 time=0@note_on channel=9 note=38 velocity=112 time=0.0008064520833333332@note_on channel=9 note=36 velocity=112 time=0@note_on channel=10 note=87 velocity=96 time=0@note_on channel=2 note=69 velocity=0 time=0.19274204791666663@note_on channel=10 note=87 velocity=0 time=0@note_on channel=2 note=67 velocity=96 time=0.0008064520833333332@note_on channel=10 note=82 velocity=96 time=0@note_on channel=2 note=67 velocity=0 time=0.09596779791666665@note_on channel=2 note=69 velocity=96 time=0.0008064520833333332@note_on channel=2 note=69 velocity=0 time=0.09596779791666665@note_on channel=9 note=38 velocity=0 time=0@note_on channel=9 note=36 velocity=0 time=0@note_on channel=10 note=82 velocity=0 time=0@note_on channel=2 note=70 velocity=96 time=0.0008064520833333332@note_on channel=9 note=38 velocity=112 time=0@note_on channel=9 note=36 velocity=112 time=0@note_on channel=10 note=75 velocity=96 time=0@note_on channel=10 note=75 velocity=0 time=0.19274204791666663@note_on channel=10 note=67 velocity=96 time=0.0008064520833333332@note_on channel=2 note=70 velocity=0 time=0.19274204791666663@note_on channel=7 note=39 velocity=0 time=0@note_on channel=9 note=38 velocity=0 time=0@note_on channel=9 note=36 velocity=0 time=0@note_on channel=10 note=67 velocity=0 time=0@note_on channel=2 note=66 velocity=96 time=0.0008064520833333332@note_on channel=7 note=38 velocity=80 time=0@note_on channel=9 note=38 velocity=112 time=0@note_on channel=9 note=36 velocity=112 time=0@note_on channel=10 note=66 velocity=96 time=0@note_on channel=2 note=66 velocity=0 time=0.19274204791666663@note_on channel=10 note=66 velocity=0 time=0@note_on channel=2 note=62 velocity=96 time=0.0008064520833333332@note_on channel=10 note=62 velocity=96 time=0@note_on channel=2 note=62 velocity=0 time=0.19274204791666663@note_on channel=9 note=38 velocity=0 time=0@note_on channel=9 note=36 velocity=0 time=0@note_on channel=10 note=62 velocity=0 time=0@note_on channel=2 note=66 velocity=96 time=0.0008064520833333332@note_on channel=9 note=38 velocity=112 time=0@note_on channel=9 note=36 velocity=112 time=0@note_on channel=10 note=69 velocity=96 time=0@note_on channel=2 note=66 velocity=0 time=0.19274204791666663@note_on channel=10 note=69 velocity=0 time=0@note_on channel=2 note=67 velocity=96 time=0.0008064520833333332@note_on channel=10 note=78 velocity=96 time=0@note_on channel=9 note=38 velocity=0 time=0.19274204791666663@note_on channel=9 note=36 velocity=0 time=0@note_on channel=10 note=78 velocity=0 time=0@note_on channel=9 note=38 velocity=112 time=0.0008064520833333332@note_on channel=9 note=36 velocity=112 time=0@note_on channel=10 note=86 velocity=96 time=0@note_on channel=2 note=67 velocity=0 time=0.19274204791666663@note_on channel=10 note=86 velocity=0 time=0@note_on channel=2 note=66 velocity=96 time=0.0008064520833333332@note_on channel=10 note=78 velocity=96 time=0@note_on channel=2 note=66 velocity=0 time=0.09596779791666665@note_on channel=2 note=67 velocity=96 time=0.0008064520833333332@note_on channel=2 note=67 velocity=0 time=0.09596779791666665@note_on channel=9 note=38 velocity=0 time=0@note_on channel=9 note=36 velocity=0 time=0@note_on channel=10 note=78 velocity=0 time=0@note_on channel=2 note=69 velocity=96 time=0.0008064520833333332@note_on channel=9 note=38 velocity=112 time=0@note_on channel=9 note=36 velocity=112 time=0@note_on channel=10 note=69 velocity=96 time=0@note_on channel=10 note=69 velocity=0 time=0.19274204791666663@note_on channel=10 note=62 velocity=96 time=0.0008064520833333332@note_on channel=2 note=69 velocity=0 time=0.19274204791666663@note_on channel=7 note=38 velocity=0 time=0@note_on channel=9 note=38 velocity=0 time=0@note_on channel=9 note=36 velocity=0 time=0@note_on channel=10 note=62 velocity=0 time=0@note_on channel=2 note=70 velocity=96 time=0.0008064520833333332@note_on channel=7 note=39 velocity=80 time=0@note_on channel=9 note=38 velocity=112 time=0@note_on channel=9 note=36 velocity=112 time=0@note_on channel=10 note=67 velocity=96 time=0@note_on channel=2 note=70 velocity=0 time=0.09596779791666665@note_on channel=3 note=72 velocity=96 time=0.0008064520833333332@note_on channel=3 note=72 velocity=0 time=0.09596779791666665@note_on channel=10 note=67 velocity=0 time=0@note_on channel=2 note=70 velocity=96 time=0.0008064520833333332@note_on channel=10 note=67 velocity=96 time=0@note_on channel=2 note=70 velocity=0 time=0.09596779791666665@note_on channel=3 note=69 velocity=96 time=0.0008064520833333332@note_on channel=3 note=69 velocity=0 time=0.09596779791666665@note_on channel=9 note=38 velocity=0 time=0@note_on channel=9 note=36 velocity=0 time=0@note_on channel=10 note=67 velocity=0 time=0@note_on channel=2 note=67 velocity=96 time=0.0008064520833333332@note_on channel=9 note=38 velocity=112 time=0@note_on channel=9 note=36 velocity=112 time=0@note_on channel=10 note=75 velocity=96 time=0@note_on channel=2 note=67 velocity=0 time=0.09596779791666665@note_on channel=3 note=69 velocity=96 time=0.0008064520833333332@note_on channel=3 note=69 velocity=0 time=0.09596779791666665@note_on channel=10 note=75 velocity=0 time=0@note_on channel=2 note=67 velocity=96 time=0.0008064520833333332@note_on channel=10 note=82 velocity=96 time=0@note_on channel=2 note=67 velocity=0 time=0.09596779791666665@note_on channel=3 note=66 velocity=96 time=0.0008064520833333332@note_on channel=3 note=66 velocity=0 time=0.09596779791666665@note_on channel=9 note=38 velocity=0 time=0@note_on channel=9 note=36 velocity=0 time=0@note_on channel=10 note=82 velocity=0 time=0@note_on channel=2 note=67 velocity=96 time=0.0008064520833333332@note_on channel=9 note=38 velocity=112 time=0@note_on channel=9 note=36 velocity=112 time=0@note_on channel=10 note=87 velocity=96 time=0@note_on channel=2 note=67 velocity=0 time=0.09596779791666665@note_on channel=3 note=69 velocity=96 time=0.0008064520833333332@note_on channel=3 note=69 velocity=0 time=0.09596779791666665@note_on channel=10 note=87 velocity=0 time=0@note_on channel=2 note=67 velocity=96 time=0.0008064520833333332@note_on channel=10 note=82 velocity=96 time=0@note_on channel=2 note=67 velocity=0 time=0.09596779791666665@note_on channel=3 note=66 velocity=96 time=0.0008064520833333332@note_on channel=3 note=66 velocity=0 time=0.09596779791666665@note_on channel=9 note=38 velocity=0 time=0@note_on channel=9 note=36 velocity=0 time=0@note_on channel=10 note=82 velocity=0 time=0@note_on channel=2 note=63 velocity=96 time=0.0008064520833333332@note_on channel=9 note=38 velocity=112 time=0@note_on channel=9 note=36 velocity=112 time=0@note_on channel=10 note=75 velocity=96 time=0@note_on channel=2 note=63 velocity=0 time=0.09596779791666665@note_on channel=3 note=66 velocity=96 time=0.0008064520833333332@note_on channel=3 note=66 velocity=0 time=0.09596779791666665@note_on channel=10 note=75 velocity=0 time=0@note_on channel=2 note=63 velocity=96 time=0.0008064520833333332@note_on channel=10 note=67 velocity=96 time=0@note_on channel=2 note=63 velocity=0 time=0.09596779791666665@note_on channel=3 note=62 velocity=96 time=0.0008064520833333332@note_on channel=3 note=62 velocity=0 time=0.09596779791666665@note_on channel=7 note=39 velocity=0 time=0@note_on channel=9 note=38 velocity=0 time=0@note_on channel=9 note=36 velocity=0 time=0@note_on channel=10 note=67 velocity=0 time=0@note_on channel=2 note=60 velocity=96 time=0.0008064520833333332@note_on channel=7 note=38 velocity=80 time=0@note_on channel=9 note=38 velocity=112 time=0@note_on channel=9 note=36 velocity=112 time=0@note_on channel=10 note=66 velocity=96 time=0@note_on channel=2 note=60 velocity=0 time=0.09596779791666665@note_on channel=3 note=62 velocity=96 time=0.0008064520833333332@note_on channel=3 note=62 velocity=0 time=0.09596779791666665@note_on channel=10 note=66 velocity=0 time=0@note_on channel=2 note=63 velocity=96 time=0.0008064520833333332@note_on channel=10 note=66 velocity=96 time=0@note_on channel=2 note=63 velocity=0 time=0.09596779791666665@note_on channel=3 note=67 velocity=96 time=0.0008064520833333332@note_on channel=3 note=67 velocity=0 time=0.09596779791666665@note_on channel=9 note=38 velocity=0 time=0@note_on channel=9 note=36 velocity=0 time=0@note_on channel=10 note=66 velocity=0 time=0@note_on channel=2 note=69 velocity=96 time=0.0008064520833333332@note_on channel=9 note=38 velocity=112 time=0@note_on channel=9 note=36 velocity=112 time=0@note_on channel=10 note=74 velocity=96 time=0@note_on channel=2 note=69 velocity=0 time=0.09596779791666665@note_on channel=3 note=70 velocity=96 time=0.0008064520833333332@note_on channel=3 note=70 velocity=0 time=0.09596779791666665@note_on channel=10 note=74 velocity=0 time=0@note_on channel=2 note=72 velocity=96 time=0.0008064520833333332@note_on channel=10 note=81 velocity=96 time=0@note_on channel=2 note=72 velocity=0 time=0.09596779791666665@note_on channel=3 note=75 velocity=96 time=0.0008064520833333332@note_on channel=3 note=75 velocity=0 time=0.09596779791666665@note_on channel=9 note=38 velocity=0 time=0@note_on channel=9 note=36 velocity=0 time=0@note_on channel=10 note=81 velocity=0 time=0@note_on channel=2 note=74 velocity=96 time=0.0008064520833333332@note_on channel=9 note=38 velocity=112 time=0@note_on channel=9 note=36 velocity=112 time=0@note_on channel=10 note=87 velocity=96 time=0@note_on channel=2 note=74 velocity=0 time=0.09596779791666665@note_on channel=3 note=72 velocity=96 time=0.0008064520833333332@note_on channel=3 note=72 velocity=0 time=0.09596779791666665@note_on channel=10 note=87 velocity=0 time=0@note_on channel=2 note=70 velocity=96 time=0.0008064520833333332@note_on channel=10 note=81 velocity=96 time=0@note_on channel=2 note=70 velocity=0 time=0.09596779791666665@note_on channel=3 note=69 velocity=96 time=0.0008064520833333332@note_on channel=3 note=69 velocity=0 time=0.09596779791666665@note_on channel=9 note=38 velocity=0 time=0@note_on channel=9 note=36 velocity=0 time=0@note_on channel=10 note=81 velocity=0 time=0@note_on channel=2 note=70 velocity=96 time=0.0008064520833333332@note_on channel=9 note=38 velocity=112 time=0@note_on channel=9 note=36 velocity=112 time=0@note_on channel=10 note=74 velocity=96 time=0@note_on channel=2 note=70 velocity=0 time=0.09596779791666665@note_on channel=3 note=72 velocity=96 time=0.0008064520833333332@note_on channel=3 note=72 velocity=0 time=0.09596779791666665@note_on channel=10 note=74 velocity=0 time=0@note_on channel=2 note=70 velocity=96 time=0.0008064520833333332@note_on channel=10 note=66 velocity=96 time=0@note_on channel=2 note=70 velocity=0 time=0.09596779791666665@note_on channel=3 note=69 velocity=96 time=0.0008064520833333332@note_on channel=3 note=69 velocity=0 time=0.09596779791666665@note_on channel=7 note=38 velocity=0 time=0@note_on channel=9 note=38 velocity=0 time=0@note_on channel=9 note=36 velocity=0 time=0@note_on channel=10 note=66 velocity=0 time=0@<meta message time_signature numerator=2 denominator=4 clocks_per_click=24 notated_32nd_notes_per_beat=8 time=0.0008064520833333332>@note_on channel=2 note=67 velocity=96 time=0@note_on channel=7 note=50 velocity=96 time=0.38709699999999997@note_on channel=7 note=50 velocity=0 time=0.05322583749999999@note_on channel=7 note=49 velocity=96 time=0.0008064520833333332@note_on channel=7 note=49 velocity=0 time=0.05322583749999999@note_on channel=7 note=48 velocity=96 time=0.0016129041666666664@note_on channel=7 note=48 velocity=0 time=0.05322583749999999@note_on channel=7 note=47 velocity=96 time=0.0024193562499999995@note_on channel=7 note=47 velocity=0 time=0.05322583749999999@note_on channel=7 note=46 velocity=96 time=0.0008064520833333332@note_on channel=7 note=46 velocity=0 time=0.05322583749999999@note_on channel=7 note=45 velocity=96 time=0.0016129041666666664@note_on channel=7 note=45 velocity=0 time=0.05322583749999999@note_on channel=7 note=44 velocity=96 time=0.0024193562499999995@note_on channel=2 note=67 velocity=0 time=0.05725809791666666@note_on channel=7 note=44 velocity=0 time=0@<meta message time_signature numerator=4 denominator=4 clocks_per_click=24 notated_32nd_notes_per_beat=8 time=0.0008064520833333332>@note_on channel=7 note=43 velocity=64 time=0@note_on channel=8 note=31 velocity=112 time=0@note_on channel=9 note=41 velocity=80 time=0@note_on channel=9 note=49 velocity=80 time=0@note_on channel=9 note=36 velocity=80 time=0@note_on channel=7 note=43 velocity=0 time=0.19274204791666663@note_on channel=8 note=31 velocity=0 time=0@note_on channel=7 note=43 velocity=64 time=0.0008064520833333332@note_on channel=8 note=31 velocity=112 time=0@note_on channel=9 note=41 velocity=0 time=0.19274204791666663@note_on channel=9 note=49 velocity=0 time=0@note_on channel=9 note=36 velocity=0 time=0@note_on channel=9 note=38 velocity=80 time=0.0008064520833333332@note_on channel=9 note=46 velocity=80 time=0@note_on channel=9 note=36 velocity=80 time=0@note_on channel=7 note=43 velocity=0 time=0.19274204791666663@note_on channel=8 note=31 velocity=0 time=0@note_on channel=9 note=38 velocity=0 time=0@note_on channel=9 note=46 velocity=0 time=0@note_on channel=7 note=43 velocity=64 time=0.0008064520833333332@note_on channel=8 note=31 velocity=112 time=0@note_on channel=9 note=38 velocity=80 time=0@note_on channel=7 note=43 velocity=0 time=0.19274204791666663@note_on channel=8 note=31 velocity=0 time=0@note_on channel=9 note=36 velocity=0 time=0@note_on channel=9 note=38 velocity=0 time=0@note_on channel=7 note=43 velocity=64 time=0.0008064520833333332@note_on channel=8 note=31 velocity=112 time=0@note_on channel=9 note=41 velocity=80 time=0@note_on channel=9 note=46 velocity=80 time=0@note_on channel=9 note=36 velocity=80 time=0@note_on channel=9 note=41 velocity=0 time=0.19274204791666663@note_on channel=9 note=46 velocity=0 time=0@note_on channel=9 note=41 velocity=80 time=0.0008064520833333332@note_on channel=7 note=43 velocity=0 time=0.19274204791666663@note_on channel=8 note=31 velocity=0 time=0@note_on channel=9 note=36 velocity=0 time=0@note_on channel=9 note=41 velocity=0 time=0@note_on channel=7 note=43 velocity=64 time=0.0008064520833333332@note_on channel=8 note=31 velocity=112 time=0@note_on channel=9 note=38 velocity=80 time=0@note_on channel=9 note=46 velocity=80 time=0@note_on channel=9 note=36 velocity=80 time=0@note_on channel=7 note=43 velocity=0 time=0.19274204791666663@note_on channel=8 note=31 velocity=0 time=0@note_on channel=9 note=38 velocity=0 time=0@note_on channel=9 note=46 velocity=0 time=0@note_on channel=7 note=43 velocity=64 time=0.0008064520833333332@note_on channel=8 note=31 velocity=112 time=0@note_on channel=9 note=36 velocity=0 time=0.19274204791666663@note_on channel=9 note=41 velocity=80 time=0.0008064520833333332@note_on channel=9 note=46 velocity=80 time=0@note_on channel=9 note=36 velocity=80 time=0@note_on channel=7 note=43 velocity=0 time=0.19274204791666663@note_on channel=8 note=31 velocity=0 time=0@note_on channel=9 note=41 velocity=0 time=0@note_on channel=9 note=46 velocity=0 time=0@note_on channel=7 note=43 velocity=64 time=0.0008064520833333332@note_on channel=8 note=31 velocity=112 time=0@note_on channel=9 note=41 velocity=80 time=0@note_on channel=9 note=41 velocity=0 time=0.09596779791666665@note_on channel=9 note=41 velocity=80 time=0.0008064520833333332@note_on channel=9 note=36 velocity=0 time=0.09596779791666665@note_on channel=9 note=41 velocity=0 time=0@note_on channel=9 note=38 velocity=80 time=0.0008064520833333332@note_on channel=9 note=46 velocity=80 time=0@note_on channel=9 note=36 velocity=80 time=0@note_on channel=7 note=43 velocity=0 time=0.19274204791666663@note_on channel=8 note=31 velocity=0 time=0@note_on channel=9 note=38 velocity=0 time=0@note_on channel=9 note=46 velocity=0 time=0@note_on channel=7 note=43 velocity=64 time=0.0008064520833333332@note_on channel=8 note=31 velocity=112 time=0@note_on channel=9 note=38 velocity=80 time=0@note_on channel=7 note=43 velocity=0 time=0.19274204791666663@note_on channel=8 note=31 velocity=0 time=0@note_on channel=9 note=36 velocity=0 time=0@note_on channel=9 note=38 velocity=0 time=0@note_on channel=7 note=43 velocity=64 time=0.0008064520833333332@note_on channel=8 note=31 velocity=112 time=0@note_on channel=9 note=41 velocity=80 time=0@note_on channel=9 note=46 velocity=80 time=0@note_on channel=9 note=36 velocity=80 time=0@note_on channel=9 note=41 velocity=0 time=0.19274204791666663@note_on channel=9 note=46 velocity=0 time=0@note_on channel=9 note=41 velocity=80 time=0.0008064520833333332@note_on channel=7 note=43 velocity=0 time=0.19274204791666663@note_on channel=8 note=31 velocity=0 time=0@note_on channel=9 note=36 velocity=0 time=0@note_on channel=9 note=41 velocity=0 time=0@note_on channel=7 note=43 velocity=64 time=0.0008064520833333332@note_on channel=8 note=31 velocity=112 time=0@note_on channel=9 note=38 velocity=80 time=0@note_on channel=9 note=46 velocity=80 time=0@note_on channel=9 note=36 velocity=80 time=0@note_on channel=7 note=43 velocity=0 time=0.19274204791666663@note_on channel=8 note=31 velocity=0 time=0@note_on channel=9 note=38 velocity=0 time=0@note_on channel=9 note=46 velocity=0 time=0@note_on channel=7 note=43 velocity=64 time=0.0008064520833333332@note_on channel=8 note=31 velocity=112 time=0@note_on channel=9 note=36 velocity=0 time=0.19274204791666663@note_on channel=9 note=41 velocity=80 time=0.0008064520833333332@note_on channel=9 note=49 velocity=80 time=0@note_on channel=9 note=36 velocity=80 time=0@note_on channel=7 note=43 velocity=0 time=0.19274204791666663@note_on channel=8 note=31 velocity=0 time=0@note_on channel=7 note=43 velocity=64 time=0.0008064520833333332@note_on channel=8 note=31 velocity=112 time=0@note_on channel=9 note=41 velocity=0 time=0.19274204791666663@note_on channel=9 note=49 velocity=0 time=0@note_on channel=9 note=36 velocity=0 time=0@note_on channel=9 note=38 velocity=80 time=0.0008064520833333332@note_on channel=9 note=46 velocity=80 time=0@note_on channel=9 note=36 velocity=80 time=0@note_on channel=7 note=43 velocity=0 time=0.19274204791666663@note_on channel=8 note=31 velocity=0 time=0@note_on channel=9 note=38 velocity=0 time=0@note_on channel=9 note=46 velocity=0 time=0@note_on channel=7 note=43 velocity=64 time=0.0008064520833333332@note_on channel=8 note=31 velocity=112 time=0@note_on channel=9 note=38 velocity=80 time=0@note_on channel=7 note=43 velocity=0 time=0.19274204791666663@note_on channel=8 note=31 velocity=0 time=0@note_on channel=9 note=36 velocity=0 time=0@note_on channel=9 note=38 velocity=0 time=0@note_on channel=7 note=43 velocity=64 time=0.0008064520833333332@note_on channel=8 note=31 velocity=112 time=0@note_on channel=9 note=41 velocity=80 time=0@note_on channel=9 note=46 velocity=80 time=0@note_on channel=9 note=36 velocity=80 time=0@note_on channel=9 note=41 velocity=0 time=0.19274204791666663@note_on channel=9 note=46 velocity=0 time=0@note_on channel=9 note=41 velocity=80 time=0.0008064520833333332@note_on channel=7 note=43 velocity=0 time=0.19274204791666663@note_on channel=8 note=31 velocity=0 time=0@note_on channel=9 note=36 velocity=0 time=0@note_on channel=9 note=41 velocity=0 time=0@note_on channel=7 note=43 velocity=64 time=0.0008064520833333332@note_on channel=8 note=31 velocity=112 time=0@note_on channel=9 note=38 velocity=80 time=0@note_on channel=9 note=46 velocity=80 time=0@note_on channel=9 note=36 velocity=80 time=0@note_on channel=7 note=43 velocity=0 time=0.19274204791666663@note_on channel=8 note=31 velocity=0 time=0@note_on channel=9 note=38 velocity=0 time=0@note_on channel=9 note=46 velocity=0 time=0@note_on channel=7 note=43 velocity=64 time=0.0008064520833333332@note_on channel=8 note=31 velocity=112 time=0@note_on channel=9 note=36 velocity=0 time=0.19274204791666663@note_on channel=9 note=41 velocity=80 time=0.0008064520833333332@note_on channel=9 note=46 velocity=80 time=0@note_on channel=9 note=36 velocity=80 time=0@note_on channel=7 note=43 velocity=0 time=0.19274204791666663@note_on channel=8 note=31 velocity=0 time=0@note_on channel=9 note=41 velocity=0 time=0@note_on channel=9 note=46 velocity=0 time=0@note_on channel=7 note=43 velocity=64 time=0.0008064520833333332@note_on channel=8 note=31 velocity=112 time=0@note_on channel=9 note=41 velocity=80 time=0@note_on channel=9 note=41 velocity=0 time=0.09596779791666665@note_on channel=9 note=41 velocity=80 time=0.0008064520833333332@note_on channel=9 note=36 velocity=0 time=0.09596779791666665@note_on channel=9 note=41 velocity=0 time=0@note_on channel=9 note=38 velocity=80 time=0.0008064520833333332@note_on channel=9 note=46 velocity=80 time=0@note_on channel=9 note=36 velocity=80 time=0@note_on channel=7 note=43 velocity=0 time=0.19274204791666663@note_on channel=8 note=31 velocity=0 time=0@note_on channel=9 note=38 velocity=0 time=0@note_on channel=9 note=46 velocity=0 time=0@note_on channel=7 note=43 velocity=64 time=0.0008064520833333332@note_on channel=8 note=31 velocity=112 time=0@note_on channel=9 note=38 velocity=80 time=0@note_on channel=7 note=43 velocity=0 time=0.19274204791666663@note_on channel=8 note=31 velocity=0 time=0@note_on channel=9 note=36 velocity=0 time=0@note_on channel=9 note=38 velocity=0 time=0@note_on channel=7 note=43 velocity=64 time=0.0008064520833333332@note_on channel=8 note=31 velocity=112 time=0@note_on channel=9 note=41 velocity=80 time=0@note_on channel=9 note=46 velocity=80 time=0@note_on channel=9 note=36 velocity=80 time=0@note_on channel=9 note=41 velocity=0 time=0.19274204791666663@note_on channel=9 note=46 velocity=0 time=0@note_on channel=9 note=41 velocity=80 time=0.0008064520833333332@note_on channel=7 note=43 velocity=0 time=0.19274204791666663@note_on channel=8 note=31 velocity=0 time=0@note_on channel=9 note=36 velocity=0 time=0@note_on channel=9 note=41 velocity=0 time=0@note_on channel=7 note=43 velocity=64 time=0.0008064520833333332@note_on channel=8 note=31 velocity=112 time=0@note_on channel=9 note=38 velocity=80 time=0@note_on channel=9 note=46 velocity=80 time=0@note_on channel=9 note=36 velocity=80 time=0@note_on channel=7 note=43 velocity=0 time=0.19274204791666663@note_on channel=8 note=31 velocity=0 time=0@note_on channel=9 note=38 velocity=0 time=0@note_on channel=9 note=46 velocity=0 time=0@note_on channel=7 note=43 velocity=64 time=0.0008064520833333332@note_on channel=8 note=31 velocity=112 time=0@note_on channel=9 note=36 velocity=0 time=0.19274204791666663@note_on channel=1 note=70 velocity=80 time=0.0008064520833333332@note_on channel=2 note=70 velocity=96 time=0@note_on channel=4 note=58 velocity=80 time=0@note_on channel=4 note=62 velocity=80 time=0@note_on channel=5 note=67 velocity=80 time=0@note_on channel=5 note=70 velocity=80 time=0@note_on channel=9 note=42 velocity=80 time=0@note_on channel=9 note=36 velocity=80 time=0@note_on channel=9 note=49 velocity=80 time=0@note_on channel=10 note=74 velocity=96 time=0@note_on channel=1 note=70 velocity=0 time=0.09596779791666665@note_on channel=2 note=70 velocity=0 time=0@note_on channel=10 note=74 velocity=0 time=0@note_on channel=10 note=74 velocity=96 time=0.0008064520833333332@note_on channel=7 note=43 velocity=0 time=0.09596779791666665@note_on channel=8 note=31 velocity=0 time=0@note_on channel=10 note=74 velocity=0 time=0@note_on channel=1 note=69 velocity=80 time=0.0008064520833333332@note_on channel=2 note=69 velocity=96 time=0@note_on channel=7 note=43 velocity=80 time=0@note_on channel=8 note=31 velocity=112 time=0@note_on channel=10 note=74 velocity=96 time=0@note_on channel=1 note=69 velocity=0 time=0.09596779791666665@note_on channel=2 note=69 velocity=0 time=0@note_on channel=10 note=74 velocity=0 time=0@note_on channel=3 note=62 velocity=80 time=0.0008064520833333332@note_on channel=10 note=74 velocity=96 time=0@note_on channel=3 note=62 velocity=0 time=0.09596779791666665@note_on channel=4 note=58 velocity=0 time=0@note_on channel=4 note=62 velocity=0 time=0@note_on channel=5 note=67 velocity=0 time=0@note_on channel=5 note=70 velocity=0 time=0@note_on channel=9 note=42 velocity=0 time=0@note_on channel=9 note=36 velocity=0 time=0@note_on channel=9 note=49 velocity=0 time=0@note_on channel=10 note=74 velocity=0 time=0@note_on channel=1 note=70 velocity=80 time=0.0008064520833333332@note_on channel=2 note=70 velocity=96 time=0@note_on channel=9 note=38 velocity=80 time=0@note_on channel=9 note=42 velocity=80 time=0@note_on channel=10 note=74 velocity=96 time=0@note_on channel=1 note=70 velocity=0 time=0.09596779791666665@note_on channel=2 note=70 velocity=0 time=0@note_on channel=10 note=74 velocity=0 time=0@note_on channel=3 note=62 velocity=80 time=0.0008064520833333332@note_on channel=10 note=74 velocity=96 time=0@note_on channel=3 note=62 velocity=0 time=0.09596779791666665@note_on channel=7 note=43 velocity=0 time=0@note_on channel=8 note=31 velocity=0 time=0@note_on channel=9 note=38 velocity=0 time=0@note_on channel=9 note=42 velocity=0 time=0@note_on channel=10 note=74 velocity=0 time=0@note_on channel=1 note=67 velocity=80 time=0.0008064520833333332@note_on channel=2 note=67 velocity=96 time=0@note_on channel=7 note=43 velocity=80 time=0@note_on channel=8 note=31 velocity=112 time=0@note_on channel=9 note=42 velocity=80 time=0@note_on channel=9 note=36 velocity=80 time=0@note_on channel=10 note=74 velocity=96 time=0@note_on channel=1 note=67 velocity=0 time=0.09596779791666665@note_on channel=2 note=67 velocity=0 time=0@note_on channel=9 note=42 velocity=0 time=0@note_on channel=9 note=36 velocity=0 time=0@note_on channel=10 note=74 velocity=0 time=0@note_on channel=3 note=62 velocity=80 time=0.0008064520833333332@note_on channel=9 note=42 velocity=80 time=0@note_on channel=9 note=36 velocity=80 time=0@note_on channel=10 note=74 velocity=96 time=0@note_on channel=3 note=62 velocity=0 time=0.09596779791666665@note_on channel=9 note=42 velocity=0 time=0@note_on channel=9 note=36 velocity=0 time=0@note_on channel=10 note=74 velocity=0 time=0@note_on channel=1 note=70 velocity=80 time=0.0008064520833333332@note_on channel=2 note=70 velocity=96 time=0@note_on channel=9 note=42 velocity=80 time=0@note_on channel=9 note=36 velocity=80 time=0@note_on channel=10 note=74 velocity=96 time=0@note_on channel=1 note=70 velocity=0 time=0.09596779791666665@note_on channel=2 note=70 velocity=0 time=0@note_on channel=10 note=74 velocity=0 time=0@note_on channel=3 note=62 velocity=80 time=0.0008064520833333332@note_on channel=10 note=74 velocity=96 time=0@note_on channel=3 note=62 velocity=0 time=0.09596779791666665@note_on channel=7 note=43 velocity=0 time=0@note_on channel=8 note=31 velocity=0 time=0@note_on channel=9 note=42 velocity=0 time=0@note_on channel=9 note=36 velocity=0 time=0@note_on channel=10 note=74 velocity=0 time=0@note_on channel=1 note=69 velocity=80 time=0.0008064520833333332@note_on channel=2 note=69 velocity=96 time=0@note_on channel=7 note=43 velocity=80 time=0@note_on channel=8 note=31 velocity=112 time=0@note_on channel=9 note=42 velocity=80 time=0@note_on channel=9 note=36 velocity=80 time=0@note_on channel=10 note=74 velocity=96 time=0@note_on channel=1 note=69 velocity=0 time=0.09596779791666665@note_on channel=2 note=69 velocity=0 time=0@note_on channel=10 note=74 velocity=0 time=0@note_on channel=3 note=62 velocity=80 time=0.0008064520833333332@note_on channel=10 note=74 velocity=96 time=0@note_on channel=3 note=62 velocity=0 time=0.09596779791666665@note_on channel=9 note=42 velocity=0 time=0@note_on channel=9 note=36 velocity=0 time=0@note_on channel=10 note=74 velocity=0 time=0@note_on channel=1 note=70 velocity=80 time=0.0008064520833333332@note_on channel=2 note=70 velocity=96 time=0@note_on channel=9 note=42 velocity=80 time=0@note_on channel=9 note=38 velocity=80 time=0@note_on channel=10 note=74 velocity=96 time=0@note_on channel=1 note=70 velocity=0 time=0.09596779791666665@note_on channel=2 note=70 velocity=0 time=0@note_on channel=10 note=74 velocity=0 time=0@note_on channel=3 note=62 velocity=80 time=0.0008064520833333332@note_on channel=10 note=74 velocity=96 time=0@note_on channel=3 note=62 velocity=0 time=0.09596779791666665@note_on channel=7 note=43 velocity=0 time=0@note_on channel=8 note=31 velocity=0 time=0@note_on channel=9 note=42 velocity=0 time=0@note_on channel=10 note=74 velocity=0 time=0@note_on channel=1 note=67 velocity=80 time=0.0008064520833333332@note_on channel=2 note=67 velocity=96 time=0@note_on channel=7 note=43 velocity=80 time=0@note_on channel=8 note=31 velocity=80 time=0@note_on channel=9 note=42 velocity=80 time=0@note_on channel=9 note=49 velocity=80 time=0@note_on channel=10 note=74 velocity=96 time=0@note_on channel=1 note=67 velocity=0 time=0.09596779791666665@note_on channel=2 note=67 velocity=0 time=0@note_on channel=9 note=42 velocity=0 time=0@note_on channel=10 note=74 velocity=0 time=0@note_on channel=3 note=62 velocity=80 time=0.0008064520833333332@note_on channel=9 note=42 velocity=80 time=0@note_on channel=10 note=74 velocity=96 time=0@note_on channel=3 note=62 velocity=0 time=0.09596779791666665@note_on channel=9 note=38 velocity=0 time=0@note_on channel=9 note=42 velocity=0 time=0@note_on channel=9 note=49 velocity=0 time=0@note_on channel=10 note=74 velocity=0 time=0@note_on channel=1 note=69 velocity=80 time=0.0008064520833333332@note_on channel=2 note=69 velocity=96 time=0@note_on channel=4 note=57 velocity=80 time=0@note_on channel=4 note=62 velocity=80 time=0@note_on channel=5 note=66 velocity=80 time=0@note_on channel=5 note=69 velocity=80 time=0@note_on channel=9 note=42 velocity=80 time=0@note_on channel=9 note=36 velocity=80 time=0@note_on channel=9 note=49 velocity=80 time=0@note_on channel=10 note=74 velocity=96 time=0@note_on channel=1 note=69 velocity=0 time=0.09596779791666665@note_on channel=2 note=69 velocity=0 time=0@note_on channel=10 note=74 velocity=0 time=0@note_on channel=10 note=74 velocity=96 time=0.0008064520833333332@note_on channel=7 note=43 velocity=0 time=0.09596779791666665@note_on channel=8 note=31 velocity=0 time=0@note_on channel=10 note=74 velocity=0 time=0@note_on channel=1 note=67 velocity=80 time=0.0008064520833333332@note_on channel=2 note=67 velocity=96 time=0@note_on channel=7 note=43 velocity=80 time=0@note_on channel=8 note=31 velocity=80 time=0@note_on channel=10 note=74 velocity=96 time=0@note_on channel=1 note=67 velocity=0 time=0.09596779791666665@note_on channel=2 note=67 velocity=0 time=0@note_on channel=10 note=74 velocity=0 time=0@note_on channel=3 note=62 velocity=80 time=0.0008064520833333332@note_on channel=10 note=74 velocity=96 time=0@note_on channel=3 note=62 velocity=0 time=0.09596779791666665@note_on channel=4 note=57 velocity=0 time=0@note_on channel=4 note=62 velocity=0 time=0@note_on channel=5 note=66 velocity=0 time=0@note_on channel=5 note=69 velocity=0 time=0@note_on channel=9 note=42 velocity=0 time=0@note_on channel=9 note=36 velocity=0 time=0@note_on channel=9 note=49 velocity=0 time=0@note_on channel=10 note=74 velocity=0 time=0@note_on channel=1 note=69 velocity=80 time=0.0008064520833333332@note_on channel=2 note=69 velocity=96 time=0@note_on channel=9 note=38 velocity=80 time=0@note_on channel=9 note=42 velocity=80 time=0@note_on channel=10 note=74 velocity=96 time=0@note_on channel=1 note=69 velocity=0 time=0.09596779791666665@note_on channel=2 note=69 velocity=0 time=0@note_on channel=10 note=74 velocity=0 time=0@note_on channel=3 note=62 velocity=80 time=0.0008064520833333332@note_on channel=10 note=74 velocity=96 time=0@note_on channel=3 note=62 velocity=0 time=0.09596779791666665@note_on channel=7 note=43 velocity=0 time=0@note_on channel=8 note=31 velocity=0 time=0@note_on channel=9 note=38 velocity=0 time=0@note_on channel=9 note=42 velocity=0 time=0@note_on channel=10 note=74 velocity=0 time=0@note_on channel=1 note=66 velocity=80 time=0.0008064520833333332@note_on channel=2 note=66 velocity=96 time=0@note_on channel=7 note=43 velocity=80 time=0@note_on channel=8 note=31 velocity=80 time=0@note_on channel=9 note=42 velocity=80 time=0@note_on channel=9 note=36 velocity=80 time=0@note_on channel=10 note=74 velocity=96 time=0@note_on channel=1 note=66 velocity=0 time=0.09596779791666665@note_on channel=2 note=66 velocity=0 time=0@note_on channel=9 note=42 velocity=0 time=0@note_on channel=9 note=36 velocity=0 time=0@note_on channel=10 note=74 velocity=0 time=0@note_on channel=3 note=62 velocity=80 time=0.0008064520833333332@note_on channel=9 note=42 velocity=80 time=0@note_on channel=9 note=36 velocity=80 time=0@note_on channel=10 note=74 velocity=96 time=0@note_on channel=3 note=62 velocity=0 time=0.09596779791666665@note_on channel=9 note=42 velocity=0 time=0@note_on channel=9 note=36 velocity=0 time=0@note_on channel=10 note=74 velocity=0 time=0@note_on channel=1 note=69 velocity=80 time=0.0008064520833333332@note_on channel=2 note=69 velocity=96 time=0@note_on channel=9 note=42 velocity=80 time=0@note_on channel=9 note=36 velocity=80 time=0@note_on channel=10 note=74 velocity=96 time=0@note_on channel=1 note=69 velocity=0 time=0.09596779791666665@note_on channel=2 note=69 velocity=0 time=0@note_on channel=10 note=74 velocity=0 time=0@note_on channel=3 note=62 velocity=80 time=0.0008064520833333332@note_on channel=10 note=74 velocity=96 time=0@note_on channel=3 note=62 velocity=0 time=0.09596779791666665@note_on channel=7 note=43 velocity=0 time=0@note_on channel=8 note=31 velocity=0 time=0@note_on channel=9 note=42 velocity=0 time=0@note_on channel=9 note=36 velocity=0 time=0@note_on channel=10 note=74 velocity=0 time=0@note_on channel=1 note=67 velocity=80 time=0.0008064520833333332@note_on channel=2 note=67 velocity=96 time=0@note_on channel=7 note=43 velocity=80 time=0@note_on channel=8 note=31 velocity=80 time=0@note_on channel=9 note=42 velocity=80 time=0@note_on channel=9 note=36 velocity=80 time=0@note_on channel=10 note=74 velocity=96 time=0@note_on channel=1 note=67 velocity=0 time=0.09596779791666665@note_on channel=2 note=67 velocity=0 time=0@note_on channel=10 note=74 velocity=0 time=0@note_on channel=3 note=62 velocity=80 time=0.0008064520833333332@note_on channel=10 note=74 velocity=96 time=0@note_on channel=3 note=62 velocity=0 time=0.09596779791666665@note_on channel=9 note=42 velocity=0 time=0@note_on channel=9 note=36 velocity=0 time=0@note_on channel=10 note=74 velocity=0 time=0@note_on channel=1 note=69 velocity=80 time=0.0008064520833333332@note_on channel=2 note=69 velocity=96 time=0@note_on channel=9 note=42 velocity=80 time=0@note_on channel=9 note=38 velocity=80 time=0@note_on channel=10 note=74 velocity=96 time=0@note_on channel=1 note=69 velocity=0 time=0.09596779791666665@note_on channel=2 note=69 velocity=0 time=0@note_on channel=10 note=74 velocity=0 time=0@note_on channel=3 note=62 velocity=80 time=0.0008064520833333332@note_on channel=10 note=74 velocity=96 time=0@note_on channel=3 note=62 velocity=0 time=0.09596779791666665@note_on channel=7 note=43 velocity=0 time=0@note_on channel=8 note=31 velocity=0 time=0@note_on channel=9 note=42 velocity=0 time=0@note_on channel=10 note=74 velocity=0 time=0@note_on channel=1 note=66 velocity=80 time=0.0008064520833333332@note_on channel=2 note=66 velocity=96 time=0@note_on channel=7 note=43 velocity=80 time=0@note_on channel=8 note=31 velocity=80 time=0@note_on channel=9 note=42 velocity=80 time=0@note_on channel=9 note=49 velocity=80 time=0@note_on channel=10 note=74 velocity=96 time=0@note_on channel=1 note=66 velocity=0 time=0.09596779791666665@note_on channel=2 note=66 velocity=0 time=0@note_on channel=9 note=42 velocity=0 time=0@note_on channel=10 note=74 velocity=0 time=0@note_on channel=3 note=62 velocity=80 time=0.0008064520833333332@note_on channel=9 note=42 velocity=80 time=0@note_on channel=10 note=74 velocity=96 time=0@note_on channel=3 note=62 velocity=0 time=0.09596779791666665@note_on channel=9 note=38 velocity=0 time=0@note_on channel=9 note=42 velocity=0 time=0@note_on channel=9 note=49 velocity=0 time=0@note_on channel=10 note=74 velocity=0 time=0@note_on channel=1 note=72 velocity=80 time=0.0008064520833333332@note_on channel=2 note=72 velocity=96 time=0@note_on channel=4 note=57 velocity=80 time=0@note_on channel=4 note=62 velocity=80 time=0@note_on channel=5 note=66 velocity=80 time=0@note_on channel=5 note=72 velocity=80 time=0@note_on channel=9 note=42 velocity=80 time=0@note_on channel=9 note=36 velocity=80 time=0@note_on channel=9 note=49 velocity=80 time=0@note_on channel=10 note=75 velocity=96 time=0@note_on channel=1 note=72 velocity=0 time=0.09596779791666665@note_on channel=2 note=72 velocity=0 time=0@note_on channel=10 note=75 velocity=0 time=0@note_on channel=10 note=75 velocity=96 time=0.0008064520833333332@note_on channel=7 note=43 velocity=0 time=0.09596779791666665@note_on channel=8 note=31 velocity=0 time=0@note_on channel=10 note=75 velocity=0 time=0@note_on channel=1 note=70 velocity=80 time=0.0008064520833333332@note_on channel=2 note=70 velocity=96 time=0@note_on channel=7 note=43 velocity=80 time=0@note_on channel=8 note=31 velocity=80 time=0@note_on channel=10 note=75 velocity=96 time=0@note_on channel=1 note=70 velocity=0 time=0.09596779791666665@note_on channel=2 note=70 velocity=0 time=0@note_on channel=10 note=75 velocity=0 time=0@note_on channel=3 note=63 velocity=80 time=0.0008064520833333332@note_on channel=10 note=75 velocity=96 time=0@note_on channel=3 note=63 velocity=0 time=0.09596779791666665@note_on channel=4 note=57 velocity=0 time=0@note_on channel=4 note=62 velocity=0 time=0@note_on channel=5 note=66 velocity=0 time=0@note_on channel=5 note=72 velocity=0 time=0@note_on channel=9 note=42 velocity=0 time=0@note_on channel=9 note=36 velocity=0 time=0@note_on channel=9 note=49 velocity=0 time=0@note_on channel=10 note=75 velocity=0 time=0@note_on channel=1 note=72 velocity=80 time=0.0008064520833333332@note_on channel=2 note=72 velocity=96 time=0@note_on channel=9 note=38 velocity=80 time=0@note_on channel=9 note=42 velocity=80 time=0@note_on channel=10 note=75 velocity=96 time=0@note_on channel=1 note=72 velocity=0 time=0.09596779791666665@note_on channel=2 note=72 velocity=0 time=0@note_on channel=10 note=75 velocity=0 time=0@note_on channel=3 note=63 velocity=80 time=0.0008064520833333332@note_on channel=10 note=75 velocity=96 time=0@note_on channel=3 note=63 velocity=0 time=0.09596779791666665@note_on channel=7 note=43 velocity=0 time=0@note_on channel=8 note=31 velocity=0 time=0@note_on channel=9 note=38 velocity=0 time=0@note_on channel=9 note=42 velocity=0 time=0@note_on channel=10 note=75 velocity=0 time=0@note_on channel=1 note=67 velocity=80 time=0.0008064520833333332@note_on channel=2 note=67 velocity=96 time=0@note_on channel=7 note=43 velocity=80 time=0@note_on channel=8 note=31 velocity=80 time=0@note_on channel=9 note=42 velocity=80 time=0@note_on channel=9 note=36 velocity=80 time=0@note_on channel=10 note=75 velocity=96 time=0@note_on channel=1 note=67 velocity=0 time=0.09596779791666665@note_on channel=2 note=67 velocity=0 time=0@note_on channel=9 note=42 velocity=0 time=0@note_on channel=9 note=36 velocity=0 time=0@note_on channel=10 note=75 velocity=0 time=0@note_on channel=3 note=63 velocity=80 time=0.0008064520833333332@note_on channel=9 note=42 velocity=80 time=0@note_on channel=9 note=36 velocity=80 time=0@note_on channel=10 note=75 velocity=96 time=0@note_on channel=3 note=63 velocity=0 time=0.09596779791666665@note_on channel=9 note=42 velocity=0 time=0@note_on channel=9 note=36 velocity=0 time=0@note_on channel=10 note=75 velocity=0 time=0@note_on channel=1 note=72 velocity=80 time=0.0008064520833333332@note_on channel=2 note=72 velocity=96 time=0@note_on channel=9 note=42 velocity=80 time=0@note_on channel=9 note=36 velocity=80 time=0@note_on channel=10 note=75 velocity=96 time=0@note_on channel=1 note=72 velocity=0 time=0.09596779791666665@note_on channel=2 note=72 velocity=0 time=0@note_on channel=10 note=75 velocity=0 time=0@note_on channel=3 note=63 velocity=80 time=0.0008064520833333332@note_on channel=10 note=75 velocity=96 time=0@note_on channel=3 note=63 velocity=0 time=0.09596779791666665@note_on channel=7 note=43 velocity=0 time=0@note_on channel=8 note=31 velocity=0 time=0@note_on channel=9 note=42 velocity=0 time=0@note_on channel=9 note=36 velocity=0 time=0@note_on channel=10 note=75 velocity=0 time=0@note_on channel=1 note=70 velocity=80 time=0.0008064520833333332@note_on channel=2 note=70 velocity=96 time=0@note_on channel=7 note=43 velocity=80 time=0@note_on channel=8 note=31 velocity=80 time=0@note_on channel=9 note=42 velocity=80 time=0@note_on channel=9 note=36 velocity=80 time=0@note_on channel=10 note=75 velocity=96 time=0@note_on channel=1 note=70 velocity=0 time=0.09596779791666665@note_on channel=2 note=70 velocity=0 time=0@note_on channel=10 note=75 velocity=0 time=0@note_on channel=3 note=63 velocity=80 time=0.0008064520833333332@note_on channel=10 note=75 velocity=96 time=0@note_on channel=3 note=63 velocity=0 time=0.09596779791666665@note_on channel=9 note=42 velocity=0 time=0@note_on channel=9 note=36 velocity=0 time=0@note_on channel=10 note=75 velocity=0 time=0@note_on channel=1 note=72 velocity=80 time=0.0008064520833333332@note_on channel=2 note=72 velocity=96 time=0@note_on channel=9 note=42 velocity=80 time=0@note_on channel=9 note=38 velocity=80 time=0@note_on channel=10 note=75 velocity=96 time=0@note_on channel=1 note=72 velocity=0 time=0.09596779791666665@note_on channel=2 note=72 velocity=0 time=0@note_on channel=10 note=75 velocity=0 time=0@note_on channel=3 note=63 velocity=80 time=0.0008064520833333332@note_on channel=10 note=75 velocity=96 time=0@note_on channel=3 note=63 velocity=0 time=0.09596779791666665@note_on channel=7 note=43 velocity=0 time=0@note_on channel=8 note=31 velocity=0 time=0@note_on channel=9 note=42 velocity=0 time=0@note_on channel=10 note=75 velocity=0 time=0@note_on channel=1 note=67 velocity=80 time=0.0008064520833333332@note_on channel=2 note=67 velocity=96 time=0@note_on channel=7 note=43 velocity=80 time=0@note_on channel=8 note=31 velocity=80 time=0@note_on channel=9 note=42 velocity=80 time=0@note_on channel=9 note=49 velocity=80 time=0@note_on channel=10 note=75 velocity=96 time=0@note_on channel=1 note=67 velocity=0 time=0.09596779791666665@note_on channel=2 note=67 velocity=0 time=0@note_on channel=9 note=42 velocity=0 time=0@note_on channel=10 note=75 velocity=0 time=0@note_on channel=3 note=63 velocity=80 time=0.0008064520833333332@note_on channel=9 note=42 velocity=80 time=0@note_on channel=10 note=75 velocity=96 time=0@note_on channel=3 note=63 velocity=0 time=0.09596779791666665@note_on channel=9 note=38 velocity=0 time=0@note_on channel=9 note=42 velocity=0 time=0@note_on channel=9 note=49 velocity=0 time=0@note_on channel=10 note=75 velocity=0 time=0@note_on channel=1 note=69 velocity=80 time=0.0008064520833333332@note_on channel=2 note=69 velocity=96 time=0@note_on channel=4 note=57 velocity=80 time=0@note_on channel=4 note=62 velocity=80 time=0@note_on channel=5 note=62 velocity=80 time=0@note_on channel=5 note=66 velocity=80 time=0@note_on channel=9 note=42 velocity=80 time=0@note_on channel=9 note=36 velocity=80 time=0@note_on channel=9 note=49 velocity=80 time=0@note_on channel=10 note=74 velocity=96 time=0@note_on channel=1 note=69 velocity=0 time=0.09596779791666665@note_on channel=2 note=69 velocity=0 time=0@note_on channel=10 note=74 velocity=0 time=0@note_on channel=10 note=74 velocity=96 time=0.0008064520833333332@note_on channel=7 note=43 velocity=0 time=0.09596779791666665@note_on channel=8 note=31 velocity=0 time=0@note_on channel=10 note=74 velocity=0 time=0@note_on channel=1 note=67 velocity=80 time=0.0008064520833333332@note_on channel=2 note=67 velocity=96 time=0@note_on channel=7 note=43 velocity=80 time=0@note_on channel=8 note=31 velocity=80 time=0@note_on channel=10 note=74 velocity=96 time=0@note_on channel=1 note=67 velocity=0 time=0.09596779791666665@note_on channel=2 note=67 velocity=0 time=0@note_on channel=10 note=74 velocity=0 time=0@note_on channel=3 note=62 velocity=80 time=0.0008064520833333332@note_on channel=10 note=74 velocity=96 time=0@note_on channel=3 note=62 velocity=0 time=0.09596779791666665@note_on channel=4 note=57 velocity=0 time=0@note_on channel=4 note=62 velocity=0 time=0@note_on channel=5 note=62 velocity=0 time=0@note_on channel=5 note=66 velocity=0 time=0@note_on channel=9 note=42 velocity=0 time=0@note_on channel=9 note=36 velocity=0 time=0@note_on channel=9 note=49 velocity=0 time=0@note_on channel=10 note=74 velocity=0 time=0@note_on channel=1 note=69 velocity=80 time=0.0008064520833333332@note_on channel=2 note=69 velocity=96 time=0@note_on channel=9 note=38 velocity=80 time=0@note_on channel=9 note=42 velocity=80 time=0@note_on channel=10 note=74 velocity=96 time=0@note_on channel=1 note=69 velocity=0 time=0.09596779791666665@note_on channel=2 note=69 velocity=0 time=0@note_on channel=10 note=74 velocity=0 time=0@note_on channel=3 note=62 velocity=80 time=0.0008064520833333332@note_on channel=10 note=74 velocity=96 time=0@note_on channel=3 note=62 velocity=0 time=0.09596779791666665@note_on channel=7 note=43 velocity=0 time=0@note_on channel=8 note=31 velocity=0 time=0@note_on channel=9 note=38 velocity=0 time=0@note_on channel=9 note=42 velocity=0 time=0@note_on channel=10 note=74 velocity=0 time=0@note_on channel=1 note=66 velocity=80 time=0.0008064520833333332@note_on channel=2 note=66 velocity=96 time=0@note_on channel=7 note=43 velocity=80 time=0@note_on channel=8 note=31 velocity=80 time=0@note_on channel=9 note=42 velocity=80 time=0@note_on channel=9 note=36 velocity=80 time=0@note_on channel=10 note=74 velocity=96 time=0@note_on channel=1 note=66 velocity=0 time=0.09596779791666665@note_on channel=2 note=66 velocity=0 time=0@note_on channel=9 note=42 velocity=0 time=0@note_on channel=9 note=36 velocity=0 time=0@note_on channel=10 note=74 velocity=0 time=0@note_on channel=3 note=62 velocity=80 time=0.0008064520833333332@note_on channel=9 note=42 velocity=80 time=0@note_on channel=9 note=36 velocity=80 time=0@note_on channel=10 note=74 velocity=96 time=0@note_on channel=3 note=62 velocity=0 time=0.09596779791666665@note_on channel=9 note=42 velocity=0 time=0@note_on channel=9 note=36 velocity=0 time=0@note_on channel=10 note=74 velocity=0 time=0@note_on channel=1 note=66 velocity=80 time=0.0008064520833333332@note_on channel=2 note=66 velocity=96 time=0@note_on channel=4 note=57 velocity=80 time=0@note_on channel=4 note=62 velocity=80 time=0@note_on channel=5 note=62 velocity=80 time=0@note_on channel=5 note=66 velocity=80 time=0@note_on channel=9 note=42 velocity=80 time=0@note_on channel=9 note=36 velocity=80 time=0@note_on channel=9 note=49 velocity=80 time=0@note_on channel=10 note=74 velocity=96 time=0@note_on channel=1 note=66 velocity=0 time=0.09596779791666665@note_on channel=2 note=66 velocity=0 time=0@note_on channel=10 note=74 velocity=0 time=0@note_on channel=3 note=62 velocity=80 time=0.0008064520833333332@note_on channel=10 note=74 velocity=96 time=0@note_on channel=3 note=62 velocity=0 time=0.09596779791666665@note_on channel=7 note=43 velocity=0 time=0@note_on channel=8 note=31 velocity=0 time=0@note_on channel=9 note=42 velocity=0 time=0@note_on channel=9 note=36 velocity=0 time=0@note_on channel=10 note=74 velocity=0 time=0@note_on channel=1 note=64 velocity=80 time=0.0008064520833333332@note_on channel=2 note=64 velocity=96 time=0@note_on channel=7 note=43 velocity=80 time=0@note_on channel=8 note=31 velocity=80 time=0@note_on channel=9 note=42 velocity=80 time=0@note_on channel=9 note=36 velocity=80 time=0@note_on channel=10 note=74 velocity=96 time=0@note_on channel=1 note=64 velocity=0 time=0.09596779791666665@note_on channel=2 note=64 velocity=0 time=0@note_on channel=10 note=74 velocity=0 time=0@note_on channel=3 note=62 velocity=80 time=0.0008064520833333332@note_on channel=10 note=74 velocity=96 time=0@note_on channel=3 note=62 velocity=0 time=0.09596779791666665@note_on channel=4 note=57 velocity=0 time=0@note_on channel=4 note=62 velocity=0 time=0@note_on channel=5 note=62 velocity=0 time=0@note_on channel=5 note=66 velocity=0 time=0@note_on channel=9 note=42 velocity=0 time=0@note_on channel=9 note=36 velocity=0 time=0@note_on channel=9 note=49 velocity=0 time=0@note_on channel=10 note=74 velocity=0 time=0@note_on channel=1 note=66 velocity=80 time=0.0008064520833333332@note_on channel=2 note=66 velocity=96 time=0@note_on channel=9 note=42 velocity=80 time=0@note_on channel=9 note=38 velocity=80 time=0@note_on channel=10 note=69 velocity=96 time=0@note_on channel=1 note=66 velocity=0 time=0.09596779791666665@note_on channel=2 note=66 velocity=0 time=0@note_on channel=10 note=69 velocity=0 time=0@note_on channel=3 note=57 velocity=80 time=0.0008064520833333332@note_on channel=10 note=69 velocity=96 time=0@note_on channel=3 note=57 velocity=0 time=0.09596779791666665@note_on channel=7 note=43 velocity=0 time=0@note_on channel=8 note=31 velocity=0 time=0@note_on channel=9 note=42 velocity=0 time=0@note_on channel=10 note=69 velocity=0 time=0@note_on channel=1 note=62 velocity=80 time=0.0008064520833333332@note_on channel=2 note=62 velocity=96 time=0@note_on channel=7 note=43 velocity=80 time=0@note_on channel=8 note=31 velocity=80 time=0@note_on channel=9 note=42 velocity=80 time=0@note_on channel=10 note=69 velocity=96 time=0@note_on channel=1 note=62 velocity=0 time=0.09596779791666665@note_on channel=2 note=62 velocity=0 time=0@note_on channel=9 note=42 velocity=0 time=0@note_on channel=10 note=69 velocity=0 time=0@note_on channel=3 note=57 velocity=80 time=0.0008064520833333332@note_on channel=9 note=42 velocity=80 time=0@note_on channel=10 note=69 velocity=96 time=0@note_on channel=3 note=57 velocity=0 time=0.09596779791666665@note_on channel=7 note=43 velocity=0 time=0@note_on channel=8 note=31 velocity=0 time=0@note_on channel=9 note=38 velocity=0 time=0@note_on channel=9 note=42 velocity=0 time=0@note_on channel=10 note=69 velocity=0 time=0@note_on channel=0 note=70 velocity=112 time=0.0008064520833333332@note_on channel=4 note=58 velocity=80 time=0@note_on channel=4 note=62 velocity=80 time=0@note_on channel=5 note=67 velocity=80 time=0@note_on channel=5 note=70 velocity=80 time=0@note_on channel=7 note=43 velocity=80 time=0@note_on channel=8 note=31 velocity=80 time=0@note_on channel=9 note=42 velocity=80 time=0@note_on channel=9 note=36 velocity=80 time=0@note_on channel=9 note=49 velocity=80 time=0@note_on channel=8 note=31 velocity=0 time=0.19274204791666663@note_on channel=8 note=31 velocity=80 time=0.0008064520833333332@note_on channel=0 note=70 velocity=0 time=0.17338719791666665@note_on channel=4 note=58 velocity=0 time=0.019354849999999996@note_on channel=4 note=62 velocity=0 time=0@note_on channel=5 note=67 velocity=0 time=0@note_on channel=5 note=70 velocity=0 time=0@note_on channel=9 note=42 velocity=0 time=0@note_on channel=9 note=36 velocity=0 time=0@note_on channel=9 note=49 velocity=0 time=0@note_on channel=0 note=66 velocity=112 time=0.0008064520833333332@note_on channel=9 note=38 velocity=80 time=0@note_on channel=9 note=42 velocity=80 time=0@note_on channel=0 note=66 velocity=0 time=0.09112908541666666@note_on channel=0 note=67 velocity=112 time=0.005645164583333332@note_on channel=0 note=67 velocity=0 time=0.09112908541666666@note_on channel=8 note=31 velocity=0 time=0.004838712499999999@note_on channel=9 note=38 velocity=0 time=0@note_on channel=9 note=42 velocity=0 time=0@note_on channel=0 note=70 velocity=112 time=0.0008064520833333332@note_on channel=8 note=31 velocity=80 time=0@note_on channel=9 note=42 velocity=80 time=0@note_on channel=9 note=36 velocity=80 time=0@note_on channel=0 note=70 velocity=0 time=0.09112908541666666@note_on channel=9 note=42 velocity=0 time=0.004838712499999999@note_on channel=9 note=36 velocity=0 time=0@note_on channel=0 note=74 velocity=112 time=0.0008064520833333332@note_on channel=9 note=42 velocity=80 time=0@note_on channel=9 note=36 velocity=80 time=0@note_on channel=0 note=74 velocity=0 time=0.09112908541666666@note_on channel=9 note=42 velocity=0 time=0.004838712499999999@note_on channel=9 note=36 velocity=0 time=0@note_on channel=0 note=67 velocity=112 time=0.0008064520833333332@note_on channel=4 note=58 velocity=80 time=0@note_on channel=4 note=62 velocity=80 time=0@note_on channel=5 note=67 velocity=80 time=0@note_on channel=5 note=70 velocity=80 time=0@note_on channel=9 note=42 velocity=80 time=0@note_on channel=9 note=36 velocity=80 time=0@note_on channel=9 note=49 velocity=80 time=0@note_on channel=0 note=67 velocity=0 time=0.09112908541666666@note_on channel=0 note=70 velocity=112 time=0.005645164583333332@note_on channel=0 note=70 velocity=0 time=0.09112908541666666@note_on channel=8 note=31 velocity=0 time=0.004838712499999999@note_on channel=9 note=42 velocity=0 time=0@note_on channel=9 note=36 velocity=0 time=0@note_on channel=0 note=74 velocity=112 time=0.0008064520833333332@note_on channel=8 note=31 velocity=80 time=0@note_on channel=9 note=42 velocity=80 time=0@note_on channel=9 note=36 velocity=80 time=0@note_on channel=0 note=74 velocity=0 time=0.09112908541666666@note_on channel=0 note=79 velocity=112 time=0.005645164583333332@note_on channel=0 note=79 velocity=0 time=0.09112908541666666@note_on channel=4 note=58 velocity=0 time=0.004838712499999999@note_on channel=4 note=62 velocity=0 time=0@note_on channel=5 note=67 velocity=0 time=0@note_on channel=5 note=70 velocity=0 time=0@note_on channel=9 note=42 velocity=0 time=0@note_on channel=9 note=36 velocity=0 time=0@note_on channel=9 note=49 velocity=0 time=0@note_on channel=0 note=70 velocity=112 time=0.0008064520833333332@note_on channel=9 note=42 velocity=80 time=0@note_on channel=9 note=38 velocity=80 time=0@note_on channel=0 note=70 velocity=0 time=0.09112908541666666@note_on channel=0 note=74 velocity=112 time=0.005645164583333332@note_on channel=0 note=74 velocity=0 time=0.09112908541666666@note_on channel=8 note=31 velocity=0 time=0.004838712499999999@note_on channel=9 note=42 velocity=0 time=0@note_on channel=0 note=79 velocity=112 time=0.0008064520833333332@note_on channel=8 note=31 velocity=80 time=0@note_on channel=9 note=42 velocity=80 time=0@note_on channel=0 note=79 velocity=0 time=0.09112908541666666@note_on channel=9 note=42 velocity=0 time=0.004838712499999999@note_on channel=0 note=82 velocity=112 time=0.0008064520833333332@note_on channel=9 note=42 velocity=80 time=0@note_on channel=0 note=82 velocity=0 time=0.09112908541666666@note_on channel=7 note=43 velocity=0 time=0.004838712499999999@note_on channel=9 note=38 velocity=0 time=0@note_on channel=9 note=42 velocity=0 time=0@note_on channel=0 note=69 velocity=112 time=0.0008064520833333332@note_on channel=4 note=57 velocity=80 time=0@note_on channel=4 note=62 velocity=80 time=0@note_on channel=5 note=66 velocity=80 time=0@note_on channel=5 note=69 velocity=80 time=0@note_on channel=7 note=43 velocity=80 time=0@note_on channel=9 note=42 velocity=80 time=0@note_on channel=9 note=36 velocity=80 time=0@note_on channel=9 note=49 velocity=80 time=0@note_on channel=8 note=31 velocity=0 time=0.19274204791666663@note_on channel=8 note=31 velocity=80 time=0.0008064520833333332@note_on channel=0 note=69 velocity=0 time=0.17338719791666665@note_on channel=4 note=57 velocity=0 time=0.019354849999999996@note_on channel=4 note=62 velocity=0 time=0@note_on channel=5 note=66 velocity=0 time=0@note_on channel=5 note=69 velocity=0 time=0@note_on channel=9 note=42 velocity=0 time=0@note_on channel=9 note=36 velocity=0 time=0@note_on channel=9 note=49 velocity=0 time=0@note_on channel=0 note=62 velocity=112 time=0.0008064520833333332@note_on channel=9 note=38 velocity=80 time=0@note_on channel=9 note=42 velocity=80 time=0@note_on channel=0 note=62 velocity=0 time=0.09112908541666666@note_on channel=0 note=66 velocity=112 time=0.005645164583333332@note_on channel=0 note=66 velocity=0 time=0.09112908541666666@note_on channel=8 note=31 velocity=0 time=0.004838712499999999@note_on channel=9 note=38 velocity=0 time=0@note_on channel=9 note=42 velocity=0 time=0@note_on channel=0 note=67 velocity=112 time=0.0008064520833333332@note_on channel=8 note=31 velocity=80 time=0@note_on channel=9 note=42 velocity=80 time=0@note_on channel=9 note=36 velocity=80 time=0@note_on channel=0 note=67 velocity=0 time=0.09112908541666666@note_on channel=9 note=42 velocity=0 time=0.004838712499999999@note_on channel=9 note=36 velocity=0 time=0@note_on channel=0 note=70 velocity=112 time=0.0008064520833333332@note_on channel=9 note=42 velocity=80 time=0@note_on channel=9 note=36 velocity=80 time=0@note_on channel=0 note=70 velocity=0 time=0.09112908541666666@note_on channel=9 note=42 velocity=0 time=0.004838712499999999@note_on channel=9 note=36 velocity=0 time=0@note_on channel=0 note=69 velocity=112 time=0.0008064520833333332@note_on channel=4 note=57 velocity=80 time=0@note_on channel=4 note=62 velocity=80 time=0@note_on channel=5 note=66 velocity=80 time=0@note_on channel=5 note=69 velocity=80 time=0@note_on channel=9 note=42 velocity=80 time=0@note_on channel=9 note=36 velocity=80 time=0@note_on channel=9 note=49 velocity=80 time=0@note_on channel=8 note=31 velocity=0 time=0.19274204791666663@note_on channel=9 note=42 velocity=0 time=0@note_on channel=9 note=36 velocity=0 time=0@note_on channel=8 note=31 velocity=80 time=0.0008064520833333332@note_on channel=9 note=42 velocity=80 time=0@note_on channel=9 note=36 velocity=80 time=0@note_on channel=0 note=69 velocity=0 time=0.17338719791666665@note_on channel=4 note=57 velocity=0 time=0.019354849999999996@note_on channel=4 note=62 velocity=0 time=0@note_on channel=5 note=66 velocity=0 time=0@note_on channel=5 note=69 velocity=0 time=0@note_on channel=9 note=42 velocity=0 time=0@note_on channel=9 note=36 velocity=0 time=0@note_on channel=9 note=49 velocity=0 time=0@note_on channel=0 note=66 velocity=112 time=0.0008064520833333332@note_on channel=9 note=42 velocity=80 time=0@note_on channel=9 note=38 velocity=80 time=0@note_on channel=0 note=66 velocity=0 time=0.09112908541666666@note_on channel=0 note=67 velocity=112 time=0.005645164583333332@note_on channel=0 note=67 velocity=0 time=0.09112908541666666@note_on channel=8 note=31 velocity=0 time=0.004838712499999999@note_on channel=9 note=42 velocity=0 time=0@note_on channel=0 note=70 velocity=112 time=0.0008064520833333332@note_on channel=8 note=31 velocity=80 time=0@note_on channel=9 note=42 velocity=80 time=0@note_on channel=0 note=70 velocity=0 time=0.09112908541666666@note_on channel=9 note=42 velocity=0 time=0.004838712499999999@note_on channel=0 note=74 velocity=112 time=0.0008064520833333332@note_on channel=9 note=42 velocity=80 time=0@note_on channel=0 note=74 velocity=0 time=0.09112908541666666@note_on channel=7 note=43 velocity=0 time=0.004838712499999999@note_on channel=9 note=38 velocity=0 time=0@note_on channel=9 note=42 velocity=0 time=0@note_on channel=0 note=75 velocity=112 time=0.0008064520833333332@note_on channel=4 note=63 velocity=80 time=0@note_on channel=4 note=67 velocity=80 time=0@note_on channel=5 note=70 velocity=80 time=0@note_on channel=5 note=75 velocity=80 time=0@note_on channel=7 note=39 velocity=80 time=0@note_on channel=9 note=42 velocity=80 time=0@note_on channel=9 note=36 velocity=80 time=0@note_on channel=9 note=49 velocity=80 time=0@note_on channel=8 note=31 velocity=0 time=0.19274204791666663@note_on channel=8 note=31 velocity=80 time=0.0008064520833333332@note_on channel=0 note=75 velocity=0 time=0.17338719791666665@note_on channel=4 note=63 velocity=0 time=0.019354849999999996@note_on channel=4 note=67 velocity=0 time=0@note_on channel=5 note=70 velocity=0 time=0@note_on channel=5 note=75 velocity=0 time=0@note_on channel=9 note=42 velocity=0 time=0@note_on channel=9 note=36 velocity=0 time=0@note_on channel=9 note=49 velocity=0 time=0@note_on channel=0 note=62 velocity=112 time=0.0008064520833333332@note_on channel=9 note=38 velocity=80 time=0@note_on channel=9 note=42 velocity=80 time=0@note_on channel=0 note=62 velocity=0 time=0.09112908541666666@note_on channel=0 note=67 velocity=112 time=0.005645164583333332@note_on channel=0 note=67 velocity=0 time=0.09112908541666666@note_on channel=8 note=31 velocity=0 time=0.004838712499999999@note_on channel=9 note=38 velocity=0 time=0@note_on channel=9 note=42 velocity=0 time=0@note_on channel=0 note=70 velocity=112 time=0.0008064520833333332@note_on channel=8 note=31 velocity=80 time=0@note_on channel=9 note=42 velocity=80 time=0@note_on channel=9 note=36 velocity=80 time=0@note_on channel=0 note=70 velocity=0 time=0.09112908541666666@note_on channel=9 note=42 velocity=0 time=0.004838712499999999@note_on channel=9 note=36 velocity=0 time=0@note_on channel=0 note=74 velocity=112 time=0.0008064520833333332@note_on channel=9 note=42 velocity=80 time=0@note_on channel=9 note=36 velocity=80 time=0@note_on channel=0 note=74 velocity=0 time=0.09112908541666666@note_on channel=9 note=42 velocity=0 time=0.004838712499999999@note_on channel=9 note=36 velocity=0 time=0@note_on channel=0 note=75 velocity=112 time=0.0008064520833333332@note_on channel=4 note=63 velocity=80 time=0@note_on channel=4 note=67 velocity=80 time=0@note_on channel=5 note=70 velocity=80 time=0@note_on channel=5 note=75 velocity=80 time=0@note_on channel=9 note=42 velocity=80 time=0@note_on channel=9 note=36 velocity=80 time=0@note_on channel=9 note=49 velocity=80 time=0@note_on channel=8 note=31 velocity=0 time=0.19274204791666663@note_on channel=9 note=42 velocity=0 time=0@note_on channel=9 note=36 velocity=0 time=0@note_on channel=8 note=31 velocity=80 time=0.0008064520833333332@note_on channel=9 note=42 velocity=80 time=0@note_on channel=9 note=36 velocity=80 time=0@note_on channel=0 note=75 velocity=0 time=0.17338719791666665@note_on channel=4 note=63 velocity=0 time=0.019354849999999996@note_on channel=4 note=67 velocity=0 time=0@note_on channel=5 note=70 velocity=0 time=0@note_on channel=5 note=75 velocity=0 time=0@note_on channel=9 note=42 velocity=0 time=0@note_on channel=9 note=36 velocity=0 time=0@note_on channel=9 note=49 velocity=0 time=0@note_on channel=0 note=74 velocity=112 time=0.0008064520833333332@note_on channel=9 note=42 velocity=80 time=0@note_on channel=9 note=38 velocity=80 time=0@note_on channel=0 note=74 velocity=0 time=0.09112908541666666@note_on channel=0 note=75 velocity=112 time=0.005645164583333332@note_on channel=0 note=75 velocity=0 time=0.09112908541666666@note_on channel=8 note=31 velocity=0 time=0.004838712499999999@note_on channel=9 note=42 velocity=0 time=0@note_on channel=0 note=79 velocity=112 time=0.0008064520833333332@note_on channel=8 note=31 velocity=80 time=0@note_on channel=9 note=42 velocity=80 time=0@note_on channel=0 note=79 velocity=0 time=0.09112908541666666@note_on channel=9 note=42 velocity=0 time=0.004838712499999999@note_on channel=0 note=82 velocity=112 time=0.0008064520833333332@note_on channel=9 note=42 velocity=80 time=0@note_on channel=0 note=82 velocity=0 time=0.09112908541666666@note_on channel=7 note=39 velocity=0 time=0.004838712499999999@note_on channel=9 note=38 velocity=0 time=0@note_on channel=9 note=42 velocity=0 time=0@note_on channel=0 note=74 velocity=112 time=0.0008064520833333332@note_on channel=4 note=62 velocity=80 time=0@note_on channel=4 note=66 velocity=80 time=0@note_on channel=5 note=69 velocity=80 time=0@note_on channel=5 note=74 velocity=80 time=0@note_on channel=7 note=38 velocity=80 time=0@note_on channel=9 note=42 velocity=80 time=0@note_on channel=9 note=36 velocity=80 time=0@note_on channel=9 note=49 velocity=80 time=0@note_on channel=8 note=31 velocity=0 time=0.19274204791666663@note_on channel=8 note=31 velocity=80 time=0.0008064520833333332@note_on channel=0 note=74 velocity=0 time=0.17338719791666665@note_on channel=4 note=62 velocity=0 time=0.019354849999999996@note_on channel=4 note=66 velocity=0 time=0@note_on channel=5 note=69 velocity=0 time=0@note_on channel=5 note=74 velocity=0 time=0@note_on channel=9 note=42 velocity=0 time=0@note_on channel=9 note=36 velocity=0 time=0@note_on channel=9 note=49 velocity=0 time=0@note_on channel=0 note=69 velocity=112 time=0.0008064520833333332@note_on channel=9 note=38 velocity=80 time=0@note_on channel=9 note=42 velocity=80 time=0@note_on channel=0 note=69 velocity=0 time=0.09112908541666666@note_on channel=0 note=74 velocity=112 time=0.005645164583333332@note_on channel=0 note=74 velocity=0 time=0.09112908541666666@note_on channel=8 note=31 velocity=0 time=0.004838712499999999@note_on channel=9 note=38 velocity=0 time=0@note_on channel=9 note=42 velocity=0 time=0@note_on channel=0 note=78 velocity=112 time=0.0008064520833333332@note_on channel=8 note=31 velocity=80 time=0@note_on channel=9 note=42 velocity=80 time=0@note_on channel=9 note=36 velocity=80 time=0@note_on channel=0 note=78 velocity=0 time=0.09112908541666666@note_on channel=9 note=42 velocity=0 time=0.004838712499999999@note_on channel=9 note=36 velocity=0 time=0@note_on channel=0 note=79 velocity=112 time=0.0008064520833333332@note_on channel=9 note=42 velocity=80 time=0@note_on channel=9 note=36 velocity=80 time=0@note_on channel=0 note=79 velocity=0 time=0.09112908541666666@note_on channel=7 note=38 velocity=0 time=0.004838712499999999@note_on channel=9 note=42 velocity=0 time=0@note_on channel=9 note=36 velocity=0 time=0@note_on channel=0 note=81 velocity=112 time=0.0008064520833333332@note_on channel=4 note=69 velocity=80 time=0@note_on channel=4 note=74 velocity=80 time=0@note_on channel=5 note=78 velocity=80 time=0@note_on channel=5 note=81 velocity=80 time=0@note_on channel=7 note=45 velocity=80 time=0@note_on channel=9 note=42 velocity=80 time=0@note_on channel=9 note=36 velocity=80 time=0@note_on channel=9 note=49 velocity=80 time=0@note_on channel=8 note=31 velocity=0 time=0.19274204791666663@note_on channel=9 note=42 velocity=0 time=0@note_on channel=9 note=36 velocity=0 time=0@note_on channel=8 note=31 velocity=80 time=0.0008064520833333332@note_on channel=9 note=42 velocity=80 time=0@note_on channel=9 note=36 velocity=80 time=0@note_on channel=0 note=81 velocity=0 time=0.17338719791666665@note_on channel=4 note=69 velocity=0 time=0.019354849999999996@note_on channel=4 note=74 velocity=0 time=0@note_on channel=5 note=78 velocity=0 time=0@note_on channel=5 note=81 velocity=0 time=0@note_on channel=9 note=42 velocity=0 time=0@note_on channel=9 note=36 velocity=0 time=0@note_on channel=9 note=49 velocity=0 time=0@note_on channel=0 note=74 velocity=112 time=0.0008064520833333332@note_on channel=9 note=42 velocity=80 time=0@note_on channel=9 note=38 velocity=80 time=0@note_on channel=0 note=74 velocity=0 time=0.09112908541666666@note_on channel=0 note=78 velocity=112 time=0.005645164583333332@note_on channel=0 note=78 velocity=0 time=0.09112908541666666@note_on channel=8 note=31 velocity=0 time=0.004838712499999999@note_on channel=9 note=42 velocity=0 time=0@note_on channel=0 note=79 velocity=112 time=0.0008064520833333332@note_on channel=8 note=31 velocity=96 time=0@note_on channel=9 note=42 velocity=80 time=0@note_on channel=0 note=79 velocity=0 time=0.09112908541666666@note_on channel=9 note=42 velocity=0 time=0.004838712499999999@note_on channel=0 note=81 velocity=112 time=0.0008064520833333332@note_on channel=9 note=42 velocity=80 time=0@note_on channel=0 note=81 velocity=0 time=0.09112908541666666@note_on channel=7 note=45 velocity=0 time=0.004838712499999999@note_on channel=8 note=31 velocity=0 time=0@note_on channel=9 note=38 velocity=0 time=0@note_on channel=9 note=42 velocity=0 time=0@note_on channel=0 note=70 velocity=112 time=0.0008064520833333332@note_on channel=1 note=67 velocity=112 time=0@note_on channel=4 note=55 velocity=64 time=0@note_on channel=5 note=58 velocity=80 time=0@note_on channel=7 note=43 velocity=80 time=0@note_on channel=8 note=31 velocity=96 time=0@note_on channel=9 note=42 velocity=80 time=0@note_on channel=9 note=36 velocity=80 time=0@note_on channel=9 note=51 velocity=80 time=0@note_on channel=11 note=94 velocity=112 time=0@note_on channel=1 note=67 velocity=0 time=0.09596779791666665@note_on channel=8 note=31 velocity=0 time=0.09677424999999999@note_on channel=9 note=51 velocity=0 time=0@note_on channel=1 note=74 velocity=112 time=0.0008064520833333332@note_on channel=8 note=31 velocity=96 time=0@note_on channel=9 note=51 velocity=80 time=0@note_on channel=1 note=74 velocity=0 time=0.09596779791666665@note_on channel=9 note=42 velocity=0 time=0.09677424999999999@note_on channel=9 note=36 velocity=0 time=0@note_on channel=1 note=72 velocity=112 time=0.0008064520833333332@note_on channel=9 note=38 velocity=80 time=0@note_on channel=9 note=42 velocity=80 time=0@note_on channel=1 note=72 velocity=0 time=0.09596779791666665@note_on channel=8 note=31 velocity=0 time=0.09677424999999999@note_on channel=9 note=38 velocity=0 time=0@note_on channel=9 note=42 velocity=0 time=0@note_on channel=9 note=51 velocity=0 time=0@note_on channel=1 note=70 velocity=112 time=0.0008064520833333332@note_on channel=8 note=31 velocity=96 time=0@note_on channel=9 note=42 velocity=80 time=0@note_on channel=9 note=36 velocity=80 time=0@note_on channel=9 note=51 velocity=80 time=0@note_on channel=1 note=70 velocity=0 time=0.09596779791666665@note_on channel=9 note=42 velocity=0 time=0@note_on channel=9 note=36 velocity=0 time=0@note_on channel=9 note=42 velocity=80 time=0.0008064520833333332@note_on channel=9 note=36 velocity=80 time=0@note_on channel=9 note=42 velocity=0 time=0.09596779791666665@note_on channel=9 note=36 velocity=0 time=0@note_on channel=1 note=69 velocity=112 time=0.0008064520833333332@note_on channel=9 note=42 velocity=80 time=0@note_on channel=9 note=36 velocity=80 time=0@note_on channel=1 note=69 velocity=0 time=0.09596779791666665@note_on channel=8 note=31 velocity=0 time=0.09677424999999999@note_on channel=9 note=42 velocity=0 time=0@note_on channel=9 note=36 velocity=0 time=0@note_on channel=9 note=51 velocity=0 time=0@note_on channel=1 note=67 velocity=112 time=0.0008064520833333332@note_on channel=8 note=31 velocity=96 time=0@note_on channel=9 note=42 velocity=80 time=0@note_on channel=9 note=36 velocity=80 time=0@note_on channel=9 note=51 velocity=80 time=0@note_on channel=1 note=67 velocity=0 time=0.09596779791666665@note_on channel=9 note=42 velocity=0 time=0.09677424999999999@note_on channel=9 note=36 velocity=0 time=0@note_on channel=1 note=66 velocity=112 time=0.0008064520833333332@note_on channel=9 note=42 velocity=80 time=0@note_on channel=9 note=38 velocity=80 time=0@note_on channel=1 note=66 velocity=0 time=0.09596779791666665@note_on channel=8 note=31 velocity=0 time=0.09677424999999999@note_on channel=9 note=42 velocity=0 time=0@note_on channel=9 note=51 velocity=0 time=0@note_on channel=1 note=67 velocity=112 time=0.0008064520833333332@note_on channel=8 note=31 velocity=96 time=0@note_on channel=9 note=42 velocity=80 time=0@note_on channel=9 note=51 velocity=80 time=0@note_on channel=1 note=67 velocity=0 time=0.09596779791666665@note_on channel=9 note=42 velocity=0 time=0@note_on channel=9 note=42 velocity=80 time=0.0008064520833333332@note_on channel=0 note=70 velocity=0 time=0.018548397916666664@note_on channel=4 note=55 velocity=0 time=0.07741939999999999@note_on channel=5 note=58 velocity=0 time=0@note_on channel=7 note=43 velocity=0 time=0@note_on channel=9 note=38 velocity=0 time=0@note_on channel=9 note=42 velocity=0 time=0@note_on channel=9 note=51 velocity=0 time=0@note_on channel=11 note=94 velocity=0 time=0@note_on channel=0 note=60 velocity=112 time=0.0008064520833333332@note_on channel=1 note=69 velocity=112 time=0@note_on channel=4 note=55 velocity=64 time=0@note_on channel=5 note=60 velocity=80 time=0@note_on channel=7 note=43 velocity=80 time=0@note_on channel=9 note=42 velocity=80 time=0@note_on channel=9 note=36 velocity=80 time=0@note_on channel=9 note=51 velocity=80 time=0@note_on channel=11 note=96 velocity=112 time=0@note_on channel=1 note=69 velocity=0 time=0.09596779791666665@note_on channel=8 note=31 velocity=0 time=0.09677424999999999@note_on channel=9 note=51 velocity=0 time=0@note_on channel=1 note=70 velocity=112 time=0.0008064520833333332@note_on channel=8 note=31 velocity=96 time=0@note_on channel=9 note=51 velocity=80 time=0@note_on channel=1 note=70 velocity=0 time=0.09596779791666665@note_on channel=9 note=42 velocity=0 time=0.09677424999999999@note_on channel=9 note=36 velocity=0 time=0@note_on channel=1 note=69 velocity=112 time=0.0008064520833333332@note_on channel=9 note=38 velocity=80 time=0@note_on channel=9 note=42 velocity=80 time=0@note_on channel=1 note=69 velocity=0 time=0.09596779791666665@note_on channel=8 note=31 velocity=0 time=0.09677424999999999@note_on channel=9 note=38 velocity=0 time=0@note_on channel=9 note=42 velocity=0 time=0@note_on channel=9 note=51 velocity=0 time=0@note_on channel=1 note=67 velocity=112 time=0.0008064520833333332@note_on channel=8 note=31 velocity=96 time=0@note_on channel=9 note=42 velocity=80 time=0@note_on channel=9 note=36 velocity=80 time=0@note_on channel=9 note=51 velocity=80 time=0@note_on channel=1 note=67 velocity=0 time=0.09596779791666665@note_on channel=9 note=42 velocity=0 time=0@note_on channel=9 note=36 velocity=0 time=0@note_on channel=9 note=42 velocity=80 time=0.0008064520833333332@note_on channel=9 note=36 velocity=80 time=0@note_on channel=9 note=42 velocity=0 time=0.09596779791666665@note_on channel=9 note=36 velocity=0 time=0@note_on channel=1 note=66 velocity=112 time=0.0008064520833333332@note_on channel=9 note=42 velocity=80 time=0@note_on channel=9 note=36 velocity=80 time=0@note_on channel=1 note=66 velocity=0 time=0.09596779791666665@note_on channel=8 note=31 velocity=0 time=0.09677424999999999@note_on channel=9 note=42 velocity=0 time=0@note_on channel=9 note=36 velocity=0 time=0@note_on channel=9 note=51 velocity=0 time=0@note_on channel=1 note=63 velocity=112 time=0.0008064520833333332@note_on channel=8 note=31 velocity=96 time=0@note_on channel=9 note=42 velocity=80 time=0@note_on channel=9 note=36 velocity=80 time=0@note_on channel=9 note=51 velocity=80 time=0@note_on channel=1 note=63 velocity=0 time=0.09596779791666665@note_on channel=9 note=42 velocity=0 time=0.09677424999999999@note_on channel=9 note=36 velocity=0 time=0@note_on channel=1 note=62 velocity=112 time=0.0008064520833333332@note_on channel=9 note=42 velocity=80 time=0@note_on channel=9 note=38 velocity=80 time=0@note_on channel=1 note=62 velocity=0 time=0.09596779791666665@note_on channel=8 note=31 velocity=0 time=0.09677424999999999@note_on channel=9 note=42 velocity=0 time=0@note_on channel=9 note=51 velocity=0 time=0@note_on channel=1 note=60 velocity=112 time=0.0008064520833333332@note_on channel=8 note=31 velocity=96 time=0@note_on channel=9 note=42 velocity=80 time=0@note_on channel=9 note=51 velocity=80 time=0@note_on channel=1 note=60 velocity=0 time=0.09596779791666665@note_on channel=9 note=42 velocity=0 time=0@note_on channel=9 note=42 velocity=80 time=0.0008064520833333332@note_on channel=0 note=60 velocity=0 time=0.018548397916666664@note_on channel=4 note=55 velocity=0 time=0.07741939999999999@note_on channel=5 note=60 velocity=0 time=0@note_on channel=7 note=43 velocity=0 time=0@note_on channel=9 note=38 velocity=0 time=0@note_on channel=9 note=42 velocity=0 time=0@note_on channel=9 note=51 velocity=0 time=0@note_on channel=11 note=96 velocity=0 time=0@note_on channel=0 note=62 velocity=112 time=0.0008064520833333332@note_on channel=1 note=62 velocity=112 time=0@note_on channel=4 note=55 velocity=64 time=0@note_on channel=5 note=62 velocity=80 time=0@note_on channel=7 note=43 velocity=80 time=0@note_on channel=9 note=42 velocity=80 time=0@note_on channel=9 note=36 velocity=80 time=0@note_on channel=9 note=51 velocity=80 time=0@note_on channel=11 note=98 velocity=112 time=0@note_on channel=1 note=62 velocity=0 time=0.09596779791666665@note_on channel=8 note=31 velocity=0 time=0.09677424999999999@note_on channel=9 note=51 velocity=0 time=0@note_on channel=1 note=74 velocity=112 time=0.0008064520833333332@note_on channel=8 note=31 velocity=96 time=0@note_on channel=9 note=51 velocity=80 time=0@note_on channel=1 note=74 velocity=0 time=0.09596779791666665@note_on channel=9 note=42 velocity=0 time=0.09677424999999999@note_on channel=9 note=36 velocity=0 time=0@note_on channel=1 note=72 velocity=112 time=0.0008064520833333332@note_on channel=9 note=38 velocity=80 time=0@note_on channel=9 note=42 velocity=80 time=0@note_on channel=1 note=72 velocity=0 time=0.09596779791666665@note_on channel=8 note=31 velocity=0 time=0.09677424999999999@note_on channel=9 note=38 velocity=0 time=0@note_on channel=9 note=42 velocity=0 time=0@note_on channel=9 note=51 velocity=0 time=0@note_on channel=1 note=75 velocity=112 time=0.0008064520833333332@note_on channel=8 note=31 velocity=96 time=0@note_on channel=9 note=42 velocity=80 time=0@note_on channel=9 note=36 velocity=80 time=0@note_on channel=9 note=51 velocity=80 time=0@note_on channel=1 note=75 velocity=0 time=0.09596779791666665@note_on channel=9 note=42 velocity=0 time=0@note_on channel=9 note=36 velocity=0 time=0@note_on channel=9 note=42 velocity=80 time=0.0008064520833333332@note_on channel=9 note=36 velocity=80 time=0@note_on channel=9 note=42 velocity=0 time=0.09596779791666665@note_on channel=9 note=36 velocity=0 time=0@note_on channel=1 note=74 velocity=112 time=0.0008064520833333332@note_on channel=9 note=42 velocity=80 time=0@note_on channel=9 note=36 velocity=80 time=0@note_on channel=1 note=74 velocity=0 time=0.09596779791666665@note_on channel=8 note=31 velocity=0 time=0.09677424999999999@note_on channel=9 note=42 velocity=0 time=0@note_on channel=9 note=36 velocity=0 time=0@note_on channel=9 note=51 velocity=0 time=0@note_on channel=1 note=72 velocity=112 time=0.0008064520833333332@note_on channel=8 note=31 velocity=96 time=0@note_on channel=9 note=42 velocity=80 time=0@note_on channel=9 note=36 velocity=80 time=0@note_on channel=9 note=51 velocity=80 time=0@note_on channel=1 note=72 velocity=0 time=0.09596779791666665@note_on channel=9 note=42 velocity=0 time=0.09677424999999999@note_on channel=9 note=36 velocity=0 time=0@note_on channel=1 note=70 velocity=112 time=0.0008064520833333332@note_on channel=9 note=42 velocity=80 time=0@note_on channel=9 note=38 velocity=80 time=0@note_on channel=1 note=70 velocity=0 time=0.09596779791666665@note_on channel=8 note=31 velocity=0 time=0.09677424999999999@note_on channel=9 note=42 velocity=0 time=0@note_on channel=9 note=51 velocity=0 time=0@note_on channel=1 note=74 velocity=112 time=0.0008064520833333332@note_on channel=8 note=31 velocity=96 time=0@note_on channel=9 note=42 velocity=80 time=0@note_on channel=9 note=51 velocity=80 time=0@note_on channel=1 note=74 velocity=0 time=0.09596779791666665@note_on channel=9 note=42 velocity=0 time=0@note_on channel=9 note=42 velocity=80 time=0.0008064520833333332@note_on channel=0 note=62 velocity=0 time=0.018548397916666664@note_on channel=4 note=55 velocity=0 time=0.07741939999999999@note_on channel=5 note=62 velocity=0 time=0@note_on channel=7 note=43 velocity=0 time=0@note_on channel=9 note=38 velocity=0 time=0@note_on channel=9 note=42 velocity=0 time=0@note_on channel=9 note=51 velocity=0 time=0@note_on channel=11 note=98 velocity=0 time=0@note_on channel=0 note=66 velocity=112 time=0.0008064520833333332@note_on channel=1 note=72 velocity=112 time=0@note_on channel=4 note=55 velocity=64 time=0@note_on channel=5 note=66 velocity=80 time=0@note_on channel=7 note=43 velocity=80 time=0@note_on channel=9 note=42 velocity=80 time=0@note_on channel=9 note=36 velocity=80 time=0@note_on channel=9 note=51 velocity=80 time=0@note_on channel=11 note=102 velocity=112 time=0@note_on channel=1 note=72 velocity=0 time=0.09596779791666665@note_on channel=8 note=31 velocity=0 time=0.09677424999999999@note_on channel=9 note=51 velocity=0 time=0@note_on channel=1 note=70 velocity=112 time=0.0008064520833333332@note_on channel=8 note=31 velocity=96 time=0@note_on channel=9 note=51 velocity=80 time=0@note_on channel=1 note=70 velocity=0 time=0.09596779791666665@note_on channel=9 note=42 velocity=0 time=0.09677424999999999@note_on channel=9 note=36 velocity=0 time=0@note_on channel=1 note=69 velocity=112 time=0.0008064520833333332@note_on channel=9 note=38 velocity=80 time=0@note_on channel=9 note=42 velocity=80 time=0@note_on channel=1 note=69 velocity=0 time=0.09596779791666665@note_on channel=8 note=31 velocity=0 time=0.09677424999999999@note_on channel=9 note=38 velocity=0 time=0@note_on channel=9 note=42 velocity=0 time=0@note_on channel=9 note=51 velocity=0 time=0@note_on channel=1 note=62 velocity=112 time=0.0008064520833333332@note_on channel=8 note=31 velocity=96 time=0@note_on channel=9 note=42 velocity=80 time=0@note_on channel=9 note=36 velocity=80 time=0@note_on channel=9 note=51 velocity=80 time=0@note_on channel=1 note=62 velocity=0 time=0.09596779791666665@note_on channel=9 note=42 velocity=0 time=0@note_on channel=9 note=36 velocity=0 time=0@note_on channel=9 note=42 velocity=80 time=0.0008064520833333332@note_on channel=9 note=36 velocity=80 time=0@note_on channel=9 note=42 velocity=0 time=0.09596779791666665@note_on channel=9 note=36 velocity=0 time=0@note_on channel=1 note=72 velocity=112 time=0.0008064520833333332@note_on channel=9 note=42 velocity=80 time=0@note_on channel=9 note=36 velocity=80 time=0@note_on channel=1 note=72 velocity=0 time=0.09596779791666665@note_on channel=8 note=31 velocity=0 time=0.09677424999999999@note_on channel=9 note=42 velocity=0 time=0@note_on channel=9 note=36 velocity=0 time=0@note_on channel=9 note=51 velocity=0 time=0@note_on channel=1 note=70 velocity=112 time=0.0008064520833333332@note_on channel=8 note=31 velocity=96 time=0@note_on channel=9 note=42 velocity=80 time=0@note_on channel=9 note=36 velocity=80 time=0@note_on channel=9 note=51 velocity=80 time=0@note_on channel=1 note=70 velocity=0 time=0.09596779791666665@note_on channel=9 note=42 velocity=0 time=0.09677424999999999@note_on channel=9 note=36 velocity=0 time=0@note_on channel=1 note=69 velocity=112 time=0.0008064520833333332@note_on channel=9 note=42 velocity=80 time=0@note_on channel=9 note=38 velocity=80 time=0@note_on channel=1 note=69 velocity=0 time=0.09596779791666665@note_on channel=8 note=31 velocity=0 time=0.09677424999999999@note_on channel=9 note=42 velocity=0 time=0@note_on channel=9 note=51 velocity=0 time=0@note_on channel=1 note=67 velocity=112 time=0.0008064520833333332@note_on channel=8 note=31 velocity=96 time=0@note_on channel=9 note=42 velocity=80 time=0@note_on channel=9 note=51 velocity=80 time=0@note_on channel=9 note=42 velocity=0 time=0.09596779791666665@note_on channel=9 note=42 velocity=80 time=0.0008064520833333332@note_on channel=0 note=66 velocity=0 time=0.018548397916666664@note_on channel=1 note=67 velocity=0 time=0.07741939999999999@note_on channel=4 note=55 velocity=0 time=0@note_on channel=5 note=66 velocity=0 time=0@note_on channel=7 note=43 velocity=0 time=0@note_on channel=8 note=31 velocity=0 time=0@note_on channel=9 note=38 velocity=0 time=0@note_on channel=9 note=42 velocity=0 time=0@note_on channel=9 note=51 velocity=0 time=0@note_on channel=11 note=102 velocity=0 time=0@note_on channel=2 note=70 velocity=96 time=0.0008064520833333332@note_on channel=3 note=63 velocity=80 time=0@note_on channel=4 note=63 velocity=64 time=0@note_on channel=4 note=67 velocity=64 time=0@note_on channel=5 note=70 velocity=80 time=0@note_on channel=5 note=75 velocity=80 time=0@note_on channel=7 note=39 velocity=80 time=0@note_on channel=8 note=51 velocity=96 time=0@note_on channel=9 note=42 velocity=80 time=0@note_on channel=9 note=36 velocity=80 time=0@note_on channel=9 note=49 velocity=80 time=0@note_on channel=11 note=87 velocity=112 time=0@note_on channel=11 note=91 velocity=112 time=0@note_on channel=11 note=94 velocity=112 time=0@note_on channel=11 note=99 velocity=112 time=0@note_on channel=8 note=51 velocity=0 time=0.19274204791666663@note_on channel=8 note=51 velocity=96 time=0.0008064520833333332@note_on channel=2 note=70 velocity=0 time=0.19274204791666663@note_on channel=3 note=63 velocity=0 time=0@note_on channel=4 note=63 velocity=0 time=0@note_on channel=4 note=67 velocity=0 time=0@note_on channel=5 note=70 velocity=0 time=0@note_on channel=5 note=75 velocity=0 time=0@note_on channel=9 note=42 velocity=0 time=0@note_on channel=9 note=36 velocity=0 time=0@note_on channel=9 note=49 velocity=0 time=0@note_on channel=11 note=87 velocity=0 time=0@note_on channel=11 note=91 velocity=0 time=0@note_on channel=11 note=94 velocity=0 time=0@note_on channel=11 note=99 velocity=0 time=0@note_on channel=0 note=63 velocity=112 time=0.0008064520833333332@note_on channel=1 note=51 velocity=112 time=0@note_on channel=9 note=38 velocity=80 time=0@note_on channel=9 note=42 velocity=80 time=0@note_on channel=0 note=63 velocity=0 time=0.09112908541666666@note_on channel=1 note=51 velocity=0 time=0.004838712499999999@note_on channel=0 note=67 velocity=112 time=0.0008064520833333332@note_on channel=1 note=55 velocity=112 time=0@note_on channel=0 note=67 velocity=0 time=0.09112908541666666@note_on channel=1 note=55 velocity=0 time=0.004838712499999999@note_on channel=8 note=51 velocity=0 time=0@note_on channel=9 note=38 velocity=0 time=0@note_on channel=9 note=42 velocity=0 time=0@note_on channel=0 note=70 velocity=112 time=0.0008064520833333332@note_on channel=1 note=58 velocity=112 time=0@note_on channel=8 note=51 velocity=96 time=0@note_on channel=9 note=42 velocity=80 time=0@note_on channel=9 note=36 velocity=80 time=0@note_on channel=0 note=70 velocity=0 time=0.09112908541666666@note_on channel=1 note=58 velocity=0 time=0.004838712499999999@note_on channel=9 note=42 velocity=0 time=0@note_on channel=9 note=36 velocity=0 time=0@note_on channel=0 note=75 velocity=112 time=0.0008064520833333332@note_on channel=1 note=63 velocity=112 time=0@note_on channel=9 note=42 velocity=80 time=0@note_on channel=9 note=36 velocity=80 time=0@note_on channel=0 note=75 velocity=0 time=0.09112908541666666@note_on channel=1 note=63 velocity=0 time=0.004838712499999999@note_on channel=7 note=39 velocity=0 time=0@note_on channel=8 note=51 velocity=0 time=0@note_on channel=9 note=42 velocity=0 time=0@note_on channel=9 note=36 velocity=0 time=0@note_on channel=2 note=69 velocity=96 time=0.0008064520833333332@note_on channel=3 note=62 velocity=80 time=0@note_on channel=4 note=62 velocity=64 time=0@note_on channel=4 note=67 velocity=64 time=0@note_on channel=5 note=69 velocity=80 time=0@note_on channel=5 note=74 velocity=80 time=0@note_on channel=7 note=38 velocity=80 time=0@note_on channel=8 note=50 velocity=96 time=0@note_on channel=9 note=42 velocity=80 time=0@note_on channel=9 note=36 velocity=80 time=0@note_on channel=9 note=49 velocity=80 time=0@note_on channel=11 note=86 velocity=112 time=0@note_on channel=11 note=91 velocity=112 time=0@note_on channel=11 note=93 velocity=112 time=0@note_on channel=11 note=98 velocity=112 time=0@note_on channel=8 note=50 velocity=0 time=0.19274204791666663@note_on channel=9 note=42 velocity=0 time=0@note_on channel=9 note=36 velocity=0 time=0@note_on channel=8 note=50 velocity=96 time=0.0008064520833333332@note_on channel=9 note=42 velocity=80 time=0@note_on channel=9 note=36 velocity=80 time=0@note_on channel=2 note=69 velocity=0 time=0.19274204791666663@note_on channel=3 note=62 velocity=0 time=0@note_on channel=4 note=62 velocity=0 time=0@note_on channel=4 note=67 velocity=0 time=0@note_on channel=5 note=69 velocity=0 time=0@note_on channel=5 note=74 velocity=0 time=0@note_on channel=9 note=42 velocity=0 time=0@note_on channel=9 note=36 velocity=0 time=0@note_on channel=9 note=49 velocity=0 time=0@note_on channel=11 note=86 velocity=0 time=0@note_on channel=11 note=91 velocity=0 time=0@note_on channel=11 note=93 velocity=0 time=0@note_on channel=11 note=98 velocity=0 time=0@note_on channel=0 note=62 velocity=112 time=0.0008064520833333332@note_on channel=1 note=50 velocity=112 time=0@note_on channel=9 note=42 velocity=80 time=0@note_on channel=9 note=38 velocity=80 time=0@note_on channel=0 note=62 velocity=0 time=0.09112908541666666@note_on channel=1 note=50 velocity=0 time=0.004838712499999999@note_on channel=0 note=67 velocity=112 time=0.0008064520833333332@note_on channel=1 note=55 velocity=112 time=0@note_on channel=0 note=67 velocity=0 time=0.09112908541666666@note_on channel=1 note=55 velocity=0 time=0.004838712499999999@note_on channel=8 note=50 velocity=0 time=0@note_on channel=9 note=42 velocity=0 time=0@note_on channel=0 note=70 velocity=112 time=0.0008064520833333332@note_on channel=1 note=58 velocity=112 time=0@note_on channel=8 note=50 velocity=96 time=0@note_on channel=9 note=42 velocity=80 time=0@note_on channel=0 note=70 velocity=0 time=0.09112908541666666@note_on channel=1 note=58 velocity=0 time=0.004838712499999999@note_on channel=9 note=42 velocity=0 time=0@note_on channel=0 note=74 velocity=112 time=0.0008064520833333332@note_on channel=1 note=62 velocity=112 time=0@note_on channel=9 note=42 velocity=80 time=0@note_on channel=0 note=74 velocity=0 time=0.09112908541666666@note_on channel=1 note=62 velocity=0 time=0.004838712499999999@note_on channel=7 note=38 velocity=0 time=0@note_on channel=8 note=50 velocity=0 time=0@note_on channel=9 note=38 velocity=0 time=0@note_on channel=9 note=42 velocity=0 time=0@note_on channel=0 note=74 velocity=112 time=0.0008064520833333332@note_on channel=1 note=79 velocity=112 time=0@note_on channel=4 note=62 velocity=64 time=0@note_on channel=5 note=79 velocity=80 time=0@note_on channel=7 note=38 velocity=80 time=0@note_on channel=8 note=50 velocity=96 time=0@note_on channel=9 note=42 velocity=80 time=0@note_on channel=9 note=36 velocity=80 time=0@note_on channel=9 note=49 velocity=80 time=0@note_on channel=11 note=98 velocity=112 time=0@note_on channel=11 note=103 velocity=112 time=0@note_on channel=8 note=50 velocity=0 time=0.19274204791666663@note_on channel=8 note=50 velocity=96 time=0.0008064520833333332@note_on channel=0 note=74 velocity=0 time=0.17338719791666665@note_on channel=1 note=79 velocity=0 time=0.019354849999999996@note_on channel=4 note=62 velocity=0 time=0@note_on channel=5 note=79 velocity=0 time=0@note_on channel=9 note=42 velocity=0 time=0@note_on channel=9 note=36 velocity=0 time=0@note_on channel=9 note=49 velocity=0 time=0@note_on channel=11 note=98 velocity=0 time=0@note_on channel=11 note=103 velocity=0 time=0@note_on channel=0 note=69 velocity=112 time=0.0008064520833333332@note_on channel=1 note=74 velocity=112 time=0@note_on channel=4 note=57 velocity=64 time=0@note_on channel=5 note=74 velocity=80 time=0@note_on channel=9 note=38 velocity=80 time=0@note_on channel=9 note=42 velocity=80 time=0@note_on channel=9 note=49 velocity=80 time=0@note_on channel=11 note=93 velocity=112 time=0@note_on channel=11 note=98 velocity=112 time=0@note_on channel=8 note=50 velocity=0 time=0.19274204791666663@note_on channel=9 note=38 velocity=0 time=0@note_on channel=9 note=42 velocity=0 time=0@note_on channel=8 note=50 velocity=96 time=0.0008064520833333332@note_on channel=9 note=42 velocity=80 time=0@note_on channel=9 note=36 velocity=80 time=0@note_on channel=9 note=42 velocity=0 time=0.09596779791666665@note_on channel=9 note=36 velocity=0 time=0@note_on channel=9 note=42 velocity=80 time=0.0008064520833333332@note_on channel=9 note=36 velocity=80 time=0@note_on channel=0 note=69 velocity=0 time=0.07661294791666666@note_on channel=1 note=74 velocity=0 time=0.019354849999999996@note_on channel=4 note=57 velocity=0 time=0@note_on channel=5 note=74 velocity=0 time=0@note_on channel=7 note=38 velocity=0 time=0@note_on channel=8 note=50 velocity=0 time=0@note_on channel=9 note=42 velocity=0 time=0@note_on channel=9 note=36 velocity=0 time=0@note_on channel=9 note=49 velocity=0 time=0@note_on channel=11 note=93 velocity=0 time=0@note_on channel=11 note=98 velocity=0 time=0@note_on channel=0 note=72 velocity=112 time=0.0008064520833333332@note_on channel=1 note=75 velocity=112 time=0@note_on channel=4 note=60 velocity=64 time=0@note_on channel=5 note=75 velocity=80 time=0@note_on channel=7 note=36 velocity=80 time=0@note_on channel=8 note=48 velocity=96 time=0@note_on channel=9 note=42 velocity=80 time=0@note_on channel=9 note=36 velocity=80 time=0@note_on channel=9 note=49 velocity=80 time=0@note_on channel=11 note=96 velocity=112 time=0@note_on channel=11 note=99 velocity=112 time=0@note_on channel=8 note=48 velocity=0 time=0.19274204791666663@note_on channel=9 note=42 velocity=0 time=0@note_on channel=9 note=36 velocity=0 time=0@note_on channel=8 note=48 velocity=96 time=0.0008064520833333332@note_on channel=9 note=42 velocity=80 time=0@note_on channel=9 note=36 velocity=80 time=0@note_on channel=0 note=72 velocity=0 time=0.17338719791666665@note_on channel=1 note=75 velocity=0 time=0.019354849999999996@note_on channel=4 note=60 velocity=0 time=0@note_on channel=5 note=75 velocity=0 time=0@note_on channel=9 note=42 velocity=0 time=0@note_on channel=9 note=36 velocity=0 time=0@note_on channel=9 note=49 velocity=0 time=0@note_on channel=11 note=96 velocity=0 time=0@note_on channel=11 note=99 velocity=0 time=0@note_on channel=0 note=69 velocity=112 time=0.0008064520833333332@note_on channel=1 note=72 velocity=112 time=0@note_on channel=4 note=57 velocity=64 time=0@note_on channel=5 note=72 velocity=80 time=0@note_on channel=9 note=42 velocity=80 time=0@note_on channel=9 note=38 velocity=80 time=0@note_on channel=9 note=49 velocity=80 time=0@note_on channel=11 note=93 velocity=112 time=0@note_on channel=11 note=96 velocity=112 time=0@note_on channel=8 note=48 velocity=0 time=0.19274204791666663@note_on channel=9 note=42 velocity=0 time=0@note_on channel=8 note=48 velocity=96 time=0.0008064520833333332@note_on channel=9 note=42 velocity=80 time=0@note_on channel=9 note=42 velocity=0 time=0.09596779791666665@note_on channel=9 note=42 velocity=80 time=0.0008064520833333332@note_on channel=0 note=69 velocity=0 time=0.07661294791666666@note_on channel=1 note=72 velocity=0 time=0.019354849999999996@note_on channel=4 note=57 velocity=0 time=0@note_on channel=5 note=72 velocity=0 time=0@note_on channel=7 note=36 velocity=0 time=0@note_on channel=8 note=48 velocity=0 time=0@note_on channel=9 note=38 velocity=0 time=0@note_on channel=9 note=42 velocity=0 time=0@note_on channel=9 note=49 velocity=0 time=0@note_on channel=11 note=93 velocity=0 time=0@note_on channel=11 note=96 velocity=0 time=0@note_on channel=0 note=74 velocity=112 time=0.0008064520833333332@note_on channel=1 note=74 velocity=112 time=0@note_on channel=2 note=69 velocity=96 time=0@note_on channel=4 note=55 velocity=64 time=0@note_on channel=5 note=74 velocity=80 time=0@note_on channel=7 note=50 velocity=80 time=0@note_on channel=8 note=38 velocity=96 time=0@note_on channel=9 note=42 velocity=80 time=0@note_on channel=9 note=36 velocity=80 time=0@note_on channel=9 note=49 velocity=80 time=0@note_on channel=11 note=86 velocity=112 time=0@note_on channel=11 note=91 velocity=112 time=0@note_on channel=11 note=93 velocity=112 time=0@note_on channel=11 note=98 velocity=112 time=0@note_on channel=9 note=42 velocity=0 time=0.3862905479166666@note_on channel=9 note=36 velocity=0 time=0@note_on channel=9 note=38 velocity=80 time=0.0008064520833333332@note_on channel=9 note=42 velocity=80 time=0@note_on channel=9 note=38 velocity=0 time=0.19274204791666663@note_on channel=9 note=42 velocity=0 time=0@note_on channel=9 note=42 velocity=80 time=0.0008064520833333332@note_on channel=9 note=36 velocity=80 time=0@note_on channel=9 note=42 velocity=0 time=0.09596779791666665@note_on channel=9 note=36 velocity=0 time=0@note_on channel=9 note=42 velocity=80 time=0.0008064520833333332@note_on channel=9 note=36 velocity=80 time=0@note_on channel=9 note=42 velocity=0 time=0.09596779791666665@note_on channel=9 note=36 velocity=0 time=0@note_on channel=9 note=49 velocity=0 time=0@note_on channel=9 note=42 velocity=80 time=0.0008064520833333332@note_on channel=9 note=36 velocity=80 time=0@note_on channel=9 note=42 velocity=0 time=0.19274204791666663@note_on channel=9 note=36 velocity=0 time=0@note_on channel=9 note=42 velocity=80 time=0.0008064520833333332@note_on channel=9 note=36 velocity=80 time=0@note_on channel=9 note=42 velocity=0 time=0.19274204791666663@note_on channel=9 note=36 velocity=0 time=0@note_on channel=9 note=42 velocity=80 time=0.0008064520833333332@note_on channel=9 note=38 velocity=80 time=0@note_on channel=9 note=42 velocity=0 time=0.19274204791666663@note_on channel=9 note=42 velocity=80 time=0.0008064520833333332@note_on channel=9 note=42 velocity=0 time=0.09596779791666665@note_on channel=9 note=42 velocity=80 time=0.0008064520833333332@note_on channel=0 note=74 velocity=0 time=0.018548397916666664@note_on channel=1 note=74 velocity=0 time=0.07741939999999999@note_on channel=2 note=69 velocity=0 time=0@note_on channel=4 note=55 velocity=0 time=0@note_on channel=5 note=74 velocity=0 time=0@note_on channel=7 note=50 velocity=0 time=0@note_on channel=8 note=38 velocity=0 time=0@note_on channel=9 note=38 velocity=0 time=0@note_on channel=9 note=42 velocity=0 time=0@note_on channel=11 note=86 velocity=0 time=0@note_on channel=11 note=91 velocity=0 time=0@note_on channel=11 note=93 velocity=0 time=0@note_on channel=11 note=98 velocity=0 time=0@note_on channel=0 note=74 velocity=112 time=0.0008064520833333332@note_on channel=1 note=74 velocity=112 time=0@note_on channel=2 note=69 velocity=96 time=0@note_on channel=4 note=54 velocity=64 time=0@note_on channel=5 note=74 velocity=80 time=0@note_on channel=7 note=50 velocity=80 time=0@note_on channel=8 note=38 velocity=96 time=0@note_on channel=9 note=42 velocity=80 time=0@note_on channel=9 note=36 velocity=80 time=0@note_on channel=9 note=49 velocity=80 time=0@note_on channel=11 note=86 velocity=112 time=0@note_on channel=11 note=90 velocity=112 time=0@note_on channel=11 note=93 velocity=112 time=0@note_on channel=11 note=98 velocity=112 time=0@note_on channel=9 note=42 velocity=0 time=0.3862905479166666@note_on channel=9 note=36 velocity=0 time=0@note_on channel=9 note=38 velocity=80 time=0.0008064520833333332@note_on channel=9 note=42 velocity=80 time=0@note_on channel=9 note=38 velocity=0 time=0.19274204791666663@note_on channel=9 note=42 velocity=0 time=0@note_on channel=9 note=42 velocity=80 time=0.0008064520833333332@note_on channel=9 note=36 velocity=80 time=0@note_on channel=9 note=42 velocity=0 time=0.09596779791666665@note_on channel=9 note=36 velocity=0 time=0@note_on channel=9 note=42 velocity=80 time=0.0008064520833333332@note_on channel=9 note=36 velocity=80 time=0@note_on channel=9 note=42 velocity=0 time=0.09596779791666665@note_on channel=9 note=36 velocity=0 time=0@note_on channel=9 note=49 velocity=0 time=0@note_on channel=9 note=42 velocity=80 time=0.0008064520833333332@note_on channel=9 note=36 velocity=80 time=0@note_on channel=9 note=42 velocity=0 time=0.19274204791666663@note_on channel=9 note=36 velocity=0 time=0@note_on channel=9 note=42 velocity=80 time=0.0008064520833333332@note_on channel=9 note=36 velocity=80 time=0@note_on channel=9 note=42 velocity=0 time=0.19274204791666663@note_on channel=9 note=36 velocity=0 time=0@note_on channel=9 note=42 velocity=80 time=0.0008064520833333332@note_on channel=9 note=38 velocity=80 time=0@note_on channel=9 note=42 velocity=0 time=0.19274204791666663@note_on channel=9 note=42 velocity=80 time=0.0008064520833333332@note_on channel=9 note=42 velocity=0 time=0.09596779791666665@note_on channel=9 note=42 velocity=80 time=0.0008064520833333332@note_on channel=0 note=74 velocity=0 time=0.018548397916666664@note_on channel=1 note=74 velocity=0 time=0.07741939999999999@note_on channel=2 note=69 velocity=0 time=0@note_on channel=4 note=54 velocity=0 time=0@note_on channel=5 note=74 velocity=0 time=0@note_on channel=7 note=50 velocity=0 time=0@note_on channel=8 note=38 velocity=0 time=0@note_on channel=9 note=38 velocity=0 time=0@note_on channel=9 note=42 velocity=0 time=0@note_on channel=11 note=86 velocity=0 time=0@note_on channel=11 note=90 velocity=0 time=0@note_on channel=11 note=93 velocity=0 time=0@note_on channel=11 note=98 velocity=0 time=0@note_on channel=1 note=67 velocity=80 time=0.0008064520833333332@note_on channel=2 note=67 velocity=96 time=0@note_on channel=4 note=55 velocity=80 time=0@note_on channel=5 note=67 velocity=96 time=0@note_on channel=7 note=55 velocity=64 time=0@note_on channel=8 note=43 velocity=96 time=0@note_on channel=9 note=57 velocity=112 time=0@note_on channel=9 note=36 velocity=112 time=0@note_on channel=11 note=91 velocity=96 time=0@note_on channel=4 note=55 velocity=0 time=0.09596779791666665@note_on channel=4 note=55 velocity=80 time=0.0008064520833333332@note_on channel=2 note=67 velocity=0 time=0.09596779791666665@note_on channel=4 note=55 velocity=0 time=0@note_on channel=5 note=67 velocity=0 time=0@note_on channel=11 note=91 velocity=0 time=0@note_on channel=2 note=69 velocity=96 time=0.0008064520833333332@note_on channel=4 note=55 velocity=80 time=0@note_on channel=5 note=69 velocity=96 time=0@note_on channel=11 note=93 velocity=96 time=0@note_on channel=1 note=67 velocity=0 time=0.19274204791666663@note_on channel=2 note=69 velocity=0 time=0@note_on channel=4 note=55 velocity=0 time=0@note_on channel=5 note=69 velocity=0 time=0@note_on channel=7 note=55 velocity=0 time=0@note_on channel=9 note=57 velocity=0 time=0@note_on channel=9 note=36 velocity=0 time=0@note_on channel=11 note=93 velocity=0 time=0@note_on channel=1 note=67 velocity=80 time=0.0008064520833333332@note_on channel=2 note=70 velocity=96 time=0@note_on channel=4 note=55 velocity=80 time=0@note_on channel=5 note=70 velocity=96 time=0@note_on channel=7 note=55 velocity=64 time=0@note_on channel=9 note=36 velocity=112 time=0@note_on channel=11 note=94 velocity=96 time=0@note_on channel=2 note=70 velocity=0 time=0.19274204791666663@note_on channel=4 note=55 velocity=0 time=0@note_on channel=5 note=70 velocity=0 time=0@note_on channel=11 note=94 velocity=0 time=0@note_on channel=2 note=67 velocity=96 time=0.0008064520833333332@note_on channel=4 note=55 velocity=80 time=0@note_on channel=5 note=67 velocity=96 time=0@note_on channel=11 note=91 velocity=96 time=0@note_on channel=1 note=67 velocity=0 time=0.19274204791666663@note_on channel=2 note=67 velocity=0 time=0@note_on channel=4 note=55 velocity=0 time=0@note_on channel=5 note=67 velocity=0 time=0@note_on channel=7 note=55 velocity=0 time=0@note_on channel=9 note=36 velocity=0 time=0@note_on channel=11 note=91 velocity=0 time=0@note_on channel=1 note=67 velocity=80 time=0.0008064520833333332@note_on channel=2 note=74 velocity=96 time=0@note_on channel=4 note=55 velocity=80 time=0@note_on channel=5 note=74 velocity=96 time=0@note_on channel=7 note=55 velocity=64 time=0@note_on channel=9 note=40 velocity=112 time=0@note_on channel=11 note=98 velocity=96 time=0@note_on channel=1 note=67 velocity=0 time=0.19274204791666663@note_on channel=7 note=55 velocity=0 time=0@note_on channel=9 note=40 velocity=0 time=0@note_on channel=1 note=67 velocity=80 time=0.0008064520833333332@note_on channel=7 note=55 velocity=64 time=0@note_on channel=9 note=36 velocity=112 time=0@note_on channel=1 note=67 velocity=0 time=0.19274204791666663@note_on channel=7 note=55 velocity=0 time=0@note_on channel=9 note=36 velocity=0 time=0@note_on channel=1 note=67 velocity=80 time=0.0008064520833333332@note_on channel=7 note=55 velocity=64 time=0@note_on channel=9 note=36 velocity=112 time=0@note_on channel=1 note=67 velocity=0 time=0.3862905479166666@note_on channel=4 note=55 velocity=0 time=0@note_on channel=7 note=55 velocity=0 time=0@note_on channel=8 note=43 velocity=0 time=0@note_on channel=9 note=36 velocity=0 time=0@note_on channel=1 note=67 velocity=80 time=0.0008064520833333332@note_on channel=4 note=55 velocity=80 time=0@note_on channel=7 note=55 velocity=64 time=0@note_on channel=8 note=43 velocity=96 time=0@note_on channel=9 note=36 velocity=112 time=0@note_on channel=4 note=55 velocity=0 time=0.09596779791666665@note_on channel=4 note=55 velocity=80 time=0.0008064520833333332@note_on channel=4 note=55 velocity=0 time=0.09596779791666665@note_on channel=4 note=55 velocity=80 time=0.0008064520833333332@note_on channel=1 note=67 velocity=0 time=0.19274204791666663@note_on channel=4 note=55 velocity=0 time=0@note_on channel=7 note=55 velocity=0 time=0@note_on channel=8 note=43 velocity=0 time=0@note_on channel=9 note=36 velocity=0 time=0@note_on channel=1 note=67 velocity=80 time=0.0008064520833333332@note_on channel=4 note=55 velocity=80 time=0@note_on channel=7 note=55 velocity=64 time=0@note_on channel=8 note=43 velocity=96 time=0@note_on channel=9 note=36 velocity=112 time=0@note_on channel=4 note=55 velocity=0 time=0.19274204791666663@note_on channel=4 note=55 velocity=80 time=0.0008064520833333332@note_on channel=1 note=67 velocity=0 time=0.19274204791666663@note_on channel=4 note=55 velocity=0 time=0@note_on channel=7 note=55 velocity=0 time=0@note_on channel=8 note=43 velocity=0 time=0@note_on channel=9 note=36 velocity=0 time=0@note_on channel=1 note=67 velocity=80 time=0.0008064520833333332@note_on channel=4 note=57 velocity=80 time=0@note_on channel=7 note=55 velocity=64 time=0@note_on channel=8 note=43 velocity=96 time=0@note_on channel=9 note=40 velocity=112 time=0@note_on channel=2 note=74 velocity=0 time=0.19274204791666663@note_on channel=4 note=57 velocity=0 time=0@note_on channel=5 note=74 velocity=0 time=0@note_on channel=8 note=43 velocity=0 time=0@note_on channel=9 note=40 velocity=0 time=0@note_on channel=11 note=98 velocity=0 time=0@note_on channel=2 note=67 velocity=96 time=0.0008064520833333332@note_on channel=4 note=58 velocity=80 time=0@note_on channel=5 note=67 velocity=96 time=0@note_on channel=8 note=43 velocity=96 time=0@note_on channel=9 note=36 velocity=112 time=0@note_on channel=11 note=91 velocity=96 time=0@note_on channel=1 note=67 velocity=0 time=0.19274204791666663@note_on channel=2 note=67 velocity=0 time=0@note_on channel=4 note=58 velocity=0 time=0@note_on channel=5 note=67 velocity=0 time=0@note_on channel=7 note=55 velocity=0 time=0@note_on channel=8 note=43 velocity=0 time=0@note_on channel=9 note=36 velocity=0 time=0@note_on channel=11 note=91 velocity=0 time=0@note_on channel=1 note=67 velocity=80 time=0.0008064520833333332@note_on channel=2 note=74 velocity=96 time=0@note_on channel=4 note=57 velocity=80 time=0@note_on channel=5 note=74 velocity=96 time=0@note_on channel=7 note=55 velocity=64 time=0@note_on channel=8 note=43 velocity=96 time=0@note_on channel=9 note=36 velocity=112 time=0@note_on channel=11 note=98 velocity=96 time=0@note_on channel=2 note=74 velocity=0 time=0.19274204791666663@note_on channel=5 note=74 velocity=0 time=0@note_on channel=11 note=98 velocity=0 time=0@note_on channel=2 note=67 velocity=96 time=0.0008064520833333332@note_on channel=5 note=67 velocity=96 time=0@note_on channel=11 note=91 velocity=96 time=0@note_on channel=1 note=67 velocity=0 time=0.19274204791666663@note_on channel=4 note=57 velocity=0 time=0@note_on channel=7 note=55 velocity=0 time=0@note_on channel=8 note=43 velocity=0 time=0@note_on channel=9 note=36 velocity=0 time=0@note_on channel=1 note=67 velocity=80 time=0.0008064520833333332@note_on channel=4 note=55 velocity=80 time=0@note_on channel=7 note=55 velocity=64 time=0@note_on channel=8 note=43 velocity=96 time=0@note_on channel=9 note=36 velocity=112 time=0@note_on channel=4 note=55 velocity=0 time=0.09596779791666665@note_on channel=4 note=55 velocity=80 time=0.0008064520833333332@note_on channel=2 note=67 velocity=0 time=0.09596779791666665@note_on channel=4 note=55 velocity=0 time=0@note_on channel=5 note=67 velocity=0 time=0@note_on channel=11 note=91 velocity=0 time=0@note_on channel=2 note=69 velocity=96 time=0.0008064520833333332@note_on channel=4 note=55 velocity=80 time=0@note_on channel=5 note=69 velocity=96 time=0@note_on channel=11 note=93 velocity=96 time=0@note_on channel=1 note=67 velocity=0 time=0.19274204791666663@note_on channel=2 note=69 velocity=0 time=0@note_on channel=4 note=55 velocity=0 time=0@note_on channel=5 note=69 velocity=0 time=0@note_on channel=7 note=55 velocity=0 time=0@note_on channel=9 note=36 velocity=0 time=0@note_on channel=11 note=93 velocity=0 time=0@note_on channel=1 note=67 velocity=80 time=0.0008064520833333332@note_on channel=2 note=70 velocity=96 time=0@note_on channel=4 note=55 velocity=80 time=0@note_on channel=5 note=70 velocity=96 time=0@note_on channel=7 note=55 velocity=64 time=0@note_on channel=9 note=36 velocity=112 time=0@note_on channel=11 note=94 velocity=96 time=0@note_on channel=2 note=70 velocity=0 time=0.19274204791666663@note_on channel=4 note=55 velocity=0 time=0@note_on channel=5 note=70 velocity=0 time=0@note_on channel=11 note=94 velocity=0 time=0@note_on channel=2 note=67 velocity=96 time=0.0008064520833333332@note_on channel=4 note=55 velocity=80 time=0@note_on channel=5 note=67 velocity=96 time=0@note_on channel=11 note=91 velocity=96 time=0@note_on channel=1 note=67 velocity=0 time=0.19274204791666663@note_on channel=2 note=67 velocity=0 time=0@note_on channel=4 note=55 velocity=0 time=0@note_on channel=5 note=67 velocity=0 time=0@note_on channel=7 note=55 velocity=0 time=0@note_on channel=9 note=36 velocity=0 time=0@note_on channel=11 note=91 velocity=0 time=0@note_on channel=1 note=67 velocity=80 time=0.0008064520833333332@note_on channel=2 note=74 velocity=96 time=0@note_on channel=4 note=55 velocity=80 time=0@note_on channel=5 note=74 velocity=96 time=0@note_on channel=7 note=55 velocity=64 time=0@note_on channel=9 note=40 velocity=112 time=0@note_on channel=11 note=98 velocity=96 time=0@note_on channel=1 note=67 velocity=0 time=0.19274204791666663@note_on channel=2 note=74 velocity=0 time=0@note_on channel=5 note=74 velocity=0 time=0@note_on channel=7 note=55 velocity=0 time=0@note_on channel=9 note=40 velocity=0 time=0@note_on channel=11 note=98 velocity=0 time=0@note_on channel=1 note=67 velocity=80 time=0.0008064520833333332@note_on channel=2 note=67 velocity=96 time=0@note_on channel=5 note=67 velocity=96 time=0@note_on channel=7 note=55 velocity=64 time=0@note_on channel=9 note=36 velocity=112 time=0@note_on channel=11 note=91 velocity=96 time=0@note_on channel=1 note=67 velocity=0 time=0.19274204791666663@note_on channel=2 note=67 velocity=0 time=0@note_on channel=5 note=67 velocity=0 time=0@note_on channel=7 note=55 velocity=0 time=0@note_on channel=9 note=36 velocity=0 time=0@note_on channel=11 note=91 velocity=0 time=0@note_on channel=1 note=67 velocity=80 time=0.0008064520833333332@note_on channel=2 note=72 velocity=96 time=0@note_on channel=5 note=72 velocity=96 time=0@note_on channel=7 note=55 velocity=64 time=0@note_on channel=9 note=36 velocity=112 time=0@note_on channel=11 note=96 velocity=96 time=0@note_on channel=1 note=67 velocity=0 time=0.19274204791666663@note_on channel=7 note=55 velocity=0 time=0@note_on channel=1 note=69 velocity=80 time=0.0008064520833333332@note_on channel=7 note=57 velocity=64 time=0@note_on channel=1 note=69 velocity=0 time=0.19274204791666663@note_on channel=2 note=72 velocity=0 time=0@note_on channel=4 note=55 velocity=0 time=0@note_on channel=5 note=72 velocity=0 time=0@note_on channel=7 note=57 velocity=0 time=0@note_on channel=8 note=43 velocity=0 time=0@note_on channel=9 note=36 velocity=0 time=0@note_on channel=11 note=96 velocity=0 time=0@note_on channel=1 note=70 velocity=80 time=0.0008064520833333332@note_on channel=2 note=69 velocity=96 time=0@note_on channel=4 note=50 velocity=80 time=0@note_on channel=5 note=69 velocity=96 time=0@note_on channel=7 note=58 velocity=64 time=0@note_on channel=8 note=38 velocity=96 time=0@note_on channel=9 note=36 velocity=112 time=0@note_on channel=11 note=93 velocity=96 time=0@note_on channel=4 note=50 velocity=0 time=0.09596779791666665@note_on channel=4 note=50 velocity=80 time=0.0008064520833333332@note_on channel=4 note=50 velocity=0 time=0.09596779791666665@note_on channel=4 note=50 velocity=80 time=0.0008064520833333332@note_on channel=1 note=70 velocity=0 time=0.19274204791666663@note_on channel=4 note=50 velocity=0 time=0@note_on channel=7 note=58 velocity=0 time=0@note_on channel=8 note=38 velocity=0 time=0@note_on channel=9 note=36 velocity=0 time=0@note_on channel=1 note=70 velocity=80 time=0.0008064520833333332@note_on channel=4 note=50 velocity=80 time=0@note_on channel=7 note=58 velocity=64 time=0@note_on channel=8 note=38 velocity=96 time=0@note_on channel=9 note=36 velocity=112 time=0@note_on channel=4 note=50 velocity=0 time=0.19274204791666663@note_on channel=4 note=50 velocity=80 time=0.0008064520833333332@note_on channel=1 note=70 velocity=0 time=0.19274204791666663@note_on channel=4 note=50 velocity=0 time=0@note_on channel=7 note=58 velocity=0 time=0@note_on channel=8 note=38 velocity=0 time=0@note_on channel=9 note=36 velocity=0 time=0@note_on channel=1 note=69 velocity=80 time=0.0008064520833333332@note_on channel=4 note=50 velocity=80 time=0@note_on channel=7 note=57 velocity=64 time=0@note_on channel=8 note=38 velocity=96 time=0@note_on channel=9 note=40 velocity=112 time=0@note_on channel=1 note=69 velocity=0 time=0.19274204791666663@note_on channel=2 note=69 velocity=0 time=0@note_on channel=4 note=50 velocity=0 time=0@note_on channel=5 note=69 velocity=0 time=0@note_on channel=7 note=57 velocity=0 time=0@note_on channel=8 note=38 velocity=0 time=0@note_on channel=9 note=40 velocity=0 time=0@note_on channel=11 note=93 velocity=0 time=0@note_on channel=1 note=67 velocity=80 time=0.0008064520833333332@note_on channel=2 note=67 velocity=96 time=0@note_on channel=4 note=52 velocity=80 time=0@note_on channel=5 note=67 velocity=96 time=0@note_on channel=7 note=55 velocity=64 time=0@note_on channel=8 note=40 velocity=96 time=0@note_on channel=9 note=36 velocity=112 time=0@note_on channel=11 note=91 velocity=96 time=0@note_on channel=1 note=67 velocity=0 time=0.19274204791666663@note_on channel=2 note=67 velocity=0 time=0@note_on channel=4 note=52 velocity=0 time=0@note_on channel=5 note=67 velocity=0 time=0@note_on channel=7 note=55 velocity=0 time=0@note_on channel=8 note=40 velocity=0 time=0@note_on channel=9 note=36 velocity=0 time=0@note_on channel=11 note=91 velocity=0 time=0@note_on channel=1 note=66 velocity=80 time=0.0008064520833333332@note_on channel=2 note=66 velocity=96 time=0@note_on channel=4 note=54 velocity=80 time=0@note_on channel=5 note=66 velocity=96 time=0@note_on channel=7 note=54 velocity=64 time=0@note_on channel=8 note=42 velocity=96 time=0@note_on channel=9 note=36 velocity=112 time=0@note_on channel=11 note=90 velocity=96 time=0@note_on channel=1 note=66 velocity=0 time=0.3862905479166666@note_on channel=2 note=66 velocity=0 time=0@note_on channel=4 note=54 velocity=0 time=0@note_on channel=5 note=66 velocity=0 time=0@note_on channel=7 note=54 velocity=0 time=0@note_on channel=8 note=42 velocity=0 time=0@note_on channel=9 note=36 velocity=0 time=0@note_on channel=11 note=90 velocity=0 time=0@note_on channel=0 note=67 velocity=96 time=0.0008064520833333332@note_on channel=1 note=67 velocity=80 time=0@note_on channel=2 note=67 velocity=96 time=0@note_on channel=4 note=55 velocity=96 time=0@note_on channel=5 note=67 velocity=96 time=0@note_on channel=7 note=55 velocity=64 time=0@note_on channel=8 note=43 velocity=96 time=0@note_on channel=9 note=36 velocity=112 time=0@note_on channel=11 note=91 velocity=96 time=0@note_on channel=0 note=67 velocity=0 time=0.09112908541666666@note_on channel=4 note=55 velocity=0 time=0.004838712499999999@note_on channel=0 note=67 velocity=96 time=0.0008064520833333332@note_on channel=4 note=55 velocity=96 time=0@note_on channel=0 note=67 velocity=0 time=0.09112908541666666@note_on channel=2 note=67 velocity=0 time=0.004838712499999999@note_on channel=4 note=55 velocity=0 time=0@note_on channel=5 note=67 velocity=0 time=0@note_on channel=11 note=91 velocity=0 time=0@note_on channel=0 note=67 velocity=96 time=0.0008064520833333332@note_on channel=2 note=69 velocity=96 time=0@note_on channel=4 note=55 velocity=96 time=0@note_on channel=5 note=69 velocity=96 time=0@note_on channel=11 note=93 velocity=96 time=0@note_on channel=0 note=67 velocity=0 time=0.18306462291666664@note_on channel=2 note=69 velocity=0 time=0.009677424999999998@note_on channel=4 note=55 velocity=0 time=0@note_on channel=5 note=69 velocity=0 time=0@note_on channel=9 note=36 velocity=0 time=0@note_on channel=11 note=93 velocity=0 time=0@note_on channel=0 note=67 velocity=96 time=0.0008064520833333332@note_on channel=2 note=70 velocity=96 time=0@note_on channel=4 note=55 velocity=96 time=0@note_on channel=5 note=70 velocity=96 time=0@note_on channel=9 note=36 velocity=112 time=0@note_on channel=11 note=94 velocity=96 time=0@note_on channel=0 note=67 velocity=0 time=0.18306462291666664@note_on channel=2 note=70 velocity=0 time=0.009677424999999998@note_on channel=4 note=55 velocity=0 time=0@note_on channel=5 note=70 velocity=0 time=0@note_on channel=11 note=94 velocity=0 time=0@note_on channel=0 note=67 velocity=96 time=0.0008064520833333332@note_on channel=2 note=67 velocity=96 time=0@note_on channel=4 note=55 velocity=96 time=0@note_on channel=5 note=67 velocity=96 time=0@note_on channel=11 note=91 velocity=96 time=0@note_on channel=0 note=67 velocity=0 time=0.18306462291666664@note_on channel=2 note=67 velocity=0 time=0.009677424999999998@note_on channel=4 note=55 velocity=0 time=0@note_on channel=5 note=67 velocity=0 time=0@note_on channel=9 note=36 velocity=0 time=0@note_on channel=11 note=91 velocity=0 time=0@note_on channel=0 note=67 velocity=96 time=0.0008064520833333332@note_on channel=2 note=74 velocity=96 time=0@note_on channel=4 note=55 velocity=96 time=0@note_on channel=5 note=74 velocity=96 time=0@note_on channel=9 note=40 velocity=112 time=0@note_on channel=11 note=98 velocity=96 time=0@note_on channel=9 note=40 velocity=0 time=0.19274204791666663@note_on channel=9 note=36 velocity=112 time=0.0008064520833333332@note_on channel=9 note=36 velocity=0 time=0.19274204791666663@note_on channel=9 note=36 velocity=112 time=0.0008064520833333332@note_on channel=0 note=67 velocity=0 time=0.3475808479166666@note_on channel=1 note=67 velocity=0 time=0.03870969999999999@note_on channel=4 note=55 velocity=0 time=0@note_on channel=7 note=55 velocity=0 time=0@note_on channel=8 note=43 velocity=0 time=0@note_on channel=9 note=36 velocity=0 time=0@note_on channel=0 note=67 velocity=96 time=0.0008064520833333332@note_on channel=1 note=65 velocity=80 time=0@note_on channel=4 note=55 velocity=96 time=0@note_on channel=7 note=53 velocity=64 time=0@note_on channel=8 note=41 velocity=96 time=0@note_on channel=9 note=36 velocity=112 time=0@note_on channel=0 note=67 velocity=0 time=0.09112908541666666@note_on channel=4 note=55 velocity=0 time=0.004838712499999999@note_on channel=0 note=67 velocity=96 time=0.0008064520833333332@note_on channel=4 note=55 velocity=96 time=0@note_on channel=0 note=67 velocity=0 time=0.09112908541666666@note_on channel=4 note=55 velocity=0 time=0.004838712499999999@note_on channel=0 note=67 velocity=96 time=0.0008064520833333332@note_on channel=4 note=55 velocity=96 time=0@note_on channel=0 note=67 velocity=0 time=0.18306462291666664@note_on channel=4 note=55 velocity=0 time=0.009677424999999998@note_on channel=9 note=36 velocity=0 time=0@note_on channel=0 note=67 velocity=96 time=0.0008064520833333332@note_on channel=4 note=55 velocity=96 time=0@note_on channel=9 note=36 velocity=112 time=0@note_on channel=0 note=67 velocity=0 time=0.18306462291666664@note_on channel=4 note=55 velocity=0 time=0.009677424999999998@note_on channel=0 note=67 velocity=96 time=0.0008064520833333332@note_on channel=4 note=55 velocity=96 time=0@note_on channel=0 note=67 velocity=0 time=0.18306462291666664@note_on channel=2 note=74 velocity=0 time=0.009677424999999998@note_on channel=4 note=55 velocity=0 time=0@note_on channel=5 note=74 velocity=0 time=0@note_on channel=9 note=36 velocity=0 time=0@note_on channel=11 note=98 velocity=0 time=0@note_on channel=0 note=69 velocity=96 time=0.0008064520833333332@note_on channel=4 note=57 velocity=96 time=0@note_on channel=9 note=40 velocity=112 time=0@note_on channel=0 note=69 velocity=0 time=0.18306462291666664@note_on channel=4 note=57 velocity=0 time=0.009677424999999998@note_on channel=9 note=40 velocity=0 time=0@note_on channel=0 note=70 velocity=96 time=0.0008064520833333332@note_on channel=4 note=58 velocity=96 time=0@note_on channel=9 note=36 velocity=112 time=0@note_on channel=0 note=70 velocity=0 time=0.18306462291666664@note_on channel=4 note=58 velocity=0 time=0.009677424999999998@note_on channel=9 note=36 velocity=0 time=0@note_on channel=0 note=69 velocity=96 time=0.0008064520833333332@note_on channel=4 note=57 velocity=96 time=0@note_on channel=9 note=36 velocity=112 time=0@note_on channel=0 note=69 velocity=0 time=0.36693569791666664@note_on channel=1 note=65 velocity=0 time=0.019354849999999996@note_on channel=4 note=57 velocity=0 time=0@note_on channel=7 note=53 velocity=0 time=0@note_on channel=8 note=41 velocity=0 time=0@note_on channel=9 note=36 velocity=0 time=0@note_on channel=0 note=67 velocity=96 time=0.0008064520833333332@note_on channel=1 note=63 velocity=80 time=0@note_on channel=2 note=67 velocity=96 time=0@note_on channel=4 note=55 velocity=96 time=0@note_on channel=5 note=67 velocity=96 time=0@note_on channel=7 note=51 velocity=64 time=0@note_on channel=8 note=39 velocity=96 time=0@note_on channel=9 note=36 velocity=112 time=0@note_on channel=11 note=91 velocity=96 time=0@note_on channel=0 note=67 velocity=0 time=0.09112908541666666@note_on channel=4 note=55 velocity=0 time=0.004838712499999999@note_on channel=0 note=67 velocity=96 time=0.0008064520833333332@note_on channel=4 note=55 velocity=96 time=0@note_on channel=0 note=67 velocity=0 time=0.09112908541666666@note_on channel=2 note=67 velocity=0 time=0.004838712499999999@note_on channel=4 note=55 velocity=0 time=0@note_on channel=5 note=67 velocity=0 time=0@note_on channel=11 note=91 velocity=0 time=0@note_on channel=0 note=67 velocity=96 time=0.0008064520833333332@note_on channel=2 note=69 velocity=96 time=0@note_on channel=4 note=55 velocity=96 time=0@note_on channel=5 note=69 velocity=96 time=0@note_on channel=11 note=93 velocity=96 time=0@note_on channel=0 note=67 velocity=0 time=0.18306462291666664@note_on channel=2 note=69 velocity=0 time=0.009677424999999998@note_on channel=4 note=55 velocity=0 time=0@note_on channel=5 note=69 velocity=0 time=0@note_on channel=9 note=36 velocity=0 time=0@note_on channel=11 note=93 velocity=0 time=0@note_on channel=0 note=67 velocity=96 time=0.0008064520833333332@note_on channel=2 note=70 velocity=96 time=0@note_on channel=4 note=55 velocity=96 time=0@note_on channel=5 note=70 velocity=96 time=0@note_on channel=9 note=40 velocity=112 time=0@note_on channel=11 note=94 velocity=96 time=0@note_on channel=0 note=67 velocity=0 time=0.18306462291666664@note_on channel=2 note=70 velocity=0 time=0.009677424999999998@note_on channel=4 note=55 velocity=0 time=0@note_on channel=5 note=70 velocity=0 time=0@note_on channel=9 note=40 velocity=0 time=0@note_on channel=11 note=94 velocity=0 time=0@note_on channel=0 note=67 velocity=96 time=0.0008064520833333332@note_on channel=2 note=67 velocity=96 time=0@note_on channel=4 note=55 velocity=96 time=0@note_on channel=5 note=67 velocity=96 time=0@note_on channel=9 note=35 velocity=112 time=0@note_on channel=11 note=91 velocity=96 time=0@note_on channel=0 note=67 velocity=0 time=0.18306462291666664@note_on channel=2 note=67 velocity=0 time=0.009677424999999998@note_on channel=4 note=55 velocity=0 time=0@note_on channel=5 note=67 velocity=0 time=0@note_on channel=9 note=35 velocity=0 time=0@note_on channel=11 note=91 velocity=0 time=0@note_on channel=0 note=67 velocity=96 time=0.0008064520833333332@note_on channel=2 note=74 velocity=96 time=0@note_on channel=4 note=55 velocity=96 time=0@note_on channel=5 note=74 velocity=96 time=0@note_on channel=9 note=40 velocity=112 time=0@note_on channel=11 note=98 velocity=96 time=0@note_on channel=2 note=74 velocity=0 time=0.19274204791666663@note_on channel=5 note=74 velocity=0 time=0@note_on channel=9 note=40 velocity=0 time=0@note_on channel=11 note=98 velocity=0 time=0@note_on channel=2 note=67 velocity=96 time=0.0008064520833333332@note_on channel=5 note=67 velocity=96 time=0@note_on channel=9 note=36 velocity=112 time=0@note_on channel=11 note=91 velocity=96 time=0@note_on channel=2 note=67 velocity=0 time=0.19274204791666663@note_on channel=5 note=67 velocity=0 time=0@note_on channel=9 note=36 velocity=0 time=0@note_on channel=11 note=91 velocity=0 time=0@note_on channel=2 note=79 velocity=96 time=0.0008064520833333332@note_on channel=5 note=79 velocity=96 time=0@note_on channel=9 note=36 velocity=112 time=0@note_on channel=11 note=103 velocity=96 time=0@note_on channel=0 note=67 velocity=0 time=0.3475808479166666@note_on channel=1 note=63 velocity=0 time=0.03870969999999999@note_on channel=2 note=79 velocity=0 time=0@note_on channel=4 note=55 velocity=0 time=0@note_on channel=5 note=79 velocity=0 time=0@note_on channel=7 note=51 velocity=0 time=0@note_on channel=8 note=39 velocity=0 time=0@note_on channel=9 note=36 velocity=0 time=0@note_on channel=11 note=103 velocity=0 time=0@note_on channel=0 note=62 velocity=96 time=0.0008064520833333332@note_on channel=1 note=62 velocity=80 time=0@note_on channel=2 note=78 velocity=96 time=0@note_on channel=4 note=50 velocity=96 time=0@note_on channel=5 note=78 velocity=96 time=0@note_on channel=7 note=50 velocity=64 time=0@note_on channel=8 note=38 velocity=96 time=0@note_on channel=9 note=40 velocity=112 time=0@note_on channel=9 note=36 velocity=112 time=0@note_on channel=11 note=102 velocity=96 time=0@note_on channel=0 note=62 velocity=0 time=0.09112908541666666@note_on channel=4 note=50 velocity=0 time=0.004838712499999999@note_on channel=0 note=62 velocity=96 time=0.0008064520833333332@note_on channel=4 note=50 velocity=96 time=0@note_on channel=0 note=62 velocity=0 time=0.09112908541666666@note_on channel=4 note=50 velocity=0 time=0.004838712499999999@note_on channel=9 note=40 velocity=0 time=0@note_on channel=9 note=36 velocity=0 time=0@note_on channel=0 note=62 velocity=96 time=0.0008064520833333332@note_on channel=4 note=50 velocity=96 time=0@note_on channel=9 note=40 velocity=112 time=0@note_on channel=9 note=36 velocity=112 time=0@note_on channel=0 note=62 velocity=0 time=0.18306462291666664@note_on channel=4 note=50 velocity=0 time=0.009677424999999998@note_on channel=9 note=40 velocity=0 time=0@note_on channel=9 note=36 velocity=0 time=0@note_on channel=0 note=62 velocity=96 time=0.0008064520833333332@note_on channel=4 note=50 velocity=96 time=0@note_on channel=9 note=40 velocity=112 time=0@note_on channel=9 note=36 velocity=112 time=0@note_on channel=0 note=62 velocity=0 time=0.18306462291666664@note_on channel=4 note=50 velocity=0 time=0.009677424999999998@note_on channel=9 note=40 velocity=0 time=0@note_on channel=9 note=36 velocity=0 time=0@note_on channel=0 note=62 velocity=96 time=0.0008064520833333332@note_on channel=4 note=50 velocity=96 time=0@note_on channel=9 note=40 velocity=112 time=0@note_on channel=9 note=36 velocity=112 time=0@note_on channel=0 note=62 velocity=0 time=0.18306462291666664@note_on channel=4 note=50 velocity=0 time=0.009677424999999998@note_on channel=9 note=40 velocity=0 time=0@note_on channel=9 note=36 velocity=0 time=0@note_on channel=0 note=62 velocity=96 time=0.0008064520833333332@note_on channel=4 note=50 velocity=96 time=0@note_on channel=9 note=40 velocity=112 time=0@note_on channel=9 note=36 velocity=112 time=0@note_on channel=0 note=62 velocity=0 time=0.18306462291666664@note_on channel=2 note=78 velocity=0 time=0.009677424999999998@note_on channel=4 note=50 velocity=0 time=0@note_on channel=5 note=78 velocity=0 time=0@note_on channel=9 note=40 velocity=0 time=0@note_on channel=9 note=36 velocity=0 time=0@note_on channel=11 note=102 velocity=0 time=0@note_on channel=0 note=64 velocity=96 time=0.0008064520833333332@note_on channel=2 note=79 velocity=96 time=0@note_on channel=4 note=52 velocity=96 time=0@note_on channel=5 note=79 velocity=96 time=0@note_on channel=9 note=40 velocity=112 time=0@note_on channel=9 note=36 velocity=112 time=0@note_on channel=11 note=103 velocity=96 time=0@note_on channel=0 note=64 velocity=0 time=0.18306462291666664@note_on channel=2 note=79 velocity=0 time=0.009677424999999998@note_on channel=4 note=52 velocity=0 time=0@note_on channel=5 note=79 velocity=0 time=0@note_on channel=9 note=40 velocity=0 time=0@note_on channel=9 note=36 velocity=0 time=0@note_on channel=11 note=103 velocity=0 time=0@note_on channel=0 note=66 velocity=96 time=0.0008064520833333332@note_on channel=2 note=81 velocity=96 time=0@note_on channel=4 note=54 velocity=96 time=0@note_on channel=5 note=81 velocity=96 time=0@note_on channel=9 note=40 velocity=112 time=0@note_on channel=9 note=36 velocity=112 time=0@note_on channel=11 note=105 velocity=96 time=0@note_on channel=9 note=40 velocity=0 time=0.19274204791666663@note_on channel=0 note=66 velocity=0 time=0.17419364999999998@note_on channel=1 note=62 velocity=0 time=0.019354849999999996@note_on channel=2 note=81 velocity=0 time=0@note_on channel=4 note=54 velocity=0 time=0@note_on channel=5 note=81 velocity=0 time=0@note_on channel=7 note=50 velocity=0 time=0@note_on channel=8 note=38 velocity=0 time=0@note_on channel=9 note=36 velocity=0 time=0@note_on channel=11 note=105 velocity=0 time=0@note_on channel=0 note=67 velocity=96 time=0.0008064520833333332@note_on channel=3 note=55 velocity=80 time=0@note_on channel=4 note=58 velocity=96 time=0@note_on channel=7 note=43 velocity=64 time=0@note_on channel=0 note=67 velocity=0 time=0.24435498124999996@note_on channel=3 note=55 velocity=0 time=0.012903233333333331@note_on channel=4 note=58 velocity=0 time=0@note_on channel=7 note=43 velocity=0 time=0@note_on channel=0 note=68 velocity=96 time=0.0008064520833333332@note_on channel=3 note=56 velocity=80 time=0@note_on channel=4 note=57 velocity=96 time=0@note_on channel=7 note=44 velocity=64 time=0@note_on channel=0 note=68 velocity=0 time=0.24435498124999996@note_on channel=3 note=56 velocity=0 time=0.012903233333333331@note_on channel=4 note=57 velocity=0 time=0@note_on channel=7 note=44 velocity=0 time=0@note_on channel=0 note=69 velocity=96 time=0.0008064520833333332@note_on channel=3 note=57 velocity=80 time=0@note_on channel=4 note=56 velocity=96 time=0@note_on channel=7 note=45 velocity=64 time=0@note_on channel=0 note=69 velocity=0 time=0.24435498124999996@note_on channel=3 note=57 velocity=0 time=0.012903233333333331@note_on channel=4 note=56 velocity=0 time=0@note_on channel=7 note=45 velocity=0 time=0@note_on channel=0 note=70 velocity=96 time=0.0008064520833333332@note_on channel=3 note=58 velocity=80 time=0@note_on channel=4 note=55 velocity=96 time=0@note_on channel=7 note=46 velocity=64 time=0@note_on channel=0 note=70 velocity=0 time=0.24435498124999996@note_on channel=3 note=58 velocity=0 time=0.012903233333333331@note_on channel=4 note=55 velocity=0 time=0@note_on channel=7 note=46 velocity=0 time=0@note_on channel=0 note=71 velocity=96 time=0.0008064520833333332@note_on channel=3 note=59 velocity=80 time=0@note_on channel=4 note=54 velocity=96 time=0@note_on channel=7 note=47 velocity=64 time=0@note_on channel=0 note=71 velocity=0 time=0.24435498124999996@note_on channel=3 note=59 velocity=0 time=0.012903233333333331@note_on channel=4 note=54 velocity=0 time=0@note_on channel=7 note=47 velocity=0 time=0@note_on channel=0 note=72 velocity=96 time=0.0008064520833333332@note_on channel=3 note=60 velocity=80 time=0@note_on channel=4 note=53 velocity=96 time=0@note_on channel=7 note=48 velocity=64 time=0@note_on channel=0 note=72 velocity=0 time=0.24435498124999996@note_on channel=3 note=60 velocity=0 time=0.012903233333333331@note_on channel=4 note=53 velocity=0 time=0@note_on channel=7 note=48 velocity=0 time=0@note_on channel=0 note=73 velocity=96 time=0.0008064520833333332@note_on channel=3 note=61 velocity=80 time=0@note_on channel=4 note=52 velocity=96 time=0@note_on channel=7 note=49 velocity=64 time=0@note_on channel=0 note=73 velocity=0 time=0.12177426458333332@note_on channel=3 note=61 velocity=0 time=0.006451616666666666@note_on channel=7 note=49 velocity=0 time=0@note_on channel=0 note=74 velocity=96 time=0.0008064520833333332@note_on channel=3 note=62 velocity=80 time=0@note_on channel=7 note=50 velocity=64 time=0@note_on channel=0 note=74 velocity=0 time=0.12177426458333332@note_on channel=3 note=62 velocity=0 time=0.006451616666666666@note_on channel=4 note=52 velocity=0 time=0@note_on channel=7 note=50 velocity=0 time=0@note_on channel=0 note=75 velocity=96 time=0.0008064520833333332@note_on channel=3 note=63 velocity=80 time=0@note_on channel=4 note=51 velocity=96 time=0@note_on channel=7 note=51 velocity=64 time=0@note_on channel=0 note=75 velocity=0 time=0.12177426458333332@note_on channel=3 note=63 velocity=0 time=0.006451616666666666@note_on channel=7 note=51 velocity=0 time=0@note_on channel=0 note=76 velocity=96 time=0.0008064520833333332@note_on channel=3 note=64 velocity=80 time=0@note_on channel=7 note=52 velocity=64 time=0@note_on channel=0 note=76 velocity=0 time=0.12177426458333332@note_on channel=3 note=64 velocity=0 time=0.006451616666666666@note_on channel=4 note=51 velocity=0 time=0@note_on channel=7 note=52 velocity=0 time=0@note_on channel=0 note=77 velocity=96 time=0.0008064520833333332@note_on channel=3 note=65 velocity=80 time=0@note_on channel=4 note=50 velocity=96 time=0@note_on channel=7 note=53 velocity=64 time=0@note_on channel=0 note=77 velocity=0 time=0.12177426458333332@note_on channel=3 note=65 velocity=0 time=0.006451616666666666@note_on channel=7 note=53 velocity=0 time=0@note_on channel=0 note=78 velocity=96 time=0.0008064520833333332@note_on channel=3 note=66 velocity=80 time=0@note_on channel=7 note=54 velocity=64 time=0@note_on channel=0 note=78 velocity=0 time=0.12177426458333332@note_on channel=3 note=66 velocity=0 time=0.006451616666666666@note_on channel=4 note=50 velocity=0 time=0@note_on channel=7 note=54 velocity=0 time=0@note_on channel=0 note=79 velocity=96 time=0.0008064520833333332@note_on channel=3 note=67 velocity=80 time=0@note_on channel=4 note=48 velocity=96 time=0@note_on channel=7 note=55 velocity=64 time=0@note_on channel=0 note=79 velocity=0 time=0.12177426458333332@note_on channel=3 note=67 velocity=0 time=0.006451616666666666@note_on channel=7 note=55 velocity=0 time=0@note_on channel=0 note=80 velocity=96 time=0.0008064520833333332@note_on channel=3 note=68 velocity=80 time=0@note_on channel=7 note=56 velocity=64 time=0@note_on channel=0 note=80 velocity=0 time=0.12177426458333332@note_on channel=3 note=68 velocity=0 time=0.006451616666666666@note_on channel=7 note=56 velocity=0 time=0@note_on channel=0 note=81 velocity=96 time=0.0008064520833333332@note_on channel=3 note=69 velocity=80 time=0@note_on channel=7 note=57 velocity=64 time=0@note_on channel=0 note=81 velocity=0 time=0.12177426458333332@note_on channel=3 note=69 velocity=0 time=0.006451616666666666@note_on channel=4 note=48 velocity=0 time=0@note_on channel=7 note=57 velocity=0 time=0@note_on channel=0 note=82 velocity=96 time=0.0008064520833333332@note_on channel=3 note=70 velocity=80 time=0@note_on channel=4 note=58 velocity=96 time=0@note_on channel=7 note=58 velocity=64 time=0@note_on channel=9 note=49 velocity=127 time=0@note_on channel=0 note=82 velocity=0 time=0.36693569791666664@note_on channel=3 note=70 velocity=0 time=0.019354849999999996@note_on channel=4 note=58 velocity=0 time=0@note_on channel=7 note=58 velocity=0 time=0@note_on channel=9 note=49 velocity=0 time=0@note_on channel=0 note=67 velocity=112 time=0.0008064520833333332@note_on channel=2 note=67 velocity=112 time=0@note_on channel=5 note=67 velocity=112 time=0@note_on channel=7 note=43 velocity=64 time=0@note_on channel=8 note=43 velocity=96 time=0@note_on channel=9 note=42 velocity=112 time=0@note_on channel=9 note=57 velocity=112 time=0@note_on channel=9 note=35 velocity=112 time=0@note_on channel=9 note=54 velocity=80 time=0@note_on channel=11 note=91 velocity=112 time=0@note_on channel=9 note=54 velocity=0 time=0.09596779791666665@note_on channel=9 note=54 velocity=80 time=0.0008064520833333332@note_on channel=0 note=67 velocity=0 time=0.08629037291666665@note_on channel=2 note=67 velocity=0 time=0.009677424999999998@note_on channel=5 note=67 velocity=0 time=0@note_on channel=9 note=54 velocity=0 time=0@note_on channel=11 note=91 velocity=0 time=0@note_on channel=0 note=69 velocity=112 time=0.0008064520833333332@note_on channel=2 note=62 velocity=112 time=0@note_on channel=4 note=62 velocity=96 time=0@note_on channel=5 note=62 velocity=112 time=0@note_on channel=9 note=54 velocity=80 time=0@note_on channel=11 note=86 velocity=112 time=0@note_on channel=9 note=54 velocity=0 time=0.09596779791666665@note_on channel=9 note=54 velocity=80 time=0.0008064520833333332@note_on channel=0 note=69 velocity=0 time=0.08629037291666665@note_on channel=2 note=62 velocity=0 time=0.009677424999999998@note_on channel=4 note=62 velocity=0 time=0@note_on channel=5 note=62 velocity=0 time=0@note_on channel=7 note=43 velocity=0 time=0@note_on channel=9 note=42 velocity=0 time=0@note_on channel=9 note=57 velocity=0 time=0@note_on channel=9 note=35 velocity=0 time=0@note_on channel=9 note=54 velocity=0 time=0@note_on channel=11 note=86 velocity=0 time=0@note_on channel=0 note=70 velocity=112 time=0.0008064520833333332@note_on channel=2 note=70 velocity=112 time=0@note_on channel=5 note=70 velocity=112 time=0@note_on channel=7 note=43 velocity=64 time=0@note_on channel=9 note=40 velocity=112 time=0@note_on channel=9 note=55 velocity=112 time=0@note_on channel=9 note=54 velocity=80 time=0@note_on channel=11 note=94 velocity=112 time=0@note_on channel=0 note=70 velocity=0 time=0.18306462291666664@note_on channel=9 note=54 velocity=0 time=0.009677424999999998@note_on channel=0 note=67 velocity=112 time=0.0008064520833333332@note_on channel=4 note=62 velocity=96 time=0@note_on channel=9 note=54 velocity=80 time=0@note_on channel=9 note=54 velocity=0 time=0.09596779791666665@note_on channel=9 note=54 velocity=80 time=0.0008064520833333332@note_on channel=0 note=67 velocity=0 time=0.08629037291666665@note_on channel=2 note=70 velocity=0 time=0.009677424999999998@note_on channel=4 note=62 velocity=0 time=0@note_on channel=5 note=70 velocity=0 time=0@note_on channel=7 note=43 velocity=0 time=0@note_on channel=9 note=40 velocity=0 time=0@note_on channel=9 note=55 velocity=0 time=0@note_on channel=9 note=54 velocity=0 time=0@note_on channel=11 note=94 velocity=0 time=0@note_on channel=0 note=74 velocity=112 time=0.0008064520833333332@note_on channel=2 note=69 velocity=112 time=0@note_on channel=5 note=69 velocity=112 time=0@note_on channel=7 note=43 velocity=64 time=0@note_on channel=9 note=42 velocity=112 time=0@note_on channel=9 note=35 velocity=112 time=0@note_on channel=9 note=54 velocity=80 time=0@note_on channel=11 note=93 velocity=112 time=0@note_on channel=0 note=74 velocity=0 time=0.18306462291666664@note_on channel=0 note=67 velocity=112 time=0.010483877083333332@note_on channel=4 note=62 velocity=96 time=0@note_on channel=0 note=67 velocity=0 time=0.18306462291666664@note_on channel=2 note=69 velocity=0 time=0.009677424999999998@note_on channel=4 note=62 velocity=0 time=0@note_on channel=5 note=69 velocity=0 time=0@note_on channel=7 note=43 velocity=0 time=0@note_on channel=9 note=42 velocity=0 time=0@note_on channel=9 note=35 velocity=0 time=0@note_on channel=9 note=54 velocity=0 time=0@note_on channel=11 note=93 velocity=0 time=0@note_on channel=0 note=70 velocity=112 time=0.0008064520833333332@note_on channel=2 note=70 velocity=112 time=0@note_on channel=5 note=70 velocity=112 time=0@note_on channel=7 note=43 velocity=64 time=0@note_on channel=9 note=40 velocity=112 time=0@note_on channel=9 note=55 velocity=112 time=0@note_on channel=9 note=54 velocity=80 time=0@note_on channel=11 note=94 velocity=112 time=0@note_on channel=4 note=62 velocity=96 time=0.19354849999999998@note_on channel=0 note=70 velocity=0 time=0.17338719791666665@note_on channel=2 note=70 velocity=0 time=0.019354849999999996@note_on channel=4 note=62 velocity=0 time=0@note_on channel=5 note=70 velocity=0 time=0@note_on channel=7 note=43 velocity=0 time=0@note_on channel=8 note=43 velocity=0 time=0@note_on channel=9 note=40 velocity=0 time=0@note_on channel=9 note=55 velocity=0 time=0@note_on channel=9 note=54 velocity=0 time=0@note_on channel=11 note=94 velocity=0 time=0@note_on channel=0 note=66 velocity=112 time=0.0008064520833333332@note_on channel=2 note=72 velocity=112 time=0@note_on channel=5 note=72 velocity=112 time=0@note_on channel=7 note=42 velocity=64 time=0@note_on channel=8 note=42 velocity=96 time=0@note_on channel=9 note=42 velocity=112 time=0@note_on channel=9 note=35 velocity=112 time=0@note_on channel=9 note=54 velocity=80 time=0@note_on channel=11 note=96 velocity=112 time=0@note_on channel=9 note=54 velocity=0 time=0.09596779791666665@note_on channel=9 note=54 velocity=80 time=0.0008064520833333332@note_on channel=0 note=66 velocity=0 time=0.08629037291666665@note_on channel=9 note=54 velocity=0 time=0.009677424999999998@note_on channel=0 note=67 velocity=112 time=0.0008064520833333332@note_on channel=4 note=62 velocity=96 time=0@note_on channel=9 note=54 velocity=80 time=0@note_on channel=9 note=54 velocity=0 time=0.09596779791666665@note_on channel=9 note=54 velocity=80 time=0.0008064520833333332@note_on channel=0 note=67 velocity=0 time=0.08629037291666665@note_on channel=4 note=62 velocity=0 time=0.009677424999999998@note_on channel=7 note=42 velocity=0 time=0@note_on channel=9 note=42 velocity=0 time=0@note_on channel=9 note=35 velocity=0 time=0@note_on channel=9 note=54 velocity=0 time=0@note_on channel=0 note=69 velocity=112 time=0.0008064520833333332@note_on channel=7 note=42 velocity=64 time=0@note_on channel=9 note=40 velocity=112 time=0@note_on channel=9 note=55 velocity=112 time=0@note_on channel=9 note=54 velocity=80 time=0@note_on channel=0 note=69 velocity=0 time=0.18306462291666664@note_on channel=2 note=72 velocity=0 time=0.009677424999999998@note_on channel=5 note=72 velocity=0 time=0@note_on channel=9 note=54 velocity=0 time=0@note_on channel=11 note=96 velocity=0 time=0@note_on channel=0 note=66 velocity=112 time=0.0008064520833333332@note_on channel=2 note=70 velocity=112 time=0@note_on channel=4 note=62 velocity=96 time=0@note_on channel=5 note=70 velocity=112 time=0@note_on channel=9 note=54 velocity=80 time=0@note_on channel=11 note=94 velocity=112 time=0@note_on channel=2 note=70 velocity=0 time=0.09596779791666665@note_on channel=5 note=70 velocity=0 time=0@note_on channel=9 note=54 velocity=0 time=0@note_on channel=11 note=94 velocity=0 time=0@note_on channel=2 note=69 velocity=112 time=0.0008064520833333332@note_on channel=5 note=69 velocity=112 time=0@note_on channel=9 note=54 velocity=80 time=0@note_on channel=11 note=93 velocity=112 time=0@note_on channel=0 note=66 velocity=0 time=0.08629037291666665@note_on channel=2 note=69 velocity=0 time=0.009677424999999998@note_on channel=4 note=62 velocity=0 time=0@note_on channel=5 note=69 velocity=0 time=0@note_on channel=7 note=42 velocity=0 time=0@note_on channel=9 note=40 velocity=0 time=0@note_on channel=9 note=55 velocity=0 time=0@note_on channel=9 note=54 velocity=0 time=0@note_on channel=11 note=93 velocity=0 time=0@note_on channel=0 note=74 velocity=112 time=0.0008064520833333332@note_on channel=2 note=70 velocity=112 time=0@note_on channel=5 note=70 velocity=112 time=0@note_on channel=7 note=42 velocity=64 time=0@note_on channel=9 note=42 velocity=112 time=0@note_on channel=9 note=35 velocity=112 time=0@note_on channel=9 note=54 velocity=80 time=0@note_on channel=11 note=94 velocity=112 time=0@note_on channel=0 note=74 velocity=0 time=0.18306462291666664@note_on channel=0 note=67 velocity=112 time=0.010483877083333332@note_on channel=4 note=62 velocity=96 time=0@note_on channel=0 note=67 velocity=0 time=0.18306462291666664@note_on channel=2 note=70 velocity=0 time=0.009677424999999998@note_on channel=4 note=62 velocity=0 time=0@note_on channel=5 note=70 velocity=0 time=0@note_on channel=7 note=42 velocity=0 time=0@note_on channel=9 note=42 velocity=0 time=0@note_on channel=9 note=35 velocity=0 time=0@note_on channel=9 note=54 velocity=0 time=0@note_on channel=11 note=94 velocity=0 time=0@note_on channel=0 note=70 velocity=112 time=0.0008064520833333332@note_on channel=2 note=67 velocity=112 time=0@note_on channel=5 note=67 velocity=112 time=0@note_on channel=7 note=42 velocity=64 time=0@note_on channel=9 note=40 velocity=112 time=0@note_on channel=9 note=55 velocity=112 time=0@note_on channel=9 note=54 velocity=80 time=0@note_on channel=11 note=91 velocity=112 time=0@note_on channel=4 note=62 velocity=96 time=0.19354849999999998@note_on channel=0 note=70 velocity=0 time=0.17338719791666665@note_on channel=2 note=67 velocity=0 time=0.019354849999999996@note_on channel=4 note=62 velocity=0 time=0@note_on channel=5 note=67 velocity=0 time=0@note_on channel=7 note=42 velocity=0 time=0@note_on channel=8 note=42 velocity=0 time=0@note_on channel=9 note=40 velocity=0 time=0@note_on channel=9 note=55 velocity=0 time=0@note_on channel=9 note=54 velocity=0 time=0@note_on channel=11 note=91 velocity=0 time=0@note_on channel=0 note=65 velocity=112 time=0.0008064520833333332@note_on channel=2 note=74 velocity=112 time=0@note_on channel=5 note=74 velocity=112 time=0@note_on channel=7 note=41 velocity=64 time=0@note_on channel=8 note=41 velocity=96 time=0@note_on channel=9 note=36 velocity=112 time=0@note_on channel=9 note=54 velocity=80 time=0@note_on channel=11 note=98 velocity=112 time=0@note_on channel=9 note=54 velocity=0 time=0.09596779791666665@note_on channel=9 note=54 velocity=80 time=0.0008064520833333332@note_on channel=0 note=65 velocity=0 time=0.08629037291666665@note_on channel=9 note=54 velocity=0 time=0.009677424999999998@note_on channel=0 note=67 velocity=112 time=0.0008064520833333332@note_on channel=4 note=62 velocity=96 time=0@note_on channel=9 note=54 velocity=80 time=0@note_on channel=9 note=54 velocity=0 time=0.09596779791666665@note_on channel=9 note=54 velocity=80 time=0.0008064520833333332@note_on channel=0 note=67 velocity=0 time=0.08629037291666665@note_on channel=4 note=62 velocity=0 time=0.009677424999999998@note_on channel=7 note=41 velocity=0 time=0@note_on channel=9 note=36 velocity=0 time=0@note_on channel=9 note=54 velocity=0 time=0@note_on channel=0 note=70 velocity=112 time=0.0008064520833333332@note_on channel=7 note=41 velocity=64 time=0@note_on channel=9 note=40 velocity=112 time=0@note_on channel=9 note=55 velocity=112 time=0@note_on channel=9 note=54 velocity=80 time=0@note_on channel=0 note=70 velocity=0 time=0.18306462291666664@note_on channel=2 note=74 velocity=0 time=0.009677424999999998@note_on channel=5 note=74 velocity=0 time=0@note_on channel=9 note=54 velocity=0 time=0@note_on channel=11 note=98 velocity=0 time=0@note_on channel=0 note=65 velocity=112 time=0.0008064520833333332@note_on channel=2 note=72 velocity=112 time=0@note_on channel=4 note=62 velocity=96 time=0@note_on channel=5 note=72 velocity=112 time=0@note_on channel=9 note=54 velocity=80 time=0@note_on channel=11 note=96 velocity=112 time=0@note_on channel=2 note=72 velocity=0 time=0.09596779791666665@note_on channel=5 note=72 velocity=0 time=0@note_on channel=9 note=54 velocity=0 time=0@note_on channel=11 note=96 velocity=0 time=0@note_on channel=2 note=70 velocity=112 time=0.0008064520833333332@note_on channel=5 note=70 velocity=112 time=0@note_on channel=9 note=54 velocity=80 time=0@note_on channel=11 note=94 velocity=112 time=0@note_on channel=0 note=65 velocity=0 time=0.08629037291666665@note_on channel=2 note=70 velocity=0 time=0.009677424999999998@note_on channel=4 note=62 velocity=0 time=0@note_on channel=5 note=70 velocity=0 time=0@note_on channel=7 note=41 velocity=0 time=0@note_on channel=9 note=40 velocity=0 time=0@note_on channel=9 note=55 velocity=0 time=0@note_on channel=9 note=54 velocity=0 time=0@note_on channel=11 note=94 velocity=0 time=0@note_on channel=0 note=70 velocity=112 time=0.0008064520833333332@note_on channel=2 note=72 velocity=112 time=0@note_on channel=5 note=72 velocity=112 time=0@note_on channel=7 note=41 velocity=64 time=0@note_on channel=9 note=36 velocity=112 time=0@note_on channel=9 note=54 velocity=80 time=0@note_on channel=11 note=96 velocity=112 time=0@note_on channel=0 note=70 velocity=0 time=0.18306462291666664@note_on channel=0 note=67 velocity=112 time=0.010483877083333332@note_on channel=4 note=62 velocity=96 time=0@note_on channel=0 note=67 velocity=0 time=0.18306462291666664@note_on channel=2 note=72 velocity=0 time=0.009677424999999998@note_on channel=4 note=62 velocity=0 time=0@note_on channel=5 note=72 velocity=0 time=0@note_on channel=7 note=41 velocity=0 time=0@note_on channel=9 note=36 velocity=0 time=0@note_on channel=9 note=54 velocity=0 time=0@note_on channel=11 note=96 velocity=0 time=0@note_on channel=0 note=69 velocity=112 time=0.0008064520833333332@note_on channel=2 note=67 velocity=112 time=0@note_on channel=5 note=67 velocity=112 time=0@note_on channel=7 note=41 velocity=64 time=0@note_on channel=9 note=40 velocity=112 time=0@note_on channel=9 note=55 velocity=112 time=0@note_on channel=9 note=54 velocity=80 time=0@note_on channel=11 note=91 velocity=112 time=0@note_on channel=4 note=62 velocity=96 time=0.19354849999999998@note_on channel=0 note=69 velocity=0 time=0.17338719791666665@note_on channel=2 note=67 velocity=0 time=0.019354849999999996@note_on channel=4 note=62 velocity=0 time=0@note_on channel=5 note=67 velocity=0 time=0@note_on channel=7 note=41 velocity=0 time=0@note_on channel=8 note=41 velocity=0 time=0@note_on channel=9 note=40 velocity=0 time=0@note_on channel=9 note=55 velocity=0 time=0@note_on channel=9 note=54 velocity=0 time=0@note_on channel=11 note=91 velocity=0 time=0@note_on channel=0 note=65 velocity=112 time=0.0008064520833333332@note_on channel=2 note=70 velocity=112 time=0@note_on channel=5 note=70 velocity=112 time=0@note_on channel=7 note=40 velocity=64 time=0@note_on channel=8 note=40 velocity=96 time=0@note_on channel=9 note=36 velocity=112 time=0@note_on channel=9 note=54 velocity=80 time=0@note_on channel=11 note=94 velocity=112 time=0@note_on channel=9 note=54 velocity=0 time=0.09596779791666665@note_on channel=9 note=54 velocity=80 time=0.0008064520833333332@note_on channel=0 note=65 velocity=0 time=0.08629037291666665@note_on channel=9 note=54 velocity=0 time=0.009677424999999998@note_on channel=0 note=67 velocity=112 time=0.0008064520833333332@note_on channel=4 note=62 velocity=96 time=0@note_on channel=9 note=54 velocity=80 time=0@note_on channel=9 note=54 velocity=0 time=0.09596779791666665@note_on channel=9 note=54 velocity=80 time=0.0008064520833333332@note_on channel=0 note=67 velocity=0 time=0.08629037291666665@note_on channel=4 note=62 velocity=0 time=0.009677424999999998@note_on channel=7 note=40 velocity=0 time=0@note_on channel=9 note=36 velocity=0 time=0@note_on channel=9 note=54 velocity=0 time=0@note_on channel=0 note=70 velocity=112 time=0.0008064520833333332@note_on channel=7 note=40 velocity=64 time=0@note_on channel=9 note=40 velocity=112 time=0@note_on channel=9 note=55 velocity=112 time=0@note_on channel=9 note=54 velocity=80 time=0@note_on channel=0 note=70 velocity=0 time=0.18306462291666664@note_on channel=2 note=70 velocity=0 time=0.009677424999999998@note_on channel=5 note=70 velocity=0 time=0@note_on channel=9 note=54 velocity=0 time=0@note_on channel=11 note=94 velocity=0 time=0@note_on channel=0 note=65 velocity=112 time=0.0008064520833333332@note_on channel=2 note=69 velocity=112 time=0@note_on channel=4 note=62 velocity=96 time=0@note_on channel=5 note=69 velocity=112 time=0@note_on channel=9 note=54 velocity=80 time=0@note_on channel=11 note=93 velocity=112 time=0@note_on channel=2 note=69 velocity=0 time=0.09596779791666665@note_on channel=5 note=69 velocity=0 time=0@note_on channel=9 note=54 velocity=0 time=0@note_on channel=11 note=93 velocity=0 time=0@note_on channel=2 note=67 velocity=112 time=0.0008064520833333332@note_on channel=5 note=67 velocity=112 time=0@note_on channel=9 note=54 velocity=80 time=0@note_on channel=11 note=91 velocity=112 time=0@note_on channel=0 note=65 velocity=0 time=0.08629037291666665@note_on channel=2 note=67 velocity=0 time=0.009677424999999998@note_on channel=4 note=62 velocity=0 time=0@note_on channel=5 note=67 velocity=0 time=0@note_on channel=7 note=40 velocity=0 time=0@note_on channel=9 note=40 velocity=0 time=0@note_on channel=9 note=55 velocity=0 time=0@note_on channel=9 note=54 velocity=0 time=0@note_on channel=11 note=91 velocity=0 time=0@note_on channel=0 note=69 velocity=112 time=0.0008064520833333332@note_on channel=2 note=69 velocity=112 time=0@note_on channel=5 note=69 velocity=112 time=0@note_on channel=7 note=40 velocity=64 time=0@note_on channel=9 note=36 velocity=112 time=0@note_on channel=9 note=54 velocity=80 time=0@note_on channel=11 note=93 velocity=112 time=0@note_on channel=4 note=62 velocity=96 time=0.19354849999999998@note_on channel=0 note=69 velocity=0 time=0.17338719791666665@note_on channel=2 note=69 velocity=0 time=0.019354849999999996@note_on channel=4 note=62 velocity=0 time=0@note_on channel=5 note=69 velocity=0 time=0@note_on channel=7 note=40 velocity=0 time=0@note_on channel=9 note=36 velocity=0 time=0@note_on channel=9 note=54 velocity=0 time=0@note_on channel=11 note=93 velocity=0 time=0@note_on channel=0 note=66 velocity=112 time=0.0008064520833333332@note_on channel=2 note=66 velocity=112 time=0@note_on channel=5 note=66 velocity=112 time=0@note_on channel=7 note=40 velocity=64 time=0@note_on channel=9 note=40 velocity=112 time=0@note_on channel=9 note=55 velocity=112 time=0@note_on channel=9 note=54 velocity=80 time=0@note_on channel=11 note=90 velocity=112 time=0@note_on channel=4 note=62 velocity=96 time=0.19354849999999998@note_on channel=0 note=66 velocity=0 time=0.17338719791666665@note_on channel=2 note=66 velocity=0 time=0.019354849999999996@note_on channel=4 note=62 velocity=0 time=0@note_on channel=5 note=66 velocity=0 time=0@note_on channel=7 note=40 velocity=0 time=0@note_on channel=8 note=40 velocity=0 time=0@note_on channel=9 note=40 velocity=0 time=0@note_on channel=9 note=55 velocity=0 time=0@note_on channel=9 note=54 velocity=0 time=0@note_on channel=11 note=90 velocity=0 time=0@note_on channel=0 note=75 velocity=112 time=0.0008064520833333332@note_on channel=2 note=67 velocity=112 time=0@note_on channel=5 note=67 velocity=112 time=0@note_on channel=7 note=39 velocity=64 time=0@note_on channel=8 note=39 velocity=96 time=0@note_on channel=9 note=57 velocity=112 time=0@note_on channel=9 note=36 velocity=112 time=0@note_on channel=9 note=54 velocity=80 time=0@note_on channel=11 note=91 velocity=112 time=0@note_on channel=9 note=54 velocity=0 time=0.09596779791666665@note_on channel=9 note=54 velocity=80 time=0.0008064520833333332@note_on channel=2 note=67 velocity=0 time=0.09596779791666665@note_on channel=5 note=67 velocity=0 time=0@note_on channel=9 note=54 velocity=0 time=0@note_on channel=11 note=91 velocity=0 time=0@note_on channel=2 note=63 velocity=112 time=0.0008064520833333332@note_on channel=4 note=62 velocity=96 time=0@note_on channel=5 note=63 velocity=112 time=0@note_on channel=9 note=54 velocity=80 time=0@note_on channel=11 note=87 velocity=112 time=0@note_on channel=9 note=54 velocity=0 time=0.09596779791666665@note_on channel=9 note=54 velocity=80 time=0.0008064520833333332@note_on channel=0 note=75 velocity=0 time=0.07661294791666666@note_on channel=2 note=63 velocity=0 time=0.019354849999999996@note_on channel=4 note=62 velocity=0 time=0@note_on channel=5 note=63 velocity=0 time=0@note_on channel=7 note=39 velocity=0 time=0@note_on channel=9 note=57 velocity=0 time=0@note_on channel=9 note=36 velocity=0 time=0@note_on channel=9 note=54 velocity=0 time=0@note_on channel=11 note=87 velocity=0 time=0@note_on channel=0 note=74 velocity=112 time=0.0008064520833333332@note_on channel=2 note=69 velocity=112 time=0@note_on channel=5 note=69 velocity=112 time=0@note_on channel=7 note=39 velocity=64 time=0@note_on channel=9 note=40 velocity=112 time=0@note_on channel=9 note=55 velocity=112 time=0@note_on channel=9 note=54 velocity=80 time=0@note_on channel=11 note=93 velocity=112 time=0@note_on channel=0 note=74 velocity=0 time=0.18306462291666664@note_on channel=9 note=54 velocity=0 time=0.009677424999999998@note_on channel=0 note=75 velocity=112 time=0.0008064520833333332@note_on channel=4 note=62 velocity=96 time=0@note_on channel=9 note=54 velocity=80 time=0@note_on channel=9 note=54 velocity=0 time=0.09596779791666665@note_on channel=9 note=54 velocity=80 time=0.0008064520833333332@note_on channel=0 note=75 velocity=0 time=0.08629037291666665@note_on channel=2 note=69 velocity=0 time=0.009677424999999998@note_on channel=4 note=62 velocity=0 time=0@note_on channel=5 note=69 velocity=0 time=0@note_on channel=7 note=39 velocity=0 time=0@note_on channel=9 note=40 velocity=0 time=0@note_on channel=9 note=55 velocity=0 time=0@note_on channel=9 note=54 velocity=0 time=0@note_on channel=11 note=93 velocity=0 time=0@note_on channel=0 note=77 velocity=112 time=0.0008064520833333332@note_on channel=2 note=70 velocity=112 time=0@note_on channel=5 note=70 velocity=112 time=0@note_on channel=7 note=39 velocity=64 time=0@note_on channel=9 note=36 velocity=112 time=0@note_on channel=9 note=54 velocity=80 time=0@note_on channel=11 note=94 velocity=112 time=0@note_on channel=4 note=62 velocity=96 time=0.19354849999999998@note_on channel=0 note=77 velocity=0 time=0.17338719791666665@note_on channel=2 note=70 velocity=0 time=0.019354849999999996@note_on channel=4 note=62 velocity=0 time=0@note_on channel=5 note=70 velocity=0 time=0@note_on channel=7 note=39 velocity=0 time=0@note_on channel=9 note=36 velocity=0 time=0@note_on channel=9 note=54 velocity=0 time=0@note_on channel=11 note=94 velocity=0 time=0@note_on channel=0 note=79 velocity=112 time=0.0008064520833333332@note_on channel=2 note=72 velocity=112 time=0@note_on channel=5 note=72 velocity=112 time=0@note_on channel=7 note=39 velocity=64 time=0@note_on channel=9 note=40 velocity=112 time=0@note_on channel=9 note=55 velocity=112 time=0@note_on channel=9 note=54 velocity=80 time=0@note_on channel=11 note=96 velocity=112 time=0@note_on channel=4 note=62 velocity=96 time=0.19354849999999998@note_on channel=0 note=79 velocity=0 time=0.17338719791666665@note_on channel=2 note=72 velocity=0 time=0.019354849999999996@note_on channel=4 note=62 velocity=0 time=0@note_on channel=5 note=72 velocity=0 time=0@note_on channel=7 note=39 velocity=0 time=0@note_on channel=8 note=39 velocity=0 time=0@note_on channel=9 note=40 velocity=0 time=0@note_on channel=9 note=55 velocity=0 time=0@note_on channel=9 note=54 velocity=0 time=0@note_on channel=11 note=96 velocity=0 time=0@note_on channel=0 note=67 velocity=112 time=0.0008064520833333332@note_on channel=2 note=69 velocity=112 time=0@note_on channel=5 note=69 velocity=112 time=0@note_on channel=7 note=38 velocity=64 time=0@note_on channel=8 note=38 velocity=96 time=0@note_on channel=9 note=36 velocity=112 time=0@note_on channel=9 note=54 velocity=80 time=0@note_on channel=11 note=93 velocity=112 time=0@note_on channel=9 note=54 velocity=0 time=0.09596779791666665@note_on channel=9 note=54 velocity=80 time=0.0008064520833333332@note_on channel=2 note=69 velocity=0 time=0.09596779791666665@note_on channel=5 note=69 velocity=0 time=0@note_on channel=9 note=54 velocity=0 time=0@note_on channel=11 note=93 velocity=0 time=0@note_on channel=2 note=62 velocity=112 time=0.0008064520833333332@note_on channel=5 note=62 velocity=112 time=0@note_on channel=9 note=54 velocity=80 time=0@note_on channel=11 note=86 velocity=112 time=0@note_on channel=9 note=54 velocity=0 time=0.09596779791666665@note_on channel=9 note=54 velocity=80 time=0.0008064520833333332@note_on channel=2 note=62 velocity=0 time=0.09596779791666665@note_on channel=5 note=62 velocity=0 time=0@note_on channel=7 note=38 velocity=0 time=0@note_on channel=9 note=36 velocity=0 time=0@note_on channel=9 note=54 velocity=0 time=0@note_on channel=11 note=86 velocity=0 time=0@note_on channel=2 note=67 velocity=112 time=0.0008064520833333332@note_on channel=5 note=67 velocity=112 time=0@note_on channel=7 note=38 velocity=64 time=0@note_on channel=9 note=40 velocity=112 time=0@note_on channel=9 note=55 velocity=112 time=0@note_on channel=9 note=54 velocity=80 time=0@note_on channel=11 note=91 velocity=112 time=0@note_on channel=0 note=67 velocity=0 time=0.16370977291666663@note_on channel=9 note=54 velocity=0 time=0.029032274999999996@note_on channel=0 note=69 velocity=112 time=0.0008064520833333332@note_on channel=9 note=54 velocity=80 time=0@note_on channel=0 note=69 velocity=0 time=0.09112908541666666@note_on channel=9 note=54 velocity=0 time=0.004838712499999999@note_on channel=0 note=67 velocity=112 time=0.0008064520833333332@note_on channel=9 note=54 velocity=80 time=0@note_on channel=0 note=67 velocity=0 time=0.09112908541666666@note_on channel=2 note=67 velocity=0 time=0.004838712499999999@note_on channel=5 note=67 velocity=0 time=0@note_on channel=7 note=38 velocity=0 time=0@note_on channel=9 note=40 velocity=0 time=0@note_on channel=9 note=55 velocity=0 time=0@note_on channel=9 note=54 velocity=0 time=0@note_on channel=11 note=91 velocity=0 time=0@note_on channel=0 note=66 velocity=112 time=0.0008064520833333332@note_on channel=2 note=69 velocity=112 time=0@note_on channel=5 note=69 velocity=112 time=0@note_on channel=7 note=38 velocity=64 time=0@note_on channel=9 note=36 velocity=112 time=0@note_on channel=9 note=54 velocity=80 time=0@note_on channel=11 note=93 velocity=112 time=0@note_on channel=0 note=66 velocity=0 time=0.24435498124999996@note_on channel=0 note=67 velocity=112 time=0.013709685416666664@note_on channel=2 note=69 velocity=0 time=0.12822588124999998@note_on channel=5 note=69 velocity=0 time=0@note_on channel=7 note=38 velocity=0 time=0@note_on channel=9 note=36 velocity=0 time=0@note_on channel=9 note=54 velocity=0 time=0@note_on channel=11 note=93 velocity=0 time=0@note_on channel=2 note=66 velocity=112 time=0.0008064520833333332@note_on channel=5 note=66 velocity=112 time=0@note_on channel=7 note=38 velocity=64 time=0@note_on channel=9 note=40 velocity=112 time=0@note_on channel=9 note=55 velocity=112 time=0@note_on channel=9 note=54 velocity=80 time=0@note_on channel=11 note=90 velocity=112 time=0@note_on channel=0 note=67 velocity=0 time=0.11532264791666665@note_on channel=0 note=69 velocity=112 time=0.013709685416666664@note_on channel=0 note=69 velocity=0 time=0.24435498124999996@note_on channel=2 note=66 velocity=0 time=0.012903233333333331@note_on channel=5 note=66 velocity=0 time=0@note_on channel=7 note=38 velocity=0 time=0@note_on channel=8 note=38 velocity=0 time=0@note_on channel=9 note=40 velocity=0 time=0@note_on channel=9 note=55 velocity=0 time=0@note_on channel=9 note=54 velocity=0 time=0@note_on channel=11 note=90 velocity=0 time=0@note_on channel=0 note=67 velocity=112 time=0.0008064520833333332@note_on channel=2 note=67 velocity=112 time=0@note_on channel=5 note=67 velocity=112 time=0@note_on channel=7 note=43 velocity=64 time=0@note_on channel=8 note=43 velocity=96 time=0@note_on channel=9 note=36 velocity=112 time=0@note_on channel=9 note=49 velocity=80 time=0@note_on channel=11 note=91 velocity=112 time=0@note_on channel=9 note=36 velocity=0 time=0.3862905479166666@note_on channel=9 note=49 velocity=0 time=0@note_on channel=9 note=40 velocity=112 time=0.0008064520833333332@note_on channel=9 note=57 velocity=112 time=0@note_on channel=0 note=67 velocity=0 time=0.16370977291666663@note_on channel=0 note=66 velocity=112 time=0.02983872708333333@note_on channel=0 note=66 velocity=0 time=0.09112908541666666@note_on channel=0 note=67 velocity=112 time=0.005645164583333332@note_on channel=0 note=67 velocity=0 time=0.09112908541666666@note_on channel=2 note=67 velocity=0 time=0.004838712499999999@note_on channel=5 note=67 velocity=0 time=0@note_on channel=7 note=43 velocity=0 time=0@note_on channel=8 note=43 velocity=0 time=0@note_on channel=9 note=40 velocity=0 time=0@note_on channel=9 note=57 velocity=0 time=0@note_on channel=11 note=91 velocity=0 time=0@note_on channel=0 note=69 velocity=112 time=0.0008064520833333332@note_on channel=2 note=69 velocity=112 time=0@note_on channel=5 note=69 velocity=112 time=0@note_on channel=7 note=45 velocity=64 time=0@note_on channel=8 note=45 velocity=96 time=0@note_on channel=9 note=36 velocity=112 time=0@note_on channel=9 note=49 velocity=80 time=0@note_on channel=11 note=93 velocity=112 time=0@note_on channel=9 note=36 velocity=0 time=0.3862905479166666@note_on channel=9 note=49 velocity=0 time=0@note_on channel=9 note=40 velocity=112 time=0.0008064520833333332@note_on channel=9 note=57 velocity=112 time=0@note_on channel=0 note=69 velocity=0 time=0.16370977291666663@note_on channel=0 note=67 velocity=112 time=0.02983872708333333@note_on channel=0 note=67 velocity=0 time=0.09112908541666666@note_on channel=0 note=69 velocity=112 time=0.005645164583333332@note_on channel=0 note=69 velocity=0 time=0.09112908541666666@note_on channel=2 note=69 velocity=0 time=0.004838712499999999@note_on channel=5 note=69 velocity=0 time=0@note_on channel=7 note=45 velocity=0 time=0@note_on channel=8 note=45 velocity=0 time=0@note_on channel=9 note=40 velocity=0 time=0@note_on channel=9 note=57 velocity=0 time=0@note_on channel=11 note=93 velocity=0 time=0@note_on channel=0 note=70 velocity=112 time=0.0008064520833333332@note_on channel=2 note=70 velocity=112 time=0@note_on channel=5 note=70 velocity=112 time=0@note_on channel=7 note=46 velocity=64 time=0@note_on channel=8 note=46 velocity=96 time=0@note_on channel=9 note=42 velocity=112 time=0@note_on channel=9 note=35 velocity=112 time=0@note_on channel=9 note=49 velocity=80 time=0@note_on channel=11 note=94 velocity=112 time=0@note_on channel=0 note=70 velocity=0 time=0.36693569791666664@note_on channel=2 note=70 velocity=0 time=0.019354849999999996@note_on channel=5 note=70 velocity=0 time=0@note_on channel=7 note=46 velocity=0 time=0@note_on channel=8 note=46 velocity=0 time=0@note_on channel=9 note=42 velocity=0 time=0@note_on channel=9 note=35 velocity=0 time=0@note_on channel=9 note=49 velocity=0 time=0@note_on channel=11 note=94 velocity=0 time=0@note_on channel=0 note=72 velocity=112 time=0.0008064520833333332@note_on channel=2 note=72 velocity=112 time=0@note_on channel=5 note=72 velocity=112 time=0@note_on channel=7 note=48 velocity=64 time=0@note_on channel=8 note=48 velocity=96 time=0@note_on channel=9 note=40 velocity=112 time=0@note_on channel=9 note=55 velocity=112 time=0@note_on channel=9 note=49 velocity=80 time=0@note_on channel=11 note=96 velocity=112 time=0@note_on channel=0 note=72 velocity=0 time=0.36693569791666664@note_on channel=2 note=72 velocity=0 time=0.019354849999999996@note_on channel=5 note=72 velocity=0 time=0@note_on channel=7 note=48 velocity=0 time=0@note_on channel=8 note=48 velocity=0 time=0@note_on channel=9 note=40 velocity=0 time=0@note_on channel=9 note=55 velocity=0 time=0@note_on channel=9 note=49 velocity=0 time=0@note_on channel=11 note=96 velocity=0 time=0@note_on channel=0 note=70 velocity=112 time=0.0008064520833333332@note_on channel=2 note=70 velocity=112 time=0@note_on channel=5 note=70 velocity=112 time=0@note_on channel=7 note=46 velocity=64 time=0@note_on channel=8 note=46 velocity=96 time=0@note_on channel=9 note=42 velocity=112 time=0@note_on channel=9 note=35 velocity=112 time=0@note_on channel=9 note=49 velocity=80 time=0@note_on channel=11 note=94 velocity=112 time=0@note_on channel=0 note=70 velocity=0 time=0.36693569791666664@note_on channel=2 note=70 velocity=0 time=0.019354849999999996@note_on channel=5 note=70 velocity=0 time=0@note_on channel=7 note=46 velocity=0 time=0@note_on channel=8 note=46 velocity=0 time=0@note_on channel=9 note=42 velocity=0 time=0@note_on channel=9 note=35 velocity=0 time=0@note_on channel=9 note=49 velocity=0 time=0@note_on channel=11 note=94 velocity=0 time=0@note_on channel=0 note=69 velocity=112 time=0.0008064520833333332@note_on channel=2 note=69 velocity=112 time=0@note_on channel=5 note=69 velocity=112 time=0@note_on channel=7 note=45 velocity=64 time=0@note_on channel=8 note=45 velocity=96 time=0@note_on channel=9 note=40 velocity=112 time=0@note_on channel=9 note=55 velocity=112 time=0@note_on channel=9 note=49 velocity=80 time=0@note_on channel=11 note=93 velocity=112 time=0@note_on channel=0 note=69 velocity=0 time=0.36693569791666664@note_on channel=2 note=69 velocity=0 time=0.019354849999999996@note_on channel=5 note=69 velocity=0 time=0@note_on channel=7 note=45 velocity=0 time=0@note_on channel=8 note=45 velocity=0 time=0@note_on channel=9 note=40 velocity=0 time=0@note_on channel=9 note=55 velocity=0 time=0@note_on channel=9 note=49 velocity=0 time=0@note_on channel=11 note=93 velocity=0 time=0@note_on channel=0 note=63 velocity=64 time=0.0008064520833333332@note_on channel=2 note=67 velocity=112 time=0@note_on channel=5 note=67 velocity=112 time=0@note_on channel=8 note=39 velocity=96 time=0@note_on channel=9 note=42 velocity=112 time=0@note_on channel=9 note=35 velocity=112 time=0@note_on channel=9 note=54 velocity=80 time=0@note_on channel=11 note=91 velocity=112 time=0@note_on channel=9 note=54 velocity=0 time=0.09596779791666665@note_on channel=9 note=54 velocity=80 time=0.0008064520833333332@note_on channel=9 note=54 velocity=0 time=0.09596779791666665@note_on channel=9 note=54 velocity=80 time=0.0008064520833333332@note_on channel=9 note=54 velocity=0 time=0.09596779791666665@note_on channel=9 note=54 velocity=80 time=0.0008064520833333332@note_on channel=9 note=42 velocity=0 time=0.09596779791666665@note_on channel=9 note=35 velocity=0 time=0@note_on channel=9 note=54 velocity=0 time=0@note_on channel=9 note=40 velocity=112 time=0.0008064520833333332@note_on channel=9 note=55 velocity=112 time=0@note_on channel=9 note=54 velocity=80 time=0@note_on channel=9 note=54 velocity=0 time=0.19274204791666663@note_on channel=9 note=54 velocity=80 time=0.0008064520833333332@note_on channel=9 note=54 velocity=0 time=0.09596779791666665@note_on channel=9 note=54 velocity=80 time=0.0008064520833333332@note_on channel=9 note=40 velocity=0 time=0.09596779791666665@note_on channel=9 note=55 velocity=0 time=0@note_on channel=9 note=54 velocity=0 time=0@note_on channel=9 note=42 velocity=112 time=0.0008064520833333332@note_on channel=9 note=35 velocity=112 time=0@note_on channel=9 note=54 velocity=80 time=0@note_on channel=9 note=42 velocity=0 time=0.3862905479166666@note_on channel=9 note=35 velocity=0 time=0@note_on channel=9 note=54 velocity=0 time=0@note_on channel=9 note=40 velocity=112 time=0.0008064520833333332@note_on channel=9 note=55 velocity=112 time=0@note_on channel=9 note=54 velocity=80 time=0@note_on channel=2 note=67 velocity=0 time=0.19274204791666663@note_on channel=5 note=67 velocity=0 time=0@note_on channel=11 note=91 velocity=0 time=0@note_on channel=2 note=66 velocity=112 time=0.0008064520833333332@note_on channel=5 note=66 velocity=112 time=0@note_on channel=11 note=90 velocity=112 time=0@note_on channel=2 note=66 velocity=0 time=0.09596779791666665@note_on channel=5 note=66 velocity=0 time=0@note_on channel=11 note=90 velocity=0 time=0@note_on channel=2 note=64 velocity=112 time=0.0008064520833333332@note_on channel=5 note=64 velocity=112 time=0@note_on channel=11 note=88 velocity=112 time=0@note_on channel=0 note=63 velocity=0 time=0.018548397916666664@note_on channel=2 note=64 velocity=0 time=0.07741939999999999@note_on channel=5 note=64 velocity=0 time=0@note_on channel=8 note=39 velocity=0 time=0@note_on channel=9 note=40 velocity=0 time=0@note_on channel=9 note=55 velocity=0 time=0@note_on channel=9 note=54 velocity=0 time=0@note_on channel=11 note=88 velocity=0 time=0@note_on channel=0 note=60 velocity=64 time=0.0008064520833333332@note_on channel=2 note=66 velocity=112 time=0@note_on channel=5 note=66 velocity=112 time=0@note_on channel=8 note=36 velocity=96 time=0@note_on channel=9 note=42 velocity=112 time=0@note_on channel=9 note=35 velocity=112 time=0@note_on channel=11 note=90 velocity=112 time=0@note_on channel=9 note=42 velocity=0 time=0.3862905479166666@note_on channel=9 note=35 velocity=0 time=0@note_on channel=9 note=40 velocity=112 time=0.0008064520833333332@note_on channel=9 note=55 velocity=112 time=0@note_on channel=0 note=60 velocity=0 time=0.3475808479166666@note_on channel=8 note=36 velocity=0 time=0.03870969999999999@note_on channel=9 note=40 velocity=0 time=0@note_on channel=9 note=55 velocity=0 time=0@note_on channel=0 note=62 velocity=64 time=0.0008064520833333332@note_on channel=8 note=38 velocity=96 time=0@note_on channel=9 note=42 velocity=112 time=0@note_on channel=9 note=35 velocity=112 time=0@note_on channel=9 note=42 velocity=0 time=0.3862905479166666@note_on channel=9 note=35 velocity=0 time=0@note_on channel=9 note=40 velocity=112 time=0.0008064520833333332@note_on channel=9 note=55 velocity=112 time=0@note_on channel=0 note=62 velocity=0 time=0.3475808479166666@note_on channel=2 note=66 velocity=0 time=0.03870969999999999@note_on channel=5 note=66 velocity=0 time=0@note_on channel=8 note=38 velocity=0 time=0@note_on channel=9 note=40 velocity=0 time=0@note_on channel=9 note=55 velocity=0 time=0@note_on channel=11 note=90 velocity=0 time=0@note_on channel=0 note=73 velocity=80 time=0.0008064520833333332@pitchwheel channel=0 pitch=0 time=0@note_on channel=1 note=73 velocity=64 time=0@pitchwheel channel=1 pitch=0 time=0@note_on channel=5 note=73 velocity=64 time=0@pitchwheel channel=5 pitch=0 time=0@note_on channel=7 note=43 velocity=64 time=0@note_on channel=8 note=43 velocity=64 time=0@note_on channel=9 note=49 velocity=126 time=0@note_on channel=9 note=36 velocity=126 time=0@pitchwheel channel=0 pitch=13 time=0.012903233333333331@pitchwheel channel=1 pitch=13 time=0@pitchwheel channel=5 pitch=13 time=0@pitchwheel channel=0 pitch=27 time=0.012903233333333331@pitchwheel channel=1 pitch=27 time=0@pitchwheel channel=5 pitch=27 time=0@pitchwheel channel=0 pitch=40 time=0.012903233333333331@pitchwheel channel=1 pitch=40 time=0@pitchwheel channel=5 pitch=40 time=0@pitchwheel channel=0 pitch=54 time=0.012903233333333331@pitchwheel channel=1 pitch=54 time=0@pitchwheel channel=5 pitch=54 time=0@pitchwheel channel=0 pitch=68 time=0.012903233333333331@pitchwheel channel=1 pitch=68 time=0@pitchwheel channel=5 pitch=68 time=0@pitchwheel channel=0 pitch=81 time=0.012903233333333331@pitchwheel channel=1 pitch=81 time=0@pitchwheel channel=5 pitch=81 time=0@pitchwheel channel=0 pitch=95 time=0.012903233333333331@pitchwheel channel=1 pitch=95 time=0@pitchwheel channel=5 pitch=95 time=0@pitchwheel channel=0 pitch=109 time=0.012903233333333331@pitchwheel channel=1 pitch=109 time=0@pitchwheel channel=5 pitch=109 time=0@pitchwheel channel=0 pitch=136 time=0.012903233333333331@pitchwheel channel=1 pitch=136 time=0@pitchwheel channel=5 pitch=136 time=0@pitchwheel channel=0 pitch=150 time=0.012903233333333331@pitchwheel channel=1 pitch=150 time=0@pitchwheel channel=5 pitch=150 time=0@pitchwheel channel=0 pitch=163 time=0.012903233333333331@pitchwheel channel=1 pitch=163 time=0@pitchwheel channel=5 pitch=163 time=0@pitchwheel channel=0 pitch=177 time=0.012903233333333331@pitchwheel channel=1 pitch=177 time=0@pitchwheel channel=5 pitch=177 time=0@pitchwheel channel=0 pitch=191 time=0.012903233333333331@pitchwheel channel=1 pitch=191 time=0@pitchwheel channel=5 pitch=191 time=0@pitchwheel channel=0 pitch=204 time=0.012903233333333331@pitchwheel channel=1 pitch=204 time=0@pitchwheel channel=5 pitch=204 time=0@pitchwheel channel=0 pitch=218 time=0.012903233333333331@pitchwheel channel=1 pitch=218 time=0@pitchwheel channel=5 pitch=218 time=0@pitchwheel channel=0 pitch=232 time=0.012903233333333331@pitchwheel channel=1 pitch=232 time=0@pitchwheel channel=5 pitch=232 time=0@pitchwheel channel=0 pitch=245 time=0.012903233333333331@pitchwheel channel=1 pitch=245 time=0@pitchwheel channel=5 pitch=245 time=0@pitchwheel channel=0 pitch=273 time=0.012903233333333331@pitchwheel channel=1 pitch=273 time=0@pitchwheel channel=5 pitch=273 time=0@pitchwheel channel=0 pitch=286 time=0.012903233333333331@pitchwheel channel=1 pitch=286 time=0@pitchwheel channel=5 pitch=286 time=0@pitchwheel channel=0 pitch=300 time=0.012903233333333331@pitchwheel channel=1 pitch=300 time=0@pitchwheel channel=5 pitch=300 time=0@pitchwheel channel=0 pitch=314 time=0.012903233333333331@pitchwheel channel=1 pitch=314 time=0@pitchwheel channel=5 pitch=314 time=0@pitchwheel channel=0 pitch=327 time=0.012903233333333331@pitchwheel channel=1 pitch=327 time=0@pitchwheel channel=5 pitch=327 time=0@pitchwheel channel=0 pitch=341 time=0.012903233333333331@pitchwheel channel=1 pitch=341 time=0@pitchwheel channel=5 pitch=341 time=0@pitchwheel channel=0 pitch=354 time=0.012903233333333331@pitchwheel channel=1 pitch=354 time=0@pitchwheel channel=5 pitch=354 time=0@pitchwheel channel=0 pitch=368 time=0.012903233333333331@pitchwheel channel=1 pitch=368 time=0@pitchwheel channel=5 pitch=368 time=0@pitchwheel channel=0 pitch=382 time=0.012903233333333331@pitchwheel channel=1 pitch=382 time=0@pitchwheel channel=5 pitch=382 time=0@pitchwheel channel=0 pitch=409 time=0.012903233333333331@pitchwheel channel=1 pitch=409 time=0@pitchwheel channel=5 pitch=409 time=0@pitchwheel channel=0 pitch=423 time=0.012903233333333331@pitchwheel channel=1 pitch=423 time=0@pitchwheel channel=5 pitch=423 time=0@pitchwheel channel=0 pitch=436 time=0.012903233333333331@pitchwheel channel=1 pitch=436 time=0@pitchwheel channel=5 pitch=436 time=0@note_on channel=9 note=49 velocity=0 time=0.012096781249999999@note_on channel=9 note=36 velocity=0 time=0@pitchwheel channel=0 pitch=450 time=0.0008064520833333332@pitchwheel channel=1 pitch=450 time=0@pitchwheel channel=5 pitch=450 time=0@pitchwheel channel=0 pitch=464 time=0.012903233333333331@pitchwheel channel=1 pitch=464 time=0@pitchwheel channel=5 pitch=464 time=0@pitchwheel channel=0 pitch=477 time=0.012903233333333331@pitchwheel channel=1 pitch=477 time=0@pitchwheel channel=5 pitch=477 time=0@pitchwheel channel=0 pitch=491 time=0.012903233333333331@pitchwheel channel=1 pitch=491 time=0@pitchwheel channel=5 pitch=491 time=0@pitchwheel channel=0 pitch=505 time=0.012903233333333331@pitchwheel channel=1 pitch=505 time=0@pitchwheel channel=5 pitch=505 time=0@pitchwheel channel=0 pitch=518 time=0.012903233333333331@pitchwheel channel=1 pitch=518 time=0@pitchwheel channel=5 pitch=518 time=0@pitchwheel channel=0 pitch=546 time=0.012903233333333331@pitchwheel channel=1 pitch=546 time=0@pitchwheel channel=5 pitch=546 time=0@pitchwheel channel=0 pitch=559 time=0.012903233333333331@pitchwheel channel=1 pitch=559 time=0@pitchwheel channel=5 pitch=559 time=0@pitchwheel channel=0 pitch=573 time=0.012903233333333331@pitchwheel channel=1 pitch=573 time=0@pitchwheel channel=5 pitch=573 time=0@pitchwheel channel=0 pitch=587 time=0.012903233333333331@pitchwheel channel=1 pitch=587 time=0@pitchwheel channel=5 pitch=587 time=0@pitchwheel channel=0 pitch=600 time=0.012903233333333331@pitchwheel channel=1 pitch=600 time=0@pitchwheel channel=5 pitch=600 time=0@pitchwheel channel=0 pitch=614 time=0.012903233333333331@pitchwheel channel=1 pitch=614 time=0@pitchwheel channel=5 pitch=614 time=0@pitchwheel channel=0 pitch=628 time=0.012903233333333331@pitchwheel channel=1 pitch=628 time=0@pitchwheel channel=5 pitch=628 time=0@note_on channel=0 note=73 velocity=0 time=0.008870972916666666@pitchwheel channel=0 pitch=641 time=0.004032260416666666@pitchwheel channel=1 pitch=641 time=0@pitchwheel channel=5 pitch=641 time=0@pitchwheel channel=0 pitch=655 time=0.012903233333333331@pitchwheel channel=1 pitch=655 time=0@pitchwheel channel=5 pitch=655 time=0@note_on channel=1 note=73 velocity=0 time=0.012096781249999999@note_on channel=5 note=73 velocity=0 time=0@note_on channel=7 note=43 velocity=0 time=0@note_on channel=8 note=43 velocity=0 time=0@pitchwheel channel=0 pitch=682 time=0.0008064520833333332@pitchwheel channel=0 pitch=0 time=0@note_on channel=0 note=74 velocity=80 time=0@pitchwheel channel=1 pitch=682 time=0@pitchwheel channel=1 pitch=0 time=0@note_on channel=1 note=74 velocity=64 time=0@pitchwheel channel=5 pitch=682 time=0@pitchwheel channel=5 pitch=0 time=0@note_on channel=5 note=74 velocity=64 time=0@note_on channel=7 note=43 velocity=64 time=0@note_on channel=8 note=43 velocity=64 time=0@note_on channel=0 note=74 velocity=0 time=0.18306462291666664@note_on channel=1 note=74 velocity=0 time=0.009677424999999998@note_on channel=5 note=74 velocity=0 time=0@note_on channel=7 note=43 velocity=0 time=0@note_on channel=8 note=43 velocity=0 time=0@note_on channel=7 note=43 velocity=64 time=0.0008064520833333332@note_on channel=8 note=43 velocity=64 time=0@note_on channel=9 note=36 velocity=126 time=0@note_on channel=0 note=74 velocity=80 time=0.19354849999999998@note_on channel=1 note=74 velocity=64 time=0@note_on channel=5 note=74 velocity=64 time=0@note_on channel=0 note=74 velocity=0 time=0.09112908541666666@note_on channel=1 note=74 velocity=0 time=0.004838712499999999@note_on channel=5 note=74 velocity=0 time=0@note_on channel=7 note=43 velocity=0 time=0.09677424999999999@note_on channel=8 note=43 velocity=0 time=0@note_on channel=9 note=36 velocity=0 time=0@note_on channel=0 note=74 velocity=80 time=0.0008064520833333332@note_on channel=1 note=74 velocity=64 time=0@note_on channel=5 note=74 velocity=64 time=0@note_on channel=7 note=43 velocity=64 time=0@note_on channel=8 note=43 velocity=64 time=0@note_on channel=0 note=74 velocity=0 time=0.09112908541666666@note_on channel=1 note=74 velocity=0 time=0.004838712499999999@note_on channel=5 note=74 velocity=0 time=0@note_on channel=0 note=74 velocity=80 time=0.09758070208333332@note_on channel=1 note=74 velocity=64 time=0@note_on channel=5 note=74 velocity=64 time=0@note_on channel=0 note=74 velocity=0 time=0.09112908541666666@note_on channel=1 note=74 velocity=0 time=0.004838712499999999@note_on channel=5 note=74 velocity=0 time=0@note_on channel=0 note=72 velocity=80 time=0.0008064520833333332@note_on channel=1 note=72 velocity=64 time=0@note_on channel=5 note=72 velocity=64 time=0@note_on channel=0 note=72 velocity=0 time=0.09112908541666666@note_on channel=1 note=72 velocity=0 time=0.004838712499999999@note_on channel=5 note=72 velocity=0 time=0@note_on channel=7 note=43 velocity=0 time=0@note_on channel=8 note=43 velocity=0 time=0@note_on channel=0 note=74 velocity=80 time=0.0008064520833333332@note_on channel=1 note=74 velocity=64 time=0@note_on channel=5 note=74 velocity=64 time=0@note_on channel=7 note=45 velocity=64 time=0@note_on channel=8 note=45 velocity=64 time=0@note_on channel=9 note=36 velocity=126 time=0@note_on channel=0 note=74 velocity=0 time=0.09112908541666666@note_on channel=1 note=74 velocity=0 time=0.004838712499999999@note_on channel=5 note=74 velocity=0 time=0@note_on channel=0 note=72 velocity=80 time=0.0008064520833333332@note_on channel=1 note=72 velocity=64 time=0@note_on channel=5 note=72 velocity=64 time=0@note_on channel=0 note=72 velocity=0 time=0.09112908541666666@note_on channel=1 note=72 velocity=0 time=0.004838712499999999@note_on channel=5 note=72 velocity=0 time=0@note_on channel=0 note=69 velocity=80 time=0.0008064520833333332@note_on channel=1 note=69 velocity=64 time=0@note_on channel=5 note=69 velocity=64 time=0@note_on channel=9 note=36 velocity=0 time=0.19274204791666663@note_on channel=0 note=69 velocity=0 time=0.17419364999999998@note_on channel=1 note=69 velocity=0 time=0.019354849999999996@note_on channel=5 note=69 velocity=0 time=0@note_on channel=7 note=45 velocity=0 time=0@note_on channel=8 note=45 velocity=0 time=0@note_on channel=0 note=67 velocity=80 time=0.0008064520833333332@note_on channel=1 note=67 velocity=64 time=0@note_on channel=5 note=67 velocity=64 time=0@note_on channel=7 note=45 velocity=64 time=0@note_on channel=8 note=45 velocity=64 time=0@note_on channel=0 note=67 velocity=0 time=0.09112908541666666@note_on channel=1 note=67 velocity=0 time=0.004838712499999999@note_on channel=5 note=67 velocity=0 time=0@note_on channel=0 note=69 velocity=80 time=0.0008064520833333332@note_on channel=1 note=69 velocity=64 time=0@note_on channel=5 note=69 velocity=64 time=0@note_on channel=0 note=69 velocity=0 time=0.09112908541666666@note_on channel=1 note=69 velocity=0 time=0.004838712499999999@note_on channel=5 note=69 velocity=0 time=0@note_on channel=7 note=45 velocity=0 time=0@note_on channel=8 note=45 velocity=0 time=0@note_on channel=0 note=70 velocity=80 time=0.0008064520833333332@note_on channel=1 note=70 velocity=64 time=0@note_on channel=5 note=70 velocity=64 time=0@note_on channel=7 note=45 velocity=64 time=0@note_on channel=8 note=45 velocity=64 time=0@note_on channel=9 note=36 velocity=126 time=0@note_on channel=0 note=70 velocity=0 time=0.18306462291666664@note_on channel=1 note=70 velocity=0 time=0.009677424999999998@note_on channel=5 note=70 velocity=0 time=0@note_on channel=0 note=72 velocity=80 time=0.0008064520833333332@note_on channel=1 note=72 velocity=64 time=0@note_on channel=5 note=72 velocity=64 time=0@note_on channel=0 note=72 velocity=0 time=0.09112908541666666@note_on channel=1 note=72 velocity=0 time=0.004838712499999999@note_on channel=5 note=72 velocity=0 time=0@note_on channel=0 note=74 velocity=80 time=0.0008064520833333332@note_on channel=1 note=74 velocity=64 time=0@note_on channel=5 note=74 velocity=64 time=0@note_on channel=0 note=74 velocity=0 time=0.09112908541666666@note_on channel=1 note=74 velocity=0 time=0.004838712499999999@note_on channel=5 note=74 velocity=0 time=0@note_on channel=7 note=45 velocity=0 time=0@note_on channel=8 note=45 velocity=0 time=0@note_on channel=9 note=36 velocity=0 time=0@note_on channel=0 note=72 velocity=80 time=0.0008064520833333332@note_on channel=1 note=72 velocity=64 time=0@note_on channel=5 note=72 velocity=64 time=0@note_on channel=7 note=45 velocity=64 time=0@note_on channel=8 note=45 velocity=64 time=0@note_on channel=0 note=72 velocity=0 time=0.18306462291666664@note_on channel=1 note=72 velocity=0 time=0.009677424999999998@note_on channel=5 note=72 velocity=0 time=0@note_on channel=0 note=70 velocity=80 time=0.0008064520833333332@note_on channel=1 note=70 velocity=64 time=0@note_on channel=5 note=70 velocity=64 time=0@note_on channel=0 note=70 velocity=0 time=0.18306462291666664@note_on channel=1 note=70 velocity=0 time=0.009677424999999998@note_on channel=5 note=70 velocity=0 time=0@note_on channel=7 note=45 velocity=0 time=0@note_on channel=8 note=45 velocity=0 time=0@note_on channel=0 note=67 velocity=80 time=0.0008064520833333332@note_on channel=1 note=67 velocity=64 time=0@note_on channel=5 note=67 velocity=64 time=0@note_on channel=7 note=46 velocity=64 time=0@note_on channel=8 note=46 velocity=64 time=0@note_on channel=9 note=36 velocity=126 time=0@note_on channel=0 note=67 velocity=0 time=0.18306462291666664@note_on channel=1 note=67 velocity=0 time=0.009677424999999998@note_on channel=5 note=67 velocity=0 time=0@note_on channel=0 note=62 velocity=80 time=0.0008064520833333332@note_on channel=1 note=62 velocity=64 time=0@note_on channel=5 note=62 velocity=64 time=0@note_on channel=0 note=62 velocity=0 time=0.18306462291666664@note_on channel=1 note=62 velocity=0 time=0.009677424999999998@note_on channel=5 note=62 velocity=0 time=0@note_on channel=9 note=36 velocity=0 time=0@note_on channel=0 note=67 velocity=80 time=0.0008064520833333332@note_on channel=1 note=67 velocity=64 time=0@note_on channel=5 note=67 velocity=64 time=0@note_on channel=0 note=67 velocity=0 time=0.18306462291666664@note_on channel=1 note=67 velocity=0 time=0.009677424999999998@note_on channel=5 note=67 velocity=0 time=0@note_on channel=7 note=46 velocity=0 time=0@note_on channel=8 note=46 velocity=0 time=0@note_on channel=0 note=69 velocity=80 time=0.0008064520833333332@note_on channel=1 note=69 velocity=64 time=0@note_on channel=5 note=69 velocity=64 time=0@note_on channel=7 note=46 velocity=64 time=0@note_on channel=8 note=46 velocity=64 time=0@note_on channel=0 note=69 velocity=0 time=0.18306462291666664@note_on channel=1 note=69 velocity=0 time=0.009677424999999998@note_on channel=5 note=69 velocity=0 time=0@note_on channel=7 note=46 velocity=0 time=0@note_on channel=8 note=46 velocity=0 time=0@note_on channel=0 note=70 velocity=80 time=0.0008064520833333332@note_on channel=1 note=70 velocity=64 time=0@note_on channel=5 note=70 velocity=64 time=0@note_on channel=7 note=46 velocity=64 time=0@note_on channel=8 note=46 velocity=64 time=0@note_on channel=9 note=36 velocity=126 time=0@note_on channel=0 note=70 velocity=0 time=0.18306462291666664@note_on channel=1 note=70 velocity=0 time=0.009677424999999998@note_on channel=5 note=70 velocity=0 time=0@note_on channel=0 note=72 velocity=80 time=0.0008064520833333332@note_on channel=1 note=72 velocity=64 time=0@note_on channel=5 note=72 velocity=64 time=0@note_on channel=0 note=72 velocity=0 time=0.18306462291666664@note_on channel=1 note=72 velocity=0 time=0.009677424999999998@note_on channel=5 note=72 velocity=0 time=0@note_on channel=7 note=46 velocity=0 time=0@note_on channel=8 note=46 velocity=0 time=0@note_on channel=9 note=36 velocity=0 time=0@note_on channel=0 note=74 velocity=80 time=0.0008064520833333332@note_on channel=1 note=74 velocity=64 time=0@note_on channel=5 note=74 velocity=64 time=0@note_on channel=7 note=46 velocity=64 time=0@note_on channel=8 note=46 velocity=64 time=0@note_on channel=0 note=74 velocity=0 time=0.18306462291666664@note_on channel=1 note=74 velocity=0 time=0.009677424999999998@note_on channel=5 note=74 velocity=0 time=0@note_on channel=0 note=79 velocity=80 time=0.0008064520833333332@note_on channel=1 note=79 velocity=64 time=0@note_on channel=5 note=79 velocity=64 time=0@note_on channel=0 note=79 velocity=0 time=0.18306462291666664@note_on channel=1 note=79 velocity=0 time=0.009677424999999998@note_on channel=5 note=79 velocity=0 time=0@note_on channel=7 note=46 velocity=0 time=0@note_on channel=8 note=46 velocity=0 time=0@note_on channel=0 note=78 velocity=80 time=0.0008064520833333332@note_on channel=1 note=78 velocity=64 time=0@note_on channel=5 note=78 velocity=64 time=0@note_on channel=7 note=48 velocity=64 time=0@note_on channel=8 note=48 velocity=64 time=0@note_on channel=9 note=38 velocity=126 time=0@note_on channel=9 note=36 velocity=126 time=0@note_on channel=9 note=38 velocity=0 time=0.12822588124999998@note_on channel=9 note=38 velocity=126 time=0.0008064520833333332@note_on channel=0 note=78 velocity=0 time=0.05403228958333332@note_on channel=1 note=78 velocity=0 time=0.009677424999999998@note_on channel=5 note=78 velocity=0 time=0@note_on channel=0 note=74 velocity=80 time=0.0008064520833333332@note_on channel=1 note=74 velocity=64 time=0@note_on channel=5 note=74 velocity=64 time=0@note_on channel=9 note=38 velocity=0 time=0.06370971458333333@note_on channel=9 note=38 velocity=126 time=0.0008064520833333332@note_on channel=0 note=74 velocity=0 time=0.11854845624999999@note_on channel=1 note=74 velocity=0 time=0.009677424999999998@note_on channel=5 note=74 velocity=0 time=0@note_on channel=9 note=36 velocity=0 time=0@note_on channel=9 note=38 velocity=0 time=0@note_on channel=0 note=78 velocity=80 time=0.0008064520833333332@note_on channel=1 note=78 velocity=64 time=0@note_on channel=5 note=78 velocity=64 time=0@note_on channel=9 note=48 velocity=126 time=0@note_on channel=9 note=48 velocity=0 time=0.12822588124999998@note_on channel=9 note=48 velocity=126 time=0.0008064520833333332@note_on channel=0 note=78 velocity=0 time=0.05403228958333332@note_on channel=1 note=78 velocity=0 time=0.009677424999999998@note_on channel=5 note=78 velocity=0 time=0@note_on channel=7 note=48 velocity=0 time=0@note_on channel=8 note=48 velocity=0 time=0@note_on channel=0 note=79 velocity=80 time=0.0008064520833333332@note_on channel=1 note=79 velocity=64 time=0@note_on channel=5 note=79 velocity=64 time=0@note_on channel=7 note=48 velocity=64 time=0@note_on channel=8 note=48 velocity=64 time=0@note_on channel=9 note=48 velocity=0 time=0.06370971458333333@note_on channel=9 note=48 velocity=126 time=0.0008064520833333332@note_on channel=0 note=79 velocity=0 time=0.11854845624999999@note_on channel=1 note=79 velocity=0 time=0.009677424999999998@note_on channel=5 note=79 velocity=0 time=0@note_on channel=7 note=48 velocity=0 time=0@note_on channel=8 note=48 velocity=0 time=0@note_on channel=9 note=48 velocity=0 time=0@note_on channel=0 note=81 velocity=80 time=0.0008064520833333332@note_on channel=1 note=81 velocity=64 time=0@note_on channel=5 note=69 velocity=64 time=0@note_on channel=7 note=50 velocity=64 time=0@note_on channel=8 note=50 velocity=64 time=0@note_on channel=9 note=47 velocity=126 time=0@note_on channel=9 note=36 velocity=126 time=0@note_on channel=9 note=47 velocity=0 time=0.12822588124999998@note_on channel=9 note=47 velocity=126 time=0.0008064520833333332@note_on channel=0 note=81 velocity=0 time=0.05403228958333332@note_on channel=1 note=81 velocity=0 time=0.009677424999999998@note_on channel=5 note=69 velocity=0 time=0@note_on channel=0 note=82 velocity=80 time=0.0008064520833333332@note_on channel=1 note=82 velocity=64 time=0@note_on channel=5 note=70 velocity=64 time=0@note_on channel=9 note=47 velocity=0 time=0.06370971458333333@note_on channel=9 note=47 velocity=126 time=0.0008064520833333332@note_on channel=0 note=82 velocity=0 time=0.11854845624999999@note_on channel=1 note=82 velocity=0 time=0.009677424999999998@note_on channel=5 note=70 velocity=0 time=0@note_on channel=7 note=50 velocity=0 time=0@note_on channel=8 note=50 velocity=0 time=0@note_on channel=9 note=36 velocity=0 time=0@note_on channel=9 note=47 velocity=0 time=0@note_on channel=0 note=84 velocity=80 time=0.0008064520833333332@note_on channel=1 note=84 velocity=64 time=0@note_on channel=5 note=72 velocity=64 time=0@note_on channel=7 note=50 velocity=64 time=0@note_on channel=8 note=50 velocity=64 time=0@note_on channel=9 note=41 velocity=126 time=0@note_on channel=9 note=41 velocity=0 time=0.12822588124999998@note_on channel=9 note=41 velocity=126 time=0.0008064520833333332@note_on channel=0 note=84 velocity=0 time=0.05403228958333332@note_on channel=1 note=84 velocity=0 time=0.009677424999999998@note_on channel=5 note=72 velocity=0 time=0@note_on channel=0 note=86 velocity=80 time=0.0008064520833333332@note_on channel=1 note=86 velocity=64 time=0@note_on channel=5 note=74 velocity=64 time=0@note_on channel=9 note=41 velocity=0 time=0.06370971458333333@note_on channel=9 note=41 velocity=126 time=0.0008064520833333332@note_on channel=0 note=86 velocity=0 time=0.11854845624999999@note_on channel=1 note=86 velocity=0 time=0.009677424999999998@note_on channel=5 note=74 velocity=0 time=0@note_on channel=7 note=50 velocity=0 time=0@note_on channel=8 note=50 velocity=0 time=0@note_on channel=9 note=41 velocity=0 time=0@note_on channel=0 note=75 velocity=80 time=0.0008064520833333332@note_on channel=1 note=75 velocity=80 time=0@note_on channel=2 note=67 velocity=64 time=0@note_on channel=4 note=67 velocity=64 time=0@note_on channel=5 note=75 velocity=80 time=0@note_on channel=7 note=50 velocity=64 time=0@note_on channel=8 note=38 velocity=64 time=0@note_on channel=9 note=49 velocity=126 time=0@note_on channel=9 note=36 velocity=126 time=0@note_on channel=10 note=79 velocity=96 time=0@note_on channel=2 note=67 velocity=0 time=0.19274204791666663@note_on channel=4 note=67 velocity=0 time=0@note_on channel=7 note=50 velocity=0 time=0@note_on channel=8 note=38 velocity=0 time=0@note_on channel=10 note=79 velocity=0 time=0@note_on channel=2 note=58 velocity=64 time=0.0008064520833333332@note_on channel=4 note=58 velocity=64 time=0@note_on channel=7 note=51 velocity=64 time=0@note_on channel=8 note=39 velocity=64 time=0@note_on channel=10 note=70 velocity=96 time=0@note_on channel=2 note=58 velocity=0 time=0.19274204791666663@note_on channel=4 note=58 velocity=0 time=0@note_on channel=9 note=49 velocity=0 time=0@note_on channel=9 note=36 velocity=0 time=0@note_on channel=10 note=70 velocity=0 time=0@note_on channel=2 note=63 velocity=64 time=0.0008064520833333332@note_on channel=4 note=63 velocity=64 time=0@note_on channel=9 note=40 velocity=126 time=0@note_on channel=9 note=55 velocity=126 time=0@note_on channel=10 note=75 velocity=96 time=0@note_on channel=0 note=75 velocity=0 time=0.16370977291666663@note_on channel=1 note=75 velocity=0 time=0.029032274999999996@note_on channel=2 note=63 velocity=0 time=0@note_on channel=4 note=63 velocity=0 time=0@note_on channel=5 note=75 velocity=0 time=0@note_on channel=7 note=51 velocity=0 time=0@note_on channel=8 note=39 velocity=0 time=0@note_on channel=10 note=75 velocity=0 time=0@note_on channel=0 note=75 velocity=80 time=0.0008064520833333332@note_on channel=1 note=75 velocity=80 time=0@note_on channel=2 note=58 velocity=64 time=0@note_on channel=4 note=58 velocity=64 time=0@note_on channel=5 note=75 velocity=80 time=0@note_on channel=7 note=51 velocity=64 time=0@note_on channel=8 note=39 velocity=64 time=0@note_on channel=10 note=70 velocity=96 time=0@note_on channel=0 note=75 velocity=0 time=0.18306462291666664@note_on channel=1 note=75 velocity=0 time=0.009677424999999998@note_on channel=2 note=58 velocity=0 time=0@note_on channel=4 note=58 velocity=0 time=0@note_on channel=5 note=75 velocity=0 time=0@note_on channel=9 note=40 velocity=0 time=0@note_on channel=9 note=55 velocity=0 time=0@note_on channel=10 note=70 velocity=0 time=0@note_on channel=0 note=75 velocity=80 time=0.0008064520833333332@note_on channel=1 note=75 velocity=80 time=0@note_on channel=2 note=65 velocity=64 time=0@note_on channel=4 note=65 velocity=64 time=0@note_on channel=5 note=75 velocity=80 time=0@note_on channel=9 note=36 velocity=126 time=0@note_on channel=10 note=77 velocity=96 time=0@note_on channel=2 note=65 velocity=0 time=0.19274204791666663@note_on channel=4 note=65 velocity=0 time=0@note_on channel=7 note=51 velocity=0 time=0@note_on channel=8 note=39 velocity=0 time=0@note_on channel=10 note=77 velocity=0 time=0@note_on channel=2 note=58 velocity=64 time=0.0008064520833333332@note_on channel=4 note=58 velocity=64 time=0@note_on channel=7 note=51 velocity=64 time=0@note_on channel=8 note=39 velocity=64 time=0@note_on channel=10 note=70 velocity=96 time=0@note_on channel=0 note=75 velocity=0 time=0.050806481249999993@note_on channel=1 note=75 velocity=0 time=0.012903233333333331@note_on channel=5 note=75 velocity=0 time=0@note_on channel=0 note=75 velocity=80 time=0.0008064520833333332@note_on channel=1 note=75 velocity=80 time=0@note_on channel=5 note=75 velocity=80 time=0@note_on channel=2 note=58 velocity=0 time=0.12822588124999998@note_on channel=4 note=58 velocity=0 time=0@note_on channel=9 note=36 velocity=0 time=0@note_on channel=10 note=70 velocity=0 time=0@note_on channel=2 note=67 velocity=64 time=0.0008064520833333332@note_on channel=4 note=67 velocity=64 time=0@note_on channel=9 note=40 velocity=126 time=0@note_on channel=9 note=55 velocity=126 time=0@note_on channel=10 note=79 velocity=96 time=0@note_on channel=0 note=75 velocity=0 time=0.11532264791666665@note_on channel=1 note=75 velocity=0 time=0.012903233333333331@note_on channel=5 note=75 velocity=0 time=0@note_on channel=0 note=75 velocity=80 time=0.0008064520833333332@note_on channel=1 note=75 velocity=80 time=0@note_on channel=5 note=75 velocity=80 time=0@note_on channel=2 note=67 velocity=0 time=0.06370971458333333@note_on channel=4 note=67 velocity=0 time=0@note_on channel=7 note=51 velocity=0 time=0@note_on channel=8 note=39 velocity=0 time=0@note_on channel=10 note=79 velocity=0 time=0@note_on channel=2 note=58 velocity=64 time=0.0008064520833333332@note_on channel=4 note=58 velocity=64 time=0@note_on channel=7 note=51 velocity=64 time=0@note_on channel=8 note=39 velocity=64 time=0@note_on channel=10 note=70 velocity=96 time=0@note_on channel=0 note=75 velocity=0 time=0.1798388145833333@note_on channel=1 note=75 velocity=0 time=0.012903233333333331@note_on channel=2 note=58 velocity=0 time=0@note_on channel=4 note=58 velocity=0 time=0@note_on channel=5 note=75 velocity=0 time=0@note_on channel=9 note=40 velocity=0 time=0@note_on channel=9 note=55 velocity=0 time=0@note_on channel=10 note=70 velocity=0 time=0@note_on channel=0 note=74 velocity=80 time=0.0008064520833333332@note_on channel=1 note=74 velocity=80 time=0@note_on channel=2 note=69 velocity=64 time=0@note_on channel=4 note=69 velocity=64 time=0@note_on channel=5 note=74 velocity=80 time=0@note_on channel=9 note=36 velocity=126 time=0@note_on channel=10 note=81 velocity=96 time=0@note_on channel=2 note=69 velocity=0 time=0.19274204791666663@note_on channel=4 note=69 velocity=0 time=0@note_on channel=7 note=51 velocity=0 time=0@note_on channel=8 note=39 velocity=0 time=0@note_on channel=10 note=81 velocity=0 time=0@note_on channel=2 note=60 velocity=64 time=0.0008064520833333332@note_on channel=4 note=60 velocity=64 time=0@note_on channel=7 note=50 velocity=64 time=0@note_on channel=8 note=38 velocity=64 time=0@note_on channel=10 note=72 velocity=96 time=0@note_on channel=2 note=60 velocity=0 time=0.19274204791666663@note_on channel=4 note=60 velocity=0 time=0@note_on channel=9 note=36 velocity=0 time=0@note_on channel=10 note=72 velocity=0 time=0@note_on channel=2 note=62 velocity=64 time=0.0008064520833333332@note_on channel=4 note=62 velocity=64 time=0@note_on channel=9 note=40 velocity=126 time=0@note_on channel=9 note=55 velocity=126 time=0@note_on channel=10 note=74 velocity=96 time=0@note_on channel=2 note=62 velocity=0 time=0.19274204791666663@note_on channel=4 note=62 velocity=0 time=0@note_on channel=7 note=50 velocity=0 time=0@note_on channel=8 note=38 velocity=0 time=0@note_on channel=10 note=74 velocity=0 time=0@note_on channel=2 note=60 velocity=64 time=0.0008064520833333332@note_on channel=4 note=60 velocity=64 time=0@note_on channel=7 note=50 velocity=64 time=0@note_on channel=8 note=38 velocity=64 time=0@note_on channel=10 note=72 velocity=96 time=0@note_on channel=0 note=74 velocity=0 time=0.15403234791666665@note_on channel=1 note=74 velocity=0 time=0.03870969999999999@note_on channel=2 note=60 velocity=0 time=0@note_on channel=4 note=60 velocity=0 time=0@note_on channel=5 note=74 velocity=0 time=0@note_on channel=9 note=40 velocity=0 time=0@note_on channel=9 note=55 velocity=0 time=0@note_on channel=10 note=72 velocity=0 time=0@note_on channel=0 note=75 velocity=80 time=0.0008064520833333332@note_on channel=1 note=75 velocity=80 time=0@note_on channel=2 note=66 velocity=64 time=0@note_on channel=4 note=66 velocity=64 time=0@note_on channel=5 note=75 velocity=80 time=0@note_on channel=9 note=36 velocity=126 time=0@note_on channel=10 note=78 velocity=96 time=0@note_on channel=0 note=75 velocity=0 time=0.09112908541666666@note_on channel=1 note=75 velocity=0 time=0.004838712499999999@note_on channel=5 note=75 velocity=0 time=0@note_on channel=0 note=74 velocity=80 time=0.0008064520833333332@note_on channel=1 note=74 velocity=80 time=0@note_on channel=5 note=74 velocity=80 time=0@note_on channel=0 note=74 velocity=0 time=0.09112908541666666@note_on channel=1 note=74 velocity=0 time=0.004838712499999999@note_on channel=2 note=66 velocity=0 time=0@note_on channel=4 note=66 velocity=0 time=0@note_on channel=5 note=74 velocity=0 time=0@note_on channel=7 note=50 velocity=0 time=0@note_on channel=8 note=38 velocity=0 time=0@note_on channel=10 note=78 velocity=0 time=0@note_on channel=0 note=72 velocity=80 time=0.0008064520833333332@note_on channel=1 note=72 velocity=80 time=0@note_on channel=2 note=60 velocity=64 time=0@note_on channel=4 note=60 velocity=64 time=0@note_on channel=5 note=72 velocity=80 time=0@note_on channel=7 note=48 velocity=64 time=0@note_on channel=8 note=36 velocity=64 time=0@note_on channel=10 note=72 velocity=96 time=0@note_on channel=2 note=60 velocity=0 time=0.19274204791666663@note_on channel=4 note=60 velocity=0 time=0@note_on channel=9 note=36 velocity=0 time=0@note_on channel=10 note=72 velocity=0 time=0@note_on channel=2 note=67 velocity=64 time=0.0008064520833333332@note_on channel=4 note=67 velocity=64 time=0@note_on channel=9 note=40 velocity=126 time=0@note_on channel=9 note=55 velocity=126 time=0@note_on channel=10 note=79 velocity=96 time=0@note_on channel=2 note=67 velocity=0 time=0.19274204791666663@note_on channel=4 note=67 velocity=0 time=0@note_on channel=7 note=48 velocity=0 time=0@note_on channel=8 note=36 velocity=0 time=0@note_on channel=10 note=79 velocity=0 time=0@note_on channel=2 note=60 velocity=64 time=0.0008064520833333332@note_on channel=4 note=60 velocity=64 time=0@note_on channel=7 note=48 velocity=64 time=0@note_on channel=8 note=36 velocity=64 time=0@note_on channel=10 note=72 velocity=96 time=0@note_on channel=0 note=72 velocity=0 time=0.16370977291666663@note_on channel=1 note=72 velocity=0 time=0.029032274999999996@note_on channel=2 note=60 velocity=0 time=0@note_on channel=4 note=60 velocity=0 time=0@note_on channel=5 note=72 velocity=0 time=0@note_on channel=9 note=40 velocity=0 time=0@note_on channel=9 note=55 velocity=0 time=0@note_on channel=10 note=72 velocity=0 time=0@note_on channel=0 note=67 velocity=80 time=0.0008064520833333332@note_on channel=1 note=67 velocity=80 time=0@note_on channel=2 note=70 velocity=64 time=0@note_on channel=4 note=70 velocity=64 time=0@note_on channel=5 note=67 velocity=80 time=0@note_on channel=9 note=36 velocity=126 time=0@note_on channel=10 note=82 velocity=96 time=0@note_on channel=0 note=67 velocity=0 time=0.18306462291666664@note_on channel=1 note=67 velocity=0 time=0.009677424999999998@note_on channel=2 note=70 velocity=0 time=0@note_on channel=4 note=70 velocity=0 time=0@note_on channel=5 note=67 velocity=0 time=0@note_on channel=7 note=48 velocity=0 time=0@note_on channel=8 note=36 velocity=0 time=0@note_on channel=10 note=82 velocity=0 time=0@note_on channel=0 note=66 velocity=80 time=0.0008064520833333332@note_on channel=1 note=66 velocity=80 time=0@note_on channel=2 note=62 velocity=64 time=0@note_on channel=4 note=62 velocity=64 time=0@note_on channel=5 note=66 velocity=80 time=0@note_on channel=7 note=43 velocity=64 time=0@note_on channel=8 note=31 velocity=64 time=0@note_on channel=10 note=74 velocity=96 time=0@note_on channel=0 note=66 velocity=0 time=0.18306462291666664@note_on channel=1 note=66 velocity=0 time=0.009677424999999998@note_on channel=2 note=62 velocity=0 time=0@note_on channel=4 note=62 velocity=0 time=0@note_on channel=5 note=66 velocity=0 time=0@note_on channel=9 note=36 velocity=0 time=0@note_on channel=10 note=74 velocity=0 time=0@note_on channel=0 note=67 velocity=80 time=0.0008064520833333332@note_on channel=1 note=67 velocity=80 time=0@note_on channel=2 note=67 velocity=64 time=0@note_on channel=4 note=67 velocity=64 time=0@note_on channel=5 note=67 velocity=80 time=0@note_on channel=9 note=40 velocity=126 time=0@note_on channel=9 note=57 velocity=126 time=0@note_on channel=10 note=79 velocity=96 time=0@note_on channel=0 note=67 velocity=0 time=0.18306462291666664@note_on channel=1 note=67 velocity=0 time=0.009677424999999998@note_on channel=2 note=67 velocity=0 time=0@note_on channel=4 note=67 velocity=0 time=0@note_on channel=5 note=67 velocity=0 time=0@note_on channel=7 note=43 velocity=0 time=0@note_on channel=8 note=31 velocity=0 time=0@note_on channel=10 note=79 velocity=0 time=0@note_on channel=0 note=69 velocity=80 time=0.0008064520833333332@note_on channel=1 note=69 velocity=80 time=0@note_on channel=2 note=62 velocity=64 time=0@note_on channel=4 note=62 velocity=64 time=0@note_on channel=5 note=69 velocity=80 time=0@note_on channel=7 note=43 velocity=64 time=0@note_on channel=8 note=31 velocity=64 time=0@note_on channel=10 note=74 velocity=96 time=0@note_on channel=0 note=69 velocity=0 time=0.18306462291666664@note_on channel=1 note=69 velocity=0 time=0.009677424999999998@note_on channel=2 note=62 velocity=0 time=0@note_on channel=4 note=62 velocity=0 time=0@note_on channel=5 note=69 velocity=0 time=0@note_on channel=9 note=40 velocity=0 time=0@note_on channel=9 note=57 velocity=0 time=0@note_on channel=10 note=74 velocity=0 time=0@note_on channel=0 note=70 velocity=80 time=0.0008064520833333332@note_on channel=1 note=70 velocity=80 time=0@note_on channel=2 note=69 velocity=64 time=0@note_on channel=4 note=69 velocity=64 time=0@note_on channel=5 note=70 velocity=80 time=0@note_on channel=9 note=36 velocity=126 time=0@note_on channel=10 note=81 velocity=96 time=0@note_on channel=0 note=70 velocity=0 time=0.18306462291666664@note_on channel=1 note=70 velocity=0 time=0.009677424999999998@note_on channel=2 note=69 velocity=0 time=0@note_on channel=4 note=69 velocity=0 time=0@note_on channel=5 note=70 velocity=0 time=0@note_on channel=7 note=43 velocity=0 time=0@note_on channel=8 note=31 velocity=0 time=0@note_on channel=10 note=81 velocity=0 time=0@note_on channel=0 note=69 velocity=80 time=0.0008064520833333332@note_on channel=1 note=69 velocity=80 time=0@note_on channel=2 note=62 velocity=64 time=0@note_on channel=4 note=62 velocity=64 time=0@note_on channel=5 note=69 velocity=80 time=0@note_on channel=7 note=45 velocity=64 time=0@note_on channel=8 note=33 velocity=64 time=0@note_on channel=10 note=74 velocity=96 time=0@note_on channel=0 note=69 velocity=0 time=0.18306462291666664@note_on channel=1 note=69 velocity=0 time=0.009677424999999998@note_on channel=2 note=62 velocity=0 time=0@note_on channel=4 note=62 velocity=0 time=0@note_on channel=5 note=69 velocity=0 time=0@note_on channel=9 note=36 velocity=0 time=0@note_on channel=10 note=74 velocity=0 time=0@note_on channel=0 note=70 velocity=80 time=0.0008064520833333332@note_on channel=1 note=70 velocity=80 time=0@note_on channel=2 note=66 velocity=64 time=0@note_on channel=4 note=66 velocity=64 time=0@note_on channel=5 note=70 velocity=80 time=0@note_on channel=9 note=40 velocity=126 time=0@note_on channel=9 note=57 velocity=126 time=0@note_on channel=10 note=78 velocity=96 time=0@note_on channel=0 note=70 velocity=0 time=0.18306462291666664@note_on channel=1 note=70 velocity=0 time=0.009677424999999998@note_on channel=2 note=66 velocity=0 time=0@note_on channel=4 note=66 velocity=0 time=0@note_on channel=5 note=70 velocity=0 time=0@note_on channel=7 note=45 velocity=0 time=0@note_on channel=8 note=33 velocity=0 time=0@note_on channel=10 note=78 velocity=0 time=0@note_on channel=0 note=72 velocity=80 time=0.0008064520833333332@note_on channel=1 note=72 velocity=80 time=0@note_on channel=2 note=62 velocity=64 time=0@note_on channel=4 note=62 velocity=64 time=0@note_on channel=5 note=72 velocity=80 time=0@note_on channel=7 note=45 velocity=64 time=0@note_on channel=8 note=33 velocity=64 time=0@note_on channel=10 note=74 velocity=96 time=0@note_on channel=0 note=72 velocity=0 time=0.18306462291666664@note_on channel=1 note=72 velocity=0 time=0.009677424999999998@note_on channel=2 note=62 velocity=0 time=0@note_on channel=4 note=62 velocity=0 time=0@note_on channel=5 note=72 velocity=0 time=0@note_on channel=9 note=40 velocity=0 time=0@note_on channel=9 note=57 velocity=0 time=0@note_on channel=10 note=74 velocity=0 time=0@note_on channel=0 note=70 velocity=80 time=0.0008064520833333332@note_on channel=1 note=70 velocity=80 time=0@note_on channel=2 note=67 velocity=64 time=0@note_on channel=4 note=67 velocity=64 time=0@note_on channel=5 note=70 velocity=80 time=0@note_on channel=9 note=36 velocity=126 time=0@note_on channel=10 note=79 velocity=96 time=0@note_on channel=2 note=67 velocity=0 time=0.19274204791666663@note_on channel=4 note=67 velocity=0 time=0@note_on channel=7 note=45 velocity=0 time=0@note_on channel=8 note=33 velocity=0 time=0@note_on channel=10 note=79 velocity=0 time=0@note_on channel=2 note=63 velocity=64 time=0.0008064520833333332@note_on channel=4 note=63 velocity=64 time=0@note_on channel=7 note=46 velocity=64 time=0@note_on channel=8 note=34 velocity=64 time=0@note_on channel=10 note=75 velocity=96 time=0@note_on channel=2 note=63 velocity=0 time=0.19274204791666663@note_on channel=4 note=63 velocity=0 time=0@note_on channel=9 note=36 velocity=0 time=0@note_on channel=10 note=75 velocity=0 time=0@note_on channel=2 note=67 velocity=64 time=0.0008064520833333332@note_on channel=4 note=67 velocity=64 time=0@note_on channel=9 note=40 velocity=126 time=0@note_on channel=9 note=55 velocity=126 time=0@note_on channel=10 note=79 velocity=96 time=0@note_on channel=0 note=70 velocity=0 time=0.16370977291666663@note_on channel=1 note=70 velocity=0 time=0.029032274999999996@note_on channel=2 note=67 velocity=0 time=0@note_on channel=4 note=67 velocity=0 time=0@note_on channel=5 note=70 velocity=0 time=0@note_on channel=7 note=46 velocity=0 time=0@note_on channel=8 note=34 velocity=0 time=0@note_on channel=10 note=79 velocity=0 time=0@note_on channel=0 note=70 velocity=80 time=0.0008064520833333332@note_on channel=1 note=70 velocity=80 time=0@note_on channel=2 note=63 velocity=64 time=0@note_on channel=4 note=63 velocity=64 time=0@note_on channel=5 note=70 velocity=80 time=0@note_on channel=7 note=46 velocity=64 time=0@note_on channel=8 note=34 velocity=64 time=0@note_on channel=10 note=75 velocity=96 time=0@note_on channel=0 note=70 velocity=0 time=0.18306462291666664@note_on channel=1 note=70 velocity=0 time=0.009677424999999998@note_on channel=2 note=63 velocity=0 time=0@note_on channel=4 note=63 velocity=0 time=0@note_on channel=5 note=70 velocity=0 time=0@note_on channel=9 note=40 velocity=0 time=0@note_on channel=9 note=55 velocity=0 time=0@note_on channel=10 note=75 velocity=0 time=0@note_on channel=0 note=70 velocity=80 time=0.0008064520833333332@note_on channel=1 note=70 velocity=80 time=0@note_on channel=2 note=67 velocity=64 time=0@note_on channel=4 note=67 velocity=64 time=0@note_on channel=5 note=70 velocity=80 time=0@note_on channel=9 note=36 velocity=126 time=0@note_on channel=10 note=79 velocity=96 time=0@note_on channel=2 note=67 velocity=0 time=0.19274204791666663@note_on channel=4 note=67 velocity=0 time=0@note_on channel=7 note=46 velocity=0 time=0@note_on channel=8 note=34 velocity=0 time=0@note_on channel=10 note=79 velocity=0 time=0@note_on channel=2 note=63 velocity=64 time=0.0008064520833333332@note_on channel=4 note=63 velocity=64 time=0@note_on channel=7 note=48 velocity=64 time=0@note_on channel=8 note=36 velocity=64 time=0@note_on channel=10 note=75 velocity=96 time=0@note_on channel=0 note=70 velocity=0 time=0.050806481249999993@note_on channel=1 note=70 velocity=0 time=0.012903233333333331@note_on channel=5 note=70 velocity=0 time=0@note_on channel=0 note=72 velocity=80 time=0.0008064520833333332@note_on channel=1 note=72 velocity=80 time=0@note_on channel=5 note=72 velocity=80 time=0@note_on channel=2 note=63 velocity=0 time=0.12822588124999998@note_on channel=4 note=63 velocity=0 time=0@note_on channel=9 note=36 velocity=0 time=0@note_on channel=10 note=75 velocity=0 time=0@note_on channel=2 note=67 velocity=64 time=0.0008064520833333332@note_on channel=4 note=67 velocity=64 time=0@note_on channel=9 note=40 velocity=126 time=0@note_on channel=9 note=55 velocity=126 time=0@note_on channel=10 note=79 velocity=96 time=0@note_on channel=0 note=72 velocity=0 time=0.11532264791666665@note_on channel=1 note=72 velocity=0 time=0.012903233333333331@note_on channel=5 note=72 velocity=0 time=0@note_on channel=0 note=70 velocity=80 time=0.0008064520833333332@note_on channel=1 note=70 velocity=80 time=0@note_on channel=5 note=70 velocity=80 time=0@note_on channel=2 note=67 velocity=0 time=0.06370971458333333@note_on channel=4 note=67 velocity=0 time=0@note_on channel=7 note=48 velocity=0 time=0@note_on channel=8 note=36 velocity=0 time=0@note_on channel=10 note=79 velocity=0 time=0@note_on channel=2 note=63 velocity=64 time=0.0008064520833333332@note_on channel=4 note=63 velocity=64 time=0@note_on channel=7 note=48 velocity=64 time=0@note_on channel=8 note=36 velocity=64 time=0@note_on channel=10 note=75 velocity=96 time=0@note_on channel=0 note=70 velocity=0 time=0.1798388145833333@note_on channel=1 note=70 velocity=0 time=0.012903233333333331@note_on channel=2 note=63 velocity=0 time=0@note_on channel=4 note=63 velocity=0 time=0@note_on channel=5 note=70 velocity=0 time=0@note_on channel=9 note=40 velocity=0 time=0@note_on channel=9 note=55 velocity=0 time=0@note_on channel=10 note=75 velocity=0 time=0@note_on channel=0 note=69 velocity=80 time=0.0008064520833333332@note_on channel=1 note=69 velocity=80 time=0@note_on channel=2 note=69 velocity=64 time=0@note_on channel=4 note=69 velocity=64 time=0@note_on channel=5 note=69 velocity=80 time=0@note_on channel=9 note=49 velocity=126 time=0@note_on channel=9 note=36 velocity=126 time=0@note_on channel=10 note=81 velocity=96 time=0@note_on channel=2 note=69 velocity=0 time=0.19274204791666663@note_on channel=4 note=69 velocity=0 time=0@note_on channel=7 note=48 velocity=0 time=0@note_on channel=8 note=36 velocity=0 time=0@note_on channel=10 note=81 velocity=0 time=0@note_on channel=2 note=62 velocity=64 time=0.0008064520833333332@note_on channel=4 note=62 velocity=64 time=0@note_on channel=7 note=50 velocity=64 time=0@note_on channel=8 note=38 velocity=64 time=0@note_on channel=10 note=74 velocity=96 time=0@note_on channel=2 note=62 velocity=0 time=0.19274204791666663@note_on channel=4 note=62 velocity=0 time=0@note_on channel=9 note=49 velocity=0 time=0@note_on channel=9 note=36 velocity=0 time=0@note_on channel=10 note=74 velocity=0 time=0@note_on channel=2 note=67 velocity=64 time=0.0008064520833333332@note_on channel=4 note=67 velocity=64 time=0@note_on channel=9 note=40 velocity=126 time=0@note_on channel=9 note=55 velocity=126 time=0@note_on channel=10 note=79 velocity=96 time=0@note_on channel=2 note=67 velocity=0 time=0.19274204791666663@note_on channel=4 note=67 velocity=0 time=0@note_on channel=7 note=50 velocity=0 time=0@note_on channel=8 note=38 velocity=0 time=0@note_on channel=10 note=79 velocity=0 time=0@note_on channel=2 note=62 velocity=64 time=0.0008064520833333332@note_on channel=4 note=62 velocity=64 time=0@note_on channel=7 note=50 velocity=64 time=0@note_on channel=8 note=38 velocity=64 time=0@note_on channel=10 note=74 velocity=96 time=0@note_on channel=2 note=62 velocity=0 time=0.19274204791666663@note_on channel=4 note=62 velocity=0 time=0@note_on channel=9 note=40 velocity=0 time=0@note_on channel=9 note=55 velocity=0 time=0@note_on channel=10 note=74 velocity=0 time=0@note_on channel=2 note=69 velocity=64 time=0.0008064520833333332@note_on channel=4 note=69 velocity=64 time=0@note_on channel=9 note=49 velocity=126 time=0@note_on channel=9 note=36 velocity=126 time=0@note_on channel=10 note=81 velocity=96 time=0@note_on channel=2 note=69 velocity=0 time=0.19274204791666663@note_on channel=4 note=69 velocity=0 time=0@note_on channel=7 note=50 velocity=0 time=0@note_on channel=8 note=38 velocity=0 time=0@note_on channel=10 note=81 velocity=0 time=0@note_on channel=2 note=62 velocity=64 time=0.0008064520833333332@note_on channel=4 note=62 velocity=64 time=0@note_on channel=7 note=50 velocity=64 time=0@note_on channel=8 note=38 velocity=64 time=0@note_on channel=10 note=74 velocity=96 time=0@note_on channel=2 note=62 velocity=0 time=0.19274204791666663@note_on channel=4 note=62 velocity=0 time=0@note_on channel=9 note=49 velocity=0 time=0@note_on channel=9 note=36 velocity=0 time=0@note_on channel=10 note=74 velocity=0 time=0@note_on channel=2 note=67 velocity=64 time=0.0008064520833333332@note_on channel=4 note=67 velocity=64 time=0@note_on channel=9 note=40 velocity=126 time=0@note_on channel=9 note=55 velocity=126 time=0@note_on channel=10 note=79 velocity=96 time=0@note_on channel=0 note=69 velocity=0 time=0.12500007291666665@note_on channel=1 note=69 velocity=0 time=0.067741975@note_on channel=2 note=67 velocity=0 time=0@note_on channel=4 note=67 velocity=0 time=0@note_on channel=5 note=69 velocity=0 time=0@note_on channel=7 note=50 velocity=0 time=0@note_on channel=8 note=38 velocity=0 time=0@note_on channel=10 note=79 velocity=0 time=0@note_on channel=0 note=66 velocity=80 time=0.0008064520833333332@note_on channel=1 note=66 velocity=80 time=0@note_on channel=2 note=62 velocity=64 time=0@note_on channel=4 note=62 velocity=64 time=0@note_on channel=5 note=66 velocity=80 time=0@note_on channel=7 note=50 velocity=64 time=0@note_on channel=8 note=38 velocity=64 time=0@note_on channel=10 note=74 velocity=96 time=0@note_on channel=0 note=66 velocity=0 time=0.09112908541666666@note_on channel=1 note=66 velocity=0 time=0.004838712499999999@note_on channel=5 note=66 velocity=0 time=0@note_on channel=0 note=64 velocity=80 time=0.0008064520833333332@note_on channel=1 note=64 velocity=80 time=0@note_on channel=5 note=64 velocity=80 time=0@note_on channel=0 note=64 velocity=0 time=0.09112908541666666@note_on channel=1 note=64 velocity=0 time=0.004838712499999999@note_on channel=2 note=62 velocity=0 time=0@note_on channel=4 note=62 velocity=0 time=0@note_on channel=5 note=64 velocity=0 time=0@note_on channel=9 note=40 velocity=0 time=0@note_on channel=9 note=55 velocity=0 time=0@note_on channel=10 note=74 velocity=0 time=0@note_on channel=0 note=66 velocity=80 time=0.0008064520833333332@note_on channel=1 note=66 velocity=80 time=0@note_on channel=2 note=69 velocity=64 time=0@note_on channel=4 note=69 velocity=64 time=0@note_on channel=5 note=66 velocity=80 time=0@note_on channel=9 note=49 velocity=126 time=0@note_on channel=9 note=36 velocity=126 time=0@note_on channel=10 note=81 velocity=96 time=0@note_on channel=2 note=69 velocity=0 time=0.19274204791666663@note_on channel=4 note=69 velocity=0 time=0@note_on channel=7 note=50 velocity=0 time=0@note_on channel=8 note=38 velocity=0 time=0@note_on channel=10 note=81 velocity=0 time=0@note_on channel=2 note=62 velocity=64 time=0.0008064520833333332@note_on channel=4 note=62 velocity=64 time=0@note_on channel=7 note=50 velocity=64 time=0@note_on channel=8 note=38 velocity=64 time=0@note_on channel=10 note=74 velocity=96 time=0@note_on channel=2 note=62 velocity=0 time=0.19274204791666663@note_on channel=4 note=62 velocity=0 time=0@note_on channel=9 note=49 velocity=0 time=0@note_on channel=9 note=36 velocity=0 time=0@note_on channel=10 note=74 velocity=0 time=0@note_on channel=2 note=66 velocity=64 time=0.0008064520833333332@note_on channel=4 note=66 velocity=64 time=0@note_on channel=9 note=40 velocity=126 time=0@note_on channel=9 note=55 velocity=126 time=0@note_on channel=10 note=78 velocity=96 time=0@note_on channel=2 note=66 velocity=0 time=0.19274204791666663@note_on channel=4 note=66 velocity=0 time=0@note_on channel=7 note=50 velocity=0 time=0@note_on channel=8 note=38 velocity=0 time=0@note_on channel=10 note=78 velocity=0 time=0@note_on channel=2 note=62 velocity=64 time=0.0008064520833333332@note_on channel=4 note=62 velocity=64 time=0@note_on channel=7 note=50 velocity=64 time=0@note_on channel=8 note=38 velocity=64 time=0@note_on channel=10 note=74 velocity=96 time=0@note_on channel=2 note=62 velocity=0 time=0.19274204791666663@note_on channel=4 note=62 velocity=0 time=0@note_on channel=9 note=40 velocity=0 time=0@note_on channel=9 note=55 velocity=0 time=0@note_on channel=10 note=74 velocity=0 time=0@note_on channel=2 note=69 velocity=64 time=0.0008064520833333332@note_on channel=4 note=69 velocity=64 time=0@note_on channel=9 note=49 velocity=126 time=0@note_on channel=9 note=36 velocity=126 time=0@note_on channel=10 note=81 velocity=96 time=0@note_on channel=2 note=69 velocity=0 time=0.19274204791666663@note_on channel=4 note=69 velocity=0 time=0@note_on channel=7 note=50 velocity=0 time=0@note_on channel=8 note=38 velocity=0 time=0@note_on channel=10 note=81 velocity=0 time=0@note_on channel=2 note=62 velocity=64 time=0.0008064520833333332@note_on channel=4 note=62 velocity=64 time=0@note_on channel=7 note=50 velocity=64 time=0@note_on channel=8 note=38 velocity=64 time=0@note_on channel=10 note=74 velocity=96 time=0@note_on channel=0 note=66 velocity=0 time=0.13467749791666664@note_on channel=1 note=66 velocity=0 time=0.05806454999999999@note_on channel=2 note=62 velocity=0 time=0@note_on channel=4 note=62 velocity=0 time=0@note_on channel=5 note=66 velocity=0 time=0@note_on channel=9 note=49 velocity=0 time=0@note_on channel=9 note=36 velocity=0 time=0@note_on channel=10 note=74 velocity=0 time=0@note_on channel=0 note=64 velocity=80 time=0.0008064520833333332@note_on channel=1 note=64 velocity=80 time=0@note_on channel=2 note=66 velocity=64 time=0@note_on channel=4 note=66 velocity=64 time=0@note_on channel=5 note=64 velocity=80 time=0@note_on channel=9 note=40 velocity=126 time=0@note_on channel=9 note=55 velocity=126 time=0@note_on channel=10 note=78 velocity=96 time=0@note_on channel=0 note=64 velocity=0 time=0.18306462291666664@note_on channel=1 note=64 velocity=0 time=0.009677424999999998@note_on channel=2 note=66 velocity=0 time=0@note_on channel=4 note=66 velocity=0 time=0@note_on channel=5 note=64 velocity=0 time=0@note_on channel=7 note=50 velocity=0 time=0@note_on channel=8 note=38 velocity=0 time=0@note_on channel=10 note=78 velocity=0 time=0@note_on channel=0 note=66 velocity=80 time=0.0008064520833333332@note_on channel=1 note=66 velocity=80 time=0@note_on channel=2 note=62 velocity=64 time=0@note_on channel=4 note=62 velocity=64 time=0@note_on channel=5 note=66 velocity=80 time=0@note_on channel=7 note=50 velocity=64 time=0@note_on channel=8 note=38 velocity=64 time=0@note_on channel=10 note=74 velocity=96 time=0@note_on channel=0 note=66 velocity=0 time=0.18306462291666664@note_on channel=1 note=66 velocity=0 time=0.009677424999999998@note_on channel=2 note=62 velocity=0 time=0@note_on channel=4 note=62 velocity=0 time=0@note_on channel=5 note=66 velocity=0 time=0@note_on channel=7 note=50 velocity=0 time=0@note_on channel=8 note=38 velocity=0 time=0@note_on channel=9 note=40 velocity=0 time=0@note_on channel=9 note=55 velocity=0 time=0@note_on channel=10 note=74 velocity=0 time=0@note_on channel=0 note=79 velocity=80 time=0.0008064520833333332@note_on channel=1 note=67 velocity=80 time=0@note_on channel=2 note=62 velocity=64 time=0@note_on channel=4 note=55 velocity=80 time=0@note_on channel=5 note=70 velocity=80 time=0@note_on channel=9 note=36 velocity=126 time=0@note_on channel=11 note=91 velocity=112 time=0@note_on channel=3 note=55 velocity=80 time=0.19354849999999998@note_on channel=7 note=43 velocity=64 time=0@note_on channel=8 note=43 velocity=64 time=0@note_on channel=9 note=36 velocity=0 time=0.19274204791666663@note_on channel=9 note=40 velocity=126 time=0.0008064520833333332@note_on channel=3 note=55 velocity=0 time=0.19274204791666663@note_on channel=7 note=43 velocity=0 time=0@note_on channel=8 note=43 velocity=0 time=0@note_on channel=3 note=55 velocity=80 time=0.0008064520833333332@note_on channel=7 note=43 velocity=64 time=0@note_on channel=8 note=43 velocity=64 time=0@note_on channel=9 note=40 velocity=0 time=0.19274204791666663@note_on channel=9 note=36 velocity=126 time=0.0008064520833333332@note_on channel=3 note=55 velocity=0 time=0.19274204791666663@note_on channel=7 note=43 velocity=0 time=0@note_on channel=8 note=43 velocity=0 time=0@note_on channel=3 note=55 velocity=80 time=0.0008064520833333332@note_on channel=7 note=43 velocity=64 time=0@note_on channel=8 note=43 velocity=64 time=0@note_on channel=9 note=36 velocity=0 time=0.19274204791666663@note_on channel=9 note=40 velocity=126 time=0.0008064520833333332@note_on channel=3 note=55 velocity=0 time=0.19274204791666663@note_on channel=7 note=43 velocity=0 time=0@note_on channel=8 note=43 velocity=0 time=0@note_on channel=3 note=55 velocity=80 time=0.0008064520833333332@note_on channel=7 note=43 velocity=64 time=0@note_on channel=8 note=43 velocity=64 time=0@note_on channel=0 note=79 velocity=0 time=0.11532264791666665@note_on channel=1 note=67 velocity=0 time=0.07741939999999999@note_on channel=2 note=62 velocity=0 time=0@note_on channel=3 note=55 velocity=0 time=0@note_on channel=4 note=55 velocity=0 time=0@note_on channel=5 note=70 velocity=0 time=0@note_on channel=7 note=43 velocity=0 time=0@note_on channel=8 note=43 velocity=0 time=0@note_on channel=9 note=40 velocity=0 time=0@note_on channel=11 note=91 velocity=0 time=0@note_on channel=0 note=78 velocity=80 time=0.0008064520833333332@note_on channel=1 note=66 velocity=80 time=0@note_on channel=2 note=62 velocity=64 time=0@note_on channel=4 note=54 velocity=80 time=0@note_on channel=5 note=69 velocity=80 time=0@note_on channel=9 note=36 velocity=126 time=0@note_on channel=11 note=90 velocity=112 time=0@note_on channel=3 note=54 velocity=80 time=0.19354849999999998@note_on channel=7 note=42 velocity=64 time=0@note_on channel=8 note=42 velocity=64 time=0@note_on channel=9 note=36 velocity=0 time=0.19274204791666663@note_on channel=9 note=40 velocity=126 time=0.0008064520833333332@note_on channel=3 note=54 velocity=0 time=0.19274204791666663@note_on channel=7 note=42 velocity=0 time=0@note_on channel=8 note=42 velocity=0 time=0@note_on channel=3 note=54 velocity=80 time=0.0008064520833333332@note_on channel=7 note=42 velocity=64 time=0@note_on channel=8 note=42 velocity=64 time=0@note_on channel=9 note=40 velocity=0 time=0.19274204791666663@note_on channel=9 note=36 velocity=126 time=0.0008064520833333332@note_on channel=3 note=54 velocity=0 time=0.19274204791666663@note_on channel=7 note=42 velocity=0 time=0@note_on channel=8 note=42 velocity=0 time=0@note_on channel=3 note=54 velocity=80 time=0.0008064520833333332@note_on channel=7 note=42 velocity=64 time=0@note_on channel=8 note=42 velocity=64 time=0@note_on channel=9 note=36 velocity=0 time=0.19274204791666663@note_on channel=9 note=40 velocity=126 time=0.0008064520833333332@note_on channel=3 note=54 velocity=0 time=0.19274204791666663@note_on channel=7 note=42 velocity=0 time=0@note_on channel=8 note=42 velocity=0 time=0@note_on channel=3 note=54 velocity=80 time=0.0008064520833333332@note_on channel=7 note=42 velocity=64 time=0@note_on channel=8 note=42 velocity=64 time=0@note_on channel=0 note=78 velocity=0 time=0.11532264791666665@note_on channel=1 note=66 velocity=0 time=0.07741939999999999@note_on channel=2 note=62 velocity=0 time=0@note_on channel=3 note=54 velocity=0 time=0@note_on channel=4 note=54 velocity=0 time=0@note_on channel=5 note=69 velocity=0 time=0@note_on channel=7 note=42 velocity=0 time=0@note_on channel=8 note=42 velocity=0 time=0@note_on channel=9 note=40 velocity=0 time=0@note_on channel=11 note=90 velocity=0 time=0@note_on channel=0 note=79 velocity=80 time=0.0008064520833333332@note_on channel=1 note=67 velocity=80 time=0@note_on channel=2 note=62 velocity=64 time=0@note_on channel=4 note=55 velocity=80 time=0@note_on channel=5 note=70 velocity=80 time=0@note_on channel=9 note=36 velocity=126 time=0@note_on channel=11 note=91 velocity=112 time=0@note_on channel=3 note=55 velocity=80 time=0.19354849999999998@note_on channel=7 note=43 velocity=64 time=0@note_on channel=8 note=43 velocity=64 time=0@note_on channel=9 note=36 velocity=0 time=0.19274204791666663@note_on channel=9 note=40 velocity=126 time=0.0008064520833333332@note_on channel=3 note=55 velocity=0 time=0.19274204791666663@note_on channel=7 note=43 velocity=0 time=0@note_on channel=8 note=43 velocity=0 time=0@note_on channel=3 note=55 velocity=80 time=0.0008064520833333332@note_on channel=7 note=43 velocity=64 time=0@note_on channel=8 note=43 velocity=64 time=0@note_on channel=0 note=79 velocity=0 time=0.15403234791666665@note_on channel=1 note=67 velocity=0 time=0.03870969999999999@note_on channel=2 note=62 velocity=0 time=0@note_on channel=3 note=55 velocity=0 time=0@note_on channel=4 note=55 velocity=0 time=0@note_on channel=5 note=70 velocity=0 time=0@note_on channel=7 note=43 velocity=0 time=0@note_on channel=8 note=43 velocity=0 time=0@note_on channel=9 note=40 velocity=0 time=0@note_on channel=11 note=91 velocity=0 time=0@note_on channel=0 note=78 velocity=80 time=0.0008064520833333332@note_on channel=1 note=66 velocity=80 time=0@note_on channel=2 note=62 velocity=64 time=0@note_on channel=4 note=54 velocity=80 time=0@note_on channel=5 note=69 velocity=80 time=0@note_on channel=9 note=36 velocity=126 time=0@note_on channel=11 note=90 velocity=112 time=0@note_on channel=3 note=54 velocity=80 time=0.19354849999999998@note_on channel=7 note=42 velocity=64 time=0@note_on channel=8 note=42 velocity=64 time=0@note_on channel=9 note=36 velocity=0 time=0.19274204791666663@note_on channel=9 note=40 velocity=126 time=0.0008064520833333332@note_on channel=3 note=54 velocity=0 time=0.19274204791666663@note_on channel=7 note=42 velocity=0 time=0@note_on channel=8 note=42 velocity=0 time=0@note_on channel=3 note=54 velocity=80 time=0.0008064520833333332@note_on channel=7 note=42 velocity=64 time=0@note_on channel=8 note=42 velocity=64 time=0@note_on channel=0 note=78 velocity=0 time=0.15403234791666665@note_on channel=1 note=66 velocity=0 time=0.03870969999999999@note_on channel=2 note=62 velocity=0 time=0@note_on channel=3 note=54 velocity=0 time=0@note_on channel=4 note=54 velocity=0 time=0@note_on channel=5 note=69 velocity=0 time=0@note_on channel=7 note=42 velocity=0 time=0@note_on channel=8 note=42 velocity=0 time=0@note_on channel=9 note=40 velocity=0 time=0@note_on channel=11 note=90 velocity=0 time=0@note_on channel=0 note=79 velocity=80 time=0.0008064520833333332@note_on channel=1 note=67 velocity=80 time=0@note_on channel=2 note=62 velocity=64 time=0@note_on channel=4 note=55 velocity=80 time=0@note_on channel=5 note=70 velocity=80 time=0@note_on channel=9 note=36 velocity=126 time=0@note_on channel=11 note=91 velocity=112 time=0@note_on channel=3 note=55 velocity=80 time=0.19354849999999998@note_on channel=7 note=43 velocity=64 time=0@note_on channel=8 note=43 velocity=64 time=0@note_on channel=9 note=36 velocity=0 time=0.19274204791666663@note_on channel=9 note=40 velocity=126 time=0.0008064520833333332@note_on channel=3 note=55 velocity=0 time=0.19274204791666663@note_on channel=7 note=43 velocity=0 time=0@note_on channel=8 note=43 velocity=0 time=0@note_on channel=3 note=55 velocity=80 time=0.0008064520833333332@note_on channel=7 note=43 velocity=64 time=0@note_on channel=8 note=43 velocity=64 time=0@note_on channel=0 note=79 velocity=0 time=0.15403234791666665@note_on channel=1 note=67 velocity=0 time=0.03870969999999999@note_on channel=2 note=62 velocity=0 time=0@note_on channel=3 note=55 velocity=0 time=0@note_on channel=4 note=55 velocity=0 time=0@note_on channel=5 note=70 velocity=0 time=0@note_on channel=7 note=43 velocity=0 time=0@note_on channel=8 note=43 velocity=0 time=0@note_on channel=9 note=40 velocity=0 time=0@note_on channel=11 note=91 velocity=0 time=0@note_on channel=0 note=78 velocity=80 time=0.0008064520833333332@note_on channel=1 note=66 velocity=80 time=0@note_on channel=2 note=62 velocity=64 time=0@note_on channel=4 note=54 velocity=80 time=0@note_on channel=5 note=69 velocity=80 time=0@note_on channel=9 note=36 velocity=126 time=0@note_on channel=11 note=90 velocity=112 time=0@note_on channel=3 note=54 velocity=80 time=0.19354849999999998@note_on channel=7 note=42 velocity=64 time=0@note_on channel=8 note=42 velocity=64 time=0@note_on channel=9 note=36 velocity=0 time=0.19274204791666663@note_on channel=9 note=40 velocity=126 time=0.0008064520833333332@note_on channel=3 note=54 velocity=0 time=0.19274204791666663@note_on channel=7 note=42 velocity=0 time=0@note_on channel=8 note=42 velocity=0 time=0@note_on channel=3 note=54 velocity=80 time=0.0008064520833333332@note_on channel=7 note=42 velocity=64 time=0@note_on channel=8 note=42 velocity=64 time=0@note_on channel=0 note=78 velocity=0 time=0.15403234791666665@note_on channel=1 note=66 velocity=0 time=0.03870969999999999@note_on channel=2 note=62 velocity=0 time=0@note_on channel=3 note=54 velocity=0 time=0@note_on channel=4 note=54 velocity=0 time=0@note_on channel=5 note=69 velocity=0 time=0@note_on channel=7 note=42 velocity=0 time=0@note_on channel=8 note=42 velocity=0 time=0@note_on channel=9 note=40 velocity=0 time=0@note_on channel=11 note=90 velocity=0 time=0@note_on channel=0 note=79 velocity=80 time=0.0008064520833333332@note_on channel=1 note=67 velocity=80 time=0@note_on channel=2 note=62 velocity=64 time=0@note_on channel=3 note=55 velocity=80 time=0@note_on channel=4 note=55 velocity=80 time=0@note_on channel=5 note=70 velocity=80 time=0@note_on channel=7 note=43 velocity=64 time=0@note_on channel=8 note=43 velocity=64 time=0@note_on channel=9 note=49 velocity=126 time=0@note_on channel=9 note=36 velocity=126 time=0@note_on channel=11 note=91 velocity=112 time=0@note_on channel=0 note=79 velocity=0 time=0.19274204791666663@note_on channel=1 note=67 velocity=0 time=0@note_on channel=2 note=62 velocity=0 time=0@note_on channel=3 note=55 velocity=0 time=0@note_on channel=4 note=55 velocity=0 time=0@note_on channel=5 note=70 velocity=0 time=0@note_on channel=7 note=43 velocity=0 time=0@note_on channel=8 note=43 velocity=0 time=0@note_on channel=11 note=91 velocity=0 time=0@note_on channel=9 note=49 velocity=0 time=0.19354849999999998@note_on channel=9 note=36 velocity=0 time=0@note_on channel=0 note=78 velocity=80 time=0.0008064520833333332@note_on channel=1 note=66 velocity=80 time=0@note_on channel=2 note=62 velocity=64 time=0@note_on channel=3 note=54 velocity=80 time=0@note_on channel=4 note=54 velocity=80 time=0@note_on channel=5 note=69 velocity=80 time=0@note_on channel=7 note=42 velocity=64 time=0@note_on channel=8 note=42 velocity=64 time=0@note_on channel=9 note=40 velocity=126 time=0@note_on channel=9 note=57 velocity=126 time=0@note_on channel=11 note=90 velocity=112 time=0@note_on channel=0 note=78 velocity=0 time=0.19274204791666663@note_on channel=1 note=66 velocity=0 time=0@note_on channel=2 note=62 velocity=0 time=0@note_on channel=3 note=54 velocity=0 time=0@note_on channel=4 note=54 velocity=0 time=0@note_on channel=5 note=69 velocity=0 time=0@note_on channel=7 note=42 velocity=0 time=0@note_on channel=8 note=42 velocity=0 time=0@note_on channel=11 note=90 velocity=0 time=0@note_on channel=9 note=40 velocity=0 time=0.19354849999999998@note_on channel=9 note=57 velocity=0 time=0@note_on channel=0 note=79 velocity=80 time=0.0008064520833333332@note_on channel=1 note=67 velocity=80 time=0@note_on channel=2 note=62 velocity=64 time=0@note_on channel=3 note=55 velocity=80 time=0@note_on channel=4 note=55 velocity=80 time=0@note_on channel=5 note=70 velocity=80 time=0@note_on channel=7 note=43 velocity=64 time=0@note_on channel=8 note=43 velocity=64 time=0@note_on channel=9 note=49 velocity=126 time=0@note_on channel=9 note=36 velocity=126 time=0@note_on channel=11 note=91 velocity=112 time=0@note_on channel=0 note=79 velocity=0 time=0.19274204791666663@note_on channel=1 note=67 velocity=0 time=0@note_on channel=2 note=62 velocity=0 time=0@note_on channel=3 note=55 velocity=0 time=0@note_on channel=4 note=55 velocity=0 time=0@note_on channel=5 note=70 velocity=0 time=0@note_on channel=7 note=43 velocity=0 time=0@note_on channel=8 note=43 velocity=0 time=0@note_on channel=11 note=91 velocity=0 time=0@note_on channel=9 note=49 velocity=0 time=0.19354849999999998@note_on channel=9 note=36 velocity=0 time=0@note_on channel=0 note=78 velocity=80 time=0.0008064520833333332@note_on channel=1 note=66 velocity=80 time=0@note_on channel=2 note=62 velocity=64 time=0@note_on channel=3 note=54 velocity=80 time=0@note_on channel=4 note=54 velocity=80 time=0@note_on channel=5 note=69 velocity=80 time=0@note_on channel=7 note=42 velocity=64 time=0@note_on channel=8 note=42 velocity=64 time=0@note_on channel=9 note=40 velocity=126 time=0@note_on channel=9 note=57 velocity=126 time=0@note_on channel=11 note=90 velocity=112 time=0@note_on channel=0 note=78 velocity=0 time=0.19274204791666663@note_on channel=1 note=66 velocity=0 time=0@note_on channel=2 note=62 velocity=0 time=0@note_on channel=3 note=54 velocity=0 time=0@note_on channel=4 note=54 velocity=0 time=0@note_on channel=5 note=69 velocity=0 time=0@note_on channel=7 note=42 velocity=0 time=0@note_on channel=8 note=42 velocity=0 time=0@note_on channel=11 note=90 velocity=0 time=0@note_on channel=9 note=40 velocity=0 time=0.19354849999999998@note_on channel=9 note=57 velocity=0 time=0@note_on channel=0 note=79 velocity=80 time=0.0008064520833333332@note_on channel=1 note=67 velocity=80 time=0@note_on channel=2 note=62 velocity=64 time=0@note_on channel=3 note=55 velocity=80 time=0@note_on channel=4 note=55 velocity=80 time=0@note_on channel=5 note=70 velocity=80 time=0@note_on channel=7 note=43 velocity=64 time=0@note_on channel=8 note=43 velocity=64 time=0@note_on channel=9 note=49 velocity=126 time=0@note_on channel=9 note=36 velocity=126 time=0@note_on channel=11 note=91 velocity=112 time=0@note_on channel=0 note=79 velocity=0 time=0.19274204791666663@note_on channel=1 note=67 velocity=0 time=0@note_on channel=2 note=62 velocity=0 time=0@note_on channel=3 note=55 velocity=0 time=0@note_on channel=4 note=55 velocity=0 time=0@note_on channel=5 note=70 velocity=0 time=0@note_on channel=7 note=43 velocity=0 time=0@note_on channel=8 note=43 velocity=0 time=0@note_on channel=11 note=91 velocity=0 time=0@note_on channel=9 note=49 velocity=0 time=0.19354849999999998@note_on channel=9 note=36 velocity=0 time=0@note_on channel=0 note=74 velocity=80 time=0.0008064520833333332@note_on channel=1 note=66 velocity=80 time=0@note_on channel=2 note=62 velocity=64 time=0@note_on channel=3 note=50 velocity=80 time=0@note_on channel=4 note=54 velocity=80 time=0@note_on channel=5 note=69 velocity=80 time=0@note_on channel=7 note=38 velocity=64 time=0@note_on channel=8 note=38 velocity=64 time=0@note_on channel=9 note=40 velocity=126 time=0@note_on channel=9 note=57 velocity=126 time=0@note_on channel=11 note=86 velocity=112 time=0@note_on channel=0 note=74 velocity=0 time=0.19274204791666663@note_on channel=1 note=66 velocity=0 time=0@note_on channel=2 note=62 velocity=0 time=0@note_on channel=3 note=50 velocity=0 time=0@note_on channel=4 note=54 velocity=0 time=0@note_on channel=5 note=69 velocity=0 time=0@note_on channel=7 note=38 velocity=0 time=0@note_on channel=8 note=38 velocity=0 time=0@note_on channel=11 note=86 velocity=0 time=0@note_on channel=9 note=40 velocity=0 time=0.19354849999999998@note_on channel=9 note=57 velocity=0 time=0@note_on channel=0 note=79 velocity=80 time=0.0008064520833333332@note_on channel=1 note=67 velocity=80 time=0@note_on channel=2 note=62 velocity=64 time=0@note_on channel=3 note=55 velocity=80 time=0@note_on channel=4 note=55 velocity=80 time=0@note_on channel=5 note=70 velocity=80 time=0@note_on channel=7 note=43 velocity=64 time=0@note_on channel=8 note=43 velocity=64 time=0@note_on channel=9 note=49 velocity=126 time=0@note_on channel=9 note=36 velocity=126 time=0@note_on channel=11 note=91 velocity=112 time=0@note_on channel=0 note=79 velocity=0 time=0.19274204791666663@note_on channel=1 note=67 velocity=0 time=0@note_on channel=2 note=62 velocity=0 time=0@note_on channel=3 note=55 velocity=0 time=0@note_on channel=4 note=55 velocity=0 time=0@note_on channel=5 note=70 velocity=0 time=0@note_on channel=7 note=43 velocity=0 time=0@note_on channel=8 note=43 velocity=0 time=0@note_on channel=11 note=91 velocity=0 time=0@note_on channel=9 note=49 velocity=0 time=0.19354849999999998@note_on channel=9 note=36 velocity=0 time=0@note_on channel=0 note=74 velocity=80 time=0.0008064520833333332@note_on channel=1 note=66 velocity=80 time=0@note_on channel=2 note=62 velocity=64 time=0@note_on channel=3 note=50 velocity=80 time=0@note_on channel=4 note=54 velocity=80 time=0@note_on channel=5 note=69 velocity=80 time=0@note_on channel=7 note=38 velocity=64 time=0@note_on channel=8 note=38 velocity=64 time=0@note_on channel=9 note=40 velocity=126 time=0@note_on channel=9 note=57 velocity=126 time=0@note_on channel=11 note=86 velocity=112 time=0@note_on channel=0 note=74 velocity=0 time=0.19274204791666663@note_on channel=1 note=66 velocity=0 time=0@note_on channel=2 note=62 velocity=0 time=0@note_on channel=3 note=50 velocity=0 time=0@note_on channel=4 note=54 velocity=0 time=0@note_on channel=5 note=69 velocity=0 time=0@note_on channel=7 note=38 velocity=0 time=0@note_on channel=8 note=38 velocity=0 time=0@note_on channel=11 note=86 velocity=0 time=0@note_on channel=9 note=40 velocity=0 time=0.19354849999999998@note_on channel=9 note=57 velocity=0 time=0@note_on channel=0 note=79 velocity=80 time=0.0008064520833333332@note_on channel=1 note=67 velocity=80 time=0@note_on channel=2 note=62 velocity=64 time=0@note_on channel=3 note=67 velocity=80 time=0@note_on channel=4 note=55 velocity=80 time=0@note_on channel=5 note=70 velocity=80 time=0@note_on channel=9 note=36 velocity=126 time=0@note_on channel=7 note=50 velocity=96 time=0.19354849999999998@note_on channel=8 note=50 velocity=96 time=0@note_on channel=9 note=36 velocity=0 time=0.19274204791666663@note_on channel=9 note=36 velocity=126 time=0.0008064520833333332@note_on channel=7 note=50 velocity=0 time=0.19274204791666663@note_on channel=8 note=50 velocity=0 time=0@note_on channel=7 note=50 velocity=96 time=0.0008064520833333332@note_on channel=8 note=50 velocity=96 time=0@note_on channel=7 note=50 velocity=0 time=0.19274204791666663@note_on channel=8 note=50 velocity=0 time=0@note_on channel=9 note=36 velocity=0 time=0@note_on channel=7 note=50 velocity=96 time=0.0008064520833333332@note_on channel=8 note=50 velocity=96 time=0@note_on channel=9 note=38 velocity=126 time=0@note_on channel=9 note=38 velocity=0 time=0.3862905479166666@note_on channel=1 note=67 velocity=0 time=0.38709699999999997@note_on channel=2 note=62 velocity=0 time=0@note_on channel=4 note=55 velocity=0 time=0@note_on channel=5 note=70 velocity=0 time=0@note_on channel=7 note=50 velocity=0 time=0@note_on channel=8 note=50 velocity=0 time=0@note_on channel=1 note=67 velocity=80 time=0.0008064520833333332@note_on channel=2 note=62 velocity=64 time=0@note_on channel=4 note=55 velocity=80 time=0@note_on channel=5 note=70 velocity=80 time=0@note_on channel=9 note=36 velocity=126 time=0@note_on channel=7 note=50 velocity=96 time=0.19354849999999998@note_on channel=8 note=50 velocity=96 time=0@note_on channel=9 note=36 velocity=0 time=0.19274204791666663@note_on channel=7 note=50 velocity=0 time=0.19354849999999998@note_on channel=8 note=50 velocity=0 time=0@note_on channel=7 note=50 velocity=96 time=0.0008064520833333332@note_on channel=8 note=50 velocity=96 time=0@note_on channel=9 note=36 velocity=126 time=0@note_on channel=7 note=50 velocity=0 time=0.19274204791666663@note_on channel=8 note=50 velocity=0 time=0@note_on channel=9 note=36 velocity=0 time=0@note_on channel=7 note=50 velocity=96 time=0.0008064520833333332@note_on channel=8 note=50 velocity=96 time=0@note_on channel=9 note=38 velocity=126 time=0@note_on channel=9 note=38 velocity=0 time=0.19274204791666663@note_on channel=9 note=38 velocity=126 time=0.0008064520833333332@note_on channel=9 note=38 velocity=0 time=0.19274204791666663@note_on channel=9 note=38 velocity=126 time=0.1943549520833333@note_on channel=0 note=79 velocity=0 time=0.03790324791666666@note_on channel=9 note=38 velocity=0 time=0.05806454999999999@note_on channel=9 note=38 velocity=126 time=0.0008064520833333332@note_on channel=1 note=67 velocity=0 time=0.09596779791666665@note_on channel=2 note=62 velocity=0 time=0@note_on channel=3 note=67 velocity=0 time=0@note_on channel=4 note=55 velocity=0 time=0@note_on channel=5 note=70 velocity=0 time=0@note_on channel=7 note=50 velocity=0 time=0@note_on channel=8 note=50 velocity=0 time=0@note_on channel=9 note=38 velocity=0 time=0@note_on channel=0 note=79 velocity=80 time=0.0008064520833333332@note_on channel=1 note=62 velocity=80 time=0@note_on channel=2 note=62 velocity=64 time=0@note_on channel=3 note=67 velocity=80 time=0@note_on channel=4 note=60 velocity=80 time=0@note_on channel=5 note=72 velocity=80 time=0@note_on channel=7 note=50 velocity=96 time=0@note_on channel=8 note=50 velocity=96 time=0@note_on channel=9 note=38 velocity=126 time=0@note_on channel=9 note=38 velocity=0 time=0.19274204791666663@note_on channel=9 note=38 velocity=126 time=0.0008064520833333332@note_on channel=9 note=38 velocity=0 time=0.09596779791666665@note_on channel=9 note=38 velocity=126 time=0.2911292020833333@note_on channel=9 note=38 velocity=0 time=0.09596779791666665@note_on channel=9 note=38 velocity=126 time=0.0008064520833333332@note_on channel=9 note=38 velocity=0 time=0.09596779791666665@note_on channel=9 note=38 velocity=126 time=0.0008064520833333332@note_on channel=9 note=38 velocity=0 time=0.19274204791666663@note_on channel=9 note=38 velocity=126 time=0.0008064520833333332@note_on channel=9 note=38 velocity=0 time=0.09596779791666665@note_on channel=0 note=79 velocity=0 time=0.22258077499999998@note_on channel=3 note=67 velocity=0 time=0.067741975@note_on channel=0 note=78 velocity=80 time=0.0008064520833333332@note_on channel=3 note=66 velocity=80 time=0@note_on channel=9 note=38 velocity=126 time=0@note_on channel=0 note=78 velocity=0 time=0.09112908541666666@note_on channel=3 note=66 velocity=0 time=0.004838712499999999@note_on channel=9 note=38 velocity=0 time=0@note_on channel=0 note=76 velocity=80 time=0.0008064520833333332@note_on channel=3 note=64 velocity=80 time=0@note_on channel=9 note=38 velocity=126 time=0@note_on channel=0 note=76 velocity=0 time=0.09112908541666666@note_on channel=1 note=62 velocity=0 time=0.004838712499999999@note_on channel=2 note=62 velocity=0 time=0@note_on channel=3 note=64 velocity=0 time=0@note_on channel=4 note=60 velocity=0 time=0@note_on channel=5 note=72 velocity=0 time=0@note_on channel=7 note=50 velocity=0 time=0@note_on channel=8 note=50 velocity=0 time=0@note_on channel=9 note=38 velocity=0 time=0@note_on channel=0 note=78 velocity=80 time=0.0008064520833333332@note_on channel=1 note=62 velocity=80 time=0@note_on channel=2 note=62 velocity=64 time=0@note_on channel=3 note=66 velocity=80 time=0@note_on channel=4 note=57 velocity=80 time=0@note_on channel=5 note=69 velocity=80 time=0@note_on channel=7 note=54 velocity=96 time=0@note_on channel=8 note=54 velocity=96 time=0@note_on channel=9 note=38 velocity=126 time=0@note_on channel=9 note=38 velocity=0 time=0.12822588124999998@note_on channel=9 note=38 velocity=126 time=0.0008064520833333332@note_on channel=9 note=38 velocity=0 time=0.12822588124999998@note_on channel=9 note=38 velocity=126 time=0.0008064520833333332@note_on channel=9 note=38 velocity=0 time=0.12822588124999998@note_on channel=9 note=47 velocity=126 time=0.0008064520833333332@note_on channel=9 note=47 velocity=0 time=0.12822588124999998@note_on channel=9 note=47 velocity=126 time=0.0008064520833333332@note_on channel=9 note=47 velocity=0 time=0.12822588124999998@note_on channel=9 note=47 velocity=126 time=0.0008064520833333332@note_on channel=9 note=47 velocity=0 time=0.12822588124999998@note_on channel=9 note=48 velocity=126 time=0.0008064520833333332@note_on channel=9 note=48 velocity=0 time=0.12822588124999998@note_on channel=9 note=48 velocity=126 time=0.0008064520833333332@note_on channel=9 note=48 velocity=0 time=0.12822588124999998@note_on channel=9 note=48 velocity=126 time=0.0008064520833333332@note_on channel=9 note=48 velocity=0 time=0.12822588124999998@note_on channel=9 note=41 velocity=126 time=0.0008064520833333332@note_on channel=9 note=41 velocity=0 time=0.12822588124999998@note_on channel=9 note=41 velocity=126 time=0.0008064520833333332@note_on channel=9 note=41 velocity=0 time=0.12822588124999998@note_on channel=9 note=41 velocity=126 time=0.0008064520833333332@note_on channel=0 note=78 velocity=0 time=0.050806481249999993@note_on channel=1 note=62 velocity=0 time=0.07741939999999999@note_on channel=2 note=62 velocity=0 time=0@note_on channel=3 note=66 velocity=0 time=0@note_on channel=4 note=57 velocity=0 time=0@note_on channel=5 note=69 velocity=0 time=0@note_on channel=7 note=54 velocity=0 time=0@note_on channel=8 note=54 velocity=0 time=0@note_on channel=9 note=41 velocity=0 time=0@note_on channel=9 note=49 velocity=126 time=0.0008064520833333332@note_on channel=9 note=49 velocity=0 time=1.5475815479166664@<meta message end_of_track time=0.0008064520833333332>@