<meta message time_signature numerator=4 denominator=4 clocks_per_click=24 notated_32nd_notes_per_beat=8 time=0>@<meta message key_signature key='Eb' time=0>@<meta message set_tempo tempo=1000000 time=0>@<meta message midi_port port=0 time=0>@program_change channel=0 program=6 time=0@control_change channel=0 control=7 value=100 time=0@control_change channel=0 control=10 value=64 time=0@<meta message midi_port port=0 time=0>@program_change channel=1 program=6 time=0@control_change channel=1 control=7 value=100 time=0@control_change channel=1 control=10 value=64 time=0@note_on channel=0 note=67 velocity=100 time=3.75@note_on channel=0 note=67 velocity=0 time=0.25@note_on channel=0 note=67 velocity=100 time=0@note_on channel=1 note=63 velocity=100 time=0@note_on channel=1 note=60 velocity=100 time=0@note_on channel=0 note=67 velocity=0 time=0.25@note_on channel=0 note=69 velocity=100 time=0@note_on channel=0 note=69 velocity=0 time=0.125@note_on channel=0 note=71 velocity=100 time=0@note_on channel=0 note=71 velocity=0 time=0.125@note_on channel=0 note=72 velocity=100 time=0@note_on channel=1 note=60 velocity=0 time=0@note_on channel=1 note=63 velocity=0 time=0@note_on channel=1 note=48 velocity=100 time=0@note_on channel=0 note=72 velocity=0 time=0.25@note_on channel=0 note=74 velocity=100 time=0@note_on channel=0 note=74 velocity=0 time=0.25@note_on channel=0 note=75 velocity=100 time=0@note_on channel=1 note=48 velocity=0 time=0@note_on channel=0 note=67 velocity=100 time=0.25@note_on channel=0 note=75 velocity=0 time=0.25@note_on channel=0 note=74 velocity=100 time=0@note_on channel=1 note=59 velocity=100 time=0@note_on channel=1 note=55 velocity=100 time=0@note_on channel=0 note=67 velocity=0 time=0.25@note_on channel=0 note=65 velocity=100 time=0@note_on channel=0 note=65 velocity=0 time=0.25@note_on channel=0 note=74 velocity=0 time=0@note_on channel=0 note=63 velocity=100 time=0@note_on channel=1 note=55 velocity=0 time=0@note_on channel=1 note=59 velocity=0 time=0@note_on channel=1 note=60 velocity=100 time=0@note_on channel=1 note=56 velocity=100 time=0@note_on channel=0 note=63 velocity=0 time=0.25@note_on channel=0 note=62 velocity=100 time=0@note_on channel=0 note=62 velocity=0 time=0.25@note_on channel=0 note=63 velocity=100 time=0@note_on channel=1 note=56 velocity=0 time=0@note_on channel=1 note=60 velocity=0 time=0@note_on channel=1 note=44 velocity=100 time=0@note_on channel=0 note=67 velocity=100 time=0.25@note_on channel=0 note=67 velocity=0 time=0.25@note_on channel=0 note=72 velocity=100 time=0@note_on channel=1 note=44 velocity=0 time=0@note_on channel=0 note=63 velocity=0 time=0.25@note_on channel=0 note=65 velocity=100 time=0@note_on channel=0 note=65 velocity=0 time=0.25@note_on channel=0 note=67 velocity=100 time=0@note_on channel=1 note=60 velocity=100 time=0@note_on channel=1 note=51 velocity=100 time=0@note_on channel=0 note=72 velocity=0 time=0.25@note_on channel=0 note=72 velocity=100 time=0@note_on channel=0 note=67 velocity=0 time=0.25@note_on channel=0 note=68 velocity=100 time=0@note_on channel=1 note=51 velocity=0 time=0@note_on channel=1 note=53 velocity=100 time=0@note_on channel=0 note=72 velocity=0 time=0.25@note_on channel=0 note=74 velocity=100 time=0@note_on channel=0 note=74 velocity=0 time=0.125@note_on channel=0 note=75 velocity=100 time=0@note_on channel=0 note=75 velocity=0 time=0.125@note_on channel=0 note=68 velocity=0 time=0@note_on channel=0 note=77 velocity=100 time=0@note_on channel=1 note=53 velocity=0 time=0@note_on channel=1 note=50 velocity=100 time=0@note_on channel=0 note=77 velocity=0 time=0.25@note_on channel=0 note=79 velocity=100 time=0@note_on channel=0 note=79 velocity=0 time=0.25@note_on channel=0 note=80 velocity=100 time=0@note_on channel=1 note=50 velocity=0 time=0@note_on channel=1 note=55 velocity=100 time=0@note_on channel=0 note=80 velocity=0 time=0.25@note_on channel=0 note=79 velocity=100 time=0@note_on channel=0 note=79 velocity=0 time=0.125@note_on channel=0 note=77 velocity=100 time=0@note_on channel=0 note=77 velocity=0 time=0.125@note_on channel=0 note=79 velocity=100 time=0@note_on channel=1 note=60 velocity=0 time=0@note_on channel=1 note=59 velocity=100 time=0@note_on channel=0 note=79 velocity=0 time=0.25@note_on channel=0 note=74 velocity=100 time=0@note_on channel=0 note=74 velocity=0 time=0.25@note_on channel=0 note=74 velocity=100 time=0@note_on channel=1 note=59 velocity=0 time=0@note_on channel=1 note=55 velocity=0 time=0@note_on channel=1 note=60 velocity=100 time=0@note_on channel=0 note=74 velocity=0 time=0.25@note_on channel=0 note=75 velocity=100 time=0@note_on channel=0 note=75 velocity=0 time=0.125@note_on channel=0 note=77 velocity=100 time=0@note_on channel=0 note=77 velocity=0 time=0.125@note_on channel=0 note=75 velocity=100 time=0@note_on channel=1 note=48 velocity=100 time=0@note_on channel=0 note=75 velocity=0 time=0.125@note_on channel=0 note=74 velocity=100 time=0@note_on channel=0 note=74 velocity=0 time=0.125@note_on channel=0 note=72 velocity=100 time=0@note_on channel=0 note=72 velocity=0 time=0.25@note_on channel=0 note=79 velocity=100 time=0@note_on channel=1 note=48 velocity=0 time=0@note_on channel=1 note=60 velocity=0 time=0@note_on channel=1 note=60 velocity=100 time=0@note_on channel=0 note=75 velocity=100 time=0.25@note_on channel=0 note=79 velocity=0 time=0.25@note_on channel=0 note=79 velocity=100 time=0@note_on channel=1 note=60 velocity=0 time=0@note_on channel=1 note=58 velocity=100 time=0@note_on channel=0 note=75 velocity=0 time=0.25@note_on channel=0 note=74 velocity=100 time=0@note_on channel=0 note=74 velocity=0 time=0.25@note_on channel=0 note=72 velocity=100 time=0@note_on channel=1 note=58 velocity=0 time=0@note_on channel=1 note=56 velocity=100 time=0@note_on channel=0 note=79 velocity=0 time=0.25@note_on channel=0 note=80 velocity=100 time=0@note_on channel=0 note=80 velocity=0 time=0.125@note_on channel=0 note=82 velocity=100 time=0@note_on channel=0 note=82 velocity=0 time=0.125@note_on channel=0 note=84 velocity=100 time=0@note_on channel=1 note=56 velocity=0 time=0@note_on channel=1 note=55 velocity=100 time=0@note_on channel=0 note=84 velocity=0 time=0.25@note_on channel=0 note=75 velocity=100 time=0@note_on channel=0 note=75 velocity=0 time=0.25@note_on channel=0 note=77 velocity=100 time=0@note_on channel=1 note=55 velocity=0 time=0@note_on channel=1 note=56 velocity=100 time=0@note_on channel=0 note=72 velocity=0 time=0.25@note_on channel=0 note=72 velocity=100 time=0@note_on channel=0 note=77 velocity=0 time=0.25@note_on channel=0 note=80 velocity=100 time=0@note_on channel=1 note=56 velocity=0 time=0@note_on channel=1 note=53 velocity=100 time=0@note_on channel=0 note=72 velocity=0 time=0.25@note_on channel=0 note=72 velocity=100 time=0@note_on channel=0 note=72 velocity=0 time=0.25@note_on channel=0 note=80 velocity=0 time=0@note_on channel=0 note=72 velocity=100 time=0@note_on channel=1 note=53 velocity=0 time=0@note_on channel=1 note=58 velocity=100 time=0@note_on channel=0 note=72 velocity=0 time=0.25@note_on channel=0 note=74 velocity=100 time=0@note_on channel=0 note=74 velocity=0 time=0.125@note_on channel=0 note=75 velocity=100 time=0@note_on channel=0 note=75 velocity=0 time=0.125@note_on channel=0 note=74 velocity=100 time=0@note_on channel=1 note=58 velocity=0 time=0@note_on channel=1 note=46 velocity=100 time=0@note_on channel=0 note=74 velocity=0 time=0.125@note_on channel=0 note=72 velocity=100 time=0@note_on channel=0 note=72 velocity=0 time=0.125@note_on channel=0 note=70 velocity=100 time=0@note_on channel=0 note=70 velocity=0 time=0.25@note_on channel=0 note=77 velocity=100 time=0@note_on channel=1 note=46 velocity=0 time=0@note_on channel=1 note=58 velocity=100 time=0@note_on channel=0 note=74 velocity=100 time=0.25@note_on channel=0 note=77 velocity=0 time=0.25@note_on channel=0 note=77 velocity=100 time=0@note_on channel=1 note=58 velocity=0 time=0@note_on channel=1 note=56 velocity=100 time=0@note_on channel=0 note=74 velocity=0 time=0.25@note_on channel=0 note=72 velocity=100 time=0@note_on channel=0 note=72 velocity=0 time=0.25@note_on channel=0 note=70 velocity=100 time=0@note_on channel=1 note=56 velocity=0 time=0@note_on channel=1 note=55 velocity=100 time=0@note_on channel=0 note=77 velocity=0 time=0.25@note_on channel=0 note=79 velocity=100 time=0@note_on channel=0 note=79 velocity=0 time=0.125@note_on channel=0 note=80 velocity=100 time=0@note_on channel=0 note=80 velocity=0 time=0.125@note_on channel=0 note=82 velocity=100 time=0@note_on channel=1 note=55 velocity=0 time=0@note_on channel=1 note=53 velocity=100 time=0@note_on channel=0 note=82 velocity=0 time=0.25@note_on channel=0 note=74 velocity=100 time=0@note_on channel=0 note=74 velocity=0 time=0.25@note_on channel=0 note=75 velocity=100 time=0@note_on channel=1 note=53 velocity=0 time=0@note_on channel=1 note=55 velocity=100 time=0@note_on channel=0 note=70 velocity=0 time=0.25@note_on channel=0 note=70 velocity=100 time=0@note_on channel=0 note=75 velocity=0 time=0.25@note_on channel=0 note=79 velocity=100 time=0@note_on channel=1 note=55 velocity=0 time=0@note_on channel=1 note=51 velocity=100 time=0@note_on channel=0 note=70 velocity=0 time=0.25@note_on channel=0 note=70 velocity=100 time=0@note_on channel=0 note=70 velocity=0 time=0.25@note_on channel=0 note=79 velocity=0 time=0@note_on channel=0 note=70 velocity=100 time=0@note_on channel=1 note=51 velocity=0 time=0@note_on channel=1 note=56 velocity=100 time=0@note_on channel=0 note=70 velocity=0 time=0.25@note_on channel=0 note=72 velocity=100 time=0@note_on channel=0 note=72 velocity=0 time=0.125@note_on channel=0 note=73 velocity=100 time=0@note_on channel=0 note=73 velocity=0 time=0.125@note_on channel=0 note=72 velocity=100 time=0@note_on channel=1 note=56 velocity=0 time=0@note_on channel=1 note=44 velocity=100 time=0@note_on channel=0 note=72 velocity=0 time=0.125@note_on channel=0 note=70 velocity=100 time=0@note_on channel=0 note=70 velocity=0 time=0.125@note_on channel=0 note=68 velocity=100 time=0@note_on channel=0 note=68 velocity=0 time=0.25@note_on channel=0 note=75 velocity=100 time=0@note_on channel=1 note=44 velocity=0 time=0@note_on channel=1 note=56 velocity=100 time=0@note_on channel=0 note=72 velocity=100 time=0.25@note_on channel=0 note=75 velocity=0 time=0.25@note_on channel=0 note=75 velocity=100 time=0@note_on channel=1 note=56 velocity=0 time=0@note_on channel=1 note=55 velocity=100 time=0@note_on channel=0 note=72 velocity=0 time=0.25@note_on channel=0 note=70 velocity=100 time=0@note_on channel=0 note=70 velocity=0 time=0.25@note_on channel=0 note=68 velocity=100 time=0@note_on channel=1 note=55 velocity=0 time=0@note_on channel=1 note=53 velocity=100 time=0@note_on channel=0 note=75 velocity=0 time=0.25@note_on channel=0 note=77 velocity=100 time=0@note_on channel=0 note=77 velocity=0 time=0.125@note_on channel=0 note=79 velocity=100 time=0@note_on channel=0 note=79 velocity=0 time=0.125@note_on channel=0 note=80 velocity=100 time=0@note_on channel=1 note=53 velocity=0 time=0@note_on channel=1 note=41 velocity=100 time=0@note_on channel=0 note=68 velocity=0 time=0.25@note_on channel=0 note=75 velocity=100 time=0@note_on channel=0 note=80 velocity=0 time=0.25@note_on channel=0 note=80 velocity=100 time=0@note_on channel=1 note=41 velocity=0 time=0@note_on channel=1 note=53 velocity=100 time=0@note_on channel=0 note=75 velocity=0 time=0.25@note_on channel=0 note=74 velocity=100 time=0@note_on channel=0 note=80 velocity=0 time=0.25@note_on channel=0 note=80 velocity=100 time=0@note_on channel=1 note=53 velocity=0 time=0@note_on channel=1 note=51 velocity=100 time=0@note_on channel=0 note=74 velocity=0 time=0.25@note_on channel=0 note=72 velocity=100 time=0@note_on channel=0 note=72 velocity=0 time=0.25@note_on channel=0 note=70 velocity=100 time=0@note_on channel=1 note=51 velocity=0 time=0@note_on channel=1 note=50 velocity=100 time=0@note_on channel=0 note=80 velocity=0 time=0.25@note_on channel=0 note=77 velocity=100 time=0@note_on channel=0 note=77 velocity=0 time=0.125@note_on channel=0 note=79 velocity=100 time=0@note_on channel=0 note=79 velocity=0 time=0.125@note_on channel=0 note=80 velocity=100 time=0@note_on channel=1 note=50 velocity=0 time=0@note_on channel=1 note=38 velocity=100 time=0@note_on channel=0 note=70 velocity=0 time=0.25@note_on channel=0 note=70 velocity=100 time=0@note_on channel=0 note=80 velocity=0 time=0.25@note_on channel=0 note=80 velocity=100 time=0@note_on channel=1 note=38 velocity=0 time=0@note_on channel=1 note=50 velocity=100 time=0@note_on channel=0 note=70 velocity=0 time=0.25@note_on channel=0 note=77 velocity=100 time=0@note_on channel=0 note=80 velocity=0 time=0.25@note_on channel=0 note=80 velocity=100 time=0@note_on channel=1 note=50 velocity=0 time=0@note_on channel=1 note=46 velocity=100 time=0@note_on channel=0 note=77 velocity=0 time=0.25@note_on channel=0 note=74 velocity=100 time=0@note_on channel=0 note=74 velocity=0 time=0.25@note_on channel=0 note=70 velocity=100 time=0@note_on channel=1 note=46 velocity=0 time=0@note_on channel=1 note=51 velocity=100 time=0@note_on channel=0 note=80 velocity=0 time=0.25@note_on channel=0 note=79 velocity=100 time=0@note_on channel=0 note=79 velocity=0 time=0.125@note_on channel=0 note=77 velocity=100 time=0@note_on channel=0 note=77 velocity=0 time=0.125@note_on channel=0 note=79 velocity=100 time=0@note_on channel=1 note=51 velocity=0 time=0@note_on channel=1 note=43 velocity=100 time=0@note_on channel=0 note=79 velocity=0 time=0.25@note_on channel=0 note=75 velocity=100 time=0@note_on channel=0 note=75 velocity=0 time=0.25@note_on channel=0 note=70 velocity=0 time=0@note_on channel=0 note=77 velocity=100 time=0@note_on channel=1 note=43 velocity=0 time=0@note_on channel=1 note=44 velocity=100 time=0@note_on channel=0 note=72 velocity=100 time=0.25@note_on channel=0 note=77 velocity=0 time=0.25@note_on channel=0 note=74 velocity=100 time=0@note_on channel=1 note=44 velocity=0 time=0@note_on channel=1 note=46 velocity=100 time=0@note_on channel=0 note=72 velocity=0 time=0.25@note_on channel=0 note=68 velocity=100 time=0@note_on channel=0 note=68 velocity=0 time=0.25@note_on channel=0 note=67 velocity=100 time=0@note_on channel=1 note=46 velocity=0 time=0@note_on channel=1 note=51 velocity=100 time=0@note_on channel=0 note=74 velocity=0 time=0.25@note_on channel=0 note=75 velocity=100 time=0@note_on channel=0 note=75 velocity=0 time=0.125@note_on channel=0 note=77 velocity=100 time=0@note_on channel=0 note=77 velocity=0 time=0.125@note_on channel=0 note=79 velocity=100 time=0@note_on channel=1 note=51 velocity=0 time=0@note_on channel=1 note=39 velocity=100 time=0@note_on channel=0 note=79 velocity=0 time=0.25@note_on channel=0 note=74 velocity=100 time=0@note_on channel=0 note=74 velocity=0 time=0.25@note_on channel=0 note=67 velocity=0 time=0@note_on channel=0 note=75 velocity=100 time=0@note_on channel=1 note=39 velocity=0 time=0@note_on channel=0 note=71 velocity=100 time=0.25@note_on channel=0 note=71 velocity=0 time=0.25@note_on channel=0 note=75 velocity=0 time=0@note_on channel=0 note=72 velocity=100 time=0@note_on channel=1 note=51 velocity=100 time=0@note_on channel=0 note=67 velocity=100 time=0.25@note_on channel=0 note=67 velocity=0 time=0.25@note_on channel=0 note=66 velocity=100 time=0@note_on channel=1 note=51 velocity=0 time=0@note_on channel=1 note=50 velocity=100 time=0@note_on channel=0 note=66 velocity=0 time=0.25@note_on channel=0 note=72 velocity=0 time=0@note_on channel=0 note=78 velocity=100 time=0@note_on channel=0 note=78 velocity=0 time=0.125@note_on channel=0 note=79 velocity=100 time=0@note_on channel=0 note=79 velocity=0 time=0.125@note_on channel=0 note=81 velocity=100 time=0@note_on channel=1 note=50 velocity=0 time=0@note_on channel=1 note=38 velocity=100 time=0@note_on channel=0 note=81 velocity=0 time=0.25@note_on channel=0 note=74 velocity=100 time=0@note_on channel=0 note=74 velocity=0 time=0.25@note_on channel=0 note=75 velocity=100 time=0@note_on channel=1 note=38 velocity=0 time=0@note_on channel=0 note=72 velocity=100 time=0.25@note_on channel=0 note=75 velocity=0 time=0.25@note_on channel=0 note=74 velocity=100 time=0@note_on channel=1 note=54 velocity=100 time=0@note_on channel=0 note=72 velocity=0 time=0.25@note_on channel=0 note=69 velocity=100 time=0@note_on channel=0 note=74 velocity=0 time=0.25@note_on channel=0 note=70 velocity=100 time=0@note_on channel=1 note=54 velocity=0 time=0@note_on channel=1 note=55 velocity=100 time=0@note_on channel=0 note=69 velocity=0 time=0.25@note_on channel=0 note=67 velocity=100 time=0@note_on channel=0 note=67 velocity=0 time=0.125@note_on channel=0 note=66 velocity=100 time=0@note_on channel=0 note=66 velocity=0 time=0.125@note_on channel=0 note=67 velocity=100 time=0@note_on channel=1 note=55 velocity=0 time=0@note_on channel=1 note=48 velocity=100 time=0@note_on channel=0 note=70 velocity=0 time=0.25@note_on channel=0 note=75 velocity=100 time=0@note_on channel=0 note=75 velocity=0 time=0.25@note_on channel=0 note=69 velocity=100 time=0@note_on channel=1 note=48 velocity=0 time=0@note_on channel=1 note=50 velocity=100 time=0@note_on channel=0 note=69 velocity=0 time=0.25@note_on channel=0 note=72 velocity=100 time=0@note_on channel=0 note=72 velocity=0 time=0.125@note_on channel=0 note=71 velocity=100 time=0@note_on channel=0 note=71 velocity=0 time=0.125@note_on channel=0 note=72 velocity=100 time=0@note_on channel=1 note=50 velocity=0 time=0@note_on channel=1 note=38 velocity=100 time=0@note_on channel=0 note=67 velocity=0 time=0.25@note_on channel=0 note=66 velocity=100 time=0@note_on channel=0 note=66 velocity=0 time=0.25@note_on channel=0 note=67 velocity=100 time=0@note_on channel=1 note=38 velocity=0 time=0@note_on channel=1 note=43 velocity=100 time=0@note_on channel=0 note=72 velocity=0 time=0.25@note_on channel=0 note=71 velocity=100 time=0@note_on channel=0 note=71 velocity=0 time=0.125@note_on channel=0 note=72 velocity=100 time=0@note_on channel=0 note=72 velocity=0 time=0.125@note_on channel=0 note=74 velocity=100 time=0@note_on channel=0 note=67 velocity=0 time=0.25@note_on channel=0 note=65 velocity=100 time=0@note_on channel=0 note=65 velocity=0 time=0.25@note_on channel=0 note=63 velocity=100 time=0@note_on channel=0 note=74 velocity=0 time=0.25@note_on channel=0 note=72 velocity=100 time=0@note_on channel=0 note=72 velocity=0 time=0.25@note_on channel=0 note=69 velocity=100 time=0@note_on channel=0 note=69 velocity=0 time=0.25@note_on channel=0 note=66 velocity=100 time=0@note_on channel=0 note=66 velocity=0 time=0.25@note_on channel=0 note=67 velocity=100 time=0@note_on channel=0 note=63 velocity=0 time=0.25@note_on channel=0 note=62 velocity=100 time=0@note_on channel=0 note=62 velocity=0 time=0.125@note_on channel=0 note=60 velocity=100 time=0@note_on channel=0 note=60 velocity=0 time=0.125@note_on channel=0 note=59 velocity=100 time=0@note_on channel=0 note=60 velocity=100 time=0.125@note_on channel=0 note=60 velocity=0 time=0.125@note_on channel=0 note=62 velocity=100 time=0@note_on channel=1 note=55 velocity=100 time=0.25@note_on channel=0 note=62 velocity=0 time=0.75@note_on channel=0 note=59 velocity=0 time=0@note_on channel=0 note=67 velocity=0 time=0@note_on channel=0 note=67 velocity=100 time=0@note_on channel=1 note=55 velocity=0 time=0@note_on channel=1 note=43 velocity=0 time=0@note_on channel=0 note=67 velocity=0 time=0.25@note_on channel=0 note=67 velocity=100 time=0@note_on channel=1 note=63 velocity=100 time=0@note_on channel=1 note=60 velocity=100 time=0@note_on channel=0 note=67 velocity=0 time=0.25@note_on channel=0 note=69 velocity=100 time=0@note_on channel=0 note=69 velocity=0 time=0.125@note_on channel=0 note=71 velocity=100 time=0@note_on channel=0 note=71 velocity=0 time=0.125@note_on channel=0 note=72 velocity=100 time=0@note_on channel=1 note=60 velocity=0 time=0@note_on channel=1 note=63 velocity=0 time=0@note_on channel=1 note=48 velocity=100 time=0@note_on channel=0 note=72 velocity=0 time=0.25@note_on channel=0 note=74 velocity=100 time=0@note_on channel=0 note=74 velocity=0 time=0.25@note_on channel=0 note=75 velocity=100 time=0@note_on channel=1 note=48 velocity=0 time=0@note_on channel=0 note=67 velocity=100 time=0.25@note_on channel=0 note=75 velocity=0 time=0.25@note_on channel=0 note=74 velocity=100 time=0@note_on channel=1 note=59 velocity=100 time=0@note_on channel=1 note=55 velocity=100 time=0@note_on channel=0 note=67 velocity=0 time=0.25@note_on channel=0 note=65 velocity=100 time=0@note_on channel=0 note=65 velocity=0 time=0.25@note_on channel=0 note=74 velocity=0 time=0@note_on channel=0 note=63 velocity=100 time=0@note_on channel=1 note=55 velocity=0 time=0@note_on channel=1 note=59 velocity=0 time=0@note_on channel=1 note=60 velocity=100 time=0@note_on channel=1 note=56 velocity=100 time=0@note_on channel=0 note=63 velocity=0 time=0.25@note_on channel=0 note=62 velocity=100 time=0@note_on channel=0 note=62 velocity=0 time=0.25@note_on channel=0 note=63 velocity=100 time=0@note_on channel=1 note=56 velocity=0 time=0@note_on channel=1 note=60 velocity=0 time=0@note_on channel=1 note=44 velocity=100 time=0@note_on channel=0 note=67 velocity=100 time=0.25@note_on channel=0 note=67 velocity=0 time=0.25@note_on channel=0 note=72 velocity=100 time=0@note_on channel=1 note=44 velocity=0 time=0@note_on channel=0 note=63 velocity=0 time=0.25@note_on channel=0 note=65 velocity=100 time=0@note_on channel=0 note=65 velocity=0 time=0.25@note_on channel=0 note=67 velocity=100 time=0@note_on channel=1 note=60 velocity=100 time=0@note_on channel=1 note=51 velocity=100 time=0@note_on channel=0 note=72 velocity=0 time=0.25@note_on channel=0 note=72 velocity=100 time=0@note_on channel=0 note=67 velocity=0 time=0.25@note_on channel=0 note=68 velocity=100 time=0@note_on channel=1 note=51 velocity=0 time=0@note_on channel=1 note=53 velocity=100 time=0@note_on channel=0 note=72 velocity=0 time=0.25@note_on channel=0 note=74 velocity=100 time=0@note_on channel=0 note=74 velocity=0 time=0.125@note_on channel=0 note=75 velocity=100 time=0@note_on channel=0 note=75 velocity=0 time=0.125@note_on channel=0 note=68 velocity=0 time=0@note_on channel=0 note=77 velocity=100 time=0@note_on channel=1 note=53 velocity=0 time=0@note_on channel=1 note=50 velocity=100 time=0@note_on channel=0 note=77 velocity=0 time=0.25@note_on channel=0 note=79 velocity=100 time=0@note_on channel=0 note=79 velocity=0 time=0.25@note_on channel=0 note=80 velocity=100 time=0@note_on channel=1 note=50 velocity=0 time=0@note_on channel=1 note=55 velocity=100 time=0@note_on channel=0 note=80 velocity=0 time=0.25@note_on channel=0 note=79 velocity=100 time=0@note_on channel=0 note=79 velocity=0 time=0.125@note_on channel=0 note=77 velocity=100 time=0@note_on channel=0 note=77 velocity=0 time=0.125@note_on channel=0 note=79 velocity=100 time=0@note_on channel=1 note=60 velocity=0 time=0@note_on channel=1 note=59 velocity=100 time=0@note_on channel=0 note=79 velocity=0 time=0.25@note_on channel=0 note=74 velocity=100 time=0@note_on channel=0 note=74 velocity=0 time=0.25@note_on channel=0 note=74 velocity=100 time=0@note_on channel=1 note=59 velocity=0 time=0@note_on channel=1 note=55 velocity=0 time=0@note_on channel=1 note=60 velocity=100 time=0@note_on channel=0 note=74 velocity=0 time=0.25@note_on channel=0 note=75 velocity=100 time=0@note_on channel=0 note=75 velocity=0 time=0.125@note_on channel=0 note=77 velocity=100 time=0@note_on channel=0 note=77 velocity=0 time=0.125@note_on channel=0 note=75 velocity=100 time=0@note_on channel=1 note=48 velocity=100 time=0@note_on channel=0 note=75 velocity=0 time=0.125@note_on channel=0 note=74 velocity=100 time=0@note_on channel=0 note=74 velocity=0 time=0.125@note_on channel=0 note=72 velocity=100 time=0@note_on channel=0 note=72 velocity=0 time=0.25@note_on channel=0 note=79 velocity=100 time=0@note_on channel=1 note=48 velocity=0 time=0@note_on channel=1 note=60 velocity=0 time=0@note_on channel=1 note=60 velocity=100 time=0@note_on channel=0 note=75 velocity=100 time=0.25@note_on channel=0 note=79 velocity=0 time=0.25@note_on channel=0 note=79 velocity=100 time=0@note_on channel=1 note=60 velocity=0 time=0@note_on channel=1 note=58 velocity=100 time=0@note_on channel=0 note=75 velocity=0 time=0.25@note_on channel=0 note=74 velocity=100 time=0@note_on channel=0 note=74 velocity=0 time=0.25@note_on channel=0 note=72 velocity=100 time=0@note_on channel=1 note=58 velocity=0 time=0@note_on channel=1 note=56 velocity=100 time=0@note_on channel=0 note=79 velocity=0 time=0.25@note_on channel=0 note=80 velocity=100 time=0@note_on channel=0 note=80 velocity=0 time=0.125@note_on channel=0 note=82 velocity=100 time=0@note_on channel=0 note=82 velocity=0 time=0.125@note_on channel=0 note=84 velocity=100 time=0@note_on channel=1 note=56 velocity=0 time=0@note_on channel=1 note=55 velocity=100 time=0@note_on channel=0 note=84 velocity=0 time=0.25@note_on channel=0 note=75 velocity=100 time=0@note_on channel=0 note=75 velocity=0 time=0.25@note_on channel=0 note=77 velocity=100 time=0@note_on channel=1 note=55 velocity=0 time=0@note_on channel=1 note=56 velocity=100 time=0@note_on channel=0 note=72 velocity=0 time=0.25@note_on channel=0 note=72 velocity=100 time=0@note_on channel=0 note=77 velocity=0 time=0.25@note_on channel=0 note=80 velocity=100 time=0@note_on channel=1 note=56 velocity=0 time=0@note_on channel=1 note=53 velocity=100 time=0@note_on channel=0 note=72 velocity=0 time=0.25@note_on channel=0 note=72 velocity=100 time=0@note_on channel=0 note=72 velocity=0 time=0.25@note_on channel=0 note=80 velocity=0 time=0@note_on channel=0 note=72 velocity=100 time=0@note_on channel=1 note=53 velocity=0 time=0@note_on channel=1 note=58 velocity=100 time=0@note_on channel=0 note=72 velocity=0 time=0.25@note_on channel=0 note=74 velocity=100 time=0@note_on channel=0 note=74 velocity=0 time=0.125@note_on channel=0 note=75 velocity=100 time=0@note_on channel=0 note=75 velocity=0 time=0.125@note_on channel=0 note=74 velocity=100 time=0@note_on channel=1 note=58 velocity=0 time=0@note_on channel=1 note=46 velocity=100 time=0@note_on channel=0 note=74 velocity=0 time=0.125@note_on channel=0 note=72 velocity=100 time=0@note_on channel=0 note=72 velocity=0 time=0.125@note_on channel=0 note=70 velocity=100 time=0@note_on channel=0 note=70 velocity=0 time=0.25@note_on channel=0 note=77 velocity=100 time=0@note_on channel=1 note=46 velocity=0 time=0@note_on channel=1 note=58 velocity=100 time=0@note_on channel=0 note=74 velocity=100 time=0.25@note_on channel=0 note=77 velocity=0 time=0.25@note_on channel=0 note=77 velocity=100 time=0@note_on channel=1 note=58 velocity=0 time=0@note_on channel=1 note=56 velocity=100 time=0@note_on channel=0 note=74 velocity=0 time=0.25@note_on channel=0 note=72 velocity=100 time=0@note_on channel=0 note=72 velocity=0 time=0.25@note_on channel=0 note=70 velocity=100 time=0@note_on channel=1 note=56 velocity=0 time=0@note_on channel=1 note=55 velocity=100 time=0@note_on channel=0 note=77 velocity=0 time=0.25@note_on channel=0 note=79 velocity=100 time=0@note_on channel=0 note=79 velocity=0 time=0.125@note_on channel=0 note=80 velocity=100 time=0@note_on channel=0 note=80 velocity=0 time=0.125@note_on channel=0 note=82 velocity=100 time=0@note_on channel=1 note=55 velocity=0 time=0@note_on channel=1 note=53 velocity=100 time=0@note_on channel=0 note=82 velocity=0 time=0.25@note_on channel=0 note=74 velocity=100 time=0@note_on channel=0 note=74 velocity=0 time=0.25@note_on channel=0 note=75 velocity=100 time=0@note_on channel=1 note=53 velocity=0 time=0@note_on channel=1 note=55 velocity=100 time=0@note_on channel=0 note=70 velocity=0 time=0.25@note_on channel=0 note=70 velocity=100 time=0@note_on channel=0 note=75 velocity=0 time=0.25@note_on channel=0 note=79 velocity=100 time=0@note_on channel=1 note=55 velocity=0 time=0@note_on channel=1 note=51 velocity=100 time=0@note_on channel=0 note=70 velocity=0 time=0.25@note_on channel=0 note=70 velocity=100 time=0@note_on channel=0 note=70 velocity=0 time=0.25@note_on channel=0 note=79 velocity=0 time=0@note_on channel=0 note=70 velocity=100 time=0@note_on channel=1 note=51 velocity=0 time=0@note_on channel=1 note=56 velocity=100 time=0@note_on channel=0 note=70 velocity=0 time=0.25@note_on channel=0 note=72 velocity=100 time=0@note_on channel=0 note=72 velocity=0 time=0.125@note_on channel=0 note=73 velocity=100 time=0@note_on channel=0 note=73 velocity=0 time=0.125@note_on channel=0 note=72 velocity=100 time=0@note_on channel=1 note=56 velocity=0 time=0@note_on channel=1 note=44 velocity=100 time=0@note_on channel=0 note=72 velocity=0 time=0.125@note_on channel=0 note=70 velocity=100 time=0@note_on channel=0 note=70 velocity=0 time=0.125@note_on channel=0 note=68 velocity=100 time=0@note_on channel=0 note=68 velocity=0 time=0.25@note_on channel=0 note=75 velocity=100 time=0@note_on channel=1 note=44 velocity=0 time=0@note_on channel=1 note=56 velocity=100 time=0@note_on channel=0 note=72 velocity=100 time=0.25@note_on channel=0 note=75 velocity=0 time=0.25@note_on channel=0 note=75 velocity=100 time=0@note_on channel=1 note=56 velocity=0 time=0@note_on channel=1 note=55 velocity=100 time=0@note_on channel=0 note=72 velocity=0 time=0.25@note_on channel=0 note=70 velocity=100 time=0@note_on channel=0 note=70 velocity=0 time=0.25@note_on channel=0 note=68 velocity=100 time=0@note_on channel=1 note=55 velocity=0 time=0@note_on channel=1 note=53 velocity=100 time=0@note_on channel=0 note=75 velocity=0 time=0.25@note_on channel=0 note=77 velocity=100 time=0@note_on channel=0 note=77 velocity=0 time=0.125@note_on channel=0 note=79 velocity=100 time=0@note_on channel=0 note=79 velocity=0 time=0.125@note_on channel=0 note=80 velocity=100 time=0@note_on channel=1 note=53 velocity=0 time=0@note_on channel=1 note=41 velocity=100 time=0@note_on channel=0 note=68 velocity=0 time=0.25@note_on channel=0 note=75 velocity=100 time=0@note_on channel=0 note=80 velocity=0 time=0.25@note_on channel=0 note=80 velocity=100 time=0@note_on channel=1 note=41 velocity=0 time=0@note_on channel=1 note=53 velocity=100 time=0@note_on channel=0 note=75 velocity=0 time=0.25@note_on channel=0 note=74 velocity=100 time=0@note_on channel=0 note=80 velocity=0 time=0.25@note_on channel=0 note=80 velocity=100 time=0@note_on channel=1 note=53 velocity=0 time=0@note_on channel=1 note=51 velocity=100 time=0@note_on channel=0 note=74 velocity=0 time=0.25@note_on channel=0 note=72 velocity=100 time=0@note_on channel=0 note=72 velocity=0 time=0.25@note_on channel=0 note=70 velocity=100 time=0@note_on channel=1 note=51 velocity=0 time=0@note_on channel=1 note=50 velocity=100 time=0@note_on channel=0 note=80 velocity=0 time=0.25@note_on channel=0 note=77 velocity=100 time=0@note_on channel=0 note=77 velocity=0 time=0.125@note_on channel=0 note=79 velocity=100 time=0@note_on channel=0 note=79 velocity=0 time=0.125@note_on channel=0 note=80 velocity=100 time=0@note_on channel=1 note=50 velocity=0 time=0@note_on channel=1 note=38 velocity=100 time=0@note_on channel=0 note=70 velocity=0 time=0.25@note_on channel=0 note=70 velocity=100 time=0@note_on channel=0 note=80 velocity=0 time=0.25@note_on channel=0 note=80 velocity=100 time=0@note_on channel=1 note=38 velocity=0 time=0@note_on channel=1 note=50 velocity=100 time=0@note_on channel=0 note=70 velocity=0 time=0.25@note_on channel=0 note=77 velocity=100 time=0@note_on channel=0 note=80 velocity=0 time=0.25@note_on channel=0 note=80 velocity=100 time=0@note_on channel=1 note=50 velocity=0 time=0@note_on channel=1 note=46 velocity=100 time=0@note_on channel=0 note=77 velocity=0 time=0.25@note_on channel=0 note=74 velocity=100 time=0@note_on channel=0 note=74 velocity=0 time=0.25@note_on channel=0 note=70 velocity=100 time=0@note_on channel=1 note=46 velocity=0 time=0@note_on channel=1 note=51 velocity=100 time=0@note_on channel=0 note=80 velocity=0 time=0.25@note_on channel=0 note=79 velocity=100 time=0@note_on channel=0 note=79 velocity=0 time=0.125@note_on channel=0 note=77 velocity=100 time=0@note_on channel=0 note=77 velocity=0 time=0.125@note_on channel=0 note=79 velocity=100 time=0@note_on channel=1 note=51 velocity=0 time=0@note_on channel=1 note=43 velocity=100 time=0@note_on channel=0 note=79 velocity=0 time=0.25@note_on channel=0 note=75 velocity=100 time=0@note_on channel=0 note=75 velocity=0 time=0.25@note_on channel=0 note=70 velocity=0 time=0@note_on channel=0 note=77 velocity=100 time=0@note_on channel=1 note=43 velocity=0 time=0@note_on channel=1 note=44 velocity=100 time=0@note_on channel=0 note=72 velocity=100 time=0.25@note_on channel=0 note=77 velocity=0 time=0.25@note_on channel=0 note=74 velocity=100 time=0@note_on channel=1 note=44 velocity=0 time=0@note_on channel=1 note=46 velocity=100 time=0@note_on channel=0 note=72 velocity=0 time=0.25@note_on channel=0 note=68 velocity=100 time=0@note_on channel=0 note=68 velocity=0 time=0.25@note_on channel=0 note=67 velocity=100 time=0@note_on channel=1 note=46 velocity=0 time=0@note_on channel=1 note=51 velocity=100 time=0@note_on channel=0 note=74 velocity=0 time=0.25@note_on channel=0 note=75 velocity=100 time=0@note_on channel=0 note=75 velocity=0 time=0.125@note_on channel=0 note=77 velocity=100 time=0@note_on channel=0 note=77 velocity=0 time=0.125@note_on channel=0 note=79 velocity=100 time=0@note_on channel=1 note=51 velocity=0 time=0@note_on channel=1 note=39 velocity=100 time=0@note_on channel=0 note=79 velocity=0 time=0.25@note_on channel=0 note=74 velocity=100 time=0@note_on channel=0 note=74 velocity=0 time=0.25@note_on channel=0 note=67 velocity=0 time=0@note_on channel=0 note=75 velocity=100 time=0@note_on channel=1 note=39 velocity=0 time=0@note_on channel=0 note=71 velocity=100 time=0.25@note_on channel=0 note=71 velocity=0 time=0.25@note_on channel=0 note=75 velocity=0 time=0@note_on channel=0 note=72 velocity=100 time=0@note_on channel=1 note=51 velocity=100 time=0@note_on channel=0 note=67 velocity=100 time=0.25@note_on channel=0 note=67 velocity=0 time=0.25@note_on channel=0 note=66 velocity=100 time=0@note_on channel=1 note=51 velocity=0 time=0@note_on channel=1 note=50 velocity=100 time=0@note_on channel=0 note=66 velocity=0 time=0.25@note_on channel=0 note=72 velocity=0 time=0@note_on channel=0 note=78 velocity=100 time=0@note_on channel=0 note=78 velocity=0 time=0.125@note_on channel=0 note=79 velocity=100 time=0@note_on channel=0 note=79 velocity=0 time=0.125@note_on channel=0 note=81 velocity=100 time=0@note_on channel=1 note=50 velocity=0 time=0@note_on channel=1 note=38 velocity=100 time=0@note_on channel=0 note=81 velocity=0 time=0.25@note_on channel=0 note=74 velocity=100 time=0@note_on channel=0 note=74 velocity=0 time=0.25@note_on channel=0 note=75 velocity=100 time=0@note_on channel=1 note=38 velocity=0 time=0@note_on channel=0 note=72 velocity=100 time=0.25@note_on channel=0 note=75 velocity=0 time=0.25@note_on channel=0 note=74 velocity=100 time=0@note_on channel=1 note=54 velocity=100 time=0@note_on channel=0 note=72 velocity=0 time=0.25@note_on channel=0 note=69 velocity=100 time=0@note_on channel=0 note=74 velocity=0 time=0.25@note_on channel=0 note=70 velocity=100 time=0@note_on channel=1 note=54 velocity=0 time=0@note_on channel=1 note=55 velocity=100 time=0@note_on channel=0 note=69 velocity=0 time=0.25@note_on channel=0 note=67 velocity=100 time=0@note_on channel=0 note=67 velocity=0 time=0.125@note_on channel=0 note=66 velocity=100 time=0@note_on channel=0 note=66 velocity=0 time=0.125@note_on channel=0 note=67 velocity=100 time=0@note_on channel=1 note=55 velocity=0 time=0@note_on channel=1 note=48 velocity=100 time=0@note_on channel=0 note=70 velocity=0 time=0.25@note_on channel=0 note=75 velocity=100 time=0@note_on channel=0 note=75 velocity=0 time=0.25@note_on channel=0 note=69 velocity=100 time=0@note_on channel=1 note=48 velocity=0 time=0@note_on channel=1 note=50 velocity=100 time=0@note_on channel=0 note=69 velocity=0 time=0.25@note_on channel=0 note=72 velocity=100 time=0@note_on channel=0 note=72 velocity=0 time=0.125@note_on channel=0 note=71 velocity=100 time=0@note_on channel=0 note=71 velocity=0 time=0.125@note_on channel=0 note=72 velocity=100 time=0@note_on channel=1 note=50 velocity=0 time=0@note_on channel=1 note=38 velocity=100 time=0@note_on channel=0 note=67 velocity=0 time=0.25@note_on channel=0 note=66 velocity=100 time=0@note_on channel=0 note=66 velocity=0 time=0.25@note_on channel=0 note=67 velocity=100 time=0@note_on channel=1 note=38 velocity=0 time=0@note_on channel=1 note=43 velocity=100 time=0@note_on channel=0 note=72 velocity=0 time=0.25@note_on channel=0 note=71 velocity=100 time=0@note_on channel=0 note=71 velocity=0 time=0.125@note_on channel=0 note=72 velocity=100 time=0@note_on channel=0 note=72 velocity=0 time=0.125@note_on channel=0 note=74 velocity=100 time=0@note_on channel=0 note=67 velocity=0 time=0.25@note_on channel=0 note=65 velocity=100 time=0@note_on channel=0 note=65 velocity=0 time=0.25@note_on channel=0 note=63 velocity=100 time=0@note_on channel=0 note=74 velocity=0 time=0.25@note_on channel=0 note=72 velocity=100 time=0@note_on channel=0 note=72 velocity=0 time=0.25@note_on channel=0 note=69 velocity=100 time=0@note_on channel=0 note=69 velocity=0 time=0.25@note_on channel=0 note=66 velocity=100 time=0@note_on channel=0 note=66 velocity=0 time=0.25@note_on channel=0 note=67 velocity=100 time=0@note_on channel=0 note=63 velocity=0 time=0.25@note_on channel=0 note=62 velocity=100 time=0@note_on channel=0 note=62 velocity=0 time=0.125@note_on channel=0 note=60 velocity=100 time=0@note_on channel=0 note=60 velocity=0 time=0.125@note_on channel=0 note=59 velocity=100 time=0@note_on channel=0 note=60 velocity=100 time=0.125@note_on channel=0 note=60 velocity=0 time=0.125@note_on channel=0 note=62 velocity=100 time=0@note_on channel=1 note=55 velocity=100 time=0.25@note_on channel=0 note=62 velocity=0 time=0.75@note_on channel=0 note=59 velocity=0 time=0@note_on channel=0 note=67 velocity=0 time=0@note_on channel=0 note=74 velocity=100 time=0@note_on channel=1 note=55 velocity=0 time=0@note_on channel=1 note=43 velocity=0 time=0@note_on channel=0 note=74 velocity=0 time=0.25@note_on channel=0 note=74 velocity=100 time=0@note_on channel=1 note=55 velocity=100 time=0@note_on channel=1 note=59 velocity=100 time=0@note_on channel=0 note=74 velocity=0 time=0.25@note_on channel=0 note=71 velocity=100 time=0@note_on channel=0 note=71 velocity=0 time=0.125@note_on channel=0 note=72 velocity=100 time=0@note_on channel=0 note=72 velocity=0 time=0.125@note_on channel=0 note=74 velocity=100 time=0@note_on channel=1 note=59 velocity=0 time=0@note_on channel=1 note=55 velocity=0 time=0@note_on channel=1 note=43 velocity=100 time=0@note_on channel=0 note=74 velocity=0 time=0.25@note_on channel=0 note=71 velocity=100 time=0@note_on channel=0 note=71 velocity=0 time=0.25@note_on channel=0 note=67 velocity=100 time=0@note_on channel=1 note=43 velocity=0 time=0@note_on channel=0 note=71 velocity=100 time=0.25@note_on channel=0 note=67 velocity=0 time=0.25@note_on channel=0 note=65 velocity=100 time=0@note_on channel=1 note=62 velocity=100 time=0@note_on channel=1 note=55 velocity=100 time=0@note_on channel=0 note=71 velocity=0 time=0.25@note_on channel=0 note=71 velocity=100 time=0@note_on channel=0 note=71 velocity=0 time=0.25@note_on channel=0 note=65 velocity=0 time=0@note_on channel=0 note=63 velocity=100 time=0@note_on channel=1 note=55 velocity=0 time=0@note_on channel=1 note=62 velocity=0 time=0@note_on channel=1 note=60 velocity=100 time=0@note_on channel=0 note=72 velocity=100 time=0.25@note_on channel=0 note=72 velocity=0 time=0.125@note_on channel=0 note=71 velocity=100 time=0@note_on channel=0 note=71 velocity=0 time=0.125@note_on channel=0 note=72 velocity=100 time=0@note_on channel=1 note=48 velocity=100 time=0@note_on channel=0 note=72 velocity=0 time=0.25@note_on channel=0 note=67 velocity=100 time=0@note_on channel=0 note=67 velocity=0 time=0.25@note_on channel=0 note=63 velocity=0 time=0@note_on channel=0 note=63 velocity=100 time=0@note_on channel=1 note=48 velocity=0 time=0@note_on channel=1 note=60 velocity=0 time=0@note_on channel=0 note=63 velocity=0 time=0.25@note_on channel=0 note=67 velocity=100 time=0@note_on channel=0 note=67 velocity=0 time=0.125@note_on channel=0 note=65 velocity=100 time=0@note_on channel=0 note=65 velocity=0 time=0.125@note_on channel=0 note=63 velocity=100 time=0@note_on channel=1 note=48 velocity=100 time=0@note_on channel=0 note=63 velocity=0 time=0.125@note_on channel=0 note=62 velocity=100 time=0@note_on channel=0 note=62 velocity=0 time=0.125@note_on channel=0 note=60 velocity=100 time=0@note_on channel=0 note=60 velocity=0 time=0.25@note_on channel=1 note=48 velocity=0 time=0@note_on channel=1 note=58 velocity=100 time=0@note_on channel=0 note=76 velocity=100 time=0.25@note_on channel=0 note=76 velocity=0 time=0.125@note_on channel=0 note=77 velocity=100 time=0@note_on channel=0 note=77 velocity=0 time=0.125@note_on channel=0 note=79 velocity=100 time=0@note_on channel=1 note=58 velocity=0 time=0@note_on channel=1 note=46 velocity=100 time=0@note_on channel=0 note=79 velocity=0 time=0.25@note_on channel=0 note=76 velocity=100 time=0@note_on channel=0 note=76 velocity=0 time=0.25@note_on channel=0 note=72 velocity=100 time=0@note_on channel=1 note=46 velocity=0 time=0@note_on channel=0 note=76 velocity=100 time=0.25@note_on channel=0 note=72 velocity=0 time=0.25@note_on channel=0 note=67 velocity=100 time=0@note_on channel=1 note=58 velocity=100 time=0@note_on channel=0 note=76 velocity=0 time=0.25@note_on channel=0 note=76 velocity=100 time=0@note_on channel=0 note=67 velocity=0 time=0.25@note_on channel=0 note=65 velocity=100 time=0@note_on channel=1 note=58 velocity=0 time=0@note_on channel=1 note=56 velocity=100 time=0@note_on channel=0 note=76 velocity=0 time=0.25@note_on channel=0 note=77 velocity=100 time=0@note_on channel=0 note=77 velocity=0 time=0.125@note_on channel=0 note=76 velocity=100 time=0@note_on channel=0 note=76 velocity=0 time=0.125@note_on channel=0 note=77 velocity=100 time=0@note_on channel=1 note=56 velocity=0 time=0@note_on channel=1 note=55 velocity=100 time=0@note_on channel=0 note=77 velocity=0 time=0.25@note_on channel=0 note=72 velocity=100 time=0@note_on channel=0 note=72 velocity=0 time=0.25@note_on channel=0 note=65 velocity=0 time=0@note_on channel=0 note=68 velocity=100 time=0@note_on channel=1 note=55 velocity=0 time=0@note_on channel=1 note=53 velocity=100 time=0@note_on channel=0 note=68 velocity=0 time=0.25@note_on channel=0 note=72 velocity=100 time=0@note_on channel=0 note=72 velocity=0 time=0.125@note_on channel=0 note=70 velocity=100 time=0@note_on channel=0 note=70 velocity=0 time=0.125@note_on channel=0 note=68 velocity=100 time=0@note_on channel=1 note=53 velocity=0 time=0@note_on channel=1 note=60 velocity=100 time=0@note_on channel=0 note=68 velocity=0 time=0.125@note_on channel=0 note=67 velocity=100 time=0@note_on channel=0 note=67 velocity=0 time=0.125@note_on channel=0 note=65 velocity=100 time=0@note_on channel=0 note=73 velocity=100 time=0.25@note_on channel=1 note=46 velocity=100 time=0@note_on channel=0 note=65 velocity=0 time=0.25@note_on channel=0 note=67 velocity=100 time=0@note_on channel=0 note=67 velocity=0 time=0.125@note_on channel=0 note=68 velocity=100 time=0@note_on channel=0 note=68 velocity=0 time=0.125@note_on channel=0 note=70 velocity=100 time=0@note_on channel=1 note=60 velocity=0 time=0@note_on channel=1 note=58 velocity=100 time=0@note_on channel=0 note=70 velocity=0 time=0.25@note_on channel=0 note=65 velocity=100 time=0@note_on channel=0 note=65 velocity=0 time=0.25@note_on channel=0 note=67 velocity=100 time=0@note_on channel=1 note=46 velocity=0 time=0@note_on channel=1 note=51 velocity=100 time=0@note_on channel=0 note=67 velocity=0 time=0.25@note_on channel=0 note=70 velocity=100 time=0@note_on channel=0 note=70 velocity=0 time=0.25@note_on channel=0 note=63 velocity=100 time=0@note_on channel=1 note=51 velocity=0 time=0@note_on channel=1 note=55 velocity=100 time=0@note_on channel=0 note=73 velocity=0 time=0.25@note_on channel=0 note=73 velocity=100 time=0@note_on channel=0 note=73 velocity=0 time=0.25@note_on channel=0 note=72 velocity=100 time=0@note_on channel=1 note=55 velocity=0 time=0@note_on channel=1 note=44 velocity=100 time=0@note_on channel=0 note=63 velocity=0 time=0.25@note_on channel=0 note=65 velocity=100 time=0@note_on channel=0 note=65 velocity=0 time=0.125@note_on channel=0 note=67 velocity=100 time=0@note_on channel=0 note=67 velocity=0 time=0.125@note_on channel=0 note=68 velocity=100 time=0@note_on channel=1 note=58 velocity=0 time=0@note_on channel=1 note=56 velocity=100 time=0@note_on channel=0 note=68 velocity=0 time=0.25@note_on channel=0 note=64 velocity=100 time=0@note_on channel=0 note=64 velocity=0 time=0.25@note_on channel=0 note=65 velocity=100 time=0@note_on channel=1 note=44 velocity=0 time=0@note_on channel=1 note=49 velocity=100 time=0@note_on channel=0 note=65 velocity=0 time=0.25@note_on channel=0 note=72 velocity=0 time=0@note_on channel=0 note=77 velocity=100 time=0@note_on channel=0 note=77 velocity=0 time=0.125@note_on channel=0 note=75 velocity=100 time=0@note_on channel=0 note=75 velocity=0 time=0.125@note_on channel=0 note=73 velocity=100 time=0@note_on channel=1 note=49 velocity=0 time=0@note_on channel=1 note=53 velocity=100 time=0@note_on channel=0 note=73 velocity=0 time=0.25@note_on channel=0 note=72 velocity=100 time=0@note_on channel=0 note=72 velocity=0 time=0.25@note_on channel=0 note=70 velocity=100 time=0@note_on channel=1 note=53 velocity=0 time=0@note_on channel=1 note=56 velocity=0 time=0@note_on channel=1 note=43 velocity=100 time=0@note_on channel=0 note=70 velocity=0 time=0.25@note_on channel=0 note=73 velocity=100 time=0@note_on channel=0 note=73 velocity=0 time=0.125@note_on channel=0 note=72 velocity=100 time=0@note_on channel=0 note=72 velocity=0 time=0.125@note_on channel=0 note=70 velocity=100 time=0@note_on channel=1 note=43 velocity=0 time=0@note_on channel=1 note=55 velocity=100 time=0@note_on channel=0 note=70 velocity=0 time=0.25@note_on channel=0 note=68 velocity=100 time=0@note_on channel=0 note=68 velocity=0 time=0.25@note_on channel=0 note=67 velocity=100 time=0@note_on channel=1 note=55 velocity=0 time=0@note_on channel=1 note=58 velocity=100 time=0@note_on channel=0 note=67 velocity=0 time=0.25@note_on channel=0 note=70 velocity=100 time=0@note_on channel=0 note=70 velocity=0 time=0.125@note_on channel=0 note=68 velocity=100 time=0@note_on channel=0 note=68 velocity=0 time=0.125@note_on channel=0 note=67 velocity=100 time=0@note_on channel=1 note=58 velocity=0 time=0@note_on channel=1 note=61 velocity=100 time=0@note_on channel=0 note=67 velocity=0 time=0.25@note_on channel=0 note=65 velocity=100 time=0@note_on channel=0 note=65 velocity=0 time=0.25@note_on channel=0 note=64 velocity=100 time=0@note_on channel=1 note=61 velocity=0 time=0@note_on channel=1 note=60 velocity=100 time=0@note_on channel=0 note=64 velocity=0 time=0.125@note_on channel=0 note=65 velocity=100 time=0@note_on channel=0 note=65 velocity=0 time=0.125@note_on channel=0 note=67 velocity=100 time=0@note_on channel=0 note=67 velocity=0 time=0.125@note_on channel=0 note=68 velocity=100 time=0@note_on channel=0 note=68 velocity=0 time=0.125@note_on channel=0 note=70 velocity=100 time=0@note_on channel=1 note=60 velocity=0 time=0@note_on channel=1 note=55 velocity=100 time=0@note_on channel=1 note=61 velocity=100 time=0.25@note_on channel=1 note=61 velocity=0 time=0.25@note_on channel=1 note=55 velocity=0 time=0@note_on channel=1 note=60 velocity=100 time=0@note_on channel=1 note=52 velocity=100 time=0@note_on channel=0 note=70 velocity=0 time=0.25@note_on channel=0 note=76 velocity=100 time=0@note_on channel=0 note=76 velocity=0 time=0.125@note_on channel=0 note=77 velocity=100 time=0@note_on channel=0 note=77 velocity=0 time=0.125@note_on channel=0 note=79 velocity=100 time=0@note_on channel=1 note=52 velocity=0 time=0@note_on channel=1 note=48 velocity=100 time=0@note_on channel=0 note=79 velocity=0 time=0.125@note_on channel=0 note=80 velocity=100 time=0@note_on channel=0 note=80 velocity=0 time=0.125@note_on channel=0 note=82 velocity=100 time=0@note_on channel=0 note=82 velocity=0 time=0.25@note_on channel=0 note=80 velocity=100 time=0@note_on channel=1 note=48 velocity=0 time=0@note_on channel=1 note=53 velocity=100 time=0@note_on channel=0 note=79 velocity=100 time=0.125@note_on channel=0 note=79 velocity=0 time=0.125@note_on channel=0 note=77 velocity=100 time=0@note_on channel=0 note=77 velocity=0 time=0.125@note_on channel=0 note=76 velocity=100 time=0@note_on channel=0 note=76 velocity=0 time=0.125@note_on channel=0 note=77 velocity=100 time=0@note_on channel=1 note=53 velocity=0 time=0@note_on channel=1 note=60 velocity=0 time=0@note_on channel=1 note=44 velocity=100 time=0@note_on channel=0 note=80 velocity=0 time=0.25@note_on channel=0 note=80 velocity=100 time=0@note_on channel=0 note=77 velocity=0 time=0.25@note_on channel=0 note=73 velocity=100 time=0@note_on channel=1 note=44 velocity=0 time=0@note_on channel=1 note=46 velocity=100 time=0@note_on channel=0 note=80 velocity=0 time=0.25@note_on channel=0 note=79 velocity=100 time=0@note_on channel=0 note=73 velocity=0 time=0.25@note_on channel=0 note=70 velocity=100 time=0@note_on channel=1 note=46 velocity=0 time=0@note_on channel=1 note=55 velocity=100 time=0@note_on channel=1 note=48 velocity=100 time=0@note_on channel=0 note=79 velocity=0 time=0.25@note_on channel=0 note=76 velocity=100 time=0@note_on channel=0 note=76 velocity=0 time=0.25@note_on channel=0 note=77 velocity=100 time=0@note_on channel=1 note=48 velocity=0 time=0@note_on channel=1 note=55 velocity=0 time=0@note_on channel=1 note=41 velocity=100 time=0@note_on channel=0 note=70 velocity=0 time=0.25@note_on channel=0 note=68 velocity=100 time=0@note_on channel=0 note=68 velocity=0 time=0.125@note_on channel=0 note=67 velocity=100 time=0@note_on channel=0 note=67 velocity=0 time=0.125@note_on channel=0 note=68 velocity=100 time=0@note_on channel=1 note=41 velocity=0 time=0@note_on channel=1 note=53 velocity=100 time=0@note_on channel=0 note=68 velocity=0 time=0.125@note_on channel=0 note=70 velocity=100 time=0@note_on channel=0 note=70 velocity=0 time=0.125@note_on channel=0 note=72 velocity=100 time=0@note_on channel=0 note=72 velocity=0 time=0.25@note_on channel=0 note=77 velocity=0 time=0@note_on channel=0 note=65 velocity=100 time=0@note_on channel=1 note=53 velocity=0 time=0@note_on channel=1 note=56 velocity=100 time=0@note_on channel=0 note=68 velocity=100 time=0.25@note_on channel=0 note=68 velocity=0 time=0.25@note_on channel=0 note=72 velocity=100 time=0@note_on channel=1 note=56 velocity=0 time=0@note_on channel=1 note=53 velocity=100 time=0@note_on channel=0 note=72 velocity=0 time=0.25@note_on channel=0 note=75 velocity=100 time=0@note_on channel=0 note=75 velocity=0 time=0.25@note_on channel=0 note=65 velocity=0 time=0@note_on channel=0 note=74 velocity=100 time=0@note_on channel=1 note=53 velocity=0 time=0@note_on channel=1 note=58 velocity=100 time=0@note_on channel=0 note=74 velocity=0 time=0.125@note_on channel=0 note=75 velocity=100 time=0@note_on channel=0 note=75 velocity=0 time=0.125@note_on channel=0 note=77 velocity=100 time=0@note_on channel=0 note=77 velocity=0 time=0.125@note_on channel=0 note=79 velocity=100 time=0@note_on channel=0 note=79 velocity=0 time=0.125@note_on channel=0 note=80 velocity=100 time=0@note_on channel=1 note=58 velocity=0 time=0@note_on channel=1 note=50 velocity=100 time=0@note_on channel=0 note=77 velocity=100 time=0.25@note_on channel=0 note=77 velocity=0 time=0.25@note_on channel=0 note=70 velocity=100 time=0@note_on channel=1 note=50 velocity=0 time=0@note_on channel=1 note=51 velocity=100 time=0@note_on channel=0 note=80 velocity=0 time=0.25@note_on channel=0 note=79 velocity=100 time=0@note_on channel=0 note=79 velocity=0 time=0.125@note_on channel=0 note=77 velocity=100 time=0@note_on channel=0 note=77 velocity=0 time=0.125@note_on channel=0 note=75 velocity=100 time=0@note_on channel=1 note=51 velocity=0 time=0@note_on channel=1 note=55 velocity=100 time=0@note_on channel=0 note=75 velocity=0 time=0.125@note_on channel=0 note=77 velocity=100 time=0@note_on channel=0 note=77 velocity=0 time=0.125@note_on channel=0 note=79 velocity=100 time=0@note_on channel=0 note=79 velocity=0 time=0.25@note_on channel=0 note=70 velocity=0 time=0@note_on channel=0 note=72 velocity=100 time=0@note_on channel=1 note=55 velocity=0 time=0@note_on channel=1 note=56 velocity=100 time=0@note_on channel=0 note=72 velocity=0 time=0.125@note_on channel=0 note=74 velocity=100 time=0@note_on channel=0 note=74 velocity=0 time=0.125@note_on channel=0 note=75 velocity=100 time=0@note_on channel=0 note=75 velocity=0 time=0.125@note_on channel=0 note=77 velocity=100 time=0@note_on channel=0 note=77 velocity=0 time=0.125@note_on channel=0 note=79 velocity=100 time=0@note_on channel=1 note=56 velocity=0 time=0@note_on channel=1 note=48 velocity=100 time=0@note_on channel=0 note=75 velocity=100 time=0.25@note_on channel=0 note=75 velocity=0 time=0.25@note_on channel=0 note=68 velocity=100 time=0@note_on channel=1 note=48 velocity=0 time=0@note_on channel=1 note=50 velocity=100 time=0@note_on channel=0 note=79 velocity=0 time=0.25@note_on channel=0 note=77 velocity=100 time=0@note_on channel=0 note=77 velocity=0 time=0.125@note_on channel=0 note=75 velocity=100 time=0@note_on channel=0 note=75 velocity=0 time=0.125@note_on channel=0 note=74 velocity=100 time=0@note_on channel=1 note=50 velocity=0 time=0@note_on channel=1 note=53 velocity=100 time=0@note_on channel=0 note=74 velocity=0 time=0.125@note_on channel=0 note=75 velocity=100 time=0@note_on channel=0 note=75 velocity=0 time=0.125@note_on channel=0 note=77 velocity=100 time=0@note_on channel=0 note=77 velocity=0 time=0.25@note_on channel=0 note=68 velocity=0 time=0@note_on channel=0 note=71 velocity=100 time=0@note_on channel=1 note=53 velocity=0 time=0@note_on channel=1 note=55 velocity=100 time=0@note_on channel=0 note=71 velocity=0 time=0.125@note_on channel=0 note=72 velocity=100 time=0@note_on channel=0 note=72 velocity=0 time=0.125@note_on channel=0 note=74 velocity=100 time=0@note_on channel=0 note=74 velocity=0 time=0.125@note_on channel=0 note=75 velocity=100 time=0@note_on channel=0 note=75 velocity=0 time=0.125@note_on channel=0 note=77 velocity=100 time=0@note_on channel=1 note=55 velocity=0 time=0@note_on channel=1 note=47 velocity=100 time=0@note_on channel=0 note=74 velocity=100 time=0.25@note_on channel=0 note=74 velocity=0 time=0.25@note_on channel=0 note=67 velocity=100 time=0@note_on channel=1 note=47 velocity=0 time=0@note_on channel=1 note=48 velocity=100 time=0@note_on channel=0 note=77 velocity=0 time=0.25@note_on channel=0 note=75 velocity=100 time=0@note_on channel=0 note=75 velocity=0 time=0.125@note_on channel=0 note=74 velocity=100 time=0@note_on channel=0 note=74 velocity=0 time=0.125@note_on channel=0 note=72 velocity=100 time=0@note_on channel=1 note=48 velocity=0 time=0@note_on channel=1 note=51 velocity=100 time=0@note_on channel=0 note=72 velocity=0 time=0.125@note_on channel=0 note=74 velocity=100 time=0@note_on channel=0 note=74 velocity=0 time=0.125@note_on channel=0 note=75 velocity=100 time=0@note_on channel=0 note=67 velocity=0 time=0.25@note_on channel=0 note=68 velocity=100 time=0@note_on channel=1 note=51 velocity=0 time=0@note_on channel=1 note=53 velocity=100 time=0@note_on channel=0 note=75 velocity=0 time=0.25@note_on channel=0 note=74 velocity=100 time=0@note_on channel=1 note=53 velocity=0 time=0@note_on channel=1 note=56 velocity=100 time=0@note_on channel=0 note=74 velocity=0 time=0.125@note_on channel=0 note=72 velocity=100 time=0@note_on channel=1 note=56 velocity=0 time=0@note_on channel=1 note=55 velocity=100 time=0@note_on channel=0 note=72 velocity=0 time=0.125@note_on channel=0 note=71 velocity=100 time=0@note_on channel=1 note=55 velocity=0 time=0@note_on channel=1 note=53 velocity=100 time=0@note_on channel=0 note=71 velocity=0 time=0.125@note_on channel=0 note=72 velocity=100 time=0@note_on channel=0 note=72 velocity=0 time=0.125@note_on channel=0 note=74 velocity=100 time=0@note_on channel=1 note=53 velocity=0 time=0@note_on channel=1 note=51 velocity=100 time=0@note_on channel=0 note=74 velocity=0 time=0.25@note_on channel=0 note=68 velocity=0 time=0@note_on channel=0 note=65 velocity=100 time=0@note_on channel=0 note=68 velocity=100 time=0@note_on channel=1 note=51 velocity=0 time=0@note_on channel=1 note=50 velocity=100 time=0@note_on channel=1 note=50 velocity=0 time=0.25@note_on channel=1 note=53 velocity=100 time=0@note_on channel=1 note=53 velocity=0 time=0.125@note_on channel=1 note=51 velocity=100 time=0@note_on channel=1 note=51 velocity=0 time=0.125@note_on channel=1 note=50 velocity=100 time=0@note_on channel=1 note=50 velocity=0 time=0.25@note_on channel=1 note=48 velocity=100 time=0@note_on channel=1 note=48 velocity=0 time=0.25@note_on channel=1 note=47 velocity=100 time=0@note_on channel=0 note=68 velocity=0 time=0.25@note_on channel=0 note=71 velocity=100 time=0@note_on channel=0 note=71 velocity=0 time=0.125@note_on channel=0 note=72 velocity=100 time=0@note_on channel=0 note=72 velocity=0 time=0.125@note_on channel=0 note=74 velocity=100 time=0@note_on channel=1 note=47 velocity=0 time=0@note_on channel=1 note=43 velocity=100 time=0@note_on channel=0 note=65 velocity=0 time=0.25@note_on channel=0 note=65 velocity=100 time=0@note_on channel=0 note=65 velocity=0 time=0.25@note_on channel=0 note=63 velocity=100 time=0@note_on channel=1 note=43 velocity=0 time=0@note_on channel=1 note=48 velocity=100 time=0@note_on channel=0 note=74 velocity=0 time=0.25@note_on channel=0 note=67 velocity=100 time=0@note_on channel=1 note=48 velocity=0 time=0@note_on channel=1 note=50 velocity=100 time=0@note_on channel=0 note=67 velocity=0 time=0.25@note_on channel=0 note=72 velocity=100 time=0@note_on channel=1 note=50 velocity=0 time=0@note_on channel=1 note=51 velocity=100 time=0@note_on channel=0 note=63 velocity=0 time=0.25@note_on channel=0 note=69 velocity=100 time=0@note_on channel=1 note=51 velocity=0 time=0@note_on channel=1 note=48 velocity=100 time=0@note_on channel=0 note=69 velocity=0 time=0.25@note_on channel=0 note=66 velocity=100 time=0@note_on channel=1 note=48 velocity=0 time=0@note_on channel=1 note=50 velocity=100 time=0@note_on channel=0 note=72 velocity=0 time=0.25@note_on channel=0 note=69 velocity=100 time=0@note_on channel=0 note=69 velocity=0 time=0.125@note_on channel=0 note=70 velocity=100 time=0@note_on channel=0 note=70 velocity=0 time=0.125@note_on channel=0 note=66 velocity=0 time=0@note_on channel=0 note=72 velocity=100 time=0@note_on channel=1 note=50 velocity=0 time=0@note_on channel=1 note=45 velocity=100 time=0@note_on channel=0 note=72 velocity=0 time=0.25@note_on channel=0 note=65 velocity=100 time=0@note_on channel=0 note=65 velocity=0 time=0.25@note_on channel=0 note=67 velocity=100 time=0@note_on channel=1 note=45 velocity=0 time=0@note_on channel=1 note=46 velocity=100 time=0@note_on channel=0 note=62 velocity=100 time=0.25@note_on channel=1 note=46 velocity=0 time=0@note_on channel=1 note=50 velocity=100 time=0@note_on channel=0 note=67 velocity=0 time=0.25@note_on channel=0 note=70 velocity=100 time=0@note_on channel=1 note=50 velocity=0 time=0@note_on channel=1 note=55 velocity=100 time=0@note_on channel=0 note=62 velocity=0 time=0.25@note_on channel=0 note=61 velocity=100 time=0@note_on channel=1 note=55 velocity=0 time=0@note_on channel=1 note=53 velocity=100 time=0@note_on channel=0 note=61 velocity=0 time=0.25@note_on channel=0 note=60 velocity=100 time=0@note_on channel=1 note=53 velocity=0 time=0@note_on channel=1 note=52 velocity=100 time=0@note_on channel=0 note=70 velocity=0 time=0.25@note_on channel=0 note=67 velocity=100 time=0@note_on channel=0 note=67 velocity=0 time=0.125@note_on channel=0 note=68 velocity=100 time=0@note_on channel=0 note=68 velocity=0 time=0.125@note_on channel=0 note=70 velocity=100 time=0@note_on channel=1 note=52 velocity=0 time=0@note_on channel=1 note=43 velocity=100 time=0@note_on channel=0 note=70 velocity=0 time=0.25@note_on channel=0 note=64 velocity=100 time=0@note_on channel=0 note=64 velocity=0 time=0.25@note_on channel=0 note=60 velocity=0 time=0@note_on channel=0 note=65 velocity=100 time=0@note_on channel=1 note=43 velocity=0 time=0@note_on channel=1 note=44 velocity=100 time=0@note_on channel=0 note=60 velocity=100 time=0.25@note_on channel=1 note=44 velocity=0 time=0@note_on channel=1 note=48 velocity=100 time=0@note_on channel=0 note=65 velocity=0 time=0.25@note_on channel=0 note=68 velocity=100 time=0@note_on channel=1 note=48 velocity=0 time=0@note_on channel=1 note=53 velocity=100 time=0@note_on channel=0 note=60 velocity=0 time=0.25@note_on channel=0 note=60 velocity=100 time=0@note_on channel=1 note=53 velocity=0 time=0@note_on channel=1 note=51 velocity=100 time=0@note_on channel=0 note=60 velocity=0 time=0.25@note_on channel=0 note=68 velocity=0 time=0@note_on channel=0 note=59 velocity=100 time=0@note_on channel=1 note=51 velocity=0 time=0@note_on channel=1 note=50 velocity=100 time=0@note_on channel=0 note=59 velocity=0 time=0.125@note_on channel=0 note=60 velocity=100 time=0@note_on channel=0 note=60 velocity=0 time=0.125@note_on channel=0 note=62 velocity=100 time=0@note_on channel=0 note=62 velocity=0 time=0.125@note_on channel=0 note=63 velocity=100 time=0@note_on channel=0 note=63 velocity=0 time=0.125@note_on channel=0 note=65 velocity=100 time=0@note_on channel=1 note=50 velocity=0 time=0@note_on channel=1 note=48 velocity=100 time=0@note_on channel=1 note=56 velocity=100 time=0.25@note_on channel=1 note=56 velocity=0 time=0.25@note_on channel=1 note=48 velocity=0 time=0@note_on channel=1 note=55 velocity=100 time=0@note_on channel=1 note=47 velocity=100 time=0@note_on channel=0 note=65 velocity=0 time=0.25@note_on channel=0 note=71 velocity=100 time=0@note_on channel=0 note=71 velocity=0 time=0.125@note_on channel=0 note=72 velocity=100 time=0@note_on channel=0 note=72 velocity=0 time=0.125@note_on channel=0 note=74 velocity=100 time=0@note_on channel=1 note=47 velocity=0 time=0@note_on channel=1 note=43 velocity=100 time=0@note_on channel=0 note=74 velocity=0 time=0.125@note_on channel=0 note=75 velocity=100 time=0@note_on channel=0 note=75 velocity=0 time=0.125@note_on channel=0 note=77 velocity=100 time=0@note_on channel=0 note=77 velocity=0 time=0.25@note_on channel=0 note=75 velocity=100 time=0@note_on channel=1 note=43 velocity=0 time=0@note_on channel=1 note=55 velocity=0 time=0@note_on channel=1 note=48 velocity=100 time=0@note_on channel=0 note=80 velocity=100 time=0.125@note_on channel=0 note=80 velocity=0 time=0.125@note_on channel=0 note=79 velocity=100 time=0@note_on channel=1 note=48 velocity=0 time=0@note_on channel=1 note=50 velocity=100 time=0@note_on channel=0 note=79 velocity=0 time=0.125@note_on channel=0 note=78 velocity=100 time=0@note_on channel=0 note=78 velocity=0 time=0.125@note_on channel=0 note=79 velocity=100 time=0@note_on channel=1 note=50 velocity=0 time=0@note_on channel=1 note=51 velocity=100 time=0@note_on channel=0 note=75 velocity=0 time=0.25@note_on channel=0 note=74 velocity=100 time=0@note_on channel=1 note=51 velocity=0 time=0@note_on channel=1 note=53 velocity=100 time=0@note_on channel=0 note=79 velocity=0 time=0.25@note_on channel=0 note=75 velocity=100 time=0@note_on channel=1 note=53 velocity=0 time=0@note_on channel=1 note=55 velocity=100 time=0@note_on channel=0 note=74 velocity=0 time=0.25@note_on channel=0 note=72 velocity=100 time=0@note_on channel=0 note=72 velocity=0 time=0.25@note_on channel=0 note=65 velocity=100 time=0@note_on channel=1 note=55 velocity=0 time=0@note_on channel=1 note=43 velocity=100 time=0@note_on channel=0 note=75 velocity=0 time=0.25@note_on channel=0 note=71 velocity=100 time=0@note_on channel=0 note=71 velocity=0 time=0.25@note_on channel=0 note=72 velocity=100 time=0@note_on channel=1 note=43 velocity=0 time=0@note_on channel=1 note=36 velocity=100 time=0@note_on channel=0 note=65 velocity=0 time=0.25@note_on channel=0 note=67 velocity=100 time=0@note_on channel=0 note=67 velocity=0 time=0.125@note_on channel=0 note=65 velocity=100 time=0@note_on channel=0 note=65 velocity=0 time=0.125@note_on channel=0 note=64 velocity=100 time=0@note_on channel=0 note=65 velocity=100 time=0.125@note_on channel=0 note=65 velocity=0 time=0.125@note_on channel=0 note=67 velocity=100 time=0@note_on channel=1 note=48 velocity=100 time=0.25@note_on channel=0 note=67 velocity=0 time=0.75@note_on channel=0 note=64 velocity=0 time=0@note_on channel=0 note=72 velocity=0 time=0@note_on channel=0 note=74 velocity=100 time=0@note_on channel=1 note=48 velocity=0 time=0@note_on channel=1 note=36 velocity=0 time=0@note_on channel=0 note=74 velocity=0 time=0.25@note_on channel=0 note=74 velocity=100 time=0@note_on channel=1 note=55 velocity=100 time=0@note_on channel=1 note=59 velocity=100 time=0@note_on channel=0 note=74 velocity=0 time=0.25@note_on channel=0 note=71 velocity=100 time=0@note_on channel=0 note=71 velocity=0 time=0.125@note_on channel=0 note=72 velocity=100 time=0@note_on channel=0 note=72 velocity=0 time=0.125@note_on channel=0 note=74 velocity=100 time=0@note_on channel=1 note=59 velocity=0 time=0@note_on channel=1 note=55 velocity=0 time=0@note_on channel=1 note=43 velocity=100 time=0@note_on channel=0 note=74 velocity=0 time=0.25@note_on channel=0 note=71 velocity=100 time=0@note_on channel=0 note=71 velocity=0 time=0.25@note_on channel=0 note=67 velocity=100 time=0@note_on channel=1 note=43 velocity=0 time=0@note_on channel=0 note=71 velocity=100 time=0.25@note_on channel=0 note=67 velocity=0 time=0.25@note_on channel=0 note=65 velocity=100 time=0@note_on channel=1 note=62 velocity=100 time=0@note_on channel=1 note=55 velocity=100 time=0@note_on channel=0 note=71 velocity=0 time=0.25@note_on channel=0 note=71 velocity=100 time=0@note_on channel=0 note=71 velocity=0 time=0.25@note_on channel=0 note=65 velocity=0 time=0@note_on channel=0 note=63 velocity=100 time=0@note_on channel=1 note=55 velocity=0 time=0@note_on channel=1 note=62 velocity=0 time=0@note_on channel=1 note=60 velocity=100 time=0@note_on channel=0 note=72 velocity=100 time=0.25@note_on channel=0 note=72 velocity=0 time=0.125@note_on channel=0 note=71 velocity=100 time=0@note_on channel=0 note=71 velocity=0 time=0.125@note_on channel=0 note=72 velocity=100 time=0@note_on channel=1 note=48 velocity=100 time=0@note_on channel=0 note=72 velocity=0 time=0.25@note_on channel=0 note=67 velocity=100 time=0@note_on channel=0 note=67 velocity=0 time=0.25@note_on channel=0 note=63 velocity=0 time=0@note_on channel=0 note=63 velocity=100 time=0@note_on channel=1 note=48 velocity=0 time=0@note_on channel=1 note=60 velocity=0 time=0@note_on channel=0 note=63 velocity=0 time=0.25@note_on channel=0 note=67 velocity=100 time=0@note_on channel=0 note=67 velocity=0 time=0.125@note_on channel=0 note=65 velocity=100 time=0@note_on channel=0 note=65 velocity=0 time=0.125@note_on channel=0 note=63 velocity=100 time=0@note_on channel=1 note=48 velocity=100 time=0@note_on channel=0 note=63 velocity=0 time=0.125@note_on channel=0 note=62 velocity=100 time=0@note_on channel=0 note=62 velocity=0 time=0.125@note_on channel=0 note=60 velocity=100 time=0@note_on channel=0 note=60 velocity=0 time=0.25@note_on channel=1 note=48 velocity=0 time=0@note_on channel=1 note=58 velocity=100 time=0@note_on channel=0 note=76 velocity=100 time=0.25@note_on channel=0 note=76 velocity=0 time=0.125@note_on channel=0 note=77 velocity=100 time=0@note_on channel=0 note=77 velocity=0 time=0.125@note_on channel=0 note=79 velocity=100 time=0@note_on channel=1 note=58 velocity=0 time=0@note_on channel=1 note=46 velocity=100 time=0@note_on channel=0 note=79 velocity=0 time=0.25@note_on channel=0 note=76 velocity=100 time=0@note_on channel=0 note=76 velocity=0 time=0.25@note_on channel=0 note=72 velocity=100 time=0@note_on channel=1 note=46 velocity=0 time=0@note_on channel=0 note=76 velocity=100 time=0.25@note_on channel=0 note=72 velocity=0 time=0.25@note_on channel=0 note=67 velocity=100 time=0@note_on channel=1 note=58 velocity=100 time=0@note_on channel=0 note=76 velocity=0 time=0.25@note_on channel=0 note=76 velocity=100 time=0@note_on channel=0 note=67 velocity=0 time=0.25@note_on channel=0 note=65 velocity=100 time=0@note_on channel=1 note=58 velocity=0 time=0@note_on channel=1 note=56 velocity=100 time=0@note_on channel=0 note=76 velocity=0 time=0.25@note_on channel=0 note=77 velocity=100 time=0@note_on channel=0 note=77 velocity=0 time=0.125@note_on channel=0 note=76 velocity=100 time=0@note_on channel=0 note=76 velocity=0 time=0.125@note_on channel=0 note=77 velocity=100 time=0@note_on channel=1 note=56 velocity=0 time=0@note_on channel=1 note=55 velocity=100 time=0@note_on channel=0 note=77 velocity=0 time=0.25@note_on channel=0 note=72 velocity=100 time=0@note_on channel=0 note=72 velocity=0 time=0.25@note_on channel=0 note=65 velocity=0 time=0@note_on channel=0 note=68 velocity=100 time=0@note_on channel=1 note=55 velocity=0 time=0@note_on channel=1 note=53 velocity=100 time=0@note_on channel=0 note=68 velocity=0 time=0.25@note_on channel=0 note=72 velocity=100 time=0@note_on channel=0 note=72 velocity=0 time=0.125@note_on channel=0 note=70 velocity=100 time=0@note_on channel=0 note=70 velocity=0 time=0.125@note_on channel=0 note=68 velocity=100 time=0@note_on channel=1 note=53 velocity=0 time=0@note_on channel=1 note=60 velocity=100 time=0@note_on channel=0 note=68 velocity=0 time=0.125@note_on channel=0 note=67 velocity=100 time=0@note_on channel=0 note=67 velocity=0 time=0.125@note_on channel=0 note=65 velocity=100 time=0@note_on channel=0 note=73 velocity=100 time=0.25@note_on channel=1 note=46 velocity=100 time=0@note_on channel=0 note=65 velocity=0 time=0.25@note_on channel=0 note=67 velocity=100 time=0@note_on channel=0 note=67 velocity=0 time=0.125@note_on channel=0 note=68 velocity=100 time=0@note_on channel=0 note=68 velocity=0 time=0.125@note_on channel=0 note=70 velocity=100 time=0@note_on channel=1 note=60 velocity=0 time=0@note_on channel=1 note=58 velocity=100 time=0@note_on channel=0 note=70 velocity=0 time=0.25@note_on channel=0 note=65 velocity=100 time=0@note_on channel=0 note=65 velocity=0 time=0.25@note_on channel=0 note=67 velocity=100 time=0@note_on channel=1 note=46 velocity=0 time=0@note_on channel=1 note=51 velocity=100 time=0@note_on channel=0 note=67 velocity=0 time=0.25@note_on channel=0 note=70 velocity=100 time=0@note_on channel=0 note=70 velocity=0 time=0.25@note_on channel=0 note=63 velocity=100 time=0@note_on channel=1 note=51 velocity=0 time=0@note_on channel=1 note=55 velocity=100 time=0@note_on channel=0 note=73 velocity=0 time=0.25@note_on channel=0 note=73 velocity=100 time=0@note_on channel=0 note=73 velocity=0 time=0.25@note_on channel=0 note=72 velocity=100 time=0@note_on channel=1 note=55 velocity=0 time=0@note_on channel=1 note=44 velocity=100 time=0@note_on channel=0 note=63 velocity=0 time=0.25@note_on channel=0 note=65 velocity=100 time=0@note_on channel=0 note=65 velocity=0 time=0.125@note_on channel=0 note=67 velocity=100 time=0@note_on channel=0 note=67 velocity=0 time=0.125@note_on channel=0 note=68 velocity=100 time=0@note_on channel=1 note=58 velocity=0 time=0@note_on channel=1 note=56 velocity=100 time=0@note_on channel=0 note=68 velocity=0 time=0.25@note_on channel=0 note=64 velocity=100 time=0@note_on channel=0 note=64 velocity=0 time=0.25@note_on channel=0 note=65 velocity=100 time=0@note_on channel=1 note=44 velocity=0 time=0@note_on channel=1 note=49 velocity=100 time=0@note_on channel=0 note=65 velocity=0 time=0.25@note_on channel=0 note=72 velocity=0 time=0@note_on channel=0 note=77 velocity=100 time=0@note_on channel=0 note=77 velocity=0 time=0.125@note_on channel=0 note=75 velocity=100 time=0@note_on channel=0 note=75 velocity=0 time=0.125@note_on channel=0 note=73 velocity=100 time=0@note_on channel=1 note=49 velocity=0 time=0@note_on channel=1 note=53 velocity=100 time=0@note_on channel=0 note=73 velocity=0 time=0.25@note_on channel=0 note=72 velocity=100 time=0@note_on channel=0 note=72 velocity=0 time=0.25@note_on channel=0 note=70 velocity=100 time=0@note_on channel=1 note=53 velocity=0 time=0@note_on channel=1 note=56 velocity=0 time=0@note_on channel=1 note=43 velocity=100 time=0@note_on channel=0 note=70 velocity=0 time=0.25@note_on channel=0 note=73 velocity=100 time=0@note_on channel=0 note=73 velocity=0 time=0.125@note_on channel=0 note=72 velocity=100 time=0@note_on channel=0 note=72 velocity=0 time=0.125@note_on channel=0 note=70 velocity=100 time=0@note_on channel=1 note=43 velocity=0 time=0@note_on channel=1 note=55 velocity=100 time=0@note_on channel=0 note=70 velocity=0 time=0.25@note_on channel=0 note=68 velocity=100 time=0@note_on channel=0 note=68 velocity=0 time=0.25@note_on channel=0 note=67 velocity=100 time=0@note_on channel=1 note=55 velocity=0 time=0@note_on channel=1 note=58 velocity=100 time=0@note_on channel=0 note=67 velocity=0 time=0.25@note_on channel=0 note=70 velocity=100 time=0@note_on channel=0 note=70 velocity=0 time=0.125@note_on channel=0 note=68 velocity=100 time=0@note_on channel=0 note=68 velocity=0 time=0.125@note_on channel=0 note=67 velocity=100 time=0@note_on channel=1 note=58 velocity=0 time=0@note_on channel=1 note=61 velocity=100 time=0@note_on channel=0 note=67 velocity=0 time=0.25@note_on channel=0 note=65 velocity=100 time=0@note_on channel=0 note=65 velocity=0 time=0.25@note_on channel=0 note=64 velocity=100 time=0@note_on channel=1 note=61 velocity=0 time=0@note_on channel=1 note=60 velocity=100 time=0@note_on channel=0 note=64 velocity=0 time=0.125@note_on channel=0 note=65 velocity=100 time=0@note_on channel=0 note=65 velocity=0 time=0.125@note_on channel=0 note=67 velocity=100 time=0@note_on channel=0 note=67 velocity=0 time=0.125@note_on channel=0 note=68 velocity=100 time=0@note_on channel=0 note=68 velocity=0 time=0.125@note_on channel=0 note=70 velocity=100 time=0@note_on channel=1 note=60 velocity=0 time=0@note_on channel=1 note=55 velocity=100 time=0@note_on channel=1 note=61 velocity=100 time=0.25@note_on channel=1 note=61 velocity=0 time=0.25@note_on channel=1 note=55 velocity=0 time=0@note_on channel=1 note=60 velocity=100 time=0@note_on channel=1 note=52 velocity=100 time=0@note_on channel=0 note=70 velocity=0 time=0.25@note_on channel=0 note=76 velocity=100 time=0@note_on channel=0 note=76 velocity=0 time=0.125@note_on channel=0 note=77 velocity=100 time=0@note_on channel=0 note=77 velocity=0 time=0.125@note_on channel=0 note=79 velocity=100 time=0@note_on channel=1 note=52 velocity=0 time=0@note_on channel=1 note=48 velocity=100 time=0@note_on channel=0 note=79 velocity=0 time=0.125@note_on channel=0 note=80 velocity=100 time=0@note_on channel=0 note=80 velocity=0 time=0.125@note_on channel=0 note=82 velocity=100 time=0@note_on channel=0 note=82 velocity=0 time=0.25@note_on channel=0 note=80 velocity=100 time=0@note_on channel=1 note=48 velocity=0 time=0@note_on channel=1 note=53 velocity=100 time=0@note_on channel=0 note=79 velocity=100 time=0.125@note_on channel=0 note=79 velocity=0 time=0.125@note_on channel=0 note=77 velocity=100 time=0@note_on channel=0 note=77 velocity=0 time=0.125@note_on channel=0 note=76 velocity=100 time=0@note_on channel=0 note=76 velocity=0 time=0.125@note_on channel=0 note=77 velocity=100 time=0@note_on channel=1 note=53 velocity=0 time=0@note_on channel=1 note=60 velocity=0 time=0@note_on channel=1 note=44 velocity=100 time=0@note_on channel=0 note=80 velocity=0 time=0.25@note_on channel=0 note=80 velocity=100 time=0@note_on channel=0 note=77 velocity=0 time=0.25@note_on channel=0 note=73 velocity=100 time=0@note_on channel=1 note=44 velocity=0 time=0@note_on channel=1 note=46 velocity=100 time=0@note_on channel=0 note=80 velocity=0 time=0.25@note_on channel=0 note=79 velocity=100 time=0@note_on channel=0 note=73 velocity=0 time=0.25@note_on channel=0 note=70 velocity=100 time=0@note_on channel=1 note=46 velocity=0 time=0@note_on channel=1 note=55 velocity=100 time=0@note_on channel=1 note=48 velocity=100 time=0@note_on channel=0 note=79 velocity=0 time=0.25@note_on channel=0 note=76 velocity=100 time=0@note_on channel=0 note=76 velocity=0 time=0.25@note_on channel=0 note=77 velocity=100 time=0@note_on channel=1 note=48 velocity=0 time=0@note_on channel=1 note=55 velocity=0 time=0@note_on channel=1 note=41 velocity=100 time=0@note_on channel=0 note=70 velocity=0 time=0.25@note_on channel=0 note=68 velocity=100 time=0@note_on channel=0 note=68 velocity=0 time=0.125@note_on channel=0 note=67 velocity=100 time=0@note_on channel=0 note=67 velocity=0 time=0.125@note_on channel=0 note=68 velocity=100 time=0@note_on channel=1 note=41 velocity=0 time=0@note_on channel=1 note=53 velocity=100 time=0@note_on channel=0 note=68 velocity=0 time=0.125@note_on channel=0 note=70 velocity=100 time=0@note_on channel=0 note=70 velocity=0 time=0.125@note_on channel=0 note=72 velocity=100 time=0@note_on channel=0 note=72 velocity=0 time=0.25@note_on channel=0 note=77 velocity=0 time=0@note_on channel=0 note=65 velocity=100 time=0@note_on channel=1 note=53 velocity=0 time=0@note_on channel=1 note=56 velocity=100 time=0@note_on channel=0 note=68 velocity=100 time=0.25@note_on channel=0 note=68 velocity=0 time=0.25@note_on channel=0 note=72 velocity=100 time=0@note_on channel=1 note=56 velocity=0 time=0@note_on channel=1 note=53 velocity=100 time=0@note_on channel=0 note=72 velocity=0 time=0.25@note_on channel=0 note=75 velocity=100 time=0@note_on channel=0 note=75 velocity=0 time=0.25@note_on channel=0 note=65 velocity=0 time=0@note_on channel=0 note=74 velocity=100 time=0@note_on channel=1 note=53 velocity=0 time=0@note_on channel=1 note=58 velocity=100 time=0@note_on channel=0 note=74 velocity=0 time=0.125@note_on channel=0 note=75 velocity=100 time=0@note_on channel=0 note=75 velocity=0 time=0.125@note_on channel=0 note=77 velocity=100 time=0@note_on channel=0 note=77 velocity=0 time=0.125@note_on channel=0 note=79 velocity=100 time=0@note_on channel=0 note=79 velocity=0 time=0.125@note_on channel=0 note=80 velocity=100 time=0@note_on channel=1 note=58 velocity=0 time=0@note_on channel=1 note=50 velocity=100 time=0@note_on channel=0 note=77 velocity=100 time=0.25@note_on channel=0 note=77 velocity=0 time=0.25@note_on channel=0 note=70 velocity=100 time=0@note_on channel=1 note=50 velocity=0 time=0@note_on channel=1 note=51 velocity=100 time=0@note_on channel=0 note=80 velocity=0 time=0.25@note_on channel=0 note=79 velocity=100 time=0@note_on channel=0 note=79 velocity=0 time=0.125@note_on channel=0 note=77 velocity=100 time=0@note_on channel=0 note=77 velocity=0 time=0.125@note_on channel=0 note=75 velocity=100 time=0@note_on channel=1 note=51 velocity=0 time=0@note_on channel=1 note=55 velocity=100 time=0@note_on channel=0 note=75 velocity=0 time=0.125@note_on channel=0 note=77 velocity=100 time=0@note_on channel=0 note=77 velocity=0 time=0.125@note_on channel=0 note=79 velocity=100 time=0@note_on channel=0 note=79 velocity=0 time=0.25@note_on channel=0 note=70 velocity=0 time=0@note_on channel=0 note=72 velocity=100 time=0@note_on channel=1 note=55 velocity=0 time=0@note_on channel=1 note=56 velocity=100 time=0@note_on channel=0 note=72 velocity=0 time=0.125@note_on channel=0 note=74 velocity=100 time=0@note_on channel=0 note=74 velocity=0 time=0.125@note_on channel=0 note=75 velocity=100 time=0@note_on channel=0 note=75 velocity=0 time=0.125@note_on channel=0 note=77 velocity=100 time=0@note_on channel=0 note=77 velocity=0 time=0.125@note_on channel=0 note=79 velocity=100 time=0@note_on channel=1 note=56 velocity=0 time=0@note_on channel=1 note=48 velocity=100 time=0@note_on channel=0 note=75 velocity=100 time=0.25@note_on channel=0 note=75 velocity=0 time=0.25@note_on channel=0 note=68 velocity=100 time=0@note_on channel=1 note=48 velocity=0 time=0@note_on channel=1 note=50 velocity=100 time=0@note_on channel=0 note=79 velocity=0 time=0.25@note_on channel=0 note=77 velocity=100 time=0@note_on channel=0 note=77 velocity=0 time=0.125@note_on channel=0 note=75 velocity=100 time=0@note_on channel=0 note=75 velocity=0 time=0.125@note_on channel=0 note=74 velocity=100 time=0@note_on channel=1 note=50 velocity=0 time=0@note_on channel=1 note=53 velocity=100 time=0@note_on channel=0 note=74 velocity=0 time=0.125@note_on channel=0 note=75 velocity=100 time=0@note_on channel=0 note=75 velocity=0 time=0.125@note_on channel=0 note=77 velocity=100 time=0@note_on channel=0 note=77 velocity=0 time=0.25@note_on channel=0 note=68 velocity=0 time=0@note_on channel=0 note=71 velocity=100 time=0@note_on channel=1 note=53 velocity=0 time=0@note_on channel=1 note=55 velocity=100 time=0@note_on channel=0 note=71 velocity=0 time=0.125@note_on channel=0 note=72 velocity=100 time=0@note_on channel=0 note=72 velocity=0 time=0.125@note_on channel=0 note=74 velocity=100 time=0@note_on channel=0 note=74 velocity=0 time=0.125@note_on channel=0 note=75 velocity=100 time=0@note_on channel=0 note=75 velocity=0 time=0.125@note_on channel=0 note=77 velocity=100 time=0@note_on channel=1 note=55 velocity=0 time=0@note_on channel=1 note=47 velocity=100 time=0@note_on channel=0 note=74 velocity=100 time=0.25@note_on channel=0 note=74 velocity=0 time=0.25@note_on channel=0 note=67 velocity=100 time=0@note_on channel=1 note=47 velocity=0 time=0@note_on channel=1 note=48 velocity=100 time=0@note_on channel=0 note=77 velocity=0 time=0.25@note_on channel=0 note=75 velocity=100 time=0@note_on channel=0 note=75 velocity=0 time=0.125@note_on channel=0 note=74 velocity=100 time=0@note_on channel=0 note=74 velocity=0 time=0.125@note_on channel=0 note=72 velocity=100 time=0@note_on channel=1 note=48 velocity=0 time=0@note_on channel=1 note=51 velocity=100 time=0@note_on channel=0 note=72 velocity=0 time=0.125@note_on channel=0 note=74 velocity=100 time=0@note_on channel=0 note=74 velocity=0 time=0.125@note_on channel=0 note=75 velocity=100 time=0@note_on channel=0 note=67 velocity=0 time=0.25@note_on channel=0 note=68 velocity=100 time=0@note_on channel=1 note=51 velocity=0 time=0@note_on channel=1 note=53 velocity=100 time=0@note_on channel=0 note=75 velocity=0 time=0.25@note_on channel=0 note=74 velocity=100 time=0@note_on channel=1 note=53 velocity=0 time=0@note_on channel=1 note=56 velocity=100 time=0@note_on channel=0 note=74 velocity=0 time=0.125@note_on channel=0 note=72 velocity=100 time=0@note_on channel=1 note=56 velocity=0 time=0@note_on channel=1 note=55 velocity=100 time=0@note_on channel=0 note=72 velocity=0 time=0.125@note_on channel=0 note=71 velocity=100 time=0@note_on channel=1 note=55 velocity=0 time=0@note_on channel=1 note=53 velocity=100 time=0@note_on channel=0 note=71 velocity=0 time=0.125@note_on channel=0 note=72 velocity=100 time=0@note_on channel=0 note=72 velocity=0 time=0.125@note_on channel=0 note=74 velocity=100 time=0@note_on channel=1 note=53 velocity=0 time=0@note_on channel=1 note=51 velocity=100 time=0@note_on channel=0 note=74 velocity=0 time=0.25@note_on channel=0 note=68 velocity=0 time=0@note_on channel=0 note=65 velocity=100 time=0@note_on channel=0 note=68 velocity=100 time=0@note_on channel=1 note=51 velocity=0 time=0@note_on channel=1 note=50 velocity=100 time=0@note_on channel=1 note=50 velocity=0 time=0.25@note_on channel=1 note=53 velocity=100 time=0@note_on channel=1 note=53 velocity=0 time=0.125@note_on channel=1 note=51 velocity=100 time=0@note_on channel=1 note=51 velocity=0 time=0.125@note_on channel=1 note=50 velocity=100 time=0@note_on channel=1 note=50 velocity=0 time=0.25@note_on channel=1 note=48 velocity=100 time=0@note_on channel=1 note=48 velocity=0 time=0.25@note_on channel=1 note=47 velocity=100 time=0@note_on channel=0 note=68 velocity=0 time=0.25@note_on channel=0 note=71 velocity=100 time=0@note_on channel=0 note=71 velocity=0 time=0.125@note_on channel=0 note=72 velocity=100 time=0@note_on channel=0 note=72 velocity=0 time=0.125@note_on channel=0 note=74 velocity=100 time=0@note_on channel=1 note=47 velocity=0 time=0@note_on channel=1 note=43 velocity=100 time=0@note_on channel=0 note=65 velocity=0 time=0.25@note_on channel=0 note=65 velocity=100 time=0@note_on channel=0 note=65 velocity=0 time=0.25@note_on channel=0 note=63 velocity=100 time=0@note_on channel=1 note=43 velocity=0 time=0@note_on channel=1 note=48 velocity=100 time=0@note_on channel=0 note=74 velocity=0 time=0.25@note_on channel=0 note=67 velocity=100 time=0@note_on channel=1 note=48 velocity=0 time=0@note_on channel=1 note=50 velocity=100 time=0@note_on channel=0 note=67 velocity=0 time=0.25@note_on channel=0 note=72 velocity=100 time=0@note_on channel=1 note=50 velocity=0 time=0@note_on channel=1 note=51 velocity=100 time=0@note_on channel=0 note=63 velocity=0 time=0.25@note_on channel=0 note=69 velocity=100 time=0@note_on channel=1 note=51 velocity=0 time=0@note_on channel=1 note=48 velocity=100 time=0@note_on channel=0 note=69 velocity=0 time=0.25@note_on channel=0 note=66 velocity=100 time=0@note_on channel=1 note=48 velocity=0 time=0@note_on channel=1 note=50 velocity=100 time=0@note_on channel=0 note=72 velocity=0 time=0.25@note_on channel=0 note=69 velocity=100 time=0@note_on channel=0 note=69 velocity=0 time=0.125@note_on channel=0 note=70 velocity=100 time=0@note_on channel=0 note=70 velocity=0 time=0.125@note_on channel=0 note=66 velocity=0 time=0@note_on channel=0 note=72 velocity=100 time=0@note_on channel=1 note=50 velocity=0 time=0@note_on channel=1 note=45 velocity=100 time=0@note_on channel=0 note=72 velocity=0 time=0.25@note_on channel=0 note=65 velocity=100 time=0@note_on channel=0 note=65 velocity=0 time=0.25@note_on channel=0 note=67 velocity=100 time=0@note_on channel=1 note=45 velocity=0 time=0@note_on channel=1 note=46 velocity=100 time=0@note_on channel=0 note=62 velocity=100 time=0.25@note_on channel=1 note=46 velocity=0 time=0@note_on channel=1 note=50 velocity=100 time=0@note_on channel=0 note=67 velocity=0 time=0.25@note_on channel=0 note=70 velocity=100 time=0@note_on channel=1 note=50 velocity=0 time=0@note_on channel=1 note=55 velocity=100 time=0@note_on channel=0 note=62 velocity=0 time=0.25@note_on channel=0 note=61 velocity=100 time=0@note_on channel=1 note=55 velocity=0 time=0@note_on channel=1 note=53 velocity=100 time=0@note_on channel=0 note=61 velocity=0 time=0.25@note_on channel=0 note=60 velocity=100 time=0@note_on channel=1 note=53 velocity=0 time=0@note_on channel=1 note=52 velocity=100 time=0@note_on channel=0 note=70 velocity=0 time=0.25@note_on channel=0 note=67 velocity=100 time=0@note_on channel=0 note=67 velocity=0 time=0.125@note_on channel=0 note=68 velocity=100 time=0@note_on channel=0 note=68 velocity=0 time=0.125@note_on channel=0 note=70 velocity=100 time=0@note_on channel=1 note=52 velocity=0 time=0@note_on channel=1 note=43 velocity=100 time=0@note_on channel=0 note=70 velocity=0 time=0.25@note_on channel=0 note=64 velocity=100 time=0@note_on channel=0 note=64 velocity=0 time=0.25@note_on channel=0 note=60 velocity=0 time=0@note_on channel=0 note=65 velocity=100 time=0@note_on channel=1 note=43 velocity=0 time=0@note_on channel=1 note=44 velocity=100 time=0@note_on channel=0 note=60 velocity=100 time=0.25@note_on channel=1 note=44 velocity=0 time=0@note_on channel=1 note=48 velocity=100 time=0@note_on channel=0 note=65 velocity=0 time=0.25@note_on channel=0 note=68 velocity=100 time=0@note_on channel=1 note=48 velocity=0 time=0@note_on channel=1 note=53 velocity=100 time=0@note_on channel=0 note=60 velocity=0 time=0.25@note_on channel=0 note=60 velocity=100 time=0@note_on channel=1 note=53 velocity=0 time=0@note_on channel=1 note=51 velocity=100 time=0@note_on channel=0 note=60 velocity=0 time=0.25@note_on channel=0 note=68 velocity=0 time=0@note_on channel=0 note=59 velocity=100 time=0@note_on channel=1 note=51 velocity=0 time=0@note_on channel=1 note=50 velocity=100 time=0@note_on channel=0 note=59 velocity=0 time=0.125@note_on channel=0 note=60 velocity=100 time=0@note_on channel=0 note=60 velocity=0 time=0.125@note_on channel=0 note=62 velocity=100 time=0@note_on channel=0 note=62 velocity=0 time=0.125@note_on channel=0 note=63 velocity=100 time=0@note_on channel=0 note=63 velocity=0 time=0.125@note_on channel=0 note=65 velocity=100 time=0@note_on channel=1 note=50 velocity=0 time=0@note_on channel=1 note=48 velocity=100 time=0@note_on channel=1 note=56 velocity=100 time=0.25@note_on channel=1 note=56 velocity=0 time=0.25@note_on channel=1 note=48 velocity=0 time=0@note_on channel=1 note=55 velocity=100 time=0@note_on channel=1 note=47 velocity=100 time=0@note_on channel=0 note=65 velocity=0 time=0.25@note_on channel=0 note=71 velocity=100 time=0@note_on channel=0 note=71 velocity=0 time=0.125@note_on channel=0 note=72 velocity=100 time=0@note_on channel=0 note=72 velocity=0 time=0.125@note_on channel=0 note=74 velocity=100 time=0@note_on channel=1 note=47 velocity=0 time=0@note_on channel=1 note=43 velocity=100 time=0@note_on channel=0 note=74 velocity=0 time=0.125@note_on channel=0 note=75 velocity=100 time=0@note_on channel=0 note=75 velocity=0 time=0.125@note_on channel=0 note=77 velocity=100 time=0@note_on channel=0 note=77 velocity=0 time=0.25@note_on channel=0 note=75 velocity=100 time=0@note_on channel=1 note=43 velocity=0 time=0@note_on channel=1 note=55 velocity=0 time=0@note_on channel=1 note=48 velocity=100 time=0@note_on channel=0 note=80 velocity=100 time=0.125@note_on channel=0 note=80 velocity=0 time=0.125@note_on channel=0 note=79 velocity=100 time=0@note_on channel=1 note=48 velocity=0 time=0@note_on channel=1 note=50 velocity=100 time=0@note_on channel=0 note=79 velocity=0 time=0.125@note_on channel=0 note=78 velocity=100 time=0@note_on channel=0 note=78 velocity=0 time=0.125@note_on channel=0 note=79 velocity=100 time=0@note_on channel=1 note=50 velocity=0 time=0@note_on channel=1 note=51 velocity=100 time=0@note_on channel=0 note=75 velocity=0 time=0.25@note_on channel=0 note=74 velocity=100 time=0@note_on channel=1 note=51 velocity=0 time=0@note_on channel=1 note=53 velocity=100 time=0@note_on channel=0 note=79 velocity=0 time=0.25@note_on channel=0 note=75 velocity=100 time=0@note_on channel=1 note=53 velocity=0 time=0@note_on channel=1 note=55 velocity=100 time=0@note_on channel=0 note=74 velocity=0 time=0.25@note_on channel=0 note=72 velocity=100 time=0@note_on channel=0 note=72 velocity=0 time=0.25@note_on channel=0 note=65 velocity=100 time=0@note_on channel=1 note=55 velocity=0 time=0@note_on channel=1 note=43 velocity=100 time=0@note_on channel=0 note=75 velocity=0 time=0.25@note_on channel=0 note=71 velocity=100 time=0@note_on channel=0 note=71 velocity=0 time=0.25@note_on channel=0 note=72 velocity=100 time=0@note_on channel=1 note=43 velocity=0 time=0@note_on channel=1 note=36 velocity=100 time=0@note_on channel=0 note=65 velocity=0 time=0.25@note_on channel=0 note=67 velocity=100 time=0@note_on channel=0 note=67 velocity=0 time=0.125@note_on channel=0 note=65 velocity=100 time=0@note_on channel=0 note=65 velocity=0 time=0.125@note_on channel=0 note=64 velocity=100 time=0@note_on channel=0 note=65 velocity=100 time=0.125@note_on channel=0 note=65 velocity=0 time=0.125@note_on channel=0 note=67 velocity=100 time=0@note_on channel=1 note=48 velocity=100 time=0.25@note_on channel=0 note=67 velocity=0 time=0.75@note_on channel=0 note=64 velocity=0 time=0@note_on channel=0 note=72 velocity=0 time=0@note_on channel=1 note=48 velocity=0 time=0@note_on channel=1 note=36 velocity=0 time=0@<meta message end_of_track time=0>@