<meta message time_signature numerator=12 denominator=8 clocks_per_click=24 notated_32nd_notes_per_beat=8 time=0>@<meta message key_signature key='E' time=0>@<meta message set_tempo tempo=320000 time=0>@control_change channel=0 control=121 value=0 time=0@program_change channel=0 program=0 time=0@control_change channel=0 control=7 value=100 time=0@control_change channel=0 control=10 value=64 time=0@control_change channel=0 control=91 value=0 time=0@control_change channel=0 control=93 value=0 time=0@<meta message midi_port port=0 time=0>@<meta message key_signature key='E' time=0>@<meta message midi_port port=0 time=0>@note_on channel=0 note=73 velocity=49 time=0@note_on channel=0 note=76 velocity=49 time=0.16@note_on channel=0 note=76 velocity=0 time=0.15133333333333332@note_on channel=0 note=80 velocity=49 time=0.008666666666666666@note_on channel=0 note=73 velocity=0 time=0.13533333333333333@note_on channel=0 note=80 velocity=0 time=0.016@note_on channel=0 note=71 velocity=49 time=0.008666666666666666@note_on channel=0 note=76 velocity=49 time=0.16@note_on channel=0 note=76 velocity=0 time=0.15133333333333332@note_on channel=0 note=80 velocity=49 time=0.008666666666666666@note_on channel=0 note=71 velocity=0 time=0.13533333333333333@note_on channel=0 note=80 velocity=0 time=0.016@note_on channel=0 note=69 velocity=49 time=0.008666666666666666@note_on channel=0 note=73 velocity=49 time=0.16@note_on channel=0 note=73 velocity=0 time=0.15133333333333332@note_on channel=0 note=80 velocity=49 time=0.008666666666666666@note_on channel=0 note=69 velocity=0 time=0.13533333333333333@note_on channel=0 note=80 velocity=0 time=0.016@note_on channel=0 note=68 velocity=49 time=0.008666666666666666@note_on channel=0 note=76 velocity=49 time=0.16@note_on channel=0 note=76 velocity=0 time=0.15133333333333332@note_on channel=0 note=80 velocity=49 time=0.008666666666666666@note_on channel=0 note=68 velocity=0 time=0.13533333333333333@note_on channel=0 note=80 velocity=0 time=0.016@note_on channel=0 note=66 velocity=49 time=0.008666666666666666@note_on channel=0 note=69 velocity=49 time=0.16@note_on channel=0 note=69 velocity=0 time=0.15133333333333332@note_on channel=0 note=78 velocity=49 time=0.008666666666666666@note_on channel=0 note=66 velocity=0 time=0.13533333333333333@note_on channel=0 note=78 velocity=0 time=0.016@note_on channel=0 note=66 velocity=49 time=0.008666666666666666@note_on channel=0 note=73 velocity=49 time=0.16@note_on channel=0 note=73 velocity=0 time=0.15133333333333332@note_on channel=0 note=76 velocity=49 time=0.008666666666666666@note_on channel=0 note=66 velocity=0 time=0.13533333333333333@note_on channel=0 note=76 velocity=0 time=0.016@note_on channel=0 note=68 velocity=49 time=0.008666666666666666@note_on channel=0 note=72 velocity=49 time=0.16@note_on channel=0 note=72 velocity=0 time=0.15133333333333332@note_on channel=0 note=75 velocity=49 time=0.008666666666666666@note_on channel=0 note=68 velocity=0 time=0.13533333333333333@note_on channel=0 note=75 velocity=0 time=0.016@note_on channel=0 note=68 velocity=49 time=0.008666666666666666@note_on channel=0 note=72 velocity=49 time=0.16@note_on channel=0 note=72 velocity=0 time=0.15133333333333332@note_on channel=0 note=80 velocity=49 time=0.008666666666666666@note_on channel=0 note=68 velocity=0 time=0.13533333333333333@note_on channel=0 note=80 velocity=0 time=0.016@note_on channel=0 note=73 velocity=49 time=0.008666666666666666@note_on channel=0 note=76 velocity=49 time=0.16@note_on channel=0 note=76 velocity=0 time=0.15133333333333332@note_on channel=0 note=80 velocity=49 time=0.008666666666666666@note_on channel=0 note=73 velocity=0 time=0.13533333333333333@note_on channel=0 note=80 velocity=0 time=0.016@note_on channel=0 note=71 velocity=49 time=0.008666666666666666@note_on channel=0 note=76 velocity=49 time=0.16@note_on channel=0 note=76 velocity=0 time=0.15133333333333332@note_on channel=0 note=80 velocity=49 time=0.008666666666666666@note_on channel=0 note=71 velocity=0 time=0.13533333333333333@note_on channel=0 note=80 velocity=0 time=0.016@note_on channel=0 note=69 velocity=49 time=0.008666666666666666@note_on channel=0 note=73 velocity=49 time=0.16@note_on channel=0 note=73 velocity=0 time=0.15133333333333332@note_on channel=0 note=80 velocity=49 time=0.008666666666666666@note_on channel=0 note=69 velocity=0 time=0.13533333333333333@note_on channel=0 note=80 velocity=0 time=0.016@note_on channel=0 note=68 velocity=49 time=0.008666666666666666@note_on channel=0 note=76 velocity=49 time=0.16@note_on channel=0 note=76 velocity=0 time=0.15133333333333332@note_on channel=0 note=80 velocity=49 time=0.008666666666666666@note_on channel=0 note=68 velocity=0 time=0.13533333333333333@note_on channel=0 note=80 velocity=0 time=0.016@note_on channel=0 note=66 velocity=49 time=0.008666666666666666@note_on channel=0 note=69 velocity=49 time=0.16@note_on channel=0 note=69 velocity=0 time=0.15133333333333332@note_on channel=0 note=78 velocity=49 time=0.008666666666666666@note_on channel=0 note=66 velocity=0 time=0.13533333333333333@note_on channel=0 note=78 velocity=0 time=0.016@note_on channel=0 note=66 velocity=49 time=0.008666666666666666@note_on channel=0 note=73 velocity=49 time=0.16@note_on channel=0 note=73 velocity=0 time=0.15133333333333332@note_on channel=0 note=76 velocity=49 time=0.008666666666666666@note_on channel=0 note=66 velocity=0 time=0.13533333333333333@note_on channel=0 note=76 velocity=0 time=0.016@note_on channel=0 note=68 velocity=49 time=0.008666666666666666@note_on channel=0 note=72 velocity=49 time=0.16@note_on channel=0 note=72 velocity=0 time=0.15133333333333332@note_on channel=0 note=75 velocity=49 time=0.008666666666666666@note_on channel=0 note=68 velocity=0 time=0.13533333333333333@note_on channel=0 note=75 velocity=0 time=0.016@note_on channel=0 note=68 velocity=49 time=0.008666666666666666@note_on channel=0 note=72 velocity=49 time=0.16@note_on channel=0 note=72 velocity=0 time=0.15133333333333332@note_on channel=0 note=80 velocity=49 time=0.008666666666666666@note_on channel=0 note=68 velocity=0 time=0.13533333333333333@note_on channel=0 note=80 velocity=0 time=0.016@note_on channel=0 note=83 velocity=49 time=0.008666666666666666@note_on channel=0 note=69 velocity=49 time=0@note_on channel=0 note=76 velocity=49 time=0.16@note_on channel=0 note=83 velocity=0 time=0.14333333333333334@note_on channel=0 note=76 velocity=0 time=0.008@note_on channel=0 note=80 velocity=49 time=0.008666666666666666@note_on channel=0 note=76 velocity=49 time=0@note_on channel=0 note=69 velocity=0 time=0.13533333333333333@note_on channel=0 note=76 velocity=0 time=0.016@note_on channel=0 note=76 velocity=49 time=0.008666666666666666@note_on channel=0 note=69 velocity=49 time=0@note_on channel=0 note=80 velocity=0 time=0.14333333333333334@note_on channel=0 note=76 velocity=0 time=0.008@note_on channel=0 note=81 velocity=49 time=0.008666666666666666@note_on channel=0 note=76 velocity=49 time=0@note_on channel=0 note=76 velocity=0 time=0.15133333333333332@note_on channel=0 note=76 velocity=49 time=0.008666666666666666@note_on channel=0 note=69 velocity=0 time=0.13533333333333333@note_on channel=0 note=81 velocity=0 time=0.008@note_on channel=0 note=76 velocity=0 time=0.008@note_on channel=0 note=80 velocity=49 time=0.008666666666666666@note_on channel=0 note=63 velocity=49 time=0@note_on channel=0 note=76 velocity=49 time=0.16@note_on channel=0 note=80 velocity=0 time=0.14333333333333334@note_on channel=0 note=76 velocity=0 time=0.008@note_on channel=0 note=75 velocity=49 time=0.008666666666666666@note_on channel=0 note=75 velocity=49 time=0@note_on channel=0 note=63 velocity=0 time=0.13533333333333333@note_on channel=0 note=75 velocity=0 time=0.016@note_on channel=0 note=63 velocity=49 time=0.008666666666666666@note_on channel=0 note=75 velocity=0 time=0.14333333333333334@note_on channel=0 note=76 velocity=49 time=0.016666666666666666@note_on channel=0 note=63 velocity=49 time=0@note_on channel=0 note=76 velocity=0 time=0.15133333333333332@note_on channel=0 note=63 velocity=0 time=0@note_on channel=0 note=78 velocity=49 time=0.008666666666666666@note_on channel=0 note=63 velocity=49 time=0@note_on channel=0 note=63 velocity=0 time=0.13533333333333333@note_on channel=0 note=78 velocity=0 time=0.016@note_on channel=0 note=63 velocity=0 time=0@note_on channel=0 note=80 velocity=49 time=0.008666666666666666@note_on channel=0 note=61 velocity=49 time=0@note_on channel=0 note=68 velocity=49 time=0.16@note_on channel=0 note=80 velocity=0 time=0.14333333333333334@note_on channel=0 note=68 velocity=0 time=0.008@note_on channel=0 note=78 velocity=49 time=0.008666666666666666@note_on channel=0 note=68 velocity=49 time=0@note_on channel=0 note=61 velocity=0 time=0.13533333333333333@note_on channel=0 note=68 velocity=0 time=0.016@note_on channel=0 note=61 velocity=49 time=0.008666666666666666@note_on channel=0 note=78 velocity=0 time=0.14333333333333334@note_on channel=0 note=76 velocity=49 time=0.016666666666666666@note_on channel=0 note=68 velocity=49 time=0@note_on channel=0 note=76 velocity=0 time=0.15133333333333332@note_on channel=0 note=68 velocity=0 time=0@note_on channel=0 note=75 velocity=49 time=0.008666666666666666@note_on channel=0 note=68 velocity=49 time=0@note_on channel=0 note=61 velocity=0 time=0.13533333333333333@note_on channel=0 note=75 velocity=0 time=0.016@note_on channel=0 note=68 velocity=0 time=0@note_on channel=0 note=73 velocity=49 time=0.008666666666666666@note_on channel=0 note=57 velocity=49 time=0@note_on channel=0 note=64 velocity=49 time=0.16@note_on channel=0 note=73 velocity=0 time=0.14333333333333334@note_on channel=0 note=64 velocity=0 time=0.008@note_on channel=0 note=69 velocity=49 time=0.008666666666666666@note_on channel=0 note=69 velocity=49 time=0@note_on channel=0 note=57 velocity=0 time=0.13533333333333333@note_on channel=0 note=69 velocity=0 time=0.016@note_on channel=0 note=57 velocity=49 time=0.008666666666666666@note_on channel=0 note=69 velocity=0 time=0.14333333333333334@note_on channel=0 note=75 velocity=49 time=0.016666666666666666@note_on channel=0 note=64 velocity=49 time=0@note_on channel=0 note=75 velocity=0 time=0.15133333333333332@note_on channel=0 note=64 velocity=0 time=0@note_on channel=0 note=76 velocity=49 time=0.008666666666666666@note_on channel=0 note=69 velocity=49 time=0@note_on channel=0 note=57 velocity=0 time=0.13533333333333333@note_on channel=0 note=76 velocity=0 time=0.016@note_on channel=0 note=69 velocity=0 time=0@note_on channel=0 note=76 velocity=49 time=0.008666666666666666@note_on channel=0 note=54 velocity=49 time=0@note_on channel=0 note=61 velocity=49 time=0.16@note_on channel=0 note=61 velocity=0 time=0.15133333333333332@note_on channel=0 note=64 velocity=49 time=0.008666666666666666@note_on channel=0 note=54 velocity=0 time=0.13533333333333333@note_on channel=0 note=64 velocity=0 time=0.016@note_on channel=0 note=68 velocity=49 time=0.008666666666666666@note_on channel=0 note=76 velocity=0 time=0.12733333333333333@note_on channel=0 note=75 velocity=49 time=0.03266666666666666@note_on channel=0 note=64 velocity=49 time=0@note_on channel=0 note=75 velocity=0 time=0.15133333333333332@note_on channel=0 note=64 velocity=0 time=0@note_on channel=0 note=76 velocity=49 time=0.008666666666666666@note_on channel=0 note=61 velocity=49 time=0@note_on channel=0 note=68 velocity=0 time=0.13533333333333333@note_on channel=0 note=76 velocity=0 time=0.016@note_on channel=0 note=61 velocity=0 time=0@note_on channel=0 note=75 velocity=49 time=0.008666666666666666@note_on channel=0 note=56 velocity=49 time=0@note_on channel=0 note=60 velocity=49 time=0.16@note_on channel=0 note=75 velocity=0 time=0.14333333333333334@note_on channel=0 note=60 velocity=0 time=0.008@note_on channel=0 note=73 velocity=49 time=0.008666666666666666@note_on channel=0 note=63 velocity=49 time=0@note_on channel=0 note=56 velocity=0 time=0.13533333333333333@note_on channel=0 note=63 velocity=0 time=0.016@note_on channel=0 note=68 velocity=49 time=0.008666666666666666@note_on channel=0 note=73 velocity=0 time=0.14333333333333334@note_on channel=0 note=72 velocity=49 time=0.016666666666666666@note_on channel=0 note=63 velocity=49 time=0@note_on channel=0 note=63 velocity=0 time=0.15133333333333332@note_on channel=0 note=60 velocity=49 time=0.008666666666666666@note_on channel=0 note=68 velocity=0 time=0.13533333333333333@note_on channel=0 note=72 velocity=0 time=0.008@note_on channel=0 note=60 velocity=0 time=0.008@note_on channel=0 note=73 velocity=49 time=0.008666666666666666@note_on channel=0 note=49 velocity=49 time=0@note_on channel=0 note=64 velocity=49 time=0.16@note_on channel=0 note=64 velocity=0 time=0.15133333333333332@note_on channel=0 note=68 velocity=49 time=0.008666666666666666@note_on channel=0 note=73 velocity=0 time=0.13533333333333333@note_on channel=0 note=49 velocity=0 time=0@note_on channel=0 note=68 velocity=0 time=0.016@note_on channel=0 note=73 velocity=49 time=0.008666666666666666@note_on channel=0 note=73 velocity=49 time=0@note_on channel=0 note=68 velocity=49 time=0.16@note_on channel=0 note=68 velocity=0 time=0.15133333333333332@note_on channel=0 note=61 velocity=49 time=0.008666666666666666@note_on channel=0 note=73 velocity=0 time=0.13533333333333333@note_on channel=0 note=73 velocity=0 time=0@note_on channel=0 note=61 velocity=0 time=0.016@note_on channel=0 note=75 velocity=49 time=0.008666666666666666@note_on channel=0 note=61 velocity=49 time=0@note_on channel=0 note=64 velocity=49 time=0.16@note_on channel=0 note=64 velocity=0 time=0.15133333333333332@note_on channel=0 note=61 velocity=49 time=0.008666666666666666@note_on channel=0 note=75 velocity=0 time=0.13533333333333333@note_on channel=0 note=61 velocity=0 time=0@note_on channel=0 note=61 velocity=0 time=0.016@note_on channel=0 note=76 velocity=49 time=0.008666666666666666@note_on channel=0 note=61 velocity=49 time=0@note_on channel=0 note=64 velocity=49 time=0.16@note_on channel=0 note=64 velocity=0 time=0.15133333333333332@note_on channel=0 note=61 velocity=49 time=0.008666666666666666@note_on channel=0 note=76 velocity=0 time=0.13533333333333333@note_on channel=0 note=61 velocity=0 time=0@note_on channel=0 note=61 velocity=0 time=0.016@note_on channel=0 note=76 velocity=49 time=0.008666666666666666@note_on channel=0 note=56 velocity=49 time=0@note_on channel=0 note=61 velocity=49 time=0.16@note_on channel=0 note=61 velocity=0 time=0.15133333333333332@note_on channel=0 note=64 velocity=49 time=0.008666666666666666@note_on channel=0 note=56 velocity=0 time=0.13533333333333333@note_on channel=0 note=64 velocity=0 time=0.016@note_on channel=0 note=56 velocity=49 time=0.008666666666666666@note_on channel=0 note=61 velocity=49 time=0.16@note_on channel=0 note=61 velocity=0 time=0.15133333333333332@note_on channel=0 note=64 velocity=49 time=0.008666666666666666@note_on channel=0 note=76 velocity=0 time=0.11133333333333333@note_on channel=0 note=56 velocity=0 time=0.024@note_on channel=0 note=64 velocity=0 time=0.016@note_on channel=0 note=78 velocity=49 time=0.008666666666666666@note_on channel=0 note=56 velocity=49 time=0@note_on channel=0 note=61 velocity=49 time=0.16@note_on channel=0 note=61 velocity=0 time=0.15133333333333332@note_on channel=0 note=64 velocity=49 time=0.008666666666666666@note_on channel=0 note=78 velocity=0 time=0.13533333333333333@note_on channel=0 note=56 velocity=0 time=0@note_on channel=0 note=64 velocity=0 time=0.016@note_on channel=0 note=80 velocity=49 time=0.008666666666666666@note_on channel=0 note=56 velocity=49 time=0@note_on channel=0 note=61 velocity=49 time=0.16@note_on channel=0 note=61 velocity=0 time=0.15133333333333332@note_on channel=0 note=64 velocity=49 time=0.008666666666666666@note_on channel=0 note=80 velocity=0 time=0.13533333333333333@note_on channel=0 note=56 velocity=0 time=0@note_on channel=0 note=64 velocity=0 time=0.016@note_on channel=0 note=73 velocity=49 time=0.008666666666666666@note_on channel=0 note=54 velocity=49 time=0@note_on channel=0 note=57 velocity=49 time=0.16@note_on channel=0 note=57 velocity=0 time=0.15133333333333332@note_on channel=0 note=61 velocity=49 time=0.008666666666666666@note_on channel=0 note=54 velocity=0 time=0.13533333333333333@note_on channel=0 note=61 velocity=0 time=0.016@note_on channel=0 note=54 velocity=49 time=0.008666666666666666@note_on channel=0 note=57 velocity=49 time=0.16@note_on channel=0 note=57 velocity=0 time=0.15133333333333332@note_on channel=0 note=61 velocity=49 time=0.008666666666666666@note_on channel=0 note=73 velocity=0 time=0.11133333333333333@note_on channel=0 note=54 velocity=0 time=0.024@note_on channel=0 note=61 velocity=0 time=0.016@note_on channel=0 note=78 velocity=49 time=0.008666666666666666@note_on channel=0 note=54 velocity=49 time=0@note_on channel=0 note=78 velocity=0 time=0.15133333333333332@note_on channel=0 note=76 velocity=49 time=0.008666666666666666@note_on channel=0 note=57 velocity=49 time=0@note_on channel=0 note=76 velocity=0 time=0.15133333333333332@note_on channel=0 note=57 velocity=0 time=0@note_on channel=0 note=75 velocity=49 time=0.008666666666666666@note_on channel=0 note=63 velocity=49 time=0@note_on channel=0 note=54 velocity=0 time=0.13533333333333333@note_on channel=0 note=75 velocity=0 time=0.016@note_on channel=0 note=63 velocity=0 time=0@note_on channel=0 note=73 velocity=49 time=0.008666666666666666@note_on channel=0 note=54 velocity=49 time=0@note_on channel=0 note=57 velocity=49 time=0.16@note_on channel=0 note=73 velocity=0 time=0.14333333333333334@note_on channel=0 note=57 velocity=0 time=0.008@note_on channel=0 note=75 velocity=49 time=0.008666666666666666@note_on channel=0 note=63 velocity=49 time=0@note_on channel=0 note=54 velocity=0 time=0.13533333333333333@note_on channel=0 note=75 velocity=0 time=0.016@note_on channel=0 note=63 velocity=0 time=0@note_on channel=0 note=71 velocity=49 time=0.008666666666666666@note_on channel=0 note=52 velocity=49 time=0@note_on channel=0 note=56 velocity=49 time=0.16@note_on channel=0 note=71 velocity=0 time=0.14333333333333334@note_on channel=0 note=56 velocity=0 time=0.008@note_on channel=0 note=68 velocity=49 time=0.008666666666666666@note_on channel=0 note=63 velocity=49 time=0@note_on channel=0 note=52 velocity=0 time=0.13533333333333333@note_on channel=0 note=63 velocity=0 time=0.016@note_on channel=0 note=52 velocity=49 time=0.008666666666666666@note_on channel=0 note=56 velocity=49 time=0.16@note_on channel=0 note=56 velocity=0 time=0.15133333333333332@note_on channel=0 note=63 velocity=49 time=0.008666666666666666@note_on channel=0 note=52 velocity=0 time=0.13533333333333333@note_on channel=0 note=63 velocity=0 time=0.016@note_on channel=0 note=52 velocity=49 time=0.008666666666666666@note_on channel=0 note=56 velocity=49 time=0.16@note_on channel=0 note=56 velocity=0 time=0.15133333333333332@note_on channel=0 note=63 velocity=49 time=0.008666666666666666@note_on channel=0 note=68 velocity=0 time=0.10333333333333333@note_on channel=0 note=52 velocity=0 time=0.032@note_on channel=0 note=63 velocity=0 time=0.016@note_on channel=0 note=52 velocity=49 time=0.008666666666666666@note_on channel=0 note=59 velocity=49 time=0.16@note_on channel=0 note=59 velocity=0 time=0.15133333333333332@note_on channel=0 note=63 velocity=49 time=0.008666666666666666@note_on channel=0 note=52 velocity=0 time=0.13533333333333333@note_on channel=0 note=63 velocity=0 time=0.016@note_on channel=0 note=51 velocity=49 time=0.008666666666666666@note_on channel=0 note=56 velocity=49 time=0.16@note_on channel=0 note=56 velocity=0 time=0.15133333333333332@note_on channel=0 note=61 velocity=49 time=0.008666666666666666@note_on channel=0 note=51 velocity=0 time=0.13533333333333333@note_on channel=0 note=61 velocity=0 time=0.016@note_on channel=0 note=51 velocity=49 time=0.008666666666666666@note_on channel=0 note=56 velocity=49 time=0.16@note_on channel=0 note=56 velocity=0 time=0.15133333333333332@note_on channel=0 note=61 velocity=49 time=0.008666666666666666@note_on channel=0 note=51 velocity=0 time=0.13533333333333333@note_on channel=0 note=61 velocity=0 time=0.016@note_on channel=0 note=51 velocity=49 time=0.008666666666666666@note_on channel=0 note=56 velocity=49 time=0.16@note_on channel=0 note=56 velocity=0 time=0.15133333333333332@note_on channel=0 note=60 velocity=49 time=0.008666666666666666@note_on channel=0 note=51 velocity=0 time=0.13533333333333333@note_on channel=0 note=60 velocity=0 time=0.016@note_on channel=0 note=51 velocity=49 time=0.008666666666666666@note_on channel=0 note=56 velocity=49 time=0.16@note_on channel=0 note=56 velocity=0 time=0.15133333333333332@note_on channel=0 note=63 velocity=49 time=0.008666666666666666@note_on channel=0 note=63 velocity=0 time=0.15133333333333332@<meta message time_signature numerator=1 denominator=8 clocks_per_click=24 notated_32nd_notes_per_beat=8 time=0.008666666666666666>@note_on channel=0 note=78 velocity=49 time=0@note_on channel=0 note=78 velocity=0 time=0.03733333333333333@note_on channel=0 note=80 velocity=49 time=0.0026666666666666666@note_on channel=0 note=80 velocity=0 time=0.03733333333333333@note_on channel=0 note=81 velocity=49 time=0.0026666666666666666@note_on channel=0 note=81 velocity=0 time=0.03733333333333333@note_on channel=0 note=83 velocity=49 time=0.0026666666666666666@note_on channel=0 note=51 velocity=0 time=0.007333333333333333@note_on channel=0 note=83 velocity=0 time=0.03@<meta message time_signature numerator=12 denominator=8 clocks_per_click=24 notated_32nd_notes_per_beat=8 time=0.0026666666666666666>@note_on channel=0 note=85 velocity=49 time=0@note_on channel=0 note=63 velocity=49 time=0@note_on channel=0 note=85 velocity=0 time=0.03733333333333333@note_on channel=0 note=83 velocity=49 time=0.0026666666666666666@note_on channel=0 note=83 velocity=0 time=0.03733333333333333@note_on channel=0 note=81 velocity=49 time=0.0026666666666666666@note_on channel=0 note=81 velocity=0 time=0.03733333333333333@note_on channel=0 note=80 velocity=49 time=0.0026666666666666666@note_on channel=0 note=80 velocity=0 time=0.03733333333333333@note_on channel=0 note=78 velocity=49 time=0.0026666666666666666@note_on channel=0 note=61 velocity=49 time=0@note_on channel=0 note=78 velocity=0 time=0.07533333333333334@note_on channel=0 note=73 velocity=49 time=0.004666666666666666@note_on channel=0 note=61 velocity=0 time=0.07133333333333333@note_on channel=0 note=73 velocity=0 time=0.004@note_on channel=0 note=78 velocity=49 time=0.004666666666666666@note_on channel=0 note=63 velocity=49 time=0@note_on channel=0 note=63 velocity=0 time=0.13533333333333333@note_on channel=0 note=63 velocity=0 time=0.016@note_on channel=0 note=63 velocity=49 time=0.008666666666666666@note_on channel=0 note=54 velocity=49 time=0@note_on channel=0 note=63 velocity=0 time=0.15133333333333332@note_on channel=0 note=61 velocity=49 time=0.008666666666666666@note_on channel=0 note=78 velocity=0 time=0.05933333333333333@note_on channel=0 note=80 velocity=49 time=0.020666666666666667@note_on channel=0 note=61 velocity=0 time=0.07133333333333333@note_on channel=0 note=80 velocity=0 time=0.004@note_on channel=0 note=81 velocity=49 time=0.004666666666666666@note_on channel=0 note=61 velocity=49 time=0@note_on channel=0 note=81 velocity=0 time=0.07533333333333334@note_on channel=0 note=83 velocity=49 time=0.004666666666666666@note_on channel=0 note=54 velocity=0 time=0.05533333333333333@note_on channel=0 note=61 velocity=0 time=0.016@note_on channel=0 note=83 velocity=0 time=0.004@note_on channel=0 note=85 velocity=49 time=0.004666666666666666@note_on channel=0 note=61 velocity=49 time=0@note_on channel=0 note=61 velocity=49 time=0.16@note_on channel=0 note=85 velocity=0 time=0.14333333333333334@note_on channel=0 note=61 velocity=0 time=0.008@note_on channel=0 note=81 velocity=49 time=0.008666666666666666@note_on channel=0 note=64 velocity=49 time=0@note_on channel=0 note=61 velocity=0 time=0.13533333333333333@note_on channel=0 note=81 velocity=0 time=0.016@note_on channel=0 note=64 velocity=0 time=0@note_on channel=0 note=78 velocity=49 time=0.008666666666666666@note_on channel=0 note=64 velocity=49 time=0@note_on channel=0 note=54 velocity=49 time=0@note_on channel=0 note=64 velocity=0 time=0.15133333333333332@note_on channel=0 note=61 velocity=49 time=0.008666666666666666@note_on channel=0 note=78 velocity=0 time=0.14333333333333334@note_on channel=0 note=61 velocity=0 time=0.008@note_on channel=0 note=73 velocity=49 time=0.008666666666666666@note_on channel=0 note=64 velocity=49 time=0@note_on channel=0 note=54 velocity=0 time=0.13533333333333333@note_on channel=0 note=64 velocity=0 time=0.016@note_on channel=0 note=57 velocity=49 time=0.008666666666666666@note_on channel=0 note=64 velocity=49 time=0.16@note_on channel=0 note=64 velocity=0 time=0.15133333333333332@note_on channel=0 note=69 velocity=49 time=0.008666666666666666@note_on channel=0 note=57 velocity=0 time=0.13533333333333333@note_on channel=0 note=69 velocity=0 time=0.016@note_on channel=0 note=57 velocity=49 time=0.008666666666666666@note_on channel=0 note=64 velocity=49 time=0.16@note_on channel=0 note=64 velocity=0 time=0.15133333333333332@note_on channel=0 note=69 velocity=49 time=0.008666666666666666@note_on channel=0 note=73 velocity=0 time=0.10333333333333333@note_on channel=0 note=57 velocity=0 time=0.032@note_on channel=0 note=69 velocity=0 time=0.016@note_on channel=0 note=57 velocity=49 time=0.008666666666666666@note_on channel=0 note=64 velocity=49 time=0.16@note_on channel=0 note=64 velocity=0 time=0.15133333333333332@note_on channel=0 note=69 velocity=49 time=0.008666666666666666@note_on channel=0 note=57 velocity=0 time=0.13533333333333333@note_on channel=0 note=69 velocity=0 time=0.016@note_on channel=0 note=57 velocity=49 time=0.008666666666666666@note_on channel=0 note=64 velocity=49 time=0.16@note_on channel=0 note=64 velocity=0 time=0.15133333333333332@note_on channel=0 note=69 velocity=49 time=0.008666666666666666@note_on channel=0 note=57 velocity=0 time=0.13533333333333333@note_on channel=0 note=69 velocity=0 time=0.016@note_on channel=0 note=75 velocity=49 time=0.008666666666666666@note_on channel=0 note=59 velocity=49 time=0@note_on channel=0 note=66 velocity=49 time=0.16@note_on channel=0 note=66 velocity=0 time=0.15133333333333332@note_on channel=0 note=71 velocity=49 time=0.008666666666666666@note_on channel=0 note=75 velocity=0 time=0.13533333333333333@note_on channel=0 note=59 velocity=0 time=0@note_on channel=0 note=71 velocity=0 time=0.016@note_on channel=0 note=76 velocity=49 time=0.008666666666666666@note_on channel=0 note=59 velocity=49 time=0@note_on channel=0 note=76 velocity=0 time=0.15133333333333332@note_on channel=0 note=78 velocity=49 time=0.008666666666666666@note_on channel=0 note=66 velocity=49 time=0@note_on channel=0 note=78 velocity=0 time=0.15133333333333332@note_on channel=0 note=66 velocity=0 time=0@note_on channel=0 note=73 velocity=49 time=0.008666666666666666@note_on channel=0 note=71 velocity=49 time=0@note_on channel=0 note=59 velocity=0 time=0.13533333333333333@note_on channel=0 note=73 velocity=0 time=0.016@note_on channel=0 note=71 velocity=0 time=0@note_on channel=0 note=75 velocity=49 time=0.008666666666666666@note_on channel=0 note=59 velocity=49 time=0@note_on channel=0 note=66 velocity=49 time=0.16@note_on channel=0 note=75 velocity=0 time=0.14333333333333334@note_on channel=0 note=66 velocity=0 time=0.008@note_on channel=0 note=76 velocity=49 time=0.008666666666666666@note_on channel=0 note=71 velocity=49 time=0@note_on channel=0 note=59 velocity=0 time=0.13533333333333333@note_on channel=0 note=71 velocity=0 time=0.016@note_on channel=0 note=59 velocity=49 time=0.008666666666666666@note_on channel=0 note=76 velocity=0 time=0.14333333333333334@note_on channel=0 note=78 velocity=49 time=0.016666666666666666@note_on channel=0 note=66 velocity=49 time=0@note_on channel=0 note=66 velocity=0 time=0.15133333333333332@note_on channel=0 note=71 velocity=49 time=0.008666666666666666@note_on channel=0 note=59 velocity=0 time=0.13533333333333333@note_on channel=0 note=78 velocity=0 time=0.008@note_on channel=0 note=71 velocity=0 time=0.008@note_on channel=0 note=80 velocity=49 time=0.008666666666666666@note_on channel=0 note=52 velocity=49 time=0@note_on channel=0 note=59 velocity=49 time=0.16@note_on channel=0 note=59 velocity=0 time=0.15133333333333332@note_on channel=0 note=64 velocity=49 time=0.008666666666666666@note_on channel=0 note=80 velocity=0 time=0.13533333333333333@note_on channel=0 note=52 velocity=0 time=0@note_on channel=0 note=64 velocity=0 time=0.016@note_on channel=0 note=78 velocity=49 time=0.008666666666666666@note_on channel=0 note=52 velocity=49 time=0@note_on channel=0 note=59 velocity=49 time=0.16@note_on channel=0 note=59 velocity=0 time=0.15133333333333332@note_on channel=0 note=63 velocity=49 time=0.008666666666666666@note_on channel=0 note=78 velocity=0 time=0.13533333333333333@note_on channel=0 note=52 velocity=0 time=0@note_on channel=0 note=63 velocity=0 time=0.016@note_on channel=0 note=76 velocity=49 time=0.008666666666666666@note_on channel=0 note=52 velocity=49 time=0@note_on channel=0 note=59 velocity=49 time=0.16@note_on channel=0 note=59 velocity=0 time=0.15133333333333332@note_on channel=0 note=66 velocity=49 time=0.008666666666666666@note_on channel=0 note=76 velocity=0 time=0.13533333333333333@note_on channel=0 note=52 velocity=0 time=0@note_on channel=0 note=66 velocity=0 time=0.016@note_on channel=0 note=83 velocity=49 time=0.008666666666666666@note_on channel=0 note=52 velocity=49 time=0@note_on channel=0 note=59 velocity=49 time=0.16@note_on channel=0 note=59 velocity=0 time=0.15133333333333332@note_on channel=0 note=68 velocity=49 time=0.008666666666666666@note_on channel=0 note=83 velocity=0 time=0.13533333333333333@note_on channel=0 note=52 velocity=0 time=0@note_on channel=0 note=68 velocity=0 time=0.016@note_on channel=0 note=80 velocity=49 time=0.008666666666666666@note_on channel=0 note=57 velocity=49 time=0@note_on channel=0 note=64 velocity=49 time=0.16@note_on channel=0 note=80 velocity=0 time=0.14333333333333334@note_on channel=0 note=64 velocity=0 time=0.008@note_on channel=0 note=78 velocity=49 time=0.008666666666666666@note_on channel=0 note=69 velocity=49 time=0@note_on channel=0 note=57 velocity=0 time=0.13533333333333333@note_on channel=0 note=69 velocity=0 time=0.016@note_on channel=0 note=57 velocity=49 time=0.008666666666666666@note_on channel=0 note=78 velocity=0 time=0.14333333333333334@note_on channel=0 note=76 velocity=49 time=0.016666666666666666@note_on channel=0 note=64 velocity=49 time=0@note_on channel=0 note=76 velocity=0 time=0.15133333333333332@note_on channel=0 note=64 velocity=0 time=0@note_on channel=0 note=75 velocity=49 time=0.008666666666666666@note_on channel=0 note=69 velocity=49 time=0@note_on channel=0 note=57 velocity=0 time=0.13533333333333333@note_on channel=0 note=75 velocity=0 time=0.016@note_on channel=0 note=69 velocity=0 time=0@note_on channel=0 note=73 velocity=49 time=0.008666666666666666@note_on channel=0 note=56 velocity=49 time=0@note_on channel=0 note=73 velocity=0 time=0.15133333333333332@note_on channel=0 note=71 velocity=49 time=0.008666666666666666@note_on channel=0 note=64 velocity=49 time=0@note_on channel=0 note=71 velocity=0 time=0.15133333333333332@note_on channel=0 note=64 velocity=0 time=0@note_on channel=0 note=68 velocity=49 time=0.008666666666666666@note_on channel=0 note=68 velocity=49 time=0@note_on channel=0 note=56 velocity=0 time=0.13533333333333333@note_on channel=0 note=68 velocity=0 time=0.016@note_on channel=0 note=68 velocity=0 time=0@note_on channel=0 note=75 velocity=49 time=0.008666666666666666@note_on channel=0 note=56 velocity=49 time=0@note_on channel=0 note=63 velocity=49 time=0.16@note_on channel=0 note=75 velocity=0 time=0.14333333333333334@note_on channel=0 note=63 velocity=0 time=0.008@note_on channel=0 note=76 velocity=49 time=0.008666666666666666@note_on channel=0 note=63 velocity=49 time=0@note_on channel=0 note=56 velocity=0 time=0.13533333333333333@note_on channel=0 note=76 velocity=0 time=0.016@note_on channel=0 note=63 velocity=0 time=0@note_on channel=0 note=69 velocity=49 time=0.008666666666666666@note_on channel=0 note=54 velocity=49 time=0@note_on channel=0 note=61 velocity=49 time=0.16@note_on channel=0 note=69 velocity=0 time=0.14333333333333334@note_on channel=0 note=61 velocity=0 time=0.008@note_on channel=0 note=66 velocity=49 time=0.008666666666666666@note_on channel=0 note=66 velocity=49 time=0@note_on channel=0 note=54 velocity=0 time=0.13533333333333333@note_on channel=0 note=66 velocity=0 time=0.016@note_on channel=0 note=54 velocity=49 time=0.008666666666666666@note_on channel=0 note=66 velocity=0 time=0.14333333333333334@note_on channel=0 note=73 velocity=49 time=0.016666666666666666@note_on channel=0 note=61 velocity=49 time=0@note_on channel=0 note=61 velocity=0 time=0.15133333333333332@note_on channel=0 note=66 velocity=49 time=0.008666666666666666@note_on channel=0 note=54 velocity=0 time=0.13533333333333333@note_on channel=0 note=73 velocity=0 time=0.008@note_on channel=0 note=66 velocity=0 time=0.008@note_on channel=0 note=71 velocity=49 time=0.008666666666666666@note_on channel=0 note=52 velocity=49 time=0@note_on channel=0 note=59 velocity=49 time=0.16@note_on channel=0 note=71 velocity=0 time=0.14333333333333334@note_on channel=0 note=59 velocity=0 time=0.008@note_on channel=0 note=68 velocity=49 time=0.008666666666666666@note_on channel=0 note=64 velocity=49 time=0@note_on channel=0 note=52 velocity=0 time=0.13533333333333333@note_on channel=0 note=64 velocity=0 time=0.016@note_on channel=0 note=52 velocity=49 time=0.008666666666666666@note_on channel=0 note=68 velocity=0 time=0.14333333333333334@note_on channel=0 note=68 velocity=49 time=0.016666666666666666@note_on channel=0 note=59 velocity=49 time=0@note_on channel=0 note=59 velocity=0 time=0.15133333333333332@note_on channel=0 note=64 velocity=49 time=0.008666666666666666@note_on channel=0 note=52 velocity=0 time=0.13533333333333333@note_on channel=0 note=68 velocity=0 time=0.008@note_on channel=0 note=64 velocity=0 time=0.008@<meta message key_signature key='A' time=0.008666666666666666>@note_on channel=0 note=69 velocity=49 time=0@<meta message key_signature key='A' time=0>@note_on channel=0 note=50 velocity=49 time=0@note_on channel=0 note=57 velocity=49 time=0.16@note_on channel=0 note=57 velocity=0 time=0.15133333333333332@note_on channel=0 note=62 velocity=49 time=0.008666666666666666@note_on channel=0 note=50 velocity=0 time=0.13533333333333333@note_on channel=0 note=62 velocity=0 time=0.016@note_on channel=0 note=50 velocity=49 time=0.008666666666666666@note_on channel=0 note=57 velocity=49 time=0.16@note_on channel=0 note=57 velocity=0 time=0.15133333333333332@note_on channel=0 note=62 velocity=49 time=0.008666666666666666@note_on channel=0 note=69 velocity=0 time=0.11133333333333333@note_on channel=0 note=50 velocity=0 time=0.024@note_on channel=0 note=62 velocity=0 time=0.016@note_on channel=0 note=68 velocity=49 time=0.008666666666666666@note_on channel=0 note=50 velocity=49 time=0@note_on channel=0 note=57 velocity=49 time=0.16@note_on channel=0 note=68 velocity=0 time=0.14333333333333334@note_on channel=0 note=57 velocity=0 time=0.008@note_on channel=0 note=66 velocity=49 time=0.008666666666666666@note_on channel=0 note=62 velocity=49 time=0@note_on channel=0 note=50 velocity=0 time=0.13533333333333333@note_on channel=0 note=62 velocity=0 time=0.016@note_on channel=0 note=50 velocity=49 time=0.008666666666666666@note_on channel=0 note=66 velocity=0 time=0.14333333333333334@note_on channel=0 note=68 velocity=49 time=0.016666666666666666@note_on channel=0 note=57 velocity=49 time=0@note_on channel=0 note=57 velocity=0 time=0.15133333333333332@note_on channel=0 note=62 velocity=49 time=0.008666666666666666@note_on channel=0 note=50 velocity=0 time=0.13533333333333333@note_on channel=0 note=68 velocity=0 time=0.008@note_on channel=0 note=62 velocity=0 time=0.008@note_on channel=0 note=68 velocity=49 time=0.008666666666666666@note_on channel=0 note=49 velocity=49 time=0@note_on channel=0 note=56 velocity=49 time=0.16@note_on channel=0 note=56 velocity=0 time=0.15133333333333332@note_on channel=0 note=61 velocity=49 time=0.008666666666666666@note_on channel=0 note=49 velocity=0 time=0.13533333333333333@note_on channel=0 note=61 velocity=0 time=0.016@note_on channel=0 note=49 velocity=49 time=0.008666666666666666@note_on channel=0 note=56 velocity=49 time=0.16@note_on channel=0 note=56 velocity=0 time=0.15133333333333332@note_on channel=0 note=61 velocity=49 time=0.008666666666666666@note_on channel=0 note=68 velocity=0 time=0.11133333333333333@note_on channel=0 note=49 velocity=0 time=0.024@note_on channel=0 note=61 velocity=0 time=0.016@note_on channel=0 note=65 velocity=49 time=0.008666666666666666@note_on channel=0 note=49 velocity=49 time=0@note_on channel=0 note=56 velocity=49 time=0.16@note_on channel=0 note=56 velocity=0 time=0.15133333333333332@note_on channel=0 note=61 velocity=49 time=0.008666666666666666@note_on channel=0 note=65 velocity=0 time=0.13533333333333333@note_on channel=0 note=49 velocity=0 time=0@note_on channel=0 note=61 velocity=0 time=0.016@note_on channel=0 note=68 velocity=49 time=0.008666666666666666@note_on channel=0 note=49 velocity=49 time=0@note_on channel=0 note=56 velocity=49 time=0.16@note_on channel=0 note=56 velocity=0 time=0.15133333333333332@note_on channel=0 note=61 velocity=49 time=0.008666666666666666@note_on channel=0 note=68 velocity=0 time=0.13533333333333333@note_on channel=0 note=49 velocity=0 time=0@note_on channel=0 note=61 velocity=0 time=0.016@note_on channel=0 note=81 velocity=49 time=0.008666666666666666@note_on channel=0 note=54 velocity=49 time=0@note_on channel=0 note=57 velocity=49 time=0.16@note_on channel=0 note=57 velocity=0 time=0.15133333333333332@note_on channel=0 note=61 velocity=49 time=0.008666666666666666@note_on channel=0 note=81 velocity=0 time=0.13533333333333333@note_on channel=0 note=54 velocity=0 time=0@note_on channel=0 note=61 velocity=0 time=0.016@note_on channel=0 note=80 velocity=49 time=0.008666666666666666@note_on channel=0 note=54 velocity=49 time=0@note_on channel=0 note=57 velocity=49 time=0.16@note_on channel=0 note=57 velocity=0 time=0.15133333333333332@note_on channel=0 note=61 velocity=49 time=0.008666666666666666@note_on channel=0 note=80 velocity=0 time=0.13533333333333333@note_on channel=0 note=54 velocity=0 time=0@note_on channel=0 note=61 velocity=0 time=0.016@note_on channel=0 note=78 velocity=49 time=0.008666666666666666@note_on channel=0 note=54 velocity=49 time=0@note_on channel=0 note=57 velocity=49 time=0.16@note_on channel=0 note=57 velocity=0 time=0.15133333333333332@note_on channel=0 note=61 velocity=49 time=0.008666666666666666@note_on channel=0 note=78 velocity=0 time=0.13533333333333333@note_on channel=0 note=54 velocity=0 time=0@note_on channel=0 note=61 velocity=0 time=0.016@note_on channel=0 note=73 velocity=49 time=0.008666666666666666@note_on channel=0 note=54 velocity=49 time=0@note_on channel=0 note=57 velocity=49 time=0.16@note_on channel=0 note=57 velocity=0 time=0.15133333333333332@note_on channel=0 note=61 velocity=49 time=0.008666666666666666@note_on channel=0 note=73 velocity=0 time=0.13533333333333333@note_on channel=0 note=54 velocity=0 time=0@note_on channel=0 note=61 velocity=0 time=0.016@note_on channel=0 note=76 velocity=49 time=0.008666666666666666@note_on channel=0 note=50 velocity=49 time=0@note_on channel=0 note=57 velocity=49 time=0.16@note_on channel=0 note=57 velocity=0 time=0.15133333333333332@note_on channel=0 note=62 velocity=49 time=0.008666666666666666@note_on channel=0 note=76 velocity=0 time=0.13533333333333333@note_on channel=0 note=50 velocity=0 time=0@note_on channel=0 note=62 velocity=0 time=0.016@note_on channel=0 note=74 velocity=49 time=0.008666666666666666@note_on channel=0 note=50 velocity=49 time=0@note_on channel=0 note=57 velocity=49 time=0.16@note_on channel=0 note=57 velocity=0 time=0.15133333333333332@note_on channel=0 note=62 velocity=49 time=0.008666666666666666@note_on channel=0 note=74 velocity=0 time=0.13533333333333333@note_on channel=0 note=50 velocity=0 time=0@note_on channel=0 note=62 velocity=0 time=0.016@note_on channel=0 note=73 velocity=49 time=0.008666666666666666@note_on channel=0 note=50 velocity=49 time=0@note_on channel=0 note=57 velocity=49 time=0.16@note_on channel=0 note=57 velocity=0 time=0.15133333333333332@note_on channel=0 note=62 velocity=49 time=0.008666666666666666@note_on channel=0 note=73 velocity=0 time=0.13533333333333333@note_on channel=0 note=50 velocity=0 time=0@note_on channel=0 note=62 velocity=0 time=0.016@note_on channel=0 note=71 velocity=49 time=0.008666666666666666@note_on channel=0 note=50 velocity=49 time=0@note_on channel=0 note=57 velocity=49 time=0.16@note_on channel=0 note=57 velocity=0 time=0.15133333333333332@note_on channel=0 note=62 velocity=49 time=0.008666666666666666@note_on channel=0 note=71 velocity=0 time=0.13533333333333333@note_on channel=0 note=50 velocity=0 time=0@note_on channel=0 note=62 velocity=0 time=0.016@note_on channel=0 note=68 velocity=49 time=0.008666666666666666@note_on channel=0 note=52 velocity=49 time=0@note_on channel=0 note=59 velocity=49 time=0.16@note_on channel=0 note=59 velocity=0 time=0.15133333333333332@note_on channel=0 note=64 velocity=49 time=0.008666666666666666@note_on channel=0 note=68 velocity=0 time=0.13533333333333333@note_on channel=0 note=52 velocity=0 time=0@note_on channel=0 note=64 velocity=0 time=0.016@note_on channel=0 note=69 velocity=49 time=0.008666666666666666@note_on channel=0 note=52 velocity=49 time=0@note_on channel=0 note=59 velocity=49 time=0.16@note_on channel=0 note=59 velocity=0 time=0.15133333333333332@note_on channel=0 note=64 velocity=49 time=0.008666666666666666@note_on channel=0 note=69 velocity=0 time=0.13533333333333333@note_on channel=0 note=52 velocity=0 time=0@note_on channel=0 note=64 velocity=0 time=0.016@note_on channel=0 note=71 velocity=49 time=0.008666666666666666@note_on channel=0 note=52 velocity=49 time=0@note_on channel=0 note=59 velocity=49 time=0.16@note_on channel=0 note=59 velocity=0 time=0.15133333333333332@note_on channel=0 note=64 velocity=49 time=0.008666666666666666@note_on channel=0 note=71 velocity=0 time=0.13533333333333333@note_on channel=0 note=52 velocity=0 time=0@note_on channel=0 note=64 velocity=0 time=0.016@note_on channel=0 note=76 velocity=49 time=0.008666666666666666@note_on channel=0 note=52 velocity=49 time=0@note_on channel=0 note=59 velocity=49 time=0.16@note_on channel=0 note=59 velocity=0 time=0.15133333333333332@note_on channel=0 note=64 velocity=49 time=0.008666666666666666@note_on channel=0 note=76 velocity=0 time=0.13533333333333333@note_on channel=0 note=52 velocity=0 time=0@note_on channel=0 note=64 velocity=0 time=0.016@note_on channel=0 note=69 velocity=49 time=0.008666666666666666@note_on channel=0 note=54 velocity=49 time=0@note_on channel=0 note=61 velocity=49 time=0.16@note_on channel=0 note=69 velocity=0 time=0.14333333333333334@note_on channel=0 note=61 velocity=0 time=0.008@note_on channel=0 note=66 velocity=49 time=0.008666666666666666@note_on channel=0 note=66 velocity=49 time=0@note_on channel=0 note=54 velocity=0 time=0.13533333333333333@note_on channel=0 note=66 velocity=0 time=0.016@note_on channel=0 note=54 velocity=49 time=0.008666666666666666@note_on channel=0 note=66 velocity=0 time=0.14333333333333334@note_on channel=0 note=71 velocity=49 time=0.016666666666666666@note_on channel=0 note=61 velocity=49 time=0@note_on channel=0 note=61 velocity=0 time=0.15133333333333332@note_on channel=0 note=66 velocity=49 time=0.008666666666666666@note_on channel=0 note=54 velocity=0 time=0.13533333333333333@note_on channel=0 note=71 velocity=0 time=0.008@note_on channel=0 note=66 velocity=0 time=0.008@note_on channel=0 note=73 velocity=49 time=0.008666666666666666@note_on channel=0 note=54 velocity=49 time=0@note_on channel=0 note=61 velocity=49 time=0.16@note_on channel=0 note=61 velocity=0 time=0.15133333333333332@note_on channel=0 note=66 velocity=49 time=0.008666666666666666@note_on channel=0 note=73 velocity=0 time=0.13533333333333333@note_on channel=0 note=54 velocity=0 time=0@note_on channel=0 note=66 velocity=0 time=0.016@note_on channel=0 note=78 velocity=49 time=0.008666666666666666@note_on channel=0 note=54 velocity=49 time=0@note_on channel=0 note=61 velocity=49 time=0.16@note_on channel=0 note=61 velocity=0 time=0.15133333333333332@note_on channel=0 note=66 velocity=49 time=0.008666666666666666@note_on channel=0 note=78 velocity=0 time=0.13533333333333333@note_on channel=0 note=54 velocity=0 time=0@note_on channel=0 note=66 velocity=0 time=0.016@note_on channel=0 note=85 velocity=49 time=0.008666666666666666@note_on channel=0 note=50 velocity=49 time=0@note_on channel=0 note=57 velocity=49 time=0.16@note_on channel=0 note=85 velocity=0 time=0.14333333333333334@note_on channel=0 note=57 velocity=0 time=0.008@note_on channel=0 note=78 velocity=49 time=0.008666666666666666@note_on channel=0 note=62 velocity=49 time=0@note_on channel=0 note=50 velocity=0 time=0.13533333333333333@note_on channel=0 note=62 velocity=0 time=0.016@note_on channel=0 note=50 velocity=49 time=0.008666666666666666@note_on channel=0 note=78 velocity=0 time=0.14333333333333334@note_on channel=0 note=81 velocity=49 time=0.016666666666666666@note_on channel=0 note=57 velocity=49 time=0@note_on channel=0 note=57 velocity=0 time=0.15133333333333332@note_on channel=0 note=62 velocity=49 time=0.008666666666666666@note_on channel=0 note=50 velocity=0 time=0.13533333333333333@note_on channel=0 note=81 velocity=0 time=0.008@note_on channel=0 note=62 velocity=0 time=0.008@note_on channel=0 note=80 velocity=49 time=0.008666666666666666@note_on channel=0 note=52 velocity=49 time=0@note_on channel=0 note=59 velocity=49 time=0.16@note_on channel=0 note=80 velocity=0 time=0.14333333333333334@note_on channel=0 note=59 velocity=0 time=0.008@note_on channel=0 note=73 velocity=49 time=0.008666666666666666@note_on channel=0 note=64 velocity=49 time=0@note_on channel=0 note=52 velocity=0 time=0.13533333333333333@note_on channel=0 note=73 velocity=0 time=0.016@note_on channel=0 note=64 velocity=0 time=0@note_on channel=0 note=71 velocity=49 time=0.008666666666666666@note_on channel=0 note=52 velocity=49 time=0@note_on channel=0 note=71 velocity=0 time=0.15133333333333332@note_on channel=0 note=73 velocity=49 time=0.008666666666666666@note_on channel=0 note=59 velocity=49 time=0@note_on channel=0 note=73 velocity=0 time=0.15133333333333332@note_on channel=0 note=59 velocity=0 time=0@note_on channel=0 note=69 velocity=49 time=0.008666666666666666@note_on channel=0 note=64 velocity=49 time=0@note_on channel=0 note=52 velocity=0 time=0.13533333333333333@note_on channel=0 note=69 velocity=0 time=0.016@note_on channel=0 note=64 velocity=0 time=0@note_on channel=0 note=68 velocity=49 time=0.008666666666666666@note_on channel=0 note=45 velocity=49 time=0@note_on channel=0 note=52 velocity=49 time=0.16@note_on channel=0 note=68 velocity=0 time=0.14333333333333334@note_on channel=0 note=52 velocity=0 time=0.008@note_on channel=0 note=66 velocity=49 time=0.008666666666666666@note_on channel=0 note=57 velocity=49 time=0@note_on channel=0 note=45 velocity=0 time=0.13533333333333333@note_on channel=0 note=57 velocity=0 time=0.016@note_on channel=0 note=45 velocity=49 time=0.008666666666666666@note_on channel=0 note=66 velocity=0 time=0.14333333333333334@note_on channel=0 note=68 velocity=49 time=0.016666666666666666@note_on channel=0 note=52 velocity=49 time=0@note_on channel=0 note=52 velocity=0 time=0.15133333333333332@note_on channel=0 note=57 velocity=49 time=0.008666666666666666@note_on channel=0 note=45 velocity=0 time=0.13533333333333333@note_on channel=0 note=68 velocity=0 time=0.008@note_on channel=0 note=57 velocity=0 time=0.008@note_on channel=0 note=64 velocity=49 time=0.008666666666666666@note_on channel=0 note=45 velocity=49 time=0@note_on channel=0 note=52 velocity=49 time=0.16@note_on channel=0 note=64 velocity=0 time=0.14333333333333334@note_on channel=0 note=52 velocity=0 time=0.008@note_on channel=0 note=61 velocity=49 time=0.008666666666666666@note_on channel=0 note=57 velocity=49 time=0@note_on channel=0 note=45 velocity=0 time=0.13533333333333333@note_on channel=0 note=57 velocity=0 time=0.016@note_on channel=0 note=45 velocity=49 time=0.008666666666666666@note_on channel=0 note=52 velocity=49 time=0.16@note_on channel=0 note=52 velocity=0 time=0.15133333333333332@note_on channel=0 note=57 velocity=49 time=0.008666666666666666@note_on channel=0 note=61 velocity=0 time=0.12733333333333333@note_on channel=0 note=45 velocity=0 time=0.008@note_on channel=0 note=57 velocity=0 time=0.016@note_on channel=0 note=69 velocity=49 time=0.008666666666666666@note_on channel=0 note=50 velocity=49 time=0@note_on channel=0 note=57 velocity=49 time=0.16@note_on channel=0 note=57 velocity=0 time=0.15133333333333332@note_on channel=0 note=61 velocity=49 time=0.008666666666666666@note_on channel=0 note=50 velocity=0 time=0.13533333333333333@note_on channel=0 note=61 velocity=0 time=0.016@note_on channel=0 note=50 velocity=49 time=0.008666666666666666@note_on channel=0 note=57 velocity=49 time=0.16@note_on channel=0 note=57 velocity=0 time=0.15133333333333332@note_on channel=0 note=61 velocity=49 time=0.008666666666666666@note_on channel=0 note=69 velocity=0 time=0.11133333333333333@note_on channel=0 note=50 velocity=0 time=0.024@note_on channel=0 note=61 velocity=0 time=0.016@note_on channel=0 note=71 velocity=49 time=0.008666666666666666@note_on channel=0 note=52 velocity=49 time=0@note_on channel=0 note=59 velocity=49 time=0.16@note_on channel=0 note=59 velocity=0 time=0.15133333333333332@note_on channel=0 note=64 velocity=49 time=0.008666666666666666@note_on channel=0 note=52 velocity=0 time=0.13533333333333333@note_on channel=0 note=64 velocity=0 time=0.016@note_on channel=0 note=52 velocity=49 time=0.008666666666666666@note_on channel=0 note=71 velocity=0 time=0.12733333333333333@note_on channel=0 note=69 velocity=49 time=0.03266666666666666@note_on channel=0 note=59 velocity=49 time=0@note_on channel=0 note=69 velocity=0 time=0.15133333333333332@note_on channel=0 note=59 velocity=0 time=0@note_on channel=0 note=68 velocity=49 time=0.008666666666666666@note_on channel=0 note=64 velocity=49 time=0@note_on channel=0 note=52 velocity=0 time=0.13533333333333333@note_on channel=0 note=68 velocity=0 time=0.016@note_on channel=0 note=64 velocity=0 time=0@note_on channel=0 note=69 velocity=49 time=0.008666666666666666@note_on channel=0 note=54 velocity=49 time=0@note_on channel=0 note=61 velocity=49 time=0.16@note_on channel=0 note=69 velocity=0 time=0.14333333333333334@note_on channel=0 note=61 velocity=0 time=0.008@note_on channel=0 note=66 velocity=49 time=0.008666666666666666@note_on channel=0 note=66 velocity=49 time=0@note_on channel=0 note=54 velocity=0 time=0.13533333333333333@note_on channel=0 note=66 velocity=0 time=0.016@note_on channel=0 note=54 velocity=49 time=0.008666666666666666@note_on channel=0 note=61 velocity=49 time=0.16@note_on channel=0 note=61 velocity=0 time=0.15133333333333332@note_on channel=0 note=66 velocity=49 time=0.008666666666666666@note_on channel=0 note=54 velocity=0 time=0.13533333333333333@note_on channel=0 note=66 velocity=0 time=0.016@note_on channel=0 note=54 velocity=49 time=0.008666666666666666@note_on channel=0 note=61 velocity=49 time=0.16@note_on channel=0 note=61 velocity=0 time=0.15133333333333332@note_on channel=0 note=66 velocity=49 time=0.008666666666666666@note_on channel=0 note=54 velocity=0 time=0.13533333333333333@note_on channel=0 note=66 velocity=0 time=0.016@note_on channel=0 note=54 velocity=49 time=0.008666666666666666@note_on channel=0 note=61 velocity=49 time=0.16@note_on channel=0 note=61 velocity=0 time=0.15133333333333332@note_on channel=0 note=66 velocity=49 time=0.008666666666666666@note_on channel=0 note=66 velocity=0 time=0.07933333333333333@note_on channel=0 note=54 velocity=0 time=0.056@note_on channel=0 note=66 velocity=0 time=0.016@note_on channel=0 note=69 velocity=49 time=0.008666666666666666@note_on channel=0 note=50 velocity=49 time=0@note_on channel=0 note=57 velocity=49 time=0.16@note_on channel=0 note=57 velocity=0 time=0.15133333333333332@note_on channel=0 note=61 velocity=49 time=0.008666666666666666@note_on channel=0 note=50 velocity=0 time=0.13533333333333333@note_on channel=0 note=61 velocity=0 time=0.016@note_on channel=0 note=50 velocity=49 time=0.008666666666666666@note_on channel=0 note=57 velocity=49 time=0.16@note_on channel=0 note=57 velocity=0 time=0.15133333333333332@note_on channel=0 note=61 velocity=49 time=0.008666666666666666@note_on channel=0 note=69 velocity=0 time=0.11133333333333333@note_on channel=0 note=50 velocity=0 time=0.024@note_on channel=0 note=61 velocity=0 time=0.016@note_on channel=0 note=68 velocity=49 time=0.008666666666666666@note_on channel=0 note=52 velocity=49 time=0@note_on channel=0 note=59 velocity=49 time=0.16@note_on channel=0 note=59 velocity=0 time=0.15133333333333332@note_on channel=0 note=64 velocity=49 time=0.008666666666666666@note_on channel=0 note=52 velocity=0 time=0.13533333333333333@note_on channel=0 note=64 velocity=0 time=0.016@note_on channel=0 note=52 velocity=49 time=0.008666666666666666@note_on channel=0 note=68 velocity=0 time=0.12733333333333333@note_on channel=0 note=66 velocity=49 time=0.03266666666666666@note_on channel=0 note=59 velocity=49 time=0@note_on channel=0 note=66 velocity=0 time=0.15133333333333332@note_on channel=0 note=59 velocity=0 time=0@note_on channel=0 note=64 velocity=49 time=0.008666666666666666@note_on channel=0 note=64 velocity=49 time=0@note_on channel=0 note=52 velocity=0 time=0.13533333333333333@note_on channel=0 note=64 velocity=0 time=0.016@note_on channel=0 note=64 velocity=0 time=0@note_on channel=0 note=66 velocity=49 time=0.008666666666666666@note_on channel=0 note=54 velocity=49 time=0@note_on channel=0 note=61 velocity=49 time=0.16@note_on channel=0 note=61 velocity=0 time=0.15133333333333332@note_on channel=0 note=66 velocity=49 time=0.008666666666666666@note_on channel=0 note=54 velocity=0 time=0.13533333333333333@note_on channel=0 note=66 velocity=0 time=0.016@note_on channel=0 note=54 velocity=49 time=0.008666666666666666@note_on channel=0 note=61 velocity=49 time=0.16@note_on channel=0 note=61 velocity=0 time=0.15133333333333332@note_on channel=0 note=66 velocity=49 time=0.008666666666666666@note_on channel=0 note=54 velocity=0 time=0.13533333333333333@note_on channel=0 note=66 velocity=0 time=0.016@note_on channel=0 note=54 velocity=49 time=0.008666666666666666@note_on channel=0 note=61 velocity=49 time=0.16@note_on channel=0 note=61 velocity=0 time=0.15133333333333332@note_on channel=0 note=66 velocity=49 time=0.008666666666666666@note_on channel=0 note=54 velocity=0 time=0.13533333333333333@note_on channel=0 note=66 velocity=0 time=0.016@note_on channel=0 note=54 velocity=49 time=0.008666666666666666@note_on channel=0 note=61 velocity=49 time=0.16@note_on channel=0 note=61 velocity=0 time=0.15133333333333332@note_on channel=0 note=66 velocity=49 time=0.008666666666666666@note_on channel=0 note=66 velocity=0 time=0.06333333333333332@note_on channel=0 note=54 velocity=0 time=0.072@note_on channel=0 note=66 velocity=0 time=0.016@note_on channel=0 note=61 velocity=49 time=0.008666666666666666@note_on channel=0 note=66 velocity=49 time=0.16@note_on channel=0 note=66 velocity=0 time=0.15133333333333332@note_on channel=0 note=69 velocity=49 time=0.008666666666666666@note_on channel=0 note=61 velocity=0 time=0.13533333333333333@note_on channel=0 note=69 velocity=0 time=0.016@note_on channel=0 note=61 velocity=49 time=0.008666666666666666@note_on channel=0 note=66 velocity=49 time=0.16@note_on channel=0 note=66 velocity=0 time=0.15133333333333332@note_on channel=0 note=68 velocity=49 time=0.008666666666666666@note_on channel=0 note=61 velocity=0 time=0.13533333333333333@note_on channel=0 note=68 velocity=0 time=0.016@note_on channel=0 note=59 velocity=49 time=0.008666666666666666@note_on channel=0 note=64 velocity=49 time=0.16@note_on channel=0 note=64 velocity=0 time=0.15133333333333332@note_on channel=0 note=68 velocity=49 time=0.008666666666666666@note_on channel=0 note=59 velocity=0 time=0.13533333333333333@note_on channel=0 note=68 velocity=0 time=0.016@note_on channel=0 note=59 velocity=49 time=0.008666666666666666@note_on channel=0 note=64 velocity=49 time=0.16@note_on channel=0 note=64 velocity=0 time=0.15133333333333332@note_on channel=0 note=68 velocity=49 time=0.008666666666666666@note_on channel=0 note=59 velocity=0 time=0.13533333333333333@note_on channel=0 note=68 velocity=0 time=0.016@note_on channel=0 note=57 velocity=49 time=0.008666666666666666@note_on channel=0 note=62 velocity=49 time=0.16@note_on channel=0 note=62 velocity=0 time=0.15133333333333332@note_on channel=0 note=66 velocity=49 time=0.008666666666666666@note_on channel=0 note=57 velocity=0 time=0.13533333333333333@note_on channel=0 note=66 velocity=0 time=0.016@note_on channel=0 note=57 velocity=49 time=0.008666666666666666@note_on channel=0 note=62 velocity=49 time=0.16@note_on channel=0 note=62 velocity=0 time=0.15133333333333332@note_on channel=0 note=66 velocity=49 time=0.008666666666666666@note_on channel=0 note=57 velocity=0 time=0.13533333333333333@note_on channel=0 note=66 velocity=0 time=0.016@note_on channel=0 note=59 velocity=49 time=0.008666666666666666@note_on channel=0 note=64 velocity=49 time=0.16@note_on channel=0 note=64 velocity=0 time=0.15133333333333332@note_on channel=0 note=68 velocity=49 time=0.008666666666666666@note_on channel=0 note=59 velocity=0 time=0.13533333333333333@note_on channel=0 note=68 velocity=0 time=0.016@note_on channel=0 note=59 velocity=49 time=0.008666666666666666@note_on channel=0 note=64 velocity=49 time=0.16@note_on channel=0 note=64 velocity=0 time=0.15133333333333332@note_on channel=0 note=68 velocity=49 time=0.008666666666666666@note_on channel=0 note=59 velocity=0 time=0.13533333333333333@note_on channel=0 note=68 velocity=0 time=0.016@note_on channel=0 note=73 velocity=49 time=0.008666666666666666@note_on channel=0 note=78 velocity=49 time=0.16@note_on channel=0 note=78 velocity=0 time=0.15133333333333332@note_on channel=0 note=81 velocity=49 time=0.008666666666666666@note_on channel=0 note=73 velocity=0 time=0.13533333333333333@note_on channel=0 note=81 velocity=0 time=0.016@note_on channel=0 note=73 velocity=49 time=0.008666666666666666@note_on channel=0 note=78 velocity=49 time=0.16@note_on channel=0 note=78 velocity=0 time=0.15133333333333332@note_on channel=0 note=80 velocity=49 time=0.008666666666666666@note_on channel=0 note=73 velocity=0 time=0.13533333333333333@note_on channel=0 note=80 velocity=0 time=0.016@note_on channel=0 note=71 velocity=49 time=0.008666666666666666@note_on channel=0 note=76 velocity=49 time=0.16@note_on channel=0 note=76 velocity=0 time=0.15133333333333332@note_on channel=0 note=80 velocity=49 time=0.008666666666666666@note_on channel=0 note=71 velocity=0 time=0.13533333333333333@note_on channel=0 note=80 velocity=0 time=0.016@note_on channel=0 note=71 velocity=49 time=0.008666666666666666@note_on channel=0 note=76 velocity=49 time=0.16@note_on channel=0 note=76 velocity=0 time=0.15133333333333332@note_on channel=0 note=80 velocity=49 time=0.008666666666666666@note_on channel=0 note=71 velocity=0 time=0.13533333333333333@note_on channel=0 note=80 velocity=0 time=0.016@note_on channel=0 note=69 velocity=49 time=0.008666666666666666@note_on channel=0 note=74 velocity=49 time=0.16@note_on channel=0 note=74 velocity=0 time=0.15133333333333332@note_on channel=0 note=78 velocity=49 time=0.008666666666666666@note_on channel=0 note=69 velocity=0 time=0.13533333333333333@note_on channel=0 note=78 velocity=0 time=0.016@note_on channel=0 note=69 velocity=49 time=0.008666666666666666@note_on channel=0 note=74 velocity=49 time=0.16@note_on channel=0 note=74 velocity=0 time=0.15133333333333332@note_on channel=0 note=78 velocity=49 time=0.008666666666666666@note_on channel=0 note=69 velocity=0 time=0.13533333333333333@note_on channel=0 note=78 velocity=0 time=0.016@note_on channel=0 note=71 velocity=49 time=0.008666666666666666@note_on channel=0 note=76 velocity=49 time=0.16@note_on channel=0 note=76 velocity=0 time=0.15133333333333332@note_on channel=0 note=80 velocity=49 time=0.008666666666666666@note_on channel=0 note=71 velocity=0 time=0.13533333333333333@note_on channel=0 note=80 velocity=0 time=0.016@note_on channel=0 note=71 velocity=49 time=0.008666666666666666@note_on channel=0 note=76 velocity=49 time=0.16@note_on channel=0 note=76 velocity=0 time=0.15133333333333332@note_on channel=0 note=80 velocity=49 time=0.008666666666666666@note_on channel=0 note=71 velocity=0 time=0.13533333333333333@note_on channel=0 note=80 velocity=0 time=0.016@<meta message time_signature numerator=12 denominator=8 clocks_per_click=24 notated_32nd_notes_per_beat=8 time=0.008666666666666666>@<meta message key_signature key='E' time=0>@<meta message set_tempo tempo=320000 time=0>@<meta message key_signature key='E' time=0>@note_on channel=0 note=73 velocity=49 time=0@note_on channel=0 note=76 velocity=49 time=0.16@note_on channel=0 note=76 velocity=0 time=0.15133333333333332@note_on channel=0 note=80 velocity=49 time=0.008666666666666666@note_on channel=0 note=73 velocity=0 time=0.13533333333333333@note_on channel=0 note=80 velocity=0 time=0.016@note_on channel=0 note=71 velocity=49 time=0.008666666666666666@note_on channel=0 note=76 velocity=49 time=0.16@note_on channel=0 note=76 velocity=0 time=0.15133333333333332@note_on channel=0 note=80 velocity=49 time=0.008666666666666666@note_on channel=0 note=71 velocity=0 time=0.13533333333333333@note_on channel=0 note=80 velocity=0 time=0.016@note_on channel=0 note=69 velocity=49 time=0.008666666666666666@note_on channel=0 note=73 velocity=49 time=0.16@note_on channel=0 note=73 velocity=0 time=0.15133333333333332@note_on channel=0 note=80 velocity=49 time=0.008666666666666666@note_on channel=0 note=69 velocity=0 time=0.13533333333333333@note_on channel=0 note=80 velocity=0 time=0.016@note_on channel=0 note=68 velocity=49 time=0.008666666666666666@note_on channel=0 note=76 velocity=49 time=0.16@note_on channel=0 note=76 velocity=0 time=0.15133333333333332@note_on channel=0 note=80 velocity=49 time=0.008666666666666666@note_on channel=0 note=68 velocity=0 time=0.13533333333333333@note_on channel=0 note=80 velocity=0 time=0.016@note_on channel=0 note=66 velocity=49 time=0.008666666666666666@note_on channel=0 note=69 velocity=49 time=0.16@note_on channel=0 note=69 velocity=0 time=0.15133333333333332@note_on channel=0 note=78 velocity=49 time=0.008666666666666666@note_on channel=0 note=66 velocity=0 time=0.13533333333333333@note_on channel=0 note=78 velocity=0 time=0.016@note_on channel=0 note=66 velocity=49 time=0.008666666666666666@note_on channel=0 note=73 velocity=49 time=0.16@note_on channel=0 note=73 velocity=0 time=0.15133333333333332@note_on channel=0 note=76 velocity=49 time=0.008666666666666666@note_on channel=0 note=66 velocity=0 time=0.13533333333333333@note_on channel=0 note=76 velocity=0 time=0.016@note_on channel=0 note=68 velocity=49 time=0.008666666666666666@note_on channel=0 note=72 velocity=49 time=0.16@note_on channel=0 note=72 velocity=0 time=0.15133333333333332@note_on channel=0 note=75 velocity=49 time=0.008666666666666666@note_on channel=0 note=68 velocity=0 time=0.13533333333333333@note_on channel=0 note=75 velocity=0 time=0.016@note_on channel=0 note=68 velocity=49 time=0.008666666666666666@note_on channel=0 note=72 velocity=49 time=0.16@note_on channel=0 note=72 velocity=0 time=0.15133333333333332@note_on channel=0 note=80 velocity=49 time=0.008666666666666666@note_on channel=0 note=68 velocity=0 time=0.13533333333333333@note_on channel=0 note=80 velocity=0 time=0.016@note_on channel=0 note=73 velocity=49 time=0.008666666666666666@note_on channel=0 note=76 velocity=49 time=0.16@note_on channel=0 note=76 velocity=0 time=0.15133333333333332@note_on channel=0 note=80 velocity=49 time=0.008666666666666666@note_on channel=0 note=73 velocity=0 time=0.13533333333333333@note_on channel=0 note=80 velocity=0 time=0.016@note_on channel=0 note=71 velocity=49 time=0.008666666666666666@note_on channel=0 note=76 velocity=49 time=0.16@note_on channel=0 note=76 velocity=0 time=0.15133333333333332@note_on channel=0 note=80 velocity=49 time=0.008666666666666666@note_on channel=0 note=71 velocity=0 time=0.13533333333333333@note_on channel=0 note=80 velocity=0 time=0.016@note_on channel=0 note=69 velocity=49 time=0.008666666666666666@note_on channel=0 note=73 velocity=49 time=0.16@note_on channel=0 note=73 velocity=0 time=0.15133333333333332@note_on channel=0 note=80 velocity=49 time=0.008666666666666666@note_on channel=0 note=69 velocity=0 time=0.13533333333333333@note_on channel=0 note=80 velocity=0 time=0.016@note_on channel=0 note=68 velocity=49 time=0.008666666666666666@note_on channel=0 note=76 velocity=49 time=0.16@note_on channel=0 note=76 velocity=0 time=0.15133333333333332@note_on channel=0 note=80 velocity=49 time=0.008666666666666666@note_on channel=0 note=68 velocity=0 time=0.13533333333333333@note_on channel=0 note=80 velocity=0 time=0.016@note_on channel=0 note=66 velocity=49 time=0.008666666666666666@note_on channel=0 note=69 velocity=49 time=0.16@note_on channel=0 note=69 velocity=0 time=0.15133333333333332@note_on channel=0 note=78 velocity=49 time=0.008666666666666666@note_on channel=0 note=66 velocity=0 time=0.13533333333333333@note_on channel=0 note=78 velocity=0 time=0.016@note_on channel=0 note=66 velocity=49 time=0.008666666666666666@note_on channel=0 note=73 velocity=49 time=0.16@note_on channel=0 note=73 velocity=0 time=0.15133333333333332@note_on channel=0 note=76 velocity=49 time=0.008666666666666666@note_on channel=0 note=66 velocity=0 time=0.13533333333333333@note_on channel=0 note=76 velocity=0 time=0.016@note_on channel=0 note=68 velocity=49 time=0.008666666666666666@note_on channel=0 note=72 velocity=49 time=0.16@note_on channel=0 note=72 velocity=0 time=0.15133333333333332@note_on channel=0 note=75 velocity=49 time=0.008666666666666666@note_on channel=0 note=68 velocity=0 time=0.13533333333333333@note_on channel=0 note=75 velocity=0 time=0.016@note_on channel=0 note=68 velocity=49 time=0.008666666666666666@note_on channel=0 note=72 velocity=49 time=0.16@note_on channel=0 note=72 velocity=0 time=0.15133333333333332@note_on channel=0 note=80 velocity=49 time=0.008666666666666666@note_on channel=0 note=68 velocity=0 time=0.13533333333333333@note_on channel=0 note=80 velocity=0 time=0.016@note_on channel=0 note=83 velocity=49 time=0.008666666666666666@note_on channel=0 note=69 velocity=49 time=0@note_on channel=0 note=76 velocity=49 time=0.16@note_on channel=0 note=83 velocity=0 time=0.14333333333333334@note_on channel=0 note=76 velocity=0 time=0.008@note_on channel=0 note=80 velocity=49 time=0.008666666666666666@note_on channel=0 note=76 velocity=49 time=0@note_on channel=0 note=69 velocity=0 time=0.13533333333333333@note_on channel=0 note=76 velocity=0 time=0.016@note_on channel=0 note=76 velocity=49 time=0.008666666666666666@note_on channel=0 note=69 velocity=49 time=0@note_on channel=0 note=80 velocity=0 time=0.14333333333333334@note_on channel=0 note=76 velocity=0 time=0.008@note_on channel=0 note=81 velocity=49 time=0.008666666666666666@note_on channel=0 note=76 velocity=49 time=0@note_on channel=0 note=76 velocity=0 time=0.15133333333333332@note_on channel=0 note=76 velocity=49 time=0.008666666666666666@note_on channel=0 note=69 velocity=0 time=0.13533333333333333@note_on channel=0 note=81 velocity=0 time=0.008@note_on channel=0 note=76 velocity=0 time=0.008@note_on channel=0 note=80 velocity=49 time=0.008666666666666666@note_on channel=0 note=63 velocity=49 time=0@note_on channel=0 note=76 velocity=49 time=0.16@note_on channel=0 note=80 velocity=0 time=0.14333333333333334@note_on channel=0 note=76 velocity=0 time=0.008@note_on channel=0 note=75 velocity=49 time=0.008666666666666666@note_on channel=0 note=75 velocity=49 time=0@note_on channel=0 note=63 velocity=0 time=0.13533333333333333@note_on channel=0 note=75 velocity=0 time=0.016@note_on channel=0 note=63 velocity=49 time=0.008666666666666666@note_on channel=0 note=75 velocity=0 time=0.14333333333333334@note_on channel=0 note=76 velocity=49 time=0.016666666666666666@note_on channel=0 note=63 velocity=49 time=0@note_on channel=0 note=76 velocity=0 time=0.15133333333333332@note_on channel=0 note=63 velocity=0 time=0@note_on channel=0 note=78 velocity=49 time=0.008666666666666666@note_on channel=0 note=63 velocity=49 time=0@note_on channel=0 note=63 velocity=0 time=0.13533333333333333@note_on channel=0 note=78 velocity=0 time=0.016@note_on channel=0 note=63 velocity=0 time=0@note_on channel=0 note=80 velocity=49 time=0.008666666666666666@note_on channel=0 note=61 velocity=49 time=0@note_on channel=0 note=68 velocity=49 time=0.16@note_on channel=0 note=80 velocity=0 time=0.14333333333333334@note_on channel=0 note=68 velocity=0 time=0.008@note_on channel=0 note=78 velocity=49 time=0.008666666666666666@note_on channel=0 note=68 velocity=49 time=0@note_on channel=0 note=61 velocity=0 time=0.13533333333333333@note_on channel=0 note=68 velocity=0 time=0.016@note_on channel=0 note=61 velocity=49 time=0.008666666666666666@note_on channel=0 note=78 velocity=0 time=0.14333333333333334@note_on channel=0 note=76 velocity=49 time=0.016666666666666666@note_on channel=0 note=68 velocity=49 time=0@note_on channel=0 note=76 velocity=0 time=0.15133333333333332@note_on channel=0 note=68 velocity=0 time=0@note_on channel=0 note=75 velocity=49 time=0.008666666666666666@note_on channel=0 note=68 velocity=49 time=0@note_on channel=0 note=61 velocity=0 time=0.13533333333333333@note_on channel=0 note=75 velocity=0 time=0.016@note_on channel=0 note=68 velocity=0 time=0@note_on channel=0 note=73 velocity=49 time=0.008666666666666666@note_on channel=0 note=57 velocity=49 time=0@note_on channel=0 note=64 velocity=49 time=0.16@note_on channel=0 note=73 velocity=0 time=0.14333333333333334@note_on channel=0 note=64 velocity=0 time=0.008@note_on channel=0 note=69 velocity=49 time=0.008666666666666666@note_on channel=0 note=69 velocity=49 time=0@note_on channel=0 note=57 velocity=0 time=0.13533333333333333@note_on channel=0 note=69 velocity=0 time=0.016@note_on channel=0 note=57 velocity=49 time=0.008666666666666666@note_on channel=0 note=69 velocity=0 time=0.14333333333333334@note_on channel=0 note=75 velocity=49 time=0.016666666666666666@note_on channel=0 note=64 velocity=49 time=0@note_on channel=0 note=75 velocity=0 time=0.15133333333333332@note_on channel=0 note=64 velocity=0 time=0@note_on channel=0 note=76 velocity=49 time=0.008666666666666666@note_on channel=0 note=69 velocity=49 time=0@note_on channel=0 note=57 velocity=0 time=0.13533333333333333@note_on channel=0 note=76 velocity=0 time=0.016@note_on channel=0 note=69 velocity=0 time=0@note_on channel=0 note=76 velocity=49 time=0.008666666666666666@note_on channel=0 note=54 velocity=49 time=0@note_on channel=0 note=61 velocity=49 time=0.16@note_on channel=0 note=61 velocity=0 time=0.15133333333333332@note_on channel=0 note=64 velocity=49 time=0.008666666666666666@note_on channel=0 note=54 velocity=0 time=0.13533333333333333@note_on channel=0 note=64 velocity=0 time=0.016@note_on channel=0 note=68 velocity=49 time=0.008666666666666666@note_on channel=0 note=76 velocity=0 time=0.12733333333333333@note_on channel=0 note=75 velocity=49 time=0.03266666666666666@note_on channel=0 note=64 velocity=49 time=0@note_on channel=0 note=75 velocity=0 time=0.15133333333333332@note_on channel=0 note=64 velocity=0 time=0@note_on channel=0 note=76 velocity=49 time=0.008666666666666666@note_on channel=0 note=61 velocity=49 time=0@note_on channel=0 note=68 velocity=0 time=0.13533333333333333@note_on channel=0 note=76 velocity=0 time=0.016@note_on channel=0 note=61 velocity=0 time=0@note_on channel=0 note=75 velocity=49 time=0.008666666666666666@note_on channel=0 note=56 velocity=49 time=0@note_on channel=0 note=60 velocity=49 time=0.16@note_on channel=0 note=75 velocity=0 time=0.14333333333333334@note_on channel=0 note=60 velocity=0 time=0.008@note_on channel=0 note=73 velocity=49 time=0.008666666666666666@note_on channel=0 note=63 velocity=49 time=0@note_on channel=0 note=56 velocity=0 time=0.13533333333333333@note_on channel=0 note=63 velocity=0 time=0.016@note_on channel=0 note=68 velocity=49 time=0.008666666666666666@note_on channel=0 note=73 velocity=0 time=0.14333333333333334@note_on channel=0 note=72 velocity=49 time=0.016666666666666666@note_on channel=0 note=63 velocity=49 time=0@note_on channel=0 note=63 velocity=0 time=0.15133333333333332@note_on channel=0 note=60 velocity=49 time=0.008666666666666666@note_on channel=0 note=68 velocity=0 time=0.13533333333333333@note_on channel=0 note=72 velocity=0 time=0.008@note_on channel=0 note=60 velocity=0 time=0.008@note_on channel=0 note=73 velocity=49 time=0.008666666666666666@note_on channel=0 note=49 velocity=49 time=0@note_on channel=0 note=64 velocity=49 time=0.16@note_on channel=0 note=64 velocity=0 time=0.15133333333333332@note_on channel=0 note=68 velocity=49 time=0.008666666666666666@note_on channel=0 note=73 velocity=0 time=0.13533333333333333@note_on channel=0 note=49 velocity=0 time=0@note_on channel=0 note=68 velocity=0 time=0.016@note_on channel=0 note=73 velocity=49 time=0.008666666666666666@note_on channel=0 note=73 velocity=49 time=0@note_on channel=0 note=68 velocity=49 time=0.16@note_on channel=0 note=68 velocity=0 time=0.15133333333333332@note_on channel=0 note=61 velocity=49 time=0.008666666666666666@note_on channel=0 note=73 velocity=0 time=0.13533333333333333@note_on channel=0 note=73 velocity=0 time=0@note_on channel=0 note=61 velocity=0 time=0.016@note_on channel=0 note=75 velocity=49 time=0.008666666666666666@note_on channel=0 note=61 velocity=49 time=0@note_on channel=0 note=64 velocity=49 time=0.16@note_on channel=0 note=64 velocity=0 time=0.15133333333333332@note_on channel=0 note=61 velocity=49 time=0.008666666666666666@note_on channel=0 note=75 velocity=0 time=0.13533333333333333@note_on channel=0 note=61 velocity=0 time=0@note_on channel=0 note=61 velocity=0 time=0.016@note_on channel=0 note=76 velocity=49 time=0.008666666666666666@note_on channel=0 note=61 velocity=49 time=0@note_on channel=0 note=64 velocity=49 time=0.16@note_on channel=0 note=64 velocity=0 time=0.15133333333333332@note_on channel=0 note=61 velocity=49 time=0.008666666666666666@note_on channel=0 note=76 velocity=0 time=0.13533333333333333@note_on channel=0 note=61 velocity=0 time=0@note_on channel=0 note=61 velocity=0 time=0.016@note_on channel=0 note=76 velocity=49 time=0.008666666666666666@note_on channel=0 note=56 velocity=49 time=0@note_on channel=0 note=61 velocity=49 time=0.16@note_on channel=0 note=61 velocity=0 time=0.15133333333333332@note_on channel=0 note=64 velocity=49 time=0.008666666666666666@note_on channel=0 note=56 velocity=0 time=0.13533333333333333@note_on channel=0 note=64 velocity=0 time=0.016@note_on channel=0 note=56 velocity=49 time=0.008666666666666666@note_on channel=0 note=61 velocity=49 time=0.16@note_on channel=0 note=61 velocity=0 time=0.15133333333333332@note_on channel=0 note=64 velocity=49 time=0.008666666666666666@note_on channel=0 note=76 velocity=0 time=0.11133333333333333@note_on channel=0 note=56 velocity=0 time=0.024@note_on channel=0 note=64 velocity=0 time=0.016@note_on channel=0 note=78 velocity=49 time=0.008666666666666666@note_on channel=0 note=56 velocity=49 time=0@note_on channel=0 note=61 velocity=49 time=0.16@note_on channel=0 note=61 velocity=0 time=0.15133333333333332@note_on channel=0 note=64 velocity=49 time=0.008666666666666666@note_on channel=0 note=78 velocity=0 time=0.13533333333333333@note_on channel=0 note=56 velocity=0 time=0@note_on channel=0 note=64 velocity=0 time=0.016@note_on channel=0 note=80 velocity=49 time=0.008666666666666666@note_on channel=0 note=56 velocity=49 time=0@note_on channel=0 note=61 velocity=49 time=0.16@note_on channel=0 note=61 velocity=0 time=0.15133333333333332@note_on channel=0 note=64 velocity=49 time=0.008666666666666666@note_on channel=0 note=80 velocity=0 time=0.13533333333333333@note_on channel=0 note=56 velocity=0 time=0@note_on channel=0 note=64 velocity=0 time=0.016@note_on channel=0 note=73 velocity=49 time=0.008666666666666666@note_on channel=0 note=54 velocity=49 time=0@note_on channel=0 note=57 velocity=49 time=0.16@note_on channel=0 note=57 velocity=0 time=0.15133333333333332@note_on channel=0 note=61 velocity=49 time=0.008666666666666666@note_on channel=0 note=54 velocity=0 time=0.13533333333333333@note_on channel=0 note=61 velocity=0 time=0.016@note_on channel=0 note=54 velocity=49 time=0.008666666666666666@note_on channel=0 note=57 velocity=49 time=0.16@note_on channel=0 note=57 velocity=0 time=0.15133333333333332@note_on channel=0 note=61 velocity=49 time=0.008666666666666666@note_on channel=0 note=73 velocity=0 time=0.11133333333333333@note_on channel=0 note=54 velocity=0 time=0.024@note_on channel=0 note=61 velocity=0 time=0.016@note_on channel=0 note=78 velocity=49 time=0.008666666666666666@note_on channel=0 note=54 velocity=49 time=0@note_on channel=0 note=78 velocity=0 time=0.15133333333333332@note_on channel=0 note=76 velocity=49 time=0.008666666666666666@note_on channel=0 note=57 velocity=49 time=0@note_on channel=0 note=76 velocity=0 time=0.15133333333333332@note_on channel=0 note=57 velocity=0 time=0@note_on channel=0 note=75 velocity=49 time=0.008666666666666666@note_on channel=0 note=63 velocity=49 time=0@note_on channel=0 note=54 velocity=0 time=0.13533333333333333@note_on channel=0 note=75 velocity=0 time=0.016@note_on channel=0 note=63 velocity=0 time=0@note_on channel=0 note=73 velocity=49 time=0.008666666666666666@note_on channel=0 note=54 velocity=49 time=0@note_on channel=0 note=57 velocity=49 time=0.16@note_on channel=0 note=73 velocity=0 time=0.14333333333333334@note_on channel=0 note=57 velocity=0 time=0.008@note_on channel=0 note=75 velocity=49 time=0.008666666666666666@note_on channel=0 note=63 velocity=49 time=0@note_on channel=0 note=54 velocity=0 time=0.13533333333333333@note_on channel=0 note=75 velocity=0 time=0.016@note_on channel=0 note=63 velocity=0 time=0@note_on channel=0 note=71 velocity=49 time=0.008666666666666666@note_on channel=0 note=52 velocity=49 time=0@note_on channel=0 note=56 velocity=49 time=0.16@note_on channel=0 note=71 velocity=0 time=0.14333333333333334@note_on channel=0 note=56 velocity=0 time=0.008@note_on channel=0 note=68 velocity=49 time=0.008666666666666666@note_on channel=0 note=63 velocity=49 time=0@note_on channel=0 note=52 velocity=0 time=0.13533333333333333@note_on channel=0 note=63 velocity=0 time=0.016@note_on channel=0 note=52 velocity=49 time=0.008666666666666666@note_on channel=0 note=56 velocity=49 time=0.16@note_on channel=0 note=56 velocity=0 time=0.15133333333333332@note_on channel=0 note=63 velocity=49 time=0.008666666666666666@note_on channel=0 note=52 velocity=0 time=0.13533333333333333@note_on channel=0 note=63 velocity=0 time=0.016@note_on channel=0 note=52 velocity=49 time=0.008666666666666666@note_on channel=0 note=56 velocity=49 time=0.16@note_on channel=0 note=56 velocity=0 time=0.15133333333333332@note_on channel=0 note=63 velocity=49 time=0.008666666666666666@note_on channel=0 note=68 velocity=0 time=0.10333333333333333@note_on channel=0 note=52 velocity=0 time=0.032@note_on channel=0 note=63 velocity=0 time=0.016@note_on channel=0 note=52 velocity=49 time=0.008666666666666666@note_on channel=0 note=59 velocity=49 time=0.16@note_on channel=0 note=59 velocity=0 time=0.15133333333333332@note_on channel=0 note=63 velocity=49 time=0.008666666666666666@note_on channel=0 note=52 velocity=0 time=0.13533333333333333@note_on channel=0 note=63 velocity=0 time=0.016@note_on channel=0 note=51 velocity=49 time=0.008666666666666666@note_on channel=0 note=56 velocity=49 time=0.16@note_on channel=0 note=56 velocity=0 time=0.15133333333333332@note_on channel=0 note=61 velocity=49 time=0.008666666666666666@note_on channel=0 note=51 velocity=0 time=0.13533333333333333@note_on channel=0 note=61 velocity=0 time=0.016@note_on channel=0 note=51 velocity=49 time=0.008666666666666666@note_on channel=0 note=56 velocity=49 time=0.16@note_on channel=0 note=56 velocity=0 time=0.15133333333333332@note_on channel=0 note=61 velocity=49 time=0.008666666666666666@note_on channel=0 note=51 velocity=0 time=0.13533333333333333@note_on channel=0 note=61 velocity=0 time=0.016@note_on channel=0 note=51 velocity=49 time=0.008666666666666666@note_on channel=0 note=56 velocity=49 time=0.16@note_on channel=0 note=56 velocity=0 time=0.15133333333333332@note_on channel=0 note=60 velocity=49 time=0.008666666666666666@note_on channel=0 note=51 velocity=0 time=0.13533333333333333@note_on channel=0 note=60 velocity=0 time=0.016@note_on channel=0 note=51 velocity=49 time=0.008666666666666666@note_on channel=0 note=56 velocity=49 time=0.16@note_on channel=0 note=56 velocity=0 time=0.15133333333333332@note_on channel=0 note=63 velocity=49 time=0.008666666666666666@note_on channel=0 note=63 velocity=0 time=0.15133333333333332@<meta message time_signature numerator=1 denominator=8 clocks_per_click=24 notated_32nd_notes_per_beat=8 time=0.008666666666666666>@note_on channel=0 note=78 velocity=49 time=0@note_on channel=0 note=78 velocity=0 time=0.03733333333333333@note_on channel=0 note=80 velocity=49 time=0.0026666666666666666@note_on channel=0 note=80 velocity=0 time=0.03733333333333333@note_on channel=0 note=81 velocity=49 time=0.0026666666666666666@note_on channel=0 note=81 velocity=0 time=0.03733333333333333@note_on channel=0 note=83 velocity=49 time=0.0026666666666666666@note_on channel=0 note=51 velocity=0 time=0.007333333333333333@note_on channel=0 note=83 velocity=0 time=0.03@<meta message time_signature numerator=12 denominator=8 clocks_per_click=24 notated_32nd_notes_per_beat=8 time=0.0026666666666666666>@note_on channel=0 note=85 velocity=49 time=0@note_on channel=0 note=63 velocity=49 time=0@note_on channel=0 note=85 velocity=0 time=0.03733333333333333@note_on channel=0 note=83 velocity=49 time=0.0026666666666666666@note_on channel=0 note=83 velocity=0 time=0.03733333333333333@note_on channel=0 note=81 velocity=49 time=0.0026666666666666666@note_on channel=0 note=81 velocity=0 time=0.03733333333333333@note_on channel=0 note=80 velocity=49 time=0.0026666666666666666@note_on channel=0 note=80 velocity=0 time=0.03733333333333333@note_on channel=0 note=78 velocity=49 time=0.0026666666666666666@note_on channel=0 note=61 velocity=49 time=0@note_on channel=0 note=78 velocity=0 time=0.07533333333333334@note_on channel=0 note=73 velocity=49 time=0.004666666666666666@note_on channel=0 note=61 velocity=0 time=0.07133333333333333@note_on channel=0 note=73 velocity=0 time=0.004@note_on channel=0 note=78 velocity=49 time=0.004666666666666666@note_on channel=0 note=63 velocity=49 time=0@note_on channel=0 note=63 velocity=0 time=0.13533333333333333@note_on channel=0 note=63 velocity=0 time=0.016@note_on channel=0 note=63 velocity=49 time=0.008666666666666666@note_on channel=0 note=54 velocity=49 time=0@note_on channel=0 note=63 velocity=0 time=0.15133333333333332@note_on channel=0 note=61 velocity=49 time=0.008666666666666666@note_on channel=0 note=78 velocity=0 time=0.05933333333333333@note_on channel=0 note=80 velocity=49 time=0.020666666666666667@note_on channel=0 note=61 velocity=0 time=0.07133333333333333@note_on channel=0 note=80 velocity=0 time=0.004@note_on channel=0 note=81 velocity=49 time=0.004666666666666666@note_on channel=0 note=61 velocity=49 time=0@note_on channel=0 note=81 velocity=0 time=0.07533333333333334@note_on channel=0 note=83 velocity=49 time=0.004666666666666666@note_on channel=0 note=54 velocity=0 time=0.05533333333333333@note_on channel=0 note=61 velocity=0 time=0.016@note_on channel=0 note=83 velocity=0 time=0.004@note_on channel=0 note=85 velocity=49 time=0.004666666666666666@note_on channel=0 note=61 velocity=49 time=0@note_on channel=0 note=61 velocity=49 time=0.16@note_on channel=0 note=85 velocity=0 time=0.14333333333333334@note_on channel=0 note=61 velocity=0 time=0.008@note_on channel=0 note=81 velocity=49 time=0.008666666666666666@note_on channel=0 note=64 velocity=49 time=0@note_on channel=0 note=61 velocity=0 time=0.13533333333333333@note_on channel=0 note=81 velocity=0 time=0.016@note_on channel=0 note=64 velocity=0 time=0@note_on channel=0 note=78 velocity=49 time=0.008666666666666666@note_on channel=0 note=64 velocity=49 time=0@note_on channel=0 note=54 velocity=49 time=0@note_on channel=0 note=64 velocity=0 time=0.15133333333333332@note_on channel=0 note=61 velocity=49 time=0.008666666666666666@note_on channel=0 note=78 velocity=0 time=0.14333333333333334@note_on channel=0 note=61 velocity=0 time=0.008@note_on channel=0 note=73 velocity=49 time=0.008666666666666666@note_on channel=0 note=64 velocity=49 time=0@note_on channel=0 note=54 velocity=0 time=0.13533333333333333@note_on channel=0 note=64 velocity=0 time=0.016@note_on channel=0 note=57 velocity=49 time=0.008666666666666666@note_on channel=0 note=64 velocity=49 time=0.16@note_on channel=0 note=64 velocity=0 time=0.15133333333333332@note_on channel=0 note=69 velocity=49 time=0.008666666666666666@note_on channel=0 note=57 velocity=0 time=0.13533333333333333@note_on channel=0 note=69 velocity=0 time=0.016@note_on channel=0 note=57 velocity=49 time=0.008666666666666666@note_on channel=0 note=64 velocity=49 time=0.16@note_on channel=0 note=64 velocity=0 time=0.15133333333333332@note_on channel=0 note=69 velocity=49 time=0.008666666666666666@note_on channel=0 note=73 velocity=0 time=0.10333333333333333@note_on channel=0 note=57 velocity=0 time=0.032@note_on channel=0 note=69 velocity=0 time=0.016@note_on channel=0 note=57 velocity=49 time=0.008666666666666666@note_on channel=0 note=64 velocity=49 time=0.16@note_on channel=0 note=64 velocity=0 time=0.15133333333333332@note_on channel=0 note=69 velocity=49 time=0.008666666666666666@note_on channel=0 note=57 velocity=0 time=0.13533333333333333@note_on channel=0 note=69 velocity=0 time=0.016@note_on channel=0 note=57 velocity=49 time=0.008666666666666666@note_on channel=0 note=64 velocity=49 time=0.16@note_on channel=0 note=64 velocity=0 time=0.15133333333333332@note_on channel=0 note=69 velocity=49 time=0.008666666666666666@note_on channel=0 note=57 velocity=0 time=0.13533333333333333@note_on channel=0 note=69 velocity=0 time=0.016@note_on channel=0 note=75 velocity=49 time=0.008666666666666666@note_on channel=0 note=59 velocity=49 time=0@note_on channel=0 note=66 velocity=49 time=0.16@note_on channel=0 note=66 velocity=0 time=0.15133333333333332@note_on channel=0 note=71 velocity=49 time=0.008666666666666666@note_on channel=0 note=75 velocity=0 time=0.13533333333333333@note_on channel=0 note=59 velocity=0 time=0@note_on channel=0 note=71 velocity=0 time=0.016@note_on channel=0 note=76 velocity=49 time=0.008666666666666666@note_on channel=0 note=59 velocity=49 time=0@note_on channel=0 note=76 velocity=0 time=0.15133333333333332@note_on channel=0 note=78 velocity=49 time=0.008666666666666666@note_on channel=0 note=66 velocity=49 time=0@note_on channel=0 note=78 velocity=0 time=0.15133333333333332@note_on channel=0 note=66 velocity=0 time=0@note_on channel=0 note=73 velocity=49 time=0.008666666666666666@note_on channel=0 note=71 velocity=49 time=0@note_on channel=0 note=59 velocity=0 time=0.13533333333333333@note_on channel=0 note=73 velocity=0 time=0.016@note_on channel=0 note=71 velocity=0 time=0@note_on channel=0 note=75 velocity=49 time=0.008666666666666666@note_on channel=0 note=59 velocity=49 time=0@note_on channel=0 note=66 velocity=49 time=0.16@note_on channel=0 note=75 velocity=0 time=0.14333333333333334@note_on channel=0 note=66 velocity=0 time=0.008@note_on channel=0 note=76 velocity=49 time=0.008666666666666666@note_on channel=0 note=71 velocity=49 time=0@note_on channel=0 note=59 velocity=0 time=0.13533333333333333@note_on channel=0 note=71 velocity=0 time=0.016@note_on channel=0 note=59 velocity=49 time=0.008666666666666666@note_on channel=0 note=76 velocity=0 time=0.14333333333333334@note_on channel=0 note=78 velocity=49 time=0.016666666666666666@note_on channel=0 note=66 velocity=49 time=0@note_on channel=0 note=66 velocity=0 time=0.15133333333333332@note_on channel=0 note=71 velocity=49 time=0.008666666666666666@note_on channel=0 note=59 velocity=0 time=0.13533333333333333@note_on channel=0 note=78 velocity=0 time=0.008@note_on channel=0 note=71 velocity=0 time=0.008@note_on channel=0 note=80 velocity=49 time=0.008666666666666666@note_on channel=0 note=52 velocity=49 time=0@note_on channel=0 note=59 velocity=49 time=0.16@note_on channel=0 note=59 velocity=0 time=0.15133333333333332@note_on channel=0 note=64 velocity=49 time=0.008666666666666666@note_on channel=0 note=80 velocity=0 time=0.13533333333333333@note_on channel=0 note=52 velocity=0 time=0@note_on channel=0 note=64 velocity=0 time=0.016@note_on channel=0 note=78 velocity=49 time=0.008666666666666666@note_on channel=0 note=52 velocity=49 time=0@note_on channel=0 note=59 velocity=49 time=0.16@note_on channel=0 note=59 velocity=0 time=0.15133333333333332@note_on channel=0 note=63 velocity=49 time=0.008666666666666666@note_on channel=0 note=78 velocity=0 time=0.13533333333333333@note_on channel=0 note=52 velocity=0 time=0@note_on channel=0 note=63 velocity=0 time=0.016@note_on channel=0 note=76 velocity=49 time=0.008666666666666666@note_on channel=0 note=52 velocity=49 time=0@note_on channel=0 note=59 velocity=49 time=0.16@note_on channel=0 note=59 velocity=0 time=0.15133333333333332@note_on channel=0 note=66 velocity=49 time=0.008666666666666666@note_on channel=0 note=76 velocity=0 time=0.13533333333333333@note_on channel=0 note=52 velocity=0 time=0@note_on channel=0 note=66 velocity=0 time=0.016@note_on channel=0 note=83 velocity=49 time=0.008666666666666666@note_on channel=0 note=52 velocity=49 time=0@note_on channel=0 note=59 velocity=49 time=0.16@note_on channel=0 note=59 velocity=0 time=0.15133333333333332@note_on channel=0 note=68 velocity=49 time=0.008666666666666666@note_on channel=0 note=83 velocity=0 time=0.13533333333333333@note_on channel=0 note=52 velocity=0 time=0@note_on channel=0 note=68 velocity=0 time=0.016@note_on channel=0 note=80 velocity=49 time=0.008666666666666666@note_on channel=0 note=57 velocity=49 time=0@note_on channel=0 note=64 velocity=49 time=0.16@note_on channel=0 note=80 velocity=0 time=0.14333333333333334@note_on channel=0 note=64 velocity=0 time=0.008@note_on channel=0 note=78 velocity=49 time=0.008666666666666666@note_on channel=0 note=69 velocity=49 time=0@note_on channel=0 note=57 velocity=0 time=0.13533333333333333@note_on channel=0 note=69 velocity=0 time=0.016@note_on channel=0 note=57 velocity=49 time=0.008666666666666666@note_on channel=0 note=78 velocity=0 time=0.14333333333333334@note_on channel=0 note=76 velocity=49 time=0.016666666666666666@note_on channel=0 note=64 velocity=49 time=0@note_on channel=0 note=76 velocity=0 time=0.15133333333333332@note_on channel=0 note=64 velocity=0 time=0@note_on channel=0 note=75 velocity=49 time=0.008666666666666666@note_on channel=0 note=69 velocity=49 time=0@note_on channel=0 note=57 velocity=0 time=0.13533333333333333@note_on channel=0 note=75 velocity=0 time=0.016@note_on channel=0 note=69 velocity=0 time=0@note_on channel=0 note=73 velocity=49 time=0.008666666666666666@note_on channel=0 note=56 velocity=49 time=0@note_on channel=0 note=73 velocity=0 time=0.15133333333333332@note_on channel=0 note=71 velocity=49 time=0.008666666666666666@note_on channel=0 note=64 velocity=49 time=0@note_on channel=0 note=71 velocity=0 time=0.15133333333333332@note_on channel=0 note=64 velocity=0 time=0@note_on channel=0 note=68 velocity=49 time=0.008666666666666666@note_on channel=0 note=68 velocity=49 time=0@note_on channel=0 note=56 velocity=0 time=0.13533333333333333@note_on channel=0 note=68 velocity=0 time=0.016@note_on channel=0 note=68 velocity=0 time=0@note_on channel=0 note=75 velocity=49 time=0.008666666666666666@note_on channel=0 note=56 velocity=49 time=0@note_on channel=0 note=63 velocity=49 time=0.16@note_on channel=0 note=75 velocity=0 time=0.14333333333333334@note_on channel=0 note=63 velocity=0 time=0.008@note_on channel=0 note=76 velocity=49 time=0.008666666666666666@note_on channel=0 note=63 velocity=49 time=0@note_on channel=0 note=56 velocity=0 time=0.13533333333333333@note_on channel=0 note=76 velocity=0 time=0.016@note_on channel=0 note=63 velocity=0 time=0@note_on channel=0 note=69 velocity=49 time=0.008666666666666666@note_on channel=0 note=54 velocity=49 time=0@note_on channel=0 note=61 velocity=49 time=0.16@note_on channel=0 note=69 velocity=0 time=0.14333333333333334@note_on channel=0 note=61 velocity=0 time=0.008@note_on channel=0 note=66 velocity=49 time=0.008666666666666666@note_on channel=0 note=66 velocity=49 time=0@note_on channel=0 note=54 velocity=0 time=0.13533333333333333@note_on channel=0 note=66 velocity=0 time=0.016@note_on channel=0 note=54 velocity=49 time=0.008666666666666666@note_on channel=0 note=66 velocity=0 time=0.14333333333333334@note_on channel=0 note=73 velocity=49 time=0.016666666666666666@note_on channel=0 note=61 velocity=49 time=0@note_on channel=0 note=61 velocity=0 time=0.15133333333333332@note_on channel=0 note=66 velocity=49 time=0.008666666666666666@note_on channel=0 note=54 velocity=0 time=0.13533333333333333@note_on channel=0 note=73 velocity=0 time=0.008@note_on channel=0 note=66 velocity=0 time=0.008@note_on channel=0 note=71 velocity=49 time=0.008666666666666666@note_on channel=0 note=52 velocity=49 time=0@note_on channel=0 note=59 velocity=49 time=0.16@note_on channel=0 note=71 velocity=0 time=0.14333333333333334@note_on channel=0 note=59 velocity=0 time=0.008@note_on channel=0 note=68 velocity=49 time=0.008666666666666666@note_on channel=0 note=64 velocity=49 time=0@note_on channel=0 note=52 velocity=0 time=0.13533333333333333@note_on channel=0 note=64 velocity=0 time=0.016@note_on channel=0 note=52 velocity=49 time=0.008666666666666666@note_on channel=0 note=68 velocity=0 time=0.14333333333333334@note_on channel=0 note=68 velocity=49 time=0.016666666666666666@note_on channel=0 note=59 velocity=49 time=0@note_on channel=0 note=59 velocity=0 time=0.15133333333333332@note_on channel=0 note=64 velocity=49 time=0.008666666666666666@note_on channel=0 note=52 velocity=0 time=0.13533333333333333@note_on channel=0 note=68 velocity=0 time=0.008@note_on channel=0 note=64 velocity=0 time=0.008@<meta message key_signature key='A' time=0.008666666666666666>@note_on channel=0 note=69 velocity=49 time=0@<meta message key_signature key='A' time=0>@note_on channel=0 note=50 velocity=49 time=0@note_on channel=0 note=57 velocity=49 time=0.16@note_on channel=0 note=57 velocity=0 time=0.15133333333333332@note_on channel=0 note=62 velocity=49 time=0.008666666666666666@note_on channel=0 note=50 velocity=0 time=0.13533333333333333@note_on channel=0 note=62 velocity=0 time=0.016@note_on channel=0 note=50 velocity=49 time=0.008666666666666666@note_on channel=0 note=57 velocity=49 time=0.16@note_on channel=0 note=57 velocity=0 time=0.15133333333333332@note_on channel=0 note=62 velocity=49 time=0.008666666666666666@note_on channel=0 note=69 velocity=0 time=0.11133333333333333@note_on channel=0 note=50 velocity=0 time=0.024@note_on channel=0 note=62 velocity=0 time=0.016@note_on channel=0 note=68 velocity=49 time=0.008666666666666666@note_on channel=0 note=50 velocity=49 time=0@note_on channel=0 note=57 velocity=49 time=0.16@note_on channel=0 note=68 velocity=0 time=0.14333333333333334@note_on channel=0 note=57 velocity=0 time=0.008@note_on channel=0 note=66 velocity=49 time=0.008666666666666666@note_on channel=0 note=62 velocity=49 time=0@note_on channel=0 note=50 velocity=0 time=0.13533333333333333@note_on channel=0 note=62 velocity=0 time=0.016@note_on channel=0 note=50 velocity=49 time=0.008666666666666666@note_on channel=0 note=66 velocity=0 time=0.14333333333333334@note_on channel=0 note=68 velocity=49 time=0.016666666666666666@note_on channel=0 note=57 velocity=49 time=0@note_on channel=0 note=57 velocity=0 time=0.15133333333333332@note_on channel=0 note=62 velocity=49 time=0.008666666666666666@note_on channel=0 note=50 velocity=0 time=0.13533333333333333@note_on channel=0 note=68 velocity=0 time=0.008@note_on channel=0 note=62 velocity=0 time=0.008@note_on channel=0 note=68 velocity=49 time=0.008666666666666666@note_on channel=0 note=49 velocity=49 time=0@note_on channel=0 note=56 velocity=49 time=0.16@note_on channel=0 note=56 velocity=0 time=0.15133333333333332@note_on channel=0 note=61 velocity=49 time=0.008666666666666666@note_on channel=0 note=49 velocity=0 time=0.13533333333333333@note_on channel=0 note=61 velocity=0 time=0.016@note_on channel=0 note=49 velocity=49 time=0.008666666666666666@note_on channel=0 note=56 velocity=49 time=0.16@note_on channel=0 note=56 velocity=0 time=0.15133333333333332@note_on channel=0 note=61 velocity=49 time=0.008666666666666666@note_on channel=0 note=68 velocity=0 time=0.11133333333333333@note_on channel=0 note=49 velocity=0 time=0.024@note_on channel=0 note=61 velocity=0 time=0.016@note_on channel=0 note=65 velocity=49 time=0.008666666666666666@note_on channel=0 note=49 velocity=49 time=0@note_on channel=0 note=56 velocity=49 time=0.16@note_on channel=0 note=56 velocity=0 time=0.15133333333333332@note_on channel=0 note=61 velocity=49 time=0.008666666666666666@note_on channel=0 note=65 velocity=0 time=0.13533333333333333@note_on channel=0 note=49 velocity=0 time=0@note_on channel=0 note=61 velocity=0 time=0.016@note_on channel=0 note=68 velocity=49 time=0.008666666666666666@note_on channel=0 note=49 velocity=49 time=0@note_on channel=0 note=56 velocity=49 time=0.16@note_on channel=0 note=56 velocity=0 time=0.15133333333333332@note_on channel=0 note=61 velocity=49 time=0.008666666666666666@note_on channel=0 note=68 velocity=0 time=0.13533333333333333@note_on channel=0 note=49 velocity=0 time=0@note_on channel=0 note=61 velocity=0 time=0.016@note_on channel=0 note=81 velocity=49 time=0.008666666666666666@note_on channel=0 note=54 velocity=49 time=0@note_on channel=0 note=57 velocity=49 time=0.16@note_on channel=0 note=57 velocity=0 time=0.15133333333333332@note_on channel=0 note=61 velocity=49 time=0.008666666666666666@note_on channel=0 note=81 velocity=0 time=0.13533333333333333@note_on channel=0 note=54 velocity=0 time=0@note_on channel=0 note=61 velocity=0 time=0.016@note_on channel=0 note=80 velocity=49 time=0.008666666666666666@note_on channel=0 note=54 velocity=49 time=0@note_on channel=0 note=57 velocity=49 time=0.16@note_on channel=0 note=57 velocity=0 time=0.15133333333333332@note_on channel=0 note=61 velocity=49 time=0.008666666666666666@note_on channel=0 note=80 velocity=0 time=0.13533333333333333@note_on channel=0 note=54 velocity=0 time=0@note_on channel=0 note=61 velocity=0 time=0.016@note_on channel=0 note=78 velocity=49 time=0.008666666666666666@note_on channel=0 note=54 velocity=49 time=0@note_on channel=0 note=57 velocity=49 time=0.16@note_on channel=0 note=57 velocity=0 time=0.15133333333333332@note_on channel=0 note=61 velocity=49 time=0.008666666666666666@note_on channel=0 note=78 velocity=0 time=0.13533333333333333@note_on channel=0 note=54 velocity=0 time=0@note_on channel=0 note=61 velocity=0 time=0.016@note_on channel=0 note=73 velocity=49 time=0.008666666666666666@note_on channel=0 note=54 velocity=49 time=0@note_on channel=0 note=57 velocity=49 time=0.16@note_on channel=0 note=57 velocity=0 time=0.15133333333333332@note_on channel=0 note=61 velocity=49 time=0.008666666666666666@note_on channel=0 note=73 velocity=0 time=0.13533333333333333@note_on channel=0 note=54 velocity=0 time=0@note_on channel=0 note=61 velocity=0 time=0.016@note_on channel=0 note=76 velocity=49 time=0.008666666666666666@note_on channel=0 note=50 velocity=49 time=0@note_on channel=0 note=57 velocity=49 time=0.16@note_on channel=0 note=57 velocity=0 time=0.15133333333333332@note_on channel=0 note=62 velocity=49 time=0.008666666666666666@note_on channel=0 note=76 velocity=0 time=0.13533333333333333@note_on channel=0 note=50 velocity=0 time=0@note_on channel=0 note=62 velocity=0 time=0.016@note_on channel=0 note=74 velocity=49 time=0.008666666666666666@note_on channel=0 note=50 velocity=49 time=0@note_on channel=0 note=57 velocity=49 time=0.16@note_on channel=0 note=57 velocity=0 time=0.15133333333333332@note_on channel=0 note=62 velocity=49 time=0.008666666666666666@note_on channel=0 note=74 velocity=0 time=0.13533333333333333@note_on channel=0 note=50 velocity=0 time=0@note_on channel=0 note=62 velocity=0 time=0.016@note_on channel=0 note=73 velocity=49 time=0.008666666666666666@note_on channel=0 note=50 velocity=49 time=0@note_on channel=0 note=57 velocity=49 time=0.16@note_on channel=0 note=57 velocity=0 time=0.15133333333333332@note_on channel=0 note=62 velocity=49 time=0.008666666666666666@note_on channel=0 note=73 velocity=0 time=0.13533333333333333@note_on channel=0 note=50 velocity=0 time=0@note_on channel=0 note=62 velocity=0 time=0.016@note_on channel=0 note=71 velocity=49 time=0.008666666666666666@note_on channel=0 note=50 velocity=49 time=0@note_on channel=0 note=57 velocity=49 time=0.16@note_on channel=0 note=57 velocity=0 time=0.15133333333333332@note_on channel=0 note=62 velocity=49 time=0.008666666666666666@note_on channel=0 note=71 velocity=0 time=0.13533333333333333@note_on channel=0 note=50 velocity=0 time=0@note_on channel=0 note=62 velocity=0 time=0.016@note_on channel=0 note=68 velocity=49 time=0.008666666666666666@note_on channel=0 note=52 velocity=49 time=0@note_on channel=0 note=59 velocity=49 time=0.16@note_on channel=0 note=59 velocity=0 time=0.15133333333333332@note_on channel=0 note=64 velocity=49 time=0.008666666666666666@note_on channel=0 note=68 velocity=0 time=0.13533333333333333@note_on channel=0 note=52 velocity=0 time=0@note_on channel=0 note=64 velocity=0 time=0.016@note_on channel=0 note=69 velocity=49 time=0.008666666666666666@note_on channel=0 note=52 velocity=49 time=0@note_on channel=0 note=59 velocity=49 time=0.16@note_on channel=0 note=59 velocity=0 time=0.15133333333333332@note_on channel=0 note=64 velocity=49 time=0.008666666666666666@note_on channel=0 note=69 velocity=0 time=0.13533333333333333@note_on channel=0 note=52 velocity=0 time=0@note_on channel=0 note=64 velocity=0 time=0.016@note_on channel=0 note=71 velocity=49 time=0.008666666666666666@note_on channel=0 note=52 velocity=49 time=0@note_on channel=0 note=59 velocity=49 time=0.16@note_on channel=0 note=59 velocity=0 time=0.15133333333333332@note_on channel=0 note=64 velocity=49 time=0.008666666666666666@note_on channel=0 note=71 velocity=0 time=0.13533333333333333@note_on channel=0 note=52 velocity=0 time=0@note_on channel=0 note=64 velocity=0 time=0.016@note_on channel=0 note=76 velocity=49 time=0.008666666666666666@note_on channel=0 note=52 velocity=49 time=0@note_on channel=0 note=59 velocity=49 time=0.16@note_on channel=0 note=59 velocity=0 time=0.15133333333333332@note_on channel=0 note=64 velocity=49 time=0.008666666666666666@note_on channel=0 note=76 velocity=0 time=0.13533333333333333@note_on channel=0 note=52 velocity=0 time=0@note_on channel=0 note=64 velocity=0 time=0.016@note_on channel=0 note=69 velocity=49 time=0.008666666666666666@note_on channel=0 note=54 velocity=49 time=0@note_on channel=0 note=61 velocity=49 time=0.16@note_on channel=0 note=69 velocity=0 time=0.14333333333333334@note_on channel=0 note=61 velocity=0 time=0.008@note_on channel=0 note=66 velocity=49 time=0.008666666666666666@note_on channel=0 note=66 velocity=49 time=0@note_on channel=0 note=54 velocity=0 time=0.13533333333333333@note_on channel=0 note=66 velocity=0 time=0.016@note_on channel=0 note=54 velocity=49 time=0.008666666666666666@note_on channel=0 note=66 velocity=0 time=0.14333333333333334@note_on channel=0 note=71 velocity=49 time=0.016666666666666666@note_on channel=0 note=61 velocity=49 time=0@note_on channel=0 note=61 velocity=0 time=0.15133333333333332@note_on channel=0 note=66 velocity=49 time=0.008666666666666666@note_on channel=0 note=54 velocity=0 time=0.13533333333333333@note_on channel=0 note=71 velocity=0 time=0.008@note_on channel=0 note=66 velocity=0 time=0.008@note_on channel=0 note=73 velocity=49 time=0.008666666666666666@note_on channel=0 note=54 velocity=49 time=0@note_on channel=0 note=61 velocity=49 time=0.16@note_on channel=0 note=61 velocity=0 time=0.15133333333333332@note_on channel=0 note=66 velocity=49 time=0.008666666666666666@note_on channel=0 note=73 velocity=0 time=0.13533333333333333@note_on channel=0 note=54 velocity=0 time=0@note_on channel=0 note=66 velocity=0 time=0.016@note_on channel=0 note=78 velocity=49 time=0.008666666666666666@note_on channel=0 note=54 velocity=49 time=0@note_on channel=0 note=61 velocity=49 time=0.16@note_on channel=0 note=61 velocity=0 time=0.15133333333333332@note_on channel=0 note=66 velocity=49 time=0.008666666666666666@note_on channel=0 note=78 velocity=0 time=0.13533333333333333@note_on channel=0 note=54 velocity=0 time=0@note_on channel=0 note=66 velocity=0 time=0.016@note_on channel=0 note=85 velocity=49 time=0.008666666666666666@note_on channel=0 note=50 velocity=49 time=0@note_on channel=0 note=57 velocity=49 time=0.16@note_on channel=0 note=85 velocity=0 time=0.14333333333333334@note_on channel=0 note=57 velocity=0 time=0.008@note_on channel=0 note=78 velocity=49 time=0.008666666666666666@note_on channel=0 note=62 velocity=49 time=0@note_on channel=0 note=50 velocity=0 time=0.13533333333333333@note_on channel=0 note=62 velocity=0 time=0.016@note_on channel=0 note=50 velocity=49 time=0.008666666666666666@note_on channel=0 note=78 velocity=0 time=0.14333333333333334@note_on channel=0 note=81 velocity=49 time=0.016666666666666666@note_on channel=0 note=57 velocity=49 time=0@note_on channel=0 note=57 velocity=0 time=0.15133333333333332@note_on channel=0 note=62 velocity=49 time=0.008666666666666666@note_on channel=0 note=50 velocity=0 time=0.13533333333333333@note_on channel=0 note=81 velocity=0 time=0.008@note_on channel=0 note=62 velocity=0 time=0.008@note_on channel=0 note=80 velocity=49 time=0.008666666666666666@note_on channel=0 note=52 velocity=49 time=0@note_on channel=0 note=59 velocity=49 time=0.16@note_on channel=0 note=80 velocity=0 time=0.14333333333333334@note_on channel=0 note=59 velocity=0 time=0.008@note_on channel=0 note=73 velocity=49 time=0.008666666666666666@note_on channel=0 note=64 velocity=49 time=0@note_on channel=0 note=52 velocity=0 time=0.13533333333333333@note_on channel=0 note=73 velocity=0 time=0.016@note_on channel=0 note=64 velocity=0 time=0@note_on channel=0 note=71 velocity=49 time=0.008666666666666666@note_on channel=0 note=52 velocity=49 time=0@note_on channel=0 note=71 velocity=0 time=0.15133333333333332@note_on channel=0 note=73 velocity=49 time=0.008666666666666666@note_on channel=0 note=59 velocity=49 time=0@note_on channel=0 note=73 velocity=0 time=0.15133333333333332@note_on channel=0 note=59 velocity=0 time=0@note_on channel=0 note=69 velocity=49 time=0.008666666666666666@note_on channel=0 note=64 velocity=49 time=0@note_on channel=0 note=52 velocity=0 time=0.13533333333333333@note_on channel=0 note=69 velocity=0 time=0.016@note_on channel=0 note=64 velocity=0 time=0@note_on channel=0 note=68 velocity=49 time=0.008666666666666666@note_on channel=0 note=45 velocity=49 time=0@note_on channel=0 note=52 velocity=49 time=0.16@note_on channel=0 note=68 velocity=0 time=0.14333333333333334@note_on channel=0 note=52 velocity=0 time=0.008@note_on channel=0 note=66 velocity=49 time=0.008666666666666666@note_on channel=0 note=57 velocity=49 time=0@note_on channel=0 note=45 velocity=0 time=0.13533333333333333@note_on channel=0 note=57 velocity=0 time=0.016@note_on channel=0 note=45 velocity=49 time=0.008666666666666666@note_on channel=0 note=66 velocity=0 time=0.14333333333333334@note_on channel=0 note=68 velocity=49 time=0.016666666666666666@note_on channel=0 note=52 velocity=49 time=0@note_on channel=0 note=52 velocity=0 time=0.15133333333333332@note_on channel=0 note=57 velocity=49 time=0.008666666666666666@note_on channel=0 note=45 velocity=0 time=0.13533333333333333@note_on channel=0 note=68 velocity=0 time=0.008@note_on channel=0 note=57 velocity=0 time=0.008@note_on channel=0 note=64 velocity=49 time=0.008666666666666666@note_on channel=0 note=45 velocity=49 time=0@note_on channel=0 note=52 velocity=49 time=0.16@note_on channel=0 note=64 velocity=0 time=0.14333333333333334@note_on channel=0 note=52 velocity=0 time=0.008@note_on channel=0 note=61 velocity=49 time=0.008666666666666666@note_on channel=0 note=57 velocity=49 time=0@note_on channel=0 note=45 velocity=0 time=0.13533333333333333@note_on channel=0 note=57 velocity=0 time=0.016@note_on channel=0 note=45 velocity=49 time=0.008666666666666666@note_on channel=0 note=52 velocity=49 time=0.16@note_on channel=0 note=52 velocity=0 time=0.15133333333333332@note_on channel=0 note=57 velocity=49 time=0.008666666666666666@note_on channel=0 note=61 velocity=0 time=0.12733333333333333@note_on channel=0 note=45 velocity=0 time=0.008@note_on channel=0 note=57 velocity=0 time=0.016@note_on channel=0 note=69 velocity=49 time=0.008666666666666666@note_on channel=0 note=50 velocity=49 time=0@note_on channel=0 note=57 velocity=49 time=0.16@note_on channel=0 note=57 velocity=0 time=0.15133333333333332@note_on channel=0 note=61 velocity=49 time=0.008666666666666666@note_on channel=0 note=50 velocity=0 time=0.13533333333333333@note_on channel=0 note=61 velocity=0 time=0.016@note_on channel=0 note=50 velocity=49 time=0.008666666666666666@note_on channel=0 note=57 velocity=49 time=0.16@note_on channel=0 note=57 velocity=0 time=0.15133333333333332@note_on channel=0 note=61 velocity=49 time=0.008666666666666666@note_on channel=0 note=69 velocity=0 time=0.11133333333333333@note_on channel=0 note=50 velocity=0 time=0.024@note_on channel=0 note=61 velocity=0 time=0.016@note_on channel=0 note=71 velocity=49 time=0.008666666666666666@note_on channel=0 note=52 velocity=49 time=0@note_on channel=0 note=59 velocity=49 time=0.16@note_on channel=0 note=59 velocity=0 time=0.15133333333333332@note_on channel=0 note=64 velocity=49 time=0.008666666666666666@note_on channel=0 note=52 velocity=0 time=0.13533333333333333@note_on channel=0 note=64 velocity=0 time=0.016@note_on channel=0 note=52 velocity=49 time=0.008666666666666666@note_on channel=0 note=71 velocity=0 time=0.12733333333333333@note_on channel=0 note=69 velocity=49 time=0.03266666666666666@note_on channel=0 note=59 velocity=49 time=0@note_on channel=0 note=69 velocity=0 time=0.15133333333333332@note_on channel=0 note=59 velocity=0 time=0@note_on channel=0 note=68 velocity=49 time=0.008666666666666666@note_on channel=0 note=64 velocity=49 time=0@note_on channel=0 note=52 velocity=0 time=0.13533333333333333@note_on channel=0 note=68 velocity=0 time=0.016@note_on channel=0 note=64 velocity=0 time=0@note_on channel=0 note=69 velocity=49 time=0.008666666666666666@note_on channel=0 note=54 velocity=49 time=0@note_on channel=0 note=61 velocity=49 time=0.16@note_on channel=0 note=69 velocity=0 time=0.14333333333333334@note_on channel=0 note=61 velocity=0 time=0.008@note_on channel=0 note=66 velocity=49 time=0.008666666666666666@note_on channel=0 note=66 velocity=49 time=0@note_on channel=0 note=54 velocity=0 time=0.13533333333333333@note_on channel=0 note=66 velocity=0 time=0.016@note_on channel=0 note=54 velocity=49 time=0.008666666666666666@note_on channel=0 note=61 velocity=49 time=0.16@note_on channel=0 note=61 velocity=0 time=0.15133333333333332@note_on channel=0 note=66 velocity=49 time=0.008666666666666666@note_on channel=0 note=54 velocity=0 time=0.13533333333333333@note_on channel=0 note=66 velocity=0 time=0.016@note_on channel=0 note=54 velocity=49 time=0.008666666666666666@note_on channel=0 note=61 velocity=49 time=0.16@note_on channel=0 note=61 velocity=0 time=0.15133333333333332@note_on channel=0 note=66 velocity=49 time=0.008666666666666666@note_on channel=0 note=54 velocity=0 time=0.13533333333333333@note_on channel=0 note=66 velocity=0 time=0.016@note_on channel=0 note=54 velocity=49 time=0.008666666666666666@note_on channel=0 note=61 velocity=49 time=0.16@note_on channel=0 note=61 velocity=0 time=0.15133333333333332@note_on channel=0 note=66 velocity=49 time=0.008666666666666666@note_on channel=0 note=66 velocity=0 time=0.07933333333333333@note_on channel=0 note=54 velocity=0 time=0.056@note_on channel=0 note=66 velocity=0 time=0.016@note_on channel=0 note=69 velocity=49 time=0.008666666666666666@note_on channel=0 note=50 velocity=49 time=0@note_on channel=0 note=57 velocity=49 time=0.16@note_on channel=0 note=57 velocity=0 time=0.15133333333333332@note_on channel=0 note=61 velocity=49 time=0.008666666666666666@note_on channel=0 note=50 velocity=0 time=0.13533333333333333@note_on channel=0 note=61 velocity=0 time=0.016@note_on channel=0 note=50 velocity=49 time=0.008666666666666666@note_on channel=0 note=57 velocity=49 time=0.16@note_on channel=0 note=57 velocity=0 time=0.15133333333333332@note_on channel=0 note=61 velocity=49 time=0.008666666666666666@note_on channel=0 note=69 velocity=0 time=0.11133333333333333@note_on channel=0 note=50 velocity=0 time=0.024@note_on channel=0 note=61 velocity=0 time=0.016@note_on channel=0 note=68 velocity=49 time=0.008666666666666666@note_on channel=0 note=52 velocity=49 time=0@note_on channel=0 note=59 velocity=49 time=0.16@note_on channel=0 note=59 velocity=0 time=0.15133333333333332@note_on channel=0 note=64 velocity=49 time=0.008666666666666666@note_on channel=0 note=52 velocity=0 time=0.13533333333333333@note_on channel=0 note=64 velocity=0 time=0.016@note_on channel=0 note=52 velocity=49 time=0.008666666666666666@note_on channel=0 note=68 velocity=0 time=0.12733333333333333@note_on channel=0 note=66 velocity=49 time=0.03266666666666666@note_on channel=0 note=59 velocity=49 time=0@note_on channel=0 note=66 velocity=0 time=0.15133333333333332@note_on channel=0 note=59 velocity=0 time=0@note_on channel=0 note=64 velocity=49 time=0.008666666666666666@note_on channel=0 note=64 velocity=49 time=0@note_on channel=0 note=52 velocity=0 time=0.13533333333333333@note_on channel=0 note=64 velocity=0 time=0.016@note_on channel=0 note=64 velocity=0 time=0@note_on channel=0 note=66 velocity=49 time=0.008666666666666666@note_on channel=0 note=54 velocity=49 time=0@note_on channel=0 note=61 velocity=49 time=0.16@note_on channel=0 note=61 velocity=0 time=0.15133333333333332@note_on channel=0 note=66 velocity=49 time=0.008666666666666666@note_on channel=0 note=54 velocity=0 time=0.13533333333333333@note_on channel=0 note=66 velocity=0 time=0.016@note_on channel=0 note=54 velocity=49 time=0.008666666666666666@note_on channel=0 note=61 velocity=49 time=0.16@note_on channel=0 note=61 velocity=0 time=0.15133333333333332@note_on channel=0 note=66 velocity=49 time=0.008666666666666666@note_on channel=0 note=54 velocity=0 time=0.13533333333333333@note_on channel=0 note=66 velocity=0 time=0.016@note_on channel=0 note=54 velocity=49 time=0.008666666666666666@note_on channel=0 note=61 velocity=49 time=0.16@note_on channel=0 note=61 velocity=0 time=0.15133333333333332@note_on channel=0 note=66 velocity=49 time=0.008666666666666666@note_on channel=0 note=54 velocity=0 time=0.13533333333333333@note_on channel=0 note=66 velocity=0 time=0.016@note_on channel=0 note=54 velocity=49 time=0.008666666666666666@note_on channel=0 note=61 velocity=49 time=0.16@note_on channel=0 note=61 velocity=0 time=0.15133333333333332@note_on channel=0 note=66 velocity=49 time=0.008666666666666666@note_on channel=0 note=66 velocity=0 time=0.06333333333333332@note_on channel=0 note=54 velocity=0 time=0.072@note_on channel=0 note=66 velocity=0 time=0.016@note_on channel=0 note=61 velocity=49 time=0.008666666666666666@note_on channel=0 note=66 velocity=49 time=0.16@note_on channel=0 note=66 velocity=0 time=0.15133333333333332@note_on channel=0 note=69 velocity=49 time=0.008666666666666666@note_on channel=0 note=61 velocity=0 time=0.13533333333333333@note_on channel=0 note=69 velocity=0 time=0.016@note_on channel=0 note=61 velocity=49 time=0.008666666666666666@note_on channel=0 note=66 velocity=49 time=0.16@note_on channel=0 note=66 velocity=0 time=0.15133333333333332@note_on channel=0 note=68 velocity=49 time=0.008666666666666666@note_on channel=0 note=61 velocity=0 time=0.13533333333333333@note_on channel=0 note=68 velocity=0 time=0.016@note_on channel=0 note=59 velocity=49 time=0.008666666666666666@note_on channel=0 note=64 velocity=49 time=0.16@note_on channel=0 note=64 velocity=0 time=0.15133333333333332@note_on channel=0 note=68 velocity=49 time=0.008666666666666666@note_on channel=0 note=59 velocity=0 time=0.13533333333333333@note_on channel=0 note=68 velocity=0 time=0.016@note_on channel=0 note=59 velocity=49 time=0.008666666666666666@note_on channel=0 note=64 velocity=49 time=0.16@note_on channel=0 note=64 velocity=0 time=0.15133333333333332@note_on channel=0 note=68 velocity=49 time=0.008666666666666666@note_on channel=0 note=59 velocity=0 time=0.13533333333333333@note_on channel=0 note=68 velocity=0 time=0.016@note_on channel=0 note=57 velocity=49 time=0.008666666666666666@note_on channel=0 note=62 velocity=49 time=0.16@note_on channel=0 note=62 velocity=0 time=0.15133333333333332@note_on channel=0 note=66 velocity=49 time=0.008666666666666666@note_on channel=0 note=57 velocity=0 time=0.13533333333333333@note_on channel=0 note=66 velocity=0 time=0.016@note_on channel=0 note=57 velocity=49 time=0.008666666666666666@note_on channel=0 note=62 velocity=49 time=0.16@note_on channel=0 note=62 velocity=0 time=0.15133333333333332@note_on channel=0 note=66 velocity=49 time=0.008666666666666666@note_on channel=0 note=57 velocity=0 time=0.13533333333333333@note_on channel=0 note=66 velocity=0 time=0.016@note_on channel=0 note=59 velocity=49 time=0.008666666666666666@note_on channel=0 note=64 velocity=49 time=0.16@note_on channel=0 note=64 velocity=0 time=0.15133333333333332@note_on channel=0 note=68 velocity=49 time=0.008666666666666666@note_on channel=0 note=59 velocity=0 time=0.13533333333333333@note_on channel=0 note=68 velocity=0 time=0.016@note_on channel=0 note=59 velocity=49 time=0.008666666666666666@note_on channel=0 note=64 velocity=49 time=0.16@note_on channel=0 note=64 velocity=0 time=0.15133333333333332@note_on channel=0 note=68 velocity=49 time=0.008666666666666666@note_on channel=0 note=59 velocity=0 time=0.13533333333333333@note_on channel=0 note=68 velocity=0 time=0.016@note_on channel=0 note=73 velocity=49 time=0.008666666666666666@note_on channel=0 note=78 velocity=49 time=0.16@note_on channel=0 note=78 velocity=0 time=0.15133333333333332@note_on channel=0 note=81 velocity=49 time=0.008666666666666666@note_on channel=0 note=73 velocity=0 time=0.13533333333333333@note_on channel=0 note=81 velocity=0 time=0.016@note_on channel=0 note=73 velocity=49 time=0.008666666666666666@note_on channel=0 note=78 velocity=49 time=0.16@note_on channel=0 note=78 velocity=0 time=0.15133333333333332@note_on channel=0 note=80 velocity=49 time=0.008666666666666666@note_on channel=0 note=73 velocity=0 time=0.13533333333333333@note_on channel=0 note=80 velocity=0 time=0.016@note_on channel=0 note=71 velocity=49 time=0.008666666666666666@note_on channel=0 note=76 velocity=49 time=0.16@note_on channel=0 note=76 velocity=0 time=0.15133333333333332@note_on channel=0 note=80 velocity=49 time=0.008666666666666666@note_on channel=0 note=71 velocity=0 time=0.13533333333333333@note_on channel=0 note=80 velocity=0 time=0.016@note_on channel=0 note=71 velocity=49 time=0.008666666666666666@note_on channel=0 note=76 velocity=49 time=0.16@note_on channel=0 note=76 velocity=0 time=0.15133333333333332@note_on channel=0 note=80 velocity=49 time=0.008666666666666666@note_on channel=0 note=71 velocity=0 time=0.13533333333333333@note_on channel=0 note=80 velocity=0 time=0.016@note_on channel=0 note=69 velocity=49 time=0.008666666666666666@note_on channel=0 note=74 velocity=49 time=0.16@note_on channel=0 note=74 velocity=0 time=0.15133333333333332@note_on channel=0 note=78 velocity=49 time=0.008666666666666666@note_on channel=0 note=69 velocity=0 time=0.13533333333333333@note_on channel=0 note=78 velocity=0 time=0.016@note_on channel=0 note=69 velocity=49 time=0.008666666666666666@note_on channel=0 note=74 velocity=49 time=0.16@note_on channel=0 note=74 velocity=0 time=0.15133333333333332@note_on channel=0 note=78 velocity=49 time=0.008666666666666666@note_on channel=0 note=69 velocity=0 time=0.13533333333333333@note_on channel=0 note=78 velocity=0 time=0.016@note_on channel=0 note=71 velocity=49 time=0.008666666666666666@note_on channel=0 note=76 velocity=49 time=0.16@note_on channel=0 note=76 velocity=0 time=0.15133333333333332@note_on channel=0 note=80 velocity=49 time=0.008666666666666666@note_on channel=0 note=71 velocity=0 time=0.13533333333333333@note_on channel=0 note=80 velocity=0 time=0.016@note_on channel=0 note=71 velocity=49 time=0.008666666666666666@note_on channel=0 note=76 velocity=49 time=0.16@note_on channel=0 note=76 velocity=0 time=0.15133333333333332@note_on channel=0 note=80 velocity=49 time=0.008666666666666666@note_on channel=0 note=71 velocity=0 time=0.13533333333333333@note_on channel=0 note=80 velocity=0 time=0.016@<meta message end_of_track time=0.0006666666666666666>@