<meta message time_signature numerator=2 denominator=4 clocks_per_click=24 notated_32nd_notes_per_beat=8 time=0>@<meta message key_signature key='C' time=0>@<meta message set_tempo tempo=413793 time=0>@<meta message midi_port port=0 time=0>@program_change channel=0 program=1 time=0@control_change channel=0 control=7 value=100 time=0@control_change channel=0 control=10 value=48 time=0@control_change channel=0 control=91 value=80 time=0@control_change channel=0 control=93 value=20 time=0@note_on channel=0 note=71 velocity=100 time=0@<meta message midi_port port=0 time=0>@program_change channel=1 program=1 time=0@control_change channel=1 control=7 value=100 time=0@control_change channel=1 control=10 value=64 time=0@control_change channel=1 control=91 value=80 time=0@control_change channel=1 control=93 value=20 time=0@<meta message midi_port port=0 time=0>@program_change channel=2 program=1 time=0@control_change channel=2 control=7 value=100 time=0@control_change channel=2 control=10 value=80 time=0@control_change channel=2 control=91 value=80 time=0@control_change channel=2 control=93 value=20 time=0@<meta message midi_port port=0 time=0>@program_change channel=3 program=1 time=0@control_change channel=3 control=7 value=100 time=0@control_change channel=3 control=10 value=64 time=0@control_change channel=3 control=91 value=80 time=0@control_change channel=3 control=93 value=20 time=0@<meta message midi_port port=0 time=0>@program_change channel=4 program=0 time=0@control_change channel=4 control=7 value=80 time=0@control_change channel=4 control=10 value=48 time=0@control_change channel=4 control=91 value=40 time=0@control_change channel=4 control=93 value=120 time=0@<meta message midi_port port=0 time=0>@program_change channel=5 program=0 time=0@control_change channel=5 control=7 value=80 time=0@control_change channel=5 control=10 value=64 time=0@control_change channel=5 control=91 value=40 time=0@control_change channel=5 control=93 value=120 time=0@<meta message midi_port port=0 time=0>@program_change channel=6 program=0 time=0@control_change channel=6 control=7 value=80 time=0@control_change channel=6 control=10 value=80 time=0@control_change channel=6 control=91 value=40 time=0@control_change channel=6 control=93 value=120 time=0@<meta message midi_port port=0 time=0>@program_change channel=7 program=0 time=0@control_change channel=7 control=7 value=80 time=0@control_change channel=7 control=10 value=64 time=0@control_change channel=7 control=91 value=40 time=0@control_change channel=7 control=93 value=120 time=0@<meta message midi_port port=0 time=0>@program_change channel=8 program=1 time=0@control_change channel=8 control=7 value=100 time=0@control_change channel=8 control=10 value=48 time=0@control_change channel=8 control=91 value=30 time=0@control_change channel=8 control=93 value=50 time=0@<meta message midi_port port=0 time=0>@program_change channel=10 program=1 time=0@control_change channel=10 control=7 value=100 time=0@control_change channel=10 control=10 value=72 time=0@control_change channel=10 control=91 value=30 time=0@control_change channel=10 control=93 value=50 time=0@<meta message midi_port port=0 time=0>@program_change channel=11 program=1 time=0@control_change channel=11 control=7 value=100 time=0@control_change channel=11 control=10 value=80 time=0@control_change channel=11 control=91 value=30 time=0@control_change channel=11 control=93 value=50 time=0@<meta message midi_port port=0 time=0>@program_change channel=12 program=1 time=0@control_change channel=12 control=7 value=100 time=0@control_change channel=12 control=10 value=56 time=0@control_change channel=12 control=91 value=30 time=0@control_change channel=12 control=93 value=50 time=0@<meta message midi_port port=0 time=0>@program_change channel=13 program=0 time=0@control_change channel=13 control=7 value=90 time=0@control_change channel=13 control=10 value=56 time=0@control_change channel=13 control=91 value=100 time=0@control_change channel=13 control=93 value=80 time=0@<meta message midi_port port=0 time=0>@program_change channel=14 program=0 time=0@control_change channel=14 control=7 value=90 time=0@control_change channel=14 control=10 value=72 time=0@control_change channel=14 control=91 value=100 time=0@control_change channel=14 control=93 value=80 time=0@note_on channel=0 note=71 velocity=0 time=0.10344824999999999@note_on channel=0 note=69 velocity=100 time=0@note_on channel=0 note=69 velocity=0 time=0.10344824999999999@note_on channel=0 note=68 velocity=100 time=0@note_on channel=0 note=68 velocity=0 time=0.10344824999999999@note_on channel=0 note=69 velocity=100 time=0@note_on channel=0 note=69 velocity=0 time=0.10344824999999999@note_on channel=0 note=72 velocity=100 time=0@note_on channel=1 note=57 velocity=100 time=0@note_on channel=0 note=72 velocity=0 time=0.20689649999999998@note_on channel=1 note=57 velocity=0 time=0@note_on channel=1 note=64 velocity=100 time=0@note_on channel=1 note=60 velocity=100 time=0@note_on channel=0 note=74 velocity=100 time=0.20689649999999998@note_on channel=1 note=60 velocity=0 time=0@note_on channel=1 note=64 velocity=0 time=0@note_on channel=1 note=64 velocity=100 time=0@note_on channel=1 note=60 velocity=100 time=0@note_on channel=0 note=74 velocity=0 time=0.10344824999999999@note_on channel=0 note=72 velocity=100 time=0@note_on channel=0 note=72 velocity=0 time=0.10344824999999999@note_on channel=0 note=71 velocity=100 time=0@note_on channel=1 note=60 velocity=0 time=0@note_on channel=1 note=64 velocity=0 time=0@note_on channel=1 note=64 velocity=100 time=0@note_on channel=1 note=60 velocity=100 time=0@note_on channel=0 note=71 velocity=0 time=0.10344824999999999@note_on channel=0 note=72 velocity=100 time=0@note_on channel=0 note=72 velocity=0 time=0.10344824999999999@note_on channel=0 note=76 velocity=100 time=0@note_on channel=1 note=60 velocity=0 time=0@note_on channel=1 note=64 velocity=0 time=0@note_on channel=1 note=57 velocity=100 time=0@note_on channel=0 note=76 velocity=0 time=0.20689649999999998@note_on channel=1 note=57 velocity=0 time=0@note_on channel=1 note=64 velocity=100 time=0@note_on channel=1 note=60 velocity=100 time=0@note_on channel=0 note=77 velocity=100 time=0.20689649999999998@note_on channel=1 note=60 velocity=0 time=0@note_on channel=1 note=64 velocity=0 time=0@note_on channel=1 note=64 velocity=100 time=0@note_on channel=1 note=60 velocity=100 time=0@note_on channel=0 note=77 velocity=0 time=0.10344824999999999@note_on channel=0 note=76 velocity=100 time=0@note_on channel=0 note=76 velocity=0 time=0.10344824999999999@note_on channel=0 note=75 velocity=100 time=0@note_on channel=1 note=60 velocity=0 time=0@note_on channel=1 note=64 velocity=0 time=0@note_on channel=1 note=64 velocity=100 time=0@note_on channel=1 note=60 velocity=100 time=0@note_on channel=0 note=75 velocity=0 time=0.10344824999999999@note_on channel=0 note=76 velocity=100 time=0@note_on channel=0 note=76 velocity=0 time=0.10344824999999999@note_on channel=0 note=83 velocity=100 time=0@note_on channel=1 note=60 velocity=0 time=0@note_on channel=1 note=64 velocity=0 time=0@note_on channel=1 note=57 velocity=100 time=0@note_on channel=0 note=83 velocity=0 time=0.10344824999999999@note_on channel=0 note=81 velocity=100 time=0@note_on channel=0 note=81 velocity=0 time=0.10344824999999999@note_on channel=0 note=80 velocity=100 time=0@note_on channel=1 note=57 velocity=0 time=0@note_on channel=1 note=64 velocity=100 time=0@note_on channel=1 note=60 velocity=100 time=0@note_on channel=0 note=80 velocity=0 time=0.10344824999999999@note_on channel=0 note=81 velocity=100 time=0@note_on channel=0 note=81 velocity=0 time=0.10344824999999999@note_on channel=0 note=83 velocity=100 time=0@note_on channel=1 note=60 velocity=0 time=0@note_on channel=1 note=64 velocity=0 time=0@note_on channel=1 note=57 velocity=100 time=0@note_on channel=0 note=83 velocity=0 time=0.10344824999999999@note_on channel=0 note=81 velocity=100 time=0@note_on channel=0 note=81 velocity=0 time=0.10344824999999999@note_on channel=0 note=80 velocity=100 time=0@note_on channel=1 note=57 velocity=0 time=0@note_on channel=1 note=64 velocity=100 time=0@note_on channel=1 note=60 velocity=100 time=0@note_on channel=0 note=80 velocity=0 time=0.10344824999999999@note_on channel=0 note=81 velocity=100 time=0@note_on channel=0 note=81 velocity=0 time=0.10344824999999999@note_on channel=0 note=84 velocity=100 time=0@note_on channel=1 note=60 velocity=0 time=0@note_on channel=1 note=64 velocity=0 time=0@note_on channel=1 note=57 velocity=100 time=0@note_on channel=1 note=57 velocity=0 time=0.20689649999999998@note_on channel=1 note=64 velocity=100 time=0@note_on channel=1 note=60 velocity=100 time=0@note_on channel=0 note=84 velocity=0 time=0.20689649999999998@note_on channel=0 note=81 velocity=100 time=0@note_on channel=1 note=60 velocity=0 time=0@note_on channel=1 note=64 velocity=0 time=0@note_on channel=1 note=64 velocity=100 time=0@note_on channel=1 note=60 velocity=100 time=0@note_on channel=0 note=81 velocity=0 time=0.20689649999999998@note_on channel=0 note=84 velocity=100 time=0@note_on channel=1 note=60 velocity=0 time=0@note_on channel=1 note=64 velocity=0 time=0@note_on channel=1 note=64 velocity=100 time=0@note_on channel=1 note=60 velocity=100 time=0@note_on channel=0 note=84 velocity=0 time=0.20689649999999998@note_on channel=0 note=79 velocity=100 time=0@note_on channel=1 note=60 velocity=0 time=0@note_on channel=1 note=64 velocity=0 time=0@note_on channel=1 note=52 velocity=100 time=0@note_on channel=0 note=79 velocity=0 time=0.051724124999999996@note_on channel=0 note=81 velocity=100 time=0@note_on channel=0 note=81 velocity=0 time=0.051724124999999996@note_on channel=0 note=83 velocity=100 time=0@note_on channel=0 note=83 velocity=0 time=0.10344824999999999@note_on channel=0 note=78 velocity=100 time=0@note_on channel=0 note=81 velocity=100 time=0@note_on channel=1 note=52 velocity=0 time=0@note_on channel=1 note=64 velocity=100 time=0@note_on channel=1 note=59 velocity=100 time=0@note_on channel=0 note=81 velocity=0 time=0.20689649999999998@note_on channel=0 note=78 velocity=0 time=0@note_on channel=0 note=79 velocity=100 time=0@note_on channel=0 note=76 velocity=100 time=0@note_on channel=1 note=59 velocity=0 time=0@note_on channel=1 note=64 velocity=0 time=0@note_on channel=1 note=64 velocity=100 time=0@note_on channel=1 note=59 velocity=100 time=0@note_on channel=0 note=76 velocity=0 time=0.20689649999999998@note_on channel=0 note=79 velocity=0 time=0@note_on channel=0 note=81 velocity=100 time=0@note_on channel=0 note=78 velocity=100 time=0@note_on channel=1 note=59 velocity=0 time=0@note_on channel=1 note=64 velocity=0 time=0@note_on channel=1 note=64 velocity=100 time=0@note_on channel=1 note=59 velocity=100 time=0@note_on channel=0 note=78 velocity=0 time=0.20689649999999998@note_on channel=0 note=81 velocity=0 time=0@note_on channel=0 note=79 velocity=100 time=0@note_on channel=1 note=59 velocity=0 time=0@note_on channel=1 note=64 velocity=0 time=0@note_on channel=1 note=52 velocity=100 time=0@note_on channel=0 note=79 velocity=0 time=0.051724124999999996@note_on channel=0 note=81 velocity=100 time=0@note_on channel=0 note=81 velocity=0 time=0.051724124999999996@note_on channel=0 note=83 velocity=100 time=0@note_on channel=0 note=83 velocity=0 time=0.10344824999999999@note_on channel=0 note=78 velocity=100 time=0@note_on channel=0 note=81 velocity=100 time=0@note_on channel=1 note=52 velocity=0 time=0@note_on channel=1 note=64 velocity=100 time=0@note_on channel=1 note=59 velocity=100 time=0@note_on channel=0 note=81 velocity=0 time=0.20689649999999998@note_on channel=0 note=78 velocity=0 time=0@note_on channel=0 note=79 velocity=100 time=0@note_on channel=0 note=76 velocity=100 time=0@note_on channel=1 note=59 velocity=0 time=0@note_on channel=1 note=64 velocity=0 time=0@note_on channel=1 note=64 velocity=100 time=0@note_on channel=1 note=59 velocity=100 time=0@note_on channel=0 note=76 velocity=0 time=0.20689649999999998@note_on channel=0 note=79 velocity=0 time=0@note_on channel=0 note=78 velocity=100 time=0@note_on channel=0 note=81 velocity=100 time=0@note_on channel=1 note=59 velocity=0 time=0@note_on channel=1 note=64 velocity=0 time=0@note_on channel=1 note=64 velocity=100 time=0@note_on channel=1 note=59 velocity=100 time=0@note_on channel=0 note=81 velocity=0 time=0.20689649999999998@note_on channel=0 note=78 velocity=0 time=0@note_on channel=0 note=79 velocity=100 time=0@note_on channel=1 note=59 velocity=0 time=0@note_on channel=1 note=64 velocity=0 time=0@note_on channel=1 note=52 velocity=100 time=0@note_on channel=0 note=79 velocity=0 time=0.051724124999999996@note_on channel=0 note=81 velocity=100 time=0@note_on channel=0 note=81 velocity=0 time=0.051724124999999996@note_on channel=0 note=83 velocity=100 time=0@note_on channel=0 note=83 velocity=0 time=0.10344824999999999@note_on channel=0 note=78 velocity=100 time=0@note_on channel=0 note=81 velocity=100 time=0@note_on channel=1 note=52 velocity=0 time=0@note_on channel=1 note=64 velocity=100 time=0@note_on channel=1 note=59 velocity=100 time=0@note_on channel=0 note=81 velocity=0 time=0.20689649999999998@note_on channel=0 note=78 velocity=0 time=0@note_on channel=0 note=79 velocity=100 time=0@note_on channel=0 note=76 velocity=100 time=0@note_on channel=1 note=59 velocity=0 time=0@note_on channel=1 note=64 velocity=0 time=0@note_on channel=1 note=47 velocity=100 time=0@note_on channel=0 note=76 velocity=0 time=0.20689649999999998@note_on channel=0 note=79 velocity=0 time=0@note_on channel=0 note=78 velocity=100 time=0@note_on channel=0 note=75 velocity=100 time=0@note_on channel=1 note=47 velocity=0 time=0@note_on channel=1 note=59 velocity=100 time=0@note_on channel=0 note=75 velocity=0 time=0.20689649999999998@note_on channel=0 note=78 velocity=0 time=0@note_on channel=0 note=76 velocity=100 time=0@note_on channel=1 note=59 velocity=0 time=0@note_on channel=1 note=52 velocity=100 time=0@note_on channel=0 note=76 velocity=0 time=0.41379299999999997@note_on channel=1 note=52 velocity=0 time=0@note_on channel=2 note=71 velocity=100 time=0@note_on channel=2 note=71 velocity=0 time=0.10344824999999999@note_on channel=2 note=69 velocity=100 time=0@note_on channel=2 note=69 velocity=0 time=0.10344824999999999@note_on channel=2 note=68 velocity=100 time=0@note_on channel=2 note=68 velocity=0 time=0.10344824999999999@note_on channel=2 note=69 velocity=100 time=0@note_on channel=2 note=69 velocity=0 time=0.10344824999999999@note_on channel=2 note=72 velocity=100 time=0@note_on channel=3 note=57 velocity=100 time=0@note_on channel=2 note=72 velocity=0 time=0.20689649999999998@note_on channel=3 note=57 velocity=0 time=0@note_on channel=3 note=64 velocity=100 time=0@note_on channel=3 note=60 velocity=100 time=0@note_on channel=2 note=74 velocity=100 time=0.20689649999999998@note_on channel=3 note=60 velocity=0 time=0@note_on channel=3 note=64 velocity=0 time=0@note_on channel=3 note=64 velocity=100 time=0@note_on channel=3 note=60 velocity=100 time=0@note_on channel=2 note=74 velocity=0 time=0.10344824999999999@note_on channel=2 note=72 velocity=100 time=0@note_on channel=2 note=72 velocity=0 time=0.10344824999999999@note_on channel=2 note=71 velocity=100 time=0@note_on channel=3 note=60 velocity=0 time=0@note_on channel=3 note=64 velocity=0 time=0@note_on channel=3 note=64 velocity=100 time=0@note_on channel=3 note=60 velocity=100 time=0@note_on channel=2 note=71 velocity=0 time=0.10344824999999999@note_on channel=2 note=72 velocity=100 time=0@note_on channel=2 note=72 velocity=0 time=0.10344824999999999@note_on channel=2 note=76 velocity=100 time=0@note_on channel=3 note=60 velocity=0 time=0@note_on channel=3 note=64 velocity=0 time=0@note_on channel=3 note=57 velocity=100 time=0@note_on channel=2 note=76 velocity=0 time=0.20689649999999998@note_on channel=3 note=57 velocity=0 time=0@note_on channel=3 note=64 velocity=100 time=0@note_on channel=3 note=60 velocity=100 time=0@note_on channel=2 note=77 velocity=100 time=0.20689649999999998@note_on channel=3 note=60 velocity=0 time=0@note_on channel=3 note=64 velocity=0 time=0@note_on channel=3 note=64 velocity=100 time=0@note_on channel=3 note=60 velocity=100 time=0@note_on channel=2 note=77 velocity=0 time=0.10344824999999999@note_on channel=2 note=76 velocity=100 time=0@note_on channel=2 note=76 velocity=0 time=0.10344824999999999@note_on channel=2 note=75 velocity=100 time=0@note_on channel=3 note=60 velocity=0 time=0@note_on channel=3 note=64 velocity=0 time=0@note_on channel=3 note=64 velocity=100 time=0@note_on channel=3 note=60 velocity=100 time=0@note_on channel=2 note=75 velocity=0 time=0.10344824999999999@note_on channel=2 note=76 velocity=100 time=0@note_on channel=2 note=76 velocity=0 time=0.10344824999999999@note_on channel=2 note=83 velocity=100 time=0@note_on channel=3 note=60 velocity=0 time=0@note_on channel=3 note=64 velocity=0 time=0@note_on channel=3 note=57 velocity=100 time=0@note_on channel=2 note=83 velocity=0 time=0.10344824999999999@note_on channel=2 note=81 velocity=100 time=0@note_on channel=2 note=81 velocity=0 time=0.10344824999999999@note_on channel=2 note=80 velocity=100 time=0@note_on channel=3 note=57 velocity=0 time=0@note_on channel=3 note=64 velocity=100 time=0@note_on channel=3 note=60 velocity=100 time=0@note_on channel=2 note=80 velocity=0 time=0.10344824999999999@note_on channel=2 note=81 velocity=100 time=0@note_on channel=2 note=81 velocity=0 time=0.10344824999999999@note_on channel=2 note=83 velocity=100 time=0@note_on channel=3 note=60 velocity=0 time=0@note_on channel=3 note=64 velocity=0 time=0@note_on channel=3 note=57 velocity=100 time=0@note_on channel=2 note=83 velocity=0 time=0.10344824999999999@note_on channel=2 note=81 velocity=100 time=0@note_on channel=2 note=81 velocity=0 time=0.10344824999999999@note_on channel=2 note=80 velocity=100 time=0@note_on channel=3 note=57 velocity=0 time=0@note_on channel=3 note=64 velocity=100 time=0@note_on channel=3 note=60 velocity=100 time=0@note_on channel=2 note=80 velocity=0 time=0.10344824999999999@note_on channel=2 note=81 velocity=100 time=0@note_on channel=2 note=81 velocity=0 time=0.10344824999999999@note_on channel=2 note=84 velocity=100 time=0@note_on channel=3 note=60 velocity=0 time=0@note_on channel=3 note=64 velocity=0 time=0@note_on channel=3 note=57 velocity=100 time=0@note_on channel=3 note=57 velocity=0 time=0.20689649999999998@note_on channel=3 note=64 velocity=100 time=0@note_on channel=3 note=60 velocity=100 time=0@note_on channel=2 note=84 velocity=0 time=0.20689649999999998@note_on channel=2 note=81 velocity=100 time=0@note_on channel=3 note=60 velocity=0 time=0@note_on channel=3 note=64 velocity=0 time=0@note_on channel=3 note=64 velocity=100 time=0@note_on channel=3 note=60 velocity=100 time=0@note_on channel=2 note=81 velocity=0 time=0.20689649999999998@note_on channel=2 note=84 velocity=100 time=0@note_on channel=3 note=60 velocity=0 time=0@note_on channel=3 note=64 velocity=0 time=0@note_on channel=3 note=64 velocity=100 time=0@note_on channel=3 note=60 velocity=100 time=0@note_on channel=2 note=84 velocity=0 time=0.20689649999999998@note_on channel=2 note=79 velocity=100 time=0@note_on channel=3 note=60 velocity=0 time=0@note_on channel=3 note=64 velocity=0 time=0@note_on channel=3 note=52 velocity=100 time=0@note_on channel=2 note=79 velocity=0 time=0.051724124999999996@note_on channel=2 note=81 velocity=100 time=0@note_on channel=2 note=81 velocity=0 time=0.051724124999999996@note_on channel=2 note=83 velocity=100 time=0@note_on channel=2 note=83 velocity=0 time=0.10344824999999999@note_on channel=2 note=78 velocity=100 time=0@note_on channel=2 note=81 velocity=100 time=0@note_on channel=3 note=52 velocity=0 time=0@note_on channel=3 note=64 velocity=100 time=0@note_on channel=3 note=59 velocity=100 time=0@note_on channel=2 note=81 velocity=0 time=0.20689649999999998@note_on channel=2 note=78 velocity=0 time=0@note_on channel=2 note=79 velocity=100 time=0@note_on channel=2 note=76 velocity=100 time=0@note_on channel=3 note=59 velocity=0 time=0@note_on channel=3 note=64 velocity=0 time=0@note_on channel=3 note=64 velocity=100 time=0@note_on channel=3 note=59 velocity=100 time=0@note_on channel=2 note=76 velocity=0 time=0.20689649999999998@note_on channel=2 note=79 velocity=0 time=0@note_on channel=2 note=81 velocity=100 time=0@note_on channel=2 note=78 velocity=100 time=0@note_on channel=3 note=59 velocity=0 time=0@note_on channel=3 note=64 velocity=0 time=0@note_on channel=3 note=64 velocity=100 time=0@note_on channel=3 note=59 velocity=100 time=0@note_on channel=2 note=78 velocity=0 time=0.20689649999999998@note_on channel=2 note=81 velocity=0 time=0@note_on channel=2 note=79 velocity=100 time=0@note_on channel=3 note=59 velocity=0 time=0@note_on channel=3 note=64 velocity=0 time=0@note_on channel=3 note=52 velocity=100 time=0@note_on channel=2 note=79 velocity=0 time=0.051724124999999996@note_on channel=2 note=81 velocity=100 time=0@note_on channel=2 note=81 velocity=0 time=0.051724124999999996@note_on channel=2 note=83 velocity=100 time=0@note_on channel=2 note=83 velocity=0 time=0.10344824999999999@note_on channel=2 note=78 velocity=100 time=0@note_on channel=2 note=81 velocity=100 time=0@note_on channel=3 note=52 velocity=0 time=0@note_on channel=3 note=64 velocity=100 time=0@note_on channel=3 note=59 velocity=100 time=0@note_on channel=2 note=81 velocity=0 time=0.20689649999999998@note_on channel=2 note=78 velocity=0 time=0@note_on channel=2 note=79 velocity=100 time=0@note_on channel=2 note=76 velocity=100 time=0@note_on channel=3 note=59 velocity=0 time=0@note_on channel=3 note=64 velocity=0 time=0@note_on channel=3 note=64 velocity=100 time=0@note_on channel=3 note=59 velocity=100 time=0@note_on channel=2 note=76 velocity=0 time=0.20689649999999998@note_on channel=2 note=79 velocity=0 time=0@note_on channel=2 note=78 velocity=100 time=0@note_on channel=2 note=81 velocity=100 time=0@note_on channel=3 note=59 velocity=0 time=0@note_on channel=3 note=64 velocity=0 time=0@note_on channel=3 note=64 velocity=100 time=0@note_on channel=3 note=59 velocity=100 time=0@note_on channel=2 note=81 velocity=0 time=0.20689649999999998@note_on channel=2 note=78 velocity=0 time=0@note_on channel=2 note=79 velocity=100 time=0@note_on channel=3 note=59 velocity=0 time=0@note_on channel=3 note=64 velocity=0 time=0@note_on channel=3 note=52 velocity=100 time=0@note_on channel=2 note=79 velocity=0 time=0.051724124999999996@note_on channel=2 note=81 velocity=100 time=0@note_on channel=2 note=81 velocity=0 time=0.051724124999999996@note_on channel=2 note=83 velocity=100 time=0@note_on channel=2 note=83 velocity=0 time=0.10344824999999999@note_on channel=2 note=78 velocity=100 time=0@note_on channel=2 note=81 velocity=100 time=0@note_on channel=3 note=52 velocity=0 time=0@note_on channel=3 note=64 velocity=100 time=0@note_on channel=3 note=59 velocity=100 time=0@note_on channel=2 note=81 velocity=0 time=0.20689649999999998@note_on channel=2 note=78 velocity=0 time=0@note_on channel=2 note=79 velocity=100 time=0@note_on channel=2 note=76 velocity=100 time=0@note_on channel=3 note=59 velocity=0 time=0@note_on channel=3 note=64 velocity=0 time=0@note_on channel=3 note=47 velocity=100 time=0@note_on channel=2 note=76 velocity=0 time=0.20689649999999998@note_on channel=2 note=79 velocity=0 time=0@note_on channel=2 note=78 velocity=100 time=0@note_on channel=2 note=75 velocity=100 time=0@note_on channel=3 note=47 velocity=0 time=0@note_on channel=3 note=59 velocity=100 time=0@note_on channel=2 note=75 velocity=0 time=0.20689649999999998@note_on channel=2 note=78 velocity=0 time=0@note_on channel=2 note=76 velocity=100 time=0@note_on channel=3 note=59 velocity=0 time=0@note_on channel=3 note=52 velocity=100 time=0@note_on channel=2 note=76 velocity=0 time=0.41379299999999997@note_on channel=3 note=52 velocity=0 time=0@note_on channel=4 note=72 velocity=100 time=0@note_on channel=4 note=76 velocity=100 time=0@note_on channel=4 note=76 velocity=0 time=0.20689649999999998@note_on channel=4 note=72 velocity=0 time=0@note_on channel=4 note=74 velocity=100 time=0@note_on channel=4 note=77 velocity=100 time=0@note_on channel=4 note=77 velocity=0 time=0.20689649999999998@note_on channel=4 note=74 velocity=0 time=0@note_on channel=4 note=79 velocity=100 time=0@note_on channel=4 note=76 velocity=100 time=0@note_on channel=5 note=48 velocity=100 time=0@note_on channel=4 note=76 velocity=0 time=0.20689649999999998@note_on channel=4 note=79 velocity=0 time=0@note_on channel=4 note=79 velocity=100 time=0@note_on channel=4 note=76 velocity=100 time=0@note_on channel=5 note=48 velocity=0 time=0@note_on channel=5 note=60 velocity=100 time=0@note_on channel=4 note=76 velocity=0 time=0.20689649999999998@note_on channel=4 note=79 velocity=0 time=0@note_on channel=4 note=81 velocity=100 time=0@note_on channel=5 note=60 velocity=0 time=0@note_on channel=5 note=52 velocity=100 time=0@note_on channel=4 note=81 velocity=0 time=0.10344824999999999@note_on channel=4 note=79 velocity=100 time=0@note_on channel=4 note=79 velocity=0 time=0.10344824999999999@note_on channel=4 note=77 velocity=100 time=0@note_on channel=5 note=52 velocity=0 time=0@note_on channel=5 note=64 velocity=100 time=0@note_on channel=4 note=77 velocity=0 time=0.10344824999999999@note_on channel=4 note=76 velocity=100 time=0@note_on channel=4 note=76 velocity=0 time=0.10344824999999999@note_on channel=4 note=71 velocity=100 time=0@note_on channel=4 note=74 velocity=100 time=0@note_on channel=5 note=64 velocity=0 time=0@note_on channel=5 note=55 velocity=100 time=0@note_on channel=4 note=71 velocity=0 time=0.20689649999999998@note_on channel=4 note=67 velocity=100 time=0@note_on channel=4 note=67 velocity=0 time=0.20689649999999998@note_on channel=4 note=74 velocity=0 time=0@note_on channel=4 note=76 velocity=100 time=0@note_on channel=4 note=72 velocity=100 time=0@note_on channel=5 note=55 velocity=0 time=0@note_on channel=4 note=72 velocity=0 time=0.20689649999999998@note_on channel=4 note=76 velocity=0 time=0@note_on channel=4 note=77 velocity=100 time=0@note_on channel=4 note=74 velocity=100 time=0@note_on channel=4 note=74 velocity=0 time=0.20689649999999998@note_on channel=4 note=77 velocity=0 time=0@note_on channel=4 note=79 velocity=100 time=0@note_on channel=4 note=76 velocity=100 time=0@note_on channel=5 note=48 velocity=100 time=0@note_on channel=4 note=76 velocity=0 time=0.20689649999999998@note_on channel=4 note=79 velocity=0 time=0@note_on channel=4 note=79 velocity=100 time=0@note_on channel=4 note=76 velocity=100 time=0@note_on channel=5 note=48 velocity=0 time=0@note_on channel=5 note=60 velocity=100 time=0@note_on channel=4 note=76 velocity=0 time=0.20689649999999998@note_on channel=4 note=79 velocity=0 time=0@note_on channel=4 note=81 velocity=100 time=0@note_on channel=5 note=60 velocity=0 time=0@note_on channel=5 note=52 velocity=100 time=0@note_on channel=4 note=81 velocity=0 time=0.10344824999999999@note_on channel=4 note=79 velocity=100 time=0@note_on channel=4 note=79 velocity=0 time=0.10344824999999999@note_on channel=4 note=77 velocity=100 time=0@note_on channel=5 note=52 velocity=0 time=0@note_on channel=5 note=64 velocity=100 time=0@note_on channel=4 note=77 velocity=0 time=0.10344824999999999@note_on channel=4 note=76 velocity=100 time=0@note_on channel=4 note=76 velocity=0 time=0.10344824999999999@note_on channel=4 note=71 velocity=100 time=0@note_on channel=4 note=74 velocity=100 time=0@note_on channel=5 note=64 velocity=0 time=0@note_on channel=5 note=55 velocity=100 time=0@note_on channel=4 note=74 velocity=0 time=0.41379299999999997@note_on channel=4 note=71 velocity=0 time=0@note_on channel=4 note=69 velocity=100 time=0@note_on channel=4 note=72 velocity=100 time=0@note_on channel=5 note=55 velocity=0 time=0@note_on channel=4 note=72 velocity=0 time=0.20689649999999998@note_on channel=4 note=69 velocity=0 time=0@note_on channel=4 note=71 velocity=100 time=0@note_on channel=4 note=74 velocity=100 time=0@note_on channel=4 note=74 velocity=0 time=0.20689649999999998@note_on channel=4 note=71 velocity=0 time=0@note_on channel=4 note=72 velocity=100 time=0@note_on channel=4 note=76 velocity=100 time=0@note_on channel=5 note=45 velocity=100 time=0@note_on channel=4 note=76 velocity=0 time=0.20689649999999998@note_on channel=4 note=72 velocity=0 time=0@note_on channel=4 note=72 velocity=100 time=0@note_on channel=4 note=76 velocity=100 time=0@note_on channel=5 note=45 velocity=0 time=0@note_on channel=5 note=57 velocity=100 time=0@note_on channel=4 note=76 velocity=0 time=0.20689649999999998@note_on channel=4 note=72 velocity=0 time=0@note_on channel=4 note=77 velocity=100 time=0@note_on channel=5 note=57 velocity=0 time=0@note_on channel=5 note=48 velocity=100 time=0@note_on channel=4 note=77 velocity=0 time=0.10344824999999999@note_on channel=4 note=76 velocity=100 time=0@note_on channel=4 note=76 velocity=0 time=0.10344824999999999@note_on channel=4 note=74 velocity=100 time=0@note_on channel=5 note=48 velocity=0 time=0@note_on channel=5 note=60 velocity=100 time=0@note_on channel=4 note=74 velocity=0 time=0.10344824999999999@note_on channel=4 note=72 velocity=100 time=0@note_on channel=4 note=72 velocity=0 time=0.10344824999999999@note_on channel=4 note=68 velocity=100 time=0@note_on channel=4 note=71 velocity=100 time=0@note_on channel=5 note=60 velocity=0 time=0@note_on channel=5 note=52 velocity=100 time=0@note_on channel=4 note=68 velocity=0 time=0.20689649999999998@note_on channel=4 note=64 velocity=100 time=0@note_on channel=4 note=64 velocity=0 time=0.20689649999999998@note_on channel=4 note=71 velocity=0 time=0@note_on channel=4 note=72 velocity=100 time=0@note_on channel=4 note=69 velocity=100 time=0@note_on channel=5 note=52 velocity=0 time=0@note_on channel=4 note=69 velocity=0 time=0.20689649999999998@note_on channel=4 note=72 velocity=0 time=0@note_on channel=4 note=74 velocity=100 time=0@note_on channel=4 note=71 velocity=100 time=0@note_on channel=4 note=71 velocity=0 time=0.20689649999999998@note_on channel=4 note=74 velocity=0 time=0@note_on channel=4 note=72 velocity=100 time=0@note_on channel=4 note=76 velocity=100 time=0@note_on channel=5 note=45 velocity=100 time=0@note_on channel=4 note=76 velocity=0 time=0.20689649999999998@note_on channel=4 note=72 velocity=0 time=0@note_on channel=4 note=72 velocity=100 time=0@note_on channel=4 note=76 velocity=100 time=0@note_on channel=5 note=45 velocity=0 time=0@note_on channel=5 note=57 velocity=100 time=0@note_on channel=4 note=76 velocity=0 time=0.20689649999999998@note_on channel=4 note=72 velocity=0 time=0@note_on channel=4 note=77 velocity=100 time=0@note_on channel=5 note=57 velocity=0 time=0@note_on channel=5 note=48 velocity=100 time=0@note_on channel=4 note=77 velocity=0 time=0.10344824999999999@note_on channel=4 note=76 velocity=100 time=0@note_on channel=4 note=76 velocity=0 time=0.10344824999999999@note_on channel=4 note=74 velocity=100 time=0@note_on channel=5 note=48 velocity=0 time=0@note_on channel=5 note=60 velocity=100 time=0@note_on channel=4 note=74 velocity=0 time=0.10344824999999999@note_on channel=4 note=72 velocity=100 time=0@note_on channel=4 note=72 velocity=0 time=0.10344824999999999@note_on channel=4 note=68 velocity=100 time=0@note_on channel=4 note=71 velocity=100 time=0@note_on channel=5 note=60 velocity=0 time=0@note_on channel=5 note=52 velocity=100 time=0@note_on channel=0 note=71 velocity=100 time=0.41379299999999997@note_on channel=4 note=71 velocity=0 time=0@note_on channel=4 note=68 velocity=0 time=0@note_on channel=5 note=52 velocity=0 time=0@note_on channel=0 note=71 velocity=0 time=0.10344824999999999@note_on channel=0 note=69 velocity=100 time=0@note_on channel=0 note=69 velocity=0 time=0.10344824999999999@note_on channel=0 note=68 velocity=100 time=0@note_on channel=0 note=68 velocity=0 time=0.10344824999999999@note_on channel=0 note=69 velocity=100 time=0@note_on channel=0 note=69 velocity=0 time=0.10344824999999999@note_on channel=0 note=72 velocity=100 time=0@note_on channel=1 note=57 velocity=100 time=0@note_on channel=0 note=72 velocity=0 time=0.20689649999999998@note_on channel=1 note=57 velocity=0 time=0@note_on channel=1 note=64 velocity=100 time=0@note_on channel=1 note=60 velocity=100 time=0@note_on channel=0 note=74 velocity=100 time=0.20689649999999998@note_on channel=1 note=60 velocity=0 time=0@note_on channel=1 note=64 velocity=0 time=0@note_on channel=1 note=64 velocity=100 time=0@note_on channel=1 note=60 velocity=100 time=0@note_on channel=0 note=74 velocity=0 time=0.10344824999999999@note_on channel=0 note=72 velocity=100 time=0@note_on channel=0 note=72 velocity=0 time=0.10344824999999999@note_on channel=0 note=71 velocity=100 time=0@note_on channel=1 note=60 velocity=0 time=0@note_on channel=1 note=64 velocity=0 time=0@note_on channel=1 note=64 velocity=100 time=0@note_on channel=1 note=60 velocity=100 time=0@note_on channel=0 note=71 velocity=0 time=0.10344824999999999@note_on channel=0 note=72 velocity=100 time=0@note_on channel=0 note=72 velocity=0 time=0.10344824999999999@note_on channel=0 note=76 velocity=100 time=0@note_on channel=1 note=60 velocity=0 time=0@note_on channel=1 note=64 velocity=0 time=0@note_on channel=1 note=57 velocity=100 time=0@note_on channel=0 note=76 velocity=0 time=0.20689649999999998@note_on channel=1 note=57 velocity=0 time=0@note_on channel=1 note=64 velocity=100 time=0@note_on channel=1 note=60 velocity=100 time=0@note_on channel=0 note=77 velocity=100 time=0.20689649999999998@note_on channel=1 note=60 velocity=0 time=0@note_on channel=1 note=64 velocity=0 time=0@note_on channel=1 note=64 velocity=100 time=0@note_on channel=1 note=60 velocity=100 time=0@note_on channel=0 note=77 velocity=0 time=0.10344824999999999@note_on channel=0 note=76 velocity=100 time=0@note_on channel=0 note=76 velocity=0 time=0.10344824999999999@note_on channel=0 note=75 velocity=100 time=0@note_on channel=1 note=60 velocity=0 time=0@note_on channel=1 note=64 velocity=0 time=0@note_on channel=1 note=64 velocity=100 time=0@note_on channel=1 note=60 velocity=100 time=0@note_on channel=0 note=75 velocity=0 time=0.10344824999999999@note_on channel=0 note=76 velocity=100 time=0@note_on channel=0 note=76 velocity=0 time=0.10344824999999999@note_on channel=0 note=83 velocity=100 time=0@note_on channel=1 note=60 velocity=0 time=0@note_on channel=1 note=64 velocity=0 time=0@note_on channel=1 note=57 velocity=100 time=0@note_on channel=0 note=83 velocity=0 time=0.10344824999999999@note_on channel=0 note=81 velocity=100 time=0@note_on channel=0 note=81 velocity=0 time=0.10344824999999999@note_on channel=0 note=80 velocity=100 time=0@note_on channel=1 note=57 velocity=0 time=0@note_on channel=1 note=64 velocity=100 time=0@note_on channel=1 note=60 velocity=100 time=0@note_on channel=0 note=80 velocity=0 time=0.10344824999999999@note_on channel=0 note=81 velocity=100 time=0@note_on channel=0 note=81 velocity=0 time=0.10344824999999999@note_on channel=0 note=83 velocity=100 time=0@note_on channel=1 note=60 velocity=0 time=0@note_on channel=1 note=64 velocity=0 time=0@note_on channel=1 note=57 velocity=100 time=0@note_on channel=0 note=83 velocity=0 time=0.10344824999999999@note_on channel=0 note=81 velocity=100 time=0@note_on channel=0 note=81 velocity=0 time=0.10344824999999999@note_on channel=0 note=80 velocity=100 time=0@note_on channel=1 note=57 velocity=0 time=0@note_on channel=1 note=64 velocity=100 time=0@note_on channel=1 note=60 velocity=100 time=0@note_on channel=0 note=80 velocity=0 time=0.10344824999999999@note_on channel=0 note=81 velocity=100 time=0@note_on channel=0 note=81 velocity=0 time=0.10344824999999999@note_on channel=0 note=84 velocity=100 time=0@note_on channel=1 note=60 velocity=0 time=0@note_on channel=1 note=64 velocity=0 time=0@note_on channel=1 note=53 velocity=100 time=0@note_on channel=1 note=53 velocity=0 time=0.20689649999999998@note_on channel=1 note=63 velocity=100 time=0@note_on channel=1 note=57 velocity=100 time=0@note_on channel=0 note=84 velocity=0 time=0.20689649999999998@note_on channel=0 note=81 velocity=100 time=0@note_on channel=1 note=57 velocity=0 time=0@note_on channel=1 note=63 velocity=0 time=0@note_on channel=1 note=63 velocity=100 time=0@note_on channel=1 note=57 velocity=100 time=0@note_on channel=0 note=81 velocity=0 time=0.20689649999999998@note_on channel=0 note=83 velocity=100 time=0@note_on channel=1 note=57 velocity=0 time=0@note_on channel=1 note=63 velocity=0 time=0@note_on channel=1 note=63 velocity=100 time=0@note_on channel=1 note=57 velocity=100 time=0@note_on channel=0 note=83 velocity=0 time=0.20689649999999998@note_on channel=0 note=84 velocity=100 time=0@note_on channel=1 note=57 velocity=0 time=0@note_on channel=1 note=63 velocity=0 time=0@note_on channel=1 note=52 velocity=100 time=0@note_on channel=0 note=84 velocity=0 time=0.20689649999999998@note_on channel=0 note=83 velocity=100 time=0@note_on channel=1 note=52 velocity=0 time=0@note_on channel=1 note=64 velocity=100 time=0@note_on channel=1 note=57 velocity=100 time=0@note_on channel=0 note=83 velocity=0 time=0.20689649999999998@note_on channel=0 note=81 velocity=100 time=0@note_on channel=1 note=57 velocity=0 time=0@note_on channel=1 note=64 velocity=0 time=0@note_on channel=1 note=50 velocity=100 time=0@note_on channel=0 note=81 velocity=0 time=0.20689649999999998@note_on channel=0 note=80 velocity=100 time=0@note_on channel=1 note=50 velocity=0 time=0@note_on channel=1 note=59 velocity=100 time=0@note_on channel=1 note=53 velocity=100 time=0@note_on channel=0 note=80 velocity=0 time=0.20689649999999998@note_on channel=0 note=81 velocity=100 time=0@note_on channel=1 note=53 velocity=0 time=0@note_on channel=1 note=59 velocity=0 time=0@note_on channel=1 note=48 velocity=100 time=0@note_on channel=0 note=81 velocity=0 time=0.20689649999999998@note_on channel=0 note=76 velocity=100 time=0@note_on channel=1 note=48 velocity=0 time=0@note_on channel=1 note=57 velocity=100 time=0@note_on channel=1 note=52 velocity=100 time=0@note_on channel=0 note=76 velocity=0 time=0.20689649999999998@note_on channel=0 note=77 velocity=100 time=0@note_on channel=1 note=52 velocity=0 time=0@note_on channel=1 note=57 velocity=0 time=0@note_on channel=1 note=50 velocity=100 time=0@note_on channel=0 note=77 velocity=0 time=0.20689649999999998@note_on channel=0 note=74 velocity=100 time=0@note_on channel=1 note=50 velocity=0 time=0@note_on channel=1 note=59 velocity=100 time=0@note_on channel=1 note=53 velocity=100 time=0@note_on channel=0 note=74 velocity=0 time=0.20689649999999998@note_on channel=0 note=72 velocity=100 time=0@note_on channel=1 note=53 velocity=0 time=0@note_on channel=1 note=59 velocity=0 time=0@note_on channel=1 note=52 velocity=100 time=0@note_on channel=1 note=57 velocity=100 time=0@note_on channel=1 note=57 velocity=0 time=0.20689649999999998@note_on channel=1 note=52 velocity=0 time=0@note_on channel=1 note=52 velocity=100 time=0@note_on channel=1 note=57 velocity=100 time=0@note_on channel=0 note=72 velocity=0 time=0.20689649999999998@note_on channel=0 note=72 velocity=100 time=0@note_on channel=1 note=57 velocity=0 time=0@note_on channel=1 note=52 velocity=0 time=0@note_on channel=1 note=52 velocity=100 time=0@note_on channel=1 note=56 velocity=100 time=0@note_on channel=0 note=72 velocity=0 time=0.051724124999999996@note_on channel=0 note=71 velocity=100 time=0@note_on channel=0 note=71 velocity=0 time=0.051724124999999996@note_on channel=0 note=72 velocity=100 time=0@note_on channel=0 note=72 velocity=0 time=0.051724124999999996@note_on channel=0 note=71 velocity=100 time=0@note_on channel=0 note=71 velocity=0 time=0.051724124999999996@note_on channel=0 note=72 velocity=100 time=0@note_on channel=1 note=56 velocity=0 time=0@note_on channel=1 note=52 velocity=0 time=0@note_on channel=1 note=52 velocity=100 time=0@note_on channel=1 note=56 velocity=100 time=0@note_on channel=0 note=72 velocity=0 time=0.051724124999999996@note_on channel=0 note=71 velocity=100 time=0@note_on channel=0 note=71 velocity=0 time=0.051724124999999996@note_on channel=0 note=69 velocity=100 time=0@note_on channel=0 note=69 velocity=0 time=0.051724124999999996@note_on channel=0 note=71 velocity=100 time=0@note_on channel=0 note=71 velocity=0 time=0.051724124999999996@note_on channel=0 note=69 velocity=100 time=0@note_on channel=1 note=56 velocity=0 time=0@note_on channel=1 note=52 velocity=0 time=0@note_on channel=1 note=45 velocity=100 time=0@note_on channel=1 note=57 velocity=100 time=0@note_on channel=0 note=69 velocity=0 time=0.41379299999999997@note_on channel=1 note=57 velocity=0 time=0@note_on channel=1 note=45 velocity=0 time=0@note_on channel=6 note=72 velocity=100 time=0@note_on channel=6 note=76 velocity=100 time=0@note_on channel=6 note=76 velocity=0 time=0.20689649999999998@note_on channel=6 note=72 velocity=0 time=0@note_on channel=6 note=74 velocity=100 time=0@note_on channel=6 note=77 velocity=100 time=0@note_on channel=6 note=77 velocity=0 time=0.20689649999999998@note_on channel=6 note=74 velocity=0 time=0@note_on channel=6 note=79 velocity=100 time=0@note_on channel=6 note=76 velocity=100 time=0@note_on channel=7 note=48 velocity=100 time=0@note_on channel=6 note=76 velocity=0 time=0.20689649999999998@note_on channel=6 note=79 velocity=0 time=0@note_on channel=6 note=79 velocity=100 time=0@note_on channel=6 note=76 velocity=100 time=0@note_on channel=7 note=48 velocity=0 time=0@note_on channel=7 note=60 velocity=100 time=0@note_on channel=6 note=76 velocity=0 time=0.20689649999999998@note_on channel=6 note=79 velocity=0 time=0@note_on channel=6 note=81 velocity=100 time=0@note_on channel=7 note=60 velocity=0 time=0@note_on channel=7 note=52 velocity=100 time=0@note_on channel=6 note=81 velocity=0 time=0.10344824999999999@note_on channel=6 note=79 velocity=100 time=0@note_on channel=6 note=79 velocity=0 time=0.10344824999999999@note_on channel=6 note=77 velocity=100 time=0@note_on channel=7 note=52 velocity=0 time=0@note_on channel=7 note=64 velocity=100 time=0@note_on channel=6 note=77 velocity=0 time=0.10344824999999999@note_on channel=6 note=76 velocity=100 time=0@note_on channel=6 note=76 velocity=0 time=0.10344824999999999@note_on channel=6 note=71 velocity=100 time=0@note_on channel=6 note=74 velocity=100 time=0@note_on channel=7 note=64 velocity=0 time=0@note_on channel=7 note=55 velocity=100 time=0@note_on channel=6 note=71 velocity=0 time=0.20689649999999998@note_on channel=6 note=67 velocity=100 time=0@note_on channel=6 note=67 velocity=0 time=0.20689649999999998@note_on channel=6 note=74 velocity=0 time=0@note_on channel=6 note=76 velocity=100 time=0@note_on channel=6 note=72 velocity=100 time=0@note_on channel=7 note=55 velocity=0 time=0@note_on channel=6 note=72 velocity=0 time=0.20689649999999998@note_on channel=6 note=76 velocity=0 time=0@note_on channel=6 note=77 velocity=100 time=0@note_on channel=6 note=74 velocity=100 time=0@note_on channel=6 note=74 velocity=0 time=0.20689649999999998@note_on channel=6 note=77 velocity=0 time=0@note_on channel=6 note=79 velocity=100 time=0@note_on channel=6 note=76 velocity=100 time=0@note_on channel=7 note=48 velocity=100 time=0@note_on channel=6 note=76 velocity=0 time=0.20689649999999998@note_on channel=6 note=79 velocity=0 time=0@note_on channel=6 note=79 velocity=100 time=0@note_on channel=6 note=76 velocity=100 time=0@note_on channel=7 note=48 velocity=0 time=0@note_on channel=7 note=60 velocity=100 time=0@note_on channel=6 note=76 velocity=0 time=0.20689649999999998@note_on channel=6 note=79 velocity=0 time=0@note_on channel=6 note=81 velocity=100 time=0@note_on channel=7 note=60 velocity=0 time=0@note_on channel=7 note=52 velocity=100 time=0@note_on channel=6 note=81 velocity=0 time=0.10344824999999999@note_on channel=6 note=79 velocity=100 time=0@note_on channel=6 note=79 velocity=0 time=0.10344824999999999@note_on channel=6 note=77 velocity=100 time=0@note_on channel=7 note=52 velocity=0 time=0@note_on channel=7 note=64 velocity=100 time=0@note_on channel=6 note=77 velocity=0 time=0.10344824999999999@note_on channel=6 note=76 velocity=100 time=0@note_on channel=6 note=76 velocity=0 time=0.10344824999999999@note_on channel=6 note=71 velocity=100 time=0@note_on channel=6 note=74 velocity=100 time=0@note_on channel=7 note=64 velocity=0 time=0@note_on channel=7 note=55 velocity=100 time=0@note_on channel=6 note=74 velocity=0 time=0.41379299999999997@note_on channel=6 note=71 velocity=0 time=0@note_on channel=6 note=69 velocity=100 time=0@note_on channel=6 note=72 velocity=100 time=0@note_on channel=7 note=55 velocity=0 time=0@note_on channel=6 note=72 velocity=0 time=0.20689649999999998@note_on channel=6 note=69 velocity=0 time=0@note_on channel=6 note=71 velocity=100 time=0@note_on channel=6 note=74 velocity=100 time=0@note_on channel=6 note=74 velocity=0 time=0.20689649999999998@note_on channel=6 note=71 velocity=0 time=0@note_on channel=6 note=72 velocity=100 time=0@note_on channel=6 note=76 velocity=100 time=0@note_on channel=7 note=45 velocity=100 time=0@note_on channel=6 note=76 velocity=0 time=0.20689649999999998@note_on channel=6 note=72 velocity=0 time=0@note_on channel=6 note=72 velocity=100 time=0@note_on channel=6 note=76 velocity=100 time=0@note_on channel=7 note=45 velocity=0 time=0@note_on channel=7 note=57 velocity=100 time=0@note_on channel=6 note=76 velocity=0 time=0.20689649999999998@note_on channel=6 note=72 velocity=0 time=0@note_on channel=6 note=77 velocity=100 time=0@note_on channel=7 note=57 velocity=0 time=0@note_on channel=7 note=48 velocity=100 time=0@note_on channel=6 note=77 velocity=0 time=0.10344824999999999@note_on channel=6 note=76 velocity=100 time=0@note_on channel=6 note=76 velocity=0 time=0.10344824999999999@note_on channel=6 note=74 velocity=100 time=0@note_on channel=7 note=48 velocity=0 time=0@note_on channel=7 note=60 velocity=100 time=0@note_on channel=6 note=74 velocity=0 time=0.10344824999999999@note_on channel=6 note=72 velocity=100 time=0@note_on channel=6 note=72 velocity=0 time=0.10344824999999999@note_on channel=6 note=68 velocity=100 time=0@note_on channel=6 note=71 velocity=100 time=0@note_on channel=7 note=60 velocity=0 time=0@note_on channel=7 note=52 velocity=100 time=0@note_on channel=6 note=68 velocity=0 time=0.20689649999999998@note_on channel=6 note=64 velocity=100 time=0@note_on channel=6 note=64 velocity=0 time=0.20689649999999998@note_on channel=6 note=71 velocity=0 time=0@note_on channel=6 note=72 velocity=100 time=0@note_on channel=6 note=69 velocity=100 time=0@note_on channel=7 note=52 velocity=0 time=0@note_on channel=6 note=69 velocity=0 time=0.20689649999999998@note_on channel=6 note=72 velocity=0 time=0@note_on channel=6 note=74 velocity=100 time=0@note_on channel=6 note=71 velocity=100 time=0@note_on channel=6 note=71 velocity=0 time=0.20689649999999998@note_on channel=6 note=74 velocity=0 time=0@note_on channel=6 note=72 velocity=100 time=0@note_on channel=6 note=76 velocity=100 time=0@note_on channel=7 note=45 velocity=100 time=0@note_on channel=6 note=76 velocity=0 time=0.20689649999999998@note_on channel=6 note=72 velocity=0 time=0@note_on channel=6 note=72 velocity=100 time=0@note_on channel=6 note=76 velocity=100 time=0@note_on channel=7 note=45 velocity=0 time=0@note_on channel=7 note=57 velocity=100 time=0@note_on channel=6 note=76 velocity=0 time=0.20689649999999998@note_on channel=6 note=72 velocity=0 time=0@note_on channel=6 note=77 velocity=100 time=0@note_on channel=7 note=57 velocity=0 time=0@note_on channel=7 note=48 velocity=100 time=0@note_on channel=6 note=77 velocity=0 time=0.10344824999999999@note_on channel=6 note=76 velocity=100 time=0@note_on channel=6 note=76 velocity=0 time=0.10344824999999999@note_on channel=6 note=74 velocity=100 time=0@note_on channel=7 note=48 velocity=0 time=0@note_on channel=7 note=60 velocity=100 time=0@note_on channel=6 note=74 velocity=0 time=0.10344824999999999@note_on channel=6 note=72 velocity=100 time=0@note_on channel=6 note=72 velocity=0 time=0.10344824999999999@note_on channel=6 note=68 velocity=100 time=0@note_on channel=6 note=71 velocity=100 time=0@note_on channel=7 note=60 velocity=0 time=0@note_on channel=7 note=52 velocity=100 time=0@note_on channel=2 note=71 velocity=100 time=0.41379299999999997@note_on channel=6 note=71 velocity=0 time=0@note_on channel=6 note=68 velocity=0 time=0@note_on channel=7 note=52 velocity=0 time=0@note_on channel=2 note=71 velocity=0 time=0.10344824999999999@note_on channel=2 note=69 velocity=100 time=0@note_on channel=2 note=69 velocity=0 time=0.10344824999999999@note_on channel=2 note=68 velocity=100 time=0@note_on channel=2 note=68 velocity=0 time=0.10344824999999999@note_on channel=2 note=69 velocity=100 time=0@note_on channel=2 note=69 velocity=0 time=0.10344824999999999@note_on channel=2 note=72 velocity=100 time=0@note_on channel=3 note=57 velocity=100 time=0@note_on channel=2 note=72 velocity=0 time=0.20689649999999998@note_on channel=3 note=57 velocity=0 time=0@note_on channel=3 note=64 velocity=100 time=0@note_on channel=3 note=60 velocity=100 time=0@note_on channel=2 note=74 velocity=100 time=0.20689649999999998@note_on channel=3 note=60 velocity=0 time=0@note_on channel=3 note=64 velocity=0 time=0@note_on channel=3 note=64 velocity=100 time=0@note_on channel=3 note=60 velocity=100 time=0@note_on channel=2 note=74 velocity=0 time=0.10344824999999999@note_on channel=2 note=72 velocity=100 time=0@note_on channel=2 note=72 velocity=0 time=0.10344824999999999@note_on channel=2 note=71 velocity=100 time=0@note_on channel=3 note=60 velocity=0 time=0@note_on channel=3 note=64 velocity=0 time=0@note_on channel=3 note=64 velocity=100 time=0@note_on channel=3 note=60 velocity=100 time=0@note_on channel=2 note=71 velocity=0 time=0.10344824999999999@note_on channel=2 note=72 velocity=100 time=0@note_on channel=2 note=72 velocity=0 time=0.10344824999999999@note_on channel=2 note=76 velocity=100 time=0@note_on channel=3 note=60 velocity=0 time=0@note_on channel=3 note=64 velocity=0 time=0@note_on channel=3 note=57 velocity=100 time=0@note_on channel=2 note=76 velocity=0 time=0.20689649999999998@note_on channel=3 note=57 velocity=0 time=0@note_on channel=3 note=64 velocity=100 time=0@note_on channel=3 note=60 velocity=100 time=0@note_on channel=2 note=77 velocity=100 time=0.20689649999999998@note_on channel=3 note=60 velocity=0 time=0@note_on channel=3 note=64 velocity=0 time=0@note_on channel=3 note=64 velocity=100 time=0@note_on channel=3 note=60 velocity=100 time=0@note_on channel=2 note=77 velocity=0 time=0.10344824999999999@note_on channel=2 note=76 velocity=100 time=0@note_on channel=2 note=76 velocity=0 time=0.10344824999999999@note_on channel=2 note=75 velocity=100 time=0@note_on channel=3 note=60 velocity=0 time=0@note_on channel=3 note=64 velocity=0 time=0@note_on channel=3 note=64 velocity=100 time=0@note_on channel=3 note=60 velocity=100 time=0@note_on channel=2 note=75 velocity=0 time=0.10344824999999999@note_on channel=2 note=76 velocity=100 time=0@note_on channel=2 note=76 velocity=0 time=0.10344824999999999@note_on channel=2 note=83 velocity=100 time=0@note_on channel=3 note=60 velocity=0 time=0@note_on channel=3 note=64 velocity=0 time=0@note_on channel=3 note=57 velocity=100 time=0@note_on channel=2 note=83 velocity=0 time=0.10344824999999999@note_on channel=2 note=81 velocity=100 time=0@note_on channel=2 note=81 velocity=0 time=0.10344824999999999@note_on channel=2 note=80 velocity=100 time=0@note_on channel=3 note=57 velocity=0 time=0@note_on channel=3 note=64 velocity=100 time=0@note_on channel=3 note=60 velocity=100 time=0@note_on channel=2 note=80 velocity=0 time=0.10344824999999999@note_on channel=2 note=81 velocity=100 time=0@note_on channel=2 note=81 velocity=0 time=0.10344824999999999@note_on channel=2 note=83 velocity=100 time=0@note_on channel=3 note=60 velocity=0 time=0@note_on channel=3 note=64 velocity=0 time=0@note_on channel=3 note=57 velocity=100 time=0@note_on channel=2 note=83 velocity=0 time=0.10344824999999999@note_on channel=2 note=81 velocity=100 time=0@note_on channel=2 note=81 velocity=0 time=0.10344824999999999@note_on channel=2 note=80 velocity=100 time=0@note_on channel=3 note=57 velocity=0 time=0@note_on channel=3 note=64 velocity=100 time=0@note_on channel=3 note=60 velocity=100 time=0@note_on channel=2 note=80 velocity=0 time=0.10344824999999999@note_on channel=2 note=81 velocity=100 time=0@note_on channel=2 note=81 velocity=0 time=0.10344824999999999@note_on channel=2 note=84 velocity=100 time=0@note_on channel=3 note=60 velocity=0 time=0@note_on channel=3 note=64 velocity=0 time=0@note_on channel=3 note=53 velocity=100 time=0@note_on channel=3 note=53 velocity=0 time=0.20689649999999998@note_on channel=3 note=63 velocity=100 time=0@note_on channel=3 note=57 velocity=100 time=0@note_on channel=2 note=84 velocity=0 time=0.20689649999999998@note_on channel=2 note=81 velocity=100 time=0@note_on channel=3 note=57 velocity=0 time=0@note_on channel=3 note=63 velocity=0 time=0@note_on channel=3 note=63 velocity=100 time=0@note_on channel=3 note=57 velocity=100 time=0@note_on channel=2 note=81 velocity=0 time=0.20689649999999998@note_on channel=2 note=83 velocity=100 time=0@note_on channel=3 note=57 velocity=0 time=0@note_on channel=3 note=63 velocity=0 time=0@note_on channel=3 note=63 velocity=100 time=0@note_on channel=3 note=57 velocity=100 time=0@note_on channel=2 note=83 velocity=0 time=0.20689649999999998@note_on channel=2 note=84 velocity=100 time=0@note_on channel=3 note=57 velocity=0 time=0@note_on channel=3 note=63 velocity=0 time=0@note_on channel=3 note=52 velocity=100 time=0@note_on channel=2 note=84 velocity=0 time=0.20689649999999998@note_on channel=2 note=83 velocity=100 time=0@note_on channel=3 note=52 velocity=0 time=0@note_on channel=3 note=64 velocity=100 time=0@note_on channel=3 note=57 velocity=100 time=0@note_on channel=2 note=83 velocity=0 time=0.20689649999999998@note_on channel=2 note=81 velocity=100 time=0@note_on channel=3 note=57 velocity=0 time=0@note_on channel=3 note=64 velocity=0 time=0@note_on channel=3 note=50 velocity=100 time=0@note_on channel=2 note=81 velocity=0 time=0.20689649999999998@note_on channel=2 note=80 velocity=100 time=0@note_on channel=3 note=50 velocity=0 time=0@note_on channel=3 note=59 velocity=100 time=0@note_on channel=3 note=53 velocity=100 time=0@note_on channel=2 note=80 velocity=0 time=0.20689649999999998@note_on channel=2 note=81 velocity=100 time=0@note_on channel=3 note=53 velocity=0 time=0@note_on channel=3 note=59 velocity=0 time=0@note_on channel=3 note=48 velocity=100 time=0@note_on channel=2 note=81 velocity=0 time=0.20689649999999998@note_on channel=2 note=76 velocity=100 time=0@note_on channel=3 note=48 velocity=0 time=0@note_on channel=3 note=57 velocity=100 time=0@note_on channel=3 note=52 velocity=100 time=0@note_on channel=2 note=76 velocity=0 time=0.20689649999999998@note_on channel=2 note=77 velocity=100 time=0@note_on channel=3 note=52 velocity=0 time=0@note_on channel=3 note=57 velocity=0 time=0@note_on channel=3 note=50 velocity=100 time=0@note_on channel=2 note=77 velocity=0 time=0.20689649999999998@note_on channel=2 note=74 velocity=100 time=0@note_on channel=3 note=50 velocity=0 time=0@note_on channel=3 note=59 velocity=100 time=0@note_on channel=3 note=53 velocity=100 time=0@note_on channel=2 note=74 velocity=0 time=0.20689649999999998@note_on channel=2 note=72 velocity=100 time=0@note_on channel=3 note=53 velocity=0 time=0@note_on channel=3 note=59 velocity=0 time=0@note_on channel=3 note=52 velocity=100 time=0@note_on channel=3 note=57 velocity=100 time=0@note_on channel=3 note=57 velocity=0 time=0.20689649999999998@note_on channel=3 note=52 velocity=0 time=0@note_on channel=3 note=52 velocity=100 time=0@note_on channel=3 note=57 velocity=100 time=0@note_on channel=2 note=72 velocity=0 time=0.20689649999999998@note_on channel=2 note=72 velocity=100 time=0@note_on channel=3 note=57 velocity=0 time=0@note_on channel=3 note=52 velocity=0 time=0@note_on channel=3 note=52 velocity=100 time=0@note_on channel=3 note=56 velocity=100 time=0@note_on channel=2 note=72 velocity=0 time=0.051724124999999996@note_on channel=2 note=71 velocity=100 time=0@note_on channel=2 note=71 velocity=0 time=0.051724124999999996@note_on channel=2 note=72 velocity=100 time=0@note_on channel=2 note=72 velocity=0 time=0.051724124999999996@note_on channel=2 note=71 velocity=100 time=0@note_on channel=2 note=71 velocity=0 time=0.051724124999999996@note_on channel=2 note=72 velocity=100 time=0@note_on channel=3 note=56 velocity=0 time=0@note_on channel=3 note=52 velocity=0 time=0@note_on channel=3 note=52 velocity=100 time=0@note_on channel=3 note=56 velocity=100 time=0@note_on channel=2 note=72 velocity=0 time=0.051724124999999996@note_on channel=2 note=71 velocity=100 time=0@note_on channel=2 note=71 velocity=0 time=0.051724124999999996@note_on channel=2 note=69 velocity=100 time=0@note_on channel=2 note=69 velocity=0 time=0.051724124999999996@note_on channel=2 note=71 velocity=100 time=0@note_on channel=2 note=71 velocity=0 time=0.051724124999999996@note_on channel=2 note=69 velocity=100 time=0@note_on channel=3 note=56 velocity=0 time=0@note_on channel=3 note=52 velocity=0 time=0@note_on channel=3 note=45 velocity=100 time=0@note_on channel=3 note=57 velocity=100 time=0@<meta message key_signature key='A' time=0.41379299999999997>@<meta message marker text='New' time=0>@note_on channel=2 note=69 velocity=0 time=0@note_on channel=3 note=57 velocity=0 time=0@note_on channel=3 note=45 velocity=0 time=0@note_on channel=4 note=81 velocity=100 time=0@note_on channel=4 note=69 velocity=100 time=0@note_on channel=4 note=69 velocity=0 time=0.20689649999999998@note_on channel=4 note=81 velocity=0 time=0@note_on channel=4 note=83 velocity=100 time=0@note_on channel=4 note=71 velocity=100 time=0@note_on channel=4 note=71 velocity=0 time=0.20689649999999998@note_on channel=4 note=83 velocity=0 time=0@note_on channel=4 note=73 velocity=100 time=0@note_on channel=4 note=85 velocity=100 time=0@note_on channel=5 note=57 velocity=100 time=0@note_on channel=5 note=57 velocity=0 time=0.20689649999999998@note_on channel=5 note=57 velocity=100 time=0@note_on channel=4 note=85 velocity=0 time=0.20689649999999998@note_on channel=4 note=73 velocity=0 time=0@note_on channel=4 note=69 velocity=100 time=0@note_on channel=4 note=81 velocity=100 time=0@note_on channel=5 note=57 velocity=0 time=0@note_on channel=5 note=57 velocity=100 time=0@note_on channel=4 note=81 velocity=0 time=0.20689649999999998@note_on channel=4 note=69 velocity=0 time=0@note_on channel=4 note=71 velocity=100 time=0@note_on channel=4 note=83 velocity=100 time=0@note_on channel=5 note=57 velocity=0 time=0@note_on channel=5 note=57 velocity=100 time=0@note_on channel=4 note=83 velocity=0 time=0.20689649999999998@note_on channel=4 note=71 velocity=0 time=0@note_on channel=4 note=73 velocity=100 time=0@note_on channel=4 note=85 velocity=100 time=0@note_on channel=5 note=57 velocity=0 time=0@note_on channel=5 note=57 velocity=100 time=0@note_on channel=4 note=85 velocity=0 time=0.20689649999999998@note_on channel=4 note=73 velocity=0 time=0@note_on channel=4 note=71 velocity=100 time=0@note_on channel=4 note=83 velocity=100 time=0@note_on channel=5 note=57 velocity=0 time=0@note_on channel=5 note=57 velocity=100 time=0@note_on channel=4 note=83 velocity=0 time=0.20689649999999998@note_on channel=4 note=71 velocity=0 time=0@note_on channel=4 note=69 velocity=100 time=0@note_on channel=4 note=81 velocity=100 time=0@note_on channel=5 note=57 velocity=0 time=0@note_on channel=5 note=57 velocity=100 time=0@note_on channel=4 note=81 velocity=0 time=0.20689649999999998@note_on channel=4 note=69 velocity=0 time=0@note_on channel=4 note=68 velocity=100 time=0@note_on channel=4 note=80 velocity=100 time=0@note_on channel=5 note=57 velocity=0 time=0@note_on channel=5 note=57 velocity=100 time=0@note_on channel=4 note=80 velocity=0 time=0.20689649999999998@note_on channel=4 note=68 velocity=0 time=0@note_on channel=4 note=78 velocity=100 time=0@note_on channel=4 note=66 velocity=100 time=0@note_on channel=5 note=57 velocity=0 time=0@note_on channel=5 note=50 velocity=100 time=0@note_on channel=4 note=66 velocity=0 time=0.20689649999999998@note_on channel=4 note=78 velocity=0 time=0@note_on channel=4 note=80 velocity=100 time=0@note_on channel=4 note=68 velocity=100 time=0@note_on channel=5 note=50 velocity=0 time=0@note_on channel=5 note=50 velocity=100 time=0@note_on channel=4 note=68 velocity=0 time=0.20689649999999998@note_on channel=4 note=80 velocity=0 time=0@note_on channel=4 note=81 velocity=100 time=0@note_on channel=4 note=69 velocity=100 time=0@note_on channel=5 note=50 velocity=0 time=0@note_on channel=5 note=51 velocity=100 time=0@note_on channel=4 note=69 velocity=0 time=0.20689649999999998@note_on channel=4 note=81 velocity=0 time=0@note_on channel=4 note=83 velocity=100 time=0@note_on channel=4 note=71 velocity=100 time=0@note_on channel=5 note=51 velocity=0 time=0@note_on channel=5 note=51 velocity=100 time=0@note_on channel=4 note=71 velocity=0 time=0.20689649999999998@note_on channel=4 note=83 velocity=0 time=0@note_on channel=4 note=80 velocity=100 time=0@note_on channel=4 note=68 velocity=100 time=0@note_on channel=5 note=51 velocity=0 time=0@note_on channel=5 note=52 velocity=100 time=0@note_on channel=4 note=68 velocity=0 time=0.20689649999999998@note_on channel=4 note=80 velocity=0 time=0@note_on channel=4 note=76 velocity=100 time=0@note_on channel=4 note=64 velocity=100 time=0@note_on channel=5 note=52 velocity=0 time=0@note_on channel=5 note=52 velocity=100 time=0@note_on channel=4 note=64 velocity=0 time=0.20689649999999998@note_on channel=4 note=76 velocity=0 time=0@note_on channel=4 note=81 velocity=100 time=0@note_on channel=4 note=69 velocity=100 time=0@note_on channel=5 note=52 velocity=0 time=0@note_on channel=5 note=52 velocity=100 time=0@note_on channel=4 note=69 velocity=0 time=0.20689649999999998@note_on channel=4 note=81 velocity=0 time=0@note_on channel=4 note=83 velocity=100 time=0@note_on channel=4 note=71 velocity=100 time=0@note_on channel=5 note=52 velocity=0 time=0@note_on channel=5 note=52 velocity=100 time=0@note_on channel=4 note=71 velocity=0 time=0.20689649999999998@note_on channel=4 note=83 velocity=0 time=0@note_on channel=4 note=73 velocity=100 time=0@note_on channel=4 note=85 velocity=100 time=0@note_on channel=5 note=52 velocity=0 time=0@note_on channel=5 note=57 velocity=100 time=0@note_on channel=5 note=57 velocity=0 time=0.20689649999999998@note_on channel=5 note=57 velocity=100 time=0@note_on channel=4 note=85 velocity=0 time=0.20689649999999998@note_on channel=4 note=73 velocity=0 time=0@note_on channel=4 note=81 velocity=100 time=0@note_on channel=4 note=69 velocity=100 time=0@note_on channel=5 note=57 velocity=0 time=0@note_on channel=5 note=57 velocity=100 time=0@note_on channel=4 note=69 velocity=0 time=0.20689649999999998@note_on channel=4 note=81 velocity=0 time=0@note_on channel=4 note=83 velocity=100 time=0@note_on channel=4 note=71 velocity=100 time=0@note_on channel=5 note=57 velocity=0 time=0@note_on channel=5 note=57 velocity=100 time=0@note_on channel=4 note=71 velocity=0 time=0.20689649999999998@note_on channel=4 note=83 velocity=0 time=0@note_on channel=4 note=73 velocity=100 time=0@note_on channel=4 note=85 velocity=100 time=0@note_on channel=5 note=57 velocity=0 time=0@note_on channel=5 note=57 velocity=100 time=0@note_on channel=4 note=85 velocity=0 time=0.20689649999999998@note_on channel=4 note=73 velocity=0 time=0@note_on channel=4 note=71 velocity=100 time=0@note_on channel=4 note=83 velocity=100 time=0@note_on channel=5 note=57 velocity=0 time=0@note_on channel=5 note=57 velocity=100 time=0@note_on channel=4 note=83 velocity=0 time=0.20689649999999998@note_on channel=4 note=71 velocity=0 time=0@note_on channel=4 note=69 velocity=100 time=0@note_on channel=4 note=81 velocity=100 time=0@note_on channel=5 note=57 velocity=0 time=0@note_on channel=5 note=57 velocity=100 time=0@note_on channel=4 note=81 velocity=0 time=0.20689649999999998@note_on channel=4 note=69 velocity=0 time=0@note_on channel=4 note=68 velocity=100 time=0@note_on channel=4 note=80 velocity=100 time=0@note_on channel=5 note=57 velocity=0 time=0@note_on channel=5 note=57 velocity=100 time=0@note_on channel=4 note=80 velocity=0 time=0.20689649999999998@note_on channel=4 note=68 velocity=0 time=0@note_on channel=4 note=78 velocity=100 time=0@note_on channel=4 note=66 velocity=100 time=0@note_on channel=5 note=57 velocity=0 time=0@note_on channel=5 note=50 velocity=100 time=0@note_on channel=4 note=66 velocity=0 time=0.20689649999999998@note_on channel=4 note=78 velocity=0 time=0@note_on channel=4 note=83 velocity=100 time=0@note_on channel=4 note=71 velocity=100 time=0@note_on channel=5 note=50 velocity=0 time=0@note_on channel=5 note=50 velocity=100 time=0@note_on channel=4 note=71 velocity=0 time=0.20689649999999998@note_on channel=4 note=83 velocity=0 time=0@note_on channel=4 note=80 velocity=100 time=0@note_on channel=4 note=68 velocity=100 time=0@note_on channel=5 note=50 velocity=0 time=0@note_on channel=5 note=52 velocity=100 time=0@note_on channel=4 note=68 velocity=0 time=0.20689649999999998@note_on channel=4 note=80 velocity=0 time=0@note_on channel=4 note=76 velocity=100 time=0@note_on channel=4 note=64 velocity=100 time=0@note_on channel=5 note=52 velocity=0 time=0@note_on channel=5 note=52 velocity=100 time=0@note_on channel=4 note=64 velocity=0 time=0.20689649999999998@note_on channel=4 note=76 velocity=0 time=0@note_on channel=4 note=69 velocity=100 time=0@note_on channel=4 note=81 velocity=100 time=0@note_on channel=5 note=52 velocity=0 time=0@note_on channel=5 note=45 velocity=100 time=0@note_on channel=4 note=81 velocity=0 time=0.41379299999999997@note_on channel=4 note=69 velocity=0 time=0@note_on channel=5 note=45 velocity=0 time=0@note_on channel=6 note=81 velocity=100 time=0@note_on channel=6 note=69 velocity=100 time=0@note_on channel=6 note=69 velocity=0 time=0.20689649999999998@note_on channel=6 note=81 velocity=0 time=0@note_on channel=6 note=83 velocity=100 time=0@note_on channel=6 note=71 velocity=100 time=0@note_on channel=6 note=71 velocity=0 time=0.20689649999999998@note_on channel=6 note=83 velocity=0 time=0@note_on channel=6 note=73 velocity=100 time=0@note_on channel=6 note=85 velocity=100 time=0@note_on channel=7 note=57 velocity=100 time=0@note_on channel=7 note=57 velocity=0 time=0.20689649999999998@note_on channel=7 note=57 velocity=100 time=0@note_on channel=6 note=85 velocity=0 time=0.20689649999999998@note_on channel=6 note=73 velocity=0 time=0@note_on channel=6 note=69 velocity=100 time=0@note_on channel=6 note=81 velocity=100 time=0@note_on channel=7 note=57 velocity=0 time=0@note_on channel=7 note=57 velocity=100 time=0@note_on channel=6 note=81 velocity=0 time=0.20689649999999998@note_on channel=6 note=69 velocity=0 time=0@note_on channel=6 note=71 velocity=100 time=0@note_on channel=6 note=83 velocity=100 time=0@note_on channel=7 note=57 velocity=0 time=0@note_on channel=7 note=57 velocity=100 time=0@note_on channel=6 note=83 velocity=0 time=0.20689649999999998@note_on channel=6 note=71 velocity=0 time=0@note_on channel=6 note=73 velocity=100 time=0@note_on channel=6 note=85 velocity=100 time=0@note_on channel=7 note=57 velocity=0 time=0@note_on channel=7 note=57 velocity=100 time=0@note_on channel=6 note=85 velocity=0 time=0.20689649999999998@note_on channel=6 note=73 velocity=0 time=0@note_on channel=6 note=71 velocity=100 time=0@note_on channel=6 note=83 velocity=100 time=0@note_on channel=7 note=57 velocity=0 time=0@note_on channel=7 note=57 velocity=100 time=0@note_on channel=6 note=83 velocity=0 time=0.20689649999999998@note_on channel=6 note=71 velocity=0 time=0@note_on channel=6 note=69 velocity=100 time=0@note_on channel=6 note=81 velocity=100 time=0@note_on channel=7 note=57 velocity=0 time=0@note_on channel=7 note=57 velocity=100 time=0@note_on channel=6 note=81 velocity=0 time=0.20689649999999998@note_on channel=6 note=69 velocity=0 time=0@note_on channel=6 note=68 velocity=100 time=0@note_on channel=6 note=80 velocity=100 time=0@note_on channel=7 note=57 velocity=0 time=0@note_on channel=7 note=57 velocity=100 time=0@note_on channel=6 note=80 velocity=0 time=0.20689649999999998@note_on channel=6 note=68 velocity=0 time=0@note_on channel=6 note=78 velocity=100 time=0@note_on channel=6 note=66 velocity=100 time=0@note_on channel=7 note=57 velocity=0 time=0@note_on channel=7 note=50 velocity=100 time=0@note_on channel=6 note=66 velocity=0 time=0.20689649999999998@note_on channel=6 note=78 velocity=0 time=0@note_on channel=6 note=80 velocity=100 time=0@note_on channel=6 note=68 velocity=100 time=0@note_on channel=7 note=50 velocity=0 time=0@note_on channel=7 note=50 velocity=100 time=0@note_on channel=6 note=68 velocity=0 time=0.20689649999999998@note_on channel=6 note=80 velocity=0 time=0@note_on channel=6 note=81 velocity=100 time=0@note_on channel=6 note=69 velocity=100 time=0@note_on channel=7 note=50 velocity=0 time=0@note_on channel=7 note=51 velocity=100 time=0@note_on channel=6 note=69 velocity=0 time=0.20689649999999998@note_on channel=6 note=81 velocity=0 time=0@note_on channel=6 note=83 velocity=100 time=0@note_on channel=6 note=71 velocity=100 time=0@note_on channel=7 note=51 velocity=0 time=0@note_on channel=7 note=51 velocity=100 time=0@note_on channel=6 note=71 velocity=0 time=0.20689649999999998@note_on channel=6 note=83 velocity=0 time=0@note_on channel=6 note=80 velocity=100 time=0@note_on channel=6 note=68 velocity=100 time=0@note_on channel=7 note=51 velocity=0 time=0@note_on channel=7 note=52 velocity=100 time=0@note_on channel=6 note=68 velocity=0 time=0.20689649999999998@note_on channel=6 note=80 velocity=0 time=0@note_on channel=6 note=76 velocity=100 time=0@note_on channel=6 note=64 velocity=100 time=0@note_on channel=7 note=52 velocity=0 time=0@note_on channel=7 note=52 velocity=100 time=0@note_on channel=6 note=64 velocity=0 time=0.20689649999999998@note_on channel=6 note=76 velocity=0 time=0@note_on channel=6 note=81 velocity=100 time=0@note_on channel=6 note=69 velocity=100 time=0@note_on channel=7 note=52 velocity=0 time=0@note_on channel=7 note=52 velocity=100 time=0@note_on channel=6 note=69 velocity=0 time=0.20689649999999998@note_on channel=6 note=81 velocity=0 time=0@note_on channel=6 note=83 velocity=100 time=0@note_on channel=6 note=71 velocity=100 time=0@note_on channel=7 note=52 velocity=0 time=0@note_on channel=7 note=52 velocity=100 time=0@note_on channel=6 note=71 velocity=0 time=0.20689649999999998@note_on channel=6 note=83 velocity=0 time=0@note_on channel=6 note=73 velocity=100 time=0@note_on channel=6 note=85 velocity=100 time=0@note_on channel=7 note=52 velocity=0 time=0@note_on channel=7 note=57 velocity=100 time=0@note_on channel=7 note=57 velocity=0 time=0.20689649999999998@note_on channel=7 note=57 velocity=100 time=0@note_on channel=6 note=85 velocity=0 time=0.20689649999999998@note_on channel=6 note=73 velocity=0 time=0@note_on channel=6 note=81 velocity=100 time=0@note_on channel=6 note=69 velocity=100 time=0@note_on channel=7 note=57 velocity=0 time=0@note_on channel=7 note=57 velocity=100 time=0@note_on channel=6 note=69 velocity=0 time=0.20689649999999998@note_on channel=6 note=81 velocity=0 time=0@note_on channel=6 note=83 velocity=100 time=0@note_on channel=6 note=71 velocity=100 time=0@note_on channel=7 note=57 velocity=0 time=0@note_on channel=7 note=57 velocity=100 time=0@note_on channel=6 note=71 velocity=0 time=0.20689649999999998@note_on channel=6 note=83 velocity=0 time=0@note_on channel=6 note=73 velocity=100 time=0@note_on channel=6 note=85 velocity=100 time=0@note_on channel=7 note=57 velocity=0 time=0@note_on channel=7 note=57 velocity=100 time=0@note_on channel=6 note=85 velocity=0 time=0.20689649999999998@note_on channel=6 note=73 velocity=0 time=0@note_on channel=6 note=71 velocity=100 time=0@note_on channel=6 note=83 velocity=100 time=0@note_on channel=7 note=57 velocity=0 time=0@note_on channel=7 note=57 velocity=100 time=0@note_on channel=6 note=83 velocity=0 time=0.20689649999999998@note_on channel=6 note=71 velocity=0 time=0@note_on channel=6 note=69 velocity=100 time=0@note_on channel=6 note=81 velocity=100 time=0@note_on channel=7 note=57 velocity=0 time=0@note_on channel=7 note=57 velocity=100 time=0@note_on channel=6 note=81 velocity=0 time=0.20689649999999998@note_on channel=6 note=69 velocity=0 time=0@note_on channel=6 note=68 velocity=100 time=0@note_on channel=6 note=80 velocity=100 time=0@note_on channel=7 note=57 velocity=0 time=0@note_on channel=7 note=57 velocity=100 time=0@note_on channel=6 note=80 velocity=0 time=0.20689649999999998@note_on channel=6 note=68 velocity=0 time=0@note_on channel=6 note=78 velocity=100 time=0@note_on channel=6 note=66 velocity=100 time=0@note_on channel=7 note=57 velocity=0 time=0@note_on channel=7 note=50 velocity=100 time=0@note_on channel=6 note=66 velocity=0 time=0.20689649999999998@note_on channel=6 note=78 velocity=0 time=0@note_on channel=6 note=83 velocity=100 time=0@note_on channel=6 note=71 velocity=100 time=0@note_on channel=7 note=50 velocity=0 time=0@note_on channel=7 note=50 velocity=100 time=0@note_on channel=6 note=71 velocity=0 time=0.20689649999999998@note_on channel=6 note=83 velocity=0 time=0@note_on channel=6 note=80 velocity=100 time=0@note_on channel=6 note=68 velocity=100 time=0@note_on channel=7 note=50 velocity=0 time=0@note_on channel=7 note=52 velocity=100 time=0@note_on channel=6 note=68 velocity=0 time=0.20689649999999998@note_on channel=6 note=80 velocity=0 time=0@note_on channel=6 note=76 velocity=100 time=0@note_on channel=6 note=64 velocity=100 time=0@note_on channel=7 note=52 velocity=0 time=0@note_on channel=7 note=52 velocity=100 time=0@note_on channel=6 note=64 velocity=0 time=0.20689649999999998@note_on channel=6 note=76 velocity=0 time=0@note_on channel=6 note=69 velocity=100 time=0@note_on channel=6 note=81 velocity=100 time=0@note_on channel=7 note=52 velocity=0 time=0@note_on channel=7 note=45 velocity=100 time=0@note_on channel=6 note=81 velocity=0 time=0.41379299999999997@note_on channel=6 note=69 velocity=0 time=0@note_on channel=7 note=45 velocity=0 time=0@note_on channel=8 note=85 velocity=100 time=0@note_on channel=8 note=85 velocity=0 time=0.10344824999999999@note_on channel=8 note=86 velocity=100 time=0@note_on channel=8 note=86 velocity=0 time=0.10344824999999999@note_on channel=8 note=85 velocity=100 time=0@note_on channel=8 note=85 velocity=0 time=0.10344824999999999@note_on channel=8 note=83 velocity=100 time=0@note_on channel=8 note=83 velocity=0 time=0.10344824999999999@note_on channel=8 note=81 velocity=100 time=0@note_on channel=10 note=54 velocity=100 time=0@note_on channel=8 note=81 velocity=0 time=0.10344824999999999@note_on channel=8 note=83 velocity=100 time=0@note_on channel=8 note=83 velocity=0 time=0.10344824999999999@note_on channel=8 note=81 velocity=100 time=0@note_on channel=10 note=54 velocity=0 time=0@note_on channel=10 note=61 velocity=100 time=0@note_on channel=10 note=57 velocity=100 time=0@note_on channel=8 note=81 velocity=0 time=0.10344824999999999@note_on channel=8 note=80 velocity=100 time=0@note_on channel=8 note=80 velocity=0 time=0.10344824999999999@note_on channel=8 note=78 velocity=100 time=0@note_on channel=10 note=57 velocity=0 time=0@note_on channel=10 note=61 velocity=0 time=0@note_on channel=10 note=61 velocity=100 time=0@note_on channel=10 note=57 velocity=100 time=0@note_on channel=8 note=78 velocity=0 time=0.10344824999999999@note_on channel=8 note=81 velocity=100 time=0@note_on channel=8 note=81 velocity=0 time=0.10344824999999999@note_on channel=8 note=80 velocity=100 time=0@note_on channel=10 note=57 velocity=0 time=0@note_on channel=10 note=61 velocity=0 time=0@note_on channel=10 note=61 velocity=100 time=0@note_on channel=10 note=57 velocity=100 time=0@note_on channel=8 note=80 velocity=0 time=0.10344824999999999@note_on channel=8 note=78 velocity=100 time=0@note_on channel=8 note=78 velocity=0 time=0.10344824999999999@note_on channel=8 note=77 velocity=100 time=0@note_on channel=10 note=57 velocity=0 time=0@note_on channel=10 note=61 velocity=0 time=0@note_on channel=10 note=56 velocity=100 time=0@note_on channel=8 note=77 velocity=0 time=0.10344824999999999@note_on channel=8 note=78 velocity=100 time=0@note_on channel=8 note=78 velocity=0 time=0.10344824999999999@note_on channel=8 note=80 velocity=100 time=0@note_on channel=10 note=56 velocity=0 time=0@note_on channel=10 note=61 velocity=100 time=0@note_on channel=10 note=59 velocity=100 time=0@note_on channel=8 note=80 velocity=0 time=0.10344824999999999@note_on channel=8 note=77 velocity=100 time=0@note_on channel=8 note=77 velocity=0 time=0.10344824999999999@note_on channel=8 note=73 velocity=100 time=0@note_on channel=10 note=59 velocity=0 time=0@note_on channel=10 note=61 velocity=0 time=0@note_on channel=10 note=61 velocity=100 time=0@note_on channel=10 note=59 velocity=100 time=0@note_on channel=8 note=73 velocity=0 time=0.10344824999999999@note_on channel=8 note=75 velocity=100 time=0@note_on channel=8 note=75 velocity=0 time=0.10344824999999999@note_on channel=8 note=77 velocity=100 time=0@note_on channel=10 note=59 velocity=0 time=0@note_on channel=10 note=61 velocity=0 time=0@note_on channel=10 note=61 velocity=100 time=0@note_on channel=10 note=59 velocity=100 time=0@note_on channel=8 note=77 velocity=0 time=0.10344824999999999@note_on channel=8 note=73 velocity=100 time=0@note_on channel=8 note=73 velocity=0 time=0.10344824999999999@note_on channel=8 note=78 velocity=100 time=0@note_on channel=10 note=59 velocity=0 time=0@note_on channel=10 note=61 velocity=0 time=0@note_on channel=10 note=54 velocity=100 time=0@note_on channel=8 note=78 velocity=0 time=0.10344824999999999@note_on channel=8 note=77 velocity=100 time=0@note_on channel=8 note=77 velocity=0 time=0.10344824999999999@note_on channel=8 note=78 velocity=100 time=0@note_on channel=10 note=54 velocity=0 time=0@note_on channel=10 note=61 velocity=100 time=0@note_on channel=10 note=57 velocity=100 time=0@note_on channel=8 note=78 velocity=0 time=0.10344824999999999@note_on channel=8 note=80 velocity=100 time=0@note_on channel=8 note=80 velocity=0 time=0.10344824999999999@note_on channel=8 note=81 velocity=100 time=0@note_on channel=10 note=57 velocity=0 time=0@note_on channel=10 note=61 velocity=0 time=0@note_on channel=10 note=61 velocity=100 time=0@note_on channel=10 note=57 velocity=100 time=0@note_on channel=8 note=81 velocity=0 time=0.10344824999999999@note_on channel=8 note=80 velocity=100 time=0@note_on channel=8 note=80 velocity=0 time=0.10344824999999999@note_on channel=8 note=81 velocity=100 time=0@note_on channel=10 note=57 velocity=0 time=0@note_on channel=10 note=61 velocity=0 time=0@note_on channel=10 note=61 velocity=100 time=0@note_on channel=10 note=57 velocity=100 time=0@note_on channel=8 note=81 velocity=0 time=0.10344824999999999@note_on channel=8 note=83 velocity=100 time=0@note_on channel=8 note=83 velocity=0 time=0.10344824999999999@note_on channel=8 note=85 velocity=100 time=0@note_on channel=10 note=57 velocity=0 time=0@note_on channel=10 note=61 velocity=0 time=0@note_on channel=10 note=53 velocity=100 time=0@note_on channel=8 note=85 velocity=0 time=0.10344824999999999@note_on channel=8 note=84 velocity=100 time=0@note_on channel=8 note=84 velocity=0 time=0.10344824999999999@note_on channel=8 note=85 velocity=100 time=0@note_on channel=10 note=53 velocity=0 time=0@note_on channel=10 note=61 velocity=100 time=0@note_on channel=10 note=56 velocity=100 time=0@note_on channel=8 note=85 velocity=0 time=0.10344824999999999@note_on channel=8 note=84 velocity=100 time=0@note_on channel=8 note=84 velocity=0 time=0.10344824999999999@note_on channel=8 note=85 velocity=100 time=0@note_on channel=10 note=56 velocity=0 time=0@note_on channel=10 note=61 velocity=0 time=0@note_on channel=10 note=61 velocity=100 time=0@note_on channel=10 note=56 velocity=100 time=0@note_on channel=8 note=85 velocity=0 time=0.10344824999999999@note_on channel=8 note=86 velocity=100 time=0@note_on channel=8 note=86 velocity=0 time=0.10344824999999999@note_on channel=8 note=85 velocity=100 time=0@note_on channel=10 note=56 velocity=0 time=0@note_on channel=10 note=61 velocity=0 time=0@note_on channel=10 note=61 velocity=100 time=0@note_on channel=10 note=56 velocity=100 time=0@note_on channel=8 note=85 velocity=0 time=0.10344824999999999@note_on channel=8 note=83 velocity=100 time=0@note_on channel=8 note=83 velocity=0 time=0.10344824999999999@note_on channel=8 note=81 velocity=100 time=0@note_on channel=10 note=56 velocity=0 time=0@note_on channel=10 note=61 velocity=0 time=0@note_on channel=10 note=54 velocity=100 time=0@note_on channel=8 note=81 velocity=0 time=0.10344824999999999@note_on channel=8 note=83 velocity=100 time=0@note_on channel=8 note=83 velocity=0 time=0.10344824999999999@note_on channel=8 note=81 velocity=100 time=0@note_on channel=10 note=54 velocity=0 time=0@note_on channel=10 note=61 velocity=100 time=0@note_on channel=10 note=57 velocity=100 time=0@note_on channel=8 note=81 velocity=0 time=0.10344824999999999@note_on channel=8 note=80 velocity=100 time=0@note_on channel=8 note=80 velocity=0 time=0.10344824999999999@note_on channel=8 note=78 velocity=100 time=0@note_on channel=10 note=57 velocity=0 time=0@note_on channel=10 note=61 velocity=0 time=0@note_on channel=10 note=61 velocity=100 time=0@note_on channel=10 note=57 velocity=100 time=0@note_on channel=8 note=78 velocity=0 time=0.10344824999999999@note_on channel=8 note=81 velocity=100 time=0@note_on channel=8 note=81 velocity=0 time=0.10344824999999999@note_on channel=8 note=80 velocity=100 time=0@note_on channel=10 note=57 velocity=0 time=0@note_on channel=10 note=61 velocity=0 time=0@note_on channel=10 note=61 velocity=100 time=0@note_on channel=10 note=57 velocity=100 time=0@note_on channel=8 note=80 velocity=0 time=0.10344824999999999@note_on channel=8 note=78 velocity=100 time=0@note_on channel=8 note=78 velocity=0 time=0.10344824999999999@note_on channel=8 note=76 velocity=100 time=0@note_on channel=10 note=57 velocity=0 time=0@note_on channel=10 note=61 velocity=0 time=0@note_on channel=10 note=56 velocity=100 time=0@note_on channel=8 note=76 velocity=0 time=0.10344824999999999@note_on channel=8 note=78 velocity=100 time=0@note_on channel=8 note=78 velocity=0 time=0.10344824999999999@note_on channel=8 note=80 velocity=100 time=0@note_on channel=10 note=56 velocity=0 time=0@note_on channel=10 note=64 velocity=100 time=0@note_on channel=10 note=61 velocity=100 time=0@note_on channel=8 note=80 velocity=0 time=0.10344824999999999@note_on channel=8 note=76 velocity=100 time=0@note_on channel=8 note=76 velocity=0 time=0.10344824999999999@note_on channel=8 note=73 velocity=100 time=0@note_on channel=10 note=61 velocity=0 time=0@note_on channel=10 note=64 velocity=0 time=0@note_on channel=10 note=64 velocity=100 time=0@note_on channel=10 note=61 velocity=100 time=0@note_on channel=8 note=73 velocity=0 time=0.10344824999999999@note_on channel=8 note=75 velocity=100 time=0@note_on channel=8 note=75 velocity=0 time=0.10344824999999999@note_on channel=8 note=76 velocity=100 time=0@note_on channel=10 note=61 velocity=0 time=0@note_on channel=10 note=64 velocity=0 time=0@note_on channel=10 note=64 velocity=100 time=0@note_on channel=10 note=61 velocity=100 time=0@note_on channel=8 note=76 velocity=0 time=0.10344824999999999@note_on channel=8 note=73 velocity=100 time=0@note_on channel=8 note=73 velocity=0 time=0.10344824999999999@note_on channel=8 note=75 velocity=100 time=0@note_on channel=10 note=61 velocity=0 time=0@note_on channel=10 note=64 velocity=0 time=0@note_on channel=10 note=56 velocity=100 time=0@note_on channel=8 note=75 velocity=0 time=0.10344824999999999@note_on channel=8 note=76 velocity=100 time=0@note_on channel=8 note=76 velocity=0 time=0.10344824999999999@note_on channel=8 note=78 velocity=100 time=0@note_on channel=10 note=56 velocity=0 time=0@note_on channel=10 note=66 velocity=100 time=0@note_on channel=10 note=63 velocity=100 time=0@note_on channel=8 note=78 velocity=0 time=0.10344824999999999@note_on channel=8 note=75 velocity=100 time=0@note_on channel=8 note=75 velocity=0 time=0.10344824999999999@note_on channel=8 note=72 velocity=100 time=0@note_on channel=10 note=63 velocity=0 time=0@note_on channel=10 note=66 velocity=0 time=0@note_on channel=10 note=66 velocity=100 time=0@note_on channel=10 note=63 velocity=100 time=0@note_on channel=8 note=72 velocity=0 time=0.10344824999999999@note_on channel=8 note=73 velocity=100 time=0@note_on channel=8 note=73 velocity=0 time=0.10344824999999999@note_on channel=8 note=75 velocity=100 time=0@note_on channel=10 note=63 velocity=0 time=0@note_on channel=10 note=66 velocity=0 time=0@note_on channel=10 note=66 velocity=100 time=0@note_on channel=10 note=63 velocity=100 time=0@note_on channel=8 note=75 velocity=0 time=0.10344824999999999@note_on channel=8 note=72 velocity=100 time=0@note_on channel=8 note=72 velocity=0 time=0.10344824999999999@note_on channel=8 note=73 velocity=100 time=0@note_on channel=10 note=63 velocity=0 time=0@note_on channel=10 note=66 velocity=0 time=0@note_on channel=10 note=64 velocity=100 time=0@note_on channel=10 note=61 velocity=100 time=0@note_on channel=8 note=73 velocity=0 time=0.41379299999999997@note_on channel=10 note=61 velocity=0 time=0@note_on channel=10 note=64 velocity=0 time=0@note_on channel=11 note=85 velocity=100 time=0@note_on channel=11 note=85 velocity=0 time=0.10344824999999999@note_on channel=11 note=86 velocity=100 time=0@note_on channel=11 note=86 velocity=0 time=0.10344824999999999@note_on channel=11 note=85 velocity=100 time=0@note_on channel=11 note=85 velocity=0 time=0.10344824999999999@note_on channel=11 note=83 velocity=100 time=0@note_on channel=11 note=83 velocity=0 time=0.10344824999999999@note_on channel=11 note=81 velocity=100 time=0@note_on channel=12 note=54 velocity=100 time=0@note_on channel=11 note=81 velocity=0 time=0.10344824999999999@note_on channel=11 note=83 velocity=100 time=0@note_on channel=11 note=83 velocity=0 time=0.10344824999999999@note_on channel=11 note=81 velocity=100 time=0@note_on channel=12 note=54 velocity=0 time=0@note_on channel=12 note=61 velocity=100 time=0@note_on channel=12 note=57 velocity=100 time=0@note_on channel=11 note=81 velocity=0 time=0.10344824999999999@note_on channel=11 note=80 velocity=100 time=0@note_on channel=11 note=80 velocity=0 time=0.10344824999999999@note_on channel=11 note=78 velocity=100 time=0@note_on channel=12 note=57 velocity=0 time=0@note_on channel=12 note=61 velocity=0 time=0@note_on channel=12 note=61 velocity=100 time=0@note_on channel=12 note=57 velocity=100 time=0@note_on channel=11 note=78 velocity=0 time=0.10344824999999999@note_on channel=11 note=81 velocity=100 time=0@note_on channel=11 note=81 velocity=0 time=0.10344824999999999@note_on channel=11 note=80 velocity=100 time=0@note_on channel=12 note=57 velocity=0 time=0@note_on channel=12 note=61 velocity=0 time=0@note_on channel=12 note=61 velocity=100 time=0@note_on channel=12 note=57 velocity=100 time=0@note_on channel=11 note=80 velocity=0 time=0.10344824999999999@note_on channel=11 note=78 velocity=100 time=0@note_on channel=11 note=78 velocity=0 time=0.10344824999999999@note_on channel=11 note=77 velocity=100 time=0@note_on channel=12 note=57 velocity=0 time=0@note_on channel=12 note=61 velocity=0 time=0@note_on channel=12 note=56 velocity=100 time=0@note_on channel=11 note=77 velocity=0 time=0.10344824999999999@note_on channel=11 note=78 velocity=100 time=0@note_on channel=11 note=78 velocity=0 time=0.10344824999999999@note_on channel=11 note=80 velocity=100 time=0@note_on channel=12 note=56 velocity=0 time=0@note_on channel=12 note=61 velocity=100 time=0@note_on channel=12 note=59 velocity=100 time=0@note_on channel=11 note=80 velocity=0 time=0.10344824999999999@note_on channel=11 note=77 velocity=100 time=0@note_on channel=11 note=77 velocity=0 time=0.10344824999999999@note_on channel=11 note=73 velocity=100 time=0@note_on channel=12 note=59 velocity=0 time=0@note_on channel=12 note=61 velocity=0 time=0@note_on channel=12 note=61 velocity=100 time=0@note_on channel=12 note=59 velocity=100 time=0@note_on channel=11 note=73 velocity=0 time=0.10344824999999999@note_on channel=11 note=75 velocity=100 time=0@note_on channel=11 note=75 velocity=0 time=0.10344824999999999@note_on channel=11 note=77 velocity=100 time=0@note_on channel=12 note=59 velocity=0 time=0@note_on channel=12 note=61 velocity=0 time=0@note_on channel=12 note=61 velocity=100 time=0@note_on channel=12 note=59 velocity=100 time=0@note_on channel=11 note=77 velocity=0 time=0.10344824999999999@note_on channel=11 note=73 velocity=100 time=0@note_on channel=11 note=73 velocity=0 time=0.10344824999999999@note_on channel=11 note=78 velocity=100 time=0@note_on channel=12 note=59 velocity=0 time=0@note_on channel=12 note=61 velocity=0 time=0@note_on channel=12 note=54 velocity=100 time=0@note_on channel=11 note=78 velocity=0 time=0.10344824999999999@note_on channel=11 note=77 velocity=100 time=0@note_on channel=11 note=77 velocity=0 time=0.10344824999999999@note_on channel=11 note=78 velocity=100 time=0@note_on channel=12 note=54 velocity=0 time=0@note_on channel=12 note=61 velocity=100 time=0@note_on channel=12 note=57 velocity=100 time=0@note_on channel=11 note=78 velocity=0 time=0.10344824999999999@note_on channel=11 note=80 velocity=100 time=0@note_on channel=11 note=80 velocity=0 time=0.10344824999999999@note_on channel=11 note=81 velocity=100 time=0@note_on channel=12 note=57 velocity=0 time=0@note_on channel=12 note=61 velocity=0 time=0@note_on channel=12 note=61 velocity=100 time=0@note_on channel=12 note=57 velocity=100 time=0@note_on channel=11 note=81 velocity=0 time=0.10344824999999999@note_on channel=11 note=80 velocity=100 time=0@note_on channel=11 note=80 velocity=0 time=0.10344824999999999@note_on channel=11 note=81 velocity=100 time=0@note_on channel=12 note=57 velocity=0 time=0@note_on channel=12 note=61 velocity=0 time=0@note_on channel=12 note=61 velocity=100 time=0@note_on channel=12 note=57 velocity=100 time=0@note_on channel=11 note=81 velocity=0 time=0.10344824999999999@note_on channel=11 note=83 velocity=100 time=0@note_on channel=11 note=83 velocity=0 time=0.10344824999999999@note_on channel=11 note=85 velocity=100 time=0@note_on channel=12 note=57 velocity=0 time=0@note_on channel=12 note=61 velocity=0 time=0@note_on channel=12 note=53 velocity=100 time=0@note_on channel=11 note=85 velocity=0 time=0.10344824999999999@note_on channel=11 note=84 velocity=100 time=0@note_on channel=11 note=84 velocity=0 time=0.10344824999999999@note_on channel=11 note=85 velocity=100 time=0@note_on channel=12 note=53 velocity=0 time=0@note_on channel=12 note=61 velocity=100 time=0@note_on channel=12 note=56 velocity=100 time=0@note_on channel=11 note=85 velocity=0 time=0.10344824999999999@note_on channel=11 note=84 velocity=100 time=0@note_on channel=11 note=84 velocity=0 time=0.10344824999999999@note_on channel=11 note=85 velocity=100 time=0@note_on channel=12 note=56 velocity=0 time=0@note_on channel=12 note=61 velocity=0 time=0@note_on channel=12 note=61 velocity=100 time=0@note_on channel=12 note=56 velocity=100 time=0@note_on channel=11 note=85 velocity=0 time=0.10344824999999999@note_on channel=11 note=86 velocity=100 time=0@note_on channel=11 note=86 velocity=0 time=0.10344824999999999@note_on channel=11 note=85 velocity=100 time=0@note_on channel=12 note=56 velocity=0 time=0@note_on channel=12 note=61 velocity=0 time=0@note_on channel=12 note=61 velocity=100 time=0@note_on channel=12 note=56 velocity=100 time=0@note_on channel=11 note=85 velocity=0 time=0.10344824999999999@note_on channel=11 note=83 velocity=100 time=0@note_on channel=11 note=83 velocity=0 time=0.10344824999999999@note_on channel=11 note=81 velocity=100 time=0@note_on channel=12 note=56 velocity=0 time=0@note_on channel=12 note=61 velocity=0 time=0@note_on channel=12 note=54 velocity=100 time=0@note_on channel=11 note=81 velocity=0 time=0.10344824999999999@note_on channel=11 note=83 velocity=100 time=0@note_on channel=11 note=83 velocity=0 time=0.10344824999999999@note_on channel=11 note=81 velocity=100 time=0@note_on channel=12 note=54 velocity=0 time=0@note_on channel=12 note=61 velocity=100 time=0@note_on channel=12 note=57 velocity=100 time=0@note_on channel=11 note=81 velocity=0 time=0.10344824999999999@note_on channel=11 note=80 velocity=100 time=0@note_on channel=11 note=80 velocity=0 time=0.10344824999999999@note_on channel=11 note=78 velocity=100 time=0@note_on channel=12 note=57 velocity=0 time=0@note_on channel=12 note=61 velocity=0 time=0@note_on channel=12 note=61 velocity=100 time=0@note_on channel=12 note=57 velocity=100 time=0@note_on channel=11 note=78 velocity=0 time=0.10344824999999999@note_on channel=11 note=81 velocity=100 time=0@note_on channel=11 note=81 velocity=0 time=0.10344824999999999@note_on channel=11 note=80 velocity=100 time=0@note_on channel=12 note=57 velocity=0 time=0@note_on channel=12 note=61 velocity=0 time=0@note_on channel=12 note=61 velocity=100 time=0@note_on channel=12 note=57 velocity=100 time=0@note_on channel=11 note=80 velocity=0 time=0.10344824999999999@note_on channel=11 note=78 velocity=100 time=0@note_on channel=11 note=78 velocity=0 time=0.10344824999999999@note_on channel=11 note=76 velocity=100 time=0@note_on channel=12 note=57 velocity=0 time=0@note_on channel=12 note=61 velocity=0 time=0@note_on channel=12 note=56 velocity=100 time=0@note_on channel=11 note=76 velocity=0 time=0.10344824999999999@note_on channel=11 note=78 velocity=100 time=0@note_on channel=11 note=78 velocity=0 time=0.10344824999999999@note_on channel=11 note=80 velocity=100 time=0@note_on channel=12 note=56 velocity=0 time=0@note_on channel=12 note=64 velocity=100 time=0@note_on channel=12 note=61 velocity=100 time=0@note_on channel=11 note=80 velocity=0 time=0.10344824999999999@note_on channel=11 note=76 velocity=100 time=0@note_on channel=11 note=76 velocity=0 time=0.10344824999999999@note_on channel=11 note=73 velocity=100 time=0@note_on channel=12 note=61 velocity=0 time=0@note_on channel=12 note=64 velocity=0 time=0@note_on channel=12 note=64 velocity=100 time=0@note_on channel=12 note=61 velocity=100 time=0@note_on channel=11 note=73 velocity=0 time=0.10344824999999999@note_on channel=11 note=75 velocity=100 time=0@note_on channel=11 note=75 velocity=0 time=0.10344824999999999@note_on channel=11 note=76 velocity=100 time=0@note_on channel=12 note=61 velocity=0 time=0@note_on channel=12 note=64 velocity=0 time=0@note_on channel=12 note=64 velocity=100 time=0@note_on channel=12 note=61 velocity=100 time=0@note_on channel=11 note=76 velocity=0 time=0.10344824999999999@note_on channel=11 note=73 velocity=100 time=0@note_on channel=11 note=73 velocity=0 time=0.10344824999999999@note_on channel=11 note=75 velocity=100 time=0@note_on channel=12 note=61 velocity=0 time=0@note_on channel=12 note=64 velocity=0 time=0@note_on channel=12 note=56 velocity=100 time=0@note_on channel=11 note=75 velocity=0 time=0.10344824999999999@note_on channel=11 note=76 velocity=100 time=0@note_on channel=11 note=76 velocity=0 time=0.10344824999999999@note_on channel=11 note=78 velocity=100 time=0@note_on channel=12 note=56 velocity=0 time=0@note_on channel=12 note=66 velocity=100 time=0@note_on channel=12 note=63 velocity=100 time=0@note_on channel=11 note=78 velocity=0 time=0.10344824999999999@note_on channel=11 note=75 velocity=100 time=0@note_on channel=11 note=75 velocity=0 time=0.10344824999999999@note_on channel=11 note=72 velocity=100 time=0@note_on channel=12 note=63 velocity=0 time=0@note_on channel=12 note=66 velocity=0 time=0@note_on channel=12 note=66 velocity=100 time=0@note_on channel=12 note=63 velocity=100 time=0@note_on channel=11 note=72 velocity=0 time=0.10344824999999999@note_on channel=11 note=73 velocity=100 time=0@note_on channel=11 note=73 velocity=0 time=0.10344824999999999@note_on channel=11 note=75 velocity=100 time=0@note_on channel=12 note=63 velocity=0 time=0@note_on channel=12 note=66 velocity=0 time=0@note_on channel=12 note=66 velocity=100 time=0@note_on channel=12 note=63 velocity=100 time=0@note_on channel=11 note=75 velocity=0 time=0.10344824999999999@note_on channel=11 note=72 velocity=100 time=0@note_on channel=11 note=72 velocity=0 time=0.10344824999999999@note_on channel=11 note=73 velocity=100 time=0@note_on channel=12 note=63 velocity=0 time=0@note_on channel=12 note=66 velocity=0 time=0@note_on channel=12 note=64 velocity=100 time=0@note_on channel=12 note=61 velocity=100 time=0@note_on channel=0 note=76 velocity=100 time=0.41379299999999997@note_on channel=11 note=73 velocity=0 time=0@note_on channel=12 note=61 velocity=0 time=0@note_on channel=12 note=64 velocity=0 time=0@note_on channel=0 note=76 velocity=0 time=0.10344824999999999@note_on channel=0 note=74 velocity=100 time=0@note_on channel=0 note=74 velocity=0 time=0.10344824999999999@note_on channel=0 note=73 velocity=100 time=0@note_on channel=0 note=73 velocity=0 time=0.10344824999999999@note_on channel=0 note=71 velocity=100 time=0@note_on channel=0 note=71 velocity=0 time=0.10344824999999999@note_on channel=0 note=69 velocity=100 time=0@note_on channel=1 note=57 velocity=100 time=0@note_on channel=0 note=69 velocity=0 time=0.10344824999999999@note_on channel=0 note=71 velocity=100 time=0@note_on channel=0 note=71 velocity=0 time=0.10344824999999999@note_on channel=0 note=73 velocity=100 time=0@note_on channel=1 note=57 velocity=0 time=0@note_on channel=1 note=64 velocity=100 time=0@note_on channel=1 note=61 velocity=100 time=0@note_on channel=0 note=73 velocity=0 time=0.10344824999999999@note_on channel=0 note=74 velocity=100 time=0@note_on channel=0 note=74 velocity=0 time=0.10344824999999999@note_on channel=0 note=76 velocity=100 time=0@note_on channel=1 note=61 velocity=0 time=0@note_on channel=1 note=64 velocity=0 time=0@note_on channel=1 note=64 velocity=100 time=0@note_on channel=1 note=61 velocity=100 time=0@note_on channel=0 note=76 velocity=0 time=0.10344824999999999@note_on channel=0 note=78 velocity=100 time=0@note_on channel=0 note=78 velocity=0 time=0.10344824999999999@note_on channel=0 note=80 velocity=100 time=0@note_on channel=1 note=61 velocity=0 time=0@note_on channel=1 note=64 velocity=0 time=0@note_on channel=1 note=64 velocity=100 time=0@note_on channel=1 note=61 velocity=100 time=0@note_on channel=0 note=80 velocity=0 time=0.10344824999999999@note_on channel=0 note=81 velocity=100 time=0@note_on channel=0 note=81 velocity=0 time=0.10344824999999999@note_on channel=0 note=81 velocity=100 time=0@note_on channel=1 note=61 velocity=0 time=0@note_on channel=1 note=64 velocity=0 time=0@note_on channel=1 note=59 velocity=100 time=0@note_on channel=0 note=81 velocity=0 time=0.10344824999999999@note_on channel=0 note=80 velocity=100 time=0@note_on channel=0 note=80 velocity=0 time=0.10344824999999999@note_on channel=0 note=78 velocity=100 time=0@note_on channel=1 note=59 velocity=0 time=0@note_on channel=1 note=64 velocity=100 time=0@note_on channel=1 note=62 velocity=100 time=0@note_on channel=0 note=78 velocity=0 time=0.10344824999999999@note_on channel=0 note=76 velocity=100 time=0@note_on channel=0 note=76 velocity=0 time=0.10344824999999999@note_on channel=0 note=76 velocity=100 time=0@note_on channel=1 note=62 velocity=0 time=0@note_on channel=1 note=64 velocity=0 time=0@note_on channel=1 note=56 velocity=100 time=0@note_on channel=0 note=76 velocity=0 time=0.10344824999999999@note_on channel=0 note=74 velocity=100 time=0@note_on channel=0 note=74 velocity=0 time=0.10344824999999999@note_on channel=0 note=73 velocity=100 time=0@note_on channel=1 note=56 velocity=0 time=0@note_on channel=1 note=64 velocity=100 time=0@note_on channel=1 note=62 velocity=100 time=0@note_on channel=0 note=73 velocity=0 time=0.10344824999999999@note_on channel=0 note=71 velocity=100 time=0@note_on channel=0 note=71 velocity=0 time=0.10344824999999999@note_on channel=0 note=69 velocity=100 time=0@note_on channel=1 note=62 velocity=0 time=0@note_on channel=1 note=64 velocity=0 time=0@note_on channel=1 note=57 velocity=100 time=0@note_on channel=0 note=69 velocity=0 time=0.10344824999999999@note_on channel=0 note=71 velocity=100 time=0@note_on channel=0 note=71 velocity=0 time=0.10344824999999999@note_on channel=0 note=73 velocity=100 time=0@note_on channel=1 note=57 velocity=0 time=0@note_on channel=1 note=64 velocity=100 time=0@note_on channel=1 note=61 velocity=100 time=0@note_on channel=0 note=73 velocity=0 time=0.10344824999999999@note_on channel=0 note=74 velocity=100 time=0@note_on channel=0 note=74 velocity=0 time=0.10344824999999999@note_on channel=0 note=76 velocity=100 time=0@note_on channel=1 note=61 velocity=0 time=0@note_on channel=1 note=64 velocity=0 time=0@note_on channel=1 note=64 velocity=100 time=0@note_on channel=1 note=61 velocity=100 time=0@note_on channel=0 note=76 velocity=0 time=0.10344824999999999@note_on channel=0 note=78 velocity=100 time=0@note_on channel=0 note=78 velocity=0 time=0.10344824999999999@note_on channel=0 note=80 velocity=100 time=0@note_on channel=1 note=61 velocity=0 time=0@note_on channel=1 note=64 velocity=0 time=0@note_on channel=1 note=64 velocity=100 time=0@note_on channel=1 note=61 velocity=100 time=0@note_on channel=0 note=80 velocity=0 time=0.10344824999999999@note_on channel=0 note=81 velocity=100 time=0@note_on channel=0 note=81 velocity=0 time=0.10344824999999999@note_on channel=0 note=82 velocity=100 time=0@note_on channel=1 note=61 velocity=0 time=0@note_on channel=1 note=64 velocity=0 time=0@note_on channel=1 note=52 velocity=100 time=0@note_on channel=0 note=82 velocity=0 time=0.20689649999999998@note_on channel=0 note=83 velocity=100 time=0@note_on channel=1 note=52 velocity=0 time=0@note_on channel=1 note=62 velocity=100 time=0@note_on channel=1 note=56 velocity=100 time=0@note_on channel=0 note=83 velocity=0 time=0.20689649999999998@note_on channel=0 note=76 velocity=100 time=0@note_on channel=1 note=56 velocity=0 time=0@note_on channel=1 note=62 velocity=0 time=0@note_on channel=1 note=62 velocity=100 time=0@note_on channel=1 note=56 velocity=100 time=0@note_on channel=0 note=76 velocity=0 time=0.10344824999999999@note_on channel=0 note=74 velocity=100 time=0@note_on channel=0 note=74 velocity=0 time=0.10344824999999999@note_on channel=0 note=73 velocity=100 time=0@note_on channel=1 note=56 velocity=0 time=0@note_on channel=1 note=62 velocity=0 time=0@note_on channel=1 note=62 velocity=100 time=0@note_on channel=1 note=56 velocity=100 time=0@note_on channel=0 note=73 velocity=0 time=0.10344824999999999@note_on channel=0 note=71 velocity=100 time=0@note_on channel=0 note=71 velocity=0 time=0.10344824999999999@note_on channel=0 note=69 velocity=100 time=0@note_on channel=1 note=56 velocity=0 time=0@note_on channel=1 note=62 velocity=0 time=0@note_on channel=1 note=57 velocity=100 time=0@note_on channel=0 note=69 velocity=0 time=0.10344824999999999@note_on channel=0 note=71 velocity=100 time=0@note_on channel=0 note=71 velocity=0 time=0.10344824999999999@note_on channel=0 note=73 velocity=100 time=0@note_on channel=1 note=57 velocity=0 time=0@note_on channel=1 note=64 velocity=100 time=0@note_on channel=1 note=61 velocity=100 time=0@note_on channel=0 note=73 velocity=0 time=0.10344824999999999@note_on channel=0 note=74 velocity=100 time=0@note_on channel=0 note=74 velocity=0 time=0.10344824999999999@note_on channel=0 note=76 velocity=100 time=0@note_on channel=1 note=61 velocity=0 time=0@note_on channel=1 note=64 velocity=0 time=0@note_on channel=1 note=64 velocity=100 time=0@note_on channel=1 note=61 velocity=100 time=0@note_on channel=0 note=76 velocity=0 time=0.10344824999999999@note_on channel=0 note=78 velocity=100 time=0@note_on channel=0 note=78 velocity=0 time=0.10344824999999999@note_on channel=0 note=80 velocity=100 time=0@note_on channel=1 note=61 velocity=0 time=0@note_on channel=1 note=64 velocity=0 time=0@note_on channel=1 note=64 velocity=100 time=0@note_on channel=1 note=61 velocity=100 time=0@note_on channel=0 note=80 velocity=0 time=0.10344824999999999@note_on channel=0 note=81 velocity=100 time=0@note_on channel=0 note=81 velocity=0 time=0.10344824999999999@note_on channel=0 note=81 velocity=100 time=0@note_on channel=1 note=61 velocity=0 time=0@note_on channel=1 note=64 velocity=0 time=0@note_on channel=1 note=59 velocity=100 time=0@note_on channel=0 note=81 velocity=0 time=0.10344824999999999@note_on channel=0 note=80 velocity=100 time=0@note_on channel=0 note=80 velocity=0 time=0.10344824999999999@note_on channel=0 note=78 velocity=100 time=0@note_on channel=1 note=59 velocity=0 time=0@note_on channel=1 note=64 velocity=100 time=0@note_on channel=1 note=62 velocity=100 time=0@note_on channel=0 note=78 velocity=0 time=0.10344824999999999@note_on channel=0 note=76 velocity=100 time=0@note_on channel=0 note=76 velocity=0 time=0.10344824999999999@note_on channel=0 note=76 velocity=100 time=0@note_on channel=1 note=62 velocity=0 time=0@note_on channel=1 note=64 velocity=0 time=0@note_on channel=1 note=56 velocity=100 time=0@note_on channel=0 note=76 velocity=0 time=0.10344824999999999@note_on channel=0 note=74 velocity=100 time=0@note_on channel=0 note=74 velocity=0 time=0.10344824999999999@note_on channel=0 note=73 velocity=100 time=0@note_on channel=1 note=56 velocity=0 time=0@note_on channel=1 note=64 velocity=100 time=0@note_on channel=1 note=62 velocity=100 time=0@note_on channel=0 note=73 velocity=0 time=0.10344824999999999@note_on channel=0 note=71 velocity=100 time=0@note_on channel=0 note=71 velocity=0 time=0.10344824999999999@note_on channel=0 note=73 velocity=100 time=0@note_on channel=1 note=62 velocity=0 time=0@note_on channel=1 note=64 velocity=0 time=0@note_on channel=1 note=57 velocity=100 time=0@note_on channel=0 note=73 velocity=0 time=0.10344824999999999@note_on channel=0 note=76 velocity=100 time=0@note_on channel=0 note=76 velocity=0 time=0.10344824999999999@note_on channel=0 note=69 velocity=100 time=0@note_on channel=1 note=57 velocity=0 time=0@note_on channel=1 note=54 velocity=100 time=0@note_on channel=0 note=69 velocity=0 time=0.10344824999999999@note_on channel=0 note=73 velocity=100 time=0@note_on channel=0 note=73 velocity=0 time=0.10344824999999999@note_on channel=0 note=71 velocity=100 time=0@note_on channel=1 note=54 velocity=0 time=0@note_on channel=1 note=50 velocity=100 time=0@note_on channel=0 note=71 velocity=0 time=0.10344824999999999@note_on channel=0 note=74 velocity=100 time=0@note_on channel=0 note=74 velocity=0 time=0.10344824999999999@note_on channel=0 note=68 velocity=100 time=0@note_on channel=1 note=50 velocity=0 time=0@note_on channel=1 note=52 velocity=100 time=0@note_on channel=0 note=68 velocity=0 time=0.10344824999999999@note_on channel=0 note=71 velocity=100 time=0@note_on channel=0 note=71 velocity=0 time=0.10344824999999999@note_on channel=0 note=69 velocity=100 time=0@note_on channel=1 note=52 velocity=0 time=0@note_on channel=1 note=45 velocity=100 time=0@note_on channel=1 note=45 velocity=0 time=0.20689649999999998@note_on channel=1 note=57 velocity=100 time=0@note_on channel=0 note=69 velocity=0 time=0.20689649999999998@note_on channel=1 note=57 velocity=0 time=0@note_on channel=8 note=85 velocity=100 time=0@note_on channel=8 note=85 velocity=0 time=0.10344824999999999@note_on channel=8 note=86 velocity=100 time=0@note_on channel=8 note=86 velocity=0 time=0.10344824999999999@note_on channel=8 note=85 velocity=100 time=0@note_on channel=8 note=85 velocity=0 time=0.10344824999999999@note_on channel=8 note=83 velocity=100 time=0@note_on channel=8 note=83 velocity=0 time=0.10344824999999999@note_on channel=8 note=81 velocity=100 time=0@note_on channel=10 note=54 velocity=100 time=0@note_on channel=8 note=81 velocity=0 time=0.10344824999999999@note_on channel=8 note=83 velocity=100 time=0@note_on channel=8 note=83 velocity=0 time=0.10344824999999999@note_on channel=8 note=81 velocity=100 time=0@note_on channel=10 note=54 velocity=0 time=0@note_on channel=10 note=61 velocity=100 time=0@note_on channel=10 note=57 velocity=100 time=0@note_on channel=8 note=81 velocity=0 time=0.10344824999999999@note_on channel=8 note=80 velocity=100 time=0@note_on channel=8 note=80 velocity=0 time=0.10344824999999999@note_on channel=8 note=78 velocity=100 time=0@note_on channel=10 note=57 velocity=0 time=0@note_on channel=10 note=61 velocity=0 time=0@note_on channel=10 note=61 velocity=100 time=0@note_on channel=10 note=57 velocity=100 time=0@note_on channel=8 note=78 velocity=0 time=0.10344824999999999@note_on channel=8 note=81 velocity=100 time=0@note_on channel=8 note=81 velocity=0 time=0.10344824999999999@note_on channel=8 note=80 velocity=100 time=0@note_on channel=10 note=57 velocity=0 time=0@note_on channel=10 note=61 velocity=0 time=0@note_on channel=10 note=61 velocity=100 time=0@note_on channel=10 note=57 velocity=100 time=0@note_on channel=8 note=80 velocity=0 time=0.10344824999999999@note_on channel=8 note=78 velocity=100 time=0@note_on channel=8 note=78 velocity=0 time=0.10344824999999999@note_on channel=8 note=77 velocity=100 time=0@note_on channel=10 note=57 velocity=0 time=0@note_on channel=10 note=61 velocity=0 time=0@note_on channel=10 note=56 velocity=100 time=0@note_on channel=8 note=77 velocity=0 time=0.10344824999999999@note_on channel=8 note=78 velocity=100 time=0@note_on channel=8 note=78 velocity=0 time=0.10344824999999999@note_on channel=8 note=80 velocity=100 time=0@note_on channel=10 note=56 velocity=0 time=0@note_on channel=10 note=61 velocity=100 time=0@note_on channel=10 note=59 velocity=100 time=0@note_on channel=8 note=80 velocity=0 time=0.10344824999999999@note_on channel=8 note=77 velocity=100 time=0@note_on channel=8 note=77 velocity=0 time=0.10344824999999999@note_on channel=8 note=73 velocity=100 time=0@note_on channel=10 note=59 velocity=0 time=0@note_on channel=10 note=61 velocity=0 time=0@note_on channel=10 note=61 velocity=100 time=0@note_on channel=10 note=59 velocity=100 time=0@note_on channel=8 note=73 velocity=0 time=0.10344824999999999@note_on channel=8 note=75 velocity=100 time=0@note_on channel=8 note=75 velocity=0 time=0.10344824999999999@note_on channel=8 note=77 velocity=100 time=0@note_on channel=10 note=59 velocity=0 time=0@note_on channel=10 note=61 velocity=0 time=0@note_on channel=10 note=61 velocity=100 time=0@note_on channel=10 note=59 velocity=100 time=0@note_on channel=8 note=77 velocity=0 time=0.10344824999999999@note_on channel=8 note=73 velocity=100 time=0@note_on channel=8 note=73 velocity=0 time=0.10344824999999999@note_on channel=8 note=78 velocity=100 time=0@note_on channel=10 note=59 velocity=0 time=0@note_on channel=10 note=61 velocity=0 time=0@note_on channel=10 note=54 velocity=100 time=0@note_on channel=8 note=78 velocity=0 time=0.10344824999999999@note_on channel=8 note=77 velocity=100 time=0@note_on channel=8 note=77 velocity=0 time=0.10344824999999999@note_on channel=8 note=78 velocity=100 time=0@note_on channel=10 note=54 velocity=0 time=0@note_on channel=10 note=61 velocity=100 time=0@note_on channel=10 note=57 velocity=100 time=0@note_on channel=8 note=78 velocity=0 time=0.10344824999999999@note_on channel=8 note=80 velocity=100 time=0@note_on channel=8 note=80 velocity=0 time=0.10344824999999999@note_on channel=8 note=81 velocity=100 time=0@note_on channel=10 note=57 velocity=0 time=0@note_on channel=10 note=61 velocity=0 time=0@note_on channel=10 note=61 velocity=100 time=0@note_on channel=10 note=57 velocity=100 time=0@note_on channel=8 note=81 velocity=0 time=0.10344824999999999@note_on channel=8 note=80 velocity=100 time=0@note_on channel=8 note=80 velocity=0 time=0.10344824999999999@note_on channel=8 note=81 velocity=100 time=0@note_on channel=10 note=57 velocity=0 time=0@note_on channel=10 note=61 velocity=0 time=0@note_on channel=10 note=61 velocity=100 time=0@note_on channel=10 note=57 velocity=100 time=0@note_on channel=8 note=81 velocity=0 time=0.10344824999999999@note_on channel=8 note=83 velocity=100 time=0@note_on channel=8 note=83 velocity=0 time=0.10344824999999999@note_on channel=8 note=85 velocity=100 time=0@note_on channel=10 note=57 velocity=0 time=0@note_on channel=10 note=61 velocity=0 time=0@note_on channel=10 note=53 velocity=100 time=0@note_on channel=8 note=85 velocity=0 time=0.10344824999999999@note_on channel=8 note=84 velocity=100 time=0@note_on channel=8 note=84 velocity=0 time=0.10344824999999999@note_on channel=8 note=85 velocity=100 time=0@note_on channel=10 note=53 velocity=0 time=0@note_on channel=10 note=61 velocity=100 time=0@note_on channel=10 note=56 velocity=100 time=0@note_on channel=8 note=85 velocity=0 time=0.10344824999999999@note_on channel=8 note=84 velocity=100 time=0@note_on channel=8 note=84 velocity=0 time=0.10344824999999999@note_on channel=8 note=85 velocity=100 time=0@note_on channel=10 note=56 velocity=0 time=0@note_on channel=10 note=61 velocity=0 time=0@note_on channel=10 note=55 velocity=100 time=0@note_on channel=10 note=61 velocity=100 time=0@note_on channel=8 note=85 velocity=0 time=0.10344824999999999@note_on channel=8 note=83 velocity=100 time=0@note_on channel=8 note=83 velocity=0 time=0.10344824999999999@note_on channel=8 note=85 velocity=100 time=0@note_on channel=10 note=61 velocity=0 time=0@note_on channel=10 note=55 velocity=0 time=0@note_on channel=10 note=54 velocity=100 time=0@note_on channel=10 note=61 velocity=100 time=0@note_on channel=8 note=85 velocity=0 time=0.10344824999999999@note_on channel=8 note=82 velocity=100 time=0@note_on channel=8 note=82 velocity=0 time=0.10344824999999999@note_on channel=8 note=86 velocity=100 time=0@note_on channel=10 note=61 velocity=0 time=0@note_on channel=10 note=54 velocity=0 time=0@note_on channel=10 note=47 velocity=100 time=0@note_on channel=8 note=86 velocity=0 time=0.10344824999999999@note_on channel=8 note=85 velocity=100 time=0@note_on channel=8 note=85 velocity=0 time=0.10344824999999999@note_on channel=8 note=86 velocity=100 time=0@note_on channel=10 note=47 velocity=0 time=0@note_on channel=10 note=59 velocity=100 time=0@note_on channel=10 note=54 velocity=100 time=0@note_on channel=8 note=86 velocity=0 time=0.10344824999999999@note_on channel=8 note=85 velocity=100 time=0@note_on channel=8 note=85 velocity=0 time=0.10344824999999999@note_on channel=8 note=86 velocity=100 time=0@note_on channel=10 note=54 velocity=0 time=0@note_on channel=10 note=59 velocity=0 time=0@note_on channel=10 note=59 velocity=100 time=0@note_on channel=10 note=54 velocity=100 time=0@note_on channel=8 note=86 velocity=0 time=0.10344824999999999@note_on channel=8 note=85 velocity=100 time=0@note_on channel=8 note=85 velocity=0 time=0.10344824999999999@note_on channel=8 note=86 velocity=100 time=0@note_on channel=10 note=54 velocity=0 time=0@note_on channel=10 note=59 velocity=0 time=0@note_on channel=10 note=59 velocity=100 time=0@note_on channel=10 note=54 velocity=100 time=0@note_on channel=8 note=86 velocity=0 time=0.10344824999999999@note_on channel=8 note=85 velocity=100 time=0@note_on channel=8 note=85 velocity=0 time=0.10344824999999999@note_on channel=8 note=86 velocity=100 time=0@note_on channel=10 note=54 velocity=0 time=0@note_on channel=10 note=59 velocity=0 time=0@note_on channel=10 note=47 velocity=100 time=0@note_on channel=8 note=86 velocity=0 time=0.10344824999999999@note_on channel=8 note=85 velocity=100 time=0@note_on channel=8 note=85 velocity=0 time=0.10344824999999999@note_on channel=8 note=83 velocity=100 time=0@note_on channel=10 note=47 velocity=0 time=0@note_on channel=10 note=59 velocity=100 time=0@note_on channel=10 note=56 velocity=100 time=0@note_on channel=8 note=83 velocity=0 time=0.10344824999999999@note_on channel=8 note=81 velocity=100 time=0@note_on channel=8 note=81 velocity=0 time=0.10344824999999999@note_on channel=8 note=80 velocity=100 time=0@note_on channel=10 note=56 velocity=0 time=0@note_on channel=10 note=59 velocity=0 time=0@note_on channel=10 note=59 velocity=100 time=0@note_on channel=10 note=56 velocity=100 time=0@note_on channel=8 note=80 velocity=0 time=0.10344824999999999@note_on channel=8 note=81 velocity=100 time=0@note_on channel=8 note=81 velocity=0 time=0.10344824999999999@note_on channel=8 note=83 velocity=100 time=0@note_on channel=10 note=56 velocity=0 time=0@note_on channel=10 note=59 velocity=0 time=0@note_on channel=10 note=59 velocity=100 time=0@note_on channel=10 note=56 velocity=100 time=0@note_on channel=8 note=83 velocity=0 time=0.10344824999999999@note_on channel=8 note=80 velocity=100 time=0@note_on channel=8 note=80 velocity=0 time=0.10344824999999999@note_on channel=8 note=81 velocity=100 time=0@note_on channel=10 note=56 velocity=0 time=0@note_on channel=10 note=59 velocity=0 time=0@note_on channel=10 note=49 velocity=100 time=0@note_on channel=8 note=81 velocity=0 time=0.10344824999999999@note_on channel=8 note=83 velocity=100 time=0@note_on channel=8 note=83 velocity=0 time=0.10344824999999999@note_on channel=8 note=85 velocity=100 time=0@note_on channel=10 note=49 velocity=0 time=0@note_on channel=10 note=57 velocity=100 time=0@note_on channel=10 note=54 velocity=100 time=0@note_on channel=8 note=85 velocity=0 time=0.10344824999999999@note_on channel=8 note=78 velocity=100 time=0@note_on channel=8 note=78 velocity=0 time=0.10344824999999999@note_on channel=8 note=77 velocity=100 time=0@note_on channel=10 note=54 velocity=0 time=0@note_on channel=10 note=57 velocity=0 time=0@note_on channel=10 note=49 velocity=100 time=0@note_on channel=8 note=77 velocity=0 time=0.10344824999999999@note_on channel=8 note=78 velocity=100 time=0@note_on channel=8 note=78 velocity=0 time=0.10344824999999999@note_on channel=8 note=80 velocity=100 time=0@note_on channel=10 note=49 velocity=0 time=0@note_on channel=10 note=59 velocity=100 time=0@note_on channel=10 note=56 velocity=100 time=0@note_on channel=8 note=80 velocity=0 time=0.10344824999999999@note_on channel=8 note=77 velocity=100 time=0@note_on channel=8 note=77 velocity=0 time=0.10344824999999999@note_on channel=8 note=78 velocity=100 time=0@note_on channel=10 note=56 velocity=0 time=0@note_on channel=10 note=59 velocity=0 time=0@note_on channel=10 note=57 velocity=100 time=0@note_on channel=10 note=54 velocity=100 time=0@note_on channel=2 note=76 velocity=100 time=0.41379299999999997@note_on channel=8 note=78 velocity=0 time=0@note_on channel=10 note=54 velocity=0 time=0@note_on channel=10 note=57 velocity=0 time=0@note_on channel=2 note=76 velocity=0 time=0.10344824999999999@note_on channel=2 note=74 velocity=100 time=0@note_on channel=2 note=74 velocity=0 time=0.10344824999999999@note_on channel=2 note=73 velocity=100 time=0@note_on channel=2 note=73 velocity=0 time=0.10344824999999999@note_on channel=2 note=71 velocity=100 time=0@note_on channel=2 note=71 velocity=0 time=0.10344824999999999@note_on channel=2 note=69 velocity=100 time=0@note_on channel=3 note=57 velocity=100 time=0@note_on channel=2 note=69 velocity=0 time=0.10344824999999999@note_on channel=2 note=71 velocity=100 time=0@note_on channel=2 note=71 velocity=0 time=0.10344824999999999@note_on channel=2 note=73 velocity=100 time=0@note_on channel=3 note=57 velocity=0 time=0@note_on channel=3 note=64 velocity=100 time=0@note_on channel=3 note=61 velocity=100 time=0@note_on channel=2 note=73 velocity=0 time=0.10344824999999999@note_on channel=2 note=74 velocity=100 time=0@note_on channel=2 note=74 velocity=0 time=0.10344824999999999@note_on channel=2 note=76 velocity=100 time=0@note_on channel=3 note=61 velocity=0 time=0@note_on channel=3 note=64 velocity=0 time=0@note_on channel=3 note=64 velocity=100 time=0@note_on channel=3 note=61 velocity=100 time=0@note_on channel=2 note=76 velocity=0 time=0.10344824999999999@note_on channel=2 note=78 velocity=100 time=0@note_on channel=2 note=78 velocity=0 time=0.10344824999999999@note_on channel=2 note=80 velocity=100 time=0@note_on channel=3 note=61 velocity=0 time=0@note_on channel=3 note=64 velocity=0 time=0@note_on channel=3 note=64 velocity=100 time=0@note_on channel=3 note=61 velocity=100 time=0@note_on channel=2 note=80 velocity=0 time=0.10344824999999999@note_on channel=2 note=81 velocity=100 time=0@note_on channel=2 note=81 velocity=0 time=0.10344824999999999@note_on channel=2 note=81 velocity=100 time=0@note_on channel=3 note=61 velocity=0 time=0@note_on channel=3 note=64 velocity=0 time=0@note_on channel=3 note=59 velocity=100 time=0@note_on channel=2 note=81 velocity=0 time=0.10344824999999999@note_on channel=2 note=80 velocity=100 time=0@note_on channel=2 note=80 velocity=0 time=0.10344824999999999@note_on channel=2 note=78 velocity=100 time=0@note_on channel=3 note=59 velocity=0 time=0@note_on channel=3 note=64 velocity=100 time=0@note_on channel=3 note=62 velocity=100 time=0@note_on channel=2 note=78 velocity=0 time=0.10344824999999999@note_on channel=2 note=76 velocity=100 time=0@note_on channel=2 note=76 velocity=0 time=0.10344824999999999@note_on channel=2 note=76 velocity=100 time=0@note_on channel=3 note=62 velocity=0 time=0@note_on channel=3 note=64 velocity=0 time=0@note_on channel=3 note=56 velocity=100 time=0@note_on channel=2 note=76 velocity=0 time=0.10344824999999999@note_on channel=2 note=74 velocity=100 time=0@note_on channel=2 note=74 velocity=0 time=0.10344824999999999@note_on channel=2 note=73 velocity=100 time=0@note_on channel=3 note=56 velocity=0 time=0@note_on channel=3 note=64 velocity=100 time=0@note_on channel=3 note=62 velocity=100 time=0@note_on channel=2 note=73 velocity=0 time=0.10344824999999999@note_on channel=2 note=71 velocity=100 time=0@note_on channel=2 note=71 velocity=0 time=0.10344824999999999@note_on channel=2 note=69 velocity=100 time=0@note_on channel=3 note=62 velocity=0 time=0@note_on channel=3 note=64 velocity=0 time=0@note_on channel=3 note=57 velocity=100 time=0@note_on channel=2 note=69 velocity=0 time=0.10344824999999999@note_on channel=2 note=71 velocity=100 time=0@note_on channel=2 note=71 velocity=0 time=0.10344824999999999@note_on channel=2 note=73 velocity=100 time=0@note_on channel=3 note=57 velocity=0 time=0@note_on channel=3 note=64 velocity=100 time=0@note_on channel=3 note=61 velocity=100 time=0@note_on channel=2 note=73 velocity=0 time=0.10344824999999999@note_on channel=2 note=74 velocity=100 time=0@note_on channel=2 note=74 velocity=0 time=0.10344824999999999@note_on channel=2 note=76 velocity=100 time=0@note_on channel=3 note=61 velocity=0 time=0@note_on channel=3 note=64 velocity=0 time=0@note_on channel=3 note=64 velocity=100 time=0@note_on channel=3 note=61 velocity=100 time=0@note_on channel=2 note=76 velocity=0 time=0.10344824999999999@note_on channel=2 note=78 velocity=100 time=0@note_on channel=2 note=78 velocity=0 time=0.10344824999999999@note_on channel=2 note=80 velocity=100 time=0@note_on channel=3 note=61 velocity=0 time=0@note_on channel=3 note=64 velocity=0 time=0@note_on channel=3 note=64 velocity=100 time=0@note_on channel=3 note=61 velocity=100 time=0@note_on channel=2 note=80 velocity=0 time=0.10344824999999999@note_on channel=2 note=81 velocity=100 time=0@note_on channel=2 note=81 velocity=0 time=0.10344824999999999@note_on channel=2 note=82 velocity=100 time=0@note_on channel=3 note=61 velocity=0 time=0@note_on channel=3 note=64 velocity=0 time=0@note_on channel=3 note=52 velocity=100 time=0@note_on channel=2 note=82 velocity=0 time=0.20689649999999998@note_on channel=2 note=83 velocity=100 time=0@note_on channel=3 note=52 velocity=0 time=0@note_on channel=3 note=62 velocity=100 time=0@note_on channel=3 note=56 velocity=100 time=0@note_on channel=2 note=83 velocity=0 time=0.20689649999999998@note_on channel=2 note=76 velocity=100 time=0@note_on channel=3 note=56 velocity=0 time=0@note_on channel=3 note=62 velocity=0 time=0@note_on channel=3 note=62 velocity=100 time=0@note_on channel=3 note=56 velocity=100 time=0@note_on channel=2 note=76 velocity=0 time=0.10344824999999999@note_on channel=2 note=74 velocity=100 time=0@note_on channel=2 note=74 velocity=0 time=0.10344824999999999@note_on channel=2 note=73 velocity=100 time=0@note_on channel=3 note=56 velocity=0 time=0@note_on channel=3 note=62 velocity=0 time=0@note_on channel=3 note=62 velocity=100 time=0@note_on channel=3 note=56 velocity=100 time=0@note_on channel=2 note=73 velocity=0 time=0.10344824999999999@note_on channel=2 note=71 velocity=100 time=0@note_on channel=2 note=71 velocity=0 time=0.10344824999999999@note_on channel=2 note=69 velocity=100 time=0@note_on channel=3 note=56 velocity=0 time=0@note_on channel=3 note=62 velocity=0 time=0@note_on channel=3 note=57 velocity=100 time=0@note_on channel=2 note=69 velocity=0 time=0.10344824999999999@note_on channel=2 note=71 velocity=100 time=0@note_on channel=2 note=71 velocity=0 time=0.10344824999999999@note_on channel=2 note=73 velocity=100 time=0@note_on channel=3 note=57 velocity=0 time=0@note_on channel=3 note=64 velocity=100 time=0@note_on channel=3 note=61 velocity=100 time=0@note_on channel=2 note=73 velocity=0 time=0.10344824999999999@note_on channel=2 note=74 velocity=100 time=0@note_on channel=2 note=74 velocity=0 time=0.10344824999999999@note_on channel=2 note=76 velocity=100 time=0@note_on channel=3 note=61 velocity=0 time=0@note_on channel=3 note=64 velocity=0 time=0@note_on channel=3 note=64 velocity=100 time=0@note_on channel=3 note=61 velocity=100 time=0@note_on channel=2 note=76 velocity=0 time=0.10344824999999999@note_on channel=2 note=78 velocity=100 time=0@note_on channel=2 note=78 velocity=0 time=0.10344824999999999@note_on channel=2 note=80 velocity=100 time=0@note_on channel=3 note=61 velocity=0 time=0@note_on channel=3 note=64 velocity=0 time=0@note_on channel=3 note=64 velocity=100 time=0@note_on channel=3 note=61 velocity=100 time=0@note_on channel=2 note=80 velocity=0 time=0.10344824999999999@note_on channel=2 note=81 velocity=100 time=0@note_on channel=2 note=81 velocity=0 time=0.10344824999999999@note_on channel=2 note=81 velocity=100 time=0@note_on channel=3 note=61 velocity=0 time=0@note_on channel=3 note=64 velocity=0 time=0@note_on channel=3 note=59 velocity=100 time=0@note_on channel=2 note=81 velocity=0 time=0.10344824999999999@note_on channel=2 note=80 velocity=100 time=0@note_on channel=2 note=80 velocity=0 time=0.10344824999999999@note_on channel=2 note=78 velocity=100 time=0@note_on channel=3 note=59 velocity=0 time=0@note_on channel=3 note=64 velocity=100 time=0@note_on channel=3 note=62 velocity=100 time=0@note_on channel=2 note=78 velocity=0 time=0.10344824999999999@note_on channel=2 note=76 velocity=100 time=0@note_on channel=2 note=76 velocity=0 time=0.10344824999999999@note_on channel=2 note=76 velocity=100 time=0@note_on channel=3 note=62 velocity=0 time=0@note_on channel=3 note=64 velocity=0 time=0@note_on channel=3 note=56 velocity=100 time=0@note_on channel=2 note=76 velocity=0 time=0.10344824999999999@note_on channel=2 note=74 velocity=100 time=0@note_on channel=2 note=74 velocity=0 time=0.10344824999999999@note_on channel=2 note=73 velocity=100 time=0@note_on channel=3 note=56 velocity=0 time=0@note_on channel=3 note=64 velocity=100 time=0@note_on channel=3 note=62 velocity=100 time=0@note_on channel=2 note=73 velocity=0 time=0.10344824999999999@note_on channel=2 note=71 velocity=100 time=0@note_on channel=2 note=71 velocity=0 time=0.10344824999999999@note_on channel=2 note=73 velocity=100 time=0@note_on channel=3 note=62 velocity=0 time=0@note_on channel=3 note=64 velocity=0 time=0@note_on channel=3 note=57 velocity=100 time=0@note_on channel=2 note=73 velocity=0 time=0.10344824999999999@note_on channel=2 note=76 velocity=100 time=0@note_on channel=2 note=76 velocity=0 time=0.10344824999999999@note_on channel=2 note=69 velocity=100 time=0@note_on channel=3 note=57 velocity=0 time=0@note_on channel=3 note=54 velocity=100 time=0@note_on channel=2 note=69 velocity=0 time=0.10344824999999999@note_on channel=2 note=73 velocity=100 time=0@note_on channel=2 note=73 velocity=0 time=0.10344824999999999@note_on channel=2 note=71 velocity=100 time=0@note_on channel=3 note=54 velocity=0 time=0@note_on channel=3 note=50 velocity=100 time=0@note_on channel=2 note=71 velocity=0 time=0.10344824999999999@note_on channel=2 note=74 velocity=100 time=0@note_on channel=2 note=74 velocity=0 time=0.10344824999999999@note_on channel=2 note=68 velocity=100 time=0@note_on channel=3 note=50 velocity=0 time=0@note_on channel=3 note=52 velocity=100 time=0@note_on channel=2 note=68 velocity=0 time=0.10344824999999999@note_on channel=2 note=71 velocity=100 time=0@note_on channel=2 note=71 velocity=0 time=0.10344824999999999@note_on channel=2 note=69 velocity=100 time=0@note_on channel=3 note=52 velocity=0 time=0@note_on channel=3 note=45 velocity=100 time=0@note_on channel=3 note=45 velocity=0 time=0.20689649999999998@note_on channel=3 note=57 velocity=100 time=0@note_on channel=2 note=69 velocity=0 time=0.20689649999999998@note_on channel=3 note=57 velocity=0 time=0@note_on channel=11 note=85 velocity=100 time=0@note_on channel=11 note=85 velocity=0 time=0.10344824999999999@note_on channel=11 note=86 velocity=100 time=0@note_on channel=11 note=86 velocity=0 time=0.10344824999999999@note_on channel=11 note=85 velocity=100 time=0@note_on channel=11 note=85 velocity=0 time=0.10344824999999999@note_on channel=11 note=83 velocity=100 time=0@note_on channel=11 note=83 velocity=0 time=0.10344824999999999@note_on channel=11 note=81 velocity=100 time=0@note_on channel=12 note=54 velocity=100 time=0@note_on channel=11 note=81 velocity=0 time=0.10344824999999999@note_on channel=11 note=83 velocity=100 time=0@note_on channel=11 note=83 velocity=0 time=0.10344824999999999@note_on channel=11 note=81 velocity=100 time=0@note_on channel=12 note=54 velocity=0 time=0@note_on channel=12 note=61 velocity=100 time=0@note_on channel=12 note=57 velocity=100 time=0@note_on channel=11 note=81 velocity=0 time=0.10344824999999999@note_on channel=11 note=80 velocity=100 time=0@note_on channel=11 note=80 velocity=0 time=0.10344824999999999@note_on channel=11 note=78 velocity=100 time=0@note_on channel=12 note=57 velocity=0 time=0@note_on channel=12 note=61 velocity=0 time=0@note_on channel=12 note=61 velocity=100 time=0@note_on channel=12 note=57 velocity=100 time=0@note_on channel=11 note=78 velocity=0 time=0.10344824999999999@note_on channel=11 note=81 velocity=100 time=0@note_on channel=11 note=81 velocity=0 time=0.10344824999999999@note_on channel=11 note=80 velocity=100 time=0@note_on channel=12 note=57 velocity=0 time=0@note_on channel=12 note=61 velocity=0 time=0@note_on channel=12 note=61 velocity=100 time=0@note_on channel=12 note=57 velocity=100 time=0@note_on channel=11 note=80 velocity=0 time=0.10344824999999999@note_on channel=11 note=78 velocity=100 time=0@note_on channel=11 note=78 velocity=0 time=0.10344824999999999@note_on channel=11 note=77 velocity=100 time=0@note_on channel=12 note=57 velocity=0 time=0@note_on channel=12 note=61 velocity=0 time=0@note_on channel=12 note=56 velocity=100 time=0@note_on channel=11 note=77 velocity=0 time=0.10344824999999999@note_on channel=11 note=78 velocity=100 time=0@note_on channel=11 note=78 velocity=0 time=0.10344824999999999@note_on channel=11 note=80 velocity=100 time=0@note_on channel=12 note=56 velocity=0 time=0@note_on channel=12 note=61 velocity=100 time=0@note_on channel=12 note=59 velocity=100 time=0@note_on channel=11 note=80 velocity=0 time=0.10344824999999999@note_on channel=11 note=77 velocity=100 time=0@note_on channel=11 note=77 velocity=0 time=0.10344824999999999@note_on channel=11 note=73 velocity=100 time=0@note_on channel=12 note=59 velocity=0 time=0@note_on channel=12 note=61 velocity=0 time=0@note_on channel=12 note=61 velocity=100 time=0@note_on channel=12 note=59 velocity=100 time=0@note_on channel=11 note=73 velocity=0 time=0.10344824999999999@note_on channel=11 note=75 velocity=100 time=0@note_on channel=11 note=75 velocity=0 time=0.10344824999999999@note_on channel=11 note=77 velocity=100 time=0@note_on channel=12 note=59 velocity=0 time=0@note_on channel=12 note=61 velocity=0 time=0@note_on channel=12 note=61 velocity=100 time=0@note_on channel=12 note=59 velocity=100 time=0@note_on channel=11 note=77 velocity=0 time=0.10344824999999999@note_on channel=11 note=73 velocity=100 time=0@note_on channel=11 note=73 velocity=0 time=0.10344824999999999@note_on channel=11 note=78 velocity=100 time=0@note_on channel=12 note=59 velocity=0 time=0@note_on channel=12 note=61 velocity=0 time=0@note_on channel=12 note=54 velocity=100 time=0@note_on channel=11 note=78 velocity=0 time=0.10344824999999999@note_on channel=11 note=77 velocity=100 time=0@note_on channel=11 note=77 velocity=0 time=0.10344824999999999@note_on channel=11 note=78 velocity=100 time=0@note_on channel=12 note=54 velocity=0 time=0@note_on channel=12 note=61 velocity=100 time=0@note_on channel=12 note=57 velocity=100 time=0@note_on channel=11 note=78 velocity=0 time=0.10344824999999999@note_on channel=11 note=80 velocity=100 time=0@note_on channel=11 note=80 velocity=0 time=0.10344824999999999@note_on channel=11 note=81 velocity=100 time=0@note_on channel=12 note=57 velocity=0 time=0@note_on channel=12 note=61 velocity=0 time=0@note_on channel=12 note=61 velocity=100 time=0@note_on channel=12 note=57 velocity=100 time=0@note_on channel=11 note=81 velocity=0 time=0.10344824999999999@note_on channel=11 note=80 velocity=100 time=0@note_on channel=11 note=80 velocity=0 time=0.10344824999999999@note_on channel=11 note=81 velocity=100 time=0@note_on channel=12 note=57 velocity=0 time=0@note_on channel=12 note=61 velocity=0 time=0@note_on channel=12 note=61 velocity=100 time=0@note_on channel=12 note=57 velocity=100 time=0@note_on channel=11 note=81 velocity=0 time=0.10344824999999999@note_on channel=11 note=83 velocity=100 time=0@note_on channel=11 note=83 velocity=0 time=0.10344824999999999@note_on channel=11 note=85 velocity=100 time=0@note_on channel=12 note=57 velocity=0 time=0@note_on channel=12 note=61 velocity=0 time=0@note_on channel=12 note=53 velocity=100 time=0@note_on channel=11 note=85 velocity=0 time=0.10344824999999999@note_on channel=11 note=84 velocity=100 time=0@note_on channel=11 note=84 velocity=0 time=0.10344824999999999@note_on channel=11 note=85 velocity=100 time=0@note_on channel=12 note=53 velocity=0 time=0@note_on channel=12 note=61 velocity=100 time=0@note_on channel=12 note=56 velocity=100 time=0@note_on channel=11 note=85 velocity=0 time=0.10344824999999999@note_on channel=11 note=84 velocity=100 time=0@note_on channel=11 note=84 velocity=0 time=0.10344824999999999@note_on channel=11 note=85 velocity=100 time=0@note_on channel=12 note=56 velocity=0 time=0@note_on channel=12 note=61 velocity=0 time=0@note_on channel=12 note=55 velocity=100 time=0@note_on channel=12 note=61 velocity=100 time=0@note_on channel=11 note=85 velocity=0 time=0.10344824999999999@note_on channel=11 note=83 velocity=100 time=0@note_on channel=11 note=83 velocity=0 time=0.10344824999999999@note_on channel=11 note=85 velocity=100 time=0@note_on channel=12 note=61 velocity=0 time=0@note_on channel=12 note=55 velocity=0 time=0@note_on channel=12 note=54 velocity=100 time=0@note_on channel=12 note=61 velocity=100 time=0@note_on channel=11 note=85 velocity=0 time=0.10344824999999999@note_on channel=11 note=82 velocity=100 time=0@note_on channel=11 note=82 velocity=0 time=0.10344824999999999@note_on channel=11 note=86 velocity=100 time=0@note_on channel=12 note=61 velocity=0 time=0@note_on channel=12 note=54 velocity=0 time=0@note_on channel=12 note=47 velocity=100 time=0@note_on channel=11 note=86 velocity=0 time=0.10344824999999999@note_on channel=11 note=85 velocity=100 time=0@note_on channel=11 note=85 velocity=0 time=0.10344824999999999@note_on channel=11 note=86 velocity=100 time=0@note_on channel=12 note=47 velocity=0 time=0@note_on channel=12 note=59 velocity=100 time=0@note_on channel=12 note=54 velocity=100 time=0@note_on channel=11 note=86 velocity=0 time=0.10344824999999999@note_on channel=11 note=85 velocity=100 time=0@note_on channel=11 note=85 velocity=0 time=0.10344824999999999@note_on channel=11 note=86 velocity=100 time=0@note_on channel=12 note=54 velocity=0 time=0@note_on channel=12 note=59 velocity=0 time=0@note_on channel=12 note=59 velocity=100 time=0@note_on channel=12 note=54 velocity=100 time=0@note_on channel=11 note=86 velocity=0 time=0.10344824999999999@note_on channel=11 note=85 velocity=100 time=0@note_on channel=11 note=85 velocity=0 time=0.10344824999999999@note_on channel=11 note=86 velocity=100 time=0@note_on channel=12 note=54 velocity=0 time=0@note_on channel=12 note=59 velocity=0 time=0@note_on channel=12 note=59 velocity=100 time=0@note_on channel=12 note=54 velocity=100 time=0@note_on channel=11 note=86 velocity=0 time=0.10344824999999999@note_on channel=11 note=85 velocity=100 time=0@note_on channel=11 note=85 velocity=0 time=0.10344824999999999@note_on channel=11 note=86 velocity=100 time=0@note_on channel=12 note=54 velocity=0 time=0@note_on channel=12 note=59 velocity=0 time=0@note_on channel=12 note=47 velocity=100 time=0@note_on channel=11 note=86 velocity=0 time=0.10344824999999999@note_on channel=11 note=85 velocity=100 time=0@note_on channel=11 note=85 velocity=0 time=0.10344824999999999@note_on channel=11 note=83 velocity=100 time=0@note_on channel=12 note=47 velocity=0 time=0@note_on channel=12 note=59 velocity=100 time=0@note_on channel=12 note=56 velocity=100 time=0@note_on channel=11 note=83 velocity=0 time=0.10344824999999999@note_on channel=11 note=81 velocity=100 time=0@note_on channel=11 note=81 velocity=0 time=0.10344824999999999@note_on channel=11 note=80 velocity=100 time=0@note_on channel=12 note=56 velocity=0 time=0@note_on channel=12 note=59 velocity=0 time=0@note_on channel=12 note=59 velocity=100 time=0@note_on channel=12 note=56 velocity=100 time=0@note_on channel=11 note=80 velocity=0 time=0.10344824999999999@note_on channel=11 note=81 velocity=100 time=0@note_on channel=11 note=81 velocity=0 time=0.10344824999999999@note_on channel=11 note=83 velocity=100 time=0@note_on channel=12 note=56 velocity=0 time=0@note_on channel=12 note=59 velocity=0 time=0@note_on channel=12 note=59 velocity=100 time=0@note_on channel=12 note=56 velocity=100 time=0@note_on channel=11 note=83 velocity=0 time=0.10344824999999999@note_on channel=11 note=80 velocity=100 time=0@note_on channel=11 note=80 velocity=0 time=0.10344824999999999@note_on channel=11 note=81 velocity=100 time=0@note_on channel=12 note=56 velocity=0 time=0@note_on channel=12 note=59 velocity=0 time=0@note_on channel=12 note=49 velocity=100 time=0@note_on channel=11 note=81 velocity=0 time=0.10344824999999999@note_on channel=11 note=83 velocity=100 time=0@note_on channel=11 note=83 velocity=0 time=0.10344824999999999@note_on channel=11 note=85 velocity=100 time=0@note_on channel=12 note=49 velocity=0 time=0@note_on channel=12 note=57 velocity=100 time=0@note_on channel=12 note=54 velocity=100 time=0@note_on channel=11 note=85 velocity=0 time=0.10344824999999999@note_on channel=11 note=78 velocity=100 time=0@note_on channel=11 note=78 velocity=0 time=0.10344824999999999@note_on channel=11 note=77 velocity=100 time=0@note_on channel=12 note=54 velocity=0 time=0@note_on channel=12 note=57 velocity=0 time=0@note_on channel=12 note=49 velocity=100 time=0@note_on channel=11 note=77 velocity=0 time=0.10344824999999999@note_on channel=11 note=78 velocity=100 time=0@note_on channel=11 note=78 velocity=0 time=0.10344824999999999@note_on channel=11 note=80 velocity=100 time=0@note_on channel=12 note=49 velocity=0 time=0@note_on channel=12 note=59 velocity=100 time=0@note_on channel=12 note=56 velocity=100 time=0@note_on channel=11 note=80 velocity=0 time=0.10344824999999999@note_on channel=11 note=77 velocity=100 time=0@note_on channel=11 note=77 velocity=0 time=0.10344824999999999@note_on channel=11 note=78 velocity=100 time=0@note_on channel=12 note=56 velocity=0 time=0@note_on channel=12 note=59 velocity=0 time=0@note_on channel=12 note=57 velocity=100 time=0@note_on channel=12 note=54 velocity=100 time=0@note_on channel=4 note=69 velocity=100 time=0.41379299999999997@note_on channel=4 note=81 velocity=100 time=0@note_on channel=11 note=78 velocity=0 time=0@note_on channel=12 note=54 velocity=0 time=0@note_on channel=12 note=57 velocity=0 time=0@note_on channel=4 note=81 velocity=0 time=0.20689649999999998@note_on channel=4 note=69 velocity=0 time=0@note_on channel=4 note=71 velocity=100 time=0@note_on channel=4 note=83 velocity=100 time=0@note_on channel=4 note=83 velocity=0 time=0.20689649999999998@note_on channel=4 note=71 velocity=0 time=0@note_on channel=4 note=73 velocity=100 time=0@note_on channel=4 note=85 velocity=100 time=0@note_on channel=5 note=57 velocity=100 time=0@note_on channel=5 note=57 velocity=0 time=0.20689649999999998@note_on channel=5 note=57 velocity=100 time=0@note_on channel=4 note=85 velocity=0 time=0.20689649999999998@note_on channel=4 note=73 velocity=0 time=0@note_on channel=4 note=69 velocity=100 time=0@note_on channel=4 note=81 velocity=100 time=0@note_on channel=5 note=57 velocity=0 time=0@note_on channel=5 note=57 velocity=100 time=0@note_on channel=4 note=81 velocity=0 time=0.20689649999999998@note_on channel=4 note=69 velocity=0 time=0@note_on channel=4 note=71 velocity=100 time=0@note_on channel=4 note=83 velocity=100 time=0@note_on channel=5 note=57 velocity=0 time=0@note_on channel=5 note=57 velocity=100 time=0@note_on channel=4 note=83 velocity=0 time=0.20689649999999998@note_on channel=4 note=71 velocity=0 time=0@note_on channel=4 note=73 velocity=100 time=0@note_on channel=4 note=85 velocity=100 time=0@note_on channel=5 note=57 velocity=0 time=0@note_on channel=5 note=57 velocity=100 time=0@note_on channel=4 note=85 velocity=0 time=0.20689649999999998@note_on channel=4 note=73 velocity=0 time=0@note_on channel=4 note=71 velocity=100 time=0@note_on channel=4 note=83 velocity=100 time=0@note_on channel=5 note=57 velocity=0 time=0@note_on channel=5 note=57 velocity=100 time=0@note_on channel=4 note=83 velocity=0 time=0.20689649999999998@note_on channel=4 note=71 velocity=0 time=0@note_on channel=4 note=69 velocity=100 time=0@note_on channel=4 note=81 velocity=100 time=0@note_on channel=5 note=57 velocity=0 time=0@note_on channel=5 note=57 velocity=100 time=0@note_on channel=4 note=81 velocity=0 time=0.20689649999999998@note_on channel=4 note=69 velocity=0 time=0@note_on channel=4 note=68 velocity=100 time=0@note_on channel=4 note=80 velocity=100 time=0@note_on channel=5 note=57 velocity=0 time=0@note_on channel=5 note=57 velocity=100 time=0@note_on channel=4 note=80 velocity=0 time=0.20689649999999998@note_on channel=4 note=68 velocity=0 time=0@note_on channel=4 note=78 velocity=100 time=0@note_on channel=4 note=66 velocity=100 time=0@note_on channel=5 note=57 velocity=0 time=0@note_on channel=5 note=50 velocity=100 time=0@note_on channel=4 note=66 velocity=0 time=0.20689649999999998@note_on channel=4 note=78 velocity=0 time=0@note_on channel=4 note=80 velocity=100 time=0@note_on channel=4 note=68 velocity=100 time=0@note_on channel=5 note=50 velocity=0 time=0@note_on channel=5 note=50 velocity=100 time=0@note_on channel=4 note=68 velocity=0 time=0.20689649999999998@note_on channel=4 note=80 velocity=0 time=0@note_on channel=4 note=81 velocity=100 time=0@note_on channel=4 note=69 velocity=100 time=0@note_on channel=5 note=50 velocity=0 time=0@note_on channel=5 note=51 velocity=100 time=0@note_on channel=4 note=69 velocity=0 time=0.20689649999999998@note_on channel=4 note=81 velocity=0 time=0@note_on channel=4 note=83 velocity=100 time=0@note_on channel=4 note=71 velocity=100 time=0@note_on channel=5 note=51 velocity=0 time=0@note_on channel=5 note=51 velocity=100 time=0@note_on channel=4 note=71 velocity=0 time=0.20689649999999998@note_on channel=4 note=83 velocity=0 time=0@note_on channel=4 note=80 velocity=100 time=0@note_on channel=4 note=68 velocity=100 time=0@note_on channel=5 note=51 velocity=0 time=0@note_on channel=5 note=52 velocity=100 time=0@note_on channel=4 note=68 velocity=0 time=0.20689649999999998@note_on channel=4 note=80 velocity=0 time=0@note_on channel=4 note=76 velocity=100 time=0@note_on channel=4 note=64 velocity=100 time=0@note_on channel=5 note=52 velocity=0 time=0@note_on channel=5 note=52 velocity=100 time=0@note_on channel=4 note=64 velocity=0 time=0.20689649999999998@note_on channel=4 note=76 velocity=0 time=0@note_on channel=4 note=81 velocity=100 time=0@note_on channel=4 note=69 velocity=100 time=0@note_on channel=5 note=52 velocity=0 time=0@note_on channel=5 note=52 velocity=100 time=0@note_on channel=4 note=69 velocity=0 time=0.20689649999999998@note_on channel=4 note=81 velocity=0 time=0@note_on channel=4 note=83 velocity=100 time=0@note_on channel=4 note=71 velocity=100 time=0@note_on channel=5 note=52 velocity=0 time=0@note_on channel=5 note=52 velocity=100 time=0@note_on channel=4 note=71 velocity=0 time=0.20689649999999998@note_on channel=4 note=83 velocity=0 time=0@note_on channel=4 note=73 velocity=100 time=0@note_on channel=4 note=85 velocity=100 time=0@note_on channel=5 note=52 velocity=0 time=0@note_on channel=5 note=57 velocity=100 time=0@note_on channel=5 note=57 velocity=0 time=0.20689649999999998@note_on channel=5 note=57 velocity=100 time=0@note_on channel=4 note=85 velocity=0 time=0.20689649999999998@note_on channel=4 note=73 velocity=0 time=0@note_on channel=4 note=81 velocity=100 time=0@note_on channel=4 note=69 velocity=100 time=0@note_on channel=5 note=57 velocity=0 time=0@note_on channel=5 note=57 velocity=100 time=0@note_on channel=4 note=69 velocity=0 time=0.20689649999999998@note_on channel=4 note=81 velocity=0 time=0@note_on channel=4 note=83 velocity=100 time=0@note_on channel=4 note=71 velocity=100 time=0@note_on channel=5 note=57 velocity=0 time=0@note_on channel=5 note=57 velocity=100 time=0@note_on channel=4 note=71 velocity=0 time=0.20689649999999998@note_on channel=4 note=83 velocity=0 time=0@note_on channel=4 note=73 velocity=100 time=0@note_on channel=4 note=85 velocity=100 time=0@note_on channel=5 note=57 velocity=0 time=0@note_on channel=5 note=57 velocity=100 time=0@note_on channel=4 note=85 velocity=0 time=0.20689649999999998@note_on channel=4 note=73 velocity=0 time=0@note_on channel=4 note=71 velocity=100 time=0@note_on channel=4 note=83 velocity=100 time=0@note_on channel=5 note=57 velocity=0 time=0@note_on channel=5 note=57 velocity=100 time=0@note_on channel=4 note=83 velocity=0 time=0.20689649999999998@note_on channel=4 note=71 velocity=0 time=0@note_on channel=4 note=69 velocity=100 time=0@note_on channel=4 note=81 velocity=100 time=0@note_on channel=5 note=57 velocity=0 time=0@note_on channel=5 note=57 velocity=100 time=0@note_on channel=4 note=81 velocity=0 time=0.20689649999999998@note_on channel=4 note=69 velocity=0 time=0@note_on channel=4 note=68 velocity=100 time=0@note_on channel=4 note=80 velocity=100 time=0@note_on channel=5 note=57 velocity=0 time=0@note_on channel=5 note=57 velocity=100 time=0@note_on channel=4 note=80 velocity=0 time=0.20689649999999998@note_on channel=4 note=68 velocity=0 time=0@note_on channel=4 note=78 velocity=100 time=0@note_on channel=4 note=66 velocity=100 time=0@note_on channel=5 note=57 velocity=0 time=0@note_on channel=5 note=50 velocity=100 time=0@note_on channel=4 note=66 velocity=0 time=0.20689649999999998@note_on channel=4 note=78 velocity=0 time=0@note_on channel=4 note=83 velocity=100 time=0@note_on channel=4 note=71 velocity=100 time=0@note_on channel=5 note=50 velocity=0 time=0@note_on channel=5 note=50 velocity=100 time=0@note_on channel=4 note=71 velocity=0 time=0.20689649999999998@note_on channel=4 note=83 velocity=0 time=0@note_on channel=4 note=80 velocity=100 time=0@note_on channel=4 note=68 velocity=100 time=0@note_on channel=5 note=50 velocity=0 time=0@note_on channel=5 note=52 velocity=100 time=0@note_on channel=4 note=68 velocity=0 time=0.20689649999999998@note_on channel=4 note=80 velocity=0 time=0@note_on channel=4 note=76 velocity=100 time=0@note_on channel=4 note=64 velocity=100 time=0@note_on channel=5 note=52 velocity=0 time=0@note_on channel=5 note=52 velocity=100 time=0@note_on channel=4 note=64 velocity=0 time=0.20689649999999998@note_on channel=4 note=76 velocity=0 time=0@note_on channel=4 note=69 velocity=100 time=0@note_on channel=4 note=81 velocity=100 time=0@note_on channel=5 note=52 velocity=0 time=0@note_on channel=5 note=45 velocity=100 time=0@note_on channel=4 note=81 velocity=0 time=0.41379299999999997@note_on channel=4 note=69 velocity=0 time=0@note_on channel=5 note=45 velocity=0 time=0@note_on channel=6 note=81 velocity=100 time=0@note_on channel=6 note=69 velocity=100 time=0@note_on channel=6 note=69 velocity=0 time=0.20689649999999998@note_on channel=6 note=81 velocity=0 time=0@note_on channel=6 note=83 velocity=100 time=0@note_on channel=6 note=71 velocity=100 time=0@note_on channel=6 note=71 velocity=0 time=0.20689649999999998@note_on channel=6 note=83 velocity=0 time=0@note_on channel=6 note=73 velocity=100 time=0@note_on channel=6 note=85 velocity=100 time=0@note_on channel=7 note=57 velocity=100 time=0@note_on channel=7 note=57 velocity=0 time=0.20689649999999998@note_on channel=7 note=57 velocity=100 time=0@note_on channel=6 note=85 velocity=0 time=0.20689649999999998@note_on channel=6 note=73 velocity=0 time=0@note_on channel=6 note=69 velocity=100 time=0@note_on channel=6 note=81 velocity=100 time=0@note_on channel=7 note=57 velocity=0 time=0@note_on channel=7 note=57 velocity=100 time=0@note_on channel=6 note=81 velocity=0 time=0.20689649999999998@note_on channel=6 note=69 velocity=0 time=0@note_on channel=6 note=71 velocity=100 time=0@note_on channel=6 note=83 velocity=100 time=0@note_on channel=7 note=57 velocity=0 time=0@note_on channel=7 note=57 velocity=100 time=0@note_on channel=6 note=83 velocity=0 time=0.20689649999999998@note_on channel=6 note=71 velocity=0 time=0@note_on channel=6 note=73 velocity=100 time=0@note_on channel=6 note=85 velocity=100 time=0@note_on channel=7 note=57 velocity=0 time=0@note_on channel=7 note=57 velocity=100 time=0@note_on channel=6 note=85 velocity=0 time=0.20689649999999998@note_on channel=6 note=73 velocity=0 time=0@note_on channel=6 note=71 velocity=100 time=0@note_on channel=6 note=83 velocity=100 time=0@note_on channel=7 note=57 velocity=0 time=0@note_on channel=7 note=57 velocity=100 time=0@note_on channel=6 note=83 velocity=0 time=0.20689649999999998@note_on channel=6 note=71 velocity=0 time=0@note_on channel=6 note=69 velocity=100 time=0@note_on channel=6 note=81 velocity=100 time=0@note_on channel=7 note=57 velocity=0 time=0@note_on channel=7 note=57 velocity=100 time=0@note_on channel=6 note=81 velocity=0 time=0.20689649999999998@note_on channel=6 note=69 velocity=0 time=0@note_on channel=6 note=68 velocity=100 time=0@note_on channel=6 note=80 velocity=100 time=0@note_on channel=7 note=57 velocity=0 time=0@note_on channel=7 note=57 velocity=100 time=0@note_on channel=6 note=80 velocity=0 time=0.20689649999999998@note_on channel=6 note=68 velocity=0 time=0@note_on channel=6 note=78 velocity=100 time=0@note_on channel=6 note=66 velocity=100 time=0@note_on channel=7 note=57 velocity=0 time=0@note_on channel=7 note=50 velocity=100 time=0@note_on channel=6 note=66 velocity=0 time=0.20689649999999998@note_on channel=6 note=78 velocity=0 time=0@note_on channel=6 note=80 velocity=100 time=0@note_on channel=6 note=68 velocity=100 time=0@note_on channel=7 note=50 velocity=0 time=0@note_on channel=7 note=50 velocity=100 time=0@note_on channel=6 note=68 velocity=0 time=0.20689649999999998@note_on channel=6 note=80 velocity=0 time=0@note_on channel=6 note=81 velocity=100 time=0@note_on channel=6 note=69 velocity=100 time=0@note_on channel=7 note=50 velocity=0 time=0@note_on channel=7 note=51 velocity=100 time=0@note_on channel=6 note=69 velocity=0 time=0.20689649999999998@note_on channel=6 note=81 velocity=0 time=0@note_on channel=6 note=83 velocity=100 time=0@note_on channel=6 note=71 velocity=100 time=0@note_on channel=7 note=51 velocity=0 time=0@note_on channel=7 note=51 velocity=100 time=0@note_on channel=6 note=71 velocity=0 time=0.20689649999999998@note_on channel=6 note=83 velocity=0 time=0@note_on channel=6 note=80 velocity=100 time=0@note_on channel=6 note=68 velocity=100 time=0@note_on channel=7 note=51 velocity=0 time=0@note_on channel=7 note=52 velocity=100 time=0@note_on channel=6 note=68 velocity=0 time=0.20689649999999998@note_on channel=6 note=80 velocity=0 time=0@note_on channel=6 note=76 velocity=100 time=0@note_on channel=6 note=64 velocity=100 time=0@note_on channel=7 note=52 velocity=0 time=0@note_on channel=7 note=52 velocity=100 time=0@note_on channel=6 note=64 velocity=0 time=0.20689649999999998@note_on channel=6 note=76 velocity=0 time=0@note_on channel=6 note=81 velocity=100 time=0@note_on channel=6 note=69 velocity=100 time=0@note_on channel=7 note=52 velocity=0 time=0@note_on channel=7 note=52 velocity=100 time=0@note_on channel=6 note=69 velocity=0 time=0.20689649999999998@note_on channel=6 note=81 velocity=0 time=0@note_on channel=6 note=83 velocity=100 time=0@note_on channel=6 note=71 velocity=100 time=0@note_on channel=7 note=52 velocity=0 time=0@note_on channel=7 note=52 velocity=100 time=0@note_on channel=6 note=71 velocity=0 time=0.20689649999999998@note_on channel=6 note=83 velocity=0 time=0@note_on channel=6 note=73 velocity=100 time=0@note_on channel=6 note=85 velocity=100 time=0@note_on channel=7 note=52 velocity=0 time=0@note_on channel=7 note=57 velocity=100 time=0@note_on channel=7 note=57 velocity=0 time=0.20689649999999998@note_on channel=7 note=57 velocity=100 time=0@note_on channel=6 note=85 velocity=0 time=0.20689649999999998@note_on channel=6 note=73 velocity=0 time=0@note_on channel=6 note=81 velocity=100 time=0@note_on channel=6 note=69 velocity=100 time=0@note_on channel=7 note=57 velocity=0 time=0@note_on channel=7 note=57 velocity=100 time=0@note_on channel=6 note=69 velocity=0 time=0.20689649999999998@note_on channel=6 note=81 velocity=0 time=0@note_on channel=6 note=83 velocity=100 time=0@note_on channel=6 note=71 velocity=100 time=0@note_on channel=7 note=57 velocity=0 time=0@note_on channel=7 note=57 velocity=100 time=0@note_on channel=6 note=71 velocity=0 time=0.20689649999999998@note_on channel=6 note=83 velocity=0 time=0@note_on channel=6 note=73 velocity=100 time=0@note_on channel=6 note=85 velocity=100 time=0@note_on channel=7 note=57 velocity=0 time=0@note_on channel=7 note=57 velocity=100 time=0@note_on channel=6 note=85 velocity=0 time=0.20689649999999998@note_on channel=6 note=73 velocity=0 time=0@note_on channel=6 note=71 velocity=100 time=0@note_on channel=6 note=83 velocity=100 time=0@note_on channel=7 note=57 velocity=0 time=0@note_on channel=7 note=57 velocity=100 time=0@note_on channel=6 note=83 velocity=0 time=0.20689649999999998@note_on channel=6 note=71 velocity=0 time=0@note_on channel=6 note=69 velocity=100 time=0@note_on channel=6 note=81 velocity=100 time=0@note_on channel=7 note=57 velocity=0 time=0@note_on channel=7 note=57 velocity=100 time=0@note_on channel=6 note=81 velocity=0 time=0.20689649999999998@note_on channel=6 note=69 velocity=0 time=0@note_on channel=6 note=68 velocity=100 time=0@note_on channel=6 note=80 velocity=100 time=0@note_on channel=7 note=57 velocity=0 time=0@note_on channel=7 note=57 velocity=100 time=0@note_on channel=6 note=80 velocity=0 time=0.20689649999999998@note_on channel=6 note=68 velocity=0 time=0@note_on channel=6 note=78 velocity=100 time=0@note_on channel=6 note=66 velocity=100 time=0@note_on channel=7 note=57 velocity=0 time=0@note_on channel=7 note=50 velocity=100 time=0@note_on channel=6 note=66 velocity=0 time=0.20689649999999998@note_on channel=6 note=78 velocity=0 time=0@note_on channel=6 note=83 velocity=100 time=0@note_on channel=6 note=71 velocity=100 time=0@note_on channel=7 note=50 velocity=0 time=0@note_on channel=7 note=50 velocity=100 time=0@note_on channel=6 note=71 velocity=0 time=0.20689649999999998@note_on channel=6 note=83 velocity=0 time=0@note_on channel=6 note=80 velocity=100 time=0@note_on channel=6 note=68 velocity=100 time=0@note_on channel=7 note=50 velocity=0 time=0@note_on channel=7 note=52 velocity=100 time=0@note_on channel=6 note=68 velocity=0 time=0.20689649999999998@note_on channel=6 note=80 velocity=0 time=0@note_on channel=6 note=76 velocity=100 time=0@note_on channel=6 note=64 velocity=100 time=0@note_on channel=7 note=52 velocity=0 time=0@note_on channel=7 note=52 velocity=100 time=0@note_on channel=6 note=64 velocity=0 time=0.20689649999999998@note_on channel=6 note=76 velocity=0 time=0@note_on channel=6 note=69 velocity=100 time=0@note_on channel=6 note=81 velocity=100 time=0@note_on channel=7 note=52 velocity=0 time=0@note_on channel=7 note=45 velocity=100 time=0@<meta message key_signature key='C' time=0.41379299999999997>@note_on channel=0 note=71 velocity=100 time=0@note_on channel=6 note=81 velocity=0 time=0@note_on channel=6 note=69 velocity=0 time=0@note_on channel=7 note=45 velocity=0 time=0@note_on channel=0 note=71 velocity=0 time=0.10344824999999999@note_on channel=0 note=69 velocity=100 time=0@note_on channel=0 note=69 velocity=0 time=0.10344824999999999@note_on channel=0 note=68 velocity=100 time=0@note_on channel=0 note=68 velocity=0 time=0.10344824999999999@note_on channel=0 note=69 velocity=100 time=0@<meta message marker text='Back' time=0.10344824999999999>@note_on channel=0 note=69 velocity=0 time=0@note_on channel=0 note=72 velocity=100 time=0@note_on channel=1 note=57 velocity=100 time=0@note_on channel=0 note=72 velocity=0 time=0.20689649999999998@note_on channel=1 note=57 velocity=0 time=0@note_on channel=1 note=64 velocity=100 time=0@note_on channel=1 note=60 velocity=100 time=0@note_on channel=0 note=74 velocity=100 time=0.20689649999999998@note_on channel=1 note=60 velocity=0 time=0@note_on channel=1 note=64 velocity=0 time=0@note_on channel=1 note=64 velocity=100 time=0@note_on channel=1 note=60 velocity=100 time=0@note_on channel=0 note=74 velocity=0 time=0.10344824999999999@note_on channel=0 note=72 velocity=100 time=0@note_on channel=0 note=72 velocity=0 time=0.10344824999999999@note_on channel=0 note=71 velocity=100 time=0@note_on channel=1 note=60 velocity=0 time=0@note_on channel=1 note=64 velocity=0 time=0@note_on channel=1 note=64 velocity=100 time=0@note_on channel=1 note=60 velocity=100 time=0@note_on channel=0 note=71 velocity=0 time=0.10344824999999999@note_on channel=0 note=72 velocity=100 time=0@note_on channel=0 note=72 velocity=0 time=0.10344824999999999@note_on channel=0 note=76 velocity=100 time=0@note_on channel=1 note=60 velocity=0 time=0@note_on channel=1 note=64 velocity=0 time=0@note_on channel=1 note=57 velocity=100 time=0@note_on channel=0 note=76 velocity=0 time=0.20689649999999998@note_on channel=1 note=57 velocity=0 time=0@note_on channel=1 note=64 velocity=100 time=0@note_on channel=1 note=60 velocity=100 time=0@note_on channel=0 note=77 velocity=100 time=0.20689649999999998@note_on channel=1 note=60 velocity=0 time=0@note_on channel=1 note=64 velocity=0 time=0@note_on channel=1 note=64 velocity=100 time=0@note_on channel=1 note=60 velocity=100 time=0@note_on channel=0 note=77 velocity=0 time=0.10344824999999999@note_on channel=0 note=76 velocity=100 time=0@note_on channel=0 note=76 velocity=0 time=0.10344824999999999@note_on channel=0 note=75 velocity=100 time=0@note_on channel=1 note=60 velocity=0 time=0@note_on channel=1 note=64 velocity=0 time=0@note_on channel=1 note=64 velocity=100 time=0@note_on channel=1 note=60 velocity=100 time=0@note_on channel=0 note=75 velocity=0 time=0.10344824999999999@note_on channel=0 note=76 velocity=100 time=0@note_on channel=0 note=76 velocity=0 time=0.10344824999999999@note_on channel=0 note=83 velocity=100 time=0@note_on channel=1 note=60 velocity=0 time=0@note_on channel=1 note=64 velocity=0 time=0@note_on channel=1 note=57 velocity=100 time=0@note_on channel=0 note=83 velocity=0 time=0.10344824999999999@note_on channel=0 note=81 velocity=100 time=0@note_on channel=0 note=81 velocity=0 time=0.10344824999999999@note_on channel=0 note=80 velocity=100 time=0@note_on channel=1 note=57 velocity=0 time=0@note_on channel=1 note=64 velocity=100 time=0@note_on channel=1 note=60 velocity=100 time=0@note_on channel=0 note=80 velocity=0 time=0.10344824999999999@note_on channel=0 note=81 velocity=100 time=0@note_on channel=0 note=81 velocity=0 time=0.10344824999999999@note_on channel=0 note=83 velocity=100 time=0@note_on channel=1 note=60 velocity=0 time=0@note_on channel=1 note=64 velocity=0 time=0@note_on channel=1 note=57 velocity=100 time=0@note_on channel=0 note=83 velocity=0 time=0.10344824999999999@note_on channel=0 note=81 velocity=100 time=0@note_on channel=0 note=81 velocity=0 time=0.10344824999999999@note_on channel=0 note=80 velocity=100 time=0@note_on channel=1 note=57 velocity=0 time=0@note_on channel=1 note=64 velocity=100 time=0@note_on channel=1 note=60 velocity=100 time=0@note_on channel=0 note=80 velocity=0 time=0.10344824999999999@note_on channel=0 note=81 velocity=100 time=0@note_on channel=0 note=81 velocity=0 time=0.10344824999999999@note_on channel=0 note=84 velocity=100 time=0@note_on channel=1 note=60 velocity=0 time=0@note_on channel=1 note=64 velocity=0 time=0@note_on channel=1 note=57 velocity=100 time=0@note_on channel=1 note=57 velocity=0 time=0.20689649999999998@note_on channel=1 note=64 velocity=100 time=0@note_on channel=1 note=60 velocity=100 time=0@note_on channel=0 note=84 velocity=0 time=0.20689649999999998@note_on channel=0 note=81 velocity=100 time=0@note_on channel=1 note=60 velocity=0 time=0@note_on channel=1 note=64 velocity=0 time=0@note_on channel=1 note=64 velocity=100 time=0@note_on channel=1 note=60 velocity=100 time=0@note_on channel=0 note=81 velocity=0 time=0.20689649999999998@note_on channel=0 note=84 velocity=100 time=0@note_on channel=1 note=60 velocity=0 time=0@note_on channel=1 note=64 velocity=0 time=0@note_on channel=1 note=64 velocity=100 time=0@note_on channel=1 note=60 velocity=100 time=0@note_on channel=0 note=84 velocity=0 time=0.20689649999999998@note_on channel=0 note=79 velocity=100 time=0@note_on channel=1 note=60 velocity=0 time=0@note_on channel=1 note=64 velocity=0 time=0@note_on channel=1 note=52 velocity=100 time=0@note_on channel=0 note=79 velocity=0 time=0.051724124999999996@note_on channel=0 note=81 velocity=100 time=0@note_on channel=0 note=81 velocity=0 time=0.051724124999999996@note_on channel=0 note=83 velocity=100 time=0@note_on channel=0 note=83 velocity=0 time=0.10344824999999999@note_on channel=0 note=78 velocity=100 time=0@note_on channel=0 note=81 velocity=100 time=0@note_on channel=1 note=52 velocity=0 time=0@note_on channel=1 note=64 velocity=100 time=0@note_on channel=1 note=59 velocity=100 time=0@note_on channel=0 note=81 velocity=0 time=0.20689649999999998@note_on channel=0 note=78 velocity=0 time=0@note_on channel=0 note=79 velocity=100 time=0@note_on channel=0 note=76 velocity=100 time=0@note_on channel=1 note=59 velocity=0 time=0@note_on channel=1 note=64 velocity=0 time=0@note_on channel=1 note=64 velocity=100 time=0@note_on channel=1 note=59 velocity=100 time=0@note_on channel=0 note=76 velocity=0 time=0.20689649999999998@note_on channel=0 note=79 velocity=0 time=0@note_on channel=0 note=81 velocity=100 time=0@note_on channel=0 note=78 velocity=100 time=0@note_on channel=1 note=59 velocity=0 time=0@note_on channel=1 note=64 velocity=0 time=0@note_on channel=1 note=64 velocity=100 time=0@note_on channel=1 note=59 velocity=100 time=0@note_on channel=0 note=78 velocity=0 time=0.20689649999999998@note_on channel=0 note=81 velocity=0 time=0@note_on channel=0 note=79 velocity=100 time=0@note_on channel=1 note=59 velocity=0 time=0@note_on channel=1 note=64 velocity=0 time=0@note_on channel=1 note=52 velocity=100 time=0@note_on channel=0 note=79 velocity=0 time=0.051724124999999996@note_on channel=0 note=81 velocity=100 time=0@note_on channel=0 note=81 velocity=0 time=0.051724124999999996@note_on channel=0 note=83 velocity=100 time=0@note_on channel=0 note=83 velocity=0 time=0.10344824999999999@note_on channel=0 note=78 velocity=100 time=0@note_on channel=0 note=81 velocity=100 time=0@note_on channel=1 note=52 velocity=0 time=0@note_on channel=1 note=64 velocity=100 time=0@note_on channel=1 note=59 velocity=100 time=0@note_on channel=0 note=81 velocity=0 time=0.20689649999999998@note_on channel=0 note=78 velocity=0 time=0@note_on channel=0 note=79 velocity=100 time=0@note_on channel=0 note=76 velocity=100 time=0@note_on channel=1 note=59 velocity=0 time=0@note_on channel=1 note=64 velocity=0 time=0@note_on channel=1 note=64 velocity=100 time=0@note_on channel=1 note=59 velocity=100 time=0@note_on channel=0 note=76 velocity=0 time=0.20689649999999998@note_on channel=0 note=79 velocity=0 time=0@note_on channel=0 note=78 velocity=100 time=0@note_on channel=0 note=81 velocity=100 time=0@note_on channel=1 note=59 velocity=0 time=0@note_on channel=1 note=64 velocity=0 time=0@note_on channel=1 note=64 velocity=100 time=0@note_on channel=1 note=59 velocity=100 time=0@note_on channel=0 note=81 velocity=0 time=0.20689649999999998@note_on channel=0 note=78 velocity=0 time=0@note_on channel=0 note=79 velocity=100 time=0@note_on channel=1 note=59 velocity=0 time=0@note_on channel=1 note=64 velocity=0 time=0@note_on channel=1 note=52 velocity=100 time=0@note_on channel=0 note=79 velocity=0 time=0.051724124999999996@note_on channel=0 note=81 velocity=100 time=0@note_on channel=0 note=81 velocity=0 time=0.051724124999999996@note_on channel=0 note=83 velocity=100 time=0@note_on channel=0 note=83 velocity=0 time=0.10344824999999999@note_on channel=0 note=78 velocity=100 time=0@note_on channel=0 note=81 velocity=100 time=0@note_on channel=1 note=52 velocity=0 time=0@note_on channel=1 note=64 velocity=100 time=0@note_on channel=1 note=59 velocity=100 time=0@note_on channel=0 note=81 velocity=0 time=0.20689649999999998@note_on channel=0 note=78 velocity=0 time=0@note_on channel=0 note=79 velocity=100 time=0@note_on channel=0 note=76 velocity=100 time=0@note_on channel=1 note=59 velocity=0 time=0@note_on channel=1 note=64 velocity=0 time=0@note_on channel=1 note=47 velocity=100 time=0@note_on channel=0 note=76 velocity=0 time=0.20689649999999998@note_on channel=0 note=79 velocity=0 time=0@note_on channel=0 note=78 velocity=100 time=0@note_on channel=0 note=75 velocity=100 time=0@note_on channel=1 note=47 velocity=0 time=0@note_on channel=1 note=59 velocity=100 time=0@note_on channel=0 note=75 velocity=0 time=0.20689649999999998@note_on channel=0 note=78 velocity=0 time=0@note_on channel=0 note=76 velocity=100 time=0@note_on channel=1 note=59 velocity=0 time=0@note_on channel=1 note=52 velocity=100 time=0@note_on channel=0 note=76 velocity=0 time=0.41379299999999997@note_on channel=1 note=52 velocity=0 time=0@note_on channel=2 note=71 velocity=100 time=0@note_on channel=2 note=71 velocity=0 time=0.10344824999999999@note_on channel=2 note=69 velocity=100 time=0@note_on channel=2 note=69 velocity=0 time=0.10344824999999999@note_on channel=2 note=68 velocity=100 time=0@note_on channel=2 note=68 velocity=0 time=0.10344824999999999@note_on channel=2 note=69 velocity=100 time=0@note_on channel=2 note=69 velocity=0 time=0.10344824999999999@note_on channel=2 note=72 velocity=100 time=0@note_on channel=3 note=57 velocity=100 time=0@note_on channel=2 note=72 velocity=0 time=0.20689649999999998@note_on channel=3 note=57 velocity=0 time=0@note_on channel=3 note=64 velocity=100 time=0@note_on channel=3 note=60 velocity=100 time=0@note_on channel=2 note=74 velocity=100 time=0.20689649999999998@note_on channel=3 note=60 velocity=0 time=0@note_on channel=3 note=64 velocity=0 time=0@note_on channel=3 note=64 velocity=100 time=0@note_on channel=3 note=60 velocity=100 time=0@note_on channel=2 note=74 velocity=0 time=0.10344824999999999@note_on channel=2 note=72 velocity=100 time=0@note_on channel=2 note=72 velocity=0 time=0.10344824999999999@note_on channel=2 note=71 velocity=100 time=0@note_on channel=3 note=60 velocity=0 time=0@note_on channel=3 note=64 velocity=0 time=0@note_on channel=3 note=64 velocity=100 time=0@note_on channel=3 note=60 velocity=100 time=0@note_on channel=2 note=71 velocity=0 time=0.10344824999999999@note_on channel=2 note=72 velocity=100 time=0@note_on channel=2 note=72 velocity=0 time=0.10344824999999999@note_on channel=2 note=76 velocity=100 time=0@note_on channel=3 note=60 velocity=0 time=0@note_on channel=3 note=64 velocity=0 time=0@note_on channel=3 note=57 velocity=100 time=0@note_on channel=2 note=76 velocity=0 time=0.20689649999999998@note_on channel=3 note=57 velocity=0 time=0@note_on channel=3 note=64 velocity=100 time=0@note_on channel=3 note=60 velocity=100 time=0@note_on channel=2 note=77 velocity=100 time=0.20689649999999998@note_on channel=3 note=60 velocity=0 time=0@note_on channel=3 note=64 velocity=0 time=0@note_on channel=3 note=64 velocity=100 time=0@note_on channel=3 note=60 velocity=100 time=0@note_on channel=2 note=77 velocity=0 time=0.10344824999999999@note_on channel=2 note=76 velocity=100 time=0@note_on channel=2 note=76 velocity=0 time=0.10344824999999999@note_on channel=2 note=75 velocity=100 time=0@note_on channel=3 note=60 velocity=0 time=0@note_on channel=3 note=64 velocity=0 time=0@note_on channel=3 note=64 velocity=100 time=0@note_on channel=3 note=60 velocity=100 time=0@note_on channel=2 note=75 velocity=0 time=0.10344824999999999@note_on channel=2 note=76 velocity=100 time=0@note_on channel=2 note=76 velocity=0 time=0.10344824999999999@note_on channel=2 note=83 velocity=100 time=0@note_on channel=3 note=60 velocity=0 time=0@note_on channel=3 note=64 velocity=0 time=0@note_on channel=3 note=57 velocity=100 time=0@note_on channel=2 note=83 velocity=0 time=0.10344824999999999@note_on channel=2 note=81 velocity=100 time=0@note_on channel=2 note=81 velocity=0 time=0.10344824999999999@note_on channel=2 note=80 velocity=100 time=0@note_on channel=3 note=57 velocity=0 time=0@note_on channel=3 note=64 velocity=100 time=0@note_on channel=3 note=60 velocity=100 time=0@note_on channel=2 note=80 velocity=0 time=0.10344824999999999@note_on channel=2 note=81 velocity=100 time=0@note_on channel=2 note=81 velocity=0 time=0.10344824999999999@note_on channel=2 note=83 velocity=100 time=0@note_on channel=3 note=60 velocity=0 time=0@note_on channel=3 note=64 velocity=0 time=0@note_on channel=3 note=57 velocity=100 time=0@note_on channel=2 note=83 velocity=0 time=0.10344824999999999@note_on channel=2 note=81 velocity=100 time=0@note_on channel=2 note=81 velocity=0 time=0.10344824999999999@note_on channel=2 note=80 velocity=100 time=0@note_on channel=3 note=57 velocity=0 time=0@note_on channel=3 note=64 velocity=100 time=0@note_on channel=3 note=60 velocity=100 time=0@note_on channel=2 note=80 velocity=0 time=0.10344824999999999@note_on channel=2 note=81 velocity=100 time=0@note_on channel=2 note=81 velocity=0 time=0.10344824999999999@note_on channel=2 note=84 velocity=100 time=0@note_on channel=3 note=60 velocity=0 time=0@note_on channel=3 note=64 velocity=0 time=0@note_on channel=3 note=57 velocity=100 time=0@note_on channel=3 note=57 velocity=0 time=0.20689649999999998@note_on channel=3 note=64 velocity=100 time=0@note_on channel=3 note=60 velocity=100 time=0@note_on channel=2 note=84 velocity=0 time=0.20689649999999998@note_on channel=2 note=81 velocity=100 time=0@note_on channel=3 note=60 velocity=0 time=0@note_on channel=3 note=64 velocity=0 time=0@note_on channel=3 note=64 velocity=100 time=0@note_on channel=3 note=60 velocity=100 time=0@note_on channel=2 note=81 velocity=0 time=0.20689649999999998@note_on channel=2 note=84 velocity=100 time=0@note_on channel=3 note=60 velocity=0 time=0@note_on channel=3 note=64 velocity=0 time=0@note_on channel=3 note=64 velocity=100 time=0@note_on channel=3 note=60 velocity=100 time=0@note_on channel=2 note=84 velocity=0 time=0.20689649999999998@note_on channel=2 note=79 velocity=100 time=0@note_on channel=3 note=60 velocity=0 time=0@note_on channel=3 note=64 velocity=0 time=0@note_on channel=3 note=52 velocity=100 time=0@note_on channel=2 note=79 velocity=0 time=0.051724124999999996@note_on channel=2 note=81 velocity=100 time=0@note_on channel=2 note=81 velocity=0 time=0.051724124999999996@note_on channel=2 note=83 velocity=100 time=0@note_on channel=2 note=83 velocity=0 time=0.10344824999999999@note_on channel=2 note=78 velocity=100 time=0@note_on channel=2 note=81 velocity=100 time=0@note_on channel=3 note=52 velocity=0 time=0@note_on channel=3 note=64 velocity=100 time=0@note_on channel=3 note=59 velocity=100 time=0@note_on channel=2 note=81 velocity=0 time=0.20689649999999998@note_on channel=2 note=78 velocity=0 time=0@note_on channel=2 note=79 velocity=100 time=0@note_on channel=2 note=76 velocity=100 time=0@note_on channel=3 note=59 velocity=0 time=0@note_on channel=3 note=64 velocity=0 time=0@note_on channel=3 note=64 velocity=100 time=0@note_on channel=3 note=59 velocity=100 time=0@note_on channel=2 note=76 velocity=0 time=0.20689649999999998@note_on channel=2 note=79 velocity=0 time=0@note_on channel=2 note=81 velocity=100 time=0@note_on channel=2 note=78 velocity=100 time=0@note_on channel=3 note=59 velocity=0 time=0@note_on channel=3 note=64 velocity=0 time=0@note_on channel=3 note=64 velocity=100 time=0@note_on channel=3 note=59 velocity=100 time=0@note_on channel=2 note=78 velocity=0 time=0.20689649999999998@note_on channel=2 note=81 velocity=0 time=0@note_on channel=2 note=79 velocity=100 time=0@note_on channel=3 note=59 velocity=0 time=0@note_on channel=3 note=64 velocity=0 time=0@note_on channel=3 note=52 velocity=100 time=0@note_on channel=2 note=79 velocity=0 time=0.051724124999999996@note_on channel=2 note=81 velocity=100 time=0@note_on channel=2 note=81 velocity=0 time=0.051724124999999996@note_on channel=2 note=83 velocity=100 time=0@note_on channel=2 note=83 velocity=0 time=0.10344824999999999@note_on channel=2 note=78 velocity=100 time=0@note_on channel=2 note=81 velocity=100 time=0@note_on channel=3 note=52 velocity=0 time=0@note_on channel=3 note=64 velocity=100 time=0@note_on channel=3 note=59 velocity=100 time=0@note_on channel=2 note=81 velocity=0 time=0.20689649999999998@note_on channel=2 note=78 velocity=0 time=0@note_on channel=2 note=79 velocity=100 time=0@note_on channel=2 note=76 velocity=100 time=0@note_on channel=3 note=59 velocity=0 time=0@note_on channel=3 note=64 velocity=0 time=0@note_on channel=3 note=64 velocity=100 time=0@note_on channel=3 note=59 velocity=100 time=0@note_on channel=2 note=76 velocity=0 time=0.20689649999999998@note_on channel=2 note=79 velocity=0 time=0@note_on channel=2 note=78 velocity=100 time=0@note_on channel=2 note=81 velocity=100 time=0@note_on channel=3 note=59 velocity=0 time=0@note_on channel=3 note=64 velocity=0 time=0@note_on channel=3 note=64 velocity=100 time=0@note_on channel=3 note=59 velocity=100 time=0@note_on channel=2 note=81 velocity=0 time=0.20689649999999998@note_on channel=2 note=78 velocity=0 time=0@note_on channel=2 note=79 velocity=100 time=0@note_on channel=3 note=59 velocity=0 time=0@note_on channel=3 note=64 velocity=0 time=0@note_on channel=3 note=52 velocity=100 time=0@note_on channel=2 note=79 velocity=0 time=0.051724124999999996@note_on channel=2 note=81 velocity=100 time=0@note_on channel=2 note=81 velocity=0 time=0.051724124999999996@note_on channel=2 note=83 velocity=100 time=0@note_on channel=2 note=83 velocity=0 time=0.10344824999999999@note_on channel=2 note=78 velocity=100 time=0@note_on channel=2 note=81 velocity=100 time=0@note_on channel=3 note=52 velocity=0 time=0@note_on channel=3 note=64 velocity=100 time=0@note_on channel=3 note=59 velocity=100 time=0@note_on channel=2 note=81 velocity=0 time=0.20689649999999998@note_on channel=2 note=78 velocity=0 time=0@note_on channel=2 note=79 velocity=100 time=0@note_on channel=2 note=76 velocity=100 time=0@note_on channel=3 note=59 velocity=0 time=0@note_on channel=3 note=64 velocity=0 time=0@note_on channel=3 note=47 velocity=100 time=0@note_on channel=2 note=76 velocity=0 time=0.20689649999999998@note_on channel=2 note=79 velocity=0 time=0@note_on channel=2 note=78 velocity=100 time=0@note_on channel=2 note=75 velocity=100 time=0@note_on channel=3 note=47 velocity=0 time=0@note_on channel=3 note=59 velocity=100 time=0@note_on channel=2 note=75 velocity=0 time=0.20689649999999998@note_on channel=2 note=78 velocity=0 time=0@note_on channel=2 note=76 velocity=100 time=0@note_on channel=3 note=59 velocity=0 time=0@note_on channel=3 note=52 velocity=100 time=0@note_on channel=2 note=76 velocity=0 time=0.41379299999999997@note_on channel=3 note=52 velocity=0 time=0@note_on channel=4 note=72 velocity=100 time=0@note_on channel=4 note=76 velocity=100 time=0@note_on channel=4 note=76 velocity=0 time=0.20689649999999998@note_on channel=4 note=72 velocity=0 time=0@note_on channel=4 note=74 velocity=100 time=0@note_on channel=4 note=77 velocity=100 time=0@note_on channel=4 note=77 velocity=0 time=0.20689649999999998@note_on channel=4 note=74 velocity=0 time=0@note_on channel=4 note=79 velocity=100 time=0@note_on channel=4 note=76 velocity=100 time=0@note_on channel=5 note=48 velocity=100 time=0@note_on channel=4 note=76 velocity=0 time=0.20689649999999998@note_on channel=4 note=79 velocity=0 time=0@note_on channel=4 note=79 velocity=100 time=0@note_on channel=4 note=76 velocity=100 time=0@note_on channel=5 note=48 velocity=0 time=0@note_on channel=5 note=60 velocity=100 time=0@note_on channel=4 note=76 velocity=0 time=0.20689649999999998@note_on channel=4 note=79 velocity=0 time=0@note_on channel=4 note=81 velocity=100 time=0@note_on channel=5 note=60 velocity=0 time=0@note_on channel=5 note=52 velocity=100 time=0@note_on channel=4 note=81 velocity=0 time=0.10344824999999999@note_on channel=4 note=79 velocity=100 time=0@note_on channel=4 note=79 velocity=0 time=0.10344824999999999@note_on channel=4 note=77 velocity=100 time=0@note_on channel=5 note=52 velocity=0 time=0@note_on channel=5 note=64 velocity=100 time=0@note_on channel=4 note=77 velocity=0 time=0.10344824999999999@note_on channel=4 note=76 velocity=100 time=0@note_on channel=4 note=76 velocity=0 time=0.10344824999999999@note_on channel=4 note=71 velocity=100 time=0@note_on channel=4 note=74 velocity=100 time=0@note_on channel=5 note=64 velocity=0 time=0@note_on channel=5 note=55 velocity=100 time=0@note_on channel=4 note=71 velocity=0 time=0.20689649999999998@note_on channel=4 note=67 velocity=100 time=0@note_on channel=4 note=67 velocity=0 time=0.20689649999999998@note_on channel=4 note=74 velocity=0 time=0@note_on channel=4 note=76 velocity=100 time=0@note_on channel=4 note=72 velocity=100 time=0@note_on channel=5 note=55 velocity=0 time=0@note_on channel=4 note=72 velocity=0 time=0.20689649999999998@note_on channel=4 note=76 velocity=0 time=0@note_on channel=4 note=77 velocity=100 time=0@note_on channel=4 note=74 velocity=100 time=0@note_on channel=4 note=74 velocity=0 time=0.20689649999999998@note_on channel=4 note=77 velocity=0 time=0@note_on channel=4 note=79 velocity=100 time=0@note_on channel=4 note=76 velocity=100 time=0@note_on channel=5 note=48 velocity=100 time=0@note_on channel=4 note=76 velocity=0 time=0.20689649999999998@note_on channel=4 note=79 velocity=0 time=0@note_on channel=4 note=79 velocity=100 time=0@note_on channel=4 note=76 velocity=100 time=0@note_on channel=5 note=48 velocity=0 time=0@note_on channel=5 note=60 velocity=100 time=0@note_on channel=4 note=76 velocity=0 time=0.20689649999999998@note_on channel=4 note=79 velocity=0 time=0@note_on channel=4 note=81 velocity=100 time=0@note_on channel=5 note=60 velocity=0 time=0@note_on channel=5 note=52 velocity=100 time=0@note_on channel=4 note=81 velocity=0 time=0.10344824999999999@note_on channel=4 note=79 velocity=100 time=0@note_on channel=4 note=79 velocity=0 time=0.10344824999999999@note_on channel=4 note=77 velocity=100 time=0@note_on channel=5 note=52 velocity=0 time=0@note_on channel=5 note=64 velocity=100 time=0@note_on channel=4 note=77 velocity=0 time=0.10344824999999999@note_on channel=4 note=76 velocity=100 time=0@note_on channel=4 note=76 velocity=0 time=0.10344824999999999@note_on channel=4 note=71 velocity=100 time=0@note_on channel=4 note=74 velocity=100 time=0@note_on channel=5 note=64 velocity=0 time=0@note_on channel=5 note=55 velocity=100 time=0@note_on channel=4 note=74 velocity=0 time=0.41379299999999997@note_on channel=4 note=71 velocity=0 time=0@note_on channel=4 note=69 velocity=100 time=0@note_on channel=4 note=72 velocity=100 time=0@note_on channel=5 note=55 velocity=0 time=0@note_on channel=4 note=72 velocity=0 time=0.20689649999999998@note_on channel=4 note=69 velocity=0 time=0@note_on channel=4 note=71 velocity=100 time=0@note_on channel=4 note=74 velocity=100 time=0@note_on channel=4 note=74 velocity=0 time=0.20689649999999998@note_on channel=4 note=71 velocity=0 time=0@note_on channel=4 note=72 velocity=100 time=0@note_on channel=4 note=76 velocity=100 time=0@note_on channel=5 note=45 velocity=100 time=0@note_on channel=4 note=76 velocity=0 time=0.20689649999999998@note_on channel=4 note=72 velocity=0 time=0@note_on channel=4 note=72 velocity=100 time=0@note_on channel=4 note=76 velocity=100 time=0@note_on channel=5 note=45 velocity=0 time=0@note_on channel=5 note=57 velocity=100 time=0@note_on channel=4 note=76 velocity=0 time=0.20689649999999998@note_on channel=4 note=72 velocity=0 time=0@note_on channel=4 note=77 velocity=100 time=0@note_on channel=5 note=57 velocity=0 time=0@note_on channel=5 note=48 velocity=100 time=0@note_on channel=4 note=77 velocity=0 time=0.10344824999999999@note_on channel=4 note=76 velocity=100 time=0@note_on channel=4 note=76 velocity=0 time=0.10344824999999999@note_on channel=4 note=74 velocity=100 time=0@note_on channel=5 note=48 velocity=0 time=0@note_on channel=5 note=60 velocity=100 time=0@note_on channel=4 note=74 velocity=0 time=0.10344824999999999@note_on channel=4 note=72 velocity=100 time=0@note_on channel=4 note=72 velocity=0 time=0.10344824999999999@note_on channel=4 note=68 velocity=100 time=0@note_on channel=4 note=71 velocity=100 time=0@note_on channel=5 note=60 velocity=0 time=0@note_on channel=5 note=52 velocity=100 time=0@note_on channel=4 note=68 velocity=0 time=0.20689649999999998@note_on channel=4 note=64 velocity=100 time=0@note_on channel=4 note=64 velocity=0 time=0.20689649999999998@note_on channel=4 note=71 velocity=0 time=0@note_on channel=4 note=72 velocity=100 time=0@note_on channel=4 note=69 velocity=100 time=0@note_on channel=5 note=52 velocity=0 time=0@note_on channel=4 note=69 velocity=0 time=0.20689649999999998@note_on channel=4 note=72 velocity=0 time=0@note_on channel=4 note=74 velocity=100 time=0@note_on channel=4 note=71 velocity=100 time=0@note_on channel=4 note=71 velocity=0 time=0.20689649999999998@note_on channel=4 note=74 velocity=0 time=0@note_on channel=4 note=72 velocity=100 time=0@note_on channel=4 note=76 velocity=100 time=0@note_on channel=5 note=45 velocity=100 time=0@note_on channel=4 note=76 velocity=0 time=0.20689649999999998@note_on channel=4 note=72 velocity=0 time=0@note_on channel=4 note=72 velocity=100 time=0@note_on channel=4 note=76 velocity=100 time=0@note_on channel=5 note=45 velocity=0 time=0@note_on channel=5 note=57 velocity=100 time=0@note_on channel=4 note=76 velocity=0 time=0.20689649999999998@note_on channel=4 note=72 velocity=0 time=0@note_on channel=4 note=77 velocity=100 time=0@note_on channel=5 note=57 velocity=0 time=0@note_on channel=5 note=48 velocity=100 time=0@note_on channel=4 note=77 velocity=0 time=0.10344824999999999@note_on channel=4 note=76 velocity=100 time=0@note_on channel=4 note=76 velocity=0 time=0.10344824999999999@note_on channel=4 note=74 velocity=100 time=0@note_on channel=5 note=48 velocity=0 time=0@note_on channel=5 note=60 velocity=100 time=0@note_on channel=4 note=74 velocity=0 time=0.10344824999999999@note_on channel=4 note=72 velocity=100 time=0@note_on channel=4 note=72 velocity=0 time=0.10344824999999999@note_on channel=4 note=68 velocity=100 time=0@note_on channel=4 note=71 velocity=100 time=0@note_on channel=5 note=60 velocity=0 time=0@note_on channel=5 note=52 velocity=100 time=0@note_on channel=0 note=71 velocity=100 time=0.41379299999999997@note_on channel=4 note=71 velocity=0 time=0@note_on channel=4 note=68 velocity=0 time=0@note_on channel=5 note=52 velocity=0 time=0@note_on channel=0 note=71 velocity=0 time=0.10344824999999999@note_on channel=0 note=69 velocity=100 time=0@note_on channel=0 note=69 velocity=0 time=0.10344824999999999@note_on channel=0 note=68 velocity=100 time=0@note_on channel=0 note=68 velocity=0 time=0.10344824999999999@note_on channel=0 note=69 velocity=100 time=0@note_on channel=0 note=69 velocity=0 time=0.10344824999999999@note_on channel=0 note=72 velocity=100 time=0@note_on channel=1 note=57 velocity=100 time=0@note_on channel=0 note=72 velocity=0 time=0.20689649999999998@note_on channel=1 note=57 velocity=0 time=0@note_on channel=1 note=64 velocity=100 time=0@note_on channel=1 note=60 velocity=100 time=0@note_on channel=0 note=74 velocity=100 time=0.20689649999999998@note_on channel=1 note=60 velocity=0 time=0@note_on channel=1 note=64 velocity=0 time=0@note_on channel=1 note=64 velocity=100 time=0@note_on channel=1 note=60 velocity=100 time=0@note_on channel=0 note=74 velocity=0 time=0.10344824999999999@note_on channel=0 note=72 velocity=100 time=0@note_on channel=0 note=72 velocity=0 time=0.10344824999999999@note_on channel=0 note=71 velocity=100 time=0@note_on channel=1 note=60 velocity=0 time=0@note_on channel=1 note=64 velocity=0 time=0@note_on channel=1 note=64 velocity=100 time=0@note_on channel=1 note=60 velocity=100 time=0@note_on channel=0 note=71 velocity=0 time=0.10344824999999999@note_on channel=0 note=72 velocity=100 time=0@note_on channel=0 note=72 velocity=0 time=0.10344824999999999@note_on channel=0 note=76 velocity=100 time=0@note_on channel=1 note=60 velocity=0 time=0@note_on channel=1 note=64 velocity=0 time=0@note_on channel=1 note=57 velocity=100 time=0@note_on channel=0 note=76 velocity=0 time=0.20689649999999998@note_on channel=1 note=57 velocity=0 time=0@note_on channel=1 note=64 velocity=100 time=0@note_on channel=1 note=60 velocity=100 time=0@note_on channel=0 note=77 velocity=100 time=0.20689649999999998@note_on channel=1 note=60 velocity=0 time=0@note_on channel=1 note=64 velocity=0 time=0@note_on channel=1 note=64 velocity=100 time=0@note_on channel=1 note=60 velocity=100 time=0@note_on channel=0 note=77 velocity=0 time=0.10344824999999999@note_on channel=0 note=76 velocity=100 time=0@note_on channel=0 note=76 velocity=0 time=0.10344824999999999@note_on channel=0 note=75 velocity=100 time=0@note_on channel=1 note=60 velocity=0 time=0@note_on channel=1 note=64 velocity=0 time=0@note_on channel=1 note=64 velocity=100 time=0@note_on channel=1 note=60 velocity=100 time=0@note_on channel=0 note=75 velocity=0 time=0.10344824999999999@note_on channel=0 note=76 velocity=100 time=0@note_on channel=0 note=76 velocity=0 time=0.10344824999999999@note_on channel=0 note=83 velocity=100 time=0@note_on channel=1 note=60 velocity=0 time=0@note_on channel=1 note=64 velocity=0 time=0@note_on channel=1 note=57 velocity=100 time=0@note_on channel=0 note=83 velocity=0 time=0.10344824999999999@note_on channel=0 note=81 velocity=100 time=0@note_on channel=0 note=81 velocity=0 time=0.10344824999999999@note_on channel=0 note=80 velocity=100 time=0@note_on channel=1 note=57 velocity=0 time=0@note_on channel=1 note=64 velocity=100 time=0@note_on channel=1 note=60 velocity=100 time=0@note_on channel=0 note=80 velocity=0 time=0.10344824999999999@note_on channel=0 note=81 velocity=100 time=0@note_on channel=0 note=81 velocity=0 time=0.10344824999999999@note_on channel=0 note=83 velocity=100 time=0@note_on channel=1 note=60 velocity=0 time=0@note_on channel=1 note=64 velocity=0 time=0@note_on channel=1 note=57 velocity=100 time=0@note_on channel=0 note=83 velocity=0 time=0.10344824999999999@note_on channel=0 note=81 velocity=100 time=0@note_on channel=0 note=81 velocity=0 time=0.10344824999999999@note_on channel=0 note=80 velocity=100 time=0@note_on channel=1 note=57 velocity=0 time=0@note_on channel=1 note=64 velocity=100 time=0@note_on channel=1 note=60 velocity=100 time=0@note_on channel=0 note=80 velocity=0 time=0.10344824999999999@note_on channel=0 note=81 velocity=100 time=0@note_on channel=0 note=81 velocity=0 time=0.10344824999999999@note_on channel=0 note=84 velocity=100 time=0@note_on channel=1 note=60 velocity=0 time=0@note_on channel=1 note=64 velocity=0 time=0@note_on channel=1 note=53 velocity=100 time=0@note_on channel=1 note=53 velocity=0 time=0.20689649999999998@note_on channel=1 note=63 velocity=100 time=0@note_on channel=1 note=57 velocity=100 time=0@note_on channel=0 note=84 velocity=0 time=0.20689649999999998@note_on channel=0 note=81 velocity=100 time=0@note_on channel=1 note=57 velocity=0 time=0@note_on channel=1 note=63 velocity=0 time=0@note_on channel=1 note=63 velocity=100 time=0@note_on channel=1 note=57 velocity=100 time=0@note_on channel=0 note=81 velocity=0 time=0.20689649999999998@note_on channel=0 note=83 velocity=100 time=0@note_on channel=1 note=57 velocity=0 time=0@note_on channel=1 note=63 velocity=0 time=0@note_on channel=1 note=63 velocity=100 time=0@note_on channel=1 note=57 velocity=100 time=0@note_on channel=0 note=83 velocity=0 time=0.20689649999999998@note_on channel=0 note=84 velocity=100 time=0@note_on channel=1 note=57 velocity=0 time=0@note_on channel=1 note=63 velocity=0 time=0@note_on channel=1 note=52 velocity=100 time=0@note_on channel=0 note=84 velocity=0 time=0.20689649999999998@note_on channel=0 note=83 velocity=100 time=0@note_on channel=1 note=52 velocity=0 time=0@note_on channel=1 note=64 velocity=100 time=0@note_on channel=1 note=57 velocity=100 time=0@note_on channel=0 note=83 velocity=0 time=0.20689649999999998@note_on channel=0 note=81 velocity=100 time=0@note_on channel=1 note=57 velocity=0 time=0@note_on channel=1 note=64 velocity=0 time=0@note_on channel=1 note=50 velocity=100 time=0@note_on channel=0 note=81 velocity=0 time=0.20689649999999998@note_on channel=0 note=80 velocity=100 time=0@note_on channel=1 note=50 velocity=0 time=0@note_on channel=1 note=59 velocity=100 time=0@note_on channel=1 note=53 velocity=100 time=0@note_on channel=0 note=80 velocity=0 time=0.20689649999999998@note_on channel=0 note=81 velocity=100 time=0@note_on channel=1 note=53 velocity=0 time=0@note_on channel=1 note=59 velocity=0 time=0@note_on channel=1 note=48 velocity=100 time=0@note_on channel=0 note=81 velocity=0 time=0.20689649999999998@note_on channel=0 note=76 velocity=100 time=0@note_on channel=1 note=48 velocity=0 time=0@note_on channel=1 note=57 velocity=100 time=0@note_on channel=1 note=52 velocity=100 time=0@note_on channel=0 note=76 velocity=0 time=0.20689649999999998@note_on channel=0 note=77 velocity=100 time=0@note_on channel=1 note=52 velocity=0 time=0@note_on channel=1 note=57 velocity=0 time=0@note_on channel=1 note=50 velocity=100 time=0@note_on channel=0 note=77 velocity=0 time=0.20689649999999998@note_on channel=0 note=74 velocity=100 time=0@note_on channel=1 note=50 velocity=0 time=0@note_on channel=1 note=59 velocity=100 time=0@note_on channel=1 note=53 velocity=100 time=0@note_on channel=0 note=74 velocity=0 time=0.20689649999999998@note_on channel=0 note=72 velocity=100 time=0@note_on channel=1 note=53 velocity=0 time=0@note_on channel=1 note=59 velocity=0 time=0@note_on channel=1 note=52 velocity=100 time=0@note_on channel=1 note=57 velocity=100 time=0@note_on channel=1 note=57 velocity=0 time=0.20689649999999998@note_on channel=1 note=52 velocity=0 time=0@note_on channel=1 note=52 velocity=100 time=0@note_on channel=1 note=57 velocity=100 time=0@note_on channel=0 note=72 velocity=0 time=0.20689649999999998@note_on channel=0 note=72 velocity=100 time=0@note_on channel=1 note=57 velocity=0 time=0@note_on channel=1 note=52 velocity=0 time=0@note_on channel=1 note=52 velocity=100 time=0@note_on channel=1 note=56 velocity=100 time=0@note_on channel=0 note=72 velocity=0 time=0.051724124999999996@note_on channel=0 note=71 velocity=100 time=0@note_on channel=0 note=71 velocity=0 time=0.051724124999999996@note_on channel=0 note=72 velocity=100 time=0@note_on channel=0 note=72 velocity=0 time=0.051724124999999996@note_on channel=0 note=71 velocity=100 time=0@note_on channel=0 note=71 velocity=0 time=0.051724124999999996@note_on channel=0 note=72 velocity=100 time=0@note_on channel=1 note=56 velocity=0 time=0@note_on channel=1 note=52 velocity=0 time=0@note_on channel=1 note=52 velocity=100 time=0@note_on channel=1 note=56 velocity=100 time=0@note_on channel=0 note=72 velocity=0 time=0.051724124999999996@note_on channel=0 note=71 velocity=100 time=0@note_on channel=0 note=71 velocity=0 time=0.051724124999999996@note_on channel=0 note=69 velocity=100 time=0@note_on channel=0 note=69 velocity=0 time=0.051724124999999996@note_on channel=0 note=71 velocity=100 time=0@note_on channel=0 note=71 velocity=0 time=0.051724124999999996@note_on channel=0 note=69 velocity=100 time=0@note_on channel=1 note=56 velocity=0 time=0@note_on channel=1 note=52 velocity=0 time=0@note_on channel=1 note=45 velocity=100 time=0@note_on channel=1 note=57 velocity=100 time=0@note_on channel=0 note=69 velocity=0 time=0.41379299999999997@note_on channel=1 note=57 velocity=0 time=0@note_on channel=1 note=45 velocity=0 time=0@note_on channel=6 note=72 velocity=100 time=0@note_on channel=6 note=76 velocity=100 time=0@note_on channel=6 note=76 velocity=0 time=0.20689649999999998@note_on channel=6 note=72 velocity=0 time=0@note_on channel=6 note=74 velocity=100 time=0@note_on channel=6 note=77 velocity=100 time=0@note_on channel=6 note=77 velocity=0 time=0.20689649999999998@note_on channel=6 note=74 velocity=0 time=0@note_on channel=6 note=79 velocity=100 time=0@note_on channel=6 note=76 velocity=100 time=0@note_on channel=7 note=48 velocity=100 time=0@note_on channel=6 note=76 velocity=0 time=0.20689649999999998@note_on channel=6 note=79 velocity=0 time=0@note_on channel=6 note=79 velocity=100 time=0@note_on channel=6 note=76 velocity=100 time=0@note_on channel=7 note=48 velocity=0 time=0@note_on channel=7 note=60 velocity=100 time=0@note_on channel=6 note=76 velocity=0 time=0.20689649999999998@note_on channel=6 note=79 velocity=0 time=0@note_on channel=6 note=81 velocity=100 time=0@note_on channel=7 note=60 velocity=0 time=0@note_on channel=7 note=52 velocity=100 time=0@note_on channel=6 note=81 velocity=0 time=0.10344824999999999@note_on channel=6 note=79 velocity=100 time=0@note_on channel=6 note=79 velocity=0 time=0.10344824999999999@note_on channel=6 note=77 velocity=100 time=0@note_on channel=7 note=52 velocity=0 time=0@note_on channel=7 note=64 velocity=100 time=0@note_on channel=6 note=77 velocity=0 time=0.10344824999999999@note_on channel=6 note=76 velocity=100 time=0@note_on channel=6 note=76 velocity=0 time=0.10344824999999999@note_on channel=6 note=71 velocity=100 time=0@note_on channel=6 note=74 velocity=100 time=0@note_on channel=7 note=64 velocity=0 time=0@note_on channel=7 note=55 velocity=100 time=0@note_on channel=6 note=71 velocity=0 time=0.20689649999999998@note_on channel=6 note=67 velocity=100 time=0@note_on channel=6 note=67 velocity=0 time=0.20689649999999998@note_on channel=6 note=74 velocity=0 time=0@note_on channel=6 note=76 velocity=100 time=0@note_on channel=6 note=72 velocity=100 time=0@note_on channel=7 note=55 velocity=0 time=0@note_on channel=6 note=72 velocity=0 time=0.20689649999999998@note_on channel=6 note=76 velocity=0 time=0@note_on channel=6 note=77 velocity=100 time=0@note_on channel=6 note=74 velocity=100 time=0@note_on channel=6 note=74 velocity=0 time=0.20689649999999998@note_on channel=6 note=77 velocity=0 time=0@note_on channel=6 note=79 velocity=100 time=0@note_on channel=6 note=76 velocity=100 time=0@note_on channel=7 note=48 velocity=100 time=0@note_on channel=6 note=76 velocity=0 time=0.20689649999999998@note_on channel=6 note=79 velocity=0 time=0@note_on channel=6 note=79 velocity=100 time=0@note_on channel=6 note=76 velocity=100 time=0@note_on channel=7 note=48 velocity=0 time=0@note_on channel=7 note=60 velocity=100 time=0@note_on channel=6 note=76 velocity=0 time=0.20689649999999998@note_on channel=6 note=79 velocity=0 time=0@note_on channel=6 note=81 velocity=100 time=0@note_on channel=7 note=60 velocity=0 time=0@note_on channel=7 note=52 velocity=100 time=0@note_on channel=6 note=81 velocity=0 time=0.10344824999999999@note_on channel=6 note=79 velocity=100 time=0@note_on channel=6 note=79 velocity=0 time=0.10344824999999999@note_on channel=6 note=77 velocity=100 time=0@note_on channel=7 note=52 velocity=0 time=0@note_on channel=7 note=64 velocity=100 time=0@note_on channel=6 note=77 velocity=0 time=0.10344824999999999@note_on channel=6 note=76 velocity=100 time=0@note_on channel=6 note=76 velocity=0 time=0.10344824999999999@note_on channel=6 note=71 velocity=100 time=0@note_on channel=6 note=74 velocity=100 time=0@note_on channel=7 note=64 velocity=0 time=0@note_on channel=7 note=55 velocity=100 time=0@note_on channel=6 note=74 velocity=0 time=0.41379299999999997@note_on channel=6 note=71 velocity=0 time=0@note_on channel=6 note=69 velocity=100 time=0@note_on channel=6 note=72 velocity=100 time=0@note_on channel=7 note=55 velocity=0 time=0@note_on channel=6 note=72 velocity=0 time=0.20689649999999998@note_on channel=6 note=69 velocity=0 time=0@note_on channel=6 note=71 velocity=100 time=0@note_on channel=6 note=74 velocity=100 time=0@note_on channel=6 note=74 velocity=0 time=0.20689649999999998@note_on channel=6 note=71 velocity=0 time=0@note_on channel=6 note=72 velocity=100 time=0@note_on channel=6 note=76 velocity=100 time=0@note_on channel=7 note=45 velocity=100 time=0@note_on channel=6 note=76 velocity=0 time=0.20689649999999998@note_on channel=6 note=72 velocity=0 time=0@note_on channel=6 note=72 velocity=100 time=0@note_on channel=6 note=76 velocity=100 time=0@note_on channel=7 note=45 velocity=0 time=0@note_on channel=7 note=57 velocity=100 time=0@note_on channel=6 note=76 velocity=0 time=0.20689649999999998@note_on channel=6 note=72 velocity=0 time=0@note_on channel=6 note=77 velocity=100 time=0@note_on channel=7 note=57 velocity=0 time=0@note_on channel=7 note=48 velocity=100 time=0@note_on channel=6 note=77 velocity=0 time=0.10344824999999999@note_on channel=6 note=76 velocity=100 time=0@note_on channel=6 note=76 velocity=0 time=0.10344824999999999@note_on channel=6 note=74 velocity=100 time=0@note_on channel=7 note=48 velocity=0 time=0@note_on channel=7 note=60 velocity=100 time=0@note_on channel=6 note=74 velocity=0 time=0.10344824999999999@note_on channel=6 note=72 velocity=100 time=0@note_on channel=6 note=72 velocity=0 time=0.10344824999999999@note_on channel=6 note=68 velocity=100 time=0@note_on channel=6 note=71 velocity=100 time=0@note_on channel=7 note=60 velocity=0 time=0@note_on channel=7 note=52 velocity=100 time=0@note_on channel=6 note=68 velocity=0 time=0.20689649999999998@note_on channel=6 note=64 velocity=100 time=0@note_on channel=6 note=64 velocity=0 time=0.20689649999999998@note_on channel=6 note=71 velocity=0 time=0@note_on channel=6 note=72 velocity=100 time=0@note_on channel=6 note=69 velocity=100 time=0@note_on channel=7 note=52 velocity=0 time=0@note_on channel=6 note=69 velocity=0 time=0.20689649999999998@note_on channel=6 note=72 velocity=0 time=0@note_on channel=6 note=74 velocity=100 time=0@note_on channel=6 note=71 velocity=100 time=0@note_on channel=6 note=71 velocity=0 time=0.20689649999999998@note_on channel=6 note=74 velocity=0 time=0@note_on channel=6 note=72 velocity=100 time=0@note_on channel=6 note=76 velocity=100 time=0@note_on channel=7 note=45 velocity=100 time=0@note_on channel=6 note=76 velocity=0 time=0.20689649999999998@note_on channel=6 note=72 velocity=0 time=0@note_on channel=6 note=72 velocity=100 time=0@note_on channel=6 note=76 velocity=100 time=0@note_on channel=7 note=45 velocity=0 time=0@note_on channel=7 note=57 velocity=100 time=0@note_on channel=6 note=76 velocity=0 time=0.20689649999999998@note_on channel=6 note=72 velocity=0 time=0@note_on channel=6 note=77 velocity=100 time=0@note_on channel=7 note=57 velocity=0 time=0@note_on channel=7 note=48 velocity=100 time=0@note_on channel=6 note=77 velocity=0 time=0.10344824999999999@note_on channel=6 note=76 velocity=100 time=0@note_on channel=6 note=76 velocity=0 time=0.10344824999999999@note_on channel=6 note=74 velocity=100 time=0@note_on channel=7 note=48 velocity=0 time=0@note_on channel=7 note=60 velocity=100 time=0@note_on channel=6 note=74 velocity=0 time=0.10344824999999999@note_on channel=6 note=72 velocity=100 time=0@note_on channel=6 note=72 velocity=0 time=0.10344824999999999@note_on channel=6 note=68 velocity=100 time=0@note_on channel=6 note=71 velocity=100 time=0@note_on channel=7 note=60 velocity=0 time=0@note_on channel=7 note=52 velocity=100 time=0@note_on channel=2 note=71 velocity=100 time=0.41379299999999997@note_on channel=6 note=71 velocity=0 time=0@note_on channel=6 note=68 velocity=0 time=0@note_on channel=7 note=52 velocity=0 time=0@note_on channel=2 note=71 velocity=0 time=0.10344824999999999@note_on channel=2 note=69 velocity=100 time=0@note_on channel=2 note=69 velocity=0 time=0.10344824999999999@note_on channel=2 note=68 velocity=100 time=0@note_on channel=2 note=68 velocity=0 time=0.10344824999999999@note_on channel=2 note=69 velocity=100 time=0@note_on channel=2 note=69 velocity=0 time=0.10344824999999999@note_on channel=2 note=72 velocity=100 time=0@note_on channel=3 note=57 velocity=100 time=0@note_on channel=2 note=72 velocity=0 time=0.20689649999999998@note_on channel=3 note=57 velocity=0 time=0@note_on channel=3 note=64 velocity=100 time=0@note_on channel=3 note=60 velocity=100 time=0@note_on channel=2 note=74 velocity=100 time=0.20689649999999998@note_on channel=3 note=60 velocity=0 time=0@note_on channel=3 note=64 velocity=0 time=0@note_on channel=3 note=64 velocity=100 time=0@note_on channel=3 note=60 velocity=100 time=0@note_on channel=2 note=74 velocity=0 time=0.10344824999999999@note_on channel=2 note=72 velocity=100 time=0@note_on channel=2 note=72 velocity=0 time=0.10344824999999999@note_on channel=2 note=71 velocity=100 time=0@note_on channel=3 note=60 velocity=0 time=0@note_on channel=3 note=64 velocity=0 time=0@note_on channel=3 note=64 velocity=100 time=0@note_on channel=3 note=60 velocity=100 time=0@note_on channel=2 note=71 velocity=0 time=0.10344824999999999@note_on channel=2 note=72 velocity=100 time=0@note_on channel=2 note=72 velocity=0 time=0.10344824999999999@note_on channel=2 note=76 velocity=100 time=0@note_on channel=3 note=60 velocity=0 time=0@note_on channel=3 note=64 velocity=0 time=0@note_on channel=3 note=57 velocity=100 time=0@note_on channel=2 note=76 velocity=0 time=0.20689649999999998@note_on channel=3 note=57 velocity=0 time=0@note_on channel=3 note=64 velocity=100 time=0@note_on channel=3 note=60 velocity=100 time=0@note_on channel=2 note=77 velocity=100 time=0.20689649999999998@note_on channel=3 note=60 velocity=0 time=0@note_on channel=3 note=64 velocity=0 time=0@note_on channel=3 note=64 velocity=100 time=0@note_on channel=3 note=60 velocity=100 time=0@note_on channel=2 note=77 velocity=0 time=0.10344824999999999@note_on channel=2 note=76 velocity=100 time=0@note_on channel=2 note=76 velocity=0 time=0.10344824999999999@note_on channel=2 note=75 velocity=100 time=0@note_on channel=3 note=60 velocity=0 time=0@note_on channel=3 note=64 velocity=0 time=0@note_on channel=3 note=64 velocity=100 time=0@note_on channel=3 note=60 velocity=100 time=0@note_on channel=2 note=75 velocity=0 time=0.10344824999999999@note_on channel=2 note=76 velocity=100 time=0@note_on channel=2 note=76 velocity=0 time=0.10344824999999999@note_on channel=2 note=83 velocity=100 time=0@note_on channel=3 note=60 velocity=0 time=0@note_on channel=3 note=64 velocity=0 time=0@note_on channel=3 note=57 velocity=100 time=0@note_on channel=2 note=83 velocity=0 time=0.10344824999999999@note_on channel=2 note=81 velocity=100 time=0@note_on channel=2 note=81 velocity=0 time=0.10344824999999999@note_on channel=2 note=80 velocity=100 time=0@note_on channel=3 note=57 velocity=0 time=0@note_on channel=3 note=64 velocity=100 time=0@note_on channel=3 note=60 velocity=100 time=0@note_on channel=2 note=80 velocity=0 time=0.10344824999999999@note_on channel=2 note=81 velocity=100 time=0@note_on channel=2 note=81 velocity=0 time=0.10344824999999999@note_on channel=2 note=83 velocity=100 time=0@note_on channel=3 note=60 velocity=0 time=0@note_on channel=3 note=64 velocity=0 time=0@note_on channel=3 note=57 velocity=100 time=0@note_on channel=2 note=83 velocity=0 time=0.10344824999999999@note_on channel=2 note=81 velocity=100 time=0@note_on channel=2 note=81 velocity=0 time=0.10344824999999999@note_on channel=2 note=80 velocity=100 time=0@note_on channel=3 note=57 velocity=0 time=0@note_on channel=3 note=64 velocity=100 time=0@note_on channel=3 note=60 velocity=100 time=0@note_on channel=2 note=80 velocity=0 time=0.10344824999999999@note_on channel=2 note=81 velocity=100 time=0@note_on channel=2 note=81 velocity=0 time=0.10344824999999999@note_on channel=2 note=84 velocity=100 time=0@note_on channel=3 note=60 velocity=0 time=0@note_on channel=3 note=64 velocity=0 time=0@note_on channel=3 note=53 velocity=100 time=0@note_on channel=3 note=53 velocity=0 time=0.20689649999999998@note_on channel=3 note=63 velocity=100 time=0@note_on channel=3 note=57 velocity=100 time=0@note_on channel=2 note=84 velocity=0 time=0.20689649999999998@note_on channel=2 note=81 velocity=100 time=0@note_on channel=3 note=57 velocity=0 time=0@note_on channel=3 note=63 velocity=0 time=0@note_on channel=3 note=63 velocity=100 time=0@note_on channel=3 note=57 velocity=100 time=0@note_on channel=2 note=81 velocity=0 time=0.20689649999999998@note_on channel=2 note=83 velocity=100 time=0@note_on channel=3 note=57 velocity=0 time=0@note_on channel=3 note=63 velocity=0 time=0@note_on channel=3 note=63 velocity=100 time=0@note_on channel=3 note=57 velocity=100 time=0@note_on channel=2 note=83 velocity=0 time=0.20689649999999998@note_on channel=2 note=84 velocity=100 time=0@note_on channel=3 note=57 velocity=0 time=0@note_on channel=3 note=63 velocity=0 time=0@note_on channel=3 note=52 velocity=100 time=0@note_on channel=2 note=84 velocity=0 time=0.20689649999999998@note_on channel=2 note=83 velocity=100 time=0@note_on channel=3 note=52 velocity=0 time=0@note_on channel=3 note=64 velocity=100 time=0@note_on channel=3 note=57 velocity=100 time=0@note_on channel=2 note=83 velocity=0 time=0.20689649999999998@note_on channel=2 note=81 velocity=100 time=0@note_on channel=3 note=57 velocity=0 time=0@note_on channel=3 note=64 velocity=0 time=0@note_on channel=3 note=50 velocity=100 time=0@note_on channel=2 note=81 velocity=0 time=0.20689649999999998@note_on channel=2 note=80 velocity=100 time=0@note_on channel=3 note=50 velocity=0 time=0@note_on channel=3 note=59 velocity=100 time=0@note_on channel=3 note=53 velocity=100 time=0@note_on channel=2 note=80 velocity=0 time=0.20689649999999998@note_on channel=2 note=81 velocity=100 time=0@note_on channel=3 note=53 velocity=0 time=0@note_on channel=3 note=59 velocity=0 time=0@note_on channel=3 note=48 velocity=100 time=0@note_on channel=2 note=81 velocity=0 time=0.20689649999999998@note_on channel=2 note=76 velocity=100 time=0@note_on channel=3 note=48 velocity=0 time=0@note_on channel=3 note=57 velocity=100 time=0@note_on channel=3 note=52 velocity=100 time=0@note_on channel=2 note=76 velocity=0 time=0.20689649999999998@note_on channel=2 note=77 velocity=100 time=0@note_on channel=3 note=52 velocity=0 time=0@note_on channel=3 note=57 velocity=0 time=0@note_on channel=3 note=50 velocity=100 time=0@note_on channel=2 note=77 velocity=0 time=0.20689649999999998@note_on channel=2 note=74 velocity=100 time=0@note_on channel=3 note=50 velocity=0 time=0@note_on channel=3 note=59 velocity=100 time=0@note_on channel=3 note=53 velocity=100 time=0@note_on channel=2 note=74 velocity=0 time=0.20689649999999998@note_on channel=2 note=72 velocity=100 time=0@note_on channel=3 note=53 velocity=0 time=0@note_on channel=3 note=59 velocity=0 time=0@note_on channel=3 note=52 velocity=100 time=0@note_on channel=3 note=57 velocity=100 time=0@note_on channel=3 note=57 velocity=0 time=0.20689649999999998@note_on channel=3 note=52 velocity=0 time=0@note_on channel=3 note=52 velocity=100 time=0@note_on channel=3 note=57 velocity=100 time=0@note_on channel=2 note=72 velocity=0 time=0.20689649999999998@note_on channel=2 note=72 velocity=100 time=0@note_on channel=3 note=57 velocity=0 time=0@note_on channel=3 note=52 velocity=0 time=0@note_on channel=3 note=52 velocity=100 time=0@note_on channel=3 note=56 velocity=100 time=0@note_on channel=2 note=72 velocity=0 time=0.051724124999999996@note_on channel=2 note=71 velocity=100 time=0@note_on channel=2 note=71 velocity=0 time=0.051724124999999996@note_on channel=2 note=72 velocity=100 time=0@note_on channel=2 note=72 velocity=0 time=0.051724124999999996@note_on channel=2 note=71 velocity=100 time=0@note_on channel=2 note=71 velocity=0 time=0.051724124999999996@note_on channel=2 note=72 velocity=100 time=0@note_on channel=3 note=56 velocity=0 time=0@note_on channel=3 note=52 velocity=0 time=0@note_on channel=3 note=52 velocity=100 time=0@note_on channel=3 note=56 velocity=100 time=0@note_on channel=2 note=72 velocity=0 time=0.051724124999999996@note_on channel=2 note=71 velocity=100 time=0@note_on channel=2 note=71 velocity=0 time=0.051724124999999996@note_on channel=2 note=69 velocity=100 time=0@note_on channel=2 note=69 velocity=0 time=0.051724124999999996@note_on channel=2 note=71 velocity=100 time=0@note_on channel=2 note=71 velocity=0 time=0.051724124999999996@note_on channel=2 note=69 velocity=100 time=0@note_on channel=3 note=56 velocity=0 time=0@note_on channel=3 note=52 velocity=0 time=0@note_on channel=3 note=45 velocity=100 time=0@note_on channel=3 note=57 velocity=100 time=0@<meta message key_signature key='A' time=0.41379299999999997>@note_on channel=2 note=69 velocity=0 time=0@note_on channel=3 note=57 velocity=0 time=0@note_on channel=3 note=45 velocity=0 time=0@note_on channel=13 note=69 velocity=100 time=0@note_on channel=13 note=69 velocity=0 time=0.10344824999999999@note_on channel=13 note=81 velocity=100 time=0@note_on channel=13 note=81 velocity=0 time=0.10344824999999999@note_on channel=13 note=71 velocity=100 time=0@note_on channel=13 note=71 velocity=0 time=0.10344824999999999@note_on channel=13 note=83 velocity=100 time=0@<meta message marker text='New again' time=0.10344824999999999>@note_on channel=13 note=83 velocity=0 time=0@note_on channel=13 note=73 velocity=100 time=0@note_on channel=14 note=57 velocity=100 time=0@note_on channel=13 note=73 velocity=0 time=0.10344824999999999@note_on channel=13 note=85 velocity=100 time=0@note_on channel=13 note=85 velocity=0 time=0.10344824999999999@note_on channel=14 note=57 velocity=0 time=0@note_on channel=14 note=57 velocity=100 time=0@note_on channel=13 note=69 velocity=100 time=0.20689649999999998@note_on channel=14 note=57 velocity=0 time=0@note_on channel=14 note=57 velocity=100 time=0@note_on channel=13 note=69 velocity=0 time=0.10344824999999999@note_on channel=13 note=81 velocity=100 time=0@note_on channel=13 note=81 velocity=0 time=0.10344824999999999@note_on channel=13 note=71 velocity=100 time=0@note_on channel=14 note=57 velocity=0 time=0@note_on channel=14 note=57 velocity=100 time=0@note_on channel=13 note=71 velocity=0 time=0.10344824999999999@note_on channel=13 note=83 velocity=100 time=0@note_on channel=13 note=83 velocity=0 time=0.10344824999999999@note_on channel=13 note=73 velocity=100 time=0@note_on channel=14 note=57 velocity=0 time=0@note_on channel=14 note=57 velocity=100 time=0@note_on channel=13 note=73 velocity=0 time=0.10344824999999999@note_on channel=13 note=85 velocity=100 time=0@note_on channel=13 note=85 velocity=0 time=0.10344824999999999@note_on channel=13 note=71 velocity=100 time=0@note_on channel=14 note=57 velocity=0 time=0@note_on channel=14 note=57 velocity=100 time=0@note_on channel=13 note=71 velocity=0 time=0.10344824999999999@note_on channel=13 note=83 velocity=100 time=0@note_on channel=13 note=83 velocity=0 time=0.10344824999999999@note_on channel=13 note=69 velocity=100 time=0@note_on channel=14 note=57 velocity=0 time=0@note_on channel=14 note=57 velocity=100 time=0@note_on channel=13 note=69 velocity=0 time=0.10344824999999999@note_on channel=13 note=81 velocity=100 time=0@note_on channel=13 note=81 velocity=0 time=0.10344824999999999@note_on channel=13 note=68 velocity=100 time=0@note_on channel=14 note=57 velocity=0 time=0@note_on channel=14 note=57 velocity=100 time=0@note_on channel=13 note=68 velocity=0 time=0.10344824999999999@note_on channel=13 note=80 velocity=100 time=0@note_on channel=13 note=80 velocity=0 time=0.10344824999999999@note_on channel=13 note=66 velocity=100 time=0@note_on channel=14 note=57 velocity=0 time=0@note_on channel=14 note=50 velocity=100 time=0@note_on channel=13 note=66 velocity=0 time=0.10344824999999999@note_on channel=13 note=78 velocity=100 time=0@note_on channel=13 note=78 velocity=0 time=0.10344824999999999@note_on channel=13 note=68 velocity=100 time=0@note_on channel=14 note=50 velocity=0 time=0@note_on channel=14 note=50 velocity=100 time=0@note_on channel=13 note=68 velocity=0 time=0.10344824999999999@note_on channel=13 note=80 velocity=100 time=0@note_on channel=13 note=80 velocity=0 time=0.10344824999999999@note_on channel=13 note=69 velocity=100 time=0@note_on channel=14 note=50 velocity=0 time=0@note_on channel=14 note=51 velocity=100 time=0@note_on channel=13 note=69 velocity=0 time=0.10344824999999999@note_on channel=13 note=81 velocity=100 time=0@note_on channel=13 note=81 velocity=0 time=0.10344824999999999@note_on channel=13 note=71 velocity=100 time=0@note_on channel=14 note=51 velocity=0 time=0@note_on channel=14 note=51 velocity=100 time=0@note_on channel=13 note=71 velocity=0 time=0.10344824999999999@note_on channel=13 note=83 velocity=100 time=0@note_on channel=13 note=83 velocity=0 time=0.10344824999999999@note_on channel=13 note=68 velocity=100 time=0@note_on channel=14 note=51 velocity=0 time=0@note_on channel=14 note=52 velocity=100 time=0@note_on channel=13 note=68 velocity=0 time=0.10344824999999999@note_on channel=13 note=80 velocity=100 time=0@note_on channel=13 note=80 velocity=0 time=0.10344824999999999@note_on channel=13 note=64 velocity=100 time=0@note_on channel=14 note=52 velocity=0 time=0@note_on channel=14 note=52 velocity=100 time=0@note_on channel=13 note=64 velocity=0 time=0.10344824999999999@note_on channel=13 note=76 velocity=100 time=0@note_on channel=13 note=76 velocity=0 time=0.10344824999999999@note_on channel=13 note=69 velocity=100 time=0@note_on channel=14 note=52 velocity=0 time=0@note_on channel=14 note=52 velocity=100 time=0@note_on channel=13 note=69 velocity=0 time=0.10344824999999999@note_on channel=13 note=81 velocity=100 time=0@note_on channel=13 note=81 velocity=0 time=0.10344824999999999@note_on channel=13 note=71 velocity=100 time=0@note_on channel=14 note=52 velocity=0 time=0@note_on channel=14 note=52 velocity=100 time=0@note_on channel=13 note=71 velocity=0 time=0.10344824999999999@note_on channel=13 note=83 velocity=100 time=0@note_on channel=13 note=83 velocity=0 time=0.10344824999999999@note_on channel=13 note=73 velocity=100 time=0@note_on channel=14 note=52 velocity=0 time=0@note_on channel=14 note=57 velocity=100 time=0@note_on channel=13 note=73 velocity=0 time=0.10344824999999999@note_on channel=13 note=85 velocity=100 time=0@note_on channel=13 note=85 velocity=0 time=0.10344824999999999@note_on channel=14 note=57 velocity=0 time=0@note_on channel=14 note=57 velocity=100 time=0@note_on channel=13 note=69 velocity=100 time=0.20689649999999998@note_on channel=14 note=57 velocity=0 time=0@note_on channel=14 note=57 velocity=100 time=0@note_on channel=13 note=69 velocity=0 time=0.10344824999999999@note_on channel=13 note=81 velocity=100 time=0@note_on channel=13 note=81 velocity=0 time=0.10344824999999999@note_on channel=13 note=71 velocity=100 time=0@note_on channel=14 note=57 velocity=0 time=0@note_on channel=14 note=57 velocity=100 time=0@note_on channel=13 note=71 velocity=0 time=0.10344824999999999@note_on channel=13 note=83 velocity=100 time=0@note_on channel=13 note=83 velocity=0 time=0.10344824999999999@note_on channel=13 note=73 velocity=100 time=0@note_on channel=14 note=57 velocity=0 time=0@note_on channel=14 note=57 velocity=100 time=0@note_on channel=13 note=73 velocity=0 time=0.10344824999999999@note_on channel=13 note=85 velocity=100 time=0@note_on channel=13 note=85 velocity=0 time=0.10344824999999999@note_on channel=13 note=71 velocity=100 time=0@note_on channel=14 note=57 velocity=0 time=0@note_on channel=14 note=57 velocity=100 time=0@note_on channel=13 note=71 velocity=0 time=0.10344824999999999@note_on channel=13 note=83 velocity=100 time=0@note_on channel=13 note=83 velocity=0 time=0.10344824999999999@note_on channel=13 note=69 velocity=100 time=0@note_on channel=14 note=57 velocity=0 time=0@note_on channel=14 note=57 velocity=100 time=0@note_on channel=13 note=69 velocity=0 time=0.10344824999999999@note_on channel=13 note=81 velocity=100 time=0@note_on channel=13 note=81 velocity=0 time=0.10344824999999999@note_on channel=13 note=68 velocity=100 time=0@note_on channel=14 note=57 velocity=0 time=0@note_on channel=14 note=57 velocity=100 time=0@note_on channel=13 note=68 velocity=0 time=0.10344824999999999@note_on channel=13 note=80 velocity=100 time=0@note_on channel=13 note=80 velocity=0 time=0.10344824999999999@note_on channel=13 note=66 velocity=100 time=0@note_on channel=14 note=57 velocity=0 time=0@note_on channel=14 note=50 velocity=100 time=0@note_on channel=13 note=66 velocity=0 time=0.10344824999999999@note_on channel=13 note=78 velocity=100 time=0@note_on channel=13 note=78 velocity=0 time=0.10344824999999999@note_on channel=13 note=71 velocity=100 time=0@note_on channel=14 note=50 velocity=0 time=0@note_on channel=14 note=50 velocity=100 time=0@note_on channel=13 note=71 velocity=0 time=0.10344824999999999@note_on channel=13 note=83 velocity=100 time=0@note_on channel=13 note=83 velocity=0 time=0.10344824999999999@note_on channel=13 note=68 velocity=100 time=0@note_on channel=14 note=50 velocity=0 time=0@note_on channel=14 note=52 velocity=100 time=0@note_on channel=13 note=68 velocity=0 time=0.10344824999999999@note_on channel=13 note=80 velocity=100 time=0@note_on channel=13 note=80 velocity=0 time=0.10344824999999999@note_on channel=13 note=64 velocity=100 time=0@note_on channel=14 note=52 velocity=0 time=0@note_on channel=14 note=52 velocity=100 time=0@note_on channel=13 note=64 velocity=0 time=0.10344824999999999@note_on channel=13 note=76 velocity=100 time=0@note_on channel=13 note=76 velocity=0 time=0.10344824999999999@note_on channel=13 note=81 velocity=100 time=0@note_on channel=13 note=69 velocity=100 time=0@note_on channel=14 note=52 velocity=0 time=0@note_on channel=14 note=45 velocity=100 time=0@note_on channel=13 note=69 velocity=0 time=0.41379299999999997@note_on channel=13 note=81 velocity=0 time=0@note_on channel=13 note=69 velocity=100 time=0@note_on channel=14 note=45 velocity=0 time=0@note_on channel=13 note=69 velocity=0 time=0.10344824999999999@note_on channel=13 note=81 velocity=100 time=0@note_on channel=13 note=81 velocity=0 time=0.10344824999999999@note_on channel=13 note=71 velocity=100 time=0@note_on channel=13 note=71 velocity=0 time=0.10344824999999999@note_on channel=13 note=83 velocity=100 time=0@note_on channel=13 note=83 velocity=0 time=0.10344824999999999@note_on channel=13 note=73 velocity=100 time=0@note_on channel=14 note=57 velocity=100 time=0@note_on channel=13 note=73 velocity=0 time=0.10344824999999999@note_on channel=13 note=85 velocity=100 time=0@note_on channel=13 note=85 velocity=0 time=0.10344824999999999@note_on channel=14 note=57 velocity=0 time=0@note_on channel=14 note=57 velocity=100 time=0@note_on channel=13 note=69 velocity=100 time=0.20689649999999998@note_on channel=14 note=57 velocity=0 time=0@note_on channel=14 note=57 velocity=100 time=0@note_on channel=13 note=69 velocity=0 time=0.10344824999999999@note_on channel=13 note=81 velocity=100 time=0@note_on channel=13 note=81 velocity=0 time=0.10344824999999999@note_on channel=13 note=71 velocity=100 time=0@note_on channel=14 note=57 velocity=0 time=0@note_on channel=14 note=57 velocity=100 time=0@note_on channel=13 note=71 velocity=0 time=0.10344824999999999@note_on channel=13 note=83 velocity=100 time=0@note_on channel=13 note=83 velocity=0 time=0.10344824999999999@note_on channel=13 note=73 velocity=100 time=0@note_on channel=14 note=57 velocity=0 time=0@note_on channel=14 note=57 velocity=100 time=0@note_on channel=13 note=73 velocity=0 time=0.10344824999999999@note_on channel=13 note=85 velocity=100 time=0@note_on channel=13 note=85 velocity=0 time=0.10344824999999999@note_on channel=13 note=71 velocity=100 time=0@note_on channel=14 note=57 velocity=0 time=0@note_on channel=14 note=57 velocity=100 time=0@note_on channel=13 note=71 velocity=0 time=0.10344824999999999@note_on channel=13 note=83 velocity=100 time=0@note_on channel=13 note=83 velocity=0 time=0.10344824999999999@note_on channel=13 note=69 velocity=100 time=0@note_on channel=14 note=57 velocity=0 time=0@note_on channel=14 note=57 velocity=100 time=0@note_on channel=13 note=69 velocity=0 time=0.10344824999999999@note_on channel=13 note=81 velocity=100 time=0@note_on channel=13 note=81 velocity=0 time=0.10344824999999999@note_on channel=13 note=68 velocity=100 time=0@note_on channel=14 note=57 velocity=0 time=0@note_on channel=14 note=57 velocity=100 time=0@note_on channel=13 note=68 velocity=0 time=0.10344824999999999@note_on channel=13 note=80 velocity=100 time=0@note_on channel=13 note=80 velocity=0 time=0.10344824999999999@note_on channel=13 note=66 velocity=100 time=0@note_on channel=14 note=57 velocity=0 time=0@note_on channel=14 note=50 velocity=100 time=0@note_on channel=13 note=66 velocity=0 time=0.10344824999999999@note_on channel=13 note=78 velocity=100 time=0@note_on channel=13 note=78 velocity=0 time=0.10344824999999999@note_on channel=13 note=68 velocity=100 time=0@note_on channel=14 note=50 velocity=0 time=0@note_on channel=14 note=50 velocity=100 time=0@note_on channel=13 note=68 velocity=0 time=0.10344824999999999@note_on channel=13 note=80 velocity=100 time=0@note_on channel=13 note=80 velocity=0 time=0.10344824999999999@note_on channel=13 note=69 velocity=100 time=0@note_on channel=14 note=50 velocity=0 time=0@note_on channel=14 note=51 velocity=100 time=0@note_on channel=13 note=69 velocity=0 time=0.10344824999999999@note_on channel=13 note=81 velocity=100 time=0@note_on channel=13 note=81 velocity=0 time=0.10344824999999999@note_on channel=13 note=71 velocity=100 time=0@note_on channel=14 note=51 velocity=0 time=0@note_on channel=14 note=51 velocity=100 time=0@note_on channel=13 note=71 velocity=0 time=0.10344824999999999@note_on channel=13 note=83 velocity=100 time=0@note_on channel=13 note=83 velocity=0 time=0.10344824999999999@note_on channel=13 note=68 velocity=100 time=0@note_on channel=14 note=51 velocity=0 time=0@note_on channel=14 note=52 velocity=100 time=0@note_on channel=13 note=68 velocity=0 time=0.10344824999999999@note_on channel=13 note=80 velocity=100 time=0@note_on channel=13 note=80 velocity=0 time=0.10344824999999999@note_on channel=13 note=64 velocity=100 time=0@note_on channel=14 note=52 velocity=0 time=0@note_on channel=14 note=52 velocity=100 time=0@note_on channel=13 note=64 velocity=0 time=0.10344824999999999@note_on channel=13 note=76 velocity=100 time=0@note_on channel=13 note=76 velocity=0 time=0.10344824999999999@note_on channel=13 note=69 velocity=100 time=0@note_on channel=14 note=52 velocity=0 time=0@note_on channel=14 note=52 velocity=100 time=0@note_on channel=13 note=69 velocity=0 time=0.10344824999999999@note_on channel=13 note=81 velocity=100 time=0@note_on channel=13 note=81 velocity=0 time=0.10344824999999999@note_on channel=13 note=71 velocity=100 time=0@note_on channel=14 note=52 velocity=0 time=0@note_on channel=14 note=52 velocity=100 time=0@note_on channel=13 note=71 velocity=0 time=0.10344824999999999@note_on channel=13 note=83 velocity=100 time=0@note_on channel=13 note=83 velocity=0 time=0.10344824999999999@note_on channel=13 note=73 velocity=100 time=0@note_on channel=14 note=52 velocity=0 time=0@note_on channel=14 note=57 velocity=100 time=0@note_on channel=13 note=73 velocity=0 time=0.10344824999999999@note_on channel=13 note=85 velocity=100 time=0@note_on channel=13 note=85 velocity=0 time=0.10344824999999999@note_on channel=14 note=57 velocity=0 time=0@note_on channel=14 note=57 velocity=100 time=0@note_on channel=13 note=69 velocity=100 time=0.20689649999999998@note_on channel=14 note=57 velocity=0 time=0@note_on channel=14 note=57 velocity=100 time=0@note_on channel=13 note=69 velocity=0 time=0.10344824999999999@note_on channel=13 note=81 velocity=100 time=0@note_on channel=13 note=81 velocity=0 time=0.10344824999999999@note_on channel=13 note=71 velocity=100 time=0@note_on channel=14 note=57 velocity=0 time=0@note_on channel=14 note=57 velocity=100 time=0@note_on channel=13 note=71 velocity=0 time=0.10344824999999999@note_on channel=13 note=83 velocity=100 time=0@note_on channel=13 note=83 velocity=0 time=0.10344824999999999@note_on channel=13 note=73 velocity=100 time=0@note_on channel=14 note=57 velocity=0 time=0@note_on channel=14 note=57 velocity=100 time=0@note_on channel=13 note=73 velocity=0 time=0.10344824999999999@note_on channel=13 note=85 velocity=100 time=0@note_on channel=13 note=85 velocity=0 time=0.10344824999999999@note_on channel=13 note=71 velocity=100 time=0@note_on channel=14 note=57 velocity=0 time=0@note_on channel=14 note=57 velocity=100 time=0@note_on channel=13 note=71 velocity=0 time=0.10344824999999999@note_on channel=13 note=83 velocity=100 time=0@note_on channel=13 note=83 velocity=0 time=0.10344824999999999@note_on channel=13 note=69 velocity=100 time=0@note_on channel=14 note=57 velocity=0 time=0@note_on channel=14 note=57 velocity=100 time=0@note_on channel=13 note=69 velocity=0 time=0.10344824999999999@note_on channel=13 note=81 velocity=100 time=0@note_on channel=13 note=81 velocity=0 time=0.10344824999999999@note_on channel=13 note=68 velocity=100 time=0@note_on channel=14 note=57 velocity=0 time=0@note_on channel=14 note=57 velocity=100 time=0@note_on channel=13 note=68 velocity=0 time=0.10344824999999999@note_on channel=13 note=80 velocity=100 time=0@note_on channel=13 note=80 velocity=0 time=0.10344824999999999@note_on channel=13 note=66 velocity=100 time=0@note_on channel=14 note=57 velocity=0 time=0@note_on channel=14 note=50 velocity=100 time=0@note_on channel=13 note=66 velocity=0 time=0.10344824999999999@note_on channel=13 note=78 velocity=100 time=0@note_on channel=13 note=78 velocity=0 time=0.10344824999999999@note_on channel=13 note=71 velocity=100 time=0@note_on channel=14 note=50 velocity=0 time=0@note_on channel=14 note=50 velocity=100 time=0@note_on channel=13 note=71 velocity=0 time=0.10344824999999999@note_on channel=13 note=83 velocity=100 time=0@note_on channel=13 note=83 velocity=0 time=0.10344824999999999@note_on channel=13 note=68 velocity=100 time=0@note_on channel=14 note=50 velocity=0 time=0@note_on channel=14 note=52 velocity=100 time=0@note_on channel=13 note=68 velocity=0 time=0.10344824999999999@note_on channel=13 note=80 velocity=100 time=0@note_on channel=13 note=80 velocity=0 time=0.10344824999999999@note_on channel=13 note=64 velocity=100 time=0@note_on channel=14 note=52 velocity=0 time=0@note_on channel=14 note=52 velocity=100 time=0@note_on channel=13 note=64 velocity=0 time=0.10344824999999999@note_on channel=13 note=76 velocity=100 time=0@note_on channel=13 note=76 velocity=0 time=0.10344824999999999@note_on channel=13 note=81 velocity=100 time=0@note_on channel=13 note=69 velocity=100 time=0@note_on channel=14 note=52 velocity=0 time=0@note_on channel=14 note=57 velocity=100 time=0@note_on channel=14 note=57 velocity=0 time=0.20689649999999998@note_on channel=14 note=57 velocity=100 time=0@note_on channel=13 note=69 velocity=0 time=0.20689649999999998@note_on channel=13 note=81 velocity=0 time=0@note_on channel=13 note=85 velocity=100 time=0@note_on channel=13 note=73 velocity=100 time=0@note_on channel=14 note=57 velocity=0 time=0@note_on channel=14 note=57 velocity=100 time=0@note_on channel=14 note=57 velocity=0 time=0.20689649999999998@note_on channel=14 note=57 velocity=100 time=0@note_on channel=13 note=85 velocity=0 time=0.10344824999999999@note_on channel=13 note=85 velocity=100 time=0@note_on channel=13 note=85 velocity=0 time=0.10344824999999999@note_on channel=13 note=73 velocity=0 time=0@note_on channel=13 note=73 velocity=100 time=0@note_on channel=14 note=57 velocity=0 time=0@note_on channel=14 note=57 velocity=100 time=0@note_on channel=13 note=76 velocity=100 time=0.03448275@note_on channel=13 note=81 velocity=100 time=0.03448275@note_on channel=13 note=85 velocity=100 time=0.03448275@note_on channel=14 note=57 velocity=0 time=0.10344824999999999@note_on channel=14 note=57 velocity=100 time=0@note_on channel=13 note=81 velocity=0 time=0.20689649999999998@note_on channel=13 note=73 velocity=0 time=0@note_on channel=13 note=76 velocity=0 time=0@note_on channel=14 note=57 velocity=0 time=0@note_on channel=14 note=57 velocity=100 time=0@note_on channel=14 note=57 velocity=0 time=0.20689649999999998@note_on channel=14 note=57 velocity=100 time=0@note_on channel=13 note=85 velocity=0 time=0.20689649999999998@note_on channel=13 note=73 velocity=100 time=0@note_on channel=14 note=57 velocity=0 time=0@note_on channel=14 note=57 velocity=100 time=0@note_on channel=13 note=76 velocity=100 time=0.03448275@note_on channel=13 note=81 velocity=100 time=0.03448275@note_on channel=13 note=85 velocity=100 time=0.03448275@note_on channel=14 note=57 velocity=0 time=0.10344824999999999@note_on channel=14 note=57 velocity=100 time=0@note_on channel=13 note=81 velocity=0 time=0.20689649999999998@note_on channel=13 note=73 velocity=0 time=0@note_on channel=13 note=76 velocity=0 time=0@note_on channel=14 note=57 velocity=0 time=0@note_on channel=14 note=57 velocity=100 time=0@note_on channel=14 note=57 velocity=0 time=0.20689649999999998@note_on channel=14 note=57 velocity=100 time=0@note_on channel=13 note=85 velocity=0 time=0.20689649999999998@note_on channel=13 note=86 velocity=100 time=0@note_on channel=14 note=57 velocity=0 time=0@note_on channel=14 note=57 velocity=100 time=0@note_on channel=13 note=86 velocity=0 time=0.10344824999999999@note_on channel=13 note=85 velocity=100 time=0@note_on channel=13 note=85 velocity=0 time=0.10344824999999999@note_on channel=13 note=83 velocity=100 time=0@note_on channel=14 note=57 velocity=0 time=0@note_on channel=14 note=57 velocity=100 time=0@note_on channel=13 note=83 velocity=0 time=0.10344824999999999@note_on channel=13 note=85 velocity=100 time=0@note_on channel=13 note=85 velocity=0 time=0.10344824999999999@note_on channel=13 note=86 velocity=100 time=0@note_on channel=14 note=57 velocity=0 time=0@note_on channel=14 note=57 velocity=100 time=0@note_on channel=13 note=86 velocity=0 time=0.10344824999999999@note_on channel=13 note=85 velocity=100 time=0@note_on channel=13 note=85 velocity=0 time=0.10344824999999999@note_on channel=13 note=83 velocity=100 time=0@note_on channel=14 note=57 velocity=0 time=0@note_on channel=14 note=57 velocity=100 time=0@note_on channel=13 note=83 velocity=0 time=0.10344824999999999@note_on channel=13 note=85 velocity=100 time=0@note_on channel=13 note=85 velocity=0 time=0.10344824999999999@note_on channel=13 note=78 velocity=100 time=0@note_on channel=13 note=81 velocity=100 time=0@note_on channel=13 note=86 velocity=100 time=0@note_on channel=14 note=57 velocity=0 time=0@note_on channel=14 note=50 velocity=100 time=0@note_on channel=14 note=50 velocity=0 time=0.20689649999999998@note_on channel=14 note=50 velocity=100 time=0@note_on channel=14 note=50 velocity=0 time=0.20689649999999998@note_on channel=14 note=50 velocity=100 time=0@note_on channel=14 note=50 velocity=0 time=0.20689649999999998@note_on channel=14 note=50 velocity=100 time=0@note_on channel=13 note=86 velocity=0 time=0.155172375@note_on channel=13 note=81 velocity=0 time=0@note_on channel=13 note=78 velocity=0 time=0@note_on channel=13 note=86 velocity=100 time=0@note_on channel=13 note=86 velocity=0 time=0.051724124999999996@note_on channel=13 note=85 velocity=100 time=0@note_on channel=13 note=81 velocity=100 time=0@note_on channel=13 note=76 velocity=100 time=0@note_on channel=14 note=50 velocity=0 time=0@note_on channel=14 note=57 velocity=100 time=0@note_on channel=13 note=76 velocity=0 time=0.155172375@note_on channel=13 note=81 velocity=0 time=0@note_on channel=13 note=85 velocity=0 time=0@note_on channel=13 note=86 velocity=100 time=0@note_on channel=13 note=86 velocity=0 time=0.051724124999999996@note_on channel=13 note=85 velocity=100 time=0@note_on channel=13 note=81 velocity=100 time=0@note_on channel=13 note=76 velocity=100 time=0@note_on channel=14 note=57 velocity=0 time=0@note_on channel=14 note=57 velocity=100 time=0@note_on channel=13 note=76 velocity=0 time=0.155172375@note_on channel=13 note=81 velocity=0 time=0@note_on channel=13 note=85 velocity=0 time=0@note_on channel=13 note=86 velocity=100 time=0@note_on channel=13 note=86 velocity=0 time=0.051724124999999996@note_on channel=13 note=85 velocity=100 time=0@note_on channel=13 note=81 velocity=100 time=0@note_on channel=13 note=76 velocity=100 time=0@note_on channel=14 note=57 velocity=0 time=0@note_on channel=14 note=57 velocity=100 time=0@note_on channel=13 note=76 velocity=0 time=0.155172375@note_on channel=13 note=81 velocity=0 time=0@note_on channel=13 note=85 velocity=0 time=0@note_on channel=13 note=86 velocity=100 time=0@note_on channel=13 note=86 velocity=0 time=0.051724124999999996@note_on channel=13 note=76 velocity=100 time=0@note_on channel=13 note=81 velocity=100 time=0@note_on channel=13 note=85 velocity=100 time=0@note_on channel=14 note=57 velocity=0 time=0@note_on channel=14 note=57 velocity=100 time=0@note_on channel=13 note=85 velocity=0 time=0.20689649999999998@note_on channel=13 note=81 velocity=0 time=0@note_on channel=13 note=76 velocity=0 time=0@note_on channel=13 note=83 velocity=100 time=0@note_on channel=13 note=80 velocity=100 time=0@note_on channel=13 note=76 velocity=100 time=0@note_on channel=14 note=57 velocity=0 time=0@note_on channel=14 note=52 velocity=100 time=0@note_on channel=14 note=52 velocity=0 time=0.20689649999999998@note_on channel=14 note=52 velocity=100 time=0@note_on channel=14 note=52 velocity=0 time=0.20689649999999998@note_on channel=14 note=52 velocity=100 time=0@note_on channel=13 note=83 velocity=0 time=0.20689649999999998@note_on channel=13 note=88 velocity=100 time=0@note_on channel=14 note=52 velocity=0 time=0@note_on channel=14 note=52 velocity=100 time=0@note_on channel=13 note=88 velocity=0 time=0.20689649999999998@note_on channel=13 note=76 velocity=0 time=0@note_on channel=13 note=80 velocity=0 time=0@note_on channel=13 note=73 velocity=100 time=0@note_on channel=14 note=52 velocity=0 time=0@note_on channel=14 note=57 velocity=100 time=0@note_on channel=13 note=76 velocity=100 time=0.03448275@note_on channel=13 note=81 velocity=100 time=0.03448275@note_on channel=13 note=85 velocity=100 time=0.03448275@note_on channel=14 note=57 velocity=0 time=0.10344824999999999@note_on channel=14 note=57 velocity=100 time=0@note_on channel=13 note=81 velocity=0 time=0.20689649999999998@note_on channel=13 note=73 velocity=0 time=0@note_on channel=13 note=76 velocity=0 time=0@note_on channel=14 note=57 velocity=0 time=0@note_on channel=14 note=57 velocity=100 time=0@note_on channel=14 note=57 velocity=0 time=0.20689649999999998@note_on channel=14 note=57 velocity=100 time=0@note_on channel=13 note=85 velocity=0 time=0.20689649999999998@note_on channel=13 note=73 velocity=100 time=0@note_on channel=14 note=57 velocity=0 time=0@note_on channel=14 note=57 velocity=100 time=0@note_on channel=13 note=76 velocity=100 time=0.03448275@note_on channel=13 note=81 velocity=100 time=0.03448275@note_on channel=13 note=85 velocity=100 time=0.03448275@note_on channel=14 note=57 velocity=0 time=0.10344824999999999@note_on channel=14 note=57 velocity=100 time=0@note_on channel=13 note=81 velocity=0 time=0.20689649999999998@note_on channel=13 note=73 velocity=0 time=0@note_on channel=13 note=76 velocity=0 time=0@note_on channel=14 note=57 velocity=0 time=0@note_on channel=14 note=57 velocity=100 time=0@note_on channel=14 note=57 velocity=0 time=0.20689649999999998@note_on channel=14 note=57 velocity=100 time=0@note_on channel=13 note=85 velocity=0 time=0.20689649999999998@note_on channel=13 note=86 velocity=100 time=0@note_on channel=14 note=57 velocity=0 time=0@note_on channel=14 note=57 velocity=100 time=0@note_on channel=13 note=86 velocity=0 time=0.10344824999999999@note_on channel=13 note=85 velocity=100 time=0@note_on channel=13 note=85 velocity=0 time=0.10344824999999999@note_on channel=13 note=83 velocity=100 time=0@note_on channel=14 note=57 velocity=0 time=0@note_on channel=14 note=57 velocity=100 time=0@note_on channel=13 note=83 velocity=0 time=0.10344824999999999@note_on channel=13 note=85 velocity=100 time=0@note_on channel=13 note=85 velocity=0 time=0.10344824999999999@note_on channel=13 note=86 velocity=100 time=0@note_on channel=14 note=57 velocity=0 time=0@note_on channel=14 note=57 velocity=100 time=0@note_on channel=13 note=86 velocity=0 time=0.10344824999999999@note_on channel=13 note=85 velocity=100 time=0@note_on channel=13 note=85 velocity=0 time=0.10344824999999999@note_on channel=13 note=83 velocity=100 time=0@note_on channel=14 note=57 velocity=0 time=0@note_on channel=14 note=57 velocity=100 time=0@note_on channel=13 note=83 velocity=0 time=0.10344824999999999@note_on channel=13 note=85 velocity=100 time=0@note_on channel=13 note=85 velocity=0 time=0.10344824999999999@note_on channel=13 note=78 velocity=100 time=0@note_on channel=13 note=81 velocity=100 time=0@note_on channel=13 note=86 velocity=100 time=0@note_on channel=14 note=57 velocity=0 time=0@note_on channel=14 note=50 velocity=100 time=0@note_on channel=14 note=50 velocity=0 time=0.20689649999999998@note_on channel=14 note=50 velocity=100 time=0@note_on channel=14 note=50 velocity=0 time=0.20689649999999998@note_on channel=14 note=50 velocity=100 time=0@note_on channel=14 note=50 velocity=0 time=0.20689649999999998@note_on channel=14 note=50 velocity=100 time=0@note_on channel=13 note=86 velocity=0 time=0.155172375@note_on channel=13 note=81 velocity=0 time=0@note_on channel=13 note=78 velocity=0 time=0@note_on channel=13 note=86 velocity=100 time=0@note_on channel=13 note=86 velocity=0 time=0.051724124999999996@note_on channel=13 note=85 velocity=100 time=0@note_on channel=13 note=81 velocity=100 time=0@note_on channel=13 note=76 velocity=100 time=0@note_on channel=14 note=50 velocity=0 time=0@note_on channel=14 note=57 velocity=100 time=0@note_on channel=14 note=57 velocity=0 time=0.20689649999999998@note_on channel=14 note=57 velocity=100 time=0@note_on channel=14 note=57 velocity=0 time=0.20689649999999998@note_on channel=14 note=57 velocity=100 time=0@note_on channel=14 note=57 velocity=0 time=0.20689649999999998@note_on channel=14 note=57 velocity=100 time=0@note_on channel=13 note=76 velocity=0 time=0.155172375@note_on channel=13 note=81 velocity=0 time=0@note_on channel=13 note=85 velocity=0 time=0@note_on channel=13 note=85 velocity=100 time=0@note_on channel=13 note=85 velocity=0 time=0.051724124999999996@note_on channel=13 note=76 velocity=100 time=0@note_on channel=13 note=80 velocity=100 time=0@note_on channel=13 note=83 velocity=100 time=0@note_on channel=14 note=57 velocity=0 time=0@note_on channel=14 note=52 velocity=100 time=0@note_on channel=13 note=83 velocity=0 time=0.155172375@note_on channel=13 note=80 velocity=0 time=0@note_on channel=13 note=76 velocity=0 time=0@note_on channel=13 note=85 velocity=100 time=0@note_on channel=13 note=85 velocity=0 time=0.051724124999999996@note_on channel=13 note=76 velocity=100 time=0@note_on channel=13 note=80 velocity=100 time=0@note_on channel=13 note=83 velocity=100 time=0@note_on channel=14 note=52 velocity=0 time=0@note_on channel=14 note=52 velocity=100 time=0@note_on channel=13 note=83 velocity=0 time=0.155172375@note_on channel=13 note=80 velocity=0 time=0@note_on channel=13 note=76 velocity=0 time=0@note_on channel=13 note=85 velocity=100 time=0@note_on channel=13 note=85 velocity=0 time=0.051724124999999996@note_on channel=13 note=76 velocity=100 time=0@note_on channel=13 note=80 velocity=100 time=0@note_on channel=13 note=83 velocity=100 time=0@note_on channel=14 note=52 velocity=0 time=0@note_on channel=14 note=52 velocity=100 time=0@note_on channel=13 note=83 velocity=0 time=0.155172375@note_on channel=13 note=80 velocity=0 time=0@note_on channel=13 note=76 velocity=0 time=0@note_on channel=13 note=85 velocity=100 time=0@note_on channel=13 note=85 velocity=0 time=0.051724124999999996@note_on channel=13 note=76 velocity=100 time=0@note_on channel=13 note=80 velocity=100 time=0@note_on channel=13 note=83 velocity=100 time=0@note_on channel=14 note=52 velocity=0 time=0@note_on channel=14 note=52 velocity=100 time=0@note_on channel=13 note=83 velocity=0 time=0.20689649999999998@note_on channel=13 note=80 velocity=0 time=0@note_on channel=13 note=76 velocity=0 time=0@note_on channel=13 note=81 velocity=100 time=0@note_on channel=14 note=52 velocity=0 time=0@note_on channel=14 note=57 velocity=100 time=0@note_on channel=14 note=57 velocity=0 time=0.10344824999999999@note_on channel=14 note=64 velocity=100 time=0@note_on channel=14 note=64 velocity=0 time=0.10344824999999999@note_on channel=14 note=61 velocity=100 time=0@note_on channel=14 note=61 velocity=0 time=0.10344824999999999@note_on channel=14 note=64 velocity=100 time=0@note_on channel=13 note=81 velocity=0 time=0.10344824999999999@note_on channel=13 note=76 velocity=100 time=0@note_on channel=14 note=64 velocity=0 time=0@note_on channel=14 note=57 velocity=100 time=0@note_on channel=13 note=76 velocity=0 time=0.10344824999999999@note_on channel=13 note=81 velocity=100 time=0@note_on channel=14 note=57 velocity=0 time=0@note_on channel=14 note=64 velocity=100 time=0@note_on channel=13 note=81 velocity=0 time=0.10344824999999999@note_on channel=13 note=85 velocity=100 time=0@note_on channel=14 note=64 velocity=0 time=0@note_on channel=14 note=61 velocity=100 time=0@note_on channel=13 note=85 velocity=0 time=0.10344824999999999@note_on channel=13 note=85 velocity=100 time=0@note_on channel=14 note=61 velocity=0 time=0@note_on channel=14 note=64 velocity=100 time=0@note_on channel=13 note=85 velocity=0 time=0.10344824999999999@note_on channel=13 note=76 velocity=100 time=0@note_on channel=14 note=64 velocity=0 time=0@note_on channel=14 note=57 velocity=100 time=0@note_on channel=13 note=76 velocity=0 time=0.10344824999999999@note_on channel=13 note=81 velocity=100 time=0@note_on channel=14 note=57 velocity=0 time=0@note_on channel=14 note=64 velocity=100 time=0@note_on channel=13 note=81 velocity=0 time=0.10344824999999999@note_on channel=13 note=85 velocity=100 time=0@note_on channel=14 note=64 velocity=0 time=0@note_on channel=14 note=61 velocity=100 time=0@note_on channel=14 note=61 velocity=0 time=0.10344824999999999@note_on channel=14 note=64 velocity=100 time=0@note_on channel=14 note=64 velocity=0 time=0.10344824999999999@note_on channel=14 note=57 velocity=100 time=0@note_on channel=14 note=57 velocity=0 time=0.10344824999999999@note_on channel=14 note=64 velocity=100 time=0@note_on channel=14 note=64 velocity=0 time=0.10344824999999999@note_on channel=14 note=61 velocity=100 time=0@note_on channel=14 note=61 velocity=0 time=0.10344824999999999@note_on channel=14 note=64 velocity=100 time=0@note_on channel=13 note=85 velocity=0 time=0.10344824999999999@note_on channel=13 note=76 velocity=100 time=0@note_on channel=14 note=64 velocity=0 time=0@note_on channel=14 note=57 velocity=100 time=0@note_on channel=13 note=76 velocity=0 time=0.10344824999999999@note_on channel=13 note=81 velocity=100 time=0@note_on channel=14 note=57 velocity=0 time=0@note_on channel=14 note=64 velocity=100 time=0@note_on channel=13 note=81 velocity=0 time=0.10344824999999999@note_on channel=13 note=85 velocity=100 time=0@note_on channel=14 note=64 velocity=0 time=0@note_on channel=14 note=61 velocity=100 time=0@note_on channel=14 note=61 velocity=0 time=0.10344824999999999@note_on channel=14 note=64 velocity=100 time=0@note_on channel=14 note=64 velocity=0 time=0.10344824999999999@note_on channel=14 note=57 velocity=100 time=0@note_on channel=14 note=57 velocity=0 time=0.10344824999999999@note_on channel=14 note=64 velocity=100 time=0@note_on channel=14 note=64 velocity=0 time=0.10344824999999999@note_on channel=14 note=61 velocity=100 time=0@note_on channel=14 note=61 velocity=0 time=0.10344824999999999@note_on channel=14 note=64 velocity=100 time=0@note_on channel=13 note=85 velocity=0 time=0.10344824999999999@note_on channel=13 note=86 velocity=100 time=0@note_on channel=14 note=64 velocity=0 time=0@note_on channel=14 note=57 velocity=100 time=0@note_on channel=13 note=86 velocity=0 time=0.10344824999999999@note_on channel=13 note=85 velocity=100 time=0@note_on channel=14 note=57 velocity=0 time=0@note_on channel=14 note=64 velocity=100 time=0@note_on channel=13 note=85 velocity=0 time=0.10344824999999999@note_on channel=13 note=83 velocity=100 time=0@note_on channel=14 note=64 velocity=0 time=0@note_on channel=14 note=61 velocity=100 time=0@note_on channel=13 note=83 velocity=0 time=0.10344824999999999@note_on channel=13 note=85 velocity=100 time=0@note_on channel=14 note=61 velocity=0 time=0@note_on channel=14 note=64 velocity=100 time=0@note_on channel=13 note=85 velocity=0 time=0.10344824999999999@note_on channel=13 note=86 velocity=100 time=0@note_on channel=14 note=64 velocity=0 time=0@note_on channel=14 note=57 velocity=100 time=0@note_on channel=13 note=86 velocity=0 time=0.10344824999999999@note_on channel=13 note=85 velocity=100 time=0@note_on channel=14 note=57 velocity=0 time=0@note_on channel=14 note=64 velocity=100 time=0@note_on channel=13 note=85 velocity=0 time=0.10344824999999999@note_on channel=13 note=83 velocity=100 time=0@note_on channel=14 note=64 velocity=0 time=0@note_on channel=14 note=61 velocity=100 time=0@note_on channel=13 note=83 velocity=0 time=0.10344824999999999@note_on channel=13 note=85 velocity=100 time=0@note_on channel=14 note=61 velocity=0 time=0@note_on channel=14 note=64 velocity=100 time=0@note_on channel=13 note=85 velocity=0 time=0.10344824999999999@note_on channel=13 note=86 velocity=100 time=0@note_on channel=14 note=64 velocity=0 time=0@note_on channel=14 note=57 velocity=100 time=0@note_on channel=14 note=57 velocity=0 time=0.10344824999999999@note_on channel=14 note=66 velocity=100 time=0@note_on channel=14 note=66 velocity=0 time=0.10344824999999999@note_on channel=14 note=62 velocity=100 time=0@note_on channel=14 note=62 velocity=0 time=0.10344824999999999@note_on channel=14 note=66 velocity=100 time=0@note_on channel=14 note=66 velocity=0 time=0.10344824999999999@note_on channel=14 note=57 velocity=100 time=0@note_on channel=14 note=57 velocity=0 time=0.10344824999999999@note_on channel=14 note=66 velocity=100 time=0@note_on channel=14 note=66 velocity=0 time=0.10344824999999999@note_on channel=14 note=62 velocity=100 time=0@note_on channel=14 note=62 velocity=0 time=0.10344824999999999@note_on channel=14 note=66 velocity=100 time=0@note_on channel=13 note=86 velocity=0 time=0.051724124999999996@note_on channel=13 note=86 velocity=100 time=0@note_on channel=13 note=86 velocity=0 time=0.051724124999999996@note_on channel=13 note=85 velocity=100 time=0@note_on channel=14 note=66 velocity=0 time=0@note_on channel=14 note=57 velocity=100 time=0@note_on channel=14 note=57 velocity=0 time=0.10344824999999999@note_on channel=14 note=64 velocity=100 time=0@note_on channel=13 note=85 velocity=0 time=0.051724124999999996@note_on channel=13 note=86 velocity=100 time=0@note_on channel=13 note=86 velocity=0 time=0.051724124999999996@note_on channel=13 note=85 velocity=100 time=0@note_on channel=14 note=64 velocity=0 time=0@note_on channel=14 note=61 velocity=100 time=0@note_on channel=14 note=61 velocity=0 time=0.10344824999999999@note_on channel=14 note=64 velocity=100 time=0@note_on channel=13 note=85 velocity=0 time=0.051724124999999996@note_on channel=13 note=86 velocity=100 time=0@note_on channel=13 note=86 velocity=0 time=0.051724124999999996@note_on channel=13 note=85 velocity=100 time=0@note_on channel=14 note=64 velocity=0 time=0@note_on channel=14 note=57 velocity=100 time=0@note_on channel=14 note=57 velocity=0 time=0.10344824999999999@note_on channel=14 note=64 velocity=100 time=0@note_on channel=13 note=85 velocity=0 time=0.051724124999999996@note_on channel=13 note=86 velocity=100 time=0@note_on channel=13 note=86 velocity=0 time=0.051724124999999996@note_on channel=13 note=85 velocity=100 time=0@note_on channel=14 note=64 velocity=0 time=0@note_on channel=14 note=61 velocity=100 time=0@note_on channel=14 note=61 velocity=0 time=0.10344824999999999@note_on channel=14 note=64 velocity=100 time=0@note_on channel=13 note=85 velocity=0 time=0.10344824999999999@note_on channel=13 note=83 velocity=100 time=0@note_on channel=14 note=64 velocity=0 time=0@note_on channel=14 note=52 velocity=100 time=0@note_on channel=14 note=52 velocity=0 time=0.10344824999999999@note_on channel=14 note=64 velocity=100 time=0@note_on channel=14 note=64 velocity=0 time=0.10344824999999999@note_on channel=14 note=59 velocity=100 time=0@note_on channel=14 note=59 velocity=0 time=0.10344824999999999@note_on channel=14 note=64 velocity=100 time=0@note_on channel=14 note=64 velocity=0 time=0.10344824999999999@note_on channel=14 note=52 velocity=100 time=0@note_on channel=14 note=52 velocity=0 time=0.10344824999999999@note_on channel=14 note=64 velocity=100 time=0@note_on channel=13 note=83 velocity=0 time=0.10344824999999999@note_on channel=13 note=88 velocity=100 time=0@note_on channel=14 note=64 velocity=0 time=0@note_on channel=14 note=59 velocity=100 time=0@note_on channel=14 note=59 velocity=0 time=0.10344824999999999@note_on channel=14 note=64 velocity=100 time=0@note_on channel=13 note=88 velocity=0 time=0.10344824999999999@note_on channel=13 note=73 velocity=100 time=0@note_on channel=14 note=64 velocity=0 time=0@note_on channel=14 note=57 velocity=100 time=0@note_on channel=13 note=76 velocity=100 time=0.03448275@note_on channel=13 note=81 velocity=100 time=0.03448275@note_on channel=13 note=85 velocity=100 time=0.03448275@note_on channel=14 note=57 velocity=0 time=0.10344824999999999@note_on channel=14 note=57 velocity=100 time=0@note_on channel=13 note=81 velocity=0 time=0.20689649999999998@note_on channel=13 note=73 velocity=0 time=0@note_on channel=13 note=76 velocity=0 time=0@note_on channel=14 note=57 velocity=0 time=0@note_on channel=14 note=57 velocity=100 time=0@note_on channel=14 note=57 velocity=0 time=0.20689649999999998@note_on channel=14 note=57 velocity=100 time=0@note_on channel=13 note=85 velocity=0 time=0.20689649999999998@note_on channel=13 note=73 velocity=100 time=0@note_on channel=14 note=57 velocity=0 time=0@note_on channel=14 note=57 velocity=100 time=0@note_on channel=13 note=76 velocity=100 time=0.03448275@note_on channel=13 note=81 velocity=100 time=0.03448275@note_on channel=13 note=85 velocity=100 time=0.03448275@note_on channel=14 note=57 velocity=0 time=0.10344824999999999@note_on channel=14 note=57 velocity=100 time=0@note_on channel=13 note=81 velocity=0 time=0.20689649999999998@note_on channel=13 note=73 velocity=0 time=0@note_on channel=13 note=76 velocity=0 time=0@note_on channel=14 note=57 velocity=0 time=0@note_on channel=14 note=57 velocity=100 time=0@note_on channel=14 note=57 velocity=0 time=0.20689649999999998@note_on channel=14 note=57 velocity=100 time=0@note_on channel=13 note=85 velocity=0 time=0.20689649999999998@note_on channel=13 note=86 velocity=100 time=0@note_on channel=14 note=57 velocity=0 time=0@note_on channel=14 note=57 velocity=100 time=0@note_on channel=13 note=86 velocity=0 time=0.10344824999999999@note_on channel=13 note=85 velocity=100 time=0@note_on channel=13 note=85 velocity=0 time=0.10344824999999999@note_on channel=13 note=83 velocity=100 time=0@note_on channel=14 note=57 velocity=0 time=0@note_on channel=14 note=57 velocity=100 time=0@note_on channel=13 note=83 velocity=0 time=0.10344824999999999@note_on channel=13 note=85 velocity=100 time=0@note_on channel=13 note=85 velocity=0 time=0.10344824999999999@note_on channel=13 note=86 velocity=100 time=0@note_on channel=14 note=57 velocity=0 time=0@note_on channel=14 note=57 velocity=100 time=0@note_on channel=13 note=86 velocity=0 time=0.10344824999999999@note_on channel=13 note=85 velocity=100 time=0@note_on channel=13 note=85 velocity=0 time=0.10344824999999999@note_on channel=13 note=83 velocity=100 time=0@note_on channel=14 note=57 velocity=0 time=0@note_on channel=14 note=57 velocity=100 time=0@note_on channel=13 note=83 velocity=0 time=0.10344824999999999@note_on channel=13 note=85 velocity=100 time=0@note_on channel=13 note=85 velocity=0 time=0.10344824999999999@note_on channel=13 note=78 velocity=100 time=0@note_on channel=13 note=81 velocity=100 time=0@note_on channel=13 note=86 velocity=100 time=0@note_on channel=14 note=57 velocity=0 time=0@note_on channel=14 note=50 velocity=100 time=0@note_on channel=14 note=50 velocity=0 time=0.20689649999999998@note_on channel=14 note=50 velocity=100 time=0@note_on channel=14 note=50 velocity=0 time=0.20689649999999998@note_on channel=14 note=50 velocity=100 time=0@note_on channel=14 note=50 velocity=0 time=0.20689649999999998@note_on channel=14 note=50 velocity=100 time=0@note_on channel=13 note=86 velocity=0 time=0.155172375@note_on channel=13 note=81 velocity=0 time=0@note_on channel=13 note=78 velocity=0 time=0@note_on channel=13 note=86 velocity=100 time=0@note_on channel=13 note=86 velocity=0 time=0.051724124999999996@note_on channel=13 note=85 velocity=100 time=0@note_on channel=13 note=81 velocity=100 time=0@note_on channel=13 note=76 velocity=100 time=0@note_on channel=14 note=50 velocity=0 time=0@note_on channel=14 note=57 velocity=100 time=0@note_on channel=14 note=57 velocity=0 time=0.20689649999999998@note_on channel=14 note=57 velocity=100 time=0@note_on channel=14 note=57 velocity=0 time=0.20689649999999998@note_on channel=14 note=57 velocity=100 time=0@note_on channel=14 note=57 velocity=0 time=0.20689649999999998@note_on channel=14 note=57 velocity=100 time=0@note_on channel=13 note=76 velocity=0 time=0.155172375@note_on channel=13 note=81 velocity=0 time=0@note_on channel=13 note=85 velocity=0 time=0@note_on channel=13 note=85 velocity=100 time=0@note_on channel=13 note=85 velocity=0 time=0.051724124999999996@note_on channel=13 note=76 velocity=100 time=0@note_on channel=13 note=80 velocity=100 time=0@note_on channel=13 note=83 velocity=100 time=0@note_on channel=14 note=57 velocity=0 time=0@note_on channel=14 note=52 velocity=100 time=0@note_on channel=13 note=83 velocity=0 time=0.155172375@note_on channel=13 note=80 velocity=0 time=0@note_on channel=13 note=76 velocity=0 time=0@note_on channel=13 note=85 velocity=100 time=0@note_on channel=13 note=85 velocity=0 time=0.051724124999999996@note_on channel=13 note=76 velocity=100 time=0@note_on channel=13 note=80 velocity=100 time=0@note_on channel=13 note=83 velocity=100 time=0@note_on channel=14 note=52 velocity=0 time=0@note_on channel=14 note=52 velocity=100 time=0@note_on channel=13 note=83 velocity=0 time=0.155172375@note_on channel=13 note=80 velocity=0 time=0@note_on channel=13 note=76 velocity=0 time=0@note_on channel=13 note=85 velocity=100 time=0@note_on channel=13 note=85 velocity=0 time=0.051724124999999996@note_on channel=13 note=76 velocity=100 time=0@note_on channel=13 note=80 velocity=100 time=0@note_on channel=13 note=83 velocity=100 time=0@note_on channel=14 note=52 velocity=0 time=0@note_on channel=14 note=52 velocity=100 time=0@note_on channel=13 note=83 velocity=0 time=0.155172375@note_on channel=13 note=80 velocity=0 time=0@note_on channel=13 note=76 velocity=0 time=0@note_on channel=13 note=85 velocity=100 time=0@note_on channel=13 note=85 velocity=0 time=0.051724124999999996@note_on channel=13 note=76 velocity=100 time=0@note_on channel=13 note=80 velocity=100 time=0@note_on channel=13 note=83 velocity=100 time=0@note_on channel=14 note=52 velocity=0 time=0@note_on channel=14 note=52 velocity=100 time=0@note_on channel=13 note=83 velocity=0 time=0.20689649999999998@note_on channel=13 note=80 velocity=0 time=0@note_on channel=13 note=76 velocity=0 time=0@note_on channel=13 note=81 velocity=100 time=0@note_on channel=13 note=76 velocity=100 time=0@note_on channel=13 note=73 velocity=100 time=0@note_on channel=13 note=69 velocity=100 time=0@note_on channel=14 note=52 velocity=0 time=0@note_on channel=14 note=57 velocity=100 time=0@note_on channel=14 note=57 velocity=0 time=0.20689649999999998@note_on channel=14 note=57 velocity=100 time=0@note_on channel=14 note=57 velocity=0 time=0.20689649999999998@note_on channel=14 note=57 velocity=100 time=0@note_on channel=13 note=69 velocity=0 time=0.20689649999999998@note_on channel=13 note=81 velocity=0 time=0@note_on channel=13 note=76 velocity=0 time=0@note_on channel=13 note=73 velocity=0 time=0@note_on channel=13 note=85 velocity=100 time=0@note_on channel=13 note=73 velocity=100 time=0@note_on channel=14 note=57 velocity=0 time=0@note_on channel=14 note=57 velocity=100 time=0@note_on channel=13 note=73 velocity=0 time=0.20689649999999998@note_on channel=13 note=85 velocity=0 time=0@note_on channel=13 note=81 velocity=100 time=0@note_on channel=13 note=69 velocity=100 time=0@note_on channel=14 note=57 velocity=0 time=0@note_on channel=14 note=57 velocity=100 time=0@note_on channel=14 note=57 velocity=0 time=0.20689649999999998@note_on channel=14 note=57 velocity=100 time=0@note_on channel=14 note=57 velocity=0 time=0.20689649999999998@note_on channel=14 note=57 velocity=100 time=0@note_on channel=13 note=69 velocity=0 time=0.20689649999999998@note_on channel=13 note=81 velocity=0 time=0@note_on channel=13 note=88 velocity=100 time=0@note_on channel=13 note=76 velocity=100 time=0@note_on channel=14 note=57 velocity=0 time=0@note_on channel=14 note=57 velocity=100 time=0@note_on channel=13 note=76 velocity=0 time=0.20689649999999998@note_on channel=13 note=88 velocity=0 time=0@note_on channel=13 note=81 velocity=100 time=0@note_on channel=13 note=69 velocity=100 time=0@note_on channel=14 note=57 velocity=0 time=0@note_on channel=14 note=57 velocity=100 time=0@note_on channel=14 note=57 velocity=0 time=0.20689649999999998@note_on channel=14 note=57 velocity=100 time=0@note_on channel=14 note=57 velocity=0 time=0.20689649999999998@note_on channel=14 note=57 velocity=100 time=0@note_on channel=13 note=69 velocity=0 time=0.20689649999999998@note_on channel=13 note=81 velocity=0 time=0@note_on channel=13 note=85 velocity=100 time=0@note_on channel=13 note=73 velocity=100 time=0@note_on channel=14 note=57 velocity=0 time=0@note_on channel=14 note=57 velocity=100 time=0@note_on channel=13 note=73 velocity=0 time=0.20689649999999998@note_on channel=13 note=85 velocity=0 time=0@note_on channel=13 note=81 velocity=100 time=0@note_on channel=13 note=69 velocity=100 time=0@note_on channel=14 note=57 velocity=0 time=0@note_on channel=14 note=57 velocity=100 time=0@note_on channel=13 note=69 velocity=0 time=0.20689649999999998@note_on channel=13 note=81 velocity=0 time=0@note_on channel=13 note=85 velocity=100 time=0@note_on channel=13 note=73 velocity=100 time=0@note_on channel=14 note=57 velocity=0 time=0@note_on channel=14 note=57 velocity=100 time=0@note_on channel=13 note=73 velocity=0 time=0.20689649999999998@note_on channel=13 note=85 velocity=0 time=0@note_on channel=13 note=81 velocity=100 time=0@note_on channel=13 note=69 velocity=100 time=0@note_on channel=14 note=57 velocity=0 time=0@note_on channel=14 note=57 velocity=100 time=0@note_on channel=13 note=69 velocity=0 time=0.20689649999999998@note_on channel=13 note=81 velocity=0 time=0@note_on channel=13 note=88 velocity=100 time=0@note_on channel=13 note=76 velocity=100 time=0@note_on channel=14 note=57 velocity=0 time=0@note_on channel=14 note=57 velocity=100 time=0@note_on channel=13 note=76 velocity=0 time=0.20689649999999998@note_on channel=13 note=88 velocity=0 time=0@note_on channel=13 note=81 velocity=100 time=0@note_on channel=13 note=69 velocity=100 time=0@note_on channel=14 note=57 velocity=0 time=0@note_on channel=14 note=45 velocity=100 time=0@note_on channel=13 note=69 velocity=0 time=0.41379299999999997@note_on channel=13 note=81 velocity=0 time=0@note_on channel=13 note=81 velocity=100 time=0@note_on channel=13 note=76 velocity=100 time=0@note_on channel=13 note=73 velocity=100 time=0@note_on channel=13 note=69 velocity=100 time=0@note_on channel=14 note=45 velocity=0 time=0@note_on channel=14 note=57 velocity=100 time=0@note_on channel=14 note=52 velocity=100 time=0@note_on channel=14 note=49 velocity=100 time=0@note_on channel=14 note=45 velocity=100 time=0@note_on channel=13 note=69 velocity=0 time=0.41379299999999997@note_on channel=13 note=81 velocity=0 time=0@note_on channel=13 note=76 velocity=0 time=0@note_on channel=13 note=73 velocity=0 time=0@note_on channel=13 note=81 velocity=100 time=0@note_on channel=13 note=76 velocity=100 time=0@note_on channel=13 note=73 velocity=100 time=0@note_on channel=13 note=69 velocity=100 time=0@note_on channel=14 note=45 velocity=0 time=0@note_on channel=14 note=57 velocity=0 time=0@note_on channel=14 note=52 velocity=0 time=0@note_on channel=14 note=49 velocity=0 time=0@note_on channel=14 note=57 velocity=100 time=0@note_on channel=14 note=52 velocity=100 time=0@note_on channel=14 note=49 velocity=100 time=0@note_on channel=14 note=45 velocity=100 time=0@note_on channel=13 note=69 velocity=0 time=0.41379299999999997@note_on channel=13 note=81 velocity=0 time=0@note_on channel=13 note=76 velocity=0 time=0@note_on channel=13 note=73 velocity=0 time=0@note_on channel=14 note=45 velocity=0 time=0@note_on channel=14 note=57 velocity=0 time=0@note_on channel=14 note=52 velocity=0 time=0@note_on channel=14 note=49 velocity=0 time=0@<meta message end_of_track time=0>@