<meta message time_signature numerator=4 denominator=4 clocks_per_click=24 notated_32nd_notes_per_beat=8 time=0>@<meta message key_signature key='C' time=0>@<meta message set_tempo tempo=375000 time=0>@<meta message midi_port port=0 time=0>@program_change channel=0 program=100 time=0@control_change channel=0 control=7 value=100 time=0@control_change channel=0 control=10 value=64 time=0@control_change channel=0 control=91 value=0 time=0@control_change channel=0 control=93 value=0 time=0@<meta message midi_port port=0 time=0>@program_change channel=1 program=87 time=0@control_change channel=1 control=7 value=100 time=0@control_change channel=1 control=10 value=64 time=0@control_change channel=1 control=91 value=0 time=0@control_change channel=1 control=93 value=0 time=0@note_on channel=1 note=50 velocity=100 time=0@<meta message midi_port port=0 time=0>@program_change channel=2 program=98 time=0@control_change channel=2 control=7 value=100 time=0@control_change channel=2 control=10 value=64 time=0@control_change channel=2 control=91 value=0 time=0@control_change channel=2 control=93 value=0 time=0@<meta message midi_port port=0 time=0>@control_change channel=3 control=7 value=100 time=0@control_change channel=3 control=10 value=64 time=0@control_change channel=3 control=0 value=8 time=0@program_change channel=3 program=48 time=0@control_change channel=3 control=91 value=0 time=0@control_change channel=3 control=93 value=0 time=0@<meta message midi_port port=0 time=0>@program_change channel=4 program=47 time=0@control_change channel=4 control=7 value=100 time=0@control_change channel=4 control=10 value=64 time=0@control_change channel=4 control=91 value=0 time=0@control_change channel=4 control=93 value=0 time=0@<meta message midi_port port=0 time=0>@program_change channel=5 program=55 time=0@control_change channel=5 control=7 value=100 time=0@control_change channel=5 control=10 value=64 time=0@control_change channel=5 control=91 value=0 time=0@control_change channel=5 control=93 value=0 time=0@<meta message midi_port port=0 time=0>@program_change channel=6 program=43 time=0@control_change channel=6 control=7 value=100 time=0@control_change channel=6 control=10 value=64 time=0@control_change channel=6 control=91 value=0 time=0@control_change channel=6 control=93 value=0 time=0@note_on channel=0 note=62 velocity=100 time=1.125@note_on channel=0 note=62 velocity=0 time=0.375@note_on channel=0 note=67 velocity=100 time=0@note_on channel=1 note=50 velocity=0 time=0@note_on channel=1 note=50 velocity=100 time=0@note_on channel=1 note=55 velocity=100 time=0@note_on channel=0 note=67 velocity=0 time=1.03125@note_on channel=0 note=67 velocity=100 time=0@note_on channel=0 note=67 velocity=0 time=0.09375@note_on channel=0 note=71 velocity=100 time=0@note_on channel=0 note=71 velocity=0 time=0.28125@note_on channel=0 note=72 velocity=100 time=0@note_on channel=0 note=72 velocity=0 time=0.09375@note_on channel=0 note=74 velocity=100 time=0@note_on channel=1 note=55 velocity=0 time=0@note_on channel=1 note=50 velocity=0 time=0@note_on channel=1 note=55 velocity=100 time=0@note_on channel=2 note=62 velocity=100 time=0.28125@note_on channel=2 note=62 velocity=0 time=0.09375@note_on channel=2 note=62 velocity=100 time=0@note_on channel=2 note=62 velocity=0 time=0.28125@note_on channel=2 note=62 velocity=100 time=0@note_on channel=2 note=62 velocity=0 time=0.09375@note_on channel=2 note=62 velocity=100 time=0@note_on channel=2 note=62 velocity=0 time=0.28125@note_on channel=2 note=62 velocity=100 time=0@note_on channel=0 note=74 velocity=0 time=0.09375@note_on channel=0 note=74 velocity=100 time=0@note_on channel=2 note=62 velocity=0 time=0@note_on channel=0 note=74 velocity=0 time=0.375@note_on channel=0 note=76 velocity=100 time=0@note_on channel=1 note=55 velocity=0 time=0@note_on channel=1 note=52 velocity=100 time=0@note_on channel=0 note=76 velocity=0 time=1.03125@note_on channel=0 note=74 velocity=100 time=0@note_on channel=0 note=74 velocity=0 time=0.09375@note_on channel=0 note=72 velocity=100 time=0@note_on channel=0 note=72 velocity=0 time=0.28125@note_on channel=0 note=76 velocity=100 time=0@note_on channel=0 note=76 velocity=0 time=0.09375@note_on channel=0 note=74 velocity=100 time=0@note_on channel=1 note=52 velocity=0 time=0@note_on channel=1 note=55 velocity=100 time=0@note_on channel=2 note=62 velocity=100 time=0.28125@note_on channel=2 note=62 velocity=0 time=0.09375@note_on channel=2 note=62 velocity=100 time=0@note_on channel=2 note=62 velocity=0 time=0.28125@note_on channel=2 note=62 velocity=100 time=0@note_on channel=2 note=62 velocity=0 time=0.09375@note_on channel=2 note=62 velocity=100 time=0@note_on channel=2 note=62 velocity=0 time=0.28125@note_on channel=2 note=62 velocity=100 time=0@note_on channel=0 note=74 velocity=0 time=0.09375@note_on channel=0 note=74 velocity=100 time=0@note_on channel=2 note=62 velocity=0 time=0@note_on channel=0 note=74 velocity=0 time=0.375@note_on channel=0 note=79 velocity=100 time=0@note_on channel=1 note=55 velocity=0 time=0@note_on channel=1 note=55 velocity=100 time=0@note_on channel=1 note=50 velocity=100 time=0@note_on channel=0 note=79 velocity=0 time=1.03125@note_on channel=0 note=67 velocity=100 time=0@note_on channel=0 note=67 velocity=0 time=0.09375@note_on channel=0 note=71 velocity=100 time=0@note_on channel=0 note=71 velocity=0 time=0.28125@note_on channel=0 note=72 velocity=100 time=0@note_on channel=0 note=72 velocity=0 time=0.09375@note_on channel=0 note=74 velocity=100 time=0@note_on channel=1 note=50 velocity=0 time=0@note_on channel=1 note=55 velocity=0 time=0@note_on channel=1 note=55 velocity=100 time=0@note_on channel=2 note=62 velocity=100 time=0.28125@note_on channel=2 note=62 velocity=0 time=0.09375@note_on channel=2 note=62 velocity=100 time=0@note_on channel=2 note=62 velocity=0 time=0.28125@note_on channel=2 note=62 velocity=100 time=0@note_on channel=2 note=62 velocity=0 time=0.09375@note_on channel=2 note=62 velocity=100 time=0@note_on channel=2 note=62 velocity=0 time=0.28125@note_on channel=2 note=62 velocity=100 time=0@note_on channel=0 note=74 velocity=0 time=0.09375@note_on channel=0 note=74 velocity=100 time=0@note_on channel=2 note=62 velocity=0 time=0@note_on channel=0 note=74 velocity=0 time=0.375@note_on channel=0 note=72 velocity=100 time=0@note_on channel=1 note=55 velocity=0 time=0@note_on channel=1 note=57 velocity=100 time=0@note_on channel=0 note=72 velocity=0 time=1.03125@note_on channel=0 note=71 velocity=100 time=0@note_on channel=0 note=71 velocity=0 time=0.09375@note_on channel=0 note=69 velocity=100 time=0@note_on channel=0 note=69 velocity=0 time=0.28125@note_on channel=0 note=67 velocity=100 time=0@note_on channel=0 note=67 velocity=0 time=0.09375@note_on channel=0 note=69 velocity=100 time=0@note_on channel=1 note=57 velocity=0 time=0@note_on channel=1 note=53 velocity=100 time=0@note_on channel=1 note=50 velocity=100 time=0@note_on channel=2 note=62 velocity=100 time=0.28125@note_on channel=4 note=50 velocity=100 time=0@note_on channel=2 note=62 velocity=0 time=0.09375@note_on channel=2 note=62 velocity=100 time=0@note_on channel=4 note=50 velocity=0 time=0@note_on channel=4 note=50 velocity=100 time=0@note_on channel=2 note=62 velocity=0 time=0.28125@note_on channel=2 note=62 velocity=100 time=0@note_on channel=4 note=50 velocity=0 time=0@note_on channel=4 note=50 velocity=100 time=0@note_on channel=2 note=62 velocity=0 time=0.09375@note_on channel=2 note=62 velocity=100 time=0@note_on channel=4 note=50 velocity=0 time=0@note_on channel=4 note=50 velocity=100 time=0@note_on channel=2 note=62 velocity=0 time=0.28125@note_on channel=2 note=62 velocity=100 time=0@note_on channel=4 note=50 velocity=0 time=0@note_on channel=4 note=50 velocity=100 time=0@note_on channel=0 note=69 velocity=0 time=0.09375@note_on channel=0 note=67 velocity=100 time=0@note_on channel=1 note=53 velocity=0 time=0@note_on channel=2 note=62 velocity=0 time=0@note_on channel=4 note=50 velocity=0 time=0@note_on channel=0 note=67 velocity=0 time=0.375@note_on channel=0 note=67 velocity=100 time=0@note_on channel=1 note=50 velocity=0 time=0@note_on channel=1 note=50 velocity=100 time=0@note_on channel=1 note=55 velocity=100 time=0@note_on channel=0 note=67 velocity=0 time=1.03125@note_on channel=0 note=67 velocity=100 time=0@note_on channel=0 note=67 velocity=0 time=0.09375@note_on channel=0 note=71 velocity=100 time=0@note_on channel=0 note=71 velocity=0 time=0.28125@note_on channel=0 note=72 velocity=100 time=0@note_on channel=0 note=72 velocity=0 time=0.09375@note_on channel=0 note=74 velocity=100 time=0@note_on channel=1 note=55 velocity=0 time=0@note_on channel=1 note=50 velocity=0 time=0@note_on channel=1 note=55 velocity=100 time=0@note_on channel=2 note=62 velocity=100 time=0.28125@note_on channel=2 note=62 velocity=0 time=0.09375@note_on channel=2 note=62 velocity=100 time=0@note_on channel=2 note=62 velocity=0 time=0.28125@note_on channel=2 note=62 velocity=100 time=0@note_on channel=2 note=62 velocity=0 time=0.09375@note_on channel=2 note=62 velocity=100 time=0@note_on channel=2 note=62 velocity=0 time=0.28125@note_on channel=2 note=62 velocity=100 time=0@note_on channel=0 note=74 velocity=0 time=0.09375@note_on channel=0 note=74 velocity=100 time=0@note_on channel=2 note=62 velocity=0 time=0@note_on channel=0 note=74 velocity=0 time=0.375@note_on channel=0 note=76 velocity=100 time=0@note_on channel=1 note=55 velocity=0 time=0@note_on channel=1 note=52 velocity=100 time=0@note_on channel=0 note=76 velocity=0 time=1.03125@note_on channel=0 note=74 velocity=100 time=0@note_on channel=0 note=74 velocity=0 time=0.09375@note_on channel=0 note=72 velocity=100 time=0@note_on channel=0 note=72 velocity=0 time=0.28125@note_on channel=0 note=76 velocity=100 time=0@note_on channel=0 note=76 velocity=0 time=0.09375@note_on channel=0 note=74 velocity=100 time=0@note_on channel=1 note=52 velocity=0 time=0@note_on channel=1 note=55 velocity=100 time=0@note_on channel=2 note=62 velocity=100 time=0.28125@note_on channel=2 note=62 velocity=0 time=0.09375@note_on channel=2 note=62 velocity=100 time=0@note_on channel=2 note=62 velocity=0 time=0.28125@note_on channel=2 note=62 velocity=100 time=0@note_on channel=2 note=62 velocity=0 time=0.09375@note_on channel=2 note=62 velocity=100 time=0@note_on channel=2 note=62 velocity=0 time=0.28125@note_on channel=2 note=62 velocity=100 time=0@note_on channel=0 note=74 velocity=0 time=0.09375@note_on channel=0 note=74 velocity=100 time=0@note_on channel=2 note=62 velocity=0 time=0@note_on channel=0 note=74 velocity=0 time=0.375@note_on channel=0 note=79 velocity=100 time=0@note_on channel=1 note=55 velocity=0 time=0@note_on channel=1 note=55 velocity=100 time=0@note_on channel=1 note=50 velocity=100 time=0@note_on channel=0 note=79 velocity=0 time=1.03125@note_on channel=0 note=67 velocity=100 time=0@note_on channel=0 note=67 velocity=0 time=0.09375@note_on channel=0 note=71 velocity=100 time=0@note_on channel=0 note=71 velocity=0 time=0.28125@note_on channel=0 note=72 velocity=100 time=0@note_on channel=0 note=72 velocity=0 time=0.09375@note_on channel=0 note=74 velocity=100 time=0@note_on channel=1 note=50 velocity=0 time=0@note_on channel=1 note=55 velocity=0 time=0@note_on channel=1 note=55 velocity=100 time=0@note_on channel=2 note=62 velocity=100 time=0.28125@note_on channel=2 note=62 velocity=0 time=0.09375@note_on channel=2 note=62 velocity=100 time=0@note_on channel=2 note=62 velocity=0 time=0.28125@note_on channel=2 note=62 velocity=100 time=0@note_on channel=2 note=62 velocity=0 time=0.09375@note_on channel=2 note=62 velocity=100 time=0@note_on channel=2 note=62 velocity=0 time=0.28125@note_on channel=2 note=62 velocity=100 time=0@note_on channel=0 note=74 velocity=0 time=0.09375@note_on channel=0 note=74 velocity=100 time=0@note_on channel=2 note=62 velocity=0 time=0@note_on channel=0 note=74 velocity=0 time=0.375@note_on channel=0 note=72 velocity=100 time=0@note_on channel=1 note=55 velocity=0 time=0@note_on channel=1 note=57 velocity=100 time=0@note_on channel=0 note=72 velocity=0 time=1.03125@note_on channel=0 note=71 velocity=100 time=0@note_on channel=0 note=71 velocity=0 time=0.09375@note_on channel=0 note=69 velocity=100 time=0@note_on channel=0 note=69 velocity=0 time=0.28125@note_on channel=0 note=62 velocity=100 time=0@note_on channel=0 note=62 velocity=0 time=0.09375@note_on channel=0 note=67 velocity=100 time=0@note_on channel=1 note=57 velocity=0 time=0@note_on channel=1 note=43 velocity=100 time=0@note_on channel=1 note=50 velocity=100 time=0@note_on channel=1 note=59 velocity=100 time=0@note_on channel=6 note=50 velocity=100 time=0@note_on channel=2 note=67 velocity=100 time=0.28125@note_on channel=2 note=67 velocity=0 time=0.09375@note_on channel=2 note=67 velocity=100 time=0@note_on channel=2 note=67 velocity=0 time=0.28125@note_on channel=2 note=67 velocity=100 time=0@note_on channel=2 note=67 velocity=0 time=0.09375@note_on channel=2 note=67 velocity=100 time=0@note_on channel=0 note=67 velocity=0 time=0.375@note_on channel=0 note=67 velocity=100 time=0@note_on channel=2 note=67 velocity=0 time=0@note_on channel=3 note=62 velocity=100 time=0@note_on channel=0 note=67 velocity=0 time=0.375@note_on channel=0 note=67 velocity=100 time=0@note_on channel=1 note=59 velocity=0 time=0@note_on channel=1 note=50 velocity=0 time=0@note_on channel=1 note=43 velocity=0 time=0@note_on channel=1 note=50 velocity=100 time=0@note_on channel=1 note=55 velocity=100 time=0@note_on channel=3 note=62 velocity=0 time=0@note_on channel=3 note=67 velocity=100 time=0@note_on channel=5 note=67 velocity=100 time=0@note_on channel=6 note=50 velocity=0 time=0@note_on channel=6 note=50 velocity=100 time=0@note_on channel=6 note=55 velocity=100 time=0@note_on channel=0 note=67 velocity=0 time=1.03125@note_on channel=0 note=67 velocity=100 time=0@note_on channel=3 note=67 velocity=0 time=0@note_on channel=3 note=67 velocity=100 time=0@note_on channel=0 note=67 velocity=0 time=0.09375@note_on channel=0 note=71 velocity=100 time=0@note_on channel=3 note=67 velocity=0 time=0@note_on channel=3 note=71 velocity=100 time=0@note_on channel=5 note=67 velocity=0 time=0@note_on channel=0 note=71 velocity=0 time=0.28125@note_on channel=0 note=72 velocity=100 time=0@note_on channel=3 note=71 velocity=0 time=0@note_on channel=3 note=72 velocity=100 time=0@note_on channel=0 note=72 velocity=0 time=0.09375@note_on channel=0 note=74 velocity=100 time=0@note_on channel=1 note=55 velocity=0 time=0@note_on channel=1 note=50 velocity=0 time=0@note_on channel=1 note=55 velocity=100 time=0@note_on channel=3 note=72 velocity=0 time=0@note_on channel=3 note=74 velocity=100 time=0@note_on channel=5 note=74 velocity=100 time=0@note_on channel=6 note=55 velocity=0 time=0@note_on channel=6 note=50 velocity=0 time=0@note_on channel=6 note=55 velocity=100 time=0@note_on channel=2 note=62 velocity=100 time=0.28125@note_on channel=2 note=62 velocity=0 time=0.09375@note_on channel=2 note=62 velocity=100 time=0@note_on channel=2 note=62 velocity=0 time=0.28125@note_on channel=2 note=62 velocity=100 time=0@note_on channel=2 note=62 velocity=0 time=0.09375@note_on channel=2 note=62 velocity=100 time=0@note_on channel=2 note=62 velocity=0 time=0.28125@note_on channel=2 note=62 velocity=100 time=0@note_on channel=0 note=74 velocity=0 time=0.09375@note_on channel=0 note=74 velocity=100 time=0@note_on channel=2 note=62 velocity=0 time=0@note_on channel=3 note=74 velocity=0 time=0@note_on channel=3 note=74 velocity=100 time=0@note_on channel=5 note=74 velocity=0 time=0@note_on channel=0 note=74 velocity=0 time=0.375@note_on channel=0 note=76 velocity=100 time=0@note_on channel=1 note=55 velocity=0 time=0@note_on channel=1 note=52 velocity=100 time=0@note_on channel=3 note=74 velocity=0 time=0@note_on channel=3 note=76 velocity=100 time=0@note_on channel=5 note=76 velocity=100 time=0@note_on channel=6 note=55 velocity=0 time=0@note_on channel=6 note=52 velocity=100 time=0@note_on channel=0 note=76 velocity=0 time=1.03125@note_on channel=0 note=74 velocity=100 time=0@note_on channel=3 note=76 velocity=0 time=0@note_on channel=3 note=74 velocity=100 time=0@note_on channel=0 note=74 velocity=0 time=0.09375@note_on channel=0 note=72 velocity=100 time=0@note_on channel=3 note=74 velocity=0 time=0@note_on channel=3 note=72 velocity=100 time=0@note_on channel=5 note=76 velocity=0 time=0@note_on channel=0 note=72 velocity=0 time=0.28125@note_on channel=0 note=76 velocity=100 time=0@note_on channel=3 note=72 velocity=0 time=0@note_on channel=3 note=76 velocity=100 time=0@note_on channel=0 note=76 velocity=0 time=0.09375@note_on channel=0 note=74 velocity=100 time=0@note_on channel=1 note=52 velocity=0 time=0@note_on channel=1 note=55 velocity=100 time=0@note_on channel=3 note=76 velocity=0 time=0@note_on channel=3 note=74 velocity=100 time=0@note_on channel=5 note=74 velocity=100 time=0@note_on channel=6 note=52 velocity=0 time=0@note_on channel=6 note=55 velocity=100 time=0@note_on channel=2 note=62 velocity=100 time=0.28125@note_on channel=2 note=62 velocity=0 time=0.09375@note_on channel=2 note=62 velocity=100 time=0@note_on channel=2 note=62 velocity=0 time=0.28125@note_on channel=2 note=62 velocity=100 time=0@note_on channel=2 note=62 velocity=0 time=0.09375@note_on channel=2 note=62 velocity=100 time=0@note_on channel=2 note=62 velocity=0 time=0.28125@note_on channel=2 note=62 velocity=100 time=0@note_on channel=0 note=74 velocity=0 time=0.09375@note_on channel=0 note=74 velocity=100 time=0@note_on channel=2 note=62 velocity=0 time=0@note_on channel=3 note=74 velocity=0 time=0@note_on channel=3 note=74 velocity=100 time=0@note_on channel=5 note=74 velocity=0 time=0@note_on channel=0 note=74 velocity=0 time=0.375@note_on channel=0 note=79 velocity=100 time=0@note_on channel=1 note=55 velocity=0 time=0@note_on channel=1 note=55 velocity=100 time=0@note_on channel=1 note=50 velocity=100 time=0@note_on channel=3 note=74 velocity=0 time=0@note_on channel=3 note=79 velocity=100 time=0@note_on channel=5 note=79 velocity=100 time=0@note_on channel=6 note=55 velocity=0 time=0@note_on channel=6 note=55 velocity=100 time=0@note_on channel=6 note=50 velocity=100 time=0@note_on channel=0 note=79 velocity=0 time=1.03125@note_on channel=0 note=67 velocity=100 time=0@note_on channel=3 note=79 velocity=0 time=0@note_on channel=3 note=67 velocity=100 time=0@note_on channel=0 note=67 velocity=0 time=0.09375@note_on channel=0 note=71 velocity=100 time=0@note_on channel=3 note=67 velocity=0 time=0@note_on channel=3 note=71 velocity=100 time=0@note_on channel=5 note=79 velocity=0 time=0@note_on channel=0 note=71 velocity=0 time=0.28125@note_on channel=0 note=72 velocity=100 time=0@note_on channel=3 note=71 velocity=0 time=0@note_on channel=3 note=72 velocity=100 time=0@note_on channel=0 note=72 velocity=0 time=0.09375@note_on channel=0 note=74 velocity=100 time=0@note_on channel=1 note=50 velocity=0 time=0@note_on channel=1 note=55 velocity=0 time=0@note_on channel=1 note=55 velocity=100 time=0@note_on channel=3 note=72 velocity=0 time=0@note_on channel=3 note=74 velocity=100 time=0@note_on channel=5 note=74 velocity=100 time=0@note_on channel=6 note=50 velocity=0 time=0@note_on channel=6 note=55 velocity=0 time=0@note_on channel=6 note=55 velocity=100 time=0@note_on channel=2 note=62 velocity=100 time=0.28125@note_on channel=2 note=62 velocity=0 time=0.09375@note_on channel=2 note=62 velocity=100 time=0@note_on channel=2 note=62 velocity=0 time=0.28125@note_on channel=2 note=62 velocity=100 time=0@note_on channel=2 note=62 velocity=0 time=0.09375@note_on channel=2 note=62 velocity=100 time=0@note_on channel=2 note=62 velocity=0 time=0.28125@note_on channel=2 note=62 velocity=100 time=0@note_on channel=0 note=74 velocity=0 time=0.09375@note_on channel=0 note=74 velocity=100 time=0@note_on channel=2 note=62 velocity=0 time=0@note_on channel=3 note=74 velocity=0 time=0@note_on channel=3 note=74 velocity=100 time=0@note_on channel=5 note=74 velocity=0 time=0@note_on channel=0 note=74 velocity=0 time=0.375@note_on channel=0 note=72 velocity=100 time=0@note_on channel=1 note=55 velocity=0 time=0@note_on channel=1 note=57 velocity=100 time=0@note_on channel=3 note=74 velocity=0 time=0@note_on channel=3 note=72 velocity=100 time=0@note_on channel=5 note=72 velocity=100 time=0@note_on channel=6 note=55 velocity=0 time=0@note_on channel=6 note=57 velocity=100 time=0@note_on channel=0 note=72 velocity=0 time=1.03125@note_on channel=0 note=71 velocity=100 time=0@note_on channel=3 note=72 velocity=0 time=0@note_on channel=3 note=71 velocity=100 time=0@note_on channel=0 note=71 velocity=0 time=0.09375@note_on channel=0 note=69 velocity=100 time=0@note_on channel=3 note=71 velocity=0 time=0@note_on channel=3 note=69 velocity=100 time=0@note_on channel=5 note=72 velocity=0 time=0@note_on channel=0 note=69 velocity=0 time=0.28125@note_on channel=0 note=67 velocity=100 time=0@note_on channel=3 note=69 velocity=0 time=0@note_on channel=3 note=67 velocity=100 time=0@note_on channel=0 note=67 velocity=0 time=0.09375@note_on channel=0 note=69 velocity=100 time=0@note_on channel=1 note=57 velocity=0 time=0@note_on channel=1 note=53 velocity=100 time=0@note_on channel=1 note=50 velocity=100 time=0@note_on channel=3 note=67 velocity=0 time=0@note_on channel=3 note=69 velocity=100 time=0@note_on channel=5 note=69 velocity=100 time=0@note_on channel=6 note=57 velocity=0 time=0@note_on channel=6 note=53 velocity=100 time=0@note_on channel=6 note=50 velocity=100 time=0@note_on channel=2 note=62 velocity=100 time=0.28125@note_on channel=4 note=50 velocity=100 time=0@note_on channel=2 note=62 velocity=0 time=0.09375@note_on channel=2 note=62 velocity=100 time=0@note_on channel=4 note=50 velocity=0 time=0@note_on channel=4 note=50 velocity=100 time=0@note_on channel=2 note=62 velocity=0 time=0.28125@note_on channel=2 note=62 velocity=100 time=0@note_on channel=4 note=50 velocity=0 time=0@note_on channel=4 note=50 velocity=100 time=0@note_on channel=2 note=62 velocity=0 time=0.09375@note_on channel=2 note=62 velocity=100 time=0@note_on channel=4 note=50 velocity=0 time=0@note_on channel=4 note=50 velocity=100 time=0@note_on channel=2 note=62 velocity=0 time=0.28125@note_on channel=2 note=62 velocity=100 time=0@note_on channel=4 note=50 velocity=0 time=0@note_on channel=4 note=50 velocity=100 time=0@note_on channel=0 note=69 velocity=0 time=0.09375@note_on channel=0 note=67 velocity=100 time=0@note_on channel=1 note=53 velocity=0 time=0@note_on channel=2 note=62 velocity=0 time=0@note_on channel=3 note=69 velocity=0 time=0@note_on channel=3 note=67 velocity=100 time=0@note_on channel=4 note=50 velocity=0 time=0@note_on channel=5 note=69 velocity=0 time=0@note_on channel=5 note=67 velocity=100 time=0@note_on channel=6 note=53 velocity=0 time=0@note_on channel=0 note=67 velocity=0 time=0.375@note_on channel=0 note=67 velocity=100 time=0@note_on channel=1 note=50 velocity=0 time=0@note_on channel=1 note=50 velocity=100 time=0@note_on channel=1 note=55 velocity=100 time=0@note_on channel=3 note=67 velocity=0 time=0@note_on channel=3 note=67 velocity=100 time=0@note_on channel=5 note=67 velocity=0 time=0@note_on channel=5 note=67 velocity=100 time=0@note_on channel=6 note=50 velocity=0 time=0@note_on channel=6 note=50 velocity=100 time=0@note_on channel=6 note=55 velocity=100 time=0@note_on channel=0 note=67 velocity=0 time=1.03125@note_on channel=0 note=67 velocity=100 time=0@note_on channel=3 note=67 velocity=0 time=0@note_on channel=3 note=67 velocity=100 time=0@note_on channel=0 note=67 velocity=0 time=0.09375@note_on channel=0 note=71 velocity=100 time=0@note_on channel=3 note=67 velocity=0 time=0@note_on channel=3 note=71 velocity=100 time=0@note_on channel=5 note=67 velocity=0 time=0@note_on channel=0 note=71 velocity=0 time=0.28125@note_on channel=0 note=72 velocity=100 time=0@note_on channel=3 note=71 velocity=0 time=0@note_on channel=3 note=72 velocity=100 time=0@note_on channel=0 note=72 velocity=0 time=0.09375@note_on channel=0 note=74 velocity=100 time=0@note_on channel=1 note=55 velocity=0 time=0@note_on channel=1 note=50 velocity=0 time=0@note_on channel=1 note=55 velocity=100 time=0@note_on channel=3 note=72 velocity=0 time=0@note_on channel=3 note=74 velocity=100 time=0@note_on channel=5 note=74 velocity=100 time=0@note_on channel=6 note=55 velocity=0 time=0@note_on channel=6 note=50 velocity=0 time=0@note_on channel=6 note=55 velocity=100 time=0@note_on channel=2 note=62 velocity=100 time=0.28125@note_on channel=2 note=62 velocity=0 time=0.09375@note_on channel=2 note=62 velocity=100 time=0@note_on channel=2 note=62 velocity=0 time=0.28125@note_on channel=2 note=62 velocity=100 time=0@note_on channel=2 note=62 velocity=0 time=0.09375@note_on channel=2 note=62 velocity=100 time=0@note_on channel=2 note=62 velocity=0 time=0.28125@note_on channel=2 note=62 velocity=100 time=0@note_on channel=0 note=74 velocity=0 time=0.09375@note_on channel=0 note=74 velocity=100 time=0@note_on channel=2 note=62 velocity=0 time=0@note_on channel=3 note=74 velocity=0 time=0@note_on channel=3 note=74 velocity=100 time=0@note_on channel=5 note=74 velocity=0 time=0@note_on channel=0 note=74 velocity=0 time=0.375@note_on channel=0 note=76 velocity=100 time=0@note_on channel=1 note=55 velocity=0 time=0@note_on channel=1 note=52 velocity=100 time=0@note_on channel=3 note=74 velocity=0 time=0@note_on channel=3 note=76 velocity=100 time=0@note_on channel=5 note=76 velocity=100 time=0@note_on channel=6 note=55 velocity=0 time=0@note_on channel=6 note=52 velocity=100 time=0@note_on channel=0 note=76 velocity=0 time=1.03125@note_on channel=0 note=74 velocity=100 time=0@note_on channel=3 note=76 velocity=0 time=0@note_on channel=3 note=74 velocity=100 time=0@note_on channel=0 note=74 velocity=0 time=0.09375@note_on channel=0 note=72 velocity=100 time=0@note_on channel=3 note=74 velocity=0 time=0@note_on channel=3 note=72 velocity=100 time=0@note_on channel=5 note=76 velocity=0 time=0@note_on channel=0 note=72 velocity=0 time=0.28125@note_on channel=0 note=76 velocity=100 time=0@note_on channel=3 note=72 velocity=0 time=0@note_on channel=3 note=76 velocity=100 time=0@note_on channel=0 note=76 velocity=0 time=0.09375@note_on channel=0 note=74 velocity=100 time=0@note_on channel=1 note=52 velocity=0 time=0@note_on channel=1 note=55 velocity=100 time=0@note_on channel=3 note=76 velocity=0 time=0@note_on channel=3 note=74 velocity=100 time=0@note_on channel=5 note=74 velocity=100 time=0@note_on channel=6 note=52 velocity=0 time=0@note_on channel=6 note=55 velocity=100 time=0@note_on channel=2 note=62 velocity=100 time=0.28125@note_on channel=2 note=62 velocity=0 time=0.09375@note_on channel=2 note=62 velocity=100 time=0@note_on channel=2 note=62 velocity=0 time=0.28125@note_on channel=2 note=62 velocity=100 time=0@note_on channel=2 note=62 velocity=0 time=0.09375@note_on channel=2 note=62 velocity=100 time=0@note_on channel=2 note=62 velocity=0 time=0.28125@note_on channel=2 note=62 velocity=100 time=0@note_on channel=0 note=74 velocity=0 time=0.09375@note_on channel=0 note=74 velocity=100 time=0@note_on channel=2 note=62 velocity=0 time=0@note_on channel=3 note=74 velocity=0 time=0@note_on channel=3 note=74 velocity=100 time=0@note_on channel=5 note=74 velocity=0 time=0@note_on channel=0 note=74 velocity=0 time=0.375@note_on channel=0 note=79 velocity=100 time=0@note_on channel=1 note=55 velocity=0 time=0@note_on channel=1 note=55 velocity=100 time=0@note_on channel=1 note=50 velocity=100 time=0@note_on channel=3 note=74 velocity=0 time=0@note_on channel=3 note=79 velocity=100 time=0@note_on channel=5 note=79 velocity=100 time=0@note_on channel=6 note=55 velocity=0 time=0@note_on channel=6 note=55 velocity=100 time=0@note_on channel=6 note=50 velocity=100 time=0@note_on channel=0 note=79 velocity=0 time=1.03125@note_on channel=0 note=67 velocity=100 time=0@note_on channel=3 note=79 velocity=0 time=0@note_on channel=3 note=67 velocity=100 time=0@note_on channel=0 note=67 velocity=0 time=0.09375@note_on channel=0 note=71 velocity=100 time=0@note_on channel=3 note=67 velocity=0 time=0@note_on channel=3 note=71 velocity=100 time=0@note_on channel=5 note=79 velocity=0 time=0@note_on channel=0 note=71 velocity=0 time=0.28125@note_on channel=0 note=72 velocity=100 time=0@note_on channel=3 note=71 velocity=0 time=0@note_on channel=3 note=72 velocity=100 time=0@note_on channel=0 note=72 velocity=0 time=0.09375@note_on channel=0 note=74 velocity=100 time=0@note_on channel=1 note=50 velocity=0 time=0@note_on channel=1 note=55 velocity=0 time=0@note_on channel=1 note=55 velocity=100 time=0@note_on channel=3 note=72 velocity=0 time=0@note_on channel=3 note=74 velocity=100 time=0@note_on channel=5 note=74 velocity=100 time=0@note_on channel=6 note=50 velocity=0 time=0@note_on channel=6 note=55 velocity=0 time=0@note_on channel=6 note=55 velocity=100 time=0@note_on channel=2 note=62 velocity=100 time=0.28125@note_on channel=2 note=62 velocity=0 time=0.09375@note_on channel=2 note=62 velocity=100 time=0@note_on channel=2 note=62 velocity=0 time=0.28125@note_on channel=2 note=62 velocity=100 time=0@note_on channel=2 note=62 velocity=0 time=0.09375@note_on channel=2 note=62 velocity=100 time=0@note_on channel=2 note=62 velocity=0 time=0.28125@note_on channel=2 note=62 velocity=100 time=0@note_on channel=0 note=74 velocity=0 time=0.09375@note_on channel=0 note=74 velocity=100 time=0@note_on channel=2 note=62 velocity=0 time=0@note_on channel=3 note=74 velocity=0 time=0@note_on channel=3 note=74 velocity=100 time=0@note_on channel=5 note=74 velocity=0 time=0@note_on channel=0 note=74 velocity=0 time=0.375@note_on channel=0 note=72 velocity=100 time=0@note_on channel=1 note=55 velocity=0 time=0@note_on channel=1 note=57 velocity=100 time=0@note_on channel=3 note=74 velocity=0 time=0@note_on channel=3 note=72 velocity=100 time=0@note_on channel=5 note=72 velocity=100 time=0@note_on channel=6 note=55 velocity=0 time=0@note_on channel=6 note=57 velocity=100 time=0@note_on channel=0 note=72 velocity=0 time=1.03125@note_on channel=0 note=71 velocity=100 time=0@note_on channel=3 note=72 velocity=0 time=0@note_on channel=3 note=71 velocity=100 time=0@note_on channel=0 note=71 velocity=0 time=0.09375@note_on channel=0 note=69 velocity=100 time=0@note_on channel=3 note=71 velocity=0 time=0@note_on channel=3 note=69 velocity=100 time=0@note_on channel=5 note=72 velocity=0 time=0@note_on channel=0 note=69 velocity=0 time=0.28125@note_on channel=0 note=62 velocity=100 time=0@note_on channel=3 note=69 velocity=0 time=0@note_on channel=3 note=62 velocity=100 time=0@note_on channel=0 note=62 velocity=0 time=0.09375@note_on channel=0 note=67 velocity=100 time=0@note_on channel=1 note=57 velocity=0 time=0@note_on channel=1 note=43 velocity=100 time=0@note_on channel=1 note=50 velocity=100 time=0@note_on channel=1 note=59 velocity=100 time=0@note_on channel=3 note=62 velocity=0 time=0@note_on channel=5 note=67 velocity=100 time=0@note_on channel=6 note=57 velocity=0 time=0@note_on channel=6 note=50 velocity=100 time=0@note_on channel=2 note=67 velocity=100 time=0.28125@note_on channel=2 note=67 velocity=0 time=0.09375@note_on channel=2 note=67 velocity=100 time=0@note_on channel=2 note=67 velocity=0 time=0.28125@note_on channel=2 note=67 velocity=100 time=0@note_on channel=2 note=67 velocity=0 time=0.09375@note_on channel=2 note=67 velocity=100 time=0@note_on channel=0 note=67 velocity=0 time=0.375@control_change channel=0 control=91 value=100 time=0@control_change channel=0 control=93 value=100 time=0@note_on channel=0 note=67 velocity=100 time=0@control_change channel=1 control=91 value=100 time=0@control_change channel=1 control=93 value=100 time=0@note_on channel=2 note=67 velocity=0 time=0@control_change channel=2 control=91 value=100 time=0@control_change channel=2 control=93 value=100 time=0@control_change channel=3 control=91 value=100 time=0@control_change channel=3 control=93 value=100 time=0@note_on channel=3 note=62 velocity=100 time=0@control_change channel=4 control=91 value=100 time=0@control_change channel=4 control=93 value=100 time=0@note_on channel=5 note=67 velocity=0 time=0@control_change channel=5 control=91 value=100 time=0@control_change channel=5 control=93 value=100 time=0@control_change channel=6 control=91 value=100 time=0@control_change channel=6 control=93 value=100 time=0@note_on channel=0 note=67 velocity=0 time=0.375@note_on channel=0 note=67 velocity=100 time=0@note_on channel=1 note=59 velocity=0 time=0@note_on channel=1 note=50 velocity=0 time=0@note_on channel=1 note=43 velocity=0 time=0@note_on channel=1 note=50 velocity=100 time=0@note_on channel=1 note=55 velocity=100 time=0@note_on channel=3 note=62 velocity=0 time=0@note_on channel=3 note=67 velocity=100 time=0@note_on channel=5 note=67 velocity=100 time=0@note_on channel=6 note=50 velocity=0 time=0@note_on channel=6 note=50 velocity=100 time=0@note_on channel=6 note=55 velocity=100 time=0@note_on channel=0 note=67 velocity=0 time=1.03125@note_on channel=0 note=67 velocity=100 time=0@note_on channel=3 note=67 velocity=0 time=0@note_on channel=3 note=67 velocity=100 time=0@note_on channel=0 note=67 velocity=0 time=0.09375@note_on channel=0 note=71 velocity=100 time=0@note_on channel=3 note=67 velocity=0 time=0@note_on channel=3 note=71 velocity=100 time=0@note_on channel=5 note=67 velocity=0 time=0@note_on channel=0 note=71 velocity=0 time=0.28125@note_on channel=0 note=72 velocity=100 time=0@note_on channel=3 note=71 velocity=0 time=0@note_on channel=3 note=72 velocity=100 time=0@note_on channel=0 note=72 velocity=0 time=0.09375@note_on channel=0 note=74 velocity=100 time=0@note_on channel=1 note=55 velocity=0 time=0@note_on channel=1 note=50 velocity=0 time=0@note_on channel=1 note=55 velocity=100 time=0@note_on channel=3 note=72 velocity=0 time=0@note_on channel=3 note=74 velocity=100 time=0@note_on channel=5 note=74 velocity=100 time=0@note_on channel=6 note=55 velocity=0 time=0@note_on channel=6 note=50 velocity=0 time=0@note_on channel=6 note=55 velocity=100 time=0@note_on channel=2 note=62 velocity=100 time=0.28125@note_on channel=2 note=62 velocity=0 time=0.09375@note_on channel=2 note=62 velocity=100 time=0@note_on channel=2 note=62 velocity=0 time=0.28125@note_on channel=2 note=62 velocity=100 time=0@note_on channel=2 note=62 velocity=0 time=0.09375@note_on channel=2 note=62 velocity=100 time=0@note_on channel=2 note=62 velocity=0 time=0.28125@note_on channel=2 note=62 velocity=100 time=0@note_on channel=0 note=74 velocity=0 time=0.09375@note_on channel=0 note=74 velocity=100 time=0@note_on channel=2 note=62 velocity=0 time=0@note_on channel=3 note=74 velocity=0 time=0@note_on channel=3 note=74 velocity=100 time=0@note_on channel=5 note=74 velocity=0 time=0@note_on channel=0 note=74 velocity=0 time=0.375@note_on channel=0 note=76 velocity=100 time=0@note_on channel=1 note=55 velocity=0 time=0@note_on channel=1 note=52 velocity=100 time=0@note_on channel=3 note=74 velocity=0 time=0@note_on channel=3 note=76 velocity=100 time=0@note_on channel=5 note=76 velocity=100 time=0@note_on channel=6 note=55 velocity=0 time=0@note_on channel=6 note=52 velocity=100 time=0@note_on channel=0 note=76 velocity=0 time=1.03125@note_on channel=0 note=74 velocity=100 time=0@note_on channel=3 note=76 velocity=0 time=0@note_on channel=3 note=74 velocity=100 time=0@note_on channel=0 note=74 velocity=0 time=0.09375@note_on channel=0 note=72 velocity=100 time=0@note_on channel=3 note=74 velocity=0 time=0@note_on channel=3 note=72 velocity=100 time=0@note_on channel=5 note=76 velocity=0 time=0@note_on channel=0 note=72 velocity=0 time=0.28125@note_on channel=0 note=76 velocity=100 time=0@note_on channel=3 note=72 velocity=0 time=0@note_on channel=3 note=76 velocity=100 time=0@note_on channel=0 note=76 velocity=0 time=0.09375@note_on channel=0 note=74 velocity=100 time=0@note_on channel=1 note=52 velocity=0 time=0@note_on channel=1 note=55 velocity=100 time=0@note_on channel=3 note=76 velocity=0 time=0@note_on channel=3 note=74 velocity=100 time=0@note_on channel=5 note=74 velocity=100 time=0@note_on channel=6 note=52 velocity=0 time=0@note_on channel=6 note=55 velocity=100 time=0@note_on channel=2 note=62 velocity=100 time=0.28125@note_on channel=2 note=62 velocity=0 time=0.09375@note_on channel=2 note=62 velocity=100 time=0@note_on channel=2 note=62 velocity=0 time=0.28125@note_on channel=2 note=62 velocity=100 time=0@note_on channel=2 note=62 velocity=0 time=0.09375@note_on channel=2 note=62 velocity=100 time=0@note_on channel=2 note=62 velocity=0 time=0.28125@note_on channel=2 note=62 velocity=100 time=0@note_on channel=0 note=74 velocity=0 time=0.09375@note_on channel=0 note=74 velocity=100 time=0@note_on channel=2 note=62 velocity=0 time=0@note_on channel=3 note=74 velocity=0 time=0@note_on channel=3 note=74 velocity=100 time=0@note_on channel=5 note=74 velocity=0 time=0@note_on channel=0 note=74 velocity=0 time=0.375@note_on channel=0 note=79 velocity=100 time=0@note_on channel=1 note=55 velocity=0 time=0@note_on channel=1 note=55 velocity=100 time=0@note_on channel=1 note=50 velocity=100 time=0@note_on channel=3 note=74 velocity=0 time=0@note_on channel=3 note=79 velocity=100 time=0@note_on channel=5 note=79 velocity=100 time=0@note_on channel=6 note=55 velocity=0 time=0@note_on channel=6 note=55 velocity=100 time=0@note_on channel=6 note=50 velocity=100 time=0@note_on channel=0 note=79 velocity=0 time=1.03125@note_on channel=0 note=67 velocity=100 time=0@note_on channel=3 note=79 velocity=0 time=0@note_on channel=3 note=67 velocity=100 time=0@note_on channel=0 note=67 velocity=0 time=0.09375@note_on channel=0 note=71 velocity=100 time=0@note_on channel=3 note=67 velocity=0 time=0@note_on channel=3 note=71 velocity=100 time=0@note_on channel=5 note=79 velocity=0 time=0@note_on channel=0 note=71 velocity=0 time=0.28125@note_on channel=0 note=72 velocity=100 time=0@note_on channel=3 note=71 velocity=0 time=0@note_on channel=3 note=72 velocity=100 time=0@note_on channel=0 note=72 velocity=0 time=0.09375@note_on channel=0 note=74 velocity=100 time=0@note_on channel=1 note=50 velocity=0 time=0@note_on channel=1 note=55 velocity=0 time=0@note_on channel=1 note=55 velocity=100 time=0@note_on channel=3 note=72 velocity=0 time=0@note_on channel=3 note=74 velocity=100 time=0@note_on channel=5 note=74 velocity=100 time=0@note_on channel=6 note=50 velocity=0 time=0@note_on channel=6 note=55 velocity=0 time=0@note_on channel=6 note=55 velocity=100 time=0@note_on channel=2 note=62 velocity=100 time=0.28125@note_on channel=2 note=62 velocity=0 time=0.09375@note_on channel=2 note=62 velocity=100 time=0@note_on channel=2 note=62 velocity=0 time=0.28125@note_on channel=2 note=62 velocity=100 time=0@note_on channel=2 note=62 velocity=0 time=0.09375@note_on channel=2 note=62 velocity=100 time=0@note_on channel=2 note=62 velocity=0 time=0.28125@note_on channel=2 note=62 velocity=100 time=0@note_on channel=0 note=74 velocity=0 time=0.09375@note_on channel=0 note=74 velocity=100 time=0@note_on channel=2 note=62 velocity=0 time=0@note_on channel=3 note=74 velocity=0 time=0@note_on channel=3 note=74 velocity=100 time=0@note_on channel=5 note=74 velocity=0 time=0@note_on channel=0 note=74 velocity=0 time=0.375@note_on channel=0 note=72 velocity=100 time=0@note_on channel=1 note=55 velocity=0 time=0@note_on channel=1 note=57 velocity=100 time=0@note_on channel=3 note=74 velocity=0 time=0@note_on channel=3 note=72 velocity=100 time=0@note_on channel=5 note=72 velocity=100 time=0@note_on channel=6 note=55 velocity=0 time=0@note_on channel=6 note=57 velocity=100 time=0@note_on channel=0 note=72 velocity=0 time=1.03125@note_on channel=0 note=71 velocity=100 time=0@note_on channel=3 note=72 velocity=0 time=0@note_on channel=3 note=71 velocity=100 time=0@note_on channel=0 note=71 velocity=0 time=0.09375@note_on channel=0 note=69 velocity=100 time=0@note_on channel=3 note=71 velocity=0 time=0@note_on channel=3 note=69 velocity=100 time=0@note_on channel=5 note=72 velocity=0 time=0@note_on channel=0 note=69 velocity=0 time=0.28125@note_on channel=0 note=67 velocity=100 time=0@note_on channel=3 note=69 velocity=0 time=0@note_on channel=3 note=67 velocity=100 time=0@note_on channel=0 note=67 velocity=0 time=0.09375@note_on channel=0 note=69 velocity=100 time=0@note_on channel=1 note=57 velocity=0 time=0@note_on channel=1 note=53 velocity=100 time=0@note_on channel=1 note=50 velocity=100 time=0@note_on channel=3 note=67 velocity=0 time=0@note_on channel=3 note=69 velocity=100 time=0@note_on channel=5 note=69 velocity=100 time=0@note_on channel=6 note=57 velocity=0 time=0@note_on channel=6 note=53 velocity=100 time=0@note_on channel=6 note=50 velocity=100 time=0@note_on channel=2 note=62 velocity=100 time=0.28125@note_on channel=4 note=50 velocity=100 time=0@note_on channel=2 note=62 velocity=0 time=0.09375@note_on channel=2 note=62 velocity=100 time=0@note_on channel=4 note=50 velocity=0 time=0@note_on channel=4 note=50 velocity=100 time=0@note_on channel=2 note=62 velocity=0 time=0.28125@note_on channel=2 note=62 velocity=100 time=0@note_on channel=4 note=50 velocity=0 time=0@note_on channel=4 note=50 velocity=100 time=0@note_on channel=2 note=62 velocity=0 time=0.09375@note_on channel=2 note=62 velocity=100 time=0@note_on channel=4 note=50 velocity=0 time=0@note_on channel=4 note=50 velocity=100 time=0@note_on channel=2 note=62 velocity=0 time=0.28125@note_on channel=2 note=62 velocity=100 time=0@note_on channel=4 note=50 velocity=0 time=0@note_on channel=4 note=50 velocity=100 time=0@note_on channel=0 note=69 velocity=0 time=0.09375@note_on channel=0 note=67 velocity=100 time=0@note_on channel=1 note=53 velocity=0 time=0@note_on channel=2 note=62 velocity=0 time=0@note_on channel=3 note=69 velocity=0 time=0@note_on channel=3 note=67 velocity=100 time=0@note_on channel=4 note=50 velocity=0 time=0@note_on channel=5 note=69 velocity=0 time=0@note_on channel=5 note=67 velocity=100 time=0@note_on channel=6 note=53 velocity=0 time=0@note_on channel=0 note=67 velocity=0 time=0.375@note_on channel=0 note=67 velocity=100 time=0@note_on channel=1 note=50 velocity=0 time=0@note_on channel=1 note=50 velocity=100 time=0@note_on channel=1 note=55 velocity=100 time=0@note_on channel=3 note=67 velocity=0 time=0@note_on channel=3 note=67 velocity=100 time=0@note_on channel=5 note=67 velocity=0 time=0@note_on channel=5 note=67 velocity=100 time=0@note_on channel=6 note=50 velocity=0 time=0@note_on channel=6 note=50 velocity=100 time=0@note_on channel=6 note=55 velocity=100 time=0@note_on channel=0 note=67 velocity=0 time=1.03125@note_on channel=0 note=67 velocity=100 time=0@note_on channel=3 note=67 velocity=0 time=0@note_on channel=3 note=67 velocity=100 time=0@note_on channel=0 note=67 velocity=0 time=0.09375@note_on channel=0 note=71 velocity=100 time=0@note_on channel=3 note=67 velocity=0 time=0@note_on channel=3 note=71 velocity=100 time=0@note_on channel=5 note=67 velocity=0 time=0@note_on channel=0 note=71 velocity=0 time=0.28125@note_on channel=0 note=72 velocity=100 time=0@note_on channel=3 note=71 velocity=0 time=0@note_on channel=3 note=72 velocity=100 time=0@note_on channel=0 note=72 velocity=0 time=0.09375@note_on channel=0 note=74 velocity=100 time=0@note_on channel=1 note=55 velocity=0 time=0@note_on channel=1 note=50 velocity=0 time=0@note_on channel=1 note=55 velocity=100 time=0@note_on channel=3 note=72 velocity=0 time=0@note_on channel=3 note=74 velocity=100 time=0@note_on channel=5 note=74 velocity=100 time=0@note_on channel=6 note=55 velocity=0 time=0@note_on channel=6 note=50 velocity=0 time=0@note_on channel=6 note=55 velocity=100 time=0@note_on channel=2 note=62 velocity=100 time=0.28125@note_on channel=2 note=62 velocity=0 time=0.09375@note_on channel=2 note=62 velocity=100 time=0@note_on channel=2 note=62 velocity=0 time=0.28125@note_on channel=2 note=62 velocity=100 time=0@note_on channel=2 note=62 velocity=0 time=0.09375@note_on channel=2 note=62 velocity=100 time=0@note_on channel=2 note=62 velocity=0 time=0.28125@note_on channel=2 note=62 velocity=100 time=0@note_on channel=0 note=74 velocity=0 time=0.09375@note_on channel=0 note=74 velocity=100 time=0@note_on channel=2 note=62 velocity=0 time=0@note_on channel=3 note=74 velocity=0 time=0@note_on channel=3 note=74 velocity=100 time=0@note_on channel=5 note=74 velocity=0 time=0@note_on channel=0 note=74 velocity=0 time=0.375@note_on channel=0 note=76 velocity=100 time=0@note_on channel=1 note=55 velocity=0 time=0@note_on channel=1 note=52 velocity=100 time=0@note_on channel=3 note=74 velocity=0 time=0@note_on channel=3 note=76 velocity=100 time=0@note_on channel=5 note=76 velocity=100 time=0@note_on channel=6 note=55 velocity=0 time=0@note_on channel=6 note=52 velocity=100 time=0@note_on channel=0 note=76 velocity=0 time=1.03125@note_on channel=0 note=74 velocity=100 time=0@note_on channel=3 note=76 velocity=0 time=0@note_on channel=3 note=74 velocity=100 time=0@note_on channel=0 note=74 velocity=0 time=0.09375@note_on channel=0 note=72 velocity=100 time=0@note_on channel=3 note=74 velocity=0 time=0@note_on channel=3 note=72 velocity=100 time=0@note_on channel=5 note=76 velocity=0 time=0@note_on channel=0 note=72 velocity=0 time=0.28125@note_on channel=0 note=76 velocity=100 time=0@note_on channel=3 note=72 velocity=0 time=0@note_on channel=3 note=76 velocity=100 time=0@note_on channel=0 note=76 velocity=0 time=0.09375@note_on channel=0 note=74 velocity=100 time=0@note_on channel=1 note=52 velocity=0 time=0@note_on channel=1 note=55 velocity=100 time=0@note_on channel=3 note=76 velocity=0 time=0@note_on channel=3 note=74 velocity=100 time=0@note_on channel=5 note=74 velocity=100 time=0@note_on channel=6 note=52 velocity=0 time=0@note_on channel=6 note=55 velocity=100 time=0@note_on channel=2 note=62 velocity=100 time=0.28125@note_on channel=2 note=62 velocity=0 time=0.09375@note_on channel=2 note=62 velocity=100 time=0@note_on channel=2 note=62 velocity=0 time=0.28125@note_on channel=2 note=62 velocity=100 time=0@note_on channel=2 note=62 velocity=0 time=0.09375@note_on channel=2 note=62 velocity=100 time=0@note_on channel=2 note=62 velocity=0 time=0.28125@note_on channel=2 note=62 velocity=100 time=0@note_on channel=0 note=74 velocity=0 time=0.09375@note_on channel=0 note=74 velocity=100 time=0@note_on channel=2 note=62 velocity=0 time=0@note_on channel=3 note=74 velocity=0 time=0@note_on channel=3 note=74 velocity=100 time=0@note_on channel=5 note=74 velocity=0 time=0@note_on channel=0 note=74 velocity=0 time=0.375@note_on channel=0 note=79 velocity=100 time=0@note_on channel=1 note=55 velocity=0 time=0@note_on channel=1 note=55 velocity=100 time=0@note_on channel=1 note=50 velocity=100 time=0@note_on channel=3 note=74 velocity=0 time=0@note_on channel=3 note=79 velocity=100 time=0@note_on channel=5 note=79 velocity=100 time=0@note_on channel=6 note=55 velocity=0 time=0@note_on channel=6 note=55 velocity=100 time=0@note_on channel=6 note=50 velocity=100 time=0@note_on channel=0 note=79 velocity=0 time=1.03125@note_on channel=0 note=67 velocity=100 time=0@note_on channel=3 note=79 velocity=0 time=0@note_on channel=3 note=67 velocity=100 time=0@note_on channel=0 note=67 velocity=0 time=0.09375@note_on channel=0 note=71 velocity=100 time=0@note_on channel=3 note=67 velocity=0 time=0@note_on channel=3 note=71 velocity=100 time=0@note_on channel=5 note=79 velocity=0 time=0@note_on channel=0 note=71 velocity=0 time=0.28125@note_on channel=0 note=72 velocity=100 time=0@note_on channel=3 note=71 velocity=0 time=0@note_on channel=3 note=72 velocity=100 time=0@note_on channel=0 note=72 velocity=0 time=0.09375@note_on channel=0 note=74 velocity=100 time=0@note_on channel=1 note=50 velocity=0 time=0@note_on channel=1 note=55 velocity=0 time=0@note_on channel=1 note=55 velocity=100 time=0@note_on channel=3 note=72 velocity=0 time=0@note_on channel=3 note=74 velocity=100 time=0@note_on channel=5 note=74 velocity=100 time=0@note_on channel=6 note=50 velocity=0 time=0@note_on channel=6 note=55 velocity=0 time=0@note_on channel=6 note=55 velocity=100 time=0@note_on channel=2 note=62 velocity=100 time=0.28125@note_on channel=2 note=62 velocity=0 time=0.09375@note_on channel=2 note=62 velocity=100 time=0@note_on channel=2 note=62 velocity=0 time=0.28125@note_on channel=2 note=62 velocity=100 time=0@note_on channel=2 note=62 velocity=0 time=0.09375@note_on channel=2 note=62 velocity=100 time=0@note_on channel=2 note=62 velocity=0 time=0.28125@note_on channel=2 note=62 velocity=100 time=0@note_on channel=0 note=74 velocity=0 time=0.09375@note_on channel=0 note=74 velocity=100 time=0@note_on channel=2 note=62 velocity=0 time=0@note_on channel=3 note=74 velocity=0 time=0@note_on channel=3 note=74 velocity=100 time=0@note_on channel=5 note=74 velocity=0 time=0@note_on channel=0 note=74 velocity=0 time=0.375@note_on channel=0 note=72 velocity=100 time=0@note_on channel=1 note=55 velocity=0 time=0@note_on channel=1 note=57 velocity=100 time=0@note_on channel=3 note=74 velocity=0 time=0@note_on channel=3 note=72 velocity=100 time=0@note_on channel=5 note=72 velocity=100 time=0@note_on channel=6 note=55 velocity=0 time=0@note_on channel=6 note=57 velocity=100 time=0@note_on channel=0 note=72 velocity=0 time=1.03125@note_on channel=0 note=71 velocity=100 time=0@note_on channel=3 note=72 velocity=0 time=0@note_on channel=3 note=71 velocity=100 time=0@note_on channel=0 note=71 velocity=0 time=0.09375@note_on channel=0 note=69 velocity=100 time=0@note_on channel=3 note=71 velocity=0 time=0@note_on channel=3 note=69 velocity=100 time=0@note_on channel=5 note=72 velocity=0 time=0@note_on channel=0 note=69 velocity=0 time=0.28125@note_on channel=0 note=62 velocity=100 time=0@note_on channel=3 note=69 velocity=0 time=0@note_on channel=3 note=62 velocity=100 time=0@note_on channel=0 note=62 velocity=0 time=0.09375@note_on channel=0 note=67 velocity=100 time=0@note_on channel=1 note=57 velocity=0 time=0@note_on channel=1 note=43 velocity=100 time=0@note_on channel=1 note=50 velocity=100 time=0@note_on channel=1 note=59 velocity=100 time=0@note_on channel=3 note=62 velocity=0 time=0@note_on channel=3 note=67 velocity=100 time=0@note_on channel=5 note=67 velocity=100 time=0@note_on channel=6 note=57 velocity=0 time=0@note_on channel=6 note=43 velocity=100 time=0@note_on channel=6 note=50 velocity=100 time=0@note_on channel=6 note=59 velocity=100 time=0@note_on channel=2 note=67 velocity=100 time=0.28125@note_on channel=2 note=67 velocity=0 time=0.09375@note_on channel=2 note=67 velocity=100 time=0@note_on channel=2 note=67 velocity=0 time=0.28125@note_on channel=2 note=67 velocity=100 time=0@note_on channel=2 note=67 velocity=0 time=0.09375@note_on channel=2 note=67 velocity=100 time=0@note_on channel=0 note=67 velocity=0 time=0.375@note_on channel=2 note=67 velocity=0 time=0@note_on channel=3 note=67 velocity=0 time=0@note_on channel=5 note=67 velocity=0 time=0@note_on channel=1 note=59 velocity=0 time=0.375@note_on channel=1 note=50 velocity=0 time=0@note_on channel=1 note=43 velocity=0 time=0@note_on channel=6 note=59 velocity=0 time=0@note_on channel=6 note=50 velocity=0 time=0@note_on channel=6 note=43 velocity=0 time=0@<meta message end_of_track time=0>@