<meta message set_tempo tempo=600000 time=0>@<meta message track_name name='Watery Graves' time=0>@<meta message time_signature numerator=4 denominator=4 clocks_per_click=9 notated_32nd_notes_per_beat=39 time=0>@<meta message track_name name='Spur 1' time=0>@control_change channel=1 control=100 value=0 time=0@control_change channel=1 control=101 value=0 time=0@control_change channel=1 control=6 value=12 time=0@pitchwheel channel=1 pitch=0 time=0@control_change channel=1 control=101 value=0 time=0@control_change channel=1 control=100 value=1 time=0@control_change channel=1 control=6 value=64 time=0@control_change channel=1 control=38 value=0 time=0@control_change channel=1 control=101 value=127 time=0@control_change channel=1 control=100 value=127 time=0@control_change channel=0 control=100 value=0 time=0@control_change channel=0 control=101 value=0 time=0@control_change channel=0 control=6 value=12 time=0@pitchwheel channel=0 pitch=0 time=0@control_change channel=0 control=101 value=0 time=0@control_change channel=0 control=100 value=1 time=0@control_change channel=0 control=6 value=64 time=0@control_change channel=0 control=38 value=0 time=0@control_change channel=0 control=101 value=127 time=0@control_change channel=0 control=100 value=127 time=0@control_change channel=1 control=101 value=0 time=0@control_change channel=1 control=100 value=2 time=0@control_change channel=1 control=6 value=64 time=0@control_change channel=1 control=101 value=127 time=0@control_change channel=1 control=100 value=127 time=0@control_change channel=0 control=101 value=0 time=0@control_change channel=0 control=100 value=2 time=0@control_change channel=0 control=6 value=64 time=0@control_change channel=0 control=101 value=127 time=0@control_change channel=0 control=100 value=127 time=0@program_change channel=1 program=24 time=0@program_change channel=0 program=24 time=0@control_change channel=1 control=0 value=0 time=0@control_change channel=0 control=0 value=0 time=0@control_change channel=1 control=7 value=104 time=0@control_change channel=0 control=7 value=104 time=0@control_change channel=1 control=10 value=64 time=0@control_change channel=0 control=10 value=64 time=0@control_change channel=1 control=93 value=0 time=0@control_change channel=0 control=93 value=0 time=0@control_change channel=1 control=91 value=0 time=0@control_change channel=0 control=91 value=0 time=0@control_change channel=1 control=92 value=0 time=0@control_change channel=0 control=92 value=0 time=0@control_change channel=1 control=95 value=0 time=0@control_change channel=0 control=95 value=0 time=0@note_on channel=0 note=55 velocity=95 time=0@note_on channel=0 note=67 velocity=95 time=0.3@note_off channel=0 note=67 velocity=80 time=0.3@note_on channel=0 note=66 velocity=95 time=0@note_off channel=0 note=66 velocity=80 time=0.3@note_on channel=0 note=62 velocity=95 time=0@note_off channel=0 note=62 velocity=80 time=0.3@note_on channel=0 note=65 velocity=95 time=0@note_off channel=0 note=65 velocity=80 time=0.3@note_on channel=0 note=64 velocity=95 time=0@note_off channel=0 note=64 velocity=80 time=0.3@note_off channel=0 note=55 velocity=80 time=0@note_on channel=0 note=55 velocity=95 time=0.6@note_on channel=0 note=62 velocity=95 time=0.3@note_off channel=0 note=62 velocity=80 time=0.3@note_on channel=0 note=67 velocity=95 time=0@note_off channel=0 note=67 velocity=80 time=0.3@note_on channel=0 note=62 velocity=95 time=0@note_off channel=0 note=62 velocity=80 time=0.3@note_off channel=0 note=55 velocity=80 time=0@note_on channel=0 note=55 velocity=95 time=0@note_on channel=0 note=62 velocity=95 time=0.3@note_off channel=0 note=62 velocity=80 time=0.3@note_on channel=0 note=67 velocity=95 time=0@note_off channel=0 note=67 velocity=80 time=0.3@note_on channel=0 note=62 velocity=95 time=0@note_off channel=0 note=62 velocity=80 time=0.3@note_off channel=0 note=55 velocity=80 time=0@note_on channel=0 note=55 velocity=95 time=0@note_on channel=0 note=67 velocity=95 time=0.3@note_off channel=0 note=67 velocity=80 time=0.3@note_on channel=0 note=66 velocity=95 time=0@note_off channel=0 note=66 velocity=80 time=0.3@note_on channel=0 note=62 velocity=95 time=0@note_off channel=0 note=62 velocity=80 time=0.3@note_on channel=0 note=65 velocity=95 time=0@note_off channel=0 note=65 velocity=80 time=0.3@note_on channel=0 note=64 velocity=95 time=0@note_off channel=0 note=64 velocity=80 time=0.3@note_off channel=0 note=55 velocity=80 time=0@note_on channel=0 note=55 velocity=95 time=0.6@note_on channel=0 note=62 velocity=95 time=0.3@note_off channel=0 note=62 velocity=80 time=0.3@note_on channel=0 note=67 velocity=95 time=0@note_off channel=0 note=67 velocity=80 time=0.3@note_on channel=0 note=62 velocity=95 time=0@note_off channel=0 note=62 velocity=80 time=0.3@note_off channel=0 note=55 velocity=80 time=0@note_on channel=0 note=55 velocity=95 time=0@note_on channel=0 note=62 velocity=95 time=0.3@note_off channel=0 note=62 velocity=80 time=0.3@note_on channel=0 note=67 velocity=95 time=0@note_off channel=0 note=67 velocity=80 time=0.3@note_on channel=0 note=62 velocity=95 time=0@note_off channel=0 note=62 velocity=80 time=0.3@note_off channel=0 note=55 velocity=80 time=0@note_on channel=0 note=43 velocity=95 time=0@note_on channel=0 note=67 velocity=95 time=0.3@note_off channel=0 note=43 velocity=80 time=0@note_off channel=0 note=67 velocity=80 time=0.3@note_on channel=0 note=66 velocity=95 time=0@note_off channel=0 note=66 velocity=80 time=0.3@note_on channel=0 note=62 velocity=95 time=0@note_on channel=0 note=43 velocity=95 time=0@note_off channel=0 note=62 velocity=80 time=0.3@note_on channel=0 note=65 velocity=95 time=0@note_off channel=0 note=43 velocity=80 time=0@note_on channel=0 note=44 velocity=95 time=0@note_off channel=0 note=65 velocity=80 time=0.3@note_on channel=0 note=64 velocity=95 time=0@note_off channel=0 note=44 velocity=80 time=0@note_off channel=0 note=64 velocity=80 time=0.3@note_on channel=0 note=48 velocity=95 time=0.6@note_on channel=0 note=63 velocity=95 time=0.3@note_off channel=0 note=48 velocity=80 time=0@note_on channel=0 note=51 velocity=95 time=0@note_off channel=0 note=51 velocity=80 time=0.3@note_off channel=0 note=63 velocity=80 time=0.15@note_on channel=0 note=65 velocity=95 time=0@note_off channel=0 note=65 velocity=80 time=0.15@note_on channel=0 note=63 velocity=95 time=0@note_on channel=0 note=48 velocity=95 time=0@note_off channel=0 note=63 velocity=80 time=0.15@note_on channel=0 note=63 velocity=95 time=0@note_off channel=0 note=63 velocity=80 time=0.15@note_on channel=0 note=62 velocity=95 time=0@note_off channel=0 note=48 velocity=80 time=0@note_on channel=0 note=43 velocity=95 time=0@note_off channel=0 note=43 velocity=80 time=0.3@note_off channel=0 note=62 velocity=80 time=0.15@note_on channel=0 note=58 velocity=95 time=0@note_off channel=0 note=58 velocity=80 time=0.45@note_on channel=0 note=55 velocity=95 time=0@note_off channel=0 note=55 velocity=80 time=0.3@note_on channel=0 note=43 velocity=95 time=0@note_on channel=0 note=67 velocity=95 time=0.3@note_off channel=0 note=43 velocity=80 time=0@note_off channel=0 note=67 velocity=80 time=0.45@note_on channel=0 note=62 velocity=95 time=0@note_on channel=0 note=43 velocity=95 time=0.15@note_off channel=0 note=62 velocity=80 time=0.3@note_on channel=0 note=65 velocity=95 time=0@note_off channel=0 note=43 velocity=80 time=0@note_on channel=0 note=44 velocity=95 time=0@note_off channel=0 note=44 velocity=80 time=0.3@note_off channel=0 note=65 velocity=80 time=0.15@note_on channel=0 note=63 velocity=95 time=0@note_off channel=0 note=63 velocity=80 time=0.45@note_on channel=0 note=60 velocity=95 time=0@note_off channel=0 note=60 velocity=80 time=0.3@note_on channel=0 note=48 velocity=95 time=0@note_on channel=0 note=63 velocity=95 time=0.3@note_off channel=0 note=48 velocity=80 time=0@note_on channel=0 note=51 velocity=95 time=0@note_off channel=0 note=51 velocity=80 time=0.3@note_off channel=0 note=63 velocity=80 time=0.15@note_on channel=0 note=65 velocity=95 time=0@note_off channel=0 note=65 velocity=80 time=0.15@note_on channel=0 note=63 velocity=95 time=0@note_on channel=0 note=48 velocity=95 time=0@note_off channel=0 note=63 velocity=80 time=0.15@note_on channel=0 note=63 velocity=95 time=0@note_off channel=0 note=63 velocity=80 time=0.15@note_on channel=0 note=62 velocity=95 time=0@note_off channel=0 note=48 velocity=80 time=0@note_on channel=0 note=43 velocity=95 time=0@note_off channel=0 note=62 velocity=80 time=0.3@note_on channel=0 note=62 velocity=95 time=0@note_off channel=0 note=43 velocity=80 time=0@note_on channel=0 note=50 velocity=95 time=0@note_off channel=0 note=62 velocity=80 time=0.3@note_on channel=0 note=61 velocity=95 time=0@note_off channel=0 note=50 velocity=80 time=0@note_on channel=0 note=49 velocity=95 time=0@note_off channel=0 note=61 velocity=80 time=0.3@note_on channel=0 note=65 velocity=95 time=0@note_off channel=0 note=49 velocity=80 time=0@note_on channel=0 note=53 velocity=95 time=0@note_off channel=0 note=65 velocity=80 time=0.3@note_off channel=0 note=53 velocity=80 time=0@note_on channel=0 note=43 velocity=95 time=0@note_on channel=0 note=67 velocity=95 time=0.3@note_off channel=0 note=43 velocity=80 time=0@note_off channel=0 note=67 velocity=80 time=0.45@note_on channel=0 note=62 velocity=95 time=0@note_on channel=0 note=43 velocity=95 time=0.15@note_off channel=0 note=62 velocity=80 time=0.3@note_on channel=0 note=65 velocity=95 time=0@note_off channel=0 note=43 velocity=80 time=0@note_on channel=0 note=44 velocity=95 time=0@note_off channel=0 note=44 velocity=80 time=0.3@note_off channel=0 note=65 velocity=80 time=0.15@note_on channel=0 note=63 velocity=95 time=0@note_off channel=0 note=63 velocity=80 time=0.45@note_on channel=0 note=60 velocity=95 time=0@note_off channel=0 note=60 velocity=80 time=0.3@note_on channel=0 note=48 velocity=95 time=0@note_on channel=0 note=63 velocity=95 time=0.3@note_off channel=0 note=48 velocity=80 time=0@note_on channel=0 note=51 velocity=95 time=0@note_off channel=0 note=51 velocity=80 time=0.3@note_off channel=0 note=63 velocity=80 time=0.15@note_on channel=0 note=65 velocity=95 time=0@note_off channel=0 note=65 velocity=80 time=0.15@note_on channel=0 note=63 velocity=95 time=0@note_on channel=0 note=48 velocity=95 time=0@note_off channel=0 note=63 velocity=80 time=0.15@note_on channel=0 note=63 velocity=95 time=0@note_off channel=0 note=63 velocity=80 time=0.15@note_on channel=0 note=62 velocity=95 time=0@note_off channel=0 note=48 velocity=80 time=0@note_on channel=0 note=43 velocity=95 time=0@note_off channel=0 note=43 velocity=80 time=0.3@note_off channel=0 note=62 velocity=80 time=0.15@note_on channel=0 note=58 velocity=95 time=0@note_off channel=0 note=58 velocity=80 time=0.45@note_on channel=0 note=55 velocity=95 time=0@note_off channel=0 note=55 velocity=80 time=0.3@note_on channel=0 note=43 velocity=95 time=0@note_on channel=0 note=67 velocity=95 time=0.3@note_off channel=0 note=43 velocity=80 time=0@note_off channel=0 note=67 velocity=80 time=0.45@note_on channel=0 note=62 velocity=95 time=0@note_on channel=0 note=43 velocity=95 time=0.15@note_off channel=0 note=62 velocity=80 time=0.3@note_on channel=0 note=65 velocity=95 time=0@note_off channel=0 note=43 velocity=80 time=0@note_on channel=0 note=44 velocity=95 time=0@note_off channel=0 note=44 velocity=80 time=0.3@note_off channel=0 note=65 velocity=80 time=0.15@note_on channel=0 note=63 velocity=95 time=0@note_off channel=0 note=63 velocity=80 time=0.45@note_on channel=0 note=60 velocity=95 time=0@note_off channel=0 note=60 velocity=80 time=0.3@note_on channel=0 note=63 velocity=95 time=0@note_on channel=0 note=51 velocity=95 time=0@note_off channel=0 note=51 velocity=80 time=0.3@note_on channel=0 note=46 velocity=95 time=0@note_off channel=0 note=63 velocity=80 time=0.3@note_on channel=0 note=65 velocity=95 time=0@note_off channel=0 note=46 velocity=80 time=0@note_on channel=0 note=53 velocity=95 time=0@note_off channel=0 note=53 velocity=80 time=0.3@note_on channel=0 note=48 velocity=95 time=0@note_off channel=0 note=65 velocity=80 time=0.3@note_on channel=0 note=67 velocity=95 time=0@note_off channel=0 note=48 velocity=80 time=0@note_on channel=0 note=55 velocity=95 time=0@note_off channel=0 note=55 velocity=80 time=0.3@note_on channel=0 note=50 velocity=95 time=0@note_off channel=0 note=67 velocity=80 time=0.3@note_on channel=0 note=69 velocity=95 time=0@note_off channel=0 note=50 velocity=80 time=0@note_on channel=0 note=48 velocity=95 time=0@note_off channel=0 note=48 velocity=80 time=0.3@note_on channel=0 note=45 velocity=95 time=0@note_off channel=0 note=69 velocity=80 time=0.3@note_off channel=0 note=45 velocity=80 time=0@note_on channel=0 note=67 velocity=95 time=0@note_on channel=0 note=43 velocity=95 time=0@note_off channel=0 note=67 velocity=80 time=0.3@note_off channel=0 note=43 velocity=80 time=0@note_on channel=0 note=50 velocity=95 time=0.3@note_off channel=0 note=50 velocity=80 time=0.3@note_on channel=0 note=51 velocity=95 time=0@note_off channel=0 note=51 velocity=80 time=0.3@note_on channel=0 note=50 velocity=95 time=0@note_on channel=1 note=69 velocity=95 time=0.3@pitchwheel channel=1 pitch=-1408 time=0@note_off channel=0 note=50 velocity=80 time=0@pitchwheel channel=1 pitch=-640 time=0.0375@pitchwheel channel=1 pitch=0 time=0.0375@note_off channel=1 note=69 velocity=80 time=0.225@note_on channel=0 note=67 velocity=95 time=0@note_on channel=0 note=46 velocity=95 time=0@note_off channel=0 note=67 velocity=80 time=0.3@note_on channel=0 note=63 velocity=95 time=0@note_off channel=0 note=46 velocity=80 time=0@note_off channel=0 note=63 velocity=80 time=0.3@note_on channel=0 note=62 velocity=95 time=0@note_on channel=0 note=42 velocity=95 time=0@note_off channel=0 note=62 velocity=80 time=0.3@note_off channel=0 note=42 velocity=80 time=0@note_on channel=0 note=50 velocity=95 time=0.3@note_off channel=0 note=50 velocity=80 time=0.3@note_on channel=0 note=51 velocity=95 time=0@note_off channel=0 note=51 velocity=80 time=0.3@note_on channel=0 note=50 velocity=95 time=0@note_on channel=0 note=62 velocity=95 time=0.3@note_off channel=0 note=50 velocity=80 time=0@note_off channel=0 note=62 velocity=80 time=0.3@note_on channel=0 note=61 velocity=95 time=0@note_off channel=0 note=61 velocity=80 time=0.3@note_on channel=0 note=65 velocity=95 time=0@note_off channel=0 note=65 velocity=80 time=0.3@note_on channel=0 note=53 velocity=95 time=0@note_on channel=0 note=62 velocity=95 time=0.15@note_off channel=0 note=62 velocity=80 time=0.15@note_on channel=0 note=63 velocity=95 time=0@note_off channel=0 note=53 velocity=80 time=0@note_off channel=0 note=63 velocity=80 time=0.15@note_on channel=0 note=65 velocity=95 time=0@note_off channel=0 note=65 velocity=80 time=0.15@note_on channel=0 note=67 velocity=95 time=0@note_off channel=0 note=67 velocity=80 time=0.15@note_on channel=0 note=69 velocity=95 time=0@note_off channel=0 note=69 velocity=80 time=0.15@note_on channel=0 note=70 velocity=95 time=0@note_off channel=0 note=70 velocity=80 time=0.15@note_on channel=0 note=72 velocity=95 time=0@note_off channel=0 note=72 velocity=80 time=0.15@note_on channel=0 note=73 velocity=95 time=0@note_off channel=0 note=73 velocity=80 time=0.15@note_on channel=0 note=74 velocity=95 time=0@note_off channel=0 note=74 velocity=80 time=0.15@note_on channel=0 note=70 velocity=95 time=0@note_off channel=0 note=70 velocity=80 time=0.15@note_on channel=0 note=67 velocity=95 time=0@note_off channel=0 note=67 velocity=80 time=0.15@note_on channel=0 note=62 velocity=95 time=0@note_off channel=0 note=62 velocity=80 time=0.15@note_on channel=0 note=60 velocity=95 time=0@note_off channel=0 note=60 velocity=80 time=0.15@note_on channel=0 note=58 velocity=95 time=0@note_off channel=0 note=58 velocity=80 time=0.15@note_on channel=0 note=55 velocity=95 time=0@note_off channel=0 note=55 velocity=80 time=0.15@note_on channel=0 note=60 velocity=95 time=0@note_on channel=0 note=48 velocity=95 time=0@note_off channel=0 note=60 velocity=80 time=0.07375@note_on channel=0 note=62 velocity=95 time=0.00125@note_off channel=0 note=62 velocity=80 time=0.225@note_on channel=0 note=60 velocity=95 time=0@note_off channel=0 note=60 velocity=80 time=0.3@note_on channel=0 note=60 velocity=95 time=0@note_off channel=0 note=48 velocity=80 time=0@note_off channel=0 note=60 velocity=80 time=0.15@note_on channel=0 note=58 velocity=95 time=0@note_off channel=0 note=58 velocity=80 time=0.3@note_on channel=0 note=55 velocity=95 time=0@note_on channel=0 note=43 velocity=95 time=0.15@note_off channel=0 note=55 velocity=80 time=0.6@note_off channel=0 note=43 velocity=80 time=0@note_on channel=0 note=48 velocity=95 time=0.3@note_off channel=0 note=48 velocity=80 time=0.15@note_on channel=0 note=50 velocity=95 time=0@note_off channel=0 note=50 velocity=80 time=0.15@note_on channel=0 note=51 velocity=95 time=0@note_off channel=0 note=51 velocity=80 time=0.3@note_on channel=0 note=51 velocity=95 time=0@note_on channel=0 note=53 velocity=95 time=0.3@note_off channel=0 note=51 velocity=80 time=0@note_on channel=0 note=51 velocity=95 time=0@note_off channel=0 note=53 velocity=80 time=0.15@note_on channel=0 note=55 velocity=95 time=0@note_off channel=0 note=51 velocity=80 time=0.15@note_on channel=0 note=51 velocity=95 time=0@note_off channel=0 note=55 velocity=80 time=0.15@note_on channel=0 note=54 velocity=95 time=0@note_off channel=0 note=51 velocity=80 time=0.15@note_on channel=0 note=50 velocity=95 time=0@note_off channel=0 note=54 velocity=80 time=0.3@note_on channel=0 note=54 velocity=95 time=0@note_off channel=0 note=50 velocity=80 time=0@note_on channel=0 note=50 velocity=95 time=0@note_off channel=0 note=54 velocity=80 time=0.3@note_on channel=0 note=55 velocity=95 time=0@note_off channel=0 note=50 velocity=80 time=0@note_on channel=0 note=50 velocity=95 time=0@note_off channel=0 note=55 velocity=80 time=0.3@note_on channel=0 note=57 velocity=95 time=0@note_off channel=0 note=50 velocity=80 time=0@note_on channel=0 note=50 velocity=95 time=0@note_off channel=0 note=57 velocity=80 time=0.3@note_off channel=0 note=50 velocity=80 time=0@note_on channel=0 note=58 velocity=95 time=0@note_on channel=0 note=43 velocity=95 time=0@note_off channel=0 note=58 velocity=80 time=0.3@note_on channel=0 note=57 velocity=95 time=0@note_off channel=0 note=43 velocity=80 time=0@note_on channel=0 note=43 velocity=95 time=0@note_off channel=0 note=57 velocity=80 time=0.3@note_on channel=0 note=58 velocity=95 time=0@note_off channel=0 note=43 velocity=80 time=0@note_on channel=0 note=43 velocity=95 time=0@note_off channel=0 note=58 velocity=80 time=0.15@note_on channel=0 note=62 velocity=95 time=0@note_off channel=0 note=43 velocity=80 time=0.15@note_on channel=0 note=43 velocity=95 time=0@note_off channel=0 note=62 velocity=80 time=0.15@note_on channel=0 note=55 velocity=95 time=0@note_off channel=0 note=43 velocity=80 time=0.15@note_on channel=0 note=40 velocity=95 time=0@note_off channel=0 note=55 velocity=80 time=0.6@note_off channel=0 note=40 velocity=80 time=0@note_on channel=0 note=51 velocity=95 time=0.3@note_off channel=0 note=51 velocity=80 time=0.15@note_on channel=0 note=53 velocity=95 time=0@note_off channel=0 note=53 velocity=80 time=0.15@note_on channel=0 note=55 velocity=95 time=0@note_on channel=0 note=55 velocity=95 time=0.3@note_off channel=0 note=55 velocity=80 time=0@note_off channel=0 note=55 velocity=80 time=0.3@note_on channel=0 note=55 velocity=95 time=0@note_on channel=0 note=51 velocity=95 time=0@note_off channel=0 note=55 velocity=80 time=0.15@note_on channel=0 note=57 velocity=95 time=0@note_off channel=0 note=51 velocity=80 time=0.15@note_off channel=0 note=57 velocity=80 time=0.15@note_on channel=0 note=58 velocity=95 time=0@note_on channel=0 note=50 velocity=95 time=0.15@note_off channel=0 note=58 velocity=80 time=0.15@note_on channel=0 note=60 velocity=95 time=0@note_off channel=0 note=50 velocity=80 time=0.15@note_off channel=0 note=60 velocity=80 time=0.15@note_on channel=0 note=62 velocity=95 time=0@note_on channel=0 note=48 velocity=95 time=0.15@note_off channel=0 note=62 velocity=80 time=0.15@note_on channel=0 note=63 velocity=95 time=0@note_off channel=0 note=63 velocity=80 time=0.15@note_on channel=0 note=60 velocity=95 time=0@note_off channel=0 note=48 velocity=80 time=0@note_off channel=0 note=60 velocity=80 time=0.15@note_on channel=0 note=58 velocity=95 time=0@note_off channel=0 note=58 velocity=80 time=0.15@note_on channel=0 note=57 velocity=95 time=0@note_on channel=0 note=50 velocity=95 time=0@note_off channel=0 note=57 velocity=80 time=0.3@note_off channel=0 note=50 velocity=80 time=0@note_on channel=0 note=45 velocity=95 time=0.3@note_off channel=0 note=45 velocity=80 time=0.3@note_on channel=0 note=50 velocity=95 time=0.3@note_on channel=0 note=62 velocity=95 time=0.3@note_off channel=0 note=50 velocity=80 time=0@note_off channel=0 note=62 velocity=80 time=0.3@note_on channel=0 note=61 velocity=95 time=0@note_off channel=0 note=61 velocity=80 time=0.3@note_on channel=0 note=65 velocity=95 time=0@note_off channel=0 note=65 velocity=80 time=0.3@note_on channel=0 note=62 velocity=95 time=0@note_on channel=0 note=43 velocity=95 time=0@note_off channel=0 note=62 velocity=80 time=0.3@note_off channel=0 note=43 velocity=80 time=0@note_on channel=0 note=50 velocity=95 time=0.3@note_off channel=0 note=50 velocity=80 time=0.3@note_on channel=0 note=51 velocity=95 time=0@note_off channel=0 note=51 velocity=80 time=0.3@note_on channel=0 note=50 velocity=95 time=0@note_on channel=1 note=69 velocity=95 time=0.3@pitchwheel channel=1 pitch=-1408 time=0@note_off channel=0 note=50 velocity=80 time=0@pitchwheel channel=1 pitch=-640 time=0.0375@pitchwheel channel=1 pitch=0 time=0.0375@note_off channel=1 note=69 velocity=80 time=0.225@note_on channel=0 note=67 velocity=95 time=0@note_on channel=0 note=46 velocity=95 time=0@note_off channel=0 note=67 velocity=80 time=0.3@note_on channel=0 note=63 velocity=95 time=0@note_off channel=0 note=46 velocity=80 time=0@note_off channel=0 note=63 velocity=80 time=0.3@note_on channel=0 note=62 velocity=95 time=0@note_on channel=0 note=42 velocity=95 time=0@note_off channel=0 note=62 velocity=80 time=0.3@note_off channel=0 note=42 velocity=80 time=0@note_on channel=0 note=50 velocity=95 time=0.3@note_off channel=0 note=50 velocity=80 time=0.3@note_on channel=0 note=51 velocity=95 time=0@note_off channel=0 note=51 velocity=80 time=0.3@note_on channel=0 note=50 velocity=95 time=0@note_on channel=0 note=62 velocity=95 time=0.3@note_off channel=0 note=50 velocity=80 time=0@note_off channel=0 note=62 velocity=80 time=0.3@note_on channel=0 note=61 velocity=95 time=0@note_off channel=0 note=61 velocity=80 time=0.3@note_on channel=0 note=65 velocity=95 time=0@note_off channel=0 note=65 velocity=80 time=0.3@note_on channel=0 note=53 velocity=95 time=0@note_on channel=0 note=62 velocity=95 time=0.15@note_off channel=0 note=62 velocity=80 time=0.15@note_on channel=0 note=63 velocity=95 time=0@note_off channel=0 note=53 velocity=80 time=0@note_off channel=0 note=63 velocity=80 time=0.15@note_on channel=0 note=65 velocity=95 time=0@note_off channel=0 note=65 velocity=80 time=0.15@note_on channel=0 note=67 velocity=95 time=0@note_off channel=0 note=67 velocity=80 time=0.15@note_on channel=0 note=69 velocity=95 time=0@note_off channel=0 note=69 velocity=80 time=0.15@note_on channel=0 note=70 velocity=95 time=0@note_off channel=0 note=70 velocity=80 time=0.15@note_on channel=0 note=72 velocity=95 time=0@note_off channel=0 note=72 velocity=80 time=0.15@note_on channel=0 note=73 velocity=95 time=0@note_off channel=0 note=73 velocity=80 time=0.15@note_on channel=0 note=74 velocity=95 time=0@note_off channel=0 note=74 velocity=80 time=0.15@note_on channel=0 note=70 velocity=95 time=0@note_off channel=0 note=70 velocity=80 time=0.15@note_on channel=0 note=67 velocity=95 time=0@note_off channel=0 note=67 velocity=80 time=0.15@note_on channel=0 note=62 velocity=95 time=0@note_off channel=0 note=62 velocity=80 time=0.15@note_on channel=0 note=60 velocity=95 time=0@note_off channel=0 note=60 velocity=80 time=0.15@note_on channel=0 note=58 velocity=95 time=0@note_off channel=0 note=58 velocity=80 time=0.15@note_on channel=0 note=55 velocity=95 time=0@note_off channel=0 note=55 velocity=80 time=0.15@note_on channel=0 note=60 velocity=95 time=0@note_on channel=0 note=48 velocity=95 time=0@note_off channel=0 note=60 velocity=80 time=0.07375@note_on channel=0 note=62 velocity=95 time=0.00125@note_off channel=0 note=62 velocity=80 time=0.225@note_on channel=0 note=60 velocity=95 time=0@note_off channel=0 note=60 velocity=80 time=0.3@note_on channel=0 note=60 velocity=95 time=0@note_off channel=0 note=48 velocity=80 time=0@note_off channel=0 note=60 velocity=80 time=0.15@note_on channel=0 note=58 velocity=95 time=0@note_off channel=0 note=58 velocity=80 time=0.3@note_on channel=0 note=55 velocity=95 time=0@note_on channel=0 note=43 velocity=95 time=0.15@note_off channel=0 note=55 velocity=80 time=0.6@note_off channel=0 note=43 velocity=80 time=0@note_on channel=0 note=48 velocity=95 time=0.3@note_off channel=0 note=48 velocity=80 time=0.15@note_on channel=0 note=50 velocity=95 time=0@note_off channel=0 note=50 velocity=80 time=0.15@note_on channel=0 note=51 velocity=95 time=0@note_off channel=0 note=51 velocity=80 time=0.3@note_on channel=0 note=51 velocity=95 time=0@note_on channel=0 note=53 velocity=95 time=0.3@note_off channel=0 note=51 velocity=80 time=0@note_on channel=0 note=51 velocity=95 time=0@note_off channel=0 note=53 velocity=80 time=0.15@note_on channel=0 note=55 velocity=95 time=0@note_off channel=0 note=51 velocity=80 time=0.15@note_on channel=0 note=51 velocity=95 time=0@note_off channel=0 note=55 velocity=80 time=0.15@note_on channel=0 note=54 velocity=95 time=0@note_off channel=0 note=51 velocity=80 time=0.15@note_on channel=0 note=50 velocity=95 time=0@note_off channel=0 note=54 velocity=80 time=0.3@note_on channel=0 note=54 velocity=95 time=0@note_off channel=0 note=50 velocity=80 time=0@note_on channel=0 note=50 velocity=95 time=0@note_off channel=0 note=54 velocity=80 time=0.3@note_on channel=0 note=55 velocity=95 time=0@note_off channel=0 note=50 velocity=80 time=0@note_on channel=0 note=50 velocity=95 time=0@note_off channel=0 note=55 velocity=80 time=0.3@note_on channel=0 note=57 velocity=95 time=0@note_off channel=0 note=50 velocity=80 time=0@note_on channel=0 note=50 velocity=95 time=0@note_off channel=0 note=57 velocity=80 time=0.3@note_off channel=0 note=50 velocity=80 time=0@note_on channel=0 note=58 velocity=95 time=0@note_on channel=0 note=43 velocity=95 time=0@note_off channel=0 note=58 velocity=80 time=0.3@note_on channel=0 note=57 velocity=95 time=0@note_off channel=0 note=43 velocity=80 time=0@note_on channel=0 note=43 velocity=95 time=0@note_off channel=0 note=57 velocity=80 time=0.3@note_on channel=0 note=58 velocity=95 time=0@note_off channel=0 note=43 velocity=80 time=0@note_on channel=0 note=43 velocity=95 time=0@note_off channel=0 note=58 velocity=80 time=0.15@note_on channel=0 note=62 velocity=95 time=0@note_off channel=0 note=43 velocity=80 time=0.15@note_on channel=0 note=43 velocity=95 time=0@note_off channel=0 note=62 velocity=80 time=0.15@note_on channel=0 note=55 velocity=95 time=0@note_off channel=0 note=43 velocity=80 time=0.15@note_on channel=0 note=40 velocity=95 time=0@note_off channel=0 note=55 velocity=80 time=0.6@note_off channel=0 note=40 velocity=80 time=0@note_on channel=0 note=51 velocity=95 time=0.3@note_off channel=0 note=51 velocity=80 time=0.15@note_on channel=0 note=53 velocity=95 time=0@note_off channel=0 note=53 velocity=80 time=0.15@note_on channel=0 note=55 velocity=95 time=0@note_on channel=0 note=55 velocity=95 time=0.3@note_off channel=0 note=55 velocity=80 time=0@note_off channel=0 note=55 velocity=80 time=0.3@note_on channel=0 note=55 velocity=95 time=0@note_on channel=0 note=51 velocity=95 time=0@note_off channel=0 note=55 velocity=80 time=0.15@note_on channel=0 note=57 velocity=95 time=0@note_off channel=0 note=51 velocity=80 time=0.15@note_off channel=0 note=57 velocity=80 time=0.15@note_on channel=0 note=58 velocity=95 time=0@note_on channel=0 note=50 velocity=95 time=0.15@note_off channel=0 note=58 velocity=80 time=0.15@note_on channel=0 note=60 velocity=95 time=0@note_off channel=0 note=50 velocity=80 time=0.15@note_off channel=0 note=60 velocity=80 time=0.15@note_on channel=0 note=62 velocity=95 time=0@note_on channel=0 note=48 velocity=95 time=0.15@note_off channel=0 note=62 velocity=80 time=0.15@note_on channel=0 note=63 velocity=95 time=0@note_off channel=0 note=63 velocity=80 time=0.15@note_on channel=0 note=60 velocity=95 time=0@note_off channel=0 note=48 velocity=80 time=0@note_off channel=0 note=60 velocity=80 time=0.15@note_on channel=0 note=58 velocity=95 time=0@note_off channel=0 note=58 velocity=80 time=0.15@note_on channel=0 note=62 velocity=95 time=0@note_on channel=0 note=57 velocity=95 time=0@note_on channel=0 note=50 velocity=95 time=0@note_off channel=0 note=62 velocity=80 time=0.3@note_off channel=0 note=57 velocity=80 time=0@note_off channel=0 note=50 velocity=80 time=0@note_on channel=0 note=45 velocity=95 time=0.3@note_off channel=0 note=45 velocity=80 time=0.3@note_on channel=0 note=50 velocity=95 time=0.3@note_off channel=0 note=50 velocity=80 time=0.3@note_on channel=0 note=67 velocity=95 time=0.9@note_on channel=0 note=63 velocity=95 time=0@note_on channel=0 note=58 velocity=95 time=0@note_on channel=0 note=51 velocity=95 time=0@note_off channel=0 note=51 velocity=80 time=0.3@note_on channel=0 note=46 velocity=95 time=0@note_off channel=0 note=67 velocity=80 time=0.3@note_off channel=0 note=63 velocity=80 time=0@note_off channel=0 note=58 velocity=80 time=0@note_on channel=0 note=65 velocity=95 time=0@note_on channel=0 note=60 velocity=95 time=0@note_on channel=0 note=57 velocity=95 time=0@note_off channel=0 note=46 velocity=80 time=0@note_on channel=0 note=53 velocity=95 time=0@note_off channel=0 note=53 velocity=80 time=0.3@note_on channel=0 note=48 velocity=95 time=0@note_off channel=0 note=65 velocity=80 time=0.15@note_off channel=0 note=60 velocity=80 time=0@note_off channel=0 note=57 velocity=80 time=0@note_on channel=0 note=62 velocity=95 time=0@note_on channel=0 note=59 velocity=95 time=0@note_on channel=0 note=55 velocity=95 time=0@note_off channel=0 note=48 velocity=80 time=0@note_off channel=0 note=62 velocity=80 time=0.6@note_off channel=0 note=59 velocity=80 time=0@note_off channel=0 note=55 velocity=80 time=0@note_on channel=0 note=43 velocity=95 time=0.15@note_on channel=0 note=55 velocity=95 time=0.15@note_off channel=0 note=55 velocity=80 time=0.15@note_on channel=0 note=59 velocity=95 time=0@note_off channel=0 note=59 velocity=80 time=0.15@note_on channel=0 note=62 velocity=76 time=0@note_off channel=0 note=62 velocity=80 time=0.15@note_off channel=0 note=43 velocity=80 time=0@note_on channel=0 note=62 velocity=95 time=0@note_on channel=0 note=44 velocity=95 time=0@note_off channel=0 note=62 velocity=80 time=0.3@note_on channel=0 note=63 velocity=95 time=0@note_off channel=0 note=44 velocity=80 time=0@note_on channel=0 note=51 velocity=95 time=0@note_off channel=0 note=63 velocity=80 time=0.15@note_on channel=0 note=60 velocity=95 time=0@note_off channel=0 note=51 velocity=80 time=0.15@note_off channel=0 note=60 velocity=80 time=0.15@note_on channel=0 note=58 velocity=95 time=0@note_off channel=0 note=58 velocity=80 time=0.15@note_on channel=0 note=62 velocity=95 time=0@note_on channel=0 note=43 velocity=95 time=0.3@note_off channel=0 note=62 velocity=80 time=0.3@note_off channel=0 note=43 velocity=80 time=0@note_on channel=0 note=50 velocity=95 time=0@note_on channel=0 note=45 velocity=95 time=0.15@note_off channel=0 note=45 velocity=80 time=0.15@note_on channel=0 note=47 velocity=76 time=0@note_off channel=0 note=50 velocity=80 time=0@note_off channel=0 note=47 velocity=80 time=0.15@note_on channel=0 note=50 velocity=95 time=0@note_off channel=0 note=50 velocity=80 time=0.15@note_on channel=0 note=55 velocity=95 time=0@note_off channel=0 note=55 velocity=80 time=0.15@note_on channel=0 note=59 velocity=95 time=0@note_off channel=0 note=59 velocity=80 time=0.15@note_on channel=0 note=67 velocity=95 time=0@note_on channel=0 note=63 velocity=95 time=0@note_on channel=0 note=58 velocity=95 time=0@note_on channel=0 note=51 velocity=95 time=0@note_off channel=0 note=51 velocity=80 time=0.3@note_on channel=0 note=46 velocity=95 time=0@note_off channel=0 note=67 velocity=80 time=0.3@note_off channel=0 note=63 velocity=80 time=0@note_off channel=0 note=58 velocity=80 time=0@note_on channel=0 note=69 velocity=95 time=0@note_on channel=0 note=60 velocity=95 time=0@note_off channel=0 note=46 velocity=80 time=0@note_on channel=0 note=53 velocity=95 time=0@note_off channel=0 note=69 velocity=80 time=0.3@note_off channel=0 note=60 velocity=80 time=0@note_on channel=0 note=65 velocity=95 time=0@note_off channel=0 note=53 velocity=80 time=0@note_on channel=0 note=48 velocity=95 time=0@note_off channel=0 note=65 velocity=80 time=0.15@note_on channel=0 note=62 velocity=95 time=0@note_on channel=0 note=59 velocity=95 time=0@note_on channel=0 note=55 velocity=95 time=0@note_off channel=0 note=48 velocity=80 time=0@note_off channel=0 note=62 velocity=80 time=0.6@note_off channel=0 note=59 velocity=80 time=0@note_off channel=0 note=55 velocity=80 time=0@note_on channel=0 note=43 velocity=95 time=0.15@note_on channel=0 note=55 velocity=95 time=0.15@note_off channel=0 note=55 velocity=80 time=0.15@note_on channel=0 note=59 velocity=95 time=0@note_off channel=0 note=59 velocity=80 time=0.15@note_on channel=0 note=62 velocity=76 time=0@note_off channel=0 note=62 velocity=80 time=0.15@note_off channel=0 note=43 velocity=80 time=0@note_on channel=0 note=62 velocity=95 time=0@note_on channel=0 note=44 velocity=95 time=0@note_off channel=0 note=62 velocity=80 time=0.3@note_on channel=0 note=63 velocity=95 time=0@note_off channel=0 note=44 velocity=80 time=0@note_on channel=0 note=51 velocity=95 time=0@note_off channel=0 note=63 velocity=80 time=0.15@note_on channel=0 note=60 velocity=95 time=0@note_off channel=0 note=51 velocity=80 time=0.15@note_off channel=0 note=60 velocity=80 time=0.15@note_on channel=0 note=58 velocity=95 time=0@note_off channel=0 note=58 velocity=80 time=0.15@note_on channel=0 note=62 velocity=95 time=0@note_off channel=0 note=62 velocity=80 time=0.3@note_on channel=0 note=43 velocity=95 time=0@note_off channel=0 note=43 velocity=80 time=0.3@note_on channel=0 note=50 velocity=95 time=0@note_on channel=0 note=45 velocity=95 time=0.15@note_off channel=0 note=45 velocity=80 time=0.15@note_on channel=0 note=47 velocity=76 time=0@note_off channel=0 note=50 velocity=80 time=0@note_off channel=0 note=47 velocity=80 time=0.15@note_on channel=0 note=50 velocity=95 time=0@note_off channel=0 note=50 velocity=80 time=0.15@note_on channel=0 note=55 velocity=95 time=0@note_off channel=0 note=55 velocity=80 time=0.15@note_on channel=0 note=59 velocity=95 time=0@note_off channel=0 note=59 velocity=80 time=0.15@note_on channel=0 note=67 velocity=95 time=0@note_on channel=0 note=63 velocity=95 time=0@note_on channel=0 note=58 velocity=95 time=0@note_on channel=0 note=51 velocity=95 time=0@note_off channel=0 note=51 velocity=80 time=0.3@note_on channel=0 note=46 velocity=95 time=0@note_off channel=0 note=67 velocity=80 time=0.3@note_off channel=0 note=63 velocity=80 time=0@note_off channel=0 note=58 velocity=80 time=0@note_on channel=0 note=65 velocity=95 time=0@note_on channel=0 note=60 velocity=95 time=0@note_on channel=0 note=57 velocity=95 time=0@note_off channel=0 note=46 velocity=80 time=0@note_on channel=0 note=53 velocity=95 time=0@note_off channel=0 note=53 velocity=80 time=0.3@note_on channel=0 note=48 velocity=95 time=0@note_off channel=0 note=65 velocity=80 time=0.15@note_off channel=0 note=60 velocity=80 time=0@note_off channel=0 note=57 velocity=80 time=0@note_on channel=0 note=62 velocity=95 time=0@note_on channel=0 note=59 velocity=95 time=0@note_on channel=0 note=55 velocity=95 time=0@note_off channel=0 note=48 velocity=80 time=0@note_off channel=0 note=62 velocity=80 time=0.6@note_off channel=0 note=59 velocity=80 time=0@note_off channel=0 note=55 velocity=80 time=0@note_on channel=0 note=43 velocity=95 time=0.15@note_on channel=0 note=55 velocity=95 time=0.15@note_off channel=0 note=55 velocity=80 time=0.15@note_on channel=0 note=59 velocity=95 time=0@note_off channel=0 note=59 velocity=80 time=0.15@note_on channel=0 note=62 velocity=76 time=0@note_off channel=0 note=62 velocity=80 time=0.15@note_off channel=0 note=43 velocity=80 time=0@note_on channel=0 note=62 velocity=95 time=0@note_on channel=0 note=44 velocity=95 time=0@note_off channel=0 note=62 velocity=80 time=0.3@note_on channel=0 note=63 velocity=95 time=0@note_off channel=0 note=44 velocity=80 time=0@note_on channel=0 note=51 velocity=95 time=0@note_off channel=0 note=63 velocity=80 time=0.15@note_on channel=0 note=60 velocity=95 time=0@note_off channel=0 note=51 velocity=80 time=0.15@note_off channel=0 note=60 velocity=80 time=0.15@note_on channel=0 note=58 velocity=95 time=0@note_off channel=0 note=58 velocity=80 time=0.15@note_on channel=0 note=62 velocity=95 time=0@note_off channel=0 note=62 velocity=80 time=0.3@note_on channel=0 note=43 velocity=95 time=0@note_off channel=0 note=43 velocity=80 time=0.3@note_on channel=0 note=55 velocity=95 time=0@note_off channel=0 note=55 velocity=80 time=0.3@note_on channel=0 note=67 velocity=95 time=0.6@note_on channel=0 note=63 velocity=95 time=0@note_on channel=0 note=58 velocity=95 time=0@note_on channel=0 note=51 velocity=95 time=0@note_off channel=0 note=51 velocity=80 time=0.3@note_on channel=0 note=46 velocity=95 time=0@note_off channel=0 note=67 velocity=80 time=0.3@note_off channel=0 note=63 velocity=80 time=0@note_off channel=0 note=58 velocity=80 time=0@note_on channel=0 note=69 velocity=95 time=0@note_on channel=0 note=60 velocity=95 time=0@note_off channel=0 note=46 velocity=80 time=0@note_on channel=0 note=53 velocity=95 time=0@note_off channel=0 note=69 velocity=80 time=0.3@note_off channel=0 note=60 velocity=80 time=0@note_on channel=0 note=65 velocity=95 time=0@note_off channel=0 note=53 velocity=80 time=0@note_on channel=0 note=48 velocity=95 time=0@note_off channel=0 note=65 velocity=80 time=0.15@note_on channel=0 note=62 velocity=95 time=0@note_on channel=0 note=59 velocity=95 time=0@note_on channel=0 note=55 velocity=95 time=0@note_off channel=0 note=48 velocity=80 time=0@note_off channel=0 note=62 velocity=80 time=0.6@note_off channel=0 note=59 velocity=80 time=0@note_off channel=0 note=55 velocity=80 time=0@note_on channel=0 note=55 velocity=95 time=0.15@note_on channel=0 note=43 velocity=95 time=0@note_off channel=0 note=55 velocity=80 time=0.6@note_off channel=0 note=43 velocity=80 time=0@note_on channel=0 note=60 velocity=95 time=0@note_on channel=0 note=48 velocity=95 time=0@note_off channel=0 note=60 velocity=80 time=0.15@note_on channel=0 note=63 velocity=95 time=0@note_off channel=0 note=63 velocity=80 time=0.15@note_on channel=0 note=67 velocity=95 time=0@note_off channel=0 note=67 velocity=80 time=0.15@note_on channel=0 note=70 velocity=95 time=0@note_off channel=0 note=70 velocity=80 time=0.15@note_on channel=0 note=67 velocity=95 time=0@note_off channel=0 note=48 velocity=80 time=0@note_on channel=0 note=55 velocity=95 time=0@note_off channel=0 note=55 velocity=80 time=0.3@note_on channel=0 note=48 velocity=95 time=0@note_off channel=0 note=67 velocity=80 time=0.15@note_on channel=0 note=60 velocity=95 time=0@note_off channel=0 note=60 velocity=80 time=0.6@note_off channel=0 note=48 velocity=80 time=0@note_on channel=0 note=55 velocity=95 time=0.45@note_on channel=0 note=43 velocity=95 time=0@note_off channel=0 note=55 velocity=80 time=0.3@note_off channel=0 note=43 velocity=80 time=0@note_on channel=0 note=60 velocity=95 time=0@note_on channel=0 note=48 velocity=95 time=0@note_off channel=0 note=60 velocity=80 time=0.15@note_on channel=0 note=63 velocity=95 time=0@note_off channel=0 note=63 velocity=80 time=0.15@note_on channel=0 note=67 velocity=95 time=0@note_off channel=0 note=67 velocity=80 time=0.15@note_on channel=0 note=70 velocity=95 time=0@note_off channel=0 note=70 velocity=80 time=0.15@note_on channel=0 note=67 velocity=95 time=0@note_off channel=0 note=48 velocity=80 time=0@note_on channel=0 note=55 velocity=95 time=0@note_off channel=0 note=55 velocity=80 time=0.3@note_on channel=0 note=41 velocity=95 time=0@note_off channel=0 note=67 velocity=80 time=0.15@note_on channel=0 note=60 velocity=95 time=0@note_off channel=0 note=60 velocity=80 time=0.3@note_on channel=0 note=53 velocity=95 time=0@note_off channel=0 note=53 velocity=80 time=0.15@note_on channel=0 note=55 velocity=95 time=0@note_off channel=0 note=55 velocity=80 time=0.15@note_on channel=0 note=57 velocity=95 time=0@note_off channel=0 note=57 velocity=80 time=0.15@note_on channel=0 note=58 velocity=95 time=0@note_off channel=0 note=41 velocity=80 time=0@note_off channel=0 note=58 velocity=80 time=0.15@note_on channel=0 note=60 velocity=95 time=0@note_off channel=0 note=60 velocity=80 time=0.15@note_on channel=0 note=62 velocity=95 time=0@note_off channel=0 note=62 velocity=80 time=0.15@note_on channel=0 note=63 velocity=95 time=0@note_off channel=0 note=63 velocity=80 time=0.15@note_on channel=0 note=70 velocity=95 time=0@note_on channel=0 note=48 velocity=95 time=0@note_off channel=0 note=70 velocity=80 time=0.3@note_on channel=0 note=63 velocity=95 time=0@note_off channel=0 note=63 velocity=80 time=0.3@note_on channel=0 note=60 velocity=95 time=0@note_off channel=0 note=60 velocity=80 time=0.3@note_off channel=0 note=48 velocity=80 time=0@note_on channel=0 note=48 velocity=95 time=0@note_off channel=0 note=48 velocity=80 time=0.15@note_on channel=0 note=53 velocity=95 time=0@note_on channel=0 note=69 velocity=95 time=0.45@note_on channel=0 note=60 velocity=95 time=0@note_off channel=0 note=53 velocity=80 time=0.3@note_on channel=0 note=51 velocity=95 time=0@note_off channel=0 note=69 velocity=80 time=0.6@note_off channel=0 note=60 velocity=80 time=0@note_off channel=0 note=51 velocity=80 time=0@note_on channel=0 note=50 velocity=95 time=0@note_on channel=0 note=57 velocity=95 time=0.3@note_off channel=0 note=57 velocity=80 time=0.3@note_on channel=0 note=62 velocity=95 time=0@note_off channel=0 note=62 velocity=80 time=0.15@note_on channel=0 note=69 velocity=95 time=0@note_off channel=0 note=69 velocity=80 time=0.15@note_on channel=0 note=70 velocity=95 time=0.15@note_on channel=0 note=62 velocity=95 time=0@note_off channel=0 note=50 velocity=80 time=0@note_on channel=0 note=43 velocity=95 time=0@note_off channel=0 note=70 velocity=80 time=0.15@note_off channel=0 note=62 velocity=80 time=0@note_on channel=0 note=69 velocity=95 time=0.15@note_off channel=0 note=69 velocity=80 time=0.15@note_on channel=0 note=67 velocity=95 time=0@note_off channel=0 note=67 velocity=80 time=0.15@note_on channel=0 note=65 velocity=95 time=0@note_off channel=0 note=65 velocity=80 time=0.15@note_on channel=0 note=67 velocity=95 time=0@note_off channel=0 note=67 velocity=80 time=0.15@note_on channel=0 note=62 velocity=95 time=0@note_off channel=0 note=62 velocity=80 time=0.15@note_on channel=0 note=60 velocity=95 time=0@note_off channel=0 note=60 velocity=80 time=0.15@note_on channel=0 note=58 velocity=95 time=0@note_off channel=0 note=58 velocity=80 time=0.15@note_off channel=0 note=43 velocity=80 time=0@note_on channel=0 note=48 velocity=95 time=0@note_on channel=0 note=60 velocity=95 time=0.15@note_off channel=0 note=60 velocity=80 time=0.15@note_on channel=0 note=63 velocity=95 time=0@note_off channel=0 note=63 velocity=80 time=0.15@note_on channel=0 note=70 velocity=95 time=0@note_off channel=0 note=70 velocity=80 time=0.15@note_on channel=0 note=70 velocity=95 time=0.15@note_on channel=0 note=63 velocity=95 time=0@note_on channel=0 note=60 velocity=95 time=0@note_off channel=0 note=70 velocity=80 time=0.15@note_off channel=0 note=63 velocity=80 time=0@note_off channel=0 note=60 velocity=80 time=0@note_off channel=0 note=48 velocity=80 time=0@note_on channel=0 note=48 velocity=95 time=0@note_off channel=0 note=48 velocity=80 time=0.15@note_on channel=0 note=53 velocity=95 time=0@note_on channel=0 note=69 velocity=95 time=0.45@note_on channel=0 note=60 velocity=95 time=0@note_off channel=0 note=53 velocity=80 time=0.3@note_on channel=0 note=51 velocity=95 time=0@note_off channel=0 note=69 velocity=80 time=0.6@note_off channel=0 note=60 velocity=80 time=0@note_off channel=0 note=51 velocity=80 time=0@note_on channel=0 note=50 velocity=95 time=0@note_on channel=0 note=57 velocity=95 time=0.3@note_off channel=0 note=57 velocity=80 time=0.3@note_on channel=0 note=69 velocity=95 time=0@note_on channel=0 note=62 velocity=95 time=0@note_off channel=0 note=69 velocity=80 time=0.15@note_off channel=0 note=62 velocity=80 time=0@note_off channel=0 note=50 velocity=80 time=0.15@note_on channel=0 note=50 velocity=95 time=0@note_on channel=0 note=67 velocity=95 time=0.15@note_off channel=0 note=50 velocity=80 time=0@note_on channel=0 note=43 velocity=95 time=0@note_off channel=0 note=67 velocity=80 time=0.45@note_on channel=0 note=55 velocity=95 time=0@note_off channel=0 note=55 velocity=80 time=0.3@note_on channel=0 note=65 velocity=95 time=0@note_on channel=0 note=59 velocity=95 time=0@note_off channel=0 note=65 velocity=80 time=0.6@note_off channel=0 note=59 velocity=80 time=0@note_off channel=0 note=43 velocity=80 time=0@note_on channel=0 note=48 velocity=95 time=0@note_on channel=0 note=60 velocity=95 time=0.15@note_off channel=0 note=60 velocity=80 time=0.15@note_on channel=0 note=63 velocity=95 time=0@note_off channel=0 note=63 velocity=80 time=0.15@note_on channel=0 note=70 velocity=95 time=0@note_off channel=0 note=70 velocity=80 time=0.15@note_on channel=0 note=70 velocity=95 time=0.15@note_on channel=0 note=63 velocity=95 time=0@note_on channel=0 note=60 velocity=95 time=0@note_off channel=0 note=70 velocity=80 time=0.15@note_off channel=0 note=63 velocity=80 time=0@note_off channel=0 note=60 velocity=80 time=0@note_off channel=0 note=48 velocity=80 time=0@note_on channel=0 note=48 velocity=95 time=0@note_off channel=0 note=48 velocity=80 time=0.15@note_on channel=0 note=53 velocity=95 time=0@note_on channel=0 note=69 velocity=95 time=0.45@note_on channel=0 note=60 velocity=95 time=0@note_off channel=0 note=53 velocity=80 time=0.3@note_on channel=0 note=51 velocity=95 time=0@note_off channel=0 note=69 velocity=80 time=0.6@note_off channel=0 note=60 velocity=80 time=0@note_off channel=0 note=51 velocity=80 time=0@note_on channel=0 note=50 velocity=95 time=0@note_on channel=0 note=57 velocity=95 time=0.15@note_off channel=0 note=57 velocity=80 time=0.15@note_on channel=0 note=62 velocity=95 time=0@note_off channel=0 note=62 velocity=80 time=0.15@note_on channel=0 note=69 velocity=95 time=0@note_off channel=0 note=69 velocity=80 time=0.15@note_on channel=0 note=69 velocity=95 time=0.15@note_on channel=0 note=62 velocity=95 time=0@note_on channel=0 note=57 velocity=95 time=0@note_off channel=0 note=69 velocity=80 time=0.15@note_off channel=0 note=62 velocity=80 time=0@note_off channel=0 note=57 velocity=80 time=0@note_on channel=0 note=70 velocity=95 time=0.15@note_on channel=0 note=62 velocity=95 time=0@note_off channel=0 note=50 velocity=80 time=0@note_on channel=0 note=43 velocity=95 time=0@note_off channel=0 note=70 velocity=80 time=0.3@note_off channel=0 note=62 velocity=80 time=0@note_on channel=0 note=69 velocity=95 time=0@note_off channel=0 note=69 velocity=80 time=0.15@note_on channel=0 note=67 velocity=95 time=0@note_off channel=0 note=67 velocity=80 time=0.15@note_on channel=0 note=65 velocity=95 time=0@note_off channel=0 note=65 velocity=80 time=0.15@note_on channel=0 note=67 velocity=95 time=0@note_off channel=0 note=67 velocity=80 time=0.15@note_on channel=0 note=62 velocity=95 time=0@note_off channel=0 note=62 velocity=80 time=0.15@note_on channel=0 note=60 velocity=95 time=0@note_off channel=0 note=60 velocity=80 time=0.15@note_on channel=0 note=58 velocity=95 time=0@note_off channel=0 note=58 velocity=80 time=0.15@note_off channel=0 note=43 velocity=80 time=0@note_on channel=0 note=48 velocity=95 time=0@note_on channel=0 note=60 velocity=95 time=0.15@note_off channel=0 note=60 velocity=80 time=0.15@note_on channel=0 note=63 velocity=95 time=0@note_off channel=0 note=63 velocity=80 time=0.15@note_on channel=0 note=70 velocity=95 time=0@note_off channel=0 note=70 velocity=80 time=0.15@note_on channel=0 note=70 velocity=95 time=0.15@note_on channel=0 note=63 velocity=95 time=0@note_on channel=0 note=60 velocity=95 time=0@note_off channel=0 note=70 velocity=80 time=0.15@note_off channel=0 note=63 velocity=80 time=0@note_off channel=0 note=60 velocity=80 time=0@note_off channel=0 note=48 velocity=80 time=0@note_on channel=0 note=48 velocity=95 time=0@note_off channel=0 note=48 velocity=80 time=0.15@note_on channel=0 note=53 velocity=95 time=0@note_on channel=0 note=69 velocity=95 time=0.45@note_on channel=0 note=60 velocity=95 time=0@note_off channel=0 note=53 velocity=80 time=0.3@note_on channel=0 note=51 velocity=95 time=0@note_off channel=0 note=69 velocity=80 time=0.6@note_off channel=0 note=60 velocity=80 time=0@note_off channel=0 note=51 velocity=80 time=0@note_on channel=0 note=50 velocity=95 time=0@note_on channel=0 note=57 velocity=95 time=0.15@note_off channel=0 note=57 velocity=80 time=0.15@note_on channel=0 note=62 velocity=95 time=0@note_off channel=0 note=62 velocity=80 time=0.15@note_on channel=0 note=69 velocity=95 time=0@note_off channel=0 note=69 velocity=80 time=0.15@note_on channel=0 note=69 velocity=95 time=0.15@note_on channel=0 note=62 velocity=95 time=0@note_on channel=0 note=57 velocity=95 time=0@note_off channel=0 note=69 velocity=80 time=0.15@note_off channel=0 note=62 velocity=80 time=0@note_off channel=0 note=57 velocity=80 time=0@note_on channel=0 note=70 velocity=95 time=0.15@note_off channel=0 note=50 velocity=80 time=0.15@note_on channel=0 note=55 velocity=95 time=0@note_off channel=0 note=70 velocity=80 time=0.15@note_on channel=0 note=72 velocity=95 time=0@note_off channel=0 note=72 velocity=80 time=0.15@note_on channel=0 note=69 velocity=95 time=0@note_off channel=0 note=69 velocity=80 time=0.15@note_on channel=0 note=70 velocity=95 time=0@note_off channel=0 note=70 velocity=80 time=0.15@note_on channel=0 note=67 velocity=95 time=0@note_off channel=0 note=67 velocity=80 time=0.6@note_off channel=0 note=55 velocity=80 time=0@<meta message end_of_track time=0>@