<meta message time_signature numerator=4 denominator=4 clocks_per_click=24 notated_32nd_notes_per_beat=8 time=0>@<meta message key_signature key='Ab' time=0>@<meta message set_tempo tempo=375000 time=0>@control_change channel=0 control=121 value=0 time=0@program_change channel=0 program=0 time=0@control_change channel=0 control=7 value=100 time=0@control_change channel=0 control=10 value=64 time=0@control_change channel=0 control=91 value=0 time=0@control_change channel=0 control=93 value=0 time=0@<meta message midi_port port=0 time=0>@<meta message key_signature key='Ab' time=0>@<meta message midi_port port=0 time=0>@<meta message key_signature key='Ab' time=0>@control_change channel=1 control=121 value=0 time=0@program_change channel=1 program=21 time=0@control_change channel=1 control=7 value=100 time=0@control_change channel=1 control=10 value=64 time=0@control_change channel=1 control=91 value=0 time=0@control_change channel=1 control=93 value=0 time=0@<meta message midi_port port=0 time=0>@<meta message key_signature key='Ab' time=0>@<meta message midi_port port=0 time=0>@note_on channel=1 note=53 velocity=112 time=0@<meta message key_signature key='Ab' time=0>@control_change channel=2 control=121 value=0 time=0@program_change channel=2 program=72 time=0@control_change channel=2 control=7 value=100 time=0@control_change channel=2 control=10 value=64 time=0@control_change channel=2 control=91 value=0 time=0@control_change channel=2 control=93 value=0 time=0@<meta message midi_port port=0 time=0>@<meta message key_signature key='Bb' time=0>@control_change channel=3 control=121 value=0 time=0@program_change channel=3 program=71 time=0@control_change channel=3 control=7 value=100 time=0@control_change channel=3 control=10 value=64 time=0@control_change channel=3 control=91 value=0 time=0@control_change channel=3 control=93 value=0 time=0@<meta message midi_port port=0 time=0>@<meta message key_signature key='Bb' time=0>@control_change channel=4 control=121 value=0 time=0@program_change channel=4 program=71 time=0@control_change channel=4 control=7 value=100 time=0@control_change channel=4 control=10 value=64 time=0@control_change channel=4 control=91 value=0 time=0@control_change channel=4 control=93 value=0 time=0@<meta message midi_port port=0 time=0>@<meta message key_signature key='F' time=0>@control_change channel=5 control=121 value=0 time=0@program_change channel=5 program=65 time=0@control_change channel=5 control=7 value=100 time=0@control_change channel=5 control=10 value=64 time=0@control_change channel=5 control=91 value=0 time=0@control_change channel=5 control=93 value=0 time=0@<meta message midi_port port=0 time=0>@<meta message key_signature key='Bb' time=0>@control_change channel=6 control=121 value=0 time=0@program_change channel=6 program=66 time=0@control_change channel=6 control=7 value=100 time=0@control_change channel=6 control=10 value=64 time=0@control_change channel=6 control=91 value=0 time=0@control_change channel=6 control=93 value=0 time=0@<meta message midi_port port=0 time=0>@<meta message key_signature key='F' time=0>@control_change channel=7 control=121 value=0 time=0@program_change channel=7 program=67 time=0@control_change channel=7 control=7 value=100 time=0@control_change channel=7 control=10 value=64 time=0@control_change channel=7 control=91 value=0 time=0@control_change channel=7 control=93 value=0 time=0@<meta message midi_port port=0 time=0>@note_on channel=7 note=53 velocity=112 time=0@<meta message key_signature key='Eb' time=0>@control_change channel=8 control=121 value=0 time=0@program_change channel=8 program=60 time=0@control_change channel=8 control=7 value=100 time=0@control_change channel=8 control=10 value=64 time=0@control_change channel=8 control=91 value=0 time=0@control_change channel=8 control=93 value=0 time=0@<meta message midi_port port=0 time=0>@<meta message key_signature key='Bb' time=0>@control_change channel=10 control=121 value=0 time=0@program_change channel=10 program=56 time=0@control_change channel=10 control=7 value=100 time=0@control_change channel=10 control=10 value=64 time=0@control_change channel=10 control=91 value=0 time=0@control_change channel=10 control=93 value=0 time=0@<meta message midi_port port=0 time=0>@control_change channel=11 control=121 value=0 time=0@program_change channel=11 program=59 time=0@control_change channel=11 control=7 value=100 time=0@control_change channel=11 control=10 value=64 time=0@control_change channel=11 control=91 value=0 time=0@control_change channel=11 control=93 value=0 time=0@<meta message midi_port port=0 time=0>@<meta message key_signature key='Ab' time=0>@control_change channel=12 control=121 value=0 time=0@program_change channel=12 program=57 time=0@control_change channel=12 control=7 value=100 time=0@control_change channel=12 control=10 value=64 time=0@control_change channel=12 control=91 value=0 time=0@control_change channel=12 control=93 value=0 time=0@<meta message midi_port port=0 time=0>@<meta message key_signature key='Ab' time=0>@control_change channel=13 control=121 value=0 time=0@program_change channel=13 program=58 time=0@control_change channel=13 control=7 value=100 time=0@control_change channel=13 control=10 value=64 time=0@control_change channel=13 control=91 value=0 time=0@control_change channel=13 control=93 value=0 time=0@<meta message midi_port port=0 time=0>@<meta message key_signature key='Ab' time=0>@control_change channel=14 control=121 value=0 time=0@program_change channel=14 program=58 time=0@control_change channel=14 control=7 value=100 time=0@control_change channel=14 control=10 value=64 time=0@control_change channel=14 control=91 value=0 time=0@control_change channel=14 control=93 value=0 time=0@<meta message midi_port port=0 time=0>@note_on channel=14 note=41 velocity=112 time=0@<meta message key_signature key='Ab' time=0>@control_change channel=15 control=121 value=0 time=0@program_change channel=15 program=14 time=0@control_change channel=15 control=7 value=100 time=0@control_change channel=15 control=10 value=64 time=0@control_change channel=15 control=91 value=0 time=0@control_change channel=15 control=93 value=0 time=0@<meta message midi_port port=0 time=0>@note_on channel=15 note=65 velocity=126 time=0@<meta message key_signature key='Ab' time=0>@control_change channel=0 control=121 value=0 time=0@program_change channel=0 program=12 time=0@control_change channel=0 control=7 value=100 time=0@control_change channel=0 control=10 value=64 time=0@control_change channel=0 control=91 value=0 time=0@control_change channel=0 control=93 value=0 time=0@<meta message midi_port port=1 time=0>@<meta message key_signature key='Ab' time=0>@<meta message midi_port port=1 time=0>@note_on channel=0 note=53 velocity=112 time=0@<meta message key_signature key='C' time=0>@<meta message key_signature key='C' time=0>@control_change channel=9 control=121 value=0 time=0@program_change channel=9 program=0 time=0@control_change channel=9 control=7 value=100 time=0@control_change channel=9 control=10 value=64 time=0@control_change channel=9 control=91 value=0 time=0@control_change channel=9 control=93 value=0 time=0@<meta message midi_port port=0 time=0>@<meta message key_signature key='C' time=0>@<meta message key_signature key='C' time=0>@control_change channel=9 control=121 value=0 time=0@program_change channel=9 program=0 time=0@control_change channel=9 control=7 value=100 time=0@control_change channel=9 control=10 value=64 time=0@control_change channel=9 control=91 value=0 time=0@control_change channel=9 control=93 value=0 time=0@<meta message midi_port port=1 time=0>@<meta message key_signature key='C' time=0>@<meta message key_signature key='C' time=0>@control_change channel=9 control=121 value=0 time=0@program_change channel=9 program=0 time=0@control_change channel=9 control=7 value=100 time=0@control_change channel=9 control=10 value=64 time=0@control_change channel=9 control=91 value=0 time=0@control_change channel=9 control=93 value=0 time=0@<meta message midi_port port=2 time=0>@note_on channel=9 note=42 velocity=112 time=0@<meta message key_signature key='C' time=0>@<meta message key_signature key='C' time=0>@control_change channel=9 control=121 value=0 time=0@program_change channel=9 program=0 time=0@control_change channel=9 control=7 value=100 time=0@control_change channel=9 control=10 value=60 time=0@control_change channel=9 control=91 value=0 time=0@control_change channel=9 control=93 value=0 time=0@<meta message midi_port port=3 time=0>@<meta message key_signature key='Ab' time=0>@control_change channel=1 control=121 value=0 time=0@program_change channel=1 program=40 time=0@control_change channel=1 control=7 value=127 time=0@control_change channel=1 control=10 value=64 time=0@control_change channel=1 control=91 value=0 time=0@control_change channel=1 control=93 value=0 time=0@<meta message midi_port port=1 time=0>@control_change channel=2 control=121 value=0 time=0@program_change channel=2 program=45 time=0@control_change channel=2 control=7 value=100 time=0@control_change channel=2 control=10 value=64 time=0@control_change channel=2 control=91 value=0 time=0@control_change channel=2 control=93 value=0 time=0@<meta message midi_port port=1 time=0>@control_change channel=3 control=121 value=0 time=0@program_change channel=3 program=44 time=0@control_change channel=3 control=7 value=127 time=0@control_change channel=3 control=10 value=64 time=0@control_change channel=3 control=91 value=0 time=0@control_change channel=3 control=93 value=0 time=0@<meta message midi_port port=1 time=0>@<meta message key_signature key='Ab' time=0>@control_change channel=4 control=121 value=0 time=0@program_change channel=4 program=41 time=0@control_change channel=4 control=7 value=127 time=0@control_change channel=4 control=10 value=64 time=0@control_change channel=4 control=91 value=0 time=0@control_change channel=4 control=93 value=0 time=0@<meta message midi_port port=1 time=0>@control_change channel=5 control=121 value=0 time=0@program_change channel=5 program=45 time=0@control_change channel=5 control=7 value=100 time=0@control_change channel=5 control=10 value=64 time=0@control_change channel=5 control=91 value=0 time=0@control_change channel=5 control=93 value=0 time=0@<meta message midi_port port=1 time=0>@control_change channel=6 control=121 value=0 time=0@program_change channel=6 program=44 time=0@control_change channel=6 control=7 value=127 time=0@control_change channel=6 control=10 value=64 time=0@control_change channel=6 control=91 value=0 time=0@control_change channel=6 control=93 value=0 time=0@<meta message midi_port port=1 time=0>@<meta message key_signature key='Ab' time=0>@control_change channel=7 control=121 value=0 time=0@program_change channel=7 program=42 time=0@control_change channel=7 control=7 value=100 time=0@control_change channel=7 control=10 value=64 time=0@control_change channel=7 control=91 value=0 time=0@control_change channel=7 control=93 value=0 time=0@<meta message midi_port port=1 time=0>@note_on channel=7 note=53 velocity=112 time=0@control_change channel=8 control=121 value=0 time=0@program_change channel=8 program=45 time=0@control_change channel=8 control=7 value=100 time=0@control_change channel=8 control=10 value=64 time=0@control_change channel=8 control=91 value=0 time=0@control_change channel=8 control=93 value=0 time=0@<meta message midi_port port=1 time=0>@control_change channel=10 control=121 value=0 time=0@program_change channel=10 program=44 time=0@control_change channel=10 control=7 value=100 time=0@control_change channel=10 control=10 value=64 time=0@control_change channel=10 control=91 value=0 time=0@control_change channel=10 control=93 value=0 time=0@<meta message midi_port port=1 time=0>@<meta message key_signature key='Ab' time=0>@control_change channel=11 control=121 value=0 time=0@program_change channel=11 program=43 time=0@control_change channel=11 control=7 value=100 time=0@control_change channel=11 control=10 value=64 time=0@control_change channel=11 control=91 value=0 time=0@control_change channel=11 control=93 value=0 time=0@<meta message midi_port port=1 time=0>@note_on channel=11 note=41 velocity=112 time=0@control_change channel=12 control=121 value=0 time=0@program_change channel=12 program=32 time=0@control_change channel=12 control=7 value=100 time=0@control_change channel=12 control=10 value=64 time=0@control_change channel=12 control=91 value=0 time=0@control_change channel=12 control=93 value=0 time=0@<meta message midi_port port=1 time=0>@control_change channel=13 control=121 value=0 time=0@program_change channel=13 program=44 time=0@control_change channel=13 control=7 value=100 time=0@control_change channel=13 control=10 value=64 time=0@control_change channel=13 control=91 value=0 time=0@control_change channel=13 control=93 value=0 time=0@<meta message midi_port port=1 time=0>@note_on channel=9 note=42 velocity=0 time=0.18671875000000002@note_on channel=9 note=42 velocity=112 time=0.00078125@note_on channel=9 note=42 velocity=0 time=0.18671875000000002@note_on channel=9 note=38 velocity=112 time=0.00078125@note_on channel=9 note=35 velocity=112 time=0@note_on channel=9 note=42 velocity=112 time=0@note_on channel=9 note=42 velocity=0 time=0.18671875000000002@note_on channel=9 note=42 velocity=112 time=0.00078125@note_on channel=9 note=42 velocity=0 time=0.09296875@note_on channel=9 note=42 velocity=112 time=0.00078125@note_on channel=9 note=38 velocity=0 time=0.09296875@note_on channel=9 note=35 velocity=0 time=0@note_on channel=9 note=42 velocity=0 time=0@note_on channel=9 note=42 velocity=112 time=0.00078125@note_on channel=9 note=42 velocity=0 time=0.18671875000000002@note_on channel=9 note=42 velocity=112 time=0.00078125@note_on channel=9 note=42 velocity=0 time=0.18671875000000002@note_on channel=9 note=38 velocity=112 time=0.00078125@note_on channel=9 note=35 velocity=112 time=0@note_on channel=9 note=42 velocity=112 time=0@note_on channel=9 note=38 velocity=0 time=0.09296875@note_on channel=9 note=42 velocity=0 time=0@note_on channel=9 note=38 velocity=112 time=0.00078125@note_on channel=9 note=42 velocity=112 time=0@note_on channel=9 note=38 velocity=0 time=0.09296875@note_on channel=1 note=53 velocity=0 time=0.1875@note_on channel=7 note=53 velocity=0 time=0@note_on channel=14 note=41 velocity=0 time=0@note_on channel=15 note=65 velocity=0 time=0@note_on channel=0 note=53 velocity=0 time=0@note_on channel=9 note=35 velocity=0 time=0@note_on channel=9 note=42 velocity=0 time=0@note_on channel=7 note=53 velocity=0 time=0@note_on channel=11 note=41 velocity=0 time=0@note_on channel=1 note=49 velocity=112 time=0.00078125@note_on channel=7 note=49 velocity=112 time=0@note_on channel=14 note=37 velocity=112 time=0@note_on channel=15 note=65 velocity=126 time=0@note_on channel=0 note=49 velocity=112 time=0@note_on channel=9 note=42 velocity=112 time=0@note_on channel=7 note=49 velocity=112 time=0@note_on channel=11 note=37 velocity=112 time=0@note_on channel=9 note=42 velocity=0 time=0.18671875000000002@note_on channel=9 note=42 velocity=112 time=0.00078125@note_on channel=9 note=42 velocity=0 time=0.18671875000000002@note_on channel=9 note=38 velocity=112 time=0.00078125@note_on channel=9 note=35 velocity=112 time=0@note_on channel=9 note=42 velocity=112 time=0@note_on channel=9 note=42 velocity=0 time=0.18671875000000002@note_on channel=9 note=42 velocity=112 time=0.00078125@note_on channel=9 note=42 velocity=0 time=0.09296875@note_on channel=9 note=42 velocity=112 time=0.00078125@note_on channel=9 note=38 velocity=0 time=0.09296875@note_on channel=9 note=35 velocity=0 time=0@note_on channel=9 note=42 velocity=0 time=0@note_on channel=9 note=42 velocity=112 time=0.00078125@note_on channel=9 note=42 velocity=0 time=0.18671875000000002@note_on channel=9 note=42 velocity=112 time=0.00078125@note_on channel=9 note=42 velocity=0 time=0.18671875000000002@note_on channel=9 note=38 velocity=112 time=0.00078125@note_on channel=9 note=35 velocity=112 time=0@note_on channel=9 note=42 velocity=112 time=0@note_on channel=9 note=38 velocity=0 time=0.09296875@note_on channel=9 note=42 velocity=0 time=0@note_on channel=9 note=38 velocity=112 time=0.00078125@note_on channel=9 note=42 velocity=112 time=0@note_on channel=9 note=38 velocity=0 time=0.09296875@note_on channel=1 note=49 velocity=0 time=0.1875@note_on channel=7 note=49 velocity=0 time=0@note_on channel=14 note=37 velocity=0 time=0@note_on channel=15 note=65 velocity=0 time=0@note_on channel=0 note=49 velocity=0 time=0@note_on channel=9 note=35 velocity=0 time=0@note_on channel=9 note=42 velocity=0 time=0@note_on channel=7 note=49 velocity=0 time=0@note_on channel=11 note=37 velocity=0 time=0@note_on channel=1 note=48 velocity=112 time=0.00078125@note_on channel=7 note=48 velocity=112 time=0@note_on channel=14 note=36 velocity=112 time=0@note_on channel=15 note=68 velocity=126 time=0@note_on channel=0 note=48 velocity=112 time=0@note_on channel=9 note=42 velocity=112 time=0@note_on channel=7 note=48 velocity=112 time=0@note_on channel=11 note=36 velocity=112 time=0@note_on channel=9 note=42 velocity=0 time=0.18671875000000002@note_on channel=9 note=42 velocity=112 time=0.00078125@note_on channel=9 note=42 velocity=0 time=0.18671875000000002@note_on channel=9 note=38 velocity=112 time=0.00078125@note_on channel=9 note=35 velocity=112 time=0@note_on channel=9 note=42 velocity=112 time=0@note_on channel=9 note=42 velocity=0 time=0.18671875000000002@note_on channel=9 note=42 velocity=112 time=0.00078125@note_on channel=9 note=42 velocity=0 time=0.09296875@note_on channel=9 note=42 velocity=112 time=0.00078125@note_on channel=9 note=38 velocity=0 time=0.09296875@note_on channel=9 note=35 velocity=0 time=0@note_on channel=9 note=42 velocity=0 time=0@note_on channel=9 note=42 velocity=112 time=0.00078125@note_on channel=9 note=42 velocity=0 time=0.18671875000000002@note_on channel=9 note=42 velocity=112 time=0.00078125@note_on channel=9 note=42 velocity=0 time=0.18671875000000002@note_on channel=9 note=38 velocity=112 time=0.00078125@note_on channel=9 note=35 velocity=112 time=0@note_on channel=9 note=42 velocity=112 time=0@note_on channel=9 note=38 velocity=0 time=0.09296875@note_on channel=9 note=42 velocity=0 time=0@note_on channel=9 note=38 velocity=112 time=0.00078125@note_on channel=9 note=42 velocity=112 time=0@note_on channel=9 note=38 velocity=0 time=0.09296875@note_on channel=1 note=48 velocity=0 time=0.1875@note_on channel=7 note=48 velocity=0 time=0@note_on channel=14 note=36 velocity=0 time=0@note_on channel=15 note=68 velocity=0 time=0@note_on channel=0 note=48 velocity=0 time=0@note_on channel=9 note=35 velocity=0 time=0@note_on channel=9 note=42 velocity=0 time=0@note_on channel=7 note=48 velocity=0 time=0@note_on channel=11 note=36 velocity=0 time=0@note_on channel=1 note=52 velocity=112 time=0.00078125@note_on channel=7 note=52 velocity=112 time=0@note_on channel=14 note=40 velocity=112 time=0@note_on channel=15 note=67 velocity=126 time=0@note_on channel=0 note=52 velocity=112 time=0@note_on channel=9 note=42 velocity=112 time=0@note_on channel=7 note=52 velocity=112 time=0@note_on channel=11 note=40 velocity=112 time=0@note_on channel=9 note=42 velocity=0 time=0.18671875000000002@note_on channel=9 note=42 velocity=112 time=0.00078125@note_on channel=9 note=42 velocity=0 time=0.18671875000000002@note_on channel=9 note=38 velocity=112 time=0.00078125@note_on channel=9 note=35 velocity=112 time=0@note_on channel=9 note=42 velocity=112 time=0@note_on channel=9 note=42 velocity=0 time=0.18671875000000002@note_on channel=9 note=42 velocity=112 time=0.00078125@note_on channel=9 note=42 velocity=0 time=0.09296875@note_on channel=9 note=42 velocity=112 time=0.00078125@note_on channel=9 note=38 velocity=0 time=0.09296875@note_on channel=9 note=35 velocity=0 time=0@note_on channel=9 note=42 velocity=0 time=0@note_on channel=9 note=42 velocity=112 time=0.00078125@note_on channel=9 note=42 velocity=0 time=0.18671875000000002@note_on channel=9 note=42 velocity=112 time=0.00078125@note_on channel=9 note=42 velocity=0 time=0.18671875000000002@note_on channel=9 note=38 velocity=112 time=0.00078125@note_on channel=9 note=35 velocity=112 time=0@note_on channel=9 note=42 velocity=112 time=0@note_on channel=9 note=38 velocity=0 time=0.09296875@note_on channel=9 note=42 velocity=0 time=0@note_on channel=9 note=38 velocity=112 time=0.00078125@note_on channel=9 note=42 velocity=112 time=0@note_on channel=9 note=38 velocity=0 time=0.09296875@note_on channel=1 note=52 velocity=0 time=0.1875@note_on channel=7 note=52 velocity=0 time=0@note_on channel=14 note=40 velocity=0 time=0@note_on channel=15 note=67 velocity=0 time=0@note_on channel=0 note=52 velocity=0 time=0@note_on channel=9 note=35 velocity=0 time=0@note_on channel=9 note=42 velocity=0 time=0@note_on channel=7 note=52 velocity=0 time=0@note_on channel=11 note=40 velocity=0 time=0@note_on channel=1 note=53 velocity=112 time=0.00078125@note_on channel=7 note=53 velocity=112 time=0@note_on channel=14 note=41 velocity=112 time=0@note_on channel=15 note=65 velocity=126 time=0@note_on channel=0 note=53 velocity=112 time=0@note_on channel=9 note=42 velocity=112 time=0@note_on channel=7 note=53 velocity=112 time=0@note_on channel=11 note=41 velocity=112 time=0@note_on channel=9 note=42 velocity=0 time=0.18671875000000002@note_on channel=9 note=42 velocity=112 time=0.00078125@note_on channel=9 note=42 velocity=0 time=0.18671875000000002@note_on channel=9 note=38 velocity=112 time=0.00078125@note_on channel=9 note=35 velocity=112 time=0@note_on channel=9 note=42 velocity=112 time=0@note_on channel=9 note=42 velocity=0 time=0.18671875000000002@note_on channel=9 note=42 velocity=112 time=0.00078125@note_on channel=9 note=42 velocity=0 time=0.09296875@note_on channel=9 note=42 velocity=112 time=0.00078125@note_on channel=9 note=38 velocity=0 time=0.09296875@note_on channel=9 note=35 velocity=0 time=0@note_on channel=9 note=42 velocity=0 time=0@note_on channel=9 note=42 velocity=112 time=0.00078125@note_on channel=9 note=42 velocity=0 time=0.18671875000000002@note_on channel=9 note=42 velocity=112 time=0.00078125@note_on channel=9 note=42 velocity=0 time=0.18671875000000002@note_on channel=9 note=38 velocity=112 time=0.00078125@note_on channel=9 note=35 velocity=112 time=0@note_on channel=9 note=42 velocity=112 time=0@note_on channel=9 note=38 velocity=0 time=0.09296875@note_on channel=9 note=42 velocity=0 time=0@note_on channel=9 note=38 velocity=112 time=0.00078125@note_on channel=9 note=42 velocity=112 time=0@note_on channel=9 note=38 velocity=0 time=0.09296875@note_on channel=1 note=53 velocity=0 time=0.1875@note_on channel=7 note=53 velocity=0 time=0@note_on channel=14 note=41 velocity=0 time=0@note_on channel=15 note=65 velocity=0 time=0@note_on channel=0 note=53 velocity=0 time=0@note_on channel=9 note=35 velocity=0 time=0@note_on channel=9 note=42 velocity=0 time=0@note_on channel=7 note=53 velocity=0 time=0@note_on channel=11 note=41 velocity=0 time=0@note_on channel=1 note=49 velocity=112 time=0.00078125@note_on channel=7 note=49 velocity=112 time=0@note_on channel=14 note=37 velocity=112 time=0@note_on channel=15 note=65 velocity=126 time=0@note_on channel=0 note=49 velocity=112 time=0@note_on channel=9 note=42 velocity=112 time=0@note_on channel=7 note=49 velocity=112 time=0@note_on channel=11 note=37 velocity=112 time=0@note_on channel=9 note=42 velocity=0 time=0.18671875000000002@note_on channel=9 note=42 velocity=112 time=0.00078125@note_on channel=9 note=42 velocity=0 time=0.18671875000000002@note_on channel=9 note=38 velocity=112 time=0.00078125@note_on channel=9 note=35 velocity=112 time=0@note_on channel=9 note=42 velocity=112 time=0@note_on channel=9 note=42 velocity=0 time=0.18671875000000002@note_on channel=9 note=42 velocity=112 time=0.00078125@note_on channel=9 note=42 velocity=0 time=0.09296875@note_on channel=9 note=42 velocity=112 time=0.00078125@note_on channel=9 note=38 velocity=0 time=0.09296875@note_on channel=9 note=35 velocity=0 time=0@note_on channel=9 note=42 velocity=0 time=0@note_on channel=9 note=42 velocity=112 time=0.00078125@note_on channel=9 note=42 velocity=0 time=0.18671875000000002@note_on channel=9 note=42 velocity=112 time=0.00078125@note_on channel=9 note=42 velocity=0 time=0.18671875000000002@note_on channel=9 note=38 velocity=112 time=0.00078125@note_on channel=9 note=35 velocity=112 time=0@note_on channel=9 note=42 velocity=112 time=0@note_on channel=9 note=38 velocity=0 time=0.09296875@note_on channel=9 note=42 velocity=0 time=0@note_on channel=9 note=38 velocity=112 time=0.00078125@note_on channel=9 note=42 velocity=112 time=0@note_on channel=9 note=38 velocity=0 time=0.09296875@note_on channel=1 note=49 velocity=0 time=0.1875@note_on channel=7 note=49 velocity=0 time=0@note_on channel=14 note=37 velocity=0 time=0@note_on channel=15 note=65 velocity=0 time=0@note_on channel=0 note=49 velocity=0 time=0@note_on channel=9 note=35 velocity=0 time=0@note_on channel=9 note=42 velocity=0 time=0@note_on channel=7 note=49 velocity=0 time=0@note_on channel=11 note=37 velocity=0 time=0@note_on channel=1 note=48 velocity=112 time=0.00078125@note_on channel=7 note=48 velocity=112 time=0@note_on channel=14 note=36 velocity=112 time=0@note_on channel=15 note=68 velocity=126 time=0@note_on channel=0 note=48 velocity=112 time=0@note_on channel=9 note=42 velocity=112 time=0@note_on channel=7 note=48 velocity=112 time=0@note_on channel=11 note=36 velocity=112 time=0@note_on channel=9 note=42 velocity=0 time=0.18671875000000002@note_on channel=9 note=42 velocity=112 time=0.00078125@note_on channel=9 note=42 velocity=0 time=0.18671875000000002@note_on channel=9 note=38 velocity=112 time=0.00078125@note_on channel=9 note=35 velocity=112 time=0@note_on channel=9 note=42 velocity=112 time=0@note_on channel=9 note=42 velocity=0 time=0.18671875000000002@note_on channel=9 note=42 velocity=112 time=0.00078125@note_on channel=9 note=42 velocity=0 time=0.09296875@note_on channel=9 note=42 velocity=112 time=0.00078125@note_on channel=9 note=38 velocity=0 time=0.09296875@note_on channel=9 note=35 velocity=0 time=0@note_on channel=9 note=42 velocity=0 time=0@note_on channel=9 note=42 velocity=112 time=0.00078125@note_on channel=9 note=42 velocity=0 time=0.18671875000000002@note_on channel=9 note=42 velocity=112 time=0.00078125@note_on channel=9 note=42 velocity=0 time=0.18671875000000002@note_on channel=9 note=38 velocity=112 time=0.00078125@note_on channel=9 note=35 velocity=112 time=0@note_on channel=9 note=42 velocity=112 time=0@note_on channel=9 note=38 velocity=0 time=0.09296875@note_on channel=9 note=42 velocity=0 time=0@note_on channel=9 note=38 velocity=112 time=0.00078125@note_on channel=9 note=42 velocity=112 time=0@note_on channel=9 note=38 velocity=0 time=0.09296875@note_on channel=1 note=48 velocity=0 time=0.1875@note_on channel=7 note=48 velocity=0 time=0@note_on channel=14 note=36 velocity=0 time=0@note_on channel=15 note=68 velocity=0 time=0@note_on channel=0 note=48 velocity=0 time=0@note_on channel=9 note=35 velocity=0 time=0@note_on channel=9 note=42 velocity=0 time=0@note_on channel=7 note=48 velocity=0 time=0@note_on channel=11 note=36 velocity=0 time=0@note_on channel=1 note=52 velocity=112 time=0.00078125@note_on channel=7 note=52 velocity=112 time=0@note_on channel=14 note=40 velocity=112 time=0@note_on channel=15 note=70 velocity=126 time=0@note_on channel=0 note=52 velocity=112 time=0@note_on channel=9 note=42 velocity=112 time=0@note_on channel=7 note=52 velocity=112 time=0@note_on channel=11 note=40 velocity=112 time=0@note_on channel=9 note=42 velocity=0 time=0.18671875000000002@note_on channel=9 note=42 velocity=112 time=0.00078125@note_on channel=9 note=42 velocity=0 time=0.18671875000000002@note_on channel=9 note=38 velocity=112 time=0.00078125@note_on channel=9 note=35 velocity=112 time=0@note_on channel=9 note=42 velocity=112 time=0@note_on channel=9 note=42 velocity=0 time=0.18671875000000002@note_on channel=9 note=42 velocity=112 time=0.00078125@note_on channel=9 note=42 velocity=0 time=0.09296875@note_on channel=9 note=42 velocity=112 time=0.00078125@note_on channel=15 note=70 velocity=0 time=0.09296875@note_on channel=9 note=38 velocity=0 time=0@note_on channel=9 note=35 velocity=0 time=0@note_on channel=9 note=42 velocity=0 time=0@note_on channel=15 note=68 velocity=126 time=0.00078125@note_on channel=9 note=42 velocity=112 time=0@note_on channel=9 note=42 velocity=0 time=0.18671875000000002@note_on channel=9 note=42 velocity=112 time=0.00078125@note_on channel=15 note=68 velocity=0 time=0.18671875000000002@note_on channel=9 note=42 velocity=0 time=0@note_on channel=15 note=67 velocity=126 time=0.00078125@note_on channel=9 note=38 velocity=112 time=0@note_on channel=9 note=35 velocity=112 time=0@note_on channel=9 note=42 velocity=112 time=0@note_on channel=9 note=38 velocity=0 time=0.09296875@note_on channel=9 note=42 velocity=0 time=0@note_on channel=9 note=38 velocity=112 time=0.00078125@note_on channel=9 note=42 velocity=112 time=0@note_on channel=9 note=38 velocity=0 time=0.09296875@note_on channel=1 note=52 velocity=0 time=0.1875@note_on channel=7 note=52 velocity=0 time=0@note_on channel=14 note=40 velocity=0 time=0@note_on channel=15 note=67 velocity=0 time=0@note_on channel=0 note=52 velocity=0 time=0@note_on channel=9 note=35 velocity=0 time=0@note_on channel=9 note=42 velocity=0 time=0@note_on channel=7 note=52 velocity=0 time=0@note_on channel=11 note=40 velocity=0 time=0@note_on channel=1 note=53 velocity=112 time=0.00078125@note_on channel=6 note=53 velocity=126 time=0@note_on channel=7 note=53 velocity=112 time=0@note_on channel=8 note=53 velocity=126 time=0@note_on channel=12 note=53 velocity=126 time=0@note_on channel=14 note=41 velocity=112 time=0@note_on channel=15 note=65 velocity=112 time=0@note_on channel=0 note=53 velocity=112 time=0@note_on channel=9 note=42 velocity=112 time=0@note_on channel=9 note=57 velocity=112 time=0@note_on channel=7 note=53 velocity=112 time=0@note_on channel=11 note=41 velocity=112 time=0@note_on channel=9 note=42 velocity=0 time=0.18671875000000002@note_on channel=9 note=42 velocity=112 time=0.00078125@note_on channel=9 note=42 velocity=0 time=0.18671875000000002@note_on channel=9 note=57 velocity=0 time=0@note_on channel=9 note=38 velocity=112 time=0.00078125@note_on channel=9 note=35 velocity=112 time=0@note_on channel=9 note=42 velocity=112 time=0@note_on channel=6 note=53 velocity=0 time=0.18671875000000002@note_on channel=8 note=53 velocity=0 time=0@note_on channel=12 note=53 velocity=0 time=0@note_on channel=9 note=42 velocity=0 time=0@note_on channel=6 note=53 velocity=126 time=0.00078125@note_on channel=8 note=53 velocity=126 time=0@note_on channel=12 note=53 velocity=126 time=0@note_on channel=9 note=42 velocity=112 time=0@note_on channel=9 note=42 velocity=0 time=0.09296875@note_on channel=9 note=42 velocity=112 time=0.00078125@note_on channel=9 note=38 velocity=0 time=0.09296875@note_on channel=9 note=35 velocity=0 time=0@note_on channel=9 note=42 velocity=0 time=0@note_on channel=9 note=42 velocity=112 time=0.00078125@note_on channel=9 note=42 velocity=0 time=0.18671875000000002@note_on channel=9 note=42 velocity=112 time=0.00078125@note_on channel=9 note=42 velocity=0 time=0.18671875000000002@note_on channel=9 note=38 velocity=112 time=0.00078125@note_on channel=9 note=35 velocity=112 time=0@note_on channel=9 note=42 velocity=112 time=0@note_on channel=9 note=38 velocity=0 time=0.09296875@note_on channel=9 note=42 velocity=0 time=0@note_on channel=9 note=38 velocity=112 time=0.00078125@note_on channel=9 note=42 velocity=112 time=0@note_on channel=9 note=38 velocity=0 time=0.09296875@note_on channel=1 note=53 velocity=0 time=0.1875@note_on channel=6 note=53 velocity=0 time=0@note_on channel=7 note=53 velocity=0 time=0@note_on channel=8 note=53 velocity=0 time=0@note_on channel=12 note=53 velocity=0 time=0@note_on channel=14 note=41 velocity=0 time=0@note_on channel=15 note=65 velocity=0 time=0@note_on channel=0 note=53 velocity=0 time=0@note_on channel=9 note=35 velocity=0 time=0@note_on channel=9 note=42 velocity=0 time=0@note_on channel=7 note=53 velocity=0 time=0@note_on channel=11 note=41 velocity=0 time=0@note_on channel=1 note=49 velocity=112 time=0.00078125@note_on channel=6 note=53 velocity=126 time=0@note_on channel=7 note=49 velocity=112 time=0@note_on channel=8 note=53 velocity=126 time=0@note_on channel=12 note=53 velocity=126 time=0@note_on channel=14 note=37 velocity=112 time=0@note_on channel=15 note=65 velocity=112 time=0@note_on channel=0 note=49 velocity=112 time=0@note_on channel=9 note=42 velocity=112 time=0@note_on channel=7 note=49 velocity=112 time=0@note_on channel=11 note=37 velocity=112 time=0@note_on channel=9 note=42 velocity=0 time=0.18671875000000002@note_on channel=9 note=42 velocity=112 time=0.00078125@note_on channel=9 note=42 velocity=0 time=0.18671875000000002@note_on channel=9 note=38 velocity=112 time=0.00078125@note_on channel=9 note=35 velocity=112 time=0@note_on channel=9 note=42 velocity=112 time=0@note_on channel=6 note=53 velocity=0 time=0.18671875000000002@note_on channel=8 note=53 velocity=0 time=0@note_on channel=12 note=53 velocity=0 time=0@note_on channel=9 note=42 velocity=0 time=0@note_on channel=6 note=53 velocity=126 time=0.00078125@note_on channel=8 note=53 velocity=126 time=0@note_on channel=12 note=53 velocity=126 time=0@note_on channel=9 note=42 velocity=112 time=0@note_on channel=9 note=42 velocity=0 time=0.09296875@note_on channel=9 note=42 velocity=112 time=0.00078125@note_on channel=9 note=38 velocity=0 time=0.09296875@note_on channel=9 note=35 velocity=0 time=0@note_on channel=9 note=42 velocity=0 time=0@note_on channel=9 note=42 velocity=112 time=0.00078125@note_on channel=9 note=42 velocity=0 time=0.18671875000000002@note_on channel=9 note=42 velocity=112 time=0.00078125@note_on channel=6 note=53 velocity=0 time=0.18671875000000002@note_on channel=8 note=53 velocity=0 time=0@note_on channel=12 note=53 velocity=0 time=0@note_on channel=9 note=42 velocity=0 time=0@note_on channel=6 note=56 velocity=126 time=0.00078125@note_on channel=8 note=56 velocity=126 time=0@note_on channel=12 note=56 velocity=126 time=0@note_on channel=9 note=38 velocity=112 time=0@note_on channel=9 note=35 velocity=112 time=0@note_on channel=9 note=42 velocity=112 time=0@note_on channel=9 note=38 velocity=0 time=0.09296875@note_on channel=9 note=42 velocity=0 time=0@note_on channel=9 note=38 velocity=112 time=0.00078125@note_on channel=9 note=42 velocity=112 time=0@note_on channel=9 note=38 velocity=0 time=0.09296875@note_on channel=1 note=49 velocity=0 time=0.1875@note_on channel=6 note=56 velocity=0 time=0@note_on channel=7 note=49 velocity=0 time=0@note_on channel=8 note=56 velocity=0 time=0@note_on channel=12 note=56 velocity=0 time=0@note_on channel=14 note=37 velocity=0 time=0@note_on channel=15 note=65 velocity=0 time=0@note_on channel=0 note=49 velocity=0 time=0@note_on channel=9 note=35 velocity=0 time=0@note_on channel=9 note=42 velocity=0 time=0@note_on channel=7 note=49 velocity=0 time=0@note_on channel=11 note=37 velocity=0 time=0@note_on channel=1 note=48 velocity=112 time=0.00078125@note_on channel=6 note=52 velocity=126 time=0@note_on channel=7 note=48 velocity=112 time=0@note_on channel=8 note=52 velocity=126 time=0@note_on channel=12 note=52 velocity=126 time=0@note_on channel=14 note=36 velocity=112 time=0@note_on channel=15 note=68 velocity=112 time=0@note_on channel=0 note=48 velocity=112 time=0@note_on channel=9 note=42 velocity=112 time=0@note_on channel=7 note=48 velocity=112 time=0@note_on channel=11 note=36 velocity=112 time=0@note_on channel=9 note=42 velocity=0 time=0.18671875000000002@note_on channel=9 note=42 velocity=112 time=0.00078125@note_on channel=9 note=42 velocity=0 time=0.18671875000000002@note_on channel=9 note=38 velocity=112 time=0.00078125@note_on channel=9 note=35 velocity=112 time=0@note_on channel=9 note=42 velocity=112 time=0@note_on channel=6 note=52 velocity=0 time=0.18671875000000002@note_on channel=8 note=52 velocity=0 time=0@note_on channel=12 note=52 velocity=0 time=0@note_on channel=9 note=42 velocity=0 time=0@note_on channel=6 note=52 velocity=126 time=0.00078125@note_on channel=8 note=52 velocity=126 time=0@note_on channel=12 note=52 velocity=126 time=0@note_on channel=9 note=42 velocity=112 time=0@note_on channel=9 note=42 velocity=0 time=0.09296875@note_on channel=9 note=42 velocity=112 time=0.00078125@note_on channel=9 note=38 velocity=0 time=0.09296875@note_on channel=9 note=35 velocity=0 time=0@note_on channel=9 note=42 velocity=0 time=0@note_on channel=9 note=42 velocity=112 time=0.00078125@note_on channel=9 note=42 velocity=0 time=0.18671875000000002@note_on channel=9 note=42 velocity=112 time=0.00078125@note_on channel=6 note=52 velocity=0 time=0.18671875000000002@note_on channel=8 note=52 velocity=0 time=0@note_on channel=12 note=52 velocity=0 time=0@note_on channel=9 note=42 velocity=0 time=0@note_on channel=6 note=60 velocity=126 time=0.00078125@note_on channel=8 note=60 velocity=126 time=0@note_on channel=12 note=60 velocity=126 time=0@note_on channel=9 note=38 velocity=112 time=0@note_on channel=9 note=35 velocity=112 time=0@note_on channel=9 note=42 velocity=112 time=0@note_on channel=9 note=38 velocity=0 time=0.09296875@note_on channel=9 note=42 velocity=0 time=0@note_on channel=9 note=38 velocity=112 time=0.00078125@note_on channel=9 note=42 velocity=112 time=0@note_on channel=9 note=38 velocity=0 time=0.09296875@note_on channel=1 note=48 velocity=0 time=0.1875@note_on channel=6 note=60 velocity=0 time=0@note_on channel=7 note=48 velocity=0 time=0@note_on channel=8 note=60 velocity=0 time=0@note_on channel=12 note=60 velocity=0 time=0@note_on channel=14 note=36 velocity=0 time=0@note_on channel=15 note=68 velocity=0 time=0@note_on channel=0 note=48 velocity=0 time=0@note_on channel=9 note=35 velocity=0 time=0@note_on channel=9 note=42 velocity=0 time=0@note_on channel=7 note=48 velocity=0 time=0@note_on channel=11 note=36 velocity=0 time=0@note_on channel=1 note=52 velocity=112 time=0.00078125@note_on channel=6 note=58 velocity=126 time=0@note_on channel=7 note=52 velocity=112 time=0@note_on channel=8 note=58 velocity=126 time=0@note_on channel=12 note=58 velocity=126 time=0@note_on channel=14 note=40 velocity=112 time=0@note_on channel=15 note=67 velocity=112 time=0@note_on channel=0 note=52 velocity=112 time=0@note_on channel=9 note=42 velocity=112 time=0@note_on channel=7 note=52 velocity=112 time=0@note_on channel=11 note=40 velocity=112 time=0@note_on channel=9 note=42 velocity=0 time=0.18671875000000002@note_on channel=9 note=42 velocity=112 time=0.00078125@note_on channel=6 note=58 velocity=0 time=0.18671875000000002@note_on channel=8 note=58 velocity=0 time=0@note_on channel=12 note=58 velocity=0 time=0@note_on channel=9 note=42 velocity=0 time=0@note_on channel=6 note=56 velocity=126 time=0.00078125@note_on channel=8 note=56 velocity=126 time=0@note_on channel=12 note=56 velocity=126 time=0@note_on channel=9 note=38 velocity=112 time=0@note_on channel=9 note=35 velocity=112 time=0@note_on channel=9 note=42 velocity=112 time=0@note_on channel=9 note=42 velocity=0 time=0.18671875000000002@note_on channel=9 note=42 velocity=112 time=0.00078125@note_on channel=9 note=42 velocity=0 time=0.09296875@note_on channel=9 note=42 velocity=112 time=0.00078125@note_on channel=6 note=56 velocity=0 time=0.09296875@note_on channel=8 note=56 velocity=0 time=0@note_on channel=12 note=56 velocity=0 time=0@note_on channel=9 note=38 velocity=0 time=0@note_on channel=9 note=35 velocity=0 time=0@note_on channel=9 note=42 velocity=0 time=0@note_on channel=6 note=55 velocity=126 time=0.00078125@note_on channel=8 note=55 velocity=126 time=0@note_on channel=12 note=55 velocity=126 time=0@note_on channel=9 note=42 velocity=112 time=0@note_on channel=9 note=42 velocity=0 time=0.18671875000000002@note_on channel=9 note=42 velocity=112 time=0.00078125@note_on channel=9 note=42 velocity=0 time=0.18671875000000002@note_on channel=9 note=38 velocity=112 time=0.00078125@note_on channel=9 note=35 velocity=112 time=0@note_on channel=9 note=42 velocity=112 time=0@note_on channel=9 note=38 velocity=0 time=0.09296875@note_on channel=9 note=42 velocity=0 time=0@note_on channel=9 note=38 velocity=112 time=0.00078125@note_on channel=9 note=42 velocity=112 time=0@note_on channel=9 note=38 velocity=0 time=0.09296875@note_on channel=1 note=52 velocity=0 time=0.1875@note_on channel=6 note=55 velocity=0 time=0@note_on channel=7 note=52 velocity=0 time=0@note_on channel=8 note=55 velocity=0 time=0@note_on channel=12 note=55 velocity=0 time=0@note_on channel=14 note=40 velocity=0 time=0@note_on channel=15 note=67 velocity=0 time=0@note_on channel=0 note=52 velocity=0 time=0@note_on channel=9 note=35 velocity=0 time=0@note_on channel=9 note=42 velocity=0 time=0@note_on channel=7 note=52 velocity=0 time=0@note_on channel=11 note=40 velocity=0 time=0@note_on channel=1 note=53 velocity=112 time=0.00078125@note_on channel=6 note=53 velocity=126 time=0@note_on channel=7 note=53 velocity=112 time=0@note_on channel=8 note=53 velocity=126 time=0@note_on channel=12 note=53 velocity=126 time=0@note_on channel=14 note=41 velocity=112 time=0@note_on channel=15 note=65 velocity=112 time=0@note_on channel=0 note=53 velocity=112 time=0@note_on channel=9 note=42 velocity=112 time=0@note_on channel=7 note=53 velocity=112 time=0@note_on channel=11 note=41 velocity=112 time=0@note_on channel=9 note=42 velocity=0 time=0.18671875000000002@note_on channel=9 note=42 velocity=112 time=0.00078125@note_on channel=9 note=42 velocity=0 time=0.18671875000000002@note_on channel=9 note=38 velocity=112 time=0.00078125@note_on channel=9 note=35 velocity=112 time=0@note_on channel=9 note=42 velocity=112 time=0@note_on channel=6 note=53 velocity=0 time=0.18671875000000002@note_on channel=8 note=53 velocity=0 time=0@note_on channel=12 note=53 velocity=0 time=0@note_on channel=9 note=42 velocity=0 time=0@note_on channel=6 note=53 velocity=126 time=0.00078125@note_on channel=8 note=53 velocity=126 time=0@note_on channel=12 note=53 velocity=126 time=0@note_on channel=9 note=42 velocity=112 time=0@note_on channel=9 note=42 velocity=0 time=0.09296875@note_on channel=9 note=42 velocity=112 time=0.00078125@note_on channel=9 note=38 velocity=0 time=0.09296875@note_on channel=9 note=35 velocity=0 time=0@note_on channel=9 note=42 velocity=0 time=0@note_on channel=9 note=42 velocity=112 time=0.00078125@note_on channel=9 note=42 velocity=0 time=0.18671875000000002@note_on channel=9 note=42 velocity=112 time=0.00078125@note_on channel=9 note=42 velocity=0 time=0.18671875000000002@note_on channel=9 note=38 velocity=112 time=0.00078125@note_on channel=9 note=35 velocity=112 time=0@note_on channel=9 note=42 velocity=112 time=0@note_on channel=9 note=38 velocity=0 time=0.09296875@note_on channel=9 note=42 velocity=0 time=0@note_on channel=9 note=38 velocity=112 time=0.00078125@note_on channel=9 note=42 velocity=112 time=0@note_on channel=9 note=38 velocity=0 time=0.09296875@note_on channel=1 note=53 velocity=0 time=0.1875@note_on channel=6 note=53 velocity=0 time=0@note_on channel=7 note=53 velocity=0 time=0@note_on channel=8 note=53 velocity=0 time=0@note_on channel=12 note=53 velocity=0 time=0@note_on channel=14 note=41 velocity=0 time=0@note_on channel=15 note=65 velocity=0 time=0@note_on channel=0 note=53 velocity=0 time=0@note_on channel=9 note=35 velocity=0 time=0@note_on channel=9 note=42 velocity=0 time=0@note_on channel=7 note=53 velocity=0 time=0@note_on channel=11 note=41 velocity=0 time=0@note_on channel=1 note=49 velocity=112 time=0.00078125@note_on channel=6 note=53 velocity=126 time=0@note_on channel=7 note=49 velocity=112 time=0@note_on channel=8 note=53 velocity=126 time=0@note_on channel=12 note=53 velocity=126 time=0@note_on channel=14 note=37 velocity=112 time=0@note_on channel=15 note=65 velocity=112 time=0@note_on channel=0 note=49 velocity=112 time=0@note_on channel=9 note=42 velocity=112 time=0@note_on channel=7 note=49 velocity=112 time=0@note_on channel=11 note=37 velocity=112 time=0@note_on channel=9 note=42 velocity=0 time=0.18671875000000002@note_on channel=9 note=42 velocity=112 time=0.00078125@note_on channel=9 note=42 velocity=0 time=0.18671875000000002@note_on channel=9 note=38 velocity=112 time=0.00078125@note_on channel=9 note=35 velocity=112 time=0@note_on channel=9 note=42 velocity=112 time=0@note_on channel=6 note=53 velocity=0 time=0.18671875000000002@note_on channel=8 note=53 velocity=0 time=0@note_on channel=12 note=53 velocity=0 time=0@note_on channel=9 note=42 velocity=0 time=0@note_on channel=6 note=53 velocity=126 time=0.00078125@note_on channel=8 note=53 velocity=126 time=0@note_on channel=12 note=53 velocity=126 time=0@note_on channel=9 note=42 velocity=112 time=0@note_on channel=9 note=42 velocity=0 time=0.09296875@note_on channel=9 note=42 velocity=112 time=0.00078125@note_on channel=9 note=38 velocity=0 time=0.09296875@note_on channel=9 note=35 velocity=0 time=0@note_on channel=9 note=42 velocity=0 time=0@note_on channel=9 note=42 velocity=112 time=0.00078125@note_on channel=9 note=42 velocity=0 time=0.18671875000000002@note_on channel=9 note=42 velocity=112 time=0.00078125@note_on channel=6 note=53 velocity=0 time=0.18671875000000002@note_on channel=8 note=53 velocity=0 time=0@note_on channel=12 note=53 velocity=0 time=0@note_on channel=9 note=42 velocity=0 time=0@note_on channel=6 note=56 velocity=126 time=0.00078125@note_on channel=8 note=56 velocity=126 time=0@note_on channel=12 note=56 velocity=126 time=0@note_on channel=9 note=38 velocity=112 time=0@note_on channel=9 note=35 velocity=112 time=0@note_on channel=9 note=42 velocity=112 time=0@note_on channel=9 note=38 velocity=0 time=0.09296875@note_on channel=9 note=42 velocity=0 time=0@note_on channel=9 note=38 velocity=112 time=0.00078125@note_on channel=9 note=42 velocity=112 time=0@note_on channel=9 note=38 velocity=0 time=0.09296875@note_on channel=1 note=49 velocity=0 time=0.1875@note_on channel=6 note=56 velocity=0 time=0@note_on channel=7 note=49 velocity=0 time=0@note_on channel=8 note=56 velocity=0 time=0@note_on channel=12 note=56 velocity=0 time=0@note_on channel=14 note=37 velocity=0 time=0@note_on channel=15 note=65 velocity=0 time=0@note_on channel=0 note=49 velocity=0 time=0@note_on channel=9 note=35 velocity=0 time=0@note_on channel=9 note=42 velocity=0 time=0@note_on channel=7 note=49 velocity=0 time=0@note_on channel=11 note=37 velocity=0 time=0@note_on channel=1 note=48 velocity=112 time=0.00078125@note_on channel=6 note=52 velocity=126 time=0@note_on channel=7 note=48 velocity=112 time=0@note_on channel=8 note=52 velocity=126 time=0@note_on channel=12 note=52 velocity=126 time=0@note_on channel=14 note=36 velocity=112 time=0@note_on channel=15 note=68 velocity=112 time=0@note_on channel=0 note=48 velocity=112 time=0@note_on channel=9 note=42 velocity=112 time=0@note_on channel=7 note=48 velocity=112 time=0@note_on channel=11 note=36 velocity=112 time=0@note_on channel=9 note=42 velocity=0 time=0.18671875000000002@note_on channel=9 note=42 velocity=112 time=0.00078125@note_on channel=9 note=42 velocity=0 time=0.18671875000000002@note_on channel=9 note=38 velocity=112 time=0.00078125@note_on channel=9 note=35 velocity=112 time=0@note_on channel=9 note=42 velocity=112 time=0@note_on channel=6 note=52 velocity=0 time=0.18671875000000002@note_on channel=8 note=52 velocity=0 time=0@note_on channel=12 note=52 velocity=0 time=0@note_on channel=9 note=42 velocity=0 time=0@note_on channel=6 note=52 velocity=126 time=0.00078125@note_on channel=8 note=52 velocity=126 time=0@note_on channel=12 note=52 velocity=126 time=0@note_on channel=9 note=42 velocity=112 time=0@note_on channel=9 note=42 velocity=0 time=0.09296875@note_on channel=9 note=42 velocity=112 time=0.00078125@note_on channel=9 note=38 velocity=0 time=0.09296875@note_on channel=9 note=35 velocity=0 time=0@note_on channel=9 note=42 velocity=0 time=0@note_on channel=9 note=42 velocity=112 time=0.00078125@note_on channel=9 note=42 velocity=0 time=0.18671875000000002@note_on channel=9 note=42 velocity=112 time=0.00078125@note_on channel=6 note=52 velocity=0 time=0.18671875000000002@note_on channel=8 note=52 velocity=0 time=0@note_on channel=12 note=52 velocity=0 time=0@note_on channel=9 note=42 velocity=0 time=0@note_on channel=6 note=48 velocity=126 time=0.00078125@note_on channel=8 note=48 velocity=126 time=0@note_on channel=12 note=48 velocity=126 time=0@note_on channel=9 note=38 velocity=112 time=0@note_on channel=9 note=35 velocity=112 time=0@note_on channel=9 note=42 velocity=112 time=0@note_on channel=9 note=38 velocity=0 time=0.09296875@note_on channel=9 note=42 velocity=0 time=0@note_on channel=9 note=38 velocity=112 time=0.00078125@note_on channel=9 note=42 velocity=112 time=0@note_on channel=9 note=38 velocity=0 time=0.09296875@note_on channel=1 note=48 velocity=0 time=0.1875@note_on channel=6 note=48 velocity=0 time=0@note_on channel=7 note=48 velocity=0 time=0@note_on channel=8 note=48 velocity=0 time=0@note_on channel=12 note=48 velocity=0 time=0@note_on channel=14 note=36 velocity=0 time=0@note_on channel=15 note=68 velocity=0 time=0@note_on channel=0 note=48 velocity=0 time=0@note_on channel=9 note=35 velocity=0 time=0@note_on channel=9 note=42 velocity=0 time=0@note_on channel=7 note=48 velocity=0 time=0@note_on channel=11 note=36 velocity=0 time=0@note_on channel=1 note=52 velocity=112 time=0.00078125@note_on channel=6 note=48 velocity=126 time=0@note_on channel=7 note=52 velocity=112 time=0@note_on channel=8 note=48 velocity=126 time=0@note_on channel=12 note=48 velocity=126 time=0@note_on channel=14 note=40 velocity=112 time=0@note_on channel=15 note=70 velocity=112 time=0@note_on channel=0 note=52 velocity=112 time=0@note_on channel=9 note=42 velocity=112 time=0@note_on channel=7 note=52 velocity=112 time=0@note_on channel=11 note=40 velocity=112 time=0@note_on channel=9 note=42 velocity=0 time=0.18671875000000002@note_on channel=9 note=42 velocity=112 time=0.00078125@note_on channel=9 note=42 velocity=0 time=0.18671875000000002@note_on channel=9 note=38 velocity=112 time=0.00078125@note_on channel=9 note=35 velocity=112 time=0@note_on channel=9 note=42 velocity=112 time=0@note_on channel=9 note=42 velocity=0 time=0.18671875000000002@note_on channel=9 note=42 velocity=112 time=0.00078125@note_on channel=9 note=42 velocity=0 time=0.09296875@note_on channel=9 note=42 velocity=112 time=0.00078125@note_on channel=6 note=48 velocity=0 time=0.09296875@note_on channel=8 note=48 velocity=0 time=0@note_on channel=12 note=48 velocity=0 time=0@note_on channel=15 note=70 velocity=0 time=0@note_on channel=9 note=38 velocity=0 time=0@note_on channel=9 note=35 velocity=0 time=0@note_on channel=9 note=42 velocity=0 time=0@note_on channel=6 note=52 velocity=126 time=0.00078125@note_on channel=8 note=52 velocity=126 time=0@note_on channel=12 note=52 velocity=126 time=0@note_on channel=15 note=68 velocity=112 time=0@note_on channel=9 note=42 velocity=112 time=0@note_on channel=9 note=42 velocity=0 time=0.18671875000000002@note_on channel=9 note=42 velocity=112 time=0.00078125@note_on channel=15 note=68 velocity=0 time=0.18671875000000002@note_on channel=9 note=42 velocity=0 time=0@note_on channel=15 note=67 velocity=112 time=0.00078125@note_on channel=9 note=38 velocity=112 time=0@note_on channel=9 note=35 velocity=112 time=0@note_on channel=9 note=42 velocity=112 time=0@note_on channel=9 note=38 velocity=0 time=0.09296875@note_on channel=9 note=42 velocity=0 time=0@note_on channel=9 note=38 velocity=112 time=0.00078125@note_on channel=9 note=42 velocity=112 time=0@note_on channel=9 note=38 velocity=0 time=0.09296875@note_on channel=1 note=52 velocity=0 time=0.1875@note_on channel=6 note=52 velocity=0 time=0@note_on channel=7 note=52 velocity=0 time=0@note_on channel=8 note=52 velocity=0 time=0@note_on channel=12 note=52 velocity=0 time=0@note_on channel=14 note=40 velocity=0 time=0@note_on channel=15 note=67 velocity=0 time=0@note_on channel=0 note=52 velocity=0 time=0@note_on channel=9 note=35 velocity=0 time=0@note_on channel=9 note=42 velocity=0 time=0@note_on channel=7 note=52 velocity=0 time=0@note_on channel=11 note=40 velocity=0 time=0@note_on channel=1 note=53 velocity=112 time=0.00078125@note_on channel=7 note=53 velocity=112 time=0@note_on channel=12 note=53 velocity=126 time=0@note_on channel=13 note=53 velocity=80 time=0@note_on channel=14 note=41 velocity=112 time=0@note_on channel=15 note=65 velocity=112 time=0@note_on channel=0 note=53 velocity=112 time=0@note_on channel=9 note=42 velocity=112 time=0@note_on channel=9 note=57 velocity=112 time=0@note_on channel=7 note=53 velocity=112 time=0@note_on channel=11 note=41 velocity=112 time=0@note_on channel=9 note=42 velocity=0 time=0.18671875000000002@note_on channel=9 note=42 velocity=112 time=0.00078125@note_on channel=9 note=42 velocity=0 time=0.18671875000000002@note_on channel=9 note=57 velocity=0 time=0@note_on channel=9 note=38 velocity=112 time=0.00078125@note_on channel=9 note=35 velocity=112 time=0@note_on channel=9 note=42 velocity=112 time=0@note_on channel=9 note=42 velocity=0 time=0.18671875000000002@note_on channel=9 note=42 velocity=112 time=0.00078125@note_on channel=9 note=42 velocity=0 time=0.09296875@note_on channel=9 note=42 velocity=112 time=0.00078125@note_on channel=9 note=38 velocity=0 time=0.09296875@note_on channel=9 note=35 velocity=0 time=0@note_on channel=9 note=42 velocity=0 time=0@note_on channel=9 note=42 velocity=112 time=0.00078125@note_on channel=9 note=42 velocity=0 time=0.18671875000000002@note_on channel=9 note=42 velocity=112 time=0.00078125@note_on channel=9 note=42 velocity=0 time=0.18671875000000002@note_on channel=9 note=38 velocity=112 time=0.00078125@note_on channel=9 note=35 velocity=112 time=0@note_on channel=9 note=42 velocity=112 time=0@note_on channel=9 note=38 velocity=0 time=0.09296875@note_on channel=9 note=42 velocity=0 time=0@note_on channel=9 note=38 velocity=112 time=0.00078125@note_on channel=9 note=42 velocity=112 time=0@note_on channel=9 note=38 velocity=0 time=0.09296875@note_on channel=1 note=53 velocity=0 time=0.1875@note_on channel=7 note=53 velocity=0 time=0@note_on channel=12 note=53 velocity=0 time=0@note_on channel=13 note=53 velocity=0 time=0@note_on channel=14 note=41 velocity=0 time=0@note_on channel=15 note=65 velocity=0 time=0@note_on channel=0 note=53 velocity=0 time=0@note_on channel=9 note=35 velocity=0 time=0@note_on channel=9 note=42 velocity=0 time=0@note_on channel=7 note=53 velocity=0 time=0@note_on channel=11 note=41 velocity=0 time=0@note_on channel=1 note=48 velocity=112 time=0.00078125@note_on channel=7 note=48 velocity=112 time=0@note_on channel=12 note=48 velocity=126 time=0@note_on channel=13 note=48 velocity=80 time=0@note_on channel=14 note=36 velocity=112 time=0@note_on channel=15 note=60 velocity=112 time=0@note_on channel=0 note=48 velocity=112 time=0@note_on channel=9 note=42 velocity=112 time=0@note_on channel=7 note=48 velocity=112 time=0@note_on channel=11 note=36 velocity=112 time=0@note_on channel=9 note=42 velocity=0 time=0.18671875000000002@note_on channel=9 note=42 velocity=112 time=0.00078125@note_on channel=9 note=42 velocity=0 time=0.18671875000000002@note_on channel=9 note=38 velocity=112 time=0.00078125@note_on channel=9 note=35 velocity=112 time=0@note_on channel=9 note=42 velocity=112 time=0@note_on channel=9 note=42 velocity=0 time=0.18671875000000002@note_on channel=9 note=42 velocity=112 time=0.00078125@note_on channel=9 note=42 velocity=0 time=0.09296875@note_on channel=9 note=42 velocity=112 time=0.00078125@note_on channel=9 note=38 velocity=0 time=0.09296875@note_on channel=9 note=35 velocity=0 time=0@note_on channel=9 note=42 velocity=0 time=0@note_on channel=9 note=42 velocity=112 time=0.00078125@note_on channel=9 note=42 velocity=0 time=0.18671875000000002@note_on channel=9 note=42 velocity=112 time=0.00078125@note_on channel=9 note=42 velocity=0 time=0.18671875000000002@note_on channel=9 note=38 velocity=112 time=0.00078125@note_on channel=9 note=35 velocity=112 time=0@note_on channel=9 note=42 velocity=112 time=0@note_on channel=9 note=38 velocity=0 time=0.09296875@note_on channel=9 note=42 velocity=0 time=0@note_on channel=9 note=38 velocity=112 time=0.00078125@note_on channel=9 note=42 velocity=112 time=0@note_on channel=9 note=38 velocity=0 time=0.09296875@note_on channel=1 note=48 velocity=0 time=0.1875@note_on channel=7 note=48 velocity=0 time=0@note_on channel=12 note=48 velocity=0 time=0@note_on channel=13 note=48 velocity=0 time=0@note_on channel=14 note=36 velocity=0 time=0@note_on channel=15 note=60 velocity=0 time=0@note_on channel=0 note=48 velocity=0 time=0@note_on channel=9 note=35 velocity=0 time=0@note_on channel=9 note=42 velocity=0 time=0@note_on channel=7 note=48 velocity=0 time=0@note_on channel=11 note=36 velocity=0 time=0@note_on channel=1 note=49 velocity=112 time=0.00078125@note_on channel=7 note=49 velocity=112 time=0@note_on channel=12 note=49 velocity=126 time=0@note_on channel=13 note=49 velocity=80 time=0@note_on channel=14 note=37 velocity=112 time=0@note_on channel=15 note=61 velocity=112 time=0@note_on channel=0 note=49 velocity=112 time=0@note_on channel=9 note=42 velocity=112 time=0@note_on channel=7 note=49 velocity=112 time=0@note_on channel=11 note=37 velocity=112 time=0@note_on channel=9 note=42 velocity=0 time=0.18671875000000002@note_on channel=9 note=42 velocity=112 time=0.00078125@note_on channel=9 note=42 velocity=0 time=0.18671875000000002@note_on channel=9 note=38 velocity=112 time=0.00078125@note_on channel=9 note=35 velocity=112 time=0@note_on channel=9 note=42 velocity=112 time=0@note_on channel=9 note=42 velocity=0 time=0.18671875000000002@note_on channel=9 note=42 velocity=112 time=0.00078125@note_on channel=9 note=42 velocity=0 time=0.09296875@note_on channel=9 note=42 velocity=112 time=0.00078125@note_on channel=9 note=38 velocity=0 time=0.09296875@note_on channel=9 note=35 velocity=0 time=0@note_on channel=9 note=42 velocity=0 time=0@note_on channel=9 note=42 velocity=112 time=0.00078125@note_on channel=9 note=42 velocity=0 time=0.18671875000000002@note_on channel=9 note=42 velocity=112 time=0.00078125@note_on channel=9 note=42 velocity=0 time=0.18671875000000002@note_on channel=9 note=38 velocity=112 time=0.00078125@note_on channel=9 note=35 velocity=112 time=0@note_on channel=9 note=42 velocity=112 time=0@note_on channel=9 note=38 velocity=0 time=0.09296875@note_on channel=9 note=42 velocity=0 time=0@note_on channel=9 note=38 velocity=112 time=0.00078125@note_on channel=9 note=42 velocity=112 time=0@note_on channel=9 note=38 velocity=0 time=0.09296875@note_on channel=1 note=49 velocity=0 time=0.1875@note_on channel=7 note=49 velocity=0 time=0@note_on channel=12 note=49 velocity=0 time=0@note_on channel=13 note=49 velocity=0 time=0@note_on channel=14 note=37 velocity=0 time=0@note_on channel=15 note=61 velocity=0 time=0@note_on channel=0 note=49 velocity=0 time=0@note_on channel=9 note=35 velocity=0 time=0@note_on channel=9 note=42 velocity=0 time=0@note_on channel=7 note=49 velocity=0 time=0@note_on channel=11 note=37 velocity=0 time=0@note_on channel=1 note=52 velocity=112 time=0.00078125@note_on channel=7 note=52 velocity=112 time=0@note_on channel=12 note=52 velocity=126 time=0@note_on channel=13 note=52 velocity=80 time=0@note_on channel=14 note=40 velocity=112 time=0@note_on channel=15 note=64 velocity=112 time=0@note_on channel=0 note=52 velocity=112 time=0@note_on channel=9 note=42 velocity=112 time=0@note_on channel=7 note=52 velocity=112 time=0@note_on channel=11 note=40 velocity=112 time=0@note_on channel=9 note=42 velocity=0 time=0.18671875000000002@note_on channel=9 note=42 velocity=112 time=0.00078125@note_on channel=9 note=42 velocity=0 time=0.18671875000000002@note_on channel=9 note=38 velocity=112 time=0.00078125@note_on channel=9 note=35 velocity=112 time=0@note_on channel=9 note=42 velocity=112 time=0@note_on channel=9 note=42 velocity=0 time=0.18671875000000002@note_on channel=9 note=42 velocity=112 time=0.00078125@note_on channel=9 note=42 velocity=0 time=0.09296875@note_on channel=9 note=42 velocity=112 time=0.00078125@note_on channel=9 note=38 velocity=0 time=0.09296875@note_on channel=9 note=35 velocity=0 time=0@note_on channel=9 note=42 velocity=0 time=0@note_on channel=9 note=42 velocity=112 time=0.00078125@note_on channel=9 note=42 velocity=0 time=0.18671875000000002@note_on channel=9 note=42 velocity=112 time=0.00078125@note_on channel=9 note=42 velocity=0 time=0.18671875000000002@note_on channel=9 note=38 velocity=112 time=0.00078125@note_on channel=9 note=35 velocity=112 time=0@note_on channel=9 note=42 velocity=112 time=0@note_on channel=9 note=38 velocity=0 time=0.09296875@note_on channel=9 note=42 velocity=0 time=0@note_on channel=9 note=38 velocity=112 time=0.00078125@note_on channel=9 note=42 velocity=112 time=0@note_on channel=9 note=38 velocity=0 time=0.09296875@note_on channel=1 note=52 velocity=0 time=0.1875@note_on channel=7 note=52 velocity=0 time=0@note_on channel=12 note=52 velocity=0 time=0@note_on channel=13 note=52 velocity=0 time=0@note_on channel=14 note=40 velocity=0 time=0@note_on channel=15 note=64 velocity=0 time=0@note_on channel=0 note=52 velocity=0 time=0@note_on channel=9 note=35 velocity=0 time=0@note_on channel=9 note=42 velocity=0 time=0@note_on channel=7 note=52 velocity=0 time=0@note_on channel=11 note=40 velocity=0 time=0@note_on channel=1 note=60 velocity=112 time=0.00078125@note_on channel=5 note=60 velocity=126 time=0@note_on channel=6 note=60 velocity=126 time=0@note_on channel=7 note=60 velocity=112 time=0@note_on channel=8 note=60 velocity=126 time=0@note_on channel=10 note=72 velocity=126 time=0@note_on channel=12 note=48 velocity=126 time=0@note_on channel=13 note=48 velocity=80 time=0@note_on channel=14 note=48 velocity=112 time=0@note_on channel=15 note=65 velocity=112 time=0@note_on channel=0 note=60 velocity=112 time=0@note_on channel=9 note=42 velocity=112 time=0@note_on channel=7 note=48 velocity=112 time=0@note_on channel=11 note=36 velocity=112 time=0@note_on channel=9 note=42 velocity=0 time=0.18671875000000002@note_on channel=9 note=42 velocity=112 time=0.00078125@note_on channel=9 note=42 velocity=0 time=0.18671875000000002@note_on channel=9 note=38 velocity=112 time=0.00078125@note_on channel=9 note=35 velocity=112 time=0@note_on channel=9 note=42 velocity=112 time=0@note_on channel=9 note=42 velocity=0 time=0.18671875000000002@note_on channel=9 note=42 velocity=112 time=0.00078125@note_on channel=9 note=42 velocity=0 time=0.09296875@note_on channel=9 note=42 velocity=112 time=0.00078125@note_on channel=9 note=38 velocity=0 time=0.09296875@note_on channel=9 note=35 velocity=0 time=0@note_on channel=9 note=42 velocity=0 time=0@note_on channel=9 note=42 velocity=112 time=0.00078125@note_on channel=9 note=42 velocity=0 time=0.18671875000000002@note_on channel=9 note=42 velocity=112 time=0.00078125@note_on channel=9 note=42 velocity=0 time=0.18671875000000002@note_on channel=9 note=38 velocity=112 time=0.00078125@note_on channel=9 note=35 velocity=112 time=0@note_on channel=9 note=42 velocity=112 time=0@note_on channel=9 note=38 velocity=0 time=0.09296875@note_on channel=9 note=42 velocity=0 time=0@note_on channel=9 note=38 velocity=112 time=0.00078125@note_on channel=9 note=42 velocity=112 time=0@note_on channel=9 note=38 velocity=0 time=0.09296875@note_on channel=1 note=60 velocity=0 time=0.1875@note_on channel=5 note=60 velocity=0 time=0@note_on channel=6 note=60 velocity=0 time=0@note_on channel=7 note=60 velocity=0 time=0@note_on channel=8 note=60 velocity=0 time=0@note_on channel=10 note=72 velocity=0 time=0@note_on channel=12 note=48 velocity=0 time=0@note_on channel=13 note=48 velocity=0 time=0@note_on channel=14 note=48 velocity=0 time=0@note_on channel=15 note=65 velocity=0 time=0@note_on channel=0 note=60 velocity=0 time=0@note_on channel=9 note=35 velocity=0 time=0@note_on channel=9 note=42 velocity=0 time=0@note_on channel=7 note=48 velocity=0 time=0@note_on channel=11 note=36 velocity=0 time=0@note_on channel=1 note=56 velocity=112 time=0.00078125@note_on channel=5 note=61 velocity=126 time=0@note_on channel=6 note=61 velocity=126 time=0@note_on channel=7 note=56 velocity=112 time=0@note_on channel=8 note=61 velocity=126 time=0@note_on channel=10 note=73 velocity=126 time=0@note_on channel=12 note=44 velocity=126 time=0@note_on channel=13 note=44 velocity=80 time=0@note_on channel=14 note=44 velocity=112 time=0@note_on channel=15 note=61 velocity=112 time=0@note_on channel=0 note=56 velocity=112 time=0@note_on channel=9 note=42 velocity=112 time=0@note_on channel=7 note=44 velocity=112 time=0@note_on channel=11 note=32 velocity=112 time=0@note_on channel=9 note=42 velocity=0 time=0.18671875000000002@note_on channel=9 note=42 velocity=112 time=0.00078125@note_on channel=9 note=42 velocity=0 time=0.18671875000000002@note_on channel=9 note=38 velocity=112 time=0.00078125@note_on channel=9 note=35 velocity=112 time=0@note_on channel=9 note=42 velocity=112 time=0@note_on channel=9 note=42 velocity=0 time=0.18671875000000002@note_on channel=9 note=42 velocity=112 time=0.00078125@note_on channel=9 note=42 velocity=0 time=0.09296875@note_on channel=9 note=42 velocity=112 time=0.00078125@note_on channel=9 note=38 velocity=0 time=0.09296875@note_on channel=9 note=35 velocity=0 time=0@note_on channel=9 note=42 velocity=0 time=0@note_on channel=9 note=42 velocity=112 time=0.00078125@note_on channel=9 note=42 velocity=0 time=0.18671875000000002@note_on channel=9 note=42 velocity=112 time=0.00078125@note_on channel=9 note=42 velocity=0 time=0.18671875000000002@note_on channel=9 note=38 velocity=112 time=0.00078125@note_on channel=9 note=35 velocity=112 time=0@note_on channel=9 note=42 velocity=112 time=0@note_on channel=9 note=38 velocity=0 time=0.09296875@note_on channel=9 note=42 velocity=0 time=0@note_on channel=9 note=38 velocity=112 time=0.00078125@note_on channel=9 note=42 velocity=112 time=0@note_on channel=9 note=38 velocity=0 time=0.09296875@note_on channel=1 note=56 velocity=0 time=0.1875@note_on channel=5 note=61 velocity=0 time=0@note_on channel=6 note=61 velocity=0 time=0@note_on channel=7 note=56 velocity=0 time=0@note_on channel=8 note=61 velocity=0 time=0@note_on channel=10 note=73 velocity=0 time=0@note_on channel=12 note=44 velocity=0 time=0@note_on channel=13 note=44 velocity=0 time=0@note_on channel=14 note=44 velocity=0 time=0@note_on channel=15 note=61 velocity=0 time=0@note_on channel=0 note=56 velocity=0 time=0@note_on channel=9 note=35 velocity=0 time=0@note_on channel=9 note=42 velocity=0 time=0@note_on channel=7 note=44 velocity=0 time=0@note_on channel=11 note=32 velocity=0 time=0@note_on channel=1 note=53 velocity=112 time=0.00078125@note_on channel=5 note=58 velocity=126 time=0@note_on channel=6 note=58 velocity=126 time=0@note_on channel=7 note=53 velocity=112 time=0@note_on channel=8 note=58 velocity=126 time=0@note_on channel=10 note=70 velocity=126 time=0@note_on channel=12 note=41 velocity=126 time=0@note_on channel=13 note=41 velocity=80 time=0@note_on channel=14 note=41 velocity=112 time=0@note_on channel=15 note=70 velocity=112 time=0@note_on channel=0 note=53 velocity=112 time=0@note_on channel=9 note=42 velocity=112 time=0@note_on channel=7 note=41 velocity=112 time=0@note_on channel=11 note=29 velocity=112 time=0@note_on channel=9 note=42 velocity=0 time=0.18671875000000002@note_on channel=9 note=42 velocity=112 time=0.00078125@note_on channel=9 note=42 velocity=0 time=0.18671875000000002@note_on channel=9 note=38 velocity=112 time=0.00078125@note_on channel=9 note=35 velocity=112 time=0@note_on channel=9 note=42 velocity=112 time=0@note_on channel=9 note=42 velocity=0 time=0.18671875000000002@note_on channel=9 note=42 velocity=112 time=0.00078125@note_on channel=9 note=42 velocity=0 time=0.09296875@note_on channel=9 note=42 velocity=112 time=0.00078125@note_on channel=9 note=38 velocity=0 time=0.09296875@note_on channel=9 note=35 velocity=0 time=0@note_on channel=9 note=42 velocity=0 time=0@note_on channel=9 note=42 velocity=112 time=0.00078125@note_on channel=9 note=42 velocity=0 time=0.18671875000000002@note_on channel=9 note=42 velocity=112 time=0.00078125@note_on channel=9 note=42 velocity=0 time=0.18671875000000002@note_on channel=9 note=38 velocity=112 time=0.00078125@note_on channel=9 note=35 velocity=112 time=0@note_on channel=9 note=42 velocity=112 time=0@note_on channel=9 note=38 velocity=0 time=0.09296875@note_on channel=9 note=42 velocity=0 time=0@note_on channel=9 note=38 velocity=112 time=0.00078125@note_on channel=9 note=42 velocity=112 time=0@note_on channel=9 note=38 velocity=0 time=0.09296875@note_on channel=1 note=53 velocity=0 time=0.1875@note_on channel=5 note=58 velocity=0 time=0@note_on channel=6 note=58 velocity=0 time=0@note_on channel=7 note=53 velocity=0 time=0@note_on channel=8 note=58 velocity=0 time=0@note_on channel=10 note=70 velocity=0 time=0@note_on channel=12 note=41 velocity=0 time=0@note_on channel=13 note=41 velocity=0 time=0@note_on channel=14 note=41 velocity=0 time=0@note_on channel=15 note=70 velocity=0 time=0@note_on channel=0 note=53 velocity=0 time=0@note_on channel=9 note=35 velocity=0 time=0@note_on channel=9 note=42 velocity=0 time=0@note_on channel=7 note=41 velocity=0 time=0@note_on channel=11 note=29 velocity=0 time=0@note_on channel=1 note=55 velocity=112 time=0.00078125@note_on channel=5 note=55 velocity=126 time=0@note_on channel=6 note=55 velocity=126 time=0@note_on channel=7 note=55 velocity=112 time=0@note_on channel=8 note=55 velocity=126 time=0@note_on channel=10 note=67 velocity=126 time=0@note_on channel=12 note=43 velocity=126 time=0@note_on channel=13 note=43 velocity=80 time=0@note_on channel=14 note=43 velocity=112 time=0@note_on channel=15 note=67 velocity=112 time=0@note_on channel=0 note=55 velocity=112 time=0@note_on channel=9 note=42 velocity=112 time=0@note_on channel=7 note=43 velocity=112 time=0@note_on channel=11 note=31 velocity=112 time=0@note_on channel=9 note=42 velocity=0 time=0.18671875000000002@note_on channel=9 note=42 velocity=100 time=0.00078125@note_on channel=9 note=42 velocity=0 time=0.18671875000000002@note_on channel=9 note=38 velocity=104 time=0.00078125@note_on channel=9 note=35 velocity=104 time=0@note_on channel=9 note=42 velocity=88 time=0@note_on channel=9 note=42 velocity=0 time=0.18671875000000002@note_on channel=9 note=42 velocity=76 time=0.00078125@note_on channel=9 note=42 velocity=0 time=0.09296875@note_on channel=9 note=42 velocity=70 time=0.00078125@note_on channel=9 note=38 velocity=0 time=0.09296875@note_on channel=9 note=35 velocity=0 time=0@note_on channel=9 note=42 velocity=0 time=0@note_on channel=9 note=42 velocity=64 time=0.00078125@note_on channel=9 note=42 velocity=0 time=0.18671875000000002@note_on channel=9 note=38 velocity=92 time=0.00078125@note_on channel=9 note=42 velocity=52 time=0@note_on channel=9 note=38 velocity=0 time=0.09296875@note_on channel=9 note=38 velocity=90 time=0.00078125@note_on channel=9 note=38 velocity=0 time=0.09296875@note_on channel=9 note=42 velocity=0 time=0@note_on channel=9 note=38 velocity=88 time=0.00078125@note_on channel=9 note=35 velocity=88 time=0@note_on channel=9 note=42 velocity=40 time=0@note_on channel=9 note=38 velocity=0 time=0.09296875@note_on channel=9 note=42 velocity=0 time=0@note_on channel=9 note=38 velocity=86 time=0.00078125@note_on channel=9 note=42 velocity=34 time=0@note_on channel=9 note=38 velocity=0 time=0.09296875@note_on channel=9 note=38 velocity=84 time=0.00078125@note_on channel=9 note=38 velocity=0 time=0.09296875@note_on channel=9 note=38 velocity=82 time=0.00078125@note_on channel=1 note=55 velocity=0 time=0.09296875@note_on channel=5 note=55 velocity=0 time=0@note_on channel=6 note=55 velocity=0 time=0@note_on channel=7 note=55 velocity=0 time=0@note_on channel=8 note=55 velocity=0 time=0@note_on channel=10 note=67 velocity=0 time=0@note_on channel=12 note=43 velocity=0 time=0@note_on channel=13 note=43 velocity=0 time=0@note_on channel=14 note=43 velocity=0 time=0@note_on channel=15 note=67 velocity=0 time=0@note_on channel=0 note=55 velocity=0 time=0@note_on channel=9 note=38 velocity=0 time=0@note_on channel=9 note=35 velocity=0 time=0@note_on channel=9 note=42 velocity=0 time=0@note_on channel=7 note=43 velocity=0 time=0@note_on channel=11 note=31 velocity=0 time=0@note_on channel=0 note=77 velocity=96 time=0.00078125@note_on channel=1 note=77 velocity=96 time=0@note_on channel=1 note=53 velocity=96 time=0@note_on channel=2 note=89 velocity=96 time=0@note_on channel=5 note=65 velocity=126 time=0@note_on channel=6 note=65 velocity=126 time=0@note_on channel=7 note=53 velocity=96 time=0@note_on channel=12 note=53 velocity=96 time=0@note_on channel=13 note=53 velocity=96 time=0@note_on channel=14 note=41 velocity=96 time=0@note_on channel=0 note=53 velocity=96 time=0@note_on channel=9 note=42 velocity=16 time=0@note_on channel=9 note=57 velocity=112 time=0@note_on channel=1 note=77 velocity=126 time=0@note_on channel=4 note=65 velocity=126 time=0@note_on channel=11 note=41 velocity=96 time=0@note_on channel=0 note=77 velocity=0 time=0.08828125@note_on channel=1 note=77 velocity=0 time=0.004687500000000001@note_on channel=2 note=89 velocity=0 time=0@note_on channel=0 note=72 velocity=96 time=0.00078125@note_on channel=1 note=72 velocity=96 time=0@note_on channel=2 note=84 velocity=96 time=0@note_on channel=0 note=72 velocity=0 time=0.08828125@note_on channel=1 note=72 velocity=0 time=0.004687500000000001@note_on channel=2 note=84 velocity=0 time=0@note_on channel=9 note=42 velocity=0 time=0@note_on channel=0 note=68 velocity=96 time=0.00078125@note_on channel=1 note=68 velocity=96 time=0@note_on channel=2 note=80 velocity=96 time=0@note_on channel=9 note=42 velocity=16 time=0@note_on channel=0 note=68 velocity=0 time=0.08828125@note_on channel=1 note=68 velocity=0 time=0.004687500000000001@note_on channel=2 note=80 velocity=0 time=0@note_on channel=0 note=65 velocity=96 time=0.00078125@note_on channel=1 note=65 velocity=96 time=0@note_on channel=2 note=77 velocity=96 time=0@note_on channel=0 note=65 velocity=0 time=0.08828125@note_on channel=1 note=65 velocity=0 time=0.004687500000000001@note_on channel=2 note=77 velocity=0 time=0@note_on channel=9 note=42 velocity=0 time=0@note_on channel=9 note=57 velocity=0 time=0@note_on channel=0 note=77 velocity=96 time=0.00078125@note_on channel=1 note=77 velocity=96 time=0@note_on channel=2 note=89 velocity=96 time=0@note_on channel=9 note=38 velocity=80 time=0@note_on channel=9 note=35 velocity=80 time=0@note_on channel=9 note=42 velocity=16 time=0@note_on channel=0 note=77 velocity=0 time=0.08828125@note_on channel=1 note=77 velocity=0 time=0.004687500000000001@note_on channel=2 note=89 velocity=0 time=0@note_on channel=0 note=72 velocity=96 time=0.00078125@note_on channel=1 note=72 velocity=96 time=0@note_on channel=2 note=84 velocity=96 time=0@note_on channel=0 note=72 velocity=0 time=0.08828125@note_on channel=1 note=72 velocity=0 time=0.004687500000000001@note_on channel=2 note=84 velocity=0 time=0@note_on channel=9 note=42 velocity=0 time=0@note_on channel=0 note=68 velocity=96 time=0.00078125@note_on channel=1 note=68 velocity=96 time=0@note_on channel=2 note=80 velocity=96 time=0@note_on channel=9 note=42 velocity=16 time=0@note_on channel=0 note=68 velocity=0 time=0.08828125@note_on channel=1 note=68 velocity=0 time=0.004687500000000001@note_on channel=2 note=80 velocity=0 time=0@note_on channel=9 note=42 velocity=0 time=0@note_on channel=0 note=65 velocity=96 time=0.00078125@note_on channel=1 note=65 velocity=96 time=0@note_on channel=2 note=77 velocity=96 time=0@note_on channel=9 note=42 velocity=16 time=0@note_on channel=0 note=65 velocity=0 time=0.08828125@note_on channel=1 note=65 velocity=0 time=0.004687500000000001@note_on channel=2 note=77 velocity=0 time=0@note_on channel=9 note=38 velocity=0 time=0@note_on channel=9 note=35 velocity=0 time=0@note_on channel=9 note=42 velocity=0 time=0@note_on channel=0 note=77 velocity=96 time=0.00078125@note_on channel=1 note=77 velocity=96 time=0@note_on channel=2 note=89 velocity=96 time=0@note_on channel=9 note=42 velocity=16 time=0@note_on channel=0 note=77 velocity=0 time=0.08828125@note_on channel=1 note=77 velocity=0 time=0.004687500000000001@note_on channel=2 note=89 velocity=0 time=0@note_on channel=0 note=72 velocity=96 time=0.00078125@note_on channel=1 note=72 velocity=96 time=0@note_on channel=2 note=84 velocity=96 time=0@note_on channel=0 note=72 velocity=0 time=0.08828125@note_on channel=1 note=72 velocity=0 time=0.004687500000000001@note_on channel=2 note=84 velocity=0 time=0@note_on channel=9 note=42 velocity=0 time=0@note_on channel=0 note=68 velocity=96 time=0.00078125@note_on channel=1 note=68 velocity=96 time=0@note_on channel=2 note=80 velocity=96 time=0@note_on channel=9 note=42 velocity=16 time=0@note_on channel=0 note=68 velocity=0 time=0.08828125@note_on channel=1 note=68 velocity=0 time=0.004687500000000001@note_on channel=2 note=80 velocity=0 time=0@note_on channel=0 note=65 velocity=96 time=0.00078125@note_on channel=1 note=65 velocity=96 time=0@note_on channel=2 note=77 velocity=96 time=0@note_on channel=0 note=65 velocity=0 time=0.08828125@note_on channel=1 note=65 velocity=0 time=0.004687500000000001@note_on channel=1 note=53 velocity=0 time=0@note_on channel=2 note=77 velocity=0 time=0@note_on channel=5 note=65 velocity=0 time=0@note_on channel=6 note=65 velocity=0 time=0@note_on channel=7 note=53 velocity=0 time=0@note_on channel=12 note=53 velocity=0 time=0@note_on channel=13 note=53 velocity=0 time=0@note_on channel=14 note=41 velocity=0 time=0@note_on channel=0 note=53 velocity=0 time=0@note_on channel=9 note=42 velocity=0 time=0@note_on channel=1 note=77 velocity=0 time=0@note_on channel=4 note=65 velocity=0 time=0@note_on channel=11 note=41 velocity=0 time=0@note_on channel=0 note=77 velocity=96 time=0.00078125@note_on channel=1 note=77 velocity=96 time=0@note_on channel=1 note=56 velocity=96 time=0@note_on channel=2 note=89 velocity=96 time=0@note_on channel=5 note=60 velocity=126 time=0@note_on channel=6 note=60 velocity=126 time=0@note_on channel=7 note=56 velocity=96 time=0@note_on channel=12 note=56 velocity=96 time=0@note_on channel=13 note=56 velocity=96 time=0@note_on channel=14 note=44 velocity=96 time=0@note_on channel=0 note=56 velocity=96 time=0@note_on channel=9 note=38 velocity=80 time=0@note_on channel=9 note=35 velocity=80 time=0@note_on channel=9 note=42 velocity=16 time=0@note_on channel=1 note=72 velocity=126 time=0@note_on channel=4 note=60 velocity=126 time=0@note_on channel=11 note=44 velocity=96 time=0@note_on channel=0 note=77 velocity=0 time=0.08828125@note_on channel=1 note=77 velocity=0 time=0.004687500000000001@note_on channel=2 note=89 velocity=0 time=0@note_on channel=9 note=38 velocity=0 time=0@note_on channel=9 note=42 velocity=0 time=0@note_on channel=0 note=72 velocity=96 time=0.00078125@note_on channel=1 note=72 velocity=96 time=0@note_on channel=2 note=84 velocity=96 time=0@note_on channel=9 note=38 velocity=80 time=0@note_on channel=9 note=42 velocity=16 time=0@note_on channel=0 note=72 velocity=0 time=0.08828125@note_on channel=1 note=72 velocity=0 time=0.004687500000000001@note_on channel=2 note=84 velocity=0 time=0@note_on channel=9 note=38 velocity=0 time=0@note_on channel=0 note=68 velocity=96 time=0.00078125@note_on channel=1 note=68 velocity=96 time=0@note_on channel=2 note=80 velocity=96 time=0@note_on channel=0 note=68 velocity=0 time=0.08828125@note_on channel=1 note=68 velocity=0 time=0.004687500000000001@note_on channel=2 note=80 velocity=0 time=0@note_on channel=0 note=65 velocity=96 time=0.00078125@note_on channel=1 note=65 velocity=96 time=0@note_on channel=2 note=77 velocity=96 time=0@note_on channel=0 note=65 velocity=0 time=0.08828125@note_on channel=1 note=65 velocity=0 time=0.004687500000000001@note_on channel=1 note=56 velocity=0 time=0@note_on channel=2 note=77 velocity=0 time=0@note_on channel=5 note=60 velocity=0 time=0@note_on channel=6 note=60 velocity=0 time=0@note_on channel=7 note=56 velocity=0 time=0@note_on channel=12 note=56 velocity=0 time=0@note_on channel=13 note=56 velocity=0 time=0@note_on channel=14 note=44 velocity=0 time=0@note_on channel=0 note=56 velocity=0 time=0@note_on channel=9 note=35 velocity=0 time=0@note_on channel=9 note=42 velocity=0 time=0@note_on channel=1 note=72 velocity=0 time=0@note_on channel=4 note=60 velocity=0 time=0@note_on channel=11 note=44 velocity=0 time=0@note_on channel=0 note=77 velocity=96 time=0.00078125@note_on channel=1 note=77 velocity=96 time=0@note_on channel=1 note=53 velocity=96 time=0@note_on channel=2 note=89 velocity=96 time=0@note_on channel=5 note=56 velocity=126 time=0@note_on channel=6 note=56 velocity=126 time=0@note_on channel=7 note=53 velocity=96 time=0@note_on channel=12 note=53 velocity=96 time=0@note_on channel=13 note=53 velocity=96 time=0@note_on channel=14 note=41 velocity=96 time=0@note_on channel=0 note=53 velocity=96 time=0@note_on channel=9 note=42 velocity=16 time=0@note_on channel=1 note=68 velocity=126 time=0@note_on channel=4 note=56 velocity=126 time=0@note_on channel=11 note=41 velocity=96 time=0@note_on channel=0 note=77 velocity=0 time=0.08828125@note_on channel=1 note=77 velocity=0 time=0.004687500000000001@note_on channel=2 note=89 velocity=0 time=0@note_on channel=0 note=72 velocity=96 time=0.00078125@note_on channel=1 note=72 velocity=96 time=0@note_on channel=2 note=84 velocity=96 time=0@note_on channel=0 note=72 velocity=0 time=0.08828125@note_on channel=1 note=72 velocity=0 time=0.004687500000000001@note_on channel=2 note=84 velocity=0 time=0@note_on channel=9 note=42 velocity=0 time=0@note_on channel=0 note=68 velocity=96 time=0.00078125@note_on channel=1 note=68 velocity=96 time=0@note_on channel=2 note=80 velocity=96 time=0@note_on channel=9 note=42 velocity=16 time=0@note_on channel=0 note=68 velocity=0 time=0.08828125@note_on channel=1 note=68 velocity=0 time=0.004687500000000001@note_on channel=2 note=80 velocity=0 time=0@note_on channel=0 note=65 velocity=96 time=0.00078125@note_on channel=1 note=65 velocity=96 time=0@note_on channel=2 note=77 velocity=96 time=0@note_on channel=0 note=65 velocity=0 time=0.08828125@note_on channel=1 note=65 velocity=0 time=0.004687500000000001@note_on channel=2 note=77 velocity=0 time=0@note_on channel=9 note=42 velocity=0 time=0@note_on channel=0 note=77 velocity=96 time=0.00078125@note_on channel=1 note=77 velocity=96 time=0@note_on channel=2 note=89 velocity=96 time=0@note_on channel=9 note=38 velocity=80 time=0@note_on channel=9 note=35 velocity=80 time=0@note_on channel=9 note=42 velocity=16 time=0@note_on channel=0 note=77 velocity=0 time=0.08828125@note_on channel=1 note=77 velocity=0 time=0.004687500000000001@note_on channel=2 note=89 velocity=0 time=0@note_on channel=0 note=72 velocity=96 time=0.00078125@note_on channel=1 note=72 velocity=96 time=0@note_on channel=2 note=84 velocity=96 time=0@note_on channel=0 note=72 velocity=0 time=0.08828125@note_on channel=1 note=72 velocity=0 time=0.004687500000000001@note_on channel=2 note=84 velocity=0 time=0@note_on channel=9 note=42 velocity=0 time=0@note_on channel=0 note=68 velocity=96 time=0.00078125@note_on channel=1 note=68 velocity=96 time=0@note_on channel=2 note=80 velocity=96 time=0@note_on channel=9 note=42 velocity=16 time=0@note_on channel=0 note=68 velocity=0 time=0.08828125@note_on channel=1 note=68 velocity=0 time=0.004687500000000001@note_on channel=2 note=80 velocity=0 time=0@note_on channel=9 note=42 velocity=0 time=0@note_on channel=0 note=65 velocity=96 time=0.00078125@note_on channel=1 note=65 velocity=96 time=0@note_on channel=2 note=77 velocity=96 time=0@note_on channel=9 note=42 velocity=16 time=0@note_on channel=0 note=65 velocity=0 time=0.08828125@note_on channel=1 note=65 velocity=0 time=0.004687500000000001@note_on channel=1 note=53 velocity=0 time=0@note_on channel=2 note=77 velocity=0 time=0@note_on channel=7 note=53 velocity=0 time=0@note_on channel=12 note=53 velocity=0 time=0@note_on channel=13 note=53 velocity=0 time=0@note_on channel=14 note=41 velocity=0 time=0@note_on channel=0 note=53 velocity=0 time=0@note_on channel=9 note=38 velocity=0 time=0@note_on channel=9 note=35 velocity=0 time=0@note_on channel=9 note=42 velocity=0 time=0@note_on channel=11 note=41 velocity=0 time=0@note_on channel=0 note=77 velocity=96 time=0.00078125@note_on channel=1 note=77 velocity=96 time=0@note_on channel=1 note=56 velocity=96 time=0@note_on channel=2 note=89 velocity=96 time=0@note_on channel=7 note=56 velocity=96 time=0@note_on channel=12 note=56 velocity=96 time=0@note_on channel=13 note=56 velocity=96 time=0@note_on channel=14 note=44 velocity=96 time=0@note_on channel=0 note=56 velocity=96 time=0@note_on channel=9 note=42 velocity=16 time=0@note_on channel=11 note=44 velocity=96 time=0@note_on channel=0 note=77 velocity=0 time=0.08828125@note_on channel=1 note=77 velocity=0 time=0.004687500000000001@note_on channel=2 note=89 velocity=0 time=0@note_on channel=0 note=72 velocity=96 time=0.00078125@note_on channel=1 note=72 velocity=96 time=0@note_on channel=2 note=84 velocity=96 time=0@note_on channel=0 note=72 velocity=0 time=0.08828125@note_on channel=1 note=72 velocity=0 time=0.004687500000000001@note_on channel=2 note=84 velocity=0 time=0@note_on channel=9 note=42 velocity=0 time=0@note_on channel=0 note=68 velocity=96 time=0.00078125@note_on channel=1 note=68 velocity=96 time=0@note_on channel=2 note=80 velocity=96 time=0@note_on channel=9 note=42 velocity=16 time=0@note_on channel=0 note=68 velocity=0 time=0.08828125@note_on channel=1 note=68 velocity=0 time=0.004687500000000001@note_on channel=2 note=80 velocity=0 time=0@note_on channel=0 note=65 velocity=96 time=0.00078125@note_on channel=1 note=65 velocity=96 time=0@note_on channel=2 note=77 velocity=96 time=0@note_on channel=0 note=65 velocity=0 time=0.08828125@note_on channel=1 note=65 velocity=0 time=0.004687500000000001@note_on channel=2 note=77 velocity=0 time=0@note_on channel=5 note=56 velocity=0 time=0@note_on channel=6 note=56 velocity=0 time=0@note_on channel=9 note=42 velocity=0 time=0@note_on channel=1 note=68 velocity=0 time=0@note_on channel=4 note=56 velocity=0 time=0@note_on channel=0 note=77 velocity=96 time=0.00078125@note_on channel=1 note=77 velocity=96 time=0@note_on channel=2 note=89 velocity=96 time=0@note_on channel=5 note=53 velocity=126 time=0@note_on channel=6 note=53 velocity=126 time=0@note_on channel=9 note=38 velocity=80 time=0@note_on channel=9 note=35 velocity=80 time=0@note_on channel=9 note=42 velocity=16 time=0@note_on channel=1 note=65 velocity=126 time=0@note_on channel=4 note=53 velocity=126 time=0@note_on channel=0 note=77 velocity=0 time=0.08828125@note_on channel=1 note=77 velocity=0 time=0.004687500000000001@note_on channel=2 note=89 velocity=0 time=0@note_on channel=9 note=38 velocity=0 time=0@note_on channel=9 note=42 velocity=0 time=0@note_on channel=0 note=72 velocity=96 time=0.00078125@note_on channel=1 note=72 velocity=96 time=0@note_on channel=2 note=84 velocity=96 time=0@note_on channel=9 note=38 velocity=80 time=0@note_on channel=9 note=42 velocity=16 time=0@note_on channel=0 note=72 velocity=0 time=0.08828125@note_on channel=1 note=72 velocity=0 time=0.004687500000000001@note_on channel=2 note=84 velocity=0 time=0@note_on channel=9 note=38 velocity=0 time=0@note_on channel=0 note=68 velocity=96 time=0.00078125@note_on channel=1 note=68 velocity=96 time=0@note_on channel=2 note=80 velocity=96 time=0@note_on channel=0 note=68 velocity=0 time=0.08828125@note_on channel=1 note=68 velocity=0 time=0.004687500000000001@note_on channel=2 note=80 velocity=0 time=0@note_on channel=0 note=65 velocity=96 time=0.00078125@note_on channel=1 note=65 velocity=96 time=0@note_on channel=2 note=77 velocity=96 time=0@note_on channel=0 note=65 velocity=0 time=0.08828125@note_on channel=1 note=65 velocity=0 time=0.004687500000000001@note_on channel=1 note=56 velocity=0 time=0@note_on channel=2 note=77 velocity=0 time=0@note_on channel=5 note=53 velocity=0 time=0@note_on channel=6 note=53 velocity=0 time=0@note_on channel=7 note=56 velocity=0 time=0@note_on channel=12 note=56 velocity=0 time=0@note_on channel=13 note=56 velocity=0 time=0@note_on channel=14 note=44 velocity=0 time=0@note_on channel=0 note=56 velocity=0 time=0@note_on channel=9 note=35 velocity=0 time=0@note_on channel=9 note=42 velocity=0 time=0@note_on channel=1 note=65 velocity=0 time=0@note_on channel=4 note=53 velocity=0 time=0@note_on channel=11 note=44 velocity=0 time=0@note_on channel=0 note=79 velocity=96 time=0.00078125@note_on channel=1 note=79 velocity=96 time=0@note_on channel=1 note=55 velocity=96 time=0@note_on channel=2 note=91 velocity=96 time=0@note_on channel=5 note=55 velocity=126 time=0@note_on channel=6 note=55 velocity=126 time=0@note_on channel=7 note=55 velocity=96 time=0@note_on channel=12 note=55 velocity=96 time=0@note_on channel=13 note=55 velocity=96 time=0@note_on channel=14 note=43 velocity=96 time=0@note_on channel=0 note=55 velocity=96 time=0@note_on channel=9 note=42 velocity=16 time=0@note_on channel=1 note=67 velocity=126 time=0@note_on channel=4 note=55 velocity=126 time=0@note_on channel=11 note=43 velocity=96 time=0@note_on channel=0 note=79 velocity=0 time=0.08828125@note_on channel=1 note=79 velocity=0 time=0.004687500000000001@note_on channel=2 note=91 velocity=0 time=0@note_on channel=0 note=73 velocity=96 time=0.00078125@note_on channel=1 note=73 velocity=96 time=0@note_on channel=2 note=85 velocity=96 time=0@note_on channel=0 note=73 velocity=0 time=0.08828125@note_on channel=1 note=73 velocity=0 time=0.004687500000000001@note_on channel=2 note=85 velocity=0 time=0@note_on channel=9 note=42 velocity=0 time=0@note_on channel=0 note=70 velocity=96 time=0.00078125@note_on channel=1 note=70 velocity=96 time=0@note_on channel=2 note=82 velocity=96 time=0@note_on channel=9 note=42 velocity=16 time=0@note_on channel=0 note=70 velocity=0 time=0.08828125@note_on channel=1 note=70 velocity=0 time=0.004687500000000001@note_on channel=2 note=82 velocity=0 time=0@note_on channel=0 note=67 velocity=96 time=0.00078125@note_on channel=1 note=67 velocity=96 time=0@note_on channel=2 note=79 velocity=96 time=0@note_on channel=0 note=67 velocity=0 time=0.08828125@note_on channel=1 note=67 velocity=0 time=0.004687500000000001@note_on channel=2 note=79 velocity=0 time=0@note_on channel=9 note=42 velocity=0 time=0@note_on channel=0 note=79 velocity=96 time=0.00078125@note_on channel=1 note=79 velocity=96 time=0@note_on channel=2 note=91 velocity=96 time=0@note_on channel=9 note=38 velocity=80 time=0@note_on channel=9 note=35 velocity=80 time=0@note_on channel=9 note=42 velocity=16 time=0@note_on channel=0 note=79 velocity=0 time=0.08828125@note_on channel=1 note=79 velocity=0 time=0.004687500000000001@note_on channel=2 note=91 velocity=0 time=0@note_on channel=0 note=73 velocity=96 time=0.00078125@note_on channel=1 note=73 velocity=96 time=0@note_on channel=2 note=85 velocity=96 time=0@note_on channel=0 note=73 velocity=0 time=0.08828125@note_on channel=1 note=73 velocity=0 time=0.004687500000000001@note_on channel=2 note=85 velocity=0 time=0@note_on channel=9 note=42 velocity=0 time=0@note_on channel=0 note=70 velocity=96 time=0.00078125@note_on channel=1 note=70 velocity=96 time=0@note_on channel=2 note=82 velocity=96 time=0@note_on channel=9 note=42 velocity=16 time=0@note_on channel=0 note=70 velocity=0 time=0.08828125@note_on channel=1 note=70 velocity=0 time=0.004687500000000001@note_on channel=2 note=82 velocity=0 time=0@note_on channel=9 note=42 velocity=0 time=0@note_on channel=0 note=67 velocity=96 time=0.00078125@note_on channel=1 note=67 velocity=96 time=0@note_on channel=2 note=79 velocity=96 time=0@note_on channel=9 note=42 velocity=16 time=0@note_on channel=0 note=67 velocity=0 time=0.08828125@note_on channel=1 note=67 velocity=0 time=0.004687500000000001@note_on channel=2 note=79 velocity=0 time=0@note_on channel=9 note=38 velocity=0 time=0@note_on channel=9 note=35 velocity=0 time=0@note_on channel=9 note=42 velocity=0 time=0@note_on channel=0 note=79 velocity=96 time=0.00078125@note_on channel=1 note=79 velocity=96 time=0@note_on channel=2 note=91 velocity=96 time=0@note_on channel=9 note=42 velocity=16 time=0@note_on channel=0 note=79 velocity=0 time=0.08828125@note_on channel=1 note=79 velocity=0 time=0.004687500000000001@note_on channel=2 note=91 velocity=0 time=0@note_on channel=0 note=73 velocity=96 time=0.00078125@note_on channel=1 note=73 velocity=96 time=0@note_on channel=2 note=85 velocity=96 time=0@note_on channel=0 note=73 velocity=0 time=0.08828125@note_on channel=1 note=73 velocity=0 time=0.004687500000000001@note_on channel=2 note=85 velocity=0 time=0@note_on channel=9 note=42 velocity=0 time=0@note_on channel=0 note=70 velocity=96 time=0.00078125@note_on channel=1 note=70 velocity=96 time=0@note_on channel=2 note=82 velocity=96 time=0@note_on channel=9 note=42 velocity=16 time=0@note_on channel=0 note=70 velocity=0 time=0.08828125@note_on channel=1 note=70 velocity=0 time=0.004687500000000001@note_on channel=2 note=82 velocity=0 time=0@note_on channel=0 note=67 velocity=96 time=0.00078125@note_on channel=1 note=67 velocity=96 time=0@note_on channel=2 note=79 velocity=96 time=0@note_on channel=0 note=67 velocity=0 time=0.08828125@note_on channel=1 note=67 velocity=0 time=0.004687500000000001@note_on channel=2 note=79 velocity=0 time=0@note_on channel=6 note=55 velocity=0 time=0@note_on channel=9 note=42 velocity=0 time=0@note_on channel=4 note=55 velocity=0 time=0@note_on channel=0 note=79 velocity=96 time=0.00078125@note_on channel=1 note=79 velocity=96 time=0@note_on channel=2 note=91 velocity=96 time=0@note_on channel=6 note=57 velocity=126 time=0@note_on channel=9 note=38 velocity=80 time=0@note_on channel=9 note=35 velocity=80 time=0@note_on channel=9 note=42 velocity=16 time=0@note_on channel=4 note=57 velocity=126 time=0@note_on channel=0 note=79 velocity=0 time=0.08828125@note_on channel=1 note=79 velocity=0 time=0.004687500000000001@note_on channel=2 note=91 velocity=0 time=0@note_on channel=9 note=38 velocity=0 time=0@note_on channel=9 note=42 velocity=0 time=0@note_on channel=0 note=73 velocity=96 time=0.00078125@note_on channel=1 note=73 velocity=96 time=0@note_on channel=2 note=85 velocity=96 time=0@note_on channel=9 note=38 velocity=80 time=0@note_on channel=9 note=42 velocity=16 time=0@note_on channel=0 note=73 velocity=0 time=0.08828125@note_on channel=1 note=73 velocity=0 time=0.004687500000000001@note_on channel=2 note=85 velocity=0 time=0@note_on channel=9 note=38 velocity=0 time=0@note_on channel=0 note=70 velocity=96 time=0.00078125@note_on channel=1 note=70 velocity=96 time=0@note_on channel=2 note=82 velocity=96 time=0@note_on channel=0 note=70 velocity=0 time=0.08828125@note_on channel=1 note=70 velocity=0 time=0.004687500000000001@note_on channel=2 note=82 velocity=0 time=0@note_on channel=0 note=67 velocity=96 time=0.00078125@note_on channel=1 note=67 velocity=96 time=0@note_on channel=2 note=79 velocity=96 time=0@note_on channel=0 note=67 velocity=0 time=0.08828125@note_on channel=1 note=67 velocity=0 time=0.004687500000000001@note_on channel=1 note=55 velocity=0 time=0@note_on channel=2 note=79 velocity=0 time=0@note_on channel=5 note=55 velocity=0 time=0@note_on channel=6 note=57 velocity=0 time=0@note_on channel=7 note=55 velocity=0 time=0@note_on channel=12 note=55 velocity=0 time=0@note_on channel=13 note=55 velocity=0 time=0@note_on channel=14 note=43 velocity=0 time=0@note_on channel=0 note=55 velocity=0 time=0@note_on channel=9 note=35 velocity=0 time=0@note_on channel=9 note=42 velocity=0 time=0@note_on channel=1 note=67 velocity=0 time=0@note_on channel=4 note=57 velocity=0 time=0@note_on channel=11 note=43 velocity=0 time=0@note_on channel=0 note=79 velocity=96 time=0.00078125@note_on channel=1 note=79 velocity=96 time=0@note_on channel=1 note=48 velocity=96 time=0@note_on channel=2 note=91 velocity=96 time=0@note_on channel=5 note=67 velocity=126 time=0@note_on channel=6 note=58 velocity=126 time=0@note_on channel=7 note=48 velocity=96 time=0@note_on channel=12 note=48 velocity=96 time=0@note_on channel=13 note=48 velocity=96 time=0@note_on channel=14 note=36 velocity=96 time=0@note_on channel=0 note=48 velocity=96 time=0@note_on channel=9 note=42 velocity=16 time=0@note_on channel=1 note=79 velocity=126 time=0@note_on channel=4 note=58 velocity=126 time=0@note_on channel=11 note=36 velocity=96 time=0@note_on channel=0 note=79 velocity=0 time=0.08828125@note_on channel=1 note=79 velocity=0 time=0.004687500000000001@note_on channel=2 note=91 velocity=0 time=0@note_on channel=0 note=73 velocity=96 time=0.00078125@note_on channel=1 note=73 velocity=96 time=0@note_on channel=2 note=85 velocity=96 time=0@note_on channel=0 note=73 velocity=0 time=0.08828125@note_on channel=1 note=73 velocity=0 time=0.004687500000000001@note_on channel=2 note=85 velocity=0 time=0@note_on channel=9 note=42 velocity=0 time=0@note_on channel=0 note=70 velocity=96 time=0.00078125@note_on channel=1 note=70 velocity=96 time=0@note_on channel=2 note=82 velocity=96 time=0@note_on channel=9 note=42 velocity=16 time=0@note_on channel=0 note=70 velocity=0 time=0.08828125@note_on channel=1 note=70 velocity=0 time=0.004687500000000001@note_on channel=2 note=82 velocity=0 time=0@note_on channel=0 note=67 velocity=96 time=0.00078125@note_on channel=1 note=67 velocity=96 time=0@note_on channel=2 note=79 velocity=96 time=0@note_on channel=0 note=67 velocity=0 time=0.08828125@note_on channel=1 note=67 velocity=0 time=0.004687500000000001@note_on channel=2 note=79 velocity=0 time=0@note_on channel=9 note=42 velocity=0 time=0@note_on channel=0 note=79 velocity=96 time=0.00078125@note_on channel=1 note=79 velocity=96 time=0@note_on channel=2 note=91 velocity=96 time=0@note_on channel=9 note=38 velocity=80 time=0@note_on channel=9 note=35 velocity=80 time=0@note_on channel=9 note=42 velocity=16 time=0@note_on channel=0 note=79 velocity=0 time=0.08828125@note_on channel=1 note=79 velocity=0 time=0.004687500000000001@note_on channel=2 note=91 velocity=0 time=0@note_on channel=0 note=73 velocity=96 time=0.00078125@note_on channel=1 note=73 velocity=96 time=0@note_on channel=2 note=85 velocity=96 time=0@note_on channel=0 note=73 velocity=0 time=0.08828125@note_on channel=1 note=73 velocity=0 time=0.004687500000000001@note_on channel=2 note=85 velocity=0 time=0@note_on channel=9 note=42 velocity=0 time=0@note_on channel=0 note=70 velocity=96 time=0.00078125@note_on channel=1 note=70 velocity=96 time=0@note_on channel=2 note=82 velocity=96 time=0@note_on channel=9 note=42 velocity=16 time=0@note_on channel=0 note=70 velocity=0 time=0.08828125@note_on channel=1 note=70 velocity=0 time=0.004687500000000001@note_on channel=2 note=82 velocity=0 time=0@note_on channel=9 note=42 velocity=0 time=0@note_on channel=0 note=67 velocity=96 time=0.00078125@note_on channel=1 note=67 velocity=96 time=0@note_on channel=2 note=79 velocity=96 time=0@note_on channel=9 note=42 velocity=16 time=0@note_on channel=0 note=67 velocity=0 time=0.08828125@note_on channel=1 note=67 velocity=0 time=0.004687500000000001@note_on channel=2 note=79 velocity=0 time=0@note_on channel=9 note=38 velocity=0 time=0@note_on channel=9 note=35 velocity=0 time=0@note_on channel=9 note=42 velocity=0 time=0@note_on channel=0 note=79 velocity=96 time=0.00078125@note_on channel=1 note=79 velocity=96 time=0@note_on channel=2 note=91 velocity=96 time=0@note_on channel=9 note=42 velocity=16 time=0@note_on channel=0 note=79 velocity=0 time=0.08828125@note_on channel=1 note=79 velocity=0 time=0.004687500000000001@note_on channel=2 note=91 velocity=0 time=0@note_on channel=0 note=73 velocity=96 time=0.00078125@note_on channel=1 note=73 velocity=96 time=0@note_on channel=2 note=85 velocity=96 time=0@note_on channel=0 note=73 velocity=0 time=0.08828125@note_on channel=1 note=73 velocity=0 time=0.004687500000000001@note_on channel=2 note=85 velocity=0 time=0@note_on channel=9 note=42 velocity=0 time=0@note_on channel=0 note=70 velocity=96 time=0.00078125@note_on channel=1 note=70 velocity=96 time=0@note_on channel=2 note=82 velocity=96 time=0@note_on channel=9 note=42 velocity=16 time=0@note_on channel=0 note=70 velocity=0 time=0.08828125@note_on channel=1 note=70 velocity=0 time=0.004687500000000001@note_on channel=2 note=82 velocity=0 time=0@note_on channel=0 note=67 velocity=96 time=0.00078125@note_on channel=1 note=67 velocity=96 time=0@note_on channel=2 note=79 velocity=96 time=0@note_on channel=0 note=67 velocity=0 time=0.08828125@note_on channel=1 note=67 velocity=0 time=0.004687500000000001@note_on channel=2 note=79 velocity=0 time=0@note_on channel=9 note=42 velocity=0 time=0@note_on channel=0 note=79 velocity=96 time=0.00078125@note_on channel=1 note=79 velocity=96 time=0@note_on channel=2 note=91 velocity=96 time=0@note_on channel=9 note=38 velocity=80 time=0@note_on channel=9 note=35 velocity=80 time=0@note_on channel=9 note=42 velocity=16 time=0@note_on channel=0 note=79 velocity=0 time=0.08828125@note_on channel=1 note=79 velocity=0 time=0.004687500000000001@note_on channel=2 note=91 velocity=0 time=0@note_on channel=9 note=38 velocity=0 time=0@note_on channel=9 note=42 velocity=0 time=0@note_on channel=0 note=73 velocity=96 time=0.00078125@note_on channel=1 note=73 velocity=96 time=0@note_on channel=2 note=85 velocity=96 time=0@note_on channel=9 note=38 velocity=80 time=0@note_on channel=9 note=42 velocity=16 time=0@note_on channel=0 note=73 velocity=0 time=0.08828125@note_on channel=1 note=73 velocity=0 time=0.004687500000000001@note_on channel=2 note=85 velocity=0 time=0@note_on channel=9 note=38 velocity=0 time=0@note_on channel=0 note=70 velocity=96 time=0.00078125@note_on channel=1 note=70 velocity=96 time=0@note_on channel=2 note=82 velocity=96 time=0@note_on channel=0 note=70 velocity=0 time=0.08828125@note_on channel=1 note=70 velocity=0 time=0.004687500000000001@note_on channel=2 note=82 velocity=0 time=0@note_on channel=0 note=67 velocity=96 time=0.00078125@note_on channel=1 note=67 velocity=96 time=0@note_on channel=2 note=79 velocity=96 time=0@note_on channel=0 note=67 velocity=0 time=0.08828125@note_on channel=1 note=67 velocity=0 time=0.004687500000000001@note_on channel=1 note=48 velocity=0 time=0@note_on channel=2 note=79 velocity=0 time=0@note_on channel=5 note=67 velocity=0 time=0@note_on channel=6 note=58 velocity=0 time=0@note_on channel=7 note=48 velocity=0 time=0@note_on channel=12 note=48 velocity=0 time=0@note_on channel=13 note=48 velocity=0 time=0@note_on channel=14 note=36 velocity=0 time=0@note_on channel=0 note=48 velocity=0 time=0@note_on channel=9 note=35 velocity=0 time=0@note_on channel=9 note=42 velocity=0 time=0@note_on channel=1 note=79 velocity=0 time=0@note_on channel=4 note=58 velocity=0 time=0@note_on channel=11 note=36 velocity=0 time=0@note_on channel=0 note=82 velocity=96 time=0.00078125@note_on channel=1 note=82 velocity=96 time=0@note_on channel=1 note=49 velocity=96 time=0@note_on channel=2 note=94 velocity=96 time=0@note_on channel=5 note=70 velocity=126 time=0@note_on channel=6 note=53 velocity=126 time=0@note_on channel=7 note=49 velocity=96 time=0@note_on channel=12 note=49 velocity=96 time=0@note_on channel=13 note=49 velocity=96 time=0@note_on channel=14 note=37 velocity=96 time=0@note_on channel=0 note=49 velocity=96 time=0@note_on channel=9 note=42 velocity=16 time=0@note_on channel=1 note=82 velocity=126 time=0@note_on channel=4 note=53 velocity=126 time=0@note_on channel=11 note=37 velocity=96 time=0@note_on channel=0 note=82 velocity=0 time=0.08828125@note_on channel=1 note=82 velocity=0 time=0.004687500000000001@note_on channel=2 note=94 velocity=0 time=0@note_on channel=0 note=77 velocity=96 time=0.00078125@note_on channel=1 note=77 velocity=96 time=0@note_on channel=2 note=89 velocity=96 time=0@note_on channel=0 note=77 velocity=0 time=0.08828125@note_on channel=1 note=77 velocity=0 time=0.004687500000000001@note_on channel=2 note=89 velocity=0 time=0@note_on channel=9 note=42 velocity=0 time=0@note_on channel=0 note=73 velocity=96 time=0.00078125@note_on channel=1 note=73 velocity=96 time=0@note_on channel=2 note=85 velocity=96 time=0@note_on channel=9 note=42 velocity=16 time=0@note_on channel=0 note=73 velocity=0 time=0.08828125@note_on channel=1 note=73 velocity=0 time=0.004687500000000001@note_on channel=2 note=85 velocity=0 time=0@note_on channel=0 note=70 velocity=96 time=0.00078125@note_on channel=1 note=70 velocity=96 time=0@note_on channel=2 note=82 velocity=96 time=0@note_on channel=0 note=70 velocity=0 time=0.08828125@note_on channel=1 note=70 velocity=0 time=0.004687500000000001@note_on channel=2 note=82 velocity=0 time=0@note_on channel=9 note=42 velocity=0 time=0@note_on channel=0 note=82 velocity=96 time=0.00078125@note_on channel=1 note=82 velocity=96 time=0@note_on channel=2 note=94 velocity=96 time=0@note_on channel=9 note=38 velocity=80 time=0@note_on channel=9 note=35 velocity=80 time=0@note_on channel=9 note=42 velocity=16 time=0@note_on channel=0 note=82 velocity=0 time=0.08828125@note_on channel=1 note=82 velocity=0 time=0.004687500000000001@note_on channel=2 note=94 velocity=0 time=0@note_on channel=0 note=77 velocity=96 time=0.00078125@note_on channel=1 note=77 velocity=96 time=0@note_on channel=2 note=89 velocity=96 time=0@note_on channel=0 note=77 velocity=0 time=0.08828125@note_on channel=1 note=77 velocity=0 time=0.004687500000000001@note_on channel=2 note=89 velocity=0 time=0@note_on channel=9 note=42 velocity=0 time=0@note_on channel=0 note=73 velocity=96 time=0.00078125@note_on channel=1 note=73 velocity=96 time=0@note_on channel=2 note=85 velocity=96 time=0@note_on channel=9 note=42 velocity=16 time=0@note_on channel=0 note=73 velocity=0 time=0.08828125@note_on channel=1 note=73 velocity=0 time=0.004687500000000001@note_on channel=2 note=85 velocity=0 time=0@note_on channel=9 note=42 velocity=0 time=0@note_on channel=0 note=70 velocity=96 time=0.00078125@note_on channel=1 note=70 velocity=96 time=0@note_on channel=2 note=82 velocity=96 time=0@note_on channel=9 note=42 velocity=16 time=0@note_on channel=0 note=70 velocity=0 time=0.08828125@note_on channel=1 note=70 velocity=0 time=0.004687500000000001@note_on channel=2 note=82 velocity=0 time=0@note_on channel=9 note=38 velocity=0 time=0@note_on channel=9 note=35 velocity=0 time=0@note_on channel=9 note=42 velocity=0 time=0@note_on channel=0 note=82 velocity=96 time=0.00078125@note_on channel=1 note=82 velocity=96 time=0@note_on channel=2 note=94 velocity=96 time=0@note_on channel=9 note=42 velocity=16 time=0@note_on channel=0 note=82 velocity=0 time=0.08828125@note_on channel=1 note=82 velocity=0 time=0.004687500000000001@note_on channel=2 note=94 velocity=0 time=0@note_on channel=0 note=77 velocity=96 time=0.00078125@note_on channel=1 note=77 velocity=96 time=0@note_on channel=2 note=89 velocity=96 time=0@note_on channel=0 note=77 velocity=0 time=0.08828125@note_on channel=1 note=77 velocity=0 time=0.004687500000000001@note_on channel=2 note=89 velocity=0 time=0@note_on channel=9 note=42 velocity=0 time=0@note_on channel=0 note=73 velocity=96 time=0.00078125@note_on channel=1 note=73 velocity=96 time=0@note_on channel=2 note=85 velocity=96 time=0@note_on channel=9 note=42 velocity=16 time=0@note_on channel=0 note=73 velocity=0 time=0.08828125@note_on channel=1 note=73 velocity=0 time=0.004687500000000001@note_on channel=2 note=85 velocity=0 time=0@note_on channel=0 note=70 velocity=96 time=0.00078125@note_on channel=1 note=70 velocity=96 time=0@note_on channel=2 note=82 velocity=96 time=0@note_on channel=0 note=70 velocity=0 time=0.08828125@note_on channel=1 note=70 velocity=0 time=0.004687500000000001@note_on channel=2 note=82 velocity=0 time=0@note_on channel=5 note=70 velocity=0 time=0@note_on channel=9 note=42 velocity=0 time=0@note_on channel=1 note=82 velocity=0 time=0@note_on channel=0 note=82 velocity=96 time=0.00078125@note_on channel=1 note=82 velocity=96 time=0@note_on channel=2 note=94 velocity=96 time=0@note_on channel=5 note=68 velocity=126 time=0@note_on channel=9 note=38 velocity=80 time=0@note_on channel=9 note=35 velocity=80 time=0@note_on channel=9 note=42 velocity=16 time=0@note_on channel=1 note=80 velocity=126 time=0@note_on channel=0 note=82 velocity=0 time=0.08828125@note_on channel=1 note=82 velocity=0 time=0.004687500000000001@note_on channel=2 note=94 velocity=0 time=0@note_on channel=9 note=38 velocity=0 time=0@note_on channel=9 note=42 velocity=0 time=0@note_on channel=0 note=77 velocity=96 time=0.00078125@note_on channel=1 note=77 velocity=96 time=0@note_on channel=2 note=89 velocity=96 time=0@note_on channel=9 note=38 velocity=80 time=0@note_on channel=9 note=42 velocity=16 time=0@note_on channel=0 note=77 velocity=0 time=0.08828125@note_on channel=1 note=77 velocity=0 time=0.004687500000000001@note_on channel=2 note=89 velocity=0 time=0@note_on channel=9 note=38 velocity=0 time=0@note_on channel=0 note=73 velocity=96 time=0.00078125@note_on channel=1 note=73 velocity=96 time=0@note_on channel=2 note=85 velocity=96 time=0@note_on channel=0 note=73 velocity=0 time=0.08828125@note_on channel=1 note=73 velocity=0 time=0.004687500000000001@note_on channel=2 note=85 velocity=0 time=0@note_on channel=0 note=70 velocity=96 time=0.00078125@note_on channel=1 note=70 velocity=96 time=0@note_on channel=2 note=82 velocity=96 time=0@note_on channel=0 note=70 velocity=0 time=0.08828125@note_on channel=1 note=70 velocity=0 time=0.004687500000000001@note_on channel=1 note=49 velocity=0 time=0@note_on channel=2 note=82 velocity=0 time=0@note_on channel=5 note=68 velocity=0 time=0@note_on channel=6 note=53 velocity=0 time=0@note_on channel=7 note=49 velocity=0 time=0@note_on channel=12 note=49 velocity=0 time=0@note_on channel=13 note=49 velocity=0 time=0@note_on channel=14 note=37 velocity=0 time=0@note_on channel=0 note=49 velocity=0 time=0@note_on channel=9 note=35 velocity=0 time=0@note_on channel=9 note=42 velocity=0 time=0@note_on channel=1 note=80 velocity=0 time=0@note_on channel=4 note=53 velocity=0 time=0@note_on channel=11 note=37 velocity=0 time=0@note_on channel=0 note=77 velocity=96 time=0.00078125@note_on channel=1 note=77 velocity=96 time=0@note_on channel=1 note=53 velocity=96 time=0@note_on channel=2 note=89 velocity=96 time=0@note_on channel=5 note=65 velocity=126 time=0@note_on channel=6 note=53 velocity=126 time=0@note_on channel=7 note=53 velocity=96 time=0@note_on channel=12 note=53 velocity=96 time=0@note_on channel=13 note=53 velocity=96 time=0@note_on channel=14 note=41 velocity=96 time=0@note_on channel=0 note=53 velocity=96 time=0@note_on channel=9 note=42 velocity=16 time=0@note_on channel=1 note=77 velocity=126 time=0@note_on channel=4 note=53 velocity=126 time=0@note_on channel=11 note=41 velocity=96 time=0@note_on channel=0 note=77 velocity=0 time=0.08828125@note_on channel=1 note=77 velocity=0 time=0.004687500000000001@note_on channel=2 note=89 velocity=0 time=0@note_on channel=0 note=72 velocity=96 time=0.00078125@note_on channel=1 note=72 velocity=96 time=0@note_on channel=2 note=84 velocity=96 time=0@note_on channel=0 note=72 velocity=0 time=0.08828125@note_on channel=1 note=72 velocity=0 time=0.004687500000000001@note_on channel=2 note=84 velocity=0 time=0@note_on channel=9 note=42 velocity=0 time=0@note_on channel=0 note=68 velocity=96 time=0.00078125@note_on channel=1 note=68 velocity=96 time=0@note_on channel=2 note=80 velocity=96 time=0@note_on channel=9 note=42 velocity=16 time=0@note_on channel=0 note=68 velocity=0 time=0.08828125@note_on channel=1 note=68 velocity=0 time=0.004687500000000001@note_on channel=2 note=80 velocity=0 time=0@note_on channel=0 note=65 velocity=96 time=0.00078125@note_on channel=1 note=65 velocity=96 time=0@note_on channel=2 note=77 velocity=96 time=0@note_on channel=0 note=65 velocity=0 time=0.08828125@note_on channel=1 note=65 velocity=0 time=0.004687500000000001@note_on channel=2 note=77 velocity=0 time=0@note_on channel=9 note=42 velocity=0 time=0@note_on channel=0 note=77 velocity=96 time=0.00078125@note_on channel=1 note=77 velocity=96 time=0@note_on channel=2 note=89 velocity=96 time=0@note_on channel=9 note=38 velocity=80 time=0@note_on channel=9 note=35 velocity=80 time=0@note_on channel=9 note=42 velocity=16 time=0@note_on channel=0 note=77 velocity=0 time=0.08828125@note_on channel=1 note=77 velocity=0 time=0.004687500000000001@note_on channel=2 note=89 velocity=0 time=0@note_on channel=0 note=72 velocity=96 time=0.00078125@note_on channel=1 note=72 velocity=96 time=0@note_on channel=2 note=84 velocity=96 time=0@note_on channel=0 note=72 velocity=0 time=0.08828125@note_on channel=1 note=72 velocity=0 time=0.004687500000000001@note_on channel=2 note=84 velocity=0 time=0@note_on channel=9 note=42 velocity=0 time=0@note_on channel=0 note=68 velocity=96 time=0.00078125@note_on channel=1 note=68 velocity=96 time=0@note_on channel=2 note=80 velocity=96 time=0@note_on channel=9 note=42 velocity=16 time=0@note_on channel=0 note=68 velocity=0 time=0.08828125@note_on channel=1 note=68 velocity=0 time=0.004687500000000001@note_on channel=2 note=80 velocity=0 time=0@note_on channel=9 note=42 velocity=0 time=0@note_on channel=0 note=65 velocity=96 time=0.00078125@note_on channel=1 note=65 velocity=96 time=0@note_on channel=2 note=77 velocity=96 time=0@note_on channel=9 note=42 velocity=16 time=0@note_on channel=0 note=65 velocity=0 time=0.08828125@note_on channel=1 note=65 velocity=0 time=0.004687500000000001@note_on channel=2 note=77 velocity=0 time=0@note_on channel=9 note=38 velocity=0 time=0@note_on channel=9 note=35 velocity=0 time=0@note_on channel=9 note=42 velocity=0 time=0@note_on channel=0 note=77 velocity=96 time=0.00078125@note_on channel=1 note=77 velocity=96 time=0@note_on channel=2 note=89 velocity=96 time=0@note_on channel=9 note=42 velocity=16 time=0@note_on channel=0 note=77 velocity=0 time=0.08828125@note_on channel=1 note=77 velocity=0 time=0.004687500000000001@note_on channel=2 note=89 velocity=0 time=0@note_on channel=0 note=72 velocity=96 time=0.00078125@note_on channel=1 note=72 velocity=96 time=0@note_on channel=2 note=84 velocity=96 time=0@note_on channel=0 note=72 velocity=0 time=0.08828125@note_on channel=1 note=72 velocity=0 time=0.004687500000000001@note_on channel=2 note=84 velocity=0 time=0@note_on channel=9 note=42 velocity=0 time=0@note_on channel=0 note=68 velocity=96 time=0.00078125@note_on channel=1 note=68 velocity=96 time=0@note_on channel=2 note=80 velocity=96 time=0@note_on channel=9 note=42 velocity=16 time=0@note_on channel=0 note=68 velocity=0 time=0.08828125@note_on channel=1 note=68 velocity=0 time=0.004687500000000001@note_on channel=2 note=80 velocity=0 time=0@note_on channel=0 note=65 velocity=96 time=0.00078125@note_on channel=1 note=65 velocity=96 time=0@note_on channel=2 note=77 velocity=96 time=0@note_on channel=0 note=65 velocity=0 time=0.08828125@note_on channel=1 note=65 velocity=0 time=0.004687500000000001@note_on channel=2 note=77 velocity=0 time=0@note_on channel=9 note=42 velocity=0 time=0@note_on channel=0 note=77 velocity=96 time=0.00078125@note_on channel=1 note=77 velocity=96 time=0@note_on channel=2 note=89 velocity=96 time=0@note_on channel=9 note=38 velocity=80 time=0@note_on channel=9 note=35 velocity=80 time=0@note_on channel=9 note=42 velocity=16 time=0@note_on channel=0 note=77 velocity=0 time=0.08828125@note_on channel=1 note=77 velocity=0 time=0.004687500000000001@note_on channel=2 note=89 velocity=0 time=0@note_on channel=9 note=38 velocity=0 time=0@note_on channel=9 note=42 velocity=0 time=0@note_on channel=0 note=72 velocity=96 time=0.00078125@note_on channel=1 note=72 velocity=96 time=0@note_on channel=2 note=84 velocity=96 time=0@note_on channel=9 note=38 velocity=80 time=0@note_on channel=9 note=42 velocity=16 time=0@note_on channel=0 note=72 velocity=0 time=0.08828125@note_on channel=1 note=72 velocity=0 time=0.004687500000000001@note_on channel=2 note=84 velocity=0 time=0@note_on channel=9 note=38 velocity=0 time=0@note_on channel=0 note=68 velocity=96 time=0.00078125@note_on channel=1 note=68 velocity=96 time=0@note_on channel=2 note=80 velocity=96 time=0@note_on channel=0 note=68 velocity=0 time=0.08828125@note_on channel=1 note=68 velocity=0 time=0.004687500000000001@note_on channel=2 note=80 velocity=0 time=0@note_on channel=0 note=65 velocity=96 time=0.00078125@note_on channel=1 note=65 velocity=96 time=0@note_on channel=2 note=77 velocity=96 time=0@note_on channel=0 note=65 velocity=0 time=0.08828125@note_on channel=1 note=65 velocity=0 time=0.004687500000000001@note_on channel=1 note=53 velocity=0 time=0@note_on channel=2 note=77 velocity=0 time=0@note_on channel=5 note=65 velocity=0 time=0@note_on channel=6 note=53 velocity=0 time=0@note_on channel=7 note=53 velocity=0 time=0@note_on channel=12 note=53 velocity=0 time=0@note_on channel=13 note=53 velocity=0 time=0@note_on channel=14 note=41 velocity=0 time=0@note_on channel=0 note=53 velocity=0 time=0@note_on channel=9 note=35 velocity=0 time=0@note_on channel=9 note=42 velocity=0 time=0@note_on channel=1 note=77 velocity=0 time=0@note_on channel=4 note=53 velocity=0 time=0@note_on channel=11 note=41 velocity=0 time=0@note_on channel=0 note=79 velocity=96 time=0.00078125@note_on channel=1 note=79 velocity=96 time=0@note_on channel=1 note=46 velocity=96 time=0@note_on channel=2 note=91 velocity=96 time=0@note_on channel=5 note=67 velocity=126 time=0@note_on channel=6 note=58 velocity=126 time=0@note_on channel=7 note=46 velocity=96 time=0@note_on channel=12 note=46 velocity=96 time=0@note_on channel=13 note=46 velocity=96 time=0@note_on channel=14 note=34 velocity=96 time=0@note_on channel=0 note=46 velocity=96 time=0@note_on channel=9 note=42 velocity=16 time=0@note_on channel=1 note=79 velocity=126 time=0@note_on channel=4 note=58 velocity=126 time=0@note_on channel=11 note=34 velocity=96 time=0@note_on channel=0 note=79 velocity=0 time=0.08828125@note_on channel=1 note=79 velocity=0 time=0.004687500000000001@note_on channel=2 note=91 velocity=0 time=0@note_on channel=0 note=73 velocity=96 time=0.00078125@note_on channel=1 note=73 velocity=96 time=0@note_on channel=2 note=85 velocity=96 time=0@note_on channel=0 note=73 velocity=0 time=0.08828125@note_on channel=1 note=73 velocity=0 time=0.004687500000000001@note_on channel=2 note=85 velocity=0 time=0@note_on channel=9 note=42 velocity=0 time=0@note_on channel=0 note=70 velocity=96 time=0.00078125@note_on channel=1 note=70 velocity=96 time=0@note_on channel=2 note=82 velocity=96 time=0@note_on channel=9 note=42 velocity=16 time=0@note_on channel=0 note=70 velocity=0 time=0.08828125@note_on channel=1 note=70 velocity=0 time=0.004687500000000001@note_on channel=2 note=82 velocity=0 time=0@note_on channel=0 note=67 velocity=96 time=0.00078125@note_on channel=1 note=67 velocity=96 time=0@note_on channel=2 note=79 velocity=96 time=0@note_on channel=0 note=67 velocity=0 time=0.08828125@note_on channel=1 note=67 velocity=0 time=0.004687500000000001@note_on channel=2 note=79 velocity=0 time=0@note_on channel=9 note=42 velocity=0 time=0@note_on channel=0 note=79 velocity=96 time=0.00078125@note_on channel=1 note=79 velocity=96 time=0@note_on channel=2 note=91 velocity=96 time=0@note_on channel=9 note=38 velocity=80 time=0@note_on channel=9 note=35 velocity=80 time=0@note_on channel=9 note=42 velocity=16 time=0@note_on channel=0 note=79 velocity=0 time=0.08828125@note_on channel=1 note=79 velocity=0 time=0.004687500000000001@note_on channel=2 note=91 velocity=0 time=0@note_on channel=0 note=73 velocity=96 time=0.00078125@note_on channel=1 note=73 velocity=96 time=0@note_on channel=2 note=85 velocity=96 time=0@note_on channel=0 note=73 velocity=0 time=0.08828125@note_on channel=1 note=73 velocity=0 time=0.004687500000000001@note_on channel=2 note=85 velocity=0 time=0@note_on channel=9 note=42 velocity=0 time=0@note_on channel=0 note=70 velocity=96 time=0.00078125@note_on channel=1 note=70 velocity=96 time=0@note_on channel=2 note=82 velocity=96 time=0@note_on channel=9 note=42 velocity=16 time=0@note_on channel=0 note=70 velocity=0 time=0.08828125@note_on channel=1 note=70 velocity=0 time=0.004687500000000001@note_on channel=2 note=82 velocity=0 time=0@note_on channel=9 note=42 velocity=0 time=0@note_on channel=0 note=67 velocity=96 time=0.00078125@note_on channel=1 note=67 velocity=96 time=0@note_on channel=2 note=79 velocity=96 time=0@note_on channel=9 note=42 velocity=16 time=0@note_on channel=0 note=67 velocity=0 time=0.08828125@note_on channel=1 note=67 velocity=0 time=0.004687500000000001@note_on channel=2 note=79 velocity=0 time=0@note_on channel=9 note=38 velocity=0 time=0@note_on channel=9 note=35 velocity=0 time=0@note_on channel=9 note=42 velocity=0 time=0@note_on channel=0 note=79 velocity=96 time=0.00078125@note_on channel=1 note=79 velocity=96 time=0@note_on channel=2 note=91 velocity=96 time=0@note_on channel=9 note=42 velocity=16 time=0@note_on channel=0 note=79 velocity=0 time=0.08828125@note_on channel=1 note=79 velocity=0 time=0.004687500000000001@note_on channel=2 note=91 velocity=0 time=0@note_on channel=0 note=73 velocity=96 time=0.00078125@note_on channel=1 note=73 velocity=96 time=0@note_on channel=2 note=85 velocity=96 time=0@note_on channel=0 note=73 velocity=0 time=0.08828125@note_on channel=1 note=73 velocity=0 time=0.004687500000000001@note_on channel=2 note=85 velocity=0 time=0@note_on channel=9 note=42 velocity=0 time=0@note_on channel=0 note=70 velocity=96 time=0.00078125@note_on channel=1 note=70 velocity=96 time=0@note_on channel=2 note=82 velocity=96 time=0@note_on channel=9 note=42 velocity=16 time=0@note_on channel=0 note=70 velocity=0 time=0.08828125@note_on channel=1 note=70 velocity=0 time=0.004687500000000001@note_on channel=2 note=82 velocity=0 time=0@note_on channel=0 note=67 velocity=96 time=0.00078125@note_on channel=1 note=67 velocity=96 time=0@note_on channel=2 note=79 velocity=96 time=0@note_on channel=0 note=67 velocity=0 time=0.08828125@note_on channel=1 note=67 velocity=0 time=0.004687500000000001@note_on channel=2 note=79 velocity=0 time=0@note_on channel=9 note=42 velocity=0 time=0@note_on channel=0 note=79 velocity=96 time=0.00078125@note_on channel=1 note=79 velocity=96 time=0@note_on channel=2 note=91 velocity=96 time=0@note_on channel=9 note=38 velocity=80 time=0@note_on channel=9 note=35 velocity=80 time=0@note_on channel=9 note=42 velocity=16 time=0@note_on channel=0 note=79 velocity=0 time=0.08828125@note_on channel=1 note=79 velocity=0 time=0.004687500000000001@note_on channel=2 note=91 velocity=0 time=0@note_on channel=9 note=38 velocity=0 time=0@note_on channel=9 note=42 velocity=0 time=0@note_on channel=0 note=73 velocity=96 time=0.00078125@note_on channel=1 note=73 velocity=96 time=0@note_on channel=2 note=85 velocity=96 time=0@note_on channel=9 note=38 velocity=80 time=0@note_on channel=9 note=42 velocity=16 time=0@note_on channel=0 note=73 velocity=0 time=0.08828125@note_on channel=1 note=73 velocity=0 time=0.004687500000000001@note_on channel=2 note=85 velocity=0 time=0@note_on channel=9 note=38 velocity=0 time=0@note_on channel=0 note=70 velocity=96 time=0.00078125@note_on channel=1 note=70 velocity=96 time=0@note_on channel=2 note=82 velocity=96 time=0@note_on channel=0 note=70 velocity=0 time=0.08828125@note_on channel=1 note=70 velocity=0 time=0.004687500000000001@note_on channel=2 note=82 velocity=0 time=0@note_on channel=0 note=67 velocity=96 time=0.00078125@note_on channel=1 note=67 velocity=96 time=0@note_on channel=2 note=79 velocity=96 time=0@note_on channel=0 note=67 velocity=0 time=0.08828125@note_on channel=1 note=67 velocity=0 time=0.004687500000000001@note_on channel=1 note=46 velocity=0 time=0@note_on channel=2 note=79 velocity=0 time=0@note_on channel=5 note=67 velocity=0 time=0@note_on channel=6 note=58 velocity=0 time=0@note_on channel=7 note=46 velocity=0 time=0@note_on channel=12 note=46 velocity=0 time=0@note_on channel=13 note=46 velocity=0 time=0@note_on channel=14 note=34 velocity=0 time=0@note_on channel=0 note=46 velocity=0 time=0@note_on channel=9 note=35 velocity=0 time=0@note_on channel=9 note=42 velocity=0 time=0@note_on channel=1 note=79 velocity=0 time=0@note_on channel=4 note=58 velocity=0 time=0@note_on channel=11 note=34 velocity=0 time=0@note_on channel=0 note=77 velocity=96 time=0.00078125@note_on channel=1 note=77 velocity=96 time=0@note_on channel=1 note=53 velocity=96 time=0@note_on channel=2 note=89 velocity=96 time=0@note_on channel=5 note=65 velocity=126 time=0@note_on channel=6 note=56 velocity=126 time=0@note_on channel=7 note=53 velocity=96 time=0@note_on channel=12 note=53 velocity=96 time=0@note_on channel=13 note=53 velocity=96 time=0@note_on channel=14 note=41 velocity=96 time=0@note_on channel=0 note=53 velocity=96 time=0@note_on channel=9 note=42 velocity=16 time=0@note_on channel=1 note=77 velocity=126 time=0@note_on channel=4 note=56 velocity=126 time=0@note_on channel=11 note=41 velocity=96 time=0@note_on channel=0 note=77 velocity=0 time=0.08828125@note_on channel=1 note=77 velocity=0 time=0.004687500000000001@note_on channel=2 note=89 velocity=0 time=0@note_on channel=0 note=72 velocity=96 time=0.00078125@note_on channel=1 note=72 velocity=96 time=0@note_on channel=2 note=84 velocity=96 time=0@note_on channel=0 note=72 velocity=0 time=0.08828125@note_on channel=1 note=72 velocity=0 time=0.004687500000000001@note_on channel=2 note=84 velocity=0 time=0@note_on channel=9 note=42 velocity=0 time=0@note_on channel=0 note=68 velocity=96 time=0.00078125@note_on channel=1 note=68 velocity=96 time=0@note_on channel=2 note=80 velocity=96 time=0@note_on channel=9 note=42 velocity=16 time=0@note_on channel=0 note=68 velocity=0 time=0.08828125@note_on channel=1 note=68 velocity=0 time=0.004687500000000001@note_on channel=2 note=80 velocity=0 time=0@note_on channel=0 note=65 velocity=96 time=0.00078125@note_on channel=1 note=65 velocity=96 time=0@note_on channel=2 note=77 velocity=96 time=0@note_on channel=0 note=65 velocity=0 time=0.08828125@note_on channel=1 note=65 velocity=0 time=0.004687500000000001@note_on channel=2 note=77 velocity=0 time=0@note_on channel=9 note=42 velocity=0 time=0@note_on channel=0 note=77 velocity=96 time=0.00078125@note_on channel=1 note=77 velocity=96 time=0@note_on channel=2 note=89 velocity=96 time=0@note_on channel=9 note=38 velocity=80 time=0@note_on channel=9 note=35 velocity=80 time=0@note_on channel=9 note=42 velocity=16 time=0@note_on channel=0 note=77 velocity=0 time=0.08828125@note_on channel=1 note=77 velocity=0 time=0.004687500000000001@note_on channel=2 note=89 velocity=0 time=0@note_on channel=0 note=72 velocity=96 time=0.00078125@note_on channel=1 note=72 velocity=96 time=0@note_on channel=2 note=84 velocity=96 time=0@note_on channel=0 note=72 velocity=0 time=0.08828125@note_on channel=1 note=72 velocity=0 time=0.004687500000000001@note_on channel=2 note=84 velocity=0 time=0@note_on channel=9 note=42 velocity=0 time=0@note_on channel=0 note=68 velocity=96 time=0.00078125@note_on channel=1 note=68 velocity=96 time=0@note_on channel=2 note=80 velocity=96 time=0@note_on channel=9 note=42 velocity=16 time=0@note_on channel=0 note=68 velocity=0 time=0.08828125@note_on channel=1 note=68 velocity=0 time=0.004687500000000001@note_on channel=2 note=80 velocity=0 time=0@note_on channel=9 note=42 velocity=0 time=0@note_on channel=0 note=65 velocity=96 time=0.00078125@note_on channel=1 note=65 velocity=96 time=0@note_on channel=2 note=77 velocity=96 time=0@note_on channel=9 note=42 velocity=16 time=0@note_on channel=0 note=65 velocity=0 time=0.08828125@note_on channel=1 note=65 velocity=0 time=0.004687500000000001@note_on channel=2 note=77 velocity=0 time=0@note_on channel=9 note=38 velocity=0 time=0@note_on channel=9 note=35 velocity=0 time=0@note_on channel=9 note=42 velocity=0 time=0@note_on channel=0 note=77 velocity=96 time=0.00078125@note_on channel=1 note=77 velocity=96 time=0@note_on channel=2 note=89 velocity=96 time=0@note_on channel=9 note=42 velocity=16 time=0@note_on channel=0 note=77 velocity=0 time=0.08828125@note_on channel=1 note=77 velocity=0 time=0.004687500000000001@note_on channel=2 note=89 velocity=0 time=0@note_on channel=0 note=72 velocity=96 time=0.00078125@note_on channel=1 note=72 velocity=96 time=0@note_on channel=2 note=84 velocity=96 time=0@note_on channel=0 note=72 velocity=0 time=0.08828125@note_on channel=1 note=72 velocity=0 time=0.004687500000000001@note_on channel=2 note=84 velocity=0 time=0@note_on channel=9 note=42 velocity=0 time=0@note_on channel=0 note=68 velocity=96 time=0.00078125@note_on channel=1 note=68 velocity=96 time=0@note_on channel=2 note=80 velocity=96 time=0@note_on channel=9 note=42 velocity=16 time=0@note_on channel=0 note=68 velocity=0 time=0.08828125@note_on channel=1 note=68 velocity=0 time=0.004687500000000001@note_on channel=2 note=80 velocity=0 time=0@note_on channel=0 note=65 velocity=96 time=0.00078125@note_on channel=1 note=65 velocity=96 time=0@note_on channel=2 note=77 velocity=96 time=0@note_on channel=0 note=65 velocity=0 time=0.08828125@note_on channel=1 note=65 velocity=0 time=0.004687500000000001@note_on channel=2 note=77 velocity=0 time=0@note_on channel=9 note=42 velocity=0 time=0@note_on channel=0 note=77 velocity=96 time=0.00078125@note_on channel=1 note=77 velocity=96 time=0@note_on channel=2 note=89 velocity=96 time=0@note_on channel=9 note=38 velocity=80 time=0@note_on channel=9 note=35 velocity=80 time=0@note_on channel=9 note=42 velocity=16 time=0@note_on channel=0 note=77 velocity=0 time=0.08828125@note_on channel=1 note=77 velocity=0 time=0.004687500000000001@note_on channel=2 note=89 velocity=0 time=0@note_on channel=9 note=38 velocity=0 time=0@note_on channel=9 note=42 velocity=0 time=0@note_on channel=0 note=72 velocity=96 time=0.00078125@note_on channel=1 note=72 velocity=96 time=0@note_on channel=2 note=84 velocity=96 time=0@note_on channel=9 note=38 velocity=80 time=0@note_on channel=9 note=42 velocity=16 time=0@note_on channel=0 note=72 velocity=0 time=0.08828125@note_on channel=1 note=72 velocity=0 time=0.004687500000000001@note_on channel=2 note=84 velocity=0 time=0@note_on channel=9 note=38 velocity=0 time=0@note_on channel=0 note=68 velocity=96 time=0.00078125@note_on channel=1 note=68 velocity=96 time=0@note_on channel=2 note=80 velocity=96 time=0@note_on channel=0 note=68 velocity=0 time=0.08828125@note_on channel=1 note=68 velocity=0 time=0.004687500000000001@note_on channel=2 note=80 velocity=0 time=0@note_on channel=0 note=65 velocity=96 time=0.00078125@note_on channel=1 note=65 velocity=96 time=0@note_on channel=2 note=77 velocity=96 time=0@note_on channel=0 note=65 velocity=0 time=0.08828125@note_on channel=1 note=65 velocity=0 time=0.004687500000000001@note_on channel=1 note=53 velocity=0 time=0@note_on channel=2 note=77 velocity=0 time=0@note_on channel=5 note=65 velocity=0 time=0@note_on channel=6 note=56 velocity=0 time=0@note_on channel=7 note=53 velocity=0 time=0@note_on channel=12 note=53 velocity=0 time=0@note_on channel=13 note=53 velocity=0 time=0@note_on channel=14 note=41 velocity=0 time=0@note_on channel=0 note=53 velocity=0 time=0@note_on channel=9 note=35 velocity=0 time=0@note_on channel=9 note=42 velocity=0 time=0@note_on channel=1 note=77 velocity=0 time=0@note_on channel=4 note=56 velocity=0 time=0@note_on channel=11 note=41 velocity=0 time=0@note_on channel=0 note=77 velocity=96 time=0.00078125@note_on channel=1 note=77 velocity=96 time=0@note_on channel=1 note=53 velocity=96 time=0@note_on channel=2 note=89 velocity=96 time=0@note_on channel=3 note=60 velocity=126 time=0@note_on channel=4 note=60 velocity=126 time=0@note_on channel=5 note=65 velocity=126 time=0@note_on channel=6 note=65 velocity=126 time=0@note_on channel=7 note=53 velocity=96 time=0@note_on channel=12 note=53 velocity=96 time=0@note_on channel=13 note=53 velocity=96 time=0@note_on channel=14 note=41 velocity=96 time=0@note_on channel=0 note=53 velocity=96 time=0@note_on channel=9 note=42 velocity=16 time=0@note_on channel=9 note=57 velocity=112 time=0@note_on channel=1 note=77 velocity=126 time=0@note_on channel=4 note=65 velocity=126 time=0@note_on channel=7 note=60 velocity=126 time=0@note_on channel=11 note=41 velocity=96 time=0@note_on channel=0 note=77 velocity=0 time=0.08828125@note_on channel=1 note=77 velocity=0 time=0.004687500000000001@note_on channel=2 note=89 velocity=0 time=0@note_on channel=0 note=72 velocity=96 time=0.00078125@note_on channel=1 note=72 velocity=96 time=0@note_on channel=2 note=84 velocity=96 time=0@note_on channel=0 note=72 velocity=0 time=0.08828125@note_on channel=1 note=72 velocity=0 time=0.004687500000000001@note_on channel=2 note=84 velocity=0 time=0@note_on channel=9 note=42 velocity=0 time=0@note_on channel=0 note=68 velocity=96 time=0.00078125@note_on channel=1 note=68 velocity=96 time=0@note_on channel=2 note=80 velocity=96 time=0@note_on channel=9 note=42 velocity=16 time=0@note_on channel=0 note=68 velocity=0 time=0.08828125@note_on channel=1 note=68 velocity=0 time=0.004687500000000001@note_on channel=2 note=80 velocity=0 time=0@note_on channel=0 note=65 velocity=96 time=0.00078125@note_on channel=1 note=65 velocity=96 time=0@note_on channel=2 note=77 velocity=96 time=0@note_on channel=0 note=65 velocity=0 time=0.08828125@note_on channel=1 note=65 velocity=0 time=0.004687500000000001@note_on channel=2 note=77 velocity=0 time=0@note_on channel=9 note=42 velocity=0 time=0@note_on channel=9 note=57 velocity=0 time=0@note_on channel=0 note=77 velocity=96 time=0.00078125@note_on channel=1 note=77 velocity=96 time=0@note_on channel=2 note=89 velocity=96 time=0@note_on channel=9 note=38 velocity=80 time=0@note_on channel=9 note=35 velocity=80 time=0@note_on channel=9 note=42 velocity=16 time=0@note_on channel=0 note=77 velocity=0 time=0.08828125@note_on channel=1 note=77 velocity=0 time=0.004687500000000001@note_on channel=2 note=89 velocity=0 time=0@note_on channel=0 note=72 velocity=96 time=0.00078125@note_on channel=1 note=72 velocity=96 time=0@note_on channel=2 note=84 velocity=96 time=0@note_on channel=0 note=72 velocity=0 time=0.08828125@note_on channel=1 note=72 velocity=0 time=0.004687500000000001@note_on channel=2 note=84 velocity=0 time=0@note_on channel=9 note=42 velocity=0 time=0@note_on channel=0 note=68 velocity=96 time=0.00078125@note_on channel=1 note=68 velocity=96 time=0@note_on channel=2 note=80 velocity=96 time=0@note_on channel=9 note=42 velocity=16 time=0@note_on channel=0 note=68 velocity=0 time=0.08828125@note_on channel=1 note=68 velocity=0 time=0.004687500000000001@note_on channel=2 note=80 velocity=0 time=0@note_on channel=9 note=42 velocity=0 time=0@note_on channel=0 note=65 velocity=96 time=0.00078125@note_on channel=1 note=65 velocity=96 time=0@note_on channel=2 note=77 velocity=96 time=0@note_on channel=9 note=42 velocity=16 time=0@note_on channel=0 note=65 velocity=0 time=0.08828125@note_on channel=1 note=65 velocity=0 time=0.004687500000000001@note_on channel=2 note=77 velocity=0 time=0@note_on channel=9 note=38 velocity=0 time=0@note_on channel=9 note=35 velocity=0 time=0@note_on channel=9 note=42 velocity=0 time=0@note_on channel=0 note=77 velocity=96 time=0.00078125@note_on channel=1 note=77 velocity=96 time=0@note_on channel=2 note=89 velocity=96 time=0@note_on channel=9 note=42 velocity=16 time=0@note_on channel=0 note=77 velocity=0 time=0.08828125@note_on channel=1 note=77 velocity=0 time=0.004687500000000001@note_on channel=2 note=89 velocity=0 time=0@note_on channel=0 note=72 velocity=96 time=0.00078125@note_on channel=1 note=72 velocity=96 time=0@note_on channel=2 note=84 velocity=96 time=0@note_on channel=0 note=72 velocity=0 time=0.08828125@note_on channel=1 note=72 velocity=0 time=0.004687500000000001@note_on channel=2 note=84 velocity=0 time=0@note_on channel=9 note=42 velocity=0 time=0@note_on channel=0 note=68 velocity=96 time=0.00078125@note_on channel=1 note=68 velocity=96 time=0@note_on channel=2 note=80 velocity=96 time=0@note_on channel=9 note=42 velocity=16 time=0@note_on channel=0 note=68 velocity=0 time=0.08828125@note_on channel=1 note=68 velocity=0 time=0.004687500000000001@note_on channel=2 note=80 velocity=0 time=0@note_on channel=0 note=65 velocity=96 time=0.00078125@note_on channel=1 note=65 velocity=96 time=0@note_on channel=2 note=77 velocity=96 time=0@note_on channel=0 note=65 velocity=0 time=0.08828125@note_on channel=1 note=65 velocity=0 time=0.004687500000000001@note_on channel=1 note=53 velocity=0 time=0@note_on channel=2 note=77 velocity=0 time=0@note_on channel=5 note=65 velocity=0 time=0@note_on channel=6 note=65 velocity=0 time=0@note_on channel=7 note=53 velocity=0 time=0@note_on channel=12 note=53 velocity=0 time=0@note_on channel=13 note=53 velocity=0 time=0@note_on channel=14 note=41 velocity=0 time=0@note_on channel=0 note=53 velocity=0 time=0@note_on channel=9 note=42 velocity=0 time=0@note_on channel=1 note=77 velocity=0 time=0@note_on channel=4 note=65 velocity=0 time=0@note_on channel=11 note=41 velocity=0 time=0@note_on channel=0 note=77 velocity=96 time=0.00078125@note_on channel=1 note=77 velocity=96 time=0@note_on channel=1 note=56 velocity=96 time=0@note_on channel=2 note=89 velocity=96 time=0@note_on channel=5 note=60 velocity=126 time=0@note_on channel=6 note=60 velocity=126 time=0@note_on channel=7 note=56 velocity=96 time=0@note_on channel=12 note=56 velocity=96 time=0@note_on channel=13 note=56 velocity=96 time=0@note_on channel=14 note=44 velocity=96 time=0@note_on channel=0 note=56 velocity=96 time=0@note_on channel=9 note=38 velocity=80 time=0@note_on channel=9 note=35 velocity=80 time=0@note_on channel=9 note=42 velocity=16 time=0@note_on channel=1 note=72 velocity=126 time=0@note_on channel=4 note=60 velocity=126 time=0@note_on channel=11 note=44 velocity=96 time=0@note_on channel=0 note=77 velocity=0 time=0.08828125@note_on channel=1 note=77 velocity=0 time=0.004687500000000001@note_on channel=2 note=89 velocity=0 time=0@note_on channel=9 note=38 velocity=0 time=0@note_on channel=9 note=42 velocity=0 time=0@note_on channel=0 note=72 velocity=96 time=0.00078125@note_on channel=1 note=72 velocity=96 time=0@note_on channel=2 note=84 velocity=96 time=0@note_on channel=9 note=38 velocity=80 time=0@note_on channel=9 note=42 velocity=16 time=0@note_on channel=0 note=72 velocity=0 time=0.08828125@note_on channel=1 note=72 velocity=0 time=0.004687500000000001@note_on channel=2 note=84 velocity=0 time=0@note_on channel=9 note=38 velocity=0 time=0@note_on channel=0 note=68 velocity=96 time=0.00078125@note_on channel=1 note=68 velocity=96 time=0@note_on channel=2 note=80 velocity=96 time=0@note_on channel=0 note=68 velocity=0 time=0.08828125@note_on channel=1 note=68 velocity=0 time=0.004687500000000001@note_on channel=2 note=80 velocity=0 time=0@note_on channel=0 note=65 velocity=96 time=0.00078125@note_on channel=1 note=65 velocity=96 time=0@note_on channel=2 note=77 velocity=96 time=0@note_on channel=0 note=65 velocity=0 time=0.08828125@note_on channel=1 note=65 velocity=0 time=0.004687500000000001@note_on channel=1 note=56 velocity=0 time=0@note_on channel=2 note=77 velocity=0 time=0@note_on channel=5 note=60 velocity=0 time=0@note_on channel=6 note=60 velocity=0 time=0@note_on channel=7 note=56 velocity=0 time=0@note_on channel=12 note=56 velocity=0 time=0@note_on channel=13 note=56 velocity=0 time=0@note_on channel=14 note=44 velocity=0 time=0@note_on channel=0 note=56 velocity=0 time=0@note_on channel=9 note=35 velocity=0 time=0@note_on channel=9 note=42 velocity=0 time=0@note_on channel=1 note=72 velocity=0 time=0@note_on channel=4 note=60 velocity=0 time=0@note_on channel=11 note=44 velocity=0 time=0@note_on channel=0 note=77 velocity=96 time=0.00078125@note_on channel=1 note=77 velocity=96 time=0@note_on channel=1 note=53 velocity=96 time=0@note_on channel=2 note=89 velocity=96 time=0@note_on channel=5 note=56 velocity=126 time=0@note_on channel=6 note=56 velocity=126 time=0@note_on channel=7 note=53 velocity=96 time=0@note_on channel=12 note=53 velocity=96 time=0@note_on channel=13 note=53 velocity=96 time=0@note_on channel=14 note=41 velocity=96 time=0@note_on channel=0 note=53 velocity=96 time=0@note_on channel=9 note=42 velocity=16 time=0@note_on channel=1 note=68 velocity=126 time=0@note_on channel=4 note=56 velocity=126 time=0@note_on channel=11 note=41 velocity=96 time=0@note_on channel=0 note=77 velocity=0 time=0.08828125@note_on channel=1 note=77 velocity=0 time=0.004687500000000001@note_on channel=2 note=89 velocity=0 time=0@note_on channel=0 note=72 velocity=96 time=0.00078125@note_on channel=1 note=72 velocity=96 time=0@note_on channel=2 note=84 velocity=96 time=0@note_on channel=0 note=72 velocity=0 time=0.08828125@note_on channel=1 note=72 velocity=0 time=0.004687500000000001@note_on channel=2 note=84 velocity=0 time=0@note_on channel=9 note=42 velocity=0 time=0@note_on channel=0 note=68 velocity=96 time=0.00078125@note_on channel=1 note=68 velocity=96 time=0@note_on channel=2 note=80 velocity=96 time=0@note_on channel=9 note=42 velocity=16 time=0@note_on channel=0 note=68 velocity=0 time=0.08828125@note_on channel=1 note=68 velocity=0 time=0.004687500000000001@note_on channel=2 note=80 velocity=0 time=0@note_on channel=0 note=65 velocity=96 time=0.00078125@note_on channel=1 note=65 velocity=96 time=0@note_on channel=2 note=77 velocity=96 time=0@note_on channel=0 note=65 velocity=0 time=0.08828125@note_on channel=1 note=65 velocity=0 time=0.004687500000000001@note_on channel=2 note=77 velocity=0 time=0@note_on channel=9 note=42 velocity=0 time=0@note_on channel=0 note=77 velocity=96 time=0.00078125@note_on channel=1 note=77 velocity=96 time=0@note_on channel=2 note=89 velocity=96 time=0@note_on channel=9 note=38 velocity=80 time=0@note_on channel=9 note=35 velocity=80 time=0@note_on channel=9 note=42 velocity=16 time=0@note_on channel=0 note=77 velocity=0 time=0.08828125@note_on channel=1 note=77 velocity=0 time=0.004687500000000001@note_on channel=2 note=89 velocity=0 time=0@note_on channel=0 note=72 velocity=96 time=0.00078125@note_on channel=1 note=72 velocity=96 time=0@note_on channel=2 note=84 velocity=96 time=0@note_on channel=0 note=72 velocity=0 time=0.08828125@note_on channel=1 note=72 velocity=0 time=0.004687500000000001@note_on channel=2 note=84 velocity=0 time=0@note_on channel=9 note=42 velocity=0 time=0@note_on channel=0 note=68 velocity=96 time=0.00078125@note_on channel=1 note=68 velocity=96 time=0@note_on channel=2 note=80 velocity=96 time=0@note_on channel=9 note=42 velocity=16 time=0@note_on channel=0 note=68 velocity=0 time=0.08828125@note_on channel=1 note=68 velocity=0 time=0.004687500000000001@note_on channel=2 note=80 velocity=0 time=0@note_on channel=9 note=42 velocity=0 time=0@note_on channel=0 note=65 velocity=96 time=0.00078125@note_on channel=1 note=65 velocity=96 time=0@note_on channel=2 note=77 velocity=96 time=0@note_on channel=9 note=42 velocity=16 time=0@note_on channel=0 note=65 velocity=0 time=0.08828125@note_on channel=1 note=65 velocity=0 time=0.004687500000000001@note_on channel=1 note=53 velocity=0 time=0@note_on channel=2 note=77 velocity=0 time=0@note_on channel=7 note=53 velocity=0 time=0@note_on channel=12 note=53 velocity=0 time=0@note_on channel=13 note=53 velocity=0 time=0@note_on channel=14 note=41 velocity=0 time=0@note_on channel=0 note=53 velocity=0 time=0@note_on channel=9 note=38 velocity=0 time=0@note_on channel=9 note=35 velocity=0 time=0@note_on channel=9 note=42 velocity=0 time=0@note_on channel=11 note=41 velocity=0 time=0@note_on channel=0 note=77 velocity=96 time=0.00078125@note_on channel=1 note=77 velocity=96 time=0@note_on channel=1 note=56 velocity=96 time=0@note_on channel=2 note=89 velocity=96 time=0@note_on channel=7 note=56 velocity=96 time=0@note_on channel=12 note=56 velocity=96 time=0@note_on channel=13 note=56 velocity=96 time=0@note_on channel=14 note=44 velocity=96 time=0@note_on channel=0 note=56 velocity=96 time=0@note_on channel=9 note=42 velocity=16 time=0@note_on channel=11 note=44 velocity=96 time=0@note_on channel=0 note=77 velocity=0 time=0.08828125@note_on channel=1 note=77 velocity=0 time=0.004687500000000001@note_on channel=2 note=89 velocity=0 time=0@note_on channel=0 note=72 velocity=96 time=0.00078125@note_on channel=1 note=72 velocity=96 time=0@note_on channel=2 note=84 velocity=96 time=0@note_on channel=0 note=72 velocity=0 time=0.08828125@note_on channel=1 note=72 velocity=0 time=0.004687500000000001@note_on channel=2 note=84 velocity=0 time=0@note_on channel=9 note=42 velocity=0 time=0@note_on channel=0 note=68 velocity=96 time=0.00078125@note_on channel=1 note=68 velocity=96 time=0@note_on channel=2 note=80 velocity=96 time=0@note_on channel=9 note=42 velocity=16 time=0@note_on channel=0 note=68 velocity=0 time=0.08828125@note_on channel=1 note=68 velocity=0 time=0.004687500000000001@note_on channel=2 note=80 velocity=0 time=0@note_on channel=0 note=65 velocity=96 time=0.00078125@note_on channel=1 note=65 velocity=96 time=0@note_on channel=2 note=77 velocity=96 time=0@note_on channel=0 note=65 velocity=0 time=0.08828125@note_on channel=1 note=65 velocity=0 time=0.004687500000000001@note_on channel=2 note=77 velocity=0 time=0@note_on channel=3 note=60 velocity=0 time=0@note_on channel=4 note=60 velocity=0 time=0@note_on channel=5 note=56 velocity=0 time=0@note_on channel=6 note=56 velocity=0 time=0@note_on channel=9 note=42 velocity=0 time=0@note_on channel=1 note=68 velocity=0 time=0@note_on channel=4 note=56 velocity=0 time=0@note_on channel=7 note=60 velocity=0 time=0@note_on channel=0 note=77 velocity=96 time=0.00078125@note_on channel=1 note=77 velocity=96 time=0@note_on channel=2 note=89 velocity=96 time=0@note_on channel=3 note=58 velocity=126 time=0@note_on channel=4 note=58 velocity=126 time=0@note_on channel=5 note=53 velocity=126 time=0@note_on channel=6 note=53 velocity=126 time=0@note_on channel=9 note=38 velocity=80 time=0@note_on channel=9 note=35 velocity=80 time=0@note_on channel=9 note=42 velocity=16 time=0@note_on channel=1 note=65 velocity=126 time=0@note_on channel=4 note=53 velocity=126 time=0@note_on channel=7 note=58 velocity=126 time=0@note_on channel=0 note=77 velocity=0 time=0.08828125@note_on channel=1 note=77 velocity=0 time=0.004687500000000001@note_on channel=2 note=89 velocity=0 time=0@note_on channel=9 note=38 velocity=0 time=0@note_on channel=9 note=42 velocity=0 time=0@note_on channel=0 note=72 velocity=96 time=0.00078125@note_on channel=1 note=72 velocity=96 time=0@note_on channel=2 note=84 velocity=96 time=0@note_on channel=9 note=38 velocity=80 time=0@note_on channel=9 note=42 velocity=16 time=0@note_on channel=0 note=72 velocity=0 time=0.08828125@note_on channel=1 note=72 velocity=0 time=0.004687500000000001@note_on channel=2 note=84 velocity=0 time=0@note_on channel=3 note=58 velocity=0 time=0@note_on channel=4 note=58 velocity=0 time=0@note_on channel=9 note=38 velocity=0 time=0@note_on channel=7 note=58 velocity=0 time=0@note_on channel=0 note=68 velocity=96 time=0.00078125@note_on channel=1 note=68 velocity=96 time=0@note_on channel=2 note=80 velocity=96 time=0@note_on channel=3 note=56 velocity=126 time=0@note_on channel=4 note=56 velocity=126 time=0@note_on channel=7 note=56 velocity=126 time=0@note_on channel=0 note=68 velocity=0 time=0.08828125@note_on channel=1 note=68 velocity=0 time=0.004687500000000001@note_on channel=2 note=80 velocity=0 time=0@note_on channel=0 note=65 velocity=96 time=0.00078125@note_on channel=1 note=65 velocity=96 time=0@note_on channel=2 note=77 velocity=96 time=0@note_on channel=0 note=65 velocity=0 time=0.08828125@note_on channel=1 note=65 velocity=0 time=0.004687500000000001@note_on channel=1 note=56 velocity=0 time=0@note_on channel=2 note=77 velocity=0 time=0@note_on channel=3 note=56 velocity=0 time=0@note_on channel=4 note=56 velocity=0 time=0@note_on channel=5 note=53 velocity=0 time=0@note_on channel=6 note=53 velocity=0 time=0@note_on channel=7 note=56 velocity=0 time=0@note_on channel=12 note=56 velocity=0 time=0@note_on channel=13 note=56 velocity=0 time=0@note_on channel=14 note=44 velocity=0 time=0@note_on channel=0 note=56 velocity=0 time=0@note_on channel=9 note=35 velocity=0 time=0@note_on channel=9 note=42 velocity=0 time=0@note_on channel=1 note=65 velocity=0 time=0@note_on channel=4 note=53 velocity=0 time=0@note_on channel=7 note=56 velocity=0 time=0@note_on channel=11 note=44 velocity=0 time=0@note_on channel=0 note=79 velocity=96 time=0.00078125@note_on channel=1 note=79 velocity=96 time=0@note_on channel=1 note=55 velocity=96 time=0@note_on channel=2 note=91 velocity=96 time=0@note_on channel=3 note=55 velocity=126 time=0@note_on channel=4 note=55 velocity=126 time=0@note_on channel=5 note=55 velocity=126 time=0@note_on channel=6 note=55 velocity=126 time=0@note_on channel=7 note=55 velocity=96 time=0@note_on channel=12 note=55 velocity=96 time=0@note_on channel=13 note=55 velocity=96 time=0@note_on channel=14 note=43 velocity=96 time=0@note_on channel=0 note=55 velocity=96 time=0@note_on channel=9 note=42 velocity=16 time=0@note_on channel=1 note=67 velocity=126 time=0@note_on channel=4 note=55 velocity=126 time=0@note_on channel=7 note=55 velocity=126 time=0@note_on channel=11 note=43 velocity=96 time=0@note_on channel=0 note=79 velocity=0 time=0.08828125@note_on channel=1 note=79 velocity=0 time=0.004687500000000001@note_on channel=2 note=91 velocity=0 time=0@note_on channel=0 note=73 velocity=96 time=0.00078125@note_on channel=1 note=73 velocity=96 time=0@note_on channel=2 note=85 velocity=96 time=0@note_on channel=0 note=73 velocity=0 time=0.08828125@note_on channel=1 note=73 velocity=0 time=0.004687500000000001@note_on channel=2 note=85 velocity=0 time=0@note_on channel=9 note=42 velocity=0 time=0@note_on channel=0 note=70 velocity=96 time=0.00078125@note_on channel=1 note=70 velocity=96 time=0@note_on channel=2 note=82 velocity=96 time=0@note_on channel=9 note=42 velocity=16 time=0@note_on channel=0 note=70 velocity=0 time=0.08828125@note_on channel=1 note=70 velocity=0 time=0.004687500000000001@note_on channel=2 note=82 velocity=0 time=0@note_on channel=0 note=67 velocity=96 time=0.00078125@note_on channel=1 note=67 velocity=96 time=0@note_on channel=2 note=79 velocity=96 time=0@note_on channel=0 note=67 velocity=0 time=0.08828125@note_on channel=1 note=67 velocity=0 time=0.004687500000000001@note_on channel=2 note=79 velocity=0 time=0@note_on channel=9 note=42 velocity=0 time=0@note_on channel=0 note=79 velocity=96 time=0.00078125@note_on channel=1 note=79 velocity=96 time=0@note_on channel=2 note=91 velocity=96 time=0@note_on channel=9 note=38 velocity=80 time=0@note_on channel=9 note=35 velocity=80 time=0@note_on channel=9 note=42 velocity=16 time=0@note_on channel=0 note=79 velocity=0 time=0.08828125@note_on channel=1 note=79 velocity=0 time=0.004687500000000001@note_on channel=2 note=91 velocity=0 time=0@note_on channel=0 note=73 velocity=96 time=0.00078125@note_on channel=1 note=73 velocity=96 time=0@note_on channel=2 note=85 velocity=96 time=0@note_on channel=0 note=73 velocity=0 time=0.08828125@note_on channel=1 note=73 velocity=0 time=0.004687500000000001@note_on channel=2 note=85 velocity=0 time=0@note_on channel=9 note=42 velocity=0 time=0@note_on channel=0 note=70 velocity=96 time=0.00078125@note_on channel=1 note=70 velocity=96 time=0@note_on channel=2 note=82 velocity=96 time=0@note_on channel=9 note=42 velocity=16 time=0@note_on channel=0 note=70 velocity=0 time=0.08828125@note_on channel=1 note=70 velocity=0 time=0.004687500000000001@note_on channel=2 note=82 velocity=0 time=0@note_on channel=9 note=42 velocity=0 time=0@note_on channel=0 note=67 velocity=96 time=0.00078125@note_on channel=1 note=67 velocity=96 time=0@note_on channel=2 note=79 velocity=96 time=0@note_on channel=9 note=42 velocity=16 time=0@note_on channel=0 note=67 velocity=0 time=0.08828125@note_on channel=1 note=67 velocity=0 time=0.004687500000000001@note_on channel=2 note=79 velocity=0 time=0@note_on channel=9 note=38 velocity=0 time=0@note_on channel=9 note=35 velocity=0 time=0@note_on channel=9 note=42 velocity=0 time=0@note_on channel=0 note=79 velocity=96 time=0.00078125@note_on channel=1 note=79 velocity=96 time=0@note_on channel=2 note=91 velocity=96 time=0@note_on channel=9 note=42 velocity=16 time=0@note_on channel=0 note=79 velocity=0 time=0.08828125@note_on channel=1 note=79 velocity=0 time=0.004687500000000001@note_on channel=2 note=91 velocity=0 time=0@note_on channel=0 note=73 velocity=96 time=0.00078125@note_on channel=1 note=73 velocity=96 time=0@note_on channel=2 note=85 velocity=96 time=0@note_on channel=0 note=73 velocity=0 time=0.08828125@note_on channel=1 note=73 velocity=0 time=0.004687500000000001@note_on channel=2 note=85 velocity=0 time=0@note_on channel=9 note=42 velocity=0 time=0@note_on channel=0 note=70 velocity=96 time=0.00078125@note_on channel=1 note=70 velocity=96 time=0@note_on channel=2 note=82 velocity=96 time=0@note_on channel=9 note=42 velocity=16 time=0@note_on channel=0 note=70 velocity=0 time=0.08828125@note_on channel=1 note=70 velocity=0 time=0.004687500000000001@note_on channel=2 note=82 velocity=0 time=0@note_on channel=0 note=67 velocity=96 time=0.00078125@note_on channel=1 note=67 velocity=96 time=0@note_on channel=2 note=79 velocity=96 time=0@note_on channel=0 note=67 velocity=0 time=0.08828125@note_on channel=1 note=67 velocity=0 time=0.004687500000000001@note_on channel=2 note=79 velocity=0 time=0@note_on channel=3 note=55 velocity=0 time=0@note_on channel=4 note=55 velocity=0 time=0@note_on channel=6 note=55 velocity=0 time=0@note_on channel=9 note=42 velocity=0 time=0@note_on channel=4 note=55 velocity=0 time=0@note_on channel=7 note=55 velocity=0 time=0@note_on channel=0 note=79 velocity=96 time=0.00078125@note_on channel=1 note=79 velocity=96 time=0@note_on channel=2 note=91 velocity=96 time=0@note_on channel=3 note=56 velocity=126 time=0@note_on channel=4 note=56 velocity=126 time=0@note_on channel=6 note=56 velocity=126 time=0@note_on channel=9 note=38 velocity=80 time=0@note_on channel=9 note=35 velocity=80 time=0@note_on channel=9 note=42 velocity=16 time=0@note_on channel=4 note=56 velocity=126 time=0@note_on channel=7 note=56 velocity=126 time=0@note_on channel=0 note=79 velocity=0 time=0.08828125@note_on channel=1 note=79 velocity=0 time=0.004687500000000001@note_on channel=2 note=91 velocity=0 time=0@note_on channel=9 note=38 velocity=0 time=0@note_on channel=9 note=42 velocity=0 time=0@note_on channel=0 note=73 velocity=96 time=0.00078125@note_on channel=1 note=73 velocity=96 time=0@note_on channel=2 note=85 velocity=96 time=0@note_on channel=9 note=38 velocity=80 time=0@note_on channel=9 note=42 velocity=16 time=0@note_on channel=0 note=73 velocity=0 time=0.08828125@note_on channel=1 note=73 velocity=0 time=0.004687500000000001@note_on channel=2 note=85 velocity=0 time=0@note_on channel=9 note=38 velocity=0 time=0@note_on channel=0 note=70 velocity=96 time=0.00078125@note_on channel=1 note=70 velocity=96 time=0@note_on channel=2 note=82 velocity=96 time=0@note_on channel=0 note=70 velocity=0 time=0.08828125@note_on channel=1 note=70 velocity=0 time=0.004687500000000001@note_on channel=2 note=82 velocity=0 time=0@note_on channel=0 note=67 velocity=96 time=0.00078125@note_on channel=1 note=67 velocity=96 time=0@note_on channel=2 note=79 velocity=96 time=0@note_on channel=0 note=67 velocity=0 time=0.08828125@note_on channel=1 note=67 velocity=0 time=0.004687500000000001@note_on channel=1 note=55 velocity=0 time=0@note_on channel=2 note=79 velocity=0 time=0@note_on channel=3 note=56 velocity=0 time=0@note_on channel=4 note=56 velocity=0 time=0@note_on channel=5 note=55 velocity=0 time=0@note_on channel=6 note=56 velocity=0 time=0@note_on channel=7 note=55 velocity=0 time=0@note_on channel=12 note=55 velocity=0 time=0@note_on channel=13 note=55 velocity=0 time=0@note_on channel=14 note=43 velocity=0 time=0@note_on channel=0 note=55 velocity=0 time=0@note_on channel=9 note=35 velocity=0 time=0@note_on channel=9 note=42 velocity=0 time=0@note_on channel=1 note=67 velocity=0 time=0@note_on channel=4 note=56 velocity=0 time=0@note_on channel=7 note=56 velocity=0 time=0@note_on channel=11 note=43 velocity=0 time=0@note_on channel=0 note=79 velocity=96 time=0.00078125@note_on channel=1 note=79 velocity=96 time=0@note_on channel=1 note=48 velocity=96 time=0@note_on channel=2 note=91 velocity=96 time=0@note_on channel=3 note=58 velocity=126 time=0@note_on channel=4 note=58 velocity=126 time=0@note_on channel=5 note=67 velocity=126 time=0@note_on channel=6 note=58 velocity=126 time=0@note_on channel=7 note=48 velocity=96 time=0@note_on channel=12 note=48 velocity=96 time=0@note_on channel=13 note=48 velocity=96 time=0@note_on channel=14 note=36 velocity=96 time=0@note_on channel=0 note=48 velocity=96 time=0@note_on channel=9 note=42 velocity=16 time=0@note_on channel=1 note=79 velocity=126 time=0@note_on channel=4 note=58 velocity=126 time=0@note_on channel=7 note=58 velocity=126 time=0@note_on channel=11 note=36 velocity=96 time=0@note_on channel=0 note=79 velocity=0 time=0.08828125@note_on channel=1 note=79 velocity=0 time=0.004687500000000001@note_on channel=2 note=91 velocity=0 time=0@note_on channel=0 note=73 velocity=96 time=0.00078125@note_on channel=1 note=73 velocity=96 time=0@note_on channel=2 note=85 velocity=96 time=0@note_on channel=0 note=73 velocity=0 time=0.08828125@note_on channel=1 note=73 velocity=0 time=0.004687500000000001@note_on channel=2 note=85 velocity=0 time=0@note_on channel=9 note=42 velocity=0 time=0@note_on channel=0 note=70 velocity=96 time=0.00078125@note_on channel=1 note=70 velocity=96 time=0@note_on channel=2 note=82 velocity=96 time=0@note_on channel=9 note=42 velocity=16 time=0@note_on channel=0 note=70 velocity=0 time=0.08828125@note_on channel=1 note=70 velocity=0 time=0.004687500000000001@note_on channel=2 note=82 velocity=0 time=0@note_on channel=0 note=67 velocity=96 time=0.00078125@note_on channel=1 note=67 velocity=96 time=0@note_on channel=2 note=79 velocity=96 time=0@note_on channel=0 note=67 velocity=0 time=0.08828125@note_on channel=1 note=67 velocity=0 time=0.004687500000000001@note_on channel=2 note=79 velocity=0 time=0@note_on channel=9 note=42 velocity=0 time=0@note_on channel=0 note=79 velocity=96 time=0.00078125@note_on channel=1 note=79 velocity=96 time=0@note_on channel=2 note=91 velocity=96 time=0@note_on channel=9 note=38 velocity=80 time=0@note_on channel=9 note=35 velocity=80 time=0@note_on channel=9 note=42 velocity=16 time=0@note_on channel=0 note=79 velocity=0 time=0.08828125@note_on channel=1 note=79 velocity=0 time=0.004687500000000001@note_on channel=2 note=91 velocity=0 time=0@note_on channel=0 note=73 velocity=96 time=0.00078125@note_on channel=1 note=73 velocity=96 time=0@note_on channel=2 note=85 velocity=96 time=0@note_on channel=0 note=73 velocity=0 time=0.08828125@note_on channel=1 note=73 velocity=0 time=0.004687500000000001@note_on channel=2 note=85 velocity=0 time=0@note_on channel=9 note=42 velocity=0 time=0@note_on channel=0 note=70 velocity=96 time=0.00078125@note_on channel=1 note=70 velocity=96 time=0@note_on channel=2 note=82 velocity=96 time=0@note_on channel=9 note=42 velocity=16 time=0@note_on channel=0 note=70 velocity=0 time=0.08828125@note_on channel=1 note=70 velocity=0 time=0.004687500000000001@note_on channel=2 note=82 velocity=0 time=0@note_on channel=9 note=42 velocity=0 time=0@note_on channel=0 note=67 velocity=96 time=0.00078125@note_on channel=1 note=67 velocity=96 time=0@note_on channel=2 note=79 velocity=96 time=0@note_on channel=9 note=42 velocity=16 time=0@note_on channel=0 note=67 velocity=0 time=0.08828125@note_on channel=1 note=67 velocity=0 time=0.004687500000000001@note_on channel=2 note=79 velocity=0 time=0@note_on channel=9 note=38 velocity=0 time=0@note_on channel=9 note=35 velocity=0 time=0@note_on channel=9 note=42 velocity=0 time=0@note_on channel=0 note=79 velocity=96 time=0.00078125@note_on channel=1 note=79 velocity=96 time=0@note_on channel=2 note=91 velocity=96 time=0@note_on channel=9 note=42 velocity=16 time=0@note_on channel=0 note=79 velocity=0 time=0.08828125@note_on channel=1 note=79 velocity=0 time=0.004687500000000001@note_on channel=2 note=91 velocity=0 time=0@note_on channel=0 note=73 velocity=96 time=0.00078125@note_on channel=1 note=73 velocity=96 time=0@note_on channel=2 note=85 velocity=96 time=0@note_on channel=0 note=73 velocity=0 time=0.08828125@note_on channel=1 note=73 velocity=0 time=0.004687500000000001@note_on channel=2 note=85 velocity=0 time=0@note_on channel=9 note=42 velocity=0 time=0@note_on channel=0 note=70 velocity=96 time=0.00078125@note_on channel=1 note=70 velocity=96 time=0@note_on channel=2 note=82 velocity=96 time=0@note_on channel=9 note=42 velocity=16 time=0@note_on channel=0 note=70 velocity=0 time=0.08828125@note_on channel=1 note=70 velocity=0 time=0.004687500000000001@note_on channel=2 note=82 velocity=0 time=0@note_on channel=0 note=67 velocity=96 time=0.00078125@note_on channel=1 note=67 velocity=96 time=0@note_on channel=2 note=79 velocity=96 time=0@note_on channel=0 note=67 velocity=0 time=0.08828125@note_on channel=1 note=67 velocity=0 time=0.004687500000000001@note_on channel=2 note=79 velocity=0 time=0@note_on channel=9 note=42 velocity=0 time=0@note_on channel=0 note=79 velocity=96 time=0.00078125@note_on channel=1 note=79 velocity=96 time=0@note_on channel=2 note=91 velocity=96 time=0@note_on channel=9 note=38 velocity=80 time=0@note_on channel=9 note=35 velocity=80 time=0@note_on channel=9 note=42 velocity=16 time=0@note_on channel=0 note=79 velocity=0 time=0.08828125@note_on channel=1 note=79 velocity=0 time=0.004687500000000001@note_on channel=2 note=91 velocity=0 time=0@note_on channel=9 note=38 velocity=0 time=0@note_on channel=9 note=42 velocity=0 time=0@note_on channel=0 note=73 velocity=96 time=0.00078125@note_on channel=1 note=73 velocity=96 time=0@note_on channel=2 note=85 velocity=96 time=0@note_on channel=9 note=38 velocity=80 time=0@note_on channel=9 note=42 velocity=16 time=0@note_on channel=0 note=73 velocity=0 time=0.08828125@note_on channel=1 note=73 velocity=0 time=0.004687500000000001@note_on channel=2 note=85 velocity=0 time=0@note_on channel=9 note=38 velocity=0 time=0@note_on channel=0 note=70 velocity=96 time=0.00078125@note_on channel=1 note=70 velocity=96 time=0@note_on channel=2 note=82 velocity=96 time=0@note_on channel=0 note=70 velocity=0 time=0.08828125@note_on channel=1 note=70 velocity=0 time=0.004687500000000001@note_on channel=2 note=82 velocity=0 time=0@note_on channel=0 note=67 velocity=96 time=0.00078125@note_on channel=1 note=67 velocity=96 time=0@note_on channel=2 note=79 velocity=96 time=0@note_on channel=0 note=67 velocity=0 time=0.08828125@note_on channel=1 note=67 velocity=0 time=0.004687500000000001@note_on channel=1 note=48 velocity=0 time=0@note_on channel=2 note=79 velocity=0 time=0@note_on channel=3 note=58 velocity=0 time=0@note_on channel=4 note=58 velocity=0 time=0@note_on channel=5 note=67 velocity=0 time=0@note_on channel=6 note=58 velocity=0 time=0@note_on channel=7 note=48 velocity=0 time=0@note_on channel=12 note=48 velocity=0 time=0@note_on channel=13 note=48 velocity=0 time=0@note_on channel=14 note=36 velocity=0 time=0@note_on channel=0 note=48 velocity=0 time=0@note_on channel=9 note=35 velocity=0 time=0@note_on channel=9 note=42 velocity=0 time=0@note_on channel=1 note=79 velocity=0 time=0@note_on channel=4 note=58 velocity=0 time=0@note_on channel=7 note=58 velocity=0 time=0@note_on channel=11 note=36 velocity=0 time=0@note_on channel=0 note=82 velocity=96 time=0.00078125@note_on channel=1 note=82 velocity=96 time=0@note_on channel=1 note=49 velocity=96 time=0@note_on channel=2 note=94 velocity=96 time=0@note_on channel=3 note=58 velocity=126 time=0@note_on channel=4 note=58 velocity=126 time=0@note_on channel=5 note=70 velocity=126 time=0@note_on channel=6 note=53 velocity=126 time=0@note_on channel=7 note=49 velocity=96 time=0@note_on channel=12 note=49 velocity=96 time=0@note_on channel=13 note=49 velocity=96 time=0@note_on channel=14 note=37 velocity=96 time=0@note_on channel=0 note=49 velocity=96 time=0@note_on channel=9 note=42 velocity=16 time=0@note_on channel=1 note=82 velocity=126 time=0@note_on channel=4 note=53 velocity=126 time=0@note_on channel=7 note=58 velocity=126 time=0@note_on channel=11 note=37 velocity=96 time=0@note_on channel=0 note=82 velocity=0 time=0.08828125@note_on channel=1 note=82 velocity=0 time=0.004687500000000001@note_on channel=2 note=94 velocity=0 time=0@note_on channel=0 note=77 velocity=96 time=0.00078125@note_on channel=1 note=77 velocity=96 time=0@note_on channel=2 note=89 velocity=96 time=0@note_on channel=0 note=77 velocity=0 time=0.08828125@note_on channel=1 note=77 velocity=0 time=0.004687500000000001@note_on channel=2 note=89 velocity=0 time=0@note_on channel=9 note=42 velocity=0 time=0@note_on channel=0 note=73 velocity=96 time=0.00078125@note_on channel=1 note=73 velocity=96 time=0@note_on channel=2 note=85 velocity=96 time=0@note_on channel=9 note=42 velocity=16 time=0@note_on channel=0 note=73 velocity=0 time=0.08828125@note_on channel=1 note=73 velocity=0 time=0.004687500000000001@note_on channel=2 note=85 velocity=0 time=0@note_on channel=0 note=70 velocity=96 time=0.00078125@note_on channel=1 note=70 velocity=96 time=0@note_on channel=2 note=82 velocity=96 time=0@note_on channel=0 note=70 velocity=0 time=0.08828125@note_on channel=1 note=70 velocity=0 time=0.004687500000000001@note_on channel=2 note=82 velocity=0 time=0@note_on channel=9 note=42 velocity=0 time=0@note_on channel=0 note=82 velocity=96 time=0.00078125@note_on channel=1 note=82 velocity=96 time=0@note_on channel=2 note=94 velocity=96 time=0@note_on channel=9 note=38 velocity=80 time=0@note_on channel=9 note=35 velocity=80 time=0@note_on channel=9 note=42 velocity=16 time=0@note_on channel=0 note=82 velocity=0 time=0.08828125@note_on channel=1 note=82 velocity=0 time=0.004687500000000001@note_on channel=2 note=94 velocity=0 time=0@note_on channel=0 note=77 velocity=96 time=0.00078125@note_on channel=1 note=77 velocity=96 time=0@note_on channel=2 note=89 velocity=96 time=0@note_on channel=0 note=77 velocity=0 time=0.08828125@note_on channel=1 note=77 velocity=0 time=0.004687500000000001@note_on channel=2 note=89 velocity=0 time=0@note_on channel=9 note=42 velocity=0 time=0@note_on channel=0 note=73 velocity=96 time=0.00078125@note_on channel=1 note=73 velocity=96 time=0@note_on channel=2 note=85 velocity=96 time=0@note_on channel=9 note=42 velocity=16 time=0@note_on channel=0 note=73 velocity=0 time=0.08828125@note_on channel=1 note=73 velocity=0 time=0.004687500000000001@note_on channel=2 note=85 velocity=0 time=0@note_on channel=9 note=42 velocity=0 time=0@note_on channel=0 note=70 velocity=96 time=0.00078125@note_on channel=1 note=70 velocity=96 time=0@note_on channel=2 note=82 velocity=96 time=0@note_on channel=9 note=42 velocity=16 time=0@note_on channel=0 note=70 velocity=0 time=0.08828125@note_on channel=1 note=70 velocity=0 time=0.004687500000000001@note_on channel=2 note=82 velocity=0 time=0@note_on channel=9 note=38 velocity=0 time=0@note_on channel=9 note=35 velocity=0 time=0@note_on channel=9 note=42 velocity=0 time=0@note_on channel=0 note=82 velocity=96 time=0.00078125@note_on channel=1 note=82 velocity=96 time=0@note_on channel=2 note=94 velocity=96 time=0@note_on channel=9 note=42 velocity=16 time=0@note_on channel=0 note=82 velocity=0 time=0.08828125@note_on channel=1 note=82 velocity=0 time=0.004687500000000001@note_on channel=2 note=94 velocity=0 time=0@note_on channel=0 note=77 velocity=96 time=0.00078125@note_on channel=1 note=77 velocity=96 time=0@note_on channel=2 note=89 velocity=96 time=0@note_on channel=0 note=77 velocity=0 time=0.08828125@note_on channel=1 note=77 velocity=0 time=0.004687500000000001@note_on channel=2 note=89 velocity=0 time=0@note_on channel=9 note=42 velocity=0 time=0@note_on channel=0 note=73 velocity=96 time=0.00078125@note_on channel=1 note=73 velocity=96 time=0@note_on channel=2 note=85 velocity=96 time=0@note_on channel=9 note=42 velocity=16 time=0@note_on channel=0 note=73 velocity=0 time=0.08828125@note_on channel=1 note=73 velocity=0 time=0.004687500000000001@note_on channel=2 note=85 velocity=0 time=0@note_on channel=0 note=70 velocity=96 time=0.00078125@note_on channel=1 note=70 velocity=96 time=0@note_on channel=2 note=82 velocity=96 time=0@note_on channel=0 note=70 velocity=0 time=0.08828125@note_on channel=1 note=70 velocity=0 time=0.004687500000000001@note_on channel=2 note=82 velocity=0 time=0@note_on channel=3 note=58 velocity=0 time=0@note_on channel=4 note=58 velocity=0 time=0@note_on channel=5 note=70 velocity=0 time=0@note_on channel=9 note=42 velocity=0 time=0@note_on channel=1 note=82 velocity=0 time=0@note_on channel=7 note=58 velocity=0 time=0@note_on channel=0 note=82 velocity=96 time=0.00078125@note_on channel=1 note=82 velocity=96 time=0@note_on channel=2 note=94 velocity=96 time=0@note_on channel=3 note=60 velocity=126 time=0@note_on channel=4 note=60 velocity=126 time=0@note_on channel=5 note=68 velocity=126 time=0@note_on channel=9 note=38 velocity=80 time=0@note_on channel=9 note=35 velocity=80 time=0@note_on channel=9 note=42 velocity=16 time=0@note_on channel=1 note=80 velocity=126 time=0@note_on channel=7 note=60 velocity=126 time=0@note_on channel=0 note=82 velocity=0 time=0.08828125@note_on channel=1 note=82 velocity=0 time=0.004687500000000001@note_on channel=2 note=94 velocity=0 time=0@note_on channel=9 note=38 velocity=0 time=0@note_on channel=9 note=42 velocity=0 time=0@note_on channel=0 note=77 velocity=96 time=0.00078125@note_on channel=1 note=77 velocity=96 time=0@note_on channel=2 note=89 velocity=96 time=0@note_on channel=9 note=38 velocity=80 time=0@note_on channel=9 note=42 velocity=16 time=0@note_on channel=0 note=77 velocity=0 time=0.08828125@note_on channel=1 note=77 velocity=0 time=0.004687500000000001@note_on channel=2 note=89 velocity=0 time=0@note_on channel=9 note=38 velocity=0 time=0@note_on channel=0 note=73 velocity=96 time=0.00078125@note_on channel=1 note=73 velocity=96 time=0@note_on channel=2 note=85 velocity=96 time=0@note_on channel=0 note=73 velocity=0 time=0.08828125@note_on channel=1 note=73 velocity=0 time=0.004687500000000001@note_on channel=2 note=85 velocity=0 time=0@note_on channel=0 note=70 velocity=96 time=0.00078125@note_on channel=1 note=70 velocity=96 time=0@note_on channel=2 note=82 velocity=96 time=0@note_on channel=0 note=70 velocity=0 time=0.08828125@note_on channel=1 note=70 velocity=0 time=0.004687500000000001@note_on channel=1 note=49 velocity=0 time=0@note_on channel=2 note=82 velocity=0 time=0@note_on channel=3 note=60 velocity=0 time=0@note_on channel=4 note=60 velocity=0 time=0@note_on channel=5 note=68 velocity=0 time=0@note_on channel=6 note=53 velocity=0 time=0@note_on channel=7 note=49 velocity=0 time=0@note_on channel=12 note=49 velocity=0 time=0@note_on channel=13 note=49 velocity=0 time=0@note_on channel=14 note=37 velocity=0 time=0@note_on channel=0 note=49 velocity=0 time=0@note_on channel=9 note=35 velocity=0 time=0@note_on channel=9 note=42 velocity=0 time=0@note_on channel=1 note=80 velocity=0 time=0@note_on channel=4 note=53 velocity=0 time=0@note_on channel=7 note=60 velocity=0 time=0@note_on channel=11 note=37 velocity=0 time=0@note_on channel=0 note=77 velocity=96 time=0.00078125@note_on channel=1 note=77 velocity=96 time=0@note_on channel=1 note=53 velocity=96 time=0@note_on channel=2 note=89 velocity=96 time=0@note_on channel=3 note=56 velocity=126 time=0@note_on channel=4 note=56 velocity=126 time=0@note_on channel=5 note=65 velocity=126 time=0@note_on channel=6 note=53 velocity=126 time=0@note_on channel=7 note=53 velocity=96 time=0@note_on channel=12 note=53 velocity=96 time=0@note_on channel=13 note=53 velocity=96 time=0@note_on channel=14 note=41 velocity=96 time=0@note_on channel=0 note=53 velocity=96 time=0@note_on channel=9 note=42 velocity=16 time=0@note_on channel=1 note=77 velocity=126 time=0@note_on channel=4 note=53 velocity=126 time=0@note_on channel=7 note=56 velocity=126 time=0@note_on channel=11 note=41 velocity=96 time=0@note_on channel=0 note=77 velocity=0 time=0.08828125@note_on channel=1 note=77 velocity=0 time=0.004687500000000001@note_on channel=2 note=89 velocity=0 time=0@note_on channel=0 note=72 velocity=96 time=0.00078125@note_on channel=1 note=72 velocity=96 time=0@note_on channel=2 note=84 velocity=96 time=0@note_on channel=0 note=72 velocity=0 time=0.08828125@note_on channel=1 note=72 velocity=0 time=0.004687500000000001@note_on channel=2 note=84 velocity=0 time=0@note_on channel=9 note=42 velocity=0 time=0@note_on channel=0 note=68 velocity=96 time=0.00078125@note_on channel=1 note=68 velocity=96 time=0@note_on channel=2 note=80 velocity=96 time=0@note_on channel=9 note=42 velocity=16 time=0@note_on channel=0 note=68 velocity=0 time=0.08828125@note_on channel=1 note=68 velocity=0 time=0.004687500000000001@note_on channel=2 note=80 velocity=0 time=0@note_on channel=0 note=65 velocity=96 time=0.00078125@note_on channel=1 note=65 velocity=96 time=0@note_on channel=2 note=77 velocity=96 time=0@note_on channel=0 note=65 velocity=0 time=0.08828125@note_on channel=1 note=65 velocity=0 time=0.004687500000000001@note_on channel=2 note=77 velocity=0 time=0@note_on channel=9 note=42 velocity=0 time=0@note_on channel=0 note=77 velocity=96 time=0.00078125@note_on channel=1 note=77 velocity=96 time=0@note_on channel=2 note=89 velocity=96 time=0@note_on channel=9 note=38 velocity=80 time=0@note_on channel=9 note=35 velocity=80 time=0@note_on channel=9 note=42 velocity=16 time=0@note_on channel=0 note=77 velocity=0 time=0.08828125@note_on channel=1 note=77 velocity=0 time=0.004687500000000001@note_on channel=2 note=89 velocity=0 time=0@note_on channel=0 note=72 velocity=96 time=0.00078125@note_on channel=1 note=72 velocity=96 time=0@note_on channel=2 note=84 velocity=96 time=0@note_on channel=0 note=72 velocity=0 time=0.08828125@note_on channel=1 note=72 velocity=0 time=0.004687500000000001@note_on channel=2 note=84 velocity=0 time=0@note_on channel=9 note=42 velocity=0 time=0@note_on channel=0 note=68 velocity=96 time=0.00078125@note_on channel=1 note=68 velocity=96 time=0@note_on channel=2 note=80 velocity=96 time=0@note_on channel=9 note=42 velocity=16 time=0@note_on channel=0 note=68 velocity=0 time=0.08828125@note_on channel=1 note=68 velocity=0 time=0.004687500000000001@note_on channel=2 note=80 velocity=0 time=0@note_on channel=9 note=42 velocity=0 time=0@note_on channel=0 note=65 velocity=96 time=0.00078125@note_on channel=1 note=65 velocity=96 time=0@note_on channel=2 note=77 velocity=96 time=0@note_on channel=9 note=42 velocity=16 time=0@note_on channel=0 note=65 velocity=0 time=0.08828125@note_on channel=1 note=65 velocity=0 time=0.004687500000000001@note_on channel=2 note=77 velocity=0 time=0@note_on channel=9 note=38 velocity=0 time=0@note_on channel=9 note=35 velocity=0 time=0@note_on channel=9 note=42 velocity=0 time=0@note_on channel=0 note=77 velocity=96 time=0.00078125@note_on channel=1 note=77 velocity=96 time=0@note_on channel=2 note=89 velocity=96 time=0@note_on channel=9 note=42 velocity=16 time=0@note_on channel=0 note=77 velocity=0 time=0.08828125@note_on channel=1 note=77 velocity=0 time=0.004687500000000001@note_on channel=2 note=89 velocity=0 time=0@note_on channel=0 note=72 velocity=96 time=0.00078125@note_on channel=1 note=72 velocity=96 time=0@note_on channel=2 note=84 velocity=96 time=0@note_on channel=0 note=72 velocity=0 time=0.08828125@note_on channel=1 note=72 velocity=0 time=0.004687500000000001@note_on channel=2 note=84 velocity=0 time=0@note_on channel=9 note=42 velocity=0 time=0@note_on channel=0 note=68 velocity=96 time=0.00078125@note_on channel=1 note=68 velocity=96 time=0@note_on channel=2 note=80 velocity=96 time=0@note_on channel=9 note=42 velocity=16 time=0@note_on channel=0 note=68 velocity=0 time=0.08828125@note_on channel=1 note=68 velocity=0 time=0.004687500000000001@note_on channel=2 note=80 velocity=0 time=0@note_on channel=0 note=65 velocity=96 time=0.00078125@note_on channel=1 note=65 velocity=96 time=0@note_on channel=2 note=77 velocity=96 time=0@note_on channel=0 note=65 velocity=0 time=0.08828125@note_on channel=1 note=65 velocity=0 time=0.004687500000000001@note_on channel=2 note=77 velocity=0 time=0@note_on channel=9 note=42 velocity=0 time=0@note_on channel=0 note=77 velocity=96 time=0.00078125@note_on channel=1 note=77 velocity=96 time=0@note_on channel=2 note=89 velocity=96 time=0@note_on channel=9 note=38 velocity=80 time=0@note_on channel=9 note=35 velocity=80 time=0@note_on channel=9 note=42 velocity=16 time=0@note_on channel=0 note=77 velocity=0 time=0.08828125@note_on channel=1 note=77 velocity=0 time=0.004687500000000001@note_on channel=2 note=89 velocity=0 time=0@note_on channel=9 note=38 velocity=0 time=0@note_on channel=9 note=42 velocity=0 time=0@note_on channel=0 note=72 velocity=96 time=0.00078125@note_on channel=1 note=72 velocity=96 time=0@note_on channel=2 note=84 velocity=96 time=0@note_on channel=9 note=38 velocity=80 time=0@note_on channel=9 note=42 velocity=16 time=0@note_on channel=0 note=72 velocity=0 time=0.08828125@note_on channel=1 note=72 velocity=0 time=0.004687500000000001@note_on channel=2 note=84 velocity=0 time=0@note_on channel=9 note=38 velocity=0 time=0@note_on channel=0 note=68 velocity=96 time=0.00078125@note_on channel=1 note=68 velocity=96 time=0@note_on channel=2 note=80 velocity=96 time=0@note_on channel=0 note=68 velocity=0 time=0.08828125@note_on channel=1 note=68 velocity=0 time=0.004687500000000001@note_on channel=2 note=80 velocity=0 time=0@note_on channel=0 note=65 velocity=96 time=0.00078125@note_on channel=1 note=65 velocity=96 time=0@note_on channel=2 note=77 velocity=96 time=0@note_on channel=0 note=65 velocity=0 time=0.08828125@note_on channel=1 note=65 velocity=0 time=0.004687500000000001@note_on channel=1 note=53 velocity=0 time=0@note_on channel=2 note=77 velocity=0 time=0@note_on channel=3 note=56 velocity=0 time=0@note_on channel=4 note=56 velocity=0 time=0@note_on channel=5 note=65 velocity=0 time=0@note_on channel=6 note=53 velocity=0 time=0@note_on channel=7 note=53 velocity=0 time=0@note_on channel=12 note=53 velocity=0 time=0@note_on channel=13 note=53 velocity=0 time=0@note_on channel=14 note=41 velocity=0 time=0@note_on channel=0 note=53 velocity=0 time=0@note_on channel=9 note=35 velocity=0 time=0@note_on channel=9 note=42 velocity=0 time=0@note_on channel=1 note=77 velocity=0 time=0@note_on channel=4 note=53 velocity=0 time=0@note_on channel=7 note=56 velocity=0 time=0@note_on channel=11 note=41 velocity=0 time=0@note_on channel=0 note=79 velocity=96 time=0.00078125@note_on channel=1 note=79 velocity=96 time=0@note_on channel=1 note=46 velocity=96 time=0@note_on channel=2 note=91 velocity=96 time=0@note_on channel=3 note=58 velocity=126 time=0@note_on channel=4 note=58 velocity=126 time=0@note_on channel=5 note=67 velocity=126 time=0@note_on channel=6 note=58 velocity=126 time=0@note_on channel=7 note=46 velocity=96 time=0@note_on channel=12 note=46 velocity=96 time=0@note_on channel=13 note=46 velocity=96 time=0@note_on channel=14 note=34 velocity=96 time=0@note_on channel=0 note=46 velocity=96 time=0@note_on channel=9 note=42 velocity=16 time=0@note_on channel=1 note=79 velocity=126 time=0@note_on channel=4 note=58 velocity=126 time=0@note_on channel=7 note=58 velocity=126 time=0@note_on channel=11 note=34 velocity=96 time=0@note_on channel=0 note=79 velocity=0 time=0.08828125@note_on channel=1 note=79 velocity=0 time=0.004687500000000001@note_on channel=2 note=91 velocity=0 time=0@note_on channel=0 note=73 velocity=96 time=0.00078125@note_on channel=1 note=73 velocity=96 time=0@note_on channel=2 note=85 velocity=96 time=0@note_on channel=0 note=73 velocity=0 time=0.08828125@note_on channel=1 note=73 velocity=0 time=0.004687500000000001@note_on channel=2 note=85 velocity=0 time=0@note_on channel=9 note=42 velocity=0 time=0@note_on channel=0 note=70 velocity=96 time=0.00078125@note_on channel=1 note=70 velocity=96 time=0@note_on channel=2 note=82 velocity=96 time=0@note_on channel=9 note=42 velocity=16 time=0@note_on channel=0 note=70 velocity=0 time=0.08828125@note_on channel=1 note=70 velocity=0 time=0.004687500000000001@note_on channel=2 note=82 velocity=0 time=0@note_on channel=0 note=67 velocity=96 time=0.00078125@note_on channel=1 note=67 velocity=96 time=0@note_on channel=2 note=79 velocity=96 time=0@note_on channel=0 note=67 velocity=0 time=0.08828125@note_on channel=1 note=67 velocity=0 time=0.004687500000000001@note_on channel=2 note=79 velocity=0 time=0@note_on channel=9 note=42 velocity=0 time=0@note_on channel=0 note=79 velocity=96 time=0.00078125@note_on channel=1 note=79 velocity=96 time=0@note_on channel=2 note=91 velocity=96 time=0@note_on channel=9 note=38 velocity=80 time=0@note_on channel=9 note=35 velocity=80 time=0@note_on channel=9 note=42 velocity=16 time=0@note_on channel=0 note=79 velocity=0 time=0.08828125@note_on channel=1 note=79 velocity=0 time=0.004687500000000001@note_on channel=2 note=91 velocity=0 time=0@note_on channel=0 note=73 velocity=96 time=0.00078125@note_on channel=1 note=73 velocity=96 time=0@note_on channel=2 note=85 velocity=96 time=0@note_on channel=0 note=73 velocity=0 time=0.08828125@note_on channel=1 note=73 velocity=0 time=0.004687500000000001@note_on channel=2 note=85 velocity=0 time=0@note_on channel=9 note=42 velocity=0 time=0@note_on channel=0 note=70 velocity=96 time=0.00078125@note_on channel=1 note=70 velocity=96 time=0@note_on channel=2 note=82 velocity=96 time=0@note_on channel=9 note=42 velocity=16 time=0@note_on channel=0 note=70 velocity=0 time=0.08828125@note_on channel=1 note=70 velocity=0 time=0.004687500000000001@note_on channel=2 note=82 velocity=0 time=0@note_on channel=9 note=42 velocity=0 time=0@note_on channel=0 note=67 velocity=96 time=0.00078125@note_on channel=1 note=67 velocity=96 time=0@note_on channel=2 note=79 velocity=96 time=0@note_on channel=9 note=42 velocity=16 time=0@note_on channel=0 note=67 velocity=0 time=0.08828125@note_on channel=1 note=67 velocity=0 time=0.004687500000000001@note_on channel=2 note=79 velocity=0 time=0@note_on channel=9 note=38 velocity=0 time=0@note_on channel=9 note=35 velocity=0 time=0@note_on channel=9 note=42 velocity=0 time=0@note_on channel=0 note=79 velocity=96 time=0.00078125@note_on channel=1 note=79 velocity=96 time=0@note_on channel=2 note=91 velocity=96 time=0@note_on channel=9 note=42 velocity=16 time=0@note_on channel=0 note=79 velocity=0 time=0.08828125@note_on channel=1 note=79 velocity=0 time=0.004687500000000001@note_on channel=2 note=91 velocity=0 time=0@note_on channel=0 note=73 velocity=96 time=0.00078125@note_on channel=1 note=73 velocity=96 time=0@note_on channel=2 note=85 velocity=96 time=0@note_on channel=0 note=73 velocity=0 time=0.08828125@note_on channel=1 note=73 velocity=0 time=0.004687500000000001@note_on channel=2 note=85 velocity=0 time=0@note_on channel=9 note=42 velocity=0 time=0@note_on channel=0 note=70 velocity=96 time=0.00078125@note_on channel=1 note=70 velocity=96 time=0@note_on channel=2 note=82 velocity=96 time=0@note_on channel=9 note=42 velocity=16 time=0@note_on channel=0 note=70 velocity=0 time=0.08828125@note_on channel=1 note=70 velocity=0 time=0.004687500000000001@note_on channel=2 note=82 velocity=0 time=0@note_on channel=0 note=67 velocity=96 time=0.00078125@note_on channel=1 note=67 velocity=96 time=0@note_on channel=2 note=79 velocity=96 time=0@note_on channel=0 note=67 velocity=0 time=0.08828125@note_on channel=1 note=67 velocity=0 time=0.004687500000000001@note_on channel=2 note=79 velocity=0 time=0@note_on channel=9 note=42 velocity=0 time=0@note_on channel=0 note=79 velocity=96 time=0.00078125@note_on channel=1 note=79 velocity=96 time=0@note_on channel=2 note=91 velocity=96 time=0@note_on channel=9 note=38 velocity=80 time=0@note_on channel=9 note=35 velocity=80 time=0@note_on channel=9 note=42 velocity=16 time=0@note_on channel=0 note=79 velocity=0 time=0.08828125@note_on channel=1 note=79 velocity=0 time=0.004687500000000001@note_on channel=2 note=91 velocity=0 time=0@note_on channel=9 note=38 velocity=0 time=0@note_on channel=9 note=42 velocity=0 time=0@note_on channel=0 note=73 velocity=96 time=0.00078125@note_on channel=1 note=73 velocity=96 time=0@note_on channel=2 note=85 velocity=96 time=0@note_on channel=9 note=38 velocity=80 time=0@note_on channel=9 note=42 velocity=16 time=0@note_on channel=0 note=73 velocity=0 time=0.08828125@note_on channel=1 note=73 velocity=0 time=0.004687500000000001@note_on channel=2 note=85 velocity=0 time=0@note_on channel=9 note=38 velocity=0 time=0@note_on channel=0 note=70 velocity=96 time=0.00078125@note_on channel=1 note=70 velocity=96 time=0@note_on channel=2 note=82 velocity=96 time=0@note_on channel=0 note=70 velocity=0 time=0.08828125@note_on channel=1 note=70 velocity=0 time=0.004687500000000001@note_on channel=2 note=82 velocity=0 time=0@note_on channel=0 note=67 velocity=96 time=0.00078125@note_on channel=1 note=67 velocity=96 time=0@note_on channel=2 note=79 velocity=96 time=0@note_on channel=0 note=67 velocity=0 time=0.08828125@note_on channel=1 note=67 velocity=0 time=0.004687500000000001@note_on channel=1 note=46 velocity=0 time=0@note_on channel=2 note=79 velocity=0 time=0@note_on channel=3 note=58 velocity=0 time=0@note_on channel=4 note=58 velocity=0 time=0@note_on channel=5 note=67 velocity=0 time=0@note_on channel=6 note=58 velocity=0 time=0@note_on channel=7 note=46 velocity=0 time=0@note_on channel=12 note=46 velocity=0 time=0@note_on channel=13 note=46 velocity=0 time=0@note_on channel=14 note=34 velocity=0 time=0@note_on channel=0 note=46 velocity=0 time=0@note_on channel=9 note=35 velocity=0 time=0@note_on channel=9 note=42 velocity=0 time=0@note_on channel=1 note=79 velocity=0 time=0@note_on channel=4 note=58 velocity=0 time=0@note_on channel=7 note=58 velocity=0 time=0@note_on channel=11 note=34 velocity=0 time=0@note_on channel=0 note=77 velocity=96 time=0.00078125@note_on channel=1 note=77 velocity=96 time=0@note_on channel=1 note=53 velocity=96 time=0@note_on channel=2 note=89 velocity=96 time=0@note_on channel=3 note=60 velocity=126 time=0@note_on channel=4 note=60 velocity=126 time=0@note_on channel=5 note=65 velocity=126 time=0@note_on channel=6 note=56 velocity=126 time=0@note_on channel=7 note=53 velocity=96 time=0@note_on channel=12 note=53 velocity=96 time=0@note_on channel=13 note=53 velocity=96 time=0@note_on channel=14 note=41 velocity=96 time=0@note_on channel=0 note=53 velocity=96 time=0@note_on channel=9 note=42 velocity=16 time=0@note_on channel=1 note=77 velocity=126 time=0@note_on channel=4 note=56 velocity=126 time=0@note_on channel=7 note=60 velocity=126 time=0@note_on channel=11 note=41 velocity=96 time=0@note_on channel=0 note=77 velocity=0 time=0.08828125@note_on channel=1 note=77 velocity=0 time=0.004687500000000001@note_on channel=2 note=89 velocity=0 time=0@note_on channel=0 note=72 velocity=96 time=0.00078125@note_on channel=1 note=72 velocity=96 time=0@note_on channel=2 note=84 velocity=96 time=0@note_on channel=0 note=72 velocity=0 time=0.08828125@note_on channel=1 note=72 velocity=0 time=0.004687500000000001@note_on channel=2 note=84 velocity=0 time=0@note_on channel=9 note=42 velocity=0 time=0@note_on channel=0 note=68 velocity=96 time=0.00078125@note_on channel=1 note=68 velocity=96 time=0@note_on channel=2 note=80 velocity=96 time=0@note_on channel=9 note=42 velocity=16 time=0@note_on channel=0 note=68 velocity=0 time=0.08828125@note_on channel=1 note=68 velocity=0 time=0.004687500000000001@note_on channel=2 note=80 velocity=0 time=0@note_on channel=0 note=65 velocity=96 time=0.00078125@note_on channel=1 note=65 velocity=96 time=0@note_on channel=2 note=77 velocity=96 time=0@note_on channel=0 note=65 velocity=0 time=0.08828125@note_on channel=1 note=65 velocity=0 time=0.004687500000000001@note_on channel=2 note=77 velocity=0 time=0@note_on channel=9 note=42 velocity=0 time=0@note_on channel=0 note=77 velocity=96 time=0.00078125@note_on channel=1 note=77 velocity=96 time=0@note_on channel=2 note=89 velocity=96 time=0@note_on channel=9 note=38 velocity=80 time=0@note_on channel=9 note=35 velocity=80 time=0@note_on channel=9 note=42 velocity=16 time=0@note_on channel=0 note=77 velocity=0 time=0.08828125@note_on channel=1 note=77 velocity=0 time=0.004687500000000001@note_on channel=2 note=89 velocity=0 time=0@note_on channel=0 note=72 velocity=96 time=0.00078125@note_on channel=1 note=72 velocity=96 time=0@note_on channel=2 note=84 velocity=96 time=0@note_on channel=0 note=72 velocity=0 time=0.08828125@note_on channel=1 note=72 velocity=0 time=0.004687500000000001@note_on channel=2 note=84 velocity=0 time=0@note_on channel=9 note=42 velocity=0 time=0@note_on channel=0 note=68 velocity=96 time=0.00078125@note_on channel=1 note=68 velocity=96 time=0@note_on channel=2 note=80 velocity=96 time=0@note_on channel=9 note=42 velocity=16 time=0@note_on channel=0 note=68 velocity=0 time=0.08828125@note_on channel=1 note=68 velocity=0 time=0.004687500000000001@note_on channel=2 note=80 velocity=0 time=0@note_on channel=9 note=42 velocity=0 time=0@note_on channel=0 note=65 velocity=96 time=0.00078125@note_on channel=1 note=65 velocity=96 time=0@note_on channel=2 note=77 velocity=96 time=0@note_on channel=9 note=42 velocity=16 time=0@note_on channel=0 note=65 velocity=0 time=0.08828125@note_on channel=1 note=65 velocity=0 time=0.004687500000000001@note_on channel=2 note=77 velocity=0 time=0@note_on channel=9 note=38 velocity=0 time=0@note_on channel=9 note=35 velocity=0 time=0@note_on channel=9 note=42 velocity=0 time=0@note_on channel=0 note=77 velocity=96 time=0.00078125@note_on channel=1 note=77 velocity=96 time=0@note_on channel=2 note=89 velocity=96 time=0@note_on channel=9 note=42 velocity=16 time=0@note_on channel=0 note=77 velocity=0 time=0.08828125@note_on channel=1 note=77 velocity=0 time=0.004687500000000001@note_on channel=2 note=89 velocity=0 time=0@note_on channel=0 note=72 velocity=96 time=0.00078125@note_on channel=1 note=72 velocity=96 time=0@note_on channel=2 note=84 velocity=96 time=0@note_on channel=0 note=72 velocity=0 time=0.08828125@note_on channel=1 note=72 velocity=0 time=0.004687500000000001@note_on channel=2 note=84 velocity=0 time=0@note_on channel=9 note=42 velocity=0 time=0@note_on channel=0 note=68 velocity=96 time=0.00078125@note_on channel=1 note=68 velocity=96 time=0@note_on channel=2 note=80 velocity=96 time=0@note_on channel=9 note=38 velocity=80 time=0@note_on channel=9 note=42 velocity=16 time=0@note_on channel=0 note=68 velocity=0 time=0.08828125@note_on channel=1 note=68 velocity=0 time=0.004687500000000001@note_on channel=2 note=80 velocity=0 time=0@note_on channel=9 note=38 velocity=0 time=0@note_on channel=0 note=65 velocity=96 time=0.00078125@note_on channel=1 note=65 velocity=96 time=0@note_on channel=2 note=77 velocity=96 time=0@note_on channel=9 note=38 velocity=80 time=0@note_on channel=0 note=65 velocity=0 time=0.08828125@note_on channel=1 note=65 velocity=0 time=0.004687500000000001@note_on channel=2 note=77 velocity=0 time=0@note_on channel=9 note=38 velocity=0 time=0@note_on channel=9 note=42 velocity=0 time=0@note_on channel=0 note=77 velocity=96 time=0.00078125@note_on channel=1 note=77 velocity=96 time=0@note_on channel=2 note=89 velocity=96 time=0@note_on channel=9 note=38 velocity=80 time=0@note_on channel=9 note=35 velocity=80 time=0@note_on channel=9 note=42 velocity=16 time=0@note_on channel=0 note=77 velocity=0 time=0.08828125@note_on channel=1 note=77 velocity=0 time=0.004687500000000001@note_on channel=2 note=89 velocity=0 time=0@note_on channel=9 note=38 velocity=0 time=0@note_on channel=9 note=42 velocity=0 time=0@note_on channel=0 note=72 velocity=96 time=0.00078125@note_on channel=1 note=72 velocity=96 time=0@note_on channel=2 note=84 velocity=96 time=0@note_on channel=9 note=38 velocity=80 time=0@note_on channel=9 note=42 velocity=16 time=0@note_on channel=0 note=72 velocity=0 time=0.08828125@note_on channel=1 note=72 velocity=0 time=0.004687500000000001@note_on channel=2 note=84 velocity=0 time=0@note_on channel=9 note=38 velocity=0 time=0@note_on channel=0 note=68 velocity=96 time=0.00078125@note_on channel=1 note=68 velocity=96 time=0@note_on channel=2 note=80 velocity=96 time=0@note_on channel=9 note=38 velocity=80 time=0@note_on channel=0 note=68 velocity=0 time=0.08828125@note_on channel=1 note=68 velocity=0 time=0.004687500000000001@note_on channel=2 note=80 velocity=0 time=0@note_on channel=9 note=38 velocity=0 time=0@note_on channel=0 note=65 velocity=96 time=0.00078125@note_on channel=1 note=65 velocity=96 time=0@note_on channel=2 note=77 velocity=96 time=0@note_on channel=9 note=38 velocity=80 time=0@note_on channel=0 note=65 velocity=0 time=0.08828125@note_on channel=1 note=65 velocity=0 time=0.004687500000000001@note_on channel=1 note=53 velocity=0 time=0@note_on channel=2 note=77 velocity=0 time=0@note_on channel=3 note=60 velocity=0 time=0@note_on channel=4 note=60 velocity=0 time=0@note_on channel=5 note=65 velocity=0 time=0@note_on channel=6 note=56 velocity=0 time=0@note_on channel=7 note=53 velocity=0 time=0@note_on channel=12 note=53 velocity=0 time=0@note_on channel=13 note=53 velocity=0 time=0@note_on channel=14 note=41 velocity=0 time=0@note_on channel=0 note=53 velocity=0 time=0@note_on channel=9 note=38 velocity=0 time=0@note_on channel=9 note=35 velocity=0 time=0@note_on channel=9 note=42 velocity=0 time=0@note_on channel=1 note=77 velocity=0 time=0@note_on channel=4 note=56 velocity=0 time=0@note_on channel=7 note=60 velocity=0 time=0@note_on channel=11 note=41 velocity=0 time=0@note_on channel=0 note=77 velocity=96 time=0.00078125@note_on channel=1 note=77 velocity=96 time=0@note_on channel=1 note=53 velocity=96 time=0@note_on channel=2 note=89 velocity=96 time=0@note_on channel=3 note=60 velocity=126 time=0@note_on channel=4 note=60 velocity=126 time=0@note_on channel=5 note=65 velocity=126 time=0@note_on channel=6 note=65 velocity=126 time=0@note_on channel=7 note=53 velocity=96 time=0@note_on channel=8 note=72 velocity=126 time=0@note_on channel=10 note=72 velocity=126 time=0@note_on channel=14 note=41 velocity=96 time=0@note_on channel=0 note=53 velocity=96 time=0@note_on channel=9 note=42 velocity=16 time=0@note_on channel=9 note=57 velocity=112 time=0@note_on channel=1 note=77 velocity=126 time=0@note_on channel=4 note=65 velocity=126 time=0@note_on channel=7 note=60 velocity=126 time=0@note_on channel=0 note=77 velocity=0 time=0.08828125@note_on channel=1 note=77 velocity=0 time=0.004687500000000001@note_on channel=2 note=89 velocity=0 time=0@note_on channel=0 note=72 velocity=96 time=0.00078125@note_on channel=1 note=72 velocity=96 time=0@note_on channel=2 note=84 velocity=96 time=0@note_on channel=0 note=72 velocity=0 time=0.08828125@note_on channel=1 note=72 velocity=0 time=0.004687500000000001@note_on channel=2 note=84 velocity=0 time=0@note_on channel=9 note=42 velocity=0 time=0@note_on channel=0 note=68 velocity=96 time=0.00078125@note_on channel=1 note=68 velocity=96 time=0@note_on channel=2 note=80 velocity=96 time=0@note_on channel=9 note=42 velocity=16 time=0@note_on channel=0 note=68 velocity=0 time=0.08828125@note_on channel=1 note=68 velocity=0 time=0.004687500000000001@note_on channel=2 note=80 velocity=0 time=0@note_on channel=0 note=65 velocity=96 time=0.00078125@note_on channel=1 note=65 velocity=96 time=0@note_on channel=2 note=77 velocity=96 time=0@note_on channel=0 note=65 velocity=0 time=0.08828125@note_on channel=1 note=65 velocity=0 time=0.004687500000000001@note_on channel=2 note=77 velocity=0 time=0@note_on channel=9 note=42 velocity=0 time=0@note_on channel=9 note=57 velocity=0 time=0@note_on channel=0 note=77 velocity=96 time=0.00078125@note_on channel=1 note=77 velocity=96 time=0@note_on channel=2 note=89 velocity=96 time=0@note_on channel=9 note=38 velocity=80 time=0@note_on channel=9 note=35 velocity=80 time=0@note_on channel=9 note=42 velocity=16 time=0@note_on channel=0 note=77 velocity=0 time=0.08828125@note_on channel=1 note=77 velocity=0 time=0.004687500000000001@note_on channel=2 note=89 velocity=0 time=0@note_on channel=0 note=72 velocity=96 time=0.00078125@note_on channel=1 note=72 velocity=96 time=0@note_on channel=2 note=84 velocity=96 time=0@note_on channel=0 note=72 velocity=0 time=0.08828125@note_on channel=1 note=72 velocity=0 time=0.004687500000000001@note_on channel=2 note=84 velocity=0 time=0@note_on channel=9 note=42 velocity=0 time=0@note_on channel=0 note=68 velocity=96 time=0.00078125@note_on channel=1 note=68 velocity=96 time=0@note_on channel=2 note=80 velocity=96 time=0@note_on channel=9 note=42 velocity=16 time=0@note_on channel=0 note=68 velocity=0 time=0.08828125@note_on channel=1 note=68 velocity=0 time=0.004687500000000001@note_on channel=2 note=80 velocity=0 time=0@note_on channel=9 note=42 velocity=0 time=0@note_on channel=0 note=65 velocity=96 time=0.00078125@note_on channel=1 note=65 velocity=96 time=0@note_on channel=2 note=77 velocity=96 time=0@note_on channel=9 note=42 velocity=16 time=0@note_on channel=0 note=65 velocity=0 time=0.08828125@note_on channel=1 note=65 velocity=0 time=0.004687500000000001@note_on channel=2 note=77 velocity=0 time=0@note_on channel=9 note=38 velocity=0 time=0@note_on channel=9 note=35 velocity=0 time=0@note_on channel=9 note=42 velocity=0 time=0@note_on channel=0 note=77 velocity=96 time=0.00078125@note_on channel=1 note=77 velocity=96 time=0@note_on channel=2 note=89 velocity=96 time=0@note_on channel=9 note=42 velocity=16 time=0@note_on channel=0 note=77 velocity=0 time=0.08828125@note_on channel=1 note=77 velocity=0 time=0.004687500000000001@note_on channel=2 note=89 velocity=0 time=0@note_on channel=0 note=72 velocity=96 time=0.00078125@note_on channel=1 note=72 velocity=96 time=0@note_on channel=2 note=84 velocity=96 time=0@note_on channel=0 note=72 velocity=0 time=0.08828125@note_on channel=1 note=72 velocity=0 time=0.004687500000000001@note_on channel=2 note=84 velocity=0 time=0@note_on channel=9 note=42 velocity=0 time=0@note_on channel=0 note=68 velocity=96 time=0.00078125@note_on channel=1 note=68 velocity=96 time=0@note_on channel=2 note=80 velocity=96 time=0@note_on channel=9 note=42 velocity=16 time=0@note_on channel=0 note=68 velocity=0 time=0.08828125@note_on channel=1 note=68 velocity=0 time=0.004687500000000001@note_on channel=2 note=80 velocity=0 time=0@note_on channel=0 note=65 velocity=96 time=0.00078125@note_on channel=1 note=65 velocity=96 time=0@note_on channel=2 note=77 velocity=96 time=0@note_on channel=0 note=65 velocity=0 time=0.08828125@note_on channel=1 note=65 velocity=0 time=0.004687500000000001@note_on channel=1 note=53 velocity=0 time=0@note_on channel=2 note=77 velocity=0 time=0@note_on channel=5 note=65 velocity=0 time=0@note_on channel=6 note=65 velocity=0 time=0@note_on channel=7 note=53 velocity=0 time=0@note_on channel=14 note=41 velocity=0 time=0@note_on channel=0 note=53 velocity=0 time=0@note_on channel=9 note=42 velocity=0 time=0@note_on channel=1 note=77 velocity=0 time=0@note_on channel=4 note=65 velocity=0 time=0@note_on channel=0 note=77 velocity=96 time=0.00078125@note_on channel=1 note=77 velocity=96 time=0@note_on channel=1 note=56 velocity=96 time=0@note_on channel=2 note=89 velocity=96 time=0@note_on channel=5 note=60 velocity=126 time=0@note_on channel=6 note=60 velocity=126 time=0@note_on channel=7 note=56 velocity=96 time=0@note_on channel=14 note=44 velocity=96 time=0@note_on channel=0 note=56 velocity=96 time=0@note_on channel=9 note=38 velocity=80 time=0@note_on channel=9 note=35 velocity=80 time=0@note_on channel=9 note=42 velocity=16 time=0@note_on channel=1 note=72 velocity=126 time=0@note_on channel=4 note=60 velocity=126 time=0@note_on channel=0 note=77 velocity=0 time=0.08828125@note_on channel=1 note=77 velocity=0 time=0.004687500000000001@note_on channel=2 note=89 velocity=0 time=0@note_on channel=9 note=38 velocity=0 time=0@note_on channel=9 note=42 velocity=0 time=0@note_on channel=0 note=72 velocity=96 time=0.00078125@note_on channel=1 note=72 velocity=96 time=0@note_on channel=2 note=84 velocity=96 time=0@note_on channel=9 note=38 velocity=80 time=0@note_on channel=9 note=42 velocity=16 time=0@note_on channel=0 note=72 velocity=0 time=0.08828125@note_on channel=1 note=72 velocity=0 time=0.004687500000000001@note_on channel=2 note=84 velocity=0 time=0@note_on channel=9 note=38 velocity=0 time=0@note_on channel=0 note=68 velocity=96 time=0.00078125@note_on channel=1 note=68 velocity=96 time=0@note_on channel=2 note=80 velocity=96 time=0@note_on channel=0 note=68 velocity=0 time=0.08828125@note_on channel=1 note=68 velocity=0 time=0.004687500000000001@note_on channel=2 note=80 velocity=0 time=0@note_on channel=0 note=65 velocity=96 time=0.00078125@note_on channel=1 note=65 velocity=96 time=0@note_on channel=2 note=77 velocity=96 time=0@note_on channel=0 note=65 velocity=0 time=0.08828125@note_on channel=1 note=65 velocity=0 time=0.004687500000000001@note_on channel=1 note=56 velocity=0 time=0@note_on channel=2 note=77 velocity=0 time=0@note_on channel=5 note=60 velocity=0 time=0@note_on channel=6 note=60 velocity=0 time=0@note_on channel=7 note=56 velocity=0 time=0@note_on channel=8 note=72 velocity=0 time=0@note_on channel=10 note=72 velocity=0 time=0@note_on channel=14 note=44 velocity=0 time=0@note_on channel=0 note=56 velocity=0 time=0@note_on channel=9 note=35 velocity=0 time=0@note_on channel=9 note=42 velocity=0 time=0@note_on channel=1 note=72 velocity=0 time=0@note_on channel=4 note=60 velocity=0 time=0@note_on channel=0 note=77 velocity=96 time=0.00078125@note_on channel=1 note=77 velocity=96 time=0@note_on channel=1 note=53 velocity=96 time=0@note_on channel=2 note=89 velocity=96 time=0@note_on channel=5 note=56 velocity=126 time=0@note_on channel=6 note=56 velocity=126 time=0@note_on channel=7 note=53 velocity=96 time=0@note_on channel=8 note=72 velocity=126 time=0@note_on channel=10 note=72 velocity=126 time=0@note_on channel=14 note=41 velocity=96 time=0@note_on channel=0 note=53 velocity=96 time=0@note_on channel=9 note=42 velocity=16 time=0@note_on channel=1 note=68 velocity=126 time=0@note_on channel=4 note=56 velocity=126 time=0@note_on channel=0 note=77 velocity=0 time=0.08828125@note_on channel=1 note=77 velocity=0 time=0.004687500000000001@note_on channel=2 note=89 velocity=0 time=0@note_on channel=0 note=72 velocity=96 time=0.00078125@note_on channel=1 note=72 velocity=96 time=0@note_on channel=2 note=84 velocity=96 time=0@note_on channel=0 note=72 velocity=0 time=0.08828125@note_on channel=1 note=72 velocity=0 time=0.004687500000000001@note_on channel=2 note=84 velocity=0 time=0@note_on channel=9 note=42 velocity=0 time=0@note_on channel=0 note=68 velocity=96 time=0.00078125@note_on channel=1 note=68 velocity=96 time=0@note_on channel=2 note=80 velocity=96 time=0@note_on channel=9 note=42 velocity=16 time=0@note_on channel=0 note=68 velocity=0 time=0.08828125@note_on channel=1 note=68 velocity=0 time=0.004687500000000001@note_on channel=2 note=80 velocity=0 time=0@note_on channel=0 note=65 velocity=96 time=0.00078125@note_on channel=1 note=65 velocity=96 time=0@note_on channel=2 note=77 velocity=96 time=0@note_on channel=0 note=65 velocity=0 time=0.08828125@note_on channel=1 note=65 velocity=0 time=0.004687500000000001@note_on channel=2 note=77 velocity=0 time=0@note_on channel=9 note=42 velocity=0 time=0@note_on channel=0 note=77 velocity=96 time=0.00078125@note_on channel=1 note=77 velocity=96 time=0@note_on channel=2 note=89 velocity=96 time=0@note_on channel=9 note=38 velocity=80 time=0@note_on channel=9 note=35 velocity=80 time=0@note_on channel=9 note=42 velocity=16 time=0@note_on channel=0 note=77 velocity=0 time=0.08828125@note_on channel=1 note=77 velocity=0 time=0.004687500000000001@note_on channel=2 note=89 velocity=0 time=0@note_on channel=0 note=72 velocity=96 time=0.00078125@note_on channel=1 note=72 velocity=96 time=0@note_on channel=2 note=84 velocity=96 time=0@note_on channel=0 note=72 velocity=0 time=0.08828125@note_on channel=1 note=72 velocity=0 time=0.004687500000000001@note_on channel=2 note=84 velocity=0 time=0@note_on channel=9 note=42 velocity=0 time=0@note_on channel=0 note=68 velocity=96 time=0.00078125@note_on channel=1 note=68 velocity=96 time=0@note_on channel=2 note=80 velocity=96 time=0@note_on channel=9 note=42 velocity=16 time=0@note_on channel=0 note=68 velocity=0 time=0.08828125@note_on channel=1 note=68 velocity=0 time=0.004687500000000001@note_on channel=2 note=80 velocity=0 time=0@note_on channel=9 note=42 velocity=0 time=0@note_on channel=0 note=65 velocity=96 time=0.00078125@note_on channel=1 note=65 velocity=96 time=0@note_on channel=2 note=77 velocity=96 time=0@note_on channel=9 note=42 velocity=16 time=0@note_on channel=0 note=65 velocity=0 time=0.08828125@note_on channel=1 note=65 velocity=0 time=0.004687500000000001@note_on channel=1 note=53 velocity=0 time=0@note_on channel=2 note=77 velocity=0 time=0@note_on channel=7 note=53 velocity=0 time=0@note_on channel=8 note=72 velocity=0 time=0@note_on channel=10 note=72 velocity=0 time=0@note_on channel=14 note=41 velocity=0 time=0@note_on channel=0 note=53 velocity=0 time=0@note_on channel=9 note=38 velocity=0 time=0@note_on channel=9 note=35 velocity=0 time=0@note_on channel=9 note=42 velocity=0 time=0@note_on channel=0 note=77 velocity=96 time=0.00078125@note_on channel=1 note=77 velocity=96 time=0@note_on channel=1 note=56 velocity=96 time=0@note_on channel=2 note=89 velocity=96 time=0@note_on channel=7 note=56 velocity=96 time=0@note_on channel=8 note=73 velocity=126 time=0@note_on channel=10 note=73 velocity=126 time=0@note_on channel=14 note=44 velocity=96 time=0@note_on channel=0 note=56 velocity=96 time=0@note_on channel=9 note=42 velocity=16 time=0@note_on channel=0 note=77 velocity=0 time=0.08828125@note_on channel=1 note=77 velocity=0 time=0.004687500000000001@note_on channel=2 note=89 velocity=0 time=0@note_on channel=0 note=72 velocity=96 time=0.00078125@note_on channel=1 note=72 velocity=96 time=0@note_on channel=2 note=84 velocity=96 time=0@note_on channel=0 note=72 velocity=0 time=0.08828125@note_on channel=1 note=72 velocity=0 time=0.004687500000000001@note_on channel=2 note=84 velocity=0 time=0@note_on channel=8 note=73 velocity=0 time=0@note_on channel=10 note=73 velocity=0 time=0@note_on channel=9 note=42 velocity=0 time=0@note_on channel=0 note=68 velocity=96 time=0.00078125@note_on channel=1 note=68 velocity=96 time=0@note_on channel=2 note=80 velocity=96 time=0@note_on channel=8 note=72 velocity=126 time=0@note_on channel=10 note=72 velocity=126 time=0@note_on channel=9 note=42 velocity=16 time=0@note_on channel=0 note=68 velocity=0 time=0.08828125@note_on channel=1 note=68 velocity=0 time=0.004687500000000001@note_on channel=2 note=80 velocity=0 time=0@note_on channel=0 note=65 velocity=96 time=0.00078125@note_on channel=1 note=65 velocity=96 time=0@note_on channel=2 note=77 velocity=96 time=0@note_on channel=0 note=65 velocity=0 time=0.08828125@note_on channel=1 note=65 velocity=0 time=0.004687500000000001@note_on channel=2 note=77 velocity=0 time=0@note_on channel=3 note=60 velocity=0 time=0@note_on channel=4 note=60 velocity=0 time=0@note_on channel=5 note=56 velocity=0 time=0@note_on channel=6 note=56 velocity=0 time=0@note_on channel=8 note=72 velocity=0 time=0@note_on channel=10 note=72 velocity=0 time=0@note_on channel=9 note=42 velocity=0 time=0@note_on channel=1 note=68 velocity=0 time=0@note_on channel=4 note=56 velocity=0 time=0@note_on channel=7 note=60 velocity=0 time=0@note_on channel=0 note=77 velocity=96 time=0.00078125@note_on channel=1 note=77 velocity=96 time=0@note_on channel=2 note=89 velocity=96 time=0@note_on channel=3 note=58 velocity=126 time=0@note_on channel=4 note=58 velocity=126 time=0@note_on channel=5 note=53 velocity=126 time=0@note_on channel=6 note=53 velocity=126 time=0@note_on channel=8 note=70 velocity=126 time=0@note_on channel=10 note=70 velocity=126 time=0@note_on channel=9 note=38 velocity=80 time=0@note_on channel=9 note=35 velocity=80 time=0@note_on channel=9 note=42 velocity=16 time=0@note_on channel=1 note=65 velocity=126 time=0@note_on channel=4 note=53 velocity=126 time=0@note_on channel=7 note=58 velocity=126 time=0@note_on channel=0 note=77 velocity=0 time=0.08828125@note_on channel=1 note=77 velocity=0 time=0.004687500000000001@note_on channel=2 note=89 velocity=0 time=0@note_on channel=9 note=38 velocity=0 time=0@note_on channel=9 note=42 velocity=0 time=0@note_on channel=0 note=72 velocity=96 time=0.00078125@note_on channel=1 note=72 velocity=96 time=0@note_on channel=2 note=84 velocity=96 time=0@note_on channel=9 note=38 velocity=80 time=0@note_on channel=9 note=42 velocity=16 time=0@note_on channel=0 note=72 velocity=0 time=0.08828125@note_on channel=1 note=72 velocity=0 time=0.004687500000000001@note_on channel=2 note=84 velocity=0 time=0@note_on channel=3 note=58 velocity=0 time=0@note_on channel=4 note=58 velocity=0 time=0@note_on channel=8 note=70 velocity=0 time=0@note_on channel=10 note=70 velocity=0 time=0@note_on channel=9 note=38 velocity=0 time=0@note_on channel=7 note=58 velocity=0 time=0@note_on channel=0 note=68 velocity=96 time=0.00078125@note_on channel=1 note=68 velocity=96 time=0@note_on channel=2 note=80 velocity=96 time=0@note_on channel=3 note=56 velocity=126 time=0@note_on channel=4 note=56 velocity=126 time=0@note_on channel=8 note=68 velocity=126 time=0@note_on channel=10 note=68 velocity=126 time=0@note_on channel=7 note=56 velocity=126 time=0@note_on channel=0 note=68 velocity=0 time=0.08828125@note_on channel=1 note=68 velocity=0 time=0.004687500000000001@note_on channel=2 note=80 velocity=0 time=0@note_on channel=0 note=65 velocity=96 time=0.00078125@note_on channel=1 note=65 velocity=96 time=0@note_on channel=2 note=77 velocity=96 time=0@note_on channel=0 note=65 velocity=0 time=0.08828125@note_on channel=1 note=65 velocity=0 time=0.004687500000000001@note_on channel=1 note=56 velocity=0 time=0@note_on channel=2 note=77 velocity=0 time=0@note_on channel=3 note=56 velocity=0 time=0@note_on channel=4 note=56 velocity=0 time=0@note_on channel=5 note=53 velocity=0 time=0@note_on channel=6 note=53 velocity=0 time=0@note_on channel=7 note=56 velocity=0 time=0@note_on channel=8 note=68 velocity=0 time=0@note_on channel=10 note=68 velocity=0 time=0@note_on channel=14 note=44 velocity=0 time=0@note_on channel=0 note=56 velocity=0 time=0@note_on channel=9 note=35 velocity=0 time=0@note_on channel=9 note=42 velocity=0 time=0@note_on channel=1 note=65 velocity=0 time=0@note_on channel=4 note=53 velocity=0 time=0@note_on channel=7 note=56 velocity=0 time=0@note_on channel=0 note=79 velocity=96 time=0.00078125@note_on channel=1 note=79 velocity=96 time=0@note_on channel=1 note=55 velocity=96 time=0@note_on channel=2 note=91 velocity=96 time=0@note_on channel=3 note=55 velocity=126 time=0@note_on channel=4 note=55 velocity=126 time=0@note_on channel=5 note=55 velocity=126 time=0@note_on channel=6 note=55 velocity=126 time=0@note_on channel=7 note=55 velocity=96 time=0@note_on channel=8 note=67 velocity=126 time=0@note_on channel=10 note=67 velocity=126 time=0@note_on channel=14 note=43 velocity=96 time=0@note_on channel=0 note=55 velocity=96 time=0@note_on channel=9 note=42 velocity=16 time=0@note_on channel=1 note=67 velocity=126 time=0@note_on channel=4 note=55 velocity=126 time=0@note_on channel=7 note=55 velocity=126 time=0@note_on channel=0 note=79 velocity=0 time=0.08828125@note_on channel=1 note=79 velocity=0 time=0.004687500000000001@note_on channel=2 note=91 velocity=0 time=0@note_on channel=0 note=73 velocity=96 time=0.00078125@note_on channel=1 note=73 velocity=96 time=0@note_on channel=2 note=85 velocity=96 time=0@note_on channel=0 note=73 velocity=0 time=0.08828125@note_on channel=1 note=73 velocity=0 time=0.004687500000000001@note_on channel=2 note=85 velocity=0 time=0@note_on channel=9 note=42 velocity=0 time=0@note_on channel=0 note=70 velocity=96 time=0.00078125@note_on channel=1 note=70 velocity=96 time=0@note_on channel=2 note=82 velocity=96 time=0@note_on channel=9 note=42 velocity=16 time=0@note_on channel=0 note=70 velocity=0 time=0.08828125@note_on channel=1 note=70 velocity=0 time=0.004687500000000001@note_on channel=2 note=82 velocity=0 time=0@note_on channel=0 note=67 velocity=96 time=0.00078125@note_on channel=1 note=67 velocity=96 time=0@note_on channel=2 note=79 velocity=96 time=0@note_on channel=0 note=67 velocity=0 time=0.08828125@note_on channel=1 note=67 velocity=0 time=0.004687500000000001@note_on channel=2 note=79 velocity=0 time=0@note_on channel=9 note=42 velocity=0 time=0@note_on channel=0 note=79 velocity=96 time=0.00078125@note_on channel=1 note=79 velocity=96 time=0@note_on channel=2 note=91 velocity=96 time=0@note_on channel=9 note=38 velocity=80 time=0@note_on channel=9 note=35 velocity=80 time=0@note_on channel=9 note=42 velocity=16 time=0@note_on channel=0 note=79 velocity=0 time=0.08828125@note_on channel=1 note=79 velocity=0 time=0.004687500000000001@note_on channel=2 note=91 velocity=0 time=0@note_on channel=0 note=73 velocity=96 time=0.00078125@note_on channel=1 note=73 velocity=96 time=0@note_on channel=2 note=85 velocity=96 time=0@note_on channel=0 note=73 velocity=0 time=0.08828125@note_on channel=1 note=73 velocity=0 time=0.004687500000000001@note_on channel=2 note=85 velocity=0 time=0@note_on channel=9 note=42 velocity=0 time=0@note_on channel=0 note=70 velocity=96 time=0.00078125@note_on channel=1 note=70 velocity=96 time=0@note_on channel=2 note=82 velocity=96 time=0@note_on channel=9 note=42 velocity=16 time=0@note_on channel=0 note=70 velocity=0 time=0.08828125@note_on channel=1 note=70 velocity=0 time=0.004687500000000001@note_on channel=2 note=82 velocity=0 time=0@note_on channel=9 note=42 velocity=0 time=0@note_on channel=0 note=67 velocity=96 time=0.00078125@note_on channel=1 note=67 velocity=96 time=0@note_on channel=2 note=79 velocity=96 time=0@note_on channel=9 note=42 velocity=16 time=0@note_on channel=0 note=67 velocity=0 time=0.08828125@note_on channel=1 note=67 velocity=0 time=0.004687500000000001@note_on channel=2 note=79 velocity=0 time=0@note_on channel=9 note=38 velocity=0 time=0@note_on channel=9 note=35 velocity=0 time=0@note_on channel=9 note=42 velocity=0 time=0@note_on channel=0 note=79 velocity=96 time=0.00078125@note_on channel=1 note=79 velocity=96 time=0@note_on channel=2 note=91 velocity=96 time=0@note_on channel=9 note=42 velocity=16 time=0@note_on channel=0 note=79 velocity=0 time=0.08828125@note_on channel=1 note=79 velocity=0 time=0.004687500000000001@note_on channel=2 note=91 velocity=0 time=0@note_on channel=0 note=73 velocity=96 time=0.00078125@note_on channel=1 note=73 velocity=96 time=0@note_on channel=2 note=85 velocity=96 time=0@note_on channel=0 note=73 velocity=0 time=0.08828125@note_on channel=1 note=73 velocity=0 time=0.004687500000000001@note_on channel=2 note=85 velocity=0 time=0@note_on channel=9 note=42 velocity=0 time=0@note_on channel=0 note=70 velocity=96 time=0.00078125@note_on channel=1 note=70 velocity=96 time=0@note_on channel=2 note=82 velocity=96 time=0@note_on channel=9 note=42 velocity=16 time=0@note_on channel=0 note=70 velocity=0 time=0.08828125@note_on channel=1 note=70 velocity=0 time=0.004687500000000001@note_on channel=2 note=82 velocity=0 time=0@note_on channel=0 note=67 velocity=96 time=0.00078125@note_on channel=1 note=67 velocity=96 time=0@note_on channel=2 note=79 velocity=96 time=0@note_on channel=0 note=67 velocity=0 time=0.08828125@note_on channel=1 note=67 velocity=0 time=0.004687500000000001@note_on channel=2 note=79 velocity=0 time=0@note_on channel=3 note=55 velocity=0 time=0@note_on channel=4 note=55 velocity=0 time=0@note_on channel=6 note=55 velocity=0 time=0@note_on channel=8 note=67 velocity=0 time=0@note_on channel=10 note=67 velocity=0 time=0@note_on channel=9 note=42 velocity=0 time=0@note_on channel=4 note=55 velocity=0 time=0@note_on channel=7 note=55 velocity=0 time=0@note_on channel=0 note=79 velocity=96 time=0.00078125@note_on channel=1 note=79 velocity=96 time=0@note_on channel=2 note=91 velocity=96 time=0@note_on channel=3 note=56 velocity=126 time=0@note_on channel=4 note=56 velocity=126 time=0@note_on channel=6 note=56 velocity=126 time=0@note_on channel=8 note=68 velocity=126 time=0@note_on channel=10 note=68 velocity=126 time=0@note_on channel=9 note=38 velocity=80 time=0@note_on channel=9 note=35 velocity=80 time=0@note_on channel=9 note=42 velocity=16 time=0@note_on channel=4 note=56 velocity=126 time=0@note_on channel=7 note=56 velocity=126 time=0@note_on channel=0 note=79 velocity=0 time=0.08828125@note_on channel=1 note=79 velocity=0 time=0.004687500000000001@note_on channel=2 note=91 velocity=0 time=0@note_on channel=9 note=38 velocity=0 time=0@note_on channel=9 note=42 velocity=0 time=0@note_on channel=0 note=73 velocity=96 time=0.00078125@note_on channel=1 note=73 velocity=96 time=0@note_on channel=2 note=85 velocity=96 time=0@note_on channel=9 note=38 velocity=80 time=0@note_on channel=9 note=42 velocity=16 time=0@note_on channel=0 note=73 velocity=0 time=0.08828125@note_on channel=1 note=73 velocity=0 time=0.004687500000000001@note_on channel=2 note=85 velocity=0 time=0@note_on channel=9 note=38 velocity=0 time=0@note_on channel=0 note=70 velocity=96 time=0.00078125@note_on channel=1 note=70 velocity=96 time=0@note_on channel=2 note=82 velocity=96 time=0@note_on channel=0 note=70 velocity=0 time=0.08828125@note_on channel=1 note=70 velocity=0 time=0.004687500000000001@note_on channel=2 note=82 velocity=0 time=0@note_on channel=0 note=67 velocity=96 time=0.00078125@note_on channel=1 note=67 velocity=96 time=0@note_on channel=2 note=79 velocity=96 time=0@note_on channel=0 note=67 velocity=0 time=0.08828125@note_on channel=1 note=67 velocity=0 time=0.004687500000000001@note_on channel=1 note=55 velocity=0 time=0@note_on channel=2 note=79 velocity=0 time=0@note_on channel=3 note=56 velocity=0 time=0@note_on channel=4 note=56 velocity=0 time=0@note_on channel=5 note=55 velocity=0 time=0@note_on channel=6 note=56 velocity=0 time=0@note_on channel=7 note=55 velocity=0 time=0@note_on channel=8 note=68 velocity=0 time=0@note_on channel=10 note=68 velocity=0 time=0@note_on channel=14 note=43 velocity=0 time=0@note_on channel=0 note=55 velocity=0 time=0@note_on channel=9 note=35 velocity=0 time=0@note_on channel=9 note=42 velocity=0 time=0@note_on channel=1 note=67 velocity=0 time=0@note_on channel=4 note=56 velocity=0 time=0@note_on channel=7 note=56 velocity=0 time=0@note_on channel=0 note=79 velocity=96 time=0.00078125@note_on channel=1 note=79 velocity=96 time=0@note_on channel=1 note=48 velocity=96 time=0@note_on channel=2 note=91 velocity=96 time=0@note_on channel=3 note=58 velocity=126 time=0@note_on channel=4 note=58 velocity=126 time=0@note_on channel=5 note=67 velocity=126 time=0@note_on channel=6 note=58 velocity=126 time=0@note_on channel=7 note=48 velocity=96 time=0@note_on channel=8 note=70 velocity=126 time=0@note_on channel=10 note=70 velocity=126 time=0@note_on channel=14 note=36 velocity=96 time=0@note_on channel=0 note=48 velocity=96 time=0@note_on channel=9 note=42 velocity=16 time=0@note_on channel=1 note=79 velocity=126 time=0@note_on channel=4 note=58 velocity=126 time=0@note_on channel=7 note=58 velocity=126 time=0@note_on channel=0 note=79 velocity=0 time=0.08828125@note_on channel=1 note=79 velocity=0 time=0.004687500000000001@note_on channel=2 note=91 velocity=0 time=0@note_on channel=0 note=73 velocity=96 time=0.00078125@note_on channel=1 note=73 velocity=96 time=0@note_on channel=2 note=85 velocity=96 time=0@note_on channel=0 note=73 velocity=0 time=0.08828125@note_on channel=1 note=73 velocity=0 time=0.004687500000000001@note_on channel=2 note=85 velocity=0 time=0@note_on channel=9 note=42 velocity=0 time=0@note_on channel=0 note=70 velocity=96 time=0.00078125@note_on channel=1 note=70 velocity=96 time=0@note_on channel=2 note=82 velocity=96 time=0@note_on channel=9 note=42 velocity=16 time=0@note_on channel=0 note=70 velocity=0 time=0.08828125@note_on channel=1 note=70 velocity=0 time=0.004687500000000001@note_on channel=2 note=82 velocity=0 time=0@note_on channel=0 note=67 velocity=96 time=0.00078125@note_on channel=1 note=67 velocity=96 time=0@note_on channel=2 note=79 velocity=96 time=0@note_on channel=0 note=67 velocity=0 time=0.08828125@note_on channel=1 note=67 velocity=0 time=0.004687500000000001@note_on channel=2 note=79 velocity=0 time=0@note_on channel=9 note=42 velocity=0 time=0@note_on channel=0 note=79 velocity=96 time=0.00078125@note_on channel=1 note=79 velocity=96 time=0@note_on channel=2 note=91 velocity=96 time=0@note_on channel=9 note=38 velocity=80 time=0@note_on channel=9 note=35 velocity=80 time=0@note_on channel=9 note=42 velocity=16 time=0@note_on channel=0 note=79 velocity=0 time=0.08828125@note_on channel=1 note=79 velocity=0 time=0.004687500000000001@note_on channel=2 note=91 velocity=0 time=0@note_on channel=0 note=73 velocity=96 time=0.00078125@note_on channel=1 note=73 velocity=96 time=0@note_on channel=2 note=85 velocity=96 time=0@note_on channel=0 note=73 velocity=0 time=0.08828125@note_on channel=1 note=73 velocity=0 time=0.004687500000000001@note_on channel=2 note=85 velocity=0 time=0@note_on channel=9 note=42 velocity=0 time=0@note_on channel=0 note=70 velocity=96 time=0.00078125@note_on channel=1 note=70 velocity=96 time=0@note_on channel=2 note=82 velocity=96 time=0@note_on channel=9 note=42 velocity=16 time=0@note_on channel=0 note=70 velocity=0 time=0.08828125@note_on channel=1 note=70 velocity=0 time=0.004687500000000001@note_on channel=2 note=82 velocity=0 time=0@note_on channel=9 note=42 velocity=0 time=0@note_on channel=0 note=67 velocity=96 time=0.00078125@note_on channel=1 note=67 velocity=96 time=0@note_on channel=2 note=79 velocity=96 time=0@note_on channel=9 note=42 velocity=16 time=0@note_on channel=0 note=67 velocity=0 time=0.08828125@note_on channel=1 note=67 velocity=0 time=0.004687500000000001@note_on channel=2 note=79 velocity=0 time=0@note_on channel=9 note=38 velocity=0 time=0@note_on channel=9 note=35 velocity=0 time=0@note_on channel=9 note=42 velocity=0 time=0@note_on channel=0 note=79 velocity=96 time=0.00078125@note_on channel=1 note=79 velocity=96 time=0@note_on channel=2 note=91 velocity=96 time=0@note_on channel=9 note=42 velocity=16 time=0@note_on channel=0 note=79 velocity=0 time=0.08828125@note_on channel=1 note=79 velocity=0 time=0.004687500000000001@note_on channel=2 note=91 velocity=0 time=0@note_on channel=0 note=73 velocity=96 time=0.00078125@note_on channel=1 note=73 velocity=96 time=0@note_on channel=2 note=85 velocity=96 time=0@note_on channel=0 note=73 velocity=0 time=0.08828125@note_on channel=1 note=73 velocity=0 time=0.004687500000000001@note_on channel=2 note=85 velocity=0 time=0@note_on channel=9 note=42 velocity=0 time=0@note_on channel=0 note=70 velocity=96 time=0.00078125@note_on channel=1 note=70 velocity=96 time=0@note_on channel=2 note=82 velocity=96 time=0@note_on channel=9 note=42 velocity=16 time=0@note_on channel=0 note=70 velocity=0 time=0.08828125@note_on channel=1 note=70 velocity=0 time=0.004687500000000001@note_on channel=2 note=82 velocity=0 time=0@note_on channel=0 note=67 velocity=96 time=0.00078125@note_on channel=1 note=67 velocity=96 time=0@note_on channel=2 note=79 velocity=96 time=0@note_on channel=0 note=67 velocity=0 time=0.08828125@note_on channel=1 note=67 velocity=0 time=0.004687500000000001@note_on channel=2 note=79 velocity=0 time=0@note_on channel=9 note=42 velocity=0 time=0@note_on channel=0 note=79 velocity=96 time=0.00078125@note_on channel=1 note=79 velocity=96 time=0@note_on channel=2 note=91 velocity=96 time=0@note_on channel=9 note=38 velocity=80 time=0@note_on channel=9 note=35 velocity=80 time=0@note_on channel=9 note=42 velocity=16 time=0@note_on channel=0 note=79 velocity=0 time=0.08828125@note_on channel=1 note=79 velocity=0 time=0.004687500000000001@note_on channel=2 note=91 velocity=0 time=0@note_on channel=9 note=38 velocity=0 time=0@note_on channel=9 note=42 velocity=0 time=0@note_on channel=0 note=73 velocity=96 time=0.00078125@note_on channel=1 note=73 velocity=96 time=0@note_on channel=2 note=85 velocity=96 time=0@note_on channel=9 note=38 velocity=80 time=0@note_on channel=9 note=42 velocity=16 time=0@note_on channel=0 note=73 velocity=0 time=0.08828125@note_on channel=1 note=73 velocity=0 time=0.004687500000000001@note_on channel=2 note=85 velocity=0 time=0@note_on channel=9 note=38 velocity=0 time=0@note_on channel=0 note=70 velocity=96 time=0.00078125@note_on channel=1 note=70 velocity=96 time=0@note_on channel=2 note=82 velocity=96 time=0@note_on channel=0 note=70 velocity=0 time=0.08828125@note_on channel=1 note=70 velocity=0 time=0.004687500000000001@note_on channel=2 note=82 velocity=0 time=0@note_on channel=0 note=67 velocity=96 time=0.00078125@note_on channel=1 note=67 velocity=96 time=0@note_on channel=2 note=79 velocity=96 time=0@note_on channel=0 note=67 velocity=0 time=0.08828125@note_on channel=1 note=67 velocity=0 time=0.004687500000000001@note_on channel=1 note=48 velocity=0 time=0@note_on channel=2 note=79 velocity=0 time=0@note_on channel=3 note=58 velocity=0 time=0@note_on channel=4 note=58 velocity=0 time=0@note_on channel=5 note=67 velocity=0 time=0@note_on channel=6 note=58 velocity=0 time=0@note_on channel=7 note=48 velocity=0 time=0@note_on channel=8 note=70 velocity=0 time=0@note_on channel=10 note=70 velocity=0 time=0@note_on channel=14 note=36 velocity=0 time=0@note_on channel=0 note=48 velocity=0 time=0@note_on channel=9 note=35 velocity=0 time=0@note_on channel=9 note=42 velocity=0 time=0@note_on channel=1 note=79 velocity=0 time=0@note_on channel=4 note=58 velocity=0 time=0@note_on channel=7 note=58 velocity=0 time=0@note_on channel=0 note=82 velocity=96 time=0.00078125@note_on channel=1 note=82 velocity=96 time=0@note_on channel=1 note=49 velocity=96 time=0@note_on channel=2 note=94 velocity=96 time=0@note_on channel=3 note=58 velocity=126 time=0@note_on channel=4 note=58 velocity=126 time=0@note_on channel=5 note=70 velocity=126 time=0@note_on channel=6 note=53 velocity=126 time=0@note_on channel=7 note=49 velocity=96 time=0@note_on channel=8 note=70 velocity=126 time=0@note_on channel=10 note=70 velocity=126 time=0@note_on channel=14 note=37 velocity=96 time=0@note_on channel=0 note=49 velocity=96 time=0@note_on channel=9 note=42 velocity=16 time=0@note_on channel=1 note=82 velocity=126 time=0@note_on channel=4 note=53 velocity=126 time=0@note_on channel=7 note=58 velocity=126 time=0@note_on channel=0 note=82 velocity=0 time=0.08828125@note_on channel=1 note=82 velocity=0 time=0.004687500000000001@note_on channel=2 note=94 velocity=0 time=0@note_on channel=0 note=77 velocity=96 time=0.00078125@note_on channel=1 note=77 velocity=96 time=0@note_on channel=2 note=89 velocity=96 time=0@note_on channel=0 note=77 velocity=0 time=0.08828125@note_on channel=1 note=77 velocity=0 time=0.004687500000000001@note_on channel=2 note=89 velocity=0 time=0@note_on channel=9 note=42 velocity=0 time=0@note_on channel=0 note=73 velocity=96 time=0.00078125@note_on channel=1 note=73 velocity=96 time=0@note_on channel=2 note=85 velocity=96 time=0@note_on channel=9 note=42 velocity=16 time=0@note_on channel=0 note=73 velocity=0 time=0.08828125@note_on channel=1 note=73 velocity=0 time=0.004687500000000001@note_on channel=2 note=85 velocity=0 time=0@note_on channel=0 note=70 velocity=96 time=0.00078125@note_on channel=1 note=70 velocity=96 time=0@note_on channel=2 note=82 velocity=96 time=0@note_on channel=0 note=70 velocity=0 time=0.08828125@note_on channel=1 note=70 velocity=0 time=0.004687500000000001@note_on channel=2 note=82 velocity=0 time=0@note_on channel=9 note=42 velocity=0 time=0@note_on channel=0 note=82 velocity=96 time=0.00078125@note_on channel=1 note=82 velocity=96 time=0@note_on channel=2 note=94 velocity=96 time=0@note_on channel=9 note=38 velocity=80 time=0@note_on channel=9 note=35 velocity=80 time=0@note_on channel=9 note=42 velocity=16 time=0@note_on channel=0 note=82 velocity=0 time=0.08828125@note_on channel=1 note=82 velocity=0 time=0.004687500000000001@note_on channel=2 note=94 velocity=0 time=0@note_on channel=0 note=77 velocity=96 time=0.00078125@note_on channel=1 note=77 velocity=96 time=0@note_on channel=2 note=89 velocity=96 time=0@note_on channel=0 note=77 velocity=0 time=0.08828125@note_on channel=1 note=77 velocity=0 time=0.004687500000000001@note_on channel=2 note=89 velocity=0 time=0@note_on channel=9 note=42 velocity=0 time=0@note_on channel=0 note=73 velocity=96 time=0.00078125@note_on channel=1 note=73 velocity=96 time=0@note_on channel=2 note=85 velocity=96 time=0@note_on channel=9 note=42 velocity=16 time=0@note_on channel=0 note=73 velocity=0 time=0.08828125@note_on channel=1 note=73 velocity=0 time=0.004687500000000001@note_on channel=2 note=85 velocity=0 time=0@note_on channel=9 note=42 velocity=0 time=0@note_on channel=0 note=70 velocity=96 time=0.00078125@note_on channel=1 note=70 velocity=96 time=0@note_on channel=2 note=82 velocity=96 time=0@note_on channel=9 note=42 velocity=16 time=0@note_on channel=0 note=70 velocity=0 time=0.08828125@note_on channel=1 note=70 velocity=0 time=0.004687500000000001@note_on channel=2 note=82 velocity=0 time=0@note_on channel=9 note=38 velocity=0 time=0@note_on channel=9 note=35 velocity=0 time=0@note_on channel=9 note=42 velocity=0 time=0@note_on channel=0 note=82 velocity=96 time=0.00078125@note_on channel=1 note=82 velocity=96 time=0@note_on channel=2 note=94 velocity=96 time=0@note_on channel=9 note=42 velocity=16 time=0@note_on channel=0 note=82 velocity=0 time=0.08828125@note_on channel=1 note=82 velocity=0 time=0.004687500000000001@note_on channel=2 note=94 velocity=0 time=0@note_on channel=0 note=77 velocity=96 time=0.00078125@note_on channel=1 note=77 velocity=96 time=0@note_on channel=2 note=89 velocity=96 time=0@note_on channel=0 note=77 velocity=0 time=0.08828125@note_on channel=1 note=77 velocity=0 time=0.004687500000000001@note_on channel=2 note=89 velocity=0 time=0@note_on channel=9 note=42 velocity=0 time=0@note_on channel=0 note=73 velocity=96 time=0.00078125@note_on channel=1 note=73 velocity=96 time=0@note_on channel=2 note=85 velocity=96 time=0@note_on channel=9 note=42 velocity=16 time=0@note_on channel=0 note=73 velocity=0 time=0.08828125@note_on channel=1 note=73 velocity=0 time=0.004687500000000001@note_on channel=2 note=85 velocity=0 time=0@note_on channel=0 note=70 velocity=96 time=0.00078125@note_on channel=1 note=70 velocity=96 time=0@note_on channel=2 note=82 velocity=96 time=0@note_on channel=0 note=70 velocity=0 time=0.08828125@note_on channel=1 note=70 velocity=0 time=0.004687500000000001@note_on channel=2 note=82 velocity=0 time=0@note_on channel=3 note=58 velocity=0 time=0@note_on channel=4 note=58 velocity=0 time=0@note_on channel=5 note=70 velocity=0 time=0@note_on channel=8 note=70 velocity=0 time=0@note_on channel=10 note=70 velocity=0 time=0@note_on channel=9 note=42 velocity=0 time=0@note_on channel=1 note=82 velocity=0 time=0@note_on channel=7 note=58 velocity=0 time=0@note_on channel=0 note=82 velocity=96 time=0.00078125@note_on channel=1 note=82 velocity=96 time=0@note_on channel=2 note=94 velocity=96 time=0@note_on channel=3 note=60 velocity=126 time=0@note_on channel=4 note=60 velocity=126 time=0@note_on channel=5 note=68 velocity=126 time=0@note_on channel=8 note=72 velocity=126 time=0@note_on channel=10 note=72 velocity=126 time=0@note_on channel=9 note=38 velocity=80 time=0@note_on channel=9 note=35 velocity=80 time=0@note_on channel=9 note=42 velocity=16 time=0@note_on channel=1 note=80 velocity=126 time=0@note_on channel=7 note=60 velocity=126 time=0@note_on channel=0 note=82 velocity=0 time=0.08828125@note_on channel=1 note=82 velocity=0 time=0.004687500000000001@note_on channel=2 note=94 velocity=0 time=0@note_on channel=9 note=38 velocity=0 time=0@note_on channel=9 note=42 velocity=0 time=0@note_on channel=0 note=77 velocity=96 time=0.00078125@note_on channel=1 note=77 velocity=96 time=0@note_on channel=2 note=89 velocity=96 time=0@note_on channel=9 note=38 velocity=80 time=0@note_on channel=9 note=42 velocity=16 time=0@note_on channel=0 note=77 velocity=0 time=0.08828125@note_on channel=1 note=77 velocity=0 time=0.004687500000000001@note_on channel=2 note=89 velocity=0 time=0@note_on channel=9 note=38 velocity=0 time=0@note_on channel=0 note=73 velocity=96 time=0.00078125@note_on channel=1 note=73 velocity=96 time=0@note_on channel=2 note=85 velocity=96 time=0@note_on channel=0 note=73 velocity=0 time=0.08828125@note_on channel=1 note=73 velocity=0 time=0.004687500000000001@note_on channel=2 note=85 velocity=0 time=0@note_on channel=0 note=70 velocity=96 time=0.00078125@note_on channel=1 note=70 velocity=96 time=0@note_on channel=2 note=82 velocity=96 time=0@note_on channel=0 note=70 velocity=0 time=0.08828125@note_on channel=1 note=70 velocity=0 time=0.004687500000000001@note_on channel=1 note=49 velocity=0 time=0@note_on channel=2 note=82 velocity=0 time=0@note_on channel=3 note=60 velocity=0 time=0@note_on channel=4 note=60 velocity=0 time=0@note_on channel=5 note=68 velocity=0 time=0@note_on channel=6 note=53 velocity=0 time=0@note_on channel=7 note=49 velocity=0 time=0@note_on channel=8 note=72 velocity=0 time=0@note_on channel=10 note=72 velocity=0 time=0@note_on channel=14 note=37 velocity=0 time=0@note_on channel=0 note=49 velocity=0 time=0@note_on channel=9 note=35 velocity=0 time=0@note_on channel=9 note=42 velocity=0 time=0@note_on channel=1 note=80 velocity=0 time=0@note_on channel=4 note=53 velocity=0 time=0@note_on channel=7 note=60 velocity=0 time=0@note_on channel=0 note=77 velocity=96 time=0.00078125@note_on channel=1 note=77 velocity=96 time=0@note_on channel=1 note=53 velocity=96 time=0@note_on channel=2 note=89 velocity=96 time=0@note_on channel=3 note=56 velocity=126 time=0@note_on channel=4 note=56 velocity=126 time=0@note_on channel=5 note=65 velocity=126 time=0@note_on channel=6 note=53 velocity=126 time=0@note_on channel=7 note=53 velocity=96 time=0@note_on channel=8 note=68 velocity=126 time=0@note_on channel=10 note=68 velocity=126 time=0@note_on channel=14 note=41 velocity=96 time=0@note_on channel=0 note=53 velocity=96 time=0@note_on channel=9 note=42 velocity=16 time=0@note_on channel=1 note=77 velocity=126 time=0@note_on channel=4 note=53 velocity=126 time=0@note_on channel=7 note=56 velocity=126 time=0@note_on channel=0 note=77 velocity=0 time=0.08828125@note_on channel=1 note=77 velocity=0 time=0.004687500000000001@note_on channel=2 note=89 velocity=0 time=0@note_on channel=0 note=72 velocity=96 time=0.00078125@note_on channel=1 note=72 velocity=96 time=0@note_on channel=2 note=84 velocity=96 time=0@note_on channel=0 note=72 velocity=0 time=0.08828125@note_on channel=1 note=72 velocity=0 time=0.004687500000000001@note_on channel=2 note=84 velocity=0 time=0@note_on channel=9 note=42 velocity=0 time=0@note_on channel=0 note=68 velocity=96 time=0.00078125@note_on channel=1 note=68 velocity=96 time=0@note_on channel=2 note=80 velocity=96 time=0@note_on channel=9 note=42 velocity=16 time=0@note_on channel=0 note=68 velocity=0 time=0.08828125@note_on channel=1 note=68 velocity=0 time=0.004687500000000001@note_on channel=2 note=80 velocity=0 time=0@note_on channel=0 note=65 velocity=96 time=0.00078125@note_on channel=1 note=65 velocity=96 time=0@note_on channel=2 note=77 velocity=96 time=0@note_on channel=0 note=65 velocity=0 time=0.08828125@note_on channel=1 note=65 velocity=0 time=0.004687500000000001@note_on channel=2 note=77 velocity=0 time=0@note_on channel=9 note=42 velocity=0 time=0@note_on channel=0 note=77 velocity=96 time=0.00078125@note_on channel=1 note=77 velocity=96 time=0@note_on channel=2 note=89 velocity=96 time=0@note_on channel=9 note=38 velocity=80 time=0@note_on channel=9 note=35 velocity=80 time=0@note_on channel=9 note=42 velocity=16 time=0@note_on channel=0 note=77 velocity=0 time=0.08828125@note_on channel=1 note=77 velocity=0 time=0.004687500000000001@note_on channel=2 note=89 velocity=0 time=0@note_on channel=0 note=72 velocity=96 time=0.00078125@note_on channel=1 note=72 velocity=96 time=0@note_on channel=2 note=84 velocity=96 time=0@note_on channel=0 note=72 velocity=0 time=0.08828125@note_on channel=1 note=72 velocity=0 time=0.004687500000000001@note_on channel=2 note=84 velocity=0 time=0@note_on channel=9 note=42 velocity=0 time=0@note_on channel=0 note=68 velocity=96 time=0.00078125@note_on channel=1 note=68 velocity=96 time=0@note_on channel=2 note=80 velocity=96 time=0@note_on channel=9 note=42 velocity=16 time=0@note_on channel=0 note=68 velocity=0 time=0.08828125@note_on channel=1 note=68 velocity=0 time=0.004687500000000001@note_on channel=2 note=80 velocity=0 time=0@note_on channel=9 note=42 velocity=0 time=0@note_on channel=0 note=65 velocity=96 time=0.00078125@note_on channel=1 note=65 velocity=96 time=0@note_on channel=2 note=77 velocity=96 time=0@note_on channel=9 note=42 velocity=16 time=0@note_on channel=0 note=65 velocity=0 time=0.08828125@note_on channel=1 note=65 velocity=0 time=0.004687500000000001@note_on channel=2 note=77 velocity=0 time=0@note_on channel=9 note=38 velocity=0 time=0@note_on channel=9 note=35 velocity=0 time=0@note_on channel=9 note=42 velocity=0 time=0@note_on channel=0 note=77 velocity=96 time=0.00078125@note_on channel=1 note=77 velocity=96 time=0@note_on channel=2 note=89 velocity=96 time=0@note_on channel=9 note=42 velocity=16 time=0@note_on channel=0 note=77 velocity=0 time=0.08828125@note_on channel=1 note=77 velocity=0 time=0.004687500000000001@note_on channel=2 note=89 velocity=0 time=0@note_on channel=0 note=72 velocity=96 time=0.00078125@note_on channel=1 note=72 velocity=96 time=0@note_on channel=2 note=84 velocity=96 time=0@note_on channel=0 note=72 velocity=0 time=0.08828125@note_on channel=1 note=72 velocity=0 time=0.004687500000000001@note_on channel=2 note=84 velocity=0 time=0@note_on channel=9 note=42 velocity=0 time=0@note_on channel=0 note=68 velocity=96 time=0.00078125@note_on channel=1 note=68 velocity=96 time=0@note_on channel=2 note=80 velocity=96 time=0@note_on channel=9 note=42 velocity=16 time=0@note_on channel=0 note=68 velocity=0 time=0.08828125@note_on channel=1 note=68 velocity=0 time=0.004687500000000001@note_on channel=2 note=80 velocity=0 time=0@note_on channel=0 note=65 velocity=96 time=0.00078125@note_on channel=1 note=65 velocity=96 time=0@note_on channel=2 note=77 velocity=96 time=0@note_on channel=0 note=65 velocity=0 time=0.08828125@note_on channel=1 note=65 velocity=0 time=0.004687500000000001@note_on channel=2 note=77 velocity=0 time=0@note_on channel=9 note=42 velocity=0 time=0@note_on channel=0 note=77 velocity=96 time=0.00078125@note_on channel=1 note=77 velocity=96 time=0@note_on channel=2 note=89 velocity=96 time=0@note_on channel=9 note=38 velocity=80 time=0@note_on channel=9 note=35 velocity=80 time=0@note_on channel=9 note=42 velocity=16 time=0@note_on channel=0 note=77 velocity=0 time=0.08828125@note_on channel=1 note=77 velocity=0 time=0.004687500000000001@note_on channel=2 note=89 velocity=0 time=0@note_on channel=9 note=38 velocity=0 time=0@note_on channel=9 note=42 velocity=0 time=0@note_on channel=0 note=72 velocity=96 time=0.00078125@note_on channel=1 note=72 velocity=96 time=0@note_on channel=2 note=84 velocity=96 time=0@note_on channel=9 note=38 velocity=80 time=0@note_on channel=9 note=42 velocity=16 time=0@note_on channel=0 note=72 velocity=0 time=0.08828125@note_on channel=1 note=72 velocity=0 time=0.004687500000000001@note_on channel=2 note=84 velocity=0 time=0@note_on channel=9 note=38 velocity=0 time=0@note_on channel=0 note=68 velocity=96 time=0.00078125@note_on channel=1 note=68 velocity=96 time=0@note_on channel=2 note=80 velocity=96 time=0@note_on channel=0 note=68 velocity=0 time=0.08828125@note_on channel=1 note=68 velocity=0 time=0.004687500000000001@note_on channel=2 note=80 velocity=0 time=0@note_on channel=0 note=65 velocity=96 time=0.00078125@note_on channel=1 note=65 velocity=96 time=0@note_on channel=2 note=77 velocity=96 time=0@note_on channel=0 note=65 velocity=0 time=0.08828125@note_on channel=1 note=65 velocity=0 time=0.004687500000000001@note_on channel=1 note=53 velocity=0 time=0@note_on channel=2 note=77 velocity=0 time=0@note_on channel=3 note=56 velocity=0 time=0@note_on channel=4 note=56 velocity=0 time=0@note_on channel=5 note=65 velocity=0 time=0@note_on channel=6 note=53 velocity=0 time=0@note_on channel=7 note=53 velocity=0 time=0@note_on channel=8 note=68 velocity=0 time=0@note_on channel=10 note=68 velocity=0 time=0@note_on channel=14 note=41 velocity=0 time=0@note_on channel=0 note=53 velocity=0 time=0@note_on channel=9 note=35 velocity=0 time=0@note_on channel=9 note=42 velocity=0 time=0@note_on channel=1 note=77 velocity=0 time=0@note_on channel=4 note=53 velocity=0 time=0@note_on channel=7 note=56 velocity=0 time=0@note_on channel=0 note=79 velocity=96 time=0.00078125@note_on channel=1 note=79 velocity=96 time=0@note_on channel=1 note=46 velocity=96 time=0@note_on channel=2 note=91 velocity=96 time=0@note_on channel=3 note=58 velocity=126 time=0@note_on channel=4 note=58 velocity=126 time=0@note_on channel=5 note=67 velocity=126 time=0@note_on channel=6 note=58 velocity=126 time=0@note_on channel=7 note=46 velocity=96 time=0@note_on channel=8 note=70 velocity=126 time=0@note_on channel=10 note=70 velocity=126 time=0@note_on channel=14 note=34 velocity=96 time=0@note_on channel=0 note=46 velocity=96 time=0@note_on channel=9 note=42 velocity=16 time=0@note_on channel=1 note=79 velocity=126 time=0@note_on channel=4 note=58 velocity=126 time=0@note_on channel=7 note=58 velocity=126 time=0@note_on channel=0 note=79 velocity=0 time=0.08828125@note_on channel=1 note=79 velocity=0 time=0.004687500000000001@note_on channel=2 note=91 velocity=0 time=0@note_on channel=0 note=73 velocity=96 time=0.00078125@note_on channel=1 note=73 velocity=96 time=0@note_on channel=2 note=85 velocity=96 time=0@note_on channel=0 note=73 velocity=0 time=0.08828125@note_on channel=1 note=73 velocity=0 time=0.004687500000000001@note_on channel=2 note=85 velocity=0 time=0@note_on channel=9 note=42 velocity=0 time=0@note_on channel=0 note=70 velocity=96 time=0.00078125@note_on channel=1 note=70 velocity=96 time=0@note_on channel=2 note=82 velocity=96 time=0@note_on channel=9 note=42 velocity=16 time=0@note_on channel=0 note=70 velocity=0 time=0.08828125@note_on channel=1 note=70 velocity=0 time=0.004687500000000001@note_on channel=2 note=82 velocity=0 time=0@note_on channel=0 note=67 velocity=96 time=0.00078125@note_on channel=1 note=67 velocity=96 time=0@note_on channel=2 note=79 velocity=96 time=0@note_on channel=0 note=67 velocity=0 time=0.08828125@note_on channel=1 note=67 velocity=0 time=0.004687500000000001@note_on channel=2 note=79 velocity=0 time=0@note_on channel=9 note=42 velocity=0 time=0@note_on channel=0 note=79 velocity=96 time=0.00078125@note_on channel=1 note=79 velocity=96 time=0@note_on channel=2 note=91 velocity=96 time=0@note_on channel=9 note=38 velocity=80 time=0@note_on channel=9 note=35 velocity=80 time=0@note_on channel=9 note=42 velocity=16 time=0@note_on channel=0 note=79 velocity=0 time=0.08828125@note_on channel=1 note=79 velocity=0 time=0.004687500000000001@note_on channel=2 note=91 velocity=0 time=0@note_on channel=0 note=73 velocity=96 time=0.00078125@note_on channel=1 note=73 velocity=96 time=0@note_on channel=2 note=85 velocity=96 time=0@note_on channel=0 note=73 velocity=0 time=0.08828125@note_on channel=1 note=73 velocity=0 time=0.004687500000000001@note_on channel=2 note=85 velocity=0 time=0@note_on channel=9 note=42 velocity=0 time=0@note_on channel=0 note=70 velocity=96 time=0.00078125@note_on channel=1 note=70 velocity=96 time=0@note_on channel=2 note=82 velocity=96 time=0@note_on channel=9 note=42 velocity=16 time=0@note_on channel=0 note=70 velocity=0 time=0.08828125@note_on channel=1 note=70 velocity=0 time=0.004687500000000001@note_on channel=2 note=82 velocity=0 time=0@note_on channel=9 note=42 velocity=0 time=0@note_on channel=0 note=67 velocity=96 time=0.00078125@note_on channel=1 note=67 velocity=96 time=0@note_on channel=2 note=79 velocity=96 time=0@note_on channel=9 note=42 velocity=16 time=0@note_on channel=0 note=67 velocity=0 time=0.08828125@note_on channel=1 note=67 velocity=0 time=0.004687500000000001@note_on channel=2 note=79 velocity=0 time=0@note_on channel=9 note=38 velocity=0 time=0@note_on channel=9 note=35 velocity=0 time=0@note_on channel=9 note=42 velocity=0 time=0@note_on channel=0 note=79 velocity=96 time=0.00078125@note_on channel=1 note=79 velocity=96 time=0@note_on channel=2 note=91 velocity=96 time=0@note_on channel=9 note=42 velocity=16 time=0@note_on channel=0 note=79 velocity=0 time=0.08828125@note_on channel=1 note=79 velocity=0 time=0.004687500000000001@note_on channel=2 note=91 velocity=0 time=0@note_on channel=0 note=73 velocity=96 time=0.00078125@note_on channel=1 note=73 velocity=96 time=0@note_on channel=2 note=85 velocity=96 time=0@note_on channel=0 note=73 velocity=0 time=0.08828125@note_on channel=1 note=73 velocity=0 time=0.004687500000000001@note_on channel=2 note=85 velocity=0 time=0@note_on channel=9 note=42 velocity=0 time=0@note_on channel=0 note=70 velocity=96 time=0.00078125@note_on channel=1 note=70 velocity=96 time=0@note_on channel=2 note=82 velocity=96 time=0@note_on channel=9 note=42 velocity=16 time=0@note_on channel=0 note=70 velocity=0 time=0.08828125@note_on channel=1 note=70 velocity=0 time=0.004687500000000001@note_on channel=2 note=82 velocity=0 time=0@note_on channel=0 note=67 velocity=96 time=0.00078125@note_on channel=1 note=67 velocity=96 time=0@note_on channel=2 note=79 velocity=96 time=0@note_on channel=0 note=67 velocity=0 time=0.08828125@note_on channel=1 note=67 velocity=0 time=0.004687500000000001@note_on channel=2 note=79 velocity=0 time=0@note_on channel=9 note=42 velocity=0 time=0@note_on channel=0 note=79 velocity=96 time=0.00078125@note_on channel=1 note=79 velocity=96 time=0@note_on channel=2 note=91 velocity=96 time=0@note_on channel=9 note=38 velocity=80 time=0@note_on channel=9 note=35 velocity=80 time=0@note_on channel=9 note=42 velocity=16 time=0@note_on channel=0 note=79 velocity=0 time=0.08828125@note_on channel=1 note=79 velocity=0 time=0.004687500000000001@note_on channel=2 note=91 velocity=0 time=0@note_on channel=9 note=38 velocity=0 time=0@note_on channel=9 note=42 velocity=0 time=0@note_on channel=0 note=73 velocity=96 time=0.00078125@note_on channel=1 note=73 velocity=96 time=0@note_on channel=2 note=85 velocity=96 time=0@note_on channel=9 note=38 velocity=80 time=0@note_on channel=9 note=42 velocity=16 time=0@note_on channel=0 note=73 velocity=0 time=0.08828125@note_on channel=1 note=73 velocity=0 time=0.004687500000000001@note_on channel=2 note=85 velocity=0 time=0@note_on channel=9 note=38 velocity=0 time=0@note_on channel=0 note=70 velocity=96 time=0.00078125@note_on channel=1 note=70 velocity=96 time=0@note_on channel=2 note=82 velocity=96 time=0@note_on channel=0 note=70 velocity=0 time=0.08828125@note_on channel=1 note=70 velocity=0 time=0.004687500000000001@note_on channel=2 note=82 velocity=0 time=0@note_on channel=0 note=67 velocity=96 time=0.00078125@note_on channel=1 note=67 velocity=96 time=0@note_on channel=2 note=79 velocity=96 time=0@note_on channel=0 note=67 velocity=0 time=0.08828125@note_on channel=1 note=67 velocity=0 time=0.004687500000000001@note_on channel=1 note=46 velocity=0 time=0@note_on channel=2 note=79 velocity=0 time=0@note_on channel=3 note=58 velocity=0 time=0@note_on channel=4 note=58 velocity=0 time=0@note_on channel=5 note=67 velocity=0 time=0@note_on channel=6 note=58 velocity=0 time=0@note_on channel=7 note=46 velocity=0 time=0@note_on channel=8 note=70 velocity=0 time=0@note_on channel=10 note=70 velocity=0 time=0@note_on channel=14 note=34 velocity=0 time=0@note_on channel=0 note=46 velocity=0 time=0@note_on channel=9 note=35 velocity=0 time=0@note_on channel=9 note=42 velocity=0 time=0@note_on channel=1 note=79 velocity=0 time=0@note_on channel=4 note=58 velocity=0 time=0@note_on channel=7 note=58 velocity=0 time=0@note_on channel=0 note=77 velocity=96 time=0.00078125@note_on channel=1 note=77 velocity=96 time=0@note_on channel=1 note=53 velocity=96 time=0@note_on channel=2 note=89 velocity=96 time=0@note_on channel=3 note=60 velocity=126 time=0@note_on channel=4 note=60 velocity=126 time=0@note_on channel=5 note=65 velocity=126 time=0@note_on channel=6 note=56 velocity=126 time=0@note_on channel=7 note=53 velocity=96 time=0@note_on channel=8 note=65 velocity=126 time=0@note_on channel=10 note=65 velocity=126 time=0@note_on channel=14 note=41 velocity=96 time=0@note_on channel=0 note=53 velocity=96 time=0@note_on channel=9 note=42 velocity=16 time=0@note_on channel=1 note=77 velocity=126 time=0@note_on channel=4 note=56 velocity=126 time=0@note_on channel=7 note=60 velocity=126 time=0@note_on channel=0 note=77 velocity=0 time=0.08828125@note_on channel=1 note=77 velocity=0 time=0.004687500000000001@note_on channel=2 note=89 velocity=0 time=0@note_on channel=0 note=72 velocity=96 time=0.00078125@note_on channel=1 note=72 velocity=96 time=0@note_on channel=2 note=84 velocity=96 time=0@note_on channel=0 note=72 velocity=0 time=0.08828125@note_on channel=1 note=72 velocity=0 time=0.004687500000000001@note_on channel=2 note=84 velocity=0 time=0@note_on channel=9 note=42 velocity=0 time=0@note_on channel=0 note=68 velocity=96 time=0.00078125@note_on channel=1 note=68 velocity=96 time=0@note_on channel=2 note=80 velocity=96 time=0@note_on channel=9 note=42 velocity=16 time=0@note_on channel=0 note=68 velocity=0 time=0.08828125@note_on channel=1 note=68 velocity=0 time=0.004687500000000001@note_on channel=2 note=80 velocity=0 time=0@note_on channel=0 note=65 velocity=96 time=0.00078125@note_on channel=1 note=65 velocity=96 time=0@note_on channel=2 note=77 velocity=96 time=0@note_on channel=0 note=65 velocity=0 time=0.08828125@note_on channel=1 note=65 velocity=0 time=0.004687500000000001@note_on channel=2 note=77 velocity=0 time=0@note_on channel=9 note=42 velocity=0 time=0@note_on channel=0 note=77 velocity=96 time=0.00078125@note_on channel=1 note=77 velocity=96 time=0@note_on channel=2 note=89 velocity=96 time=0@note_on channel=9 note=38 velocity=80 time=0@note_on channel=9 note=35 velocity=80 time=0@note_on channel=9 note=42 velocity=16 time=0@note_on channel=0 note=77 velocity=0 time=0.08828125@note_on channel=1 note=77 velocity=0 time=0.004687500000000001@note_on channel=2 note=89 velocity=0 time=0@note_on channel=0 note=72 velocity=96 time=0.00078125@note_on channel=1 note=72 velocity=96 time=0@note_on channel=2 note=84 velocity=96 time=0@note_on channel=0 note=72 velocity=0 time=0.08828125@note_on channel=1 note=72 velocity=0 time=0.004687500000000001@note_on channel=2 note=84 velocity=0 time=0@note_on channel=9 note=42 velocity=0 time=0@note_on channel=0 note=68 velocity=96 time=0.00078125@note_on channel=1 note=68 velocity=96 time=0@note_on channel=2 note=80 velocity=96 time=0@note_on channel=9 note=42 velocity=16 time=0@note_on channel=0 note=68 velocity=0 time=0.08828125@note_on channel=1 note=68 velocity=0 time=0.004687500000000001@note_on channel=2 note=80 velocity=0 time=0@note_on channel=9 note=42 velocity=0 time=0@note_on channel=0 note=65 velocity=96 time=0.00078125@note_on channel=1 note=65 velocity=96 time=0@note_on channel=2 note=77 velocity=96 time=0@note_on channel=9 note=42 velocity=16 time=0@note_on channel=0 note=65 velocity=0 time=0.08828125@note_on channel=1 note=65 velocity=0 time=0.004687500000000001@note_on channel=2 note=77 velocity=0 time=0@note_on channel=9 note=38 velocity=0 time=0@note_on channel=9 note=35 velocity=0 time=0@note_on channel=9 note=42 velocity=0 time=0@note_on channel=0 note=77 velocity=96 time=0.00078125@note_on channel=1 note=77 velocity=96 time=0@note_on channel=2 note=89 velocity=96 time=0@note_on channel=9 note=42 velocity=16 time=0@note_on channel=0 note=77 velocity=0 time=0.08828125@note_on channel=1 note=77 velocity=0 time=0.004687500000000001@note_on channel=2 note=89 velocity=0 time=0@note_on channel=0 note=72 velocity=96 time=0.00078125@note_on channel=1 note=72 velocity=96 time=0@note_on channel=2 note=84 velocity=96 time=0@note_on channel=0 note=72 velocity=0 time=0.08828125@note_on channel=1 note=72 velocity=0 time=0.004687500000000001@note_on channel=2 note=84 velocity=0 time=0@note_on channel=9 note=42 velocity=0 time=0@note_on channel=0 note=68 velocity=96 time=0.00078125@note_on channel=1 note=68 velocity=96 time=0@note_on channel=2 note=80 velocity=96 time=0@note_on channel=9 note=42 velocity=16 time=0@note_on channel=0 note=68 velocity=0 time=0.08828125@note_on channel=1 note=68 velocity=0 time=0.004687500000000001@note_on channel=2 note=80 velocity=0 time=0@note_on channel=0 note=65 velocity=96 time=0.00078125@note_on channel=1 note=65 velocity=96 time=0@note_on channel=2 note=77 velocity=96 time=0@note_on channel=0 note=65 velocity=0 time=0.08828125@note_on channel=1 note=65 velocity=0 time=0.004687500000000001@note_on channel=2 note=77 velocity=0 time=0@note_on channel=9 note=42 velocity=0 time=0@note_on channel=0 note=77 velocity=96 time=0.00078125@note_on channel=1 note=77 velocity=96 time=0@note_on channel=2 note=89 velocity=96 time=0@note_on channel=9 note=38 velocity=80 time=0@note_on channel=9 note=35 velocity=80 time=0@note_on channel=9 note=42 velocity=16 time=0@note_on channel=0 note=77 velocity=0 time=0.08828125@note_on channel=1 note=77 velocity=0 time=0.004687500000000001@note_on channel=2 note=89 velocity=0 time=0@note_on channel=9 note=38 velocity=0 time=0@note_on channel=9 note=42 velocity=0 time=0@note_on channel=0 note=72 velocity=96 time=0.00078125@note_on channel=1 note=72 velocity=96 time=0@note_on channel=2 note=84 velocity=96 time=0@note_on channel=9 note=38 velocity=80 time=0@note_on channel=9 note=42 velocity=16 time=0@note_on channel=0 note=72 velocity=0 time=0.08828125@note_on channel=1 note=72 velocity=0 time=0.004687500000000001@note_on channel=2 note=84 velocity=0 time=0@note_on channel=9 note=38 velocity=0 time=0@note_on channel=0 note=68 velocity=96 time=0.00078125@note_on channel=1 note=68 velocity=96 time=0@note_on channel=2 note=80 velocity=96 time=0@note_on channel=0 note=68 velocity=0 time=0.08828125@note_on channel=1 note=68 velocity=0 time=0.004687500000000001@note_on channel=2 note=80 velocity=0 time=0@note_on channel=0 note=65 velocity=96 time=0.00078125@note_on channel=1 note=65 velocity=96 time=0@note_on channel=2 note=77 velocity=96 time=0@note_on channel=0 note=65 velocity=0 time=0.08828125@note_on channel=1 note=65 velocity=0 time=0.004687500000000001@note_on channel=1 note=53 velocity=0 time=0@note_on channel=2 note=77 velocity=0 time=0@note_on channel=3 note=60 velocity=0 time=0@note_on channel=4 note=60 velocity=0 time=0@note_on channel=5 note=65 velocity=0 time=0@note_on channel=6 note=56 velocity=0 time=0@note_on channel=7 note=53 velocity=0 time=0@note_on channel=8 note=65 velocity=0 time=0@note_on channel=10 note=65 velocity=0 time=0@note_on channel=14 note=41 velocity=0 time=0@note_on channel=0 note=53 velocity=0 time=0@note_on channel=9 note=35 velocity=0 time=0@note_on channel=9 note=42 velocity=0 time=0@note_on channel=1 note=77 velocity=0 time=0@note_on channel=4 note=56 velocity=0 time=0@note_on channel=7 note=60 velocity=0 time=0@note_on channel=0 note=77 velocity=96 time=0.00078125@note_on channel=1 note=77 velocity=96 time=0@note_on channel=1 note=53 velocity=96 time=0@note_on channel=2 note=89 velocity=96 time=0@note_on channel=3 note=60 velocity=112 time=0@note_on channel=4 note=60 velocity=112 time=0@note_on channel=7 note=53 velocity=96 time=0@note_on channel=8 note=72 velocity=96 time=0@note_on channel=10 note=72 velocity=96 time=0@note_on channel=14 note=41 velocity=96 time=0@note_on channel=0 note=53 velocity=96 time=0@note_on channel=9 note=42 velocity=16 time=0@note_on channel=9 note=57 velocity=112 time=0@note_on channel=1 note=77 velocity=126 time=0@note_on channel=7 note=60 velocity=112 time=0@note_on channel=11 note=41 velocity=96 time=0@note_on channel=0 note=77 velocity=0 time=0.08828125@note_on channel=1 note=77 velocity=0 time=0.004687500000000001@note_on channel=2 note=89 velocity=0 time=0@note_on channel=0 note=72 velocity=96 time=0.00078125@note_on channel=1 note=72 velocity=96 time=0@note_on channel=2 note=84 velocity=96 time=0@note_on channel=0 note=72 velocity=0 time=0.08828125@note_on channel=1 note=72 velocity=0 time=0.004687500000000001@note_on channel=2 note=84 velocity=0 time=0@note_on channel=9 note=42 velocity=0 time=0@note_on channel=0 note=68 velocity=96 time=0.00078125@note_on channel=1 note=68 velocity=96 time=0@note_on channel=2 note=80 velocity=96 time=0@note_on channel=9 note=42 velocity=16 time=0@note_on channel=0 note=68 velocity=0 time=0.08828125@note_on channel=1 note=68 velocity=0 time=0.004687500000000001@note_on channel=2 note=80 velocity=0 time=0@note_on channel=0 note=65 velocity=96 time=0.00078125@note_on channel=1 note=65 velocity=96 time=0@note_on channel=2 note=77 velocity=96 time=0@note_on channel=0 note=65 velocity=0 time=0.08828125@note_on channel=1 note=65 velocity=0 time=0.004687500000000001@note_on channel=2 note=77 velocity=0 time=0@note_on channel=9 note=42 velocity=0 time=0@note_on channel=9 note=57 velocity=0 time=0@note_on channel=0 note=77 velocity=96 time=0.00078125@note_on channel=1 note=77 velocity=96 time=0@note_on channel=2 note=89 velocity=96 time=0@note_on channel=9 note=38 velocity=80 time=0@note_on channel=9 note=35 velocity=80 time=0@note_on channel=9 note=42 velocity=16 time=0@note_on channel=0 note=77 velocity=0 time=0.08828125@note_on channel=1 note=77 velocity=0 time=0.004687500000000001@note_on channel=2 note=89 velocity=0 time=0@note_on channel=0 note=72 velocity=96 time=0.00078125@note_on channel=1 note=72 velocity=96 time=0@note_on channel=2 note=84 velocity=96 time=0@note_on channel=0 note=72 velocity=0 time=0.08828125@note_on channel=1 note=72 velocity=0 time=0.004687500000000001@note_on channel=2 note=84 velocity=0 time=0@note_on channel=9 note=42 velocity=0 time=0@note_on channel=0 note=68 velocity=96 time=0.00078125@note_on channel=1 note=68 velocity=96 time=0@note_on channel=2 note=80 velocity=96 time=0@note_on channel=9 note=42 velocity=16 time=0@note_on channel=0 note=68 velocity=0 time=0.08828125@note_on channel=1 note=68 velocity=0 time=0.004687500000000001@note_on channel=2 note=80 velocity=0 time=0@note_on channel=9 note=42 velocity=0 time=0@note_on channel=0 note=65 velocity=96 time=0.00078125@note_on channel=1 note=65 velocity=96 time=0@note_on channel=2 note=77 velocity=96 time=0@note_on channel=9 note=42 velocity=16 time=0@note_on channel=0 note=65 velocity=0 time=0.08828125@note_on channel=1 note=65 velocity=0 time=0.004687500000000001@note_on channel=2 note=77 velocity=0 time=0@note_on channel=9 note=38 velocity=0 time=0@note_on channel=9 note=35 velocity=0 time=0@note_on channel=9 note=42 velocity=0 time=0@note_on channel=0 note=77 velocity=96 time=0.00078125@note_on channel=1 note=77 velocity=96 time=0@note_on channel=2 note=89 velocity=96 time=0@note_on channel=9 note=42 velocity=16 time=0@note_on channel=0 note=77 velocity=0 time=0.08828125@note_on channel=1 note=77 velocity=0 time=0.004687500000000001@note_on channel=2 note=89 velocity=0 time=0@note_on channel=0 note=72 velocity=96 time=0.00078125@note_on channel=1 note=72 velocity=96 time=0@note_on channel=2 note=84 velocity=96 time=0@note_on channel=0 note=72 velocity=0 time=0.08828125@note_on channel=1 note=72 velocity=0 time=0.004687500000000001@note_on channel=2 note=84 velocity=0 time=0@note_on channel=9 note=42 velocity=0 time=0@note_on channel=0 note=68 velocity=96 time=0.00078125@note_on channel=1 note=68 velocity=96 time=0@note_on channel=2 note=80 velocity=96 time=0@note_on channel=9 note=42 velocity=16 time=0@note_on channel=0 note=68 velocity=0 time=0.08828125@note_on channel=1 note=68 velocity=0 time=0.004687500000000001@note_on channel=2 note=80 velocity=0 time=0@note_on channel=0 note=65 velocity=96 time=0.00078125@note_on channel=1 note=65 velocity=96 time=0@note_on channel=2 note=77 velocity=96 time=0@note_on channel=0 note=65 velocity=0 time=0.08828125@note_on channel=1 note=65 velocity=0 time=0.004687500000000001@note_on channel=1 note=53 velocity=0 time=0@note_on channel=2 note=77 velocity=0 time=0@note_on channel=7 note=53 velocity=0 time=0@note_on channel=14 note=41 velocity=0 time=0@note_on channel=0 note=53 velocity=0 time=0@note_on channel=9 note=42 velocity=0 time=0@note_on channel=1 note=77 velocity=0 time=0@note_on channel=11 note=41 velocity=0 time=0@note_on channel=0 note=77 velocity=96 time=0.00078125@note_on channel=1 note=77 velocity=96 time=0@note_on channel=1 note=56 velocity=96 time=0@note_on channel=2 note=89 velocity=96 time=0@note_on channel=7 note=56 velocity=96 time=0@note_on channel=14 note=44 velocity=96 time=0@note_on channel=0 note=56 velocity=96 time=0@note_on channel=9 note=38 velocity=80 time=0@note_on channel=9 note=35 velocity=80 time=0@note_on channel=9 note=42 velocity=16 time=0@note_on channel=1 note=84 velocity=126 time=0@note_on channel=11 note=44 velocity=96 time=0@note_on channel=0 note=77 velocity=0 time=0.08828125@note_on channel=1 note=77 velocity=0 time=0.004687500000000001@note_on channel=2 note=89 velocity=0 time=0@note_on channel=9 note=38 velocity=0 time=0@note_on channel=9 note=42 velocity=0 time=0@note_on channel=0 note=72 velocity=96 time=0.00078125@note_on channel=1 note=72 velocity=96 time=0@note_on channel=2 note=84 velocity=96 time=0@note_on channel=9 note=38 velocity=80 time=0@note_on channel=9 note=42 velocity=16 time=0@note_on channel=0 note=72 velocity=0 time=0.08828125@note_on channel=1 note=72 velocity=0 time=0.004687500000000001@note_on channel=2 note=84 velocity=0 time=0@note_on channel=9 note=38 velocity=0 time=0@note_on channel=0 note=68 velocity=96 time=0.00078125@note_on channel=1 note=68 velocity=96 time=0@note_on channel=2 note=80 velocity=96 time=0@note_on channel=0 note=68 velocity=0 time=0.08828125@note_on channel=1 note=68 velocity=0 time=0.004687500000000001@note_on channel=2 note=80 velocity=0 time=0@note_on channel=0 note=65 velocity=96 time=0.00078125@note_on channel=1 note=65 velocity=96 time=0@note_on channel=2 note=77 velocity=96 time=0@note_on channel=0 note=65 velocity=0 time=0.08828125@note_on channel=1 note=65 velocity=0 time=0.004687500000000001@note_on channel=1 note=56 velocity=0 time=0@note_on channel=2 note=77 velocity=0 time=0@note_on channel=7 note=56 velocity=0 time=0@note_on channel=8 note=72 velocity=0 time=0@note_on channel=10 note=72 velocity=0 time=0@note_on channel=14 note=44 velocity=0 time=0@note_on channel=0 note=56 velocity=0 time=0@note_on channel=9 note=35 velocity=0 time=0@note_on channel=9 note=42 velocity=0 time=0@note_on channel=1 note=84 velocity=0 time=0@note_on channel=11 note=44 velocity=0 time=0@note_on channel=0 note=77 velocity=96 time=0.00078125@note_on channel=1 note=77 velocity=96 time=0@note_on channel=1 note=53 velocity=96 time=0@note_on channel=2 note=89 velocity=96 time=0@note_on channel=7 note=53 velocity=96 time=0@note_on channel=8 note=72 velocity=96 time=0@note_on channel=10 note=72 velocity=96 time=0@note_on channel=14 note=41 velocity=96 time=0@note_on channel=0 note=53 velocity=96 time=0@note_on channel=9 note=42 velocity=16 time=0@note_on channel=1 note=85 velocity=126 time=0@note_on channel=11 note=41 velocity=96 time=0@note_on channel=0 note=77 velocity=0 time=0.08828125@note_on channel=1 note=77 velocity=0 time=0.004687500000000001@note_on channel=2 note=89 velocity=0 time=0@note_on channel=0 note=72 velocity=96 time=0.00078125@note_on channel=1 note=72 velocity=96 time=0@note_on channel=2 note=84 velocity=96 time=0@note_on channel=0 note=72 velocity=0 time=0.08828125@note_on channel=1 note=72 velocity=0 time=0.004687500000000001@note_on channel=2 note=84 velocity=0 time=0@note_on channel=9 note=42 velocity=0 time=0@note_on channel=0 note=68 velocity=96 time=0.00078125@note_on channel=1 note=68 velocity=96 time=0@note_on channel=2 note=80 velocity=96 time=0@note_on channel=9 note=42 velocity=16 time=0@note_on channel=0 note=68 velocity=0 time=0.08828125@note_on channel=1 note=68 velocity=0 time=0.004687500000000001@note_on channel=2 note=80 velocity=0 time=0@note_on channel=0 note=65 velocity=96 time=0.00078125@note_on channel=1 note=65 velocity=96 time=0@note_on channel=2 note=77 velocity=96 time=0@note_on channel=0 note=65 velocity=0 time=0.08828125@note_on channel=1 note=65 velocity=0 time=0.004687500000000001@note_on channel=2 note=77 velocity=0 time=0@note_on channel=9 note=42 velocity=0 time=0@note_on channel=0 note=77 velocity=96 time=0.00078125@note_on channel=1 note=77 velocity=96 time=0@note_on channel=2 note=89 velocity=96 time=0@note_on channel=9 note=38 velocity=80 time=0@note_on channel=9 note=35 velocity=80 time=0@note_on channel=9 note=42 velocity=16 time=0@note_on channel=0 note=77 velocity=0 time=0.08828125@note_on channel=1 note=77 velocity=0 time=0.004687500000000001@note_on channel=2 note=89 velocity=0 time=0@note_on channel=0 note=72 velocity=96 time=0.00078125@note_on channel=1 note=72 velocity=96 time=0@note_on channel=2 note=84 velocity=96 time=0@note_on channel=0 note=72 velocity=0 time=0.08828125@note_on channel=1 note=72 velocity=0 time=0.004687500000000001@note_on channel=2 note=84 velocity=0 time=0@note_on channel=9 note=42 velocity=0 time=0@note_on channel=0 note=68 velocity=96 time=0.00078125@note_on channel=1 note=68 velocity=96 time=0@note_on channel=2 note=80 velocity=96 time=0@note_on channel=9 note=42 velocity=16 time=0@note_on channel=0 note=68 velocity=0 time=0.08828125@note_on channel=1 note=68 velocity=0 time=0.004687500000000001@note_on channel=2 note=80 velocity=0 time=0@note_on channel=9 note=42 velocity=0 time=0@note_on channel=0 note=65 velocity=96 time=0.00078125@note_on channel=1 note=65 velocity=96 time=0@note_on channel=2 note=77 velocity=96 time=0@note_on channel=9 note=42 velocity=16 time=0@note_on channel=0 note=65 velocity=0 time=0.08828125@note_on channel=1 note=65 velocity=0 time=0.004687500000000001@note_on channel=1 note=53 velocity=0 time=0@note_on channel=2 note=77 velocity=0 time=0@note_on channel=7 note=53 velocity=0 time=0@note_on channel=8 note=72 velocity=0 time=0@note_on channel=10 note=72 velocity=0 time=0@note_on channel=14 note=41 velocity=0 time=0@note_on channel=0 note=53 velocity=0 time=0@note_on channel=9 note=38 velocity=0 time=0@note_on channel=9 note=35 velocity=0 time=0@note_on channel=9 note=42 velocity=0 time=0@note_on channel=1 note=85 velocity=0 time=0@note_on channel=11 note=41 velocity=0 time=0@note_on channel=0 note=77 velocity=96 time=0.00078125@note_on channel=1 note=77 velocity=96 time=0@note_on channel=1 note=56 velocity=96 time=0@note_on channel=2 note=89 velocity=96 time=0@note_on channel=7 note=56 velocity=96 time=0@note_on channel=8 note=73 velocity=96 time=0@note_on channel=10 note=73 velocity=96 time=0@note_on channel=14 note=44 velocity=96 time=0@note_on channel=0 note=56 velocity=96 time=0@note_on channel=9 note=42 velocity=16 time=0@note_on channel=1 note=84 velocity=126 time=0@note_on channel=11 note=44 velocity=96 time=0@note_on channel=0 note=77 velocity=0 time=0.08828125@note_on channel=1 note=77 velocity=0 time=0.004687500000000001@note_on channel=2 note=89 velocity=0 time=0@note_on channel=0 note=72 velocity=96 time=0.00078125@note_on channel=1 note=72 velocity=96 time=0@note_on channel=2 note=84 velocity=96 time=0@note_on channel=0 note=72 velocity=0 time=0.08828125@note_on channel=1 note=72 velocity=0 time=0.004687500000000001@note_on channel=2 note=84 velocity=0 time=0@note_on channel=8 note=73 velocity=0 time=0@note_on channel=10 note=73 velocity=0 time=0@note_on channel=9 note=42 velocity=0 time=0@note_on channel=0 note=68 velocity=96 time=0.00078125@note_on channel=1 note=68 velocity=96 time=0@note_on channel=2 note=80 velocity=96 time=0@note_on channel=8 note=72 velocity=96 time=0@note_on channel=10 note=72 velocity=96 time=0@note_on channel=9 note=42 velocity=16 time=0@note_on channel=0 note=68 velocity=0 time=0.08828125@note_on channel=1 note=68 velocity=0 time=0.004687500000000001@note_on channel=2 note=80 velocity=0 time=0@note_on channel=0 note=65 velocity=96 time=0.00078125@note_on channel=1 note=65 velocity=96 time=0@note_on channel=2 note=77 velocity=96 time=0@note_on channel=0 note=65 velocity=0 time=0.08828125@note_on channel=1 note=65 velocity=0 time=0.004687500000000001@note_on channel=2 note=77 velocity=0 time=0@note_on channel=3 note=60 velocity=0 time=0@note_on channel=4 note=60 velocity=0 time=0@note_on channel=8 note=72 velocity=0 time=0@note_on channel=10 note=72 velocity=0 time=0@note_on channel=9 note=42 velocity=0 time=0@note_on channel=7 note=60 velocity=0 time=0@note_on channel=0 note=77 velocity=96 time=0.00078125@note_on channel=1 note=77 velocity=96 time=0@note_on channel=2 note=89 velocity=96 time=0@note_on channel=3 note=58 velocity=112 time=0@note_on channel=4 note=58 velocity=112 time=0@note_on channel=8 note=70 velocity=96 time=0@note_on channel=10 note=70 velocity=96 time=0@note_on channel=9 note=38 velocity=80 time=0@note_on channel=9 note=35 velocity=80 time=0@note_on channel=9 note=42 velocity=16 time=0@note_on channel=7 note=58 velocity=112 time=0@note_on channel=0 note=77 velocity=0 time=0.08828125@note_on channel=1 note=77 velocity=0 time=0.004687500000000001@note_on channel=2 note=89 velocity=0 time=0@note_on channel=9 note=38 velocity=0 time=0@note_on channel=9 note=42 velocity=0 time=0@note_on channel=0 note=72 velocity=96 time=0.00078125@note_on channel=1 note=72 velocity=96 time=0@note_on channel=2 note=84 velocity=96 time=0@note_on channel=9 note=38 velocity=80 time=0@note_on channel=9 note=42 velocity=16 time=0@note_on channel=0 note=72 velocity=0 time=0.08828125@note_on channel=1 note=72 velocity=0 time=0.004687500000000001@note_on channel=2 note=84 velocity=0 time=0@note_on channel=3 note=58 velocity=0 time=0@note_on channel=4 note=58 velocity=0 time=0@note_on channel=8 note=70 velocity=0 time=0@note_on channel=10 note=70 velocity=0 time=0@note_on channel=9 note=38 velocity=0 time=0@note_on channel=7 note=58 velocity=0 time=0@note_on channel=0 note=68 velocity=96 time=0.00078125@note_on channel=1 note=68 velocity=96 time=0@note_on channel=2 note=80 velocity=96 time=0@note_on channel=3 note=56 velocity=112 time=0@note_on channel=4 note=56 velocity=112 time=0@note_on channel=8 note=68 velocity=96 time=0@note_on channel=10 note=68 velocity=96 time=0@note_on channel=7 note=56 velocity=112 time=0@note_on channel=0 note=68 velocity=0 time=0.08828125@note_on channel=1 note=68 velocity=0 time=0.004687500000000001@note_on channel=2 note=80 velocity=0 time=0@note_on channel=0 note=65 velocity=96 time=0.00078125@note_on channel=1 note=65 velocity=96 time=0@note_on channel=2 note=77 velocity=96 time=0@note_on channel=0 note=65 velocity=0 time=0.08828125@note_on channel=1 note=65 velocity=0 time=0.004687500000000001@note_on channel=1 note=56 velocity=0 time=0@note_on channel=2 note=77 velocity=0 time=0@note_on channel=3 note=56 velocity=0 time=0@note_on channel=4 note=56 velocity=0 time=0@note_on channel=7 note=56 velocity=0 time=0@note_on channel=8 note=68 velocity=0 time=0@note_on channel=10 note=68 velocity=0 time=0@note_on channel=14 note=44 velocity=0 time=0@note_on channel=0 note=56 velocity=0 time=0@note_on channel=9 note=35 velocity=0 time=0@note_on channel=9 note=42 velocity=0 time=0@note_on channel=1 note=84 velocity=0 time=0@note_on channel=7 note=56 velocity=0 time=0@note_on channel=11 note=44 velocity=0 time=0@note_on channel=0 note=79 velocity=96 time=0.00078125@note_on channel=1 note=79 velocity=96 time=0@note_on channel=1 note=55 velocity=96 time=0@note_on channel=2 note=91 velocity=96 time=0@note_on channel=3 note=55 velocity=112 time=0@note_on channel=4 note=55 velocity=112 time=0@note_on channel=7 note=55 velocity=96 time=0@note_on channel=8 note=67 velocity=96 time=0@note_on channel=10 note=67 velocity=96 time=0@note_on channel=14 note=43 velocity=96 time=0@note_on channel=0 note=55 velocity=96 time=0@note_on channel=9 note=42 velocity=16 time=0@note_on channel=1 note=79 velocity=126 time=0@note_on channel=7 note=55 velocity=112 time=0@note_on channel=11 note=36 velocity=96 time=0@note_on channel=0 note=79 velocity=0 time=0.08828125@note_on channel=1 note=79 velocity=0 time=0.004687500000000001@note_on channel=2 note=91 velocity=0 time=0@note_on channel=0 note=73 velocity=96 time=0.00078125@note_on channel=1 note=73 velocity=96 time=0@note_on channel=2 note=85 velocity=96 time=0@note_on channel=0 note=73 velocity=0 time=0.08828125@note_on channel=1 note=73 velocity=0 time=0.004687500000000001@note_on channel=2 note=85 velocity=0 time=0@note_on channel=9 note=42 velocity=0 time=0@note_on channel=0 note=70 velocity=96 time=0.00078125@note_on channel=1 note=70 velocity=96 time=0@note_on channel=2 note=82 velocity=96 time=0@note_on channel=9 note=42 velocity=16 time=0@note_on channel=0 note=70 velocity=0 time=0.08828125@note_on channel=1 note=70 velocity=0 time=0.004687500000000001@note_on channel=2 note=82 velocity=0 time=0@note_on channel=0 note=67 velocity=96 time=0.00078125@note_on channel=1 note=67 velocity=96 time=0@note_on channel=2 note=79 velocity=96 time=0@note_on channel=0 note=67 velocity=0 time=0.08828125@note_on channel=1 note=67 velocity=0 time=0.004687500000000001@note_on channel=2 note=79 velocity=0 time=0@note_on channel=9 note=42 velocity=0 time=0@note_on channel=0 note=79 velocity=96 time=0.00078125@note_on channel=1 note=79 velocity=96 time=0@note_on channel=2 note=91 velocity=96 time=0@note_on channel=9 note=38 velocity=80 time=0@note_on channel=9 note=35 velocity=80 time=0@note_on channel=9 note=42 velocity=16 time=0@note_on channel=0 note=79 velocity=0 time=0.08828125@note_on channel=1 note=79 velocity=0 time=0.004687500000000001@note_on channel=2 note=91 velocity=0 time=0@note_on channel=0 note=73 velocity=96 time=0.00078125@note_on channel=1 note=73 velocity=96 time=0@note_on channel=2 note=85 velocity=96 time=0@note_on channel=0 note=73 velocity=0 time=0.08828125@note_on channel=1 note=73 velocity=0 time=0.004687500000000001@note_on channel=2 note=85 velocity=0 time=0@note_on channel=9 note=42 velocity=0 time=0@note_on channel=0 note=70 velocity=96 time=0.00078125@note_on channel=1 note=70 velocity=96 time=0@note_on channel=2 note=82 velocity=96 time=0@note_on channel=9 note=42 velocity=16 time=0@note_on channel=0 note=70 velocity=0 time=0.08828125@note_on channel=1 note=70 velocity=0 time=0.004687500000000001@note_on channel=2 note=82 velocity=0 time=0@note_on channel=9 note=42 velocity=0 time=0@note_on channel=0 note=67 velocity=96 time=0.00078125@note_on channel=1 note=67 velocity=96 time=0@note_on channel=2 note=79 velocity=96 time=0@note_on channel=9 note=42 velocity=16 time=0@note_on channel=0 note=67 velocity=0 time=0.08828125@note_on channel=1 note=67 velocity=0 time=0.004687500000000001@note_on channel=2 note=79 velocity=0 time=0@note_on channel=9 note=38 velocity=0 time=0@note_on channel=9 note=35 velocity=0 time=0@note_on channel=9 note=42 velocity=0 time=0@note_on channel=0 note=79 velocity=96 time=0.00078125@note_on channel=1 note=79 velocity=96 time=0@note_on channel=2 note=91 velocity=96 time=0@note_on channel=9 note=42 velocity=16 time=0@note_on channel=0 note=79 velocity=0 time=0.08828125@note_on channel=1 note=79 velocity=0 time=0.004687500000000001@note_on channel=2 note=91 velocity=0 time=0@note_on channel=0 note=73 velocity=96 time=0.00078125@note_on channel=1 note=73 velocity=96 time=0@note_on channel=2 note=85 velocity=96 time=0@note_on channel=0 note=73 velocity=0 time=0.08828125@note_on channel=1 note=73 velocity=0 time=0.004687500000000001@note_on channel=2 note=85 velocity=0 time=0@note_on channel=9 note=42 velocity=0 time=0@note_on channel=0 note=70 velocity=96 time=0.00078125@note_on channel=1 note=70 velocity=96 time=0@note_on channel=2 note=82 velocity=96 time=0@note_on channel=9 note=42 velocity=16 time=0@note_on channel=0 note=70 velocity=0 time=0.08828125@note_on channel=1 note=70 velocity=0 time=0.004687500000000001@note_on channel=2 note=82 velocity=0 time=0@note_on channel=0 note=67 velocity=96 time=0.00078125@note_on channel=1 note=67 velocity=96 time=0@note_on channel=2 note=79 velocity=96 time=0@note_on channel=0 note=67 velocity=0 time=0.08828125@note_on channel=1 note=67 velocity=0 time=0.004687500000000001@note_on channel=2 note=79 velocity=0 time=0@note_on channel=3 note=55 velocity=0 time=0@note_on channel=4 note=55 velocity=0 time=0@note_on channel=8 note=67 velocity=0 time=0@note_on channel=10 note=67 velocity=0 time=0@note_on channel=9 note=42 velocity=0 time=0@note_on channel=7 note=55 velocity=0 time=0@note_on channel=0 note=79 velocity=96 time=0.00078125@note_on channel=1 note=79 velocity=96 time=0@note_on channel=2 note=91 velocity=96 time=0@note_on channel=3 note=56 velocity=112 time=0@note_on channel=4 note=56 velocity=112 time=0@note_on channel=8 note=68 velocity=96 time=0@note_on channel=10 note=68 velocity=96 time=0@note_on channel=9 note=38 velocity=80 time=0@note_on channel=9 note=35 velocity=80 time=0@note_on channel=9 note=42 velocity=16 time=0@note_on channel=7 note=56 velocity=112 time=0@note_on channel=0 note=79 velocity=0 time=0.08828125@note_on channel=1 note=79 velocity=0 time=0.004687500000000001@note_on channel=2 note=91 velocity=0 time=0@note_on channel=9 note=38 velocity=0 time=0@note_on channel=9 note=42 velocity=0 time=0@note_on channel=0 note=73 velocity=96 time=0.00078125@note_on channel=1 note=73 velocity=96 time=0@note_on channel=2 note=85 velocity=96 time=0@note_on channel=9 note=38 velocity=80 time=0@note_on channel=9 note=42 velocity=16 time=0@note_on channel=0 note=73 velocity=0 time=0.08828125@note_on channel=1 note=73 velocity=0 time=0.004687500000000001@note_on channel=2 note=85 velocity=0 time=0@note_on channel=9 note=38 velocity=0 time=0@note_on channel=0 note=70 velocity=96 time=0.00078125@note_on channel=1 note=70 velocity=96 time=0@note_on channel=2 note=82 velocity=96 time=0@note_on channel=0 note=70 velocity=0 time=0.08828125@note_on channel=1 note=70 velocity=0 time=0.004687500000000001@note_on channel=2 note=82 velocity=0 time=0@note_on channel=0 note=67 velocity=96 time=0.00078125@note_on channel=1 note=67 velocity=96 time=0@note_on channel=2 note=79 velocity=96 time=0@note_on channel=0 note=67 velocity=0 time=0.08828125@note_on channel=1 note=67 velocity=0 time=0.004687500000000001@note_on channel=1 note=55 velocity=0 time=0@note_on channel=2 note=79 velocity=0 time=0@note_on channel=3 note=56 velocity=0 time=0@note_on channel=4 note=56 velocity=0 time=0@note_on channel=7 note=55 velocity=0 time=0@note_on channel=8 note=68 velocity=0 time=0@note_on channel=10 note=68 velocity=0 time=0@note_on channel=14 note=43 velocity=0 time=0@note_on channel=0 note=55 velocity=0 time=0@note_on channel=9 note=35 velocity=0 time=0@note_on channel=9 note=42 velocity=0 time=0@note_on channel=1 note=79 velocity=0 time=0@note_on channel=7 note=56 velocity=0 time=0@note_on channel=11 note=36 velocity=0 time=0@note_on channel=0 note=79 velocity=96 time=0.00078125@note_on channel=1 note=79 velocity=96 time=0@note_on channel=1 note=48 velocity=96 time=0@note_on channel=2 note=91 velocity=96 time=0@note_on channel=3 note=58 velocity=112 time=0@note_on channel=4 note=58 velocity=112 time=0@note_on channel=7 note=48 velocity=96 time=0@note_on channel=8 note=70 velocity=96 time=0@note_on channel=10 note=70 velocity=96 time=0@note_on channel=14 note=36 velocity=96 time=0@note_on channel=0 note=48 velocity=96 time=0@note_on channel=9 note=42 velocity=16 time=0@note_on channel=1 note=82 velocity=126 time=0@note_on channel=7 note=58 velocity=112 time=0@note_on channel=11 note=36 velocity=96 time=0@note_on channel=0 note=79 velocity=0 time=0.08828125@note_on channel=1 note=79 velocity=0 time=0.004687500000000001@note_on channel=2 note=91 velocity=0 time=0@note_on channel=0 note=73 velocity=96 time=0.00078125@note_on channel=1 note=73 velocity=96 time=0@note_on channel=2 note=85 velocity=96 time=0@note_on channel=0 note=73 velocity=0 time=0.08828125@note_on channel=1 note=73 velocity=0 time=0.004687500000000001@note_on channel=2 note=85 velocity=0 time=0@note_on channel=9 note=42 velocity=0 time=0@note_on channel=0 note=70 velocity=96 time=0.00078125@note_on channel=1 note=70 velocity=96 time=0@note_on channel=2 note=82 velocity=96 time=0@note_on channel=9 note=42 velocity=16 time=0@note_on channel=0 note=70 velocity=0 time=0.08828125@note_on channel=1 note=70 velocity=0 time=0.004687500000000001@note_on channel=2 note=82 velocity=0 time=0@note_on channel=0 note=67 velocity=96 time=0.00078125@note_on channel=1 note=67 velocity=96 time=0@note_on channel=2 note=79 velocity=96 time=0@note_on channel=0 note=67 velocity=0 time=0.08828125@note_on channel=1 note=67 velocity=0 time=0.004687500000000001@note_on channel=2 note=79 velocity=0 time=0@note_on channel=9 note=42 velocity=0 time=0@note_on channel=0 note=79 velocity=96 time=0.00078125@note_on channel=1 note=79 velocity=96 time=0@note_on channel=2 note=91 velocity=96 time=0@note_on channel=9 note=38 velocity=80 time=0@note_on channel=9 note=35 velocity=80 time=0@note_on channel=9 note=42 velocity=16 time=0@note_on channel=0 note=79 velocity=0 time=0.08828125@note_on channel=1 note=79 velocity=0 time=0.004687500000000001@note_on channel=2 note=91 velocity=0 time=0@note_on channel=0 note=73 velocity=96 time=0.00078125@note_on channel=1 note=73 velocity=96 time=0@note_on channel=2 note=85 velocity=96 time=0@note_on channel=0 note=73 velocity=0 time=0.08828125@note_on channel=1 note=73 velocity=0 time=0.004687500000000001@note_on channel=2 note=85 velocity=0 time=0@note_on channel=9 note=42 velocity=0 time=0@note_on channel=0 note=70 velocity=96 time=0.00078125@note_on channel=1 note=70 velocity=96 time=0@note_on channel=2 note=82 velocity=96 time=0@note_on channel=9 note=42 velocity=16 time=0@note_on channel=0 note=70 velocity=0 time=0.08828125@note_on channel=1 note=70 velocity=0 time=0.004687500000000001@note_on channel=2 note=82 velocity=0 time=0@note_on channel=9 note=42 velocity=0 time=0@note_on channel=0 note=67 velocity=96 time=0.00078125@note_on channel=1 note=67 velocity=96 time=0@note_on channel=2 note=79 velocity=96 time=0@note_on channel=9 note=42 velocity=16 time=0@note_on channel=0 note=67 velocity=0 time=0.08828125@note_on channel=1 note=67 velocity=0 time=0.004687500000000001@note_on channel=2 note=79 velocity=0 time=0@note_on channel=9 note=38 velocity=0 time=0@note_on channel=9 note=35 velocity=0 time=0@note_on channel=9 note=42 velocity=0 time=0@note_on channel=1 note=82 velocity=0 time=0@note_on channel=0 note=79 velocity=96 time=0.00078125@note_on channel=1 note=79 velocity=96 time=0@note_on channel=2 note=91 velocity=96 time=0@note_on channel=9 note=42 velocity=16 time=0@note_on channel=1 note=84 velocity=126 time=0@note_on channel=0 note=79 velocity=0 time=0.08828125@note_on channel=1 note=79 velocity=0 time=0.004687500000000001@note_on channel=2 note=91 velocity=0 time=0@note_on channel=0 note=73 velocity=96 time=0.00078125@note_on channel=1 note=73 velocity=96 time=0@note_on channel=2 note=85 velocity=96 time=0@note_on channel=0 note=73 velocity=0 time=0.08828125@note_on channel=1 note=73 velocity=0 time=0.004687500000000001@note_on channel=2 note=85 velocity=0 time=0@note_on channel=9 note=42 velocity=0 time=0@note_on channel=0 note=70 velocity=96 time=0.00078125@note_on channel=1 note=70 velocity=96 time=0@note_on channel=2 note=82 velocity=96 time=0@note_on channel=9 note=42 velocity=16 time=0@note_on channel=0 note=70 velocity=0 time=0.08828125@note_on channel=1 note=70 velocity=0 time=0.004687500000000001@note_on channel=2 note=82 velocity=0 time=0@note_on channel=0 note=67 velocity=96 time=0.00078125@note_on channel=1 note=67 velocity=96 time=0@note_on channel=2 note=79 velocity=96 time=0@note_on channel=0 note=67 velocity=0 time=0.08828125@note_on channel=1 note=67 velocity=0 time=0.004687500000000001@note_on channel=2 note=79 velocity=0 time=0@note_on channel=9 note=42 velocity=0 time=0@note_on channel=0 note=79 velocity=96 time=0.00078125@note_on channel=1 note=79 velocity=96 time=0@note_on channel=2 note=91 velocity=96 time=0@note_on channel=9 note=38 velocity=80 time=0@note_on channel=9 note=35 velocity=80 time=0@note_on channel=9 note=42 velocity=16 time=0@note_on channel=0 note=79 velocity=0 time=0.08828125@note_on channel=1 note=79 velocity=0 time=0.004687500000000001@note_on channel=2 note=91 velocity=0 time=0@note_on channel=9 note=38 velocity=0 time=0@note_on channel=9 note=42 velocity=0 time=0@note_on channel=0 note=73 velocity=96 time=0.00078125@note_on channel=1 note=73 velocity=96 time=0@note_on channel=2 note=85 velocity=96 time=0@note_on channel=9 note=38 velocity=80 time=0@note_on channel=9 note=42 velocity=16 time=0@note_on channel=0 note=73 velocity=0 time=0.08828125@note_on channel=1 note=73 velocity=0 time=0.004687500000000001@note_on channel=2 note=85 velocity=0 time=0@note_on channel=9 note=38 velocity=0 time=0@note_on channel=0 note=70 velocity=96 time=0.00078125@note_on channel=1 note=70 velocity=96 time=0@note_on channel=2 note=82 velocity=96 time=0@note_on channel=0 note=70 velocity=0 time=0.08828125@note_on channel=1 note=70 velocity=0 time=0.004687500000000001@note_on channel=2 note=82 velocity=0 time=0@note_on channel=0 note=67 velocity=96 time=0.00078125@note_on channel=1 note=67 velocity=96 time=0@note_on channel=2 note=79 velocity=96 time=0@note_on channel=0 note=67 velocity=0 time=0.08828125@note_on channel=1 note=67 velocity=0 time=0.004687500000000001@note_on channel=1 note=48 velocity=0 time=0@note_on channel=2 note=79 velocity=0 time=0@note_on channel=3 note=58 velocity=0 time=0@note_on channel=4 note=58 velocity=0 time=0@note_on channel=7 note=48 velocity=0 time=0@note_on channel=8 note=70 velocity=0 time=0@note_on channel=10 note=70 velocity=0 time=0@note_on channel=14 note=36 velocity=0 time=0@note_on channel=0 note=48 velocity=0 time=0@note_on channel=9 note=35 velocity=0 time=0@note_on channel=9 note=42 velocity=0 time=0@note_on channel=1 note=84 velocity=0 time=0@note_on channel=7 note=58 velocity=0 time=0@note_on channel=11 note=36 velocity=0 time=0@note_on channel=0 note=82 velocity=96 time=0.00078125@note_on channel=1 note=82 velocity=96 time=0@note_on channel=1 note=49 velocity=96 time=0@note_on channel=2 note=94 velocity=96 time=0@note_on channel=3 note=58 velocity=112 time=0@note_on channel=4 note=58 velocity=112 time=0@note_on channel=7 note=49 velocity=96 time=0@note_on channel=8 note=70 velocity=96 time=0@note_on channel=10 note=70 velocity=96 time=0@note_on channel=14 note=37 velocity=96 time=0@note_on channel=0 note=49 velocity=96 time=0@note_on channel=9 note=42 velocity=16 time=0@note_on channel=1 note=85 velocity=126 time=0@note_on channel=7 note=58 velocity=112 time=0@note_on channel=11 note=41 velocity=96 time=0@note_on channel=0 note=82 velocity=0 time=0.08828125@note_on channel=1 note=82 velocity=0 time=0.004687500000000001@note_on channel=2 note=94 velocity=0 time=0@note_on channel=0 note=77 velocity=96 time=0.00078125@note_on channel=1 note=77 velocity=96 time=0@note_on channel=2 note=89 velocity=96 time=0@note_on channel=0 note=77 velocity=0 time=0.08828125@note_on channel=1 note=77 velocity=0 time=0.004687500000000001@note_on channel=2 note=89 velocity=0 time=0@note_on channel=9 note=42 velocity=0 time=0@note_on channel=0 note=73 velocity=96 time=0.00078125@note_on channel=1 note=73 velocity=96 time=0@note_on channel=2 note=85 velocity=96 time=0@note_on channel=9 note=42 velocity=16 time=0@note_on channel=0 note=73 velocity=0 time=0.08828125@note_on channel=1 note=73 velocity=0 time=0.004687500000000001@note_on channel=2 note=85 velocity=0 time=0@note_on channel=0 note=70 velocity=96 time=0.00078125@note_on channel=1 note=70 velocity=96 time=0@note_on channel=2 note=82 velocity=96 time=0@note_on channel=0 note=70 velocity=0 time=0.08828125@note_on channel=1 note=70 velocity=0 time=0.004687500000000001@note_on channel=2 note=82 velocity=0 time=0@note_on channel=9 note=42 velocity=0 time=0@note_on channel=0 note=82 velocity=96 time=0.00078125@note_on channel=1 note=82 velocity=96 time=0@note_on channel=2 note=94 velocity=96 time=0@note_on channel=9 note=38 velocity=80 time=0@note_on channel=9 note=35 velocity=80 time=0@note_on channel=9 note=42 velocity=16 time=0@note_on channel=0 note=82 velocity=0 time=0.08828125@note_on channel=1 note=82 velocity=0 time=0.004687500000000001@note_on channel=2 note=94 velocity=0 time=0@note_on channel=0 note=77 velocity=96 time=0.00078125@note_on channel=1 note=77 velocity=96 time=0@note_on channel=2 note=89 velocity=96 time=0@note_on channel=0 note=77 velocity=0 time=0.08828125@note_on channel=1 note=77 velocity=0 time=0.004687500000000001@note_on channel=2 note=89 velocity=0 time=0@note_on channel=9 note=42 velocity=0 time=0@note_on channel=0 note=73 velocity=96 time=0.00078125@note_on channel=1 note=73 velocity=96 time=0@note_on channel=2 note=85 velocity=96 time=0@note_on channel=9 note=42 velocity=16 time=0@note_on channel=0 note=73 velocity=0 time=0.08828125@note_on channel=1 note=73 velocity=0 time=0.004687500000000001@note_on channel=2 note=85 velocity=0 time=0@note_on channel=9 note=42 velocity=0 time=0@note_on channel=0 note=70 velocity=96 time=0.00078125@note_on channel=1 note=70 velocity=96 time=0@note_on channel=2 note=82 velocity=96 time=0@note_on channel=9 note=42 velocity=16 time=0@note_on channel=0 note=70 velocity=0 time=0.08828125@note_on channel=1 note=70 velocity=0 time=0.004687500000000001@note_on channel=2 note=82 velocity=0 time=0@note_on channel=9 note=38 velocity=0 time=0@note_on channel=9 note=35 velocity=0 time=0@note_on channel=9 note=42 velocity=0 time=0@note_on channel=0 note=82 velocity=96 time=0.00078125@note_on channel=1 note=82 velocity=96 time=0@note_on channel=2 note=94 velocity=96 time=0@note_on channel=9 note=42 velocity=16 time=0@note_on channel=0 note=82 velocity=0 time=0.08828125@note_on channel=1 note=82 velocity=0 time=0.004687500000000001@note_on channel=2 note=94 velocity=0 time=0@note_on channel=0 note=77 velocity=96 time=0.00078125@note_on channel=1 note=77 velocity=96 time=0@note_on channel=2 note=89 velocity=96 time=0@note_on channel=0 note=77 velocity=0 time=0.08828125@note_on channel=1 note=77 velocity=0 time=0.004687500000000001@note_on channel=2 note=89 velocity=0 time=0@note_on channel=9 note=42 velocity=0 time=0@note_on channel=0 note=73 velocity=96 time=0.00078125@note_on channel=1 note=73 velocity=96 time=0@note_on channel=2 note=85 velocity=96 time=0@note_on channel=9 note=42 velocity=16 time=0@note_on channel=0 note=73 velocity=0 time=0.08828125@note_on channel=1 note=73 velocity=0 time=0.004687500000000001@note_on channel=2 note=85 velocity=0 time=0@note_on channel=0 note=70 velocity=96 time=0.00078125@note_on channel=1 note=70 velocity=96 time=0@note_on channel=2 note=82 velocity=96 time=0@note_on channel=0 note=70 velocity=0 time=0.08828125@note_on channel=1 note=70 velocity=0 time=0.004687500000000001@note_on channel=2 note=82 velocity=0 time=0@note_on channel=3 note=58 velocity=0 time=0@note_on channel=4 note=58 velocity=0 time=0@note_on channel=8 note=70 velocity=0 time=0@note_on channel=10 note=70 velocity=0 time=0@note_on channel=9 note=42 velocity=0 time=0@note_on channel=1 note=85 velocity=0 time=0@note_on channel=7 note=58 velocity=0 time=0@note_on channel=0 note=82 velocity=96 time=0.00078125@note_on channel=1 note=82 velocity=96 time=0@note_on channel=2 note=94 velocity=96 time=0@note_on channel=3 note=60 velocity=112 time=0@note_on channel=4 note=60 velocity=112 time=0@note_on channel=8 note=72 velocity=96 time=0@note_on channel=10 note=72 velocity=96 time=0@note_on channel=9 note=38 velocity=80 time=0@note_on channel=9 note=35 velocity=80 time=0@note_on channel=9 note=42 velocity=16 time=0@note_on channel=1 note=89 velocity=126 time=0@note_on channel=7 note=60 velocity=112 time=0@note_on channel=0 note=82 velocity=0 time=0.08828125@note_on channel=1 note=82 velocity=0 time=0.004687500000000001@note_on channel=2 note=94 velocity=0 time=0@note_on channel=9 note=38 velocity=0 time=0@note_on channel=9 note=42 velocity=0 time=0@note_on channel=0 note=77 velocity=96 time=0.00078125@note_on channel=1 note=77 velocity=96 time=0@note_on channel=2 note=89 velocity=96 time=0@note_on channel=9 note=38 velocity=80 time=0@note_on channel=9 note=42 velocity=16 time=0@note_on channel=0 note=77 velocity=0 time=0.08828125@note_on channel=1 note=77 velocity=0 time=0.004687500000000001@note_on channel=2 note=89 velocity=0 time=0@note_on channel=9 note=38 velocity=0 time=0@note_on channel=0 note=73 velocity=96 time=0.00078125@note_on channel=1 note=73 velocity=96 time=0@note_on channel=2 note=85 velocity=96 time=0@note_on channel=0 note=73 velocity=0 time=0.08828125@note_on channel=1 note=73 velocity=0 time=0.004687500000000001@note_on channel=2 note=85 velocity=0 time=0@note_on channel=0 note=70 velocity=96 time=0.00078125@note_on channel=1 note=70 velocity=96 time=0@note_on channel=2 note=82 velocity=96 time=0@note_on channel=0 note=70 velocity=0 time=0.08828125@note_on channel=1 note=70 velocity=0 time=0.004687500000000001@note_on channel=1 note=49 velocity=0 time=0@note_on channel=2 note=82 velocity=0 time=0@note_on channel=3 note=60 velocity=0 time=0@note_on channel=4 note=60 velocity=0 time=0@note_on channel=7 note=49 velocity=0 time=0@note_on channel=8 note=72 velocity=0 time=0@note_on channel=10 note=72 velocity=0 time=0@note_on channel=14 note=37 velocity=0 time=0@note_on channel=0 note=49 velocity=0 time=0@note_on channel=9 note=35 velocity=0 time=0@note_on channel=9 note=42 velocity=0 time=0@note_on channel=1 note=89 velocity=0 time=0@note_on channel=7 note=60 velocity=0 time=0@note_on channel=11 note=41 velocity=0 time=0@note_on channel=0 note=77 velocity=96 time=0.00078125@note_on channel=1 note=77 velocity=96 time=0@note_on channel=1 note=53 velocity=96 time=0@note_on channel=2 note=89 velocity=96 time=0@note_on channel=3 note=56 velocity=112 time=0@note_on channel=4 note=56 velocity=112 time=0@note_on channel=7 note=53 velocity=96 time=0@note_on channel=8 note=68 velocity=96 time=0@note_on channel=10 note=68 velocity=96 time=0@note_on channel=14 note=41 velocity=96 time=0@note_on channel=0 note=53 velocity=96 time=0@note_on channel=9 note=42 velocity=16 time=0@note_on channel=1 note=84 velocity=126 time=0@note_on channel=7 note=56 velocity=112 time=0@note_on channel=11 note=41 velocity=96 time=0@note_on channel=0 note=77 velocity=0 time=0.08828125@note_on channel=1 note=77 velocity=0 time=0.004687500000000001@note_on channel=2 note=89 velocity=0 time=0@note_on channel=0 note=72 velocity=96 time=0.00078125@note_on channel=1 note=72 velocity=96 time=0@note_on channel=2 note=84 velocity=96 time=0@note_on channel=0 note=72 velocity=0 time=0.08828125@note_on channel=1 note=72 velocity=0 time=0.004687500000000001@note_on channel=2 note=84 velocity=0 time=0@note_on channel=9 note=42 velocity=0 time=0@note_on channel=0 note=68 velocity=96 time=0.00078125@note_on channel=1 note=68 velocity=96 time=0@note_on channel=2 note=80 velocity=96 time=0@note_on channel=9 note=42 velocity=16 time=0@note_on channel=0 note=68 velocity=0 time=0.08828125@note_on channel=1 note=68 velocity=0 time=0.004687500000000001@note_on channel=2 note=80 velocity=0 time=0@note_on channel=0 note=65 velocity=96 time=0.00078125@note_on channel=1 note=65 velocity=96 time=0@note_on channel=2 note=77 velocity=96 time=0@note_on channel=0 note=65 velocity=0 time=0.08828125@note_on channel=1 note=65 velocity=0 time=0.004687500000000001@note_on channel=2 note=77 velocity=0 time=0@note_on channel=9 note=42 velocity=0 time=0@note_on channel=0 note=77 velocity=96 time=0.00078125@note_on channel=1 note=77 velocity=96 time=0@note_on channel=2 note=89 velocity=96 time=0@note_on channel=9 note=38 velocity=80 time=0@note_on channel=9 note=35 velocity=80 time=0@note_on channel=9 note=42 velocity=16 time=0@note_on channel=0 note=77 velocity=0 time=0.08828125@note_on channel=1 note=77 velocity=0 time=0.004687500000000001@note_on channel=2 note=89 velocity=0 time=0@note_on channel=0 note=72 velocity=96 time=0.00078125@note_on channel=1 note=72 velocity=96 time=0@note_on channel=2 note=84 velocity=96 time=0@note_on channel=0 note=72 velocity=0 time=0.08828125@note_on channel=1 note=72 velocity=0 time=0.004687500000000001@note_on channel=2 note=84 velocity=0 time=0@note_on channel=9 note=42 velocity=0 time=0@note_on channel=0 note=68 velocity=96 time=0.00078125@note_on channel=1 note=68 velocity=96 time=0@note_on channel=2 note=80 velocity=96 time=0@note_on channel=9 note=42 velocity=16 time=0@note_on channel=0 note=68 velocity=0 time=0.08828125@note_on channel=1 note=68 velocity=0 time=0.004687500000000001@note_on channel=2 note=80 velocity=0 time=0@note_on channel=9 note=42 velocity=0 time=0@note_on channel=0 note=65 velocity=96 time=0.00078125@note_on channel=1 note=65 velocity=96 time=0@note_on channel=2 note=77 velocity=96 time=0@note_on channel=9 note=42 velocity=16 time=0@note_on channel=0 note=65 velocity=0 time=0.08828125@note_on channel=1 note=65 velocity=0 time=0.004687500000000001@note_on channel=2 note=77 velocity=0 time=0@note_on channel=9 note=38 velocity=0 time=0@note_on channel=9 note=35 velocity=0 time=0@note_on channel=9 note=42 velocity=0 time=0@note_on channel=1 note=84 velocity=0 time=0@note_on channel=0 note=77 velocity=96 time=0.00078125@note_on channel=1 note=77 velocity=96 time=0@note_on channel=2 note=89 velocity=96 time=0@note_on channel=9 note=42 velocity=16 time=0@note_on channel=1 note=82 velocity=126 time=0@note_on channel=0 note=77 velocity=0 time=0.08828125@note_on channel=1 note=77 velocity=0 time=0.004687500000000001@note_on channel=2 note=89 velocity=0 time=0@note_on channel=0 note=72 velocity=96 time=0.00078125@note_on channel=1 note=72 velocity=96 time=0@note_on channel=2 note=84 velocity=96 time=0@note_on channel=0 note=72 velocity=0 time=0.08828125@note_on channel=1 note=72 velocity=0 time=0.004687500000000001@note_on channel=2 note=84 velocity=0 time=0@note_on channel=9 note=42 velocity=0 time=0@note_on channel=0 note=68 velocity=96 time=0.00078125@note_on channel=1 note=68 velocity=96 time=0@note_on channel=2 note=80 velocity=96 time=0@note_on channel=9 note=42 velocity=16 time=0@note_on channel=0 note=68 velocity=0 time=0.08828125@note_on channel=1 note=68 velocity=0 time=0.004687500000000001@note_on channel=2 note=80 velocity=0 time=0@note_on channel=0 note=65 velocity=96 time=0.00078125@note_on channel=1 note=65 velocity=96 time=0@note_on channel=2 note=77 velocity=96 time=0@note_on channel=0 note=65 velocity=0 time=0.08828125@note_on channel=1 note=65 velocity=0 time=0.004687500000000001@note_on channel=2 note=77 velocity=0 time=0@note_on channel=9 note=42 velocity=0 time=0@note_on channel=0 note=77 velocity=96 time=0.00078125@note_on channel=1 note=77 velocity=96 time=0@note_on channel=2 note=89 velocity=96 time=0@note_on channel=9 note=38 velocity=80 time=0@note_on channel=9 note=35 velocity=80 time=0@note_on channel=9 note=42 velocity=16 time=0@note_on channel=0 note=77 velocity=0 time=0.08828125@note_on channel=1 note=77 velocity=0 time=0.004687500000000001@note_on channel=2 note=89 velocity=0 time=0@note_on channel=9 note=38 velocity=0 time=0@note_on channel=9 note=42 velocity=0 time=0@note_on channel=0 note=72 velocity=96 time=0.00078125@note_on channel=1 note=72 velocity=96 time=0@note_on channel=2 note=84 velocity=96 time=0@note_on channel=9 note=38 velocity=80 time=0@note_on channel=9 note=42 velocity=16 time=0@note_on channel=0 note=72 velocity=0 time=0.08828125@note_on channel=1 note=72 velocity=0 time=0.004687500000000001@note_on channel=2 note=84 velocity=0 time=0@note_on channel=9 note=38 velocity=0 time=0@note_on channel=0 note=68 velocity=96 time=0.00078125@note_on channel=1 note=68 velocity=96 time=0@note_on channel=2 note=80 velocity=96 time=0@note_on channel=0 note=68 velocity=0 time=0.08828125@note_on channel=1 note=68 velocity=0 time=0.004687500000000001@note_on channel=2 note=80 velocity=0 time=0@note_on channel=0 note=65 velocity=96 time=0.00078125@note_on channel=1 note=65 velocity=96 time=0@note_on channel=2 note=77 velocity=96 time=0@note_on channel=0 note=65 velocity=0 time=0.08828125@note_on channel=1 note=65 velocity=0 time=0.004687500000000001@note_on channel=1 note=53 velocity=0 time=0@note_on channel=2 note=77 velocity=0 time=0@note_on channel=3 note=56 velocity=0 time=0@note_on channel=4 note=56 velocity=0 time=0@note_on channel=7 note=53 velocity=0 time=0@note_on channel=8 note=68 velocity=0 time=0@note_on channel=10 note=68 velocity=0 time=0@note_on channel=14 note=41 velocity=0 time=0@note_on channel=0 note=53 velocity=0 time=0@note_on channel=9 note=35 velocity=0 time=0@note_on channel=9 note=42 velocity=0 time=0@note_on channel=1 note=82 velocity=0 time=0@note_on channel=7 note=56 velocity=0 time=0@note_on channel=11 note=41 velocity=0 time=0@note_on channel=0 note=79 velocity=96 time=0.00078125@note_on channel=1 note=79 velocity=96 time=0@note_on channel=1 note=46 velocity=96 time=0@note_on channel=2 note=91 velocity=96 time=0@note_on channel=3 note=58 velocity=112 time=0@note_on channel=4 note=58 velocity=112 time=0@note_on channel=7 note=46 velocity=96 time=0@note_on channel=8 note=70 velocity=96 time=0@note_on channel=10 note=70 velocity=96 time=0@note_on channel=14 note=34 velocity=96 time=0@note_on channel=0 note=46 velocity=96 time=0@note_on channel=9 note=42 velocity=16 time=0@note_on channel=1 note=80 velocity=126 time=0@note_on channel=7 note=58 velocity=112 time=0@note_on channel=11 note=34 velocity=96 time=0@note_on channel=0 note=79 velocity=0 time=0.08828125@note_on channel=1 note=79 velocity=0 time=0.004687500000000001@note_on channel=2 note=91 velocity=0 time=0@note_on channel=0 note=73 velocity=96 time=0.00078125@note_on channel=1 note=73 velocity=96 time=0@note_on channel=2 note=85 velocity=96 time=0@note_on channel=0 note=73 velocity=0 time=0.08828125@note_on channel=1 note=73 velocity=0 time=0.004687500000000001@note_on channel=2 note=85 velocity=0 time=0@note_on channel=9 note=42 velocity=0 time=0@note_on channel=0 note=70 velocity=96 time=0.00078125@note_on channel=1 note=70 velocity=96 time=0@note_on channel=2 note=82 velocity=96 time=0@note_on channel=9 note=42 velocity=16 time=0@note_on channel=0 note=70 velocity=0 time=0.08828125@note_on channel=1 note=70 velocity=0 time=0.004687500000000001@note_on channel=2 note=82 velocity=0 time=0@note_on channel=0 note=67 velocity=96 time=0.00078125@note_on channel=1 note=67 velocity=96 time=0@note_on channel=2 note=79 velocity=96 time=0@note_on channel=0 note=67 velocity=0 time=0.08828125@note_on channel=1 note=67 velocity=0 time=0.004687500000000001@note_on channel=2 note=79 velocity=0 time=0@note_on channel=9 note=42 velocity=0 time=0@note_on channel=0 note=79 velocity=96 time=0.00078125@note_on channel=1 note=79 velocity=96 time=0@note_on channel=2 note=91 velocity=96 time=0@note_on channel=9 note=38 velocity=80 time=0@note_on channel=9 note=35 velocity=80 time=0@note_on channel=9 note=42 velocity=16 time=0@note_on channel=0 note=79 velocity=0 time=0.08828125@note_on channel=1 note=79 velocity=0 time=0.004687500000000001@note_on channel=2 note=91 velocity=0 time=0@note_on channel=0 note=73 velocity=96 time=0.00078125@note_on channel=1 note=73 velocity=96 time=0@note_on channel=2 note=85 velocity=96 time=0@note_on channel=0 note=73 velocity=0 time=0.08828125@note_on channel=1 note=73 velocity=0 time=0.004687500000000001@note_on channel=2 note=85 velocity=0 time=0@note_on channel=9 note=42 velocity=0 time=0@note_on channel=0 note=70 velocity=96 time=0.00078125@note_on channel=1 note=70 velocity=96 time=0@note_on channel=2 note=82 velocity=96 time=0@note_on channel=9 note=42 velocity=16 time=0@note_on channel=0 note=70 velocity=0 time=0.08828125@note_on channel=1 note=70 velocity=0 time=0.004687500000000001@note_on channel=2 note=82 velocity=0 time=0@note_on channel=9 note=42 velocity=0 time=0@note_on channel=0 note=67 velocity=96 time=0.00078125@note_on channel=1 note=67 velocity=96 time=0@note_on channel=2 note=79 velocity=96 time=0@note_on channel=9 note=42 velocity=16 time=0@note_on channel=0 note=67 velocity=0 time=0.08828125@note_on channel=1 note=67 velocity=0 time=0.004687500000000001@note_on channel=2 note=79 velocity=0 time=0@note_on channel=9 note=38 velocity=0 time=0@note_on channel=9 note=35 velocity=0 time=0@note_on channel=9 note=42 velocity=0 time=0@note_on channel=1 note=80 velocity=0 time=0@note_on channel=0 note=79 velocity=96 time=0.00078125@note_on channel=1 note=79 velocity=96 time=0@note_on channel=2 note=91 velocity=96 time=0@note_on channel=9 note=42 velocity=16 time=0@note_on channel=1 note=79 velocity=126 time=0@note_on channel=0 note=79 velocity=0 time=0.08828125@note_on channel=1 note=79 velocity=0 time=0.004687500000000001@note_on channel=2 note=91 velocity=0 time=0@note_on channel=0 note=73 velocity=96 time=0.00078125@note_on channel=1 note=73 velocity=96 time=0@note_on channel=2 note=85 velocity=96 time=0@note_on channel=0 note=73 velocity=0 time=0.08828125@note_on channel=1 note=73 velocity=0 time=0.004687500000000001@note_on channel=2 note=85 velocity=0 time=0@note_on channel=9 note=42 velocity=0 time=0@note_on channel=1 note=79 velocity=0 time=0@note_on channel=0 note=70 velocity=96 time=0.00078125@note_on channel=1 note=70 velocity=96 time=0@note_on channel=2 note=82 velocity=96 time=0@note_on channel=9 note=42 velocity=16 time=0@note_on channel=1 note=80 velocity=126 time=0@note_on channel=0 note=70 velocity=0 time=0.08828125@note_on channel=1 note=70 velocity=0 time=0.004687500000000001@note_on channel=2 note=82 velocity=0 time=0@note_on channel=0 note=67 velocity=96 time=0.00078125@note_on channel=1 note=67 velocity=96 time=0@note_on channel=2 note=79 velocity=96 time=0@note_on channel=0 note=67 velocity=0 time=0.08828125@note_on channel=1 note=67 velocity=0 time=0.004687500000000001@note_on channel=2 note=79 velocity=0 time=0@note_on channel=9 note=42 velocity=0 time=0@note_on channel=1 note=80 velocity=0 time=0@note_on channel=0 note=79 velocity=96 time=0.00078125@note_on channel=1 note=79 velocity=96 time=0@note_on channel=2 note=91 velocity=96 time=0@note_on channel=9 note=38 velocity=80 time=0@note_on channel=9 note=35 velocity=80 time=0@note_on channel=9 note=42 velocity=16 time=0@note_on channel=1 note=79 velocity=126 time=0@note_on channel=0 note=79 velocity=0 time=0.08828125@note_on channel=1 note=79 velocity=0 time=0.004687500000000001@note_on channel=2 note=91 velocity=0 time=0@note_on channel=9 note=38 velocity=0 time=0@note_on channel=9 note=42 velocity=0 time=0@note_on channel=0 note=73 velocity=96 time=0.00078125@note_on channel=1 note=73 velocity=96 time=0@note_on channel=2 note=85 velocity=96 time=0@note_on channel=9 note=38 velocity=80 time=0@note_on channel=9 note=42 velocity=16 time=0@note_on channel=0 note=73 velocity=0 time=0.08828125@note_on channel=1 note=73 velocity=0 time=0.004687500000000001@note_on channel=2 note=85 velocity=0 time=0@note_on channel=9 note=38 velocity=0 time=0@note_on channel=0 note=70 velocity=96 time=0.00078125@note_on channel=1 note=70 velocity=96 time=0@note_on channel=2 note=82 velocity=96 time=0@note_on channel=0 note=70 velocity=0 time=0.08828125@note_on channel=1 note=70 velocity=0 time=0.004687500000000001@note_on channel=2 note=82 velocity=0 time=0@note_on channel=0 note=67 velocity=96 time=0.00078125@note_on channel=1 note=67 velocity=96 time=0@note_on channel=2 note=79 velocity=96 time=0@note_on channel=0 note=67 velocity=0 time=0.08828125@note_on channel=1 note=67 velocity=0 time=0.004687500000000001@note_on channel=1 note=46 velocity=0 time=0@note_on channel=2 note=79 velocity=0 time=0@note_on channel=3 note=58 velocity=0 time=0@note_on channel=4 note=58 velocity=0 time=0@note_on channel=7 note=46 velocity=0 time=0@note_on channel=8 note=70 velocity=0 time=0@note_on channel=10 note=70 velocity=0 time=0@note_on channel=14 note=34 velocity=0 time=0@note_on channel=0 note=46 velocity=0 time=0@note_on channel=9 note=35 velocity=0 time=0@note_on channel=9 note=42 velocity=0 time=0@note_on channel=1 note=79 velocity=0 time=0@note_on channel=7 note=58 velocity=0 time=0@note_on channel=11 note=34 velocity=0 time=0@note_on channel=0 note=77 velocity=96 time=0.00078125@note_on channel=1 note=77 velocity=96 time=0@note_on channel=1 note=53 velocity=96 time=0@note_on channel=2 note=89 velocity=96 time=0@note_on channel=3 note=60 velocity=112 time=0@note_on channel=4 note=60 velocity=112 time=0@note_on channel=7 note=53 velocity=96 time=0@note_on channel=8 note=65 velocity=96 time=0@note_on channel=10 note=65 velocity=96 time=0@note_on channel=14 note=41 velocity=96 time=0@note_on channel=0 note=53 velocity=96 time=0@note_on channel=9 note=42 velocity=16 time=0@note_on channel=1 note=77 velocity=126 time=0@note_on channel=7 note=60 velocity=112 time=0@note_on channel=11 note=41 velocity=96 time=0@note_on channel=0 note=77 velocity=0 time=0.08828125@note_on channel=1 note=77 velocity=0 time=0.004687500000000001@note_on channel=2 note=89 velocity=0 time=0@note_on channel=0 note=72 velocity=96 time=0.00078125@note_on channel=1 note=72 velocity=96 time=0@note_on channel=2 note=84 velocity=96 time=0@note_on channel=0 note=72 velocity=0 time=0.08828125@note_on channel=1 note=72 velocity=0 time=0.004687500000000001@note_on channel=2 note=84 velocity=0 time=0@note_on channel=9 note=42 velocity=0 time=0@note_on channel=0 note=68 velocity=96 time=0.00078125@note_on channel=1 note=68 velocity=96 time=0@note_on channel=2 note=80 velocity=96 time=0@note_on channel=9 note=42 velocity=16 time=0@note_on channel=0 note=68 velocity=0 time=0.08828125@note_on channel=1 note=68 velocity=0 time=0.004687500000000001@note_on channel=2 note=80 velocity=0 time=0@note_on channel=0 note=65 velocity=96 time=0.00078125@note_on channel=1 note=65 velocity=96 time=0@note_on channel=2 note=77 velocity=96 time=0@note_on channel=0 note=65 velocity=0 time=0.08828125@note_on channel=1 note=65 velocity=0 time=0.004687500000000001@note_on channel=2 note=77 velocity=0 time=0@note_on channel=9 note=42 velocity=0 time=0@note_on channel=0 note=77 velocity=96 time=0.00078125@note_on channel=1 note=77 velocity=96 time=0@note_on channel=2 note=89 velocity=96 time=0@note_on channel=9 note=38 velocity=80 time=0@note_on channel=9 note=35 velocity=80 time=0@note_on channel=9 note=42 velocity=16 time=0@note_on channel=0 note=77 velocity=0 time=0.08828125@note_on channel=1 note=77 velocity=0 time=0.004687500000000001@note_on channel=2 note=89 velocity=0 time=0@note_on channel=0 note=72 velocity=96 time=0.00078125@note_on channel=1 note=72 velocity=96 time=0@note_on channel=2 note=84 velocity=96 time=0@note_on channel=0 note=72 velocity=0 time=0.08828125@note_on channel=1 note=72 velocity=0 time=0.004687500000000001@note_on channel=2 note=84 velocity=0 time=0@note_on channel=9 note=42 velocity=0 time=0@note_on channel=0 note=68 velocity=96 time=0.00078125@note_on channel=1 note=68 velocity=96 time=0@note_on channel=2 note=80 velocity=96 time=0@note_on channel=9 note=42 velocity=16 time=0@note_on channel=0 note=68 velocity=0 time=0.08828125@note_on channel=1 note=68 velocity=0 time=0.004687500000000001@note_on channel=2 note=80 velocity=0 time=0@note_on channel=9 note=42 velocity=0 time=0@note_on channel=0 note=65 velocity=96 time=0.00078125@note_on channel=1 note=65 velocity=96 time=0@note_on channel=2 note=77 velocity=96 time=0@note_on channel=9 note=42 velocity=16 time=0@note_on channel=0 note=65 velocity=0 time=0.08828125@note_on channel=1 note=65 velocity=0 time=0.004687500000000001@note_on channel=2 note=77 velocity=0 time=0@note_on channel=9 note=38 velocity=0 time=0@note_on channel=9 note=35 velocity=0 time=0@note_on channel=9 note=42 velocity=0 time=0@note_on channel=0 note=77 velocity=96 time=0.00078125@note_on channel=1 note=77 velocity=96 time=0@note_on channel=2 note=89 velocity=96 time=0@note_on channel=9 note=42 velocity=16 time=0@note_on channel=0 note=77 velocity=0 time=0.08828125@note_on channel=1 note=77 velocity=0 time=0.004687500000000001@note_on channel=2 note=89 velocity=0 time=0@note_on channel=0 note=72 velocity=96 time=0.00078125@note_on channel=1 note=72 velocity=96 time=0@note_on channel=2 note=84 velocity=96 time=0@note_on channel=0 note=72 velocity=0 time=0.08828125@note_on channel=1 note=72 velocity=0 time=0.004687500000000001@note_on channel=2 note=84 velocity=0 time=0@note_on channel=9 note=42 velocity=0 time=0@note_on channel=0 note=68 velocity=96 time=0.00078125@note_on channel=1 note=68 velocity=96 time=0@note_on channel=2 note=80 velocity=96 time=0@note_on channel=9 note=42 velocity=16 time=0@note_on channel=0 note=68 velocity=0 time=0.08828125@note_on channel=1 note=68 velocity=0 time=0.004687500000000001@note_on channel=2 note=80 velocity=0 time=0@note_on channel=0 note=65 velocity=96 time=0.00078125@note_on channel=1 note=65 velocity=96 time=0@note_on channel=2 note=77 velocity=96 time=0@note_on channel=0 note=65 velocity=0 time=0.08828125@note_on channel=1 note=65 velocity=0 time=0.004687500000000001@note_on channel=2 note=77 velocity=0 time=0@note_on channel=9 note=42 velocity=0 time=0@note_on channel=1 note=77 velocity=0 time=0@note_on channel=0 note=77 velocity=96 time=0.00078125@note_on channel=1 note=77 velocity=96 time=0@note_on channel=2 note=89 velocity=96 time=0@note_on channel=9 note=38 velocity=80 time=0@note_on channel=9 note=35 velocity=80 time=0@note_on channel=9 note=42 velocity=16 time=0@note_on channel=1 note=89 velocity=126 time=0@note_on channel=0 note=77 velocity=0 time=0.08828125@note_on channel=1 note=77 velocity=0 time=0.004687500000000001@note_on channel=2 note=89 velocity=0 time=0@note_on channel=9 note=38 velocity=0 time=0@note_on channel=9 note=42 velocity=0 time=0@note_on channel=0 note=72 velocity=96 time=0.00078125@note_on channel=1 note=72 velocity=96 time=0@note_on channel=2 note=84 velocity=96 time=0@note_on channel=9 note=38 velocity=80 time=0@note_on channel=9 note=42 velocity=16 time=0@note_on channel=0 note=72 velocity=0 time=0.08828125@note_on channel=1 note=72 velocity=0 time=0.004687500000000001@note_on channel=2 note=84 velocity=0 time=0@note_on channel=9 note=38 velocity=0 time=0@note_on channel=0 note=68 velocity=96 time=0.00078125@note_on channel=1 note=68 velocity=96 time=0@note_on channel=2 note=80 velocity=96 time=0@note_on channel=0 note=68 velocity=0 time=0.08828125@note_on channel=1 note=68 velocity=0 time=0.004687500000000001@note_on channel=2 note=80 velocity=0 time=0@note_on channel=0 note=65 velocity=96 time=0.00078125@note_on channel=1 note=65 velocity=96 time=0@note_on channel=2 note=77 velocity=96 time=0@note_on channel=0 note=65 velocity=0 time=0.08828125@note_on channel=1 note=65 velocity=0 time=0.004687500000000001@note_on channel=1 note=53 velocity=0 time=0@note_on channel=2 note=77 velocity=0 time=0@note_on channel=3 note=60 velocity=0 time=0@note_on channel=4 note=60 velocity=0 time=0@note_on channel=7 note=53 velocity=0 time=0@note_on channel=8 note=65 velocity=0 time=0@note_on channel=10 note=65 velocity=0 time=0@note_on channel=14 note=41 velocity=0 time=0@note_on channel=0 note=53 velocity=0 time=0@note_on channel=9 note=35 velocity=0 time=0@note_on channel=9 note=42 velocity=0 time=0@note_on channel=1 note=89 velocity=0 time=0@note_on channel=7 note=60 velocity=0 time=0@note_on channel=11 note=41 velocity=0 time=0@note_on channel=13 note=53 velocity=126 time=0.00078125@note_on channel=14 note=41 velocity=126 time=0@note_on channel=15 note=65 velocity=80 time=0@note_on channel=9 note=35 velocity=80 time=0@note_on channel=11 note=41 velocity=126 time=0@note_on channel=9 note=35 velocity=0 time=0.37421875000000004@note_on channel=9 note=38 velocity=80 time=0.00078125@note_on channel=9 note=35 velocity=80 time=0@note_on channel=9 note=38 velocity=0 time=0.37421875000000004@note_on channel=9 note=35 velocity=0 time=0@note_on channel=9 note=35 velocity=80 time=0.00078125@note_on channel=9 note=35 velocity=0 time=0.37421875000000004@note_on channel=9 note=38 velocity=80 time=0.00078125@note_on channel=9 note=35 velocity=80 time=0@note_on channel=13 note=53 velocity=0 time=0.37421875000000004@note_on channel=14 note=41 velocity=0 time=0@note_on channel=15 note=65 velocity=0 time=0@note_on channel=9 note=38 velocity=0 time=0@note_on channel=9 note=35 velocity=0 time=0@note_on channel=11 note=41 velocity=0 time=0@note_on channel=13 note=49 velocity=126 time=0.00078125@note_on channel=14 note=37 velocity=126 time=0@note_on channel=9 note=35 velocity=80 time=0@note_on channel=11 note=37 velocity=126 time=0@note_on channel=9 note=35 velocity=0 time=0.37421875000000004@note_on channel=9 note=38 velocity=80 time=0.00078125@note_on channel=9 note=35 velocity=80 time=0@note_on channel=9 note=38 velocity=0 time=0.37421875000000004@note_on channel=9 note=35 velocity=0 time=0@note_on channel=9 note=35 velocity=80 time=0.00078125@note_on channel=9 note=35 velocity=0 time=0.37421875000000004@note_on channel=9 note=38 velocity=80 time=0.00078125@note_on channel=9 note=35 velocity=80 time=0@note_on channel=13 note=49 velocity=0 time=0.37421875000000004@note_on channel=14 note=37 velocity=0 time=0@note_on channel=9 note=38 velocity=0 time=0@note_on channel=9 note=35 velocity=0 time=0@note_on channel=11 note=37 velocity=0 time=0@note_on channel=13 note=48 velocity=126 time=0.00078125@note_on channel=14 note=36 velocity=126 time=0@note_on channel=9 note=35 velocity=80 time=0@note_on channel=11 note=36 velocity=126 time=0@note_on channel=9 note=35 velocity=0 time=0.37421875000000004@note_on channel=9 note=38 velocity=80 time=0.00078125@note_on channel=9 note=35 velocity=80 time=0@note_on channel=9 note=38 velocity=0 time=0.37421875000000004@note_on channel=9 note=35 velocity=0 time=0@note_on channel=9 note=35 velocity=80 time=0.00078125@note_on channel=9 note=35 velocity=0 time=0.37421875000000004@note_on channel=9 note=38 velocity=80 time=0.00078125@note_on channel=9 note=35 velocity=80 time=0@note_on channel=13 note=48 velocity=0 time=0.37421875000000004@note_on channel=14 note=36 velocity=0 time=0@note_on channel=9 note=38 velocity=0 time=0@note_on channel=9 note=35 velocity=0 time=0@note_on channel=11 note=36 velocity=0 time=0@note_on channel=13 note=52 velocity=126 time=0.00078125@note_on channel=14 note=40 velocity=126 time=0@note_on channel=9 note=35 velocity=80 time=0@note_on channel=11 note=40 velocity=126 time=0@note_on channel=9 note=35 velocity=0 time=0.37421875000000004@note_on channel=9 note=38 velocity=80 time=0.00078125@note_on channel=9 note=35 velocity=80 time=0@note_on channel=9 note=38 velocity=0 time=0.37421875000000004@note_on channel=9 note=35 velocity=0 time=0@note_on channel=9 note=35 velocity=80 time=0.00078125@note_on channel=9 note=35 velocity=0 time=0.37421875000000004@note_on channel=9 note=38 velocity=80 time=0.00078125@note_on channel=9 note=35 velocity=80 time=0@note_on channel=13 note=52 velocity=0 time=0.37421875000000004@note_on channel=14 note=40 velocity=0 time=0@note_on channel=9 note=38 velocity=0 time=0@note_on channel=9 note=35 velocity=0 time=0@note_on channel=11 note=40 velocity=0 time=0@note_on channel=13 note=53 velocity=126 time=0.00078125@note_on channel=14 note=41 velocity=126 time=0@note_on channel=15 note=65 velocity=80 time=0@note_on channel=9 note=35 velocity=80 time=0@note_on channel=9 note=46 velocity=16 time=0@note_on channel=11 note=41 velocity=126 time=0@note_on channel=9 note=46 velocity=0 time=0.09296875@note_on channel=9 note=42 velocity=18 time=0.00078125@note_on channel=9 note=42 velocity=0 time=0.09296875@note_on channel=9 note=42 velocity=20 time=0.00078125@note_on channel=9 note=42 velocity=0 time=0.09296875@note_on channel=9 note=42 velocity=22 time=0.00078125@note_on channel=9 note=35 velocity=0 time=0.09296875@note_on channel=9 note=42 velocity=0 time=0@note_on channel=9 note=38 velocity=80 time=0.00078125@note_on channel=9 note=35 velocity=80 time=0@note_on channel=9 note=42 velocity=24 time=0@note_on channel=9 note=42 velocity=0 time=0.09296875@note_on channel=9 note=46 velocity=26 time=0.00078125@note_on channel=9 note=46 velocity=0 time=0.09296875@note_on channel=9 note=42 velocity=28 time=0.00078125@note_on channel=9 note=42 velocity=0 time=0.09296875@note_on channel=9 note=42 velocity=30 time=0.00078125@note_on channel=9 note=38 velocity=0 time=0.09296875@note_on channel=9 note=35 velocity=0 time=0@note_on channel=9 note=42 velocity=0 time=0@note_on channel=9 note=35 velocity=80 time=0.00078125@note_on channel=9 note=46 velocity=32 time=0@note_on channel=9 note=46 velocity=0 time=0.09296875@note_on channel=9 note=42 velocity=35 time=0.00078125@note_on channel=9 note=42 velocity=0 time=0.09296875@note_on channel=9 note=42 velocity=37 time=0.00078125@note_on channel=9 note=42 velocity=0 time=0.09296875@note_on channel=9 note=42 velocity=39 time=0.00078125@note_on channel=9 note=35 velocity=0 time=0.09296875@note_on channel=9 note=42 velocity=0 time=0@note_on channel=9 note=38 velocity=80 time=0.00078125@note_on channel=9 note=35 velocity=80 time=0@note_on channel=9 note=46 velocity=41 time=0@note_on channel=9 note=46 velocity=0 time=0.09296875@note_on channel=9 note=42 velocity=43 time=0.00078125@note_on channel=9 note=42 velocity=0 time=0.09296875@note_on channel=9 note=42 velocity=45 time=0.00078125@note_on channel=9 note=42 velocity=0 time=0.09296875@note_on channel=9 note=42 velocity=47 time=0.00078125@note_on channel=13 note=53 velocity=0 time=0.09296875@note_on channel=14 note=41 velocity=0 time=0@note_on channel=15 note=65 velocity=0 time=0@note_on channel=9 note=38 velocity=0 time=0@note_on channel=9 note=35 velocity=0 time=0@note_on channel=9 note=42 velocity=0 time=0@note_on channel=11 note=41 velocity=0 time=0@note_on channel=13 note=49 velocity=126 time=0.00078125@note_on channel=14 note=37 velocity=126 time=0@note_on channel=9 note=35 velocity=80 time=0@note_on channel=9 note=46 velocity=49 time=0@note_on channel=11 note=37 velocity=126 time=0@note_on channel=9 note=46 velocity=0 time=0.09296875@note_on channel=9 note=42 velocity=51 time=0.00078125@note_on channel=9 note=42 velocity=0 time=0.09296875@note_on channel=9 note=42 velocity=54 time=0.00078125@note_on channel=9 note=42 velocity=0 time=0.09296875@note_on channel=9 note=42 velocity=56 time=0.00078125@note_on channel=9 note=35 velocity=0 time=0.09296875@note_on channel=9 note=42 velocity=0 time=0@note_on channel=9 note=38 velocity=80 time=0.00078125@note_on channel=9 note=35 velocity=80 time=0@note_on channel=9 note=42 velocity=58 time=0@note_on channel=9 note=42 velocity=0 time=0.09296875@note_on channel=9 note=46 velocity=60 time=0.00078125@note_on channel=9 note=46 velocity=0 time=0.09296875@note_on channel=9 note=42 velocity=62 time=0.00078125@note_on channel=9 note=42 velocity=0 time=0.09296875@note_on channel=9 note=42 velocity=64 time=0.00078125@note_on channel=9 note=38 velocity=0 time=0.09296875@note_on channel=9 note=35 velocity=0 time=0@note_on channel=9 note=42 velocity=0 time=0@note_on channel=9 note=35 velocity=80 time=0.00078125@note_on channel=9 note=46 velocity=66 time=0@note_on channel=9 note=46 velocity=0 time=0.09296875@note_on channel=9 note=42 velocity=68 time=0.00078125@note_on channel=9 note=42 velocity=0 time=0.09296875@note_on channel=9 note=42 velocity=71 time=0.00078125@note_on channel=9 note=42 velocity=0 time=0.09296875@note_on channel=9 note=42 velocity=73 time=0.00078125@note_on channel=9 note=35 velocity=0 time=0.09296875@note_on channel=9 note=42 velocity=0 time=0@note_on channel=9 note=38 velocity=80 time=0.00078125@note_on channel=9 note=35 velocity=80 time=0@note_on channel=9 note=46 velocity=75 time=0@note_on channel=9 note=46 velocity=0 time=0.09296875@note_on channel=9 note=42 velocity=77 time=0.00078125@note_on channel=9 note=42 velocity=0 time=0.09296875@note_on channel=9 note=42 velocity=79 time=0.00078125@note_on channel=9 note=42 velocity=0 time=0.09296875@note_on channel=9 note=42 velocity=81 time=0.00078125@note_on channel=13 note=49 velocity=0 time=0.09296875@note_on channel=14 note=37 velocity=0 time=0@note_on channel=9 note=38 velocity=0 time=0@note_on channel=9 note=35 velocity=0 time=0@note_on channel=9 note=42 velocity=0 time=0@note_on channel=11 note=37 velocity=0 time=0@note_on channel=13 note=48 velocity=126 time=0.00078125@note_on channel=14 note=36 velocity=126 time=0@note_on channel=9 note=35 velocity=80 time=0@note_on channel=9 note=46 velocity=83 time=0@note_on channel=11 note=36 velocity=126 time=0@note_on channel=9 note=46 velocity=0 time=0.09296875@note_on channel=9 note=42 velocity=85 time=0.00078125@note_on channel=9 note=42 velocity=0 time=0.09296875@note_on channel=9 note=42 velocity=87 time=0.00078125@note_on channel=9 note=42 velocity=0 time=0.09296875@note_on channel=9 note=42 velocity=90 time=0.00078125@note_on channel=9 note=35 velocity=0 time=0.09296875@note_on channel=9 note=42 velocity=0 time=0@note_on channel=9 note=38 velocity=80 time=0.00078125@note_on channel=9 note=35 velocity=80 time=0@note_on channel=9 note=42 velocity=92 time=0@note_on channel=9 note=42 velocity=0 time=0.09296875@note_on channel=9 note=46 velocity=94 time=0.00078125@note_on channel=9 note=46 velocity=0 time=0.09296875@note_on channel=9 note=42 velocity=96 time=0.00078125@note_on channel=9 note=42 velocity=0 time=0.09296875@note_on channel=9 note=42 velocity=98 time=0.00078125@note_on channel=9 note=38 velocity=0 time=0.09296875@note_on channel=9 note=35 velocity=0 time=0@note_on channel=9 note=42 velocity=0 time=0@note_on channel=9 note=35 velocity=80 time=0.00078125@note_on channel=9 note=46 velocity=100 time=0@note_on channel=9 note=46 velocity=0 time=0.09296875@note_on channel=9 note=42 velocity=102 time=0.00078125@note_on channel=9 note=42 velocity=0 time=0.09296875@note_on channel=9 note=42 velocity=104 time=0.00078125@note_on channel=9 note=42 velocity=0 time=0.09296875@note_on channel=9 note=42 velocity=106 time=0.00078125@note_on channel=9 note=35 velocity=0 time=0.09296875@note_on channel=9 note=42 velocity=0 time=0@note_on channel=9 note=38 velocity=80 time=0.00078125@note_on channel=9 note=35 velocity=80 time=0@note_on channel=9 note=42 velocity=109 time=0@note_on channel=9 note=42 velocity=0 time=0.04609375@note_on channel=9 note=42 velocity=109 time=0.00078125@note_on channel=9 note=42 velocity=0 time=0.04609375@note_on channel=9 note=42 velocity=109 time=0.00078125@note_on channel=9 note=42 velocity=0 time=0.04609375@note_on channel=9 note=42 velocity=109 time=0.00078125@note_on channel=9 note=42 velocity=0 time=0.04609375@note_on channel=9 note=42 velocity=109 time=0.00078125@note_on channel=9 note=42 velocity=0 time=0.04609375@note_on channel=9 note=42 velocity=109 time=0.00078125@note_on channel=9 note=42 velocity=0 time=0.04609375@note_on channel=9 note=42 velocity=109 time=0.00078125@note_on channel=9 note=42 velocity=0 time=0.04609375@note_on channel=9 note=42 velocity=109 time=0.00078125@note_on channel=13 note=48 velocity=0 time=0.04609375@note_on channel=14 note=36 velocity=0 time=0@note_on channel=9 note=38 velocity=0 time=0@note_on channel=9 note=35 velocity=0 time=0@note_on channel=9 note=42 velocity=0 time=0@note_on channel=11 note=36 velocity=0 time=0@note_on channel=13 note=52 velocity=126 time=0.00078125@note_on channel=14 note=40 velocity=126 time=0@note_on channel=9 note=35 velocity=80 time=0@note_on channel=9 note=42 velocity=117 time=0@note_on channel=11 note=40 velocity=126 time=0@note_on channel=9 note=35 velocity=0 time=0.37421875000000004@note_on channel=9 note=42 velocity=0 time=0@note_on channel=9 note=38 velocity=80 time=0.00078125@note_on channel=9 note=35 velocity=80 time=0@note_on channel=9 note=38 velocity=0 time=0.37421875000000004@note_on channel=9 note=35 velocity=0 time=0@note_on channel=9 note=35 velocity=80 time=0.00078125@note_on channel=9 note=35 velocity=0 time=0.37421875000000004@note_on channel=9 note=38 velocity=80 time=0.00078125@note_on channel=9 note=35 velocity=80 time=0@note_on channel=13 note=52 velocity=0 time=0.37421875000000004@note_on channel=14 note=40 velocity=0 time=0@note_on channel=9 note=38 velocity=0 time=0@note_on channel=9 note=35 velocity=0 time=0@note_on channel=11 note=40 velocity=0 time=0@<meta message time_signature numerator=4 denominator=4 clocks_per_click=24 notated_32nd_notes_per_beat=8 time=0.00078125>@<meta message key_signature key='Ab' time=0>@<meta message set_tempo tempo=375000 time=0>@<meta message key_signature key='Ab' time=0>@<meta message key_signature key='Ab' time=0>@<meta message key_signature key='Ab' time=0>@note_on channel=1 note=53 velocity=112 time=0@<meta message key_signature key='Ab' time=0>@<meta message key_signature key='Bb' time=0>@<meta message key_signature key='Bb' time=0>@<meta message key_signature key='F' time=0>@<meta message key_signature key='Bb' time=0>@<meta message key_signature key='F' time=0>@note_on channel=7 note=53 velocity=112 time=0@<meta message key_signature key='Eb' time=0>@<meta message key_signature key='Bb' time=0>@<meta message key_signature key='Ab' time=0>@<meta message key_signature key='Ab' time=0>@<meta message key_signature key='Ab' time=0>@note_on channel=14 note=41 velocity=112 time=0@<meta message key_signature key='Ab' time=0>@note_on channel=15 note=65 velocity=126 time=0@<meta message key_signature key='Ab' time=0>@<meta message key_signature key='Ab' time=0>@note_on channel=0 note=53 velocity=112 time=0@note_on channel=9 note=42 velocity=112 time=0@<meta message key_signature key='Ab' time=0>@<meta message key_signature key='Ab' time=0>@<meta message key_signature key='Ab' time=0>@note_on channel=7 note=53 velocity=112 time=0@<meta message key_signature key='Ab' time=0>@note_on channel=11 note=41 velocity=112 time=0@note_on channel=9 note=42 velocity=0 time=0.18671875000000002@note_on channel=9 note=42 velocity=112 time=0.00078125@note_on channel=9 note=42 velocity=0 time=0.18671875000000002@note_on channel=9 note=38 velocity=112 time=0.00078125@note_on channel=9 note=35 velocity=112 time=0@note_on channel=9 note=42 velocity=112 time=0@note_on channel=9 note=42 velocity=0 time=0.18671875000000002@note_on channel=9 note=42 velocity=112 time=0.00078125@note_on channel=9 note=42 velocity=0 time=0.09296875@note_on channel=9 note=42 velocity=112 time=0.00078125@note_on channel=9 note=38 velocity=0 time=0.09296875@note_on channel=9 note=35 velocity=0 time=0@note_on channel=9 note=42 velocity=0 time=0@note_on channel=9 note=42 velocity=112 time=0.00078125@note_on channel=9 note=42 velocity=0 time=0.18671875000000002@note_on channel=9 note=42 velocity=112 time=0.00078125@note_on channel=9 note=42 velocity=0 time=0.18671875000000002@note_on channel=9 note=38 velocity=112 time=0.00078125@note_on channel=9 note=35 velocity=112 time=0@note_on channel=9 note=42 velocity=112 time=0@note_on channel=9 note=38 velocity=0 time=0.09296875@note_on channel=9 note=42 velocity=0 time=0@note_on channel=9 note=38 velocity=112 time=0.00078125@note_on channel=9 note=42 velocity=112 time=0@note_on channel=9 note=38 velocity=0 time=0.09296875@note_on channel=1 note=53 velocity=0 time=0.1875@note_on channel=7 note=53 velocity=0 time=0@note_on channel=14 note=41 velocity=0 time=0@note_on channel=15 note=65 velocity=0 time=0@note_on channel=0 note=53 velocity=0 time=0@note_on channel=9 note=35 velocity=0 time=0@note_on channel=9 note=42 velocity=0 time=0@note_on channel=7 note=53 velocity=0 time=0@note_on channel=11 note=41 velocity=0 time=0@note_on channel=1 note=49 velocity=112 time=0.00078125@note_on channel=7 note=49 velocity=112 time=0@note_on channel=14 note=37 velocity=112 time=0@note_on channel=15 note=65 velocity=126 time=0@note_on channel=0 note=49 velocity=112 time=0@note_on channel=9 note=42 velocity=112 time=0@note_on channel=7 note=49 velocity=112 time=0@note_on channel=11 note=37 velocity=112 time=0@note_on channel=9 note=42 velocity=0 time=0.18671875000000002@note_on channel=9 note=42 velocity=112 time=0.00078125@note_on channel=9 note=42 velocity=0 time=0.18671875000000002@note_on channel=9 note=38 velocity=112 time=0.00078125@note_on channel=9 note=35 velocity=112 time=0@note_on channel=9 note=42 velocity=112 time=0@note_on channel=9 note=42 velocity=0 time=0.18671875000000002@note_on channel=9 note=42 velocity=112 time=0.00078125@note_on channel=9 note=42 velocity=0 time=0.09296875@note_on channel=9 note=42 velocity=112 time=0.00078125@note_on channel=9 note=38 velocity=0 time=0.09296875@note_on channel=9 note=35 velocity=0 time=0@note_on channel=9 note=42 velocity=0 time=0@note_on channel=9 note=42 velocity=112 time=0.00078125@note_on channel=9 note=42 velocity=0 time=0.18671875000000002@note_on channel=9 note=42 velocity=112 time=0.00078125@note_on channel=9 note=42 velocity=0 time=0.18671875000000002@note_on channel=9 note=38 velocity=112 time=0.00078125@note_on channel=9 note=35 velocity=112 time=0@note_on channel=9 note=42 velocity=112 time=0@note_on channel=9 note=38 velocity=0 time=0.09296875@note_on channel=9 note=42 velocity=0 time=0@note_on channel=9 note=38 velocity=112 time=0.00078125@note_on channel=9 note=42 velocity=112 time=0@note_on channel=9 note=38 velocity=0 time=0.09296875@note_on channel=1 note=49 velocity=0 time=0.1875@note_on channel=7 note=49 velocity=0 time=0@note_on channel=14 note=37 velocity=0 time=0@note_on channel=15 note=65 velocity=0 time=0@note_on channel=0 note=49 velocity=0 time=0@note_on channel=9 note=35 velocity=0 time=0@note_on channel=9 note=42 velocity=0 time=0@note_on channel=7 note=49 velocity=0 time=0@note_on channel=11 note=37 velocity=0 time=0@note_on channel=1 note=48 velocity=112 time=0.00078125@note_on channel=7 note=48 velocity=112 time=0@note_on channel=14 note=36 velocity=112 time=0@note_on channel=15 note=68 velocity=126 time=0@note_on channel=0 note=48 velocity=112 time=0@note_on channel=9 note=42 velocity=112 time=0@note_on channel=7 note=48 velocity=112 time=0@note_on channel=11 note=36 velocity=112 time=0@note_on channel=9 note=42 velocity=0 time=0.18671875000000002@note_on channel=9 note=42 velocity=112 time=0.00078125@note_on channel=9 note=42 velocity=0 time=0.18671875000000002@note_on channel=9 note=38 velocity=112 time=0.00078125@note_on channel=9 note=35 velocity=112 time=0@note_on channel=9 note=42 velocity=112 time=0@note_on channel=9 note=42 velocity=0 time=0.18671875000000002@note_on channel=9 note=42 velocity=112 time=0.00078125@note_on channel=9 note=42 velocity=0 time=0.09296875@note_on channel=9 note=42 velocity=112 time=0.00078125@note_on channel=9 note=38 velocity=0 time=0.09296875@note_on channel=9 note=35 velocity=0 time=0@note_on channel=9 note=42 velocity=0 time=0@note_on channel=9 note=42 velocity=112 time=0.00078125@note_on channel=9 note=42 velocity=0 time=0.18671875000000002@note_on channel=9 note=42 velocity=112 time=0.00078125@note_on channel=9 note=42 velocity=0 time=0.18671875000000002@note_on channel=9 note=38 velocity=112 time=0.00078125@note_on channel=9 note=35 velocity=112 time=0@note_on channel=9 note=42 velocity=112 time=0@note_on channel=9 note=38 velocity=0 time=0.09296875@note_on channel=9 note=42 velocity=0 time=0@note_on channel=9 note=38 velocity=112 time=0.00078125@note_on channel=9 note=42 velocity=112 time=0@note_on channel=9 note=38 velocity=0 time=0.09296875@note_on channel=1 note=48 velocity=0 time=0.1875@note_on channel=7 note=48 velocity=0 time=0@note_on channel=14 note=36 velocity=0 time=0@note_on channel=15 note=68 velocity=0 time=0@note_on channel=0 note=48 velocity=0 time=0@note_on channel=9 note=35 velocity=0 time=0@note_on channel=9 note=42 velocity=0 time=0@note_on channel=7 note=48 velocity=0 time=0@note_on channel=11 note=36 velocity=0 time=0@note_on channel=1 note=52 velocity=112 time=0.00078125@note_on channel=7 note=52 velocity=112 time=0@note_on channel=14 note=40 velocity=112 time=0@note_on channel=15 note=67 velocity=126 time=0@note_on channel=0 note=52 velocity=112 time=0@note_on channel=9 note=42 velocity=112 time=0@note_on channel=7 note=52 velocity=112 time=0@note_on channel=11 note=40 velocity=112 time=0@note_on channel=9 note=42 velocity=0 time=0.18671875000000002@note_on channel=9 note=42 velocity=112 time=0.00078125@note_on channel=9 note=42 velocity=0 time=0.18671875000000002@note_on channel=9 note=38 velocity=112 time=0.00078125@note_on channel=9 note=35 velocity=112 time=0@note_on channel=9 note=42 velocity=112 time=0@note_on channel=9 note=42 velocity=0 time=0.18671875000000002@note_on channel=9 note=42 velocity=112 time=0.00078125@note_on channel=9 note=42 velocity=0 time=0.09296875@note_on channel=9 note=42 velocity=112 time=0.00078125@note_on channel=9 note=38 velocity=0 time=0.09296875@note_on channel=9 note=35 velocity=0 time=0@note_on channel=9 note=42 velocity=0 time=0@note_on channel=9 note=42 velocity=112 time=0.00078125@note_on channel=9 note=42 velocity=0 time=0.18671875000000002@note_on channel=9 note=42 velocity=112 time=0.00078125@note_on channel=9 note=42 velocity=0 time=0.18671875000000002@note_on channel=9 note=38 velocity=112 time=0.00078125@note_on channel=9 note=35 velocity=112 time=0@note_on channel=9 note=42 velocity=112 time=0@note_on channel=9 note=38 velocity=0 time=0.09296875@note_on channel=9 note=42 velocity=0 time=0@note_on channel=9 note=38 velocity=112 time=0.00078125@note_on channel=9 note=42 velocity=112 time=0@note_on channel=9 note=38 velocity=0 time=0.09296875@note_on channel=1 note=52 velocity=0 time=0.1875@note_on channel=7 note=52 velocity=0 time=0@note_on channel=14 note=40 velocity=0 time=0@note_on channel=15 note=67 velocity=0 time=0@note_on channel=0 note=52 velocity=0 time=0@note_on channel=9 note=35 velocity=0 time=0@note_on channel=9 note=42 velocity=0 time=0@note_on channel=7 note=52 velocity=0 time=0@note_on channel=11 note=40 velocity=0 time=0@note_on channel=1 note=53 velocity=112 time=0.00078125@note_on channel=7 note=53 velocity=112 time=0@note_on channel=14 note=41 velocity=112 time=0@note_on channel=15 note=65 velocity=126 time=0@note_on channel=0 note=53 velocity=112 time=0@note_on channel=9 note=42 velocity=112 time=0@note_on channel=7 note=53 velocity=112 time=0@note_on channel=11 note=41 velocity=112 time=0@note_on channel=9 note=42 velocity=0 time=0.18671875000000002@note_on channel=9 note=42 velocity=112 time=0.00078125@note_on channel=9 note=42 velocity=0 time=0.18671875000000002@note_on channel=9 note=38 velocity=112 time=0.00078125@note_on channel=9 note=35 velocity=112 time=0@note_on channel=9 note=42 velocity=112 time=0@note_on channel=9 note=42 velocity=0 time=0.18671875000000002@note_on channel=9 note=42 velocity=112 time=0.00078125@note_on channel=9 note=42 velocity=0 time=0.09296875@note_on channel=9 note=42 velocity=112 time=0.00078125@note_on channel=9 note=38 velocity=0 time=0.09296875@note_on channel=9 note=35 velocity=0 time=0@note_on channel=9 note=42 velocity=0 time=0@note_on channel=9 note=42 velocity=112 time=0.00078125@note_on channel=9 note=42 velocity=0 time=0.18671875000000002@note_on channel=9 note=42 velocity=112 time=0.00078125@note_on channel=9 note=42 velocity=0 time=0.18671875000000002@note_on channel=9 note=38 velocity=112 time=0.00078125@note_on channel=9 note=35 velocity=112 time=0@note_on channel=9 note=42 velocity=112 time=0@note_on channel=9 note=38 velocity=0 time=0.09296875@note_on channel=9 note=42 velocity=0 time=0@note_on channel=9 note=38 velocity=112 time=0.00078125@note_on channel=9 note=42 velocity=112 time=0@note_on channel=9 note=38 velocity=0 time=0.09296875@note_on channel=1 note=53 velocity=0 time=0.1875@note_on channel=7 note=53 velocity=0 time=0@note_on channel=14 note=41 velocity=0 time=0@note_on channel=15 note=65 velocity=0 time=0@note_on channel=0 note=53 velocity=0 time=0@note_on channel=9 note=35 velocity=0 time=0@note_on channel=9 note=42 velocity=0 time=0@note_on channel=7 note=53 velocity=0 time=0@note_on channel=11 note=41 velocity=0 time=0@note_on channel=1 note=49 velocity=112 time=0.00078125@note_on channel=7 note=49 velocity=112 time=0@note_on channel=14 note=37 velocity=112 time=0@note_on channel=15 note=65 velocity=126 time=0@note_on channel=0 note=49 velocity=112 time=0@note_on channel=9 note=42 velocity=112 time=0@note_on channel=7 note=49 velocity=112 time=0@note_on channel=11 note=37 velocity=112 time=0@note_on channel=9 note=42 velocity=0 time=0.18671875000000002@note_on channel=9 note=42 velocity=112 time=0.00078125@note_on channel=9 note=42 velocity=0 time=0.18671875000000002@note_on channel=9 note=38 velocity=112 time=0.00078125@note_on channel=9 note=35 velocity=112 time=0@note_on channel=9 note=42 velocity=112 time=0@note_on channel=9 note=42 velocity=0 time=0.18671875000000002@note_on channel=9 note=42 velocity=112 time=0.00078125@note_on channel=9 note=42 velocity=0 time=0.09296875@note_on channel=9 note=42 velocity=112 time=0.00078125@note_on channel=9 note=38 velocity=0 time=0.09296875@note_on channel=9 note=35 velocity=0 time=0@note_on channel=9 note=42 velocity=0 time=0@note_on channel=9 note=42 velocity=112 time=0.00078125@note_on channel=9 note=42 velocity=0 time=0.18671875000000002@note_on channel=9 note=42 velocity=112 time=0.00078125@note_on channel=9 note=42 velocity=0 time=0.18671875000000002@note_on channel=9 note=38 velocity=112 time=0.00078125@note_on channel=9 note=35 velocity=112 time=0@note_on channel=9 note=42 velocity=112 time=0@note_on channel=9 note=38 velocity=0 time=0.09296875@note_on channel=9 note=42 velocity=0 time=0@note_on channel=9 note=38 velocity=112 time=0.00078125@note_on channel=9 note=42 velocity=112 time=0@note_on channel=9 note=38 velocity=0 time=0.09296875@note_on channel=1 note=49 velocity=0 time=0.1875@note_on channel=7 note=49 velocity=0 time=0@note_on channel=14 note=37 velocity=0 time=0@note_on channel=15 note=65 velocity=0 time=0@note_on channel=0 note=49 velocity=0 time=0@note_on channel=9 note=35 velocity=0 time=0@note_on channel=9 note=42 velocity=0 time=0@note_on channel=7 note=49 velocity=0 time=0@note_on channel=11 note=37 velocity=0 time=0@note_on channel=1 note=48 velocity=112 time=0.00078125@note_on channel=7 note=48 velocity=112 time=0@note_on channel=14 note=36 velocity=112 time=0@note_on channel=15 note=68 velocity=126 time=0@note_on channel=0 note=48 velocity=112 time=0@note_on channel=9 note=42 velocity=112 time=0@note_on channel=7 note=48 velocity=112 time=0@note_on channel=11 note=36 velocity=112 time=0@note_on channel=9 note=42 velocity=0 time=0.18671875000000002@note_on channel=9 note=42 velocity=112 time=0.00078125@note_on channel=9 note=42 velocity=0 time=0.18671875000000002@note_on channel=9 note=38 velocity=112 time=0.00078125@note_on channel=9 note=35 velocity=112 time=0@note_on channel=9 note=42 velocity=112 time=0@note_on channel=9 note=42 velocity=0 time=0.18671875000000002@note_on channel=9 note=42 velocity=112 time=0.00078125@note_on channel=9 note=42 velocity=0 time=0.09296875@note_on channel=9 note=42 velocity=112 time=0.00078125@note_on channel=9 note=38 velocity=0 time=0.09296875@note_on channel=9 note=35 velocity=0 time=0@note_on channel=9 note=42 velocity=0 time=0@note_on channel=9 note=42 velocity=112 time=0.00078125@note_on channel=9 note=42 velocity=0 time=0.18671875000000002@note_on channel=9 note=42 velocity=112 time=0.00078125@note_on channel=9 note=42 velocity=0 time=0.18671875000000002@note_on channel=9 note=38 velocity=112 time=0.00078125@note_on channel=9 note=35 velocity=112 time=0@note_on channel=9 note=42 velocity=112 time=0@note_on channel=9 note=38 velocity=0 time=0.09296875@note_on channel=9 note=42 velocity=0 time=0@note_on channel=9 note=38 velocity=112 time=0.00078125@note_on channel=9 note=42 velocity=112 time=0@note_on channel=9 note=38 velocity=0 time=0.09296875@note_on channel=1 note=48 velocity=0 time=0.1875@note_on channel=7 note=48 velocity=0 time=0@note_on channel=14 note=36 velocity=0 time=0@note_on channel=15 note=68 velocity=0 time=0@note_on channel=0 note=48 velocity=0 time=0@note_on channel=9 note=35 velocity=0 time=0@note_on channel=9 note=42 velocity=0 time=0@note_on channel=7 note=48 velocity=0 time=0@note_on channel=11 note=36 velocity=0 time=0@note_on channel=1 note=52 velocity=112 time=0.00078125@note_on channel=7 note=52 velocity=112 time=0@note_on channel=14 note=40 velocity=112 time=0@note_on channel=15 note=70 velocity=126 time=0@note_on channel=0 note=52 velocity=112 time=0@note_on channel=9 note=42 velocity=112 time=0@note_on channel=7 note=52 velocity=112 time=0@note_on channel=11 note=40 velocity=112 time=0@note_on channel=9 note=42 velocity=0 time=0.18671875000000002@note_on channel=9 note=42 velocity=112 time=0.00078125@note_on channel=9 note=42 velocity=0 time=0.18671875000000002@note_on channel=9 note=38 velocity=112 time=0.00078125@note_on channel=9 note=35 velocity=112 time=0@note_on channel=9 note=42 velocity=112 time=0@note_on channel=9 note=42 velocity=0 time=0.18671875000000002@note_on channel=9 note=42 velocity=112 time=0.00078125@note_on channel=9 note=42 velocity=0 time=0.09296875@note_on channel=9 note=42 velocity=112 time=0.00078125@note_on channel=15 note=70 velocity=0 time=0.09296875@note_on channel=9 note=38 velocity=0 time=0@note_on channel=9 note=35 velocity=0 time=0@note_on channel=9 note=42 velocity=0 time=0@note_on channel=15 note=68 velocity=126 time=0.00078125@note_on channel=9 note=42 velocity=112 time=0@note_on channel=9 note=42 velocity=0 time=0.18671875000000002@note_on channel=9 note=42 velocity=112 time=0.00078125@note_on channel=15 note=68 velocity=0 time=0.18671875000000002@note_on channel=9 note=42 velocity=0 time=0@note_on channel=15 note=67 velocity=126 time=0.00078125@note_on channel=9 note=38 velocity=112 time=0@note_on channel=9 note=35 velocity=112 time=0@note_on channel=9 note=42 velocity=112 time=0@note_on channel=9 note=38 velocity=0 time=0.09296875@note_on channel=9 note=42 velocity=0 time=0@note_on channel=9 note=38 velocity=112 time=0.00078125@note_on channel=9 note=42 velocity=112 time=0@note_on channel=9 note=38 velocity=0 time=0.09296875@note_on channel=1 note=52 velocity=0 time=0.1875@note_on channel=7 note=52 velocity=0 time=0@note_on channel=14 note=40 velocity=0 time=0@note_on channel=15 note=67 velocity=0 time=0@note_on channel=0 note=52 velocity=0 time=0@note_on channel=9 note=35 velocity=0 time=0@note_on channel=9 note=42 velocity=0 time=0@note_on channel=7 note=52 velocity=0 time=0@note_on channel=11 note=40 velocity=0 time=0@note_on channel=1 note=53 velocity=112 time=0.00078125@note_on channel=6 note=53 velocity=126 time=0@note_on channel=7 note=53 velocity=112 time=0@note_on channel=8 note=53 velocity=126 time=0@note_on channel=12 note=53 velocity=126 time=0@note_on channel=14 note=41 velocity=112 time=0@note_on channel=15 note=65 velocity=112 time=0@note_on channel=0 note=53 velocity=112 time=0@note_on channel=9 note=42 velocity=112 time=0@note_on channel=9 note=57 velocity=112 time=0@note_on channel=7 note=53 velocity=112 time=0@note_on channel=11 note=41 velocity=112 time=0@note_on channel=9 note=42 velocity=0 time=0.18671875000000002@note_on channel=9 note=42 velocity=112 time=0.00078125@note_on channel=9 note=42 velocity=0 time=0.18671875000000002@note_on channel=9 note=57 velocity=0 time=0@note_on channel=9 note=38 velocity=112 time=0.00078125@note_on channel=9 note=35 velocity=112 time=0@note_on channel=9 note=42 velocity=112 time=0@note_on channel=6 note=53 velocity=0 time=0.18671875000000002@note_on channel=8 note=53 velocity=0 time=0@note_on channel=12 note=53 velocity=0 time=0@note_on channel=9 note=42 velocity=0 time=0@note_on channel=6 note=53 velocity=126 time=0.00078125@note_on channel=8 note=53 velocity=126 time=0@note_on channel=12 note=53 velocity=126 time=0@note_on channel=9 note=42 velocity=112 time=0@note_on channel=9 note=42 velocity=0 time=0.09296875@note_on channel=9 note=42 velocity=112 time=0.00078125@note_on channel=9 note=38 velocity=0 time=0.09296875@note_on channel=9 note=35 velocity=0 time=0@note_on channel=9 note=42 velocity=0 time=0@note_on channel=9 note=42 velocity=112 time=0.00078125@note_on channel=9 note=42 velocity=0 time=0.18671875000000002@note_on channel=9 note=42 velocity=112 time=0.00078125@note_on channel=9 note=42 velocity=0 time=0.18671875000000002@note_on channel=9 note=38 velocity=112 time=0.00078125@note_on channel=9 note=35 velocity=112 time=0@note_on channel=9 note=42 velocity=112 time=0@note_on channel=9 note=38 velocity=0 time=0.09296875@note_on channel=9 note=42 velocity=0 time=0@note_on channel=9 note=38 velocity=112 time=0.00078125@note_on channel=9 note=42 velocity=112 time=0@note_on channel=9 note=38 velocity=0 time=0.09296875@note_on channel=1 note=53 velocity=0 time=0.1875@note_on channel=6 note=53 velocity=0 time=0@note_on channel=7 note=53 velocity=0 time=0@note_on channel=8 note=53 velocity=0 time=0@note_on channel=12 note=53 velocity=0 time=0@note_on channel=14 note=41 velocity=0 time=0@note_on channel=15 note=65 velocity=0 time=0@note_on channel=0 note=53 velocity=0 time=0@note_on channel=9 note=35 velocity=0 time=0@note_on channel=9 note=42 velocity=0 time=0@note_on channel=7 note=53 velocity=0 time=0@note_on channel=11 note=41 velocity=0 time=0@note_on channel=1 note=49 velocity=112 time=0.00078125@note_on channel=6 note=53 velocity=126 time=0@note_on channel=7 note=49 velocity=112 time=0@note_on channel=8 note=53 velocity=126 time=0@note_on channel=12 note=53 velocity=126 time=0@note_on channel=14 note=37 velocity=112 time=0@note_on channel=15 note=65 velocity=112 time=0@note_on channel=0 note=49 velocity=112 time=0@note_on channel=9 note=42 velocity=112 time=0@note_on channel=7 note=49 velocity=112 time=0@note_on channel=11 note=37 velocity=112 time=0@note_on channel=9 note=42 velocity=0 time=0.18671875000000002@note_on channel=9 note=42 velocity=112 time=0.00078125@note_on channel=9 note=42 velocity=0 time=0.18671875000000002@note_on channel=9 note=38 velocity=112 time=0.00078125@note_on channel=9 note=35 velocity=112 time=0@note_on channel=9 note=42 velocity=112 time=0@note_on channel=6 note=53 velocity=0 time=0.18671875000000002@note_on channel=8 note=53 velocity=0 time=0@note_on channel=12 note=53 velocity=0 time=0@note_on channel=9 note=42 velocity=0 time=0@note_on channel=6 note=53 velocity=126 time=0.00078125@note_on channel=8 note=53 velocity=126 time=0@note_on channel=12 note=53 velocity=126 time=0@note_on channel=9 note=42 velocity=112 time=0@note_on channel=9 note=42 velocity=0 time=0.09296875@note_on channel=9 note=42 velocity=112 time=0.00078125@note_on channel=9 note=38 velocity=0 time=0.09296875@note_on channel=9 note=35 velocity=0 time=0@note_on channel=9 note=42 velocity=0 time=0@note_on channel=9 note=42 velocity=112 time=0.00078125@note_on channel=9 note=42 velocity=0 time=0.18671875000000002@note_on channel=9 note=42 velocity=112 time=0.00078125@note_on channel=6 note=53 velocity=0 time=0.18671875000000002@note_on channel=8 note=53 velocity=0 time=0@note_on channel=12 note=53 velocity=0 time=0@note_on channel=9 note=42 velocity=0 time=0@note_on channel=6 note=56 velocity=126 time=0.00078125@note_on channel=8 note=56 velocity=126 time=0@note_on channel=12 note=56 velocity=126 time=0@note_on channel=9 note=38 velocity=112 time=0@note_on channel=9 note=35 velocity=112 time=0@note_on channel=9 note=42 velocity=112 time=0@note_on channel=9 note=38 velocity=0 time=0.09296875@note_on channel=9 note=42 velocity=0 time=0@note_on channel=9 note=38 velocity=112 time=0.00078125@note_on channel=9 note=42 velocity=112 time=0@note_on channel=9 note=38 velocity=0 time=0.09296875@note_on channel=1 note=49 velocity=0 time=0.1875@note_on channel=6 note=56 velocity=0 time=0@note_on channel=7 note=49 velocity=0 time=0@note_on channel=8 note=56 velocity=0 time=0@note_on channel=12 note=56 velocity=0 time=0@note_on channel=14 note=37 velocity=0 time=0@note_on channel=15 note=65 velocity=0 time=0@note_on channel=0 note=49 velocity=0 time=0@note_on channel=9 note=35 velocity=0 time=0@note_on channel=9 note=42 velocity=0 time=0@note_on channel=7 note=49 velocity=0 time=0@note_on channel=11 note=37 velocity=0 time=0@note_on channel=1 note=48 velocity=112 time=0.00078125@note_on channel=6 note=52 velocity=126 time=0@note_on channel=7 note=48 velocity=112 time=0@note_on channel=8 note=52 velocity=126 time=0@note_on channel=12 note=52 velocity=126 time=0@note_on channel=14 note=36 velocity=112 time=0@note_on channel=15 note=68 velocity=112 time=0@note_on channel=0 note=48 velocity=112 time=0@note_on channel=9 note=42 velocity=112 time=0@note_on channel=7 note=48 velocity=112 time=0@note_on channel=11 note=36 velocity=112 time=0@note_on channel=9 note=42 velocity=0 time=0.18671875000000002@note_on channel=9 note=42 velocity=112 time=0.00078125@note_on channel=9 note=42 velocity=0 time=0.18671875000000002@note_on channel=9 note=38 velocity=112 time=0.00078125@note_on channel=9 note=35 velocity=112 time=0@note_on channel=9 note=42 velocity=112 time=0@note_on channel=6 note=52 velocity=0 time=0.18671875000000002@note_on channel=8 note=52 velocity=0 time=0@note_on channel=12 note=52 velocity=0 time=0@note_on channel=9 note=42 velocity=0 time=0@note_on channel=6 note=52 velocity=126 time=0.00078125@note_on channel=8 note=52 velocity=126 time=0@note_on channel=12 note=52 velocity=126 time=0@note_on channel=9 note=42 velocity=112 time=0@note_on channel=9 note=42 velocity=0 time=0.09296875@note_on channel=9 note=42 velocity=112 time=0.00078125@note_on channel=9 note=38 velocity=0 time=0.09296875@note_on channel=9 note=35 velocity=0 time=0@note_on channel=9 note=42 velocity=0 time=0@note_on channel=9 note=42 velocity=112 time=0.00078125@note_on channel=9 note=42 velocity=0 time=0.18671875000000002@note_on channel=9 note=42 velocity=112 time=0.00078125@note_on channel=6 note=52 velocity=0 time=0.18671875000000002@note_on channel=8 note=52 velocity=0 time=0@note_on channel=12 note=52 velocity=0 time=0@note_on channel=9 note=42 velocity=0 time=0@note_on channel=6 note=60 velocity=126 time=0.00078125@note_on channel=8 note=60 velocity=126 time=0@note_on channel=12 note=60 velocity=126 time=0@note_on channel=9 note=38 velocity=112 time=0@note_on channel=9 note=35 velocity=112 time=0@note_on channel=9 note=42 velocity=112 time=0@note_on channel=9 note=38 velocity=0 time=0.09296875@note_on channel=9 note=42 velocity=0 time=0@note_on channel=9 note=38 velocity=112 time=0.00078125@note_on channel=9 note=42 velocity=112 time=0@note_on channel=9 note=38 velocity=0 time=0.09296875@note_on channel=1 note=48 velocity=0 time=0.1875@note_on channel=6 note=60 velocity=0 time=0@note_on channel=7 note=48 velocity=0 time=0@note_on channel=8 note=60 velocity=0 time=0@note_on channel=12 note=60 velocity=0 time=0@note_on channel=14 note=36 velocity=0 time=0@note_on channel=15 note=68 velocity=0 time=0@note_on channel=0 note=48 velocity=0 time=0@note_on channel=9 note=35 velocity=0 time=0@note_on channel=9 note=42 velocity=0 time=0@note_on channel=7 note=48 velocity=0 time=0@note_on channel=11 note=36 velocity=0 time=0@note_on channel=1 note=52 velocity=112 time=0.00078125@note_on channel=6 note=58 velocity=126 time=0@note_on channel=7 note=52 velocity=112 time=0@note_on channel=8 note=58 velocity=126 time=0@note_on channel=12 note=58 velocity=126 time=0@note_on channel=14 note=40 velocity=112 time=0@note_on channel=15 note=67 velocity=112 time=0@note_on channel=0 note=52 velocity=112 time=0@note_on channel=9 note=42 velocity=112 time=0@note_on channel=7 note=52 velocity=112 time=0@note_on channel=11 note=40 velocity=112 time=0@note_on channel=9 note=42 velocity=0 time=0.18671875000000002@note_on channel=9 note=42 velocity=112 time=0.00078125@note_on channel=6 note=58 velocity=0 time=0.18671875000000002@note_on channel=8 note=58 velocity=0 time=0@note_on channel=12 note=58 velocity=0 time=0@note_on channel=9 note=42 velocity=0 time=0@note_on channel=6 note=56 velocity=126 time=0.00078125@note_on channel=8 note=56 velocity=126 time=0@note_on channel=12 note=56 velocity=126 time=0@note_on channel=9 note=38 velocity=112 time=0@note_on channel=9 note=35 velocity=112 time=0@note_on channel=9 note=42 velocity=112 time=0@note_on channel=9 note=42 velocity=0 time=0.18671875000000002@note_on channel=9 note=42 velocity=112 time=0.00078125@note_on channel=9 note=42 velocity=0 time=0.09296875@note_on channel=9 note=42 velocity=112 time=0.00078125@note_on channel=6 note=56 velocity=0 time=0.09296875@note_on channel=8 note=56 velocity=0 time=0@note_on channel=12 note=56 velocity=0 time=0@note_on channel=9 note=38 velocity=0 time=0@note_on channel=9 note=35 velocity=0 time=0@note_on channel=9 note=42 velocity=0 time=0@note_on channel=6 note=55 velocity=126 time=0.00078125@note_on channel=8 note=55 velocity=126 time=0@note_on channel=12 note=55 velocity=126 time=0@note_on channel=9 note=42 velocity=112 time=0@note_on channel=9 note=42 velocity=0 time=0.18671875000000002@note_on channel=9 note=42 velocity=112 time=0.00078125@note_on channel=9 note=42 velocity=0 time=0.18671875000000002@note_on channel=9 note=38 velocity=112 time=0.00078125@note_on channel=9 note=35 velocity=112 time=0@note_on channel=9 note=42 velocity=112 time=0@note_on channel=9 note=38 velocity=0 time=0.09296875@note_on channel=9 note=42 velocity=0 time=0@note_on channel=9 note=38 velocity=112 time=0.00078125@note_on channel=9 note=42 velocity=112 time=0@note_on channel=9 note=38 velocity=0 time=0.09296875@note_on channel=1 note=52 velocity=0 time=0.1875@note_on channel=6 note=55 velocity=0 time=0@note_on channel=7 note=52 velocity=0 time=0@note_on channel=8 note=55 velocity=0 time=0@note_on channel=12 note=55 velocity=0 time=0@note_on channel=14 note=40 velocity=0 time=0@note_on channel=15 note=67 velocity=0 time=0@note_on channel=0 note=52 velocity=0 time=0@note_on channel=9 note=35 velocity=0 time=0@note_on channel=9 note=42 velocity=0 time=0@note_on channel=7 note=52 velocity=0 time=0@note_on channel=11 note=40 velocity=0 time=0@note_on channel=1 note=53 velocity=112 time=0.00078125@note_on channel=6 note=53 velocity=126 time=0@note_on channel=7 note=53 velocity=112 time=0@note_on channel=8 note=53 velocity=126 time=0@note_on channel=12 note=53 velocity=126 time=0@note_on channel=14 note=41 velocity=112 time=0@note_on channel=15 note=65 velocity=112 time=0@note_on channel=0 note=53 velocity=112 time=0@note_on channel=9 note=42 velocity=112 time=0@note_on channel=7 note=53 velocity=112 time=0@note_on channel=11 note=41 velocity=112 time=0@note_on channel=9 note=42 velocity=0 time=0.18671875000000002@note_on channel=9 note=42 velocity=112 time=0.00078125@note_on channel=9 note=42 velocity=0 time=0.18671875000000002@note_on channel=9 note=38 velocity=112 time=0.00078125@note_on channel=9 note=35 velocity=112 time=0@note_on channel=9 note=42 velocity=112 time=0@note_on channel=6 note=53 velocity=0 time=0.18671875000000002@note_on channel=8 note=53 velocity=0 time=0@note_on channel=12 note=53 velocity=0 time=0@note_on channel=9 note=42 velocity=0 time=0@note_on channel=6 note=53 velocity=126 time=0.00078125@note_on channel=8 note=53 velocity=126 time=0@note_on channel=12 note=53 velocity=126 time=0@note_on channel=9 note=42 velocity=112 time=0@note_on channel=9 note=42 velocity=0 time=0.09296875@note_on channel=9 note=42 velocity=112 time=0.00078125@note_on channel=9 note=38 velocity=0 time=0.09296875@note_on channel=9 note=35 velocity=0 time=0@note_on channel=9 note=42 velocity=0 time=0@note_on channel=9 note=42 velocity=112 time=0.00078125@note_on channel=9 note=42 velocity=0 time=0.18671875000000002@note_on channel=9 note=42 velocity=112 time=0.00078125@note_on channel=9 note=42 velocity=0 time=0.18671875000000002@note_on channel=9 note=38 velocity=112 time=0.00078125@note_on channel=9 note=35 velocity=112 time=0@note_on channel=9 note=42 velocity=112 time=0@note_on channel=9 note=38 velocity=0 time=0.09296875@note_on channel=9 note=42 velocity=0 time=0@note_on channel=9 note=38 velocity=112 time=0.00078125@note_on channel=9 note=42 velocity=112 time=0@note_on channel=9 note=38 velocity=0 time=0.09296875@note_on channel=1 note=53 velocity=0 time=0.1875@note_on channel=6 note=53 velocity=0 time=0@note_on channel=7 note=53 velocity=0 time=0@note_on channel=8 note=53 velocity=0 time=0@note_on channel=12 note=53 velocity=0 time=0@note_on channel=14 note=41 velocity=0 time=0@note_on channel=15 note=65 velocity=0 time=0@note_on channel=0 note=53 velocity=0 time=0@note_on channel=9 note=35 velocity=0 time=0@note_on channel=9 note=42 velocity=0 time=0@note_on channel=7 note=53 velocity=0 time=0@note_on channel=11 note=41 velocity=0 time=0@note_on channel=1 note=49 velocity=112 time=0.00078125@note_on channel=6 note=53 velocity=126 time=0@note_on channel=7 note=49 velocity=112 time=0@note_on channel=8 note=53 velocity=126 time=0@note_on channel=12 note=53 velocity=126 time=0@note_on channel=14 note=37 velocity=112 time=0@note_on channel=15 note=65 velocity=112 time=0@note_on channel=0 note=49 velocity=112 time=0@note_on channel=9 note=42 velocity=112 time=0@note_on channel=7 note=49 velocity=112 time=0@note_on channel=11 note=37 velocity=112 time=0@note_on channel=9 note=42 velocity=0 time=0.18671875000000002@note_on channel=9 note=42 velocity=112 time=0.00078125@note_on channel=9 note=42 velocity=0 time=0.18671875000000002@note_on channel=9 note=38 velocity=112 time=0.00078125@note_on channel=9 note=35 velocity=112 time=0@note_on channel=9 note=42 velocity=112 time=0@note_on channel=6 note=53 velocity=0 time=0.18671875000000002@note_on channel=8 note=53 velocity=0 time=0@note_on channel=12 note=53 velocity=0 time=0@note_on channel=9 note=42 velocity=0 time=0@note_on channel=6 note=53 velocity=126 time=0.00078125@note_on channel=8 note=53 velocity=126 time=0@note_on channel=12 note=53 velocity=126 time=0@note_on channel=9 note=42 velocity=112 time=0@note_on channel=9 note=42 velocity=0 time=0.09296875@note_on channel=9 note=42 velocity=112 time=0.00078125@note_on channel=9 note=38 velocity=0 time=0.09296875@note_on channel=9 note=35 velocity=0 time=0@note_on channel=9 note=42 velocity=0 time=0@note_on channel=9 note=42 velocity=112 time=0.00078125@note_on channel=9 note=42 velocity=0 time=0.18671875000000002@note_on channel=9 note=42 velocity=112 time=0.00078125@note_on channel=6 note=53 velocity=0 time=0.18671875000000002@note_on channel=8 note=53 velocity=0 time=0@note_on channel=12 note=53 velocity=0 time=0@note_on channel=9 note=42 velocity=0 time=0@note_on channel=6 note=56 velocity=126 time=0.00078125@note_on channel=8 note=56 velocity=126 time=0@note_on channel=12 note=56 velocity=126 time=0@note_on channel=9 note=38 velocity=112 time=0@note_on channel=9 note=35 velocity=112 time=0@note_on channel=9 note=42 velocity=112 time=0@note_on channel=9 note=38 velocity=0 time=0.09296875@note_on channel=9 note=42 velocity=0 time=0@note_on channel=9 note=38 velocity=112 time=0.00078125@note_on channel=9 note=42 velocity=112 time=0@note_on channel=9 note=38 velocity=0 time=0.09296875@note_on channel=1 note=49 velocity=0 time=0.1875@note_on channel=6 note=56 velocity=0 time=0@note_on channel=7 note=49 velocity=0 time=0@note_on channel=8 note=56 velocity=0 time=0@note_on channel=12 note=56 velocity=0 time=0@note_on channel=14 note=37 velocity=0 time=0@note_on channel=15 note=65 velocity=0 time=0@note_on channel=0 note=49 velocity=0 time=0@note_on channel=9 note=35 velocity=0 time=0@note_on channel=9 note=42 velocity=0 time=0@note_on channel=7 note=49 velocity=0 time=0@note_on channel=11 note=37 velocity=0 time=0@note_on channel=1 note=48 velocity=112 time=0.00078125@note_on channel=6 note=52 velocity=126 time=0@note_on channel=7 note=48 velocity=112 time=0@note_on channel=8 note=52 velocity=126 time=0@note_on channel=12 note=52 velocity=126 time=0@note_on channel=14 note=36 velocity=112 time=0@note_on channel=15 note=68 velocity=112 time=0@note_on channel=0 note=48 velocity=112 time=0@note_on channel=9 note=42 velocity=112 time=0@note_on channel=7 note=48 velocity=112 time=0@note_on channel=11 note=36 velocity=112 time=0@note_on channel=9 note=42 velocity=0 time=0.18671875000000002@note_on channel=9 note=42 velocity=112 time=0.00078125@note_on channel=9 note=42 velocity=0 time=0.18671875000000002@note_on channel=9 note=38 velocity=112 time=0.00078125@note_on channel=9 note=35 velocity=112 time=0@note_on channel=9 note=42 velocity=112 time=0@note_on channel=6 note=52 velocity=0 time=0.18671875000000002@note_on channel=8 note=52 velocity=0 time=0@note_on channel=12 note=52 velocity=0 time=0@note_on channel=9 note=42 velocity=0 time=0@note_on channel=6 note=52 velocity=126 time=0.00078125@note_on channel=8 note=52 velocity=126 time=0@note_on channel=12 note=52 velocity=126 time=0@note_on channel=9 note=42 velocity=112 time=0@note_on channel=9 note=42 velocity=0 time=0.09296875@note_on channel=9 note=42 velocity=112 time=0.00078125@note_on channel=9 note=38 velocity=0 time=0.09296875@note_on channel=9 note=35 velocity=0 time=0@note_on channel=9 note=42 velocity=0 time=0@note_on channel=9 note=42 velocity=112 time=0.00078125@note_on channel=9 note=42 velocity=0 time=0.18671875000000002@note_on channel=9 note=42 velocity=112 time=0.00078125@note_on channel=6 note=52 velocity=0 time=0.18671875000000002@note_on channel=8 note=52 velocity=0 time=0@note_on channel=12 note=52 velocity=0 time=0@note_on channel=9 note=42 velocity=0 time=0@note_on channel=6 note=48 velocity=126 time=0.00078125@note_on channel=8 note=48 velocity=126 time=0@note_on channel=12 note=48 velocity=126 time=0@note_on channel=9 note=38 velocity=112 time=0@note_on channel=9 note=35 velocity=112 time=0@note_on channel=9 note=42 velocity=112 time=0@note_on channel=9 note=38 velocity=0 time=0.09296875@note_on channel=9 note=42 velocity=0 time=0@note_on channel=9 note=38 velocity=112 time=0.00078125@note_on channel=9 note=42 velocity=112 time=0@note_on channel=9 note=38 velocity=0 time=0.09296875@note_on channel=1 note=48 velocity=0 time=0.1875@note_on channel=6 note=48 velocity=0 time=0@note_on channel=7 note=48 velocity=0 time=0@note_on channel=8 note=48 velocity=0 time=0@note_on channel=12 note=48 velocity=0 time=0@note_on channel=14 note=36 velocity=0 time=0@note_on channel=15 note=68 velocity=0 time=0@note_on channel=0 note=48 velocity=0 time=0@note_on channel=9 note=35 velocity=0 time=0@note_on channel=9 note=42 velocity=0 time=0@note_on channel=7 note=48 velocity=0 time=0@note_on channel=11 note=36 velocity=0 time=0@note_on channel=1 note=52 velocity=112 time=0.00078125@note_on channel=6 note=48 velocity=126 time=0@note_on channel=7 note=52 velocity=112 time=0@note_on channel=8 note=48 velocity=126 time=0@note_on channel=12 note=48 velocity=126 time=0@note_on channel=14 note=40 velocity=112 time=0@note_on channel=15 note=70 velocity=112 time=0@note_on channel=0 note=52 velocity=112 time=0@note_on channel=9 note=42 velocity=112 time=0@note_on channel=7 note=52 velocity=112 time=0@note_on channel=11 note=40 velocity=112 time=0@note_on channel=9 note=42 velocity=0 time=0.18671875000000002@note_on channel=9 note=42 velocity=112 time=0.00078125@note_on channel=9 note=42 velocity=0 time=0.18671875000000002@note_on channel=9 note=38 velocity=112 time=0.00078125@note_on channel=9 note=35 velocity=112 time=0@note_on channel=9 note=42 velocity=112 time=0@note_on channel=9 note=42 velocity=0 time=0.18671875000000002@note_on channel=9 note=42 velocity=112 time=0.00078125@note_on channel=9 note=42 velocity=0 time=0.09296875@note_on channel=9 note=42 velocity=112 time=0.00078125@note_on channel=6 note=48 velocity=0 time=0.09296875@note_on channel=8 note=48 velocity=0 time=0@note_on channel=12 note=48 velocity=0 time=0@note_on channel=15 note=70 velocity=0 time=0@note_on channel=9 note=38 velocity=0 time=0@note_on channel=9 note=35 velocity=0 time=0@note_on channel=9 note=42 velocity=0 time=0@note_on channel=6 note=52 velocity=126 time=0.00078125@note_on channel=8 note=52 velocity=126 time=0@note_on channel=12 note=52 velocity=126 time=0@note_on channel=15 note=68 velocity=112 time=0@note_on channel=9 note=42 velocity=112 time=0@note_on channel=9 note=42 velocity=0 time=0.18671875000000002@note_on channel=9 note=42 velocity=112 time=0.00078125@note_on channel=15 note=68 velocity=0 time=0.18671875000000002@note_on channel=9 note=42 velocity=0 time=0@note_on channel=15 note=67 velocity=112 time=0.00078125@note_on channel=9 note=38 velocity=112 time=0@note_on channel=9 note=35 velocity=112 time=0@note_on channel=9 note=42 velocity=112 time=0@note_on channel=9 note=38 velocity=0 time=0.09296875@note_on channel=9 note=42 velocity=0 time=0@note_on channel=9 note=38 velocity=112 time=0.00078125@note_on channel=9 note=42 velocity=112 time=0@note_on channel=9 note=38 velocity=0 time=0.09296875@note_on channel=1 note=52 velocity=0 time=0.1875@note_on channel=6 note=52 velocity=0 time=0@note_on channel=7 note=52 velocity=0 time=0@note_on channel=8 note=52 velocity=0 time=0@note_on channel=12 note=52 velocity=0 time=0@note_on channel=14 note=40 velocity=0 time=0@note_on channel=15 note=67 velocity=0 time=0@note_on channel=0 note=52 velocity=0 time=0@note_on channel=9 note=35 velocity=0 time=0@note_on channel=9 note=42 velocity=0 time=0@note_on channel=7 note=52 velocity=0 time=0@note_on channel=11 note=40 velocity=0 time=0@note_on channel=1 note=53 velocity=112 time=0.00078125@note_on channel=7 note=53 velocity=112 time=0@note_on channel=12 note=53 velocity=126 time=0@note_on channel=13 note=53 velocity=80 time=0@note_on channel=14 note=41 velocity=112 time=0@note_on channel=15 note=65 velocity=112 time=0@note_on channel=0 note=53 velocity=112 time=0@note_on channel=9 note=42 velocity=112 time=0@note_on channel=9 note=57 velocity=112 time=0@note_on channel=7 note=53 velocity=112 time=0@note_on channel=11 note=41 velocity=112 time=0@note_on channel=9 note=42 velocity=0 time=0.18671875000000002@note_on channel=9 note=42 velocity=112 time=0.00078125@note_on channel=9 note=42 velocity=0 time=0.18671875000000002@note_on channel=9 note=57 velocity=0 time=0@note_on channel=9 note=38 velocity=112 time=0.00078125@note_on channel=9 note=35 velocity=112 time=0@note_on channel=9 note=42 velocity=112 time=0@note_on channel=9 note=42 velocity=0 time=0.18671875000000002@note_on channel=9 note=42 velocity=112 time=0.00078125@note_on channel=9 note=42 velocity=0 time=0.09296875@note_on channel=9 note=42 velocity=112 time=0.00078125@note_on channel=9 note=38 velocity=0 time=0.09296875@note_on channel=9 note=35 velocity=0 time=0@note_on channel=9 note=42 velocity=0 time=0@note_on channel=9 note=42 velocity=112 time=0.00078125@note_on channel=9 note=42 velocity=0 time=0.18671875000000002@note_on channel=9 note=42 velocity=112 time=0.00078125@note_on channel=9 note=42 velocity=0 time=0.18671875000000002@note_on channel=9 note=38 velocity=112 time=0.00078125@note_on channel=9 note=35 velocity=112 time=0@note_on channel=9 note=42 velocity=112 time=0@note_on channel=9 note=38 velocity=0 time=0.09296875@note_on channel=9 note=42 velocity=0 time=0@note_on channel=9 note=38 velocity=112 time=0.00078125@note_on channel=9 note=42 velocity=112 time=0@note_on channel=9 note=38 velocity=0 time=0.09296875@note_on channel=1 note=53 velocity=0 time=0.1875@note_on channel=7 note=53 velocity=0 time=0@note_on channel=12 note=53 velocity=0 time=0@note_on channel=13 note=53 velocity=0 time=0@note_on channel=14 note=41 velocity=0 time=0@note_on channel=15 note=65 velocity=0 time=0@note_on channel=0 note=53 velocity=0 time=0@note_on channel=9 note=35 velocity=0 time=0@note_on channel=9 note=42 velocity=0 time=0@note_on channel=7 note=53 velocity=0 time=0@note_on channel=11 note=41 velocity=0 time=0@note_on channel=1 note=48 velocity=112 time=0.00078125@note_on channel=7 note=48 velocity=112 time=0@note_on channel=12 note=48 velocity=126 time=0@note_on channel=13 note=48 velocity=80 time=0@note_on channel=14 note=36 velocity=112 time=0@note_on channel=15 note=60 velocity=112 time=0@note_on channel=0 note=48 velocity=112 time=0@note_on channel=9 note=42 velocity=112 time=0@note_on channel=7 note=48 velocity=112 time=0@note_on channel=11 note=36 velocity=112 time=0@note_on channel=9 note=42 velocity=0 time=0.18671875000000002@note_on channel=9 note=42 velocity=112 time=0.00078125@note_on channel=9 note=42 velocity=0 time=0.18671875000000002@note_on channel=9 note=38 velocity=112 time=0.00078125@note_on channel=9 note=35 velocity=112 time=0@note_on channel=9 note=42 velocity=112 time=0@note_on channel=9 note=42 velocity=0 time=0.18671875000000002@note_on channel=9 note=42 velocity=112 time=0.00078125@note_on channel=9 note=42 velocity=0 time=0.09296875@note_on channel=9 note=42 velocity=112 time=0.00078125@note_on channel=9 note=38 velocity=0 time=0.09296875@note_on channel=9 note=35 velocity=0 time=0@note_on channel=9 note=42 velocity=0 time=0@note_on channel=9 note=42 velocity=112 time=0.00078125@note_on channel=9 note=42 velocity=0 time=0.18671875000000002@note_on channel=9 note=42 velocity=112 time=0.00078125@note_on channel=9 note=42 velocity=0 time=0.18671875000000002@note_on channel=9 note=38 velocity=112 time=0.00078125@note_on channel=9 note=35 velocity=112 time=0@note_on channel=9 note=42 velocity=112 time=0@note_on channel=9 note=38 velocity=0 time=0.09296875@note_on channel=9 note=42 velocity=0 time=0@note_on channel=9 note=38 velocity=112 time=0.00078125@note_on channel=9 note=42 velocity=112 time=0@note_on channel=9 note=38 velocity=0 time=0.09296875@note_on channel=1 note=48 velocity=0 time=0.1875@note_on channel=7 note=48 velocity=0 time=0@note_on channel=12 note=48 velocity=0 time=0@note_on channel=13 note=48 velocity=0 time=0@note_on channel=14 note=36 velocity=0 time=0@note_on channel=15 note=60 velocity=0 time=0@note_on channel=0 note=48 velocity=0 time=0@note_on channel=9 note=35 velocity=0 time=0@note_on channel=9 note=42 velocity=0 time=0@note_on channel=7 note=48 velocity=0 time=0@note_on channel=11 note=36 velocity=0 time=0@note_on channel=1 note=49 velocity=112 time=0.00078125@note_on channel=7 note=49 velocity=112 time=0@note_on channel=12 note=49 velocity=126 time=0@note_on channel=13 note=49 velocity=80 time=0@note_on channel=14 note=37 velocity=112 time=0@note_on channel=15 note=61 velocity=112 time=0@note_on channel=0 note=49 velocity=112 time=0@note_on channel=9 note=42 velocity=112 time=0@note_on channel=7 note=49 velocity=112 time=0@note_on channel=11 note=37 velocity=112 time=0@note_on channel=9 note=42 velocity=0 time=0.18671875000000002@note_on channel=9 note=42 velocity=112 time=0.00078125@note_on channel=9 note=42 velocity=0 time=0.18671875000000002@note_on channel=9 note=38 velocity=112 time=0.00078125@note_on channel=9 note=35 velocity=112 time=0@note_on channel=9 note=42 velocity=112 time=0@note_on channel=9 note=42 velocity=0 time=0.18671875000000002@note_on channel=9 note=42 velocity=112 time=0.00078125@note_on channel=9 note=42 velocity=0 time=0.09296875@note_on channel=9 note=42 velocity=112 time=0.00078125@note_on channel=9 note=38 velocity=0 time=0.09296875@note_on channel=9 note=35 velocity=0 time=0@note_on channel=9 note=42 velocity=0 time=0@note_on channel=9 note=42 velocity=112 time=0.00078125@note_on channel=9 note=42 velocity=0 time=0.18671875000000002@note_on channel=9 note=42 velocity=112 time=0.00078125@note_on channel=9 note=42 velocity=0 time=0.18671875000000002@note_on channel=9 note=38 velocity=112 time=0.00078125@note_on channel=9 note=35 velocity=112 time=0@note_on channel=9 note=42 velocity=112 time=0@note_on channel=9 note=38 velocity=0 time=0.09296875@note_on channel=9 note=42 velocity=0 time=0@note_on channel=9 note=38 velocity=112 time=0.00078125@note_on channel=9 note=42 velocity=112 time=0@note_on channel=9 note=38 velocity=0 time=0.09296875@note_on channel=1 note=49 velocity=0 time=0.1875@note_on channel=7 note=49 velocity=0 time=0@note_on channel=12 note=49 velocity=0 time=0@note_on channel=13 note=49 velocity=0 time=0@note_on channel=14 note=37 velocity=0 time=0@note_on channel=15 note=61 velocity=0 time=0@note_on channel=0 note=49 velocity=0 time=0@note_on channel=9 note=35 velocity=0 time=0@note_on channel=9 note=42 velocity=0 time=0@note_on channel=7 note=49 velocity=0 time=0@note_on channel=11 note=37 velocity=0 time=0@note_on channel=1 note=52 velocity=112 time=0.00078125@note_on channel=7 note=52 velocity=112 time=0@note_on channel=12 note=52 velocity=126 time=0@note_on channel=13 note=52 velocity=80 time=0@note_on channel=14 note=40 velocity=112 time=0@note_on channel=15 note=64 velocity=112 time=0@note_on channel=0 note=52 velocity=112 time=0@note_on channel=9 note=42 velocity=112 time=0@note_on channel=7 note=52 velocity=112 time=0@note_on channel=11 note=40 velocity=112 time=0@note_on channel=9 note=42 velocity=0 time=0.18671875000000002@note_on channel=9 note=42 velocity=112 time=0.00078125@note_on channel=9 note=42 velocity=0 time=0.18671875000000002@note_on channel=9 note=38 velocity=112 time=0.00078125@note_on channel=9 note=35 velocity=112 time=0@note_on channel=9 note=42 velocity=112 time=0@note_on channel=9 note=42 velocity=0 time=0.18671875000000002@note_on channel=9 note=42 velocity=112 time=0.00078125@note_on channel=9 note=42 velocity=0 time=0.09296875@note_on channel=9 note=42 velocity=112 time=0.00078125@note_on channel=9 note=38 velocity=0 time=0.09296875@note_on channel=9 note=35 velocity=0 time=0@note_on channel=9 note=42 velocity=0 time=0@note_on channel=9 note=42 velocity=112 time=0.00078125@note_on channel=9 note=42 velocity=0 time=0.18671875000000002@note_on channel=9 note=42 velocity=112 time=0.00078125@note_on channel=9 note=42 velocity=0 time=0.18671875000000002@note_on channel=9 note=38 velocity=112 time=0.00078125@note_on channel=9 note=35 velocity=112 time=0@note_on channel=9 note=42 velocity=112 time=0@note_on channel=9 note=38 velocity=0 time=0.09296875@note_on channel=9 note=42 velocity=0 time=0@note_on channel=9 note=38 velocity=112 time=0.00078125@note_on channel=9 note=42 velocity=112 time=0@note_on channel=9 note=38 velocity=0 time=0.09296875@note_on channel=1 note=52 velocity=0 time=0.1875@note_on channel=7 note=52 velocity=0 time=0@note_on channel=12 note=52 velocity=0 time=0@note_on channel=13 note=52 velocity=0 time=0@note_on channel=14 note=40 velocity=0 time=0@note_on channel=15 note=64 velocity=0 time=0@note_on channel=0 note=52 velocity=0 time=0@note_on channel=9 note=35 velocity=0 time=0@note_on channel=9 note=42 velocity=0 time=0@note_on channel=7 note=52 velocity=0 time=0@note_on channel=11 note=40 velocity=0 time=0@note_on channel=1 note=60 velocity=112 time=0.00078125@note_on channel=5 note=60 velocity=126 time=0@note_on channel=6 note=60 velocity=126 time=0@note_on channel=7 note=60 velocity=112 time=0@note_on channel=8 note=60 velocity=126 time=0@note_on channel=10 note=72 velocity=126 time=0@note_on channel=12 note=48 velocity=126 time=0@note_on channel=13 note=48 velocity=80 time=0@note_on channel=14 note=48 velocity=112 time=0@note_on channel=15 note=65 velocity=112 time=0@note_on channel=0 note=60 velocity=112 time=0@note_on channel=9 note=42 velocity=112 time=0@note_on channel=7 note=48 velocity=112 time=0@note_on channel=11 note=36 velocity=112 time=0@note_on channel=9 note=42 velocity=0 time=0.18671875000000002@note_on channel=9 note=42 velocity=112 time=0.00078125@note_on channel=9 note=42 velocity=0 time=0.18671875000000002@note_on channel=9 note=38 velocity=112 time=0.00078125@note_on channel=9 note=35 velocity=112 time=0@note_on channel=9 note=42 velocity=112 time=0@note_on channel=9 note=42 velocity=0 time=0.18671875000000002@note_on channel=9 note=42 velocity=112 time=0.00078125@note_on channel=9 note=42 velocity=0 time=0.09296875@note_on channel=9 note=42 velocity=112 time=0.00078125@note_on channel=9 note=38 velocity=0 time=0.09296875@note_on channel=9 note=35 velocity=0 time=0@note_on channel=9 note=42 velocity=0 time=0@note_on channel=9 note=42 velocity=112 time=0.00078125@note_on channel=9 note=42 velocity=0 time=0.18671875000000002@note_on channel=9 note=42 velocity=112 time=0.00078125@note_on channel=9 note=42 velocity=0 time=0.18671875000000002@note_on channel=9 note=38 velocity=112 time=0.00078125@note_on channel=9 note=35 velocity=112 time=0@note_on channel=9 note=42 velocity=112 time=0@note_on channel=9 note=38 velocity=0 time=0.09296875@note_on channel=9 note=42 velocity=0 time=0@note_on channel=9 note=38 velocity=112 time=0.00078125@note_on channel=9 note=42 velocity=112 time=0@note_on channel=9 note=38 velocity=0 time=0.09296875@note_on channel=1 note=60 velocity=0 time=0.1875@note_on channel=5 note=60 velocity=0 time=0@note_on channel=6 note=60 velocity=0 time=0@note_on channel=7 note=60 velocity=0 time=0@note_on channel=8 note=60 velocity=0 time=0@note_on channel=10 note=72 velocity=0 time=0@note_on channel=12 note=48 velocity=0 time=0@note_on channel=13 note=48 velocity=0 time=0@note_on channel=14 note=48 velocity=0 time=0@note_on channel=15 note=65 velocity=0 time=0@note_on channel=0 note=60 velocity=0 time=0@note_on channel=9 note=35 velocity=0 time=0@note_on channel=9 note=42 velocity=0 time=0@note_on channel=7 note=48 velocity=0 time=0@note_on channel=11 note=36 velocity=0 time=0@note_on channel=1 note=56 velocity=112 time=0.00078125@note_on channel=5 note=61 velocity=126 time=0@note_on channel=6 note=61 velocity=126 time=0@note_on channel=7 note=56 velocity=112 time=0@note_on channel=8 note=61 velocity=126 time=0@note_on channel=10 note=73 velocity=126 time=0@note_on channel=12 note=44 velocity=126 time=0@note_on channel=13 note=44 velocity=80 time=0@note_on channel=14 note=44 velocity=112 time=0@note_on channel=15 note=61 velocity=112 time=0@note_on channel=0 note=56 velocity=112 time=0@note_on channel=9 note=42 velocity=112 time=0@note_on channel=7 note=44 velocity=112 time=0@note_on channel=11 note=32 velocity=112 time=0@note_on channel=9 note=42 velocity=0 time=0.18671875000000002@note_on channel=9 note=42 velocity=112 time=0.00078125@note_on channel=9 note=42 velocity=0 time=0.18671875000000002@note_on channel=9 note=38 velocity=112 time=0.00078125@note_on channel=9 note=35 velocity=112 time=0@note_on channel=9 note=42 velocity=112 time=0@note_on channel=9 note=42 velocity=0 time=0.18671875000000002@note_on channel=9 note=42 velocity=112 time=0.00078125@note_on channel=9 note=42 velocity=0 time=0.09296875@note_on channel=9 note=42 velocity=112 time=0.00078125@note_on channel=9 note=38 velocity=0 time=0.09296875@note_on channel=9 note=35 velocity=0 time=0@note_on channel=9 note=42 velocity=0 time=0@note_on channel=9 note=42 velocity=112 time=0.00078125@note_on channel=9 note=42 velocity=0 time=0.18671875000000002@note_on channel=9 note=42 velocity=112 time=0.00078125@note_on channel=9 note=42 velocity=0 time=0.18671875000000002@note_on channel=9 note=38 velocity=112 time=0.00078125@note_on channel=9 note=35 velocity=112 time=0@note_on channel=9 note=42 velocity=112 time=0@note_on channel=9 note=38 velocity=0 time=0.09296875@note_on channel=9 note=42 velocity=0 time=0@note_on channel=9 note=38 velocity=112 time=0.00078125@note_on channel=9 note=42 velocity=112 time=0@note_on channel=9 note=38 velocity=0 time=0.09296875@note_on channel=1 note=56 velocity=0 time=0.1875@note_on channel=5 note=61 velocity=0 time=0@note_on channel=6 note=61 velocity=0 time=0@note_on channel=7 note=56 velocity=0 time=0@note_on channel=8 note=61 velocity=0 time=0@note_on channel=10 note=73 velocity=0 time=0@note_on channel=12 note=44 velocity=0 time=0@note_on channel=13 note=44 velocity=0 time=0@note_on channel=14 note=44 velocity=0 time=0@note_on channel=15 note=61 velocity=0 time=0@note_on channel=0 note=56 velocity=0 time=0@note_on channel=9 note=35 velocity=0 time=0@note_on channel=9 note=42 velocity=0 time=0@note_on channel=7 note=44 velocity=0 time=0@note_on channel=11 note=32 velocity=0 time=0@note_on channel=1 note=53 velocity=112 time=0.00078125@note_on channel=5 note=58 velocity=126 time=0@note_on channel=6 note=58 velocity=126 time=0@note_on channel=7 note=53 velocity=112 time=0@note_on channel=8 note=58 velocity=126 time=0@note_on channel=10 note=70 velocity=126 time=0@note_on channel=12 note=41 velocity=126 time=0@note_on channel=13 note=41 velocity=80 time=0@note_on channel=14 note=41 velocity=112 time=0@note_on channel=15 note=70 velocity=112 time=0@note_on channel=0 note=53 velocity=112 time=0@note_on channel=9 note=42 velocity=112 time=0@note_on channel=7 note=41 velocity=112 time=0@note_on channel=11 note=29 velocity=112 time=0@note_on channel=9 note=42 velocity=0 time=0.18671875000000002@note_on channel=9 note=42 velocity=112 time=0.00078125@note_on channel=9 note=42 velocity=0 time=0.18671875000000002@note_on channel=9 note=38 velocity=112 time=0.00078125@note_on channel=9 note=35 velocity=112 time=0@note_on channel=9 note=42 velocity=112 time=0@note_on channel=9 note=42 velocity=0 time=0.18671875000000002@note_on channel=9 note=42 velocity=112 time=0.00078125@note_on channel=9 note=42 velocity=0 time=0.09296875@note_on channel=9 note=42 velocity=112 time=0.00078125@note_on channel=9 note=38 velocity=0 time=0.09296875@note_on channel=9 note=35 velocity=0 time=0@note_on channel=9 note=42 velocity=0 time=0@note_on channel=9 note=42 velocity=112 time=0.00078125@note_on channel=9 note=42 velocity=0 time=0.18671875000000002@note_on channel=9 note=42 velocity=112 time=0.00078125@note_on channel=9 note=42 velocity=0 time=0.18671875000000002@note_on channel=9 note=38 velocity=112 time=0.00078125@note_on channel=9 note=35 velocity=112 time=0@note_on channel=9 note=42 velocity=112 time=0@note_on channel=9 note=38 velocity=0 time=0.09296875@note_on channel=9 note=42 velocity=0 time=0@note_on channel=9 note=38 velocity=112 time=0.00078125@note_on channel=9 note=42 velocity=112 time=0@note_on channel=9 note=38 velocity=0 time=0.09296875@note_on channel=1 note=53 velocity=0 time=0.1875@note_on channel=5 note=58 velocity=0 time=0@note_on channel=6 note=58 velocity=0 time=0@note_on channel=7 note=53 velocity=0 time=0@note_on channel=8 note=58 velocity=0 time=0@note_on channel=10 note=70 velocity=0 time=0@note_on channel=12 note=41 velocity=0 time=0@note_on channel=13 note=41 velocity=0 time=0@note_on channel=14 note=41 velocity=0 time=0@note_on channel=15 note=70 velocity=0 time=0@note_on channel=0 note=53 velocity=0 time=0@note_on channel=9 note=35 velocity=0 time=0@note_on channel=9 note=42 velocity=0 time=0@note_on channel=7 note=41 velocity=0 time=0@note_on channel=11 note=29 velocity=0 time=0@note_on channel=1 note=55 velocity=112 time=0.00078125@note_on channel=5 note=55 velocity=126 time=0@note_on channel=6 note=55 velocity=126 time=0@note_on channel=7 note=55 velocity=112 time=0@note_on channel=8 note=55 velocity=126 time=0@note_on channel=10 note=67 velocity=126 time=0@note_on channel=12 note=43 velocity=126 time=0@note_on channel=13 note=43 velocity=80 time=0@note_on channel=14 note=43 velocity=112 time=0@note_on channel=15 note=67 velocity=112 time=0@note_on channel=0 note=55 velocity=112 time=0@note_on channel=9 note=42 velocity=112 time=0@note_on channel=7 note=43 velocity=112 time=0@note_on channel=11 note=31 velocity=112 time=0@note_on channel=9 note=42 velocity=0 time=0.18671875000000002@note_on channel=9 note=42 velocity=100 time=0.00078125@note_on channel=9 note=42 velocity=0 time=0.18671875000000002@note_on channel=9 note=38 velocity=104 time=0.00078125@note_on channel=9 note=35 velocity=104 time=0@note_on channel=9 note=42 velocity=88 time=0@note_on channel=9 note=42 velocity=0 time=0.18671875000000002@note_on channel=9 note=42 velocity=76 time=0.00078125@note_on channel=9 note=42 velocity=0 time=0.09296875@note_on channel=9 note=42 velocity=70 time=0.00078125@note_on channel=9 note=38 velocity=0 time=0.09296875@note_on channel=9 note=35 velocity=0 time=0@note_on channel=9 note=42 velocity=0 time=0@note_on channel=9 note=42 velocity=64 time=0.00078125@note_on channel=9 note=42 velocity=0 time=0.18671875000000002@note_on channel=9 note=38 velocity=92 time=0.00078125@note_on channel=9 note=42 velocity=52 time=0@note_on channel=9 note=38 velocity=0 time=0.09296875@note_on channel=9 note=38 velocity=90 time=0.00078125@note_on channel=9 note=38 velocity=0 time=0.09296875@note_on channel=9 note=42 velocity=0 time=0@note_on channel=9 note=38 velocity=88 time=0.00078125@note_on channel=9 note=35 velocity=88 time=0@note_on channel=9 note=42 velocity=40 time=0@note_on channel=9 note=38 velocity=0 time=0.09296875@note_on channel=9 note=42 velocity=0 time=0@note_on channel=9 note=38 velocity=86 time=0.00078125@note_on channel=9 note=42 velocity=34 time=0@note_on channel=9 note=38 velocity=0 time=0.09296875@note_on channel=9 note=38 velocity=84 time=0.00078125@note_on channel=9 note=38 velocity=0 time=0.09296875@note_on channel=9 note=38 velocity=82 time=0.00078125@note_on channel=1 note=55 velocity=0 time=0.09296875@note_on channel=5 note=55 velocity=0 time=0@note_on channel=6 note=55 velocity=0 time=0@note_on channel=7 note=55 velocity=0 time=0@note_on channel=8 note=55 velocity=0 time=0@note_on channel=10 note=67 velocity=0 time=0@note_on channel=12 note=43 velocity=0 time=0@note_on channel=13 note=43 velocity=0 time=0@note_on channel=14 note=43 velocity=0 time=0@note_on channel=15 note=67 velocity=0 time=0@note_on channel=0 note=55 velocity=0 time=0@note_on channel=9 note=38 velocity=0 time=0@note_on channel=9 note=35 velocity=0 time=0@note_on channel=9 note=42 velocity=0 time=0@note_on channel=7 note=43 velocity=0 time=0@note_on channel=11 note=31 velocity=0 time=0@note_on channel=0 note=77 velocity=96 time=0.00078125@note_on channel=1 note=77 velocity=96 time=0@note_on channel=1 note=53 velocity=96 time=0@note_on channel=2 note=89 velocity=96 time=0@note_on channel=5 note=65 velocity=126 time=0@note_on channel=6 note=65 velocity=126 time=0@note_on channel=7 note=53 velocity=96 time=0@note_on channel=12 note=53 velocity=96 time=0@note_on channel=13 note=53 velocity=96 time=0@note_on channel=14 note=41 velocity=96 time=0@note_on channel=0 note=53 velocity=96 time=0@note_on channel=9 note=42 velocity=16 time=0@note_on channel=9 note=57 velocity=112 time=0@note_on channel=1 note=77 velocity=126 time=0@note_on channel=4 note=65 velocity=126 time=0@note_on channel=11 note=41 velocity=96 time=0@note_on channel=0 note=77 velocity=0 time=0.08828125@note_on channel=1 note=77 velocity=0 time=0.004687500000000001@note_on channel=2 note=89 velocity=0 time=0@note_on channel=0 note=72 velocity=96 time=0.00078125@note_on channel=1 note=72 velocity=96 time=0@note_on channel=2 note=84 velocity=96 time=0@note_on channel=0 note=72 velocity=0 time=0.08828125@note_on channel=1 note=72 velocity=0 time=0.004687500000000001@note_on channel=2 note=84 velocity=0 time=0@note_on channel=9 note=42 velocity=0 time=0@note_on channel=0 note=68 velocity=96 time=0.00078125@note_on channel=1 note=68 velocity=96 time=0@note_on channel=2 note=80 velocity=96 time=0@note_on channel=9 note=42 velocity=16 time=0@note_on channel=0 note=68 velocity=0 time=0.08828125@note_on channel=1 note=68 velocity=0 time=0.004687500000000001@note_on channel=2 note=80 velocity=0 time=0@note_on channel=0 note=65 velocity=96 time=0.00078125@note_on channel=1 note=65 velocity=96 time=0@note_on channel=2 note=77 velocity=96 time=0@note_on channel=0 note=65 velocity=0 time=0.08828125@note_on channel=1 note=65 velocity=0 time=0.004687500000000001@note_on channel=2 note=77 velocity=0 time=0@note_on channel=9 note=42 velocity=0 time=0@note_on channel=9 note=57 velocity=0 time=0@note_on channel=0 note=77 velocity=96 time=0.00078125@note_on channel=1 note=77 velocity=96 time=0@note_on channel=2 note=89 velocity=96 time=0@note_on channel=9 note=38 velocity=80 time=0@note_on channel=9 note=35 velocity=80 time=0@note_on channel=9 note=42 velocity=16 time=0@note_on channel=0 note=77 velocity=0 time=0.08828125@note_on channel=1 note=77 velocity=0 time=0.004687500000000001@note_on channel=2 note=89 velocity=0 time=0@note_on channel=0 note=72 velocity=96 time=0.00078125@note_on channel=1 note=72 velocity=96 time=0@note_on channel=2 note=84 velocity=96 time=0@note_on channel=0 note=72 velocity=0 time=0.08828125@note_on channel=1 note=72 velocity=0 time=0.004687500000000001@note_on channel=2 note=84 velocity=0 time=0@note_on channel=9 note=42 velocity=0 time=0@note_on channel=0 note=68 velocity=96 time=0.00078125@note_on channel=1 note=68 velocity=96 time=0@note_on channel=2 note=80 velocity=96 time=0@note_on channel=9 note=42 velocity=16 time=0@note_on channel=0 note=68 velocity=0 time=0.08828125@note_on channel=1 note=68 velocity=0 time=0.004687500000000001@note_on channel=2 note=80 velocity=0 time=0@note_on channel=9 note=42 velocity=0 time=0@note_on channel=0 note=65 velocity=96 time=0.00078125@note_on channel=1 note=65 velocity=96 time=0@note_on channel=2 note=77 velocity=96 time=0@note_on channel=9 note=42 velocity=16 time=0@note_on channel=0 note=65 velocity=0 time=0.08828125@note_on channel=1 note=65 velocity=0 time=0.004687500000000001@note_on channel=2 note=77 velocity=0 time=0@note_on channel=9 note=38 velocity=0 time=0@note_on channel=9 note=35 velocity=0 time=0@note_on channel=9 note=42 velocity=0 time=0@note_on channel=0 note=77 velocity=96 time=0.00078125@note_on channel=1 note=77 velocity=96 time=0@note_on channel=2 note=89 velocity=96 time=0@note_on channel=9 note=42 velocity=16 time=0@note_on channel=0 note=77 velocity=0 time=0.08828125@note_on channel=1 note=77 velocity=0 time=0.004687500000000001@note_on channel=2 note=89 velocity=0 time=0@note_on channel=0 note=72 velocity=96 time=0.00078125@note_on channel=1 note=72 velocity=96 time=0@note_on channel=2 note=84 velocity=96 time=0@note_on channel=0 note=72 velocity=0 time=0.08828125@note_on channel=1 note=72 velocity=0 time=0.004687500000000001@note_on channel=2 note=84 velocity=0 time=0@note_on channel=9 note=42 velocity=0 time=0@note_on channel=0 note=68 velocity=96 time=0.00078125@note_on channel=1 note=68 velocity=96 time=0@note_on channel=2 note=80 velocity=96 time=0@note_on channel=9 note=42 velocity=16 time=0@note_on channel=0 note=68 velocity=0 time=0.08828125@note_on channel=1 note=68 velocity=0 time=0.004687500000000001@note_on channel=2 note=80 velocity=0 time=0@note_on channel=0 note=65 velocity=96 time=0.00078125@note_on channel=1 note=65 velocity=96 time=0@note_on channel=2 note=77 velocity=96 time=0@note_on channel=0 note=65 velocity=0 time=0.08828125@note_on channel=1 note=65 velocity=0 time=0.004687500000000001@note_on channel=1 note=53 velocity=0 time=0@note_on channel=2 note=77 velocity=0 time=0@note_on channel=5 note=65 velocity=0 time=0@note_on channel=6 note=65 velocity=0 time=0@note_on channel=7 note=53 velocity=0 time=0@note_on channel=12 note=53 velocity=0 time=0@note_on channel=13 note=53 velocity=0 time=0@note_on channel=14 note=41 velocity=0 time=0@note_on channel=0 note=53 velocity=0 time=0@note_on channel=9 note=42 velocity=0 time=0@note_on channel=1 note=77 velocity=0 time=0@note_on channel=4 note=65 velocity=0 time=0@note_on channel=11 note=41 velocity=0 time=0@note_on channel=0 note=77 velocity=96 time=0.00078125@note_on channel=1 note=77 velocity=96 time=0@note_on channel=1 note=56 velocity=96 time=0@note_on channel=2 note=89 velocity=96 time=0@note_on channel=5 note=60 velocity=126 time=0@note_on channel=6 note=60 velocity=126 time=0@note_on channel=7 note=56 velocity=96 time=0@note_on channel=12 note=56 velocity=96 time=0@note_on channel=13 note=56 velocity=96 time=0@note_on channel=14 note=44 velocity=96 time=0@note_on channel=0 note=56 velocity=96 time=0@note_on channel=9 note=38 velocity=80 time=0@note_on channel=9 note=35 velocity=80 time=0@note_on channel=9 note=42 velocity=16 time=0@note_on channel=1 note=72 velocity=126 time=0@note_on channel=4 note=60 velocity=126 time=0@note_on channel=11 note=44 velocity=96 time=0@note_on channel=0 note=77 velocity=0 time=0.08828125@note_on channel=1 note=77 velocity=0 time=0.004687500000000001@note_on channel=2 note=89 velocity=0 time=0@note_on channel=9 note=38 velocity=0 time=0@note_on channel=9 note=42 velocity=0 time=0@note_on channel=0 note=72 velocity=96 time=0.00078125@note_on channel=1 note=72 velocity=96 time=0@note_on channel=2 note=84 velocity=96 time=0@note_on channel=9 note=38 velocity=80 time=0@note_on channel=9 note=42 velocity=16 time=0@note_on channel=0 note=72 velocity=0 time=0.08828125@note_on channel=1 note=72 velocity=0 time=0.004687500000000001@note_on channel=2 note=84 velocity=0 time=0@note_on channel=9 note=38 velocity=0 time=0@note_on channel=0 note=68 velocity=96 time=0.00078125@note_on channel=1 note=68 velocity=96 time=0@note_on channel=2 note=80 velocity=96 time=0@note_on channel=0 note=68 velocity=0 time=0.08828125@note_on channel=1 note=68 velocity=0 time=0.004687500000000001@note_on channel=2 note=80 velocity=0 time=0@note_on channel=0 note=65 velocity=96 time=0.00078125@note_on channel=1 note=65 velocity=96 time=0@note_on channel=2 note=77 velocity=96 time=0@note_on channel=0 note=65 velocity=0 time=0.08828125@note_on channel=1 note=65 velocity=0 time=0.004687500000000001@note_on channel=1 note=56 velocity=0 time=0@note_on channel=2 note=77 velocity=0 time=0@note_on channel=5 note=60 velocity=0 time=0@note_on channel=6 note=60 velocity=0 time=0@note_on channel=7 note=56 velocity=0 time=0@note_on channel=12 note=56 velocity=0 time=0@note_on channel=13 note=56 velocity=0 time=0@note_on channel=14 note=44 velocity=0 time=0@note_on channel=0 note=56 velocity=0 time=0@note_on channel=9 note=35 velocity=0 time=0@note_on channel=9 note=42 velocity=0 time=0@note_on channel=1 note=72 velocity=0 time=0@note_on channel=4 note=60 velocity=0 time=0@note_on channel=11 note=44 velocity=0 time=0@note_on channel=0 note=77 velocity=96 time=0.00078125@note_on channel=1 note=77 velocity=96 time=0@note_on channel=1 note=53 velocity=96 time=0@note_on channel=2 note=89 velocity=96 time=0@note_on channel=5 note=56 velocity=126 time=0@note_on channel=6 note=56 velocity=126 time=0@note_on channel=7 note=53 velocity=96 time=0@note_on channel=12 note=53 velocity=96 time=0@note_on channel=13 note=53 velocity=96 time=0@note_on channel=14 note=41 velocity=96 time=0@note_on channel=0 note=53 velocity=96 time=0@note_on channel=9 note=42 velocity=16 time=0@note_on channel=1 note=68 velocity=126 time=0@note_on channel=4 note=56 velocity=126 time=0@note_on channel=11 note=41 velocity=96 time=0@note_on channel=0 note=77 velocity=0 time=0.08828125@note_on channel=1 note=77 velocity=0 time=0.004687500000000001@note_on channel=2 note=89 velocity=0 time=0@note_on channel=0 note=72 velocity=96 time=0.00078125@note_on channel=1 note=72 velocity=96 time=0@note_on channel=2 note=84 velocity=96 time=0@note_on channel=0 note=72 velocity=0 time=0.08828125@note_on channel=1 note=72 velocity=0 time=0.004687500000000001@note_on channel=2 note=84 velocity=0 time=0@note_on channel=9 note=42 velocity=0 time=0@note_on channel=0 note=68 velocity=96 time=0.00078125@note_on channel=1 note=68 velocity=96 time=0@note_on channel=2 note=80 velocity=96 time=0@note_on channel=9 note=42 velocity=16 time=0@note_on channel=0 note=68 velocity=0 time=0.08828125@note_on channel=1 note=68 velocity=0 time=0.004687500000000001@note_on channel=2 note=80 velocity=0 time=0@note_on channel=0 note=65 velocity=96 time=0.00078125@note_on channel=1 note=65 velocity=96 time=0@note_on channel=2 note=77 velocity=96 time=0@note_on channel=0 note=65 velocity=0 time=0.08828125@note_on channel=1 note=65 velocity=0 time=0.004687500000000001@note_on channel=2 note=77 velocity=0 time=0@note_on channel=9 note=42 velocity=0 time=0@note_on channel=0 note=77 velocity=96 time=0.00078125@note_on channel=1 note=77 velocity=96 time=0@note_on channel=2 note=89 velocity=96 time=0@note_on channel=9 note=38 velocity=80 time=0@note_on channel=9 note=35 velocity=80 time=0@note_on channel=9 note=42 velocity=16 time=0@note_on channel=0 note=77 velocity=0 time=0.08828125@note_on channel=1 note=77 velocity=0 time=0.004687500000000001@note_on channel=2 note=89 velocity=0 time=0@note_on channel=0 note=72 velocity=96 time=0.00078125@note_on channel=1 note=72 velocity=96 time=0@note_on channel=2 note=84 velocity=96 time=0@note_on channel=0 note=72 velocity=0 time=0.08828125@note_on channel=1 note=72 velocity=0 time=0.004687500000000001@note_on channel=2 note=84 velocity=0 time=0@note_on channel=9 note=42 velocity=0 time=0@note_on channel=0 note=68 velocity=96 time=0.00078125@note_on channel=1 note=68 velocity=96 time=0@note_on channel=2 note=80 velocity=96 time=0@note_on channel=9 note=42 velocity=16 time=0@note_on channel=0 note=68 velocity=0 time=0.08828125@note_on channel=1 note=68 velocity=0 time=0.004687500000000001@note_on channel=2 note=80 velocity=0 time=0@note_on channel=9 note=42 velocity=0 time=0@note_on channel=0 note=65 velocity=96 time=0.00078125@note_on channel=1 note=65 velocity=96 time=0@note_on channel=2 note=77 velocity=96 time=0@note_on channel=9 note=42 velocity=16 time=0@note_on channel=0 note=65 velocity=0 time=0.08828125@note_on channel=1 note=65 velocity=0 time=0.004687500000000001@note_on channel=1 note=53 velocity=0 time=0@note_on channel=2 note=77 velocity=0 time=0@note_on channel=7 note=53 velocity=0 time=0@note_on channel=12 note=53 velocity=0 time=0@note_on channel=13 note=53 velocity=0 time=0@note_on channel=14 note=41 velocity=0 time=0@note_on channel=0 note=53 velocity=0 time=0@note_on channel=9 note=38 velocity=0 time=0@note_on channel=9 note=35 velocity=0 time=0@note_on channel=9 note=42 velocity=0 time=0@note_on channel=11 note=41 velocity=0 time=0@note_on channel=0 note=77 velocity=96 time=0.00078125@note_on channel=1 note=77 velocity=96 time=0@note_on channel=1 note=56 velocity=96 time=0@note_on channel=2 note=89 velocity=96 time=0@note_on channel=7 note=56 velocity=96 time=0@note_on channel=12 note=56 velocity=96 time=0@note_on channel=13 note=56 velocity=96 time=0@note_on channel=14 note=44 velocity=96 time=0@note_on channel=0 note=56 velocity=96 time=0@note_on channel=9 note=42 velocity=16 time=0@note_on channel=11 note=44 velocity=96 time=0@note_on channel=0 note=77 velocity=0 time=0.08828125@note_on channel=1 note=77 velocity=0 time=0.004687500000000001@note_on channel=2 note=89 velocity=0 time=0@note_on channel=0 note=72 velocity=96 time=0.00078125@note_on channel=1 note=72 velocity=96 time=0@note_on channel=2 note=84 velocity=96 time=0@note_on channel=0 note=72 velocity=0 time=0.08828125@note_on channel=1 note=72 velocity=0 time=0.004687500000000001@note_on channel=2 note=84 velocity=0 time=0@note_on channel=9 note=42 velocity=0 time=0@note_on channel=0 note=68 velocity=96 time=0.00078125@note_on channel=1 note=68 velocity=96 time=0@note_on channel=2 note=80 velocity=96 time=0@note_on channel=9 note=42 velocity=16 time=0@note_on channel=0 note=68 velocity=0 time=0.08828125@note_on channel=1 note=68 velocity=0 time=0.004687500000000001@note_on channel=2 note=80 velocity=0 time=0@note_on channel=0 note=65 velocity=96 time=0.00078125@note_on channel=1 note=65 velocity=96 time=0@note_on channel=2 note=77 velocity=96 time=0@note_on channel=0 note=65 velocity=0 time=0.08828125@note_on channel=1 note=65 velocity=0 time=0.004687500000000001@note_on channel=2 note=77 velocity=0 time=0@note_on channel=5 note=56 velocity=0 time=0@note_on channel=6 note=56 velocity=0 time=0@note_on channel=9 note=42 velocity=0 time=0@note_on channel=1 note=68 velocity=0 time=0@note_on channel=4 note=56 velocity=0 time=0@note_on channel=0 note=77 velocity=96 time=0.00078125@note_on channel=1 note=77 velocity=96 time=0@note_on channel=2 note=89 velocity=96 time=0@note_on channel=5 note=53 velocity=126 time=0@note_on channel=6 note=53 velocity=126 time=0@note_on channel=9 note=38 velocity=80 time=0@note_on channel=9 note=35 velocity=80 time=0@note_on channel=9 note=42 velocity=16 time=0@note_on channel=1 note=65 velocity=126 time=0@note_on channel=4 note=53 velocity=126 time=0@note_on channel=0 note=77 velocity=0 time=0.08828125@note_on channel=1 note=77 velocity=0 time=0.004687500000000001@note_on channel=2 note=89 velocity=0 time=0@note_on channel=9 note=38 velocity=0 time=0@note_on channel=9 note=42 velocity=0 time=0@note_on channel=0 note=72 velocity=96 time=0.00078125@note_on channel=1 note=72 velocity=96 time=0@note_on channel=2 note=84 velocity=96 time=0@note_on channel=9 note=38 velocity=80 time=0@note_on channel=9 note=42 velocity=16 time=0@note_on channel=0 note=72 velocity=0 time=0.08828125@note_on channel=1 note=72 velocity=0 time=0.004687500000000001@note_on channel=2 note=84 velocity=0 time=0@note_on channel=9 note=38 velocity=0 time=0@note_on channel=0 note=68 velocity=96 time=0.00078125@note_on channel=1 note=68 velocity=96 time=0@note_on channel=2 note=80 velocity=96 time=0@note_on channel=0 note=68 velocity=0 time=0.08828125@note_on channel=1 note=68 velocity=0 time=0.004687500000000001@note_on channel=2 note=80 velocity=0 time=0@note_on channel=0 note=65 velocity=96 time=0.00078125@note_on channel=1 note=65 velocity=96 time=0@note_on channel=2 note=77 velocity=96 time=0@note_on channel=0 note=65 velocity=0 time=0.08828125@note_on channel=1 note=65 velocity=0 time=0.004687500000000001@note_on channel=1 note=56 velocity=0 time=0@note_on channel=2 note=77 velocity=0 time=0@note_on channel=5 note=53 velocity=0 time=0@note_on channel=6 note=53 velocity=0 time=0@note_on channel=7 note=56 velocity=0 time=0@note_on channel=12 note=56 velocity=0 time=0@note_on channel=13 note=56 velocity=0 time=0@note_on channel=14 note=44 velocity=0 time=0@note_on channel=0 note=56 velocity=0 time=0@note_on channel=9 note=35 velocity=0 time=0@note_on channel=9 note=42 velocity=0 time=0@note_on channel=1 note=65 velocity=0 time=0@note_on channel=4 note=53 velocity=0 time=0@note_on channel=11 note=44 velocity=0 time=0@note_on channel=0 note=79 velocity=96 time=0.00078125@note_on channel=1 note=79 velocity=96 time=0@note_on channel=1 note=55 velocity=96 time=0@note_on channel=2 note=91 velocity=96 time=0@note_on channel=5 note=55 velocity=126 time=0@note_on channel=6 note=55 velocity=126 time=0@note_on channel=7 note=55 velocity=96 time=0@note_on channel=12 note=55 velocity=96 time=0@note_on channel=13 note=55 velocity=96 time=0@note_on channel=14 note=43 velocity=96 time=0@note_on channel=0 note=55 velocity=96 time=0@note_on channel=9 note=42 velocity=16 time=0@note_on channel=1 note=67 velocity=126 time=0@note_on channel=4 note=55 velocity=126 time=0@note_on channel=11 note=43 velocity=96 time=0@note_on channel=0 note=79 velocity=0 time=0.08828125@note_on channel=1 note=79 velocity=0 time=0.004687500000000001@note_on channel=2 note=91 velocity=0 time=0@note_on channel=0 note=73 velocity=96 time=0.00078125@note_on channel=1 note=73 velocity=96 time=0@note_on channel=2 note=85 velocity=96 time=0@note_on channel=0 note=73 velocity=0 time=0.08828125@note_on channel=1 note=73 velocity=0 time=0.004687500000000001@note_on channel=2 note=85 velocity=0 time=0@note_on channel=9 note=42 velocity=0 time=0@note_on channel=0 note=70 velocity=96 time=0.00078125@note_on channel=1 note=70 velocity=96 time=0@note_on channel=2 note=82 velocity=96 time=0@note_on channel=9 note=42 velocity=16 time=0@note_on channel=0 note=70 velocity=0 time=0.08828125@note_on channel=1 note=70 velocity=0 time=0.004687500000000001@note_on channel=2 note=82 velocity=0 time=0@note_on channel=0 note=67 velocity=96 time=0.00078125@note_on channel=1 note=67 velocity=96 time=0@note_on channel=2 note=79 velocity=96 time=0@note_on channel=0 note=67 velocity=0 time=0.08828125@note_on channel=1 note=67 velocity=0 time=0.004687500000000001@note_on channel=2 note=79 velocity=0 time=0@note_on channel=9 note=42 velocity=0 time=0@note_on channel=0 note=79 velocity=96 time=0.00078125@note_on channel=1 note=79 velocity=96 time=0@note_on channel=2 note=91 velocity=96 time=0@note_on channel=9 note=38 velocity=80 time=0@note_on channel=9 note=35 velocity=80 time=0@note_on channel=9 note=42 velocity=16 time=0@note_on channel=0 note=79 velocity=0 time=0.08828125@note_on channel=1 note=79 velocity=0 time=0.004687500000000001@note_on channel=2 note=91 velocity=0 time=0@note_on channel=0 note=73 velocity=96 time=0.00078125@note_on channel=1 note=73 velocity=96 time=0@note_on channel=2 note=85 velocity=96 time=0@note_on channel=0 note=73 velocity=0 time=0.08828125@note_on channel=1 note=73 velocity=0 time=0.004687500000000001@note_on channel=2 note=85 velocity=0 time=0@note_on channel=9 note=42 velocity=0 time=0@note_on channel=0 note=70 velocity=96 time=0.00078125@note_on channel=1 note=70 velocity=96 time=0@note_on channel=2 note=82 velocity=96 time=0@note_on channel=9 note=42 velocity=16 time=0@note_on channel=0 note=70 velocity=0 time=0.08828125@note_on channel=1 note=70 velocity=0 time=0.004687500000000001@note_on channel=2 note=82 velocity=0 time=0@note_on channel=9 note=42 velocity=0 time=0@note_on channel=0 note=67 velocity=96 time=0.00078125@note_on channel=1 note=67 velocity=96 time=0@note_on channel=2 note=79 velocity=96 time=0@note_on channel=9 note=42 velocity=16 time=0@note_on channel=0 note=67 velocity=0 time=0.08828125@note_on channel=1 note=67 velocity=0 time=0.004687500000000001@note_on channel=2 note=79 velocity=0 time=0@note_on channel=9 note=38 velocity=0 time=0@note_on channel=9 note=35 velocity=0 time=0@note_on channel=9 note=42 velocity=0 time=0@note_on channel=0 note=79 velocity=96 time=0.00078125@note_on channel=1 note=79 velocity=96 time=0@note_on channel=2 note=91 velocity=96 time=0@note_on channel=9 note=42 velocity=16 time=0@note_on channel=0 note=79 velocity=0 time=0.08828125@note_on channel=1 note=79 velocity=0 time=0.004687500000000001@note_on channel=2 note=91 velocity=0 time=0@note_on channel=0 note=73 velocity=96 time=0.00078125@note_on channel=1 note=73 velocity=96 time=0@note_on channel=2 note=85 velocity=96 time=0@note_on channel=0 note=73 velocity=0 time=0.08828125@note_on channel=1 note=73 velocity=0 time=0.004687500000000001@note_on channel=2 note=85 velocity=0 time=0@note_on channel=9 note=42 velocity=0 time=0@note_on channel=0 note=70 velocity=96 time=0.00078125@note_on channel=1 note=70 velocity=96 time=0@note_on channel=2 note=82 velocity=96 time=0@note_on channel=9 note=42 velocity=16 time=0@note_on channel=0 note=70 velocity=0 time=0.08828125@note_on channel=1 note=70 velocity=0 time=0.004687500000000001@note_on channel=2 note=82 velocity=0 time=0@note_on channel=0 note=67 velocity=96 time=0.00078125@note_on channel=1 note=67 velocity=96 time=0@note_on channel=2 note=79 velocity=96 time=0@note_on channel=0 note=67 velocity=0 time=0.08828125@note_on channel=1 note=67 velocity=0 time=0.004687500000000001@note_on channel=2 note=79 velocity=0 time=0@note_on channel=6 note=55 velocity=0 time=0@note_on channel=9 note=42 velocity=0 time=0@note_on channel=4 note=55 velocity=0 time=0@note_on channel=0 note=79 velocity=96 time=0.00078125@note_on channel=1 note=79 velocity=96 time=0@note_on channel=2 note=91 velocity=96 time=0@note_on channel=6 note=57 velocity=126 time=0@note_on channel=9 note=38 velocity=80 time=0@note_on channel=9 note=35 velocity=80 time=0@note_on channel=9 note=42 velocity=16 time=0@note_on channel=4 note=57 velocity=126 time=0@note_on channel=0 note=79 velocity=0 time=0.08828125@note_on channel=1 note=79 velocity=0 time=0.004687500000000001@note_on channel=2 note=91 velocity=0 time=0@note_on channel=9 note=38 velocity=0 time=0@note_on channel=9 note=42 velocity=0 time=0@note_on channel=0 note=73 velocity=96 time=0.00078125@note_on channel=1 note=73 velocity=96 time=0@note_on channel=2 note=85 velocity=96 time=0@note_on channel=9 note=38 velocity=80 time=0@note_on channel=9 note=42 velocity=16 time=0@note_on channel=0 note=73 velocity=0 time=0.08828125@note_on channel=1 note=73 velocity=0 time=0.004687500000000001@note_on channel=2 note=85 velocity=0 time=0@note_on channel=9 note=38 velocity=0 time=0@note_on channel=0 note=70 velocity=96 time=0.00078125@note_on channel=1 note=70 velocity=96 time=0@note_on channel=2 note=82 velocity=96 time=0@note_on channel=0 note=70 velocity=0 time=0.08828125@note_on channel=1 note=70 velocity=0 time=0.004687500000000001@note_on channel=2 note=82 velocity=0 time=0@note_on channel=0 note=67 velocity=96 time=0.00078125@note_on channel=1 note=67 velocity=96 time=0@note_on channel=2 note=79 velocity=96 time=0@note_on channel=0 note=67 velocity=0 time=0.08828125@note_on channel=1 note=67 velocity=0 time=0.004687500000000001@note_on channel=1 note=55 velocity=0 time=0@note_on channel=2 note=79 velocity=0 time=0@note_on channel=5 note=55 velocity=0 time=0@note_on channel=6 note=57 velocity=0 time=0@note_on channel=7 note=55 velocity=0 time=0@note_on channel=12 note=55 velocity=0 time=0@note_on channel=13 note=55 velocity=0 time=0@note_on channel=14 note=43 velocity=0 time=0@note_on channel=0 note=55 velocity=0 time=0@note_on channel=9 note=35 velocity=0 time=0@note_on channel=9 note=42 velocity=0 time=0@note_on channel=1 note=67 velocity=0 time=0@note_on channel=4 note=57 velocity=0 time=0@note_on channel=11 note=43 velocity=0 time=0@note_on channel=0 note=79 velocity=96 time=0.00078125@note_on channel=1 note=79 velocity=96 time=0@note_on channel=1 note=48 velocity=96 time=0@note_on channel=2 note=91 velocity=96 time=0@note_on channel=5 note=67 velocity=126 time=0@note_on channel=6 note=58 velocity=126 time=0@note_on channel=7 note=48 velocity=96 time=0@note_on channel=12 note=48 velocity=96 time=0@note_on channel=13 note=48 velocity=96 time=0@note_on channel=14 note=36 velocity=96 time=0@note_on channel=0 note=48 velocity=96 time=0@note_on channel=9 note=42 velocity=16 time=0@note_on channel=1 note=79 velocity=126 time=0@note_on channel=4 note=58 velocity=126 time=0@note_on channel=11 note=36 velocity=96 time=0@note_on channel=0 note=79 velocity=0 time=0.08828125@note_on channel=1 note=79 velocity=0 time=0.004687500000000001@note_on channel=2 note=91 velocity=0 time=0@note_on channel=0 note=73 velocity=96 time=0.00078125@note_on channel=1 note=73 velocity=96 time=0@note_on channel=2 note=85 velocity=96 time=0@note_on channel=0 note=73 velocity=0 time=0.08828125@note_on channel=1 note=73 velocity=0 time=0.004687500000000001@note_on channel=2 note=85 velocity=0 time=0@note_on channel=9 note=42 velocity=0 time=0@note_on channel=0 note=70 velocity=96 time=0.00078125@note_on channel=1 note=70 velocity=96 time=0@note_on channel=2 note=82 velocity=96 time=0@note_on channel=9 note=42 velocity=16 time=0@note_on channel=0 note=70 velocity=0 time=0.08828125@note_on channel=1 note=70 velocity=0 time=0.004687500000000001@note_on channel=2 note=82 velocity=0 time=0@note_on channel=0 note=67 velocity=96 time=0.00078125@note_on channel=1 note=67 velocity=96 time=0@note_on channel=2 note=79 velocity=96 time=0@note_on channel=0 note=67 velocity=0 time=0.08828125@note_on channel=1 note=67 velocity=0 time=0.004687500000000001@note_on channel=2 note=79 velocity=0 time=0@note_on channel=9 note=42 velocity=0 time=0@note_on channel=0 note=79 velocity=96 time=0.00078125@note_on channel=1 note=79 velocity=96 time=0@note_on channel=2 note=91 velocity=96 time=0@note_on channel=9 note=38 velocity=80 time=0@note_on channel=9 note=35 velocity=80 time=0@note_on channel=9 note=42 velocity=16 time=0@note_on channel=0 note=79 velocity=0 time=0.08828125@note_on channel=1 note=79 velocity=0 time=0.004687500000000001@note_on channel=2 note=91 velocity=0 time=0@note_on channel=0 note=73 velocity=96 time=0.00078125@note_on channel=1 note=73 velocity=96 time=0@note_on channel=2 note=85 velocity=96 time=0@note_on channel=0 note=73 velocity=0 time=0.08828125@note_on channel=1 note=73 velocity=0 time=0.004687500000000001@note_on channel=2 note=85 velocity=0 time=0@note_on channel=9 note=42 velocity=0 time=0@note_on channel=0 note=70 velocity=96 time=0.00078125@note_on channel=1 note=70 velocity=96 time=0@note_on channel=2 note=82 velocity=96 time=0@note_on channel=9 note=42 velocity=16 time=0@note_on channel=0 note=70 velocity=0 time=0.08828125@note_on channel=1 note=70 velocity=0 time=0.004687500000000001@note_on channel=2 note=82 velocity=0 time=0@note_on channel=9 note=42 velocity=0 time=0@note_on channel=0 note=67 velocity=96 time=0.00078125@note_on channel=1 note=67 velocity=96 time=0@note_on channel=2 note=79 velocity=96 time=0@note_on channel=9 note=42 velocity=16 time=0@note_on channel=0 note=67 velocity=0 time=0.08828125@note_on channel=1 note=67 velocity=0 time=0.004687500000000001@note_on channel=2 note=79 velocity=0 time=0@note_on channel=9 note=38 velocity=0 time=0@note_on channel=9 note=35 velocity=0 time=0@note_on channel=9 note=42 velocity=0 time=0@note_on channel=0 note=79 velocity=96 time=0.00078125@note_on channel=1 note=79 velocity=96 time=0@note_on channel=2 note=91 velocity=96 time=0@note_on channel=9 note=42 velocity=16 time=0@note_on channel=0 note=79 velocity=0 time=0.08828125@note_on channel=1 note=79 velocity=0 time=0.004687500000000001@note_on channel=2 note=91 velocity=0 time=0@note_on channel=0 note=73 velocity=96 time=0.00078125@note_on channel=1 note=73 velocity=96 time=0@note_on channel=2 note=85 velocity=96 time=0@note_on channel=0 note=73 velocity=0 time=0.08828125@note_on channel=1 note=73 velocity=0 time=0.004687500000000001@note_on channel=2 note=85 velocity=0 time=0@note_on channel=9 note=42 velocity=0 time=0@note_on channel=0 note=70 velocity=96 time=0.00078125@note_on channel=1 note=70 velocity=96 time=0@note_on channel=2 note=82 velocity=96 time=0@note_on channel=9 note=42 velocity=16 time=0@note_on channel=0 note=70 velocity=0 time=0.08828125@note_on channel=1 note=70 velocity=0 time=0.004687500000000001@note_on channel=2 note=82 velocity=0 time=0@note_on channel=0 note=67 velocity=96 time=0.00078125@note_on channel=1 note=67 velocity=96 time=0@note_on channel=2 note=79 velocity=96 time=0@note_on channel=0 note=67 velocity=0 time=0.08828125@note_on channel=1 note=67 velocity=0 time=0.004687500000000001@note_on channel=2 note=79 velocity=0 time=0@note_on channel=9 note=42 velocity=0 time=0@note_on channel=0 note=79 velocity=96 time=0.00078125@note_on channel=1 note=79 velocity=96 time=0@note_on channel=2 note=91 velocity=96 time=0@note_on channel=9 note=38 velocity=80 time=0@note_on channel=9 note=35 velocity=80 time=0@note_on channel=9 note=42 velocity=16 time=0@note_on channel=0 note=79 velocity=0 time=0.08828125@note_on channel=1 note=79 velocity=0 time=0.004687500000000001@note_on channel=2 note=91 velocity=0 time=0@note_on channel=9 note=38 velocity=0 time=0@note_on channel=9 note=42 velocity=0 time=0@note_on channel=0 note=73 velocity=96 time=0.00078125@note_on channel=1 note=73 velocity=96 time=0@note_on channel=2 note=85 velocity=96 time=0@note_on channel=9 note=38 velocity=80 time=0@note_on channel=9 note=42 velocity=16 time=0@note_on channel=0 note=73 velocity=0 time=0.08828125@note_on channel=1 note=73 velocity=0 time=0.004687500000000001@note_on channel=2 note=85 velocity=0 time=0@note_on channel=9 note=38 velocity=0 time=0@note_on channel=0 note=70 velocity=96 time=0.00078125@note_on channel=1 note=70 velocity=96 time=0@note_on channel=2 note=82 velocity=96 time=0@note_on channel=0 note=70 velocity=0 time=0.08828125@note_on channel=1 note=70 velocity=0 time=0.004687500000000001@note_on channel=2 note=82 velocity=0 time=0@note_on channel=0 note=67 velocity=96 time=0.00078125@note_on channel=1 note=67 velocity=96 time=0@note_on channel=2 note=79 velocity=96 time=0@note_on channel=0 note=67 velocity=0 time=0.08828125@note_on channel=1 note=67 velocity=0 time=0.004687500000000001@note_on channel=1 note=48 velocity=0 time=0@note_on channel=2 note=79 velocity=0 time=0@note_on channel=5 note=67 velocity=0 time=0@note_on channel=6 note=58 velocity=0 time=0@note_on channel=7 note=48 velocity=0 time=0@note_on channel=12 note=48 velocity=0 time=0@note_on channel=13 note=48 velocity=0 time=0@note_on channel=14 note=36 velocity=0 time=0@note_on channel=0 note=48 velocity=0 time=0@note_on channel=9 note=35 velocity=0 time=0@note_on channel=9 note=42 velocity=0 time=0@note_on channel=1 note=79 velocity=0 time=0@note_on channel=4 note=58 velocity=0 time=0@note_on channel=11 note=36 velocity=0 time=0@note_on channel=0 note=82 velocity=96 time=0.00078125@note_on channel=1 note=82 velocity=96 time=0@note_on channel=1 note=49 velocity=96 time=0@note_on channel=2 note=94 velocity=96 time=0@note_on channel=5 note=70 velocity=126 time=0@note_on channel=6 note=53 velocity=126 time=0@note_on channel=7 note=49 velocity=96 time=0@note_on channel=12 note=49 velocity=96 time=0@note_on channel=13 note=49 velocity=96 time=0@note_on channel=14 note=37 velocity=96 time=0@note_on channel=0 note=49 velocity=96 time=0@note_on channel=9 note=42 velocity=16 time=0@note_on channel=1 note=82 velocity=126 time=0@note_on channel=4 note=53 velocity=126 time=0@note_on channel=11 note=37 velocity=96 time=0@note_on channel=0 note=82 velocity=0 time=0.08828125@note_on channel=1 note=82 velocity=0 time=0.004687500000000001@note_on channel=2 note=94 velocity=0 time=0@note_on channel=0 note=77 velocity=96 time=0.00078125@note_on channel=1 note=77 velocity=96 time=0@note_on channel=2 note=89 velocity=96 time=0@note_on channel=0 note=77 velocity=0 time=0.08828125@note_on channel=1 note=77 velocity=0 time=0.004687500000000001@note_on channel=2 note=89 velocity=0 time=0@note_on channel=9 note=42 velocity=0 time=0@note_on channel=0 note=73 velocity=96 time=0.00078125@note_on channel=1 note=73 velocity=96 time=0@note_on channel=2 note=85 velocity=96 time=0@note_on channel=9 note=42 velocity=16 time=0@note_on channel=0 note=73 velocity=0 time=0.08828125@note_on channel=1 note=73 velocity=0 time=0.004687500000000001@note_on channel=2 note=85 velocity=0 time=0@note_on channel=0 note=70 velocity=96 time=0.00078125@note_on channel=1 note=70 velocity=96 time=0@note_on channel=2 note=82 velocity=96 time=0@note_on channel=0 note=70 velocity=0 time=0.08828125@note_on channel=1 note=70 velocity=0 time=0.004687500000000001@note_on channel=2 note=82 velocity=0 time=0@note_on channel=9 note=42 velocity=0 time=0@note_on channel=0 note=82 velocity=96 time=0.00078125@note_on channel=1 note=82 velocity=96 time=0@note_on channel=2 note=94 velocity=96 time=0@note_on channel=9 note=38 velocity=80 time=0@note_on channel=9 note=35 velocity=80 time=0@note_on channel=9 note=42 velocity=16 time=0@note_on channel=0 note=82 velocity=0 time=0.08828125@note_on channel=1 note=82 velocity=0 time=0.004687500000000001@note_on channel=2 note=94 velocity=0 time=0@note_on channel=0 note=77 velocity=96 time=0.00078125@note_on channel=1 note=77 velocity=96 time=0@note_on channel=2 note=89 velocity=96 time=0@note_on channel=0 note=77 velocity=0 time=0.08828125@note_on channel=1 note=77 velocity=0 time=0.004687500000000001@note_on channel=2 note=89 velocity=0 time=0@note_on channel=9 note=42 velocity=0 time=0@note_on channel=0 note=73 velocity=96 time=0.00078125@note_on channel=1 note=73 velocity=96 time=0@note_on channel=2 note=85 velocity=96 time=0@note_on channel=9 note=42 velocity=16 time=0@note_on channel=0 note=73 velocity=0 time=0.08828125@note_on channel=1 note=73 velocity=0 time=0.004687500000000001@note_on channel=2 note=85 velocity=0 time=0@note_on channel=9 note=42 velocity=0 time=0@note_on channel=0 note=70 velocity=96 time=0.00078125@note_on channel=1 note=70 velocity=96 time=0@note_on channel=2 note=82 velocity=96 time=0@note_on channel=9 note=42 velocity=16 time=0@note_on channel=0 note=70 velocity=0 time=0.08828125@note_on channel=1 note=70 velocity=0 time=0.004687500000000001@note_on channel=2 note=82 velocity=0 time=0@note_on channel=9 note=38 velocity=0 time=0@note_on channel=9 note=35 velocity=0 time=0@note_on channel=9 note=42 velocity=0 time=0@note_on channel=0 note=82 velocity=96 time=0.00078125@note_on channel=1 note=82 velocity=96 time=0@note_on channel=2 note=94 velocity=96 time=0@note_on channel=9 note=42 velocity=16 time=0@note_on channel=0 note=82 velocity=0 time=0.08828125@note_on channel=1 note=82 velocity=0 time=0.004687500000000001@note_on channel=2 note=94 velocity=0 time=0@note_on channel=0 note=77 velocity=96 time=0.00078125@note_on channel=1 note=77 velocity=96 time=0@note_on channel=2 note=89 velocity=96 time=0@note_on channel=0 note=77 velocity=0 time=0.08828125@note_on channel=1 note=77 velocity=0 time=0.004687500000000001@note_on channel=2 note=89 velocity=0 time=0@note_on channel=9 note=42 velocity=0 time=0@note_on channel=0 note=73 velocity=96 time=0.00078125@note_on channel=1 note=73 velocity=96 time=0@note_on channel=2 note=85 velocity=96 time=0@note_on channel=9 note=42 velocity=16 time=0@note_on channel=0 note=73 velocity=0 time=0.08828125@note_on channel=1 note=73 velocity=0 time=0.004687500000000001@note_on channel=2 note=85 velocity=0 time=0@note_on channel=0 note=70 velocity=96 time=0.00078125@note_on channel=1 note=70 velocity=96 time=0@note_on channel=2 note=82 velocity=96 time=0@note_on channel=0 note=70 velocity=0 time=0.08828125@note_on channel=1 note=70 velocity=0 time=0.004687500000000001@note_on channel=2 note=82 velocity=0 time=0@note_on channel=5 note=70 velocity=0 time=0@note_on channel=9 note=42 velocity=0 time=0@note_on channel=1 note=82 velocity=0 time=0@note_on channel=0 note=82 velocity=96 time=0.00078125@note_on channel=1 note=82 velocity=96 time=0@note_on channel=2 note=94 velocity=96 time=0@note_on channel=5 note=68 velocity=126 time=0@note_on channel=9 note=38 velocity=80 time=0@note_on channel=9 note=35 velocity=80 time=0@note_on channel=9 note=42 velocity=16 time=0@note_on channel=1 note=80 velocity=126 time=0@note_on channel=0 note=82 velocity=0 time=0.08828125@note_on channel=1 note=82 velocity=0 time=0.004687500000000001@note_on channel=2 note=94 velocity=0 time=0@note_on channel=9 note=38 velocity=0 time=0@note_on channel=9 note=42 velocity=0 time=0@note_on channel=0 note=77 velocity=96 time=0.00078125@note_on channel=1 note=77 velocity=96 time=0@note_on channel=2 note=89 velocity=96 time=0@note_on channel=9 note=38 velocity=80 time=0@note_on channel=9 note=42 velocity=16 time=0@note_on channel=0 note=77 velocity=0 time=0.08828125@note_on channel=1 note=77 velocity=0 time=0.004687500000000001@note_on channel=2 note=89 velocity=0 time=0@note_on channel=9 note=38 velocity=0 time=0@note_on channel=0 note=73 velocity=96 time=0.00078125@note_on channel=1 note=73 velocity=96 time=0@note_on channel=2 note=85 velocity=96 time=0@note_on channel=0 note=73 velocity=0 time=0.08828125@note_on channel=1 note=73 velocity=0 time=0.004687500000000001@note_on channel=2 note=85 velocity=0 time=0@note_on channel=0 note=70 velocity=96 time=0.00078125@note_on channel=1 note=70 velocity=96 time=0@note_on channel=2 note=82 velocity=96 time=0@note_on channel=0 note=70 velocity=0 time=0.08828125@note_on channel=1 note=70 velocity=0 time=0.004687500000000001@note_on channel=1 note=49 velocity=0 time=0@note_on channel=2 note=82 velocity=0 time=0@note_on channel=5 note=68 velocity=0 time=0@note_on channel=6 note=53 velocity=0 time=0@note_on channel=7 note=49 velocity=0 time=0@note_on channel=12 note=49 velocity=0 time=0@note_on channel=13 note=49 velocity=0 time=0@note_on channel=14 note=37 velocity=0 time=0@note_on channel=0 note=49 velocity=0 time=0@note_on channel=9 note=35 velocity=0 time=0@note_on channel=9 note=42 velocity=0 time=0@note_on channel=1 note=80 velocity=0 time=0@note_on channel=4 note=53 velocity=0 time=0@note_on channel=11 note=37 velocity=0 time=0@note_on channel=0 note=77 velocity=96 time=0.00078125@note_on channel=1 note=77 velocity=96 time=0@note_on channel=1 note=53 velocity=96 time=0@note_on channel=2 note=89 velocity=96 time=0@note_on channel=5 note=65 velocity=126 time=0@note_on channel=6 note=53 velocity=126 time=0@note_on channel=7 note=53 velocity=96 time=0@note_on channel=12 note=53 velocity=96 time=0@note_on channel=13 note=53 velocity=96 time=0@note_on channel=14 note=41 velocity=96 time=0@note_on channel=0 note=53 velocity=96 time=0@note_on channel=9 note=42 velocity=16 time=0@note_on channel=1 note=77 velocity=126 time=0@note_on channel=4 note=53 velocity=126 time=0@note_on channel=11 note=41 velocity=96 time=0@note_on channel=0 note=77 velocity=0 time=0.08828125@note_on channel=1 note=77 velocity=0 time=0.004687500000000001@note_on channel=2 note=89 velocity=0 time=0@note_on channel=0 note=72 velocity=96 time=0.00078125@note_on channel=1 note=72 velocity=96 time=0@note_on channel=2 note=84 velocity=96 time=0@note_on channel=0 note=72 velocity=0 time=0.08828125@note_on channel=1 note=72 velocity=0 time=0.004687500000000001@note_on channel=2 note=84 velocity=0 time=0@note_on channel=9 note=42 velocity=0 time=0@note_on channel=0 note=68 velocity=96 time=0.00078125@note_on channel=1 note=68 velocity=96 time=0@note_on channel=2 note=80 velocity=96 time=0@note_on channel=9 note=42 velocity=16 time=0@note_on channel=0 note=68 velocity=0 time=0.08828125@note_on channel=1 note=68 velocity=0 time=0.004687500000000001@note_on channel=2 note=80 velocity=0 time=0@note_on channel=0 note=65 velocity=96 time=0.00078125@note_on channel=1 note=65 velocity=96 time=0@note_on channel=2 note=77 velocity=96 time=0@note_on channel=0 note=65 velocity=0 time=0.08828125@note_on channel=1 note=65 velocity=0 time=0.004687500000000001@note_on channel=2 note=77 velocity=0 time=0@note_on channel=9 note=42 velocity=0 time=0@note_on channel=0 note=77 velocity=96 time=0.00078125@note_on channel=1 note=77 velocity=96 time=0@note_on channel=2 note=89 velocity=96 time=0@note_on channel=9 note=38 velocity=80 time=0@note_on channel=9 note=35 velocity=80 time=0@note_on channel=9 note=42 velocity=16 time=0@note_on channel=0 note=77 velocity=0 time=0.08828125@note_on channel=1 note=77 velocity=0 time=0.004687500000000001@note_on channel=2 note=89 velocity=0 time=0@note_on channel=0 note=72 velocity=96 time=0.00078125@note_on channel=1 note=72 velocity=96 time=0@note_on channel=2 note=84 velocity=96 time=0@note_on channel=0 note=72 velocity=0 time=0.08828125@note_on channel=1 note=72 velocity=0 time=0.004687500000000001@note_on channel=2 note=84 velocity=0 time=0@note_on channel=9 note=42 velocity=0 time=0@note_on channel=0 note=68 velocity=96 time=0.00078125@note_on channel=1 note=68 velocity=96 time=0@note_on channel=2 note=80 velocity=96 time=0@note_on channel=9 note=42 velocity=16 time=0@note_on channel=0 note=68 velocity=0 time=0.08828125@note_on channel=1 note=68 velocity=0 time=0.004687500000000001@note_on channel=2 note=80 velocity=0 time=0@note_on channel=9 note=42 velocity=0 time=0@note_on channel=0 note=65 velocity=96 time=0.00078125@note_on channel=1 note=65 velocity=96 time=0@note_on channel=2 note=77 velocity=96 time=0@note_on channel=9 note=42 velocity=16 time=0@note_on channel=0 note=65 velocity=0 time=0.08828125@note_on channel=1 note=65 velocity=0 time=0.004687500000000001@note_on channel=2 note=77 velocity=0 time=0@note_on channel=9 note=38 velocity=0 time=0@note_on channel=9 note=35 velocity=0 time=0@note_on channel=9 note=42 velocity=0 time=0@note_on channel=0 note=77 velocity=96 time=0.00078125@note_on channel=1 note=77 velocity=96 time=0@note_on channel=2 note=89 velocity=96 time=0@note_on channel=9 note=42 velocity=16 time=0@note_on channel=0 note=77 velocity=0 time=0.08828125@note_on channel=1 note=77 velocity=0 time=0.004687500000000001@note_on channel=2 note=89 velocity=0 time=0@note_on channel=0 note=72 velocity=96 time=0.00078125@note_on channel=1 note=72 velocity=96 time=0@note_on channel=2 note=84 velocity=96 time=0@note_on channel=0 note=72 velocity=0 time=0.08828125@note_on channel=1 note=72 velocity=0 time=0.004687500000000001@note_on channel=2 note=84 velocity=0 time=0@note_on channel=9 note=42 velocity=0 time=0@note_on channel=0 note=68 velocity=96 time=0.00078125@note_on channel=1 note=68 velocity=96 time=0@note_on channel=2 note=80 velocity=96 time=0@note_on channel=9 note=42 velocity=16 time=0@note_on channel=0 note=68 velocity=0 time=0.08828125@note_on channel=1 note=68 velocity=0 time=0.004687500000000001@note_on channel=2 note=80 velocity=0 time=0@note_on channel=0 note=65 velocity=96 time=0.00078125@note_on channel=1 note=65 velocity=96 time=0@note_on channel=2 note=77 velocity=96 time=0@note_on channel=0 note=65 velocity=0 time=0.08828125@note_on channel=1 note=65 velocity=0 time=0.004687500000000001@note_on channel=2 note=77 velocity=0 time=0@note_on channel=9 note=42 velocity=0 time=0@note_on channel=0 note=77 velocity=96 time=0.00078125@note_on channel=1 note=77 velocity=96 time=0@note_on channel=2 note=89 velocity=96 time=0@note_on channel=9 note=38 velocity=80 time=0@note_on channel=9 note=35 velocity=80 time=0@note_on channel=9 note=42 velocity=16 time=0@note_on channel=0 note=77 velocity=0 time=0.08828125@note_on channel=1 note=77 velocity=0 time=0.004687500000000001@note_on channel=2 note=89 velocity=0 time=0@note_on channel=9 note=38 velocity=0 time=0@note_on channel=9 note=42 velocity=0 time=0@note_on channel=0 note=72 velocity=96 time=0.00078125@note_on channel=1 note=72 velocity=96 time=0@note_on channel=2 note=84 velocity=96 time=0@note_on channel=9 note=38 velocity=80 time=0@note_on channel=9 note=42 velocity=16 time=0@note_on channel=0 note=72 velocity=0 time=0.08828125@note_on channel=1 note=72 velocity=0 time=0.004687500000000001@note_on channel=2 note=84 velocity=0 time=0@note_on channel=9 note=38 velocity=0 time=0@note_on channel=0 note=68 velocity=96 time=0.00078125@note_on channel=1 note=68 velocity=96 time=0@note_on channel=2 note=80 velocity=96 time=0@note_on channel=0 note=68 velocity=0 time=0.08828125@note_on channel=1 note=68 velocity=0 time=0.004687500000000001@note_on channel=2 note=80 velocity=0 time=0@note_on channel=0 note=65 velocity=96 time=0.00078125@note_on channel=1 note=65 velocity=96 time=0@note_on channel=2 note=77 velocity=96 time=0@note_on channel=0 note=65 velocity=0 time=0.08828125@note_on channel=1 note=65 velocity=0 time=0.004687500000000001@note_on channel=1 note=53 velocity=0 time=0@note_on channel=2 note=77 velocity=0 time=0@note_on channel=5 note=65 velocity=0 time=0@note_on channel=6 note=53 velocity=0 time=0@note_on channel=7 note=53 velocity=0 time=0@note_on channel=12 note=53 velocity=0 time=0@note_on channel=13 note=53 velocity=0 time=0@note_on channel=14 note=41 velocity=0 time=0@note_on channel=0 note=53 velocity=0 time=0@note_on channel=9 note=35 velocity=0 time=0@note_on channel=9 note=42 velocity=0 time=0@note_on channel=1 note=77 velocity=0 time=0@note_on channel=4 note=53 velocity=0 time=0@note_on channel=11 note=41 velocity=0 time=0@note_on channel=0 note=79 velocity=96 time=0.00078125@note_on channel=1 note=79 velocity=96 time=0@note_on channel=1 note=46 velocity=96 time=0@note_on channel=2 note=91 velocity=96 time=0@note_on channel=5 note=67 velocity=126 time=0@note_on channel=6 note=58 velocity=126 time=0@note_on channel=7 note=46 velocity=96 time=0@note_on channel=12 note=46 velocity=96 time=0@note_on channel=13 note=46 velocity=96 time=0@note_on channel=14 note=34 velocity=96 time=0@note_on channel=0 note=46 velocity=96 time=0@note_on channel=9 note=42 velocity=16 time=0@note_on channel=1 note=79 velocity=126 time=0@note_on channel=4 note=58 velocity=126 time=0@note_on channel=11 note=34 velocity=96 time=0@note_on channel=0 note=79 velocity=0 time=0.08828125@note_on channel=1 note=79 velocity=0 time=0.004687500000000001@note_on channel=2 note=91 velocity=0 time=0@note_on channel=0 note=73 velocity=96 time=0.00078125@note_on channel=1 note=73 velocity=96 time=0@note_on channel=2 note=85 velocity=96 time=0@note_on channel=0 note=73 velocity=0 time=0.08828125@note_on channel=1 note=73 velocity=0 time=0.004687500000000001@note_on channel=2 note=85 velocity=0 time=0@note_on channel=9 note=42 velocity=0 time=0@note_on channel=0 note=70 velocity=96 time=0.00078125@note_on channel=1 note=70 velocity=96 time=0@note_on channel=2 note=82 velocity=96 time=0@note_on channel=9 note=42 velocity=16 time=0@note_on channel=0 note=70 velocity=0 time=0.08828125@note_on channel=1 note=70 velocity=0 time=0.004687500000000001@note_on channel=2 note=82 velocity=0 time=0@note_on channel=0 note=67 velocity=96 time=0.00078125@note_on channel=1 note=67 velocity=96 time=0@note_on channel=2 note=79 velocity=96 time=0@note_on channel=0 note=67 velocity=0 time=0.08828125@note_on channel=1 note=67 velocity=0 time=0.004687500000000001@note_on channel=2 note=79 velocity=0 time=0@note_on channel=9 note=42 velocity=0 time=0@note_on channel=0 note=79 velocity=96 time=0.00078125@note_on channel=1 note=79 velocity=96 time=0@note_on channel=2 note=91 velocity=96 time=0@note_on channel=9 note=38 velocity=80 time=0@note_on channel=9 note=35 velocity=80 time=0@note_on channel=9 note=42 velocity=16 time=0@note_on channel=0 note=79 velocity=0 time=0.08828125@note_on channel=1 note=79 velocity=0 time=0.004687500000000001@note_on channel=2 note=91 velocity=0 time=0@note_on channel=0 note=73 velocity=96 time=0.00078125@note_on channel=1 note=73 velocity=96 time=0@note_on channel=2 note=85 velocity=96 time=0@note_on channel=0 note=73 velocity=0 time=0.08828125@note_on channel=1 note=73 velocity=0 time=0.004687500000000001@note_on channel=2 note=85 velocity=0 time=0@note_on channel=9 note=42 velocity=0 time=0@note_on channel=0 note=70 velocity=96 time=0.00078125@note_on channel=1 note=70 velocity=96 time=0@note_on channel=2 note=82 velocity=96 time=0@note_on channel=9 note=42 velocity=16 time=0@note_on channel=0 note=70 velocity=0 time=0.08828125@note_on channel=1 note=70 velocity=0 time=0.004687500000000001@note_on channel=2 note=82 velocity=0 time=0@note_on channel=9 note=42 velocity=0 time=0@note_on channel=0 note=67 velocity=96 time=0.00078125@note_on channel=1 note=67 velocity=96 time=0@note_on channel=2 note=79 velocity=96 time=0@note_on channel=9 note=42 velocity=16 time=0@note_on channel=0 note=67 velocity=0 time=0.08828125@note_on channel=1 note=67 velocity=0 time=0.004687500000000001@note_on channel=2 note=79 velocity=0 time=0@note_on channel=9 note=38 velocity=0 time=0@note_on channel=9 note=35 velocity=0 time=0@note_on channel=9 note=42 velocity=0 time=0@note_on channel=0 note=79 velocity=96 time=0.00078125@note_on channel=1 note=79 velocity=96 time=0@note_on channel=2 note=91 velocity=96 time=0@note_on channel=9 note=42 velocity=16 time=0@note_on channel=0 note=79 velocity=0 time=0.08828125@note_on channel=1 note=79 velocity=0 time=0.004687500000000001@note_on channel=2 note=91 velocity=0 time=0@note_on channel=0 note=73 velocity=96 time=0.00078125@note_on channel=1 note=73 velocity=96 time=0@note_on channel=2 note=85 velocity=96 time=0@note_on channel=0 note=73 velocity=0 time=0.08828125@note_on channel=1 note=73 velocity=0 time=0.004687500000000001@note_on channel=2 note=85 velocity=0 time=0@note_on channel=9 note=42 velocity=0 time=0@note_on channel=0 note=70 velocity=96 time=0.00078125@note_on channel=1 note=70 velocity=96 time=0@note_on channel=2 note=82 velocity=96 time=0@note_on channel=9 note=42 velocity=16 time=0@note_on channel=0 note=70 velocity=0 time=0.08828125@note_on channel=1 note=70 velocity=0 time=0.004687500000000001@note_on channel=2 note=82 velocity=0 time=0@note_on channel=0 note=67 velocity=96 time=0.00078125@note_on channel=1 note=67 velocity=96 time=0@note_on channel=2 note=79 velocity=96 time=0@note_on channel=0 note=67 velocity=0 time=0.08828125@note_on channel=1 note=67 velocity=0 time=0.004687500000000001@note_on channel=2 note=79 velocity=0 time=0@note_on channel=9 note=42 velocity=0 time=0@note_on channel=0 note=79 velocity=96 time=0.00078125@note_on channel=1 note=79 velocity=96 time=0@note_on channel=2 note=91 velocity=96 time=0@note_on channel=9 note=38 velocity=80 time=0@note_on channel=9 note=35 velocity=80 time=0@note_on channel=9 note=42 velocity=16 time=0@note_on channel=0 note=79 velocity=0 time=0.08828125@note_on channel=1 note=79 velocity=0 time=0.004687500000000001@note_on channel=2 note=91 velocity=0 time=0@note_on channel=9 note=38 velocity=0 time=0@note_on channel=9 note=42 velocity=0 time=0@note_on channel=0 note=73 velocity=96 time=0.00078125@note_on channel=1 note=73 velocity=96 time=0@note_on channel=2 note=85 velocity=96 time=0@note_on channel=9 note=38 velocity=80 time=0@note_on channel=9 note=42 velocity=16 time=0@note_on channel=0 note=73 velocity=0 time=0.08828125@note_on channel=1 note=73 velocity=0 time=0.004687500000000001@note_on channel=2 note=85 velocity=0 time=0@note_on channel=9 note=38 velocity=0 time=0@note_on channel=0 note=70 velocity=96 time=0.00078125@note_on channel=1 note=70 velocity=96 time=0@note_on channel=2 note=82 velocity=96 time=0@note_on channel=0 note=70 velocity=0 time=0.08828125@note_on channel=1 note=70 velocity=0 time=0.004687500000000001@note_on channel=2 note=82 velocity=0 time=0@note_on channel=0 note=67 velocity=96 time=0.00078125@note_on channel=1 note=67 velocity=96 time=0@note_on channel=2 note=79 velocity=96 time=0@note_on channel=0 note=67 velocity=0 time=0.08828125@note_on channel=1 note=67 velocity=0 time=0.004687500000000001@note_on channel=1 note=46 velocity=0 time=0@note_on channel=2 note=79 velocity=0 time=0@note_on channel=5 note=67 velocity=0 time=0@note_on channel=6 note=58 velocity=0 time=0@note_on channel=7 note=46 velocity=0 time=0@note_on channel=12 note=46 velocity=0 time=0@note_on channel=13 note=46 velocity=0 time=0@note_on channel=14 note=34 velocity=0 time=0@note_on channel=0 note=46 velocity=0 time=0@note_on channel=9 note=35 velocity=0 time=0@note_on channel=9 note=42 velocity=0 time=0@note_on channel=1 note=79 velocity=0 time=0@note_on channel=4 note=58 velocity=0 time=0@note_on channel=11 note=34 velocity=0 time=0@note_on channel=0 note=77 velocity=96 time=0.00078125@note_on channel=1 note=77 velocity=96 time=0@note_on channel=1 note=53 velocity=96 time=0@note_on channel=2 note=89 velocity=96 time=0@note_on channel=5 note=65 velocity=126 time=0@note_on channel=6 note=56 velocity=126 time=0@note_on channel=7 note=53 velocity=96 time=0@note_on channel=12 note=53 velocity=96 time=0@note_on channel=13 note=53 velocity=96 time=0@note_on channel=14 note=41 velocity=96 time=0@note_on channel=0 note=53 velocity=96 time=0@note_on channel=9 note=42 velocity=16 time=0@note_on channel=1 note=77 velocity=126 time=0@note_on channel=4 note=56 velocity=126 time=0@note_on channel=11 note=41 velocity=96 time=0@note_on channel=0 note=77 velocity=0 time=0.08828125@note_on channel=1 note=77 velocity=0 time=0.004687500000000001@note_on channel=2 note=89 velocity=0 time=0@note_on channel=0 note=72 velocity=96 time=0.00078125@note_on channel=1 note=72 velocity=96 time=0@note_on channel=2 note=84 velocity=96 time=0@note_on channel=0 note=72 velocity=0 time=0.08828125@note_on channel=1 note=72 velocity=0 time=0.004687500000000001@note_on channel=2 note=84 velocity=0 time=0@note_on channel=9 note=42 velocity=0 time=0@note_on channel=0 note=68 velocity=96 time=0.00078125@note_on channel=1 note=68 velocity=96 time=0@note_on channel=2 note=80 velocity=96 time=0@note_on channel=9 note=42 velocity=16 time=0@note_on channel=0 note=68 velocity=0 time=0.08828125@note_on channel=1 note=68 velocity=0 time=0.004687500000000001@note_on channel=2 note=80 velocity=0 time=0@note_on channel=0 note=65 velocity=96 time=0.00078125@note_on channel=1 note=65 velocity=96 time=0@note_on channel=2 note=77 velocity=96 time=0@note_on channel=0 note=65 velocity=0 time=0.08828125@note_on channel=1 note=65 velocity=0 time=0.004687500000000001@note_on channel=2 note=77 velocity=0 time=0@note_on channel=9 note=42 velocity=0 time=0@note_on channel=0 note=77 velocity=96 time=0.00078125@note_on channel=1 note=77 velocity=96 time=0@note_on channel=2 note=89 velocity=96 time=0@note_on channel=9 note=38 velocity=80 time=0@note_on channel=9 note=35 velocity=80 time=0@note_on channel=9 note=42 velocity=16 time=0@note_on channel=0 note=77 velocity=0 time=0.08828125@note_on channel=1 note=77 velocity=0 time=0.004687500000000001@note_on channel=2 note=89 velocity=0 time=0@note_on channel=0 note=72 velocity=96 time=0.00078125@note_on channel=1 note=72 velocity=96 time=0@note_on channel=2 note=84 velocity=96 time=0@note_on channel=0 note=72 velocity=0 time=0.08828125@note_on channel=1 note=72 velocity=0 time=0.004687500000000001@note_on channel=2 note=84 velocity=0 time=0@note_on channel=9 note=42 velocity=0 time=0@note_on channel=0 note=68 velocity=96 time=0.00078125@note_on channel=1 note=68 velocity=96 time=0@note_on channel=2 note=80 velocity=96 time=0@note_on channel=9 note=42 velocity=16 time=0@note_on channel=0 note=68 velocity=0 time=0.08828125@note_on channel=1 note=68 velocity=0 time=0.004687500000000001@note_on channel=2 note=80 velocity=0 time=0@note_on channel=9 note=42 velocity=0 time=0@note_on channel=0 note=65 velocity=96 time=0.00078125@note_on channel=1 note=65 velocity=96 time=0@note_on channel=2 note=77 velocity=96 time=0@note_on channel=9 note=42 velocity=16 time=0@note_on channel=0 note=65 velocity=0 time=0.08828125@note_on channel=1 note=65 velocity=0 time=0.004687500000000001@note_on channel=2 note=77 velocity=0 time=0@note_on channel=9 note=38 velocity=0 time=0@note_on channel=9 note=35 velocity=0 time=0@note_on channel=9 note=42 velocity=0 time=0@note_on channel=0 note=77 velocity=96 time=0.00078125@note_on channel=1 note=77 velocity=96 time=0@note_on channel=2 note=89 velocity=96 time=0@note_on channel=9 note=42 velocity=16 time=0@note_on channel=0 note=77 velocity=0 time=0.08828125@note_on channel=1 note=77 velocity=0 time=0.004687500000000001@note_on channel=2 note=89 velocity=0 time=0@note_on channel=0 note=72 velocity=96 time=0.00078125@note_on channel=1 note=72 velocity=96 time=0@note_on channel=2 note=84 velocity=96 time=0@note_on channel=0 note=72 velocity=0 time=0.08828125@note_on channel=1 note=72 velocity=0 time=0.004687500000000001@note_on channel=2 note=84 velocity=0 time=0@note_on channel=9 note=42 velocity=0 time=0@note_on channel=0 note=68 velocity=96 time=0.00078125@note_on channel=1 note=68 velocity=96 time=0@note_on channel=2 note=80 velocity=96 time=0@note_on channel=9 note=42 velocity=16 time=0@note_on channel=0 note=68 velocity=0 time=0.08828125@note_on channel=1 note=68 velocity=0 time=0.004687500000000001@note_on channel=2 note=80 velocity=0 time=0@note_on channel=0 note=65 velocity=96 time=0.00078125@note_on channel=1 note=65 velocity=96 time=0@note_on channel=2 note=77 velocity=96 time=0@note_on channel=0 note=65 velocity=0 time=0.08828125@note_on channel=1 note=65 velocity=0 time=0.004687500000000001@note_on channel=2 note=77 velocity=0 time=0@note_on channel=9 note=42 velocity=0 time=0@note_on channel=0 note=77 velocity=96 time=0.00078125@note_on channel=1 note=77 velocity=96 time=0@note_on channel=2 note=89 velocity=96 time=0@note_on channel=9 note=38 velocity=80 time=0@note_on channel=9 note=35 velocity=80 time=0@note_on channel=9 note=42 velocity=16 time=0@note_on channel=0 note=77 velocity=0 time=0.08828125@note_on channel=1 note=77 velocity=0 time=0.004687500000000001@note_on channel=2 note=89 velocity=0 time=0@note_on channel=9 note=38 velocity=0 time=0@note_on channel=9 note=42 velocity=0 time=0@note_on channel=0 note=72 velocity=96 time=0.00078125@note_on channel=1 note=72 velocity=96 time=0@note_on channel=2 note=84 velocity=96 time=0@note_on channel=9 note=38 velocity=80 time=0@note_on channel=9 note=42 velocity=16 time=0@note_on channel=0 note=72 velocity=0 time=0.08828125@note_on channel=1 note=72 velocity=0 time=0.004687500000000001@note_on channel=2 note=84 velocity=0 time=0@note_on channel=9 note=38 velocity=0 time=0@note_on channel=0 note=68 velocity=96 time=0.00078125@note_on channel=1 note=68 velocity=96 time=0@note_on channel=2 note=80 velocity=96 time=0@note_on channel=0 note=68 velocity=0 time=0.08828125@note_on channel=1 note=68 velocity=0 time=0.004687500000000001@note_on channel=2 note=80 velocity=0 time=0@note_on channel=0 note=65 velocity=96 time=0.00078125@note_on channel=1 note=65 velocity=96 time=0@note_on channel=2 note=77 velocity=96 time=0@note_on channel=0 note=65 velocity=0 time=0.08828125@note_on channel=1 note=65 velocity=0 time=0.004687500000000001@note_on channel=1 note=53 velocity=0 time=0@note_on channel=2 note=77 velocity=0 time=0@note_on channel=5 note=65 velocity=0 time=0@note_on channel=6 note=56 velocity=0 time=0@note_on channel=7 note=53 velocity=0 time=0@note_on channel=12 note=53 velocity=0 time=0@note_on channel=13 note=53 velocity=0 time=0@note_on channel=14 note=41 velocity=0 time=0@note_on channel=0 note=53 velocity=0 time=0@note_on channel=9 note=35 velocity=0 time=0@note_on channel=9 note=42 velocity=0 time=0@note_on channel=1 note=77 velocity=0 time=0@note_on channel=4 note=56 velocity=0 time=0@note_on channel=11 note=41 velocity=0 time=0@note_on channel=0 note=77 velocity=96 time=0.00078125@note_on channel=1 note=77 velocity=96 time=0@note_on channel=1 note=53 velocity=96 time=0@note_on channel=2 note=89 velocity=96 time=0@note_on channel=3 note=60 velocity=126 time=0@note_on channel=4 note=60 velocity=126 time=0@note_on channel=5 note=65 velocity=126 time=0@note_on channel=6 note=65 velocity=126 time=0@note_on channel=7 note=53 velocity=96 time=0@note_on channel=12 note=53 velocity=96 time=0@note_on channel=13 note=53 velocity=96 time=0@note_on channel=14 note=41 velocity=96 time=0@note_on channel=0 note=53 velocity=96 time=0@note_on channel=9 note=42 velocity=16 time=0@note_on channel=9 note=57 velocity=112 time=0@note_on channel=1 note=77 velocity=126 time=0@note_on channel=4 note=65 velocity=126 time=0@note_on channel=7 note=60 velocity=126 time=0@note_on channel=11 note=41 velocity=96 time=0@note_on channel=0 note=77 velocity=0 time=0.08828125@note_on channel=1 note=77 velocity=0 time=0.004687500000000001@note_on channel=2 note=89 velocity=0 time=0@note_on channel=0 note=72 velocity=96 time=0.00078125@note_on channel=1 note=72 velocity=96 time=0@note_on channel=2 note=84 velocity=96 time=0@note_on channel=0 note=72 velocity=0 time=0.08828125@note_on channel=1 note=72 velocity=0 time=0.004687500000000001@note_on channel=2 note=84 velocity=0 time=0@note_on channel=9 note=42 velocity=0 time=0@note_on channel=0 note=68 velocity=96 time=0.00078125@note_on channel=1 note=68 velocity=96 time=0@note_on channel=2 note=80 velocity=96 time=0@note_on channel=9 note=42 velocity=16 time=0@note_on channel=0 note=68 velocity=0 time=0.08828125@note_on channel=1 note=68 velocity=0 time=0.004687500000000001@note_on channel=2 note=80 velocity=0 time=0@note_on channel=0 note=65 velocity=96 time=0.00078125@note_on channel=1 note=65 velocity=96 time=0@note_on channel=2 note=77 velocity=96 time=0@note_on channel=0 note=65 velocity=0 time=0.08828125@note_on channel=1 note=65 velocity=0 time=0.004687500000000001@note_on channel=2 note=77 velocity=0 time=0@note_on channel=9 note=42 velocity=0 time=0@note_on channel=9 note=57 velocity=0 time=0@note_on channel=0 note=77 velocity=96 time=0.00078125@note_on channel=1 note=77 velocity=96 time=0@note_on channel=2 note=89 velocity=96 time=0@note_on channel=9 note=38 velocity=80 time=0@note_on channel=9 note=35 velocity=80 time=0@note_on channel=9 note=42 velocity=16 time=0@note_on channel=0 note=77 velocity=0 time=0.08828125@note_on channel=1 note=77 velocity=0 time=0.004687500000000001@note_on channel=2 note=89 velocity=0 time=0@note_on channel=0 note=72 velocity=96 time=0.00078125@note_on channel=1 note=72 velocity=96 time=0@note_on channel=2 note=84 velocity=96 time=0@note_on channel=0 note=72 velocity=0 time=0.08828125@note_on channel=1 note=72 velocity=0 time=0.004687500000000001@note_on channel=2 note=84 velocity=0 time=0@note_on channel=9 note=42 velocity=0 time=0@note_on channel=0 note=68 velocity=96 time=0.00078125@note_on channel=1 note=68 velocity=96 time=0@note_on channel=2 note=80 velocity=96 time=0@note_on channel=9 note=42 velocity=16 time=0@note_on channel=0 note=68 velocity=0 time=0.08828125@note_on channel=1 note=68 velocity=0 time=0.004687500000000001@note_on channel=2 note=80 velocity=0 time=0@note_on channel=9 note=42 velocity=0 time=0@note_on channel=0 note=65 velocity=96 time=0.00078125@note_on channel=1 note=65 velocity=96 time=0@note_on channel=2 note=77 velocity=96 time=0@note_on channel=9 note=42 velocity=16 time=0@note_on channel=0 note=65 velocity=0 time=0.08828125@note_on channel=1 note=65 velocity=0 time=0.004687500000000001@note_on channel=2 note=77 velocity=0 time=0@note_on channel=9 note=38 velocity=0 time=0@note_on channel=9 note=35 velocity=0 time=0@note_on channel=9 note=42 velocity=0 time=0@note_on channel=0 note=77 velocity=96 time=0.00078125@note_on channel=1 note=77 velocity=96 time=0@note_on channel=2 note=89 velocity=96 time=0@note_on channel=9 note=42 velocity=16 time=0@note_on channel=0 note=77 velocity=0 time=0.08828125@note_on channel=1 note=77 velocity=0 time=0.004687500000000001@note_on channel=2 note=89 velocity=0 time=0@note_on channel=0 note=72 velocity=96 time=0.00078125@note_on channel=1 note=72 velocity=96 time=0@note_on channel=2 note=84 velocity=96 time=0@note_on channel=0 note=72 velocity=0 time=0.08828125@note_on channel=1 note=72 velocity=0 time=0.004687500000000001@note_on channel=2 note=84 velocity=0 time=0@note_on channel=9 note=42 velocity=0 time=0@note_on channel=0 note=68 velocity=96 time=0.00078125@note_on channel=1 note=68 velocity=96 time=0@note_on channel=2 note=80 velocity=96 time=0@note_on channel=9 note=42 velocity=16 time=0@note_on channel=0 note=68 velocity=0 time=0.08828125@note_on channel=1 note=68 velocity=0 time=0.004687500000000001@note_on channel=2 note=80 velocity=0 time=0@note_on channel=0 note=65 velocity=96 time=0.00078125@note_on channel=1 note=65 velocity=96 time=0@note_on channel=2 note=77 velocity=96 time=0@note_on channel=0 note=65 velocity=0 time=0.08828125@note_on channel=1 note=65 velocity=0 time=0.004687500000000001@note_on channel=1 note=53 velocity=0 time=0@note_on channel=2 note=77 velocity=0 time=0@note_on channel=5 note=65 velocity=0 time=0@note_on channel=6 note=65 velocity=0 time=0@note_on channel=7 note=53 velocity=0 time=0@note_on channel=12 note=53 velocity=0 time=0@note_on channel=13 note=53 velocity=0 time=0@note_on channel=14 note=41 velocity=0 time=0@note_on channel=0 note=53 velocity=0 time=0@note_on channel=9 note=42 velocity=0 time=0@note_on channel=1 note=77 velocity=0 time=0@note_on channel=4 note=65 velocity=0 time=0@note_on channel=11 note=41 velocity=0 time=0@note_on channel=0 note=77 velocity=96 time=0.00078125@note_on channel=1 note=77 velocity=96 time=0@note_on channel=1 note=56 velocity=96 time=0@note_on channel=2 note=89 velocity=96 time=0@note_on channel=5 note=60 velocity=126 time=0@note_on channel=6 note=60 velocity=126 time=0@note_on channel=7 note=56 velocity=96 time=0@note_on channel=12 note=56 velocity=96 time=0@note_on channel=13 note=56 velocity=96 time=0@note_on channel=14 note=44 velocity=96 time=0@note_on channel=0 note=56 velocity=96 time=0@note_on channel=9 note=38 velocity=80 time=0@note_on channel=9 note=35 velocity=80 time=0@note_on channel=9 note=42 velocity=16 time=0@note_on channel=1 note=72 velocity=126 time=0@note_on channel=4 note=60 velocity=126 time=0@note_on channel=11 note=44 velocity=96 time=0@note_on channel=0 note=77 velocity=0 time=0.08828125@note_on channel=1 note=77 velocity=0 time=0.004687500000000001@note_on channel=2 note=89 velocity=0 time=0@note_on channel=9 note=38 velocity=0 time=0@note_on channel=9 note=42 velocity=0 time=0@note_on channel=0 note=72 velocity=96 time=0.00078125@note_on channel=1 note=72 velocity=96 time=0@note_on channel=2 note=84 velocity=96 time=0@note_on channel=9 note=38 velocity=80 time=0@note_on channel=9 note=42 velocity=16 time=0@note_on channel=0 note=72 velocity=0 time=0.08828125@note_on channel=1 note=72 velocity=0 time=0.004687500000000001@note_on channel=2 note=84 velocity=0 time=0@note_on channel=9 note=38 velocity=0 time=0@note_on channel=0 note=68 velocity=96 time=0.00078125@note_on channel=1 note=68 velocity=96 time=0@note_on channel=2 note=80 velocity=96 time=0@note_on channel=0 note=68 velocity=0 time=0.08828125@note_on channel=1 note=68 velocity=0 time=0.004687500000000001@note_on channel=2 note=80 velocity=0 time=0@note_on channel=0 note=65 velocity=96 time=0.00078125@note_on channel=1 note=65 velocity=96 time=0@note_on channel=2 note=77 velocity=96 time=0@note_on channel=0 note=65 velocity=0 time=0.08828125@note_on channel=1 note=65 velocity=0 time=0.004687500000000001@note_on channel=1 note=56 velocity=0 time=0@note_on channel=2 note=77 velocity=0 time=0@note_on channel=5 note=60 velocity=0 time=0@note_on channel=6 note=60 velocity=0 time=0@note_on channel=7 note=56 velocity=0 time=0@note_on channel=12 note=56 velocity=0 time=0@note_on channel=13 note=56 velocity=0 time=0@note_on channel=14 note=44 velocity=0 time=0@note_on channel=0 note=56 velocity=0 time=0@note_on channel=9 note=35 velocity=0 time=0@note_on channel=9 note=42 velocity=0 time=0@note_on channel=1 note=72 velocity=0 time=0@note_on channel=4 note=60 velocity=0 time=0@note_on channel=11 note=44 velocity=0 time=0@note_on channel=0 note=77 velocity=96 time=0.00078125@note_on channel=1 note=77 velocity=96 time=0@note_on channel=1 note=53 velocity=96 time=0@note_on channel=2 note=89 velocity=96 time=0@note_on channel=5 note=56 velocity=126 time=0@note_on channel=6 note=56 velocity=126 time=0@note_on channel=7 note=53 velocity=96 time=0@note_on channel=12 note=53 velocity=96 time=0@note_on channel=13 note=53 velocity=96 time=0@note_on channel=14 note=41 velocity=96 time=0@note_on channel=0 note=53 velocity=96 time=0@note_on channel=9 note=42 velocity=16 time=0@note_on channel=1 note=68 velocity=126 time=0@note_on channel=4 note=56 velocity=126 time=0@note_on channel=11 note=41 velocity=96 time=0@note_on channel=0 note=77 velocity=0 time=0.08828125@note_on channel=1 note=77 velocity=0 time=0.004687500000000001@note_on channel=2 note=89 velocity=0 time=0@note_on channel=0 note=72 velocity=96 time=0.00078125@note_on channel=1 note=72 velocity=96 time=0@note_on channel=2 note=84 velocity=96 time=0@note_on channel=0 note=72 velocity=0 time=0.08828125@note_on channel=1 note=72 velocity=0 time=0.004687500000000001@note_on channel=2 note=84 velocity=0 time=0@note_on channel=9 note=42 velocity=0 time=0@note_on channel=0 note=68 velocity=96 time=0.00078125@note_on channel=1 note=68 velocity=96 time=0@note_on channel=2 note=80 velocity=96 time=0@note_on channel=9 note=42 velocity=16 time=0@note_on channel=0 note=68 velocity=0 time=0.08828125@note_on channel=1 note=68 velocity=0 time=0.004687500000000001@note_on channel=2 note=80 velocity=0 time=0@note_on channel=0 note=65 velocity=96 time=0.00078125@note_on channel=1 note=65 velocity=96 time=0@note_on channel=2 note=77 velocity=96 time=0@note_on channel=0 note=65 velocity=0 time=0.08828125@note_on channel=1 note=65 velocity=0 time=0.004687500000000001@note_on channel=2 note=77 velocity=0 time=0@note_on channel=9 note=42 velocity=0 time=0@note_on channel=0 note=77 velocity=96 time=0.00078125@note_on channel=1 note=77 velocity=96 time=0@note_on channel=2 note=89 velocity=96 time=0@note_on channel=9 note=38 velocity=80 time=0@note_on channel=9 note=35 velocity=80 time=0@note_on channel=9 note=42 velocity=16 time=0@note_on channel=0 note=77 velocity=0 time=0.08828125@note_on channel=1 note=77 velocity=0 time=0.004687500000000001@note_on channel=2 note=89 velocity=0 time=0@note_on channel=0 note=72 velocity=96 time=0.00078125@note_on channel=1 note=72 velocity=96 time=0@note_on channel=2 note=84 velocity=96 time=0@note_on channel=0 note=72 velocity=0 time=0.08828125@note_on channel=1 note=72 velocity=0 time=0.004687500000000001@note_on channel=2 note=84 velocity=0 time=0@note_on channel=9 note=42 velocity=0 time=0@note_on channel=0 note=68 velocity=96 time=0.00078125@note_on channel=1 note=68 velocity=96 time=0@note_on channel=2 note=80 velocity=96 time=0@note_on channel=9 note=42 velocity=16 time=0@note_on channel=0 note=68 velocity=0 time=0.08828125@note_on channel=1 note=68 velocity=0 time=0.004687500000000001@note_on channel=2 note=80 velocity=0 time=0@note_on channel=9 note=42 velocity=0 time=0@note_on channel=0 note=65 velocity=96 time=0.00078125@note_on channel=1 note=65 velocity=96 time=0@note_on channel=2 note=77 velocity=96 time=0@note_on channel=9 note=42 velocity=16 time=0@note_on channel=0 note=65 velocity=0 time=0.08828125@note_on channel=1 note=65 velocity=0 time=0.004687500000000001@note_on channel=1 note=53 velocity=0 time=0@note_on channel=2 note=77 velocity=0 time=0@note_on channel=7 note=53 velocity=0 time=0@note_on channel=12 note=53 velocity=0 time=0@note_on channel=13 note=53 velocity=0 time=0@note_on channel=14 note=41 velocity=0 time=0@note_on channel=0 note=53 velocity=0 time=0@note_on channel=9 note=38 velocity=0 time=0@note_on channel=9 note=35 velocity=0 time=0@note_on channel=9 note=42 velocity=0 time=0@note_on channel=11 note=41 velocity=0 time=0@note_on channel=0 note=77 velocity=96 time=0.00078125@note_on channel=1 note=77 velocity=96 time=0@note_on channel=1 note=56 velocity=96 time=0@note_on channel=2 note=89 velocity=96 time=0@note_on channel=7 note=56 velocity=96 time=0@note_on channel=12 note=56 velocity=96 time=0@note_on channel=13 note=56 velocity=96 time=0@note_on channel=14 note=44 velocity=96 time=0@note_on channel=0 note=56 velocity=96 time=0@note_on channel=9 note=42 velocity=16 time=0@note_on channel=11 note=44 velocity=96 time=0@note_on channel=0 note=77 velocity=0 time=0.08828125@note_on channel=1 note=77 velocity=0 time=0.004687500000000001@note_on channel=2 note=89 velocity=0 time=0@note_on channel=0 note=72 velocity=96 time=0.00078125@note_on channel=1 note=72 velocity=96 time=0@note_on channel=2 note=84 velocity=96 time=0@note_on channel=0 note=72 velocity=0 time=0.08828125@note_on channel=1 note=72 velocity=0 time=0.004687500000000001@note_on channel=2 note=84 velocity=0 time=0@note_on channel=9 note=42 velocity=0 time=0@note_on channel=0 note=68 velocity=96 time=0.00078125@note_on channel=1 note=68 velocity=96 time=0@note_on channel=2 note=80 velocity=96 time=0@note_on channel=9 note=42 velocity=16 time=0@note_on channel=0 note=68 velocity=0 time=0.08828125@note_on channel=1 note=68 velocity=0 time=0.004687500000000001@note_on channel=2 note=80 velocity=0 time=0@note_on channel=0 note=65 velocity=96 time=0.00078125@note_on channel=1 note=65 velocity=96 time=0@note_on channel=2 note=77 velocity=96 time=0@note_on channel=0 note=65 velocity=0 time=0.08828125@note_on channel=1 note=65 velocity=0 time=0.004687500000000001@note_on channel=2 note=77 velocity=0 time=0@note_on channel=3 note=60 velocity=0 time=0@note_on channel=4 note=60 velocity=0 time=0@note_on channel=5 note=56 velocity=0 time=0@note_on channel=6 note=56 velocity=0 time=0@note_on channel=9 note=42 velocity=0 time=0@note_on channel=1 note=68 velocity=0 time=0@note_on channel=4 note=56 velocity=0 time=0@note_on channel=7 note=60 velocity=0 time=0@note_on channel=0 note=77 velocity=96 time=0.00078125@note_on channel=1 note=77 velocity=96 time=0@note_on channel=2 note=89 velocity=96 time=0@note_on channel=3 note=58 velocity=126 time=0@note_on channel=4 note=58 velocity=126 time=0@note_on channel=5 note=53 velocity=126 time=0@note_on channel=6 note=53 velocity=126 time=0@note_on channel=9 note=38 velocity=80 time=0@note_on channel=9 note=35 velocity=80 time=0@note_on channel=9 note=42 velocity=16 time=0@note_on channel=1 note=65 velocity=126 time=0@note_on channel=4 note=53 velocity=126 time=0@note_on channel=7 note=58 velocity=126 time=0@note_on channel=0 note=77 velocity=0 time=0.08828125@note_on channel=1 note=77 velocity=0 time=0.004687500000000001@note_on channel=2 note=89 velocity=0 time=0@note_on channel=9 note=38 velocity=0 time=0@note_on channel=9 note=42 velocity=0 time=0@note_on channel=0 note=72 velocity=96 time=0.00078125@note_on channel=1 note=72 velocity=96 time=0@note_on channel=2 note=84 velocity=96 time=0@note_on channel=9 note=38 velocity=80 time=0@note_on channel=9 note=42 velocity=16 time=0@note_on channel=0 note=72 velocity=0 time=0.08828125@note_on channel=1 note=72 velocity=0 time=0.004687500000000001@note_on channel=2 note=84 velocity=0 time=0@note_on channel=3 note=58 velocity=0 time=0@note_on channel=4 note=58 velocity=0 time=0@note_on channel=9 note=38 velocity=0 time=0@note_on channel=7 note=58 velocity=0 time=0@note_on channel=0 note=68 velocity=96 time=0.00078125@note_on channel=1 note=68 velocity=96 time=0@note_on channel=2 note=80 velocity=96 time=0@note_on channel=3 note=56 velocity=126 time=0@note_on channel=4 note=56 velocity=126 time=0@note_on channel=7 note=56 velocity=126 time=0@note_on channel=0 note=68 velocity=0 time=0.08828125@note_on channel=1 note=68 velocity=0 time=0.004687500000000001@note_on channel=2 note=80 velocity=0 time=0@note_on channel=0 note=65 velocity=96 time=0.00078125@note_on channel=1 note=65 velocity=96 time=0@note_on channel=2 note=77 velocity=96 time=0@note_on channel=0 note=65 velocity=0 time=0.08828125@note_on channel=1 note=65 velocity=0 time=0.004687500000000001@note_on channel=1 note=56 velocity=0 time=0@note_on channel=2 note=77 velocity=0 time=0@note_on channel=3 note=56 velocity=0 time=0@note_on channel=4 note=56 velocity=0 time=0@note_on channel=5 note=53 velocity=0 time=0@note_on channel=6 note=53 velocity=0 time=0@note_on channel=7 note=56 velocity=0 time=0@note_on channel=12 note=56 velocity=0 time=0@note_on channel=13 note=56 velocity=0 time=0@note_on channel=14 note=44 velocity=0 time=0@note_on channel=0 note=56 velocity=0 time=0@note_on channel=9 note=35 velocity=0 time=0@note_on channel=9 note=42 velocity=0 time=0@note_on channel=1 note=65 velocity=0 time=0@note_on channel=4 note=53 velocity=0 time=0@note_on channel=7 note=56 velocity=0 time=0@note_on channel=11 note=44 velocity=0 time=0@note_on channel=0 note=79 velocity=96 time=0.00078125@note_on channel=1 note=79 velocity=96 time=0@note_on channel=1 note=55 velocity=96 time=0@note_on channel=2 note=91 velocity=96 time=0@note_on channel=3 note=55 velocity=126 time=0@note_on channel=4 note=55 velocity=126 time=0@note_on channel=5 note=55 velocity=126 time=0@note_on channel=6 note=55 velocity=126 time=0@note_on channel=7 note=55 velocity=96 time=0@note_on channel=12 note=55 velocity=96 time=0@note_on channel=13 note=55 velocity=96 time=0@note_on channel=14 note=43 velocity=96 time=0@note_on channel=0 note=55 velocity=96 time=0@note_on channel=9 note=42 velocity=16 time=0@note_on channel=1 note=67 velocity=126 time=0@note_on channel=4 note=55 velocity=126 time=0@note_on channel=7 note=55 velocity=126 time=0@note_on channel=11 note=43 velocity=96 time=0@note_on channel=0 note=79 velocity=0 time=0.08828125@note_on channel=1 note=79 velocity=0 time=0.004687500000000001@note_on channel=2 note=91 velocity=0 time=0@note_on channel=0 note=73 velocity=96 time=0.00078125@note_on channel=1 note=73 velocity=96 time=0@note_on channel=2 note=85 velocity=96 time=0@note_on channel=0 note=73 velocity=0 time=0.08828125@note_on channel=1 note=73 velocity=0 time=0.004687500000000001@note_on channel=2 note=85 velocity=0 time=0@note_on channel=9 note=42 velocity=0 time=0@note_on channel=0 note=70 velocity=96 time=0.00078125@note_on channel=1 note=70 velocity=96 time=0@note_on channel=2 note=82 velocity=96 time=0@note_on channel=9 note=42 velocity=16 time=0@note_on channel=0 note=70 velocity=0 time=0.08828125@note_on channel=1 note=70 velocity=0 time=0.004687500000000001@note_on channel=2 note=82 velocity=0 time=0@note_on channel=0 note=67 velocity=96 time=0.00078125@note_on channel=1 note=67 velocity=96 time=0@note_on channel=2 note=79 velocity=96 time=0@note_on channel=0 note=67 velocity=0 time=0.08828125@note_on channel=1 note=67 velocity=0 time=0.004687500000000001@note_on channel=2 note=79 velocity=0 time=0@note_on channel=9 note=42 velocity=0 time=0@note_on channel=0 note=79 velocity=96 time=0.00078125@note_on channel=1 note=79 velocity=96 time=0@note_on channel=2 note=91 velocity=96 time=0@note_on channel=9 note=38 velocity=80 time=0@note_on channel=9 note=35 velocity=80 time=0@note_on channel=9 note=42 velocity=16 time=0@note_on channel=0 note=79 velocity=0 time=0.08828125@note_on channel=1 note=79 velocity=0 time=0.004687500000000001@note_on channel=2 note=91 velocity=0 time=0@note_on channel=0 note=73 velocity=96 time=0.00078125@note_on channel=1 note=73 velocity=96 time=0@note_on channel=2 note=85 velocity=96 time=0@note_on channel=0 note=73 velocity=0 time=0.08828125@note_on channel=1 note=73 velocity=0 time=0.004687500000000001@note_on channel=2 note=85 velocity=0 time=0@note_on channel=9 note=42 velocity=0 time=0@note_on channel=0 note=70 velocity=96 time=0.00078125@note_on channel=1 note=70 velocity=96 time=0@note_on channel=2 note=82 velocity=96 time=0@note_on channel=9 note=42 velocity=16 time=0@note_on channel=0 note=70 velocity=0 time=0.08828125@note_on channel=1 note=70 velocity=0 time=0.004687500000000001@note_on channel=2 note=82 velocity=0 time=0@note_on channel=9 note=42 velocity=0 time=0@note_on channel=0 note=67 velocity=96 time=0.00078125@note_on channel=1 note=67 velocity=96 time=0@note_on channel=2 note=79 velocity=96 time=0@note_on channel=9 note=42 velocity=16 time=0@note_on channel=0 note=67 velocity=0 time=0.08828125@note_on channel=1 note=67 velocity=0 time=0.004687500000000001@note_on channel=2 note=79 velocity=0 time=0@note_on channel=9 note=38 velocity=0 time=0@note_on channel=9 note=35 velocity=0 time=0@note_on channel=9 note=42 velocity=0 time=0@note_on channel=0 note=79 velocity=96 time=0.00078125@note_on channel=1 note=79 velocity=96 time=0@note_on channel=2 note=91 velocity=96 time=0@note_on channel=9 note=42 velocity=16 time=0@note_on channel=0 note=79 velocity=0 time=0.08828125@note_on channel=1 note=79 velocity=0 time=0.004687500000000001@note_on channel=2 note=91 velocity=0 time=0@note_on channel=0 note=73 velocity=96 time=0.00078125@note_on channel=1 note=73 velocity=96 time=0@note_on channel=2 note=85 velocity=96 time=0@note_on channel=0 note=73 velocity=0 time=0.08828125@note_on channel=1 note=73 velocity=0 time=0.004687500000000001@note_on channel=2 note=85 velocity=0 time=0@note_on channel=9 note=42 velocity=0 time=0@note_on channel=0 note=70 velocity=96 time=0.00078125@note_on channel=1 note=70 velocity=96 time=0@note_on channel=2 note=82 velocity=96 time=0@note_on channel=9 note=42 velocity=16 time=0@note_on channel=0 note=70 velocity=0 time=0.08828125@note_on channel=1 note=70 velocity=0 time=0.004687500000000001@note_on channel=2 note=82 velocity=0 time=0@note_on channel=0 note=67 velocity=96 time=0.00078125@note_on channel=1 note=67 velocity=96 time=0@note_on channel=2 note=79 velocity=96 time=0@note_on channel=0 note=67 velocity=0 time=0.08828125@note_on channel=1 note=67 velocity=0 time=0.004687500000000001@note_on channel=2 note=79 velocity=0 time=0@note_on channel=3 note=55 velocity=0 time=0@note_on channel=4 note=55 velocity=0 time=0@note_on channel=6 note=55 velocity=0 time=0@note_on channel=9 note=42 velocity=0 time=0@note_on channel=4 note=55 velocity=0 time=0@note_on channel=7 note=55 velocity=0 time=0@note_on channel=0 note=79 velocity=96 time=0.00078125@note_on channel=1 note=79 velocity=96 time=0@note_on channel=2 note=91 velocity=96 time=0@note_on channel=3 note=56 velocity=126 time=0@note_on channel=4 note=56 velocity=126 time=0@note_on channel=6 note=56 velocity=126 time=0@note_on channel=9 note=38 velocity=80 time=0@note_on channel=9 note=35 velocity=80 time=0@note_on channel=9 note=42 velocity=16 time=0@note_on channel=4 note=56 velocity=126 time=0@note_on channel=7 note=56 velocity=126 time=0@note_on channel=0 note=79 velocity=0 time=0.08828125@note_on channel=1 note=79 velocity=0 time=0.004687500000000001@note_on channel=2 note=91 velocity=0 time=0@note_on channel=9 note=38 velocity=0 time=0@note_on channel=9 note=42 velocity=0 time=0@note_on channel=0 note=73 velocity=96 time=0.00078125@note_on channel=1 note=73 velocity=96 time=0@note_on channel=2 note=85 velocity=96 time=0@note_on channel=9 note=38 velocity=80 time=0@note_on channel=9 note=42 velocity=16 time=0@note_on channel=0 note=73 velocity=0 time=0.08828125@note_on channel=1 note=73 velocity=0 time=0.004687500000000001@note_on channel=2 note=85 velocity=0 time=0@note_on channel=9 note=38 velocity=0 time=0@note_on channel=0 note=70 velocity=96 time=0.00078125@note_on channel=1 note=70 velocity=96 time=0@note_on channel=2 note=82 velocity=96 time=0@note_on channel=0 note=70 velocity=0 time=0.08828125@note_on channel=1 note=70 velocity=0 time=0.004687500000000001@note_on channel=2 note=82 velocity=0 time=0@note_on channel=0 note=67 velocity=96 time=0.00078125@note_on channel=1 note=67 velocity=96 time=0@note_on channel=2 note=79 velocity=96 time=0@note_on channel=0 note=67 velocity=0 time=0.08828125@note_on channel=1 note=67 velocity=0 time=0.004687500000000001@note_on channel=1 note=55 velocity=0 time=0@note_on channel=2 note=79 velocity=0 time=0@note_on channel=3 note=56 velocity=0 time=0@note_on channel=4 note=56 velocity=0 time=0@note_on channel=5 note=55 velocity=0 time=0@note_on channel=6 note=56 velocity=0 time=0@note_on channel=7 note=55 velocity=0 time=0@note_on channel=12 note=55 velocity=0 time=0@note_on channel=13 note=55 velocity=0 time=0@note_on channel=14 note=43 velocity=0 time=0@note_on channel=0 note=55 velocity=0 time=0@note_on channel=9 note=35 velocity=0 time=0@note_on channel=9 note=42 velocity=0 time=0@note_on channel=1 note=67 velocity=0 time=0@note_on channel=4 note=56 velocity=0 time=0@note_on channel=7 note=56 velocity=0 time=0@note_on channel=11 note=43 velocity=0 time=0@note_on channel=0 note=79 velocity=96 time=0.00078125@note_on channel=1 note=79 velocity=96 time=0@note_on channel=1 note=48 velocity=96 time=0@note_on channel=2 note=91 velocity=96 time=0@note_on channel=3 note=58 velocity=126 time=0@note_on channel=4 note=58 velocity=126 time=0@note_on channel=5 note=67 velocity=126 time=0@note_on channel=6 note=58 velocity=126 time=0@note_on channel=7 note=48 velocity=96 time=0@note_on channel=12 note=48 velocity=96 time=0@note_on channel=13 note=48 velocity=96 time=0@note_on channel=14 note=36 velocity=96 time=0@note_on channel=0 note=48 velocity=96 time=0@note_on channel=9 note=42 velocity=16 time=0@note_on channel=1 note=79 velocity=126 time=0@note_on channel=4 note=58 velocity=126 time=0@note_on channel=7 note=58 velocity=126 time=0@note_on channel=11 note=36 velocity=96 time=0@note_on channel=0 note=79 velocity=0 time=0.08828125@note_on channel=1 note=79 velocity=0 time=0.004687500000000001@note_on channel=2 note=91 velocity=0 time=0@note_on channel=0 note=73 velocity=96 time=0.00078125@note_on channel=1 note=73 velocity=96 time=0@note_on channel=2 note=85 velocity=96 time=0@note_on channel=0 note=73 velocity=0 time=0.08828125@note_on channel=1 note=73 velocity=0 time=0.004687500000000001@note_on channel=2 note=85 velocity=0 time=0@note_on channel=9 note=42 velocity=0 time=0@note_on channel=0 note=70 velocity=96 time=0.00078125@note_on channel=1 note=70 velocity=96 time=0@note_on channel=2 note=82 velocity=96 time=0@note_on channel=9 note=42 velocity=16 time=0@note_on channel=0 note=70 velocity=0 time=0.08828125@note_on channel=1 note=70 velocity=0 time=0.004687500000000001@note_on channel=2 note=82 velocity=0 time=0@note_on channel=0 note=67 velocity=96 time=0.00078125@note_on channel=1 note=67 velocity=96 time=0@note_on channel=2 note=79 velocity=96 time=0@note_on channel=0 note=67 velocity=0 time=0.08828125@note_on channel=1 note=67 velocity=0 time=0.004687500000000001@note_on channel=2 note=79 velocity=0 time=0@note_on channel=9 note=42 velocity=0 time=0@note_on channel=0 note=79 velocity=96 time=0.00078125@note_on channel=1 note=79 velocity=96 time=0@note_on channel=2 note=91 velocity=96 time=0@note_on channel=9 note=38 velocity=80 time=0@note_on channel=9 note=35 velocity=80 time=0@note_on channel=9 note=42 velocity=16 time=0@note_on channel=0 note=79 velocity=0 time=0.08828125@note_on channel=1 note=79 velocity=0 time=0.004687500000000001@note_on channel=2 note=91 velocity=0 time=0@note_on channel=0 note=73 velocity=96 time=0.00078125@note_on channel=1 note=73 velocity=96 time=0@note_on channel=2 note=85 velocity=96 time=0@note_on channel=0 note=73 velocity=0 time=0.08828125@note_on channel=1 note=73 velocity=0 time=0.004687500000000001@note_on channel=2 note=85 velocity=0 time=0@note_on channel=9 note=42 velocity=0 time=0@note_on channel=0 note=70 velocity=96 time=0.00078125@note_on channel=1 note=70 velocity=96 time=0@note_on channel=2 note=82 velocity=96 time=0@note_on channel=9 note=42 velocity=16 time=0@note_on channel=0 note=70 velocity=0 time=0.08828125@note_on channel=1 note=70 velocity=0 time=0.004687500000000001@note_on channel=2 note=82 velocity=0 time=0@note_on channel=9 note=42 velocity=0 time=0@note_on channel=0 note=67 velocity=96 time=0.00078125@note_on channel=1 note=67 velocity=96 time=0@note_on channel=2 note=79 velocity=96 time=0@note_on channel=9 note=42 velocity=16 time=0@note_on channel=0 note=67 velocity=0 time=0.08828125@note_on channel=1 note=67 velocity=0 time=0.004687500000000001@note_on channel=2 note=79 velocity=0 time=0@note_on channel=9 note=38 velocity=0 time=0@note_on channel=9 note=35 velocity=0 time=0@note_on channel=9 note=42 velocity=0 time=0@note_on channel=0 note=79 velocity=96 time=0.00078125@note_on channel=1 note=79 velocity=96 time=0@note_on channel=2 note=91 velocity=96 time=0@note_on channel=9 note=42 velocity=16 time=0@note_on channel=0 note=79 velocity=0 time=0.08828125@note_on channel=1 note=79 velocity=0 time=0.004687500000000001@note_on channel=2 note=91 velocity=0 time=0@note_on channel=0 note=73 velocity=96 time=0.00078125@note_on channel=1 note=73 velocity=96 time=0@note_on channel=2 note=85 velocity=96 time=0@note_on channel=0 note=73 velocity=0 time=0.08828125@note_on channel=1 note=73 velocity=0 time=0.004687500000000001@note_on channel=2 note=85 velocity=0 time=0@note_on channel=9 note=42 velocity=0 time=0@note_on channel=0 note=70 velocity=96 time=0.00078125@note_on channel=1 note=70 velocity=96 time=0@note_on channel=2 note=82 velocity=96 time=0@note_on channel=9 note=42 velocity=16 time=0@note_on channel=0 note=70 velocity=0 time=0.08828125@note_on channel=1 note=70 velocity=0 time=0.004687500000000001@note_on channel=2 note=82 velocity=0 time=0@note_on channel=0 note=67 velocity=96 time=0.00078125@note_on channel=1 note=67 velocity=96 time=0@note_on channel=2 note=79 velocity=96 time=0@note_on channel=0 note=67 velocity=0 time=0.08828125@note_on channel=1 note=67 velocity=0 time=0.004687500000000001@note_on channel=2 note=79 velocity=0 time=0@note_on channel=9 note=42 velocity=0 time=0@note_on channel=0 note=79 velocity=96 time=0.00078125@note_on channel=1 note=79 velocity=96 time=0@note_on channel=2 note=91 velocity=96 time=0@note_on channel=9 note=38 velocity=80 time=0@note_on channel=9 note=35 velocity=80 time=0@note_on channel=9 note=42 velocity=16 time=0@note_on channel=0 note=79 velocity=0 time=0.08828125@note_on channel=1 note=79 velocity=0 time=0.004687500000000001@note_on channel=2 note=91 velocity=0 time=0@note_on channel=9 note=38 velocity=0 time=0@note_on channel=9 note=42 velocity=0 time=0@note_on channel=0 note=73 velocity=96 time=0.00078125@note_on channel=1 note=73 velocity=96 time=0@note_on channel=2 note=85 velocity=96 time=0@note_on channel=9 note=38 velocity=80 time=0@note_on channel=9 note=42 velocity=16 time=0@note_on channel=0 note=73 velocity=0 time=0.08828125@note_on channel=1 note=73 velocity=0 time=0.004687500000000001@note_on channel=2 note=85 velocity=0 time=0@note_on channel=9 note=38 velocity=0 time=0@note_on channel=0 note=70 velocity=96 time=0.00078125@note_on channel=1 note=70 velocity=96 time=0@note_on channel=2 note=82 velocity=96 time=0@note_on channel=0 note=70 velocity=0 time=0.08828125@note_on channel=1 note=70 velocity=0 time=0.004687500000000001@note_on channel=2 note=82 velocity=0 time=0@note_on channel=0 note=67 velocity=96 time=0.00078125@note_on channel=1 note=67 velocity=96 time=0@note_on channel=2 note=79 velocity=96 time=0@note_on channel=0 note=67 velocity=0 time=0.08828125@note_on channel=1 note=67 velocity=0 time=0.004687500000000001@note_on channel=1 note=48 velocity=0 time=0@note_on channel=2 note=79 velocity=0 time=0@note_on channel=3 note=58 velocity=0 time=0@note_on channel=4 note=58 velocity=0 time=0@note_on channel=5 note=67 velocity=0 time=0@note_on channel=6 note=58 velocity=0 time=0@note_on channel=7 note=48 velocity=0 time=0@note_on channel=12 note=48 velocity=0 time=0@note_on channel=13 note=48 velocity=0 time=0@note_on channel=14 note=36 velocity=0 time=0@note_on channel=0 note=48 velocity=0 time=0@note_on channel=9 note=35 velocity=0 time=0@note_on channel=9 note=42 velocity=0 time=0@note_on channel=1 note=79 velocity=0 time=0@note_on channel=4 note=58 velocity=0 time=0@note_on channel=7 note=58 velocity=0 time=0@note_on channel=11 note=36 velocity=0 time=0@note_on channel=0 note=82 velocity=96 time=0.00078125@note_on channel=1 note=82 velocity=96 time=0@note_on channel=1 note=49 velocity=96 time=0@note_on channel=2 note=94 velocity=96 time=0@note_on channel=3 note=58 velocity=126 time=0@note_on channel=4 note=58 velocity=126 time=0@note_on channel=5 note=70 velocity=126 time=0@note_on channel=6 note=53 velocity=126 time=0@note_on channel=7 note=49 velocity=96 time=0@note_on channel=12 note=49 velocity=96 time=0@note_on channel=13 note=49 velocity=96 time=0@note_on channel=14 note=37 velocity=96 time=0@note_on channel=0 note=49 velocity=96 time=0@note_on channel=9 note=42 velocity=16 time=0@note_on channel=1 note=82 velocity=126 time=0@note_on channel=4 note=53 velocity=126 time=0@note_on channel=7 note=58 velocity=126 time=0@note_on channel=11 note=37 velocity=96 time=0@note_on channel=0 note=82 velocity=0 time=0.08828125@note_on channel=1 note=82 velocity=0 time=0.004687500000000001@note_on channel=2 note=94 velocity=0 time=0@note_on channel=0 note=77 velocity=96 time=0.00078125@note_on channel=1 note=77 velocity=96 time=0@note_on channel=2 note=89 velocity=96 time=0@note_on channel=0 note=77 velocity=0 time=0.08828125@note_on channel=1 note=77 velocity=0 time=0.004687500000000001@note_on channel=2 note=89 velocity=0 time=0@note_on channel=9 note=42 velocity=0 time=0@note_on channel=0 note=73 velocity=96 time=0.00078125@note_on channel=1 note=73 velocity=96 time=0@note_on channel=2 note=85 velocity=96 time=0@note_on channel=9 note=42 velocity=16 time=0@note_on channel=0 note=73 velocity=0 time=0.08828125@note_on channel=1 note=73 velocity=0 time=0.004687500000000001@note_on channel=2 note=85 velocity=0 time=0@note_on channel=0 note=70 velocity=96 time=0.00078125@note_on channel=1 note=70 velocity=96 time=0@note_on channel=2 note=82 velocity=96 time=0@note_on channel=0 note=70 velocity=0 time=0.08828125@note_on channel=1 note=70 velocity=0 time=0.004687500000000001@note_on channel=2 note=82 velocity=0 time=0@note_on channel=9 note=42 velocity=0 time=0@note_on channel=0 note=82 velocity=96 time=0.00078125@note_on channel=1 note=82 velocity=96 time=0@note_on channel=2 note=94 velocity=96 time=0@note_on channel=9 note=38 velocity=80 time=0@note_on channel=9 note=35 velocity=80 time=0@note_on channel=9 note=42 velocity=16 time=0@note_on channel=0 note=82 velocity=0 time=0.08828125@note_on channel=1 note=82 velocity=0 time=0.004687500000000001@note_on channel=2 note=94 velocity=0 time=0@note_on channel=0 note=77 velocity=96 time=0.00078125@note_on channel=1 note=77 velocity=96 time=0@note_on channel=2 note=89 velocity=96 time=0@note_on channel=0 note=77 velocity=0 time=0.08828125@note_on channel=1 note=77 velocity=0 time=0.004687500000000001@note_on channel=2 note=89 velocity=0 time=0@note_on channel=9 note=42 velocity=0 time=0@note_on channel=0 note=73 velocity=96 time=0.00078125@note_on channel=1 note=73 velocity=96 time=0@note_on channel=2 note=85 velocity=96 time=0@note_on channel=9 note=42 velocity=16 time=0@note_on channel=0 note=73 velocity=0 time=0.08828125@note_on channel=1 note=73 velocity=0 time=0.004687500000000001@note_on channel=2 note=85 velocity=0 time=0@note_on channel=9 note=42 velocity=0 time=0@note_on channel=0 note=70 velocity=96 time=0.00078125@note_on channel=1 note=70 velocity=96 time=0@note_on channel=2 note=82 velocity=96 time=0@note_on channel=9 note=42 velocity=16 time=0@note_on channel=0 note=70 velocity=0 time=0.08828125@note_on channel=1 note=70 velocity=0 time=0.004687500000000001@note_on channel=2 note=82 velocity=0 time=0@note_on channel=9 note=38 velocity=0 time=0@note_on channel=9 note=35 velocity=0 time=0@note_on channel=9 note=42 velocity=0 time=0@note_on channel=0 note=82 velocity=96 time=0.00078125@note_on channel=1 note=82 velocity=96 time=0@note_on channel=2 note=94 velocity=96 time=0@note_on channel=9 note=42 velocity=16 time=0@note_on channel=0 note=82 velocity=0 time=0.08828125@note_on channel=1 note=82 velocity=0 time=0.004687500000000001@note_on channel=2 note=94 velocity=0 time=0@note_on channel=0 note=77 velocity=96 time=0.00078125@note_on channel=1 note=77 velocity=96 time=0@note_on channel=2 note=89 velocity=96 time=0@note_on channel=0 note=77 velocity=0 time=0.08828125@note_on channel=1 note=77 velocity=0 time=0.004687500000000001@note_on channel=2 note=89 velocity=0 time=0@note_on channel=9 note=42 velocity=0 time=0@note_on channel=0 note=73 velocity=96 time=0.00078125@note_on channel=1 note=73 velocity=96 time=0@note_on channel=2 note=85 velocity=96 time=0@note_on channel=9 note=42 velocity=16 time=0@note_on channel=0 note=73 velocity=0 time=0.08828125@note_on channel=1 note=73 velocity=0 time=0.004687500000000001@note_on channel=2 note=85 velocity=0 time=0@note_on channel=0 note=70 velocity=96 time=0.00078125@note_on channel=1 note=70 velocity=96 time=0@note_on channel=2 note=82 velocity=96 time=0@note_on channel=0 note=70 velocity=0 time=0.08828125@note_on channel=1 note=70 velocity=0 time=0.004687500000000001@note_on channel=2 note=82 velocity=0 time=0@note_on channel=3 note=58 velocity=0 time=0@note_on channel=4 note=58 velocity=0 time=0@note_on channel=5 note=70 velocity=0 time=0@note_on channel=9 note=42 velocity=0 time=0@note_on channel=1 note=82 velocity=0 time=0@note_on channel=7 note=58 velocity=0 time=0@note_on channel=0 note=82 velocity=96 time=0.00078125@note_on channel=1 note=82 velocity=96 time=0@note_on channel=2 note=94 velocity=96 time=0@note_on channel=3 note=60 velocity=126 time=0@note_on channel=4 note=60 velocity=126 time=0@note_on channel=5 note=68 velocity=126 time=0@note_on channel=9 note=38 velocity=80 time=0@note_on channel=9 note=35 velocity=80 time=0@note_on channel=9 note=42 velocity=16 time=0@note_on channel=1 note=80 velocity=126 time=0@note_on channel=7 note=60 velocity=126 time=0@note_on channel=0 note=82 velocity=0 time=0.08828125@note_on channel=1 note=82 velocity=0 time=0.004687500000000001@note_on channel=2 note=94 velocity=0 time=0@note_on channel=9 note=38 velocity=0 time=0@note_on channel=9 note=42 velocity=0 time=0@note_on channel=0 note=77 velocity=96 time=0.00078125@note_on channel=1 note=77 velocity=96 time=0@note_on channel=2 note=89 velocity=96 time=0@note_on channel=9 note=38 velocity=80 time=0@note_on channel=9 note=42 velocity=16 time=0@note_on channel=0 note=77 velocity=0 time=0.08828125@note_on channel=1 note=77 velocity=0 time=0.004687500000000001@note_on channel=2 note=89 velocity=0 time=0@note_on channel=9 note=38 velocity=0 time=0@note_on channel=0 note=73 velocity=96 time=0.00078125@note_on channel=1 note=73 velocity=96 time=0@note_on channel=2 note=85 velocity=96 time=0@note_on channel=0 note=73 velocity=0 time=0.08828125@note_on channel=1 note=73 velocity=0 time=0.004687500000000001@note_on channel=2 note=85 velocity=0 time=0@note_on channel=0 note=70 velocity=96 time=0.00078125@note_on channel=1 note=70 velocity=96 time=0@note_on channel=2 note=82 velocity=96 time=0@note_on channel=0 note=70 velocity=0 time=0.08828125@note_on channel=1 note=70 velocity=0 time=0.004687500000000001@note_on channel=1 note=49 velocity=0 time=0@note_on channel=2 note=82 velocity=0 time=0@note_on channel=3 note=60 velocity=0 time=0@note_on channel=4 note=60 velocity=0 time=0@note_on channel=5 note=68 velocity=0 time=0@note_on channel=6 note=53 velocity=0 time=0@note_on channel=7 note=49 velocity=0 time=0@note_on channel=12 note=49 velocity=0 time=0@note_on channel=13 note=49 velocity=0 time=0@note_on channel=14 note=37 velocity=0 time=0@note_on channel=0 note=49 velocity=0 time=0@note_on channel=9 note=35 velocity=0 time=0@note_on channel=9 note=42 velocity=0 time=0@note_on channel=1 note=80 velocity=0 time=0@note_on channel=4 note=53 velocity=0 time=0@note_on channel=7 note=60 velocity=0 time=0@note_on channel=11 note=37 velocity=0 time=0@note_on channel=0 note=77 velocity=96 time=0.00078125@note_on channel=1 note=77 velocity=96 time=0@note_on channel=1 note=53 velocity=96 time=0@note_on channel=2 note=89 velocity=96 time=0@note_on channel=3 note=56 velocity=126 time=0@note_on channel=4 note=56 velocity=126 time=0@note_on channel=5 note=65 velocity=126 time=0@note_on channel=6 note=53 velocity=126 time=0@note_on channel=7 note=53 velocity=96 time=0@note_on channel=12 note=53 velocity=96 time=0@note_on channel=13 note=53 velocity=96 time=0@note_on channel=14 note=41 velocity=96 time=0@note_on channel=0 note=53 velocity=96 time=0@note_on channel=9 note=42 velocity=16 time=0@note_on channel=1 note=77 velocity=126 time=0@note_on channel=4 note=53 velocity=126 time=0@note_on channel=7 note=56 velocity=126 time=0@note_on channel=11 note=41 velocity=96 time=0@note_on channel=0 note=77 velocity=0 time=0.08828125@note_on channel=1 note=77 velocity=0 time=0.004687500000000001@note_on channel=2 note=89 velocity=0 time=0@note_on channel=0 note=72 velocity=96 time=0.00078125@note_on channel=1 note=72 velocity=96 time=0@note_on channel=2 note=84 velocity=96 time=0@note_on channel=0 note=72 velocity=0 time=0.08828125@note_on channel=1 note=72 velocity=0 time=0.004687500000000001@note_on channel=2 note=84 velocity=0 time=0@note_on channel=9 note=42 velocity=0 time=0@note_on channel=0 note=68 velocity=96 time=0.00078125@note_on channel=1 note=68 velocity=96 time=0@note_on channel=2 note=80 velocity=96 time=0@note_on channel=9 note=42 velocity=16 time=0@note_on channel=0 note=68 velocity=0 time=0.08828125@note_on channel=1 note=68 velocity=0 time=0.004687500000000001@note_on channel=2 note=80 velocity=0 time=0@note_on channel=0 note=65 velocity=96 time=0.00078125@note_on channel=1 note=65 velocity=96 time=0@note_on channel=2 note=77 velocity=96 time=0@note_on channel=0 note=65 velocity=0 time=0.08828125@note_on channel=1 note=65 velocity=0 time=0.004687500000000001@note_on channel=2 note=77 velocity=0 time=0@note_on channel=9 note=42 velocity=0 time=0@note_on channel=0 note=77 velocity=96 time=0.00078125@note_on channel=1 note=77 velocity=96 time=0@note_on channel=2 note=89 velocity=96 time=0@note_on channel=9 note=38 velocity=80 time=0@note_on channel=9 note=35 velocity=80 time=0@note_on channel=9 note=42 velocity=16 time=0@note_on channel=0 note=77 velocity=0 time=0.08828125@note_on channel=1 note=77 velocity=0 time=0.004687500000000001@note_on channel=2 note=89 velocity=0 time=0@note_on channel=0 note=72 velocity=96 time=0.00078125@note_on channel=1 note=72 velocity=96 time=0@note_on channel=2 note=84 velocity=96 time=0@note_on channel=0 note=72 velocity=0 time=0.08828125@note_on channel=1 note=72 velocity=0 time=0.004687500000000001@note_on channel=2 note=84 velocity=0 time=0@note_on channel=9 note=42 velocity=0 time=0@note_on channel=0 note=68 velocity=96 time=0.00078125@note_on channel=1 note=68 velocity=96 time=0@note_on channel=2 note=80 velocity=96 time=0@note_on channel=9 note=42 velocity=16 time=0@note_on channel=0 note=68 velocity=0 time=0.08828125@note_on channel=1 note=68 velocity=0 time=0.004687500000000001@note_on channel=2 note=80 velocity=0 time=0@note_on channel=9 note=42 velocity=0 time=0@note_on channel=0 note=65 velocity=96 time=0.00078125@note_on channel=1 note=65 velocity=96 time=0@note_on channel=2 note=77 velocity=96 time=0@note_on channel=9 note=42 velocity=16 time=0@note_on channel=0 note=65 velocity=0 time=0.08828125@note_on channel=1 note=65 velocity=0 time=0.004687500000000001@note_on channel=2 note=77 velocity=0 time=0@note_on channel=9 note=38 velocity=0 time=0@note_on channel=9 note=35 velocity=0 time=0@note_on channel=9 note=42 velocity=0 time=0@note_on channel=0 note=77 velocity=96 time=0.00078125@note_on channel=1 note=77 velocity=96 time=0@note_on channel=2 note=89 velocity=96 time=0@note_on channel=9 note=42 velocity=16 time=0@note_on channel=0 note=77 velocity=0 time=0.08828125@note_on channel=1 note=77 velocity=0 time=0.004687500000000001@note_on channel=2 note=89 velocity=0 time=0@note_on channel=0 note=72 velocity=96 time=0.00078125@note_on channel=1 note=72 velocity=96 time=0@note_on channel=2 note=84 velocity=96 time=0@note_on channel=0 note=72 velocity=0 time=0.08828125@note_on channel=1 note=72 velocity=0 time=0.004687500000000001@note_on channel=2 note=84 velocity=0 time=0@note_on channel=9 note=42 velocity=0 time=0@note_on channel=0 note=68 velocity=96 time=0.00078125@note_on channel=1 note=68 velocity=96 time=0@note_on channel=2 note=80 velocity=96 time=0@note_on channel=9 note=42 velocity=16 time=0@note_on channel=0 note=68 velocity=0 time=0.08828125@note_on channel=1 note=68 velocity=0 time=0.004687500000000001@note_on channel=2 note=80 velocity=0 time=0@note_on channel=0 note=65 velocity=96 time=0.00078125@note_on channel=1 note=65 velocity=96 time=0@note_on channel=2 note=77 velocity=96 time=0@note_on channel=0 note=65 velocity=0 time=0.08828125@note_on channel=1 note=65 velocity=0 time=0.004687500000000001@note_on channel=2 note=77 velocity=0 time=0@note_on channel=9 note=42 velocity=0 time=0@note_on channel=0 note=77 velocity=96 time=0.00078125@note_on channel=1 note=77 velocity=96 time=0@note_on channel=2 note=89 velocity=96 time=0@note_on channel=9 note=38 velocity=80 time=0@note_on channel=9 note=35 velocity=80 time=0@note_on channel=9 note=42 velocity=16 time=0@note_on channel=0 note=77 velocity=0 time=0.08828125@note_on channel=1 note=77 velocity=0 time=0.004687500000000001@note_on channel=2 note=89 velocity=0 time=0@note_on channel=9 note=38 velocity=0 time=0@note_on channel=9 note=42 velocity=0 time=0@note_on channel=0 note=72 velocity=96 time=0.00078125@note_on channel=1 note=72 velocity=96 time=0@note_on channel=2 note=84 velocity=96 time=0@note_on channel=9 note=38 velocity=80 time=0@note_on channel=9 note=42 velocity=16 time=0@note_on channel=0 note=72 velocity=0 time=0.08828125@note_on channel=1 note=72 velocity=0 time=0.004687500000000001@note_on channel=2 note=84 velocity=0 time=0@note_on channel=9 note=38 velocity=0 time=0@note_on channel=0 note=68 velocity=96 time=0.00078125@note_on channel=1 note=68 velocity=96 time=0@note_on channel=2 note=80 velocity=96 time=0@note_on channel=0 note=68 velocity=0 time=0.08828125@note_on channel=1 note=68 velocity=0 time=0.004687500000000001@note_on channel=2 note=80 velocity=0 time=0@note_on channel=0 note=65 velocity=96 time=0.00078125@note_on channel=1 note=65 velocity=96 time=0@note_on channel=2 note=77 velocity=96 time=0@note_on channel=0 note=65 velocity=0 time=0.08828125@note_on channel=1 note=65 velocity=0 time=0.004687500000000001@note_on channel=1 note=53 velocity=0 time=0@note_on channel=2 note=77 velocity=0 time=0@note_on channel=3 note=56 velocity=0 time=0@note_on channel=4 note=56 velocity=0 time=0@note_on channel=5 note=65 velocity=0 time=0@note_on channel=6 note=53 velocity=0 time=0@note_on channel=7 note=53 velocity=0 time=0@note_on channel=12 note=53 velocity=0 time=0@note_on channel=13 note=53 velocity=0 time=0@note_on channel=14 note=41 velocity=0 time=0@note_on channel=0 note=53 velocity=0 time=0@note_on channel=9 note=35 velocity=0 time=0@note_on channel=9 note=42 velocity=0 time=0@note_on channel=1 note=77 velocity=0 time=0@note_on channel=4 note=53 velocity=0 time=0@note_on channel=7 note=56 velocity=0 time=0@note_on channel=11 note=41 velocity=0 time=0@note_on channel=0 note=79 velocity=96 time=0.00078125@note_on channel=1 note=79 velocity=96 time=0@note_on channel=1 note=46 velocity=96 time=0@note_on channel=2 note=91 velocity=96 time=0@note_on channel=3 note=58 velocity=126 time=0@note_on channel=4 note=58 velocity=126 time=0@note_on channel=5 note=67 velocity=126 time=0@note_on channel=6 note=58 velocity=126 time=0@note_on channel=7 note=46 velocity=96 time=0@note_on channel=12 note=46 velocity=96 time=0@note_on channel=13 note=46 velocity=96 time=0@note_on channel=14 note=34 velocity=96 time=0@note_on channel=0 note=46 velocity=96 time=0@note_on channel=9 note=42 velocity=16 time=0@note_on channel=1 note=79 velocity=126 time=0@note_on channel=4 note=58 velocity=126 time=0@note_on channel=7 note=58 velocity=126 time=0@note_on channel=11 note=34 velocity=96 time=0@note_on channel=0 note=79 velocity=0 time=0.08828125@note_on channel=1 note=79 velocity=0 time=0.004687500000000001@note_on channel=2 note=91 velocity=0 time=0@note_on channel=0 note=73 velocity=96 time=0.00078125@note_on channel=1 note=73 velocity=96 time=0@note_on channel=2 note=85 velocity=96 time=0@note_on channel=0 note=73 velocity=0 time=0.08828125@note_on channel=1 note=73 velocity=0 time=0.004687500000000001@note_on channel=2 note=85 velocity=0 time=0@note_on channel=9 note=42 velocity=0 time=0@note_on channel=0 note=70 velocity=96 time=0.00078125@note_on channel=1 note=70 velocity=96 time=0@note_on channel=2 note=82 velocity=96 time=0@note_on channel=9 note=42 velocity=16 time=0@note_on channel=0 note=70 velocity=0 time=0.08828125@note_on channel=1 note=70 velocity=0 time=0.004687500000000001@note_on channel=2 note=82 velocity=0 time=0@note_on channel=0 note=67 velocity=96 time=0.00078125@note_on channel=1 note=67 velocity=96 time=0@note_on channel=2 note=79 velocity=96 time=0@note_on channel=0 note=67 velocity=0 time=0.08828125@note_on channel=1 note=67 velocity=0 time=0.004687500000000001@note_on channel=2 note=79 velocity=0 time=0@note_on channel=9 note=42 velocity=0 time=0@note_on channel=0 note=79 velocity=96 time=0.00078125@note_on channel=1 note=79 velocity=96 time=0@note_on channel=2 note=91 velocity=96 time=0@note_on channel=9 note=38 velocity=80 time=0@note_on channel=9 note=35 velocity=80 time=0@note_on channel=9 note=42 velocity=16 time=0@note_on channel=0 note=79 velocity=0 time=0.08828125@note_on channel=1 note=79 velocity=0 time=0.004687500000000001@note_on channel=2 note=91 velocity=0 time=0@note_on channel=0 note=73 velocity=96 time=0.00078125@note_on channel=1 note=73 velocity=96 time=0@note_on channel=2 note=85 velocity=96 time=0@note_on channel=0 note=73 velocity=0 time=0.08828125@note_on channel=1 note=73 velocity=0 time=0.004687500000000001@note_on channel=2 note=85 velocity=0 time=0@note_on channel=9 note=42 velocity=0 time=0@note_on channel=0 note=70 velocity=96 time=0.00078125@note_on channel=1 note=70 velocity=96 time=0@note_on channel=2 note=82 velocity=96 time=0@note_on channel=9 note=42 velocity=16 time=0@note_on channel=0 note=70 velocity=0 time=0.08828125@note_on channel=1 note=70 velocity=0 time=0.004687500000000001@note_on channel=2 note=82 velocity=0 time=0@note_on channel=9 note=42 velocity=0 time=0@note_on channel=0 note=67 velocity=96 time=0.00078125@note_on channel=1 note=67 velocity=96 time=0@note_on channel=2 note=79 velocity=96 time=0@note_on channel=9 note=42 velocity=16 time=0@note_on channel=0 note=67 velocity=0 time=0.08828125@note_on channel=1 note=67 velocity=0 time=0.004687500000000001@note_on channel=2 note=79 velocity=0 time=0@note_on channel=9 note=38 velocity=0 time=0@note_on channel=9 note=35 velocity=0 time=0@note_on channel=9 note=42 velocity=0 time=0@note_on channel=0 note=79 velocity=96 time=0.00078125@note_on channel=1 note=79 velocity=96 time=0@note_on channel=2 note=91 velocity=96 time=0@note_on channel=9 note=42 velocity=16 time=0@note_on channel=0 note=79 velocity=0 time=0.08828125@note_on channel=1 note=79 velocity=0 time=0.004687500000000001@note_on channel=2 note=91 velocity=0 time=0@note_on channel=0 note=73 velocity=96 time=0.00078125@note_on channel=1 note=73 velocity=96 time=0@note_on channel=2 note=85 velocity=96 time=0@note_on channel=0 note=73 velocity=0 time=0.08828125@note_on channel=1 note=73 velocity=0 time=0.004687500000000001@note_on channel=2 note=85 velocity=0 time=0@note_on channel=9 note=42 velocity=0 time=0@note_on channel=0 note=70 velocity=96 time=0.00078125@note_on channel=1 note=70 velocity=96 time=0@note_on channel=2 note=82 velocity=96 time=0@note_on channel=9 note=42 velocity=16 time=0@note_on channel=0 note=70 velocity=0 time=0.08828125@note_on channel=1 note=70 velocity=0 time=0.004687500000000001@note_on channel=2 note=82 velocity=0 time=0@note_on channel=0 note=67 velocity=96 time=0.00078125@note_on channel=1 note=67 velocity=96 time=0@note_on channel=2 note=79 velocity=96 time=0@note_on channel=0 note=67 velocity=0 time=0.08828125@note_on channel=1 note=67 velocity=0 time=0.004687500000000001@note_on channel=2 note=79 velocity=0 time=0@note_on channel=9 note=42 velocity=0 time=0@note_on channel=0 note=79 velocity=96 time=0.00078125@note_on channel=1 note=79 velocity=96 time=0@note_on channel=2 note=91 velocity=96 time=0@note_on channel=9 note=38 velocity=80 time=0@note_on channel=9 note=35 velocity=80 time=0@note_on channel=9 note=42 velocity=16 time=0@note_on channel=0 note=79 velocity=0 time=0.08828125@note_on channel=1 note=79 velocity=0 time=0.004687500000000001@note_on channel=2 note=91 velocity=0 time=0@note_on channel=9 note=38 velocity=0 time=0@note_on channel=9 note=42 velocity=0 time=0@note_on channel=0 note=73 velocity=96 time=0.00078125@note_on channel=1 note=73 velocity=96 time=0@note_on channel=2 note=85 velocity=96 time=0@note_on channel=9 note=38 velocity=80 time=0@note_on channel=9 note=42 velocity=16 time=0@note_on channel=0 note=73 velocity=0 time=0.08828125@note_on channel=1 note=73 velocity=0 time=0.004687500000000001@note_on channel=2 note=85 velocity=0 time=0@note_on channel=9 note=38 velocity=0 time=0@note_on channel=0 note=70 velocity=96 time=0.00078125@note_on channel=1 note=70 velocity=96 time=0@note_on channel=2 note=82 velocity=96 time=0@note_on channel=0 note=70 velocity=0 time=0.08828125@note_on channel=1 note=70 velocity=0 time=0.004687500000000001@note_on channel=2 note=82 velocity=0 time=0@note_on channel=0 note=67 velocity=96 time=0.00078125@note_on channel=1 note=67 velocity=96 time=0@note_on channel=2 note=79 velocity=96 time=0@note_on channel=0 note=67 velocity=0 time=0.08828125@note_on channel=1 note=67 velocity=0 time=0.004687500000000001@note_on channel=1 note=46 velocity=0 time=0@note_on channel=2 note=79 velocity=0 time=0@note_on channel=3 note=58 velocity=0 time=0@note_on channel=4 note=58 velocity=0 time=0@note_on channel=5 note=67 velocity=0 time=0@note_on channel=6 note=58 velocity=0 time=0@note_on channel=7 note=46 velocity=0 time=0@note_on channel=12 note=46 velocity=0 time=0@note_on channel=13 note=46 velocity=0 time=0@note_on channel=14 note=34 velocity=0 time=0@note_on channel=0 note=46 velocity=0 time=0@note_on channel=9 note=35 velocity=0 time=0@note_on channel=9 note=42 velocity=0 time=0@note_on channel=1 note=79 velocity=0 time=0@note_on channel=4 note=58 velocity=0 time=0@note_on channel=7 note=58 velocity=0 time=0@note_on channel=11 note=34 velocity=0 time=0@note_on channel=0 note=77 velocity=96 time=0.00078125@note_on channel=1 note=77 velocity=96 time=0@note_on channel=1 note=53 velocity=96 time=0@note_on channel=2 note=89 velocity=96 time=0@note_on channel=3 note=60 velocity=126 time=0@note_on channel=4 note=60 velocity=126 time=0@note_on channel=5 note=65 velocity=126 time=0@note_on channel=6 note=56 velocity=126 time=0@note_on channel=7 note=53 velocity=96 time=0@note_on channel=12 note=53 velocity=96 time=0@note_on channel=13 note=53 velocity=96 time=0@note_on channel=14 note=41 velocity=96 time=0@note_on channel=0 note=53 velocity=96 time=0@note_on channel=9 note=42 velocity=16 time=0@note_on channel=1 note=77 velocity=126 time=0@note_on channel=4 note=56 velocity=126 time=0@note_on channel=7 note=60 velocity=126 time=0@note_on channel=11 note=41 velocity=96 time=0@note_on channel=0 note=77 velocity=0 time=0.08828125@note_on channel=1 note=77 velocity=0 time=0.004687500000000001@note_on channel=2 note=89 velocity=0 time=0@note_on channel=0 note=72 velocity=96 time=0.00078125@note_on channel=1 note=72 velocity=96 time=0@note_on channel=2 note=84 velocity=96 time=0@note_on channel=0 note=72 velocity=0 time=0.08828125@note_on channel=1 note=72 velocity=0 time=0.004687500000000001@note_on channel=2 note=84 velocity=0 time=0@note_on channel=9 note=42 velocity=0 time=0@note_on channel=0 note=68 velocity=96 time=0.00078125@note_on channel=1 note=68 velocity=96 time=0@note_on channel=2 note=80 velocity=96 time=0@note_on channel=9 note=42 velocity=16 time=0@note_on channel=0 note=68 velocity=0 time=0.08828125@note_on channel=1 note=68 velocity=0 time=0.004687500000000001@note_on channel=2 note=80 velocity=0 time=0@note_on channel=0 note=65 velocity=96 time=0.00078125@note_on channel=1 note=65 velocity=96 time=0@note_on channel=2 note=77 velocity=96 time=0@note_on channel=0 note=65 velocity=0 time=0.08828125@note_on channel=1 note=65 velocity=0 time=0.004687500000000001@note_on channel=2 note=77 velocity=0 time=0@note_on channel=9 note=42 velocity=0 time=0@note_on channel=0 note=77 velocity=96 time=0.00078125@note_on channel=1 note=77 velocity=96 time=0@note_on channel=2 note=89 velocity=96 time=0@note_on channel=9 note=38 velocity=80 time=0@note_on channel=9 note=35 velocity=80 time=0@note_on channel=9 note=42 velocity=16 time=0@note_on channel=0 note=77 velocity=0 time=0.08828125@note_on channel=1 note=77 velocity=0 time=0.004687500000000001@note_on channel=2 note=89 velocity=0 time=0@note_on channel=0 note=72 velocity=96 time=0.00078125@note_on channel=1 note=72 velocity=96 time=0@note_on channel=2 note=84 velocity=96 time=0@note_on channel=0 note=72 velocity=0 time=0.08828125@note_on channel=1 note=72 velocity=0 time=0.004687500000000001@note_on channel=2 note=84 velocity=0 time=0@note_on channel=9 note=42 velocity=0 time=0@note_on channel=0 note=68 velocity=96 time=0.00078125@note_on channel=1 note=68 velocity=96 time=0@note_on channel=2 note=80 velocity=96 time=0@note_on channel=9 note=42 velocity=16 time=0@note_on channel=0 note=68 velocity=0 time=0.08828125@note_on channel=1 note=68 velocity=0 time=0.004687500000000001@note_on channel=2 note=80 velocity=0 time=0@note_on channel=9 note=42 velocity=0 time=0@note_on channel=0 note=65 velocity=96 time=0.00078125@note_on channel=1 note=65 velocity=96 time=0@note_on channel=2 note=77 velocity=96 time=0@note_on channel=9 note=42 velocity=16 time=0@note_on channel=0 note=65 velocity=0 time=0.08828125@note_on channel=1 note=65 velocity=0 time=0.004687500000000001@note_on channel=2 note=77 velocity=0 time=0@note_on channel=9 note=38 velocity=0 time=0@note_on channel=9 note=35 velocity=0 time=0@note_on channel=9 note=42 velocity=0 time=0@note_on channel=0 note=77 velocity=96 time=0.00078125@note_on channel=1 note=77 velocity=96 time=0@note_on channel=2 note=89 velocity=96 time=0@note_on channel=9 note=42 velocity=16 time=0@note_on channel=0 note=77 velocity=0 time=0.08828125@note_on channel=1 note=77 velocity=0 time=0.004687500000000001@note_on channel=2 note=89 velocity=0 time=0@note_on channel=0 note=72 velocity=96 time=0.00078125@note_on channel=1 note=72 velocity=96 time=0@note_on channel=2 note=84 velocity=96 time=0@note_on channel=0 note=72 velocity=0 time=0.08828125@note_on channel=1 note=72 velocity=0 time=0.004687500000000001@note_on channel=2 note=84 velocity=0 time=0@note_on channel=9 note=42 velocity=0 time=0@note_on channel=0 note=68 velocity=96 time=0.00078125@note_on channel=1 note=68 velocity=96 time=0@note_on channel=2 note=80 velocity=96 time=0@note_on channel=9 note=38 velocity=80 time=0@note_on channel=9 note=42 velocity=16 time=0@note_on channel=0 note=68 velocity=0 time=0.08828125@note_on channel=1 note=68 velocity=0 time=0.004687500000000001@note_on channel=2 note=80 velocity=0 time=0@note_on channel=9 note=38 velocity=0 time=0@note_on channel=0 note=65 velocity=96 time=0.00078125@note_on channel=1 note=65 velocity=96 time=0@note_on channel=2 note=77 velocity=96 time=0@note_on channel=9 note=38 velocity=80 time=0@note_on channel=0 note=65 velocity=0 time=0.08828125@note_on channel=1 note=65 velocity=0 time=0.004687500000000001@note_on channel=2 note=77 velocity=0 time=0@note_on channel=9 note=38 velocity=0 time=0@note_on channel=9 note=42 velocity=0 time=0@note_on channel=0 note=77 velocity=96 time=0.00078125@note_on channel=1 note=77 velocity=96 time=0@note_on channel=2 note=89 velocity=96 time=0@note_on channel=9 note=38 velocity=80 time=0@note_on channel=9 note=35 velocity=80 time=0@note_on channel=9 note=42 velocity=16 time=0@note_on channel=0 note=77 velocity=0 time=0.08828125@note_on channel=1 note=77 velocity=0 time=0.004687500000000001@note_on channel=2 note=89 velocity=0 time=0@note_on channel=9 note=38 velocity=0 time=0@note_on channel=9 note=42 velocity=0 time=0@note_on channel=0 note=72 velocity=96 time=0.00078125@note_on channel=1 note=72 velocity=96 time=0@note_on channel=2 note=84 velocity=96 time=0@note_on channel=9 note=38 velocity=80 time=0@note_on channel=9 note=42 velocity=16 time=0@note_on channel=0 note=72 velocity=0 time=0.08828125@note_on channel=1 note=72 velocity=0 time=0.004687500000000001@note_on channel=2 note=84 velocity=0 time=0@note_on channel=9 note=38 velocity=0 time=0@note_on channel=0 note=68 velocity=96 time=0.00078125@note_on channel=1 note=68 velocity=96 time=0@note_on channel=2 note=80 velocity=96 time=0@note_on channel=9 note=38 velocity=80 time=0@note_on channel=0 note=68 velocity=0 time=0.08828125@note_on channel=1 note=68 velocity=0 time=0.004687500000000001@note_on channel=2 note=80 velocity=0 time=0@note_on channel=9 note=38 velocity=0 time=0@note_on channel=0 note=65 velocity=96 time=0.00078125@note_on channel=1 note=65 velocity=96 time=0@note_on channel=2 note=77 velocity=96 time=0@note_on channel=9 note=38 velocity=80 time=0@note_on channel=0 note=65 velocity=0 time=0.08828125@note_on channel=1 note=65 velocity=0 time=0.004687500000000001@note_on channel=1 note=53 velocity=0 time=0@note_on channel=2 note=77 velocity=0 time=0@note_on channel=3 note=60 velocity=0 time=0@note_on channel=4 note=60 velocity=0 time=0@note_on channel=5 note=65 velocity=0 time=0@note_on channel=6 note=56 velocity=0 time=0@note_on channel=7 note=53 velocity=0 time=0@note_on channel=12 note=53 velocity=0 time=0@note_on channel=13 note=53 velocity=0 time=0@note_on channel=14 note=41 velocity=0 time=0@note_on channel=0 note=53 velocity=0 time=0@note_on channel=9 note=38 velocity=0 time=0@note_on channel=9 note=35 velocity=0 time=0@note_on channel=9 note=42 velocity=0 time=0@note_on channel=1 note=77 velocity=0 time=0@note_on channel=4 note=56 velocity=0 time=0@note_on channel=7 note=60 velocity=0 time=0@note_on channel=11 note=41 velocity=0 time=0@note_on channel=0 note=77 velocity=96 time=0.00078125@note_on channel=1 note=77 velocity=96 time=0@note_on channel=1 note=53 velocity=96 time=0@note_on channel=2 note=89 velocity=96 time=0@note_on channel=3 note=60 velocity=126 time=0@note_on channel=4 note=60 velocity=126 time=0@note_on channel=5 note=65 velocity=126 time=0@note_on channel=6 note=65 velocity=126 time=0@note_on channel=7 note=53 velocity=96 time=0@note_on channel=8 note=72 velocity=126 time=0@note_on channel=10 note=72 velocity=126 time=0@note_on channel=14 note=41 velocity=96 time=0@note_on channel=0 note=53 velocity=96 time=0@note_on channel=9 note=42 velocity=16 time=0@note_on channel=9 note=57 velocity=112 time=0@note_on channel=1 note=77 velocity=126 time=0@note_on channel=4 note=65 velocity=126 time=0@note_on channel=7 note=60 velocity=126 time=0@note_on channel=0 note=77 velocity=0 time=0.08828125@note_on channel=1 note=77 velocity=0 time=0.004687500000000001@note_on channel=2 note=89 velocity=0 time=0@note_on channel=0 note=72 velocity=96 time=0.00078125@note_on channel=1 note=72 velocity=96 time=0@note_on channel=2 note=84 velocity=96 time=0@note_on channel=0 note=72 velocity=0 time=0.08828125@note_on channel=1 note=72 velocity=0 time=0.004687500000000001@note_on channel=2 note=84 velocity=0 time=0@note_on channel=9 note=42 velocity=0 time=0@note_on channel=0 note=68 velocity=96 time=0.00078125@note_on channel=1 note=68 velocity=96 time=0@note_on channel=2 note=80 velocity=96 time=0@note_on channel=9 note=42 velocity=16 time=0@note_on channel=0 note=68 velocity=0 time=0.08828125@note_on channel=1 note=68 velocity=0 time=0.004687500000000001@note_on channel=2 note=80 velocity=0 time=0@note_on channel=0 note=65 velocity=96 time=0.00078125@note_on channel=1 note=65 velocity=96 time=0@note_on channel=2 note=77 velocity=96 time=0@note_on channel=0 note=65 velocity=0 time=0.08828125@note_on channel=1 note=65 velocity=0 time=0.004687500000000001@note_on channel=2 note=77 velocity=0 time=0@note_on channel=9 note=42 velocity=0 time=0@note_on channel=9 note=57 velocity=0 time=0@note_on channel=0 note=77 velocity=96 time=0.00078125@note_on channel=1 note=77 velocity=96 time=0@note_on channel=2 note=89 velocity=96 time=0@note_on channel=9 note=38 velocity=80 time=0@note_on channel=9 note=35 velocity=80 time=0@note_on channel=9 note=42 velocity=16 time=0@note_on channel=0 note=77 velocity=0 time=0.08828125@note_on channel=1 note=77 velocity=0 time=0.004687500000000001@note_on channel=2 note=89 velocity=0 time=0@note_on channel=0 note=72 velocity=96 time=0.00078125@note_on channel=1 note=72 velocity=96 time=0@note_on channel=2 note=84 velocity=96 time=0@note_on channel=0 note=72 velocity=0 time=0.08828125@note_on channel=1 note=72 velocity=0 time=0.004687500000000001@note_on channel=2 note=84 velocity=0 time=0@note_on channel=9 note=42 velocity=0 time=0@note_on channel=0 note=68 velocity=96 time=0.00078125@note_on channel=1 note=68 velocity=96 time=0@note_on channel=2 note=80 velocity=96 time=0@note_on channel=9 note=42 velocity=16 time=0@note_on channel=0 note=68 velocity=0 time=0.08828125@note_on channel=1 note=68 velocity=0 time=0.004687500000000001@note_on channel=2 note=80 velocity=0 time=0@note_on channel=9 note=42 velocity=0 time=0@note_on channel=0 note=65 velocity=96 time=0.00078125@note_on channel=1 note=65 velocity=96 time=0@note_on channel=2 note=77 velocity=96 time=0@note_on channel=9 note=42 velocity=16 time=0@note_on channel=0 note=65 velocity=0 time=0.08828125@note_on channel=1 note=65 velocity=0 time=0.004687500000000001@note_on channel=2 note=77 velocity=0 time=0@note_on channel=9 note=38 velocity=0 time=0@note_on channel=9 note=35 velocity=0 time=0@note_on channel=9 note=42 velocity=0 time=0@note_on channel=0 note=77 velocity=96 time=0.00078125@note_on channel=1 note=77 velocity=96 time=0@note_on channel=2 note=89 velocity=96 time=0@note_on channel=9 note=42 velocity=16 time=0@note_on channel=0 note=77 velocity=0 time=0.08828125@note_on channel=1 note=77 velocity=0 time=0.004687500000000001@note_on channel=2 note=89 velocity=0 time=0@note_on channel=0 note=72 velocity=96 time=0.00078125@note_on channel=1 note=72 velocity=96 time=0@note_on channel=2 note=84 velocity=96 time=0@note_on channel=0 note=72 velocity=0 time=0.08828125@note_on channel=1 note=72 velocity=0 time=0.004687500000000001@note_on channel=2 note=84 velocity=0 time=0@note_on channel=9 note=42 velocity=0 time=0@note_on channel=0 note=68 velocity=96 time=0.00078125@note_on channel=1 note=68 velocity=96 time=0@note_on channel=2 note=80 velocity=96 time=0@note_on channel=9 note=42 velocity=16 time=0@note_on channel=0 note=68 velocity=0 time=0.08828125@note_on channel=1 note=68 velocity=0 time=0.004687500000000001@note_on channel=2 note=80 velocity=0 time=0@note_on channel=0 note=65 velocity=96 time=0.00078125@note_on channel=1 note=65 velocity=96 time=0@note_on channel=2 note=77 velocity=96 time=0@note_on channel=0 note=65 velocity=0 time=0.08828125@note_on channel=1 note=65 velocity=0 time=0.004687500000000001@note_on channel=1 note=53 velocity=0 time=0@note_on channel=2 note=77 velocity=0 time=0@note_on channel=5 note=65 velocity=0 time=0@note_on channel=6 note=65 velocity=0 time=0@note_on channel=7 note=53 velocity=0 time=0@note_on channel=14 note=41 velocity=0 time=0@note_on channel=0 note=53 velocity=0 time=0@note_on channel=9 note=42 velocity=0 time=0@note_on channel=1 note=77 velocity=0 time=0@note_on channel=4 note=65 velocity=0 time=0@note_on channel=0 note=77 velocity=96 time=0.00078125@note_on channel=1 note=77 velocity=96 time=0@note_on channel=1 note=56 velocity=96 time=0@note_on channel=2 note=89 velocity=96 time=0@note_on channel=5 note=60 velocity=126 time=0@note_on channel=6 note=60 velocity=126 time=0@note_on channel=7 note=56 velocity=96 time=0@note_on channel=14 note=44 velocity=96 time=0@note_on channel=0 note=56 velocity=96 time=0@note_on channel=9 note=38 velocity=80 time=0@note_on channel=9 note=35 velocity=80 time=0@note_on channel=9 note=42 velocity=16 time=0@note_on channel=1 note=72 velocity=126 time=0@note_on channel=4 note=60 velocity=126 time=0@note_on channel=0 note=77 velocity=0 time=0.08828125@note_on channel=1 note=77 velocity=0 time=0.004687500000000001@note_on channel=2 note=89 velocity=0 time=0@note_on channel=9 note=38 velocity=0 time=0@note_on channel=9 note=42 velocity=0 time=0@note_on channel=0 note=72 velocity=96 time=0.00078125@note_on channel=1 note=72 velocity=96 time=0@note_on channel=2 note=84 velocity=96 time=0@note_on channel=9 note=38 velocity=80 time=0@note_on channel=9 note=42 velocity=16 time=0@note_on channel=0 note=72 velocity=0 time=0.08828125@note_on channel=1 note=72 velocity=0 time=0.004687500000000001@note_on channel=2 note=84 velocity=0 time=0@note_on channel=9 note=38 velocity=0 time=0@note_on channel=0 note=68 velocity=96 time=0.00078125@note_on channel=1 note=68 velocity=96 time=0@note_on channel=2 note=80 velocity=96 time=0@note_on channel=0 note=68 velocity=0 time=0.08828125@note_on channel=1 note=68 velocity=0 time=0.004687500000000001@note_on channel=2 note=80 velocity=0 time=0@note_on channel=0 note=65 velocity=96 time=0.00078125@note_on channel=1 note=65 velocity=96 time=0@note_on channel=2 note=77 velocity=96 time=0@note_on channel=0 note=65 velocity=0 time=0.08828125@note_on channel=1 note=65 velocity=0 time=0.004687500000000001@note_on channel=1 note=56 velocity=0 time=0@note_on channel=2 note=77 velocity=0 time=0@note_on channel=5 note=60 velocity=0 time=0@note_on channel=6 note=60 velocity=0 time=0@note_on channel=7 note=56 velocity=0 time=0@note_on channel=8 note=72 velocity=0 time=0@note_on channel=10 note=72 velocity=0 time=0@note_on channel=14 note=44 velocity=0 time=0@note_on channel=0 note=56 velocity=0 time=0@note_on channel=9 note=35 velocity=0 time=0@note_on channel=9 note=42 velocity=0 time=0@note_on channel=1 note=72 velocity=0 time=0@note_on channel=4 note=60 velocity=0 time=0@note_on channel=0 note=77 velocity=96 time=0.00078125@note_on channel=1 note=77 velocity=96 time=0@note_on channel=1 note=53 velocity=96 time=0@note_on channel=2 note=89 velocity=96 time=0@note_on channel=5 note=56 velocity=126 time=0@note_on channel=6 note=56 velocity=126 time=0@note_on channel=7 note=53 velocity=96 time=0@note_on channel=8 note=72 velocity=126 time=0@note_on channel=10 note=72 velocity=126 time=0@note_on channel=14 note=41 velocity=96 time=0@note_on channel=0 note=53 velocity=96 time=0@note_on channel=9 note=42 velocity=16 time=0@note_on channel=1 note=68 velocity=126 time=0@note_on channel=4 note=56 velocity=126 time=0@note_on channel=0 note=77 velocity=0 time=0.08828125@note_on channel=1 note=77 velocity=0 time=0.004687500000000001@note_on channel=2 note=89 velocity=0 time=0@note_on channel=0 note=72 velocity=96 time=0.00078125@note_on channel=1 note=72 velocity=96 time=0@note_on channel=2 note=84 velocity=96 time=0@note_on channel=0 note=72 velocity=0 time=0.08828125@note_on channel=1 note=72 velocity=0 time=0.004687500000000001@note_on channel=2 note=84 velocity=0 time=0@note_on channel=9 note=42 velocity=0 time=0@note_on channel=0 note=68 velocity=96 time=0.00078125@note_on channel=1 note=68 velocity=96 time=0@note_on channel=2 note=80 velocity=96 time=0@note_on channel=9 note=42 velocity=16 time=0@note_on channel=0 note=68 velocity=0 time=0.08828125@note_on channel=1 note=68 velocity=0 time=0.004687500000000001@note_on channel=2 note=80 velocity=0 time=0@note_on channel=0 note=65 velocity=96 time=0.00078125@note_on channel=1 note=65 velocity=96 time=0@note_on channel=2 note=77 velocity=96 time=0@note_on channel=0 note=65 velocity=0 time=0.08828125@note_on channel=1 note=65 velocity=0 time=0.004687500000000001@note_on channel=2 note=77 velocity=0 time=0@note_on channel=9 note=42 velocity=0 time=0@note_on channel=0 note=77 velocity=96 time=0.00078125@note_on channel=1 note=77 velocity=96 time=0@note_on channel=2 note=89 velocity=96 time=0@note_on channel=9 note=38 velocity=80 time=0@note_on channel=9 note=35 velocity=80 time=0@note_on channel=9 note=42 velocity=16 time=0@note_on channel=0 note=77 velocity=0 time=0.08828125@note_on channel=1 note=77 velocity=0 time=0.004687500000000001@note_on channel=2 note=89 velocity=0 time=0@note_on channel=0 note=72 velocity=96 time=0.00078125@note_on channel=1 note=72 velocity=96 time=0@note_on channel=2 note=84 velocity=96 time=0@note_on channel=0 note=72 velocity=0 time=0.08828125@note_on channel=1 note=72 velocity=0 time=0.004687500000000001@note_on channel=2 note=84 velocity=0 time=0@note_on channel=9 note=42 velocity=0 time=0@note_on channel=0 note=68 velocity=96 time=0.00078125@note_on channel=1 note=68 velocity=96 time=0@note_on channel=2 note=80 velocity=96 time=0@note_on channel=9 note=42 velocity=16 time=0@note_on channel=0 note=68 velocity=0 time=0.08828125@note_on channel=1 note=68 velocity=0 time=0.004687500000000001@note_on channel=2 note=80 velocity=0 time=0@note_on channel=9 note=42 velocity=0 time=0@note_on channel=0 note=65 velocity=96 time=0.00078125@note_on channel=1 note=65 velocity=96 time=0@note_on channel=2 note=77 velocity=96 time=0@note_on channel=9 note=42 velocity=16 time=0@note_on channel=0 note=65 velocity=0 time=0.08828125@note_on channel=1 note=65 velocity=0 time=0.004687500000000001@note_on channel=1 note=53 velocity=0 time=0@note_on channel=2 note=77 velocity=0 time=0@note_on channel=7 note=53 velocity=0 time=0@note_on channel=8 note=72 velocity=0 time=0@note_on channel=10 note=72 velocity=0 time=0@note_on channel=14 note=41 velocity=0 time=0@note_on channel=0 note=53 velocity=0 time=0@note_on channel=9 note=38 velocity=0 time=0@note_on channel=9 note=35 velocity=0 time=0@note_on channel=9 note=42 velocity=0 time=0@note_on channel=0 note=77 velocity=96 time=0.00078125@note_on channel=1 note=77 velocity=96 time=0@note_on channel=1 note=56 velocity=96 time=0@note_on channel=2 note=89 velocity=96 time=0@note_on channel=7 note=56 velocity=96 time=0@note_on channel=8 note=73 velocity=126 time=0@note_on channel=10 note=73 velocity=126 time=0@note_on channel=14 note=44 velocity=96 time=0@note_on channel=0 note=56 velocity=96 time=0@note_on channel=9 note=42 velocity=16 time=0@note_on channel=0 note=77 velocity=0 time=0.08828125@note_on channel=1 note=77 velocity=0 time=0.004687500000000001@note_on channel=2 note=89 velocity=0 time=0@note_on channel=0 note=72 velocity=96 time=0.00078125@note_on channel=1 note=72 velocity=96 time=0@note_on channel=2 note=84 velocity=96 time=0@note_on channel=0 note=72 velocity=0 time=0.08828125@note_on channel=1 note=72 velocity=0 time=0.004687500000000001@note_on channel=2 note=84 velocity=0 time=0@note_on channel=8 note=73 velocity=0 time=0@note_on channel=10 note=73 velocity=0 time=0@note_on channel=9 note=42 velocity=0 time=0@note_on channel=0 note=68 velocity=96 time=0.00078125@note_on channel=1 note=68 velocity=96 time=0@note_on channel=2 note=80 velocity=96 time=0@note_on channel=8 note=72 velocity=126 time=0@note_on channel=10 note=72 velocity=126 time=0@note_on channel=9 note=42 velocity=16 time=0@note_on channel=0 note=68 velocity=0 time=0.08828125@note_on channel=1 note=68 velocity=0 time=0.004687500000000001@note_on channel=2 note=80 velocity=0 time=0@note_on channel=0 note=65 velocity=96 time=0.00078125@note_on channel=1 note=65 velocity=96 time=0@note_on channel=2 note=77 velocity=96 time=0@note_on channel=0 note=65 velocity=0 time=0.08828125@note_on channel=1 note=65 velocity=0 time=0.004687500000000001@note_on channel=2 note=77 velocity=0 time=0@note_on channel=3 note=60 velocity=0 time=0@note_on channel=4 note=60 velocity=0 time=0@note_on channel=5 note=56 velocity=0 time=0@note_on channel=6 note=56 velocity=0 time=0@note_on channel=8 note=72 velocity=0 time=0@note_on channel=10 note=72 velocity=0 time=0@note_on channel=9 note=42 velocity=0 time=0@note_on channel=1 note=68 velocity=0 time=0@note_on channel=4 note=56 velocity=0 time=0@note_on channel=7 note=60 velocity=0 time=0@note_on channel=0 note=77 velocity=96 time=0.00078125@note_on channel=1 note=77 velocity=96 time=0@note_on channel=2 note=89 velocity=96 time=0@note_on channel=3 note=58 velocity=126 time=0@note_on channel=4 note=58 velocity=126 time=0@note_on channel=5 note=53 velocity=126 time=0@note_on channel=6 note=53 velocity=126 time=0@note_on channel=8 note=70 velocity=126 time=0@note_on channel=10 note=70 velocity=126 time=0@note_on channel=9 note=38 velocity=80 time=0@note_on channel=9 note=35 velocity=80 time=0@note_on channel=9 note=42 velocity=16 time=0@note_on channel=1 note=65 velocity=126 time=0@note_on channel=4 note=53 velocity=126 time=0@note_on channel=7 note=58 velocity=126 time=0@note_on channel=0 note=77 velocity=0 time=0.08828125@note_on channel=1 note=77 velocity=0 time=0.004687500000000001@note_on channel=2 note=89 velocity=0 time=0@note_on channel=9 note=38 velocity=0 time=0@note_on channel=9 note=42 velocity=0 time=0@note_on channel=0 note=72 velocity=96 time=0.00078125@note_on channel=1 note=72 velocity=96 time=0@note_on channel=2 note=84 velocity=96 time=0@note_on channel=9 note=38 velocity=80 time=0@note_on channel=9 note=42 velocity=16 time=0@note_on channel=0 note=72 velocity=0 time=0.08828125@note_on channel=1 note=72 velocity=0 time=0.004687500000000001@note_on channel=2 note=84 velocity=0 time=0@note_on channel=3 note=58 velocity=0 time=0@note_on channel=4 note=58 velocity=0 time=0@note_on channel=8 note=70 velocity=0 time=0@note_on channel=10 note=70 velocity=0 time=0@note_on channel=9 note=38 velocity=0 time=0@note_on channel=7 note=58 velocity=0 time=0@note_on channel=0 note=68 velocity=96 time=0.00078125@note_on channel=1 note=68 velocity=96 time=0@note_on channel=2 note=80 velocity=96 time=0@note_on channel=3 note=56 velocity=126 time=0@note_on channel=4 note=56 velocity=126 time=0@note_on channel=8 note=68 velocity=126 time=0@note_on channel=10 note=68 velocity=126 time=0@note_on channel=7 note=56 velocity=126 time=0@note_on channel=0 note=68 velocity=0 time=0.08828125@note_on channel=1 note=68 velocity=0 time=0.004687500000000001@note_on channel=2 note=80 velocity=0 time=0@note_on channel=0 note=65 velocity=96 time=0.00078125@note_on channel=1 note=65 velocity=96 time=0@note_on channel=2 note=77 velocity=96 time=0@note_on channel=0 note=65 velocity=0 time=0.08828125@note_on channel=1 note=65 velocity=0 time=0.004687500000000001@note_on channel=1 note=56 velocity=0 time=0@note_on channel=2 note=77 velocity=0 time=0@note_on channel=3 note=56 velocity=0 time=0@note_on channel=4 note=56 velocity=0 time=0@note_on channel=5 note=53 velocity=0 time=0@note_on channel=6 note=53 velocity=0 time=0@note_on channel=7 note=56 velocity=0 time=0@note_on channel=8 note=68 velocity=0 time=0@note_on channel=10 note=68 velocity=0 time=0@note_on channel=14 note=44 velocity=0 time=0@note_on channel=0 note=56 velocity=0 time=0@note_on channel=9 note=35 velocity=0 time=0@note_on channel=9 note=42 velocity=0 time=0@note_on channel=1 note=65 velocity=0 time=0@note_on channel=4 note=53 velocity=0 time=0@note_on channel=7 note=56 velocity=0 time=0@note_on channel=0 note=79 velocity=96 time=0.00078125@note_on channel=1 note=79 velocity=96 time=0@note_on channel=1 note=55 velocity=96 time=0@note_on channel=2 note=91 velocity=96 time=0@note_on channel=3 note=55 velocity=126 time=0@note_on channel=4 note=55 velocity=126 time=0@note_on channel=5 note=55 velocity=126 time=0@note_on channel=6 note=55 velocity=126 time=0@note_on channel=7 note=55 velocity=96 time=0@note_on channel=8 note=67 velocity=126 time=0@note_on channel=10 note=67 velocity=126 time=0@note_on channel=14 note=43 velocity=96 time=0@note_on channel=0 note=55 velocity=96 time=0@note_on channel=9 note=42 velocity=16 time=0@note_on channel=1 note=67 velocity=126 time=0@note_on channel=4 note=55 velocity=126 time=0@note_on channel=7 note=55 velocity=126 time=0@note_on channel=0 note=79 velocity=0 time=0.08828125@note_on channel=1 note=79 velocity=0 time=0.004687500000000001@note_on channel=2 note=91 velocity=0 time=0@note_on channel=0 note=73 velocity=96 time=0.00078125@note_on channel=1 note=73 velocity=96 time=0@note_on channel=2 note=85 velocity=96 time=0@note_on channel=0 note=73 velocity=0 time=0.08828125@note_on channel=1 note=73 velocity=0 time=0.004687500000000001@note_on channel=2 note=85 velocity=0 time=0@note_on channel=9 note=42 velocity=0 time=0@note_on channel=0 note=70 velocity=96 time=0.00078125@note_on channel=1 note=70 velocity=96 time=0@note_on channel=2 note=82 velocity=96 time=0@note_on channel=9 note=42 velocity=16 time=0@note_on channel=0 note=70 velocity=0 time=0.08828125@note_on channel=1 note=70 velocity=0 time=0.004687500000000001@note_on channel=2 note=82 velocity=0 time=0@note_on channel=0 note=67 velocity=96 time=0.00078125@note_on channel=1 note=67 velocity=96 time=0@note_on channel=2 note=79 velocity=96 time=0@note_on channel=0 note=67 velocity=0 time=0.08828125@note_on channel=1 note=67 velocity=0 time=0.004687500000000001@note_on channel=2 note=79 velocity=0 time=0@note_on channel=9 note=42 velocity=0 time=0@note_on channel=0 note=79 velocity=96 time=0.00078125@note_on channel=1 note=79 velocity=96 time=0@note_on channel=2 note=91 velocity=96 time=0@note_on channel=9 note=38 velocity=80 time=0@note_on channel=9 note=35 velocity=80 time=0@note_on channel=9 note=42 velocity=16 time=0@note_on channel=0 note=79 velocity=0 time=0.08828125@note_on channel=1 note=79 velocity=0 time=0.004687500000000001@note_on channel=2 note=91 velocity=0 time=0@note_on channel=0 note=73 velocity=96 time=0.00078125@note_on channel=1 note=73 velocity=96 time=0@note_on channel=2 note=85 velocity=96 time=0@note_on channel=0 note=73 velocity=0 time=0.08828125@note_on channel=1 note=73 velocity=0 time=0.004687500000000001@note_on channel=2 note=85 velocity=0 time=0@note_on channel=9 note=42 velocity=0 time=0@note_on channel=0 note=70 velocity=96 time=0.00078125@note_on channel=1 note=70 velocity=96 time=0@note_on channel=2 note=82 velocity=96 time=0@note_on channel=9 note=42 velocity=16 time=0@note_on channel=0 note=70 velocity=0 time=0.08828125@note_on channel=1 note=70 velocity=0 time=0.004687500000000001@note_on channel=2 note=82 velocity=0 time=0@note_on channel=9 note=42 velocity=0 time=0@note_on channel=0 note=67 velocity=96 time=0.00078125@note_on channel=1 note=67 velocity=96 time=0@note_on channel=2 note=79 velocity=96 time=0@note_on channel=9 note=42 velocity=16 time=0@note_on channel=0 note=67 velocity=0 time=0.08828125@note_on channel=1 note=67 velocity=0 time=0.004687500000000001@note_on channel=2 note=79 velocity=0 time=0@note_on channel=9 note=38 velocity=0 time=0@note_on channel=9 note=35 velocity=0 time=0@note_on channel=9 note=42 velocity=0 time=0@note_on channel=0 note=79 velocity=96 time=0.00078125@note_on channel=1 note=79 velocity=96 time=0@note_on channel=2 note=91 velocity=96 time=0@note_on channel=9 note=42 velocity=16 time=0@note_on channel=0 note=79 velocity=0 time=0.08828125@note_on channel=1 note=79 velocity=0 time=0.004687500000000001@note_on channel=2 note=91 velocity=0 time=0@note_on channel=0 note=73 velocity=96 time=0.00078125@note_on channel=1 note=73 velocity=96 time=0@note_on channel=2 note=85 velocity=96 time=0@note_on channel=0 note=73 velocity=0 time=0.08828125@note_on channel=1 note=73 velocity=0 time=0.004687500000000001@note_on channel=2 note=85 velocity=0 time=0@note_on channel=9 note=42 velocity=0 time=0@note_on channel=0 note=70 velocity=96 time=0.00078125@note_on channel=1 note=70 velocity=96 time=0@note_on channel=2 note=82 velocity=96 time=0@note_on channel=9 note=42 velocity=16 time=0@note_on channel=0 note=70 velocity=0 time=0.08828125@note_on channel=1 note=70 velocity=0 time=0.004687500000000001@note_on channel=2 note=82 velocity=0 time=0@note_on channel=0 note=67 velocity=96 time=0.00078125@note_on channel=1 note=67 velocity=96 time=0@note_on channel=2 note=79 velocity=96 time=0@note_on channel=0 note=67 velocity=0 time=0.08828125@note_on channel=1 note=67 velocity=0 time=0.004687500000000001@note_on channel=2 note=79 velocity=0 time=0@note_on channel=3 note=55 velocity=0 time=0@note_on channel=4 note=55 velocity=0 time=0@note_on channel=6 note=55 velocity=0 time=0@note_on channel=8 note=67 velocity=0 time=0@note_on channel=10 note=67 velocity=0 time=0@note_on channel=9 note=42 velocity=0 time=0@note_on channel=4 note=55 velocity=0 time=0@note_on channel=7 note=55 velocity=0 time=0@note_on channel=0 note=79 velocity=96 time=0.00078125@note_on channel=1 note=79 velocity=96 time=0@note_on channel=2 note=91 velocity=96 time=0@note_on channel=3 note=56 velocity=126 time=0@note_on channel=4 note=56 velocity=126 time=0@note_on channel=6 note=56 velocity=126 time=0@note_on channel=8 note=68 velocity=126 time=0@note_on channel=10 note=68 velocity=126 time=0@note_on channel=9 note=38 velocity=80 time=0@note_on channel=9 note=35 velocity=80 time=0@note_on channel=9 note=42 velocity=16 time=0@note_on channel=4 note=56 velocity=126 time=0@note_on channel=7 note=56 velocity=126 time=0@note_on channel=0 note=79 velocity=0 time=0.08828125@note_on channel=1 note=79 velocity=0 time=0.004687500000000001@note_on channel=2 note=91 velocity=0 time=0@note_on channel=9 note=38 velocity=0 time=0@note_on channel=9 note=42 velocity=0 time=0@note_on channel=0 note=73 velocity=96 time=0.00078125@note_on channel=1 note=73 velocity=96 time=0@note_on channel=2 note=85 velocity=96 time=0@note_on channel=9 note=38 velocity=80 time=0@note_on channel=9 note=42 velocity=16 time=0@note_on channel=0 note=73 velocity=0 time=0.08828125@note_on channel=1 note=73 velocity=0 time=0.004687500000000001@note_on channel=2 note=85 velocity=0 time=0@note_on channel=9 note=38 velocity=0 time=0@note_on channel=0 note=70 velocity=96 time=0.00078125@note_on channel=1 note=70 velocity=96 time=0@note_on channel=2 note=82 velocity=96 time=0@note_on channel=0 note=70 velocity=0 time=0.08828125@note_on channel=1 note=70 velocity=0 time=0.004687500000000001@note_on channel=2 note=82 velocity=0 time=0@note_on channel=0 note=67 velocity=96 time=0.00078125@note_on channel=1 note=67 velocity=96 time=0@note_on channel=2 note=79 velocity=96 time=0@note_on channel=0 note=67 velocity=0 time=0.08828125@note_on channel=1 note=67 velocity=0 time=0.004687500000000001@note_on channel=1 note=55 velocity=0 time=0@note_on channel=2 note=79 velocity=0 time=0@note_on channel=3 note=56 velocity=0 time=0@note_on channel=4 note=56 velocity=0 time=0@note_on channel=5 note=55 velocity=0 time=0@note_on channel=6 note=56 velocity=0 time=0@note_on channel=7 note=55 velocity=0 time=0@note_on channel=8 note=68 velocity=0 time=0@note_on channel=10 note=68 velocity=0 time=0@note_on channel=14 note=43 velocity=0 time=0@note_on channel=0 note=55 velocity=0 time=0@note_on channel=9 note=35 velocity=0 time=0@note_on channel=9 note=42 velocity=0 time=0@note_on channel=1 note=67 velocity=0 time=0@note_on channel=4 note=56 velocity=0 time=0@note_on channel=7 note=56 velocity=0 time=0@note_on channel=0 note=79 velocity=96 time=0.00078125@note_on channel=1 note=79 velocity=96 time=0@note_on channel=1 note=48 velocity=96 time=0@note_on channel=2 note=91 velocity=96 time=0@note_on channel=3 note=58 velocity=126 time=0@note_on channel=4 note=58 velocity=126 time=0@note_on channel=5 note=67 velocity=126 time=0@note_on channel=6 note=58 velocity=126 time=0@note_on channel=7 note=48 velocity=96 time=0@note_on channel=8 note=70 velocity=126 time=0@note_on channel=10 note=70 velocity=126 time=0@note_on channel=14 note=36 velocity=96 time=0@note_on channel=0 note=48 velocity=96 time=0@note_on channel=9 note=42 velocity=16 time=0@note_on channel=1 note=79 velocity=126 time=0@note_on channel=4 note=58 velocity=126 time=0@note_on channel=7 note=58 velocity=126 time=0@note_on channel=0 note=79 velocity=0 time=0.08828125@note_on channel=1 note=79 velocity=0 time=0.004687500000000001@note_on channel=2 note=91 velocity=0 time=0@note_on channel=0 note=73 velocity=96 time=0.00078125@note_on channel=1 note=73 velocity=96 time=0@note_on channel=2 note=85 velocity=96 time=0@note_on channel=0 note=73 velocity=0 time=0.08828125@note_on channel=1 note=73 velocity=0 time=0.004687500000000001@note_on channel=2 note=85 velocity=0 time=0@note_on channel=9 note=42 velocity=0 time=0@note_on channel=0 note=70 velocity=96 time=0.00078125@note_on channel=1 note=70 velocity=96 time=0@note_on channel=2 note=82 velocity=96 time=0@note_on channel=9 note=42 velocity=16 time=0@note_on channel=0 note=70 velocity=0 time=0.08828125@note_on channel=1 note=70 velocity=0 time=0.004687500000000001@note_on channel=2 note=82 velocity=0 time=0@note_on channel=0 note=67 velocity=96 time=0.00078125@note_on channel=1 note=67 velocity=96 time=0@note_on channel=2 note=79 velocity=96 time=0@note_on channel=0 note=67 velocity=0 time=0.08828125@note_on channel=1 note=67 velocity=0 time=0.004687500000000001@note_on channel=2 note=79 velocity=0 time=0@note_on channel=9 note=42 velocity=0 time=0@note_on channel=0 note=79 velocity=96 time=0.00078125@note_on channel=1 note=79 velocity=96 time=0@note_on channel=2 note=91 velocity=96 time=0@note_on channel=9 note=38 velocity=80 time=0@note_on channel=9 note=35 velocity=80 time=0@note_on channel=9 note=42 velocity=16 time=0@note_on channel=0 note=79 velocity=0 time=0.08828125@note_on channel=1 note=79 velocity=0 time=0.004687500000000001@note_on channel=2 note=91 velocity=0 time=0@note_on channel=0 note=73 velocity=96 time=0.00078125@note_on channel=1 note=73 velocity=96 time=0@note_on channel=2 note=85 velocity=96 time=0@note_on channel=0 note=73 velocity=0 time=0.08828125@note_on channel=1 note=73 velocity=0 time=0.004687500000000001@note_on channel=2 note=85 velocity=0 time=0@note_on channel=9 note=42 velocity=0 time=0@note_on channel=0 note=70 velocity=96 time=0.00078125@note_on channel=1 note=70 velocity=96 time=0@note_on channel=2 note=82 velocity=96 time=0@note_on channel=9 note=42 velocity=16 time=0@note_on channel=0 note=70 velocity=0 time=0.08828125@note_on channel=1 note=70 velocity=0 time=0.004687500000000001@note_on channel=2 note=82 velocity=0 time=0@note_on channel=9 note=42 velocity=0 time=0@note_on channel=0 note=67 velocity=96 time=0.00078125@note_on channel=1 note=67 velocity=96 time=0@note_on channel=2 note=79 velocity=96 time=0@note_on channel=9 note=42 velocity=16 time=0@note_on channel=0 note=67 velocity=0 time=0.08828125@note_on channel=1 note=67 velocity=0 time=0.004687500000000001@note_on channel=2 note=79 velocity=0 time=0@note_on channel=9 note=38 velocity=0 time=0@note_on channel=9 note=35 velocity=0 time=0@note_on channel=9 note=42 velocity=0 time=0@note_on channel=0 note=79 velocity=96 time=0.00078125@note_on channel=1 note=79 velocity=96 time=0@note_on channel=2 note=91 velocity=96 time=0@note_on channel=9 note=42 velocity=16 time=0@note_on channel=0 note=79 velocity=0 time=0.08828125@note_on channel=1 note=79 velocity=0 time=0.004687500000000001@note_on channel=2 note=91 velocity=0 time=0@note_on channel=0 note=73 velocity=96 time=0.00078125@note_on channel=1 note=73 velocity=96 time=0@note_on channel=2 note=85 velocity=96 time=0@note_on channel=0 note=73 velocity=0 time=0.08828125@note_on channel=1 note=73 velocity=0 time=0.004687500000000001@note_on channel=2 note=85 velocity=0 time=0@note_on channel=9 note=42 velocity=0 time=0@note_on channel=0 note=70 velocity=96 time=0.00078125@note_on channel=1 note=70 velocity=96 time=0@note_on channel=2 note=82 velocity=96 time=0@note_on channel=9 note=42 velocity=16 time=0@note_on channel=0 note=70 velocity=0 time=0.08828125@note_on channel=1 note=70 velocity=0 time=0.004687500000000001@note_on channel=2 note=82 velocity=0 time=0@note_on channel=0 note=67 velocity=96 time=0.00078125@note_on channel=1 note=67 velocity=96 time=0@note_on channel=2 note=79 velocity=96 time=0@note_on channel=0 note=67 velocity=0 time=0.08828125@note_on channel=1 note=67 velocity=0 time=0.004687500000000001@note_on channel=2 note=79 velocity=0 time=0@note_on channel=9 note=42 velocity=0 time=0@note_on channel=0 note=79 velocity=96 time=0.00078125@note_on channel=1 note=79 velocity=96 time=0@note_on channel=2 note=91 velocity=96 time=0@note_on channel=9 note=38 velocity=80 time=0@note_on channel=9 note=35 velocity=80 time=0@note_on channel=9 note=42 velocity=16 time=0@note_on channel=0 note=79 velocity=0 time=0.08828125@note_on channel=1 note=79 velocity=0 time=0.004687500000000001@note_on channel=2 note=91 velocity=0 time=0@note_on channel=9 note=38 velocity=0 time=0@note_on channel=9 note=42 velocity=0 time=0@note_on channel=0 note=73 velocity=96 time=0.00078125@note_on channel=1 note=73 velocity=96 time=0@note_on channel=2 note=85 velocity=96 time=0@note_on channel=9 note=38 velocity=80 time=0@note_on channel=9 note=42 velocity=16 time=0@note_on channel=0 note=73 velocity=0 time=0.08828125@note_on channel=1 note=73 velocity=0 time=0.004687500000000001@note_on channel=2 note=85 velocity=0 time=0@note_on channel=9 note=38 velocity=0 time=0@note_on channel=0 note=70 velocity=96 time=0.00078125@note_on channel=1 note=70 velocity=96 time=0@note_on channel=2 note=82 velocity=96 time=0@note_on channel=0 note=70 velocity=0 time=0.08828125@note_on channel=1 note=70 velocity=0 time=0.004687500000000001@note_on channel=2 note=82 velocity=0 time=0@note_on channel=0 note=67 velocity=96 time=0.00078125@note_on channel=1 note=67 velocity=96 time=0@note_on channel=2 note=79 velocity=96 time=0@note_on channel=0 note=67 velocity=0 time=0.08828125@note_on channel=1 note=67 velocity=0 time=0.004687500000000001@note_on channel=1 note=48 velocity=0 time=0@note_on channel=2 note=79 velocity=0 time=0@note_on channel=3 note=58 velocity=0 time=0@note_on channel=4 note=58 velocity=0 time=0@note_on channel=5 note=67 velocity=0 time=0@note_on channel=6 note=58 velocity=0 time=0@note_on channel=7 note=48 velocity=0 time=0@note_on channel=8 note=70 velocity=0 time=0@note_on channel=10 note=70 velocity=0 time=0@note_on channel=14 note=36 velocity=0 time=0@note_on channel=0 note=48 velocity=0 time=0@note_on channel=9 note=35 velocity=0 time=0@note_on channel=9 note=42 velocity=0 time=0@note_on channel=1 note=79 velocity=0 time=0@note_on channel=4 note=58 velocity=0 time=0@note_on channel=7 note=58 velocity=0 time=0@note_on channel=0 note=82 velocity=96 time=0.00078125@note_on channel=1 note=82 velocity=96 time=0@note_on channel=1 note=49 velocity=96 time=0@note_on channel=2 note=94 velocity=96 time=0@note_on channel=3 note=58 velocity=126 time=0@note_on channel=4 note=58 velocity=126 time=0@note_on channel=5 note=70 velocity=126 time=0@note_on channel=6 note=53 velocity=126 time=0@note_on channel=7 note=49 velocity=96 time=0@note_on channel=8 note=70 velocity=126 time=0@note_on channel=10 note=70 velocity=126 time=0@note_on channel=14 note=37 velocity=96 time=0@note_on channel=0 note=49 velocity=96 time=0@note_on channel=9 note=42 velocity=16 time=0@note_on channel=1 note=82 velocity=126 time=0@note_on channel=4 note=53 velocity=126 time=0@note_on channel=7 note=58 velocity=126 time=0@note_on channel=0 note=82 velocity=0 time=0.08828125@note_on channel=1 note=82 velocity=0 time=0.004687500000000001@note_on channel=2 note=94 velocity=0 time=0@note_on channel=0 note=77 velocity=96 time=0.00078125@note_on channel=1 note=77 velocity=96 time=0@note_on channel=2 note=89 velocity=96 time=0@note_on channel=0 note=77 velocity=0 time=0.08828125@note_on channel=1 note=77 velocity=0 time=0.004687500000000001@note_on channel=2 note=89 velocity=0 time=0@note_on channel=9 note=42 velocity=0 time=0@note_on channel=0 note=73 velocity=96 time=0.00078125@note_on channel=1 note=73 velocity=96 time=0@note_on channel=2 note=85 velocity=96 time=0@note_on channel=9 note=42 velocity=16 time=0@note_on channel=0 note=73 velocity=0 time=0.08828125@note_on channel=1 note=73 velocity=0 time=0.004687500000000001@note_on channel=2 note=85 velocity=0 time=0@note_on channel=0 note=70 velocity=96 time=0.00078125@note_on channel=1 note=70 velocity=96 time=0@note_on channel=2 note=82 velocity=96 time=0@note_on channel=0 note=70 velocity=0 time=0.08828125@note_on channel=1 note=70 velocity=0 time=0.004687500000000001@note_on channel=2 note=82 velocity=0 time=0@note_on channel=9 note=42 velocity=0 time=0@note_on channel=0 note=82 velocity=96 time=0.00078125@note_on channel=1 note=82 velocity=96 time=0@note_on channel=2 note=94 velocity=96 time=0@note_on channel=9 note=38 velocity=80 time=0@note_on channel=9 note=35 velocity=80 time=0@note_on channel=9 note=42 velocity=16 time=0@note_on channel=0 note=82 velocity=0 time=0.08828125@note_on channel=1 note=82 velocity=0 time=0.004687500000000001@note_on channel=2 note=94 velocity=0 time=0@note_on channel=0 note=77 velocity=96 time=0.00078125@note_on channel=1 note=77 velocity=96 time=0@note_on channel=2 note=89 velocity=96 time=0@note_on channel=0 note=77 velocity=0 time=0.08828125@note_on channel=1 note=77 velocity=0 time=0.004687500000000001@note_on channel=2 note=89 velocity=0 time=0@note_on channel=9 note=42 velocity=0 time=0@note_on channel=0 note=73 velocity=96 time=0.00078125@note_on channel=1 note=73 velocity=96 time=0@note_on channel=2 note=85 velocity=96 time=0@note_on channel=9 note=42 velocity=16 time=0@note_on channel=0 note=73 velocity=0 time=0.08828125@note_on channel=1 note=73 velocity=0 time=0.004687500000000001@note_on channel=2 note=85 velocity=0 time=0@note_on channel=9 note=42 velocity=0 time=0@note_on channel=0 note=70 velocity=96 time=0.00078125@note_on channel=1 note=70 velocity=96 time=0@note_on channel=2 note=82 velocity=96 time=0@note_on channel=9 note=42 velocity=16 time=0@note_on channel=0 note=70 velocity=0 time=0.08828125@note_on channel=1 note=70 velocity=0 time=0.004687500000000001@note_on channel=2 note=82 velocity=0 time=0@note_on channel=9 note=38 velocity=0 time=0@note_on channel=9 note=35 velocity=0 time=0@note_on channel=9 note=42 velocity=0 time=0@note_on channel=0 note=82 velocity=96 time=0.00078125@note_on channel=1 note=82 velocity=96 time=0@note_on channel=2 note=94 velocity=96 time=0@note_on channel=9 note=42 velocity=16 time=0@note_on channel=0 note=82 velocity=0 time=0.08828125@note_on channel=1 note=82 velocity=0 time=0.004687500000000001@note_on channel=2 note=94 velocity=0 time=0@note_on channel=0 note=77 velocity=96 time=0.00078125@note_on channel=1 note=77 velocity=96 time=0@note_on channel=2 note=89 velocity=96 time=0@note_on channel=0 note=77 velocity=0 time=0.08828125@note_on channel=1 note=77 velocity=0 time=0.004687500000000001@note_on channel=2 note=89 velocity=0 time=0@note_on channel=9 note=42 velocity=0 time=0@note_on channel=0 note=73 velocity=96 time=0.00078125@note_on channel=1 note=73 velocity=96 time=0@note_on channel=2 note=85 velocity=96 time=0@note_on channel=9 note=42 velocity=16 time=0@note_on channel=0 note=73 velocity=0 time=0.08828125@note_on channel=1 note=73 velocity=0 time=0.004687500000000001@note_on channel=2 note=85 velocity=0 time=0@note_on channel=0 note=70 velocity=96 time=0.00078125@note_on channel=1 note=70 velocity=96 time=0@note_on channel=2 note=82 velocity=96 time=0@note_on channel=0 note=70 velocity=0 time=0.08828125@note_on channel=1 note=70 velocity=0 time=0.004687500000000001@note_on channel=2 note=82 velocity=0 time=0@note_on channel=3 note=58 velocity=0 time=0@note_on channel=4 note=58 velocity=0 time=0@note_on channel=5 note=70 velocity=0 time=0@note_on channel=8 note=70 velocity=0 time=0@note_on channel=10 note=70 velocity=0 time=0@note_on channel=9 note=42 velocity=0 time=0@note_on channel=1 note=82 velocity=0 time=0@note_on channel=7 note=58 velocity=0 time=0@note_on channel=0 note=82 velocity=96 time=0.00078125@note_on channel=1 note=82 velocity=96 time=0@note_on channel=2 note=94 velocity=96 time=0@note_on channel=3 note=60 velocity=126 time=0@note_on channel=4 note=60 velocity=126 time=0@note_on channel=5 note=68 velocity=126 time=0@note_on channel=8 note=72 velocity=126 time=0@note_on channel=10 note=72 velocity=126 time=0@note_on channel=9 note=38 velocity=80 time=0@note_on channel=9 note=35 velocity=80 time=0@note_on channel=9 note=42 velocity=16 time=0@note_on channel=1 note=80 velocity=126 time=0@note_on channel=7 note=60 velocity=126 time=0@note_on channel=0 note=82 velocity=0 time=0.08828125@note_on channel=1 note=82 velocity=0 time=0.004687500000000001@note_on channel=2 note=94 velocity=0 time=0@note_on channel=9 note=38 velocity=0 time=0@note_on channel=9 note=42 velocity=0 time=0@note_on channel=0 note=77 velocity=96 time=0.00078125@note_on channel=1 note=77 velocity=96 time=0@note_on channel=2 note=89 velocity=96 time=0@note_on channel=9 note=38 velocity=80 time=0@note_on channel=9 note=42 velocity=16 time=0@note_on channel=0 note=77 velocity=0 time=0.08828125@note_on channel=1 note=77 velocity=0 time=0.004687500000000001@note_on channel=2 note=89 velocity=0 time=0@note_on channel=9 note=38 velocity=0 time=0@note_on channel=0 note=73 velocity=96 time=0.00078125@note_on channel=1 note=73 velocity=96 time=0@note_on channel=2 note=85 velocity=96 time=0@note_on channel=0 note=73 velocity=0 time=0.08828125@note_on channel=1 note=73 velocity=0 time=0.004687500000000001@note_on channel=2 note=85 velocity=0 time=0@note_on channel=0 note=70 velocity=96 time=0.00078125@note_on channel=1 note=70 velocity=96 time=0@note_on channel=2 note=82 velocity=96 time=0@note_on channel=0 note=70 velocity=0 time=0.08828125@note_on channel=1 note=70 velocity=0 time=0.004687500000000001@note_on channel=1 note=49 velocity=0 time=0@note_on channel=2 note=82 velocity=0 time=0@note_on channel=3 note=60 velocity=0 time=0@note_on channel=4 note=60 velocity=0 time=0@note_on channel=5 note=68 velocity=0 time=0@note_on channel=6 note=53 velocity=0 time=0@note_on channel=7 note=49 velocity=0 time=0@note_on channel=8 note=72 velocity=0 time=0@note_on channel=10 note=72 velocity=0 time=0@note_on channel=14 note=37 velocity=0 time=0@note_on channel=0 note=49 velocity=0 time=0@note_on channel=9 note=35 velocity=0 time=0@note_on channel=9 note=42 velocity=0 time=0@note_on channel=1 note=80 velocity=0 time=0@note_on channel=4 note=53 velocity=0 time=0@note_on channel=7 note=60 velocity=0 time=0@note_on channel=0 note=77 velocity=96 time=0.00078125@note_on channel=1 note=77 velocity=96 time=0@note_on channel=1 note=53 velocity=96 time=0@note_on channel=2 note=89 velocity=96 time=0@note_on channel=3 note=56 velocity=126 time=0@note_on channel=4 note=56 velocity=126 time=0@note_on channel=5 note=65 velocity=126 time=0@note_on channel=6 note=53 velocity=126 time=0@note_on channel=7 note=53 velocity=96 time=0@note_on channel=8 note=68 velocity=126 time=0@note_on channel=10 note=68 velocity=126 time=0@note_on channel=14 note=41 velocity=96 time=0@note_on channel=0 note=53 velocity=96 time=0@note_on channel=9 note=42 velocity=16 time=0@note_on channel=1 note=77 velocity=126 time=0@note_on channel=4 note=53 velocity=126 time=0@note_on channel=7 note=56 velocity=126 time=0@note_on channel=0 note=77 velocity=0 time=0.08828125@note_on channel=1 note=77 velocity=0 time=0.004687500000000001@note_on channel=2 note=89 velocity=0 time=0@note_on channel=0 note=72 velocity=96 time=0.00078125@note_on channel=1 note=72 velocity=96 time=0@note_on channel=2 note=84 velocity=96 time=0@note_on channel=0 note=72 velocity=0 time=0.08828125@note_on channel=1 note=72 velocity=0 time=0.004687500000000001@note_on channel=2 note=84 velocity=0 time=0@note_on channel=9 note=42 velocity=0 time=0@note_on channel=0 note=68 velocity=96 time=0.00078125@note_on channel=1 note=68 velocity=96 time=0@note_on channel=2 note=80 velocity=96 time=0@note_on channel=9 note=42 velocity=16 time=0@note_on channel=0 note=68 velocity=0 time=0.08828125@note_on channel=1 note=68 velocity=0 time=0.004687500000000001@note_on channel=2 note=80 velocity=0 time=0@note_on channel=0 note=65 velocity=96 time=0.00078125@note_on channel=1 note=65 velocity=96 time=0@note_on channel=2 note=77 velocity=96 time=0@note_on channel=0 note=65 velocity=0 time=0.08828125@note_on channel=1 note=65 velocity=0 time=0.004687500000000001@note_on channel=2 note=77 velocity=0 time=0@note_on channel=9 note=42 velocity=0 time=0@note_on channel=0 note=77 velocity=96 time=0.00078125@note_on channel=1 note=77 velocity=96 time=0@note_on channel=2 note=89 velocity=96 time=0@note_on channel=9 note=38 velocity=80 time=0@note_on channel=9 note=35 velocity=80 time=0@note_on channel=9 note=42 velocity=16 time=0@note_on channel=0 note=77 velocity=0 time=0.08828125@note_on channel=1 note=77 velocity=0 time=0.004687500000000001@note_on channel=2 note=89 velocity=0 time=0@note_on channel=0 note=72 velocity=96 time=0.00078125@note_on channel=1 note=72 velocity=96 time=0@note_on channel=2 note=84 velocity=96 time=0@note_on channel=0 note=72 velocity=0 time=0.08828125@note_on channel=1 note=72 velocity=0 time=0.004687500000000001@note_on channel=2 note=84 velocity=0 time=0@note_on channel=9 note=42 velocity=0 time=0@note_on channel=0 note=68 velocity=96 time=0.00078125@note_on channel=1 note=68 velocity=96 time=0@note_on channel=2 note=80 velocity=96 time=0@note_on channel=9 note=42 velocity=16 time=0@note_on channel=0 note=68 velocity=0 time=0.08828125@note_on channel=1 note=68 velocity=0 time=0.004687500000000001@note_on channel=2 note=80 velocity=0 time=0@note_on channel=9 note=42 velocity=0 time=0@note_on channel=0 note=65 velocity=96 time=0.00078125@note_on channel=1 note=65 velocity=96 time=0@note_on channel=2 note=77 velocity=96 time=0@note_on channel=9 note=42 velocity=16 time=0@note_on channel=0 note=65 velocity=0 time=0.08828125@note_on channel=1 note=65 velocity=0 time=0.004687500000000001@note_on channel=2 note=77 velocity=0 time=0@note_on channel=9 note=38 velocity=0 time=0@note_on channel=9 note=35 velocity=0 time=0@note_on channel=9 note=42 velocity=0 time=0@note_on channel=0 note=77 velocity=96 time=0.00078125@note_on channel=1 note=77 velocity=96 time=0@note_on channel=2 note=89 velocity=96 time=0@note_on channel=9 note=42 velocity=16 time=0@note_on channel=0 note=77 velocity=0 time=0.08828125@note_on channel=1 note=77 velocity=0 time=0.004687500000000001@note_on channel=2 note=89 velocity=0 time=0@note_on channel=0 note=72 velocity=96 time=0.00078125@note_on channel=1 note=72 velocity=96 time=0@note_on channel=2 note=84 velocity=96 time=0@note_on channel=0 note=72 velocity=0 time=0.08828125@note_on channel=1 note=72 velocity=0 time=0.004687500000000001@note_on channel=2 note=84 velocity=0 time=0@note_on channel=9 note=42 velocity=0 time=0@note_on channel=0 note=68 velocity=96 time=0.00078125@note_on channel=1 note=68 velocity=96 time=0@note_on channel=2 note=80 velocity=96 time=0@note_on channel=9 note=42 velocity=16 time=0@note_on channel=0 note=68 velocity=0 time=0.08828125@note_on channel=1 note=68 velocity=0 time=0.004687500000000001@note_on channel=2 note=80 velocity=0 time=0@note_on channel=0 note=65 velocity=96 time=0.00078125@note_on channel=1 note=65 velocity=96 time=0@note_on channel=2 note=77 velocity=96 time=0@note_on channel=0 note=65 velocity=0 time=0.08828125@note_on channel=1 note=65 velocity=0 time=0.004687500000000001@note_on channel=2 note=77 velocity=0 time=0@note_on channel=9 note=42 velocity=0 time=0@note_on channel=0 note=77 velocity=96 time=0.00078125@note_on channel=1 note=77 velocity=96 time=0@note_on channel=2 note=89 velocity=96 time=0@note_on channel=9 note=38 velocity=80 time=0@note_on channel=9 note=35 velocity=80 time=0@note_on channel=9 note=42 velocity=16 time=0@note_on channel=0 note=77 velocity=0 time=0.08828125@note_on channel=1 note=77 velocity=0 time=0.004687500000000001@note_on channel=2 note=89 velocity=0 time=0@note_on channel=9 note=38 velocity=0 time=0@note_on channel=9 note=42 velocity=0 time=0@note_on channel=0 note=72 velocity=96 time=0.00078125@note_on channel=1 note=72 velocity=96 time=0@note_on channel=2 note=84 velocity=96 time=0@note_on channel=9 note=38 velocity=80 time=0@note_on channel=9 note=42 velocity=16 time=0@note_on channel=0 note=72 velocity=0 time=0.08828125@note_on channel=1 note=72 velocity=0 time=0.004687500000000001@note_on channel=2 note=84 velocity=0 time=0@note_on channel=9 note=38 velocity=0 time=0@note_on channel=0 note=68 velocity=96 time=0.00078125@note_on channel=1 note=68 velocity=96 time=0@note_on channel=2 note=80 velocity=96 time=0@note_on channel=0 note=68 velocity=0 time=0.08828125@note_on channel=1 note=68 velocity=0 time=0.004687500000000001@note_on channel=2 note=80 velocity=0 time=0@note_on channel=0 note=65 velocity=96 time=0.00078125@note_on channel=1 note=65 velocity=96 time=0@note_on channel=2 note=77 velocity=96 time=0@note_on channel=0 note=65 velocity=0 time=0.08828125@note_on channel=1 note=65 velocity=0 time=0.004687500000000001@note_on channel=1 note=53 velocity=0 time=0@note_on channel=2 note=77 velocity=0 time=0@note_on channel=3 note=56 velocity=0 time=0@note_on channel=4 note=56 velocity=0 time=0@note_on channel=5 note=65 velocity=0 time=0@note_on channel=6 note=53 velocity=0 time=0@note_on channel=7 note=53 velocity=0 time=0@note_on channel=8 note=68 velocity=0 time=0@note_on channel=10 note=68 velocity=0 time=0@note_on channel=14 note=41 velocity=0 time=0@note_on channel=0 note=53 velocity=0 time=0@note_on channel=9 note=35 velocity=0 time=0@note_on channel=9 note=42 velocity=0 time=0@note_on channel=1 note=77 velocity=0 time=0@note_on channel=4 note=53 velocity=0 time=0@note_on channel=7 note=56 velocity=0 time=0@note_on channel=0 note=79 velocity=96 time=0.00078125@note_on channel=1 note=79 velocity=96 time=0@note_on channel=1 note=46 velocity=96 time=0@note_on channel=2 note=91 velocity=96 time=0@note_on channel=3 note=58 velocity=126 time=0@note_on channel=4 note=58 velocity=126 time=0@note_on channel=5 note=67 velocity=126 time=0@note_on channel=6 note=58 velocity=126 time=0@note_on channel=7 note=46 velocity=96 time=0@note_on channel=8 note=70 velocity=126 time=0@note_on channel=10 note=70 velocity=126 time=0@note_on channel=14 note=34 velocity=96 time=0@note_on channel=0 note=46 velocity=96 time=0@note_on channel=9 note=42 velocity=16 time=0@note_on channel=1 note=79 velocity=126 time=0@note_on channel=4 note=58 velocity=126 time=0@note_on channel=7 note=58 velocity=126 time=0@note_on channel=0 note=79 velocity=0 time=0.08828125@note_on channel=1 note=79 velocity=0 time=0.004687500000000001@note_on channel=2 note=91 velocity=0 time=0@note_on channel=0 note=73 velocity=96 time=0.00078125@note_on channel=1 note=73 velocity=96 time=0@note_on channel=2 note=85 velocity=96 time=0@note_on channel=0 note=73 velocity=0 time=0.08828125@note_on channel=1 note=73 velocity=0 time=0.004687500000000001@note_on channel=2 note=85 velocity=0 time=0@note_on channel=9 note=42 velocity=0 time=0@note_on channel=0 note=70 velocity=96 time=0.00078125@note_on channel=1 note=70 velocity=96 time=0@note_on channel=2 note=82 velocity=96 time=0@note_on channel=9 note=42 velocity=16 time=0@note_on channel=0 note=70 velocity=0 time=0.08828125@note_on channel=1 note=70 velocity=0 time=0.004687500000000001@note_on channel=2 note=82 velocity=0 time=0@note_on channel=0 note=67 velocity=96 time=0.00078125@note_on channel=1 note=67 velocity=96 time=0@note_on channel=2 note=79 velocity=96 time=0@note_on channel=0 note=67 velocity=0 time=0.08828125@note_on channel=1 note=67 velocity=0 time=0.004687500000000001@note_on channel=2 note=79 velocity=0 time=0@note_on channel=9 note=42 velocity=0 time=0@note_on channel=0 note=79 velocity=96 time=0.00078125@note_on channel=1 note=79 velocity=96 time=0@note_on channel=2 note=91 velocity=96 time=0@note_on channel=9 note=38 velocity=80 time=0@note_on channel=9 note=35 velocity=80 time=0@note_on channel=9 note=42 velocity=16 time=0@note_on channel=0 note=79 velocity=0 time=0.08828125@note_on channel=1 note=79 velocity=0 time=0.004687500000000001@note_on channel=2 note=91 velocity=0 time=0@note_on channel=0 note=73 velocity=96 time=0.00078125@note_on channel=1 note=73 velocity=96 time=0@note_on channel=2 note=85 velocity=96 time=0@note_on channel=0 note=73 velocity=0 time=0.08828125@note_on channel=1 note=73 velocity=0 time=0.004687500000000001@note_on channel=2 note=85 velocity=0 time=0@note_on channel=9 note=42 velocity=0 time=0@note_on channel=0 note=70 velocity=96 time=0.00078125@note_on channel=1 note=70 velocity=96 time=0@note_on channel=2 note=82 velocity=96 time=0@note_on channel=9 note=42 velocity=16 time=0@note_on channel=0 note=70 velocity=0 time=0.08828125@note_on channel=1 note=70 velocity=0 time=0.004687500000000001@note_on channel=2 note=82 velocity=0 time=0@note_on channel=9 note=42 velocity=0 time=0@note_on channel=0 note=67 velocity=96 time=0.00078125@note_on channel=1 note=67 velocity=96 time=0@note_on channel=2 note=79 velocity=96 time=0@note_on channel=9 note=42 velocity=16 time=0@note_on channel=0 note=67 velocity=0 time=0.08828125@note_on channel=1 note=67 velocity=0 time=0.004687500000000001@note_on channel=2 note=79 velocity=0 time=0@note_on channel=9 note=38 velocity=0 time=0@note_on channel=9 note=35 velocity=0 time=0@note_on channel=9 note=42 velocity=0 time=0@note_on channel=0 note=79 velocity=96 time=0.00078125@note_on channel=1 note=79 velocity=96 time=0@note_on channel=2 note=91 velocity=96 time=0@note_on channel=9 note=42 velocity=16 time=0@note_on channel=0 note=79 velocity=0 time=0.08828125@note_on channel=1 note=79 velocity=0 time=0.004687500000000001@note_on channel=2 note=91 velocity=0 time=0@note_on channel=0 note=73 velocity=96 time=0.00078125@note_on channel=1 note=73 velocity=96 time=0@note_on channel=2 note=85 velocity=96 time=0@note_on channel=0 note=73 velocity=0 time=0.08828125@note_on channel=1 note=73 velocity=0 time=0.004687500000000001@note_on channel=2 note=85 velocity=0 time=0@note_on channel=9 note=42 velocity=0 time=0@note_on channel=0 note=70 velocity=96 time=0.00078125@note_on channel=1 note=70 velocity=96 time=0@note_on channel=2 note=82 velocity=96 time=0@note_on channel=9 note=42 velocity=16 time=0@note_on channel=0 note=70 velocity=0 time=0.08828125@note_on channel=1 note=70 velocity=0 time=0.004687500000000001@note_on channel=2 note=82 velocity=0 time=0@note_on channel=0 note=67 velocity=96 time=0.00078125@note_on channel=1 note=67 velocity=96 time=0@note_on channel=2 note=79 velocity=96 time=0@note_on channel=0 note=67 velocity=0 time=0.08828125@note_on channel=1 note=67 velocity=0 time=0.004687500000000001@note_on channel=2 note=79 velocity=0 time=0@note_on channel=9 note=42 velocity=0 time=0@note_on channel=0 note=79 velocity=96 time=0.00078125@note_on channel=1 note=79 velocity=96 time=0@note_on channel=2 note=91 velocity=96 time=0@note_on channel=9 note=38 velocity=80 time=0@note_on channel=9 note=35 velocity=80 time=0@note_on channel=9 note=42 velocity=16 time=0@note_on channel=0 note=79 velocity=0 time=0.08828125@note_on channel=1 note=79 velocity=0 time=0.004687500000000001@note_on channel=2 note=91 velocity=0 time=0@note_on channel=9 note=38 velocity=0 time=0@note_on channel=9 note=42 velocity=0 time=0@note_on channel=0 note=73 velocity=96 time=0.00078125@note_on channel=1 note=73 velocity=96 time=0@note_on channel=2 note=85 velocity=96 time=0@note_on channel=9 note=38 velocity=80 time=0@note_on channel=9 note=42 velocity=16 time=0@note_on channel=0 note=73 velocity=0 time=0.08828125@note_on channel=1 note=73 velocity=0 time=0.004687500000000001@note_on channel=2 note=85 velocity=0 time=0@note_on channel=9 note=38 velocity=0 time=0@note_on channel=0 note=70 velocity=96 time=0.00078125@note_on channel=1 note=70 velocity=96 time=0@note_on channel=2 note=82 velocity=96 time=0@note_on channel=0 note=70 velocity=0 time=0.08828125@note_on channel=1 note=70 velocity=0 time=0.004687500000000001@note_on channel=2 note=82 velocity=0 time=0@note_on channel=0 note=67 velocity=96 time=0.00078125@note_on channel=1 note=67 velocity=96 time=0@note_on channel=2 note=79 velocity=96 time=0@note_on channel=0 note=67 velocity=0 time=0.08828125@note_on channel=1 note=67 velocity=0 time=0.004687500000000001@note_on channel=1 note=46 velocity=0 time=0@note_on channel=2 note=79 velocity=0 time=0@note_on channel=3 note=58 velocity=0 time=0@note_on channel=4 note=58 velocity=0 time=0@note_on channel=5 note=67 velocity=0 time=0@note_on channel=6 note=58 velocity=0 time=0@note_on channel=7 note=46 velocity=0 time=0@note_on channel=8 note=70 velocity=0 time=0@note_on channel=10 note=70 velocity=0 time=0@note_on channel=14 note=34 velocity=0 time=0@note_on channel=0 note=46 velocity=0 time=0@note_on channel=9 note=35 velocity=0 time=0@note_on channel=9 note=42 velocity=0 time=0@note_on channel=1 note=79 velocity=0 time=0@note_on channel=4 note=58 velocity=0 time=0@note_on channel=7 note=58 velocity=0 time=0@note_on channel=0 note=77 velocity=96 time=0.00078125@note_on channel=1 note=77 velocity=96 time=0@note_on channel=1 note=53 velocity=96 time=0@note_on channel=2 note=89 velocity=96 time=0@note_on channel=3 note=60 velocity=126 time=0@note_on channel=4 note=60 velocity=126 time=0@note_on channel=5 note=65 velocity=126 time=0@note_on channel=6 note=56 velocity=126 time=0@note_on channel=7 note=53 velocity=96 time=0@note_on channel=8 note=65 velocity=126 time=0@note_on channel=10 note=65 velocity=126 time=0@note_on channel=14 note=41 velocity=96 time=0@note_on channel=0 note=53 velocity=96 time=0@note_on channel=9 note=42 velocity=16 time=0@note_on channel=1 note=77 velocity=126 time=0@note_on channel=4 note=56 velocity=126 time=0@note_on channel=7 note=60 velocity=126 time=0@note_on channel=0 note=77 velocity=0 time=0.08828125@note_on channel=1 note=77 velocity=0 time=0.004687500000000001@note_on channel=2 note=89 velocity=0 time=0@note_on channel=0 note=72 velocity=96 time=0.00078125@note_on channel=1 note=72 velocity=96 time=0@note_on channel=2 note=84 velocity=96 time=0@note_on channel=0 note=72 velocity=0 time=0.08828125@note_on channel=1 note=72 velocity=0 time=0.004687500000000001@note_on channel=2 note=84 velocity=0 time=0@note_on channel=9 note=42 velocity=0 time=0@note_on channel=0 note=68 velocity=96 time=0.00078125@note_on channel=1 note=68 velocity=96 time=0@note_on channel=2 note=80 velocity=96 time=0@note_on channel=9 note=42 velocity=16 time=0@note_on channel=0 note=68 velocity=0 time=0.08828125@note_on channel=1 note=68 velocity=0 time=0.004687500000000001@note_on channel=2 note=80 velocity=0 time=0@note_on channel=0 note=65 velocity=96 time=0.00078125@note_on channel=1 note=65 velocity=96 time=0@note_on channel=2 note=77 velocity=96 time=0@note_on channel=0 note=65 velocity=0 time=0.08828125@note_on channel=1 note=65 velocity=0 time=0.004687500000000001@note_on channel=2 note=77 velocity=0 time=0@note_on channel=9 note=42 velocity=0 time=0@note_on channel=0 note=77 velocity=96 time=0.00078125@note_on channel=1 note=77 velocity=96 time=0@note_on channel=2 note=89 velocity=96 time=0@note_on channel=9 note=38 velocity=80 time=0@note_on channel=9 note=35 velocity=80 time=0@note_on channel=9 note=42 velocity=16 time=0@note_on channel=0 note=77 velocity=0 time=0.08828125@note_on channel=1 note=77 velocity=0 time=0.004687500000000001@note_on channel=2 note=89 velocity=0 time=0@note_on channel=0 note=72 velocity=96 time=0.00078125@note_on channel=1 note=72 velocity=96 time=0@note_on channel=2 note=84 velocity=96 time=0@note_on channel=0 note=72 velocity=0 time=0.08828125@note_on channel=1 note=72 velocity=0 time=0.004687500000000001@note_on channel=2 note=84 velocity=0 time=0@note_on channel=9 note=42 velocity=0 time=0@note_on channel=0 note=68 velocity=96 time=0.00078125@note_on channel=1 note=68 velocity=96 time=0@note_on channel=2 note=80 velocity=96 time=0@note_on channel=9 note=42 velocity=16 time=0@note_on channel=0 note=68 velocity=0 time=0.08828125@note_on channel=1 note=68 velocity=0 time=0.004687500000000001@note_on channel=2 note=80 velocity=0 time=0@note_on channel=9 note=42 velocity=0 time=0@note_on channel=0 note=65 velocity=96 time=0.00078125@note_on channel=1 note=65 velocity=96 time=0@note_on channel=2 note=77 velocity=96 time=0@note_on channel=9 note=42 velocity=16 time=0@note_on channel=0 note=65 velocity=0 time=0.08828125@note_on channel=1 note=65 velocity=0 time=0.004687500000000001@note_on channel=2 note=77 velocity=0 time=0@note_on channel=9 note=38 velocity=0 time=0@note_on channel=9 note=35 velocity=0 time=0@note_on channel=9 note=42 velocity=0 time=0@note_on channel=0 note=77 velocity=96 time=0.00078125@note_on channel=1 note=77 velocity=96 time=0@note_on channel=2 note=89 velocity=96 time=0@note_on channel=9 note=42 velocity=16 time=0@note_on channel=0 note=77 velocity=0 time=0.08828125@note_on channel=1 note=77 velocity=0 time=0.004687500000000001@note_on channel=2 note=89 velocity=0 time=0@note_on channel=0 note=72 velocity=96 time=0.00078125@note_on channel=1 note=72 velocity=96 time=0@note_on channel=2 note=84 velocity=96 time=0@note_on channel=0 note=72 velocity=0 time=0.08828125@note_on channel=1 note=72 velocity=0 time=0.004687500000000001@note_on channel=2 note=84 velocity=0 time=0@note_on channel=9 note=42 velocity=0 time=0@note_on channel=0 note=68 velocity=96 time=0.00078125@note_on channel=1 note=68 velocity=96 time=0@note_on channel=2 note=80 velocity=96 time=0@note_on channel=9 note=42 velocity=16 time=0@note_on channel=0 note=68 velocity=0 time=0.08828125@note_on channel=1 note=68 velocity=0 time=0.004687500000000001@note_on channel=2 note=80 velocity=0 time=0@note_on channel=0 note=65 velocity=96 time=0.00078125@note_on channel=1 note=65 velocity=96 time=0@note_on channel=2 note=77 velocity=96 time=0@note_on channel=0 note=65 velocity=0 time=0.08828125@note_on channel=1 note=65 velocity=0 time=0.004687500000000001@note_on channel=2 note=77 velocity=0 time=0@note_on channel=9 note=42 velocity=0 time=0@note_on channel=0 note=77 velocity=96 time=0.00078125@note_on channel=1 note=77 velocity=96 time=0@note_on channel=2 note=89 velocity=96 time=0@note_on channel=9 note=38 velocity=80 time=0@note_on channel=9 note=35 velocity=80 time=0@note_on channel=9 note=42 velocity=16 time=0@note_on channel=0 note=77 velocity=0 time=0.08828125@note_on channel=1 note=77 velocity=0 time=0.004687500000000001@note_on channel=2 note=89 velocity=0 time=0@note_on channel=9 note=38 velocity=0 time=0@note_on channel=9 note=42 velocity=0 time=0@note_on channel=0 note=72 velocity=96 time=0.00078125@note_on channel=1 note=72 velocity=96 time=0@note_on channel=2 note=84 velocity=96 time=0@note_on channel=9 note=38 velocity=80 time=0@note_on channel=9 note=42 velocity=16 time=0@note_on channel=0 note=72 velocity=0 time=0.08828125@note_on channel=1 note=72 velocity=0 time=0.004687500000000001@note_on channel=2 note=84 velocity=0 time=0@note_on channel=9 note=38 velocity=0 time=0@note_on channel=0 note=68 velocity=96 time=0.00078125@note_on channel=1 note=68 velocity=96 time=0@note_on channel=2 note=80 velocity=96 time=0@note_on channel=0 note=68 velocity=0 time=0.08828125@note_on channel=1 note=68 velocity=0 time=0.004687500000000001@note_on channel=2 note=80 velocity=0 time=0@note_on channel=0 note=65 velocity=96 time=0.00078125@note_on channel=1 note=65 velocity=96 time=0@note_on channel=2 note=77 velocity=96 time=0@note_on channel=0 note=65 velocity=0 time=0.08828125@note_on channel=1 note=65 velocity=0 time=0.004687500000000001@note_on channel=1 note=53 velocity=0 time=0@note_on channel=2 note=77 velocity=0 time=0@note_on channel=3 note=60 velocity=0 time=0@note_on channel=4 note=60 velocity=0 time=0@note_on channel=5 note=65 velocity=0 time=0@note_on channel=6 note=56 velocity=0 time=0@note_on channel=7 note=53 velocity=0 time=0@note_on channel=8 note=65 velocity=0 time=0@note_on channel=10 note=65 velocity=0 time=0@note_on channel=14 note=41 velocity=0 time=0@note_on channel=0 note=53 velocity=0 time=0@note_on channel=9 note=35 velocity=0 time=0@note_on channel=9 note=42 velocity=0 time=0@note_on channel=1 note=77 velocity=0 time=0@note_on channel=4 note=56 velocity=0 time=0@note_on channel=7 note=60 velocity=0 time=0@note_on channel=0 note=77 velocity=96 time=0.00078125@note_on channel=1 note=77 velocity=96 time=0@note_on channel=1 note=53 velocity=96 time=0@note_on channel=2 note=89 velocity=96 time=0@note_on channel=3 note=60 velocity=112 time=0@note_on channel=4 note=60 velocity=112 time=0@note_on channel=7 note=53 velocity=96 time=0@note_on channel=8 note=72 velocity=96 time=0@note_on channel=10 note=72 velocity=96 time=0@note_on channel=14 note=41 velocity=96 time=0@note_on channel=0 note=53 velocity=96 time=0@note_on channel=9 note=42 velocity=16 time=0@note_on channel=9 note=57 velocity=112 time=0@note_on channel=1 note=77 velocity=126 time=0@note_on channel=7 note=60 velocity=112 time=0@note_on channel=11 note=41 velocity=96 time=0@note_on channel=0 note=77 velocity=0 time=0.08828125@note_on channel=1 note=77 velocity=0 time=0.004687500000000001@note_on channel=2 note=89 velocity=0 time=0@note_on channel=0 note=72 velocity=96 time=0.00078125@note_on channel=1 note=72 velocity=96 time=0@note_on channel=2 note=84 velocity=96 time=0@note_on channel=0 note=72 velocity=0 time=0.08828125@note_on channel=1 note=72 velocity=0 time=0.004687500000000001@note_on channel=2 note=84 velocity=0 time=0@note_on channel=9 note=42 velocity=0 time=0@note_on channel=0 note=68 velocity=96 time=0.00078125@note_on channel=1 note=68 velocity=96 time=0@note_on channel=2 note=80 velocity=96 time=0@note_on channel=9 note=42 velocity=16 time=0@note_on channel=0 note=68 velocity=0 time=0.08828125@note_on channel=1 note=68 velocity=0 time=0.004687500000000001@note_on channel=2 note=80 velocity=0 time=0@note_on channel=0 note=65 velocity=96 time=0.00078125@note_on channel=1 note=65 velocity=96 time=0@note_on channel=2 note=77 velocity=96 time=0@note_on channel=0 note=65 velocity=0 time=0.08828125@note_on channel=1 note=65 velocity=0 time=0.004687500000000001@note_on channel=2 note=77 velocity=0 time=0@note_on channel=9 note=42 velocity=0 time=0@note_on channel=9 note=57 velocity=0 time=0@note_on channel=0 note=77 velocity=96 time=0.00078125@note_on channel=1 note=77 velocity=96 time=0@note_on channel=2 note=89 velocity=96 time=0@note_on channel=9 note=38 velocity=80 time=0@note_on channel=9 note=35 velocity=80 time=0@note_on channel=9 note=42 velocity=16 time=0@note_on channel=0 note=77 velocity=0 time=0.08828125@note_on channel=1 note=77 velocity=0 time=0.004687500000000001@note_on channel=2 note=89 velocity=0 time=0@note_on channel=0 note=72 velocity=96 time=0.00078125@note_on channel=1 note=72 velocity=96 time=0@note_on channel=2 note=84 velocity=96 time=0@note_on channel=0 note=72 velocity=0 time=0.08828125@note_on channel=1 note=72 velocity=0 time=0.004687500000000001@note_on channel=2 note=84 velocity=0 time=0@note_on channel=9 note=42 velocity=0 time=0@note_on channel=0 note=68 velocity=96 time=0.00078125@note_on channel=1 note=68 velocity=96 time=0@note_on channel=2 note=80 velocity=96 time=0@note_on channel=9 note=42 velocity=16 time=0@note_on channel=0 note=68 velocity=0 time=0.08828125@note_on channel=1 note=68 velocity=0 time=0.004687500000000001@note_on channel=2 note=80 velocity=0 time=0@note_on channel=9 note=42 velocity=0 time=0@note_on channel=0 note=65 velocity=96 time=0.00078125@note_on channel=1 note=65 velocity=96 time=0@note_on channel=2 note=77 velocity=96 time=0@note_on channel=9 note=42 velocity=16 time=0@note_on channel=0 note=65 velocity=0 time=0.08828125@note_on channel=1 note=65 velocity=0 time=0.004687500000000001@note_on channel=2 note=77 velocity=0 time=0@note_on channel=9 note=38 velocity=0 time=0@note_on channel=9 note=35 velocity=0 time=0@note_on channel=9 note=42 velocity=0 time=0@note_on channel=0 note=77 velocity=96 time=0.00078125@note_on channel=1 note=77 velocity=96 time=0@note_on channel=2 note=89 velocity=96 time=0@note_on channel=9 note=42 velocity=16 time=0@note_on channel=0 note=77 velocity=0 time=0.08828125@note_on channel=1 note=77 velocity=0 time=0.004687500000000001@note_on channel=2 note=89 velocity=0 time=0@note_on channel=0 note=72 velocity=96 time=0.00078125@note_on channel=1 note=72 velocity=96 time=0@note_on channel=2 note=84 velocity=96 time=0@note_on channel=0 note=72 velocity=0 time=0.08828125@note_on channel=1 note=72 velocity=0 time=0.004687500000000001@note_on channel=2 note=84 velocity=0 time=0@note_on channel=9 note=42 velocity=0 time=0@note_on channel=0 note=68 velocity=96 time=0.00078125@note_on channel=1 note=68 velocity=96 time=0@note_on channel=2 note=80 velocity=96 time=0@note_on channel=9 note=42 velocity=16 time=0@note_on channel=0 note=68 velocity=0 time=0.08828125@note_on channel=1 note=68 velocity=0 time=0.004687500000000001@note_on channel=2 note=80 velocity=0 time=0@note_on channel=0 note=65 velocity=96 time=0.00078125@note_on channel=1 note=65 velocity=96 time=0@note_on channel=2 note=77 velocity=96 time=0@note_on channel=0 note=65 velocity=0 time=0.08828125@note_on channel=1 note=65 velocity=0 time=0.004687500000000001@note_on channel=1 note=53 velocity=0 time=0@note_on channel=2 note=77 velocity=0 time=0@note_on channel=7 note=53 velocity=0 time=0@note_on channel=14 note=41 velocity=0 time=0@note_on channel=0 note=53 velocity=0 time=0@note_on channel=9 note=42 velocity=0 time=0@note_on channel=1 note=77 velocity=0 time=0@note_on channel=11 note=41 velocity=0 time=0@note_on channel=0 note=77 velocity=96 time=0.00078125@note_on channel=1 note=77 velocity=96 time=0@note_on channel=1 note=56 velocity=96 time=0@note_on channel=2 note=89 velocity=96 time=0@note_on channel=7 note=56 velocity=96 time=0@note_on channel=14 note=44 velocity=96 time=0@note_on channel=0 note=56 velocity=96 time=0@note_on channel=9 note=38 velocity=80 time=0@note_on channel=9 note=35 velocity=80 time=0@note_on channel=9 note=42 velocity=16 time=0@note_on channel=1 note=84 velocity=126 time=0@note_on channel=11 note=44 velocity=96 time=0@note_on channel=0 note=77 velocity=0 time=0.08828125@note_on channel=1 note=77 velocity=0 time=0.004687500000000001@note_on channel=2 note=89 velocity=0 time=0@note_on channel=9 note=38 velocity=0 time=0@note_on channel=9 note=42 velocity=0 time=0@note_on channel=0 note=72 velocity=96 time=0.00078125@note_on channel=1 note=72 velocity=96 time=0@note_on channel=2 note=84 velocity=96 time=0@note_on channel=9 note=38 velocity=80 time=0@note_on channel=9 note=42 velocity=16 time=0@note_on channel=0 note=72 velocity=0 time=0.08828125@note_on channel=1 note=72 velocity=0 time=0.004687500000000001@note_on channel=2 note=84 velocity=0 time=0@note_on channel=9 note=38 velocity=0 time=0@note_on channel=0 note=68 velocity=96 time=0.00078125@note_on channel=1 note=68 velocity=96 time=0@note_on channel=2 note=80 velocity=96 time=0@note_on channel=0 note=68 velocity=0 time=0.08828125@note_on channel=1 note=68 velocity=0 time=0.004687500000000001@note_on channel=2 note=80 velocity=0 time=0@note_on channel=0 note=65 velocity=96 time=0.00078125@note_on channel=1 note=65 velocity=96 time=0@note_on channel=2 note=77 velocity=96 time=0@note_on channel=0 note=65 velocity=0 time=0.08828125@note_on channel=1 note=65 velocity=0 time=0.004687500000000001@note_on channel=1 note=56 velocity=0 time=0@note_on channel=2 note=77 velocity=0 time=0@note_on channel=7 note=56 velocity=0 time=0@note_on channel=8 note=72 velocity=0 time=0@note_on channel=10 note=72 velocity=0 time=0@note_on channel=14 note=44 velocity=0 time=0@note_on channel=0 note=56 velocity=0 time=0@note_on channel=9 note=35 velocity=0 time=0@note_on channel=9 note=42 velocity=0 time=0@note_on channel=1 note=84 velocity=0 time=0@note_on channel=11 note=44 velocity=0 time=0@note_on channel=0 note=77 velocity=96 time=0.00078125@note_on channel=1 note=77 velocity=96 time=0@note_on channel=1 note=53 velocity=96 time=0@note_on channel=2 note=89 velocity=96 time=0@note_on channel=7 note=53 velocity=96 time=0@note_on channel=8 note=72 velocity=96 time=0@note_on channel=10 note=72 velocity=96 time=0@note_on channel=14 note=41 velocity=96 time=0@note_on channel=0 note=53 velocity=96 time=0@note_on channel=9 note=42 velocity=16 time=0@note_on channel=1 note=85 velocity=126 time=0@note_on channel=11 note=41 velocity=96 time=0@note_on channel=0 note=77 velocity=0 time=0.08828125@note_on channel=1 note=77 velocity=0 time=0.004687500000000001@note_on channel=2 note=89 velocity=0 time=0@note_on channel=0 note=72 velocity=96 time=0.00078125@note_on channel=1 note=72 velocity=96 time=0@note_on channel=2 note=84 velocity=96 time=0@note_on channel=0 note=72 velocity=0 time=0.08828125@note_on channel=1 note=72 velocity=0 time=0.004687500000000001@note_on channel=2 note=84 velocity=0 time=0@note_on channel=9 note=42 velocity=0 time=0@note_on channel=0 note=68 velocity=96 time=0.00078125@note_on channel=1 note=68 velocity=96 time=0@note_on channel=2 note=80 velocity=96 time=0@note_on channel=9 note=42 velocity=16 time=0@note_on channel=0 note=68 velocity=0 time=0.08828125@note_on channel=1 note=68 velocity=0 time=0.004687500000000001@note_on channel=2 note=80 velocity=0 time=0@note_on channel=0 note=65 velocity=96 time=0.00078125@note_on channel=1 note=65 velocity=96 time=0@note_on channel=2 note=77 velocity=96 time=0@note_on channel=0 note=65 velocity=0 time=0.08828125@note_on channel=1 note=65 velocity=0 time=0.004687500000000001@note_on channel=2 note=77 velocity=0 time=0@note_on channel=9 note=42 velocity=0 time=0@note_on channel=0 note=77 velocity=96 time=0.00078125@note_on channel=1 note=77 velocity=96 time=0@note_on channel=2 note=89 velocity=96 time=0@note_on channel=9 note=38 velocity=80 time=0@note_on channel=9 note=35 velocity=80 time=0@note_on channel=9 note=42 velocity=16 time=0@note_on channel=0 note=77 velocity=0 time=0.08828125@note_on channel=1 note=77 velocity=0 time=0.004687500000000001@note_on channel=2 note=89 velocity=0 time=0@note_on channel=0 note=72 velocity=96 time=0.00078125@note_on channel=1 note=72 velocity=96 time=0@note_on channel=2 note=84 velocity=96 time=0@note_on channel=0 note=72 velocity=0 time=0.08828125@note_on channel=1 note=72 velocity=0 time=0.004687500000000001@note_on channel=2 note=84 velocity=0 time=0@note_on channel=9 note=42 velocity=0 time=0@note_on channel=0 note=68 velocity=96 time=0.00078125@note_on channel=1 note=68 velocity=96 time=0@note_on channel=2 note=80 velocity=96 time=0@note_on channel=9 note=42 velocity=16 time=0@note_on channel=0 note=68 velocity=0 time=0.08828125@note_on channel=1 note=68 velocity=0 time=0.004687500000000001@note_on channel=2 note=80 velocity=0 time=0@note_on channel=9 note=42 velocity=0 time=0@note_on channel=0 note=65 velocity=96 time=0.00078125@note_on channel=1 note=65 velocity=96 time=0@note_on channel=2 note=77 velocity=96 time=0@note_on channel=9 note=42 velocity=16 time=0@note_on channel=0 note=65 velocity=0 time=0.08828125@note_on channel=1 note=65 velocity=0 time=0.004687500000000001@note_on channel=1 note=53 velocity=0 time=0@note_on channel=2 note=77 velocity=0 time=0@note_on channel=7 note=53 velocity=0 time=0@note_on channel=8 note=72 velocity=0 time=0@note_on channel=10 note=72 velocity=0 time=0@note_on channel=14 note=41 velocity=0 time=0@note_on channel=0 note=53 velocity=0 time=0@note_on channel=9 note=38 velocity=0 time=0@note_on channel=9 note=35 velocity=0 time=0@note_on channel=9 note=42 velocity=0 time=0@note_on channel=1 note=85 velocity=0 time=0@note_on channel=11 note=41 velocity=0 time=0@note_on channel=0 note=77 velocity=96 time=0.00078125@note_on channel=1 note=77 velocity=96 time=0@note_on channel=1 note=56 velocity=96 time=0@note_on channel=2 note=89 velocity=96 time=0@note_on channel=7 note=56 velocity=96 time=0@note_on channel=8 note=73 velocity=96 time=0@note_on channel=10 note=73 velocity=96 time=0@note_on channel=14 note=44 velocity=96 time=0@note_on channel=0 note=56 velocity=96 time=0@note_on channel=9 note=42 velocity=16 time=0@note_on channel=1 note=84 velocity=126 time=0@note_on channel=11 note=44 velocity=96 time=0@note_on channel=0 note=77 velocity=0 time=0.08828125@note_on channel=1 note=77 velocity=0 time=0.004687500000000001@note_on channel=2 note=89 velocity=0 time=0@note_on channel=0 note=72 velocity=96 time=0.00078125@note_on channel=1 note=72 velocity=96 time=0@note_on channel=2 note=84 velocity=96 time=0@note_on channel=0 note=72 velocity=0 time=0.08828125@note_on channel=1 note=72 velocity=0 time=0.004687500000000001@note_on channel=2 note=84 velocity=0 time=0@note_on channel=8 note=73 velocity=0 time=0@note_on channel=10 note=73 velocity=0 time=0@note_on channel=9 note=42 velocity=0 time=0@note_on channel=0 note=68 velocity=96 time=0.00078125@note_on channel=1 note=68 velocity=96 time=0@note_on channel=2 note=80 velocity=96 time=0@note_on channel=8 note=72 velocity=96 time=0@note_on channel=10 note=72 velocity=96 time=0@note_on channel=9 note=42 velocity=16 time=0@note_on channel=0 note=68 velocity=0 time=0.08828125@note_on channel=1 note=68 velocity=0 time=0.004687500000000001@note_on channel=2 note=80 velocity=0 time=0@note_on channel=0 note=65 velocity=96 time=0.00078125@note_on channel=1 note=65 velocity=96 time=0@note_on channel=2 note=77 velocity=96 time=0@note_on channel=0 note=65 velocity=0 time=0.08828125@note_on channel=1 note=65 velocity=0 time=0.004687500000000001@note_on channel=2 note=77 velocity=0 time=0@note_on channel=3 note=60 velocity=0 time=0@note_on channel=4 note=60 velocity=0 time=0@note_on channel=8 note=72 velocity=0 time=0@note_on channel=10 note=72 velocity=0 time=0@note_on channel=9 note=42 velocity=0 time=0@note_on channel=7 note=60 velocity=0 time=0@note_on channel=0 note=77 velocity=96 time=0.00078125@note_on channel=1 note=77 velocity=96 time=0@note_on channel=2 note=89 velocity=96 time=0@note_on channel=3 note=58 velocity=112 time=0@note_on channel=4 note=58 velocity=112 time=0@note_on channel=8 note=70 velocity=96 time=0@note_on channel=10 note=70 velocity=96 time=0@note_on channel=9 note=38 velocity=80 time=0@note_on channel=9 note=35 velocity=80 time=0@note_on channel=9 note=42 velocity=16 time=0@note_on channel=7 note=58 velocity=112 time=0@note_on channel=0 note=77 velocity=0 time=0.08828125@note_on channel=1 note=77 velocity=0 time=0.004687500000000001@note_on channel=2 note=89 velocity=0 time=0@note_on channel=9 note=38 velocity=0 time=0@note_on channel=9 note=42 velocity=0 time=0@note_on channel=0 note=72 velocity=96 time=0.00078125@note_on channel=1 note=72 velocity=96 time=0@note_on channel=2 note=84 velocity=96 time=0@note_on channel=9 note=38 velocity=80 time=0@note_on channel=9 note=42 velocity=16 time=0@note_on channel=0 note=72 velocity=0 time=0.08828125@note_on channel=1 note=72 velocity=0 time=0.004687500000000001@note_on channel=2 note=84 velocity=0 time=0@note_on channel=3 note=58 velocity=0 time=0@note_on channel=4 note=58 velocity=0 time=0@note_on channel=8 note=70 velocity=0 time=0@note_on channel=10 note=70 velocity=0 time=0@note_on channel=9 note=38 velocity=0 time=0@note_on channel=7 note=58 velocity=0 time=0@note_on channel=0 note=68 velocity=96 time=0.00078125@note_on channel=1 note=68 velocity=96 time=0@note_on channel=2 note=80 velocity=96 time=0@note_on channel=3 note=56 velocity=112 time=0@note_on channel=4 note=56 velocity=112 time=0@note_on channel=8 note=68 velocity=96 time=0@note_on channel=10 note=68 velocity=96 time=0@note_on channel=7 note=56 velocity=112 time=0@note_on channel=0 note=68 velocity=0 time=0.08828125@note_on channel=1 note=68 velocity=0 time=0.004687500000000001@note_on channel=2 note=80 velocity=0 time=0@note_on channel=0 note=65 velocity=96 time=0.00078125@note_on channel=1 note=65 velocity=96 time=0@note_on channel=2 note=77 velocity=96 time=0@note_on channel=0 note=65 velocity=0 time=0.08828125@note_on channel=1 note=65 velocity=0 time=0.004687500000000001@note_on channel=1 note=56 velocity=0 time=0@note_on channel=2 note=77 velocity=0 time=0@note_on channel=3 note=56 velocity=0 time=0@note_on channel=4 note=56 velocity=0 time=0@note_on channel=7 note=56 velocity=0 time=0@note_on channel=8 note=68 velocity=0 time=0@note_on channel=10 note=68 velocity=0 time=0@note_on channel=14 note=44 velocity=0 time=0@note_on channel=0 note=56 velocity=0 time=0@note_on channel=9 note=35 velocity=0 time=0@note_on channel=9 note=42 velocity=0 time=0@note_on channel=1 note=84 velocity=0 time=0@note_on channel=7 note=56 velocity=0 time=0@note_on channel=11 note=44 velocity=0 time=0@note_on channel=0 note=79 velocity=96 time=0.00078125@note_on channel=1 note=79 velocity=96 time=0@note_on channel=1 note=55 velocity=96 time=0@note_on channel=2 note=91 velocity=96 time=0@note_on channel=3 note=55 velocity=112 time=0@note_on channel=4 note=55 velocity=112 time=0@note_on channel=7 note=55 velocity=96 time=0@note_on channel=8 note=67 velocity=96 time=0@note_on channel=10 note=67 velocity=96 time=0@note_on channel=14 note=43 velocity=96 time=0@note_on channel=0 note=55 velocity=96 time=0@note_on channel=9 note=42 velocity=16 time=0@note_on channel=1 note=79 velocity=126 time=0@note_on channel=7 note=55 velocity=112 time=0@note_on channel=11 note=36 velocity=96 time=0@note_on channel=0 note=79 velocity=0 time=0.08828125@note_on channel=1 note=79 velocity=0 time=0.004687500000000001@note_on channel=2 note=91 velocity=0 time=0@note_on channel=0 note=73 velocity=96 time=0.00078125@note_on channel=1 note=73 velocity=96 time=0@note_on channel=2 note=85 velocity=96 time=0@note_on channel=0 note=73 velocity=0 time=0.08828125@note_on channel=1 note=73 velocity=0 time=0.004687500000000001@note_on channel=2 note=85 velocity=0 time=0@note_on channel=9 note=42 velocity=0 time=0@note_on channel=0 note=70 velocity=96 time=0.00078125@note_on channel=1 note=70 velocity=96 time=0@note_on channel=2 note=82 velocity=96 time=0@note_on channel=9 note=42 velocity=16 time=0@note_on channel=0 note=70 velocity=0 time=0.08828125@note_on channel=1 note=70 velocity=0 time=0.004687500000000001@note_on channel=2 note=82 velocity=0 time=0@note_on channel=0 note=67 velocity=96 time=0.00078125@note_on channel=1 note=67 velocity=96 time=0@note_on channel=2 note=79 velocity=96 time=0@note_on channel=0 note=67 velocity=0 time=0.08828125@note_on channel=1 note=67 velocity=0 time=0.004687500000000001@note_on channel=2 note=79 velocity=0 time=0@note_on channel=9 note=42 velocity=0 time=0@note_on channel=0 note=79 velocity=96 time=0.00078125@note_on channel=1 note=79 velocity=96 time=0@note_on channel=2 note=91 velocity=96 time=0@note_on channel=9 note=38 velocity=80 time=0@note_on channel=9 note=35 velocity=80 time=0@note_on channel=9 note=42 velocity=16 time=0@note_on channel=0 note=79 velocity=0 time=0.08828125@note_on channel=1 note=79 velocity=0 time=0.004687500000000001@note_on channel=2 note=91 velocity=0 time=0@note_on channel=0 note=73 velocity=96 time=0.00078125@note_on channel=1 note=73 velocity=96 time=0@note_on channel=2 note=85 velocity=96 time=0@note_on channel=0 note=73 velocity=0 time=0.08828125@note_on channel=1 note=73 velocity=0 time=0.004687500000000001@note_on channel=2 note=85 velocity=0 time=0@note_on channel=9 note=42 velocity=0 time=0@note_on channel=0 note=70 velocity=96 time=0.00078125@note_on channel=1 note=70 velocity=96 time=0@note_on channel=2 note=82 velocity=96 time=0@note_on channel=9 note=42 velocity=16 time=0@note_on channel=0 note=70 velocity=0 time=0.08828125@note_on channel=1 note=70 velocity=0 time=0.004687500000000001@note_on channel=2 note=82 velocity=0 time=0@note_on channel=9 note=42 velocity=0 time=0@note_on channel=0 note=67 velocity=96 time=0.00078125@note_on channel=1 note=67 velocity=96 time=0@note_on channel=2 note=79 velocity=96 time=0@note_on channel=9 note=42 velocity=16 time=0@note_on channel=0 note=67 velocity=0 time=0.08828125@note_on channel=1 note=67 velocity=0 time=0.004687500000000001@note_on channel=2 note=79 velocity=0 time=0@note_on channel=9 note=38 velocity=0 time=0@note_on channel=9 note=35 velocity=0 time=0@note_on channel=9 note=42 velocity=0 time=0@note_on channel=0 note=79 velocity=96 time=0.00078125@note_on channel=1 note=79 velocity=96 time=0@note_on channel=2 note=91 velocity=96 time=0@note_on channel=9 note=42 velocity=16 time=0@note_on channel=0 note=79 velocity=0 time=0.08828125@note_on channel=1 note=79 velocity=0 time=0.004687500000000001@note_on channel=2 note=91 velocity=0 time=0@note_on channel=0 note=73 velocity=96 time=0.00078125@note_on channel=1 note=73 velocity=96 time=0@note_on channel=2 note=85 velocity=96 time=0@note_on channel=0 note=73 velocity=0 time=0.08828125@note_on channel=1 note=73 velocity=0 time=0.004687500000000001@note_on channel=2 note=85 velocity=0 time=0@note_on channel=9 note=42 velocity=0 time=0@note_on channel=0 note=70 velocity=96 time=0.00078125@note_on channel=1 note=70 velocity=96 time=0@note_on channel=2 note=82 velocity=96 time=0@note_on channel=9 note=42 velocity=16 time=0@note_on channel=0 note=70 velocity=0 time=0.08828125@note_on channel=1 note=70 velocity=0 time=0.004687500000000001@note_on channel=2 note=82 velocity=0 time=0@note_on channel=0 note=67 velocity=96 time=0.00078125@note_on channel=1 note=67 velocity=96 time=0@note_on channel=2 note=79 velocity=96 time=0@note_on channel=0 note=67 velocity=0 time=0.08828125@note_on channel=1 note=67 velocity=0 time=0.004687500000000001@note_on channel=2 note=79 velocity=0 time=0@note_on channel=3 note=55 velocity=0 time=0@note_on channel=4 note=55 velocity=0 time=0@note_on channel=8 note=67 velocity=0 time=0@note_on channel=10 note=67 velocity=0 time=0@note_on channel=9 note=42 velocity=0 time=0@note_on channel=7 note=55 velocity=0 time=0@note_on channel=0 note=79 velocity=96 time=0.00078125@note_on channel=1 note=79 velocity=96 time=0@note_on channel=2 note=91 velocity=96 time=0@note_on channel=3 note=56 velocity=112 time=0@note_on channel=4 note=56 velocity=112 time=0@note_on channel=8 note=68 velocity=96 time=0@note_on channel=10 note=68 velocity=96 time=0@note_on channel=9 note=38 velocity=80 time=0@note_on channel=9 note=35 velocity=80 time=0@note_on channel=9 note=42 velocity=16 time=0@note_on channel=7 note=56 velocity=112 time=0@note_on channel=0 note=79 velocity=0 time=0.08828125@note_on channel=1 note=79 velocity=0 time=0.004687500000000001@note_on channel=2 note=91 velocity=0 time=0@note_on channel=9 note=38 velocity=0 time=0@note_on channel=9 note=42 velocity=0 time=0@note_on channel=0 note=73 velocity=96 time=0.00078125@note_on channel=1 note=73 velocity=96 time=0@note_on channel=2 note=85 velocity=96 time=0@note_on channel=9 note=38 velocity=80 time=0@note_on channel=9 note=42 velocity=16 time=0@note_on channel=0 note=73 velocity=0 time=0.08828125@note_on channel=1 note=73 velocity=0 time=0.004687500000000001@note_on channel=2 note=85 velocity=0 time=0@note_on channel=9 note=38 velocity=0 time=0@note_on channel=0 note=70 velocity=96 time=0.00078125@note_on channel=1 note=70 velocity=96 time=0@note_on channel=2 note=82 velocity=96 time=0@note_on channel=0 note=70 velocity=0 time=0.08828125@note_on channel=1 note=70 velocity=0 time=0.004687500000000001@note_on channel=2 note=82 velocity=0 time=0@note_on channel=0 note=67 velocity=96 time=0.00078125@note_on channel=1 note=67 velocity=96 time=0@note_on channel=2 note=79 velocity=96 time=0@note_on channel=0 note=67 velocity=0 time=0.08828125@note_on channel=1 note=67 velocity=0 time=0.004687500000000001@note_on channel=1 note=55 velocity=0 time=0@note_on channel=2 note=79 velocity=0 time=0@note_on channel=3 note=56 velocity=0 time=0@note_on channel=4 note=56 velocity=0 time=0@note_on channel=7 note=55 velocity=0 time=0@note_on channel=8 note=68 velocity=0 time=0@note_on channel=10 note=68 velocity=0 time=0@note_on channel=14 note=43 velocity=0 time=0@note_on channel=0 note=55 velocity=0 time=0@note_on channel=9 note=35 velocity=0 time=0@note_on channel=9 note=42 velocity=0 time=0@note_on channel=1 note=79 velocity=0 time=0@note_on channel=7 note=56 velocity=0 time=0@note_on channel=11 note=36 velocity=0 time=0@note_on channel=0 note=79 velocity=96 time=0.00078125@note_on channel=1 note=79 velocity=96 time=0@note_on channel=1 note=48 velocity=96 time=0@note_on channel=2 note=91 velocity=96 time=0@note_on channel=3 note=58 velocity=112 time=0@note_on channel=4 note=58 velocity=112 time=0@note_on channel=7 note=48 velocity=96 time=0@note_on channel=8 note=70 velocity=96 time=0@note_on channel=10 note=70 velocity=96 time=0@note_on channel=14 note=36 velocity=96 time=0@note_on channel=0 note=48 velocity=96 time=0@note_on channel=9 note=42 velocity=16 time=0@note_on channel=1 note=82 velocity=126 time=0@note_on channel=7 note=58 velocity=112 time=0@note_on channel=11 note=36 velocity=96 time=0@note_on channel=0 note=79 velocity=0 time=0.08828125@note_on channel=1 note=79 velocity=0 time=0.004687500000000001@note_on channel=2 note=91 velocity=0 time=0@note_on channel=0 note=73 velocity=96 time=0.00078125@note_on channel=1 note=73 velocity=96 time=0@note_on channel=2 note=85 velocity=96 time=0@note_on channel=0 note=73 velocity=0 time=0.08828125@note_on channel=1 note=73 velocity=0 time=0.004687500000000001@note_on channel=2 note=85 velocity=0 time=0@note_on channel=9 note=42 velocity=0 time=0@note_on channel=0 note=70 velocity=96 time=0.00078125@note_on channel=1 note=70 velocity=96 time=0@note_on channel=2 note=82 velocity=96 time=0@note_on channel=9 note=42 velocity=16 time=0@note_on channel=0 note=70 velocity=0 time=0.08828125@note_on channel=1 note=70 velocity=0 time=0.004687500000000001@note_on channel=2 note=82 velocity=0 time=0@note_on channel=0 note=67 velocity=96 time=0.00078125@note_on channel=1 note=67 velocity=96 time=0@note_on channel=2 note=79 velocity=96 time=0@note_on channel=0 note=67 velocity=0 time=0.08828125@note_on channel=1 note=67 velocity=0 time=0.004687500000000001@note_on channel=2 note=79 velocity=0 time=0@note_on channel=9 note=42 velocity=0 time=0@note_on channel=0 note=79 velocity=96 time=0.00078125@note_on channel=1 note=79 velocity=96 time=0@note_on channel=2 note=91 velocity=96 time=0@note_on channel=9 note=38 velocity=80 time=0@note_on channel=9 note=35 velocity=80 time=0@note_on channel=9 note=42 velocity=16 time=0@note_on channel=0 note=79 velocity=0 time=0.08828125@note_on channel=1 note=79 velocity=0 time=0.004687500000000001@note_on channel=2 note=91 velocity=0 time=0@note_on channel=0 note=73 velocity=96 time=0.00078125@note_on channel=1 note=73 velocity=96 time=0@note_on channel=2 note=85 velocity=96 time=0@note_on channel=0 note=73 velocity=0 time=0.08828125@note_on channel=1 note=73 velocity=0 time=0.004687500000000001@note_on channel=2 note=85 velocity=0 time=0@note_on channel=9 note=42 velocity=0 time=0@note_on channel=0 note=70 velocity=96 time=0.00078125@note_on channel=1 note=70 velocity=96 time=0@note_on channel=2 note=82 velocity=96 time=0@note_on channel=9 note=42 velocity=16 time=0@note_on channel=0 note=70 velocity=0 time=0.08828125@note_on channel=1 note=70 velocity=0 time=0.004687500000000001@note_on channel=2 note=82 velocity=0 time=0@note_on channel=9 note=42 velocity=0 time=0@note_on channel=0 note=67 velocity=96 time=0.00078125@note_on channel=1 note=67 velocity=96 time=0@note_on channel=2 note=79 velocity=96 time=0@note_on channel=9 note=42 velocity=16 time=0@note_on channel=0 note=67 velocity=0 time=0.08828125@note_on channel=1 note=67 velocity=0 time=0.004687500000000001@note_on channel=2 note=79 velocity=0 time=0@note_on channel=9 note=38 velocity=0 time=0@note_on channel=9 note=35 velocity=0 time=0@note_on channel=9 note=42 velocity=0 time=0@note_on channel=1 note=82 velocity=0 time=0@note_on channel=0 note=79 velocity=96 time=0.00078125@note_on channel=1 note=79 velocity=96 time=0@note_on channel=2 note=91 velocity=96 time=0@note_on channel=9 note=42 velocity=16 time=0@note_on channel=1 note=84 velocity=126 time=0@note_on channel=0 note=79 velocity=0 time=0.08828125@note_on channel=1 note=79 velocity=0 time=0.004687500000000001@note_on channel=2 note=91 velocity=0 time=0@note_on channel=0 note=73 velocity=96 time=0.00078125@note_on channel=1 note=73 velocity=96 time=0@note_on channel=2 note=85 velocity=96 time=0@note_on channel=0 note=73 velocity=0 time=0.08828125@note_on channel=1 note=73 velocity=0 time=0.004687500000000001@note_on channel=2 note=85 velocity=0 time=0@note_on channel=9 note=42 velocity=0 time=0@note_on channel=0 note=70 velocity=96 time=0.00078125@note_on channel=1 note=70 velocity=96 time=0@note_on channel=2 note=82 velocity=96 time=0@note_on channel=9 note=42 velocity=16 time=0@note_on channel=0 note=70 velocity=0 time=0.08828125@note_on channel=1 note=70 velocity=0 time=0.004687500000000001@note_on channel=2 note=82 velocity=0 time=0@note_on channel=0 note=67 velocity=96 time=0.00078125@note_on channel=1 note=67 velocity=96 time=0@note_on channel=2 note=79 velocity=96 time=0@note_on channel=0 note=67 velocity=0 time=0.08828125@note_on channel=1 note=67 velocity=0 time=0.004687500000000001@note_on channel=2 note=79 velocity=0 time=0@note_on channel=9 note=42 velocity=0 time=0@note_on channel=0 note=79 velocity=96 time=0.00078125@note_on channel=1 note=79 velocity=96 time=0@note_on channel=2 note=91 velocity=96 time=0@note_on channel=9 note=38 velocity=80 time=0@note_on channel=9 note=35 velocity=80 time=0@note_on channel=9 note=42 velocity=16 time=0@note_on channel=0 note=79 velocity=0 time=0.08828125@note_on channel=1 note=79 velocity=0 time=0.004687500000000001@note_on channel=2 note=91 velocity=0 time=0@note_on channel=9 note=38 velocity=0 time=0@note_on channel=9 note=42 velocity=0 time=0@note_on channel=0 note=73 velocity=96 time=0.00078125@note_on channel=1 note=73 velocity=96 time=0@note_on channel=2 note=85 velocity=96 time=0@note_on channel=9 note=38 velocity=80 time=0@note_on channel=9 note=42 velocity=16 time=0@note_on channel=0 note=73 velocity=0 time=0.08828125@note_on channel=1 note=73 velocity=0 time=0.004687500000000001@note_on channel=2 note=85 velocity=0 time=0@note_on channel=9 note=38 velocity=0 time=0@note_on channel=0 note=70 velocity=96 time=0.00078125@note_on channel=1 note=70 velocity=96 time=0@note_on channel=2 note=82 velocity=96 time=0@note_on channel=0 note=70 velocity=0 time=0.08828125@note_on channel=1 note=70 velocity=0 time=0.004687500000000001@note_on channel=2 note=82 velocity=0 time=0@note_on channel=0 note=67 velocity=96 time=0.00078125@note_on channel=1 note=67 velocity=96 time=0@note_on channel=2 note=79 velocity=96 time=0@note_on channel=0 note=67 velocity=0 time=0.08828125@note_on channel=1 note=67 velocity=0 time=0.004687500000000001@note_on channel=1 note=48 velocity=0 time=0@note_on channel=2 note=79 velocity=0 time=0@note_on channel=3 note=58 velocity=0 time=0@note_on channel=4 note=58 velocity=0 time=0@note_on channel=7 note=48 velocity=0 time=0@note_on channel=8 note=70 velocity=0 time=0@note_on channel=10 note=70 velocity=0 time=0@note_on channel=14 note=36 velocity=0 time=0@note_on channel=0 note=48 velocity=0 time=0@note_on channel=9 note=35 velocity=0 time=0@note_on channel=9 note=42 velocity=0 time=0@note_on channel=1 note=84 velocity=0 time=0@note_on channel=7 note=58 velocity=0 time=0@note_on channel=11 note=36 velocity=0 time=0@note_on channel=0 note=82 velocity=96 time=0.00078125@note_on channel=1 note=82 velocity=96 time=0@note_on channel=1 note=49 velocity=96 time=0@note_on channel=2 note=94 velocity=96 time=0@note_on channel=3 note=58 velocity=112 time=0@note_on channel=4 note=58 velocity=112 time=0@note_on channel=7 note=49 velocity=96 time=0@note_on channel=8 note=70 velocity=96 time=0@note_on channel=10 note=70 velocity=96 time=0@note_on channel=14 note=37 velocity=96 time=0@note_on channel=0 note=49 velocity=96 time=0@note_on channel=9 note=42 velocity=16 time=0@note_on channel=1 note=85 velocity=126 time=0@note_on channel=7 note=58 velocity=112 time=0@note_on channel=11 note=41 velocity=96 time=0@note_on channel=0 note=82 velocity=0 time=0.08828125@note_on channel=1 note=82 velocity=0 time=0.004687500000000001@note_on channel=2 note=94 velocity=0 time=0@note_on channel=0 note=77 velocity=96 time=0.00078125@note_on channel=1 note=77 velocity=96 time=0@note_on channel=2 note=89 velocity=96 time=0@note_on channel=0 note=77 velocity=0 time=0.08828125@note_on channel=1 note=77 velocity=0 time=0.004687500000000001@note_on channel=2 note=89 velocity=0 time=0@note_on channel=9 note=42 velocity=0 time=0@note_on channel=0 note=73 velocity=96 time=0.00078125@note_on channel=1 note=73 velocity=96 time=0@note_on channel=2 note=85 velocity=96 time=0@note_on channel=9 note=42 velocity=16 time=0@note_on channel=0 note=73 velocity=0 time=0.08828125@note_on channel=1 note=73 velocity=0 time=0.004687500000000001@note_on channel=2 note=85 velocity=0 time=0@note_on channel=0 note=70 velocity=96 time=0.00078125@note_on channel=1 note=70 velocity=96 time=0@note_on channel=2 note=82 velocity=96 time=0@note_on channel=0 note=70 velocity=0 time=0.08828125@note_on channel=1 note=70 velocity=0 time=0.004687500000000001@note_on channel=2 note=82 velocity=0 time=0@note_on channel=9 note=42 velocity=0 time=0@note_on channel=0 note=82 velocity=96 time=0.00078125@note_on channel=1 note=82 velocity=96 time=0@note_on channel=2 note=94 velocity=96 time=0@note_on channel=9 note=38 velocity=80 time=0@note_on channel=9 note=35 velocity=80 time=0@note_on channel=9 note=42 velocity=16 time=0@note_on channel=0 note=82 velocity=0 time=0.08828125@note_on channel=1 note=82 velocity=0 time=0.004687500000000001@note_on channel=2 note=94 velocity=0 time=0@note_on channel=0 note=77 velocity=96 time=0.00078125@note_on channel=1 note=77 velocity=96 time=0@note_on channel=2 note=89 velocity=96 time=0@note_on channel=0 note=77 velocity=0 time=0.08828125@note_on channel=1 note=77 velocity=0 time=0.004687500000000001@note_on channel=2 note=89 velocity=0 time=0@note_on channel=9 note=42 velocity=0 time=0@note_on channel=0 note=73 velocity=96 time=0.00078125@note_on channel=1 note=73 velocity=96 time=0@note_on channel=2 note=85 velocity=96 time=0@note_on channel=9 note=42 velocity=16 time=0@note_on channel=0 note=73 velocity=0 time=0.08828125@note_on channel=1 note=73 velocity=0 time=0.004687500000000001@note_on channel=2 note=85 velocity=0 time=0@note_on channel=9 note=42 velocity=0 time=0@note_on channel=0 note=70 velocity=96 time=0.00078125@note_on channel=1 note=70 velocity=96 time=0@note_on channel=2 note=82 velocity=96 time=0@note_on channel=9 note=42 velocity=16 time=0@note_on channel=0 note=70 velocity=0 time=0.08828125@note_on channel=1 note=70 velocity=0 time=0.004687500000000001@note_on channel=2 note=82 velocity=0 time=0@note_on channel=9 note=38 velocity=0 time=0@note_on channel=9 note=35 velocity=0 time=0@note_on channel=9 note=42 velocity=0 time=0@note_on channel=0 note=82 velocity=96 time=0.00078125@note_on channel=1 note=82 velocity=96 time=0@note_on channel=2 note=94 velocity=96 time=0@note_on channel=9 note=42 velocity=16 time=0@note_on channel=0 note=82 velocity=0 time=0.08828125@note_on channel=1 note=82 velocity=0 time=0.004687500000000001@note_on channel=2 note=94 velocity=0 time=0@note_on channel=0 note=77 velocity=96 time=0.00078125@note_on channel=1 note=77 velocity=96 time=0@note_on channel=2 note=89 velocity=96 time=0@note_on channel=0 note=77 velocity=0 time=0.08828125@note_on channel=1 note=77 velocity=0 time=0.004687500000000001@note_on channel=2 note=89 velocity=0 time=0@note_on channel=9 note=42 velocity=0 time=0@note_on channel=0 note=73 velocity=96 time=0.00078125@note_on channel=1 note=73 velocity=96 time=0@note_on channel=2 note=85 velocity=96 time=0@note_on channel=9 note=42 velocity=16 time=0@note_on channel=0 note=73 velocity=0 time=0.08828125@note_on channel=1 note=73 velocity=0 time=0.004687500000000001@note_on channel=2 note=85 velocity=0 time=0@note_on channel=0 note=70 velocity=96 time=0.00078125@note_on channel=1 note=70 velocity=96 time=0@note_on channel=2 note=82 velocity=96 time=0@note_on channel=0 note=70 velocity=0 time=0.08828125@note_on channel=1 note=70 velocity=0 time=0.004687500000000001@note_on channel=2 note=82 velocity=0 time=0@note_on channel=3 note=58 velocity=0 time=0@note_on channel=4 note=58 velocity=0 time=0@note_on channel=8 note=70 velocity=0 time=0@note_on channel=10 note=70 velocity=0 time=0@note_on channel=9 note=42 velocity=0 time=0@note_on channel=1 note=85 velocity=0 time=0@note_on channel=7 note=58 velocity=0 time=0@note_on channel=0 note=82 velocity=96 time=0.00078125@note_on channel=1 note=82 velocity=96 time=0@note_on channel=2 note=94 velocity=96 time=0@note_on channel=3 note=60 velocity=112 time=0@note_on channel=4 note=60 velocity=112 time=0@note_on channel=8 note=72 velocity=96 time=0@note_on channel=10 note=72 velocity=96 time=0@note_on channel=9 note=38 velocity=80 time=0@note_on channel=9 note=35 velocity=80 time=0@note_on channel=9 note=42 velocity=16 time=0@note_on channel=1 note=89 velocity=126 time=0@note_on channel=7 note=60 velocity=112 time=0@note_on channel=0 note=82 velocity=0 time=0.08828125@note_on channel=1 note=82 velocity=0 time=0.004687500000000001@note_on channel=2 note=94 velocity=0 time=0@note_on channel=9 note=38 velocity=0 time=0@note_on channel=9 note=42 velocity=0 time=0@note_on channel=0 note=77 velocity=96 time=0.00078125@note_on channel=1 note=77 velocity=96 time=0@note_on channel=2 note=89 velocity=96 time=0@note_on channel=9 note=38 velocity=80 time=0@note_on channel=9 note=42 velocity=16 time=0@note_on channel=0 note=77 velocity=0 time=0.08828125@note_on channel=1 note=77 velocity=0 time=0.004687500000000001@note_on channel=2 note=89 velocity=0 time=0@note_on channel=9 note=38 velocity=0 time=0@note_on channel=0 note=73 velocity=96 time=0.00078125@note_on channel=1 note=73 velocity=96 time=0@note_on channel=2 note=85 velocity=96 time=0@note_on channel=0 note=73 velocity=0 time=0.08828125@note_on channel=1 note=73 velocity=0 time=0.004687500000000001@note_on channel=2 note=85 velocity=0 time=0@note_on channel=0 note=70 velocity=96 time=0.00078125@note_on channel=1 note=70 velocity=96 time=0@note_on channel=2 note=82 velocity=96 time=0@note_on channel=0 note=70 velocity=0 time=0.08828125@note_on channel=1 note=70 velocity=0 time=0.004687500000000001@note_on channel=1 note=49 velocity=0 time=0@note_on channel=2 note=82 velocity=0 time=0@note_on channel=3 note=60 velocity=0 time=0@note_on channel=4 note=60 velocity=0 time=0@note_on channel=7 note=49 velocity=0 time=0@note_on channel=8 note=72 velocity=0 time=0@note_on channel=10 note=72 velocity=0 time=0@note_on channel=14 note=37 velocity=0 time=0@note_on channel=0 note=49 velocity=0 time=0@note_on channel=9 note=35 velocity=0 time=0@note_on channel=9 note=42 velocity=0 time=0@note_on channel=1 note=89 velocity=0 time=0@note_on channel=7 note=60 velocity=0 time=0@note_on channel=11 note=41 velocity=0 time=0@note_on channel=0 note=77 velocity=96 time=0.00078125@note_on channel=1 note=77 velocity=96 time=0@note_on channel=1 note=53 velocity=96 time=0@note_on channel=2 note=89 velocity=96 time=0@note_on channel=3 note=56 velocity=112 time=0@note_on channel=4 note=56 velocity=112 time=0@note_on channel=7 note=53 velocity=96 time=0@note_on channel=8 note=68 velocity=96 time=0@note_on channel=10 note=68 velocity=96 time=0@note_on channel=14 note=41 velocity=96 time=0@note_on channel=0 note=53 velocity=96 time=0@note_on channel=9 note=42 velocity=16 time=0@note_on channel=1 note=84 velocity=126 time=0@note_on channel=7 note=56 velocity=112 time=0@note_on channel=11 note=41 velocity=96 time=0@note_on channel=0 note=77 velocity=0 time=0.08828125@note_on channel=1 note=77 velocity=0 time=0.004687500000000001@note_on channel=2 note=89 velocity=0 time=0@note_on channel=0 note=72 velocity=96 time=0.00078125@note_on channel=1 note=72 velocity=96 time=0@note_on channel=2 note=84 velocity=96 time=0@note_on channel=0 note=72 velocity=0 time=0.08828125@note_on channel=1 note=72 velocity=0 time=0.004687500000000001@note_on channel=2 note=84 velocity=0 time=0@note_on channel=9 note=42 velocity=0 time=0@note_on channel=0 note=68 velocity=96 time=0.00078125@note_on channel=1 note=68 velocity=96 time=0@note_on channel=2 note=80 velocity=96 time=0@note_on channel=9 note=42 velocity=16 time=0@note_on channel=0 note=68 velocity=0 time=0.08828125@note_on channel=1 note=68 velocity=0 time=0.004687500000000001@note_on channel=2 note=80 velocity=0 time=0@note_on channel=0 note=65 velocity=96 time=0.00078125@note_on channel=1 note=65 velocity=96 time=0@note_on channel=2 note=77 velocity=96 time=0@note_on channel=0 note=65 velocity=0 time=0.08828125@note_on channel=1 note=65 velocity=0 time=0.004687500000000001@note_on channel=2 note=77 velocity=0 time=0@note_on channel=9 note=42 velocity=0 time=0@note_on channel=0 note=77 velocity=96 time=0.00078125@note_on channel=1 note=77 velocity=96 time=0@note_on channel=2 note=89 velocity=96 time=0@note_on channel=9 note=38 velocity=80 time=0@note_on channel=9 note=35 velocity=80 time=0@note_on channel=9 note=42 velocity=16 time=0@note_on channel=0 note=77 velocity=0 time=0.08828125@note_on channel=1 note=77 velocity=0 time=0.004687500000000001@note_on channel=2 note=89 velocity=0 time=0@note_on channel=0 note=72 velocity=96 time=0.00078125@note_on channel=1 note=72 velocity=96 time=0@note_on channel=2 note=84 velocity=96 time=0@note_on channel=0 note=72 velocity=0 time=0.08828125@note_on channel=1 note=72 velocity=0 time=0.004687500000000001@note_on channel=2 note=84 velocity=0 time=0@note_on channel=9 note=42 velocity=0 time=0@note_on channel=0 note=68 velocity=96 time=0.00078125@note_on channel=1 note=68 velocity=96 time=0@note_on channel=2 note=80 velocity=96 time=0@note_on channel=9 note=42 velocity=16 time=0@note_on channel=0 note=68 velocity=0 time=0.08828125@note_on channel=1 note=68 velocity=0 time=0.004687500000000001@note_on channel=2 note=80 velocity=0 time=0@note_on channel=9 note=42 velocity=0 time=0@note_on channel=0 note=65 velocity=96 time=0.00078125@note_on channel=1 note=65 velocity=96 time=0@note_on channel=2 note=77 velocity=96 time=0@note_on channel=9 note=42 velocity=16 time=0@note_on channel=0 note=65 velocity=0 time=0.08828125@note_on channel=1 note=65 velocity=0 time=0.004687500000000001@note_on channel=2 note=77 velocity=0 time=0@note_on channel=9 note=38 velocity=0 time=0@note_on channel=9 note=35 velocity=0 time=0@note_on channel=9 note=42 velocity=0 time=0@note_on channel=1 note=84 velocity=0 time=0@note_on channel=0 note=77 velocity=96 time=0.00078125@note_on channel=1 note=77 velocity=96 time=0@note_on channel=2 note=89 velocity=96 time=0@note_on channel=9 note=42 velocity=16 time=0@note_on channel=1 note=82 velocity=126 time=0@note_on channel=0 note=77 velocity=0 time=0.08828125@note_on channel=1 note=77 velocity=0 time=0.004687500000000001@note_on channel=2 note=89 velocity=0 time=0@note_on channel=0 note=72 velocity=96 time=0.00078125@note_on channel=1 note=72 velocity=96 time=0@note_on channel=2 note=84 velocity=96 time=0@note_on channel=0 note=72 velocity=0 time=0.08828125@note_on channel=1 note=72 velocity=0 time=0.004687500000000001@note_on channel=2 note=84 velocity=0 time=0@note_on channel=9 note=42 velocity=0 time=0@note_on channel=0 note=68 velocity=96 time=0.00078125@note_on channel=1 note=68 velocity=96 time=0@note_on channel=2 note=80 velocity=96 time=0@note_on channel=9 note=42 velocity=16 time=0@note_on channel=0 note=68 velocity=0 time=0.08828125@note_on channel=1 note=68 velocity=0 time=0.004687500000000001@note_on channel=2 note=80 velocity=0 time=0@note_on channel=0 note=65 velocity=96 time=0.00078125@note_on channel=1 note=65 velocity=96 time=0@note_on channel=2 note=77 velocity=96 time=0@note_on channel=0 note=65 velocity=0 time=0.08828125@note_on channel=1 note=65 velocity=0 time=0.004687500000000001@note_on channel=2 note=77 velocity=0 time=0@note_on channel=9 note=42 velocity=0 time=0@note_on channel=0 note=77 velocity=96 time=0.00078125@note_on channel=1 note=77 velocity=96 time=0@note_on channel=2 note=89 velocity=96 time=0@note_on channel=9 note=38 velocity=80 time=0@note_on channel=9 note=35 velocity=80 time=0@note_on channel=9 note=42 velocity=16 time=0@note_on channel=0 note=77 velocity=0 time=0.08828125@note_on channel=1 note=77 velocity=0 time=0.004687500000000001@note_on channel=2 note=89 velocity=0 time=0@note_on channel=9 note=38 velocity=0 time=0@note_on channel=9 note=42 velocity=0 time=0@note_on channel=0 note=72 velocity=96 time=0.00078125@note_on channel=1 note=72 velocity=96 time=0@note_on channel=2 note=84 velocity=96 time=0@note_on channel=9 note=38 velocity=80 time=0@note_on channel=9 note=42 velocity=16 time=0@note_on channel=0 note=72 velocity=0 time=0.08828125@note_on channel=1 note=72 velocity=0 time=0.004687500000000001@note_on channel=2 note=84 velocity=0 time=0@note_on channel=9 note=38 velocity=0 time=0@note_on channel=0 note=68 velocity=96 time=0.00078125@note_on channel=1 note=68 velocity=96 time=0@note_on channel=2 note=80 velocity=96 time=0@note_on channel=0 note=68 velocity=0 time=0.08828125@note_on channel=1 note=68 velocity=0 time=0.004687500000000001@note_on channel=2 note=80 velocity=0 time=0@note_on channel=0 note=65 velocity=96 time=0.00078125@note_on channel=1 note=65 velocity=96 time=0@note_on channel=2 note=77 velocity=96 time=0@note_on channel=0 note=65 velocity=0 time=0.08828125@note_on channel=1 note=65 velocity=0 time=0.004687500000000001@note_on channel=1 note=53 velocity=0 time=0@note_on channel=2 note=77 velocity=0 time=0@note_on channel=3 note=56 velocity=0 time=0@note_on channel=4 note=56 velocity=0 time=0@note_on channel=7 note=53 velocity=0 time=0@note_on channel=8 note=68 velocity=0 time=0@note_on channel=10 note=68 velocity=0 time=0@note_on channel=14 note=41 velocity=0 time=0@note_on channel=0 note=53 velocity=0 time=0@note_on channel=9 note=35 velocity=0 time=0@note_on channel=9 note=42 velocity=0 time=0@note_on channel=1 note=82 velocity=0 time=0@note_on channel=7 note=56 velocity=0 time=0@note_on channel=11 note=41 velocity=0 time=0@note_on channel=0 note=79 velocity=96 time=0.00078125@note_on channel=1 note=79 velocity=96 time=0@note_on channel=1 note=46 velocity=96 time=0@note_on channel=2 note=91 velocity=96 time=0@note_on channel=3 note=58 velocity=112 time=0@note_on channel=4 note=58 velocity=112 time=0@note_on channel=7 note=46 velocity=96 time=0@note_on channel=8 note=70 velocity=96 time=0@note_on channel=10 note=70 velocity=96 time=0@note_on channel=14 note=34 velocity=96 time=0@note_on channel=0 note=46 velocity=96 time=0@note_on channel=9 note=42 velocity=16 time=0@note_on channel=1 note=80 velocity=126 time=0@note_on channel=7 note=58 velocity=112 time=0@note_on channel=11 note=34 velocity=96 time=0@note_on channel=0 note=79 velocity=0 time=0.08828125@note_on channel=1 note=79 velocity=0 time=0.004687500000000001@note_on channel=2 note=91 velocity=0 time=0@note_on channel=0 note=73 velocity=96 time=0.00078125@note_on channel=1 note=73 velocity=96 time=0@note_on channel=2 note=85 velocity=96 time=0@note_on channel=0 note=73 velocity=0 time=0.08828125@note_on channel=1 note=73 velocity=0 time=0.004687500000000001@note_on channel=2 note=85 velocity=0 time=0@note_on channel=9 note=42 velocity=0 time=0@note_on channel=0 note=70 velocity=96 time=0.00078125@note_on channel=1 note=70 velocity=96 time=0@note_on channel=2 note=82 velocity=96 time=0@note_on channel=9 note=42 velocity=16 time=0@note_on channel=0 note=70 velocity=0 time=0.08828125@note_on channel=1 note=70 velocity=0 time=0.004687500000000001@note_on channel=2 note=82 velocity=0 time=0@note_on channel=0 note=67 velocity=96 time=0.00078125@note_on channel=1 note=67 velocity=96 time=0@note_on channel=2 note=79 velocity=96 time=0@note_on channel=0 note=67 velocity=0 time=0.08828125@note_on channel=1 note=67 velocity=0 time=0.004687500000000001@note_on channel=2 note=79 velocity=0 time=0@note_on channel=9 note=42 velocity=0 time=0@note_on channel=0 note=79 velocity=96 time=0.00078125@note_on channel=1 note=79 velocity=96 time=0@note_on channel=2 note=91 velocity=96 time=0@note_on channel=9 note=38 velocity=80 time=0@note_on channel=9 note=35 velocity=80 time=0@note_on channel=9 note=42 velocity=16 time=0@note_on channel=0 note=79 velocity=0 time=0.08828125@note_on channel=1 note=79 velocity=0 time=0.004687500000000001@note_on channel=2 note=91 velocity=0 time=0@note_on channel=0 note=73 velocity=96 time=0.00078125@note_on channel=1 note=73 velocity=96 time=0@note_on channel=2 note=85 velocity=96 time=0@note_on channel=0 note=73 velocity=0 time=0.08828125@note_on channel=1 note=73 velocity=0 time=0.004687500000000001@note_on channel=2 note=85 velocity=0 time=0@note_on channel=9 note=42 velocity=0 time=0@note_on channel=0 note=70 velocity=96 time=0.00078125@note_on channel=1 note=70 velocity=96 time=0@note_on channel=2 note=82 velocity=96 time=0@note_on channel=9 note=42 velocity=16 time=0@note_on channel=0 note=70 velocity=0 time=0.08828125@note_on channel=1 note=70 velocity=0 time=0.004687500000000001@note_on channel=2 note=82 velocity=0 time=0@note_on channel=9 note=42 velocity=0 time=0@note_on channel=0 note=67 velocity=96 time=0.00078125@note_on channel=1 note=67 velocity=96 time=0@note_on channel=2 note=79 velocity=96 time=0@note_on channel=9 note=42 velocity=16 time=0@note_on channel=0 note=67 velocity=0 time=0.08828125@note_on channel=1 note=67 velocity=0 time=0.004687500000000001@note_on channel=2 note=79 velocity=0 time=0@note_on channel=9 note=38 velocity=0 time=0@note_on channel=9 note=35 velocity=0 time=0@note_on channel=9 note=42 velocity=0 time=0@note_on channel=1 note=80 velocity=0 time=0@note_on channel=0 note=79 velocity=96 time=0.00078125@note_on channel=1 note=79 velocity=96 time=0@note_on channel=2 note=91 velocity=96 time=0@note_on channel=9 note=42 velocity=16 time=0@note_on channel=1 note=79 velocity=126 time=0@note_on channel=0 note=79 velocity=0 time=0.08828125@note_on channel=1 note=79 velocity=0 time=0.004687500000000001@note_on channel=2 note=91 velocity=0 time=0@note_on channel=0 note=73 velocity=96 time=0.00078125@note_on channel=1 note=73 velocity=96 time=0@note_on channel=2 note=85 velocity=96 time=0@note_on channel=0 note=73 velocity=0 time=0.08828125@note_on channel=1 note=73 velocity=0 time=0.004687500000000001@note_on channel=2 note=85 velocity=0 time=0@note_on channel=9 note=42 velocity=0 time=0@note_on channel=1 note=79 velocity=0 time=0@note_on channel=0 note=70 velocity=96 time=0.00078125@note_on channel=1 note=70 velocity=96 time=0@note_on channel=2 note=82 velocity=96 time=0@note_on channel=9 note=42 velocity=16 time=0@note_on channel=1 note=80 velocity=126 time=0@note_on channel=0 note=70 velocity=0 time=0.08828125@note_on channel=1 note=70 velocity=0 time=0.004687500000000001@note_on channel=2 note=82 velocity=0 time=0@note_on channel=0 note=67 velocity=96 time=0.00078125@note_on channel=1 note=67 velocity=96 time=0@note_on channel=2 note=79 velocity=96 time=0@note_on channel=0 note=67 velocity=0 time=0.08828125@note_on channel=1 note=67 velocity=0 time=0.004687500000000001@note_on channel=2 note=79 velocity=0 time=0@note_on channel=9 note=42 velocity=0 time=0@note_on channel=1 note=80 velocity=0 time=0@note_on channel=0 note=79 velocity=96 time=0.00078125@note_on channel=1 note=79 velocity=96 time=0@note_on channel=2 note=91 velocity=96 time=0@note_on channel=9 note=38 velocity=80 time=0@note_on channel=9 note=35 velocity=80 time=0@note_on channel=9 note=42 velocity=16 time=0@note_on channel=1 note=79 velocity=126 time=0@note_on channel=0 note=79 velocity=0 time=0.08828125@note_on channel=1 note=79 velocity=0 time=0.004687500000000001@note_on channel=2 note=91 velocity=0 time=0@note_on channel=9 note=38 velocity=0 time=0@note_on channel=9 note=42 velocity=0 time=0@note_on channel=0 note=73 velocity=96 time=0.00078125@note_on channel=1 note=73 velocity=96 time=0@note_on channel=2 note=85 velocity=96 time=0@note_on channel=9 note=38 velocity=80 time=0@note_on channel=9 note=42 velocity=16 time=0@note_on channel=0 note=73 velocity=0 time=0.08828125@note_on channel=1 note=73 velocity=0 time=0.004687500000000001@note_on channel=2 note=85 velocity=0 time=0@note_on channel=9 note=38 velocity=0 time=0@note_on channel=0 note=70 velocity=96 time=0.00078125@note_on channel=1 note=70 velocity=96 time=0@note_on channel=2 note=82 velocity=96 time=0@note_on channel=0 note=70 velocity=0 time=0.08828125@note_on channel=1 note=70 velocity=0 time=0.004687500000000001@note_on channel=2 note=82 velocity=0 time=0@note_on channel=0 note=67 velocity=96 time=0.00078125@note_on channel=1 note=67 velocity=96 time=0@note_on channel=2 note=79 velocity=96 time=0@note_on channel=0 note=67 velocity=0 time=0.08828125@note_on channel=1 note=67 velocity=0 time=0.004687500000000001@note_on channel=1 note=46 velocity=0 time=0@note_on channel=2 note=79 velocity=0 time=0@note_on channel=3 note=58 velocity=0 time=0@note_on channel=4 note=58 velocity=0 time=0@note_on channel=7 note=46 velocity=0 time=0@note_on channel=8 note=70 velocity=0 time=0@note_on channel=10 note=70 velocity=0 time=0@note_on channel=14 note=34 velocity=0 time=0@note_on channel=0 note=46 velocity=0 time=0@note_on channel=9 note=35 velocity=0 time=0@note_on channel=9 note=42 velocity=0 time=0@note_on channel=1 note=79 velocity=0 time=0@note_on channel=7 note=58 velocity=0 time=0@note_on channel=11 note=34 velocity=0 time=0@note_on channel=0 note=77 velocity=96 time=0.00078125@note_on channel=1 note=77 velocity=96 time=0@note_on channel=1 note=53 velocity=96 time=0@note_on channel=2 note=89 velocity=96 time=0@note_on channel=3 note=60 velocity=112 time=0@note_on channel=4 note=60 velocity=112 time=0@note_on channel=7 note=53 velocity=96 time=0@note_on channel=8 note=65 velocity=96 time=0@note_on channel=10 note=65 velocity=96 time=0@note_on channel=14 note=41 velocity=96 time=0@note_on channel=0 note=53 velocity=96 time=0@note_on channel=9 note=42 velocity=16 time=0@note_on channel=1 note=77 velocity=126 time=0@note_on channel=7 note=60 velocity=112 time=0@note_on channel=11 note=41 velocity=96 time=0@note_on channel=0 note=77 velocity=0 time=0.08828125@note_on channel=1 note=77 velocity=0 time=0.004687500000000001@note_on channel=2 note=89 velocity=0 time=0@note_on channel=0 note=72 velocity=96 time=0.00078125@note_on channel=1 note=72 velocity=96 time=0@note_on channel=2 note=84 velocity=96 time=0@note_on channel=0 note=72 velocity=0 time=0.08828125@note_on channel=1 note=72 velocity=0 time=0.004687500000000001@note_on channel=2 note=84 velocity=0 time=0@note_on channel=9 note=42 velocity=0 time=0@note_on channel=0 note=68 velocity=96 time=0.00078125@note_on channel=1 note=68 velocity=96 time=0@note_on channel=2 note=80 velocity=96 time=0@note_on channel=9 note=42 velocity=16 time=0@note_on channel=0 note=68 velocity=0 time=0.08828125@note_on channel=1 note=68 velocity=0 time=0.004687500000000001@note_on channel=2 note=80 velocity=0 time=0@note_on channel=0 note=65 velocity=96 time=0.00078125@note_on channel=1 note=65 velocity=96 time=0@note_on channel=2 note=77 velocity=96 time=0@note_on channel=0 note=65 velocity=0 time=0.08828125@note_on channel=1 note=65 velocity=0 time=0.004687500000000001@note_on channel=2 note=77 velocity=0 time=0@note_on channel=9 note=42 velocity=0 time=0@note_on channel=0 note=77 velocity=96 time=0.00078125@note_on channel=1 note=77 velocity=96 time=0@note_on channel=2 note=89 velocity=96 time=0@note_on channel=9 note=38 velocity=80 time=0@note_on channel=9 note=35 velocity=80 time=0@note_on channel=9 note=42 velocity=16 time=0@note_on channel=0 note=77 velocity=0 time=0.08828125@note_on channel=1 note=77 velocity=0 time=0.004687500000000001@note_on channel=2 note=89 velocity=0 time=0@note_on channel=0 note=72 velocity=96 time=0.00078125@note_on channel=1 note=72 velocity=96 time=0@note_on channel=2 note=84 velocity=96 time=0@note_on channel=0 note=72 velocity=0 time=0.08828125@note_on channel=1 note=72 velocity=0 time=0.004687500000000001@note_on channel=2 note=84 velocity=0 time=0@note_on channel=9 note=42 velocity=0 time=0@note_on channel=0 note=68 velocity=96 time=0.00078125@note_on channel=1 note=68 velocity=96 time=0@note_on channel=2 note=80 velocity=96 time=0@note_on channel=9 note=42 velocity=16 time=0@note_on channel=0 note=68 velocity=0 time=0.08828125@note_on channel=1 note=68 velocity=0 time=0.004687500000000001@note_on channel=2 note=80 velocity=0 time=0@note_on channel=9 note=42 velocity=0 time=0@note_on channel=0 note=65 velocity=96 time=0.00078125@note_on channel=1 note=65 velocity=96 time=0@note_on channel=2 note=77 velocity=96 time=0@note_on channel=9 note=42 velocity=16 time=0@note_on channel=0 note=65 velocity=0 time=0.08828125@note_on channel=1 note=65 velocity=0 time=0.004687500000000001@note_on channel=2 note=77 velocity=0 time=0@note_on channel=9 note=38 velocity=0 time=0@note_on channel=9 note=35 velocity=0 time=0@note_on channel=9 note=42 velocity=0 time=0@note_on channel=0 note=77 velocity=96 time=0.00078125@note_on channel=1 note=77 velocity=96 time=0@note_on channel=2 note=89 velocity=96 time=0@note_on channel=9 note=42 velocity=16 time=0@note_on channel=0 note=77 velocity=0 time=0.08828125@note_on channel=1 note=77 velocity=0 time=0.004687500000000001@note_on channel=2 note=89 velocity=0 time=0@note_on channel=0 note=72 velocity=96 time=0.00078125@note_on channel=1 note=72 velocity=96 time=0@note_on channel=2 note=84 velocity=96 time=0@note_on channel=0 note=72 velocity=0 time=0.08828125@note_on channel=1 note=72 velocity=0 time=0.004687500000000001@note_on channel=2 note=84 velocity=0 time=0@note_on channel=9 note=42 velocity=0 time=0@note_on channel=0 note=68 velocity=96 time=0.00078125@note_on channel=1 note=68 velocity=96 time=0@note_on channel=2 note=80 velocity=96 time=0@note_on channel=9 note=42 velocity=16 time=0@note_on channel=0 note=68 velocity=0 time=0.08828125@note_on channel=1 note=68 velocity=0 time=0.004687500000000001@note_on channel=2 note=80 velocity=0 time=0@note_on channel=0 note=65 velocity=96 time=0.00078125@note_on channel=1 note=65 velocity=96 time=0@note_on channel=2 note=77 velocity=96 time=0@note_on channel=0 note=65 velocity=0 time=0.08828125@note_on channel=1 note=65 velocity=0 time=0.004687500000000001@note_on channel=2 note=77 velocity=0 time=0@note_on channel=9 note=42 velocity=0 time=0@note_on channel=1 note=77 velocity=0 time=0@note_on channel=0 note=77 velocity=96 time=0.00078125@note_on channel=1 note=77 velocity=96 time=0@note_on channel=2 note=89 velocity=96 time=0@note_on channel=9 note=38 velocity=80 time=0@note_on channel=9 note=35 velocity=80 time=0@note_on channel=9 note=42 velocity=16 time=0@note_on channel=1 note=89 velocity=126 time=0@note_on channel=0 note=77 velocity=0 time=0.08828125@note_on channel=1 note=77 velocity=0 time=0.004687500000000001@note_on channel=2 note=89 velocity=0 time=0@note_on channel=9 note=38 velocity=0 time=0@note_on channel=9 note=42 velocity=0 time=0@note_on channel=0 note=72 velocity=96 time=0.00078125@note_on channel=1 note=72 velocity=96 time=0@note_on channel=2 note=84 velocity=96 time=0@note_on channel=9 note=38 velocity=80 time=0@note_on channel=9 note=42 velocity=16 time=0@note_on channel=0 note=72 velocity=0 time=0.08828125@note_on channel=1 note=72 velocity=0 time=0.004687500000000001@note_on channel=2 note=84 velocity=0 time=0@note_on channel=9 note=38 velocity=0 time=0@note_on channel=0 note=68 velocity=96 time=0.00078125@note_on channel=1 note=68 velocity=96 time=0@note_on channel=2 note=80 velocity=96 time=0@note_on channel=0 note=68 velocity=0 time=0.08828125@note_on channel=1 note=68 velocity=0 time=0.004687500000000001@note_on channel=2 note=80 velocity=0 time=0@note_on channel=0 note=65 velocity=96 time=0.00078125@note_on channel=1 note=65 velocity=96 time=0@note_on channel=2 note=77 velocity=96 time=0@note_on channel=0 note=65 velocity=0 time=0.08828125@note_on channel=1 note=65 velocity=0 time=0.004687500000000001@note_on channel=1 note=53 velocity=0 time=0@note_on channel=2 note=77 velocity=0 time=0@note_on channel=3 note=60 velocity=0 time=0@note_on channel=4 note=60 velocity=0 time=0@note_on channel=7 note=53 velocity=0 time=0@note_on channel=8 note=65 velocity=0 time=0@note_on channel=10 note=65 velocity=0 time=0@note_on channel=14 note=41 velocity=0 time=0@note_on channel=0 note=53 velocity=0 time=0@note_on channel=9 note=35 velocity=0 time=0@note_on channel=9 note=42 velocity=0 time=0@note_on channel=1 note=89 velocity=0 time=0@note_on channel=7 note=60 velocity=0 time=0@note_on channel=11 note=41 velocity=0 time=0@note_on channel=13 note=53 velocity=126 time=0.00078125@note_on channel=14 note=41 velocity=126 time=0@note_on channel=15 note=65 velocity=80 time=0@note_on channel=9 note=35 velocity=80 time=0@note_on channel=11 note=41 velocity=126 time=0@note_on channel=9 note=35 velocity=0 time=0.37421875000000004@note_on channel=9 note=38 velocity=80 time=0.00078125@note_on channel=9 note=35 velocity=80 time=0@note_on channel=9 note=38 velocity=0 time=0.37421875000000004@note_on channel=9 note=35 velocity=0 time=0@note_on channel=9 note=35 velocity=80 time=0.00078125@note_on channel=9 note=35 velocity=0 time=0.37421875000000004@note_on channel=9 note=38 velocity=80 time=0.00078125@note_on channel=9 note=35 velocity=80 time=0@note_on channel=13 note=53 velocity=0 time=0.37421875000000004@note_on channel=14 note=41 velocity=0 time=0@note_on channel=15 note=65 velocity=0 time=0@note_on channel=9 note=38 velocity=0 time=0@note_on channel=9 note=35 velocity=0 time=0@note_on channel=11 note=41 velocity=0 time=0@note_on channel=13 note=49 velocity=126 time=0.00078125@note_on channel=14 note=37 velocity=126 time=0@note_on channel=9 note=35 velocity=80 time=0@note_on channel=11 note=37 velocity=126 time=0@note_on channel=9 note=35 velocity=0 time=0.37421875000000004@note_on channel=9 note=38 velocity=80 time=0.00078125@note_on channel=9 note=35 velocity=80 time=0@note_on channel=9 note=38 velocity=0 time=0.37421875000000004@note_on channel=9 note=35 velocity=0 time=0@note_on channel=9 note=35 velocity=80 time=0.00078125@note_on channel=9 note=35 velocity=0 time=0.37421875000000004@note_on channel=9 note=38 velocity=80 time=0.00078125@note_on channel=9 note=35 velocity=80 time=0@note_on channel=13 note=49 velocity=0 time=0.37421875000000004@note_on channel=14 note=37 velocity=0 time=0@note_on channel=9 note=38 velocity=0 time=0@note_on channel=9 note=35 velocity=0 time=0@note_on channel=11 note=37 velocity=0 time=0@note_on channel=13 note=48 velocity=126 time=0.00078125@note_on channel=14 note=36 velocity=126 time=0@note_on channel=9 note=35 velocity=80 time=0@note_on channel=11 note=36 velocity=126 time=0@note_on channel=9 note=35 velocity=0 time=0.37421875000000004@note_on channel=9 note=38 velocity=80 time=0.00078125@note_on channel=9 note=35 velocity=80 time=0@note_on channel=9 note=38 velocity=0 time=0.37421875000000004@note_on channel=9 note=35 velocity=0 time=0@note_on channel=9 note=35 velocity=80 time=0.00078125@note_on channel=9 note=35 velocity=0 time=0.37421875000000004@note_on channel=9 note=38 velocity=80 time=0.00078125@note_on channel=9 note=35 velocity=80 time=0@note_on channel=13 note=48 velocity=0 time=0.37421875000000004@note_on channel=14 note=36 velocity=0 time=0@note_on channel=9 note=38 velocity=0 time=0@note_on channel=9 note=35 velocity=0 time=0@note_on channel=11 note=36 velocity=0 time=0@note_on channel=13 note=52 velocity=126 time=0.00078125@note_on channel=14 note=40 velocity=126 time=0@note_on channel=9 note=35 velocity=80 time=0@note_on channel=11 note=40 velocity=126 time=0@note_on channel=9 note=35 velocity=0 time=0.37421875000000004@note_on channel=9 note=38 velocity=80 time=0.00078125@note_on channel=9 note=35 velocity=80 time=0@note_on channel=9 note=38 velocity=0 time=0.37421875000000004@note_on channel=9 note=35 velocity=0 time=0@note_on channel=9 note=35 velocity=80 time=0.00078125@note_on channel=9 note=35 velocity=0 time=0.37421875000000004@note_on channel=9 note=38 velocity=80 time=0.00078125@note_on channel=9 note=35 velocity=80 time=0@note_on channel=13 note=52 velocity=0 time=0.37421875000000004@note_on channel=14 note=40 velocity=0 time=0@note_on channel=9 note=38 velocity=0 time=0@note_on channel=9 note=35 velocity=0 time=0@note_on channel=11 note=40 velocity=0 time=0@note_on channel=13 note=53 velocity=126 time=0.00078125@note_on channel=14 note=41 velocity=126 time=0@note_on channel=15 note=65 velocity=80 time=0@note_on channel=9 note=35 velocity=80 time=0@note_on channel=9 note=46 velocity=16 time=0@note_on channel=11 note=41 velocity=126 time=0@note_on channel=9 note=46 velocity=0 time=0.09296875@note_on channel=9 note=42 velocity=18 time=0.00078125@note_on channel=9 note=42 velocity=0 time=0.09296875@note_on channel=9 note=42 velocity=20 time=0.00078125@note_on channel=9 note=42 velocity=0 time=0.09296875@note_on channel=9 note=42 velocity=22 time=0.00078125@note_on channel=9 note=35 velocity=0 time=0.09296875@note_on channel=9 note=42 velocity=0 time=0@note_on channel=9 note=38 velocity=80 time=0.00078125@note_on channel=9 note=35 velocity=80 time=0@note_on channel=9 note=42 velocity=24 time=0@note_on channel=9 note=42 velocity=0 time=0.09296875@note_on channel=9 note=46 velocity=26 time=0.00078125@note_on channel=9 note=46 velocity=0 time=0.09296875@note_on channel=9 note=42 velocity=28 time=0.00078125@note_on channel=9 note=42 velocity=0 time=0.09296875@note_on channel=9 note=42 velocity=30 time=0.00078125@note_on channel=9 note=38 velocity=0 time=0.09296875@note_on channel=9 note=35 velocity=0 time=0@note_on channel=9 note=42 velocity=0 time=0@note_on channel=9 note=35 velocity=80 time=0.00078125@note_on channel=9 note=46 velocity=32 time=0@note_on channel=9 note=46 velocity=0 time=0.09296875@note_on channel=9 note=42 velocity=35 time=0.00078125@note_on channel=9 note=42 velocity=0 time=0.09296875@note_on channel=9 note=42 velocity=37 time=0.00078125@note_on channel=9 note=42 velocity=0 time=0.09296875@note_on channel=9 note=42 velocity=39 time=0.00078125@note_on channel=9 note=35 velocity=0 time=0.09296875@note_on channel=9 note=42 velocity=0 time=0@note_on channel=9 note=38 velocity=80 time=0.00078125@note_on channel=9 note=35 velocity=80 time=0@note_on channel=9 note=46 velocity=41 time=0@note_on channel=9 note=46 velocity=0 time=0.09296875@note_on channel=9 note=42 velocity=43 time=0.00078125@note_on channel=9 note=42 velocity=0 time=0.09296875@note_on channel=9 note=42 velocity=45 time=0.00078125@note_on channel=9 note=42 velocity=0 time=0.09296875@note_on channel=9 note=42 velocity=47 time=0.00078125@note_on channel=13 note=53 velocity=0 time=0.09296875@note_on channel=14 note=41 velocity=0 time=0@note_on channel=15 note=65 velocity=0 time=0@note_on channel=9 note=38 velocity=0 time=0@note_on channel=9 note=35 velocity=0 time=0@note_on channel=9 note=42 velocity=0 time=0@note_on channel=11 note=41 velocity=0 time=0@note_on channel=13 note=49 velocity=126 time=0.00078125@note_on channel=14 note=37 velocity=126 time=0@note_on channel=9 note=35 velocity=80 time=0@note_on channel=9 note=46 velocity=49 time=0@note_on channel=11 note=37 velocity=126 time=0@note_on channel=9 note=46 velocity=0 time=0.09296875@note_on channel=9 note=42 velocity=51 time=0.00078125@note_on channel=9 note=42 velocity=0 time=0.09296875@note_on channel=9 note=42 velocity=54 time=0.00078125@note_on channel=9 note=42 velocity=0 time=0.09296875@note_on channel=9 note=42 velocity=56 time=0.00078125@note_on channel=9 note=35 velocity=0 time=0.09296875@note_on channel=9 note=42 velocity=0 time=0@note_on channel=9 note=38 velocity=80 time=0.00078125@note_on channel=9 note=35 velocity=80 time=0@note_on channel=9 note=42 velocity=58 time=0@note_on channel=9 note=42 velocity=0 time=0.09296875@note_on channel=9 note=46 velocity=60 time=0.00078125@note_on channel=9 note=46 velocity=0 time=0.09296875@note_on channel=9 note=42 velocity=62 time=0.00078125@note_on channel=9 note=42 velocity=0 time=0.09296875@note_on channel=9 note=42 velocity=64 time=0.00078125@note_on channel=9 note=38 velocity=0 time=0.09296875@note_on channel=9 note=35 velocity=0 time=0@note_on channel=9 note=42 velocity=0 time=0@note_on channel=9 note=35 velocity=80 time=0.00078125@note_on channel=9 note=46 velocity=66 time=0@note_on channel=9 note=46 velocity=0 time=0.09296875@note_on channel=9 note=42 velocity=68 time=0.00078125@note_on channel=9 note=42 velocity=0 time=0.09296875@note_on channel=9 note=42 velocity=71 time=0.00078125@note_on channel=9 note=42 velocity=0 time=0.09296875@note_on channel=9 note=42 velocity=73 time=0.00078125@note_on channel=9 note=35 velocity=0 time=0.09296875@note_on channel=9 note=42 velocity=0 time=0@note_on channel=9 note=38 velocity=80 time=0.00078125@note_on channel=9 note=35 velocity=80 time=0@note_on channel=9 note=46 velocity=75 time=0@note_on channel=9 note=46 velocity=0 time=0.09296875@note_on channel=9 note=42 velocity=77 time=0.00078125@note_on channel=9 note=42 velocity=0 time=0.09296875@note_on channel=9 note=42 velocity=79 time=0.00078125@note_on channel=9 note=42 velocity=0 time=0.09296875@note_on channel=9 note=42 velocity=81 time=0.00078125@note_on channel=13 note=49 velocity=0 time=0.09296875@note_on channel=14 note=37 velocity=0 time=0@note_on channel=9 note=38 velocity=0 time=0@note_on channel=9 note=35 velocity=0 time=0@note_on channel=9 note=42 velocity=0 time=0@note_on channel=11 note=37 velocity=0 time=0@note_on channel=13 note=48 velocity=126 time=0.00078125@note_on channel=14 note=36 velocity=126 time=0@note_on channel=9 note=35 velocity=80 time=0@note_on channel=9 note=46 velocity=83 time=0@note_on channel=11 note=36 velocity=126 time=0@note_on channel=9 note=46 velocity=0 time=0.09296875@note_on channel=9 note=42 velocity=85 time=0.00078125@note_on channel=9 note=42 velocity=0 time=0.09296875@note_on channel=9 note=42 velocity=87 time=0.00078125@note_on channel=9 note=42 velocity=0 time=0.09296875@note_on channel=9 note=42 velocity=90 time=0.00078125@note_on channel=9 note=35 velocity=0 time=0.09296875@note_on channel=9 note=42 velocity=0 time=0@note_on channel=9 note=38 velocity=80 time=0.00078125@note_on channel=9 note=35 velocity=80 time=0@note_on channel=9 note=42 velocity=92 time=0@note_on channel=9 note=42 velocity=0 time=0.09296875@note_on channel=9 note=46 velocity=94 time=0.00078125@note_on channel=9 note=46 velocity=0 time=0.09296875@note_on channel=9 note=42 velocity=96 time=0.00078125@note_on channel=9 note=42 velocity=0 time=0.09296875@note_on channel=9 note=42 velocity=98 time=0.00078125@note_on channel=9 note=38 velocity=0 time=0.09296875@note_on channel=9 note=35 velocity=0 time=0@note_on channel=9 note=42 velocity=0 time=0@note_on channel=9 note=35 velocity=80 time=0.00078125@note_on channel=9 note=46 velocity=100 time=0@note_on channel=9 note=46 velocity=0 time=0.09296875@note_on channel=9 note=42 velocity=102 time=0.00078125@note_on channel=9 note=42 velocity=0 time=0.09296875@note_on channel=9 note=42 velocity=104 time=0.00078125@note_on channel=9 note=42 velocity=0 time=0.09296875@note_on channel=9 note=42 velocity=106 time=0.00078125@note_on channel=9 note=35 velocity=0 time=0.09296875@note_on channel=9 note=42 velocity=0 time=0@note_on channel=9 note=38 velocity=80 time=0.00078125@note_on channel=9 note=35 velocity=80 time=0@note_on channel=9 note=42 velocity=109 time=0@note_on channel=9 note=42 velocity=0 time=0.04609375@note_on channel=9 note=42 velocity=109 time=0.00078125@note_on channel=9 note=42 velocity=0 time=0.04609375@note_on channel=9 note=42 velocity=109 time=0.00078125@note_on channel=9 note=42 velocity=0 time=0.04609375@note_on channel=9 note=42 velocity=109 time=0.00078125@note_on channel=9 note=42 velocity=0 time=0.04609375@note_on channel=9 note=42 velocity=109 time=0.00078125@note_on channel=9 note=42 velocity=0 time=0.04609375@note_on channel=9 note=42 velocity=109 time=0.00078125@note_on channel=9 note=42 velocity=0 time=0.04609375@note_on channel=9 note=42 velocity=109 time=0.00078125@note_on channel=9 note=42 velocity=0 time=0.04609375@note_on channel=9 note=42 velocity=109 time=0.00078125@note_on channel=13 note=48 velocity=0 time=0.04609375@note_on channel=14 note=36 velocity=0 time=0@note_on channel=9 note=38 velocity=0 time=0@note_on channel=9 note=35 velocity=0 time=0@note_on channel=9 note=42 velocity=0 time=0@note_on channel=11 note=36 velocity=0 time=0@note_on channel=13 note=52 velocity=126 time=0.00078125@note_on channel=14 note=40 velocity=126 time=0@note_on channel=9 note=35 velocity=80 time=0@note_on channel=9 note=42 velocity=117 time=0@note_on channel=11 note=40 velocity=126 time=0@note_on channel=9 note=35 velocity=0 time=0.37421875000000004@note_on channel=9 note=42 velocity=0 time=0@note_on channel=9 note=38 velocity=80 time=0.00078125@note_on channel=9 note=35 velocity=80 time=0@note_on channel=9 note=38 velocity=0 time=0.37421875000000004@note_on channel=9 note=35 velocity=0 time=0@note_on channel=9 note=35 velocity=80 time=0.00078125@note_on channel=9 note=35 velocity=0 time=0.37421875000000004@note_on channel=9 note=38 velocity=80 time=0.00078125@note_on channel=9 note=35 velocity=80 time=0@note_on channel=13 note=52 velocity=0 time=0.37421875000000004@note_on channel=14 note=40 velocity=0 time=0@note_on channel=9 note=38 velocity=0 time=0@note_on channel=9 note=35 velocity=0 time=0@note_on channel=11 note=40 velocity=0 time=0@<meta message end_of_track time=0.00078125>@